<svg width="67" height="60" viewBox="0 0 67 60" fill="none" xmlns="http://www.w3.org/2000/svg"><path d="M40.5781 19.8333C39.7773 16.7224 38.1081 13.9033 35.7523 11.6791C35.4723 11.4166 35.0514 11.3783 34.7289 11.5841L31.5631 13.6158C30.8448 13.0991 30.0748 12.6591 29.2631 12.2999V8.46742C29.2631 8.09325 29.0131 7.76492 28.6531 7.66492C25.6731 6.83826 22.4756 6.83826 19.5006 7.66492C19.1398 7.76492 18.8906 8.09325 18.8906 8.46742V12.2991C18.0381 12.6758 17.2281 13.1458 16.4714 13.7008L13.1589 11.7874C12.8356 11.6016 12.4272 11.6508 12.1589 11.9141C9.93225 14.0974 8.34725 16.8358 7.57392 19.8333C7.48142 20.1958 7.64058 20.5758 7.96475 20.7624L11.2822 22.6791C11.2314 23.1433 11.2064 23.6124 11.2064 24.0791C11.2064 24.5449 11.2314 25.0133 11.2822 25.4783L7.96475 27.3924C7.64058 27.5799 7.48142 27.9599 7.57392 28.3224C8.34642 31.3208 9.93142 34.0591 12.1572 36.2408C12.4181 36.4991 12.8181 36.5516 13.1397 36.3774L16.5547 34.5166C17.2881 35.0466 18.0697 35.4958 18.8897 35.8566L18.8914 39.6883C18.8914 40.0608 19.1406 40.3899 19.4998 40.4899C20.9856 40.9058 22.5256 41.1158 24.0764 41.1158C25.6289 41.1158 27.1698 40.9058 28.6556 40.4899C29.0156 40.3891 29.2639 40.0608 29.2639 39.6874V35.8549C30.1173 35.4774 30.9264 35.0099 31.6798 34.4566L34.9939 36.3674C35.3198 36.5533 35.7281 36.5041 35.9931 36.2424C38.2214 34.0633 39.8056 31.3241 40.5781 28.3216C40.6706 27.9591 40.5114 27.5791 40.1873 27.3924L36.8714 25.4783C36.9223 25.0099 36.9481 24.5408 36.9481 24.0791C36.9481 23.6158 36.9223 23.1466 36.8714 22.6791L40.1873 20.7624C40.5114 20.5749 40.6706 20.1949 40.5781 19.8333ZM35.5548 21.5141C35.2581 21.6858 35.0956 22.0224 35.1489 22.3616C35.2356 22.9333 35.2806 23.5108 35.2806 24.0791C35.2806 24.6449 35.2356 25.2224 35.1489 25.7966C35.0964 26.1358 35.2589 26.4724 35.5548 26.6441L38.7939 28.5133C38.1089 30.7841 36.9014 32.8691 35.2689 34.6024L32.0306 32.7358C31.7339 32.5649 31.3589 32.5924 31.0914 32.8091C30.1948 33.5299 29.1981 34.1099 28.1281 34.5266C27.8073 34.6499 27.5964 34.9599 27.5964 35.3033V39.0449C25.2973 39.5841 22.8547 39.5841 20.5564 39.0449L20.5548 35.3016C20.5548 34.9583 20.3431 34.6499 20.0223 34.5249C18.9922 34.1249 18.0231 33.5699 17.1422 32.8749C16.8814 32.6666 16.5189 32.6391 16.2272 32.7966L12.8931 34.6158C11.2539 32.8749 10.0431 30.7866 9.35642 28.5149L12.5956 26.6458C12.8922 26.4741 13.0547 26.1374 13.0022 25.7983C12.9156 25.2308 12.8722 24.6533 12.8722 24.0808C12.8722 23.5058 12.9164 22.9283 13.0022 22.3633C13.0547 22.0241 12.8931 21.6874 12.5956 21.5158L9.35725 19.6424C10.0422 17.3758 11.2497 15.2916 12.8839 13.5533L16.1197 15.4224C16.4164 15.5949 16.7906 15.5658 17.0589 15.3508C17.9606 14.6249 18.9589 14.0474 20.0256 13.6324C20.3464 13.5074 20.5572 13.1991 20.5572 12.8558V9.11492C22.8606 8.57575 25.2914 8.57575 27.5973 9.11492V12.8558C27.5973 13.1991 27.8081 13.5074 28.1281 13.6324C29.1681 14.0383 30.1373 14.5941 31.0081 15.2841C31.2881 15.5058 31.6764 15.5249 31.9756 15.3324L35.0698 13.3466C36.8064 15.1266 38.0823 17.2824 38.7948 19.6433L35.5548 21.5141Z" fill="#0CB4C4"></path><path d="M65.6483 26.7917H48.1058C48.2033 25.9075 48.2683 25.02 48.2683 24.1358C48.2683 23.3283 48.2192 22.5225 48.14 21.7208H63.6367L62.31 23.0483C61.9842 23.3742 61.9842 23.9017 62.31 24.2267C62.4725 24.3892 62.6858 24.4708 62.8992 24.4708C63.1125 24.4708 63.3258 24.3892 63.4883 24.2267L66.2375 21.4767C66.5633 21.1508 66.5633 20.6242 66.2375 20.2983L63.4883 17.5467C63.1625 17.22 62.6358 17.2208 62.31 17.5458C61.9842 17.8708 61.9842 18.3983 62.31 18.7242L63.6383 20.0542H47.9217C47.835 19.5525 47.7375 19.0533 47.6225 18.5592C45.0358 7.63167 35.3792 0 24.135 0C14.1258 0 5.04167 6.29333 1.53 15.66C0.515 18.3642 0 21.215 0 24.1333C0 29.4225 1.6775 34.44 4.85 38.6467C4.86 38.6608 4.86917 38.6733 4.87917 38.6867C6.1125 40.445 7.88833 42.0158 9.52 43.3417V47.2842C9.52 47.7442 9.8925 48.1175 10.3533 48.1175H17.39C17.75 48.1175 18.0417 48.4117 18.0417 48.7708C18.0417 49.1225 17.7433 49.42 17.39 49.42H10.3533C9.8925 49.42 9.52 49.7925 9.52 50.2533V53.225C9.52 53.685 9.8925 54.0583 10.3533 54.0583H23.2667C23.6275 54.0583 23.92 54.3517 23.92 54.7075C23.92 55.0683 23.6267 55.36 23.2667 55.36H10.3542C9.89333 55.36 9.52083 55.7325 9.52083 56.1933V59.1667C9.52083 59.6275 9.89333 60 10.3542 60H34.4092C34.8708 60 35.2425 59.6275 35.2425 59.1667V52.3825C35.885 52.4883 36.4825 52.56 37.0133 52.6083C38.68 52.7592 40.4208 52.7125 42.1908 52.4692C47.1192 51.7917 47.1208 51.0283 47.1217 50.4725C47.1267 48.0883 47.1267 45.7008 47.1258 43.3142V39.9792L50.4242 38.6983C51.2467 38.3792 51.9 37.7558 52.2558 36.9442C52.6158 36.13 52.6367 35.2283 52.3158 34.4058C52.2958 34.3533 52.2683 34.3017 52.2375 34.2533L48.485 28.4575H65.6475C66.1083 28.4575 66.4808 28.0842 66.4808 27.6242C66.4817 27.1642 66.1083 26.7917 65.6483 26.7917ZM50.79 35.0817C50.92 35.4708 50.9008 35.8908 50.7342 36.2717C50.5542 36.6767 50.2317 36.9875 49.8217 37.1467L45.9908 38.6342C45.67 38.7567 45.4592 39.0675 45.4592 39.4108V43.3158C45.46 45.5733 45.46 47.8292 45.4558 50.085C44.8308 50.3242 43.2417 50.6433 41.9642 50.8192C40.3183 51.045 38.705 51.0892 37.165 50.9492C36.29 50.87 35.4458 50.7442 34.6375 50.575C34.6025 50.565 34.5667 50.5575 34.5308 50.5533C30.4533 49.675 27.2808 47.6792 25.6267 44.8867C25.3925 44.4908 24.8808 44.3592 24.485 44.5933C24.0892 44.8275 23.9583 45.3392 24.1925 45.735C26.4292 49.5117 30.2967 51.25 33.5767 52.0442V58.3333H11.1875V57.03H23.2675C24.5467 57.03 25.5875 55.99 25.5875 54.7108C25.5875 53.435 24.5467 52.3958 23.2675 52.3958H11.1875V51.0917H17.3908C18.6692 51.0917 19.7092 50.0517 19.7092 48.7742C19.7092 47.495 18.6692 46.455 17.3908 46.455H11.1875V44.3992C11.7992 44.7342 12.445 45.0567 13.1267 45.3625C13.2375 45.4117 13.3525 45.4358 13.4658 45.4358C13.785 45.4358 14.0883 45.25 14.2275 44.9425C14.4158 44.5208 14.2267 44.0275 13.8067 43.8408C12.7125 43.3508 11.7117 42.8175 10.8317 42.2608C9.21083 40.9575 7.405 39.3992 6.2225 37.7033C6.21583 37.6933 6.20833 37.6842 6.20167 37.6742C3.235 33.7533 1.6675 29.0733 1.6675 24.1383C1.6675 21.4208 2.14667 18.7675 3.09167 16.2508C6.36 7.52583 14.8175 1.66667 24.135 1.66667C34.6033 1.66667 43.5933 8.77083 45.9975 18.9425C46.0842 19.3108 46.1567 19.6825 46.225 20.0542H42.3142C41.8517 20.0542 41.4808 20.4275 41.4808 20.8875C41.4808 21.3475 41.8517 21.7208 42.3142 21.7208H46.4658C46.5525 22.5225 46.5992 23.3283 46.5992 24.1358C46.5992 25.02 46.5275 25.9075 46.4233 26.7917H44.3233L45.65 25.4642C45.9767 25.1383 45.9767 24.6108 45.65 24.285C45.3233 23.96 44.7983 23.96 44.4717 24.285L41.7292 27.0292C41.6475 27.1083 41.5842 27.2025 41.54 27.3092C41.5075 27.3875 41.4975 27.4708 41.4892 27.5542C41.4875 27.5783 41.475 27.5992 41.475 27.6242V27.625C41.475 27.7342 41.4967 27.8433 41.5392 27.9458C41.5567 27.9892 41.5917 28.0225 41.6175 28.0625C41.6492 28.115 41.6725 28.17 41.72 28.2158L44.4692 30.965C44.6308 31.1275 44.845 31.2092 45.0583 31.2092C45.2717 31.2092 45.485 31.1275 45.6475 30.965C45.9742 30.6392 45.9742 30.1117 45.6475 29.7867L44.3175 28.4575H46.4933L50.79 35.0817Z" fill="#0CB4C4"></path><path d="M30.3255 24.9119C30.7855 24.9119 31.1589 24.5386 31.1589 24.0786C31.1589 23.6186 30.7855 23.2453 30.3255 23.2453H29.493V21.6628H30.3255C30.7855 21.6628 31.1589 21.2894 31.1589 20.8294C31.1589 20.3694 30.7855 19.9961 30.3255 19.9961H29.4722C29.3805 19.3136 28.843 18.7761 28.1597 18.6836V17.8294C28.1597 17.3694 27.7864 16.9961 27.3264 16.9961C26.8664 16.9961 26.493 17.3694 26.493 17.8294V18.6628H24.9089V17.8294C24.9089 17.3694 24.5355 16.9961 24.0755 16.9961C23.6155 16.9961 23.2422 17.3694 23.2422 17.8294V18.6628H21.6597V17.8294C21.6597 17.3694 21.2864 16.9961 20.8264 16.9961C20.3664 16.9961 19.993 17.3694 19.993 17.8294V18.6836C19.3105 18.7761 18.773 19.3136 18.6805 19.9961H17.8255C17.3655 19.9961 16.9922 20.3694 16.9922 20.8294C16.9922 21.2894 17.3655 21.6628 17.8255 21.6628H18.6597V23.2453H17.8255C17.3655 23.2453 16.9922 23.6186 16.9922 24.0786C16.9922 24.5386 17.3655 24.9119 17.8255 24.9119H18.6597V26.4961H17.8255C17.3655 26.4961 16.9922 26.8694 16.9922 27.3294C16.9922 27.7894 17.3655 28.1628 17.8255 28.1628H18.6805C18.773 28.8453 19.3097 29.3828 19.993 29.4753V30.3286C19.993 30.7886 20.3664 31.1619 20.8264 31.1619C21.2864 31.1619 21.6597 30.7886 21.6597 30.3286V29.4953H23.2422V30.3286C23.2422 30.7886 23.6155 31.1619 24.0755 31.1619C24.5355 31.1619 24.9089 30.7886 24.9089 30.3286V29.4953H26.493V30.3286C26.493 30.7886 26.8664 31.1619 27.3264 31.1619C27.7864 31.1619 28.1597 30.7886 28.1597 30.3286V29.4753C28.8422 29.3828 29.3797 28.8453 29.4722 28.1628H30.3255C30.7855 28.1628 31.1589 27.7894 31.1589 27.3294C31.1589 26.8694 30.7855 26.4961 30.3255 26.4961H29.493V24.9119H30.3255ZM20.3264 27.8294V20.3294H27.8264V27.8294H20.3264Z" fill="#0CB4C4"></path></svg>