<svg xmlns="http://www.w3.org/2000/svg" xmlns:xlink="http://www.w3.org/1999/xlink" version="1.1" id="Layer_1" x="0px" y="0px" width="63.909px" height="60px" viewBox="0 0 63.909 60" style="enable-background:new 0 0 63.909 60;" xml:space="preserve"><g><path style="fill:#0CB4C4;" d="M3.872,60C1.736,60,0,58.263,0,56.128v-3.615c0-0.544,0.443-0.987,0.987-0.987h3.817V18.793 c0-2.139,1.738-3.88,3.874-3.88h4.65V7.624c0-0.207,0.111-0.53,0.317-0.722l6.632-6.647l0.043-0.028 C20.464,0.074,20.756,0,20.942,0h28.647c0.544,0,0.987,0.443,0.987,0.987v13.926h4.649c2.139,0,3.879,1.741,3.879,3.88v32.733 h3.817c0.544,0,0.986,0.443,0.986,0.987v3.615c0,2.135-1.736,3.872-3.871,3.872H3.872z M1.974,56.128 c0,1.046,0.851,1.897,1.898,1.897h56.167c1.046,0,1.897-0.851,1.897-1.897V53.5H39.323l-0.532,1.946 c-0.117,0.428-0.508,0.727-0.952,0.727H26.07c-0.444,0-0.835-0.299-0.952-0.728L24.586,53.5H1.974V56.128z M37.085,54.199 l0.191-0.7H26.633l0.191,0.7H37.085z M57.132,51.525V18.793c0-1.051-0.855-1.906-1.906-1.906h-4.649v0.502h4.649 c0.773,0,1.403,0.63,1.403,1.404v31.243c0,0.544-0.443,0.987-0.988,0.987H8.268c-0.544,0-0.987-0.442-0.987-0.987V18.793 c0-0.774,0.627-1.404,1.398-1.404h4.65v-0.502h-4.65c-1.048,0-1.9,0.854-1.9,1.906v32.732H57.132z M54.655,49.048V19.364h-4.079 v29.685H54.655z M48.603,49.048V1.975H21.929v5.649c0,0.544-0.443,0.987-0.987,0.987h-5.64v40.438H48.603z M13.328,49.048V19.364 H9.254v29.685H13.328z M19.955,6.637V3.374l-3.255,3.263H19.955z"></path><path style="fill:#0CB4C4;" d="M17.024,46.238v-1.975h1.347V34.087c0-0.544,0.442-0.987,0.986-0.987h3.855 c0.545,0,0.988,0.443,0.988,0.987v10.177h1.281v-12.61c0-0.544,0.443-0.987,0.987-0.987h3.855c0.544,0,0.987,0.443,0.987,0.987 v12.61h1.282V33.101c0-0.544,0.443-0.987,0.987-0.987h3.855c0.544,0,0.987,0.443,0.987,0.987v11.163h1.282V29.792 c0-0.544,0.442-0.987,0.987-0.987h3.855c0.544,0,0.986,0.443,0.986,0.987v14.472h1.347v1.975H17.024z M43.56,44.264V30.778h-1.881 v13.485H43.56z M36.448,44.264V34.088h-1.88v10.175H36.448z M29.337,44.264V32.641h-1.88v11.623H29.337z M22.225,44.264v-9.19 h-1.881v9.19H22.225z"></path><path style="fill:#0CB4C4;" d="M21.749,31.975c-0.73,0-1.416-0.284-1.931-0.799c-1.064-1.064-1.065-2.797-0.001-3.862 c0.517-0.516,1.203-0.799,1.933-0.799c0.73,0,1.417,0.283,1.931,0.799c0.038,0.037,0.074,0.076,0.109,0.115l2.121-0.786 c0.003-0.72,0.277-1.381,0.791-1.895c0.515-0.515,1.201-0.799,1.931-0.799s1.417,0.284,1.931,0.799 c0.416,0.416,0.681,0.945,0.767,1.518l1.917,0.427c0.5-0.762,1.337-1.221,2.266-1.221c0.666,0,1.287,0.236,1.785,0.674l2.397-1.279 c-0.102-0.831,0.174-1.649,0.771-2.248c0.517-0.516,1.203-0.801,1.932-0.801c0.73,0,1.416,0.285,1.932,0.801 c1.064,1.065,1.064,2.797,0,3.862c-0.516,0.516-1.202,0.799-1.932,0.799c-0.664,0-1.291-0.234-1.787-0.665l-2.39,1.275 c0.101,0.829-0.176,1.646-0.774,2.244c-0.515,0.515-1.201,0.799-1.932,0.799c-0.73,0-1.417-0.284-1.932-0.799 c-0.414-0.414-0.678-0.941-0.765-1.515L30.9,28.194c-0.1,0.153-0.211,0.292-0.336,0.417c-0.515,0.516-1.201,0.799-1.932,0.799 s-1.416-0.284-1.931-0.799c-0.038-0.038-0.074-0.076-0.109-0.116l-2.121,0.786c-0.005,0.713-0.284,1.388-0.791,1.895 C23.166,31.691,22.479,31.975,21.749,31.975L21.749,31.975z M21.749,28.489c-0.203,0-0.393,0.078-0.535,0.221 c-0.143,0.143-0.221,0.333-0.221,0.536s0.078,0.393,0.221,0.535c0.132,0.132,0.327,0.208,0.535,0.208 c0.208,0,0.404-0.076,0.536-0.208c0.295-0.295,0.295-0.775,0-1.071C22.142,28.567,21.952,28.489,21.749,28.489z M35.536,27.43 c-0.301,0-0.612,0.223-0.739,0.529c-0.08,0.192-0.113,0.484,0.183,0.781c0.132,0.132,0.328,0.208,0.536,0.208 s0.403-0.076,0.535-0.208c0.144-0.144,0.223-0.334,0.223-0.536c0-0.202-0.08-0.391-0.223-0.534 C35.892,27.51,35.718,27.43,35.536,27.43z M28.632,25.923c-0.203,0-0.392,0.078-0.535,0.221c-0.142,0.142-0.221,0.332-0.221,0.536 c0,0.203,0.079,0.393,0.22,0.535c0.143,0.143,0.333,0.222,0.536,0.222s0.393-0.079,0.536-0.221c0.294-0.295,0.294-0.775,0-1.071 C29.025,26.001,28.835,25.923,28.632,25.923z M42.376,23.775c-0.182,0-0.355,0.081-0.514,0.24c-0.295,0.295-0.295,0.776,0,1.071 c0.143,0.142,0.333,0.22,0.536,0.22c0.203,0,0.393-0.078,0.535-0.221c0.294-0.294,0.261-0.586,0.181-0.78 C42.987,23.999,42.677,23.775,42.376,23.775z"></path><path style="fill:#0CB4C4;" d="M6.332,57.544c-0.982,0-1.781-0.799-1.781-1.781s0.799-1.781,1.781-1.781s1.781,0.799,1.781,1.781 S7.313,57.544,6.332,57.544z M6.332,55.561c-0.111,0-0.202,0.091-0.202,0.202c0,0.111,0.091,0.202,0.202,0.202 c0.117,0,0.201-0.085,0.201-0.202S6.448,55.561,6.332,55.561z"></path><path style="fill:#0CB4C4;" d="M12.307,57.544c-0.982,0-1.781-0.799-1.781-1.781s0.799-1.781,1.781-1.781s1.781,0.799,1.781,1.781 S13.289,57.544,12.307,57.544z M12.307,55.561c-0.111,0-0.202,0.091-0.202,0.202c0,0.111,0.09,0.202,0.202,0.202 c0.117,0,0.202-0.085,0.202-0.202S12.423,55.561,12.307,55.561z"></path><path style="fill:#0CB4C4;" d="M30.96,21.539c-5.126,0-9.268-4.016-9.428-9.143c-0.081-2.574,0.861-5.011,2.653-6.861 c1.791-1.848,4.198-2.867,6.777-2.868h0.049l0.049,0.01c0.081,0.004,0.348,0.029,0.599,0.278c0.313,0.313,0.312,0.381,0.295,2.13 c-0.008,0.869-0.021,2.205-0.013,4.288l3.648-4.4c0.164-0.199,0.407-0.328,0.667-0.353c0.008,0,0.017,0,0.025,0 c0.31,0,0.526,0.081,0.699,0.225c0.199,0.163,0.323,0.268,0.443,0.381c1.888,1.773,2.971,4.28,2.972,6.875 c0.001,2.532-0.988,4.908-2.786,6.692C35.825,20.563,33.463,21.539,30.96,21.539z M29.976,4.705 c-3.788,0.491-6.592,3.746-6.471,7.629c0.127,4.055,3.402,7.23,7.456,7.23c3.763,0,6.917-2.804,7.398-6.475h-7.396 c-0.113,0-0.227-0.021-0.345-0.067l-0.091-0.04c-0.075-0.037-0.149-0.086-0.217-0.146c-0.139-0.138-0.198-0.223-0.242-0.315 l-0.02-0.043l-0.014-0.056c-0.023-0.06-0.041-0.135-0.049-0.214l-0.007-0.025L29.976,4.705z M38.355,11.115 c-0.207-1.515-0.883-2.957-1.913-4.077l-3.38,4.077H38.355z"></path></g></svg>