<svg width="60" height="60" viewBox="0 0 60 60" fill="none" xmlns="http://www.w3.org/2000/svg"><path d="M36.1623 28.0003H27.0003C25.9394 28.0003 24.922 28.4217 24.1719 29.1718C23.4217 29.922 23.0003 30.9394 23.0003 32.0003H17.4143L13.5353 28.1223C13.1798 27.7668 12.7578 27.4848 12.2933 27.2924C11.8288 27.1 11.331 27.001 10.8283 27.001C9.81295 27.001 8.83922 27.4043 8.12128 28.1223C7.76579 28.4777 7.4838 28.8998 7.29141 29.3642C7.09902 29.8287 7 30.3265 7 30.8293C7 31.8446 7.40334 32.8183 8.12128 33.5363L14.5863 40.0003H53.0003V30.0003H42.1623L36.1623 28.0003ZM51.0003 38.0003H15.4143L9.53528 32.1223C9.27961 31.8665 9.10551 31.5406 9.03498 31.1859C8.96446 30.8312 9.00068 30.4635 9.13906 30.1294C9.27745 29.7953 9.51178 29.5097 9.81245 29.3087C10.1131 29.1077 10.4666 29.0004 10.8283 29.0003C11.3131 29.0015 11.7778 29.1941 12.1213 29.5363L16.5863 34.0003H23.5373C23.8883 34.6082 24.393 35.113 25.0009 35.4641C25.6088 35.8151 26.2983 36.0001 27.0003 36.0003H36.0003V34.0003H27.0003C26.4698 34.0003 25.9611 33.7895 25.5861 33.4145C25.211 33.0394 25.0003 32.5307 25.0003 32.0003C25.0003 31.4698 25.211 30.9611 25.5861 30.586C25.9611 30.211 26.4698 30.0003 27.0003 30.0003H35.8383L41.8383 32.0003H51.0003V38.0003Z" fill="#0CB4C4"></path><path d="M30 19C31.1867 19 32.3467 18.6481 33.3334 17.9888C34.3201 17.3295 35.0892 16.3925 35.5433 15.2961C35.9974 14.1997 36.1162 12.9933 35.8847 11.8295C35.6532 10.6656 35.0818 9.59648 34.2426 8.75736C33.4035 7.91825 32.3344 7.3468 31.1705 7.11529C30.0067 6.88378 28.8003 7.0026 27.7039 7.45673C26.6075 7.91085 25.6705 8.67989 25.0112 9.66658C24.3519 10.6533 24 11.8133 24 13C24.0016 14.5908 24.6342 16.116 25.7591 17.2409C26.884 18.3658 28.4092 18.9984 30 19ZM30 17C28.9391 17 27.9217 16.5786 27.1716 15.8284C26.4214 15.0783 26 14.0609 26 13C26.0042 12.662 26.0519 12.3259 26.142 12H33.858C33.9481 12.3259 33.9958 12.662 34 13C34 14.0609 33.5786 15.0783 32.8284 15.8284C32.0783 16.5786 31.0609 17 30 17ZM32.618 10H27.382C28.102 9.35603 29.034 9.00002 30 9.00002C30.966 9.00002 31.898 9.35603 32.618 10Z" fill="#0CB4C4"></path><path d="M39.534 10C39.3582 9.44142 39.133 8.89961 38.861 8.381L41.313 5.929L37.071 1.687L34.619 4.139C34.1004 3.86703 33.5586 3.6418 33 3.466V0H27V3.466C26.4414 3.6418 25.8996 3.86703 25.381 4.139L22.929 1.687L18.687 5.929L21.139 8.381C20.867 8.89961 20.6418 9.44142 20.466 10H0V50H24V53.808L21.523 60H38.477L36 53.808V50H60V10H39.534ZM19 12H22.028L22.205 11.222C22.4052 10.3456 22.7525 9.50942 23.232 8.749L23.658 8.073L21.515 5.929L22.929 4.515L25.072 6.658L25.747 6.233C26.5078 5.75282 27.3447 5.40553 28.222 5.206L29 5.029V2H31V5.029L31.778 5.206C32.6553 5.40553 33.4922 5.75282 34.253 6.233L34.928 6.658L37.071 4.515L38.485 5.929L36.342 8.073L36.768 8.749C37.2493 9.50908 37.5982 10.3453 37.8 11.222L37.977 12H41V14H37.972L37.795 14.778C37.5948 15.6544 37.2475 16.4906 36.768 17.251L36.342 17.927L38.485 20.071L37.071 21.485L34.928 19.342L34.252 19.767C33.4917 20.2474 32.655 20.5948 31.778 20.794L31 20.971V24H29V20.971L28.222 20.794C27.345 20.5948 26.5083 20.2474 25.748 19.767L25.072 19.342L22.929 21.485L21.515 20.071L23.658 17.927L23.232 17.251C22.7525 16.4906 22.4052 15.6544 22.205 14.778L22.028 14H19V12ZM24.477 58L25.677 55H34.323L35.523 58H24.477ZM34 53H26V50H34V53ZM58 48H2V44H58V48ZM58 12V42H2V12H17V16H20.466C20.6418 16.5586 20.867 17.1004 21.139 17.619L18.687 20.071L22.929 24.313L25.381 21.862C25.8997 22.1334 26.4415 22.3583 27 22.534V26H33V22.534C33.5585 22.3583 34.1003 22.1334 34.619 21.862L37.071 24.313L41.313 20.071L38.861 17.619C39.133 17.1004 39.3582 16.5586 39.534 16H43V12H58Z" fill="#0CB4C4"></path></svg>