<svg id="Layer_1" data-name="Layer 1" xmlns="http://www.w3.org/2000/svg" width="74.7" height="60" viewBox="0 0 74.7 60"><defs><style> .cls-1 { fill: #0cb4c4; } </style></defs><path class="cls-1" d="M55,4.32h1.7V6H55Z"></path><path class="cls-1" d="M56.9,6.27H54.7V4.07h2.2Zm-1.7-.5h1.2V4.57H55.2Z"></path><path class="cls-1" d="M59.25,4.32H61V6h-1.7Z"></path><path class="cls-1" d="M61.2,6.27H59V4.07h2.2Zm-1.7-.5h1.2V4.57H59.5Z"></path><path class="cls-1" d="M63.56,4.32h1.69V6H63.56Z"></path><path class="cls-1" d="M65.5,6.27H63.31V4.07H65.5Zm-1.69-.5H65V4.57H63.81Z"></path><path class="cls-1" d="M70.24,46.78V3.31A3,3,0,0,0,67.18.25H7.29a3,3,0,0,0-3,3.06V46.78h-4v3.39l3.17,4.08H71.26l3.17-4.08V46.78ZM7.29,1.83H67.18a1.38,1.38,0,0,1,1.36,1.36v5H5.82v-5A1.48,1.48,0,0,1,7.29,1.83ZM5.82,10H68.54V46.78H5.82ZM72.5,49.5l-2.26,2.94H4.12L1.86,49.5V48.36H72.5Z"></path><path class="cls-1" d="M71.38,54.5H3.32L0,50.26V46.53H4V3.31A3.31,3.31,0,0,1,7.29,0H67.18a3.31,3.31,0,0,1,3.31,3.31V46.53h4.19v3.73ZM3.57,54H71.13l3.05-3.91V47H70V3.31A2.81,2.81,0,0,0,67.18.5H7.29a2.81,2.81,0,0,0-2.8,2.81V47h-4v3.06Zm.55-1.31H4L1.61,49.58V48.11H72.75v1.47l-2.39,3.11Zm-2-3.28,2.14,2.78H70.11l2.14-2.78v-.8H2.11ZM68.79,47H5.57V9.74H68.79Zm-62.72-.5H68.29V10.24H6.07ZM68.79,8.42H5.57V3.19A1.74,1.74,0,0,1,7.29,1.58H67.18a1.64,1.64,0,0,1,1.61,1.61ZM6.07,7.92H68.29V3.19a1.13,1.13,0,0,0-1.11-1.11H7.29A1.23,1.23,0,0,0,6.07,3.19Z"></path><path class="cls-1" d="M49.18,21.65a8.6,8.6,0,0,0-8.61,8.6v3.62a7.25,7.25,0,1,1-14.49,0V27.42h2.61a3,3,0,0,0,3-3.06v-5.2h1.14a.8.8,0,0,0,0-1.59H29.59V14H27.9v3.62H22.46V14h-1.7v3.62H17.48a.8.8,0,0,0,0,1.59h1.13v5.2a3,3,0,0,0,3.06,3.06h2.6v6.45a8.95,8.95,0,1,0,17.89,0V30.25a6.91,6.91,0,1,1,13.81,0V35h1.7V30.25a8.58,8.58,0,0,0-8.49-8.6ZM20.31,24.36v-5.2h9.85v5.2a1.37,1.37,0,0,1-1.36,1.36h-7a1.34,1.34,0,0,1-1.47-1.36Z"></path><path class="cls-1" d="M33.22,43.07a9.1,9.1,0,0,1-9.2-9.2v-6.2H21.67a3.31,3.31,0,0,1-3.31-3.31V19.41h-.88a1,1,0,0,1,0-2.09h3V13.7h2.2v3.62h4.94V13.7h2.2v3.62h3a1,1,0,0,1,0,2.09H32v4.95a3.31,3.31,0,0,1-3.3,3.31H26.34v6.2a7.09,7.09,0,0,0,7,7,7,7,0,0,0,7-7V30.25a8.8,8.8,0,1,1,17.6,0v5h-2.2v-5a6.66,6.66,0,1,0-13.31,0v3.62A9.1,9.1,0,0,1,33.22,43.07ZM17.48,17.82a.55.55,0,0,0,0,1.09h1.38v5.45a2.81,2.81,0,0,0,2.81,2.81h2.85v6.7a8.7,8.7,0,1,0,17.39,0V30.25a7.16,7.16,0,1,1,14.31,0v4.5h1.2v-4.5a8.3,8.3,0,1,0-16.6,0v3.62a7.49,7.49,0,1,1-15,0v-6.7h2.85a2.8,2.8,0,0,0,2.8-2.81V18.91h1.39a.55.55,0,0,0,0-1.09H29.34V14.2h-1.2v3.62H22.21V14.2H21v3.62ZM21.59,26a1.46,1.46,0,0,1-1-.38,1.66,1.66,0,0,1-.57-1.25V18.91H30.41v5.45A1.63,1.63,0,0,1,28.8,26h-7Zm-1-6.58v4.95a1.15,1.15,0,0,0,.4.87,1,1,0,0,0,.79.24H28.8a1.12,1.12,0,0,0,1.11-1.11V19.41Z"></path></svg>