<svg width="44" height="60" viewBox="0 0 44 60" fill="none" xmlns="http://www.w3.org/2000/svg"><path d="M34.1959 44.7006C34.1959 43.5764 33.6674 42.5755 32.8479 41.9269C33.0331 41.734 33.2267 41.5346 33.4345 41.3203C36.8799 37.7768 43.2925 31.1809 43.2925 21.3519C43.2925 18.0904 42.7098 15.0742 41.5714 12.3748C41.8889 10.3994 41.956 8.08076 41.7753 5.37038C41.754 5.04965 41.5727 4.76055 41.2926 4.6018C41.0138 4.44305 40.6731 4.4353 40.3853 4.5805C39.2689 5.14839 38.2286 5.63626 37.2593 6.06217C31.1584 0.122572 21.2126 -1.69145 12.7904 1.68814C4.66185 4.95027 0 12.1179 0 21.3519C0 31.1661 6.40424 37.7601 9.84448 41.3029C10.0581 41.523 10.2562 41.7275 10.4459 41.925C9.62572 42.5729 9.0959 43.5751 9.0959 44.6999C9.0959 45.717 9.52956 46.6327 10.2188 47.278C9.52956 47.924 9.0959 48.839 9.0959 49.8561C9.0959 51.8056 10.6808 53.3918 12.6291 53.3918H13.5512C14.365 57.8569 17.9543 59.9329 21.3262 59.9987C21.3797 59.9994 21.4333 60 21.4868 60C24.8497 60 28.67 57.9414 29.6683 53.3912H30.6634C32.6117 53.3912 34.1966 51.805 34.1966 49.8554C34.1966 48.8384 33.7629 47.9227 33.0737 47.2774C33.7629 46.6314 34.1966 45.7163 34.1966 44.6993L34.1959 44.7006ZM41.3772 21.3526C41.3772 30.4033 35.546 36.4016 32.0612 39.9858C31.6314 40.4278 31.2616 40.8137 30.9241 41.1777C30.8377 41.1713 30.7512 41.1642 30.6628 41.1642H22.5394C22.4135 39.3069 22.3187 37.4542 22.2935 35.6408C22.9375 34.7135 23.6635 33.8674 24.4534 33.1195C26.8147 34.2591 28.8752 34.8341 30.6654 34.8341C31.7895 34.8341 32.8091 34.6102 33.732 34.163C36.3952 32.8736 38.1124 29.8593 39.1366 24.6767C39.1992 24.3611 39.0985 24.0352 38.8701 23.8093C38.6403 23.5828 38.3131 23.488 37.9982 23.5538C34.3857 24.3185 31.8695 24.4243 30.0316 24.5018C25.526 24.6915 24.5696 25.2471 23.4015 31.4888C23.0324 31.8243 22.6743 32.176 22.3296 32.5471C22.3974 30.8815 22.5497 29.2688 22.8259 27.7433C22.8646 27.6407 22.8866 27.5329 22.8891 27.4232C23.3641 24.9748 24.1643 22.7555 25.444 20.8976C27.4632 21.3197 29.2863 21.5365 30.9145 21.5365C34.0069 21.5365 36.4101 20.7718 38.1879 19.2353C39.2521 18.315 40.0775 17.1392 40.6763 15.6821C41.1397 17.4542 41.3765 19.3501 41.3765 21.3519L41.3772 21.3526ZM29.1327 29.1165C28.9314 28.628 28.3699 28.3931 27.8821 28.5964C27.1348 28.9042 26.4055 29.2875 25.6989 29.7309C26.4004 26.5778 27.0328 26.5455 30.1123 26.4152C31.7631 26.3455 33.9423 26.2539 36.9463 25.7118C36.0513 29.3488 34.7212 31.5552 32.8969 32.438C31.219 33.2505 28.9817 33.0227 26.1022 31.765C26.9044 31.1996 27.7452 30.724 28.6119 30.3665C29.1011 30.1652 29.334 29.6057 29.1327 29.1165ZM36.9354 17.7859C34.8503 19.5876 31.5333 20.0464 26.8469 19.212C27.8472 18.2092 29.0475 17.3593 30.4937 16.7011C30.9751 16.4816 31.1874 15.9138 30.968 15.4323C30.7499 14.9503 30.1833 14.7386 29.6993 14.9574C28.3493 15.5717 27.189 16.3358 26.1894 17.2167C25.8938 11.9966 26.6617 11.754 30.9357 10.4136C32.6162 9.88703 34.7316 9.22041 37.3903 8.09109C37.3961 8.08915 37.4006 8.08592 37.4065 8.08399C38.2015 7.74584 39.0398 7.3709 39.9368 6.93982C40.1162 12.3328 39.1301 15.8886 36.9354 17.7859ZM11.2184 39.969C7.73878 36.3861 1.91533 30.3898 1.91533 21.3526C1.91533 12.9414 6.13901 6.42227 13.5035 3.46666C20.9674 0.47105 29.7193 1.88884 35.3285 6.86238C33.3525 7.64194 31.7095 8.16272 30.3633 8.58541C24.8284 10.3207 23.8287 11.2416 24.4037 19.1294C23.0234 20.9138 22.0857 22.9924 21.4656 25.2078C20.9583 24.6089 20.4188 24.0507 19.8503 23.5351C18.6816 17.2948 17.7252 16.7385 13.2196 16.5488C11.3817 16.4713 8.86552 16.3655 5.25362 15.6014C4.9387 15.5356 4.61151 15.6305 4.38242 15.8563C4.15333 16.0822 4.05266 16.4074 4.11526 16.7236C5.13423 21.903 6.84951 24.9167 9.51343 26.208C10.4382 26.6565 11.4584 26.8805 12.5852 26.8805C14.3753 26.8805 16.4378 26.3055 18.7991 25.1658C19.5715 25.8976 20.2827 26.7237 20.9164 27.6271C20.0813 32.2664 20.3407 37.2206 20.6176 41.1635H12.6291C12.5413 41.1635 12.4555 41.1706 12.3697 41.1764C12.0283 40.8073 11.654 40.4162 11.219 39.9677L11.2184 39.969ZM14.6393 22.4141C15.5066 22.7717 16.3475 23.2473 17.1502 23.8132C14.2682 25.071 12.0276 25.2988 10.3498 24.485C8.52479 23.6009 7.19541 21.3952 6.30421 17.7607C9.30886 18.3028 11.4875 18.3944 13.1389 18.4641C16.2184 18.5938 16.8508 18.6267 17.5523 21.7785C16.8463 21.3352 16.1171 20.9525 15.3704 20.644C14.88 20.4414 14.3211 20.675 14.1198 21.1641C13.9184 21.6533 14.1508 22.2128 14.6399 22.4148L14.6393 22.4141ZM21.3636 58.0853C18.8888 58.0369 16.2578 56.5604 15.5079 53.3938H27.6994C26.7844 56.692 23.9856 58.1428 21.3636 58.0853ZM32.28 49.8574C32.28 50.7505 31.5546 51.4778 30.6628 51.4778H12.6291C11.7372 51.4778 11.0119 50.7512 11.0119 49.8574C11.0119 48.9636 11.7372 48.237 12.6291 48.237H30.6628C31.5546 48.237 32.28 48.9636 32.28 49.8574ZM12.6291 46.321C11.7372 46.321 11.0119 45.5943 11.0119 44.7006C11.0119 43.8068 11.7372 43.0801 12.6291 43.0801H30.6628C31.5546 43.0801 32.28 43.8068 32.28 44.7006C32.28 45.5943 31.5546 46.321 30.6628 46.321H12.6291Z" fill="#0CB4C4"></path></svg>