<svg id="Layer_1" data-name="Layer 1" xmlns="http://www.w3.org/2000/svg" width="63.4" height="60" viewBox="0 0 63.4 60"><defs><style> .cls-1 { fill: #0cb4c4; } </style></defs><path class="cls-1" d="M36.39,23.49c0,.08,0,.14,0,.21s0,.16,0,.06,0,.09,0,.11l0,.13-.06.18s.06-.12,0,0a3.24,3.24,0,0,1-.2.36l0,.05-.07.08a2.39,2.39,0,0,1-.23.22c.11-.1-.09.06-.13.09l-.13.07a.43.43,0,0,1-.12.06,1.65,1.65,0,0,1-1.27,0c-.19-.05-.11,0-.06,0L33.86,25l-.24-.15c-.16-.09-.06,0,0,0l-.14-.12-.1-.1s-.15-.18,0,0a2.61,2.61,0,0,1-.17-.28s-.14-.3-.08-.14a3,3,0,0,1-.1-.32l0-.14c0,.16,0,0,0-.08s0-.24,0-.35,0-.19,0,0l0-.14c0-.1.06-.21.09-.31,0,.16.06-.13.09-.18s.21-.31.1-.18a1.8,1.8,0,0,1,.19-.2s.28-.24.15-.14a3,3,0,0,1,.3-.19l.08,0c-.08,0,.12,0,.14,0a2.49,2.49,0,0,1,.37-.09c-.1,0,.2,0,.24,0a.77.77,0,0,1,.3,0,1.78,1.78,0,0,1,.65.28s.13.09,0,0,.09.09.11.1a3.07,3.07,0,0,1,.25.26c-.1-.13.08.13.11.18s.14.34.09.18c0,.14.08.27.11.4s0,0,0,0a1.78,1.78,0,0,1,0,.3,1,1,0,1,0,2,0,3.69,3.69,0,1,0-3,3.61,3.72,3.72,0,0,0,3-3.61,1,1,0,0,0-1-1,1,1,0,0,0-1,1Z"></path><path class="cls-1" d="M34.37,21.09V2.73h0a1.09,1.09,0,0,1,0-.18c0,.15,0,0,0,0s.1-.21,0,0a1.09,1.09,0,0,0,.08-.15s.11-.15,0,0l.11-.12a.69.69,0,0,1,.13-.11c-.15.11,0,0,0,0S35,2,34.83,2s.1,0,.12,0c.23-.09-.1,0,0,0h.31c-.06,0-.15,0,0,0l.16,0c-.16-.06,0,0,0,0l.15.1c-.17-.12,0,0,.06.06s0,.05,0,0a1.22,1.22,0,0,1,.12.19s.08.19,0,.08,0,.14,0,.13a.53.53,0,0,0,0,.12c0,.09,0,.19.05.28l.57,3.2c.44,2.45.88,4.89,1.31,7.34l0,.14a1,1,0,0,0,1.21.69,1,1,0,0,0,.68-1.21c-.4-2.23-.79-4.45-1.19-6.68-.22-1.23-.45-2.46-.66-3.7,0-.2-.07-.41-.11-.61a2.72,2.72,0,0,0-5.37.56V14.88c0,2,0,4.08,0,6.11v.1a1,1,0,1,0,1.95,0Z"></path><path class="cls-1" d="M32.65,24.94l-4.18,2.41L20.76,31.8l-2.93,1.69L17,34l-.22.12-.05,0h0c-.16.11.1,0-.1.06l-.17,0c-.06,0-.15,0,0,0-.06,0-.37,0-.17,0l-.2,0c-.15,0,.12.07,0,0l-.19-.11c.12.07,0,0,0,0a1,1,0,0,1-.21-.3,1.06,1.06,0,0,1,0-.19c0,.17,0,0,0,0s0-.29,0-.14,0-.11,0-.14c.05-.25,0,.07,0-.07l.09-.16c.08-.13-.08.09,0,0l.17-.17,0,0,.24-.2,2.49-2.1,5.67-4.78.11-.1a1,1,0,0,0,0-1.38,1,1,0,0,0-1.38,0l-5.16,4.35L15,31l-.48.42a2.71,2.71,0,0,0,3.17,4.37l.38-.22,2.41-1.39,7.79-4.51c1.74-1,3.51-2,5.24-3l.08,0A1,1,0,0,0,34,25.29a1,1,0,0,0-1.33-.35Z"></path><path class="cls-1" d="M37.79,46.91a9.55,9.55,0,0,0-6.63,1.37l1.48.85c0-.77.1-1.55.16-2.32.12-1.85.24-3.71.37-5.56.15-2.25.31-4.49.46-6.74L34,28.69c.07-.94.19-1.89.19-2.83v0l-1.47.85a3.77,3.77,0,0,0,3.8,0l-1.47-.85.51,7.5.8,11.84.18,2.7a1,1,0,0,0,2,0L38,40.37l-.8-11.85c-.06-.9-.13-1.79-.19-2.69A1,1,0,0,0,35.55,25a1.76,1.76,0,0,1-.95.25,1.73,1.73,0,0,1-.87-.27,1,1,0,0,0-1.48.85l-.15,2.32c-.13,1.85-.25,3.71-.38,5.56-.15,2.25-.31,4.49-.46,6.74l-.39,5.82c-.06.94-.17,1.9-.19,2.84v0a1,1,0,0,0,1.48.85,7.48,7.48,0,0,1,5.12-1.17,1,1,0,1,0,.51-1.89Z"></path><path class="cls-1" d="M44,53.94c.25,0,.48,0,.72,0L45,54l.18,0h0a5.94,5.94,0,0,1,1.1.29s.29.12.09,0l.27.13c.17.09.33.17.49.27l.25.16s.27.21.11.08a4.87,4.87,0,0,1,.42.35c.14.13.26.27.38.4s.12.13.17.2h0l.1.14a6.2,6.2,0,0,1,.55,1c.1.21,0-.11,0,.08l.12.33c.05.17.1.33.14.51l.06.3a.69.69,0,0,0,0,.13h0c0,.21,0,.43,0,.64l1-1H23c-1.26,0-2.54-.07-3.8,0h-.06l1,1c0-.64,0-1.27,0-1.9,0,0,0-.25,0,0,0-.06,0-.12,0-.18s.05-.23.08-.35a7,7,0,0,1,.21-.75c0-.11.08-.22.13-.33s0,0,0,0a.77.77,0,0,1,.07-.16,7.3,7.3,0,0,1,.36-.68,5.72,5.72,0,0,1,.39-.57c.16-.22-.08.09,0,0l.11-.13.26-.28a5,5,0,0,1,.52-.51s.32-.26.16-.14l.31-.22c.21-.14.41-.26.62-.38l.31-.16.16-.07c.19-.09-.13.05.08,0a7.66,7.66,0,0,1,1.44-.4l.17,0h.1l.41,0c.34,0,.67,0,1,0a7.46,7.46,0,0,1,1,.19l.53.17a2.55,2.55,0,0,1,.38.16,1,1,0,0,0,1.34-.35,1,1,0,0,0-.35-1.34,8.26,8.26,0,0,0-11.66,5.79A15.27,15.27,0,0,0,18.11,59a1,1,0,0,0,1,1h27.5c1.27,0,2.54,0,3.8,0h.06a1,1,0,0,0,1-1A7,7,0,0,0,44,52a1,1,0,1,0,0,1.93Z"></path><path class="cls-1" d="M44.92,52.7a9.43,9.43,0,0,0-7.12-5.79,1,1,0,0,0-.52,1.9,8.81,8.81,0,0,1,1,.22l.5.17.22.08c.28.11-.16-.08.11,0a7.1,7.1,0,0,1,.91.47l.43.28.19.13s.24.19.1.07c.26.22.51.44.75.68s.22.22.32.34.12.13.18.21.18.23.08.09a8.67,8.67,0,0,1,.53.81,4.92,4.92,0,0,1,.24.45l.13.25s.12.28,0,.11a1,1,0,0,0,1.21.69,1,1,0,0,0,.67-1.21Z"></path><path class="cls-1" d="M31.17,48.28a9.78,9.78,0,0,0-2.57,2.48A1,1,0,0,0,29,52.09a1,1,0,0,0,1.34-.35A7.73,7.73,0,0,1,32.16,50a1,1,0,0,0,.35-1.34,1,1,0,0,0-1.34-.34Z"></path><path class="cls-1" d="M22.07,12.57h.18c-.19,0,0,0,.05,0s.39.14.21.06a2.85,2.85,0,0,1,.3.16c.15.08.05,0,0,0A1.45,1.45,0,0,1,23,13l.11.12c-.11-.13,0,0,0,0l.11.18s.09.19,0,.08,0,.13,0,.13,0,.11,0,.16,0,.18,0,0c0,.09,0,.18,0,.28s0,.19,0,0a.86.86,0,0,1,0,.17c0,.05-.12.36,0,.18a1.77,1.77,0,0,1-.19.33c-.08.13.16-.15,0,0l-.15.15s-.19.15,0,0l-.14.09c-.06,0-.33.15-.15.08a2.38,2.38,0,0,1-.38.11c-.15,0,.15,0,0,0h-.14c-.65,0-1.29,0-1.94,0H9.25a1,1,0,1,0,0,2H20.38a9.39,9.39,0,0,0,2.6-.13,3.24,3.24,0,0,0-.91-6.34,1,1,0,0,0-1,1,1,1,0,0,0,1,1Z"></path><path class="cls-1" d="M15.63,5.92h0s.25.08.12,0,.05,0,.07,0-.16-.16,0,0,.1.14,0,0a.64.64,0,0,1,.08.14c-.08-.16,0-.05,0,0,.05.26,0-.19,0,.08s0,0,0,0,0,.11,0,.16c.06-.18,0,0,0,0s.08-.13,0,0-.19.14,0,0a1.19,1.19,0,0,1-.15.09s.17,0,0,0,.19,0-.08,0H9.26a1,1,0,0,0-1,1,1,1,0,0,0,1,1h5.85a2.84,2.84,0,0,0,2.06-.6,2.26,2.26,0,0,0,.59-2.42A2.31,2.31,0,0,0,15.63,4a1,1,0,0,0,0,1.95Z"></path><path class="cls-1" d="M36.87,24.45,41,26.86l7.72,4.45L51.68,33l.84.49.2.12.05,0h0l0,0,.12.07c-.06-.05-.08-.05,0,0l.12.13c.1.11-.07-.12,0,0s.07.13.1.19,0-.15,0,0a1,1,0,0,0,0,.17c-.05-.17,0-.06,0,0v.18c0-.21,0,0,0,.08a.84.84,0,0,1,0,.17c.06-.16,0,0,0,0L53,34.8c-.09.13.09-.09,0,0s-.18.17,0,.06l-.15.1-.16.07c.19-.07-.08,0-.1,0h-.17c-.18,0-.06,0,0,0L52.13,35l-.08,0-.28-.1-3.08-1.11-7-2.52-.14-.05a1,1,0,0,0-1.21.68,1,1,0,0,0,.69,1.21l6.35,2.3L51,36.69l.59.21A2.71,2.71,0,0,0,53.77,32l-.37-.23L51,30.38l-7.81-4.5c-1.76-1-3.49-2.06-5.27-3.05l-.08,0a1,1,0,0,0-1.34.35,1,1,0,0,0,.35,1.31Z"></path></svg>