<svg id="Layer_1" data-name="Layer 1" xmlns="http://www.w3.org/2000/svg" width="63.4" height="60" viewBox="0 0 63.4 60"><defs><style> .cls-1 { fill: #0cb4c4; } </style></defs><path class="cls-1" d="M58,16.84H57a3.75,3.75,0,0,0-3.73,3.74V46.34l3.27,12.93a1,1,0,0,0,.91.73.9.9,0,0,0,.92-.73l3.36-12.93V20.58A3.69,3.69,0,0,0,58,16.84Zm-2.82,8.47h4.73V45.16H55.19ZM57,18.66h1a1.92,1.92,0,0,1,1.91,1.92v3H55.19v-3A1.85,1.85,0,0,1,57,18.66Zm.55,36.7-2.19-8.29h4.28Z"></path><path class="cls-1" d="M47.45,8.47h-8V6.28a.87.87,0,0,0-.91-.91H35V4.64A4.89,4.89,0,0,0,29.88,0H22.59A4.88,4.88,0,0,0,17.5,4.64v.64H14a.86.86,0,0,0-.91.91V8.38H5.2a3.44,3.44,0,0,0-3.55,3.27V56.72A3.39,3.39,0,0,0,5.2,60H47.45A3.45,3.45,0,0,0,51,56.72v-45a3.39,3.39,0,0,0-3.55-3.27Zm-28-3.83a3.08,3.08,0,0,1,3.28-2.82H30a3.08,3.08,0,0,1,3.28,2.82v.64H19.41Zm18.3,2.55v4.92H15V7.19ZM49.18,56.81a1.63,1.63,0,0,1-1.73,1.46H5.21a1.63,1.63,0,0,1-1.73-1.46V11.74a1.63,1.63,0,0,1,1.73-1.45h8v2.64a.86.86,0,0,0,.91.91H38.62a.86.86,0,0,0,.91-.91V10.29h8a1.63,1.63,0,0,1,1.73,1.45V56.81Z"></path><path class="cls-1" d="M16,50a.86.86,0,0,0-.91.91v2.28H7.48V45.52H16a.91.91,0,0,0,0-1.82H6.57a.86.86,0,0,0-.91.91v9.47a.86.86,0,0,0,.91.91H16a.86.86,0,0,0,.91-.91V50.89A.8.8,0,0,0,16,50Z"></path><path class="cls-1" d="M16,46.62l-4.74,3.46L10.12,48a.9.9,0,0,0-1.18-.45.8.8,0,0,0-.37,1.18l1.55,3.1a.69.69,0,0,0,.64.45h.18a1.37,1.37,0,0,0,.55-.18l5.55-4a1,1,0,0,0,.18-1.27A1,1,0,0,0,16,46.62Z"></path><path class="cls-1" d="M26.24,20.49a.87.87,0,0,0,.91-.91V15.84a.91.91,0,0,0-1.82,0v3.74A1,1,0,0,0,26.24,20.49Z"></path><path class="cls-1" d="M38.16,23.85l3.37-2.64a.91.91,0,0,0-1.09-1.45L37.07,22.4a1,1,0,0,0-.18,1.27A.81.81,0,0,0,38.16,23.85Z"></path><path class="cls-1" d="M14.4,23.85a.91.91,0,1,0,1.09-1.45l-3.37-2.64A.91.91,0,0,0,11,21.21Z"></path><path class="cls-1" d="M32.06,21.3a.92.92,0,0,0,1.28-.36l1.91-3.46a.94.94,0,0,0-1.64-.91L31.7,20A1,1,0,0,0,32.06,21.3Z"></path><path class="cls-1" d="M6.84,26.49,11.3,28a.92.92,0,1,0,.64-1.73L7.48,24.76a1,1,0,0,0-1.27.55,1,1,0,0,0,.63,1.18Z"></path><path class="cls-1" d="M40.26,27.5a1,1,0,0,0,1.18.63l4.46-1.36A.95.95,0,1,0,45.36,25L40.89,26.4a.81.81,0,0,0-.63,1.1Z"></path><path class="cls-1" d="M19.5,20.85a.83.83,0,0,0,1.18.36.92.92,0,0,0,.37-1.27l-1.82-3.46A.85.85,0,0,0,18,16.11a.93.93,0,0,0-.36,1.28Z"></path><path class="cls-1" d="M26.24,23.49c-8.74,0-15.75,7.47-16,7.74a.88.88,0,0,0,0,1.27c.28.28,7.29,7.74,16,7.74s15.75-7.46,16-7.74a.88.88,0,0,0,0-1.27c-.27-.27-7.19-7.74-16-7.74Zm0,14.93a6.56,6.56,0,1,1,6.55-6.55A6.52,6.52,0,0,1,26.24,38.42ZM19.59,26.86a7.94,7.94,0,0,0-1.73,5,8.43,8.43,0,0,0,1.64,5,28.64,28.64,0,0,1-7.38-5A29.49,29.49,0,0,1,19.59,26.86ZM33,36.87a7.88,7.88,0,0,0,1.73-5,8.42,8.42,0,0,0-1.64-5,28.44,28.44,0,0,1,7.38,5A31.33,31.33,0,0,1,33,36.87Z"></path><path class="cls-1" d="M26.24,27a4.92,4.92,0,1,0,4.91,4.92A4.9,4.9,0,0,0,26.24,27Zm0,8a3.1,3.1,0,1,1,3.09-3.09A3.07,3.07,0,0,1,26.24,35Z"></path><path class="cls-1" d="M45.9,43.52H20.5a.91.91,0,0,0,0,1.82H45.9a.91.91,0,0,0,0-1.82Z"></path><path class="cls-1" d="M45.9,48.44H20.5a.91.91,0,0,0,0,1.82H45.9a.91.91,0,0,0,0-1.82Z"></path><path class="cls-1" d="M45.9,53.35H20.5a.91.91,0,1,0,0,1.82H45.9a.91.91,0,0,0,0-1.82Z"></path></svg>