<svg id="Layer_1" data-name="Layer 1" xmlns="http://www.w3.org/2000/svg" width="54.66" height="60" viewBox="0 0 54.66 60"><defs><style> .cls-1 { fill: #0cb4c4; } </style></defs><path class="cls-1" d="M46.75,34.73a1.37,1.37,0,0,0,.48.13,1.27,1.27,0,0,0,1.16-.75,1.26,1.26,0,0,0-.62-1.64l-3.69-1.64A17.3,17.3,0,0,0,44.56,27a17.26,17.26,0,0,0-3.89-10.86l3.07-2.26a1.27,1.27,0,1,0-1.5-2.05L38.89,14.3a16.5,16.5,0,0,0-9.83-4.23V6.93A1.23,1.23,0,1,0,26.6,7v3.07a17.24,17.24,0,0,0-10.38,4.44l-3.56-2.67a1.27,1.27,0,0,0-1.5,2.05l3.35,2.46A17.17,17.17,0,0,0,10.75,27a17.65,17.65,0,0,0,.41,3.75L7.34,32.47a1.25,1.25,0,0,0,.54,2.39,1.23,1.23,0,0,0,.48-.13l3.55-1.57c.14.34.28.68.41,1a35.06,35.06,0,0,0,1.85,3.21c.54.89,1.09,1.71,1.57,2.6a29.29,29.29,0,0,1,2.18,5.8v13A1.23,1.23,0,0,0,19.15,60h17a1.23,1.23,0,0,0,1.23-1.23V45.72a25.31,25.31,0,0,1,2.12-5.6c.34-.54.68-1.09,1-1.57a32.54,32.54,0,0,0,2.46-4.3c.14-.27.28-.62.41-.89ZM24.07,37.39a17.71,17.71,0,0,1-2.32-5.67H33.36A20,20,0,0,1,31,37.39a16.78,16.78,0,0,0-2,7H26.12A17,17,0,0,0,24.07,37.39Zm10.79,9.5v4H20.38v-4Zm0,10.58H20.38v-4H34.86Zm3.49-20.35c-.35.54-.69,1.09-1,1.64a22.56,22.56,0,0,0-2.25,5.6H31.52a14.72,14.72,0,0,1,1.63-5.74C34.59,36,35.89,33.43,36,30.49a1.3,1.3,0,0,0-.35-.89,1.09,1.09,0,0,0-.88-.41H20.38a1.12,1.12,0,0,0-.89.41,1.49,1.49,0,0,0-.34.89c.07,2.94,1.37,5.53,2.8,8.13a13.21,13.21,0,0,1,1.64,5.74H20.11a40.06,40.06,0,0,0-2.19-5.53A26.94,26.94,0,0,0,16.28,36a31.6,31.6,0,0,1-1.7-2.93A14.41,14.41,0,1,1,42,27a14.12,14.12,0,0,1-1.36,6.08,32.74,32.74,0,0,1-2.32,4Z"></path><path class="cls-1" d="M5.29,20.11l-3.76-.82A1.26,1.26,0,0,0,1,21.75l3.76.82H5a1.3,1.3,0,0,0,1.23-1,1.2,1.2,0,0,0-1-1.5Z"></path><path class="cls-1" d="M16.9,5.83a1.25,1.25,0,0,0,1.16.75,1.63,1.63,0,0,0,.55-.13,1.26,1.26,0,0,0,.61-1.64L17.58,1.32A1.26,1.26,0,0,0,15.94.71a1.25,1.25,0,0,0-.61,1.64Z"></path><path class="cls-1" d="M36,6a1.17,1.17,0,0,0,.48.07,1.23,1.23,0,0,0,1.16-.82L39.1,1.73A1.28,1.28,0,0,0,38.41.1a1.26,1.26,0,0,0-1.63.68L35.34,4.33A1.26,1.26,0,0,0,36,6Z"></path><path class="cls-1" d="M54.6,19.15A1.23,1.23,0,0,0,53,18.33l-3.69,1.1A1.23,1.23,0,0,0,48.52,21a1.27,1.27,0,0,0,1.23.89.63.63,0,0,0,.35-.07l3.68-1.1a1.27,1.27,0,0,0,.82-1.57Z"></path><path class="cls-1" d="M45.31,41.35a1.26,1.26,0,0,0-1.64,1.91l2.87,2.53a1.41,1.41,0,0,0,.82.34,1.33,1.33,0,0,0,1-.41A1.21,1.21,0,0,0,48.18,44Z"></path><path class="cls-1" d="M9.59,41.42l-2.8,2.66a1.28,1.28,0,0,0-.07,1.78,1.22,1.22,0,0,0,.89.41,1.49,1.49,0,0,0,.89-.34l2.8-2.67a1.26,1.26,0,1,0-1.71-1.84Z"></path></svg>