<svg xmlns="http://www.w3.org/2000/svg" xmlns:xlink="http://www.w3.org/1999/xlink" version="1.1" id="Layer_1" x="0px" y="0px" width="72.55px" height="60px" viewBox="0 0 72.55 60" enable-background="new 0 0 72.55 60" xml:space="preserve"><g><path fill="#0CB4C4" d="M68.125,0H4.425c-2.44,0-4.423,1.98-4.423,4.422v41.156C0.002,48.02,1.985,50,4.425,50h63.699 c2.44,0,4.423-1.98,4.423-4.422V4.422C72.547,1.98,70.565,0,68.125,0z M2.343,4.422c0-1.147,0.935-2.083,2.082-2.083h63.699 c1.147,0,2.082,0.936,2.082,2.083v4.758H2.343V4.422z M70.207,45.578c0,1.146-0.935,2.082-2.082,2.082H4.425 c-1.147,0-2.082-0.936-2.082-2.082V11.52h67.863V45.578z"></path><path fill="#0CB4C4" d="M6.703,4.688c-0.632,0-1.153,0.522-1.153,1.154c0,0.631,0.521,1.155,1.153,1.155s1.155-0.524,1.155-1.155 C7.858,5.202,7.343,4.688,6.703,4.688z"></path><circle fill="#0CB4C4" cx="10.854" cy="5.843" r="1.155"></circle><circle fill="#0CB4C4" cx="14.997" cy="5.843" r="1.155"></circle><path fill="#0CB4C4" d="M36.001,28.144L36.001,28.144c-0.14,0-0.272,0.029-0.396,0.078c-0.031,0.008-0.063,0.021-0.095,0.037 c-0.124,0.057-0.241,0.126-0.343,0.228s-0.172,0.218-0.226,0.345c-0.016,0.029-0.032,0.06-0.04,0.092 c-0.046,0.125-0.078,0.257-0.078,0.391v0.008c0,0.102,0.017,0.195,0.039,0.297l3.151,11.754c0.14,0.523,0.615,0.865,1.132,0.865 c0.1,0,0.201-0.014,0.303-0.037c0.625-0.164,0.99-0.813,0.828-1.436l-2.021-7.535l9.158,9.156c0.228,0.227,0.53,0.344,0.827,0.344 c0.295,0,0.6-0.117,0.827-0.344c0.46-0.459,0.46-1.201,0-1.652l-9.159-9.158l7.535,2.02c0.625,0.172,1.265-0.201,1.437-0.826 c0.163-0.625-0.203-1.262-0.827-1.436l-11.755-3.151C36.205,28.158,36.103,28.144,36.001,28.144z"></path><path fill="#0CB4C4" d="M35.994,22.832c0.647,0,1.17-0.523,1.17-1.17v-4.041c0-0.647-0.522-1.17-1.17-1.17s-1.17,0.522-1.17,1.17 v4.041C34.824,22.309,35.346,22.832,35.994,22.832z"></path><path fill="#0CB4C4" d="M24.301,30.485h4.04c0.647,0,1.17-0.524,1.17-1.171c0-0.648-0.522-1.17-1.17-1.17h-4.04 c-0.647,0-1.17,0.521-1.17,1.17C23.131,29.96,23.662,30.485,24.301,30.485z"></path><path fill="#0CB4C4" d="M29.761,33.895l-2.854,2.854c-0.46,0.459-0.46,1.201,0,1.652c0.227,0.229,0.53,0.344,0.827,0.344 c0.295,0,0.6-0.115,0.826-0.344l2.855-2.854c0.46-0.459,0.46-1.201,0-1.652C30.956,33.439,30.214,33.439,29.761,33.895z"></path><path fill="#0CB4C4" d="M41.407,25.078c0.297,0,0.601-0.115,0.827-0.343l2.855-2.855c0.46-0.46,0.46-1.201,0-1.654 c-0.461-0.46-1.202-0.46-1.654,0l-2.854,2.855c-0.461,0.46-0.461,1.201,0,1.653C40.807,24.962,41.102,25.078,41.407,25.078z"></path><path fill="#0CB4C4" d="M29.761,24.735c0.226,0.228,0.53,0.343,0.827,0.343s0.602-0.115,0.827-0.343c0.46-0.46,0.46-1.201,0-1.653 l-2.855-2.855c-0.46-0.46-1.201-0.46-1.653,0c-0.46,0.46-0.46,1.202,0,1.654L29.761,24.735z"></path></g></svg>