<svg xmlns="http://www.w3.org/2000/svg" xmlns:xlink="http://www.w3.org/1999/xlink" version="1.1" id="Layer_1" x="0px" y="0px" width="54.4px" height="60px" viewBox="0 0 54.4 60" enable-background="new 0 0 54.4 60" xml:space="preserve"><g><path fill="#0CB4C4" d="M47.424,13.856c-3.82,0-6.929-3.108-6.929-6.928c0-3.82,3.108-6.929,6.929-6.929s6.929,3.108,6.929,6.929 C54.353,10.748,51.244,13.856,47.424,13.856z M47.424,1.638c-2.919,0-5.293,2.373-5.293,5.291c0,2.917,2.374,5.291,5.293,5.291 c2.916,0,5.29-2.374,5.29-5.291C52.714,4.011,50.34,1.638,47.424,1.638z"></path><path fill="#0CB4C4" d="M47.424,11.02c-2.256,0-4.092-1.835-4.092-4.091c0-2.257,1.836-4.092,4.092-4.092v1.636 c-1.353,0-2.456,1.103-2.456,2.456s1.104,2.454,2.456,2.454V11.02z"></path><path fill="#0CB4C4" d="M35.813,60c-0.411,0-1.896-0.048-3.896-0.654l0.983-3.245c1.237,0.375,2.34,0.509,2.908,0.509 c0.134,0,0.522-0.012,1.149-0.101l0.479,3.356C36.837,59.95,36.261,59.999,35.813,60z M0.235,59.407L0.215,54.53l3.39-0.015 l0.021,4.877L0.235,59.407z M42.559,58.349l-1.455-3.063c1.353-0.642,2.435-1.464,3.22-2.444l2.646,2.119 C45.863,56.343,44.379,57.483,42.559,58.349z M27.055,56.813c-1.521-1.255-2.628-2.807-3.292-4.613l3.184-1.168 c0.453,1.234,1.215,2.3,2.265,3.166L27.055,56.813z M49.168,49.72l-3.36-0.447c0.053-0.394,0.079-0.81,0.079-1.236l-0.015-3.376 l3.391-0.016l0.015,3.333C49.277,48.611,49.24,49.179,49.168,49.72z M0.193,49.672l-0.021-4.856l3.391-0.014l0.021,4.855 L0.193,49.672z M23.03,46.861c-0.01-1.38-0.028-3.031-0.052-4.845l3.391-0.043c0.023,1.821,0.041,3.478,0.051,4.863L23.03,46.861z M0.152,39.961l-0.021-4.854l3.391-0.014l0.021,4.854L0.152,39.961z M45.852,39.809l-0.021-4.851l3.39-0.016l0.021,4.852 L45.852,39.809z M22.909,37.169l-0.079-4.851l3.391-0.057l0.078,4.854L22.909,37.169z M0.109,30.253l-0.021-4.855l3.391-0.015 L3.5,30.237L0.109,30.253z M45.81,30.107l-0.021-4.852l3.391-0.015l0.021,4.851L45.81,30.107z M22.746,27.472l-0.089-4.851 l3.39-0.064l0.089,4.854L22.746,27.472z M0.068,20.541l-0.021-4.863l3.39-0.015l0.021,4.863L0.068,20.541z M45.769,20.404 l-0.021-4.75l3.391-0.012l0.021,4.746L45.769,20.404z M22.564,17.769L22.5,14.493c-0.003-0.489-0.034-0.947-0.093-1.391 l3.361-0.448c0.077,0.586,0.119,1.19,0.121,1.798l0.064,3.25L22.564,17.769z M3.891,11.486L0.72,10.284 c0.668-1.762,1.766-3.358,3.175-4.617l2.258,2.53C4.884,9.329,4.222,10.61,3.891,11.486z M21.009,9.357 c-0.747-1.071-1.757-1.911-3.003-2.493l1.436-3.071c1.794,0.839,3.258,2.059,4.35,3.627L21.009,9.357z M9.702,6.289L8.791,3.023 c1.261-0.353,2.625-0.534,4.056-0.539c0.505,0,0.91,0.012,1.304,0.037l-0.213,3.383c-0.325-0.02-0.659-0.03-1.003-0.03 C11.733,5.879,10.671,6.019,9.702,6.289z"></path></g></svg>