<svg xmlns="http://www.w3.org/2000/svg" xmlns:xlink="http://www.w3.org/1999/xlink" version="1.1" id="Layer_1" x="0px" y="0px" width="61.7px" height="60px" viewBox="0 0 61.7 60" enable-background="new 0 0 61.7 60" xml:space="preserve"><g><path fill="#0CB4C4" d="M26.204,21.461c1.164,0,2.114-0.948,2.114-2.112c0-1.165-0.95-2.113-2.114-2.113s-2.113,0.948-2.113,2.113 C24.09,20.513,25.04,21.461,26.204,21.461z M26.204,18.644c0.389,0,0.704,0.316,0.704,0.705s-0.315,0.704-0.704,0.704 c-0.388,0-0.703-0.315-0.703-0.704S25.816,18.644,26.204,18.644z"></path><path fill="#0CB4C4" d="M61.691,0H0.009c0,11.732,0,38.54,0,60h61.682C61.691,39.067,61.691,11.505,61.691,0z M1.907,1.897h19.314 v8.225H1.907V1.897z M59.793,58.103H1.907V12.17h57.887V58.103z M59.793,10.122H23.12V7.034h31.857V5.136H23.12V1.897h36.674 V10.122z"></path><path fill="#0CB4C4" d="M57.896,13.919H3.804v42.286h54.092V13.919z M55.997,15.815v18.296h-0.308 c-0.184-0.354-0.401-0.688-0.688-0.976l-9.963-9.965c-0.209-0.21,0.104,0.01-7.749-3.755l3.584-3.601H55.997z M49.15,34.111h-1.732 l-5.988-5.989l2.938-2.938l8.927,8.927h-1.437l-5.818-5.716L44.71,29.75L49.15,34.111z M40.366,26.501l-2.17-4.55l4.55,2.17 L40.366,26.501z M31.799,15.815h6.395l-6.395,6.423V15.815z M31.799,24.928l3.863-3.879c3.764,7.849,3.541,7.531,3.754,7.744 l5.316,5.318H31.799V24.928z M5.704,29.821l5.185-6.108l9.811,10.398H5.704V29.821z M29.901,54.306H5.704V36.007h24.197V54.306z M29.901,34.111h-6.592l-8.161-8.649l4.212-4.916l10.541,11.101V34.111z M29.901,28.89L19.288,17.714l-5.45,6.359l-3.023-3.203 l-5.11,6.018V15.815h24.197V28.89z M33.914,54.306h-2.114V36.007h2.114V54.306z M55.997,54.306H35.812V36.007 c0.797,0,19.512,0,20.185,0V54.306z"></path><rect x="5.876" y="5.136" fill="#0CB4C4" width="2.019" height="1.898"></rect><rect x="10.797" y="5.136" fill="#0CB4C4" width="2.016" height="1.898"></rect><rect x="15.717" y="5.136" fill="#0CB4C4" width="2.017" height="1.898"></rect><path fill="#0CB4C4" d="M13.105,41.474c0-0.791-0.443-1.32-1.115-1.54c0.474-0.247,0.797-0.721,0.797-1.362 c0-1.183-1.092-1.612-2.282-1.612H7.6v6.196h3.081C11.954,43.155,13.105,42.743,13.105,41.474z M8.751,37.862h1.63 c0.657,0,1.247,0.2,1.247,0.858c0,0.647-0.596,0.849-1.247,0.849h-1.63V37.862z M8.751,42.253v-1.788h1.858 c0.892,0,1.336,0.298,1.336,0.893c0,0.598-0.444,0.896-1.336,0.896H8.751z"></path><rect x="11.296" y="46.294" fill="#0CB4C4" width="7.316" height="1.897"></rect><rect x="11.296" y="50.604" fill="#0CB4C4" width="13.01" height="1.897"></rect><path fill="#0CB4C4" d="M42.096,39.365L42.096,39.365C42.083,39.369,42.083,39.369,42.096,39.365z"></path><path fill="#0CB4C4" d="M39.843,48.695c0.105-0.018,1.623-0.277,1.526-0.263c-0.042,0.098-0.661,1.523-0.618,1.426 c0.3,0.174,3.366,1.938,3.272,1.884c0.072-0.099,0.993-1.35,0.921-1.251c0.036,0.099,0.577,1.551,0.541,1.452 c0.339-0.09,3.782-1.019,3.685-0.993c-0.018-0.105-0.275-1.622-0.26-1.526c0.097,0.042,1.523,0.662,1.428,0.621 c0.661-1.148,1.038-1.804,1.243-2.16c-0.001,0.003,0.038-0.064,0.149-0.259c-0.004,0.008-0.008,0.016-0.014,0.023 c0.015-0.024,0.026-0.044,0.037-0.063c-0.003,0.003-0.003,0.006-0.006,0.008c0.1-0.173,0.251-0.435,0.474-0.822 c-0.099-0.072-1.354-0.996-1.254-0.924c0.099-0.036,1.552-0.577,1.453-0.541c-0.095-0.348-1.031-3.826-0.993-3.687 c-0.107,0.019-1.624,0.277-1.528,0.262c0.043-0.098,0.664-1.525,0.621-1.429c-0.301-0.173-3.375-1.942-3.272-1.885 c-0.072,0.099-0.995,1.353-0.922,1.254c-0.038-0.099-0.58-1.55-0.544-1.451c-0.326,0.088-3.479,0.938-3.687,0.993 c0.02,0.106,0.279,1.625,0.264,1.527c-0.097-0.042-1.522-0.66-1.425-0.619c-0.182,0.313-1.951,3.389-1.884,3.272 c0.099,0.072,1.35,0.993,1.251,0.921c-0.1,0.036-1.551,0.577-1.453,0.541C40.024,49.372,39.579,47.721,39.843,48.695z M40.7,43.199 l0.763-1.327l1.665,0.725c0.215-0.208,0.454-0.388,0.707-0.534l-0.307-1.781l1.479-0.398l0.633,1.69c0.005,0,0.011,0,0.017,0 c0.287,0,0.573,0.038,0.859,0.112l1.079-1.467l1.328,0.764l-0.726,1.669c0.212,0.212,0.394,0.451,0.538,0.704l1.777-0.304 l0.398,1.478l-1.689,0.63c0.001,0.292-0.035,0.589-0.111,0.881l1.464,1.077l-0.763,1.329l-1.671-0.728 c-0.214,0.213-0.448,0.391-0.701,0.536l0.303,1.781l-1.479,0.396l-0.63-1.694c-0.006,0-0.011,0-0.018,0 c-0.287,0-0.578-0.036-0.862-0.106l-1.076,1.462l-1.327-0.763l0.724-1.669c-0.212-0.214-0.388-0.45-0.535-0.704l-1.781,0.306 l-0.398-1.478l1.696-0.631c-0.003-0.292,0.031-0.586,0.108-0.877L40.7,43.199z"></path><path fill="#0CB4C4" d="M51.665,47.742c-0.021,0.035-0.04,0.068-0.054,0.093C51.629,47.802,51.648,47.77,51.665,47.742z"></path><path fill="#0CB4C4" d="M51.754,47.587C51.802,47.503,51.824,47.466,51.754,47.587L51.754,47.587z"></path><path fill="#0CB4C4" d="M51.611,47.835c-0.01,0.018-0.019,0.031-0.029,0.05C51.583,47.884,51.593,47.865,51.611,47.835z"></path><path fill="#0CB4C4" d="M51.717,47.649c-0.015,0.025-0.033,0.057-0.053,0.093C51.681,47.711,51.7,47.681,51.717,47.649z"></path><circle fill="#0CB4C4" cx="45.634" cy="45.158" r="1.62"></circle></g></svg>