<svg width="57" height="60" viewBox="0 0 57 60" fill="none" xmlns="http://www.w3.org/2000/svg"><path d="M49.775 37.4602C49.2971 37.2727 48.7535 37.507 48.5567 37.985C47.3477 41.0403 45.6607 43.8613 43.5145 46.3543L39.5876 50.9372C39.4377 51.1059 39.3627 51.3215 39.3627 51.5464V58.1068H18.7441V52.4836H27.3196C28.7535 52.4836 30.0375 51.687 30.6748 50.4124L31.7713 48.2193C32.0056 47.7601 31.8182 47.1978 31.3496 46.9635C30.8903 46.7292 30.328 46.9166 30.0937 47.3852L28.9972 49.5783C28.6785 50.2156 28.0318 50.6186 27.3196 50.6186H10.3093C8.76288 50.6186 7.49765 49.3533 7.49765 47.8069V40.3093C7.49765 39.7938 7.07591 39.3721 6.56045 39.3721H3.81443C2.74602 39.3721 1.87441 38.5005 1.87441 37.4321C1.87441 37.0478 1.98688 36.6729 2.20244 36.3543L7.33833 28.6411C7.44142 28.4911 7.49765 28.3037 7.49765 28.1256V27.1884C7.49765 18.5848 12.6054 10.806 20.5061 7.39459C20.9841 7.18841 21.1996 6.63546 20.9934 6.16685C20.7872 5.69825 20.2343 5.47332 19.7657 5.67951C11.1809 9.39084 5.62324 17.8351 5.62324 27.1978V27.8538L0.637301 35.3233C0.215558 35.9513 0 36.6823 0 37.4414C0 39.5408 1.71509 41.2559 3.81443 41.2559H5.62324V47.8163C5.62324 50.403 7.72258 52.5023 10.3093 52.5023H16.8697V59.0628C16.8697 59.5783 17.2915 60 17.8069 60H40.2999C40.8153 60 41.2371 59.5783 41.2371 59.0628V51.9119L44.9391 47.5914C47.2165 44.9391 49.0159 41.94 50.2999 38.6879C50.4873 38.2099 50.253 37.6664 49.775 37.4696V37.4602Z" fill="#0CB4C4"></path><path d="M31.865 21.5558H24.3674C23.8519 21.5558 23.4302 21.9775 23.4302 22.493C23.4302 23.0084 23.8519 23.4302 24.3674 23.4302H30.9278V26.2418C30.9278 26.7572 31.3496 27.179 31.865 27.179C32.3805 27.179 32.8022 26.7572 32.8022 26.2418V22.493C32.8022 21.9775 32.3805 21.5558 31.865 21.5558Z" fill="#0CB4C4"></path><path d="M31.865 29.0534H25.3046V26.2418C25.3046 25.7263 24.8828 25.3046 24.3674 25.3046C23.8519 25.3046 23.4302 25.7263 23.4302 26.2418V29.9906C23.4302 30.5061 23.8519 30.9278 24.3674 30.9278H31.865C32.3805 30.9278 32.8022 30.5061 32.8022 29.9906C32.8022 29.4751 32.3805 29.0534 31.865 29.0534Z" fill="#0CB4C4"></path><path d="M28.1162 27.179C28.6338 27.179 29.0534 26.7594 29.0534 26.2418C29.0534 25.7242 28.6338 25.3046 28.1162 25.3046C27.5986 25.3046 27.179 25.7242 27.179 26.2418C27.179 26.7594 27.5986 27.179 28.1162 27.179Z" fill="#0CB4C4"></path><path d="M40.2999 11.2465C40.2999 12.7929 41.5651 14.0581 43.1115 14.0581C43.3458 14.0581 43.5707 14.0206 43.7957 13.9644L46.0824 17.3852C46.2605 17.6476 46.5511 17.8069 46.8603 17.8069H48.9034C49.2877 18.8941 50.3186 19.6813 51.5464 19.6813C53.0928 19.6813 54.358 18.4161 54.358 16.8697C54.358 15.3233 53.0928 14.0581 51.5464 14.0581C50.328 14.0581 49.2971 14.8454 48.9034 15.9325H47.357L45.3514 12.9241C45.7076 12.4555 45.9231 11.8744 45.9231 11.2465C45.9231 9.70009 44.6579 8.43486 43.1115 8.43486C41.5651 8.43486 40.2999 9.70009 40.2999 11.2465ZM51.5464 15.9325C52.0618 15.9325 52.4836 16.3543 52.4836 16.8697C52.4836 17.3852 52.0618 17.8069 51.5464 17.8069C51.0309 17.8069 50.6092 17.3852 50.6092 16.8697C50.6092 16.3543 51.0309 15.9325 51.5464 15.9325ZM44.0487 11.2465C44.0487 11.7619 43.627 12.1837 43.1115 12.1837C42.596 12.1837 42.1743 11.7619 42.1743 11.2465C42.1743 10.731 42.596 10.3093 43.1115 10.3093C43.627 10.3093 44.0487 10.731 44.0487 11.2465Z" fill="#0CB4C4"></path><path d="M53.4208 26.2418C51.8744 26.2418 50.6092 27.507 50.6092 29.0534C50.6092 29.4845 50.7122 29.8875 50.8903 30.2624L45.5389 35.6139H37.4883C36.9728 35.6139 36.5511 36.0356 36.5511 36.5511V39.5314C35.4639 39.9156 34.6766 40.9466 34.6766 42.1743C34.6766 43.7207 35.9419 44.9859 37.4883 44.9859C39.0347 44.9859 40.2999 43.7207 40.2999 42.1743C40.2999 40.9559 39.5126 39.925 38.4255 39.5314V37.4883H45.9231C46.1762 37.4883 46.4105 37.3852 46.5885 37.2165L52.2212 31.5839C52.5867 31.7619 52.9897 31.865 53.4301 31.865C54.9765 31.865 56.2418 30.5998 56.2418 29.0534C56.2418 27.507 54.9765 26.2418 53.4301 26.2418H53.4208ZM37.4883 43.1115C36.9728 43.1115 36.5511 42.6898 36.5511 42.1743C36.5511 41.6588 36.9728 41.2371 37.4883 41.2371C38.0037 41.2371 38.4255 41.6588 38.4255 42.1743C38.4255 42.6898 38.0037 43.1115 37.4883 43.1115ZM53.4208 29.9906C53.1677 29.9906 52.9334 29.8875 52.7647 29.7188C52.7647 29.7188 52.7647 29.7188 52.7647 29.7095C52.7647 29.7001 52.7647 29.7095 52.7554 29.7095C52.5867 29.5408 52.4836 29.3158 52.4836 29.0534C52.4836 28.5379 52.9053 28.1162 53.4208 28.1162C53.9362 28.1162 54.358 28.5379 54.358 29.0534C54.358 29.5689 53.9362 29.9906 53.4208 29.9906Z" fill="#0CB4C4"></path><path d="M23.4302 5.45454V8.43486C23.4302 8.72539 23.5707 9.00656 23.805 9.18463L27.179 11.7151V17.8069H25.3046V14.0581C25.3046 13.5426 24.8828 13.1209 24.3674 13.1209H21.3871C21.0028 12.0337 19.9719 11.2465 18.7441 11.2465C17.1977 11.2465 15.9325 12.5117 15.9325 14.0581C15.9325 15.6045 17.1977 16.8697 18.7441 16.8697C19.9625 16.8697 20.9934 16.0825 21.3871 14.9953H23.4302V17.8069H22.493C20.9466 17.8069 19.6813 19.0722 19.6813 20.6185V21.5558H15.9325C15.417 21.5558 14.9953 21.9775 14.9953 22.493C14.9953 23.0084 15.417 23.4302 15.9325 23.4302H19.6813V25.3046H14.0581C13.5426 25.3046 13.1209 25.7263 13.1209 26.2418C13.1209 26.7572 13.5426 27.179 14.0581 27.179H19.6813V29.0534H17.8069C17.2915 29.0534 16.8697 29.4751 16.8697 29.9906C16.8697 30.5061 17.2915 30.9278 17.8069 30.9278H19.6813V31.865C19.6813 33.4114 20.9466 34.6766 22.493 34.6766H23.4302V38.4255C23.4302 38.9409 23.8519 39.3627 24.3674 39.3627C24.8828 39.3627 25.3046 38.9409 25.3046 38.4255V34.6766H27.179V40.2999C27.179 40.8153 27.6007 41.2371 28.1162 41.2371C28.6317 41.2371 29.0534 40.8153 29.0534 40.2999V34.6766H30.9278V36.5511C30.9278 37.0665 31.3496 37.4883 31.865 37.4883C32.3805 37.4883 32.8022 37.0665 32.8022 36.5511V34.6766H33.7394C35.2858 34.6766 36.5511 33.4114 36.5511 31.865H39.5314C39.9156 32.9522 40.9466 33.7394 42.1743 33.7394C43.7207 33.7394 44.9859 32.4742 44.9859 30.9278C44.9859 30.7591 44.9672 30.5904 44.9391 30.4311L48.463 26.9072C48.8285 26.5417 48.8285 25.9513 48.463 25.5857C48.0974 25.2202 47.507 25.2202 47.1415 25.5857L43.955 28.7722C43.4676 28.3692 42.8585 28.1256 42.1837 28.1256C40.9653 28.1256 39.9344 28.9128 39.5407 30H36.5604V22.5023H40.478C40.8622 23.5895 41.8931 24.3767 43.1209 24.3767C44.6673 24.3767 45.9325 23.1115 45.9325 21.5651C45.9325 20.0187 44.6673 18.7535 43.1209 18.7535C41.9025 18.7535 40.8716 19.5408 40.478 20.6279H36.5604C36.5604 19.4095 35.7732 18.3786 34.686 17.985V15.7638C35.7732 15.3796 36.5604 14.3486 36.5604 13.1209C36.5604 11.8932 35.7732 10.8716 34.686 10.478V9.75632L39.1003 5.34208C39.4658 5.52015 39.8688 5.62324 40.3093 5.62324C41.8556 5.62324 43.1209 4.35801 43.1209 2.81162C43.1209 1.26523 41.8556 0 40.3093 0C38.7629 0 37.4976 1.26523 37.4976 2.81162C37.4976 3.24273 37.6007 3.64573 37.7788 4.02062L33.0834 8.71602C32.9053 8.89409 32.8116 9.12839 32.8116 9.38144V10.4873C31.7244 10.8716 30.9372 11.9025 30.9372 13.1303C30.9372 14.358 31.7244 15.3796 32.8116 15.7732V17.8163H29.0628V11.2559C29.0628 10.9653 28.9222 10.6842 28.6879 10.5061L25.314 7.97563V5.46391C26.4011 5.07966 27.1884 4.04873 27.1884 2.82099C27.1884 1.2746 25.9231 0.00937207 24.3767 0.00937207C22.8304 0.00937207 21.5651 1.2746 21.5651 2.82099C21.5651 4.03936 22.3524 5.07029 23.4395 5.46391L23.4302 5.45454ZM18.7441 14.9953C18.2287 14.9953 17.8069 14.5736 17.8069 14.0581C17.8069 13.5426 18.2287 13.1209 18.7441 13.1209C19.2596 13.1209 19.6813 13.5426 19.6813 14.0581C19.6813 14.5736 19.2596 14.9953 18.7441 14.9953ZM42.1743 29.9906C42.6898 29.9906 43.1115 30.4124 43.1115 30.9278C43.1115 31.4433 42.6898 31.865 42.1743 31.865C41.6588 31.865 41.2371 31.4433 41.2371 30.9278C41.2371 30.4124 41.6588 29.9906 42.1743 29.9906ZM43.1115 20.6185C43.627 20.6185 44.0487 21.0403 44.0487 21.5558C44.0487 22.0712 43.627 22.493 43.1115 22.493C42.596 22.493 42.1743 22.0712 42.1743 21.5558C42.1743 21.0403 42.596 20.6185 43.1115 20.6185ZM40.2999 1.87441C40.8153 1.87441 41.2371 2.29616 41.2371 2.81162C41.2371 3.32708 40.8153 3.74883 40.2999 3.74883C40.0468 3.74883 39.8125 3.64573 39.6438 3.47704C39.6438 3.47704 39.6438 3.47704 39.6438 3.46766C39.6438 3.45829 39.6438 3.46766 39.6345 3.46766C39.4658 3.29897 39.3627 3.07404 39.3627 2.81162C39.3627 2.29616 39.7844 1.87441 40.2999 1.87441ZM34.6766 31.865C34.6766 32.3805 34.2549 32.8022 33.7394 32.8022H22.493C21.9775 32.8022 21.5558 32.3805 21.5558 31.865V20.6185C21.5558 20.1031 21.9775 19.6813 22.493 19.6813H33.7394C34.2549 19.6813 34.6766 20.1031 34.6766 20.6185V31.865ZM33.7394 12.1837C34.2549 12.1837 34.6766 12.6054 34.6766 13.1209C34.6766 13.6364 34.2549 14.0581 33.7394 14.0581C33.224 14.0581 32.8022 13.6364 32.8022 13.1209C32.8022 12.6054 33.224 12.1837 33.7394 12.1837ZM24.3674 1.87441C24.8828 1.87441 25.3046 2.29616 25.3046 2.81162C25.3046 3.32708 24.8828 3.74883 24.3674 3.74883C23.8519 3.74883 23.4302 3.32708 23.4302 2.81162C23.4302 2.29616 23.8519 1.87441 24.3674 1.87441Z" fill="#0CB4C4"></path></svg>