<svg width="56" height="60" viewBox="0 0 56 60" fill="none" xmlns="http://www.w3.org/2000/svg"><path fill-rule="evenodd" clip-rule="evenodd" d="M27.4252 3.49282C27.3406 3.37958 27.2866 3.24649 27.2683 3.10635C27.25 2.9662 27.2681 2.82371 27.3207 2.69255C27.3734 2.56139 27.4589 2.44597 27.569 2.35738C27.6791 2.2688 27.8102 2.21001 27.9496 2.18668L28.1011 2.16575L28.2374 2.14547L28.3737 2.12581L28.5107 2.10742L28.6476 2.08903L28.7846 2.07192L28.9222 2.05606L29.0598 2.04085L29.198 2.02626L29.3362 2.01231L29.4751 1.99963L29.6139 1.98822L29.7522 1.97681L29.8917 1.96666L30.0311 1.95779L30.1713 1.94891L30.3108 1.94194L30.4509 1.93496L30.591 1.92925L30.7318 1.92418L30.8725 1.92038H31.0139H31.1547H31.2967H31.4381C31.5463 1.92038 31.6535 1.9417 31.7535 1.98312C31.8535 2.02454 31.9444 2.08526 32.0209 2.1618C32.0975 2.23834 32.1582 2.32921 32.1996 2.42921C32.241 2.52921 32.2624 2.6364 32.2624 2.74464C32.2624 2.85289 32.241 2.96007 32.1996 3.06008C32.1582 3.16008 32.0975 3.25095 32.0209 3.32749C31.9444 3.40403 31.8535 3.46474 31.7535 3.50616C31.6535 3.54759 31.5463 3.56891 31.4381 3.56891H31.3069H31.1756H31.045H30.9144L30.7838 3.57271L30.657 3.57715L30.5263 3.58222L30.3995 3.58856L30.2727 3.59554L30.1459 3.60315L30.0191 3.61202L29.8923 3.62153L29.7655 3.63104L29.6387 3.64246L29.5119 3.6545L29.3851 3.66655L29.2582 3.67987L29.1092 3.68747L28.9824 3.70269L28.8556 3.71854L28.7288 3.73503L28.602 3.75151L28.4752 3.7699L28.3484 3.78892L28.2171 3.80921C28.0688 3.83369 27.9167 3.81716 27.7771 3.76139C27.6375 3.70563 27.5158 3.61275 27.4252 3.49282ZM13.5807 36.5408C13.711 36.7095 13.9017 36.8212 14.1126 36.8524C14.3235 36.8836 14.5383 36.8318 14.7118 36.708C14.8854 36.5841 15.0042 36.3979 15.0434 36.1883C15.0825 35.9787 15.0389 35.7621 14.9217 35.584C13.2185 33.1977 12.056 30.4688 11.515 27.5874C11.2835 26.3479 11.167 25.0896 11.1669 23.8287V23.6975V23.5662V23.4356V23.305L11.1707 23.1744L11.1751 23.0476L11.1808 22.9176L11.1865 22.7908L11.1935 22.664L11.2018 22.5371L11.21 22.4103L11.2195 22.2835L11.2297 22.1567L11.2404 22.0299L11.2519 21.9031L11.2645 21.7763L11.2778 21.6495L11.2924 21.5227L11.307 21.3959L11.3229 21.269L11.3394 21.1422L11.3571 21.0154L11.3749 20.8886L11.3939 20.7618L11.423 20.5716C11.4456 20.4625 11.4458 20.3499 11.4236 20.2407C11.4014 20.1315 11.3573 20.0279 11.294 19.9362C11.2306 19.8445 11.1493 19.7667 11.055 19.7073C10.9607 19.6479 10.8554 19.6083 10.7453 19.5908C10.6353 19.5733 10.5228 19.5782 10.4147 19.6054C10.3067 19.6326 10.2052 19.6814 10.1166 19.7489C10.0279 19.8164 9.95383 19.9012 9.89886 19.9982C9.84388 20.0951 9.80913 20.2022 9.79671 20.3129L9.76564 20.5095L9.74535 20.6458L9.72569 20.7821L9.70731 20.9191L9.68955 21.056L9.67243 21.193L9.65595 21.3306L9.64073 21.4688L9.62615 21.6064L9.61283 21.7446L9.59952 21.8834L9.58811 22.0217L9.57733 22.1612L9.56655 22.3L9.55767 22.4395L9.54943 22.5796L9.54182 22.7191L9.53485 22.8592L9.52914 22.9994L9.5247 23.1401L9.52026 23.2815V23.4216V23.563V23.7051V23.8465C9.52122 25.2269 9.65048 26.6043 9.9064 27.9608C10.4982 31.0523 11.7517 33.9792 13.5807 36.5408ZM12.7336 16.0007C13.0288 15.3002 13.362 14.6163 13.7316 13.9521C13.9929 13.488 14.2661 13.041 14.561 12.5971C14.8108 12.2237 15.0682 11.8636 15.3408 11.5066C15.6648 11.0862 15.9984 10.6823 16.3515 10.2892C16.6793 9.92653 17.0135 9.5797 17.366 9.23922C17.7185 8.89873 18.0774 8.57917 18.4521 8.26405C18.8268 7.94893 19.213 7.65536 19.6061 7.36814C19.9992 7.08091 20.4075 6.81398 20.8241 6.55592C21.2407 6.29786 21.6661 6.05946 22.1024 5.8312C22.5386 5.60294 22.9824 5.39561 23.4339 5.19715L23.6621 5.10141C23.8553 5.01106 24.006 4.84934 24.0824 4.65023C24.1589 4.45113 24.1552 4.23013 24.0721 4.03369C23.9891 3.83725 23.8331 3.68066 23.637 3.59682C23.4408 3.51299 23.2199 3.50844 23.0205 3.58412C22.5709 3.77434 22.1328 3.97216 21.6966 4.18774C21.2603 4.40332 20.8355 4.63855 20.4164 4.88139C19.9973 5.12423 19.5921 5.38356 19.1864 5.6543C18.7806 5.92504 18.397 6.20846 18.0127 6.50519C17.6285 6.80193 17.2633 7.10881 16.8993 7.429C16.5354 7.7492 16.1917 8.08017 15.85 8.42319C15.4797 8.80362 15.1272 9.18406 14.7822 9.58414C14.4652 9.95379 14.1698 10.3272 13.8781 10.7147C13.5611 11.1401 13.2643 11.5687 12.9771 12.0145C12.7152 12.426 12.4699 12.8387 12.2327 13.2642C11.8584 13.9476 11.5198 14.65 11.2182 15.3686C11.1342 15.5704 11.1337 15.7973 11.2169 15.9994C11.3002 16.2016 11.4603 16.3624 11.6621 16.4465C11.8639 16.5305 12.0908 16.531 12.2929 16.4478C12.4951 16.3646 12.6559 16.2044 12.74 16.0026L12.7336 16.0007ZM47.2615 44.0067C47.4208 44.5821 47.4199 45.19 47.259 45.7649C47.0981 46.3398 46.7832 46.8598 46.3484 47.2689L39.7549 53.4706C39.5799 53.6348 39.4126 53.8218 39.2426 54.0095C38.6162 54.7025 37.8369 55.5648 36.6158 55.5724L14.0322 55.7062V56.3834C14.0315 56.9916 13.7896 57.5748 13.3596 58.005C12.9295 58.4351 12.3464 58.6772 11.7382 58.678H9.19373C9.16328 59.0378 8.99912 59.3731 8.73363 59.6178C8.46814 59.8626 8.12058 59.9989 7.7595 60H1.4431C1.06023 59.9987 0.693469 59.8458 0.423035 59.5747C0.152601 59.3037 0.000500549 58.9366 0 58.5537V39.4999C0.000499785 39.117 0.15258 38.7498 0.422996 38.4787C0.693412 38.2075 1.06017 38.0545 1.4431 38.053H7.76141C8.12225 38.0546 8.46942 38.1912 8.73453 38.436C8.99964 38.6808 9.16346 39.016 9.19373 39.3756H11.7375C12.3458 39.3763 12.929 39.6183 13.3591 40.0485C13.7892 40.4787 14.031 41.0619 14.0315 41.6702V43.2642C15.0334 42.2774 16.2243 41.5031 17.5327 40.9876C18.8411 40.4722 20.2401 40.2262 21.6458 40.2646C24.3609 40.2007 26.9978 41.1759 29.0179 42.991L33.3086 42.984H33.3143C33.7891 42.9844 34.2575 43.0944 34.6829 43.3056C35.1082 43.5167 35.479 43.8233 35.7664 44.2013C36.0538 44.5794 36.25 45.0187 36.3397 45.485C36.4294 45.9513 36.4102 46.4321 36.2835 46.8897C36.388 46.8056 36.4877 46.7156 36.5822 46.6203L41.1499 42.0475C41.5602 41.5875 42.0898 41.25 42.6801 41.0723C43.2704 40.8946 43.8983 40.8836 44.4945 41.0406C45.1714 41.2561 45.7815 41.6421 46.2661 42.1615C46.7507 42.681 47.0935 43.3164 47.2615 44.0067ZM7.56105 57.8544V39.7015H1.64409V58.3534H7.56105V57.8544ZM12.3868 56.3834V50.3929L12.3234 47.5396C12.3234 47.4762 12.319 47.4065 12.319 47.3342C12.3205 47.0617 12.343 46.7898 12.3862 46.5207V41.6702C12.3862 41.4985 12.318 41.3338 12.1966 41.2123C12.0752 41.0908 11.9106 41.0224 11.7388 41.0222H9.20767V57.0307H11.7394C11.9111 57.0306 12.0756 56.9623 12.197 56.8409C12.3184 56.7196 12.3866 56.555 12.3868 56.3834ZM45.6624 44.3998C45.5655 43.992 45.3669 43.6153 45.0852 43.3049C44.8035 42.9945 44.4478 42.7604 44.0513 42.6245C43.7361 42.549 43.406 42.5636 43.0987 42.6666C42.7914 42.7696 42.5193 42.9569 42.3133 43.2072L37.7482 47.7825C37.2643 48.2792 36.6789 48.6654 36.0319 48.9148C35.3849 49.1642 34.6917 49.2709 33.9997 49.2275L32.4462 49.1476L23.1428 49.1343C22.9242 49.1343 22.7146 49.0474 22.56 48.8929C22.4054 48.7383 22.3186 48.5286 22.3186 48.31C22.3186 48.0914 22.4054 47.8818 22.56 47.7272C22.7146 47.5726 22.9242 47.4858 23.1428 47.4858L32.4722 47.5003H33.3174C33.6978 47.5003 34.0626 47.3492 34.3316 47.0803C34.6005 46.8113 34.7516 46.4465 34.7516 46.0661C34.7516 45.6857 34.6005 45.3209 34.3316 45.052C34.0626 44.783 33.6978 44.6319 33.3174 44.6319H33.313L28.6755 44.6389C28.5624 44.6388 28.4505 44.6155 28.3467 44.5704C28.243 44.5252 28.1497 44.4592 28.0726 44.3764C26.6371 42.8337 24.2359 41.9125 21.649 41.9125C17.7401 41.9125 14.5102 43.9864 14.0347 46.6564V50.3726L14.1159 54.0583L36.6081 53.9252C37.071 53.9252 37.4514 53.5378 38.0233 52.905C38.2237 52.6837 38.4228 52.4643 38.6289 52.2709L45.223 46.0699C45.4437 45.8598 45.6017 45.5925 45.6792 45.2978C45.7568 45.0031 45.751 44.6927 45.6624 44.4011V44.3998ZM24.3963 10.8706C25.305 10.3753 26.2635 9.97766 27.2559 9.68432C27.4407 9.63538 27.6098 9.53967 27.7468 9.4064C27.8838 9.27313 27.9842 9.10681 28.0383 8.92346L28.2438 8.28941C28.4219 7.71972 28.7788 7.2226 29.2617 6.87175C29.7446 6.5209 30.3277 6.335 30.9245 6.34161H31.9517C32.5484 6.33516 33.1313 6.52104 33.6142 6.87175C34.097 7.22245 34.454 7.71932 34.6324 8.28878L34.8385 8.92283C34.8442 8.94185 34.855 8.95643 34.8613 8.97418C35.0157 7.50537 35.4928 6.08884 36.2586 4.82593C37.0243 3.56303 38.0596 2.48497 39.2906 1.66889C40.5216 0.852816 41.9177 0.318895 43.3791 0.105332C44.8404 -0.108232 46.331 0.00384015 47.744 0.43353C47.8799 0.475057 48.0028 0.551037 48.1007 0.654091C48.1986 0.757145 48.2682 0.883769 48.3028 1.02167C48.3373 1.15956 48.3356 1.30404 48.2978 1.44107C48.2599 1.5781 48.1873 1.70303 48.087 1.80371L42.073 7.81768C42.0436 7.84787 42.0271 7.88837 42.0271 7.93054C42.0271 7.97271 42.0436 8.0132 42.073 8.0434L46.7973 12.7677C46.8277 12.7965 46.868 12.8126 46.9099 12.8126C46.9518 12.8126 46.992 12.7965 47.0224 12.7677L53.0364 6.75374C53.1371 6.65339 53.262 6.58079 53.399 6.54298C53.5361 6.50517 53.6805 6.50344 53.8184 6.53796C53.9563 6.57249 54.083 6.64208 54.186 6.74C54.2891 6.83791 54.365 6.96081 54.4066 7.09676C54.8396 8.51907 54.9506 10.0199 54.7316 11.4905C54.5126 12.961 53.969 14.3644 53.1402 15.5987C52.3115 16.8331 51.2184 17.8675 49.9402 18.627C48.6621 19.3864 47.2309 19.8519 45.7505 19.9895C45.8924 20.1994 46.1018 20.3545 46.344 20.4289L46.978 20.6344C47.5479 20.8124 48.0453 21.1694 48.3963 21.6524C48.7473 22.1354 48.9332 22.7187 48.9265 23.3158V24.3417C48.9323 24.9384 48.7458 25.5213 48.3945 26.0037C48.0432 26.4862 47.5459 26.8428 46.9761 27.0205L46.3421 27.2259C46.1588 27.2801 45.9925 27.3806 45.8593 27.5176C45.726 27.6546 45.6303 27.8236 45.5812 28.0084C45.2878 29.0008 44.8906 29.9594 44.3962 30.8686C44.2994 31.0348 44.2473 31.2233 44.2451 31.4157C44.2429 31.608 44.2906 31.7977 44.3835 31.9661L44.6859 32.5608C44.9626 33.0896 45.0617 33.6933 44.9683 34.2827C44.875 34.8721 44.5944 35.4158 44.1679 35.8332L43.4426 36.5585C43.0251 36.9855 42.4812 37.2666 41.8914 37.3602C41.3016 37.4537 40.6974 37.3547 40.1683 37.0778L39.5749 36.7754C39.4065 36.6851 39.218 36.6391 39.027 36.6418C38.836 36.6445 38.6488 36.6957 38.483 36.7906C37.5737 37.2851 36.6148 37.6825 35.6222 37.9763C35.4374 38.0253 35.2683 38.1211 35.1312 38.2543C34.9941 38.3876 34.8935 38.5538 34.8391 38.7371L34.635 39.3674C34.4566 39.9371 34.0995 40.4342 33.6166 40.7851C33.1336 41.136 32.5505 41.3221 31.9536 41.3158H30.9264C30.3295 41.3224 29.7464 41.1364 29.2635 40.7854C28.7806 40.4344 28.4237 39.9372 28.2457 39.3674L28.0402 38.7333C27.9859 38.55 27.8854 38.3837 27.7482 38.2505C27.6111 38.1172 27.442 38.0215 27.2572 37.9725C26.4334 37.7274 25.6327 37.4107 24.8643 37.0258L23.3185 38.5716C22.8535 39.0357 22.2235 39.2964 21.5666 39.2964C20.9097 39.2964 20.2796 39.0357 19.8147 38.5716L16.8347 35.5916C16.3757 35.1383 16.1129 34.5229 16.1029 33.8779C16.093 33.2328 16.3366 32.6096 16.7814 32.1424L18.3082 30.5287C17.8948 29.7234 17.5567 28.8816 17.2982 28.0141C17.2491 27.8293 17.1534 27.6601 17.0202 27.523C16.8869 27.3859 16.7206 27.2853 16.5373 27.231L15.907 27.0262C15.3371 26.8482 14.8398 26.4912 14.4888 26.0082C14.1378 25.5251 13.9519 24.9419 13.9586 24.3448V23.3158C13.9518 22.7188 14.1376 22.1355 14.4884 21.6525C14.8393 21.1695 15.3366 20.8124 15.9064 20.6344L16.5405 20.4289C16.7239 20.3748 16.8903 20.2743 17.0235 20.1371C17.1568 20 17.2525 19.8308 17.3013 19.6459C17.5946 18.6535 17.992 17.695 18.487 16.7863C18.5832 16.6207 18.6351 16.4332 18.6377 16.2418C18.6404 16.0503 18.5937 15.8614 18.5022 15.6932L18.1922 15.1004C17.9152 14.5716 17.8161 13.9676 17.9095 13.378C18.0029 12.7884 18.2839 12.2447 18.7108 11.8274L19.4362 11.1014C19.8537 10.6748 20.3976 10.3939 20.9872 10.3005C21.5768 10.2071 22.1808 10.3061 22.7098 10.5828L23.302 10.8846C23.4702 10.9764 23.6593 11.0234 23.851 11.021C24.0427 11.0185 24.2305 10.9668 24.3963 10.8706ZM45.8361 21.9957C45.399 21.8574 45.0029 21.6131 44.6831 21.2847C44.3633 20.9562 44.1297 20.5538 44.0031 20.1132C43.991 20.0726 43.9764 20.0333 43.9644 19.9927C43.3699 19.9416 42.7811 19.8381 42.2049 19.6833L40.7187 21.1695C41.1966 22.826 41.2216 24.5803 40.7912 26.2498C40.3608 27.9192 39.4907 29.4428 38.2715 30.6618C37.0524 31.8807 35.5287 32.7506 33.8592 33.1807C32.1896 33.6108 30.4353 33.5855 28.7789 33.1074L26.1064 35.7799C26.6308 36.019 27.1705 36.2232 27.7219 36.3911C28.1624 36.5179 28.5648 36.7515 28.8933 37.0712C29.2218 37.3908 29.4663 37.7867 29.6051 38.2235L29.8105 38.8576C29.8827 39.0955 30.0305 39.3033 30.2316 39.4494C30.4327 39.5956 30.676 39.6721 30.9245 39.6673H31.9517C32.2005 39.6721 32.444 39.5955 32.6453 39.4491C32.8465 39.3027 32.9944 39.0945 33.0663 38.8563L33.2705 38.228C33.4087 37.7906 33.653 37.3941 33.9816 37.074C34.3101 36.7538 34.7128 36.5199 35.1536 36.393C36.035 36.1323 36.8864 35.7793 37.6936 35.3399C38.0947 35.1176 38.5445 34.9981 39.0029 34.9919C39.4614 34.9857 39.9143 35.093 40.3211 35.3044L40.914 35.6062C41.1334 35.7235 41.3852 35.7658 41.631 35.7268C41.8767 35.6878 42.103 35.5695 42.2753 35.39L43.0013 34.664C43.1803 34.4916 43.2982 34.2655 43.3369 34.02C43.3757 33.7746 43.3334 33.5231 43.2162 33.304L42.9138 32.7092C42.7026 32.3022 42.5955 31.8493 42.6019 31.3908C42.6083 30.9324 42.7281 30.4826 42.9506 30.0817C43.3895 29.2757 43.7421 28.4256 44.0024 27.5455C44.1289 27.105 44.3624 26.7025 44.6819 26.374C45.0015 26.0455 45.3973 25.801 45.8342 25.6624L46.4683 25.4569C46.7061 25.3846 46.9139 25.2366 47.0599 25.0354C47.2059 24.8342 47.2823 24.5908 47.2773 24.3423V23.3158C47.282 23.0672 47.2054 22.8238 47.0592 22.6227C46.9129 22.4216 46.705 22.2738 46.467 22.2017L45.8361 21.9957ZM30.1516 31.7366C31.4052 31.9411 32.6894 31.8445 33.8983 31.4548C35.1072 31.0651 36.206 30.3935 37.1042 29.4954C38.0023 28.5973 38.6739 27.4984 39.0636 26.2895C39.4533 25.0807 39.5499 23.7964 39.3453 22.5429L30.1516 31.7366ZM36.4687 10.4718V10.4832C36.5105 11.221 36.6491 11.95 36.8808 12.6517C36.9274 12.7928 36.935 12.9439 36.9027 13.0891C36.8705 13.2342 36.7996 13.3678 36.6975 13.4759L19.8895 31.2446L19.8851 31.249L17.9728 33.2703C17.8269 33.4282 17.7477 33.6364 17.7517 33.8514C17.7557 34.0663 17.8426 34.2714 17.9943 34.4237L20.9775 37.4037C21.1361 37.554 21.3462 37.6378 21.5647 37.6378C21.7831 37.6378 21.9933 37.554 22.1518 37.4037L41.387 18.1717C41.4945 18.0642 41.6296 17.9886 41.7774 17.9531C41.9253 17.9176 42.08 17.9237 42.2246 17.9707C42.999 18.2229 43.8058 18.3615 44.62 18.3822H44.6289C45.8308 18.4102 47.0247 18.1789 48.1293 17.7042C49.2339 17.2295 50.2233 16.5225 51.0302 15.6312C51.8372 14.74 52.4427 13.6854 52.8056 12.5392C53.1685 11.393 53.2803 10.182 53.1334 8.98877L48.1878 13.9344C47.8487 14.2725 47.3894 14.4624 46.9105 14.4624C46.4316 14.4624 45.9723 14.2725 45.6332 13.9344L40.9089 9.20815C40.5711 8.86889 40.3814 8.40962 40.3814 7.93086C40.3814 7.45209 40.5711 6.99282 40.9089 6.65356L45.8545 1.70797C44.6392 1.55743 43.4057 1.6754 42.241 2.05356C41.0763 2.43173 40.0087 3.06088 39.1137 3.89662C38.2186 4.73236 37.5178 5.75433 37.0608 6.89042C36.6038 8.02652 36.4017 9.24907 36.4687 10.4718ZM23.5169 25.0144L32.1825 15.8549C31.9352 15.8321 31.6873 15.8162 31.4381 15.8162C30.2849 15.8135 29.1448 16.0603 28.096 16.5397C27.0472 17.0191 26.1146 17.7197 25.3621 18.5935C24.6096 19.4673 24.055 20.4936 23.7365 21.602C23.418 22.7103 23.3431 23.8744 23.5169 25.0144ZM22.5551 12.3524L21.9616 12.05C21.7423 11.9329 21.4909 11.8906 21.2454 11.9295C20.9999 11.9684 20.7739 12.0864 20.6016 12.2655L19.8756 12.9922C19.6962 13.1644 19.578 13.3906 19.539 13.6362C19.5 13.8818 19.5422 14.1334 19.6594 14.3528L19.9612 14.9431C20.1725 15.3507 20.2799 15.8042 20.2737 16.2632C20.2675 16.7223 20.1479 17.1727 19.9257 17.5744C19.4865 18.3804 19.1337 19.2306 18.8731 20.1106C18.7465 20.5512 18.5129 20.9536 18.1932 21.2821C17.8736 21.6107 17.4777 21.8551 17.0407 21.9938L16.4067 22.1986C16.1685 22.271 15.9605 22.4193 15.8145 22.6209C15.6684 22.8224 15.5923 23.0662 15.5976 23.3151V24.3417C15.5927 24.5903 15.6692 24.8337 15.8153 25.0349C15.9615 25.2361 16.1693 25.3841 16.4073 25.4563L17.0414 25.6617C17.4783 25.8003 17.8742 26.0447 18.194 26.3731C18.5138 26.7015 18.7475 27.1038 18.8744 27.5442C19.0508 28.123 19.2675 28.6887 19.523 29.2372L22.1505 26.46C21.6919 24.8503 21.6599 23.1489 22.0578 21.5231C22.4557 19.8973 23.2697 18.4029 24.4199 17.187C25.5702 15.971 27.017 15.0752 28.6182 14.5876C30.2194 14.1001 31.9199 14.0375 33.5527 14.4061L35.1739 12.6942C35.0362 12.1932 34.9372 11.6823 34.8778 11.1661C34.499 11.0132 34.1586 10.7787 33.8809 10.4791C33.6032 10.1796 33.395 9.82248 33.2711 9.43324L33.0663 8.79919C32.9941 8.56121 32.8462 8.35334 32.645 8.20718C32.4438 8.06103 32.2003 7.98459 31.9517 7.9895H30.9245C30.676 7.98473 30.4327 8.06123 30.2316 8.20738C30.0305 8.35352 29.8827 8.56132 29.8105 8.79919L29.6051 9.43324C29.4664 9.87016 29.222 10.2661 28.8934 10.5857C28.5649 10.9054 28.1625 11.139 27.7219 11.2656C26.8417 11.5259 25.9916 11.8787 25.1857 12.3182C24.7841 12.5404 24.3337 12.6598 23.8747 12.6658C23.4157 12.6718 22.9624 12.5641 22.5551 12.3524ZM55.3989 25.8412L53.2856 23.5117C53.2405 23.4028 53.1724 23.3049 53.0859 23.2248C52.9995 23.1446 52.8968 23.0841 52.7848 23.0473C52.6728 23.0105 52.5542 22.9984 52.4371 23.0117C52.32 23.0249 52.2071 23.0634 52.1062 23.1243C52.0069 23.1871 51.9219 23.2703 51.8571 23.3684L49.4515 25.5502C49.2901 25.696 49.1933 25.9 49.1824 26.1173C49.1714 26.3345 49.2473 26.5472 49.3931 26.7086C49.539 26.8699 49.743 26.9667 49.9603 26.9776C50.1775 26.9886 50.3902 26.9128 50.5515 26.7669L51.6117 25.805C51.1652 30.4463 49.1247 34.7895 45.8374 38.0961C45.7556 38.1718 45.6901 38.2633 45.6447 38.365C45.5993 38.4668 45.575 38.5767 45.5732 38.6881C45.5715 38.7995 45.5924 38.9101 45.6346 39.0132C45.6768 39.1163 45.7395 39.2098 45.8188 39.288C45.8982 39.3662 45.9926 39.4275 46.0963 39.4682C46.2001 39.5089 46.311 39.5282 46.4223 39.5248C46.5337 39.5214 46.6432 39.4955 46.7443 39.4486C46.8454 39.4017 46.9359 39.3348 47.0104 39.252C50.5813 35.6688 52.7879 30.9505 53.2488 25.9128L54.1821 26.9419C54.3281 27.1032 54.5321 27.1998 54.7494 27.2107C54.9666 27.2215 55.1793 27.1456 55.3405 26.9996C55.5018 26.8536 55.5985 26.6496 55.6093 26.4323C55.6201 26.2151 55.5448 26.0024 55.3989 25.8412Z" fill="#0CB4C4"></path></svg>