<svg xmlns="http://www.w3.org/2000/svg" xmlns:xlink="http://www.w3.org/1999/xlink" version="1.1" id="Layer_1" x="0px" y="0px" width="59.955px" height="60px" viewBox="0 0 59.955 60" enable-background="new 0 0 59.955 60" xml:space="preserve"><g><g><path fill="#0CB4C4" d="M33.377,53.832l-3.719,2.72v-24.76l25.761-14.604v16.418c0,0.543,0.362,0.906,0.906,0.906 c0.545,0,0.906-0.363,0.906-0.906V15.647c0-0.273-0.181-0.635-0.452-0.817C56.506,14.738,29.387,0.318,29.117,0.137 c-0.274-0.183-0.636-0.183-0.818,0L0.543,15.283C0.272,15.465,0,15.828,0,16.101v26.484c0,0.362,0.182,0.635,0.453,0.816 l27.755,15.69l0,0c0.364,0.182,0.726,0.182,0.999-0.091l5.17-3.718c0.361-0.272,0.452-0.816,0.181-1.27 C34.286,53.651,33.742,53.561,33.377,53.832z M28.662,30.25l-9.524-5.262l26.213-14.24l9.07,4.989L28.662,30.25z M43.356,9.843 l-26.577,14.42c-0.272,0.182-0.453,0.454-0.453,0.817v7.618l-4.899-2.721v-8.164L38.367,7.121L43.356,9.843z M28.662,1.951 l7.71,4.172l-25.85,14.24L2.812,16.19L28.662,1.951z M1.813,17.643l7.801,4.263v8.707c0,0.362,0.182,0.635,0.453,0.815l6.712,3.72 c0.273,0.181,0.634,0.181,0.908,0c0.271-0.181,0.454-0.454,0.454-0.815v-7.71l9.705,5.26v24.943L1.813,42.041V17.643z"></path></g><g><path fill="#0CB4C4" d="M59.046,44.127l-2.356-0.363c-0.273-0.997-0.635-1.904-1.18-2.812l1.45-1.905 c0.271-0.362,0.271-0.905-0.09-1.27l-1.995-1.995c-0.364-0.362-0.818-0.362-1.18-0.091l-1.905,1.541 c-0.908-0.543-1.814-0.905-2.811-1.178l-0.363-2.358c-0.091-0.454-0.455-0.816-0.906-0.816h-2.813 c-0.454,0-0.815,0.362-0.906,0.816l-0.363,2.358c-0.997,0.272-1.905,0.635-2.812,1.178l-1.904-1.45 c-0.364-0.272-0.909-0.272-1.18,0.09l-1.995,1.996c-0.364,0.363-0.364,0.816-0.091,1.179l1.451,1.905 c-0.545,0.907-0.906,1.814-1.18,2.812l-2.356,0.363c-0.454,0.09-0.818,0.454-0.818,0.907v2.812c0,0.453,0.364,0.816,0.818,0.906 l2.356,0.364c0.273,0.996,0.635,1.904,1.18,2.811l-1.451,1.905c-0.273,0.363-0.273,0.907,0.091,1.179l1.995,1.995 c0.364,0.364,0.815,0.364,1.18,0.091l1.904-1.45c0.906,0.544,1.814,0.905,2.812,1.179l0.363,2.358 C44.082,59.637,44.443,60,44.897,60h2.813c0.451,0,0.815-0.363,0.906-0.816l0.363-2.358c0.996-0.273,1.902-0.635,2.811-1.179 l1.905,1.45c0.181,0.09,0.361,0.182,0.545,0.182c0.271,0,0.544-0.092,0.725-0.272l1.995-1.995 c0.364-0.362,0.364-0.815,0.091-1.179l-1.45-1.905c0.544-0.906,0.905-1.814,1.179-2.811l2.356-0.364 c0.455-0.09,0.818-0.453,0.818-0.906v-2.812C59.862,44.581,59.5,44.127,59.046,44.127z M58.05,47.029l-2.179,0.272 c-0.361,0.09-0.726,0.362-0.815,0.725c-0.181,1.18-0.726,2.268-1.36,3.355c-0.181,0.364-0.181,0.727,0,1.09l1.36,1.814 l-0.906,0.905l-1.814-1.359c-0.273-0.271-0.726-0.271-1.089,0c-0.999,0.725-2.086,1.179-3.266,1.359 c-0.363,0.092-0.635,0.364-0.725,0.817l-0.181,2.087h-1.271l-0.273-2.269c-0.09-0.361-0.361-0.726-0.726-0.816 c-1.179-0.271-2.269-0.725-3.265-1.359c-0.364-0.183-0.726-0.183-1.089,0l-1.814,1.359l-0.906-0.907l1.36-1.723 c0.273-0.272,0.273-0.816,0-1.089c-0.635-0.998-1.09-2.086-1.36-3.266c-0.091-0.362-0.364-0.635-0.815-0.725l-2.179-0.272v-1.271 l2.179-0.271c0.361-0.091,0.725-0.363,0.815-0.726c0.181-1.18,0.726-2.268,1.36-3.355c0.181-0.364,0.181-0.726,0-1.089 l-1.36-1.814l0.906-0.906l1.724,1.36c0.273,0.272,0.815,0.272,1.09,0c0.996-0.635,2.085-1.089,3.265-1.36 c0.361-0.091,0.635-0.364,0.726-0.817l0.271-2.267h1.271l0.273,2.267c0.09,0.363,0.361,0.727,0.725,0.817 c1.18,0.271,2.267,0.726,3.266,1.36c0.363,0.181,0.725,0.181,1.089,0l1.814-1.36l0.906,0.906l-1.36,1.814 c-0.273,0.272-0.273,0.725,0,1.089c0.635,0.996,1.18,2.086,1.36,3.355c0.09,0.362,0.363,0.635,0.815,0.726l2.179,0.271V47.029z"></path></g><g><path fill="#0CB4C4" d="M46.44,39.501c-3.81,0-6.894,3.084-6.894,6.894s3.084,6.893,6.894,6.893c3.808,0,6.892-3.083,6.892-6.893 S50.248,39.501,46.44,39.501z M46.44,51.474c-2.813,0-5.079-2.268-5.079-5.079c0-2.813,2.267-5.079,5.079-5.079 c2.812,0,5.077,2.267,5.077,5.079C51.517,49.206,49.251,51.474,46.44,51.474z"></path></g></g></svg>