<svg width="58" height="60" viewBox="0 0 58 60" fill="none" xmlns="http://www.w3.org/2000/svg"><path d="M38.2162 10.8002C38.0463 10.264 37.8285 9.74382 37.5656 9.24595L39.9359 6.89204L35.8353 2.81972L33.465 5.17364C32.9637 4.91254 32.44 4.69632 31.9 4.52756V1.2002H26.1V4.52756C25.56 4.69632 25.0363 4.91254 24.535 5.17364L22.1647 2.81972L18.0641 6.89204L20.4344 9.24595C20.1715 9.74382 19.9537 10.264 19.7838 10.8002H0V49.2002H23.2V52.8559L20.8056 58.8002H37.1944L34.8 52.8559V49.2002H58V10.8002H38.2162ZM18.3667 12.7202H21.2937L21.4648 11.9733C21.6584 11.132 21.994 10.3292 22.4576 9.59923L22.8694 8.95028L20.7978 6.89204L22.1647 5.5346L24.2363 7.59188L24.8888 7.18387C25.6242 6.7229 26.4332 6.38951 27.2813 6.19796L28.0333 6.02804V3.1202H29.9667V6.02804L30.7187 6.19796C31.5668 6.38951 32.3758 6.7229 33.1112 7.18387L33.7637 7.59188L35.8353 5.5346L37.2022 6.89204L35.1306 8.95028L35.5424 9.59923C36.0077 10.3289 36.345 11.1316 36.54 11.9733L36.7111 12.7202H39.6333V14.6402H36.7063L36.5352 15.3871C36.3416 16.2284 36.006 17.0312 35.5424 17.7612L35.1306 18.4101L37.2022 20.4684L35.8353 21.8258L33.7637 19.7685L33.1103 20.1765C32.3753 20.6377 31.5665 20.9712 30.7187 21.1624L29.9667 21.3324V24.2402H28.0333V21.3324L27.2813 21.1624C26.4335 20.9712 25.6247 20.6377 24.8897 20.1765L24.2363 19.7685L22.1647 21.8258L20.7978 20.4684L22.8694 18.4101L22.4576 17.7612C21.994 17.0312 21.6584 16.2284 21.4648 15.3871L21.2937 14.6402H18.3667V12.7202ZM23.6611 56.8802L24.8211 54.0002H33.1789L34.3389 56.8802H23.6611ZM32.8667 52.0802H25.1333V49.2002H32.8667V52.0802ZM56.0667 47.2802H1.93333V43.4402H56.0667V47.2802ZM56.0667 12.7202V41.5202H1.93333V12.7202H16.4333V16.5602H19.7838C19.9537 17.0964 20.1715 17.6166 20.4344 18.1144L18.0641 20.4684L22.1647 24.5407L24.535 22.1877C25.0364 22.4483 25.5601 22.6642 26.1 22.8328V26.1602H31.9V22.8328C32.4399 22.6642 32.9636 22.4483 33.465 22.1877L35.8353 24.5407L39.9359 20.4684L37.5656 18.1144C37.8285 17.6166 38.0463 17.0964 38.2162 16.5602H41.5667V12.7202H56.0667Z" fill="#0CB4C4"></path><path d="M34.9558 28.0804H26.0992C25.0737 28.0804 24.0902 28.485 23.3651 29.2051C22.6399 29.9252 22.2326 30.902 22.2326 31.9204H16.8328L13.0831 28.1975C12.7394 27.8562 12.3315 27.5855 11.8825 27.4008C11.4335 27.2162 10.9523 27.1211 10.4663 27.1211C9.48481 27.1211 8.54354 27.5083 7.84953 28.1975C7.50589 28.5388 7.2333 28.9439 7.04732 29.3898C6.86135 29.8357 6.76562 30.3136 6.76562 30.7962C6.76562 31.7709 7.15552 32.7057 7.84953 33.395L14.099 39.6004H51.2326V30.0004H40.7558L34.9558 28.0804ZM49.2992 37.6804H14.8994L9.21639 32.0375C8.96924 31.792 8.80095 31.4792 8.73278 31.1386C8.6646 30.7981 8.69962 30.4452 8.83339 30.1244C8.96716 29.8036 9.19368 29.5294 9.48433 29.3365C9.77497 29.1436 10.1167 29.0405 10.4663 29.0404C10.9349 29.0416 11.3841 29.2265 11.7162 29.555L16.0324 33.8404H22.7517C23.0909 34.424 23.5789 34.9086 24.1665 35.2457C24.7541 35.5827 25.4207 35.7602 26.0992 35.7604H34.7992V33.8404H26.0992C25.5865 33.8404 25.0947 33.6381 24.7322 33.278C24.3696 32.918 24.1659 32.4296 24.1659 31.9204C24.1659 31.4112 24.3696 30.9228 24.7322 30.5628C25.0947 30.2027 25.5865 30.0004 26.0992 30.0004H34.6426L40.4426 31.9204H49.2992V37.6804Z" fill="#0CB4C4"></path><path d="M29.0002 19.4399C30.1473 19.4399 31.2687 19.1021 32.2225 18.4692C33.1763 17.8363 33.9197 16.9367 34.3587 15.8842C34.7977 14.8317 34.9125 13.6735 34.6888 12.5562C34.465 11.4389 33.9126 10.4125 33.1014 9.60699C32.2903 8.80144 31.2568 8.25285 30.1317 8.0306C29.0066 7.80835 27.8404 7.92242 26.7806 8.35838C25.7208 8.79434 24.815 9.53261 24.1777 10.4798C23.5404 11.4271 23.2002 12.5407 23.2002 13.6799C23.2017 15.2071 23.8133 16.6713 24.9007 17.7512C25.988 18.8311 27.4624 19.4384 29.0002 19.4399ZM29.0002 17.5199C27.9747 17.5199 26.9912 17.1154 26.266 16.3952C25.5409 15.6751 25.1335 14.6984 25.1335 13.6799C25.1376 13.3554 25.1837 13.0327 25.2708 12.7199H32.7296C32.8166 13.0327 32.8628 13.3554 32.8669 13.6799C32.8669 14.6984 32.4595 15.6751 31.7343 16.3952C31.0092 17.1154 30.0257 17.5199 29.0002 17.5199ZM31.5309 10.7999H26.4695C27.1654 10.1817 28.0664 9.83994 29.0002 9.83994C29.934 9.83994 30.8349 10.1817 31.5309 10.7999Z" fill="#0CB4C4"></path></svg>