<svg width="63" height="60" viewBox="0 0 63 60" fill="none" xmlns="http://www.w3.org/2000/svg"><path d="M57.988 25.4269C58.0135 25.1377 58.0308 24.8337 58.0308 24.5253C58.0308 17.9681 52.6964 12.6337 46.1392 12.6337C44.4167 12.6337 42.7288 13.0069 41.1787 13.7226C40.3852 6.0242 33.8614 0 25.9572 0C18.3059 0 11.9258 5.5485 10.824 13.0245C4.50911 14.5259 0 20.1777 0 26.7365C0 34.5068 6.32627 40.8283 14.1024 40.8283H16.6765V58.9944C16.6765 59.5498 17.1267 60 17.6821 60H44.6653C45.2208 60 45.6709 59.5498 45.6709 58.9944V40.8283H54.1616C58.6754 40.8283 62.3475 37.161 62.3475 32.6531C62.3475 29.5911 60.6595 26.8316 57.988 25.4269ZM43.6597 57.9888H18.6877V39.8227V28.2473H43.6597V39.8227V57.9888ZM54.1616 38.8171H45.6709V28.2473H51.2544C51.8098 28.2473 52.26 27.7971 52.26 27.2417C52.26 26.6862 51.8098 26.2361 51.2544 26.2361H44.6653H17.6821H11.0931C10.5376 26.2361 10.0875 26.6862 10.0875 27.2417C10.0875 27.7971 10.5376 28.2473 11.0931 28.2473H16.6765V38.8171H14.1024C7.43519 38.8171 2.01121 33.3978 2.01121 26.7365C2.01121 20.8993 6.17622 15.9003 11.9148 14.8496C12.356 14.769 12.6903 14.4061 12.7342 13.9598C13.4103 7.14804 19.0951 2.01121 25.9572 2.01121C33.2859 2.01121 39.2484 7.97373 39.2484 15.3767C39.2484 15.7452 39.4495 16.0838 39.7732 16.2598C40.0961 16.4357 40.4897 16.4216 40.7996 16.2213C42.396 15.1901 44.2423 14.6449 46.1392 14.6449C51.5871 14.6449 56.0196 19.0774 56.0196 24.5253C56.0196 24.9967 55.965 25.4866 55.912 25.9037C55.8542 26.3539 56.1056 26.7872 56.5256 26.9604C58.8404 27.9165 60.3363 30.1508 60.3363 32.6531C60.3363 36.0521 57.5661 38.8171 54.1616 38.8171Z" fill="#0CB4C4"></path><path d="M37.7227 34.918H24.6247C24.0693 34.918 23.6191 35.3681 23.6191 35.9236C23.6191 36.479 24.0693 36.9292 24.6247 36.9292H37.7227C38.2782 36.9292 38.7283 36.479 38.7283 35.9236C38.7283 35.3681 38.2782 34.918 37.7227 34.918Z" fill="#0CB4C4"></path><path d="M37.7227 42.1123H24.6247C24.0693 42.1123 23.6191 42.5625 23.6191 43.1179C23.6191 43.6733 24.0693 44.1235 24.6247 44.1235H37.7227C38.2782 44.1235 38.7283 43.6733 38.7283 43.1179C38.7283 42.5625 38.2782 42.1123 37.7227 42.1123Z" fill="#0CB4C4"></path><path d="M37.7227 49.3066H24.6247C24.0693 49.3066 23.6191 49.7568 23.6191 50.3122C23.6191 50.8677 24.0693 51.3178 24.6247 51.3178H37.7227C38.2782 51.3178 38.7283 50.8677 38.7283 50.3122C38.7283 49.7568 38.2782 49.3066 37.7227 49.3066Z" fill="#0CB4C4"></path></svg>