<svg width="61" height="61" viewBox="0 0 61 61" fill="none" xmlns="http://www.w3.org/2000/svg"><path fill-rule="evenodd" clip-rule="evenodd" d="M12.4992 4.12769C13.2663 1.92054 15.3976 0.328125 17.857 0.328125H25.9855C29.4362 0.328125 32.2343 3.12616 32.2343 6.57693V54.0793C32.2343 57.5301 29.4362 60.3281 25.9855 60.3281H20.9864C17.9434 60.3281 15.4026 58.145 14.8503 55.2565C9.47018 54.688 4.73951 50.1526 4.73951 44.695C4.73951 43.2265 5.1122 41.8931 5.67905 40.6472C2.85816 38.1152 0.990234 34.3711 0.990234 30.3076C0.990234 26.9818 2.36609 23.8902 4.37188 21.5039C3.13215 19.732 2.24 17.6197 2.24 15.3248C2.24 9.47495 7.23519 4.66173 12.4992 4.12726L12.4992 4.12769ZM20.9864 57.8289C18.9171 57.8289 17.2371 56.1456 17.2371 54.0735V54.0684C17.2371 53.3788 16.677 52.8187 15.9874 52.8187C11.4871 52.8187 7.23903 49.2017 7.23903 44.6952C7.23903 43.2965 7.71271 42.0669 8.33759 40.9169C8.62995 40.3785 8.48879 39.7057 8.00283 39.3308C5.32705 37.2676 3.48969 33.9468 3.48969 30.3074C3.48969 27.2644 4.92798 24.4721 6.88804 22.4429C7.32657 21.9882 7.35782 21.2779 6.96057 20.7881C5.74206 19.2833 4.73999 17.4126 4.73999 15.3254C4.73999 10.4976 9.11302 6.57706 13.4693 6.57706C13.4219 6.57706 13.4883 5.96724 13.4883 5.50472H14.7258C14.9434 3.98886 16.2829 2.8278 17.8575 2.8278H25.9859C28.057 2.8278 29.7352 4.50605 29.7352 6.57708V54.0795C29.7352 56.1505 28.057 57.8288 25.9859 57.8288H20.9869L20.9864 57.8289Z" fill="#0CB4C4"></path><path fill-rule="evenodd" clip-rule="evenodd" d="M47.1184 55.2565C46.566 58.145 44.0253 60.3281 40.9823 60.3281H35.9832C32.5324 60.3281 29.7344 57.5301 29.7344 54.0793V6.57693C29.7344 3.12616 32.5324 0.328125 35.9832 0.328125H44.1117C46.5711 0.328125 48.7024 1.92039 49.4695 4.12769C54.7335 4.66274 59.7287 9.47538 59.7287 15.3253C59.7287 17.62 58.8366 19.7319 57.5968 21.5044C59.6026 23.8901 60.9785 26.9822 60.9785 30.308C60.9785 34.3708 59.11 38.1151 56.2896 40.6476C56.8571 41.8934 57.2292 43.227 57.2292 44.6954C57.2292 50.1531 52.4991 54.6885 47.1184 55.257L47.1184 55.2565ZM48.4809 5.32746H48.0697C47.6283 5.32746 47.3098 5.32746 47.2434 5.50488C47.0258 3.98903 45.6862 2.82796 44.1117 2.82796H35.9832C33.9122 2.82796 32.2339 4.50621 32.2339 6.57725V54.0796C32.2339 56.1507 33.9122 57.8289 35.9832 57.8289H40.9823C43.0516 57.8289 44.7316 56.1457 44.7316 54.0735V54.0685C44.7316 53.3789 45.2917 52.8187 45.9813 52.8187C50.4816 52.8187 54.7297 49.2017 54.7297 44.6953C54.7297 43.2965 54.256 42.0669 53.6311 40.917C53.3387 40.3786 53.4799 39.7057 53.9659 39.3308C56.6416 37.2677 58.479 33.9469 58.479 30.3074C58.479 27.2644 57.0407 24.4721 55.0806 22.4429C54.6421 21.9882 54.6109 21.278 55.0081 20.7881C56.2266 19.2834 57.2287 17.4126 57.2287 15.3254C57.2287 10.4976 52.8557 6.57708 48.4994 6.57708C48.5468 6.57708 48.4804 5.32732 48.4804 5.32732L48.4809 5.32746Z" fill="#0CB4C4"></path><path fill-rule="evenodd" clip-rule="evenodd" d="M25.4681 24.0739H20.9862C20.2966 24.0739 19.7365 23.5137 19.7365 22.8241C19.7365 22.1345 20.2966 21.5744 20.9862 21.5744H25.9853C26.3167 21.5744 26.6353 21.7055 26.869 21.9404L31.8681 26.9394C32.3557 27.427 32.3557 28.2193 31.8681 28.7064C31.3804 29.194 30.5882 29.194 30.1011 28.7064L25.468 24.0732L25.4681 24.0739Z" fill="#0CB4C4"></path><path fill-rule="evenodd" clip-rule="evenodd" d="M36.5004 24.0741L31.8673 28.7072C31.3797 29.1948 30.5874 29.1948 30.1003 28.7072C29.6127 28.2196 29.6127 27.4273 30.1003 26.9402L35.0994 21.9412C35.3332 21.7063 35.6517 21.5752 35.9832 21.5752H40.9822C41.6718 21.5752 42.232 22.1354 42.232 22.825C42.232 23.5146 41.6718 24.0747 40.9822 24.0747H36.5003L36.5004 24.0741Z" fill="#0CB4C4"></path><path fill-rule="evenodd" clip-rule="evenodd" d="M25.4682 36.5716L30.1013 31.9385C30.589 31.4508 31.3812 31.4508 31.8683 31.9385C32.3559 32.4261 32.3559 33.2183 31.8683 33.7054L26.8692 38.7045C26.6355 38.9393 26.3169 39.0705 25.9855 39.0705H20.9864C20.2968 39.0705 19.7367 38.5103 19.7367 37.8207C19.7367 37.1311 20.2968 36.5709 20.9864 36.5709H25.4683L25.4682 36.5716Z" fill="#0CB4C4"></path><path fill-rule="evenodd" clip-rule="evenodd" d="M36.5003 36.5718H40.9822C41.6718 36.5718 42.232 37.1319 42.232 37.8215C42.232 38.5111 41.6718 39.0713 40.9822 39.0713H35.9832C35.6517 39.0713 35.3332 38.9402 35.0994 38.7053L30.1003 33.7062C29.6127 33.2186 29.6127 32.4264 30.1003 31.9393C30.588 31.4517 31.3802 31.4517 31.8673 31.9393L36.5004 36.5724L36.5003 36.5718Z" fill="#0CB4C4"></path><path fill-rule="evenodd" clip-rule="evenodd" d="M18.4866 19.0746C16.4172 19.0746 14.7373 20.7545 14.7373 22.8238C14.7373 24.8932 16.4172 26.5731 18.4866 26.5731C20.5559 26.5731 22.2358 24.8932 22.2358 22.8238C22.2358 20.7545 20.5559 19.0746 18.4866 19.0746ZM18.4866 21.5741C19.1761 21.5741 19.7363 22.1342 19.7363 22.8238C19.7363 23.5134 19.1761 24.0736 18.4866 24.0736C17.797 24.0736 17.2368 23.5134 17.2368 22.8238C17.2368 22.1342 17.797 21.5741 18.4866 21.5741Z" fill="#0CB4C4"></path><path fill-rule="evenodd" clip-rule="evenodd" d="M43.4819 19.0746C41.4125 19.0746 39.7326 20.7545 39.7326 22.8238C39.7326 24.8932 41.4125 26.5731 43.4819 26.5731C45.5512 26.5731 47.2311 24.8932 47.2311 22.8238C47.2311 20.7545 45.5512 19.0746 43.4819 19.0746ZM43.4819 21.5741C44.1715 21.5741 44.7316 22.1342 44.7316 22.8238C44.7316 23.5134 44.1715 24.0736 43.4819 24.0736C42.7923 24.0736 42.2321 23.5134 42.2321 22.8238C42.2321 22.1342 42.7923 21.5741 43.4819 21.5741Z" fill="#0CB4C4"></path><path fill-rule="evenodd" clip-rule="evenodd" d="M18.4866 34.0717C16.4172 34.0717 14.7373 35.7517 14.7373 37.821C14.7373 39.8903 16.4172 41.5703 18.4866 41.5703C20.5559 41.5703 22.2358 39.8903 22.2358 37.821C22.2358 35.7517 20.5559 34.0717 18.4866 34.0717ZM18.4866 36.5712C19.1761 36.5712 19.7363 37.1314 19.7363 37.821C19.7363 38.5106 19.1761 39.0707 18.4866 39.0707C17.797 39.0707 17.2368 38.5106 17.2368 37.821C17.2368 37.1314 17.797 36.5712 18.4866 36.5712Z" fill="#0CB4C4"></path><path fill-rule="evenodd" clip-rule="evenodd" d="M43.4819 34.0717C41.4125 34.0717 39.7326 35.7517 39.7326 37.821C39.7326 39.8903 41.4125 41.5703 43.4819 41.5703C45.5512 41.5703 47.2311 39.8903 47.2311 37.821C47.2311 35.7517 45.5512 34.0717 43.4819 34.0717ZM43.4819 36.5712C44.1715 36.5712 44.7316 37.1314 44.7316 37.821C44.7316 38.5106 44.1715 39.0707 43.4819 39.0707C42.7923 39.0707 42.2321 38.5106 42.2321 37.821C42.2321 37.1314 42.7923 36.5712 43.4819 36.5712Z" fill="#0CB4C4"></path><path fill-rule="evenodd" clip-rule="evenodd" d="M23.4857 45.3229C21.4164 45.3229 19.7365 47.0029 19.7365 49.0722C19.7365 51.1415 21.4164 52.8215 23.4857 52.8215C25.5551 52.8215 27.235 51.1415 27.235 49.0722C27.235 47.0029 25.5551 45.3229 23.4857 45.3229ZM23.4857 47.8224C24.1753 47.8224 24.7355 48.3826 24.7355 49.0722C24.7355 49.7618 24.1753 50.3219 23.4857 50.3219C22.7961 50.3219 22.236 49.7618 22.236 49.0722C22.236 48.3826 22.7961 47.8224 23.4857 47.8224Z" fill="#0CB4C4"></path><path fill-rule="evenodd" clip-rule="evenodd" d="M38.4829 45.3229C36.4136 45.3229 34.7336 47.0029 34.7336 49.0722C34.7336 51.1415 36.4136 52.8215 38.4829 52.8215C40.5522 52.8215 42.2322 51.1415 42.2322 49.0722C42.2322 47.0029 40.5522 45.3229 38.4829 45.3229ZM38.4829 47.8224C39.1725 47.8224 39.7326 48.3826 39.7326 49.0722C39.7326 49.7618 39.1725 50.3219 38.4829 50.3219C37.7933 50.3219 37.2331 49.7618 37.2331 49.0722C37.2331 48.3826 37.7933 47.8224 38.4829 47.8224Z" fill="#0CB4C4"></path><path fill-rule="evenodd" clip-rule="evenodd" d="M23.4857 7.8267C21.4164 7.8267 19.7365 9.50666 19.7365 11.576C19.7365 13.6453 21.4164 15.3253 23.4857 15.3253C25.5551 15.3253 27.235 13.6453 27.235 11.576C27.235 9.50666 25.5551 7.8267 23.4857 7.8267ZM23.4857 10.3262C24.1753 10.3262 24.7355 10.8864 24.7355 11.576C24.7355 12.2656 24.1753 12.8257 23.4857 12.8257C22.7961 12.8257 22.236 12.2656 22.236 11.576C22.236 10.8864 22.7961 10.3262 23.4857 10.3262Z" fill="#0CB4C4"></path><path fill-rule="evenodd" clip-rule="evenodd" d="M38.4829 7.8267C36.4136 7.8267 34.7336 9.50666 34.7336 11.576C34.7336 13.6453 36.4136 15.3253 38.4829 15.3253C40.5522 15.3253 42.2322 13.6453 42.2322 11.576C42.2322 9.50666 40.5522 7.8267 38.4829 7.8267ZM38.4829 10.3262C39.1725 10.3262 39.7326 10.8864 39.7326 11.576C39.7326 12.2656 39.1725 12.8257 38.4829 12.8257C37.7933 12.8257 37.2331 12.2656 37.2331 11.576C37.2331 10.8864 37.7933 10.3262 38.4829 10.3262Z" fill="#0CB4C4"></path><path fill-rule="evenodd" clip-rule="evenodd" d="M16.8326 10.3268H20.9858C21.6754 10.3268 22.2356 10.887 22.2356 11.5766C22.2356 12.2662 21.6754 12.8264 20.9858 12.8264H15.9868C15.4757 12.8264 15.016 12.515 14.8268 12.0402L12.3273 5.79143C12.0712 5.15148 12.3825 4.42283 13.0236 4.16788C13.6636 3.91179 14.3922 4.22312 14.6471 4.86418L16.8332 10.3269L16.8326 10.3268Z" fill="#0CB4C4"></path><path fill-rule="evenodd" clip-rule="evenodd" d="M45.1358 10.3269L47.3218 4.86418C47.5768 4.22311 48.3055 3.91179 48.9454 4.16788C49.5865 4.42286 49.8978 5.15151 49.6417 5.79143L47.1422 12.0402C46.9536 12.515 46.4933 12.8264 45.9822 12.8264H40.9832C40.2936 12.8264 39.7334 12.2662 39.7334 11.5766C39.7334 10.887 40.2936 10.3268 40.9832 10.3268H45.1364L45.1358 10.3269Z" fill="#0CB4C4"></path><path fill-rule="evenodd" clip-rule="evenodd" d="M19.2594 50.3207L17.1058 54.6325C16.7972 55.2501 16.0457 55.5011 15.4287 55.1926C14.811 54.8841 14.5611 54.1325 14.8685 53.5166L17.368 48.5115C17.5806 48.088 18.0141 47.8202 18.4878 47.8202L20.9873 47.8224C21.6769 47.8235 22.2371 48.3837 22.236 49.0733C22.2348 49.7629 21.6747 50.3231 20.9851 50.3219L19.2594 50.3207Z" fill="#0CB4C4"></path><path fill-rule="evenodd" clip-rule="evenodd" d="M42.7091 50.32L40.9835 50.3211C40.2939 50.3222 39.7337 49.7626 39.7326 49.0725C39.7315 48.3829 40.2911 47.8227 40.9812 47.8216L43.4807 47.8194C43.9544 47.8194 44.3879 48.0866 44.6005 48.5106L47.1 53.5158C47.4074 54.1318 47.1575 54.8833 46.5399 55.1918C45.9222 55.5003 45.1713 55.2492 44.8628 54.6316L42.7091 50.32Z" fill="#0CB4C4"></path><path fill-rule="evenodd" clip-rule="evenodd" d="M11.6565 27.8235H14.7374C15.427 27.8235 15.9871 28.3836 15.9871 29.0732C15.9871 29.7628 15.427 30.323 14.7374 30.323H10.9881C10.5708 30.323 10.1796 30.1143 9.94811 29.7667L4.94907 22.2682C4.56688 21.6935 4.72142 20.9174 5.29499 20.5346C5.86965 20.1524 6.64573 20.307 7.02851 20.8805L11.6565 27.8228L11.6565 27.8235Z" fill="#0CB4C4"></path><path fill-rule="evenodd" clip-rule="evenodd" d="M50.3119 27.823L54.9399 20.8808C55.3221 20.3072 56.0981 20.1521 56.6734 20.5349C57.2469 20.9171 57.4021 21.6931 57.0193 22.2684L52.0203 29.767C51.7893 30.1146 51.3976 30.3232 50.9803 30.3232H47.231C46.5414 30.3232 45.9812 29.7631 45.9812 29.0735C45.9812 28.3839 46.5414 27.8237 47.231 27.8237H50.3118L50.3119 27.823Z" fill="#0CB4C4"></path><path fill-rule="evenodd" clip-rule="evenodd" d="M6.48894 41.3207L11.488 45.07C12.0403 45.4834 12.8242 45.3724 13.2376 44.82C13.6511 44.2677 13.54 43.4838 12.9877 43.0704L7.98865 39.3211C7.4363 38.9077 6.6524 39.0187 6.23898 39.571C5.82556 40.1234 5.93658 40.9073 6.48894 41.3207Z" fill="#0CB4C4"></path><path fill-rule="evenodd" clip-rule="evenodd" d="M53.9798 39.3211L48.9808 43.0704C48.4284 43.4838 48.3174 44.2677 48.7308 44.82C49.1442 45.3724 49.9281 45.4834 50.4805 45.07L55.4795 41.3207C56.0319 40.9073 56.1429 40.1234 55.7295 39.571C55.3161 39.0187 54.5322 38.9077 53.9798 39.3211Z" fill="#0CB4C4"></path></svg>