<svg xmlns="http://www.w3.org/2000/svg" xmlns:xlink="http://www.w3.org/1999/xlink" version="1.1" id="Layer_1" x="0px" y="0px" width="60px" height="60px" viewBox="0 0 60 60" enable-background="new 0 0 60 60" xml:space="preserve"><g><path fill="#0CB4C4" d="M59.64,25.985l-8.211-7.299V3.214c0-0.591-0.48-1.071-1.071-1.071h-8.571c-0.592,0-1.072,0.48-1.072,1.071 v5.947L30.712,0.271c-0.405-0.361-1.019-0.361-1.424,0L0.36,25.985c-0.443,0.394-0.482,1.07-0.09,1.512 c0.204,0.229,0.494,0.36,0.801,0.36h5.357v31.071C6.429,59.52,6.908,60,7.5,60h45c0.592,0,1.071-0.48,1.071-1.071V27.857h5.357 c0.591,0,1.071-0.48,1.071-1.072C60,26.48,59.869,26.188,59.64,25.985z M42.857,4.286h6.428V16.78l-6.428-5.714V4.286z M51.429,57.857H8.571v-30h42.857V57.857z M3.89,25.714L30,2.506l26.11,23.208H3.89z M21.455,42.23 c-0.018,0.22-0.026,0.425-0.026,0.627s0.009,0.407,0.028,0.626l-1.624,1.569c-0.354,0.342-0.43,0.879-0.185,1.306l2.143,3.711 c0.247,0.426,0.751,0.63,1.224,0.494l2.173-0.621c0.346,0.236,0.707,0.445,1.082,0.63l0.549,2.188 c0.118,0.477,0.548,0.812,1.039,0.812h4.285c0.491,0,0.921-0.335,1.04-0.812l0.548-2.188c0.375-0.185,0.736-0.394,1.083-0.63 l2.172,0.621c0.473,0.137,0.978-0.066,1.224-0.494l2.143-3.711c0.245-0.425,0.17-0.964-0.185-1.306l-1.623-1.569 c0.02-0.219,0.027-0.424,0.027-0.626s-0.008-0.407-0.027-0.627l1.623-1.569c0.354-0.342,0.43-0.879,0.185-1.306l-2.143-3.711 c-0.246-0.427-0.751-0.631-1.224-0.494l-2.172,0.621c-0.347-0.235-0.708-0.445-1.083-0.629l-0.548-2.188 c-0.119-0.478-0.549-0.813-1.04-0.813h-4.285c-0.491,0-0.921,0.335-1.039,0.813l-0.549,2.188c-0.375,0.184-0.736,0.394-1.082,0.629 l-2.173-0.621c-0.473-0.137-0.977,0.067-1.224,0.494l-2.143,3.711c-0.245,0.426-0.17,0.964,0.185,1.306L21.455,42.23z M23.64,43.741c-0.092-0.586-0.092-1.183,0-1.768c0.046-0.339-0.071-0.679-0.316-0.916l-1.4-1.354l1.307-2.263l1.871,0.536 c0.329,0.095,0.684,0.024,0.954-0.186c0.466-0.366,0.982-0.664,1.532-0.889c0.314-0.129,0.552-0.4,0.636-0.732l0.472-1.885h2.611 l0.472,1.883c0.084,0.332,0.321,0.604,0.636,0.734c0.55,0.223,1.066,0.521,1.532,0.887c0.271,0.211,0.625,0.279,0.954,0.186 l1.871-0.535l1.307,2.261l-1.4,1.354c-0.245,0.239-0.364,0.579-0.318,0.917c0.093,0.586,0.093,1.183,0,1.769 c-0.046,0.338,0.073,0.679,0.318,0.916l1.4,1.354l-1.307,2.261l-1.871-0.535c-0.329-0.092-0.684-0.023-0.954,0.186 c-0.466,0.365-0.982,0.665-1.532,0.889c-0.316,0.128-0.552,0.401-0.636,0.733l-0.472,1.884h-2.611l-0.472-1.884 c-0.084-0.332-0.319-0.604-0.636-0.733c-0.55-0.224-1.064-0.521-1.532-0.888c-0.271-0.209-0.625-0.278-0.954-0.186l-1.869,0.536 l-1.308-2.262l1.4-1.354c0.246-0.238,0.363-0.579,0.317-0.917H23.64z M30,47.143c2.366,0,4.286-1.919,4.286-4.285 s-1.92-4.286-4.286-4.286s-4.285,1.92-4.285,4.286C25.717,45.224,27.634,47.14,30,47.143z M30,40.714 c1.183,0,2.143,0.96,2.143,2.144C32.143,44.04,31.183,45,30,45s-2.143-0.96-2.143-2.143C27.858,41.674,28.817,40.716,30,40.714z"></path></g></svg>