<svg width="60" height="35" viewBox="0 0 60 35" fill="none" xmlns="http://www.w3.org/2000/svg">
<g clip-path="url(#clip0_4320_212)">
<path fill-rule="evenodd" clip-rule="evenodd" d="M49.4547 18.2983C48.4425 18.2983 47.4303 18.1815 46.457 17.9478C45.4836 17.7143 44.7245 17.4612 44.2184 17.1692C43.9069 16.994 43.6926 16.7994 43.6149 16.6241C43.537 16.449 43.4979 16.2543 43.4979 16.0793V15.0863C43.4979 14.6775 43.6538 14.4829 43.9458 14.4829C44.0626 14.4829 44.1793 14.5023 44.2963 14.5413C44.413 14.5802 44.5883 14.6581 44.7829 14.736C45.4445 15.028 46.165 15.2615 46.9242 15.4172C47.7028 15.573 48.4618 15.6509 49.2405 15.6509C50.4669 15.6509 51.4208 15.4368 52.0826 15.0087C52.7443 14.5802 53.0949 13.9573 53.0949 13.1594C53.0949 12.6142 52.9197 12.1664 52.5693 11.7968C52.219 11.4267 51.5571 11.0958 50.603 10.7844L47.7804 9.90833C46.3596 9.46085 45.3085 8.79883 44.6659 7.92282C44.0237 7.06631 43.6926 6.11247 43.6926 5.10024C43.6926 4.28285 43.868 3.56241 44.2184 2.93969C44.5686 2.31659 45.0359 1.77174 45.62 1.34328C46.2039 0.895764 46.8658 0.564642 47.6444 0.331049C48.423 0.0976509 49.2405 0.000320435 50.0971 0.000320435C50.5254 0.000320435 50.9731 0.0197865 51.4014 0.0779901C51.8491 0.136388 52.2576 0.214448 52.6666 0.292311C53.056 0.389642 53.4256 0.486973 53.7762 0.603768C54.1266 0.720371 54.3991 0.837167 54.5938 0.95396C54.8663 1.10969 55.061 1.26562 55.1778 1.44062C55.2946 1.59634 55.3529 1.81047 55.3529 2.083V2.9979C55.3529 3.40688 55.1972 3.62101 54.9052 3.62101C54.7495 3.62101 54.4965 3.54295 54.1656 3.38722C53.056 2.8811 51.8102 2.62824 50.428 2.62824C49.3185 2.62824 48.4425 2.80324 47.8391 3.1731C47.2356 3.54295 46.9242 4.10766 46.9242 4.90557C46.9242 5.45082 47.1188 5.91781 47.5081 6.28767C47.8974 6.65753 48.6177 7.02757 49.6494 7.3583L52.4136 8.23428C53.8151 8.68219 54.8274 9.30493 55.4308 10.103C56.0343 10.9011 56.3263 11.816 56.3263 12.8283C56.3263 13.6653 56.151 14.4247 55.8201 15.0863C55.4698 15.7482 55.0026 16.3321 54.3991 16.7994C53.7957 17.286 53.0754 17.6366 52.2384 17.8895C51.3624 18.1622 50.4475 18.2983 49.4547 18.2983ZM24.4409 17.7728C24.0905 17.7728 23.8569 17.7143 23.7011 17.578C23.5455 17.4612 23.4091 17.1887 23.2924 16.8188L18.7178 1.77174C18.601 1.38241 18.5427 1.12915 18.5427 0.99309C18.5427 0.681631 18.6984 0.506436 19.0098 0.506436H20.9175C21.2874 0.506436 21.5404 0.56464 21.6767 0.701097C21.8324 0.817699 21.9492 1.09042 22.066 1.46027L25.3363 14.3466L28.373 1.46027C28.4703 1.07096 28.5871 0.817699 28.7429 0.701097C28.8986 0.584301 29.1711 0.506436 29.5215 0.506436H31.0788C31.4486 0.506436 31.7017 0.56464 31.8574 0.701097C32.013 0.817699 32.1494 1.09042 32.2273 1.46027L35.3029 14.5023L38.6705 1.46027C38.7874 1.07096 38.9234 0.817699 39.0599 0.701097C39.2154 0.584301 39.4687 0.506436 39.8191 0.506436H41.6294C41.9407 0.506436 42.116 0.66197 42.116 0.99309C42.116 1.09042 42.0966 1.18775 42.0772 1.30435C42.0577 1.42115 42.0187 1.57707 41.9407 1.791L37.2495 16.8382C37.1327 17.2276 36.9965 17.4807 36.8407 17.5975C36.6848 17.7143 36.4319 17.7921 36.1008 17.7921H34.427C34.0569 17.7921 33.8041 17.7339 33.6483 17.5975C33.4926 17.4612 33.3563 17.2081 33.2783 16.8188L30.261 4.26319L27.2634 16.7994C27.1661 17.1887 27.0493 17.4419 26.8936 17.578C26.7379 17.7143 26.4653 17.7728 26.115 17.7728H24.4409ZM8.80942 15.6703C9.45175 15.6703 10.1136 15.5536 10.8144 15.3199C11.5152 15.0863 12.1381 14.6581 12.6636 14.0741C12.9751 13.7043 13.2087 13.2955 13.3255 12.8283C13.4423 12.3611 13.5202 11.7968 13.5202 11.1347V10.3171C12.9557 10.1809 12.3522 10.0641 11.7293 9.9862C11.1064 9.90833 10.5029 9.86939 9.89949 9.86939C8.59525 9.86939 7.64141 10.1225 6.99903 10.6481C6.35665 11.1737 6.0452 11.9134 6.0452 12.8867C6.0452 13.8016 6.27879 14.4829 6.76543 14.9501C7.23262 15.4368 7.91393 15.6703 8.80942 15.6703ZM16.7127 12.7115C16.7127 13.4317 16.7905 14.0157 16.9268 14.444C17.0825 14.8722 17.2771 15.3394 17.5497 15.8455C17.647 16.0012 17.6859 16.157 17.6859 16.2932C17.6859 16.4879 17.5691 16.6826 17.3161 16.8772L16.0898 17.6948C15.9145 17.8116 15.7393 17.8701 15.5836 17.8701C15.389 17.8701 15.1943 17.7728 14.9996 17.5975C14.7271 17.3055 14.4935 16.994 14.2988 16.6826C14.1042 16.3517 13.9095 15.982 13.6954 15.5341C12.177 17.3249 10.2694 18.2206 7.97238 18.2206C6.33723 18.2206 5.033 17.7531 4.07917 16.8188C3.12533 15.8847 2.63867 14.6386 2.63867 13.0813C2.63867 11.4267 3.22266 10.0836 4.41009 9.07148C5.59752 8.05907 7.17427 7.55296 9.17928 7.55296C9.84113 7.55296 10.5224 7.61155 11.2427 7.70888C11.9629 7.80621 12.7026 7.96174 13.4813 8.13694V6.71611C13.4813 5.23649 13.1698 4.20499 12.5664 3.60154C11.9435 2.99789 10.8923 2.7059 9.39339 2.7059C8.71209 2.7059 8.01131 2.78377 7.29106 2.95896C6.57083 3.13436 5.87005 3.34828 5.18873 3.621C4.87727 3.75707 4.64368 3.83493 4.50742 3.87387C4.37115 3.91299 4.27383 3.93227 4.19596 3.93227C3.92343 3.93227 3.78717 3.73761 3.78717 3.32901V2.37498C3.78717 2.06371 3.82611 1.82993 3.92343 1.69367C4.02077 1.5576 4.19596 1.42114 4.46849 1.28508C5.1498 0.934491 5.96737 0.642499 6.92121 0.4091C7.87505 0.155847 8.88729 0.0390503 9.95794 0.0390503C12.2744 0.0390503 13.9679 0.564634 15.0581 1.6158C16.1287 2.66697 16.6737 4.26319 16.6737 6.40446V12.7115H16.7127Z" fill="#201C1D"/>
<path fill-rule="evenodd" clip-rule="evenodd" d="M55.8005 24.7221C54.983 23.6711 50.389 24.216 48.3061 24.469C47.6832 24.5471 47.5858 24.002 48.1504 23.5931C51.81 21.0235 57.825 21.7634 58.5258 22.6197C59.2267 23.4958 58.3311 29.511 54.9051 32.3917C54.3795 32.8395 53.8736 32.6058 54.1069 32.0219C54.8856 30.0949 56.6181 25.754 55.8005 24.7221ZM53.1338 27.759C46.7295 32.4891 37.4248 35.0004 29.4241 35.0004C18.2116 35.0004 8.10874 30.8539 0.478041 23.9631C-0.125407 23.4181 0.419643 22.6782 1.13989 23.1064C9.39347 27.8953 19.5743 30.7955 30.1054 30.7955C37.2105 30.7955 45.0167 29.3163 52.1994 26.2794C53.27 25.7927 54.1849 26.9804 53.1338 27.759Z" fill="#F7A80D"/>
</g>
<defs>
<clipPath id="clip0_4320_212">
<rect width="59.5" height="35" fill="white"/>
</clipPath>
</defs>
</svg>
