<svg width="299" height="45" viewBox="0 0 299 45" fill="none" xmlns="http://www.w3.org/2000/svg">
<g clip-path="url(#clip0)">
<path d="M37.1616 5.46992C35.3008 3.60903 32.9888 2.25565 30.1692 1.35338C27.3497 0.451127 24.0226 0 20.1316 0H0V44.9436H20.1316C23.9662 44.9436 27.3497 44.4925 30.1692 43.5903C32.9888 42.688 35.3008 41.3347 37.1616 39.4736C39.0225 37.6128 40.3761 35.3008 41.2783 32.4811C42.1805 29.6617 42.6317 26.3345 42.6317 22.4435C42.6317 18.5526 42.1805 15.2256 41.2783 12.406C40.3761 9.58648 39.0225 7.27444 37.1616 5.46992ZM30.3385 28.7031C29.8871 30.3948 29.1542 31.7482 28.139 32.7632C27.124 33.7781 25.7707 34.5113 24.0789 34.9624C22.3872 35.4135 20.3572 35.6392 17.876 35.6392H11.109V9.3609H17.876C20.3572 9.3609 22.3872 9.58648 24.0789 10.0376C25.7707 10.4887 27.124 11.2218 28.139 12.2368C29.1542 13.2519 29.8871 14.6053 30.3385 16.297C30.7896 17.9887 31.015 20.0188 31.015 22.5001C31.015 24.9812 30.7896 27.0113 30.3385 28.7031Z" fill="#231E28"/>
<path d="M77.7631 15.2256C76.6352 14.0978 75.2255 13.252 73.4774 12.7444C71.7292 12.1805 69.6427 11.955 67.2744 11.955H49.3984V20.0753H66.7105C67.951 20.0753 68.7969 20.3571 69.3609 20.8648C69.8684 21.3723 70.1502 22.2746 70.1502 23.4586V23.8534H57.6879C54.248 23.8534 51.654 24.7556 49.8496 26.5603C48.0451 28.3648 47.1428 31.0152 47.1428 34.3987C47.1428 37.782 48.0451 40.376 49.8496 42.2368C51.654 44.0979 54.3044 44.9437 57.6879 44.9437H81.0902V25.7144C81.0902 23.2895 80.8082 21.2594 80.3007 19.5113C79.7367 17.7632 78.8908 16.3535 77.7631 15.2256ZM70.2631 36.9361H60.7894C59.9999 36.9361 59.3233 36.7106 58.8722 36.2595C58.4211 35.8084 58.1954 35.188 58.1954 34.3987C58.1954 33.5528 58.4211 32.9324 58.8722 32.4812C59.3233 32.0301 59.9435 31.8047 60.7894 31.8047H70.2631V36.9361Z" fill="#231E28"/>
<path d="M101.504 36.1464C101.053 35.6953 100.827 34.9621 100.827 33.8344V20.0749H110.978V11.9547H100.827V3.10132H89.8313V11.8983H85.2637V20.0186H89.8313V34.3983C89.8313 36.3157 90.0004 37.9509 90.3951 39.3042C90.7899 40.6578 91.3539 41.7291 92.1998 42.575C93.0455 43.4209 94.117 44.0411 95.4704 44.3795C96.8237 44.7743 98.4591 44.9434 100.376 44.9434H111.091V36.8232H103.816C102.689 36.8232 101.955 36.5975 101.504 36.1464Z" fill="#231E28"/>
<path d="M145.489 15.2256C144.361 14.0978 142.951 13.252 141.203 12.7444C139.455 12.1805 137.369 11.955 135 11.955H117.124V20.0753H134.436C135.677 20.0753 136.523 20.3571 137.086 20.8648C137.594 21.3723 137.876 22.2746 137.876 23.4586V23.8534H125.413C121.974 23.8534 119.38 24.7556 117.575 26.5603C115.771 28.3648 114.868 31.0152 114.868 34.3987C114.868 37.782 115.771 40.376 117.575 42.2368C119.38 44.0979 122.03 44.9437 125.413 44.9437H148.816V25.7144C148.816 23.2895 148.534 21.2594 148.026 19.5113C147.462 17.7632 146.617 16.3535 145.489 15.2256ZM137.932 36.9361H128.459C127.669 36.9361 126.993 36.7106 126.541 36.2595C126.09 35.8084 125.865 35.188 125.865 34.3987C125.865 33.5528 126.09 32.9324 126.541 32.4812C126.993 32.0301 127.613 31.8047 128.459 31.8047H137.932V36.9361Z" fill="#231E28"/>
<path d="M177.914 17.7068H169.511C168.158 17.7068 167.087 17.3684 166.41 16.6353C165.677 15.9023 165.338 14.8872 165.338 13.5338C165.338 12.1805 165.677 11.1654 166.41 10.4323C167.143 9.69925 168.158 9.3609 169.511 9.3609H189.643V0H167.087C162.575 0 159.192 1.12782 156.936 3.32706C154.68 5.52633 153.609 8.90978 153.609 13.4775C153.609 18.0451 154.737 21.4286 156.936 23.6842C159.136 25.9398 162.519 27.0677 167.087 27.0677H175.658C178.478 27.0677 179.944 28.4774 179.944 31.3534C179.944 34.2293 178.534 35.6392 175.658 35.6392H154.85V45H177.857C182.369 45 185.752 43.8721 188.065 41.5601C190.376 39.2481 191.561 35.8646 191.561 31.3534C191.561 26.842 190.376 23.4587 188.065 21.2031C185.752 18.9473 182.369 17.7068 177.914 17.7068Z" fill="#231E28"/>
<path d="M211.465 36.1464C211.016 35.6953 210.789 34.9621 210.789 33.8344V20.0749H220.939V11.9547H210.789V3.10132H199.793V11.8983H195.226V20.0186H199.793V34.3983C199.793 36.3157 199.962 37.9509 200.357 39.3042C200.752 40.6578 201.315 41.7291 202.162 42.575C203.006 43.4209 204.079 44.0411 205.432 44.3795C206.785 44.7743 208.42 44.9434 210.338 44.9434H221.053V36.8232H213.778C212.707 36.8232 211.917 36.5975 211.465 36.1464Z" fill="#231E28"/>
<path d="M255.45 15.2256C254.323 14.0978 252.913 13.252 251.165 12.7444C249.416 12.1805 247.33 11.955 244.961 11.955H227.087V20.0753H244.398C245.639 20.0753 246.486 20.3571 247.049 20.8648C247.557 21.3723 247.838 22.2746 247.838 23.4586V23.8534H235.375C231.935 23.8534 229.342 24.7556 227.538 26.5603C225.733 28.3648 224.83 31.0152 224.83 34.3987C224.83 37.782 225.733 40.376 227.538 42.2368C229.342 44.0979 231.993 44.9437 235.375 44.9437H258.778V25.7144C258.778 23.2895 258.497 21.2594 257.989 19.5113C257.424 17.7632 256.579 16.3535 255.45 15.2256ZM247.894 36.9361H238.42C237.632 36.9361 236.954 36.7106 236.504 36.2595C236.053 35.8084 235.827 35.188 235.827 34.3987C235.827 33.5528 236.053 32.9324 236.504 32.4812C236.954 32.0301 237.576 31.8047 238.42 31.8047H247.894V36.9361Z" fill="#231E28"/>
<path d="M286.58 28.3084L298.759 11.955H287.031L280.319 21.485L273.61 11.955H261.428L273.61 28.3084L260.752 44.9437H273.046L279.982 35.0752L286.86 44.9437H299.437L286.58 28.3084Z" fill="#231E28"/>
</g>
<defs>
<clipPath id="clip0">
<rect width="299" height="45" fill="white"/>
</clipPath>
</defs>
</svg>
