<svg width="160" height="52" viewBox="0 0 160 52" fill="none" xmlns="http://www.w3.org/2000/svg">
<path fill-rule="evenodd" clip-rule="evenodd" d="M6.0577 34.4085C2.02451 30.4571 0 25.7076 0 20.1678C0 14.628 2.0166 9.87842 6.0577 5.92705C10.0909 1.97568 14.8991 0 20.4823 0C25.8283 0 30.4467 1.84924 34.3138 5.55562L30.4229 9.44377C27.6313 6.82006 24.3178 5.50821 20.4823 5.50821C16.4491 5.50821 13.0248 6.9307 10.2174 9.79149C7.41 12.6444 6.01025 16.1058 6.01025 20.1678C6.01025 24.2377 7.41 27.6912 10.2174 30.5441C13.0248 33.397 16.4412 34.8274 20.4823 34.8274C24.5867 34.8274 27.9793 33.4839 30.676 30.7891C32.2814 29.1848 33.2857 26.8693 33.6811 23.8505H20.4902V18.3422H39.0508C39.2485 19.3222 39.3434 20.476 39.3434 21.7878C39.3434 27.2012 37.7539 31.4924 34.5668 34.6772C30.9528 38.4547 26.2632 40.3356 20.4823 40.3356C14.8991 40.3356 10.0988 38.3599 6.0577 34.4085ZM63.6138 36.6213C61.0831 39.0948 57.9989 40.3356 54.3611 40.3356C50.7233 40.3356 47.6312 39.0948 45.1085 36.6213C42.5779 34.1477 41.3205 31.0577 41.3205 27.3514C41.3205 23.645 42.5858 20.555 45.1085 18.0815C47.6391 15.6079 50.7233 14.3672 54.3611 14.3672C57.9989 14.3672 61.091 15.6079 63.6138 18.0815C66.1444 20.555 67.4018 23.6529 67.4018 27.3514C67.4018 31.0577 66.1365 34.1477 63.6138 36.6213ZM49.1892 32.986C50.6364 34.4796 52.3524 35.2225 54.3611 35.2225C56.3619 35.2225 58.0859 34.4796 59.5331 32.986C60.9803 31.4924 61.7 29.6195 61.7 27.3514C61.7 25.0596 60.9882 23.1708 59.5568 21.693C58.1254 20.2152 56.4014 19.4802 54.3611 19.4802C52.3287 19.4802 50.5968 20.2152 49.1654 21.693C47.734 23.1708 47.0223 25.0517 47.0223 27.3514C47.0223 29.6115 47.7419 31.4924 49.1892 32.986ZM92.0675 36.6213C89.5369 39.0948 86.4527 40.3356 82.8149 40.3356C79.1771 40.3356 76.085 39.0948 73.5623 36.6213C71.0317 34.1477 69.7743 31.0577 69.7743 27.3514C69.7743 23.645 71.0396 20.555 73.5623 18.0815C76.085 15.6079 79.1771 14.3672 82.8149 14.3672C86.4527 14.3672 89.5448 15.6079 92.0675 18.0815C94.5982 20.555 95.8556 23.6529 95.8556 27.3514C95.8556 31.0577 94.5903 34.1477 92.0675 36.6213ZM77.6429 32.986C79.0901 34.4796 80.8062 35.2225 82.8149 35.2225C84.8157 35.2225 86.5397 34.4796 87.9869 32.986C89.4341 31.4924 90.1537 29.6195 90.1537 27.3514C90.1537 25.0596 89.442 23.1708 88.0106 21.693C86.5792 20.2152 84.8552 19.4802 82.8149 19.4802C80.7825 19.4802 79.0506 20.2152 77.6192 21.693C76.1878 23.1708 75.4761 25.0517 75.4761 27.3514C75.4761 29.6115 76.1957 31.4924 77.6429 32.986ZM110.77 52C107.884 52 105.456 51.2255 103.487 49.6845C101.518 48.1435 100.11 46.3574 99.2561 44.3185L104.23 42.2559C104.752 43.5046 105.575 44.5872 106.69 45.504C107.805 46.4207 109.165 46.879 110.778 46.879C112.945 46.879 114.646 46.2231 115.871 44.9112C117.105 43.5994 117.714 41.7106 117.714 39.2529V37.3799H117.516C115.911 39.3477 113.625 40.3356 110.676 40.3356C107.362 40.3356 104.46 39.0711 101.961 36.5502C99.4696 34.0292 98.2201 30.9787 98.2201 27.3988C98.2201 23.7951 99.4696 20.7131 101.961 18.1763C104.452 15.6395 107.362 14.3672 110.676 14.3672C112.154 14.3672 113.491 14.6438 114.685 15.2049C115.879 15.766 116.828 16.4535 117.516 17.2675H117.714V15.1495H123.131V38.4705C123.131 42.9988 121.976 46.3812 119.659 48.6334C117.342 50.8699 114.385 52 110.77 52ZM111.166 35.2225C113.135 35.2225 114.788 34.4796 116.116 32.986C117.445 31.4924 118.109 29.6353 118.109 27.3988C118.109 25.1386 117.445 23.2498 116.116 21.7404C114.788 20.231 113.135 19.4802 111.166 19.4802C109.165 19.4802 107.457 20.2389 106.049 21.7404C104.634 23.2498 103.93 25.1307 103.93 27.3988C103.93 29.6274 104.634 31.4924 106.049 32.986C107.457 34.4796 109.165 35.2225 111.166 35.2225ZM132.779 1.37508V39.5532H127.069V1.37508H132.779ZM148.429 40.3356C144.752 40.3356 141.684 39.0869 139.224 36.5976C136.765 34.1082 135.531 31.0261 135.531 27.3514C135.531 23.5502 136.717 20.4286 139.098 18.0024C141.478 15.5763 144.373 14.3593 147.789 14.3593C149.363 14.3593 150.826 14.6438 152.17 15.2207C153.514 15.7976 154.629 16.5325 155.515 17.4334C156.401 18.3343 157.105 19.2116 157.635 20.065C158.157 20.9185 158.584 21.772 158.916 22.6255L159.509 24.1033L142.135 31.2869C143.479 33.9106 145.582 35.2225 148.437 35.2225C151.063 35.2225 153.198 34.0292 154.835 31.6347L159.264 34.5903C158.275 36.0681 156.883 37.3957 155.08 38.5733C153.269 39.7508 151.055 40.3356 148.429 40.3356ZM141.193 26.9562L152.811 22.1356C152.478 21.3137 151.877 20.6498 150.992 20.1441C150.106 19.6383 149.102 19.3854 147.987 19.3854C146.31 19.3854 144.744 20.0729 143.289 21.448C141.826 22.8231 141.13 24.6644 141.193 26.9562Z" fill="#FBBB04"/>
<path fill-rule="evenodd" clip-rule="evenodd" d="M63.6162 36.621C61.0855 39.0946 58.0013 40.3353 54.3635 40.3353C50.7258 40.3353 47.6336 39.0946 45.1109 36.621C42.5803 34.1474 41.3229 31.0575 41.3229 27.3511C41.3229 23.6447 42.5882 20.5548 45.1109 18.0812C47.6415 15.6076 50.7258 14.3669 54.3635 14.3669C58.0013 14.3669 61.0934 15.6076 63.6162 18.0812C66.1468 20.5548 67.4042 23.6526 67.4042 27.3511C67.4042 31.0575 66.1389 34.1474 63.6162 36.621ZM49.1916 32.9857C50.6388 34.4794 52.3548 35.2222 54.3635 35.2222C56.3643 35.2222 58.0883 34.4794 59.5355 32.9857C60.9827 31.4921 61.7024 29.6192 61.7024 27.3511C61.7024 25.0593 60.9906 23.1706 59.5592 21.6927C58.1278 20.2149 56.4039 19.48 54.3635 19.48C52.3311 19.48 50.5992 20.2149 49.1678 21.6927C47.7364 23.1706 47.0247 25.0514 47.0247 27.3511C47.0247 29.6113 47.7444 31.4921 49.1916 32.9857ZM148.432 40.3353C144.755 40.3353 141.686 39.0867 139.227 36.5973C136.767 34.1079 135.534 31.0259 135.534 27.3511C135.534 23.5499 136.72 20.4283 139.1 18.0022C141.481 15.576 144.375 14.359 147.791 14.359C149.365 14.359 150.828 14.6435 152.172 15.2204C153.517 15.7973 154.632 16.5323 155.518 17.4332C156.403 18.3341 157.107 19.2113 157.637 20.0648C158.159 20.9183 158.586 21.7718 158.918 22.6253L159.511 24.1031L142.137 31.2867C143.481 33.9104 145.585 35.2222 148.44 35.2222C151.065 35.2222 153.201 34.0289 154.838 31.6344L159.266 34.59C158.278 36.0678 156.886 37.3955 155.083 38.573C153.272 39.7505 151.057 40.3353 148.432 40.3353ZM141.196 26.956L152.813 22.1353C152.481 21.3134 151.88 20.6496 150.994 20.1438C150.108 19.638 149.104 19.3851 147.989 19.3851C146.312 19.3851 144.747 20.0727 143.292 21.4478C141.828 22.8228 141.133 24.6642 141.196 26.956Z" fill="#EB4337"/>
<path fill-rule="evenodd" clip-rule="evenodd" d="M6.0577 34.4085C2.0245 30.4571 0 25.7076 0 20.1678C0 14.628 2.0166 9.87842 6.0577 5.92705C10.0909 1.97568 14.8991 0 20.4823 0C25.8283 0 30.4467 1.84924 34.3138 5.55562L30.4229 9.44377C27.6313 6.82006 24.3178 5.50821 20.4823 5.50821C16.4491 5.50821 13.0248 6.9307 10.2174 9.79149C7.41 12.6444 6.01025 16.1058 6.01025 20.1678C6.01025 24.2377 7.41 27.6912 10.2174 30.5441C13.0248 33.397 16.4412 34.8274 20.4823 34.8274C24.5867 34.8274 27.9793 33.4839 30.676 30.7891C32.2814 29.1848 33.2857 26.8693 33.6811 23.8505H20.4902V18.3422H39.0508C39.2485 19.3222 39.3434 20.476 39.3434 21.7878C39.3434 27.2012 37.7538 31.4924 34.5668 34.6772C30.9528 38.4547 26.2632 40.3356 20.4823 40.3356C14.8991 40.3356 10.0988 38.3599 6.0577 34.4085ZM110.77 52C107.884 52 105.456 51.2255 103.487 49.6845C101.518 48.1435 100.11 46.3574 99.2561 44.3185L104.23 42.2559C104.752 43.5046 105.575 44.5872 106.69 45.504C107.805 46.4207 109.165 46.879 110.778 46.879C112.945 46.879 114.645 46.2231 115.871 44.9112C117.105 43.5994 117.714 41.7106 117.714 39.2529V37.3799H117.516C115.911 39.3477 113.625 40.3356 110.676 40.3356C107.362 40.3356 104.46 39.0711 101.961 36.5502C99.4696 34.0292 98.2201 30.9787 98.2201 27.3988C98.2201 23.7951 99.4696 20.7131 101.961 18.1763C104.452 15.6395 107.362 14.3672 110.676 14.3672C112.154 14.3672 113.491 14.6438 114.685 15.2049C115.879 15.766 116.828 16.4535 117.516 17.2675H117.714V15.1495H123.131V38.4705C123.131 42.9988 121.976 46.3812 119.659 48.6334C117.342 50.8699 114.385 52 110.77 52ZM111.166 35.2225C113.135 35.2225 114.788 34.4796 116.116 32.986C117.445 31.4924 118.109 29.6353 118.109 27.3988C118.109 25.1386 117.445 23.2498 116.116 21.7404C114.788 20.231 113.135 19.4802 111.166 19.4802C109.165 19.4802 107.457 20.2389 106.049 21.7404C104.634 23.2498 103.93 25.1307 103.93 27.3988C103.93 29.6274 104.634 31.4924 106.049 32.986C107.457 34.4796 109.165 35.2225 111.166 35.2225ZM132.779 1.37508V39.5532H127.069V1.37508H132.779Z" fill="#4285F4"/>
<path fill-rule="evenodd" clip-rule="evenodd" d="M132.782 1.37305V39.5512H127.072V1.37305H132.782Z" fill="#35A752"/>
</svg>
