<?xml version="1.0" encoding="UTF-8"?>
<svg width="220px" height="52px" viewBox="0 0 220 52" version="1.1" xmlns="http://www.w3.org/2000/svg" xmlns:xlink="http://www.w3.org/1999/xlink">
    <title>Red Hat</title>
    <g id="Red-Hat" stroke="none" stroke-width="1" fill="none" fill-rule="evenodd">
        <g id="logo" fill-rule="nonzero">
            <path d="M46.0253743,29.9686111 C50.5601261,29.9686111 57.1211978,29.0369444 57.1211978,23.6636111 C57.1347555,23.2489105 57.0970144,22.8341242 57.0088258,22.4286111 L54.3082742,10.7430556 C53.6847912,8.17194444 53.137431,7.00555556 48.6063042,4.74861111 C45.0901497,2.9575 37.4307329,0 35.1651694,0 C33.0554768,0 32.4428684,2.70833333 29.9271868,2.70833333 C27.5057526,2.70833333 25.7078014,0.686111111 23.442238,0.686111111 C21.2672971,0.686111111 19.8499606,2.16305556 18.7552403,5.2 C18.7552403,5.2 15.7066982,13.7655556 15.3152088,15.0077778 C15.252985,15.235891 15.2260924,15.4721323 15.235461,15.7083333 C15.235461,19.0377778 28.3938534,29.9541667 46.0253743,29.9541667 M57.8171789,25.8447222 C58.4442868,28.8022222 58.4442868,29.1127778 58.4442868,29.5027778 C58.4442868,34.5583333 52.7386919,37.3641667 45.2387707,37.3641667 C28.2887313,37.375 13.4411348,27.4805556 13.4411348,20.9408333 C13.4401549,20.0305326 13.6264401,19.129688 13.9884949,18.2938889 C7.89141056,18.5972222 0,19.6805556 0,26.6211111 C0,37.9888889 27.0381403,52 48.4468085,52 C64.8603625,52 69,44.6044444 69,38.7652778 C69,34.1719444 65.0126084,28.9575 57.8244287,25.8447222" id="Shape" fill="#EE0000"></path>
            <path d="M208.355335,33.5626435 C208.355335,37.8101557 210.909303,39.8749681 215.567169,39.8749681 C217.001259,39.8392615 218.426415,39.6378737 219.814257,39.274815 L219.814257,34.3485583 C218.927214,34.6296972 218.001471,34.7695368 217.070974,34.7629497 C215.152819,34.7629497 214.441994,34.1627966 214.441994,32.358765 L214.441994,24.8104108 L220,24.8104108 L220,19.7376882 L214.441994,19.7376882 L214.441994,13.3074764 L208.369623,14.6220975 L208.369623,19.7376882 L204.336854,19.7376882 L204.336854,24.8104108 L208.355335,24.8104108 L208.355335,33.5626435 Z M189.423824,33.6769584 C189.423824,32.3623373 190.741885,31.7228885 192.73148,31.7228885 C193.947599,31.7299582 195.158601,31.8810488 196.339183,32.1730033 L196.339183,34.7272263 C195.175748,35.3627552 193.867687,35.6864187 192.542165,35.6667517 C190.591862,35.6667517 189.423824,34.9165603 189.423824,33.6769584 M191.281255,39.9499872 C193.424445,39.9499872 195.153285,39.4998724 196.767821,38.4103088 L196.767821,39.6141873 L202.775897,39.6141873 L202.775897,26.8752233 C202.775897,22.0311304 199.511104,19.3733095 194.06383,19.3733095 C191.0205,19.3733095 188.01289,20.0877775 184.776673,21.5524368 L186.955583,26.0250064 C189.284516,25.0461853 191.241963,24.4460322 192.967231,24.4460322 C195.467619,24.4460322 196.760677,25.4212809 196.760677,27.4146466 L196.760677,28.3898954 C195.288561,28.0087891 193.773459,27.8190823 192.252834,27.8254657 C187.141326,27.8254657 184.062277,29.9688696 184.062277,33.8019903 C184.062277,37.2957387 186.84128,39.9607043 191.274111,39.9607043 M158.254698,39.6249043 L164.716416,39.6249043 L164.716416,29.3187038 L175.535953,29.3187038 L175.535953,39.6141873 L182.01553,39.6141873 L182.01553,13.3146211 L175.560957,13.3146211 L175.560957,23.4207706 L164.741419,23.4207706 L164.741419,13.3146211 L158.279702,13.3146211 L158.254698,39.6249043 Z M133.658021,29.658076 C133.658021,26.8002041 135.911943,24.6210768 138.880261,24.6210768 C140.42456,24.5897638 141.924113,25.140675 143.080913,26.1643276 L143.080913,33.1125287 C141.948915,34.1821913 140.436821,34.7557129 138.880261,34.7057923 C135.951235,34.7057923 133.658021,32.526665 133.658021,29.6723654 M143.163069,39.6284767 L149.174717,39.6284767 L149.174717,12 L143.102345,13.3146211 L143.102345,20.7915285 C141.556527,19.9150862 139.807014,19.461646 138.030129,19.4769074 C132.247088,19.4769074 127.699953,23.9459046 127.699953,29.658076 C127.666371,32.3655171 128.72205,34.9728914 130.629727,36.8941947 C132.537404,38.815498 135.137046,39.8895533 137.844386,39.8751147 C139.760665,39.8841084 141.629538,39.2794495 143.177357,38.1495279 L143.163069,39.6284767 Z M115.576642,24.3460066 C117.491225,24.3460066 119.105762,25.5856086 119.745147,27.5003828 L111.458146,27.5003828 C112.058239,25.5248788 113.562044,24.3460066 115.576642,24.3460066 M105.335766,29.7045165 C105.335766,35.4917071 110.068644,40 116.151732,40 C119.495108,40 121.938344,39.096198 124.456593,36.9920898 L120.43454,33.4197499 C119.495108,34.3985711 118.105606,34.923705 116.45535,34.923705 C114.331139,34.9835404 112.389112,33.729899 111.568877,31.7693289 L125.731791,31.7693289 L125.731791,30.2582291 C125.731791,23.9459046 121.488275,19.4018882 115.701662,19.4018882 C112.953642,19.36042 110.305058,20.4292059 108.355317,22.3663661 C106.405576,24.3035262 105.31951,26.9452925 105.34291,29.6937994 M94.8591396,18.8374585 C97.0023296,18.8374585 98.2025159,20.187803 98.2025159,21.806073 C98.2025159,23.4243429 97.0023296,24.7746874 94.8591396,24.7746874 L88.4688616,24.7746874 L88.4688616,18.8374585 L94.8591396,18.8374585 Z M82,39.6141873 L88.4617177,39.6141873 L88.4617177,30.0331717 L93.3803386,30.0331717 L98.3418233,39.6141873 L105.575089,39.6141873 L99.7884765,29.0936463 C102.797059,27.8699454 104.759632,24.9399338 104.746389,21.6917581 C104.746389,16.9584078 101.027955,13.3146211 95.4592328,13.3146211 L82,13.3146211 L82,39.6141873 Z" id="Shape" fill="#000000"></path>
        </g>
    </g>
</svg>