<svg xmlns="http://www.w3.org/2000/svg" width="60" height="60" viewBox="0 0 60 60" fill="none"><title>AWS Managed Database Services</title><path d="M17.7352 10.7061C16.2827 10.7555 14.8808 11.2511 13.72 12.1255C12.5593 13 11.6961 14.2108 11.2479 15.5933C11.2062 15.7178 11.1895 15.8494 11.1988 15.9804C11.208 16.1114 11.2429 16.2393 11.3016 16.3568C11.3603 16.4743 11.4415 16.5791 11.5407 16.6651C11.6399 16.7512 11.7551 16.8169 11.8797 16.8584C12.1314 16.9366 12.4035 16.9144 12.6392 16.7966C12.8749 16.6787 13.0559 16.4743 13.1444 16.2261C13.4616 15.2344 14.0765 14.3645 14.9056 13.7347C15.7347 13.1048 16.7377 12.7457 17.7782 12.7061C18.0434 12.7003 18.2955 12.5893 18.479 12.3977C18.6625 12.206 18.7624 11.9494 18.7567 11.6841C18.7459 11.4206 18.6334 11.1716 18.443 10.9893C18.2525 10.8069 17.9989 10.7054 17.7352 10.7061Z" fill="#0CB4C4"></path><path d="M59 53H58V40C58 39.8687 57.9742 39.7386 57.924 39.6173C57.8737 39.4959 57.8 39.3857 57.7072 39.2928C57.6143 39.2 57.5041 39.1263 57.3827 39.076C57.2614 39.0258 57.1313 39 57 39H48V34C48 33.8687 47.9742 33.7386 47.924 33.6173C47.8737 33.4959 47.8 33.3857 47.7072 33.2928C47.6143 33.2 47.5041 33.1263 47.3827 33.076C47.2614 33.0258 47.1313 33 47 33H37V28H49.0742C50.8213 27.9531 52.4785 27.2157 53.6829 25.9493C54.8873 24.6829 55.5407 22.9908 55.5 21.2437C55.4876 20.1051 55.2155 18.9843 54.7044 17.9668C54.1933 16.9493 53.4567 16.0618 52.5508 15.3721C51.5036 14.6144 50.2165 14.2638 48.9297 14.3857C48.8714 13.2367 48.5609 12.1145 48.0203 11.0988C47.4798 10.0832 46.7223 9.19891 45.8018 8.50874C44.7434 7.65481 43.5035 7.05463 42.1772 6.75425C40.8509 6.45386 39.4734 6.46124 38.1504 6.77583C37.4717 4.82273 36.2092 3.12533 34.534 1.9134C32.8587 0.70147 30.8516 0.033531 28.7842 0C26.6492 0.0468998 24.583 0.763948 22.878 2.04969C21.1729 3.33544 19.9154 5.12478 19.2832 7.16455C17.9831 6.80194 16.6188 6.73189 15.2884 6.95942C13.958 7.18695 12.6945 7.70641 11.5888 8.48047C10.4518 9.27279 9.50679 10.3098 8.8232 11.5154C8.13961 12.7209 7.73484 14.0643 7.63864 15.4468C6.66963 16.0705 5.87387 16.9289 5.32518 17.9423C4.77649 18.9557 4.49265 20.0913 4.5 21.2437C4.45928 22.9908 5.11269 24.6829 6.3171 25.9493C7.52152 27.2157 9.17875 27.9531 10.9258 28H23V33H13C12.8687 33 12.7386 33.0258 12.6173 33.076C12.4959 33.1263 12.3857 33.2 12.2928 33.2928C12.2 33.3857 12.1263 33.4959 12.0761 33.6173C12.0258 33.7386 12 33.8687 12 34V39H3C2.86867 39 2.73862 39.0258 2.61728 39.076C2.49594 39.1263 2.38568 39.2 2.29282 39.2928C2.19995 39.3857 2.12629 39.4959 2.07605 39.6173C2.02581 39.7386 1.99997 39.8687 2 40V53H1C0.868669 53 0.738617 53.0258 0.617276 53.076C0.495935 53.1263 0.385683 53.2 0.292817 53.2928C0.199952 53.3857 0.126294 53.4959 0.076051 53.6173C0.0258084 53.7386 -3.41257e-05 53.8687 3.38206e-08 54V56.9165C0.000831051 57.734 0.325897 58.5177 0.903877 59.0958C1.48186 59.6738 2.26555 59.999 3.083 60H22.917C23.7345 59.999 24.5181 59.6738 25.0961 59.0958C25.6741 58.5177 25.9992 57.734 26 56.9165V54C26 53.8687 25.9742 53.7386 25.9239 53.6173C25.8737 53.4959 25.8 53.3857 25.7072 53.2928C25.6143 53.2 25.5041 53.1263 25.3827 53.076C25.2614 53.0258 25.1313 53 25 53H24V40C24 39.8687 23.9742 39.7386 23.9239 39.6173C23.8737 39.4959 23.8 39.3857 23.7072 39.2928C23.6143 39.2 23.5041 39.1263 23.3827 39.076C23.2614 39.0258 23.1313 39 23 39H14V35H24C24.1313 35 24.2614 34.9742 24.3827 34.924C24.5041 34.8737 24.6143 34.8 24.7072 34.7072C24.8 34.6143 24.8737 34.5041 24.9239 34.3827C24.9742 34.2614 25 34.1313 25 34V28H35V34C35 34.1313 35.0258 34.2614 35.076 34.3827C35.1263 34.5041 35.2 34.6143 35.2928 34.7072C35.3857 34.8 35.4959 34.8737 35.6173 34.924C35.7386 34.9742 35.8687 35 36 35H46V39H37C36.8687 39 36.7386 39.0258 36.6173 39.076C36.4959 39.1263 36.3857 39.2 36.2928 39.2928C36.2 39.3857 36.1263 39.4959 36.076 39.6173C36.0258 39.7386 36 39.8687 36 40V53H35C34.8687 53 34.7386 53.0258 34.6173 53.076C34.4959 53.1263 34.3857 53.2 34.2928 53.2928C34.2 53.3857 34.1263 53.4959 34.076 53.6173C34.0258 53.7386 34 53.8687 34 54V56.9165C34.0008 57.734 34.3259 58.5177 34.9039 59.0958C35.4819 59.6738 36.2655 59.999 37.083 60H56.917C57.7345 59.999 58.5181 59.6738 59.0961 59.0958C59.6741 58.5177 59.9992 57.734 60 56.9165V54C60 53.8687 59.9742 53.7386 59.924 53.6173C59.8737 53.4959 59.8 53.3857 59.7072 53.2928C59.6143 53.2 59.5041 53.1263 59.3827 53.076C59.2614 53.0258 59.1313 53 59 53ZM24 56.9165C23.9997 57.2037 23.8855 57.479 23.6825 57.6821C23.4795 57.8853 23.2042 57.9996 22.917 58H3.083C2.79582 57.9996 2.52053 57.8853 2.31751 57.6821C2.11449 57.479 2.00031 57.2037 2 56.9165V55H9C8.99997 55.1313 9.02581 55.2614 9.07605 55.3827C9.12629 55.5041 9.19995 55.6143 9.29282 55.7072C9.38568 55.8 9.49594 55.8737 9.61728 55.924C9.73862 55.9742 9.86867 56 10 56H16C16.1313 56 16.2614 55.9742 16.3827 55.924C16.5041 55.8737 16.6143 55.8 16.7072 55.7072C16.8 55.6143 16.8737 55.5041 16.9239 55.3827C16.9742 55.2614 17 55.1313 17 55H24V56.9165ZM22 53H16C15.8687 53 15.7386 53.0258 15.6173 53.076C15.4959 53.1263 15.3857 53.2 15.2928 53.2928C15.2 53.3857 15.1263 53.4959 15.0761 53.6173C15.0258 53.7386 15 53.8687 15 54H11C11 53.8687 10.9742 53.7386 10.9239 53.6173C10.8737 53.4959 10.8 53.3857 10.7072 53.2928C10.6143 53.2 10.5041 53.1263 10.3827 53.076C10.2614 53.0258 10.1313 53 10 53H4V41H22V53ZM6.5 21.2437C6.48759 20.3595 6.72049 19.4893 7.17285 18.7295C7.6252 17.9698 8.2793 17.3503 9.06249 16.9399C9.22962 16.8573 9.37031 16.7295 9.46867 16.5711C9.56703 16.4127 9.61915 16.2299 9.61914 16.0435C9.63313 14.8797 9.92297 13.7358 10.4648 12.7058C11.0067 11.6758 11.7852 10.7889 12.7363 10.1182C13.7169 9.39347 14.8722 8.94197 16.0844 8.80978C17.2965 8.67759 18.522 8.86943 19.6357 9.36573C19.7698 9.41437 19.9127 9.43378 20.0549 9.42265C20.1971 9.41153 20.3352 9.37012 20.4601 9.30122C20.5849 9.23232 20.6936 9.13751 20.7788 9.02315C20.864 8.9088 20.9238 8.77754 20.9541 8.63819C21.3141 6.80828 22.2849 5.15489 23.7075 3.94887C25.1301 2.74285 26.92 2.0557 28.7842 2C30.5913 2.04373 32.3327 2.68633 33.735 3.82691C35.1374 4.96749 36.1212 6.54147 36.5322 8.30176C36.5683 8.44131 36.6341 8.57141 36.7251 8.68317C36.8162 8.79493 36.9303 8.8857 37.0596 8.94927C37.189 9.01284 37.3306 9.04771 37.4747 9.05149C37.6187 9.05527 37.762 9.02788 37.8945 8.97119C39.0044 8.54899 40.2066 8.429 41.3781 8.62348C42.5496 8.81795 43.6485 9.31993 44.5625 10.0781C45.3997 10.683 46.056 11.5048 46.4607 12.455C46.8655 13.4053 47.0033 14.4479 46.8594 15.4707C46.8299 15.6421 46.8456 15.8183 46.9049 15.9818C46.9643 16.1453 47.0653 16.2905 47.1979 16.403C47.3305 16.5156 47.4902 16.5916 47.6612 16.6236C47.8321 16.6556 48.0085 16.6424 48.1729 16.5854C48.7011 16.3784 49.273 16.3079 49.8357 16.3808C50.3983 16.4536 50.9335 16.6672 51.3916 17.0019C52.0384 17.5059 52.5636 18.1487 52.9286 18.8828C53.2935 19.617 53.4888 20.4238 53.5 21.2437C53.5408 22.4605 53.0982 23.644 52.2688 24.5353C51.4394 25.4266 50.2908 25.9532 49.0742 26H33V21.9741C34.2525 21.3817 35.3006 20.4303 36.0111 19.2409C36.7216 18.0515 37.0626 16.6777 36.9906 15.2941C36.9186 13.9105 36.4369 12.5795 35.6067 11.4703C34.7765 10.361 33.6353 9.52363 32.3281 9.06445C32.1775 9.01212 32.0165 8.99658 31.8586 9.01913C31.7007 9.04168 31.5505 9.10167 31.4205 9.1941C31.2905 9.28652 31.1845 9.40869 31.1114 9.55041C31.0382 9.69213 31 9.8493 31 10.0088V14.6592H29V10.0088C29 9.8493 28.9618 9.69214 28.8886 9.55042C28.8155 9.40869 28.7095 9.28652 28.5795 9.1941C28.4495 9.10168 28.2993 9.04169 28.1414 9.01914C27.9835 8.99658 27.8225 9.01212 27.6719 9.06445C26.3647 9.52362 25.2235 10.361 24.3933 11.4703C23.5631 12.5795 23.0814 13.9105 23.0094 15.2941C22.9374 16.6777 23.2784 18.0515 23.9889 19.2409C24.6994 20.4303 25.7475 21.3817 27 21.9741V26H10.9258C9.70917 25.9532 8.56058 25.4266 7.73121 24.5353C6.90183 23.644 6.45916 22.4605 6.5 21.2437ZM25 15.6592C24.9994 14.8827 25.1799 14.1168 25.5271 13.4223C25.8743 12.7278 26.3786 12.1237 27 11.6582V15.6592C27 15.7905 27.0258 15.9206 27.0761 16.0419C27.1263 16.1632 27.2 16.2735 27.2928 16.3664C27.3857 16.4592 27.4959 16.5329 27.6173 16.5831C27.7386 16.6334 27.8687 16.6592 28 16.6592H32C32.1313 16.6592 32.2614 16.6334 32.3827 16.5831C32.5041 16.5329 32.6143 16.4592 32.7072 16.3664C32.8 16.2735 32.8737 16.1632 32.924 16.0419C32.9742 15.9206 33 15.7905 33 15.6592V11.6582C33.6819 12.1695 34.2219 12.8467 34.5685 13.6253C34.9151 14.404 35.057 15.2584 34.9805 16.1073C34.9041 16.9562 34.6119 17.7715 34.1317 18.4758C33.6515 19.18 32.9993 19.7498 32.237 20.131C31.4747 20.5123 30.6275 20.6924 29.776 20.6541C28.9245 20.6159 28.097 20.3606 27.3719 19.9126C26.6468 19.4645 26.0482 18.8386 25.6331 18.0942C25.218 17.3497 25.0001 16.5115 25 15.6592ZM29 26V22.5793C29.6624 22.6858 30.3376 22.6858 31 22.5793V26H29ZM38 41H56V53H50C49.8687 53 49.7386 53.0258 49.6173 53.076C49.4959 53.1263 49.3857 53.2 49.2928 53.2928C49.2 53.3857 49.1263 53.4959 49.076 53.6173C49.0258 53.7386 49 53.8687 49 54H45C45 53.8687 44.9742 53.7386 44.924 53.6173C44.8737 53.4959 44.8 53.3857 44.7072 53.2928C44.6143 53.2 44.5041 53.1263 44.3827 53.076C44.2614 53.0258 44.1313 53 44 53H38V41ZM58 56.9165C57.9997 57.2037 57.8855 57.479 57.6825 57.6821C57.4795 57.8853 57.2042 57.9996 56.917 58H37.083C36.7958 57.9996 36.5205 57.8853 36.3175 57.6821C36.1145 57.479 36.0003 57.2037 36 56.9165V55H43C43 55.1313 43.0258 55.2614 43.076 55.3827C43.1263 55.5041 43.2 55.6143 43.2928 55.7072C43.3857 55.8 43.4959 55.8737 43.6173 55.924C43.7386 55.9742 43.8687 56 44 56H50C50.1313 56 50.2614 55.9742 50.3827 55.924C50.5041 55.8737 50.6143 55.8 50.7072 55.7072C50.8 55.6143 50.8737 55.5041 50.924 55.3827C50.9742 55.2614 51 55.1313 51 55H58V56.9165Z" fill="#0CB4C4"></path><path d="M53 51C53.1313 51 53.2614 50.9742 53.3827 50.924C53.5041 50.8737 53.6143 50.8 53.7072 50.7072C53.8 50.6143 53.8737 50.5041 53.924 50.3827C53.9742 50.2614 54 50.1313 54 50V44C54 43.8687 53.9742 43.7386 53.924 43.6173C53.8737 43.4959 53.8 43.3857 53.7072 43.2928C53.6143 43.2 53.5041 43.1263 53.3827 43.076C53.2614 43.0258 53.1313 43 53 43H41C40.8687 43 40.7386 43.0258 40.6173 43.076C40.4959 43.1263 40.3857 43.2 40.2928 43.2928C40.2 43.3857 40.1263 43.4959 40.076 43.6173C40.0258 43.7386 40 43.8687 40 44V50C40 50.1313 40.0258 50.2614 40.076 50.3827C40.1263 50.5041 40.2 50.6143 40.2928 50.7072C40.3857 50.8 40.4959 50.8737 40.6173 50.924C40.7386 50.9742 40.8687 51 41 51H53ZM42 45H52V49H42V45Z" fill="#0CB4C4"></path><path d="M7 51H19C19.1313 51 19.2614 50.9742 19.3827 50.924C19.5041 50.8737 19.6143 50.8 19.7072 50.7072C19.8 50.6143 19.8737 50.5041 19.9239 50.3827C19.9742 50.2614 20 50.1313 20 50V44C20 43.8687 19.9742 43.7386 19.9239 43.6173C19.8737 43.4959 19.8 43.3857 19.7072 43.2928C19.6143 43.2 19.5041 43.1263 19.3827 43.076C19.2614 43.0258 19.1313 43 19 43H7C6.86867 43 6.73862 43.0258 6.61728 43.076C6.49594 43.1263 6.38568 43.2 6.29282 43.2928C6.19995 43.3857 6.12629 43.4959 6.07605 43.6173C6.02581 43.7386 5.99997 43.8687 6 44V50C5.99997 50.1313 6.02581 50.2614 6.07605 50.3827C6.12629 50.5041 6.19995 50.6143 6.29282 50.7072C6.38568 50.8 6.49594 50.8737 6.61728 50.924C6.73862 50.9742 6.86867 51 7 51ZM8 45H18V49H8V45Z" fill="#0CB4C4"></path></svg>