<svg width="52" height="60" viewBox="0 0 52 60" fill="none" xmlns="http://www.w3.org/2000/svg"><path d="M36.6783 27.0652C36.5739 26.2174 37.8522 26.0478 37.9696 26.9087C38.0739 27.7304 40.3696 28.3304 41.7522 27.4957C42.0652 27.313 42.2609 27.0783 42.2609 26.8565C42.2609 26.1391 41.1391 25.9826 40.0304 25.813C38.3609 25.5783 36.6783 25.3304 36.6783 23.4783C36.6783 22.1217 38.1522 21.3522 39.4565 21.1826V20.6739C39.4565 20.3087 39.7435 20.0217 40.1348 20.0217C40.513 20.0348 40.8 20.3348 40.787 20.687L40.7739 21.1826C43.8 21.5609 44.1261 24.1304 42.913 24.1304C42.5609 24.1304 42.2609 23.8435 42.2609 23.4783C42.2609 22.6565 39.913 21.9783 38.4783 22.8391C38.1652 23.0217 37.9696 23.2565 37.9696 23.4783C37.9696 24.2087 39.0913 24.3652 40.2 24.5217C41.8826 24.7565 43.5522 25.0043 43.5522 26.8565C43.5522 28.213 42.0783 28.9957 40.7478 29.1522L40.7348 29.6609C40.7348 30.5217 39.4304 30.5217 39.4304 29.6609V29.1522C38.2304 28.9957 36.8348 28.3174 36.6783 27.0652ZM34.6696 40.7217H46.6435C47.0087 40.7217 47.2957 41.0087 47.2957 41.3739V45.2478C47.2957 45.613 47.0087 45.9 46.6435 45.9H34.6696C34.3174 45.9 34.0174 45.613 34.0174 45.2478V41.3739C34.0304 41.0087 34.3174 40.7217 34.6696 40.7217ZM45.9913 42.013H35.3217V44.5826H45.9913V42.013ZM16.6174 5.15217H34.6826C35.0478 5.15217 35.3348 5.43913 35.3348 5.80435V10.787C35.3348 11.1522 35.0478 11.4391 34.6826 11.4391H16.6174C16.2652 11.4391 15.9652 11.1522 15.9652 10.787V5.80435C15.9652 5.43913 16.2522 5.15217 16.6174 5.15217ZM34.0304 6.45652H17.2696V10.1348H34.0304V6.45652ZM5.55652 53.5957C4.69565 53.5957 4.69565 52.2913 5.55652 52.2913H19.0174C19.8783 52.2913 19.8783 53.5957 19.0174 53.5957H5.55652ZM6.27391 51.0913C5.41304 51.0913 5.41304 49.787 6.27391 49.787H6.95217V45.287H5.55652C4.93043 45.287 4.64348 44.4783 5.20435 44.087L11.8957 39.2217C12.1304 39.0522 12.4565 39.0652 12.6783 39.2348L19.3957 44.113C19.9043 44.4913 19.6435 45.287 19.0174 45.287H17.6087V49.787H18.287C19.1478 49.787 19.1478 51.0913 18.287 51.0913H6.27391ZM8.25652 49.787H10.0696V45.287H8.25652V49.787ZM11.3739 49.787H13.187V45.287H11.3739V49.787ZM14.4913 49.787H16.3043V45.287H14.4913V49.787ZM16.9957 43.9957L12.287 40.5652L7.56522 43.9957H16.9957ZM12.9261 35.4783C13.9826 35.5304 14.987 35.7261 15.9522 36.0261V14.9739C15.9522 14.6217 16.2391 14.3217 16.6043 14.3217H46.6435C47.0087 14.3217 47.2957 14.6087 47.2957 14.9739V37.7348C47.2957 38.087 47.0087 38.387 46.6435 38.387H20.2174C23.387 41.087 25.0435 45.2478 24.4043 49.5261H50.3217V9.44348H42.913C42.5609 9.44348 42.2609 9.15652 42.2609 8.7913V1.35652L12.9261 1.30435V35.4783ZM17.2696 36.5217C17.6478 36.6913 18.013 36.8739 18.3652 37.0826H34.0174V15.6261H17.2696V36.5217ZM24.1435 50.8304C22.7609 56.1652 17.9217 60 12.2739 60C5.49131 60 0 54.5087 0 47.7261C0 41.1913 5.12609 35.8174 11.6087 35.4783V0.652174C11.6087 0.3 11.8957 0 12.2609 0L15.7304 0.0130435C24.7696 0.0391305 33.8087 0.0521739 42.8478 0.0652174C43.0957 0.0521739 43.2522 0.130435 43.4217 0.326087L51.4304 8.33478C51.5478 8.45217 51.6261 8.62174 51.6261 8.7913V50.1913C51.6261 50.5435 51.3391 50.8435 50.9739 50.8435H24.1435V50.8304ZM20.0348 39.9783C15.7565 35.7 8.81739 35.7 4.52609 39.9783C0.247826 44.2565 0.247826 51.1957 4.52609 55.487C8.80435 59.7783 15.7435 59.7652 20.0348 55.487C24.3 51.2217 24.3261 44.2826 20.0348 39.9783ZM35.3348 15.6261V37.0826H46.0043V15.6261H35.3348ZM20.113 33.4565C19.2522 33.4565 19.2522 32.1522 20.113 32.1522H31.5522C32.413 32.1522 32.413 33.4565 31.5522 33.4565H20.113ZM20.113 30.4957C19.2522 30.4957 19.2522 29.1913 20.113 29.1913H31.5522C32.413 29.1913 32.413 30.4957 31.5522 30.4957H20.113ZM20.113 27.5217C19.2522 27.5217 19.2522 26.2174 20.113 26.2174H31.5522C32.413 26.2174 32.413 27.5217 31.5522 27.5217H20.113ZM20.113 24.5478C19.2522 24.5478 19.2522 23.2435 20.113 23.2435H31.5522C32.413 23.2435 32.413 24.5478 31.5522 24.5478H20.113ZM20.6087 20.2174C19.7478 20.2174 19.7478 18.913 20.6087 18.913H24.6522C25.513 18.913 25.513 20.2174 24.6522 20.2174H20.6087ZM43.5652 2.28261V8.12609H49.4217L43.5652 2.28261Z" fill="#0CB4C4"></path></svg>