<svg width="60" height="60" viewBox="0 0 60 60" fill="none" xmlns="http://www.w3.org/2000/svg"><path d="M22.7792 29.059C23.1211 29.4996 23.5749 29.8491 24.1266 30.0993C24.6908 30.355 25.3774 30.4849 26.1682 30.4849H28.4877V36.6611H23.374V38.7458H28.4877V41.1633H30.5724V38.7458H33.591C35.6423 38.7458 36.9674 37.1906 36.9674 34.7835V32.3611C36.9674 29.9554 35.6423 28.401 33.591 28.401H30.5724V22.4055H36.1002V20.3208H30.5724V17.9033H28.4877V20.3208H26.1682C25.3878 20.3208 24.7034 20.4494 24.1315 20.7037C23.5804 20.9497 23.126 21.2985 22.7764 21.746C22.463 22.1526 22.2462 22.6035 22.1177 23.1178C21.9863 23.6257 21.9189 24.2073 21.9189 24.8459V25.9605C21.9189 26.5984 21.9863 27.1801 22.1156 27.6769C22.2469 28.2002 22.463 28.6518 22.7792 29.059ZM30.5731 30.4849H33.5917C34.4484 30.4849 34.8834 31.1159 34.8834 32.3604V34.7828C34.8834 36.0287 34.4484 36.6604 33.5917 36.6604H30.5731V30.4849ZM24.0043 24.8452C24.0043 24.3831 24.0481 23.978 24.1384 23.6327C24.1989 23.3908 24.2906 23.197 24.4233 23.0246C24.5574 22.853 24.7457 22.7126 24.9813 22.6063C25.2787 22.475 25.6894 22.4048 26.1689 22.4048H28.4884V28.4003H26.1689C25.6845 28.4003 25.2759 28.3308 24.9876 28.2008C24.743 28.0897 24.5595 27.9528 24.4254 27.7811C24.2899 27.606 24.1982 27.4128 24.1356 27.162C24.0481 26.8257 24.0043 26.4212 24.0043 25.9605V24.8452Z" fill="#0CB4C4"></path><path d="M13.4718 44.1177L10.9938 46.5949L12.4677 48.0688L14.9449 45.5915C18.5611 48.879 23.2884 50.9644 28.4883 51.2118V59.0654H30.5729V51.2118C35.7735 50.9651 40.5015 48.8797 44.1177 45.5908L46.5963 48.0702L48.0702 46.5963L45.5908 44.117C48.8769 40.5008 50.9609 35.7742 51.2076 30.575H59.0654V28.4904H51.2076C50.9609 23.2905 48.8769 18.5625 45.5894 14.947L48.0688 12.4677L46.5949 10.9938L44.1156 13.4725C40.5001 10.1857 35.7728 8.10099 30.5729 7.85361V0H28.4883V7.85361C23.2891 8.10029 18.5625 10.185 14.9463 13.4725L12.469 10.9952L10.9952 12.469L13.4732 14.9463C10.1863 18.5625 8.10238 23.2905 7.855 28.4904H0V30.575H7.855C8.10169 35.7742 10.185 40.5015 13.4718 44.1177ZM9.94174 28.4904C10.185 23.8645 12.0389 19.659 14.9498 16.423L18.9565 20.4297L20.4304 18.9558L16.423 14.9484C19.6577 12.0368 23.8624 10.1829 28.4876 9.93966V13.2077H30.5722V9.93966C35.1981 10.1829 39.4029 12.0368 42.6383 14.9484L38.6322 18.9544L40.1061 20.4283L44.1121 16.423C47.023 19.6583 48.8769 23.8638 49.1202 28.4897H45.8535V30.5743H49.1202C48.8769 35.1995 47.0237 39.4042 44.1135 42.6396L40.1061 38.6315L38.6322 40.1054L42.6403 44.1135C39.4042 47.0265 35.1988 48.8811 30.5722 49.1243V45.8563H28.4876V49.1243C23.8617 48.8811 19.657 47.0265 16.4216 44.1142L20.429 40.1068L18.9551 38.6329L14.9477 42.6396C12.0375 39.4042 10.1843 35.1995 9.94105 30.5743H13.2077V28.4897L9.94174 28.4904Z" fill="#0CB4C4"></path><path d="M55.2735 48.1467V47.3788H56.3555C57.7091 47.3788 58.6194 46.3462 58.6194 44.8091V43.5417C58.6194 42.0053 57.7091 40.9734 56.3555 40.9734H55.2735V38.8303H57.6681V36.7457H55.2735V35.9785H53.1889V36.7457H52.4724C51.9923 36.7457 51.5649 36.8277 51.205 36.9896C50.8415 37.1515 50.5393 37.3836 50.3051 37.6838C50.1008 37.9485 49.9542 38.2529 49.8722 38.5809C49.793 38.888 49.752 39.2341 49.752 39.61V40.1937C49.752 40.5696 49.793 40.9157 49.8694 41.211C49.9535 41.5487 50.1008 41.8552 50.3058 42.1192C50.5337 42.4139 50.8346 42.6466 51.1987 42.8113C51.5594 42.9753 51.9874 43.058 52.4724 43.058H53.1889V45.2949H51.0097V47.3795H53.1889V48.1474L55.2735 48.1467ZM55.2735 43.0573H56.3555C56.4048 43.0573 56.4277 43.0615 56.4319 43.0615C56.4687 43.106 56.534 43.2887 56.534 43.541V44.8084C56.534 45.0704 56.4632 45.2566 56.4416 45.2844C56.4416 45.2844 56.4173 45.2942 56.3548 45.2942H55.2728L55.2735 43.0573ZM52.4724 40.9727C52.2132 40.9727 52.0916 40.9268 52.0597 40.9122C52.0089 40.8893 51.9707 40.8643 51.9527 40.8399C51.9318 40.8135 51.9103 40.7795 51.8894 40.6968C51.8547 40.5634 51.8366 40.389 51.8366 40.193V39.6093C51.8366 39.4106 51.854 39.2403 51.8922 39.0951C51.9103 39.0214 51.9339 38.9846 51.9506 38.9631C51.9749 38.9318 52.0208 38.9075 52.0548 38.8915C52.0965 38.8734 52.2202 38.8296 52.4724 38.8296H53.1889V40.9727H52.4724Z" fill="#0CB4C4"></path><path d="M16.1964 59.9992V59.2314H17.2783C18.632 59.2314 19.5423 58.1988 19.5423 56.6617V55.3942C19.5423 53.8578 18.632 52.8259 17.2783 52.8259H16.1964V50.6829H18.591V48.5982H16.1964V47.8311H14.1117V48.5982H13.3953C12.9151 48.5982 12.4878 48.6802 12.1278 48.8421C11.7644 49.004 11.4621 49.2361 11.2279 49.5363C11.0236 49.8011 10.877 50.1054 10.795 50.4334C10.7158 50.7405 10.6748 51.0866 10.6748 51.4625V52.0462C10.6748 52.4222 10.7158 52.7682 10.7922 53.0636C10.8763 53.4013 11.0236 53.7077 11.2286 53.9718C11.4566 54.2664 11.7574 54.4992 12.1216 54.6639C12.4822 54.8279 12.9103 54.9106 13.3953 54.9106H14.1117V57.1474H11.9325V59.2321H14.1117V59.9999L16.1964 59.9992ZM16.1964 54.9099H17.2783C17.3277 54.9099 17.3506 54.9126 17.3548 54.914C17.3916 54.9585 17.4569 55.1413 17.4569 55.3935V56.661C17.4569 56.923 17.386 57.1092 17.3645 57.137C17.3645 57.137 17.3402 57.1467 17.2776 57.1467H16.1957L16.1964 54.9099ZM13.3946 52.8252C13.1354 52.8252 13.0138 52.7793 12.9818 52.7647C12.9311 52.7418 12.8929 52.7168 12.8748 52.6925C12.854 52.6661 12.8324 52.632 12.8116 52.5493C12.7768 52.4159 12.7588 52.2415 12.7588 52.0455V51.4618C12.7588 51.2631 12.7761 51.0929 12.8144 50.9476C12.8324 50.874 12.8561 50.8371 12.8727 50.8156C12.8971 50.7843 12.9429 50.76 12.977 50.744C13.0187 50.726 13.1423 50.6822 13.3946 50.6822H14.111V52.8252H13.3946Z" fill="#0CB4C4"></path><path d="M1.35586 13.265C1.58379 13.5597 1.88467 13.7924 2.24879 13.9571C2.60944 14.1211 3.03749 14.2038 3.52252 14.2038H4.23895V16.4407H2.06048V18.5253H4.23964V19.2932H6.3243V18.5253H7.40624C8.75988 18.5253 9.67018 17.4927 9.67018 15.9556V14.6881C9.67018 13.1518 8.75988 12.1198 7.40624 12.1198H6.3243V9.97682H8.71888V7.89216H6.3243V7.125H4.23964V7.89216H3.52322C3.04305 7.89216 2.61569 7.97415 2.25574 8.13606C1.89232 8.29797 1.59004 8.53006 1.35586 8.83025C1.15157 9.095 1.00495 9.39936 0.92295 9.72735C0.843733 10.0345 0.802734 10.3805 0.802734 10.7565V11.3402C0.802734 11.7161 0.843732 12.0622 0.92017 12.3575C1.00356 12.6952 1.15087 13.001 1.35586 13.265ZM6.3243 14.2038H7.40624C7.45558 14.2038 7.47851 14.2066 7.48268 14.208C7.51951 14.2525 7.58483 14.4352 7.58483 14.6875V15.9549C7.58483 16.2169 7.51395 16.4031 7.49241 16.4309C7.49241 16.4309 7.46809 16.4407 7.40555 16.4407H6.32361L6.3243 14.2038ZM2.8867 10.7565C2.8867 10.5577 2.90407 10.3875 2.94229 10.2423C2.96036 10.1686 2.98398 10.1318 3.00066 10.1102C3.02498 10.079 3.07084 10.0546 3.10489 10.0387C3.14659 10.0206 3.27028 9.97682 3.52252 9.97682H4.23895V12.1198H3.52252C3.26333 12.1198 3.14172 12.074 3.10976 12.0594C3.05903 12.0365 3.02081 12.0114 3.00275 11.9871C2.9819 11.9607 2.96036 11.9267 2.93951 11.844C2.90477 11.7106 2.8867 11.5361 2.8867 11.3402V10.7565Z" fill="#0CB4C4"></path><path d="M53.502 14.9537V14.1859H54.584C55.9376 14.1859 56.8479 13.1533 56.8479 11.6162V10.3487C56.8479 8.81232 55.9376 7.78042 54.584 7.78042H53.502V5.63738H55.8966V3.55272H53.502V2.78418H51.4174V3.55133H50.701C50.2208 3.55133 49.7934 3.63333 49.4335 3.79524C49.0701 3.95715 48.7678 4.18924 48.5336 4.48943C48.3293 4.75418 48.1827 5.05854 48.1007 5.38653C48.0215 5.69367 47.9805 6.03972 47.9805 6.41566V6.99936C47.9805 7.3753 48.0215 7.72135 48.0979 8.01668C48.182 8.35439 48.3293 8.66084 48.5343 8.92489C48.7622 9.21953 49.0631 9.45231 49.4272 9.617C49.7879 9.78099 50.2159 9.86369 50.701 9.86369H51.4174V12.1005H49.2382V14.1852H51.4174V14.953H53.502V14.9537ZM53.502 9.86369H54.584C54.6333 9.86369 54.6563 9.86786 54.6604 9.86786C54.6972 9.91233 54.7626 10.0951 54.7626 10.3473V11.6148C54.7626 11.8768 54.6917 12.063 54.6701 12.0908C54.6701 12.0908 54.6458 12.1005 54.5833 12.1005H53.5013V9.86369H53.502ZM50.701 7.77903C50.4418 7.77903 50.3202 7.73316 50.2882 7.71857C50.2375 7.69564 50.1992 7.67062 50.1812 7.6463C50.1603 7.6199 50.1388 7.58585 50.1179 7.50316C50.0832 7.36974 50.0651 7.19532 50.0651 6.99936V6.41566C50.0651 6.21692 50.0825 6.04667 50.1207 5.90144C50.1388 5.82778 50.1624 5.79095 50.1791 5.76941C50.2034 5.73814 50.2493 5.71382 50.2833 5.69784C50.325 5.67977 50.4487 5.63599 50.701 5.63599H51.4174V7.77903H50.701Z" fill="#0CB4C4"></path></svg>