<svg width="62" height="60" viewBox="0 0 62 60" fill="none" xmlns="http://www.w3.org/2000/svg"><path fill-rule="evenodd" clip-rule="evenodd" d="M61.7705 53.0233C61.7705 52.253 61.1453 51.6279 60.3751 51.6279H1.77046C1.00022 51.6279 0.375109 52.253 0.375109 53.0233V58.6046C0.375109 59.3749 1.00022 60 1.77046 60H60.3751C61.1453 60 61.7705 59.3749 61.7705 58.6046V53.0233ZM58.9798 54.4186V57.2093H3.16581V54.4186H58.9798ZM53.3984 25.1163C53.3984 24.346 52.7732 23.7209 52.003 23.7209H46.4216C45.6514 23.7209 45.0263 24.346 45.0263 25.1163V47.4419C45.0263 48.2121 45.6514 48.8372 46.4216 48.8372H52.003C52.7732 48.8372 53.3984 48.2121 53.3984 47.4419V25.1163ZM35.2588 25.1163C35.2588 24.346 34.6337 23.7209 33.8635 23.7209H28.2821C27.5119 23.7209 26.8867 24.346 26.8867 25.1163V47.4419C26.8867 48.2121 27.5119 48.8372 28.2821 48.8372H33.8635C34.6337 48.8372 35.2588 48.2121 35.2588 47.4419V25.1163ZM17.1193 25.1163C17.1193 24.346 16.4942 23.7209 15.7239 23.7209H10.1426C9.37232 23.7209 8.7472 24.346 8.7472 25.1163V47.4419C8.7472 48.2121 9.37232 48.8372 10.1426 48.8372H15.7239C16.4942 48.8372 17.1193 48.2121 17.1193 47.4419V25.1163ZM50.6077 26.5116V46.0465H47.817V26.5116H50.6077ZM32.4681 26.5116V46.0465H29.6774V26.5116H32.4681ZM14.3286 26.5116V46.0465H11.5379V26.5116H14.3286ZM31.8067 0.209302C31.3574 -0.0697674 30.7881 -0.0697674 30.3388 0.209302L1.0365 18.3488C0.506271 18.6753 0.257899 19.3172 0.428132 19.9172C0.598364 20.5172 1.14813 20.9302 1.77046 20.9302H60.3751C60.9974 20.9302 61.5472 20.5172 61.7174 19.9172C61.8877 19.3172 61.6393 18.6753 61.1091 18.3488L31.8067 0.209302ZM31.0728 3.03628L55.4691 18.1395H6.6765L31.0728 3.03628Z" fill="#0CB4C4"></path></svg>