<svg width="75" height="60" viewBox="0 0 75 60" fill="none" xmlns="http://www.w3.org/2000/svg"><path d="M55.3636 19.8121C55.1803 19.671 54.9554 19.5944 54.7241 19.5944C54.4927 19.5944 54.2678 19.671 54.0845 19.8121L49.922 23.0041C49.7939 23.1023 49.6901 23.2287 49.6186 23.3734C49.5471 23.5182 49.5099 23.6774 49.5098 23.8388V54.3858C49.5098 54.6647 49.6206 54.9323 49.8178 55.1295C50.0151 55.3268 50.2826 55.4376 50.5616 55.4376H58.8865C59.1655 55.4376 59.433 55.3268 59.6303 55.1295C59.8275 54.9323 59.9383 54.6647 59.9383 54.3858V23.8388C59.9382 23.6774 59.901 23.5182 59.8295 23.3734C59.758 23.2287 59.6542 23.1023 59.5261 23.0041L55.3636 19.8121ZM57.8346 53.3348H51.6135V24.3571L54.7215 21.9718L57.8321 24.3571L57.8346 53.3348ZM41.3427 27.455C41.1591 27.3139 40.9341 27.2374 40.7026 27.2374C40.4711 27.2374 40.2461 27.3139 40.0626 27.455L35.9002 30.647C35.7722 30.7453 35.6685 30.8717 35.5971 31.0164C35.5258 31.1611 35.4887 31.3203 35.4888 31.4817V54.3849C35.4888 54.6639 35.5996 54.9314 35.7968 55.1287C35.9941 55.3259 36.2616 55.4368 36.5406 55.4368H44.8655C45.1443 55.4365 45.4116 55.3256 45.6087 55.1284C45.8058 54.9311 45.9165 54.6637 45.9165 54.3849V31.4817C45.9165 31.3203 45.8795 31.1611 45.8081 31.0164C45.7368 30.8717 45.6331 30.7453 45.5051 30.647L41.3427 27.455ZM43.8137 53.3339H37.5916V32.0009L40.7031 29.6147L43.8137 32.0009V53.3339ZM27.3225 24.039C27.139 23.8979 26.914 23.8215 26.6825 23.8215C26.451 23.8215 26.226 23.8979 26.0425 24.039L21.88 27.231C21.752 27.3293 21.6483 27.4557 21.577 27.6004C21.5057 27.7452 21.4686 27.9044 21.4686 28.0657V54.3858C21.4686 54.6646 21.5793 54.932 21.7764 55.1292C21.9735 55.3265 22.2408 55.4374 22.5196 55.4376H30.8445C31.1235 55.4376 31.391 55.3268 31.5883 55.1295C31.7855 54.9323 31.8964 54.6647 31.8964 54.3858V28.0657C31.8962 27.9044 31.859 27.7453 31.7877 27.6006C31.7164 27.4558 31.6128 27.3294 31.4849 27.231L27.3225 24.039ZM29.7935 53.3348H23.5706V28.584L26.6812 26.1987L29.7927 28.584L29.7935 53.3348ZM13.2998 34.7017C13.1163 34.561 12.8915 34.4847 12.6602 34.4847C12.429 34.4847 12.2041 34.561 12.0206 34.7017L7.85819 37.8938C7.73012 37.992 7.62634 38.1184 7.55486 38.2631C7.48338 38.4078 7.44611 38.567 7.44593 38.7285V54.3858C7.44593 54.6647 7.55675 54.9323 7.75401 55.1295C7.95127 55.3268 8.21881 55.4376 8.49778 55.4376H16.8227C17.1016 55.4376 17.3692 55.3268 17.5664 55.1295C17.7637 54.9323 17.8745 54.6647 17.8745 54.3858V38.7285C17.8743 38.567 17.8371 38.4078 17.7656 38.2631C17.6941 38.1184 17.5903 37.992 17.4623 37.8938L13.2998 34.7017ZM15.7708 53.3348H9.54963V39.2459L12.6602 36.8597L15.7708 39.2459V53.3348ZM63.5282 12.4084V54.3858C63.5282 54.6646 63.6389 54.932 63.836 55.1292C64.0331 55.3265 64.3004 55.4374 64.5792 55.4376H72.9041C73.1831 55.4376 73.4506 55.3268 73.6479 55.1295C73.8451 54.9323 73.9559 54.6647 73.9559 54.3858V12.4084C73.956 12.2471 73.9189 12.0879 73.8476 11.9431C73.7762 11.7984 73.6725 11.672 73.5445 11.5738L69.3821 8.38088C69.1984 8.2402 68.9735 8.16397 68.7421 8.16397C68.5107 8.16397 68.2858 8.2402 68.1021 8.38088L63.9396 11.5738C63.8122 11.6723 63.7092 11.7989 63.6385 11.9436C63.5677 12.0883 63.5312 12.2474 63.5316 12.4084H63.5282ZM65.6311 12.9267L68.7417 10.5406L71.8565 12.9267V53.3348H65.6345L65.6311 12.9267ZM74.1773 58.9486C74.1773 59.2269 74.067 59.4938 73.8704 59.6908C73.6739 59.8879 73.4072 59.9989 73.1289 59.9996H8.49778C8.35719 60.0036 8.21723 59.9793 8.08617 59.9283C7.95512 59.8772 7.83563 59.8004 7.73478 59.7024C7.63392 59.6044 7.55376 59.4871 7.49901 59.3576C7.44427 59.228 7.41606 59.0888 7.41606 58.9482C7.41606 58.8075 7.44427 58.6683 7.49901 58.5387C7.55376 58.4092 7.63392 58.2919 7.73478 58.1939C7.83563 58.0959 7.95512 58.0191 8.08617 57.968C8.21723 57.917 8.35719 57.8927 8.49778 57.8967H73.1289C73.4073 57.8976 73.6739 58.0088 73.8705 58.206C74.067 58.4032 74.1773 58.6702 74.1773 58.9486ZM20.0393 24.5217C21.9243 22.6397 23.1103 20.1705 23.401 17.5226L25.223 16.2384L39.5791 21.825C39.7477 21.891 39.9305 21.9122 40.1098 21.8866C40.289 21.8611 40.4586 21.7896 40.6021 21.6791L64.0295 3.65773L63.574 5.64946C63.5183 5.91891 63.5703 6.19946 63.719 6.43097C63.8677 6.66248 64.1012 6.8265 64.3695 6.88787C64.6377 6.94923 64.9193 6.90306 65.1538 6.75924C65.3884 6.61543 65.5573 6.38542 65.6243 6.11855L66.7084 1.3742C66.7198 1.32169 66.7272 1.26837 66.7304 1.21472C66.7547 1.06469 66.746 0.911171 66.7049 0.764829C66.6639 0.618488 66.5915 0.482826 66.4928 0.367255C66.3941 0.251685 66.2715 0.158975 66.1334 0.0955581C65.9952 0.032141 65.845 -0.000464406 65.693 4.9972e-06H60.7077C60.434 0.0077795 60.1742 0.121964 59.9833 0.318297C59.7925 0.514629 59.6857 0.777635 59.6857 1.05143C59.6857 1.32523 59.7925 1.58823 59.9833 1.78457C60.1742 1.9809 60.434 2.09508 60.7077 2.10286H62.6019L39.792 19.6509L25.4563 14.0736C25.2945 14.0108 25.1197 13.989 24.9474 14.0101C24.7751 14.0313 24.6107 14.0948 24.4689 14.1949L23.4035 14.9456C23.114 12.301 21.9345 9.83316 20.0585 7.94677C18.1825 6.06037 15.7212 4.86732 13.0782 4.56321C10.4352 4.2591 7.76728 4.86198 5.51185 6.273C3.25642 7.68402 1.5473 9.81946 0.664689 12.3292C-0.217921 14.839 -0.22165 17.5742 0.654114 20.0864C1.52988 22.5985 3.23317 24.7386 5.48474 26.1558C7.73632 27.5729 10.4026 28.1831 13.0464 27.8862C15.6902 27.5893 18.1547 26.403 20.0359 24.5217H20.0393ZM4.90198 9.38692C6.25172 8.03824 7.97103 7.12001 9.84255 6.74832C11.7141 6.37662 13.6538 6.56814 15.4165 7.29868C17.1792 8.02921 18.6857 9.26596 19.7456 10.8526C20.8055 12.4392 21.3712 14.3044 21.3712 16.2125C21.3712 18.1206 20.8055 19.9858 19.7456 21.5724C18.6857 23.159 17.1792 24.3958 15.4165 25.1263C13.6538 25.8568 11.7141 26.0484 9.84255 25.6767C7.97103 25.305 6.25172 24.3868 4.90198 23.0381C4.00193 22.1438 3.28764 21.0804 2.80021 19.9089C2.31278 18.7375 2.06185 17.4813 2.06185 16.2125C2.06185 14.9437 2.31278 13.6875 2.80021 12.516C3.28764 11.3446 4.00193 10.2812 4.90198 9.38692ZM11.7992 24.134C11.5205 24.134 11.2532 24.0233 11.0561 23.8262C10.859 23.6291 10.7482 23.3618 10.7482 23.083V22.1771C9.91593 22.0322 9.14427 21.6467 8.52849 21.0683C7.91271 20.4899 7.47976 19.7439 7.28306 18.9223C7.22052 18.6504 7.26854 18.3648 7.41657 18.1283C7.56459 17.8919 7.80049 17.7239 8.07237 17.6613C8.34426 17.5988 8.62985 17.6468 8.86632 17.7948C9.10279 17.9429 9.27078 18.1788 9.33332 18.4506C9.70741 20.0802 11.5125 20.2939 12.522 20.1624C12.8363 20.1466 13.1411 20.0487 13.4059 19.8784C13.6706 19.7082 13.8862 19.4715 14.031 19.192C14.1005 19.0035 14.1154 18.7991 14.0738 18.6025C14.0322 18.4059 13.936 18.2251 13.7961 18.0808C13.5509 17.8154 13.253 17.6041 12.9214 17.4607C12.5898 17.3172 12.2318 17.2447 11.8705 17.2478C11.2929 17.1789 10.7243 17.0493 10.174 16.861L10.1409 16.8491C9.4604 16.6303 8.86492 16.205 8.43704 15.6324C8.00916 15.0599 7.77009 14.3683 7.753 13.6537C7.78507 12.9344 8.0351 12.2419 8.46991 11.668C8.90472 11.0941 9.50375 10.666 10.1875 10.4405C10.3711 10.3727 10.5587 10.3161 10.7491 10.2708V9.33772C10.7451 9.19713 10.7693 9.05717 10.8204 8.92612C10.8714 8.79506 10.9482 8.67557 11.0462 8.57472C11.1443 8.47387 11.2615 8.3937 11.3911 8.33895C11.5206 8.28421 11.6599 8.256 11.8005 8.256C11.9411 8.256 12.0804 8.28421 12.2099 8.33895C12.3395 8.3937 12.4567 8.47387 12.5548 8.57472C12.6528 8.67557 12.7296 8.79506 12.7806 8.92612C12.8317 9.05717 12.8559 9.19713 12.8519 9.33772V10.2445C13.5938 10.4298 14.2775 10.7976 14.8409 11.3145C15.4043 11.8314 15.8295 12.481 16.0779 13.2041C16.1268 13.3332 16.1498 13.4707 16.1456 13.6087C16.1413 13.7467 16.11 13.8825 16.0532 14.0084C15.9965 14.1342 15.9156 14.2477 15.815 14.3423C15.7145 14.4369 15.5962 14.5107 15.4671 14.5596C15.338 14.6086 15.2006 14.6315 15.0626 14.6273C14.9246 14.6231 14.7888 14.5917 14.6629 14.535C14.537 14.4783 14.4235 14.3973 14.329 14.2968C14.2344 14.1962 14.1605 14.078 14.1116 13.9489C14.0173 13.6283 13.8567 13.331 13.6402 13.0765C13.4236 12.8219 13.156 12.6157 12.8546 12.4713C12.5532 12.3268 12.2248 12.2473 11.8907 12.238C11.5566 12.2286 11.2243 12.2896 10.9153 12.4169C10.6328 12.5006 10.3813 12.6661 10.1928 12.8926C10.0042 13.119 9.88697 13.3963 9.85585 13.6893C9.84822 14.1847 10.224 14.6131 10.9145 14.8973C11.3262 15.0307 11.7502 15.1227 12.1801 15.1721C12.7958 15.2042 13.3987 15.3594 13.9534 15.6285C14.5081 15.8976 15.0032 16.2751 15.4095 16.7388C15.7889 17.1733 16.043 17.7028 16.1446 18.2706C16.2462 18.8384 16.1915 19.4232 15.9863 19.9623C15.7144 20.5878 15.2799 21.1291 14.7279 21.5298C14.1759 21.9305 13.5267 22.176 12.8477 22.2407V23.089C12.8459 23.3662 12.7348 23.6315 12.5384 23.8272C12.3421 24.0229 12.0764 24.1331 11.7992 24.134Z" fill="#0CB4C4"></path></svg>