<svg width="52" height="60" viewBox="0 0 52 60" fill="none" xmlns="http://www.w3.org/2000/svg"><path d="M51 0H11C10.7348 0 10.4804 0.105357 10.2929 0.292893C10.1054 0.48043 10 0.734784 10 1V5H6C5.73478 5 5.48043 5.10536 5.29289 5.29289C5.10536 5.48043 5 5.73478 5 6V10H1C0.734784 10 0.48043 10.1054 0.292893 10.2929C0.105357 10.4804 0 10.7348 0 11V59C0 59.2652 0.105357 59.5196 0.292893 59.7071C0.48043 59.8946 0.734784 60 1 60H41C41.2652 60 41.5196 59.8946 41.7071 59.7071C41.8946 59.5196 42 59.2652 42 59V55H46C46.2652 55 46.5196 54.8946 46.7071 54.7071C46.8946 54.5196 47 54.2652 47 54V50H51C51.2652 50 51.5196 49.8946 51.7071 49.7071C51.8946 49.5196 52 49.2652 52 49V1C52 0.734784 51.8946 0.48043 51.7071 0.292893C51.5196 0.105357 51.2652 0 51 0ZM40 58H2V12H25V26C25 26.2652 25.1054 26.5196 25.2929 26.7071C25.4804 26.8946 25.7348 27 26 27H40V58ZM27 13.41L38.59 25H27V13.41ZM45 53H42V26C42 26 42 26 42 25.94C41.9891 25.8523 41.9724 25.7655 41.95 25.68C41.9538 25.6501 41.9538 25.6199 41.95 25.59C41.9023 25.4809 41.8382 25.3798 41.76 25.29L26.76 10.29C26.6702 10.2118 26.5691 10.1477 26.46 10.1H26.37L26.06 10H7V7H45V53ZM50 48H47V6C47 5.73478 46.8946 5.48043 46.7071 5.29289C46.5196 5.10536 46.2652 5 46 5H12V2H50V48Z" fill="#0CB4C4"></path><path d="M36 30H6C5.73478 30 5.48043 30.1054 5.29289 30.2929C5.10536 30.4804 5 30.7348 5 31C5 31.2652 5.10536 31.5196 5.29289 31.7071C5.48043 31.8946 5.73478 32 6 32H36C36.2652 32 36.5196 31.8946 36.7071 31.7071C36.8946 31.5196 37 31.2652 37 31C37 30.7348 36.8946 30.4804 36.7071 30.2929C36.5196 30.1054 36.2652 30 36 30Z" fill="#0CB4C4"></path><path d="M6 36H26C26.2652 36 26.5196 35.8946 26.7071 35.7071C26.8946 35.5196 27 35.2652 27 35C27 34.7348 26.8946 34.4804 26.7071 34.2929C26.5196 34.1054 26.2652 34 26 34H6C5.73478 34 5.48043 34.1054 5.29289 34.2929C5.10536 34.4804 5 34.7348 5 35C5 35.2652 5.10536 35.5196 5.29289 35.7071C5.48043 35.8946 5.73478 36 6 36Z" fill="#0CB4C4"></path><path d="M36 38H6C5.73478 38 5.48043 38.1054 5.29289 38.2929C5.10536 38.4804 5 38.7348 5 39C5 39.2652 5.10536 39.5196 5.29289 39.7071C5.48043 39.8946 5.73478 40 6 40H36C36.2652 40 36.5196 39.8946 36.7071 39.7071C36.8946 39.5196 37 39.2652 37 39C37 38.7348 36.8946 38.4804 36.7071 38.2929C36.5196 38.1054 36.2652 38 36 38Z" fill="#0CB4C4"></path><path d="M6 28H18C18.2652 28 18.5196 27.8946 18.7071 27.7071C18.8946 27.5196 19 27.2652 19 27C19 26.7348 18.8946 26.4804 18.7071 26.2929C18.5196 26.1054 18.2652 26 18 26H6C5.73478 26 5.48043 26.1054 5.29289 26.2929C5.10536 26.4804 5 26.7348 5 27C5 27.2652 5.10536 27.5196 5.29289 27.7071C5.48043 27.8946 5.73478 28 6 28Z" fill="#0CB4C4"></path><path d="M11 46C11.2652 46 11.5196 46.1054 11.7071 46.2929C11.8946 46.4804 12 46.7348 12 47C12 47.2652 12.1054 47.5196 12.2929 47.7071C12.4804 47.8946 12.7348 48 13 48C13.2652 48 13.5196 47.8946 13.7071 47.7071C13.8946 47.5196 14 47.2652 14 47C13.9983 46.3811 13.8051 45.7778 13.4471 45.2729C13.089 44.7681 12.5835 44.3863 12 44.18V43C12 42.7348 11.8946 42.4804 11.7071 42.2929C11.5196 42.1054 11.2652 42 11 42C10.7348 42 10.4804 42.1054 10.2929 42.2929C10.1054 42.4804 10 42.7348 10 43V44.18C9.33863 44.42 8.78264 44.8848 8.42923 45.4931C8.07582 46.1015 7.94746 46.8147 8.0666 47.5081C8.18574 48.2015 8.5448 48.831 9.08101 49.2865C9.61721 49.742 10.2965 49.9945 11 50C11.1978 50 11.3911 50.0586 11.5556 50.1685C11.72 50.2784 11.8482 50.4346 11.9239 50.6173C11.9996 50.8 12.0194 51.0011 11.9808 51.1951C11.9422 51.3891 11.847 51.5673 11.7071 51.7071C11.5673 51.847 11.3891 51.9422 11.1951 51.9808C11.0011 52.0194 10.8 51.9996 10.6173 51.9239C10.4346 51.8482 10.2784 51.72 10.1685 51.5556C10.0586 51.3911 10 51.1978 10 51C10 50.7348 9.89464 50.4804 9.70711 50.2929C9.51957 50.1054 9.26522 50 9 50C8.73478 50 8.48043 50.1054 8.29289 50.2929C8.10536 50.4804 8 50.7348 8 51C8.00174 51.6189 8.19488 52.2222 8.55294 52.7271C8.911 53.2319 9.41645 53.6137 10 53.82V55C10 55.2652 10.1054 55.5196 10.2929 55.7071C10.4804 55.8946 10.7348 56 11 56C11.2652 56 11.5196 55.8946 11.7071 55.7071C11.8946 55.5196 12 55.2652 12 55V53.83C12.6683 53.5949 13.2319 53.1308 13.5909 52.52C13.9498 51.9092 14.0811 51.1911 13.9613 50.4928C13.8415 49.7945 13.4785 49.1612 12.9365 48.7049C12.3945 48.2487 11.7085 47.9989 11 48C10.7348 48 10.4804 47.8946 10.2929 47.7071C10.1054 47.5196 10 47.2652 10 47C10 46.7348 10.1054 46.4804 10.2929 46.2929C10.4804 46.1054 10.7348 46 11 46Z" fill="#0CB4C4"></path></svg>