<svg width="44" height="60" viewBox="0 0 44 60" fill="none" xmlns="http://www.w3.org/2000/svg" aria-labelledby="svgtitle"><title id="svgTitle">Operate</title><path d="M20.8491 0.139648C23.1089 -0.0173922 25.3768 0.290842 27.5132 1.04492C29.5162 1.75196 31.3639 2.83716 32.9565 4.24023L33.272 4.52441V4.52539C34.9608 6.08933 36.284 8.00789 37.146 10.1436C38.008 12.2793 38.3877 14.5799 38.2583 16.8799C38.1288 19.1799 37.4932 21.423 36.397 23.4482C35.3693 25.3469 33.9607 27.0105 32.2612 28.335L31.9175 28.5947C31.0906 29.1863 30.4085 29.9583 29.9233 30.8525C29.4381 31.747 29.1631 32.7409 29.1177 33.7578L29.2173 33.7617L29.1167 33.7578L29.1177 33.7627L29.1323 36.6572L29.1206 36.9072C29.0668 37.492 28.8284 38.0871 28.4526 38.5547C28.0236 39.0884 27.4214 39.4502 26.7173 39.4502H17.3735C16.6642 39.4501 16.0393 39.0835 15.5884 38.5439C15.137 38.0038 14.8677 37.2974 14.8677 36.6348L14.853 33.5908C14.8528 31.8697 13.9403 30.1258 12.4048 28.8486L12.0894 28.5996H12.0884C9.9736 27.0335 8.28516 24.9606 7.17822 22.5713C6.14051 20.3313 5.64555 17.8802 5.729 15.417L5.75342 14.9238C6.27475 7.16361 12.5698 0.882142 20.4712 0.169922L20.8491 0.139648ZM22.0161 1.77539C21.8411 1.77547 21.6657 1.77827 21.4897 1.78418L20.9604 1.81055C13.8313 2.29 8.07834 7.80521 7.44775 14.707L7.42139 15.0371C7.26941 17.3868 7.70904 19.7376 8.69971 21.873C9.6285 23.875 11.0139 25.628 12.7417 26.9922L13.0913 27.2598C15.2453 28.8744 16.5249 31.2416 16.5249 33.5869V33.5879L16.5396 36.6309L16.5444 36.7275C16.5681 36.9565 16.6716 37.1956 16.8042 37.3838C16.8805 37.492 16.9696 37.5877 17.064 37.6572C17.1572 37.7259 17.2638 37.7743 17.3735 37.7744H26.7173C26.8217 37.7744 26.9204 37.7267 27.0044 37.6602C27.0892 37.5929 27.1676 37.4999 27.2339 37.3955C27.3657 37.1876 27.4595 36.9162 27.4595 36.6621L27.4448 33.7695C27.4821 32.4899 27.8143 31.2362 28.4155 30.1064C28.9419 29.1177 29.662 28.2468 30.5308 27.5459L30.9116 27.2568L30.9126 27.2559C32.5712 26.0387 33.9402 24.4687 34.9214 22.6592C35.9026 20.8496 36.4722 18.8449 36.5884 16.7891C36.7046 14.7332 36.3643 12.6765 35.5933 10.7676C34.8222 8.85891 33.6391 7.14477 32.1284 5.74805H32.1294C29.4759 3.25712 25.9959 1.84482 22.3677 1.77734L22.0161 1.77539Z" fill="#0CB4C4" stroke="white" stroke-width="0.2"></path><path d="M16.6738 41.4375H28.3916C28.6133 41.4375 28.8256 41.5266 28.9824 41.6836C29.1392 41.8406 29.2275 42.0532 29.2275 42.2754L29.2236 42.3584C29.2046 42.5501 29.1196 42.7298 28.9824 42.8672C28.8256 43.0242 28.6133 43.1133 28.3916 43.1133H16.6738C16.4521 43.1133 16.2389 43.0242 16.082 42.8672C15.9254 42.7102 15.8369 42.4974 15.8369 42.2754C15.8369 42.0534 15.9254 41.8406 16.082 41.6836C16.2192 41.5462 16.3995 41.4614 16.5908 41.4424L16.6738 41.4375Z" fill="#0CB4C4" stroke="white" stroke-width="0.2"></path><path d="M18.2715 45.0996H26.7939C27.0155 45.0997 27.228 45.1887 27.3848 45.3457C27.5415 45.5027 27.6299 45.7154 27.6299 45.9375C27.6299 46.1596 27.5415 46.3723 27.3848 46.5293C27.228 46.6863 27.0155 46.7753 26.7939 46.7754H18.2715C18.0498 46.7754 17.8365 46.6863 17.6797 46.5293C17.5231 46.3723 17.4346 46.1595 17.4346 45.9375C17.4346 45.7155 17.5231 45.5027 17.6797 45.3457C17.8365 45.1887 18.0498 45.0996 18.2715 45.0996Z" fill="#0CB4C4" stroke="white" stroke-width="0.2"></path><path d="M22.001 8.68213C23.9849 8.66786 25.8939 9.44146 27.3086 10.8345C28.6349 12.1405 29.4258 13.8909 29.5352 15.7417L29.5479 16.1138C29.5476 17.5778 29.1153 19.009 28.3057 20.228C27.4957 21.4474 26.3439 22.4002 24.9951 22.9663C23.6464 23.5324 22.1607 23.6873 20.7246 23.4106C19.2887 23.134 17.9665 22.4382 16.9238 21.4116C15.8811 20.3849 15.1637 19.0724 14.8633 17.6392C14.5629 16.2058 14.6928 14.715 15.2354 13.355C15.7779 11.9951 16.7094 10.826 17.9131 9.99463C19.1168 9.16332 20.5391 8.70691 22.001 8.68213ZM24.3555 10.8062C23.3125 10.3668 22.1633 10.2448 21.0518 10.4565C19.9401 10.6683 18.9155 11.2043 18.1064 11.9966C17.2975 12.7888 16.7401 13.8026 16.5039 14.9106C16.2677 16.0188 16.3629 17.1721 16.7783 18.2261C17.1938 19.2801 17.9114 20.1876 18.8398 20.8354C19.7102 21.4427 20.7299 21.7962 21.7861 21.8589L21.998 21.8677H21.999C23.5396 21.883 25.0235 21.2861 26.125 20.2075C27.1577 19.1962 27.7753 17.8387 27.8643 16.4019L27.875 16.1138V16.1128C27.875 14.9797 27.5411 13.8712 26.915 12.9272C26.289 11.9834 25.3984 11.2456 24.3555 10.8062Z" fill="#0CB4C4" stroke="white" stroke-width="0.2"></path><mask id="path-5-inside-1_1379_96" fill="white"><path d="M33.078 20.3354C33.0339 20.1696 32.9571 20.0142 32.8522 19.8786C32.7472 19.743 32.6162 19.6298 32.4668 19.5457L32.3164 19.4606C32.4443 19.0787 32.5501 18.6897 32.6332 18.2956H32.8247C33.1676 18.2961 33.4967 18.1604 33.7399 17.9182C33.983 17.676 34.1202 17.3472 34.1216 17.0038V15.2304C34.1202 14.8871 33.983 14.5582 33.7399 14.3161C33.4967 14.0739 33.1676 13.9382 32.8247 13.9386H32.6332C32.5501 13.5444 32.4443 13.1552 32.3164 12.7732L32.4663 12.688C32.6154 12.6041 32.7462 12.4912 32.8511 12.356C32.956 12.2208 33.033 12.066 33.0775 11.9006C33.1219 11.7353 33.1331 11.5627 33.1101 11.3931C33.0872 11.2234 33.0308 11.06 32.944 10.9124L32.0426 9.37889C31.8687 9.08563 31.5871 8.87211 31.2581 8.78393C30.9291 8.69575 30.5787 8.7399 30.2818 8.90696L30.1076 9.00584C29.8319 8.70126 29.539 8.41271 29.2304 8.14159L29.3141 7.99877C29.4003 7.8512 29.4563 7.68793 29.4788 7.51848C29.5014 7.34903 29.4901 7.17678 29.4455 7.01175C29.401 6.84672 29.3241 6.69221 29.2194 6.55721C29.1147 6.42221 28.9842 6.30942 28.8355 6.22541L27.2731 5.33873C26.9761 5.17217 26.626 5.1281 26.2972 5.21588C25.9683 5.30366 25.6866 5.51638 25.5118 5.80885L25.4176 5.96861C25.0179 5.83797 24.611 5.73052 24.1989 5.64681V5.47881C24.1976 5.13535 24.0602 4.80646 23.817 4.56428C23.5738 4.32211 23.2446 4.18643 22.9017 4.18701H21.0979C20.7549 4.18643 20.4257 4.32211 20.1825 4.56428C19.9393 4.80646 19.8019 5.13535 19.8006 5.47881V5.64681C19.3885 5.73052 18.9816 5.83797 18.5819 5.96861L18.4864 5.80657C18.3114 5.51453 18.0297 5.3023 17.701 5.21495C17.3723 5.1276 17.0225 5.17201 16.726 5.33876L15.1636 6.22589C15.0148 6.31001 14.8843 6.42294 14.7796 6.5581C14.6749 6.69325 14.598 6.84793 14.5536 7.01311C14.5092 7.1783 14.4981 7.35068 14.5209 7.52022C14.5436 7.68976 14.5999 7.85306 14.6864 8.0006L14.7691 8.14159C14.4605 8.41271 14.1676 8.70126 13.8919 9.00584L13.7173 8.90696C13.4207 8.73988 13.0706 8.69557 12.7419 8.7835C12.4131 8.87143 12.1317 9.08463 11.9578 9.37754L11.055 10.9129C10.9685 11.0604 10.9121 11.2237 10.8893 11.3933C10.8664 11.5628 10.8775 11.7352 10.922 11.9005C10.9664 12.0657 11.0432 12.2204 11.148 12.3555C11.2528 12.4907 11.3834 12.6035 11.5322 12.6876L11.6831 12.7732C11.5552 13.1552 11.4494 13.5444 11.3663 13.9386H11.1748C10.8319 13.9381 10.5028 14.0739 10.2596 14.316C10.0165 14.5582 9.87926 14.887 9.87793 15.2304V17.0038C9.87925 17.3472 10.0165 17.676 10.2596 17.9182C10.5028 18.1604 10.8319 18.2961 11.1748 18.2956H11.3663C11.4494 18.6897 11.5552 19.0787 11.6831 19.4606L11.5332 19.5457C11.3842 19.6298 11.2534 19.7427 11.1484 19.8779C11.0435 20.0132 10.9666 20.168 10.9221 20.3334C10.8776 20.4988 10.8665 20.6713 10.8894 20.8411C10.9123 21.0108 10.9688 21.1742 11.0555 21.3218L11.9569 22.8553C12.1309 23.1486 12.4124 23.362 12.7415 23.4501C13.0705 23.5382 13.4209 23.494 13.7177 23.3268L13.8919 23.2279C14.1675 23.5329 14.4606 23.8216 14.7696 24.0927L14.6855 24.2355C14.5993 24.383 14.5433 24.5463 14.5207 24.7158C14.4981 24.8852 14.5095 25.0575 14.554 25.2225C14.5985 25.3875 14.6754 25.542 14.7801 25.677C14.8849 25.812 15.0154 25.9248 15.1641 26.0088L16.7265 26.8955C17.0233 27.0625 17.3736 27.1068 17.7025 27.019C18.0315 26.9312 18.3133 26.7182 18.4877 26.4254L18.5819 26.2656C18.9816 26.3962 19.3885 26.5035 19.8006 26.587V26.7463C19.8019 27.0897 19.9393 27.4186 20.1825 27.6608C20.4257 27.903 20.7549 28.0387 21.0979 28.0381H22.9017C23.2446 28.0387 23.5738 27.903 23.8171 27.6608C24.0603 27.4186 24.1976 27.0897 24.199 26.7463V26.587C24.611 26.5035 25.0179 26.3962 25.4176 26.2656L25.5123 26.4263C25.6871 26.7187 25.9689 26.9313 26.2978 27.0189C26.6267 27.1065 26.9767 27.0622 27.2735 26.8955L28.836 26.0084C28.9847 25.9243 29.1152 25.8113 29.22 25.6762C29.3247 25.541 29.4015 25.3863 29.4459 25.2211C29.4903 25.056 29.5015 24.8836 29.4787 24.714C29.4559 24.5445 29.3996 24.3812 29.3131 24.2336L29.23 24.0927C29.5389 23.8216 29.832 23.5329 30.1076 23.2279L30.2804 23.3259C30.577 23.4937 30.9274 23.5385 31.2566 23.4508C31.5857 23.3631 31.8676 23.1499 32.0417 22.8567L32.9445 21.3214C33.0314 21.1743 33.088 21.0113 33.1109 20.8419C33.1339 20.6726 33.1227 20.5003 33.078 20.3354ZM32.2492 16.4206H31.8433C31.6158 16.4206 31.396 16.5037 31.2252 16.6541C31.0543 16.8046 30.944 17.0122 30.9149 17.2382C30.8141 18.0204 30.6056 18.785 30.2955 19.51C30.2046 19.7221 30.195 19.9602 30.2686 20.1789C30.3421 20.3976 30.4936 20.5814 30.6941 20.6952L31.0283 20.8847L30.7147 21.418L30.3517 21.212C30.1559 21.1014 29.9268 21.065 29.7063 21.1094C29.4859 21.1539 29.2887 21.2762 29.1509 21.4541C28.6632 22.0839 28.0928 22.6447 27.455 23.1213C27.2703 23.2594 27.1429 23.4608 27.0972 23.6871C27.0516 23.9134 27.0909 24.1486 27.2077 24.3476L27.397 24.6699L26.8388 24.9867L26.6349 24.6397C26.5205 24.4451 26.3398 24.2983 26.126 24.2265C25.9121 24.1547 25.6796 24.1626 25.4711 24.2487C24.765 24.54 24.0248 24.7402 23.2683 24.8443H23.2628C23.0145 24.8443 22.7764 24.9431 22.6008 25.1189C22.4253 25.2947 22.3266 25.5331 22.3266 25.7818V26.1631H21.6729V25.7804C21.6725 25.532 21.5737 25.2939 21.3982 25.1184C21.2227 24.9429 20.9848 24.8443 20.7367 24.8443H20.7312C19.9747 24.7402 19.2345 24.54 18.5284 24.2487C18.3199 24.1626 18.0874 24.1547 17.8736 24.2266C17.6598 24.2984 17.479 24.4451 17.3646 24.6397L17.1607 24.9867L16.6026 24.6699L16.7918 24.3476C16.9086 24.1486 16.9479 23.9134 16.9023 23.6871C16.8567 23.4608 16.7293 23.2594 16.5445 23.1213C15.9068 22.6447 15.3363 22.0839 14.8487 21.4541C14.7109 21.2761 14.5138 21.1536 14.2933 21.1091C14.0728 21.0647 13.8436 21.1012 13.6478 21.212L13.2849 21.418L12.9713 20.8847L13.3054 20.6952C13.5059 20.5814 13.6574 20.3976 13.731 20.1789C13.8045 19.9602 13.7949 19.7221 13.704 19.51C13.3939 18.785 13.1855 18.0204 13.0846 17.2382C13.0555 17.0122 12.9452 16.8046 12.7744 16.6541C12.6035 16.5037 12.3838 16.4206 12.1562 16.4206H11.7503V15.8136H12.1562C12.3838 15.8136 12.6035 15.7306 12.7744 15.5801C12.9452 15.4297 13.0555 15.222 13.0846 14.9961C13.1855 14.2138 13.3939 13.4493 13.704 12.7242C13.7948 12.5123 13.8044 12.2743 13.731 12.0557C13.6575 11.8371 13.5062 11.6534 13.3059 11.5395L12.9713 11.3496L13.2849 10.8163L13.6478 11.0218C13.8436 11.1326 14.0728 11.1692 14.2933 11.1247C14.5138 11.0802 14.7109 10.9577 14.8487 10.7797C15.3361 10.15 15.9066 9.58946 16.5445 9.11342C16.7293 8.97526 16.8567 8.77371 16.9024 8.54735C16.948 8.321 16.9086 8.08574 16.7918 7.88662L16.6026 7.56436L17.1607 7.2476L17.3646 7.59413C17.4789 7.78886 17.6596 7.93569 17.8735 8.00761C18.0873 8.07952 18.3199 8.07168 18.5284 7.98553C19.2722 7.67853 20.0536 7.47269 20.8519 7.37351C21.0785 7.34541 21.287 7.23534 21.4382 7.06403C21.5894 6.89272 21.6729 6.67198 21.6729 6.44335V6.06203H22.3266V6.44335C22.3266 6.67198 22.4101 6.89272 22.5613 7.06403C22.7125 7.23535 22.921 7.34541 23.1476 7.37351C23.9459 7.47268 24.7274 7.67851 25.4711 7.98549C25.6796 8.07168 25.9122 8.07954 26.1261 8.00762C26.3399 7.9357 26.5206 7.78885 26.6349 7.59409L26.8388 7.24757L27.3969 7.56434L27.2077 7.8866C27.0909 8.08571 27.0515 8.32097 27.0972 8.54733C27.1428 8.77369 27.2702 8.97524 27.455 9.11339C28.0929 9.58943 28.6634 10.15 29.1509 10.7796C29.2886 10.9577 29.4857 11.0802 29.7062 11.1247C29.9267 11.1691 30.1559 11.1326 30.3517 11.0218L30.7146 10.8163L31.0282 11.3495L30.6936 11.5395C30.4933 11.6533 30.342 11.8371 30.2685 12.0557C30.1951 12.2742 30.2047 12.5123 30.2955 12.7242C30.6056 13.4492 30.814 14.2138 30.9149 14.996C30.944 15.222 31.0543 15.4296 31.2251 15.5801C31.396 15.7306 31.6157 15.8136 31.8433 15.8136H32.2492L32.2492 16.4206Z"></path></mask><path d="M33.078 20.3354C33.0339 20.1696 32.9571 20.0142 32.8522 19.8786C32.7472 19.743 32.6162 19.6298 32.4668 19.5457L32.3164 19.4606C32.4443 19.0787 32.5501 18.6897 32.6332 18.2956H32.8247C33.1676 18.2961 33.4967 18.1604 33.7399 17.9182C33.983 17.676 34.1202 17.3472 34.1216 17.0038V15.2304C34.1202 14.8871 33.983 14.5582 33.7399 14.3161C33.4967 14.0739 33.1676 13.9382 32.8247 13.9386H32.6332C32.5501 13.5444 32.4443 13.1552 32.3164 12.7732L32.4663 12.688C32.6154 12.6041 32.7462 12.4912 32.8511 12.356C32.956 12.2208 33.033 12.066 33.0775 11.9006C33.1219 11.7353 33.1331 11.5627 33.1101 11.3931C33.0872 11.2234 33.0308 11.06 32.944 10.9124L32.0426 9.37889C31.8687 9.08563 31.5871 8.87211 31.2581 8.78393C30.9291 8.69575 30.5787 8.7399 30.2818 8.90696L30.1076 9.00584C29.8319 8.70126 29.539 8.41271 29.2304 8.14159L29.3141 7.99877C29.4003 7.8512 29.4563 7.68793 29.4788 7.51848C29.5014 7.34903 29.4901 7.17678 29.4455 7.01175C29.401 6.84672 29.3241 6.69221 29.2194 6.55721C29.1147 6.42221 28.9842 6.30942 28.8355 6.22541L27.2731 5.33873C26.9761 5.17217 26.626 5.1281 26.2972 5.21588C25.9683 5.30366 25.6866 5.51638 25.5118 5.80885L25.4176 5.96861C25.0179 5.83797 24.611 5.73052 24.1989 5.64681V5.47881C24.1976 5.13535 24.0602 4.80646 23.817 4.56428C23.5738 4.32211 23.2446 4.18643 22.9017 4.18701H21.0979C20.7549 4.18643 20.4257 4.32211 20.1825 4.56428C19.9393 4.80646 19.8019 5.13535 19.8006 5.47881V5.64681C19.3885 5.73052 18.9816 5.83797 18.5819 5.96861L18.4864 5.80657C18.3114 5.51453 18.0297 5.3023 17.701 5.21495C17.3723 5.1276 17.0225 5.17201 16.726 5.33876L15.1636 6.22589C15.0148 6.31001 14.8843 6.42294 14.7796 6.5581C14.6749 6.69325 14.598 6.84793 14.5536 7.01311C14.5092 7.1783 14.4981 7.35068 14.5209 7.52022C14.5436 7.68976 14.5999 7.85306 14.6864 8.0006L14.7691 8.14159C14.4605 8.41271 14.1676 8.70126 13.8919 9.00584L13.7173 8.90696C13.4207 8.73988 13.0706 8.69557 12.7419 8.7835C12.4131 8.87143 12.1317 9.08463 11.9578 9.37754L11.055 10.9129C10.9685 11.0604 10.9121 11.2237 10.8893 11.3933C10.8664 11.5628 10.8775 11.7352 10.922 11.9005C10.9664 12.0657 11.0432 12.2204 11.148 12.3555C11.2528 12.4907 11.3834 12.6035 11.5322 12.6876L11.6831 12.7732C11.5552 13.1552 11.4494 13.5444 11.3663 13.9386H11.1748C10.8319 13.9381 10.5028 14.0739 10.2596 14.316C10.0165 14.5582 9.87926 14.887 9.87793 15.2304V17.0038C9.87925 17.3472 10.0165 17.676 10.2596 17.9182C10.5028 18.1604 10.8319 18.2961 11.1748 18.2956H11.3663C11.4494 18.6897 11.5552 19.0787 11.6831 19.4606L11.5332 19.5457C11.3842 19.6298 11.2534 19.7427 11.1484 19.8779C11.0435 20.0132 10.9666 20.168 10.9221 20.3334C10.8776 20.4988 10.8665 20.6713 10.8894 20.8411C10.9123 21.0108 10.9688 21.1742 11.0555 21.3218L11.9569 22.8553C12.1309 23.1486 12.4124 23.362 12.7415 23.4501C13.0705 23.5382 13.4209 23.494 13.7177 23.3268L13.8919 23.2279C14.1675 23.5329 14.4606 23.8216 14.7696 24.0927L14.6855 24.2355C14.5993 24.383 14.5433 24.5463 14.5207 24.7158C14.4981 24.8852 14.5095 25.0575 14.554 25.2225C14.5985 25.3875 14.6754 25.542 14.7801 25.677C14.8849 25.812 15.0154 25.9248 15.1641 26.0088L16.7265 26.8955C17.0233 27.0625 17.3736 27.1068 17.7025 27.019C18.0315 26.9312 18.3133 26.7182 18.4877 26.4254L18.5819 26.2656C18.9816 26.3962 19.3885 26.5035 19.8006 26.587V26.7463C19.8019 27.0897 19.9393 27.4186 20.1825 27.6608C20.4257 27.903 20.7549 28.0387 21.0979 28.0381H22.9017C23.2446 28.0387 23.5738 27.903 23.8171 27.6608C24.0603 27.4186 24.1976 27.0897 24.199 26.7463V26.587C24.611 26.5035 25.0179 26.3962 25.4176 26.2656L25.5123 26.4263C25.6871 26.7187 25.9689 26.9313 26.2978 27.0189C26.6267 27.1065 26.9767 27.0622 27.2735 26.8955L28.836 26.0084C28.9847 25.9243 29.1152 25.8113 29.22 25.6762C29.3247 25.541 29.4015 25.3863 29.4459 25.2211C29.4903 25.056 29.5015 24.8836 29.4787 24.714C29.4559 24.5445 29.3996 24.3812 29.3131 24.2336L29.23 24.0927C29.5389 23.8216 29.832 23.5329 30.1076 23.2279L30.2804 23.3259C30.577 23.4937 30.9274 23.5385 31.2566 23.4508C31.5857 23.3631 31.8676 23.1499 32.0417 22.8567L32.9445 21.3214C33.0314 21.1743 33.088 21.0113 33.1109 20.8419C33.1339 20.6726 33.1227 20.5003 33.078 20.3354ZM32.2492 16.4206H31.8433C31.6158 16.4206 31.396 16.5037 31.2252 16.6541C31.0543 16.8046 30.944 17.0122 30.9149 17.2382C30.8141 18.0204 30.6056 18.785 30.2955 19.51C30.2046 19.7221 30.195 19.9602 30.2686 20.1789C30.3421 20.3976 30.4936 20.5814 30.6941 20.6952L31.0283 20.8847L30.7147 21.418L30.3517 21.212C30.1559 21.1014 29.9268 21.065 29.7063 21.1094C29.4859 21.1539 29.2887 21.2762 29.1509 21.4541C28.6632 22.0839 28.0928 22.6447 27.455 23.1213C27.2703 23.2594 27.1429 23.4608 27.0972 23.6871C27.0516 23.9134 27.0909 24.1486 27.2077 24.3476L27.397 24.6699L26.8388 24.9867L26.6349 24.6397C26.5205 24.4451 26.3398 24.2983 26.126 24.2265C25.9121 24.1547 25.6796 24.1626 25.4711 24.2487C24.765 24.54 24.0248 24.7402 23.2683 24.8443H23.2628C23.0145 24.8443 22.7764 24.9431 22.6008 25.1189C22.4253 25.2947 22.3266 25.5331 22.3266 25.7818V26.1631H21.6729V25.7804C21.6725 25.532 21.5737 25.2939 21.3982 25.1184C21.2227 24.9429 20.9848 24.8443 20.7367 24.8443H20.7312C19.9747 24.7402 19.2345 24.54 18.5284 24.2487C18.3199 24.1626 18.0874 24.1547 17.8736 24.2266C17.6598 24.2984 17.479 24.4451 17.3646 24.6397L17.1607 24.9867L16.6026 24.6699L16.7918 24.3476C16.9086 24.1486 16.9479 23.9134 16.9023 23.6871C16.8567 23.4608 16.7293 23.2594 16.5445 23.1213C15.9068 22.6447 15.3363 22.0839 14.8487 21.4541C14.7109 21.2761 14.5138 21.1536 14.2933 21.1091C14.0728 21.0647 13.8436 21.1012 13.6478 21.212L13.2849 21.418L12.9713 20.8847L13.3054 20.6952C13.5059 20.5814 13.6574 20.3976 13.731 20.1789C13.8045 19.9602 13.7949 19.7221 13.704 19.51C13.3939 18.785 13.1855 18.0204 13.0846 17.2382C13.0555 17.0122 12.9452 16.8046 12.7744 16.6541C12.6035 16.5037 12.3838 16.4206 12.1562 16.4206H11.7503V15.8136H12.1562C12.3838 15.8136 12.6035 15.7306 12.7744 15.5801C12.9452 15.4297 13.0555 15.222 13.0846 14.9961C13.1855 14.2138 13.3939 13.4493 13.704 12.7242C13.7948 12.5123 13.8044 12.2743 13.731 12.0557C13.6575 11.8371 13.5062 11.6534 13.3059 11.5395L12.9713 11.3496L13.2849 10.8163L13.6478 11.0218C13.8436 11.1326 14.0728 11.1692 14.2933 11.1247C14.5138 11.0802 14.7109 10.9577 14.8487 10.7797C15.3361 10.15 15.9066 9.58946 16.5445 9.11342C16.7293 8.97526 16.8567 8.77371 16.9024 8.54735C16.948 8.321 16.9086 8.08574 16.7918 7.88662L16.6026 7.56436L17.1607 7.2476L17.3646 7.59413C17.4789 7.78886 17.6596 7.93569 17.8735 8.00761C18.0873 8.07952 18.3199 8.07168 18.5284 7.98553C19.2722 7.67853 20.0536 7.47269 20.8519 7.37351C21.0785 7.34541 21.287 7.23534 21.4382 7.06403C21.5894 6.89272 21.6729 6.67198 21.6729 6.44335V6.06203H22.3266V6.44335C22.3266 6.67198 22.4101 6.89272 22.5613 7.06403C22.7125 7.23535 22.921 7.34541 23.1476 7.37351C23.9459 7.47268 24.7274 7.67851 25.4711 7.98549C25.6796 8.07168 25.9122 8.07954 26.1261 8.00762C26.3399 7.9357 26.5206 7.78885 26.6349 7.59409L26.8388 7.24757L27.3969 7.56434L27.2077 7.8866C27.0909 8.08571 27.0515 8.32097 27.0972 8.54733C27.1428 8.77369 27.2702 8.97524 27.455 9.11339C28.0929 9.58943 28.6634 10.15 29.1509 10.7796C29.2886 10.9577 29.4857 11.0802 29.7062 11.1247C29.9267 11.1691 30.1559 11.1326 30.3517 11.0218L30.7146 10.8163L31.0282 11.3495L30.6936 11.5395C30.4933 11.6533 30.342 11.8371 30.2685 12.0557C30.1951 12.2742 30.2047 12.5123 30.2955 12.7242C30.6056 13.4492 30.814 14.2138 30.9149 14.996C30.944 15.222 31.0543 15.4296 31.2251 15.5801C31.396 15.7306 31.6157 15.8136 31.8433 15.8136H32.2492L32.2492 16.4206Z" fill="#0CB4C4" stroke="white" stroke-width="0.4" mask="url(#path-5-inside-1_1379_96)"></path><path d="M32.623 45.2119C33.9773 44.4184 35.5426 44.0607 37.1064 44.1875C38.6702 44.3144 40.1572 44.9196 41.3662 45.9209C42.4997 46.8596 43.3376 48.1042 43.7822 49.5039L43.8662 49.7861V49.7881C43.9025 49.9128 43.9099 50.0441 43.8867 50.1719C43.8635 50.2998 43.8103 50.4204 43.7324 50.5244C43.6545 50.6284 43.5536 50.7134 43.4375 50.7715C43.3215 50.8295 43.1931 50.8594 43.0635 50.8594H38.8643L38.835 50.9004L38.0488 51.9717L38.0059 52.0312L38.0488 52.0898L38.835 53.1621L38.8643 53.2031H43.0635C43.1932 53.2031 43.3215 53.233 43.4375 53.291C43.5536 53.3491 43.6545 53.4341 43.7324 53.5381C43.8103 53.642 43.8635 53.7628 43.8867 53.8906C43.9041 53.9864 43.9048 54.0842 43.8887 54.1797L43.8662 54.2744V54.2764C43.4483 55.7908 42.5753 57.1402 41.3662 58.1416C40.1572 59.1428 38.6702 59.7481 37.1064 59.875C35.5426 60.0018 33.9773 59.644 32.623 58.8506C31.2688 58.0571 30.19 56.866 29.5342 55.4385L29.5078 55.3799H14.4922L14.4658 55.4385C13.81 56.866 12.7312 58.0571 11.377 58.8506C10.0227 59.644 8.45741 60.0018 6.89355 59.875C5.32982 59.7481 3.84282 59.1428 2.63379 58.1416C1.50014 57.2027 0.662388 55.9576 0.217773 54.5576L0.133789 54.2764V54.2744L0.111328 54.1797C0.095241 54.0842 0.0959296 53.9864 0.113281 53.8906C0.136514 53.7628 0.189746 53.642 0.267578 53.5381C0.34547 53.4341 0.446424 53.3491 0.5625 53.291C0.649385 53.2475 0.742893 53.2193 0.838867 53.208L0.936523 53.2031H5.13574L5.16504 53.1621L5.95117 52.0898L5.99414 52.0312L5.95117 51.9717L5.16504 50.9004L5.13574 50.8594H0.936523L0.838867 50.8535C0.742957 50.8423 0.649334 50.8149 0.5625 50.7715C0.446424 50.7134 0.34547 50.6284 0.267578 50.5244C0.189687 50.4204 0.136524 50.2998 0.113281 50.1719C0.0959047 50.0761 0.095266 49.9783 0.111328 49.8828L0.133789 49.7881V49.7861C0.551703 48.2716 1.42467 46.9223 2.63379 45.9209C3.84284 44.9196 5.32978 44.3144 6.89355 44.1875C8.45745 44.0607 10.0227 44.4184 11.377 45.2119C12.7313 46.0055 13.81 47.1965 14.4658 48.624L14.4922 48.6826H29.5078L29.5342 48.624C30.19 47.1965 31.2687 46.0055 32.623 45.2119ZM39.3789 46.5938C38.3647 46.028 37.2079 45.7702 36.0498 45.8525C34.8917 45.9349 33.7826 46.3539 32.8584 47.0576C31.992 47.7174 31.3234 48.6008 30.9229 49.6113L30.8457 49.8145C30.786 49.9737 30.6796 50.111 30.54 50.208C30.4001 50.3053 30.2338 50.3574 30.0635 50.3574H13.9365L13.8096 50.3477C13.6845 50.3284 13.5648 50.2809 13.46 50.208C13.3203 50.111 13.213 49.9738 13.1533 49.8145H13.1543C12.7655 48.7191 12.0657 47.7613 11.1416 47.0576C10.2174 46.3539 9.10832 45.9349 7.9502 45.8525C6.79209 45.7702 5.63535 46.028 4.62109 46.5938C3.67008 47.1243 2.88301 47.9039 2.34375 48.8477L2.23926 49.0381L2.16309 49.1846H5.55957C5.69077 49.1847 5.82047 49.216 5.9375 49.2754C6.0252 49.32 6.10419 49.3795 6.1709 49.4512L6.2334 49.5264L7.70508 51.5361C7.81032 51.6797 7.86719 51.8531 7.86719 52.0312C7.86717 52.1647 7.8356 52.2955 7.77539 52.4131L7.70508 52.5264L6.2334 54.5352C6.15582 54.6411 6.05446 54.7277 5.9375 54.7871C5.82047 54.8465 5.69077 54.8778 5.55957 54.8779H2.16309L2.23926 55.0244C2.77887 56.0538 3.60686 56.903 4.62109 57.4688C5.63532 58.0345 6.79213 58.2923 7.9502 58.21C9.10832 58.1276 10.2174 57.7086 11.1416 57.0049C12.0657 56.3012 12.7654 55.3434 13.1543 54.248L13.1533 54.2471C13.213 54.088 13.3206 53.9514 13.46 53.8545C13.5648 53.7816 13.6845 53.7341 13.8096 53.7148L13.9365 53.7051H30.0635C30.2338 53.7051 30.4001 53.7572 30.54 53.8545C30.6793 53.9513 30.786 54.0881 30.8457 54.2471V54.248C31.2346 55.3434 31.9343 56.3012 32.8584 57.0049C33.7826 57.7086 34.8917 58.1276 36.0498 58.21C37.2079 58.2923 38.3647 58.0345 39.3789 57.4688C40.3931 56.903 41.2211 56.0538 41.7607 55.0244L41.8369 54.8779H38.4404L38.3428 54.8721C38.2455 54.8606 38.1503 54.8317 38.0625 54.7871C37.9748 54.7425 37.8958 54.683 37.8291 54.6113L37.7666 54.5352L36.2949 52.5264C36.1897 52.3828 36.1328 52.2094 36.1328 52.0312L36.1436 51.8984C36.1575 51.8114 36.1844 51.7268 36.2246 51.6484L36.2949 51.5361L37.7666 49.5264C37.8441 49.4206 37.9457 49.3348 38.0625 49.2754C38.1503 49.2308 38.2455 49.202 38.3428 49.1904L38.4404 49.1846H41.8369L41.7607 49.0381C41.2211 48.0087 40.3932 47.1595 39.3789 46.5938Z" fill="#0CB4C4" stroke="white" stroke-width="0.2"></path></svg>