<svg width="64" height="62" viewBox="0 0 64 62" fill="none" xmlns="http://www.w3.org/2000/svg" aria-labelledby="svgtitle"><title id="svgTitle">Inform</title><path d="M51.2787 48.4596L61.871 37.9333C63.211 36.6017 63.0749 31.4398 62.8708 28.4823C62.575 24.1318 61.8326 19.8131 61.0606 17.9762C60.0371 15.5393 58.4694 14.1754 57.0554 14.5134C55.4196 14.9044 54.6624 17.3736 54.9642 21.3008C54.973 21.3978 54.9878 21.489 55.0085 21.5713C55.0914 21.8887 55.189 22.1651 55.2895 22.4355C55.7599 23.7759 56.2065 25.0546 54.5412 30.4725C53.5177 30.299 52.4144 30.5842 51.7785 31.3015C51.4383 31.6189 50.8408 32.2127 50.1516 32.9035C49.1962 33.8588 47.6077 35.455 47.2676 35.6579C46.957 35.7402 45.2148 35.8696 44.2682 35.9431L43.7831 35.9813C43.2536 36.0195 42.5881 36.3869 41.8072 37.0572C39.497 39.0443 38.1511 41.8957 38.0357 44.9587C37.666 44.7324 37.2252 44.6589 36.8023 44.7559C36.3704 44.8529 36.0006 45.1086 35.764 45.4849L32.803 50.1441C32.312 50.9113 32.5457 51.9343 33.3266 52.4252L46.5632 60.7323C46.8353 60.9057 47.1459 60.988 47.4506 60.988C48.0037 60.988 48.5421 60.7176 48.8586 60.2208L51.8196 55.5616C52.3106 54.7944 52.0769 53.7715 51.3049 53.2806L50.1099 52.528L50.7163 49.5267C50.7872 49.1152 50.9829 48.7477 51.2787 48.4596ZM51.1427 54.5122C51.187 54.7092 51.1516 54.912 51.0451 55.0766L48.0841 59.7358C47.8652 60.0827 47.3949 60.1885 47.0458 59.968L33.8176 51.6579C33.4686 51.4403 33.3621 50.973 33.5839 50.6261L36.5449 45.9669C36.6514 45.8023 36.817 45.6817 37.0152 45.6347C37.0684 45.62 37.1276 45.62 37.1808 45.62C37.3258 45.62 37.4618 45.6582 37.5831 45.7317L49.3438 53.1071L50.8199 54.0331C50.9825 54.1507 51.1042 54.3153 51.1427 54.5122ZM49.8116 49.3474L49.2732 52.0107L38.9384 45.523C38.9 42.5129 40.166 39.6821 42.414 37.7509C43.2777 37.0072 43.7155 36.9014 43.8693 36.8926L44.3456 36.8544C46.3748 36.6956 47.3302 36.6133 47.6023 36.5163C47.9366 36.3958 48.6938 35.6668 50.8117 33.5503C51.4773 32.8801 52.1073 32.2569 52.4327 31.9541C52.4475 31.9394 52.4623 31.9306 52.4711 31.9159C53.0775 31.2075 54.4944 31.1193 55.3256 31.7366C56.0917 32.301 56.0917 33.2651 55.3256 34.4469C55.3019 34.4763 55.2812 34.5057 55.2487 34.538L49.1611 40.5877C48.9866 40.7611 48.9866 41.0551 49.1611 41.2285C49.3356 41.4019 49.6314 41.4019 49.806 41.2285L55.8935 35.1789C55.9704 35.1024 56.0384 35.0201 56.0917 34.9378C57.6209 32.5744 56.3106 31.3339 55.8728 31.0165C55.7367 30.9106 55.5859 30.8283 55.435 30.7519C57.1832 25.0492 56.6922 23.6323 56.1686 22.1505C56.0769 21.8948 55.9882 21.6302 55.9113 21.3451C55.9024 21.3157 55.8965 21.2687 55.8876 21.2393C55.577 17.2503 56.4466 15.61 57.2808 15.4072C58.0616 15.219 59.3247 16.1685 60.2328 18.335C61.7384 21.9389 62.9807 35.5663 61.2326 37.3069L50.6373 47.822C50.2202 48.2365 49.9328 48.7625 49.8116 49.3474Z" fill="#0CB4C4" stroke="#0CB4C4" stroke-width="0.5"></path><path d="M28.245 45.4879C28.0113 45.1116 27.6386 44.8559 27.2067 44.7589C26.7837 44.6619 26.343 44.7354 25.9644 44.9617C25.8431 41.8987 24.5031 39.0473 22.193 37.0602C21.4061 36.3841 20.7465 36.0225 20.217 35.9843L19.7319 35.9461C18.7853 35.8696 17.0283 35.7432 16.7325 35.6609C16.3924 35.4581 14.801 33.8619 13.8485 32.9065C13.1593 32.2128 12.5618 31.619 12.2217 31.3045C11.5857 30.5813 10.4883 30.305 9.45893 30.4755C7.79951 25.0579 8.24023 23.7792 8.71057 22.4385C8.80818 22.168 8.89988 21.8888 8.99157 21.5743C9.01524 21.492 9.03003 21.4008 9.03594 21.3038C9.33766 17.3825 8.58041 14.9161 6.94467 14.5223C5.53665 14.1842 3.96008 15.5453 2.93954 17.9851C2.17344 19.8223 1.42506 24.1406 1.12928 28.4911C0.925183 31.4484 0.789114 36.6102 2.12907 37.9421L12.7214 48.4685C13.0172 48.7625 13.2124 49.1299 13.2982 49.5385L13.9045 52.5398L12.7095 53.2924C12.3309 53.5246 12.0736 53.895 11.976 54.3242C11.8784 54.7533 11.9523 55.1972 12.1949 55.5735L15.1558 60.2327C15.4753 60.7295 16.0107 60.9999 16.5638 60.9999C16.8656 60.9999 17.1761 60.9176 17.4512 60.7442L30.6878 52.437C31.0664 52.2048 31.3238 51.8344 31.4214 51.4052C31.519 50.9761 31.4451 50.5321 31.2025 50.1559L28.245 45.4879ZM14.2035 49.3475C14.0822 48.7684 13.8012 48.2334 13.3782 47.819L2.78592 37.2926C1.03775 35.5553 2.28602 21.9245 3.7857 18.3206C4.69379 16.1542 5.95096 15.2047 6.73183 15.3929C7.57191 15.5957 8.43562 17.2359 8.125 21.2161C8.125 21.2602 8.11613 21.2985 8.10134 21.3279C8.02443 21.613 7.92681 21.8776 7.844 22.1333C7.32043 23.6149 6.8383 25.0317 8.57757 30.7347C8.42672 30.8111 8.27586 30.8934 8.1398 30.9992C7.70202 31.3226 6.39163 32.5572 7.92091 34.9265C7.97415 35.0088 8.04219 35.0911 8.11909 35.1676L14.2066 41.2172C14.3812 41.3907 14.6769 41.3907 14.8515 41.2172C15.026 41.0438 15.026 40.7498 14.8515 40.5764L8.76393 34.5268C8.73435 34.4974 8.71069 34.468 8.68703 34.4356C7.92092 33.2539 7.92092 32.2897 8.68703 31.7253C9.5212 31.108 10.9351 31.1991 11.5414 31.9046C11.5562 31.9193 11.5651 31.934 11.5799 31.9429C11.9053 32.2368 12.5353 32.8688 13.2009 33.539C15.3129 35.6614 16.079 36.3845 16.4044 36.5051C16.6765 36.6021 17.6231 36.6932 19.6611 36.8431L20.1373 36.8813C20.2882 36.896 20.7289 37.0018 21.5927 37.7397C23.8408 39.6739 25.1067 42.5017 25.0683 45.5118L14.7418 52.0053L14.2035 49.3475ZM30.5311 51.1936C30.4867 51.3905 30.3714 51.5551 30.1968 51.6609L16.9603 59.9681C16.6112 60.1856 16.1439 60.0798 15.922 59.7359L12.961 55.0767C12.8546 54.9121 12.8161 54.7092 12.8634 54.5123C12.9078 54.3153 13.0232 54.1507 13.1977 54.0449L14.6737 53.1189L26.4344 45.7435C26.6001 45.6377 26.8042 45.5995 27.0023 45.6465C27.2005 45.6906 27.3662 45.8053 27.4727 45.9787L30.4336 50.6379C30.546 50.7937 30.5755 50.9966 30.5311 51.1936Z" fill="#0CB4C4" stroke="#0CB4C4" stroke-width="0.5"></path><path d="M29.8187 18.9756C30.4251 18.8315 31.0078 18.6669 31.4633 18.5405L28.6384 26.9621C28.3574 27.7911 28.6089 28.6935 29.2655 29.2638C29.6589 29.6018 30.1677 29.7899 30.6883 29.7899C31.0226 29.7899 31.3479 29.7135 31.6496 29.5636C31.6644 29.5548 31.6733 29.5489 31.6881 29.5401C31.7029 29.5313 33.5516 28.4025 35.3234 27.1914C38.9203 24.731 39.012 24.1371 38.7754 23.6551C38.3524 22.8055 36.27 23.1142 34.3148 23.6316L37.1781 15.0979C37.4591 14.263 37.2077 13.3606 36.5332 12.7874C35.8588 12.2142 34.9211 12.1025 34.1313 12.5081C34.1225 12.517 34.1077 12.5228 34.1018 12.5228C34.0781 12.5375 32.1111 13.7574 30.2179 15.0656C26.3933 17.7082 26.2868 18.3167 26.5294 18.7988C26.837 19.4043 27.7895 19.4518 29.8187 18.9756ZM34.5603 13.3169C35.0158 13.0906 35.5512 13.1582 35.9298 13.4904C36.3173 13.8226 36.4682 14.3487 36.2996 14.8308L33.1642 24.1697C33.1109 24.3284 33.1494 24.5077 33.2706 24.6282C33.3919 24.7488 33.5664 24.7928 33.7262 24.7488C35.4684 24.2373 37.2551 23.9433 37.8318 24.0638C37.2403 24.8546 34.0752 27.0357 31.2208 28.7759C30.783 28.9876 30.2298 28.9112 29.8571 28.5878C29.4696 28.2556 29.3276 27.7295 29.4933 27.2562L32.5992 17.9933C32.6524 17.8287 32.614 17.6553 32.4868 17.526C32.404 17.4436 32.2827 17.3907 32.1614 17.3907C32.117 17.3907 32.0638 17.3996 32.0165 17.4142C30.0997 18.0551 28.1385 18.4666 27.4641 18.3931C28.1622 17.5377 31.5313 15.1924 34.5603 13.3169Z" fill="#0CB4C4" stroke="#0CB4C4" stroke-width="0.5"></path><path d="M37.6777 11.0599C39.3903 11.0599 40.7836 9.67536 40.7836 7.97329C40.7836 6.27122 39.3904 4.88672 37.6777 4.88672C35.965 4.88672 34.5718 6.27122 34.5718 7.97329C34.5747 9.67528 35.968 11.0599 37.6777 11.0599ZM37.6777 5.80097C38.8905 5.80097 39.8725 6.77985 39.8725 7.98209C39.8725 9.18734 38.8874 10.1632 37.6777 10.1632C36.4649 10.1632 35.4829 9.18433 35.4829 7.98209C35.4829 6.77684 36.4738 5.80097 37.6777 5.80097Z" fill="#0CB4C4" stroke="#0CB4C4" stroke-width="0.5"></path><path d="M33.7501 33.3121C42.7159 33.3121 50.0073 26.066 50.0073 17.156C50.0073 8.24602 42.7159 1 33.7501 1C24.7844 1 17.4929 8.24602 17.4929 17.156C17.49 26.0569 24.7843 33.3121 33.7501 33.3121ZM33.7501 1.894C42.2161 1.894 49.0994 8.73433 49.0994 17.1477C49.0994 25.5612 42.2162 32.4015 33.7501 32.4015C25.2842 32.4015 18.4009 25.5612 18.4009 17.1477C18.4009 8.73433 25.284 1.894 33.7501 1.894Z" fill="#0CB4C4" stroke="#0CB4C4" stroke-width="0.5"></path></svg>