<svg width="62" height="60" viewBox="0 0 62 60" fill="none" xmlns="http://www.w3.org/2000/svg" aria-labelledby="svgtitle"><title id="svgTitle">FinOps Consulting &amp; Assessment</title><path d="M48.204 54.9735V58.3952H56.982V47.6127C56.982 47.374 57.1015 47.122 57.3007 46.9761C58.4295 46.1273 59.4255 45.1194 60.3153 44.0186C59.9169 42.1618 59.1201 40.6233 58.0444 39.443C56.8758 38.13 55.3752 37.2149 53.755 36.6976C52.7723 37.1751 51.6834 37.4271 50.5147 37.4271C49.3594 37.4271 48.2572 37.1618 47.2745 36.6976C45.6543 37.2149 44.1537 38.13 42.9851 39.443C41.9227 40.6366 41.1126 42.1618 40.7142 44.0186C41.4977 45 42.6929 46.2467 43.6889 46.9496C43.9014 47.0955 44.0474 47.3342 44.0474 47.6127V50.5836L47.8986 54.3501C48.0978 54.5358 48.1908 54.695 48.204 54.9735ZM43.2507 60C30.2231 60 17.2089 60 4.19463 60C3.74312 60 3.38456 59.6419 3.38456 59.191V47.9973C2.18938 47.0557 1.11371 45.9284 0.17084 44.695C0.0380419 44.5225 -0.0283571 44.2971 0.0114824 44.0584C0.728594 40.1326 3.10569 37.1088 6.55845 35.5836C3.27832 32.7454 3.10569 27.7321 6.17333 24.6552C9.0949 21.7507 13.8225 21.7507 16.7441 24.6552C19.825 27.7321 19.6258 32.7321 16.359 35.5836C17.7932 36.2069 19.1079 37.122 20.1836 38.3422C21.4983 39.8143 22.4677 41.6976 22.8927 44.0186C22.9458 44.244 22.8927 44.496 22.7466 44.695C21.7904 45.9284 20.728 47.0424 19.5329 47.9973V49.0053L23.955 44.6817C24.1011 44.5225 24.3136 44.4164 24.5659 44.4164H37.4208C37.62 44.4164 37.8192 44.496 37.9918 44.6419L42.4539 49.0053V47.9973C41.2587 47.0557 40.183 45.9284 39.2401 44.695C39.0808 44.496 39.0409 44.244 39.0941 44.0186C39.519 41.7109 40.4884 39.8143 41.8032 38.3422C42.8921 37.1353 44.2068 36.2069 45.641 35.5836C42.3609 32.7454 42.175 27.7188 45.2559 24.6552C48.1642 21.7507 52.9051 21.7507 55.8267 24.6552C58.8943 27.7321 58.7084 32.7321 55.4416 35.5836C58.8943 37.0955 61.2714 40.1194 61.9885 44.0584C62.0284 44.2971 61.962 44.5093 61.8292 44.695C60.8863 45.9151 59.8106 47.0424 58.6154 47.9973V59.191C58.6154 59.6419 58.2569 60 57.8054 60H43.2507ZM13.7827 58.3952V54.9735C13.7827 54.7215 13.9022 54.5093 14.0748 54.3634L17.926 50.5968V47.626C17.926 47.3475 18.0721 47.0955 18.2845 46.9629C19.2805 46.2467 20.4757 45.0133 21.2592 44.0318C20.8608 42.1751 20.064 40.6366 18.9884 39.4562C17.8198 38.1432 16.3191 37.2281 14.699 36.7109C13.7163 37.1883 12.6273 37.4403 11.4587 37.4403C10.2901 37.4403 9.20113 37.1751 8.21843 36.7109C6.59829 37.2281 5.09766 38.1432 3.92904 39.4562C2.86665 40.6499 2.05658 42.1751 1.65818 44.0318C2.54793 45.1459 3.54392 46.1406 4.67271 46.9894C4.87191 47.1485 4.99142 47.3873 4.99142 47.626V58.4085H13.7827V58.3952ZM15.4028 55.7692V58.3952H46.5972V55.7692H15.4028ZM24.8846 46.0345L16.5582 54.1645H45.4153L37.1021 46.0345H24.8846ZM50.5147 24.1114C45.309 24.1114 42.6796 30.4244 46.3714 34.1114C50.0499 37.7984 56.3844 35.1724 56.3844 29.9735C56.3844 26.7241 53.755 24.1114 50.5147 24.1114ZM9.00194 6.83024C9.00194 7.89125 7.39508 7.89125 7.39508 6.83024C7.39508 1.65783 13.6897 -0.954907 17.355 2.70557C19.918 5.27851 19.5461 9.52255 16.5847 11.6048C15.7348 12.2016 14.3006 12.8382 14.0748 14.3899C13.9155 15.4377 12.3352 15.1989 12.4813 14.1645C12.8265 11.8435 14.606 11.0345 15.6684 10.2785C17.8198 8.77984 18.0986 5.70292 16.2262 3.83289C13.5569 1.19363 9.00194 3.09019 9.00194 6.83024ZM12.4281 17.0027C12.4281 15.9549 14.035 15.9549 14.035 17.0027V17.7321C14.035 18.7931 12.4281 18.7931 12.4281 17.7321V17.0027ZM31.6042 10.7825C30.5418 10.7825 30.5418 9.17772 31.6042 9.17772H44.1802C45.2426 9.17772 45.2426 10.7825 44.1802 10.7825H31.6042ZM31.6042 7.08223C30.5418 7.08223 30.5418 5.47745 31.6042 5.47745H39.4128C40.4752 5.47745 40.4752 7.08223 39.4128 7.08223H31.6042ZM46.2121 1.60477H29.5326C28.8686 1.60477 28.3241 2.14854 28.3241 2.79841V12.8249C28.3241 13.4881 28.8686 14.0318 29.5326 14.0318H39.8909C40.183 14.0318 40.4353 14.191 40.5814 14.4164L43.3702 18.3687V14.8408C43.3702 14.3899 43.7287 14.0318 44.1802 14.0318H46.2386C46.9026 14.0318 47.4471 13.4881 47.4471 12.8249V2.81167C47.4205 2.14854 46.8761 1.60477 46.2121 1.60477ZM29.5326 0H46.2121C47.7658 0 49.0274 1.25995 49.0274 2.81167V12.8382C49.0274 14.3899 47.7658 15.6499 46.2121 15.6499H44.9638V20.9151C44.9638 21.6843 43.9545 22.0159 43.503 21.3793L39.4659 15.6499H29.5326C27.9921 15.6499 26.7173 14.3899 26.7173 12.8382V2.81167C26.7173 1.25995 27.9921 0 29.5326 0ZM15.6153 25.8223C11.9368 22.1485 5.6023 24.7613 5.6023 29.9602C5.6023 35.1724 11.9368 37.7851 15.6153 34.0981C17.8994 31.817 17.8994 28.1167 15.6153 25.8223Z" fill="#0CB4C4"></path></svg>