<svg width="62" height="62" viewBox="0 0 62 62" fill="none" xmlns="http://www.w3.org/2000/svg" aria-labelledby="svgtitle"><title id="svgTitle">Cost Anomaly Detection</title><path d="M13.3443 59.7203C12.9904 59.7203 12.7021 59.4343 12.7021 59.0781V56.9078C12.7021 56.5539 12.9881 56.2656 13.3443 56.2656C13.6982 56.2656 13.9865 56.5516 13.9865 56.9078V59.0781C13.9865 59.432 13.6982 59.7203 13.3443 59.7203Z" fill="#0CB4C4" stroke="#0CB4C4" stroke-width="0.3"></path><path d="M19.1266 60.9999C18.7727 60.9999 18.4844 60.714 18.4844 60.3578V56.9078C18.4844 56.5539 18.7703 56.2656 19.1266 56.2656C19.4805 56.2656 19.7687 56.5516 19.7687 56.9078L19.7664 60.3578C19.7664 60.714 19.4805 60.9999 19.1266 60.9999Z" fill="#0CB4C4" stroke="#0CB4C4" stroke-width="0.3"></path><path d="M24.9063 59.7203C24.5524 59.7203 24.2642 59.4343 24.2642 59.0781V56.9078C24.2642 56.5539 24.5501 56.2656 24.9063 56.2656C25.2602 56.2656 25.5485 56.5516 25.5485 56.9078V59.0781C25.5462 59.432 25.2602 59.7203 24.9063 59.7203Z" fill="#0CB4C4" stroke="#0CB4C4" stroke-width="0.3"></path><path d="M30.6861 60.9999C30.3322 60.9999 30.0439 60.714 30.0439 60.3578V56.9078C30.0439 56.5539 30.3299 56.2656 30.6861 56.2656C31.04 56.2656 31.3283 56.5516 31.3283 56.9078V60.3578C31.3283 60.714 31.04 60.9999 30.6861 60.9999Z" fill="#0CB4C4" stroke="#0CB4C4" stroke-width="0.3"></path><path d="M36.4674 59.7203C36.1135 59.7203 35.8252 59.4343 35.8252 59.0781V56.9078C35.8252 56.5539 36.1111 56.2656 36.4674 56.2656C36.8213 56.2656 37.1095 56.5516 37.1095 56.9078V59.0781C37.1072 59.432 36.8213 59.7203 36.4674 59.7203Z" fill="#0CB4C4" stroke="#0CB4C4" stroke-width="0.3"></path><path d="M42.2476 60.9999C41.8937 60.9999 41.6055 60.714 41.6055 60.3578V56.9078C41.6055 56.5539 41.8914 56.2656 42.2476 56.2656C42.6016 56.2656 42.8898 56.5516 42.8898 56.9078L42.8875 60.3578C42.8875 60.714 42.6016 60.9999 42.2476 60.9999Z" fill="#0CB4C4" stroke="#0CB4C4" stroke-width="0.3"></path><path d="M48.0269 59.7203C47.673 59.7203 47.3848 59.4343 47.3848 59.0781V56.9078C47.3848 56.5539 47.6707 56.2656 48.0269 56.2656C48.3808 56.2656 48.6691 56.5516 48.6691 56.9078V59.0781C48.6691 59.432 48.3808 59.7203 48.0269 59.7203Z" fill="#0CB4C4" stroke="#0CB4C4" stroke-width="0.3"></path><path d="M53.7857 60.9999C53.4318 60.9999 53.1436 60.714 53.1436 60.3578V56.9078C53.1436 56.5539 53.4295 56.2656 53.7857 56.2656C54.1396 56.2656 54.4279 56.5516 54.4279 56.9078L54.4256 60.3578C54.4256 60.714 54.1396 60.9999 53.7857 60.9999Z" fill="#0CB4C4" stroke="#0CB4C4" stroke-width="0.3"></path><path d="M5.10135 14.9601H2.92636C2.57245 14.9601 2.28418 14.6742 2.28418 14.318C2.28418 13.9641 2.57011 13.6758 2.92636 13.6758H5.10369C5.45759 13.6758 5.74586 13.9617 5.74586 14.318C5.74352 14.6719 5.45758 14.9601 5.10135 14.9601Z" fill="#0CB4C4" stroke="#0CB4C4" stroke-width="0.3"></path><path d="M5.10152 20.7209H1.64218C1.28827 20.7209 1 20.4349 1 20.0787C1 19.7248 1.28593 19.4365 1.64218 19.4365H5.10386C5.45776 19.4365 5.74604 19.7225 5.74604 20.0787C5.74369 20.4349 5.45776 20.7209 5.10152 20.7209Z" fill="#0CB4C4" stroke="#0CB4C4" stroke-width="0.3"></path><path d="M5.10135 26.4841H2.92636C2.57245 26.4841 2.28418 26.1981 2.28418 25.8419C2.28418 25.488 2.57011 25.1997 2.92636 25.1997H5.10369C5.45759 25.1997 5.74586 25.4856 5.74586 25.8419C5.74352 26.1958 5.45758 26.4841 5.10135 26.4841Z" fill="#0CB4C4" stroke="#0CB4C4" stroke-width="0.3"></path><path d="M5.10152 32.2448H1.64218C1.28827 32.2448 1 31.9589 1 31.6026C1 31.2487 1.28593 30.9604 1.64218 30.9604H5.10386C5.45776 30.9604 5.74604 31.2464 5.74604 31.6026C5.74369 31.9589 5.45776 32.2448 5.10152 32.2448Z" fill="#0CB4C4" stroke="#0CB4C4" stroke-width="0.3"></path><path d="M5.10135 38.0055H2.92636C2.57245 38.0055 2.28418 37.7196 2.28418 37.3634C2.28418 37.0095 2.57011 36.7212 2.92636 36.7212H5.10369C5.45759 36.7212 5.74586 37.0071 5.74586 37.3634C5.74352 37.7196 5.45758 38.0055 5.10135 38.0055Z" fill="#0CB4C4" stroke="#0CB4C4" stroke-width="0.3"></path><path d="M5.10152 43.7687H1.64218C1.28827 43.7687 1 43.4828 1 43.1265C1 42.7726 1.28593 42.4844 1.64218 42.4844H5.10386C5.45776 42.4844 5.74604 42.7703 5.74604 43.1265C5.74369 43.4804 5.45776 43.7687 5.10152 43.7687Z" fill="#0CB4C4" stroke="#0CB4C4" stroke-width="0.3"></path><path d="M5.10135 49.53H2.92636C2.57245 49.53 2.28418 49.244 2.28418 48.8878C2.28418 48.5339 2.57011 48.2456 2.92636 48.2456H5.10369C5.45759 48.2456 5.74586 48.5315 5.74586 48.8878C5.74352 49.244 5.45758 49.53 5.10135 49.53Z" fill="#0CB4C4" stroke="#0CB4C4" stroke-width="0.3"></path><path d="M44.1014 28.753C43.0443 28.753 42.1654 27.9256 42.1022 26.871L41.7764 21.5507C41.6709 20.2499 42.7982 19.0522 44.1014 19.078C45.4068 19.0523 46.5342 20.2499 46.4264 21.5507L46.1006 26.871C46.0373 27.928 45.1584 28.753 44.1014 28.753ZM44.1014 20.3626C43.5131 20.3486 43.0068 20.8876 43.056 21.4736L43.3818 26.7939C43.4053 27.1735 43.7217 27.4712 44.1013 27.4712C44.481 27.4712 44.7975 27.1735 44.8209 26.7939L45.1466 21.4736C45.1982 20.8877 44.6896 20.3486 44.1014 20.3626Z" fill="#0CB4C4" stroke="#0CB4C4" stroke-width="0.3"></path><path d="M44.1012 34.6398C42.7582 34.6398 41.666 33.5476 41.666 32.2047C41.666 30.8617 42.7582 29.7695 44.1012 29.7695C45.4441 29.7695 46.5363 30.8617 46.5363 32.2047C46.5387 33.5476 45.4465 34.6398 44.1012 34.6398ZM44.1012 31.0515C43.466 31.0515 42.948 31.5695 42.948 32.2047C42.948 32.8398 43.466 33.3578 44.1012 33.3578C44.7363 33.3578 45.2543 32.8398 45.2543 32.2047C45.2566 31.5672 44.7387 31.0515 44.1012 31.0515Z" fill="#0CB4C4" stroke="#0CB4C4" stroke-width="0.3"></path><path d="M60.3575 53.3711H49.8834V41.847C49.8834 41.4931 49.5974 41.2048 49.2412 41.2048C48.8873 41.2048 48.599 41.4908 48.599 41.847V53.3711H43.8975V46.9751C43.8975 46.6212 43.6115 46.333 43.2553 46.333C42.9014 46.333 42.6131 46.6189 42.6131 46.9751V53.3711H37.9116V45.693C37.9116 45.3391 37.6257 45.0508 37.2694 45.0508C36.9155 45.0508 36.6273 45.3367 36.6273 45.693V53.3711H31.9257V41.847C31.9257 41.4931 31.6398 41.2048 31.2836 41.2048C30.9297 41.2048 30.6414 41.4908 30.6414 41.847V53.3711H25.9399V44.4108C25.9399 44.0569 25.6539 43.7686 25.2977 43.7686C24.9438 43.7686 24.6555 44.0545 24.6555 44.4108V53.3711H19.954V41.847C19.954 41.4931 19.6681 41.2048 19.3118 41.2048C18.9579 41.2048 18.6697 41.4908 18.6697 41.847V53.3711H13.9681V48.2571C13.9681 47.9032 13.6822 47.6149 13.326 47.6149C12.9721 47.6149 12.6838 47.9008 12.6838 48.2571V53.3711H8.84944V30.5269L16.2018 21.74L24.3978 32.4649C24.6767 32.8539 25.3282 32.7696 25.4993 32.3219L31.5605 17.8075L35.1417 20.6715C33.923 22.4293 33.2081 24.5621 33.2081 26.8586C33.2081 32.8681 38.0971 37.7569 44.1065 37.7569C46.0518 37.7569 47.8799 37.2413 49.4619 36.3436L53.3971 41.3123C54.6861 43.0138 57.3978 43.1732 58.8767 41.6287C59.6173 40.8881 60.0064 39.8639 59.9478 38.8186C59.8869 37.7732 59.3806 36.8006 58.5603 36.1491L53.5916 32.2139C54.4893 30.6319 55.0049 28.8038 55.0049 26.8585C55.0049 22.8601 52.8393 19.361 49.6213 17.465L53.3971 12.8104L53.3643 13.8275C53.362 14.676 54.5901 14.7158 54.6463 13.8697L54.7448 10.9448C54.7682 10.5393 54.358 10.1971 53.9643 10.2979L51.0674 10.9494C50.7229 11.0268 50.5049 11.3713 50.5823 11.7158C50.6596 12.0603 51.0018 12.2783 51.3487 12.201L52.4432 11.9549L48.4588 16.8673C47.1252 16.2861 45.6557 15.9603 44.1112 15.9603C40.8581 15.9603 37.9378 17.3946 35.9386 19.6611L31.7035 16.2744C31.3871 16.0072 30.8621 16.1432 30.7121 16.5275L24.752 30.8032L16.7432 20.3219C16.5089 19.9985 15.9886 19.9867 15.7424 20.3008L8.85867 28.5273L8.84929 1.64217C8.84929 1.28827 8.56336 1 8.20712 1C7.85322 1 7.56494 1.28593 7.56494 1.64217V54.0127C7.56494 54.3666 7.85088 54.6548 8.20712 54.6548L60.3577 54.6525C60.7116 54.6525 60.9998 54.3666 60.9998 54.0103C60.9998 53.6564 60.7139 53.3705 60.3577 53.3705L60.3575 53.3711ZM57.7607 37.155C58.8693 37.9941 58.9723 39.7636 57.9669 40.7222C57.0059 41.7277 55.2364 41.6245 54.3974 40.5159L50.5396 35.6433C51.4373 34.9847 52.2294 34.1925 52.8881 33.2949L57.7607 37.155ZM44.1011 17.2448C49.4026 17.2448 53.7173 21.5573 53.7173 26.8609C53.7173 32.1624 49.4048 36.477 44.1011 36.477C38.7996 36.477 34.485 32.1646 34.485 26.8609C34.4873 21.5571 38.7998 17.2448 44.1011 17.2448Z" fill="#0CB4C4" stroke="#0CB4C4" stroke-width="0.3"></path></svg>