<svg width="60" height="60" viewBox="0 0 60 60" fill="none" xmlns="http://www.w3.org/2000/svg" aria-labelledby="svgtitle"><title id="svgTitle">Predictive Forecasting</title><path d="M8.99286 18.0148C10.3827 18.0118 11.5103 16.8898 11.5133 15.5069C11.5104 15.2257 11.4632 14.9473 11.369 14.6836L15.9063 11.0742C16.8956 11.6924 18.1853 11.5459 19.0127 10.7226L22.9729 12.6123H22.9699C22.8875 13.3623 23.1466 14.1065 23.6766 14.6426C24.2036 15.1816 24.9486 15.4541 25.7023 15.3838C26.4532 15.3164 27.1362 14.915 27.5602 14.2939C27.9842 13.6699 28.102 12.8906 27.887 12.1699L32.286 8.98824C33.2016 9.62106 34.4265 9.57418 35.2922 8.87691L39.4909 11.4521C39.4526 11.6279 39.432 11.8037 39.432 11.9824C39.432 13.1543 40.2476 14.1739 41.396 14.4346C42.5442 14.6924 43.722 14.1269 44.2314 13.0693C44.7408 12.0117 44.4463 10.7431 43.5189 10.0166C42.5943 9.29 41.287 9.29586 40.3713 10.0341L36.1726 7.456C36.2109 7.28021 36.2285 7.10443 36.2285 6.92572C36.2315 6.19622 35.9135 5.50483 35.36 5.0273C34.8064 4.54977 34.0733 4.33589 33.3489 4.43843C32.6246 4.54389 31.9798 4.95699 31.5882 5.57221C31.1936 6.18745 31.0876 6.94037 31.2996 7.64058L26.9007 10.8223C25.9026 10.1367 24.554 10.2568 23.6943 11.1123L19.7341 9.22266L19.737 9.21973C19.8195 8.46387 19.5545 7.70802 19.0127 7.16891C18.468 6.62984 17.7083 6.36618 16.9486 6.45113C16.1861 6.53903 15.5059 6.96383 15.0996 7.61132C14.6933 8.25878 14.602 9.05276 14.8581 9.77344L10.3238 13.3828H10.3208C9.65246 12.9668 8.82213 12.8907 8.08607 13.1719C7.34998 13.4561 6.78756 14.0655 6.56972 14.8213C6.35478 15.5772 6.50789 16.3917 6.98194 17.0186C7.45893 17.6456 8.20374 18.0148 8.99286 18.0148ZM42.7948 11.9825C42.7948 12.3223 42.5887 12.6299 42.2736 12.7589C41.9585 12.8878 41.5964 12.8175 41.3549 12.5772C41.1135 12.337 41.0399 11.9766 41.1724 11.6631C41.3019 11.3496 41.6081 11.1446 41.9496 11.1446C42.4149 11.1446 42.7948 11.5196 42.7948 11.9825ZM33.7111 6.08786C34.0527 6.08786 34.3589 6.29294 34.4884 6.60642C34.618 6.9199 34.5473 7.28026 34.3058 7.52053C34.0644 7.76077 33.6993 7.83108 33.3842 7.70218C33.0721 7.57327 32.866 7.26565 32.866 6.92577C32.866 6.70311 32.9543 6.48924 33.1133 6.33397C33.2723 6.17576 33.4873 6.08786 33.7111 6.08786ZM25.4725 12.0469C25.814 12.0469 26.1202 12.249 26.2528 12.5625C26.3823 12.876 26.3087 13.2393 26.0702 13.4796C25.8288 13.7198 25.4636 13.7901 25.1486 13.6612C24.8335 13.5294 24.6274 13.2247 24.6274 12.8848C24.6303 12.4219 25.0072 12.0469 25.4725 12.0469ZM17.2338 8.10936C17.5724 8.10936 17.8816 8.31444 18.0111 8.62792C18.1436 8.9414 18.07 9.30176 17.8285 9.54203C17.5871 9.78227 17.2249 9.85551 16.9098 9.7266C16.5948 9.59476 16.3887 9.29007 16.3887 8.95019C16.3887 8.4873 16.7656 8.11229 17.2338 8.10936ZM8.9921 14.669C9.33365 14.669 9.64281 14.8741 9.7724 15.1876C9.90196 15.501 9.83129 15.8614 9.58985 16.1017C9.3484 16.3419 8.98625 16.4151 8.66822 16.2833C8.35317 16.1544 8.15 15.8468 8.15 15.5069C8.15 15.044 8.52688 14.669 8.9921 14.669ZM48.4616 37.4595C48.4881 37.4331 48.5116 37.4038 48.5352 37.3716C50.8642 34.7934 51.4619 31.0961 50.0633 27.92C48.6617 24.7441 45.526 22.6758 42.0395 22.6318C42.01 22.6318 41.9776 22.626 41.9482 22.626C41.9187 22.626 41.8863 22.626 41.8569 22.6318H41.854C40.3199 22.6406 38.8124 23.0478 37.4845 23.8125C35.765 24.7969 34.4282 26.3291 33.6891 28.1631C33.6596 28.2188 33.6361 28.2774 33.6184 28.3389C32.4377 31.4356 33.0973 34.9279 35.3291 37.3885C35.3497 37.4149 35.3703 37.4383 35.3939 37.4617C37.0781 39.2782 39.4454 40.3094 41.9275 40.3094C44.4097 40.3094 46.7769 39.2782 48.4612 37.4617L48.4616 37.4595ZM38.3212 25.2546C39.178 24.7624 40.126 24.4519 41.1095 24.3405V27.7301H35.7713C36.3985 26.7047 37.2759 25.8552 38.3212 25.2546ZM35.0293 29.4001H46.1534C46.6157 29.4001 46.9896 29.028 46.9896 28.568C46.9896 28.1081 46.6157 27.7331 46.1534 27.7331H42.788V24.3493C45.4026 24.6627 47.6403 26.3708 48.6208 28.8024C49.5984 31.237 49.1656 34.0085 47.4873 36.0329H36.3632C34.8291 34.1843 34.3256 31.6941 35.0293 29.4001ZM38.3565 37.7027H45.4997C43.2855 38.9566 40.5707 38.9566 38.3565 37.6998V37.7027ZM59.5177 54.6393L54.6536 46.2543C54.1118 45.3197 53.1726 44.678 52.1038 44.5111L49.604 40.2044C51.8829 38.221 53.2992 35.429 53.5495 32.4261C53.7998 29.4202 52.8635 26.4377 50.9408 24.1055V0.832043C50.9408 0.612314 50.8525 0.401374 50.6964 0.243168C50.5404 0.0878938 50.3254 0 50.1046 0H0.839153C0.615375 0 0.403386 0.0878938 0.247326 0.243168C0.0883265 0.401374 0 0.612314 0 0.832043V36.8646C0 37.3246 0.376883 37.6996 0.839168 37.6996H32.0881C33.4926 39.8911 35.5978 41.5522 38.0652 42.4136C40.5296 43.2749 43.2149 43.2896 45.6911 42.4516L48.1909 46.7583C47.7993 47.7632 47.8876 48.8912 48.4294 49.8257L53.2964 58.2138V58.2109C54.2887 59.9218 56.4852 60.5077 58.2047 59.5204C59.9213 58.5331 60.5102 56.3475 59.5179 54.6366L59.5177 54.6393ZM1.67522 1.6671H49.2658V22.4475C47.9967 21.4251 46.5245 20.678 44.9434 20.259C44.2397 20.0715 43.5154 19.9485 42.7881 19.8928V18.3986C42.7881 17.9387 42.4112 17.5666 41.9489 17.5666C41.4866 17.5666 41.1127 17.9387 41.1127 18.3986V19.887C39.343 20.01 37.6265 20.5344 36.0954 21.4192C35.5507 21.7298 35.0355 22.0872 34.5467 22.4798V12.9757C34.5467 12.5158 34.1727 12.1407 33.7104 12.1407C33.2481 12.1407 32.8742 12.5157 32.8742 12.9757V24.1493C32.0027 25.2158 31.3284 26.4316 30.8868 27.7323H26.3082V19.3008C26.2935 18.8496 25.9225 18.4922 25.4691 18.4922C25.0156 18.4922 24.6446 18.8496 24.6328 19.3008V27.7293H18.0698V15.3662C18.0698 14.9063 17.6959 14.5312 17.2336 14.5312C16.7713 14.5312 16.3944 14.9062 16.3944 15.3662V27.7293H9.83135V21.9226C9.83135 21.4627 9.45446 21.0906 8.99218 21.0906C8.52991 21.0906 8.15595 21.4626 8.15595 21.9226V27.7293H4.79053C4.32826 27.7293 3.9543 28.1043 3.9543 28.5643C3.9543 29.0243 4.32824 29.3964 4.79053 29.3964H30.454C30.0389 31.6347 30.3009 33.9433 31.2078 36.0322H1.67522V1.6671ZM41.9429 41.4055C38.0416 41.4084 34.4965 39.1554 32.8623 35.631C31.2252 32.1095 31.7993 27.9607 34.3286 25.0109C34.3404 24.9992 34.3492 24.9875 34.358 24.9758C36.2542 22.7961 39.0073 21.5392 41.9017 21.5245H41.9489H41.9783C42.8322 21.5304 43.686 21.6446 44.5105 21.8673C49.3511 23.1534 52.4838 27.8117 51.8332 32.7544C51.1825 37.6968 46.9513 41.3967 41.943 41.4027L41.9429 41.4055ZM47.7581 41.5197C47.9289 41.4201 48.0937 41.3176 48.2557 41.215L50.2756 44.6955C50.093 44.7629 49.9163 44.8479 49.7485 44.9445C49.5777 45.0412 49.4158 45.1525 49.2656 45.2756L47.2458 41.7951C47.4165 41.7072 47.5873 41.6164 47.7581 41.5197ZM58.2581 56.9181C58.0578 57.6652 57.4277 58.2189 56.6563 58.3185C55.8878 58.4211 55.1341 58.049 54.7453 57.381L49.8812 48.9929C49.6192 48.5564 49.5456 48.032 49.6781 47.5369C49.8076 47.0447 50.1286 46.6228 50.5732 46.3708C51.0148 46.116 51.5448 46.0456 52.0365 46.1804C52.5312 46.3152 52.9522 46.6404 53.2025 47.0857L58.0696 55.4707C58.3228 55.9102 58.3906 56.4317 58.2581 56.9181Z" fill="#0CB4C4"></path></svg>