<svg width="70" height="70" viewBox="0 0 70 70" fill="none" xmlns="http://www.w3.org/2000/svg"><rect x="1.2" y="1.2" width="67.6" height="67.6" rx="33.8" fill="white"></rect><rect x="1.2" y="1.2" width="67.6" height="67.6" rx="33.8" stroke="#EF5A16" stroke-width="1.6"></rect><path d="M30.8065 20.2258C30.8065 19.8387 30.5484 19.5806 30.1613 19.5806H24.0968C23.7097 19.5806 23.4516 19.8387 23.4516 20.2258C23.4516 20.6129 23.7097 20.871 24.0968 20.871H30.1613C30.5484 20.871 30.8065 20.6129 30.8065 20.2258Z" fill="#0CB4C4"></path><path d="M32.6129 20.871H34.5484C34.9355 20.871 35.1935 20.6129 35.1935 20.2258C35.1935 19.8387 34.9355 19.5806 34.5484 19.5806H32.6129C32.2258 19.5806 31.9677 19.8387 31.9677 20.2258C31.9677 20.6129 32.2258 20.871 32.6129 20.871Z" fill="#0CB4C4"></path><path d="M29.3226 45.9677C27.9032 45.9677 26.7419 47.129 26.7419 48.5484C26.7419 49.9677 27.9032 51.129 29.3226 51.129C30.7419 51.129 31.9032 49.9677 31.9032 48.5484C31.9032 47.129 30.7419 45.9677 29.3226 45.9677ZM29.3226 49.8387C28.6129 49.8387 28.0323 49.2581 28.0323 48.5484C28.0323 47.8387 28.6129 47.2581 29.3226 47.2581C30.0323 47.2581 30.6129 47.8387 30.6129 48.5484C30.6129 49.2581 30.0323 49.8387 29.3226 49.8387Z" fill="#0CB4C4"></path><path d="M53.3226 44.8065C53.129 44.0323 52.6129 43.4516 51.8387 43.1935L49.1935 42.2903L50.4839 41C51.2581 40.2258 51.5806 39.129 51.3226 38.0323C51.0645 36.9355 50.2903 36.0968 49.2581 35.7742L41.6452 33.1935V18.871C41.6452 16.7419 39.9032 15 37.7742 15H20.871C18.7419 15 17 16.7419 17 18.871V51.129C17 53.2581 18.7419 55 20.871 55H37.7742C39.9032 55 41.6452 53.2581 41.6452 51.129V49.8387L42.0968 49.3871L43 52.0323C43.2581 52.7419 43.8387 53.3226 44.6129 53.5161C44.8065 53.5806 44.9355 53.5806 45.129 53.5806C45.7097 53.5806 46.2903 53.3226 46.6774 52.9355L52.7419 46.871C53.2581 46.3548 53.5161 45.5806 53.3226 44.8065ZM40.3548 51.129C40.3548 52.5484 39.1935 53.7097 37.7742 53.7097H20.871C19.4516 53.7097 18.2903 52.5484 18.2903 51.129V18.871C18.2903 17.4516 19.4516 16.2903 20.871 16.2903H37.7742C39.1935 16.2903 40.3548 17.4516 40.3548 18.871V32.7419L34.8065 30.871C33.6452 30.4839 32.4194 30.7419 31.5806 31.6452C31.3871 31.8387 31.1935 32.0968 31.0645 32.3548C30.6129 33.129 30.5484 34.0323 30.8065 34.871L35.5806 49.3871C35.9032 50.4194 36.8065 51.2581 37.8387 51.5161C38.0323 51.5806 38.2258 51.5806 38.4194 51.5806C38.4839 51.5806 38.4839 51.5806 38.5484 51.5806C38.7419 51.5806 38.9355 51.5806 39.129 51.5161C39.1935 51.5161 39.1935 51.5161 39.2581 51.5161C39.4516 51.4516 39.5806 51.4516 39.7742 51.3871H39.8387C39.9677 51.3226 40.1613 51.1935 40.3548 51.129C40.2903 51.0645 40.3548 51.0645 40.3548 51.0645V51.129ZM51.8387 45.9677L45.7742 52.0323C45.5161 52.2903 45.1935 52.3548 44.871 52.2903C44.5484 52.2258 44.2903 51.9677 44.2258 51.6452L43 47.9677C42.9355 47.7742 42.7419 47.5806 42.5484 47.5161C42.4839 47.5161 42.4194 47.5161 42.4194 47.5161C42.2258 47.5161 42.0968 47.5806 41.9677 47.7097L39.9032 49.7742C39.4516 50.2258 38.7419 50.4194 38.1613 50.2903C37.5161 50.1613 37 49.6452 36.8065 49.0645L32.0323 34.5484C31.7742 33.8387 31.9677 33.129 32.4839 32.6129C33 32.0968 33.7097 31.9677 34.4194 32.1613L48.871 37.0645C49.5161 37.2581 49.9677 37.7742 50.0968 38.4194C50.2258 39.0645 50.0323 39.7097 49.5806 40.1613L47.5806 42.0968C47.4516 42.2258 47.3871 42.4839 47.3871 42.6774C47.4516 42.871 47.5806 43.0645 47.8387 43.129L51.5161 44.3548C51.8387 44.4839 52.0323 44.6774 52.0968 45C52.1613 45.3871 52.0323 45.7097 51.8387 45.9677Z" fill="#0CB4C4"></path></svg>