<svg xmlns="http://www.w3.org/2000/svg" id="Layer_1" data-name="Layer 1" width="60" height="60" viewBox="0 0 60 60"><defs><style> .cls-1 { fill: #0cb4c4; } </style></defs><path class="cls-1" d="M30,37a6,6,0,0,0-3,11.2V50a3,3,0,0,0,6,0V48.2A6,6,0,0,0,30,37Zm1.6,9.68a1,1,0,0,0-.6.91V50a1,1,0,0,1-2,0V47.59a1,1,0,0,0-.59-.91,4,4,0,1,1,5.26-2.08,4.08,4.08,0,0,1-2.07,2.08Z"></path><path class="cls-1" d="M56,0H4A4,4,0,0,0,0,4V34a4,4,0,0,0,4,4H15V57a3,3,0,0,0,3,3H42a3,3,0,0,0,3-3V38H56a4,4,0,0,0,4-4V4A4,4,0,0,0,56,0ZM43,57a1,1,0,0,1-1,1H18a1,1,0,0,1-1-1V33a1,1,0,0,1,1-1H42a1,1,0,0,1,1,1ZM38,30H36V27a6,6,0,0,0-12,0v3H22V27a8,8,0,0,1,16,0ZM26,30V27a4,4,0,0,1,8,0v3Zm32,4a2,2,0,0,1-2,2H45V33a3,3,0,0,0-3-3H40V27a10,10,0,0,0-20,0v3H18a3,3,0,0,0-3,3v3H4a2,2,0,0,1-2-2V4A2,2,0,0,1,4,2H56a2,2,0,0,1,2,2Z"></path><path class="cls-1" d="M52,22a4,4,0,0,0-2.51.89A4,4,0,0,0,47,22a4,4,0,0,0,0,8,4,4,0,0,0,2.49-.89A4,4,0,1,0,52,22Zm-5,6a2,2,0,1,1,2-2A2,2,0,0,1,47,28Zm5,0a2,2,0,0,1-1.3-.49,4,4,0,0,0,0-3A2,2,0,0,1,52,24a2,2,0,0,1,0,4Z"></path><path class="cls-1" d="M6,16h8a2,2,0,0,0,2-2V8a2,2,0,0,0-2-2H6A2,2,0,0,0,4,8v6A2,2,0,0,0,6,16ZM6,8h8v6H6Z"></path><path class="cls-1" d="M5,22H6a1,1,0,0,0,0-2H5a1,1,0,0,0,0,2Z"></path><path class="cls-1" d="M16,25H5a1,1,0,0,0,0,2H16a1,1,0,0,0,0-2Z"></path><path class="cls-1" d="M54,7a1,1,0,0,0,0-2H43a1,1,0,0,0,0,2Z"></path><path class="cls-1" d="M10,20a1,1,0,0,0,0,2h1a1,1,0,0,0,0-2Z"></path><path class="cls-1" d="M16,20H15a1,1,0,0,0,0,2h1a1,1,0,0,0,0-2Z"></path></svg>