<svg width="53" height="60" viewBox="0 0 53 60" fill="none" xmlns="http://www.w3.org/2000/svg"><path d="M51.0925 8.18799H46.2679C39.0858 8.18799 32.3874 5.50653 26.8973 0.371824L26.7887 0.286449C26.5878 0.10085 26.3244 -0.00149212 26.0514 1.64434e-05C25.7784 0.00152501 25.5161 0.106772 25.3173 0.294579L25.2085 0.367894C19.7168 5.50246 13.0184 8.18799 5.83615 8.18799H1.0124C0.416029 8.18799 0 8.73832 0 9.33703V27.231C0 44.0302 9.16479 51.8833 24.006 59.1084L25.5977 59.8916C25.7416 59.963 25.9 60.0001 26.0605 60C26.2224 60.0001 26.3821 59.963 26.5275 59.8916L28.1002 59.1086C42.942 51.8833 52.1049 44.0302 52.1049 27.2311V9.33703C52.1049 8.73832 51.6886 8.18799 51.0925 8.18799ZM49.9451 27.2311C49.9451 34.8336 48.0408 40.6552 43.8803 45.5544C40.3678 49.6905 35.3827 53.1606 27.1728 57.1577L26.0442 57.7113L24.9111 57.1575C16.7011 53.1606 11.7351 49.6906 8.22258 45.5541C4.06189 40.6551 2.15979 34.8328 2.15979 27.231V10.3562H5.83615C13.3025 10.3562 20.2741 7.64294 26.0524 2.49861C31.8299 7.6424 38.8022 10.3562 46.2679 10.3562H49.9451V27.2311Z" fill="#0CB4C4"></path><path d="M33.607 31.0903C33.8659 31.9464 34.4226 32.6807 35.1757 33.1593C35.9288 33.6378 36.8281 33.8288 37.7097 33.6974C38.5912 33.566 39.3965 33.121 39.9786 32.4434C40.5607 31.7659 40.8809 30.9009 40.8809 30.0061C40.8809 29.1114 40.5607 28.2464 39.9786 27.5689C39.3965 26.8913 38.5912 26.4463 37.7097 26.3149C36.8281 26.1835 35.9288 26.3745 35.1757 26.853C34.4226 27.3316 33.8659 28.0658 33.607 28.922H27.1323V26.3472H30.1528C30.7492 26.3472 31.1819 25.8125 31.1819 25.2137V20.9266H33.0149C33.1975 21.5079 33.515 22.0374 33.9413 22.4714C34.4609 22.9939 35.1232 23.3498 35.8444 23.4943C36.5655 23.6387 37.3131 23.5652 37.9926 23.2829C38.6722 23.0007 39.253 22.5224 39.6617 21.9087C40.0703 21.2949 40.2885 20.5732 40.2885 19.835C40.2885 19.0967 40.0703 18.3751 39.6617 17.7613C39.253 17.1475 38.6722 16.6693 37.9926 16.387C37.3131 16.1048 36.5655 16.0312 35.8444 16.1757C35.1232 16.3201 34.4609 16.6761 33.9413 17.1985C33.5146 17.6381 33.1972 18.1725 33.0149 18.7583H30.1532C29.5568 18.7583 29.0226 19.2275 29.0226 19.8262V24.1789H27.1323V10.3735C27.1325 10.1608 27.0713 9.9525 26.9561 9.7739C26.841 9.5953 26.6767 9.45399 26.4833 9.36704C26.2911 9.28174 26.0782 9.25471 25.8709 9.28929C25.6635 9.32386 25.4708 9.41853 25.3164 9.56164L25.2424 9.60785C21.5739 13.0382 17.1008 14.8283 12.3063 14.8283H9.02616C8.73759 14.8381 8.46445 14.9615 8.26575 15.1718C8.06704 15.3821 7.95873 15.6625 7.96422 15.9523V28.1192C7.96422 39.7228 14.2843 45.135 24.4958 50.1064L25.5847 50.6389C25.7488 50.719 25.9305 50.7559 26.1127 50.746C26.2949 50.7361 26.4715 50.6797 26.626 50.5822C26.7818 50.4796 26.9098 50.3396 26.9982 50.1749C27.0866 50.0101 27.1327 49.8259 27.1323 49.6388V35.8333H29.0222V40.1861C29.0222 40.7848 29.5564 41.254 30.1528 41.254H33.0145C33.1967 41.8401 33.5141 42.3748 33.9409 42.8146C34.4603 43.3353 35.1217 43.6898 35.8417 43.8333C36.5616 43.9767 37.3078 43.9026 37.9858 43.6204C38.6639 43.3382 39.2434 42.8606 39.6511 42.2478C40.0588 41.6351 40.2764 40.9147 40.2764 40.1778C40.2764 39.441 40.0588 38.7206 39.6511 38.1079C39.2434 37.4951 38.6639 37.0175 37.9858 36.7353C37.3078 36.4531 36.5616 36.379 35.8417 36.5224C35.1217 36.6659 34.4603 37.0204 33.9409 37.5411C33.5146 37.9752 33.1971 38.5046 33.0145 39.086H31.1819V34.7985C31.1819 34.1998 30.7492 33.6651 30.1528 33.6651H27.1323V31.0903H33.607ZM36.0606 28.9026C36.278 28.6844 36.555 28.5357 36.8566 28.4755C37.1581 28.4153 37.4707 28.4462 37.7547 28.5643C38.0388 28.6824 38.2816 28.8825 38.4524 29.1391C38.6232 29.3958 38.7143 29.6975 38.7143 30.0061C38.7143 30.3148 38.6232 30.6165 38.4524 30.8732C38.2816 31.1298 38.0388 31.3298 37.7547 31.448C37.4707 31.5661 37.1581 31.597 36.8566 31.5368C36.555 31.4765 36.278 31.3279 36.0606 31.1096C35.7695 30.8168 35.606 30.4199 35.606 30.0061C35.606 29.5924 35.7695 29.1955 36.0606 28.9026ZM35.4684 18.7227C35.6858 18.5044 35.9628 18.3558 36.2644 18.2956C36.5659 18.2353 36.8785 18.2662 37.1625 18.3844C37.4466 18.5025 37.6894 18.7025 37.8602 18.9591C38.031 19.2158 38.1222 19.5175 38.1222 19.8262C38.1222 20.1348 38.031 20.4366 37.8602 20.6932C37.6894 20.9498 37.4466 21.1499 37.1625 21.268C36.8785 21.3861 36.5659 21.417 36.2644 21.3568C35.9628 21.2966 35.6858 21.1479 35.4684 20.9297C35.3235 20.7851 35.2085 20.6132 35.13 20.4238C35.0515 20.2344 35.0111 20.0313 35.0111 19.8262C35.0111 19.621 35.0515 19.418 35.13 19.2286C35.2085 19.0392 35.3235 18.8672 35.4684 18.7227ZM24.9806 47.9311C15.5568 43.2776 10.124 38.4714 10.124 28.1192V16.9966H12.3063C16.8916 17.0086 21.35 15.4859 24.9767 12.6693L24.9806 47.9311ZM35.4684 39.0819C35.6858 38.8637 35.9628 38.715 36.2644 38.6548C36.5659 38.5946 36.8785 38.6255 37.1625 38.7436C37.4466 38.8617 37.6894 39.0618 37.8602 39.3184C38.031 39.575 38.1222 39.8768 38.1222 40.1854C38.1222 40.4941 38.031 40.7958 37.8602 41.0525C37.6894 41.3091 37.4466 41.5091 37.1625 41.6272C36.8785 41.7454 36.5659 41.7763 36.2644 41.7161C35.9628 41.6558 35.6858 41.5072 35.4684 41.2889C35.3236 41.1444 35.2087 40.9725 35.1303 40.7832C35.0518 40.5938 35.0115 40.3908 35.0115 40.1858C35.0115 39.9807 35.0518 39.7777 35.1303 39.5884C35.2087 39.3991 35.3236 39.2272 35.4684 39.0826V39.0819Z" fill="#0CB4C4"></path></svg>