<svg width="62" height="60" viewBox="0 0 62 60" fill="none" xmlns="http://www.w3.org/2000/svg"><path d="M61.6721 12.5437C61.4768 12.4058 61.2217 12.3682 60.995 12.4466L46.1139 17.5729L43.8684 16.799C43.4778 16.6642 43.0527 16.871 42.9172 17.2596C42.7818 17.6481 42.9897 18.0711 43.3802 18.2059L45.3674 18.889V30.555C44.9675 30.5456 44.558 30.5143 44.1329 30.4767C43.4841 30.4203 42.8133 30.3639 42.1267 30.3983C40.3064 30.4955 38.36 31.5608 38.149 33.4221C37.9506 35.2615 39.6103 36.6935 41.2417 37.245C41.7676 37.4236 42.3062 37.5458 42.8258 37.6711C43.6982 37.8748 44.5234 38.0628 45.2131 38.4827C45.2634 38.514 45.3138 38.5485 45.3674 38.5829V58.2081L41.8841 57.008C41.881 56.9108 41.8747 56.8137 41.8652 56.7103C41.7203 55.0903 40.9897 53.5987 40.3409 52.2796C39.5504 50.6909 38.7662 49.1116 37.9851 47.5198C36.971 45.4736 35.7081 42.9292 33.4783 41.4157C32.9618 41.0648 32.3697 40.7859 31.743 40.6011V34.1743C31.743 33.7638 31.4061 33.4316 30.9966 33.4316C30.5841 33.4316 30.2502 33.7669 30.2502 34.1743V40.3316C28.4267 40.2125 26.7953 40.8862 25.8725 42.196C25.019 43.4024 24.9088 44.825 24.8017 46.1975C24.7104 47.3663 24.6254 48.4661 24.0931 49.3373C23.6837 50.011 23.0129 50.5311 22.301 51.0795C21.4066 51.772 20.4807 52.4896 19.9642 53.5894C19.476 54.6109 19.4382 55.8769 19.8382 57.0989L16.6258 58.205L16.6195 18.889L19.0666 18.046C19.4572 17.9113 19.6619 17.4883 19.5296 17.0997C19.3942 16.7112 18.969 16.5075 18.5785 16.6391L15.8731 17.5698L0.992062 12.4434C0.762151 12.3651 0.510197 12.3995 0.314939 12.5405C0.119672 12.6784 0 12.9072 0 13.1484V54.0496C0 54.3692 0.201563 54.6481 0.503908 54.7515L15.6308 59.9594H15.6403C15.6686 59.9688 15.697 59.9751 15.7222 59.9813C15.7316 59.9813 15.7442 59.9876 15.7537 59.9907C15.7946 59.997 15.8355 60.0001 15.8733 60.0001C15.9111 60.0001 15.9552 59.997 15.993 59.9907C16.0025 59.9907 16.0151 59.9845 16.0245 59.9813C16.0528 59.9751 16.0812 59.9688 16.1095 59.9594H16.119L31 54.833L45.881 59.9594H45.8905C45.9188 59.9688 45.9471 59.9751 45.9723 59.9813C45.9818 59.9813 45.9944 59.9876 46.0038 59.9907C46.0448 59.997 46.0857 60.0001 46.1235 60.0001C46.1613 60.0001 46.2054 59.997 46.2432 59.9907C46.2526 59.9907 46.2652 59.9845 46.2747 59.9813C46.303 59.9751 46.3314 59.9688 46.3597 59.9594H46.3692L61.4961 54.7515C61.7984 54.6481 62 54.3661 62 54.0496L61.9874 13.1484C61.9874 12.9072 61.8677 12.6816 61.6725 12.5405L61.6721 12.5437ZM15.1142 18.889V34.7384C15.0008 34.0991 14.7772 33.4536 14.4402 32.8363C13.6277 31.3573 12.3427 30.2324 11.2058 29.2359C10.5538 28.6688 9.90504 28.0985 9.25625 27.5313C8.60432 26.961 7.95552 26.3907 7.30359 25.8267L7.25634 25.7828C6.60756 25.2157 5.93675 24.6329 5.10212 24.26C4.01239 23.7586 2.70537 23.721 1.48656 24.1221V14.1984L15.1138 18.8924L15.1142 18.889ZM1.48691 25.72C2.47586 25.2531 3.5876 25.203 4.48197 25.6135C5.11816 25.8955 5.67878 26.3875 6.26766 26.9014L6.31805 26.9484C6.96998 27.5155 7.61878 28.0859 8.26757 28.653C8.9195 29.2233 9.5683 29.7936 10.2202 30.3576C11.3131 31.3133 12.4469 32.3035 13.1272 33.5507C13.8169 34.8072 13.8893 36.2392 13.313 37.1918C12.8752 37.9125 12.0942 38.4076 11.269 38.934C10.4344 39.4636 9.57457 40.012 8.94787 40.8548C8.03769 42.0737 7.87708 43.5277 7.72591 44.9346C7.64717 45.6553 7.57158 46.329 7.40467 46.9683C6.75274 49.45 4.32768 51.4085 1.48371 51.8502V25.7267L1.48691 25.72ZM1.48691 53.3509C4.99854 52.8871 8.03771 50.4461 8.8534 47.3377C9.04866 46.5951 9.1337 45.8274 9.21243 45.0847C9.351 43.8188 9.47698 42.6281 10.1478 41.7319C10.614 41.1083 11.3226 40.6571 12.0753 40.1808C13.0107 39.5886 13.9744 38.9744 14.5948 37.9529C14.8468 37.533 15.02 37.063 15.1145 36.5679V58.2081L1.48718 53.5141V53.348L1.48691 53.3509ZM46.8604 31.9304C48.4288 31.6296 49.7295 30.7522 50.9893 29.8968C51.3704 29.6367 51.7672 29.3704 52.1546 29.1291C54.5796 27.625 57.5149 26.8228 60.488 26.8447V37.6837C59.3447 37.0946 58.2173 37.0288 57.2724 37.527C55.7985 38.301 55.5119 39.9241 55.2631 41.3592C55.0615 42.503 54.8726 43.584 54.1671 44.1512C53.7923 44.452 53.3324 44.5617 52.8002 44.4865C51.7956 44.3361 50.6429 43.5308 49.9311 42.4904C49.6004 42.0016 49.3107 41.4783 49.0021 40.9237C48.4037 39.8457 47.7832 38.7365 46.8636 37.8937V31.9369L46.8604 31.9304ZM60.4877 25.3595C57.2343 25.3376 54.0219 26.2181 51.3641 27.8663C50.9516 28.1233 50.5422 28.4021 50.1453 28.6685C49.0524 29.4111 48.01 30.1162 46.8573 30.4076V18.8924L60.4846 14.1984V25.3631L60.4877 25.3595ZM43.1629 36.2266C42.6559 36.1075 42.1771 35.9978 41.7205 35.8443C40.6024 35.4651 39.5253 34.569 39.6324 33.5913C39.7427 32.6042 41.0245 31.9525 42.2024 31.8898C42.7818 31.8585 43.3739 31.9086 44.0007 31.9619C44.4479 31.9995 44.9014 32.034 45.3644 32.0433V36.8909C44.6495 36.5713 43.8968 36.3958 43.1661 36.2266L43.1629 36.2266ZM21.303 54.2313C21.6715 53.448 22.4179 52.8714 23.2053 52.2573C23.9926 51.6462 24.8083 51.0164 25.3595 50.1108C26.0776 48.9358 26.1783 47.604 26.2822 46.313C26.3799 45.0847 26.4681 43.9221 27.0853 43.0542C27.8192 42.0138 29.1073 41.7381 30.2411 41.829V53.5167L21.2433 56.6157C20.9693 55.7665 20.9788 54.908 21.3063 54.2311L21.303 54.2313ZM31.7343 42.1803C32.0555 42.3088 32.3579 42.4623 32.6287 42.6472C34.5373 43.9382 35.6522 46.1943 36.6349 48.1809C37.4191 49.7727 38.2001 51.3551 38.9906 52.9407C39.5512 54.0813 40.1244 55.2625 40.3197 56.4752L31.7347 53.5172L31.7343 42.1803ZM46.8612 58.2141V40.2246C47.1478 40.6695 47.4187 41.1458 47.6926 41.6378C48.0013 42.1924 48.3257 42.7721 48.691 43.3174C49.639 44.7118 51.1664 45.7458 52.5805 45.9558C52.7663 45.984 52.949 45.9965 53.1254 45.9965C53.8655 45.9965 54.5426 45.7647 55.1063 45.3103C56.2527 44.3922 56.5078 42.9163 56.7377 41.6159C56.9582 40.3625 57.1471 39.2783 57.9755 38.8459C58.829 38.3947 59.8368 38.9493 60.4919 39.4444V53.5233L46.8646 58.2173L46.8612 58.2141Z" fill="#0CB4C4"></path><path d="M39.2986 11.9923C39.2986 7.43303 35.5697 3.72266 30.987 3.72266C26.4042 3.72266 22.6753 7.43271 22.6753 11.9923C22.6753 16.5515 26.4042 20.2619 30.987 20.2619C35.5697 20.2619 39.2986 16.5518 39.2986 11.9923ZM24.1717 11.9923C24.1717 8.25397 27.2267 5.21141 30.987 5.21141C34.7474 5.21141 37.8024 8.25092 37.8024 11.9923C37.8024 15.7337 34.7474 18.77 30.987 18.77C27.2267 18.77 24.1717 15.7305 24.1717 11.9923Z" fill="#0CB4C4"></path><path d="M30.549 32.6573C30.6813 32.7513 30.8325 32.7983 30.9868 32.7983C31.1411 32.7983 31.2923 32.7513 31.4245 32.6573C31.897 32.3188 43.0394 24.1903 43.0394 11.9917C43.0394 5.38001 37.6319 0 30.9868 0C24.3416 0 18.9341 5.38017 18.9341 11.9917C18.9341 24.1935 30.0765 32.3187 30.549 32.6573ZM30.9868 1.48883C36.807 1.48883 41.5439 6.2016 41.5439 11.9925C41.5439 22.1015 33.0306 29.4871 30.9836 31.1163C28.9395 29.49 20.4265 22.1167 20.4265 11.9925C20.4265 6.20176 25.1632 1.48883 30.9836 1.48883H30.9868Z" fill="#0CB4C4"></path><path d="M31.7335 17.1183V15.8461C31.9603 15.8054 32.1808 15.7459 32.3918 15.6706L33.0311 16.7736C33.1697 17.0118 33.4216 17.1465 33.6799 17.1465C33.8059 17.1465 33.935 17.1152 34.0547 17.0462C34.4106 16.8394 34.5365 16.3851 34.3287 16.031L33.6893 14.928C33.8625 14.7808 34.0232 14.621 34.1712 14.4486L35.2798 15.0847C35.3995 15.1505 35.5286 15.185 35.6546 15.185C35.9128 15.185 36.1648 15.0502 36.3034 14.8121C36.5112 14.458 36.3852 14.0005 36.0294 13.7969L34.9208 13.1608C34.9963 12.9508 35.0593 12.7315 35.0971 12.5059H36.3758C36.7883 12.5059 37.1222 12.1706 37.1222 11.7632C37.1222 11.3527 36.7852 11.0206 36.3758 11.0206H35.0971C35.0562 10.795 34.9963 10.5756 34.9208 10.3657L36.0294 9.72959C36.3852 9.52278 36.5112 9.06842 36.3034 8.71436C36.0955 8.3603 35.6388 8.23493 35.283 8.44175L34.1744 9.07785C34.0263 8.90551 33.8657 8.7457 33.6925 8.59842L34.3318 7.49543C34.5397 7.14135 34.4137 6.68388 34.0578 6.48021C33.7019 6.2734 33.2421 6.39874 33.0374 6.75282L32.3981 7.8558C32.1871 7.7806 31.9666 7.71793 31.7399 7.68033V6.40816C31.7399 5.99767 31.4029 5.66553 30.9935 5.66553C30.5809 5.66553 30.247 6.00081 30.247 6.40816V7.68033C30.0203 7.72106 29.7998 7.7806 29.5888 7.8558L28.9495 6.75282C28.7416 6.39873 28.285 6.27339 27.9291 6.48021C27.5732 6.68701 27.4472 7.14137 27.6551 7.49543L28.2944 8.59842C28.1212 8.74569 27.9606 8.9055 27.8126 9.07785L26.704 8.44175C26.3481 8.23494 25.8883 8.36028 25.6836 8.71436C25.4757 9.06845 25.6017 9.52592 25.9576 9.72959L27.0662 10.3657C26.9906 10.5756 26.9276 10.795 26.8898 11.0206H25.6112C25.1986 11.0206 24.8647 11.3559 24.8647 11.7632C24.8647 12.1737 25.2017 12.5059 25.6112 12.5059H26.8898C26.9307 12.7315 26.9906 12.9508 27.0662 13.1608L25.9576 13.7969C25.6017 14.0037 25.4757 14.458 25.6836 14.8121C25.8221 15.0502 26.0741 15.185 26.3324 15.185C26.4583 15.185 26.5875 15.1536 26.7071 15.0847L27.8157 14.4486C27.9637 14.6209 28.1244 14.7808 28.2976 14.928L27.6583 16.031C27.4504 16.3851 27.5764 16.8426 27.9323 17.0462C28.0519 17.1121 28.1811 17.1465 28.307 17.1465C28.5653 17.1465 28.8172 17.0118 28.9558 16.7736L29.5952 15.6706C29.8062 15.7459 30.0266 15.8085 30.2534 15.8461V17.1183C30.2534 17.5288 30.5904 17.8609 30.9998 17.8609C31.4124 17.8609 31.7462 17.5256 31.7462 17.1183H31.7335ZM28.3038 11.7569C28.3038 10.2873 29.5069 9.08718 30.9871 9.08718C32.4642 9.08718 33.6704 10.2842 33.6704 11.7569C33.6704 13.2265 32.4673 14.4266 30.9871 14.4266C29.5101 14.4266 28.3038 13.2296 28.3038 11.7569Z" fill="#0CB4C4"></path></svg>