<svg width="52" height="62" viewBox="0 0 52 62" fill="none" xmlns="http://www.w3.org/2000/svg"><path fill-rule="evenodd" clip-rule="evenodd" d="M46.3987 3.66393C41.6282 1.94938 33.8161 1.94938 29.0457 3.66393C24.7414 5.21116 24.7414 7.22502 29.0457 8.77158C33.8161 10.4861 41.6282 10.4861 46.3987 8.77158C50.7029 7.22502 50.7029 5.21116 46.3987 3.66393ZM29.3991 12.6886C29.4843 12.7168 29.5632 12.7616 29.6312 12.8204C29.6992 12.8793 29.755 12.951 29.7954 13.0315C29.8358 13.112 29.8601 13.1997 29.8668 13.2896C29.8735 13.3796 29.8625 13.4699 29.8344 13.5556C29.8064 13.6412 29.7619 13.7205 29.7033 13.7889C29.6448 13.8572 29.5735 13.9133 29.4934 13.954C29.4133 13.9946 29.3261 14.019 29.2366 14.0257C29.1472 14.0325 29.0573 14.0214 28.9721 13.9932L28.0755 13.6639C27.9124 13.5931 27.7832 13.4612 27.7155 13.2961C27.6477 13.1309 27.6468 12.9458 27.7128 12.78C27.7788 12.6142 27.9067 12.4808 28.0691 12.4084C28.2314 12.3359 28.4155 12.33 28.5822 12.392L29.3991 12.6886ZM29.3991 20.2881C29.5712 20.3451 29.7137 20.4684 29.7954 20.631C29.877 20.7935 29.8911 20.9821 29.8344 21.1551C29.7778 21.3281 29.6551 21.4714 29.4934 21.5534C29.3317 21.6355 29.1442 21.6496 28.9721 21.5927L28.0755 21.2634C27.9124 21.1926 27.7832 21.0606 27.7155 20.8955C27.6477 20.7304 27.6468 20.5453 27.7128 20.3795C27.7788 20.2137 27.9067 20.0803 28.0691 20.0079C28.2314 19.9354 28.4155 19.9295 28.5822 19.9915L29.3991 20.2881ZM29.3991 27.8876C29.5667 27.948 29.7042 28.0718 29.7823 28.2327C29.8604 28.3935 29.873 28.5786 29.8173 28.7486C29.7616 28.9186 29.6421 29.0601 29.4842 29.1428C29.3264 29.2255 29.1426 29.243 28.9721 29.1915L28.0755 28.8689C27.9124 28.7981 27.7832 28.6661 27.7155 28.501C27.6477 28.3359 27.6468 28.1507 27.7128 27.9849C27.7788 27.8191 27.9067 27.6858 28.0691 27.6133C28.2314 27.5409 28.4155 27.535 28.5822 27.597L29.3991 27.8936V27.8876ZM49.636 16.1971C44.9471 19.9635 30.5025 19.9635 25.811 16.1971V21.412C25.811 22.34 27.0471 23.2479 29.0457 23.9659C33.8161 25.6804 41.6276 25.6804 46.3987 23.9659C48.3973 23.2479 49.6333 22.34 49.6333 21.412V16.1971H49.636ZM49.636 8.60159V13.8132C49.636 14.7412 48.3999 15.6491 46.4013 16.3671C41.6309 18.0816 33.8188 18.0816 29.0483 16.3671C27.0497 15.6491 25.8137 14.7412 25.8137 13.8132V8.60359C30.5058 12.368 44.9498 12.3673 49.6386 8.60359L49.636 8.60159ZM32.6066 37.0923V43.5252H36.5514V37.0923C36.5514 37.0021 36.5691 36.9127 36.6035 36.8294C36.6379 36.746 36.6882 36.6703 36.7517 36.6066C36.8152 36.5428 36.8906 36.4922 36.9735 36.4578C37.0565 36.4233 37.1454 36.4056 37.2351 36.4057H38.5275L34.5787 31.1134L30.6305 36.4057H31.9229C32.1041 36.4057 32.2779 36.478 32.4061 36.6068C32.5343 36.7355 32.6064 36.9101 32.6066 37.0923ZM37.5799 32.8546H37.7218C40.6647 32.9076 43.5962 32.4731 46.3987 31.5687C48.3973 30.8507 49.6333 29.9421 49.6333 29.0149V23.7979C44.9445 27.5636 30.5005 27.5643 25.8084 23.7979V29.0149C25.8084 29.6288 26.3859 30.2508 27.3813 30.8207C28.8169 31.5674 30.3612 32.0804 31.9567 32.3406L34.031 29.5602C34.0954 29.4746 34.1789 29.4055 34.2748 29.3582C34.3706 29.311 34.4761 29.2869 34.5828 29.288C34.6896 29.2891 34.7946 29.3153 34.8894 29.3646C34.9843 29.4138 35.0664 29.4847 35.1291 29.5715L37.5766 32.8526L37.5799 32.8546ZM23.831 59.4974C23.8308 59.6945 23.7919 59.8896 23.7164 60.0715C23.641 60.2535 23.5305 60.4186 23.3913 60.5574C23.2532 60.6973 23.089 60.8084 22.908 60.8844C22.7271 60.9603 22.533 60.9996 22.337 61H2.49267C2.09677 60.9989 1.71741 60.8402 1.43765 60.5586C1.15789 60.277 1.00053 59.8954 1 59.4974V40.0548C0.999732 39.8762 1.06899 39.7047 1.19297 39.5768L7.11854 32.5706C7.18246 32.4945 7.26217 32.4333 7.35209 32.3914C7.44201 32.3495 7.53996 32.3278 7.63908 32.328H22.337C22.7325 32.3294 23.1115 32.4879 23.3914 32.7689C23.6712 33.05 23.8292 33.4309 23.831 33.8285V59.4974ZM3.15777 39.3682H6.18023C6.38527 39.3669 6.58157 39.2845 6.72655 39.1387C6.87154 38.993 6.95353 38.7957 6.95475 38.5895V34.8791L3.15777 39.3682ZM8.32142 33.7019V38.5915C8.3202 39.162 8.09422 39.7088 7.69293 40.1122C7.29164 40.5156 6.74774 40.7428 6.18023 40.7441H2.36535V59.4974C2.36666 59.531 2.38049 59.5628 2.40409 59.5865C2.42769 59.6102 2.45932 59.6241 2.49267 59.6254H22.337C22.3536 59.6253 22.3701 59.6219 22.3855 59.6154C22.4009 59.6089 22.4148 59.5994 22.4265 59.5874C22.4498 59.5628 22.4628 59.5301 22.463 59.4961V33.8285C22.4628 33.7946 22.4493 33.7621 22.4255 33.738C22.4017 33.7139 22.3694 33.7002 22.3356 33.6999L8.32142 33.7019ZM6.28832 46.571H18.5413C18.6328 46.5739 18.724 46.5582 18.8094 46.525C18.8948 46.4917 18.9727 46.4416 19.0384 46.3775C19.1042 46.3135 19.1565 46.2368 19.1922 46.152C19.2279 46.0672 19.2463 45.9761 19.2463 45.884C19.2463 45.792 19.2279 45.7009 19.1922 45.6161C19.1565 45.5313 19.1042 45.4546 19.0384 45.3905C18.9727 45.3265 18.8948 45.2763 18.8094 45.2431C18.724 45.2099 18.6328 45.1942 18.5413 45.1971H6.28832C6.11077 45.2026 5.94235 45.2775 5.81871 45.4057C5.69508 45.5339 5.62594 45.7055 5.62594 45.884C5.62594 46.0626 5.69508 46.2342 5.81871 46.3624C5.94235 46.4906 6.11077 46.5654 6.28832 46.571ZM6.28832 55.0557H18.5413C18.6328 55.0586 18.724 55.043 18.8094 55.0097C18.8948 54.9765 18.9727 54.9264 19.0384 54.8623C19.1042 54.7982 19.1565 54.7215 19.1922 54.6367C19.2279 54.552 19.2463 54.4608 19.2463 54.3688C19.2463 54.2767 19.2279 54.1856 19.1922 54.1008C19.1565 54.0161 19.1042 53.9394 19.0384 53.8753C18.9727 53.8112 18.8948 53.7611 18.8094 53.7279C18.724 53.6946 18.6328 53.679 18.5413 53.6818H6.28832C6.11077 53.6874 5.94235 53.7622 5.81871 53.8904C5.69508 54.0187 5.62594 54.1902 5.62594 54.3688C5.62594 54.5474 5.69508 54.7189 5.81871 54.8471C5.94235 54.9754 6.11077 55.0502 6.28832 55.0557ZM6.28832 50.8134H18.5413C18.6328 50.8162 18.724 50.8006 18.8094 50.7674C18.8948 50.7341 18.9727 50.684 19.0384 50.6199C19.1042 50.5558 19.1565 50.4791 19.1922 50.3944C19.2279 50.3096 19.2463 50.2185 19.2463 50.1264C19.2463 50.0344 19.2279 49.9432 19.1922 49.8585C19.1565 49.7737 19.1042 49.697 19.0384 49.6329C18.9727 49.5688 18.8948 49.5187 18.8094 49.4855C18.724 49.4522 18.6328 49.4366 18.5413 49.4395H6.28832C6.11077 49.445 5.94235 49.5198 5.81871 49.6481C5.69508 49.7763 5.62594 49.9478 5.62594 50.1264C5.62594 50.305 5.69508 50.4766 5.81871 50.6048C5.94235 50.733 6.11077 50.8078 6.28832 50.8134ZM37.7218 1.00411C40.8211 0.951578 43.9078 1.4133 46.8575 2.37068C49.4172 3.29062 51 4.64519 51 6.21775V13.8132V21.4127V29.0122C51 30.5848 49.4172 31.9393 46.8575 32.8593C44.1902 33.7355 41.4045 34.1936 38.5985 34.2172L40.4373 36.6837C40.5121 36.7856 40.5574 36.9064 40.5682 37.0326C40.5791 37.1588 40.555 37.2856 40.4987 37.3989C40.4423 37.5122 40.356 37.6077 40.2491 37.6747C40.1421 37.7418 40.0189 37.7779 39.8929 37.7789H37.9181V44.2112C37.9182 44.3014 37.9006 44.3907 37.8663 44.4741C37.832 44.5575 37.7817 44.6333 37.7183 44.6971C37.6549 44.7609 37.5795 44.8116 37.4966 44.8461C37.4137 44.8807 37.3249 44.8984 37.2351 44.8984H31.9229C31.8332 44.8984 31.7443 44.8807 31.6614 44.8461C31.5785 44.8116 31.5032 44.7609 31.4397 44.6971C31.3763 44.6333 31.326 44.5575 31.2917 44.4741C31.2574 44.3907 31.2398 44.3014 31.2399 44.2112V37.7796H29.2672C29.135 37.7798 29.0056 37.7414 28.8947 37.6691C28.7838 37.5968 28.6961 37.4937 28.6424 37.3723C28.5886 37.2509 28.571 37.1165 28.5918 36.9852C28.6125 36.854 28.6707 36.7317 28.7592 36.633L31.0536 33.5572C29.5384 33.2604 28.075 32.7404 26.7109 32.014C26.2069 31.7786 25.7541 31.4454 25.3786 31.0335C25.003 30.6217 24.7121 30.1393 24.5226 29.6142C24.4436 29.4248 24.417 29.2175 24.4457 29.0142V6.21575C24.4457 4.64053 26.0371 3.28595 28.5881 2.36868C31.5374 1.41209 34.6233 0.951043 37.7218 1.00411Z" fill="#0CB4C4" stroke="#0CB4C4" stroke-width="0.1"></path></svg>