<svg width="62" height="62" viewBox="0 0 62 62" fill="none" xmlns="http://www.w3.org/2000/svg"><path d="M11.3068 43.3192L7.81014 46.8157L6.49645 45.5021C6.26704 45.2727 5.89515 45.2727 5.66571 45.5021C5.4363 45.7315 5.4363 46.1034 5.66571 46.3328L7.39718 48.0642C7.50826 48.1752 7.65799 48.2356 7.81254 48.2356C7.96951 48.2356 8.11922 48.1728 8.2279 48.0642L12.14 44.1523C12.3694 43.9229 12.3694 43.5511 12.14 43.3216C11.9105 43.0898 11.5387 43.0898 11.3068 43.3192Z" fill="#0CB4C4" stroke="#0CB4C4" stroke-width="0.3"></path><path d="M50.5405 44.8737C48.9225 45.5499 47.348 45.5474 45.7325 44.8737C45.4331 44.7506 45.0878 44.8907 44.9646 45.1901C44.839 45.4895 44.9815 45.8348 45.281 45.958C46.2276 46.354 47.1839 46.5496 48.1377 46.5496C49.0916 46.5496 50.0455 46.3516 50.9945 45.958C51.294 45.8324 51.4364 45.4895 51.3109 45.1901C51.1853 44.8906 50.84 44.7506 50.5405 44.8737Z" fill="#0CB4C4" stroke="#0CB4C4" stroke-width="0.3"></path><path d="M50.5405 56.1047C48.9225 56.7809 47.348 56.7784 45.7325 56.1047C45.4331 55.9792 45.0878 56.1216 44.9646 56.4211C44.839 56.7205 44.9815 57.0658 45.281 57.189C47.1766 57.9785 49.0989 57.9785 50.9945 57.189C51.294 57.0634 51.4364 56.7205 51.3109 56.4211C51.1853 56.1216 50.84 55.9792 50.5405 56.1047Z" fill="#0CB4C4" stroke="#0CB4C4" stroke-width="0.3"></path><path d="M28.0363 6.33545C25.7663 6.33545 23.9238 8.18272 23.9238 10.4453C23.9238 12.7103 25.764 14.5503 28.0363 14.5503C30.3015 14.5503 32.1416 12.7103 32.1416 10.4453C32.1416 8.18031 30.3014 6.33545 28.0363 6.33545ZM28.0363 13.3745C26.4183 13.3745 25.1023 12.0633 25.1023 10.4455C25.1023 8.8276 26.4208 7.51158 28.0363 7.51158C29.6543 7.51158 30.9656 8.83001 30.9656 10.4455C30.9656 12.0633 29.6543 13.3745 28.0363 13.3745Z" fill="#0CB4C4" stroke="#0CB4C4" stroke-width="0.3"></path><path d="M45.2789 51.5747C46.2255 51.9707 47.1818 52.1663 48.1357 52.1663C49.0896 52.1663 50.0434 51.9683 50.9925 51.5747C51.2919 51.4491 51.4344 51.1062 51.3089 50.8068C51.1833 50.5074 50.8404 50.3649 50.5409 50.4905C48.923 51.1642 47.3484 51.1642 45.733 50.4905C45.4335 50.3649 45.0882 50.5074 44.965 50.8068C44.837 51.1062 44.9795 51.4516 45.2789 51.5747Z" fill="#0CB4C4" stroke="#0CB4C4" stroke-width="0.3"></path><path d="M48.1356 34.0177C47.0585 34.0177 45.9767 34.066 44.9118 34.1577V21.3672H45.2716C46.2834 21.3672 47.1069 20.5438 47.1069 19.532V18.1193H48.2781C48.7417 18.1193 49.1474 17.803 49.2778 17.3322C49.4131 16.8371 49.2368 16.3325 48.8238 16.0668L29.6595 1.48174C29.6474 1.46967 29.6305 1.45759 29.6064 1.44552C28.6236 0.851494 27.4475 0.851494 26.4598 1.44552C26.4429 1.45759 26.4236 1.46967 26.4067 1.48174L7.24237 16.0668C6.83667 16.3324 6.65314 16.8371 6.78837 17.3322C6.91877 17.803 7.32447 18.1193 7.78813 18.1193H8.96414V19.532C8.96414 20.5437 9.78759 21.3672 10.7995 21.3672H11.152V37.6764C10.5097 37.4228 10.0122 37.1596 9.66933 36.9543C9.19361 36.667 8.59953 36.667 8.11659 36.9543C7.22792 37.4904 5.31049 38.4128 2.4296 38.5432C1.63026 38.5794 1 39.2314 1 40.0258V45.5314C1 45.6135 1.00483 53.8476 8.83389 54.6469H8.95222C14.2577 54.106 15.9744 50.1531 16.5277 47.6368H35.2667V56.4241C35.2667 59.3942 41.8957 60.9952 48.1309 61C54.3662 61 60.9952 59.3942 60.9952 56.4241L61 38.5937C61 35.6187 54.3708 34.0177 48.1356 34.0177ZM8.03943 16.9457L27.09 2.44036C27.6841 2.09264 28.3844 2.09264 28.9785 2.44036L48.0291 16.9457H8.03943ZM10.8045 20.1911C10.4398 20.1911 10.1452 19.8965 10.1452 19.5319V18.1192H45.9312V19.5319C45.9312 19.8965 45.6366 20.1911 45.272 20.1911H10.8045ZM43.7362 21.367V34.2837C41.814 34.5251 40.0126 34.9187 38.5781 35.4645V21.3672L43.7362 21.367ZM30.6136 21.367V39.9337H25.4554V21.367H30.6136ZM24.2795 21.367V39.9337H18.6746V21.367H24.2795ZM8.89917 53.4686C2.20525 52.7441 2.18114 45.8329 2.18114 45.5337V40.0233C2.18114 39.8591 2.31637 39.7239 2.48782 39.7167C5.62954 39.5766 7.74739 38.5528 8.72798 37.9587C8.78111 37.9297 8.83907 37.9104 8.89944 37.9104C8.95739 37.9104 9.01777 37.9225 9.07089 37.9587C10.0537 38.5527 12.1764 39.5766 15.3178 39.7167C15.4893 39.7215 15.6245 39.8567 15.6245 40.0233V45.541C15.6269 45.8356 15.615 52.7465 8.89917 53.4686ZM15.3687 38.541C14.1927 38.4879 13.1857 38.2995 12.3332 38.0653V21.3673H17.4986V39.934H16.7935C16.7452 39.1831 16.139 38.5772 15.3687 38.541ZM35.2718 46.4591H16.7331C16.7983 45.9062 16.7983 45.5536 16.7983 45.5367V44.3656H35.2745C35.2721 44.7954 35.2718 46.4591 35.2718 46.4591ZM35.2718 43.1896H16.798V41.1129H35.2743L35.2718 43.1896ZM35.2718 39.937H31.7896V21.3678H37.4017V35.9887C34.4604 37.5365 35.4843 39.0773 35.2718 39.937ZM59.8238 56.4223C59.8238 57.8398 55.378 59.8222 48.136 59.8222C40.8962 59.8174 36.4482 57.8398 36.4482 56.4223V52.4766C38.624 54.1646 43.4902 55.0532 48.136 55.0532C52.7818 55.0532 57.6483 54.1646 59.8238 52.4766V56.4223ZM59.8238 50.4772C59.8238 51.8995 55.378 53.8772 48.136 53.8772C40.8962 53.8772 36.4482 51.9019 36.4482 50.4772V46.5364C38.624 48.2243 43.4902 49.1129 48.136 49.1129C52.7818 49.1129 57.6483 48.2243 59.8238 46.5364V50.4772ZM59.8238 44.5346C59.8238 45.9521 55.378 47.9345 48.136 47.9345C40.8962 47.9345 36.4482 45.9521 36.4482 44.5346V40.5938C38.624 42.2769 43.4902 43.163 48.136 43.163C52.7818 43.163 57.6483 42.2744 59.8238 40.5938V44.5346ZM48.136 41.9895C40.8962 41.9895 36.4482 40.0142 36.4482 38.5968C36.4482 37.1745 40.894 35.1968 48.136 35.1968C55.3758 35.1968 59.8238 37.1721 59.8238 38.5968C59.8238 40.0118 55.378 41.9895 48.136 41.9895Z" fill="#0CB4C4" stroke="#0CB4C4" stroke-width="0.3"></path></svg>