<svg version="1.1" id="Layer_1" xmlns="http://www.w3.org/2000/svg" xmlns:xlink="http://www.w3.org/1999/xlink" x="0px" y="0px" width="57.068px" height="60px" viewBox="0 0 57.068 60" enable-background="new 0 0 57.068 60" xml:space="preserve"><g><path fill="#0CB4C4" d="M52.38,0H4.691C2.116,0,0,2.094,0,4.689v50.623C0,57.897,2.103,60,4.687,60h47.688 c2.441,0,4.491-1.901,4.669-4.396l0.018-16.274v-0.001c0-3.543-0.002,12.831,0.005-34.642C57.068,2.103,54.965,0,52.38,0z M1.879,4.687c0-1.546,1.256-2.811,2.809-2.811h47.688c1.551,0,2.812,1.262,2.812,2.812l-0.001,4.678H1.879V4.687z M52.376,58.125 H4.687c-1.551,0-2.812-1.262-2.812-2.812v-44.07h53.311l-0.014,44.293C55.066,56.987,53.839,58.125,52.376,58.125z"></path><path fill="#0CB4C4" d="M51.457,4.961c-0.402-0.419-1.11-0.356-1.444,0.14c-0.27,0.453-0.169,0.92,0.122,1.182 c0.394,0.394,0.984,0.336,1.322,0C51.892,5.845,51.741,5.19,51.457,4.961z"></path><path fill="#0CB4C4" d="M45.607,4.755c-0.404-0.158-0.816-0.024-1.022,0.206c-0.354,0.354-0.37,0.952,0,1.322 c0.338,0.336,0.93,0.392,1.322,0C46.351,5.836,46.278,5.034,45.607,4.755z"></path><path fill="#0CB4C4" d="M40.366,4.961c-0.405-0.405-1.066-0.318-1.322,0c-0.347,0.313-0.402,0.918,0,1.322 c0.332,0.35,0.944,0.376,1.322,0C40.732,5.917,40.725,5.32,40.366,4.961z"></path><path fill="#0CB4C4" d="M20.437,23.715v-7.668c0-0.518-0.419-0.937-0.937-0.937H5.531c-0.518,0-0.937,0.419-0.937,0.937v7.668 c0,0.518,0.419,0.937,0.937,0.937h13.968C20.017,24.653,20.437,24.233,20.437,23.715z M18.562,22.778H6.469v-5.793h12.093V22.778z"></path><path fill="#0CB4C4" d="M51.54,16.047H26.23c-0.518,0-0.937,0.419-0.937,0.937c0,0.518,0.419,0.937,0.937,0.937h25.31 c0.518,0,0.937-0.419,0.937-0.937C52.477,16.466,52.058,16.047,51.54,16.047z"></path><path fill="#0CB4C4" d="M51.54,22.778H26.23c-0.518,0-0.937,0.419-0.937,0.937s0.419,0.937,0.937,0.937h25.31 c0.518,0,0.937-0.419,0.937-0.937S52.058,22.778,51.54,22.778z"></path><path fill="#0CB4C4" d="M41.902,38.547l-2.765-0.46c-0.112-0.307-0.233-0.598-0.363-0.876l1.628-2.274 c0.266-0.373,0.224-0.884-0.1-1.208l-3.534-3.535c-0.324-0.325-0.838-0.366-1.208-0.1l-2.279,1.631 c-0.285-0.134-0.573-0.254-0.862-0.36l-0.46-2.763c-0.075-0.452-0.466-0.784-0.925-0.784h-4.997c-0.459,0-0.85,0.331-0.925,0.784 l-0.46,2.763c-0.29,0.106-0.578,0.226-0.862,0.359l-2.279-1.631c-0.37-0.265-0.883-0.225-1.208,0.099l-3.544,3.535 c-0.325,0.324-0.368,0.836-0.101,1.209l1.632,2.28c-0.128,0.279-0.248,0.569-0.358,0.871l-2.757,0.46 c-0.451,0.075-0.783,0.467-0.783,0.925v4.987c0,0.458,0.331,0.849,0.783,0.925l2.757,0.461c0.11,0.3,0.229,0.59,0.358,0.87 l-1.632,2.281c-0.267,0.374-0.224,0.885,0.101,1.209l3.544,3.534c0.325,0.325,0.838,0.364,1.208,0.099l1.09-0.78 c0.167,0.15,0.385,0.243,0.624,0.243h1.55l0.338,2.029c0.075,0.452,0.466,0.784,0.925,0.784h4.997c0.459,0,0.85-0.331,0.925-0.784 l0.46-2.763c0.29-0.106,0.579-0.226,0.863-0.359l2.278,1.631c0.371,0.265,0.884,0.223,1.208-0.1l3.534-3.534 c0.324-0.324,0.366-0.835,0.1-1.208l-1.628-2.275c0.131-0.278,0.252-0.569,0.363-0.875l2.766-0.461 c0.451-0.075,0.783-0.467,0.783-0.925v-4.987C42.685,39.013,42.354,38.622,41.902,38.547z M40.81,43.665l-2.536,0.423 c-0.348,0.058-0.634,0.308-0.74,0.645c-0.19,0.608-0.412,1.137-0.677,1.618c-0.174,0.316-0.151,0.704,0.059,0.998l1.497,2.092 l-2.41,2.41l-2.091-1.497c-0.289-0.208-0.673-0.231-0.987-0.065c-0.524,0.28-1.067,0.505-1.612,0.671 c-0.341,0.103-0.594,0.392-0.653,0.743l-0.423,2.535H26.83l-0.422-2.535c-0.059-0.352-0.311-0.64-0.653-0.743 c-0.547-0.166-1.09-0.392-1.612-0.67c-0.314-0.169-0.698-0.144-0.987,0.064l-2.092,1.498l-2.418-2.411l1.496-2.091 c0.207-0.29,0.233-0.672,0.065-0.986c-0.261-0.489-0.487-1.038-0.674-1.631c-0.106-0.336-0.392-0.584-0.74-0.643l-2.526-0.423 v-3.399l2.526-0.422c0.348-0.059,0.634-0.307,0.74-0.643c0.187-0.595,0.414-1.143,0.674-1.632c0.168-0.314,0.142-0.697-0.065-0.986 l-1.496-2.09l2.418-2.412l2.092,1.498c0.289,0.208,0.672,0.232,0.986,0.065c0.526-0.28,1.069-0.506,1.613-0.671 c0.341-0.103,0.594-0.392,0.653-0.743l0.422-2.535h3.408l0.423,2.535c0.059,0.352,0.311,0.64,0.653,0.743 c0.542,0.165,1.085,0.39,1.613,0.671c0.314,0.167,0.697,0.143,0.986-0.065l2.091-1.497l2.41,2.411l-1.497,2.091 c-0.21,0.294-0.233,0.681-0.059,0.998c0.264,0.48,0.485,1.009,0.677,1.619c0.105,0.338,0.392,0.587,0.741,0.645l2.535,0.423 C40.81,40.266,40.81,43.665,40.81,43.665z"></path><path fill="#0CB4C4" d="M28.533,34.436c-4.153,0-7.531,3.379-7.531,7.532c0,0.518,0.419,0.937,0.937,0.937s0.937-0.419,0.937-0.937 c0-3.119,2.537-5.657,5.656-5.657s5.656,2.538,5.656,5.657c0,0.518,0.419,0.937,0.937,0.937s0.937-0.419,0.937-0.937 C36.064,37.815,32.686,34.436,28.533,34.436z"></path><path fill="#0CB4C4" d="M31.439,39.28c-0.435-0.279-1.016-0.151-1.294,0.287l-0.936,1.469c-0.218-0.053-0.442-0.088-0.676-0.088 c-1.597,0-2.896,1.299-2.896,2.896s1.299,2.895,2.896,2.895c1.597,0,2.895-1.298,2.895-2.895c0-0.682-0.246-1.301-0.642-1.796 l0.939-1.473C32.004,40.137,31.876,39.557,31.439,39.28z M28.533,44.862c-0.563,0-1.021-0.458-1.021-1.02 c0-0.563,0.458-1.021,1.021-1.021c0.562,0,1.02,0.458,1.02,1.021C29.553,44.404,29.095,44.862,28.533,44.862z"></path></g></svg>