<svg width="66" height="60" viewBox="0 0 66 60" fill="none" xmlns="http://www.w3.org/2000/svg"><path fill-rule="evenodd" clip-rule="evenodd" d="M11.5885 21.6563C12.0014 21.6266 12.363 21.937 12.4008 22.3499C12.4386 22.7628 12.139 23.1326 11.7234 23.1784C8.16087 23.5104 4.96534 25.5211 3.12486 28.5925C1.28416 31.6638 1.01698 35.4288 2.40422 38.7297C3.79146 42.0305 6.66584 44.473 10.1474 45.307C10.1852 44.9615 10.2419 44.6187 10.3174 44.2787C10.4659 43.6201 10.6845 42.9805 10.9733 42.3705C11.1622 42.0062 11.6075 41.8577 11.9773 42.0332C12.3497 42.2086 12.517 42.6458 12.3551 43.0237C12.1149 43.5311 11.9341 44.0628 11.8099 44.6107C11.6885 45.1612 11.6291 45.7226 11.6291 46.2867C11.6264 49.0315 13.0919 51.5685 15.4724 52.9369C17.8528 54.3025 20.7812 54.2944 23.1506 52.9099C23.3881 52.7722 23.6823 52.7695 23.9198 52.9072C24.1573 53.0448 24.3058 53.2985 24.3058 53.5711V53.8734C24.3058 56.4158 26.3678 58.4778 28.9102 58.4778C31.4553 58.4778 33.5172 56.4158 33.5172 53.8734V6.13741C33.5118 3.71918 31.6388 1.7166 29.2287 1.54926C26.8185 1.38192 24.6864 3.10653 24.3463 5.49775C24.2897 5.90799 23.9199 6.19676 23.507 6.15359C23.3693 6.1401 23.2344 6.1266 23.1022 6.1212C22.9915 6.11581 22.8538 6.11311 22.6919 6.11311V6.11041C21.1212 6.10771 19.5908 6.59891 18.3143 7.51382C17.3372 8.21282 16.5411 9.1359 15.9905 10.2046C17.5316 10.2802 19.0376 10.6796 20.414 11.3786C20.7919 11.5703 20.943 12.0291 20.7514 12.4069C20.5624 12.7848 20.1009 12.9359 19.7231 12.7443C16.7678 11.2518 13.251 11.4003 10.4308 13.1357C7.61047 14.871 5.89394 17.9451 5.89394 21.254C5.89394 21.7938 5.93712 22.3309 6.02619 22.8626C6.06127 23.0623 6.10176 23.2593 6.14494 23.4536H6.14764C7.80206 22.4496 9.66161 21.8342 11.5887 21.6588L11.5885 21.6563ZM19.4152 39.6659C19.6204 39.647 19.8282 39.7145 19.9847 39.8521C20.1413 39.9898 20.2357 40.1841 20.2438 40.3919C20.2546 40.5997 20.179 40.8022 20.036 40.9533C19.893 41.1044 19.6959 41.1908 19.4881 41.1935C19.3532 41.1989 19.2236 41.2448 19.1157 41.3258C18.835 41.539 18.7648 41.9303 18.951 42.2272C19.1373 42.5241 19.5205 42.632 19.8336 42.4728C20.2087 42.2812 20.6675 42.4296 20.8619 42.8048C21.0535 43.1799 20.905 43.6414 20.5272 43.8331C19.9361 44.1381 19.2344 44.1569 18.6271 43.8871C18.0172 43.6172 17.561 43.0828 17.3883 42.4404C17.2183 41.7954 17.3451 41.1071 17.7392 40.5701C18.1332 40.0303 18.7486 39.6983 19.4152 39.6659ZM22.9589 17.1812C22.7268 17.5374 22.2518 17.6346 21.8982 17.4052C21.5447 17.1731 21.4448 16.6981 21.6769 16.3445C22.6431 14.8655 24.4325 14.1502 26.1544 14.5523C27.8764 14.9545 29.1611 16.3903 29.3743 18.1446C29.4013 18.3497 29.3473 18.5548 29.2205 18.7195C29.0936 18.8814 28.9074 18.9867 28.705 19.0109C28.4998 19.0352 28.292 18.9759 28.1328 18.8463C27.9736 18.7168 27.871 18.5305 27.8521 18.3254C27.7172 17.2081 26.8994 16.2958 25.8037 16.0394C24.7106 15.783 23.5716 16.242 22.9589 17.1812ZM27.2691 34.8591C26.8589 34.8241 26.5512 34.4705 26.5701 34.0603C26.5917 33.6501 26.9318 33.3289 27.342 33.3316C28.0086 33.3613 28.6267 33.6932 29.0235 34.233C29.4175 34.7728 29.547 35.461 29.3743 36.1088C29.2016 36.7538 28.7455 37.2855 28.1355 37.5554C27.5228 37.828 26.8211 37.8064 26.2274 37.4987C25.8522 37.3071 25.7038 36.8483 25.8954 36.4731C26.087 36.098 26.5485 35.9468 26.9237 36.1412C27.1045 36.2329 27.3204 36.241 27.5094 36.1574C27.6956 36.0737 27.8359 35.9117 27.8899 35.7147C27.9439 35.515 27.9034 35.3045 27.7847 35.1372C27.6632 34.9725 27.4742 34.8699 27.2691 34.8591ZM26.4109 27.1077C26.4783 27.2858 26.5674 27.4585 26.6754 27.6151C26.8724 27.9012 27.1315 28.1387 27.4311 28.3114L27.4635 28.333C28.068 28.6649 28.786 28.7135 29.4283 28.4679C29.8224 28.3168 30.265 28.5111 30.4161 28.9051C30.5673 29.2992 30.373 29.7418 29.9789 29.8957C28.9101 30.3086 27.7119 30.2249 26.7132 29.6608L26.6619 29.6393C26.1653 29.3532 25.7362 28.9564 25.4123 28.4814C25.2693 28.2736 25.1478 28.0496 25.048 27.8148C24.0601 28.0955 23.0022 27.9713 22.1061 27.472C21.9226 27.3775 21.785 27.2129 21.7229 27.0132C21.6635 26.8162 21.6878 26.603 21.7877 26.4221C21.8875 26.2413 22.0575 26.1091 22.2573 26.0551C22.457 26.0011 22.6702 26.0308 22.8483 26.136C23.569 26.5355 24.4434 26.5274 25.1559 26.1172C25.8711 25.7042 26.3137 24.9512 26.3299 24.1281C26.3245 23.9202 26.4028 23.7178 26.5485 23.5694C26.697 23.4209 26.8967 23.34 27.1045 23.3427C27.3123 23.3481 27.5093 23.4344 27.6524 23.5883C27.7954 23.7394 27.8683 23.9445 27.8548 24.1524C27.8359 25.3021 27.3069 26.3844 26.4109 27.1077ZM42.2669 45.4683C42.2723 45.6761 42.194 45.8785 42.051 46.027C41.9052 46.1754 41.7082 46.2591 41.5004 46.2591C41.2926 46.2591 41.0929 46.1754 40.9498 46.027C40.8041 45.8785 40.7258 45.6761 40.7312 45.4683V42.3618H39.2764V47.1632V47.1605C40.4397 47.5384 41.1522 48.7043 40.9633 49.9107C40.7716 51.1171 39.7326 52.0051 38.5099 52.0051C37.29 52.0051 36.251 51.1171 36.0593 49.9107C35.8676 48.7044 36.5829 47.5384 37.7434 47.1605V42.3591L35.0499 42.3618V53.8699C35.0445 57.0816 32.5669 59.7454 29.3633 59.983C26.1597 60.2205 23.315 57.948 22.8373 54.7713C20.0924 55.9184 16.9644 55.6674 14.4384 54.0966C11.9122 52.5285 10.3009 49.835 10.112 46.8661C6.94083 46.1886 4.14204 44.3317 2.29077 41.668C0.436607 39.0068 -0.335294 35.7384 0.134328 32.527C0.601241 29.318 2.2746 26.4059 4.81154 24.3817C4.68739 23.9661 4.59023 23.5396 4.51736 23.1106C4.4121 22.4979 4.36082 21.8744 4.36082 21.251C4.36082 18.5143 5.37565 15.8748 7.20819 13.8395C9.04073 11.8072 11.5643 10.5279 14.2874 10.2445C15.6719 6.81959 18.997 4.57678 22.6918 4.57678C22.7782 4.57678 22.8699 4.57678 22.9725 4.58218C23.7552 1.59718 26.6323 -0.343351 29.6928 0.0506835C32.7561 0.444725 35.0502 3.04916 35.0502 6.13676V17.6448H36.3133V12.3414C36.3133 11.8367 36.4563 11.3401 36.7316 10.911L39.7733 6.08798C38.6154 4.90042 38.5318 3.03278 39.5763 1.74538C40.6207 0.457984 42.4641 0.153009 43.8675 1.03829C45.2682 1.92627 45.7864 3.71832 45.0739 5.21624C44.3587 6.71417 42.6368 7.43743 41.066 6.90576L38.0244 11.7261C37.965 11.8178 37.9191 11.9177 37.8867 12.0229C37.857 12.1255 37.8462 12.2335 37.8462 12.3414V17.6448H39.9973V14.5384C39.9892 14.3305 40.0675 14.1281 40.2132 13.9797C40.3562 13.8312 40.556 13.7476 40.7638 13.7476C40.9716 13.7476 41.1686 13.8312 41.3144 13.9797C41.4601 14.1281 41.5357 14.3305 41.5303 14.5384V17.6448H44.1024V12.8434V12.8461C42.9418 12.4683 42.2294 11.3023 42.4183 10.0986C42.6099 8.89219 43.6489 8.00429 44.8689 8.00429C46.0889 8.00429 47.1279 8.89226 47.3195 10.0986C47.5112 11.3023 46.796 12.4683 45.6381 12.8461V17.6475H46.0672L46.0645 17.6448C47.4059 17.6475 48.4909 18.7325 48.4909 20.0711V20.5003H49.6514C49.8538 20.5057 50.0535 20.4544 50.2263 20.3491L55.7293 17.1725H55.7266C55.6916 17.0024 55.6727 16.827 55.6727 16.6516C55.6727 15.4802 56.4931 14.4654 57.6402 14.2226C58.7873 13.9797 59.9478 14.5707 60.4255 15.6422C60.9005 16.7137 60.5631 17.9741 59.6131 18.6623C58.6631 19.3505 57.3622 19.2803 56.4931 18.495L50.9928 21.6716C50.5852 21.9118 50.121 22.036 49.6487 22.0333H48.4936V24.8699H51.1304C51.3355 24.8645 51.5379 24.9427 51.6864 25.0858C51.8348 25.2315 51.9212 25.4313 51.9212 25.6364C51.9212 25.8442 51.8348 26.0439 51.6864 26.1896C51.5379 26.3327 51.3355 26.411 51.1304 26.4056H48.4936V29.2422H58.6633C59.0546 27.5392 60.6605 26.4002 62.3959 26.5972C64.1339 26.7942 65.4457 28.2625 65.4457 30.0087C65.4457 31.7548 64.134 33.2231 62.3959 33.4201C60.6605 33.6171 59.0546 32.4782 58.6633 30.7752H48.4936V33.6118H51.1304C51.3355 33.6064 51.5379 33.6846 51.6864 33.8277C51.8348 33.9734 51.9212 34.1704 51.9212 34.3783C51.9212 34.5861 51.8348 34.7858 51.6864 34.9288C51.5379 35.0746 51.3355 35.1529 51.1304 35.1448H48.4936V37.9814H53.2949C53.6701 36.8235 54.836 36.1083 56.0398 36.2999C57.2462 36.4915 58.1314 37.5306 58.1314 38.7506C58.1314 39.9705 57.2462 41.0068 56.0398 41.1985C54.836 41.3901 53.6701 40.6776 53.2949 39.5171H48.4936V39.9462C48.4936 41.2849 47.4059 42.3698 46.0672 42.3725H45.6381V47.6759C45.6354 47.7839 45.6489 47.8918 45.6786 47.9971C45.7083 48.0996 45.7542 48.1995 45.8135 48.2913L48.8552 53.1116C50.4368 52.5853 52.1614 53.3221 52.8685 54.8308C53.5783 56.3395 53.0466 58.137 51.6324 59.0168C50.2181 59.8967 48.3666 59.5809 47.3276 58.2773C46.2885 56.9765 46.3883 55.1034 47.5597 53.9186L44.5207 49.0956C44.2454 48.6664 44.1024 48.1699 44.1024 47.6652V42.3618H42.2644V45.4682L42.2669 45.4683ZM38.5127 50.4721C38.9634 50.4694 39.3493 50.1509 39.4384 49.7083C39.5247 49.2684 39.2899 48.8258 38.8716 48.653C38.456 48.4803 37.9755 48.6261 37.7245 48.9985C37.4735 49.3737 37.5221 49.8729 37.8406 50.1942C38.0187 50.3723 38.2617 50.4721 38.5127 50.4721ZM48.6769 57.4464C49.2652 58.0374 50.1856 58.1292 50.8792 57.6677C51.5728 57.2062 51.8427 56.3209 51.5269 55.5517C51.2112 54.7798 50.3934 54.3426 49.5756 54.5019C48.7605 54.6638 48.1695 55.379 48.1668 56.2103C48.1668 56.6745 48.3503 57.1198 48.6769 57.4464ZM63.359 31.3501C64.0014 30.7078 64.1012 29.7011 63.5965 28.9454C63.0918 28.1897 62.1256 27.8955 61.2862 28.2437C60.4468 28.5918 59.9692 29.4825 60.1473 30.3731C60.3254 31.2638 61.1081 31.9061 62.0149 31.9061C62.5196 31.9061 63.0028 31.7064 63.359 31.3501ZM56.3254 39.4091C56.6439 39.0906 56.6925 38.5913 56.4415 38.2161C56.1905 37.841 55.71 37.6952 55.2944 37.868C54.876 38.0407 54.6412 38.4833 54.7276 38.9259C54.8167 39.3686 55.2026 39.687 55.6533 39.687C55.9043 39.687 56.1473 39.5872 56.3254 39.4091ZM58.8273 17.3237C59.1458 17.0052 59.1944 16.5059 58.9461 16.1307C58.6951 15.7556 58.2147 15.6098 57.7963 15.7826C57.3807 15.9553 57.1432 16.3979 57.2322 16.8405C57.3186 17.2831 57.7072 17.6016 58.1579 17.6016C58.4089 17.6016 58.6519 17.5018 58.8273 17.3237ZM45.5408 9.81265C45.2223 9.49418 44.723 9.4456 44.3478 9.6966C43.9726 9.9476 43.8269 10.428 43.9997 10.8464C44.1724 11.262 44.615 11.4995 45.0576 11.4104C45.5002 11.3241 45.8187 10.9354 45.8187 10.4847C45.8187 10.2337 45.7189 9.99079 45.5408 9.81265ZM42.1239 2.04804C41.29 2.05074 40.5747 2.63911 40.4155 3.45691C40.2536 4.27468 40.6935 5.08977 41.4627 5.40821C42.2319 5.72399 43.1198 5.4541 43.5813 4.76047C44.0428 4.06685 43.9484 3.14385 43.36 2.55815C43.0307 2.22888 42.5855 2.04804 42.1239 2.04804ZM35.0503 20.2871H44.2562C44.6799 20.2871 45.0848 20.4544 45.3816 20.754C45.6812 21.0536 45.8486 21.4584 45.8486 21.8794V38.1217C45.8486 38.5427 45.6812 38.9475 45.3816 39.2471C45.0848 39.5467 44.6799 39.714 44.2562 39.714H35.0503V40.8206H46.0671C46.5583 40.8206 46.9578 40.4212 46.9605 39.93V20.0714C46.9578 19.5802 46.5583 19.1807 46.0671 19.178H35.0503V20.2871ZM35.0503 38.1862H44.2562C44.2724 38.1862 44.2886 38.1808 44.3021 38.17C44.3129 38.1565 44.3183 38.1403 44.3183 38.1241V21.8818C44.3183 21.8656 44.3129 21.8494 44.3021 21.8359C44.2886 21.8252 44.2724 21.8198 44.2562 21.8198H35.0503V38.1862ZM30.589 4.14983V4.14714C31.002 4.14444 31.342 4.46561 31.3609 4.87585C31.3798 5.28879 31.0721 5.63967 30.6619 5.6747C30.3407 5.69359 30.0439 5.85553 29.8549 6.11733C29.666 6.37913 29.6039 6.71109 29.6876 7.02147C29.7712 7.33454 29.9926 7.59094 30.2867 7.72048C30.5809 7.85273 30.921 7.84463 31.207 7.69619C31.5822 7.52076 32.0275 7.6719 32.2164 8.03895C32.4026 8.40871 32.265 8.85942 31.9033 9.05647C31.2043 9.41543 30.3785 9.43972 29.6605 9.11855C28.9426 8.80007 28.4082 8.17392 28.2058 7.4128C28.0034 6.65437 28.1545 5.84474 28.6187 5.21047C29.083 4.57623 29.809 4.18486 30.5944 4.14707L30.589 4.14983ZM12.0881 26.8018C11.9397 26.6641 11.8506 26.4725 11.8425 26.2674C11.8371 26.0623 11.91 25.8653 12.0503 25.7168C12.1907 25.5684 12.385 25.482 12.5874 25.4766C12.7925 25.4712 12.9896 25.5468 13.138 25.6871C13.6103 26.1352 14.3552 26.1244 14.8141 25.6628C15.2756 25.204 15.2864 24.4591 14.8383 23.9868C14.5496 23.6791 14.5631 23.1933 14.8707 22.9045C15.1784 22.6157 15.6642 22.6292 15.953 22.9369C16.9705 24.0138 16.9489 25.7033 15.9017 26.7505C14.8545 27.7976 13.165 27.8193 12.0881 26.8018ZM16.9678 31.8488H16.9705C17.3807 31.8461 17.7208 32.1673 17.7397 32.5775C17.7586 32.9904 17.4509 33.3413 17.0434 33.3764C16.6763 33.3737 16.374 33.6651 16.3606 34.0295C16.3471 34.3965 16.6277 34.7069 16.9948 34.7312C17.1297 34.7474 17.2674 34.7231 17.3888 34.661C17.5697 34.5666 17.7802 34.5477 17.9772 34.607C18.1715 34.6691 18.3335 34.8068 18.4252 34.9903C18.5197 35.1711 18.5359 35.3843 18.4711 35.576C18.4063 35.7703 18.266 35.9322 18.0825 36.0213C17.4887 36.3263 16.7897 36.3452 16.1824 36.0753C15.5725 35.8027 15.119 35.271 14.9463 34.6259C14.7736 33.9836 14.9031 33.2953 15.2945 32.7556C15.6885 32.2185 16.3038 31.8865 16.9705 31.8541L16.9678 31.8488ZM9.84504 36.5503C10.0367 37.0577 10.3956 37.4869 10.8653 37.7594L10.8977 37.781V37.7783C11.4995 38.1103 12.2201 38.1589 12.8625 37.9133C13.2511 37.7756 13.683 37.9727 13.8341 38.3586C13.9825 38.7472 13.7963 39.1818 13.413 39.341C12.3443 39.7567 11.146 39.6703 10.1446 39.1089C10.1284 39.1008 10.1122 39.0927 10.096 39.0846L10.0987 39.0819C9.59944 38.7958 9.17304 38.3991 8.84644 37.9241C8.7034 37.7163 8.58195 37.4922 8.48479 37.2574C7.49697 37.5381 6.43903 37.4167 5.54297 36.9174C5.35944 36.8229 5.2218 36.6583 5.16242 36.4613C5.10304 36.2615 5.12464 36.0483 5.2245 35.8675C5.32706 35.6867 5.49438 35.5544 5.6968 35.5004C5.89652 35.4465 6.10974 35.4761 6.28517 35.5814C7.0058 35.9808 7.88293 35.9754 8.59272 35.5625L8.6305 35.5409C9.32412 35.1253 9.75325 34.3804 9.76673 33.5734C9.76133 33.3656 9.8396 33.1631 9.98804 33.0147C10.1338 32.869 10.3335 32.7853 10.5413 32.7907C10.7491 32.7934 10.9489 32.8798 11.0892 33.0336C11.2322 33.1847 11.3051 33.3898 11.2943 33.5977C11.2754 34.7474 10.7464 35.8297 9.84766 36.5503L9.84504 36.5503ZM12.0852 17.4635C11.8531 17.8171 11.3781 17.917 11.0245 17.6848C10.6708 17.4527 10.571 16.9778 10.8031 16.6241C11.7693 15.1478 13.5588 14.4326 15.2807 14.8348C16.9999 15.2369 18.2873 16.6728 18.4978 18.427C18.5409 18.8427 18.2414 19.2151 17.8257 19.2637C17.4101 19.3123 17.0323 19.0208 16.9755 18.6051C16.8433 17.4905 16.0255 16.5782 14.9298 16.3218C13.8367 16.0681 12.6978 16.5216 12.0852 17.4635ZM26.5166 55.6316C26.3654 55.4939 26.2764 55.2996 26.271 55.0972C26.2629 54.8921 26.3384 54.6924 26.4788 54.5439C26.6164 54.3955 26.8108 54.3091 27.0159 54.3037C27.2183 54.2983 27.418 54.3766 27.5637 54.5169C28.0388 54.9649 28.7809 54.9515 29.2425 54.4926C29.7013 54.0311 29.7121 53.2889 29.2668 52.8166C28.9753 52.5089 28.9915 52.0231 29.2992 51.7343C29.6068 51.4428 30.0899 51.459 30.3814 51.7667C31.399 52.8409 31.3746 54.5331 30.3275 55.5776C29.2803 56.6247 27.5907 56.6491 26.5166 55.6316ZM22.3899 47.9775L22.398 47.9721C23.0295 47.6105 23.4236 46.9411 23.4371 46.2124C23.4587 45.8049 23.8014 45.4864 24.2117 45.4918C24.6219 45.4972 24.9538 45.8264 24.9619 46.2367C24.9457 47.2919 24.468 48.2851 23.653 48.9545C23.7124 49.0975 23.7852 49.2352 23.8716 49.362C24.4114 50.1447 25.4154 50.4551 26.3033 50.1178C26.4949 50.0368 26.7081 50.0395 26.8971 50.1205C27.086 50.2014 27.2344 50.3553 27.3073 50.5469C27.3829 50.7385 27.3748 50.9517 27.2911 51.1406C27.2047 51.3269 27.0482 51.4726 26.8539 51.5428C25.0753 52.231 23.0646 51.4024 22.29 49.6562C21.3885 49.8991 20.4277 49.7804 19.61 49.327C19.2429 49.1191 19.1107 48.6522 19.3158 48.2825C19.5236 47.9154 19.9905 47.7832 20.3602 47.9883C20.9945 48.3419 21.7664 48.3392 22.3952 47.9775L22.3899 47.9775Z" fill="#0CB4C4"></path></svg>