<svg xmlns="http://www.w3.org/2000/svg" width="60" height="60" viewBox="0 0 60 60" fill="none"><path d="M20.5014 41.4863C17.1034 41.4863 14.3389 44.2508 14.3389 47.6493C14.3389 51.0473 17.1034 53.8118 20.5014 53.8118C23.8998 53.8118 26.6643 51.0473 26.6643 47.6493C26.6643 44.2508 23.8998 41.4863 20.5014 41.4863ZM20.5014 52.1451C18.0225 52.1451 16.0055 50.1281 16.0055 47.6493C16.0055 45.17 18.0225 43.153 20.5014 43.153C22.9806 43.153 24.9976 45.17 24.9976 47.6493C24.9976 50.1281 22.9806 52.1451 20.5014 52.1451Z" fill="#0CB4C4"></path><path d="M21.8263 47.786C21.6782 47.6749 21.5066 47.5837 21.3121 47.512C21.117 47.4406 20.9135 47.3753 20.7015 47.316L20.716 47.3087V45.5625C20.9038 45.5673 21.0772 45.6104 21.238 45.692C21.3982 45.7733 21.5349 45.8856 21.6487 46.0286L22.181 45.5108C21.9937 45.3135 21.7703 45.169 21.5114 45.0778C21.2525 44.9866 20.9875 44.9408 20.716 44.9408V44.4082H20.3167V44.9408C20.1192 44.9555 19.9295 45.0013 19.7471 45.0778C19.5646 45.1543 19.4039 45.2554 19.266 45.3813C19.1281 45.5068 19.0167 45.6549 18.933 45.825C18.8493 45.9952 18.8071 46.1864 18.8071 46.3986C18.8071 46.6353 18.8481 46.8376 18.9294 47.0053C19.0106 47.173 19.1214 47.316 19.2624 47.4343C19.4026 47.5529 19.5628 47.6502 19.7435 47.7266C19.9229 47.8031 20.1144 47.866 20.3167 47.9154V49.7358C20.1096 49.7258 19.9097 49.6704 19.7176 49.5692C19.5249 49.4681 19.3719 49.3239 19.2587 49.1363L18.6885 49.647C18.8908 49.9083 19.1317 50.0919 19.4105 50.1982C19.6887 50.3042 19.991 50.3571 20.3167 50.3571V50.8898H20.716V50.3571C20.9285 50.3424 21.1315 50.2978 21.3265 50.2241C21.5216 50.15 21.6915 50.0476 21.8372 49.917C21.9829 49.7863 22.0985 49.6295 22.1852 49.447C22.2713 49.2646 22.3147 49.0598 22.3147 48.8328C22.3147 48.5814 22.2701 48.3716 22.181 48.2039C22.0925 48.0362 21.9738 47.8968 21.8263 47.786ZM20.3167 47.2052C20.2131 47.1754 20.1132 47.1384 20.0169 47.0941C19.9205 47.0496 19.8356 46.9953 19.7615 46.9312C19.6875 46.8671 19.6285 46.7921 19.5839 46.7057C19.5399 46.6193 19.5176 46.5169 19.5176 46.3986C19.5176 46.1616 19.5917 45.9732 19.7392 45.8326C19.8874 45.692 20.0801 45.6019 20.3167 45.5625V47.2052ZM21.5337 49.2064C21.4867 49.3076 21.4229 49.3952 21.3416 49.4693C21.2603 49.5433 21.1664 49.6023 21.0604 49.647C20.9544 49.6912 20.8394 49.7207 20.716 49.7358V48.019C20.8244 48.0536 20.9333 48.093 21.0417 48.1373C21.1501 48.1819 21.2452 48.2361 21.3265 48.3002C21.4078 48.3643 21.4747 48.442 21.5265 48.5333C21.5782 48.6245 21.6041 48.7344 21.6041 48.8626C21.6041 48.9909 21.5806 49.1056 21.5337 49.2064Z" fill="#0CB4C4"></path><path d="M35.1195 47.6738C31.7215 47.6738 28.957 50.4383 28.957 53.8368C28.957 57.2348 31.7215 59.9993 35.1195 59.9993C38.518 59.9993 41.2825 57.2348 41.2825 53.8368C41.2825 50.4383 38.518 47.6738 35.1195 47.6738ZM35.1195 58.3326C32.6407 58.3326 30.6237 56.3156 30.6237 53.8368C30.6237 51.3575 32.6407 49.3405 35.1195 49.3405C37.5988 49.3405 39.6158 51.3575 39.6158 53.8368C39.6158 56.3156 37.5988 58.3326 35.1195 58.3326Z" fill="#0CB4C4"></path><path d="M36.4445 53.9734C36.2963 53.8624 36.1247 53.7712 35.9302 53.6995C35.7351 53.6281 35.5316 53.5628 35.3196 53.5035L35.3341 53.4962V51.75C35.522 51.7548 35.6954 51.7979 35.8562 51.8795C36.0163 51.9608 36.153 52.0731 36.2668 52.2161L36.7991 51.6982C36.6118 51.501 36.3885 51.3565 36.1295 51.2653C35.8706 51.1741 35.6057 51.1283 35.3341 51.1283V50.5957H34.9349V51.1283C34.7374 51.143 34.5477 51.1888 34.3652 51.2653C34.1827 51.3418 34.022 51.4429 33.8841 51.5688C33.7462 51.6943 33.6348 51.8424 33.5511 52.0125C33.4674 52.1827 33.4253 52.3739 33.4253 52.5861C33.4253 52.8227 33.4662 53.0251 33.5475 53.1927C33.6288 53.3605 33.7396 53.5035 33.8805 53.6218C34.0208 53.7404 34.181 53.8377 34.3616 53.9141C34.541 53.9906 34.7325 54.0535 34.9349 54.1029V55.9233C34.7277 55.9133 34.5278 55.8579 34.3357 55.7567C34.143 55.6556 33.9901 55.5114 33.8769 55.3238L33.3066 55.8344C33.509 56.0957 33.7498 56.2794 34.0286 56.3857C34.3068 56.4917 34.6091 56.5446 34.9349 56.5446V57.0773H35.3341V56.5446C35.5466 56.5299 35.7496 56.4853 35.9447 56.4116C36.1398 56.3375 36.3096 56.2351 36.4553 56.1045C36.601 55.9738 36.7166 55.817 36.8033 55.6345C36.8895 55.4521 36.9328 55.2473 36.9328 55.0203C36.9328 54.7689 36.8882 54.5591 36.7991 54.3914C36.7106 54.2237 36.592 54.0843 36.4445 53.9734ZM34.9349 53.3927C34.8313 53.3629 34.7314 53.3259 34.635 53.2816C34.5386 53.2371 34.4537 53.1828 34.3797 53.1187C34.3056 53.0546 34.2466 52.9796 34.202 52.8932C34.1581 52.8068 34.1358 52.7044 34.1358 52.5861C34.1358 52.3491 34.2099 52.1607 34.3574 52.0201C34.5055 51.8795 34.6982 51.7894 34.9349 51.75V53.3927ZM36.1518 55.3939C36.1048 55.4951 36.041 55.5827 35.9597 55.6568C35.8785 55.7308 35.7845 55.7898 35.6785 55.8344C35.5725 55.8787 35.4575 55.9082 35.3341 55.9233V54.2065C35.4425 54.2411 35.5515 54.2805 35.6599 54.3248C35.7682 54.3694 35.8634 54.4236 35.9447 54.4877C36.026 54.5518 36.0928 54.6295 36.1446 54.7207C36.1964 54.812 36.2223 54.9219 36.2223 55.0501C36.2223 55.1784 36.1988 55.2931 36.1518 55.3939Z" fill="#0CB4C4"></path><path d="M50.6559 17.3173H47.371C47.2286 7.74414 39.3966 0 29.79 0C20.1835 0 12.3515 7.74414 12.2091 17.3173H8.92415C4.0035 17.3173 0 21.3208 0 26.2415C0 31.1625 4.0035 35.166 8.92415 35.166H15.6848V37.2831C15.6848 37.7433 16.0579 38.1165 16.5181 38.1165C16.9784 38.1165 17.3515 37.7433 17.3515 37.2831V34.3347L17.3519 34.3327L17.3515 34.3306V28.5352H28.9567V37.2831C28.9567 37.7433 29.3298 38.1165 29.79 38.1165C30.2502 38.1165 30.6234 37.7433 30.6234 37.2831V28.5352H42.2286V42.6046C42.2286 43.0648 42.6017 43.4379 43.0619 43.4379C43.5221 43.4379 43.8953 43.0648 43.8953 42.6046V35.166H50.6559C55.5766 35.166 59.5801 31.1625 59.5801 26.2415C59.5801 21.3208 55.5766 17.3173 50.6559 17.3173ZM50.6559 33.4994H43.8953V28.5352H46.7171C47.1773 28.5352 47.5505 28.162 47.5505 27.7018C47.5505 27.2416 47.1773 26.8685 46.7171 26.8685H12.863C12.4028 26.8685 12.0296 27.2416 12.0296 27.7018C12.0296 28.162 12.4028 28.5352 12.863 28.5352H15.6848V33.4994H8.92415C4.92228 33.4994 1.66667 30.2433 1.66667 26.2415C1.66667 22.2396 4.92228 18.984 8.92415 18.984H13.0693C13.2951 18.984 13.5116 18.892 13.6686 18.7297C13.8257 18.5673 13.9099 18.348 13.9022 18.1222C13.8989 18.0334 13.8932 17.9456 13.8871 17.8577C13.8806 17.7665 13.8737 17.6758 13.8737 17.583C13.8737 8.80656 21.0136 1.66667 29.79 1.66667C38.5665 1.66667 45.7064 8.80656 45.7064 17.583C45.7064 17.6758 45.6995 17.7665 45.693 17.8577C45.6868 17.9456 45.6812 18.0334 45.6779 18.1222C45.6702 18.348 45.7544 18.5673 45.9115 18.7297C46.0685 18.892 46.285 18.984 46.5108 18.984H50.6559C54.6578 18.984 57.9134 22.2396 57.9134 26.2415C57.9134 30.2433 54.6578 33.4994 50.6559 33.4994Z" fill="#0CB4C4"></path><path d="M30.6237 44.3096V42.4622C30.6237 42.002 30.2506 41.6289 29.7904 41.6289C29.3302 41.6289 28.957 42.002 28.957 42.4622V44.3096C28.957 44.7698 29.3302 45.1429 29.7904 45.1429C30.2506 45.1429 30.6237 44.7698 30.6237 44.3096Z" fill="#0CB4C4"></path><path d="M43.0618 46.8613C42.6016 46.8613 42.2285 47.2345 42.2285 47.6947V49.4167C42.2285 49.8769 42.6016 50.25 43.0618 50.25C43.5221 50.25 43.8952 49.8769 43.8952 49.4167V47.6947C43.8952 47.2345 43.5221 46.8613 43.0618 46.8613Z" fill="#0CB4C4"></path></svg>