<svg width="60" height="62" viewBox="0 0 60 62" fill="none" xmlns="http://www.w3.org/2000/svg"><mask id="path-1-outside-1_427_26" maskUnits="userSpaceOnUse" x="0" y="0" width="60" height="62" fill="black"><rect fill="white" width="60" height="62"></rect><path d="M12.0093 54.9122C11.9494 54.9962 11.8535 55.0382 11.7606 55.0382C11.6947 55.0382 11.6318 55.0202 11.5778 54.9782C10.6609 54.2972 9.7739 53.5532 8.9409 52.7733C8.81505 52.6563 8.80905 52.4583 8.92891 52.3323C9.04577 52.2063 9.24055 52.2003 9.3694 52.3203C10.1845 53.0853 11.0564 53.8142 11.9524 54.4832C12.0813 54.5792 12.1082 54.7712 12.0093 54.9122ZM24.1964 59.7841C23.0937 59.5861 21.994 59.3222 20.9242 59.0012C20.7624 58.9502 20.5856 59.0462 20.5377 59.2082C20.4867 59.3732 20.5826 59.5472 20.7444 59.5952C21.8382 59.9252 22.9618 60.1952 24.0886 60.3962C24.1066 60.3992 24.1245 60.4022 24.1455 60.4022C24.2923 60.4022 24.4242 60.2972 24.4512 60.1472C24.4781 59.9762 24.3672 59.8141 24.1964 59.7841ZM17.7629 57.8432C16.7381 57.3992 15.7253 56.8892 14.7544 56.3282C14.6075 56.2412 14.4158 56.2922 14.3319 56.4422C14.245 56.5892 14.2959 56.7812 14.4457 56.8652C15.4346 57.4382 16.4684 57.9572 17.5172 58.4131C17.5561 58.4311 17.6011 58.4371 17.64 58.4371C17.7599 58.4371 17.8737 58.3652 17.9247 58.2482C17.9906 58.0952 17.9217 57.9092 17.7629 57.8432ZM58.4527 27.3912C58.4707 27.5472 58.6055 27.6672 58.7584 27.6672C58.7703 27.6672 58.7823 27.6672 58.7973 27.6642C58.9681 27.6432 59.088 27.4902 59.067 27.3192C58.9321 26.1822 58.7254 25.0453 58.4617 23.9353C58.4227 23.7673 58.2519 23.6653 58.0871 23.7043C57.9193 23.7433 57.8175 23.9113 57.8564 24.0793C58.1201 25.1623 58.3179 26.2783 58.4527 27.3912ZM59.2857 30.7481C59.2827 30.5771 59.1449 30.4391 58.9741 30.4391H58.9711C58.8003 30.4421 58.6624 30.5801 58.6624 30.7511V30.9311C58.6624 31.9931 58.6055 33.0671 58.4916 34.117C58.4737 34.288 58.5965 34.441 58.7673 34.459C58.7793 34.462 58.7913 34.462 58.8033 34.462C58.9591 34.462 59.0939 34.342 59.1119 34.183C59.2258 33.1091 59.2857 32.0141 59.2857 30.9311V30.7481ZM53.865 14.8425C53.9249 14.9325 54.0238 14.9835 54.1227 14.9835C54.1826 14.9835 54.2396 14.9655 54.2935 14.9325C54.4373 14.8395 54.4763 14.6445 54.3804 14.5035C53.7541 13.5495 53.0619 12.6195 52.3308 11.7435C52.2229 11.6115 52.0251 11.5935 51.8933 11.7045C51.7614 11.8125 51.7435 12.0105 51.8543 12.1425C52.5735 12.9975 53.2507 13.9095 53.865 14.8425ZM56.1214 43.6448C55.9656 43.5699 55.7828 43.6329 55.7049 43.7858C55.2134 44.7908 54.6591 45.7778 54.0568 46.7228C53.9639 46.8668 54.0059 47.0588 54.1497 47.1517C54.2006 47.1847 54.2576 47.2027 54.3175 47.2027C54.4194 47.2027 54.5183 47.1517 54.5782 47.0587C55.1955 46.0958 55.7619 45.0848 56.2652 44.0589C56.3401 43.9059 56.2772 43.7198 56.1214 43.6448ZM57.284 21.0347C57.4458 20.9747 57.5267 20.7977 57.4668 20.6357C57.0743 19.5618 56.6158 18.4998 56.1004 17.4798C56.0225 17.3268 55.8367 17.2638 55.6839 17.3418C55.5311 17.4198 55.4682 17.6058 55.5461 17.7588C56.0495 18.7578 56.502 19.7987 56.8855 20.8487C56.9305 20.9747 57.0503 21.0527 57.1762 21.0527C57.2151 21.0557 57.2511 21.0467 57.284 21.0347ZM58.3118 37.2076C58.144 37.1686 57.9792 37.2736 57.9402 37.4416C57.6915 38.5336 57.3769 39.6225 57.0053 40.6785C56.9483 40.8405 57.0352 41.0175 57.194 41.0745C57.23 41.0865 57.263 41.0925 57.2989 41.0925C57.4278 41.0925 57.5476 41.0115 57.5926 40.8855C57.9731 39.8056 58.2938 38.6955 58.5455 37.5796C58.5844 37.4146 58.4796 37.2466 58.3118 37.2076ZM14.934 5.39016C14.985 5.39016 15.0389 5.37816 15.0868 5.35116C16.0637 4.80517 17.0826 4.30717 18.1103 3.87518C18.2691 3.80918 18.3411 3.62618 18.2781 3.46719C18.2122 3.31119 18.0294 3.23319 17.8706 3.29919C16.8188 3.74018 15.779 4.24719 14.7812 4.80513C14.6314 4.88913 14.5775 5.07812 14.6614 5.22811C14.7183 5.33311 14.8232 5.39016 14.934 5.39016ZM21.1968 2.77119C21.2268 2.77119 21.2537 2.76819 21.2837 2.75919C22.3564 2.4502 23.4591 2.2012 24.5648 2.01821C24.7326 1.98821 24.8495 1.82922 24.8195 1.66122C24.7896 1.49323 24.6308 1.37623 24.463 1.40623C23.3362 1.59223 22.2066 1.84722 21.1098 2.16221C20.945 2.21021 20.8492 2.38121 20.8971 2.54621C20.9361 2.6842 21.0619 2.77119 21.1968 2.77119ZM9.42932 9.37406C9.50423 9.37406 9.57914 9.34706 9.63908 9.29306C10.4661 8.53708 11.3441 7.82008 12.249 7.16614C12.3869 7.06714 12.4198 6.86915 12.3179 6.73115C12.2161 6.59315 12.0213 6.56015 11.8834 6.66215C10.9605 7.33113 10.0615 8.0631 9.2165 8.83408C9.09065 8.94808 9.08166 9.14607 9.19852 9.27507C9.26145 9.34107 9.34542 9.37406 9.42932 9.37406ZM27.909 1.65815C29.0237 1.60116 30.1624 1.61016 31.2741 1.68215H31.2921C31.4539 1.68215 31.5917 1.55616 31.6007 1.39116C31.6127 1.22016 31.4808 1.07317 31.31 1.06116C30.1713 0.989166 29.0117 0.980166 27.873 1.03717C27.7022 1.04617 27.5703 1.19016 27.5763 1.36416C27.5943 1.53515 27.7352 1.66716 27.909 1.65815ZM8.8118 36.0315V28.0099C8.8118 27.6469 9.00057 27.3259 9.31521 27.1489C9.63284 26.9719 10.0044 26.9809 10.3131 27.1729L16.7736 31.1839C17.0643 31.3639 17.2411 31.6758 17.2411 32.0208C17.2411 32.3658 17.0673 32.6778 16.7736 32.8577L10.3131 36.8687C10.1513 36.9677 9.97446 37.0187 9.79467 37.0187C9.63286 37.0187 9.46805 36.9767 9.31523 36.8927C8.9976 36.7157 8.8118 36.3945 8.8118 36.0315ZM9.42908 36.0315C9.42908 36.2235 9.56093 36.3165 9.61487 36.3495C9.6718 36.3795 9.81863 36.4425 9.98344 36.3405L16.444 32.3295C16.5518 32.2635 16.6178 32.1495 16.6178 32.0205C16.6178 31.8915 16.5548 31.7775 16.444 31.7115L9.98344 27.6976C9.91752 27.6556 9.85159 27.6406 9.79466 27.6406C9.71376 27.6406 9.64783 27.6706 9.61487 27.6886C9.55793 27.7186 9.42908 27.8146 9.42908 28.0066V36.0315ZM17.7476 47.7009H6.55855C5.97423 47.7009 5.4978 47.224 5.4978 46.639V40.7861H2.82488C1.82104 40.7861 1 39.9671 1 38.9592V25.0787C1 24.0737 1.81805 23.2547 2.82189 23.2517C2.726 23.1017 2.6391 22.9487 2.5522 22.7897C2.52823 22.7597 2.51025 22.7267 2.49826 22.6877C2.49826 22.6847 2.49826 22.6817 2.49527 22.6787C2.04879 21.7908 1.79408 20.7888 1.79408 19.7268C1.79408 16.0968 4.74569 13.1419 8.37144 13.1419C10.5619 13.1419 12.5036 14.2219 13.7022 15.8749C14.4873 16.9609 14.9518 18.2898 14.9518 19.7268C14.9518 20.7648 14.7091 21.7487 14.2806 22.6217C14.2776 22.6427 14.2746 22.6637 14.2686 22.6847C14.2506 22.7447 14.2176 22.7927 14.1727 22.8317C14.0948 22.9727 14.0139 23.1137 13.927 23.2517H21.4722C22.476 23.2517 23.2971 24.0706 23.2971 25.0786V38.9591C23.2971 39.9641 22.479 40.7861 21.4722 40.7861H18.8023V46.6389C18.8083 47.2239 18.3319 47.7009 17.7476 47.7009ZM6.55855 47.077H17.7507C17.9934 47.077 18.1912 46.879 18.1912 46.636L18.1882 39.2561C18.1882 39.0131 17.9904 38.8151 17.7477 38.8151H8.61141C8.52751 38.8151 8.4496 38.7821 8.39266 38.7251L6.11834 36.4512V46.6393C6.11834 46.8823 6.31284 47.077 6.55855 47.077ZM1.62328 38.9594C1.62328 39.6224 2.16266 40.1624 2.82488 40.1624H5.4948V35.6985C5.4948 35.5725 5.56972 35.4615 5.68658 35.4105C5.80344 35.3625 5.93529 35.3895 6.02519 35.4765L8.74007 38.1914H17.7475C18.3318 38.1914 18.8082 38.6684 18.8082 39.2534V40.1624L21.4752 40.1654C22.1374 40.1654 22.6768 39.6254 22.6768 38.9624V25.0819C22.6768 24.4189 22.1374 23.879 21.4752 23.879H13.4803C12.3896 25.2229 10.7835 26.1289 8.9646 26.2909C8.93164 26.3029 8.89868 26.3089 8.85972 26.3089C8.84474 26.3089 8.82976 26.3029 8.81478 26.2999C8.66794 26.3089 8.52112 26.3179 8.37129 26.3179C8.1915 26.3179 8.0177 26.3089 7.84091 26.2939C7.83791 26.2939 7.83192 26.2969 7.82892 26.2969C7.80495 26.2969 7.78397 26.2939 7.76 26.2879C5.95008 26.1199 4.35296 25.2139 3.2652 23.876H2.82171C2.15948 23.876 1.62011 24.4159 1.62011 25.0789V38.9594L1.62328 38.9594ZM5.79743 21.623C7.51744 21.38 9.21046 21.377 10.9305 21.617C11.2391 20.336 11.1882 19.145 10.9574 18.0951C10.0974 18.2121 9.24042 18.2751 8.38639 18.2751C7.53237 18.2751 6.67834 18.2151 5.81834 18.0951C5.57862 19.1541 5.51276 20.354 5.79743 21.623ZM5.96224 22.229C6.30984 23.3449 6.94506 24.5119 7.98487 25.6819C8.11672 25.6909 8.24857 25.6969 8.38041 25.6969C8.49727 25.6969 8.61114 25.6939 8.728 25.6849C9.75885 24.4969 10.4001 23.3299 10.7626 22.22C9.15344 22.007 7.56833 22.01 5.96224 22.229ZM5.35394 22.322C4.66474 22.439 3.97253 22.598 3.26832 22.7929C4.09235 24.1669 5.45282 25.1809 7.05892 25.5469C6.2019 24.4549 5.65963 23.3719 5.35394 22.322ZM13.4891 22.787C12.776 22.586 12.0688 22.43 11.3676 22.313C11.044 23.3599 10.4956 24.4519 9.62966 25.5619C11.2657 25.2079 12.6561 24.1819 13.4891 22.787ZM14.3342 19.733C14.3342 18.935 14.1754 18.1731 13.8907 17.4771C13.0997 17.702 12.3145 17.879 11.5384 18.008C11.7812 19.118 11.8381 20.372 11.5324 21.7129C12.2756 21.8389 13.0277 22.0129 13.7888 22.2289C14.1394 21.4669 14.3342 20.6209 14.3342 19.733ZM13.621 16.9041C12.803 15.3921 11.3557 14.2731 9.62966 13.9011C10.1451 14.5881 10.9331 15.8211 11.3857 17.402C12.1258 17.279 12.8689 17.1141 13.621 16.9041ZM8.37713 13.7662C8.24228 13.7662 8.10744 13.7722 7.97559 13.7812C7.7119 14.0902 6.57623 15.4912 5.97988 17.4861C7.59503 17.6991 9.18916 17.6991 10.8043 17.4831C10.205 15.4701 9.0184 14.0841 8.73672 13.7752C8.61686 13.7722 8.49699 13.7662 8.37713 13.7662ZM3.13623 16.9011C3.89735 17.1141 4.64951 17.2821 5.3956 17.4021C5.85107 15.8301 6.61216 14.5942 7.10365 13.9071C5.38962 14.2851 3.95129 15.3981 3.13623 16.9011ZM2.42007 19.733C2.42007 20.627 2.61784 21.4699 2.97143 22.2319C3.72356 22.0159 4.46369 21.8449 5.2008 21.7189C4.91614 20.387 4.99104 19.13 5.23976 18.0081C4.4547 17.8761 3.66657 17.6991 2.86647 17.4711C2.5788 18.1671 2.42007 18.932 2.42007 19.733ZM7.83778 44.3322C7.83778 45.2201 8.55995 45.9402 9.44396 45.9402H10.1541C11.0411 45.9402 11.7603 45.2172 11.7603 44.3322C11.7603 44.1612 11.6195 44.0202 11.4487 44.0202C11.2779 44.0202 11.137 44.1582 11.137 44.3322C11.137 44.8752 10.6965 45.3192 10.1511 45.3192H9.44096C8.89859 45.3192 8.45507 44.8752 8.45507 44.3322V41.8453C8.45507 41.3023 8.89556 40.8582 9.44096 40.8582H10.1511C10.6935 40.8582 11.137 41.3022 11.137 41.8453C11.137 42.0163 11.2779 42.1572 11.4487 42.1572C11.6195 42.1572 11.7603 42.0193 11.7603 41.8453C11.7603 40.9573 11.0381 40.2373 10.1541 40.2373H9.44396C8.55702 40.2373 7.83778 40.9602 7.83778 41.8453V44.3322ZM14.2893 40.2373C13.4024 40.2373 12.6832 40.9603 12.6832 41.8453V44.3323C12.6832 45.2202 13.4053 45.9403 14.2893 45.9403H14.9995C15.8864 45.9403 16.6057 45.2173 16.6057 44.3323C16.6057 44.1613 16.4648 44.0203 16.294 44.0203C16.1232 44.0203 15.9824 44.1583 15.9824 44.3323C15.9824 44.8753 15.5389 45.3193 14.9965 45.3193H14.2863C13.744 45.3193 13.3004 44.8753 13.3004 44.3323V41.8453C13.3004 41.3023 13.7409 40.8583 14.2863 40.8583H14.9965C15.5389 40.8583 15.9824 41.3023 15.9824 41.8453C15.9824 42.0163 16.1232 42.1573 16.294 42.1573C16.4648 42.1573 16.6057 42.0193 16.6057 41.8453C16.6057 40.9574 15.8835 40.2373 14.9995 40.2373H14.2893ZM46.1336 42.7723V45.3312C46.1336 45.5022 45.9928 45.6432 45.822 45.6432C45.6512 45.6432 45.5103 45.5052 45.5103 45.3312V42.9012L42.1781 39.5653V41.8392C42.1781 42.1812 42.4568 42.4602 42.7984 42.4602H43.2629C43.4337 42.4602 43.5745 42.5982 43.5745 42.7722C43.5745 42.9462 43.4337 43.0842 43.2629 43.0842H42.8014C42.1182 43.0842 41.5609 42.5262 41.5609 41.8422V39.1272H31.412C31.0704 39.1272 30.7917 39.4062 30.7917 39.7482V59.761C30.7917 60.103 31.0704 60.382 31.412 60.382L44.8932 60.379C45.2348 60.379 45.5135 60.1 45.5135 59.758V59.293C45.5135 59.122 45.6543 58.981 45.8251 58.981C45.9959 58.981 46.1367 59.119 46.1367 59.293V59.758C46.1367 60.442 45.5794 61 44.8962 61H31.415C30.7318 61 30.1744 60.442 30.1744 59.758L30.1714 58.2071H28.6222C27.939 58.2071 27.3817 57.6491 27.3817 56.9651V36.9523C27.3817 36.2683 27.939 35.7103 28.6222 35.7103H39.0802C39.1641 35.7103 39.2421 35.7433 39.299 35.8003L46.0382 42.5472C46.0682 42.5772 46.0891 42.6102 46.1041 42.6492C46.1041 42.6522 46.1041 42.6522 46.1071 42.6522C46.1251 42.6942 46.1336 42.7333 46.1336 42.7723ZM31.412 38.5064H41.1205L38.9511 36.3345H28.6189C28.2773 36.3345 27.9986 36.6134 27.9986 36.9554V56.9683C27.9986 57.3103 28.2773 57.5892 28.6189 57.5892H30.168V39.7513C30.171 39.0614 30.7288 38.5064 31.412 38.5064ZM41.2525 49.3871C41.1596 49.5311 41.2015 49.7231 41.3454 49.8161C41.3484 49.8191 41.3514 49.8191 41.3544 49.8221C41.4982 49.9061 41.681 49.8641 41.7739 49.7231C42.6639 48.3342 44.1771 47.5032 45.8221 47.5032C48.0875 47.5032 50.0652 49.1112 50.5237 51.3251C50.5237 51.3311 50.5267 51.3371 50.5267 51.3431C50.5926 51.6551 50.6256 51.9821 50.6256 52.3121C50.6256 52.3691 50.6196 52.4261 50.6166 52.4861L50.224 52.0931C50.1042 51.9731 49.9064 51.9731 49.7835 52.0931C49.6637 52.2131 49.6637 52.4111 49.7835 52.5341L50.7124 53.464C50.7364 53.488 50.7604 53.503 50.7903 53.518C50.8353 53.542 50.8832 53.554 50.9342 53.554C51.0181 53.554 51.096 53.521 51.1529 53.464L52.0818 52.5341C52.2017 52.4141 52.2017 52.2161 52.0818 52.0931C51.962 51.9731 51.7642 51.9731 51.6413 52.0931L51.2338 52.5011C51.2368 52.4381 51.2428 52.3751 51.2428 52.3121C51.2428 51.9461 51.2068 51.5801 51.1349 51.2322C51.1349 51.2262 51.1319 51.2202 51.1319 51.2172C50.6165 48.7092 48.3841 46.8853 45.8191 46.8853C43.9642 46.8823 42.2563 47.8182 41.2525 49.3871ZM49.8702 54.901C48.9802 56.29 47.467 57.1209 45.8219 57.1209C43.5506 57.1209 41.5728 55.507 41.1174 53.284C41.0515 52.972 41.0185 52.645 41.0185 52.3121C41.0185 52.2551 41.0245 52.1981 41.0275 52.1381L41.42 52.5311C41.48 52.5911 41.5609 52.6211 41.6388 52.6211C41.7167 52.6211 41.7976 52.5911 41.8575 52.5311C41.9774 52.4111 41.9774 52.2131 41.8575 52.0901L40.9286 51.1601C40.9047 51.1361 40.8777 51.1241 40.8507 51.1091C40.7339 51.0491 40.587 51.0611 40.4882 51.1601L39.5593 52.0901C39.4394 52.2101 39.4394 52.4081 39.5593 52.5311C39.6791 52.6511 39.8769 52.6511 39.9997 52.5311L40.4073 52.1231C40.4043 52.1861 40.3983 52.2491 40.3983 52.3121C40.3983 52.6871 40.4342 53.0561 40.5092 53.4101C41.0246 55.918 43.2569 57.7419 45.822 57.7419C47.6799 57.7419 49.3878 56.8059 50.3917 55.237C50.4846 55.093 50.4426 54.901 50.2988 54.808C50.2958 54.805 50.2928 54.805 50.2898 54.802C50.146 54.721 49.9601 54.763 49.8702 54.901ZM33.5031 44.2453H39.5471C39.7179 44.2453 39.8588 44.1073 39.8588 43.9333C39.8588 43.7593 39.7179 43.6213 39.5471 43.6213H33.5031C33.3323 43.6213 33.1915 43.7593 33.1915 43.9333C33.1945 44.1073 33.3323 44.2453 33.5031 44.2453ZM33.5031 47.5032H39.5471C39.7179 47.5032 39.8588 47.3652 39.8588 47.1912C39.8588 47.0172 39.7179 46.8792 39.5471 46.8792H33.5031C33.3323 46.8792 33.1915 47.0172 33.1915 47.1912C33.1945 47.3652 33.3323 47.5032 33.5031 47.5032ZM33.5031 50.7641H38.1507C38.3215 50.7641 38.4624 50.6261 38.4624 50.4521C38.4624 50.2781 38.3215 50.1401 38.1507 50.1401H33.5031C33.3323 50.1401 33.1915 50.2781 33.1915 50.4521C33.1945 50.6231 33.3323 50.7641 33.5031 50.7641ZM33.5031 53.3981C33.3323 53.3981 33.1915 53.5361 33.1915 53.7101C33.1915 53.8841 33.3323 54.0221 33.5031 54.0221H38.1507C38.3215 54.0221 38.4624 53.8841 38.4624 53.7101C38.4624 53.5361 38.3215 53.3981 38.1507 53.3981H33.5031ZM33.1945 56.965C33.1945 57.136 33.3353 57.277 33.5061 57.277H39.5501C39.7209 57.277 39.8618 57.139 39.8618 56.965C39.8618 56.791 39.7209 56.653 39.5501 56.653H33.5061C33.3323 56.656 33.1945 56.794 33.1945 56.965ZM30.5396 27.026V6.54545C30.5396 5.82547 31.1239 5.2405 31.8431 5.2405H33.7698V4.40954C33.7698 4.03455 34.0755 3.72856 34.45 3.72856H37.5844C37.6113 3.72856 37.6353 3.71056 37.6413 3.68956C37.8091 2.74156 38.6302 2.0546 39.5951 2.0546C40.5569 2.0546 41.378 2.74158 41.5458 3.68956C41.5488 3.71056 41.5758 3.72856 41.6028 3.72856H44.7371C45.1116 3.72856 45.4173 4.03455 45.4173 4.40954V5.2375H47.344C48.0632 5.2375 48.6475 5.82249 48.6475 6.54246V17.0991C48.6475 17.2701 48.5067 17.4111 48.3359 17.4111C48.1651 17.4111 48.0242 17.2731 48.0242 17.0991L48.0182 6.54553C48.0182 6.16753 47.7126 5.86155 47.335 5.86155H45.4083V7.01651C45.4083 7.3915 45.1026 7.6975 44.7281 7.6975H34.4503C34.0758 7.6975 33.7701 7.3915 33.7701 7.01651V5.86155H31.8434C31.4658 5.86155 31.1602 6.16754 31.1602 6.54553V27.0261C31.1602 27.2271 31.2471 27.419 31.4029 27.551C31.4119 27.554 31.4149 27.56 31.4209 27.566C31.5377 27.662 31.6846 27.713 31.8404 27.713H35.3044C35.4752 27.713 35.616 27.851 35.616 28.025C35.616 28.196 35.4752 28.337 35.3044 28.337H31.8404C31.5497 28.337 31.2741 28.244 31.0494 28.07C31.0404 28.064 31.0314 28.058 31.0254 28.052C30.7167 27.797 30.5396 27.4249 30.5396 27.026ZM37.5844 4.35286H34.4501C34.4171 4.35286 34.3932 4.37686 34.3932 4.40986V7.01677C34.3932 7.04977 34.4171 7.07677 34.4501 7.07677H44.7278C44.7608 7.07677 44.7878 7.04977 44.7878 7.01677V4.40986C44.7878 4.37986 44.7608 4.35286 44.7278 4.35286H41.5935C41.2669 4.35286 40.9852 4.12187 40.9283 3.80088C40.8144 3.14989 40.2481 2.67893 39.5888 2.67893C38.9266 2.67893 38.3632 3.14992 38.2494 3.80088C38.1894 4.12187 37.9111 4.35286 37.5844 4.35286ZM36.6255 13.1278C36.4457 13.0438 36.272 12.9268 36.0802 12.8008C35.6247 12.4978 35.1093 12.1528 34.501 12.3298C33.8657 12.5128 33.5631 13.1968 33.4013 13.5628C33.3324 13.7188 33.4043 13.9018 33.5601 13.9738C33.599 13.9918 33.644 14.0008 33.6859 14.0008C33.8058 14.0008 33.9167 13.9318 33.9706 13.8178C34.1384 13.4368 34.3452 13.0259 34.6748 12.9299C35.0074 12.8339 35.343 13.0619 35.7385 13.3229C35.9393 13.4549 36.1461 13.5929 36.3648 13.6949C37.1289 14.0489 38.1358 13.9379 39.0527 13.4039C39.5921 13.0859 40.0595 12.6719 40.509 12.2699C40.6888 12.1109 40.8686 11.9519 41.0483 11.7989C41.1053 11.7509 41.1412 11.7269 41.1592 11.7179C41.1832 11.7449 41.2191 11.7989 41.2521 11.8439C41.7016 12.5189 42.4627 12.9749 43.3437 13.0919C44.2247 13.2089 45.0787 12.9719 45.69 12.4379C45.8188 12.3239 45.8308 12.1289 45.72 11.9999C45.6061 11.8709 45.4113 11.8559 45.2825 11.9699C44.806 12.3869 44.1288 12.5699 43.4246 12.4769C42.7204 12.3839 42.1181 12.0269 41.7555 11.4869C41.6686 11.3549 41.5338 11.1569 41.2881 11.1029C40.9884 11.0369 40.7487 11.2379 40.6468 11.3219C40.458 11.4779 40.2752 11.6459 40.0895 11.8079C39.643 12.2069 39.2205 12.5848 38.735 12.8668C37.9979 13.2988 37.2099 13.3978 36.6255 13.1278ZM45.2885 16.6138C44.8121 17.0308 44.1349 17.2137 43.4307 17.1208C42.7265 17.0278 42.1242 16.6708 41.7616 16.1307C41.6747 15.9987 41.5398 15.8008 41.2941 15.7468C40.9945 15.6808 40.7547 15.8818 40.6529 15.9658C40.4641 16.1217 40.2783 16.2898 40.0955 16.4517C39.649 16.8507 39.2265 17.2287 38.7411 17.5107C37.998 17.9457 37.2069 18.0417 36.6256 17.7747C36.4458 17.6907 36.272 17.5737 36.0802 17.4477C35.6247 17.1447 35.1093 16.7997 34.501 16.9767C33.8658 17.1597 33.5631 17.8437 33.4013 18.2097C33.3324 18.3657 33.4043 18.5487 33.5601 18.6207C33.5991 18.6387 33.644 18.6477 33.686 18.6477C33.8058 18.6477 33.9167 18.5787 33.9706 18.4647C34.1384 18.0837 34.3452 17.6728 34.6748 17.5768C35.0074 17.4808 35.343 17.7088 35.7386 17.9698C35.9393 18.1018 36.1461 18.2398 36.3648 18.3418C37.1289 18.6958 38.1358 18.5848 39.0527 18.0508C39.5921 17.7328 40.0595 17.3188 40.509 16.9168C40.6888 16.7578 40.8686 16.5958 41.0484 16.4458C41.1053 16.3978 41.1412 16.3738 41.1592 16.3648C41.1832 16.3918 41.2192 16.4458 41.2521 16.4908C41.7016 17.1658 42.4627 17.6218 43.3437 17.7387C44.2247 17.8557 45.0787 17.6187 45.69 17.0848C45.8189 16.9708 45.8308 16.7758 45.72 16.6468C45.6121 16.5148 45.4174 16.4998 45.2885 16.6138ZM40.2933 20.9217L40.0985 21.0957C39.6521 21.4917 39.2326 21.8696 38.7441 22.1546C38.001 22.5896 37.2129 22.6886 36.6286 22.4186C36.4488 22.3346 36.275 22.2176 36.0832 22.0916C35.6278 21.7887 35.1124 21.4437 34.5041 21.6207C33.8688 21.8037 33.5661 22.4876 33.4043 22.8537C33.3354 23.0096 33.4073 23.1926 33.5631 23.2646C33.6021 23.2826 33.6471 23.2916 33.689 23.2916C33.8089 23.2916 33.9197 23.2226 33.9737 23.1086C34.1415 22.7277 34.3482 22.3167 34.6779 22.2207C35.0105 22.1247 35.3461 22.3527 35.7416 22.6137C35.9424 22.7457 36.1491 22.8837 36.3679 22.9857C37.132 23.3397 38.1388 23.2287 39.0558 22.6947C39.5951 22.3797 40.0596 21.9657 40.512 21.5637L40.7068 21.3897C40.8357 21.2757 40.8476 21.0807 40.7338 20.9517C40.6169 20.8197 40.4222 20.8077 40.2933 20.9217ZM55.2044 32.0751L53.4814 32.0931H53.4754C53.1997 32.0931 52.951 31.9851 52.7622 31.7931C52.7383 31.7691 52.7173 31.7361 52.6963 31.7091L52.076 31.6371C51.7404 31.7361 51.4078 31.8051 51.0842 31.8591C50.6167 31.9341 50.1613 31.9671 49.7298 31.9671C47.764 31.9671 46.2178 31.3071 45.6754 31.0431C45.5885 30.9981 45.4896 30.9771 45.3878 30.9711L41.3304 30.7971C41.3214 30.7971 41.3125 30.7941 41.3035 30.7941L41.2555 30.7881C41.2465 30.7851 41.2375 30.7851 41.2256 30.7851H41.2226C41.2196 30.7851 41.2166 30.7821 41.2136 30.7821C40.833 30.7311 40.5064 30.6291 40.2427 30.4821L37.6957 32.3631C37.6238 32.4201 37.5429 32.4501 37.459 32.4501C37.411 32.4501 37.3601 32.4381 37.3181 32.4171C37.1983 32.3601 37.1263 32.2371 37.1293 32.1021C37.1323 32.0541 37.1413 32.0031 37.1653 31.9491L38.4448 28.8351C38.4478 28.8261 38.4508 28.8201 38.4538 28.8141C38.4748 28.7721 38.4988 28.7301 38.5287 28.6881C38.5317 28.6851 38.5317 28.6851 38.5317 28.6821C38.3759 28.6431 38.2201 28.5771 38.0703 28.4782C37.8695 28.3462 37.7167 28.1932 37.6088 28.0222C37.5249 27.8902 37.468 27.7522 37.438 27.6022C37.3571 27.1912 37.486 26.7292 37.8186 26.2252C38.271 25.3972 41.3215 22.6073 42.3493 21.8003C43.1943 21.1373 44.1592 20.4593 44.9952 20.3663L46.7512 18.1074C47.1287 17.6214 47.791 17.4804 48.3214 17.7384C48.3993 17.7744 48.4712 17.8224 48.5401 17.8734C48.5731 17.8974 48.6061 17.9274 48.636 17.9544C48.8458 18.1554 48.9836 18.4194 49.0196 18.7134C49.0555 18.9804 49.0016 19.2444 48.8787 19.4754C48.8428 19.5384 48.8068 19.6014 48.7589 19.6584L48.3214 20.2223L47.815 20.8703L47.6801 21.0473C47.7251 21.0773 47.773 21.1073 47.815 21.1373C47.9948 21.2723 48.1596 21.4013 48.3214 21.5183C48.681 21.7883 49.0016 22.0193 49.2922 22.2203C50.5927 23.1203 51.288 23.4023 52.3607 23.7473C52.4835 23.7863 52.6514 23.8043 52.8251 23.8073C52.966 23.3753 53.3645 23.0543 53.826 23.0513C53.838 23.0513 53.853 23.0513 53.8649 23.0543L55.555 23.2613L55.516 23.5703L55.4771 23.8763L53.808 23.6723C53.5832 23.6813 53.3945 23.8763 53.3855 24.1133L53.0948 31.0521C53.0888 31.1661 53.1278 31.2711 53.2027 31.3491C53.2716 31.4211 53.3705 31.4631 53.4694 31.4601L55.1894 31.4421L55.1924 31.7541L55.2044 32.0751ZM51.9292 31.0311C51.9772 31.0101 52.0311 31.0011 52.0851 31.0071L52.4866 31.0551C52.4866 31.0491 52.4836 31.0431 52.4836 31.0371L52.7623 24.4372C52.5555 24.4282 52.3488 24.4012 52.1779 24.3472C50.7187 23.8762 49.8826 23.5012 47.4464 21.6353C47.4045 21.6023 47.3595 21.5723 47.3056 21.5423L43.9974 25.7962C45.2919 26.3392 45.6335 27.7192 45.6245 27.8722C45.6155 28.0372 45.4807 28.1692 45.3129 28.1692L41.6301 28.0402C41.5642 28.0372 41.4953 28.0432 41.4264 28.0432C41.3545 28.0462 41.2826 28.0492 41.2166 28.0492H41.1987C40.2278 28.0492 40.1019 28.8831 40.0929 29.2461C40.081 29.7231 40.5364 30.0651 41.3065 30.1701L41.5792 30.1881L45.4207 30.3501C45.6095 30.3591 45.7893 30.4041 45.9571 30.4851C46.6463 30.8211 49.1185 31.8621 51.9292 31.0311ZM39.0019 28.0822L44.3357 21.2273C43.8053 21.4853 43.23 21.9083 42.7416 22.2953C41.531 23.2463 38.6872 25.9252 38.3696 26.5342C38.3637 26.5432 38.3577 26.5552 38.3517 26.5642C38.106 26.9302 38.0071 27.2391 38.055 27.4851C38.091 27.6681 38.2108 27.8241 38.4236 27.9621C38.6124 28.0851 38.7981 28.1242 39.0019 28.0822ZM38.118 31.2801L39.7511 30.0712C39.5623 29.8342 39.4604 29.5462 39.4694 29.2252C39.4993 28.1272 40.1766 27.4222 41.1984 27.4222H41.2373C41.2913 27.4222 41.3422 27.4192 41.3961 27.4162C41.483 27.4132 41.5669 27.4072 41.6508 27.4102L41.9415 27.4192L43.233 25.7602L46.1276 22.0372L48.2761 19.2773C48.384 19.1393 48.432 18.9653 48.408 18.7913C48.387 18.6203 48.3001 18.4673 48.1653 18.3623C47.8806 18.1433 47.4701 18.1973 47.2454 18.4853L39.0772 28.9851C39.0682 28.9971 39.0592 29.0091 39.0502 29.0241C39.0382 29.0421 39.0292 29.0601 39.0202 29.0751L38.118 31.2801ZM44.8781 27.5272C44.7073 27.1402 44.3387 26.5643 43.6136 26.3213L42.7386 27.4523L44.8781 27.5272Z"></path></mask><path d="M12.0093 54.9122C11.9494 54.9962 11.8535 55.0382 11.7606 55.0382C11.6947 55.0382 11.6318 55.0202 11.5778 54.9782C10.6609 54.2972 9.7739 53.5532 8.9409 52.7733C8.81505 52.6563 8.80905 52.4583 8.92891 52.3323C9.04577 52.2063 9.24055 52.2003 9.3694 52.3203C10.1845 53.0853 11.0564 53.8142 11.9524 54.4832C12.0813 54.5792 12.1082 54.7712 12.0093 54.9122ZM24.1964 59.7841C23.0937 59.5861 21.994 59.3222 20.9242 59.0012C20.7624 58.9502 20.5856 59.0462 20.5377 59.2082C20.4867 59.3732 20.5826 59.5472 20.7444 59.5952C21.8382 59.9252 22.9618 60.1952 24.0886 60.3962C24.1066 60.3992 24.1245 60.4022 24.1455 60.4022C24.2923 60.4022 24.4242 60.2972 24.4512 60.1472C24.4781 59.9762 24.3672 59.8141 24.1964 59.7841ZM17.7629 57.8432C16.7381 57.3992 15.7253 56.8892 14.7544 56.3282C14.6075 56.2412 14.4158 56.2922 14.3319 56.4422C14.245 56.5892 14.2959 56.7812 14.4457 56.8652C15.4346 57.4382 16.4684 57.9572 17.5172 58.4131C17.5561 58.4311 17.6011 58.4371 17.64 58.4371C17.7599 58.4371 17.8737 58.3652 17.9247 58.2482C17.9906 58.0952 17.9217 57.9092 17.7629 57.8432ZM58.4527 27.3912C58.4707 27.5472 58.6055 27.6672 58.7584 27.6672C58.7703 27.6672 58.7823 27.6672 58.7973 27.6642C58.9681 27.6432 59.088 27.4902 59.067 27.3192C58.9321 26.1822 58.7254 25.0453 58.4617 23.9353C58.4227 23.7673 58.2519 23.6653 58.0871 23.7043C57.9193 23.7433 57.8175 23.9113 57.8564 24.0793C58.1201 25.1623 58.3179 26.2783 58.4527 27.3912ZM59.2857 30.7481C59.2827 30.5771 59.1449 30.4391 58.9741 30.4391H58.9711C58.8003 30.4421 58.6624 30.5801 58.6624 30.7511V30.9311C58.6624 31.9931 58.6055 33.0671 58.4916 34.117C58.4737 34.288 58.5965 34.441 58.7673 34.459C58.7793 34.462 58.7913 34.462 58.8033 34.462C58.9591 34.462 59.0939 34.342 59.1119 34.183C59.2258 33.1091 59.2857 32.0141 59.2857 30.9311V30.7481ZM53.865 14.8425C53.9249 14.9325 54.0238 14.9835 54.1227 14.9835C54.1826 14.9835 54.2396 14.9655 54.2935 14.9325C54.4373 14.8395 54.4763 14.6445 54.3804 14.5035C53.7541 13.5495 53.0619 12.6195 52.3308 11.7435C52.2229 11.6115 52.0251 11.5935 51.8933 11.7045C51.7614 11.8125 51.7435 12.0105 51.8543 12.1425C52.5735 12.9975 53.2507 13.9095 53.865 14.8425ZM56.1214 43.6448C55.9656 43.5699 55.7828 43.6329 55.7049 43.7858C55.2134 44.7908 54.6591 45.7778 54.0568 46.7228C53.9639 46.8668 54.0059 47.0588 54.1497 47.1517C54.2006 47.1847 54.2576 47.2027 54.3175 47.2027C54.4194 47.2027 54.5183 47.1517 54.5782 47.0587C55.1955 46.0958 55.7619 45.0848 56.2652 44.0589C56.3401 43.9059 56.2772 43.7198 56.1214 43.6448ZM57.284 21.0347C57.4458 20.9747 57.5267 20.7977 57.4668 20.6357C57.0743 19.5618 56.6158 18.4998 56.1004 17.4798C56.0225 17.3268 55.8367 17.2638 55.6839 17.3418C55.5311 17.4198 55.4682 17.6058 55.5461 17.7588C56.0495 18.7578 56.502 19.7987 56.8855 20.8487C56.9305 20.9747 57.0503 21.0527 57.1762 21.0527C57.2151 21.0557 57.2511 21.0467 57.284 21.0347ZM58.3118 37.2076C58.144 37.1686 57.9792 37.2736 57.9402 37.4416C57.6915 38.5336 57.3769 39.6225 57.0053 40.6785C56.9483 40.8405 57.0352 41.0175 57.194 41.0745C57.23 41.0865 57.263 41.0925 57.2989 41.0925C57.4278 41.0925 57.5476 41.0115 57.5926 40.8855C57.9731 39.8056 58.2938 38.6955 58.5455 37.5796C58.5844 37.4146 58.4796 37.2466 58.3118 37.2076ZM14.934 5.39016C14.985 5.39016 15.0389 5.37816 15.0868 5.35116C16.0637 4.80517 17.0826 4.30717 18.1103 3.87518C18.2691 3.80918 18.3411 3.62618 18.2781 3.46719C18.2122 3.31119 18.0294 3.23319 17.8706 3.29919C16.8188 3.74018 15.779 4.24719 14.7812 4.80513C14.6314 4.88913 14.5775 5.07812 14.6614 5.22811C14.7183 5.33311 14.8232 5.39016 14.934 5.39016ZM21.1968 2.77119C21.2268 2.77119 21.2537 2.76819 21.2837 2.75919C22.3564 2.4502 23.4591 2.2012 24.5648 2.01821C24.7326 1.98821 24.8495 1.82922 24.8195 1.66122C24.7896 1.49323 24.6308 1.37623 24.463 1.40623C23.3362 1.59223 22.2066 1.84722 21.1098 2.16221C20.945 2.21021 20.8492 2.38121 20.8971 2.54621C20.9361 2.6842 21.0619 2.77119 21.1968 2.77119ZM9.42932 9.37406C9.50423 9.37406 9.57914 9.34706 9.63908 9.29306C10.4661 8.53708 11.3441 7.82008 12.249 7.16614C12.3869 7.06714 12.4198 6.86915 12.3179 6.73115C12.2161 6.59315 12.0213 6.56015 11.8834 6.66215C10.9605 7.33113 10.0615 8.0631 9.2165 8.83408C9.09065 8.94808 9.08166 9.14607 9.19852 9.27507C9.26145 9.34107 9.34542 9.37406 9.42932 9.37406ZM27.909 1.65815C29.0237 1.60116 30.1624 1.61016 31.2741 1.68215H31.2921C31.4539 1.68215 31.5917 1.55616 31.6007 1.39116C31.6127 1.22016 31.4808 1.07317 31.31 1.06116C30.1713 0.989166 29.0117 0.980166 27.873 1.03717C27.7022 1.04617 27.5703 1.19016 27.5763 1.36416C27.5943 1.53515 27.7352 1.66716 27.909 1.65815ZM8.8118 36.0315V28.0099C8.8118 27.6469 9.00057 27.3259 9.31521 27.1489C9.63284 26.9719 10.0044 26.9809 10.3131 27.1729L16.7736 31.1839C17.0643 31.3639 17.2411 31.6758 17.2411 32.0208C17.2411 32.3658 17.0673 32.6778 16.7736 32.8577L10.3131 36.8687C10.1513 36.9677 9.97446 37.0187 9.79467 37.0187C9.63286 37.0187 9.46805 36.9767 9.31523 36.8927C8.9976 36.7157 8.8118 36.3945 8.8118 36.0315ZM9.42908 36.0315C9.42908 36.2235 9.56093 36.3165 9.61487 36.3495C9.6718 36.3795 9.81863 36.4425 9.98344 36.3405L16.444 32.3295C16.5518 32.2635 16.6178 32.1495 16.6178 32.0205C16.6178 31.8915 16.5548 31.7775 16.444 31.7115L9.98344 27.6976C9.91752 27.6556 9.85159 27.6406 9.79466 27.6406C9.71376 27.6406 9.64783 27.6706 9.61487 27.6886C9.55793 27.7186 9.42908 27.8146 9.42908 28.0066V36.0315ZM17.7476 47.7009H6.55855C5.97423 47.7009 5.4978 47.224 5.4978 46.639V40.7861H2.82488C1.82104 40.7861 1 39.9671 1 38.9592V25.0787C1 24.0737 1.81805 23.2547 2.82189 23.2517C2.726 23.1017 2.6391 22.9487 2.5522 22.7897C2.52823 22.7597 2.51025 22.7267 2.49826 22.6877C2.49826 22.6847 2.49826 22.6817 2.49527 22.6787C2.04879 21.7908 1.79408 20.7888 1.79408 19.7268C1.79408 16.0968 4.74569 13.1419 8.37144 13.1419C10.5619 13.1419 12.5036 14.2219 13.7022 15.8749C14.4873 16.9609 14.9518 18.2898 14.9518 19.7268C14.9518 20.7648 14.7091 21.7487 14.2806 22.6217C14.2776 22.6427 14.2746 22.6637 14.2686 22.6847C14.2506 22.7447 14.2176 22.7927 14.1727 22.8317C14.0948 22.9727 14.0139 23.1137 13.927 23.2517H21.4722C22.476 23.2517 23.2971 24.0706 23.2971 25.0786V38.9591C23.2971 39.9641 22.479 40.7861 21.4722 40.7861H18.8023V46.6389C18.8083 47.2239 18.3319 47.7009 17.7476 47.7009ZM6.55855 47.077H17.7507C17.9934 47.077 18.1912 46.879 18.1912 46.636L18.1882 39.2561C18.1882 39.0131 17.9904 38.8151 17.7477 38.8151H8.61141C8.52751 38.8151 8.4496 38.7821 8.39266 38.7251L6.11834 36.4512V46.6393C6.11834 46.8823 6.31284 47.077 6.55855 47.077ZM1.62328 38.9594C1.62328 39.6224 2.16266 40.1624 2.82488 40.1624H5.4948V35.6985C5.4948 35.5725 5.56972 35.4615 5.68658 35.4105C5.80344 35.3625 5.93529 35.3895 6.02519 35.4765L8.74007 38.1914H17.7475C18.3318 38.1914 18.8082 38.6684 18.8082 39.2534V40.1624L21.4752 40.1654C22.1374 40.1654 22.6768 39.6254 22.6768 38.9624V25.0819C22.6768 24.4189 22.1374 23.879 21.4752 23.879H13.4803C12.3896 25.2229 10.7835 26.1289 8.9646 26.2909C8.93164 26.3029 8.89868 26.3089 8.85972 26.3089C8.84474 26.3089 8.82976 26.3029 8.81478 26.2999C8.66794 26.3089 8.52112 26.3179 8.37129 26.3179C8.1915 26.3179 8.0177 26.3089 7.84091 26.2939C7.83791 26.2939 7.83192 26.2969 7.82892 26.2969C7.80495 26.2969 7.78397 26.2939 7.76 26.2879C5.95008 26.1199 4.35296 25.2139 3.2652 23.876H2.82171C2.15948 23.876 1.62011 24.4159 1.62011 25.0789V38.9594L1.62328 38.9594ZM5.79743 21.623C7.51744 21.38 9.21046 21.377 10.9305 21.617C11.2391 20.336 11.1882 19.145 10.9574 18.0951C10.0974 18.2121 9.24042 18.2751 8.38639 18.2751C7.53237 18.2751 6.67834 18.2151 5.81834 18.0951C5.57862 19.1541 5.51276 20.354 5.79743 21.623ZM5.96224 22.229C6.30984 23.3449 6.94506 24.5119 7.98487 25.6819C8.11672 25.6909 8.24857 25.6969 8.38041 25.6969C8.49727 25.6969 8.61114 25.6939 8.728 25.6849C9.75885 24.4969 10.4001 23.3299 10.7626 22.22C9.15344 22.007 7.56833 22.01 5.96224 22.229ZM5.35394 22.322C4.66474 22.439 3.97253 22.598 3.26832 22.7929C4.09235 24.1669 5.45282 25.1809 7.05892 25.5469C6.2019 24.4549 5.65963 23.3719 5.35394 22.322ZM13.4891 22.787C12.776 22.586 12.0688 22.43 11.3676 22.313C11.044 23.3599 10.4956 24.4519 9.62966 25.5619C11.2657 25.2079 12.6561 24.1819 13.4891 22.787ZM14.3342 19.733C14.3342 18.935 14.1754 18.1731 13.8907 17.4771C13.0997 17.702 12.3145 17.879 11.5384 18.008C11.7812 19.118 11.8381 20.372 11.5324 21.7129C12.2756 21.8389 13.0277 22.0129 13.7888 22.2289C14.1394 21.4669 14.3342 20.6209 14.3342 19.733ZM13.621 16.9041C12.803 15.3921 11.3557 14.2731 9.62966 13.9011C10.1451 14.5881 10.9331 15.8211 11.3857 17.402C12.1258 17.279 12.8689 17.1141 13.621 16.9041ZM8.37713 13.7662C8.24228 13.7662 8.10744 13.7722 7.97559 13.7812C7.7119 14.0902 6.57623 15.4912 5.97988 17.4861C7.59503 17.6991 9.18916 17.6991 10.8043 17.4831C10.205 15.4701 9.0184 14.0841 8.73672 13.7752C8.61686 13.7722 8.49699 13.7662 8.37713 13.7662ZM3.13623 16.9011C3.89735 17.1141 4.64951 17.2821 5.3956 17.4021C5.85107 15.8301 6.61216 14.5942 7.10365 13.9071C5.38962 14.2851 3.95129 15.3981 3.13623 16.9011ZM2.42007 19.733C2.42007 20.627 2.61784 21.4699 2.97143 22.2319C3.72356 22.0159 4.46369 21.8449 5.2008 21.7189C4.91614 20.387 4.99104 19.13 5.23976 18.0081C4.4547 17.8761 3.66657 17.6991 2.86647 17.4711C2.5788 18.1671 2.42007 18.932 2.42007 19.733ZM7.83778 44.3322C7.83778 45.2201 8.55995 45.9402 9.44396 45.9402H10.1541C11.0411 45.9402 11.7603 45.2172 11.7603 44.3322C11.7603 44.1612 11.6195 44.0202 11.4487 44.0202C11.2779 44.0202 11.137 44.1582 11.137 44.3322C11.137 44.8752 10.6965 45.3192 10.1511 45.3192H9.44096C8.89859 45.3192 8.45507 44.8752 8.45507 44.3322V41.8453C8.45507 41.3023 8.89556 40.8582 9.44096 40.8582H10.1511C10.6935 40.8582 11.137 41.3022 11.137 41.8453C11.137 42.0163 11.2779 42.1572 11.4487 42.1572C11.6195 42.1572 11.7603 42.0193 11.7603 41.8453C11.7603 40.9573 11.0381 40.2373 10.1541 40.2373H9.44396C8.55702 40.2373 7.83778 40.9602 7.83778 41.8453V44.3322ZM14.2893 40.2373C13.4024 40.2373 12.6832 40.9603 12.6832 41.8453V44.3323C12.6832 45.2202 13.4053 45.9403 14.2893 45.9403H14.9995C15.8864 45.9403 16.6057 45.2173 16.6057 44.3323C16.6057 44.1613 16.4648 44.0203 16.294 44.0203C16.1232 44.0203 15.9824 44.1583 15.9824 44.3323C15.9824 44.8753 15.5389 45.3193 14.9965 45.3193H14.2863C13.744 45.3193 13.3004 44.8753 13.3004 44.3323V41.8453C13.3004 41.3023 13.7409 40.8583 14.2863 40.8583H14.9965C15.5389 40.8583 15.9824 41.3023 15.9824 41.8453C15.9824 42.0163 16.1232 42.1573 16.294 42.1573C16.4648 42.1573 16.6057 42.0193 16.6057 41.8453C16.6057 40.9574 15.8835 40.2373 14.9995 40.2373H14.2893ZM46.1336 42.7723V45.3312C46.1336 45.5022 45.9928 45.6432 45.822 45.6432C45.6512 45.6432 45.5103 45.5052 45.5103 45.3312V42.9012L42.1781 39.5653V41.8392C42.1781 42.1812 42.4568 42.4602 42.7984 42.4602H43.2629C43.4337 42.4602 43.5745 42.5982 43.5745 42.7722C43.5745 42.9462 43.4337 43.0842 43.2629 43.0842H42.8014C42.1182 43.0842 41.5609 42.5262 41.5609 41.8422V39.1272H31.412C31.0704 39.1272 30.7917 39.4062 30.7917 39.7482V59.761C30.7917 60.103 31.0704 60.382 31.412 60.382L44.8932 60.379C45.2348 60.379 45.5135 60.1 45.5135 59.758V59.293C45.5135 59.122 45.6543 58.981 45.8251 58.981C45.9959 58.981 46.1367 59.119 46.1367 59.293V59.758C46.1367 60.442 45.5794 61 44.8962 61H31.415C30.7318 61 30.1744 60.442 30.1744 59.758L30.1714 58.2071H28.6222C27.939 58.2071 27.3817 57.6491 27.3817 56.9651V36.9523C27.3817 36.2683 27.939 35.7103 28.6222 35.7103H39.0802C39.1641 35.7103 39.2421 35.7433 39.299 35.8003L46.0382 42.5472C46.0682 42.5772 46.0891 42.6102 46.1041 42.6492C46.1041 42.6522 46.1041 42.6522 46.1071 42.6522C46.1251 42.6942 46.1336 42.7333 46.1336 42.7723ZM31.412 38.5064H41.1205L38.9511 36.3345H28.6189C28.2773 36.3345 27.9986 36.6134 27.9986 36.9554V56.9683C27.9986 57.3103 28.2773 57.5892 28.6189 57.5892H30.168V39.7513C30.171 39.0614 30.7288 38.5064 31.412 38.5064ZM41.2525 49.3871C41.1596 49.5311 41.2015 49.7231 41.3454 49.8161C41.3484 49.8191 41.3514 49.8191 41.3544 49.8221C41.4982 49.9061 41.681 49.8641 41.7739 49.7231C42.6639 48.3342 44.1771 47.5032 45.8221 47.5032C48.0875 47.5032 50.0652 49.1112 50.5237 51.3251C50.5237 51.3311 50.5267 51.3371 50.5267 51.3431C50.5926 51.6551 50.6256 51.9821 50.6256 52.3121C50.6256 52.3691 50.6196 52.4261 50.6166 52.4861L50.224 52.0931C50.1042 51.9731 49.9064 51.9731 49.7835 52.0931C49.6637 52.2131 49.6637 52.4111 49.7835 52.5341L50.7124 53.464C50.7364 53.488 50.7604 53.503 50.7903 53.518C50.8353 53.542 50.8832 53.554 50.9342 53.554C51.0181 53.554 51.096 53.521 51.1529 53.464L52.0818 52.5341C52.2017 52.4141 52.2017 52.2161 52.0818 52.0931C51.962 51.9731 51.7642 51.9731 51.6413 52.0931L51.2338 52.5011C51.2368 52.4381 51.2428 52.3751 51.2428 52.3121C51.2428 51.9461 51.2068 51.5801 51.1349 51.2322C51.1349 51.2262 51.1319 51.2202 51.1319 51.2172C50.6165 48.7092 48.3841 46.8853 45.8191 46.8853C43.9642 46.8823 42.2563 47.8182 41.2525 49.3871ZM49.8702 54.901C48.9802 56.29 47.467 57.1209 45.8219 57.1209C43.5506 57.1209 41.5728 55.507 41.1174 53.284C41.0515 52.972 41.0185 52.645 41.0185 52.3121C41.0185 52.2551 41.0245 52.1981 41.0275 52.1381L41.42 52.5311C41.48 52.5911 41.5609 52.6211 41.6388 52.6211C41.7167 52.6211 41.7976 52.5911 41.8575 52.5311C41.9774 52.4111 41.9774 52.2131 41.8575 52.0901L40.9286 51.1601C40.9047 51.1361 40.8777 51.1241 40.8507 51.1091C40.7339 51.0491 40.587 51.0611 40.4882 51.1601L39.5593 52.0901C39.4394 52.2101 39.4394 52.4081 39.5593 52.5311C39.6791 52.6511 39.8769 52.6511 39.9997 52.5311L40.4073 52.1231C40.4043 52.1861 40.3983 52.2491 40.3983 52.3121C40.3983 52.6871 40.4342 53.0561 40.5092 53.4101C41.0246 55.918 43.2569 57.7419 45.822 57.7419C47.6799 57.7419 49.3878 56.8059 50.3917 55.237C50.4846 55.093 50.4426 54.901 50.2988 54.808C50.2958 54.805 50.2928 54.805 50.2898 54.802C50.146 54.721 49.9601 54.763 49.8702 54.901ZM33.5031 44.2453H39.5471C39.7179 44.2453 39.8588 44.1073 39.8588 43.9333C39.8588 43.7593 39.7179 43.6213 39.5471 43.6213H33.5031C33.3323 43.6213 33.1915 43.7593 33.1915 43.9333C33.1945 44.1073 33.3323 44.2453 33.5031 44.2453ZM33.5031 47.5032H39.5471C39.7179 47.5032 39.8588 47.3652 39.8588 47.1912C39.8588 47.0172 39.7179 46.8792 39.5471 46.8792H33.5031C33.3323 46.8792 33.1915 47.0172 33.1915 47.1912C33.1945 47.3652 33.3323 47.5032 33.5031 47.5032ZM33.5031 50.7641H38.1507C38.3215 50.7641 38.4624 50.6261 38.4624 50.4521C38.4624 50.2781 38.3215 50.1401 38.1507 50.1401H33.5031C33.3323 50.1401 33.1915 50.2781 33.1915 50.4521C33.1945 50.6231 33.3323 50.7641 33.5031 50.7641ZM33.5031 53.3981C33.3323 53.3981 33.1915 53.5361 33.1915 53.7101C33.1915 53.8841 33.3323 54.0221 33.5031 54.0221H38.1507C38.3215 54.0221 38.4624 53.8841 38.4624 53.7101C38.4624 53.5361 38.3215 53.3981 38.1507 53.3981H33.5031ZM33.1945 56.965C33.1945 57.136 33.3353 57.277 33.5061 57.277H39.5501C39.7209 57.277 39.8618 57.139 39.8618 56.965C39.8618 56.791 39.7209 56.653 39.5501 56.653H33.5061C33.3323 56.656 33.1945 56.794 33.1945 56.965ZM30.5396 27.026V6.54545C30.5396 5.82547 31.1239 5.2405 31.8431 5.2405H33.7698V4.40954C33.7698 4.03455 34.0755 3.72856 34.45 3.72856H37.5844C37.6113 3.72856 37.6353 3.71056 37.6413 3.68956C37.8091 2.74156 38.6302 2.0546 39.5951 2.0546C40.5569 2.0546 41.378 2.74158 41.5458 3.68956C41.5488 3.71056 41.5758 3.72856 41.6028 3.72856H44.7371C45.1116 3.72856 45.4173 4.03455 45.4173 4.40954V5.2375H47.344C48.0632 5.2375 48.6475 5.82249 48.6475 6.54246V17.0991C48.6475 17.2701 48.5067 17.4111 48.3359 17.4111C48.1651 17.4111 48.0242 17.2731 48.0242 17.0991L48.0182 6.54553C48.0182 6.16753 47.7126 5.86155 47.335 5.86155H45.4083V7.01651C45.4083 7.3915 45.1026 7.6975 44.7281 7.6975H34.4503C34.0758 7.6975 33.7701 7.3915 33.7701 7.01651V5.86155H31.8434C31.4658 5.86155 31.1602 6.16754 31.1602 6.54553V27.0261C31.1602 27.2271 31.2471 27.419 31.4029 27.551C31.4119 27.554 31.4149 27.56 31.4209 27.566C31.5377 27.662 31.6846 27.713 31.8404 27.713H35.3044C35.4752 27.713 35.616 27.851 35.616 28.025C35.616 28.196 35.4752 28.337 35.3044 28.337H31.8404C31.5497 28.337 31.2741 28.244 31.0494 28.07C31.0404 28.064 31.0314 28.058 31.0254 28.052C30.7167 27.797 30.5396 27.4249 30.5396 27.026ZM37.5844 4.35286H34.4501C34.4171 4.35286 34.3932 4.37686 34.3932 4.40986V7.01677C34.3932 7.04977 34.4171 7.07677 34.4501 7.07677H44.7278C44.7608 7.07677 44.7878 7.04977 44.7878 7.01677V4.40986C44.7878 4.37986 44.7608 4.35286 44.7278 4.35286H41.5935C41.2669 4.35286 40.9852 4.12187 40.9283 3.80088C40.8144 3.14989 40.2481 2.67893 39.5888 2.67893C38.9266 2.67893 38.3632 3.14992 38.2494 3.80088C38.1894 4.12187 37.9111 4.35286 37.5844 4.35286ZM36.6255 13.1278C36.4457 13.0438 36.272 12.9268 36.0802 12.8008C35.6247 12.4978 35.1093 12.1528 34.501 12.3298C33.8657 12.5128 33.5631 13.1968 33.4013 13.5628C33.3324 13.7188 33.4043 13.9018 33.5601 13.9738C33.599 13.9918 33.644 14.0008 33.6859 14.0008C33.8058 14.0008 33.9167 13.9318 33.9706 13.8178C34.1384 13.4368 34.3452 13.0259 34.6748 12.9299C35.0074 12.8339 35.343 13.0619 35.7385 13.3229C35.9393 13.4549 36.1461 13.5929 36.3648 13.6949C37.1289 14.0489 38.1358 13.9379 39.0527 13.4039C39.5921 13.0859 40.0595 12.6719 40.509 12.2699C40.6888 12.1109 40.8686 11.9519 41.0483 11.7989C41.1053 11.7509 41.1412 11.7269 41.1592 11.7179C41.1832 11.7449 41.2191 11.7989 41.2521 11.8439C41.7016 12.5189 42.4627 12.9749 43.3437 13.0919C44.2247 13.2089 45.0787 12.9719 45.69 12.4379C45.8188 12.3239 45.8308 12.1289 45.72 11.9999C45.6061 11.8709 45.4113 11.8559 45.2825 11.9699C44.806 12.3869 44.1288 12.5699 43.4246 12.4769C42.7204 12.3839 42.1181 12.0269 41.7555 11.4869C41.6686 11.3549 41.5338 11.1569 41.2881 11.1029C40.9884 11.0369 40.7487 11.2379 40.6468 11.3219C40.458 11.4779 40.2752 11.6459 40.0895 11.8079C39.643 12.2069 39.2205 12.5848 38.735 12.8668C37.9979 13.2988 37.2099 13.3978 36.6255 13.1278ZM45.2885 16.6138C44.8121 17.0308 44.1349 17.2137 43.4307 17.1208C42.7265 17.0278 42.1242 16.6708 41.7616 16.1307C41.6747 15.9987 41.5398 15.8008 41.2941 15.7468C40.9945 15.6808 40.7547 15.8818 40.6529 15.9658C40.4641 16.1217 40.2783 16.2898 40.0955 16.4517C39.649 16.8507 39.2265 17.2287 38.7411 17.5107C37.998 17.9457 37.2069 18.0417 36.6256 17.7747C36.4458 17.6907 36.272 17.5737 36.0802 17.4477C35.6247 17.1447 35.1093 16.7997 34.501 16.9767C33.8658 17.1597 33.5631 17.8437 33.4013 18.2097C33.3324 18.3657 33.4043 18.5487 33.5601 18.6207C33.5991 18.6387 33.644 18.6477 33.686 18.6477C33.8058 18.6477 33.9167 18.5787 33.9706 18.4647C34.1384 18.0837 34.3452 17.6728 34.6748 17.5768C35.0074 17.4808 35.343 17.7088 35.7386 17.9698C35.9393 18.1018 36.1461 18.2398 36.3648 18.3418C37.1289 18.6958 38.1358 18.5848 39.0527 18.0508C39.5921 17.7328 40.0595 17.3188 40.509 16.9168C40.6888 16.7578 40.8686 16.5958 41.0484 16.4458C41.1053 16.3978 41.1412 16.3738 41.1592 16.3648C41.1832 16.3918 41.2192 16.4458 41.2521 16.4908C41.7016 17.1658 42.4627 17.6218 43.3437 17.7387C44.2247 17.8557 45.0787 17.6187 45.69 17.0848C45.8189 16.9708 45.8308 16.7758 45.72 16.6468C45.6121 16.5148 45.4174 16.4998 45.2885 16.6138ZM40.2933 20.9217L40.0985 21.0957C39.6521 21.4917 39.2326 21.8696 38.7441 22.1546C38.001 22.5896 37.2129 22.6886 36.6286 22.4186C36.4488 22.3346 36.275 22.2176 36.0832 22.0916C35.6278 21.7887 35.1124 21.4437 34.5041 21.6207C33.8688 21.8037 33.5661 22.4876 33.4043 22.8537C33.3354 23.0096 33.4073 23.1926 33.5631 23.2646C33.6021 23.2826 33.6471 23.2916 33.689 23.2916C33.8089 23.2916 33.9197 23.2226 33.9737 23.1086C34.1415 22.7277 34.3482 22.3167 34.6779 22.2207C35.0105 22.1247 35.3461 22.3527 35.7416 22.6137C35.9424 22.7457 36.1491 22.8837 36.3679 22.9857C37.132 23.3397 38.1388 23.2287 39.0558 22.6947C39.5951 22.3797 40.0596 21.9657 40.512 21.5637L40.7068 21.3897C40.8357 21.2757 40.8476 21.0807 40.7338 20.9517C40.6169 20.8197 40.4222 20.8077 40.2933 20.9217ZM55.2044 32.0751L53.4814 32.0931H53.4754C53.1997 32.0931 52.951 31.9851 52.7622 31.7931C52.7383 31.7691 52.7173 31.7361 52.6963 31.7091L52.076 31.6371C51.7404 31.7361 51.4078 31.8051 51.0842 31.8591C50.6167 31.9341 50.1613 31.9671 49.7298 31.9671C47.764 31.9671 46.2178 31.3071 45.6754 31.0431C45.5885 30.9981 45.4896 30.9771 45.3878 30.9711L41.3304 30.7971C41.3214 30.7971 41.3125 30.7941 41.3035 30.7941L41.2555 30.7881C41.2465 30.7851 41.2375 30.7851 41.2256 30.7851H41.2226C41.2196 30.7851 41.2166 30.7821 41.2136 30.7821C40.833 30.7311 40.5064 30.6291 40.2427 30.4821L37.6957 32.3631C37.6238 32.4201 37.5429 32.4501 37.459 32.4501C37.411 32.4501 37.3601 32.4381 37.3181 32.4171C37.1983 32.3601 37.1263 32.2371 37.1293 32.1021C37.1323 32.0541 37.1413 32.0031 37.1653 31.9491L38.4448 28.8351C38.4478 28.8261 38.4508 28.8201 38.4538 28.8141C38.4748 28.7721 38.4988 28.7301 38.5287 28.6881C38.5317 28.6851 38.5317 28.6851 38.5317 28.6821C38.3759 28.6431 38.2201 28.5771 38.0703 28.4782C37.8695 28.3462 37.7167 28.1932 37.6088 28.0222C37.5249 27.8902 37.468 27.7522 37.438 27.6022C37.3571 27.1912 37.486 26.7292 37.8186 26.2252C38.271 25.3972 41.3215 22.6073 42.3493 21.8003C43.1943 21.1373 44.1592 20.4593 44.9952 20.3663L46.7512 18.1074C47.1287 17.6214 47.791 17.4804 48.3214 17.7384C48.3993 17.7744 48.4712 17.8224 48.5401 17.8734C48.5731 17.8974 48.6061 17.9274 48.636 17.9544C48.8458 18.1554 48.9836 18.4194 49.0196 18.7134C49.0555 18.9804 49.0016 19.2444 48.8787 19.4754C48.8428 19.5384 48.8068 19.6014 48.7589 19.6584L48.3214 20.2223L47.815 20.8703L47.6801 21.0473C47.7251 21.0773 47.773 21.1073 47.815 21.1373C47.9948 21.2723 48.1596 21.4013 48.3214 21.5183C48.681 21.7883 49.0016 22.0193 49.2922 22.2203C50.5927 23.1203 51.288 23.4023 52.3607 23.7473C52.4835 23.7863 52.6514 23.8043 52.8251 23.8073C52.966 23.3753 53.3645 23.0543 53.826 23.0513C53.838 23.0513 53.853 23.0513 53.8649 23.0543L55.555 23.2613L55.516 23.5703L55.4771 23.8763L53.808 23.6723C53.5832 23.6813 53.3945 23.8763 53.3855 24.1133L53.0948 31.0521C53.0888 31.1661 53.1278 31.2711 53.2027 31.3491C53.2716 31.4211 53.3705 31.4631 53.4694 31.4601L55.1894 31.4421L55.1924 31.7541L55.2044 32.0751ZM51.9292 31.0311C51.9772 31.0101 52.0311 31.0011 52.0851 31.0071L52.4866 31.0551C52.4866 31.0491 52.4836 31.0431 52.4836 31.0371L52.7623 24.4372C52.5555 24.4282 52.3488 24.4012 52.1779 24.3472C50.7187 23.8762 49.8826 23.5012 47.4464 21.6353C47.4045 21.6023 47.3595 21.5723 47.3056 21.5423L43.9974 25.7962C45.2919 26.3392 45.6335 27.7192 45.6245 27.8722C45.6155 28.0372 45.4807 28.1692 45.3129 28.1692L41.6301 28.0402C41.5642 28.0372 41.4953 28.0432 41.4264 28.0432C41.3545 28.0462 41.2826 28.0492 41.2166 28.0492H41.1987C40.2278 28.0492 40.1019 28.8831 40.0929 29.2461C40.081 29.7231 40.5364 30.0651 41.3065 30.1701L41.5792 30.1881L45.4207 30.3501C45.6095 30.3591 45.7893 30.4041 45.9571 30.4851C46.6463 30.8211 49.1185 31.8621 51.9292 31.0311ZM39.0019 28.0822L44.3357 21.2273C43.8053 21.4853 43.23 21.9083 42.7416 22.2953C41.531 23.2463 38.6872 25.9252 38.3696 26.5342C38.3637 26.5432 38.3577 26.5552 38.3517 26.5642C38.106 26.9302 38.0071 27.2391 38.055 27.4851C38.091 27.6681 38.2108 27.8241 38.4236 27.9621C38.6124 28.0851 38.7981 28.1242 39.0019 28.0822ZM38.118 31.2801L39.7511 30.0712C39.5623 29.8342 39.4604 29.5462 39.4694 29.2252C39.4993 28.1272 40.1766 27.4222 41.1984 27.4222H41.2373C41.2913 27.4222 41.3422 27.4192 41.3961 27.4162C41.483 27.4132 41.5669 27.4072 41.6508 27.4102L41.9415 27.4192L43.233 25.7602L46.1276 22.0372L48.2761 19.2773C48.384 19.1393 48.432 18.9653 48.408 18.7913C48.387 18.6203 48.3001 18.4673 48.1653 18.3623C47.8806 18.1433 47.4701 18.1973 47.2454 18.4853L39.0772 28.9851C39.0682 28.9971 39.0592 29.0091 39.0502 29.0241C39.0382 29.0421 39.0292 29.0601 39.0202 29.0751L38.118 31.2801ZM44.8781 27.5272C44.7073 27.1402 44.3387 26.5643 43.6136 26.3213L42.7386 27.4523L44.8781 27.5272Z" fill="#0CB4C4"></path><path d="M12.0093 54.9122C11.9494 54.9962 11.8535 55.0382 11.7606 55.0382C11.6947 55.0382 11.6318 55.0202 11.5778 54.9782C10.6609 54.2972 9.7739 53.5532 8.9409 52.7733C8.81505 52.6563 8.80905 52.4583 8.92891 52.3323C9.04577 52.2063 9.24055 52.2003 9.3694 52.3203C10.1845 53.0853 11.0564 53.8142 11.9524 54.4832C12.0813 54.5792 12.1082 54.7712 12.0093 54.9122ZM24.1964 59.7841C23.0937 59.5861 21.994 59.3222 20.9242 59.0012C20.7624 58.9502 20.5856 59.0462 20.5377 59.2082C20.4867 59.3732 20.5826 59.5472 20.7444 59.5952C21.8382 59.9252 22.9618 60.1952 24.0886 60.3962C24.1066 60.3992 24.1245 60.4022 24.1455 60.4022C24.2923 60.4022 24.4242 60.2972 24.4512 60.1472C24.4781 59.9762 24.3672 59.8141 24.1964 59.7841ZM17.7629 57.8432C16.7381 57.3992 15.7253 56.8892 14.7544 56.3282C14.6075 56.2412 14.4158 56.2922 14.3319 56.4422C14.245 56.5892 14.2959 56.7812 14.4457 56.8652C15.4346 57.4382 16.4684 57.9572 17.5172 58.4131C17.5561 58.4311 17.6011 58.4371 17.64 58.4371C17.7599 58.4371 17.8737 58.3652 17.9247 58.2482C17.9906 58.0952 17.9217 57.9092 17.7629 57.8432ZM58.4527 27.3912C58.4707 27.5472 58.6055 27.6672 58.7584 27.6672C58.7703 27.6672 58.7823 27.6672 58.7973 27.6642C58.9681 27.6432 59.088 27.4902 59.067 27.3192C58.9321 26.1822 58.7254 25.0453 58.4617 23.9353C58.4227 23.7673 58.2519 23.6653 58.0871 23.7043C57.9193 23.7433 57.8175 23.9113 57.8564 24.0793C58.1201 25.1623 58.3179 26.2783 58.4527 27.3912ZM59.2857 30.7481C59.2827 30.5771 59.1449 30.4391 58.9741 30.4391H58.9711C58.8003 30.4421 58.6624 30.5801 58.6624 30.7511V30.9311C58.6624 31.9931 58.6055 33.0671 58.4916 34.117C58.4737 34.288 58.5965 34.441 58.7673 34.459C58.7793 34.462 58.7913 34.462 58.8033 34.462C58.9591 34.462 59.0939 34.342 59.1119 34.183C59.2258 33.1091 59.2857 32.0141 59.2857 30.9311V30.7481ZM53.865 14.8425C53.9249 14.9325 54.0238 14.9835 54.1227 14.9835C54.1826 14.9835 54.2396 14.9655 54.2935 14.9325C54.4373 14.8395 54.4763 14.6445 54.3804 14.5035C53.7541 13.5495 53.0619 12.6195 52.3308 11.7435C52.2229 11.6115 52.0251 11.5935 51.8933 11.7045C51.7614 11.8125 51.7435 12.0105 51.8543 12.1425C52.5735 12.9975 53.2507 13.9095 53.865 14.8425ZM56.1214 43.6448C55.9656 43.5699 55.7828 43.6329 55.7049 43.7858C55.2134 44.7908 54.6591 45.7778 54.0568 46.7228C53.9639 46.8668 54.0059 47.0588 54.1497 47.1517C54.2006 47.1847 54.2576 47.2027 54.3175 47.2027C54.4194 47.2027 54.5183 47.1517 54.5782 47.0587C55.1955 46.0958 55.7619 45.0848 56.2652 44.0589C56.3401 43.9059 56.2772 43.7198 56.1214 43.6448ZM57.284 21.0347C57.4458 20.9747 57.5267 20.7977 57.4668 20.6357C57.0743 19.5618 56.6158 18.4998 56.1004 17.4798C56.0225 17.3268 55.8367 17.2638 55.6839 17.3418C55.5311 17.4198 55.4682 17.6058 55.5461 17.7588C56.0495 18.7578 56.502 19.7987 56.8855 20.8487C56.9305 20.9747 57.0503 21.0527 57.1762 21.0527C57.2151 21.0557 57.2511 21.0467 57.284 21.0347ZM58.3118 37.2076C58.144 37.1686 57.9792 37.2736 57.9402 37.4416C57.6915 38.5336 57.3769 39.6225 57.0053 40.6785C56.9483 40.8405 57.0352 41.0175 57.194 41.0745C57.23 41.0865 57.263 41.0925 57.2989 41.0925C57.4278 41.0925 57.5476 41.0115 57.5926 40.8855C57.9731 39.8056 58.2938 38.6955 58.5455 37.5796C58.5844 37.4146 58.4796 37.2466 58.3118 37.2076ZM14.934 5.39016C14.985 5.39016 15.0389 5.37816 15.0868 5.35116C16.0637 4.80517 17.0826 4.30717 18.1103 3.87518C18.2691 3.80918 18.3411 3.62618 18.2781 3.46719C18.2122 3.31119 18.0294 3.23319 17.8706 3.29919C16.8188 3.74018 15.779 4.24719 14.7812 4.80513C14.6314 4.88913 14.5775 5.07812 14.6614 5.22811C14.7183 5.33311 14.8232 5.39016 14.934 5.39016ZM21.1968 2.77119C21.2268 2.77119 21.2537 2.76819 21.2837 2.75919C22.3564 2.4502 23.4591 2.2012 24.5648 2.01821C24.7326 1.98821 24.8495 1.82922 24.8195 1.66122C24.7896 1.49323 24.6308 1.37623 24.463 1.40623C23.3362 1.59223 22.2066 1.84722 21.1098 2.16221C20.945 2.21021 20.8492 2.38121 20.8971 2.54621C20.9361 2.6842 21.0619 2.77119 21.1968 2.77119ZM9.42932 9.37406C9.50423 9.37406 9.57914 9.34706 9.63908 9.29306C10.4661 8.53708 11.3441 7.82008 12.249 7.16614C12.3869 7.06714 12.4198 6.86915 12.3179 6.73115C12.2161 6.59315 12.0213 6.56015 11.8834 6.66215C10.9605 7.33113 10.0615 8.0631 9.2165 8.83408C9.09065 8.94808 9.08166 9.14607 9.19852 9.27507C9.26145 9.34107 9.34542 9.37406 9.42932 9.37406ZM27.909 1.65815C29.0237 1.60116 30.1624 1.61016 31.2741 1.68215H31.2921C31.4539 1.68215 31.5917 1.55616 31.6007 1.39116C31.6127 1.22016 31.4808 1.07317 31.31 1.06116C30.1713 0.989166 29.0117 0.980166 27.873 1.03717C27.7022 1.04617 27.5703 1.19016 27.5763 1.36416C27.5943 1.53515 27.7352 1.66716 27.909 1.65815ZM8.8118 36.0315V28.0099C8.8118 27.6469 9.00057 27.3259 9.31521 27.1489C9.63284 26.9719 10.0044 26.9809 10.3131 27.1729L16.7736 31.1839C17.0643 31.3639 17.2411 31.6758 17.2411 32.0208C17.2411 32.3658 17.0673 32.6778 16.7736 32.8577L10.3131 36.8687C10.1513 36.9677 9.97446 37.0187 9.79467 37.0187C9.63286 37.0187 9.46805 36.9767 9.31523 36.8927C8.9976 36.7157 8.8118 36.3945 8.8118 36.0315ZM9.42908 36.0315C9.42908 36.2235 9.56093 36.3165 9.61487 36.3495C9.6718 36.3795 9.81863 36.4425 9.98344 36.3405L16.444 32.3295C16.5518 32.2635 16.6178 32.1495 16.6178 32.0205C16.6178 31.8915 16.5548 31.7775 16.444 31.7115L9.98344 27.6976C9.91752 27.6556 9.85159 27.6406 9.79466 27.6406C9.71376 27.6406 9.64783 27.6706 9.61487 27.6886C9.55793 27.7186 9.42908 27.8146 9.42908 28.0066V36.0315ZM17.7476 47.7009H6.55855C5.97423 47.7009 5.4978 47.224 5.4978 46.639V40.7861H2.82488C1.82104 40.7861 1 39.9671 1 38.9592V25.0787C1 24.0737 1.81805 23.2547 2.82189 23.2517C2.726 23.1017 2.6391 22.9487 2.5522 22.7897C2.52823 22.7597 2.51025 22.7267 2.49826 22.6877C2.49826 22.6847 2.49826 22.6817 2.49527 22.6787C2.04879 21.7908 1.79408 20.7888 1.79408 19.7268C1.79408 16.0968 4.74569 13.1419 8.37144 13.1419C10.5619 13.1419 12.5036 14.2219 13.7022 15.8749C14.4873 16.9609 14.9518 18.2898 14.9518 19.7268C14.9518 20.7648 14.7091 21.7487 14.2806 22.6217C14.2776 22.6427 14.2746 22.6637 14.2686 22.6847C14.2506 22.7447 14.2176 22.7927 14.1727 22.8317C14.0948 22.9727 14.0139 23.1137 13.927 23.2517H21.4722C22.476 23.2517 23.2971 24.0706 23.2971 25.0786V38.9591C23.2971 39.9641 22.479 40.7861 21.4722 40.7861H18.8023V46.6389C18.8083 47.2239 18.3319 47.7009 17.7476 47.7009ZM6.55855 47.077H17.7507C17.9934 47.077 18.1912 46.879 18.1912 46.636L18.1882 39.2561C18.1882 39.0131 17.9904 38.8151 17.7477 38.8151H8.61141C8.52751 38.8151 8.4496 38.7821 8.39266 38.7251L6.11834 36.4512V46.6393C6.11834 46.8823 6.31284 47.077 6.55855 47.077ZM1.62328 38.9594C1.62328 39.6224 2.16266 40.1624 2.82488 40.1624H5.4948V35.6985C5.4948 35.5725 5.56972 35.4615 5.68658 35.4105C5.80344 35.3625 5.93529 35.3895 6.02519 35.4765L8.74007 38.1914H17.7475C18.3318 38.1914 18.8082 38.6684 18.8082 39.2534V40.1624L21.4752 40.1654C22.1374 40.1654 22.6768 39.6254 22.6768 38.9624V25.0819C22.6768 24.4189 22.1374 23.879 21.4752 23.879H13.4803C12.3896 25.2229 10.7835 26.1289 8.9646 26.2909C8.93164 26.3029 8.89868 26.3089 8.85972 26.3089C8.84474 26.3089 8.82976 26.3029 8.81478 26.2999C8.66794 26.3089 8.52112 26.3179 8.37129 26.3179C8.1915 26.3179 8.0177 26.3089 7.84091 26.2939C7.83791 26.2939 7.83192 26.2969 7.82892 26.2969C7.80495 26.2969 7.78397 26.2939 7.76 26.2879C5.95008 26.1199 4.35296 25.2139 3.2652 23.876H2.82171C2.15948 23.876 1.62011 24.4159 1.62011 25.0789V38.9594L1.62328 38.9594ZM5.79743 21.623C7.51744 21.38 9.21046 21.377 10.9305 21.617C11.2391 20.336 11.1882 19.145 10.9574 18.0951C10.0974 18.2121 9.24042 18.2751 8.38639 18.2751C7.53237 18.2751 6.67834 18.2151 5.81834 18.0951C5.57862 19.1541 5.51276 20.354 5.79743 21.623ZM5.96224 22.229C6.30984 23.3449 6.94506 24.5119 7.98487 25.6819C8.11672 25.6909 8.24857 25.6969 8.38041 25.6969C8.49727 25.6969 8.61114 25.6939 8.728 25.6849C9.75885 24.4969 10.4001 23.3299 10.7626 22.22C9.15344 22.007 7.56833 22.01 5.96224 22.229ZM5.35394 22.322C4.66474 22.439 3.97253 22.598 3.26832 22.7929C4.09235 24.1669 5.45282 25.1809 7.05892 25.5469C6.2019 24.4549 5.65963 23.3719 5.35394 22.322ZM13.4891 22.787C12.776 22.586 12.0688 22.43 11.3676 22.313C11.044 23.3599 10.4956 24.4519 9.62966 25.5619C11.2657 25.2079 12.6561 24.1819 13.4891 22.787ZM14.3342 19.733C14.3342 18.935 14.1754 18.1731 13.8907 17.4771C13.0997 17.702 12.3145 17.879 11.5384 18.008C11.7812 19.118 11.8381 20.372 11.5324 21.7129C12.2756 21.8389 13.0277 22.0129 13.7888 22.2289C14.1394 21.4669 14.3342 20.6209 14.3342 19.733ZM13.621 16.9041C12.803 15.3921 11.3557 14.2731 9.62966 13.9011C10.1451 14.5881 10.9331 15.8211 11.3857 17.402C12.1258 17.279 12.8689 17.1141 13.621 16.9041ZM8.37713 13.7662C8.24228 13.7662 8.10744 13.7722 7.97559 13.7812C7.7119 14.0902 6.57623 15.4912 5.97988 17.4861C7.59503 17.6991 9.18916 17.6991 10.8043 17.4831C10.205 15.4701 9.0184 14.0841 8.73672 13.7752C8.61686 13.7722 8.49699 13.7662 8.37713 13.7662ZM3.13623 16.9011C3.89735 17.1141 4.64951 17.2821 5.3956 17.4021C5.85107 15.8301 6.61216 14.5942 7.10365 13.9071C5.38962 14.2851 3.95129 15.3981 3.13623 16.9011ZM2.42007 19.733C2.42007 20.627 2.61784 21.4699 2.97143 22.2319C3.72356 22.0159 4.46369 21.8449 5.2008 21.7189C4.91614 20.387 4.99104 19.13 5.23976 18.0081C4.4547 17.8761 3.66657 17.6991 2.86647 17.4711C2.5788 18.1671 2.42007 18.932 2.42007 19.733ZM7.83778 44.3322C7.83778 45.2201 8.55995 45.9402 9.44396 45.9402H10.1541C11.0411 45.9402 11.7603 45.2172 11.7603 44.3322C11.7603 44.1612 11.6195 44.0202 11.4487 44.0202C11.2779 44.0202 11.137 44.1582 11.137 44.3322C11.137 44.8752 10.6965 45.3192 10.1511 45.3192H9.44096C8.89859 45.3192 8.45507 44.8752 8.45507 44.3322V41.8453C8.45507 41.3023 8.89556 40.8582 9.44096 40.8582H10.1511C10.6935 40.8582 11.137 41.3022 11.137 41.8453C11.137 42.0163 11.2779 42.1572 11.4487 42.1572C11.6195 42.1572 11.7603 42.0193 11.7603 41.8453C11.7603 40.9573 11.0381 40.2373 10.1541 40.2373H9.44396C8.55702 40.2373 7.83778 40.9602 7.83778 41.8453V44.3322ZM14.2893 40.2373C13.4024 40.2373 12.6832 40.9603 12.6832 41.8453V44.3323C12.6832 45.2202 13.4053 45.9403 14.2893 45.9403H14.9995C15.8864 45.9403 16.6057 45.2173 16.6057 44.3323C16.6057 44.1613 16.4648 44.0203 16.294 44.0203C16.1232 44.0203 15.9824 44.1583 15.9824 44.3323C15.9824 44.8753 15.5389 45.3193 14.9965 45.3193H14.2863C13.744 45.3193 13.3004 44.8753 13.3004 44.3323V41.8453C13.3004 41.3023 13.7409 40.8583 14.2863 40.8583H14.9965C15.5389 40.8583 15.9824 41.3023 15.9824 41.8453C15.9824 42.0163 16.1232 42.1573 16.294 42.1573C16.4648 42.1573 16.6057 42.0193 16.6057 41.8453C16.6057 40.9574 15.8835 40.2373 14.9995 40.2373H14.2893ZM46.1336 42.7723V45.3312C46.1336 45.5022 45.9928 45.6432 45.822 45.6432C45.6512 45.6432 45.5103 45.5052 45.5103 45.3312V42.9012L42.1781 39.5653V41.8392C42.1781 42.1812 42.4568 42.4602 42.7984 42.4602H43.2629C43.4337 42.4602 43.5745 42.5982 43.5745 42.7722C43.5745 42.9462 43.4337 43.0842 43.2629 43.0842H42.8014C42.1182 43.0842 41.5609 42.5262 41.5609 41.8422V39.1272H31.412C31.0704 39.1272 30.7917 39.4062 30.7917 39.7482V59.761C30.7917 60.103 31.0704 60.382 31.412 60.382L44.8932 60.379C45.2348 60.379 45.5135 60.1 45.5135 59.758V59.293C45.5135 59.122 45.6543 58.981 45.8251 58.981C45.9959 58.981 46.1367 59.119 46.1367 59.293V59.758C46.1367 60.442 45.5794 61 44.8962 61H31.415C30.7318 61 30.1744 60.442 30.1744 59.758L30.1714 58.2071H28.6222C27.939 58.2071 27.3817 57.6491 27.3817 56.9651V36.9523C27.3817 36.2683 27.939 35.7103 28.6222 35.7103H39.0802C39.1641 35.7103 39.2421 35.7433 39.299 35.8003L46.0382 42.5472C46.0682 42.5772 46.0891 42.6102 46.1041 42.6492C46.1041 42.6522 46.1041 42.6522 46.1071 42.6522C46.1251 42.6942 46.1336 42.7333 46.1336 42.7723ZM31.412 38.5064H41.1205L38.9511 36.3345H28.6189C28.2773 36.3345 27.9986 36.6134 27.9986 36.9554V56.9683C27.9986 57.3103 28.2773 57.5892 28.6189 57.5892H30.168V39.7513C30.171 39.0614 30.7288 38.5064 31.412 38.5064ZM41.2525 49.3871C41.1596 49.5311 41.2015 49.7231 41.3454 49.8161C41.3484 49.8191 41.3514 49.8191 41.3544 49.8221C41.4982 49.9061 41.681 49.8641 41.7739 49.7231C42.6639 48.3342 44.1771 47.5032 45.8221 47.5032C48.0875 47.5032 50.0652 49.1112 50.5237 51.3251C50.5237 51.3311 50.5267 51.3371 50.5267 51.3431C50.5926 51.6551 50.6256 51.9821 50.6256 52.3121C50.6256 52.3691 50.6196 52.4261 50.6166 52.4861L50.224 52.0931C50.1042 51.9731 49.9064 51.9731 49.7835 52.0931C49.6637 52.2131 49.6637 52.4111 49.7835 52.5341L50.7124 53.464C50.7364 53.488 50.7604 53.503 50.7903 53.518C50.8353 53.542 50.8832 53.554 50.9342 53.554C51.0181 53.554 51.096 53.521 51.1529 53.464L52.0818 52.5341C52.2017 52.4141 52.2017 52.2161 52.0818 52.0931C51.962 51.9731 51.7642 51.9731 51.6413 52.0931L51.2338 52.5011C51.2368 52.4381 51.2428 52.3751 51.2428 52.3121C51.2428 51.9461 51.2068 51.5801 51.1349 51.2322C51.1349 51.2262 51.1319 51.2202 51.1319 51.2172C50.6165 48.7092 48.3841 46.8853 45.8191 46.8853C43.9642 46.8823 42.2563 47.8182 41.2525 49.3871ZM49.8702 54.901C48.9802 56.29 47.467 57.1209 45.8219 57.1209C43.5506 57.1209 41.5728 55.507 41.1174 53.284C41.0515 52.972 41.0185 52.645 41.0185 52.3121C41.0185 52.2551 41.0245 52.1981 41.0275 52.1381L41.42 52.5311C41.48 52.5911 41.5609 52.6211 41.6388 52.6211C41.7167 52.6211 41.7976 52.5911 41.8575 52.5311C41.9774 52.4111 41.9774 52.2131 41.8575 52.0901L40.9286 51.1601C40.9047 51.1361 40.8777 51.1241 40.8507 51.1091C40.7339 51.0491 40.587 51.0611 40.4882 51.1601L39.5593 52.0901C39.4394 52.2101 39.4394 52.4081 39.5593 52.5311C39.6791 52.6511 39.8769 52.6511 39.9997 52.5311L40.4073 52.1231C40.4043 52.1861 40.3983 52.2491 40.3983 52.3121C40.3983 52.6871 40.4342 53.0561 40.5092 53.4101C41.0246 55.918 43.2569 57.7419 45.822 57.7419C47.6799 57.7419 49.3878 56.8059 50.3917 55.237C50.4846 55.093 50.4426 54.901 50.2988 54.808C50.2958 54.805 50.2928 54.805 50.2898 54.802C50.146 54.721 49.9601 54.763 49.8702 54.901ZM33.5031 44.2453H39.5471C39.7179 44.2453 39.8588 44.1073 39.8588 43.9333C39.8588 43.7593 39.7179 43.6213 39.5471 43.6213H33.5031C33.3323 43.6213 33.1915 43.7593 33.1915 43.9333C33.1945 44.1073 33.3323 44.2453 33.5031 44.2453ZM33.5031 47.5032H39.5471C39.7179 47.5032 39.8588 47.3652 39.8588 47.1912C39.8588 47.0172 39.7179 46.8792 39.5471 46.8792H33.5031C33.3323 46.8792 33.1915 47.0172 33.1915 47.1912C33.1945 47.3652 33.3323 47.5032 33.5031 47.5032ZM33.5031 50.7641H38.1507C38.3215 50.7641 38.4624 50.6261 38.4624 50.4521C38.4624 50.2781 38.3215 50.1401 38.1507 50.1401H33.5031C33.3323 50.1401 33.1915 50.2781 33.1915 50.4521C33.1945 50.6231 33.3323 50.7641 33.5031 50.7641ZM33.5031 53.3981C33.3323 53.3981 33.1915 53.5361 33.1915 53.7101C33.1915 53.8841 33.3323 54.0221 33.5031 54.0221H38.1507C38.3215 54.0221 38.4624 53.8841 38.4624 53.7101C38.4624 53.5361 38.3215 53.3981 38.1507 53.3981H33.5031ZM33.1945 56.965C33.1945 57.136 33.3353 57.277 33.5061 57.277H39.5501C39.7209 57.277 39.8618 57.139 39.8618 56.965C39.8618 56.791 39.7209 56.653 39.5501 56.653H33.5061C33.3323 56.656 33.1945 56.794 33.1945 56.965ZM30.5396 27.026V6.54545C30.5396 5.82547 31.1239 5.2405 31.8431 5.2405H33.7698V4.40954C33.7698 4.03455 34.0755 3.72856 34.45 3.72856H37.5844C37.6113 3.72856 37.6353 3.71056 37.6413 3.68956C37.8091 2.74156 38.6302 2.0546 39.5951 2.0546C40.5569 2.0546 41.378 2.74158 41.5458 3.68956C41.5488 3.71056 41.5758 3.72856 41.6028 3.72856H44.7371C45.1116 3.72856 45.4173 4.03455 45.4173 4.40954V5.2375H47.344C48.0632 5.2375 48.6475 5.82249 48.6475 6.54246V17.0991C48.6475 17.2701 48.5067 17.4111 48.3359 17.4111C48.1651 17.4111 48.0242 17.2731 48.0242 17.0991L48.0182 6.54553C48.0182 6.16753 47.7126 5.86155 47.335 5.86155H45.4083V7.01651C45.4083 7.3915 45.1026 7.6975 44.7281 7.6975H34.4503C34.0758 7.6975 33.7701 7.3915 33.7701 7.01651V5.86155H31.8434C31.4658 5.86155 31.1602 6.16754 31.1602 6.54553V27.0261C31.1602 27.2271 31.2471 27.419 31.4029 27.551C31.4119 27.554 31.4149 27.56 31.4209 27.566C31.5377 27.662 31.6846 27.713 31.8404 27.713H35.3044C35.4752 27.713 35.616 27.851 35.616 28.025C35.616 28.196 35.4752 28.337 35.3044 28.337H31.8404C31.5497 28.337 31.2741 28.244 31.0494 28.07C31.0404 28.064 31.0314 28.058 31.0254 28.052C30.7167 27.797 30.5396 27.4249 30.5396 27.026ZM37.5844 4.35286H34.4501C34.4171 4.35286 34.3932 4.37686 34.3932 4.40986V7.01677C34.3932 7.04977 34.4171 7.07677 34.4501 7.07677H44.7278C44.7608 7.07677 44.7878 7.04977 44.7878 7.01677V4.40986C44.7878 4.37986 44.7608 4.35286 44.7278 4.35286H41.5935C41.2669 4.35286 40.9852 4.12187 40.9283 3.80088C40.8144 3.14989 40.2481 2.67893 39.5888 2.67893C38.9266 2.67893 38.3632 3.14992 38.2494 3.80088C38.1894 4.12187 37.9111 4.35286 37.5844 4.35286ZM36.6255 13.1278C36.4457 13.0438 36.272 12.9268 36.0802 12.8008C35.6247 12.4978 35.1093 12.1528 34.501 12.3298C33.8657 12.5128 33.5631 13.1968 33.4013 13.5628C33.3324 13.7188 33.4043 13.9018 33.5601 13.9738C33.599 13.9918 33.644 14.0008 33.6859 14.0008C33.8058 14.0008 33.9167 13.9318 33.9706 13.8178C34.1384 13.4368 34.3452 13.0259 34.6748 12.9299C35.0074 12.8339 35.343 13.0619 35.7385 13.3229C35.9393 13.4549 36.1461 13.5929 36.3648 13.6949C37.1289 14.0489 38.1358 13.9379 39.0527 13.4039C39.5921 13.0859 40.0595 12.6719 40.509 12.2699C40.6888 12.1109 40.8686 11.9519 41.0483 11.7989C41.1053 11.7509 41.1412 11.7269 41.1592 11.7179C41.1832 11.7449 41.2191 11.7989 41.2521 11.8439C41.7016 12.5189 42.4627 12.9749 43.3437 13.0919C44.2247 13.2089 45.0787 12.9719 45.69 12.4379C45.8188 12.3239 45.8308 12.1289 45.72 11.9999C45.6061 11.8709 45.4113 11.8559 45.2825 11.9699C44.806 12.3869 44.1288 12.5699 43.4246 12.4769C42.7204 12.3839 42.1181 12.0269 41.7555 11.4869C41.6686 11.3549 41.5338 11.1569 41.2881 11.1029C40.9884 11.0369 40.7487 11.2379 40.6468 11.3219C40.458 11.4779 40.2752 11.6459 40.0895 11.8079C39.643 12.2069 39.2205 12.5848 38.735 12.8668C37.9979 13.2988 37.2099 13.3978 36.6255 13.1278ZM45.2885 16.6138C44.8121 17.0308 44.1349 17.2137 43.4307 17.1208C42.7265 17.0278 42.1242 16.6708 41.7616 16.1307C41.6747 15.9987 41.5398 15.8008 41.2941 15.7468C40.9945 15.6808 40.7547 15.8818 40.6529 15.9658C40.4641 16.1217 40.2783 16.2898 40.0955 16.4517C39.649 16.8507 39.2265 17.2287 38.7411 17.5107C37.998 17.9457 37.2069 18.0417 36.6256 17.7747C36.4458 17.6907 36.272 17.5737 36.0802 17.4477C35.6247 17.1447 35.1093 16.7997 34.501 16.9767C33.8658 17.1597 33.5631 17.8437 33.4013 18.2097C33.3324 18.3657 33.4043 18.5487 33.5601 18.6207C33.5991 18.6387 33.644 18.6477 33.686 18.6477C33.8058 18.6477 33.9167 18.5787 33.9706 18.4647C34.1384 18.0837 34.3452 17.6728 34.6748 17.5768C35.0074 17.4808 35.343 17.7088 35.7386 17.9698C35.9393 18.1018 36.1461 18.2398 36.3648 18.3418C37.1289 18.6958 38.1358 18.5848 39.0527 18.0508C39.5921 17.7328 40.0595 17.3188 40.509 16.9168C40.6888 16.7578 40.8686 16.5958 41.0484 16.4458C41.1053 16.3978 41.1412 16.3738 41.1592 16.3648C41.1832 16.3918 41.2192 16.4458 41.2521 16.4908C41.7016 17.1658 42.4627 17.6218 43.3437 17.7387C44.2247 17.8557 45.0787 17.6187 45.69 17.0848C45.8189 16.9708 45.8308 16.7758 45.72 16.6468C45.6121 16.5148 45.4174 16.4998 45.2885 16.6138ZM40.2933 20.9217L40.0985 21.0957C39.6521 21.4917 39.2326 21.8696 38.7441 22.1546C38.001 22.5896 37.2129 22.6886 36.6286 22.4186C36.4488 22.3346 36.275 22.2176 36.0832 22.0916C35.6278 21.7887 35.1124 21.4437 34.5041 21.6207C33.8688 21.8037 33.5661 22.4876 33.4043 22.8537C33.3354 23.0096 33.4073 23.1926 33.5631 23.2646C33.6021 23.2826 33.6471 23.2916 33.689 23.2916C33.8089 23.2916 33.9197 23.2226 33.9737 23.1086C34.1415 22.7277 34.3482 22.3167 34.6779 22.2207C35.0105 22.1247 35.3461 22.3527 35.7416 22.6137C35.9424 22.7457 36.1491 22.8837 36.3679 22.9857C37.132 23.3397 38.1388 23.2287 39.0558 22.6947C39.5951 22.3797 40.0596 21.9657 40.512 21.5637L40.7068 21.3897C40.8357 21.2757 40.8476 21.0807 40.7338 20.9517C40.6169 20.8197 40.4222 20.8077 40.2933 20.9217ZM55.2044 32.0751L53.4814 32.0931H53.4754C53.1997 32.0931 52.951 31.9851 52.7622 31.7931C52.7383 31.7691 52.7173 31.7361 52.6963 31.7091L52.076 31.6371C51.7404 31.7361 51.4078 31.8051 51.0842 31.8591C50.6167 31.9341 50.1613 31.9671 49.7298 31.9671C47.764 31.9671 46.2178 31.3071 45.6754 31.0431C45.5885 30.9981 45.4896 30.9771 45.3878 30.9711L41.3304 30.7971C41.3214 30.7971 41.3125 30.7941 41.3035 30.7941L41.2555 30.7881C41.2465 30.7851 41.2375 30.7851 41.2256 30.7851H41.2226C41.2196 30.7851 41.2166 30.7821 41.2136 30.7821C40.833 30.7311 40.5064 30.6291 40.2427 30.4821L37.6957 32.3631C37.6238 32.4201 37.5429 32.4501 37.459 32.4501C37.411 32.4501 37.3601 32.4381 37.3181 32.4171C37.1983 32.3601 37.1263 32.2371 37.1293 32.1021C37.1323 32.0541 37.1413 32.0031 37.1653 31.9491L38.4448 28.8351C38.4478 28.8261 38.4508 28.8201 38.4538 28.8141C38.4748 28.7721 38.4988 28.7301 38.5287 28.6881C38.5317 28.6851 38.5317 28.6851 38.5317 28.6821C38.3759 28.6431 38.2201 28.5771 38.0703 28.4782C37.8695 28.3462 37.7167 28.1932 37.6088 28.0222C37.5249 27.8902 37.468 27.7522 37.438 27.6022C37.3571 27.1912 37.486 26.7292 37.8186 26.2252C38.271 25.3972 41.3215 22.6073 42.3493 21.8003C43.1943 21.1373 44.1592 20.4593 44.9952 20.3663L46.7512 18.1074C47.1287 17.6214 47.791 17.4804 48.3214 17.7384C48.3993 17.7744 48.4712 17.8224 48.5401 17.8734C48.5731 17.8974 48.6061 17.9274 48.636 17.9544C48.8458 18.1554 48.9836 18.4194 49.0196 18.7134C49.0555 18.9804 49.0016 19.2444 48.8787 19.4754C48.8428 19.5384 48.8068 19.6014 48.7589 19.6584L48.3214 20.2223L47.815 20.8703L47.6801 21.0473C47.7251 21.0773 47.773 21.1073 47.815 21.1373C47.9948 21.2723 48.1596 21.4013 48.3214 21.5183C48.681 21.7883 49.0016 22.0193 49.2922 22.2203C50.5927 23.1203 51.288 23.4023 52.3607 23.7473C52.4835 23.7863 52.6514 23.8043 52.8251 23.8073C52.966 23.3753 53.3645 23.0543 53.826 23.0513C53.838 23.0513 53.853 23.0513 53.8649 23.0543L55.555 23.2613L55.516 23.5703L55.4771 23.8763L53.808 23.6723C53.5832 23.6813 53.3945 23.8763 53.3855 24.1133L53.0948 31.0521C53.0888 31.1661 53.1278 31.2711 53.2027 31.3491C53.2716 31.4211 53.3705 31.4631 53.4694 31.4601L55.1894 31.4421L55.1924 31.7541L55.2044 32.0751ZM51.9292 31.0311C51.9772 31.0101 52.0311 31.0011 52.0851 31.0071L52.4866 31.0551C52.4866 31.0491 52.4836 31.0431 52.4836 31.0371L52.7623 24.4372C52.5555 24.4282 52.3488 24.4012 52.1779 24.3472C50.7187 23.8762 49.8826 23.5012 47.4464 21.6353C47.4045 21.6023 47.3595 21.5723 47.3056 21.5423L43.9974 25.7962C45.2919 26.3392 45.6335 27.7192 45.6245 27.8722C45.6155 28.0372 45.4807 28.1692 45.3129 28.1692L41.6301 28.0402C41.5642 28.0372 41.4953 28.0432 41.4264 28.0432C41.3545 28.0462 41.2826 28.0492 41.2166 28.0492H41.1987C40.2278 28.0492 40.1019 28.8831 40.0929 29.2461C40.081 29.7231 40.5364 30.0651 41.3065 30.1701L41.5792 30.1881L45.4207 30.3501C45.6095 30.3591 45.7893 30.4041 45.9571 30.4851C46.6463 30.8211 49.1185 31.8621 51.9292 31.0311ZM39.0019 28.0822L44.3357 21.2273C43.8053 21.4853 43.23 21.9083 42.7416 22.2953C41.531 23.2463 38.6872 25.9252 38.3696 26.5342C38.3637 26.5432 38.3577 26.5552 38.3517 26.5642C38.106 26.9302 38.0071 27.2391 38.055 27.4851C38.091 27.6681 38.2108 27.8241 38.4236 27.9621C38.6124 28.0851 38.7981 28.1242 39.0019 28.0822ZM38.118 31.2801L39.7511 30.0712C39.5623 29.8342 39.4604 29.5462 39.4694 29.2252C39.4993 28.1272 40.1766 27.4222 41.1984 27.4222H41.2373C41.2913 27.4222 41.3422 27.4192 41.3961 27.4162C41.483 27.4132 41.5669 27.4072 41.6508 27.4102L41.9415 27.4192L43.233 25.7602L46.1276 22.0372L48.2761 19.2773C48.384 19.1393 48.432 18.9653 48.408 18.7913C48.387 18.6203 48.3001 18.4673 48.1653 18.3623C47.8806 18.1433 47.4701 18.1973 47.2454 18.4853L39.0772 28.9851C39.0682 28.9971 39.0592 29.0091 39.0502 29.0241C39.0382 29.0421 39.0292 29.0601 39.0202 29.0751L38.118 31.2801ZM44.8781 27.5272C44.7073 27.1402 44.3387 26.5643 43.6136 26.3213L42.7386 27.4523L44.8781 27.5272Z" stroke="#0CB4C4" stroke-width="0.6" mask="url(#path-1-outside-1_427_26)"></path></svg>