<svg version="1.1" id="Layer_1" xmlns="http://www.w3.org/2000/svg" xmlns:xlink="http://www.w3.org/1999/xlink" x="0px" y="0px" width="60px" height="60px" viewBox="0 0 60 60" enable-background="new 0 0 60 60" xml:space="preserve"><path fill="#0CB4C4" d="M56.599,26.061L42.966,3.664C42.792,1.618,41.091,0,39,0c-2.206,0-4,1.794-4,4 c0,0.82,0.25,1.583,0.675,2.219L30,15.137l-5.675-8.918C24.75,5.583,25,4.82,25,4c0-2.206-1.794-4-4-4s-4,1.794-4,4 c0,0.832,0.257,1.605,0.693,2.246L5.767,26.43C5.231,26.163,4.637,26,4,26c-2.206,0-4,1.794-4,4c0,2.001,1.481,3.648,3.401,3.939 l13.633,22.397C17.208,58.382,18.909,60,21,60c2.206,0,4-1.794,4-4c0-0.82-0.25-1.583-0.675-2.219L30,44.863l5.675,8.918 C35.25,54.417,35,55.18,35,56c0,2.206,1.794,4,4,4c2.091,0,3.792-1.618,3.966-3.664l13.633-22.397C58.519,33.648,60,32.001,60,30 S58.519,26.352,56.599,26.061z M40,52.142V33.858c1.399-0.364,2.494-1.459,2.858-2.858h9.284c0.312,1.201,1.157,2.188,2.278,2.672 L42.243,53.677C41.705,52.928,40.917,52.38,40,52.142z M17.757,53.677L5.58,33.672C6.701,33.188,7.546,32.201,7.858,31h9.284 c0.364,1.399,1.459,2.494,2.858,2.858v18.284C19.083,52.38,18.295,52.928,17.757,53.677z M20,7.858v18.284 c-1.399,0.364-2.494,1.459-2.858,2.858H7.858c-0.117-0.449-0.297-0.872-0.551-1.246L19.233,7.57C19.477,7.692,19.732,7.788,20,7.858 z M21,32c-1.103,0-2-0.897-2-2s0.897-2,2-2s2,0.897,2,2S22.103,32,21,32z M35.142,29H24.858c-0.114-0.438-0.288-0.852-0.533-1.219 L30,18.863l5.675,8.918C35.43,28.148,35.256,28.562,35.142,29z M24.858,31h10.284c0.114,0.438,0.288,0.852,0.533,1.219L30,41.137 l-5.675-8.918C24.57,31.852,24.744,31.438,24.858,31z M37,30c0-1.103,0.897-2,2-2s2,0.897,2,2s-0.897,2-2,2S37,31.103,37,30z M52.142,29h-9.284c-0.364-1.399-1.459-2.494-2.858-2.858V7.858c0.917-0.238,1.705-0.786,2.243-1.535L54.42,26.328 C53.299,26.812,52.454,27.799,52.142,29z M39,2c1.103,0,2,0.897,2,2s-0.897,2-2,2s-2-0.897-2-2S37.897,2,39,2z M37.198,7.551 C37.452,7.68,37.718,7.784,38,7.858v18.284c-0.281,0.073-0.548,0.177-0.802,0.307L31.186,17L37.198,7.551z M22.802,26.449 c-0.254-0.129-0.52-0.233-0.802-0.307V7.858c0.281-0.073,0.548-0.177,0.802-0.307L28.814,17L22.802,26.449z M21,2 c1.103,0,2,0.897,2,2s-0.897,2-2,2s-2-0.897-2-2S19.897,2,21,2z M2,30c0-1.103,0.897-2,2-2s2,0.897,2,2s-0.897,2-2,2S2,31.103,2,30z M21,58c-1.103,0-2-0.897-2-2s0.897-2,2-2s2,0.897,2,2S22.103,58,21,58z M22.802,52.449c-0.254-0.129-0.52-0.233-0.802-0.307V33.858 c0.281-0.073,0.548-0.177,0.802-0.307L28.814,43L22.802,52.449z M37.198,33.551c0.254,0.129,0.52,0.233,0.802,0.307v18.284 c-0.281,0.073-0.548,0.177-0.802,0.307L31.186,43L37.198,33.551z M39,58c-1.103,0-2-0.897-2-2s0.897-2,2-2s2,0.897,2,2 S40.103,58,39,58z M56,32c-1.103,0-2-0.897-2-2s0.897-2,2-2s2,0.897,2,2S57.103,32,56,32z"></path><path fill="#0CB4C4" d="M4,8c2.206,0,4-1.794,4-4S6.206,0,4,0S0,1.794,0,4S1.794,8,4,8z M4,2c1.103,0,2,0.897,2,2S5.103,6,4,6 S2,5.103,2,4S2.897,2,4,2z"></path><path fill="#0CB4C4" d="M56,0c-2.206,0-4,1.794-4,4s1.794,4,4,4s4-1.794,4-4S58.206,0,56,0z M56,6c-1.103,0-2-0.897-2-2s0.897-2,2-2 s2,0.897,2,2S57.103,6,56,6z"></path><path fill="#0CB4C4" d="M4,52c-2.206,0-4,1.794-4,4s1.794,4,4,4s4-1.794,4-4S6.206,52,4,52z M4,58c-1.103,0-2-0.897-2-2s0.897-2,2-2 s2,0.897,2,2S5.103,58,4,58z"></path><path fill="#0CB4C4" d="M56,52c-2.206,0-4,1.794-4,4s1.794,4,4,4s4-1.794,4-4S58.206,52,56,52z M56,58c-1.103,0-2-0.897-2-2 s0.897-2,2-2s2,0.897,2,2S57.103,58,56,58z"></path></svg>