<svg version="1.1" id="Layer_1" xmlns="http://www.w3.org/2000/svg" xmlns:xlink="http://www.w3.org/1999/xlink" x="0px" y="0px" width="60px" height="60px" viewBox="0 0 60 60" enable-background="new 0 0 60 60" xml:space="preserve"><g><g><path fill="#0CB4C4" d="M52.5,0h-45C3.366,0,0,3.363,0,7.5v45C0,56.637,3.366,60,7.5,60h45c4.134,0,7.5-3.363,7.5-7.5v-45 C60,3.363,56.634,0,52.5,0z M7.5,3h45C54.981,3,57,5.019,57,7.5V18H3V7.5C3,5.019,5.019,3,7.5,3z M52.5,57h-45 C5.019,57,3,54.981,3,52.5V21h54v31.5C57,54.981,54.981,57,52.5,57z"></path><path fill="#0CB4C4" d="M37.5,12h3c0.828,0,1.5-0.672,1.5-1.5S41.328,9,40.5,9h-3C36.672,9,36,9.672,36,10.5S36.672,12,37.5,12z"></path><path fill="#0CB4C4" d="M46.5,12h3c0.828,0,1.5-0.672,1.5-1.5S50.328,9,49.5,9h-3C45.672,9,45,9.672,45,10.5S45.672,12,46.5,12z"></path><path fill="#0CB4C4" d="M20.562,30.438c-0.585-0.585-1.536-0.585-2.121,0l-6,6c-0.585,0.585-0.585,1.536,0,2.121l6,6 C18.732,44.853,19.116,45,19.5,45s0.768-0.147,1.062-0.438c0.585-0.585,0.585-1.536,0-2.121L15.621,37.5l4.938-4.938 C21.147,31.974,21.147,31.026,20.562,30.438z"></path><path fill="#0CB4C4" d="M41.562,30.438c-0.585-0.585-1.536-0.585-2.121,0s-0.585,1.536,0,2.121l4.938,4.941l-4.938,4.938 c-0.585,0.585-0.585,1.536,0,2.121C39.732,44.853,40.116,45,40.5,45c0.384,0,0.768-0.147,1.062-0.438l6-6 c0.585-0.585,0.585-1.536,0-2.121L41.562,30.438z"></path><path fill="#0CB4C4" d="M33.474,27.075c-0.792-0.267-1.635,0.168-1.896,0.948l-6,18c-0.261,0.786,0.162,1.635,0.948,1.899 c0.159,0.054,0.318,0.075,0.474,0.075c0.627,0,1.212-0.399,1.422-1.026l6-18C34.686,28.188,34.26,27.339,33.474,27.075z"></path></g></g></svg>