<svg width="71" height="60" viewBox="0 0 71 60" fill="none" xmlns="http://www.w3.org/2000/svg"><path d="M64.5138 29.9127C64.493 29.8869 64.471 29.8622 64.4469 29.8391C60.3146 25.3467 54.3674 22.0317 49.2111 20.2022C49.0146 20.1319 48.7983 20.1435 48.6095 20.2329C48.4212 20.323 48.2763 20.4838 48.2066 20.6803C48.0611 21.0904 48.2752 21.5399 48.6847 21.6854C50.1481 22.2069 51.5808 22.8096 52.9768 23.4914L50.4962 26.8327C50.3941 26.9688 50.3392 27.1346 50.3392 27.3048V31.4843C49.5449 31.7368 48.9202 32.3549 48.6595 33.1464C48.3988 33.9374 48.5333 34.8063 49.0218 35.481C49.5104 36.1561 50.2926 36.5563 51.1259 36.5563C51.9592 36.5563 52.7419 36.1561 53.23 35.481C53.7185 34.8063 53.853 33.9374 53.5923 33.1464C53.3315 32.3549 52.7068 31.7368 51.9131 31.4843V27.56L54.3976 24.2153C57.1762 25.6733 59.7502 27.4924 62.0513 29.6261H59.0608C58.7111 29.6261 58.4037 29.8567 58.3055 30.192L56.2053 37.3732H48.5363C48.2509 36.5904 47.6075 35.9921 46.8062 35.7643C46.0047 35.537 45.1429 35.7078 44.4886 36.2237C43.8343 36.7397 43.4676 37.5379 43.5022 38.3705C43.5368 39.2027 43.9682 39.9679 44.6632 40.428C45.3576 40.888 46.2309 40.9868 47.0109 40.6937C47.7904 40.4 48.3821 39.7506 48.6017 38.9469H56.7939C57.1436 38.9469 57.4509 38.7164 57.5492 38.381L59.6505 31.1999L63.5803 31.2004C65.6772 33.4405 67.128 36.2077 67.7779 39.2066C67.7834 39.2357 67.7867 39.2631 67.7922 39.2922H63.6319C63.3794 38.4985 62.7608 37.8737 61.9698 37.6131C61.1782 37.3523 60.3099 37.4868 59.6347 37.9753C58.96 38.4633 58.5599 39.2461 58.5599 40.0794C58.5599 40.9127 58.9601 41.6955 59.6347 42.1835C60.3099 42.6721 61.1782 42.8066 61.9698 42.5458C62.7608 42.2851 63.3794 41.6604 63.6319 40.8667H68.059C68.8292 46.0178 68.4383 50.0678 67.531 52.9507L64.5641 48.7597C64.4169 48.5511 64.1776 48.4276 63.9224 48.4276H52.7774C52.5249 47.6333 51.9068 47.0086 51.1153 46.7479C50.3243 46.4871 49.4558 46.6216 48.7808 47.1102C48.1056 47.5987 47.706 48.381 47.706 49.2143C47.706 50.0476 48.1056 50.8303 48.7808 51.3184C49.4559 51.8069 50.3243 51.9414 51.1153 51.6806C51.9069 51.4199 52.5249 50.7952 52.7774 50.0015H63.5144L66.8508 54.7163C66.534 55.4112 66.1317 56.0644 65.653 56.6606C64.89 57.7145 63.6889 58.3644 62.389 58.427H41.4564C40.9316 58.427 40.409 58.3551 39.904 58.2129L41.9108 54.6174H52.79C53.0722 55.4013 53.7133 56.0024 54.5137 56.2329C55.3146 56.464 56.177 56.2966 56.8335 55.7833C57.4895 55.2701 57.8594 54.473 57.8287 53.6403C57.7974 52.8081 57.3687 52.0407 56.6754 51.5785C55.9827 51.1158 55.1098 51.0131 54.3293 51.3035C53.5482 51.5939 52.9537 52.2411 52.7309 53.0437H41.4488C41.1634 53.0437 40.9004 53.1985 40.7615 53.4477L38.4561 57.5788C36.9647 56.6621 35.9871 55.1009 35.8141 53.3593C35.8283 53.1617 35.8377 52.9596 35.8377 52.7554V49.8308C35.8377 49.8177 35.8305 49.8067 35.83 49.793V49.1935H41.3868C41.6387 49.9873 42.2574 50.612 43.0484 50.8727C43.8399 51.1334 44.7082 50.9989 45.3835 50.5104C46.0586 50.0218 46.4583 49.2396 46.4583 48.4063C46.4583 47.573 46.0586 46.7903 45.3835 46.3022C44.7083 45.8137 43.8399 45.6792 43.0484 45.9399C42.2573 46.2007 41.6387 46.8253 41.3868 47.6191H35.83V42.3208H41.7902L46.5598 45.2664C46.6838 45.3438 46.8271 45.3844 46.9731 45.3844H51.9947C52.2472 46.1781 52.8653 46.8029 53.6563 47.0635C54.4478 47.3248 55.3161 47.1898 55.9914 46.7013C56.666 46.2133 57.0662 45.4305 57.0662 44.5972C57.0662 43.7639 56.666 42.9817 55.9914 42.4931C55.3162 42.0045 54.4478 41.87 53.6563 42.1308C52.8652 42.3915 52.2466 43.0162 51.9941 43.8105H47.1938L42.4263 40.8655C42.3017 40.7887 42.159 40.7475 42.013 40.7475H35.8276V35.076H38.4389C38.6914 35.8703 39.3089 36.4951 40.1004 36.7557C40.892 37.0165 41.7603 36.8814 42.435 36.3934C43.1102 35.9049 43.5103 35.1221 43.5103 34.2893C43.5103 33.4561 43.1102 32.6733 42.435 32.1847C41.7603 31.6967 40.892 31.5617 40.1004 31.8224C39.3089 32.0832 38.6908 32.7078 38.4383 33.5021H35.8299V31.7242C35.8299 31.5156 35.747 31.3158 35.5993 31.1681C35.4517 31.0205 35.2513 30.9376 35.0427 30.9376C34.76 30.9409 34.5015 31.0973 34.367 31.346H25.9827C25.2971 31.3454 24.64 31.0726 24.1553 30.5879C23.6706 30.1032 23.3978 29.4461 23.3967 28.7611C23.3967 28.3263 23.0448 27.9739 22.6101 27.9739C22.1753 27.9739 21.8229 28.3263 21.8229 28.7611C21.8245 29.8633 22.2631 30.9211 23.0426 31.7006C23.8226 32.4801 24.8798 32.9187 25.9827 32.9198H34.2561V35.2088H23.1601C22.7253 35.2088 22.3729 35.5612 22.3729 35.9959C22.3729 36.4307 22.7253 36.7831 23.1601 36.7831H34.2561V44.1014H29.7325C28.8114 44.1025 27.9276 44.4692 27.2761 45.1207C26.6251 45.7723 26.2584 46.6561 26.2578 47.5771C26.2562 48.6272 25.4053 49.478 24.3558 49.4791H21.1528C20.7181 49.4791 20.3657 49.8315 20.3657 50.2663C20.3657 50.7011 20.7181 51.0535 21.1528 51.0535H24.3558C25.2769 51.0518 26.1607 50.6851 26.8122 50.0336C27.4638 49.382 27.8299 48.4987 27.8316 47.5772C27.8321 46.5276 28.6829 45.6769 29.7324 45.6752H34.2557V48.1667C34.1914 48.3198 34.192 48.4928 34.2562 48.6459V49.5972C34.2282 49.6729 34.2123 49.7525 34.209 49.8332V50.9986L30.5367 50.9992C30.1025 50.9992 29.75 51.351 29.75 51.7858C29.75 52.2205 30.1024 52.5729 30.5367 52.5729H34.2117V52.753C34.21 52.95 34.2194 53.1466 34.2408 53.3425C34.0854 54.8828 33.3037 56.2919 32.0785 57.2389V57.0182C32.0774 56.1778 31.7437 55.372 31.1492 54.7781C30.5547 54.1836 29.7489 53.8493 28.9085 53.8488H13.1907C12.756 53.8488 12.4036 54.2012 12.4036 54.6354C12.4036 55.0701 12.756 55.4225 13.1907 55.4225H28.9057C29.7867 55.4231 30.5004 56.1372 30.5013 57.0182V58.0936C29.8849 58.3126 29.2361 58.4251 28.5818 58.4262H7.64912C6.35201 58.3631 5.15422 57.7142 4.39286 56.6625C4.07777 56.2744 3.79782 55.8594 3.55684 55.4213H7.68253C8.11728 55.4213 8.46915 55.0695 8.46915 54.6347C8.46915 54.2 8.11728 53.8476 7.68253 53.8476H2.82611C2.36117 52.6048 2.03402 51.3149 1.85012 50.0001H5.95726C6.39201 50.0001 6.74442 49.6483 6.74442 49.2135C6.74442 48.7787 6.39201 48.4263 5.95726 48.4263H1.67236C1.58947 47.4141 1.56038 46.3986 1.58508 45.3831H7.65128C8.49059 45.3842 9.1712 46.0649 9.17232 46.9047C9.17342 47.7254 9.49948 48.5121 10.0797 49.0921C10.6599 49.6724 11.4465 49.999 12.2671 50.0001H14.0441C14.4788 50.0001 14.8312 49.6482 14.8312 49.2134C14.8312 48.7787 14.4788 48.4263 14.0441 48.4263H12.2671C11.4272 48.4257 10.7466 47.7445 10.7461 46.9047C10.745 46.084 10.4189 45.2969 9.83869 44.7167C9.25848 44.1365 8.47131 43.8104 7.65128 43.8093H1.66139C1.76074 42.4798 1.92706 41.1558 2.16036 39.8433H6.78561C7.21981 39.8433 7.57223 39.4909 7.57223 39.0561C7.57223 38.6219 7.21982 38.2695 6.78561 38.2695H2.48484C2.83176 36.9762 3.3472 35.734 4.01684 34.5747H8.40109C8.83585 34.5747 9.18771 34.2223 9.18771 33.7875C9.18771 33.3533 8.83585 33.0009 8.40109 33.0009H5.02792C7.3664 29.9055 10.2976 27.3068 13.6504 25.3566V27.3058C13.6504 27.7406 14.0028 28.0924 14.4376 28.0924C14.8723 28.0924 15.2242 27.7406 15.2242 27.3058V24.4409C16.3879 23.802 17.5653 23.2289 18.7269 22.7238V28.1193C18.7264 28.851 18.4355 29.552 17.9184 30.0697C17.4007 30.5868 16.6997 30.8777 15.968 30.8782C14.8191 30.8799 13.7174 31.3366 12.905 32.149C12.0926 32.9614 11.6359 34.0631 11.6342 35.212V39.285C11.6342 39.7198 11.9866 40.0722 12.4214 40.0722C12.8561 40.0722 13.2085 39.7198 13.2085 39.285V35.212C13.2091 34.4803 13.5 33.7788 14.0177 33.2617C14.5348 32.744 15.2363 32.4531 15.968 32.4526C17.1169 32.4509 18.2181 31.9942 19.0305 31.1818C19.8429 30.3694 20.2996 29.2683 20.3013 28.1193V22.0767C20.6756 21.9318 21.0478 21.7918 21.4156 21.6617C21.6203 21.5986 21.7905 21.4548 21.8871 21.2632C21.9837 21.0722 21.998 20.8493 21.9261 20.6473C21.8547 20.4453 21.7038 20.2807 21.5083 20.1923C21.3135 20.1039 21.0901 20.0995 20.8914 20.1791C18.5551 21.0102 16.2941 22.0394 14.1341 23.2559L14.1231 23.2619C9.66364 25.7733 5.41922 29.2184 2.87782 33.4259C2.86355 33.4478 2.84982 33.4709 2.83829 33.4945C1.81894 35.1615 1.10309 36.9955 0.722686 38.9124C0.380703 40.6986 0.158393 42.5057 0.0568351 44.3221C0.0222532 44.4083 0.00358828 44.5005 0.00194132 44.5933C0.00688177 44.6432 0.0167622 44.6921 0.0315834 44.7398C-0.204457 50.2658 0.886259 54.8911 3.17907 57.6632C4.23356 59.0832 5.87981 59.9424 7.6479 59.9967H28.5806C29.6169 59.9967 30.6418 59.7755 31.5854 59.3467L31.6002 59.3407C33.0714 58.6749 34.2774 57.5337 35.0223 56.1009C35.6327 57.2789 36.556 58.2664 37.6911 58.9543C38.8258 59.6421 40.1284 60.0038 41.4557 60H62.3883C64.1596 59.9456 65.8082 59.0849 66.8648 57.6626C69.9284 53.964 70.8473 46.953 69.3223 38.9109C68.5856 35.523 66.9209 32.4081 64.5138 29.9127ZM51.1271 34.9672C50.7132 34.9672 50.3405 34.718 50.1819 34.336C50.0238 33.9534 50.1111 33.5137 50.4036 33.2211C50.6962 32.9285 51.1364 32.8407 51.5185 32.9993C51.9011 33.1574 52.1503 33.5307 52.1503 33.9446C52.1503 34.5094 51.692 34.9672 51.1271 34.9672ZM46.1056 39.2916C45.6917 39.2916 45.319 39.0424 45.1603 38.6598C45.0022 38.2778 45.0895 37.8375 45.3821 37.5449C45.6747 37.2524 46.1149 37.1651 46.497 37.3232C46.8796 37.4818 47.1288 37.8545 47.1288 38.2684C47.1288 38.8338 46.671 39.2916 46.1056 39.2916ZM61.1685 41.1015C60.7546 41.1015 60.3813 40.8522 60.2232 40.4702C60.0651 40.0876 60.1524 39.6479 60.445 39.3553C60.7376 39.0627 61.1778 38.9749 61.5599 39.1336C61.9419 39.2916 62.1911 39.6649 62.1911 40.0788C62.1911 40.6437 61.7333 41.1015 61.1685 41.1015ZM50.314 50.2373C49.9002 50.2373 49.5274 49.9881 49.3688 49.6055C49.2107 49.2234 49.298 48.7832 49.5905 48.4906C49.8831 48.198 50.3234 48.1107 50.7054 48.2688C51.088 48.4275 51.3372 48.8002 51.3372 49.2141C51.3372 49.7789 50.8789 50.2373 50.314 50.2373ZM55.2215 52.7108C55.6354 52.7108 56.0081 52.96 56.1667 53.3421C56.3248 53.7247 56.2375 54.1644 55.945 54.457C55.6524 54.7495 55.2121 54.8374 54.8301 54.6787C54.4475 54.5206 54.1983 54.1474 54.1983 53.7335C54.1983 53.1686 54.6566 52.7108 55.2215 52.7108ZM43.8476 47.3846C44.2615 47.3846 44.6348 47.6338 44.7929 48.0164C44.9515 48.3985 44.8637 48.8387 44.5711 49.1313C44.2785 49.4239 43.8383 49.5112 43.4563 49.3531C43.0742 49.1944 42.825 48.8217 42.825 48.4078C42.825 47.8424 43.2828 47.3846 43.8476 47.3846ZM54.459 43.5729C54.8729 43.5729 55.2456 43.8221 55.4042 44.2041C55.5623 44.5868 55.475 45.0264 55.1825 45.319C54.8899 45.6116 54.4497 45.6994 54.0676 45.5408C53.685 45.3827 53.4358 45.0094 53.4358 44.5955C53.4358 44.0307 53.8941 43.5729 54.459 43.5729ZM40.9032 33.2651C41.3171 33.2651 41.6898 33.5148 41.8485 33.8969C42.0066 34.2789 41.9193 34.7192 41.6267 35.0118C41.3341 35.3043 40.8939 35.3916 40.5118 35.2335C40.1292 35.0749 39.88 34.7022 39.88 34.2883C39.88 33.7234 40.3378 33.2651 40.9032 33.2651Z" fill="#0CB4C4"></path><path d="M16.5062 42.3211H19.9041C20.3388 42.3211 20.6912 41.9687 20.6912 41.534C20.6912 41.0998 20.3388 40.7473 19.9041 40.7473H16.5062C16.0714 40.7473 15.719 41.0997 15.719 41.534C15.719 41.9687 16.0714 42.3211 16.5062 42.3211Z" fill="#0CB4C4"></path><path d="M16.5062 36.7831H19.5137C19.9485 36.7831 20.3009 36.4307 20.3009 35.9959C20.3009 35.5611 19.9485 35.2087 19.5137 35.2087H16.5062C16.0714 35.2087 15.719 35.5611 15.719 35.9959C15.719 36.4307 16.0714 36.7831 16.5062 36.7831Z" fill="#0CB4C4"></path><path d="M49.7278 15.7464V13.6171C49.7289 13.1314 49.584 12.6571 49.3123 12.2547C49.04 11.8523 48.6536 11.5411 48.2029 11.3611L45.5894 10.311L46.6911 7.725C46.8821 7.27818 46.9348 6.78469 46.8426 6.30765C46.7498 5.83064 46.5165 5.39259 46.1724 5.04952L44.6865 3.5636C44.3439 3.21667 43.9048 2.98174 43.4267 2.88787C42.9486 2.79455 42.4529 2.8467 42.005 3.03828L39.4185 4.13997L38.3662 1.52437C38.1861 1.0737 37.8749 0.687259 37.4725 0.41554C37.0707 0.143272 36.5959 -0.0010899 36.1106 6.19567e-06H33.9857C33.5005 -0.00109173 33.0262 0.14382 32.6239 0.41554C32.2215 0.687807 31.9103 1.07425 31.7308 1.52492L30.6801 4.13897L28.0951 3.03728C27.6489 2.8457 27.1543 2.79355 26.6772 2.88578C26.2008 2.978 25.7622 3.21129 25.4191 3.55547L23.9255 5.04251C23.5797 5.38558 23.3442 5.82418 23.2508 6.30229C23.157 6.7804 23.2091 7.27554 23.4007 7.72398L24.5024 10.3105L21.8883 11.3617C21.4377 11.5417 21.0512 11.853 20.7795 12.2553C20.5078 12.6572 20.3629 13.132 20.364 13.6172V15.7465C20.3629 16.2323 20.5078 16.7065 20.78 17.1089C21.0518 17.5107 21.4382 17.822 21.8889 18.002L24.5024 19.0527L23.4007 21.6371C23.2096 22.0833 23.157 22.5774 23.2492 23.0544C23.3414 23.5309 23.5747 23.9695 23.9183 24.3125L25.4042 25.799C25.7473 26.1448 26.1865 26.3803 26.6646 26.4737C27.1427 26.5675 27.6378 26.5154 28.0863 26.3238L30.6739 25.2221L31.7246 27.8362C31.9046 28.2868 32.2153 28.6733 32.6177 28.9455C33.0195 29.2173 33.4943 29.3616 33.9796 29.3605H36.1044C36.5897 29.3622 37.0645 29.2173 37.4669 28.9455C37.8687 28.6733 38.1799 28.2868 38.3594 27.8356L39.4106 25.2221L41.995 26.3238C42.4413 26.5159 42.9359 26.5686 43.4129 26.4764C43.8899 26.3842 44.328 26.1509 44.6711 25.8062L46.1587 24.3197C46.5045 23.9766 46.7389 23.5375 46.8327 23.0599C46.9261 22.5818 46.8739 22.0867 46.6834 21.6388L45.5817 19.0523L48.1958 18.0011C48.6476 17.8227 49.0357 17.5114 49.309 17.1096C49.5824 16.7078 49.7278 16.2327 49.7278 15.7464ZM48.1541 15.7464C48.1546 16.0982 47.94 16.4144 47.6128 16.5434L44.254 17.8938C44.0575 17.9728 43.9016 18.1276 43.8203 18.3231C43.7397 18.5185 43.7408 18.738 43.8236 18.9329L45.2399 22.2594C45.3793 22.5817 45.3063 22.9571 45.056 23.2036L43.5601 24.701C43.312 24.9464 42.9398 25.0161 42.6203 24.8772L39.2949 23.461C39.1006 23.3781 38.8805 23.377 38.6851 23.4583C38.4902 23.539 38.3354 23.6954 38.2569 23.8914L36.9104 27.2502C36.7808 27.5763 36.4652 27.7898 36.1144 27.7892H33.9895C33.6388 27.7898 33.3242 27.5763 33.1941 27.2508L31.8443 23.8919C31.7653 23.696 31.611 23.5395 31.4156 23.4588C31.2202 23.3776 31.0006 23.3787 30.8058 23.4616L27.4787 24.8778C27.1559 25.0167 26.781 24.9442 26.5345 24.6939L25.0354 23.1986C24.7867 22.951 24.7165 22.5755 24.8581 22.2544L26.2743 18.9296C26.3572 18.7352 26.3589 18.5151 26.2776 18.3197C26.1969 18.1243 26.0405 17.9695 25.844 17.891L22.4785 16.5434C22.1525 16.4138 21.9389 16.0988 21.9384 15.748V13.6171C21.9384 13.2668 22.1514 12.9518 22.4769 12.8217L25.8357 11.4718C26.0317 11.3928 26.1876 11.2385 26.2688 11.0431C26.3495 10.8477 26.3484 10.6281 26.2661 10.4338L24.8498 7.10506C24.7104 6.78229 24.7829 6.40738 25.0337 6.1609L26.5329 4.66557C26.7793 4.41856 27.1526 4.34829 27.4721 4.48772L30.7975 5.90394C30.9918 5.98683 31.2124 5.98792 31.4079 5.90723C31.6033 5.82599 31.7581 5.67009 31.8366 5.47358L33.1853 2.11629C33.3148 1.79023 33.631 1.57614 33.9818 1.5767H36.1067C36.4574 1.57561 36.7731 1.78968 36.9021 2.11575L38.2524 5.4736C38.3315 5.66956 38.4857 5.82601 38.6812 5.9067C38.8766 5.98794 39.0961 5.98684 39.2905 5.90395L42.6175 4.48774C42.9403 4.34831 43.3158 4.42187 43.5622 4.67273L45.0614 6.16806C45.3078 6.41562 45.3781 6.78725 45.2392 7.10727L43.823 10.4338C43.7407 10.6281 43.739 10.8477 43.8197 11.0431C43.901 11.2385 44.0568 11.3928 44.2534 11.4718L47.6128 12.8205C47.9388 12.9501 48.1529 13.2657 48.1523 13.617L48.1541 15.7464Z" fill="#0CB4C4"></path><path d="M35.0471 7.99077C33.273 7.99077 31.5719 8.69559 30.317 9.94983C29.0627 11.2041 28.358 12.9058 28.358 14.6799C28.358 16.4535 29.0628 18.1551 30.317 19.4094C31.5719 20.6637 33.273 21.3685 35.0471 21.3685C36.8212 21.3685 38.5223 20.6637 39.7766 19.4094C41.0315 18.1551 41.7357 16.4535 41.7357 14.6799C41.7335 12.9063 41.0281 11.2063 39.7738 9.9525C38.5201 8.69875 36.8201 7.99358 35.0471 7.99077ZM35.0471 19.7949C33.6902 19.7949 32.3892 19.2559 31.4303 18.2969C30.4707 17.3374 29.9317 16.0364 29.9317 14.6801C29.9317 13.3231 30.4707 12.0222 31.4303 11.0632C32.3892 10.1037 33.6902 9.56465 35.0471 9.56465C36.4035 9.56465 37.7044 10.1037 38.664 11.0632C39.6235 12.0222 40.162 13.3231 40.162 14.6801C40.1609 16.0364 39.6218 17.3368 38.6628 18.2963C37.7039 19.2559 36.4035 19.7955 35.0471 19.7971V19.7949Z" fill="#0CB4C4"></path><path d="M30.0346 42.3211C30.4693 42.3211 30.8212 41.9687 30.8212 41.534C30.8212 41.0998 30.4693 40.7473 30.0346 40.7473H23.1581C22.7233 40.7473 22.3709 41.0997 22.3709 41.534C22.3709 41.9687 22.7233 42.3211 23.1581 42.3211H30.0346Z" fill="#0CB4C4"></path><path d="M16.4107 45.8961C16.4107 46.1047 16.4936 46.3051 16.6412 46.4522C16.7889 46.5999 16.9892 46.6827 17.1978 46.6827H22.6097C23.0445 46.6827 23.3963 46.3303 23.3963 45.8961C23.3963 45.4614 23.0445 45.109 22.6097 45.109H17.1978C16.7631 45.109 16.4107 45.4614 16.4107 45.8961Z" fill="#0CB4C4"></path></svg>