<svg width="57" height="62" viewBox="0 0 57 62" fill="none" xmlns="http://www.w3.org/2000/svg"><path d="M31.0757 45.4573H27.8576C27.4144 45.4573 27.053 45.8187 27.053 46.2619C27.053 46.7051 27.4144 47.0665 27.8576 47.0665H31.0757C31.5189 47.0665 31.8803 46.7051 31.8803 46.2619C31.8803 45.8187 31.5189 45.4573 31.0757 45.4573Z" fill="#0CB4C4"></path><path d="M25.561 28.4954L22.916 25.8433L25.5134 23.2459C25.8268 22.9325 25.8268 22.4208 25.5134 22.1074C25.2 21.794 24.6884 21.794 24.375 22.1074L21.205 25.2774C20.8916 25.5908 20.8916 26.1024 21.205 26.4158L24.4231 29.6339C24.58 29.7908 24.7845 29.8726 24.9889 29.8726C25.1934 29.8726 25.3979 29.7908 25.5548 29.6339C25.8682 29.3205 25.8682 28.8088 25.5548 28.4954L25.561 28.4954Z" fill="#0CB4C4"></path><path d="M36.2436 25.8902L33.6461 28.4876C33.3328 28.801 33.3328 29.3127 33.6461 29.6261C33.8031 29.783 34.0076 29.8648 34.212 29.8648C34.4165 29.8648 34.621 29.783 34.7779 29.6261L37.9479 26.4561C38.2613 26.1427 38.2613 25.631 37.9479 25.3176L34.7298 22.0996C34.4165 21.7862 33.9048 21.7862 33.5914 22.0996C33.278 22.413 33.278 22.9246 33.5914 23.238L36.2364 25.8901L36.2436 25.8902Z" fill="#0CB4C4"></path><path d="M27.3055 29.7773C27.4215 29.8386 27.5442 29.8657 27.6669 29.8657C27.9598 29.8657 28.2466 29.7021 28.3826 29.4225L31.6007 23.0345C31.7985 22.6393 31.6416 22.1552 31.2464 21.9574C30.8512 21.7596 30.3671 21.9165 30.1693 22.3117L26.9512 28.6997C26.7534 29.0949 26.9103 29.5795 27.3055 29.7773Z" fill="#0CB4C4"></path><path d="M5.25856 45.5997L6.77226 42.9819C6.9154 42.7365 6.9154 42.4298 6.77226 42.1844C6.47933 41.6594 6.24726 41.1006 6.08368 40.5142C6.00854 40.2417 5.79075 40.0301 5.51779 39.955L2.59982 39.1708V37.7528L5.51779 36.9686C5.79028 36.8935 6.00854 36.6823 6.08368 36.4094C6.24727 35.8297 6.47886 35.2643 6.77226 34.7392C6.90874 34.4939 6.90874 34.1871 6.77226 33.9418L5.25856 31.3239L6.26053 30.3219L8.87841 31.8356C9.12379 31.9788 9.43052 31.9788 9.6759 31.8356C10.2009 31.5427 10.7597 31.3106 11.346 31.147C11.6185 31.0719 11.8301 30.8541 11.9053 30.5811L12.6895 27.6632H14.1075L14.8916 30.5811C14.9668 30.8536 15.1779 31.0719 15.4509 31.147C16.0306 31.3106 16.596 31.5422 17.121 31.8356C17.3664 31.9721 17.6731 31.9721 17.9185 31.8356L20.5364 30.3219L21.5384 31.3239L20.0247 33.9418C19.8815 34.1871 19.8815 34.4939 20.0247 34.7392C20.3176 35.2642 20.5497 35.823 20.7132 36.4094C20.7884 36.6819 21.0062 36.8935 21.2791 36.9686L24.1971 37.7528V39.1708L21.2791 39.955C21.0066 40.0301 20.7884 40.2413 20.7132 40.5142C20.5839 40.9846 20.4065 41.4344 20.1882 41.871C20.1678 41.8981 20.154 41.9324 20.1407 41.9666C20.0998 42.0417 20.0656 42.1097 20.0247 42.1849C19.8882 42.4303 19.8882 42.737 20.0247 42.9824L21.5384 45.6002L20.5364 46.6022L17.9185 45.0885C17.6731 44.9454 17.3664 44.9454 17.121 45.0885C16.596 45.3814 16.0373 45.6202 15.4509 45.7771C15.1784 45.8522 14.9668 46.07 14.8916 46.343L14.1075 49.261H12.6894L11.9053 46.343C11.8301 46.0705 11.619 45.8522 11.346 45.7771C10.7663 45.6135 10.2009 45.3819 9.67589 45.0885C9.43051 44.952 9.12378 44.952 8.8784 45.0885L6.26052 46.6022L5.25856 45.5997ZM19.4119 2.60878H38.637C40.5115 2.60878 42.039 4.13576 42.039 6.01078V7.30621L16.0099 7.30573V6.01031C16.0099 4.13577 17.5369 2.60878 19.4119 2.60878ZM25.1998 36.3622L22.1116 35.5371C21.9752 35.1348 21.8187 34.7463 21.6275 34.3716L23.2229 31.6039C23.407 31.2906 23.3523 30.8882 23.0936 30.6357L21.219 28.7612C20.9599 28.502 20.5647 28.4545 20.2508 28.6319L17.4832 30.2272C17.1085 30.0366 16.7195 29.8796 16.3177 29.7431L15.9838 28.4958C15.9976 28.4411 16.0043 28.3798 16.0043 28.3256L16.0033 8.91547H42.0324V41.4758H22.0781C22.0781 41.4758 22.0986 41.4283 22.1052 41.4007L25.1934 40.5756C25.5477 40.48 25.7864 40.16 25.7864 39.7986V37.1465C25.7864 36.7851 25.541 36.4646 25.1934 36.3695L25.1998 36.3622ZM38.6374 49.2604H19.4123C18.1031 49.2604 16.89 48.4967 16.3309 47.3107C16.3242 47.2902 16.3104 47.2764 16.3037 47.256L16.3242 47.188C16.7265 47.0515 17.115 46.895 17.4897 46.7039L20.2574 48.2993C20.5707 48.4833 20.9731 48.4286 21.2256 48.1699L23.1001 46.2954C23.3593 46.0362 23.4068 45.641 23.2295 45.3272L21.934 43.0774H42.038V45.8522C42.038 47.7268 40.5111 49.2542 38.636 49.2542L38.6374 49.2604ZM6.53475 48.2994L9.30237 46.704C9.67709 46.8947 10.0661 47.0516 10.4679 47.1881L11.293 50.2762C11.3886 50.6305 11.7086 50.8692 12.07 50.8692H14.7221C15.0835 50.8692 15.404 50.6239 15.4991 50.2762L15.765 49.2876C16.6989 50.2762 18.0214 50.8692 19.4191 50.8692H38.6441C41.4052 50.8692 43.6549 48.6195 43.6549 45.8584L43.6554 6.01078C43.6554 3.24974 41.4057 1 38.6446 1H19.4196C16.6585 1 14.4088 3.24974 14.4088 6.01078V26.0612H12.0772C11.7158 26.0612 11.3953 26.3066 11.3002 26.6542L10.4751 29.7424C10.0728 29.8789 9.68431 30.0353 9.30959 30.2265L6.54197 28.6311C6.22859 28.4471 5.82627 28.5017 5.57376 28.7604L3.69922 30.635C3.44005 30.8942 3.3925 31.2893 3.56988 31.6032L5.16527 34.3708C4.97458 34.7455 4.81764 35.1412 4.68116 35.5364L1.593 36.3614C1.23872 36.457 1 36.777 1 37.1385V39.7905C1 40.152 1.24538 40.4725 1.593 40.5676L4.68116 41.3926C4.81764 41.795 4.97409 42.1835 5.16527 42.5582L3.56988 45.3258C3.38584 45.6392 3.44053 46.0415 3.69922 46.294L5.57376 48.1686C5.83293 48.4277 6.22811 48.4753 6.54197 48.2979L6.53475 48.2994Z" fill="#0CB4C4"></path><path d="M13.3919 35.7973C14.8647 35.7973 16.0645 36.9971 16.0645 38.4698C16.0645 39.9426 14.8647 41.1424 13.3919 41.1424C11.9191 41.1424 10.7194 39.9426 10.7194 38.4698C10.7194 36.9971 11.9192 35.7973 13.3919 35.7973ZM13.3919 42.7511C15.7506 42.7511 17.6733 40.8285 17.6733 38.4698C17.6733 36.1111 15.7506 34.1885 13.3919 34.1885C11.0333 34.1885 9.11063 36.1111 9.11063 38.4698C9.11063 40.8285 11.0333 42.7511 13.3919 42.7511Z" fill="#0CB4C4"></path><path d="M5.96705 23.4846V26.8728C5.96705 27.316 6.32847 27.6775 6.77167 27.6775C7.21487 27.6775 7.57629 27.316 7.57629 26.8728V23.4846C7.57629 23.0414 7.21487 22.68 6.77167 22.68C6.32847 22.68 5.96705 23.0414 5.96705 23.4846Z" fill="#0CB4C4"></path><path d="M47.5264 8.91571C49.6805 8.91571 51.4397 10.6677 51.4397 12.829V29.0617C51.4397 29.5049 51.8011 29.8663 52.2443 29.8663C52.6875 29.8663 53.0489 29.5049 53.0489 29.0617V12.829C53.0489 9.78176 50.5742 7.30705 47.5269 7.30705C47.0837 7.30705 46.7223 7.66847 46.7223 8.11167C46.7223 8.55487 47.0832 8.91571 47.5264 8.91571Z" fill="#0CB4C4"></path><path d="M6.16546 20.7029C6.32239 20.8598 6.52688 20.9416 6.73135 20.9416C6.93583 20.9416 7.14032 20.8598 7.29724 20.7029L10.4744 17.5257C10.7878 17.2123 10.7878 16.7007 10.4744 16.3873C10.161 16.0739 9.64933 16.0739 9.33594 16.3873L7.57023 18.153V12.8288C7.57023 10.6747 9.32218 8.91553 11.4835 8.91553C11.9267 8.91553 12.2882 8.55411 12.2882 8.1109C12.2882 7.6677 11.9267 7.30628 11.4835 7.30628C8.43628 7.30628 5.96157 9.78099 5.96157 12.8282V18.2342L4.11406 16.3867C3.80068 16.0733 3.289 16.0733 2.9756 16.3867C2.66222 16.7001 2.66222 17.2117 2.9756 17.5251L6.15275 20.7023L6.16546 20.7029Z" fill="#0CB4C4"></path><path d="M28.2538 53.262C27.9405 52.9486 27.4288 52.9486 27.1154 53.262C26.802 53.5754 26.802 54.0871 27.1154 54.4005L28.922 56.2071L11.4889 56.2075C9.33477 56.2075 7.57564 54.4556 7.57564 52.2942V50.4943C7.57564 50.0511 7.21422 49.6897 6.77102 49.6897C6.32782 49.6897 5.9664 50.0511 5.9664 50.4943V52.2942C5.9664 55.3415 8.44111 57.8162 11.4884 57.8162H28.9202L27.1136 59.6228C26.8002 59.9362 26.8002 60.4479 27.1136 60.7613C27.2705 60.9182 27.475 61 27.6795 61C27.884 61 28.0884 60.9182 28.2454 60.7613L31.4225 57.5841C31.5723 57.4343 31.6612 57.2298 31.6612 57.0182C31.6612 56.8071 31.5794 56.6026 31.4225 56.4523L28.2454 53.2752L28.2538 53.262Z" fill="#0CB4C4"></path><path d="M55.9933 36.0079L52.8162 32.8307C52.5028 32.5174 51.9911 32.5174 51.6777 32.8307L48.5006 36.0079C48.1872 36.3213 48.1872 36.833 48.5006 37.1463C48.6575 37.3033 48.862 37.3851 49.0665 37.3851C49.2709 37.3851 49.4754 37.3033 49.6323 37.1463L51.439 35.3397V52.287C51.439 54.4412 49.687 56.2004 47.5256 56.2004H36.4065C35.9633 56.2004 35.6019 56.5618 35.6019 57.005C35.6019 57.4482 35.9633 57.8096 36.4065 57.8096H47.5256C50.5729 57.8096 53.0476 55.3349 53.0476 52.2876V35.333L54.8542 37.1396C55.1676 37.453 55.6793 37.453 55.9927 37.1396C56.3061 36.8262 56.3061 36.3146 55.9927 36.0012L55.9933 36.0079Z" fill="#0CB4C4"></path><path d="M31.0757 45.4573H27.8576C27.4144 45.4573 27.053 45.8187 27.053 46.2619C27.053 46.7051 27.4144 47.0665 27.8576 47.0665H31.0757C31.5189 47.0665 31.8803 46.7051 31.8803 46.2619C31.8803 45.8187 31.5189 45.4573 31.0757 45.4573Z" stroke="#0CB4C4" stroke-width="0.2"></path><path d="M25.561 28.4954L22.916 25.8433L25.5134 23.2459C25.8268 22.9325 25.8268 22.4208 25.5134 22.1074C25.2 21.794 24.6884 21.794 24.375 22.1074L21.205 25.2774C20.8916 25.5908 20.8916 26.1024 21.205 26.4158L24.4231 29.6339C24.58 29.7908 24.7845 29.8726 24.9889 29.8726C25.1934 29.8726 25.3979 29.7908 25.5548 29.6339C25.8682 29.3205 25.8682 28.8088 25.5548 28.4954L25.561 28.4954Z" stroke="#0CB4C4" stroke-width="0.2"></path><path d="M36.2436 25.8902L33.6461 28.4876C33.3328 28.801 33.3328 29.3127 33.6461 29.6261C33.8031 29.783 34.0076 29.8648 34.212 29.8648C34.4165 29.8648 34.621 29.783 34.7779 29.6261L37.9479 26.4561C38.2613 26.1427 38.2613 25.631 37.9479 25.3176L34.7298 22.0996C34.4165 21.7862 33.9048 21.7862 33.5914 22.0996C33.278 22.413 33.278 22.9246 33.5914 23.238L36.2364 25.8901L36.2436 25.8902Z" stroke="#0CB4C4" stroke-width="0.2"></path><path d="M27.3055 29.7773C27.4215 29.8386 27.5442 29.8657 27.6669 29.8657C27.9598 29.8657 28.2466 29.7021 28.3826 29.4225L31.6007 23.0345C31.7985 22.6393 31.6416 22.1552 31.2464 21.9574C30.8512 21.7596 30.3671 21.9165 30.1693 22.3117L26.9512 28.6997C26.7534 29.0949 26.9103 29.5795 27.3055 29.7773Z" stroke="#0CB4C4" stroke-width="0.2"></path><path d="M5.25856 45.5997L6.77226 42.9819C6.9154 42.7365 6.9154 42.4298 6.77226 42.1844C6.47933 41.6594 6.24726 41.1006 6.08368 40.5142C6.00854 40.2417 5.79075 40.0301 5.51779 39.955L2.59982 39.1708V37.7528L5.51779 36.9686C5.79028 36.8935 6.00854 36.6823 6.08368 36.4094C6.24727 35.8297 6.47886 35.2643 6.77226 34.7392C6.90874 34.4939 6.90874 34.1871 6.77226 33.9418L5.25856 31.3239L6.26053 30.3219L8.87841 31.8356C9.12379 31.9788 9.43052 31.9788 9.6759 31.8356C10.2009 31.5427 10.7597 31.3106 11.346 31.147C11.6185 31.0719 11.8301 30.8541 11.9053 30.5811L12.6895 27.6632H14.1075L14.8916 30.5811C14.9668 30.8536 15.1779 31.0719 15.4509 31.147C16.0306 31.3106 16.596 31.5422 17.121 31.8356C17.3664 31.9721 17.6731 31.9721 17.9185 31.8356L20.5364 30.3219L21.5384 31.3239L20.0247 33.9418C19.8815 34.1871 19.8815 34.4939 20.0247 34.7392C20.3176 35.2642 20.5497 35.823 20.7132 36.4094C20.7884 36.6819 21.0062 36.8935 21.2791 36.9686L24.1971 37.7528V39.1708L21.2791 39.955C21.0066 40.0301 20.7884 40.2413 20.7132 40.5142C20.5839 40.9846 20.4065 41.4344 20.1882 41.871C20.1678 41.8981 20.154 41.9324 20.1407 41.9666C20.0998 42.0417 20.0656 42.1097 20.0247 42.1849C19.8882 42.4303 19.8882 42.737 20.0247 42.9824L21.5384 45.6002L20.5364 46.6022L17.9185 45.0885C17.6731 44.9454 17.3664 44.9454 17.121 45.0885C16.596 45.3814 16.0373 45.6202 15.4509 45.7771C15.1784 45.8522 14.9668 46.07 14.8916 46.343L14.1075 49.261H12.6894L11.9053 46.343C11.8301 46.0705 11.619 45.8522 11.346 45.7771C10.7663 45.6135 10.2009 45.3819 9.67589 45.0885C9.43051 44.952 9.12378 44.952 8.8784 45.0885L6.26052 46.6022L5.25856 45.5997ZM19.4119 2.60878H38.637C40.5115 2.60878 42.039 4.13576 42.039 6.01078V7.30621L16.0099 7.30573V6.01031C16.0099 4.13577 17.5369 2.60878 19.4119 2.60878ZM25.1998 36.3622L22.1116 35.5371C21.9752 35.1348 21.8187 34.7463 21.6275 34.3716L23.2229 31.6039C23.407 31.2906 23.3523 30.8882 23.0936 30.6357L21.219 28.7612C20.9599 28.502 20.5647 28.4545 20.2508 28.6319L17.4832 30.2272C17.1085 30.0366 16.7195 29.8796 16.3177 29.7431L15.9838 28.4958C15.9976 28.4411 16.0043 28.3798 16.0043 28.3256L16.0033 8.91547H42.0324V41.4758H22.0781C22.0781 41.4758 22.0986 41.4283 22.1052 41.4007L25.1934 40.5756C25.5477 40.48 25.7864 40.16 25.7864 39.7986V37.1465C25.7864 36.7851 25.541 36.4646 25.1934 36.3695L25.1998 36.3622ZM38.6374 49.2604H19.4123C18.1031 49.2604 16.89 48.4967 16.3309 47.3107C16.3242 47.2902 16.3104 47.2764 16.3037 47.256L16.3242 47.188C16.7265 47.0515 17.115 46.895 17.4897 46.7039L20.2574 48.2993C20.5707 48.4833 20.9731 48.4286 21.2256 48.1699L23.1001 46.2954C23.3593 46.0362 23.4068 45.641 23.2295 45.3272L21.934 43.0774H42.038V45.8522C42.038 47.7268 40.5111 49.2542 38.636 49.2542L38.6374 49.2604ZM6.53475 48.2994L9.30237 46.704C9.67709 46.8947 10.0661 47.0516 10.4679 47.1881L11.293 50.2762C11.3886 50.6305 11.7086 50.8692 12.07 50.8692H14.7221C15.0835 50.8692 15.404 50.6239 15.4991 50.2762L15.765 49.2876C16.6989 50.2762 18.0214 50.8692 19.4191 50.8692H38.6441C41.4052 50.8692 43.6549 48.6195 43.6549 45.8584L43.6554 6.01078C43.6554 3.24974 41.4057 1 38.6446 1H19.4196C16.6585 1 14.4088 3.24974 14.4088 6.01078V26.0612H12.0772C11.7158 26.0612 11.3953 26.3066 11.3002 26.6542L10.4751 29.7424C10.0728 29.8789 9.68431 30.0353 9.30959 30.2265L6.54197 28.6311C6.22859 28.4471 5.82627 28.5017 5.57376 28.7604L3.69922 30.635C3.44005 30.8942 3.3925 31.2893 3.56988 31.6032L5.16527 34.3708C4.97458 34.7455 4.81764 35.1412 4.68116 35.5364L1.593 36.3614C1.23872 36.457 1 36.777 1 37.1385V39.7905C1 40.152 1.24538 40.4725 1.593 40.5676L4.68116 41.3926C4.81764 41.795 4.97409 42.1835 5.16527 42.5582L3.56988 45.3258C3.38584 45.6392 3.44053 46.0415 3.69922 46.294L5.57376 48.1686C5.83293 48.4277 6.22811 48.4753 6.54197 48.2979L6.53475 48.2994Z" stroke="#0CB4C4" stroke-width="0.2"></path><path d="M13.3919 35.7973C14.8647 35.7973 16.0645 36.9971 16.0645 38.4698C16.0645 39.9426 14.8647 41.1424 13.3919 41.1424C11.9191 41.1424 10.7194 39.9426 10.7194 38.4698C10.7194 36.9971 11.9192 35.7973 13.3919 35.7973ZM13.3919 42.7511C15.7506 42.7511 17.6733 40.8285 17.6733 38.4698C17.6733 36.1111 15.7506 34.1885 13.3919 34.1885C11.0333 34.1885 9.11063 36.1111 9.11063 38.4698C9.11063 40.8285 11.0333 42.7511 13.3919 42.7511Z" stroke="#0CB4C4" stroke-width="0.2"></path><path d="M5.96705 23.4846V26.8728C5.96705 27.316 6.32847 27.6775 6.77167 27.6775C7.21487 27.6775 7.57629 27.316 7.57629 26.8728V23.4846C7.57629 23.0414 7.21487 22.68 6.77167 22.68C6.32847 22.68 5.96705 23.0414 5.96705 23.4846Z" stroke="#0CB4C4" stroke-width="0.2"></path><path d="M47.5264 8.91571C49.6805 8.91571 51.4397 10.6677 51.4397 12.829V29.0617C51.4397 29.5049 51.8011 29.8663 52.2443 29.8663C52.6875 29.8663 53.0489 29.5049 53.0489 29.0617V12.829C53.0489 9.78176 50.5742 7.30705 47.5269 7.30705C47.0837 7.30705 46.7223 7.66847 46.7223 8.11167C46.7223 8.55487 47.0832 8.91571 47.5264 8.91571Z" stroke="#0CB4C4" stroke-width="0.2"></path><path d="M6.16546 20.7029C6.32239 20.8598 6.52688 20.9416 6.73135 20.9416C6.93583 20.9416 7.14032 20.8598 7.29724 20.7029L10.4744 17.5257C10.7878 17.2123 10.7878 16.7007 10.4744 16.3873C10.161 16.0739 9.64933 16.0739 9.33594 16.3873L7.57023 18.153V12.8288C7.57023 10.6747 9.32218 8.91553 11.4835 8.91553C11.9267 8.91553 12.2882 8.55411 12.2882 8.1109C12.2882 7.6677 11.9267 7.30628 11.4835 7.30628C8.43628 7.30628 5.96157 9.78099 5.96157 12.8282V18.2342L4.11406 16.3867C3.80068 16.0733 3.289 16.0733 2.9756 16.3867C2.66222 16.7001 2.66222 17.2117 2.9756 17.5251L6.15275 20.7023L6.16546 20.7029Z" stroke="#0CB4C4" stroke-width="0.2"></path><path d="M28.2538 53.262C27.9405 52.9486 27.4288 52.9486 27.1154 53.262C26.802 53.5754 26.802 54.0871 27.1154 54.4005L28.922 56.2071L11.4889 56.2075C9.33477 56.2075 7.57564 54.4556 7.57564 52.2942V50.4943C7.57564 50.0511 7.21422 49.6897 6.77102 49.6897C6.32782 49.6897 5.9664 50.0511 5.9664 50.4943V52.2942C5.9664 55.3415 8.44111 57.8162 11.4884 57.8162H28.9202L27.1136 59.6228C26.8002 59.9362 26.8002 60.4479 27.1136 60.7613C27.2705 60.9182 27.475 61 27.6795 61C27.884 61 28.0884 60.9182 28.2454 60.7613L31.4225 57.5841C31.5723 57.4343 31.6612 57.2298 31.6612 57.0182C31.6612 56.8071 31.5794 56.6026 31.4225 56.4523L28.2454 53.2752L28.2538 53.262Z" stroke="#0CB4C4" stroke-width="0.2"></path><path d="M55.9933 36.0079L52.8162 32.8307C52.5028 32.5174 51.9911 32.5174 51.6777 32.8307L48.5006 36.0079C48.1872 36.3213 48.1872 36.833 48.5006 37.1463C48.6575 37.3033 48.862 37.3851 49.0665 37.3851C49.2709 37.3851 49.4754 37.3033 49.6323 37.1463L51.439 35.3397V52.287C51.439 54.4412 49.687 56.2004 47.5256 56.2004H36.4065C35.9633 56.2004 35.6019 56.5618 35.6019 57.005C35.6019 57.4482 35.9633 57.8096 36.4065 57.8096H47.5256C50.5729 57.8096 53.0476 55.3349 53.0476 52.2876V35.333L54.8542 37.1396C55.1676 37.453 55.6793 37.453 55.9927 37.1396C56.3061 36.8262 56.3061 36.3146 55.9927 36.0012L55.9933 36.0079Z" stroke="#0CB4C4" stroke-width="0.2"></path></svg>