<svg width="53" height="60" viewBox="0 0 53 60" fill="none" xmlns="http://www.w3.org/2000/svg"><path d="M40.5378 21.1611V7.77825C40.5378 7.21684 40.1634 6.84241 39.602 6.84241C33.4251 6.84241 26.8743 0.384608 26.7806 0.291073C26.1257 -0.363841 25.3768 0.291073 25.4703 0.291073C25.3768 0.384571 18.8255 6.84241 12.6489 6.84241C12.0875 6.84241 11.7131 7.21683 11.7131 7.77825V21.1611C11.7131 32.111 23.0377 36.6033 26.0324 36.7908H26.2194C29.2143 36.6038 40.5378 32.1116 40.5378 21.1611ZM38.6657 11.8023H36.8875C36.3261 11.8023 35.9517 12.1767 35.9517 12.7381C35.9517 13.2995 36.3261 13.6739 36.8875 13.6739H38.6657V17.4173L27.0609 17.4178V3.00471C29.4005 4.96984 33.8927 8.24579 38.6657 8.62015V11.8023ZM25.1891 3.00486V17.4179H13.5843V13.6745H15.3625C15.9239 13.6745 16.2983 13.3001 16.2983 12.7387C16.2983 12.1773 15.9239 11.8028 15.3625 11.8028H13.5843V8.62087C18.357 8.24602 22.8496 4.96998 25.1891 3.00486ZM14.4261 25.7468H15.362C15.9234 25.7468 16.2978 25.3723 16.2978 24.8109C16.2978 24.2495 15.9234 23.8751 15.362 23.8751H13.8647C13.6777 23.0327 13.5838 22.1905 13.5838 21.1611V19.2894H25.1886V34.6378C22.6616 33.9825 16.6726 31.3622 14.4261 25.7468ZM27.0611 34.7316V19.3832H38.6659V21.2549C38.6659 22.1907 38.5724 23.1266 38.385 23.9688H36.8877C36.3263 23.9688 35.9519 24.3432 35.9519 24.9047C35.9519 25.4661 36.3263 25.8405 36.8877 25.8405H37.8236C35.5775 31.3624 29.5881 33.9827 27.0611 34.7316Z" fill="#0CB4C4"></path><path d="M46.8084 46.7113L51.2071 41.0958C52.0495 40.0665 52.4239 38.6624 52.3304 37.3524L50.6458 20.7874C50.4588 19.0092 48.8676 17.7925 47.0895 18.0734C44.8434 18.4479 43.2522 20.3195 43.2522 22.6591V32.1114C42.4099 32.2049 41.5676 32.5793 41.0061 33.3281L34.8293 40.0664C33.9869 41.0022 33.519 42.219 33.519 43.5293V50.5485C31.8344 50.5485 30.5241 51.9523 30.5241 53.637V56.7254C30.5241 58.41 31.9279 59.8138 33.6125 59.8138H46.1538C47.8384 59.8138 49.2422 58.41 49.2422 56.7254V53.637C49.2422 51.9523 47.9319 50.6421 46.2473 50.5485C46.1538 49.3322 45.6852 48.0215 46.8084 46.7113ZM36.1393 41.4702L42.3162 34.7319C43.9074 32.9537 46.6213 35.2933 45.1237 37.1654L41.4738 41.845C41.1929 42.2194 41.1929 42.8743 41.6608 43.1553C42.0352 43.4362 42.6901 43.4362 42.9711 42.9683L46.6209 38.2886C48.1182 36.3235 47.3698 33.422 45.0297 32.4862L45.0302 22.7526C45.0302 21.4423 45.966 20.3191 47.2762 20.0386C47.9312 19.9451 48.5865 20.4131 48.5865 21.068L50.2711 37.633C50.3646 38.4753 50.0841 39.3176 49.6162 39.9726L45.2175 45.588C43.6263 47.5532 44.1882 49.5188 44.0942 50.7356H35.2034V43.7163C35.2969 42.7801 35.5775 42.0316 36.1393 41.4702ZM47.1827 53.7302V56.8186C47.1827 57.4735 46.6213 58.0353 45.9659 58.0353H33.5185C32.8635 58.0353 32.3017 57.4739 32.3017 56.8186V53.7302C32.3017 53.0753 32.8631 52.5134 33.5185 52.5134H46.0597C46.715 52.6069 47.1827 53.0748 47.1827 53.7302Z" fill="#0CB4C4"></path><path d="M18.8251 50.735V43.7158C18.8251 42.4055 18.3572 41.1888 17.5148 40.2529L11.338 33.5146C10.6831 32.8597 9.93417 32.3913 9.09191 32.2979V22.7521C9.09191 20.506 7.50071 18.5403 5.25464 18.1664C3.57001 17.8855 1.88527 19.1022 1.69831 20.8804L0.0140117 37.3516C-0.0794862 38.6619 0.294938 40.0656 1.13732 41.095L5.53602 46.7105C6.56535 48.0207 6.09743 49.331 6.28487 50.7347C4.60024 50.7347 3.28997 52.1385 3.28997 53.8231V56.9116C3.28997 58.5962 4.69377 60 6.3784 60H18.9196C20.6043 60 22.0081 58.5962 22.0081 56.9116V53.8231C21.8207 52.1385 20.5099 50.735 18.8251 50.735ZM2.54134 39.9725C1.97949 39.3172 1.7925 38.3813 1.886 37.539L3.57063 20.974C3.66413 20.3191 4.22554 19.8507 4.8809 19.9447C6.19117 20.1317 7.12696 21.2549 7.12696 22.6586V32.3918C4.78736 33.3277 4.03853 36.2291 5.53576 38.1942L9.18562 42.8739C9.46655 43.2483 10.1215 43.3418 10.4959 43.0609C10.8703 42.7799 10.9638 42.125 10.6829 41.7506L7.03302 37.071C5.53579 35.1993 8.24975 32.8592 9.93449 34.6375L16.1114 41.3758C16.6728 42.0307 16.9537 42.7796 16.9537 43.6219V50.6411H8.06287C7.96937 49.5178 8.53079 47.4591 6.93956 45.4936L2.54134 39.9725ZM19.9491 56.8188C19.9491 57.4737 19.3877 58.0355 18.7323 58.0355H6.1911C5.53619 58.0355 4.97437 57.4741 4.97437 56.8188V53.7304C4.97437 53.0755 5.53578 52.5136 6.1911 52.5136H18.7323C19.3873 52.5136 19.9491 53.0751 19.9491 53.7304V56.8188Z" fill="#0CB4C4"></path><path d="M36.8869 54.3849H36.0445C35.4831 54.3849 35.1087 54.7593 35.1087 55.3208C35.1087 55.8822 35.4831 56.2566 36.0445 56.2566H36.8869C37.4483 56.2566 37.8227 55.8822 37.8227 55.3208C37.8231 54.7593 37.4487 54.3849 36.8869 54.3849Z" fill="#0CB4C4"></path><path d="M9.65357 54.3849H8.81123C8.24982 54.3849 7.8754 54.7593 7.8754 55.3208C7.8754 55.8822 8.24981 56.2566 8.81123 56.2566H9.65357C10.215 56.2566 10.5894 55.8822 10.5894 55.3208C10.5894 54.7593 10.215 54.3849 9.65357 54.3849Z" fill="#0CB4C4"></path></svg>