<svg width="60" height="60" viewBox="0 0 60 60" fill="none" xmlns="http://www.w3.org/2000/svg"><path d="M58.9766 18.0166H48.0599C48.7828 15.8322 49.1171 13.538 49.0475 11.2384C49.0564 8.27755 47.8908 5.434 45.8059 3.33174C43.7215 1.22903 40.8877 0.0397902 37.9268 0.0236823C34.9543 0.0169885 32.1055 1.2143 30.03 3.34248C27.9544 1.2143 25.106 0.0170564 22.1331 0.0236823C19.1767 0.0375157 16.3461 1.22275 14.2617 3.31975C12.1777 5.41629 11.0089 8.25391 11.0126 11.2103C10.9425 13.5197 11.2785 15.8232 12.0042 18.0166H0.999604C0.447594 18.0166 0 18.4641 0 19.0162C0 19.5682 0.447594 20.0158 0.999604 20.0158H12.7949C15.2569 25.4386 20.254 30.2666 27.7753 34.4306C29.1787 35.2008 30.8785 35.2008 32.2824 34.4306C39.8075 30.2644 44.8054 25.4342 47.2662 20.0158H58.9758C59.5278 20.0158 59.9754 19.5682 59.9754 19.0162C59.9754 18.4641 59.5278 18.0166 58.9758 18.0166H58.9766ZM31.3144 32.6816C30.5138 33.1198 29.5446 33.1198 28.7436 32.6816C21.9123 28.8992 17.349 24.7138 14.9662 20.0158H18.093C18.425 20.0158 18.7499 19.9189 19.0288 19.7382C19.3073 19.5575 19.5273 19.2995 19.6625 18.9961L21.3208 15.2636L24.0086 22.8775C24.1723 23.3429 24.5289 23.7151 24.9863 23.8994C25.4441 24.0837 25.9587 24.0623 26.3996 23.8405C26.84 23.6187 27.164 23.218 27.2885 22.7405L29.9375 12.5856L32.8073 25.9803C32.9135 26.4747 33.2317 26.8968 33.678 27.1346C34.1238 27.3725 34.6521 27.402 35.1216 27.215C35.5911 27.028 35.9548 26.6438 36.115 26.1641L39.5404 15.886L41.1317 19.0686L41.1322 19.069C41.2736 19.3537 41.4923 19.5934 41.7632 19.7607C42.0341 19.9276 42.346 20.016 42.6642 20.0155H45.0962C42.7154 24.7078 38.1503 28.8968 31.3143 32.6814L31.3144 32.6816ZM45.9566 18.0166H42.8377L41.0206 14.381C40.8172 13.974 40.4597 13.6643 40.0282 13.5201C39.5962 13.376 39.1245 13.4095 38.7175 13.613C38.3101 13.8164 37.9999 14.173 37.8558 14.605L34.5419 24.547L31.643 11.0026C31.5667 10.6224 31.3619 10.2806 31.0629 10.0334C30.7644 9.78659 30.3895 9.64959 30.0017 9.64603C29.6153 9.63621 29.2364 9.75759 28.9276 9.99053C28.6192 10.2239 28.3988 10.555 28.3024 10.9295L25.5838 21.3436L22.967 13.9296H22.9666C22.8135 13.4945 22.4918 13.1398 22.0741 12.9448C21.6568 12.7493 21.178 12.7306 20.7465 12.8921C20.3145 13.0536 19.966 13.3821 19.779 13.8033L17.9065 18.0169H14.108C13.3114 15.8486 12.9379 13.5477 13.0084 11.2388C12.9991 8.80761 13.9549 6.47185 15.6654 4.74397C17.376 3.01654 19.7018 2.03784 22.1329 2.02322C24.9082 2.01875 27.5317 3.29151 29.2462 5.47362C29.4372 5.71102 29.7251 5.84847 30.0294 5.84847C30.3337 5.84847 30.6216 5.71102 30.8126 5.47362C32.5276 3.2914 35.1511 2.01922 37.9267 2.02322C40.3618 2.04017 42.6908 3.02327 44.4014 4.75653C46.1119 6.48979 47.0642 8.83126 47.049 11.2664C47.12 13.566 46.7491 15.8575 45.9566 18.0169L45.9566 18.0166Z" fill="#0CB4C4"></path><path d="M0.999581 59.9999H8.16189C8.33727 59.9999 8.50952 59.9535 8.66169 59.866L13.5 57.0671L13.583 57.2113L13.5826 57.2108C13.8753 57.7137 14.355 58.0801 14.9169 58.2301C15.4792 58.38 16.0776 58.301 16.5814 58.0105L20.4629 55.7695C20.9658 55.4772 21.3322 54.9974 21.4822 54.4351C21.6321 53.8733 21.5531 53.2749 21.2626 52.7706L21.1796 52.6265L23.3667 51.3631L34.8616 51.7331C36.1856 51.7366 37.4561 51.2118 38.3914 50.2747L48.9649 39.7467C49.6602 39.0439 50.0279 38.0809 49.9784 37.0937C49.9288 36.1062 49.467 35.1851 48.7052 34.555C48.0041 34.015 47.1294 33.7517 46.2467 33.8142C45.3645 33.8771 44.5357 34.2613 43.9181 34.8946L38.7371 40.0747C38.0918 39.2272 37.0832 38.7354 36.0181 38.7502H30.7969L27.9182 37.0227C26.5906 36.2231 21.9674 33.791 18.214 35.8821L13.1821 38.7868L13.0982 38.6418V38.6422C12.8059 38.1393 12.3257 37.7729 11.7639 37.623C11.202 37.4735 10.6032 37.552 10.0994 37.8425L6.21875 40.0819C5.71716 40.3755 5.35169 40.8552 5.20219 41.4167C5.05225 41.9785 5.13034 42.5764 5.41906 43.0807L5.50207 43.2248L0.504049 46.1138V46.1134C0.194355 46.2919 0.00380161 46.6226 0.00424714 46.98V59.0004C0.00424714 59.5506 0.44871 59.9973 0.998938 60L0.999581 59.9999ZM19.2004 37.6213C21.4294 36.3799 24.6343 37.3844 26.8893 38.7379L30.0059 40.6081C30.1617 40.7009 30.3397 40.75 30.5209 40.75H36.0138C36.8309 40.7772 37.4882 41.4323 37.5181 42.2494C37.5181 43.0777 36.8469 43.7488 36.0187 43.7488H30.5209C29.9689 43.7488 29.5213 44.1964 29.5213 44.7484C29.5213 45.3004 29.9689 45.748 30.5209 45.748H36.0187C36.9657 45.7485 37.872 45.3642 38.5297 44.6828C39.187 44.0014 39.5396 43.0816 39.5052 42.1356L45.3319 36.3098C45.8817 35.7194 46.7854 35.6311 47.4391 36.1041C47.7675 36.3732 47.967 36.7685 47.9889 37.1929C48.0108 37.6173 47.8528 38.031 47.5542 38.3331L36.9852 48.8709C36.4332 49.4269 35.6834 49.742 34.8998 49.7473L23.1491 49.3684C22.9625 49.3609 22.7782 49.4073 22.6171 49.5014L20.1802 50.904L14.1825 40.5161L19.2004 37.6213ZM7.2234 41.8077L11.1027 39.5675H11.1031C11.1977 39.526 11.3079 39.5564 11.3691 39.6394L19.5328 53.7824C19.5734 53.8765 19.5435 53.9867 19.4605 54.0474L15.5813 56.2885C15.4875 56.3389 15.3706 56.3072 15.3153 56.2166L7.15155 42.0771C7.10737 41.9816 7.13772 41.8683 7.2234 41.8071L7.2234 41.8077ZM1.99953 47.5536L6.50266 44.9547L12.5003 55.3426L7.89719 58.0013H1.99953V47.5536Z" fill="#0CB4C4"></path><path d="M42.7053 30.8218C42.5344 30.6192 42.2899 30.4924 42.0257 30.4697C41.7611 30.4474 41.4987 30.5308 41.2961 30.7022C39.4214 32.2704 37.428 33.6907 35.3333 34.9505C34.8616 35.237 34.7117 35.852 34.9986 36.3237C35.2856 36.7955 35.9005 36.9453 36.3721 36.6589C38.5547 35.3446 40.6325 33.8644 42.5875 32.2307C43.0087 31.8741 43.0619 31.2435 42.7053 30.8218Z" fill="#0CB4C4"></path><path d="M9.49565 7.52071C10.1382 5.32467 11.3382 3.33174 12.9782 1.73592C13.1772 1.5534 13.2937 1.2977 13.3012 1.02772C13.3088 0.757734 13.2066 0.496238 13.0183 0.303C12.83 0.109328 12.5716 0 12.3016 0C12.0312 0.000446223 11.7728 0.109778 11.585 0.303446C9.69645 2.13975 8.31528 4.43347 7.57626 6.96195C7.49727 7.2181 7.52405 7.49522 7.65123 7.73084C7.77797 7.96691 7.9944 8.14229 8.25188 8.21726C8.50937 8.29178 8.7856 8.26054 9.01988 8.12935C9.25372 7.9986 9.42514 7.77909 9.49565 7.52071Z" fill="#0CB4C4"></path><path d="M45.9817 29.0122C45.9817 29.5642 45.5342 30.0118 44.9821 30.0118C44.4301 30.0118 43.9825 29.5642 43.9825 29.0122C43.9825 28.4602 44.4301 28.0126 44.9821 28.0126C45.5342 28.0126 45.9817 28.4602 45.9817 29.0122Z" fill="#0CB4C4"></path><path d="M8.9964 11.0193C8.9964 11.5713 8.54881 12.0189 7.9968 12.0189C7.44479 12.0189 6.99719 11.5713 6.99719 11.0193C6.99719 10.4673 7.44479 10.0197 7.9968 10.0197C8.54881 10.0197 8.9964 10.4673 8.9964 11.0193Z" fill="#0CB4C4"></path></svg>