<svg width="62" height="62" viewBox="0 0 62 62" fill="none" xmlns="http://www.w3.org/2000/svg"><path d="M50.6922 10.4487C50.303 10.4436 49.9887 10.1293 49.9837 9.74008V6.4329C49.9812 5.369 49.5572 4.34865 48.8047 3.59607C48.0522 2.84357 47.0322 2.41964 45.9678 2.41707H16.0342C14.9699 2.41958 13.95 2.84356 13.1974 3.59607C12.4449 4.34858 12.021 5.36897 12.0184 6.4329V9.7778C12.0184 10.1695 11.7012 10.4868 11.3098 10.4868C10.9185 10.4868 10.6013 10.1695 10.6013 9.7778V6.4329C10.6038 4.99279 11.1767 3.61247 12.195 2.59418C13.2137 1.5759 14.5941 1.00257 16.0342 1H45.9678C47.4079 1.00251 48.7882 1.57589 49.8069 2.59418C50.8252 3.61246 51.3982 4.99279 51.4007 6.4329V9.7778C51.376 10.1524 51.0675 10.4449 50.6921 10.4487L50.6922 10.4487Z" fill="#0CB4C4"></path><path d="M16.0336 61C14.5935 60.9975 13.2132 60.4241 12.1945 59.4058C11.1762 58.3875 10.6032 57.0072 10.6007 55.5671V50.1338C10.6007 49.7425 10.918 49.4252 11.3093 49.4252C11.7006 49.4252 12.0179 49.7424 12.0179 50.1338V55.5952C12.0279 56.6545 12.4548 57.6673 13.2069 58.414C13.9586 59.1602 14.9744 59.5805 16.0337 59.5829H45.9673C47.0316 59.5804 48.0516 59.1564 48.8041 58.4039C49.5566 57.6514 49.9806 56.631 49.9831 55.5671V50.1338C49.9831 49.7425 50.3004 49.4252 50.6917 49.4252C51.083 49.4252 51.4003 49.7424 51.4003 50.1338V55.5952C51.3906 57.0307 50.8139 58.4039 49.7964 59.4159C48.779 60.4283 47.4024 60.9975 45.9674 61H16.0336Z" fill="#0CB4C4"></path><path d="M38.1254 50.8139H31.0009C30.6095 50.8139 30.2923 50.4967 30.2923 50.1049C30.2923 49.7136 30.6095 49.3964 31.0009 49.3964H38.1254C38.5167 49.3964 38.834 49.7136 38.834 50.1049C38.834 50.4967 38.5168 50.8139 38.1254 50.8139Z" fill="#0CB4C4"></path><path d="M58.4022 50.8139H41.5454C41.1541 50.8139 40.8369 50.4967 40.8369 50.1049C40.8369 49.7136 41.1541 49.3964 41.5454 49.3964H58.4022C59.0439 49.3968 59.5683 48.8849 59.5837 48.2437V43.7931C59.5837 43.4018 59.901 43.0845 60.2923 43.0845C60.6836 43.0845 61.0009 43.4018 61.0009 43.7931V48.2437C60.9933 48.928 60.7163 49.5817 60.2299 50.0627C59.7432 50.544 59.0866 50.8139 58.4022 50.8139Z" fill="#0CB4C4"></path><path d="M31.0004 50.8139C30.62 50.8139 30.3069 50.5138 30.2918 50.1334V16.1176C30.2918 14.2556 31.0314 12.4702 32.348 11.1535C33.6647 9.8368 35.4501 9.0973 37.3122 9.0973H58.4022C59.0915 9.0973 59.7524 9.37102 60.2399 9.85819C60.7271 10.3458 61.0008 11.0067 61.0008 11.6955V43.8212C61.0008 44.2125 60.6836 44.5298 60.2922 44.5298H37.3122C35.8269 44.5323 34.4031 45.1237 33.353 46.1738C32.3029 47.2243 31.7115 48.6477 31.709 50.133C31.6939 50.5135 31.3808 50.8136 31.0004 50.8136L31.0004 50.8139ZM37.3122 10.4478C35.8155 10.4503 34.3816 11.0505 33.3295 12.1152C32.2773 13.1799 31.6938 14.6205 31.709 16.1172V45.8815C33.0256 44.1061 35.102 43.0556 37.3122 43.0468H59.583V11.6668C59.593 11.347 59.4733 11.0369 59.2506 10.8071C59.028 10.5773 58.7216 10.4476 58.4014 10.4476L37.3122 10.4478Z" fill="#0CB4C4"></path><path d="M31.0004 50.8139L4.12789 50.8139C3.29837 50.8139 2.50275 50.4841 1.91635 49.8978C1.32958 49.3114 1.0002 48.5158 1.0002 47.6862V43.7931C1.00522 43.4038 1.31954 43.0895 1.70877 43.0845C2.09799 43.0895 2.41231 43.4038 2.41733 43.7931V47.6862C2.41733 48.1399 2.59772 48.5748 2.91831 48.8953C3.23932 49.2163 3.67417 49.3963 4.12785 49.3963H31.0004C31.3917 49.3963 31.709 49.7135 31.709 50.1049C31.709 50.4966 31.3917 50.8139 31.0004 50.8139Z" fill="#0CB4C4"></path><path d="M31.0004 50.8139C30.62 50.8139 30.3069 50.5138 30.2918 50.1334C30.3069 48.6367 29.7235 47.1962 28.6713 46.1314C27.6191 45.0666 26.1853 44.4665 24.6886 44.464H1.70857C1.33148 44.4649 1.02009 44.1698 1 43.7931V12.1967C1 11.3671 1.32938 10.5715 1.91616 9.98512C2.50252 9.39876 3.29809 9.06896 4.1277 9.06896H24.6884C26.5555 9.06896 28.3451 9.81268 29.6627 11.1352C30.9802 12.4582 31.7164 14.2511 31.7089 16.1178V50.1335C31.6938 50.514 31.3808 50.8141 31.0003 50.8141L31.0004 50.8139ZM2.41789 43.0845H24.6886C26.8989 43.0933 28.9752 44.1442 30.2919 45.9192V16.1174C30.307 14.6207 29.7235 13.1802 28.6714 12.1154C27.6192 11.0506 26.1853 10.4505 24.6886 10.448H4.12789C3.66751 10.448 3.2268 10.6334 2.90496 10.9624C2.58311 11.2913 2.40733 11.7362 2.41737 12.1962L2.41789 43.0845Z" fill="#0CB4C4"></path><path d="M26.0022 16.6942H7.33146C6.94015 16.6942 6.6229 16.377 6.6229 15.9857C6.6229 15.5943 6.94013 15.2771 7.33146 15.2771H26.0022C26.3935 15.2771 26.7108 15.5943 26.7108 15.9857C26.7108 16.377 26.3935 16.6942 26.0022 16.6942Z" fill="#0CB4C4"></path><path d="M26.0022 22.09H7.33146C6.94015 22.09 6.6229 21.7727 6.6229 21.3814C6.6229 20.9901 6.94013 20.6728 7.33146 20.6728H26.0022C26.3935 20.6728 26.7108 20.9901 26.7108 21.3814C26.7108 21.7727 26.3935 22.09 26.0022 22.09Z" fill="#0CB4C4"></path><path d="M26.0022 27.4567H7.33146C6.94015 27.4567 6.6229 27.1395 6.6229 26.7482C6.6229 26.3564 6.94013 26.0392 7.33146 26.0392H26.0022C26.3935 26.0392 26.7108 26.3564 26.7108 26.7482C26.7108 27.1395 26.3935 27.4567 26.0022 27.4567Z" fill="#0CB4C4"></path><path d="M26.0022 32.8996H7.33146C6.94015 32.8996 6.6229 32.5824 6.6229 32.191C6.6229 31.7993 6.94013 31.4821 7.33146 31.4821H26.0022C26.3935 31.4821 26.7108 31.7993 26.7108 32.191C26.7108 32.5824 26.3935 32.8996 26.0022 32.8996Z" fill="#0CB4C4"></path><path d="M26.0022 38.3039H7.33146C6.94015 38.3039 6.6229 37.9862 6.6229 37.5949C6.6229 37.2036 6.94013 36.8863 7.33146 36.8863H26.0022C26.3935 36.8863 26.7108 37.2036 26.7108 37.5949C26.7108 37.9862 26.3935 38.3039 26.0022 38.3039Z" fill="#0CB4C4"></path><path d="M54.9812 16.6942H36.3104C35.9191 16.6942 35.6019 16.377 35.6019 15.9857C35.6019 15.5943 35.9191 15.2771 36.3104 15.2771H54.9812C55.3725 15.2771 55.6897 15.5943 55.6897 15.9857C55.6897 16.377 55.3725 16.6942 54.9812 16.6942Z" fill="#0CB4C4"></path><path d="M54.9812 22.09H36.3104C35.9191 22.09 35.6019 21.7727 35.6019 21.3814C35.6019 20.9901 35.9191 20.6728 36.3104 20.6728H54.9812C55.3725 20.6728 55.6897 20.9901 55.6897 21.3814C55.6897 21.7727 55.3725 22.09 54.9812 22.09Z" fill="#0CB4C4"></path><path d="M54.9812 27.4567H36.3104C35.9191 27.4567 35.6019 27.1395 35.6019 26.7482C35.6019 26.3564 35.9191 26.0392 36.3104 26.0392H54.9812C55.3725 26.0392 55.6897 26.3564 55.6897 26.7482C55.6897 27.1395 55.3725 27.4567 54.9812 27.4567Z" fill="#0CB4C4"></path><path d="M54.9812 32.8996H36.3104C35.9191 32.8996 35.6019 32.5824 35.6019 32.191C35.6019 31.7993 35.9191 31.4821 36.3104 31.4821H54.9812C55.3725 31.4821 55.6897 31.7993 55.6897 32.191C55.6897 32.5824 55.3725 32.8996 54.9812 32.8996Z" fill="#0CB4C4"></path><path d="M54.9812 38.3039H36.3104C35.9191 38.3039 35.6019 37.9862 35.6019 37.5949C35.6019 37.2036 35.9191 36.8863 36.3104 36.8863H54.9812C55.3725 36.8863 55.6897 37.2036 55.6897 37.5949C55.6897 37.9862 55.3725 38.3039 54.9812 38.3039Z" fill="#0CB4C4"></path><path d="M41.5454 52.9686C41.4065 52.9698 41.2709 52.9271 41.1583 52.8459L39.8353 51.9767L38.5219 52.8459C38.2984 52.982 38.0176 52.982 37.7941 52.8459C37.5627 52.7237 37.4174 52.4839 37.4162 52.2223V46.8928C37.4162 46.5015 37.7334 46.1843 38.1252 46.1843H41.5458H41.5454C41.9367 46.1843 42.254 46.5015 42.254 46.8928V52.2223C42.2548 52.4818 42.1133 52.7212 41.8857 52.8459C41.784 52.9137 41.6672 52.9556 41.5454 52.9686ZM39.8353 50.4173C39.9755 50.4173 40.1132 50.4566 40.2321 50.5307L40.8369 50.9371V47.6018H38.7961V50.8994L39.4101 50.493C39.5361 50.4109 39.6851 50.3712 39.8353 50.3796L39.8353 50.4173Z" fill="#0CB4C4"></path><path d="M34.789 6.19679H27.23C26.8386 6.19679 26.5214 5.87955 26.5214 5.48822C26.5214 5.09689 26.8386 4.77965 27.23 4.77965H34.789C35.1803 4.77965 35.4976 5.09689 35.4976 5.48822C35.4976 5.87955 35.1803 6.19679 34.789 6.19679Z" fill="#0CB4C4"></path><path d="M32.749 57.22H29.2526C28.8613 57.22 28.544 56.9028 28.544 56.5114C28.544 56.1201 28.8613 55.8029 29.2526 55.8029H32.749C33.1403 55.8029 33.4576 56.1201 33.4576 56.5114C33.4576 56.9028 33.1403 57.22 32.749 57.22Z" fill="#0CB4C4"></path><path d="M31.0004 50.8139C30.62 50.8139 30.3069 50.5138 30.2918 50.1334M31.0004 50.8139L31.0004 50.8136C31.3808 50.8136 31.6939 50.5135 31.709 50.133C31.7115 48.6477 32.3029 47.2243 33.353 46.1738C34.4031 45.1237 35.8269 44.5323 37.3122 44.5298H60.2922C60.6836 44.5298 61.0008 44.2125 61.0008 43.8212V11.6955C61.0008 11.0067 60.7271 10.3458 60.2399 9.85819C59.7524 9.37102 59.0915 9.0973 58.4022 9.0973H37.3122C35.4501 9.0973 33.6647 9.8368 32.348 11.1535C31.0314 12.4702 30.2918 14.2556 30.2918 16.1176V50.1334M31.0004 50.8139L4.12789 50.8139C3.29837 50.8139 2.50275 50.4841 1.91635 49.8978C1.32958 49.3114 1.0002 48.5158 1.0002 47.6862V43.7931C1.00522 43.4038 1.31954 43.0895 1.70877 43.0845C2.09799 43.0895 2.41231 43.4038 2.41733 43.7931V47.6862C2.41733 48.1399 2.59772 48.5748 2.91831 48.8953C3.23932 49.2163 3.67417 49.3963 4.12785 49.3963H31.0004C31.3917 49.3963 31.709 49.7135 31.709 50.1049C31.709 50.4966 31.3917 50.8139 31.0004 50.8139ZM31.0004 50.8139L31.0003 50.8141C31.3808 50.8141 31.6938 50.514 31.7089 50.1335V16.1178C31.7164 14.2511 30.9802 12.4582 29.6627 11.1352C28.3451 9.81268 26.5555 9.06896 24.6884 9.06896H4.1277C3.29809 9.06896 2.50252 9.39876 1.91616 9.98512C1.32938 10.5715 1 11.3671 1 12.1967V43.7931C1.02009 44.1698 1.33148 44.4649 1.70857 44.464H24.6886C26.1853 44.4665 27.6191 45.0666 28.6713 46.1314C29.7235 47.1962 30.3069 48.6367 30.2918 50.1334M50.6922 10.4487C50.303 10.4436 49.9887 10.1293 49.9837 9.74008V6.4329C49.9812 5.369 49.5572 4.34865 48.8047 3.59607C48.0522 2.84357 47.0322 2.41964 45.9678 2.41707H16.0342C14.9699 2.41958 13.95 2.84356 13.1974 3.59607C12.4449 4.34858 12.021 5.36897 12.0184 6.4329V9.7778C12.0184 10.1695 11.7012 10.4868 11.3098 10.4868C10.9185 10.4868 10.6013 10.1695 10.6013 9.7778V6.4329C10.6038 4.99279 11.1767 3.61247 12.195 2.59418C13.2137 1.5759 14.5941 1.00257 16.0342 1H45.9678C47.4079 1.00251 48.7882 1.57589 49.8069 2.59418C50.8252 3.61246 51.3982 4.99279 51.4007 6.4329V9.7778C51.376 10.1524 51.0675 10.4449 50.6921 10.4487L50.6922 10.4487ZM16.0336 61C14.5935 60.9975 13.2132 60.4241 12.1945 59.4058C11.1762 58.3875 10.6032 57.0072 10.6007 55.5671V50.1338C10.6007 49.7425 10.918 49.4252 11.3093 49.4252C11.7006 49.4252 12.0179 49.7424 12.0179 50.1338V55.5952C12.0279 56.6545 12.4548 57.6673 13.2069 58.414C13.9586 59.1602 14.9744 59.5805 16.0337 59.5829H45.9673C47.0316 59.5804 48.0516 59.1564 48.8041 58.4039C49.5566 57.6514 49.9806 56.631 49.9831 55.5671V50.1338C49.9831 49.7425 50.3004 49.4252 50.6917 49.4252C51.083 49.4252 51.4003 49.7424 51.4003 50.1338V55.5952C51.3906 57.0307 50.8139 58.4039 49.7964 59.4159C48.779 60.4283 47.4024 60.9975 45.9674 61H16.0336ZM38.1254 50.8139H31.0009C30.6095 50.8139 30.2923 50.4967 30.2923 50.1049C30.2923 49.7136 30.6095 49.3964 31.0009 49.3964H38.1254C38.5167 49.3964 38.834 49.7136 38.834 50.1049C38.834 50.4967 38.5168 50.8139 38.1254 50.8139ZM58.4022 50.8139H41.5454C41.1541 50.8139 40.8369 50.4967 40.8369 50.1049C40.8369 49.7136 41.1541 49.3964 41.5454 49.3964H58.4022C59.0439 49.3968 59.5683 48.8849 59.5837 48.2437V43.7931C59.5837 43.4018 59.901 43.0845 60.2923 43.0845C60.6836 43.0845 61.0009 43.4018 61.0009 43.7931V48.2437C60.9933 48.928 60.7163 49.5817 60.2299 50.0627C59.7432 50.544 59.0866 50.8139 58.4022 50.8139ZM37.3122 10.4478C35.8155 10.4503 34.3816 11.0505 33.3295 12.1152C32.2773 13.1799 31.6938 14.6205 31.709 16.1172V45.8815C33.0256 44.1061 35.102 43.0556 37.3122 43.0468H59.583V11.6668C59.593 11.347 59.4733 11.0369 59.2506 10.8071C59.028 10.5773 58.7216 10.4476 58.4014 10.4476L37.3122 10.4478ZM2.41789 43.0845H24.6886C26.8989 43.0933 28.9752 44.1442 30.2919 45.9192V16.1174C30.307 14.6207 29.7235 13.1802 28.6714 12.1154C27.6192 11.0506 26.1853 10.4505 24.6886 10.448H4.12789C3.66751 10.448 3.2268 10.6334 2.90496 10.9624C2.58311 11.2913 2.40733 11.7362 2.41737 12.1962L2.41789 43.0845ZM26.0022 16.6942H7.33146C6.94015 16.6942 6.6229 16.377 6.6229 15.9857C6.6229 15.5943 6.94013 15.2771 7.33146 15.2771H26.0022C26.3935 15.2771 26.7108 15.5943 26.7108 15.9857C26.7108 16.377 26.3935 16.6942 26.0022 16.6942ZM26.0022 22.09H7.33146C6.94015 22.09 6.6229 21.7727 6.6229 21.3814C6.6229 20.9901 6.94013 20.6728 7.33146 20.6728H26.0022C26.3935 20.6728 26.7108 20.9901 26.7108 21.3814C26.7108 21.7727 26.3935 22.09 26.0022 22.09ZM26.0022 27.4567H7.33146C6.94015 27.4567 6.6229 27.1395 6.6229 26.7482C6.6229 26.3564 6.94013 26.0392 7.33146 26.0392H26.0022C26.3935 26.0392 26.7108 26.3564 26.7108 26.7482C26.7108 27.1395 26.3935 27.4567 26.0022 27.4567ZM26.0022 32.8996H7.33146C6.94015 32.8996 6.6229 32.5824 6.6229 32.191C6.6229 31.7993 6.94013 31.4821 7.33146 31.4821H26.0022C26.3935 31.4821 26.7108 31.7993 26.7108 32.191C26.7108 32.5824 26.3935 32.8996 26.0022 32.8996ZM26.0022 38.3039H7.33146C6.94015 38.3039 6.6229 37.9862 6.6229 37.5949C6.6229 37.2036 6.94013 36.8863 7.33146 36.8863H26.0022C26.3935 36.8863 26.7108 37.2036 26.7108 37.5949C26.7108 37.9862 26.3935 38.3039 26.0022 38.3039ZM54.9812 16.6942H36.3104C35.9191 16.6942 35.6019 16.377 35.6019 15.9857C35.6019 15.5943 35.9191 15.2771 36.3104 15.2771H54.9812C55.3725 15.2771 55.6897 15.5943 55.6897 15.9857C55.6897 16.377 55.3725 16.6942 54.9812 16.6942ZM54.9812 22.09H36.3104C35.9191 22.09 35.6019 21.7727 35.6019 21.3814C35.6019 20.9901 35.9191 20.6728 36.3104 20.6728H54.9812C55.3725 20.6728 55.6897 20.9901 55.6897 21.3814C55.6897 21.7727 55.3725 22.09 54.9812 22.09ZM54.9812 27.4567H36.3104C35.9191 27.4567 35.6019 27.1395 35.6019 26.7482C35.6019 26.3564 35.9191 26.0392 36.3104 26.0392H54.9812C55.3725 26.0392 55.6897 26.3564 55.6897 26.7482C55.6897 27.1395 55.3725 27.4567 54.9812 27.4567ZM54.9812 32.8996H36.3104C35.9191 32.8996 35.6019 32.5824 35.6019 32.191C35.6019 31.7993 35.9191 31.4821 36.3104 31.4821H54.9812C55.3725 31.4821 55.6897 31.7993 55.6897 32.191C55.6897 32.5824 55.3725 32.8996 54.9812 32.8996ZM54.9812 38.3039H36.3104C35.9191 38.3039 35.6019 37.9862 35.6019 37.5949C35.6019 37.2036 35.9191 36.8863 36.3104 36.8863H54.9812C55.3725 36.8863 55.6897 37.2036 55.6897 37.5949C55.6897 37.9862 55.3725 38.3039 54.9812 38.3039ZM41.5454 52.9686C41.4065 52.9698 41.2709 52.9271 41.1583 52.8459L39.8353 51.9767L38.5219 52.8459C38.2984 52.982 38.0176 52.982 37.7941 52.8459C37.5627 52.7237 37.4174 52.4839 37.4162 52.2223V46.8928C37.4162 46.5015 37.7334 46.1843 38.1252 46.1843H41.5458H41.5454C41.9367 46.1843 42.254 46.5015 42.254 46.8928V52.2223C42.2548 52.4818 42.1133 52.7212 41.8857 52.8459C41.784 52.9137 41.6672 52.9556 41.5454 52.9686ZM39.8353 50.4173C39.9755 50.4173 40.1132 50.4566 40.2321 50.5307L40.8369 50.9371V47.6018H38.7961V50.8994L39.4101 50.493C39.5361 50.4109 39.6851 50.3712 39.8353 50.3796L39.8353 50.4173ZM34.789 6.19679H27.23C26.8386 6.19679 26.5214 5.87955 26.5214 5.48822C26.5214 5.09689 26.8386 4.77965 27.23 4.77965H34.789C35.1803 4.77965 35.4976 5.09689 35.4976 5.48822C35.4976 5.87955 35.1803 6.19679 34.789 6.19679ZM32.749 57.22H29.2526C28.8613 57.22 28.544 56.9028 28.544 56.5114C28.544 56.1201 28.8613 55.8029 29.2526 55.8029H32.749C33.1403 55.8029 33.4576 56.1201 33.4576 56.5114C33.4576 56.9028 33.1403 57.22 32.749 57.22Z" stroke="#0CB4C4" stroke-width="0.3"></path></svg>