<svg width="68" height="62" viewBox="0 0 68 62" fill="none" xmlns="http://www.w3.org/2000/svg"><path d="M10.4374 1.00086C10.2236 1.02825 10.0372 1.16096 9.94239 1.35476L5.31797 10.5799H1.63675C1.59778 10.5762 1.55829 10.5767 1.51879 10.5804C1.21492 10.6394 0.996365 10.9074 1.00005 11.2171V19.4042C1.00268 19.755 1.28601 20.0388 1.63675 20.0415H5.15201L8.50252 60.4102C8.52938 60.7425 8.80639 60.9984 9.13976 61H36.4607C36.7941 60.9984 37.0706 60.7425 37.0974 60.4102L37.3097 57.9092H63.2393C64.3232 57.9165 65.2685 57.1645 65.9526 56.1397C66.6372 55.1148 67.1027 53.7435 67.1085 52.223C67.1064 51.8823 66.7883 51.5758 66.4481 51.5858H37.8302L37.9719 50.076H66.5898C66.9495 50.1207 67.3213 49.8011 67.3213 49.4387C67.3213 49.0764 66.9495 48.7578 66.5898 48.8015H38.0662L38.2079 47.1263C38.7914 47.3764 39.4223 47.5744 40.1191 47.5744C41.2492 47.5744 42.185 47.0667 43.0445 46.6307C43.904 46.1946 44.675 45.8286 45.4038 45.8286C46.1327 45.8286 46.9037 46.1946 47.7632 46.6307C48.6226 47.0667 49.5821 47.5744 50.7123 47.5744C51.8425 47.5744 52.7783 47.0667 53.6377 46.6307C54.4972 46.1946 55.2682 45.8286 55.9971 45.8286C56.7259 45.8286 57.4969 46.1946 58.3564 46.6307C59.2159 47.0667 60.1754 47.5744 61.3056 47.5744C62.4357 47.5744 63.7707 47.102 64.892 46.6544C66.0133 46.2068 66.8974 45.7581 66.8974 45.7581C67.2023 45.6053 67.3356 45.1893 67.1807 44.8849C67.0254 44.581 66.6109 44.4446 66.3076 44.6016C66.3076 44.6016 65.4597 45.0266 64.3964 45.451C63.3337 45.8755 62.0344 46.2768 61.3056 46.2768C60.5767 46.2768 59.8057 45.9108 58.9462 45.4747C58.0868 45.0387 57.1273 44.531 55.9971 44.531C54.8669 44.531 53.9311 45.0387 53.0716 45.4747C52.2122 45.9108 51.4411 46.2768 50.7123 46.2768C49.9835 46.2768 49.2125 45.9108 48.353 45.4747C47.4935 45.0387 46.534 44.531 45.4038 44.531C44.2736 44.531 43.3379 45.0387 42.4784 45.4747C41.6189 45.9108 40.8479 46.2768 40.1191 46.2768C39.5535 46.2768 38.9642 46.0603 38.3259 45.7575L38.4675 44.0355H66.5907C66.9314 44.0455 67.249 43.7395 67.2511 43.3983C67.2511 31.3304 57.4552 21.5266 45.4037 21.5266C43.6458 21.5266 41.9454 21.7462 40.3074 22.1402L40.4728 20.0405H43.9644C44.3151 20.0379 44.5989 19.7551 44.6016 19.4043V11.2172C44.5989 10.8665 44.3151 10.5831 43.9644 10.5805H40.2599L36.3196 4.25777C36.2037 4.06872 35.9994 3.95233 35.7777 3.95075H18.5304L17.9642 1.52091C17.9068 1.22547 17.6514 1.00955 17.3502 1.00165H10.5081C10.485 1.00007 10.4611 0.999283 10.4374 1.00086ZM10.9093 2.29849H16.8313L17.3975 4.72833C17.457 5.03219 17.725 5.25128 18.0347 5.24812H35.4222L38.7253 10.5803H6.78004L10.9093 2.29849ZM2.27349 11.8538H5.64759C5.71026 11.8632 5.77399 11.8632 5.83665 11.8538H39.788C39.8354 11.859 39.8823 11.859 39.9291 11.8538H43.3264V18.7663H2.27419L2.27349 11.8538ZM6.42603 20.0409H39.1735L37.8521 35.8241H32.0254C31.3914 34.6018 30.5071 33.4338 29.3359 32.5448C27.5017 31.1529 24.9875 30.3166 22.824 30.3739C22.8093 30.3744 22.7914 30.3734 22.7767 30.3739C20.6132 30.3165 18.0991 31.1523 16.2648 32.5448C15.0935 33.4337 14.2093 34.6024 13.5753 35.8241H7.79494C7.77914 35.8309 7.76334 35.8388 7.74807 35.8473L6.42603 20.0409ZM45.4021 22.8246C56.5404 22.8246 65.5372 31.6879 65.881 42.7616H38.5843L40.1884 23.4866C41.8499 23.051 43.6009 22.8246 45.4021 22.8246ZM22.7755 31.6478C22.7913 31.6483 22.8071 31.6489 22.8229 31.6483C24.6129 31.5904 26.9738 32.3588 28.5558 33.5595C29.6664 34.4022 30.559 35.5671 31.1036 36.7446C31.2047 36.9684 31.4248 37.1148 31.6702 37.1222H37.757L37.2851 42.6666C37.2388 42.654 37.1919 42.6456 37.144 42.6429H31.6701C31.4247 42.6503 31.2051 42.7967 31.104 43.0205C30.878 43.5124 30.234 44.3867 29.8063 44.9317C28.1101 47.0919 25.6059 48.2301 22.8226 48.1168C22.8068 48.1163 22.7915 48.1163 22.7757 48.1168C19.9924 48.23 17.4883 47.092 15.792 44.9317C15.3638 44.3867 14.744 43.5125 14.5181 43.0205C14.4133 42.7888 14.1821 42.6408 13.9282 42.6429H8.45434C8.43907 42.6424 8.42327 42.6424 8.40747 42.6429C8.37587 42.6482 8.34428 42.6561 8.3132 42.6661L7.84134 37.1217H13.9281C14.1825 37.1233 14.4137 36.9758 14.518 36.7446C15.0625 35.5671 15.9319 34.4022 17.0427 33.5595C18.6252 32.3588 20.986 31.59 22.7755 31.6478ZM8.43079 43.9395C8.43869 43.94 8.44659 43.9405 8.45449 43.94H13.5975C13.9557 44.5757 14.4054 45.2592 14.7772 45.7332C16.7121 48.1973 19.6307 49.5034 22.7757 49.3902C22.7915 49.3897 22.8068 49.3907 22.8231 49.3902C25.9676 49.5034 28.8863 48.1974 30.8216 45.7332C31.194 45.2593 31.6432 44.5757 32.0013 43.94H37.1444C37.1602 43.9405 37.1754 43.9405 37.1912 43.94L35.8699 59.7232H9.75284L8.43079 43.9395ZM37.7336 52.8817H65.7152C65.603 53.8729 65.3229 54.7813 64.8894 55.4295C64.3586 56.2242 63.7198 56.6108 63.2616 56.6092H37.404L37.7336 52.8817Z" fill="#0CB4C4" stroke="#0CB4C4" stroke-width="0.5"></path></svg>