<svg width="60" height="60" viewBox="0 0 60 60" fill="none" xmlns="http://www.w3.org/2000/svg"><path d="M12.7083 49.9241H12.6175C14.1606 48.9257 15.2499 47.2009 15.2499 45.204C15.2499 42.1177 12.7083 39.5761 9.62205 39.5761C6.53582 39.5761 3.99421 42.1177 3.99421 45.204C3.99421 47.2009 5.08351 48.9257 6.62665 49.9241H6.3541C2.81409 49.9241 0 52.8287 0 56.2782V59.0923C0 59.637 0.362963 59.9999 0.907616 59.9999H18.1541C18.6988 59.9999 19.0617 59.637 19.0617 59.0923V56.2782C19.0622 52.829 16.2484 49.9241 12.7083 49.9241ZM9.62207 41.4826C11.7098 41.4826 13.4347 43.2074 13.4347 45.2952C13.4347 47.383 11.7099 49.1078 9.62207 49.1078C7.53424 49.1078 5.80948 47.3831 5.80948 45.2952C5.80948 43.1166 7.53424 41.4826 9.62207 41.4826ZM17.2468 58.1846H1.81568V56.2786C1.81568 53.7369 3.90341 51.74 6.3542 51.74H12.7083C15.2499 51.74 17.2468 53.8278 17.2468 56.2786V58.1846Z" fill="#0CB4C4"></path><path d="M8.98716 37.3984C9.16885 37.5801 9.35012 37.6706 9.62266 37.6706C9.89478 37.6706 10.0765 37.5797 10.2582 37.3984L13.7073 33.9493C14.0703 33.5863 14.0703 33.0416 13.7073 32.6783C13.3444 32.3153 12.7997 32.3153 12.4364 32.6783L10.5303 34.5844V20.0604H15.9764V23.873C15.9764 24.4176 16.3393 24.7806 16.884 24.7806H38.2153C38.76 24.7806 39.1229 24.4176 39.1229 23.873V19.1528C39.1229 15.6128 36.2184 12.7987 32.7689 12.7987H30.4994C32.7688 11.7094 34.312 9.44033 34.312 6.71706C34.312 2.99529 31.3166 0 27.5949 0C23.8736 0.0908475 20.8782 3.08623 20.8782 6.808C20.8782 9.44044 22.4213 11.8003 24.6908 12.8896H22.2401C19.063 12.8896 16.3398 15.2495 15.886 18.3357H9.44139C8.89674 18.3357 8.53377 18.6987 8.53377 19.2433V34.6745L6.6277 32.7684C6.26473 32.4054 5.72008 32.4054 5.35672 32.7684C4.99376 33.1313 4.99376 33.676 5.35672 34.0394L8.98716 37.3984ZM22.6933 6.80844C22.6933 4.08517 24.872 1.90696 27.5948 1.90696C30.3181 1.90696 32.4963 4.08561 32.4963 6.80844C32.4963 9.5317 30.3176 11.7099 27.5948 11.7099C24.872 11.6195 22.6933 9.44088 22.6933 6.80844ZM22.3303 14.6148H32.6784C35.22 14.6148 37.2169 16.7025 37.2169 19.1533V22.9659H17.7924V19.1533C17.7924 16.7027 19.7887 14.6148 22.3303 14.6148Z" fill="#0CB4C4"></path><path d="M30.7716 40.1209C30.2269 40.1209 29.864 40.4839 29.864 41.0285V54.4625C29.864 55.0071 30.2269 55.3701 30.7716 55.3701H35.673C36.2177 55.3701 36.5807 55.0071 36.5807 54.4625L36.5811 41.0285C36.5811 40.4839 36.2181 40.1209 35.6735 40.1209H30.7716ZM34.675 53.5548H31.5888V41.9363H34.675V53.5548Z" fill="#0CB4C4"></path><path d="M45.3859 32.8595H40.0302C39.4855 32.8595 39.1226 33.2224 39.1226 33.7671V54.4635C39.1226 55.0082 39.4855 55.3711 40.0302 55.3711H45.3859C45.9305 55.3711 46.2935 55.0082 46.2935 54.4635V33.7671C46.2935 33.3133 45.9305 32.8595 45.3859 32.8595ZM44.4783 53.5548H40.9383V34.6748H44.4783V53.5548Z" fill="#0CB4C4"></path><path d="M49.9249 55.3713H55.2806C55.8252 55.3713 56.1882 55.0084 56.1882 54.4637V26.0517C56.1882 25.507 55.8252 25.1441 55.2806 25.1441H49.9249C49.3802 25.1441 49.0173 25.507 49.0173 26.0517V54.4637C49.0173 55.0079 49.3802 55.3713 49.9249 55.3713ZM50.8325 26.9593H54.3725V53.5548H50.8325V26.9593Z" fill="#0CB4C4"></path><path d="M59.0017 58.1841H25.1436V39.6668C25.1436 39.1221 24.7806 38.7592 24.236 38.7592C23.6913 38.7592 23.3283 39.1221 23.3283 39.6668V59.0924C23.3283 59.637 23.6913 60 24.236 60H59.0012C59.5458 60 59.9088 59.637 59.9088 59.0924C59.9088 58.5477 59.5459 58.1841 59.0017 58.1841Z" fill="#0CB4C4"></path><path d="M40.9385 25.598L42.9354 26.0518L30.6808 34.0396C30.227 34.3117 30.1362 34.8563 30.4087 35.3105C30.6808 35.7643 31.2255 35.8552 31.6797 35.5826L43.9342 27.5949L43.4804 29.5918C43.3896 30.0456 43.6621 30.5903 44.2068 30.6811C44.6606 30.772 45.2052 30.4995 45.2961 29.9548L46.2037 25.8701C46.2945 25.598 46.2037 25.4163 46.1128 25.2346C46.022 25.0529 45.7499 24.8716 45.5682 24.8716L41.4835 23.964C41.0296 23.8731 40.485 24.1457 40.3941 24.6903C40.1212 25.0533 40.4847 25.5072 40.9385 25.598Z" fill="#0CB4C4"></path></svg>