<svg width="60" height="60" viewBox="0 0 60 60" fill="none" xmlns="http://www.w3.org/2000/svg"><path d="M57.3628 0H22C20.5455 0 19.3636 1.18192 19.3636 2.6364V20.8184L17.7272 22.1819L12.0909 22.3639C14.0908 21.3639 15.4543 19.273 15.4543 16.9096C15.4543 13.5462 12.727 10.8188 9.36355 10.8188C6.00014 10.8188 3.27278 13.5462 3.27278 16.9096C3.27278 19.455 4.81822 21.6369 7.00014 22.5459L5.81822 22.6369C3.63629 22.8184 0 23.9093 0 27.1818V40.7275C0 41.273 0.363507 41.6365 0.908979 41.6365H2.54537V59.091C2.54537 59.6365 2.90888 60 3.45435 60H7.27267C7.72716 60 8.09067 59.6365 8.18165 59.182L9.36357 49.5459L10.909 59.182C11 59.6365 11.3635 59.9094 11.818 59.9094H15.8178C16.0903 59.9094 16.2723 59.8185 16.4542 59.6369C16.6362 59.4549 16.7268 59.2734 16.7268 59.0005L16.5448 30.0004C16.5448 29.9094 16.6358 29.364 16.9083 29.1824C17.1808 29.0005 17.7263 29.0914 18.3628 29.3644C18.7263 29.5464 19.0902 29.4554 19.3627 29.1824L20.8172 27.9096C21.1807 28.0915 21.5446 28.1821 21.9991 28.1821H30.8173L24.363 39.182H23.363C22.8175 39.182 22.454 39.5455 22.454 40.091C22.454 40.6365 22.8175 41 23.363 41H26.7264C27.2719 41 27.6354 40.6365 27.6354 40.091C27.6354 39.5455 27.2719 39.182 26.7264 39.182H26.4539L32.9082 28.1821H38.6354V36.0002H37.8174C37.272 36.0002 36.9085 36.3637 36.9085 36.9092C36.9085 37.4546 37.272 37.8182 37.8174 37.8182H41.1809C41.7263 37.8182 42.0898 37.4546 42.0898 36.9092C42.0898 36.3637 41.7263 36.0002 41.1809 36.0002H40.3629V28.1821H46.3627L52.8169 39.182H52.4534C51.908 39.182 51.5445 39.5455 51.5445 40.091C51.5445 40.6365 51.908 41 52.4534 41H55.8169C56.3623 41 56.7258 40.6365 56.7258 40.091C56.7258 39.5455 56.3623 39.182 55.8169 39.182H54.9079L48.4536 28.1821H57.2717C58.7262 28.1821 59.9081 27.0002 59.9081 25.5457L59.9085 2.63686C59.9995 1.18239 58.8173 0 57.3628 0ZM5.00024 16.9997C5.00024 14.6363 6.90918 12.727 9.27303 12.727C11.6364 12.727 13.5458 14.6359 13.5458 16.9997C13.5458 19.3632 11.6369 21.2725 9.27303 21.2725C6.90918 21.2725 5.00024 19.3636 5.00024 16.9997ZM18.6365 27.5452C17.6365 27.1817 16.7275 27.2727 16.0001 27.6362C14.8182 28.3636 14.8182 29.8181 14.8182 29.9996L15.0001 58.1806H12.7272L10.2729 43.0894C10.1819 42.6349 9.81837 42.362 9.36388 42.362C8.90939 42.362 8.54589 42.7255 8.4549 43.18L6.54596 58.1806H4.36403V41.6357H4.72754C5.27301 41.6357 5.63652 41.2721 5.63652 40.7267V33.454C5.63652 32.9085 5.27301 32.545 4.72754 32.545C4.18207 32.545 3.81856 32.9085 3.81856 33.454V39.8176H1.81866V27.1815C1.81866 24.8181 5.81846 24.5451 5.90953 24.5451L18.0003 24.0906C18.1823 24.0906 18.4548 23.9996 18.5458 23.9087L26.182 17.7269L28 19.6359C24.7272 22.2727 21.9093 24.7269 18.6365 27.5452ZM29.9093 18.9091L28.9093 17.9092L32.5456 14.6364C32.9091 14.2729 32.9091 13.7274 32.6366 13.3635C32.2731 13 31.7276 13 31.3637 13.2725L27.7274 16.5453L26.9094 15.7273C26.6369 15.4548 26.182 15.3638 25.8185 15.5453V5.45478H53.5458V22.9998H26.7281L29.9099 20.2725C30.0919 20.0905 30.1824 19.909 30.1824 19.636C30.1829 19.2725 30.0913 19.0907 29.9093 18.9091ZM58.1819 25.636C58.1819 26.0904 57.8184 26.4539 57.3639 26.4539H22.6369L24.7278 24.636H54.4551C55.0005 24.636 55.3641 24.2725 55.3641 23.727V4.54487C55.3641 3.9994 55.0005 3.63589 54.4551 3.63589H24.9097C24.3643 3.63589 24.0008 3.9994 24.0008 4.54487V16.9988L21.1824 19.3622V2.63516C21.1824 2.18067 21.5459 1.81716 22.0004 1.81716H57.3632C57.8182 1.81716 58.1817 2.18067 58.1817 2.63516L58.1819 25.636Z" fill="#0CB4C4"></path><path d="M52.0907 50.7272C53.3636 49.8182 54.2726 48.2728 54.2726 46.5454C54.2726 43.7271 51.9997 41.3637 49.0909 41.3637C46.2726 41.3637 43.9092 43.6365 43.9092 46.5454C43.9092 48.2727 44.7272 49.8182 46.0911 50.7272C42.9093 50.7272 40.2729 53.3636 40.2729 56.6364V59.0908C40.2729 59.6362 40.6364 59.9997 41.1818 59.9997H56.8183C57.3638 59.9997 57.7273 59.6362 57.7273 59.0908V56.5453C57.7273 53.454 55.1815 50.8182 52.0907 50.7272ZM49.0908 43.2726C50.9087 43.2726 52.4542 44.7271 52.4542 46.636C52.4542 48.454 50.9997 49.9088 49.0908 49.9088C47.2728 49.9088 45.7274 48.4543 45.7274 46.636C45.7269 44.7271 47.2723 43.2726 49.0908 43.2726ZM42.0906 58.1816V56.5452C42.0906 54.2723 43.9086 52.4543 46.1815 52.4543H51.9088C54.1816 52.4543 55.9996 54.2723 55.9996 56.5452V58.1816H42.0906Z" fill="#0CB4C4"></path><path d="M33.3633 50.7272C34.6362 49.8182 35.5453 48.2728 35.5453 46.5454C35.5453 43.7271 33.2724 41.3637 30.3635 41.3637C27.5452 41.3637 25.1818 43.6365 25.1818 46.5454C25.1818 48.2727 25.9998 49.8182 27.3637 50.7272C24.1819 50.7272 21.5455 53.3636 21.5455 56.6364V59.0908C21.5455 59.6362 21.909 59.9997 22.4545 59.9997H38.091C38.6364 59.9997 38.9999 59.6362 38.9999 59.0908V56.5453C39.0004 53.454 36.4542 50.8182 33.3633 50.7272ZM30.3634 43.2726C32.1814 43.2726 33.7268 44.7271 33.7268 46.636C33.7268 48.454 32.2724 49.9088 30.3634 49.9088C28.5455 49.9088 27 48.4543 27 46.636C27 44.7271 28.5455 43.2726 30.3634 43.2726ZM23.3633 58.1816V56.5452C23.3633 54.2723 25.1813 52.4543 27.4542 52.4543H33.1814C35.4543 52.4543 37.2723 54.2723 37.2723 56.5452V58.1816H23.3633Z" fill="#0CB4C4"></path><path d="M35.8184 15.0906H38.0913V20.7269C38.0913 21.2724 38.4548 21.6359 39.0003 21.6359H44.2731C44.8185 21.6359 45.1821 21.2724 45.1821 20.7269V15.0906H47.4549C47.8185 15.0906 48.0914 14.9087 48.2729 14.5452C48.4549 14.1817 48.3639 13.8177 48.182 13.5452L42.3637 6.45454C42.1818 6.27258 41.9092 6.09103 41.6363 6.09103C41.3638 6.09103 41.0908 6.18202 40.9089 6.45454L35.0911 13.6363C34.9091 13.9088 34.8186 14.2727 35.0001 14.6362C35.0911 14.9088 35.4545 15.0906 35.8184 15.0906ZM41.6362 8.5454L45.545 13.2727H44.2721C43.7267 13.2727 43.3632 13.6362 43.3632 14.1816V19.8179H39.9088V14.1816C39.9088 13.6362 39.5453 13.2727 38.9998 13.2727H37.7269L41.6362 8.5454Z" fill="#0CB4C4"></path></svg>