<svg xmlns="http://www.w3.org/2000/svg" id="Layer_1" data-name="Layer 1" width="60" height="60" viewBox="0 0 60 60"><defs><style> .cls-1 { fill: #0cb4c4; } </style></defs><path class="cls-1" d="M34.28,30a1.08,1.08,0,0,0-.76.31,1.11,1.11,0,0,0-.31.77v9.19l-5.05,5a1.07,1.07,0,0,0,.76,1.84h4.29V58.93a1,1,0,0,0,.32.76,1.06,1.06,0,0,0,.75.31h6.43a1.07,1.07,0,0,0,1.07-1.07v-7.5h4.29v7.5A1.07,1.07,0,0,0,47.14,60h6.43a1.06,1.06,0,0,0,1.06-1.07V47.15h4.29a1.07,1.07,0,0,0,.76-1.84l-15-15h0a1.11,1.11,0,0,0-.76-.32,1.07,1.07,0,0,0-.76.32l-3.53,3.52V31.08A1.08,1.08,0,0,0,38.57,30Zm1.07,2.14H37.5v4.29a1.08,1.08,0,0,0,.66,1,1,1,0,0,0,1.16-.23l4.61-4.6L56.34,45H53.57a1.08,1.08,0,0,0-1.07,1.07V57.86H48.21v-7.5h0a1.07,1.07,0,0,0-.31-.76,1.05,1.05,0,0,0-.76-.32H40.71a1.05,1.05,0,0,0-.76.32,1.07,1.07,0,0,0-.31.76v7.5H35.35V46.07A1.08,1.08,0,0,0,34.28,45H31.51L35,41.48a1.08,1.08,0,0,0,.31-.76Z"></path><path class="cls-1" d="M5.35,0A5.36,5.36,0,0,0,0,5.36v6.42a5.33,5.33,0,0,0,2.18,4.29A5.33,5.33,0,0,0,0,20.35v6.43a5.33,5.33,0,0,0,2.18,4.29A5.36,5.36,0,0,0,0,35.36v6.42a5.37,5.37,0,0,0,5.35,5.36h19.3a1.07,1.07,0,0,0,0-2.14H5.35a3.19,3.19,0,0,1-3.21-3.22V35.36a3.19,3.19,0,0,1,3.21-3.22H30A1.07,1.07,0,1,0,30,30H5.35a3.19,3.19,0,0,1-3.21-3.22V20.35a3.19,3.19,0,0,1,3.2-3.21H39.66a3.19,3.19,0,0,1,3.2,3.21V26.8a1.07,1.07,0,0,0,2.14,0V20.35a5.33,5.33,0,0,0-2.18-4.28A5.33,5.33,0,0,0,45,11.78V5.36A5.37,5.37,0,0,0,39.65,0Zm0,2.14H39.64a3.18,3.18,0,0,1,3.21,3.22v6.42A3.18,3.18,0,0,1,39.67,15H5.33a3.19,3.19,0,0,1-3.19-3.22V5.36A3.19,3.19,0,0,1,5.35,2.14Z"></path><path class="cls-1" d="M8.57,6.43a2.15,2.15,0,0,0-1.52,3.66,2.17,2.17,0,0,0,1.52.62,2.13,2.13,0,0,0,2.14-2.14A2.15,2.15,0,0,0,8.57,6.43Zm6.43,0a2.15,2.15,0,0,0-2.15,2.14A2.13,2.13,0,0,0,15,10.71a2.13,2.13,0,0,0,1.51-.62,2.16,2.16,0,0,0,.63-1.52,2.13,2.13,0,0,0-.63-1.51A2.09,2.09,0,0,0,15,6.43Zm6.43,0a2.15,2.15,0,0,0-2.15,2.14,2.15,2.15,0,1,0,4.29,0,2.13,2.13,0,0,0-.63-1.51A2.11,2.11,0,0,0,21.43,6.43Z"></path><path class="cls-1" d="M8.57,21.42a2.18,2.18,0,0,0-1.52.63,2.15,2.15,0,0,0-.62,1.52,2.13,2.13,0,0,0,.62,1.51,2.18,2.18,0,0,0,1.52.63,2.13,2.13,0,0,0,1.51-.63,2.09,2.09,0,0,0,.63-1.51,2.15,2.15,0,0,0-2.14-2.15Zm6.43,0a2.15,2.15,0,0,0-2.15,2.15,2.13,2.13,0,0,0,.63,1.51,2.16,2.16,0,0,0,1.52.63,2.15,2.15,0,0,0,2.14-2.14,2.16,2.16,0,0,0-.63-1.52A2.13,2.13,0,0,0,15,21.42Zm6.43,0a2.15,2.15,0,0,0-2.15,2.15,2.13,2.13,0,0,0,.63,1.51,2.14,2.14,0,0,0,3,0,2.13,2.13,0,0,0,.63-1.51,2.15,2.15,0,0,0-2.14-2.15Z"></path><path class="cls-1" d="M8.57,36.43a2.15,2.15,0,0,0-1.52,3.66,2.17,2.17,0,0,0,1.52.62,2.13,2.13,0,0,0,2.14-2.14,2.15,2.15,0,0,0-2.14-2.14Zm6.43,0a2.15,2.15,0,0,0-2.15,2.14A2.13,2.13,0,0,0,15,40.71a2.13,2.13,0,0,0,1.51-.62,2.16,2.16,0,0,0,.63-1.52,2.13,2.13,0,0,0-.63-1.51A2.09,2.09,0,0,0,15,36.43Zm6.43,0a2.15,2.15,0,0,0-2.15,2.14,2.15,2.15,0,1,0,4.29,0,2.13,2.13,0,0,0-.63-1.51A2.11,2.11,0,0,0,21.43,36.43Z"></path></svg>