<svg xmlns="http://www.w3.org/2000/svg" width="66" height="60" viewBox="0 0 66 60" fill="none"><path d="M63.913 0H1.30435C0.583904 0 0 0.583904 0 1.30435V45.6522C0 45.9981 0.13757 46.3298 0.382135 46.5744C0.6267 46.819 0.958396 46.9565 1.30435 46.9565H25.8L23.713 57.3913H19.5651V60H45.652V57.3913H41.5041L39.4171 46.9565H63.9128C64.2587 46.9565 64.5904 46.819 64.835 46.5744C65.0796 46.3298 65.2171 45.9981 65.2171 45.6522V1.30435C65.2171 0.958396 65.0796 0.6267 64.835 0.382135C64.5904 0.137569 64.2587 0 63.9128 0H63.913ZM62.6087 2.6087V39.1304H2.6087V2.6087H62.6087ZM38.8435 57.3913H26.3737L28.4606 46.9565H36.7565L38.8435 57.3913ZM37.826 44.3478H2.60859V41.7391H62.6086V44.3478H37.826Z" fill="#0CB4C4"></path><path d="M14.3478 19.5652C13.6274 19.5652 13.0434 18.9813 13.0434 18.2608H10.4348C10.4383 19.0674 10.6905 19.8531 11.1572 20.5103C11.6245 21.1681 12.2833 21.6649 13.0435 21.9339V23.4782H15.6522V21.9339C16.8067 21.51 17.6948 20.5678 18.0499 19.3899C18.4051 18.2124 18.1855 16.9361 17.4579 15.9446C16.7298 14.9531 15.5778 14.3615 14.3478 14.3478C13.8204 14.3478 13.3446 14.0299 13.1428 13.5428C12.941 13.0552 13.0526 12.4942 13.4256 12.1213C13.7985 11.7483 14.3595 11.6368 14.8471 11.8385C15.3342 12.0403 15.6521 12.5162 15.6521 13.0435H18.2608C18.2572 12.2369 18.005 11.4513 17.5383 10.794C17.0711 10.1362 16.4123 9.63947 15.6521 9.37046V7.82611H13.0434V9.37046C11.8888 9.79437 11.0008 10.7365 10.6456 11.9145C10.2905 13.0919 10.5101 14.3682 11.2377 15.3598C11.9657 16.3513 13.1177 16.9428 14.3477 16.9565C15.0682 16.9565 15.6521 17.5404 15.6521 18.2609C15.6521 18.9813 15.0682 19.5652 14.3477 19.5652L14.3478 19.5652Z" fill="#0CB4C4"></path><path d="M20.6974 33.2556L30.7567 15.6522H50.3219L46.4088 19.5652L48.2533 21.4097L54.3939 15.2716V15.2711C54.6395 15.0265 54.7771 14.6943 54.7771 14.3478C54.7771 14.0014 54.6395 13.6692 54.3939 13.4246L48.2609 7.28607L46.4164 9.13055L50.3294 13.0436H29.9999C29.5316 13.0436 29.1001 13.2948 28.8677 13.7009L18.8085 31.3043H10.4347V33.913H19.5651C20.0334 33.913 20.4649 33.6619 20.6973 33.2558L20.6974 33.2556Z" fill="#0CB4C4"></path><path d="M33.913 26.087H54.7826V28.6957H33.913V26.087Z" fill="#0CB4C4"></path><path d="M33.913 31.3043H44.3478V33.913H33.913V31.3043Z" fill="#0CB4C4"></path></svg>