<svg width="60" height="60" viewBox="0 0 60 60" fill="none" xmlns="http://www.w3.org/2000/svg"><path d="M56.8397 0H20.9408C20.1477 0.000893291 19.3872 0.317251 18.8264 0.879666C18.2656 1.44208 17.9501 2.20462 17.9492 3V18H19.9436V7C19.9439 6.73487 20.0491 6.48069 20.236 6.29322C20.4229 6.10575 20.6764 6.0003 20.9408 6H50.8565V10C50.8574 10.7954 51.1729 11.5579 51.7337 12.1203C52.2946 12.6827 53.055 12.9991 53.8481 13H57.8369V49C57.8366 49.2651 57.7314 49.5193 57.5445 49.7068C57.3575 49.8943 57.104 49.9997 56.8397 50H36.8958V52H56.8397C57.6328 51.9991 58.3932 51.6828 58.954 51.1203C59.5149 50.5579 59.8304 49.7954 59.8312 49V3C59.8304 2.20462 59.5149 1.44208 58.954 0.879666C58.3932 0.317251 57.6328 0.000893291 56.8397 0ZM53.8481 11C53.5837 10.9997 53.3302 10.8942 53.1433 10.7068C52.9564 10.5193 52.8512 10.2651 52.8509 10V7.41425L56.4266 11H53.8481ZM57.8369 9.58587L52.5589 4.29287C52.4663 4.20002 52.3563 4.12636 52.2353 4.07611C52.1143 4.02586 51.9847 4 51.8537 4H20.9408C20.601 3.99986 20.2638 4.05803 19.9436 4.172V3C19.9439 2.73487 20.0491 2.48069 20.236 2.29322C20.4229 2.10575 20.6764 2.0003 20.9408 2H56.8397C57.104 2.0003 57.3575 2.10575 57.5445 2.29322C57.7314 2.48069 57.8366 2.73487 57.8369 3V9.58587Z" fill="#0CB4C4"></path><path d="M55.8431 21H28.9189V23H55.8431V21Z" fill="#0CB4C4"></path><path d="M21.9385 19H23.9329V18.618L26.9244 17.118L30.4672 18.8944C30.6544 18.9883 30.8663 19.0207 31.073 18.987C31.2796 18.9534 31.4704 18.8554 31.6183 18.7069L35.8992 14.4142L40.18 18.7072C40.3497 18.8774 40.575 18.9805 40.8144 18.9975C41.0538 19.0146 41.2914 18.9445 41.4834 18.8L44.8739 16.25L48.2643 18.8C48.4564 18.9445 48.6939 19.0146 48.9333 18.9975C49.1728 18.9805 49.398 18.8774 49.5678 18.7072L51.7463 16.5224L54.048 19.6L55.6435 18.4L52.652 14.4C52.5662 14.2854 52.457 14.1906 52.3315 14.122C52.2061 14.0534 52.0674 14.0127 51.9249 14.0025C51.7824 13.9924 51.6394 14.013 51.5055 14.0631C51.3716 14.1132 51.2501 14.1916 51.1491 14.2929L48.7691 16.6797L45.4722 14.2C45.2996 14.0702 45.0896 14 44.8739 14C44.6581 14 44.4482 14.0702 44.2756 14.2L40.9786 16.6797L36.6043 12.2929C36.5117 12.2 36.4018 12.1264 36.2808 12.0761C36.1598 12.0259 36.0301 12 35.8992 12C35.7682 12 35.6385 12.0259 35.5175 12.0761C35.3965 12.1264 35.2866 12.2 35.194 12.2929L30.7163 16.7833L27.3704 15.1057C27.232 15.0362 27.0793 15.0001 26.9244 15.0001C26.7696 15.0001 26.6169 15.0362 26.4784 15.1057L23.9329 16.382V12H21.9385V19Z" fill="#0CB4C4"></path><path d="M23.9329 8H21.9385V10H23.9329V8Z" fill="#0CB4C4"></path><path d="M27.9211 8H25.9268V10H27.9211V8Z" fill="#0CB4C4"></path><path d="M31.9104 8H29.916V10H31.9104V8Z" fill="#0CB4C4"></path><path d="M38.8906 25C38.0158 25.0017 37.1567 25.2334 36.3989 25.6719C35.6412 26.1104 35.0114 26.7405 34.5723 27.4993L36.2987 28.5007C36.6564 27.8824 37.2216 27.4118 37.8934 27.1728V30C37.8934 30.2164 37.9634 30.4269 38.0929 30.6L39.782 32.8585C39.3879 32.9831 38.9724 33.0244 38.5617 32.9797C38.1509 32.9351 37.7539 32.8056 37.3956 32.5993L36.3969 34.3304C37.0592 34.7137 37.8005 34.9392 38.5636 34.9893C39.3267 35.0394 40.091 34.9128 40.7975 34.6194C41.504 34.3259 42.1338 33.8734 42.638 33.2968C43.1422 32.7203 43.5074 32.0351 43.7054 31.2944C43.9034 30.5537 43.9288 29.7772 43.7797 29.0251C43.6306 28.2729 43.3109 27.5653 42.8455 26.9568C42.3801 26.3483 41.7813 25.8554 41.0955 25.5161C40.4097 25.1768 39.6553 25.0002 38.8906 25ZM41.3752 31.6555L39.8878 29.6666V27.172C40.4706 27.3794 40.9752 27.7625 41.3322 28.2688C41.6893 28.7751 41.8814 29.3799 41.8822 30C41.8828 30.5904 41.7062 31.1672 41.3752 31.6555Z" fill="#0CB4C4"></path><path d="M54.8341 27.0076C54.3741 26.3842 53.7746 25.8778 53.0838 25.5291C52.3931 25.1804 51.6304 24.9992 50.8571 25C49.8709 25 48.9069 25.2932 48.087 25.8427C47.2671 26.3921 46.628 27.173 46.2506 28.0866C45.8733 29.0002 45.7745 30.0055 45.9669 30.9755C46.1593 31.9454 46.6342 32.8363 47.3314 33.5355C48.0287 34.2348 48.9172 34.711 49.8843 34.9039C50.8515 35.0969 51.854 34.9978 52.7651 34.6194C53.6762 34.241 54.4549 33.6001 55.0027 32.7779C55.5506 31.9556 55.843 30.9889 55.843 30C55.8416 28.9188 55.4873 27.8678 54.8341 27.0076ZM50.8571 27C51.4458 26.9994 52.021 27.1765 52.5079 27.5084L50.5246 29H48.037C48.2438 28.4156 48.6258 27.9096 49.1307 27.5515C49.6356 27.1934 50.2386 27.0008 50.8571 27ZM50.8571 33C50.2386 32.9993 49.6354 32.8067 49.1304 32.4486C48.6254 32.0905 48.2433 31.5845 48.0364 31H50.8571C51.0728 31 51.2828 30.9298 51.4554 30.8L53.7075 29.1061C53.801 29.3948 53.8487 29.6965 53.8486 30C53.8477 30.7954 53.5323 31.5579 52.9714 32.1203C52.4106 32.6828 51.6502 32.9991 50.8571 33Z" fill="#0CB4C4"></path><path d="M43.8768 41H36.8965V43H43.8768V41Z" fill="#0CB4C4"></path><path d="M43.8768 45H36.8965V47H43.8768V45Z" fill="#0CB4C4"></path><path d="M39.8881 37H36.8965V39H39.8881V37Z" fill="#0CB4C4"></path><path d="M43.8762 37H41.8818V39H43.8762V37Z" fill="#0CB4C4"></path><path d="M55.843 45H45.8711V47H55.843V45Z" fill="#0CB4C4"></path><path d="M55.843 37H45.8711V39H55.843V37Z" fill="#0CB4C4"></path><path d="M55.843 41H53.8486V43H55.843V41Z" fill="#0CB4C4"></path><path d="M51.8542 41H45.8711V43H51.8542V41Z" fill="#0CB4C4"></path><path d="M0.997237 48.0003H4.986V54.0003C4.98782 55.5911 5.61876 57.1161 6.74043 58.2409C7.86209 59.3658 9.38287 59.9985 10.9691 60.0003H33.9045C34.169 60.0003 34.4226 59.895 34.6097 59.7074C34.7967 59.5199 34.9017 59.2655 34.9017 59.0003V37.3866C34.9015 33.3203 33.3937 29.3994 30.6714 26.3858C27.949 23.3723 24.2066 21.4814 20.1715 21.0808C16.1364 20.6801 12.0969 21.7982 8.83809 24.2178C5.57926 26.6374 3.33394 30.1857 2.53852 34.1729L0.0193666 46.8042C-0.0095699 46.9493 -0.00604212 47.099 0.0296958 47.2425C0.0654338 47.3861 0.132491 47.5199 0.226033 47.6343C0.319574 47.7487 0.437269 47.8409 0.57063 47.9042C0.703992 47.9675 0.849696 48.0003 0.997237 48.0003ZM18.5615 23.0003C20.4455 23.0002 22.311 23.3722 24.0516 24.0952C25.7921 24.8181 27.3736 25.8778 28.7058 27.2137C30.038 28.5496 31.0947 30.1356 31.8156 31.8811C32.5365 33.6265 32.9075 35.4973 32.9073 37.3866V58.0003H27.9214V53.3031L29.7482 50.5551C29.8575 50.3908 29.9158 50.1978 29.9158 50.0003V45.0003H27.9214V49.6976L26.0945 52.4456C25.9853 52.6098 25.927 52.8029 25.927 53.0003V58.0003H18.9467V56.0003H16.9523V58.0003H14.9579V49.3337L17.75 45.6003C17.8795 45.4272 17.9495 45.2167 17.9495 45.0003V43.0003H19.9439V46.6669L17.1517 50.4003C17.0223 50.5734 16.9523 50.7839 16.9523 51.0003V54.0003H18.9467V51.3337L21.7388 47.6003C21.8683 47.4272 21.9382 47.2167 21.9382 47.0003V43.0003H23.9326V45.0003H25.927V43.0003H28.9186C29.1831 43.0003 29.4367 42.895 29.6237 42.7074C29.8107 42.5199 29.9158 42.2655 29.9158 42.0003V38.0003C29.9158 35.9087 29.3707 33.8535 28.3346 32.0383C27.2984 30.2231 25.807 28.711 24.0085 27.6519C22.2099 26.5929 20.1665 26.0237 18.0809 26.0007C15.9954 25.9777 13.94 26.5018 12.1187 27.5209L10.3022 25.6281C12.7203 23.9213 15.6044 23.0037 18.5615 23.0003ZM18.7791 30.5551L20.2929 28.2783C21.7265 28.6282 23.0652 29.2916 24.2133 30.2209C25.3614 31.1502 26.2905 32.3225 26.934 33.6539L24.4312 37.0003H20.9411V39.0003H24.9298C25.0846 39.0003 25.2373 38.9642 25.3758 38.8947C25.5142 38.8253 25.6347 38.7245 25.7276 38.6003L27.7107 35.9486C27.8507 36.6235 27.9213 37.311 27.9214 38.0003V41.0003H17.9495V35.0003H20.9411C21.072 35.0003 21.2017 34.9745 21.3227 34.9242C21.4437 34.874 21.5536 34.8003 21.6462 34.7074L23.6406 32.7074L22.2303 31.2932L20.5281 33.0003H17.3761L13.5584 29.0217C14.9246 28.3481 16.427 27.9987 17.9495 28.0003C17.9926 28.0003 18.0355 28.0029 18.0785 28.0034L17.1198 29.4456L18.7791 30.5551ZM4.49439 34.5651C5.08392 31.6273 6.57152 28.9467 8.7504 26.8959L15.9551 34.4033V44.6669L13.163 48.4003C13.0335 48.5734 12.9635 48.7839 12.9635 49.0003V58.0003H10.9691C9.91162 57.9991 8.89776 57.5773 8.14998 56.8274C7.4022 56.0775 6.98157 55.0608 6.98038 54.0003V50.9968C8.5214 50.9604 10.0355 50.5841 11.4151 49.8947L10.5232 48.1059C9.4206 48.657 8.21175 48.9609 6.98038 48.9968V47.0003C6.98038 46.7351 6.87532 46.4807 6.68831 46.2932C6.5013 46.1057 6.24766 46.0003 5.98319 46.0003H2.21356L4.49439 34.5651Z" fill="#0CB4C4"></path><path d="M10.4706 41C11.1609 41 11.8357 40.7947 12.4097 40.4101C12.9836 40.0256 13.431 39.4789 13.6951 38.8394C13.9593 38.1999 14.0284 37.4961 13.8937 36.8172C13.7591 36.1383 13.4267 35.5146 12.9386 35.0251C12.4504 34.5356 11.8286 34.2023 11.1515 34.0673C10.4745 33.9322 9.77275 34.0015 9.13501 34.2664C8.49726 34.5313 7.95217 34.9799 7.56867 35.5555C7.18516 36.1311 6.98047 36.8078 6.98047 37.5C6.98152 38.4279 7.34958 39.3176 8.00388 39.9737C8.65819 40.6299 9.54531 40.9989 10.4706 41ZM10.4706 36C10.7665 36 11.0557 36.088 11.3017 36.2528C11.5476 36.4176 11.7394 36.6519 11.8526 36.926C11.9658 37.2001 11.9954 37.5017 11.9377 37.7926C11.88 38.0836 11.7375 38.3509 11.5283 38.5607C11.3191 38.7704 11.0526 38.9133 10.7625 38.9712C10.4723 39.0291 10.1715 38.9993 9.89822 38.8858C9.62491 38.7723 9.39129 38.58 9.22694 38.3334C9.06258 38.0867 8.97485 37.7967 8.97485 37.5C8.97528 37.1023 9.13301 36.721 9.41343 36.4398C9.69385 36.1586 10.0741 36.0004 10.4706 36Z" fill="#0CB4C4"></path><path d="M23.9329 48.6973L22.106 51.4453C21.9967 51.6095 21.9384 51.8025 21.9385 52V56H23.9329V52.3027L25.7597 49.5547C25.869 49.3905 25.9273 49.1975 25.9272 49V47H23.9329V48.6973Z" fill="#0CB4C4"></path><path d="M13.9612 43H11.9668V45H13.9612V43Z" fill="#0CB4C4"></path><path d="M9.97192 30H7.97754V32H9.97192V30Z" fill="#0CB4C4"></path></svg>