<svg width="74" height="60" viewBox="0 0 74 60" fill="none" xmlns="http://www.w3.org/2000/svg"><path d="M1.17359 18.2737H12.4793C12.3258 19.0095 12.2486 19.7591 12.2488 20.5106C12.2488 20.7405 12.3404 20.961 12.5034 21.1238C12.6664 21.2867 12.8876 21.3786 13.1186 21.3795H33.4404C33.6719 21.3795 33.894 21.2879 34.0577 21.125C34.2214 20.962 34.3134 20.741 34.3134 20.5106C34.3132 19.7591 34.236 19.0096 34.0829 18.2737H45.3894C45.6207 18.2737 45.8426 18.1822 46.0061 18.0194C46.1697 17.8566 46.2616 17.6358 46.2616 17.4056C46.2588 15.3585 45.6129 13.3637 44.4142 11.7003C43.2156 10.0369 41.5243 8.78827 39.5772 8.12935C40.2783 7.49518 40.7702 6.66465 40.9882 5.74697C41.2062 4.82929 41.1401 3.86743 40.7986 2.98785C40.4571 2.10827 39.8561 1.35216 39.0747 0.818932C38.2933 0.285706 37.3681 0.000331781 36.4207 0.000331781C35.4733 0.000331781 34.5481 0.285706 33.7668 0.818932C32.9854 1.35216 32.3844 2.10827 32.0429 2.98785C31.7013 3.86743 31.6352 4.82929 31.8532 5.74697C32.0713 6.66465 32.5632 7.49518 33.2643 8.12935C31.5734 8.70123 30.0696 9.71809 28.9124 11.072C28.1931 10.6443 27.4268 10.3001 26.6286 10.0464C27.4452 9.36297 28.0309 8.44605 28.3063 7.42003C28.5816 6.39401 28.5333 5.30853 28.1678 4.31077C27.8024 3.31301 27.1375 2.45125 26.2634 1.84234C25.3892 1.23343 24.3481 0.906833 23.2811 0.906833C22.2141 0.906833 21.173 1.23343 20.2988 1.84234C19.4247 2.45125 18.7598 3.31301 18.3944 4.31077C18.0289 5.30853 17.9806 6.39401 18.2559 7.42003C18.5313 8.44605 19.117 9.36297 19.9336 10.0464C19.1354 10.3001 18.3691 10.6443 17.6498 11.072C16.4932 9.71764 14.9896 8.70045 13.2987 8.12854C14.0003 7.49423 14.4925 6.66343 14.7108 5.74539C14.929 4.82735 14.863 3.86506 14.5214 2.98507C14.1798 2.10508 13.5786 1.3486 12.797 0.815107C12.0153 0.281615 11.0897 -0.00390625 10.1419 -0.00390625C9.19406 -0.00390625 8.26846 0.281615 7.48677 0.815107C6.70507 1.3486 6.1039 2.10508 5.76231 2.98507C5.42072 3.86506 5.3547 4.82735 5.57294 5.74539C5.79118 6.66343 6.28346 7.49423 6.98504 8.12854C5.03763 8.78737 3.34604 10.036 2.14724 11.6996C0.94843 13.3632 0.302458 15.3583 0.299805 17.4056C0.299804 17.5197 0.322417 17.6327 0.366349 17.7382C0.410281 17.8436 0.474669 17.9394 0.555829 18.02C0.636989 18.1006 0.733326 18.1645 0.83933 18.2081C0.945333 18.2516 1.05892 18.2739 1.17359 18.2737ZM36.4203 1.74008C37.0037 1.74008 37.5739 1.91226 38.0589 2.23485C38.5439 2.55743 38.9219 3.01593 39.1451 3.55235C39.3682 4.08877 39.4266 4.67903 39.3127 5.24846C39.1989 5.8179 38.9179 6.34094 38.5054 6.75143C38.0929 7.16192 37.5673 7.44143 36.9952 7.5546C36.4231 7.66777 35.8301 7.60953 35.2912 7.38723C34.7523 7.16493 34.2918 6.78857 33.9678 6.30574C33.6439 5.8229 33.471 5.25529 33.4712 4.67469C33.4723 3.89657 33.7834 3.15064 34.3362 2.6005C34.8891 2.05037 35.6386 1.74094 36.4203 1.74008ZM36.4203 9.34712C38.4153 9.34951 40.3394 10.084 41.8245 11.41C43.3095 12.736 44.2512 14.5604 44.4694 16.5342H33.5637C32.8851 14.8043 31.7786 13.273 30.3468 12.0823C31.1074 11.2249 32.042 10.5378 33.0889 10.0663C34.1358 9.59487 35.2713 9.34974 36.4203 9.34712ZM19.8249 6.09031C19.8247 5.40988 20.0273 4.74469 20.407 4.17886C20.7867 3.61302 21.3264 3.17197 21.9579 2.91147C22.5894 2.65097 23.2844 2.58273 23.9549 2.71538C24.6254 2.84802 25.2413 3.1756 25.7247 3.65668C26.2082 4.13776 26.5374 4.75073 26.6708 5.41807C26.8043 6.08541 26.7359 6.77714 26.4743 7.40579C26.2127 8.03444 25.7697 8.57176 25.2013 8.9498C24.633 9.32784 23.9647 9.52962 23.2811 9.52962C22.3649 9.52856 21.4866 9.16588 20.8387 8.52114C20.1908 7.8764 19.8262 7.00222 19.8249 6.09031ZM32.5268 19.6417H14.0345C14.2515 17.3503 15.3194 15.2219 17.0294 13.6728C18.7394 12.1236 20.9685 11.2651 23.2807 11.2651C25.5929 11.2651 27.822 12.1236 29.532 13.6728C31.242 15.2219 32.3099 17.3503 32.5268 19.6417ZM7.19598 4.67469C7.19598 4.09408 7.36896 3.52652 7.69305 3.04378C8.01714 2.56103 8.47778 2.18479 9.01671 1.96264C9.55564 1.74049 10.1487 1.68241 10.7208 1.79574C11.2928 1.90907 11.8183 2.18872 12.2307 2.59932C12.6432 3.00993 12.924 3.53304 13.0377 4.10251C13.1514 4.67198 13.0928 5.26222 12.8695 5.79858C12.6462 6.33494 12.2681 6.79334 11.783 7.11579C11.2979 7.43824 10.7276 7.61026 10.1443 7.6101C9.36248 7.60924 8.61294 7.29968 8.06018 6.74934C7.50743 6.19901 7.19662 5.45287 7.19598 4.67469ZM10.1443 9.34712C11.2938 9.34945 12.4298 9.59461 13.477 10.0664C14.5243 10.5382 15.459 11.2258 16.2194 12.0839C14.7874 13.2749 13.6807 14.8065 13.0017 16.5367H2.09281C2.31046 14.5624 3.25192 12.7374 4.737 11.4109C6.22209 10.0844 8.14648 9.34958 10.1419 9.34712H10.1443ZM43.8009 32.8506H56.8728C57.1043 32.8506 57.3263 32.7591 57.49 32.5961C57.6538 32.4331 57.7457 32.2121 57.7457 31.9817V28.5198C57.7457 28.4057 57.7232 28.2927 57.6793 28.1874C57.6354 28.082 57.5711 27.9862 57.49 27.9056C57.4089 27.825 57.3127 27.7611 57.2068 27.7175C57.1009 27.6739 56.9874 27.6515 56.8728 27.6516H43.8009C43.6863 27.6515 43.5728 27.6739 43.4669 27.7175C43.3609 27.7611 43.2647 27.825 43.1836 27.9056C43.1026 27.9862 43.0382 28.082 42.9944 28.1874C42.9505 28.2927 42.9279 28.4057 42.9279 28.5198V31.9817C42.9279 32.2121 43.0199 32.4331 43.1836 32.5961C43.3473 32.7591 43.5693 32.8506 43.8009 32.8506ZM44.6738 29.3887H55.9998V31.1128H44.6738V29.3887ZM56.8728 34.1572H52.3756C52.261 34.1571 52.1475 34.1795 52.0416 34.223C51.9357 34.2666 51.8395 34.3306 51.7584 34.4112C51.6773 34.4918 51.613 34.5875 51.5691 34.6929C51.5253 34.7983 51.5027 34.9112 51.5027 35.0253V39.5015C51.5027 39.732 51.5946 39.953 51.7584 40.1159C51.9221 40.2789 52.1441 40.3704 52.3756 40.3704H56.8728C57.1043 40.3704 57.3263 40.2789 57.49 40.1159C57.6538 39.953 57.7457 39.732 57.7457 39.5015V35.0253C57.7457 34.9112 57.7232 34.7983 57.6793 34.6929C57.6354 34.5875 57.5711 34.4918 57.49 34.4112C57.4089 34.3306 57.3127 34.2666 57.2068 34.223C57.1009 34.1795 56.9874 34.1571 56.8728 34.1572ZM55.9998 38.6334H53.2486V35.8942H55.9998V38.6334ZM43.8009 40.3704H48.298C48.5295 40.3704 48.7515 40.2789 48.9153 40.1159C49.079 39.953 49.171 39.732 49.171 39.5015V35.0253C49.171 34.9112 49.1484 34.7983 49.1045 34.6929C49.0606 34.5875 48.9963 34.4918 48.9152 34.4112C48.8341 34.3306 48.7379 34.2666 48.632 34.223C48.5261 34.1795 48.4126 34.1571 48.298 34.1572H43.8009C43.6863 34.1571 43.5728 34.1795 43.4669 34.223C43.3609 34.2666 43.2647 34.3306 43.1836 34.4112C43.1026 34.4918 43.0382 34.5875 42.9944 34.6929C42.9505 34.7983 42.9279 34.9112 42.9279 35.0253V39.5015C42.9279 39.732 43.0199 39.953 43.1836 40.1159C43.3473 40.2789 43.5693 40.3704 43.8009 40.3704ZM44.6738 35.8942H47.4258V38.6334H44.6738V35.8942ZM64.4829 41.8773H67.858C68.0895 41.8773 68.3115 41.7857 68.4752 41.6228C68.639 41.4598 68.7309 41.2388 68.7309 41.0084V37.6482C68.7303 37.4182 68.638 37.1979 68.4743 37.0356C68.3107 36.8733 68.089 36.7823 67.858 36.7825H64.4829C64.3683 36.7824 64.2548 36.8048 64.1489 36.8484C64.043 36.8919 63.9467 36.9559 63.8657 37.0365C63.7846 37.1171 63.7203 37.2128 63.6764 37.3182C63.6325 37.4236 63.6099 37.5366 63.6099 37.6506V41.0108C63.6106 41.2408 63.7028 41.4612 63.8665 41.6236C64.0301 41.7861 64.2518 41.8773 64.4829 41.8773ZM65.3551 38.5171H66.9899V40.1395H65.3591L65.3551 38.5171ZM64.4829 50.1934H67.858C68.0895 50.1934 68.3115 50.1018 68.4752 49.9389C68.639 49.7759 68.7309 49.5549 68.7309 49.3244V45.9651C68.7309 45.7346 68.639 45.5136 68.4752 45.3506C68.3115 45.1877 68.0895 45.0961 67.858 45.0961H64.4829C64.2514 45.0961 64.0293 45.1877 63.8656 45.3506C63.7019 45.5136 63.6099 45.7346 63.6099 45.9651V49.3244C63.6099 49.5549 63.7019 49.7759 63.8656 49.9389C64.0293 50.1018 64.2514 50.1934 64.4829 50.1934ZM65.3551 46.834H66.9899V48.4563H65.3591L65.3551 46.834ZM72.4443 54.7422H71.8439V31.3623C71.8439 31.1318 71.752 30.9108 71.5883 30.7479C71.4245 30.5849 71.2025 30.4934 70.971 30.4934H62.2429V26.2134H63.0542C63.2857 26.2134 63.5077 26.1219 63.6715 25.9589C63.8352 25.796 63.9271 25.575 63.9271 25.3445V21.8277C63.9271 21.7136 63.9046 21.6006 63.8607 21.4953C63.8168 21.3899 63.7525 21.2942 63.6714 21.2135C63.5903 21.1329 63.4941 21.069 63.3882 21.0254C63.2823 20.9818 63.1688 20.9595 63.0542 20.9596H37.6203C37.389 20.9596 37.1671 21.051 37.0036 21.2138C36.84 21.3766 36.7481 21.5974 36.7481 21.8277V23.7076H1.17359C1.05892 23.7074 0.945333 23.7297 0.83933 23.7732C0.733326 23.8168 0.636989 23.8807 0.555829 23.9613C0.474669 24.0419 0.410281 24.1377 0.366349 24.2431C0.322417 24.3486 0.299804 24.4616 0.299805 24.5757C0.306462 30.6404 2.72984 36.4547 7.03822 40.7431C11.3466 45.0314 17.1881 47.4435 23.2811 47.4501C28.8592 47.471 34.2507 45.4519 38.4316 41.7763V54.7422H37.6203C37.5057 54.7422 37.3922 54.7647 37.2863 54.8084C37.1805 54.8521 37.0843 54.9161 37.0033 54.9968C36.9223 55.0775 36.858 55.1733 36.8143 55.2787C36.7705 55.3841 36.748 55.4971 36.7481 55.6111V59.1272C36.748 59.2412 36.7705 59.3542 36.8143 59.4596C36.858 59.565 36.9223 59.6608 37.0033 59.7415C37.0843 59.8222 37.1805 59.8863 37.2863 59.9299C37.3922 59.9736 37.5057 59.9961 37.6203 59.9961H72.4443C72.559 59.9962 72.6726 59.9738 72.7786 59.9302C72.8847 59.8866 72.981 59.8226 73.0621 59.7419C73.1433 59.6612 73.2077 59.5654 73.2516 59.4599C73.2955 59.3544 73.3181 59.2414 73.3181 59.1272V55.6111C73.3181 55.497 73.2955 55.3839 73.2516 55.2784C73.2077 55.173 73.1433 55.0771 73.0621 54.9964C72.981 54.9157 72.8847 54.8518 72.7786 54.8081C72.6726 54.7645 72.559 54.7421 72.4443 54.7422ZM70.098 32.2312V54.7422H62.2429V32.2312H70.098ZM38.4924 22.6966H62.1828V24.4732H38.4924V22.6966ZM38.4316 37.0151C36.5251 35.3404 34.3505 33.995 31.9979 33.0347C32.3857 30.5222 32.5961 27.9857 32.6274 25.4438H36.7538C36.7784 25.6554 36.8803 25.8506 37.0401 25.9923C37.1998 26.1341 37.4063 26.2124 37.6203 26.2126H38.4316V37.0151ZM23.2811 45.7123C21.4345 45.7123 19.5491 43.5756 18.1073 39.8504C17.4159 38.0106 16.8894 36.1136 16.5342 34.1814C20.9165 32.7172 25.6584 32.7115 30.0442 34.1653C28.6869 41.3225 25.9089 45.7123 23.2811 45.7123ZM23.2811 31.3381C20.8904 31.3388 18.5145 31.7118 16.2397 32.4436C15.8976 30.1242 15.7106 27.7847 15.6799 25.4406H30.8864C30.8578 27.7792 30.6748 30.1135 30.3387 32.4283C28.0571 31.7037 25.676 31.3373 23.2811 31.3421V31.3381ZM13.9348 25.443C13.9663 27.9919 14.1778 30.5355 14.5676 33.0549C11.724 34.2151 9.14255 35.9301 6.9753 38.0988C3.97963 34.536 2.25263 30.0867 2.0636 25.4446L13.9348 25.443ZM8.14846 39.3893C10.0756 37.4452 12.3622 35.8904 14.8824 34.8105C15.2521 36.7401 15.7868 38.6348 16.4807 40.4738C17.1109 42.2399 18.0466 43.8827 19.2456 45.3279C15.0277 44.5127 11.1579 42.4418 8.14846 39.3893ZM27.3117 45.3352C28.5029 43.9023 29.4344 42.2739 30.0645 40.523C30.7706 38.6621 31.3135 36.7437 31.6871 34.7895C34.2108 35.8758 36.498 37.4405 38.421 39.3965C35.4154 42.4606 31.538 44.5334 27.3117 45.3352ZM40.1767 26.2126H60.4993V54.7422H57.7457V42.2423C57.7457 42.0119 57.6538 41.7908 57.49 41.6279C57.3263 41.4649 57.1043 41.3734 56.8728 41.3734H43.8009C43.5693 41.3734 43.3473 41.4649 43.1836 41.6279C43.0199 41.7908 42.9279 42.0119 42.9279 42.2423V54.7422H40.1767V26.2126ZM44.6738 54.7422V43.1136H49.4606V54.7422H44.6738ZM51.2098 43.1136H55.9965V54.7422H51.2098V43.1136ZM71.5738 58.2615H38.4924V56.4849H71.5722L71.5738 58.2615Z" fill="#0CB4C4"></path></svg>