<svg xmlns="http://www.w3.org/2000/svg" id="Layer_1" data-name="Layer 1" width="60" height="60" viewBox="0 0 60 60"><defs><style> .cls-1 { fill: #0cb4c4; } </style></defs><path class="cls-1" d="M56.25,0H3.75A3.75,3.75,0,0,0,0,3.75v52.5A3.75,3.75,0,0,0,3.75,60h52.5A3.75,3.75,0,0,0,60,56.25V3.75A3.75,3.75,0,0,0,56.25,0Zm1.87,56.25a1.87,1.87,0,0,1-1.87,1.87H3.75a1.87,1.87,0,0,1-1.87-1.87V3.75A1.88,1.88,0,0,1,3.75,1.87h52.5a1.88,1.88,0,0,1,1.87,1.88Z"></path><path class="cls-1" d="M51.56,4.69H8.44A3.75,3.75,0,0,0,4.69,8.44V51.56a3.75,3.75,0,0,0,3.75,3.75H51.56a3.75,3.75,0,0,0,3.75-3.75V8.44A3.75,3.75,0,0,0,51.56,4.69Zm0,48.75H8.44a1.88,1.88,0,0,1-1.88-1.88V47.89H12V46H6.56V40.37h5.08a1.9,1.9,0,1,0,0-1.87H6.56V30.94H12V29.06H6.56V23.42h5.08a1.89,1.89,0,1,0,0-1.88H6.56V14H12V12.11H6.56V8.44A1.88,1.88,0,0,1,8.44,6.56H51.56a1.88,1.88,0,0,1,1.88,1.88v3.67H48V14h5.41v7.56H48.35a1.86,1.86,0,0,0-1.63-.95,1.89,1.89,0,1,0,1.63,2.83h5.09v5.64H48v1.88h5.41v7.55H48.35a1.89,1.89,0,1,0-1.63,2.83,1.86,1.86,0,0,0,1.63-1h5.09V46H48v1.88h5.41v3.67a1.88,1.88,0,0,1-1.88,1.88Z"></path><path class="cls-1" d="M20.1,46H39.9v1.87H20.1Z"></path><path class="cls-1" d="M20.1,12.11h9V14h-9Z"></path><path class="cls-1" d="M9.84,49.69a1.41,1.41,0,1,0,1.41,1.4A1.4,1.4,0,0,0,9.84,49.69Zm0,1.87a.47.47,0,1,1,.47-.47A.47.47,0,0,1,9.84,51.56Z"></path><path class="cls-1" d="M50.15,49.69a1.41,1.41,0,1,0,1.41,1.4A1.4,1.4,0,0,0,50.15,49.69Zm0,1.87a.47.47,0,1,1,.47-.47A.47.47,0,0,1,50.15,51.56Z"></path><path class="cls-1" d="M9.84,7.5a1.41,1.41,0,1,0,1.41,1.41A1.41,1.41,0,0,0,9.84,7.5Zm0,1.88a.47.47,0,1,1,.47-.47A.48.48,0,0,1,9.84,9.38Z"></path><path class="cls-1" d="M50.15,10.31a1.41,1.41,0,1,0-1.4-1.4A1.41,1.41,0,0,0,50.15,10.31Zm0-1.87a.47.47,0,0,1,.47.47.48.48,0,0,1-.47.47.47.47,0,0,1,0-.94Z"></path><path class="cls-1" d="M33.07,12.11h7.14V14H33.07Z"></path><path class="cls-1" d="M34.2,28.57,27.28,44.86l-1.72-.73,6.91-16.29Z"></path><path class="cls-1" d="M24,31.65l-3.81,3.81L24,39.27,25.35,38l-2.49-2.49L25.35,33Z"></path><path class="cls-1" d="M35.73,39.27l3.81-3.81-3.81-3.81L34.4,33l2.49,2.49L34.4,38Z"></path></svg>