<svg xmlns="http://www.w3.org/2000/svg" xmlns:xlink="http://www.w3.org/1999/xlink" version="1.1" id="Layer_1" x="0px" y="0px" width="60px" height="60px" viewBox="0 0 60 60" style="enable-background:new 0 0 60 60;" xml:space="preserve"><g><path style="fill:#0EB3C3;" d="M17.037,43.809l-0.967-1.935l0.573-4.586c0.268-2.135,0.268-4.295,0-6.43l-0.551-4.401l0.945-0.945 v-3.404H0.085v3.404l0.945,0.945l-0.572,4.572c-0.252,2.019-0.266,4.058-0.042,6.079l0.619,5.573l-0.95,0.95v2.407h16.952V43.809z M15.042,24.686l-1.049,1.049l0.67,5.371c0.247,1.971,0.247,3.965,0,5.936l-0.648,5.187l0.91,1.817H2.492l0.631-0.631l-0.725-6.526 c-0.208-1.865-0.195-3.749,0.038-5.611l0.692-5.542l-1.049-1.049v-0.584h12.963V24.686z"></path><path style="fill:#0EB3C3;" d="M57.599,22.107H42.288l-2.316,5.79v14.153h19.943V27.897L57.599,22.107z M56.249,24.102l1.197,2.991 H42.441l1.197-2.991H56.249z M51.938,29.087h1.994v3.989h-1.994V29.087z M41.966,40.057v-10.97h7.978v5.983h5.983v-5.983h1.994 v10.97H41.966z"></path><path style="fill:#0EB3C3;" d="M21.077,15.395l-1.668,2.651l1.827,2.574l2.986-0.812l0.422,0.315l0.167,3.151l2.986,0.995 l1.95-2.454h0.504l1.95,2.454l2.986-0.995l0.166-3.151l0.424-0.315l2.986,0.812l1.825-2.574l-1.667-2.651l0.17-0.538l2.873-1.14 v-3.163l-2.873-1.14l-0.17-0.538l1.668-2.651L38.765,3.65l-2.986,0.812l-0.422-0.315l-0.168-3.151L32.202,0l-1.95,2.454h-0.504 L27.798,0l-2.986,0.995l-0.166,3.151l-0.423,0.315L21.236,3.65L19.41,6.225l1.667,2.651l-0.17,0.538l-2.874,1.14v3.163l2.874,1.14 L21.077,15.395z M20.028,11.908l2.493-0.989l0.738-2.323l-1.452-2.305l0.249-0.352l2.579,0.701l1.952-1.454l0.146-2.729 l0.373-0.125l1.68,2.116h2.43l1.681-2.116l0.374,0.125l0.146,2.729l1.95,1.454l2.579-0.701l0.248,0.352l-1.451,2.305l0.738,2.323 l2.492,0.989v0.454l-2.492,0.989l-0.738,2.323l1.451,2.305l-0.248,0.352l-2.579-0.701l-1.952,1.454l-0.145,2.729l-0.373,0.125 l-1.681-2.116h-2.43l-1.68,2.116l-0.374-0.125l-0.146-2.729l-1.95-1.454l-2.579,0.701l-0.249-0.352l1.452-2.305l-0.738-2.323 l-2.493-0.989V11.908z"></path><path style="fill:#0EB3C3;" d="M30,17.121c2.754,0,4.985-2.231,4.985-4.985S32.754,7.149,30,7.149s-4.986,2.232-4.986,4.986 C25.017,14.888,27.248,17.118,30,17.121z M30,9.144c1.651,0,2.991,1.34,2.991,2.992c0,1.651-1.34,2.991-2.991,2.991 s-2.992-1.34-2.992-2.991C27.011,10.483,28.349,9.146,30,9.144z"></path><path style="fill:#0EB3C3;" d="M40.349,48.414c-0.299-1.923-1.688-3.498-3.559-4.037L33.715,43.5 c-0.427-0.125-0.722-0.515-0.724-0.959v-0.077l0.535-0.534c0.938-0.934,1.463-2.203,1.459-3.525V35.07 c0-2.754-2.231-4.985-4.985-4.985s-4.986,2.231-4.986,4.985v3.334c-0.004,1.322,0.522,2.592,1.459,3.525l0.535,0.534v0.077 c-0.001,0.444-0.296,0.834-0.723,0.959l-3.104,0.887c-1.854,0.533-3.234,2.085-3.551,3.987c-0.407,2.481-0.962,5.918-1.297,8.198 c-0.242,1.635,0.888,3.155,2.524,3.396C21,59.989,21.146,60,21.293,60h17.353c1.65,0,2.99-1.34,2.99-2.992 c0-0.153-0.012-0.304-0.035-0.454L40.349,48.414z M39.4,57.657c-0.187,0.224-0.465,0.351-0.755,0.348H21.293 c-0.552,0-0.997-0.446-0.999-0.997c0-0.048,0.004-0.097,0.012-0.146c0.333-2.267,0.885-5.691,1.292-8.166 c0.191-1.141,1.019-2.071,2.13-2.393l3.104-0.887c1.282-0.37,2.165-1.542,2.17-2.876v-0.903l-1.118-1.118 c-0.562-0.56-0.879-1.321-0.876-2.115V35.07c0-1.651,1.34-2.991,2.992-2.991s2.991,1.34,2.991,2.991v3.334 c0.003,0.794-0.314,1.556-0.876,2.114l-1.118,1.119v0.903c0.005,1.334,0.889,2.506,2.17,2.876l3.076,0.879 c1.121,0.322,1.955,1.268,2.135,2.421l1.251,8.141C39.676,57.145,39.593,57.438,39.4,57.657z"></path><rect x="5.071" y="31.082" style="fill:#0EB3C3;" width="6.98" height="1.994"></rect><rect x="6.068" y="35.07" style="fill:#0EB3C3;" width="4.986" height="1.994"></rect><path style="fill:#0EB3C3;" d="M12.007,48.752c1.372,1.321,2.885,2.489,4.511,3.482l1.039-1.702 c-1.501-0.917-2.898-1.995-4.164-3.217L12.007,48.752z"></path><path style="fill:#0EB3C3;" d="M42.444,50.532l1.038,1.702c3.179-1.946,5.905-4.548,8.001-7.631l-1.651-1.117 C47.897,46.333,45.378,48.734,42.444,50.532z"></path><path style="fill:#0EB3C3;" d="M51.94,20.513l1.828-0.8c-2.311-5.259-6.289-9.609-11.323-12.378l-0.958,1.749 C46.134,11.64,49.809,15.656,51.94,20.513z"></path><path style="fill:#0EB3C3;" d="M16.598,10.253l-1.116-1.652c-4.075,2.754-7.282,6.608-9.25,11.112l1.828,0.8 C9.876,16.353,12.838,12.795,16.598,10.253z"></path></g></svg>