<svg xmlns="http://www.w3.org/2000/svg" width="66" height="66" viewBox="0 0 66 66" fill="none"><circle cx="33" cy="33" r="32" fill="white" stroke="#EE5A23" stroke-width="2"></circle><path fill-rule="evenodd" clip-rule="evenodd" d="M25.1319 19.3999H15.0393C13.913 19.3999 13 18.4868 13 17.3606C13 16.2344 13.913 15.3214 15.0393 15.3214H25.1319V13.5669C25.1319 13.2542 25.3856 13 25.6988 13H40.3007C40.614 13 40.8677 13.2542 40.8677 13.5669V15.3214H50.9607C52.087 15.3214 53 16.2344 53 17.3606C53 18.4868 52.087 19.3999 50.9607 19.3999H40.8677V21.1543C40.8677 21.4675 40.614 21.7212 40.3007 21.7212H38.2705V24.9367C38.2705 25.2495 38.0168 25.5032 37.704 25.5032H35.8757V27.8764C35.8757 27.9787 35.8477 28.0792 35.7955 28.1666L33.5665 31.9067V34.6192H33.8621C34.4876 34.6192 34.9951 35.1267 34.9951 35.7527C34.9951 36.9469 36.4417 37.5454 37.2858 36.7013C37.7279 36.2592 38.4472 36.2592 38.8893 36.7013L40.1083 37.9217C40.5509 38.3638 40.5509 39.0813 40.1083 39.5238C39.2642 40.3679 39.8636 41.8145 41.057 41.8145C41.6847 41.8145 42.1904 42.322 42.1904 42.9475V44.6717C42.1904 45.2977 41.6847 45.8052 41.057 45.8052C39.8636 45.8052 39.2642 47.2513 40.1083 48.0959C40.5504 48.538 40.5504 49.2568 40.1083 49.6989L38.8893 50.9184C38.4472 51.36 37.7279 51.36 37.2858 50.9184C36.4417 50.0738 34.9951 50.6732 34.9951 51.867C34.9951 52.4948 34.4876 53 33.8621 53H32.1379C31.5119 53 31.0045 52.4948 31.0045 51.867C31.0045 50.6719 29.5587 50.0734 28.7137 50.9184C28.2716 51.3605 27.5537 51.3605 27.1116 50.9184L25.8912 49.6989C25.4491 49.2568 25.4491 48.538 25.8912 48.0959C26.7358 47.2513 26.1368 45.8052 24.9426 45.8052C24.3171 45.8052 23.8096 45.2977 23.8096 44.6717V42.9475C23.8096 42.322 24.3171 41.8145 24.9426 41.8145C26.1368 41.8145 26.7358 40.3679 25.8912 39.5238C25.4491 39.0813 25.4491 38.3638 25.8912 37.9217L27.1116 36.7013C27.5537 36.2587 28.2716 36.2587 28.7137 36.7013C29.5578 37.5454 31.0045 36.9469 31.0045 35.7527C31.0045 35.1267 31.5119 34.6192 32.1379 34.6192H32.4331V31.9067L30.2041 28.1666C30.1518 28.0792 30.1243 27.9787 30.1243 27.8764V25.5032H28.296C27.9828 25.5032 27.729 25.2495 27.729 24.9367V21.7212H25.6988C25.3856 21.7212 25.1319 21.4675 25.1319 21.1543V19.3999ZM25.1319 16.4552H15.0393C14.539 16.4552 14.1334 16.8604 14.1334 17.3606C14.1334 17.8609 14.539 18.2665 15.0393 18.2665H25.1319V16.4552ZM39.7343 20.5878V14.1339H26.2657V20.5878H37.704H39.7343ZM40.8677 18.2665H50.9607C51.461 18.2665 51.8661 17.8609 51.8661 17.3606C51.8661 16.8604 51.461 16.4552 50.9607 16.4552H40.8677V18.2665ZM34.7418 25.5032H31.2577V27.7205L33 30.6435L34.7418 27.7205V25.5032ZM28.8629 21.7212C28.8629 22.6442 28.8629 24.3698 28.8629 24.3698H37.1371V21.7212H28.8629ZM32.4331 35.7531H32.1383C32.1379 37.9559 29.47 39.0601 27.9129 37.5035L26.6934 38.7225C28.25 40.28 27.1459 42.9475 24.943 42.9479V44.6713C27.1463 44.6717 28.2505 47.3401 26.693 48.8976L27.9129 50.1162C29.4713 48.5583 32.1379 49.6624 32.1383 51.8666H33.8617C33.8621 49.6646 36.53 48.5592 38.0875 50.1167L39.3066 48.8976C37.7495 47.3401 38.855 44.6717 41.0565 44.6713V42.9479C38.855 42.9475 37.7495 40.28 39.3061 38.7225L38.0875 37.503C36.53 39.0601 33.8621 37.9559 33.8617 35.7531H33.5665V37.238C33.5665 37.5508 33.3128 37.805 33 37.805C32.6872 37.805 32.4331 37.5508 32.4331 37.238V35.7531ZM33.0004 48.5204C30.4055 48.5204 28.2901 46.4041 28.2901 43.8101C28.2901 41.2156 30.4055 39.1002 33.0004 39.1002C35.594 39.1002 37.7108 41.2156 37.7108 43.8101C37.7108 46.4041 35.594 48.5204 33.0004 48.5204ZM33.0004 47.387C34.9698 47.387 36.5769 45.7795 36.5769 43.8101C36.5769 41.8398 34.9698 40.2336 33.0004 40.2336C31.0301 40.2336 29.4235 41.8398 29.4235 43.8101C29.4235 45.7795 31.0301 47.387 33.0004 47.387Z" fill="#0CB4C4"></path></svg>