<svg xmlns="http://www.w3.org/2000/svg" xmlns:xlink="http://www.w3.org/1999/xlink" version="1.1" id="Layer_1" x="0px" y="0px" width="60px" height="60px" viewBox="0 0 60 60" enable-background="new 0 0 60 60" xml:space="preserve"><g><path fill="#0CB4C4" d="M59.997,10.005c-0.003-2.761-2.239-4.997-5-5c-0.263,0-0.523,0.022-0.783,0.068 c-1.612-2.888-5.262-3.921-8.147-2.308c-1.621,0.906-2.73,2.513-3.003,4.349c-0.436,0.109-0.852,0.29-1.227,0.536 c-2.948-6.538-10.639-9.448-17.178-6.499C23.815,1.531,23.017,2,22.271,2.553c-3.557-3.464-9.246-3.39-12.71,0.166 c-0.913,0.94-1.612,2.067-2.045,3.308C7.346,6.013,7.174,6.005,7.002,6.005c-3.865,0-6.999,3.134-6.999,7 c0,3.865,3.134,6.999,6.999,6.999h2.061c0.513,4.552,4.358,7.992,8.938,7.999H29v9.848c-0.325-0.146-0.66-0.273-1-0.383v-3.466 h-5.999v3.466c-0.559,0.176-1.101,0.401-1.62,0.674l-2.45-2.452l-4.241,4.242l2.451,2.45c-0.271,0.52-0.498,1.061-0.673,1.619 h-3.466v2H0.003v2h11.999v2h3.466c0.175,0.559,0.401,1.1,0.673,1.619l-2.451,2.45l4.241,4.242l2.45-2.452 c0.52,0.272,1.062,0.499,1.62,0.674V60H28v-3.466c0.559-0.175,1.101-0.401,1.62-0.674l2.45,2.452l3.361-3.361 c0.207,0.135,0.419,0.257,0.641,0.368V58h5.999v-2.681c0.339-0.16,0.664-0.348,0.972-0.56l2.321,1.339l3-5.199l-2.317-1.338 c0.016-0.188,0.024-0.376,0.024-0.563c0-0.187-0.009-0.373-0.024-0.563l0.751-0.435h13.199v-2H47.729l-2.365-4.1l-2.321,1.34 c-0.308-0.213-0.633-0.4-0.972-0.561v-2.679h-5.83l0.07-0.07l-4.241-4.242L31,36.76v-8.757h13.998c4.414,0.005,7.994-3.568,8-7.981 c0.002-1.825-0.621-3.596-1.766-5.018h3.765C57.758,15.002,59.994,12.765,59.997,10.005z M38.072,44.058v-2.056h2v2.056 l0.665,0.235c0.577,0.203,1.111,0.511,1.576,0.908l0.539,0.461l1.78-1.026l1,1.731l-1.777,1.025l0.128,0.694 c0.117,0.604,0.117,1.224,0,1.828l-0.128,0.693l1.777,1.026l-1,1.731l-1.78-1.027L42.313,52.8 c-0.465,0.398-0.999,0.706-1.576,0.909l-0.665,0.235V56h-2v-2.056l-0.667-0.235c-0.578-0.203-1.113-0.512-1.579-0.909l-0.538-0.461 l-1.778,1.027l-1-1.731l1.776-1.026l-0.128-0.693c-0.115-0.604-0.115-1.225,0-1.828l0.128-0.694l-1.776-1.025l1-1.731l1.778,1.026 l0.538-0.461c0.466-0.396,1.001-0.705,1.579-0.908L38.072,44.058z M36.072,40.171v2.512c-0.34,0.16-0.665,0.348-0.974,0.56 l-1.138-0.657c-0.034-0.068-0.065-0.136-0.102-0.199L36.072,40.171z M33.484,39.932l-2.141,2.141l0.423,0.677 c0.095,0.15,0.168,0.313,0.251,0.469l-2.042,3.538c-0.127-2.747-2.457-4.871-5.207-4.745c-2.747,0.126-4.873,2.457-4.747,5.205 c0.128,2.748,2.458,4.873,5.207,4.747c2.571-0.119,4.628-2.176,4.747-4.747l2.124,1.223c-0.017,0.19-0.024,0.377-0.024,0.563 c0,0.185,0.008,0.372,0.024,0.563L29.776,50.9l2.518,4.36l-0.224,0.224l-2.144-2.143l-0.674,0.426 c-0.761,0.481-1.598,0.83-2.474,1.032L26,54.972V58h-1.999v-3.028l-0.779-0.177c-0.876-0.199-1.713-0.547-2.474-1.026l-0.674-0.427 l-2.144,2.143l-1.414-1.414l2.144-2.143l-0.427-0.675c-0.482-0.76-0.831-1.598-1.031-2.474l-0.172-0.778h-3.028v-2h3.028 l0.177-0.778c0.199-0.876,0.547-1.714,1.026-2.474l0.427-0.675l-2.144-2.143l1.414-1.414l2.144,2.143l0.674-0.426 c0.761-0.48,1.598-0.826,2.474-1.027l0.779-0.177v-3.028H26v3.028l0.779,0.177c0.876,0.201,1.713,0.547,2.474,1.027l0.674,0.426 l2.144-2.143L33.484,39.932z M28,47.001c0,1.656-1.344,3-2.999,3c-1.656,0-3-1.344-3-3s1.344-3,3-3 C26.656,44.001,28,45.345,28,47.001z M43.999,9.005h0.999v-1c-0.005-2.203,1.776-3.994,3.979-3.999 c1.672-0.004,3.169,1.033,3.749,2.6l0.347,0.918l0.925-0.331c0.319-0.119,0.658-0.182,0.999-0.188c1.656,0,3,1.344,3,3 s-1.344,3-3,3h-6.135c-1.794-0.995-3.901-1.261-5.885-0.738c-0.051-0.887-0.193-1.768-0.427-2.624 C42.926,9.239,43.449,9.009,43.999,9.005z M2.003,13.005c0.003-2.761,2.239-4.997,4.999-5c0.346,0,0.689,0.036,1.027,0.106 l0.949,0.199l0.225-0.946c0.894-3.749,4.659-6.064,8.41-5.17c1.175,0.28,2.255,0.859,3.138,1.683 c-1.677,1.697-2.852,3.826-3.393,6.15c-4.325,0.318-7.81,3.668-8.296,7.977H7.002C4.242,18.001,2.006,15.765,2.003,13.005z M44.998,26.003H18.001c-3.865-0.005-6.994-3.144-6.988-7.01c0.005-3.865,3.144-6.994,7.01-6.988l0,0l0.999,0.021l0.143-0.849 c0.996-5.989,6.658-10.036,12.646-9.04c5.313,0.885,9.201,5.484,9.189,10.868c0,0.149-0.011,0.299-0.021,0.444l-0.113,1.895 l1.533-0.739c2.982-1.443,6.571-0.198,8.015,2.785c1.444,2.981,0.198,6.569-2.784,8.014C46.809,25.8,45.91,26.006,44.998,26.003z"></path><path fill="#0CB4C4" d="M39.072,52c1.656,0,2.999-1.343,2.999-2.999s-1.343-3-2.999-3c-1.657,0-3,1.344-3,3S37.415,52,39.072,52z M39.072,48.001c0.552,0,1,0.448,1,1s-0.448,1-1,1c-0.554,0-1-0.448-1-1S38.519,48.001,39.072,48.001z"></path></g></svg>