<svg xmlns="http://www.w3.org/2000/svg" xmlns:xlink="http://www.w3.org/1999/xlink" version="1.1" id="Layer_1" x="0px" y="0px" width="81.782px" height="60px" viewBox="0 0 81.782 60" enable-background="new 0 0 81.782 60" xml:space="preserve"><g><g><path fill="#0CB4C4" d="M50.521,0.248c-6.51,0.033-12.645,3.05-16.647,8.186c-1.781-0.729-3.686-1.104-5.61-1.104 c-7.999,0.034-14.599,6.27-15.083,14.254C2.97,25.312-2.286,36.609,1.442,46.821C4.237,54.48,11.467,59.624,19.62,59.752h42.49 c10.869-0.143,19.564-9.068,19.423-19.938c-0.09-6.984-3.878-13.397-9.949-16.85c0-0.554,0.092-1.014,0.092-1.564 C71.675,9.717,62.203,0.248,50.521,0.248z M40.864,14.41c2.335,0,4.23,1.894,4.23,4.23s-1.896,4.23-4.23,4.23 s-4.23-1.894-4.23-4.23l0,0C36.634,16.304,38.529,14.41,40.864,14.41z M40.864,46.785c-2.335,0-4.23-1.895-4.23-4.233 c0-2.335,1.895-4.229,4.23-4.229s4.23,1.894,4.23,4.229l0,0C45.095,44.891,43.199,46.785,40.864,46.785z M79.953,40.16 L79.953,40.16L68.18,29.954h-6.99c-0.508-3.313-3.604-5.589-6.92-5.08c-3.313,0.507-5.587,3.606-5.078,6.919 c0.507,3.313,3.604,5.587,6.919,5.08c2.62-0.402,4.678-2.459,5.079-5.08h6.347L79.77,42.552 c-1.198,8.843-8.738,15.44-17.66,15.452H41.785v-9.472c3.312-0.509,5.588-3.607,5.078-6.919c-0.507-3.316-3.604-5.589-6.919-5.083 c-3.312,0.51-5.587,3.607-5.079,6.92c0.401,2.623,2.459,4.68,5.079,5.082v9.472H19.62c-8.982-0.022-16.549-6.722-17.66-15.636 l12.233-10.575h6.347c0.507,3.313,3.604,5.587,6.919,5.08c3.313-0.507,5.587-3.605,5.079-6.919 c-0.508-3.313-3.604-5.589-6.92-5.08c-2.62,0.4-4.678,2.458-5.078,5.08h-6.99L1.776,40.071 c0.017-7.773,5.086-14.629,12.509-16.923c0.367-0.115,0.623-0.444,0.644-0.828c0.099-7.259,5.985-13.102,13.243-13.153 c1.903-0.003,3.788,0.405,5.519,1.198c0.387,0.172,0.843,0.06,1.104-0.277c1.41-1.894,3.156-3.514,5.149-4.783v7.357 c-3.312,0.509-5.587,3.607-5.079,6.92c0.507,3.316,3.604,5.589,6.919,5.082c3.312-0.508,5.588-3.607,5.078-6.919 c-0.4-2.624-2.458-4.68-5.078-5.083V4.201c9.513-4.824,21.137-1.025,25.96,8.487c1.37,2.7,2.085,5.685,2.091,8.713 c0.001,0.644-0.03,1.289-0.092,1.931c-0.049,0.37,0.133,0.735,0.46,0.92C76.203,27.279,79.977,33.44,79.953,40.16z M59.351,30.873 c0,2.337-1.893,4.231-4.231,4.231c-2.335,0-4.229-1.895-4.229-4.231c0-2.335,1.894-4.23,4.229-4.23l0,0 C57.458,26.643,59.351,28.538,59.351,30.873z M22.288,30.873c0-2.335,1.894-4.23,4.229-4.23c2.338,0,4.233,1.895,4.233,4.23 c0,2.337-1.896,4.231-4.233,4.231l0,0c-2.299-0.052-4.138-1.931-4.138-4.231H22.288z"></path><path fill="#0CB4C4" d="M62.111,60H19.62c-8.202-0.129-15.6-5.391-18.41-13.093c-3.75-10.272,1.513-21.675,11.734-25.5 c0.57-8.013,7.268-14.291,15.32-14.325c1.901,0,3.76,0.354,5.53,1.053C37.869,2.996,43.955,0.033,50.521,0 c11.802,0,21.402,9.601,21.402,21.401c0,0.283-0.023,0.542-0.046,0.802c-0.019,0.203-0.038,0.405-0.044,0.62 c6.049,3.5,9.857,9.996,9.947,16.989C81.924,50.8,73.101,59.855,62.111,60L62.111,60z M28.264,7.578 C20.42,7.61,13.904,13.77,13.429,21.598l-0.011,0.163l-0.152,0.055C3.201,25.492-1.999,36.671,1.674,46.736 c2.742,7.512,9.955,12.643,17.949,12.768h42.484c10.714-0.142,19.316-8.972,19.177-19.687c-0.088-6.866-3.853-13.241-9.824-16.637 l-0.125-0.071v-0.145c0-0.286,0.023-0.546,0.048-0.808c0.022-0.245,0.044-0.49,0.044-0.756c0-11.527-9.378-20.905-20.905-20.905 c-6.474,0.033-12.471,2.981-16.452,8.089l-0.115,0.148L33.78,8.663C32.018,7.942,30.163,7.578,28.264,7.578z M62.109,58.252 H41.537v-9.933l0.211-0.032c1.536-0.236,2.889-1.057,3.81-2.31c0.92-1.255,1.297-2.791,1.061-4.326 c-0.43-2.818-2.901-4.943-5.748-4.943c-0.295,0-0.594,0.023-0.888,0.067c-3.173,0.488-5.359,3.466-4.872,6.638 c0.386,2.527,2.344,4.486,4.872,4.874l0.21,0.032v9.933H19.62c-9.084-0.022-16.782-6.838-17.905-15.853l-0.017-0.132 l12.403-10.723h6.653l0.032,0.21c0.431,2.817,2.902,4.941,5.748,4.941c0.295,0,0.594-0.023,0.888-0.068 c1.537-0.235,2.89-1.056,3.81-2.309c0.92-1.254,1.297-2.791,1.062-4.328c-0.432-2.816-2.902-4.941-5.745-4.941 c-0.296,0-0.597,0.023-0.892,0.069c-2.528,0.386-4.485,2.344-4.871,4.873l-0.032,0.21h-7.112L1.527,40.612l0.001-0.542 c0.017-7.924,5.115-14.82,12.683-17.16c0.27-0.084,0.455-0.322,0.47-0.604c0.1-7.326,6.151-13.335,13.489-13.387 c1.945,0,3.882,0.422,5.624,1.22c0.271,0.121,0.619,0.038,0.804-0.204c1.43-1.918,3.185-3.548,5.213-4.839l0.381-0.242v8.021 l-0.21,0.032c-3.173,0.488-5.359,3.465-4.872,6.637c0.438,2.864,2.855,4.942,5.747,4.942c0.296,0,0.595-0.022,0.89-0.068 c1.536-0.236,2.889-1.057,3.81-2.31c0.92-1.254,1.297-2.791,1.061-4.326c-0.386-2.528-2.343-4.487-4.87-4.875l-0.211-0.032V4.049 l0.136-0.069c2.774-1.407,5.746-2.12,8.834-2.12c7.418,0,14.108,4.106,17.459,10.715c1.38,2.719,2.112,5.771,2.118,8.825 c0.001,0.647-0.03,1.304-0.093,1.955c-0.037,0.281,0.095,0.544,0.335,0.68c6.112,3.084,9.899,9.266,9.875,16.125l-0.002,0.541 l-12.112-10.5h-7.11l-0.032-0.21c-0.432-2.816-2.901-4.941-5.745-4.941c-0.297,0-0.597,0.023-0.892,0.069 c-1.537,0.235-2.891,1.055-3.811,2.309c-0.92,1.253-1.297,2.79-1.061,4.327c0.431,2.817,2.901,4.941,5.748,4.941 c0.296,0,0.594-0.023,0.888-0.068c2.528-0.388,4.485-2.347,4.872-4.873l0.032-0.21h6.653l0.069,0.062l12.334,10.847l-0.018,0.132 C78.807,51.504,71.109,58.24,62.109,58.252z M42.033,57.756h20.076c8.709-0.012,16.163-6.496,17.396-15.106L67.441,32.041h-6.043 c-0.493,2.639-2.578,4.667-5.25,5.077c-0.319,0.049-0.644,0.074-0.964,0.074c-3.09,0-5.771-2.306-6.238-5.362 c-0.257-1.667,0.152-3.335,1.15-4.696c0.999-1.361,2.468-2.251,4.135-2.505c0.32-0.049,0.646-0.075,0.968-0.075 c3.015,0,5.644,2.2,6.199,5.151h6.874l0.07,0.061l11.355,9.846c-0.174-6.451-3.816-12.217-9.605-15.139 c-0.428-0.241-0.657-0.7-0.595-1.174c0.06-0.626,0.091-1.268,0.09-1.899c-0.006-2.977-0.72-5.952-2.063-8.6 C64.258,6.358,57.737,2.356,50.507,2.356c-2.959,0-5.809,0.672-8.474,1.998v8.098c2.642,0.496,4.667,2.583,5.075,5.254 c0.257,1.667-0.152,3.334-1.151,4.695c-0.999,1.36-2.467,2.25-4.134,2.506c-0.319,0.049-0.644,0.074-0.965,0.074 c-3.138,0-5.762-2.256-6.237-5.363c-0.517-3.371,1.747-6.54,5.076-7.167V5.764c-1.817,1.217-3.397,2.719-4.703,4.472 c-0.326,0.423-0.917,0.571-1.403,0.355c-1.681-0.77-3.546-1.177-5.397-1.177c-7.089,0.05-12.92,5.841-13.016,12.908 c-0.027,0.494-0.355,0.916-0.817,1.062C7.173,25.606,2.279,32.05,2.034,39.523l11.424-9.818h6.874 c0.493-2.641,2.577-4.669,5.249-5.077c0.321-0.049,0.646-0.075,0.968-0.075c3.086,0,5.767,2.305,6.235,5.361 c0.256,1.668-0.153,3.336-1.151,4.698c-0.999,1.359-2.467,2.249-4.134,2.505c-0.32,0.049-0.643,0.074-0.964,0.074 c-3.018,0-5.647-2.2-6.202-5.151h-6.046L2.223,42.47c1.151,8.701,8.607,15.264,17.398,15.286h20.076v-9.015 c-2.64-0.495-4.667-2.581-5.076-5.253c-0.529-3.442,1.843-6.673,5.286-7.203c0.319-0.048,0.643-0.073,0.963-0.073 c3.09,0,5.771,2.306,6.238,5.363c0.257,1.667-0.152,3.335-1.151,4.695c-0.956,1.303-2.344,2.175-3.924,2.471V57.756z M40.864,47.033c-2.469,0-4.478-2.011-4.478-4.481c0-2.469,2.009-4.477,4.478-4.477c2.47,0,4.479,2.008,4.479,4.477 C45.343,45.022,43.334,47.033,40.864,47.033z M40.864,38.571c-2.195,0-3.982,1.786-3.982,3.98c0,2.197,1.787,3.985,3.982,3.985 s3.982-1.788,3.982-3.985C44.847,40.357,43.06,38.571,40.864,38.571z M55.119,35.353c-2.469,0-4.477-2.01-4.477-4.479 c0-2.469,2.008-4.478,4.477-4.478c2.471,0,4.479,2.008,4.479,4.478C59.599,33.343,57.59,35.353,55.119,35.353z M55.119,26.891 c-2.195,0-3.98,1.786-3.98,3.982c0,2.196,1.785,3.984,3.98,3.984c2.196,0,3.984-1.788,3.984-3.984 C59.104,28.677,57.315,26.891,55.119,26.891z M26.516,35.353c-2.338-0.053-4.25-1.929-4.379-4.232H22.04v-0.247 c0-2.469,2.007-4.478,4.476-4.478c2.471,0,4.481,2.008,4.481,4.478C30.998,33.343,28.987,35.353,26.516,35.353z M22.543,30.625 h0.083v0.248c0,2.147,1.748,3.936,3.896,3.984c2.192,0,3.979-1.788,3.979-3.984c0-2.196-1.788-3.982-3.985-3.982 C24.405,26.891,22.671,28.544,22.543,30.625z M40.864,23.119c-2.469,0-4.478-2.008-4.478-4.478s2.009-4.479,4.478-4.479 c2.47,0,4.479,2.009,4.479,4.479S43.334,23.119,40.864,23.119z M40.864,14.658c-2.195,0-3.982,1.787-3.982,3.982 c0,2.195,1.787,3.982,3.982,3.982s3.982-1.787,3.982-3.982C44.847,16.445,43.06,14.658,40.864,14.658z"></path></g></g></svg>