<svg width="60" height="60" viewBox="0 0 60 60" fill="none" xmlns="http://www.w3.org/2000/svg"><path d="M19.2857 4.28571L21.4285 0H8.31836L10.4612 4.28571H19.2857Z" fill="#0CB4C4"></path><path d="M53.5714 52.0257V49.2866C53.5714 48.7184 53.3454 48.1733 52.9436 47.7715L49.2857 44.1136V40.4716C48.1621 40.237 47.078 39.8401 46.0714 39.2461C45.7239 39.4512 45.3636 39.6245 45 39.7876V45.0008C45 45.569 45.226 46.1141 45.6278 46.5159L49.2857 50.1738V52.0257C48.0112 52.7691 47.1429 54.1358 47.1429 55.7151C47.1429 58.0788 49.066 60.0008 51.4286 60.0008C53.7912 60.0008 55.7143 58.0788 55.7143 55.7151C55.7143 54.1358 54.846 52.7691 53.5714 52.0257Z" fill="#0CB4C4"></path><path d="M42.8573 52.0248V40.4707C42.1564 40.6171 41.4436 40.7142 40.7144 40.7142C39.9853 40.7142 39.2725 40.6171 38.5716 40.4707V52.0248C37.297 52.7682 36.4287 54.1349 36.4287 55.7142C36.4287 58.0779 38.3518 59.9999 40.7144 59.9999C43.077 59.9999 45.0001 58.0779 45.0001 55.7142C45.0001 54.1349 44.1318 52.7682 42.8573 52.0248Z" fill="#0CB4C4"></path><path d="M35.3567 39.2461C34.3502 39.8401 33.2661 40.237 32.1424 40.4716V44.1136L28.4845 47.7715C28.0827 48.1733 27.8567 48.7184 27.8567 49.2866V52.0257C26.5822 52.7691 25.7139 54.1358 25.7139 55.7151C25.7139 58.0788 27.637 60.0008 29.9996 60.0008C32.3622 60.0008 34.2853 58.0788 34.2853 55.7151C34.2853 54.1358 33.417 52.7691 32.1424 52.0257V50.1738L35.8004 46.5159C36.2021 46.1141 36.4282 45.569 36.4282 45.0008V39.7876C36.0646 39.6245 35.7042 39.4512 35.3567 39.2461Z" fill="#0CB4C4"></path><path d="M19.2857 30C19.2857 24.5801 23.3308 20.0872 28.5603 19.382C28.9126 18.3601 29.4189 17.422 30 16.5403V2.14286C30 0.959342 29.0407 0 27.8571 0H23.5714L20.9494 5.24401C20.5864 5.97002 19.8443 6.42857 19.0326 6.42857H10.7143C9.9026 6.42857 9.16064 5.97002 8.79756 5.24401L6.17549 0H2.14286C0.959342 0 0 0.959342 0 2.14286V42.8571C0 44.0407 0.959342 45 2.14286 45H27.8571C29.0407 45 30 44.0407 30 42.8571V40.7143C24.0925 40.7143 19.2857 35.9075 19.2857 30ZM12.5432 33.9718L8.25753 38.2575C8.04827 38.4668 7.77413 38.5714 7.5 38.5714C7.22586 38.5714 6.95173 38.4668 6.74247 38.2575L4.59961 36.1147C4.18108 35.6961 4.18108 35.0181 4.59961 34.5996C5.01814 34.1811 5.69615 34.1811 6.11468 34.5996L7.5 35.9849L11.0282 32.4568C11.4467 32.0382 12.1247 32.0382 12.5432 32.4568C12.9618 32.8753 12.9618 33.5533 12.5432 33.9718ZM12.5432 23.2575L8.25753 27.5432C8.04827 27.7525 7.77413 27.8571 7.5 27.8571C7.22586 27.8571 6.95173 27.7525 6.74247 27.5432L4.59961 25.4004C4.18108 24.9819 4.18108 24.3038 4.59961 23.8853C5.01814 23.4668 5.69615 23.4668 6.11468 23.8853L7.5 25.2706L11.0282 21.7425C11.4467 21.3239 12.1247 21.3239 12.5432 21.7425C12.9618 22.161 12.9618 22.839 12.5432 23.2575ZM12.5432 12.5432L8.25753 16.829C8.04827 17.0382 7.77413 17.1429 7.5 17.1429C7.22586 17.1429 6.95173 17.0382 6.74247 16.829L4.59961 14.6861C4.18108 14.2676 4.18108 13.5896 4.59961 13.171C5.01814 12.7525 5.69615 12.7525 6.11468 13.171L7.5 14.5564L11.0282 11.0282C11.4467 10.6097 12.1247 10.6097 12.5432 11.0282C12.9618 11.4467 12.9618 12.1247 12.5432 12.5432Z" fill="#0CB4C4"></path><path d="M51.4287 21.4289C51.3555 21.4289 51.2877 21.4486 51.2149 21.4504C50.23 16.5497 45.9051 12.8574 40.7144 12.8574C35.5238 12.8574 31.1988 16.5497 30.214 21.4504C30.1411 21.4486 30.0734 21.4289 30.0001 21.4289C25.2662 21.4289 21.4287 25.2663 21.4287 30.0003C21.4287 34.7342 25.2662 38.5717 30.0001 38.5717C32.0388 38.5717 33.886 37.8304 35.3573 36.6419C36.8285 37.8304 38.6758 38.5717 40.7144 38.5717C42.753 38.5717 44.6003 37.8304 46.0716 36.6419C47.5428 37.8304 49.3901 38.5717 51.4287 38.5717C56.1626 38.5717 60.0001 34.7342 60.0001 30.0003C60.0001 25.2663 56.1626 21.4289 51.4287 21.4289Z" fill="#0CB4C4"></path></svg>