<svg width="60" height="60" viewBox="0 0 60 60" fill="none" xmlns="http://www.w3.org/2000/svg"><path d="M46.0008 19.4584C45.0286 19.4585 44.0594 19.5652 43.1105 19.7766C42.9457 16.3332 41.4618 13.0853 38.9666 10.7066C36.4713 8.32793 33.1562 7.00098 29.7089 7.00098C26.2615 7.00098 22.9464 8.32793 20.4512 10.7066C17.956 13.0853 16.4721 16.3332 16.3073 19.7766C15.3584 19.5652 14.3891 19.4585 13.4169 19.4584C9.85852 19.4584 6.44588 20.872 3.92972 23.3882C1.41356 25.9043 0 29.317 0 32.8754C0 36.4337 1.41356 39.8464 3.92972 42.3625C6.44588 44.8787 9.85852 46.2923 13.4169 46.2923H20.1254V44.3756H13.4169C11.7519 44.3789 10.1061 44.0206 8.5931 43.3256C7.08013 42.6305 5.73613 41.6152 4.65399 40.3498C3.57184 39.0845 2.77736 37.5992 2.32546 35.9967C1.87356 34.3942 1.77501 32.7127 2.03662 31.0684C2.29824 29.4241 2.91377 27.8562 3.84069 26.4731C4.76762 25.09 5.98381 23.9246 7.40523 23.0576C8.82665 22.1905 10.4194 21.6424 12.0734 21.4513C13.7273 21.2601 15.4031 21.4303 16.9849 21.9502C17.1325 21.9982 17.2895 22.0096 17.4425 21.9834C17.5956 21.9573 17.7399 21.8944 17.8632 21.8001C17.9866 21.7058 18.0851 21.583 18.1505 21.4422C18.2158 21.3014 18.246 21.1468 18.2384 20.9918L18.225 20.7656C18.2173 20.6478 18.2087 20.5328 18.2087 20.4168C18.2087 17.3668 19.4203 14.4416 21.577 12.2849C23.7337 10.1282 26.6588 8.91659 29.7089 8.91659C32.7589 8.91659 35.684 10.1282 37.8408 12.2849C39.9975 14.4416 41.2091 17.3668 41.2091 20.4168C41.2091 20.5328 41.2005 20.6478 41.1928 20.7618L41.1794 20.988C41.1718 21.143 41.2019 21.2976 41.2673 21.4384C41.3326 21.5792 41.4312 21.702 41.5545 21.7963C41.6778 21.8906 41.8222 21.9535 41.9752 21.9796C42.1282 22.0057 42.2853 21.9943 42.4329 21.9463C44.0142 21.4284 45.6891 21.2599 47.342 21.4523C48.9948 21.6447 50.5862 22.1935 52.0062 23.0608C53.4263 23.9281 54.6413 25.0932 55.5673 26.4758C56.4932 27.8583 57.1081 29.4254 57.3695 31.0687C57.631 32.712 57.5326 34.3925 57.0814 35.9941C56.6301 37.5957 55.8367 39.0804 54.7558 40.3455C53.6749 41.6106 52.3324 42.6262 50.8209 43.3219C49.3093 44.0177 47.6648 44.3772 46.0008 44.3756H39.2924V46.2923H46.0008C49.5592 46.2923 52.9719 44.8787 55.488 42.3625C58.0042 39.8464 59.4177 36.4337 59.4177 32.8754C59.4177 29.317 58.0042 25.9043 55.488 23.3882C52.9719 20.872 49.5592 19.4584 46.0008 19.4584Z" fill="#0CB4C4"></path><path d="M22.0956 47.0646C22.0399 47.2697 22.0267 47.4841 22.0567 47.6945C22.0866 47.9049 22.1592 48.107 22.27 48.2884L23.351 50.0786C23.5752 50.4381 23.9287 50.698 24.3386 50.805C24.7486 50.9119 25.1839 50.8578 25.5552 50.6536L25.8034 50.5156C26.1764 50.7796 26.5756 51.0044 26.9947 51.1865V51.3992C26.9995 51.8281 27.1742 52.2376 27.4805 52.5378C27.7868 52.838 28.1997 53.0045 28.6286 53.0006H30.7888C31.217 53.0032 31.6288 52.8361 31.9341 52.5358C32.2394 52.2355 32.4134 51.8265 32.418 51.3983V51.1855C32.8364 51.0045 33.2355 50.7817 33.6092 50.5204L33.8584 50.6575C34.2297 50.8614 34.665 50.9154 35.0749 50.8085C35.4848 50.7015 35.8382 50.4418 36.0626 50.0825L37.1426 48.2932C37.2537 48.1118 37.3266 47.9095 37.3568 47.6989C37.3869 47.4883 37.3737 47.2738 37.318 47.0684C37.2612 46.8597 37.1631 46.6645 37.0294 46.4945C36.8957 46.3244 36.7292 46.183 36.5398 46.0785L36.3328 45.9644C36.3763 45.5477 36.3763 45.1276 36.3328 44.7109L36.5398 44.5969C36.7292 44.4924 36.8957 44.3509 37.0294 44.1808C37.1631 44.0108 37.2612 43.8156 37.318 43.6069C37.3737 43.4018 37.3869 43.1874 37.3569 42.977C37.3269 42.7666 37.2543 42.5645 37.1436 42.3831L36.0626 40.5929C35.8375 40.2343 35.4841 39.9751 35.0745 39.8683C34.6649 39.7614 34.2299 39.8149 33.8584 40.0179L33.6102 40.1559C33.2372 39.8919 32.838 39.6671 32.4189 39.485V39.2723C32.4151 38.8434 32.2414 38.4335 31.9358 38.1326C31.6302 37.8316 31.2177 37.6642 30.7888 37.667H28.6286C28.2004 37.6645 27.7886 37.8316 27.4833 38.1319C27.178 38.4322 27.004 38.8412 26.9994 39.2694V39.4821C26.581 39.6632 26.1819 39.886 25.8082 40.1472L25.559 40.0102C25.1876 39.8068 24.7525 39.753 24.3427 39.8599C23.933 39.9668 23.5796 40.2263 23.3548 40.5852L22.2748 42.3744C22.1637 42.5559 22.0908 42.7581 22.0607 42.9687C22.0305 43.1793 22.0437 43.3939 22.0994 43.5992C22.1562 43.8079 22.2543 44.0031 22.388 44.1732C22.5217 44.3432 22.6882 44.4847 22.8776 44.5892L23.0846 44.7032C23.0411 45.1199 23.0411 45.5401 23.0846 45.9568L22.8776 46.0708C22.6871 46.1753 22.5196 46.3172 22.3852 46.488C22.2509 46.6587 22.1523 46.8549 22.0956 47.0646ZM24.9649 45.3338C24.9651 45.1331 24.9795 44.9326 25.008 44.7339C25.0496 44.4155 24.9939 44.0919 24.8482 43.8057C24.7024 43.5196 24.4735 43.2842 24.1915 43.1306L24.0889 43.075L24.8556 41.8109L25.0272 41.9068C25.308 42.0585 25.6264 42.127 25.9448 42.1043C26.2632 42.0815 26.5686 41.9685 26.825 41.7784C27.1503 41.5402 27.5045 41.3444 27.8792 41.1957C28.1825 41.08 28.444 40.8758 28.6297 40.6095C28.8153 40.3432 28.9165 40.0272 28.92 39.7026V39.5837H30.5128V39.7016C30.5161 40.0261 30.6172 40.3421 30.8029 40.6083C30.9885 40.8745 31.2501 41.0785 31.5535 41.1938C31.928 41.3437 32.2822 41.5401 32.6077 41.7784C32.8643 41.9678 33.1695 42.0804 33.4877 42.1029C33.8058 42.1255 34.1238 42.0571 34.4046 41.9058L34.5752 41.81L35.3419 43.074L35.2403 43.1296C34.9581 43.2828 34.7289 43.5179 34.583 43.804C34.4371 44.09 34.3812 44.4136 34.4228 44.732C34.4803 45.1302 34.4803 45.5346 34.4228 45.9328C34.3812 46.2512 34.4369 46.5748 34.5827 46.861C34.7284 47.1472 34.9573 47.3825 35.2393 47.5361L35.3419 47.5917L34.5752 48.8558L34.4037 48.7599C34.1228 48.608 33.8045 48.5393 33.486 48.5621C33.1675 48.5848 32.8622 48.698 32.6058 48.8884C32.2805 49.1265 31.9263 49.3223 31.5516 49.471C31.2483 49.5867 30.9868 49.7909 30.8012 50.0572C30.6155 50.3235 30.5144 50.6395 30.5108 50.9641V51.0839H28.9123V50.9661C28.909 50.6415 28.8079 50.3255 28.6222 50.0594C28.4366 49.7932 28.1749 49.5891 27.8715 49.4739C27.497 49.324 27.1429 49.1276 26.8174 48.8893C26.5608 48.6999 26.2556 48.5873 25.9374 48.5647C25.6193 48.5422 25.3012 48.6105 25.0205 48.7619L24.8499 48.8577L24.0832 47.5936L24.1848 47.538C24.467 47.3848 24.6962 47.1497 24.8421 46.8637C24.988 46.5776 25.0439 46.2541 25.0022 45.9357C24.9757 45.7362 24.9632 45.5351 24.9649 45.3338Z" fill="#0CB4C4"></path><path d="M29.7087 48.6879C30.3721 48.6879 31.0206 48.4912 31.5722 48.1227C32.1238 47.7541 32.5537 47.2302 32.8076 46.6173C33.0615 46.0044 33.1279 45.33 32.9985 44.6793C32.8691 44.0287 32.5496 43.431 32.0805 42.9619C31.6114 42.4928 31.0138 42.1734 30.3631 42.0439C29.7124 41.9145 29.038 41.9809 28.4251 42.2348C27.8122 42.4887 27.2883 42.9186 26.9198 43.4702C26.5512 44.0218 26.3545 44.6703 26.3545 45.3337C26.3545 46.2233 26.7079 47.0765 27.3369 47.7055C27.966 48.3346 28.8191 48.6879 29.7087 48.6879ZM29.7087 43.8962C29.993 43.8962 30.271 43.9805 30.5074 44.1385C30.7438 44.2964 30.928 44.5209 31.0368 44.7836C31.1456 45.0463 31.1741 45.3353 31.1186 45.6142C31.0632 45.893 30.9262 46.1492 30.7252 46.3502C30.5242 46.5512 30.268 46.6882 29.9892 46.7436C29.7103 46.7991 29.4213 46.7706 29.1586 46.6618C28.8959 46.553 28.6714 46.3688 28.5135 46.1324C28.3555 45.896 28.2712 45.618 28.2712 45.3337C28.2712 44.9525 28.4226 44.5868 28.6922 44.3172C28.9618 44.0476 29.3275 43.8962 29.7087 43.8962Z" fill="#0CB4C4"></path><path d="M30.6677 28.084H28.751V30.0007H30.6677V28.084Z" fill="#0CB4C4"></path><path d="M30.6677 24.25H28.751V26.1667H30.6677V24.25Z" fill="#0CB4C4"></path><path d="M30.6677 12.75H28.751V14.6667H30.6677V12.75Z" fill="#0CB4C4"></path><path d="M30.6677 16.584H28.751V18.5007H30.6677V16.584Z" fill="#0CB4C4"></path><path d="M30.6677 20.417H28.751V22.3337H30.6677V20.417Z" fill="#0CB4C4"></path><path d="M30.6677 31.917H28.751V33.8337H30.6677V31.917Z" fill="#0CB4C4"></path><path d="M14.3751 25.209C13.3584 25.209 12.3834 25.6129 11.6645 26.3318C10.9456 27.0507 10.5417 28.0257 10.5417 29.0424V30.9591H9.58335C9.32918 30.9591 9.08542 31.0601 8.90569 31.2398C8.72597 31.4195 8.625 31.6633 8.625 31.9174V38.6259C8.625 38.8801 8.72597 39.1238 8.90569 39.3036C9.08542 39.4833 9.32918 39.5842 9.58335 39.5842H19.1669C19.421 39.5842 19.6648 39.4833 19.8445 39.3036C20.0242 39.1238 20.1252 38.8801 20.1252 38.6259V31.9174C20.1252 31.6633 20.0242 31.4195 19.8445 31.2398C19.6648 31.0601 19.421 30.9591 19.1669 30.9591H18.2085V29.0424C18.2085 28.0257 17.8046 27.0507 17.0857 26.3318C16.3668 25.6129 15.3918 25.209 14.3751 25.209ZM12.4584 29.0424C12.4584 28.534 12.6603 28.0465 13.0198 27.6871C13.3792 27.3276 13.8668 27.1257 14.3751 27.1257C14.8834 27.1257 15.371 27.3276 15.7304 27.6871C16.0899 28.0465 16.2918 28.534 16.2918 29.0424V30.9591H12.4584V29.0424ZM18.2085 37.6675H10.5417V32.8758H18.2085V37.6675Z" fill="#0CB4C4"></path><path d="M40.2503 28.5627C39.5999 28.5586 38.9592 28.72 38.3885 29.0317C37.8177 29.3435 37.3356 29.7953 36.9876 30.3447C36.6396 30.8941 36.4371 31.523 36.3991 32.1723C36.3612 32.8215 36.489 33.4698 36.7706 34.056C37.0522 34.6422 37.4784 35.1471 38.0089 35.5233C38.5395 35.8994 39.157 36.1344 39.8034 36.2061C40.4498 36.2778 41.1038 36.1838 41.7039 35.9331C42.304 35.6824 42.8304 35.2831 43.2336 34.7728L46.0224 36.0129C46.0167 36.0858 46.0004 36.1557 46.0004 36.2295C45.9961 36.903 46.227 37.5569 46.6532 38.0785C47.0794 38.6 47.6742 38.9565 48.335 39.0866C48.9959 39.2166 49.6814 39.112 50.2734 38.7908C50.8654 38.4696 51.3268 37.9519 51.578 37.327C51.8292 36.7021 51.8546 36.0091 51.6497 35.3675C51.4448 34.7259 51.0224 34.1759 50.4555 33.8123C49.8885 33.4487 49.2125 33.2943 48.5439 33.3757C47.8753 33.4571 47.2561 33.7692 46.7929 34.2582L44.0204 33.0258C44.1048 32.6102 44.1048 32.182 44.0204 31.7665L46.7929 30.534C47.2531 31.0164 47.8669 31.3234 48.5288 31.4022C49.1908 31.481 49.8595 31.3267 50.42 30.9658C50.9805 30.6049 51.3977 30.06 51.6 29.4248C51.8022 28.7896 51.7768 28.1038 51.5282 27.4853C51.2795 26.8668 50.8231 26.3542 50.2375 26.0358C49.6518 25.7174 48.9735 25.6129 48.3192 25.7405C47.6649 25.868 47.0754 26.2195 46.6523 26.7346C46.2291 27.2497 45.9986 27.8961 46.0004 28.5627C46.0004 28.6365 46.0167 28.7065 46.0224 28.7793L43.2336 30.0194C42.8785 29.5672 42.4256 29.2013 41.9089 28.9491C41.3923 28.6968 40.8252 28.5647 40.2503 28.5627ZM40.2503 34.3128C39.8712 34.3128 39.5006 34.2004 39.1854 33.9898C38.8702 33.7792 38.6245 33.4798 38.4795 33.1296C38.3344 32.7794 38.2964 32.394 38.3704 32.0222C38.4444 31.6504 38.6269 31.3089 38.895 31.0408C39.163 30.7727 39.5045 30.5902 39.8763 30.5162C40.2481 30.4423 40.6335 30.4802 40.9838 30.6253C41.334 30.7704 41.6333 31.0161 41.844 31.3313C42.0546 31.6465 42.167 32.017 42.167 32.3961C42.167 32.9045 41.965 33.392 41.6056 33.7514C41.2461 34.1109 40.7586 34.3128 40.2503 34.3128ZM48.8754 35.2712C49.065 35.2712 49.2503 35.3274 49.4079 35.4327C49.5655 35.538 49.6883 35.6877 49.7608 35.8628C49.8334 36.0379 49.8523 36.2306 49.8154 36.4165C49.7784 36.6024 49.6871 36.7731 49.5531 36.9072C49.4191 37.0412 49.2483 37.1325 49.0624 37.1695C48.8765 37.2064 48.6838 37.1875 48.5087 37.1149C48.3336 37.0424 48.1839 36.9195 48.0786 36.7619C47.9733 36.6043 47.9171 36.4191 47.9171 36.2295C47.9171 35.9753 48.018 35.7316 48.1978 35.5519C48.3775 35.3721 48.6213 35.2712 48.8754 35.2712ZM48.8754 27.6044C49.065 27.6044 49.2503 27.6606 49.4079 27.7659C49.5655 27.8712 49.6883 28.0209 49.7608 28.196C49.8334 28.3711 49.8523 28.5638 49.8154 28.7497C49.7784 28.9356 49.6871 29.1063 49.5531 29.2404C49.4191 29.3744 49.2483 29.4657 49.0624 29.5026C48.8765 29.5396 48.6838 29.5206 48.5087 29.4481C48.3336 29.3756 48.1839 29.2527 48.0786 29.0951C47.9733 28.9375 47.9171 28.7523 47.9171 28.5627C47.9171 28.3085 48.018 28.0648 48.1978 27.8851C48.3775 27.7053 48.6213 27.6044 48.8754 27.6044Z" fill="#0CB4C4"></path></svg>