<svg width="67" height="60" viewBox="0 0 67 60" fill="none" xmlns="http://www.w3.org/2000/svg"><path d="M32.6891 50.9651C32.458 51.387 31.9381 51.547 31.5193 51.3143C31.1005 51.0815 30.9416 50.5577 31.1727 50.1358L38.6825 36.3143C39.0147 35.7032 39.9101 35.6886 40.2278 36.3725L47.03 50.0194C47.4055 50.7905 46.5679 51.6052 45.8169 51.1542L37.4405 46.2949C37.0361 46.0621 36.8917 45.5238 37.1228 45.1018C37.3539 44.6799 37.8882 44.549 38.2926 44.7818L44.1849 48.2153L39.4046 38.613L32.6891 50.9651ZM49.1097 34.0883C52.128 34.0737 54.9009 35.8632 56.114 38.6712C62.0208 38.4675 67.0033 43.3123 67.0033 49.3356C67.0033 55.097 62.4541 59.8254 56.7495 59.9855C56.735 59.9855 56.7206 59.9855 56.7062 59.9855L26.0313 60C21.9587 60 18.3626 57.6722 16.5863 54.1513H1.14777C0.671184 54.1513 0.28125 53.7585 0.28125 53.2784V0.872939C0.28125 0.392822 0.671184 0 1.14777 0H46.2501C46.7267 0 47.1167 0.392822 47.1167 0.872939V30.0873C47.9687 31.2949 48.6475 32.6334 49.1097 34.0883ZM15.8931 52.4054C14.42 47.4879 16.6585 42.2357 21.1355 39.8788C20.3267 31.3822 26.9556 24.0204 35.4331 24.0204C39.2458 24.0204 42.7696 25.5335 45.3836 28.065V19.2774H2.01429V52.4054H15.8931ZM52.3447 36.7798C51.2471 36.0669 49.9184 35.7177 48.5753 35.8632C48.1565 35.9214 47.7377 35.645 47.6366 35.2231C46.1924 29.7236 41.2099 25.7808 35.4186 25.7808C27.7355 25.7808 21.8432 32.6334 22.9119 40.2861C22.9696 40.6644 22.7674 41.0427 22.4064 41.2027C16.7596 43.7342 15.3587 51.227 19.7635 55.6499C21.3666 57.2648 23.5762 58.2541 26.0313 58.2541H56.7062C59.0891 58.1814 61.2265 57.1484 62.7862 55.5335C66.2523 51.9253 66.079 46.1348 62.3963 42.7449C60.6055 41.0863 58.1504 40.2134 55.623 40.4462C55.2331 40.4753 54.8576 40.2425 54.7276 39.8497C54.2799 38.5403 53.4278 37.4782 52.3447 36.7798ZM18.6226 12.7158C18.9981 13.0068 19.0703 13.5597 18.7815 13.9379C18.4926 14.3162 17.9438 14.3889 17.5683 14.098L12.6869 10.3298C12.2248 9.96605 12.2392 9.28225 12.7014 8.93307L17.5828 5.16489C17.9583 4.87391 18.5071 4.94665 18.7959 5.32493C19.0847 5.7032 19.0125 6.25606 18.637 6.54704L14.6222 9.63143L18.6226 12.7158ZM25.4103 4.88846C25.6558 4.46654 26.1758 4.3356 26.5946 4.56838C27.0134 4.81571 27.1434 5.33948 26.9123 5.7614L21.9731 14.3744C21.7421 14.7963 21.2077 14.9273 20.7889 14.6945C20.3701 14.4471 20.2257 13.9234 20.4712 13.5015L25.4103 4.88846ZM29.8296 14.098C29.4541 14.3889 28.9053 14.3162 28.6165 13.9379C28.3276 13.5597 28.3998 13.0068 28.7753 12.7158L32.7613 9.63143L28.7753 6.54704C28.3998 6.25606 28.3276 5.7032 28.6165 5.32493C28.9053 4.94665 29.4541 4.87391 29.8296 5.16489L34.711 8.93307C35.1587 9.28225 35.1876 9.96605 34.7254 10.3298L29.8296 14.098ZM6.63573 41.3919C6.15915 41.3919 5.76921 40.999 5.76921 40.5189C5.76921 40.0388 6.15915 39.646 6.63573 39.646H13.0335C13.5101 39.646 13.9001 40.0388 13.9001 40.5189C13.9001 40.999 13.5101 41.3919 13.0335 41.3919H6.63573ZM6.63573 35.936C6.15915 35.936 5.76921 35.5432 5.76921 35.063C5.76921 34.5829 6.15915 34.1901 6.63573 34.1901H19.4313C19.9079 34.1901 20.2979 34.5829 20.2979 35.063C20.2979 35.5432 19.9079 35.936 19.4313 35.936H6.63573ZM6.63573 30.4801C6.15915 30.4801 5.76921 30.0873 5.76921 29.6072C5.76921 29.1271 6.15915 28.7342 6.63573 28.7342H19.4313C19.9079 28.7342 20.2979 29.1271 20.2979 29.6072C20.2979 30.0873 19.9079 30.4801 19.4313 30.4801H6.63573ZM6.63573 25.0242C6.15915 25.0242 5.76921 24.6314 5.76921 24.1513C5.76921 23.6712 6.15915 23.2784 6.63573 23.2784H19.4313C19.9079 23.2784 20.2979 23.6712 20.2979 24.1513C20.2979 24.6314 19.9079 25.0242 19.4313 25.0242H6.63573ZM45.3836 1.74588H2.01429V17.5315H45.3836V1.74588Z" fill="#0CB4C4"></path></svg>