<svg width="55" height="60" viewBox="0 0 55 60" fill="none" xmlns="http://www.w3.org/2000/svg"><path d="M0.78125 57.1243C0.78125 58.71 2.07125 60 3.65694 60H14.2578C15.8435 60 17.1335 58.71 17.1335 57.1243V33.4447C17.1335 31.859 15.8435 30.569 14.2578 30.569H9.89487V27.1577H19.7496C20.2673 27.1577 20.6871 26.7379 20.6871 26.2202V22.4249H26.7401V30.569H22.3771C20.7914 30.569 19.5014 31.859 19.5014 33.4447V57.1243C19.5014 58.71 20.7914 60 22.3771 60H32.9775C34.5632 60 35.8537 58.71 35.8537 57.1243V33.4447C35.8537 31.859 34.5632 30.569 32.9775 30.569H28.6151V22.4249H34.6677V26.2202C34.6677 26.7379 35.0875 27.1577 35.6052 27.1577H45.4599V30.569H41.0974C39.5117 30.569 38.2217 31.859 38.2217 33.4447V57.1243C38.2217 58.71 39.5117 60 41.0974 60H51.6978C53.2835 60 54.5735 58.71 54.5735 57.1243V33.4447C54.5735 31.859 53.2835 30.569 51.6978 30.569H47.3349V26.2202C47.3349 25.7025 46.9151 25.2827 46.3974 25.2827H36.5427V22.4249H43.4288C46.1722 22.4249 48.4042 20.1928 48.4042 17.4495C48.4042 15.0897 46.7572 13.1077 44.554 12.5959C45.6057 7.71713 40.8727 3.47869 36.1266 4.99931C34.4392 1.935 31.2138 0 27.6776 0C24.1381 0 20.9113 1.93406 19.2231 4.99744C14.4701 3.46247 9.76541 7.74825 10.8071 12.5945C8.60019 13.104 6.95037 15.0875 6.95037 17.4495C6.95037 20.1929 9.18247 22.4249 11.9262 22.4249H18.8119V25.2827H8.95737C8.43969 25.2827 8.01987 25.7025 8.01987 26.2202V30.569H3.65694C2.07125 30.569 0.78125 31.859 0.78125 33.4447V57.1243ZM51.6978 32.444C52.2494 32.444 52.6985 32.893 52.6985 33.4447V57.1243C52.6985 57.6759 52.2494 58.125 51.6978 58.125H41.0974C40.5458 58.125 40.0967 57.6759 40.0967 57.1243V33.4447C40.0967 32.893 40.5458 32.444 41.0974 32.444H51.6978ZM32.9776 32.444C33.5297 32.444 33.9788 32.893 33.9788 33.4447V57.1243C33.9788 57.6759 33.5297 58.125 32.9776 58.125H22.3771C21.8255 58.125 21.3764 57.6759 21.3764 57.1243V33.4447C21.3764 32.893 21.8255 32.444 22.3771 32.444H32.9776ZM11.9264 20.5499C10.2167 20.5499 8.82556 19.1592 8.82556 17.4495C8.82556 15.7361 10.2167 14.3422 11.9264 14.3422H12.0377C12.3504 14.3422 12.6424 14.1861 12.8164 13.9265C12.9908 13.6665 13.0238 13.3373 12.9047 13.048C11.2774 9.09197 15.3998 5.17603 19.2763 7.0335C19.5061 7.14431 19.7703 7.15575 20.0092 7.0665C20.2477 6.97772 20.4395 6.79547 20.5411 6.56203C21.7789 3.71475 24.5799 1.875 27.6776 1.875C30.7711 1.875 33.5699 3.71475 34.8077 6.56203C34.9089 6.795 35.1002 6.97678 35.3382 7.06603C35.5749 7.15481 35.8391 7.14384 36.0698 7.03491C39.9527 5.18878 44.0928 9.06816 42.4565 13.0481C42.3374 13.3374 42.3704 13.6666 42.5448 13.9266C42.7187 14.1862 43.0108 14.3423 43.3235 14.3423H43.4288C45.1385 14.3423 46.5292 15.7361 46.5292 17.4496C46.5292 19.1593 45.1385 20.55 43.4288 20.55L11.9264 20.5499ZM2.65625 33.4447C2.65625 32.893 3.10531 32.444 3.65694 32.444H14.2578C14.8094 32.444 15.2585 32.893 15.2585 33.4447V57.1243C15.2585 57.6759 14.8094 58.125 14.2578 58.125H3.65694C3.10531 58.125 2.65625 57.6759 2.65625 57.1243V33.4447Z" fill="#0CB4C4"></path><path d="M11.6306 54.4287H6.28711C5.76942 54.4287 5.34961 54.8485 5.34961 55.3662C5.34961 55.8839 5.76942 56.3037 6.28711 56.3037H11.6306C12.1483 56.3037 12.5681 55.8839 12.5681 55.3662C12.5681 54.8485 12.1483 54.4287 11.6306 54.4287Z" fill="#0CB4C4"></path><path d="M11.6306 49.542H6.28711C5.76942 49.542 5.34961 49.9618 5.34961 50.4795C5.34961 50.9972 5.76942 51.417 6.28711 51.417H11.6306C12.1483 51.417 12.5681 50.9972 12.5681 50.4795C12.5681 49.9618 12.1483 49.542 11.6306 49.542Z" fill="#0CB4C4"></path><path d="M11.6306 44.6543H6.28711C5.76942 44.6543 5.34961 45.0741 5.34961 45.5918C5.34961 46.1095 5.76942 46.5293 6.28711 46.5293H11.6306C12.1483 46.5293 12.5681 46.1095 12.5681 45.5918C12.5681 45.0741 12.1483 44.6543 11.6306 44.6543Z" fill="#0CB4C4"></path><path d="M5.34961 40.7031C5.34961 41.2208 5.76942 41.6406 6.28711 41.6406H11.6306C12.1483 41.6406 12.5681 41.2208 12.5681 40.7031C12.5681 40.1854 12.1483 39.7656 11.6306 39.7656H6.28711C5.76933 39.7656 5.34961 40.1854 5.34961 40.7031Z" fill="#0CB4C4"></path><path d="M7.27669 36.8975C7.83038 36.3438 7.82203 35.4557 7.27669 34.9104C6.7516 34.3853 5.8141 34.3853 5.2891 34.9104C4.74422 35.4552 4.73494 36.3435 5.2891 36.8975C5.8321 37.4405 6.72103 37.4541 7.27669 36.8975Z" fill="#0CB4C4"></path><path d="M30.3503 54.4287H25.0068C24.4891 54.4287 24.0693 54.8485 24.0693 55.3662C24.0693 55.8839 24.4891 56.3037 25.0068 56.3037H30.3503C30.868 56.3037 31.2878 55.8839 31.2878 55.3662C31.2878 54.8485 30.868 54.4287 30.3503 54.4287Z" fill="#0CB4C4"></path><path d="M30.3503 49.542H25.0068C24.4891 49.542 24.0693 49.9618 24.0693 50.4795C24.0693 50.9972 24.4891 51.417 25.0068 51.417H30.3503C30.868 51.417 31.2878 50.9972 31.2878 50.4795C31.2878 49.9618 30.868 49.542 30.3503 49.542Z" fill="#0CB4C4"></path><path d="M30.3503 44.6543H25.0068C24.4891 44.6543 24.0693 45.0741 24.0693 45.5918C24.0693 46.1095 24.4891 46.5293 25.0068 46.5293H30.3503C30.868 46.5293 31.2878 46.1095 31.2878 45.5918C31.2878 45.0741 30.868 44.6543 30.3503 44.6543Z" fill="#0CB4C4"></path><path d="M24.0693 40.7031C24.0693 41.2208 24.4891 41.6406 25.0068 41.6406H30.3503C30.868 41.6406 31.2878 41.2208 31.2878 40.7031C31.2878 40.1854 30.868 39.7656 30.3503 39.7656H25.0068C24.4891 39.7656 24.0693 40.1854 24.0693 40.7031Z" fill="#0CB4C4"></path><path d="M25.9994 36.8975C26.5531 36.3438 26.5447 35.4557 25.9994 34.9104C25.4743 34.3853 24.5368 34.3853 24.0118 34.9104C23.4667 35.4545 23.4577 36.3445 24.0118 36.8975C24.5509 37.4375 25.4397 37.4571 25.9994 36.8975Z" fill="#0CB4C4"></path><path d="M43.1172 55.502H49.6792C50.1969 55.502 50.6167 55.0821 50.6167 54.5645C50.6167 54.0468 50.1969 53.627 49.6792 53.627H43.1172C42.5995 53.627 42.1797 54.0468 42.1797 54.5645C42.1797 55.0821 42.5995 55.502 43.1172 55.502Z" fill="#0CB4C4"></path><path d="M43.1172 50.8828H49.6792C50.1969 50.8828 50.6167 50.463 50.6167 49.9453C50.6167 49.4276 50.1969 49.0078 49.6792 49.0078H43.1172C42.5995 49.0078 42.1797 49.4276 42.1797 49.9453C42.1797 50.463 42.5995 50.8828 43.1172 50.8828Z" fill="#0CB4C4"></path><path d="M43.1172 46.2598H49.6792C50.1969 46.2598 50.6167 45.84 50.6167 45.3223C50.6167 44.8046 50.1969 44.3848 49.6792 44.3848H43.1172C42.5995 44.3848 42.1797 44.8046 42.1797 45.3223C42.1797 45.84 42.5995 46.2598 43.1172 46.2598Z" fill="#0CB4C4"></path><path d="M49.6792 41.6406C50.1969 41.6406 50.6167 41.2208 50.6167 40.7031C50.6167 40.1854 50.1969 39.7656 49.6792 39.7656H43.1172C42.5995 39.7656 42.1797 40.1854 42.1797 40.7031C42.1797 42.3354 44.4989 41.3507 49.6792 41.6406Z" fill="#0CB4C4"></path><path d="M43.7272 37.3104C44.0929 37.3104 44.4587 37.1602 44.721 36.8975C45.2753 36.3441 45.2657 35.4541 44.721 34.9104C44.1959 34.3853 43.2584 34.3853 42.7334 34.9104C41.8441 35.7995 42.4898 37.3104 43.7272 37.3104Z" fill="#0CB4C4"></path><path d="M31.984 15.2969H24.002C23.4843 15.2969 23.0645 15.7167 23.0645 16.2344C23.0645 16.7521 23.4843 17.1719 24.002 17.1719H31.984C32.5017 17.1719 32.9215 16.7521 32.9215 16.2344C32.9215 15.7167 32.5017 15.2969 31.984 15.2969Z" fill="#0CB4C4"></path><path d="M27.3224 13.4866C27.4977 13.6633 27.7367 13.7626 27.9857 13.7631H27.9871L27.9903 13.7624L27.9935 13.7631C28.2611 13.7631 28.4991 13.6483 28.6699 13.4684L30.9956 11.1424C31.3617 10.7762 31.3617 10.1825 30.9956 9.81666C30.6294 9.45048 30.0361 9.45048 29.6698 9.81666L28.931 10.5555V7.05957C28.931 6.54188 28.5112 6.12207 27.9935 6.12207C27.4758 6.12207 27.056 6.54188 27.056 7.05957V10.5595L26.319 9.81844C25.9538 9.45038 25.3596 9.4486 24.9933 9.81479C24.6262 10.1797 24.6243 10.7734 24.9896 11.1405L27.3224 13.4866Z" fill="#0CB4C4"></path></svg>