<svg width="74" height="90" viewBox="0 0 74 90" fill="none" xmlns="http://www.w3.org/2000/svg"><path fill-rule="evenodd" clip-rule="evenodd" d="M43.034 71.8098C45.0043 69.2486 46.1721 66.2141 46.1721 62.7267C46.1721 54.5257 39.5128 48.0155 31.4608 48.0155C23.3358 48.0155 16.7496 54.6017 16.7496 62.7267C16.7496 70.8516 23.3358 77.438 31.4608 77.438C36.0026 77.438 40.2424 75.3617 43.034 71.8098ZM35.7008 59.054C36.2707 58.4842 37.1364 59.3499 36.5665 59.9198L30.0872 66.3993C29.8481 66.6383 29.4605 66.6383 29.2214 66.3993L26.355 63.5328C25.7851 62.9629 26.6508 62.0972 27.2207 62.6671L29.6543 65.1007L35.7008 59.054ZM7.76155 61.0291H13.2718C13.6099 61.0291 13.8841 61.3032 13.8841 61.6413V67.1516C13.8841 67.4897 13.6099 67.7639 13.2718 67.7639H7.76155C7.42346 67.7639 7.1493 67.4897 7.1493 67.1516V61.6413C7.1493 61.3031 7.42346 61.0291 7.76155 61.0291ZM12.6596 62.2536H8.3738V66.5393H12.6596V62.2536ZM17.9372 45.1104C17.1311 45.1104 17.1311 43.8859 17.9372 43.8859H26.3251C27.1312 43.8859 27.1312 45.1104 26.3251 45.1104H17.9372ZM7.76155 42.6613H13.2718C13.6099 42.6613 13.8841 42.9355 13.8841 43.2736V48.7838C13.8841 49.1219 13.6099 49.3961 13.2718 49.3961H7.76155C7.42346 49.3961 7.1493 49.1219 7.1493 48.7838V43.2736C7.1493 42.9355 7.42346 42.6613 7.76155 42.6613ZM12.6596 43.8859H8.3738V48.1717H12.6596V43.8859ZM20.3652 82.4261C21.1713 82.4261 21.1713 83.6506 20.3652 83.6506H13.8896C13.0835 83.6506 13.0835 82.4261 13.8896 82.4261H20.3652ZM11.1226 82.4261C11.9287 82.4261 11.9287 83.6506 11.1226 83.6506H8.82675C8.02066 83.6506 8.02066 82.4261 8.82675 82.4261H11.1226ZM11.5038 75.3722V71.2765C8.05898 71.7613 6.53508 75.9426 8.90426 78.5289L11.5038 75.3722ZM12.7283 71.2765V74.9761H16.4279C16.1584 73.0608 14.6435 71.546 12.7283 71.2765ZM16.4279 76.2006C15.9928 79.2922 12.5102 80.936 9.84566 79.3048L12.4021 76.2006H16.4279ZM12.116 70.0092C15.197 70.0092 17.6951 72.5072 17.6951 75.5883C17.6951 78.6696 15.197 81.1674 12.116 81.1674C9.03492 81.1674 6.53692 78.6695 6.53692 75.5883C6.53704 72.5074 9.03492 70.0092 12.116 70.0092ZM7.82228 57.3555C7.01619 57.3555 7.01619 56.131 7.82228 56.131H9.14475C9.95085 56.131 9.95085 57.3555 9.14475 57.3555H7.82228ZM7.82228 53.682C7.01619 53.682 7.01619 52.4575 7.82228 52.4575H12.3407C13.1468 52.4575 13.1468 53.682 12.3407 53.682H7.82228ZM44.8261 80.7052L45.5449 79.9864L41.077 75.4851V88.0726C41.077 89.1161 40.2251 89.968 39.1816 89.968H1.89542C0.851891 89.968 0 89.1162 0 88.0726V35.5698C0 34.5262 0.851768 33.6744 1.89542 33.6744H11.5395V32.9452C11.5395 32.6071 11.8137 32.3329 12.1518 32.3329H15.564V30.6123C15.564 30.2742 15.8382 30 16.1763 30H25.0176C25.3557 30 25.6298 30.2742 25.6298 30.6123V32.3329H29.042C29.3801 32.3329 29.6543 32.6071 29.6543 32.9452V33.6744H39.1816C40.2252 33.6744 41.077 34.5262 41.077 35.5698V50.0186C48 55.2655 49.4694 65.1031 44.3298 72.1271L48.8671 76.6644L49.696 75.8356C49.935 75.5965 50.3227 75.5965 50.5617 75.8356L58.3585 83.6323C58.7756 84.0493 58.9892 84.6102 58.9891 85.164H58.9916C58.9916 85.7068 58.7778 86.286 58.3573 86.6944L58.3585 86.6956L55.6863 89.3677C54.8355 90.2185 53.4371 90.2033 52.6241 89.3665L52.6229 89.3677L44.8262 81.5709C44.5871 81.3319 44.5871 80.9442 44.8261 80.7052ZM46.4082 79.1231L41.9987 74.6806C42.5593 74.1862 43.0774 73.6606 43.564 73.0928L48.0012 77.53L46.4082 79.1231ZM50.1287 77.1342L57.4924 84.4977C57.6775 84.6828 57.7694 84.9178 57.7694 85.164H57.7669C57.7669 85.4067 57.6758 85.6484 57.4939 85.8311L57.4927 85.8299L54.8206 88.5019C54.4539 88.8685 53.8524 88.867 53.4874 88.5032L53.4886 88.502L46.1248 81.1381L50.1287 77.1342ZM31.4608 51.4125C37.7094 51.4125 42.7749 56.4783 42.7749 62.7267C42.7749 68.9751 37.7092 74.0408 31.4608 74.0408C25.2124 74.0408 20.1466 68.9751 20.1466 62.7267C20.1466 56.4782 25.2124 51.4125 31.4608 51.4125ZM38.5953 55.5921C42.5355 59.5323 42.5355 65.921 38.5953 69.8612C34.6552 73.8013 28.2664 73.8013 24.3262 69.8612C20.386 65.9211 20.3861 59.5323 24.3262 55.5921C28.2664 51.652 34.6552 51.6519 38.5953 55.5921ZM31.4608 46.7908C27.0604 46.7908 23.0764 48.5746 20.1925 51.4584C13.9692 57.6817 13.9692 67.7716 20.1925 73.9949C24.3076 78.11 30.415 79.713 36.1224 77.9694V85.1999H5.07118V38.8381H11.5395V40.3374C11.5395 40.6755 11.8137 40.9497 12.1518 40.9497H29.0419C29.38 40.9497 29.6542 40.6755 29.6542 40.3374V38.8381H36.1225V47.4838C34.648 47.0334 33.0827 46.7908 31.4608 46.7908ZM37.3469 47.9135V38.2259C37.3469 37.8878 37.0727 37.6136 36.7347 37.6136H29.6541V34.8989H39.1816C39.5493 34.8989 39.8525 35.2021 39.8525 35.5698V49.1772C39.0609 48.6858 38.223 48.262 37.3469 47.9135ZM39.8525 76.2762V88.0726C39.8525 88.4402 39.5492 88.7435 39.1816 88.7435H1.89542C1.52782 88.7435 1.22451 88.4403 1.22451 88.0726V35.5698C1.22451 35.2021 1.5277 34.8989 1.89542 34.8989H11.5395V37.6136H4.45893C4.12084 37.6136 3.84667 37.8878 3.84667 38.2259V85.8121C3.84667 86.1502 4.12084 86.4244 4.45893 86.4244H36.7348C37.0729 86.4244 37.347 86.1502 37.347 85.8121V77.5398C38.223 77.1915 39.0609 76.7675 39.8525 76.2762ZM16.1761 33.5574H12.7639V39.7252H28.4295V33.5574H25.0173C24.6792 33.5574 24.4051 33.2833 24.4051 32.9452V31.2245H16.7883V32.9452C16.7884 33.2833 16.5142 33.5574 16.1761 33.5574Z" fill="#0CB4C4"></path></svg>