<svg width="62" height="60" viewBox="0 0 62 60" fill="none" xmlns="http://www.w3.org/2000/svg"><path fill-rule="evenodd" clip-rule="evenodd" d="M28.9418 15.1811C28.9418 14.6695 29.3553 14.256 29.8669 14.256C30.3785 14.256 30.792 14.6695 30.792 15.1811V16.6973C30.792 17.2089 30.3785 17.6224 29.8669 17.6224C29.3553 17.6224 28.9418 17.2089 28.9418 16.6973V15.1811ZM22.0632 17.5216C21.8061 17.0816 21.9572 16.517 22.3998 16.2599C22.8398 16.0028 23.4044 16.1539 23.6615 16.5965L24.4196 17.9086C24.6767 18.3486 24.5257 18.9132 24.083 19.1703C23.643 19.4274 23.0784 19.2764 22.8213 18.8337L22.0632 17.5216ZM17.2708 22.9873C16.8308 22.7302 16.6797 22.1656 16.9342 21.7255C17.1913 21.2855 17.7559 21.1344 18.1959 21.3889L19.508 22.147C19.948 22.4041 20.0991 22.9687 19.8446 23.4087C19.5875 23.8487 19.0229 23.9998 18.5829 23.7454L17.2708 22.9873ZM15.8554 30.1204C15.3438 30.1204 14.9303 29.7069 14.9303 29.1953C14.9303 28.6837 15.3438 28.2702 15.8554 28.2702H17.3716C17.8832 28.2702 18.2967 28.6837 18.2967 29.1953C18.2967 29.7069 17.8832 30.1204 17.3716 30.1204H15.8554ZM30.792 43.2065C30.792 43.7181 30.3785 44.1316 29.8669 44.1316C29.3553 44.1316 28.9418 43.7181 28.9418 43.2065V41.6903C28.9418 41.1787 29.3553 40.7652 29.8669 40.7652C30.3785 40.7652 30.792 41.1787 30.792 41.6903V43.2065ZM43.8781 28.2699C44.3897 28.2699 44.8032 28.6834 44.8032 29.195C44.8032 29.7066 44.3897 30.1201 43.8781 30.1201H42.3619C41.8504 30.1201 41.4369 29.7066 41.4369 29.195C41.4369 28.6834 41.8504 28.2699 42.3619 28.2699H43.8781ZM41.5429 21.3913C41.9829 21.1368 42.5475 21.2906 42.802 21.7306C43.0565 22.1706 42.9027 22.7352 42.4627 22.9896L41.1506 23.7477C40.7106 24.0022 40.146 23.8485 39.8916 23.4085C39.6371 22.9684 39.7908 22.4038 40.2308 22.1494L41.5429 21.3913ZM36.0746 16.6016C36.3291 16.1615 36.891 16.0078 37.3337 16.2623C37.7737 16.5167 37.9274 17.0787 37.673 17.5213L36.9149 18.8334C36.6604 19.2734 36.0985 19.4272 35.6558 19.1727C35.2158 18.9182 35.0621 18.3563 35.3165 17.9136L36.0746 16.6016ZM30.3731 28.6882C30.2432 28.5583 30.0656 28.4788 29.8668 28.4788C29.668 28.4788 29.4904 28.5583 29.3606 28.6882C29.2307 28.818 29.1512 28.9956 29.1512 29.1944C29.1512 29.3932 29.2307 29.5708 29.3606 29.7007C29.4904 29.8306 29.668 29.9101 29.8668 29.9101C30.0656 29.9101 30.2432 29.8306 30.3731 29.7007C30.503 29.5708 30.5825 29.3932 30.5825 29.1944C30.5825 28.9956 30.503 28.818 30.3731 28.6882ZM33.4717 1.86106H26.2592V4.07963H33.4717V1.86106ZM30.8662 5.92981H28.8649V8.84025C29.1804 8.827 29.4984 8.81904 29.8165 8.82169H29.8642V8.81904C30.2008 8.81904 30.5322 8.827 30.8662 8.8429L30.8662 5.92981ZM49.9244 12.7603L45.3335 8.55898L44.1327 9.87106L48.7236 14.0723L49.9244 12.7603ZM45.7681 13.8656L44.6098 15.1299C44.4985 15.0133 44.3872 14.8993 44.2759 14.7854C44.0134 14.5229 43.7457 14.2711 43.4727 14.0246L44.5993 12.7921L45.7709 13.8629L45.7681 13.8656ZM15.1322 12.7947L13.9606 13.8656L15.1216 15.1326C15.2462 15.0027 15.3707 14.8728 15.5006 14.7456C15.7471 14.4991 15.999 14.2579 16.2587 14.0246L15.1322 12.7947ZM14.398 8.55898L15.5988 9.87106L11.0078 14.0723L9.80712 12.7603L14.398 8.55898ZM31.696 27.4L34.3281 25.8812C34.7681 25.6241 35.3327 25.7752 35.5899 26.2178C35.847 26.6579 35.6959 27.2225 35.2532 27.4796L32.433 29.107C32.4356 29.1389 32.4356 29.168 32.4356 29.1998C32.4356 29.9076 32.1493 30.549 31.6828 31.0155C31.219 31.4794 30.5775 31.7683 29.8671 31.7683C29.1594 31.7683 28.5179 31.4821 28.0514 31.0155C27.5875 30.5517 27.2986 29.9102 27.2986 29.1998C27.2986 28.4921 27.5849 27.8506 28.0514 27.3841C28.3059 27.1296 28.6107 26.9282 28.9526 26.7983L29.0348 20.495C29.0401 19.9861 29.4589 19.5779 29.9678 19.5832C30.4767 19.5885 30.885 20.0073 30.8797 20.5162L30.7975 26.8062C31.1315 26.9361 31.431 27.1349 31.6802 27.384L31.6934 27.3999L31.696 27.4ZM45.9989 33.7271L45.6198 34.6946V35.898H45.6172C45.6172 36.2824 45.376 36.6429 44.989 36.7727C43.4728 37.287 43.2289 37.4062 42.5981 37.7164C42.3861 37.8197 42.1422 37.939 41.9805 38.0185C41.628 38.2173 41.1721 38.167 40.8699 37.8674L40.0164 37.0139L39.0675 36.6004L37.6521 38.0159L38.0656 38.9648L38.9191 39.8183L38.9164 39.8209C39.2159 40.1178 39.2796 40.5922 39.0436 40.966C38.768 41.4034 38.5268 41.8698 38.3253 42.3602C38.1345 42.8215 37.9781 43.2986 37.8641 43.7916C37.7925 44.2316 37.4108 44.5682 36.9496 44.5682H35.7462L34.7787 44.9473V46.9459L35.1074 47.0757C35.126 47.0837 35.1445 47.089 35.1631 47.0969L35.7436 47.3249H36.9469V47.3276C37.3684 47.3276 37.7501 47.6165 37.8455 48.0459C37.9621 48.5601 38.1238 49.0558 38.32 49.5355C38.5135 50.0047 38.7441 50.4527 39.0038 50.8715C39.2715 51.2346 39.2397 51.7462 38.9137 52.0749L38.0602 52.9284L37.6467 53.8773L39.0621 55.2927L40.011 54.8792L40.8645 54.0257L40.8672 54.0283C41.1641 53.7288 41.6385 53.6652 42.0123 53.9011C42.4496 54.1768 42.9161 54.418 43.4065 54.6194C43.8677 54.8103 44.3448 54.9667 44.8379 55.0807C45.2779 55.1522 45.6145 55.5339 45.6145 55.9952V57.1985L45.9935 58.166H47.9921L48.3712 57.1985V55.9952H48.3738C48.3738 55.5737 48.6627 55.192 49.0921 55.0966C49.6064 54.98 50.102 54.8209 50.5818 54.6221C51.051 54.4286 51.4989 54.198 51.9178 53.9383C52.2809 53.6706 52.7925 53.7024 53.1211 54.0284L53.9746 54.8819L54.9235 55.2954L56.339 53.88L55.9254 52.9311L55.0719 52.0776L55.0746 52.0749C54.7751 51.778 54.7115 51.3036 54.9474 50.9298C55.223 50.4925 55.4642 50.026 55.6657 49.5356C55.8565 49.0744 56.0129 48.5973 56.1269 48.1042C56.1985 47.6642 56.5802 47.3276 57.0414 47.3276H58.2448L59.2123 46.9486V44.95L58.2448 44.5709H57.0414V44.5683C56.62 44.5683 56.2383 44.2794 56.1429 43.85C56.0262 43.3357 55.8645 42.8401 55.6684 42.3603C55.4749 41.8911 55.2443 41.4458 54.9845 41.0243C54.7168 40.6612 54.7486 40.1496 55.0747 39.821L55.9282 38.9675L56.3416 38.0186L54.9262 36.6031L53.9773 37.0167L53.1238 37.8702L53.1212 37.8675C52.8243 38.167 52.3498 38.2306 51.9761 37.9947C51.5387 37.7191 51.0722 37.4779 50.5818 37.2764C50.1206 37.0856 49.6435 36.9292 49.1505 36.8152C48.7105 36.7436 48.3739 36.3619 48.3739 35.9007V34.6973L47.9948 33.7298H45.9962L45.9989 33.7271ZM51.5016 41.4404C52.6546 42.5934 53.3677 44.1838 53.3677 45.9438C53.3677 47.7038 52.6546 49.2943 51.5016 50.4473C50.3486 51.6003 48.7582 52.3133 46.9982 52.3133C45.2382 52.3133 43.6478 51.6003 42.4947 50.4473C41.3417 49.2943 40.6287 47.7038 40.6287 45.9438C40.6287 44.1838 41.3417 42.5934 42.4947 41.4404C43.6478 40.2874 45.2382 39.5743 46.9982 39.5743C48.7582 39.5743 50.3486 40.2874 51.5016 41.4404ZM46.9982 37.7242C49.2672 37.7242 51.3214 38.644 52.8084 40.131C54.2954 41.618 55.2152 43.6723 55.2152 45.9412C55.2152 48.2101 54.2954 50.2644 52.8084 51.7514C51.3214 53.2384 49.2671 54.1582 46.9982 54.1582C44.7293 54.1582 42.675 53.2384 41.188 51.7514C39.7009 50.2644 38.7812 48.2101 38.7812 45.9412C38.7812 43.6723 39.7009 41.618 41.188 40.131C42.675 38.644 44.7293 37.7242 46.9982 37.7242ZM48.13 50.4391C48.13 50.9507 47.7165 51.3642 47.2049 51.3642C46.6934 51.3642 46.2799 50.9507 46.2799 50.4391V50.1608C45.8054 50.0972 45.3336 49.9169 44.9174 49.6068C44.5092 49.302 44.4271 48.7241 44.7319 48.316C45.0367 47.9078 45.6146 47.8256 46.0227 48.1304C46.1738 48.2444 46.354 48.308 46.5396 48.3319C46.741 48.3557 46.9478 48.3266 47.128 48.255C47.2924 48.1888 47.4329 48.0907 47.5283 47.9688C47.5919 47.8866 47.6317 47.7859 47.6449 47.6692C47.6529 47.5977 47.6449 47.7037 47.6502 47.6427C47.6688 47.4386 47.629 47.261 47.5336 47.1365C47.4435 47.0198 47.2871 46.9377 47.0618 46.9111L47.0432 46.9085C46.6324 46.8793 46.2427 46.7813 45.8928 46.6302C45.4555 46.4393 45.0871 46.1637 44.8273 45.827C44.5304 45.44 44.374 44.9788 44.4111 44.4778C44.427 44.2578 44.4827 44.0325 44.5808 43.8046C44.7107 43.5077 44.8724 43.2373 45.0606 42.9988C45.3919 42.5826 45.8134 42.2486 46.2799 42.0366V41.4428C46.2799 40.9312 46.6934 40.5177 47.205 40.5177C47.7165 40.5177 48.13 40.9312 48.13 41.4428V41.8669C48.252 41.9014 48.3739 41.9438 48.4958 41.9941C48.7211 42.0922 48.9385 42.2195 49.1373 42.3785C49.5375 42.6966 49.6038 43.2771 49.2857 43.6747C48.9676 44.0749 48.3872 44.1412 47.9895 43.8231C47.91 43.7595 47.8358 43.7144 47.7669 43.6853C47.5707 43.6005 47.356 43.6031 47.1546 43.6694C46.916 43.7489 46.6907 43.9185 46.5105 44.1465C46.415 44.2658 46.3355 44.3957 46.2772 44.5308C46.2666 44.5547 46.2613 44.5812 46.2587 44.6051C46.256 44.6342 46.2719 44.6687 46.3011 44.7058C46.37 44.7933 46.4813 44.8728 46.6297 44.9364C46.7835 45.0027 46.9717 45.0477 47.1811 45.0636C47.2049 45.0663 47.2288 45.0689 47.2526 45.0716C47.2606 45.0716 47.2526 45.0689 47.2765 45.0742C48.0293 45.1617 48.6125 45.5063 48.9995 46.0073C49.3811 46.5003 49.5534 47.1311 49.4925 47.7991C49.4845 47.8945 49.4898 47.8388 49.4872 47.876C49.4342 48.3292 49.2645 48.7321 49.0074 49.0714C48.7741 49.3842 48.472 49.636 48.1327 49.8215V50.4391L48.13 50.4391ZM13.0617 33.724L12.6827 34.6915V35.8949H12.68C12.68 36.3163 12.3911 36.698 11.9617 36.7934C11.9273 36.8014 11.8954 36.8093 11.861 36.8173C11.8398 36.8226 11.8159 36.8279 11.7947 36.8332C11.3388 36.9445 10.8988 37.093 10.4694 37.2706C10.0002 37.4641 9.55491 37.6947 9.13345 37.9544C8.77031 38.2221 8.25871 38.1903 7.93008 37.8643L7.07658 37.0108L6.12767 36.5973L4.71225 38.0127L5.12576 38.9616L5.97926 39.8151L5.97661 39.8178C6.27613 40.1146 6.33975 40.5891 6.10384 40.9628C5.82817 41.4002 5.58696 41.8667 5.38551 42.3571C5.19466 42.8183 5.03827 43.2954 4.92429 43.7885C4.85272 44.2285 4.47103 44.5651 4.00979 44.5651H2.80642L1.83892 44.9441V46.9427L2.80642 47.3217H4.00979V47.3244C4.43124 47.3244 4.81294 47.6133 4.90835 48.0427C5.02497 48.5569 5.18667 49.0526 5.38281 49.5324C5.57631 50.0016 5.80692 50.4469 6.06667 50.8683C6.33439 51.2315 6.30258 51.7431 5.97655 52.0717L5.12305 52.9252L4.70955 53.8741L6.12497 55.2895L7.07387 54.876L7.92737 54.0225L7.93002 54.0252C8.2269 53.7257 8.70135 53.662 9.0751 53.898C9.51246 54.1736 9.97896 54.4148 10.4694 54.6163C10.9306 54.8071 11.4077 54.9635 11.9007 55.0775C12.3407 55.1491 12.6773 55.5308 12.6773 55.992V57.1954L13.0564 58.1629H15.055L15.434 57.1954V55.992H15.4367C15.4367 55.5706 15.7256 55.1889 16.155 55.0934C16.6692 54.9768 17.1649 54.8151 17.6446 54.619C18.1138 54.4255 18.5591 54.1949 18.9806 53.9351C19.3437 53.6674 19.8553 53.6992 20.184 54.0252L21.0375 54.8787L21.9864 55.2922L23.4018 53.8768L22.9883 52.9279L22.1348 52.0744L22.1374 52.0718C21.8379 51.7749 21.7743 51.3004 22.0102 50.9267C22.2859 50.4893 22.5271 50.0228 22.7285 49.5324C22.9194 49.0712 23.0758 48.5941 23.1898 48.1011C23.2613 47.6611 23.643 47.3245 24.1043 47.3245H25.3076L26.2751 46.9454V44.9468L25.3076 44.5678H24.1043V44.5651C23.6828 44.5651 23.3011 44.2762 23.2057 43.8468C23.0891 43.3326 22.9274 42.8369 22.7312 42.3572C22.5987 42.0364 22.4476 41.7237 22.2833 41.4268C22.2753 41.4135 22.2674 41.4003 22.2594 41.3844C22.1905 41.2624 22.1216 41.1405 22.0474 41.0212C21.7797 40.6581 21.8115 40.1465 22.1375 39.8179L22.991 38.9644L23.4045 38.0154L21.9891 36.6L21.0402 37.0135L20.1867 37.867L20.184 37.8644C19.8871 38.1639 19.4127 38.2275 19.0389 37.9916C18.6016 37.7159 18.1351 37.4747 17.6447 37.2733C17.1835 37.0824 16.7064 36.926 16.2133 36.8121C15.7733 36.7405 15.4367 36.3588 15.4367 35.8976V34.6942L15.0577 33.7267H13.0591L13.0617 33.724ZM25.4008 49.1695C26.0422 49.3047 26.7181 49.4001 27.4047 49.4638C28.2555 49.5406 29.0878 49.5724 29.8697 49.5724C30.7895 49.5724 31.6669 49.4982 32.5257 49.3683C33.2732 49.2544 34.0074 49.098 34.7469 48.9071L35.187 49.0794C35.3062 49.1351 35.4388 49.1669 35.5792 49.1669H36.2419C36.3506 49.53 36.4778 49.8879 36.6209 50.2351C36.7667 50.585 36.9284 50.9269 37.1087 51.2582L36.6395 51.7274L36.6421 51.73C36.5626 51.8096 36.4964 51.905 36.4486 52.0137L35.7383 53.6438C35.5527 53.9937 35.6084 54.4364 35.9026 54.7306L38.206 57.034L38.2086 57.0313C38.4684 57.2911 38.8713 57.3812 39.2291 57.2248L40.8593 56.5144C40.9865 56.4694 41.1084 56.3978 41.2091 56.2944L41.6783 55.8253C42.0123 56.0055 42.3542 56.1698 42.7041 56.313C43.0513 56.4561 43.4065 56.5833 43.7696 56.692V57.3547H43.7723C43.7723 57.466 43.7935 57.58 43.8359 57.6913L44.4933 59.3585C44.6126 59.7323 44.9624 60 45.3733 60H48.6283V59.9973C48.9968 59.9973 49.3467 59.7747 49.4898 59.4089L50.1445 57.7443C50.2001 57.625 50.2319 57.4925 50.2319 57.352V56.6894C50.5951 56.5807 50.9529 56.4535 51.3001 56.3103C51.65 56.1645 51.9919 56.0028 52.3233 55.8226L52.7924 56.2918L52.7951 56.2891C52.8746 56.3686 52.97 56.4349 53.0787 56.4826L54.7088 57.193C55.0587 57.3786 55.5014 57.3229 55.7956 57.0287L58.099 54.7253L58.0964 54.7226C58.3561 54.4629 58.4463 54.06 58.2899 53.7021L57.5795 52.072C57.5344 51.9448 57.4629 51.8228 57.3595 51.7221L56.8903 51.253C57.0706 50.919 57.2349 50.577 57.378 50.2272C57.5212 49.8799 57.6484 49.5247 57.7571 49.1616H58.4197V49.159C58.5311 49.159 58.645 49.1378 58.7564 49.0953L60.4236 48.438C60.7973 48.3187 61.0651 47.9688 61.0651 47.558V44.3029H61.0624C61.0624 43.9345 60.8398 43.5846 60.474 43.4415L58.8094 42.7868C58.6901 42.7311 58.5576 42.6993 58.4171 42.6993H57.7544C57.6457 42.3362 57.5185 41.9783 57.3754 41.6311C57.2296 41.2812 57.0679 40.9393 56.8877 40.608L57.3568 40.1388L57.3542 40.1362C57.4337 40.0566 57.5 39.9612 57.5477 39.8525L58.2581 38.2224C58.4436 37.8725 58.3879 37.4299 58.0937 37.1356L55.7903 34.8322L55.7877 34.8349C55.5279 34.5751 55.125 34.485 54.7672 34.6414L53.1371 35.3518C53.0098 35.3968 52.8879 35.4684 52.7872 35.5718L52.318 36.0409C51.984 35.8607 51.6421 35.6964 51.2922 35.5532C50.945 35.4101 50.5898 35.2829 50.2267 35.1742V34.5115H50.224C50.224 34.4002 50.2028 34.2862 50.1604 34.1749L49.8211 33.3108C49.951 32.68 50.0517 32.0438 50.1206 31.405C50.2002 30.6655 50.2426 29.9233 50.2426 29.1864C50.2426 24.3993 48.5912 19.9966 45.8266 16.5189L47.1254 15.0982L48.1565 16.0418C48.5329 16.3864 49.1134 16.3599 49.458 15.9835L51.9019 13.3116C52.2465 12.9352 52.22 12.3547 51.8436 12.0101L45.8956 6.56307C45.5192 6.21848 44.9387 6.24499 44.5941 6.62138L42.1502 9.29324C41.8056 9.66963 41.8321 10.2501 42.2085 10.5947L43.2396 11.5383L42.0441 12.8451C39.367 10.8465 36.1809 9.48941 32.7166 9.0043V5.91893H34.3971C34.9087 5.91893 35.3222 5.50543 35.3222 4.99384V0.925089C35.3222 0.413511 34.9087 0 34.3971 0H25.3349C24.8233 0 24.4098 0.413505 24.4098 0.925089V4.99384C24.4098 5.50542 24.8233 5.91893 25.3349 5.91893H27.0154V8.99365C23.5536 9.46546 20.3649 10.8252 17.6824 12.8371L16.4923 11.5356L17.5233 10.592C17.8997 10.2474 17.9236 9.66692 17.5817 9.29052L15.1377 6.61867C14.7931 6.24227 14.2126 6.21842 13.8362 6.56035L7.8882 12.0074C7.51181 12.352 7.48796 12.9325 7.82989 13.3089L10.2738 15.9808C10.6184 16.3571 11.1989 16.381 11.5753 16.0391L12.6064 15.0955L13.9105 16.5215C11.1751 19.9833 9.52637 24.3624 9.49455 29.1279V29.1809C9.48924 30.4108 9.59527 31.6036 9.79937 32.7514C9.95311 33.6207 10.1652 34.4717 10.4276 35.3013C10.2049 35.3781 9.98227 35.4603 9.76491 35.5504C9.41503 35.6962 9.07312 35.8579 8.74177 36.0381L8.2726 35.569L8.26995 35.5716C8.19043 35.4921 8.09501 35.4258 7.98633 35.3781L6.35621 34.6677C6.00633 34.4822 5.56365 34.5379 5.26942 34.8321L2.96603 37.1355L2.96868 37.1381C2.70892 37.3979 2.6188 37.8008 2.77518 38.1586L3.48557 39.7887C3.53063 39.916 3.6022 40.0379 3.70558 40.1386L4.17474 40.6078C3.9945 40.9418 3.83016 41.2837 3.68702 41.6336C3.54389 41.9808 3.41666 42.336 3.30798 42.6991H2.64532V42.7018C2.534 42.7018 2.42002 42.723 2.30869 42.7654L0.641455 43.4228C0.267715 43.542 0 43.8919 0 44.3028V47.5578H0.0026513C0.0026513 47.9262 0.225302 48.2761 0.591097 48.4192L2.25569 49.074C2.37497 49.1296 2.5075 49.1614 2.64798 49.1614H3.31064C3.41932 49.5246 3.54655 49.8824 3.68968 50.2296C3.83546 50.5795 3.99716 50.9214 4.1774 51.2528L3.70823 51.7219L3.71088 51.7246C3.63136 51.8041 3.5651 51.8995 3.51738 52.0082L2.80699 53.6383C2.62145 53.9882 2.67711 54.4309 2.97133 54.7251L5.27473 57.0285L5.27738 57.0259C5.53714 57.2856 5.94004 57.3757 6.29787 57.2194L7.92799 56.509C8.05522 56.4639 8.17716 56.3923 8.27788 56.289L8.74704 55.8198C9.08103 56 9.42296 56.1644 9.77283 56.3075C10.1201 56.4507 10.4753 56.5779 10.8384 56.6866V57.3492H10.841C10.841 57.4605 10.8622 57.5745 10.9046 57.6858L11.562 59.3531C11.6813 59.7268 12.0312 59.9945 12.442 59.9945H15.6971V59.9919C16.0655 59.9919 16.4154 59.7692 16.5585 59.4034L17.2132 57.7389C17.2689 57.6196 17.3007 57.487 17.3007 57.3466V56.6839C17.6638 56.5752 18.0217 56.448 18.3689 56.3049C18.7188 56.1591 19.0607 55.9974 19.392 55.8171L19.8612 56.2863L19.8638 56.2837C19.9434 56.3632 20.0388 56.4294 20.1475 56.4772L21.7776 57.1875C22.1275 57.3731 22.5701 57.3174 22.8644 57.0232L25.1678 54.7198L25.1651 54.7172C25.4249 54.4574 25.515 54.0545 25.3586 53.6967L24.6482 52.0665C24.6032 51.9393 24.5316 51.8174 24.4282 51.7167L23.959 51.2475C24.1393 50.9135 24.3036 50.5716 24.4468 50.2217C24.5899 49.8745 24.7171 49.5193 24.8258 49.1562H25.4063L25.4008 49.1695ZM28.1283 46.2326C28.237 46.2432 28.3483 46.2538 28.457 46.2644C28.9288 46.3042 29.3979 46.3228 29.8697 46.3228C30.5881 46.3228 31.2984 46.2777 31.9982 46.1902C32.3136 46.1505 32.6264 46.1027 32.9365 46.0471V47.4254C32.7085 47.4678 32.4806 47.5076 32.2526 47.542C31.484 47.6587 30.6993 47.7223 29.8724 47.7223C29.2892 47.7223 28.6981 47.7064 28.1256 47.6719C28.1309 47.6374 28.1309 47.603 28.1309 47.5685V46.2326L28.1283 46.2326ZM14.8168 31.8742H15.6889C16.0998 31.8742 16.4497 32.1445 16.569 32.5156L17.2263 34.1829C17.2687 34.2942 17.2899 34.4055 17.2899 34.5195H17.2926V35.1822C17.6557 35.2908 18.0136 35.4181 18.3581 35.5612C18.708 35.707 19.0499 35.8687 19.3839 36.0489L19.8531 35.5798C19.9565 35.4764 20.0758 35.4048 20.203 35.3597L21.8331 34.6494C22.1909 34.493 22.5938 34.5831 22.8536 34.8429L22.8563 34.8402L25.1596 37.1436C25.4539 37.4378 25.5095 37.8831 25.324 38.2304L24.6136 39.8605C24.5924 39.9056 24.5712 39.9506 24.5447 39.9904C24.55 40.1547 24.5102 40.3244 24.4201 40.4781L24.1365 40.9711C24.2452 41.1911 24.3459 41.4138 24.4413 41.6417C24.5844 41.989 24.7117 42.3442 24.8203 42.7099H25.483C25.6235 42.7099 25.756 42.7418 25.8753 42.7974L27.5399 43.4521C27.903 43.5953 28.1283 43.9425 28.1283 44.3136H28.131V44.3745C28.2874 44.3931 28.4438 44.4063 28.6028 44.4196C29.0163 44.454 29.4378 44.4699 29.8698 44.4699C30.5166 44.4699 31.1501 44.4302 31.773 44.3533C32.1706 44.303 32.5629 44.2393 32.9473 44.1625C33.0029 43.8179 33.2494 43.5369 33.5781 43.4309L35.2453 42.7736C35.3567 42.7311 35.468 42.7099 35.582 42.7099V42.7073H36.2446C36.3533 42.3441 36.4805 41.9863 36.6237 41.6417C36.7695 41.2919 36.9312 40.9499 37.1114 40.6159L36.6422 40.1468C36.5389 40.0434 36.4673 39.9241 36.4222 39.7969L35.7118 38.1668C35.5554 37.8089 35.6456 37.406 35.9053 37.1463L35.9027 37.1436L38.2061 34.8402C38.5003 34.546 38.9456 34.4904 39.2929 34.6759L40.923 35.3863C41.0317 35.434 41.1271 35.5003 41.2066 35.5798L41.2093 35.5771L41.7208 36.0887L41.7924 36.0543C42.4127 35.7494 42.7096 35.6037 43.7725 35.2326V34.5169C43.7725 34.3764 43.8043 34.2439 43.8599 34.1246L44.5146 32.46C44.5915 32.2665 44.724 32.1128 44.891 32.0094C44.9573 31.6489 45.013 31.2805 45.0527 30.9094C45.1137 30.3554 45.1455 29.7828 45.1455 29.1944C45.1455 24.9773 43.4359 21.1575 40.6712 18.393C37.9066 15.6284 34.0896 13.9187 29.8698 13.9187C25.6526 13.9187 21.8328 15.6283 19.0683 18.393C16.3039 21.1577 14.594 24.9746 14.594 29.1944C14.594 29.7935 14.6258 30.374 14.6868 30.9333C14.7212 31.2513 14.7663 31.5641 14.8193 31.8716L14.8168 31.8742ZM11.6095 32.3831C11.7686 32.0677 12.092 31.8768 12.4339 31.8768V31.8742H12.9481C12.911 31.6277 12.8765 31.3785 12.85 31.1293C12.7784 30.4826 12.744 29.8385 12.744 29.1943C12.744 24.4655 14.6604 20.185 17.759 17.0833C20.8576 13.9847 25.1384 12.0683 29.8673 12.0683C34.5963 12.0683 38.8766 13.9847 41.9757 17.0833C45.0743 20.1819 46.9907 24.4654 46.9907 29.1943C46.9907 29.8331 46.9536 30.4746 46.882 31.1107C46.8528 31.3652 46.8184 31.617 46.7786 31.8715H48.202C48.2339 31.6541 48.2604 31.4368 48.2842 31.2168C48.3558 30.5647 48.3902 29.8888 48.3902 29.1943C48.3902 24.0785 46.3174 19.4453 42.9644 16.0919C39.6113 12.7388 34.9803 10.666 29.8619 10.666V10.6633H29.8063C29.2576 10.6607 28.7142 10.6819 28.1788 10.7296C28.1019 10.7508 28.0197 10.7614 27.9376 10.7614C27.9137 10.7614 27.8899 10.7614 27.8687 10.7587C23.5826 11.1988 19.7204 13.139 16.8074 16.0495C13.4596 19.3972 11.3682 24.028 11.3338 29.1437V29.1968C11.3285 30.2703 11.4239 31.3332 11.6041 32.3802L11.6095 32.3831ZM18.5648 41.4379C19.7179 42.5909 20.4309 44.1813 20.4309 45.9413C20.4309 47.7013 19.7179 49.2917 18.5648 50.4448C17.4118 51.5978 15.8214 52.3108 14.0614 52.3108C12.3014 52.3108 10.711 51.5978 9.55796 50.4448C8.40494 49.2917 7.6919 47.7013 7.6919 45.9413C7.6919 44.1813 8.40494 42.5909 9.55796 41.4379C10.711 40.2849 12.3014 39.5718 14.0614 39.5718C15.8214 39.5718 17.4118 40.2849 18.5648 41.4379ZM14.0614 37.7217C16.3304 37.7217 18.3846 38.6414 19.8716 40.1285C21.3586 41.6155 22.2784 43.6698 22.2784 45.9387C22.2784 48.2076 21.3586 50.2619 19.8716 51.7489C18.3846 53.2359 16.3303 54.1557 14.0614 54.1557C11.7925 54.1557 9.73818 53.2359 8.25117 51.7489C6.76416 50.2619 5.84437 48.2076 5.84437 45.9387C5.84437 43.6698 6.76416 41.6155 8.25117 40.1285C9.73818 38.6414 11.7925 37.7217 14.0614 37.7217ZM9.82565 46.9807C9.46516 46.6202 9.46516 46.0344 9.82565 45.6713C10.1861 45.3108 10.7719 45.3108 11.1351 45.6713L12.8156 47.3518L16.9453 42.5647C17.2793 42.1804 17.8625 42.138 18.2468 42.4693C18.6311 42.8033 18.6735 43.3864 18.3422 43.7708L13.6108 49.255C13.5843 49.2921 13.5525 49.3265 13.518 49.361C13.1575 49.7215 12.5717 49.7215 12.2086 49.361L9.82565 46.9781V46.9807Z" fill="#0CB4C4"></path></svg>