<svg width="64" height="60" viewBox="0 0 64 60" fill="none" xmlns="http://www.w3.org/2000/svg"><path fill-rule="evenodd" clip-rule="evenodd" d="M14.8393 35.7186C15.0225 36.2551 14.7346 36.8362 14.2007 37.0167C13.6668 37.1999 13.0831 36.912 12.9026 36.3781C12.7639 35.9699 12.6383 35.5537 12.5257 35.135L9.38256 33.9285C8.98738 33.7741 8.72828 33.3946 8.72828 32.9706V27.035C8.72828 26.611 8.98738 26.2315 9.38256 26.0797L12.5257 24.8706C12.9759 23.1904 13.6433 21.5808 14.5121 20.0787L13.1433 17.0009C12.9732 16.6136 13.0569 16.1608 13.3553 15.8598L17.5531 11.6646C17.8515 11.3636 18.3043 11.2799 18.6916 11.4526L21.7694 12.8214C23.2742 11.9499 24.8811 11.2851 26.5587 10.8376L27.773 7.68925C27.9248 7.29668 28.3043 7.03497 28.7283 7.03497H34.6639C35.0879 7.03497 35.4674 7.29668 35.6192 7.69187L36.8283 10.8376C37.2837 10.9606 37.7365 11.0993 38.1839 11.2538C38.7178 11.437 39.0005 12.0206 38.8147 12.5545C38.6315 13.0884 38.0479 13.371 37.514 13.1852C36.9618 12.9941 36.3964 12.8319 35.8259 12.6958C35.4988 12.6173 35.2292 12.3817 35.1089 12.0677L33.96 9.08156H29.4297L28.2756 12.0677C28.1552 12.3817 27.8856 12.6173 27.5585 12.6958C25.7265 13.1302 23.9809 13.8526 22.3766 14.8418C22.0887 15.0198 21.7328 15.0433 21.4239 14.9072L18.5032 13.6091L15.2999 16.8125L16.598 19.7332C16.734 20.0394 16.7105 20.3979 16.5351 20.6858C15.5459 22.2901 14.8209 24.0384 14.3813 25.8756C14.3028 26.2027 14.0672 26.4697 13.7532 26.5901L10.7749 27.7363V32.2692L13.7532 33.4155C14.0672 33.5359 14.3028 33.8054 14.3813 34.1325C14.5095 34.6691 14.6639 35.1978 14.8393 35.7186ZM48.4798 24.0857C48.2914 23.5518 48.5714 22.9682 49.1053 22.7798C49.6366 22.594 50.2228 22.874 50.4086 23.4053C50.5787 23.8894 50.7305 24.3762 50.8614 24.8735L54.0019 26.08C54.3971 26.2318 54.6588 26.6112 54.6588 27.0352V32.9709C54.6588 33.3949 54.3971 33.7743 54.0019 33.9288L50.8614 35.1353C50.4138 36.8128 49.7438 38.4197 48.8776 39.922L50.2412 43.0023C50.4113 43.3897 50.3275 43.8424 50.0292 44.1408L45.8313 48.3386C45.533 48.637 45.0802 48.7207 44.6955 48.5506L41.6151 47.1871C40.1155 48.056 38.5034 48.7233 36.8258 49.1708L35.6193 52.3114C35.4675 52.7039 35.088 52.9656 34.664 52.9656H28.7284C28.3044 52.9656 27.9249 52.7039 27.7731 52.3114L26.564 49.1708C26.1976 49.0714 25.8365 48.9641 25.4779 48.8463C24.9414 48.6709 24.6509 48.0899 24.8262 47.5534C25.0042 47.0195 25.5826 46.7264 26.1191 46.9044C26.5928 47.0588 27.0744 47.1975 27.5637 47.3126C27.8935 47.3912 28.1604 47.6241 28.2834 47.9408L29.4297 50.919H33.9625L35.1088 47.9408C35.2292 47.6241 35.4988 47.3912 35.8259 47.3126C37.6579 46.8782 39.4088 46.1559 41.0078 45.1666C41.2931 44.9887 41.6516 44.9651 41.9605 45.1012L44.8812 46.3941L48.0872 43.1907L46.7917 40.2674C46.6556 39.9612 46.6792 39.6053 46.8545 39.32C47.8386 37.7131 48.5687 35.9674 49.0032 34.1354C49.0817 33.8057 49.3172 33.5387 49.6313 33.4158L52.6122 32.2695V27.7366L49.6313 26.5904C49.3172 26.47 49.0817 26.2004 49.0032 25.8733C48.8592 25.2661 48.6839 24.6693 48.4798 24.0857ZM30.147 41.2802C29.5896 41.2043 29.197 40.6887 29.2729 40.1286C29.3488 39.5711 29.8644 39.1786 30.4245 39.2545C30.838 39.3094 31.262 39.3382 31.6938 39.3382C36.8495 39.3382 41.032 35.1587 41.032 30C41.032 29.6126 41.0084 29.2306 40.9613 28.8563C40.8933 28.2963 41.2937 27.7859 41.8537 27.7179C42.4138 27.6499 42.9242 28.0476 42.9922 28.6103C43.0498 29.0657 43.0759 29.5289 43.0759 30C43.0759 36.2863 37.9804 41.3843 31.6943 41.3843C31.1682 41.3843 30.6552 41.3503 30.1475 41.2796L30.147 41.2802ZM33.319 18.7386C33.8765 18.8171 34.2664 19.3353 34.1853 19.8954C34.1068 20.4554 33.5886 20.8428 33.0285 20.7643C32.5914 20.7014 32.1465 20.6674 31.6938 20.6674C26.5354 20.6674 22.3609 24.8444 22.3609 30.0003C22.3609 30.3641 22.3818 30.7226 22.4211 31.0733C22.4839 31.636 22.0809 32.1412 21.5208 32.2065C20.9607 32.2694 20.4529 31.8663 20.3876 31.3062C20.3378 30.877 20.3143 30.4425 20.3143 30.0003C20.3143 23.714 25.4046 18.624 31.6933 18.624C32.2455 18.624 32.7872 18.6632 33.3185 18.7391L33.319 18.7386ZM16.7396 38.4113L40.1106 15.0403C38.9173 11.4469 39.7495 7.32473 42.6074 4.46725C45.46 1.61459 49.5585 0.777114 53.1442 1.94697C53.4818 2.05951 53.7383 2.33692 53.8194 2.68241C53.9032 3.02788 53.8011 3.39166 53.5499 3.64551L47.3421 9.8507L48.2947 13.4021L51.8462 14.3548L58.0514 8.147C58.3052 7.89575 58.669 7.79369 59.0145 7.87744C59.3599 7.95857 59.6373 8.21505 59.7499 8.55265C60.9198 12.1381 60.0823 16.2367 57.2296 19.0895C54.3717 21.9474 50.2524 22.7848 46.6566 21.5862L23.2856 44.9573C24.479 48.5558 23.6441 52.6775 20.7836 55.5356C17.9336 58.3857 13.8352 59.2232 10.2494 58.0533C9.91183 57.9434 9.65536 57.6633 9.57162 57.3179C9.48788 56.9724 9.59256 56.6086 9.8438 56.3574L16.049 50.1496L15.099 46.5981L11.5449 45.6481L5.33971 51.8533C5.08846 52.1045 4.72468 52.2092 4.37922 52.1255C4.03376 52.0417 3.75373 51.7852 3.64378 51.4476C2.47392 47.8621 3.31141 43.7636 6.16144 40.9135C9.01932 38.053 13.1438 37.2205 16.7396 38.4113ZM16.614 40.5469C13.6147 39.3247 10.0398 39.9266 7.60873 42.3579C5.7715 44.1977 4.9759 46.6814 5.22192 49.0785L10.5163 43.7815C10.7754 43.5224 11.1523 43.4229 11.5056 43.5171L16.1981 44.776C16.5514 44.8702 16.8262 45.145 16.9204 45.4983L18.1793 50.1908C18.2735 50.5441 18.1714 50.9209 17.9149 51.1801L12.6179 56.4745C15.0152 56.7205 17.4989 55.9249 19.3385 54.0877C21.7698 51.6564 22.377 48.084 21.1522 45.0824C20.9951 44.7003 21.0841 44.2632 21.3746 43.9728L45.6722 19.6752C45.9627 19.3847 46.4024 19.2957 46.7845 19.4527C49.7838 20.6801 53.3509 20.073 55.7824 17.6417C57.6223 15.8045 58.4179 13.3208 58.1718 10.9238L52.8748 16.2182C52.6157 16.4773 52.2389 16.5793 51.8881 16.4825L47.1956 15.2263C46.8423 15.1295 46.5675 14.8547 46.4707 14.5014L45.2119 9.80887C45.1177 9.45818 45.2197 9.08134 45.4788 8.82219L50.7732 3.52516C48.376 3.27915 45.8923 4.07476 44.0553 5.91459C41.624 8.3459 41.0195 11.9182 42.2443 14.9125C42.4013 15.2946 42.3123 15.7343 42.0218 16.0248L17.7242 40.3224C17.4337 40.6129 16.9967 40.7019 16.6146 40.5475L16.614 40.5469ZM1.92124 33.7083C1.76945 32.494 1.69356 31.2561 1.69356 29.9998C1.69356 13.4439 15.1348 0 31.6934 0C34.1404 0 36.5167 0.295737 38.7939 0.847931C39.3435 0.981405 39.6811 1.5362 39.5476 2.08586C39.4141 2.63284 38.862 2.97044 38.3123 2.83698C36.1898 2.32141 33.9731 2.0466 31.6936 2.0466C16.2659 2.0466 3.73989 14.5719 3.73989 30.0003C3.73989 31.1283 3.80532 32.2432 3.93617 33.3372L4.24237 33.0231C4.64018 32.6201 5.28661 32.6148 5.68967 33.01C6.09271 33.4052 6.10056 34.0543 5.70276 34.4573L3.97025 36.2239C3.65881 36.5405 3.17987 36.6217 2.7821 36.4228L0.568005 35.321C0.0602851 35.0697 -0.143852 34.4547 0.107392 33.9496C0.358635 33.4419 0.97368 33.2377 1.47878 33.489L1.92124 33.7083ZM59.3382 25.8494L58.9822 26.2132C58.587 26.6162 57.938 26.6215 57.5376 26.2263C57.1319 25.8311 57.1267 25.1821 57.5219 24.779L59.257 23.0125C59.5685 22.6958 60.0448 22.6147 60.4426 22.8136L62.6593 23.9153C63.1644 24.1692 63.3711 24.7816 63.1199 25.2893C62.8686 25.7945 62.2536 25.9986 61.7485 25.7473L61.3638 25.5563C61.581 27.0088 61.6909 28.4901 61.6909 30.0002C61.6909 46.5588 48.2497 60 31.6937 60C28.9902 60 26.3679 59.6415 23.8764 58.9688C23.3294 58.8223 23.0075 58.2596 23.1541 57.7152C23.3007 57.1709 23.8633 56.8463 24.4077 56.9929C26.7317 57.621 29.1735 57.9534 31.6937 57.9534C47.1215 57.9534 59.6448 45.4281 59.6448 29.9997C59.6448 28.589 59.5397 27.2051 59.3382 25.8494Z" fill="#0CB4C4"></path></svg>