<svg width="58" height="60" viewBox="0 0 58 60" fill="none" xmlns="http://www.w3.org/2000/svg"><path d="M8.15608 54.8071H10.4412C10.6582 54.8132 10.8643 54.9036 11.0156 55.0592C11.1669 55.2148 11.2516 55.4233 11.2516 55.6404C11.2516 55.8574 11.1669 56.0659 11.0156 56.2215C10.8643 56.3771 10.6582 56.4675 10.4412 56.4736H8.15608C8.04471 56.4767 7.93384 56.4574 7.83004 56.4169C7.72624 56.3764 7.63161 56.3156 7.55174 56.2379C7.47187 56.1602 7.40838 56.0673 7.36503 55.9647C7.32168 55.862 7.29935 55.7518 7.29935 55.6404C7.29935 55.5289 7.32168 55.4187 7.36503 55.316C7.40838 55.2134 7.47187 55.1205 7.55174 55.0428C7.63161 54.9651 7.72624 54.9042 7.83004 54.8638C7.93384 54.8233 8.04471 54.804 8.15608 54.8071ZM3.80643 22.8331C3.80865 20.762 4.63234 18.7763 6.09679 17.3118C7.56125 15.8472 9.54686 15.0233 11.618 15.0209H11.6696C11.6361 13.1377 12.0511 11.2735 12.8805 9.5824C13.7099 7.8913 14.9298 6.42183 16.4394 5.29541C17.949 4.16899 19.705 3.41796 21.5623 3.10437C23.4195 2.79078 25.3247 2.92364 27.1205 3.49197C27.7937 2.26507 28.8327 1.27859 30.0929 0.669876C31.353 0.0611606 32.7716 -0.139504 34.1512 0.0958157C35.5307 0.331136 36.8026 0.990731 37.7897 1.98278C38.7768 2.97483 39.43 4.24996 39.6585 5.63067C40.7725 5.73908 41.8526 6.0745 42.8321 6.61625C43.8117 7.15799 44.6698 7.89459 45.3538 8.78065C46.0378 9.6667 46.5331 10.6834 46.8092 11.7682C47.0853 12.853 47.1363 13.9828 46.9591 15.088C48.9302 15.3378 50.732 16.3294 51.9976 17.861C53.2633 19.3926 53.8976 21.349 53.7713 23.3319C53.6451 25.3147 52.7679 27.1749 51.3183 28.5337C49.8686 29.8924 47.9556 30.6476 45.9687 30.6453H36.3243C36.307 30.7731 36.2602 30.895 36.1875 31.0015C35.5569 31.9271 34.7582 32.7261 33.8327 33.3569C33.6863 33.4567 33.5121 33.5072 33.3351 33.5013C33.1581 33.4954 32.9875 33.4333 32.8482 33.324L31.3579 32.1531L31.1314 34.035C31.1104 34.211 31.0338 34.3756 30.9128 34.5051C30.7918 34.6346 30.6326 34.7221 30.4585 34.755C30.1837 34.8066 29.9056 34.8453 29.6269 34.8711V36.2092H46.3836C47.7581 36.2114 49.0756 36.7585 50.0473 37.7306C51.0191 38.7027 51.5657 40.0205 51.5674 41.395V42.8279L52.0655 42.3117C52.1408 42.2304 52.2317 42.1649 52.3327 42.1191C52.4337 42.0733 52.5428 42.0482 52.6536 42.0451C52.7644 42.042 52.8748 42.061 52.9782 42.1011C53.0816 42.1412 53.1759 42.2015 53.2557 42.2785C53.3355 42.3555 53.3991 42.4476 53.4428 42.5495C53.4866 42.6514 53.5095 42.761 53.5104 42.8719C53.5112 42.9828 53.49 43.0927 53.4478 43.1953C53.4056 43.2978 53.3434 43.3909 53.2648 43.4691L51.3339 45.4691C51.2561 45.5496 51.1629 45.6135 51.0599 45.6572C50.9569 45.7009 50.8461 45.7234 50.7342 45.7234C50.6223 45.7234 50.5115 45.7009 50.4085 45.6572C50.3055 45.6135 50.2123 45.5496 50.1345 45.4691L48.2036 43.4691C48.125 43.3909 48.0628 43.2978 48.0206 43.1953C47.9784 43.0927 47.9571 42.9828 47.958 42.8719C47.9588 42.761 47.9818 42.6514 48.0255 42.5495C48.0693 42.4476 48.1329 42.3555 48.2127 42.2785C48.2925 42.2015 48.3868 42.1412 48.4902 42.1011C48.5936 42.061 48.7039 42.042 48.8148 42.0451C48.9256 42.0482 49.0347 42.0733 49.1357 42.1191C49.2367 42.1649 49.3275 42.2304 49.4029 42.3117L49.901 42.8279V41.395C49.8998 40.4618 49.5285 39.5671 48.8687 38.9073C48.2088 38.2474 47.3142 37.8762 46.381 37.875H36.9411V42.8279L37.4391 42.3117C37.5145 42.2304 37.6053 42.1649 37.7063 42.1191C37.8073 42.0733 37.9164 42.0482 38.0272 42.0451C38.1381 42.042 38.2484 42.061 38.3518 42.1011C38.4552 42.1412 38.5495 42.2015 38.6293 42.2785C38.7091 42.3555 38.7728 42.4476 38.8165 42.5495C38.8602 42.6514 38.8832 42.761 38.884 42.8719C38.8849 42.9828 38.8636 43.0927 38.8214 43.1953C38.7793 43.2978 38.7171 43.3909 38.6385 43.4691L36.7075 45.4691C36.6297 45.5496 36.5365 45.6135 36.4335 45.6572C36.3305 45.7009 36.2197 45.7234 36.1078 45.7234C35.9959 45.7234 35.8852 45.7009 35.7822 45.6572C35.6791 45.6135 35.5859 45.5496 35.5082 45.4691L33.5772 43.4691C33.4986 43.3909 33.4364 43.2978 33.3942 43.1953C33.3521 43.0927 33.3308 42.9828 33.3316 42.8719C33.3325 42.761 33.3554 42.6514 33.3992 42.5495C33.4429 42.4476 33.5065 42.3555 33.5863 42.2785C33.6661 42.2015 33.7605 42.1412 33.8639 42.1011C33.9672 42.061 34.0776 42.042 34.1884 42.0451C34.2993 42.0482 34.4084 42.0733 34.5094 42.1191C34.6103 42.1649 34.7012 42.2304 34.7766 42.3117L35.2746 42.8279V37.875H22.3121V42.8279L22.8102 42.3117C22.8855 42.2304 22.9764 42.1649 23.0774 42.1191C23.1784 42.0733 23.2875 42.0482 23.3983 42.0451C23.5091 42.042 23.6195 42.061 23.7229 42.1011C23.8263 42.1412 23.9206 42.2015 24.0004 42.2785C24.0802 42.3555 24.1438 42.4476 24.1875 42.5495C24.2313 42.6514 24.2542 42.761 24.2551 42.8719C24.2559 42.9828 24.2347 43.0927 24.1925 43.1953C24.1503 43.2978 24.0881 43.3909 24.0095 43.4691L22.0786 45.4691C22.0008 45.5496 21.9076 45.6135 21.8046 45.6572C21.7016 45.7009 21.5908 45.7234 21.4789 45.7234C21.367 45.7234 21.2562 45.7009 21.1532 45.6572C21.0502 45.6135 20.957 45.5496 20.8792 45.4691L18.9483 43.4691C18.8698 43.3909 18.8077 43.2977 18.7656 43.1952C18.7236 43.0926 18.7024 42.9827 18.7033 42.8718C18.7043 42.761 18.7273 42.6515 18.7711 42.5496C18.8149 42.4478 18.8785 42.3557 18.9583 42.2788C19.0381 42.2019 19.1325 42.1416 19.2359 42.1016C19.3392 42.0616 19.4495 42.0426 19.5604 42.0457C19.6712 42.0488 19.7802 42.074 19.8812 42.1198C19.9821 42.1656 20.0729 42.2311 20.1483 42.3124L20.6463 42.8285V37.875H11.2032C10.27 37.8762 9.37534 38.2474 8.71547 38.9073C8.05561 39.5671 7.68437 40.4618 7.68318 41.395V42.8279L8.18124 42.3117C8.25661 42.2304 8.34744 42.1649 8.44843 42.1191C8.54942 42.0733 8.65853 42.0482 8.76937 42.0451C8.88021 42.042 8.99055 42.061 9.09394 42.1011C9.19732 42.1412 9.29167 42.2015 9.37146 42.2785C9.45125 42.3555 9.51487 42.4476 9.55861 42.5495C9.60234 42.6514 9.6253 42.761 9.62615 42.8719C9.627 42.9828 9.60572 43.0927 9.56356 43.1953C9.52139 43.2978 9.45918 43.3909 9.38059 43.4691L7.44963 45.4691C7.37184 45.5496 7.27866 45.6135 7.17564 45.6572C7.07262 45.7009 6.96186 45.7234 6.84996 45.7234C6.73805 45.7234 6.62729 45.7009 6.52427 45.6572C6.42125 45.6135 6.32807 45.5496 6.25028 45.4691L4.31933 43.4691C4.24073 43.3909 4.17852 43.2978 4.13636 43.1953C4.09419 43.0927 4.07291 42.9828 4.07376 42.8719C4.07461 42.761 4.09757 42.6514 4.14131 42.5495C4.18504 42.4476 4.24866 42.3555 4.32845 42.2785C4.40824 42.2015 4.50259 42.1412 4.60598 42.1011C4.70936 42.061 4.81971 42.042 4.93055 42.0451C5.04139 42.0482 5.15049 42.0733 5.25148 42.1191C5.35247 42.1649 5.44331 42.2304 5.51867 42.3117L6.01674 42.8279V41.395C6.01827 40.0199 6.56519 38.7016 7.5375 37.7293C8.50981 36.757 9.8281 36.2101 11.2032 36.2085H27.9598V34.8705C27.6811 34.8447 27.4031 34.806 27.1282 34.7544C26.9541 34.7215 26.795 34.6339 26.674 34.5044C26.553 34.375 26.4764 34.2103 26.4553 34.0344L26.2289 32.1524L24.7386 33.3234C24.5992 33.4327 24.4287 33.4948 24.2517 33.5007C24.0747 33.5066 23.9004 33.456 23.754 33.3563C22.8287 32.7253 22.03 31.9263 21.3992 31.0008C21.3266 30.8946 21.2798 30.7729 21.2624 30.6453H11.618C9.54686 30.643 7.56125 29.8191 6.09679 28.3545C4.63234 26.89 3.80865 24.9043 3.80643 22.8331ZM34.4514 30.5454L33.2056 28.9583C33.1085 28.835 33.0483 28.6867 33.0319 28.5307C33.0155 28.3747 33.0435 28.2171 33.1127 28.0763C33.2015 27.8958 33.2789 27.7098 33.3443 27.5196C33.3949 27.3712 33.4863 27.2401 33.6081 27.1414C33.7299 27.0427 33.8771 26.9803 34.0327 26.9615L36.0359 26.7209C36.0884 26.216 36.0884 25.707 36.0359 25.2022L34.0359 24.9615C33.8803 24.9427 33.7331 24.8805 33.6112 24.7819C33.4894 24.6833 33.3978 24.5524 33.3469 24.4041C33.2815 24.2136 33.2041 24.0274 33.1153 23.8467C33.0467 23.7056 33.019 23.5481 33.0354 23.3921C33.0519 23.2361 33.1117 23.0878 33.2082 22.9641L34.454 21.3783C34.1347 20.9837 33.7749 20.6236 33.3804 20.3041L31.7901 21.5486C31.667 21.6457 31.5188 21.7059 31.3629 21.7224C31.2069 21.7388 31.0495 21.7108 30.9088 21.6415C30.728 21.553 30.5419 21.4758 30.3514 21.4106C30.203 21.3599 30.0719 21.2683 29.9732 21.1464C29.8745 21.0245 29.8121 20.8773 29.7934 20.7215L29.5527 18.7216C29.0478 18.6693 28.5389 18.6693 28.034 18.7216L27.7934 20.7215C27.7746 20.8773 27.7123 21.0245 27.6136 21.1464C27.5148 21.2683 27.3837 21.3599 27.2353 21.4106C27.0448 21.4758 26.8587 21.5529 26.6779 21.6415C26.5372 21.7108 26.3798 21.7388 26.2238 21.7224C26.0679 21.7059 25.9198 21.6457 25.7966 21.5486L24.2127 20.3041C23.8181 20.6235 23.4583 20.9835 23.1392 21.3783L24.3818 22.968C24.4788 23.0913 24.539 23.2395 24.5555 23.3955C24.5719 23.5516 24.5439 23.7091 24.4747 23.8499C24.3858 24.0306 24.3087 24.2168 24.2437 24.4073C24.1928 24.5556 24.1012 24.6865 23.9794 24.7851C23.8575 24.8837 23.7103 24.9459 23.5547 24.9647L21.5515 25.2054C21.499 25.7103 21.499 26.2192 21.5515 26.7241L23.5515 26.9647C23.7071 26.9836 23.8542 27.0459 23.9761 27.1445C24.0979 27.243 24.1895 27.3739 24.2405 27.5221C24.3059 27.7128 24.3832 27.8992 24.4721 28.0802C24.541 28.2211 24.5689 28.3785 24.5524 28.5345C24.536 28.6905 24.476 28.8387 24.3792 28.9621L23.1334 30.5486C23.4548 30.9422 23.8166 31.3012 24.2127 31.6195L25.7998 30.3731C25.9231 30.2763 26.0712 30.2163 26.2271 30.1998C26.383 30.1834 26.5404 30.2112 26.6811 30.2802C26.862 30.3687 27.0482 30.446 27.2385 30.5118C27.3871 30.5623 27.5183 30.6538 27.6171 30.7757C27.7158 30.8977 27.7781 31.045 27.7966 31.2008L28.0372 33.2008C28.5421 33.2531 29.0511 33.2531 29.5559 33.2008L29.7966 31.2008C29.8151 31.045 29.8774 30.8977 29.9761 30.7757C30.0749 30.6538 30.2061 30.5623 30.3546 30.5118C30.5451 30.4466 30.7313 30.3694 30.9121 30.2808C31.0529 30.2117 31.2103 30.1836 31.3663 30.2C31.5223 30.2163 31.6706 30.2763 31.794 30.3731L33.3804 31.6195C33.7736 31.2997 34.133 30.9397 34.4514 30.5454ZM5.47287 22.8331C5.47475 24.4624 6.12278 26.0243 7.27481 27.1763C8.42683 28.3284 9.98878 28.9764 11.618 28.9783H22.247L22.6024 28.5267L20.7205 28.3002C20.5446 28.2792 20.38 28.2026 20.2506 28.0816C20.1212 27.9606 20.0338 27.8014 20.0012 27.6273C19.7939 26.5269 19.7939 25.3974 20.0012 24.297C20.0338 24.1229 20.1212 23.9637 20.2506 23.8427C20.38 23.7217 20.5446 23.6451 20.7205 23.6241L22.6024 23.3977L21.4321 21.9073C21.3227 21.7681 21.2604 21.5975 21.2545 21.4205C21.2486 21.2434 21.2993 21.0691 21.3992 20.9228C22.0298 19.9974 22.8286 19.1986 23.754 18.568C23.9003 18.4681 24.0746 18.4174 24.2517 18.4233C24.4287 18.4292 24.5993 18.4914 24.7386 18.6009L26.2289 19.7712L26.4553 17.8893C26.4764 17.7134 26.553 17.5489 26.674 17.4195C26.795 17.2901 26.9541 17.2027 27.1282 17.17C28.2287 16.9635 29.358 16.9635 30.4585 17.17C30.6326 17.2027 30.7917 17.2901 30.9127 17.4195C31.0337 17.5489 31.1103 17.7134 31.1314 17.8893L31.3579 19.7712L32.8482 18.6009C32.9874 18.4913 33.158 18.4291 33.335 18.4232C33.5121 18.4172 33.6865 18.468 33.8327 18.568C34.758 19.1988 35.5567 19.9975 36.1875 20.9228C36.2875 21.0691 36.3383 21.2434 36.3324 21.4205C36.3264 21.5975 36.2642 21.7681 36.1546 21.9073L34.9869 23.397L36.8688 23.6235C37.0448 23.6445 37.2094 23.7211 37.3389 23.8421C37.4684 23.9631 37.5559 24.1222 37.5888 24.2964C37.7957 25.3968 37.7957 26.5262 37.5888 27.6267C37.5561 27.8008 37.4687 27.9599 37.3394 28.081C37.21 28.202 37.0454 28.2786 36.8694 28.2996L34.9875 28.526L35.343 28.9776H45.9687C47.5985 28.9727 49.1596 28.3205 50.3085 27.1645C51.4574 26.0086 52.1001 24.4436 52.0951 22.8138C52.0902 21.184 51.438 19.6229 50.2821 18.474C49.1261 17.3251 47.5611 16.6824 45.9313 16.6874C45.8019 16.6874 45.6742 16.6573 45.5584 16.5993C45.4426 16.5414 45.3419 16.4573 45.2643 16.3536C45.1867 16.25 45.1344 16.1297 45.1114 16.0023C45.0884 15.8749 45.0955 15.7439 45.132 15.6196C45.4156 14.6496 45.47 13.6269 45.2911 12.6322C45.1122 11.6375 44.7047 10.698 44.1008 9.88756C43.4969 9.07715 42.7131 8.41803 41.8111 7.96212C40.9092 7.50622 39.9136 7.26598 38.903 7.26034C38.6897 7.25961 38.4849 7.1771 38.3306 7.02983C38.1764 6.88255 38.0845 6.68173 38.0739 6.46873C38.0153 5.31695 37.5649 4.21977 36.7975 3.35888C36.0301 2.49799 34.9917 1.92503 33.8542 1.7349C32.7167 1.54476 31.5484 1.74886 30.5427 2.31338C29.5371 2.8779 28.7544 3.76898 28.3243 4.83906C28.2425 5.04292 28.0834 5.20616 27.8817 5.29318C27.68 5.38019 27.452 5.38393 27.2476 5.30358C25.6245 4.66869 23.8658 4.46025 22.1392 4.69812C20.4127 4.936 18.7758 5.61226 17.3849 6.6624C15.9939 7.71254 14.8952 9.10154 14.1935 10.6969C13.4919 12.2923 13.2106 14.0408 13.3767 15.7758C13.3876 15.8913 13.3742 16.0078 13.3374 16.1178C13.3007 16.2279 13.2414 16.3291 13.1633 16.4149C13.0852 16.5007 12.99 16.5692 12.8839 16.6162C12.7778 16.6631 12.663 16.6873 12.547 16.6874H11.618C9.98867 16.6893 8.42663 17.3374 7.27458 18.4895C6.12253 19.6417 5.47458 21.2038 5.47287 22.8331ZM9.99994 54.0039H10.4412C10.6623 54.0039 10.8743 53.9161 11.0306 53.7598C11.1869 53.6035 11.2748 53.3914 11.2748 53.1704C11.2748 52.9493 11.1869 52.7373 11.0306 52.581C10.8743 52.4246 10.6623 52.3368 10.4412 52.3368H9.99994C9.77887 52.3368 9.56685 52.4246 9.41053 52.581C9.25421 52.7373 9.16639 52.9493 9.16639 53.1704C9.16639 53.3914 9.25421 53.6035 9.41053 53.7598C9.56685 53.9161 9.77887 54.0039 9.99994 54.0039ZM32.4166 25.9615C32.4167 26.6781 32.2043 27.3787 31.8063 27.9746C31.4082 28.5705 30.8424 29.035 30.1804 29.3094C29.5183 29.5837 28.7898 29.6555 28.0869 29.5158C27.384 29.3761 26.7384 29.0311 26.2316 28.5244C25.7248 28.0177 25.3797 27.3721 25.2398 26.6692C25.1 25.9664 25.1717 25.2379 25.4459 24.5758C25.7201 23.9137 26.1845 23.3478 26.7804 22.9496C27.3762 22.5515 28.0767 22.339 28.7934 22.339C29.7538 22.3401 30.6746 22.7222 31.3538 23.4013C32.033 24.0803 32.4152 25.0011 32.4166 25.9615ZM30.7495 25.9615C30.7495 25.5746 30.6348 25.1964 30.4198 24.8747C30.2049 24.5531 29.8994 24.3023 29.5419 24.1543C29.1845 24.0062 28.7912 23.9675 28.4117 24.043C28.0323 24.1185 27.6837 24.3048 27.4102 24.5783C27.1366 24.8519 26.9503 25.2004 26.8748 25.5799C26.7994 25.9593 26.8381 26.3526 26.9861 26.7101C27.1342 27.0675 27.3849 27.373 27.7066 27.588C28.0283 27.8029 28.4065 27.9176 28.7934 27.9176C29.312 27.9171 29.8092 27.7109 30.176 27.3441C30.5427 26.9774 30.749 26.4801 30.7495 25.9615ZM21.9515 55.6387C21.9515 55.7482 21.973 55.8566 22.0149 55.9577C22.0568 56.0589 22.1182 56.1507 22.1956 56.2281C22.273 56.3055 22.3649 56.3669 22.466 56.4088C22.5672 56.4507 22.6756 56.4723 22.785 56.4723H25.0702C25.2871 56.4662 25.4932 56.3758 25.6445 56.2202C25.7959 56.0646 25.8805 55.8561 25.8805 55.6391C25.8805 55.422 25.7959 55.2135 25.6445 55.0579C25.4932 54.9023 25.2871 54.8119 25.0702 54.8058H22.785C22.5644 54.8067 22.3531 54.895 22.1975 55.0513C22.0418 55.2077 21.9545 55.4194 21.9547 55.64L21.9515 55.6387ZM53.8867 54.0026H54.3274C54.5485 54.0026 54.7605 53.9148 54.9168 53.7585C55.0731 53.6022 55.1609 53.3901 55.1609 53.1691C55.1609 52.948 55.0731 52.736 54.9168 52.5797C54.7605 52.4234 54.5485 52.3355 54.3274 52.3355H53.89C53.6689 52.3355 53.4569 52.4234 53.3006 52.5797C53.1443 52.736 53.0564 52.948 53.0564 53.1691C53.0564 53.3901 53.1443 53.6022 53.3006 53.7585C53.4569 53.9148 53.6689 54.0026 53.89 54.0026H53.8867ZM42.9578 49.131V58.5948C42.9574 58.9674 42.8093 59.3246 42.5458 59.5881C42.2824 59.8515 41.9252 59.9997 41.5526 60H30.6643C30.2918 59.9997 29.9345 59.8515 29.6711 59.5881C29.4077 59.3246 29.2595 58.9674 29.2592 58.5948V50.6994C29.2595 50.4467 29.3601 50.2045 29.5389 50.026C29.7177 49.8474 29.96 49.7472 30.2127 49.7472H35.5456L35.9294 48.9646C36.0447 48.7445 36.2227 48.5636 36.441 48.4449C36.6593 48.3263 36.9079 48.2752 37.1552 48.2981H42.1275C42.3479 48.2988 42.5591 48.3869 42.7148 48.543C42.8704 48.6991 42.9578 48.9106 42.9578 49.131ZM30.9224 51.8117H34.5295L34.723 51.4136H30.9224V51.8117ZM41.2894 49.9646H37.2894L35.8946 52.8117C35.7793 53.0318 35.6013 53.2127 35.3831 53.3314C35.1648 53.4502 34.9162 53.5015 34.6688 53.4787H30.9224V58.3336H41.2913L41.2894 49.9646ZM51.2081 55.642C51.208 55.7514 51.2295 55.8598 51.2713 55.9609C51.3131 56.062 51.3744 56.1539 51.4518 56.2313C51.5291 56.3087 51.621 56.3701 51.7221 56.412C51.8232 56.4539 51.9315 56.4755 52.041 56.4755H54.3261C54.4375 56.4786 54.5483 56.4593 54.6521 56.4189C54.7559 56.3784 54.8506 56.3175 54.9304 56.2398C55.0103 56.1622 55.0738 56.0692 55.1171 55.9666C55.1605 55.864 55.1828 55.7537 55.1828 55.6423C55.1828 55.5309 55.1605 55.4206 55.1171 55.318C55.0738 55.2153 55.0103 55.1224 54.9304 55.0447C54.8506 54.9671 54.7559 54.9062 54.6521 54.8657C54.5483 54.8252 54.4375 54.806 54.3261 54.8091H52.0429C51.8223 54.8091 51.6108 54.8965 51.4546 55.0523C51.2985 55.2081 51.2105 55.4195 51.21 55.64L51.2081 55.642ZM57.5867 49.131V58.5948C57.5864 58.9674 57.4382 59.3246 57.1748 59.5881C56.9113 59.8515 56.5541 59.9997 56.1816 60H45.292C44.92 59.9988 44.5636 59.8503 44.3008 59.5869C44.0381 59.3236 43.8904 58.9669 43.89 58.5948V50.6994C43.8904 50.447 43.9908 50.205 44.1693 50.0264C44.3478 49.8479 44.5898 49.7475 44.8423 49.7472H50.1758L50.559 48.9646C50.6743 48.7445 50.8523 48.5636 51.0706 48.4449C51.2888 48.3263 51.5375 48.2752 51.7848 48.2981H56.7564C56.9769 48.2988 57.188 48.3869 57.3437 48.543C57.4993 48.6991 57.5867 48.9106 57.5867 49.131ZM45.5533 51.8117H49.1603L49.3539 51.4136H45.5533V51.8117ZM55.9203 49.9646H51.9203L50.5255 52.8117C50.4102 53.0318 50.2322 53.2127 50.0139 53.3314C49.7957 53.4502 49.5471 53.5015 49.2997 53.4787H45.5533V58.3336H55.9203V49.9646ZM13.6999 49.131V58.5948C13.6996 58.9674 13.5514 59.3246 13.288 59.5881C13.0245 59.8515 12.6673 59.9997 12.2948 60H1.40515C1.03259 59.9997 0.67538 59.8515 0.411937 59.5881C0.148494 59.3246 0.000341646 58.9674 0 58.5948V50.6994C0.000341377 50.447 0.100777 50.205 0.279285 50.0264C0.457793 49.8479 0.699804 49.7475 0.952252 49.7472H6.28512L6.67222 48.9646C6.7873 48.7444 6.96534 48.5634 7.18363 48.4447C7.40193 48.326 7.65062 48.275 7.89801 48.2981H12.8696C13.09 48.2988 13.3012 48.3869 13.4569 48.543C13.6125 48.6991 13.6999 48.9106 13.6999 49.131ZM1.66644 51.8117H5.27351L5.46706 51.4136H1.66644V51.8117ZM12.0335 49.9646H8.0335L6.63802 52.8117C6.52296 53.0319 6.34495 53.213 6.12666 53.3318C5.90838 53.4506 5.65968 53.5017 5.41222 53.4787H1.66644V58.3336H12.0335V49.9646ZM28.3289 49.131V58.5948C28.3285 58.9676 28.1802 59.325 27.9165 59.5885C27.6527 59.852 27.2952 60 26.9224 60H16.0341C15.6615 59.9997 15.3043 59.8515 15.0409 59.5881C14.7774 59.3246 14.6293 58.9674 14.6289 58.5948V50.6994C14.6293 50.447 14.7297 50.205 14.9082 50.0264C15.0867 49.8479 15.3287 49.7475 15.5812 49.7472H20.9141L21.2979 48.9646C21.4132 48.7445 21.5912 48.5636 21.8095 48.4449C22.0277 48.3263 22.2764 48.2752 22.5237 48.2981H27.496C27.7169 48.2981 27.9287 48.3859 28.0849 48.5421C28.2411 48.6983 28.3289 48.9101 28.3289 49.131ZM16.2954 51.8117H19.9025L20.096 51.4136H16.2954V51.8117ZM26.6643 49.9646H22.6644L21.2689 52.8117C21.1538 53.0319 20.9758 53.213 20.7575 53.3318C20.5393 53.4506 20.2906 53.5017 20.0431 53.4787H16.2954V58.3336H26.6643V49.9646ZM24.6308 54.0039H25.0721C25.2932 54.0039 25.5052 53.9161 25.6615 53.7598C25.8178 53.6035 25.9056 53.3914 25.9056 53.1704C25.9056 52.9493 25.8178 52.7373 25.6615 52.581C25.5052 52.4246 25.2932 52.3368 25.0721 52.3368H24.6308C24.4097 52.3368 24.1977 52.4246 24.0414 52.581C23.8851 52.7373 23.7973 52.9493 23.7973 53.1704C23.7973 53.3914 23.8851 53.6035 24.0414 53.7598C24.1977 53.9161 24.4097 54.0039 24.6308 54.0039ZM36.583 55.64C36.5829 55.7495 36.6044 55.8578 36.6462 55.959C36.688 56.0601 36.7494 56.152 36.8267 56.2294C36.9041 56.3068 36.9959 56.3682 37.097 56.4101C37.1981 56.452 37.3065 56.4736 37.4159 56.4736H39.6965C39.9135 56.4675 40.1195 56.3771 40.2709 56.2215C40.4222 56.0659 40.5069 55.8574 40.5069 55.6404C40.5069 55.4233 40.4222 55.2148 40.2709 55.0592C40.1195 54.9036 39.9135 54.8132 39.6965 54.8071H37.414C37.1931 54.8071 36.9812 54.8949 36.825 55.0511C36.6688 55.2073 36.5811 55.4191 36.5811 55.64H36.583ZM39.2604 54.0039H39.6965C39.9176 54.0039 40.1296 53.9161 40.2859 53.7598C40.4422 53.6035 40.5301 53.3914 40.5301 53.1704C40.5301 52.9493 40.4422 52.7373 40.2859 52.581C40.1296 52.4246 39.9176 52.3368 39.6965 52.3368H39.2559C39.0348 52.3368 38.8228 52.4246 38.6665 52.581C38.5102 52.7373 38.4223 52.9493 38.4223 53.1704C38.4223 53.3914 38.5102 53.6035 38.6665 53.7598C38.8228 53.9161 39.0348 54.0039 39.2559 54.0039H39.2604Z" fill="#0CB4C4"></path></svg>