<svg width="60" height="60" viewBox="0 0 60 60" fill="none" xmlns="http://www.w3.org/2000/svg"><path d="M50.1187 11.6438C49.5562 5.05312 44.1 0 37.3875 0C32.2219 0 27.6281 3.08437 25.6406 7.77187C24.2625 7.10625 22.7438 6.75938 21.2063 6.75938C16.0594 6.75938 11.8031 10.5375 11.1094 15.5344C10.8 15.5062 10.5 15.4969 10.1812 15.4969C4.575 15.4875 0 20.0625 0 25.6781C0 31.2937 4.575 35.8687 10.1906 35.8687H18.1687V46.5094L11.0531 51C10.3969 50.3813 9.525 49.9969 8.55938 49.9969C6.55313 49.9969 4.92188 51.6281 4.92188 53.6344C4.92188 55.6406 6.55313 57.2719 8.55938 57.2719C10.5656 57.2719 12.1969 55.6406 12.1969 53.6344C12.1969 53.25 12.1219 52.8937 12.0094 52.5469L19.5563 47.775C19.8188 47.6062 19.9781 47.3156 19.9781 47.0062V35.8687H30.2063V52.8563C28.6406 53.2594 27.4781 54.675 27.4781 56.3625C27.4781 58.3687 29.1094 60 31.1156 60C33.1219 60 34.7531 58.3687 34.7531 56.3625C34.7531 54.675 33.5906 53.2594 32.025 52.8563V35.8687H42.2531V47.0062C42.2531 47.3156 42.4125 47.6062 42.675 47.775L50.2219 52.5469C50.1094 52.8937 50.0344 53.25 50.0344 53.6344C50.0344 55.6406 51.6656 57.2719 53.6719 57.2719C55.6781 57.2719 57.3094 55.6406 57.3094 53.6344C57.3094 51.6281 55.6781 49.9969 53.6719 49.9969C52.7063 49.9969 51.825 50.3813 51.1781 51L44.0625 46.5094V35.8687H47.7469C54.4969 35.8687 59.9813 30.3844 59.9813 23.6437C60 17.7844 55.8 12.7594 50.1187 11.6438ZM8.55938 55.4531C7.55625 55.4531 6.74062 54.6375 6.74062 53.6344C6.74062 52.6312 7.55625 51.8156 8.55938 51.8156C9.5625 51.8156 10.3781 52.6312 10.3781 53.6344C10.3781 54.6375 9.5625 55.4531 8.55938 55.4531ZM32.9437 56.3625C32.9437 57.3656 32.1281 58.1813 31.125 58.1813C30.1219 58.1813 29.3062 57.3656 29.3062 56.3625C29.3062 55.3594 30.1219 54.5438 31.125 54.5438C32.1281 54.5438 32.9437 55.3594 32.9437 56.3625ZM53.6906 51.8156C54.6938 51.8156 55.5094 52.6312 55.5094 53.6344C55.5094 54.6375 54.6938 55.4531 53.6906 55.4531C52.6875 55.4531 51.8719 54.6375 51.8719 53.6344C51.8719 52.6312 52.6875 51.8156 53.6906 51.8156ZM47.7656 34.05H10.1906C5.57812 34.05 1.81875 30.2906 1.81875 25.6781C1.81875 21.0656 5.57812 17.3062 10.1906 17.3062C10.7344 17.3062 11.2594 17.3531 11.7656 17.4563C12.0188 17.5031 12.2906 17.4375 12.5063 17.2781C12.7125 17.1094 12.8438 16.8656 12.8531 16.6031C13.0313 12.1031 16.7062 8.57812 21.2156 8.57812C22.7906 8.57812 24.3188 9.01875 25.65 9.85313C25.8844 10.0031 26.175 10.0313 26.4375 9.9375C26.7 9.84375 26.9063 9.62812 26.9906 9.36562C28.4719 4.85625 32.6438 1.82813 37.3875 1.82813C43.3594 1.82813 48.1687 6.49687 48.3469 12.4594C48.3562 12.9094 48.6937 13.275 49.1344 13.3313C54.2906 14.0063 58.1813 18.4406 58.1813 23.6437C58.1813 29.3812 53.5125 34.05 47.7656 34.05Z" fill="#0CB4C4"></path><path d="M31.125 15.2715C25.9313 15.2715 21.0563 17.5027 17.4 21.5527C17.0906 21.8996 17.0906 22.4246 17.4 22.7715C21.0563 26.8215 25.9313 29.0527 31.125 29.0527C36.3188 29.0527 41.1938 26.8215 44.85 22.7715C45.1594 22.4246 45.1594 21.8996 44.85 21.5527C41.1938 17.5027 36.3188 15.2715 31.125 15.2715ZM36.1969 22.1621C36.1969 24.7871 34.2 26.9434 31.6406 27.2059C31.4625 27.2152 31.2938 27.234 31.125 27.234C30.9563 27.234 30.7781 27.2152 30.6094 27.2059C28.0594 26.9434 26.0531 24.7777 26.0531 22.1621C26.0531 19.5371 28.05 17.3809 30.6094 17.1184C30.7875 17.109 30.9563 17.0902 31.125 17.0902C31.2938 17.0902 31.4719 17.109 31.6406 17.1184C34.2 17.3809 36.1969 19.5371 36.1969 22.1621ZM25.5656 18.1027C24.7313 19.2465 24.2344 20.6434 24.2344 22.1621C24.2344 23.6809 24.7313 25.0777 25.5656 26.2215C23.2781 25.3684 21.15 24.0184 19.3219 22.1621C21.15 20.3152 23.2781 18.9559 25.5656 18.1027ZM36.6844 26.2215C37.5188 25.0777 38.0156 23.6809 38.0156 22.1621C38.0156 20.6434 37.5188 19.2465 36.6844 18.1027C38.9719 18.9559 41.1 20.3059 42.9281 22.1621C41.1 24.009 38.9719 25.3684 36.6844 26.2215Z" fill="#0CB4C4"></path><path d="M29.4648 22.1633C29.4648 23.0727 30.2055 23.8227 31.1242 23.8227C32.043 23.8227 32.7836 23.082 32.7836 22.1633C32.7836 21.2445 32.043 20.5039 31.1242 20.5039C30.2055 20.5039 29.4648 21.2539 29.4648 22.1633Z" fill="#0CB4C4"></path></svg>