<svg width="88" height="60" viewBox="0 0 88 60" fill="none" xmlns="http://www.w3.org/2000/svg"><path d="M84.9671 29.2451H83.0977V25.9197C83.0977 23.7807 82.2528 21.7496 80.743 20.2397C80.4374 19.9341 80.0959 19.6465 79.7543 19.3948V11.6836C79.7543 9.74236 78.1726 8.16058 76.2313 8.16058H62.0491V3.77472C62.0491 1.68963 60.3595 0 58.2744 0H3.77472C1.68963 0 0 1.68963 0 3.77472V39.6345C0 41.7196 1.68963 43.4092 3.77472 43.4092H25.74V50.9766H20.006C19.6105 50.9766 19.2331 51.1923 19.0533 51.5518L15.4584 58.4182C15.2786 58.7597 15.2966 59.1552 15.4943 59.4787C15.692 59.8023 16.0336 60 16.411 60H45.6561C46.0336 60 46.3751 59.8023 46.5728 59.4787C46.7705 59.1552 46.7885 58.7597 46.6088 58.4182L43.0138 51.5518C42.834 51.1923 42.4566 50.9766 42.0611 50.9766H36.3271V43.4092H49.323V56.4769C49.323 58.4182 50.9047 60 52.846 60H76.2313C78.1726 60 79.7543 58.4182 79.7543 56.4769V49.305H84.9671C86.1174 49.305 87.0521 48.3703 87.0521 47.2199V31.3481C87.0701 30.1797 86.1174 29.2451 84.9671 29.2451ZM80.9407 25.9197V29.2451H79.6824V26.1354C79.6824 24.8951 79.1971 23.7448 78.3343 22.864C77.4536 21.9832 76.3032 21.5159 75.0629 21.5159C72.5105 21.5159 70.4434 23.583 70.4434 26.1354V29.2451H69.1851V25.9197C69.1851 22.6842 71.8274 20.0419 75.0629 20.0419H75.0809C75.0809 20.0419 75.0809 20.0419 75.0989 20.0419C76.1774 20.0419 77.2019 20.3295 78.0827 20.8688C78.1007 20.8868 78.1186 20.8868 78.1366 20.9047C78.5321 21.1384 78.8916 21.426 79.2331 21.7675C80.3295 22.864 80.9407 24.3379 80.9407 25.9197ZM77.5255 29.2451H72.6004V26.1354C72.6004 24.7693 73.6968 23.6729 75.0629 23.6729C75.728 23.6729 76.3391 23.9245 76.8065 24.3919C77.2738 24.8592 77.5255 25.4703 77.5255 26.1354V29.2451ZM65.1408 49.305H71.7735C72.5644 49.8802 73.3733 50.3655 73.9485 50.707C73.9665 50.707 73.9664 50.725 73.9844 50.725V54.0863H55.0749V13.8945H59.4967C59.5866 14.9191 60.4494 15.71 61.5099 15.71H67.5494C68.592 15.71 69.4548 14.9191 69.5626 13.8945H74.0024V17.9569C70.0659 18.4781 67.0282 21.8574 67.0282 25.9197V29.2451H65.1588C64.0084 29.2451 63.0737 30.1797 63.0737 31.3301V47.2019C63.0557 48.3703 63.9904 49.305 65.1408 49.305ZM79.1612 45.4404C78.4602 46.8244 76.2493 48.1546 75.0629 48.8556C73.8766 48.1366 71.6657 46.8244 70.9647 45.4404C69.976 43.4811 69.6705 40.2636 69.5986 38.7358C70.5692 38.4841 72.115 37.9808 73.3913 37.118C74.0384 36.6866 74.5956 36.1294 75.0809 35.6082C75.5482 36.1474 76.1234 36.6866 76.7705 37.118C78.0467 37.9808 79.5926 38.4841 80.5632 38.7358C80.4554 40.2636 80.1498 43.4632 79.1612 45.4404ZM43.8766 57.843H18.1905L20.6531 53.1336H41.396L43.8766 57.843ZM34.1702 50.9766H27.8969V43.4092H34.1702V50.9766ZM3.77472 41.2522C2.87597 41.2522 2.15698 40.5333 2.15698 39.6345V3.77472C2.15698 2.87597 2.87597 2.15698 3.77472 2.15698H58.2744C59.1732 2.15698 59.8922 2.87597 59.8922 3.77472V8.16058H57.843V5.33853C57.843 4.74536 57.3577 4.26004 56.7645 4.26004H5.30258C4.70941 4.26004 4.22409 4.74536 4.22409 5.33853V38.0707C4.22409 38.6639 4.70941 39.1492 5.30258 39.1492H49.323V41.2522H3.77472ZM52.828 8.16058C50.8868 8.16058 49.305 9.74236 49.305 11.6836V36.9922H6.38107V6.41702H55.686V8.16058H52.828ZM76.2313 57.843H52.828C52.0731 57.843 51.462 57.2319 51.462 56.4769V42.3667V42.3487V42.3307V38.1246V38.1067V38.0887V11.6836C51.462 10.9287 52.0731 10.3176 52.828 10.3176H76.2133C76.9682 10.3176 77.5794 10.9287 77.5794 11.6836V18.2804C77.112 18.1186 76.6267 18.0108 76.1234 17.9389V12.7981C76.1234 12.2049 75.6381 11.7196 75.0449 11.7196H68.4662C67.873 11.7196 67.3877 12.2049 67.3877 12.7981V13.5351H61.6357V12.7981C61.6357 12.2049 61.1504 11.7196 60.5572 11.7196H53.9784C53.3853 11.7196 52.8999 12.2049 52.8999 12.7981V55.1648C52.8999 55.7579 53.3853 56.2433 53.9784 56.2433H75.0449C75.6381 56.2433 76.1234 55.7579 76.1234 55.1648V50.707L76.1414 50.689C76.5369 50.4554 77.0401 50.1498 77.5614 49.8083V56.459C77.5974 57.2319 76.9862 57.843 76.2313 57.843ZM84.9131 47.148H80.6351C80.8149 46.9143 80.9587 46.6627 81.1025 46.411C82.6663 43.3194 82.7382 38.1066 82.7382 37.891C82.7382 37.3697 82.3607 36.9023 81.8394 36.8125C81.8215 36.8125 79.5566 36.399 77.9569 35.3206C77.2918 34.8712 76.5908 34.1342 75.9437 33.2355C75.746 32.9479 75.4224 32.7861 75.0629 32.7861C74.7214 32.7861 74.3978 32.9479 74.1821 33.2355C73.5351 34.1342 72.8161 34.8712 72.169 35.3206C70.5872 36.399 68.3224 36.7945 68.2864 36.8125C67.7651 36.9023 67.3877 37.3517 67.3877 37.891C67.3877 38.1066 67.4596 43.3373 69.0234 46.411C69.1492 46.6627 69.311 46.9143 69.4907 47.148H65.2127V31.402H84.8952V47.148H84.9131ZM73.9844 42.5824L76.8604 39.5087C77.2738 39.0773 77.9569 39.0413 78.3883 39.4548C78.8197 39.8682 78.8556 40.5512 78.4422 40.9826L74.7394 44.9371C74.5416 45.1528 74.2541 45.2786 73.9485 45.2786H73.9305C73.6249 45.2786 73.3373 45.1348 73.1396 44.9011L71.6657 43.1756C71.2882 42.7262 71.3421 42.0431 71.7915 41.6477C72.2409 41.2702 72.9239 41.3241 73.3194 41.7735L73.9844 42.5824ZM45.1168 15.4044H11.9712C11.3781 15.4044 10.8928 15.8898 10.8928 16.4829V28.7238C10.8928 29.317 11.3781 29.8023 11.9712 29.8023H45.1168C45.71 29.8023 46.1953 29.317 46.1953 28.7238V16.4829C46.1953 15.8898 45.71 15.4044 45.1168 15.4044ZM44.0383 27.6273H13.0497V17.5434H44.0383V27.6273ZM15.8538 22.9898L16.5908 22.5584L15.8538 22.127C15.3505 21.8215 15.1708 21.1564 15.4763 20.6531C15.7819 20.1498 16.447 19.97 16.9503 20.2756L17.5974 20.6711V19.9161C17.5974 19.3229 18.0827 18.8376 18.6759 18.8376C19.269 18.8376 19.7543 19.3229 19.7543 19.9161V20.6711L20.4014 20.2756C20.9047 19.97 21.5698 20.1318 21.8754 20.6531C22.1809 21.1744 22.0192 21.8215 21.4979 22.127L20.7609 22.5584L21.4979 22.9898C22.0012 23.2954 22.1809 23.9605 21.8754 24.4638C21.6777 24.8053 21.3182 24.985 20.9407 24.985C20.7609 24.985 20.5632 24.9311 20.3835 24.8232L19.7364 24.4278V25.1827C19.7364 25.7759 19.251 26.2612 18.6579 26.2612C18.0647 26.2612 17.5794 25.7759 17.5794 25.1827V24.4278L16.9323 24.8232C16.7525 24.9311 16.5728 24.985 16.3751 24.985C16.0156 24.985 15.6561 24.8053 15.4404 24.4638C15.1708 23.9605 15.3505 23.2954 15.8538 22.9898ZM25.8838 22.9898L26.6207 22.5584L25.8838 22.127C25.3805 21.8215 25.2007 21.1564 25.5063 20.6531C25.8119 20.1498 26.4769 19.97 26.9802 20.2756L27.6273 20.6711V19.9161C27.6273 19.3229 28.1126 18.8376 28.7058 18.8376C29.299 18.8376 29.7843 19.3229 29.7843 19.9161V20.6711L30.4314 20.2756C30.9347 19.97 31.5998 20.1318 31.9053 20.6531C32.2109 21.1564 32.0491 21.8215 31.5279 22.127L30.7909 22.5584L31.5279 22.9898C32.0312 23.2954 32.2109 23.9605 31.9053 24.4638C31.7076 24.8053 31.3481 24.985 30.9706 24.985C30.7909 24.985 30.5932 24.9311 30.4134 24.8232L29.7663 24.4278V25.1827C29.7663 25.7759 29.281 26.2612 28.6878 26.2612C28.0947 26.2612 27.6093 25.7759 27.6093 25.1827V24.4278L26.9623 24.8232C26.7825 24.9311 26.6028 24.985 26.405 24.985C26.0455 24.985 25.686 24.8053 25.4703 24.4638C25.2187 23.9605 25.3805 23.2954 25.8838 22.9898ZM35.9317 22.9898L36.6687 22.5584L35.9317 22.127C35.4284 21.8215 35.2487 21.1564 35.5542 20.6531C35.8598 20.1498 36.5249 19.97 37.0282 20.2756L37.6753 20.6711V19.9161C37.6753 19.3229 38.1606 18.8376 38.7537 18.8376C39.3469 18.8376 39.8322 19.3229 39.8322 19.9161V20.6711L40.4793 20.2756C40.9826 19.97 41.6477 20.1318 41.9533 20.6531C42.2588 21.1564 42.0971 21.8215 41.5758 22.127L40.8388 22.5584L41.5758 22.9898C42.0791 23.2954 42.2588 23.9605 41.9533 24.4638C41.7555 24.8053 41.396 24.985 41.0186 24.985C40.8388 24.985 40.6411 24.9311 40.4614 24.8232L39.8143 24.4278V25.1827C39.8143 25.7759 39.3289 26.2612 38.7358 26.2612C38.1426 26.2612 37.6573 25.7759 37.6573 25.1827V24.4278L37.0102 24.8232C36.8304 24.9311 36.6507 24.985 36.453 24.985C36.0935 24.985 35.734 24.8053 35.5183 24.4638C35.2487 23.9605 35.4104 23.2954 35.9317 22.9898Z" fill="#0CB4C4"></path></svg>