<svg xmlns="http://www.w3.org/2000/svg" xmlns:xlink="http://www.w3.org/1999/xlink" version="1.1" id="Layer_1" x="0px" y="0px" width="67.209px" height="60px" viewBox="0 0 67.209 60" enable-background="new 0 0 67.209 60" xml:space="preserve"><g><path fill="#0CB4C4" d="M67.209,23.49H0V0h67.209V23.49z M2.231,21.26h62.748V2.23H2.231V21.26z"></path><path fill="#0CB4C4" d="M67.209,60H0V36.51h67.209V60z M2.231,57.77h62.748V38.741H2.231V57.77z"></path><rect x="37.558" y="22.375" fill="#0CB4C4" width="2.232" height="15.251"></rect><g><path fill="#0CB4C4" d="M12.648,18.02c-3.459,0-6.274-2.815-6.274-6.274c0-3.46,2.815-6.275,6.274-6.275s6.274,2.815,6.274,6.275 C18.922,15.204,16.107,18.02,12.648,18.02z M12.648,7.803c-2.174,0-3.942,1.769-3.942,3.942c0,2.174,1.769,3.941,3.942,3.941 c2.173,0,3.942-1.768,3.942-3.941C16.59,9.572,14.821,7.803,12.648,7.803z"></path><path fill="#0CB4C4" d="M29.164,18.02c-3.459,0-6.274-2.815-6.274-6.274c0-3.46,2.814-6.275,6.274-6.275s6.274,2.815,6.274,6.275 C35.438,15.204,32.623,18.02,29.164,18.02z M29.164,7.803c-2.173,0-3.942,1.769-3.942,3.942c0,2.174,1.769,3.941,3.942,3.941 c2.174,0,3.942-1.768,3.942-3.941C33.106,9.572,31.337,7.803,29.164,7.803z"></path></g><g><path fill="#0CB4C4" d="M36.724,54.478c-3.432,0-6.224-2.791-6.224-6.223s2.792-6.224,6.224-6.224 c3.433,0,6.224,2.792,6.224,6.224S40.157,54.478,36.724,54.478z M36.724,44.262c-2.202,0-3.993,1.791-3.993,3.993 c0,2.201,1.791,3.993,3.993,3.993c2.202,0,3.993-1.792,3.993-3.993C40.717,46.053,38.926,44.262,36.724,44.262z"></path><path fill="#0CB4C4" d="M53.24,54.478c-3.432,0-6.223-2.791-6.223-6.223s2.791-6.224,6.223-6.224s6.224,2.792,6.224,6.224 S56.671,54.478,53.24,54.478z M53.24,44.262c-2.201,0-3.993,1.791-3.993,3.993c0,2.201,1.792,3.993,3.993,3.993 c2.202,0,3.993-1.792,3.993-3.993C57.233,46.053,55.442,44.262,53.24,44.262z"></path></g></g></svg>