<svg xmlns="http://www.w3.org/2000/svg" xmlns:xlink="http://www.w3.org/1999/xlink" version="1.1" id="Layer_1" x="0px" y="0px" width="60.014px" height="60px" viewBox="0 0 60.014 60" enable-background="new 0 0 60.014 60" xml:space="preserve"><g><path fill="#0CB4C4" d="M51.014,30c4.971,0,9-4.028,9-9s-4.029-9-9-9h-2.061c-0.538-4.929-4.974-8.487-9.9-7.946 C37.509,4.222,36.032,4.79,34.774,5.7C29.646-0.794,20.225-1.904,13.73,3.222c-2.792,2.204-4.709,5.329-5.407,8.816 c-4.953,0.378-8.662,4.699-8.284,9.651c0.357,4.689,4.27,8.313,8.974,8.31h17v4h-5c-2.762,0-5,2.238-5,5v13 c-0.005,1.654-1.345,2.994-3,3H7.873C7.32,52.86,5.14,51.575,3,52.126C0.862,52.679-0.424,54.86,0.128,57 C0.68,59.138,2.862,60.423,5,59.872C6.409,59.508,7.509,58.408,7.873,57h5.141c2.762,0,5-2.238,5-5V39c0.005-1.655,1.345-2.995,3-3 h5v6c0,1.331,1.211,2.3,3,2.961V58h-3v2h4c0.552,0,1-0.448,1-1V45.52c1.317,0.264,2.656,0.417,4,0.459V56c0,0.552,0.448,1,1,1 h9.141c0.552,2.139,2.731,3.424,4.872,2.872c2.138-0.552,3.425-2.733,2.872-4.872c-0.552-2.14-2.734-3.425-4.872-2.873 c-1.408,0.363-2.51,1.464-2.872,2.873h-8.141v-9.021c4.511-0.159,9-1.42,9-3.979v-2h3c0.552,0,1,0.448,1,1v8c0,0.552,0.447,1,1,1h5 v-2h-4v-7c-0.006-1.655-1.347-2.995-3-3h-3v-8H51.014z M4.013,58c-1.104,0-2-0.896-2-2c0-1.104,0.896-2,2-2s2,0.896,2,2 C6.011,57.102,5.116,57.997,4.013,58z M49.014,54c1.104,0,2,0.896,2,2c0,1.104-0.896,2-2,2c-1.104,0-2-0.896-2-2 C47.017,54.896,47.909,54.001,49.014,54z M44.014,42c0,0.511-2.75,2-8,2s-8-1.489-8-2V38.52c2.526,1.068,5.258,1.573,8,1.479 c2.742,0.094,5.472-0.411,8-1.479V42z M44.014,36c0,0.511-2.75,2-8,2s-8-1.489-8-2V32.52c2.526,1.068,5.258,1.573,8,1.479 c2.742,0.094,5.472-0.411,8-1.479V36z M44.014,30c0,0.511-2.75,2-8,2s-8-1.489-8-2V26.52c2.526,1.068,5.258,1.573,8,1.479 c2.742,0.094,5.472-0.411,8-1.479V30z M36.014,26c-5.25,0-8-1.489-8-2s2.75-2,8-2s8,1.489,8,2S41.264,26,36.014,26z M37.014,20.02 V18c-0.005-1.655-1.347-2.995-3-3h-5.141c-0.552-2.14-2.734-3.425-4.873-2.872c-2.138,0.552-3.424,2.732-2.873,4.872 c0.552,2.14,2.734,3.425,4.873,2.872c1.409-0.363,2.509-1.463,2.873-2.872h5.141c0.552,0,1,0.448,1,1v2.021 c-4.511,0.159-9,1.42-9,3.979v4h-17c-3.866,0-7-3.134-7-7s3.134-7,7-7h0.12c3.81,0.089,6.859,3.19,6.88,7h2 c-0.026-4.445-3.276-8.214-7.669-8.891c1.6-6.997,8.572-11.375,15.57-9.773c4.904,1.122,8.72,4.972,9.8,9.884l1.948-0.439 c-0.347-1.562-0.945-3.059-1.769-4.43c3.123-2.279,7.503-1.594,9.781,1.529c1.859,2.553,1.781,6.034-0.192,8.5l1.56,1.25 c1.058-1.334,1.722-2.938,1.911-4.63h2.061c3.864,0,7,3.134,7,7s-3.136,7-7,7h-5v-2h3c0.552,0,1-0.448,1-1v-4h1v-2h-2 c-0.552,0-1,0.448-1,1v4h-2C46.014,21.44,41.524,20.179,37.014,20.02z M27.013,16c0,1.104-0.896,2-2,2c-1.104,0-2-0.896-2-2 s0.896-2,2-2C26.117,14.002,27.01,14.897,27.013,16z"></path><rect x="58.014" y="48" fill="#0CB4C4" width="2" height="2"></rect><rect x="22.013" y="58" fill="#0CB4C4" width="2" height="2"></rect><path fill="#0CB4C4" d="M6.013,21c0-1.656,1.344-3,3-3v-2c-2.762,0-5,2.238-5,5s2.238,5,5,5h8v-2h-8 C7.357,24,6.013,22.656,6.013,21z"></path><rect x="53.014" y="19" fill="#0CB4C4" width="2" height="2"></rect></g></svg>