<svg xmlns="http://www.w3.org/2000/svg" xmlns:xlink="http://www.w3.org/1999/xlink" version="1.1" id="Layer_1" x="0px" y="0px" width="60px" height="60px" viewBox="0 0 60 60" style="enable-background:new 0 0 60 60;" xml:space="preserve"><g><g><g><g><path style="fill:#0CB4C4;" d="M22.706,43.263c-0.251,0-0.496-0.099-0.679-0.28l-5.791-5.754 c-0.253-0.252-0.347-0.623-0.244-0.964c1.398-4.614,3.214-9.22,5.396-13.691c2.179-4.482,4.891-10.064,8.543-13.949 c0.001-0.001,0.002-0.002,0.003-0.003c8.191-8.627,21.345-9.003,28.456-8.459c0.477,0.037,0.854,0.417,0.889,0.894 c0.496,7.109,0.057,20.24-8.473,28.313c-3.837,3.643-9.5,6.333-14.05,8.495c-4.494,2.165-9.13,3.968-13.774,5.358 C22.892,43.25,22.798,43.263,22.706,43.263z M18.008,36.271l4.97,4.938c4.363-1.337,8.716-3.046,12.946-5.084 c4.661-2.215,9.939-4.723,13.555-8.156c7.638-7.228,8.305-19.021,7.928-25.941c-6.925-0.42-18.734,0.195-26.072,7.921 c-3.451,3.671-6.091,9.104-8.212,13.471C21.071,27.619,19.353,31.94,18.008,36.271z"></path><path style="fill:#0CB4C4;" d="M40.121,24.549c-1.377,0-2.754-0.521-3.802-1.562c-1.017-1.011-1.577-2.355-1.577-3.786 c0-1.43,0.561-2.775,1.577-3.786c2.097-2.083,5.507-2.083,7.603,0c1.018,1.011,1.578,2.355,1.578,3.786 s-0.561,2.775-1.577,3.786l0,0C42.874,24.028,41.498,24.549,40.121,24.549z M40.121,15.781c-0.885,0-1.769,0.334-2.442,1.003 c-0.65,0.646-1.008,1.504-1.008,2.417c0,0.913,0.357,1.771,1.009,2.417c1.347,1.337,3.537,1.337,4.883,0l0,0 c0.65-0.646,1.009-1.505,1.009-2.417s-0.358-1.771-1.009-2.417C41.89,16.115,41.005,15.781,40.121,15.781z"></path><path style="fill:#0CB4C4;" d="M19.005,30.696c-0.025,0-0.051-0.001-0.078-0.003l-9.661-0.771 c-0.292-0.023-0.558-0.178-0.723-0.421c-0.165-0.243-0.209-0.548-0.122-0.828c0.323-1.031,3.581-10.246,18.52-16.263 c0.378-0.153,0.814-0.05,1.084,0.258c0.271,0.307,0.317,0.752,0.117,1.109c-0.122,0.218-0.317,0.372-0.54,0.446 C16.031,18.9,11.962,25.417,10.72,28.103l8.361,0.667c0.531,0.042,0.927,0.507,0.885,1.038 C19.925,30.313,19.503,30.696,19.005,30.696z"></path><path style="fill:#0CB4C4;" d="M30.39,50.837c-0.191,0-0.379-0.056-0.541-0.166c-0.242-0.164-0.396-0.429-0.42-0.721 l-0.775-9.596c-0.042-0.531,0.353-0.997,0.884-1.039c0.533-0.046,0.996,0.353,1.039,0.884l0.671,8.305 c2.692-1.226,9.248-5.253,13.961-16.726c0.06-0.215,0.194-0.412,0.396-0.546c0.033-0.022,0.077-0.047,0.112-0.065 c0.358-0.18,0.792-0.118,1.087,0.155s0.39,0.7,0.237,1.072c-6.058,14.845-15.329,18.081-16.367,18.401 C30.581,50.823,30.486,50.837,30.39,50.837z"></path><path style="fill:#0CB4C4;" d="M56.757,18.494c-0.246,0-0.492-0.093-0.68-0.28L41.127,3.361 c-0.378-0.375-0.38-0.986-0.005-1.364c0.376-0.378,0.987-0.379,1.364-0.004l14.949,14.853c0.378,0.376,0.38,0.986,0.005,1.365 C57.252,18.399,57.004,18.494,56.757,18.494z"></path></g><g><path style="fill:#0CB4C4;" d="M2.13,59.423c-0.241,0-0.483-0.09-0.67-0.271c-0.383-0.37-0.394-0.98-0.023-1.364l13.207-13.674 c0.371-0.383,0.98-0.394,1.364-0.024c0.383,0.37,0.394,0.98,0.023,1.364L2.824,59.129C2.634,59.325,2.383,59.423,2.13,59.423z"></path><path style="fill:#0CB4C4;" d="M11.424,60c-0.228,0-0.457-0.081-0.64-0.244c-0.398-0.354-0.434-0.963-0.081-1.362l8.56-9.634 c0.354-0.398,0.963-0.434,1.362-0.081c0.398,0.354,0.434,0.964,0.081,1.362l-8.56,9.634C11.954,59.891,11.689,60,11.424,60z"></path><path style="fill:#0CB4C4;" d="M1.549,50.767c-0.228,0-0.456-0.081-0.64-0.244c-0.398-0.354-0.434-0.963-0.081-1.362 l8.561-9.634c0.354-0.398,0.963-0.434,1.361-0.081c0.398,0.354,0.434,0.963,0.081,1.362l-8.56,9.634 C2.08,50.657,1.815,50.767,1.549,50.767z"></path></g></g></g></g></svg>