<svg xmlns="http://www.w3.org/2000/svg" xmlns:xlink="http://www.w3.org/1999/xlink" version="1.1" id="Layer_1" x="0px" y="0px" width="60px" height="60px" viewBox="0 0 60 60" style="enable-background:new 0 0 60 60;" xml:space="preserve"><g><path style="fill:#0CB4C4;" d="M57.959,14.923c-0.023-0.681-0.302-1.321-0.784-1.803c-0.516-0.515-1.234-0.802-1.976-0.785 c-2.617,0.086-4.681,2.287-4.601,4.907l0.143,4.375l-0.74,2.991c-0.895-0.005-1.792,0.331-2.473,1.013l-4.865,4.869l-1.685,0.292 c-1.089,0.185-2.12,0.717-2.901,1.5l-3.352,3.351c-0.987,0.987-1.549,2.297-1.581,3.691l-0.124,5.554 c-1.563,0.518-2.702,1.982-2.721,3.717l-0.078,7.272c-0.011,1.056,0.391,2.054,1.133,2.812c0.742,0.758,1.731,1.181,2.787,1.193 L46.208,60c0.015,0,0.029,0,0.043,0c1.039,0,2.021-0.402,2.768-1.133c0.758-0.742,1.181-1.731,1.193-2.787l0.078-7.272 c0.011-1.056-0.391-2.054-1.133-2.812c-0.419-0.428-0.92-0.746-1.464-0.947l0.024-0.168c0.185-1.236,0.748-2.355,1.629-3.237 l5.661-5.661c1.446-1.446,2.359-3.356,2.571-5.378l0.601-5.698c0.041-0.207,0.064-0.421,0.068-0.644l0.002-0.016 c0.001-0.008,0-0.017,0-0.026c0-0.037,0.005-0.073,0.005-0.111L57.959,14.923z M48.291,48.787l-0.078,7.272 c-0.005,0.521-0.216,1.011-0.592,1.379C47.244,57.805,46.729,58,46.229,58l-12.066-0.129c-0.521-0.005-1.011-0.216-1.379-0.592 c-0.368-0.376-0.568-0.87-0.562-1.391l0.078-7.273c0.011-1.075,0.89-1.941,1.962-1.941c0.008,0,0.014,0,0.021,0l12.066,0.129 c0.521,0.005,1.011,0.216,1.379,0.592C48.096,47.771,48.296,48.265,48.291,48.787z M53.593,34.569l-5.661,5.661 c-1.187,1.187-1.945,2.693-2.194,4.36l-0.03,0.207l-10.683-0.115l0.119-5.313c0.02-0.875,0.374-1.7,0.995-2.322l3.352-3.351 c0.491-0.491,1.138-0.826,1.825-0.942l2-0.346c0.07-0.012,0.138-0.032,0.202-0.058c0.004-0.002,0.008-0.005,0.012-0.007 c0.12-0.05,0.228-0.122,0.317-0.21c0.001-0.001,0.003-0.002,0.005-0.003l5.089-5.093c0.573-0.572,1.504-0.572,2.077,0 c0.573,0.573,0.573,1.505,0,2.078l-5.847,5.847c-0.391,0.39-0.391,1.023,0,1.414c0.196,0.195,0.452,0.292,0.708,0.292 c0.256,0,0.512-0.097,0.707-0.292l5.848-5.847c1.352-1.352,1.352-3.553,0-4.906c-0.162-0.161-0.336-0.3-0.518-0.422l0.799-3.235 c0.002-0.011,0.002-0.022,0.004-0.033c0.007-0.034,0.012-0.068,0.015-0.103c0.003-0.035,0.007-0.069,0.007-0.103 c0-0.012,0.003-0.022,0.002-0.034l-0.146-4.512c-0.046-1.519,1.15-2.795,2.657-2.846c0.205-0.004,0.374,0.067,0.506,0.2 c0.087,0.086,0.192,0.237,0.2,0.456l0.292,9.115l-0.067,0.641c-0.003,0.024-0.007,0.048-0.007,0.071l-0.588,5.578 C55.425,31.964,54.716,33.446,53.593,34.569z"></path><circle style="fill:#0CB4C4;" cx="45.897" cy="49.703" r="1.711"></circle><path style="fill:#0CB4C4;" d="M25.212,44.876l-0.124-5.554c-0.032-1.392-0.593-2.703-1.581-3.69l-3.351-3.351 c-0.781-0.781-1.812-1.314-2.899-1.499L15.57,30.49l-4.866-4.87c-0.681-0.681-1.578-1.017-2.473-1.012l-0.739-2.991l0.143-4.377 c0.08-2.618-1.984-4.819-4.611-4.906c-0.735-0.015-1.45,0.27-1.965,0.785c-0.482,0.482-0.76,1.123-0.785,1.806l-0.293,9.195 c0,0.04,0.005,0.078,0.005,0.116c0,0.003,0,0.006,0,0.01l0.001,0.007c0.002,0.223,0.027,0.442,0.069,0.655l0.601,5.695 c0.211,2.022,1.125,3.933,2.571,5.378l5.661,5.661c0.881,0.882,1.445,2,1.628,3.233l0.025,0.173 c-0.544,0.201-1.045,0.518-1.464,0.946c-0.742,0.758-1.145,1.757-1.133,2.812l0.078,7.272c0.011,1.056,0.435,2.044,1.193,2.787 c0.748,0.732,1.729,1.133,2.768,1.133c0.014,0,0.029,0,0.043,0l12.066-0.128c1.056-0.012,2.045-0.436,2.787-1.193 c0.742-0.758,1.145-1.757,1.133-2.812l-0.078-7.272C27.914,46.858,26.774,45.394,25.212,44.876z M10.3,40.23L4.64,34.569 c-1.123-1.124-1.832-2.604-1.996-4.173l-0.588-5.577c0-0.024-0.005-0.047-0.007-0.072l-0.067-0.641l0.291-9.113 c0.008-0.222,0.112-0.373,0.2-0.459c0.133-0.133,0.309-0.201,0.496-0.2c1.517,0.05,2.713,1.327,2.667,2.843l-0.147,4.514 c0,0.011,0.002,0.022,0.002,0.033c0,0.034,0.003,0.069,0.006,0.104s0.007,0.069,0.015,0.103c0.002,0.011,0.002,0.022,0.004,0.033 l0.8,3.235c-0.183,0.123-0.357,0.262-0.519,0.423c-1.352,1.353-1.352,3.553,0,4.905l5.847,5.847 c0.197,0.195,0.453,0.292,0.708,0.292s0.512-0.097,0.708-0.292c0.391-0.391,0.391-1.024,0-1.414l-5.847-5.847 c-0.573-0.573-0.572-1.505,0-2.078c0.572-0.572,1.504-0.572,2.076,0l5.09,5.094c0.001,0.001,0.003,0.002,0.005,0.003 c0.09,0.089,0.197,0.161,0.317,0.211c0.004,0.002,0.008,0.005,0.012,0.006c0.064,0.026,0.131,0.046,0.202,0.058l2.003,0.347 c0.684,0.116,1.331,0.45,1.822,0.941l3.352,3.352c0.622,0.622,0.975,1.446,0.995,2.321l0.119,5.314l-10.683,0.115l-0.031-0.21 C12.246,42.923,11.487,41.417,10.3,40.23z M25.448,57.279c-0.368,0.375-0.858,0.586-1.378,0.592L12.004,58 c-0.528,0-1.015-0.195-1.391-0.562c-0.376-0.368-0.587-0.858-0.592-1.378l-0.079-7.273c-0.005-0.521,0.194-1.015,0.562-1.391 c0.368-0.376,0.858-0.586,1.379-0.592l12.066-0.129c0.006,0,0.014,0,0.021,0c1.073,0,1.951,0.867,1.962,1.941l0.078,7.273 C26.016,56.409,25.816,56.903,25.448,57.279z"></path><circle style="fill:#0CB4C4;" cx="12.336" cy="49.703" r="1.711"></circle><path style="fill:#0CB4C4;" d="M15.665,18.984h1.879c0.239,0.815,0.563,1.597,0.967,2.337l-1.331,1.331 c-0.821,0.821-0.821,2.157,0,2.978l1.868,1.867c0.41,0.411,0.949,0.616,1.488,0.616c0.54,0,1.079-0.205,1.489-0.616l1.331-1.331 c0.74,0.404,1.521,0.727,2.337,0.966v1.879c0,1.162,0.945,2.108,2.108,2.108h2.633c1.162,0,2.108-0.945,2.108-2.108v-1.879 c0.815-0.239,1.596-0.562,2.336-0.966l1.331,1.331c0.411,0.411,0.949,0.616,1.489,0.616c0.539,0,1.078-0.205,1.489-0.616 l1.867-1.867c0.82-0.821,0.82-2.157,0-2.978l-1.331-1.331c0.404-0.74,0.727-1.521,0.966-2.337h1.879 c1.162,0,2.108-0.945,2.108-2.108v-2.633c0-1.162-0.945-2.108-2.108-2.108h-1.879c-0.239-0.815-0.562-1.597-0.966-2.337 l1.331-1.331c0.821-0.821,0.82-2.157,0-2.978l-1.867-1.867c-0.794-0.795-2.184-0.795-2.978,0l-1.331,1.331 c-0.74-0.405-1.521-0.728-2.336-0.967V2.108C32.541,0.945,31.595,0,30.433,0H27.8c-1.162,0-2.108,0.945-2.108,2.108v1.879 c-0.815,0.239-1.596,0.562-2.337,0.966l-1.331-1.331c-0.795-0.795-2.185-0.794-2.978,0L17.179,5.49 c-0.821,0.82-0.821,2.156,0,2.977l1.331,1.331c-0.405,0.74-0.728,1.521-0.967,2.337h-1.879c-1.162,0-2.108,0.945-2.108,2.108v2.633 C13.557,18.039,14.502,18.984,15.665,18.984z M15.557,14.243c0-0.062,0.046-0.108,0.108-0.108h2.644c0,0,0.002,0,0.002,0 c0.002,0,0.004-0.001,0.006-0.001c0.103,0,0.201-0.021,0.294-0.051c0.016-0.005,0.033-0.008,0.049-0.015 c0.091-0.034,0.175-0.082,0.251-0.14c0.014-0.01,0.026-0.021,0.04-0.033c0.075-0.063,0.143-0.135,0.196-0.219 c0.006-0.008,0.01-0.019,0.016-0.028c0.053-0.088,0.095-0.185,0.119-0.29c0-0.003,0.003-0.006,0.004-0.009 c0.252-1.139,0.695-2.208,1.315-3.177c0.031-0.048,0.055-0.099,0.077-0.15c0.002-0.007,0.007-0.012,0.009-0.019 c0.046-0.116,0.067-0.235,0.069-0.355c0-0.007,0.001-0.015,0.001-0.022c-0.001-0.122-0.025-0.24-0.069-0.353 c-0.002-0.007-0.004-0.015-0.007-0.022c-0.049-0.117-0.119-0.226-0.211-0.318C20.47,8.93,20.47,8.927,20.468,8.926L20.46,8.918 c-0.001-0.001-0.002-0.002-0.003-0.003l-1.863-1.863c-0.04-0.04-0.04-0.11,0-0.15l1.868-1.868C20.498,5,20.576,5,20.612,5.035 l1.874,1.874c0.004,0.004,0.009,0.004,0.013,0.009C22.584,7,22.682,7.062,22.787,7.109c0.024,0.011,0.047,0.02,0.072,0.028 c0.107,0.038,0.218,0.064,0.332,0.065c0.001,0,0.001,0,0.002,0h0c0.113,0,0.225-0.026,0.334-0.065 c0.032-0.011,0.061-0.027,0.092-0.042c0.038-0.018,0.077-0.028,0.113-0.051c0.969-0.621,2.039-1.064,3.177-1.315 c0.024-0.005,0.045-0.016,0.069-0.022c0.039-0.011,0.077-0.021,0.114-0.038c0.029-0.012,0.056-0.03,0.083-0.045 c0.029-0.016,0.059-0.031,0.086-0.049c0.028-0.02,0.052-0.042,0.077-0.064c0.023-0.02,0.049-0.039,0.07-0.061 c0.021-0.022,0.041-0.048,0.061-0.073c0.021-0.025,0.042-0.049,0.06-0.077c0.017-0.026,0.029-0.053,0.044-0.081 c0.016-0.029,0.033-0.058,0.046-0.089c0.013-0.032,0.021-0.065,0.031-0.098c0.009-0.028,0.019-0.057,0.024-0.086 c0.009-0.043,0.011-0.087,0.014-0.131c0.001-0.021,0.006-0.04,0.006-0.061V4.741c0-0.001,0-0.003,0-0.004V2.108 C27.692,2.046,27.738,2,27.8,2h2.633c0.062,0,0.108,0.046,0.108,0.108v2.63c0,0.001,0,0.003,0,0.004v0.012 c0,0.021,0.005,0.04,0.006,0.061c0.002,0.044,0.004,0.089,0.013,0.131c0.006,0.03,0.017,0.058,0.024,0.087 c0.01,0.033,0.018,0.066,0.031,0.098c0.013,0.031,0.03,0.06,0.046,0.089c0.015,0.027,0.027,0.055,0.044,0.081 c0.018,0.027,0.04,0.051,0.06,0.077c0.02,0.024,0.039,0.05,0.061,0.073c0.021,0.022,0.046,0.041,0.07,0.061 c0.025,0.022,0.049,0.045,0.077,0.064c0.027,0.019,0.058,0.033,0.086,0.049c0.027,0.016,0.054,0.032,0.083,0.045 c0.037,0.016,0.075,0.026,0.114,0.038c0.023,0.006,0.045,0.017,0.069,0.022c1.139,0.251,2.208,0.694,3.177,1.315 c0.036,0.022,0.075,0.033,0.113,0.051c0.031,0.015,0.06,0.03,0.092,0.042c0.109,0.039,0.221,0.065,0.334,0.065h0h0.002 c0.114,0,0.225-0.026,0.332-0.064c0.025-0.009,0.048-0.018,0.072-0.028c0.105-0.047,0.203-0.109,0.289-0.192 c0.004-0.004,0.009-0.004,0.013-0.008l1.874-1.874c0.036-0.035,0.113-0.035,0.149,0l1.867,1.867c0.04,0.04,0.04,0.11,0,0.149 l-1.863,1.863c-0.001,0.001-0.002,0.002-0.003,0.003l-0.007,0.007c-0.002,0.002-0.002,0.004-0.004,0.006 C37.67,9.026,37.598,9.134,37.55,9.25c-0.003,0.007-0.004,0.016-0.007,0.023c-0.043,0.112-0.068,0.232-0.068,0.353 c0,0.007,0.001,0.015,0.001,0.022c0.002,0.12,0.023,0.24,0.07,0.355c0.002,0.006,0.006,0.012,0.009,0.019 c0.022,0.051,0.045,0.103,0.077,0.151c0.621,0.968,1.063,2.038,1.315,3.177c0.001,0.003,0.003,0.006,0.004,0.009 c0.024,0.104,0.065,0.2,0.119,0.289c0.006,0.009,0.01,0.02,0.016,0.029c0.054,0.083,0.121,0.155,0.196,0.218 c0.014,0.012,0.027,0.023,0.042,0.034c0.076,0.057,0.16,0.104,0.25,0.139c0.016,0.006,0.033,0.01,0.049,0.015 c0.093,0.03,0.191,0.05,0.294,0.051c0.002,0,0.004,0.001,0.006,0.001c0.001,0,0.002,0,0.003,0h2.644 c0.062,0,0.108,0.046,0.108,0.108v2.633c0,0.062-0.046,0.108-0.108,0.108h-2.629c-0.001,0-0.002,0-0.003,0h-0.013 c-0.022,0-0.042,0.005-0.063,0.007c-0.043,0.002-0.086,0.004-0.128,0.013c-0.033,0.006-0.063,0.017-0.094,0.026 c-0.03,0.009-0.061,0.016-0.09,0.028c-0.035,0.015-0.068,0.033-0.102,0.052c-0.022,0.013-0.046,0.023-0.068,0.037 c-0.033,0.021-0.062,0.047-0.091,0.071c-0.02,0.016-0.041,0.031-0.059,0.049c-0.027,0.027-0.051,0.057-0.075,0.086 c-0.017,0.021-0.036,0.04-0.05,0.061c-0.023,0.033-0.041,0.069-0.06,0.104c-0.011,0.021-0.025,0.042-0.036,0.065 c-0.019,0.043-0.031,0.089-0.043,0.134c-0.005,0.017-0.013,0.033-0.017,0.051c-0.252,1.139-0.694,2.208-1.315,3.177 c-0.032,0.048-0.055,0.099-0.077,0.15c-0.003,0.007-0.007,0.012-0.009,0.019c-0.046,0.115-0.068,0.235-0.07,0.355 c0,0.007-0.001,0.015-0.001,0.022c0,0.122,0.025,0.24,0.068,0.353c0.003,0.008,0.004,0.016,0.007,0.023 c0.049,0.117,0.12,0.225,0.211,0.318c0.002,0.002,0.002,0.005,0.004,0.006l0.007,0.008c0.001,0.001,0.002,0.002,0.003,0.003 l1.863,1.863c0.04,0.04,0.04,0.11,0,0.149l-1.867,1.868c-0.041,0.04-0.111,0.039-0.149,0l-1.862-1.862 c-0.002-0.002-0.003-0.003-0.005-0.005l-0.006-0.006c-0.001-0.001-0.004-0.002-0.005-0.003c-0.094-0.092-0.202-0.163-0.319-0.212 c-0.008-0.003-0.016-0.005-0.023-0.007c-0.112-0.043-0.231-0.067-0.352-0.069c-0.009,0-0.017,0.002-0.025,0.002 c-0.118,0.002-0.238,0.023-0.352,0.069c-0.007,0.003-0.013,0.007-0.02,0.01c-0.05,0.021-0.101,0.045-0.15,0.076 c-0.969,0.621-2.039,1.063-3.177,1.315c-0.018,0.004-0.034,0.012-0.052,0.018c-0.045,0.012-0.09,0.025-0.133,0.043 c-0.025,0.012-0.048,0.026-0.072,0.04c-0.032,0.018-0.066,0.034-0.096,0.055c-0.025,0.018-0.048,0.039-0.072,0.059 c-0.025,0.021-0.052,0.042-0.075,0.065c-0.021,0.022-0.039,0.047-0.058,0.071c-0.021,0.026-0.044,0.051-0.063,0.08 c-0.016,0.024-0.028,0.051-0.042,0.077c-0.017,0.031-0.034,0.061-0.047,0.093c-0.012,0.03-0.02,0.062-0.029,0.093 c-0.009,0.031-0.02,0.06-0.026,0.092c-0.008,0.04-0.009,0.08-0.012,0.121c-0.002,0.024-0.007,0.046-0.007,0.07v2.646 c0,0.062-0.046,0.108-0.108,0.108H27.8c-0.062,0-0.108-0.046-0.108-0.108v-2.646c0-0.024-0.005-0.046-0.007-0.07 c-0.003-0.041-0.005-0.082-0.012-0.121c-0.006-0.032-0.018-0.061-0.027-0.092c-0.009-0.031-0.016-0.063-0.028-0.093 c-0.013-0.033-0.031-0.062-0.047-0.093c-0.014-0.026-0.026-0.053-0.042-0.077c-0.019-0.029-0.042-0.054-0.063-0.08 c-0.02-0.024-0.037-0.049-0.058-0.071c-0.023-0.024-0.05-0.044-0.075-0.065c-0.023-0.02-0.046-0.041-0.072-0.059 c-0.03-0.021-0.064-0.037-0.097-0.055c-0.024-0.013-0.046-0.028-0.072-0.04c-0.042-0.019-0.087-0.031-0.133-0.043 c-0.017-0.005-0.033-0.014-0.052-0.018c-1.139-0.252-2.208-0.695-3.177-1.315c-0.05-0.031-0.101-0.055-0.152-0.077 c-0.005-0.003-0.011-0.006-0.016-0.008c-0.116-0.046-0.238-0.068-0.36-0.07c-0.005,0-0.01-0.001-0.015-0.001 c-0.124,0.001-0.245,0.025-0.359,0.07c-0.005,0.002-0.011,0.003-0.017,0.005c-0.119,0.048-0.228,0.121-0.322,0.214 c-0.001,0.001-0.003,0.001-0.004,0.002l-0.005,0.005c-0.003,0.003-0.005,0.005-0.007,0.007l-1.861,1.861 c-0.04,0.04-0.109,0.04-0.149,0l-1.867-1.867c-0.04-0.04-0.04-0.11,0-0.149l1.863-1.863c0.001-0.001,0.002-0.002,0.003-0.003 l0.008-0.007c0.002-0.002,0.002-0.004,0.004-0.006c0.092-0.093,0.163-0.201,0.211-0.318c0.004-0.007,0.005-0.016,0.008-0.023 c0.043-0.113,0.068-0.232,0.068-0.353c0-0.007-0.001-0.015-0.001-0.022c-0.002-0.12-0.023-0.24-0.069-0.355 c-0.003-0.007-0.007-0.012-0.01-0.019c-0.021-0.051-0.045-0.103-0.076-0.151c-0.621-0.968-1.063-2.038-1.315-3.177 c-0.004-0.019-0.013-0.036-0.018-0.055c-0.013-0.044-0.024-0.088-0.042-0.128c-0.012-0.029-0.029-0.054-0.044-0.081 c-0.016-0.029-0.03-0.06-0.05-0.088c-0.019-0.028-0.043-0.053-0.065-0.079c-0.019-0.023-0.037-0.047-0.059-0.068 c-0.024-0.023-0.051-0.043-0.077-0.063c-0.024-0.02-0.047-0.04-0.073-0.058c-0.027-0.018-0.058-0.031-0.086-0.046 c-0.028-0.015-0.055-0.031-0.084-0.042c-0.034-0.014-0.07-0.023-0.106-0.033c-0.027-0.007-0.052-0.018-0.08-0.023 c-0.043-0.009-0.089-0.011-0.133-0.013c-0.02-0.001-0.039-0.006-0.06-0.006h-0.012c-0.001,0-0.002,0-0.004,0h-2.63 c-0.061,0-0.108-0.046-0.108-0.108v-2.634H15.557z"></path><path style="fill:#0CB4C4;" d="M29.116,21.098c3.054,0,5.539-2.485,5.539-5.539c0-3.054-2.484-5.538-5.539-5.538 c-3.054,0-5.539,2.484-5.539,5.539S26.063,21.098,29.116,21.098z M29.116,12.021c1.952,0,3.539,1.587,3.539,3.539 c0,1.951-1.587,3.538-3.539,3.538c-1.951,0-3.539-1.587-3.539-3.539C25.578,13.608,27.165,12.021,29.116,12.021z"></path></g></svg>