<svg xmlns="http://www.w3.org/2000/svg" xmlns:xlink="http://www.w3.org/1999/xlink" version="1.1" id="Layer_1" x="0px" y="0px" width="61.936px" height="60px" viewBox="0 0 61.936 60" style="enable-background:new 0 0 61.936 60;" xml:space="preserve"><g><g><path style="fill:#0CB4C4;" d="M60.968,3.871H47.419c-0.534,0-0.968,0.433-0.968,0.968v8.709v8.709 c0,0.536,0.434,0.968,0.968,0.968h5.807v0.968c0,1.601-1.303,2.903-2.903,2.903h-38.71c-2.668,0-4.838,2.171-4.838,4.839v1.535 l-1.252-1.251l-1.368,1.368l2.903,2.903c0.188,0.188,0.437,0.284,0.685,0.284c0.247,0,0.495-0.095,0.684-0.284l2.903-2.903 l-1.368-1.368L8.71,33.47v-1.535c0-1.601,1.302-2.903,2.902-2.903h38.71c2.668,0,4.839-2.17,4.839-4.839v-0.968h5.807 c0.534,0,0.968-0.432,0.968-0.968V4.839C61.936,4.304,61.502,3.871,60.968,3.871z M52.405,9.193l-4.019,2.583V6.611L52.405,9.193z M50.713,5.807h6.961l-3.48,2.237L50.713,5.807z M54.193,10.343l3.48,2.237h-6.961L54.193,10.343z M55.981,9.193L60,6.611v5.166 L55.981,9.193z M48.387,21.291v-6.774H60v6.774H48.387z"></path><path style="fill:#0CB4C4;" d="M0,37.742v17.419c0,0.535,0.434,0.968,0.968,0.968h13.548c0.534,0,0.968-0.433,0.968-0.968v-7.742 h4.438l-1.252,1.251l1.369,1.368l2.903-2.903c0.188-0.188,0.283-0.437,0.283-0.684c0-0.248-0.095-0.496-0.283-0.684l-2.903-2.903 l-1.369,1.368l1.252,1.251h-4.438v-7.742c0-0.536-0.434-0.968-0.968-0.968H7.742H0.968C0.434,36.774,0,37.207,0,37.742z M1.936,38.709h11.612v15.484H1.936V38.709z"></path><path style="fill:#0CB4C4;" d="M24.193,56.129h13.549c0.534,0,0.968-0.433,0.968-0.968v-7.742h4.438l-1.251,1.251l1.368,1.368 l2.903-2.903c0.188-0.188,0.283-0.437,0.283-0.684c0-0.248-0.095-0.496-0.283-0.684l-2.903-2.903l-1.368,1.368l1.251,1.251H38.71 v-7.742c0-0.536-0.434-0.968-0.968-0.968H24.193c-0.534,0-0.968,0.432-0.968,0.968v8.709v8.709 C23.226,55.696,23.659,56.129,24.193,56.129z M25.161,38.709h11.613v15.484H25.161V38.709z"></path><path style="fill:#0CB4C4;" d="M47.419,56.129h13.549c0.534,0,0.968-0.433,0.968-0.968V37.742c0-0.536-0.434-0.968-0.968-0.968 H47.419c-0.534,0-0.968,0.432-0.968,0.968v8.709v8.709C46.451,55.696,46.885,56.129,47.419,56.129z M48.387,38.709H60v15.484 H48.387V38.709z"></path><path style="fill:#0CB4C4;" d="M20.039,9.961l-1.369,1.368l1.252,1.251h-6.374v1.936h6.374l-1.252,1.251l1.369,1.368l2.903-2.903 c0.188-0.188,0.283-0.436,0.283-0.684c0-0.248-0.095-0.496-0.283-0.684L20.039,9.961z"></path><path style="fill:#0CB4C4;" d="M43.265,9.961l-1.368,1.368l1.251,1.251H38.71V4.839c0-0.535-0.434-0.968-0.968-0.968H24.193 c-0.534,0-0.968,0.433-0.968,0.968v8.709v8.709c0,0.536,0.434,0.968,0.968,0.968h13.549c0.534,0,0.968-0.432,0.968-0.968v-7.742 h4.438l-1.251,1.251l1.368,1.368l2.903-2.903c0.188-0.188,0.283-0.436,0.283-0.684c0-0.248-0.095-0.496-0.283-0.684L43.265,9.961z M36.774,21.291H25.161V5.807h11.613V21.291z"></path><rect x="27.097" y="7.742" style="fill:#0CB4C4;" width="7.742" height="1.935"></rect><rect x="27.097" y="11.613" style="fill:#0CB4C4;" width="7.742" height="1.936"></rect><rect x="27.097" y="15.484" style="fill:#0CB4C4;" width="7.742" height="1.936"></rect><rect x="50.322" y="16.452" style="fill:#0CB4C4;" width="2.903" height="1.936"></rect><rect x="55.161" y="16.452" style="fill:#0CB4C4;" width="2.903" height="1.936"></rect><path style="fill:#0CB4C4;" d="M7.742,40.645c-2.136,0-3.871,1.736-3.871,3.871s1.735,3.871,3.871,3.871 c2.135,0,3.87-1.736,3.87-3.871S9.877,40.645,7.742,40.645z M7.742,46.452c-1.067,0-1.936-0.868-1.936-1.936 s0.868-1.936,1.936-1.936c1.066,0,1.935,0.868,1.935,1.936S8.809,46.452,7.742,46.452z"></path><rect x="3.871" y="50.323" style="fill:#0CB4C4;" width="7.741" height="1.935"></rect><path style="fill:#0CB4C4;" d="M57.097,48.387h-1.936v-3.871h-1.936v3.871H51.29c-0.534,0-0.968,0.433-0.968,0.968v2.903h1.936 v-1.935h3.871v1.935h1.936v-2.903C58.064,48.82,57.631,48.387,57.097,48.387z"></path><rect x="50.322" y="40.645" style="fill:#0CB4C4;" width="7.742" height="1.936"></rect><path style="fill:#0CB4C4;" d="M28.064,48.387h5.807c0.336,0,0.646-0.174,0.823-0.46c0.177-0.285,0.192-0.642,0.043-0.941 l-2.903-5.807c-0.328-0.656-1.403-0.656-1.731,0l-2.903,5.807c-0.15,0.3-0.134,0.656,0.043,0.941 C27.418,48.213,27.729,48.387,28.064,48.387z M30.968,43.777l1.337,2.675H29.63L30.968,43.777z"></path><rect x="27.097" y="50.323" style="fill:#0CB4C4;" width="7.742" height="1.935"></rect><rect x="13.548" y="32.903" style="fill:#0CB4C4;" width="1.936" height="1.936"></rect><rect x="17.419" y="32.903" style="fill:#0CB4C4;" width="1.936" height="1.936"></rect><rect x="21.29" y="32.903" style="fill:#0CB4C4;" width="1.936" height="1.936"></rect><rect x="25.161" y="32.903" style="fill:#0CB4C4;" width="1.936" height="1.936"></rect><rect x="29.032" y="32.903" style="fill:#0CB4C4;" width="1.936" height="1.936"></rect><rect x="32.903" y="32.903" style="fill:#0CB4C4;" width="1.936" height="1.936"></rect><rect x="36.774" y="32.903" style="fill:#0CB4C4;" width="1.936" height="1.936"></rect><rect x="40.645" y="32.903" style="fill:#0CB4C4;" width="1.936" height="1.936"></rect><rect x="44.516" y="32.903" style="fill:#0CB4C4;" width="1.936" height="1.936"></rect><rect x="48.387" y="32.903" style="fill:#0CB4C4;" width="1.936" height="1.936"></rect><rect x="52.258" y="32.903" style="fill:#0CB4C4;" width="1.936" height="1.936"></rect><rect x="56.129" y="32.903" style="fill:#0CB4C4;" width="1.936" height="1.936"></rect><rect x="60" y="32.903" style="fill:#0CB4C4;" width="1.936" height="1.936"></rect><rect x="12.58" style="fill:#0CB4C4;" width="1.936" height="1.936"></rect><rect x="16.451" style="fill:#0CB4C4;" width="1.936" height="1.936"></rect><rect x="20.322" style="fill:#0CB4C4;" width="1.936" height="1.936"></rect><rect x="24.193" style="fill:#0CB4C4;" width="1.936" height="1.936"></rect><rect x="28.064" style="fill:#0CB4C4;" width="1.936" height="1.936"></rect><rect x="31.936" style="fill:#0CB4C4;" width="1.936" height="1.936"></rect><rect x="35.807" style="fill:#0CB4C4;" width="1.936" height="1.936"></rect><rect x="39.677" style="fill:#0CB4C4;" width="1.936" height="1.936"></rect><rect x="43.548" style="fill:#0CB4C4;" width="1.936" height="1.936"></rect><rect x="47.419" style="fill:#0CB4C4;" width="1.936" height="1.936"></rect><rect x="51.29" style="fill:#0CB4C4;" width="1.936" height="1.936"></rect><rect x="55.161" style="fill:#0CB4C4;" width="1.936" height="1.936"></rect><rect x="59.032" style="fill:#0CB4C4;" width="1.936" height="1.936"></rect><rect x="0.968" y="58.064" style="fill:#0CB4C4;" width="1.936" height="1.936"></rect><rect x="4.839" y="58.064" style="fill:#0CB4C4;" width="1.936" height="1.936"></rect><rect x="8.71" y="58.064" style="fill:#0CB4C4;" width="1.935" height="1.936"></rect><rect x="12.58" y="58.064" style="fill:#0CB4C4;" width="1.936" height="1.936"></rect><rect x="16.451" y="58.064" style="fill:#0CB4C4;" width="1.936" height="1.936"></rect><rect x="20.322" y="58.064" style="fill:#0CB4C4;" width="1.936" height="1.936"></rect><rect x="24.193" y="58.064" style="fill:#0CB4C4;" width="1.936" height="1.936"></rect><rect x="28.064" y="58.064" style="fill:#0CB4C4;" width="1.936" height="1.936"></rect><rect x="31.936" y="58.064" style="fill:#0CB4C4;" width="1.936" height="1.936"></rect><rect x="35.807" y="58.064" style="fill:#0CB4C4;" width="1.936" height="1.936"></rect><rect x="39.677" y="58.064" style="fill:#0CB4C4;" width="1.936" height="1.936"></rect><rect x="43.548" y="58.064" style="fill:#0CB4C4;" width="1.936" height="1.936"></rect><rect x="47.419" y="58.064" style="fill:#0CB4C4;" width="1.936" height="1.936"></rect><rect x="51.29" y="58.064" style="fill:#0CB4C4;" width="1.936" height="1.936"></rect><rect x="55.161" y="58.064" style="fill:#0CB4C4;" width="1.936" height="1.936"></rect><rect x="59.032" y="58.064" style="fill:#0CB4C4;" width="1.936" height="1.936"></rect><path style="fill:#0CB4C4;" d="M0.968,8.709h9.677c0.535,0,0.968-0.432,0.968-0.967V3.871c0-0.535-0.433-0.968-0.968-0.968H0.968 C0.434,2.903,0,3.336,0,3.871v3.871C0,8.277,0.434,8.709,0.968,8.709z M1.936,4.839h7.741v1.936H1.936V4.839z"></path><path style="fill:#0CB4C4;" d="M0.968,16.452h9.677c0.535,0,0.968-0.433,0.968-0.968v-3.871c0-0.535-0.433-0.968-0.968-0.968 H0.968C0.434,10.645,0,11.078,0,11.613v3.871C0,16.019,0.434,16.452,0.968,16.452z M1.936,12.581h7.741v1.936H1.936V12.581z"></path><path style="fill:#0CB4C4;" d="M0.968,24.193h9.677c0.535,0,0.968-0.433,0.968-0.968v-3.871c0-0.535-0.433-0.968-0.968-0.968 H0.968C0.434,18.387,0,18.82,0,19.355v3.871C0,23.761,0.434,24.193,0.968,24.193z M1.936,20.323h7.741v1.935H1.936V20.323z"></path></g></g></svg>