<svg xmlns="http://www.w3.org/2000/svg" xmlns:xlink="http://www.w3.org/1999/xlink" version="1.1" id="Layer_1" x="0px" y="0px" width="82.637px" height="60px" viewBox="0 0 82.637 60" style="enable-background:new 0 0 82.637 60;" xml:space="preserve"><g><path style="fill:#0CB4C4;" d="M66.885,19.723c-5.438,0-9.861-4.424-9.861-9.861C57.023,4.423,61.447,0,66.885,0 s9.861,4.423,9.861,9.861C76.746,15.299,72.322,19.723,66.885,19.723z M66.885,2.269c-4.187,0-7.593,3.406-7.593,7.593 s3.406,7.593,7.593,7.593c4.186,0,7.593-3.406,7.593-7.593S71.07,2.269,66.885,2.269z"></path><path style="fill:#0CB4C4;" d="M81.578,55.44c-0.625,0-1.135-0.509-1.135-1.134V39.675c0-7.477-6.082-13.559-13.559-13.559 c-3.142,0-6.086,1.041-8.515,3.011c-0.203,0.167-0.448,0.255-0.709,0.255c-0.347,0-0.67-0.154-0.887-0.422 c-0.19-0.234-0.277-0.529-0.246-0.832c0.031-0.302,0.178-0.573,0.412-0.764c2.804-2.268,6.335-3.517,9.944-3.517 c8.728,0,15.828,7.096,15.828,15.819v14.64C82.713,54.932,82.203,55.44,81.578,55.44z"></path><path style="fill:#0CB4C4;" d="M15.751,19.723c-5.438,0-9.861-4.424-9.861-9.861C5.891,4.423,10.314,0,15.751,0 s9.861,4.423,9.861,9.861C25.613,15.299,21.189,19.723,15.751,19.723z M15.751,2.269c-4.187,0-7.593,3.406-7.593,7.593 s3.406,7.593,7.593,7.593s7.593-3.406,7.593-7.593S19.938,2.269,15.751,2.269z"></path><path style="fill:#0CB4C4;" d="M1.059,55.44c-0.626,0-1.135-0.509-1.135-1.134v-14.64c0-8.728,7.1-15.828,15.828-15.828 c3.61,0,7.142,1.249,9.945,3.517c0.234,0.19,0.381,0.461,0.412,0.764c0.032,0.302-0.056,0.598-0.246,0.832 c-0.216,0.27-0.536,0.424-0.877,0.424c-0.263,0-0.511-0.089-0.718-0.258c-2.431-1.97-5.376-3.011-8.516-3.011 c-7.477,0-13.559,6.083-13.559,13.559v14.64C2.193,54.932,1.684,55.44,1.059,55.44z"></path><path style="fill:#0CB4C4;" d="M41.318,24.273c-5.437,0-9.861-4.424-9.861-9.861s4.424-9.861,9.861-9.861 c5.438,0,9.861,4.424,9.861,9.861S46.756,24.273,41.318,24.273z M41.318,6.819c-4.187,0-7.593,3.406-7.593,7.593 s3.406,7.593,7.593,7.593s7.593-3.406,7.593-7.593S45.505,6.819,41.318,6.819z"></path><path style="fill:#0CB4C4;" d="M56.012,60c-0.625,0-1.134-0.509-1.134-1.134V44.226c0-7.477-6.083-13.559-13.56-13.559 s-13.559,6.083-13.559,13.559v14.64c0,0.626-0.509,1.135-1.135,1.135c-0.625,0-1.133-0.509-1.133-1.135v-14.64 c0-8.728,7.1-15.828,15.827-15.828c8.728,0,15.827,7.1,15.827,15.828v14.641C57.146,59.491,56.638,60,56.012,60z"></path></g></svg>