<svg xmlns="http://www.w3.org/2000/svg" xmlns:xlink="http://www.w3.org/1999/xlink" version="1.1" id="Layer_1" x="0px" y="0px" width="60px" height="60px" viewBox="0 0 60 60" style="enable-background:new 0 0 60 60;" xml:space="preserve"><g><path style="fill:#0CB4C4;" d="M8.229,32.596V0h43.543v32.596H8.229z M11.839,30.819h36.322L30,17.374L11.839,30.819z M31.525,16.257l18.47,13.746V2.599L31.525,16.257z M10.005,29.998l18.47-13.659L10.005,2.594V29.998z M30,15.223L48.161,1.775 H11.839L30,15.223z"></path><path style="fill:#0CB4C4;" d="M8.229,60V40.291h43.543V60H8.229z M16.384,56.949l0.263,1.275h26.706l0.263-1.275L30,51.091 L16.384,56.949z M32.283,50.103l17.712,7.693V42.499L32.283,50.103z M10.005,57.791l17.712-7.603l-17.712-7.694V57.791z M16.384,43.342L30,49.2l13.616-5.858l-0.263-1.274H16.647L16.384,43.342z"></path></g></svg>