<svg xmlns="http://www.w3.org/2000/svg" xmlns:xlink="http://www.w3.org/1999/xlink" version="1.1" id="Layer_1" x="0px" y="0px" width="44.014px" height="60px" viewBox="0 0 44.014 60" style="enable-background:new 0 0 44.014 60;" xml:space="preserve"><g><path style="fill:#0CB4C4;" d="M21.981,13.89c-1.037,0-1.916,0.874-1.916,1.908c0,1.035,0.879,1.909,1.916,1.909 s1.916-0.874,1.916-1.909C23.897,14.764,23.019,13.89,21.981,13.89 M21.981,19.813c-2.223,0-4.031-1.802-4.031-4.016 c0-2.213,1.808-4.016,4.031-4.016c2.223,0,4.029,1.801,4.029,4.016C26.011,18.01,24.204,19.813,21.981,19.813"></path><path style="fill:#0CB4C4;" d="M21.983,6.114c0.627,0,1.25,0.064,1.797,0.187l0.31,0.068V4.207c0-1.159-0.944-2.101-2.106-2.101 c-1.163,0-2.107,0.942-2.107,2.101v2.161l0.308-0.068C20.731,6.178,21.354,6.114,21.983,6.114 M21.983,8.159 c-4.231,0-7.673,3.454-7.673,7.702c0,4.213,3.441,7.64,7.673,7.64c4.227,0,7.668-3.456,7.668-7.703 C29.651,11.585,26.21,8.159,21.983,8.159 M29.017,22.509c-0.887,1.001-2.122,1.835-3.479,2.353l-0.255,0.096l7.108,15.277 l0.207-0.056c1.389-0.375,2.826-0.767,4.18-1.281l0.255-0.094L29.272,22.22L29.017,22.509z M6.866,38.868l0.258,0.093 c1.215,0.44,2.664,0.938,4.188,1.284l0.199,0.044l7.1-15.259l-0.236-0.103c-1.309-0.558-2.488-1.355-3.502-2.368l-0.256-0.253 L6.866,38.868z M21.983,37.832c0.692,0,1.28,0.584,1.28,1.275v2.432l0.269-0.014c2.655-0.156,4.656-0.375,6.487-0.706l0.321-0.06 l-7.125-15.245l-0.189,0.032c-0.364,0.06-0.664,0.06-1.045,0.06s-0.684,0-1.047-0.06l-0.189-0.032L13.62,40.759l0.32,0.06 c2.251,0.408,4.438,0.645,6.496,0.706l0.262,0.006v-2.425C20.702,38.417,21.287,37.832,21.983,37.832 M4.079,44.921l0.58,8.915 l0.48,0.088l5.238-11.346l-0.729-0.209c-1.201-0.338-2.441-0.69-3.626-1.14l-0.222-0.084L4.079,44.921z M37.943,41.228 c-1.317,0.477-2.561,0.838-4.134,1.268l-0.291,0.078l5.305,11.352l0.482-0.089l0.578-8.915l-1.723-3.775L37.943,41.228z M40.012,60 c-0.361,0-0.772-0.274-0.917-0.611l-7.632-16.301l-0.197,0.039c-2.644,0.528-5.254,0.827-7.755,0.888l-0.247,0.006v2.476 c0,0.692-0.588,1.276-1.28,1.276c-0.696,0-1.283-0.584-1.283-1.276V44.02l-0.248-0.006c-2.501-0.061-5.111-0.36-7.757-0.888 l-0.194-0.039L4.874,59.316c-0.152,0.4-0.484,0.619-0.924,0.619H3.696c-0.535-0.11-0.791-0.583-0.836-0.984L1.966,44.697 c0-0.197,0.054-0.354,0.115-0.54l1.826-3.838l-0.239-0.104c-1.005-0.437-2.038-0.889-2.987-1.393 c-0.312-0.154-0.531-0.412-0.627-0.728c-0.098-0.313-0.061-0.661,0.096-0.976c0.212-0.421,0.62-0.673,1.09-0.673 c0.207,0,0.42,0.051,0.616,0.148c0.952,0.506,1.927,0.961,2.896,1.346l0.222,0.091l8.209-17.84l-0.053-0.105 c-0.662-1.386-0.997-2.828-0.997-4.287c0-3.696,2.077-7.025,5.421-8.691l0.141-0.069V4.207C17.694,1.886,19.591,0,21.919,0 c2.367,0,4.223,1.848,4.223,4.207v2.896l0.143,0.068c3.293,1.607,5.42,5.02,5.42,8.69c0,1.458-0.336,2.9-0.998,4.287l-0.053,0.107 l8.402,17.837l0.223-0.088c0.96-0.384,1.936-0.837,2.9-1.351c0.176-0.096,0.377-0.145,0.582-0.145c0.481,0,0.91,0.257,1.117,0.673 c0.154,0.301,0.177,0.637,0.068,0.944c-0.114,0.325-0.367,0.592-0.715,0.75c-0.877,0.466-1.777,0.897-2.936,1.4l-0.238,0.103 l1.839,3.866c0.103,0.16,0.103,0.365,0.103,0.529l-0.896,14.25c-0.047,0.481-0.376,0.856-0.861,0.973h-0.229V60z"></path></g></svg>