<svg xmlns="http://www.w3.org/2000/svg" xmlns:xlink="http://www.w3.org/1999/xlink" version="1.1" id="Layer_1" x="0px" y="0px" width="60px" height="60px" viewBox="0 0 60 60" style="enable-background:new 0 0 60 60;" xml:space="preserve"><g><path style="fill:#0CB4C4;" d="M15.475,40.25l-1.938-0.5C13.175,41.138,13,42.563,13,44c-0.013,2.575,0.575,5.125,1.713,7.438 l1.8-0.875C15.513,48.525,15,46.275,15,44C15,42.737,15.162,41.475,15.475,40.25z"></path><path style="fill:#0CB4C4;" d="M44.25,39.313c1.213,3.712,0.938,7.737-0.763,11.25l1.8,0.875c1.926-3.975,2.238-8.55,0.863-12.75 L44.25,39.313z"></path><path style="fill:#0CB4C4;" d="M30,29c1.875,0,3.725,0.35,5.475,1.025l0.726-1.862c-4.025-1.563-8.487-1.55-12.5,0.038l0.737,1.862 C26.213,29.362,28.1,29,30,29z"></path><path style="fill:#0CB4C4;" d="M59,53h-1V16c0-1.65-1.35-3-3-3h-3V3c0-1.65-1.35-3-3-3H11C9.35,0,8,1.35,8,3v10H5 c-1.65,0-3,1.35-3,3v37H1c-0.55,0-1,0.45-1,1v3c0,1.65,1.35,3,3,3h54c1.65,0,3-1.35,3-3v-3C60,53.45,59.55,53,59,53z M4,16 c0-0.55,0.45-1,1-1h3v2c0,1.65,1.35,3,3,3h16v-2H11c-0.55,0-1-0.45-1-1V3c0-0.55,0.45-1,1-1h38c0.55,0,1,0.45,1,1v14 c0,0.55-0.45,1-1,1h-4v2h4c1.65,0,3-1.35,3-3v-2h3c0.55,0,1,0.45,1,1v37H37c-0.263,0-0.525,0.1-0.713,0.288L35.575,54H24.4 l-0.713-0.712C23.5,53.1,23.25,53,22.975,53H4V16z M58,57c0,0.55-0.45,1-1,1H3c-0.55,0-1-0.45-1-1v-2h20.588l0.712,0.712 C23.487,55.9,23.737,56,24.013,56h12c0.263,0,0.524-0.1,0.712-0.288L37.438,55H58V57z"></path><path style="fill:#0CB4C4;" d="M36.588,39L25.3,50.288l1.413,1.413l2.787-2.788l2.787,2.788l1.413-1.413L30.912,47.5l1.588-1.587 l5.787,5.788l1.413-1.413L33.912,44.5l4.613-4.612c4.512-1.388,7.762-5.325,8.262-10.013l0.2-1.763 c0.063-0.55-0.337-1.037-0.888-1.1c-0.074-0.013-0.149-0.013-0.225,0l-1.763,0.2c-4.688,0.513-8.625,3.763-10.013,8.263l-4.6,4.612 L24.912,35.5l0.788-0.788L24.287,33.3l-0.675,0.675l-0.638-3.163c-0.074-0.35-0.324-0.638-0.662-0.75l-9-3 c-0.525-0.175-1.088,0.112-1.263,0.638c-0.063,0.2-0.063,0.425,0,0.637l3,9c0.112,0.337,0.4,0.6,0.75,0.663l3.163,0.638 l-0.676,0.675l1.413,1.413l0.787-0.788l4.588,4.587l-5.788,5.788l1.413,1.413L35,37.413L36.588,39z M44.35,29.188l0.525-0.063 l-0.063,0.525c-0.412,3.763-2.95,6.962-6.537,8.212l-2.138-2.137C37.388,32.138,40.575,29.6,44.35,29.188L44.35,29.188z M16.763,36.138l-1.476-4.425l3,3L19.7,33.3l-3-3l4.425,1.475l0.775,3.9l-1.238,1.238L16.763,36.138z M21.912,38.5l1.588-1.587 l4.588,4.587L26.5,43.087L21.912,38.5z"></path><rect x="13" y="9" style="fill:#0CB4C4;" width="13" height="2"></rect><path style="fill:#0CB4C4;" d="M31,20.362V24c0,0.55,0.45,1,1,1h8c0.55,0,1-0.45,1-1v-3.587l1.125-1.125 C42.688,18.725,43,17.962,43,17.163v-2.538c0-1.425-1.013-2.663-2.412-2.938L38,11.175V7c0-1.663-1.338-3-3-3s-3,1.337-3,3v5.587 L31.513,12.1c-1.112-1.113-2.913-1.113-4.025,0c-1.037,1.038-1.112,2.7-0.175,3.837L31,20.362z M33,23v-2h6v2H33z M28.9,13.513 c0.324-0.325,0.862-0.325,1.199,0l0,0l2.188,2.188c0.388,0.387,1.025,0.387,1.413,0c0.188-0.188,0.287-0.438,0.287-0.713V7 c0-0.55,0.45-1,1-1s1,0.45,1,1v5c0,0.475,0.338,0.888,0.8,0.975l3.388,0.675c0.463,0.1,0.8,0.5,0.8,0.975v2.538 c0,0.262-0.1,0.525-0.287,0.712L39.563,19H32.45l-3.625-4.337C28.563,14.325,28.588,13.825,28.9,13.513z"></path><rect x="42" y="9" style="fill:#0CB4C4;" width="5" height="2"></rect></g></svg>