<svg width="60" height="61" viewBox="0 0 60 61" fill="none" xmlns="http://www.w3.org/2000/svg"><path d="M1 52.0752H27V50.0752H2V6.0752H27V12.0752C27 12.3404 27.1054 12.5948 27.2929 12.7823C27.4804 12.9698 27.7348 13.0752 28 13.0752H34V20.0752H36V1.0752C36 0.809979 35.8946 0.555625 35.7071 0.368088C35.5196 0.180552 35.2652 0.0751953 35 0.0751953H1C0.734784 0.0751953 0.48043 0.180552 0.292893 0.368088C0.105357 0.555625 0 0.809979 0 1.0752V51.0752C0 51.3404 0.105357 51.5948 0.292893 51.7823C0.48043 51.9698 0.734784 52.0752 1 52.0752ZM29 11.0752V7.48919L32.586 11.0752H29ZM34 2.0752V9.6612L28.707 4.3682C28.6222 4.28398 28.5225 4.21618 28.413 4.1682C28.3836 4.15556 28.3536 4.14454 28.323 4.1352C28.2378 4.10592 28.149 4.08842 28.059 4.0832C28.039 4.0852 28.02 4.0752 28 4.0752H2V2.0752H34Z" fill="#0CB4C4"></path><path d="M9 17.1932L12.553 18.9752C12.771 19.0841 13.0213 19.1096 13.2568 19.047C13.4923 18.9844 13.6968 18.838 13.832 18.6352L17 13.8752L20.168 18.6272C20.2501 18.7502 20.3585 18.8535 20.4853 18.9296C20.6122 19.0057 20.7543 19.0528 20.9015 19.0673C21.0487 19.0818 21.1973 19.0635 21.3366 19.0137C21.4759 18.9639 21.6024 18.8838 21.707 18.7792L25 15.4892L28.293 18.7822L29.707 17.3682L25.707 13.3682C25.5195 13.1807 25.2652 13.0754 25 13.0754C24.7348 13.0754 24.4805 13.1807 24.293 13.3682L21.155 16.5062L17.832 11.5202C17.7353 11.3908 17.6097 11.2858 17.4653 11.2135C17.3208 11.1412 17.1615 11.1035 17 11.1035C16.8385 11.1035 16.6792 11.1412 16.5347 11.2135C16.3903 11.2858 16.2647 11.3908 16.168 11.5202L12.657 16.7862L9.447 15.1802C9.3082 15.1108 9.15516 15.0747 9 15.0747C8.84484 15.0747 8.6918 15.1108 8.553 15.1802L6 16.4572V12.0752H4V22.0752C4 22.3404 4.10536 22.5948 4.29289 22.7823C4.48043 22.9698 4.73478 23.0752 5 23.0752H29V21.0752H6V18.6932L9 17.1932Z" fill="#0CB4C4"></path><path d="M25 33.0755C25.0004 31.8906 24.6489 30.7323 23.99 29.7475C23.191 28.5507 21.9884 27.6809 20.6016 27.2968C19.2148 26.9127 17.7362 27.0398 16.4353 27.6549C15.1344 28.27 14.0979 29.3321 13.5147 30.6477C12.9316 31.9632 12.8407 33.4446 13.2586 34.8215C13.6765 36.1985 14.5753 37.3795 15.7913 38.149C17.0072 38.9186 18.4592 39.2255 19.8826 39.0138C21.3059 38.8022 22.6058 38.086 23.5452 36.9959C24.4846 35.9058 25.0009 34.5145 25 33.0755ZM20 31.2075V29.2075C20.6189 29.3677 21.1903 29.6743 21.666 30.1015L20 31.2075ZM19 37.0755C18.0264 37.0755 17.0862 36.7204 16.3557 36.0768C15.6252 35.4332 15.1545 34.5453 15.0318 33.5795C14.9091 32.6136 15.1429 31.6362 15.6894 30.8305C16.2358 30.0247 17.0573 29.4458 18 29.2025V33.0755C17.9999 33.2565 18.049 33.4342 18.142 33.5895C18.235 33.7448 18.3684 33.872 18.528 33.9575C18.6046 33.9974 18.6859 34.0276 18.77 34.0475C18.801 34.0545 18.833 34.0545 18.864 34.0585C18.9088 34.0676 18.9543 34.0733 19 34.0755C19.007 34.0755 19.014 34.0755 19.022 34.0755C19.0848 34.0721 19.147 34.0627 19.208 34.0475C19.2383 34.0437 19.2683 34.0383 19.298 34.0315C19.3889 34.0033 19.4754 33.9626 19.555 33.9105L22.776 31.7625C22.9243 32.1843 23 32.6283 23 33.0755C23 34.1363 22.5786 35.1537 21.8284 35.9039C21.0783 36.654 20.0609 37.0755 19 37.0755Z" fill="#0CB4C4"></path><path d="M11 29.0752H4V31.0752H11V29.0752Z" fill="#0CB4C4"></path><path d="M13 25.0752H4V27.0752H13V25.0752Z" fill="#0CB4C4"></path><path d="M11 33.0752H4V35.0752H11V33.0752Z" fill="#0CB4C4"></path><path d="M11 37.0752H4V39.0752H11V37.0752Z" fill="#0CB4C4"></path><path d="M22 41.0752H4V43.0752H22V41.0752Z" fill="#0CB4C4"></path><path d="M13 45.0752H4V47.0752H13V45.0752Z" fill="#0CB4C4"></path><path d="M22 45.0752H15V47.0752H22V45.0752Z" fill="#0CB4C4"></path><path d="M6 8.0752H4V10.0752H6V8.0752Z" fill="#0CB4C4"></path><path d="M10 8.0752H8V10.0752H10V8.0752Z" fill="#0CB4C4"></path><path d="M14 8.0752H12V10.0752H14V8.0752Z" fill="#0CB4C4"></path><path d="M43.571 20.0752C40.0213 20.0946 36.5719 21.2548 33.7321 23.3846C30.8923 25.5145 28.8126 28.501 27.8 31.9032L24.04 44.7952C23.9965 44.9442 23.9884 45.1013 24.0161 45.2541C24.0439 45.4068 24.1069 45.551 24.2 45.6752C24.2931 45.7994 24.4139 45.9002 24.5528 45.9696C24.6916 46.0391 24.8448 46.0752 25 46.0752H29V53.0752C29.0024 54.931 29.7406 56.7101 31.0529 58.0223C32.3651 59.3346 34.1442 60.0728 36 60.0752H59C59.2652 60.0752 59.5196 59.9698 59.7071 59.7823C59.8946 59.5948 60 59.3404 60 59.0752V36.5042C59.995 32.1485 58.2624 27.9726 55.1825 24.8927C52.1026 21.8127 47.9267 20.0802 43.571 20.0752ZM31 53.0752V45.0752C31 44.81 30.8946 44.5556 30.7071 44.3681C30.5196 44.1806 30.2652 44.0752 30 44.0752H26.333L29.72 32.4642C30.4642 29.8874 31.9154 27.5706 33.9091 25.7765C35.9028 23.9823 38.3593 22.7826 41 22.3132V58.0752H36C34.6744 58.0736 33.4036 57.5463 32.4662 56.609C31.5289 55.6716 31.0016 54.4008 31 53.0752ZM58 58.0752H43V53.0752H45.586L48.293 55.7822C48.4805 55.9697 48.7348 56.0751 49 56.0752H51V54.0752H49.414L46.707 51.3682C46.5195 51.1806 46.2652 51.0753 46 51.0752H43V46.0752H44.586L47.293 48.7822C47.4805 48.9697 47.7348 49.0751 48 49.0752H49.184C49.4199 49.7424 49.8841 50.3047 50.4945 50.6628C51.1049 51.0209 51.8222 51.1517 52.5197 51.032C53.2172 50.9123 53.85 50.5499 54.3061 50.0089C54.7622 49.4678 55.0124 48.7829 55.0124 48.0752C55.0124 47.3675 54.7622 46.6826 54.3061 46.1415C53.85 45.6005 53.2172 45.2381 52.5197 45.1184C51.8222 44.9987 51.1049 45.1295 50.4945 45.4876C49.8841 45.8456 49.4199 46.408 49.184 47.0752H48.414L45.707 44.3682C45.5195 44.1806 45.2652 44.0753 45 44.0752H43V41.0752H45V39.0752H43V36.0752H46C46.2652 36.0751 46.5195 35.9697 46.707 35.7822L49.107 33.3822C49.638 33.8267 50.3075 34.0718 51 34.0752C51.6274 34.0834 52.242 33.8973 52.7594 33.5423C53.2768 33.1874 53.6718 32.681 53.89 32.0927C54.1082 31.5044 54.139 30.863 53.9783 30.2565C53.8175 29.65 53.473 29.1081 52.992 28.7051C52.511 28.3022 51.9171 28.0579 51.2918 28.0059C50.6665 27.9539 50.0404 28.0966 49.4994 28.4146C48.9585 28.7325 48.5292 29.21 48.2704 29.7816C48.0116 30.3532 47.936 30.9909 48.054 31.6072L45.586 34.0752H43V22.0902C43.2 22.0802 43.387 22.0752 43.571 22.0752C47.3964 22.0797 51.0639 23.6013 53.7689 26.3063C56.4739 29.0113 57.9955 32.6788 58 36.5042V58.0752ZM51 48.0752C51 47.8774 51.0586 47.6841 51.1685 47.5196C51.2784 47.3552 51.4346 47.227 51.6173 47.1513C51.8 47.0756 52.0011 47.0558 52.1951 47.0944C52.3891 47.133 52.5673 47.2282 52.7071 47.3681C52.847 47.5079 52.9422 47.6861 52.9808 47.8801C53.0194 48.0741 52.9996 48.2752 52.9239 48.4579C52.8482 48.6406 52.72 48.7968 52.5556 48.9067C52.3911 49.0165 52.1978 49.0752 52 49.0752C51.7348 49.0752 51.4804 48.9698 51.2929 48.7823C51.1054 48.5948 51 48.3404 51 48.0752ZM50 31.0752C50 30.8774 50.0586 30.6841 50.1685 30.5196C50.2784 30.3552 50.4346 30.227 50.6173 30.1513C50.8 30.0756 51.0011 30.0558 51.1951 30.0944C51.3891 30.133 51.5673 30.2282 51.7071 30.3681C51.847 30.5079 51.9422 30.6861 51.9808 30.8801C52.0194 31.0741 51.9996 31.2752 51.9239 31.4579C51.8482 31.6406 51.72 31.7968 51.5556 31.9067C51.3911 32.0165 51.1978 32.0752 51 32.0752C50.7348 32.0752 50.4804 31.9698 50.2929 31.7823C50.1054 31.5948 50 31.3404 50 31.0752Z" fill="#0CB4C4"></path><path d="M35.1288 34.0752C34.3632 34.0752 33.6148 34.3022 32.9782 34.7276C32.3416 35.1529 31.8455 35.7575 31.5525 36.4648C31.2595 37.1722 31.1828 37.9505 31.3322 38.7014C31.4816 39.4523 31.8502 40.142 32.3916 40.6834C32.933 41.2248 33.6227 41.5935 34.3736 41.7428C35.1245 41.8922 35.9028 41.8155 36.6102 41.5225C37.3175 41.2295 37.9221 40.7334 38.3474 40.0968C38.7728 39.4602 38.9998 38.7118 38.9998 37.9462C38.999 36.9198 38.5909 35.9356 37.8651 35.2099C37.1394 34.4841 36.1552 34.076 35.1288 34.0752ZM35.1288 39.8162C34.7587 39.8162 34.3969 39.7064 34.0892 39.5008C33.7815 39.2952 33.5417 39.0029 33.4001 38.661C33.2586 38.319 33.2216 37.9428 33.2938 37.5798C33.3661 37.2168 33.5444 36.8835 33.8062 36.6218C34.0679 36.3602 34.4014 36.1821 34.7644 36.11C35.1274 36.0379 35.5036 36.0751 35.8455 36.2169C36.1874 36.3587 36.4795 36.5986 36.685 36.9065C36.8904 37.2143 37 37.5761 36.9998 37.9462C36.9993 38.4422 36.802 38.9176 36.4512 39.2683C36.1004 39.6189 35.6248 39.8159 35.1288 39.8162Z" fill="#0CB4C4"></path><path d="M49.184 39.0752H47V41.0752H49.184C49.4199 41.7424 49.8841 42.3048 50.4945 42.6628C51.1049 43.0209 51.8222 43.1517 52.5197 43.032C53.2172 42.9123 53.85 42.5499 54.3061 42.0089C54.7622 41.4678 55.0124 40.7829 55.0124 40.0752C55.0124 39.3675 54.7622 38.6826 54.3061 38.1415C53.85 37.6005 53.2172 37.2381 52.5197 37.1184C51.8222 36.9987 51.1049 37.1295 50.4945 37.4876C49.8841 37.8456 49.4199 38.408 49.184 39.0752ZM53 40.0752C53 40.273 52.9414 40.4663 52.8315 40.6308C52.7216 40.7952 52.5654 40.9234 52.3827 40.9991C52.2 41.0748 51.9989 41.0946 51.8049 41.056C51.6109 41.0174 51.4327 40.9222 51.2929 40.7823C51.153 40.6425 51.0578 40.4643 51.0192 40.2703C50.9806 40.0763 51.0004 39.8752 51.0761 39.6925C51.1518 39.5098 51.28 39.3536 51.4444 39.2437C51.6089 39.1338 51.8022 39.0752 52 39.0752C52.2652 39.0752 52.5196 39.1806 52.7071 39.3681C52.8946 39.5556 53 39.81 53 40.0752Z" fill="#0CB4C4"></path><path d="M47 26.0752H45V28.0752H47V26.0752Z" fill="#0CB4C4"></path><path d="M55 54.0752H53V56.0752H55V54.0752Z" fill="#0CB4C4"></path></svg>