<svg width="54" height="61" viewBox="0 0 54 61" fill="none" xmlns="http://www.w3.org/2000/svg"><path d="M18.7565 44.6688H18.3043L16.6839 26.8666C17.1188 26.2119 17.4511 25.484 17.6563 24.7047L28.8175 10.8581L37.1787 18.0072V19.0662C35.1554 20.283 33.7987 22.4989 33.7987 25.0271C33.7987 27.4614 35.0381 29.6766 37.1148 30.9527C37.4052 31.1312 37.7695 31.1385 38.0672 30.972C38.3649 30.8055 38.5487 30.4911 38.5487 30.1508V25.6991L40.7493 24.4283L42.9498 25.6991V30.1508C42.9498 30.4918 43.1343 30.8062 43.4313 30.972C43.5745 31.0519 43.7324 31.0919 43.8909 31.0919C44.0621 31.0919 44.2326 31.0453 44.3838 30.9527C46.4604 29.6766 47.6999 27.4614 47.6999 25.0271C47.6999 22.4995 46.3432 20.283 44.3198 19.0662V17.3598C44.3198 16.4727 43.7131 15.7267 42.8939 15.5096L33.3464 4.3464C33.0108 1.93673 30.9374 0.0751953 28.4365 0.0751953C26.1154 0.0751953 24.162 1.67898 23.6252 3.83623L8.76619 15.8133C5.64921 16.6352 3.34344 19.4778 3.34344 22.8498C3.34344 24.3337 3.791 25.7144 4.55626 26.866L2.93583 44.6681H2.4836C1.64108 44.6681 0.955078 45.3534 0.955078 46.1966V49.4581C0.955078 50.3006 1.64042 50.9866 2.4836 50.9866H18.7559C19.5984 50.9866 20.2844 50.3013 20.2844 49.4581V46.1966C20.2851 45.3548 19.5991 44.6688 18.7565 44.6688ZM27.2197 9.84109L17.7788 21.5538C17.2413 18.5793 14.8916 16.2296 11.9171 15.6921L23.6298 6.25122C24.0747 8.00953 25.4614 9.39618 27.2197 9.84109ZM33.0367 6.88062L40.361 15.4437H39.0942C38.5647 15.4437 38.0845 15.6601 37.7375 16.0085L30.2834 9.63462C31.5342 9.13044 32.5332 8.13141 33.0367 6.88062ZM45.8184 25.0271C45.8184 26.1347 45.4661 27.181 44.8327 28.0368V25.1563C44.8327 24.8199 44.6535 24.5096 44.3618 24.3411L41.2202 22.5268C40.9291 22.3583 40.5701 22.359 40.2791 22.5268L37.1368 24.3411C36.8457 24.5089 36.6659 24.8199 36.6659 25.1563V28.0368C36.0332 27.181 35.6802 26.1353 35.6802 25.0271C35.6802 22.2324 37.954 19.9586 40.7486 19.9586C43.5432 19.9586 45.8184 22.2318 45.8184 25.0271ZM40.7499 18.0758C40.1678 18.0758 39.6024 18.1491 39.0609 18.2843V17.3598C39.0609 17.3438 39.0782 17.3265 39.0942 17.3265H42.4043C42.4203 17.3265 42.4376 17.3438 42.4376 17.3598V18.2843C41.8975 18.1491 41.332 18.0758 40.7499 18.0758ZM28.4365 1.95804C30.1329 1.95804 31.5129 3.33804 31.5129 5.0344C31.5129 6.73076 30.1329 8.11076 28.4365 8.11076C26.7402 8.11076 25.3602 6.73076 25.3602 5.0344C25.3602 3.33804 26.7402 1.95804 28.4365 1.95804ZM10.6197 17.4564C13.5942 17.4564 16.0145 19.8761 16.0145 22.8512C16.0145 25.8256 13.5949 28.2453 10.6197 28.2453C7.64528 28.2453 5.22562 25.8256 5.22562 22.8512C5.22562 19.8761 7.64528 17.4564 10.6197 17.4564ZM6.2806 28.6882C7.49276 29.592 8.99531 30.1275 10.6204 30.1275C12.2455 30.1275 13.7474 29.592 14.9602 28.6882L16.4148 44.6694H4.826L6.2806 28.6882ZM18.4022 49.1051H2.83726V46.5509H18.4022V49.1051ZM10.6197 26.475C12.6185 26.475 14.2442 24.8492 14.2442 22.8505C14.2442 20.8518 12.6185 19.226 10.6197 19.226C8.621 19.226 6.99524 20.8518 6.99524 22.8505C6.99524 24.8492 8.62167 26.475 10.6197 26.475ZM10.6197 21.1082C11.5801 21.1082 12.3621 21.8901 12.3621 22.8505C12.3621 23.8109 11.5801 24.5928 10.6197 24.5928C9.65933 24.5928 8.87742 23.8109 8.87742 22.8505C8.87809 21.8901 9.65933 21.1082 10.6197 21.1082ZM28.4365 7.43208C29.7586 7.43208 30.8342 6.35646 30.8342 5.03374C30.8342 3.71101 29.7586 2.63605 28.4365 2.63605C27.1145 2.63605 26.0388 3.71168 26.0388 5.03374C26.0388 6.35579 27.1138 7.43208 28.4365 7.43208ZM28.4365 4.51823C28.7209 4.51823 28.952 4.74934 28.952 5.03374C28.952 5.31813 28.7209 5.54924 28.4365 5.54924C28.1521 5.54924 27.921 5.31813 27.921 5.03374C27.921 4.75001 28.1521 4.51823 28.4365 4.51823ZM29.1219 51.5381C29.3523 52.0037 29.1618 52.5684 28.6956 52.7989C28.5617 52.8655 28.4192 52.8968 28.2787 52.8968C27.9323 52.8968 27.5987 52.7043 27.4341 52.3726C26.4871 50.4592 26.0069 48.3991 26.0069 46.2499C26.0069 43.1809 27.0079 40.251 28.8521 37.8487L28.5864 37.87C28.0675 37.9106 27.6146 37.525 27.5727 37.0068C27.5307 36.4887 27.9177 36.0351 28.4358 35.9931L31.0653 35.782C31.3404 35.76 31.6108 35.8593 31.8059 36.0544C32.0011 36.2496 32.1003 36.52 32.0783 36.795L31.8672 39.4245C31.8279 39.9173 31.4156 40.2903 30.9301 40.2903C30.9048 40.2903 30.8795 40.2897 30.8535 40.2877C30.4026 40.2517 30.0523 39.9034 29.9957 39.4724C28.627 41.4525 27.8884 43.7996 27.8884 46.2492C27.8897 48.1074 28.3046 49.8864 29.1219 51.5381ZM46.3812 57.3871C46.6116 57.8527 46.4211 58.4175 45.9549 58.6479C44.0414 59.595 41.9814 60.0752 39.8322 60.0752C36.7631 60.0752 33.8333 59.0742 31.431 57.2299L31.4523 57.4957C31.4936 58.0139 31.1073 58.4674 30.5891 58.5094C30.5638 58.5114 30.5378 58.512 30.5125 58.512C30.027 58.512 29.6147 58.1384 29.5754 57.6462L29.3643 55.0167C29.3423 54.7417 29.4422 54.4713 29.6367 54.2761C29.8318 54.081 30.1022 53.9824 30.3773 54.0037L33.0068 54.2149C33.5249 54.2562 33.9112 54.7104 33.8699 55.2285C33.834 55.6788 33.4856 56.0304 33.0554 56.0864C35.0355 57.4551 37.3819 58.1937 39.8315 58.1937C41.6884 58.1937 43.4673 57.7794 45.1191 56.9615C45.5859 56.7304 46.1507 56.9216 46.3812 57.3871ZM52.091 55.4936C52.1323 56.0118 51.746 56.4653 51.2278 56.5073L48.5984 56.7184C48.573 56.7204 48.5477 56.7211 48.5231 56.7211C48.2747 56.7211 48.0349 56.6225 47.8577 56.4454C47.6626 56.2502 47.5634 55.9798 47.5853 55.7048L47.7965 53.0753C47.8378 52.5571 48.2907 52.1695 48.8102 52.2121C49.2611 52.2481 49.6114 52.5964 49.668 53.0273C51.0367 51.0479 51.7753 48.7002 51.7753 46.2512C51.7753 44.3944 51.361 42.6154 50.5431 40.9637C50.3127 40.4981 50.5032 39.9333 50.9694 39.7029C51.4349 39.4724 51.9997 39.6629 52.2302 40.1291C53.1773 42.0426 53.6575 44.1026 53.6575 46.2519C53.6575 49.3209 52.6564 52.2508 50.8122 54.6531L51.078 54.6318C51.5955 54.5898 52.0497 54.9755 52.091 55.4936ZM48.2127 35.0054C48.1714 34.4873 48.5577 34.0337 49.0759 33.9917C49.5927 33.9485 50.0476 34.3367 50.0896 34.8549L50.3007 37.4844C50.3227 37.7594 50.2228 38.0298 50.0283 38.225C49.8511 38.4021 49.6114 38.5007 49.3629 38.5007C49.3376 38.5007 49.313 38.4994 49.2877 38.4981L46.6582 38.2869C46.1401 38.2456 45.7538 37.7914 45.7951 37.2732C45.831 36.8223 46.1787 36.472 46.6096 36.4154C44.6302 35.0467 42.2831 34.3081 39.8335 34.3081C37.9766 34.3081 36.1977 34.7224 34.5459 35.5402C34.0797 35.7714 33.5156 35.5802 33.2852 35.114C33.0547 34.6484 33.2452 34.0837 33.7114 33.8532C35.6249 32.9061 37.6849 32.4259 39.8342 32.4259C42.9032 32.4259 45.833 33.427 48.2354 35.2712L48.2127 35.0054ZM48.7742 48.6842C49.2937 48.6842 49.7153 48.2626 49.7153 47.7431V44.7587C49.7153 44.2392 49.2937 43.8176 48.7742 43.8176H48.0129C47.8451 43.2515 47.6193 42.7066 47.3376 42.1878L47.8764 41.649C48.244 41.2814 48.244 40.6853 47.8764 40.3183L45.7664 38.2083C45.5899 38.0318 45.3508 37.9326 45.1011 37.9326C44.8513 37.9326 44.6122 38.0318 44.4357 38.2083L43.8969 38.7471C43.3774 38.4654 42.8326 38.239 42.2671 38.0718V37.3105C42.2671 36.791 41.8456 36.3694 41.3261 36.3694H38.3416C37.8221 36.3694 37.4005 36.791 37.4005 37.3105V38.0718C36.8344 38.2396 36.2896 38.4654 35.7708 38.7471L35.2319 38.2083C35.0554 38.0318 34.8163 37.9326 34.5666 37.9326C34.3168 37.9326 34.0777 38.0318 33.9012 38.2083L31.7913 40.3183C31.4236 40.6859 31.4236 41.282 31.7913 41.649L32.3301 42.1878C32.0477 42.7073 31.8219 43.2521 31.6547 43.8176H30.8935C30.374 43.8176 29.9524 44.2392 29.9524 44.7587V47.7431C29.9524 48.2626 30.374 48.6842 30.8935 48.6842H31.6547C31.8226 49.2503 32.0484 49.7951 32.3301 50.314L31.7913 50.8528C31.4236 51.2204 31.4236 51.8165 31.7913 52.1842L33.9012 54.2941C34.2689 54.6618 34.865 54.6618 35.2319 54.2941L35.7708 53.7553C36.2903 54.0377 36.8351 54.2635 37.4005 54.4307V55.1919C37.4005 55.7114 37.8221 56.133 38.3416 56.133H41.3261C41.8456 56.133 42.2671 55.7114 42.2671 55.1919V54.4307C42.8333 54.2628 43.3781 54.037 43.8969 53.7553L44.4357 54.2941C44.8034 54.6618 45.3995 54.6611 45.7671 54.2941L47.8771 52.1842C48.2447 51.8165 48.2447 51.2204 47.8771 50.8528L47.3382 50.314C47.6206 49.7945 47.8464 49.2497 48.0143 48.6842H48.7742ZM47.8331 46.8014H47.277C46.8281 46.8014 46.4418 47.1184 46.3539 47.5586C46.184 48.4105 45.8523 49.211 45.3681 49.9363C45.1191 50.3093 45.1683 50.8068 45.4854 51.1245L45.879 51.5181L45.0997 52.2974L44.7061 51.9038C44.3884 51.5867 43.8916 51.5374 43.5179 51.7865C42.7933 52.2707 41.9934 52.6018 41.1402 52.7723C40.7 52.8602 40.383 53.2465 40.383 53.6954V54.2515H39.2814V53.6954C39.2814 53.2465 38.9643 52.8602 38.5241 52.7723C37.6716 52.6024 36.8717 52.2707 36.1464 51.7865C35.7728 51.5374 35.2759 51.5867 34.9589 51.9038L34.5653 52.2974L33.786 51.5181L34.1796 51.1245C34.4967 50.8068 34.5459 50.31 34.2968 49.9363C33.8126 49.2117 33.4816 48.4111 33.3111 47.5586C33.2232 47.1184 32.8369 46.8014 32.388 46.8014H31.8319V45.6998H32.388C32.8369 45.6998 33.2232 45.3827 33.3111 44.9425C33.481 44.09 33.8126 43.2901 34.2968 42.5648C34.5459 42.1918 34.4967 41.6943 34.1796 41.3766L33.786 40.983L34.5653 40.2037L34.9589 40.5974C35.2759 40.915 35.7734 40.9637 36.1471 40.7146C36.8717 40.2304 37.6723 39.8994 38.5248 39.7289C38.965 39.6409 39.282 39.2547 39.282 38.8058V38.2496H40.3836V38.8058C40.3836 39.2547 40.7007 39.6409 41.1409 39.7289C41.9934 39.8987 42.7933 40.2304 43.5186 40.7146C43.8916 40.9637 44.3891 40.9144 44.7068 40.5974L45.1004 40.2037L45.8797 40.983L45.486 41.3766C45.169 41.6943 45.1197 42.1911 45.3688 42.5648C45.853 43.2894 46.184 44.09 46.3545 44.9425C46.4424 45.3827 46.8287 45.6998 47.2776 45.6998H47.8338L47.8331 46.8014ZM39.8322 40.6753C36.7578 40.6753 34.2569 43.1762 34.2569 46.2506C34.2569 49.3249 36.7578 51.8258 39.8322 51.8258C42.9065 51.8258 45.4074 49.3249 45.4074 46.2506C45.4081 43.1762 42.9065 40.6753 39.8322 40.6753ZM39.8322 49.9437C37.7961 49.9437 36.1391 48.2873 36.1391 46.2506C36.1391 44.2145 37.7955 42.5575 39.8322 42.5575C41.8682 42.5575 43.5253 44.2139 43.5253 46.2506C43.5253 48.2873 41.8689 49.9437 39.8322 49.9437ZM42.3024 44.5968C42.6721 44.9625 42.6747 45.5586 42.3084 45.9275L39.9873 48.2699C39.8035 48.4558 39.5611 48.549 39.3187 48.549C39.0816 48.549 38.8445 48.4598 38.662 48.2819L37.3672 47.0198C36.9949 46.6568 36.9876 46.0614 37.3499 45.6891C37.7129 45.3168 38.3083 45.3095 38.6806 45.6718L39.3067 46.2819L40.9704 44.6028C41.3374 44.2338 41.9335 44.2312 42.3024 44.5968Z" fill="#0CB4C4"></path></svg>