<svg xmlns="http://www.w3.org/2000/svg" xmlns:xlink="http://www.w3.org/1999/xlink" version="1.1" id="Layer_1" x="0px" y="0px" width="59.1px" height="60px" viewBox="0 0 59.1 60" style="enable-background:new 0 0 59.1 60;" xml:space="preserve"><g><rect x="53.156" y="54.099" style="fill:#0EB3C3;" width="1.968" height="1.967"></rect><rect x="49.222" y="54.099" style="fill:#0EB3C3;" width="1.968" height="1.967"></rect><rect x="45.287" y="54.099" style="fill:#0EB3C3;" width="1.968" height="1.967"></rect><rect x="53.156" y="46.229" style="fill:#0EB3C3;" width="1.968" height="1.967"></rect><rect x="49.222" y="46.229" style="fill:#0EB3C3;" width="1.968" height="1.967"></rect><rect x="45.287" y="46.229" style="fill:#0EB3C3;" width="1.968" height="1.967"></rect><rect x="53.156" y="38.36" style="fill:#0EB3C3;" width="1.968" height="1.968"></rect><rect x="49.222" y="38.36" style="fill:#0EB3C3;" width="1.968" height="1.968"></rect><rect x="45.287" y="38.36" style="fill:#0EB3C3;" width="1.968" height="1.968"></rect><path style="fill:#0EB3C3;" d="M41.354,24.59h3.934h3.935h3.935h2.951v-1.967H54.14V9.836c0-0.543-0.44-0.983-0.983-0.983h-2.951 V5.901c0-0.543-0.44-0.983-0.983-0.983h-3.935c-0.543,0-0.983,0.44-0.983,0.983v2.951h-2.95c-0.544,0-0.984,0.44-0.984,0.983v2.951 h-2.95c-0.543,0-0.984,0.44-0.984,0.983v8.853h-1.967v1.967h2.951H41.354z M52.173,10.819v11.804h-1.968V10.819H52.173z M46.271,6.885h1.967v2.951v12.787h-1.967V9.836V6.885z M42.337,10.819h1.967v11.804h-1.967v-8.853V10.819z M38.402,14.754h1.967 v7.869h-1.967V14.754z"></path><path style="fill:#0EB3C3;" d="M4.257,55.563c0.021,0.021,0.045,0.038,0.065,0.059c0.169,0.172,0.354,0.329,0.53,0.492 c0.183,0.169,0.362,0.343,0.552,0.502c0.069,0.057,0.145,0.107,0.216,0.164c2.194,1.755,4.806,2.839,7.601,3.133 c0.024,0.002,0.049,0.008,0.071,0.012C13.789,59.973,14.29,60,14.796,60s1.007-0.027,1.503-0.075 c0.023-0.004,0.048-0.01,0.072-0.012c2.795-0.295,5.407-1.378,7.6-3.133c0.072-0.057,0.146-0.105,0.217-0.164 c0.189-0.159,0.369-0.333,0.552-0.502c0.177-0.163,0.361-0.32,0.53-0.492c0.021-0.021,0.045-0.038,0.065-0.059 c0.012-0.013,0.017-0.028,0.026-0.041c2.372-2.438,3.899-5.69,4.139-9.293h5.951v4.918v7.869c0,0.543,0.44,0.983,0.983,0.983h21.64 c0.543,0,0.983-0.44,0.983-0.983v-7.869v-7.869V35.41c0-0.543-0.44-0.984-0.983-0.984h-21.64c-0.543,0-0.983,0.441-0.983,0.984 v7.868v0.984H29.5c-0.222-3.328-1.543-6.352-3.614-8.716l7.311-7.311l-0.025-0.025c0.393,0.194,0.829,0.313,1.297,0.313h21.64 c1.626,0,2.95-1.324,2.95-2.95V3.935c0-1.627-1.324-2.951-2.95-2.951h-21.64c-1.627,0-2.951,1.324-2.951,2.951v21.64 c0,0.467,0.119,0.903,0.314,1.297l-0.025-0.025l-7.311,7.311c-2.364-2.071-5.389-3.395-8.716-3.614v-6.001 c5.507-0.499,9.836-5.137,9.836-10.771c0-2.629-0.945-5.041-2.51-6.919l1.934-1.934h3.527V2.951h-2.951V0h-1.967v3.527 l-1.935,1.934c-1.877-1.564-4.289-2.51-6.918-2.51c-5.966,0-10.82,4.854-10.82,10.819c0,5.634,4.331,10.271,9.837,10.77v6 C6.136,31.052,0.042,37.443,0.042,45.246c0,3.994,1.601,7.617,4.188,10.276C4.24,55.535,4.245,55.551,4.257,55.563z M37.419,44.263 h19.672v5.901H37.419V44.263z M57.091,58.033H37.419v-5.902h19.672V58.033z M37.419,36.394h19.672v5.901H37.419V36.394z M33.484,3.935c0-0.542,0.44-0.983,0.983-0.983h21.64c0.543,0,0.983,0.441,0.983,0.983v21.64c0,0.541-0.44,0.983-0.983,0.983 h-21.64c-0.543,0-0.983-0.442-0.983-0.983V3.935z M11.845,40.328c0-2.17,1.324-3.935,2.951-3.935c1.626,0,2.95,1.765,2.95,3.935 c0,2.169-1.324,3.935-2.95,3.935C13.169,44.263,11.845,42.497,11.845,40.328z M18.73,46.229c2.712,0,4.918,2.205,4.918,4.918v3.305 c-0.126,0.12-0.258,0.236-0.39,0.354c-0.14,0.124-0.279,0.253-0.425,0.371c-0.203,0.164-0.413,0.316-0.625,0.469 c-0.113,0.081-0.226,0.165-0.341,0.243c-0.254,0.169-0.518,0.324-0.781,0.477c-0.085,0.048-0.167,0.1-0.253,0.146 c-0.293,0.157-0.594,0.299-0.898,0.433c-0.07,0.03-0.138,0.066-0.206,0.096c-0.312,0.131-0.632,0.245-0.953,0.35 c-0.074,0.023-0.146,0.053-0.219,0.076c-0.315,0.097-0.637,0.175-0.962,0.247c-0.087,0.021-0.172,0.046-0.262,0.063 c-0.317,0.064-0.643,0.109-0.968,0.148c-0.098,0.014-0.192,0.034-0.291,0.044c-0.422,0.041-0.848,0.064-1.279,0.064 s-0.858-0.023-1.279-0.064c-0.099-0.01-0.193-0.03-0.291-0.044c-0.325-0.039-0.65-0.083-0.969-0.148 c-0.089-0.018-0.174-0.043-0.261-0.063c-0.325-0.072-0.646-0.15-0.962-0.247c-0.073-0.023-0.145-0.053-0.219-0.076 c-0.321-0.106-0.642-0.22-0.953-0.35c-0.069-0.029-0.137-0.065-0.206-0.096c-0.305-0.134-0.605-0.275-0.899-0.433 c-0.086-0.047-0.168-0.099-0.252-0.146c-0.267-0.152-0.527-0.308-0.781-0.477c-0.115-0.078-0.229-0.162-0.341-0.243 c-0.213-0.152-0.423-0.305-0.625-0.469c-0.146-0.118-0.284-0.247-0.425-0.371c-0.133-0.117-0.265-0.233-0.39-0.354v-3.305 c0-2.713,2.205-4.918,4.918-4.918H18.73z M5.943,13.771c0-4.881,3.97-8.853,8.853-8.853c2.088,0,4.003,0.73,5.519,1.943 l-1.402,1.403c-1.15-0.862-2.572-1.38-4.116-1.38c-3.796,0-6.886,3.09-6.886,6.886s3.09,6.885,6.886,6.885s6.885-3.089,6.885-6.885 c0-1.545-0.518-2.966-1.378-4.116l1.402-1.402c1.213,1.515,1.943,3.431,1.943,5.519c0,4.881-3.971,8.853-8.853,8.853 C9.913,22.623,5.943,18.651,5.943,13.771z M19.714,13.771c0,2.713-2.205,4.918-4.918,4.918s-4.918-2.205-4.918-4.918 s2.205-4.918,4.918-4.918c1,0,1.93,0.305,2.707,0.819l-2.707,2.708v-1.561h-1.968v3.935c0,0.543,0.441,0.983,0.984,0.983h3.934 v-1.967h-1.56l2.708-2.707C19.409,11.841,19.714,12.771,19.714,13.771z M14.796,32.459c7.05,0,12.787,5.736,12.787,12.787 c0,2.493-0.728,4.815-1.968,6.782v-0.881c0-3.796-3.089-6.885-6.885-6.885h-0.279c0.781-1.046,1.263-2.422,1.263-3.935 c0-3.256-2.205-5.902-4.918-5.902s-4.918,2.646-4.918,5.902c0,1.513,0.481,2.889,1.263,3.935h-0.279 c-3.796,0-6.886,3.089-6.886,6.885v0.881c-1.239-1.967-1.967-4.289-1.967-6.782C2.009,38.195,7.745,32.459,14.796,32.459z"></path></g></svg>