<svg xmlns="http://www.w3.org/2000/svg" width="71" height="62" viewBox="0 0 71 62" fill="none"><path fill-rule="evenodd" clip-rule="evenodd" d="M52.3544 2.56893H18.6448C18.2084 2.56893 17.8545 2.2177 17.8545 1.78471C17.8548 1.35176 18.2083 1.00049 18.6445 1.00049H52.3545C52.7917 1.00049 53.1442 1.35176 53.1442 1.78471C53.1445 2.21761 52.7917 2.56893 52.3544 2.56893Z" fill="#0CB4C4" stroke="#0CB4C4" stroke-width="0.5"></path><path fill-rule="evenodd" clip-rule="evenodd" d="M63.2707 60.9999H7.72947C7.29309 60.9999 6.93921 60.6486 6.93921 60.2157L6.93943 14.1958C6.93943 13.7629 7.29309 13.4116 7.72925 13.4116C8.16554 13.4116 8.51929 13.7629 8.51929 14.1959L8.51951 59.4314H62.4806V14.1958C62.4806 13.7628 62.8343 13.4116 63.2705 13.4116C63.7067 13.4115 64.0606 13.7629 64.0606 14.1958L64.0607 60.2156C64.0607 60.6486 63.7068 60.9999 63.2707 60.9999Z" fill="#0CB4C4" stroke="#0CB4C4" stroke-width="0.5"></path><path fill-rule="evenodd" clip-rule="evenodd" d="M58.805 60.9999C58.3689 60.9999 58.0148 60.6487 58.0148 60.2157L58.015 21.3423H12.984V60.2157C12.984 60.6487 12.6315 61 12.1939 61C11.7579 60.9999 11.4053 60.6487 11.4053 60.2158L11.4055 20.5581C11.4055 20.1252 11.7577 19.774 12.1939 19.774L58.8049 19.7739C59.241 19.7739 59.5948 20.1252 59.5948 20.5582L59.595 60.2157C59.595 60.6486 59.241 60.9999 58.805 60.9999Z" fill="#0CB4C4" stroke="#0CB4C4" stroke-width="0.5"></path><path fill-rule="evenodd" clip-rule="evenodd" d="M58.8049 25.9307H12.1939C11.7579 25.9307 11.4053 25.5795 11.4053 25.1466C11.4055 24.7136 11.7577 24.3623 12.1939 24.3623L58.8049 24.3623C59.241 24.3623 59.5948 24.7136 59.5948 25.1466C59.595 25.5795 59.241 25.9308 58.8049 25.9307Z" fill="#0CB4C4" stroke="#0CB4C4" stroke-width="0.5"></path><path fill-rule="evenodd" clip-rule="evenodd" d="M58.8049 30.4234H12.1939C11.7579 30.4234 11.4053 30.0721 11.4053 29.6392C11.4055 29.2062 11.7577 28.855 12.1939 28.855H58.8049C59.241 28.855 59.5948 29.2062 59.5948 29.6392C59.595 30.0721 59.241 30.4234 58.8049 30.4234Z" fill="#0CB4C4" stroke="#0CB4C4" stroke-width="0.5"></path><path fill-rule="evenodd" clip-rule="evenodd" d="M58.8049 34.918H12.1939C11.7579 34.918 11.4053 34.5668 11.4053 34.1338C11.4055 33.6995 11.7577 33.3496 12.1939 33.3496H58.8049C59.241 33.3496 59.5948 33.6995 59.5948 34.1338C59.595 34.5668 59.241 34.918 58.8049 34.918Z" fill="#0CB4C4" stroke="#0CB4C4" stroke-width="0.5"></path><path fill-rule="evenodd" clip-rule="evenodd" d="M33.1011 60.9998C32.665 60.9998 32.3109 60.6486 32.3109 60.2157L32.311 42.7803H17.9163V60.2155C17.9163 60.6485 17.5621 60.9998 17.126 60.9998C16.6899 60.9998 16.3359 60.6485 16.3359 60.2156L16.3362 41.9961C16.3362 41.5631 16.6898 41.2119 17.126 41.2119H33.1011C33.5371 41.2119 33.891 41.5632 33.891 41.9961L33.8911 60.2156C33.8911 60.6485 33.537 60.9999 33.1011 60.9998Z" fill="#0CB4C4" stroke="#0CB4C4" stroke-width="0.5"></path><path fill-rule="evenodd" clip-rule="evenodd" d="M53.874 60.9998C53.4379 60.9998 53.0838 60.6486 53.0838 60.2157L53.0839 42.7803H38.6892V60.2155C38.6892 60.6485 38.3351 60.9998 37.8989 60.9998C37.4628 60.9998 37.1089 60.6485 37.1089 60.2156L37.1091 41.9961C37.1091 41.5631 37.4627 41.2119 37.8989 41.2119H53.874C54.3104 41.2119 54.6639 41.5632 54.6639 41.9961L54.6641 60.2156C54.6641 60.6485 54.31 60.9999 53.874 60.9998Z" fill="#0CB4C4" stroke="#0CB4C4" stroke-width="0.5"></path><path fill-rule="evenodd" clip-rule="evenodd" d="M28.132 50.7096C27.8768 50.7096 27.6312 50.5872 27.4803 50.3706L25.1132 46.956L22.7471 50.3706C22.5496 50.6525 22.1914 50.7764 21.8609 50.6743C21.5306 50.5722 21.3054 50.2685 21.3054 49.9255L21.3056 41.9961C21.3056 41.5631 21.6593 41.2119 22.0955 41.2119C22.5317 41.2119 22.8855 41.5632 22.8855 41.9961L22.8857 47.4025L24.463 45.1275C24.6096 44.9151 24.8537 44.7886 25.1129 44.7886C25.3737 44.7886 25.6163 44.9152 25.7644 45.1275L27.3419 47.4025V41.9961C27.3419 41.5631 27.6956 41.2119 28.1318 41.2119C28.5681 41.2119 28.9218 41.5632 28.9218 41.9961L28.922 49.9254C28.922 50.2685 28.6956 50.5722 28.3664 50.6743C28.2882 50.6988 28.21 50.7097 28.132 50.7096Z" fill="#0CB4C4" stroke="#0CB4C4" stroke-width="0.5"></path><path fill-rule="evenodd" clip-rule="evenodd" d="M48.9047 50.7096C48.6495 50.7096 48.4039 50.5872 48.253 50.3706L45.8859 46.956L43.5185 50.3706C43.3223 50.6525 42.9641 50.7764 42.6336 50.6743C42.3032 50.5722 42.0781 50.2685 42.0781 49.9255L42.0783 41.9961C42.0783 41.5631 42.432 41.2119 42.8682 41.2119C43.3044 41.2119 43.6582 41.5632 43.6582 41.9961L43.6583 47.4025L45.2356 45.1275C45.3825 44.9151 45.6264 44.7886 45.8857 44.7886C46.1463 44.7886 46.389 44.9152 46.5372 45.1275L48.1147 47.4025V41.9961C48.1147 41.5631 48.467 41.2119 48.9045 41.2119C49.3408 41.2119 49.6932 41.5632 49.6932 41.9961V49.9254C49.6932 50.2685 49.4682 50.5722 49.1391 50.6743C49.0612 50.6988 48.9813 50.7097 48.9047 50.7096Z" fill="#0CB4C4" stroke="#0CB4C4" stroke-width="0.5"></path><path fill-rule="evenodd" clip-rule="evenodd" d="M4.18115 13.4116H33.1095L18.6447 2.76072L4.18115 13.4116ZM35.4999 14.9801H1.79035C1.44902 14.9801 1.14701 14.7623 1.03999 14.441C0.933052 14.1197 1.04553 13.767 1.31841 13.5656L18.1741 1.1542C18.454 0.94855 18.8365 0.948637 19.1149 1.15424L35.9706 13.5655C36.2449 13.767 36.3571 14.1196 36.2502 14.441C36.1434 14.7622 35.8401 14.9802 35.4999 14.9801Z" fill="#0CB4C4" stroke="#0CB4C4" stroke-width="0.5"></path><path fill-rule="evenodd" clip-rule="evenodd" d="M37.8908 13.4116H66.8191L52.3544 2.76072L37.8908 13.4116ZM69.2097 14.9801H35.5001C35.1588 14.9801 34.8568 14.7623 34.7498 14.441C34.6431 14.1197 34.7554 13.767 35.0297 13.5656L51.8839 1.1542C52.1638 0.94855 52.5463 0.948637 52.8261 1.15424L69.6804 13.5655C69.9548 13.767 70.067 14.1196 69.96 14.441C69.8532 14.7622 69.5498 14.9802 69.2097 14.9801Z" fill="#0CB4C4" stroke="#0CB4C4" stroke-width="0.5"></path></svg>