<svg xmlns="http://www.w3.org/2000/svg" width="76" height="62" viewBox="0 0 76 62" fill="none"><path d="M20.6295 1.00377C20.4302 1.04165 20.2508 1.14841 20.1229 1.30523C19.9949 1.46205 19.9268 1.65884 19.9303 1.86086V35.2873H13.0466V33.5732C13.0466 33.3458 12.9559 33.1279 12.7946 32.9671C12.6332 32.8064 12.4144 32.7161 12.1862 32.7161H1.8606C1.80694 32.711 1.75292 32.711 1.69926 32.7161C1.5 32.7539 1.32058 32.8607 1.19267 33.0175C1.06475 33.1743 0.996559 33.3711 1.00013 33.5732V57.5716C1.00016 57.799 1.09082 58.0169 1.25218 58.1777C1.41355 58.3384 1.6324 58.4287 1.8606 58.4287H12.1862C12.4144 58.4287 12.6332 58.3384 12.7946 58.1777C12.9559 58.0169 13.0466 57.799 13.0466 57.5716V53.6612L27.2712 60.8929C27.3947 60.961 27.5333 60.9978 27.6745 61H51.7675C51.9203 60.9942 52.0688 60.948 52.1977 60.8661L73.0371 48.7329C74.4686 47.8984 75 46.2347 75 44.7153C75 41.8854 72.6784 39.5728 69.8372 39.5728C69.2515 39.5728 68.6722 39.6689 68.1163 39.8674V22.431C68.1212 22.3066 68.0988 22.1827 68.0507 22.0678C68.0026 21.9528 67.93 21.8498 67.8379 21.7656C67.7458 21.6815 67.6364 21.6184 67.5173 21.5807C67.3982 21.5429 67.2723 21.5315 67.1483 21.5471C66.9345 21.5738 66.7385 21.6794 66.5991 21.8431C66.4597 22.0067 66.387 22.2165 66.3954 22.431V40.6709L59.3234 44.26C58.7355 42.064 56.7353 40.4299 54.3489 40.4299H38.0001C36.5645 40.4299 35.1683 39.329 33.3213 38.0193C31.4743 36.7096 29.1606 35.2873 25.9536 35.2873H21.6513V2.71795H66.3954V17.2885C66.3938 17.402 66.4148 17.5148 66.4573 17.6202C66.4999 17.7256 66.563 17.8215 66.643 17.9024C66.7231 17.9833 66.8185 18.0475 66.9237 18.0913C67.0289 18.1352 67.1418 18.1578 67.2558 18.1578C67.3699 18.1578 67.4828 18.1352 67.588 18.0913C67.6932 18.0475 67.7886 17.9833 67.8686 17.9024C67.9487 17.8215 68.0118 17.7256 68.0543 17.6202C68.0968 17.5148 68.1179 17.402 68.1163 17.2885V1.86086C68.1163 1.63356 68.0256 1.41557 67.8642 1.25484C67.7029 1.09411 67.484 1.0038 67.2558 1.00377H20.7908C20.7371 0.998742 20.6831 0.998742 20.6295 1.00377ZM35.2573 7.86049C35.0581 7.89836 34.8787 8.00512 34.7507 8.16194C34.6228 8.31876 34.5546 8.51555 34.5582 8.71758V15.5743C34.5582 15.8016 34.6489 16.0196 34.8103 16.1803C34.9716 16.341 35.1905 16.4314 35.4187 16.4314H52.628C52.8562 16.4314 53.075 16.341 53.2364 16.1803C53.3977 16.0196 53.4884 15.8016 53.4884 15.5743V8.71758C53.4884 8.49027 53.3977 8.27228 53.2364 8.11155C53.075 7.95082 52.8562 7.86051 52.628 7.86049H35.4187C35.365 7.85545 35.311 7.85545 35.2573 7.86049ZM36.2791 9.57466H51.7675V14.7172H36.2791V9.57466ZM2.72106 34.4302H11.3257V56.7146H2.72106V34.4302ZM13.0466 37.0015H25.9536C28.6598 37.0015 30.5475 38.1506 32.3264 39.4121C34.1052 40.6735 35.759 42.144 38.0001 42.144H54.3489C56.2706 42.144 57.7907 43.6583 57.7907 45.5724C57.7907 47.4865 56.2706 49.0007 54.3489 49.0008H38.8605C38.7465 48.9991 38.6333 49.0201 38.5275 49.0625C38.4217 49.1048 38.3254 49.1677 38.2442 49.2475C38.163 49.3272 38.0985 49.4222 38.0545 49.527C38.0105 49.6318 37.9878 49.7443 37.9878 49.8578C37.9878 49.9714 38.0105 50.0839 38.0545 50.1887C38.0985 50.2935 38.163 50.3885 38.2442 50.4682C38.3254 50.548 38.4217 50.6109 38.5275 50.6532C38.6333 50.6956 38.7465 50.7165 38.8605 50.7149H54.3489C57.0163 50.7149 59.2197 48.6969 59.4848 46.1081L68.4121 41.5816C68.8068 41.3817 69.3005 41.287 69.8372 41.287C71.7483 41.287 73.2791 42.8117 73.2791 44.7153C73.2791 45.8248 72.8575 46.8361 72.1766 47.233L51.5255 59.2858H27.9165L13.2349 51.8399C13.1744 51.8149 13.1112 51.797 13.0466 51.7863V37.0015Z" fill="#0CB4C4" stroke="#0CB4C4" stroke-width="0.5"></path></svg>