<svg version="1.1" id="Layer_1" xmlns="http://www.w3.org/2000/svg" xmlns:xlink="http://www.w3.org/1999/xlink" x="0px" y="0px" width="60px" height="60px" viewBox="0 0 60 60" style="enable-background:new 0 0 60 60;" xml:space="preserve"><g><path style="fill:#0EB3C3;" d="M25.666,17.368l-8.297,8.297v16.967h33.157c0.532,0,0.963-0.43,0.963-0.961V8.513H22.676 L8.514,22.675v28.804h50.278c0.531,0,0.96-0.429,0.96-0.96V0.248H19.891L0.248,19.891v39.861h58.544c0.531,0,0.96-0.429,0.96-0.96 s-0.429-0.961-0.96-0.961H2.168V20.684L20.685,2.169h37.146v47.397H10.434V23.477L23.469,10.44h26.09v30.277h-6.928v-23.35H25.666z M19.289,26.459l7.17-7.169h14.251v21.422H19.289V26.459z"></path><path style="fill:#0EB3C3;" d="M58.792,60H0V19.788L19.788,0H60v50.52c0,0.666-0.541,1.208-1.208,1.208H8.266V22.573L22.573,8.265 h29.163v33.406c0,0.667-0.544,1.209-1.211,1.209H17.121V25.563l8.442-8.442H42.88v23.35h6.432V10.688H23.572L10.682,23.58v25.738 h46.901V2.417H20.787L2.417,20.787v36.796h56.375c0.667,0,1.208,0.542,1.208,1.209S59.459,60,58.792,60z M0.496,59.504h58.296 c0.394,0,0.712-0.319,0.712-0.712s-0.318-0.714-0.712-0.714H1.92V20.582l18.662-18.66h37.496v47.893H10.186v-26.44l13.181-13.182 h26.441v30.772h-7.424V17.616H25.768l-8.152,8.152v16.616h32.909c0.394,0,0.715-0.319,0.715-0.713V8.761H22.778L8.761,22.778 v28.454h50.031c0.394,0,0.712-0.319,0.712-0.712V0.496h-39.51L0.496,19.994V59.504z M40.958,40.959H19.041V26.356l7.316-7.315 h14.601V40.959z M19.537,40.464h20.926V19.538h-13.9l-7.025,7.024V40.464z"></path></g></svg>