<svg version="1.1" id="Layer_1" xmlns="http://www.w3.org/2000/svg" xmlns:xlink="http://www.w3.org/1999/xlink" x="0px" y="0px" width="69px" height="60px" viewBox="0 0 69 60" style="enable-background:new 0 0 69 60;" xml:space="preserve"><g><g><path style="fill:#0EB3C3;" d="M67.313,0h-9.375c-0.858,0-1.563,0.703-1.563,1.563s0.704,1.563,1.563,1.563h7.813v5.469 c0,0.859,0.704,1.563,1.563,1.563s1.563-0.703,1.563-1.563V1.563C68.875,0.703,68.171,0,67.313,0z"></path><path style="fill:#0EB3C3;" d="M1.688,10.156c0.859,0,1.563-0.703,1.563-1.563V3.125h7.813c0.859,0,1.563-0.703,1.563-1.563 S11.921,0,11.063,0H1.688C0.829,0,0.125,0.703,0.125,1.563v7.031C0.125,9.453,0.829,10.156,1.688,10.156z"></path><path style="fill:#0EB3C3;" d="M67.313,39.844c-0.858,0-1.563,0.703-1.563,1.563v5.469h-7.813c-0.858,0-1.563,0.703-1.563,1.563 S57.079,50,57.938,50h9.375c0.858,0,1.563-0.703,1.563-1.563v-7.031C68.875,40.547,68.171,39.844,67.313,39.844z"></path><path style="fill:#0EB3C3;" d="M11.063,46.875H3.25v-5.469c0-0.859-0.704-1.563-1.563-1.563s-1.563,0.703-1.563,1.563v7.031 C0.125,49.297,0.829,50,1.688,50h9.375c0.859,0,1.563-0.703,1.563-1.563S11.921,46.875,11.063,46.875z"></path><path style="fill:#0EB3C3;" d="M9.5,8.594v32.813c0,0.859,0.704,1.563,1.563,1.563h46.875c0.858,0,1.563-0.703,1.563-1.563V8.594 c0-0.859-0.704-1.563-1.563-1.563H11.063C10.204,7.031,9.5,7.734,9.5,8.594z M12.625,10.156h43.75v29.688h-43.75V10.156z"></path><path style="fill:#0EB3C3;" d="M17.313,11.719c-0.859,0-1.563,0.703-1.563,1.563v23.438c0,0.859,0.704,1.563,1.563,1.563 s1.563-0.703,1.563-1.563V13.281C18.875,12.422,18.171,11.719,17.313,11.719z"></path><path style="fill:#0EB3C3;" d="M22.781,32.031c-0.859,0-1.563,0.703-1.563,1.563v3.125c0,0.859,0.704,1.563,1.563,1.563 s1.563-0.703,1.563-1.563v-3.125C24.344,32.734,23.64,32.031,22.781,32.031z"></path><path style="fill:#0EB3C3;" d="M22.781,11.719c-0.859,0-1.563,0.703-1.563,1.563v15.625c0,0.859,0.704,1.563,1.563,1.563 s1.563-0.703,1.563-1.563V13.281C24.344,12.422,23.64,11.719,22.781,11.719z"></path><path style="fill:#0EB3C3;" d="M29.031,32.031c-0.859,0-1.563,0.703-1.563,1.563v3.125c0,0.859,0.704,1.563,1.563,1.563 s1.563-0.703,1.563-1.563v-3.125C30.594,32.734,29.89,32.031,29.031,32.031z"></path><path style="fill:#0EB3C3;" d="M29.031,11.719c-0.859,0-1.563,0.703-1.563,1.563v15.625c0,0.859,0.704,1.563,1.563,1.563 s1.563-0.703,1.563-1.563V13.281C30.594,12.422,29.89,11.719,29.031,11.719z"></path><path style="fill:#0EB3C3;" d="M34.5,32.031c-0.859,0-1.563,0.703-1.563,1.563v3.125c0,0.859,0.704,1.563,1.563,1.563 s1.563-0.703,1.563-1.563v-3.125C36.063,32.734,35.359,32.031,34.5,32.031z"></path><path style="fill:#0EB3C3;" d="M34.5,11.719c-0.859,0-1.563,0.703-1.563,1.563v15.625c0,0.859,0.704,1.563,1.563,1.563 s1.563-0.703,1.563-1.563V13.281C36.063,12.422,35.359,11.719,34.5,11.719z"></path><path style="fill:#0EB3C3;" d="M39.969,32.031c-0.858,0-1.563,0.703-1.563,1.563v3.125c0,0.859,0.704,1.563,1.563,1.563 s1.563-0.703,1.563-1.563v-3.125C41.531,32.734,40.827,32.031,39.969,32.031z"></path><path style="fill:#0EB3C3;" d="M39.969,11.719c-0.858,0-1.563,0.703-1.563,1.563v15.625c0,0.859,0.704,1.563,1.563,1.563 s1.563-0.703,1.563-1.563V13.281C41.531,12.422,40.827,11.719,39.969,11.719z"></path><path style="fill:#0EB3C3;" d="M46.219,32.031c-0.858,0-1.563,0.703-1.563,1.563v3.125c0,0.859,0.704,1.563,1.563,1.563 s1.563-0.703,1.563-1.563v-3.125C47.781,32.734,47.077,32.031,46.219,32.031z"></path><path style="fill:#0EB3C3;" d="M46.219,11.719c-0.858,0-1.563,0.703-1.563,1.563v15.625c0,0.859,0.704,1.563,1.563,1.563 s1.563-0.703,1.563-1.563V13.281C47.781,12.422,47.077,11.719,46.219,11.719z"></path><path style="fill:#0EB3C3;" d="M51.688,11.719c-0.858,0-1.563,0.703-1.563,1.563v23.438c0,0.859,0.704,1.563,1.563,1.563 s1.563-0.703,1.563-1.563V13.281C53.25,12.422,52.546,11.719,51.688,11.719z"></path></g></g></svg>