<svg version="1.1" id="Layer_1" xmlns="http://www.w3.org/2000/svg" xmlns:xlink="http://www.w3.org/1999/xlink" x="0px" y="0px" width="70.1px" height="60px" viewBox="0 0 70.1 60" style="enable-background:new 0 0 70.1 60;" xml:space="preserve"><g><g><path style="fill:#0EB3C3;" d="M67.341,7.346h-25.01C41.389,3.142,37.645,0,33.188,0c-4.479,0-8.234,3.142-9.176,7.346H2.748 c-1.512,0-2.737,1.227-2.737,2.737V52.25c0,1.513,1.226,2.749,2.737,2.749h64.593c1.511,0,2.748-1.236,2.748-2.749V10.083 C70.089,8.572,68.852,7.346,67.341,7.346z M33.188,2.188c3.958,0,7.172,3.232,7.172,7.193v0.154 c-0.17,3.581-5.477,13.758-7.183,16.905c-1.615-2.991-7.193-13.617-7.193-17.06C25.984,5.507,29.146,2.188,33.188,2.188z M62.961,14.474v16.413h-6.514V14.474H62.961z M55.351,33.079h7.61v4.368h-7.61c-0.613,0-1.096,0.481-1.096,1.095v5.146h-8.716 v-5.146c0-0.613-0.491-1.095-1.094-1.095H19.709c-0.481,0-0.897,0.307-1.04,0.778l-1.664,5.463h-4.697l1.456-4.83 c0.109-0.338,0.044-0.7-0.165-0.975c-0.207-0.273-0.536-0.437-0.876-0.437H7.128v-4.368h7.577c0.481,0,0.909-0.308,1.052-0.777 l5.398-17.828h3.908c0.143,0.373,0.296,0.756,0.449,1.149L20.65,31.665c-0.098,0.341-0.043,0.701,0.165,0.975 s0.536,0.439,0.887,0.439h22.743c0.603,0,1.094-0.482,1.094-1.096v-17.51h8.716v17.51C54.255,32.597,54.737,33.079,55.351,33.079z M62.961,39.637v4.052h-6.514v-4.052H62.961z M19.294,43.688l1.237-4.052h22.819v4.052H19.294z M7.128,43.688v-4.052h4.117 l-1.226,4.052H7.128z M7.128,30.887V14.474h11.738l-4.971,16.413H7.128z M43.351,30.887H23.169l3.69-12.152 c2.201,4.839,4.884,9.635,5.365,10.511c0.198,0.351,0.558,0.56,0.964,0.56c0.394,0,0.756-0.209,0.953-0.56 c0.635-1.137,4.948-8.901,7.14-14.771h2.069V30.887z M67.898,52.25c0,0.308-0.252,0.56-0.558,0.56H2.748 c-0.307,0-0.548-0.252-0.548-0.56V10.083c0-0.307,0.241-0.547,0.548-0.547h21.057c0.011,0.744,0.208,1.687,0.525,2.748 c-6.678,0-14.032,0-18.297,0c-0.603,0-1.095,0.492-1.095,1.095c0,7.907,0,23.348,0,31.404c0,0.603,0.492,1.096,1.095,1.096 c16.521,0,38.942,0,58.022,0c0.603,0,1.095-0.493,1.095-1.096c0-11.1,0-20.313,0-31.404c0-0.603-0.492-1.095-1.095-1.095 c-7.688,0-13.943,0-22.043,0c0.318-1.062,0.517-2.004,0.526-2.748h24.802c0.306,0,0.558,0.24,0.558,0.547V52.25z"></path><path style="fill:#0EB3C3;" d="M37.924,48.624h-5.756c-0.605,0-1.096,0.49-1.096,1.096c0,0.604,0.49,1.095,1.096,1.095h5.756 c0.604,0,1.095-0.49,1.095-1.095C39.019,49.114,38.528,48.624,37.924,48.624z"></path><path style="fill:#0EB3C3;" d="M31.326,34.065c-0.669,0-1.207,0.538-1.207,1.205c0,0.669,0.538,1.218,1.207,1.218 c0.679,0,1.217-0.549,1.217-1.218C32.543,34.604,32.005,34.065,31.326,34.065z"></path></g><g><path style="fill:#0EB3C3;" d="M33.168,14.441c-2.486,0-4.51-2.024-4.51-4.512s2.023-4.51,4.51-4.51 c2.493,0,4.522,2.022,4.522,4.51S35.661,14.441,33.168,14.441z M33.168,7.608c-1.28,0-2.319,1.042-2.319,2.321 c0,1.28,1.039,2.321,2.319,2.321c1.287,0,2.332-1.041,2.332-2.321C35.5,8.65,34.455,7.608,33.168,7.608z"></path></g></g></svg>