<svg xmlns="http://www.w3.org/2000/svg" xmlns:xlink="http://www.w3.org/1999/xlink" version="1.1" id="Layer_1" x="0px" y="0px" width="60px" height="60px" viewBox="0 0 60 60" style="enable-background:new 0 0 60 60;" xml:space="preserve"><g><rect x="0.001" y="45.482" style="fill:#0EB3C3;" width="4.838" height="1.936"></rect><rect x="1.937" y="49.354" style="fill:#0EB3C3;" width="4.838" height="1.935"></rect><path style="fill:#0EB3C3;" d="M23.982,44.877c-0.184-0.229-0.461-0.362-0.756-0.362h-3.871v-1.936 c0-0.534-0.433-0.968-0.967-0.968H3.872c-0.534,0-0.968,0.434-0.968,0.968v1.936h1.936v-0.968H17.42v12.58h-5.985 c-0.524-1.504-2.168-2.301-3.674-1.775c-0.832,0.29-1.484,0.943-1.774,1.775H4.839v-3.871H2.904v4.839 c0,0.534,0.434,0.968,0.968,0.968h2.115c0.524,1.505,2.168,2.301,3.674,1.775c0.832-0.29,1.484-0.943,1.774-1.775h8.278 c0.524,1.505,2.17,2.298,3.674,1.774c0.832-0.29,1.484-0.942,1.774-1.774h1.935c0.535,0,0.968-0.434,0.968-0.968V50.32 c0-0.219-0.074-0.433-0.211-0.604L23.982,44.877z M8.71,58.063c-0.534,0-0.968-0.434-0.968-0.968s0.434-0.968,0.968-0.968 s0.968,0.434,0.968,0.968S9.245,58.063,8.71,58.063z M22.258,46.45h0.504l2.321,2.903h-2.825V46.45z M22.437,58.063 c-0.535,0-0.967-0.434-0.967-0.968s0.432-0.968,0.967-0.968c0.535,0,0.968,0.434,0.968,0.968S22.972,58.063,22.437,58.063z M26.129,56.127h-0.967c-0.524-1.504-2.17-2.298-3.676-1.774c-0.83,0.29-1.483,0.942-1.773,1.774h-0.358V46.45h0.968v3.87 c0,0.535,0.434,0.968,0.968,0.968h4.838V56.127z"></path><path style="fill:#0EB3C3;" d="M59.031,0H41.613c-0.535,0-0.969,0.434-0.969,0.968v17.419c0,0.534,0.434,0.967,0.969,0.967h17.418 c0.534,0,0.968-0.433,0.968-0.967V0.968C59.999,0.434,59.565,0,59.031,0z M49.354,1.936h1.935v3.273l-0.533-0.27 c-0.273-0.137-0.594-0.137-0.867,0l-0.534,0.27V1.936z M58.063,17.419H42.58V1.936h4.839v4.838c0,0.534,0.433,0.968,0.968,0.968 c0.15,0,0.297-0.035,0.434-0.101l1.502-0.754l1.502,0.754c0.479,0.238,1.061,0.044,1.299-0.434 c0.066-0.135,0.102-0.282,0.102-0.434V1.936h4.839V17.419z"></path><path style="fill:#0EB3C3;" d="M56.129,46.45h-0.77c1.752-1.446,1.998-4.039,0.553-5.79c-1.445-1.752-4.037-2-5.789-0.554 c-1.752,1.447-1.998,4.04-0.553,5.792c0.166,0.2,0.352,0.385,0.553,0.552h-0.769c-2.138,0-3.871,1.733-3.871,3.87v8.71 c0,0.534,0.434,0.968,0.968,0.968h12.58c0.534,0,0.968-0.434,0.968-0.968v-8.71C59.999,48.184,58.266,46.45,56.129,46.45z M52.741,41.128c1.202,0,2.177,0.975,2.177,2.177s-0.975,2.178-2.177,2.178s-2.177-0.976-2.177-2.178l0,0 C50.566,42.103,51.539,41.13,52.741,41.128z M58.063,58.063H47.419V50.32c0-1.068,0.866-1.935,1.936-1.935h6.774 c1.068,0,1.935,0.866,1.935,1.935V58.063z"></path><path style="fill:#0EB3C3;" d="M22.258,10.645h12.179l-1.251,1.251l1.368,1.369l2.903-2.903c0.378-0.378,0.378-0.99,0-1.369 L34.555,6.09l-1.368,1.368l1.251,1.251H22.258V10.645z"></path><path style="fill:#0EB3C3;" d="M20.323,34.604v4.104c0,0.534,0.434,0.968,0.968,0.968h4.105V37.74h-1.778l15.775-15.773 l-1.369-1.368L22.258,36.363v-1.76H20.323z"></path><path style="fill:#0EB3C3;" d="M39.394,47.701l-1.368,1.368l1.251,1.251h-8.309v1.936h8.309l-1.251,1.252l1.368,1.368l2.903-2.903 c0.378-0.378,0.378-0.99,0-1.368L39.394,47.701z"></path><path style="fill:#0EB3C3;" d="M3.96,8.648c-0.326,1.822,0.234,3.689,1.511,5.027c0.876,0.979,1.342,2.256,1.304,3.569v0.174 c0,1.603,1.3,2.902,2.903,2.902c1.603,0,2.903-1.3,2.903-2.902v-0.206c0.05-1.402,0.591-2.743,1.53-3.789 c2.069-2.449,1.762-6.112-0.688-8.183C10.973,3.173,7.311,3.48,5.24,5.93C4.583,6.708,4.142,7.646,3.96,8.648z M10.646,17.213 v0.206c0,0.534-0.433,0.968-0.967,0.968c-0.535,0-0.968-0.434-0.968-0.968v-0.174c0-0.269-0.017-0.532-0.042-0.794h2.025 C10.664,16.704,10.647,16.959,10.646,17.213z M9.686,5.806c0.887-0.001,1.748,0.308,2.432,0.871c1.658,1.35,1.91,3.786,0.562,5.444 c-0.015,0.021-0.03,0.039-0.048,0.059c-0.597,0.697-1.082,1.486-1.436,2.336H8.227c-0.303-0.807-0.764-1.545-1.354-2.173 c-1.476-1.547-1.417-3.996,0.13-5.471c0.511-0.486,1.144-0.825,1.832-0.978C9.114,5.835,9.399,5.806,9.686,5.806z"></path><rect x="8.71" style="fill:#0EB3C3;" width="1.935" height="1.936"></rect><rect x="16.168" y="13.265" transform="matrix(-0.5102 0.86 -0.86 -0.5102 38.1189 6.756)" style="fill:#0EB3C3;" width="1.936" height="1.935"></rect><rect x="16.736" y="5.122" transform="matrix(-0.896 0.4441 -0.4441 -0.896 36.2691 3.6817)" style="fill:#0EB3C3;" width="1.935" height="1.933"></rect><rect x="1.253" y="13.264" transform="matrix(-0.8603 0.5098 -0.5098 -0.8603 11.3858 25.3438)" style="fill:#0EB3C3;" width="1.935" height="1.936"></rect><rect x="0.686" y="5.122" transform="matrix(-0.4444 0.8958 -0.8958 -0.4444 7.842 7.314)" style="fill:#0EB3C3;" width="1.934" height="1.935"></rect></g></svg>