<svg width="39" height="61" viewBox="0 0 39 61" fill="none" xmlns="http://www.w3.org/2000/svg"><path d="M4.1723 0.523438C2.20797 0.523437 0.603516 2.11569 0.603516 4.06102V56.9844C0.603516 58.9297 2.20798 60.5234 4.1723 60.5234H34.4844C36.4487 60.5234 38.0517 58.9297 38.0517 56.9844V4.06102C38.0517 2.11569 36.4487 0.523437 34.4844 0.523438H4.1723ZM4.1723 2.05256H34.4844C35.619 2.05256 36.5071 2.93562 36.5071 4.06102V5.7096H2.14205V4.06102C2.14205 2.93562 3.03769 2.05256 4.1723 2.05256ZM14.5815 3.1307C14.4801 3.1311 14.3798 3.15126 14.2862 3.19004C14.1927 3.22883 14.1078 3.28548 14.0363 3.35675C13.9649 3.42802 13.9083 3.51253 13.8699 3.60544C13.8314 3.69835 13.8119 3.79785 13.8123 3.89825C13.8131 4.09999 13.8944 4.29324 14.0384 4.4359C14.1825 4.57855 14.3777 4.65904 14.5815 4.65982H15.3915C15.5953 4.65904 15.7905 4.57855 15.9346 4.4359C16.0787 4.29324 16.16 4.09999 16.1608 3.89825C16.1612 3.79785 16.1416 3.69835 16.1032 3.60544C16.0647 3.51253 16.0082 3.42802 15.9367 3.35675C15.8653 3.28548 15.7804 3.22883 15.6868 3.19004C15.5933 3.15126 15.4929 3.1311 15.3915 3.1307H14.5815ZM18.099 3.1307C17.9976 3.1311 17.8973 3.15126 17.8037 3.19004C17.7102 3.22883 17.6253 3.28548 17.5538 3.35675C17.4824 3.42802 17.4258 3.51253 17.3874 3.60544C17.3489 3.69835 17.3294 3.79785 17.3298 3.89825C17.3306 4.09999 17.4119 4.29324 17.556 4.4359C17.7 4.57855 17.8953 4.65904 18.099 4.65982H24.0676C24.169 4.66022 24.2695 4.64083 24.3634 4.60277C24.4572 4.56471 24.5426 4.50872 24.6146 4.438C24.6866 4.36728 24.7438 4.28322 24.783 4.19061C24.8222 4.098 24.8425 3.99865 24.8429 3.89825C24.8433 3.79734 24.8235 3.69736 24.7847 3.60406C24.7459 3.51076 24.6888 3.42599 24.6167 3.35463C24.5447 3.28328 24.459 3.22676 24.3648 3.18833C24.2705 3.14989 24.1696 3.13031 24.0676 3.1307H18.099ZM2.14205 7.23872H36.5071V53.8067H2.14205V7.23872ZM5.1271 8.62747C4.47988 8.64406 3.94907 9.17979 3.94907 9.82359C3.94907 10.4776 4.49763 11.0257 5.15877 11.0257C5.81992 11.0257 6.37301 10.4776 6.37301 9.82359C6.37301 9.16957 5.81993 8.62747 5.15877 8.62747C5.14844 8.62747 5.13738 8.62721 5.1271 8.62747ZM8.72455 8.62747C8.07716 8.64406 7.54048 9.17979 7.54048 9.82359C7.54049 10.4776 8.09356 11.0257 8.75471 11.0257C9.41586 11.0257 9.97045 10.4776 9.97046 9.82359C9.97046 9.16957 9.41587 8.62747 8.75471 8.62747C8.74438 8.62747 8.73481 8.62721 8.72455 8.62747ZM12.316 8.62747C11.6687 8.64406 11.1379 9.17979 11.1379 9.82359C11.1379 10.4776 11.6865 11.0257 12.3476 11.0257C13.0088 11.0257 13.5619 10.4776 13.5619 9.82359C13.5619 9.16958 13.0088 8.62747 12.3476 8.62747C12.3374 8.62747 12.3263 8.62721 12.316 8.62747ZM20.9091 20.2034C17.728 20.2051 15.1165 22.3413 14.0973 25.2716C13.8036 25.231 13.5104 25.1701 13.2134 25.17C9.66465 25.1698 6.77697 28.0396 6.77725 31.5583C6.778 35.0762 9.66538 37.9483 13.2134 37.948H26.4629C29.4448 37.9483 31.8772 35.5358 31.8779 32.5797C31.8779 30.3423 30.3676 28.5233 28.3091 27.7325C28.3108 27.6726 28.315 27.6119 28.3153 27.5518C28.3153 23.5097 25.0012 20.2198 20.9273 20.2093C20.9226 20.2093 20.92 20.2034 20.9153 20.2034C20.9134 20.2034 20.9112 20.2034 20.9091 20.2034ZM20.9091 21.7325C24.1551 21.7325 26.7766 24.3278 26.7766 27.5518C26.7761 27.7106 26.7664 27.8655 26.7524 28.0252C26.736 28.2088 26.787 28.392 26.8962 28.5413C27.0054 28.6906 27.1654 28.7958 27.3467 28.8375C29.1004 29.2448 30.3332 30.7901 30.3333 32.5797C30.3327 34.7115 28.6081 36.4176 26.4628 36.4174H13.2133C10.5019 36.4176 8.3223 34.2518 8.32172 31.5583C8.32151 28.8642 10.5014 26.6989 13.2133 26.6991C13.5713 26.6993 13.9304 26.7398 14.2798 26.8171C14.4792 26.8617 14.6883 26.8263 14.8613 26.7185C15.0344 26.6107 15.1572 26.4395 15.2029 26.2422C15.8176 23.5975 18.1763 21.734 20.9091 21.7325ZM2.14205 55.3358H36.5071V56.9844C36.5071 58.1098 35.619 58.9928 34.4844 58.9928H4.1723C3.03769 58.9928 2.14205 58.1098 2.14205 56.9844V55.3358ZM16.5198 56.2332C16.4178 56.2329 16.3169 56.2524 16.2226 56.2909C16.1284 56.3293 16.0427 56.3858 15.9707 56.4572C15.8986 56.5285 15.8415 56.6133 15.8027 56.7066C15.7639 56.7999 15.7441 56.8999 15.7445 57.0008C15.7447 57.1013 15.7649 57.2008 15.804 57.2936C15.8431 57.3864 15.9003 57.4706 15.9723 57.5415C16.0443 57.6124 16.1297 57.6685 16.2237 57.7067C16.3176 57.7448 16.4182 57.7642 16.5198 57.7639H22.1354C22.3395 57.7631 22.5349 57.6824 22.679 57.5394C22.8232 57.3964 22.9043 57.2028 22.9047 57.0008C22.9051 56.9004 22.8855 56.8009 22.847 56.708C22.8086 56.6151 22.752 56.5306 22.6806 56.4593C22.6092 56.388 22.5243 56.3314 22.4307 56.2926C22.3372 56.2538 22.2368 56.2336 22.1354 56.2332H16.5198Z" fill="#0CB4C4"></path></svg>