<svg width="61" height="60" viewBox="0 0 61 60" fill="none" xmlns="http://www.w3.org/2000/svg"><path d="M50.2397 0.211216C50.068 0.0744609 49.8549 0 49.6354 0C49.4158 0 49.2028 0.0744609 49.031 0.211216L39.3536 7.95311C39.2403 8.04387 39.1488 8.15893 39.0859 8.28979C39.023 8.42065 38.9903 8.56397 38.9902 8.70916V36.7735C38.9902 36.9006 39.0152 37.0265 39.0638 37.1439C39.1125 37.2613 39.1837 37.368 39.2736 37.4579C39.3635 37.5478 39.4702 37.619 39.5876 37.6677C39.705 37.7163 39.8309 37.7413 39.958 37.7413H59.3127C59.4398 37.7413 59.5657 37.7163 59.6831 37.6677C59.8005 37.619 59.9072 37.5478 59.9971 37.4579C60.0869 37.368 60.1582 37.2613 60.2069 37.1439C60.2555 37.0265 60.2805 36.9006 60.2804 36.7735V8.70916C60.2804 8.56397 60.2477 8.42065 60.1848 8.28979C60.1219 8.15894 60.0304 8.04388 59.9171 7.95311L50.2397 0.211216ZM58.345 35.8058H40.9257V9.17412L49.6353 2.20623L58.345 9.17412V35.8058Z" fill="#0CB4C4"></path><path d="M46.7314 9.67762C46.7314 10.2518 46.9017 10.8131 47.2207 11.2906C47.5397 11.768 47.9932 12.1401 48.5236 12.3598C49.0541 12.5796 49.6379 12.6371 50.201 12.5251C50.7642 12.413 51.2815 12.1365 51.6875 11.7305C52.0936 11.3245 52.3701 10.8072 52.4821 10.244C52.5941 9.68085 52.5366 9.09711 52.3169 8.56661C52.0971 8.03612 51.725 7.5827 51.2476 7.26369C50.7702 6.94468 50.2089 6.77441 49.6347 6.77441C48.8649 6.77525 48.127 7.0814 47.5827 7.62567C47.0384 8.16995 46.7323 8.9079 46.7314 9.67762ZM50.6024 9.67762C50.6024 9.86903 50.5456 10.0561 50.4393 10.2153C50.333 10.3744 50.1818 10.4985 50.005 10.5717C49.8282 10.6449 49.6336 10.6641 49.4459 10.6268C49.2581 10.5894 49.0857 10.4973 48.9504 10.3619C48.815 10.2266 48.7229 10.0541 48.6855 9.86642C48.6482 9.6787 48.6673 9.48412 48.7406 9.30729C48.8138 9.13046 48.9379 8.97932 49.097 8.87298C49.2562 8.76664 49.4433 8.70989 49.6347 8.70989C49.8912 8.71014 50.1372 8.81218 50.3187 8.99361C50.5001 9.17504 50.6021 9.42104 50.6024 9.67762Z" fill="#0CB4C4"></path><path d="M50.6024 18.4356V16.4512H48.6669V18.4356C47.8198 18.5561 47.05 18.9935 46.5128 19.6595C45.9756 20.3255 45.711 21.1704 45.7724 22.0238C45.8338 22.8773 46.2166 23.6756 46.8436 24.2578C47.4706 24.84 48.2952 25.1627 49.1508 25.1608H50.1185C50.5035 25.1608 50.8727 25.3137 51.145 25.586C51.4172 25.8582 51.5701 26.2274 51.5701 26.6124C51.5701 26.9974 51.4172 27.3666 51.145 27.6388C50.8727 27.9111 50.5035 28.064 50.1185 28.064H49.1508C48.7659 28.0636 48.3969 27.9105 48.1248 27.6384C47.8527 27.3662 47.6996 26.9973 47.6992 26.6124V26.1285H45.7637V26.6124C45.7661 27.4247 46.0608 28.209 46.5938 28.822C47.1269 29.4349 47.8628 29.8355 48.6669 29.9506V31.935H50.6024V29.9506C51.4495 29.83 52.2193 29.3926 52.7565 28.7266C53.2937 28.0607 53.5583 27.2157 53.4969 26.3623C53.4355 25.5089 53.0527 24.7105 52.4257 24.1283C51.7987 23.5461 50.9741 23.2234 50.1185 23.2253H49.1508C48.7658 23.2253 48.3966 23.0724 48.1243 22.8002C47.8521 22.5279 47.6992 22.1587 47.6992 21.7737C47.6992 21.3887 47.8521 21.0195 48.1243 20.7473C48.3966 20.4751 48.7658 20.3221 49.1508 20.3221H50.1185C50.5034 20.3225 50.8724 20.4756 51.1445 20.7477C51.4166 21.0199 51.5697 21.3889 51.5701 21.7737V22.2576H53.5056V21.7737C53.5032 20.9614 53.2085 20.1771 52.6755 19.5642C52.1424 18.9512 51.4065 18.5506 50.6024 18.4356Z" fill="#0CB4C4"></path><path d="M14.7964 46.0338V48.3873C14.2832 48.3879 13.7913 48.592 13.4284 48.9549C13.0656 49.3177 12.8615 49.8097 12.8609 50.3228V58.0647C12.8615 58.5778 13.0656 59.0698 13.4284 59.4326C13.7913 59.7955 14.2832 59.9996 14.7964 60.0002H22.5383C23.0514 59.9996 23.5434 59.7955 23.9062 59.4326C24.269 59.0698 24.4732 58.5778 24.4737 58.0647V50.3228C24.4732 49.8097 24.269 49.3177 23.9062 48.9549C23.5434 48.592 23.0514 48.3879 22.5383 48.3873V46.0338C26.9761 45.0781 30.9035 42.5145 33.5644 38.8366C36.2253 35.1587 37.4316 30.6265 36.951 26.1125C36.4705 21.5984 34.337 17.4217 30.9615 14.3865C27.5859 11.3512 23.2069 9.67188 18.6673 9.67188C14.1278 9.67187 9.74871 11.3512 6.37315 14.3865C2.99759 17.4217 0.864174 21.5984 0.383628 26.1125C-0.096918 30.6265 1.10938 35.1587 3.77028 38.8366C6.43118 42.5145 10.3586 45.0781 14.7964 46.0338ZM22.5397 58.0647H14.7964V50.3228H22.5383L22.5397 58.0647ZM20.6028 48.3873H16.7318V46.3478C18.0184 46.4865 19.3162 46.4865 20.6028 46.3478V48.3873ZM18.6673 11.6133C21.9211 11.6133 25.1019 12.5782 27.8073 14.3859C30.5127 16.1936 32.6214 18.763 33.8665 21.7691C35.1117 24.7753 35.4375 28.0831 34.8027 31.2744C34.168 34.4657 32.6011 37.3971 30.3003 39.6978C27.9995 41.9986 25.0681 43.5655 21.8769 44.2003C18.6856 44.8351 15.3777 44.5093 12.3716 43.2641C9.36547 42.0189 6.79609 39.9103 4.98837 37.2048C3.18066 34.4994 2.21579 31.3187 2.21579 28.0649C2.22066 23.7031 3.9555 19.5214 7.03971 16.4372C10.1239 13.353 14.3056 11.6182 18.6673 11.6133Z" fill="#0CB4C4"></path><path d="M18.6674 42.58C21.5384 42.58 24.345 41.7286 26.7321 40.1336C29.1193 38.5385 30.9798 36.2714 32.0785 33.619C33.1772 30.9665 33.4647 28.0478 32.9046 25.232C32.3445 22.4161 30.9619 19.8296 28.9318 17.7995C26.9017 15.7694 24.3152 14.3869 21.4994 13.8268C18.6835 13.2667 15.7648 13.5541 13.1124 14.6528C10.4599 15.7515 8.19281 17.6121 6.59776 19.9992C5.00272 22.3864 4.15137 25.1929 4.15137 28.0639C4.15565 31.9125 5.68639 35.6022 8.40775 38.3236C11.1291 41.0449 14.8188 42.5757 18.6674 42.58ZM18.6674 15.4833C21.1556 15.4833 23.588 16.2212 25.6568 17.6035C27.7257 18.9859 29.3382 20.9507 30.2904 23.2495C31.2426 25.5483 31.4917 28.0779 31.0063 30.5183C30.5208 32.9587 29.3227 35.2003 27.5632 36.9597C25.8038 38.7192 23.5622 39.9173 21.1218 40.4028C18.6814 40.8882 16.1518 40.639 13.853 39.6869C11.5542 38.7347 9.58942 37.1222 8.20705 35.0533C6.82468 32.9844 6.08684 30.5521 6.08684 28.0639C6.09062 24.7285 7.41728 21.5308 9.77578 19.1723C12.1343 16.8138 15.332 15.4871 18.6674 15.4833Z" fill="#0CB4C4"></path><path d="M15.9583 31.5476C16.0467 31.6659 16.1611 31.7623 16.2927 31.8295C16.4242 31.8967 16.5694 31.9328 16.7171 31.9351C16.8644 31.9348 17.0097 31.9022 17.1429 31.8395C17.2761 31.7767 17.3938 31.6855 17.4878 31.5722L20.5786 27.7088L22.7324 30.5799C22.8199 30.6969 22.9328 30.7926 23.0626 30.8597C23.1924 30.9268 23.3358 30.9636 23.4818 30.9674C23.6276 30.97 23.7722 30.9402 23.905 30.88C24.0378 30.8198 24.1555 30.7309 24.2497 30.6196L29.0884 24.8131L27.6018 23.5732L23.5466 28.4403L21.3772 25.5484C21.2887 25.4301 21.1743 25.3337 21.0428 25.2665C20.9112 25.1993 20.766 25.1632 20.6183 25.1609C20.471 25.1606 20.3255 25.193 20.1922 25.2557C20.0589 25.3185 19.9412 25.4101 19.8476 25.5238L16.7568 29.3872L14.603 26.5161C14.5155 26.3991 14.4027 26.3034 14.2728 26.2363C14.143 26.1692 13.9997 26.1324 13.8536 26.1287C13.7081 26.1279 13.5642 26.1586 13.4317 26.2186C13.2991 26.2786 13.1811 26.3666 13.0858 26.4765L8.24707 32.2829L9.73365 33.5228L13.7889 28.6557L15.9583 31.5476Z" fill="#0CB4C4"></path></svg>