<svg width="48" height="60" viewBox="0 0 48 60" fill="none" xmlns="http://www.w3.org/2000/svg"><path d="M20.2261 16.0667H7.17184C6.64788 16.0667 6.24413 16.4729 6.24413 17C6.24413 17.5271 6.64788 17.9333 7.17184 17.9333H20.2261C20.7499 17.9333 21.1538 17.5271 21.1538 17C21.1538 16.4989 20.7396 16.0667 20.2261 16.0667ZM7.17184 23.6H16.5815C17.17 23.6 17.5755 23.1839 17.5755 22.6C17.5755 22.0214 17.1561 21.6 16.5815 21.6H7.17184C6.53596 21.6 6.17786 22.0551 6.17786 22.6667C6.17786 23.3128 6.5948 23.6 7.17184 23.6ZM20.2261 27.4H7.17184C6.64788 27.4 6.24413 27.8062 6.24413 28.3333C6.24413 28.8605 6.64788 29.2667 7.17184 29.2667H20.2261C20.7499 29.2667 21.1538 28.8605 21.1538 28.3333C21.1538 27.8322 20.7396 27.4 20.2261 27.4ZM46.0694 36.6667C46.3345 36.7333 46.5333 36.7333 46.7984 36.6667C47.0634 36.6 47.2622 36.4667 47.3947 36.2667C47.8586 35.7333 47.8586 34.9333 47.6598 33.8667C47.461 32.8 47.2622 32.0667 46.5996 31.7333C46.4008 31.6 46.1357 31.6 45.8706 31.6C45.6056 31.6 45.4068 31.6667 45.1417 31.8C44.3465 32.2 43.2863 30.4 44.0815 29.9333C44.2803 29.8 44.4791 29.6667 44.6116 29.4C44.7441 29.2 44.8104 28.9333 44.8104 28.6667C44.8104 28 44.2803 27.3333 43.4851 26.6667C42.6899 26 42.0273 25.5333 41.2983 25.7333C41.0333 25.8 40.8345 25.9333 40.6357 26.0667V8.66667C40.6357 8.38167 40.4915 8.24327 40.3706 8L32.22 0.266667C32.0875 0.0666667 31.8887 0 31.6237 0H5.58148C2.63719 0 0.280273 2.37639 0.280273 5.33333V51.8C0.280273 54.7621 2.64236 57.1333 5.58148 57.1333H17.5092C17.3578 57.4379 17.3767 57.7345 17.3767 58.0667C17.6252 59.1918 19.6751 59.8865 20.6899 60C21.337 60 21.7597 59.5045 21.9489 58.9333C21.9489 58.8667 22.0152 58.8 22.0152 58.8C22.0152 58.8 22.0815 58.6667 22.8104 58.6667C23.1417 58.6 23.4068 58.6667 23.6718 58.8C23.6718 58.8667 23.7381 58.8667 23.7381 58.9333C23.8749 59.3462 24.106 59.6245 24.467 59.8667C24.9971 60.1333 25.6598 59.9333 26.5875 59.4667C27.5152 59 28.1116 58.6667 28.2441 58.0667C28.3104 57.7333 28.2441 57.4667 28.1116 57.1333H35.4008C38.345 57.1333 40.702 54.7569 40.702 51.8V47C41.2513 46.8618 41.6511 46.4236 41.8947 45.9333C42.01 45.4695 41.9085 44.8805 41.5634 44.5333C41.1658 43.9333 42.6237 42.6 43.22 43.1333C43.3526 43.3333 43.6176 43.4667 43.8164 43.5333C44.0152 43.6 44.2803 43.6667 44.5453 43.6667C45.208 43.6 45.7381 42.9333 46.2682 42C46.7983 41.0667 47.0634 40.3333 46.7984 39.6667C46.6658 39.4667 46.5333 39.2667 46.3345 39.0667C46.1357 38.9333 45.8706 38.8 45.6718 38.8C44.8767 38.6667 45.3405 36.4667 46.0694 36.6667ZM32.6839 3.13333L37.72 7.93333H32.6839V3.13333ZM26.3224 57.6C26.0099 57.7572 25.717 57.9277 25.3947 58.0667C25.1297 57.4667 24.467 56.8667 22.8767 56.8667C21.2863 56.8667 20.6899 57.4 20.3586 58.0667C20.0461 57.9095 19.7354 57.7751 19.4309 57.6C19.6959 57 19.7622 56.1333 18.7682 54.8667C17.7743 53.6 16.9791 53.4667 16.2502 53.6C15.984 53.3323 16.0783 52.8542 15.9188 52.5333C16.5815 52.4 17.3104 51.8667 17.6417 50.3333C17.973 48.8 17.5755 48.0667 17.0453 47.6C17.2654 47.3343 17.4649 47.0445 17.708 46.8C18.2381 47.2 19.0333 47.4667 20.4911 46.7333C21.9489 46 22.214 45.2667 22.214 44.5333C22.5674 44.5333 22.9208 44.5333 23.2742 44.5333C23.2742 45.2 23.6056 46 25.0634 46.7333C26.5212 47.4667 27.3164 47.2 27.8465 46.7333C27.9828 47.0076 28.2926 47.3155 28.5092 47.5333C27.9791 47.9333 27.5815 48.7333 27.9128 50.2667C28.2441 51.8667 28.973 52.3333 29.6357 52.4667C29.6357 52.7539 29.4985 53.2761 29.3706 53.5333C28.708 53.4 27.8465 53.5333 26.8526 54.8C25.9911 56.0667 25.9911 56.9333 26.3224 57.6ZM35.467 55.3333H30.4971C30.961 55 31.1598 54.4667 31.3586 53.4667C31.5574 52.5333 31.6237 51.8 31.2923 51.2667C30.9402 50.9124 30.6035 50.7333 30.0996 50.7333C30.0996 50.7333 29.9008 50.6 29.7682 49.8667C29.702 49.6 29.6357 49.2667 29.702 48.9333C30.1485 48.9333 30.4754 48.2208 30.5634 47.8667C30.6959 47.2667 30.3646 46.6667 29.702 45.8667C29.0393 45.0667 28.5755 44.6 27.9791 44.5333C27.4802 44.5333 27.0509 45.2 26.7863 45.2C26.353 45.3453 25.4532 44.7451 25.1959 44.4C25.1959 43.9544 25.2932 43.4979 24.9309 43.1333C24.467 42.7333 23.8044 42.6667 22.7441 42.6667C21.6839 42.6667 21.0212 42.7333 20.6236 43.2C20.2613 43.5645 20.3586 44.0211 20.3586 44.4667C20.3586 44.4667 20.2261 44.6667 19.6297 45C18.967 45.3333 18.7682 45.2667 18.7682 45.2667C18.4221 44.9185 18.0963 44.6 17.5755 44.6C16.9791 44.6 16.5152 45.0667 15.8526 45.9333C15.1899 46.8 14.8586 47.3333 14.9911 47.9333C15.1501 48.4131 15.4232 48.6507 15.8526 48.8667C15.9422 49.3178 15.8671 50.3903 15.455 50.6667C14.9874 50.6667 14.5298 50.7961 14.2622 51.2C13.5522 52.1999 14.1973 54.4429 15.0574 55.2H5.58148C3.68146 55.2 2.13569 53.6331 2.13569 51.7333V5.33333C2.13569 3.42187 3.69306 1.86667 5.58148 1.86667H30.8947V8.86667C30.8947 9.13333 30.961 9.33333 31.1598 9.53333C31.3586 9.73333 31.5574 9.8 31.8224 9.8H38.9791V26.8667C38.2502 26.6 38.3164 26.4 38.3827 26.1333C38.5028 25.6501 38.4631 25.1547 38.1839 24.7333C37.8526 24.2 36.7923 24.0667 35.9309 24.0667C34.8706 24.0667 34.0755 24.2 33.6779 24.7333C33.4066 25.1427 33.3214 25.6576 33.4791 26.1333C33.7441 26.9333 31.6899 27.5333 31.4249 26.8667C31.2986 26.3588 30.8448 26.0541 30.3646 25.9333C29.702 25.8 28.973 26.2 28.1779 26.9333C27.3827 27.6 26.8526 28.2 26.8526 28.9333C26.8526 29.4461 27.2392 29.9259 27.6477 30.2C28.3767 30.6667 27.1839 32.4667 26.5875 32.0667C26.1578 31.7785 25.594 31.8443 25.1297 32C24.5333 32.3333 24.2682 33.1333 24.0694 34.1333C23.8706 35.2 23.8706 36 24.3345 36.5333C24.712 36.9131 25.1479 37 25.6598 37C26.5212 36.9333 26.8526 38.8667 26.0574 39.1333C25.5385 39.2639 25.1689 39.5877 24.9309 40.0667C24.6658 40.7333 24.9971 41.4667 25.5273 42.4C26.0574 43.3333 26.5212 43.9333 27.2502 44.0667C27.5152 44.0667 27.7803 44.0667 27.9791 43.9333C28.1779 43.8667 28.4429 43.6667 28.5755 43.4667C29.2381 42.8 30.7622 44.1333 30.2321 44.8667C29.9469 45.2969 29.904 45.4797 30.0333 46C30.3858 47.1819 32.3079 48 33.4128 48C34.2359 48 34.8706 47.3643 34.8706 46.5333C34.9369 45.7333 36.9249 45.7333 37.0574 46.5333C37.0574 47.0047 37.3262 47.5359 37.72 47.8C38.1176 48 38.5815 48.0667 39.0453 47.9333V52.0667C39.0453 54.2401 37.4326 55.3333 35.467 55.3333ZM45.0092 40.5333C44.9429 40.6667 44.4128 41.5333 44.3465 41.6667C43.6176 41.0667 42.6237 40.6 40.9008 42.0667C39.1779 43.5333 39.5092 44.4667 39.973 45.3333C39.5755 45.5333 39.1779 45.7333 38.7803 45.8667C38.6477 44.9333 37.9851 43.8667 35.9309 43.9333C33.7441 43.9333 33.214 44.9333 33.0815 45.8667C32.949 45.8 31.955 45.4667 31.8224 45.4C32.2863 44.6 32.5514 43.4667 30.8947 42.0667C29.2381 40.6667 28.1779 41.0667 27.4489 41.7333C27.3827 41.6 26.8526 40.7333 26.7863 40.6C27.6477 40.2667 28.5755 39.6 28.1779 37.4C27.7803 35.2 26.6538 34.8667 25.7923 34.9333C25.7923 34.8 25.9911 33.8 25.9911 33.6C26.8526 33.9333 27.9791 34 29.1056 32.0667C30.2321 30.1333 29.5694 29.2 28.8405 28.6C28.973 28.4667 29.702 27.8 29.8345 27.7333C30.2983 28.5333 31.0935 29.3333 33.1477 28.5333C35.202 27.8 35.3345 26.6667 35.1357 25.7333C35.2682 25.7333 36.3285 25.7333 36.461 25.7333C36.2622 26.6667 36.461 27.7333 38.5152 28.5333C40.5694 29.3333 41.4971 28.4 41.8285 27.6667C41.961 27.7333 42.7562 28.4 42.8224 28.5333C42.0935 29.1333 41.4971 30.0667 42.5574 32C43.6176 33.9333 44.8104 33.8667 45.6718 33.5333C45.7381 33.6667 45.8706 34.6667 45.9369 34.8667C44.9429 34.8 43.949 35.2 43.5514 37.3333C43.1538 39.5333 44.0815 40.2 45.0092 40.5333ZM35.8646 31.2C33.435 31.2 31.4031 33.3017 31.3331 35.7333C31.2626 38.1873 33.4148 40.4374 35.8646 40.4273C38.3191 40.4171 40.5032 38.3945 40.5032 35.8667C40.5032 33.3276 38.3932 31.2 35.8646 31.2ZM35.8646 38.5333C34.3633 38.5333 33.1247 37.2244 33.1453 35.7333C33.1658 34.2442 34.3996 33.018 35.8646 32.9975C37.3566 32.9767 38.6477 34.231 38.6477 35.7333C38.6477 37.2917 37.4113 38.5333 35.8646 38.5333ZM22.8104 47.8C22.1477 47.8 21.4188 48 20.8887 48.4C20.2923 48.8 19.8947 49.3333 19.6297 50C19.3646 50.6667 19.2983 51.3333 19.4309 52.0667C19.5634 52.8 19.8947 53.4 20.4249 53.8667C20.8887 54.3333 21.5514 54.6667 22.214 54.8C22.8767 54.9333 23.6056 54.8667 24.2682 54.6C24.9309 54.3333 25.461 53.8667 25.8586 53.2667C26.2562 52.6667 26.455 52 26.455 51.3333C26.455 50.4 26.0574 49.5333 25.3947 48.8667C24.7321 48.2 23.7381 47.8 22.8104 47.8ZM22.8104 53.0667C22.4791 53.0667 22.1477 53 21.8827 52.8C21.6176 52.6 21.4188 52.3333 21.2863 52.0667C21.1538 51.7333 21.1538 51.4 21.22 51.0667C21.2863 50.7333 21.4188 50.4 21.6839 50.2C21.949 49.9333 22.214 49.8 22.5453 49.7333C22.8767 49.6667 23.208 49.6667 23.5393 49.8C23.8706 49.9333 24.1357 50.1333 24.3345 50.4C24.5333 50.6667 24.5996 51 24.5996 51.3333C24.5996 51.5333 24.5333 51.8 24.467 52C24.4008 52.2 24.2682 52.4 24.0694 52.5333C23.9369 52.6667 23.7381 52.8 23.5393 52.9333C23.2742 53 23.0092 53.0667 22.8104 53.0667Z" fill="#0CB4C4"></path></svg>