<svg width="62" height="62" viewBox="0 0 62 62" fill="none" xmlns="http://www.w3.org/2000/svg"><path d="M30.0075 4.34551V26.5339H15.8413V22.3147C15.8413 22.0103 15.7393 21.7489 15.5538 21.5633C15.3682 21.3777 15.1067 21.2757 14.8024 21.2757H1.93891C1.63455 21.2757 1.37312 21.3777 1.18752 21.5633C1.00193 21.7489 0.9 22.0103 0.9 22.3147V33.6764C0.9 33.9808 1.00193 34.2422 1.18752 34.4278C1.37311 34.6134 1.63454 34.7153 1.93891 34.7153H14.8024C15.1067 34.7153 15.3682 34.6134 15.5537 34.4278C15.7393 34.2422 15.8413 33.9808 15.8413 33.6764V28.612H30.0075V48.5051L15.8413 48.5055V43.8168C15.8413 43.5124 15.7393 43.251 15.5538 43.0654C15.3682 42.8798 15.1067 42.7779 14.8024 42.7779H1.93891C1.63455 42.7779 1.37312 42.8798 1.18752 43.0654C1.00193 43.251 0.9 43.5124 0.9 43.8168V55.1785C0.9 55.4829 1.00193 55.7443 1.18752 55.9299C1.37311 56.1155 1.63454 56.2174 1.93891 56.2174H14.8024C15.1067 56.2174 15.3682 56.1155 15.5537 55.9299C15.7393 55.7443 15.8413 55.4829 15.8413 55.1785V50.4898H30.0075V59.1222C30.0075 59.4266 30.1095 59.688 30.295 59.8736C30.4806 60.0592 30.7421 60.1611 31.0464 60.1611C31.3508 60.1611 31.6122 60.0592 31.7978 59.8736C31.9834 59.688 32.0853 59.4266 32.0853 59.1222V55.3724H46.2516L46.252 60.0611C46.252 60.3655 46.354 60.6269 46.5396 60.8125C46.7251 60.9981 46.9866 61.1 47.2909 61.1H60.1544C60.4588 61.1 60.7202 60.9981 60.9058 60.8125C61.0914 60.6269 61.1933 60.3655 61.1933 60.0611V48.6993C61.1933 48.395 61.0914 48.1335 60.9058 47.9479C60.7202 47.7624 60.4588 47.6604 60.1544 47.6604H47.2909C46.9866 47.6604 46.7252 47.7624 46.5396 47.9479C46.354 48.1335 46.252 48.395 46.252 48.6993V53.388H32.0858V37.813H46.252V42.5018C46.252 42.8061 46.354 43.0676 46.5396 43.2532C46.7251 43.4387 46.9866 43.5407 47.2909 43.5407H60.1555C60.4599 43.5407 60.7213 43.4387 60.9069 43.2532C61.0925 43.0676 61.1944 42.8061 61.1944 42.5018V31.0459C61.1944 30.7416 61.0925 30.4802 60.9069 30.2946C60.7213 30.109 60.4599 30.007 60.1555 30.007H47.292C46.9877 30.007 46.7263 30.109 46.5407 30.2946C46.3551 30.4801 46.2531 30.7416 46.2531 31.0459V35.7347H32.0869V20.2537H46.2531V24.9424V24.9425C46.2536 25.473 46.6797 25.8862 47.2905 25.8871L47.2905 25.8876H60.154C60.4583 25.8876 60.7198 25.7857 60.9054 25.6001C61.091 25.4145 61.1929 25.1531 61.1929 24.8487V13.4881C61.1929 13.1837 61.091 12.9223 60.9054 12.7367C60.7198 12.5511 60.4584 12.4492 60.154 12.4492L47.2905 12.4487C46.9862 12.4487 46.7247 12.5507 46.5392 12.7362C46.3536 12.9218 46.2516 13.1833 46.2516 13.4876V18.1763H32.0854V4.4337L34.8256 7.17398C35.2403 7.58867 35.8669 7.58867 36.2816 7.17398C36.6963 6.75928 36.6963 6.1327 36.2816 5.71799L31.7747 1.21102C31.36 0.796325 30.7334 0.796327 30.3187 1.21102L25.8117 5.71799C25.397 6.13269 25.397 6.75927 25.8117 7.17397L25.8824 7.10327L25.8117 7.17398C26.2264 7.58867 26.853 7.58867 27.2677 7.17399L27.2688 7.17284L30.0075 4.34551ZM48.3294 14.527H59.1153V23.8102H48.3294V14.527ZM13.7631 32.6361H2.97724V23.3529H13.7631V32.6361ZM13.7631 54.1379H2.97724V44.8542H13.7631V54.1379ZM48.3294 49.7368H59.1153V59.0205H48.3294V49.7368ZM48.3294 32.0839H59.1153V41.3671L48.3294 41.3675V32.0839Z" fill="#0CB4C4" stroke="#0CB4C4" stroke-width="0.2"></path></svg>