<svg width="61" height="60" viewBox="0 0 61 60" fill="none" xmlns="http://www.w3.org/2000/svg"><path d="M28.2864 38.2674H15.6227V36.0739C16.7916 36.7068 18.0944 37.0524 19.4233 37.0823C21.9297 37.0823 23.5878 35.6346 24.5606 34.7849L24.5755 34.772C25.1512 34.2418 25.6756 33.6586 26.1419 33.0301C26.7044 32.2111 27.4188 31.5076 28.2464 30.9579C28.3733 30.8832 28.4778 30.7756 28.5486 30.6465C28.6195 30.5174 28.6541 30.3715 28.6489 30.2243C28.6437 30.0771 28.5988 29.9341 28.519 29.8103C28.4391 29.6865 28.3274 29.5866 28.1954 29.5211C25.329 28.1018 20.5491 27.6224 17.3356 29.5289C16.6825 29.9105 16.1025 30.4053 15.6227 30.9901V22.6967C18.558 22.4851 21.2967 21.1429 23.2623 18.9528C25.2279 16.7626 26.2672 13.8952 26.1613 10.9542C26.0554 8.01327 24.8127 5.22806 22.6947 3.1849C20.5766 1.14174 17.7485 0 14.8056 0C11.8627 0 9.03463 1.14174 6.91659 3.1849C4.79855 5.22806 3.5558 8.01327 3.44993 10.9542C3.34405 13.8952 4.38331 16.7626 6.34895 18.9528C8.31458 21.1429 11.0533 22.4851 13.9885 22.6967V25.5354C13.5088 24.9507 12.9291 24.456 12.2763 24.0741C9.06087 22.169 4.28224 22.6457 1.41647 24.0651C1.28434 24.1303 1.17233 24.2301 1.09231 24.3539C1.01229 24.4777 0.967247 24.6208 0.961957 24.768C0.956666 24.9153 0.991323 25.0613 1.06226 25.1905C1.13319 25.3197 1.23775 25.4272 1.36486 25.5018C2.19237 26.0519 2.90693 26.7553 3.46999 27.574C3.9357 28.2029 4.45997 28.7861 5.03577 29.3159L5.05126 29.3289C6.02415 30.1785 7.68154 31.6262 10.188 31.6262C11.5168 31.596 12.8195 31.2504 13.9885 30.6179V38.2629H1.73066C1.53649 38.2628 1.34421 38.3011 1.16484 38.3754C0.985461 38.4497 0.822517 38.5587 0.685337 38.6962C0.548157 38.8336 0.439438 38.9967 0.365406 39.1762C0.291374 39.3557 0.253485 39.5481 0.25391 39.7422V42.5661C0.254251 42.957 0.409654 43.3318 0.686023 43.6083C0.962391 43.8848 1.33715 44.0404 1.72808 44.0409H2.1242L5.67254 59.3671C5.7141 59.547 5.81536 59.7075 5.95982 59.8224C6.10427 59.9373 6.28341 59.9999 6.46801 60H23.5465C23.7311 60 23.9104 59.9374 24.0549 59.8224C24.1995 59.7075 24.3009 59.547 24.3426 59.3671L27.8909 44.0409H28.2864C28.6773 44.0404 29.0521 43.8848 29.3284 43.6083C29.6048 43.3318 29.7602 42.957 29.7606 42.5661V39.7422C29.7602 39.3513 29.6048 38.9765 29.3284 38.7C29.0521 38.4235 28.6773 38.2679 28.2864 38.2674ZM18.1691 30.9301C20.3839 29.6134 23.7058 29.6708 26.2 30.4714C25.7159 30.9529 25.2673 31.4686 24.8574 32.0146C24.4542 32.5637 24.0007 33.0738 23.5026 33.5385L23.4884 33.5514C22.0691 34.7933 19.9401 36.6481 15.9292 34.3817C15.9964 33.6683 16.2353 32.9819 16.6253 32.3808C17.0154 31.7798 17.545 31.2821 18.1691 30.9301ZM6.12608 28.1024L6.11124 28.0895C5.61349 27.6245 5.15994 27.1144 4.75642 26.5657C4.34681 26.0197 3.89834 25.5039 3.41451 25.0225C5.90866 24.2212 9.23055 24.167 11.4454 25.4805C12.0698 25.8324 12.5998 26.3302 12.9902 26.9313C13.3806 27.5325 13.6197 28.2191 13.6873 28.9327C9.67183 31.1991 7.54735 29.3437 6.12608 28.1024ZM5.07706 11.364C5.07694 9.43974 5.64742 7.5587 6.71636 5.95871C7.78531 4.35871 9.30471 3.11164 11.0824 2.37518C12.8601 1.63873 14.8163 1.44597 16.7036 1.82129C18.5908 2.19661 20.3244 3.12314 21.6851 4.48373C23.0458 5.84431 23.9724 7.57783 24.3478 9.46507C24.7233 11.3523 24.5307 13.3085 23.7943 15.0863C23.058 16.864 21.811 18.3835 20.2111 19.4525C18.6112 20.5216 16.7302 21.0922 14.8059 21.0922C12.2268 21.0888 9.75435 20.0628 7.93059 18.2391C6.10682 16.4155 5.08065 13.9431 5.07706 11.364ZM22.8974 58.3658H7.11703L3.8016 44.0435H26.2129L22.8974 58.3658ZM28.1232 42.4067H1.88808V39.9016H28.1264L28.1232 42.4067ZM14.8027 18.7942C14.5859 18.7942 14.378 18.7081 14.2247 18.5548C14.0714 18.4015 13.9853 18.1936 13.9853 17.9768V16.8684C13.2774 16.7434 12.6333 16.3805 12.1597 15.8396C11.6861 15.2988 11.4113 14.6125 11.3808 13.8942C11.3778 13.785 11.3966 13.6763 11.4363 13.5745C11.476 13.4726 11.5357 13.3798 11.6119 13.3015C11.688 13.2231 11.7792 13.1608 11.8798 13.1183C11.9805 13.0758 12.0886 13.0539 12.1979 13.0539C12.3072 13.0539 12.4154 13.0758 12.516 13.1183C12.6167 13.1608 12.7078 13.2231 12.784 13.3015C12.8602 13.3798 12.9199 13.4726 12.9595 13.5745C12.9992 13.6763 13.0181 13.785 13.015 13.8942C13.073 14.3162 13.2908 14.6998 13.6235 14.9657C13.9562 15.2316 14.3784 15.3596 14.8027 15.3233C15.227 15.3595 15.6489 15.2314 15.9815 14.9655C16.3141 14.6995 16.5318 14.3161 16.5898 13.8942V13.6097C16.5898 12.6988 16.1737 12.4827 14.6363 12.1639C13.3402 11.8943 11.3808 11.4878 11.3808 9.11754V8.83303C11.4114 8.11482 11.6863 7.42858 12.1599 6.88777C12.6334 6.34696 13.2774 5.98399 13.9853 5.85888V4.74793C13.9822 4.6387 14.0011 4.52996 14.0408 4.42814C14.0805 4.32633 14.1402 4.2335 14.2163 4.15515C14.2925 4.0768 14.3836 4.01453 14.4843 3.972C14.585 3.92947 14.6931 3.90756 14.8024 3.90756C14.9117 3.90756 15.0198 3.92947 15.1205 3.972C15.2212 4.01453 15.3123 4.0768 15.3885 4.15515C15.4646 4.2335 15.5243 4.32633 15.564 4.42814C15.6037 4.52996 15.6226 4.6387 15.6195 4.74793V5.85888C16.3274 5.98399 16.9714 6.34696 17.4449 6.88777C17.9185 7.42858 18.1934 8.11482 18.224 8.83303C18.227 8.94226 18.2082 9.051 18.1685 9.15282C18.1288 9.25464 18.0691 9.34746 17.9929 9.42581C17.9168 9.50416 17.8256 9.56644 17.725 9.60896C17.6243 9.65149 17.5162 9.6734 17.4069 9.6734C17.2976 9.6734 17.1894 9.65149 17.0888 9.60896C16.9881 9.56644 16.897 9.50416 16.8208 9.42581C16.7446 9.34746 16.6849 9.25464 16.6453 9.15282C16.6056 9.051 16.5867 8.94226 16.5898 8.83303C16.5318 8.4112 16.3141 8.02773 15.9815 7.76181C15.6489 7.49589 15.227 7.36781 14.8027 7.40402C14.3784 7.36764 13.9562 7.49563 13.6235 7.76157C13.2908 8.02751 13.073 8.41108 13.015 8.83303V9.11754C13.015 10.0285 13.4311 10.2446 14.9685 10.5633C16.2653 10.833 18.224 11.2394 18.224 13.6097V13.8942C18.1935 14.6125 17.9187 15.2988 17.4451 15.8396C16.9715 16.3805 16.3274 16.7434 15.6195 16.8684V17.9793C15.6197 18.1955 15.5341 18.4029 15.3816 18.5562C15.2291 18.7094 15.0221 18.7959 14.8059 18.7968L14.8027 18.7942ZM30.4154 25.5915C30.3081 25.5915 30.2018 25.6126 30.1027 25.6537C30.0035 25.6948 29.9135 25.755 29.8376 25.8309C29.7618 25.9069 29.7016 25.997 29.6606 26.0961C29.6196 26.1953 29.5985 26.3016 29.5986 26.4089V34.5243C29.5986 34.7409 29.6847 34.9486 29.8379 35.1018C29.991 35.255 30.1988 35.341 30.4154 35.341H34.1831C34.3997 35.341 34.6074 35.255 34.7606 35.1018C34.9138 34.9486 34.9998 34.7409 34.9998 34.5243V26.4089C34.9999 26.3016 34.9789 26.1953 34.9379 26.0961C34.8968 25.997 34.8367 25.9069 34.7608 25.8309C34.685 25.755 34.5949 25.6948 34.4958 25.6537C34.3966 25.6126 34.2904 25.5915 34.1831 25.5915H30.4154ZM33.3657 33.7069H31.2322V27.2263H33.365L33.3657 33.7069ZM37.2275 19.5864C37.0109 19.5864 36.8032 19.6725 36.65 19.8256C36.4968 19.9788 36.4108 20.1866 36.4108 20.4032V34.5243C36.4108 34.7409 36.4968 34.9486 36.65 35.1018C36.8032 35.255 37.0109 35.341 37.2275 35.341H40.9959C41.2125 35.341 41.4202 35.255 41.5734 35.1018C41.7266 34.9486 41.8126 34.7409 41.8126 34.5243V20.4032C41.8126 20.1866 41.7266 19.9788 41.5734 19.8256C41.4202 19.6725 41.2125 19.5864 40.9959 19.5864H37.2275ZM40.1778 33.7069H38.0443V21.2206H40.1772L40.1778 33.7069ZM44.0397 23.1909C43.9324 23.1909 43.8261 23.212 43.727 23.2531C43.6279 23.2942 43.5378 23.3544 43.4619 23.4303C43.3861 23.5062 43.3259 23.5964 43.2849 23.6955C43.2439 23.7947 43.2229 23.901 43.2229 24.0083V34.5243C43.2229 34.6315 43.2441 34.7377 43.2851 34.8368C43.3262 34.9359 43.3863 35.026 43.4622 35.1018C43.538 35.1776 43.628 35.2378 43.7271 35.2788C43.8262 35.3199 43.9324 35.341 44.0397 35.341H47.8074C47.9146 35.341 48.0209 35.3199 48.1199 35.2788C48.219 35.2378 48.3091 35.1776 48.3849 35.1018C48.4608 35.026 48.5209 34.9359 48.562 34.8368C48.603 34.7377 48.6241 34.6315 48.6241 34.5243V24.0083C48.6242 23.901 48.6032 23.7947 48.5622 23.6955C48.5212 23.5964 48.461 23.5062 48.3851 23.4303C48.3093 23.3544 48.2192 23.2942 48.1201 23.2531C48.021 23.212 47.9147 23.1909 47.8074 23.1909H44.0397ZM46.99 33.7069H44.8565V24.827H46.9893L46.99 33.7069ZM50.8512 17.891C50.7437 17.891 50.6373 17.9122 50.5381 17.9534C50.4388 17.9946 50.3486 18.055 50.2728 18.1311C50.1969 18.2072 50.1368 18.2976 50.0959 18.3969C50.055 18.4963 50.0341 18.6028 50.0344 18.7103V34.5243C50.0344 34.6315 50.0556 34.7377 50.0966 34.8368C50.1377 34.9359 50.1978 35.026 50.2737 35.1018C50.3495 35.1776 50.4396 35.2378 50.5386 35.2788C50.6377 35.3199 50.7439 35.341 50.8512 35.341H54.6189C54.8355 35.341 55.0433 35.255 55.1964 35.1018C55.3496 34.9486 55.4357 34.7409 55.4357 34.5243V18.7103C55.4357 18.603 55.4147 18.4967 55.3737 18.3975C55.3327 18.2984 55.2725 18.2083 55.1967 18.1323C55.1208 18.0564 55.0307 17.9962 54.9316 17.9551C54.8325 17.914 54.7262 17.8929 54.6189 17.8929L50.8512 17.891ZM53.8015 33.7069H51.6686V19.5251H53.8015V33.7069ZM28.0483 24.3947C27.9772 24.3144 27.9225 24.2208 27.8875 24.1194C27.8525 24.0179 27.8379 23.9105 27.8444 23.8034C27.8509 23.6963 27.8785 23.5915 27.9256 23.495C27.9726 23.3985 28.0382 23.3123 28.1187 23.2412L38.5701 13.9962C38.7177 13.8656 38.9075 13.7927 39.1045 13.7911C39.3016 13.7894 39.4926 13.859 39.6423 13.9871L45.81 19.2561L52.2989 11.6949L51.5931 11.7762C51.4854 11.7907 51.3759 11.7835 51.2711 11.7551C51.1662 11.7268 51.068 11.6778 50.9822 11.6111C50.8965 11.5443 50.8249 11.4611 50.7717 11.3664C50.7185 11.2717 50.6847 11.1673 50.6723 11.0593C50.6599 10.9514 50.6692 10.842 50.6995 10.7377C50.7299 10.6334 50.7807 10.5361 50.8491 10.4517C50.9175 10.3672 51.002 10.2973 51.0978 10.2459C51.1935 10.1945 51.2985 10.1627 51.4067 10.1524L54.2795 9.82205C54.3962 9.80864 54.5145 9.82053 54.6261 9.85693C54.7378 9.89332 54.8404 9.95336 54.9267 10.033C55.0131 10.1125 55.0814 10.2098 55.1268 10.3182C55.1722 10.4265 55.1937 10.5433 55.1899 10.6607L55.095 13.551C55.088 13.7629 54.999 13.9637 54.8467 14.1111C54.6944 14.2586 54.4909 14.3411 54.2789 14.3413H54.2512C54.0346 14.3341 53.8297 14.2411 53.6816 14.0829C53.5335 13.9247 53.4544 13.7141 53.4615 13.4975L53.4834 12.8233L46.5158 20.9393C46.3748 21.1035 46.1745 21.205 45.9587 21.2217C45.743 21.2384 45.5294 21.1689 45.3648 21.0283L39.1204 15.691L29.2012 24.4651C29.039 24.6086 28.8264 24.6818 28.6102 24.6686C28.394 24.6555 28.1919 24.5569 28.0483 24.3947ZM60.0607 37.0165C60.0608 37.1238 60.0398 37.2301 59.9988 37.3292C59.9578 37.4284 59.8976 37.5185 59.8218 37.5944C59.7459 37.6703 59.6558 37.7306 59.5567 37.7717C59.4576 37.8127 59.3513 37.8339 59.244 37.8339H24.0348C23.8221 37.8279 23.6201 37.7392 23.4717 37.5866C23.3234 37.434 23.2404 37.2296 23.2404 37.0168C23.2404 36.804 23.3234 36.5996 23.4717 36.447C23.6201 36.2944 23.8221 36.2057 24.0348 36.1997H59.244C59.4606 36.1997 59.6684 36.2858 59.8215 36.4389C59.9747 36.5921 60.0607 36.7999 60.0607 37.0165Z" fill="#0CB4C4"></path></svg>