<svg xmlns="http://www.w3.org/2000/svg" xmlns:xlink="http://www.w3.org/1999/xlink" version="1.1" id="Layer_1" x="0px" y="0px" width="60px" height="60px" viewBox="0 0 60 60" style="enable-background:new 0 0 60 60;" xml:space="preserve"><g><path style="fill:#0CB4C4;" d="M13.019,46.7l-1.651,1.65H0.165v11.604h11.604v-9.271l2.618-2.617L13.019,46.7z M9.834,58.021H2.098 v-7.736h7.336l-3.468,3.468l-1.25-1.25l-1.367,1.367l2.617,2.618l3.868-3.868V58.021z"></path><path style="fill:#0CB4C4;" d="M30.08,28.993l-0.537,0.357c-2.514,1.677-5.294,2.77-8.26,3.256l-0.812,0.131v9.229 c0,6.114,3.654,11.539,9.31,13.817l0.361,0.146l0.361-0.146c5.655-2.278,9.309-7.702,9.309-13.817v-9.229L39,32.604 c-2.965-0.483-5.746-1.578-8.322-3.296L30.08,28.993z M37.877,41.967c0,5.19-3.021,9.809-7.735,11.871 c-4.713-2.063-7.736-6.681-7.736-11.871v-7.601c2.733-0.546,5.315-1.578,7.734-3.1c2.387,1.511,4.983,2.55,7.737,3.1V41.967z"></path><path style="fill:#0CB4C4;" d="M32.887,26.132l-0.438-0.292c-1.369-0.913-3.245-0.913-4.615,0l-0.437,0.292 c-2.825,1.884-6.113,2.879-9.508,2.879h-1.286v12.956c0,8.295,5.325,15.505,13.253,17.945L30.142,60l0.284-0.088 c7.927-2.438,13.253-9.65,13.253-17.945V29.011h-1.287C38.998,29.011,35.711,28.016,32.887,26.132z M41.746,41.967 c0,7.341-4.652,13.734-11.604,16.006c-6.953-2.271-11.604-8.665-11.604-16.006V30.933c3.547-0.119,6.969-1.217,9.932-3.191 l0.436-0.292c0.735-0.488,1.738-0.488,2.47,0l0.438,0.292c2.965,1.975,6.385,3.072,9.932,3.191v11.034H41.746z"></path><path style="fill:#0CB4C4;" d="M11.768,32.878H0.165v11.604h11.604V32.878z M9.834,42.549H2.098v-7.736h7.736V42.549z"></path><path style="fill:#0CB4C4;" d="M45.613,59.955h11.605V48.351H45.613V59.955z M47.547,50.284h7.736v7.736h-7.736V50.284z"></path><path style="fill:#0CB4C4;" d="M27.241,36.633c0,0.116,0.008,0.232,0.029,0.394l0.825,4.684c0.129,1.03,1.009,1.806,2.047,1.806 c1.038,0,1.917-0.775,2.04-1.759l0.84-4.776c0.014-0.115,0.021-0.231,0.021-0.348c0-1.537-1.25-2.787-2.788-2.787h-0.227 C28.491,33.846,27.241,35.096,27.241,36.633z M31.109,36.633c0,0.046-0.004,0.063,0,0.059l-0.841,4.778 c-0.016,0.128-0.232,0.175-0.263-0.047l-0.825-4.686c-0.003-0.034-0.006-0.069-0.006-0.104c0-0.471,0.383-0.854,0.854-0.854h0.227 C30.726,35.779,31.109,36.162,31.109,36.633z"></path><path style="fill:#0CB4C4;" d="M30.142,45.449c-1.6,0-2.901,1.302-2.901,2.901c0,1.599,1.302,2.901,2.901,2.901 c1.598,0,2.901-1.303,2.901-2.901C33.043,46.751,31.74,45.449,30.142,45.449z M30.142,49.317c-0.533,0-0.968-0.435-0.968-0.967 s0.435-0.967,0.968-0.967c0.532,0,0.967,0.435,0.967,0.967S30.674,49.317,30.142,49.317z"></path><path style="fill:#0CB4C4;" d="M59.836,32.595l-1.367-1.367l-1.65,1.65H45.613v11.604h11.605v-9.27L59.836,32.595z M55.283,42.549 h-7.736v-7.736h7.336l-3.467,3.468l-1.25-1.251l-1.367,1.368l2.617,2.617l3.867-3.868V42.549z"></path><path style="fill:#0CB4C4;" d="M13.655,12.415l1.633,1.036c0.323-0.51,0.682-1.01,1.063-1.484l-1.51-1.211 C14.417,11.287,14.017,11.846,13.655,12.415z"></path><path style="fill:#0CB4C4;" d="M17.727,7.88c-0.529,0.423-1.04,0.879-1.522,1.359l1.366,1.369c0.431-0.431,0.889-0.84,1.362-1.217 L17.727,7.88z"></path><path style="fill:#0CB4C4;" d="M11.866,16.076l1.821,0.65c0.203-0.569,0.441-1.135,0.708-1.68l-1.737-0.852 C12.359,14.808,12.093,15.439,11.866,16.076z"></path><path style="fill:#0CB4C4;" d="M53.35,22.241C53.35,9.978,43.373,0,31.109,0h-1.935C16.911,0,6.933,9.978,6.933,22.241v0.967H53.35 V22.241z M30.147,2.072c1.593,0.979,7.449,5.521,7.716,19.202H22.42C22.69,7.677,28.56,3.069,30.147,2.072z M27.064,2.047 c-2.665,2.579-6.371,8.152-6.577,19.228H8.89C9.364,11.229,17.171,3.075,27.064,2.047z M39.797,21.274 C39.59,10.199,35.885,4.626,33.219,2.047c9.893,1.028,17.701,9.182,18.174,19.228H39.797z"></path><path style="fill:#0CB4C4;" d="M46.596,16.727l1.822-0.65c-0.229-0.637-0.494-1.269-0.793-1.881l-1.736,0.852 C46.154,15.592,46.393,16.157,46.596,16.727z"></path><path style="fill:#0CB4C4;" d="M44.994,13.452l1.633-1.036c-0.361-0.57-0.762-1.128-1.188-1.659l-1.508,1.211 C44.314,12.442,44.67,12.941,44.994,13.452z"></path><path style="fill:#0CB4C4;" d="M42.557,7.88L41.35,9.392c0.475,0.377,0.932,0.786,1.363,1.217l1.365-1.369 C43.598,8.759,43.086,8.3,42.557,7.88z"></path><rect x="29.174" y="7.736" style="fill:#0CB4C4;" width="1.935" height="1.934"></rect><rect x="29.174" y="15.473" style="fill:#0CB4C4;" width="1.935" height="1.934"></rect><rect x="29.174" y="11.604" style="fill:#0CB4C4;" width="1.935" height="1.934"></rect></g></svg>