<svg xmlns="http://www.w3.org/2000/svg" xmlns:xlink="http://www.w3.org/1999/xlink" version="1.1" id="Layer_1" x="0px" y="0px" width="41.09px" height="60px" viewBox="0 0 41.09 60" style="enable-background:new 0 0 41.09 60;" xml:space="preserve"><g><path style="fill:#0CB4C4;" d="M41.089,55V5c0-2.757-2.243-5-5-5H5.001c-2.758,0-5,2.243-5,5v50c0,2.757,2.242,5,5,5h31.088 C38.846,60,41.089,57.757,41.089,55z M2.501,11.172h36.087v37.655H2.501V11.172z M5.001,2.501h31.088 c1.378,0,2.499,1.121,2.499,2.499v3.672H2.501V5C2.501,3.622,3.623,2.501,5.001,2.501z M2.501,55v-3.672h36.087V55 c0,1.378-1.121,2.499-2.499,2.499H5.001C3.623,57.499,2.501,56.378,2.501,55z"></path><path style="fill:#0CB4C4;" d="M22.408,53.164h-3.726c-0.689,0-1.25,0.559-1.25,1.25c0,0.69,0.561,1.249,1.25,1.249h3.726 c0.689,0,1.25-0.559,1.25-1.249C23.658,53.723,23.098,53.164,22.408,53.164z"></path><path style="fill:#0CB4C4;" d="M36.462,27.229c-1.59-7.09-7.528-12.151-14.671-12.684v-0.345c0-0.689-0.561-1.25-1.25-1.25 c-0.691,0-1.249,0.561-1.249,1.25v0.347C12.24,15.099,6.181,20.259,4.627,27.23c-0.461,2.066,0.479,4.158,2.341,5.202 c1.471,0.823,3.15,0.793,4.522-0.034c1.826,1.198,4.215,1.201,6.039,0.011c0.547,0.355,1.145,0.591,1.762,0.731v10.485 c0,0.508-0.411,0.922-0.913,0.922c-0.307,0-0.521-0.149-0.659-0.287c-0.161-0.157-0.253-0.389-0.253-0.635 c0-0.689-0.561-1.25-1.251-1.25s-1.25,0.561-1.25,1.25c0,0.917,0.367,1.801,0.998,2.414c0.649,0.649,1.507,1.009,2.415,1.009 c1.882,0,3.413-1.535,3.413-3.423V33.144c0.619-0.143,1.221-0.379,1.77-0.734c0.91,0.594,1.96,0.892,3.01,0.892 c1.056,0,2.111-0.301,3.027-0.899c1.365,0.824,3.05,0.854,4.525,0.031C35.984,31.389,36.925,29.297,36.462,27.229z M18.826,30.26 c0.317-7.038,1.128-10.993,1.718-12.6c0.591,1.604,1.405,5.559,1.722,12.6C21.234,30.972,19.857,30.972,18.826,30.26z M8.192,30.252c-0.688-0.387-1.395-1.267-1.123-2.477c0.906-4.072,3.636-7.406,7.199-9.244c-1.885,2.756-3.293,6.775-3.949,11.64 C9.404,30.821,8.474,30.409,8.192,30.252z M12.828,30.28c0.787-5.569,2.658-9.995,4.929-12.042 c-0.624,2.291-1.168,5.989-1.43,11.948C15.299,30.961,13.888,30.998,12.828,30.28z M24.765,30.187 c-0.263-5.956-0.807-9.653-1.43-11.945c2.271,2.048,4.142,6.474,4.929,12.039C27.203,30.998,25.792,30.961,24.765,30.187z M32.899,30.252c-0.281,0.157-1.212,0.572-2.126-0.078c-0.662-4.901-2.089-8.947-3.996-11.703c3.595,1.805,6.311,5.138,7.245,9.305 C34.294,28.985,33.587,29.865,32.899,30.252z"></path></g></svg>