<svg xmlns="http://www.w3.org/2000/svg" xmlns:xlink="http://www.w3.org/1999/xlink" version="1.1" id="Layer_1" x="0px" y="0px" width="64.4px" height="60px" viewBox="0 0 64.4 60" style="enable-background:new 0 0 64.4 60;" xml:space="preserve"><g transform="translate(0,-1020.3622)"><path style="fill:#0CB4C4;" d="M10.756,1020.362v34.297H0.046v1.072v16.031h10.71v8.6h42.876v-29.973h10.723v-15.021H53.632 v-15.006H10.756z M12.899,1022.506h38.589v6.431c-0.001,0-0.003,0-0.004,0H12.899V1022.506z M16.04,1024.65 c-0.563,0.04-0.998,0.508-0.997,1.071c0,0.592,0.48,1.072,1.072,1.072s1.072-0.48,1.072-1.072s-0.48-1.071-1.072-1.071 C16.09,1024.648,16.064,1024.648,16.04,1024.65z M20.327,1024.65c-0.563,0.04-0.998,0.508-0.997,1.071 c0,0.592,0.48,1.072,1.072,1.072s1.072-0.48,1.072-1.072s-0.48-1.071-1.072-1.071C20.377,1024.648,20.352,1024.648,20.327,1024.65z M24.614,1024.65c-0.563,0.04-0.998,0.508-0.997,1.071c0,0.592,0.48,1.072,1.072,1.072c0.592,0,1.072-0.48,1.072-1.072 s-0.48-1.071-1.072-1.071C24.664,1024.648,24.639,1024.648,24.614,1024.65z M12.899,1031.08h38.585c0.001,0,0.003,0,0.004,0v4.287 H36.479v1.071v13.95h15.009v27.829H12.899v-6.455h15.005v-17.104H12.899V1031.08z M17.187,1035.368v2.144h17.148v-2.144H17.187z M38.623,1037.511h23.588v10.734H38.623V1037.511z M59.334,1039.529l-3.529,3.529l-1.386-1.386l-1.516,1.516l2.901,2.901 l5.045-5.045L59.334,1039.529z M40.8,1039.655v2.144h10.685v-2.144H40.8z M17.187,1041.798v2.144h17.148v-2.144H17.187z M40.8,1043.942v2.144h10.685v-2.144H40.8z M17.187,1048.229v2.144h17.148v-2.144H17.187z M30.048,1054.659v2.145h17.149v-2.145 H30.048z M2.19,1056.804h23.571v12.814H2.19V1056.804z M8.608,1058.946v2.145h15.005v-2.145H8.608z M5.393,1058.964 c-0.592,0-1.072,0.48-1.072,1.072s0.48,1.072,1.072,1.072s1.072-0.48,1.072-1.072S5.984,1058.964,5.393,1058.964z M30.048,1061.091 v2.143h17.149v-2.143H30.048z M5.317,1065.378c-0.563,0.041-0.998,0.508-0.997,1.072c0,0.592,0.48,1.072,1.072,1.072 s1.072-0.48,1.072-1.072s-0.48-1.072-1.072-1.072C5.368,1065.376,5.342,1065.376,5.317,1065.378z M8.608,1065.407v2.145h15.005 v-2.145H8.608z M30.048,1067.522v2.143h17.149v-2.143H30.048z"></path></g></svg>