<svg width="64" height="60" viewBox="0 0 64 60" fill="none" xmlns="http://www.w3.org/2000/svg"><path fill-rule="evenodd" clip-rule="evenodd" d="M34.3559 41.7594C33.9961 41.5931 33.6025 41.4858 33.1879 41.4458C28.9958 41.0501 20.2284 40.2231 16.7665 39.8969C15.7669 39.8022 14.7631 39.7538 13.7592 39.7559C11.2401 39.758 6.06306 39.7622 3.15464 39.7643C1.41212 39.7664 0 41.1785 0 42.921V50.7098C0 52.2861 1.16379 53.6203 2.72533 53.8371C3.98171 54.0097 5.65479 54.2411 6.95747 54.4221C8.24963 54.601 9.52286 54.9041 10.7561 55.3271C13.412 56.2404 18.2818 57.9114 22.213 59.2625C26.3315 60.6767 30.8772 60.0348 34.4422 57.5347C39.5793 53.936 47.1639 48.6221 50.8784 46.0168C52.5788 44.8256 52.9913 42.4833 51.8001 40.7829L51.798 40.7808C51.2256 39.9642 50.3522 39.4086 49.3715 39.2361C48.3887 39.0614 47.3786 39.2866 46.562 39.859L45.0889 40.8923C45.0047 40.3178 44.7879 39.7664 44.4491 39.2824L44.4449 39.2782C43.8746 38.4616 43.0012 37.906 42.0184 37.7335C41.0377 37.5609 40.0276 37.7861 39.211 38.3564L34.3559 41.7594ZM25.1445 49.1798H19.5613C18.9805 49.1798 18.5091 48.7084 18.5091 48.1276C18.5091 47.5467 18.9805 47.0753 19.5613 47.0753H32.2956C32.8386 47.0753 33.3584 46.8586 33.7414 46.4755C34.1244 46.0925 34.3412 45.5727 34.3412 45.0298V45.0255C34.3412 44.2553 33.7562 43.6134 32.9901 43.5419C28.798 43.1462 20.0306 42.3171 16.5687 41.9909C15.6364 41.9025 14.6978 41.8583 13.7613 41.8604L3.15675 41.8688C2.57591 41.8688 2.1045 42.3402 2.1045 42.921V50.7098C2.1045 51.2359 2.49173 51.68 3.01364 51.7515L7.24579 52.3366C8.67264 52.5344 10.0784 52.869 11.4401 53.3362C14.0959 54.2496 18.9657 55.9205 22.8948 57.2716C26.3778 58.467 30.2206 57.924 33.2363 55.8111L49.6704 44.2932C50.4196 43.7692 50.6006 42.738 50.0765 41.9909L50.0744 41.9867C49.8219 41.6289 49.4389 41.3848 49.0075 41.3069C48.5739 41.2311 48.1299 41.33 47.77 41.5826L34.9178 50.5898C32.5692 52.2356 29.4419 52.2271 27.1038 50.5688L25.1445 49.1798ZM33.512 48.9967C32.0957 49.8869 30.3195 49.948 28.8548 49.1798H32.2956C32.7123 49.1798 33.1206 49.1167 33.512 48.9967ZM42.3425 42.8158C42.7024 42.5633 42.9233 42.1571 42.9991 41.7257C43.0749 41.2922 42.976 40.8481 42.7255 40.4904L42.7213 40.4861C42.4709 40.1263 42.0858 39.8822 41.6543 39.8064C41.2229 39.7306 40.7789 39.8295 40.419 40.08L35.9532 43.2094C36.2668 43.7439 36.4457 44.3647 36.4457 45.0255V45.0298C36.4457 45.9431 36.1448 46.8249 35.5955 47.5446L42.3425 42.8158Z" fill="#0CB4C4"></path><path fill-rule="evenodd" clip-rule="evenodd" d="M12.8998 16.9268H9.53312C8.95293 16.9268 8.48047 17.3981 8.48047 17.9789C8.48047 18.5596 8.95293 19.0309 9.53312 19.0309H12.8998C13.48 19.0309 13.9525 18.5596 13.9525 17.9789C13.9525 17.3981 13.48 16.9268 12.8998 16.9268Z" fill="#0CB4C4"></path><path fill-rule="evenodd" clip-rule="evenodd" d="M16.2833 6.98605L13.3677 5.3027C12.8652 5.0126 12.2204 5.18456 11.93 5.68751C11.6396 6.19046 11.8131 6.83488 12.3156 7.12498L15.2312 8.80833C15.7337 9.09843 16.3785 8.92647 16.6689 8.42352C16.9593 7.92057 16.7858 7.27615 16.2833 6.98605Z" fill="#0CB4C4"></path><path fill-rule="evenodd" clip-rule="evenodd" d="M14.9396 27.2249L12.0239 28.9082C11.5215 29.1983 11.348 29.8428 11.6384 30.3457C11.9287 30.8487 12.5736 31.0206 13.076 30.7305L15.9917 29.0472C16.4941 28.7571 16.6676 28.1126 16.3773 27.6097C16.0869 27.1067 15.4421 26.9348 14.9396 27.2249Z" fill="#0CB4C4"></path><path fill-rule="evenodd" clip-rule="evenodd" d="M58.7154 19.0309H62.0821C62.6623 19.0309 63.1348 18.5596 63.1348 17.9789C63.1348 17.3981 62.6623 16.9268 62.0821 16.9268H58.7154C58.1352 16.9268 57.6628 17.3981 57.6628 17.9789C57.6628 18.5596 58.1352 19.0309 58.7154 19.0309Z" fill="#0CB4C4"></path><path fill-rule="evenodd" clip-rule="evenodd" d="M56.385 8.80833L59.3006 7.12498C59.8031 6.83488 59.9766 6.19046 59.6862 5.68751C59.3958 5.18456 58.751 5.0126 58.2485 5.3027L55.3329 6.98605C54.8304 7.27615 54.6569 7.92057 54.9473 8.42352C55.2377 8.92647 55.8825 9.09843 56.385 8.80833Z" fill="#0CB4C4"></path><path fill-rule="evenodd" clip-rule="evenodd" d="M55.6236 29.0472L58.5392 30.7305C59.0417 31.0206 59.6865 30.8487 59.9769 30.3457C60.2673 29.8428 60.0938 29.1983 59.5913 28.9082L56.6756 27.2249C56.1732 26.9348 55.5284 27.1067 55.238 27.6097C54.9476 28.1126 55.1211 28.7571 55.6236 29.0472Z" fill="#0CB4C4"></path><path fill-rule="evenodd" clip-rule="evenodd" d="M39.3944 3.0194C39.3242 1.37157 37.9962 0.0533119 36.346 0L35.27 0.00969699C33.6271 0.0654321 32.3015 1.37642 32.2313 3.0194C32.1876 3.91116 32.1392 4.94347 32.1101 5.63168C31.262 5.8837 30.4429 6.22295 29.665 6.6446L27.7385 4.87562C26.5245 3.76091 24.6537 3.76818 23.4469 4.89742L22.6957 5.66318C21.5713 6.86512 21.5616 8.72861 22.6739 9.94267C23.2725 10.6042 23.9703 11.3675 24.4356 11.874C24.014 12.6519 23.6747 13.4709 23.4227 14.3191L20.8104 14.4306C19.1626 14.5008 17.8443 15.8288 17.791 17.479L17.8007 18.555C17.8564 20.1979 19.1674 21.5235 20.8104 21.5937C21.7022 21.6374 22.7345 21.6858 23.4227 21.7149C23.6747 22.563 24.014 23.3821 24.4356 24.16L22.6666 26.0865C21.5519 27.3005 21.5592 29.1713 22.6884 30.3781L23.4542 31.1293C24.6561 32.2537 26.5196 32.2634 27.7337 31.1511C28.3952 30.5525 29.1586 29.8547 29.665 29.3894C30.4429 29.811 31.262 30.1503 32.1101 30.4023L32.2216 33.0146C32.2918 34.6624 33.6198 35.9807 35.27 36.034L36.346 36.0243C37.9889 35.9686 39.3145 34.6576 39.3848 33.0146C39.4284 32.1228 39.4768 31.0905 39.5059 30.4023C40.3541 30.1503 41.1731 29.811 41.951 29.3894L43.8775 31.1584C45.0915 32.2731 46.9623 32.2658 48.1691 31.1366L48.9203 30.3708C50.0447 29.1689 50.0544 27.3054 48.9421 26.0913C48.3436 25.4298 47.6457 24.6664 47.1804 24.16C47.6021 23.3821 47.9413 22.563 48.1933 21.7149L50.8056 21.6034C52.4534 21.5332 53.7717 20.2052 53.825 18.555L53.8153 17.479C53.7596 15.8361 52.4486 14.5105 50.8056 14.4402C49.9138 14.3966 48.8815 14.3482 48.1933 14.3191C47.9413 13.4709 47.6021 12.6519 47.1804 11.874L48.9494 9.94751C50.0641 8.73345 50.0568 6.86269 48.9276 5.6559L48.1618 4.9047C46.9599 3.7803 45.0964 3.77061 43.8823 4.88289C43.2208 5.48144 42.4575 6.17933 41.951 6.6446C41.1731 6.22295 40.3541 5.8837 39.5059 5.63168L39.3944 3.0194ZM37.291 3.10905L37.4389 6.49436C37.4583 6.96689 37.7902 7.36916 38.2507 7.47579C39.4138 7.74477 40.5237 8.20276 41.5342 8.83523C41.9364 9.08483 42.455 9.03636 42.8016 8.71649C42.8016 8.71649 44.1877 7.4467 45.2999 6.43862L45.3048 6.43378C45.7071 6.06544 46.325 6.06786 46.7224 6.44105C46.9502 6.65672 47.1731 6.87723 47.3961 7.10017C47.7668 7.50728 47.7668 8.12279 47.3985 8.52506L45.1085 11.0234C44.7886 11.37 44.7402 11.8886 44.9898 12.2908C45.6222 13.3013 46.0802 14.4112 46.3492 15.5743C46.4558 16.0348 46.8581 16.3667 47.3306 16.3861C47.3306 16.3861 49.2087 16.4685 50.7087 16.5412H50.7135C51.2588 16.5655 51.6925 17.0041 51.7119 17.5493C51.7216 17.8619 51.7216 18.1769 51.7216 18.4895C51.6974 19.042 51.2612 19.4782 50.7159 19.5L47.3306 19.6479C46.8581 19.6672 46.4558 19.9992 46.3492 20.4596C46.0802 21.6228 45.6222 22.7327 44.9898 23.7432C44.7402 24.1454 44.7886 24.664 45.1085 25.0105C45.1085 25.0105 46.3783 26.3966 47.3864 27.5089L47.3912 27.5138C47.7596 27.916 47.7571 28.534 47.384 28.9314C47.1683 29.1592 46.9478 29.3821 46.7248 29.6051C46.3177 29.9758 45.7022 29.9758 45.2999 29.6075L42.8016 27.3175C42.455 26.9976 41.9364 26.9492 41.5342 27.1988C40.5237 27.8312 39.4138 28.2892 38.2507 28.5582C37.7902 28.6648 37.4583 29.0671 37.4389 29.5396C37.4389 29.5396 37.3565 31.4177 37.2838 32.9177V32.9225C37.2595 33.4677 36.8209 33.9015 36.2757 33.9209C35.9631 33.9306 35.6481 33.9306 35.3355 33.9306C34.783 33.9064 34.3468 33.4702 34.325 32.9249L34.1771 29.5396C34.1578 29.0671 33.8258 28.6648 33.3654 28.5582C32.2022 28.2892 31.0923 27.8312 30.0818 27.1988C29.6796 26.9492 29.161 26.9976 28.8145 27.3175C28.8145 27.3175 27.4284 28.5873 26.3161 29.5954L26.3112 29.6002C25.909 29.9685 25.291 29.9661 24.8936 29.5929C24.6658 29.3773 24.4429 29.1568 24.2199 28.9338C23.8492 28.5267 23.8492 27.9112 24.2175 27.5089L26.5075 25.0105C26.8274 24.664 26.8758 24.1454 26.6262 23.7432C25.9938 22.7327 25.5358 21.6228 25.2668 20.4596C25.1602 19.9992 24.7579 19.6672 24.2854 19.6479C24.2854 19.6479 22.4073 19.5655 20.9073 19.4928H20.9025C20.3573 19.4685 19.9235 19.0299 19.9041 18.4847C19.8944 18.1721 19.8944 17.8571 19.8944 17.5445C19.9186 16.992 20.3548 16.5558 20.9001 16.534L24.2854 16.3861C24.7579 16.3667 25.1602 16.0348 25.2668 15.5743C25.5358 14.4112 25.9938 13.3013 26.6262 12.2908C26.8758 11.8886 26.8274 11.37 26.5075 11.0234C26.5075 11.0234 25.2377 9.63734 24.2296 8.52506L24.2248 8.52021C23.8565 8.11795 23.8589 7.50001 24.2321 7.10259C24.4477 6.87481 24.6682 6.65187 24.8912 6.42893C25.2983 6.05817 25.9138 6.05817 26.3161 6.4265L28.8145 8.71649C29.161 9.03636 29.6796 9.08483 30.0818 8.83523C31.0923 8.20276 32.2022 7.74477 33.3654 7.47579C33.8258 7.36916 34.1578 6.96689 34.1771 6.49436C34.1771 6.49436 34.2595 4.61633 34.3322 3.11633V3.11148C34.3565 2.56624 34.7951 2.13248 35.3403 2.11309C35.6529 2.1034 35.9679 2.1034 36.2805 2.1034C36.833 2.12763 37.2692 2.56382 37.291 3.10905ZM35.808 11.0283C31.9502 11.0283 28.8193 14.1592 28.8193 18.017C28.8193 21.8748 31.9502 25.0057 35.808 25.0057C39.6658 25.0057 42.7967 21.8748 42.7967 18.017C42.7967 14.1592 39.6658 11.0283 35.808 11.0283ZM35.808 13.1317C38.5051 13.1317 40.6933 15.3199 40.6933 18.017C40.6933 20.7141 38.5051 22.9023 35.808 22.9023C33.1109 22.9023 30.9227 20.7141 30.9227 18.017C30.9227 15.3199 33.1109 13.1317 35.808 13.1317Z" fill="#0CB4C4"></path></svg>