<svg width="60" height="60" viewBox="0 0 60 60" fill="none" xmlns="http://www.w3.org/2000/svg">
<path d="M34.4904 31.875H0.932173C0.417381 31.875 0 31.4552 0 30.9375V0.9375C0 0.419766 0.417381 0 0.932173 0H34.4904C35.0052 0 35.4226 0.419766 35.4226 0.9375V30.9375C35.4226 31.4552 35.0052 31.875 34.4904 31.875ZM1.86435 30H33.5582V1.875H1.86435V30Z" fill="#0CB4C4"/>
<path d="M58.727 60H19.5757C19.0609 60 18.6436 59.5802 18.6436 59.0625V34.6875C18.6436 34.1698 19.0609 33.75 19.5757 33.75H58.727C59.2418 33.75 59.6592 34.1698 59.6592 34.6875V59.0625C59.6592 59.5802 59.2418 60 58.727 60ZM20.5079 58.125H57.7948V35.625H20.5079V58.125Z" fill="#0CB4C4"/>
<path d="M51.5025 56.25H26.7999C26.2851 56.25 25.8677 55.8302 25.8677 55.3125C25.8677 53.8909 24.7178 52.7344 23.3042 52.7344C22.7895 52.7344 22.3721 52.3146 22.3721 51.7969V41.9531C22.3721 41.4354 22.7895 41.0156 23.3042 41.0156C24.7178 41.0156 25.8677 39.8591 25.8677 38.4375C25.8677 37.9198 26.2851 37.5 26.7999 37.5H51.5025C52.0173 37.5 52.4347 37.9198 52.4347 38.4375C52.4347 39.8591 53.5846 41.0156 54.9981 41.0156C55.5129 41.0156 55.9303 41.4354 55.9303 41.9531V51.7969C55.9303 52.3146 55.5129 52.7344 54.9981 52.7344C53.5846 52.7344 52.4347 53.8909 52.4347 55.3125C52.4347 55.8302 52.0173 56.25 51.5025 56.25ZM27.6334 54.375H50.6691C51.0336 52.6704 52.371 51.3253 54.066 50.9587V42.7914C52.371 42.4248 51.0336 41.0797 50.6691 39.3751H27.6334C27.2689 41.0797 25.9313 42.4248 24.2364 42.7914V50.9587C25.9312 51.3253 27.2688 52.6704 27.6334 54.375Z" fill="#0CB4C4"/>
<path d="M39.1515 50.625C37.0955 50.625 35.4229 48.9428 35.4229 46.875C35.4229 44.8072 37.0955 43.125 39.1515 43.125C41.2076 43.125 42.8802 44.8072 42.8802 46.875C42.8802 48.9428 41.2076 50.625 39.1515 50.625ZM39.1515 45C38.1236 45 37.2872 45.8412 37.2872 46.875C37.2872 47.9088 38.1236 48.75 39.1515 48.75C40.1795 48.75 41.0159 47.9088 41.0159 46.875C41.0159 45.8412 40.1795 45 39.1515 45Z" fill="#0CB4C4"/>
<path d="M30.7614 47.8125H28.897C28.3822 47.8125 27.9648 47.3927 27.9648 46.875C27.9648 46.3573 28.3822 45.9375 28.897 45.9375H30.7614C31.2762 45.9375 31.6935 46.3573 31.6935 46.875C31.6935 47.3927 31.2762 47.8125 30.7614 47.8125Z" fill="#0CB4C4"/>
<path d="M49.4049 47.8125H47.5406C47.0258 47.8125 46.6084 47.3927 46.6084 46.875C46.6084 46.3573 47.0258 45.9375 47.5406 45.9375H49.4049C49.9197 45.9375 50.3371 46.3573 50.3371 46.875C50.3371 47.3927 49.9197 47.8125 49.4049 47.8125Z" fill="#0CB4C4"/>
<path d="M30.7615 9.375H4.66069C4.1459 9.375 3.72852 8.95523 3.72852 8.4375V4.6875C3.72852 4.16977 4.1459 3.75 4.66069 3.75H30.7615C31.2763 3.75 31.6937 4.16977 31.6937 4.6875V8.4375C31.6937 8.95523 31.2763 9.375 30.7615 9.375ZM5.59286 7.5H29.8294V5.625H5.59286V7.5Z" fill="#0CB4C4"/>
<path d="M30.762 13.125H5.59331C5.07851 13.125 4.66113 12.7052 4.66113 12.1875C4.66113 11.6698 5.07851 11.25 5.59331 11.25H30.762C31.2768 11.25 31.6942 11.6698 31.6942 12.1875C31.6942 12.7052 31.2768 13.125 30.762 13.125Z" fill="#0CB4C4"/>
<path d="M30.762 16.875H5.59331C5.07851 16.875 4.66113 16.4552 4.66113 15.9375C4.66113 15.4198 5.07851 15 5.59331 15H30.762C31.2768 15 31.6942 15.4198 31.6942 15.9375C31.6942 16.4552 31.2768 16.875 30.762 16.875Z" fill="#0CB4C4"/>
<path d="M30.762 20.625H5.59331C5.07851 20.625 4.66113 20.2052 4.66113 19.6875C4.66113 19.1698 5.07851 18.75 5.59331 18.75H30.762C31.2768 18.75 31.6942 19.1698 31.6942 19.6875C31.6942 20.2052 31.2768 20.625 30.762 20.625Z" fill="#0CB4C4"/>
<path d="M30.762 24.375H5.59331C5.07851 24.375 4.66113 23.9552 4.66113 23.4375C4.66113 22.9198 5.07851 22.5 5.59331 22.5H30.762C31.2768 22.5 31.6942 22.9198 31.6942 23.4375C31.6942 23.9552 31.2768 24.375 30.762 24.375Z" fill="#0CB4C4"/>
<path d="M30.762 28.125H5.59331C5.07851 28.125 4.66113 27.7052 4.66113 27.1875C4.66113 26.6698 5.07851 26.25 5.59331 26.25H30.762C31.2768 26.25 31.6942 26.6698 31.6942 27.1875C31.6942 27.7052 31.2768 28.125 30.762 28.125Z" fill="#0CB4C4"/>
<path d="M15.8466 48.75H8.3892C7.87441 48.75 7.45703 48.3302 7.45703 47.8125V36.5625C7.45703 36.0448 7.87441 35.625 8.3892 35.625C8.904 35.625 9.32138 36.0448 9.32138 36.5625V46.875H15.8466C16.3614 46.875 16.7788 47.2948 16.7788 47.8125C16.7788 48.3302 16.3614 48.75 15.8466 48.75Z" fill="#0CB4C4"/>
<path d="M11.1871 41.2499C10.9036 41.25 10.6238 41.1205 10.4407 40.8749L8.3899 38.1248L6.33911 40.8749C6.03033 41.289 5.44586 41.3729 5.03407 41.0625C4.62217 40.7518 4.53874 40.1641 4.84764 39.75L7.64416 36C7.82022 35.7639 8.09649 35.625 8.3899 35.625C8.6833 35.625 8.95957 35.764 9.13563 36L11.9322 39.75C12.2411 40.1641 12.1576 40.7518 11.7457 41.0625C11.578 41.1888 11.3817 41.2499 11.1871 41.2499Z" fill="#0CB4C4"/>
<path d="M51.2696 23.4375C50.7548 23.4375 50.3374 23.0177 50.3374 22.5V15.9375H40.0835C39.5687 15.9375 39.1514 15.5177 39.1514 15C39.1514 14.4823 39.5687 14.0625 40.0835 14.0625H51.2696C51.7844 14.0625 52.2018 14.4823 52.2018 15V22.5C52.2018 23.0177 51.7844 23.4375 51.2696 23.4375Z" fill="#0CB4C4"/>
<path d="M43.8115 18.7502C43.6168 18.7502 43.4207 18.6891 43.2529 18.5626L39.5242 15.7501C39.2894 15.573 39.1514 15.2951 39.1514 15.0001C39.1514 14.705 39.2896 14.4271 39.5242 14.2501L43.2529 11.4376C43.6644 11.127 44.2488 11.2107 44.558 11.6251C44.8668 12.0393 44.7834 12.6269 44.3714 12.9376L41.6371 15.0002L44.3715 17.0627C44.7834 17.3733 44.8669 17.9609 44.5581 18.3752C44.3748 18.6208 44.0949 18.7502 43.8115 18.7502Z" fill="#0CB4C4"/>
</svg>
