<svg width="74" height="60" viewBox="0 0 74 60" fill="none" xmlns="http://www.w3.org/2000/svg"><path d="M50.0623 46.6505H6.77661C3.81572 46.6505 1.4034 44.2382 1.4034 41.2773V39.6006H9.20109H9.21335H9.22561H14.6938H14.7061H14.7184H18.2984H18.3107H18.3229H23.7912H23.8034H23.8157H27.3958H27.408H27.4203H32.8885H32.9008H32.913H36.4931H36.5054H36.5176H41.9858H41.9981H42.0104H46.7766C47.169 39.6006 47.4785 39.2911 47.4785 38.8987C47.4785 38.5064 47.169 38.1968 46.7766 38.1968H42.7L42.6908 22.1479C42.6908 21.1364 41.8693 20.3303 40.8732 20.3303H37.6273C36.6157 20.3303 35.8096 21.1518 35.8096 22.1479V38.185H33.6089V29.2806C33.6089 28.2691 32.7874 27.463 31.7912 27.463H28.5453C27.5338 27.463 26.7277 28.2844 26.7277 29.2806V38.185H24.5024V26.415C24.5024 25.4034 23.681 24.5973 22.6848 24.5973H19.4389C18.4273 24.5973 17.6212 25.4188 17.6212 26.415V38.185H15.4205V31.8494C15.4205 30.8379 14.599 30.0318 13.6028 30.0318H10.3569C9.34537 30.0318 8.53928 30.8533 8.53928 31.8494V38.185H6.26498V9.80814C6.26498 7.84646 7.85881 6.25263 9.82049 6.25263H51.1319C52.358 6.25263 53.4737 6.87179 54.1266 7.89244C54.3411 8.21428 54.7672 8.3093 55.1013 8.107C55.4231 7.89244 55.5181 7.46639 55.3158 7.14452C54.3994 5.707 52.8423 4.84873 51.132 4.84873H9.82052C7.08641 4.84873 4.86422 7.07092 4.86422 9.80503V38.1851H1.40059V6.77698C1.40059 3.8161 3.81283 1.40378 6.7738 1.40378H54.1641C57.125 1.40378 59.5373 3.81602 59.5373 6.77698C59.5373 7.16932 59.8469 7.4789 60.2392 7.4789C60.6316 7.4789 60.9411 7.16932 60.9411 6.77698C60.9411 3.04367 57.8975 0 54.1642 0H6.77698C3.04367 0 0 3.04367 0 6.77698V41.2783C0 45.0116 3.04367 48.0552 6.77698 48.0552H24.1842C23.4117 49.8729 22.4616 51.5158 21.2846 53.0115H18.575C16.6501 53.0115 15.0808 54.5809 15.0808 56.5058C15.0808 58.4307 16.6501 60 18.575 60H42.3883C44.3131 60 45.8825 58.4307 45.8825 56.5058C45.8825 54.5809 44.3131 53.0115 42.3883 53.0115H39.6787C38.5017 51.5127 37.5515 49.8729 36.7791 48.0552H50.0636C50.4559 48.0552 50.7655 47.7457 50.7655 47.3533C50.7655 46.961 50.4559 46.6514 50.0636 46.6514L50.0623 46.6505ZM37.1976 22.1475C37.1976 21.9084 37.3876 21.7306 37.6144 21.7306H40.8604C41.0995 21.7306 41.2773 21.9207 41.2773 22.1475V38.1846H37.1884V22.1475H37.1976ZM28.1032 29.2923C28.1032 29.0532 28.2933 28.8755 28.5201 28.8755H31.766C32.0051 28.8755 32.1829 29.0655 32.1829 29.2923V38.1968H28.094L28.091 29.2923H28.1032ZM19.0089 26.4141C19.0089 26.1751 19.1989 25.9973 19.4257 25.9973H22.6717C22.9108 25.9973 23.0885 26.1873 23.0885 26.4141V38.1842H18.9997L18.9966 26.4141H19.0089ZM9.91451 31.8486C9.91451 31.6095 10.1046 31.4318 10.3314 31.4318H13.5773C13.8164 31.4318 13.9942 31.6218 13.9942 31.8486V38.1842H9.90533L9.90226 31.8486H9.91451ZM37.9116 53.0105H23.0397C24.1095 51.4993 25.0014 49.8595 25.7156 48.0542H35.251C35.9621 49.8718 36.8419 51.5024 37.9116 53.0105Z" fill="#0CB4C4"></path><path d="M30.4821 40.4336C28.9955 40.4336 27.7939 41.6474 27.7939 43.1217C27.7939 44.6083 29.0078 45.8099 30.4821 45.8099C31.9686 45.8099 33.1702 44.596 33.1702 43.1217C33.1671 41.6321 31.9564 40.4336 30.4821 40.4336Z" fill="#0CB4C4"></path><path d="M62.6543 39.3147C69.3363 37.5799 73.8791 31.315 73.4742 24.4059C73.0328 16.9147 66.7922 10.9347 59.2677 10.7934C55.3199 10.7229 51.6355 12.1973 48.8402 14.9436C46.0449 17.69 44.5 21.3651 44.5 25.2762C44.5 31.8755 48.9598 37.6529 55.341 39.3054C55.7916 39.4249 56.1135 39.8173 56.1135 40.2555V41.8739C54.8537 41.9322 53.8422 42.9682 53.8422 44.2524V57.5919C53.8422 58.9129 54.912 59.9827 56.233 59.9827H61.7625C63.0836 59.9827 64.1534 58.9129 64.1534 57.5919V44.2705C64.1534 42.9984 63.1418 41.9655 61.8944 41.892V40.2736C61.8944 39.8261 62.2007 39.4343 62.6543 39.3147ZM55.6996 37.9599C49.934 36.461 45.9155 31.2534 45.9155 25.2859C45.9155 21.7426 47.307 18.4261 49.8266 15.9522C52.3461 13.4663 55.7116 12.1361 59.2427 12.1943C66.0319 12.3138 71.6656 17.7115 72.0705 24.4886C72.4383 30.7291 68.3372 36.3905 62.299 37.9598C61.2292 38.2326 60.4905 39.1859 60.4905 40.2648V41.8832H57.5296V40.277C57.5296 39.1828 56.7815 38.2327 55.6996 37.9599Z" fill="#0CB4C4"></path><path d="M69.0015 25.2991C69.0015 19.7819 64.5203 15.3008 59.0032 15.3008C53.4861 15.3008 49.0049 19.782 49.0049 25.2991C49.0049 30.8162 53.4861 35.2974 59.0032 35.2974C64.5203 35.2974 69.0015 30.8039 69.0015 25.2991ZM50.4087 25.2991C50.4087 20.5542 54.2616 16.7046 59.0032 16.7046C63.748 16.7046 67.5977 20.5575 67.5977 25.2991C67.5977 30.0439 63.7448 33.8936 59.0032 33.8936C54.2583 33.8936 50.4087 30.0315 50.4087 25.2991Z" fill="#0CB4C4"></path><path d="M39.6838 15.477C41.0049 15.477 42.0747 14.4072 42.0747 13.0861C42.0747 11.7651 41.0049 10.6953 39.6838 10.6953C38.3628 10.6953 37.293 11.7651 37.293 13.0861C37.293 13.5275 37.4248 13.929 37.6271 14.2754L31.408 20.9819C31.0401 20.7551 30.6111 20.6141 30.1482 20.6141C29.5076 20.6141 28.9344 20.8746 28.496 21.2792L23.3957 17.5091C23.4202 17.365 23.4447 17.2363 23.4447 17.0922C23.4447 15.7712 22.375 14.7014 21.0539 14.7014C19.7328 14.7014 18.6631 15.7712 18.6631 17.0922C18.6631 17.4968 18.7704 17.8769 18.9604 18.211L13.2286 24.7857C12.9068 24.6202 12.5512 24.5252 12.1711 24.5252C10.85 24.5252 9.78027 25.5949 9.78027 26.916C9.78027 28.2371 10.85 29.3068 12.1711 29.3068C13.4922 29.3068 14.5619 28.2371 14.5619 26.916C14.5619 26.4869 14.4424 26.0945 14.2401 25.7512L19.9596 19.1888C20.2937 19.3666 20.6615 19.4738 21.0662 19.4738C21.7313 19.4738 22.326 19.201 22.7673 18.7597L27.8187 22.5052C27.7819 22.6585 27.7696 22.8271 27.7696 23.0048C27.7696 24.3259 28.8394 25.3957 30.1605 25.3957C31.4815 25.3957 32.5513 24.3259 32.5513 23.0048C32.5513 22.6615 32.4808 22.3397 32.349 22.0424L38.6632 15.2286C38.9697 15.3818 39.316 15.477 39.6838 15.477Z" fill="#0CB4C4"></path><path d="M59.003 30.4576C59.2053 30.4576 59.4076 30.4453 59.6099 30.4208C63.6283 30.0285 66.6842 25.8906 66.816 25.7128C66.9938 25.4645 66.9938 25.1304 66.816 24.8913C66.6842 24.7013 63.6191 20.5756 59.6099 20.1833C59.4076 20.1587 59.2053 20.1465 59.003 20.1465C58.8007 20.1465 58.5984 20.1587 58.3961 20.1833C54.3777 20.5756 51.3218 24.7135 51.19 24.8913C51.0122 25.1396 51.0122 25.4737 51.19 25.7128C51.3218 25.9028 54.3869 30.0285 58.3961 30.4208C58.5984 30.4453 58.8007 30.4576 59.003 30.4576ZM58.5984 29.0323C56.7195 28.83 55.2452 27.2239 55.2452 25.299C55.2452 23.3618 56.7195 21.768 58.5984 21.5657C58.7302 21.5534 58.8712 21.5412 59.003 21.5412C59.147 21.5412 59.2758 21.5534 59.4076 21.5657C61.2865 21.768 62.7608 23.3741 62.7608 25.299C62.7608 27.2362 61.2865 28.83 59.4076 29.0323C59.2758 29.0446 59.1348 29.0568 59.003 29.0568C58.862 29.0568 58.7302 29.0446 58.5984 29.0323Z" fill="#0CB4C4"></path><path d="M60.5269 25.2992C60.5269 25.6915 60.8365 26.0011 61.2288 26.0011C61.6212 26.0011 61.9308 25.6915 61.9308 25.2992C61.9308 23.693 60.6219 22.375 59.0066 22.375C58.6143 22.375 58.3047 22.6846 58.3047 23.0769C58.3047 23.4693 58.6143 23.7788 59.0066 23.7788C59.8373 23.7758 60.5269 24.4532 60.5269 25.2992Z" fill="#0CB4C4"></path></svg>