<svg width="53" height="60" viewBox="0 0 53 60" fill="none" xmlns="http://www.w3.org/2000/svg"><path fill-rule="evenodd" clip-rule="evenodd" d="M45.3134 17.0386L48.9914 20.0386L50.4134 18.296C50.435 18.2654 50.4586 18.2362 50.484 18.2086C50.7191 17.8977 50.8281 17.5095 50.789 17.1216C50.7499 16.7338 50.5658 16.3751 50.2734 16.1173C50.2427 16.0956 50.2137 16.0715 50.1867 16.0453L48.9394 15.0273C48.623 14.7712 48.2184 14.6503 47.8135 14.6909C47.4085 14.7315 47.0359 14.9302 46.7767 15.244L45.31 17.0366L45.3134 17.0386ZM33 33.1273L32.576 36.394L35.6934 35.324L34.352 34.2293H34.348L33.0027 33.1313L33 33.1273ZM44.8 42.2487C43.8529 41.3013 42.6066 40.7117 41.2735 40.5802C39.9403 40.4488 38.6029 40.7837 37.489 41.5278C36.3751 42.272 35.5537 43.3793 35.1648 44.6612C34.7758 45.9431 34.8434 47.3202 35.356 48.5578C35.8686 49.7955 36.7945 50.8171 37.9759 51.4486C39.1573 52.0801 40.5211 52.2824 41.835 52.021C43.1488 51.7597 44.3314 51.0508 45.1812 50.0153C46.031 48.9798 46.4954 47.6816 46.4954 46.342C46.4964 45.5816 46.3472 44.8286 46.0563 44.1261C45.7653 43.4236 45.3384 42.7856 44.8 42.2487ZM37.5834 47.138C37.5002 47.075 37.4302 46.9962 37.3775 46.9061C37.3248 46.816 37.2903 46.7165 37.2761 46.6131C37.2619 46.5097 37.2681 46.4045 37.2945 46.3036C37.3209 46.2026 37.367 46.1078 37.43 46.0247C37.4931 45.9415 37.5718 45.8715 37.6619 45.8188C37.752 45.7661 37.8515 45.7317 37.9549 45.7174C38.0583 45.7032 38.1635 45.7094 38.2644 45.7358C38.3654 45.7623 38.4602 45.8083 38.5434 45.8713L40.1887 47.1213L42.722 43.9613C42.8546 43.7967 43.0472 43.6915 43.2574 43.6689C43.4675 43.6463 43.6781 43.708 43.8427 43.8407C44.0073 43.9733 44.1125 44.1658 44.1351 44.376C44.1577 44.5862 44.096 44.7967 43.9634 44.9613L40.9434 48.7247C40.8133 48.8856 40.6258 48.9895 40.4204 49.0144C40.215 49.0393 40.008 48.9832 39.8434 48.858L37.582 47.1393L37.5834 47.138ZM12.762 31.6833C12.6715 31.7358 12.5715 31.77 12.4678 31.7839C12.364 31.7978 12.2586 31.7911 12.1574 31.7643C12.0563 31.7374 11.9614 31.6909 11.8782 31.6273C11.795 31.5638 11.7252 31.4845 11.6727 31.394C11.6201 31.3035 11.586 31.2035 11.5721 31.0997C11.5582 30.996 11.5649 30.8905 11.5917 30.7894C11.6186 30.6882 11.6651 30.5934 11.7287 30.5102C11.7922 30.427 11.8715 30.3572 11.962 30.3047L18.818 26.3046C18.9835 26.2096 19.1775 26.1768 19.3651 26.2123C19.5526 26.2477 19.7213 26.3491 19.8407 26.498L21.61 28.7253L24.2233 27.4353C24.3615 27.3677 24.5163 27.3414 24.669 27.3595C24.8218 27.3775 24.9661 27.4393 25.0847 27.5373L26.2427 28.4266L30.4007 24.8706L29.1947 24.7333C29.084 24.7305 28.975 24.7048 28.8747 24.6577C28.7745 24.6107 28.6851 24.5433 28.6122 24.4599C28.5394 24.3764 28.4846 24.2788 28.4514 24.1731C28.4183 24.0674 28.4074 23.956 28.4196 23.8459C28.4317 23.7358 28.4666 23.6294 28.5219 23.5335C28.5773 23.4376 28.652 23.3542 28.7413 23.2887C28.8306 23.2231 28.9325 23.1768 29.0406 23.1527C29.1487 23.1286 29.2607 23.1272 29.3693 23.1486L32.4027 23.4906C32.6124 23.5146 32.8041 23.6205 32.9361 23.7852C33.0681 23.9499 33.1296 24.1601 33.1073 24.37L32.7653 27.404C32.7258 27.5998 32.6144 27.7738 32.453 27.8916C32.2917 28.0095 32.0921 28.0627 31.8935 28.0408C31.6949 28.0189 31.5117 27.9235 31.3799 27.7733C31.2481 27.6231 31.1773 27.4291 31.1813 27.2293L31.2967 26.202L26.7907 30.0553C26.6513 30.1736 26.4755 30.2406 26.2927 30.2451C26.1099 30.2496 25.9311 30.1913 25.786 30.08L24.4873 29.08L21.7687 30.4213C21.6042 30.509 21.4144 30.5366 21.2318 30.4992C21.0492 30.4618 20.8854 30.3619 20.7687 30.2167L19.0293 28.0267L12.7673 31.6793L12.762 31.6833ZM6.136 49.2167L10.854 53.95V49.2167H6.136ZM16.2427 47.57C16.1335 47.5771 16.024 47.5616 15.921 47.5247C15.8181 47.4878 15.7237 47.4301 15.6439 47.3553C15.5641 47.2805 15.5005 47.1901 15.457 47.0897C15.4135 46.9893 15.3911 46.8811 15.3911 46.7717C15.3911 46.6623 15.4135 46.554 15.457 46.4536C15.5005 46.3532 15.5641 46.2628 15.6439 46.188C15.7237 46.1132 15.8181 46.0555 15.921 46.0186C16.024 45.9817 16.1335 45.9663 16.2427 45.9733H29.418C29.5272 45.9663 29.6367 45.9817 29.7396 46.0186C29.8426 46.0555 29.9369 46.1132 30.0168 46.188C30.0966 46.2628 30.1602 46.3532 30.2037 46.4536C30.2472 46.554 30.2696 46.6623 30.2696 46.7717C30.2696 46.8811 30.2472 46.9893 30.2037 47.0897C30.1602 47.1901 30.0966 47.2805 30.0168 47.3553C29.9369 47.4301 29.8426 47.4878 29.7396 47.5247C29.6367 47.5616 29.5272 47.5771 29.418 47.57H16.2427ZM16.2427 50.6367C16.1335 50.6437 16.024 50.6283 15.921 50.5914C15.8181 50.5545 15.7237 50.4968 15.6439 50.422C15.5641 50.3472 15.5005 50.2567 15.457 50.1564C15.4135 50.056 15.3911 49.9477 15.3911 49.8383C15.3911 49.7289 15.4135 49.6207 15.457 49.5203C15.5005 49.4199 15.5641 49.3295 15.6439 49.2547C15.7237 49.1799 15.8181 49.1222 15.921 49.0853C16.024 49.0483 16.1335 49.0329 16.2427 49.04H29.418C29.5272 49.0329 29.6367 49.0483 29.7396 49.0853C29.8426 49.1222 29.9369 49.1799 30.0168 49.2547C30.0966 49.3295 30.1602 49.4199 30.2037 49.5203C30.2472 49.6207 30.2696 49.7289 30.2696 49.8383C30.2696 49.9477 30.2472 50.056 30.2037 50.1564C30.1602 50.2567 30.0966 50.3472 30.0168 50.422C29.9369 50.4968 29.8426 50.5545 29.7396 50.5914C29.6367 50.6283 29.5272 50.6437 29.418 50.6367H16.2427ZM42.0314 39.0747V31.0847L40.212 33.314V38.972C40.3747 38.9613 40.5387 38.956 40.704 38.956C41.1491 38.9557 41.5934 38.9954 42.0314 39.0747ZM42.1734 28.3933L37.1947 34.4947L35.9727 33.4947L46.762 20.2766L47.9847 21.2766L42.2514 28.298C42.2221 28.3285 42.1954 28.3613 42.1714 28.396L42.1734 28.3933ZM43.4867 19.2766L44.3067 18.272L45.528 19.27L34.738 32.4907L33.516 31.4907L43.4074 19.3746C43.4361 19.3439 43.4627 19.3112 43.4867 19.2766ZM16.1127 5.32131H13.3533C13.2705 5.31766 13.189 5.34287 13.1227 5.39264C13.1067 5.40597 13.0967 5.41197 13.0967 5.41264V10.6586C13.0967 10.6586 13.1067 10.6653 13.1227 10.6793C13.1892 10.7285 13.2706 10.7535 13.3533 10.75H30.2753C30.3581 10.7535 30.4395 10.7285 30.506 10.6793C30.522 10.6653 30.532 10.6593 30.532 10.6586V5.41264C30.532 5.41264 30.522 5.40597 30.506 5.39264C30.4397 5.34287 30.3582 5.31766 30.2753 5.32131H27.516C27.3274 5.32064 27.1452 5.25339 27.0014 5.13141C26.8575 5.00943 26.7614 4.84058 26.73 4.65464C26.6331 4.21341 26.4457 3.79708 26.1798 3.43195C25.9138 3.06682 25.5749 2.76083 25.1847 2.53331C24.1664 1.923 23.0015 1.60065 21.8143 1.60065C20.6272 1.60065 19.4623 1.923 18.444 2.53331C18.0619 2.75757 17.7291 3.05679 17.4656 3.41298C17.2021 3.76917 17.0133 4.17497 16.9107 4.60597C16.8907 4.80295 16.7984 4.98554 16.6516 5.11841C16.5048 5.25128 16.314 5.325 16.116 5.32531L16.1127 5.32131ZM11.5 8.91398H5.23334C4.75188 8.91661 4.29092 9.10922 3.95072 9.44991C3.61053 9.79061 3.41859 10.2518 3.41667 10.7333V48.4167C3.4164 48.5209 3.43669 48.6243 3.47638 48.7207C3.51608 48.8171 3.5744 48.9048 3.648 48.9787L11.0467 56.3933C11.1215 56.4809 11.2144 56.5511 11.319 56.5993C11.4237 56.6474 11.5375 56.6722 11.6527 56.672H38.3947C38.8761 56.6697 39.3372 56.4773 39.6774 56.1367C40.0177 55.796 40.2096 55.3348 40.2114 54.8533V53.712C40.374 53.7227 40.538 53.7287 40.7034 53.7287C41.1485 53.7287 41.5927 53.6888 42.0307 53.6093V56.5273C42.0288 57.0242 41.8306 57.5001 41.4793 57.8515C41.1281 58.2029 40.6522 58.4012 40.1554 58.4033H3.47267C2.97537 58.4019 2.49881 58.2039 2.14698 57.8524C1.79515 57.501 1.5966 57.0246 1.59467 56.5273V9.06064C1.5966 8.56387 1.7948 8.08799 2.14607 7.73671C2.49735 7.38544 2.97323 7.18724 3.47 7.18531H11.5V8.91864V8.91398ZM32.128 10.5106H38.3947C38.4233 10.5104 38.4517 10.5158 38.4783 10.5265C38.5048 10.5373 38.529 10.5532 38.5494 10.5733C38.5704 10.5942 38.5872 10.619 38.5986 10.6463C38.6101 10.6737 38.616 10.703 38.616 10.7326V22.728L31.778 31.104C31.6781 31.2272 31.6171 31.3773 31.6027 31.5353L30.8413 37.4C30.8124 37.538 30.8205 37.6813 30.8647 37.8152C30.909 37.9492 30.9879 38.069 31.0934 38.1626C31.1989 38.2562 31.3273 38.3203 31.4656 38.3483C31.6039 38.3763 31.7471 38.3672 31.8807 38.322L37.5654 36.37C37.7244 36.3156 37.8621 36.2122 37.9587 36.0747L38.6147 35.2707V39.2553C37.0855 39.707 35.7434 40.6412 34.7889 41.9185C33.8343 43.1957 33.3185 44.7475 33.3185 46.342C33.3185 47.9365 33.8343 49.4883 34.7889 50.7655C35.7434 52.0428 37.0855 52.977 38.6147 53.4287V54.8533C38.6146 54.883 38.6087 54.9123 38.5973 54.9397C38.5858 54.967 38.5691 54.9918 38.548 55.0127C38.5276 55.0328 38.5035 55.0487 38.4769 55.0594C38.4504 55.0702 38.422 55.0756 38.3933 55.0753H12.4513V49.2087C12.4487 48.7878 12.2804 48.3849 11.9827 48.0873C11.6851 47.7896 11.2822 47.6213 10.8613 47.6187H5.014V10.7333C5.01398 10.7037 5.01986 10.6743 5.03131 10.6469C5.04276 10.6196 5.05954 10.5948 5.08067 10.574C5.10088 10.5538 5.12491 10.5379 5.15136 10.5271C5.1778 10.5164 5.20612 10.511 5.23467 10.5113H11.5013V10.6593C11.5032 10.8964 11.5573 11.1302 11.6598 11.3439C11.7624 11.5577 11.9109 11.7462 12.0947 11.896C12.4486 12.1898 12.8947 12.3498 13.3547 12.348H30.2753C30.7354 12.3498 31.1814 12.1898 31.5353 11.896C31.7191 11.7462 31.8676 11.5577 31.9702 11.3439C32.0727 11.1302 32.1269 10.8964 32.1287 10.6593V10.5113L32.128 10.5106ZM32.128 7.18331V8.91664H38.3947C38.8759 8.91875 39.3368 9.1108 39.6772 9.45101C40.0175 9.79123 40.2097 10.2521 40.212 10.7333V20.7713L42.0314 18.542V9.05864C42.0294 8.56187 41.8312 8.08599 41.4799 7.73471C41.1287 7.38344 40.6528 7.18524 40.156 7.18331H32.128ZM13.3533 3.72397H15.4973C15.8909 2.67368 16.6224 1.78396 17.5767 1.19464C18.8521 0.413437 20.3187 0 21.8143 0C23.31 0 24.7766 0.413437 26.052 1.19464C27.0063 1.78396 27.7378 2.67368 28.1313 3.72397H30.2753C30.7354 3.72216 31.1814 3.88216 31.5353 4.17597C31.719 4.32585 31.8674 4.51437 31.97 4.72811C32.0725 4.94186 32.1267 5.17557 32.1287 5.41264V5.58597H40.156C41.0764 5.58791 41.9586 5.9544 42.6094 6.60523C43.2603 7.25607 43.6268 8.13823 43.6287 9.05864V16.5853L45.5414 14.242C46.0663 13.6005 46.8241 13.1931 47.6488 13.1092C48.4735 13.0252 49.2979 13.2714 49.9414 13.794L51.238 14.8526C51.8794 15.3777 52.2866 16.1356 52.3705 16.9603C52.4543 17.7849 52.208 18.6092 51.6854 19.2526L43.6287 29.128V39.5573C44.9534 40.1293 46.0817 41.0765 46.8744 42.2821C47.6671 43.4878 48.0895 44.8991 48.0895 46.342C48.0895 47.7849 47.6671 49.1962 46.8744 50.4019C46.0817 51.6075 44.9534 52.5547 43.6287 53.1267V56.5267C43.6269 57.4472 43.2605 58.3295 42.6097 58.9805C41.9588 59.6315 41.0765 59.9981 40.156 60H3.47267C2.55225 59.9981 1.67009 59.6316 1.01926 58.9807C0.368429 58.3299 0.00193753 57.4477 0 56.5273V9.06064C0.00193753 8.14023 0.368429 7.25807 1.01926 6.60723C1.67009 5.9564 2.55225 5.58991 3.47267 5.58797H11.5V5.41464C11.502 5.17758 11.5562 4.94386 11.6587 4.73011C11.7613 4.51637 11.9097 4.32785 12.0933 4.17797C12.4473 3.88416 12.8933 3.72416 13.3533 3.72597V3.72397ZM15.2153 41.0293V34.922H12.9407V41.0293H15.2153ZM22.032 41.0293V33.4H19.7567V41.0293H22.032ZM28.5947 41.0293V34.922H26.32V41.0293H28.5947ZM24.7233 41.0293V34.1233C24.7233 33.9111 24.8076 33.7077 24.9577 33.5576C25.1077 33.4076 25.3112 33.3233 25.5233 33.3233H29.3947C29.4997 33.3233 29.6038 33.344 29.7008 33.3842C29.7979 33.4244 29.8861 33.4833 29.9604 33.5576C30.0347 33.6319 30.0936 33.7201 30.1338 33.8172C30.174 33.9142 30.1947 34.0183 30.1947 34.1233V41.0293H32.3347C32.5375 41.0424 32.7277 41.1322 32.8667 41.2805C33.0057 41.4288 33.0831 41.6244 33.0831 41.8277C33.0831 42.0309 33.0057 42.2265 32.8667 42.3748C32.7277 42.5231 32.5375 42.6129 32.3347 42.626H9.086C8.87383 42.626 8.67035 42.5417 8.52032 42.3917C8.37029 42.2416 8.286 42.0382 8.286 41.826C8.28466 41.8018 8.28466 41.7775 8.286 41.7533L8.35267 21.392C8.35267 21.2875 8.37324 21.1841 8.41321 21.0876C8.45318 20.9911 8.51177 20.9034 8.58562 20.8296C8.65947 20.7557 8.74715 20.6972 8.84364 20.6572C8.94014 20.6172 9.04356 20.5966 9.148 20.5966C9.25245 20.5966 9.35587 20.6172 9.45237 20.6572C9.54886 20.6972 9.63654 20.7557 9.71039 20.8296C9.78424 20.9034 9.84283 20.9911 9.8828 21.0876C9.92277 21.1841 9.94334 21.2875 9.94334 21.392L9.88067 41.028H11.34V34.1233C11.34 33.9111 11.4243 33.7077 11.5743 33.5576C11.7243 33.4076 11.9278 33.3233 12.14 33.3233H16.012C16.2242 33.3233 16.4277 33.4076 16.5777 33.5576C16.7277 33.7077 16.812 33.9111 16.812 34.1233V41.0293H18.16V32.6C18.16 32.3878 18.2443 32.1843 18.3943 32.0343C18.5444 31.8843 18.7478 31.8 18.96 31.8H22.8313C23.0435 31.8 23.247 31.8843 23.397 32.0343C23.5471 32.1843 23.6313 32.3878 23.6313 32.6V41.0293H24.7233Z" fill="#0CB4C4"></path></svg>