<svg width="64" height="60" viewBox="0 0 64 60" fill="none" xmlns="http://www.w3.org/2000/svg"><path d="M60.21 25.733H54.9583V24.4201C54.9583 22.4508 53.3828 20.8753 51.4135 20.8753H45.7679C45.8992 20.2188 45.7679 19.6937 45.5054 19.1685C44.9802 18.2495 44.0612 17.7243 43.0108 17.7243H42.617V6.82713C42.617 5.25164 41.3041 4.07002 39.8599 4.07002H33.9518C32.3763 4.07002 31.1946 5.38293 31.1946 6.82713V17.7243H30.8008C29.7504 17.7243 28.8314 18.2495 28.3062 19.1685C28.0437 19.6937 27.9124 20.3501 28.0437 20.8753H23.7111V15.2298H24.1049C25.1553 15.2298 26.0743 14.7046 26.5995 13.7856C27.1246 12.8665 26.9933 11.8162 26.4682 10.8972L20.4288 1.31291C19.9036 0.525164 18.9846 0 18.0655 0C17.1465 0 16.2275 0.525164 15.7023 1.31291L9.66291 10.8972C9.13775 11.8162 9.13775 12.8665 9.53162 13.7856C10.0568 14.7046 10.9758 15.2298 12.0262 15.2298H12.42V17.0678H3.75482C1.78545 17.0678 0.209961 18.6433 0.209961 20.6127V56.4551C0.209961 58.4245 1.78545 60 3.75482 60H51.5448C53.3828 60 55.0896 58.5558 55.6148 56.849L63.0984 29.5405C63.6235 27.5711 62.3106 25.733 60.21 25.733ZM52.4638 24.4201V25.733H43.2734L44.7176 23.5011H51.676C52.0699 23.6324 52.4638 23.895 52.4638 24.4201ZM33.9518 6.82713C33.9518 6.69584 34.083 6.69584 34.083 6.69584H39.9911C40.1224 6.69584 40.1224 6.82713 40.1224 6.82713V17.7243H33.8205V6.82713H33.9518ZM30.8008 20.4814C30.8008 20.3501 30.9321 20.3501 30.9321 20.3501H32.6388H41.5666H43.2734C43.2734 20.3501 43.4047 20.3501 43.4047 20.4814C43.4047 20.6127 43.4047 20.6127 43.4047 20.6127L40.1224 25.733H34.2143L30.9321 20.6127C30.8008 20.6127 30.8008 20.6127 30.8008 20.4814ZM11.8949 12.6039C11.8949 12.4726 11.8949 12.4726 11.8949 12.4726L17.9343 2.8884C17.9343 2.8884 17.9343 2.75711 18.0655 2.75711C18.1968 2.75711 18.1968 2.75711 18.1968 2.8884L24.2362 12.4726V12.6039C24.2362 12.7352 24.1049 12.7352 24.1049 12.7352H22.3981H13.4704H12.0262C12.0262 12.6039 12.0262 12.6039 11.8949 12.6039ZM21.3478 15.2298V26.1269C21.3478 26.2582 21.2165 26.2582 21.2165 26.2582H15.3084C15.1771 26.2582 15.1771 26.1269 15.1771 26.1269V15.2298H21.3478ZM3.75482 19.8249H12.42V26.1269C12.42 27.7024 13.7329 28.884 15.1771 28.884H21.0852C22.6607 28.884 23.8423 27.5711 23.8423 26.1269V23.5011H29.4879L31.4572 26.5208L26.7308 29.2779C26.4682 29.4092 26.2056 29.5405 26.0743 29.5405H11.3697C9.53162 29.5405 7.82484 30.9847 7.29968 32.6915L2.83578 48.9716V20.744C2.83578 20.2188 3.22965 19.8249 3.75482 19.8249ZM60.6038 28.884L53.1202 56.1926C52.989 56.849 52.2012 57.3742 51.5448 57.3742H3.75482C3.62353 57.3742 3.62353 57.3742 3.49224 57.3742C3.49224 57.3742 3.49224 57.3742 3.36095 57.3742C3.36095 57.3742 3.22965 57.1116 3.36095 56.9803L9.79421 33.4792C9.9255 32.8228 10.7132 32.2976 11.3697 32.2976H26.0743C26.7308 32.2976 27.3872 32.1663 28.0437 31.7724L33.164 28.7527C33.4266 28.6214 33.6892 28.4902 33.8205 28.4902H60.21C60.3413 28.4902 60.4725 28.4902 60.4725 28.6214C60.6038 28.6214 60.6038 28.7527 60.6038 28.884Z" fill="#0CB4C4"></path><path d="M48.5255 45.1641H33.1645C32.3767 45.1641 31.8516 45.6892 31.8516 46.477C31.8516 47.2647 32.3767 47.7899 33.1645 47.7899H48.5255C49.3133 47.7899 49.8384 47.2647 49.8384 46.477C49.8384 45.6892 49.3133 45.1641 48.5255 45.1641Z" fill="#0CB4C4"></path><path d="M48.5255 50.8096H33.1645C32.3767 50.8096 31.8516 51.3347 31.8516 52.1225C31.8516 52.9102 32.3767 53.4354 33.1645 53.4354H48.5255C49.3133 53.4354 49.8384 52.9102 49.8384 52.1225C49.8384 51.466 49.3133 50.8096 48.5255 50.8096Z" fill="#0CB4C4"></path></svg>