<svg width="66" height="60" viewBox="0 0 66 60" fill="none" xmlns="http://www.w3.org/2000/svg"><path fill-rule="evenodd" clip-rule="evenodd" d="M26.0148 59.9998C23.1441 59.9998 20.2321 59.6179 17.2481 59.2229C15.1073 58.9423 12.8917 58.6513 10.6452 58.498C10.1603 58.4642 9.79657 58.0433 9.82754 57.5547C9.86107 57.0662 10.2737 56.6946 10.7638 56.731C13.0671 56.8869 15.3085 57.1806 17.4777 57.4664C24.0393 58.3317 30.2372 59.1449 36.1851 55.6995L36.866 55.3072C52.5869 46.2127 61.6864 40.3817 63.9123 37.981C64.5906 37.2482 64.0464 35.5411 63.8013 35.0006C63.7781 34.9486 63.7601 34.8967 63.7472 34.8421C63.7446 34.8343 63.5125 34.1145 62.326 33.5273C61.511 33.1219 59.5662 33.8911 58.4442 34.5641L45.7798 41.7122C46.8812 42.975 46.8889 44.0507 46.6516 44.7783C46.0042 46.7842 43.1361 47.6573 41.3667 47.7535C38.888 47.8938 27.5573 45.6618 26.2731 45.4072C25.7959 45.3136 25.4864 44.8459 25.5792 44.3678C25.6721 43.8871 26.1363 43.5753 26.6109 43.6714C30.0413 44.3522 39.381 46.0905 41.2688 45.9866C42.7802 45.9035 44.6863 45.1344 44.9778 44.2301C45.2022 43.5389 44.3226 42.6789 43.7681 42.2216C43.7629 42.2164 43.7578 42.2138 43.7526 42.2086C42.4501 41.3564 24.8854 36.2349 22.3063 36.2167C19.9901 36.2193 16.2089 36.6506 13.4465 36.9806C12.2678 37.1209 11.3367 37.2326 10.7718 37.2768C10.2895 37.3184 9.86647 36.9494 9.82777 36.4635C9.78908 35.975 10.1528 35.5515 10.6351 35.5125C11.1664 35.4709 12.1285 35.3566 13.2402 35.2241C16.0464 34.8889 19.8715 34.4133 22.3192 34.4471C24.9011 34.4653 40.8358 38.9319 44.2918 40.5196L57.5597 33.0335C57.8976 32.8282 61.1113 30.9522 63.0999 31.9396C64.8048 32.7867 65.3026 33.9533 65.4213 34.3197C65.6508 34.842 66.7212 37.5418 65.1943 39.1891C61.6607 43.0036 43.6549 53.4208 37.738 56.8426L37.0597 57.2349C33.4075 59.35 29.7476 59.997 26.0176 59.997L26.0148 59.9998Z" fill="#C74634"></path><path fill-rule="evenodd" clip-rule="evenodd" d="M10.7014 58.5005H0.87951C0.394604 58.5005 0 58.103 0 57.6145V36.3963C0 35.9078 0.394631 35.5103 0.87951 35.5103H10.7014C11.1863 35.5103 11.5809 35.9078 11.5809 36.3963V57.6145C11.5809 58.103 11.1862 58.5005 10.7014 58.5005ZM1.75902 56.731H9.82186V37.2822H1.75902V56.731Z" fill="#C74634"></path><path fill-rule="evenodd" clip-rule="evenodd" d="M5.79077 44.0948C3.96981 44.0948 3.01807 42.6787 3.01807 41.2781C3.01807 39.8775 3.96981 38.4614 5.79077 38.4614C7.61172 38.4614 8.56347 39.8775 8.56347 41.2781C8.56347 41.9978 8.31844 42.6787 7.87221 43.1905C7.36409 43.7752 6.62643 44.0948 5.79077 44.0948ZM5.79077 40.231C5.46062 40.231 5.20527 40.3323 5.02991 40.5324C4.86742 40.7195 4.77456 40.9897 4.77456 41.2781C4.77456 41.4522 4.82357 42.3253 5.79082 42.3253C6.12097 42.3253 6.37632 42.2239 6.55168 42.0239C6.71417 41.8368 6.80702 41.5665 6.80702 41.2781C6.80702 41.104 6.75802 40.231 5.79334 40.231L5.79077 40.231Z" fill="#C74634"></path><path fill-rule="evenodd" clip-rule="evenodd" d="M49.9584 30.2847H16.0359C11.0398 30.2847 6.97729 26.1896 6.97729 21.1589C6.97729 16.1233 11.05 12.0279 16.0563 12.0279C17.0622 12.0279 18.0424 12.1968 18.9889 12.5268C19.9845 8.52267 23.5904 5.6281 27.7999 5.6281C28.9734 5.6281 30.1419 5.86455 31.2355 6.32189C32.7778 2.5516 36.492 0 40.6011 0C43.8432 0 46.8068 1.50705 48.7332 4.13402C50.4329 6.4518 51.0726 9.28405 50.5568 12.0564C55.2742 12.3682 59.0164 16.3334 59.0164 21.1615C59.0164 26.192 54.9541 30.2873 49.9579 30.2873L49.9584 30.2847ZM16.0563 13.798C12.5356 13.798 8.73367 16.612 8.73367 21.1589C8.73367 25.2151 12.0093 28.5153 16.0359 28.5153H49.9584C53.9847 28.5153 57.2606 25.2153 57.2606 21.1589C57.2606 17.1028 53.9849 13.8026 49.9584 13.8026C49.8011 13.8026 49.6437 13.8078 49.489 13.8182C49.1949 13.8338 48.9215 13.7117 48.7436 13.483C48.5656 13.2543 48.5088 12.9529 48.594 12.6749C49.3806 10.0947 48.9164 7.3638 47.3172 5.18357C45.7258 3.01392 43.2781 1.76929 40.5981 1.76929C36.9201 1.76929 33.6214 4.24818 32.5768 7.79757C32.502 8.05481 32.3138 8.26527 32.0661 8.36661C31.8185 8.46795 31.54 8.45236 31.3079 8.32244C30.2117 7.70922 29.033 7.40002 27.7975 7.40002C24.0885 7.40002 20.9621 10.1829 20.5237 13.8752C20.4902 14.1611 20.3199 14.4105 20.0698 14.5482C19.8196 14.6859 19.5178 14.6911 19.2624 14.5638C18.2462 14.0571 17.168 13.7999 16.0538 13.7999L16.0563 13.798Z" fill="#C74634"></path><path fill-rule="evenodd" clip-rule="evenodd" d="M49.9585 26.3869H16.0359C13.1756 26.3869 10.8464 24.0406 10.8464 21.1589C10.8464 19.3426 11.7595 17.6848 13.2916 16.726C14.8314 15.762 16.7168 15.6658 18.3289 16.4688L22.1204 18.3552L22.6234 14.1276C22.8271 12.4049 23.8691 10.9055 25.4064 10.113C26.954 9.31532 28.7775 9.34126 30.2863 10.1832C30.7093 10.4196 30.8641 10.9601 30.6294 11.3862C30.3921 11.8124 29.8581 11.9683 29.4352 11.7318C28.4421 11.1758 27.2351 11.1602 26.2085 11.6902C25.1768 12.2229 24.5062 13.1869 24.3695 14.338L23.7195 19.8103C23.686 20.0961 23.5157 20.3455 23.2655 20.4833C23.0128 20.621 22.7136 20.6262 22.4582 20.4988L17.555 18.0589C16.4897 17.5289 15.244 17.5938 14.2226 18.233C13.196 18.8748 12.6079 19.9428 12.6079 21.164C12.6079 23.0712 14.1477 24.6224 16.0409 24.6224H49.9635C50.4484 24.6224 50.843 25.02 50.843 25.5085C50.843 25.9969 50.4484 26.3945 49.9635 26.3945L49.9585 26.3869Z" fill="#C74634"></path></svg>