<svg width="60" height="60" viewBox="0 0 60 60" fill="none" xmlns="http://www.w3.org/2000/svg"><mask id="path-1-inside-1_746_289" fill="white"><path d="M47.1567 27.763C47.1567 27.7486 47.148 27.74 47.148 27.7256C47.1394 27.6969 47.1337 27.6739 47.1251 27.6423C47.1165 27.6194 47.1165 27.5964 47.1107 27.582C47.1021 27.5677 47.1021 27.5591 47.0964 27.5447C47.0878 27.516 47.0734 27.493 47.059 27.47C47.0504 27.4471 47.0447 27.4327 47.0303 27.4097C47.0303 27.4011 47.0217 27.4011 47.0217 27.3954L43.0908 20.8624L43.8115 20.1416C44.1331 19.82 44.179 19.3175 43.9321 18.9413L42.8812 17.3734L43.5272 15.8342L45.3735 15.4666C45.8157 15.3776 46.1373 14.987 46.1373 14.5276V10.6509C46.1373 10.1943 45.8157 9.80383 45.3649 9.71194L43.5272 9.35872L42.8812 7.81949L43.9321 6.25158C44.1876 5.8754 44.136 5.37287 43.8115 5.05125L41.0809 2.30595C40.7593 1.98432 40.2568 1.92976 39.872 2.18534L38.3043 3.23637L36.7652 2.59886L36.4063 0.761015C36.3201 0.321652 35.9296 0 35.4788 0H31.6083C31.1517 0 30.7612 0.321623 30.6694 0.763883L30.3104 2.60173L28.7714 3.23924L27.2036 2.18821C26.8275 1.93263 26.3192 1.98432 26.0034 2.30881L23.2526 5.05698C22.931 5.37861 22.8851 5.88115 23.132 6.25732L24.1829 7.82522L23.5541 9.36446L21.7164 9.71767C21.2656 9.80095 20.944 10.1972 20.944 10.6567V13.0947L9.29466 13.0889C8.95584 13.0889 8.6486 13.2612 8.47631 13.5541L0.143567 27.3953C0.143567 27.4039 0.134954 27.4039 0.134954 27.4097C0.12634 27.4327 0.111983 27.447 0.10624 27.47C0.0918831 27.493 0.0832693 27.5217 0.0689127 27.5447C0.0602984 27.559 0.0602983 27.5676 0.0545552 27.582C0.0459416 27.605 0.0459415 27.6193 0.0401984 27.6423C0.0315841 27.671 0.0258417 27.694 0.0172275 27.7256C0.0172275 27.7399 0.00861339 27.7485 0.00861339 27.7629V27.8318C0.00861339 27.8548 0 27.8691 0 27.8835V27.9065V27.9438C0 27.9668 0.00861339 27.9898 0.00861339 28.0127C0.0172277 28.0414 0.0172278 28.073 0.0229709 28.096C0.0229709 28.1104 0.0315843 28.119 0.0315843 28.1247V28.1391C0.631702 30.2469 2.40909 31.8004 4.52528 32.168V54.1016H3.49163C2.96617 54.1016 2.53832 54.5295 2.53832 55.055V59.0466C2.53832 59.5721 2.96615 60 3.49163 60H43.6734C44.1989 60 44.6267 59.5721 44.6267 59.0466V55.055C44.6267 54.5295 44.1989 54.1016 43.6734 54.1016H42.6398L42.634 32.1827C44.7502 31.8151 46.5276 30.2616 47.1277 28.1538V28.1394C47.1277 28.1251 47.1363 28.1165 47.1363 28.1021C47.145 28.0734 47.145 28.0504 47.1507 28.0188C47.1507 27.9958 47.1593 27.9729 47.1593 27.9499V27.9126V27.8896C47.1593 27.8666 47.1507 27.8523 47.1507 27.8379C47.1564 27.8092 47.1567 27.7859 47.1567 27.763ZM44.5236 26.9388H37.8247L36.5958 23.4957L36.7767 22.5882L38.3158 21.9421L39.8835 22.9931C40.2654 23.2487 40.7679 23.197 41.0923 22.8725L41.7154 22.2494L44.5236 26.9388ZM18.5206 34.7695H8.85003C8.32457 34.7695 7.89672 35.1974 7.89672 35.7229V54.1102H6.44091L6.44378 32.1825C7.87658 31.9355 9.16008 31.1314 10.0129 29.9856C11.0638 31.3812 12.7292 32.2658 14.5353 32.2658C16.3442 32.2658 18.0068 31.387 19.0576 29.9914C20.1 31.387 21.7653 32.2658 23.5887 32.2658C25.3976 32.2658 27.0602 31.387 28.111 29.9914C29.1534 31.387 30.8101 32.2658 32.6277 32.2658C34.451 32.2658 36.1164 31.387 37.1587 29.9914C38.0201 31.14 39.295 31.9355 40.7278 32.1825V54.1161H19.4711V35.7229C19.4711 35.1974 19.0461 34.7695 18.5206 34.7695ZM17.5673 36.6734V54.1072H9.80348V36.6734H17.5673ZM11.5432 28.8427H17.5357C16.8379 29.7644 15.7439 30.3589 14.5351 30.3589C13.3378 30.3589 12.2352 29.7645 11.5432 28.8427ZM20.5911 28.8427H26.5923C25.8946 29.7644 24.8006 30.3589 23.5918 30.3589C22.3829 30.3589 21.2803 29.7645 20.5911 28.8427ZM28.9525 26.9388L28.3898 22.1977L28.7716 21.9422L30.3107 22.5883L30.6783 24.4347C30.7673 24.8856 31.1578 25.1986 31.6172 25.1986H35.1863L35.8094 26.9388L28.9525 26.9388ZM35.6371 28.8427C34.948 29.7644 33.8454 30.3589 32.6279 30.3589C31.4191 30.3589 30.3251 29.7731 29.6359 28.8427H35.6371ZM22.8484 11.4404L24.4161 11.1418C24.732 11.0815 24.9933 10.8632 25.1225 10.5703L26.1418 8.08638C26.2624 7.79347 26.2308 7.45749 26.0528 7.19333L25.1598 5.84942L26.8023 4.20683L28.1461 5.09988C28.4074 5.28079 28.7462 5.30951 29.039 5.18889L31.5227 4.16948C31.8156 4.04887 32.0338 3.78755 32.0941 3.47167L32.4014 1.89516H34.7042L35.0114 3.47167C35.0717 3.78755 35.29 4.04887 35.5828 4.16948L38.0666 5.18889C38.3594 5.3095 38.6954 5.27791 38.9595 5.09988L40.2947 4.20683L41.9227 5.84082L41.024 7.18473C40.8431 7.44605 40.8144 7.78491 40.935 8.08358L41.9686 10.5675C42.0892 10.8605 42.3505 11.0787 42.6664 11.139L44.2341 11.4376V13.7493L42.6577 14.0566C42.3419 14.1169 42.0864 14.3351 41.96 14.628L40.9264 17.112C40.8058 17.4049 40.8373 17.7409 41.0154 18.0108L41.9083 19.3547L40.2803 20.9829L38.9365 20.0899C38.6752 19.909 38.3278 19.8802 38.0377 20.0009L35.554 21.0346C35.2611 21.1552 35.0515 21.4165 34.9826 21.7324L34.6754 23.3089H32.3726L32.0653 21.7324C32.005 21.4165 31.7868 21.161 31.4939 21.0346L29.0102 20.0009C28.7173 19.8802 28.3814 19.9118 28.1114 20.0899L26.7677 20.9887L25.1338 19.3605L26.0498 18.0022C26.2307 17.7409 26.2594 17.4021 26.1388 17.1092L25.1195 14.6252C24.9989 14.3323 24.7376 14.1141 24.4217 14.0538L22.8454 13.7465L22.8484 11.4404ZM21.5275 15.409C21.5878 15.432 21.6481 15.455 21.7084 15.4693L23.5461 15.8283L24.1835 17.3675L23.1326 18.9354C22.8771 19.3116 22.9288 19.8199 23.2532 20.1443L25.9983 22.8752C26.1562 23.0332 26.3658 23.1308 26.5754 23.1452L27.0262 26.9328H20.1321L21.5275 15.409ZM19.6611 14.9955L18.2197 26.9386H11.3715L15.6843 14.9955H19.6611ZM9.83546 14.9955H13.6601L9.3473 26.9386H2.6484L9.83546 14.9955ZM2.49051 28.8426H8.48301C7.78526 29.7644 6.69128 30.3588 5.48246 30.3588C4.2851 30.3588 3.1825 29.7644 2.49051 28.8426ZM42.7238 56.0199V58.1047H4.44873V56.0199H42.7238ZM41.6814 30.3592C40.4812 30.3592 39.3786 29.7734 38.6809 28.8429H44.6734C43.9843 29.7647 42.8816 30.3592 41.6814 30.3592Z"></path></mask><path d="M47.1567 27.763C47.1567 27.7486 47.148 27.74 47.148 27.7256C47.1394 27.6969 47.1337 27.6739 47.1251 27.6423C47.1165 27.6194 47.1165 27.5964 47.1107 27.582C47.1021 27.5677 47.1021 27.5591 47.0964 27.5447C47.0878 27.516 47.0734 27.493 47.059 27.47C47.0504 27.4471 47.0447 27.4327 47.0303 27.4097C47.0303 27.4011 47.0217 27.4011 47.0217 27.3954L43.0908 20.8624L43.8115 20.1416C44.1331 19.82 44.179 19.3175 43.9321 18.9413L42.8812 17.3734L43.5272 15.8342L45.3735 15.4666C45.8157 15.3776 46.1373 14.987 46.1373 14.5276V10.6509C46.1373 10.1943 45.8157 9.80383 45.3649 9.71194L43.5272 9.35872L42.8812 7.81949L43.9321 6.25158C44.1876 5.8754 44.136 5.37287 43.8115 5.05125L41.0809 2.30595C40.7593 1.98432 40.2568 1.92976 39.872 2.18534L38.3043 3.23637L36.7652 2.59886L36.4063 0.761015C36.3201 0.321652 35.9296 0 35.4788 0H31.6083C31.1517 0 30.7612 0.321623 30.6694 0.763883L30.3104 2.60173L28.7714 3.23924L27.2036 2.18821C26.8275 1.93263 26.3192 1.98432 26.0034 2.30881L23.2526 5.05698C22.931 5.37861 22.8851 5.88115 23.132 6.25732L24.1829 7.82522L23.5541 9.36446L21.7164 9.71767C21.2656 9.80095 20.944 10.1972 20.944 10.6567V13.0947L9.29466 13.0889C8.95584 13.0889 8.6486 13.2612 8.47631 13.5541L0.143567 27.3953C0.143567 27.4039 0.134954 27.4039 0.134954 27.4097C0.12634 27.4327 0.111983 27.447 0.10624 27.47C0.0918831 27.493 0.0832693 27.5217 0.0689127 27.5447C0.0602984 27.559 0.0602983 27.5676 0.0545552 27.582C0.0459416 27.605 0.0459415 27.6193 0.0401984 27.6423C0.0315841 27.671 0.0258417 27.694 0.0172275 27.7256C0.0172275 27.7399 0.00861339 27.7485 0.00861339 27.7629V27.8318C0.00861339 27.8548 0 27.8691 0 27.8835V27.9065V27.9438C0 27.9668 0.00861339 27.9898 0.00861339 28.0127C0.0172277 28.0414 0.0172278 28.073 0.0229709 28.096C0.0229709 28.1104 0.0315843 28.119 0.0315843 28.1247V28.1391C0.631702 30.2469 2.40909 31.8004 4.52528 32.168V54.1016H3.49163C2.96617 54.1016 2.53832 54.5295 2.53832 55.055V59.0466C2.53832 59.5721 2.96615 60 3.49163 60H43.6734C44.1989 60 44.6267 59.5721 44.6267 59.0466V55.055C44.6267 54.5295 44.1989 54.1016 43.6734 54.1016H42.6398L42.634 32.1827C44.7502 31.8151 46.5276 30.2616 47.1277 28.1538V28.1394C47.1277 28.1251 47.1363 28.1165 47.1363 28.1021C47.145 28.0734 47.145 28.0504 47.1507 28.0188C47.1507 27.9958 47.1593 27.9729 47.1593 27.9499V27.9126V27.8896C47.1593 27.8666 47.1507 27.8523 47.1507 27.8379C47.1564 27.8092 47.1567 27.7859 47.1567 27.763ZM44.5236 26.9388H37.8247L36.5958 23.4957L36.7767 22.5882L38.3158 21.9421L39.8835 22.9931C40.2654 23.2487 40.7679 23.197 41.0923 22.8725L41.7154 22.2494L44.5236 26.9388ZM18.5206 34.7695H8.85003C8.32457 34.7695 7.89672 35.1974 7.89672 35.7229V54.1102H6.44091L6.44378 32.1825C7.87658 31.9355 9.16008 31.1314 10.0129 29.9856C11.0638 31.3812 12.7292 32.2658 14.5353 32.2658C16.3442 32.2658 18.0068 31.387 19.0576 29.9914C20.1 31.387 21.7653 32.2658 23.5887 32.2658C25.3976 32.2658 27.0602 31.387 28.111 29.9914C29.1534 31.387 30.8101 32.2658 32.6277 32.2658C34.451 32.2658 36.1164 31.387 37.1587 29.9914C38.0201 31.14 39.295 31.9355 40.7278 32.1825V54.1161H19.4711V35.7229C19.4711 35.1974 19.0461 34.7695 18.5206 34.7695ZM17.5673 36.6734V54.1072H9.80348V36.6734H17.5673ZM11.5432 28.8427H17.5357C16.8379 29.7644 15.7439 30.3589 14.5351 30.3589C13.3378 30.3589 12.2352 29.7645 11.5432 28.8427ZM20.5911 28.8427H26.5923C25.8946 29.7644 24.8006 30.3589 23.5918 30.3589C22.3829 30.3589 21.2803 29.7645 20.5911 28.8427ZM28.9525 26.9388L28.3898 22.1977L28.7716 21.9422L30.3107 22.5883L30.6783 24.4347C30.7673 24.8856 31.1578 25.1986 31.6172 25.1986H35.1863L35.8094 26.9388L28.9525 26.9388ZM35.6371 28.8427C34.948 29.7644 33.8454 30.3589 32.6279 30.3589C31.4191 30.3589 30.3251 29.7731 29.6359 28.8427H35.6371ZM22.8484 11.4404L24.4161 11.1418C24.732 11.0815 24.9933 10.8632 25.1225 10.5703L26.1418 8.08638C26.2624 7.79347 26.2308 7.45749 26.0528 7.19333L25.1598 5.84942L26.8023 4.20683L28.1461 5.09988C28.4074 5.28079 28.7462 5.30951 29.039 5.18889L31.5227 4.16948C31.8156 4.04887 32.0338 3.78755 32.0941 3.47167L32.4014 1.89516H34.7042L35.0114 3.47167C35.0717 3.78755 35.29 4.04887 35.5828 4.16948L38.0666 5.18889C38.3594 5.3095 38.6954 5.27791 38.9595 5.09988L40.2947 4.20683L41.9227 5.84082L41.024 7.18473C40.8431 7.44605 40.8144 7.78491 40.935 8.08358L41.9686 10.5675C42.0892 10.8605 42.3505 11.0787 42.6664 11.139L44.2341 11.4376V13.7493L42.6577 14.0566C42.3419 14.1169 42.0864 14.3351 41.96 14.628L40.9264 17.112C40.8058 17.4049 40.8373 17.7409 41.0154 18.0108L41.9083 19.3547L40.2803 20.9829L38.9365 20.0899C38.6752 19.909 38.3278 19.8802 38.0377 20.0009L35.554 21.0346C35.2611 21.1552 35.0515 21.4165 34.9826 21.7324L34.6754 23.3089H32.3726L32.0653 21.7324C32.005 21.4165 31.7868 21.161 31.4939 21.0346L29.0102 20.0009C28.7173 19.8802 28.3814 19.9118 28.1114 20.0899L26.7677 20.9887L25.1338 19.3605L26.0498 18.0022C26.2307 17.7409 26.2594 17.4021 26.1388 17.1092L25.1195 14.6252C24.9989 14.3323 24.7376 14.1141 24.4217 14.0538L22.8454 13.7465L22.8484 11.4404ZM21.5275 15.409C21.5878 15.432 21.6481 15.455 21.7084 15.4693L23.5461 15.8283L24.1835 17.3675L23.1326 18.9354C22.8771 19.3116 22.9288 19.8199 23.2532 20.1443L25.9983 22.8752C26.1562 23.0332 26.3658 23.1308 26.5754 23.1452L27.0262 26.9328H20.1321L21.5275 15.409ZM19.6611 14.9955L18.2197 26.9386H11.3715L15.6843 14.9955H19.6611ZM9.83546 14.9955H13.6601L9.3473 26.9386H2.6484L9.83546 14.9955ZM2.49051 28.8426H8.48301C7.78526 29.7644 6.69128 30.3588 5.48246 30.3588C4.2851 30.3588 3.1825 29.7644 2.49051 28.8426ZM42.7238 56.0199V58.1047H4.44873V56.0199H42.7238ZM41.6814 30.3592C40.4812 30.3592 39.3786 29.7734 38.6809 28.8429H44.6734C43.9843 29.7647 42.8816 30.3592 41.6814 30.3592Z" fill="#C74634" stroke="white" stroke-width="0.2" mask="url(#path-1-inside-1_746_289)"></path><path d="M27.3579 14.4185L27.3586 14.4183L27.355 14.4108C27.3152 14.3285 27.2933 14.2372 27.2851 14.1385L27.2858 14.1384L27.2837 14.1303C27.1584 13.6373 27.09 13.1303 27.09 12.6034C27.09 9.04435 29.985 6.14912 33.5437 6.14912C37.1024 6.14912 39.9974 9.04435 39.9974 12.6034C39.9974 13.6007 39.7666 14.5466 39.3564 15.3871L39.3558 15.3868L39.3534 15.3948C39.3323 15.4658 39.2979 15.5272 39.2612 15.5866L39.2611 15.5865L39.2594 15.5896C38.2165 17.576 36.1707 18.955 33.7888 19.0434L33.7888 19.0432L33.7852 19.0436C33.7694 19.0454 33.7544 19.0473 33.7401 19.0491C33.7074 19.0532 33.6781 19.0569 33.6505 19.0576C33.6487 19.0566 33.6465 19.0555 33.6441 19.0545C33.638 19.0518 33.6292 19.0491 33.6184 19.0491H33.5437C30.6178 19.0491 28.1472 17.0915 27.3579 14.4185ZM29.6272 14.9455H29.5373L29.5847 15.0218C30.1765 15.9764 31.0935 16.711 32.1998 17.0449L32.2952 17.0737L32.2612 16.98L31.5348 14.9784L31.5228 14.9455H31.4878H29.6272ZM34.2403 17.1489L34.2545 17.1881L34.2955 17.1812C35.6076 16.9636 36.7365 16.1972 37.436 15.1291L37.4527 15.1036L37.4376 15.077L37.3773 14.9708L37.3629 14.9455H37.3338H33.5149H33.4437L33.4679 15.0125L34.2403 17.1489ZM38.0973 13.1651L38.1564 13.1833L38.1618 13.1217C38.1762 12.9581 38.1907 12.7838 38.1907 12.6004C38.1907 10.0372 36.1067 7.95296 33.5437 7.95296C30.9806 7.95296 28.8968 10.0401 28.8968 12.6004C28.8968 12.7696 28.9114 12.9354 28.9257 13.0932L28.9299 13.1386H28.9755H37.8794C37.9522 13.1386 38.0297 13.1443 38.0973 13.1651Z" fill="#C74634" stroke="white" stroke-width="0.1"></path><path d="M30.9625 36.5433H30.9125V36.5933V41.6273V41.6773H30.9625H37.3685H37.4185V41.6273V36.5933V36.5433H37.3685H30.9625ZM30.9625 43.4812H30.9125V43.5312V48.5508V48.6008H30.9625H37.3685H37.4185V48.5508V43.5312V43.4812H37.3685H30.9625ZM22.6386 36.5433H22.5886V36.5933V41.6273V41.6773H22.6386H29.059H29.109V41.6273V36.5933V36.5433H29.059H22.6386ZM22.6386 43.4812H22.5886V43.5312V48.5508V48.6008H22.6386H29.059H29.109V48.5508V43.5312V43.4812H29.059H22.6386ZM38.3221 50.4044H21.6852C21.1874 50.4044 20.7819 49.9989 20.7819 49.501V35.6399C20.7819 35.142 21.1874 34.7365 21.6852 34.7365H38.3221C38.8199 34.7365 39.2254 35.142 39.2254 35.6399V49.501C39.2254 49.9989 38.8199 50.4044 38.3221 50.4044Z" fill="#C74634" stroke="white" stroke-width="0.1"></path><path d="M47.9624 7.84128L47.9623 7.84135C47.7909 8.01279 47.5653 8.10526 47.3229 8.10526H45.4852C44.9796 8.10526 44.5905 7.70071 44.5905 7.20193C44.5905 6.70401 44.996 6.29853 45.4938 6.29853H46.9352H46.9559L46.9705 6.28395L49.1987 4.0642L49.1987 4.06413C49.3702 3.89269 49.5957 3.80022 49.8381 3.80022H52.0721H52.1068L52.119 3.76766C52.4967 2.75252 53.475 2.02266 54.6161 2.02266C56.0959 2.02266 57.2967 3.22354 57.2967 4.70355C57.2967 6.16898 56.0961 7.37011 54.6161 7.37011C53.4749 7.37011 52.5023 6.64867 52.1188 5.6392L52.1066 5.60695H52.0721H50.2258H50.2052L50.1905 5.62153L47.9624 7.84128ZM55.4786 4.70356C55.4786 4.21935 55.0887 3.82939 54.6045 3.82939C54.1335 3.82939 53.7447 4.23486 53.7447 4.70356C53.7447 5.16447 54.1344 5.56339 54.6045 5.56339C55.0791 5.56339 55.4786 5.1743 55.4786 4.70356Z" fill="#C74634" stroke="white" stroke-width="0.1"></path><path d="M55.4792 20.4943C55.4792 20.024 55.0887 19.6347 54.6052 19.6347C54.1357 19.6347 53.7454 20.0157 53.7454 20.4945C53.7454 20.9692 54.1345 21.3687 54.6052 21.3687C55.0923 21.3687 55.4822 20.9699 55.4792 20.4943ZM55.4792 20.4943C55.4792 20.4943 55.4792 20.4942 55.4792 20.4942L55.4292 20.4945H55.4792C55.4792 20.4944 55.4792 20.4944 55.4792 20.4943ZM52.0612 19.5825H52.0957L52.1079 19.5502C52.4913 18.5408 53.464 17.8193 54.6052 17.8193C56.0853 17.8193 57.2856 19.0205 57.2772 20.4857V20.486C57.2772 21.9659 56.0764 23.1669 54.5966 23.1669C53.4554 23.1669 52.4744 22.4368 52.0995 21.422L52.0874 21.3893H52.0526H49.8186C49.5762 21.3893 49.3506 21.2968 49.1792 21.1254L49.1791 21.1253L46.951 18.9056L46.9364 18.891H46.9157H45.4743C44.9765 18.891 44.571 18.4855 44.571 17.9876C44.571 17.4897 44.9765 17.0842 45.4743 17.0842H47.312C47.5544 17.0842 47.78 17.1766 47.9514 17.3481L47.9515 17.3482L50.1796 19.5679L50.1942 19.5825H50.2149H52.0612Z" fill="#C74634" stroke="white" stroke-width="0.1"></path><path d="M54.7254 11.6918H54.76L54.7722 11.6595C55.1558 10.6442 56.1341 9.91426 57.2838 9.91426C58.7547 9.91426 59.9473 11.1234 59.9501 12.5953C59.9501 14.061 58.755 15.2618 57.2838 15.2618C56.1338 15.2618 55.1556 14.5401 54.7722 13.5309L54.7599 13.4986H54.7254H48.1472C47.6493 13.4986 47.2438 13.0931 47.2438 12.5952C47.2438 12.0973 47.6493 11.6918 48.1472 11.6918H54.7254ZM56.4155 12.6698H56.4153L56.4157 12.6744C56.4554 13.1045 56.8296 13.4636 57.2838 13.4636C57.7599 13.4636 58.1436 13.0732 58.1436 12.5981C58.1436 12.1148 57.7632 11.7239 57.2838 11.7239C56.8291 11.7239 56.4552 12.0836 56.4157 12.5276L56.4155 12.5276V12.532C56.4155 12.5482 56.4184 12.5637 56.4204 12.5743L56.4207 12.5757C56.423 12.588 56.4241 12.5949 56.4241 12.6009C56.4241 12.607 56.423 12.6138 56.4207 12.6262L56.4204 12.6275C56.4184 12.6382 56.4155 12.6536 56.4155 12.6698Z" fill="#C74634" stroke="white" stroke-width="0.1"></path></svg>