<svg width="62" height="62" viewBox="0 0 62 62" fill="none" xmlns="http://www.w3.org/2000/svg"><path d="M44.4399 56.2674H52.1458C53.2901 53.9423 56.5676 53.7989 57.907 56.0232C59.111 55.5269 59.9394 54.3457 59.9394 53.0066V31.3517C59.9394 29.5574 58.4685 28.0896 56.6765 28.0896C51.0892 28.0896 45.4966 28.0896 39.9093 28.0896C38.1185 28.0896 36.6464 29.5574 36.6464 31.3517V53.0053C36.6464 54.3444 37.4747 55.5255 38.6787 56.0219C40.0181 53.7989 43.2956 53.9423 44.4399 56.2674ZM34.2012 57.6065C34.9008 57.6065 34.9008 58.6669 34.2012 58.6669H20.527C19.8314 58.6669 19.8314 57.6065 20.527 57.6065H34.2012ZM18.2052 57.6065C18.9048 57.6065 18.9048 58.6669 18.2052 58.6669H16.8765C16.1809 58.6669 16.1809 57.6065 16.8765 57.6065H18.2052ZM54.7729 24.4479V27.0292H56.6765C59.0539 27.0292 61 28.9735 61 31.3517V53.0053C61 54.789 59.9009 56.3537 58.3026 57.008C58.75 59.0544 57.1968 61 55.0928 61C53.1281 61 51.6002 59.284 51.8299 57.3278H44.7558C44.9855 59.284 43.4576 61 41.4929 61C39.3929 61 37.8358 59.0544 38.2831 57.008C37.1614 56.5488 36.2694 55.6317 35.8486 54.4917H1.53099C1.23762 54.4917 1 54.2515 1 53.9569V49.8109C1 49.5176 1.23762 49.28 1.53099 49.28H6.48242V46.4545C1 44.8368 -0.825261 37.8852 3.26465 33.795C4.50981 32.5501 6.18507 31.7366 8.04352 31.5946V3.85202C8.04352 2.28334 9.32718 1 10.8962 1H42.0319C43.6009 1 44.8846 2.28334 44.8846 3.85202V18.0604C49.4484 15.2694 55.3118 18.6058 55.3118 23.9184C55.3105 24.2117 55.0742 24.4479 54.7729 24.4479ZM53.7122 27.0292V24.4479H53.0312V27.0292H53.7122ZM51.9653 27.0292V24.4479C51.6148 24.4479 51.3706 24.2449 51.3706 23.9171C51.3706 21.3517 48.2364 19.9967 46.3807 21.852C45.8497 22.3829 45.5191 23.1155 45.5191 23.9171C45.5191 24.3006 45.2218 24.4479 44.8833 24.4479V27.0292H51.9653ZM43.1416 24.4479V27.0292H43.8226V24.4479H43.1416ZM42.081 27.0292V24.4479C41.8022 24.4333 41.5845 24.1997 41.5845 23.9171C41.5845 21.9263 42.4421 20.1175 43.824 18.8567V3.85202C43.824 2.86994 43.0155 2.06171 42.0332 2.06171H10.8976C9.91524 2.06171 9.10682 2.86994 9.10682 3.85202V31.5853C13.0998 31.8255 16.2406 35.1407 16.2406 39.1699C16.2406 42.578 13.9826 45.5163 10.7993 46.4572V49.2827H18.2052V34.7332C18.2052 34.4399 18.4429 34.1997 18.7362 34.1997H34.1945C34.4879 34.1997 34.7255 34.4399 34.7255 34.7332V49.2814H35.587V31.4459H33.2388C32.9454 31.4459 32.7078 31.2084 32.7078 30.9151V25.077C32.7078 24.7837 32.9454 24.5461 33.2388 24.5461H40.0341C40.3274 24.5461 40.565 24.7837 40.565 25.077V27.0292H42.081ZM41.1027 31.9091C41.1027 31.2097 42.1633 31.2097 42.1633 31.9091V52.4492C42.1633 53.1447 41.1027 53.1447 41.1027 52.4492V31.9091ZM45.5417 31.9091C45.5417 31.2097 46.6023 31.2097 46.6023 31.9091V52.4492C46.6023 53.1447 45.5417 53.1447 45.5417 52.4492V31.9091ZM49.9821 31.9091C49.9821 31.2097 51.0427 31.2097 51.0427 31.9091V52.4492C51.0427 53.1447 49.9821 53.1447 49.9821 52.4492V31.9091ZM54.4224 31.9091C54.4224 31.2097 55.4831 31.2097 55.4831 31.9091V52.4492C55.4831 53.1447 54.4224 53.1447 54.4224 52.4492V31.9091ZM52.398 23.3875H54.2233C53.9525 20.4346 51.4463 18.1201 48.4475 18.1201C45.4488 18.1201 42.9425 20.4333 42.6677 23.3875H44.493C44.9258 20.1679 48.9068 18.7452 51.2631 21.1035C51.8684 21.706 52.2786 22.5037 52.398 23.3875ZM43.066 56.1427C41.6695 54.7465 39.2694 55.7405 39.2694 57.7153C39.2694 59.6861 41.6708 60.6841 43.066 59.284C43.9315 58.4187 43.9315 57.0119 43.066 56.1427ZM56.6658 56.1427C55.2693 54.7465 52.8693 55.7405 52.8693 57.7153C52.8693 59.6861 55.2707 60.6802 56.6658 59.284C57.5313 58.4187 57.5313 57.0119 56.6658 56.1427ZM35.6083 53.4273C35.5937 53.288 35.5857 53.1486 35.5857 53.0066V50.3431C24.4138 50.3431 13.2379 50.3431 2.06197 50.3431V53.4273H35.6083ZM35.6946 30.3855C36.1087 28.5873 37.6433 27.2216 39.5031 27.0491V25.6078H33.7684V30.3855H35.6946ZM9.73471 49.2814V42.205C9.73471 40.7717 7.54439 40.7717 7.54439 42.205V49.2814H9.73471ZM10.7993 42.205V45.3424C15.3154 43.7618 16.684 37.9648 13.2644 34.5488C10.7091 31.994 6.57004 31.994 4.01865 34.5488C0.597779 37.9648 1.96374 43.7618 6.48375 45.3424V42.205C6.48375 39.3689 10.7993 39.3689 10.7993 42.205ZM26.9957 35.2641V49.2814H33.6636V35.2641H26.9957ZM25.9337 49.2814V35.2641H19.2659V49.2814H25.9337ZM28.1241 41.1367C28.1241 40.4373 29.1887 40.4373 29.1887 41.1367V43.4088C29.1887 44.1082 28.1241 44.1082 28.1241 43.4088V41.1367ZM23.7408 41.1367C23.7408 40.4373 24.8014 40.4373 24.8014 41.1367V43.4088C24.8014 44.1082 23.7408 44.1082 23.7408 43.4088V41.1367ZM12.8954 24.5461H19.6907C19.9841 24.5461 20.2217 24.7837 20.2217 25.077V30.9151C20.2217 31.2084 19.9841 31.4459 19.6907 31.4459H12.8954C12.602 31.4459 12.3644 31.2084 12.3644 30.9151V25.077C12.3644 24.7837 12.602 24.5461 12.8954 24.5461ZM19.161 25.6078H13.4264V30.3855H19.161V25.6078ZM23.0664 24.5461H29.8617C30.1551 24.5461 30.3927 24.7837 30.3927 25.077V30.9151C30.3927 31.2084 30.1551 31.4459 29.8617 31.4459H23.0664C22.773 31.4459 22.5354 31.2084 22.5354 30.9151V25.077C22.5354 24.7837 22.773 24.5461 23.0664 24.5461ZM29.332 25.6078H23.5974V30.3855H29.332V25.6078ZM12.8954 14.8898H19.6907C19.9841 14.8898 20.2217 15.1301 20.2217 15.4247V21.2628C20.2217 21.5561 19.9841 21.7936 19.6907 21.7936H12.8954C12.602 21.7936 12.3644 21.5561 12.3644 21.2628V15.4247C12.3644 15.1301 12.602 14.8898 12.8954 14.8898ZM19.161 15.9542H13.4264V20.7319H19.161V15.9542ZM23.0664 14.8898H29.8617C30.1551 14.8898 30.3927 15.1301 30.3927 15.4247V21.2628C30.3927 21.5561 30.1551 21.7936 29.8617 21.7936H23.0664C22.773 21.7936 22.5354 21.5561 22.5354 21.2628V15.4247C22.5354 15.1301 22.773 14.8898 23.0664 14.8898ZM29.332 15.9542H23.5974V20.7319H29.332V15.9542ZM33.2374 14.8898H40.0327C40.3261 14.8898 40.5637 15.1301 40.5637 15.4247V21.2628C40.5637 21.5561 40.3261 21.7936 40.0327 21.7936H33.2374C32.9441 21.7936 32.7065 21.5561 32.7065 21.2628V15.4247C32.7078 15.1301 32.9441 14.8898 33.2374 14.8898ZM39.5031 15.9542H33.7684V20.7319H39.5031V15.9542ZM12.8954 5.23623H19.6907C19.9841 5.23623 20.2217 5.47379 20.2217 5.76709V11.6052C20.2217 11.8985 19.9841 12.14 19.6907 12.14H12.8954C12.602 12.14 12.3644 11.8998 12.3644 11.6052V5.76709C12.3644 5.47379 12.602 5.23623 12.8954 5.23623ZM19.161 6.29662H13.4264V11.0743H19.161V6.29662ZM23.0664 5.23623H29.8617C30.1551 5.23623 30.3927 5.47379 30.3927 5.76709V11.6052C30.3927 11.8985 30.1551 12.14 29.8617 12.14H23.0664C22.773 12.14 22.5354 11.8998 22.5354 11.6052V5.76709C22.5354 5.47379 22.773 5.23623 23.0664 5.23623ZM29.332 6.29662H23.5974V11.0743H29.332V6.29662ZM33.2374 5.23623H40.0327C40.3261 5.23623 40.5637 5.47379 40.5637 5.76709V11.6052C40.5637 11.8985 40.3261 12.14 40.0327 12.14H33.2374C32.9441 12.14 32.7065 11.8998 32.7065 11.6052V5.76709C32.7078 5.47379 32.9441 5.23623 33.2374 5.23623ZM39.5031 6.29662H33.7684V11.0743H39.5031V6.29662Z" fill="#C74634" stroke="#C74634" stroke-width="0.5"></path></svg>