<svg width="60" height="60" viewBox="0 0 60 60" fill="none" xmlns="http://www.w3.org/2000/svg"><path d="M3.68316 30.0528L1.59905 32.1363C1.23293 32.5019 0.640264 32.5019 0.274137 32.1363C-0.0913788 31.7702 -0.0913788 31.1776 0.274137 30.8114L3.9648 27.1208C4.14052 26.945 4.37868 26.8465 4.62726 26.8465C4.87583 26.8465 5.114 26.945 5.28972 27.1208L8.98038 30.8114C9.3459 31.1776 9.3459 31.7702 8.98038 32.1363C8.79732 32.3194 8.55793 32.4106 8.31792 32.4106C8.07792 32.4106 7.83853 32.3194 7.65546 32.1363L5.55605 30.0369C5.61115 33.4092 6.34953 36.6756 7.75771 39.7509C7.97322 40.2212 7.76628 40.7771 7.29607 40.9926C7.16995 41.0501 7.03709 41.0777 6.90668 41.0777C6.55157 41.0777 6.21177 40.8744 6.05442 40.5303C4.53603 37.2144 3.74072 33.6909 3.68316 30.0528ZM5.63013 22.4529C5.72932 22.4866 5.83034 22.5025 5.92952 22.5025C6.32075 22.5025 6.68504 22.2558 6.81729 21.8646C10.1308 12.0416 19.2901 5.42311 29.647 5.34291L27.3315 7.65845C26.9659 8.02458 26.9659 8.61724 27.3315 8.98337C27.5145 9.16643 27.7539 9.25766 27.9939 9.25766C28.2339 9.25766 28.4733 9.16582 28.6564 8.98337L32.347 5.2927C32.7126 4.92719 32.7132 4.33391 32.347 3.9684L28.6564 0.274672C28.2909 -0.0914553 27.6976 -0.0914553 27.3315 0.27406C26.9653 0.639575 26.9653 1.23285 27.3308 1.59898L29.2068 3.47676C18.2266 3.73758 8.56589 10.8195 5.04237 21.2658C4.87706 21.7556 5.14033 22.2876 5.63013 22.4529ZM54.2326 36.1362C53.7379 35.9844 53.2139 36.2629 53.0626 36.757C49.9438 46.9321 40.7441 53.796 30.1154 53.9142L32.347 51.6825C32.7126 51.3164 32.7126 50.7237 32.347 50.3576C31.9809 49.9921 31.3882 49.9921 31.0221 50.3576L27.3315 54.0483C27.1557 54.224 27.0572 54.4622 27.0572 54.7107C27.0572 54.9593 27.1557 55.1975 27.3315 55.3732L31.0221 59.0639C31.2052 59.2469 31.4446 59.3382 31.6846 59.3382C31.9246 59.3382 32.164 59.2463 32.347 59.0639C32.7126 58.6977 32.7126 58.1051 32.347 57.7389L30.3927 55.7846C35.9012 55.6714 41.1249 53.8713 45.5325 50.5609C49.9377 47.2529 53.2481 42.5453 54.8541 37.3062C55.0053 36.8121 54.7273 36.288 54.2326 36.1362ZM25.9276 11.6987L24.9333 16.102C24.5298 16.249 24.1318 16.4143 23.7424 16.5967L19.9232 14.1857C19.5528 13.9524 19.0703 14.0063 18.7605 14.3155L14.5249 18.5541C14.2158 18.8639 14.1619 19.3464 14.3952 19.7162L16.8038 23.533C16.6207 23.9248 16.456 24.3228 16.3103 24.7232L11.9076 25.7205C11.4808 25.8173 11.1778 26.1963 11.1778 26.634V32.6268C11.1778 33.0645 11.4814 33.4441 11.9082 33.5409L16.104 34.4874C16.6084 34.6013 17.1099 34.2847 17.2238 33.7796C17.3376 33.2751 17.0205 32.7737 16.516 32.6598L13.0513 31.878V27.3822L17.2348 26.4344C17.5587 26.361 17.8195 26.1222 17.9205 25.8056C18.1262 25.1616 18.3913 24.5211 18.7085 23.9021C18.8597 23.6077 18.8438 23.255 18.6668 22.9752L16.3789 19.3494L19.5558 16.17L23.1847 18.461C23.4657 18.6386 23.819 18.6539 24.1141 18.5015C24.7245 18.1868 25.3649 17.9204 26.0188 17.7098C26.3341 17.6082 26.5723 17.3474 26.6451 17.0247L27.5898 12.8418H32.0856L33.0334 17.0253C33.1062 17.348 33.3438 17.6076 33.6585 17.7098C34.3124 17.9217 34.9522 18.188 35.5608 18.5015C35.8559 18.6533 36.2091 18.638 36.4902 18.461L40.119 16.17L43.299 19.3494L41.0086 22.9752C40.8316 23.2556 40.8157 23.6083 40.967 23.9028C41.2847 24.5224 41.5498 25.1628 41.7555 25.8069C41.8566 26.1228 42.1174 26.3622 42.4413 26.4357L46.6278 27.3834V31.8786L42.4419 32.8233C42.1174 32.8968 41.8559 33.1362 41.7555 33.4533C41.5529 34.0919 41.2878 34.7317 40.9676 35.3562C40.8163 35.6507 40.8323 36.0033 41.0092 36.2837L43.3002 39.9126L40.1208 43.0896L36.4914 40.7985C36.2097 40.621 35.8546 40.6056 35.5589 40.7599C34.9675 41.0673 34.3283 41.3336 33.6597 41.5504C33.345 41.652 33.1075 41.9122 33.0346 42.2349L31.9215 47.1482C31.807 47.6527 32.1236 48.1547 32.6281 48.2686C32.6979 48.2845 32.767 48.2919 32.8356 48.2919C33.2636 48.2919 33.6499 47.9968 33.7485 47.5621L34.7458 43.1581C35.1536 43.0094 35.551 42.844 35.9348 42.664L39.7529 45.0745C40.1227 45.3078 40.6051 45.2545 40.9149 44.9447L45.1535 40.7091C45.4633 40.3993 45.5172 39.9169 45.2833 39.5465L42.8717 35.7266C43.0553 35.3335 43.2207 34.9356 43.3651 34.5364L47.7703 33.5427C48.1977 33.446 48.5007 33.067 48.5007 32.6286V26.6359C48.5007 26.1981 48.1977 25.8191 47.7709 25.7224L43.3651 24.725C43.22 24.3246 43.0547 23.9266 42.8717 23.5348L45.2827 19.718C45.5166 19.3476 45.4627 18.8651 45.1529 18.5553L40.9143 14.3167C40.6045 14.0069 40.122 13.9536 39.7516 14.1869L35.9324 16.598C35.5448 16.4161 35.1475 16.2508 34.7452 16.1039L33.7479 11.6993C33.6511 11.2726 33.2715 10.9695 32.8344 10.9695H26.841C26.4033 10.9683 26.0243 11.2714 25.9276 11.6987ZM29.8374 36.6033C29.1015 36.6033 28.3747 36.4889 27.6774 36.2635C27.1851 36.1044 26.6568 36.3744 26.4976 36.8666C26.3384 37.3589 26.6084 37.8872 27.1006 38.0464C27.9847 38.3324 28.9056 38.4775 29.8368 38.4775C34.7165 38.4775 38.6863 34.5088 38.6863 29.631C38.6863 24.7513 34.7165 20.7815 29.8368 20.7815C26.748 20.7815 23.9341 22.3507 22.3098 24.9797C22.0379 25.4199 22.1738 25.9973 22.614 26.2691C23.0543 26.541 23.6316 26.405 23.9034 25.9648C25.1843 23.8924 27.4019 22.6556 29.8368 22.6556C33.6836 22.6556 36.8128 25.7848 36.8128 29.6316C36.814 33.4753 33.6842 36.6033 29.8374 36.6033ZM59.3707 27.1214C59.0046 26.7559 58.4119 26.7559 58.0458 27.1214L55.9965 29.1706C55.9023 23.6297 54.1022 18.3729 50.7759 13.9414C47.4709 9.53868 42.767 6.22761 37.531 4.618C37.0369 4.46555 36.5122 4.74351 36.3604 5.23821C36.2085 5.73291 36.4859 6.257 36.9806 6.40884C47.1177 9.5246 53.9663 18.6772 54.1243 29.2569L51.9863 27.1208C51.6202 26.7552 51.0269 26.7552 50.6614 27.1214C50.2959 27.4875 50.2959 28.0802 50.662 28.4463L54.3557 32.137C54.5388 32.3194 54.7782 32.4112 55.0176 32.4112C55.2576 32.4112 55.497 32.3194 55.68 32.137L59.3707 28.4463C59.7368 28.0802 59.7368 27.4875 59.3707 27.1214ZM30.198 43.2114C30.0474 42.5183 29.6372 41.9257 29.0427 41.543C28.7354 41.3446 28.3968 41.2148 28.046 41.1567C28.0802 40.8677 28.0662 40.5714 28.0025 40.2781C27.8519 39.585 27.4417 38.9924 26.8453 38.6079C26.489 38.3795 26.0972 38.2472 25.7022 38.205C25.7133 37.3203 25.2829 36.4491 24.4851 35.9348C24.2604 35.7903 24.0192 35.6825 23.7688 35.6121L26.5288 31.3184C26.9114 30.7269 27.04 30.0186 26.8906 29.3249C26.7406 28.6287 26.3304 28.0342 25.7322 27.6485C24.5047 26.8624 22.8614 27.2187 22.0673 28.4457L16.9819 36.3535C16.8136 36.154 16.6146 35.9795 16.3899 35.8356C15.7954 35.4523 15.0858 35.3243 14.3915 35.4756C13.6984 35.6262 13.1057 36.0364 12.7225 36.6315L8.93263 42.5238C7.85996 44.1873 7.47914 46.0247 7.80241 47.9851L7.98241 49.0701L6.1481 51.9189C5.8683 52.3536 5.99381 52.9334 6.42851 53.2138C6.86321 53.4942 7.44301 53.3687 7.72342 52.9334L9.75304 49.7809C9.87917 49.5856 9.92754 49.3499 9.88958 49.1203L9.6508 47.6796C9.40222 46.1723 9.68264 44.818 10.5073 43.5383L14.2972 37.646C14.4092 37.4721 14.5837 37.3515 14.7888 37.3068C14.9933 37.2621 15.2009 37.2995 15.3766 37.4127C15.5492 37.523 15.6686 37.6968 15.7133 37.9007C15.758 38.1058 15.7213 38.3146 15.6092 38.4879C15.6092 38.4879 15.6092 38.4885 15.6086 38.4885L12.1506 43.8634C11.8708 44.2988 11.9963 44.878 12.4317 45.1584C12.5884 45.2594 12.7641 45.3078 12.9374 45.3078C13.2453 45.3078 13.5472 45.1559 13.726 44.878L17.184 39.503C17.184 39.503 17.184 39.5024 17.1846 39.5024C17.1852 39.5011 17.1858 39.5005 17.1864 39.4993L23.6408 29.4632C23.8747 29.102 24.359 28.9967 24.719 29.2269C24.8935 29.3396 25.0141 29.5147 25.0582 29.721C25.1022 29.9249 25.0655 30.1312 24.9529 30.3045L21.0173 36.4264C21.0148 36.4301 21.0124 36.4331 21.0099 36.4368L18.9503 39.6426C18.6705 40.0779 18.7966 40.6577 19.232 40.9369C19.3887 41.0373 19.5638 41.0857 19.7377 41.0857C20.0456 41.0857 20.3475 40.9338 20.5269 40.6552L22.3906 37.755C22.3924 37.7519 22.3949 37.7489 22.3973 37.7458L22.3998 37.7415C22.5093 37.5713 22.6814 37.4532 22.884 37.4091C23.0898 37.3644 23.2979 37.4011 23.47 37.5113C23.8318 37.7446 23.9371 38.2277 23.7039 38.5895L23.2777 39.2526L21.834 41.4953C21.5542 41.93 21.6797 42.5098 22.1144 42.7902C22.2712 42.8912 22.4469 42.9396 22.6208 42.9396C22.9287 42.9396 23.23 42.7877 23.4094 42.5098L24.752 40.4244C24.7526 40.4232 24.7539 40.422 24.7551 40.4207C24.7551 40.4201 24.7557 40.4201 24.7557 40.4195C24.9884 40.0601 25.472 39.9554 25.832 40.1856C26.0059 40.2977 26.1265 40.4722 26.1712 40.6773C26.2159 40.8818 26.1786 41.0893 26.0659 41.2638L25.3747 42.3402C25.3496 42.3787 25.3294 42.4191 25.3104 42.4602L24.6871 43.4294C24.4073 43.8647 24.5335 44.4439 24.9682 44.7237C25.1249 44.8247 25.3006 44.8724 25.4739 44.8724C25.7818 44.8724 26.0837 44.7206 26.2625 44.442L27.0259 43.2543C27.1343 43.1336 27.2776 43.0498 27.441 43.0143C27.6455 42.9696 27.8531 43.0069 28.0264 43.1183C28.2002 43.2304 28.3209 43.4049 28.3656 43.61C28.4102 43.8145 28.3729 44.022 28.2609 44.1959L24.1716 50.5505C23.4455 51.6776 22.6802 52.4993 21.613 53.2958L18.3742 55.7075C18.2842 55.7742 18.207 55.8569 18.1458 55.9518L16.4682 58.5563C16.1878 58.991 16.3133 59.5708 16.7487 59.8512C16.9072 59.9516 17.0829 60 17.2568 60C17.5648 60 17.866 59.8482 18.0454 59.5702L19.6311 57.1083L22.7347 54.7971C23.9763 53.8701 24.9063 52.8728 25.7494 51.5638L29.8386 45.2098C30.2207 44.6153 30.3486 43.9057 30.198 43.2114Z" fill="#0CB4C4"></path></svg>