<svg width="60" height="61" viewBox="0 0 60 61" fill="none" xmlns="http://www.w3.org/2000/svg"><path d="M55.7609 0.0585938H4.52779C2.20411 0.0585938 0.311523 1.94863 0.311523 4.27486V55.8423C0.311523 58.166 2.20156 60.0586 4.52779 60.0586H55.7583C58.082 60.0586 59.9746 58.1686 59.9746 55.8423V4.27486C59.9771 1.94863 58.0846 0.0585938 55.7609 0.0585938ZM4.52779 1.82365H55.7583C57.1102 1.82365 58.2095 2.923 58.2095 4.27486V8.52939H2.07645V4.27486C2.07645 2.923 3.17593 1.82365 4.52779 1.82365ZM55.7609 58.2911H4.52779C3.17593 58.2911 2.07658 57.1917 2.07658 55.8398V10.2948H58.2097V55.8425C58.2122 57.1918 57.1128 58.2911 55.7609 58.2911ZM31.3971 5.17538C31.3971 4.6882 31.7925 4.29282 32.2797 4.29282H52.8589C53.346 4.29282 53.7414 4.68817 53.7414 5.17538C53.7414 5.66256 53.3461 6.05794 52.8589 6.05794H32.2797C31.7925 6.05794 31.3971 5.66258 31.3971 5.17538ZM6.18112 5.17538C6.18112 4.6882 6.57648 4.29282 7.06369 4.29282H8.88235C9.36953 4.29282 9.76492 4.68817 9.76492 5.17538C9.76492 5.66256 9.36956 6.05794 8.88235 6.05794H7.06369C6.57651 6.05794 6.18112 5.66258 6.18112 5.17538ZM12.3002 5.17538C12.3002 4.6882 12.6956 4.29282 13.1828 4.29282H15.0015C15.4886 4.29282 15.884 4.68817 15.884 5.17538C15.884 5.66256 15.4887 6.05794 15.0015 6.05794H13.1828C12.6956 6.05794 12.3002 5.66258 12.3002 5.17538ZM18.4168 5.17538C18.4168 4.6882 18.8121 4.29282 19.2993 4.29282H21.118C21.6052 4.29282 22.0006 4.68817 22.0006 5.17538C22.0006 5.66256 21.6052 6.05794 21.118 6.05794H19.2993C18.8122 6.05794 18.4168 5.66258 18.4168 5.17538ZM44.1277 47.7971V41.7928C44.1277 40.4282 43.0182 39.316 41.651 39.316H31.0271V38.0203H31.6826C32.5779 38.0203 33.3074 37.2908 33.3074 36.3955V35.9083C33.3074 35.2426 33.6747 34.6941 34.2894 34.4391C34.9041 34.184 35.552 34.3141 36.0238 34.7834L36.3707 35.1303C37.0033 35.7629 38.0338 35.7629 38.6689 35.1303L40.842 32.9572C41.1481 32.6511 41.3165 32.2429 41.3165 31.8094C41.3165 31.3757 41.1481 30.9676 40.842 30.6615L40.4951 30.3147C40.0258 29.8453 39.8957 29.1949 40.1508 28.5802C40.4059 27.9655 40.9543 27.5982 41.62 27.5982H42.1097C43.005 27.5982 43.7345 26.8687 43.7345 25.9734V22.8973C43.7345 22.002 43.005 21.2725 42.1097 21.2725H41.62C40.9543 21.2725 40.4059 20.9052 40.1508 20.2905C39.8957 19.6758 40.0258 19.0279 40.4951 18.5586L40.842 18.2117C41.1481 17.9056 41.3165 17.4975 41.3165 17.0639C41.3165 16.6303 41.1481 16.2222 40.842 15.9161L38.6689 13.7429C38.3628 13.4369 37.9546 13.2685 37.5211 13.2685C37.0875 13.2685 36.6793 13.4369 36.3733 13.7429L36.0264 14.0898C35.557 14.5592 34.9066 14.6893 34.2919 14.4342C33.6772 14.1791 33.3099 13.6307 33.3099 12.965V12.4753C33.3099 11.58 32.5804 10.8505 31.6851 10.8505H28.609C27.7137 10.8505 26.9842 11.58 26.9842 12.4753V12.965C26.9842 13.6307 26.6169 14.1791 26.0022 14.4342C25.3875 14.6892 24.7396 14.5592 24.2678 14.0898L23.9209 13.7429C23.6148 13.4369 23.2067 13.2685 22.7731 13.2685C22.3395 13.2685 21.9313 13.4369 21.6253 13.7429L19.4521 15.9161C18.8195 16.5487 18.8195 17.5792 19.4521 18.2117L19.799 18.5586C20.2683 19.0279 20.3984 19.6783 20.1433 20.2905C19.8883 20.9052 19.3399 21.2725 18.6741 21.2725H18.1844C17.2891 21.2725 16.5596 22.002 16.5596 22.8973V25.9734C16.5596 26.8687 17.2891 27.5982 18.1844 27.5982H18.6741C19.3399 27.5982 19.8883 27.9655 20.1433 28.5802C20.3984 29.1949 20.2683 29.8428 19.799 30.3147L19.4521 30.6615C19.146 30.9676 18.9777 31.3758 18.9777 31.8094C18.9777 32.243 19.146 32.6511 19.4521 32.9572L21.6253 35.1303C21.9314 35.4364 22.3395 35.6047 22.7731 35.6047C23.2067 35.6047 23.6148 35.4364 23.9209 35.1303L24.2678 34.7834C24.7371 34.3141 25.3875 34.184 26.0022 34.4391C26.6169 34.6942 26.9842 35.2426 26.9842 35.9083V36.398C26.9842 37.2933 27.7137 38.0228 28.609 38.0228H29.2645V42.2162L18.6361 42.2136C17.2715 42.2136 16.1593 43.3231 16.1593 44.6903V50.6947C14.6212 51.0875 13.4785 52.4852 13.4785 54.1458C13.4785 56.1098 15.0752 57.7091 17.0418 57.7091C19.0058 57.7091 20.6051 56.1123 20.6051 54.1458C20.6051 52.4852 19.4649 51.0875 17.9243 50.6947V44.6903C17.9243 44.2975 18.2431 43.9787 18.6359 43.9787H29.2618V45.675C27.7237 46.0678 26.581 47.4656 26.581 49.1261C26.581 51.0901 28.1777 52.6894 30.1443 52.6894C32.1083 52.6894 33.7076 51.0926 33.7076 49.1261C33.7076 47.4656 32.5674 46.0678 31.0268 45.675V41.0812H41.6527C42.0455 41.0812 42.3643 41.4 42.3643 41.7928V47.7971C40.8262 48.1899 39.6835 49.5877 39.6835 51.2482C39.6835 53.2122 41.2828 54.8115 43.2468 54.8115C45.2108 54.8115 46.8101 53.2148 46.8101 51.2482C46.8075 49.5877 45.6648 48.1899 44.1267 47.7971H44.1277ZM26.6756 32.8067C25.3978 32.2762 23.9974 32.5567 23.0179 33.5337L22.7705 33.7811L20.7937 31.8043L21.0412 31.5569C22.0181 30.58 22.2987 29.1771 21.7681 27.8992C21.2401 26.6213 20.0515 25.828 18.669 25.828H18.3196V23.0351H18.669C20.0515 23.0351 21.2401 22.2418 21.7681 20.9639C22.2961 19.6859 22.0181 18.2856 21.0412 17.3062L20.7937 17.0588L22.7705 15.082L23.0179 15.3294C23.9948 16.3063 25.3977 16.5869 26.6756 16.0564C27.9535 15.5284 28.7468 14.3398 28.7468 12.9573V12.6078H31.5398V12.9573C31.5398 14.3398 32.333 15.5284 33.6109 16.0564C34.8888 16.5844 36.2892 16.3063 37.2687 15.3294L37.5161 15.082L39.4928 17.0588L39.2454 17.3062C38.2685 18.2831 37.9879 19.6859 38.5185 20.9639C39.0464 22.2418 40.2351 23.0351 41.6175 23.0351H41.967V25.828H41.6175C40.2351 25.828 39.0465 26.6213 38.5185 27.8992C37.9905 29.1771 38.2685 30.5774 39.2454 31.5569L39.4928 31.8043L37.5161 33.7811L37.2687 33.5337C36.2917 32.5567 34.8889 32.2762 33.6109 32.8067C32.3331 33.3347 31.5398 34.5233 31.5398 35.9058V36.2552H28.7468V35.9083C28.7468 34.5259 27.9536 33.3372 26.6756 32.8067ZM18.8425 54.146C18.8425 55.1382 18.0365 55.9442 17.0443 55.9442C16.0521 55.9442 15.2461 55.1382 15.2461 54.146C15.2461 53.1538 16.0521 52.3477 17.0443 52.3477C18.0365 52.3477 18.8425 53.1538 18.8425 54.146ZM31.9425 49.1288C31.9425 50.121 31.1365 50.927 30.1443 50.927C29.1521 50.927 28.3461 50.121 28.3461 49.1288C28.3461 48.1366 29.1521 47.3305 30.1443 47.3305C31.1365 47.3305 31.9425 48.1366 31.9425 49.1288ZM43.2449 53.0466C42.2527 53.0466 41.4467 52.2406 41.4467 51.2484C41.4467 50.2562 42.2527 49.4502 43.2449 49.4502C44.2371 49.4502 45.0431 50.2562 45.0431 51.2484C45.0431 52.2406 44.2371 53.0466 43.2449 53.0466ZM30.1449 32.0365C32.1752 32.0365 34.0831 31.2458 35.5192 29.8097C36.9552 28.3737 37.746 26.4657 37.746 24.4354C37.746 22.405 36.9553 20.4971 35.5192 19.061C34.0832 17.625 32.1752 16.8343 30.1449 16.8343C28.1145 16.8343 26.2067 17.625 24.7706 19.061C23.3345 20.4971 22.5438 22.405 22.5438 24.4354C22.5438 26.4657 23.3345 28.3736 24.7706 29.8097C26.2066 31.2457 28.1145 32.0365 30.1449 32.0365ZM24.3089 24.4352C24.3089 22.8767 24.916 21.4101 26.0179 20.3082C27.1198 19.2063 28.5864 18.5992 30.1449 18.5992C31.7033 18.5992 33.17 19.2063 34.2719 20.3082C35.3738 21.4101 35.9809 22.8767 35.9809 24.4352C35.9809 25.9936 35.3738 27.4603 34.2719 28.5622C33.17 29.6641 31.7033 30.2711 30.1449 30.2711C28.5864 30.2711 27.1198 29.6641 26.0179 28.5622C24.916 27.4577 24.3089 25.9936 24.3089 24.4352ZM28.242 23.2874L26.8494 24.4352L28.242 25.583C28.6195 25.8916 28.6706 26.4476 28.3619 26.8251C28.1885 27.0368 27.936 27.1465 27.6809 27.1465C27.4845 27.1465 27.2855 27.0802 27.1197 26.945L24.9007 25.1162C24.6966 24.9478 24.5793 24.6978 24.5793 24.4351C24.5793 24.1724 24.6966 23.9224 24.9007 23.754L27.1197 21.9252C27.4947 21.6166 28.0507 21.6701 28.3619 22.0451C28.6705 22.4226 28.6195 22.9762 28.242 23.2874ZM29.6577 27.1338C29.5812 27.1338 29.5047 27.1236 29.4281 27.1032C28.9588 26.9782 28.6783 26.4936 28.8032 26.0217L29.7776 22.3844C29.9026 21.9151 30.3872 21.6346 30.8591 21.7595C31.3284 21.8845 31.6089 22.3691 31.484 22.841L30.5096 26.4783C30.405 26.8736 30.048 27.1338 29.6577 27.1338ZM32.0477 25.5804L33.4404 24.4326L32.0477 23.2848C31.6702 22.9762 31.6192 22.4201 31.9278 22.0427C32.2365 21.6652 32.7951 21.6141 33.17 21.9228L35.3891 23.7516C35.5931 23.92 35.7105 24.1699 35.7105 24.4327C35.7105 24.6954 35.5931 24.9454 35.3891 25.1137L33.17 26.9426C33.0042 27.0778 32.8078 27.1441 32.6089 27.1441C32.3538 27.1441 32.1013 27.0344 31.9278 26.8227C31.6192 26.4452 31.6702 25.8916 32.0477 25.5804Z" fill="#0CB4C4"></path></svg>