<svg width="92" height="60" viewBox="0 0 92 60" fill="none" xmlns="http://www.w3.org/2000/svg"><mask id="path-1-inside-1_1824_6" fill="white"><path fill-rule="evenodd" clip-rule="evenodd" d="M31.6256 6.68887C36.9278 1.37089 44.4984 -0.985515 51.8717 0.381062C59.241 1.75144 65.4689 6.67357 68.5215 13.545L73.0197 10.9411V10.9373C73.3459 10.7508 73.7441 10.747 74.0703 10.9297L78.7771 13.5259L84.4815 9.83335C83.9353 7.99472 84.819 6.03426 86.5523 5.23096C88.2894 4.42774 90.3489 5.02921 91.3843 6.63945C92.4235 8.24965 92.1201 10.3814 90.6789 11.6415C89.2376 12.8977 87.0909 12.9015 85.6459 11.6453L79.4258 15.669C79.092 15.8974 78.6596 15.9203 78.3032 15.7261L73.5622 13.1109L69.3106 15.5738C70.0919 17.9187 70.4901 20.3703 70.4901 22.8446C70.4901 23.1187 70.4863 23.3966 70.4749 23.6745L76.2512 22.1175C76.293 20.2865 77.609 18.7371 79.403 18.4097C81.1971 18.0823 82.972 19.0683 83.6547 20.7661C84.3336 22.4639 83.7268 24.4054 82.2059 25.4141C80.685 26.4229 78.6673 26.2211 77.3776 24.9269C77.1615 24.7099 76.9718 24.47 76.8125 24.2074L70.27 25.9661C69.7504 29.7805 68.2788 33.3969 65.9841 36.4842L66.5682 37.0704C68.5177 36.3395 70.672 36.4004 72.5797 37.2417C72.7011 37.295 72.8111 37.3711 72.9059 37.4663L82.532 47.1201C85.4675 50.0665 85.4675 54.844 82.532 57.7902C79.5964 60.7366 74.8364 60.7366 71.9011 57.7902L62.2788 48.1325C62.1726 48.0221 62.0892 47.8927 62.0323 47.748C61.2206 45.8485 61.1675 43.7053 61.8882 41.7714L61.3041 41.1852C56.9197 44.4552 51.5072 46.0388 46.0612 45.6353C40.611 45.2356 35.4866 42.883 31.6223 39.0077C31.0116 38.3948 30.4389 37.7477 29.9004 37.0701L23.0696 38.9087V50.0582C24.9015 50.595 26.0583 52.4031 25.789 54.299C25.5159 56.1909 23.9002 57.5994 21.9924 57.5994C20.0847 57.5994 18.4689 56.1909 18.1958 54.299C17.9265 52.4032 19.0833 50.595 20.9152 50.0582V38.0706C20.9152 37.5795 21.2414 37.1532 21.7117 37.0238L28.5577 35.1851H28.5615C27.9584 34.2449 27.4274 33.2627 26.9685 32.2464L24.4653 33.6967H24.4691C24.1316 33.8909 23.7182 33.8871 23.3844 33.6853L15.3438 29.0259C13.8609 30.4534 11.5207 30.4534 10.0378 29.0259L7.57243 30.4534C8.02756 32.3149 7.04903 34.2335 5.27401 34.9492C3.50281 35.6649 1.47363 34.9606 0.517924 33.3009C-0.441642 31.6412 -0.035816 29.5246 1.46991 28.3407C2.97186 27.153 5.11474 27.2596 6.49912 28.5882L8.96066 27.1607C8.68378 26.011 8.94928 24.8005 9.6737 23.8717C10.4019 22.9428 11.5132 22.4023 12.6928 22.4023C13.8685 22.4023 14.9798 22.9428 15.708 23.8717C16.4362 24.8005 16.6979 26.011 16.4211 27.1607L23.9346 31.5157L26.1723 30.2138C24.8031 26.1749 24.5869 21.8275 25.5541 17.6707C26.5174 13.5137 28.6186 9.70695 31.6263 6.68777L31.6256 6.68887ZM46.6451 14.7782V24.7593C46.6451 25.357 47.1268 25.8404 47.7223 25.8404C48.3178 25.8404 48.7995 25.357 48.7995 24.7593V14.7782C48.7995 14.1806 48.3178 13.6971 47.7223 13.6971C47.1269 13.6971 46.6451 14.1805 46.6451 14.7782ZM47.7223 29.3464C48.0144 29.354 48.2988 29.2436 48.5074 29.0419C48.716 28.8363 48.8336 28.5584 48.8336 28.2653C48.8336 27.9721 48.716 27.6905 48.5074 27.4887C48.2988 27.2831 48.0144 27.1727 47.7223 27.1803C47.4303 27.1727 47.1496 27.2831 46.9372 27.4887C46.7286 27.6904 46.611 27.9721 46.611 28.2653C46.611 28.5584 46.7286 28.8363 46.9372 29.0419C47.1496 29.2436 47.4303 29.354 47.7223 29.3464ZM50.4986 10.6969C50.4873 10.6779 50.4759 10.655 50.4645 10.636C50.1876 10.1525 49.7894 9.75283 49.3115 9.47494C48.3519 8.92677 47.1838 8.91155 46.2128 9.43307C46.1863 9.44449 46.1635 9.45971 46.137 9.47113L46.1408 9.47494C45.6591 9.75284 45.2608 10.1563 44.9878 10.6398L34.9297 28.1237C34.9146 28.1428 34.9032 28.158 34.8956 28.177C34.0271 29.6997 34.5391 31.6374 36.0448 32.5243C36.5265 32.8022 37.0727 32.9468 37.6302 32.9468H57.8113C58.3423 32.9468 58.8619 32.8174 59.3246 32.5624L59.4005 32.5243C60.1325 32.1056 60.6635 31.409 60.8796 30.5943C61.0958 29.7758 60.9782 28.9078 60.5534 28.1769L50.4986 10.6969ZM58.6948 29.2548L48.6367 11.7737C48.6254 11.7547 48.614 11.7395 48.6026 11.7166V11.7205C48.5154 11.5606 48.3864 11.4311 48.2309 11.3398C48.0754 11.2522 47.901 11.2104 47.7227 11.2142C47.5558 11.2104 47.3927 11.2446 47.2448 11.3169L47.2107 11.3398C47.059 11.4311 46.93 11.5606 46.8428 11.7205L36.7886 29.2015C36.7772 29.2205 36.7697 29.2434 36.7583 29.2624H36.7545C36.5686 29.5745 36.5686 29.9628 36.7545 30.275C36.8417 30.4311 36.9707 30.5643 37.1224 30.6557C37.2817 30.7432 37.4562 30.7851 37.6344 30.7813H57.8116C57.9785 30.7851 58.1416 30.7509 58.2895 30.6785L58.3237 30.6595V30.6557C58.4754 30.5643 58.6043 30.4349 58.6916 30.275C58.8774 29.9629 58.8774 29.5746 58.6916 29.2624L58.6948 29.2548ZM5.03457 30.176C4.46945 29.605 3.58193 29.5175 2.91441 29.9628C2.24688 30.4082 1.98519 31.2647 2.2924 32.0109C2.59582 32.7532 3.38472 33.1796 4.16982 33.0235C4.95872 32.8675 5.52759 32.1746 5.52759 31.3676C5.52759 30.9222 5.34937 30.492 5.03457 30.176ZM81.2801 21.0094C80.7149 20.4384 79.8274 20.3509 79.1599 20.7963C78.4924 21.2416 78.2307 22.0981 78.5341 22.8443C78.8413 23.5866 79.6302 24.013 80.4153 23.857C81.2042 23.7009 81.7693 23.0081 81.7731 22.2048C81.7731 21.7556 81.5949 21.3254 81.2801 21.0094ZM23.1863 52.5559C22.6174 51.9887 21.7299 51.9011 21.0624 52.3465C20.3948 52.7957 20.1369 53.6522 20.4441 54.3984C20.7476 55.1407 21.5365 55.5632 22.3254 55.4072C23.1105 55.2511 23.6756 54.5583 23.6756 53.7513C23.6756 53.3021 23.5011 52.8757 23.1863 52.5559ZM13.8827 25.0519C13.3176 24.4847 12.4263 24.3971 11.7588 24.8425C11.0912 25.2917 10.8333 26.1482 11.1405 26.8944C11.4478 27.6367 12.2366 28.0592 13.0217 27.9032C13.8106 27.7471 14.3757 27.0543 14.3757 26.2473C14.3757 25.7981 14.2013 25.3679 13.8827 25.0519ZM89.3436 7.53282C88.7746 6.96181 87.8871 6.87045 87.2158 7.31964C86.5483 7.76503 86.2866 8.62531 86.5938 9.37151C86.901 10.1177 87.6899 10.5402 88.4788 10.3841C89.2677 10.2281 89.8366 9.53143 89.8366 8.72442C89.8366 8.27903 89.6584 7.84882 89.3436 7.53282ZM68.3129 38.8092L69.8224 40.3243H69.8186C69.9931 40.4994 70.0993 40.7278 70.1258 40.9715C70.2548 42.1515 69.8527 43.3241 69.0222 44.173C68.1953 45.0181 67.0309 45.4482 65.8514 45.3378C65.5822 45.3264 65.328 45.216 65.1384 45.0219L63.6289 43.5068C63.4468 44.5194 63.5303 45.5586 63.8754 46.5256C65.9956 47.2869 68.3585 46.7502 69.9514 45.1552C71.5443 43.5564 72.0753 41.181 71.3206 39.0568C70.6531 38.817 69.9514 38.699 69.246 38.7142C68.9312 38.7218 68.6201 38.7521 68.3129 38.8092ZM33.8288 8.89618C29.5088 13.232 27.4418 19.3382 28.2382 25.4173C29.0347 31.4967 32.6037 36.8563 37.8946 39.9251C43.1855 42.9895 49.5955 43.412 55.2386 41.0671C60.8817 38.7222 65.119 33.8724 66.7006 27.9529C68.286 22.0297 67.0344 15.707 63.3137 10.8412C59.5968 5.97621 53.8356 3.12114 47.7251 3.12114C42.5139 3.11353 37.5106 5.1922 33.8288 8.89618ZM35.3496 10.4265C31.5038 14.2865 29.6681 19.7226 30.3773 25.136C31.0866 30.5492 34.2649 35.3227 38.9755 38.0484C43.6862 40.7779 49.3938 41.1547 54.4194 39.0648C59.445 36.975 63.2148 32.6581 64.6221 27.3861C66.0292 22.11 64.9104 16.4802 61.5993 12.1514C58.2881 7.81933 53.1566 5.28401 47.7176 5.28401C43.0791 5.2802 38.6263 7.12985 35.3496 10.4265ZM64.6148 38.1585C64.3569 38.444 64.0914 38.7219 63.8184 38.9998C63.5453 39.2739 63.2646 39.5404 62.984 39.7992L66.3633 43.1911C66.515 43.1797 66.6668 43.1454 66.8109 43.0959C67.3191 42.9132 67.7173 42.5097 67.8994 42.0034C67.9525 41.8549 67.9828 41.7064 67.9942 41.5542L64.6148 38.1585ZM67.3001 48.89C66.9436 48.9547 66.5832 48.9966 66.2229 49.0156L73.4292 56.2523C75.5227 58.3497 78.9135 58.3497 81.0071 56.2523C83.1007 54.151 83.1007 50.7478 81.0071 48.6464L73.8009 41.4136C73.6188 45.1137 70.9298 48.2086 67.3001 48.89ZM47.7219 2.1625C41.3159 2.1625 35.2744 5.15079 31.3751 10.2518C27.4758 15.3529 26.16 21.9842 27.8212 28.1968C29.4786 34.4055 33.9199 39.4915 39.8367 41.9502C45.7572 44.4093 52.4784 43.9678 58.0264 40.7549C63.5751 37.5382 67.3148 31.9156 68.1534 25.5435C68.9878 19.1672 66.8221 12.7646 62.2935 8.21937C58.4324 4.33267 53.1875 2.15481 47.7219 2.1625Z"></path></mask><path fill-rule="evenodd" clip-rule="evenodd" d="M31.6256 6.68887C36.9278 1.37089 44.4984 -0.985515 51.8717 0.381062C59.241 1.75144 65.4689 6.67357 68.5215 13.545L73.0197 10.9411V10.9373C73.3459 10.7508 73.7441 10.747 74.0703 10.9297L78.7771 13.5259L84.4815 9.83335C83.9353 7.99472 84.819 6.03426 86.5523 5.23096C88.2894 4.42774 90.3489 5.02921 91.3843 6.63945C92.4235 8.24965 92.1201 10.3814 90.6789 11.6415C89.2376 12.8977 87.0909 12.9015 85.6459 11.6453L79.4258 15.669C79.092 15.8974 78.6596 15.9203 78.3032 15.7261L73.5622 13.1109L69.3106 15.5738C70.0919 17.9187 70.4901 20.3703 70.4901 22.8446C70.4901 23.1187 70.4863 23.3966 70.4749 23.6745L76.2512 22.1175C76.293 20.2865 77.609 18.7371 79.403 18.4097C81.1971 18.0823 82.972 19.0683 83.6547 20.7661C84.3336 22.4639 83.7268 24.4054 82.2059 25.4141C80.685 26.4229 78.6673 26.2211 77.3776 24.9269C77.1615 24.7099 76.9718 24.47 76.8125 24.2074L70.27 25.9661C69.7504 29.7805 68.2788 33.3969 65.9841 36.4842L66.5682 37.0704C68.5177 36.3395 70.672 36.4004 72.5797 37.2417C72.7011 37.295 72.8111 37.3711 72.9059 37.4663L82.532 47.1201C85.4675 50.0665 85.4675 54.844 82.532 57.7902C79.5964 60.7366 74.8364 60.7366 71.9011 57.7902L62.2788 48.1325C62.1726 48.0221 62.0892 47.8927 62.0323 47.748C61.2206 45.8485 61.1675 43.7053 61.8882 41.7714L61.3041 41.1852C56.9197 44.4552 51.5072 46.0388 46.0612 45.6353C40.611 45.2356 35.4866 42.883 31.6223 39.0077C31.0116 38.3948 30.4389 37.7477 29.9004 37.0701L23.0696 38.9087V50.0582C24.9015 50.595 26.0583 52.4031 25.789 54.299C25.5159 56.1909 23.9002 57.5994 21.9924 57.5994C20.0847 57.5994 18.4689 56.1909 18.1958 54.299C17.9265 52.4032 19.0833 50.595 20.9152 50.0582V38.0706C20.9152 37.5795 21.2414 37.1532 21.7117 37.0238L28.5577 35.1851H28.5615C27.9584 34.2449 27.4274 33.2627 26.9685 32.2464L24.4653 33.6967H24.4691C24.1316 33.8909 23.7182 33.8871 23.3844 33.6853L15.3438 29.0259C13.8609 30.4534 11.5207 30.4534 10.0378 29.0259L7.57243 30.4534C8.02756 32.3149 7.04903 34.2335 5.27401 34.9492C3.50281 35.6649 1.47363 34.9606 0.517924 33.3009C-0.441642 31.6412 -0.035816 29.5246 1.46991 28.3407C2.97186 27.153 5.11474 27.2596 6.49912 28.5882L8.96066 27.1607C8.68378 26.011 8.94928 24.8005 9.6737 23.8717C10.4019 22.9428 11.5132 22.4023 12.6928 22.4023C13.8685 22.4023 14.9798 22.9428 15.708 23.8717C16.4362 24.8005 16.6979 26.011 16.4211 27.1607L23.9346 31.5157L26.1723 30.2138C24.8031 26.1749 24.5869 21.8275 25.5541 17.6707C26.5174 13.5137 28.6186 9.70695 31.6263 6.68777L31.6256 6.68887ZM46.6451 14.7782V24.7593C46.6451 25.357 47.1268 25.8404 47.7223 25.8404C48.3178 25.8404 48.7995 25.357 48.7995 24.7593V14.7782C48.7995 14.1806 48.3178 13.6971 47.7223 13.6971C47.1269 13.6971 46.6451 14.1805 46.6451 14.7782ZM47.7223 29.3464C48.0144 29.354 48.2988 29.2436 48.5074 29.0419C48.716 28.8363 48.8336 28.5584 48.8336 28.2653C48.8336 27.9721 48.716 27.6905 48.5074 27.4887C48.2988 27.2831 48.0144 27.1727 47.7223 27.1803C47.4303 27.1727 47.1496 27.2831 46.9372 27.4887C46.7286 27.6904 46.611 27.9721 46.611 28.2653C46.611 28.5584 46.7286 28.8363 46.9372 29.0419C47.1496 29.2436 47.4303 29.354 47.7223 29.3464ZM50.4986 10.6969C50.4873 10.6779 50.4759 10.655 50.4645 10.636C50.1876 10.1525 49.7894 9.75283 49.3115 9.47494C48.3519 8.92677 47.1838 8.91155 46.2128 9.43307C46.1863 9.44449 46.1635 9.45971 46.137 9.47113L46.1408 9.47494C45.6591 9.75284 45.2608 10.1563 44.9878 10.6398L34.9297 28.1237C34.9146 28.1428 34.9032 28.158 34.8956 28.177C34.0271 29.6997 34.5391 31.6374 36.0448 32.5243C36.5265 32.8022 37.0727 32.9468 37.6302 32.9468H57.8113C58.3423 32.9468 58.8619 32.8174 59.3246 32.5624L59.4005 32.5243C60.1325 32.1056 60.6635 31.409 60.8796 30.5943C61.0958 29.7758 60.9782 28.9078 60.5534 28.1769L50.4986 10.6969ZM58.6948 29.2548L48.6367 11.7737C48.6254 11.7547 48.614 11.7395 48.6026 11.7166V11.7205C48.5154 11.5606 48.3864 11.4311 48.2309 11.3398C48.0754 11.2522 47.901 11.2104 47.7227 11.2142C47.5558 11.2104 47.3927 11.2446 47.2448 11.3169L47.2107 11.3398C47.059 11.4311 46.93 11.5606 46.8428 11.7205L36.7886 29.2015C36.7772 29.2205 36.7697 29.2434 36.7583 29.2624H36.7545C36.5686 29.5745 36.5686 29.9628 36.7545 30.275C36.8417 30.4311 36.9707 30.5643 37.1224 30.6557C37.2817 30.7432 37.4562 30.7851 37.6344 30.7813H57.8116C57.9785 30.7851 58.1416 30.7509 58.2895 30.6785L58.3237 30.6595V30.6557C58.4754 30.5643 58.6043 30.4349 58.6916 30.275C58.8774 29.9629 58.8774 29.5746 58.6916 29.2624L58.6948 29.2548ZM5.03457 30.176C4.46945 29.605 3.58193 29.5175 2.91441 29.9628C2.24688 30.4082 1.98519 31.2647 2.2924 32.0109C2.59582 32.7532 3.38472 33.1796 4.16982 33.0235C4.95872 32.8675 5.52759 32.1746 5.52759 31.3676C5.52759 30.9222 5.34937 30.492 5.03457 30.176ZM81.2801 21.0094C80.7149 20.4384 79.8274 20.3509 79.1599 20.7963C78.4924 21.2416 78.2307 22.0981 78.5341 22.8443C78.8413 23.5866 79.6302 24.013 80.4153 23.857C81.2042 23.7009 81.7693 23.0081 81.7731 22.2048C81.7731 21.7556 81.5949 21.3254 81.2801 21.0094ZM23.1863 52.5559C22.6174 51.9887 21.7299 51.9011 21.0624 52.3465C20.3948 52.7957 20.1369 53.6522 20.4441 54.3984C20.7476 55.1407 21.5365 55.5632 22.3254 55.4072C23.1105 55.2511 23.6756 54.5583 23.6756 53.7513C23.6756 53.3021 23.5011 52.8757 23.1863 52.5559ZM13.8827 25.0519C13.3176 24.4847 12.4263 24.3971 11.7588 24.8425C11.0912 25.2917 10.8333 26.1482 11.1405 26.8944C11.4478 27.6367 12.2366 28.0592 13.0217 27.9032C13.8106 27.7471 14.3757 27.0543 14.3757 26.2473C14.3757 25.7981 14.2013 25.3679 13.8827 25.0519ZM89.3436 7.53282C88.7746 6.96181 87.8871 6.87045 87.2158 7.31964C86.5483 7.76503 86.2866 8.62531 86.5938 9.37151C86.901 10.1177 87.6899 10.5402 88.4788 10.3841C89.2677 10.2281 89.8366 9.53143 89.8366 8.72442C89.8366 8.27903 89.6584 7.84882 89.3436 7.53282ZM68.3129 38.8092L69.8224 40.3243H69.8186C69.9931 40.4994 70.0993 40.7278 70.1258 40.9715C70.2548 42.1515 69.8527 43.3241 69.0222 44.173C68.1953 45.0181 67.0309 45.4482 65.8514 45.3378C65.5822 45.3264 65.328 45.216 65.1384 45.0219L63.6289 43.5068C63.4468 44.5194 63.5303 45.5586 63.8754 46.5256C65.9956 47.2869 68.3585 46.7502 69.9514 45.1552C71.5443 43.5564 72.0753 41.181 71.3206 39.0568C70.6531 38.817 69.9514 38.699 69.246 38.7142C68.9312 38.7218 68.6201 38.7521 68.3129 38.8092ZM33.8288 8.89618C29.5088 13.232 27.4418 19.3382 28.2382 25.4173C29.0347 31.4967 32.6037 36.8563 37.8946 39.9251C43.1855 42.9895 49.5955 43.412 55.2386 41.0671C60.8817 38.7222 65.119 33.8724 66.7006 27.9529C68.286 22.0297 67.0344 15.707 63.3137 10.8412C59.5968 5.97621 53.8356 3.12114 47.7251 3.12114C42.5139 3.11353 37.5106 5.1922 33.8288 8.89618ZM35.3496 10.4265C31.5038 14.2865 29.6681 19.7226 30.3773 25.136C31.0866 30.5492 34.2649 35.3227 38.9755 38.0484C43.6862 40.7779 49.3938 41.1547 54.4194 39.0648C59.445 36.975 63.2148 32.6581 64.6221 27.3861C66.0292 22.11 64.9104 16.4802 61.5993 12.1514C58.2881 7.81933 53.1566 5.28401 47.7176 5.28401C43.0791 5.2802 38.6263 7.12985 35.3496 10.4265ZM64.6148 38.1585C64.3569 38.444 64.0914 38.7219 63.8184 38.9998C63.5453 39.2739 63.2646 39.5404 62.984 39.7992L66.3633 43.1911C66.515 43.1797 66.6668 43.1454 66.8109 43.0959C67.3191 42.9132 67.7173 42.5097 67.8994 42.0034C67.9525 41.8549 67.9828 41.7064 67.9942 41.5542L64.6148 38.1585ZM67.3001 48.89C66.9436 48.9547 66.5832 48.9966 66.2229 49.0156L73.4292 56.2523C75.5227 58.3497 78.9135 58.3497 81.0071 56.2523C83.1007 54.151 83.1007 50.7478 81.0071 48.6464L73.8009 41.4136C73.6188 45.1137 70.9298 48.2086 67.3001 48.89ZM47.7219 2.1625C41.3159 2.1625 35.2744 5.15079 31.3751 10.2518C27.4758 15.3529 26.16 21.9842 27.8212 28.1968C29.4786 34.4055 33.9199 39.4915 39.8367 41.9502C45.7572 44.4093 52.4784 43.9678 58.0264 40.7549C63.5751 37.5382 67.3148 31.9156 68.1534 25.5435C68.9878 19.1672 66.8221 12.7646 62.2935 8.21937C58.4324 4.33267 53.1875 2.15481 47.7219 2.1625Z" fill="#0CB4C4"></path><path d="M5.03836 30.1722L5.00294 30.1369L4.99915 30.1407L5.03457 30.176L5.06999 30.2113L5.07378 30.2075L5.03836 30.1722ZM81.2838 21.0056L81.2484 20.9703L81.2446 20.9741L81.2801 21.0094L81.3155 21.0447L81.3193 21.0409L81.2838 21.0056ZM13.8865 25.0519V25.0019H13.8827V25.0519V25.1019H13.8865V25.0519ZM35.3534 10.4265V10.3765H35.3496V10.4265V10.4765H35.3534V10.4265ZM31.6256 6.68887L31.5408 6.63581L31.6964 6.75948L31.6256 6.68887ZM51.8717 0.381062L51.89 0.282747L51.89 0.282737L51.8717 0.381062ZM68.5215 13.545L68.4301 13.5855L68.4753 13.6872L68.5716 13.6315L68.5215 13.545ZM73.0197 10.9411L73.0698 11.0277L73.1197 10.9988V10.9411H73.0197ZM73.0197 10.9373L72.9701 10.8505L72.9197 10.8793V10.9373H73.0197ZM74.0703 10.9297L74.0214 11.0169L74.022 11.0173L74.0703 10.9297ZM78.7771 13.5259L78.7289 13.6135L78.7813 13.6424L78.8315 13.6099L78.7771 13.5259ZM84.4815 9.83335L84.5358 9.9173L84.5986 9.87663L84.5773 9.80488L84.4815 9.83335ZM86.5523 5.23096L86.5103 5.1402L86.5102 5.14023L86.5523 5.23096ZM91.3843 6.63945L91.3002 6.69353L91.3003 6.69367L91.3843 6.63945ZM90.6789 11.6415L90.7446 11.7169L90.7447 11.7168L90.6789 11.6415ZM85.6459 11.6453L85.7115 11.5698L85.6547 11.5205L85.5915 11.5613L85.6459 11.6453ZM79.4258 15.669L79.3714 15.585L79.3693 15.5865L79.4258 15.669ZM78.3032 15.7261L78.2549 15.8137L78.2553 15.8139L78.3032 15.7261ZM73.5622 13.1109L73.6105 13.0233L73.561 12.996L73.5121 13.0243L73.5622 13.1109ZM69.3106 15.5738L69.2604 15.4873L69.1899 15.5281L69.2157 15.6054L69.3106 15.5738ZM70.4749 23.6745L70.375 23.6704L70.3694 23.8065L70.5009 23.7711L70.4749 23.6745ZM76.2512 22.1175L76.2773 22.2141L76.3495 22.1946L76.3512 22.1198L76.2512 22.1175ZM79.403 18.4097L79.421 18.5081L79.421 18.5081L79.403 18.4097ZM83.6547 20.7661L83.7476 20.729L83.7475 20.7288L83.6547 20.7661ZM82.2059 25.4141L82.1506 25.3308L82.1506 25.3308L82.2059 25.4141ZM77.3776 24.9269L77.3068 24.9974L77.3068 24.9974L77.3776 24.9269ZM76.8125 24.2074L76.898 24.1555L76.8591 24.0913L76.7866 24.1108L76.8125 24.2074ZM70.27 25.9661L70.244 25.8695L70.1799 25.8868L70.1709 25.9526L70.27 25.9661ZM65.9841 36.4842L65.9039 36.4245L65.8525 36.4937L65.9133 36.5547L65.9841 36.4842ZM66.5682 37.0704L66.4974 37.141L66.5429 37.1867L66.6033 37.164L66.5682 37.0704ZM72.5797 37.2417L72.5394 37.3332L72.5395 37.3333L72.5797 37.2417ZM72.9059 37.4663L72.8351 37.5369L72.8351 37.5369L72.9059 37.4663ZM82.532 47.1201L82.6028 47.0496L82.6028 47.0495L82.532 47.1201ZM82.532 57.7902L82.4611 57.7196L82.4611 57.7196L82.532 57.7902ZM71.9011 57.7902L71.9719 57.7196L71.9719 57.7196L71.9011 57.7902ZM62.2788 48.1325L62.2067 48.2018L62.208 48.2031L62.2788 48.1325ZM62.0323 47.748L62.1254 47.7114L62.1242 47.7087L62.0323 47.748ZM61.8882 41.7714L61.9819 41.8063L62.0043 41.7463L61.959 41.7008L61.8882 41.7714ZM61.3041 41.1852L61.3749 41.1146L61.3138 41.0532L61.2443 41.105L61.3041 41.1852ZM46.0612 45.6353L46.0686 45.5355L46.0685 45.5355L46.0612 45.6353ZM31.6223 39.0077L31.5514 39.0783L31.5514 39.0783L31.6223 39.0077ZM29.9004 37.0701L29.9787 37.0078L29.9378 36.9564L29.8744 36.9735L29.9004 37.0701ZM23.0696 38.9087L23.0436 38.8121L22.9696 38.8321V38.9087H23.0696ZM23.0696 50.0582H22.9696V50.1331L23.0415 50.1542L23.0696 50.0582ZM25.789 54.299L25.888 54.3133L25.888 54.313L25.789 54.299ZM18.1958 54.299L18.0968 54.3131L18.0968 54.3133L18.1958 54.299ZM20.9152 50.0582L20.9434 50.1542L21.0152 50.1331V50.0582H20.9152ZM21.7117 37.0238L21.6858 36.9272L21.6852 36.9274L21.7117 37.0238ZM28.5577 35.1851V35.0851H28.5445L28.5317 35.0886L28.5577 35.1851ZM28.5615 35.1851V35.2851H28.7444L28.6456 35.1312L28.5615 35.1851ZM26.9685 32.2464L27.0597 32.2052L27.0141 32.1044L26.9184 32.1598L26.9685 32.2464ZM24.4653 33.6967L24.4152 33.6102L24.0933 33.7967H24.4653V33.6967ZM24.4691 33.6967L24.519 33.7834L24.8436 33.5967H24.4691V33.6967ZM23.3844 33.6853L23.4361 33.5997L23.4345 33.5988L23.3844 33.6853ZM15.3438 29.0259L15.3939 28.9394L15.3287 28.9016L15.2744 28.9539L15.3438 29.0259ZM10.0378 29.0259L10.1071 28.9539L10.0528 28.9016L9.98765 28.9394L10.0378 29.0259ZM7.57243 30.4534L7.52232 30.3669L7.4575 30.4044L7.47529 30.4772L7.57243 30.4534ZM5.27401 34.9492L5.23661 34.8564L5.23654 34.8565L5.27401 34.9492ZM0.517924 33.3009L0.604584 33.251L0.604497 33.2508L0.517924 33.3009ZM1.46991 28.3407L1.53172 28.4194L1.53194 28.4192L1.46991 28.3407ZM6.49912 28.5882L6.42987 28.6603L6.48418 28.7124L6.54928 28.6747L6.49912 28.5882ZM8.96066 27.1607L9.01083 27.2472L9.07534 27.2098L9.05788 27.1373L8.96066 27.1607ZM9.6737 23.8717L9.59501 23.81L9.59485 23.8102L9.6737 23.8717ZM16.4211 27.1607L16.3239 27.1373L16.3064 27.2098L16.3709 27.2472L16.4211 27.1607ZM23.9346 31.5157L23.8844 31.6022L23.9346 31.6313L23.9848 31.6021L23.9346 31.5157ZM26.1723 30.2138L26.2226 30.3002L26.2932 30.2591L26.267 30.1817L26.1723 30.2138ZM25.5541 17.6707L25.6515 17.6933L25.6515 17.6932L25.5541 17.6707ZM31.6263 6.68777L31.711 6.74084L31.5554 6.6172L31.6263 6.68777ZM47.7223 29.3464L47.7249 29.2463L47.7197 29.2464L47.7223 29.3464ZM48.5074 29.0419L48.5769 29.1137L48.5776 29.1131L48.5074 29.0419ZM48.5074 27.4887L48.4372 27.5599L48.4379 27.5606L48.5074 27.4887ZM47.7223 27.1803L47.7197 27.2804L47.7249 27.2803L47.7223 27.1803ZM46.9372 27.4887L47.0067 27.5606L47.0068 27.5605L46.9372 27.4887ZM46.9372 29.0419L46.867 29.1131L46.8683 29.1144L46.9372 29.0419ZM50.4986 10.6969L50.5853 10.647L50.5845 10.6456L50.4986 10.6969ZM50.4645 10.636L50.3777 10.6857L50.3787 10.6873L50.4645 10.636ZM49.3115 9.47494L49.3618 9.38849L49.3611 9.38811L49.3115 9.47494ZM46.2128 9.43307L46.2525 9.52528L46.2601 9.52116L46.2128 9.43307ZM46.137 9.47113L46.0975 9.37927L45.9623 9.43742L46.0661 9.5417L46.137 9.47113ZM46.1408 9.47494L46.1907 9.56156L46.3034 9.49655L46.2116 9.40438L46.1408 9.47494ZM44.9878 10.6398L45.0744 10.6897L45.0748 10.689L44.9878 10.6398ZM34.9297 28.1237L35.0079 28.1861L35.0126 28.1802L35.0164 28.1736L34.9297 28.1237ZM34.8956 28.177L34.9833 28.2271L34.9885 28.2141L34.8956 28.177ZM36.0448 32.5243L35.9941 32.6105L35.9948 32.6109L36.0448 32.5243ZM59.3246 32.5624L59.2797 32.4729L59.2763 32.4748L59.3246 32.5624ZM59.4005 32.5243L59.4454 32.6138L59.4501 32.6111L59.4005 32.5243ZM60.8796 30.5943L60.9763 30.6199L60.9763 30.6198L60.8796 30.5943ZM60.5534 28.1769L60.4667 28.2268L60.467 28.2272L60.5534 28.1769ZM58.6948 29.2548L58.7869 29.2937L58.8062 29.2479L58.7815 29.2049L58.6948 29.2548ZM48.6367 11.7737L48.7234 11.7239L48.7226 11.7224L48.6367 11.7737ZM48.6026 11.7166L48.6921 11.6721L48.5026 11.7166H48.6026ZM48.6026 11.7205L48.5148 11.7684L48.7026 11.7205H48.6026ZM48.2309 11.3398L48.2816 11.2535L48.28 11.2526L48.2309 11.3398ZM47.7227 11.2142L47.7204 11.3142L47.7248 11.3141L47.7227 11.2142ZM47.2448 11.3169L47.2005 11.2263L47.1892 11.2338L47.2448 11.3169ZM47.2107 11.3398L47.2623 11.4255L47.2663 11.4229L47.2107 11.3398ZM46.8428 11.7205L46.9295 11.7703L46.9306 11.7684L46.8428 11.7205ZM36.7886 29.2015L36.8745 29.2528L36.8753 29.2513L36.7886 29.2015ZM36.7583 29.2624V29.3624H36.815L36.8441 29.3137L36.7583 29.2624ZM36.7545 29.2624V29.1624H36.6976L36.6686 29.2112L36.7545 29.2624ZM36.7545 30.275L36.8418 30.2262L36.8404 30.2239L36.7545 30.275ZM37.1224 30.6557L37.0708 30.7414L37.0742 30.7433L37.1224 30.6557ZM37.6344 30.7813V30.6813L37.6323 30.6813L37.6344 30.7813ZM57.8116 30.7813L57.8139 30.6813H57.8116V30.7813ZM58.2895 30.6785L58.3335 30.7685L58.3382 30.7659L58.2895 30.6785ZM58.3237 30.6595L58.3724 30.7468L58.4237 30.7182V30.6595H58.3237ZM58.3237 30.6557L58.2721 30.57L58.2237 30.5992V30.6557H58.3237ZM58.6916 30.275L58.6056 30.2238L58.6038 30.2271L58.6916 30.275ZM58.6916 29.2624L58.5994 29.2235L58.5798 29.2701L58.6056 29.3135L58.6916 29.2624ZM5.03457 30.176L4.96349 30.2464L4.96372 30.2466L5.03457 30.176ZM2.2924 32.0109L2.38497 31.9731L2.38487 31.9728L2.2924 32.0109ZM4.16982 33.0235L4.15041 32.9254L4.15033 32.9255L4.16982 33.0235ZM81.2801 21.0094L81.209 21.0798L81.2092 21.08L81.2801 21.0094ZM78.5341 22.8443L78.4414 22.882L78.4417 22.8826L78.5341 22.8443ZM80.4153 23.857L80.3959 23.7589L80.3958 23.7589L80.4153 23.857ZM81.7731 22.2048L81.8731 22.2053V22.2048H81.7731ZM23.1863 52.5559L23.2576 52.4857L23.2569 52.4851L23.1863 52.5559ZM21.0624 52.3465L21.0069 52.2633L21.0065 52.2636L21.0624 52.3465ZM20.4441 54.3984L20.5367 54.3605L20.5366 54.3603L20.4441 54.3984ZM22.3254 55.4072L22.3448 55.5053L22.3449 55.5053L22.3254 55.4072ZM13.8827 25.0519L13.8119 25.1224L13.8123 25.1229L13.8827 25.0519ZM11.7588 24.8425L11.7033 24.7593L11.7029 24.7595L11.7588 24.8425ZM11.1405 26.8944L11.0481 26.9324L11.0481 26.9326L11.1405 26.8944ZM13.0217 27.9032L13.0023 27.8051L13.0023 27.8051L13.0217 27.9032ZM89.3436 7.53282L89.4144 7.46224L89.4144 7.46224L89.3436 7.53282ZM87.2158 7.31964L87.2713 7.40283L87.2714 7.40275L87.2158 7.31964ZM88.4788 10.3841L88.4982 10.4822L88.4982 10.4822L88.4788 10.3841ZM68.3129 38.8092L68.2946 38.7109L68.1083 38.7456L68.242 38.8798L68.3129 38.8092ZM69.8224 40.3243V40.4243H70.0632L69.8932 40.2537L69.8224 40.3243ZM69.8186 40.3243V40.2243H69.5778L69.7478 40.3949L69.8186 40.3243ZM70.1258 40.9715L70.0264 40.9823L70.0264 40.9823L70.1258 40.9715ZM69.0222 44.173L68.9507 44.103L68.9507 44.103L69.0222 44.173ZM65.8514 45.3378L65.8608 45.2381L65.8557 45.2379L65.8514 45.3378ZM65.1384 45.0219L65.2099 44.952L65.2092 44.9513L65.1384 45.0219ZM63.6289 43.5068L63.6997 43.4362L63.5644 43.3004L63.5305 43.4891L63.6289 43.5068ZM63.8754 46.5256L63.7812 46.5592L63.7971 46.6037L63.8416 46.6197L63.8754 46.5256ZM69.9514 45.1552L70.0221 45.2259L70.0222 45.2258L69.9514 45.1552ZM71.3206 39.0568L71.4148 39.0233L71.399 38.9787L71.3544 38.9627L71.3206 39.0568ZM69.246 38.7142L69.2438 38.6142L69.2436 38.6142L69.246 38.7142ZM33.8288 8.89618L33.8996 8.96676L33.8997 8.96668L33.8288 8.89618ZM28.2382 25.4173L28.3374 25.4043L28.3374 25.4043L28.2382 25.4173ZM37.8946 39.9251L37.8444 40.0116L37.8445 40.0116L37.8946 39.9251ZM66.7006 27.9529L66.604 27.9271L66.604 27.9271L66.7006 27.9529ZM63.3137 10.8412L63.2342 10.9019L63.2342 10.902L63.3137 10.8412ZM47.7251 3.12114L47.725 3.22114H47.7251V3.12114ZM35.3496 10.4265L35.4205 10.4971L35.4206 10.497L35.3496 10.4265ZM30.3773 25.136L30.4765 25.123L30.4765 25.123L30.3773 25.136ZM38.9755 38.0484L39.0257 37.9619L39.0256 37.9619L38.9755 38.0484ZM64.6221 27.3861L64.7187 27.4119L64.7187 27.4119L64.6221 27.3861ZM61.5993 12.1514L61.5198 12.2121L61.5198 12.2121L61.5993 12.1514ZM47.7176 5.28401L47.7176 5.38401H47.7176V5.28401ZM64.6148 38.1585L64.6857 38.088L64.6113 38.0132L64.5406 38.0915L64.6148 38.1585ZM63.8184 38.9998L63.8892 39.0704L63.8897 39.0699L63.8184 38.9998ZM62.984 39.7992L62.9162 39.7257L62.8398 39.7962L62.9131 39.8698L62.984 39.7992ZM66.3633 43.1911L66.2925 43.2617L66.325 43.2942L66.3708 43.2908L66.3633 43.1911ZM66.8109 43.0959L66.8434 43.1905L66.8447 43.19L66.8109 43.0959ZM67.8994 42.0034L67.9935 42.0372L67.9936 42.037L67.8994 42.0034ZM67.9942 41.5542L68.0939 41.5616L68.0974 41.516L68.0651 41.4836L67.9942 41.5542ZM67.3001 48.89L67.3179 48.9884L67.3185 48.9883L67.3001 48.89ZM66.2229 49.0156L66.2176 48.9158L65.9941 48.9276L66.1521 49.0862L66.2229 49.0156ZM73.4292 56.2523L73.3583 56.3228L73.3584 56.3229L73.4292 56.2523ZM81.0071 56.2523L81.0779 56.3229L81.078 56.3228L81.0071 56.2523ZM81.0071 48.6464L81.078 48.5758L81.078 48.5758L81.0071 48.6464ZM73.8009 41.4136L73.8717 41.343L73.7121 41.1828L73.701 41.4086L73.8009 41.4136ZM47.7219 2.1625V2.2625L47.7221 2.2625L47.7219 2.1625ZM27.8212 28.1968L27.9178 28.171L27.9178 28.1709L27.8212 28.1968ZM39.8367 41.9502L39.7983 42.0426L39.7983 42.0426L39.8367 41.9502ZM58.0264 40.7549L58.0765 40.8414L58.0765 40.8414L58.0264 40.7549ZM68.1534 25.5435L68.2525 25.5566L68.2525 25.5565L68.1534 25.5435ZM62.2935 8.21937L62.2226 8.28985L62.2227 8.28995L62.2935 8.21937ZM31.6256 6.68887L31.6964 6.75948C36.9754 1.46484 44.5126 -0.881174 51.8535 0.479388L51.8717 0.381062L51.89 0.282737C44.4842 -1.08986 36.8803 1.27694 31.5548 6.61827L31.6256 6.68887ZM51.8717 0.381062L51.8535 0.479377C59.1903 1.84371 65.3908 6.74419 68.4301 13.5855L68.5215 13.545L68.6129 13.5044C65.5469 6.60296 59.2918 1.65917 51.89 0.282747L51.8717 0.381062ZM68.5215 13.545L68.5716 13.6315L73.0698 11.0277L73.0197 10.9411L72.9696 10.8546L68.4714 13.4584L68.5215 13.545ZM73.0197 10.9411H73.1197V10.9373H73.0197H72.9197V10.9411H73.0197ZM73.0197 10.9373L73.0694 11.0241C73.3655 10.8548 73.7264 10.8516 74.0214 11.0169L74.0703 10.9297L74.1192 10.8425C73.7619 10.6423 73.3263 10.6468 72.9701 10.8505L73.0197 10.9373ZM74.0703 10.9297L74.022 11.0173L78.7289 13.6135L78.7771 13.5259L78.8254 13.4384L74.1186 10.8421L74.0703 10.9297ZM78.7771 13.5259L78.8315 13.6099L84.5358 9.9173L84.4815 9.83335L84.4271 9.74941L78.7228 13.442L78.7771 13.5259ZM84.4815 9.83335L84.5773 9.80488C84.0452 8.01365 84.9063 6.10405 86.5943 5.32169L86.5523 5.23096L86.5102 5.14023C84.7318 5.96448 83.8254 7.97578 84.3856 9.86183L84.4815 9.83335ZM86.5523 5.23096L86.5943 5.32173C88.286 4.5395 90.2917 5.12517 91.3002 6.69353L91.3843 6.63945L91.4684 6.58536C90.4061 4.93325 88.2928 4.31598 86.5103 5.1402L86.5523 5.23096ZM91.3843 6.63945L91.3003 6.69367C92.3125 8.26205 92.017 10.3387 90.613 11.5662L90.6789 11.6415L90.7447 11.7168C92.2232 10.4241 92.5345 8.23726 91.4683 6.58522L91.3843 6.63945ZM90.6789 11.6415L90.6131 11.5661C89.2094 12.7896 87.1188 12.7933 85.7115 11.5698L85.6459 11.6453L85.5802 11.7208C87.063 13.0098 89.2657 13.0059 90.7446 11.7169L90.6789 11.6415ZM85.6459 11.6453L85.5915 11.5613L79.3715 15.585L79.4258 15.669L79.4801 15.753L85.7002 11.7293L85.6459 11.6453ZM79.4258 15.669L79.3693 15.5865C79.0665 15.7937 78.6744 15.8144 78.351 15.6383L78.3032 15.7261L78.2553 15.8139C78.6449 16.0261 79.1176 16.0011 79.4823 15.7515L79.4258 15.669ZM78.3032 15.7261L78.3515 15.6386L73.6105 13.0233L73.5622 13.1109L73.5139 13.1984L78.2549 15.8137L78.3032 15.7261ZM73.5622 13.1109L73.5121 13.0243L69.2604 15.4873L69.3106 15.5738L69.3607 15.6603L73.6124 13.1974L73.5622 13.1109ZM69.3106 15.5738L69.2157 15.6054C69.9936 17.9401 70.3901 20.3811 70.3901 22.8446H70.4901H70.5901C70.5901 20.3596 70.1901 17.8973 69.4054 15.5422L69.3106 15.5738ZM70.4901 22.8446H70.3901C70.3901 23.1178 70.3863 23.3943 70.375 23.6704L70.4749 23.6745L70.5748 23.6786C70.5863 23.3989 70.5901 23.1196 70.5901 22.8446H70.4901ZM70.4749 23.6745L70.5009 23.7711L76.2773 22.2141L76.2512 22.1175L76.2252 22.0209L70.4489 23.5779L70.4749 23.6745ZM76.2512 22.1175L76.3512 22.1198C76.3919 20.3358 77.674 18.8269 79.421 18.5081L79.403 18.4097L79.3851 18.3113C77.544 18.6473 76.1941 20.2371 76.1513 22.1152L76.2512 22.1175ZM79.403 18.4097L79.421 18.5081C81.1679 18.1893 82.8968 19.1493 83.5619 20.8034L83.6547 20.7661L83.7475 20.7288C83.0472 18.9873 81.2262 17.9754 79.3851 18.3113L79.403 18.4097ZM83.6547 20.7661L83.5619 20.8033C84.2232 22.4571 83.632 24.3482 82.1506 25.3308L82.2059 25.4141L82.2611 25.4975C83.8215 24.4625 84.4441 22.4708 83.7476 20.729L83.6547 20.7661ZM82.2059 25.4141L82.1506 25.3308C80.6693 26.3133 78.7044 26.1168 77.4485 24.8563L77.3776 24.9269L77.3068 24.9974C78.6301 26.3255 80.7006 26.5326 82.2611 25.4975L82.2059 25.4141ZM77.3776 24.9269L77.4485 24.8563C77.2377 24.6447 77.053 24.4111 76.898 24.1555L76.8125 24.2074L76.727 24.2592C76.8906 24.529 77.0852 24.775 77.3068 24.9974L77.3776 24.9269ZM76.8125 24.2074L76.7866 24.1108L70.244 25.8695L70.27 25.9661L70.296 26.0627L76.8385 24.304L76.8125 24.2074ZM70.27 25.9661L70.1709 25.9526C69.6536 29.7503 68.1884 33.3508 65.9039 36.4245L65.9841 36.4842L66.0644 36.5438C68.3692 33.4429 69.8472 29.8107 70.3691 25.9796L70.27 25.9661ZM65.9841 36.4842L65.9133 36.5547L66.4974 37.141L66.5682 37.0704L66.6391 36.9998L66.055 36.4136L65.9841 36.4842ZM66.5682 37.0704L66.6033 37.164C68.5283 36.4423 70.6556 36.5024 72.5394 37.3332L72.5797 37.2417L72.6201 37.1502C70.6885 36.2984 68.5071 36.2367 66.5331 36.9768L66.5682 37.0704ZM72.5797 37.2417L72.5395 37.3333C72.6491 37.3814 72.7488 37.4502 72.8351 37.5369L72.9059 37.4663L72.9768 37.3957C72.8734 37.292 72.7531 37.2086 72.6199 37.1501L72.5797 37.2417ZM72.9059 37.4663L72.8351 37.5369L82.4612 47.1907L82.532 47.1201L82.6028 47.0495L72.9767 37.3957L72.9059 37.4663ZM82.532 47.1201L82.4611 47.1907C85.3578 50.0981 85.3578 54.8125 82.4611 57.7196L82.532 57.7902L82.6028 57.8608C85.5773 54.8756 85.5773 50.035 82.6028 47.0496L82.532 47.1201ZM82.532 57.7902L82.4611 57.7196C79.5647 60.6268 74.8682 60.6268 71.9719 57.7196L71.9011 57.7902L71.8302 57.8608C74.8047 60.8464 79.6282 60.8464 82.6028 57.8608L82.532 57.7902ZM71.9011 57.7902L71.9719 57.7196L62.3497 48.0619L62.2788 48.1325L62.208 48.2031L71.8302 57.8608L71.9011 57.7902ZM62.2788 48.1325L62.3509 48.0631C62.2537 47.9621 62.1774 47.8438 62.1253 47.7114L62.0323 47.748L61.9392 47.7846C62.0009 47.9415 62.0915 48.082 62.2068 48.2018L62.2788 48.1325ZM62.0323 47.748L62.1242 47.7087C61.3226 45.8327 61.2702 43.7161 61.9819 41.8063L61.8882 41.7714L61.7945 41.7365C61.0648 43.6945 61.1186 45.8642 61.9403 47.7873L62.0323 47.748ZM61.8882 41.7714L61.959 41.7008L61.3749 41.1146L61.3041 41.1852L61.2332 41.2558L61.8173 41.842L61.8882 41.7714ZM61.3041 41.1852L61.2443 41.105C56.8791 44.3607 51.4905 45.9373 46.0686 45.5355L46.0612 45.6353L46.0538 45.735C51.524 46.1403 56.9602 44.5497 61.3639 41.2654L61.3041 41.1852ZM46.0612 45.6353L46.0685 45.5355C40.6423 45.1376 35.5405 42.7954 31.6931 38.9371L31.6223 39.0077L31.5514 39.0783C35.4328 42.9706 40.5796 45.3335 46.0539 45.735L46.0612 45.6353ZM31.6223 39.0077L31.6931 38.9371C31.0852 38.327 30.515 37.6827 29.9787 37.0078L29.9004 37.0701L29.8221 37.1323C30.3628 37.8126 30.938 38.4626 31.5514 39.0783L31.6223 39.0077ZM29.9004 37.0701L29.8744 36.9735L23.0436 38.8121L23.0696 38.9087L23.0956 39.0053L29.9264 37.1666L29.9004 37.0701ZM23.0696 38.9087H22.9696V50.0582H23.0696H23.1696V38.9087H23.0696ZM23.0696 50.0582L23.0415 50.1542C24.8252 50.6769 25.9523 52.4378 25.69 54.2849L25.789 54.299L25.888 54.313C26.1642 52.3684 24.9777 50.5131 23.0977 49.9623L23.0696 50.0582ZM25.789 54.299L25.69 54.2847C25.424 56.1278 23.8501 57.4994 21.9924 57.4994V57.5994V57.6994C23.9503 57.6994 25.6079 56.254 25.888 54.3133L25.789 54.299ZM21.9924 57.5994V57.4994C20.1348 57.4994 18.5609 56.1278 18.2948 54.2847L18.1958 54.299L18.0968 54.3133C18.377 56.254 20.0346 57.6994 21.9924 57.6994V57.5994ZM18.1958 54.299L18.2948 54.2849C18.0325 52.4379 19.1595 50.6769 20.9434 50.1542L20.9152 50.0582L20.8871 49.9623C19.0071 50.5131 17.8206 52.3685 18.0968 54.3131L18.1958 54.299ZM20.9152 50.0582H21.0152V38.0706H20.9152H20.8152V50.0582H20.9152ZM20.9152 38.0706H21.0152C21.0152 37.6246 21.3113 37.2377 21.7383 37.1202L21.7117 37.0238L21.6852 36.9274C21.1715 37.0687 20.8152 37.5345 20.8152 38.0706H20.9152ZM21.7117 37.0238L21.7377 37.1204L28.5836 35.2817L28.5577 35.1851L28.5317 35.0886L21.6858 36.9272L21.7117 37.0238ZM28.5577 35.1851V35.2851H28.5615V35.1851V35.0851H28.5577V35.1851ZM28.5615 35.1851L28.6456 35.1312C28.0453 34.1951 27.5166 33.2172 27.0597 32.2052L26.9685 32.2464L26.8774 32.2875C27.3382 33.3082 27.8716 34.2947 28.4773 35.2391L28.5615 35.1851ZM26.9685 32.2464L26.9184 32.1598L24.4152 33.6102L24.4653 33.6967L24.5155 33.7833L27.0187 32.3329L26.9685 32.2464ZM24.4653 33.6967V33.7967H24.4691V33.6967V33.5967H24.4653V33.6967ZM24.4691 33.6967L24.4193 33.6101C24.1132 33.7861 23.7387 33.7826 23.4361 33.5997L23.3844 33.6853L23.3327 33.7709C23.6977 33.9915 24.15 33.9957 24.519 33.7834L24.4691 33.6967ZM23.3844 33.6853L23.4345 33.5988L15.3939 28.9394L15.3438 29.0259L15.2936 29.1124L23.3342 33.7718L23.3844 33.6853ZM15.3438 29.0259L15.2744 28.9539C13.8302 30.3441 11.5513 30.3441 10.1071 28.9539L10.0378 29.0259L9.96841 29.098C11.4901 30.5627 13.8915 30.5627 15.4131 29.098L15.3438 29.0259ZM10.0378 29.0259L9.98765 28.9394L7.52232 30.3669L7.57243 30.4534L7.62254 30.54L10.0879 29.1125L10.0378 29.0259ZM7.57243 30.4534L7.47529 30.4772C7.91868 32.2907 6.96528 34.1594 5.23661 34.8564L5.27401 34.9492L5.3114 35.0419C7.13278 34.3076 8.13644 32.3392 7.66957 30.4297L7.57243 30.4534ZM5.27401 34.9492L5.23654 34.8565C3.51186 35.5533 1.53553 34.8677 0.604584 33.251L0.517924 33.3009L0.431264 33.3508C1.41173 35.0535 3.49375 35.7764 5.31147 35.0419L5.27401 34.9492ZM0.517924 33.3009L0.604497 33.2508C-0.330217 31.6341 0.0651882 29.5724 1.53172 28.4193L1.46991 28.3407L1.4081 28.2621C-0.13682 29.4768 -0.553068 31.6482 0.431352 33.3509L0.517924 33.3009ZM1.46991 28.3407L1.53194 28.4192C2.99451 27.2626 5.08136 27.3662 6.42987 28.6603L6.49912 28.5882L6.56836 28.516C5.14813 27.153 2.94922 27.0434 1.40788 28.2623L1.46991 28.3407ZM6.49912 28.5882L6.54928 28.6747L9.01083 27.2472L8.96066 27.1607L8.91049 27.0742L6.44895 28.5017L6.49912 28.5882ZM8.96066 27.1607L9.05788 27.1373C8.78818 26.0174 9.04677 24.8381 9.75256 23.9332L9.6737 23.8717L9.59485 23.8102C8.85179 24.7629 8.57939 26.0047 8.86344 27.1841L8.96066 27.1607ZM9.6737 23.8717L9.7524 23.9334C10.4617 23.0287 11.5439 22.5023 12.6928 22.5023V22.4023V22.3023C11.4824 22.3023 10.3422 22.8569 9.59501 23.81L9.6737 23.8717ZM12.6928 22.4023V22.5023C13.8377 22.5023 14.9201 23.0287 15.6293 23.9334L15.708 23.8717L15.7867 23.81C15.0396 22.857 13.8993 22.3023 12.6928 22.3023V22.4023ZM15.708 23.8717L15.6293 23.9334C16.3386 24.838 16.5936 26.0172 16.3239 27.1373L16.4211 27.1607L16.5183 27.1841C16.8023 26.0049 16.5339 24.763 15.7867 23.81L15.708 23.8717ZM16.4211 27.1607L16.3709 27.2472L23.8844 31.6022L23.9346 31.5157L23.9847 31.4291L16.4712 27.0742L16.4211 27.1607ZM23.9346 31.5157L23.9848 31.6021L26.2226 30.3002L26.1723 30.2138L26.122 30.1273L23.8843 31.4292L23.9346 31.5157ZM26.1723 30.2138L26.267 30.1817C24.9037 26.1604 24.6886 21.832 25.6515 17.6933L25.5541 17.6707L25.4567 17.648C24.4853 21.823 24.7024 26.1894 26.0776 30.2459L26.1723 30.2138ZM25.5541 17.6707L25.6515 17.6932C26.6107 13.5544 28.7026 9.76424 31.6971 6.75835L31.6263 6.68777L31.5554 6.6172C28.5345 9.64965 26.4242 13.4731 25.4567 17.6481L25.5541 17.6707ZM31.6263 6.68777L31.5415 6.63471L31.5408 6.63581L31.6256 6.68887L31.7103 6.74194L31.711 6.74084L31.6263 6.68777ZM46.6451 14.7782H46.5451V24.7593H46.6451H46.7451V14.7782H46.6451ZM46.6451 24.7593H46.5451C46.5451 25.4118 47.0712 25.9404 47.7223 25.9404V25.8404V25.7404C47.1824 25.7404 46.7451 25.3021 46.7451 24.7593H46.6451ZM47.7223 25.8404V25.9404C48.3733 25.9404 48.8995 25.4119 48.8995 24.7593H48.7995H48.6995C48.6995 25.3021 48.2622 25.7404 47.7223 25.7404V25.8404ZM48.7995 24.7593H48.8995V14.7782H48.7995H48.6995V24.7593H48.7995ZM48.7995 14.7782H48.8995C48.8995 14.1257 48.3734 13.5971 47.7223 13.5971V13.6971V13.7971C48.2622 13.7971 48.6995 14.2354 48.6995 14.7782H48.7995ZM47.7223 13.6971V13.5971C47.0713 13.5971 46.5451 14.1256 46.5451 14.7782H46.6451H46.7451C46.7451 14.2354 47.1824 13.7971 47.7223 13.7971V13.6971ZM47.7223 29.3464L47.7197 29.4464C48.0384 29.4547 48.3489 29.3343 48.5769 29.1137L48.5074 29.0419L48.4379 28.97C48.2487 29.1529 47.9903 29.2533 47.7249 29.2464L47.7223 29.3464ZM48.5074 29.0419L48.5776 29.1131C48.8051 28.8889 48.9336 28.5855 48.9336 28.2653H48.8336H48.7336C48.7336 28.5313 48.6269 28.7837 48.4372 28.9706L48.5074 29.0419ZM48.8336 28.2653H48.9336C48.9336 27.9456 48.8054 27.6378 48.5769 27.4168L48.5074 27.4887L48.4379 27.5606C48.6266 27.7431 48.7336 27.9987 48.7336 28.2653H48.8336ZM48.5074 27.4887L48.5776 27.4175C48.3494 27.1925 48.0385 27.0721 47.7197 27.0804L47.7223 27.1803L47.7249 27.2803C47.9902 27.2734 48.2483 27.3737 48.4372 27.5599L48.5074 27.4887ZM47.7223 27.1803L47.7249 27.0804C47.4056 27.072 47.0991 27.1929 46.8677 27.4168L46.9372 27.4887L47.0068 27.5605C47.2002 27.3734 47.4549 27.2734 47.7197 27.2803L47.7223 27.1803ZM46.9372 27.4887L46.8677 27.4168C46.6392 27.6378 46.511 27.9456 46.511 28.2653H46.611H46.711C46.711 27.9987 46.818 27.7431 47.0067 27.5606L46.9372 27.4887ZM46.611 28.2653H46.511C46.511 28.5855 46.6395 28.8889 46.867 29.1131L46.9372 29.0419L47.0074 28.9706C46.8177 28.7837 46.711 28.5313 46.711 28.2653H46.611ZM46.9372 29.0419L46.8683 29.1144C47.0995 29.3339 47.4057 29.4547 47.7249 29.4464L47.7223 29.3464L47.7197 29.2464C47.4548 29.2533 47.1997 29.1533 47.0061 28.9693L46.9372 29.0419ZM50.4986 10.6969L50.5845 10.6456C50.58 10.6382 50.5753 10.6296 50.5694 10.6187C50.564 10.6086 50.5573 10.5963 50.5503 10.5847L50.4645 10.636L50.3787 10.6873C50.3831 10.6947 50.3878 10.7033 50.3937 10.7142C50.3992 10.7243 50.4059 10.7366 50.4128 10.7482L50.4986 10.6969ZM50.4645 10.636L50.5513 10.5863C50.2657 10.0876 49.8548 9.6752 49.3618 9.38849L49.3115 9.47494L49.2612 9.56139C49.724 9.83046 50.1096 10.2175 50.3777 10.6857L50.4645 10.636ZM49.3115 9.47494L49.3611 9.38811C48.3717 8.82287 47.1669 8.80712 46.1655 9.34497L46.2128 9.43307L46.2601 9.52116C47.2007 9.01598 48.3322 9.03068 49.2619 9.56177L49.3115 9.47494ZM46.2128 9.43307L46.1733 9.34121C46.1553 9.34896 46.1391 9.35777 46.1274 9.36413C46.1145 9.37109 46.106 9.37561 46.0975 9.37927L46.137 9.47113L46.1765 9.563C46.1945 9.55524 46.2107 9.54643 46.2224 9.54008C46.2353 9.53311 46.2438 9.5286 46.2523 9.52493L46.2128 9.43307ZM46.137 9.47113L46.0661 9.5417L46.0699 9.54551L46.1408 9.47494L46.2116 9.40438L46.2078 9.40057L46.137 9.47113ZM46.1408 9.47494L46.0908 9.38832C45.5935 9.67522 45.1825 10.0917 44.9007 10.5906L44.9878 10.6398L45.0748 10.689C45.3392 10.221 45.7247 9.83045 46.1907 9.56156L46.1408 9.47494ZM44.9878 10.6398L44.9011 10.5899L34.8431 28.0739L34.9297 28.1237L35.0164 28.1736L45.0744 10.6897L44.9878 10.6398ZM34.9297 28.1237L34.8515 28.0614C34.8363 28.0805 34.8163 28.1059 34.8027 28.14L34.8956 28.177L34.9885 28.2141C34.9901 28.2101 34.9928 28.2051 35.0079 28.1861L34.9297 28.1237ZM34.8956 28.177L34.8087 28.1275C33.9133 29.6974 34.4409 31.6956 35.9941 32.6105L36.0448 32.5243L36.0956 32.4381C34.6372 31.5791 34.1409 29.7021 34.9825 28.2266L34.8956 28.177ZM36.0448 32.5243L35.9948 32.6109C36.4919 32.8977 37.0553 33.0468 37.6302 33.0468V32.9468V32.8468C37.09 32.8468 36.5611 32.7067 36.0948 32.4377L36.0448 32.5243ZM37.6302 32.9468V33.0468H57.8113V32.9468V32.8468H37.6302V32.9468ZM57.8113 32.9468V33.0468C58.3586 33.0468 58.8948 32.9134 59.3729 32.6499L59.3246 32.5624L59.2763 32.4748C58.8289 32.7214 58.326 32.8468 57.8113 32.8468V32.9468ZM59.3246 32.5624L59.3695 32.6517L59.4453 32.6137L59.4005 32.5243L59.3556 32.4349L59.2798 32.473L59.3246 32.5624ZM59.4005 32.5243L59.4501 32.6111C60.2056 32.1789 60.7533 31.4602 60.9763 30.6199L60.8796 30.5943L60.7829 30.5686C60.5736 31.3577 60.0593 32.0322 59.3508 32.4375L59.4005 32.5243ZM60.8796 30.5943L60.9763 30.6198C61.1992 29.7757 61.078 28.8805 60.6399 28.1267L60.5534 28.1769L60.467 28.2272C60.8784 28.9352 60.9923 29.7759 60.7829 30.5687L60.8796 30.5943ZM60.5534 28.1769L60.6401 28.1271L50.5853 10.647L50.4986 10.6969L50.412 10.7468L60.4667 28.2268L60.5534 28.1769ZM58.6948 29.2548L58.7815 29.2049L48.7234 11.7239L48.6367 11.7737L48.5501 11.8236L58.6081 29.3047L58.6948 29.2548ZM48.6367 11.7737L48.7226 11.7224C48.705 11.693 48.7016 11.6911 48.6921 11.6721L48.6026 11.7166L48.5131 11.7612C48.5264 11.7878 48.5458 11.8164 48.5509 11.8251L48.6367 11.7737ZM48.6026 11.7166H48.5026V11.7205H48.6026H48.7026V11.7166H48.6026ZM48.6026 11.7205L48.6904 11.6726C48.5941 11.496 48.4519 11.3536 48.2816 11.2536L48.2309 11.3398L48.1803 11.426C48.3209 11.5086 48.4367 11.6252 48.5148 11.7684L48.6026 11.7205ZM48.2309 11.3398L48.28 11.2526C48.1083 11.156 47.916 11.11 47.7206 11.1142L47.7227 11.2142L47.7248 11.3141C47.8859 11.3107 48.0426 11.3485 48.1819 11.4269L48.2309 11.3398ZM47.7227 11.2142L47.725 11.1142C47.5428 11.11 47.3638 11.1474 47.2009 11.2271L47.2448 11.3169L47.2887 11.4068C47.4216 11.3418 47.5688 11.3107 47.7204 11.3141L47.7227 11.2142ZM47.2448 11.3169L47.1892 11.2338L47.1551 11.2567L47.2107 11.3398L47.2663 11.4229L47.3004 11.4001L47.2448 11.3169ZM47.2107 11.3398L47.1591 11.2541C46.9931 11.354 46.8513 11.4961 46.755 11.6726L46.8428 11.7205L46.9306 11.7684C47.0088 11.625 47.1248 11.5082 47.2623 11.4254L47.2107 11.3398ZM46.8428 11.7205L46.7561 11.6706L36.7019 29.1516L36.7886 29.2015L36.8753 29.2513L46.9295 11.7703L46.8428 11.7205ZM36.7886 29.2015L36.7028 29.1502C36.6937 29.1654 36.6866 29.1812 36.6824 29.1907C36.6772 29.2022 36.6747 29.2073 36.6724 29.2111L36.7583 29.2624L36.8441 29.3137C36.8532 29.2985 36.8603 29.2827 36.8645 29.2732C36.8697 29.2617 36.8722 29.2566 36.8745 29.2528L36.7886 29.2015ZM36.7583 29.2624V29.1624H36.7545V29.2624V29.3624H36.7583V29.2624ZM36.7545 29.2624L36.6686 29.2112C36.4639 29.5549 36.464 29.9825 36.6686 30.3262L36.7545 30.275L36.8404 30.2239C36.6733 29.9432 36.6733 29.5942 36.8404 29.3135L36.7545 29.2624ZM36.7545 30.275L36.6672 30.3238C36.7629 30.495 36.9041 30.641 37.0708 30.7414L37.1224 30.6557L37.174 30.57C37.0373 30.4877 36.9206 30.3672 36.8418 30.2262L36.7545 30.275ZM37.1224 30.6557L37.0742 30.7433C37.2491 30.8394 37.4409 30.8855 37.6365 30.8813L37.6344 30.7813L37.6323 30.6813C37.4714 30.6848 37.3143 30.6471 37.1706 30.5681L37.1224 30.6557ZM37.6344 30.7813V30.8813H57.8116V30.7813V30.6813H37.6344V30.7813ZM57.8116 30.7813L57.8094 30.8813C57.9915 30.8854 58.1705 30.848 58.3335 30.7684L58.2895 30.6785L58.2456 30.5887C58.1127 30.6537 57.9656 30.6848 57.8139 30.6813L57.8116 30.7813ZM58.2895 30.6785L58.3382 30.7659L58.3724 30.7468L58.3237 30.6595L58.275 30.5722L58.2408 30.5912L58.2895 30.6785ZM58.3237 30.6595H58.4237V30.6557H58.3237H58.2237V30.6595H58.3237ZM58.3237 30.6557L58.3753 30.7414C58.5412 30.6414 58.6831 30.4994 58.7793 30.3229L58.6916 30.275L58.6038 30.2271C58.5256 30.3705 58.4096 30.4872 58.2721 30.57L58.3237 30.6557ZM58.6916 30.275L58.7775 30.3262C58.9821 29.9825 58.9821 29.555 58.7775 29.2112L58.6916 29.2624L58.6056 29.3135C58.7727 29.5942 58.7727 29.9432 58.6056 30.2239L58.6916 30.275ZM58.6916 29.2624L58.7837 29.3013L58.7869 29.2937L58.6948 29.2548L58.6027 29.2159L58.5994 29.2235L58.6916 29.2624ZM5.03457 30.176L5.10564 30.1057C4.50667 29.5005 3.56605 29.4078 2.85891 29.8797L2.91441 29.9628L2.96991 30.046C3.59782 29.6271 4.43222 29.7096 4.96349 30.2464L5.03457 30.176ZM2.91441 29.9628L2.85891 29.8797C2.15166 30.3515 1.87461 31.2588 2.19993 32.049L2.2924 32.0109L2.38487 31.9728C2.09576 31.2706 2.34211 30.4649 2.96991 30.046L2.91441 29.9628ZM2.2924 32.0109L2.19984 32.0487C2.52127 32.8351 3.35698 33.287 4.18931 33.1216L4.16982 33.0235L4.15033 32.9255C3.41245 33.0721 2.67038 32.6713 2.38497 31.9731L2.2924 32.0109ZM4.16982 33.0235L4.18923 33.1216C5.02509 32.9563 5.62759 32.2222 5.62759 31.3676H5.52759H5.42759C5.42759 32.127 4.89234 32.7786 4.15041 32.9254L4.16982 33.0235ZM5.52759 31.3676H5.62759C5.62759 30.8957 5.43881 30.4401 5.10541 30.1054L5.03457 30.176L4.96372 30.2466C5.25992 30.5439 5.42759 30.9488 5.42759 31.3676H5.52759ZM81.2801 21.0094L81.3511 20.9391C80.7522 20.3339 79.8115 20.2413 79.1044 20.7131L79.1599 20.7963L79.2154 20.8794C79.8433 20.4605 80.6777 20.543 81.209 21.0798L81.2801 21.0094ZM79.1599 20.7963L79.1044 20.7131C78.3971 21.185 78.1202 22.0921 78.4415 22.882L78.5341 22.8443L78.6267 22.8067C78.3411 22.1042 78.5876 21.2983 79.2154 20.8794L79.1599 20.7963ZM78.5341 22.8443L78.4417 22.8826C78.7669 23.6685 79.6023 24.1205 80.4348 23.955L80.4153 23.857L80.3958 23.7589C79.658 23.9055 78.9157 23.5048 78.6265 22.8061L78.5341 22.8443ZM80.4153 23.857L80.4347 23.9551C81.2708 23.7896 81.8691 23.0555 81.8731 22.2053L81.7731 22.2048L81.6731 22.2044C81.6695 22.9606 81.1376 23.6121 80.3959 23.7589L80.4153 23.857ZM81.7731 22.2048H81.8731C81.8731 21.7292 81.6844 21.2736 81.3509 20.9389L81.2801 21.0094L81.2092 21.08C81.5053 21.3773 81.6731 21.7821 81.6731 22.2048H81.7731ZM23.1863 52.5559L23.2569 52.4851C22.6543 51.8843 21.7141 51.7915 21.0069 52.2633L21.0624 52.3465L21.1179 52.4297C21.7457 52.0108 22.5805 52.0931 23.1157 52.6267L23.1863 52.5559ZM21.0624 52.3465L21.0065 52.2636C20.2994 52.7394 20.0265 53.6465 20.3517 54.4364L20.4441 54.3984L20.5366 54.3603C20.2474 53.6578 20.4903 52.852 21.1182 52.4295L21.0624 52.3465ZM20.4441 54.3984L20.3516 54.4362C20.6732 55.2231 21.5092 55.6706 22.3448 55.5053L22.3254 55.4072L22.306 55.3091C21.5637 55.4559 20.8219 55.0583 20.5367 54.3605L20.4441 54.3984ZM22.3254 55.4072L22.3449 55.5053C23.1773 55.3398 23.7756 54.6055 23.7756 53.7513H23.6756H23.5756C23.5756 54.5111 23.0436 55.1625 22.3059 55.3091L22.3254 55.4072ZM23.6756 53.7513H23.7756C23.7756 53.2759 23.5908 52.8243 23.2576 52.4857L23.1863 52.5559L23.115 52.626C23.4114 52.9271 23.5756 53.3283 23.5756 53.7513H23.6756ZM13.8827 25.0519L13.9535 24.9813C13.3546 24.3801 12.4103 24.2875 11.7033 24.7593L11.7588 24.8425L11.8143 24.9257C12.4422 24.5067 13.2806 24.5892 13.8119 25.1224L13.8827 25.0519ZM11.7588 24.8425L11.7029 24.7595C10.9958 25.2354 10.7229 26.1425 11.0481 26.9324L11.1405 26.8944L11.233 26.8563C10.9438 26.1538 11.1867 25.348 11.8146 24.9255L11.7588 24.8425ZM11.1405 26.8944L11.0481 26.9326C11.3735 27.7188 12.2092 28.1666 13.0412 28.0013L13.0217 27.9032L13.0023 27.8051C12.2641 27.9518 11.522 27.5545 11.2329 26.8561L11.1405 26.8944ZM13.0217 27.9032L13.0412 28.0013C13.8773 27.8358 14.4757 27.1016 14.4757 26.2473H14.3757H14.2757C14.2757 27.007 13.7439 27.6584 13.0023 27.8051L13.0217 27.9032ZM14.3757 26.2473H14.4757C14.4757 25.7722 14.2912 25.3162 13.9531 24.9809L13.8827 25.0519L13.8123 25.1229C14.1114 25.4196 14.2757 25.824 14.2757 26.2473H14.3757ZM89.3436 7.53282L89.4144 7.46224C88.812 6.8576 87.8715 6.76057 87.1602 7.23653L87.2158 7.31964L87.2714 7.40275C87.9028 6.98032 88.7373 7.06602 89.2727 7.6034L89.3436 7.53282ZM87.2158 7.31964L87.1603 7.23646C86.453 7.70842 86.1761 8.61953 86.5014 9.40958L86.5938 9.37151L86.6863 9.33343C86.3971 8.6311 86.6436 7.82164 87.2713 7.40283L87.2158 7.31964ZM86.5938 9.37151L86.5014 9.40958C86.8267 10.1999 87.6625 10.6475 88.4982 10.4822L88.4788 10.3841L88.4594 10.286C87.7174 10.4328 86.9753 10.0355 86.6863 9.33343L86.5938 9.37151ZM88.4788 10.3841L88.4982 10.4822C89.3344 10.3168 89.9366 9.57877 89.9366 8.72442H89.8366H89.7366C89.7366 9.48408 89.2011 10.1393 88.4594 10.286L88.4788 10.3841ZM89.8366 8.72442H89.9366C89.9366 8.25248 89.7478 7.79692 89.4144 7.46224L89.3436 7.53282L89.2727 7.6034C89.5689 7.90072 89.7366 8.30559 89.7366 8.72442H89.8366ZM68.3129 38.8092L68.242 38.8798L69.7516 40.3949L69.8224 40.3243L69.8932 40.2537L68.3837 38.7387L68.3129 38.8092ZM69.8224 40.3243V40.2243H69.8186V40.3243V40.4243H69.8224V40.3243ZM69.8186 40.3243L69.7478 40.3949C69.9057 40.5534 70.0022 40.7606 70.0264 40.9823L70.1258 40.9715L70.2252 40.9606C70.1963 40.6951 70.0804 40.4454 69.8895 40.2537L69.8186 40.3243ZM70.1258 40.9715L70.0264 40.9823C70.1521 42.1328 69.7602 43.2757 68.9507 44.103L69.0222 44.173L69.0936 44.2429C69.9453 43.3725 70.3574 42.1702 70.2252 40.9606L70.1258 40.9715ZM69.0222 44.173L68.9507 44.103C68.1448 44.9267 67.0101 45.3459 65.8608 45.2383L65.8514 45.3378L65.8421 45.4374C67.0518 45.5506 68.2458 45.1095 69.0936 44.2429L69.0222 44.173ZM65.8514 45.3378L65.8557 45.2379C65.6112 45.2275 65.3813 45.1275 65.2099 44.952L65.1384 45.0219L65.0669 45.0917C65.2747 45.3046 65.5531 45.4253 65.8472 45.4377L65.8514 45.3378ZM65.1384 45.0219L65.2092 44.9513L63.6997 43.4362L63.6289 43.5068L63.558 43.5774L65.0676 45.0924L65.1384 45.0219ZM63.6289 43.5068L63.5305 43.4891C63.3453 44.5187 63.4301 45.5756 63.7812 46.5592L63.8754 46.5256L63.9696 46.4919C63.6304 45.5416 63.5483 44.5201 63.7273 43.5245L63.6289 43.5068ZM63.8754 46.5256L63.8416 46.6197C65.9985 47.3942 68.402 46.8481 70.0221 45.2259L69.9514 45.1552L69.8806 45.0845C68.3149 46.6523 65.9927 47.1796 63.9092 46.4314L63.8754 46.5256ZM69.9514 45.1552L70.0222 45.2258C71.6424 43.5996 72.1824 41.1837 71.4148 39.0233L71.3206 39.0568L71.2264 39.0903C71.9682 41.1782 71.4462 43.5131 69.8805 45.0846L69.9514 45.1552ZM71.3206 39.0568L71.3544 38.9627C70.6757 38.7189 69.9619 38.5987 69.2438 38.6142L69.246 38.7142L69.2482 38.8142C69.9409 38.7992 70.6305 38.9151 71.2868 39.1509L71.3206 39.0568ZM69.246 38.7142L69.2436 38.6142C68.9239 38.622 68.6075 38.6528 68.2946 38.7109L68.3129 38.8092L68.3312 38.9075C68.6327 38.8515 68.9385 38.8217 69.2484 38.8142L69.246 38.7142ZM33.8288 8.89618L33.7579 8.8256C29.4161 13.1835 27.3386 19.3205 28.1391 25.4303L28.2382 25.4173L28.3374 25.4043C27.545 19.3559 29.6016 13.2806 33.8996 8.96676L33.8288 8.89618ZM28.2382 25.4173L28.1391 25.4303C28.9396 31.5404 32.5266 36.9272 37.8444 40.0116L37.8946 39.9251L37.9448 39.8386C32.6808 36.7854 29.1298 31.453 28.3374 25.4043L28.2382 25.4173ZM37.8946 39.9251L37.8445 40.0116C43.1623 43.0916 49.605 43.5163 55.277 41.1595L55.2386 41.0671L55.2002 40.9748C49.5859 43.3077 43.2086 42.8873 37.9447 39.8385L37.8946 39.9251ZM55.2386 41.0671L55.277 41.1595C60.9489 38.8026 65.2076 33.9281 66.7972 27.9787L66.7006 27.9529L66.604 27.9271C65.0303 33.8167 60.8146 38.6418 55.2002 40.9748L55.2386 41.0671ZM66.7006 27.9529L66.7972 27.9788C68.3906 22.0256 67.1327 15.671 63.3931 10.7805L63.3137 10.8412L63.2342 10.902C66.9361 15.7431 68.1814 22.0337 66.604 27.9271L66.7006 27.9529ZM63.3137 10.8412L63.3931 10.7805C59.6574 5.89082 53.8668 3.02114 47.7251 3.02114V3.12114V3.22114C53.8043 3.22114 59.5362 6.0616 63.2342 10.9019L63.3137 10.8412ZM47.7251 3.12114L47.7253 3.02114C42.4873 3.01349 37.4584 5.10282 33.7578 8.82568L33.8288 8.89618L33.8997 8.96668C37.5627 5.28158 42.5404 3.21357 47.725 3.22114L47.7251 3.12114ZM35.3496 10.4265L35.2788 10.3559C31.411 14.2379 29.5649 19.7049 30.2782 25.149L30.3773 25.136L30.4765 25.123C29.7712 19.7402 31.5966 14.335 35.4205 10.4971L35.3496 10.4265ZM30.3773 25.136L30.2782 25.149C30.9914 30.5928 34.1878 35.3936 38.9255 38.135L38.9755 38.0484L39.0256 37.9619C34.342 35.2517 31.1817 30.5055 30.4765 25.123L30.3773 25.136ZM38.9755 38.0484L38.9254 38.1349C43.663 40.88 49.4034 41.259 54.4578 39.1572L54.4194 39.0648L54.381 38.9725C49.3842 41.0504 43.7094 40.6757 39.0257 37.9619L38.9755 38.0484ZM54.4194 39.0648L54.4578 39.1572C59.5122 37.0553 63.3035 32.7138 64.7187 27.4119L64.6221 27.3861L64.5255 27.3603C63.1262 32.6024 59.3778 36.8946 54.381 38.9725L54.4194 39.0648ZM64.6221 27.3861L64.7187 27.4119C66.1338 22.1058 65.0086 16.4441 61.6787 12.0906L61.5993 12.1514L61.5198 12.2121C64.8121 16.5163 65.9246 22.1141 64.5255 27.3604L64.6221 27.3861ZM61.5993 12.1514L61.6787 12.0907C58.3487 7.73387 53.1878 5.18401 47.7176 5.18401V5.28401V5.38401C53.1254 5.38401 58.2276 7.90479 61.5198 12.2121L61.5993 12.1514ZM47.7176 5.28401L47.7177 5.18401C43.0526 5.18018 38.5741 7.04047 35.2787 10.356L35.3496 10.4265L35.4206 10.497C38.6784 7.21924 43.1057 5.38022 47.7176 5.38401L47.7176 5.28401ZM64.6148 38.1585L64.5406 38.0915C64.284 38.3757 64.0195 38.6525 63.747 38.9297L63.8184 38.9998L63.8897 39.0699C64.1634 38.7914 64.4299 38.5124 64.689 38.2256L64.6148 38.1585ZM63.8184 38.9998L63.7475 38.9292C63.4757 39.2021 63.1961 39.4675 62.9162 39.7257L62.984 39.7992L63.0518 39.8728C63.3331 39.6133 63.6148 39.3458 63.8892 39.0704L63.8184 38.9998ZM62.984 39.7992L62.9131 39.8698L66.2925 43.2617L66.3633 43.1911L66.4342 43.1205L63.0548 39.7287L62.984 39.7992ZM66.3633 43.1911L66.3708 43.2908C66.5323 43.2786 66.6924 43.2423 66.8434 43.1905L66.8109 43.0959L66.7784 43.0013C66.6411 43.0485 66.4978 43.0807 66.3558 43.0914L66.3633 43.1911ZM66.8109 43.0959L66.8447 43.19C67.3815 42.997 67.8015 42.5711 67.9935 42.0372L67.8994 42.0034L67.8053 41.9695C67.6332 42.4482 67.2568 42.8293 66.777 43.0018L66.8109 43.0959ZM67.8994 42.0034L67.9936 42.037C68.0498 41.8798 68.0819 41.7225 68.0939 41.5616L67.9942 41.5542L67.8945 41.5467C67.8838 41.6904 67.8552 41.83 67.8052 41.9697L67.8994 42.0034ZM67.9942 41.5542L68.0651 41.4836L64.6857 38.088L64.6148 38.1585L64.544 38.2291L67.9233 41.6247L67.9942 41.5542ZM67.3001 48.89L67.2822 48.7916C66.9299 48.8556 66.5738 48.897 66.2176 48.9158L66.2229 49.0156L66.2282 49.1155C66.5927 49.0962 66.9572 49.0539 67.3179 48.9884L67.3001 48.89ZM66.2229 49.0156L66.1521 49.0862L73.3583 56.3228L73.4292 56.2523L73.5 56.1817L66.2938 48.9451L66.2229 49.0156ZM73.4292 56.2523L73.3584 56.3229C75.491 58.4595 78.9452 58.4595 81.0779 56.3229L81.0071 56.2523L80.9363 56.1816C78.8818 58.24 75.5544 58.24 73.5 56.1816L73.4292 56.2523ZM81.0071 56.2523L81.078 56.3228C83.2104 54.1826 83.2104 50.7162 81.078 48.5758L81.0071 48.6464L80.9363 48.717C82.991 50.7793 82.991 54.1194 80.9363 56.1817L81.0071 56.2523ZM81.0071 48.6464L81.078 48.5758L73.8717 41.343L73.8009 41.4136L73.73 41.4841L80.9363 48.717L81.0071 48.6464ZM73.8009 41.4136L73.701 41.4086C73.5212 45.0629 70.8656 48.1189 67.2816 48.7917L67.3001 48.89L67.3185 48.9883C70.994 48.2983 73.7164 45.1646 73.9007 41.4185L73.8009 41.4136ZM47.7219 2.1625V2.0625C41.2847 2.0625 35.2138 5.06536 31.2956 10.1911L31.3751 10.2518L31.4545 10.3126C35.335 5.23622 41.3471 2.2625 47.7219 2.2625V2.1625ZM31.3751 10.2518L31.2956 10.1911C27.3775 15.3168 26.0554 21.98 27.7246 28.2226L27.8212 28.1968L27.9178 28.1709C26.2646 21.9883 27.574 15.389 31.4545 10.3126L31.3751 10.2518ZM27.8212 28.1968L27.7246 28.2225C29.39 34.4612 33.8527 39.5719 39.7983 42.0426L39.8367 41.9502L39.875 41.8579C33.9871 39.4111 29.5673 34.3499 27.9178 28.171L27.8212 28.1968ZM39.8367 41.9502L39.7983 42.0426C45.7476 44.5136 52.5015 44.0699 58.0765 40.8414L58.0264 40.7549L57.9763 40.6683C52.4553 43.8656 45.7668 44.305 39.875 41.8579L39.8367 41.9502ZM58.0264 40.7549L58.0765 40.8414C63.6523 37.609 67.41 31.9593 68.2525 25.5566L68.1534 25.5435L68.0542 25.5305C67.2197 31.872 63.498 37.4673 57.9762 40.6684L58.0264 40.7549ZM68.1534 25.5435L68.2525 25.5565C69.0909 19.1495 66.9149 12.716 62.3643 8.14879L62.2935 8.21937L62.2227 8.28995C66.7293 12.8131 68.8846 19.1849 68.0542 25.5305L68.1534 25.5435ZM62.2935 8.21937L62.3644 8.1489C58.4846 4.24328 53.214 2.05477 47.7218 2.0625L47.7219 2.1625L47.7221 2.2625C53.1609 2.25484 58.3803 4.42206 62.2226 8.28985L62.2935 8.21937Z" fill="white" mask="url(#path-1-inside-1_1824_6)"></path></svg>