<svg width="46" height="62" viewBox="0 0 46 62" fill="none" xmlns="http://www.w3.org/2000/svg"><path d="M23.0004 1.35986C26.7279 1.35986 30.1028 2.85984 32.5461 5.28475C34.9893 7.70967 36.5003 11.0597 36.5003 14.7598C36.5003 18.4599 34.9891 21.8096 32.5461 24.2348C30.1031 26.66 26.7281 28.1597 23.0004 28.1597C19.2727 28.1597 15.8979 26.6597 13.4547 24.2348C11.0114 21.8099 9.50049 18.4599 9.50049 14.7598C9.50049 11.0597 11.0116 7.70991 13.4547 5.28475C15.8977 2.8596 19.2727 1.35986 23.0004 1.35986ZM31.6547 6.16913C29.4415 3.97229 26.3813 2.60984 23.0004 2.60984C19.6223 2.60984 16.5622 3.96917 14.346 6.16913C12.1328 8.36597 10.7602 11.4034 10.7602 14.7594C10.7602 18.1124 12.1297 21.1499 14.346 23.3496C16.5593 25.5465 19.6194 26.9089 23.0004 26.9089C26.3784 26.9089 29.4386 25.5496 31.6547 23.3496C33.8679 21.1528 35.2406 18.1153 35.2406 14.7594C35.2406 11.4063 33.8711 8.36885 31.6547 6.16913Z" fill="#0CB4C4" stroke="#0CB4C4" stroke-width="0.5"></path><path d="M22.9999 26.9062C23.935 26.9062 24.7818 27.2812 25.3957 27.8906C26.0097 28.5 26.3875 29.3406 26.3875 30.2687C26.3875 31.1969 26.0097 32.0374 25.3957 32.6469C24.7818 33.2562 23.935 33.6312 22.9999 33.6312C22.0648 33.6312 21.218 33.2563 20.604 32.6469C19.9901 32.0375 19.6123 31.1969 19.6123 30.2687C19.6123 29.3406 19.9901 28.5001 20.604 27.8906C21.2179 27.2813 22.0648 26.9062 22.9999 26.9062ZM24.5048 28.7749C24.1207 28.3937 23.5886 28.1562 22.9999 28.1562C22.4111 28.1562 21.8791 28.3937 21.495 28.7749C21.1109 29.1562 20.8717 29.6843 20.8717 30.2687C20.8717 30.853 21.1109 31.3811 21.495 31.7624C21.8791 32.1436 22.4111 32.3811 22.9999 32.3811C23.5886 32.3811 24.1206 32.1437 24.5048 31.7624C24.8889 31.3812 25.1281 30.8531 25.1281 30.2687C25.1281 29.6843 24.8889 29.1562 24.5048 28.7749Z" fill="#0CB4C4" stroke="#0CB4C4" stroke-width="0.5"></path><path d="M23.6299 33.3935C23.6299 33.0498 23.3466 32.7686 23.0003 32.7686C22.6539 32.7686 22.3706 33.0498 22.3706 33.3935V39.9121C22.3706 40.2559 22.6539 40.5371 23.0003 40.5371C23.3466 40.5371 23.6299 40.2559 23.6299 39.9121V33.3935Z" fill="#0CB4C4" stroke="#0CB4C4" stroke-width="0.5"></path><path d="M21.1614 39.6782H24.8386C25.1849 39.6782 25.4682 39.9595 25.4682 40.3032V58.5501C25.4682 59.9 24.36 61 23 61C21.6399 61 20.5317 59.9 20.5317 58.5501V40.3032C20.5317 39.9595 20.8151 39.6782 21.1614 39.6782ZM24.2089 40.9282H21.791V58.5495C21.791 59.2088 22.3356 59.7495 22.9999 59.7495C23.6642 59.7495 24.2089 59.2088 24.2089 58.5495V40.9282Z" fill="#0CB4C4" stroke="#0CB4C4" stroke-width="0.5"></path><path d="M34.7969 11.4284C34.7969 11.7721 35.0802 12.0534 35.4265 12.0534C35.7728 12.0534 36.0562 11.7721 36.0562 11.4284V3.83787H39.9632C40.3095 3.83787 40.5929 3.55662 40.5929 3.21288C40.5929 2.86913 40.3095 2.58789 39.9632 2.58789H35.4266C35.0803 2.58789 34.7969 2.86913 34.7969 3.21288L34.7969 11.4284Z" fill="#0CB4C4" stroke="#0CB4C4" stroke-width="0.5"></path><path d="M35.7122 12.1445C35.3659 12.1445 35.0825 12.4258 35.0825 12.7695C35.0825 13.1133 35.3659 13.3945 35.7122 13.3945H41.3287C41.675 13.3945 41.9583 13.1133 41.9583 12.7695C41.9583 12.4258 41.675 12.1445 41.3287 12.1445H35.7122Z" fill="#0CB4C4" stroke="#0CB4C4" stroke-width="0.5"></path><path d="M36.0557 18.0874C36.0557 17.7436 35.7723 17.4624 35.426 17.4624C35.0797 17.4624 34.7964 17.7436 34.7964 18.0874V26.3032C34.7964 26.647 35.0797 26.9282 35.426 26.9282H39.9627C40.309 26.9282 40.5923 26.647 40.5923 26.3032C40.5923 25.9595 40.309 25.6783 39.9627 25.6783H36.0557L36.0557 18.0874Z" fill="#0CB4C4" stroke="#0CB4C4" stroke-width="0.5"></path><path d="M41.4837 1.00049C42.0788 1.00049 42.6139 1.23799 43.0043 1.62548C43.3947 2.01297 43.634 2.54418 43.634 3.13481C43.634 3.72544 43.3947 4.25663 43.0043 4.64414C42.614 5.03163 42.0788 5.26913 41.4837 5.26913C40.8887 5.26913 40.3536 5.03163 39.9631 4.64414C39.5728 4.25664 39.3335 3.72544 39.3335 3.13481C39.3335 2.54418 39.5728 2.01299 39.9631 1.62548C40.3535 1.23796 40.8887 1.00049 41.4837 1.00049ZM42.1134 2.50982C41.9528 2.35045 41.7293 2.25045 41.4837 2.25045C41.2382 2.25045 41.0146 2.35045 40.8541 2.50982C40.6935 2.66919 40.5928 2.89106 40.5928 3.13481C40.5928 3.37856 40.6935 3.60042 40.8541 3.7598C41.0146 3.91917 41.2382 4.01917 41.4837 4.01917C41.7293 4.01917 41.9528 3.91917 42.1134 3.7598C42.274 3.60042 42.3747 3.37856 42.3747 3.13481C42.3747 2.89106 42.274 2.66919 42.1134 2.50982Z" fill="#0CB4C4" stroke="#0CB4C4" stroke-width="0.5"></path><path d="M42.8499 10.6348C43.445 10.6348 43.9801 10.8723 44.3705 11.2598C44.7609 11.6472 45.0002 12.1785 45.0002 12.7691C45.0002 13.3597 44.7609 13.8909 44.3705 14.2784C43.9802 14.6659 43.445 14.9034 42.8499 14.9034C42.2549 14.9034 41.7198 14.6659 41.3294 14.2784C40.939 13.8909 40.6997 13.3597 40.6997 12.7691C40.6997 12.1785 40.939 11.6473 41.3294 11.2598C41.7197 10.8723 42.2549 10.6348 42.8499 10.6348ZM43.4796 12.1441C43.319 11.9847 43.0955 11.8847 42.8499 11.8847C42.6044 11.8847 42.3809 11.9847 42.2203 12.1441C42.0597 12.3035 41.959 12.5253 41.959 12.7691C41.959 13.0128 42.0597 13.2347 42.2203 13.3941C42.3809 13.5534 42.6044 13.6534 42.8499 13.6534C43.0955 13.6534 43.319 13.5534 43.4796 13.3941C43.6402 13.2347 43.7409 13.0128 43.7409 12.7691C43.7409 12.5253 43.6402 12.3035 43.4796 12.1441Z" fill="#0CB4C4" stroke="#0CB4C4" stroke-width="0.5"></path><path d="M41.4837 24.1689C42.0788 24.1689 42.6139 24.4064 43.0043 24.7939C43.3947 25.1814 43.634 25.7126 43.634 26.3033C43.634 26.8939 43.3947 27.4251 43.0043 27.8126C42.614 28.2001 42.0788 28.4376 41.4837 28.4376C40.8887 28.4376 40.3536 28.2001 39.9631 27.8126C39.5727 27.4251 39.3335 26.8939 39.3335 26.3033C39.3335 25.7127 39.5728 25.1814 39.9631 24.7939C40.3535 24.4064 40.8887 24.1689 41.4837 24.1689ZM42.1134 25.6783C41.9528 25.5189 41.7293 25.4189 41.4837 25.4189C41.2382 25.4189 41.0146 25.5189 40.8541 25.6783C40.6935 25.8377 40.5928 26.0595 40.5928 26.3033C40.5928 26.547 40.6935 26.7689 40.8541 26.9283C41.0146 27.0876 41.2382 27.1876 41.4837 27.1876C41.7293 27.1876 41.9528 27.0876 42.1134 26.9283C42.274 26.7689 42.3747 26.547 42.3747 26.3033C42.3747 26.0595 42.274 25.8377 42.1134 25.6783Z" fill="#0CB4C4" stroke="#0CB4C4" stroke-width="0.5"></path><path d="M9.94435 11.4282C9.94435 11.772 10.2277 12.0532 10.574 12.0532C10.9203 12.0532 11.2036 11.772 11.2036 11.4282V3.21239C11.2036 2.86865 10.9203 2.5874 10.574 2.5874H6.03737C5.69106 2.5874 5.40771 2.86865 5.40771 3.21239C5.40771 3.55614 5.69106 3.83738 6.03737 3.83738H9.94439L9.94435 11.4282Z" fill="#0CB4C4" stroke="#0CB4C4" stroke-width="0.5"></path><path d="M10.2877 13.394C10.634 13.394 10.9173 13.1128 10.9173 12.769C10.9173 12.4253 10.634 12.144 10.2877 12.144H4.67116C4.32484 12.144 4.0415 12.4253 4.0415 12.769C4.0415 13.1128 4.32484 13.394 4.67116 13.394H10.2877Z" fill="#0CB4C4" stroke="#0CB4C4" stroke-width="0.5"></path><path d="M11.2032 18.0874C11.2032 17.7436 10.9199 17.4624 10.5735 17.4624C10.2272 17.4624 9.9439 17.7436 9.9439 18.0874V25.6779H6.03688C5.69057 25.6779 5.40723 25.9591 5.40723 26.3029C5.40723 26.6466 5.69057 26.9279 6.03688 26.9279H10.5735C10.9198 26.9279 11.2032 26.6466 11.2032 26.3029L11.2032 18.0874Z" fill="#0CB4C4" stroke="#0CB4C4" stroke-width="0.5"></path><path d="M4.51597 2.24998C4.2704 2.24998 4.04688 2.34997 3.88632 2.50935C3.72575 2.66872 3.62501 2.89059 3.62501 3.13434C3.62501 3.37808 3.72575 3.59995 3.88632 3.75933C4.04688 3.9187 4.2704 4.0187 4.51597 4.0187C4.76153 4.0187 4.98506 3.9187 5.14562 3.75933C5.30618 3.59995 5.40692 3.37808 5.40692 3.13434C5.40692 2.89059 5.30618 2.66872 5.14562 2.50935C4.98506 2.34997 4.76153 2.24998 4.51597 2.24998ZM2.99537 1.62499C3.38575 1.23749 3.92093 1 4.51597 1C5.11099 1 5.64615 1.2375 6.03656 1.62499C6.42696 2.01248 6.66621 2.54369 6.66621 3.13432C6.66621 3.72495 6.42694 4.25614 6.03656 4.64365C5.64617 5.03114 5.111 5.26864 4.51597 5.26864C3.92095 5.26864 3.38578 5.03114 2.99537 4.64365C2.60499 4.25616 2.36572 3.72495 2.36572 3.13432C2.36572 2.54369 2.60499 2.0125 2.99537 1.62499Z" fill="#0CB4C4" stroke="#0CB4C4" stroke-width="0.5"></path><path d="M3.15024 11.8843C2.90468 11.8843 2.68115 11.9843 2.52059 12.1436C2.36003 12.303 2.25929 12.5249 2.25929 12.7686C2.25929 13.0124 2.36003 13.2342 2.52059 13.3936C2.68115 13.553 2.90468 13.653 3.15024 13.653C3.39581 13.653 3.61933 13.553 3.77989 13.3936C3.94046 13.2342 4.0412 13.0124 4.0412 12.7686C4.0412 12.5249 3.94046 12.303 3.77989 12.1436C3.61933 11.9843 3.39581 11.8843 3.15024 11.8843ZM1.62965 11.2593C2.02004 10.8718 2.55521 10.6343 3.15024 10.6343C3.74526 10.6343 4.28043 10.8718 4.67084 11.2593C5.06122 11.6468 5.30049 12.178 5.30049 12.7686C5.30049 13.3592 5.06122 13.8904 4.67084 14.2779C4.28046 14.6654 3.74528 14.9029 3.15024 14.9029C2.55522 14.9029 2.02006 14.6654 1.62965 14.2779C1.23925 13.8904 1 13.3592 1 12.7686C1 12.178 1.23927 11.6468 1.62965 11.2593Z" fill="#0CB4C4" stroke="#0CB4C4" stroke-width="0.5"></path><path d="M4.51597 25.4184C4.2704 25.4184 4.04688 25.5184 3.88632 25.6778C3.72575 25.8372 3.62501 26.059 3.62501 26.3028C3.62501 26.5465 3.72575 26.7684 3.88632 26.9278C4.04688 27.0872 4.2704 27.1872 4.51597 27.1872C4.76153 27.1872 4.98506 27.0872 5.14562 26.9278C5.30618 26.7684 5.40692 26.5465 5.40692 26.3028C5.40692 26.059 5.30618 25.8372 5.14562 25.6778C4.98506 25.5184 4.76153 25.4184 4.51597 25.4184ZM2.99537 24.7934C3.38575 24.4059 3.92093 24.1685 4.51597 24.1685C5.11099 24.1685 5.64615 24.4059 6.03656 24.7934C6.42695 25.1809 6.66621 25.7121 6.66621 26.3028C6.66621 26.8934 6.42694 27.4246 6.03656 27.8121C5.64618 28.1996 5.111 28.4371 4.51597 28.4371C3.92095 28.4371 3.38578 28.1996 2.99537 27.8121C2.60499 27.4246 2.36572 26.8934 2.36572 26.3028C2.36572 25.7122 2.60499 25.181 2.99537 24.7934Z" fill="#0CB4C4" stroke="#0CB4C4" stroke-width="0.5"></path><path d="M25.9659 8.53155C26.2114 8.2878 26.2114 7.89094 25.9659 7.64717C25.7203 7.40342 25.3205 7.40342 25.0749 7.64717L18.3565 14.3158C18.111 14.5595 18.111 14.9564 18.3565 15.2001C18.4793 15.322 18.6399 15.3845 18.8004 15.3845H25.6794L20.0346 20.9875C19.789 21.2313 19.789 21.6281 20.0346 21.8719C20.2802 22.1157 20.68 22.1157 20.9256 21.8719L27.6408 15.2064C27.7573 15.0939 27.8297 14.9346 27.8297 14.7596C27.8297 14.4158 27.5463 14.1346 27.2 14.1346H20.3211L25.9659 8.53155Z" fill="#0CB4C4" stroke="#0CB4C4" stroke-width="0.5"></path></svg>