<svg width="67" height="61" viewBox="0 0 67 61" fill="none" xmlns="http://www.w3.org/2000/svg"><path d="M33.6753 22.3997C31.5685 22.3489 29.529 23.1418 28.0094 24.6019C26.4897 26.0614 25.6159 28.0678 25.5823 30.1745C25.5481 32.2813 26.3569 34.3147 27.8285 35.8228C29.3007 37.3308 31.3137 38.1888 33.4205 38.2058C35.5279 38.2235 37.5547 37.3986 39.0511 35.915C40.5476 34.4312 41.3894 32.4116 41.39 30.3042C41.4071 28.2355 40.6054 26.2439 39.1602 24.7629C37.7157 23.2826 35.744 22.4328 33.6753 22.3998V22.3997ZM33.6753 35.047C32.4077 35.0978 31.1727 34.6385 30.2463 33.7717C29.3195 32.9055 28.7786 31.7041 28.7443 30.4359C28.7101 29.1677 29.1854 27.9388 30.0643 27.0234C30.9426 26.1082 32.1512 25.5833 33.4199 25.5656C34.688 25.548 35.9109 26.0393 36.8141 26.9297C37.7178 27.8202 38.2273 29.0354 38.2285 30.3041C38.2538 31.5369 37.7879 32.729 36.9344 33.6183C36.0803 34.5082 34.9082 35.0215 33.6752 35.0469L33.6753 35.047ZM26.4032 48.8009V48.8003C26.1523 49.3611 25.5943 49.7206 24.9801 49.7173C24.7508 49.7101 24.5247 49.6561 24.3163 49.559C19.4978 47.1915 15.7431 43.1019 13.7951 38.0989C11.8465 33.0958 11.8465 27.5441 13.7951 22.5413C15.7431 17.5387 19.4978 13.4486 24.3163 11.0811C24.689 10.8969 25.1196 10.8705 25.5122 11.0072C25.9048 11.144 26.2257 11.4323 26.4032 11.8084C26.5863 12.1894 26.6089 12.6277 26.4666 13.0258C26.3238 13.4239 26.0277 13.7486 25.6445 13.9267C21.5555 15.9586 18.3736 19.4454 16.7228 23.7031C15.0721 27.9602 15.0721 32.6805 16.7228 36.9382C18.3736 41.1953 21.5555 44.6821 25.6445 46.7146C26.4214 47.0724 26.7611 47.9926 26.4032 48.7696L26.4032 48.8009ZM43.0336 49.5596V49.559C42.8251 49.6561 42.5991 49.7101 42.3697 49.7173C41.6369 49.7057 41.0089 49.1929 40.8506 48.4778C40.6924 47.7627 41.0464 47.0327 41.7053 46.714C45.7981 44.6701 48.9773 41.1683 50.6171 36.8985C52.2568 32.6281 52.2386 27.8985 50.5658 23.6408C48.8929 19.3837 45.6874 15.9062 41.579 13.8942C41.1958 13.7161 40.8992 13.3919 40.757 12.9938C40.6141 12.5957 40.6373 12.1574 40.8204 11.7759C40.9979 11.4004 41.3188 11.112 41.7114 10.9753C42.1034 10.8385 42.5346 10.865 42.9067 11.0492C47.7258 13.4167 51.4799 17.5062 53.4285 22.5093C55.3765 27.5124 55.3765 33.0641 53.4285 38.0669C51.4799 43.0694 47.7258 47.1595 42.9067 49.5271L43.0336 49.5596ZM21.2484 59.3921C20.9716 59.9402 20.4075 60.2837 19.7938 60.2776C19.5623 60.2853 19.3329 60.2307 19.13 60.1194C11.6699 56.4329 5.86127 50.0861 2.84827 42.3302C-0.165571 34.5746 -0.165571 25.9708 2.84827 18.2146C5.86156 10.4585 11.6702 4.11225 19.13 0.425397C19.9592 0.0499086 20.9363 0.41823 21.3112 1.24749C21.6867 2.07675 21.3189 3.05379 20.4896 3.42925C13.8231 6.79145 8.64401 12.512 5.9582 19.4795C3.2731 26.4465 3.2731 34.1619 5.9582 41.1291C8.64387 48.0962 13.823 53.8167 20.4896 57.1794C20.8916 57.3635 21.2009 57.7048 21.3443 58.1233C21.4876 58.5418 21.4529 59.0005 21.2483 59.3926L21.2484 59.3921ZM66.8725 30.2728C66.9083 36.4917 65.1842 42.5936 61.9002 47.8742C58.6161 53.1552 53.9058 57.4002 48.3127 60.119C48.1098 60.2304 47.8804 60.285 47.6489 60.2773C46.9106 60.2806 46.2688 59.7722 46.1023 59.0532C45.9358 58.3342 46.2892 57.5954 46.953 57.2735C53.6478 53.9118 58.8478 48.1748 61.5381 41.1837C64.2277 34.1924 64.2139 26.449 61.4995 19.4677C58.7852 12.4863 53.5648 6.76742 46.858 3.4302C46.4764 3.2499 46.1826 2.92514 46.0403 2.52816C45.8981 2.13062 45.919 1.69338 46.0993 1.31184C46.4748 0.517315 47.4231 0.177113 48.2177 0.552602C53.807 3.25211 58.5217 7.47222 61.8216 12.7291C65.121 17.9858 66.8716 24.0669 66.8721 30.2741L66.8725 30.2728Z" fill="#0CB4C4"></path></svg>