<svg width="61" height="60" viewBox="0 0 61 60" fill="none" xmlns="http://www.w3.org/2000/svg"><path d="M57.8734 48.5209L35.4181 28.8823C37.2176 25.9314 38.2012 22.5447 38.2012 19.0015C38.2012 13.927 36.2228 9.15425 32.6349 5.56632C29.047 1.97839 24.2742 0 19.1997 0C14.1252 0 9.35249 1.97839 5.76456 5.56632C2.17663 9.15425 0.198242 13.927 0.198242 19.0015C0.198242 24.076 2.17663 28.8487 5.76456 32.4367C9.35249 36.0246 14.3376 37.9918 19.1997 37.9918C22.6312 37.9918 26.0514 37.0529 29.0805 35.2086L48.7079 57.6416C49.9486 59.1393 51.7705 60 53.7154 60C57.2921 60 60.2094 57.0939 60.2094 53.506C60.2094 51.5611 59.3488 49.7392 57.8734 48.5209ZM7.35174 30.8495C4.18856 27.6863 2.44489 23.4724 2.44489 18.9903C2.44489 14.5082 4.18856 10.3055 7.35174 7.13115C10.5149 3.95678 14.7288 2.22429 19.2109 2.22429C23.693 2.22429 27.8957 3.96796 31.0701 7.13115C34.2444 10.2943 35.9769 14.5082 35.9769 18.9903C35.9769 23.4724 34.2333 27.6751 31.0701 30.8495C24.5313 37.3882 13.8905 37.3882 7.36292 30.8495H7.35174ZM53.7154 57.7534C52.4412 57.7534 51.2452 57.1945 50.4181 56.1885L30.9471 33.9344C31.5395 33.4762 32.1096 32.9844 32.6573 32.4367C33.1938 31.9001 33.6856 31.3189 34.155 30.7265L56.4427 50.2198C57.4263 51.0358 57.9851 52.2317 57.9851 53.506C57.9851 55.8532 56.0738 57.7645 53.7266 57.7645L53.7154 57.7534Z" fill="#0CB4C4"></path><path d="M19.2111 4.65039C11.2975 4.65039 4.85938 11.0885 4.85938 19.0021C4.85938 26.9157 11.2975 33.3538 19.2111 33.3538C27.1247 33.3538 33.5628 26.9157 33.5628 19.0021C33.5628 11.0885 27.1247 4.65039 19.2111 4.65039ZM9.25207 25.8874L13.4771 22.1988C13.4771 22.1988 13.4883 22.1765 13.4995 22.1653C13.5665 22.1094 13.6001 22.0423 13.6448 21.9641C13.6783 21.9082 13.723 21.8635 13.7454 21.7964C13.7677 21.7406 13.7789 21.6735 13.7901 21.6176C13.8124 21.5394 13.8348 21.4611 13.8348 21.3829C13.8348 21.3382 13.8236 21.2823 13.8124 21.2376C13.8124 21.137 13.7901 21.0476 13.7565 20.947C13.7565 20.947 13.7565 20.9246 13.7565 20.9134C12.6947 18.3985 13.2536 15.5371 15.1761 13.6034C16.6738 12.1057 18.7416 11.4462 20.7647 11.7257L17.7133 14.7771C17.2774 15.213 17.2774 15.9172 17.7133 16.3531L19.77 18.4097L21.8266 20.4663C22.0501 20.6899 22.3296 20.7905 22.6202 20.7905C22.9108 20.7905 23.1902 20.6787 23.4138 20.4663L26.4652 17.4149C26.7334 19.438 26.0852 21.5058 24.5874 23.0036C22.6649 24.9261 19.7923 25.485 17.2774 24.4231C17.2774 24.4231 17.2551 24.4231 17.2439 24.4231C17.1545 24.3896 17.065 24.3784 16.9644 24.3672C16.9086 24.3672 16.8638 24.3449 16.808 24.3449C16.7297 24.3449 16.6627 24.3672 16.5844 24.3896C16.5173 24.4008 16.4503 24.4119 16.3832 24.4455C16.3273 24.4678 16.2826 24.5125 16.2379 24.5461C16.1597 24.5908 16.0926 24.6355 16.0255 24.7026C16.0255 24.7026 16.0032 24.7137 15.992 24.7249L12.3035 28.9499C11.1075 28.1228 10.0568 27.0722 9.22972 25.8762L9.25207 25.8874ZM19.2111 31.1184C17.4674 31.1184 15.8132 30.7383 14.3266 30.0789L17.1992 26.7927C18.0822 27.0721 18.9987 27.2175 19.9041 27.2175C22.2178 27.2175 24.4756 26.3121 26.1746 24.6131C28.7342 22.0423 29.4831 18.2309 28.0859 14.8888C28.0859 14.8888 28.0859 14.8777 28.0859 14.8665C28.0636 14.7994 28.0077 14.7659 27.9741 14.71C27.9294 14.6429 27.9071 14.5759 27.84 14.5088C27.7618 14.4306 27.6723 14.3859 27.5717 14.33C27.2811 14.1735 26.9346 14.14 26.6217 14.2741C26.5546 14.3076 26.5099 14.3523 26.454 14.3859C26.3869 14.4306 26.3199 14.4529 26.2752 14.5088L22.6537 18.1303L21.3795 16.8561L20.1053 15.5818L23.7156 11.9716C23.7714 11.9045 23.7938 11.8486 23.8385 11.7815C23.8832 11.7257 23.9279 11.6698 23.9615 11.6027C24.0844 11.3121 24.0621 10.9879 23.9391 10.7085C23.8832 10.5967 23.8162 10.485 23.7267 10.3955C23.6709 10.3397 23.6038 10.3173 23.5479 10.2726C23.492 10.2279 23.4361 10.1832 23.3691 10.1496C23.3691 10.1496 23.3691 10.1496 23.3579 10.1496C20.0047 8.7413 16.1932 9.49018 13.6224 12.061C11.2528 14.4306 10.4592 17.8732 11.454 21.0252L8.14552 23.909C7.48605 22.4112 7.10602 20.7569 7.10602 19.0133C7.10602 12.3292 12.5382 6.89704 19.2223 6.89704C25.9063 6.89704 31.3385 12.3292 31.3385 19.0133C31.3385 25.6973 25.9063 31.1295 19.2223 31.1295L19.2111 31.1184Z" fill="#0CB4C4"></path></svg>