<svg version="1.1" id="Layer_1" xmlns="http://www.w3.org/2000/svg" xmlns:xlink="http://www.w3.org/1999/xlink" x="0px" y="0px" width="60px" height="60px" viewBox="0 0 60 60" enable-background="new 0 0 60 60" xml:space="preserve"><g><g><path fill="#0CB4C4" d="M58.252,22.058l-2.521,2.521C54.842,11.149,43.639,0.492,29.99,0.492 c-13.646,0-24.842,10.646-25.739,24.065l-2.5-2.499c-0.288-0.288-0.755-0.288-1.043,0s-0.288,0.753,0,1.042l3.643,3.644 c0.136,0.172,0.335,0.291,0.573,0.291c0.003,0,0.008-0.003,0.012-0.003c0.002,0,0.007,0.003,0.012,0.003 c0.195,0,0.382-0.078,0.521-0.216l3.717-3.719c0.289-0.289,0.289-0.753,0-1.042c-0.288-0.288-0.753-0.288-1.041,0l-2.407,2.404 C6.677,11.903,17.19,1.967,29.99,1.967c12.788,0,23.297,9.92,24.249,22.471l-2.379-2.38c-0.289-0.288-0.756-0.288-1.043,0 c-0.289,0.288-0.289,0.753,0,1.042l3.715,3.718c0.07,0.067,0.15,0.122,0.24,0.16c0.088,0.036,0.184,0.057,0.283,0.057 s0.195-0.021,0.285-0.057c0.09-0.039,0.172-0.093,0.236-0.16l3.717-3.718c0.287-0.289,0.287-0.753,0-1.042 C59.004,21.77,58.539,21.77,58.252,22.058z"></path><path fill="#0CB4C4" d="M55.055,27.526c-0.158,0-0.316-0.031-0.469-0.093c-0.156-0.068-0.287-0.155-0.398-0.264l-3.719-3.722 c-0.232-0.232-0.361-0.541-0.361-0.869c0-0.327,0.129-0.636,0.361-0.868c0.465-0.465,1.273-0.465,1.738,0l1.398,1.398 C52.031,11.423,41.914,2.459,29.99,2.459c-11.939,0-22.061,8.976-23.621,20.676l1.427-1.426c0.465-0.464,1.271-0.464,1.737,0 c0.232,0.232,0.36,0.541,0.36,0.868c0,0.328-0.127,0.636-0.36,0.869l-3.718,3.719c-0.216,0.216-0.498,0.342-0.801,0.358l-0.014,0 c-0.017,0-0.035,0.001-0.054,0.001l-0.085-0.001c-0.348-0.018-0.672-0.19-0.898-0.477L0.36,23.447C0.127,23.214,0,22.906,0,22.578 c0-0.327,0.128-0.636,0.36-0.868c0.465-0.465,1.273-0.465,1.738,0l1.754,1.753C5.278,10.223,16.558,0,29.99,0 c13.442,0,24.721,10.232,26.139,23.484l1.775-1.774c0.465-0.465,1.271-0.465,1.736,0C59.873,21.942,60,22.251,60,22.578 c0,0.328-0.127,0.636-0.359,0.869l-3.715,3.718c-0.107,0.107-0.238,0.198-0.391,0.264C55.369,27.495,55.211,27.526,55.055,27.526z M51.338,22.333c-0.039,0-0.111,0.009-0.174,0.072c-0.047,0.047-0.072,0.108-0.072,0.173c0,0.065,0.025,0.126,0.072,0.173 l3.715,3.718c0.023,0.021,0.053,0.042,0.088,0.057c0.047,0.019,0.119,0.022,0.191-0.006l3.787-3.77 c0.045-0.046,0.072-0.108,0.072-0.173c0-0.064-0.027-0.126-0.072-0.173c-0.092-0.093-0.254-0.093-0.346,0l-3.289,3.289 l-0.072-1.082C54.363,11.362,43.271,0.983,29.99,0.983c-13.273,0-24.363,10.369-25.248,23.606L4.67,25.67l-3.267-3.265 c-0.125-0.125-0.223-0.125-0.348,0c-0.046,0.047-0.072,0.108-0.072,0.173c0,0.065,0.026,0.126,0.072,0.173l3.644,3.645 c0.067,0.081,0.124,0.133,0.196,0.145l0.089-0.001c0.051-0.008,0.099-0.032,0.136-0.069l3.717-3.719 c0.046-0.046,0.072-0.108,0.072-0.173c0-0.064-0.026-0.126-0.072-0.173c-0.092-0.093-0.253-0.093-0.346,0l-3.345,3.34l0.099-1.32 C6.21,11.556,17.079,1.476,29.99,1.476c12.897,0,23.764,10.07,24.741,22.925l0.1,1.324l-3.318-3.319 C51.449,22.342,51.375,22.333,51.338,22.333z"></path></g><g><path fill="#0CB4C4" d="M26.676,33.221H1.255c-0.408,0-0.739,0.33-0.739,0.738v20.41c0,0.406,0.331,0.737,0.739,0.737h8.016 l4.186,4.186c0.144,0.145,0.331,0.216,0.521,0.216c0.188,0,0.376-0.071,0.521-0.216l4.185-4.186h7.993 c0.409,0,0.739-0.331,0.739-0.737v-20.41C27.415,33.551,27.084,33.221,26.676,33.221z M25.938,53.633h-7.561 c-0.196,0-0.382,0.077-0.521,0.216l-3.879,3.878l-3.88-3.878c-0.138-0.139-0.326-0.216-0.522-0.216H1.994V34.697h23.945V53.633z"></path><path fill="#0CB4C4" d="M13.978,60c-0.328,0-0.636-0.128-0.868-0.36l-4.042-4.042H1.255c-0.678,0-1.23-0.551-1.23-1.229v-20.41 c0-0.678,0.552-1.23,1.23-1.23h25.421c0.678,0,1.23,0.553,1.23,1.23v20.41c0,0.678-0.552,1.229-1.23,1.229h-7.789l-4.041,4.042 C14.613,59.872,14.305,60,13.978,60z M1.255,33.713c-0.136,0-0.247,0.11-0.247,0.246v20.41c0,0.136,0.11,0.245,0.247,0.245h8.22 l4.33,4.33c0.143,0.144,0.267,0.079,0.346,0l4.329-4.33h8.196c0.137,0,0.247-0.109,0.247-0.245v-20.41 c0-0.136-0.11-0.246-0.247-0.246H1.255z M13.978,58.422L9.75,54.196c-0.046-0.046-0.108-0.072-0.175-0.072H1.502V34.205H26.43 v19.919h-8.052c-0.065,0-0.127,0.026-0.173,0.072L13.978,58.422z M2.485,53.141h7.09c0.329,0,0.638,0.128,0.87,0.36l3.532,3.53 l3.532-3.53c0.232-0.232,0.541-0.36,0.869-0.36h7.068V35.188H2.485V53.141z"></path></g><g><path fill="#0CB4C4" d="M58.771,33.221H33.346c-0.406,0-0.736,0.33-0.736,0.738v20.41c0,0.406,0.33,0.737,0.736,0.737h8.018 l4.186,4.186c0.143,0.145,0.332,0.216,0.521,0.216s0.379-0.071,0.523-0.216l4.184-4.186h7.994c0.406,0,0.736-0.331,0.736-0.737 v-20.41C59.508,33.551,59.178,33.221,58.771,33.221z M58.033,53.633h-7.563c-0.195,0-0.383,0.077-0.521,0.216l-3.879,3.878 l-3.879-3.878c-0.139-0.139-0.326-0.216-0.521-0.216h-7.586V34.697h23.949V53.633z"></path><path fill="#0CB4C4" d="M46.07,60c-0.328,0-0.637-0.128-0.869-0.36l-4.041-4.042h-7.814c-0.678,0-1.229-0.551-1.229-1.229v-20.41 c0-0.678,0.551-1.23,1.229-1.23h25.426c0.676,0,1.229,0.553,1.229,1.23v20.41c0,0.678-0.553,1.229-1.229,1.229H50.98l-4.039,4.042 C46.709,59.872,46.398,60,46.07,60z M33.346,33.713c-0.135,0-0.244,0.11-0.244,0.246v20.41c0,0.136,0.109,0.245,0.244,0.245h8.223 l4.328,4.33c0.125,0.125,0.225,0.125,0.35,0l4.328-4.33h8.197c0.135,0,0.244-0.109,0.244-0.245v-20.41 c0-0.136-0.109-0.246-0.244-0.246H33.346z M46.07,58.422l-4.227-4.226c-0.047-0.046-0.109-0.072-0.174-0.072h-8.076V34.205h24.93 v19.919h-8.053c-0.064,0-0.129,0.027-0.176,0.075L46.07,58.422z M34.576,53.141h7.094c0.328,0,0.637,0.128,0.869,0.36l3.531,3.53 l3.529-3.53c0.236-0.233,0.545-0.36,0.871-0.36h7.07V35.188H34.576V53.141z"></path></g></g></svg>