<svg width="69" height="60" viewBox="0 0 69 60" fill="none" xmlns="http://www.w3.org/2000/svg"><path fill-rule="evenodd" clip-rule="evenodd" d="M60.5796 59.9999H9.68357C5.03926 59.9999 1.26025 56.2181 1.26025 51.5673V49.4375C1.26025 48.9301 1.67266 48.5171 2.17939 48.5171H68.081C68.5877 48.5171 69.0001 48.9301 69.0001 49.4375V51.5673C69.0001 56.2182 65.221 59.9999 60.5768 59.9999H60.5796ZM3.09852 50.3552V51.5645C3.09852 55.2005 6.05272 58.159 9.68357 58.159H60.5796C64.2103 58.159 67.1646 55.2005 67.1646 51.5645V50.3552H3.09852Z" fill="#C74634"></path><path fill-rule="evenodd" clip-rule="evenodd" d="M62.1049 50.3554H8.16034C7.65359 50.3554 7.24121 49.9424 7.24121 49.4349V23.5484C7.24121 23.2191 7.41642 22.9168 7.69944 22.7522L8.47304 22.3041C8.7992 22.1178 9.20352 22.1448 9.49734 22.3743C10.1874 22.9141 10.9502 23.3514 11.7615 23.6726C12.1119 23.8103 12.341 24.1504 12.341 24.5283V28.5935H17.9368V24.5229C17.9368 24.145 18.1659 23.8076 18.5164 23.6672C19.3277 23.346 20.0878 22.9087 20.7724 22.3716C21.0689 22.1394 21.4732 22.1124 21.7967 22.2987L25.3089 24.3286L28.1068 19.4752L24.6269 17.4642C24.3439 17.2995 24.1687 16.9972 24.1687 16.6679V13.7581C24.1687 13.4288 24.3439 13.1264 24.6269 12.9618L28.1068 10.9508L27.5084 9.91155C27.344 9.62812 27.344 9.27721 27.5084 8.99111C27.6728 8.70768 27.9747 8.53223 28.3035 8.53223H55.8189C59.7893 8.53223 63.0188 11.766 63.0188 15.7424V49.4354C63.0188 49.9429 62.6064 50.3559 62.0997 50.3559L62.1049 50.3554ZM9.07948 48.5171H61.1886V15.7445C61.1886 12.7834 58.7815 10.3756 55.8273 10.3756H29.9052L30.1667 10.8318C30.288 11.0423 30.3203 11.2934 30.2583 11.5282C30.1963 11.7631 30.0427 11.9655 29.8298 12.087L26.013 14.2923V16.1387L29.8298 18.344C30.2691 18.5977 30.4201 19.1619 30.1667 19.5992L26.4497 26.0451C26.3284 26.2557 26.1262 26.4095 25.8917 26.4743C25.6572 26.5391 25.4065 26.504 25.1963 26.3826L21.4091 24.1934C20.8943 24.5497 20.3498 24.8628 19.781 25.1274V29.5138C19.781 30.0213 19.3686 30.4342 18.8619 30.4342H11.4281C10.9214 30.4342 10.509 30.0212 10.509 29.5138V25.1355C10.013 24.9061 9.53588 24.6389 9.08039 24.3366L9.07948 48.5171Z" fill="#C74634"></path><path fill-rule="evenodd" clip-rule="evenodd" d="M57.3527 50.3557H12.9128C12.406 50.3557 11.9937 49.9427 11.9937 49.4352V29.5143C11.9937 29.0069 12.4061 28.5939 12.9128 28.5939H17.9426V24.5233C17.9426 24.1454 18.1717 23.808 18.5221 23.6676C19.3334 23.3464 20.0935 22.9091 20.7782 22.372C21.0747 22.1398 21.479 22.1128 21.8025 22.2991L25.3146 24.329L28.1125 19.4756L24.6327 17.4646C24.3496 17.3 24.1744 16.9976 24.1744 16.6683V14.212C24.1744 13.7045 24.5868 13.2915 25.0936 13.2915H55.8245C57.1749 13.2915 58.272 14.3901 58.272 15.7425V49.4355C58.272 49.943 57.8595 50.3557 57.3527 50.3557ZM13.8292 48.5174H56.4336V15.7448C56.4336 15.4074 56.1587 15.1348 55.8217 15.1348H26.0072V16.1416L29.8239 18.347C30.2633 18.6007 30.4142 19.1649 30.1609 19.6021L26.4438 26.0481C26.3225 26.2586 26.1204 26.4125 25.8859 26.4773C25.6514 26.5421 25.4007 26.507 25.1904 26.3855L21.4033 24.1963C20.8885 24.5526 20.3439 24.8658 19.7752 25.1303V29.5167C19.7752 30.0242 19.3628 30.4372 18.8561 30.4372H13.8263V48.5172L13.8292 48.5174Z" fill="#C74634"></path><path fill-rule="evenodd" clip-rule="evenodd" d="M40.905 55.4462H29.3607C28.0372 55.4462 26.959 54.3665 26.959 53.0411V49.4375C26.959 48.9301 27.3714 48.5171 27.8781 48.5171H42.3904C42.8971 48.5171 43.3095 48.9301 43.3095 49.4375V53.0411C43.3095 54.3665 42.234 55.4462 40.9078 55.4462H40.905ZM28.7941 50.3553V53.0411C28.7941 53.3488 29.0529 53.608 29.3575 53.608H40.9019C41.2092 53.608 41.4679 53.3488 41.4679 53.0411V50.3553H28.7912H28.7941Z" fill="#C74634"></path><path fill-rule="evenodd" clip-rule="evenodd" d="M18.8615 30.4347H11.4277C10.9209 30.4347 10.5086 30.0217 10.5086 29.5143V25.136C9.93982 24.8715 9.39263 24.5584 8.8751 24.1993L5.09334 26.3858C4.88309 26.5073 4.63241 26.5424 4.39792 26.4776C4.16341 26.4155 3.96125 26.2616 3.83996 26.0484L0.122917 19.6024C0.00162161 19.3919 -0.0307275 19.1409 0.0312726 18.906C0.0932686 18.6712 0.249608 18.4687 0.45985 18.3473L4.2766 16.1419V14.2929L0.45985 12.0875C0.0204873 11.8338 -0.130459 11.2696 0.122917 10.8324L3.83996 4.38641C3.96125 4.17586 4.16341 4.022 4.39792 3.95722C4.63512 3.89244 4.8831 3.92753 5.09603 4.049L8.88318 6.23817C9.39801 5.87916 9.94253 5.56873 10.5113 5.30418V0.920446C10.5113 0.412971 10.9237 0 11.4304 0H18.8642C19.3709 0 19.7833 0.412999 19.7833 0.920446V5.29872C20.3521 5.56325 20.8993 5.87637 21.4168 6.2354L25.1986 4.04893C25.4088 3.92746 25.6595 3.89506 25.894 3.95715C26.1285 4.01924 26.3306 4.1731 26.4519 4.38634L30.169 10.8323C30.2903 11.0428 30.3226 11.2939 30.2606 11.5287C30.1986 11.7636 30.045 11.966 29.832 12.0875L26.0153 14.2928V16.1392L29.832 18.3445C30.2714 18.5982 30.4224 19.1624 30.169 19.5997L26.4519 26.0456C26.3306 26.2562 26.1285 26.41 25.894 26.4748C25.6595 26.5396 25.4088 26.5045 25.1986 26.3831L21.4114 24.1939C20.8966 24.5502 20.3521 24.8633 19.7833 25.1279V29.5143C19.7833 30.0218 19.3736 30.432 18.8669 30.432L18.8615 30.4347ZM12.3466 28.5965H17.9424V24.5259C17.9424 24.148 18.1715 23.8106 18.5219 23.6702C19.3332 23.349 20.0933 22.9117 20.778 22.3745C21.0745 22.1424 21.4788 22.1154 21.8023 22.3017L25.3144 24.3316L28.1124 19.4782L24.6325 17.4672C24.3495 17.3025 24.1742 17.0002 24.1742 16.6709V13.7611C24.1742 13.4318 24.3495 13.1294 24.6325 12.9648L28.1124 10.9538L25.3144 6.10043L21.8077 8.12762C21.4842 8.31388 21.0799 8.28688 20.7834 8.05744C20.0906 7.51758 19.3305 7.08026 18.5192 6.75908C18.1688 6.62141 17.9397 6.28129 17.9397 5.90338V1.83821H12.3412V5.90877C12.3412 6.28668 12.1121 6.62412 11.7617 6.76446C10.9503 7.08568 10.1902 7.523 9.50287 8.06014C9.20637 8.29228 8.80207 8.31927 8.47858 8.13302L4.96641 6.10313L2.16851 10.9565L5.64838 12.9702C5.93141 13.1349 6.10661 13.4372 6.10661 13.7665V16.6763C6.10661 17.0056 5.9314 17.3079 5.64838 17.4726L2.16851 19.4836L4.96641 24.337L8.47051 22.3098C8.79396 22.1235 9.20098 22.1505 9.4948 22.3799C10.1875 22.9198 10.9477 23.3571 11.759 23.6783C12.1094 23.816 12.3412 24.1561 12.3412 24.534V28.5992L12.3466 28.5965Z" fill="#C74634"></path><path fill-rule="evenodd" clip-rule="evenodd" d="M15.1286 22.9168C11.1069 22.9168 7.80516 19.9017 7.4491 15.9015C7.26581 13.8528 7.89655 11.8525 9.22002 10.2735C10.5435 8.69709 12.4061 7.7253 14.4573 7.54177C18.7754 7.15307 22.4576 10.2978 22.8351 14.5246C23.0183 16.5733 22.3876 18.5736 21.0641 20.1526C19.7406 21.729 17.8808 22.7008 15.8241 22.8816C15.5896 22.9032 15.3578 22.914 15.1287 22.914L15.1286 22.9168ZM15.1555 9.35267C14.9776 9.35267 14.8024 9.36077 14.6218 9.37696C13.0558 9.51732 11.6352 10.2569 10.6271 11.4581C9.61901 12.6593 9.13923 14.179 9.27937 15.7392C9.56509 18.9596 12.3819 21.3511 15.6622 21.0542C17.231 20.9138 18.6488 20.1742 19.6596 18.973C20.6677 17.7718 21.1475 16.2521 21.0074 14.6919C20.7351 11.6471 18.2203 9.35267 15.1555 9.35267Z" fill="#C74634"></path><path fill-rule="evenodd" clip-rule="evenodd" d="M15.1416 20.547C14.6349 20.547 14.2225 20.134 14.2225 19.6266V19.4592C13.5891 19.2649 13.0392 18.8627 12.6726 18.285C12.4004 17.8559 12.527 17.289 12.9556 17.0164C13.3842 16.7438 13.9502 16.8706 14.2225 17.2998C14.4273 17.6237 14.767 17.7533 15.1228 17.7506H15.1362C15.2575 17.7479 15.3788 17.729 15.4893 17.6966C15.6915 17.6399 16.1578 17.4483 16.1578 16.9462C16.1578 16.6817 15.9961 16.4955 15.8991 16.4091C15.7023 16.2309 15.4327 16.1337 15.1389 16.1337C13.5648 16.1283 12.2844 14.9379 12.2871 13.4776C12.2898 12.2818 13.0607 11.3235 14.2225 10.9834V10.7998C14.2225 10.2924 14.6349 9.87939 15.1416 9.87939C15.6484 9.87939 16.0607 10.2924 16.0607 10.7998V10.9807C16.9691 11.2479 17.7562 11.9255 17.9637 13.0349C18.0554 13.5343 17.7265 14.0148 17.2279 14.1066C16.7292 14.201 16.2494 13.869 16.1578 13.3696C16.0445 12.7677 15.3949 12.6624 15.0284 12.6948C14.8774 12.7083 14.1281 12.8109 14.1281 13.483C14.1281 13.9203 14.5944 14.2928 15.147 14.2955C15.8909 14.2982 16.5945 14.5627 17.1282 15.0405C17.6915 15.5453 18.0015 16.2255 17.9988 16.9516C17.9961 18.1069 17.2386 19.0813 16.0634 19.4458V19.6293C16.0634 20.1368 15.651 20.5471 15.1443 20.5471L15.1416 20.547Z" fill="#C74634"></path><path fill-rule="evenodd" clip-rule="evenodd" d="M45.0346 45.9773H38.3714C37.8646 45.9773 37.4523 45.5643 37.4523 45.0569V41.1914C36.9752 40.9647 36.5142 40.7028 36.0776 40.4032L32.7406 42.3333C32.3039 42.587 31.7406 42.4358 31.4872 41.9959L28.1556 36.2166C28.0343 36.006 28.002 35.755 28.064 35.5202C28.126 35.2853 28.2823 35.0829 28.4926 34.9614L31.8673 33.0098V31.4631L28.4926 29.5115C28.0532 29.2578 27.9023 28.6936 28.1556 28.2563L31.4872 22.4771C31.7406 22.0371 32.3013 21.8859 32.7406 22.1397L36.083 24.0724C36.517 23.7755 36.9752 23.5109 37.4523 23.2869V19.4161C37.4523 18.9086 37.8647 18.4956 38.3715 18.4956H45.0346C45.5414 18.4956 45.9538 18.9086 45.9538 19.4161V23.2815C46.4309 23.5083 46.8918 23.7701 47.3285 24.0697L50.6654 22.1397C51.1048 21.8859 51.6654 22.0371 51.9188 22.4771L55.2504 28.2563C55.3717 28.4669 55.404 28.7179 55.342 28.9527C55.2801 29.1876 55.1237 29.39 54.9135 29.5115L51.5388 31.4631V33.0098L54.9135 34.9614C55.3528 35.2152 55.5038 35.7766 55.2504 36.2166L51.9188 41.9959C51.6654 42.4358 51.1048 42.587 50.6654 42.3333L47.323 40.4005C46.889 40.6975 46.4308 40.9593 45.9537 41.186V45.0569C45.9537 45.5643 45.5413 45.9773 45.0346 45.9773ZM39.2878 44.1391H44.1154V40.5841C44.1154 40.2062 44.3445 39.8687 44.695 39.7284C45.4147 39.4422 46.0885 39.0562 46.695 38.5811C46.9915 38.349 47.3958 38.322 47.7193 38.5083L50.784 40.2817L53.1965 36.0951L50.1587 34.3378C49.8757 34.1731 49.7005 33.8708 49.7005 33.5415V30.934C49.7005 30.6047 49.8757 30.3023 50.1587 30.1377L53.1965 28.3804L50.7813 24.1938L47.722 25.9618C47.3985 26.1481 46.9942 26.1211 46.6977 25.889C46.0858 25.4112 45.4092 25.0225 44.6923 24.739C44.3419 24.6014 44.1127 24.2612 44.1127 23.8833V20.3364H39.2852V23.8914C39.2852 24.2693 39.056 24.6068 38.7056 24.7471C37.9859 25.0332 37.3148 25.4193 36.7056 25.8944C36.4091 26.1265 36.0048 26.1535 35.6813 25.9672L32.6166 24.1938L30.2041 28.3804L33.2419 30.1377C33.5249 30.3024 33.7001 30.6047 33.7001 30.934V33.5415C33.7001 33.8708 33.5249 34.1731 33.2419 34.3378L30.2041 36.0951L32.6193 40.2817L35.6786 38.5136C36.0021 38.3274 36.4091 38.3544 36.7029 38.5865C37.3148 39.0643 37.9887 39.453 38.7083 39.7365C39.0587 39.8741 39.2905 40.2142 39.2905 40.5922V44.1417L39.2878 44.1391Z" fill="#C74634"></path><path fill-rule="evenodd" clip-rule="evenodd" d="M41.6895 39.2366C38.0344 39.2366 35.0344 36.4968 34.7111 32.8608C34.544 30.9982 35.1155 29.1816 36.3203 27.7456C37.5225 26.3123 39.2152 25.4295 41.0805 25.2622C45.0051 24.914 48.3501 27.7671 48.6923 31.6083C49.0346 35.4521 46.1775 38.8585 42.3229 39.204C42.11 39.2229 41.8997 39.231 41.6895 39.231L41.6895 39.2366ZM41.7138 27.0759C41.5574 27.0759 41.4011 27.0813 41.2448 27.0975C39.8647 27.2217 38.6167 27.8722 37.7271 28.9303C36.8403 29.9884 36.4172 31.3246 36.5384 32.6985C36.7918 35.5329 39.2662 37.6356 42.1584 37.3764C45.0049 37.1227 47.1154 34.6096 46.862 31.7753C46.6221 29.0949 44.4091 27.0758 41.711 27.0758L41.7138 27.0759Z" fill="#C74634"></path><path fill-rule="evenodd" clip-rule="evenodd" d="M41.7008 37.1126C41.194 37.1126 40.7816 36.6996 40.7816 36.1922V36.1112C40.221 35.9222 39.7331 35.5551 39.4069 35.0395C39.1347 34.6104 39.2614 34.0435 39.69 33.7709C40.1186 33.4983 40.6873 33.6251 40.9568 34.0543C41.1186 34.3108 41.3962 34.4133 41.6684 34.4133H41.7034C41.8005 34.4106 41.8948 34.3944 41.9838 34.3701C42.1428 34.3243 42.5148 34.1758 42.5148 33.7898C42.5148 33.4497 42.1401 33.1582 41.6953 33.1582C40.2317 33.1555 39.043 32.0433 39.043 30.6829C39.0457 29.5897 39.733 28.7097 40.7788 28.375V28.2832C40.7788 27.7758 41.1912 27.3628 41.698 27.3628C42.2047 27.3628 42.6171 27.7758 42.6171 28.2832V28.3696C43.4931 28.6503 44.1509 29.3468 44.3207 30.2672C44.4123 30.7666 44.0835 31.2471 43.5848 31.3389C43.0861 31.428 42.6063 31.1013 42.5147 30.602C42.4069 30.0189 41.6872 30.0702 41.6036 30.0756C41.4338 30.0918 40.8839 30.1809 40.8812 30.6857C40.8812 31.0285 41.2559 31.3173 41.7007 31.3173C43.1643 31.32 44.353 32.4321 44.3503 33.7925C44.3476 34.8506 43.671 35.7441 42.6144 36.0977V36.1922C42.6144 36.7024 42.2047 37.1127 41.6953 37.1127L41.7008 37.1126Z" fill="#C74634"></path></svg>