<svg xmlns="http://www.w3.org/2000/svg" width="56" height="62" viewBox="0 0 56 62" fill="none"><title id="svgTitle">MRO Predictive Maintenance Solutions</title><mask id="path-1-outside-1_301_291" maskUnits="userSpaceOnUse" x="0" y="0" width="56" height="62" fill="black"><rect fill="white" width="56" height="62"></rect><path d="M45.0567 36.1976L49.3646 39.5303C49.5647 39.6847 49.8352 39.7073 50.0573 39.5906C50.2795 39.4739 50.4138 39.2373 50.3993 38.9863C50.2159 33.4816 44.1888 29.5989 39.1065 31.6846L40.3203 30.2485C41.8099 28.6093 40.6517 25.7339 38.4418 25.5919C39.6162 23.8746 38.3179 21.3176 36.2338 21.2593C37.5168 18.5508 34.0832 15.9492 31.8263 17.9231C31.3232 15.764 28.2865 15.0834 26.911 16.8303L24.5061 19.6771C24.7906 14.4825 19.6541 10.1084 14.5484 11.2533C14.3019 11.3028 14.1067 11.4917 14.0496 11.7367C13.9925 11.9814 14.0829 12.2375 14.2818 12.3915L18.5896 15.7245L18.0682 20.8842L13.2056 22.6842L8.89838 19.3509C8.69946 19.1965 8.42775 19.1736 8.20686 19.29C7.9841 19.4068 7.84981 19.6427 7.86299 19.8934C8.00592 24.1878 11.9131 27.8669 16.2006 27.748C15.4412 29.3658 15.1207 31.1321 15.248 32.9102C14.6202 32.6938 13.8735 32.8914 13.4485 33.4065C12.6135 34.6523 9.47756 36.8137 11.3438 38.4253L22.4501 47.9829C23.1474 48.5785 24.2075 48.5022 24.8101 47.8028C25.62 46.5799 28.6976 44.4833 26.995 42.8634C29.7364 42.5506 31.6901 40.0604 33.2501 37.9868L33.8136 38.4228C33.0842 43.2289 37.2187 47.9077 42.0674 47.7933C42.7195 47.7071 43.9609 47.9225 44.2134 47.144C44.2704 46.8986 44.1795 46.6432 43.9812 46.4894L39.6727 43.1567L40.1941 37.9973L45.0567 36.1976ZM39.1569 27.2227C40.7755 28.5777 38.4133 30.378 37.6339 31.4355C37.4364 31.639 35.9565 33.509 35.7291 33.5933C34.2321 34.6016 32.5004 32.715 33.6493 31.3184L36.9612 27.405C37.4965 26.7728 38.5174 26.6815 39.1569 27.2227ZM37.0478 22.8948C37.7048 23.4507 37.7864 24.4378 37.2298 25.0958L33.9178 29.0092C32.5341 30.5147 30.2519 28.6008 31.5402 26.9908L34.8478 23.0818C35.3843 22.4502 36.4165 22.3608 37.0478 22.8948ZM32.4676 19.0757C33.8153 17.5307 36.1442 19.5054 34.8452 21.0939L31.5389 25.0019C30.1948 26.5387 27.8608 24.5967 29.1531 22.9961V22.9961L32.4676 19.0757ZM24.5811 21.5776C24.5833 21.5738 24.6657 21.4815 24.6661 21.477L27.8918 17.6604C29.2741 16.1584 31.5652 18.0613 30.2738 19.6785L26.9669 23.5875C25.5858 25.0881 23.299 23.192 24.5811 21.5776ZM11.8665 24.9975C10.6667 24.0685 9.81141 22.7931 9.40478 21.368L12.7011 23.9189C12.8762 24.0547 13.1102 24.0899 13.3173 24.0133L18.8902 21.9504C19.1205 21.865 19.2824 21.6564 19.3069 21.4123L19.9043 15.4993C19.9262 15.2787 19.8334 15.0622 19.6583 14.9263L16.3645 12.3777C20.5302 12.3883 23.9391 16.5237 23.1252 20.6273C23.0901 20.8309 23.1554 21.037 23.2966 21.1832C22.8091 22.0535 22.8201 23.138 23.309 24.0034C20.4821 21.7052 18.4071 24.0448 16.9142 26.432C15.1019 26.6272 13.3186 26.1211 11.8665 24.9975ZM26.1241 44.3095L23.8362 46.9645C23.6932 47.1307 23.4509 47.1477 23.2859 47.0071L12.1815 37.4508C12.0173 37.318 11.9978 37.0576 12.1388 36.9005L14.4242 34.243C14.5587 34.0797 14.8154 34.0622 14.9733 34.2034C17.0115 35.9552 24.2922 42.2212 26.0815 43.7591C26.2437 43.8926 26.2646 44.1527 26.1241 44.3095ZM30.4521 39.4143C29.2726 40.8802 27.5382 41.7075 25.6659 41.7059C23.439 39.7904 18.864 35.8546 16.6594 33.9574C16.1962 31.4934 16.73 28.976 18.1429 26.903C19.0924 25.6053 20.3528 23.4104 22.221 24.787C23.1686 25.7324 26.5066 27.2198 25.3761 28.9878C24.9288 29.7711 23.826 29.9882 23.1077 29.4566C22.5539 29.1669 22.0484 28.3806 21.3664 28.5698C20.9969 28.7493 20.7839 29.315 20.4527 29.5636C20.1395 29.7539 20.0596 30.2186 20.2952 30.5024C20.8719 31.1377 21.411 32.67 21.2659 33.7133C21.236 34.0843 21.5353 34.4056 21.9073 34.4042C23.3633 34.2941 22.1404 30.7897 21.6374 30.177C21.6732 30.1375 21.7084 30.097 21.7435 30.0559C22.4571 30.63 23.293 31.1257 24.2358 31.0123L32.2333 37.2001L30.4521 39.4143ZM38.604 43.9549L41.9022 46.5057C37.7336 46.5005 34.3214 42.3645 35.1378 38.2539C35.1785 38.0199 35.0856 37.7821 34.898 37.6365C34.1858 37.0871 26.6111 31.2237 25.6843 30.508C27.2551 29.4296 27.2649 27.0162 25.7043 25.8563L25.0136 25.322C25.9058 25.5587 26.8925 25.3453 27.6057 24.7588C27.9171 25.8856 28.9613 26.7425 30.1267 26.8287C29.3616 28.5376 30.4965 30.6095 32.4193 30.8312C30.685 33.8173 34.7227 36.7909 37.0121 34.1626L38.2176 32.7363C38.4771 32.9574 38.8162 33.2242 39.1707 33.0425C42.9387 31.2222 47.8002 33.479 48.855 37.511L45.5612 34.9627C45.3843 34.8265 45.1508 34.7908 44.945 34.8686L39.3721 36.9312C39.1418 37.0159 38.9799 37.2249 38.9554 37.469L38.3581 43.382C38.3361 43.6029 38.429 43.8194 38.604 43.9549ZM2.2631 34.6496C2.6689 34.6528 2.98343 34.264 2.89123 33.8677C-2.34295 7.68091 32.2896 -5.23554 45.6792 17.6877L43.188 18.8956C42.7283 19.1013 42.7069 19.8051 43.1566 20.0358L52.4375 25.1943C52.8099 25.414 53.3266 25.1639 53.3844 24.7356L55.0969 14.253C55.194 13.7582 54.6311 13.3361 54.1832 13.5703L51.6186 14.8109C36.2656 -12.872 -6.8985 4.84479 2.2631 34.6496ZM19.7687 3.5772C31.8207 -0.479329 44.8647 4.72712 50.7771 15.9561C50.9384 16.2623 51.3111 16.3856 51.6255 16.2353L53.6285 15.2664L52.2624 23.6258L44.8616 19.5125L46.8407 18.553C47.1585 18.406 47.299 17.9897 47.1319 17.6808C39.6102 2.71159 18.3839 -0.0437065 7.35345 12.4888C10.3849 8.47052 14.6319 5.30537 19.7687 3.5772ZM54.5171 27.784C54.3177 26.9752 53.0891 27.2505 53.2639 28.0705C58.4979 54.257 23.8654 67.1762 10.4766 44.2505L12.9671 43.0425C13.4267 42.8378 13.4484 42.1329 12.9985 41.903L3.71829 36.7442C3.3457 36.5239 2.82912 36.7749 2.77139 37.2029L1.05828 47.6855C0.961535 48.1803 1.52344 48.6025 1.97195 48.3682L4.53656 47.1276C20.4031 74.2342 61.0849 58.3118 54.5171 27.784ZM36.387 58.3606C24.332 62.4181 11.2911 57.2117 5.37805 45.9824C5.21591 45.6732 4.8356 45.5541 4.52966 45.7032L2.52665 46.672L3.89337 38.3124L11.2936 42.4263L9.31504 43.3858C8.99734 43.5322 8.85679 43.9488 9.02389 44.2574C16.5443 59.225 37.7697 61.9825 48.8004 49.4513C45.7689 53.4686 41.5232 56.6331 36.387 58.3606Z"></path></mask><path d="M45.0567 36.1976L49.3646 39.5303C49.5647 39.6847 49.8352 39.7073 50.0573 39.5906C50.2795 39.4739 50.4138 39.2373 50.3993 38.9863C50.2159 33.4816 44.1888 29.5989 39.1065 31.6846L40.3203 30.2485C41.8099 28.6093 40.6517 25.7339 38.4418 25.5919C39.6162 23.8746 38.3179 21.3176 36.2338 21.2593C37.5168 18.5508 34.0832 15.9492 31.8263 17.9231C31.3232 15.764 28.2865 15.0834 26.911 16.8303L24.5061 19.6771C24.7906 14.4825 19.6541 10.1084 14.5484 11.2533C14.3019 11.3028 14.1067 11.4917 14.0496 11.7367C13.9925 11.9814 14.0829 12.2375 14.2818 12.3915L18.5896 15.7245L18.0682 20.8842L13.2056 22.6842L8.89838 19.3509C8.69946 19.1965 8.42775 19.1736 8.20686 19.29C7.9841 19.4068 7.84981 19.6427 7.86299 19.8934C8.00592 24.1878 11.9131 27.8669 16.2006 27.748C15.4412 29.3658 15.1207 31.1321 15.248 32.9102C14.6202 32.6938 13.8735 32.8914 13.4485 33.4065C12.6135 34.6523 9.47756 36.8137 11.3438 38.4253L22.4501 47.9829C23.1474 48.5785 24.2075 48.5022 24.8101 47.8028C25.62 46.5799 28.6976 44.4833 26.995 42.8634C29.7364 42.5506 31.6901 40.0604 33.2501 37.9868L33.8136 38.4228C33.0842 43.2289 37.2187 47.9077 42.0674 47.7933C42.7195 47.7071 43.9609 47.9225 44.2134 47.144C44.2704 46.8986 44.1795 46.6432 43.9812 46.4894L39.6727 43.1567L40.1941 37.9973L45.0567 36.1976ZM39.1569 27.2227C40.7755 28.5777 38.4133 30.378 37.6339 31.4355C37.4364 31.639 35.9565 33.509 35.7291 33.5933C34.2321 34.6016 32.5004 32.715 33.6493 31.3184L36.9612 27.405C37.4965 26.7728 38.5174 26.6815 39.1569 27.2227ZM37.0478 22.8948C37.7048 23.4507 37.7864 24.4378 37.2298 25.0958L33.9178 29.0092C32.5341 30.5147 30.2519 28.6008 31.5402 26.9908L34.8478 23.0818C35.3843 22.4502 36.4165 22.3608 37.0478 22.8948ZM32.4676 19.0757C33.8153 17.5307 36.1442 19.5054 34.8452 21.0939L31.5389 25.0019C30.1948 26.5387 27.8608 24.5967 29.1531 22.9961V22.9961L32.4676 19.0757ZM24.5811 21.5776C24.5833 21.5738 24.6657 21.4815 24.6661 21.477L27.8918 17.6604C29.2741 16.1584 31.5652 18.0613 30.2738 19.6785L26.9669 23.5875C25.5858 25.0881 23.299 23.192 24.5811 21.5776ZM11.8665 24.9975C10.6667 24.0685 9.81141 22.7931 9.40478 21.368L12.7011 23.9189C12.8762 24.0547 13.1102 24.0899 13.3173 24.0133L18.8902 21.9504C19.1205 21.865 19.2824 21.6564 19.3069 21.4123L19.9043 15.4993C19.9262 15.2787 19.8334 15.0622 19.6583 14.9263L16.3645 12.3777C20.5302 12.3883 23.9391 16.5237 23.1252 20.6273C23.0901 20.8309 23.1554 21.037 23.2966 21.1832C22.8091 22.0535 22.8201 23.138 23.309 24.0034C20.4821 21.7052 18.4071 24.0448 16.9142 26.432C15.1019 26.6272 13.3186 26.1211 11.8665 24.9975ZM26.1241 44.3095L23.8362 46.9645C23.6932 47.1307 23.4509 47.1477 23.2859 47.0071L12.1815 37.4508C12.0173 37.318 11.9978 37.0576 12.1388 36.9005L14.4242 34.243C14.5587 34.0797 14.8154 34.0622 14.9733 34.2034C17.0115 35.9552 24.2922 42.2212 26.0815 43.7591C26.2437 43.8926 26.2646 44.1527 26.1241 44.3095ZM30.4521 39.4143C29.2726 40.8802 27.5382 41.7075 25.6659 41.7059C23.439 39.7904 18.864 35.8546 16.6594 33.9574C16.1962 31.4934 16.73 28.976 18.1429 26.903C19.0924 25.6053 20.3528 23.4104 22.221 24.787C23.1686 25.7324 26.5066 27.2198 25.3761 28.9878C24.9288 29.7711 23.826 29.9882 23.1077 29.4566C22.5539 29.1669 22.0484 28.3806 21.3664 28.5698C20.9969 28.7493 20.7839 29.315 20.4527 29.5636C20.1395 29.7539 20.0596 30.2186 20.2952 30.5024C20.8719 31.1377 21.411 32.67 21.2659 33.7133C21.236 34.0843 21.5353 34.4056 21.9073 34.4042C23.3633 34.2941 22.1404 30.7897 21.6374 30.177C21.6732 30.1375 21.7084 30.097 21.7435 30.0559C22.4571 30.63 23.293 31.1257 24.2358 31.0123L32.2333 37.2001L30.4521 39.4143ZM38.604 43.9549L41.9022 46.5057C37.7336 46.5005 34.3214 42.3645 35.1378 38.2539C35.1785 38.0199 35.0856 37.7821 34.898 37.6365C34.1858 37.0871 26.6111 31.2237 25.6843 30.508C27.2551 29.4296 27.2649 27.0162 25.7043 25.8563L25.0136 25.322C25.9058 25.5587 26.8925 25.3453 27.6057 24.7588C27.9171 25.8856 28.9613 26.7425 30.1267 26.8287C29.3616 28.5376 30.4965 30.6095 32.4193 30.8312C30.685 33.8173 34.7227 36.7909 37.0121 34.1626L38.2176 32.7363C38.4771 32.9574 38.8162 33.2242 39.1707 33.0425C42.9387 31.2222 47.8002 33.479 48.855 37.511L45.5612 34.9627C45.3843 34.8265 45.1508 34.7908 44.945 34.8686L39.3721 36.9312C39.1418 37.0159 38.9799 37.2249 38.9554 37.469L38.3581 43.382C38.3361 43.6029 38.429 43.8194 38.604 43.9549ZM2.2631 34.6496C2.6689 34.6528 2.98343 34.264 2.89123 33.8677C-2.34295 7.68091 32.2896 -5.23554 45.6792 17.6877L43.188 18.8956C42.7283 19.1013 42.7069 19.8051 43.1566 20.0358L52.4375 25.1943C52.8099 25.414 53.3266 25.1639 53.3844 24.7356L55.0969 14.253C55.194 13.7582 54.6311 13.3361 54.1832 13.5703L51.6186 14.8109C36.2656 -12.872 -6.8985 4.84479 2.2631 34.6496ZM19.7687 3.5772C31.8207 -0.479329 44.8647 4.72712 50.7771 15.9561C50.9384 16.2623 51.3111 16.3856 51.6255 16.2353L53.6285 15.2664L52.2624 23.6258L44.8616 19.5125L46.8407 18.553C47.1585 18.406 47.299 17.9897 47.1319 17.6808C39.6102 2.71159 18.3839 -0.0437065 7.35345 12.4888C10.3849 8.47052 14.6319 5.30537 19.7687 3.5772ZM54.5171 27.784C54.3177 26.9752 53.0891 27.2505 53.2639 28.0705C58.4979 54.257 23.8654 67.1762 10.4766 44.2505L12.9671 43.0425C13.4267 42.8378 13.4484 42.1329 12.9985 41.903L3.71829 36.7442C3.3457 36.5239 2.82912 36.7749 2.77139 37.2029L1.05828 47.6855C0.961535 48.1803 1.52344 48.6025 1.97195 48.3682L4.53656 47.1276C20.4031 74.2342 61.0849 58.3118 54.5171 27.784ZM36.387 58.3606C24.332 62.4181 11.2911 57.2117 5.37805 45.9824C5.21591 45.6732 4.8356 45.5541 4.52966 45.7032L2.52665 46.672L3.89337 38.3124L11.2936 42.4263L9.31504 43.3858C8.99734 43.5322 8.85679 43.9488 9.02389 44.2574C16.5443 59.225 37.7697 61.9825 48.8004 49.4513C45.7689 53.4686 41.5232 56.6331 36.387 58.3606Z" fill="#0CB4C4"></path><path d="M45.0567 36.1976L45.2403 35.9604L45.1087 35.8585L44.9526 35.9163L45.0567 36.1976ZM49.3646 39.5303L49.181 39.7676L49.1814 39.7679L49.3646 39.5303ZM50.0573 39.5906L49.9178 39.325L49.9178 39.325L50.0573 39.5906ZM50.3993 38.9863L50.0994 38.9963L50.0998 39.0035L50.3993 38.9863ZM39.1065 31.6846L38.8774 31.4909L39.2204 31.9621L39.1065 31.6846ZM40.3203 30.2485L40.0981 30.0467L40.0912 30.0549L40.3203 30.2485ZM38.4418 25.5919L38.1942 25.4226L37.8968 25.8575L38.4226 25.8913L38.4418 25.5919ZM36.2338 21.2593L35.9627 21.1309L35.7659 21.5464L36.2254 21.5592L36.2338 21.2593ZM31.8263 17.9231L31.5341 17.9912L31.6476 18.478L32.0238 18.1489L31.8263 17.9231ZM26.911 16.8303L27.1403 17.024L27.1467 17.0159L26.911 16.8303ZM24.5061 19.6771L24.2066 19.6606L24.1576 20.5545L24.7353 19.8707L24.5061 19.6771ZM14.5484 11.2533L14.6074 11.5475L14.614 11.5461L14.5484 11.2533ZM14.0496 11.7367L14.3418 11.8049L14.3418 11.8048L14.0496 11.7367ZM14.2818 12.3915L14.0981 12.6287L14.0982 12.6288L14.2818 12.3915ZM18.5896 15.7245L18.8881 15.7547L18.9048 15.5891L18.7732 15.4873L18.5896 15.7245ZM18.0682 20.8842L18.1723 21.1656L18.3478 21.1006L18.3667 20.9144L18.0682 20.8842ZM13.2056 22.6842L13.022 22.9215L13.1536 23.0234L13.3098 22.9656L13.2056 22.6842ZM8.89838 19.3509L8.71446 19.5879L8.71477 19.5882L8.89838 19.3509ZM8.20686 19.29L8.3461 19.5558L8.34673 19.5554L8.20686 19.29ZM7.86299 19.8934L8.16288 19.8834L8.16258 19.8776L7.86299 19.8934ZM16.2006 27.748L16.4722 27.8755L16.6791 27.4346L16.1923 27.4481L16.2006 27.748ZM15.248 32.9102L15.1502 33.1939L15.5797 33.342L15.5472 32.8888L15.248 32.9102ZM13.4485 33.4065L13.2171 33.2156L13.2076 33.2271L13.1992 33.2395L13.4485 33.4065ZM11.3438 38.4253L11.1477 38.6524L11.1481 38.6527L11.3438 38.4253ZM22.4501 47.9829L22.2544 48.2103L22.2552 48.211L22.4501 47.9829ZM24.8101 47.8028L25.0374 47.9986L25.0498 47.9843L25.0603 47.9684L24.8101 47.8028ZM26.995 42.8634L26.961 42.5653L26.323 42.6381L26.7882 43.0807L26.995 42.8634ZM33.2501 37.9868L33.4337 37.7495L33.1932 37.5634L33.0104 37.8064L33.2501 37.9868ZM33.8136 38.4228L34.1102 38.4678L34.1367 38.2934L33.9972 38.1855L33.8136 38.4228ZM42.0674 47.7933L42.0745 48.0932L42.0906 48.0928L42.1067 48.0907L42.0674 47.7933ZM44.2134 47.144L44.4988 47.2366L44.5027 47.2244L44.5056 47.2119L44.2134 47.144ZM43.9812 46.4894L44.165 46.2523L44.1647 46.2521L43.9812 46.4894ZM39.6727 43.1567L39.3742 43.1266L39.3575 43.2922L39.4891 43.394L39.6727 43.1567ZM40.1941 37.9973L40.09 37.716L39.9145 37.781L39.8957 37.9672L40.1941 37.9973ZM39.1569 27.2227L38.9631 27.4517L38.9643 27.4527L39.1569 27.2227ZM37.6339 31.4355L37.8492 31.6444L37.8634 31.6298L37.8754 31.6135L37.6339 31.4355ZM35.7291 33.5933L35.6248 33.312L35.5912 33.3244L35.5615 33.3444L35.7291 33.5933ZM33.6493 31.3184L33.4203 31.1246L33.4176 31.1278L33.6493 31.3184ZM36.9612 27.405L36.7323 27.2111L36.7322 27.2112L36.9612 27.405ZM37.0478 22.8948L37.2416 22.6658L37.2416 22.6657L37.0478 22.8948ZM37.2298 25.0958L37.4588 25.2896L37.4588 25.2895L37.2298 25.0958ZM33.9178 29.0092L34.1389 29.2124L34.1468 29.203L33.9178 29.0092ZM31.5402 26.9908L31.3111 26.7969L31.306 26.8034L31.5402 26.9908ZM34.8478 23.0818L34.6191 22.8875L34.6188 22.888L34.8478 23.0818ZM32.4676 19.0757L32.2415 18.8785L32.2385 18.8821L32.4676 19.0757ZM34.8452 21.0939L35.0743 21.2877L35.0774 21.2838L34.8452 21.0939ZM31.5389 25.0019L31.7648 25.1995L31.7679 25.1957L31.5389 25.0019ZM24.5811 21.5776L24.816 21.7642L24.8299 21.7467L24.841 21.7275L24.5811 21.5776ZM24.6661 21.477L24.437 21.2833L24.377 21.3543L24.3676 21.4467L24.6661 21.477ZM27.8918 17.6604L27.6709 17.4571L27.6627 17.4667L27.8918 17.6604ZM30.2738 19.6785L30.5029 19.8723L30.5083 19.8657L30.2738 19.6785ZM26.9669 23.5875L27.1878 23.7909L27.1959 23.7813L26.9669 23.5875ZM11.8665 24.9975L11.6828 25.2348L11.6829 25.2348L11.8665 24.9975ZM9.40478 21.368L9.58838 21.1308L8.86549 20.5714L9.11629 21.4504L9.40478 21.368ZM12.7011 23.9189L12.885 23.6818L12.8847 23.6816L12.7011 23.9189ZM13.3173 24.0133L13.4213 24.2947L13.4214 24.2946L13.3173 24.0133ZM18.8902 21.9504L18.9944 22.2317L18.9945 22.2317L18.8902 21.9504ZM19.3069 21.4123L19.0084 21.3821L19.0084 21.3823L19.3069 21.4123ZM19.9043 15.4993L20.2027 15.5294L20.2028 15.529L19.9043 15.4993ZM19.6583 14.9263L19.8422 14.6893L19.8419 14.6891L19.6583 14.9263ZM16.3645 12.3777L16.3652 12.0777L15.4837 12.0755L16.1809 12.615L16.3645 12.3777ZM23.1252 20.6273L22.8308 20.5689L22.8295 20.5764L23.1252 20.6273ZM23.2966 21.1832L23.5583 21.3298L23.6673 21.1353L23.5124 20.9748L23.2966 21.1832ZM23.309 24.0034L23.1197 24.2362L23.5702 23.8559L23.309 24.0034ZM16.9142 26.432L16.9463 26.7303L17.0912 26.7147L17.1685 26.5911L16.9142 26.432ZM26.1241 44.3095L25.9006 44.1093L25.8969 44.1136L26.1241 44.3095ZM23.8362 46.9645L23.609 46.7686L23.6088 46.7688L23.8362 46.9645ZM23.2859 47.0071L23.0902 47.2345L23.0914 47.2355L23.2859 47.0071ZM12.1815 37.4508L12.3773 37.2233L12.3702 37.2176L12.1815 37.4508ZM12.1388 36.9005L12.3621 37.101L12.3663 37.0961L12.1388 36.9005ZM14.4242 34.243L14.6517 34.4386L14.6558 34.4336L14.4242 34.243ZM14.9733 34.2034L14.7732 34.4271L14.7778 34.4309L14.9733 34.2034ZM26.0815 43.7591L25.8859 43.9867L25.8908 43.9908L26.0815 43.7591ZM30.4521 39.4143L30.6858 39.6023L30.6858 39.6023L30.4521 39.4143ZM25.6659 41.7059L25.4703 41.9334L25.5545 42.0058L25.6656 42.0059L25.6659 41.7059ZM16.6594 33.9574L16.3646 34.0129L16.384 34.1162L16.4637 34.1848L16.6594 33.9574ZM18.1429 26.903L17.9006 26.7257L17.895 26.734L18.1429 26.903ZM22.221 24.787L22.4329 24.5747L22.417 24.5588L22.399 24.5455L22.221 24.787ZM25.3761 28.9878L25.1234 28.8262L25.1193 28.8325L25.1156 28.839L25.3761 28.9878ZM23.1077 29.4566L23.2862 29.2155L23.2674 29.2016L23.2468 29.1908L23.1077 29.4566ZM21.3664 28.5698L21.2862 28.2808L21.2599 28.2881L21.2354 28.3L21.3664 28.5698ZM20.4527 29.5636L20.6084 29.8199L20.621 29.8123L20.6327 29.8035L20.4527 29.5636ZM20.2952 30.5024L20.0642 30.6942L20.0731 30.704L20.2952 30.5024ZM21.2659 33.7133L20.9688 33.672L20.9676 33.6806L20.9669 33.6892L21.2659 33.7133ZM21.9073 34.4042L21.9084 34.7042L21.9192 34.7042L21.9299 34.7034L21.9073 34.4042ZM21.6374 30.177L21.415 29.9757L21.2415 30.1675L21.4056 30.3674L21.6374 30.177ZM21.7435 30.0559L21.9316 29.8222L21.7047 29.6396L21.5155 29.8609L21.7435 30.0559ZM24.2358 31.0123L24.4194 30.7751L24.3221 30.6998L24.2 30.7145L24.2358 31.0123ZM32.2333 37.2001L32.4671 37.3881L32.6587 37.1499L32.4169 36.9628L32.2333 37.2001ZM38.604 43.9549L38.4204 44.1921L38.4205 44.1922L38.604 43.9549ZM41.9022 46.5057L41.9019 46.8057L42.7819 46.8069L42.0858 46.2684L41.9022 46.5057ZM35.1378 38.2539L35.4321 38.3124L35.4333 38.3053L35.1378 38.2539ZM34.898 37.6365L35.0819 37.3995L35.0812 37.399L34.898 37.6365ZM25.6843 30.508L25.5145 30.2607L25.175 30.4938L25.5009 30.7455L25.6843 30.508ZM25.7043 25.8563L25.5207 26.0936L25.5253 26.0971L25.7043 25.8563ZM25.0136 25.322L25.0905 25.032L24.83 25.5593L25.0136 25.322ZM27.6057 24.7588L27.8948 24.6789L27.7718 24.2337L27.4151 24.5271L27.6057 24.7588ZM30.1267 26.8287L30.4005 26.9513L30.5752 26.5611L30.1488 26.5295L30.1267 26.8287ZM32.4193 30.8312L32.6787 30.9819L32.9088 30.5856L32.4537 30.5332L32.4193 30.8312ZM37.0121 34.1626L37.2383 34.3596L37.2412 34.3562L37.0121 34.1626ZM38.2176 32.7363L38.4121 32.508L38.1829 32.3127L37.9885 32.5427L38.2176 32.7363ZM39.1707 33.0425L39.0402 32.7723L39.0339 32.7755L39.1707 33.0425ZM48.855 37.511L48.6715 37.7483L49.3682 38.2874L49.1453 37.4351L48.855 37.511ZM45.5612 34.9627L45.7448 34.7254L45.7442 34.725L45.5612 34.9627ZM44.945 34.8686L45.0492 35.1499L45.0511 35.1492L44.945 34.8686ZM39.3721 36.9312L39.4757 37.2128L39.4762 37.2126L39.3721 36.9312ZM38.9554 37.469L39.2539 37.4991L39.254 37.4989L38.9554 37.469ZM38.3581 43.382L38.0596 43.3518L38.0595 43.3523L38.3581 43.382ZM2.2631 34.6496L1.97634 34.7377L2.04093 34.9479L2.26075 34.9496L2.2631 34.6496ZM2.89123 33.8677L2.59691 33.9265L2.59904 33.9357L2.89123 33.8677ZM45.6792 17.6877L45.8101 17.9576L46.1017 17.8162L45.9383 17.5364L45.6792 17.6877ZM43.188 18.8956L43.3106 19.1696L43.3189 19.1656L43.188 18.8956ZM43.1566 20.0358L43.3025 19.7735L43.2936 19.7689L43.1566 20.0358ZM52.4375 25.1943L52.59 24.9358L52.5832 24.9321L52.4375 25.1943ZM53.3844 24.7356L53.0882 24.6872L53.0871 24.6955L53.3844 24.7356ZM55.0969 14.253L54.8023 14.1952L54.8008 14.2047L55.0969 14.253ZM54.1832 13.5703L54.3139 13.8405L54.3222 13.8362L54.1832 13.5703ZM51.6186 14.8109L51.3562 14.9564L51.4938 15.2045L51.7492 15.0809L51.6186 14.8109ZM19.7687 3.5772L19.8644 3.86154L19.8644 3.86153L19.7687 3.5772ZM50.7771 15.9561L50.5116 16.0958L50.5117 16.0959L50.7771 15.9561ZM51.6255 16.2353L51.7549 16.506L51.7561 16.5054L51.6255 16.2353ZM53.6285 15.2664L53.9246 15.3148L54.0177 14.7449L53.4979 14.9964L53.6285 15.2664ZM52.2624 23.6258L52.1167 23.888L52.4897 24.0953L52.5585 23.6742L52.2624 23.6258ZM44.8616 19.5125L44.7307 19.2425L44.2113 19.4943L44.7158 19.7747L44.8616 19.5125ZM46.8407 18.553L46.7147 18.2807L46.7099 18.2831L46.8407 18.553ZM47.1319 17.6808L46.8637 17.8155L46.868 17.8235L47.1319 17.6808ZM7.35345 12.4888L7.11396 12.3081L7.57865 12.687L7.35345 12.4888ZM54.5171 27.784L54.8105 27.7209L54.8083 27.7122L54.5171 27.784ZM53.2639 28.0705L53.5581 28.0117L53.5573 28.008L53.2639 28.0705ZM10.4766 44.2505L10.3456 43.9805L10.0541 44.122L10.2175 44.4018L10.4766 44.2505ZM12.9671 43.0425L12.845 42.7683L12.8362 42.7726L12.9671 43.0425ZM12.9985 41.903L12.8527 42.1653L12.862 42.1701L12.9985 41.903ZM3.71829 36.7442L3.56555 37.0025L3.57253 37.0064L3.71829 36.7442ZM2.77139 37.2029L3.06757 37.2513L3.06869 37.243L2.77139 37.2029ZM1.05828 47.6855L1.35285 47.743L1.35435 47.7338L1.05828 47.6855ZM1.97195 48.3682L1.84125 48.098L1.83304 48.1023L1.97195 48.3682ZM4.53656 47.1276L4.79547 46.9761L4.65545 46.7368L4.40593 46.8575L4.53656 47.1276ZM36.387 58.3606L36.2914 58.0763L36.2914 58.0763L36.387 58.3606ZM5.37805 45.9824L5.11236 46.1217L5.11261 46.1222L5.37805 45.9824ZM4.52966 45.7032L4.66029 45.9732L4.66103 45.9729L4.52966 45.7032ZM2.52665 46.672L2.23058 46.6236L2.1374 47.1936L2.65728 46.9421L2.52665 46.672ZM3.89337 38.3124L4.03913 38.0501L3.66615 37.8428L3.5973 38.264L3.89337 38.3124ZM11.2936 42.4263L11.4245 42.6962L11.9437 42.4445L11.4393 42.1641L11.2936 42.4263ZM9.31504 43.3858L9.44064 43.6583L9.44595 43.6557L9.31504 43.3858ZM9.02389 44.2574L9.29208 44.1226L9.28769 44.1145L9.02389 44.2574ZM48.8004 49.4513L49.0399 49.632L48.5753 49.2531L48.8004 49.4513ZM44.8731 36.4349L49.181 39.7676L49.5481 39.2931L45.2403 35.9604L44.8731 36.4349ZM49.1814 39.7679C49.4747 39.9941 49.8713 40.0273 50.1969 39.8562L49.9178 39.325C49.7991 39.3874 49.6548 39.3753 49.5478 39.2928L49.1814 39.7679ZM50.1969 39.8562C50.5229 39.6848 50.72 39.3378 50.6988 38.9691L50.0998 39.0035C50.1075 39.1368 50.036 39.2629 49.9178 39.325L50.1969 39.8562ZM50.6992 38.9763C50.5088 33.2622 44.2679 29.2421 38.9926 31.407L39.2204 31.9621C44.1096 29.9556 49.9231 33.7011 50.0995 38.9963L50.6992 38.9763ZM39.3356 31.8782L40.5494 30.4422L40.0912 30.0549L38.8774 31.4909L39.3356 31.8782ZM40.5423 30.4503C41.3785 29.53 41.4608 28.274 41.0466 27.2466C40.6323 26.219 39.7022 25.3723 38.4611 25.2925L38.4226 25.8913C39.3914 25.9535 40.1452 26.6154 40.4901 27.4709C40.835 28.3264 40.7516 29.3278 40.0983 30.0468L40.5423 30.4503ZM38.6895 25.7613C39.3492 24.7965 39.306 23.6084 38.8271 22.6674C38.3482 21.7264 37.4129 20.9922 36.2422 20.9594L36.2254 21.5592C37.1388 21.5847 37.8947 22.1582 38.2924 22.9396C38.6901 23.721 38.7088 24.67 38.1942 25.4226L38.6895 25.7613ZM36.5049 21.3877C37.9265 18.3867 34.1319 15.508 31.6288 17.6973L32.0238 18.1489C34.0345 16.3904 37.1071 18.715 35.9627 21.1309L36.5049 21.3877ZM32.1185 17.855C31.8359 16.6426 30.8454 15.861 29.7611 15.6192C28.6767 15.3773 27.4475 15.6641 26.6753 16.6447L27.1467 17.0159C27.7501 16.2497 28.727 16.0033 29.6305 16.2048C30.5342 16.4063 31.3135 17.0445 31.5341 17.9912L32.1185 17.855ZM26.6819 16.6367L24.2769 19.4835L24.7353 19.8707L27.1402 17.0239L26.6819 16.6367ZM24.8057 19.6935C25.101 14.3008 19.783 9.77206 14.4827 10.9606L14.614 11.5461C19.5251 10.4448 24.4802 14.6642 24.2066 19.6606L24.8057 19.6935ZM14.4894 10.9592C14.1277 11.0317 13.8413 11.3089 13.7574 11.6686L14.3418 11.8048C14.3721 11.6745 14.476 11.5738 14.6074 11.5475L14.4894 10.9592ZM13.7575 11.6685C13.6738 12.0271 13.8061 12.4025 14.0981 12.6287L14.4655 12.1543C14.3597 12.0724 14.3112 11.9358 14.3418 11.8049L13.7575 11.6685ZM14.0982 12.6288L18.4061 15.9618L18.7732 15.4873L14.4654 12.1542L14.0982 12.6288ZM18.2912 15.6944L17.7697 20.8541L18.3667 20.9144L18.8881 15.7547L18.2912 15.6944ZM17.964 20.6029L13.1015 22.4029L13.3098 22.9656L18.1723 21.1656L17.964 20.6029ZM13.3892 22.447L9.08199 19.1137L8.71477 19.5882L13.022 22.9215L13.3892 22.447ZM9.0823 19.1139C8.7901 18.8871 8.39173 18.8535 8.067 19.0246L8.34673 19.5554C8.46376 19.4938 8.60882 19.5059 8.71446 19.5879L9.0823 19.1139ZM8.06763 19.0243C7.74101 19.1954 7.54407 19.5413 7.5634 19.9091L8.16258 19.8776C8.15556 19.7441 8.22719 19.6181 8.3461 19.5558L8.06763 19.0243ZM7.56316 19.9034C7.71156 24.3624 11.7561 28.1713 16.2089 28.0479L16.1923 27.4481C12.0701 27.5624 8.30027 24.0133 8.16282 19.8834L7.56316 19.9034ZM15.9291 27.6205C15.1475 29.2855 14.8178 31.1031 14.9488 32.9317L15.5472 32.8888C15.4235 31.161 15.7349 29.4461 16.4722 27.8755L15.9291 27.6205ZM15.3458 32.6266C14.6036 32.3707 13.7244 32.6008 13.2171 33.2156L13.6798 33.5974C14.0227 33.1819 14.6369 33.0168 15.1502 33.1939L15.3458 32.6266ZM13.1992 33.2395C13.0081 33.5247 12.6776 33.8716 12.2873 34.2832C11.907 34.684 11.4816 35.135 11.1409 35.6018C10.8031 36.0646 10.522 36.5777 10.4694 37.1067C10.4142 37.6615 10.6143 38.1917 11.1477 38.6524L11.5399 38.1983C11.1402 37.8531 11.0324 37.5087 11.0664 37.1661C11.1031 36.7976 11.3082 36.3903 11.6255 35.9556C11.9398 35.5249 12.3383 35.1012 12.7226 34.6961C13.0967 34.3016 13.4713 33.9112 13.6977 33.5735L13.1992 33.2395ZM11.1481 38.6527L22.2544 48.2103L22.6458 47.7555L11.5395 38.1979L11.1481 38.6527ZM22.2552 48.211C23.0775 48.9134 24.3264 48.8238 25.0374 47.9986L24.5829 47.607C24.0886 48.1806 23.2173 48.2437 22.6449 47.7548L22.2552 48.211ZM25.0603 47.9684C25.2445 47.6902 25.5662 47.3519 25.9496 46.95C26.323 46.5587 26.7434 46.1183 27.085 45.6616C27.4238 45.2086 27.7106 44.707 27.7829 44.188C27.8586 43.6447 27.6945 43.1148 27.2018 42.646L26.7882 43.0807C27.1469 43.4219 27.2365 43.7615 27.1887 44.1052C27.1374 44.4731 26.9235 44.8758 26.6045 45.3023C26.2883 45.7251 25.8938 46.1394 25.5156 46.5358C25.1474 46.9216 24.7807 47.304 24.56 47.6372L25.0603 47.9684ZM27.029 43.1614C28.4839 42.9955 29.7136 42.2531 30.7659 41.3087C31.8166 40.3658 32.7109 39.2025 33.4899 38.1672L33.0104 37.8064C32.2293 38.8447 31.3668 39.9633 30.3652 40.8621C29.3653 41.7594 28.2475 42.4185 26.961 42.5653L27.029 43.1614ZM33.0665 38.2241L33.6301 38.6601L33.9972 38.1855L33.4337 37.7495L33.0665 38.2241ZM33.517 38.3778C32.7595 43.3687 37.0399 48.212 42.0745 48.0932L42.0603 47.4934C37.3976 47.6034 33.4088 43.089 34.1102 38.4678L33.517 38.3778ZM42.1067 48.0907C42.249 48.0719 42.4287 48.0691 42.6481 48.0649C42.8586 48.0608 43.0983 48.0553 43.3284 48.0258C43.7694 47.9693 44.314 47.8062 44.4988 47.2366L43.928 47.0515C43.8603 47.2604 43.6579 47.3787 43.2522 47.4307C43.0588 47.4555 42.8501 47.4609 42.6365 47.465C42.4319 47.469 42.2118 47.4716 42.0281 47.4959L42.1067 48.0907ZM44.5056 47.2119C44.5892 46.8525 44.4559 46.4779 44.165 46.2523L43.7973 46.7265C43.903 46.8084 43.9517 46.9447 43.9212 47.0761L44.5056 47.2119ZM44.1647 46.2521L39.8562 42.9194L39.4891 43.394L43.7976 46.7267L44.1647 46.2521ZM39.9712 43.1869L40.4926 38.0275L39.8957 37.9672L39.3742 43.1266L39.9712 43.1869ZM40.2983 38.2787L45.1608 36.479L44.9526 35.9163L40.09 37.716L40.2983 38.2787ZM38.9643 27.4527C39.3091 27.7414 39.4158 28.0254 39.4114 28.2991C39.4067 28.5926 39.2733 28.9209 39.0427 29.2778C38.8141 29.6316 38.5108 29.9826 38.2056 30.3206C37.9091 30.649 37.5989 30.9773 37.3924 31.2575L37.8754 31.6135C38.0586 31.3649 38.336 31.0716 38.651 30.7227C38.9573 30.3833 39.2895 30.0013 39.5466 29.6034C39.8016 29.2088 40.004 28.7668 40.0113 28.3087C40.019 27.8306 39.814 27.3815 39.3494 26.9927L38.9643 27.4527ZM37.4186 31.2265C37.3586 31.2883 37.2186 31.4565 37.0539 31.6552C36.8832 31.8613 36.6737 32.1154 36.463 32.3661C36.252 32.6172 36.0428 32.8613 35.8733 33.0469C35.7883 33.1401 35.7165 33.2149 35.6613 33.2674C35.6336 33.2938 35.6135 33.3113 35.6004 33.3215C35.5809 33.3369 35.5926 33.3239 35.6248 33.312L35.8334 33.8746C35.8941 33.8521 35.944 33.8147 35.9712 33.7932C36.0049 33.7667 36.0401 33.7352 36.075 33.702C36.145 33.6353 36.2277 33.5486 36.3164 33.4515C36.4946 33.2564 36.7103 33.0045 36.9224 32.7521C37.1348 32.4993 37.3465 32.2425 37.5159 32.0381C37.6914 31.8263 37.8104 31.6844 37.8492 31.6444L37.4186 31.2265ZM35.5615 33.3444C34.3424 34.1657 32.9588 32.63 33.881 31.509L33.4176 31.1278C32.0421 32.7999 34.1219 35.0376 35.8967 33.8421L35.5615 33.3444ZM33.8783 31.5122L37.1902 27.5988L36.7322 27.2112L33.4203 31.1246L33.8783 31.5122ZM37.1902 27.5988C37.6191 27.0922 38.4509 27.0182 38.9631 27.4517L39.3507 26.9937C38.584 26.3447 37.3739 26.4533 36.7323 27.2111L37.1902 27.5988ZM36.854 23.1238C37.3843 23.5725 37.4506 24.3702 37.0008 24.902L37.4588 25.2895C38.1222 24.5054 38.0254 23.329 37.2416 22.6658L36.854 23.1238ZM37.0008 24.9019L33.6888 28.8154L34.1468 29.203L37.4588 25.2896L37.0008 24.9019ZM33.6969 28.8062C33.1303 29.4227 32.3996 29.3434 31.9205 28.9391C31.6791 28.7353 31.5135 28.4563 31.4706 28.1549C31.4286 27.8595 31.5008 27.5202 31.7744 27.1782L31.306 26.8034C30.9354 27.2664 30.8098 27.7701 30.8766 28.2394C30.9425 28.7026 31.1925 29.1098 31.5335 29.3976C32.2194 29.9764 33.3216 30.1012 34.1387 29.2122L33.6969 28.8062ZM31.7692 27.1846L35.0768 23.2755L34.6188 22.888L31.3112 26.797L31.7692 27.1846ZM35.0764 23.276C35.5069 22.7692 36.3504 22.6978 36.8541 23.1238L37.2416 22.6657C36.4827 22.0237 35.2616 22.1312 34.6191 22.8875L35.0764 23.276ZM32.6937 19.2729C32.9776 18.9474 33.2971 18.8215 33.596 18.8158C33.9019 18.81 34.2094 18.9303 34.4548 19.1385C34.7003 19.3467 34.8696 19.631 34.9145 19.9349C34.9583 20.232 34.8868 20.5692 34.613 20.9039L35.0774 21.2838C35.4532 20.8243 35.5776 20.319 35.508 19.8473C35.4394 19.3825 35.1859 18.9719 34.843 18.681C34.5001 18.3901 34.0539 18.2071 33.5847 18.2159C33.1085 18.2249 32.6315 18.4315 32.2415 18.8785L32.6937 19.2729ZM34.6162 20.9001L31.3099 24.8082L31.7679 25.1957L35.0742 21.2876L34.6162 20.9001ZM31.3131 24.8044C31.03 25.1281 30.7103 25.255 30.4104 25.262C30.1037 25.2692 29.7956 25.1511 29.5498 24.9455C29.304 24.7399 29.1341 24.4583 29.0883 24.1559C29.0435 23.8603 29.1136 23.5227 29.3865 23.1846L28.9197 22.8077C28.5465 23.2698 28.4237 23.7752 28.4951 24.2459C28.5654 24.7098 28.8207 25.1178 29.1649 25.4057C29.509 25.6936 29.9557 25.8728 30.4243 25.8619C30.8997 25.8508 31.3758 25.6442 31.7647 25.1994L31.3131 24.8044ZM29.3822 23.1898L32.6967 19.2694L32.2385 18.8821L28.924 22.8024L29.3822 23.1898ZM24.841 21.7275C24.8338 21.74 24.8272 21.7491 24.8256 21.7515C24.8229 21.7553 24.8206 21.7582 24.8195 21.7597C24.8171 21.7628 24.8153 21.765 24.8148 21.7656C24.8137 21.767 24.8132 21.7676 24.814 21.7666C24.8154 21.765 24.8179 21.7621 24.8218 21.7575C24.8256 21.7531 24.8301 21.748 24.8351 21.7423C24.84 21.7366 24.8454 21.7304 24.8509 21.7241C24.8614 21.712 24.8733 21.6982 24.883 21.6866C24.8875 21.6812 24.8936 21.6739 24.8993 21.6665C24.9018 21.6633 24.9072 21.6564 24.913 21.6477C24.9157 21.6438 24.9217 21.6348 24.9284 21.6229C24.9316 21.6169 24.9373 21.6062 24.9432 21.5922C24.9473 21.5821 24.9602 21.5504 24.9646 21.5073L24.3676 21.4467C24.3701 21.4229 24.3749 21.404 24.3784 21.3921C24.3821 21.3796 24.386 21.3695 24.3889 21.3624C24.3946 21.3486 24.4002 21.3381 24.4033 21.3325C24.4096 21.3211 24.4152 21.3129 24.4172 21.3099C24.4218 21.3031 24.4254 21.2986 24.4255 21.2984C24.4266 21.2969 24.4262 21.2976 24.4229 21.3015C24.4169 21.3087 24.408 21.319 24.3977 21.331C24.3926 21.3368 24.3875 21.3426 24.3826 21.3483C24.3777 21.3539 24.3729 21.3594 24.3687 21.3643C24.3646 21.369 24.3603 21.3739 24.3567 21.3781C24.3551 21.3801 24.3526 21.383 24.35 21.3862C24.3488 21.3877 24.3464 21.3907 24.3436 21.3943C24.3422 21.3961 24.3398 21.3993 24.337 21.4033C24.3355 21.4053 24.3335 21.4082 24.3311 21.4118C24.3289 21.415 24.3253 21.4206 24.3212 21.4278L24.841 21.7275ZM24.8952 21.6706L28.121 17.854L27.6627 17.4667L24.437 21.2833L24.8952 21.6706ZM28.1126 17.8635C28.6787 17.2484 29.4118 17.3262 29.8926 17.7296C30.1347 17.9327 30.3007 18.2111 30.3438 18.5122C30.3861 18.8073 30.314 19.1474 30.0394 19.4913L30.5083 19.8657C30.8793 19.401 31.0051 18.8967 30.9378 18.4271C30.8713 17.9636 30.6203 17.5569 30.2782 17.2699C29.5908 16.6931 28.4872 16.5704 27.6711 17.4572L28.1126 17.8635ZM30.0448 19.4847L26.7378 23.3938L27.1959 23.7813L30.5029 19.8723L30.0448 19.4847ZM26.7461 23.3844C26.1803 23.9992 25.4483 23.9223 24.9677 23.5205C24.7257 23.3182 24.5595 23.0407 24.5156 22.7404C24.4727 22.4462 24.5436 22.1072 24.816 21.7642L24.3462 21.3911C23.9775 21.8552 23.8535 22.3587 23.9219 22.8271C23.9894 23.2895 24.2408 23.6949 24.5829 23.9809C25.2705 24.5557 26.3723 24.6765 27.1876 23.7907L26.7461 23.3844ZM12.0502 24.7603C10.901 23.8705 10.0824 22.6494 9.69327 21.2857L9.11629 21.4504C9.54043 22.9368 10.4324 24.2665 11.6828 25.2348L12.0502 24.7603ZM9.22118 21.6053L12.5175 24.1561L12.8847 23.6816L9.58838 21.1308L9.22118 21.6053ZM12.5172 24.1559C12.7747 24.3557 13.1178 24.4069 13.4213 24.2947L13.2133 23.7319C13.1027 23.7728 12.9776 23.7537 12.885 23.6819L12.5172 24.1559ZM13.4214 24.2946L18.9944 22.2317L18.7861 21.669L13.2132 23.732L13.4214 24.2946ZM18.9945 22.2317C19.3316 22.1067 19.5694 21.8009 19.6054 21.4422L19.0084 21.3823C18.9954 21.5118 18.9094 21.6233 18.786 21.6691L18.9945 22.2317ZM19.6054 21.4424L20.2027 15.5294L19.6058 15.4691L19.0084 21.3821L19.6054 21.4424ZM20.2028 15.529C20.235 15.2059 20.0989 14.8886 19.8422 14.6893L19.4744 15.1634C19.5678 15.2358 19.6175 15.3515 19.6057 15.4695L20.2028 15.529ZM19.8419 14.6891L16.5481 12.1404L16.1809 12.615L19.4747 15.1636L19.8419 14.6891ZM16.3637 12.6777C20.3414 12.6878 23.6079 16.6513 22.8309 20.569L23.4194 20.6857C24.2702 16.3961 20.719 12.0887 16.3652 12.0777L16.3637 12.6777ZM22.8295 20.5764C22.7781 20.8753 22.8739 21.1774 23.0808 21.3916L23.5124 20.9748C23.4369 20.8966 23.4022 20.7865 23.4208 20.6782L22.8295 20.5764ZM23.0348 21.0366C22.4952 22 22.5083 23.196 23.0478 24.151L23.5702 23.8559C23.1319 23.08 23.123 22.1071 23.5583 21.3298L23.0348 21.0366ZM23.4982 23.7706C22.7584 23.1692 22.0458 22.8536 21.3594 22.7794C20.6709 22.7049 20.0377 22.8764 19.4642 23.1993C18.3338 23.8356 17.408 25.0766 16.6598 26.273L17.1685 26.5911C17.9133 25.4003 18.7714 24.2778 19.7585 23.7221C20.2437 23.4489 20.7525 23.3172 21.2949 23.3759C21.8392 23.4348 22.4461 23.6885 23.1197 24.2362L23.4982 23.7706ZM16.8821 26.1338C15.1474 26.3206 13.4412 25.8367 12.0501 24.7603L11.6829 25.2348C13.1959 26.4055 15.0565 26.9338 16.9463 26.7303L16.8821 26.1338ZM25.8969 44.1136L23.609 46.7686L24.0635 47.1603L26.3514 44.5053L25.8969 44.1136ZM23.6088 46.7688C23.5743 46.8089 23.5208 46.8131 23.4804 46.7787L23.0914 47.2355C23.3811 47.4823 23.812 47.4526 24.0637 47.1601L23.6088 46.7688ZM23.4816 46.7797L12.3772 37.2234L11.9858 37.6782L23.0902 47.2345L23.4816 46.7797ZM12.3702 37.2176C12.3592 37.2086 12.347 37.1901 12.3448 37.1618C12.3426 37.1333 12.3519 37.1122 12.362 37.1009L11.9156 36.7C11.6609 36.9837 11.6938 37.4421 11.9928 37.684L12.3702 37.2176ZM12.3663 37.0961L14.6517 34.4386L14.1968 34.0473L11.9114 36.7049L12.3663 37.0961ZM14.6558 34.4336C14.6658 34.4216 14.6843 34.4102 14.7111 34.4083C14.7381 34.4063 14.76 34.4151 14.7733 34.427L15.1733 33.9798C14.8907 33.727 14.4374 33.755 14.1926 34.0523L14.6558 34.4336ZM14.7778 34.4309C16.8184 36.1848 24.0939 42.4464 25.8859 43.9866L26.277 43.5316C24.4905 41.9961 17.2046 35.7256 15.1688 33.9759L14.7778 34.4309ZM25.8908 43.9908C25.9023 44.0002 25.9149 44.0199 25.9172 44.049C25.9195 44.0781 25.9101 44.0987 25.9007 44.1093L26.3476 44.5096C26.6028 44.2248 26.565 43.7685 26.2721 43.5275L25.8908 43.9908ZM30.2183 39.2262C29.0959 40.6213 27.4475 41.4074 25.6662 41.4059L25.6656 42.0059C27.6288 42.0076 29.4493 41.1392 30.6858 39.6023L30.2183 39.2262ZM25.8615 41.4785C23.6346 39.563 19.0596 35.6271 16.8551 33.73L16.4637 34.1848C18.6683 36.082 23.2434 40.0178 25.4703 41.9334L25.8615 41.4785ZM16.9543 33.902C16.5058 31.5167 17.0223 29.0798 18.3908 27.0719L17.895 26.734C16.4377 28.8721 15.8866 31.4701 16.3646 34.0129L16.9543 33.902ZM18.385 27.0801C18.8807 26.4027 19.3986 25.5821 20.0259 25.0756C20.3316 24.8288 20.6383 24.6793 20.9537 24.6534C21.2632 24.628 21.6219 24.7182 22.0431 25.0286L22.399 24.5455C21.8861 24.1676 21.3867 24.0159 20.9047 24.0554C20.4287 24.0945 20.0106 24.3167 19.649 24.6088C18.9416 25.18 18.3546 26.1056 17.9007 26.7258L18.385 27.0801ZM22.0091 24.9994C22.269 25.2587 22.6816 25.546 23.1007 25.8394C23.5317 26.1411 23.9887 26.4617 24.3802 26.8046C24.7751 27.1505 25.0745 27.4952 25.2166 27.8344C25.35 28.1528 25.3493 28.4728 25.1234 28.8262L25.6289 29.1494C25.9681 28.6188 25.9742 28.0899 25.77 27.6026C25.5746 27.1361 25.1923 26.7183 24.7755 26.3533C24.3553 25.9852 23.8708 25.6461 23.4448 25.3479C23.0068 25.0412 22.6469 24.7881 22.4329 24.5747L22.0091 24.9994ZM25.1156 28.839C24.7594 29.4628 23.8632 29.6425 23.2862 29.2155L22.9292 29.6978C23.7887 30.3338 25.0982 30.0794 25.6366 29.1366L25.1156 28.839ZM23.2468 29.1908C23.1374 29.1336 23.022 29.0471 22.8882 28.9373C22.7628 28.8344 22.6121 28.7031 22.4643 28.593C22.1674 28.3719 21.7687 28.1469 21.2862 28.2808L21.4466 28.8589C21.6461 28.8036 21.8412 28.8771 22.1059 29.0742C22.239 29.1733 22.3612 29.281 22.5076 29.4012C22.6456 29.5144 22.8011 29.6348 22.9686 29.7224L23.2468 29.1908ZM21.2354 28.3C20.9725 28.4276 20.7866 28.6788 20.652 28.8651C20.4959 29.0811 20.392 29.234 20.2726 29.3236L20.6327 29.8035C20.8445 29.6445 21.0127 29.3903 21.1383 29.2165C21.2854 29.0129 21.3908 28.8915 21.4974 28.8397L21.2354 28.3ZM20.2969 29.3072C19.828 29.5921 19.7112 30.2686 20.0644 30.694L20.526 30.3107C20.4081 30.1687 20.451 29.9156 20.6084 29.8199L20.2969 29.3072ZM20.0731 30.704C20.3216 30.9778 20.5837 31.4751 20.7654 32.0458C20.9466 32.6152 21.0328 33.2111 20.9688 33.672L21.563 33.7547C21.644 33.1722 21.5333 32.4803 21.3371 31.8639C21.1413 31.2488 20.8455 30.6623 20.5173 30.3007L20.0731 30.704ZM20.9669 33.6892C20.9227 34.2364 21.3619 34.7062 21.9084 34.7042L21.9062 34.1042C21.7088 34.105 21.5492 33.9323 21.5649 33.7375L20.9669 33.6892ZM21.9299 34.7034C22.1785 34.6846 22.389 34.5897 22.5491 34.4256C22.704 34.2667 22.7932 34.0623 22.8423 33.8514C22.9389 33.4359 22.8974 32.9186 22.8015 32.4222C22.7042 31.9182 22.544 31.4016 22.376 30.9714C22.2122 30.5519 22.0274 30.1793 21.8693 29.9867L21.4056 30.3674C21.4989 30.4811 21.6556 30.7762 21.8171 31.1896C21.9743 31.5922 22.1231 32.0735 22.2124 32.5359C22.3032 33.006 22.3257 33.4237 22.2579 33.7155C22.2247 33.8581 22.1745 33.9503 22.1196 34.0066C22.0698 34.0576 22 34.0964 21.8846 34.1051L21.9299 34.7034ZM21.8599 30.3783C21.8983 30.3358 21.9355 30.293 21.9715 30.2509L21.5155 29.8609C21.4812 29.901 21.4481 29.9391 21.415 29.9757L21.8599 30.3783ZM21.5554 30.2896C22.2803 30.8728 23.2007 31.4389 24.2716 31.3102L24.2 30.7145C23.3854 30.8124 22.6339 30.3873 21.9316 29.8222L21.5554 30.2896ZM24.0522 31.2496L32.0498 37.4374L32.4169 36.9628L24.4194 30.7751L24.0522 31.2496ZM31.9996 37.012L30.2183 39.2262L30.6858 39.6023L32.4671 37.3881L31.9996 37.012ZM38.4205 44.1922L41.7187 46.743L42.0858 46.2684L38.7876 43.7176L38.4205 44.1922ZM41.9026 46.2057C37.9223 46.2007 34.6526 42.2369 35.432 38.3124L34.8435 38.1955C33.9902 42.492 37.5448 46.8002 41.9019 46.8057L41.9026 46.2057ZM35.4333 38.3053C35.4932 37.9612 35.3566 37.6127 35.0819 37.3995L34.7141 37.8735C34.8146 37.9515 34.8638 38.0787 34.8422 38.2025L35.4333 38.3053ZM35.0812 37.399C34.3682 36.8489 26.7961 30.9875 25.8676 30.2706L25.5009 30.7455C26.4261 31.4598 34.0034 37.3253 34.7147 37.8741L35.0812 37.399ZM25.8541 30.7553C27.6027 29.5548 27.6009 26.8922 25.8832 25.6155L25.5253 26.0971C26.9288 27.1402 26.9074 29.3044 25.5145 30.2607L25.8541 30.7553ZM25.8878 25.619L25.1972 25.0847L24.83 25.5593L25.5207 26.0936L25.8878 25.619ZM24.9367 25.612C25.9219 25.8734 27.0082 25.6386 27.7962 24.9905L27.4151 24.5271C26.7767 25.0521 25.8898 25.2441 25.0905 25.032L24.9367 25.612ZM27.3165 24.8387C27.6617 26.0877 28.8128 27.0323 30.1046 27.1279L30.1488 26.5295C29.1097 26.4527 28.1725 25.6835 27.8948 24.6789L27.3165 24.8387ZM29.8529 26.7061C29.006 28.5978 30.2582 30.884 32.3849 31.1292L32.4537 30.5332C30.7349 30.335 29.7172 28.4775 30.4005 26.9513L29.8529 26.7061ZM32.1599 30.6805C31.2033 32.3275 31.8479 33.9811 33.0298 34.8445C34.2137 35.7094 35.9753 35.8096 37.2383 34.3596L36.7859 33.9655C35.7595 35.1439 34.3576 35.0715 33.3838 34.3601C32.4081 33.6473 31.901 32.321 32.6787 30.9819L32.1599 30.6805ZM37.2412 34.3562L38.4467 32.93L37.9885 32.5427L36.783 33.9689L37.2412 34.3562ZM38.023 32.9647C38.151 33.0737 38.3307 33.2233 38.5369 33.3147C38.7545 33.4112 39.0268 33.4534 39.3075 33.3095L39.0339 32.7755C38.9601 32.8133 38.8856 32.813 38.7801 32.7662C38.6633 32.7144 38.5437 32.6201 38.4121 32.508L38.023 32.9647ZM39.3012 33.3126C42.8987 31.5747 47.5577 33.7373 48.5648 37.587L49.1453 37.4351C48.0427 33.2207 42.9787 30.8697 39.0402 32.7724L39.3012 33.3126ZM49.0386 37.2737L45.7448 34.7254L45.3777 35.2L48.6715 37.7483L49.0386 37.2737ZM45.7442 34.725C45.4865 34.5266 45.1439 34.4727 44.8389 34.588L45.0511 35.1492C45.1578 35.1089 45.2821 35.1264 45.3783 35.2005L45.7442 34.725ZM44.8409 34.5872L39.268 36.6499L39.4762 37.2126L45.0492 35.1499L44.8409 34.5872ZM39.2685 36.6497C38.9305 36.774 38.6929 37.0807 38.6569 37.4391L39.254 37.4989C39.267 37.3691 39.3531 37.2578 39.4757 37.2128L39.2685 36.6497ZM38.657 37.4388L38.0596 43.3518L38.6565 43.4122L39.2539 37.4991L38.657 37.4388ZM38.0595 43.3523C38.0274 43.6756 38.1633 43.9931 38.4204 44.1921L38.7877 43.7177C38.6947 43.6457 38.6448 43.5302 38.6566 43.4117L38.0595 43.3523ZM2.26075 34.9496C2.85878 34.9543 3.32004 34.3869 3.18343 33.7997L2.59904 33.9357C2.64682 34.1411 2.47903 34.3513 2.26545 34.3496L2.26075 34.9496ZM3.18541 33.8089C-1.98074 7.96246 32.1971 -4.79907 45.4202 17.839L45.9383 17.5364C32.3821 -5.67201 -2.70516 7.39936 2.59705 33.9265L3.18541 33.8089ZM45.5483 17.4178L43.0571 18.6257L43.3189 19.1656L45.8101 17.9576L45.5483 17.4178ZM43.0655 18.6218C42.7118 18.78 42.5407 19.1242 42.5314 19.4478C42.5221 19.7716 42.6736 20.1252 43.0197 20.3028L43.2936 19.7689C43.1899 19.7157 43.1272 19.602 43.1312 19.4649C43.1351 19.3275 43.2045 19.2169 43.3105 19.1695L43.0655 18.6218ZM43.0109 20.298L52.2917 25.4565L52.5832 24.9321L43.3024 19.7736L43.0109 20.298ZM52.2851 25.4527C52.8418 25.7811 53.5952 25.4173 53.6817 24.7756L53.0871 24.6955C53.0581 24.9105 52.7781 25.0469 52.5899 24.9359L52.2851 25.4527ZM53.6805 24.7839L55.3929 14.3014L54.8008 14.2047L53.0883 24.6872L53.6805 24.7839ZM55.3913 14.3108C55.4659 13.9303 55.2835 13.5921 55.0241 13.3981C54.7647 13.2039 54.3886 13.1244 54.0442 13.3045L54.3222 13.8362C54.4257 13.782 54.555 13.7964 54.6647 13.8785C54.7745 13.9606 54.8249 14.0809 54.8025 14.1953L55.3913 14.3108ZM54.0526 13.3002L51.4879 14.5408L51.7492 15.0809L54.3138 13.8404L54.0526 13.3002ZM51.8809 14.6654C44.1169 0.665981 29.312 -1.84551 17.6351 2.89439C5.95808 7.6343 -2.65967 19.6557 1.97634 34.7377L2.54986 34.5614C-1.97573 19.8387 6.40779 8.0993 17.8607 3.45034C29.3137 -1.19863 43.7674 1.27292 51.3562 14.9564L51.8809 14.6654ZM19.8644 3.86153C31.7773 -0.148189 44.6681 4.9976 50.5116 16.0958L51.0425 15.8163C45.0613 4.45663 31.8641 -0.810469 19.673 3.29288L19.8644 3.86153ZM50.5117 16.0959C50.7484 16.5455 51.2959 16.7254 51.7549 16.506L51.4961 15.9647C51.3263 16.0458 51.1283 15.9791 51.0425 15.8163L50.5117 16.0959ZM51.7561 16.5054L53.7591 15.5365L53.4979 14.9964L51.4949 15.9653L51.7561 16.5054ZM53.3324 15.2181L51.9663 23.5774L52.5585 23.6742L53.9246 15.3148L53.3324 15.2181ZM52.4081 23.3636L45.0073 19.2503L44.7158 19.7747L52.1167 23.888L52.4081 23.3636ZM44.9924 19.7824L46.9716 18.823L46.7099 18.2831L44.7307 19.2425L44.9924 19.7824ZM46.9667 18.8253C47.4402 18.6062 47.6458 18.0004 47.3958 17.5381L46.868 17.8235C46.9521 17.979 46.8767 18.2058 46.7148 18.2808L46.9667 18.8253ZM47.3999 17.5461C39.7833 2.38787 18.2999 -0.402313 7.12825 12.2906L7.57865 12.687C18.4679 0.3149 39.4371 3.03531 46.8638 17.8155L47.3999 17.5461ZM7.59294 12.6695C10.5887 8.69856 14.7859 5.57007 19.8644 3.86154L19.6731 3.29286C14.4779 5.04066 10.1812 8.24249 7.11396 12.3081L7.59294 12.6695ZM54.8083 27.7122C54.7389 27.4303 54.5721 27.2243 54.354 27.1077C54.1423 26.9945 53.9005 26.9749 53.684 27.0239C53.4675 27.0729 53.2574 27.1948 53.1156 27.3893C52.9695 27.5896 52.9098 27.8483 52.9705 28.133L53.5573 28.008C53.5306 27.8827 53.559 27.7995 53.6003 27.7429C53.6459 27.6804 53.7227 27.6303 53.8164 27.6091C53.9102 27.5879 54.0019 27.5998 54.0711 27.6368C54.134 27.6704 54.1956 27.7333 54.2258 27.8558L54.8083 27.7122ZM52.9697 28.1293C58.1357 53.9756 23.9578 66.7395 10.7356 44.0992L10.2175 44.4018C23.773 67.6128 58.86 54.5384 53.5581 28.0117L52.9697 28.1293ZM10.6075 44.5204L13.0981 43.3124L12.8362 42.7726L10.3456 43.9805L10.6075 44.5204ZM13.0892 43.3166C13.4434 43.1588 13.6144 42.8143 13.6237 42.4908C13.6331 42.167 13.4817 41.813 13.135 41.6358L12.862 42.1701C12.9652 42.2228 13.0279 42.3362 13.024 42.4735C13.02 42.6112 12.9504 42.7215 12.8451 42.7685L13.0892 43.3166ZM13.1443 41.6408L3.86405 36.482L3.57253 37.0064L12.8527 42.1652L13.1443 41.6408ZM3.87098 36.486C3.31346 36.1563 2.5605 36.5221 2.47408 37.1628L3.06869 37.243C3.09774 37.0277 3.37795 36.8915 3.56561 37.0024L3.87098 36.486ZM2.47531 37.1545L0.762207 47.6371L1.35435 47.7338L3.06746 37.2513L2.47531 37.1545ZM0.763853 47.6279C0.689518 48.0081 0.871543 48.3462 1.13083 48.5404C1.39032 48.7347 1.76632 48.8141 2.11086 48.6341L1.83304 48.1023C1.72907 48.1566 1.59986 48.142 1.49045 48.0601C1.38085 47.978 1.3303 47.8576 1.35271 47.743L0.763853 47.6279ZM2.10258 48.6382L4.6672 47.3977L4.40593 46.8575L1.84131 48.0981L2.10258 48.6382ZM4.27766 47.2792C20.3167 74.6805 61.4497 58.5815 54.8103 27.7209L54.2238 27.8471C60.72 58.042 20.4894 73.7878 4.79547 46.9761L4.27766 47.2792ZM36.2914 58.0763C24.3754 62.087 11.4877 56.9412 5.6435 45.8426L5.11261 46.1222C11.0944 57.4822 24.2886 62.7493 36.4827 58.645L36.2914 58.0763ZM5.64374 45.8431C5.40528 45.3883 4.84814 45.2143 4.39829 45.4335L4.66103 45.9729C4.82306 45.8939 5.02655 45.9581 5.11236 46.1217L5.64374 45.8431ZM4.39903 45.4331L2.39602 46.402L2.65728 46.9421L4.66029 45.9732L4.39903 45.4331ZM2.82272 46.7204L4.18944 38.3608L3.5973 38.264L2.23058 46.6236L2.82272 46.7204ZM3.7476 38.5746L11.1478 42.6885L11.4393 42.1641L4.03913 38.0501L3.7476 38.5746ZM11.1627 42.1564L9.18414 43.1158L9.44595 43.6557L11.4245 42.6962L11.1627 42.1564ZM9.18947 43.1133C8.71549 43.3318 8.5099 43.9382 8.76009 44.4002L9.28769 44.1145C9.20368 43.9594 9.2792 43.7326 9.44062 43.6582L9.18947 43.1133ZM8.75582 44.3921C16.3712 59.5487 37.8537 62.3411 49.0256 49.6495L48.5753 49.2531C37.6858 61.6239 16.7174 58.9013 9.29196 44.1227L8.75582 44.3921ZM48.561 49.2706C45.5652 53.2406 41.3692 56.3684 36.2914 58.0763L36.4827 58.645C41.6772 56.8978 45.9727 53.6966 49.0399 49.632L48.561 49.2706Z" fill="#0CB4C4" mask="url(#path-1-outside-1_301_291)"></path></svg>