<svg xmlns="http://www.w3.org/2000/svg" width="71" height="60" viewBox="0 0 71 60" fill="none"><title id="svgTitle">Revenue Management Systems</title><path d="M8.14041 44.9712L5.97957 45.3605C6.03533 45.6714 7.43157 53.0097 15.3082 55.6805L16.0138 53.6001C9.39402 51.3561 8.18867 45.2307 8.14041 44.9712Z" fill="#0CB4C4"></path><path d="M21.6459 29.6105C16.7259 29.6105 12.7227 33.6136 12.7227 38.5337C12.7227 43.4538 16.7259 47.4564 21.6459 47.4564C26.566 47.4564 30.5692 43.4538 30.5692 38.5337C30.5692 33.6136 26.566 29.6105 21.6459 29.6105ZM21.6459 45.2602C17.9366 45.2602 14.9189 42.2425 14.9189 38.5337C14.9189 34.8244 17.9366 31.8067 21.6459 31.8067C25.3553 31.8067 28.3729 34.8244 28.3729 38.5337C28.3729 42.2425 25.3553 45.2602 21.6459 45.2602Z" fill="#0CB4C4"></path><path d="M22.1495 37.7355V35.4838C22.7641 35.572 23.3352 35.8035 23.8621 36.1788L24.6409 35.0768C23.8582 34.5417 23.0277 34.2425 22.1495 34.1782V33.5675H21.3829V34.1665C19.9131 34.2424 18.7715 35.1217 18.7715 36.5799C18.7715 38.094 19.7976 38.615 21.3829 38.9934V41.3171C20.6723 41.205 19.9817 40.8579 19.3106 40.2751L18.4363 41.3171C19.3067 42.0754 20.2888 42.5106 21.3829 42.6222V43.4966H22.1495V42.6344C23.6705 42.5598 24.8563 41.7008 24.8563 40.2088C24.8563 38.5195 23.7331 38.2287 22.1495 37.7355ZM21.3829 37.52C20.7147 37.3053 20.2332 37.098 20.2332 36.4361C20.2332 35.8258 20.767 35.5029 21.3829 35.4477V37.52ZM22.1495 41.3526V39.197C22.8526 39.408 23.3952 39.6259 23.3952 40.3228C23.3952 40.9671 22.7894 41.2867 22.1495 41.3526Z" fill="#0CB4C4"></path><path d="M64.344 33.8303L67.3745 30.4764L62.1595 25.2598L58.8062 28.2904C57.7392 27.6759 56.6057 27.203 55.4229 26.878L55.1322 22.3548H47.7822L47.4937 26.8866C46.3312 27.2024 45.2149 27.6646 44.1586 28.2662L40.7452 25.2706L38.8747 27.1414C37.0631 24.4501 34.731 21.7015 31.9141 18.9384C32.5275 18.5579 32.9405 17.8838 32.9405 17.1103V14.5661C32.9405 13.3774 31.9732 12.4101 30.785 12.4101H29.1091L33.7373 1.56728C32.4184 1.50949 28.9105 -0.0521961 22.3358 2.42196C19.0652 3.65192 17.0779 4.06497 12.1278 1.44771L9.39002 0L14.6773 12.4101H13.0007C11.8114 12.4101 10.8442 13.3774 10.8442 14.5661V17.1103C10.8442 17.8696 11.241 18.5352 11.836 18.9194C3.11226 27.4572 -0.82316 35.6943 0.142918 43.4259C1.47266 54.0639 11.5551 59.6354 11.9841 59.8676L12.2286 60H31.5035L31.7469 59.8681C31.895 59.7886 35.1457 58.0083 38.236 54.5747L40.7452 57.0842L44.1618 54.0848C45.2321 54.6874 46.3623 55.1523 47.5377 55.474L47.7693 60H55.1462L55.3778 55.4767C56.5799 55.1507 57.7274 54.6778 58.8041 54.0628L62.1595 57.0949L67.3745 51.8794L64.3429 48.5229C64.9552 47.4505 65.4313 46.3036 65.7638 45.0972L70.2806 44.8661V37.478L65.7627 37.2463C65.4292 36.0367 64.9541 34.8925 64.344 33.8303ZM13.7439 4.61497C17.5523 6.10089 19.7675 5.73361 23.1089 4.47717C25.5681 3.55318 27.4549 2.99586 30.6048 3.31204L26.7218 12.4101H17.065L13.7439 4.61497ZM30.7443 14.5661V17.0701C28.2343 17.0725 11.9993 17.107 13.0404 17.1103L13.0007 14.6063C12.4518 14.6086 21.0848 14.5918 30.7443 14.5661ZM30.933 57.8038H12.8012C11.3407 56.9319 3.39436 51.8119 2.31984 43.1358C1.40832 35.7723 5.54877 27.7494 14.6307 19.2829H17.9889L16.0763 21.0465L17.5647 22.6615L21.2289 19.2829H22.9862L25.8274 24.8325L27.7813 23.832L25.4523 19.2829H29.1014C32.5255 22.4797 35.2772 25.6502 37.2933 28.7231L35.5485 30.4684L38.5554 33.8678C37.9496 34.9262 37.4852 36.0458 37.1678 37.2109L32.6359 37.4881V44.8559L37.171 45.1331C37.4927 46.3074 37.9571 47.4269 38.5565 48.4768L35.5496 51.888L36.683 53.0216C34.2766 55.7181 31.703 57.3475 30.933 57.8038ZM68.0844 42.7792L63.9987 42.9889C63.8574 43.4722 63.6408 45.6191 62.0587 48.0521L61.5976 48.7604L64.3461 51.8022L62.0823 54.0655L59.0411 51.3175L58.3322 51.7786C57.0421 52.6183 55.617 53.2065 54.0963 53.5266L53.2695 53.7009L53.0593 57.8038H49.8561L49.647 53.703L48.8213 53.5271C47.3361 53.2108 45.9259 52.6312 44.6294 51.8054L43.9345 51.3625L40.8439 54.0762L38.5608 51.7936L41.2911 48.6966L40.8353 47.9974C40.016 46.7368 39.438 45.3433 39.1184 43.8559L38.9436 43.0414L34.8322 42.7894V39.5546L38.9479 39.3026L39.1195 38.4828C39.4273 37.0152 40.0042 35.6238 40.8353 34.3466L41.2911 33.6464L38.5619 30.5606L40.8439 28.2786L43.9388 30.9965L44.6369 30.545C47.034 28.9913 49.158 28.7897 49.5805 28.6678L49.8433 24.551H53.0733L53.336 28.6539C53.7945 28.7873 55.8999 28.9812 58.329 30.5745L59.0389 31.0399L62.0823 28.2893L64.3461 30.5525L61.5955 33.597C61.83 34.0193 63.1832 35.6273 63.8206 38.5364L63.9997 39.3551L68.0844 39.5648V42.7792Z" fill="#0CB4C4"></path><path d="M51.4537 33.8185C47.4012 33.8185 44.1036 37.1192 44.1036 41.176C44.1036 45.2286 47.4012 48.5256 51.4537 48.5256C55.5105 48.5256 58.8113 45.2286 58.8113 41.176C58.8113 37.1192 55.5105 33.8185 51.4537 33.8185ZM51.4537 46.3293C48.6119 46.3293 46.2999 44.0178 46.2999 41.176C46.2999 38.33 48.6119 36.0147 51.4537 36.0147C54.2998 36.0147 56.615 38.33 56.615 41.176C56.615 44.0178 54.2998 46.3293 51.4537 46.3293Z" fill="#0CB4C4"></path></svg>