<svg xmlns="http://www.w3.org/2000/svg" xmlns:xlink="http://www.w3.org/1999/xlink" version="1.1" id="Layer_1" x="0px" y="0px" width="60.02px" height="60px" viewBox="0 0 60.02 60" style="enable-background:new 0 0 60.02 60;" xml:space="preserve"><g><path style="fill:#0CB4C4;" d="M44.71,36.952h3.252c6.644,0,12.049-5.404,12.049-12.048c0-6.644-5.405-12.048-12.049-12.048 c-0.329,0-0.669,0.017-1.019,0.051C44.869,5.363,37.922,0,30.01,0c-7.911,0-14.858,5.363-16.933,12.906 c-0.351-0.034-0.69-0.051-1.02-0.051c-6.645,0-12.049,5.405-12.049,12.048c0,6.644,5.404,12.048,12.049,12.048h3.252V47.6h-1.452 v-4.52c0-0.663-0.537-1.2-1.2-1.2H1.209c-0.664,0-1.2,0.537-1.2,1.2v11.448c0,0.663,0.536,1.199,1.2,1.199h11.448 c0.663,0,1.2-0.536,1.2-1.199V50h2.652c0.663,0,1.199-0.536,1.199-1.2V36.952H28.81v9.2h-4.523c-0.663,0-1.2,0.537-1.2,1.2V58.8 c0,0.663,0.537,1.2,1.2,1.2h11.449c0.662,0,1.199-0.537,1.199-1.2V47.353c0-0.663-0.537-1.2-1.199-1.2H31.21v-9.2h11.101V48.8 c0,0.664,0.536,1.2,1.199,1.2h2.652v4.528c0,0.663,0.536,1.199,1.2,1.199h11.448c0.663,0,1.2-0.536,1.2-1.199V43.08 c0-0.663-0.537-1.2-1.2-1.2H47.362c-0.664,0-1.2,0.537-1.2,1.2v4.52H44.71V36.952z M11.457,53.328H2.409V44.28h9.048V47.6H8.732 c-0.663,0-1.2,0.537-1.2,1.2c0,0.664,0.537,1.2,1.2,1.2h2.725V53.328z M34.534,48.553V57.6h-9.048v-9.047h3.323v2.248 c0,0.663,0.537,1.199,1.2,1.199s1.2-0.536,1.2-1.199v-2.248H34.534z M2.409,24.904c0-5.321,4.327-9.648,9.648-9.648 c0.527,0,1.103,0.057,1.708,0.171c0.642,0.12,1.264-0.296,1.397-0.937C16.608,7.484,22.853,2.4,30.01,2.4 c7.158,0,13.402,5.084,14.847,12.09c0.133,0.641,0.752,1.056,1.396,0.937c0.606-0.114,1.182-0.171,1.709-0.171 c5.32,0,9.648,4.327,9.648,9.648c0,5.32-4.328,9.648-9.648,9.648H12.058C6.736,34.552,2.409,30.224,2.409,24.904z M48.562,44.28 h9.049v9.048h-9.049V50h2.723c0.663,0,1.2-0.536,1.2-1.2c0-0.663-0.537-1.2-1.2-1.2h-2.723V44.28z"></path><path style="fill:#0CB4C4;" d="M19.078,13.886c0.166,0.078,0.341,0.116,0.514,0.116c0.448,0,0.88-0.254,1.085-0.686 c1.706-3.595,5.369-5.917,9.333-5.917c0.663,0,1.2-0.537,1.2-1.2s-0.537-1.2-1.2-1.2c-4.886,0-9.4,2.86-11.501,7.288 C18.224,12.886,18.479,13.602,19.078,13.886z"></path></g></svg>