<svg xmlns="http://www.w3.org/2000/svg" xmlns:xlink="http://www.w3.org/1999/xlink" version="1.1" id="Layer_1" x="0px" y="0px" width="74px" height="60px" viewBox="0 0 74 60" style="enable-background:new 0 0 74 60;" xml:space="preserve"><g><path style="fill:#0CB4C4;" d="M69.692,26.292L69.692,26.292c0.479,0,0.798-0.319,0.798-0.796c0-0.479-0.398-0.798-0.798-0.798 s-0.797,0.318-0.797,0.798C68.896,25.972,69.216,26.292,69.692,26.292z"></path><path style="fill:#0CB4C4;" d="M66.823,26.292L66.823,26.292c0.479,0,0.796-0.319,0.796-0.796c0-0.479-0.399-0.798-0.796-0.798 c-0.399,0-0.797,0.318-0.797,0.798C66.026,25.972,66.424,26.292,66.823,26.292z"></path><g><path style="fill:#0CB4C4;" d="M53.347,22.305V8.351l-8.135-8.054H17.146v15.31H0.32v33.091h16.825h1.594h2.074v1.914v1.597v7.495 H73.68V28.684v-6.379H53.347z M46.809,4.125l1.356,1.355l1.354,1.355h-2.632V4.125H46.809z M18.739,1.892h25.837l0.636,0.638 v5.821h5.822l0.638,0.638v13.236h-18.34v-6.777H18.739V1.892z M1.915,17.122h15.23h1.594h13.077v5.184v1.594v3.189v1.596v10.127 l-6.059-7.178l-5.503,6.3L9.97,22.225l-8.055,12.04V17.122z M1.915,47.104v-9.968L9.97,25.176l10.206,15.389l5.66-6.458 l6.062,7.177v5.821H1.915z M72.086,58.106H22.408v-9.409h11.085V28.684h38.593V58.106z M72.086,27.088H53.347h-1.595h-18.34 v-3.189h18.34h1.595h18.739V27.088z"></path><path style="fill:#0CB4C4;" d="M73.977,60h-53.46V48.993H0.023V15.31h16.825V0h28.485l0.087,0.085l8.223,8.142v13.781h20.333V60z M21.11,59.406h52.272V22.602H53.05V8.475l-7.96-7.881H17.442v15.31H0.617V48.4H21.11V59.406z M72.383,58.403H22.111V48.4h11.085 V28.387h39.187V58.403z M22.705,57.81h49.084V28.981H33.79v20.012H22.705V57.81z M32.193,47.401H1.618V37.046l0.05-0.075 l8.304-12.33l10.236,15.435l5.632-6.425l6.354,7.524V47.401z M2.212,46.808h29.389v-5.416l-5.769-6.83l-5.689,6.491L9.968,25.71 L2.212,37.228V46.808z M32.113,39.623l-6.359-7.533l-5.533,6.334L9.967,22.763l-8.349,12.48V16.825h30.495V39.623z M25.762,31.179 l5.758,6.82V17.418H2.212v15.868l7.761-11.6l10.315,15.757L25.762,31.179z M72.383,27.385H33.115v-3.783h39.268V27.385z M33.709,26.792h38.08v-2.595h-38.08V26.792z M51.969,22.521H33.035v-6.777H18.442V1.595H44.7l0.809,0.812v5.648h5.648 l0.812,0.812V22.521z M33.629,21.928h17.746V9.111l-0.463-0.464h-5.997V2.652l-0.462-0.463H19.036V15.15h14.593V21.928z M50.235,7.132h-3.645V4.327l-0.5-0.5h1.094v0.253L50.235,7.132z M47.185,6.539h1.618L47.185,4.92V6.539z"></path></g><path style="fill:#0CB4C4;" d="M64.03,26.292L64.03,26.292c0.48,0,0.799-0.319,0.799-0.796c0-0.479-0.399-0.798-0.799-0.798 c-0.397,0-0.797,0.318-0.797,0.798C63.233,25.972,63.554,26.292,64.03,26.292z"></path><g><path style="fill:#0CB4C4;" d="M51.752,46.306l1.595-0.957l2.79-1.593l-2.79-1.597l-1.595-0.957l-9.489-5.422v14.752v1.194 l2.073-1.194L51.752,46.306z M43.857,38.57l7.814,4.547l1.275,0.639l-1.195,0.717l-7.815,4.545V38.57H43.857z"></path><path style="fill:#0CB4C4;" d="M41.966,52.241V35.269l9.933,5.676l1.601,0.961l3.236,1.851l-3.242,1.851l-1.589,0.953 L41.966,52.241z M42.56,36.292v14.921l1.628-0.938l7.417-4.227l1.589-0.954l2.345-1.338l-2.34-1.338l-1.6-0.961L42.56,36.292z M43.64,49.534V38.787l-0.884-0.514h1.478v0.173l7.587,4.413l1.743,0.873l-1.659,0.994L43.64,49.534z M44.233,39.133v9.369 l8.097-4.723l-0.792-0.396L44.233,39.133z"></path></g><g><path style="fill:#0CB4C4;" d="M18.739,29.083c0.64,0.477,1.275,0.796,2.074,0.955c0.398,0.081,0.798,0.162,1.197,0.162 c0.158,0,0.237,0,0.397,0c1.276-0.081,2.393-0.64,3.269-1.438c0.479-0.477,0.877-0.955,1.197-1.593 c0.399-0.717,0.558-1.515,0.558-2.393c0-0.239,0-0.479-0.081-0.717c-0.077-0.559-0.237-1.117-0.477-1.596 c-0.878-1.834-2.79-3.109-4.944-3.109c-1.196,0-2.313,0.398-3.19,1.037c-0.637,0.478-1.194,1.116-1.594,1.833 c-0.397,0.798-0.638,1.596-0.638,2.552c0,0.957,0.24,1.754,0.638,2.552C17.545,27.966,18.103,28.523,18.739,29.083z M18.739,22.544c0.718-1.037,1.915-1.755,3.19-1.755s2.313,0.638,3.03,1.516c0.317,0.479,0.639,1.036,0.717,1.594 c0.159,0.239,0.159,0.479,0.159,0.718c0,0.878-0.318,1.754-0.876,2.393c-0.638,0.797-1.516,1.275-2.631,1.434 c-0.16,0-0.241,0.079-0.399,0.079c-0.399,0-0.797-0.079-1.196-0.238c-0.877-0.241-1.595-0.799-2.073-1.516 c-0.397-0.639-0.637-1.356-0.637-2.153C18.103,23.899,18.34,23.182,18.739,22.544z"></path><path style="fill:#0CB4C4;" d="M22.418,30.497h-0.407c-0.426,0-0.843-0.083-1.244-0.165c-0.804-0.16-1.48-0.47-2.205-1.01 c-0.578-0.508-1.212-1.109-1.668-1.836c-0.477-0.953-0.683-1.781-0.683-2.709c0-0.928,0.206-1.756,0.668-2.684 c0.426-0.764,1.005-1.431,1.683-1.938c0.973-0.708,2.168-1.096,3.368-1.096c2.213,0,4.259,1.287,5.212,3.278 c0.244,0.487,0.419,1.071,0.503,1.683c0.084,0.229,0.084,0.51,0.084,0.757c0,0.988-0.194,1.818-0.596,2.537 c-0.292,0.583-0.666,1.083-1.246,1.66c-1.011,0.919-2.203,1.443-3.459,1.523L22.418,30.497z M21.93,19.651 c-1.075,0-2.146,0.348-3.016,0.98c-0.607,0.456-1.131,1.057-1.51,1.737c-0.412,0.83-0.6,1.576-0.6,2.407 c0,0.832,0.188,1.578,0.606,2.419c0.4,0.637,0.997,1.201,1.524,1.664c0.631,0.47,1.234,0.748,1.936,0.887 c0.403,0.082,0.774,0.156,1.14,0.156h0.388c1.117-0.074,2.181-0.544,3.078-1.36c0.523-0.52,0.864-0.973,1.132-1.507 c0.356-0.64,0.526-1.375,0.526-2.26c0-0.221,0-0.429-0.065-0.621c-0.089-0.604-0.244-1.124-0.461-1.558 C25.751,20.806,23.915,19.651,21.93,19.651z M21.93,28.82c-0.435,0-0.873-0.087-1.306-0.259c-0.876-0.238-1.672-0.82-2.21-1.626 c-0.459-0.736-0.688-1.513-0.688-2.318c0.088-0.815,0.351-1.575,0.762-2.23c0.811-1.173,2.126-1.894,3.441-1.894 c1.246,0,2.403,0.577,3.26,1.624c0.315,0.472,0.667,1.063,0.771,1.678c0.172,0.294,0.172,0.585,0.172,0.823 c0,0.954-0.347,1.897-0.95,2.588c-0.675,0.845-1.624,1.364-2.813,1.533c-0.072,0.003-0.098,0.011-0.148,0.028 C22.151,28.789,22.056,28.82,21.93,28.82z M21.93,21.086c-1.123,0-2.251,0.624-2.945,1.627c-0.357,0.569-0.589,1.242-0.666,1.937 c0.002,0.66,0.201,1.331,0.594,1.963c0.454,0.68,1.131,1.175,1.899,1.386c0.398,0.156,0.754,0.227,1.118,0.227 c0.029,0,0.056-0.008,0.106-0.024c0.069-0.023,0.165-0.055,0.293-0.055c0.991-0.144,1.813-0.59,2.398-1.323 c0.519-0.594,0.812-1.395,0.812-2.208c0-0.217,0-0.389-0.109-0.554l-0.047-0.123c-0.073-0.519-0.397-1.059-0.671-1.471 C23.989,21.586,22.994,21.086,21.93,21.086z"></path></g><g><path style="fill:#0CB4C4;" d="M47.844,18.637H36.683c-0.481,0-0.798,0.319-0.798,0.797c0,0.479,0.316,0.797,0.798,0.797h11.161 c0.479,0,0.798-0.318,0.798-0.797C48.642,18.956,48.242,18.637,47.844,18.637z"></path><path style="fill:#0CB4C4;" d="M47.844,20.528H36.683c-0.646,0-1.095-0.45-1.095-1.094c0-0.644,0.449-1.094,1.095-1.094h11.161 c0.527,0,1.095,0.418,1.095,1.094C48.938,20.079,48.488,20.528,47.844,20.528z M36.683,18.934c-0.313,0-0.501,0.188-0.501,0.5 c0,0.313,0.188,0.5,0.501,0.5h11.161c0.313,0,0.501-0.187,0.501-0.5c0-0.309-0.261-0.5-0.501-0.5H36.683z"></path></g><g><path style="fill:#0CB4C4;" d="M22.646,8.669h11.483c0.48,0,0.798-0.319,0.798-0.797s-0.317-0.797-0.798-0.797H22.646 c-0.477,0-0.796,0.318-0.796,0.797S22.248,8.669,22.646,8.669z"></path><path style="fill:#0CB4C4;" d="M34.129,8.966H22.646c-0.525,0-1.093-0.418-1.093-1.094c0-0.645,0.45-1.094,1.093-1.094h11.483 c0.645,0,1.095,0.449,1.095,1.094S34.773,8.966,34.129,8.966z M22.646,7.372c-0.313,0-0.499,0.188-0.499,0.5 c0,0.309,0.26,0.5,0.499,0.5h11.483c0.313,0,0.502-0.187,0.502-0.5c0-0.313-0.188-0.5-0.502-0.5H22.646z"></path></g><g><path style="fill:#0CB4C4;" d="M48.642,13.614c0-0.479-0.318-0.798-0.798-0.798H22.646c-0.477,0-0.796,0.319-0.796,0.798 c0,0.479,0.319,0.797,0.796,0.797h25.12C48.242,14.411,48.642,14.092,48.642,13.614z"></path><path style="fill:#0CB4C4;" d="M47.766,14.708h-25.12c-0.643,0-1.093-0.45-1.093-1.094c0-0.645,0.45-1.095,1.093-1.095h25.198 c0.645,0,1.095,0.45,1.095,1.095C48.938,14.237,48.435,14.708,47.766,14.708z M22.646,13.113c-0.313,0-0.499,0.188-0.499,0.501 c0,0.313,0.187,0.5,0.499,0.5h25.12c0.288,0,0.579-0.172,0.579-0.5c0-0.313-0.188-0.501-0.501-0.501H22.646z"></path></g><g><path style="fill:#0CB4C4;" d="M58.768,20.311c1.914,0,3.509-1.595,3.509-3.508V8.909h7.815v4.944 c-0.559-0.32-1.196-0.559-1.914-0.559c-1.913,0-3.508,1.595-3.508,3.509c0,1.914,1.595,3.508,3.508,3.508 c1.914,0,3.509-1.595,3.509-3.508c0-0.08,0-0.16,0-0.239V4.762H60.682v9.091c-0.558-0.399-1.194-0.559-1.914-0.559 c-1.912,0-3.507,1.595-3.507,3.509C55.261,18.716,56.855,20.311,58.768,20.311z M68.259,18.716c-1.039,0-1.915-0.877-1.915-1.914 c0-1.036,0.876-1.914,1.915-1.914c0.957,0,1.753,0.718,1.912,1.675v0.239l0,0C70.171,17.839,69.293,18.716,68.259,18.716z M62.276,6.357h7.815v1.037h-7.815V6.357z M58.768,14.889c1.038,0,1.914,0.878,1.914,1.914c0,1.037-0.876,1.914-1.914,1.914 c-1.034,0-1.912-0.877-1.912-1.914C56.855,15.767,57.733,14.889,58.768,14.889z"></path><path style="fill:#0CB4C4;" d="M68.178,20.608c-2.063,0-3.805-1.742-3.805-3.805c0-2.063,1.742-3.806,3.805-3.806 c0.539,0,1.072,0.122,1.617,0.37V9.206h-7.222v7.597c0,2.063-1.742,3.805-3.806,3.805c-2.063,0-3.804-1.742-3.804-3.805 c0-2.063,1.741-3.806,3.804-3.806c0.613,0,1.146,0.11,1.618,0.336V4.465h11.598v12.337C71.983,18.866,70.241,20.608,68.178,20.608 z M68.178,13.591c-1.74,0-3.211,1.471-3.211,3.212c0,1.741,1.471,3.212,3.211,3.212c1.741,0,3.212-1.471,3.212-3.212V5.059H60.979 v9.372l-0.47-0.336c-0.473-0.339-1.042-0.504-1.741-0.504c-1.74,0-3.21,1.471-3.21,3.212c0,1.741,1.47,3.212,3.21,3.212 c1.741,0,3.212-1.471,3.212-3.212V8.612h8.409v5.753l-0.444-0.255C69.334,13.761,68.756,13.591,68.178,13.591z M68.259,19.013 c-1.199,0-2.211-1.012-2.211-2.21s1.012-2.211,2.211-2.211c1.093,0,2.02,0.809,2.205,1.923l0.004,0.288 C70.468,18.001,69.457,19.013,68.259,19.013z M68.259,15.185c-0.877,0-1.618,0.741-1.618,1.618c0,0.876,0.741,1.617,1.618,1.617 c0.876,0,1.615-0.741,1.615-1.617v-0.239C69.74,15.786,69.06,15.185,68.259,15.185z M58.768,19.013 c-1.198,0-2.209-1.012-2.209-2.21s1.011-2.211,2.209-2.211c1.199,0,2.211,1.012,2.211,2.211S59.967,19.013,58.768,19.013z M58.768,15.185c-0.876,0-1.615,0.741-1.615,1.618c0,0.876,0.739,1.617,1.615,1.617c0.877,0,1.618-0.741,1.618-1.617 C60.386,15.926,59.645,15.185,58.768,15.185z M70.389,7.69h-8.409V6.06h8.409V7.69z M62.573,7.097h7.222V6.654h-7.222V7.097z"></path></g></g></svg>