<svg xmlns="http://www.w3.org/2000/svg" xmlns:xlink="http://www.w3.org/1999/xlink" version="1.1" id="Layer_1" x="0px" y="0px" width="60px" height="60px" viewBox="0 0 60 60" style="enable-background:new 0 0 60 60;" xml:space="preserve"><g><g transform="translate(-360.000000, -1164.000000)"><g transform="translate(360.000000, 1163.000000)"><g><path style="fill:#0CB4C4;" d="M2.231,3.231v31.735h23.802V12.568l-9.336-9.336H2.231z M26.033,36.95H2.231 c-1.093,0-1.983-0.889-1.983-1.983V3.231c0-1.093,0.89-1.983,1.983-1.983h14.876c0.264,0,0.515,0.104,0.702,0.291l9.917,9.917 c0.186,0.185,0.291,0.437,0.291,0.701v22.81C28.018,36.062,27.127,36.95,26.033,36.95L26.033,36.95z"></path><path style="fill:#0CB4C4;" d="M26.033,37.198H2.231C1.001,37.198,0,36.197,0,34.967V3.231C0,2.001,1.001,1,2.231,1h14.876 c0.331,0,0.643,0.129,0.877,0.363l9.917,9.917c0.234,0.233,0.363,0.544,0.363,0.876v22.81 C28.266,36.197,27.264,37.198,26.033,37.198z M2.231,1.496c-0.957,0-1.735,0.778-1.735,1.735v31.735 c0,0.957,0.778,1.735,1.735,1.735h23.802c0.958,0,1.736-0.778,1.736-1.735v-22.81c0-0.2-0.078-0.386-0.218-0.525l-9.917-9.918 c-0.141-0.141-0.328-0.218-0.527-0.218H2.231z M26.281,35.215H1.983V2.983h14.816l9.481,9.481V35.215z M2.479,34.719h23.306 V12.67l-9.191-9.191H2.479V34.719z"></path></g><g><path style="fill:#0CB4C4;" d="M18.1,11.166h6.531L18.1,4.634V11.166z M27.025,13.149h-9.917c-0.547,0-0.992-0.444-0.992-0.992 V2.24c0-0.401,0.242-0.763,0.611-0.917c0.372-0.155,0.797-0.068,1.083,0.215l9.917,9.917c0.283,0.284,0.368,0.709,0.215,1.081 C27.787,12.908,27.427,13.149,27.025,13.149L27.025,13.149z"></path><path style="fill:#0CB4C4;" d="M27.025,13.396h-9.917c-0.684,0-1.24-0.556-1.24-1.239V2.24c0-0.504,0.3-0.953,0.764-1.146 c0.456-0.19,1-0.081,1.352,0.27l9.918,9.917c0.355,0.356,0.46,0.886,0.269,1.351C27.977,13.097,27.526,13.396,27.025,13.396z M17.106,1.495c-0.098,0-0.194,0.019-0.285,0.057c-0.278,0.115-0.458,0.385-0.458,0.688v9.917c0,0.411,0.334,0.744,0.744,0.744 h9.917c0.301,0,0.571-0.18,0.688-0.459c0.114-0.278,0.051-0.597-0.162-0.811l-9.917-9.917 C17.493,1.573,17.305,1.495,17.106,1.495z M25.229,11.413h-7.377V4.035L25.229,11.413z M18.348,10.917h5.684l-5.684-5.685 V10.917z"></path></g><g><path style="fill:#0CB4C4;" d="M33.967,27.033v31.735h23.802V36.369l-9.336-9.336H33.967z M57.769,60.752H33.967 c-1.095,0-1.984-0.89-1.984-1.983V27.033c0-1.095,0.89-1.983,1.984-1.983h14.876c0.263,0,0.516,0.104,0.701,0.291l9.918,9.917 c0.186,0.186,0.29,0.438,0.29,0.701v22.81C59.752,59.862,58.862,60.752,57.769,60.752L57.769,60.752z"></path><path style="fill:#0CB4C4;" d="M57.769,61H33.967c-1.23,0-2.232-1.001-2.232-2.231V27.033c0-1.23,1.002-2.231,2.232-2.231 h14.876c0.326,0,0.646,0.133,0.877,0.363l9.917,9.917C59.871,35.316,60,35.628,60,35.959v22.81C60,59.999,58.999,61,57.769,61z M33.967,25.297c-0.958,0-1.736,0.779-1.736,1.736v31.735c0,0.957,0.778,1.735,1.736,1.735h23.802 c0.957,0,1.735-0.778,1.735-1.735v-22.81c0-0.199-0.077-0.386-0.218-0.526l-9.917-9.917c-0.139-0.139-0.33-0.218-0.526-0.218 H33.967z M58.017,59.017H33.719V26.785h14.816l9.481,9.481V59.017z M34.215,58.521h23.306V36.472l-9.19-9.191H34.215V58.521z"></path></g><g><path style="fill:#0CB4C4;" d="M49.835,34.967h6.53l-6.53-6.531V34.967z M58.761,36.95h-9.918c-0.548,0-0.991-0.443-0.991-0.991 v-9.917c0-0.401,0.242-0.764,0.611-0.917c0.371-0.156,0.797-0.07,1.081,0.215l9.918,9.917c0.282,0.283,0.367,0.711,0.215,1.08 C59.522,36.709,59.161,36.95,58.761,36.95L58.761,36.95z"></path><path style="fill:#0CB4C4;" d="M58.761,37.198h-9.918c-0.684,0-1.239-0.556-1.239-1.239v-9.917c0-0.505,0.3-0.954,0.765-1.146 c0.456-0.192,1.001-0.083,1.352,0.27l9.917,9.917c0.355,0.356,0.461,0.888,0.27,1.352 C59.712,36.898,59.263,37.198,58.761,37.198z M48.843,25.296c-0.098,0-0.192,0.02-0.283,0.057 c-0.28,0.115-0.46,0.385-0.46,0.688v9.917c0,0.409,0.334,0.743,0.743,0.743h9.918c0.301,0,0.571-0.18,0.688-0.459 c0.114-0.278,0.051-0.597-0.162-0.811l-9.917-9.917C49.228,25.374,49.041,25.296,48.843,25.296z M56.964,35.215h-7.377v-7.378 L56.964,35.215z M50.083,34.719h5.684l-5.684-5.685V34.719z"></path></g><g><path style="fill:#0CB4C4;" d="M45.868,21.083c-0.254,0-0.508-0.098-0.701-0.291l-5.951-5.95c-0.388-0.388-0.388-1.015,0-1.402 c0.388-0.388,1.016-0.388,1.402,0l5.25,5.249l5.248-5.249c0.389-0.388,1.016-0.388,1.403,0c0.388,0.387,0.388,1.015,0,1.402 l-5.951,5.95C46.374,20.985,46.121,21.083,45.868,21.083"></path><path style="fill:#0CB4C4;" d="M45.868,21.331c-0.331,0-0.643-0.129-0.877-0.363l-5.95-5.95 c-0.234-0.234-0.364-0.545-0.364-0.876c0-0.332,0.13-0.642,0.364-0.876c0.469-0.469,1.284-0.469,1.753,0l5.074,5.074 l5.072-5.074c0.472-0.47,1.286-0.468,1.754,0c0.234,0.234,0.363,0.545,0.363,0.876c0,0.331-0.129,0.642-0.363,0.876l-5.951,5.95 C46.509,21.202,46.198,21.331,45.868,21.331z M39.917,13.396c-0.198,0-0.385,0.078-0.525,0.218 c-0.142,0.141-0.219,0.327-0.219,0.526c0,0.198,0.077,0.384,0.219,0.526l5.95,5.95c0.28,0.28,0.77,0.281,1.051,0l5.951-5.95 c0.141-0.141,0.218-0.328,0.218-0.526c0-0.199-0.077-0.386-0.218-0.526c-0.28-0.282-0.77-0.281-1.053,0.001l-5.423,5.423 l-5.425-5.424C40.303,13.474,40.116,13.396,39.917,13.396z"></path></g><g><path style="fill:#0CB4C4;" d="M27.025,54.802h-5.951c-4.921,0-8.925-4.004-8.925-8.926v-5.95c0-0.548,0.445-0.992,0.993-0.992 c0.547,0,0.991,0.444,0.991,0.992v5.95c0,3.826,3.114,6.941,6.942,6.941h5.951c0.547,0,0.993,0.443,0.993,0.992 C28.018,54.357,27.572,54.802,27.025,54.802"></path><path style="fill:#0CB4C4;" d="M27.025,55.05h-5.951c-5.058,0-9.173-4.115-9.173-9.174v-5.95c0-0.684,0.557-1.24,1.241-1.24 c0.683,0,1.239,0.557,1.239,1.24v5.95c0,3.691,3.003,6.693,6.694,6.693h5.951c0.684,0,1.241,0.557,1.241,1.24 C28.266,54.494,27.708,55.05,27.025,55.05z M13.142,39.182c-0.411,0-0.745,0.334-0.745,0.744v5.95 c0,4.785,3.893,8.678,8.678,8.678h5.951c0.411,0,0.745-0.334,0.745-0.744s-0.334-0.744-0.745-0.744h-5.951 c-3.965,0-7.19-3.226-7.19-7.189v-5.95C13.884,39.516,13.551,39.182,13.142,39.182z"></path></g><g><path style="fill:#0CB4C4;" d="M19.091,46.868c-0.253,0-0.506-0.098-0.7-0.291l-5.249-5.249l-5.25,5.249 c-0.387,0.389-1.015,0.389-1.403,0c-0.387-0.388-0.387-1.015,0-1.402l5.951-5.95c0.387-0.388,1.014-0.388,1.402,0l5.95,5.95 c0.388,0.388,0.388,1.015,0,1.402C19.599,46.771,19.345,46.868,19.091,46.868"></path><path style="fill:#0CB4C4;" d="M7.191,47.116c-0.331,0-0.643-0.129-0.877-0.363S5.95,46.207,5.95,45.876S6.079,45.234,6.313,45 l5.951-5.951c0.469-0.468,1.284-0.47,1.753,0L19.967,45c0.234,0.234,0.363,0.545,0.363,0.876s-0.129,0.643-0.363,0.877 c-0.469,0.469-1.283,0.469-1.752,0l-5.074-5.074l-5.074,5.074C7.833,46.987,7.522,47.116,7.191,47.116z M13.141,39.182 c-0.199,0-0.386,0.078-0.526,0.218l-5.951,5.951c-0.14,0.14-0.218,0.327-0.218,0.525s0.078,0.386,0.218,0.526 c0.283,0.282,0.772,0.282,1.053,0l5.425-5.425l5.424,5.425c0.282,0.281,0.771,0.279,1.051,0 c0.141-0.141,0.218-0.328,0.218-0.526s-0.077-0.386-0.218-0.525l-5.95-5.951C13.526,39.26,13.339,39.182,13.141,39.182z"></path></g><g><path style="fill:#0CB4C4;" d="M45.868,21.083c-0.548,0-0.992-0.443-0.992-0.992v-5.95c0-3.828-3.113-6.942-6.942-6.942h-5.951 c-0.547,0-0.991-0.443-0.991-0.992s0.444-0.992,0.991-0.992h5.951c4.92,0,8.925,4.004,8.925,8.926v5.95 C46.858,20.639,46.416,21.083,45.868,21.083"></path><path style="fill:#0CB4C4;" d="M45.868,21.331c-0.685,0-1.24-0.556-1.24-1.24v-5.95c0-3.692-3.003-6.694-6.694-6.694h-5.951 c-0.683,0-1.239-0.556-1.239-1.24s0.556-1.24,1.239-1.24h5.951c5.058,0,9.173,4.115,9.173,9.174v5.95 C47.106,20.775,46.551,21.331,45.868,21.331z M31.982,5.463c-0.409,0-0.743,0.334-0.743,0.744s0.334,0.744,0.743,0.744h5.951 c3.965,0,7.19,3.225,7.19,7.19v5.95c0,0.41,0.334,0.744,0.744,0.744c0.409,0,0.742-0.334,0.742-0.744v-5.95 c0-4.786-3.893-8.678-8.677-8.678H31.982z"></path></g></g></g></g></svg>