<svg xmlns="http://www.w3.org/2000/svg" xmlns:xlink="http://www.w3.org/1999/xlink" version="1.1" id="Layer_1" x="0px" y="0px" width="72px" height="60px" viewBox="0 0 72 60" style="enable-background:new 0 0 72 60;" xml:space="preserve"><g><g transform="translate(-240.000000, -1169.000000)"><g transform="translate(240.000000, 1168.000000)"><path style="fill:#0CB4C4;" d="M2.4,3.401v38.4h28.8V13.498L21.102,3.401H2.4z M31.2,44.2H2.4C1.076,44.2,0,43.124,0,41.801 v-38.4c0-1.323,1.075-2.4,2.399-2.4h19.2c0.317,0,0.623,0.125,0.848,0.352l10.801,10.8c0.225,0.224,0.352,0.529,0.352,0.849v28.8 C33.6,43.124,32.523,44.2,31.2,44.2L31.2,44.2z"></path><path style="fill:#0CB4C4;" d="M22.799,11.801h6.704l-6.704-6.703V11.801z M32.4,14.201H21.6c-0.663,0-1.201-0.536-1.201-1.2 v-10.8c0-0.484,0.293-0.924,0.741-1.109c0.448-0.187,0.963-0.083,1.308,0.261l10.801,10.8c0.343,0.343,0.446,0.859,0.26,1.308 C33.323,13.909,32.884,14.201,32.4,14.201L32.4,14.201z"></path><path style="fill:#0CB4C4;" d="M40.8,3.401v38.4h28.8V13.498L59.503,3.401H40.8z M69.6,44.2H40.8c-1.323,0-2.4-1.076-2.4-2.399 v-38.4c0-1.323,1.077-2.4,2.4-2.4H60c0.318,0,0.624,0.125,0.849,0.352l10.799,10.8c0.227,0.224,0.352,0.529,0.352,0.849v28.8 C71.999,43.124,70.924,44.2,69.6,44.2L69.6,44.2z"></path><path style="fill:#0CB4C4;" d="M61.2,11.801h6.702L61.2,5.098V11.801z M70.8,14.201H60c-0.663,0-1.2-0.536-1.2-1.2v-10.8 c0-0.484,0.293-0.924,0.74-1.109c0.449-0.187,0.964-0.083,1.309,0.261l10.799,10.8c0.344,0.343,0.447,0.859,0.26,1.308 C71.723,13.909,71.285,14.201,70.8,14.201L70.8,14.201z"></path><path style="fill:#0CB4C4;" d="M16.8,51.4c-1.984,0-3.601,1.616-3.601,3.601c0,1.982,1.616,3.599,3.601,3.599 c1.985,0,3.599-1.616,3.599-3.599C20.399,53.017,18.786,51.4,16.8,51.4 M16.8,61c-3.31,0-6.001-2.69-6.001-5.999 C10.799,51.69,13.491,49,16.8,49c3.309,0,5.999,2.69,5.999,6.001C22.799,58.31,20.109,61,16.8,61"></path><path style="fill:#0CB4C4;" d="M12,56.2H1.2C0.538,56.2,0,55.663,0,55.001C0,54.337,0.538,53.8,1.2,53.8H12 c0.663,0,1.2,0.537,1.2,1.201C13.2,55.663,12.663,56.2,12,56.2"></path><path style="fill:#0CB4C4;" d="M70.8,56.2H60c-0.663,0-1.2-0.537-1.2-1.199c0-0.664,0.537-1.201,1.2-1.201h10.8 c0.662,0,1.199,0.537,1.199,1.201C71.999,55.663,71.462,56.2,70.8,56.2"></path><path style="fill:#0CB4C4;" d="M50.399,56.2H21.6c-0.663,0-1.201-0.537-1.201-1.199c0-0.664,0.538-1.201,1.201-1.201h28.799 c0.663,0,1.201,0.537,1.201,1.201C51.601,55.663,51.063,56.2,50.399,56.2"></path><path style="fill:#0CB4C4;" d="M16.8,51.4c-0.664,0-1.201-0.537-1.201-1.201v-7.2c0-0.661,0.537-1.198,1.201-1.198 c0.662,0,1.199,0.537,1.199,1.198v7.2C18,50.863,17.462,51.4,16.8,51.4"></path><path style="fill:#0CB4C4;" d="M55.199,51.4c-1.985,0-3.599,1.616-3.599,3.601c0,1.982,1.613,3.599,3.599,3.599 c1.984,0,3.601-1.616,3.601-3.599C58.8,53.017,57.184,51.4,55.199,51.4 M55.199,61c-3.309,0-5.999-2.69-5.999-5.999 c0-3.311,2.69-6.001,5.999-6.001s6.001,2.69,6.001,6.001C61.2,58.31,58.508,61,55.199,61"></path><path style="fill:#0CB4C4;" d="M55.199,51.4C54.537,51.4,54,50.863,54,50.199v-7.2c0-0.661,0.537-1.198,1.199-1.198 c0.664,0,1.201,0.537,1.201,1.198v7.2C56.4,50.863,55.863,51.4,55.199,51.4"></path></g></g></g></svg>