<svg width="61" height="60" viewBox="0 0 61 60" fill="none" xmlns="http://www.w3.org/2000/svg"><path d="M40.4415 31.48H21.6615C21.0615 31.48 20.5215 31.96 20.5215 32.62C20.5215 33.28 21.0015 33.76 21.6615 33.76H40.4415C41.0415 33.76 41.5815 33.28 41.5815 32.62C41.5815 31.96 41.0415 31.48 40.4415 31.48Z" fill="#0CB4C4"></path><path d="M40.4408 37.48H21.4808C20.8808 37.48 20.3408 37.96 20.3408 38.62C20.3408 39.22 20.8208 39.76 21.4808 39.76H40.4408C41.0408 39.76 41.5808 39.28 41.5808 38.62C41.5208 37.96 41.0408 37.48 40.4408 37.48Z" fill="#0CB4C4"></path><path d="M40.4415 25.48H21.6615C21.0615 25.48 20.5215 25.96 20.5215 26.62C20.5215 27.28 21.0015 27.76 21.6615 27.76H40.4415C41.0415 27.76 41.5815 27.28 41.5815 26.62C41.5815 25.96 41.0415 25.48 40.4415 25.48Z" fill="#0CB4C4"></path><path d="M40.4415 20H21.6615C21.0615 20 20.5215 20.48 20.5215 21.14C20.5215 21.74 21.0015 22.28 21.6615 22.28H40.4415C41.0415 22.28 41.5815 21.8 41.5815 21.14C41.5215 20.54 41.0415 20 40.4415 20Z" fill="#0CB4C4"></path><path d="M45.9603 20C45.3603 20 44.8203 20.48 44.8203 21.14V38.96C44.8203 39.56 45.3003 40.1 45.9603 40.1C46.5603 40.1 47.1003 39.62 47.1003 38.96V21.08C47.1003 20.48 46.6203 20 45.9603 20Z" fill="#0CB4C4"></path><path d="M15.9007 20C15.3007 20 14.7607 20.48 14.7607 21.14V38.96C14.7607 39.56 15.2407 40.1 15.9007 40.1C16.5007 40.1 17.0407 39.62 17.0407 38.96V21.08C17.0407 20.48 16.5607 20 15.9007 20Z" fill="#0CB4C4"></path><line x1="12.9609" y1="8" x2="24.9609" y2="8" stroke="#0CB4C4" stroke-width="2" stroke-linecap="round"></line><circle cx="30.9609" cy="30" r="29" stroke="#0CB4C4" stroke-width="2"></circle><circle cx="27.9609" cy="8" r="2" stroke="#0CB4C4" stroke-width="2"></circle><line x1="51.9609" y1="50" x2="39.9609" y2="50" stroke="#0CB4C4" stroke-width="2" stroke-linecap="round"></line><circle cx="36.9609" cy="50" r="2" transform="rotate(180 36.9609 50)" stroke="#0CB4C4" stroke-width="2"></circle></svg>