<svg width="62" height="60" viewBox="0 0 62 60" fill="none" xmlns="http://www.w3.org/2000/svg"><path d="M60.3077 0H1.8369C1.34213 0 0.949219 0.400186 0.949219 0.887685V6.64309C0.949219 7.13787 1.3494 7.53078 1.8369 7.53078H3.07384V44.9227C3.07384 45.4175 3.47403 45.8104 3.96153 45.8104H21.2787L12.3291 58.6018C12.0453 59.002 12.1472 59.5623 12.5473 59.8387C12.9475 60.1225 13.5078 60.0206 13.7843 59.6205L23.447 45.8104H39.4035L49.0662 59.6205C49.2408 59.8678 49.5173 59.9988 49.7938 59.9988C49.9684 59.9988 50.1503 59.9479 50.3031 59.8387C50.7033 59.555 50.8051 59.002 50.5214 58.6018L41.5718 45.8104H58.1758C58.6706 45.8104 59.0635 45.4102 59.0635 44.9227V7.53805H60.3005C60.7952 7.53805 61.1882 7.13787 61.1882 6.65037V0.894961C61.1882 0.400186 60.788 0.00727628 60.3005 0.00727628L60.3077 0ZM57.2954 44.0423H39.8837C39.8837 44.0423 39.8691 44.0423 39.8619 44.0423H23.0031C23.0031 44.0423 22.9886 44.0423 22.9813 44.0423H4.84921V7.53805H57.2954V44.0423ZM59.4201 5.7554H2.72459V1.77537H59.4201V5.7554Z" fill="#0CB4C4"></path><path d="M21.2063 27.5404C22.6906 27.5404 23.8984 26.3325 23.8984 24.8482C23.8984 24.4116 23.7966 23.9969 23.6074 23.6331L26.4305 20.8245C26.7143 20.9264 27.0199 20.9773 27.3328 20.9773C28.1186 20.9773 28.8316 20.6353 29.3191 20.0969L32.1059 21.2611C32.1059 21.312 32.1059 21.363 32.1059 21.4066C32.1059 22.8909 33.3137 24.0988 34.7981 24.0988C36.2824 24.0988 37.4902 22.8909 37.4902 21.4066C37.4902 21.0428 37.4175 20.7008 37.2865 20.3807C37.4975 20.1915 37.7594 19.9441 38.0796 19.6531C38.7999 18.9909 39.7967 18.0669 41.0482 16.9027C42.0523 15.9714 43.0637 15.0255 43.8495 14.2906V15.5202C43.8495 16.015 44.2497 16.4079 44.7372 16.4079C45.2247 16.4079 45.6249 16.0077 45.6249 15.5202V12.2023C45.6249 12.1005 45.5958 11.9986 45.5594 11.904C45.523 11.8167 45.4794 11.7367 45.4139 11.6566C45.4139 11.6566 45.3921 11.6275 45.3775 11.613C45.2902 11.5257 45.1956 11.4602 45.0938 11.4165C44.9846 11.3729 44.8682 11.3438 44.7372 11.3438H41.2811C40.7863 11.3438 40.3934 11.7439 40.3934 12.2314C40.3934 12.7189 40.7936 13.1191 41.2811 13.1191H42.4816C40.0296 15.4038 37.2501 17.9941 36.1005 19.0419C35.7148 18.8236 35.271 18.6999 34.7981 18.6999C34.005 18.6999 33.2846 19.0492 32.7898 19.6021L30.0176 18.4452C30.0176 18.387 30.0176 18.3288 30.0176 18.2706C30.0176 16.7863 28.8098 15.5784 27.3255 15.5784C25.8412 15.5784 24.6333 16.7863 24.6333 18.2706C24.6333 18.7872 24.7788 19.2674 25.0335 19.6749L22.3195 22.3743C21.9775 22.2143 21.5992 22.1269 21.199 22.1269C19.7147 22.1269 18.5068 23.3348 18.5068 24.8191C18.5068 26.3034 19.7147 27.5113 21.199 27.5113L21.2063 27.5404ZM34.7981 20.5044C34.9945 20.5044 35.1837 20.5699 35.3292 20.679C35.3947 20.7881 35.4747 20.89 35.5911 20.97C35.6639 21.101 35.7076 21.2538 35.7076 21.4212C35.7076 21.9232 35.3001 22.3307 34.7981 22.3307C34.296 22.3307 33.8885 21.9232 33.8885 21.4212C33.8885 20.9191 34.296 20.5117 34.7981 20.5117V20.5044ZM27.3328 17.3829C27.8348 17.3829 28.2423 17.7904 28.2423 18.2924C28.2423 18.7945 27.8348 19.202 27.3328 19.202C26.8307 19.202 26.4232 18.7945 26.4232 18.2924C26.4232 17.7904 26.8307 17.3829 27.3328 17.3829ZM21.199 23.9387C21.7011 23.9387 22.1085 24.3462 22.1085 24.8482C22.1085 25.3503 21.7011 25.7577 21.199 25.7577C20.6969 25.7577 20.2895 25.3503 20.2895 24.8482C20.2895 24.3462 20.6969 23.9387 21.199 23.9387Z" fill="#0CB4C4"></path><path d="M14.3668 39.5021H48.6009C49.0957 39.5021 49.4886 39.1019 49.4886 38.6144C49.4886 38.1269 49.0884 37.7267 48.6009 37.7267H46.0616V22.9416C46.0616 22.4469 45.6614 22.054 45.1739 22.054H41.6886C41.1939 22.054 40.8009 22.4541 40.8009 22.9416V37.7267H38.8946V27.7148C38.8946 27.22 38.4944 26.8271 38.0069 26.8271H34.5217C34.0269 26.8271 33.634 27.2273 33.634 27.7148V37.7267H31.7276V25.3864C31.7276 24.8916 31.3275 24.4987 30.84 24.4987H27.3547C26.8599 24.4987 26.467 24.8989 26.467 25.3864V37.7267H24.5607V29.6211C24.5607 29.1263 24.1605 28.7334 23.673 28.7334H20.1877C19.6929 28.7334 19.3 29.1336 19.3 29.6211V37.7267H15.2763V11.0889C15.2763 10.5941 14.8762 10.2012 14.3887 10.2012C13.9012 10.2012 13.501 10.6014 13.501 11.0889V38.6071C13.501 39.1019 13.9012 39.4948 14.3887 39.4948L14.3668 39.5021ZM42.5763 23.8293H44.2862V37.7267H42.5763V23.8293ZM35.4021 28.6025H37.112V37.7267H35.4021V28.6025ZM28.2278 26.2741H29.9377V37.7267H28.2278V26.2741ZM21.0536 30.5088H22.7635V37.7267H21.0536V30.5088Z" fill="#0CB4C4"></path></svg>