<svg width="75" height="60" viewBox="0 0 75 60" fill="none" xmlns="http://www.w3.org/2000/svg"><path fill-rule="evenodd" clip-rule="evenodd" d="M10.7142 34.5173V45.8665C10.7142 47.7638 12.2532 49.2997 14.1505 49.2997H19.4717L29.8024 59.6368C30.1607 59.9919 30.6965 60.0978 31.1607 59.9047C31.628 59.7147 31.9333 59.2567 31.9333 58.7551V49.3001H46.6354C46.8909 49.6522 47.165 49.9949 47.4547 50.3219C47.8224 50.7456 48.4268 50.8703 48.9315 50.6304L52.1341 49.0945C53.0563 49.8235 54.0782 50.4154 55.1748 50.8453C55.1717 50.8453 55.4458 54.3907 55.4458 54.3907C55.4895 54.9483 55.8976 55.4094 56.449 55.5154C58.4865 55.9142 60.5832 55.9142 62.6238 55.5154C63.1721 55.4095 63.5802 54.9484 63.6239 54.3907L63.898 50.8453C64.9915 50.4185 66.0165 49.8235 66.9356 49.0945L70.1413 50.6304C70.646 50.8703 71.2504 50.7456 71.6181 50.3219C72.9826 48.758 74.0294 46.9417 74.7024 44.9759C74.8862 44.4494 74.6899 43.8637 74.2288 43.5459L71.3003 41.5364C71.4716 40.3744 71.4716 39.1936 71.3003 38.0316L74.2288 36.0222C74.6899 35.7044 74.8862 35.1187 74.7024 34.5922C74.0294 32.6232 72.9827 30.81 71.6181 29.2461C71.2504 28.8224 70.646 28.6978 70.1413 28.9377L66.9356 30.4736C66.0165 29.7446 64.9915 29.1527 63.898 28.7227L63.6239 25.1774C63.5802 24.6197 63.1721 24.1587 62.6238 24.0496C62.2032 23.9686 61.7795 23.9031 61.3559 23.8533V12.7968C61.3559 10.9026 59.8168 9.36361 57.9195 9.36361H50.5796L45.8846 0.655941C45.7257 0.359978 45.4547 0.138777 45.1307 0.0484303C44.8067 -0.0450348 44.4609 -0.00141642 44.1712 0.163701L36.8904 4.3384C31.7717 1.80554 27.1611 2.72464 22.9364 6.26377C21.8834 5.93042 19.3568 5.58461 16.3411 5.56903C16.3442 5.56903 9.51827 1.44107 9.51827 1.44107C9.22541 1.26348 8.87338 1.21364 8.5431 1.30398C8.21598 1.39433 7.93871 1.61552 7.7767 1.91461L0.150117 16.0616C-0.155194 16.6223 0.0192705 17.3233 0.545774 17.6816L7.1038 22.1429L9.21604 26.5325L7.25956 28.7725C6.6427 29.4735 6.33424 30.3925 6.3935 31.3241C6.45581 32.2556 6.88574 33.1248 7.58983 33.7416C8.29391 34.3554 9.20981 34.6669 10.1414 34.6046C10.3376 34.5921 10.5273 34.5641 10.7142 34.5173ZM51.9221 11.8557L53.511 14.8029C53.8225 15.3761 53.6356 16.0927 53.0842 16.4416L44.9093 21.6631L42.9403 25.7506L43.7222 26.5294C44.3827 27.1899 44.7535 28.0871 44.7535 29.0218C44.7535 29.9564 44.3827 30.8537 43.7222 31.5141C43.0618 32.1746 42.1645 32.5453 41.2299 32.5453C40.747 32.5453 40.2766 32.4456 39.8404 32.2587C39.6659 32.6575 39.4198 33.022 39.1052 33.3336C38.4447 33.994 37.5506 34.3679 36.6159 34.3679C36.5505 34.3679 36.482 34.3648 36.4196 34.3617C36.2795 35.0253 35.9492 35.639 35.4601 36.1281C34.7996 36.7886 33.9055 37.1593 32.9709 37.1593C32.6843 37.1593 32.4039 37.1251 32.1297 37.0596C31.9584 37.5581 31.6717 38.0161 31.2916 38.3962C30.6312 39.0567 29.737 39.4274 28.8024 39.4274C27.8677 39.4274 26.9736 39.0567 26.3132 38.3962L26.3007 38.3868C26.2072 38.5302 26.1013 38.6703 25.986 38.8043L25.1542 39.7545C23.8706 41.2187 21.6493 41.3683 20.1819 40.0847C19.8891 39.8262 19.6461 39.5302 19.4592 39.2093C18.1631 40.147 16.3438 40.1003 15.0851 39.0005C14.2501 38.2715 13.8451 37.2372 13.8856 36.2122C13.652 36.1717 13.4277 36.1063 13.2065 36.0222V45.8672C13.2065 46.3874 13.6302 46.808 14.1504 46.808H19.9856C20.319 46.808 20.6337 46.942 20.8673 47.1757L29.441 55.7461V48.0541C29.441 47.3656 29.9987 46.808 30.6872 46.808H45.1245C44.8347 46.216 44.5824 45.6054 44.3674 44.9761C44.1836 44.4496 44.3799 43.8639 44.8441 43.5461L47.7726 41.5366C47.5981 40.3746 47.5981 39.1907 47.7726 38.0318L44.8441 36.0224C44.3799 35.7046 44.1836 35.1189 44.3674 34.5924C45.0404 32.6234 46.0903 30.8102 47.4548 29.2463C47.8224 28.8226 48.4269 28.698 48.9316 28.9379L52.1342 30.4738C53.0563 29.7448 54.0782 29.1529 55.1718 28.7229L55.4459 25.1776C55.4895 24.6199 55.8977 24.1589 56.4491 24.0498C57.2466 23.894 58.0535 23.8005 58.8635 23.7631V12.7968C58.8635 12.2765 58.4398 11.8559 57.9195 11.8559L51.9221 11.8557ZM61.2152 26.3488L61.4769 29.7197C61.5174 30.2307 61.8601 30.6606 62.346 30.8164C63.6669 31.2276 64.8789 31.9285 65.8976 32.8632C66.2715 33.209 66.8197 33.29 67.2778 33.0719L70.3309 31.6108C71.01 32.5081 71.5739 33.4832 72.0101 34.5206L69.2187 36.4335C68.8012 36.7232 68.5956 37.2341 68.7078 37.7326C69.01 39.0847 69.01 40.4835 68.7078 41.8325C68.5956 42.3309 68.8012 42.845 69.2187 43.1347L72.0101 45.0476C71.574 46.0819 71.0101 47.0601 70.3309 47.9574L67.2778 46.4962C66.8198 46.2782 66.2715 46.356 65.8976 46.705C64.8789 47.6396 63.6669 48.3406 62.346 48.7549C61.86 48.9076 61.5173 49.3375 61.4769 49.8453L61.2152 53.2194C60.0968 53.3596 58.9721 53.3596 57.8537 53.2194L57.592 49.8453C57.5546 49.3375 57.2088 48.9076 56.7228 48.7549C55.4019 48.3406 54.1899 47.6396 53.1712 46.705C52.7974 46.356 52.2491 46.2782 51.7911 46.4962L48.7411 47.9574C48.0588 47.0601 47.498 46.0818 47.0618 45.0476L49.8501 43.1347C50.2707 42.845 50.4732 42.3309 50.3611 41.8325C50.0589 40.4835 50.0589 39.0847 50.3611 37.7326C50.4732 37.2341 50.2707 36.7232 49.8501 36.4335L47.0618 34.5206C47.498 33.4832 48.0587 32.5081 48.7379 31.6139C48.7411 31.6108 51.7911 33.0719 51.7911 33.0719C52.249 33.29 52.7973 33.209 53.1712 32.8632C54.1899 31.9285 55.4019 31.2276 56.7228 30.8164C57.2088 30.6606 57.5546 30.2307 57.592 29.7197L57.8537 26.3488C58.9721 26.2086 60.0968 26.2086 61.2152 26.3488ZM59.5359 31.8849C55.1743 31.8849 51.6352 35.4241 51.6352 39.7856C51.6352 44.1441 55.1744 47.6832 59.5359 47.6832C63.8975 47.6832 67.4366 44.1441 67.4366 39.7856C67.4366 35.424 63.8975 31.8849 59.5359 31.8849ZM59.5359 34.3773C62.5205 34.3773 64.9443 36.798 64.9443 39.7856C64.9443 42.7671 62.5204 45.1909 59.5359 45.1909C56.5513 45.1909 54.1276 42.767 54.1276 39.7856C54.1276 36.7979 56.5514 34.3773 59.5359 34.3773ZM24.0138 35.7107C24.4437 36.0845 24.4842 36.7357 24.1104 37.1625L23.2785 38.1127C22.9047 38.5426 22.2535 38.5831 21.8267 38.2093C21.3968 37.8354 21.3532 37.1842 21.727 36.7575L22.562 35.8073C22.9358 35.3773 23.587 35.3337 24.0138 35.7107ZM20.5307 34.3431L18.1786 37.0286C17.8016 37.4585 17.1536 37.499 16.7268 37.1251C16.2969 36.7482 16.2564 36.1001 16.6302 35.6734L18.9824 32.9847C19.3562 32.5579 20.0074 32.5112 20.4341 32.8882C20.8641 33.262 20.9046 33.9132 20.5307 34.3431ZM19.7955 8.30141C18.674 8.17367 17.3031 8.05529 15.9978 8.06152C15.7703 8.06152 15.546 7.99921 15.3498 7.88082L9.34946 4.24822L2.87557 16.2554L8.7824 20.2743C8.96621 20.3958 9.10952 20.564 9.20298 20.7603L11.0785 24.6546C11.5583 24.3648 12.1035 24.1904 12.6736 24.1499C13.5957 24.0907 14.5055 24.396 15.2065 24.9973C15.2127 25.0035 15.2345 25.0222 15.2376 25.0253C15.8607 25.5768 16.2689 26.3276 16.3903 27.1438C17.2191 27.1562 18.0228 27.4647 18.649 28.0129H18.6521C19.2814 28.5644 19.6927 29.3214 19.8141 30.1439C20.6179 30.1564 21.4248 30.443 22.0759 31.0131C22.6803 31.5427 23.0604 32.2343 23.21 32.9634C24.0729 32.9353 24.9546 33.2188 25.6556 33.8325C26.0855 34.2095 26.4002 34.6675 26.5995 35.1628L28.0732 36.6365C28.2663 36.8265 28.528 36.9356 28.8022 36.9356C29.0732 36.9356 29.338 36.8265 29.5281 36.6365C29.7244 36.4402 29.8303 36.1785 29.8303 35.9043C29.8303 35.6333 29.7244 35.3716 29.5281 35.1784C28.1636 33.8108 26.422 32.0693 26.422 32.0693C25.936 31.5833 25.936 30.7919 26.422 30.306C26.908 29.82 27.6963 29.82 28.1822 30.306L32.2448 34.3685C32.4348 34.5586 32.6965 34.6676 32.9707 34.6676C33.2449 34.6676 33.5065 34.5586 33.6997 34.3685C33.8929 34.1723 34.0019 33.9106 34.0019 33.6395C34.0019 33.3654 33.8929 33.1037 33.6997 32.9105L29.6403 28.8511C29.1543 28.3651 29.1543 27.5769 29.6403 27.0909C30.1263 26.6018 30.9146 26.6018 31.4036 27.0909L35.8867 31.5741C36.0799 31.7641 36.3416 31.8763 36.6158 31.8763C36.8868 31.8763 37.1516 31.7641 37.3417 31.5741C37.5379 31.3778 37.6439 31.1161 37.6439 30.845C37.6439 30.5709 37.5379 30.3092 37.3417 30.116L32.8585 25.6329C32.3725 25.1469 32.3725 24.3556 32.8585 23.8696C33.3446 23.3837 34.1359 23.3836 34.6218 23.8696L40.5007 29.7516C40.6938 29.9447 40.9555 30.0538 41.2297 30.0538C41.5038 30.0538 41.7655 29.9447 41.9587 29.7516C42.1519 29.5584 42.2609 29.2967 42.2609 29.0225C42.2609 28.7484 42.1519 28.4867 41.9587 28.2935L36.0768 22.4147L32.7339 18.8506C29.497 18.8039 26.3721 16.5951 25.2039 13.3145L20.3376 16.1246C18.6521 17.0966 16.4993 16.5202 15.5274 14.8348C15.06 14.0248 14.9354 13.0621 15.1753 12.1617C15.4183 11.2582 16.0072 10.4918 16.8172 10.0214C16.8172 10.0214 18.3623 9.13006 19.7955 8.30141ZM17.1068 31.3435L15.2843 33.4246C15.1036 33.6333 14.8481 33.7579 14.574 33.7766C14.3029 33.7953 14.035 33.7019 13.8294 33.5212C13.6238 33.3436 13.4991 33.0881 13.4804 32.8171C13.4618 32.5429 13.5521 32.275 13.7328 32.0694L15.5585 29.9851C15.7361 29.7826 15.9915 29.658 16.2626 29.6362C16.5367 29.6206 16.8046 29.711 17.0103 29.8917C17.2159 30.0693 17.3405 30.3247 17.3592 30.5958C17.3779 30.8699 17.2875 31.1378 17.1068 31.3435ZM9.22791 31.8669C9.0254 31.6862 8.89768 31.4307 8.87898 31.1597C8.86341 30.8886 8.95375 30.6176 9.13445 30.4151L12.1315 26.9881C12.3122 26.7825 12.5676 26.6578 12.8387 26.6391C13.1097 26.6204 13.3777 26.7108 13.5802 26.8884C13.5833 26.8915 13.6144 26.9195 13.6269 26.9289C13.8076 27.1065 13.9166 27.3432 13.9353 27.5987C13.9509 27.8728 13.8637 28.1377 13.6799 28.3464L10.6828 31.7703C10.5021 31.9759 10.2498 32.1005 9.97562 32.1192C9.70146 32.1379 9.43665 32.0476 9.22791 31.8669ZM41.0741 23.885L42.8188 20.2617C42.9185 20.0561 43.0742 19.8785 43.2705 19.7539L50.7693 14.9655L44.2986 2.96469L37.5412 6.84031C37.1642 7.05528 36.7031 7.06151 36.3231 6.85278C31.6717 4.31369 27.5436 5.33248 23.7832 8.84354C23.7115 8.90897 23.6336 8.96193 23.5557 9.00866L18.0632 12.1802C17.8264 12.3173 17.652 12.5416 17.5835 12.8064C17.5118 13.0712 17.5492 13.3516 17.6863 13.5884C17.9698 14.0806 18.5991 14.2489 19.0913 13.9654L25.4032 10.3234C25.9951 9.98072 26.7615 10.1832 27.1042 10.7783C27.1852 10.9153 27.2351 11.0649 27.2569 11.2144L27.3441 11.7347C27.9392 14.5666 30.5437 16.5325 33.17 16.3487C33.5438 16.3207 33.9115 16.464 34.1669 16.735L37.8525 20.6636L41.0741 23.885Z" fill="#0CB4C4"></path></svg>