<svg xmlns="http://www.w3.org/2000/svg" xmlns:xlink="http://www.w3.org/1999/xlink" version="1.1" id="Layer_1" x="0px" y="0px" width="60px" height="60px" viewBox="0 0 60 60" style="enable-background:new 0 0 60 60;" xml:space="preserve"><g><path style="fill:#0CB4C4;" d="M56,6H44v2h12c1.104,0.001,1.998,0.896,2,2v19c-0.002,1.104-0.896,1.999-2,2h-5 c-0.553,0-1,0.448-1,1v2h-1.434l-2.4-4l2.4-4H50v2c0,0.552,0.447,1,1,1h4c0.553,0,1-0.448,1-1V11c0-0.552-0.447-1-1-1H44v2h10v15 h-2v-2c0-0.552-0.447-1-1-1h-3c-0.352,0-0.678,0.184-0.857,0.485l-3,5c-0.191,0.317-0.191,0.712,0,1.029l3,5 C47.322,35.816,47.648,36,48,36h3c0.553,0,1-0.447,1-1v-2h4c2.207-0.002,3.996-1.792,4-4V10C59.996,7.792,58.207,6.002,56,6z"></path><path style="fill:#0CB4C4;" d="M0,31v19c0.002,2.208,1.791,3.998,4,4h4v2c0,0.553,0.447,1,1,1h3c0.351,0,0.676-0.184,0.857-0.485 l3-5c0.189-0.317,0.189-0.712,0-1.029l-3-5C12.676,45.184,12.351,45,12,45H9c-0.553,0-1,0.447-1,1v2H6V33h10v-2H5 c-0.553,0-1,0.448-1,1v17c0,0.553,0.447,1,1,1h4c0.552,0,1-0.447,1-1v-2h1.434l2.4,4l-2.4,4H10v-2c0-0.553-0.448-1-1-1H4 c-1.104-0.002-1.999-0.896-2-2V31c0.001-1.104,0.896-1.999,2-2h12v-2H4C1.791,27.002,0.002,28.792,0,31z"></path><rect x="24" y="25" style="fill:#0CB4C4;" width="2" height="2"></rect><rect x="28" y="25" style="fill:#0CB4C4;" width="8" height="2"></rect><rect x="24" y="29" style="fill:#0CB4C4;" width="12" height="2"></rect><rect x="24" y="33" style="fill:#0CB4C4;" width="12" height="2"></rect><path style="fill:#0CB4C4;" d="M41,0H19c-0.553,0-1,0.448-1,1v16c0,0.552,0.447,1,1,1h10v3H19c-0.553,0-1,0.448-1,1v16 c0,0.553,0.447,1,1,1h10v3H19c-0.553,0-1,0.447-1,1v16c0,0.553,0.447,1,1,1h22c0.553,0,1-0.447,1-1V43c0-0.553-0.447-1-1-1H31v-3 h10c0.553,0,1-0.447,1-1V22c0-0.552-0.447-1-1-1H31v-3h10c0.553,0,1-0.448,1-1V1C42,0.448,41.553,0,41,0z M40,44v14H20V44H40z M40,37H20V23h20V37z M40,16H20V2h20V16z"></path><rect x="24" y="4" style="fill:#0CB4C4;" width="2" height="2"></rect><rect x="28" y="4" style="fill:#0CB4C4;" width="8" height="2"></rect><rect x="24" y="8" style="fill:#0CB4C4;" width="12" height="2"></rect><rect x="24" y="12" style="fill:#0CB4C4;" width="12" height="2"></rect><rect x="24" y="46" style="fill:#0CB4C4;" width="2" height="2"></rect><rect x="28" y="46" style="fill:#0CB4C4;" width="8" height="2"></rect><rect x="24" y="50" style="fill:#0CB4C4;" width="12" height="2"></rect><rect x="24" y="54" style="fill:#0CB4C4;" width="12" height="2"></rect></g></svg>