<svg xmlns="http://www.w3.org/2000/svg" xmlns:xlink="http://www.w3.org/1999/xlink" version="1.1" id="Layer_1" x="0px" y="0px" width="74.59px" height="60px" viewBox="0 0 74.59 60" style="enable-background:new 0 0 74.59 60;" xml:space="preserve"><g><path style="fill:#0CB4C4;" d="M4.9,60C2.152,60,0,57.848,0,55.1V4.901C0,2.153,2.152,0,4.9,0h64.789c2.748,0,4.9,2.153,4.9,4.901 V55.1c0,2.748-2.152,4.9-4.9,4.9H4.9z M2.135,55.182c0,1.551,1.215,2.766,2.766,2.766h64.789c1.569,0,2.848-1.277,2.848-2.848 V16.56H2.135V55.182z M4.9,2.135c-1.551,0-2.766,1.215-2.766,2.766v9.689h70.32V4.983c0-1.57-1.277-2.848-2.848-2.848H4.9z M32.432,50.604c-0.068,0-0.217-0.047-0.353-0.092c-0.551-0.277-0.787-0.841-0.577-1.388l9.639-24.14 c0.154-0.398,0.537-0.647,0.981-0.647c0.14,0,0.275,0.025,0.406,0.076c0.248,0.095,0.443,0.289,0.55,0.545 c0.112,0.267,0.115,0.564,0.011,0.838l-9.722,24.136C33.199,50.353,32.85,50.604,32.432,50.604z M48.835,48.13 c-0.298,0-0.573-0.131-0.771-0.37c-0.196-0.218-0.279-0.466-0.259-0.728c0.02-0.271,0.15-0.518,0.365-0.694l10.51-8.879 l-10.496-8.868c-0.229-0.187-0.359-0.434-0.379-0.705c-0.021-0.261,0.063-0.509,0.232-0.697c0.223-0.272,0.504-0.407,0.801-0.407 c0.233,0,0.455,0.084,0.623,0.235l11.398,9.665c0.245,0.204,0.376,0.479,0.376,0.777c0,0.299-0.131,0.573-0.369,0.772l-11.382,9.65 C49.229,48.085,49.038,48.13,48.835,48.13z M25.755,48.13c-0.202,0-0.394-0.045-0.672-0.268L13.73,38.237 c-0.246-0.205-0.377-0.478-0.377-0.777c0-0.298,0.131-0.572,0.369-0.771l11.383-9.65c0.2-0.163,0.439-0.256,0.68-0.256 c0.284,0,0.537,0.128,0.734,0.369c0.192,0.234,0.286,0.506,0.265,0.767c-0.02,0.254-0.146,0.483-0.365,0.663l-10.51,8.878 l10.496,8.869c0.229,0.187,0.359,0.433,0.379,0.705c0.021,0.261-0.063,0.509-0.232,0.697C26.328,48,26.054,48.13,25.755,48.13z M8.229,9.723c-0.695,0-1.305-0.674-1.305-1.443c0-0.793,0.645-1.438,1.438-1.438S9.801,7.487,9.801,8.28S9.154,9.718,8.361,9.718 L8.229,9.723z M24.849,9.718c-0.793,0-1.438-0.646-1.438-1.438s0.646-1.438,1.438-1.438c0.753,0,1.438,0.686,1.438,1.438 C26.286,9.073,25.642,9.718,24.849,9.718z M16.605,9.718c-0.793,0-1.438-0.646-1.438-1.438s0.646-1.438,1.438-1.438 c0.752,0,1.438,0.686,1.438,1.438C18.044,9.073,17.398,9.718,16.605,9.718z"></path></g></svg>