<svg width="60" height="60" viewBox="0 0 60 60" fill="none" xmlns="http://www.w3.org/2000/svg"><path d="M57 52H56V12C55.9991 11.1732 55.7424 10.3665 55.2647 9.69153C54.7871 9.01608 54.1125 8.50536 53.3331 8.22902L52.667 10.1129C53.0568 10.2517 53.3938 10.5075 53.6326 10.8455C53.871 11.183 53.9996 11.5866 54 12V52H39C38.7349 52 38.4804 52.1054 38.2929 52.2929L36.5862 54.0001H23.4136L21.7064 52.2929C21.5189 52.1054 21.2649 52 20.9997 52H5.99969V12C6.00013 11.5866 6.1287 11.1831 6.36709 10.8455C6.60593 10.5076 6.94299 10.2517 7.33272 10.1129L6.66665 8.22902C5.88718 8.50536 5.21259 9.01607 4.73499 9.69153C4.25731 10.3665 4.00061 11.1732 3.99972 12V52H2.99972C2.44749 52 1.99972 52.4478 1.99972 53V56C1.99972 57.0607 2.42115 58.0782 3.17115 58.8286C3.9216 59.5786 4.93904 60 5.99972 60H53.9997C55.0604 60 56.0779 59.5786 56.8283 58.8286C57.5783 58.0781 57.9997 57.0607 57.9997 56V53C57.9997 52.7348 57.8944 52.4803 57.7069 52.2928C57.5194 52.1053 57.2652 52 57 52ZM56 56C56 56.5303 55.7893 57.0393 55.4143 57.4143C55.0393 57.7893 54.5304 58 54 58H6.00001C5.46965 58 4.96071 57.7893 4.58572 57.4143C4.21073 57.0393 4.00001 56.5303 4.00001 56V54H20.5863L22.2935 55.7072C22.481 55.8947 22.735 56 23.0002 56H37.0002C37.2654 56 37.5198 55.8947 37.7073 55.7072L39.4141 54H56.0004L56 56Z" fill="#0CB4C4"></path><path d="M13 4H15V6H13V4Z" fill="#0CB4C4"></path><path d="M17 4H19V6H17V4Z" fill="#0CB4C4"></path><path d="M21 4H23V6H21V4Z" fill="#0CB4C4"></path><path d="M0 7H2V30H0V7Z" fill="#0CB4C4"></path><path d="M58 23H60V25H58V23Z" fill="#0CB4C4"></path><path d="M58 27.0857H60V47H58V27.0857Z" fill="#0CB4C4"></path><path d="M32 14C32 13.7348 31.8946 13.4804 31.7071 13.2929C31.5196 13.1054 31.2652 13 31 13H27C26.4478 13 26 13.4478 26 14V15H14V17H26V18C26 18.2652 26.1054 18.5196 26.2929 18.7071C26.4804 18.8946 26.7348 19 27 19H31C31.2652 19 31.5196 18.8946 31.7071 18.7071C31.8946 18.5196 32 18.2652 32 18V17H46V15H32V14ZM30 17H28V15H30V17Z" fill="#0CB4C4"></path><path d="M41 20C41 19.7348 40.8946 19.4804 40.7071 19.2929C40.5196 19.1054 40.2652 19 40 19H36C35.4478 19 35 19.4478 35 20V21H14V23H35V24C35 24.2652 35.1054 24.5196 35.2929 24.7071C35.4804 24.8946 35.7348 25 36 25H40C40.2652 25 40.5196 24.8946 40.7071 24.7071C40.8946 24.5196 41 24.2652 41 24V23H46V21H41V20ZM39 23H37V21H39V23Z" fill="#0CB4C4"></path><path d="M27 26C27 25.7348 26.8946 25.4804 26.7071 25.2929C26.5196 25.1054 26.2652 25 26 25H22C21.4478 25 21 25.4478 21 26V27H14V29H21V30C21 30.2652 21.1054 30.5196 21.2929 30.7071C21.4804 30.8946 21.7348 31 22 31H26C26.2652 31 26.5196 30.8946 26.7071 30.7071C26.8946 30.5196 27 30.2652 27 30V29H46V27H27V26ZM25 29H23V27H25V29Z" fill="#0CB4C4"></path><path d="M29 50H31V52H29V50Z" fill="#0CB4C4"></path><path d="M51 47V4C51 2.93929 50.5786 1.92183 49.8286 1.17143C49.0781 0.421429 48.0607 0 47 0H13C11.9393 0 10.9218 0.421429 10.1714 1.17143C9.42143 1.92187 9 2.93931 9 4V47C9 47.2652 9.10536 47.5196 9.29286 47.7071C9.48036 47.8946 9.73482 48 10 48H50C50.2652 48 50.5196 47.8946 50.7071 47.7071C50.8946 47.5196 51 47.2652 51 47ZM13 2H47C47.5304 2 48.0393 2.21072 48.4143 2.58571C48.7893 2.96071 49 3.46965 49 4V8H11V4C11 3.46965 11.2107 2.96071 11.5857 2.58571C11.9607 2.21072 12.4696 2 13 2ZM11 46V10H49V46H11Z" fill="#0CB4C4"></path><path d="M21 35H15C14.4478 35 14 35.4478 14 36V42C14 42.2652 14.1054 42.5196 14.2929 42.7071C14.4804 42.8946 14.7348 43 15 43H21C21.2652 43 21.5196 42.8946 21.7071 42.7071C21.8946 42.5196 22 42.2652 22 42V36C22 35.7348 21.8946 35.4804 21.7071 35.2929C21.5196 35.1054 21.2652 35 21 35ZM20 41H16V37H20V41Z" fill="#0CB4C4"></path><path d="M33 35H27C26.4478 35 26 35.4478 26 36V42C26 42.2652 26.1054 42.5196 26.2929 42.7071C26.4804 42.8946 26.7348 43 27 43H33C33.2652 43 33.5196 42.8946 33.7071 42.7071C33.8946 42.5196 34 42.2652 34 42V36C34 35.7348 33.8946 35.4804 33.7071 35.2929C33.5196 35.1054 33.2652 35 33 35ZM32 41H28V37H32V41Z" fill="#0CB4C4"></path><path d="M45 35H39C38.4478 35 38 35.4478 38 36V42C38 42.2652 38.1054 42.5196 38.2929 42.7071C38.4804 42.8946 38.7348 43 39 43H45C45.2652 43 45.5196 42.8946 45.7071 42.7071C45.8946 42.5196 46 42.2652 46 42V36C46 35.7348 45.8946 35.4804 45.7071 35.2929C45.5196 35.1054 45.2652 35 45 35ZM44 41H40V37H44V41Z" fill="#0CB4C4"></path></svg>