<svg xmlns="http://www.w3.org/2000/svg" width="59" height="60" viewBox="0 0 59 60" fill="none"><path d="M28.9999 9.00011C32.7249 9.00011 36.3748 9.9876 39.5874 11.8626L40.5999 10.1376C34.8624 6.80011 27.9748 6.08755 21.6754 8.18765L22.3129 10.0876C24.4754 9.36264 26.7248 9.00011 28.9999 9.00011Z" fill="#0CB4C4"></path><path d="M22.7005 39.2754L25.1505 37.7754L26.2255 38.2254L26.888 41.0129H31.088L31.7505 38.2254L32.8255 37.7754L35.2756 39.2754L38.2505 36.3004L36.7505 33.8504L37.2005 32.7754L39.988 32.1129V27.9129L37.2005 27.2504L36.7505 26.1754L38.2505 23.7254L35.2756 20.7504L32.8255 22.2504L31.7505 21.8004L31.088 19.0129H26.888L26.2255 21.8004L25.1505 22.2504L22.7005 20.7504L19.7255 23.7254L21.2255 26.1754L20.7755 27.2504L17.988 27.9129V32.1129L20.7755 32.7754L21.2255 33.8504L19.7255 36.3004L22.7005 39.2754ZM20.0005 30.5255V29.4755L22.238 28.938L23.463 25.9755L22.2505 24.0005L22.988 23.2505L24.963 24.463L27.9255 23.238L28.463 21.0005H29.513L30.0505 23.238L33.013 24.463L34.988 23.2505L35.738 23.988L34.5255 25.963L35.7505 28.9255L37.988 29.463V30.513L35.7505 31.0505L34.5255 34.013L35.738 35.9879L35.0005 36.7379L33.0255 35.5255L30.063 36.7505L29.5255 38.988H28.4755L27.938 36.7505L24.9755 35.5255L23.0005 36.7379L22.2505 36.0004L23.463 34.0255L22.238 31.063L20.0005 30.5255Z" fill="#0CB4C4"></path><path d="M28.9999 34C31.2123 34 32.9999 32.2124 32.9999 30C32.9999 27.7876 31.2123 26 28.9999 26C26.7874 26 24.9999 27.7876 24.9999 30C24.9999 32.2124 26.7874 34 28.9999 34ZM28.9999 28C30.0999 28 30.9999 28.9 30.9999 30C30.9999 31.1 30.0999 32 28.9999 32C27.8999 32 26.9999 31.1 26.9999 30C26.9999 28.9 27.8999 28 28.9999 28Z" fill="#0CB4C4"></path><path d="M36.6376 49.5622C31.7251 51.4747 26.2751 51.4747 21.3622 49.5622L20.6372 51.4247C26.0122 53.5122 31.9871 53.5122 37.3617 51.4247L36.6376 49.5622Z" fill="#0CB4C4"></path><path d="M51.1369 36.2754C52.2869 32.1754 52.2869 27.838 51.1369 23.7257L49.2119 24.2757C50.2619 28.0257 50.2619 31.9882 49.2119 35.726L51.1369 36.2754Z" fill="#0CB4C4"></path><path d="M6.86284 23.7246C5.7129 27.8246 5.7129 32.162 6.86284 36.2742L8.78786 35.7242C7.73786 31.9743 7.73786 28.0118 8.78786 24.274L6.86284 23.7246Z" fill="#0CB4C4"></path><path d="M39.9999 18.7749V21.9999H41.9998V18.7749C41.9873 15.0874 44.2373 11.7749 47.6623 10.4124L47.9998 10.2749L48.3373 10.4124C51.7623 11.7749 54.0123 15.0874 53.9998 18.7749V21.9999H55.9998V18.7749C56.0123 14.7999 53.8623 11.1249 50.3874 9.18739C51.3999 8.4374 51.9998 7.23746 51.9998 5.97495V3.99999C51.9998 1.78754 50.2123 0 47.9998 0C45.7874 0 43.9999 1.78754 43.9999 3.99999V5.97495C43.9999 7.23746 44.5874 8.43745 45.6123 9.18739C42.1374 11.1124 39.9873 14.7874 39.9999 18.7749ZM45.9998 4.0001C45.9998 2.9001 46.8998 2.00011 47.9998 2.00011C49.0998 2.00011 49.9998 2.9001 49.9998 4.0001V5.97506C49.9998 6.78756 49.4998 7.525 48.7373 7.83757L47.9998 8.12507L47.2623 7.82507C46.4998 7.52507 45.9998 6.78758 45.9998 5.97502L45.9998 4.0001Z" fill="#0CB4C4"></path><path d="M16.9999 22C18.65 22 19.9999 20.6501 19.9999 19V3.0001C19.9999 1.35005 18.65 0.000111607 16.9999 0.000111607H2.99999C1.34994 0.000111607 0 1.35005 0 3.0001V19C0 20.6501 1.34994 22 2.99999 22H16.9999ZM6.99997 2.0001H8.99997V8.00008H6.99997V2.0001ZM1.99999 19V3.0001C1.99999 2.4501 2.44999 2.0001 2.99999 2.0001H4.99998V10.0001H11V2.0001H16.9999C17.5499 2.0001 17.9999 2.4501 17.9999 3.0001V19C17.9999 19.55 17.5499 20 16.9999 20H2.99999C2.44999 20 1.99999 19.55 1.99999 19Z" fill="#0CB4C4"></path><path d="M15.9999 38H3.99999C2.34993 38 0.999996 39.3499 0.999996 41V56.9999C0.999996 58.65 2.34993 59.9999 3.99999 59.9999H10.1749C10.9749 59.9999 11.7374 59.6874 12.3 59.1249L18.125 53.2999C18.6875 52.7374 19 51.9749 19 51.1749V41C19 39.3499 17.65 38 15.9999 38ZM12 56.5874V53.9998C12 53.4498 12.45 52.9998 13 52.9998H15.5875L12 56.5874ZM16.9999 50.9998H13C11.3499 50.9998 9.99996 52.3498 9.99996 53.9998V57.9998H3.99999C3.44999 57.9998 2.99999 57.5498 2.99999 56.9998V40.9999C2.99999 40.4499 3.44999 39.9999 3.99999 39.9999H15.9999C16.5499 39.9999 16.9999 40.4499 16.9999 40.9999V50.9998Z" fill="#0CB4C4"></path><path d="M4.99998 43H14.9999V44.9999H4.99998V43Z" fill="#0CB4C4"></path><path d="M4.99998 46.9999H14.9999V48.9999H4.99998V46.9999Z" fill="#0CB4C4"></path><path d="M4.99998 50.9999H7.99997V52.9999H4.99998V50.9999Z" fill="#0CB4C4"></path><path d="M56.9998 57.9999V38H46.9998V41.3875L38.9999 45.3875V58H36.9999V60H58.9998V58L56.9998 57.9999ZM46.9998 57.9999H40.9998V46.6124L46.9998 43.6124V57.9999ZM54.9998 57.9999H48.9998V40H54.9998V57.9999Z" fill="#0CB4C4"></path><path d="M42.9998 47.9999H44.9998V49.9999H42.9998V47.9999Z" fill="#0CB4C4"></path><path d="M42.9998 51.9999H44.9998V53.9999H42.9998V51.9999Z" fill="#0CB4C4"></path><path d="M50.9998 42H52.9998V43.9999H50.9998V42Z" fill="#0CB4C4"></path><path d="M50.9998 45.9999H52.9998V47.9999H50.9998V45.9999Z" fill="#0CB4C4"></path><path d="M50.9998 49.9999H52.9998V51.9999H50.9998V49.9999Z" fill="#0CB4C4"></path><path d="M50.9998 53.9999H52.9998V55.9999H50.9998V53.9999Z" fill="#0CB4C4"></path></svg>