<svg width="34" height="60" viewBox="0 0 34 60" fill="none" xmlns="http://www.w3.org/2000/svg"><path d="M18.8152 54.7288C18.8152 55.8458 17.9097 56.7512 16.7927 56.7512C15.6761 56.7512 14.7703 55.8458 14.7703 54.7288C14.7703 53.6117 15.6761 52.7063 16.7927 52.7063C17.9098 52.7063 18.8152 53.6118 18.8152 54.7288Z" fill="#0CB4C4"></path><path d="M18.7539 54.7288C18.7539 55.8458 17.8485 56.7512 16.7315 56.7512C15.6145 56.7512 14.709 55.8458 14.709 54.7288C14.709 53.6117 15.6145 52.7063 16.7315 52.7063C17.8485 52.7063 18.7539 53.6118 18.7539 54.7288Z" fill="#0CB4C4"></path><path d="M13.1155 4.28998C12.6863 4.28998 12.3187 4.65763 12.3187 5.08683C12.3187 5.51604 12.6863 5.88369 13.1155 5.88369H20.3471C20.7764 5.88369 21.144 5.51604 21.144 5.08683C21.144 4.65763 20.7763 4.28998 20.3471 4.28998H13.1155Z" fill="#0CB4C4"></path><path d="M6.98689 20.2244C6.55767 20.2244 6.19003 20.592 6.19003 21.0212C6.19003 21.4505 6.55768 21.8181 6.98689 21.8181H14.2185C14.6477 21.8181 15.0153 21.4505 15.0153 21.0212C15.0153 20.592 14.6477 20.2244 14.2185 20.2244H6.98689Z" fill="#0CB4C4"></path><path d="M21.2667 31.4398C20.8374 31.4398 20.4698 31.8075 20.4698 32.2367C20.4698 32.6659 20.8375 33.0336 21.2667 33.0336H28.4983C28.9275 33.0336 29.2951 32.6659 29.2951 32.2367C29.2951 31.8075 28.9275 31.4398 28.4983 31.4398H21.2667Z" fill="#0CB4C4"></path><path d="M8.7642 15.0763C8.33499 15.0763 7.96734 15.444 7.96734 15.8732C7.96734 16.3024 8.335 16.67 8.7642 16.67H15.9958C16.425 16.67 16.7927 16.3024 16.7927 15.8732C16.7927 15.444 16.425 15.0763 15.9958 15.0763H8.7642Z" fill="#0CB4C4"></path><path d="M18.9378 36.8331C18.5086 36.8331 18.1409 37.2007 18.1409 37.6299C18.1409 38.0591 18.5086 38.4268 18.9378 38.4268H26.1694C26.5986 38.4268 26.9662 38.0591 26.9662 37.6299C26.9662 37.2007 26.5986 36.8331 26.1694 36.8331H18.9378Z" fill="#0CB4C4"></path><path d="M7.47718 42.7166C7.04796 42.7166 6.68032 43.0842 6.68032 43.5134C6.68032 43.9426 7.04798 44.3103 7.47718 44.3103H14.7088C15.138 44.3103 15.5056 43.9426 15.5056 43.5134C15.5056 43.0842 15.138 42.7166 14.7088 42.7166H7.47718Z" fill="#0CB4C4"></path><path d="M19.6119 42.7166C19.1827 42.7166 18.8151 43.0842 18.8151 43.5134C18.8151 43.9426 19.1827 44.3103 19.6119 44.3103H26.8435C27.2728 44.3103 27.6404 43.9426 27.6404 43.5134C27.6404 43.0842 27.2727 42.7166 26.8435 42.7166H19.6119Z" fill="#0CB4C4"></path><path d="M28.6211 0H5.02572C2.26793 0 0 2.26749 0 5.02572V54.9743C0 57.7321 2.26749 60 5.02572 60H28.6823C31.4401 60 33.7081 57.7325 33.7081 54.9743V5.02572C33.6465 2.26793 31.3788 0 28.6211 0ZM1.77753 5.02528C1.77753 3.30926 3.18701 1.89977 4.90304 1.89977H28.5597C30.2757 1.89977 31.6852 3.30926 31.6852 5.02528V7.84468H1.77731L1.77753 5.02528ZM31.7468 54.9739C31.7468 56.6899 30.3373 58.0993 28.6213 58.0993H5.02489C3.30886 58.0993 1.89938 56.6899 1.89938 54.9739V51.4803H31.8685V54.9739H31.7468ZM31.7464 49.5805H1.77726V9.80553H31.7464V49.5805Z" fill="#0CB4C4"></path><path d="M18.0185 28.4981L16.9155 28.9273C16.4863 28.2531 15.9964 27.7627 15.3834 27.3951L15.9964 26.0468C16.0575 25.9857 16.0575 25.8019 15.9964 25.7403C15.9353 25.6176 15.8737 25.5565 15.8126 25.5565L14.0966 24.7596C13.9127 24.6985 13.6673 24.7596 13.5451 24.9435L12.932 26.2918C12.2579 26.1079 11.5837 26.1079 10.9706 26.1691L10.5414 24.9434C10.4803 24.7596 10.2349 24.6369 10.0511 24.6985L8.33506 25.3727C8.15124 25.4338 8.02854 25.6792 8.0901 25.863L8.51932 27.0886C7.90628 27.4563 7.41638 28.0078 7.04833 28.4369L5.63885 27.8239C5.45502 27.7628 5.20963 27.8239 5.08737 28.0077L4.29051 29.7237C4.22938 29.7849 4.22938 29.9687 4.29051 30.0303C4.29051 30.0914 4.4132 30.2141 4.47434 30.2141L5.88382 30.8271C5.76113 31.5624 5.69999 32.3593 5.76113 33.0334L4.59657 33.4627C4.41274 33.5238 4.29005 33.7692 4.35161 33.953L5.02578 35.669C5.08692 35.8529 5.33231 35.9756 5.51613 35.914L6.68069 35.4848C7.04834 36.0978 7.59981 36.5877 8.02899 36.9558L7.47751 38.1814V38.3652C7.47751 38.4263 7.60021 38.549 7.66134 38.549L9.37736 39.3459C9.43849 39.407 9.62232 39.407 9.68388 39.3459C9.80657 39.2848 9.86771 39.2232 9.86771 39.1621L10.4192 37.9365C11.1545 38.1203 11.9514 38.1203 12.6255 38.0591L12.9932 39.101C13.0543 39.2848 13.2997 39.4075 13.4835 39.3459L15.1995 38.6717C15.3834 38.6106 15.5061 38.3652 15.4445 38.1814L15.0153 37.0785C15.5668 36.5881 16.1182 36.0978 16.5474 35.5463L17.5893 36.0366C17.6504 36.0978 17.8342 36.0978 17.8958 36.0366C17.9569 36.0366 18.0796 35.9139 18.0796 35.8528L18.8765 34.1368C18.9376 34.0757 18.9376 33.8918 18.8765 33.8303C18.8153 33.7076 18.7538 33.6464 18.6926 33.6464L17.6508 33.1561C17.8346 32.4819 17.8346 31.8078 17.712 31.1336L18.8765 30.7044C19.0603 30.6433 19.183 30.3979 19.1215 30.2141L18.57 28.5592C18.4473 28.5592 18.2634 28.437 18.0185 28.4981ZM13.1766 35.7297C11.2768 36.465 9.07041 35.4847 8.33519 33.5234C7.59989 31.6236 8.58015 29.4172 10.5415 28.6819C12.4413 27.9466 14.6477 28.9269 15.3829 30.8883C16.1182 32.9107 15.0764 35.056 13.1766 35.7297Z" fill="#0CB4C4"></path><path d="M27.3953 18.8148L26.5373 19.1213C26.1697 18.631 25.802 18.2022 25.3117 17.8957L25.8021 16.8539C25.8021 16.7927 25.8632 16.67 25.8021 16.6089C25.7409 16.4862 25.6794 16.4862 25.6182 16.4862L24.2699 15.8732C24.1472 15.812 23.9634 15.8732 23.8407 16.057L23.3504 17.0988C22.7989 16.9761 22.3086 16.9761 21.8182 16.9761L21.4506 16.057C21.3894 15.9343 21.2056 15.812 21.0829 15.8732L19.7957 16.4247C19.673 16.4858 19.5507 16.6696 19.6118 16.7923L19.9795 17.7114C19.4891 18.0179 19.1215 18.3856 18.8149 18.7532L17.712 18.2629C17.5893 18.2018 17.4055 18.2629 17.2828 18.4467L16.6697 19.795C16.6697 19.8562 16.6086 19.9789 16.6697 20.04C16.7309 20.1011 16.7924 20.1627 16.8536 20.1627L17.9565 20.653C17.8338 21.2045 17.8338 21.8176 17.8954 22.3691L17.0374 22.6756C16.9147 22.7367 16.7924 22.9205 16.8536 23.0432L17.3439 24.3915C17.405 24.5142 17.5889 24.6365 17.7116 24.5754L18.5696 24.2688C18.8761 24.7592 19.2437 25.1268 19.6114 25.4334L19.1822 26.4141V26.5979C19.1822 26.659 19.3048 26.7206 19.366 26.7206L20.7143 27.3336C20.7754 27.3336 20.8981 27.3948 20.9592 27.3336C21.0819 27.2725 21.0819 27.2109 21.0819 27.1498L21.5112 26.1691C22.1242 26.2918 22.6757 26.2918 23.2272 26.2303L23.5337 27.0271C23.5948 27.1498 23.7787 27.2721 23.9014 27.2109L25.2497 26.7206C25.3724 26.6595 25.4946 26.4756 25.4335 26.3529L25.127 25.495C25.5562 25.1273 25.985 24.7596 26.3526 24.2693L27.2106 24.637C27.2717 24.637 27.3944 24.6981 27.4555 24.637C27.5167 24.5759 27.5782 24.5143 27.5782 24.4532L28.1913 23.1049C28.1913 23.0437 28.2524 22.921 28.1913 22.8599C28.1301 22.7372 28.0686 22.7372 28.0074 22.7372L27.1495 22.3695C27.2721 21.8181 27.2721 21.3277 27.2106 20.8374L28.0686 20.5309C28.1913 20.4697 28.3135 20.2859 28.2524 20.1632L27.7621 18.8149C27.7013 18.876 27.5792 18.7537 27.3953 18.8148ZM23.5952 24.4531C22.1242 25.0046 20.4082 24.2693 19.7956 22.7371C19.2441 21.2661 19.9794 19.5501 21.5116 18.9375C22.9826 18.386 24.6986 19.1213 25.3113 20.6535C25.9243 22.2468 25.0663 23.9017 23.5952 24.4531Z" fill="#0CB4C4"></path></svg>