<svg width="59" height="60" viewBox="0 0 59 60" fill="none" xmlns="http://www.w3.org/2000/svg"><path d="M13.0001 25C11.9394 25.0009 10.9229 25.4228 10.1729 26.1728C9.42297 26.9228 9.00103 27.9393 9.00011 29V38C9.001 39.0607 9.42288 40.0773 10.1729 40.8272C10.9229 41.5771 11.9394 41.9991 13.0001 42H23.0001C24.0608 41.9991 25.0774 41.5772 25.8273 40.8272C26.5773 40.0772 26.9992 39.0607 27.0001 38V29C26.9992 27.9393 26.5773 26.9227 25.8273 26.1728C25.0773 25.4229 24.0608 25.0009 23.0001 25H13.0001ZM16.0001 27H20.0001V29C19.9997 29.5522 19.5523 29.9996 19.0001 30H17.0001C16.4479 29.9996 16.0006 29.5522 16.0001 29V27ZM25.0001 29V38C24.9992 38.5304 24.7885 39.0384 24.4135 39.4134C24.0385 39.7884 23.5305 39.9991 23.0001 40H13.0001C12.4698 39.9991 11.9617 39.7884 11.5868 39.4134C11.2118 39.0384 11.001 38.5303 11.0002 38V29C11.0011 28.4696 11.2118 27.9616 11.5868 27.5866C11.9618 27.2116 12.4698 27.0009 13.0001 27H14.0001V29C14.001 29.7956 14.3175 30.5581 14.8796 31.1206C15.4421 31.6827 16.2046 31.9992 17.0002 32.0001H19.0002C19.7957 31.9992 20.5582 31.6827 21.1207 31.1206C21.6828 30.5581 21.9993 29.7956 22.0002 29V27H23.0002C23.5306 27.0009 24.0386 27.2116 24.4136 27.5866C24.7886 27.9616 24.9992 28.4697 25.0001 29Z" fill="#0CB4C4"></path><path d="M17.0001 36H14.0001C13.4532 36.0076 13.014 36.4531 13.014 37C13.014 37.5469 13.4532 37.9924 14.0001 38H17.0001C17.547 37.9924 17.9863 37.5469 17.9863 37C17.9863 36.4531 17.547 36.0076 17.0001 36Z" fill="#0CB4C4"></path><path d="M35.0001 44C34.7349 44 34.4805 44.1054 34.293 44.2929C34.1055 44.4804 34.0001 44.7348 34.0001 45V55C33.9992 55.7955 33.6827 56.5581 33.1206 57.1206C32.5581 57.6826 31.7956 57.9991 31.0001 58H5.00006C4.20453 57.9991 3.44201 57.6826 2.87949 57.1206C2.31743 56.5581 2.00092 55.7955 2.00003 55V9C2.00092 8.20447 2.31743 7.44194 2.87949 6.87943C3.44199 6.31737 4.20452 6.00086 5.00006 5.99997H10.0001C9.97372 6.66737 9.99604 7.33574 10.0666 7.99997H5.00007C4.73489 7.99997 4.48042 8.10532 4.29292 8.29282C4.10543 8.48032 4.00007 8.73479 4.00007 8.99997V53C4.00007 53.2651 4.10542 53.5196 4.29292 53.7071C4.48042 53.8946 4.73489 54 5.00007 54H31.0001C31.2652 54 31.5197 53.8946 31.7072 53.7071C31.8947 53.5196 32.0001 53.2651 32.0001 53V45C31.9929 44.4531 31.5474 44.0134 31.0001 44.0134C30.4527 44.0134 30.0072 44.4531 30.0001 45V52H6.00007V9.99997H11.1612C11.8358 10.6401 12.7296 10.9982 13.6594 11H22.3411C23.271 10.9982 24.1643 10.6401 24.8388 9.99997H30V39C30 39.5522 30.4477 40 31 40C31.5522 40 32 39.5522 32 39V8.99997C32 8.73479 31.8946 8.48032 31.7071 8.29282C31.5196 8.10533 31.2651 7.99997 31 7.99997H25.9334C26.004 7.33568 26.0263 6.66739 26 5.99997H31C31.7955 6.00086 32.558 6.31737 33.1205 6.87943C33.6826 7.44193 33.9991 8.20446 34 9V39C34.0085 39.5464 34.4536 39.9848 35 39.9844C35.5464 39.9844 35.9915 39.546 36 39V9C35.9987 7.67451 35.471 6.40354 34.5339 5.46606C33.5964 4.52901 32.3255 4.00137 31 4H5C3.67452 4.00134 2.40354 4.52902 1.46606 5.46606C0.529006 6.40355 0.00137143 7.67451 0 9V55C0.00133931 56.3255 0.529018 57.5965 1.46606 58.5339C2.40355 59.471 3.67452 59.9986 5 60H31C32.3255 59.9987 33.5965 59.471 34.5339 58.5339C35.471 57.5964 35.9986 56.3255 36 55V45C36 44.7348 35.8946 44.4804 35.7071 44.2929C35.5196 44.1054 35.2653 44 35.0001 44ZM12.0001 6H24.0001V7.34057C23.9997 7.78075 23.8246 8.20263 23.5135 8.51337C23.2028 8.82454 22.7809 8.99953 22.3407 8.99998H13.6594C13.2193 8.99953 12.7974 8.82453 12.4866 8.51337C12.1755 8.20265 12.0005 7.78078 12 7.34057L12.0001 6Z" fill="#0CB4C4"></path><path d="M16.0001 55C15.4532 55.0076 15.014 55.4531 15.014 56C15.014 56.5469 15.4532 56.9924 16.0001 57H20.0001C20.547 56.9924 20.9863 56.5469 20.9863 56C20.9863 55.4531 20.547 55.0076 20.0001 55H16.0001Z" fill="#0CB4C4"></path><path d="M29.0001 41C28.4532 41.0076 28.014 41.4531 28.014 42C28.014 42.5469 28.4532 42.9924 29.0001 43H30.5001C31.047 42.9924 31.4863 42.5469 31.4863 42C31.4863 41.4531 31.047 41.0076 30.5001 41H29.0001Z" fill="#0CB4C4"></path><path d="M40.0492 24.2663C40.3698 24.2672 40.6707 24.1141 40.859 23.8551C41.3515 23.177 42.0234 22.6493 42.7993 22.3319C43.3024 22.1176 43.5403 21.5395 43.3336 21.0338C43.1269 20.5275 42.5524 20.2811 42.0435 20.4802C40.7992 20.8663 37.3326 23.5998 40.0492 24.2663Z" fill="#0CB4C4"></path><path d="M50.3098 39.2468C49.8491 39.9263 49.1897 40.4473 48.4223 40.7393C47.9062 40.9362 47.6477 41.5143 47.8442 42.0304C48.7535 43.7974 51.2875 41.371 51.9624 40.3742C52.2602 39.9184 52.1388 39.3076 51.6888 39.0004C51.2388 38.6937 50.6258 38.8031 50.3098 39.2468Z" fill="#0CB4C4"></path><path d="M46.6493 31C46.0935 30.9884 44.2828 31.0442 43.7617 30.9393C43.2206 30.8589 42.7149 31.2281 42.6269 31.7678C42.539 32.3076 42.9006 32.8183 43.439 32.9138C44.5064 33.0062 45.5783 33.0352 46.6492 33C47.1957 32.9924 47.635 32.5468 47.635 32C47.635 31.4531 47.1957 31.0076 46.6493 31Z" fill="#0CB4C4"></path><path d="M51.0618 32.5829C50.6533 32.2217 50.0315 32.2539 49.6627 32.6552C49.294 33.0565 49.3141 33.6793 49.7083 34.0556C50.3132 34.6092 50.7319 35.3364 50.9074 36.1374C51.0319 36.67 51.5609 37.0034 52.0949 36.8865C52.6288 36.7695 52.9699 36.2454 52.8605 35.7097C52.598 34.5066 51.9698 33.4145 51.0618 32.5829Z" fill="#0CB4C4"></path><path d="M44.7476 41H41.6949C41.1484 41.0076 40.7092 41.4531 40.7092 42C40.7092 42.5469 41.1484 42.9924 41.6949 43H44.7476C45.2944 42.9924 45.7337 42.5469 45.7337 42C45.7337 41.4531 45.2944 41.0076 44.7476 41Z" fill="#0CB4C4"></path><path d="M37.623 41H34.5698C34.0234 41.0076 33.5841 41.4531 33.5841 42C33.5841 42.5469 34.0234 42.9924 34.5698 43H37.623C38.1694 42.9924 38.6087 42.5469 38.6087 42C38.6087 41.4531 38.1694 41.0076 37.623 41Z" fill="#0CB4C4"></path><path d="M40.9635 29.2811C40.4443 28.6235 40.1202 27.8334 40.0278 27.0008C39.9591 26.4588 39.468 26.0722 38.9251 26.1325C38.3823 26.1927 37.9881 26.6776 38.0394 27.2218C38.1738 28.4248 38.6421 29.5664 39.3912 30.5173C39.7332 30.9503 40.3608 31.0249 40.7943 30.6838C41.2278 30.3432 41.3037 29.7154 40.9635 29.2811Z" fill="#0CB4C4"></path><path d="M48.0001 22C48.547 21.9924 48.9863 21.5469 48.9863 21C48.9863 20.4531 48.547 20.0076 48.0001 20H46.5001C45.9532 20.0076 45.514 20.4531 45.514 21C45.514 21.5469 45.9532 21.9924 46.5001 22H48.0001Z" fill="#0CB4C4"></path><path d="M50.0001 0C47.6469 0.00267863 45.3912 0.938834 43.7273 2.60229C42.0639 4.26617 41.1277 6.52194 41.125 8.87508C41.125 15.0099 49.162 19.6728 49.504 19.8683C49.8111 20.0438 50.1888 20.0438 50.4959 19.8683C50.8379 19.6733 58.8749 15.0098 58.8749 8.87508C58.8722 6.52194 57.9361 4.26617 56.2726 2.60229C54.6087 0.938857 52.3532 0.00274286 50.0001 0ZM50.0001 17.8251C48.3448 16.7635 43.1251 13.0809 43.1251 8.8752C43.1251 6.41897 44.4354 4.14926 46.5626 2.92114C48.6898 1.69303 51.3104 1.69303 53.4376 2.92114C55.5648 4.14926 56.8751 6.41886 56.8751 8.8752C56.8751 13.0815 51.6554 16.764 50.0001 17.8251Z" fill="#0CB4C4"></path><path d="M50.0001 5C48.5795 5.0125 47.2724 5.77768 46.5657 7.01029C45.859 8.24289 45.859 9.75714 46.5657 10.9897C47.2724 12.2223 48.5795 12.9874 50.0001 13C51.4207 12.9875 52.7278 12.2223 53.4345 10.9897C54.1412 9.75711 54.1412 8.24286 53.4345 7.01029C52.7278 5.77771 51.4207 5.01257 50.0001 5ZM50.0001 11C49.2912 10.992 48.6394 10.6089 48.2872 9.9933C47.935 9.37813 47.935 8.62187 48.2872 8.00667C48.6394 7.39105 49.2912 7.00801 50.0001 6.99998C50.709 7.00801 51.3608 7.39105 51.713 8.00667C52.0652 8.62185 52.0652 9.3781 51.713 9.9933C51.3608 10.6089 50.709 10.992 50.0001 11Z" fill="#0CB4C4"></path></svg>