<svg width="60" height="60" viewBox="0 0 60 60" fill="none" xmlns="http://www.w3.org/2000/svg"><path d="M59 34H52V11C52 10.8205 51.9518 10.6442 51.8598 10.4902L45.8598 0.490196C45.6812 0.184836 45.3535 -0.00177015 45 1.2702e-05H7C6.64642 -0.00177301 6.31875 0.184836 6.14018 0.490196L0.140183 10.4902C0.0482183 10.6442 0 10.8205 0 11V53C0 53.2652 0.105358 53.5196 0.292857 53.7071C0.480356 53.8946 0.734822 54 0.999999 54H26V59C26 59.2652 26.1053 59.5196 26.2928 59.7071C26.4803 59.8946 26.7348 60 27 60H59C59.2651 60 59.5196 59.8946 59.7071 59.7071C59.8946 59.5196 60 59.2652 60 59V35C60 34.7348 59.8946 34.4804 59.7071 34.2929C59.5196 34.1054 59.2651 34 59 34ZM44.4297 2.00001L49.2297 10H32.8194L31.2194 2.00001H44.4297ZM22.8194 2.00001H29.1792L30.7792 10H21.2194L22.8194 2.00001ZM20.9993 12H30.9993V22H20.9993V12ZM7.5696 2.00001H20.7799L19.1799 10H2.7696L7.5696 2.00001ZM25.9993 35V52H1.99931V12H18.9993V23C18.9993 23.2652 19.1047 23.5197 19.2922 23.7071C19.4797 23.8946 19.7341 24 19.9993 24H31.9993C32.2645 24 32.5189 23.8946 32.7064 23.7071C32.8939 23.5197 32.9993 23.2652 32.9993 23V12H49.9993V34H26.9993C26.4471 34 25.9993 34.4478 25.9993 35ZM57.9993 58H27.9993V36H57.9993V58Z" fill="#0CB4C4"></path><path d="M44 38H46V52H44V38Z" fill="#0CB4C4"></path><path d="M44 54H46V55.9999H44V54Z" fill="#0CB4C4"></path><path d="M47 38H48.9999V52H47V38Z" fill="#0CB4C4"></path><path d="M47 54H48.9999V55.9999H47V54Z" fill="#0CB4C4"></path><path d="M51 38H53V52H51V38Z" fill="#0CB4C4"></path><path d="M51 54H53V55.9999H51V54Z" fill="#0CB4C4"></path><path d="M54 38H56V55.9999H54V38Z" fill="#0CB4C4"></path><path d="M41 38H42.9999V52H41V38Z" fill="#0CB4C4"></path><path d="M41 54H42.9999V55.9999H41V54Z" fill="#0CB4C4"></path><path d="M37 38H38.9999V52H37V38Z" fill="#0CB4C4"></path><path d="M37 54H38.9999V55.9999H37V54Z" fill="#0CB4C4"></path><path d="M34 38H36V52H34V38Z" fill="#0CB4C4"></path><path d="M34 54H36V55.9999H34V54Z" fill="#0CB4C4"></path><path d="M30 38H32V55.9999H30V38Z" fill="#0CB4C4"></path><path d="M23 36H5C4.44777 36 4 36.4478 4 37V49C4 49.2652 4.10536 49.5196 4.29285 49.7071C4.48035 49.8946 4.73482 50 5 50H23C23.2652 50 23.5196 49.8946 23.7071 49.7071C23.8946 49.5196 24 49.2652 24 49V37C24 36.7348 23.8946 36.4803 23.7071 36.2928C23.5196 36.1053 23.2652 36 23 36ZM22 48H6V38H22V48Z" fill="#0CB4C4"></path><path d="M9 42H10C10.5522 42 11 41.5522 11 41C11 40.4478 10.5522 40 10 40H9C8.44777 40 8 40.4478 8 41C8 41.5522 8.44777 42 9 42Z" fill="#0CB4C4"></path><path d="M13 42H19C19.5522 42 20 41.5522 20 41C20 40.4478 19.5522 40 19 40H13C12.4478 40 12 40.4478 12 41C12 41.5522 12.4478 42 13 42Z" fill="#0CB4C4"></path><path d="M9 45.9999H10C10.5522 45.9999 11 45.5522 11 45C11 44.4477 10.5522 44 10 44H9C8.44777 44 8 44.4477 8 45C8 45.5522 8.44777 45.9999 9 45.9999Z" fill="#0CB4C4"></path><path d="M13 45.9999H19C19.5522 45.9999 20 45.5522 20 45C20 44.4477 19.5522 44 19 44H13C12.4478 44 12 44.4477 12 45C12 45.5522 12.4478 45.9999 13 45.9999Z" fill="#0CB4C4"></path><path d="M7.70729 26.7076L9.00009 25.4144V33.0005C9.00009 33.5528 9.44786 34.0005 10.0001 34.0005C10.5523 34.0005 11.0001 33.5528 11.0001 33.0005V25.4144L12.2929 26.7072C12.6853 27.0862 13.309 27.0808 13.6947 26.6951C14.0805 26.3094 14.0862 25.6857 13.7072 25.2933L10.7072 22.2933C10.3166 21.9031 9.68356 21.9031 9.29293 22.2933L6.29293 25.2933C5.91391 25.6857 5.91972 26.3093 6.30543 26.6951C6.69114 27.0809 7.31483 27.0866 7.70729 26.7076Z" fill="#0CB4C4"></path></svg>