<svg width="60" height="60" viewBox="0 0 60 60" fill="none" xmlns="http://www.w3.org/2000/svg"><path d="M58.8462 13.8461H1.15388C0.516692 13.8461 3.21944e-05 13.3295 3.21944e-05 12.6923V6.92305C0.00106235 6.00513 0.366269 5.12529 1.0148 4.47624C1.66384 3.82771 2.54368 3.4625 3.46161 3.46147H5.7693C6.40649 3.46147 6.92315 3.97813 6.92315 4.61532C6.92315 5.25251 6.40649 5.76917 5.7693 5.76917H3.46161C2.82442 5.76968 2.30828 6.28583 2.30777 6.92301V11.5384H57.6924V6.92301C57.6919 6.28583 57.1757 5.76968 56.5385 5.76917H54.2309C53.5937 5.76917 53.077 5.25251 53.077 4.61532C53.077 3.97813 53.5937 3.46147 54.2309 3.46147H56.5385C57.4565 3.4625 58.3363 3.82771 58.9854 4.47624C59.6339 5.12528 59.9991 6.00512 60.0001 6.92305V12.6923C60.0001 12.9983 59.8786 13.2919 59.6622 13.5082C59.4459 13.7246 59.1522 13.8461 58.8462 13.8461Z" fill="#0CB4C4"></path><path d="M49.6154 5.76923H32.3077C31.6705 5.76923 31.1539 5.25257 31.1539 4.61539C31.1539 3.9782 31.6705 3.46154 32.3077 3.46154H49.6154C50.2526 3.46154 50.7693 3.9782 50.7693 4.61539C50.7693 5.25257 50.2526 5.76923 49.6154 5.76923Z" fill="#0CB4C4"></path><path d="M27.6923 5.76923H10.3846C9.74746 5.76923 9.2308 5.25257 9.2308 4.61539C9.2308 3.9782 9.74746 3.46154 10.3846 3.46154H27.6923C28.3295 3.46154 28.8462 3.9782 28.8462 4.61539C28.8462 5.25257 28.3295 5.76923 27.6923 5.76923Z" fill="#0CB4C4"></path><path d="M56.5385 60H3.46158C2.54366 59.999 1.66382 59.6337 1.01477 58.9852C0.366238 58.3362 0.00102857 57.4563 0 56.5384L3.21944e-05 12.6923C3.21944e-05 12.0551 0.516658 11.5384 1.15385 11.5384H58.8462C59.1521 11.5384 59.4458 11.66 59.6621 11.8763C59.8784 12.0927 60.0001 12.3863 60.0001 12.6923L60 56.5384C59.999 57.4563 59.6338 58.3362 58.9852 58.9852C58.3362 59.6337 57.4564 59.999 56.5385 60ZM2.30773 13.8461V56.5384C2.30825 57.1756 2.82439 57.6918 3.46158 57.6923H56.5385C57.1757 57.6918 57.6918 57.1756 57.6924 56.5384V13.8461H2.30773Z" fill="#0CB4C4"></path><path d="M8.07696 9.23076C7.15904 9.22973 6.27921 8.86452 5.63015 8.216C4.98162 7.56695 4.61641 6.68712 4.61539 5.76918V3.46149C4.61539 2.22471 5.27524 1.08219 6.34615 0.463599C7.41707 -0.154533 8.73679 -0.154533 9.80769 0.463599C10.8786 1.08225 11.5385 2.2247 11.5385 3.46149V5.76918C11.5374 6.6871 11.1722 7.56694 10.5237 8.216C9.87466 8.86452 8.9949 9.22973 8.07696 9.23076ZM8.07696 2.30768C7.43978 2.3082 6.92363 2.82434 6.92312 3.46153V5.76922C6.92312 6.40641 7.43978 6.92307 8.07696 6.92307C8.71415 6.92307 9.23081 6.40641 9.23081 5.76922V3.46153C9.2303 2.82434 8.71415 2.3082 8.07696 2.30768Z" fill="#0CB4C4"></path><path d="M30 9.23076C29.0821 9.22973 28.2023 8.86452 27.5532 8.216C26.9047 7.56695 26.5395 6.68712 26.5385 5.76918V3.46149C26.5385 2.22471 27.1983 1.08219 28.2692 0.463599C29.3402 -0.154533 30.6599 -0.154533 31.7308 0.463599C32.8017 1.08225 33.4615 2.2247 33.4615 3.46149V5.76918C33.4605 6.6871 33.0953 7.56694 32.4468 8.216C31.7977 8.86452 30.918 9.22973 30 9.23076ZM30 2.30768C29.3629 2.3082 28.8467 2.82434 28.8462 3.46153V5.76922C28.8462 6.40641 29.3629 6.92307 30 6.92307C30.6372 6.92307 31.1539 6.40641 31.1539 5.76922V3.46153C31.1534 2.82434 30.6372 2.3082 30 2.30768Z" fill="#0CB4C4"></path><path d="M51.9231 9.23076C51.0052 9.22973 50.1254 8.86452 49.4763 8.216C48.8278 7.56695 48.4626 6.68712 48.4615 5.76918V3.46149C48.4615 2.22471 49.1214 1.08219 50.1923 0.463599C51.2632 -0.154533 52.583 -0.154533 53.6539 0.463599C54.7248 1.08225 55.3846 2.2247 55.3846 3.46149V5.76918C55.3836 6.6871 55.0184 7.56694 54.3699 8.216C53.7208 8.86452 52.8411 9.22973 51.9231 9.23076ZM51.9231 2.30768C51.2859 2.3082 50.7698 2.82434 50.7693 3.46153V5.76922C50.7693 6.40641 51.2859 6.92307 51.9231 6.92307C52.5603 6.92307 53.077 6.40641 53.077 5.76922V3.46153C53.0765 2.82434 52.5603 2.3082 51.9231 2.30768Z" fill="#0CB4C4"></path><path d="M48.4616 55.3846H5.76926C5.13208 55.3846 4.61542 54.868 4.61542 54.2308V12.6923C4.61542 12.0551 5.13208 11.5385 5.76926 11.5385H54.2308C54.5368 11.5385 54.8304 11.66 55.0467 11.8764C55.2631 12.0927 55.3847 12.3863 55.3847 12.6923V48.4615C55.3847 48.7675 55.2631 49.0611 55.0467 49.2775L49.2775 55.0467C49.0612 55.2631 48.7676 55.3846 48.4616 55.3846ZM6.92311 53.0769H47.9842L53.0776 47.9835V13.8455H6.92377L6.92311 53.0769Z" fill="#0CB4C4"></path><path d="M47.3077 55.3846C46.6705 55.3846 46.1539 54.868 46.1539 54.2308V47.3077C46.1539 46.6705 46.6705 46.1539 47.3077 46.1539H54.2308C54.868 46.1539 55.3847 46.6705 55.3847 47.3077C55.3847 47.9449 54.868 48.4615 54.2308 48.4615H48.4616V54.2308C48.4616 54.5367 48.34 54.8304 48.1237 55.0467C47.9073 55.2631 47.6137 55.3846 47.3077 55.3846Z" fill="#0CB4C4"></path><path d="M38.2497 45H21.7504C20.7552 44.9984 19.814 44.5472 19.1898 43.7719C18.5655 42.9967 18.3254 41.9809 18.5366 41.0084C18.7478 40.0359 19.3876 39.2106 20.2771 38.764C20.2988 38.7527 20.3194 38.7439 20.3415 38.7346C20.6058 38.5713 20.7675 38.2839 20.7696 37.9728V26.8732C20.7789 24.2477 21.8451 21.737 23.7279 19.9068C25.4778 18.1885 27.8483 17.2504 30.3002 17.3076C32.6955 17.3874 34.9661 18.3945 36.6325 20.117C38.299 21.8396 39.2307 24.1421 39.2313 26.5384V37.9728C39.2333 38.2839 39.3951 38.5713 39.6593 38.7346C39.6825 38.7434 39.7031 38.7537 39.7247 38.764C40.6143 39.2106 41.2536 40.0358 41.4647 41.0084C41.6754 41.9809 41.4354 42.9972 40.8111 43.7719C40.1873 44.5472 39.2449 44.9989 38.2497 45ZM21.2467 40.861C20.9499 41.0418 20.7686 41.3643 20.7686 41.7115C20.7691 42.2528 21.208 42.6917 21.7494 42.6922H38.2487C38.7906 42.6922 39.2295 42.2534 39.2295 41.7115C39.2295 41.3638 39.0482 41.0408 38.7505 40.8605C38.7232 40.8492 38.6974 40.8373 38.6716 40.8244C38.1442 40.5587 37.7012 40.1507 37.3921 39.6469C37.083 39.1436 36.9203 38.5636 36.9218 37.9728V26.5384C36.9507 24.7258 36.2563 22.9764 34.9927 21.6774C33.7287 20.3777 31.9995 19.635 30.1868 19.6134C28.3741 19.5922 26.6274 20.2933 25.3334 21.5625C23.8972 22.9574 23.0835 24.8716 23.0757 26.8732V37.9734C23.0772 38.5647 22.9144 39.1437 22.6054 39.6474C22.2963 40.1507 21.8533 40.5587 21.3258 40.825C21.3001 40.8384 21.274 40.8507 21.2467 40.861Z" fill="#0CB4C4"></path><path d="M30 49.6154C28.7761 49.6143 27.6032 49.1276 26.7379 48.2621C25.8726 47.3967 25.3857 46.2238 25.3847 45C25.3816 44.4632 25.4789 43.9306 25.6711 43.4294C25.8431 42.9854 26.2701 42.6923 26.7461 42.6923H33.254C33.7305 42.6923 34.1581 42.9849 34.3301 43.4294C34.5217 43.9306 34.6186 44.4632 34.6155 45C34.6145 46.2239 34.1277 47.3968 33.2623 48.2621C32.3968 49.1275 31.2239 49.6143 30 49.6154ZM27.6924 45C27.6924 45.8247 28.1322 46.5865 28.8462 46.9986C29.5601 47.4107 30.44 47.4107 31.1539 46.9986C31.8678 46.5865 32.3077 45.8246 32.3077 45H27.6924Z" fill="#0CB4C4"></path><path d="M16.3398 28.9358H12.8783C12.2411 28.9358 11.7245 28.4191 11.7245 27.7819C11.7245 27.1448 12.2411 26.6281 12.8783 26.6281H16.3398C16.977 26.6281 17.4937 27.1448 17.4937 27.7819C17.4937 28.4191 16.977 28.9358 16.3398 28.9358Z" fill="#0CB4C4"></path><path d="M17.3249 24.0303C17.1719 24.0303 17.0204 24 16.8798 23.9402L13.6877 22.6029C13.3961 22.4911 13.1623 22.2655 13.0397 21.9786C12.9171 21.6917 12.916 21.3672 13.0366 21.0792C13.1571 20.7918 13.3894 20.5646 13.6799 20.4508C13.9705 20.337 14.295 20.3457 14.5788 20.475L17.7709 21.8128C18.2773 22.0256 18.5637 22.5654 18.455 23.1042C18.3468 23.6425 17.874 24.0298 17.3249 24.0303Z" fill="#0CB4C4"></path><path d="M14.1337 35.1785C13.5846 35.178 13.1117 34.7906 13.003 34.2523C12.8948 33.7135 13.1812 33.1737 13.6876 32.9609L16.8797 31.6231C17.1635 31.4938 17.4881 31.4851 17.7786 31.5994C18.0691 31.7133 18.3009 31.9399 18.4214 32.2274C18.542 32.5153 18.5409 32.8398 18.4183 33.1267C18.2957 33.4137 18.0624 33.6388 17.7708 33.7505L14.5787 35.0878C14.4381 35.1481 14.2867 35.1785 14.1337 35.1785Z" fill="#0CB4C4"></path><path d="M47.1231 28.9358H43.6616C43.0239 28.9358 42.5077 28.4191 42.5077 27.7819C42.5077 27.1448 43.0239 26.6281 43.6616 26.6281H47.1231C47.7603 26.6281 48.277 27.1448 48.277 27.7819C48.277 28.4191 47.7603 28.9358 47.1231 28.9358Z" fill="#0CB4C4"></path><path d="M42.6739 24.0303C42.1248 24.0298 41.6519 23.6425 41.5437 23.1042C41.435 22.5654 41.7214 22.0255 42.2278 21.8128L45.421 20.475C46.0046 20.2458 46.6645 20.5244 46.9071 21.1024C47.1492 21.6809 46.886 22.3469 46.3137 22.6024L43.12 23.9402C42.9789 23.9999 42.8274 24.0303 42.6739 24.0303Z" fill="#0CB4C4"></path><path d="M45.8677 35.1784C45.7147 35.1784 45.5628 35.148 45.4217 35.0883L42.2285 33.7505C41.6567 33.4945 41.3935 32.8289 41.6356 32.251C41.8782 31.6736 42.5375 31.3944 43.1207 31.6231L46.3139 32.9609C46.8202 33.1736 47.1066 33.7135 46.9984 34.2523C46.8903 34.7906 46.4174 35.1779 45.8677 35.1784Z" fill="#0CB4C4"></path></svg>