<svg width="61" height="60" viewBox="0 0 61 60" fill="none" xmlns="http://www.w3.org/2000/svg"><path d="M57.4473 30H56.5098V5.625H57.4473C58.1932 5.625 58.9086 5.32868 59.436 4.80124C59.9635 4.27379 60.2598 3.55842 60.2598 2.8125C60.2598 2.06658 59.9635 1.35121 59.436 0.823762C58.9086 0.296316 58.1932 1.11151e-08 57.4473 0H3.07227C2.32634 1.11151e-08 1.61097 0.296316 1.08353 0.823762C0.556082 1.35121 0.259766 2.06658 0.259766 2.8125C0.259766 3.55842 0.556082 4.27379 1.08353 4.80124C1.61097 5.32868 2.32634 5.625 3.07227 5.625H4.00977V30H3.07227C2.32634 30 1.61097 30.2963 1.08353 30.8238C0.556082 31.3512 0.259766 32.0666 0.259766 32.8125C0.259766 33.5584 0.556082 34.2738 1.08353 34.8012C1.61097 35.3287 2.32634 35.625 3.07227 35.625H57.4473C58.1932 35.625 58.9086 35.3287 59.436 34.8012C59.9635 34.2738 60.2598 33.5584 60.2598 32.8125C60.2598 32.0666 59.9635 31.3512 59.436 30.8238C58.9086 30.2963 58.1932 30 57.4473 30ZM2.13477 2.8125C2.13477 2.56386 2.23354 2.3254 2.40935 2.14959C2.58517 1.97377 2.82363 1.875 3.07227 1.875H57.4473C57.6959 1.875 57.9344 1.97377 58.1102 2.14959C58.286 2.3254 58.3848 2.56386 58.3848 2.8125C58.3848 3.06114 58.286 3.2996 58.1102 3.47541C57.9344 3.65123 57.6959 3.75 57.4473 3.75H3.07227C2.82363 3.75 2.58517 3.65123 2.40935 3.47541C2.23354 3.2996 2.13477 3.06114 2.13477 2.8125ZM5.88477 5.625H54.6348V30H5.88477V5.625ZM57.4473 33.75H3.07227C2.82363 33.75 2.58517 33.6512 2.40935 33.4754C2.23354 33.2996 2.13477 33.0611 2.13477 32.8125C2.13477 32.5639 2.23354 32.3254 2.40935 32.1496C2.58517 31.9738 2.82363 31.875 3.07227 31.875H57.4473C57.6959 31.875 57.9344 31.9738 58.1102 32.1496C58.286 32.3254 58.3848 32.5639 58.3848 32.8125C58.3848 33.0611 58.286 33.2996 58.1102 33.4754C57.9344 33.6512 57.6959 33.75 57.4473 33.75Z" fill="#0CB4C4"></path><path d="M57.4473 54.375H56.5098C56.5084 52.9344 56.0921 51.5246 55.3107 50.3143C54.5293 49.1039 53.4159 48.1443 52.1035 47.55C52.6037 47.117 53.005 46.5815 53.28 45.9797C53.555 45.378 53.6973 44.7241 53.6973 44.0625C53.6973 42.8193 53.2034 41.627 52.3243 40.7479C51.4453 39.8689 50.253 39.375 49.0098 39.375C47.7666 39.375 46.5743 39.8689 45.6952 40.7479C44.8161 41.627 44.3223 42.8193 44.3223 44.0625C44.3223 44.7241 44.4646 45.378 44.7396 45.9797C45.0146 46.5815 45.4158 47.117 45.916 47.55C44.6036 48.1443 43.4902 49.1039 42.7088 50.3143C41.9274 51.5246 41.5111 52.9344 41.5098 54.375H37.7598C37.7584 52.9344 37.3421 51.5246 36.5607 50.3143C35.7793 49.1039 34.6659 48.1443 33.3535 47.55C33.8537 47.117 34.255 46.5815 34.53 45.9797C34.805 45.378 34.9473 44.7241 34.9473 44.0625C34.9473 42.8193 34.4534 41.627 33.5743 40.7479C32.6953 39.8689 31.503 39.375 30.2598 39.375C29.0166 39.375 27.8243 39.8689 26.9452 40.7479C26.0661 41.627 25.5723 42.8193 25.5723 44.0625C25.5723 44.7241 25.7146 45.378 25.9896 45.9797C26.2646 46.5815 26.6658 47.117 27.166 47.55C25.8536 48.1443 24.7402 49.1039 23.9588 50.3143C23.1774 51.5246 22.7611 52.9344 22.7598 54.375H19.0098C19.0084 52.9344 18.5921 51.5246 17.8107 50.3143C17.0293 49.1039 15.9159 48.1443 14.6035 47.55C15.1037 47.117 15.505 46.5815 15.78 45.9797C16.055 45.378 16.1973 44.7241 16.1973 44.0625C16.1973 42.8193 15.7034 41.627 14.8243 40.7479C13.9453 39.8689 12.753 39.375 11.5098 39.375C10.2666 39.375 9.07428 39.8689 8.1952 40.7479C7.31613 41.627 6.82227 42.8193 6.82227 44.0625C6.82226 44.7241 6.96458 45.378 7.23957 45.9797C7.51456 46.5815 7.91579 47.117 8.41602 47.55C7.10365 48.1443 5.9902 49.1039 5.20881 50.3143C4.42742 51.5246 4.01115 52.9344 4.00977 54.375H3.07227C2.32634 54.375 1.61097 54.6713 1.08353 55.1988C0.556082 55.7262 0.259766 56.4416 0.259766 57.1875C0.259766 57.9334 0.556082 58.6488 1.08353 59.1762C1.61097 59.7037 2.32634 60 3.07227 60H57.4473C58.1932 60 58.9086 59.7037 59.436 59.1762C59.9635 58.6488 60.2598 57.9334 60.2598 57.1875C60.2598 56.4416 59.9635 55.7262 59.436 55.1988C58.9086 54.6713 58.1932 54.375 57.4473 54.375ZM49.0098 41.25C49.566 41.25 50.1098 41.415 50.5723 41.724C51.0348 42.033 51.3953 42.4723 51.6082 42.9862C51.821 43.5001 51.8767 44.0656 51.7682 44.6112C51.6597 45.1568 51.3918 45.6579 50.9985 46.0512C50.6052 46.4446 50.104 46.7124 49.5585 46.821C49.0129 46.9295 48.4474 46.8738 47.9335 46.6609C47.4196 46.448 46.9803 46.0876 46.6713 45.625C46.3622 45.1625 46.1973 44.6188 46.1973 44.0625C46.1973 43.3166 46.4936 42.6012 47.021 42.0738C47.5485 41.5463 48.2638 41.25 49.0098 41.25ZM49.0098 48.75C50.5016 48.75 51.9323 49.3426 52.9872 50.3975C54.0421 51.4524 54.6348 52.8832 54.6348 54.375H43.3848C43.3848 52.8832 43.9774 51.4524 45.0323 50.3975C46.0872 49.3426 47.5179 48.75 49.0098 48.75ZM30.2598 41.25C30.816 41.25 31.3598 41.415 31.8223 41.724C32.2848 42.033 32.6453 42.4723 32.8582 42.9862C33.071 43.5001 33.1267 44.0656 33.0182 44.6112C32.9097 45.1568 32.6418 45.6579 32.2485 46.0512C31.8552 46.4446 31.354 46.7124 30.8085 46.821C30.2629 46.9295 29.6974 46.8738 29.1835 46.6609C28.6696 46.448 28.2303 46.0876 27.9213 45.625C27.6122 45.1625 27.4473 44.6188 27.4473 44.0625C27.4473 43.3166 27.7436 42.6012 28.271 42.0738C28.7985 41.5463 29.5138 41.25 30.2598 41.25ZM30.2598 48.75C31.7516 48.75 33.1823 49.3426 34.2372 50.3975C35.2921 51.4524 35.8848 52.8832 35.8848 54.375H24.6348C24.6348 52.8832 25.2274 51.4524 26.2823 50.3975C27.3372 49.3426 28.7679 48.75 30.2598 48.75ZM11.5098 41.25C12.066 41.25 12.6098 41.415 13.0723 41.724C13.5348 42.033 13.8953 42.4723 14.1082 42.9862C14.321 43.5001 14.3767 44.0656 14.2682 44.6112C14.1597 45.1568 13.8918 45.6579 13.4985 46.0512C13.1052 46.4446 12.604 46.7124 12.0585 46.821C11.5129 46.9295 10.9474 46.8738 10.4335 46.6609C9.91955 46.448 9.4803 46.0876 9.17126 45.625C8.86222 45.1625 8.69727 44.6188 8.69727 44.0625C8.69727 43.3166 8.99358 42.6012 9.52103 42.0738C10.0485 41.5463 10.7638 41.25 11.5098 41.25ZM11.5098 48.75C13.0016 48.75 14.4323 49.3426 15.4872 50.3975C16.5421 51.4524 17.1348 52.8832 17.1348 54.375H5.88477C5.88477 52.8832 6.4774 51.4524 7.53229 50.3975C8.58718 49.3426 10.0179 48.75 11.5098 48.75ZM57.4473 58.125H3.07227C2.82363 58.125 2.58517 58.0262 2.40935 57.8504C2.23354 57.6746 2.13477 57.4361 2.13477 57.1875C2.13477 56.9389 2.23354 56.7004 2.40935 56.5246C2.58517 56.3488 2.82363 56.25 3.07227 56.25H57.4473C57.6959 56.25 57.9344 56.3488 58.1102 56.5246C58.286 56.7004 58.3848 56.9389 58.3848 57.1875C58.3848 57.4361 58.286 57.6746 58.1102 57.8504C57.9344 58.0262 57.6959 58.125 57.4473 58.125Z" fill="#0CB4C4"></path><path d="M43.7504 14.1377L30.6254 8.51271C30.5097 8.46372 30.3854 8.43848 30.2598 8.43848C30.1341 8.43848 30.0098 8.46372 29.8941 8.51271L16.7691 14.1377C16.6704 14.1837 16.5789 14.2437 16.4973 14.3158L16.441 14.3908C16.3838 14.4484 16.3363 14.5149 16.3004 14.5877V14.6721C16.2461 14.7742 16.2111 14.8854 16.1973 15.0002V22.5002C16.1973 22.7489 16.296 22.9873 16.4719 23.1631C16.6477 23.3389 16.8861 23.4377 17.1348 23.4377C17.3834 23.4377 17.6219 23.3389 17.7977 23.1631C17.9735 22.9873 18.0723 22.7489 18.0723 22.5002V16.4252L21.8223 18.0283V24.3752C21.8224 24.5083 21.8509 24.6399 21.9059 24.7611C21.9609 24.8823 22.041 24.9905 22.141 25.0783C24.3893 27.0432 27.2739 28.1261 30.2598 28.1261C33.2457 28.1261 36.1302 27.0432 38.3785 25.0783C38.4785 24.9905 38.5587 24.8823 38.6136 24.7611C38.6686 24.6399 38.6971 24.5083 38.6973 24.3752V18.0283L43.7504 15.8627C43.9195 15.7907 44.0637 15.6705 44.1651 15.5171C44.2664 15.3638 44.3205 15.184 44.3205 15.0002C44.3205 14.8164 44.2664 14.6366 44.1651 14.4833C44.0637 14.3299 43.9195 14.2098 43.7504 14.1377ZM36.8223 23.9346C34.9636 25.4337 32.6477 26.2513 30.2598 26.2513C27.8719 26.2513 25.5559 25.4337 23.6973 23.9346V18.8346L29.8941 21.4877C30.0098 21.5367 30.1341 21.5619 30.2598 21.5619C30.3854 21.5619 30.5097 21.5367 30.6254 21.4877L36.8223 18.8346V23.9346ZM30.2598 19.6033L19.516 15.0002L30.2598 10.3971L41.0035 15.0002L30.2598 19.6033Z" fill="#0CB4C4"></path></svg>