<svg xmlns="http://www.w3.org/2000/svg" xmlns:xlink="http://www.w3.org/1999/xlink" version="1.1" id="Layer_1" x="0px" y="0px" width="60px" height="60px" viewBox="0 0 60 60" style="enable-background:new 0 0 60 60;" xml:space="preserve"><g><path style="fill:#0CB4C4;" d="M29.066,58.145H2.805c-0.521,0-0.943-0.423-0.943-0.944c0-0.002,0-0.004,0-0.006V2.806 c0-0.521,0.422-0.944,0.943-0.944h39.4c0.516,0.007,0.931,0.427,0.931,0.944v9.378c0,0.514,0.417,0.931,0.931,0.931 s0.931-0.417,0.931-0.931V2.806C44.995,1.262,43.749,0.01,42.206,0h-39.4C1.257,0.003,0.003,1.257,0,2.806v54.389 C0.003,58.743,1.257,59.997,2.805,60h26.261c0.514,0,0.931-0.417,0.931-0.931s-0.417-0.931-0.931-0.931V58.145z"></path><path style="fill:#0CB4C4;" d="M57.195,16.882H36.563c-1.548,0.003-2.802,1.257-2.805,2.805v37.507 c0.003,1.548,1.257,2.802,2.805,2.805h20.631c1.548-0.003,2.802-1.257,2.805-2.805V19.688 C59.997,18.14,58.743,16.886,57.195,16.882z M58.138,57.226c0,0.521-0.422,0.943-0.943,0.943H36.563 c-0.521,0-0.943-0.422-0.943-0.943V19.688c0-0.521,0.422-0.943,0.943-0.943l0,0h20.631c0.521,0,0.943,0.422,0.943,0.943V57.226z"></path><circle style="fill:#0CB4C4;" cx="22.499" cy="52.509" r="1.874"></circle><circle style="fill:#0CB4C4;" cx="46.879" cy="52.509" r="1.874"></circle></g></svg>