<svg width="55" height="61" viewBox="0 0 55 61" fill="none" xmlns="http://www.w3.org/2000/svg"><path d="M9.72279 25.3826H6.35938C5.66275 25.3826 5.09564 25.9497 5.09564 26.6464V30.0098C5.09564 30.7064 5.6621 31.2735 6.35938 31.2735H9.72279C10.4194 31.2735 10.9865 30.707 10.9865 30.0098V26.6464C10.9865 25.9497 10.4201 25.3826 9.72279 25.3826ZM9.28584 29.5722H6.79697V27.0833H9.28584V29.5722ZM9.72279 32.3508H6.35938C5.66275 32.3508 5.09564 32.9179 5.09564 33.6145V36.978C5.09564 37.6746 5.6621 38.2417 6.35938 38.2417H9.72279C10.4194 38.2417 10.9865 37.6746 10.9865 36.978V33.6145C10.9865 32.9179 10.4201 32.3508 9.72279 32.3508ZM9.28584 36.541H6.79697V34.0515H9.28584V36.541ZM9.72279 39.3197H6.35938C5.66275 39.3197 5.09564 39.8848 5.09564 40.5795V43.9468C5.09564 44.6415 5.6621 45.2066 6.35938 45.2066H9.72279C10.4194 45.2066 10.9865 44.6415 10.9865 43.9468V40.5795C10.9865 39.8848 10.4201 39.3197 9.72279 39.3197ZM9.28584 43.5059H6.79697V41.0203H9.28584V43.5059ZM16.8323 25.3833H13.4688C12.7722 25.3833 12.2051 25.9504 12.2051 26.647V30.0104C12.2051 30.707 12.7722 31.2742 13.4688 31.2742H16.8323C17.5289 31.2742 18.096 30.7077 18.096 30.0104V26.647C18.096 25.9504 17.5295 25.3833 16.8323 25.3833ZM16.3953 29.5728H13.9064V27.084H16.3953V29.5728ZM16.8323 32.3515H13.4688C12.7722 32.3515 12.2051 32.9186 12.2051 33.6152V36.9786C12.2051 37.6752 12.7722 38.2423 13.4688 38.2423H16.8323C17.5289 38.2423 18.096 37.6752 18.096 36.9786V33.6152C18.096 32.9186 17.5295 32.3515 16.8323 32.3515ZM16.3953 36.5417H13.9064V34.0521H16.3953V36.5417ZM16.8323 39.3203H13.4688C12.7722 39.3203 12.2051 39.8855 12.2051 40.5801V43.9475C12.2051 44.6421 12.7722 45.2073 13.4688 45.2073H16.8323C17.5289 45.2073 18.096 44.6421 18.096 43.9475V40.5801C18.096 39.8855 17.5295 39.3203 16.8323 39.3203ZM16.3953 43.5066H13.9064V41.021H16.3953V43.5066ZM53.0017 23.0468L50.8791 22.5647C50.6809 21.9518 50.4337 21.3546 50.1406 20.7803L51.2977 18.9397C51.9178 17.9605 51.872 16.9244 51.1813 16.2389L49.4937 14.548C48.8069 13.8606 47.7715 13.8148 46.7896 14.4296L44.9483 15.59C44.3753 15.2957 43.7788 15.0478 43.1659 14.8489L42.6812 12.727C42.4261 11.6006 41.6621 10.9007 40.6881 10.9007H38.2987C37.3247 10.9007 36.5607 11.6006 36.3063 12.725L35.8209 14.8489C35.208 15.0471 34.6115 15.295 34.0385 15.59L32.1952 14.429C31.216 13.8148 30.1806 13.8612 29.4925 14.5487L27.8082 16.2363C27.1148 16.9244 27.069 17.9605 27.6871 18.9384L28.8456 20.7817C28.7344 21.0001 28.6317 21.2225 28.5336 21.4469H3.31582C1.69822 21.4469 0.382812 22.7629 0.382812 24.3799V46.2139C0.382812 47.8335 1.69887 49.1509 3.31582 49.1509H13.4237V54.0017H10.804C7.9083 54.0017 5.43643 55.8332 4.92819 58.3502C4.83858 58.776 4.73719 59.2588 5.08518 59.6859C5.43185 60.1117 5.97018 60.1366 6.42348 60.1366C6.45422 60.1366 6.48496 60.1366 6.51505 60.1366C15.702 60.1294 25.0204 60.1294 34.2086 60.1366C34.6821 60.1379 35.2708 60.1405 35.6411 59.6859C35.9891 59.2588 35.8877 58.776 35.7994 58.3567C35.2898 55.8332 32.8179 54.0011 29.9222 54.0011H27.2986V49.1502H37.4098C39.0274 49.1502 40.3428 47.8328 40.3428 46.2133V41.5691H40.6868C41.6628 41.5691 42.4261 40.8692 42.6799 39.7435L43.162 37.6223C43.7716 37.4267 44.3695 37.1788 44.947 36.8825L46.7909 38.0442C47.7669 38.6557 48.8017 38.6113 49.4937 37.9245L51.18 36.2349C51.8714 35.5442 51.9159 34.5074 51.2984 33.5321L50.14 31.6895C50.4337 31.1146 50.6809 30.5187 50.8785 29.9077L53.0004 29.423C54.1267 29.1679 54.8266 28.4039 54.8266 27.43V25.0405C54.8266 24.0666 54.1267 23.3026 53.001 23.0475L53.0017 23.0468ZM34.0679 58.4346C24.9726 58.428 15.7536 58.428 6.6583 58.4346C7.12402 56.8588 8.85348 55.7011 10.804 55.7011H29.9216C31.8701 55.7011 33.5983 56.8562 34.0679 58.4346ZM25.5986 54.0004H15.1244V49.1496H17.3209V50.5886C17.3209 51.6384 18.1751 52.4927 19.225 52.4927H21.5006C22.5485 52.4927 23.4008 51.6384 23.4008 50.5886V49.1496H25.5973V54.0004H25.5986ZM19.0229 49.1496H21.7014V50.5886C21.7014 50.6985 21.6098 50.792 21.5019 50.792H19.2263C19.1184 50.792 19.0229 50.6972 19.0229 50.5886V49.1496ZM38.6434 46.2126C38.6434 46.8942 38.0907 47.4489 37.4111 47.4489H3.31582C2.63621 47.4489 2.08349 46.8942 2.08349 46.2126V24.3773C2.08349 23.6977 2.63621 23.1449 3.31582 23.1449H25.6411C24.7182 23.4668 24.1582 24.168 24.1582 25.0386V27.428C24.1582 28.402 24.8581 29.166 25.9825 29.4204L28.1064 29.9058C28.3046 30.5193 28.5519 31.1159 28.8449 31.6882L27.6885 33.5282C27.0697 34.5061 27.1148 35.5422 27.8049 36.2329L29.4944 37.9264C30.1832 38.61 31.218 38.6551 32.1959 38.0422L34.0385 36.8812C34.6128 37.1748 35.2094 37.4214 35.8196 37.6196L36.3043 39.7409C36.5581 40.8679 37.3221 41.5678 38.2974 41.5678H38.6415V46.212L38.6434 46.2126ZM53.1273 27.4287C53.1273 27.6471 52.6465 27.7583 52.6243 27.7636L50.0183 28.3595C49.7135 28.4288 49.4715 28.6604 49.3884 28.9612C49.1634 29.7743 48.8363 30.5625 48.4177 31.3036C48.264 31.5757 48.2718 31.91 48.438 32.1749L49.8613 34.4394C49.8894 34.4839 50.1321 34.8789 49.9778 35.0327L48.2934 36.7202C48.1391 36.874 47.7401 36.6313 47.6969 36.6045L45.435 35.1792C45.1694 35.0117 44.8339 35.0045 44.5618 35.1589C43.8161 35.5821 43.0285 35.9085 42.2207 36.1283C41.9172 36.2107 41.6843 36.454 41.615 36.7601L41.0224 39.3681C41.0106 39.4191 40.9033 39.8685 40.6881 39.8685H38.2987C38.0835 39.8685 37.9762 39.4197 37.9638 39.3654L37.3679 36.7595C37.2986 36.4547 37.067 36.2127 36.7661 36.1296C35.9531 35.9046 35.1649 35.5775 34.4238 35.1589C34.2936 35.0856 34.1497 35.049 34.0051 35.049C33.8475 35.049 33.6899 35.0928 33.5519 35.1798L31.2919 36.6038C31.2468 36.6319 30.8478 36.8746 30.696 36.7235L29.0084 35.0327C28.8547 34.8789 29.0974 34.4839 29.1268 34.4374L30.5489 32.1755C30.7157 31.9106 30.7228 31.575 30.5685 31.3029C30.1518 30.569 29.8254 29.7808 29.5984 28.9619C29.5147 28.661 29.2733 28.4295 28.9685 28.3601L26.3606 27.7642C26.3403 27.7597 25.8596 27.6485 25.8596 27.43V25.0405C25.8596 24.8221 26.3403 24.7109 26.3613 24.7063L28.9672 24.1143C29.2727 24.045 29.5147 23.8134 29.5984 23.5119C29.8248 22.6943 30.1512 21.9054 30.5691 21.1663C30.7228 20.8942 30.715 20.5599 30.5489 20.295L29.1255 18.0311C29.1144 18.0135 28.8528 17.5955 29.0091 17.4411L30.6954 15.7516C30.8471 15.5998 31.2468 15.8425 31.29 15.87L33.5519 17.2953C33.8174 17.4627 34.1536 17.4699 34.4264 17.3149C35.1629 16.895 35.9505 16.5679 36.7661 16.3422C37.067 16.2585 37.2986 16.0171 37.3679 15.7123L37.9638 13.1044C37.9684 13.0841 38.0796 12.6034 38.298 12.6034H40.6875C40.906 12.6034 41.0172 13.0841 41.0224 13.1064L41.6183 15.7123C41.6876 16.0171 41.9192 16.2592 42.2201 16.3422C43.0364 16.5686 43.8233 16.8956 44.5598 17.3149C44.8326 17.4699 45.1688 17.4627 45.4343 17.2953L47.6943 15.8713C47.7394 15.8432 48.1384 15.5998 48.2902 15.7516L49.9797 17.4451C50.1328 17.5968 49.8711 18.0148 49.8587 18.0344L48.4367 20.2963C48.2705 20.5606 48.2627 20.8955 48.4164 21.1676C48.8344 21.9067 49.1608 22.6962 49.3871 23.5132C49.4708 23.8147 49.7128 24.0463 50.0183 24.1156L52.6249 24.7076C52.6452 24.7122 53.126 24.8234 53.126 25.0418V27.4313L53.1273 27.4287ZM39.4938 19.1935C35.6097 19.1935 32.4497 22.3515 32.4497 26.2343C32.4497 30.117 35.6097 33.2783 39.4938 33.2783C43.3778 33.2783 46.5378 30.1184 46.5378 26.2343C46.5378 22.3502 43.3778 19.1935 39.4938 19.1935ZM39.4938 31.577C36.5477 31.577 34.1504 29.1804 34.1504 26.2336C34.1504 23.2869 36.547 20.8942 39.4938 20.8942C42.4405 20.8942 44.8371 23.2895 44.8371 26.2336C44.8371 29.1778 42.4398 31.577 39.4938 31.577ZM29.9575 40.2871C29.9575 40.7567 29.5769 41.1374 29.1072 41.1374H22.2424C21.7727 41.1374 21.392 40.7567 21.392 40.2871C21.392 39.8174 21.7727 39.4367 22.2424 39.4367H29.1072C29.5769 39.4367 29.9575 39.8174 29.9575 40.2871ZM29.9575 44.3563C29.9575 44.8259 29.5769 45.2066 29.1072 45.2066H22.2424C21.7727 45.2066 21.392 44.8259 21.392 44.3563C21.392 43.8866 21.7727 43.5059 22.2424 43.5059H29.1072C29.5769 43.5059 29.9575 43.8866 29.9575 44.3563ZM35.8857 44.3563C35.8857 44.8259 35.505 45.2066 35.0354 45.2066H31.8335C31.3639 45.2066 30.9832 44.8259 30.9832 44.3563C30.9832 43.8866 31.3639 43.5059 31.8335 43.5059H35.0354C35.505 43.5059 35.8857 43.8866 35.8857 44.3563ZM7.40856 13.3177L8.00641 14.7613C8.30011 15.4762 9.05691 15.8392 9.93014 15.6862L11.1703 15.4755C11.3849 15.7189 11.6151 15.9491 11.8578 16.165L11.6439 17.4071C11.4987 18.2784 11.8611 19.0332 12.5714 19.3315L14.0118 19.9261C14.7241 20.2224 15.5155 19.9464 16.0271 19.2229L16.7557 18.1947C17.0815 18.2143 17.4066 18.2149 17.729 18.1947L18.4571 19.2216C18.8332 19.7534 19.3597 20.0445 19.8967 20.0445C20.0897 20.0445 20.2833 20.0072 20.4724 19.9294L21.9219 19.3289C22.6322 19.0306 22.9926 18.2745 22.8409 17.4078L22.6303 16.1656C22.8729 15.9504 23.1032 15.7208 23.319 15.4788L24.5553 15.6888C25.4331 15.8418 26.1899 15.4795 26.4823 14.7672L27.0801 13.3248C27.3791 12.6119 27.1037 11.8198 26.377 11.3063L25.35 10.5809C25.3703 10.2545 25.3703 9.92873 25.35 9.6056L26.3815 8.87693C27.1024 8.36019 27.3764 7.56872 27.0821 6.86686L26.4842 5.4154C26.1879 4.70962 25.4344 4.3479 24.5612 4.49311L23.321 4.7057C23.1058 4.46172 22.8762 4.23147 22.6335 4.01627L22.8435 2.7787C22.9966 1.90547 22.6335 1.14933 21.9186 0.851707L20.473 0.251238C19.762 -0.0411468 18.9718 0.237502 18.461 0.959635L17.7323 1.98789C17.4066 1.96761 17.0815 1.96761 16.759 1.98789L16.031 0.960943C15.5214 0.240119 14.7326 -0.0385302 14.0157 0.253201L12.5786 0.849745C11.8663 1.13951 11.5006 1.89435 11.6478 2.77609L11.8604 4.01627C11.6164 4.23147 11.3862 4.46106 11.171 4.70374L9.93341 4.49377C9.06214 4.34136 8.30599 4.70177 8.00641 5.4154L7.4066 6.86359C7.11683 7.56937 7.39286 8.35822 8.11499 8.87562L9.13998 9.60102C9.12101 9.9235 9.12101 10.2492 9.13998 10.5763L8.11303 11.303C7.38698 11.8184 7.11029 12.6106 7.4066 13.317L7.40856 13.3177ZM9.09877 12.691L10.5241 11.6824C10.7792 11.5019 10.9146 11.1957 10.8766 10.885C10.8112 10.3493 10.8112 9.81492 10.8766 9.29687C10.9159 8.98551 10.7805 8.67808 10.5241 8.49689L9.10335 7.49088C9.06606 7.46406 9.03859 7.43921 9.01897 7.41893L9.54095 6.15912C9.56776 6.15912 9.60308 6.16174 9.64691 6.16893L11.3718 6.46132C11.6812 6.51365 11.9932 6.39198 12.1855 6.14473C12.5086 5.72872 12.8854 5.35326 13.3047 5.02883C13.5532 4.83652 13.6755 4.52255 13.6226 4.2125L13.3269 2.49155C13.3197 2.44773 13.3171 2.41175 13.3178 2.38428L14.5776 1.86099C14.5965 1.87931 14.6201 1.90613 14.6449 1.9421L15.6575 3.37067C15.8393 3.62708 16.1468 3.76248 16.4601 3.72258C16.9768 3.65586 17.5086 3.65651 18.0391 3.72258C18.3498 3.76182 18.6579 3.62642 18.8391 3.37067L19.8516 1.94145C19.8765 1.90613 19.9 1.87996 19.919 1.86099L21.1794 2.38428C21.1794 2.41044 21.1768 2.44576 21.1696 2.48828L20.8772 4.21316C20.8249 4.52189 20.9466 4.83456 21.1938 5.02686C21.6098 5.34999 21.9853 5.72676 22.3097 6.14604C22.502 6.3946 22.8167 6.51692 23.1261 6.46393L24.847 6.16828C24.8915 6.16108 24.9275 6.15912 24.9543 6.15912L25.475 7.42285C25.4566 7.44182 25.4311 7.46472 25.3978 7.48826L23.9692 8.49689C23.7121 8.67873 23.5761 8.98747 23.616 9.30014C23.6827 9.81688 23.6821 10.3493 23.616 10.8831C23.5774 11.1944 23.7128 11.5019 23.9692 11.683L25.3971 12.6917C25.4311 12.7159 25.4566 12.7381 25.475 12.7564L24.9517 14.0195C24.9249 14.0195 24.8895 14.0169 24.8464 14.0097L23.1248 13.7173C22.8167 13.665 22.5053 13.7853 22.313 14.0306C21.9853 14.4486 21.6072 14.826 21.1893 15.1518C20.9427 15.3441 20.821 15.6561 20.8733 15.9648L21.167 17.6943C21.1742 17.7355 21.1768 17.7695 21.1768 17.7957L19.9164 18.3176C19.8974 18.2993 19.8739 18.2725 19.8483 18.2365L18.8364 16.808C18.6755 16.581 18.4159 16.4489 18.1424 16.4489C18.1065 16.4489 18.0698 16.4515 18.0339 16.4561C17.5171 16.5228 16.986 16.5228 16.4548 16.4561C16.1441 16.4168 15.8361 16.5522 15.6549 16.808L14.6423 18.2372C14.6181 18.2712 14.5959 18.2967 14.5776 18.315L13.3158 17.7944C13.3151 17.7675 13.3171 17.7316 13.3243 17.6877L13.6206 15.9661C13.6736 15.6567 13.5519 15.3434 13.304 15.1505C12.886 14.8254 12.5106 14.4493 12.1881 14.0319C11.9958 13.7834 11.6825 13.6604 11.3724 13.7134L9.64364 14.0071C9.60243 14.0143 9.56907 14.0169 9.54291 14.0169L9.02028 12.7558C9.03925 12.7368 9.06541 12.7133 9.10073 12.6884L9.09877 12.691ZM15.3703 14.6174C15.9819 14.8712 16.6164 14.9915 17.2404 14.9915C19.1628 14.9915 20.9911 13.8527 21.7727 11.9682C22.2744 10.7588 22.2751 9.42572 21.7734 8.21497C21.2723 7.00553 20.3311 6.06427 19.1223 5.56519C17.9122 5.06415 16.5798 5.06349 15.371 5.56388C14.1615 6.06427 13.2203 7.00619 12.7206 8.21432C11.6851 10.7091 12.8743 13.5813 15.3703 14.6174ZM14.2924 8.86516C14.6188 8.0763 15.233 7.46144 16.0218 7.13505C16.4162 6.97152 16.8303 6.89041 17.245 6.89041C17.6597 6.89041 18.0764 6.97217 18.4721 7.13635C19.2603 7.4621 19.8745 8.0763 20.2016 8.86581C20.5293 9.65597 20.5286 10.5266 20.2016 11.3161C19.5252 12.9461 17.6499 13.7219 16.0212 13.0462C15.2317 12.7185 14.6168 12.103 14.2898 11.3135C13.9627 10.524 13.9634 9.65466 14.2911 8.8645L14.2924 8.86516Z" fill="#0CB4C4"></path></svg>