<svg xmlns="http://www.w3.org/2000/svg" xmlns:xlink="http://www.w3.org/1999/xlink" version="1.1" id="Layer_1" x="0px" y="0px" width="60px" height="60px" viewBox="0 0 60 60" style="enable-background:new 0 0 60 60;" xml:space="preserve"><g><path style="fill:#0CB4C4;" d="M25.504,25.819c-0.441-0.44-0.442-1.155-0.003-1.597c0.44-0.441,1.155-0.442,1.597-0.002 c0.009,0.008,0.017,0.017,0.025,0.025c0.829,0.741,1.922,1.119,3.031,1.047c1.461,0,2.244-0.552,2.244-1.565 c0.027-0.396-0.115-0.784-0.392-1.068c-0.315-0.268-0.709-0.424-1.122-0.443l-1.529-0.214c-0.91-0.08-1.771-0.449-2.457-1.052 c-0.633-0.67-0.961-1.571-0.908-2.49c-0.035-1.857,1.321-3.449,3.162-3.708l-0.005-1.313c0.05-0.559,0.518-0.987,1.079-0.989 c0.564,0.015,1.028,0.452,1.073,1.016v1.207c1.182,0.081,2.299,0.57,3.158,1.385c0.229,0.205,0.362,0.498,0.363,0.807 c0.001,0.607-0.49,1.101-1.098,1.102c-0.297,0-0.581-0.119-0.788-0.331l-0.003,0.003c-0.714-0.629-1.651-0.942-2.6-0.869 c-1.317,0-1.956,0.729-1.956,1.6c-0.008,0.342,0.128,0.671,0.374,0.908c0.332,0.281,0.74,0.456,1.174,0.5l1.495,0.213 c0.891,0.063,1.738,0.404,2.422,0.979c0.688,0.72,1.042,1.693,0.978,2.687c-0.021,1.972-1.553,3.597-3.52,3.736v1.217h-0.006 c-0.014,0.589-0.503,1.057-1.093,1.043c-0.57-0.014-1.029-0.473-1.043-1.043h-0.006v-1.166c-1.379-0.062-2.684-0.637-3.657-1.613 L25.504,25.819z M52.244,23.437l-9.344-4.97V11.45c0-2.375-1.926-4.3-4.301-4.3H21.4c-2.375,0-4.3,1.925-4.3,4.3v7.017l-9.345,4.97 c-0.683,0.379-1.105,1.099-1.105,1.879V46.4c0,3.562,2.888,6.449,6.45,6.449h33.8c3.562,0,6.449-2.888,6.449-6.449V25.315 C53.35,24.535,52.927,23.815,52.244,23.437L52.244,23.437z M21.4,9.3H38.6c1.188,0.002,2.149,0.964,2.15,2.15v16.49L30,33.729 L19.25,27.94V11.45C19.251,10.264,20.213,9.302,21.4,9.3z M51.2,46.4c-0.003,2.374-1.927,4.297-4.3,4.3h-33.8 c-2.374-0.003-4.298-1.926-4.301-4.3V25.315l8.301-4.389v5.855l-0.565-0.304c-0.522-0.281-1.176-0.086-1.457,0.438 c-0.281,0.522-0.086,1.174,0.437,1.456l13.976,7.524c0.318,0.171,0.701,0.171,1.02,0l13.976-7.524 c0.522-0.282,0.718-0.935,0.436-1.457s-0.934-0.718-1.456-0.437L42.9,26.782v-5.855l8.3,4.389V46.4z"></path></g></svg>