<svg width="62" height="62" viewBox="0 0 62 62" fill="none" xmlns="http://www.w3.org/2000/svg"><mask id="path-1-outside-1_1214_339" maskUnits="userSpaceOnUse" x="0" y="0" width="62" height="62" fill="black"><rect fill="white" width="62" height="62"></rect><path d="M47.4516 20.3548H43.5806V18.7019L41.8135 18.0777C41.7535 17.9258 41.6906 17.7739 41.6239 17.6219L42.4329 15.9303L37.36 10.8555L35.6674 11.6645C35.5174 11.5977 35.3645 11.5348 35.2116 11.4748L34.5884 9.70968H27.4116L26.7884 11.4768C26.6355 11.5368 26.4835 11.5997 26.3326 11.6665L24.64 10.8574L19.5671 15.9323L20.3761 17.6239C20.3094 17.7758 20.2455 17.9277 20.1865 18.0797L18.4194 18.7019V20.3548H14.5484C11.8803 20.3548 9.70968 22.5255 9.70968 25.1935V46.4839C9.70968 49.1519 11.8803 51.3226 14.5484 51.3226H21.3226V55.1935H17.4516C16.3842 55.1935 15.5161 56.0616 15.5161 57.129V59.0645C15.5161 60.1319 16.3842 61 17.4516 61H44.5484C45.6158 61 46.4839 60.1319 46.4839 59.0645V57.129C46.4839 56.0616 45.6158 55.1935 44.5484 55.1935H40.6774V51.3226H47.4516C50.1197 51.3226 52.2903 49.1519 52.2903 46.4839V25.1935C52.2903 22.5255 50.1197 20.3548 47.4516 20.3548ZM20.3548 20.0723L21.7029 19.5971L21.8539 19.1539C21.9797 18.7861 22.1345 18.4135 22.3155 18.0448L22.5226 17.6239L21.9042 16.3329L25.0416 13.1955L26.3335 13.8129L26.7555 13.6058C27.1184 13.4268 27.4919 13.2719 27.8645 13.1442L28.3077 12.9923L28.7819 11.6452H33.2181L33.6932 12.9923L34.1365 13.1442C34.509 13.2719 34.8826 13.4268 35.2455 13.6058L35.6674 13.8129L36.9594 13.1955L40.0968 16.3329L39.4784 17.6239L39.6855 18.0448C39.8665 18.4135 40.0213 18.7861 40.1471 19.1539L40.2981 19.5971L41.6452 20.0723V20.3548H38.4923C37.6213 16.9929 34.5419 14.5484 31 14.5484C27.4581 14.5484 24.3787 16.9929 23.5077 20.3548H20.3548V20.0723ZM36.4677 20.3548H25.5323C26.3394 18.0874 28.5168 16.4839 31 16.4839C33.4832 16.4839 35.6606 18.0874 36.4677 20.3548ZM14.5484 22.2903H47.4516C49.0523 22.2903 50.3548 23.5929 50.3548 25.1935V41.6452H11.6452V25.1935C11.6452 23.5929 12.9477 22.2903 14.5484 22.2903ZM44.5494 59.0645H17.4516V57.129H44.5484L44.5494 59.0645ZM38.7419 55.1935H23.2581V51.3226H38.7419V55.1935ZM47.4516 49.3871H14.5484C12.9477 49.3871 11.6452 48.0845 11.6452 46.4839V43.5806H50.3548V46.4839C50.3548 48.0845 49.0523 49.3871 47.4516 49.3871Z"></path><path d="M27.129 47.4516C27.6635 47.4516 28.0968 47.0183 28.0968 46.4839C28.0968 45.9494 27.6635 45.5161 27.129 45.5161C26.5946 45.5161 26.1613 45.9494 26.1613 46.4839C26.1613 47.0183 26.5946 47.4516 27.129 47.4516Z"></path><path d="M31 47.4516C31.5345 47.4516 31.9677 47.0183 31.9677 46.4839C31.9677 45.9494 31.5345 45.5161 31 45.5161C30.4655 45.5161 30.0323 45.9494 30.0323 46.4839C30.0323 47.0183 30.4655 47.4516 31 47.4516Z"></path><path d="M34.871 47.4516C35.4054 47.4516 35.8387 47.0183 35.8387 46.4839C35.8387 45.9494 35.4054 45.5161 34.871 45.5161C34.3365 45.5161 33.9032 45.9494 33.9032 46.4839C33.9032 47.0183 34.3365 47.4516 34.871 47.4516Z"></path><path d="M30.9997 2.93548C36.3755 2.93548 41.5385 4.55452 45.9301 7.61839C46.0975 7.73452 46.2901 7.79258 46.4836 7.79258C46.6965 7.79258 46.9085 7.72194 47.0846 7.58355C47.4204 7.31839 47.5414 6.86355 47.3826 6.46677L45.4472 1.60968L43.6501 2.32581L44.4968 4.45194C40.3772 2.18645 35.7659 1 30.9997 1C25.2262 1 19.681 2.74 14.9623 6.03129L16.0704 7.61935C20.461 4.55452 25.6239 2.93548 30.9997 2.93548Z"></path><path d="M6.46581 14.6171L1.60871 16.5526L2.32484 18.3497L4.45 17.5029C2.18645 21.6226 1 26.2339 1 31C1 36.7726 2.74 42.3187 6.03032 47.0374L7.61839 45.9294C4.55452 41.5377 2.93548 36.3748 2.93548 31C2.93548 25.6252 4.55452 20.4623 7.61839 16.0697C7.86323 15.7194 7.84774 15.249 7.58258 14.9142C7.31742 14.5803 6.86355 14.4584 6.46581 14.6171Z"></path><path d="M57.5482 44.4961C59.8127 40.3774 60.9991 35.7661 60.9991 31C60.9991 25.2274 59.2591 19.6813 55.9688 14.9626L54.3807 16.0706C57.4446 20.4622 59.0636 25.6251 59.0636 31C59.0636 36.3748 57.4446 41.5377 54.3807 45.9303C54.1359 46.2806 54.1514 46.7509 54.4165 47.0858C54.6043 47.3219 54.8859 47.4516 55.1743 47.4516C55.2943 47.4516 55.4162 47.4293 55.5324 47.3829L60.3894 45.4474L59.6733 43.6503L57.5482 44.4961Z"></path><path d="M32.0002 23.992L28.1251 39.4748L30.0018 39.9445L33.8769 24.4617L32.0002 23.992Z"></path><path d="M36.4019 37.5942L44.2793 31.9678L36.4019 26.3413L35.2773 27.9168L40.9483 31.9678L35.2773 36.0187L36.4019 37.5942Z"></path><path d="M26.7238 36.0187L21.0529 31.9678L26.7238 27.9168L25.5993 26.3413L17.7219 31.9678L25.5993 37.5942L26.7238 36.0187Z"></path></mask><path d="M47.4516 20.3548H43.5806V18.7019L41.8135 18.0777C41.7535 17.9258 41.6906 17.7739 41.6239 17.6219L42.4329 15.9303L37.36 10.8555L35.6674 11.6645C35.5174 11.5977 35.3645 11.5348 35.2116 11.4748L34.5884 9.70968H27.4116L26.7884 11.4768C26.6355 11.5368 26.4835 11.5997 26.3326 11.6665L24.64 10.8574L19.5671 15.9323L20.3761 17.6239C20.3094 17.7758 20.2455 17.9277 20.1865 18.0797L18.4194 18.7019V20.3548H14.5484C11.8803 20.3548 9.70968 22.5255 9.70968 25.1935V46.4839C9.70968 49.1519 11.8803 51.3226 14.5484 51.3226H21.3226V55.1935H17.4516C16.3842 55.1935 15.5161 56.0616 15.5161 57.129V59.0645C15.5161 60.1319 16.3842 61 17.4516 61H44.5484C45.6158 61 46.4839 60.1319 46.4839 59.0645V57.129C46.4839 56.0616 45.6158 55.1935 44.5484 55.1935H40.6774V51.3226H47.4516C50.1197 51.3226 52.2903 49.1519 52.2903 46.4839V25.1935C52.2903 22.5255 50.1197 20.3548 47.4516 20.3548ZM20.3548 20.0723L21.7029 19.5971L21.8539 19.1539C21.9797 18.7861 22.1345 18.4135 22.3155 18.0448L22.5226 17.6239L21.9042 16.3329L25.0416 13.1955L26.3335 13.8129L26.7555 13.6058C27.1184 13.4268 27.4919 13.2719 27.8645 13.1442L28.3077 12.9923L28.7819 11.6452H33.2181L33.6932 12.9923L34.1365 13.1442C34.509 13.2719 34.8826 13.4268 35.2455 13.6058L35.6674 13.8129L36.9594 13.1955L40.0968 16.3329L39.4784 17.6239L39.6855 18.0448C39.8665 18.4135 40.0213 18.7861 40.1471 19.1539L40.2981 19.5971L41.6452 20.0723V20.3548H38.4923C37.6213 16.9929 34.5419 14.5484 31 14.5484C27.4581 14.5484 24.3787 16.9929 23.5077 20.3548H20.3548V20.0723ZM36.4677 20.3548H25.5323C26.3394 18.0874 28.5168 16.4839 31 16.4839C33.4832 16.4839 35.6606 18.0874 36.4677 20.3548ZM14.5484 22.2903H47.4516C49.0523 22.2903 50.3548 23.5929 50.3548 25.1935V41.6452H11.6452V25.1935C11.6452 23.5929 12.9477 22.2903 14.5484 22.2903ZM44.5494 59.0645H17.4516V57.129H44.5484L44.5494 59.0645ZM38.7419 55.1935H23.2581V51.3226H38.7419V55.1935ZM47.4516 49.3871H14.5484C12.9477 49.3871 11.6452 48.0845 11.6452 46.4839V43.5806H50.3548V46.4839C50.3548 48.0845 49.0523 49.3871 47.4516 49.3871Z" fill="#0CB4C4"></path><path d="M27.129 47.4516C27.6635 47.4516 28.0968 47.0183 28.0968 46.4839C28.0968 45.9494 27.6635 45.5161 27.129 45.5161C26.5946 45.5161 26.1613 45.9494 26.1613 46.4839C26.1613 47.0183 26.5946 47.4516 27.129 47.4516Z" fill="#0CB4C4"></path><path d="M31 47.4516C31.5345 47.4516 31.9677 47.0183 31.9677 46.4839C31.9677 45.9494 31.5345 45.5161 31 45.5161C30.4655 45.5161 30.0323 45.9494 30.0323 46.4839C30.0323 47.0183 30.4655 47.4516 31 47.4516Z" fill="#0CB4C4"></path><path d="M34.871 47.4516C35.4054 47.4516 35.8387 47.0183 35.8387 46.4839C35.8387 45.9494 35.4054 45.5161 34.871 45.5161C34.3365 45.5161 33.9032 45.9494 33.9032 46.4839C33.9032 47.0183 34.3365 47.4516 34.871 47.4516Z" fill="#0CB4C4"></path><path d="M30.9997 2.93548C36.3755 2.93548 41.5385 4.55452 45.9301 7.61839C46.0975 7.73452 46.2901 7.79258 46.4836 7.79258C46.6965 7.79258 46.9085 7.72194 47.0846 7.58355C47.4204 7.31839 47.5414 6.86355 47.3826 6.46677L45.4472 1.60968L43.6501 2.32581L44.4968 4.45194C40.3772 2.18645 35.7659 1 30.9997 1C25.2262 1 19.681 2.74 14.9623 6.03129L16.0704 7.61935C20.461 4.55452 25.6239 2.93548 30.9997 2.93548Z" fill="#0CB4C4"></path><path d="M6.46581 14.6171L1.60871 16.5526L2.32484 18.3497L4.45 17.5029C2.18645 21.6226 1 26.2339 1 31C1 36.7726 2.74 42.3187 6.03032 47.0374L7.61839 45.9294C4.55452 41.5377 2.93548 36.3748 2.93548 31C2.93548 25.6252 4.55452 20.4623 7.61839 16.0697C7.86323 15.7194 7.84774 15.249 7.58258 14.9142C7.31742 14.5803 6.86355 14.4584 6.46581 14.6171Z" fill="#0CB4C4"></path><path d="M57.5482 44.4961C59.8127 40.3774 60.9991 35.7661 60.9991 31C60.9991 25.2274 59.2591 19.6813 55.9688 14.9626L54.3807 16.0706C57.4446 20.4622 59.0636 25.6251 59.0636 31C59.0636 36.3748 57.4446 41.5377 54.3807 45.9303C54.1359 46.2806 54.1514 46.7509 54.4165 47.0858C54.6043 47.3219 54.8859 47.4516 55.1743 47.4516C55.2943 47.4516 55.4162 47.4293 55.5324 47.3829L60.3894 45.4474L59.6733 43.6503L57.5482 44.4961Z" fill="#0CB4C4"></path><path d="M32.0002 23.992L28.1251 39.4748L30.0018 39.9445L33.8769 24.4617L32.0002 23.992Z" fill="#0CB4C4"></path><path d="M36.4019 37.5942L44.2793 31.9678L36.4019 26.3413L35.2773 27.9168L40.9483 31.9678L35.2773 36.0187L36.4019 37.5942Z" fill="#0CB4C4"></path><path d="M26.7238 36.0187L21.0529 31.9678L26.7238 27.9168L25.5993 26.3413L17.7219 31.9678L25.5993 37.5942L26.7238 36.0187Z" fill="#0CB4C4"></path><path d="M47.4516 20.3548H43.5806V18.7019L41.8135 18.0777C41.7535 17.9258 41.6906 17.7739 41.6239 17.6219L42.4329 15.9303L37.36 10.8555L35.6674 11.6645C35.5174 11.5977 35.3645 11.5348 35.2116 11.4748L34.5884 9.70968H27.4116L26.7884 11.4768C26.6355 11.5368 26.4835 11.5997 26.3326 11.6665L24.64 10.8574L19.5671 15.9323L20.3761 17.6239C20.3094 17.7758 20.2455 17.9277 20.1865 18.0797L18.4194 18.7019V20.3548H14.5484C11.8803 20.3548 9.70968 22.5255 9.70968 25.1935V46.4839C9.70968 49.1519 11.8803 51.3226 14.5484 51.3226H21.3226V55.1935H17.4516C16.3842 55.1935 15.5161 56.0616 15.5161 57.129V59.0645C15.5161 60.1319 16.3842 61 17.4516 61H44.5484C45.6158 61 46.4839 60.1319 46.4839 59.0645V57.129C46.4839 56.0616 45.6158 55.1935 44.5484 55.1935H40.6774V51.3226H47.4516C50.1197 51.3226 52.2903 49.1519 52.2903 46.4839V25.1935C52.2903 22.5255 50.1197 20.3548 47.4516 20.3548ZM20.3548 20.0723L21.7029 19.5971L21.8539 19.1539C21.9797 18.7861 22.1345 18.4135 22.3155 18.0448L22.5226 17.6239L21.9042 16.3329L25.0416 13.1955L26.3335 13.8129L26.7555 13.6058C27.1184 13.4268 27.4919 13.2719 27.8645 13.1442L28.3077 12.9923L28.7819 11.6452H33.2181L33.6932 12.9923L34.1365 13.1442C34.509 13.2719 34.8826 13.4268 35.2455 13.6058L35.6674 13.8129L36.9594 13.1955L40.0968 16.3329L39.4784 17.6239L39.6855 18.0448C39.8665 18.4135 40.0213 18.7861 40.1471 19.1539L40.2981 19.5971L41.6452 20.0723V20.3548H38.4923C37.6213 16.9929 34.5419 14.5484 31 14.5484C27.4581 14.5484 24.3787 16.9929 23.5077 20.3548H20.3548V20.0723ZM36.4677 20.3548H25.5323C26.3394 18.0874 28.5168 16.4839 31 16.4839C33.4832 16.4839 35.6606 18.0874 36.4677 20.3548ZM14.5484 22.2903H47.4516C49.0523 22.2903 50.3548 23.5929 50.3548 25.1935V41.6452H11.6452V25.1935C11.6452 23.5929 12.9477 22.2903 14.5484 22.2903ZM44.5494 59.0645H17.4516V57.129H44.5484L44.5494 59.0645ZM38.7419 55.1935H23.2581V51.3226H38.7419V55.1935ZM47.4516 49.3871H14.5484C12.9477 49.3871 11.6452 48.0845 11.6452 46.4839V43.5806H50.3548V46.4839C50.3548 48.0845 49.0523 49.3871 47.4516 49.3871Z" stroke="#0CB4C4" stroke-width="0.4" mask="url(#path-1-outside-1_1214_339)"></path><path d="M27.129 47.4516C27.6635 47.4516 28.0968 47.0183 28.0968 46.4839C28.0968 45.9494 27.6635 45.5161 27.129 45.5161C26.5946 45.5161 26.1613 45.9494 26.1613 46.4839C26.1613 47.0183 26.5946 47.4516 27.129 47.4516Z" stroke="#0CB4C4" stroke-width="0.4" mask="url(#path-1-outside-1_1214_339)"></path><path d="M31 47.4516C31.5345 47.4516 31.9677 47.0183 31.9677 46.4839C31.9677 45.9494 31.5345 45.5161 31 45.5161C30.4655 45.5161 30.0323 45.9494 30.0323 46.4839C30.0323 47.0183 30.4655 47.4516 31 47.4516Z" stroke="#0CB4C4" stroke-width="0.4" mask="url(#path-1-outside-1_1214_339)"></path><path d="M34.871 47.4516C35.4054 47.4516 35.8387 47.0183 35.8387 46.4839C35.8387 45.9494 35.4054 45.5161 34.871 45.5161C34.3365 45.5161 33.9032 45.9494 33.9032 46.4839C33.9032 47.0183 34.3365 47.4516 34.871 47.4516Z" stroke="#0CB4C4" stroke-width="0.4" mask="url(#path-1-outside-1_1214_339)"></path><path d="M30.9997 2.93548C36.3755 2.93548 41.5385 4.55452 45.9301 7.61839C46.0975 7.73452 46.2901 7.79258 46.4836 7.79258C46.6965 7.79258 46.9085 7.72194 47.0846 7.58355C47.4204 7.31839 47.5414 6.86355 47.3826 6.46677L45.4472 1.60968L43.6501 2.32581L44.4968 4.45194C40.3772 2.18645 35.7659 1 30.9997 1C25.2262 1 19.681 2.74 14.9623 6.03129L16.0704 7.61935C20.461 4.55452 25.6239 2.93548 30.9997 2.93548Z" stroke="#0CB4C4" stroke-width="0.4" mask="url(#path-1-outside-1_1214_339)"></path><path d="M6.46581 14.6171L1.60871 16.5526L2.32484 18.3497L4.45 17.5029C2.18645 21.6226 1 26.2339 1 31C1 36.7726 2.74 42.3187 6.03032 47.0374L7.61839 45.9294C4.55452 41.5377 2.93548 36.3748 2.93548 31C2.93548 25.6252 4.55452 20.4623 7.61839 16.0697C7.86323 15.7194 7.84774 15.249 7.58258 14.9142C7.31742 14.5803 6.86355 14.4584 6.46581 14.6171Z" stroke="#0CB4C4" stroke-width="0.4" mask="url(#path-1-outside-1_1214_339)"></path><path d="M57.5482 44.4961C59.8127 40.3774 60.9991 35.7661 60.9991 31C60.9991 25.2274 59.2591 19.6813 55.9688 14.9626L54.3807 16.0706C57.4446 20.4622 59.0636 25.6251 59.0636 31C59.0636 36.3748 57.4446 41.5377 54.3807 45.9303C54.1359 46.2806 54.1514 46.7509 54.4165 47.0858C54.6043 47.3219 54.8859 47.4516 55.1743 47.4516C55.2943 47.4516 55.4162 47.4293 55.5324 47.3829L60.3894 45.4474L59.6733 43.6503L57.5482 44.4961Z" stroke="#0CB4C4" stroke-width="0.4" mask="url(#path-1-outside-1_1214_339)"></path><path d="M32.0002 23.992L28.1251 39.4748L30.0018 39.9445L33.8769 24.4617L32.0002 23.992Z" stroke="#0CB4C4" stroke-width="0.4" mask="url(#path-1-outside-1_1214_339)"></path><path d="M36.4019 37.5942L44.2793 31.9678L36.4019 26.3413L35.2773 27.9168L40.9483 31.9678L35.2773 36.0187L36.4019 37.5942Z" stroke="#0CB4C4" stroke-width="0.4" mask="url(#path-1-outside-1_1214_339)"></path><path d="M26.7238 36.0187L21.0529 31.9678L26.7238 27.9168L25.5993 26.3413L17.7219 31.9678L25.5993 37.5942L26.7238 36.0187Z" stroke="#0CB4C4" stroke-width="0.4" mask="url(#path-1-outside-1_1214_339)"></path></svg>