<svg width="59" height="62" viewBox="0 0 59 62" fill="none" xmlns="http://www.w3.org/2000/svg"><mask id="path-1-outside-1_1214_273" maskUnits="userSpaceOnUse" x="0" y="0" width="59" height="62" fill="black"><rect fill="white" width="59" height="62"></rect><path d="M48.2107 33.9613C48.0617 33.9114 47.9027 33.8985 47.7475 33.9238C47.5923 33.9491 47.4456 34.0118 47.3201 34.1065L43.7772 36.817L40.2245 34.1065C40.1 34.0125 39.9545 33.95 39.8006 33.9243C39.6467 33.8986 39.4889 33.9106 39.3406 33.959C39.1922 34.0075 39.0578 34.0912 38.9488 34.2028C38.8398 34.3144 38.7594 34.4508 38.7144 34.6002L37.4463 38.8305L32.945 38.753C32.7859 38.744 32.627 38.7744 32.4825 38.8415C32.338 38.9086 32.2122 39.0104 32.1165 39.1378C32.0207 39.2651 31.9579 39.4142 31.9335 39.5716C31.9092 39.7291 31.9241 39.8902 31.9769 40.0405L33.458 44.1933L29.7892 46.6908C29.6574 46.7794 29.5495 46.899 29.4748 47.0391C29.4001 47.1792 29.3611 47.3355 29.3611 47.4943C29.3611 47.6531 29.4001 47.8094 29.4748 47.9495C29.5495 48.0896 29.6574 48.2092 29.7892 48.2978L33.458 50.7953L32.0447 54.9191C31.992 55.0666 31.976 55.2247 31.9979 55.3799C32.0198 55.535 32.0791 55.6825 32.1705 55.8096C32.2627 55.9263 32.3805 56.0202 32.5148 56.084C32.6491 56.1478 32.7963 56.1798 32.945 56.1775L37.4076 56.071L38.7531 60.3303C38.7987 60.4797 38.8797 60.6158 38.9893 60.727C39.0989 60.8383 39.2337 60.9214 39.3823 60.9692C39.4818 60.9839 39.5829 60.9839 39.6824 60.9692C39.8919 60.9692 40.0957 60.9013 40.2632 60.7756L43.7772 58.1136L47.3201 60.8047C47.4456 60.8994 47.5923 60.9621 47.7475 60.9874C47.9027 61.0127 48.0617 60.9998 48.2107 60.9499C48.3576 60.9007 48.4905 60.817 48.5983 60.7058C48.7061 60.5947 48.7856 60.4593 48.8303 60.311L50.0984 56.0807L54.5707 56.1872C54.7267 56.1907 54.8812 56.1564 55.0211 56.0873C55.161 56.0182 55.2821 55.9163 55.3741 55.7903C55.4656 55.6631 55.5248 55.5156 55.5468 55.3605C55.5687 55.2054 55.5526 55.0473 55.5 54.8997L54.0189 50.7469L57.6877 48.2494C57.8195 48.1608 57.9275 48.0412 58.0021 47.9011C58.0768 47.761 58.1158 47.6047 58.1158 47.4459C58.1158 47.2871 58.0768 47.1308 58.0021 46.9907C57.9275 46.8506 57.8195 46.731 57.6877 46.6424L54.0189 44.1449L55.5 40.0115C55.5526 39.8639 55.5687 39.7058 55.5468 39.5507C55.5248 39.3955 55.4656 39.2481 55.3741 39.1209C55.2821 38.9949 55.161 38.893 55.0211 38.8239C54.8812 38.7547 54.7267 38.7205 54.5707 38.724L50.0984 38.8305L48.8303 34.6002C48.7856 34.4519 48.7061 34.3165 48.5983 34.2053C48.4905 34.0942 48.3576 34.0105 48.2107 33.9613ZM53.2058 40.7375L51.9473 44.2708C51.8866 44.4648 51.8886 44.673 51.9529 44.8659C52.0171 45.0587 52.1405 45.2265 52.3055 45.3453L55.4322 47.4653L52.3055 49.5852C52.1288 49.7055 51.9969 49.8809 51.9304 50.0841C51.8638 50.2872 51.8664 50.5066 51.9376 50.7081L53.2058 54.2414L49.4014 54.1446C49.1866 54.1355 48.9749 54.198 48.7997 54.3225C48.6244 54.4469 48.4955 54.6262 48.4334 54.8319L47.3492 58.433L44.358 56.1775C44.1896 56.0495 43.9839 55.9802 43.7723 55.9802C43.5608 55.9802 43.3551 56.0495 43.1867 56.1775L40.1664 58.4717L39.0919 54.8707C39.0298 54.6649 38.9009 54.4856 38.7256 54.3612C38.5504 54.2368 38.3387 54.1742 38.1239 54.1834L34.3292 54.2802L35.5877 50.7469C35.6589 50.5454 35.6615 50.3259 35.595 50.1228C35.5284 49.9196 35.3965 49.7443 35.2198 49.624L32.1221 47.4653L35.2295 45.3453C35.4062 45.225 35.5381 45.0496 35.6046 44.8465C35.6712 44.6433 35.6686 44.4239 35.5974 44.2224L34.3389 40.6891L38.1336 40.7859C38.3483 40.7951 38.5601 40.7325 38.7353 40.608C38.9106 40.4836 39.0395 40.3044 39.1016 40.0986L40.1761 36.4975L43.1867 38.753C43.3551 38.881 43.5608 38.9503 43.7723 38.9503C43.9839 38.9503 44.1896 38.881 44.358 38.753L47.3782 36.4588L48.4334 40.0986C48.4955 40.3044 48.6244 40.4836 48.7997 40.608C48.9749 40.7325 49.1866 40.7951 49.4014 40.7859L53.2058 40.7375Z"></path><path d="M2.93605 57.1455H28.1047V55.2095H2.93605V14.5524H35.849V31.9768H37.785V14.5524C37.785 14.0389 37.581 13.5465 37.218 13.1834C36.8549 12.8203 36.3624 12.6163 35.849 12.6163H8.74421V8.74421H41.6571V31.0088H43.5932V8.74421C43.5932 8.23074 43.3892 7.7383 43.0261 7.37522C42.663 7.01214 42.1706 6.80816 41.6571 6.80816H14.5524V2.93605H47.4653V30.0408H49.4013V2.93605C49.4013 2.42258 49.1973 1.93014 48.8343 1.56706C48.4712 1.20398 47.9787 1 47.4653 1H14.5524C14.0389 1 13.5465 1.20398 13.1834 1.56706C12.8203 1.93014 12.6163 2.42258 12.6163 2.93605V6.80816H8.74421C8.23074 6.80816 7.7383 7.01214 7.37522 7.37522C7.01214 7.7383 6.80816 8.23074 6.80816 8.74421V12.6163H2.93605C2.42258 12.6163 1.93014 12.8203 1.56706 13.1834C1.20398 13.5465 1 14.0389 1 14.5524V55.2095C1 55.723 1.20398 56.2154 1.56706 56.5785C1.93014 56.9416 2.42258 57.1455 2.93605 57.1455Z"></path><path d="M41.5408 49.3045L39.4886 47.2523L38.114 48.6172L40.8535 51.3373C40.9431 51.4288 41.0501 51.5016 41.168 51.5514C41.286 51.6013 41.4127 51.6272 41.5408 51.6277C41.6689 51.6272 41.7956 51.6013 41.9135 51.5514C42.0315 51.5016 42.1384 51.4288 42.2281 51.3373L49.072 44.5612L47.6974 43.1962L41.5408 49.3045Z"></path><path d="M29.0728 31.9768C29.3295 31.9768 29.5757 31.8749 29.7573 31.6933C29.9388 31.5118 30.0408 31.2656 30.0408 31.0088V21.3286C30.0408 21.0718 29.9388 20.8256 29.7573 20.6441C29.5757 20.4625 29.3295 20.3605 29.0728 20.3605H9.71224C9.4555 20.3605 9.20928 20.4625 9.02774 20.6441C8.8462 20.8256 8.74421 21.0718 8.74421 21.3286V31.0088C8.74421 31.2656 8.8462 31.5118 9.02774 31.6933C9.20928 31.8749 9.4555 31.9768 9.71224 31.9768H29.0728ZM10.6803 22.2966H28.1047V30.0408H10.6803V22.2966Z"></path><path d="M28.1047 37.785H8.74421V39.7211H28.1047V37.785Z"></path><path d="M26.1687 45.5292H8.74421V47.4653H26.1687V45.5292Z"></path></mask><path d="M48.2107 33.9613C48.0617 33.9114 47.9027 33.8985 47.7475 33.9238C47.5923 33.9491 47.4456 34.0118 47.3201 34.1065L43.7772 36.817L40.2245 34.1065C40.1 34.0125 39.9545 33.95 39.8006 33.9243C39.6467 33.8986 39.4889 33.9106 39.3406 33.959C39.1922 34.0075 39.0578 34.0912 38.9488 34.2028C38.8398 34.3144 38.7594 34.4508 38.7144 34.6002L37.4463 38.8305L32.945 38.753C32.7859 38.744 32.627 38.7744 32.4825 38.8415C32.338 38.9086 32.2122 39.0104 32.1165 39.1378C32.0207 39.2651 31.9579 39.4142 31.9335 39.5716C31.9092 39.7291 31.9241 39.8902 31.9769 40.0405L33.458 44.1933L29.7892 46.6908C29.6574 46.7794 29.5495 46.899 29.4748 47.0391C29.4001 47.1792 29.3611 47.3355 29.3611 47.4943C29.3611 47.6531 29.4001 47.8094 29.4748 47.9495C29.5495 48.0896 29.6574 48.2092 29.7892 48.2978L33.458 50.7953L32.0447 54.9191C31.992 55.0666 31.976 55.2247 31.9979 55.3799C32.0198 55.535 32.0791 55.6825 32.1705 55.8096C32.2627 55.9263 32.3805 56.0202 32.5148 56.084C32.6491 56.1478 32.7963 56.1798 32.945 56.1775L37.4076 56.071L38.7531 60.3303C38.7987 60.4797 38.8797 60.6158 38.9893 60.727C39.0989 60.8383 39.2337 60.9214 39.3823 60.9692C39.4818 60.9839 39.5829 60.9839 39.6824 60.9692C39.8919 60.9692 40.0957 60.9013 40.2632 60.7756L43.7772 58.1136L47.3201 60.8047C47.4456 60.8994 47.5923 60.9621 47.7475 60.9874C47.9027 61.0127 48.0617 60.9998 48.2107 60.9499C48.3576 60.9007 48.4905 60.817 48.5983 60.7058C48.7061 60.5947 48.7856 60.4593 48.8303 60.311L50.0984 56.0807L54.5707 56.1872C54.7267 56.1907 54.8812 56.1564 55.0211 56.0873C55.161 56.0182 55.2821 55.9163 55.3741 55.7903C55.4656 55.6631 55.5248 55.5156 55.5468 55.3605C55.5687 55.2054 55.5526 55.0473 55.5 54.8997L54.0189 50.7469L57.6877 48.2494C57.8195 48.1608 57.9275 48.0412 58.0021 47.9011C58.0768 47.761 58.1158 47.6047 58.1158 47.4459C58.1158 47.2871 58.0768 47.1308 58.0021 46.9907C57.9275 46.8506 57.8195 46.731 57.6877 46.6424L54.0189 44.1449L55.5 40.0115C55.5526 39.8639 55.5687 39.7058 55.5468 39.5507C55.5248 39.3955 55.4656 39.2481 55.3741 39.1209C55.2821 38.9949 55.161 38.893 55.0211 38.8239C54.8812 38.7547 54.7267 38.7205 54.5707 38.724L50.0984 38.8305L48.8303 34.6002C48.7856 34.4519 48.7061 34.3165 48.5983 34.2053C48.4905 34.0942 48.3576 34.0105 48.2107 33.9613ZM53.2058 40.7375L51.9473 44.2708C51.8866 44.4648 51.8886 44.673 51.9529 44.8659C52.0171 45.0587 52.1405 45.2265 52.3055 45.3453L55.4322 47.4653L52.3055 49.5852C52.1288 49.7055 51.9969 49.8809 51.9304 50.0841C51.8638 50.2872 51.8664 50.5066 51.9376 50.7081L53.2058 54.2414L49.4014 54.1446C49.1866 54.1355 48.9749 54.198 48.7997 54.3225C48.6244 54.4469 48.4955 54.6262 48.4334 54.8319L47.3492 58.433L44.358 56.1775C44.1896 56.0495 43.9839 55.9802 43.7723 55.9802C43.5608 55.9802 43.3551 56.0495 43.1867 56.1775L40.1664 58.4717L39.0919 54.8707C39.0298 54.6649 38.9009 54.4856 38.7256 54.3612C38.5504 54.2368 38.3387 54.1742 38.1239 54.1834L34.3292 54.2802L35.5877 50.7469C35.6589 50.5454 35.6615 50.3259 35.595 50.1228C35.5284 49.9196 35.3965 49.7443 35.2198 49.624L32.1221 47.4653L35.2295 45.3453C35.4062 45.225 35.5381 45.0496 35.6046 44.8465C35.6712 44.6433 35.6686 44.4239 35.5974 44.2224L34.3389 40.6891L38.1336 40.7859C38.3483 40.7951 38.5601 40.7325 38.7353 40.608C38.9106 40.4836 39.0395 40.3044 39.1016 40.0986L40.1761 36.4975L43.1867 38.753C43.3551 38.881 43.5608 38.9503 43.7723 38.9503C43.9839 38.9503 44.1896 38.881 44.358 38.753L47.3782 36.4588L48.4334 40.0986C48.4955 40.3044 48.6244 40.4836 48.7997 40.608C48.9749 40.7325 49.1866 40.7951 49.4014 40.7859L53.2058 40.7375Z" fill="#0CB4C4"></path><path d="M2.93605 57.1455H28.1047V55.2095H2.93605V14.5524H35.849V31.9768H37.785V14.5524C37.785 14.0389 37.581 13.5465 37.218 13.1834C36.8549 12.8203 36.3624 12.6163 35.849 12.6163H8.74421V8.74421H41.6571V31.0088H43.5932V8.74421C43.5932 8.23074 43.3892 7.7383 43.0261 7.37522C42.663 7.01214 42.1706 6.80816 41.6571 6.80816H14.5524V2.93605H47.4653V30.0408H49.4013V2.93605C49.4013 2.42258 49.1973 1.93014 48.8343 1.56706C48.4712 1.20398 47.9787 1 47.4653 1H14.5524C14.0389 1 13.5465 1.20398 13.1834 1.56706C12.8203 1.93014 12.6163 2.42258 12.6163 2.93605V6.80816H8.74421C8.23074 6.80816 7.7383 7.01214 7.37522 7.37522C7.01214 7.7383 6.80816 8.23074 6.80816 8.74421V12.6163H2.93605C2.42258 12.6163 1.93014 12.8203 1.56706 13.1834C1.20398 13.5465 1 14.0389 1 14.5524V55.2095C1 55.723 1.20398 56.2154 1.56706 56.5785C1.93014 56.9416 2.42258 57.1455 2.93605 57.1455Z" fill="#0CB4C4"></path><path d="M41.5408 49.3045L39.4886 47.2523L38.114 48.6172L40.8535 51.3373C40.9431 51.4288 41.0501 51.5016 41.168 51.5514C41.286 51.6013 41.4127 51.6272 41.5408 51.6277C41.6689 51.6272 41.7956 51.6013 41.9135 51.5514C42.0315 51.5016 42.1384 51.4288 42.2281 51.3373L49.072 44.5612L47.6974 43.1962L41.5408 49.3045Z" fill="#0CB4C4"></path><path d="M29.0728 31.9768C29.3295 31.9768 29.5757 31.8749 29.7573 31.6933C29.9388 31.5118 30.0408 31.2656 30.0408 31.0088V21.3286C30.0408 21.0718 29.9388 20.8256 29.7573 20.6441C29.5757 20.4625 29.3295 20.3605 29.0728 20.3605H9.71224C9.4555 20.3605 9.20928 20.4625 9.02774 20.6441C8.8462 20.8256 8.74421 21.0718 8.74421 21.3286V31.0088C8.74421 31.2656 8.8462 31.5118 9.02774 31.6933C9.20928 31.8749 9.4555 31.9768 9.71224 31.9768H29.0728ZM10.6803 22.2966H28.1047V30.0408H10.6803V22.2966Z" fill="#0CB4C4"></path><path d="M28.1047 37.785H8.74421V39.7211H28.1047V37.785Z" fill="#0CB4C4"></path><path d="M26.1687 45.5292H8.74421V47.4653H26.1687V45.5292Z" fill="#0CB4C4"></path><path d="M48.2107 33.9613C48.0617 33.9114 47.9027 33.8985 47.7475 33.9238C47.5923 33.9491 47.4456 34.0118 47.3201 34.1065L43.7772 36.817L40.2245 34.1065C40.1 34.0125 39.9545 33.95 39.8006 33.9243C39.6467 33.8986 39.4889 33.9106 39.3406 33.959C39.1922 34.0075 39.0578 34.0912 38.9488 34.2028C38.8398 34.3144 38.7594 34.4508 38.7144 34.6002L37.4463 38.8305L32.945 38.753C32.7859 38.744 32.627 38.7744 32.4825 38.8415C32.338 38.9086 32.2122 39.0104 32.1165 39.1378C32.0207 39.2651 31.9579 39.4142 31.9335 39.5716C31.9092 39.7291 31.9241 39.8902 31.9769 40.0405L33.458 44.1933L29.7892 46.6908C29.6574 46.7794 29.5495 46.899 29.4748 47.0391C29.4001 47.1792 29.3611 47.3355 29.3611 47.4943C29.3611 47.6531 29.4001 47.8094 29.4748 47.9495C29.5495 48.0896 29.6574 48.2092 29.7892 48.2978L33.458 50.7953L32.0447 54.9191C31.992 55.0666 31.976 55.2247 31.9979 55.3799C32.0198 55.535 32.0791 55.6825 32.1705 55.8096C32.2627 55.9263 32.3805 56.0202 32.5148 56.084C32.6491 56.1478 32.7963 56.1798 32.945 56.1775L37.4076 56.071L38.7531 60.3303C38.7987 60.4797 38.8797 60.6158 38.9893 60.727C39.0989 60.8383 39.2337 60.9214 39.3823 60.9692C39.4818 60.9839 39.5829 60.9839 39.6824 60.9692C39.8919 60.9692 40.0957 60.9013 40.2632 60.7756L43.7772 58.1136L47.3201 60.8047C47.4456 60.8994 47.5923 60.9621 47.7475 60.9874C47.9027 61.0127 48.0617 60.9998 48.2107 60.9499C48.3576 60.9007 48.4905 60.817 48.5983 60.7058C48.7061 60.5947 48.7856 60.4593 48.8303 60.311L50.0984 56.0807L54.5707 56.1872C54.7267 56.1907 54.8812 56.1564 55.0211 56.0873C55.161 56.0182 55.2821 55.9163 55.3741 55.7903C55.4656 55.6631 55.5248 55.5156 55.5468 55.3605C55.5687 55.2054 55.5526 55.0473 55.5 54.8997L54.0189 50.7469L57.6877 48.2494C57.8195 48.1608 57.9275 48.0412 58.0021 47.9011C58.0768 47.761 58.1158 47.6047 58.1158 47.4459C58.1158 47.2871 58.0768 47.1308 58.0021 46.9907C57.9275 46.8506 57.8195 46.731 57.6877 46.6424L54.0189 44.1449L55.5 40.0115C55.5526 39.8639 55.5687 39.7058 55.5468 39.5507C55.5248 39.3955 55.4656 39.2481 55.3741 39.1209C55.2821 38.9949 55.161 38.893 55.0211 38.8239C54.8812 38.7547 54.7267 38.7205 54.5707 38.724L50.0984 38.8305L48.8303 34.6002C48.7856 34.4519 48.7061 34.3165 48.5983 34.2053C48.4905 34.0942 48.3576 34.0105 48.2107 33.9613ZM53.2058 40.7375L51.9473 44.2708C51.8866 44.4648 51.8886 44.673 51.9529 44.8659C52.0171 45.0587 52.1405 45.2265 52.3055 45.3453L55.4322 47.4653L52.3055 49.5852C52.1288 49.7055 51.9969 49.8809 51.9304 50.0841C51.8638 50.2872 51.8664 50.5066 51.9376 50.7081L53.2058 54.2414L49.4014 54.1446C49.1866 54.1355 48.9749 54.198 48.7997 54.3225C48.6244 54.4469 48.4955 54.6262 48.4334 54.8319L47.3492 58.433L44.358 56.1775C44.1896 56.0495 43.9839 55.9802 43.7723 55.9802C43.5608 55.9802 43.3551 56.0495 43.1867 56.1775L40.1664 58.4717L39.0919 54.8707C39.0298 54.6649 38.9009 54.4856 38.7256 54.3612C38.5504 54.2368 38.3387 54.1742 38.1239 54.1834L34.3292 54.2802L35.5877 50.7469C35.6589 50.5454 35.6615 50.3259 35.595 50.1228C35.5284 49.9196 35.3965 49.7443 35.2198 49.624L32.1221 47.4653L35.2295 45.3453C35.4062 45.225 35.5381 45.0496 35.6046 44.8465C35.6712 44.6433 35.6686 44.4239 35.5974 44.2224L34.3389 40.6891L38.1336 40.7859C38.3483 40.7951 38.5601 40.7325 38.7353 40.608C38.9106 40.4836 39.0395 40.3044 39.1016 40.0986L40.1761 36.4975L43.1867 38.753C43.3551 38.881 43.5608 38.9503 43.7723 38.9503C43.9839 38.9503 44.1896 38.881 44.358 38.753L47.3782 36.4588L48.4334 40.0986C48.4955 40.3044 48.6244 40.4836 48.7997 40.608C48.9749 40.7325 49.1866 40.7951 49.4014 40.7859L53.2058 40.7375Z" stroke="#0CB4C4" stroke-width="0.2" mask="url(#path-1-outside-1_1214_273)"></path><path d="M2.93605 57.1455H28.1047V55.2095H2.93605V14.5524H35.849V31.9768H37.785V14.5524C37.785 14.0389 37.581 13.5465 37.218 13.1834C36.8549 12.8203 36.3624 12.6163 35.849 12.6163H8.74421V8.74421H41.6571V31.0088H43.5932V8.74421C43.5932 8.23074 43.3892 7.7383 43.0261 7.37522C42.663 7.01214 42.1706 6.80816 41.6571 6.80816H14.5524V2.93605H47.4653V30.0408H49.4013V2.93605C49.4013 2.42258 49.1973 1.93014 48.8343 1.56706C48.4712 1.20398 47.9787 1 47.4653 1H14.5524C14.0389 1 13.5465 1.20398 13.1834 1.56706C12.8203 1.93014 12.6163 2.42258 12.6163 2.93605V6.80816H8.74421C8.23074 6.80816 7.7383 7.01214 7.37522 7.37522C7.01214 7.7383 6.80816 8.23074 6.80816 8.74421V12.6163H2.93605C2.42258 12.6163 1.93014 12.8203 1.56706 13.1834C1.20398 13.5465 1 14.0389 1 14.5524V55.2095C1 55.723 1.20398 56.2154 1.56706 56.5785C1.93014 56.9416 2.42258 57.1455 2.93605 57.1455Z" stroke="#0CB4C4" stroke-width="0.2" mask="url(#path-1-outside-1_1214_273)"></path><path d="M41.5408 49.3045L39.4886 47.2523L38.114 48.6172L40.8535 51.3373C40.9431 51.4288 41.0501 51.5016 41.168 51.5514C41.286 51.6013 41.4127 51.6272 41.5408 51.6277C41.6689 51.6272 41.7956 51.6013 41.9135 51.5514C42.0315 51.5016 42.1384 51.4288 42.2281 51.3373L49.072 44.5612L47.6974 43.1962L41.5408 49.3045Z" stroke="#0CB4C4" stroke-width="0.2" mask="url(#path-1-outside-1_1214_273)"></path><path d="M29.0728 31.9768C29.3295 31.9768 29.5757 31.8749 29.7573 31.6933C29.9388 31.5118 30.0408 31.2656 30.0408 31.0088V21.3286C30.0408 21.0718 29.9388 20.8256 29.7573 20.6441C29.5757 20.4625 29.3295 20.3605 29.0728 20.3605H9.71224C9.4555 20.3605 9.20928 20.4625 9.02774 20.6441C8.8462 20.8256 8.74421 21.0718 8.74421 21.3286V31.0088C8.74421 31.2656 8.8462 31.5118 9.02774 31.6933C9.20928 31.8749 9.4555 31.9768 9.71224 31.9768H29.0728ZM10.6803 22.2966H28.1047V30.0408H10.6803V22.2966Z" stroke="#0CB4C4" stroke-width="0.2" mask="url(#path-1-outside-1_1214_273)"></path><path d="M28.1047 37.785H8.74421V39.7211H28.1047V37.785Z" stroke="#0CB4C4" stroke-width="0.2" mask="url(#path-1-outside-1_1214_273)"></path><path d="M26.1687 45.5292H8.74421V47.4653H26.1687V45.5292Z" stroke="#0CB4C4" stroke-width="0.2" mask="url(#path-1-outside-1_1214_273)"></path></svg>