<svg width="62" height="62" viewBox="0 0 62 62" fill="none" xmlns="http://www.w3.org/2000/svg"><mask id="path-1-outside-1_1214_239" maskUnits="userSpaceOnUse" x="0" y="0" width="62" height="62" fill="black"><rect fill="white" width="62" height="62"></rect><path d="M44.8968 48.6226C45.5561 48.1408 46.0461 47.4629 46.2969 46.6858C46.5476 45.9087 46.5462 45.0722 46.2928 44.2959C46.0394 43.5197 45.547 42.8434 44.886 42.3639C44.2251 41.8844 43.4295 41.6262 42.6129 41.6262C41.7963 41.6262 41.0007 41.8844 40.3397 42.3639C39.6788 42.8434 39.1864 43.5197 38.933 44.2959C38.6796 45.0722 38.6782 45.9087 38.9289 46.6858C39.1797 47.4629 39.6697 48.1408 40.329 48.6226C39.6543 48.8108 39.0274 49.1407 38.4903 49.5903C38.1675 48.5422 37.5544 47.6068 36.7221 46.8927C35.8897 46.1785 34.8721 45.7146 33.7871 45.5548C34.6273 44.9628 35.2571 44.1186 35.5854 43.1446C35.9136 42.1706 35.9231 41.1174 35.6126 40.1376C35.3021 39.1578 34.6876 38.3023 33.8583 37.6952C33.0289 37.088 32.0278 36.7607 31 36.7607C29.9722 36.7607 28.971 37.088 28.1417 37.6952C27.3124 38.3023 26.6979 39.1578 26.3874 40.1376C26.0769 41.1174 26.0864 42.1706 26.4146 43.1446C26.7429 44.1186 27.3727 44.9628 28.2129 45.5548C27.1279 45.7146 26.1103 46.1785 25.2779 46.8927C24.4455 47.6068 23.8325 48.5422 23.5097 49.5903C22.9726 49.1407 22.3457 48.8108 21.671 48.6226C22.3303 48.1408 22.8203 47.4629 23.0711 46.6858C23.3218 45.9087 23.3204 45.0722 23.067 44.2959C22.8136 43.5197 22.3212 42.8434 21.6602 42.3639C20.9993 41.8844 20.2037 41.6262 19.3871 41.6262C18.5705 41.6262 17.7749 41.8844 17.1139 42.3639C16.453 42.8434 15.9606 43.5197 15.7072 44.2959C15.4538 45.0722 15.4524 45.9087 15.7031 46.6858C15.9539 47.4629 16.4439 48.1408 17.1032 48.6226C16.0925 48.9082 15.2022 49.515 14.5668 50.3513C13.9313 51.1875 13.5852 52.2078 13.5806 53.2581V59.0645C13.5806 59.3212 13.6826 59.5673 13.8641 59.7488C14.0456 59.9303 14.2917 60.0323 14.5484 60.0323H23.2581C23.2581 60.2889 23.36 60.5351 23.5415 60.7166C23.723 60.898 23.9691 61 24.2258 61H37.7742C38.0308 61 38.277 60.898 38.4585 60.7166C38.64 60.5351 38.7419 60.2889 38.7419 60.0323H47.4516C47.7083 60.0323 47.9544 59.9303 48.1359 59.7488C48.3174 59.5673 48.4193 59.3212 48.4193 59.0645V53.2581C48.4148 52.2078 48.0687 51.1875 47.4332 50.3513C46.7978 49.515 45.9075 48.9082 44.8968 48.6226ZM19.3871 43.5806C19.7699 43.5806 20.1441 43.6942 20.4624 43.9068C20.7807 44.1195 21.0288 44.4218 21.1752 44.7755C21.3217 45.1291 21.3601 45.5183 21.2854 45.8937C21.2107 46.2692 21.0264 46.614 20.7557 46.8847C20.485 47.1554 20.1401 47.3397 19.7647 47.4144C19.3892 47.4891 19.0001 47.4508 18.6464 47.3043C18.2928 47.1578 17.9905 46.9097 17.7778 46.5914C17.5651 46.2731 17.4516 45.8989 17.4516 45.5161C17.4516 45.0028 17.6555 44.5105 18.0185 44.1475C18.3815 43.7846 18.8738 43.5806 19.3871 43.5806ZM23.2581 58.0968H15.5161V53.2581C15.5161 52.4881 15.822 51.7496 16.3665 51.2052C16.9109 50.6607 17.6494 50.3548 18.4194 50.3548H20.3548C21.1248 50.3548 21.8633 50.6607 22.4077 51.2052C22.9522 51.7496 23.2581 52.4881 23.2581 53.2581V58.0968ZM28.0968 41.6452C28.0968 41.071 28.267 40.5097 28.5861 40.0322C28.9051 39.5548 29.3585 39.1827 29.889 38.9629C30.4195 38.7432 31.0032 38.6857 31.5664 38.7977C32.1296 38.9097 32.6469 39.1863 33.0529 39.5923C33.4589 39.9983 33.7354 40.5156 33.8474 41.0788C33.9595 41.6419 33.902 42.2257 33.6822 42.7562C33.4625 43.2867 33.0904 43.7401 32.6129 44.0591C32.1355 44.3781 31.5742 44.5484 31 44.5484C30.23 44.5484 29.4916 44.2425 28.9471 43.6981C28.4026 43.1536 28.0968 42.4151 28.0968 41.6452ZM36.8064 59.0645H25.1935V51.3226C25.1935 50.2959 25.6014 49.3113 26.3273 48.5854C27.0533 47.8594 28.0379 47.4516 29.0645 47.4516H32.9355C33.9621 47.4516 34.9467 47.8594 35.6727 48.5854C36.3986 49.3113 36.8064 50.2959 36.8064 51.3226V59.0645ZM42.6129 43.5806C42.9957 43.5806 43.3699 43.6942 43.6882 43.9068C44.0065 44.1195 44.2546 44.4218 44.4011 44.7755C44.5475 45.1291 44.5859 45.5183 44.5112 45.8937C44.4365 46.2692 44.2522 46.614 43.9815 46.8847C43.7108 47.1554 43.3659 47.3397 42.9905 47.4144C42.615 47.4891 42.2259 47.4508 41.8722 47.3043C41.5186 47.1578 41.2163 46.9097 41.0036 46.5914C40.7909 46.2731 40.6774 45.8989 40.6774 45.5161C40.6774 45.0028 40.8813 44.5105 41.2443 44.1475C41.6073 43.7846 42.0996 43.5806 42.6129 43.5806ZM46.4839 58.0968H38.7419V53.2581C38.7419 52.4881 39.0478 51.7496 39.5923 51.2052C40.1367 50.6607 40.8752 50.3548 41.6452 50.3548H43.5806C44.3506 50.3548 45.0891 50.6607 45.6335 51.2052C46.178 51.7496 46.4839 52.4881 46.4839 53.2581V58.0968Z"></path><path d="M58.0968 1H3.90323C3.13324 1 2.3948 1.30587 1.85033 1.85033C1.30587 2.3948 1 3.13324 1 3.90323V52.2903C1 53.0603 1.30587 53.7987 1.85033 54.3432C2.3948 54.8877 3.13324 55.1935 3.90323 55.1935H10.6774V53.2581H3.90323C3.64656 53.2581 3.40042 53.1561 3.21893 52.9746C3.03744 52.7931 2.93548 52.547 2.93548 52.2903V8.74193H59.0645V52.2903C59.0645 52.547 58.9625 52.7931 58.7811 52.9746C58.5996 53.1561 58.3534 53.2581 58.0968 53.2581H51.3226V55.1935H58.0968C58.8667 55.1935 59.6052 54.8877 60.1497 54.3432C60.6941 53.7987 61 53.0603 61 52.2903V3.90323C61 3.13324 60.6941 2.3948 60.1497 1.85033C59.6052 1.30587 58.8667 1 58.0968 1ZM59.0645 6.80645H2.93548V3.90323C2.93548 3.64656 3.03744 3.40042 3.21893 3.21893C3.40042 3.03744 3.64656 2.93548 3.90323 2.93548H58.0968C58.3534 2.93548 58.5996 3.03744 58.7811 3.21893C58.9625 3.40042 59.0645 3.64656 59.0645 3.90323V6.80645Z"></path><path d="M58.0968 3.90323H56.1613V5.83871H58.0968V3.90323Z"></path><path d="M54.2258 3.90323H52.2903V5.83871H54.2258V3.90323Z"></path><path d="M50.3548 3.90323H48.4193V5.83871H50.3548V3.90323Z"></path><path d="M25.1935 30.4484V22.2903C25.1935 22.0337 25.0916 21.7875 24.9101 21.606C24.7286 21.4245 24.4825 21.3226 24.2258 21.3226H20.3548C20.0982 21.3226 19.852 21.4245 19.6705 21.606C19.4891 21.7875 19.3871 22.0337 19.3871 22.2903V31.3387C20.0161 31.2613 20.6548 31.1839 21.3226 31.0871V23.2581H23.2581V30.7968L25.1935 30.4484Z"></path><path d="M51.7871 25.271L52.2903 20.4322C52.3042 20.2835 52.2834 20.1337 52.2297 19.9943C52.176 19.855 52.0907 19.7299 51.9806 19.629C51.8703 19.5268 51.7376 19.4517 51.5931 19.4097C51.4486 19.3677 51.2964 19.3599 51.1484 19.3871L46.3871 20.2581L46.7355 22.1935L48.8258 21.8064C37.3871 33.7387 10.9581 33.9032 10.6774 33.9032V35.8387C11.8484 35.8387 37.9774 35.6839 50.0452 23.3355L49.8613 25.0677L51.7871 25.271Z"></path><path d="M33.9032 28.2516V17.4516C33.9032 17.1949 33.8013 16.9488 33.6198 16.7673C33.4383 16.5858 33.1921 16.4839 32.9355 16.4839H29.0645C28.8079 16.4839 28.5617 16.5858 28.3802 16.7673C28.1987 16.9488 28.0968 17.1949 28.0968 17.4516V29.8484C28.7355 29.7032 29.3839 29.5484 30.0323 29.3742V18.4194H31.9677V28.8419C32.6161 28.6581 33.2645 28.4548 33.9032 28.2516Z"></path><path d="M42.6129 24.3032V12.6129C42.6129 12.3562 42.5109 12.1101 42.3295 11.9286C42.148 11.7471 41.9018 11.6452 41.6452 11.6452H37.7742C37.5175 11.6452 37.2714 11.7471 37.0899 11.9286C36.9084 12.1101 36.8064 12.3562 36.8064 12.6129V27.1871C37.4645 26.9258 38.1032 26.6548 38.7419 26.3645V13.5806H40.6774V25.4161C41.3452 25.0677 41.9839 24.6903 42.6129 24.3032Z"></path></mask><path d="M44.8968 48.6226C45.5561 48.1408 46.0461 47.4629 46.2969 46.6858C46.5476 45.9087 46.5462 45.0722 46.2928 44.2959C46.0394 43.5197 45.547 42.8434 44.886 42.3639C44.2251 41.8844 43.4295 41.6262 42.6129 41.6262C41.7963 41.6262 41.0007 41.8844 40.3397 42.3639C39.6788 42.8434 39.1864 43.5197 38.933 44.2959C38.6796 45.0722 38.6782 45.9087 38.9289 46.6858C39.1797 47.4629 39.6697 48.1408 40.329 48.6226C39.6543 48.8108 39.0274 49.1407 38.4903 49.5903C38.1675 48.5422 37.5544 47.6068 36.7221 46.8927C35.8897 46.1785 34.8721 45.7146 33.7871 45.5548C34.6273 44.9628 35.2571 44.1186 35.5854 43.1446C35.9136 42.1706 35.9231 41.1174 35.6126 40.1376C35.3021 39.1578 34.6876 38.3023 33.8583 37.6952C33.0289 37.088 32.0278 36.7607 31 36.7607C29.9722 36.7607 28.971 37.088 28.1417 37.6952C27.3124 38.3023 26.6979 39.1578 26.3874 40.1376C26.0769 41.1174 26.0864 42.1706 26.4146 43.1446C26.7429 44.1186 27.3727 44.9628 28.2129 45.5548C27.1279 45.7146 26.1103 46.1785 25.2779 46.8927C24.4455 47.6068 23.8325 48.5422 23.5097 49.5903C22.9726 49.1407 22.3457 48.8108 21.671 48.6226C22.3303 48.1408 22.8203 47.4629 23.0711 46.6858C23.3218 45.9087 23.3204 45.0722 23.067 44.2959C22.8136 43.5197 22.3212 42.8434 21.6602 42.3639C20.9993 41.8844 20.2037 41.6262 19.3871 41.6262C18.5705 41.6262 17.7749 41.8844 17.1139 42.3639C16.453 42.8434 15.9606 43.5197 15.7072 44.2959C15.4538 45.0722 15.4524 45.9087 15.7031 46.6858C15.9539 47.4629 16.4439 48.1408 17.1032 48.6226C16.0925 48.9082 15.2022 49.515 14.5668 50.3513C13.9313 51.1875 13.5852 52.2078 13.5806 53.2581V59.0645C13.5806 59.3212 13.6826 59.5673 13.8641 59.7488C14.0456 59.9303 14.2917 60.0323 14.5484 60.0323H23.2581C23.2581 60.2889 23.36 60.5351 23.5415 60.7166C23.723 60.898 23.9691 61 24.2258 61H37.7742C38.0308 61 38.277 60.898 38.4585 60.7166C38.64 60.5351 38.7419 60.2889 38.7419 60.0323H47.4516C47.7083 60.0323 47.9544 59.9303 48.1359 59.7488C48.3174 59.5673 48.4193 59.3212 48.4193 59.0645V53.2581C48.4148 52.2078 48.0687 51.1875 47.4332 50.3513C46.7978 49.515 45.9075 48.9082 44.8968 48.6226ZM19.3871 43.5806C19.7699 43.5806 20.1441 43.6942 20.4624 43.9068C20.7807 44.1195 21.0288 44.4218 21.1752 44.7755C21.3217 45.1291 21.3601 45.5183 21.2854 45.8937C21.2107 46.2692 21.0264 46.614 20.7557 46.8847C20.485 47.1554 20.1401 47.3397 19.7647 47.4144C19.3892 47.4891 19.0001 47.4508 18.6464 47.3043C18.2928 47.1578 17.9905 46.9097 17.7778 46.5914C17.5651 46.2731 17.4516 45.8989 17.4516 45.5161C17.4516 45.0028 17.6555 44.5105 18.0185 44.1475C18.3815 43.7846 18.8738 43.5806 19.3871 43.5806ZM23.2581 58.0968H15.5161V53.2581C15.5161 52.4881 15.822 51.7496 16.3665 51.2052C16.9109 50.6607 17.6494 50.3548 18.4194 50.3548H20.3548C21.1248 50.3548 21.8633 50.6607 22.4077 51.2052C22.9522 51.7496 23.2581 52.4881 23.2581 53.2581V58.0968ZM28.0968 41.6452C28.0968 41.071 28.267 40.5097 28.5861 40.0322C28.9051 39.5548 29.3585 39.1827 29.889 38.9629C30.4195 38.7432 31.0032 38.6857 31.5664 38.7977C32.1296 38.9097 32.6469 39.1863 33.0529 39.5923C33.4589 39.9983 33.7354 40.5156 33.8474 41.0788C33.9595 41.6419 33.902 42.2257 33.6822 42.7562C33.4625 43.2867 33.0904 43.7401 32.6129 44.0591C32.1355 44.3781 31.5742 44.5484 31 44.5484C30.23 44.5484 29.4916 44.2425 28.9471 43.6981C28.4026 43.1536 28.0968 42.4151 28.0968 41.6452ZM36.8064 59.0645H25.1935V51.3226C25.1935 50.2959 25.6014 49.3113 26.3273 48.5854C27.0533 47.8594 28.0379 47.4516 29.0645 47.4516H32.9355C33.9621 47.4516 34.9467 47.8594 35.6727 48.5854C36.3986 49.3113 36.8064 50.2959 36.8064 51.3226V59.0645ZM42.6129 43.5806C42.9957 43.5806 43.3699 43.6942 43.6882 43.9068C44.0065 44.1195 44.2546 44.4218 44.4011 44.7755C44.5475 45.1291 44.5859 45.5183 44.5112 45.8937C44.4365 46.2692 44.2522 46.614 43.9815 46.8847C43.7108 47.1554 43.3659 47.3397 42.9905 47.4144C42.615 47.4891 42.2259 47.4508 41.8722 47.3043C41.5186 47.1578 41.2163 46.9097 41.0036 46.5914C40.7909 46.2731 40.6774 45.8989 40.6774 45.5161C40.6774 45.0028 40.8813 44.5105 41.2443 44.1475C41.6073 43.7846 42.0996 43.5806 42.6129 43.5806ZM46.4839 58.0968H38.7419V53.2581C38.7419 52.4881 39.0478 51.7496 39.5923 51.2052C40.1367 50.6607 40.8752 50.3548 41.6452 50.3548H43.5806C44.3506 50.3548 45.0891 50.6607 45.6335 51.2052C46.178 51.7496 46.4839 52.4881 46.4839 53.2581V58.0968Z" fill="#0CB4C4"></path><path d="M58.0968 1H3.90323C3.13324 1 2.3948 1.30587 1.85033 1.85033C1.30587 2.3948 1 3.13324 1 3.90323V52.2903C1 53.0603 1.30587 53.7987 1.85033 54.3432C2.3948 54.8877 3.13324 55.1935 3.90323 55.1935H10.6774V53.2581H3.90323C3.64656 53.2581 3.40042 53.1561 3.21893 52.9746C3.03744 52.7931 2.93548 52.547 2.93548 52.2903V8.74193H59.0645V52.2903C59.0645 52.547 58.9625 52.7931 58.7811 52.9746C58.5996 53.1561 58.3534 53.2581 58.0968 53.2581H51.3226V55.1935H58.0968C58.8667 55.1935 59.6052 54.8877 60.1497 54.3432C60.6941 53.7987 61 53.0603 61 52.2903V3.90323C61 3.13324 60.6941 2.3948 60.1497 1.85033C59.6052 1.30587 58.8667 1 58.0968 1ZM59.0645 6.80645H2.93548V3.90323C2.93548 3.64656 3.03744 3.40042 3.21893 3.21893C3.40042 3.03744 3.64656 2.93548 3.90323 2.93548H58.0968C58.3534 2.93548 58.5996 3.03744 58.7811 3.21893C58.9625 3.40042 59.0645 3.64656 59.0645 3.90323V6.80645Z" fill="#0CB4C4"></path><path d="M58.0968 3.90323H56.1613V5.83871H58.0968V3.90323Z" fill="#0CB4C4"></path><path d="M54.2258 3.90323H52.2903V5.83871H54.2258V3.90323Z" fill="#0CB4C4"></path><path d="M50.3548 3.90323H48.4193V5.83871H50.3548V3.90323Z" fill="#0CB4C4"></path><path d="M25.1935 30.4484V22.2903C25.1935 22.0337 25.0916 21.7875 24.9101 21.606C24.7286 21.4245 24.4825 21.3226 24.2258 21.3226H20.3548C20.0982 21.3226 19.852 21.4245 19.6705 21.606C19.4891 21.7875 19.3871 22.0337 19.3871 22.2903V31.3387C20.0161 31.2613 20.6548 31.1839 21.3226 31.0871V23.2581H23.2581V30.7968L25.1935 30.4484Z" fill="#0CB4C4"></path><path d="M51.7871 25.271L52.2903 20.4322C52.3042 20.2835 52.2834 20.1337 52.2297 19.9943C52.176 19.855 52.0907 19.7299 51.9806 19.629C51.8703 19.5268 51.7376 19.4517 51.5931 19.4097C51.4486 19.3677 51.2964 19.3599 51.1484 19.3871L46.3871 20.2581L46.7355 22.1935L48.8258 21.8064C37.3871 33.7387 10.9581 33.9032 10.6774 33.9032V35.8387C11.8484 35.8387 37.9774 35.6839 50.0452 23.3355L49.8613 25.0677L51.7871 25.271Z" fill="#0CB4C4"></path><path d="M33.9032 28.2516V17.4516C33.9032 17.1949 33.8013 16.9488 33.6198 16.7673C33.4383 16.5858 33.1921 16.4839 32.9355 16.4839H29.0645C28.8079 16.4839 28.5617 16.5858 28.3802 16.7673C28.1987 16.9488 28.0968 17.1949 28.0968 17.4516V29.8484C28.7355 29.7032 29.3839 29.5484 30.0323 29.3742V18.4194H31.9677V28.8419C32.6161 28.6581 33.2645 28.4548 33.9032 28.2516Z" fill="#0CB4C4"></path><path d="M42.6129 24.3032V12.6129C42.6129 12.3562 42.5109 12.1101 42.3295 11.9286C42.148 11.7471 41.9018 11.6452 41.6452 11.6452H37.7742C37.5175 11.6452 37.2714 11.7471 37.0899 11.9286C36.9084 12.1101 36.8064 12.3562 36.8064 12.6129V27.1871C37.4645 26.9258 38.1032 26.6548 38.7419 26.3645V13.5806H40.6774V25.4161C41.3452 25.0677 41.9839 24.6903 42.6129 24.3032Z" fill="#0CB4C4"></path><path d="M44.8968 48.6226C45.5561 48.1408 46.0461 47.4629 46.2969 46.6858C46.5476 45.9087 46.5462 45.0722 46.2928 44.2959C46.0394 43.5197 45.547 42.8434 44.886 42.3639C44.2251 41.8844 43.4295 41.6262 42.6129 41.6262C41.7963 41.6262 41.0007 41.8844 40.3397 42.3639C39.6788 42.8434 39.1864 43.5197 38.933 44.2959C38.6796 45.0722 38.6782 45.9087 38.9289 46.6858C39.1797 47.4629 39.6697 48.1408 40.329 48.6226C39.6543 48.8108 39.0274 49.1407 38.4903 49.5903C38.1675 48.5422 37.5544 47.6068 36.7221 46.8927C35.8897 46.1785 34.8721 45.7146 33.7871 45.5548C34.6273 44.9628 35.2571 44.1186 35.5854 43.1446C35.9136 42.1706 35.9231 41.1174 35.6126 40.1376C35.3021 39.1578 34.6876 38.3023 33.8583 37.6952C33.0289 37.088 32.0278 36.7607 31 36.7607C29.9722 36.7607 28.971 37.088 28.1417 37.6952C27.3124 38.3023 26.6979 39.1578 26.3874 40.1376C26.0769 41.1174 26.0864 42.1706 26.4146 43.1446C26.7429 44.1186 27.3727 44.9628 28.2129 45.5548C27.1279 45.7146 26.1103 46.1785 25.2779 46.8927C24.4455 47.6068 23.8325 48.5422 23.5097 49.5903C22.9726 49.1407 22.3457 48.8108 21.671 48.6226C22.3303 48.1408 22.8203 47.4629 23.0711 46.6858C23.3218 45.9087 23.3204 45.0722 23.067 44.2959C22.8136 43.5197 22.3212 42.8434 21.6602 42.3639C20.9993 41.8844 20.2037 41.6262 19.3871 41.6262C18.5705 41.6262 17.7749 41.8844 17.1139 42.3639C16.453 42.8434 15.9606 43.5197 15.7072 44.2959C15.4538 45.0722 15.4524 45.9087 15.7031 46.6858C15.9539 47.4629 16.4439 48.1408 17.1032 48.6226C16.0925 48.9082 15.2022 49.515 14.5668 50.3513C13.9313 51.1875 13.5852 52.2078 13.5806 53.2581V59.0645C13.5806 59.3212 13.6826 59.5673 13.8641 59.7488C14.0456 59.9303 14.2917 60.0323 14.5484 60.0323H23.2581C23.2581 60.2889 23.36 60.5351 23.5415 60.7166C23.723 60.898 23.9691 61 24.2258 61H37.7742C38.0308 61 38.277 60.898 38.4585 60.7166C38.64 60.5351 38.7419 60.2889 38.7419 60.0323H47.4516C47.7083 60.0323 47.9544 59.9303 48.1359 59.7488C48.3174 59.5673 48.4193 59.3212 48.4193 59.0645V53.2581C48.4148 52.2078 48.0687 51.1875 47.4332 50.3513C46.7978 49.515 45.9075 48.9082 44.8968 48.6226ZM19.3871 43.5806C19.7699 43.5806 20.1441 43.6942 20.4624 43.9068C20.7807 44.1195 21.0288 44.4218 21.1752 44.7755C21.3217 45.1291 21.3601 45.5183 21.2854 45.8937C21.2107 46.2692 21.0264 46.614 20.7557 46.8847C20.485 47.1554 20.1401 47.3397 19.7647 47.4144C19.3892 47.4891 19.0001 47.4508 18.6464 47.3043C18.2928 47.1578 17.9905 46.9097 17.7778 46.5914C17.5651 46.2731 17.4516 45.8989 17.4516 45.5161C17.4516 45.0028 17.6555 44.5105 18.0185 44.1475C18.3815 43.7846 18.8738 43.5806 19.3871 43.5806ZM23.2581 58.0968H15.5161V53.2581C15.5161 52.4881 15.822 51.7496 16.3665 51.2052C16.9109 50.6607 17.6494 50.3548 18.4194 50.3548H20.3548C21.1248 50.3548 21.8633 50.6607 22.4077 51.2052C22.9522 51.7496 23.2581 52.4881 23.2581 53.2581V58.0968ZM28.0968 41.6452C28.0968 41.071 28.267 40.5097 28.5861 40.0322C28.9051 39.5548 29.3585 39.1827 29.889 38.9629C30.4195 38.7432 31.0032 38.6857 31.5664 38.7977C32.1296 38.9097 32.6469 39.1863 33.0529 39.5923C33.4589 39.9983 33.7354 40.5156 33.8474 41.0788C33.9595 41.6419 33.902 42.2257 33.6822 42.7562C33.4625 43.2867 33.0904 43.7401 32.6129 44.0591C32.1355 44.3781 31.5742 44.5484 31 44.5484C30.23 44.5484 29.4916 44.2425 28.9471 43.6981C28.4026 43.1536 28.0968 42.4151 28.0968 41.6452ZM36.8064 59.0645H25.1935V51.3226C25.1935 50.2959 25.6014 49.3113 26.3273 48.5854C27.0533 47.8594 28.0379 47.4516 29.0645 47.4516H32.9355C33.9621 47.4516 34.9467 47.8594 35.6727 48.5854C36.3986 49.3113 36.8064 50.2959 36.8064 51.3226V59.0645ZM42.6129 43.5806C42.9957 43.5806 43.3699 43.6942 43.6882 43.9068C44.0065 44.1195 44.2546 44.4218 44.4011 44.7755C44.5475 45.1291 44.5859 45.5183 44.5112 45.8937C44.4365 46.2692 44.2522 46.614 43.9815 46.8847C43.7108 47.1554 43.3659 47.3397 42.9905 47.4144C42.615 47.4891 42.2259 47.4508 41.8722 47.3043C41.5186 47.1578 41.2163 46.9097 41.0036 46.5914C40.7909 46.2731 40.6774 45.8989 40.6774 45.5161C40.6774 45.0028 40.8813 44.5105 41.2443 44.1475C41.6073 43.7846 42.0996 43.5806 42.6129 43.5806ZM46.4839 58.0968H38.7419V53.2581C38.7419 52.4881 39.0478 51.7496 39.5923 51.2052C40.1367 50.6607 40.8752 50.3548 41.6452 50.3548H43.5806C44.3506 50.3548 45.0891 50.6607 45.6335 51.2052C46.178 51.7496 46.4839 52.4881 46.4839 53.2581V58.0968Z" stroke="#0CB4C4" stroke-width="0.2" mask="url(#path-1-outside-1_1214_239)"></path><path d="M58.0968 1H3.90323C3.13324 1 2.3948 1.30587 1.85033 1.85033C1.30587 2.3948 1 3.13324 1 3.90323V52.2903C1 53.0603 1.30587 53.7987 1.85033 54.3432C2.3948 54.8877 3.13324 55.1935 3.90323 55.1935H10.6774V53.2581H3.90323C3.64656 53.2581 3.40042 53.1561 3.21893 52.9746C3.03744 52.7931 2.93548 52.547 2.93548 52.2903V8.74193H59.0645V52.2903C59.0645 52.547 58.9625 52.7931 58.7811 52.9746C58.5996 53.1561 58.3534 53.2581 58.0968 53.2581H51.3226V55.1935H58.0968C58.8667 55.1935 59.6052 54.8877 60.1497 54.3432C60.6941 53.7987 61 53.0603 61 52.2903V3.90323C61 3.13324 60.6941 2.3948 60.1497 1.85033C59.6052 1.30587 58.8667 1 58.0968 1ZM59.0645 6.80645H2.93548V3.90323C2.93548 3.64656 3.03744 3.40042 3.21893 3.21893C3.40042 3.03744 3.64656 2.93548 3.90323 2.93548H58.0968C58.3534 2.93548 58.5996 3.03744 58.7811 3.21893C58.9625 3.40042 59.0645 3.64656 59.0645 3.90323V6.80645Z" stroke="#0CB4C4" stroke-width="0.2" mask="url(#path-1-outside-1_1214_239)"></path><path d="M58.0968 3.90323H56.1613V5.83871H58.0968V3.90323Z" stroke="#0CB4C4" stroke-width="0.2" mask="url(#path-1-outside-1_1214_239)"></path><path d="M54.2258 3.90323H52.2903V5.83871H54.2258V3.90323Z" stroke="#0CB4C4" stroke-width="0.2" mask="url(#path-1-outside-1_1214_239)"></path><path d="M50.3548 3.90323H48.4193V5.83871H50.3548V3.90323Z" stroke="#0CB4C4" stroke-width="0.2" mask="url(#path-1-outside-1_1214_239)"></path><path d="M25.1935 30.4484V22.2903C25.1935 22.0337 25.0916 21.7875 24.9101 21.606C24.7286 21.4245 24.4825 21.3226 24.2258 21.3226H20.3548C20.0982 21.3226 19.852 21.4245 19.6705 21.606C19.4891 21.7875 19.3871 22.0337 19.3871 22.2903V31.3387C20.0161 31.2613 20.6548 31.1839 21.3226 31.0871V23.2581H23.2581V30.7968L25.1935 30.4484Z" stroke="#0CB4C4" stroke-width="0.2" mask="url(#path-1-outside-1_1214_239)"></path><path d="M51.7871 25.271L52.2903 20.4322C52.3042 20.2835 52.2834 20.1337 52.2297 19.9943C52.176 19.855 52.0907 19.7299 51.9806 19.629C51.8703 19.5268 51.7376 19.4517 51.5931 19.4097C51.4486 19.3677 51.2964 19.3599 51.1484 19.3871L46.3871 20.2581L46.7355 22.1935L48.8258 21.8064C37.3871 33.7387 10.9581 33.9032 10.6774 33.9032V35.8387C11.8484 35.8387 37.9774 35.6839 50.0452 23.3355L49.8613 25.0677L51.7871 25.271Z" stroke="#0CB4C4" stroke-width="0.2" mask="url(#path-1-outside-1_1214_239)"></path><path d="M33.9032 28.2516V17.4516C33.9032 17.1949 33.8013 16.9488 33.6198 16.7673C33.4383 16.5858 33.1921 16.4839 32.9355 16.4839H29.0645C28.8079 16.4839 28.5617 16.5858 28.3802 16.7673C28.1987 16.9488 28.0968 17.1949 28.0968 17.4516V29.8484C28.7355 29.7032 29.3839 29.5484 30.0323 29.3742V18.4194H31.9677V28.8419C32.6161 28.6581 33.2645 28.4548 33.9032 28.2516Z" stroke="#0CB4C4" stroke-width="0.2" mask="url(#path-1-outside-1_1214_239)"></path><path d="M42.6129 24.3032V12.6129C42.6129 12.3562 42.5109 12.1101 42.3295 11.9286C42.148 11.7471 41.9018 11.6452 41.6452 11.6452H37.7742C37.5175 11.6452 37.2714 11.7471 37.0899 11.9286C36.9084 12.1101 36.8064 12.3562 36.8064 12.6129V27.1871C37.4645 26.9258 38.1032 26.6548 38.7419 26.3645V13.5806H40.6774V25.4161C41.3452 25.0677 41.9839 24.6903 42.6129 24.3032Z" stroke="#0CB4C4" stroke-width="0.2" mask="url(#path-1-outside-1_1214_239)"></path></svg>