<svg width="55" height="62" viewBox="0 0 55 62" fill="none" xmlns="http://www.w3.org/2000/svg"><mask id="path-1-outside-1_1214_243" maskUnits="userSpaceOnUse" x="0" y="0" width="55" height="62" fill="black"><rect fill="white" width="55" height="62"></rect><path d="M1 29.0781V41.3125C1 42.8594 2.26563 44.125 3.8125 44.125H6.15625V49.2812C6.15625 50.3125 7 51.1562 8.03125 51.1562H16.4688C17.5 51.1562 18.3438 50.3125 18.3438 49.2812V44.125H20.6875C22.2344 44.125 23.5 42.8594 23.5 41.3125V29.0781C23.4531 27.0156 21.7656 25.3281 19.7031 25.375H4.79688C2.73438 25.3281 1.04688 27.0156 1 29.0781ZM12.25 27.25L13.7031 35.6406L12.25 37.0937L10.7969 35.6406L12.25 27.25ZM9.48438 37L10.9375 38.4531C11.6875 39.1562 12.8594 39.1562 13.5625 38.4531L15.0156 37C15.4375 36.5781 15.6719 35.9687 15.5312 35.3594L14.125 27.2969H19.6562C20.6875 27.25 21.5781 28.0937 21.5781 29.125V41.3125C21.5781 41.8281 21.1563 42.25 20.6406 42.25H18.2969V39.9062C18.2969 39.3906 17.875 38.9687 17.3594 38.9687C16.8438 38.9687 16.4219 39.3906 16.4219 39.9062V49.2812H13.1406V42.625C13.1406 42.1094 12.7187 41.6875 12.2031 41.6875C11.6875 41.6875 11.2656 42.1094 11.2656 42.625V49.2812H7.98437V39.9062C7.98437 39.3906 7.5625 38.9687 7.04687 38.9687C6.53125 38.9687 6.10937 39.3906 6.10937 39.9062V42.25H3.76562C3.25 42.25 2.82812 41.8281 2.82812 41.3125V29.0781C2.875 28.0469 3.71875 27.2031 4.75 27.25H10.2812L8.875 35.3125C8.82812 35.9219 9.01563 36.5781 9.48438 37Z"></path><path d="M18.8125 16.9375C18.8125 13.3281 15.8594 10.375 12.25 10.375C8.64063 10.375 5.6875 13.3281 5.6875 16.9375C5.6875 20.5469 8.64063 23.5 12.25 23.5C15.8594 23.5 18.8125 20.5469 18.8125 16.9375ZM7.5625 16.9375C7.5625 14.3594 9.67188 12.25 12.25 12.25C14.8281 12.25 16.9375 14.3594 16.9375 16.9375C16.9375 19.5156 14.8281 21.625 12.25 21.625C9.67188 21.625 7.5625 19.5156 7.5625 16.9375Z"></path><path d="M35.6875 17.875H49.75C50.2656 17.875 50.6875 17.4531 50.6875 16.9375C50.6875 16.4219 50.2656 16 49.75 16H35.6875C35.1719 16 34.75 16.4219 34.75 16.9375C34.75 17.4531 35.1719 17.875 35.6875 17.875Z"></path><path d="M27.25 20.6875H31C32.0313 20.6875 32.875 19.8438 32.875 18.8125V15.0625C32.875 14.0312 32.0313 13.1875 31 13.1875H27.25C26.2187 13.1875 25.375 14.0312 25.375 15.0625V18.8125C25.375 19.8438 26.2187 20.6875 27.25 20.6875ZM27.25 15.0625H31V18.8125H27.25V15.0625Z"></path><path d="M35.6875 27.25H49.75C50.2656 27.25 50.6875 26.8281 50.6875 26.3125C50.6875 25.7969 50.2656 25.375 49.75 25.375H35.6875C35.1719 25.375 34.75 25.7969 34.75 26.3125C34.75 26.8281 35.1719 27.25 35.6875 27.25Z"></path><path d="M25.375 28.1875C25.375 29.2188 26.2187 30.0625 27.25 30.0625H31C32.0313 30.0625 32.875 29.2188 32.875 28.1875V24.4375C32.875 23.4062 32.0313 22.5625 31 22.5625H27.25C26.2187 22.5625 25.375 23.4062 25.375 24.4375V28.1875ZM27.25 24.4375H31V28.1875H27.25V24.4375Z"></path><path d="M35.6875 36.625H49.75C50.2656 36.625 50.6875 36.2031 50.6875 35.6875C50.6875 35.1719 50.2656 34.75 49.75 34.75H35.6875C35.1719 34.75 34.75 35.1719 34.75 35.6875C34.75 36.2031 35.1719 36.625 35.6875 36.625Z"></path><path d="M25.375 37.5625C25.375 38.5938 26.2187 39.4375 27.25 39.4375H31C32.0313 39.4375 32.875 38.5938 32.875 37.5625V33.8125C32.875 32.7812 32.0313 31.9375 31 31.9375H27.25C26.2187 31.9375 25.375 32.7812 25.375 33.8125V37.5625ZM27.25 33.8125H31V37.5625H27.25V33.8125Z"></path><path d="M35.6875 46H49.75C50.2656 46 50.6875 45.5781 50.6875 45.0625C50.6875 44.5469 50.2656 44.125 49.75 44.125H35.6875C35.1719 44.125 34.75 44.5469 34.75 45.0625C34.75 45.5781 35.1719 46 35.6875 46Z"></path><path d="M25.375 46.9375C25.375 47.9688 26.2187 48.8125 27.25 48.8125H31C32.0313 48.8125 32.875 47.9688 32.875 46.9375V43.1875C32.875 42.1562 32.0313 41.3125 31 41.3125H27.25C26.2187 41.3125 25.375 42.1562 25.375 43.1875V46.9375ZM27.25 43.1875H31V46.9375H27.25V43.1875Z"></path><path d="M54.4375 49.4219V4.75C54.4375 2.6875 52.75 1 50.6875 1H15.0625C13 1 11.3125 2.6875 11.3125 4.75V7.5625C11.3125 8.07813 11.7344 8.5 12.25 8.5C12.7656 8.5 13.1875 8.07813 13.1875 7.5625V7.09375H52.5625V48.3438H45.9063C43.8906 48.3438 42.25 49.9844 42.25 52V59.125H15.0625C14.0312 59.125 13.1875 58.2813 13.1875 57.25V53.9688C13.1875 53.4531 12.7656 53.0312 12.25 53.0312C11.7344 53.0312 11.3125 53.4531 11.3125 53.9688V57.25C11.3125 59.3125 13 61 15.0625 61H42.8594C43.2344 60.7656 43.5625 60.5313 43.8906 60.25L53.875 50.2656C54.2031 50.125 54.4375 49.7969 54.4375 49.4219ZM44.125 57.3437V52C44.125 51.0156 44.9219 50.2188 45.9063 50.2188H51.25L44.125 57.3437ZM13.1875 4.75C13.1875 3.71875 14.0312 2.875 15.0625 2.875H50.6875C51.7188 2.875 52.5625 3.71875 52.5625 4.75H13.1875Z"></path></mask><path d="M1 29.0781V41.3125C1 42.8594 2.26563 44.125 3.8125 44.125H6.15625V49.2812C6.15625 50.3125 7 51.1562 8.03125 51.1562H16.4688C17.5 51.1562 18.3438 50.3125 18.3438 49.2812V44.125H20.6875C22.2344 44.125 23.5 42.8594 23.5 41.3125V29.0781C23.4531 27.0156 21.7656 25.3281 19.7031 25.375H4.79688C2.73438 25.3281 1.04688 27.0156 1 29.0781ZM12.25 27.25L13.7031 35.6406L12.25 37.0937L10.7969 35.6406L12.25 27.25ZM9.48438 37L10.9375 38.4531C11.6875 39.1562 12.8594 39.1562 13.5625 38.4531L15.0156 37C15.4375 36.5781 15.6719 35.9687 15.5312 35.3594L14.125 27.2969H19.6562C20.6875 27.25 21.5781 28.0937 21.5781 29.125V41.3125C21.5781 41.8281 21.1563 42.25 20.6406 42.25H18.2969V39.9062C18.2969 39.3906 17.875 38.9687 17.3594 38.9687C16.8438 38.9687 16.4219 39.3906 16.4219 39.9062V49.2812H13.1406V42.625C13.1406 42.1094 12.7187 41.6875 12.2031 41.6875C11.6875 41.6875 11.2656 42.1094 11.2656 42.625V49.2812H7.98437V39.9062C7.98437 39.3906 7.5625 38.9687 7.04687 38.9687C6.53125 38.9687 6.10937 39.3906 6.10937 39.9062V42.25H3.76562C3.25 42.25 2.82812 41.8281 2.82812 41.3125V29.0781C2.875 28.0469 3.71875 27.2031 4.75 27.25H10.2812L8.875 35.3125C8.82812 35.9219 9.01563 36.5781 9.48438 37Z" fill="#0CB4C4"></path><path d="M18.8125 16.9375C18.8125 13.3281 15.8594 10.375 12.25 10.375C8.64063 10.375 5.6875 13.3281 5.6875 16.9375C5.6875 20.5469 8.64063 23.5 12.25 23.5C15.8594 23.5 18.8125 20.5469 18.8125 16.9375ZM7.5625 16.9375C7.5625 14.3594 9.67188 12.25 12.25 12.25C14.8281 12.25 16.9375 14.3594 16.9375 16.9375C16.9375 19.5156 14.8281 21.625 12.25 21.625C9.67188 21.625 7.5625 19.5156 7.5625 16.9375Z" fill="#0CB4C4"></path><path d="M35.6875 17.875H49.75C50.2656 17.875 50.6875 17.4531 50.6875 16.9375C50.6875 16.4219 50.2656 16 49.75 16H35.6875C35.1719 16 34.75 16.4219 34.75 16.9375C34.75 17.4531 35.1719 17.875 35.6875 17.875Z" fill="#0CB4C4"></path><path d="M27.25 20.6875H31C32.0313 20.6875 32.875 19.8438 32.875 18.8125V15.0625C32.875 14.0312 32.0313 13.1875 31 13.1875H27.25C26.2187 13.1875 25.375 14.0312 25.375 15.0625V18.8125C25.375 19.8438 26.2187 20.6875 27.25 20.6875ZM27.25 15.0625H31V18.8125H27.25V15.0625Z" fill="#0CB4C4"></path><path d="M35.6875 27.25H49.75C50.2656 27.25 50.6875 26.8281 50.6875 26.3125C50.6875 25.7969 50.2656 25.375 49.75 25.375H35.6875C35.1719 25.375 34.75 25.7969 34.75 26.3125C34.75 26.8281 35.1719 27.25 35.6875 27.25Z" fill="#0CB4C4"></path><path d="M25.375 28.1875C25.375 29.2188 26.2187 30.0625 27.25 30.0625H31C32.0313 30.0625 32.875 29.2188 32.875 28.1875V24.4375C32.875 23.4062 32.0313 22.5625 31 22.5625H27.25C26.2187 22.5625 25.375 23.4062 25.375 24.4375V28.1875ZM27.25 24.4375H31V28.1875H27.25V24.4375Z" fill="#0CB4C4"></path><path d="M35.6875 36.625H49.75C50.2656 36.625 50.6875 36.2031 50.6875 35.6875C50.6875 35.1719 50.2656 34.75 49.75 34.75H35.6875C35.1719 34.75 34.75 35.1719 34.75 35.6875C34.75 36.2031 35.1719 36.625 35.6875 36.625Z" fill="#0CB4C4"></path><path d="M25.375 37.5625C25.375 38.5938 26.2187 39.4375 27.25 39.4375H31C32.0313 39.4375 32.875 38.5938 32.875 37.5625V33.8125C32.875 32.7812 32.0313 31.9375 31 31.9375H27.25C26.2187 31.9375 25.375 32.7812 25.375 33.8125V37.5625ZM27.25 33.8125H31V37.5625H27.25V33.8125Z" fill="#0CB4C4"></path><path d="M35.6875 46H49.75C50.2656 46 50.6875 45.5781 50.6875 45.0625C50.6875 44.5469 50.2656 44.125 49.75 44.125H35.6875C35.1719 44.125 34.75 44.5469 34.75 45.0625C34.75 45.5781 35.1719 46 35.6875 46Z" fill="#0CB4C4"></path><path d="M25.375 46.9375C25.375 47.9688 26.2187 48.8125 27.25 48.8125H31C32.0313 48.8125 32.875 47.9688 32.875 46.9375V43.1875C32.875 42.1562 32.0313 41.3125 31 41.3125H27.25C26.2187 41.3125 25.375 42.1562 25.375 43.1875V46.9375ZM27.25 43.1875H31V46.9375H27.25V43.1875Z" fill="#0CB4C4"></path><path d="M54.4375 49.4219V4.75C54.4375 2.6875 52.75 1 50.6875 1H15.0625C13 1 11.3125 2.6875 11.3125 4.75V7.5625C11.3125 8.07813 11.7344 8.5 12.25 8.5C12.7656 8.5 13.1875 8.07813 13.1875 7.5625V7.09375H52.5625V48.3438H45.9063C43.8906 48.3438 42.25 49.9844 42.25 52V59.125H15.0625C14.0312 59.125 13.1875 58.2813 13.1875 57.25V53.9688C13.1875 53.4531 12.7656 53.0312 12.25 53.0312C11.7344 53.0312 11.3125 53.4531 11.3125 53.9688V57.25C11.3125 59.3125 13 61 15.0625 61H42.8594C43.2344 60.7656 43.5625 60.5313 43.8906 60.25L53.875 50.2656C54.2031 50.125 54.4375 49.7969 54.4375 49.4219ZM44.125 57.3437V52C44.125 51.0156 44.9219 50.2188 45.9063 50.2188H51.25L44.125 57.3437ZM13.1875 4.75C13.1875 3.71875 14.0312 2.875 15.0625 2.875H50.6875C51.7188 2.875 52.5625 3.71875 52.5625 4.75H13.1875Z" fill="#0CB4C4"></path><path d="M1 29.0781V41.3125C1 42.8594 2.26563 44.125 3.8125 44.125H6.15625V49.2812C6.15625 50.3125 7 51.1562 8.03125 51.1562H16.4688C17.5 51.1562 18.3438 50.3125 18.3438 49.2812V44.125H20.6875C22.2344 44.125 23.5 42.8594 23.5 41.3125V29.0781C23.4531 27.0156 21.7656 25.3281 19.7031 25.375H4.79688C2.73438 25.3281 1.04688 27.0156 1 29.0781ZM12.25 27.25L13.7031 35.6406L12.25 37.0937L10.7969 35.6406L12.25 27.25ZM9.48438 37L10.9375 38.4531C11.6875 39.1562 12.8594 39.1562 13.5625 38.4531L15.0156 37C15.4375 36.5781 15.6719 35.9687 15.5312 35.3594L14.125 27.2969H19.6562C20.6875 27.25 21.5781 28.0937 21.5781 29.125V41.3125C21.5781 41.8281 21.1563 42.25 20.6406 42.25H18.2969V39.9062C18.2969 39.3906 17.875 38.9687 17.3594 38.9687C16.8438 38.9687 16.4219 39.3906 16.4219 39.9062V49.2812H13.1406V42.625C13.1406 42.1094 12.7187 41.6875 12.2031 41.6875C11.6875 41.6875 11.2656 42.1094 11.2656 42.625V49.2812H7.98437V39.9062C7.98437 39.3906 7.5625 38.9687 7.04687 38.9687C6.53125 38.9687 6.10937 39.3906 6.10937 39.9062V42.25H3.76562C3.25 42.25 2.82812 41.8281 2.82812 41.3125V29.0781C2.875 28.0469 3.71875 27.2031 4.75 27.25H10.2812L8.875 35.3125C8.82812 35.9219 9.01563 36.5781 9.48438 37Z" stroke="#0CB4C4" stroke-width="0.2" mask="url(#path-1-outside-1_1214_243)"></path><path d="M18.8125 16.9375C18.8125 13.3281 15.8594 10.375 12.25 10.375C8.64063 10.375 5.6875 13.3281 5.6875 16.9375C5.6875 20.5469 8.64063 23.5 12.25 23.5C15.8594 23.5 18.8125 20.5469 18.8125 16.9375ZM7.5625 16.9375C7.5625 14.3594 9.67188 12.25 12.25 12.25C14.8281 12.25 16.9375 14.3594 16.9375 16.9375C16.9375 19.5156 14.8281 21.625 12.25 21.625C9.67188 21.625 7.5625 19.5156 7.5625 16.9375Z" stroke="#0CB4C4" stroke-width="0.2" mask="url(#path-1-outside-1_1214_243)"></path><path d="M35.6875 17.875H49.75C50.2656 17.875 50.6875 17.4531 50.6875 16.9375C50.6875 16.4219 50.2656 16 49.75 16H35.6875C35.1719 16 34.75 16.4219 34.75 16.9375C34.75 17.4531 35.1719 17.875 35.6875 17.875Z" stroke="#0CB4C4" stroke-width="0.2" mask="url(#path-1-outside-1_1214_243)"></path><path d="M27.25 20.6875H31C32.0313 20.6875 32.875 19.8438 32.875 18.8125V15.0625C32.875 14.0312 32.0313 13.1875 31 13.1875H27.25C26.2187 13.1875 25.375 14.0312 25.375 15.0625V18.8125C25.375 19.8438 26.2187 20.6875 27.25 20.6875ZM27.25 15.0625H31V18.8125H27.25V15.0625Z" stroke="#0CB4C4" stroke-width="0.2" mask="url(#path-1-outside-1_1214_243)"></path><path d="M35.6875 27.25H49.75C50.2656 27.25 50.6875 26.8281 50.6875 26.3125C50.6875 25.7969 50.2656 25.375 49.75 25.375H35.6875C35.1719 25.375 34.75 25.7969 34.75 26.3125C34.75 26.8281 35.1719 27.25 35.6875 27.25Z" stroke="#0CB4C4" stroke-width="0.2" mask="url(#path-1-outside-1_1214_243)"></path><path d="M25.375 28.1875C25.375 29.2188 26.2187 30.0625 27.25 30.0625H31C32.0313 30.0625 32.875 29.2188 32.875 28.1875V24.4375C32.875 23.4062 32.0313 22.5625 31 22.5625H27.25C26.2187 22.5625 25.375 23.4062 25.375 24.4375V28.1875ZM27.25 24.4375H31V28.1875H27.25V24.4375Z" stroke="#0CB4C4" stroke-width="0.2" mask="url(#path-1-outside-1_1214_243)"></path><path d="M35.6875 36.625H49.75C50.2656 36.625 50.6875 36.2031 50.6875 35.6875C50.6875 35.1719 50.2656 34.75 49.75 34.75H35.6875C35.1719 34.75 34.75 35.1719 34.75 35.6875C34.75 36.2031 35.1719 36.625 35.6875 36.625Z" stroke="#0CB4C4" stroke-width="0.2" mask="url(#path-1-outside-1_1214_243)"></path><path d="M25.375 37.5625C25.375 38.5938 26.2187 39.4375 27.25 39.4375H31C32.0313 39.4375 32.875 38.5938 32.875 37.5625V33.8125C32.875 32.7812 32.0313 31.9375 31 31.9375H27.25C26.2187 31.9375 25.375 32.7812 25.375 33.8125V37.5625ZM27.25 33.8125H31V37.5625H27.25V33.8125Z" stroke="#0CB4C4" stroke-width="0.2" mask="url(#path-1-outside-1_1214_243)"></path><path d="M35.6875 46H49.75C50.2656 46 50.6875 45.5781 50.6875 45.0625C50.6875 44.5469 50.2656 44.125 49.75 44.125H35.6875C35.1719 44.125 34.75 44.5469 34.75 45.0625C34.75 45.5781 35.1719 46 35.6875 46Z" stroke="#0CB4C4" stroke-width="0.2" mask="url(#path-1-outside-1_1214_243)"></path><path d="M25.375 46.9375C25.375 47.9688 26.2187 48.8125 27.25 48.8125H31C32.0313 48.8125 32.875 47.9688 32.875 46.9375V43.1875C32.875 42.1562 32.0313 41.3125 31 41.3125H27.25C26.2187 41.3125 25.375 42.1562 25.375 43.1875V46.9375ZM27.25 43.1875H31V46.9375H27.25V43.1875Z" stroke="#0CB4C4" stroke-width="0.2" mask="url(#path-1-outside-1_1214_243)"></path><path d="M54.4375 49.4219V4.75C54.4375 2.6875 52.75 1 50.6875 1H15.0625C13 1 11.3125 2.6875 11.3125 4.75V7.5625C11.3125 8.07813 11.7344 8.5 12.25 8.5C12.7656 8.5 13.1875 8.07813 13.1875 7.5625V7.09375H52.5625V48.3438H45.9063C43.8906 48.3438 42.25 49.9844 42.25 52V59.125H15.0625C14.0312 59.125 13.1875 58.2813 13.1875 57.25V53.9688C13.1875 53.4531 12.7656 53.0312 12.25 53.0312C11.7344 53.0312 11.3125 53.4531 11.3125 53.9688V57.25C11.3125 59.3125 13 61 15.0625 61H42.8594C43.2344 60.7656 43.5625 60.5313 43.8906 60.25L53.875 50.2656C54.2031 50.125 54.4375 49.7969 54.4375 49.4219ZM44.125 57.3437V52C44.125 51.0156 44.9219 50.2188 45.9063 50.2188H51.25L44.125 57.3437ZM13.1875 4.75C13.1875 3.71875 14.0312 2.875 15.0625 2.875H50.6875C51.7188 2.875 52.5625 3.71875 52.5625 4.75H13.1875Z" stroke="#0CB4C4" stroke-width="0.2" mask="url(#path-1-outside-1_1214_243)"></path></svg>