<svg width="61" height="62" viewBox="0 0 61 62" fill="none" xmlns="http://www.w3.org/2000/svg"><mask id="path-1-outside-1_1214_73" maskUnits="userSpaceOnUse" x="0" y="0" width="62" height="62" fill="black"><rect fill="white" width="62" height="62"></rect><path d="M56.1529 36.2698H43.536V39.0306H56.1529V36.2698ZM33.0054 28.8327C32.3399 28.1673 33.4191 27.1601 34.0935 27.8255L34.9299 28.7428L36.7644 26.6565C37.4299 25.991 38.518 26.9083 37.8525 27.6637L35.5144 30.2536C35.2626 30.6673 34.6781 30.6673 34.4263 30.3345L33.0054 28.8327ZM51.7194 20.1457C52.6367 20.1457 52.6367 21.5665 51.7194 21.5665H30.7482C29.8309 21.5665 29.8309 20.1457 30.7482 20.1457H51.7194ZM16.6205 44.9658C15.955 44.2104 17.0342 43.2122 17.7086 43.9586L18.545 44.795L20.3795 42.7896C20.964 42.0342 22.0522 43.0414 21.4676 43.7068L19.1295 46.3777C18.7968 46.7104 18.2932 46.7104 17.9604 46.3777L16.6205 44.9658ZM24.8939 36.7734C24.2284 36.1079 25.2266 35.1007 25.9011 35.7662L26.7374 36.6835L28.5719 34.6061C29.1565 34.0216 30.2446 35.0198 29.6601 35.6133L27.3219 38.2032C27.0701 38.6169 26.5665 38.6169 26.2338 38.2842L24.8939 36.7734ZM36.8453 7.52878C38.3471 7.52878 39.5162 8.77878 39.5162 10.1996V11.9532H45.2806V10.1996C45.2806 8.77878 46.4496 7.52878 47.9514 7.52878C49.3723 7.52878 50.6223 8.77878 50.6223 10.1996V11.9532H52.3759C54.714 11.9532 56.7194 13.9586 56.7194 16.2968V31.7554H58.1403C59.732 31.7554 60.9011 32.9245 60.9011 34.4263V58.2392C60.9011 59.741 59.732 61 58.1403 61H41.5306C40.0288 61 38.7698 59.75 38.7698 58.2392V49.714H10.1906C7.77158 49.714 5.84712 47.7086 5.84712 45.3705V24.1475C2.92446 21.7284 1 18.1313 1 14.0396C1 6.85432 6.84532 1 14.0396 1C20.5594 1 25.9101 5.76619 26.9083 11.9442H34.2644V10.1906C34.2554 8.77878 35.4245 7.52878 36.8453 7.52878ZM55.2356 31.7644V24.9928H48.3831V31.7644H55.2356ZM46.8723 31.7644V24.9928H40.1906V31.6745C42.4478 31.6745 44.705 31.7644 46.8723 31.7644ZM40.1906 34.4353C40.1906 42.3759 40.1906 50.3165 40.1906 58.2482C40.1906 58.9137 40.7752 59.4982 41.5306 59.4982H58.1583C58.9137 59.4982 59.4982 58.9137 59.4982 58.2482V34.4353C59.4982 33.7698 58.9137 33.1852 58.1583 33.1852H41.5306C40.8561 33.1852 40.2716 33.7698 40.1906 34.4353ZM38.7698 33.1852H31.9982V39.8669H38.7698C38.7698 37.6906 38.7698 35.4424 38.7698 33.1852ZM38.7698 41.3687H31.9982V48.2212H38.7698V41.3687ZM43.536 51.6475H46.7104V48.554H43.536V51.6475ZM48.2122 51.6475H51.4676V48.554H48.2122V51.6475ZM52.9784 51.6475H56.1529V48.554H52.9784V51.6475ZM56.1529 53.1583H52.9784V56.1709H56.1529V53.1583ZM51.4676 53.1583H48.2122V56.1709H51.4676V53.1583ZM46.7104 53.1583H43.536V56.1709H46.7104V53.1583ZM43.536 47.0522H46.7104V44.0486H43.536V47.0522ZM48.2122 47.0522H51.4676V44.0486H48.2122V47.0522ZM52.9784 47.0522H56.1529V44.0486H52.9784V47.0522ZM42.7806 42.5378H56.8993C57.3129 42.5378 57.6547 42.8705 57.6547 43.2932V56.9173C57.6547 56.9173 57.6547 57.6727 56.8993 57.6727H42.7806C42.3669 57.6727 42.0252 57.3399 42.0252 56.9173V43.2932C42.0252 42.8795 42.3579 42.5378 42.7806 42.5378ZM42.7806 34.768H56.8993C57.3129 34.768 57.6547 35.1007 57.6547 35.5234V39.705C57.6547 40.1187 57.3219 40.4604 56.8993 40.4604H42.7806C42.3669 40.4604 42.0252 40.1277 42.0252 39.705V35.5234C42.0252 35.1007 42.3579 34.768 42.7806 34.768ZM7.34892 25.1637V31.6835H14.2014V27.0072L14.0306 27.0881C11.6115 27.0791 9.27338 26.3327 7.34892 25.1637ZM15.6223 26.9173V31.6835H22.3939V25.0018H21.054C19.4622 25.991 17.6277 26.6655 15.6223 26.9173ZM22.8885 23.491C31.1619 23.491 39.4353 23.491 47.6277 23.491H55.2356V16.3058C55.2356 14.714 53.9856 13.464 52.3939 13.464H50.6403V15.1367C50.6403 16.6385 49.3903 17.8076 47.9694 17.8076C46.4676 17.8076 45.2986 16.6385 45.2986 15.1367V13.464H39.5342V15.1367C39.5342 16.6385 38.3651 17.8076 36.8633 17.8076C35.4424 17.8076 34.2734 16.6385 34.2734 15.1367V13.464H27.0881C27.0881 13.6349 27.0881 13.8777 27.0881 14.0486C27.0701 17.8076 25.4784 21.1439 22.8885 23.491ZM10.7752 16.1349C10.7752 15.1277 12.196 15.1277 12.196 16.1349C12.196 17.8885 15.8741 17.8885 15.8741 16.1349C15.8741 15.1277 14.8669 14.9658 13.8687 14.795C12.3669 14.4622 10.7752 14.1295 10.7752 11.9532C10.7752 10.4514 11.9442 9.44424 13.2842 9.19245V8.10432C13.2842 7.09712 14.786 7.09712 14.786 8.10432V9.19245C16.1259 9.44424 17.3759 10.4424 17.3759 11.9532C17.3759 12.8705 15.8741 12.8705 15.8741 11.9532C15.8741 10.1996 12.196 10.1187 12.196 11.9532C12.196 12.9604 13.2032 13.1223 14.2014 13.2932C15.7932 13.6259 17.3759 13.9586 17.3759 16.1349C17.3759 17.5558 16.1259 18.6439 14.786 18.8957V19.9838C14.786 20.991 13.2842 20.991 13.2842 19.9838V18.8957C11.9442 18.6439 10.7752 17.5558 10.7752 16.1349ZM14.0306 23.8237C8.67986 23.8237 4.2554 19.3903 4.2554 14.0486C4.2554 8.61691 8.68885 4.27338 14.0306 4.27338C19.4622 4.27338 23.8058 8.61691 23.8058 14.0486C23.8058 19.3903 19.4622 23.8237 14.0306 23.8237ZM14.0306 22.3219C18.6259 22.3219 22.304 18.6439 22.304 14.0486C22.304 9.45324 18.6259 5.77518 14.0306 5.77518C9.43525 5.77518 5.75719 9.45324 5.75719 14.0486C5.75719 18.6439 9.43525 22.3219 14.0306 22.3219ZM14.0306 25.5773C20.3795 25.5773 25.5594 20.3975 25.5594 14.0486C25.5594 7.69964 20.3795 2.51079 14.0306 2.51079C7.68165 2.51079 2.5018 7.69065 2.5018 14.0396C2.5018 20.3885 7.68165 25.5773 14.0306 25.5773ZM38.7698 24.9928H31.9982V31.6745H38.7698V24.9928ZM30.5773 24.9928H23.8058V31.6745H30.5773V24.9928ZM15.6223 33.1852V39.8669H22.3939V33.1852H15.6223ZM15.6223 41.3687V48.2212H22.3939V41.3687H15.6223ZM14.2014 48.2212V41.3687H7.34892V45.3795C7.34892 46.9712 8.59892 48.2212 10.1906 48.2212H14.2014ZM14.2014 39.8669V33.1852H7.34892V39.8669H14.2014ZM23.8058 33.1852V39.8669H30.5773V33.1852H23.8058ZM23.8058 41.3687V48.2212H30.5773V41.3687H23.8058ZM36.8453 9.03058C36.2608 9.03058 35.6763 9.61511 35.6763 10.1996V15.1277C35.6763 15.7932 36.2608 16.3777 36.8453 16.3777C37.5108 16.3777 38.0953 15.7932 38.0953 15.1277V10.1996C38.1043 9.61511 37.5108 9.03058 36.8453 9.03058ZM47.9604 9.03058C47.295 9.03058 46.7914 9.61511 46.7914 10.1996V15.1277C46.7914 15.7932 47.295 16.3777 47.9604 16.3777C48.6259 16.3777 49.1295 15.7932 49.1295 15.1277V10.1996C49.1295 9.61511 48.6259 9.03058 47.9604 9.03058Z"></path></mask><path d="M56.1529 36.2698H43.536V39.0306H56.1529V36.2698ZM33.0054 28.8327C32.3399 28.1673 33.4191 27.1601 34.0935 27.8255L34.9299 28.7428L36.7644 26.6565C37.4299 25.991 38.518 26.9083 37.8525 27.6637L35.5144 30.2536C35.2626 30.6673 34.6781 30.6673 34.4263 30.3345L33.0054 28.8327ZM51.7194 20.1457C52.6367 20.1457 52.6367 21.5665 51.7194 21.5665H30.7482C29.8309 21.5665 29.8309 20.1457 30.7482 20.1457H51.7194ZM16.6205 44.9658C15.955 44.2104 17.0342 43.2122 17.7086 43.9586L18.545 44.795L20.3795 42.7896C20.964 42.0342 22.0522 43.0414 21.4676 43.7068L19.1295 46.3777C18.7968 46.7104 18.2932 46.7104 17.9604 46.3777L16.6205 44.9658ZM24.8939 36.7734C24.2284 36.1079 25.2266 35.1007 25.9011 35.7662L26.7374 36.6835L28.5719 34.6061C29.1565 34.0216 30.2446 35.0198 29.6601 35.6133L27.3219 38.2032C27.0701 38.6169 26.5665 38.6169 26.2338 38.2842L24.8939 36.7734ZM36.8453 7.52878C38.3471 7.52878 39.5162 8.77878 39.5162 10.1996V11.9532H45.2806V10.1996C45.2806 8.77878 46.4496 7.52878 47.9514 7.52878C49.3723 7.52878 50.6223 8.77878 50.6223 10.1996V11.9532H52.3759C54.714 11.9532 56.7194 13.9586 56.7194 16.2968V31.7554H58.1403C59.732 31.7554 60.9011 32.9245 60.9011 34.4263V58.2392C60.9011 59.741 59.732 61 58.1403 61H41.5306C40.0288 61 38.7698 59.75 38.7698 58.2392V49.714H10.1906C7.77158 49.714 5.84712 47.7086 5.84712 45.3705V24.1475C2.92446 21.7284 1 18.1313 1 14.0396C1 6.85432 6.84532 1 14.0396 1C20.5594 1 25.9101 5.76619 26.9083 11.9442H34.2644V10.1906C34.2554 8.77878 35.4245 7.52878 36.8453 7.52878ZM55.2356 31.7644V24.9928H48.3831V31.7644H55.2356ZM46.8723 31.7644V24.9928H40.1906V31.6745C42.4478 31.6745 44.705 31.7644 46.8723 31.7644ZM40.1906 34.4353C40.1906 42.3759 40.1906 50.3165 40.1906 58.2482C40.1906 58.9137 40.7752 59.4982 41.5306 59.4982H58.1583C58.9137 59.4982 59.4982 58.9137 59.4982 58.2482V34.4353C59.4982 33.7698 58.9137 33.1852 58.1583 33.1852H41.5306C40.8561 33.1852 40.2716 33.7698 40.1906 34.4353ZM38.7698 33.1852H31.9982V39.8669H38.7698C38.7698 37.6906 38.7698 35.4424 38.7698 33.1852ZM38.7698 41.3687H31.9982V48.2212H38.7698V41.3687ZM43.536 51.6475H46.7104V48.554H43.536V51.6475ZM48.2122 51.6475H51.4676V48.554H48.2122V51.6475ZM52.9784 51.6475H56.1529V48.554H52.9784V51.6475ZM56.1529 53.1583H52.9784V56.1709H56.1529V53.1583ZM51.4676 53.1583H48.2122V56.1709H51.4676V53.1583ZM46.7104 53.1583H43.536V56.1709H46.7104V53.1583ZM43.536 47.0522H46.7104V44.0486H43.536V47.0522ZM48.2122 47.0522H51.4676V44.0486H48.2122V47.0522ZM52.9784 47.0522H56.1529V44.0486H52.9784V47.0522ZM42.7806 42.5378H56.8993C57.3129 42.5378 57.6547 42.8705 57.6547 43.2932V56.9173C57.6547 56.9173 57.6547 57.6727 56.8993 57.6727H42.7806C42.3669 57.6727 42.0252 57.3399 42.0252 56.9173V43.2932C42.0252 42.8795 42.3579 42.5378 42.7806 42.5378ZM42.7806 34.768H56.8993C57.3129 34.768 57.6547 35.1007 57.6547 35.5234V39.705C57.6547 40.1187 57.3219 40.4604 56.8993 40.4604H42.7806C42.3669 40.4604 42.0252 40.1277 42.0252 39.705V35.5234C42.0252 35.1007 42.3579 34.768 42.7806 34.768ZM7.34892 25.1637V31.6835H14.2014V27.0072L14.0306 27.0881C11.6115 27.0791 9.27338 26.3327 7.34892 25.1637ZM15.6223 26.9173V31.6835H22.3939V25.0018H21.054C19.4622 25.991 17.6277 26.6655 15.6223 26.9173ZM22.8885 23.491C31.1619 23.491 39.4353 23.491 47.6277 23.491H55.2356V16.3058C55.2356 14.714 53.9856 13.464 52.3939 13.464H50.6403V15.1367C50.6403 16.6385 49.3903 17.8076 47.9694 17.8076C46.4676 17.8076 45.2986 16.6385 45.2986 15.1367V13.464H39.5342V15.1367C39.5342 16.6385 38.3651 17.8076 36.8633 17.8076C35.4424 17.8076 34.2734 16.6385 34.2734 15.1367V13.464H27.0881C27.0881 13.6349 27.0881 13.8777 27.0881 14.0486C27.0701 17.8076 25.4784 21.1439 22.8885 23.491ZM10.7752 16.1349C10.7752 15.1277 12.196 15.1277 12.196 16.1349C12.196 17.8885 15.8741 17.8885 15.8741 16.1349C15.8741 15.1277 14.8669 14.9658 13.8687 14.795C12.3669 14.4622 10.7752 14.1295 10.7752 11.9532C10.7752 10.4514 11.9442 9.44424 13.2842 9.19245V8.10432C13.2842 7.09712 14.786 7.09712 14.786 8.10432V9.19245C16.1259 9.44424 17.3759 10.4424 17.3759 11.9532C17.3759 12.8705 15.8741 12.8705 15.8741 11.9532C15.8741 10.1996 12.196 10.1187 12.196 11.9532C12.196 12.9604 13.2032 13.1223 14.2014 13.2932C15.7932 13.6259 17.3759 13.9586 17.3759 16.1349C17.3759 17.5558 16.1259 18.6439 14.786 18.8957V19.9838C14.786 20.991 13.2842 20.991 13.2842 19.9838V18.8957C11.9442 18.6439 10.7752 17.5558 10.7752 16.1349ZM14.0306 23.8237C8.67986 23.8237 4.2554 19.3903 4.2554 14.0486C4.2554 8.61691 8.68885 4.27338 14.0306 4.27338C19.4622 4.27338 23.8058 8.61691 23.8058 14.0486C23.8058 19.3903 19.4622 23.8237 14.0306 23.8237ZM14.0306 22.3219C18.6259 22.3219 22.304 18.6439 22.304 14.0486C22.304 9.45324 18.6259 5.77518 14.0306 5.77518C9.43525 5.77518 5.75719 9.45324 5.75719 14.0486C5.75719 18.6439 9.43525 22.3219 14.0306 22.3219ZM14.0306 25.5773C20.3795 25.5773 25.5594 20.3975 25.5594 14.0486C25.5594 7.69964 20.3795 2.51079 14.0306 2.51079C7.68165 2.51079 2.5018 7.69065 2.5018 14.0396C2.5018 20.3885 7.68165 25.5773 14.0306 25.5773ZM38.7698 24.9928H31.9982V31.6745H38.7698V24.9928ZM30.5773 24.9928H23.8058V31.6745H30.5773V24.9928ZM15.6223 33.1852V39.8669H22.3939V33.1852H15.6223ZM15.6223 41.3687V48.2212H22.3939V41.3687H15.6223ZM14.2014 48.2212V41.3687H7.34892V45.3795C7.34892 46.9712 8.59892 48.2212 10.1906 48.2212H14.2014ZM14.2014 39.8669V33.1852H7.34892V39.8669H14.2014ZM23.8058 33.1852V39.8669H30.5773V33.1852H23.8058ZM23.8058 41.3687V48.2212H30.5773V41.3687H23.8058ZM36.8453 9.03058C36.2608 9.03058 35.6763 9.61511 35.6763 10.1996V15.1277C35.6763 15.7932 36.2608 16.3777 36.8453 16.3777C37.5108 16.3777 38.0953 15.7932 38.0953 15.1277V10.1996C38.1043 9.61511 37.5108 9.03058 36.8453 9.03058ZM47.9604 9.03058C47.295 9.03058 46.7914 9.61511 46.7914 10.1996V15.1277C46.7914 15.7932 47.295 16.3777 47.9604 16.3777C48.6259 16.3777 49.1295 15.7932 49.1295 15.1277V10.1996C49.1295 9.61511 48.6259 9.03058 47.9604 9.03058Z" fill="#0CB4C4"></path><path d="M56.1529 36.2698H43.536V39.0306H56.1529V36.2698ZM33.0054 28.8327C32.3399 28.1673 33.4191 27.1601 34.0935 27.8255L34.9299 28.7428L36.7644 26.6565C37.4299 25.991 38.518 26.9083 37.8525 27.6637L35.5144 30.2536C35.2626 30.6673 34.6781 30.6673 34.4263 30.3345L33.0054 28.8327ZM51.7194 20.1457C52.6367 20.1457 52.6367 21.5665 51.7194 21.5665H30.7482C29.8309 21.5665 29.8309 20.1457 30.7482 20.1457H51.7194ZM16.6205 44.9658C15.955 44.2104 17.0342 43.2122 17.7086 43.9586L18.545 44.795L20.3795 42.7896C20.964 42.0342 22.0522 43.0414 21.4676 43.7068L19.1295 46.3777C18.7968 46.7104 18.2932 46.7104 17.9604 46.3777L16.6205 44.9658ZM24.8939 36.7734C24.2284 36.1079 25.2266 35.1007 25.9011 35.7662L26.7374 36.6835L28.5719 34.6061C29.1565 34.0216 30.2446 35.0198 29.6601 35.6133L27.3219 38.2032C27.0701 38.6169 26.5665 38.6169 26.2338 38.2842L24.8939 36.7734ZM36.8453 7.52878C38.3471 7.52878 39.5162 8.77878 39.5162 10.1996V11.9532H45.2806V10.1996C45.2806 8.77878 46.4496 7.52878 47.9514 7.52878C49.3723 7.52878 50.6223 8.77878 50.6223 10.1996V11.9532H52.3759C54.714 11.9532 56.7194 13.9586 56.7194 16.2968V31.7554H58.1403C59.732 31.7554 60.9011 32.9245 60.9011 34.4263V58.2392C60.9011 59.741 59.732 61 58.1403 61H41.5306C40.0288 61 38.7698 59.75 38.7698 58.2392V49.714H10.1906C7.77158 49.714 5.84712 47.7086 5.84712 45.3705V24.1475C2.92446 21.7284 1 18.1313 1 14.0396C1 6.85432 6.84532 1 14.0396 1C20.5594 1 25.9101 5.76619 26.9083 11.9442H34.2644V10.1906C34.2554 8.77878 35.4245 7.52878 36.8453 7.52878ZM55.2356 31.7644V24.9928H48.3831V31.7644H55.2356ZM46.8723 31.7644V24.9928H40.1906V31.6745C42.4478 31.6745 44.705 31.7644 46.8723 31.7644ZM40.1906 34.4353C40.1906 42.3759 40.1906 50.3165 40.1906 58.2482C40.1906 58.9137 40.7752 59.4982 41.5306 59.4982H58.1583C58.9137 59.4982 59.4982 58.9137 59.4982 58.2482V34.4353C59.4982 33.7698 58.9137 33.1852 58.1583 33.1852H41.5306C40.8561 33.1852 40.2716 33.7698 40.1906 34.4353ZM38.7698 33.1852H31.9982V39.8669H38.7698C38.7698 37.6906 38.7698 35.4424 38.7698 33.1852ZM38.7698 41.3687H31.9982V48.2212H38.7698V41.3687ZM43.536 51.6475H46.7104V48.554H43.536V51.6475ZM48.2122 51.6475H51.4676V48.554H48.2122V51.6475ZM52.9784 51.6475H56.1529V48.554H52.9784V51.6475ZM56.1529 53.1583H52.9784V56.1709H56.1529V53.1583ZM51.4676 53.1583H48.2122V56.1709H51.4676V53.1583ZM46.7104 53.1583H43.536V56.1709H46.7104V53.1583ZM43.536 47.0522H46.7104V44.0486H43.536V47.0522ZM48.2122 47.0522H51.4676V44.0486H48.2122V47.0522ZM52.9784 47.0522H56.1529V44.0486H52.9784V47.0522ZM42.7806 42.5378H56.8993C57.3129 42.5378 57.6547 42.8705 57.6547 43.2932V56.9173C57.6547 56.9173 57.6547 57.6727 56.8993 57.6727H42.7806C42.3669 57.6727 42.0252 57.3399 42.0252 56.9173V43.2932C42.0252 42.8795 42.3579 42.5378 42.7806 42.5378ZM42.7806 34.768H56.8993C57.3129 34.768 57.6547 35.1007 57.6547 35.5234V39.705C57.6547 40.1187 57.3219 40.4604 56.8993 40.4604H42.7806C42.3669 40.4604 42.0252 40.1277 42.0252 39.705V35.5234C42.0252 35.1007 42.3579 34.768 42.7806 34.768ZM7.34892 25.1637V31.6835H14.2014V27.0072L14.0306 27.0881C11.6115 27.0791 9.27338 26.3327 7.34892 25.1637ZM15.6223 26.9173V31.6835H22.3939V25.0018H21.054C19.4622 25.991 17.6277 26.6655 15.6223 26.9173ZM22.8885 23.491C31.1619 23.491 39.4353 23.491 47.6277 23.491H55.2356V16.3058C55.2356 14.714 53.9856 13.464 52.3939 13.464H50.6403V15.1367C50.6403 16.6385 49.3903 17.8076 47.9694 17.8076C46.4676 17.8076 45.2986 16.6385 45.2986 15.1367V13.464H39.5342V15.1367C39.5342 16.6385 38.3651 17.8076 36.8633 17.8076C35.4424 17.8076 34.2734 16.6385 34.2734 15.1367V13.464H27.0881C27.0881 13.6349 27.0881 13.8777 27.0881 14.0486C27.0701 17.8076 25.4784 21.1439 22.8885 23.491ZM10.7752 16.1349C10.7752 15.1277 12.196 15.1277 12.196 16.1349C12.196 17.8885 15.8741 17.8885 15.8741 16.1349C15.8741 15.1277 14.8669 14.9658 13.8687 14.795C12.3669 14.4622 10.7752 14.1295 10.7752 11.9532C10.7752 10.4514 11.9442 9.44424 13.2842 9.19245V8.10432C13.2842 7.09712 14.786 7.09712 14.786 8.10432V9.19245C16.1259 9.44424 17.3759 10.4424 17.3759 11.9532C17.3759 12.8705 15.8741 12.8705 15.8741 11.9532C15.8741 10.1996 12.196 10.1187 12.196 11.9532C12.196 12.9604 13.2032 13.1223 14.2014 13.2932C15.7932 13.6259 17.3759 13.9586 17.3759 16.1349C17.3759 17.5558 16.1259 18.6439 14.786 18.8957V19.9838C14.786 20.991 13.2842 20.991 13.2842 19.9838V18.8957C11.9442 18.6439 10.7752 17.5558 10.7752 16.1349ZM14.0306 23.8237C8.67986 23.8237 4.2554 19.3903 4.2554 14.0486C4.2554 8.61691 8.68885 4.27338 14.0306 4.27338C19.4622 4.27338 23.8058 8.61691 23.8058 14.0486C23.8058 19.3903 19.4622 23.8237 14.0306 23.8237ZM14.0306 22.3219C18.6259 22.3219 22.304 18.6439 22.304 14.0486C22.304 9.45324 18.6259 5.77518 14.0306 5.77518C9.43525 5.77518 5.75719 9.45324 5.75719 14.0486C5.75719 18.6439 9.43525 22.3219 14.0306 22.3219ZM14.0306 25.5773C20.3795 25.5773 25.5594 20.3975 25.5594 14.0486C25.5594 7.69964 20.3795 2.51079 14.0306 2.51079C7.68165 2.51079 2.5018 7.69065 2.5018 14.0396C2.5018 20.3885 7.68165 25.5773 14.0306 25.5773ZM38.7698 24.9928H31.9982V31.6745H38.7698V24.9928ZM30.5773 24.9928H23.8058V31.6745H30.5773V24.9928ZM15.6223 33.1852V39.8669H22.3939V33.1852H15.6223ZM15.6223 41.3687V48.2212H22.3939V41.3687H15.6223ZM14.2014 48.2212V41.3687H7.34892V45.3795C7.34892 46.9712 8.59892 48.2212 10.1906 48.2212H14.2014ZM14.2014 39.8669V33.1852H7.34892V39.8669H14.2014ZM23.8058 33.1852V39.8669H30.5773V33.1852H23.8058ZM23.8058 41.3687V48.2212H30.5773V41.3687H23.8058ZM36.8453 9.03058C36.2608 9.03058 35.6763 9.61511 35.6763 10.1996V15.1277C35.6763 15.7932 36.2608 16.3777 36.8453 16.3777C37.5108 16.3777 38.0953 15.7932 38.0953 15.1277V10.1996C38.1043 9.61511 37.5108 9.03058 36.8453 9.03058ZM47.9604 9.03058C47.295 9.03058 46.7914 9.61511 46.7914 10.1996V15.1277C46.7914 15.7932 47.295 16.3777 47.9604 16.3777C48.6259 16.3777 49.1295 15.7932 49.1295 15.1277V10.1996C49.1295 9.61511 48.6259 9.03058 47.9604 9.03058Z" stroke="#0CB4C4" stroke-width="0.2" mask="url(#path-1-outside-1_1214_73)"></path></svg>