<svg width="44" height="60" viewBox="0 0 44 60" fill="none" xmlns="http://www.w3.org/2000/svg"><path d="M15.9375 16.875C15.9375 19.9687 18.4688 22.5 21.5625 22.5C24.6562 22.5 27.1875 19.9687 27.1875 16.875C27.1875 13.7813 24.6562 11.25 21.5625 11.25C18.4688 11.25 15.9375 13.7813 15.9375 16.875ZM25.3125 16.875C25.3125 18.9375 23.625 20.625 21.5625 20.625C19.5 20.625 17.8125 18.9375 17.8125 16.875C17.8125 14.8125 19.5 13.125 21.5625 13.125C23.625 13.125 25.3125 14.8125 25.3125 16.875ZM20.625 48.75H22.5V50.625H20.625V48.75ZM20.625 52.5H22.5V54.375H20.625V52.5ZM20.625 56.25H22.5V58.125H20.625V56.25ZM43.125 21.5625C43.125 9.65625 33.4687 0 21.5625 0C9.65625 0 0 9.65625 0 21.5625C0 30.4688 5.4375 38.1563 13.125 41.4375V46.875H15.9375V60H17.8125V46.875H25.3125V60H27.1875V46.875H30V41.4375C37.6875 38.1563 43.125 30.4688 43.125 21.5625ZM28.125 45H15V42.0938C17.0625 42.75 19.3125 43.125 21.5625 43.125C23.8125 43.125 26.0625 42.75 28.125 42.0938V45ZM21.5625 41.25C10.6875 41.25 1.875 32.4375 1.875 21.5625C1.875 10.6875 10.6875 1.875 21.5625 1.875C32.4375 1.875 41.25 10.6875 41.25 21.5625C41.25 32.4375 32.4375 41.25 21.5625 41.25ZM8.34375 12.75L6.75 11.7188C10.0313 6.75 15.6562 3.75 21.5625 3.75C27.4688 3.75 33.0937 6.75 36.375 11.625L34.7812 12.6562C31.875 8.25 26.9062 5.625 21.5625 5.625C16.2188 5.625 11.25 8.25 8.34375 12.75ZM31.875 33.6563V31.2187C31.875 29.8125 31.4063 28.5 30.6563 27.375C29.8125 26.25 28.6875 25.4063 27.375 25.0313L25.0313 24.2812L21.5625 27.75L18.0937 24.2812L15.75 25.0313C14.4375 25.5 13.3125 26.25 12.4687 27.375C11.625 28.5 11.25 29.8125 11.25 31.2187V33.6563C10.125 32.7188 9.1875 31.5938 8.34375 30.375L6.75 31.4062C10.0313 36.375 15.5625 39.375 21.5625 39.375C27.4688 39.375 33.0937 36.375 36.375 31.5L34.7812 30.4688C33.9375 31.6875 33 32.7188 31.875 33.6563ZM16.875 36.75V32.8125H15V36.0938C14.3438 35.8125 13.6875 35.4375 13.125 35.0625V31.2187C13.125 30.1875 13.4062 29.25 13.9687 28.5C14.5312 27.6562 15.375 27.0938 16.3125 26.8125L17.5313 26.4375L21.5625 30.4688L25.5937 26.4375L26.8125 26.8125C27.75 27.0938 28.5937 27.75 29.1562 28.5C29.7187 29.3437 30 30.2812 30 31.2187V35.0625C29.4375 35.4375 28.7812 35.8125 28.125 36.0938V32.8125H26.25V36.75C24.75 37.2188 23.1563 37.5 21.5625 37.5C19.9687 37.5 18.375 37.2188 16.875 36.75Z" fill="#0CB4C4"></path></svg>