<svg width="66" height="60" viewBox="0 0 66 60" fill="none" xmlns="http://www.w3.org/2000/svg"><path fill-rule="evenodd" clip-rule="evenodd" d="M10.3923 36.6072C11.9564 36.6948 13.1966 37.9914 13.1966 39.5773V57.0259C13.1966 58.0369 12.6826 58.9773 11.8347 59.5255C10.9841 60.0737 9.91486 60.1515 8.99356 59.7349L4.44457 57.6758C1.73984 56.4504 0 53.7528 0 50.7827V42.693C0 40.4539 1.20849 38.497 3.00922 37.4376C2.6606 28.0302 3.5841 19.0923 7.88457 12.6723C15.1677 1.80027 25.7634 0 32.8934 0C40.0225 0 50.6191 1.80083 57.9023 12.6723C62.2028 19.0928 63.1263 28.0296 62.7777 37.4376C64.5785 38.4976 65.7869 40.4539 65.7869 42.693V50.7827C65.7869 53.7528 64.047 56.4498 61.3423 57.6758L56.7933 59.7349C55.8725 60.1515 54.8027 60.0737 53.9522 59.5255C53.1043 58.9773 52.5903 58.037 52.5903 57.0259V39.5773C52.5903 37.9913 53.8303 36.6948 55.3946 36.6072C55.6747 29.0881 55.1852 21.9419 51.742 16.8C46.2717 8.63533 38.2456 7.41705 32.8927 7.41705C27.5394 7.41705 19.5133 8.63533 14.0435 16.8C10.6007 21.9413 10.1107 29.0878 10.3909 36.6072H10.3923ZM4.71749 39.307C3.37955 39.8482 2.43701 41.1611 2.43701 42.6937V50.7834C2.43701 52.7957 3.61614 54.6259 5.4511 55.4569L10.0001 57.516C10.166 57.5916 10.3607 57.5769 10.5141 57.4795C10.6674 57.3794 10.7599 57.2092 10.7599 57.0265V39.5779C10.7599 39.2804 10.5184 39.0395 10.2214 39.0395H6.09126C5.60612 39.0395 5.14112 39.1346 4.71689 39.3076L4.71749 39.307ZM60.3685 36.6388C60.634 28.0478 59.8182 19.9087 55.8805 14.0303C49.192 4.04749 39.4386 2.43699 32.8947 2.43699C26.3508 2.43699 16.5962 4.04735 9.9089 14.0303C5.97127 19.9096 5.15537 28.0482 5.42089 36.6388C5.6428 36.6143 5.86686 36.6024 6.09312 36.6024H7.95479C7.67198 28.5617 8.33713 20.9457 12.0241 15.446C18.0889 6.39164 26.9596 4.9808 32.8964 4.9808C38.8317 4.9808 47.7037 6.39164 53.7687 15.446C57.4551 20.9452 58.1202 28.5621 57.838 36.6024H59.6997C59.9265 36.6024 60.1506 36.6143 60.3719 36.6388H60.3685ZM59.6963 39.0389H55.5661C55.2686 39.0389 55.0277 39.2804 55.0277 39.5773V57.0259C55.0277 57.2086 55.1202 57.3794 55.2735 57.4789C55.4269 57.5763 55.6222 57.591 55.7875 57.5154L60.3365 55.4563C62.171 54.6252 63.3506 52.7957 63.3506 50.7828V42.6931C63.3506 41.1605 62.4075 39.8471 61.0701 39.3065C60.6459 39.1335 60.1809 39.0383 59.6957 39.0383L59.6963 39.0389ZM26.8027 47.7426C19.7073 45.2332 14.6199 38.4619 14.6199 30.5112C14.6199 20.4261 22.809 12.237 32.8942 12.237C42.9793 12.237 51.1684 20.4261 51.1684 30.5112C51.1684 37.8551 46.8288 44.1902 40.5764 47.0951L28.8053 57.0263C28.4447 57.333 27.9378 57.3988 27.5066 57.1992C27.078 56.9996 26.8022 56.5705 26.8022 56.0957V47.7434L26.8027 47.7426ZM29.2393 46.8604V53.4734L39.1319 45.126C39.2173 45.0531 39.3125 44.9944 39.4147 44.9481C44.9067 42.4605 48.7324 36.9292 48.7324 30.5112C48.7324 21.7712 41.6347 14.6735 32.8947 14.6735C24.1547 14.6735 17.0571 21.7712 17.0571 30.5112C17.0571 37.6794 21.8301 43.7442 28.3702 45.6902C28.8869 45.8463 29.2399 46.319 29.2399 46.8596L29.2393 46.8604ZM21.9661 28.0376C21.9661 27.3654 22.5122 26.8193 23.1844 26.8193C23.8566 26.8193 24.4027 27.3654 24.4027 28.0376V33.0179C24.4027 33.6902 23.8566 34.2362 23.1844 34.2362C22.5122 34.2362 21.9661 33.6902 21.9661 33.0179V28.0376ZM26.8392 25.9349C26.8392 25.2627 27.3853 24.7166 28.0575 24.7166C28.7297 24.7166 29.2758 25.2627 29.2758 25.9349V35.121C29.2758 35.7933 28.7297 36.3393 28.0575 36.3393C27.3853 36.3393 26.8392 35.7933 26.8392 35.121V25.9349ZM36.5589 25.9202C36.5589 25.248 37.1049 24.702 37.7772 24.702C38.4494 24.702 38.9954 25.248 38.9954 25.9202V35.1064C38.9954 35.7786 38.4494 36.3246 37.7772 36.3246C37.1049 36.3246 36.5589 35.7786 36.5589 35.1064V25.9202ZM41.432 27.7868C41.432 27.1146 41.9781 26.5685 42.6503 26.5685C43.3225 26.5685 43.8686 27.1146 43.8686 27.7868V32.7671C43.8686 33.4393 43.3225 33.9854 42.6503 33.9854C41.9781 33.9854 41.432 33.4393 41.432 32.7671V27.7868ZM31.7123 28.0375C31.7123 27.3653 32.2584 26.8192 32.9306 26.8192C33.6029 26.8192 34.1489 27.3653 34.1489 28.0375V33.0178C34.1489 33.6901 33.6029 34.2361 32.9306 34.2361C32.2584 34.2361 31.7123 33.6901 31.7123 33.0178V28.0375Z" fill="#0CB4C4"></path></svg>