<svg width="61" height="60" viewBox="0 0 61 60" fill="none" xmlns="http://www.w3.org/2000/svg"><path fill-rule="evenodd" clip-rule="evenodd" d="M3.84752 4C1.72786 4 0 5.74989 0 7.8807V36.9947V41.9233C0 44.0541 1.72786 45.804 3.84752 45.804H22.8382V54.2067H14.1513C13.9142 54.2067 13.6868 54.3012 13.5191 54.4694C13.3514 54.6375 13.2572 54.8656 13.2572 55.1034C13.2572 55.3412 13.3514 55.5692 13.5191 55.7374C13.6868 55.9055 13.9142 56 14.1513 56H46.3736C46.491 56 46.6073 55.9768 46.7158 55.9318C46.8242 55.8867 46.9228 55.8207 47.0058 55.7374C47.0889 55.6541 47.1547 55.5553 47.1997 55.4465C47.2446 55.3377 47.2677 55.2211 47.2677 55.1034C47.2677 54.9856 47.2446 54.869 47.1997 54.7602C47.1547 54.6514 47.0889 54.5526 47.0058 54.4693C46.9228 54.3861 46.8242 54.32 46.7158 54.275C46.6073 54.2299 46.491 54.2067 46.3736 54.2067H37.6867V45.804H56.6774C58.7971 45.804 60.525 44.0541 60.525 41.9233V36.9947V12.8092V7.8807C60.525 5.74989 58.7971 4 56.6774 4H3.84752ZM3.84752 5.79328H56.6774C57.8301 5.79328 58.7367 6.70518 58.7367 7.8807V12.8092V36.9947V41.9233C58.7367 43.0988 57.8301 44.0107 56.6774 44.0107H3.84752C2.69486 44.0107 1.78824 43.0988 1.78824 41.9233V36.9947V7.8807C1.78824 7.80713 1.79179 7.73475 1.80007 7.66356C1.9038 6.59479 2.76692 5.79328 3.84752 5.79328ZM24.99 16.5774C24.7529 16.5774 24.5255 16.6719 24.3578 16.8401C24.1901 17.0082 24.0959 17.2363 24.0959 17.4741V20.5356C23.2715 20.8172 22.4675 21.1541 21.6883 21.5449L19.5406 19.3811C19.4576 19.2974 19.3588 19.231 19.25 19.1857C19.1413 19.1404 19.0247 19.117 18.9069 19.117C18.7892 19.117 18.6726 19.1404 18.5638 19.1857C18.4551 19.231 18.3563 19.2974 18.2732 19.3811L10.8171 26.893C10.6504 27.0611 10.5567 27.2885 10.5567 27.5256C10.5567 27.7627 10.6504 27.9901 10.8171 28.1581L12.9689 30.326C12.5796 31.1129 12.2441 31.9249 11.964 32.7574H8.93011C8.69297 32.7575 8.46556 32.852 8.29788 33.0201C8.1302 33.1883 8.036 33.4164 8.03599 33.6542V39.5075C8.03599 39.6252 8.05912 39.7418 8.10405 39.8506C8.14898 39.9594 8.21484 40.0582 8.29787 40.1415C8.38089 40.2248 8.47946 40.2908 8.58794 40.3359C8.69642 40.381 8.81269 40.4041 8.93011 40.4042C9.04753 40.4041 9.1638 40.381 9.27229 40.3359C9.38077 40.2908 9.47933 40.2248 9.56236 40.1415C9.64539 40.0582 9.71125 39.9594 9.75618 39.8506C9.80111 39.7418 9.82424 39.6252 9.82423 39.5075V34.5508H12.6117C12.8041 34.5508 12.9914 34.4886 13.1457 34.3734C13.3 34.2582 13.4132 34.0961 13.4684 33.9113C13.8135 32.7559 14.2748 31.6393 14.8456 30.5788C14.9368 30.4093 14.9712 30.2148 14.9436 30.0242C14.9161 29.8335 14.828 29.6569 14.6926 29.5203L12.7126 27.5256L18.9071 21.2847L20.8812 23.2736C21.0176 23.411 21.1948 23.5005 21.3862 23.5284C21.5776 23.5564 21.7728 23.5214 21.9427 23.4286C22.9949 22.8538 24.1027 22.3892 25.2488 22.0418C25.4326 21.9861 25.5936 21.8726 25.708 21.718C25.8225 21.5634 25.8843 21.376 25.8843 21.1835V18.3709H34.641V21.1797C34.641 21.3725 34.703 21.5601 34.8177 21.7148C34.9325 21.8695 35.0939 21.983 35.278 22.0384C36.4264 22.3841 37.5367 22.8476 38.5914 23.4216C38.7611 23.514 38.9562 23.5488 39.1473 23.5208C39.3384 23.4928 39.5154 23.4034 39.6516 23.2662L41.6182 21.2849L47.8127 27.5258L45.8403 29.513C45.7049 29.6493 45.6169 29.8257 45.5892 30.0161C45.5615 30.2065 45.5956 30.4007 45.6864 30.5702C46.2564 31.6331 46.7167 32.7523 47.0601 33.91C47.115 34.0952 47.2281 34.2576 47.3826 34.3731C47.537 34.4886 47.7245 34.551 47.9171 34.551H50.7008V39.5077C50.7008 39.6255 50.7239 39.7421 50.7689 39.8508C50.8138 39.9596 50.8797 40.0585 50.9627 40.1417C51.0457 40.225 51.1443 40.2911 51.2528 40.3361C51.3612 40.3812 51.4775 40.4044 51.5949 40.4044C51.7124 40.4044 51.8286 40.3812 51.9371 40.3361C52.0456 40.2911 52.1442 40.225 52.2272 40.1417C52.3102 40.0585 52.3761 39.9596 52.421 39.8508C52.4659 39.7421 52.4891 39.6255 52.4891 39.5077V33.6544C52.489 33.4166 52.3948 33.1885 52.2272 33.0204C52.0595 32.8522 51.8321 32.7577 51.5949 32.7577H48.5661C48.2868 31.9228 47.9518 31.1085 47.5629 30.3194L49.7079 28.1584C49.8747 27.9903 49.9683 27.7629 49.9683 27.5258C49.9683 27.2887 49.8747 27.0613 49.7079 26.8933L42.2519 19.3813C42.1688 19.2976 42.07 19.2312 41.9613 19.1859C41.8525 19.1406 41.7359 19.1172 41.6181 19.1172C41.5004 19.1172 41.3838 19.1406 41.275 19.1859C41.1663 19.2312 41.0675 19.2976 40.9844 19.3813L38.8435 21.5382C38.0621 21.1479 37.2558 20.8114 36.4292 20.5307V17.4743C36.4292 17.2365 36.335 17.0085 36.1673 16.8403C35.9996 16.6722 35.7722 16.5777 35.5351 16.5777L24.99 16.5774ZM30.2614 30.3292C25.5329 30.3292 21.6845 34.209 21.6845 38.9662C21.6845 38.9656 21.6845 38.9667 21.6845 38.9662C21.6849 39.1699 21.6924 39.3751 21.7082 39.5782C21.7253 39.8154 21.8357 40.036 22.0151 40.1916C22.1945 40.3471 22.4281 40.4249 22.6646 40.4077C22.7817 40.3992 22.896 40.3676 23.001 40.3148C23.1059 40.262 23.1995 40.189 23.2763 40.0999C23.3531 40.0108 23.4117 39.9075 23.4487 39.7957C23.4856 39.684 23.5003 39.566 23.4918 39.4485C23.48 39.2876 23.476 39.1266 23.4721 38.9651C23.4726 35.1732 26.5034 32.1226 30.2606 32.1226C34.0179 32.1226 37.0487 35.1732 37.0492 38.9651C37.0489 39.1265 37.0413 39.2879 37.0295 39.4486C37.0124 39.6858 37.0899 39.9201 37.245 40.0999C37.4002 40.2798 37.6202 40.3905 37.8567 40.4077C37.9738 40.4162 38.0914 40.4015 38.2029 40.3644C38.3143 40.3273 38.4174 40.2686 38.5062 40.1916C38.595 40.1145 38.6679 40.0207 38.7205 39.9155C38.7732 39.8102 38.8046 39.6956 38.8131 39.5782C38.8289 39.3753 38.8368 39.1715 38.8368 38.9678C38.8368 38.9684 38.8368 38.9673 38.8368 38.9678C38.8368 34.2107 34.9899 30.3292 30.2614 30.3292ZM24.6265 45.804H35.8985V54.2067H24.6265V45.804Z" fill="#0CB4C4"></path></svg>