<svg width="60" height="60" viewBox="0 0 60 60" fill="none" xmlns="http://www.w3.org/2000/svg"><path d="M31.885 11.2468C31.885 10.8463 32.2086 10.5154 32.6111 10.5154H45.9821C47.7209 10.5154 49.1311 11.9359 49.1311 13.6871V27.1544C49.1311 27.5549 48.8076 27.8857 48.405 27.8857C48 27.8857 47.6789 27.5599 47.6789 27.1544V13.6846C47.6789 12.7417 46.9207 11.9781 45.9847 11.9781H32.6111C32.2061 11.9781 31.885 11.6547 31.885 11.2468ZM26.9603 48.0227H13.5867C12.6506 48.0227 11.8924 47.2591 11.8924 46.3163V32.8464C11.8924 32.4459 11.5689 32.1151 11.1663 32.1151C10.7613 32.1151 10.4403 32.4409 10.4403 32.8464V46.3137C10.4403 48.065 11.8505 49.4854 13.5892 49.4854H26.9603C27.3579 49.4854 27.6864 49.1595 27.6864 48.7541C27.6864 48.3461 27.3653 48.0227 26.9603 48.0227ZM59.571 33.1844V56.898C59.571 58.6119 58.1855 60 56.4912 60H32.9471C31.2454 60 29.8673 58.6045 29.8673 56.898V43.1817H28.6225C27.8643 43.1817 27.2122 42.6344 27.074 41.8757L26.8467 40.6095C26.8344 40.5598 26.8146 40.5274 26.7578 40.515C25.9872 40.2911 25.2414 39.9802 24.5375 39.5847C24.4931 39.5598 24.456 39.5598 24.4116 39.5921L23.3619 40.3235C22.737 40.7638 21.8899 40.6866 21.3515 40.1394L19.7066 38.4827C19.1682 37.9404 19.0941 37.0871 19.5238 36.4578L20.2499 35.4005C20.282 35.3558 20.282 35.3184 20.2573 35.2737C19.872 34.5672 19.5608 33.8159 19.3337 33.0374C19.3213 32.9876 19.2892 32.9603 19.2398 32.9478L17.9827 32.719C17.2294 32.5797 16.686 31.923 16.686 31.1593V29.9055H3.0798C1.37814 29.9055 0 28.51 0 26.8035V3.10198C0 1.38806 1.38554 0 3.0798 0H26.6239C28.3256 0 29.7037 1.39551 29.7037 3.10198V16.8183H30.9485C31.7067 16.8183 32.3588 17.3656 32.497 18.1243L32.7243 19.3905C32.7366 19.4402 32.7564 19.4726 32.8132 19.485C33.5838 19.7089 34.3296 20.0198 35.0335 20.4153C35.0779 20.4402 35.115 20.4402 35.1594 20.4078L36.2091 19.6765C36.834 19.2362 37.6811 19.3134 38.2195 19.8606L39.8644 21.5173C40.4028 22.0596 40.4769 22.9129 40.0472 23.5422L39.3211 24.5995C39.289 24.6442 39.289 24.6815 39.3137 24.7263C39.699 25.4328 40.0102 26.1841 40.2373 26.9626C40.2497 27.0124 40.2818 27.0397 40.3312 27.0522L41.5883 27.281C42.3416 27.4203 42.8849 28.077 42.8849 28.8407V30.0945H56.5032C58.1925 30.082 59.571 31.4779 59.571 33.1844ZM41.5762 32.7316L40.3191 32.9605C40.2697 32.9729 40.2376 32.9928 40.2253 33.05C40.003 33.8262 39.6943 34.5774 39.3016 35.2863C39.2769 35.3311 39.2769 35.3684 39.309 35.4132L39.3337 35.4505H58.1112V33.1843C58.1112 32.2789 57.3776 31.5426 56.4812 31.5426H42.8231C42.6774 32.1396 42.2036 32.6172 41.5762 32.7316ZM1.45489 3.10259V5.36876H28.257L28.2546 3.10259C28.2546 2.19711 27.521 1.46083 26.6295 1.46083L3.08031 1.45834C2.18129 1.4658 1.45489 2.19717 1.45489 3.10259ZM17.9948 27.269L18.9506 27.0974H5.22108C4.1714 27.0974 3.3169 26.2367 3.3169 25.1795V18.8685C3.3169 17.8113 4.17146 16.9507 5.22108 16.9507H24.4804C25.53 16.9507 26.3845 17.8114 26.3845 18.8685V19.6198C26.5105 19.575 26.6315 19.5253 26.7649 19.4855C26.8143 19.473 26.8414 19.4407 26.8538 19.3909L27.081 18.1248C27.1946 17.5004 27.6639 17.0178 28.2566 16.871L28.2542 6.83355H1.45455V26.8161C1.45455 27.7216 2.1881 28.4579 3.08458 28.4579H16.7547C16.893 27.8534 17.3675 27.3835 17.9948 27.269ZM19.7064 21.5054L21.3512 19.8486C21.8896 19.3063 22.7368 19.2317 23.3616 19.6645L24.4113 20.3959C24.4558 20.4282 24.4928 20.4282 24.5373 20.4033C24.6632 20.3337 24.7966 20.2814 24.9226 20.2118V18.8561C24.9226 18.6073 24.72 18.4033 24.4731 18.4033H5.22137C4.97439 18.4033 4.77187 18.6073 4.77187 18.8561V25.167C4.77187 25.4158 4.97439 25.6198 5.22137 25.6198H19.8278C19.9612 25.3088 20.0995 25.0028 20.265 24.7093C20.2897 24.6645 20.2897 24.6272 20.2576 24.5824L19.5315 23.5252C19.0944 22.9008 19.1704 22.0477 19.7064 21.5054ZM28.6225 41.7165H30.949C31.0132 41.7165 31.0577 41.6792 31.07 41.6146L31.2973 40.3484C31.4059 39.7489 31.8283 39.2787 32.4111 39.1071C33.0755 38.9156 33.7201 38.6419 34.3326 38.3036C34.8562 38.0101 35.4958 38.0424 35.9898 38.3857L37.0395 39.117C37.0889 39.1544 37.1482 39.1494 37.1902 39.1046L38.835 37.4479C38.8795 37.4031 38.8844 37.3459 38.8474 37.2961L38.1213 36.2389C37.7805 35.7414 37.7484 35.0996 38.0398 34.5697C38.3757 33.9578 38.6474 33.3085 38.8375 32.6344C39.003 32.0548 39.4772 31.622 40.0699 31.5125L41.3271 31.2837C41.3913 31.2712 41.4283 31.2265 41.4283 31.1618V28.8185C41.4283 28.7538 41.3913 28.709 41.3271 28.6966L40.0699 28.4677C39.4747 28.3583 39.0079 27.9329 38.8375 27.3459C38.6474 26.6767 38.3757 26.0275 38.0398 25.4105C37.7484 24.8832 37.7805 24.2389 38.1213 23.7414L38.8474 22.6841C38.8844 22.6344 38.8795 22.5747 38.835 22.5324L37.1902 20.8757C37.1457 20.8309 37.0889 20.8259 37.0395 20.8632L35.9898 21.5945C35.4959 21.9378 34.8587 21.9702 34.3326 21.6766C33.725 21.3383 33.0804 21.0647 32.4111 20.8732C31.8357 20.7065 31.4059 20.2289 31.2973 19.6319L31.07 18.3657C31.0577 18.301 31.0132 18.2637 30.949 18.2637H28.6225C28.5583 18.2637 28.5138 18.301 28.5015 18.3657L28.2742 19.6319C28.1656 20.2314 27.7432 20.7015 27.1604 20.8732C26.496 21.0647 25.8514 21.3383 25.2389 21.6766C24.7153 21.9702 24.0757 21.9378 23.5817 21.5945L22.532 20.8632C22.4826 20.8259 22.4184 20.8309 22.3813 20.8757L20.7365 22.5324C20.692 22.5772 20.6871 22.6344 20.7241 22.6841L21.4502 23.7414C21.791 24.2389 21.8231 24.8807 21.5317 25.4105C21.1958 26.0225 20.9241 26.6717 20.734 27.3459C20.5685 27.9255 20.0943 28.3583 19.5016 28.4677L18.2444 28.6966C18.1802 28.709 18.1432 28.7538 18.1432 28.8185V31.1618C18.1432 31.2265 18.1802 31.2712 18.2444 31.2837L19.5016 31.5125C20.0968 31.622 20.5636 32.0473 20.734 32.6344C20.9241 33.3036 21.1958 33.9528 21.5317 34.5697C21.8231 35.0971 21.791 35.7414 21.4502 36.2389L20.7241 37.2961C20.6871 37.3459 20.692 37.4056 20.7365 37.4479L22.3813 39.1046C22.4258 39.1494 22.4826 39.1544 22.532 39.117L23.5817 38.3857C23.8533 38.1942 24.1645 38.0997 24.4807 38.0997C24.74 38.0997 25.0043 38.1643 25.2389 38.2962C25.8465 38.6345 26.4911 38.9006 27.1604 39.0996C27.7358 39.2663 28.1656 39.7439 28.2742 40.3409L28.5015 41.6071C28.5138 41.6792 28.5583 41.7165 28.6225 41.7165ZM58.1162 56.8982V36.9156H40.2497C40.4152 37.4629 40.2819 38.0673 39.8571 38.4952L38.2122 40.152C37.6738 40.6942 36.8266 40.7689 36.2018 40.336L35.1521 39.6047C35.1076 39.5724 35.0706 39.5724 35.0261 39.5973C34.3247 39.9853 33.5788 40.2988 32.8058 40.5276C32.7564 40.54 32.7293 40.5724 32.7169 40.6221L32.4897 41.8883C32.3761 42.5127 31.9068 42.9953 31.3141 43.142V56.9106C31.3141 57.8161 32.0476 58.5524 32.9441 58.5524H56.4882C57.3897 58.5349 58.1162 57.8037 58.1162 56.8982ZM56.2515 40.1895V46.5652C56.2515 47.6225 55.3969 48.4831 54.3473 48.4831L46.9777 48.4806C45.928 48.4806 45.0735 47.6199 45.0735 46.5628V40.1895C45.0735 39.1323 45.9281 38.2716 46.9777 38.2716H54.3498C55.3995 38.2716 56.2515 39.1323 56.2515 40.1895ZM54.7968 40.1895C54.7968 39.9407 54.5943 39.7367 54.3473 39.7367H46.9777C46.7307 39.7367 46.5282 39.9407 46.5282 40.1895V46.5652C46.5282 46.814 46.7307 47.018 46.9777 47.018H54.3498C54.5968 47.018 54.7993 46.814 54.7993 46.5652L54.7968 40.1895ZM56.2515 52.5054V55.2616C56.2515 56.3189 55.3969 57.1795 54.3473 57.1795H35.0906C34.0409 57.1795 33.1864 56.3188 33.1864 55.2616V52.5054C33.1864 51.4482 34.041 50.5875 35.0906 50.5875H54.3498C55.3995 50.5875 56.2515 51.4483 56.2515 52.5054ZM54.7968 52.5054C54.7968 52.2567 54.5943 52.0527 54.3473 52.0527H35.0905C34.8436 52.0527 34.641 52.2567 34.641 52.5054V55.2616C34.641 55.5104 34.8436 55.7144 35.0905 55.7144H54.3498C54.5968 55.7144 54.7993 55.5104 54.7993 55.2616L54.7968 52.5054ZM40.4647 40.9212H42.1467C42.5443 40.9212 42.8727 40.5953 42.8727 40.1899C42.8727 39.7819 42.5492 39.4585 42.1467 39.4585H40.4647C40.0671 39.4585 39.7386 39.7844 39.7386 40.1899C39.7362 40.5978 40.0597 40.9212 40.4647 40.9212ZM33.9151 47.2969H38.62C39.0177 47.2969 39.3461 46.9711 39.3461 46.5656C39.3461 46.1651 39.0226 45.8343 38.62 45.8343H33.9151C33.5175 45.8343 33.189 46.1602 33.189 46.5656C33.1866 46.9711 33.5101 47.2969 33.9151 47.2969ZM33.9151 44.1129H42.1472C42.5448 44.1129 42.8733 43.787 42.8733 43.3816C42.8733 42.9736 42.5497 42.6502 42.1472 42.6502L33.9151 42.6478C33.5175 42.6478 33.189 42.9736 33.189 43.3791C33.1866 43.787 33.5101 44.1129 33.9151 44.1129ZM45.99 34.2295H55.6813C56.079 34.2295 56.4074 33.9037 56.4074 33.4982C56.4074 33.0903 56.0839 32.7669 55.6813 32.7669L45.99 32.7644C45.5924 32.7644 45.264 33.0903 45.264 33.4957C45.264 33.9037 45.585 34.2295 45.99 34.2295ZM3.32006 12.9211V10.1002C3.32006 9.04298 4.17463 8.18233 5.22424 8.18233H14.4609C15.5106 8.18233 16.3651 9.04305 16.3651 10.1002V12.9211C16.3651 13.9783 15.5105 14.839 14.4609 14.839H5.22171C4.17203 14.844 3.32006 13.9783 3.32006 12.9211ZM4.76737 12.9211C4.76737 13.1699 4.96989 13.3738 5.21687 13.3738H14.4536C14.7005 13.3738 14.9031 13.1699 14.9031 12.9211V10.1002C14.9031 9.85147 14.7005 9.64748 14.4536 9.64748H5.22129C4.97431 9.64748 4.7718 9.85146 4.7718 10.1002L4.77426 12.9211H4.76737ZM18.734 12.9211V10.1002C18.734 9.04298 19.5886 8.18233 20.6382 8.18233H24.4811C25.5308 8.18233 26.3853 9.04305 26.3853 10.1002V12.9211C26.3853 13.9783 25.5307 14.839 24.4811 14.839H20.6382C19.5885 14.844 18.734 13.9783 18.734 12.9211ZM20.1887 12.9211C20.1887 13.1699 20.3912 13.3738 20.6382 13.3738H24.4811C24.7281 13.3738 24.9306 13.1699 24.9306 12.9211V10.1002C24.9306 9.85147 24.7281 9.64748 24.4811 9.64748H20.6382C20.3912 9.64748 20.1887 9.85146 20.1887 10.1002V12.9211ZM4.70338 4.23434C5.15288 4.23434 5.51843 3.86618 5.51843 3.41342C5.51843 2.96066 5.1529 2.59251 4.70338 2.59251C4.25387 2.59251 3.88834 2.96066 3.88834 3.41342C3.88834 3.86618 4.25633 4.23434 4.70338 4.23434ZM7.6004 4.23434C8.0499 4.23434 8.41545 3.86618 8.41545 3.41342C8.41545 2.96066 8.04993 2.59251 7.6004 2.59251C7.1509 2.59251 6.78535 2.96066 6.78535 3.41342C6.78535 3.86618 7.14594 4.23434 7.6004 4.23434ZM10.49 4.23434C10.9395 4.23434 11.3051 3.86618 11.3051 3.41342C11.3051 2.96066 10.9395 2.59251 10.49 2.59251C10.0405 2.59251 9.67497 2.96066 9.67497 3.41342C9.67497 3.86618 10.0405 4.23434 10.49 4.23434ZM16.1161 4.14479H25.8074C26.205 4.14479 26.5335 3.81892 26.5335 3.41347C26.536 3.00552 26.2149 2.68216 25.8099 2.68216H16.1161C15.7184 2.68216 15.39 3.00803 15.39 3.41347C15.39 3.82143 15.7185 4.14479 16.1161 4.14479ZM29.7862 36.9853C25.9605 36.9853 22.851 33.8509 22.851 30.0001C22.851 26.1468 25.9629 23.0148 29.7862 23.0148C33.6119 23.0148 36.7215 26.1467 36.7215 30.0001C36.7215 33.8534 33.612 36.9853 29.7862 36.9853ZM35.2691 30.0001C35.2691 26.9553 32.8093 24.4777 29.7862 24.4777C26.7632 24.4777 24.3033 26.9553 24.3033 30.0001C24.3033 33.0449 26.7632 35.5224 29.7862 35.5224C32.8093 35.5224 35.2691 33.0449 35.2691 30.0001Z" fill="#0CB4C4"></path></svg>