<svg width="59" height="60" viewBox="0 0 59 60" fill="none" xmlns="http://www.w3.org/2000/svg"><path fill-rule="evenodd" clip-rule="evenodd" d="M22.3978 4.81037L22.403 4.89371C22.403 5.24267 22.2733 5.57597 22.0346 5.83117L21.9982 5.87284C21.6038 6.26867 21.0122 6.38585 20.4959 6.17231C19.9821 5.95617 19.6448 5.45358 19.6448 4.89365V4.79991C19.6941 4.09158 20.2676 3.53691 20.9759 3.51345C21.6817 3.49001 22.2915 4.00563 22.3849 4.70877L22.3953 4.81033L22.3978 4.81037ZM12.7142 21.883C12.5144 21.6382 12.5533 21.2762 12.7972 21.0757C13.0411 20.8778 13.4018 20.9142 13.6016 21.159L13.8299 21.4403L14.6992 20.4403H14.6966C14.7926 20.3179 14.9353 20.2424 15.0884 20.2294C15.2441 20.2163 15.3972 20.2658 15.5139 20.3674C15.6307 20.4689 15.7008 20.6148 15.7085 20.7684C15.7189 20.9247 15.6644 21.0757 15.5606 21.1903L14.2477 22.7085H14.2451C14.2243 22.7319 14.2009 22.7554 14.175 22.7736C14.0582 22.8699 13.9051 22.9168 13.7546 22.9012C13.6041 22.8856 13.4666 22.81 13.3706 22.6903L12.7142 21.883ZM20.4648 24.0757C20.1483 24.0757 19.8914 23.8179 19.8914 23.5028C19.8914 23.1851 20.1483 22.9273 20.4648 22.9273H26.9466C27.1931 22.383 27.4707 21.8569 27.7769 21.3439H20.4647C20.1559 21.3335 19.912 21.0783 19.912 20.7684C19.912 20.4585 20.1559 20.2059 20.4647 20.1929H28.3136C28.3785 20.1955 28.4434 20.2059 28.5056 20.2268C30.5866 17.3309 33.5603 15.2033 36.9697 14.1773V11.3857H30.2546V12.7294C30.2546 12.8804 30.195 13.0263 30.086 13.1356C29.9796 13.2424 29.8343 13.3023 29.6812 13.3023H12.2595C11.943 13.3023 11.6861 13.0471 11.6861 12.7294V11.3857H4.97106V55.0128H36.97V45.1142C36.7961 45.0621 36.6223 45.0074 36.4484 44.9475C32.4005 43.5881 29.0611 40.6637 27.1667 36.8249C26.985 36.4577 26.8164 36.0827 26.6633 35.7025L20.4644 35.7051C20.1556 35.6947 19.9117 35.4395 19.9117 35.1296C19.9117 34.8197 20.1556 34.5645 20.4644 34.5541H26.2481C26.082 34.0332 25.9445 33.5046 25.8303 32.9707H20.4644C20.1556 32.9603 19.9117 32.7077 19.9117 32.3952C19.9117 32.0853 20.1556 31.8327 20.4644 31.8223H25.6331C25.2984 29.3614 25.5345 26.8588 26.326 24.507V24.5018C26.3727 24.3586 26.4246 24.2153 26.4765 24.0747L20.4648 24.0757ZM27.8601 23.6877C29.6687 19.5028 33.2728 16.3697 37.6606 15.1724C37.6814 15.1698 37.7047 15.162 37.7255 15.1541C38.9398 14.8286 40.1931 14.6594 41.449 14.6489H41.5087C43.1356 14.6411 44.7522 14.9015 46.2934 15.4197C46.322 15.4302 46.3505 15.4406 46.3791 15.4484C51.291 17.1541 54.9654 21.2999 56.0806 26.3963C57.199 31.4901 55.598 36.8023 51.8563 40.4223C48.1147 44.0421 42.7639 45.4509 37.7328 44.141C37.7068 44.1306 37.6809 44.1228 37.6523 44.1176C37.3721 44.0394 37.0919 43.9535 36.809 43.8597V43.8624C33.0518 42.5994 29.9512 39.8832 28.1915 36.3211C27.9736 35.8783 27.7764 35.4279 27.6025 34.9643C27.5947 34.9382 27.5844 34.9148 27.574 34.8913C27.2652 34.0606 27.0291 33.2012 26.8682 32.3288C26.8656 32.3054 26.863 32.2846 26.8578 32.2611C26.4219 29.8054 26.6087 27.2767 27.3949 24.9125C27.4079 24.8838 27.4157 24.8552 27.4235 24.8265C27.5454 24.4646 27.6804 24.113 27.8257 23.7667V23.7693C27.8387 23.7432 27.8516 23.7172 27.8594 23.6912L27.8601 23.6877ZM12.8025 17.4273C12.0656 17.4273 11.3572 17.7242 10.8383 18.2476C10.3142 18.7711 10.0209 19.482 10.0209 20.2216V22.9143C10.0209 23.6565 10.3141 24.3648 10.8383 24.8882C11.3573 25.4142 12.0657 25.7111 12.8025 25.7137H15.4882C17.0269 25.7111 18.2723 24.4611 18.2775 22.9169V20.2242C18.2775 19.482 17.9817 18.7736 17.4576 18.2502C16.9386 17.7242 16.2302 17.4299 15.4933 17.4299L12.8025 17.4273ZM15.4856 18.5758H12.8025C11.8969 18.5784 11.1653 19.3154 11.1626 20.2242V22.9169C11.1652 23.8258 11.8995 24.5628 12.8025 24.5628H15.4882C16.3912 24.5602 17.1254 23.8258 17.1281 22.9169V20.2242C17.1255 19.3154 16.3937 18.5784 15.4882 18.5758H15.4856ZM12.7169 33.5077V33.5103C12.6105 33.3931 12.556 33.2395 12.5664 33.0806C12.5768 32.9218 12.652 32.7759 12.7766 32.677C12.8985 32.5754 13.0568 32.5311 13.2125 32.552C13.3682 32.5728 13.5083 32.6587 13.6017 32.789L13.8301 33.0702L14.6993 32.0702L14.6967 32.0676C14.7953 31.953 14.9355 31.8827 15.086 31.8723C15.2365 31.8593 15.3869 31.9088 15.5011 32.0103C15.7398 32.216 15.7658 32.578 15.5608 32.8176L14.2452 34.3332C14.2245 34.3566 14.1985 34.38 14.1752 34.4009C13.9287 34.5988 13.5706 34.5623 13.3708 34.3175L12.7143 33.5077L12.7169 33.5077ZM12.8025 29.052H15.4856L15.4882 29.0546C16.2251 29.0546 16.9335 29.3515 17.4524 29.8749V29.8801C17.9765 30.401 18.2698 31.1119 18.2698 31.8515V34.5442C18.2698 35.2864 17.9766 35.9947 17.4524 36.5181C16.9308 37.0415 16.225 37.3384 15.4856 37.3384H12.8025C12.0656 37.3384 11.3572 37.0416 10.8383 36.5181C10.3142 35.9947 10.0209 35.2863 10.0209 34.5442V31.8515C10.0235 30.3098 11.2664 29.0598 12.8025 29.0546L12.8025 29.052ZM15.4856 30.203L15.4882 30.2057C15.9215 30.203 16.3392 30.3775 16.6454 30.6848C16.9542 30.9947 17.1255 31.4113 17.1255 31.8489V34.5416C17.1255 35.4505 16.3911 36.1875 15.4855 36.1875H12.8025C11.8969 36.1875 11.1652 35.4505 11.1626 34.5416V31.8515C11.1652 30.9426 11.8995 30.2083 12.8025 30.2056L15.4856 30.203ZM12.7169 45.135V45.1376C12.5431 44.8928 12.5898 44.5517 12.8233 44.3615C13.0542 44.1714 13.3968 44.1949 13.6018 44.4162L13.8301 44.6975L14.6994 43.6975L14.6968 43.6949C14.7928 43.5751 14.9355 43.4996 15.0886 43.4865C15.2443 43.4735 15.3973 43.523 15.5141 43.6245C15.6309 43.7261 15.7009 43.8693 15.7087 44.0256C15.7191 44.1792 15.6646 44.3303 15.5608 44.4449L14.2478 45.9631H14.2452C14.2245 45.9891 14.2011 46.0099 14.1752 46.0308C14.0584 46.1271 13.9079 46.1714 13.7548 46.1558C13.6043 46.1401 13.4668 46.0672 13.3708 45.9474L12.7143 45.1376L12.7169 45.135ZM20.4649 47.3329C20.1561 47.3225 19.9122 47.0673 19.9122 46.7574C19.9122 46.4475 20.1561 46.1923 20.4649 46.1819H31.4618C31.7706 46.1923 32.0145 46.4475 32.0145 46.7574C32.0145 47.0673 31.7706 47.3225 31.4618 47.3329H20.4649ZM20.4649 44.5985C20.1483 44.5985 19.8914 44.3433 19.8914 44.0256C19.8914 43.7079 20.1483 43.4501 20.4649 43.4501H28.3138C28.6304 43.4501 28.8873 43.7079 28.8873 44.0256C28.8873 44.3433 28.6304 44.5985 28.3138 44.5985H20.4649ZM12.8026 40.6845H15.4882C16.2252 40.6845 16.9335 40.9787 17.4525 41.5048V41.51V41.5074C17.9766 42.0308 18.2698 42.7392 18.2698 43.4787V46.1741C18.2672 47.7183 17.0192 48.9683 15.4805 48.9683H12.8027C12.0657 48.9683 11.3574 48.674 10.8384 48.148C10.3117 47.6271 10.0159 46.9162 10.0133 46.1741V43.4787C10.0159 41.9345 11.2639 40.6845 12.8026 40.6845ZM15.4856 41.8329H15.4882C15.9216 41.8329 16.3393 42.0048 16.6455 42.3147C16.9543 42.622 17.1255 43.0412 17.1255 43.4788V46.1715C17.123 47.0777 16.3912 47.8147 15.4856 47.8173H12.8026C11.897 47.8173 11.1653 47.0803 11.1627 46.1715V43.4788C11.1652 42.5725 11.8996 41.8356 12.8026 41.8329L15.4856 41.8329ZM40.1385 31.4763V31.4893C40.1826 31.8383 40.3538 32.156 40.6211 32.3825C41.1634 32.8435 41.9548 32.8487 42.5023 32.3982L42.5204 32.3825C42.7799 32.1638 42.9512 31.8591 43.0005 31.5231L43.0083 31.4763L43.7478 24.5776V24.575C43.836 23.7339 43.4416 22.9136 42.7307 22.4578C42.2039 22.1245 41.5604 22.0333 40.9636 22.2078C40.3642 22.3823 39.8712 22.8068 39.6039 23.3719C39.4249 23.7443 39.3522 24.1583 39.3963 24.5698L40.1359 31.4685L40.1385 31.4763ZM40.5381 24.453L41.2776 31.3543H41.275C41.2854 31.4142 41.3191 31.4689 41.3632 31.508C41.4852 31.6017 41.6512 31.6043 41.7732 31.5158L41.7836 31.5054C41.8303 31.4663 41.8614 31.4116 41.8744 31.3517L42.6139 24.4484C42.6347 24.2479 42.5983 24.0474 42.5127 23.8651C42.4271 23.6854 42.2921 23.5317 42.1235 23.425C41.7862 23.2166 41.3606 23.2166 41.0233 23.425C40.6808 23.6463 40.4914 24.0421 40.5329 24.4484L40.5381 24.453ZM39.5079 35.0963C39.5079 35.6301 39.7129 36.1432 40.0814 36.5286L40.1151 36.565H40.1125C40.5017 36.953 41.0284 37.1718 41.5759 37.1718C42.126 37.1718 42.6528 36.953 43.042 36.565C43.81 35.7473 43.7893 34.4635 42.9978 33.6692C42.2039 32.8749 40.9272 32.8593 40.1124 33.6301C39.7258 34.0181 39.5079 34.5468 39.5079 35.0963ZM40.9221 34.4374C40.5718 34.7942 40.5614 35.3619 40.8987 35.7291L40.9221 35.7499V35.7525C41.0959 35.9244 41.332 36.0234 41.5759 36.0234C41.8224 36.0234 42.0586 35.9244 42.2298 35.7525C42.5801 35.3854 42.5749 34.8072 42.2169 34.4505C41.8614 34.0937 41.2853 34.0859 40.9221 34.4374ZM52.0405 43.846L51.3373 42.4788H51.3347C54.4459 40.096 56.5813 36.6559 57.3468 32.8068C58.1123 28.9553 57.4532 24.9582 55.4941 21.5596C53.5351 18.1609 50.4084 15.5961 46.7006 14.3463H46.6954C45.1931 13.8385 43.6258 13.5546 42.0456 13.5077V10.2759C42.0378 9.22128 41.6174 8.21342 40.8702 7.47129C40.1306 6.72129 39.1239 6.29683 38.073 6.29163H30.1929C30.0917 5.8385 29.8659 5.42183 29.539 5.0937L29.5026 5.05985C29.0356 4.61453 28.4129 4.36712 27.7693 4.37238H25.8647C25.735 3.27345 25.2446 2.24739 24.4661 1.45833C23.5605 0.528664 22.3202 0.00259999 21.0229 0C19.7099 0.00781263 18.4514 0.533851 17.5199 1.46613C16.7259 2.24479 16.2174 3.26819 16.0772 4.37238H14.1726C13.511 4.36717 12.8753 4.62499 12.4056 5.09111C12.0786 5.42184 11.8503 5.83851 11.7517 6.29164H3.86885C2.83871 6.28904 1.85009 6.7031 1.12877 7.4401C0.402194 8.1823 -0.00513242 9.1823 4.8832e-05 10.224V56.1198C-0.0051404 57.1536 0.410026 58.1458 1.14438 58.8697C1.88649 59.5989 2.88289 60.0051 3.9208 59.9999H38.1277C39.1656 59.9999 40.162 59.5859 40.8964 58.8489C41.6333 58.1119 42.0459 57.1093 42.0459 56.0676V45.7863C43.0397 45.7577 44.0309 45.6353 45.0039 45.4218L45.7383 46.7994C45.5592 46.979 45.4191 47.1926 45.3309 47.4322C45.1752 47.8488 45.1882 48.3124 45.3698 48.7212L45.388 48.7603L49.6045 57.7189L49.6331 57.7736C50.2324 58.7528 51.1718 59.4767 52.272 59.7997C53.3774 60.1304 54.5632 60.0418 55.6088 59.5523C57.7547 58.5445 58.803 56.0783 58.0402 53.8258L58.0168 53.7659L53.8185 44.8052C53.6239 44.386 53.2684 44.0656 52.8324 43.9198C52.5756 43.8339 52.3057 43.8105 52.041 43.8469L52.0405 43.846ZM40.9008 45.7783C39.9615 45.7392 39.03 45.6168 38.1114 45.4137V55.5883C38.1114 55.7393 38.0517 55.8852 37.9428 55.9946C37.8364 56.1013 37.6911 56.1612 37.538 56.1612H4.39719C4.08322 56.1612 3.82634 55.9034 3.82634 55.5883V10.8098C3.82634 10.6562 3.88602 10.5103 3.9924 10.4036C4.10138 10.2942 4.24669 10.2343 4.39719 10.2343H11.6862V7.44004H3.86778C3.14386 7.43483 2.44844 7.7239 1.93988 8.23951C1.42611 8.76815 1.13812 9.4791 1.1433 10.2187V56.1198C1.1407 56.8464 1.42873 57.5443 1.94506 58.0521C2.47181 58.5703 3.1802 58.8568 3.91713 58.8542H38.1267C38.8636 58.8542 39.5694 58.5625 40.0909 58.039C40.6125 57.5156 40.9031 56.8072 40.9005 56.0677L40.9008 45.7783ZM38.1114 13.8771V10.8093V10.8119C38.1114 10.6583 38.0517 10.5125 37.9428 10.4057C37.8364 10.2963 37.6911 10.2364 37.538 10.2364H30.2543V7.43957H38.0727C38.82 7.44478 39.5361 7.74686 40.0603 8.2807C40.5948 8.80934 40.8958 9.52549 40.901 10.2755V13.5125C39.9643 13.5541 39.0328 13.6739 38.1168 13.8771L38.1114 13.8771ZM52.4682 45.0043C52.3177 44.9574 52.1542 44.9652 52.0115 45.0303L46.7181 47.4964H46.7155C46.5702 47.5615 46.456 47.6839 46.3989 47.8324C46.347 47.9704 46.3522 48.1214 46.4093 48.2542L50.6233 57.1995C51.0722 57.9261 51.7754 58.4599 52.5927 58.7021C53.4308 58.9521 54.3286 58.887 55.1226 58.5146C56.734 57.7568 57.5228 55.9078 56.9571 54.2126L52.7847 45.288C52.7224 45.1551 52.6083 45.0511 52.4682 45.0043ZM46.1369 45.1267L46.7233 46.2256L50.9606 44.2517L50.3898 43.1449H50.3924C49.0768 44.0095 47.6445 44.6761 46.1369 45.1267ZM51.874 33.168C50.9451 35.9024 48.9756 38.1576 46.3964 39.4362C43.8146 40.7175 40.8332 40.918 38.1064 39.9987C35.3715 39.0768 33.114 37.1003 31.8296 34.5065C30.5452 31.9128 30.3376 28.9128 31.2562 26.1679V26.1627C32.1747 23.4257 34.1364 21.1627 36.713 19.8737C39.287 18.582 42.2684 18.3685 45.001 19.2799C45.0269 19.2903 45.0555 19.3007 45.084 19.3086C47.8007 20.2356 50.0426 22.207 51.3193 24.7877C52.5959 27.3659 52.8061 30.3502 51.9031 33.0844C51.8901 33.1104 51.8823 33.1391 51.8745 33.1677L51.874 33.168ZM52.3436 24.2774C53.763 27.142 53.9913 30.4545 52.9716 33.4854V33.4906C51.7805 37.0452 49.0094 39.8447 45.4727 41.0586C41.936 42.2747 38.0389 41.7721 34.9248 39.6966C31.8108 37.621 29.8365 34.2096 29.5822 30.4673C29.3253 26.7225 30.8199 23.074 33.6248 20.5946C36.4272 18.1128 40.2208 17.0817 43.8897 17.803C47.5587 18.5243 50.6831 20.9176 52.3458 24.2769L52.3436 24.2774ZM29.1097 6.91815V6.86607V6.86346C29.1175 6.50409 28.9799 6.15773 28.7282 5.90254L28.7049 5.87649C28.4506 5.64212 28.1159 5.51452 27.7708 5.51972H25.3265C25.01 5.51972 24.7531 5.26191 24.7531 4.9442C24.7505 3.93901 24.3561 2.97548 23.6503 2.25935C22.96 1.55102 22.013 1.14995 21.0218 1.14735C20.0098 1.15517 19.0367 1.56141 18.3206 2.28275C17.6019 2.98328 17.1945 3.94421 17.1867 4.9494C17.1867 5.10044 17.127 5.24628 17.0206 5.35565C16.9117 5.46243 16.7664 5.52232 16.6158 5.52232H14.1716C13.8135 5.51711 13.4684 5.65253 13.2141 5.90253C12.9624 6.16034 12.8249 6.50669 12.8327 6.86606V12.1551H29.1071V6.97026V6.91817L29.1097 6.91815ZM21.2581 4.87909V4.84784C21.2321 4.73586 21.1283 4.65514 21.0142 4.66295C20.8974 4.66816 20.804 4.7593 20.7936 4.87389V4.89212C20.791 4.95462 20.817 5.01451 20.8611 5.05879C20.9052 5.10306 20.9649 5.12649 21.0271 5.12649C21.0894 5.12649 21.1491 5.10306 21.1932 5.06139L21.2088 5.04576H21.2062C21.2425 5.0041 21.2607 4.94941 21.2607 4.89472L21.2581 4.87909Z" fill="#0CB4C4"></path></svg>