<svg xmlns="http://www.w3.org/2000/svg" width="60" height="60" viewBox="0 0 60 60" fill="none"><title>Database Support</title><path d="M54.175 1.68503C50.7612 0.598813 46.2412 0 41.4467 0C36.6523 0 32.133 0.59815 28.7192 1.68503C24.9088 2.89791 22.8942 4.58559 22.8942 6.56506V12.9153C21.4896 12.8045 20.0347 12.7468 18.5533 12.7468C13.7594 12.7468 9.23883 13.345 5.825 14.4319C2.01461 15.6447 0 17.3324 0 19.3119V53.4349C0 55.4144 2.01395 57.1021 5.825 58.315C9.23883 59.4012 13.7588 60 18.5533 60C23.3477 60 27.8677 59.4018 31.2815 58.315C35.0919 57.1021 37.1065 55.4144 37.1065 53.4349V47.0834C38.5216 47.1955 39.9772 47.2532 41.4474 47.2532C46.2412 47.2532 50.7618 46.655 54.1757 45.5681C57.9861 44.3553 60.0007 42.6676 60.0007 40.6881V6.5644C60 4.58493 57.9861 2.89791 54.175 1.68503ZM29.306 3.52922C32.5348 2.50135 36.8466 1.9357 41.4467 1.9357C46.0469 1.9357 50.3586 2.50135 53.5875 3.52922C56.8912 4.58095 58.0636 5.82168 58.0636 6.56506C58.0636 7.30844 56.8912 8.54917 53.5875 9.6009C50.3586 10.6288 46.0469 11.1944 41.4467 11.1944C36.8466 11.1944 32.5348 10.6288 29.306 9.6009C26.0023 8.54917 24.8299 7.30844 24.8299 6.56506C24.8299 5.82168 26.0023 4.58095 29.306 3.52922ZM6.41254 16.2754C9.64135 15.2475 13.9531 14.6819 18.5533 14.6819C23.1534 14.6819 27.4652 15.2475 30.694 16.2754C33.9977 17.3271 35.1702 18.5678 35.1702 19.3112C35.1702 20.0546 33.9977 21.2953 30.694 22.3471C27.4652 23.3749 23.1534 23.9406 18.5533 23.9406C13.9531 23.9406 9.64135 23.3749 6.41254 22.3471C3.10879 21.2953 1.93636 20.0546 1.93636 19.3112C1.93636 18.5678 3.10812 17.3271 6.41254 16.2754ZM1.9357 22.3855C2.89194 23.0646 4.19302 23.6713 5.825 24.1912C9.23883 25.2775 13.7588 25.8763 18.5533 25.8763C23.3477 25.8763 27.8677 25.2781 31.2815 24.1912C32.9135 23.672 34.2152 23.0652 35.1708 22.3862V30.6867C35.1708 31.4301 33.9984 32.6708 30.6946 33.7225C27.4658 34.7504 23.1541 35.316 18.5539 35.316C13.9537 35.316 9.64202 34.7504 6.4132 33.7225C3.10945 32.6708 1.93702 31.4301 1.93702 30.6867V22.3855H1.9357ZM1.9357 33.7603C2.89194 34.4394 4.19302 35.0461 5.825 35.5654C9.23883 36.6516 13.7588 37.2504 18.5533 37.2504C23.3477 37.2504 27.8677 36.6523 31.2815 35.5654C32.9135 35.0461 34.2152 34.4394 35.1708 33.7603V42.0601C35.1708 42.8035 33.9984 44.0443 30.6946 45.096C27.4658 46.1239 23.1541 46.6895 18.5539 46.6895C13.9537 46.6895 9.64202 46.1239 6.4132 45.096C3.10945 44.0443 1.93702 42.8035 1.93702 42.0601V33.7603H1.9357ZM30.6946 56.4701C27.4658 57.498 23.1541 58.0636 18.5539 58.0636C13.9537 58.0636 9.64202 57.498 6.4132 56.4701C3.10945 55.4184 1.93702 54.1777 1.93702 53.4349V45.1344C2.89327 45.8135 4.19434 46.4203 5.82632 46.9402C9.24015 48.0264 13.7601 48.6252 18.5546 48.6252C23.3491 48.6252 27.869 48.0271 31.2828 46.9402C32.9148 46.4209 34.2166 45.8142 35.1721 45.1351V53.4349C35.1708 54.1777 33.9984 55.4184 30.6946 56.4701ZM53.5881 43.724C50.3593 44.7518 46.0476 45.3175 41.4474 45.3175C39.9746 45.3175 38.519 45.2578 37.1065 45.1411V35.7086C38.5216 35.8207 39.9766 35.8784 41.4474 35.8784C46.2412 35.8784 50.7618 35.2802 54.1757 34.1933C55.8076 33.6741 57.1094 33.0673 58.065 32.3876V40.6881C58.065 41.4315 56.8925 42.6722 53.5881 43.724ZM53.5881 32.3492C50.3593 33.377 46.0476 33.9427 41.4474 33.9427C39.9746 33.9427 38.5183 33.883 37.1065 33.7663V24.3338C38.5216 24.4459 39.9766 24.5036 41.4474 24.5036C46.2412 24.5036 50.7618 23.9054 54.1757 22.8186C55.8076 22.2993 57.1094 21.6925 58.065 21.0128V29.3127C58.065 30.0567 56.8925 31.2974 53.5881 32.3492ZM53.5881 20.9744C50.3593 22.0022 46.0476 22.5679 41.4474 22.5679C39.9746 22.5679 38.5183 22.5082 37.1065 22.3915V19.3106C37.1065 17.3311 35.0926 15.6434 31.2815 14.4305C29.4168 13.837 27.2198 13.3901 24.8299 13.1062V9.6387C25.7861 10.3178 27.0872 10.9245 28.7192 11.4438C32.133 12.53 36.6529 13.1288 41.4474 13.1288C46.2419 13.1288 50.7618 12.5306 54.1757 11.4438C55.8076 10.9245 57.1094 10.3178 58.065 9.63804V17.9379C58.065 18.6819 56.8925 19.9233 53.5881 20.9744ZM44.1762 17.849C44.1762 18.3835 43.7432 18.8165 43.2087 18.8165H39.6868C39.1523 18.8165 38.7193 18.3835 38.7193 17.849C38.7193 17.3145 39.1523 16.8815 39.6868 16.8815H43.2087C43.7425 16.8808 44.1762 17.3145 44.1762 17.849ZM44.1762 29.2231C44.1762 29.7576 43.7432 30.1907 43.2087 30.1907H39.6868C39.1523 30.1907 38.7193 29.7576 38.7193 29.2231C38.7193 28.6886 39.1523 28.2556 39.6868 28.2556H43.2087C43.7425 28.2556 44.1762 28.6886 44.1762 29.2231ZM44.1762 40.5979C44.1762 41.1324 43.7432 41.5654 43.2087 41.5654H39.6868C39.1523 41.5654 38.7193 41.1324 38.7193 40.5979C38.7193 40.0634 39.1523 39.6304 39.6868 39.6304H43.2087C43.7425 39.6304 44.1762 40.0634 44.1762 40.5979ZM15.8244 30.5952C15.8244 30.0607 16.2575 29.6276 16.792 29.6276H20.3139C20.8484 29.6276 21.2814 30.0607 21.2814 30.5952C21.2814 31.1297 20.8484 31.5627 20.3139 31.5627H16.792C16.2581 31.5633 15.8244 31.1297 15.8244 30.5952ZM15.8244 41.97C15.8244 41.4355 16.2575 41.0024 16.792 41.0024H20.3139C20.8484 41.0024 21.2814 41.4355 21.2814 41.97C21.2814 42.5045 20.849 42.9375 20.3145 42.9375H16.7926C16.2581 42.9375 15.8244 42.5045 15.8244 41.97ZM21.2821 53.3448C21.2821 53.8792 20.849 54.3123 20.3145 54.3123H16.7926C16.2581 54.3123 15.8251 53.8792 15.8251 53.3448C15.8251 52.8103 16.2581 52.3772 16.7926 52.3772H20.3145C20.849 52.3766 21.2821 52.8103 21.2821 53.3448Z" fill="#0CB4C4"></path></svg>