<svg version="1.1" id="Layer_1" xmlns="http://www.w3.org/2000/svg" xmlns:xlink="http://www.w3.org/1999/xlink" x="0px" y="0px" width="62px" height="60px" viewBox="0 0 62 60" style="enable-background:new 0 0 62 60;" xml:space="preserve"><g><g><path style="fill:#0CB4C4;" d="M61.669,13.869V5.395c0-2.818-2.202-5.146-4.909-5.146H5.239c-2.706,0-4.909,2.328-4.909,5.146 v41.538c0,2.817,2.203,5.087,4.909,5.087h9.716l3.719,3.723c0.286,0.288,0.744,0.313,1.058,0.054l2.845-2.354 c1.379,0.838,2.875,1.468,4.438,1.872l0.357,3.709c0.037,0.407,0.375,0.722,0.783,0.729h5.743 c0.407-0.008,0.746-0.322,0.783-0.729l0.357-3.699c1.565-0.396,3.064-1.026,4.444-1.87l2.836,2.351 c0.317,0.257,0.775,0.229,1.059-0.061l3.72-3.724h9.664c2.707,0,4.909-2.27,4.909-5.087V13.888c0-0.003,0-0.007,0-0.01 S61.669,13.872,61.669,13.869z M5.239,1.821H56.76c1.84,0,3.337,1.623,3.337,3.574v7.698H1.904V5.395 C1.904,3.444,3.4,1.821,5.239,1.821z M42.771,54.136l-2.728-2.265c-0.269-0.221-0.647-0.24-0.937-0.048 c-1.51,0.998-3.194,1.706-4.965,2.086c-0.336,0.078-0.584,0.365-0.617,0.711l-0.344,3.56h-4.314l-0.343-3.56 c-0.033-0.343-0.283-0.627-0.62-0.703c-1.77-0.393-3.454-1.104-4.97-2.097c-0.289-0.187-0.664-0.164-0.927,0.054l-2.729,2.262 l-3.04-3.034l2.261-2.728c0.222-0.269,0.242-0.648,0.05-0.937c-1.002-1.508-1.713-3.189-2.096-4.957 c-0.062-0.331-0.335-0.581-0.67-0.616l-3.526-0.343v-4.308l3.526-0.344c0.337-0.032,0.612-0.281,0.682-0.611 c0.393-1.767,1.102-3.449,2.093-4.965c0.188-0.29,0.165-0.667-0.056-0.931l-2.263-2.728l3.04-3.034l2.728,2.263 c0.267,0.221,0.647,0.241,0.936,0.05c1.509-1,3.193-1.708,4.964-2.088c0.336-0.078,0.585-0.364,0.617-0.708l0.343-3.556h4.314 l0.344,3.556c0.033,0.344,0.283,0.626,0.619,0.7c1.771,0.393,3.455,1.104,4.971,2.097c0.288,0.185,0.663,0.164,0.929-0.054 l2.726-2.259l2.994,3.027L43.5,30.362c-0.221,0.267-0.241,0.648-0.049,0.938c1.002,1.506,1.712,3.187,2.095,4.956 c0.063,0.33,0.336,0.582,0.67,0.614l3.526,0.344v4.31l-3.479,0.341c-0.335,0.033-0.611,0.281-0.68,0.612 c-0.394,1.769-1.104,3.45-2.094,4.966c-0.187,0.29-0.164,0.666,0.057,0.932l2.264,2.728L42.771,54.136z M56.76,50.447h-9.428 l-2.207-2.651c0.835-1.377,1.467-2.867,1.873-4.426l3.63-0.354c0.397-0.04,0.698-0.382,0.688-0.779v-5.734 c0.011-0.402-0.29-0.743-0.688-0.784l-3.689-0.358c-0.396-1.563-1.024-3.058-1.866-4.435l2.354-2.838 c0.26-0.312,0.241-0.768-0.044-1.056l-4.006-4.045c-0.286-0.29-0.744-0.313-1.06-0.052l-2.844,2.357 c-1.38-0.836-2.875-1.467-4.437-1.871l-0.357-3.705c-0.038-0.406-0.376-0.718-0.783-0.726h-5.743 c-0.408,0.007-0.746,0.319-0.783,0.726l-0.358,3.697c-1.566,0.396-3.065,1.027-4.443,1.87l-2.838-2.351 c-0.313-0.259-0.771-0.238-1.058,0.049l-4.054,4.046c-0.289,0.287-0.31,0.746-0.051,1.059l2.356,2.841 c-0.836,1.378-1.467,2.872-1.873,4.431l-3.679,0.358c-0.399,0.041-0.699,0.382-0.688,0.784v5.734 c-0.011,0.4,0.29,0.742,0.688,0.783l3.689,0.357c0.395,1.56,1.024,3.052,1.866,4.424l-2.209,2.646h-9.48 c-1.839,0-3.335-1.565-3.335-3.515V14.666h58.193v32.267C60.097,48.882,58.6,50.447,56.76,50.447z"></path><path style="fill:#0CB4C4;" d="M33.898,60h-5.745c-0.541-0.011-0.981-0.42-1.03-0.955l-0.34-3.536 c-1.472-0.396-2.877-0.989-4.185-1.765l-2.709,2.242c-0.398,0.33-1.026,0.298-1.392-0.069l-3.646-3.649H5.239 c-2.843,0-5.156-2.394-5.156-5.335V5.395C0.083,2.42,2.396,0,5.239,0H56.76c2.844,0,5.157,2.42,5.157,5.395v41.538 c0,2.941-2.313,5.335-5.157,5.335h-9.562l-3.646,3.651c-0.358,0.365-0.988,0.403-1.39,0.077l-2.703-2.24 c-1.31,0.782-2.718,1.375-4.191,1.764l-0.342,3.527c-0.048,0.533-0.488,0.942-1.024,0.953H33.898z M22.554,53.139l0.151,0.091 c1.357,0.825,2.828,1.444,4.371,1.844l0.168,0.044l0.375,3.882c0.025,0.283,0.257,0.5,0.54,0.505h5.736 c0.281-0.007,0.513-0.223,0.538-0.503l0.375-3.875l0.168-0.043c1.545-0.392,3.018-1.01,4.376-1.841l0.15-0.094l2.974,2.464 c0.207,0.169,0.535,0.151,0.724-0.042l3.794-3.799h9.767c2.57,0,4.661-2.171,4.661-4.839V5.395c0-2.701-2.091-4.898-4.661-4.898 H5.239c-2.57,0-4.661,2.197-4.661,4.898v41.538c0,2.668,2.091,4.839,4.661,4.839h9.818l3.792,3.796 c0.192,0.193,0.516,0.21,0.725,0.038L22.554,53.139z M33.406,58.427h-4.764l-0.365-3.782c-0.022-0.237-0.194-0.434-0.427-0.485 c-1.803-0.4-3.503-1.118-5.052-2.132c-0.189-0.122-0.458-0.107-0.633,0.038l-2.903,2.405l-3.359-3.354l2.406-2.9 c0.153-0.186,0.167-0.443,0.035-0.642c-1.024-1.541-1.741-3.236-2.132-5.043c-0.043-0.227-0.229-0.398-0.454-0.421l-3.748-0.365 v-4.757l3.75-0.366c0.229-0.021,0.416-0.189,0.463-0.416c0.402-1.806,1.118-3.503,2.128-5.049 c0.129-0.198,0.113-0.454-0.039-0.637l-2.408-2.901l3.359-3.354l2.902,2.407c0.177,0.146,0.447,0.162,0.64,0.034 c1.542-1.021,3.241-1.736,5.05-2.124c0.229-0.053,0.399-0.25,0.421-0.487l0.365-3.782h4.764l0.366,3.781 c0.022,0.237,0.194,0.43,0.426,0.482c1.805,0.4,3.505,1.117,5.053,2.131c0.189,0.122,0.459,0.107,0.636-0.038l2.898-2.403 l3.313,3.349l-2.406,2.904c-0.15,0.181-0.164,0.446-0.034,0.643c1.022,1.536,1.74,3.231,2.131,5.04 c0.043,0.228,0.229,0.399,0.452,0.42l3.75,0.366v4.759l-3.702,0.363c-0.229,0.022-0.415,0.189-0.462,0.415 c-0.4,1.805-1.116,3.503-2.128,5.052c-0.128,0.198-0.112,0.455,0.039,0.638l2.408,2.901l-3.359,3.354l-2.901-2.408 c-0.177-0.147-0.447-0.162-0.641-0.033c-1.543,1.021-3.242,1.734-5.049,2.122c-0.229,0.053-0.399,0.252-0.423,0.492L33.406,58.427 z M29.093,57.932h3.864l0.322-3.336c0.043-0.452,0.367-0.825,0.808-0.928c1.751-0.376,3.393-1.065,4.884-2.052 c0.37-0.245,0.886-0.22,1.23,0.063l2.555,2.121l2.719-2.715l-2.118-2.554c-0.291-0.35-0.321-0.842-0.074-1.225 c0.979-1.499,1.672-3.143,2.06-4.886c0.091-0.435,0.451-0.76,0.896-0.805l3.256-0.318v-3.859l-3.303-0.322 c-0.44-0.043-0.807-0.379-0.889-0.815c-0.377-1.741-1.069-3.38-2.058-4.864c-0.251-0.378-0.225-0.885,0.064-1.233l2.12-2.559 l-2.677-2.707l-2.552,2.114c-0.341,0.281-0.851,0.309-1.22,0.072c-1.499-0.982-3.144-1.676-4.89-2.063 c-0.443-0.098-0.77-0.467-0.813-0.918l-0.322-3.332h-3.864l-0.321,3.332c-0.042,0.45-0.367,0.822-0.808,0.925 c-1.752,0.375-3.394,1.065-4.884,2.053c-0.371,0.244-0.89,0.217-1.231-0.066l-2.554-2.118l-2.721,2.714l2.119,2.554 c0.292,0.35,0.322,0.842,0.074,1.224c-0.979,1.496-1.671,3.139-2.059,4.884c-0.093,0.437-0.454,0.762-0.9,0.805l-3.302,0.322 v3.857l3.302,0.32c0.443,0.047,0.808,0.384,0.89,0.817c0.376,1.738,1.069,3.377,2.059,4.865c0.254,0.382,0.228,0.877-0.065,1.232 l-2.118,2.554l2.721,2.715l2.555-2.117c0.338-0.28,0.85-0.311,1.219-0.071c1.5,0.981,3.145,1.676,4.89,2.063 c0.443,0.101,0.77,0.471,0.813,0.922L29.093,57.932z M56.76,50.694h-9.544l-2.395-2.876l0.092-0.151 c0.824-1.358,1.445-2.826,1.846-4.36l0.043-0.166l3.802-0.372c0.267-0.026,0.472-0.258,0.464-0.525v-5.741 c0.007-0.277-0.197-0.51-0.465-0.537l-3.861-0.376l-0.043-0.168c-0.391-1.541-1.008-3.011-1.837-4.367l-0.093-0.15l2.467-2.975 c0.18-0.214,0.167-0.525-0.028-0.723l-4.006-4.045c-0.189-0.192-0.518-0.209-0.726-0.036l-2.979,2.47l-0.151-0.091 c-1.358-0.824-2.828-1.444-4.37-1.843l-0.168-0.043l-0.374-3.878c-0.026-0.281-0.259-0.496-0.541-0.501h-5.738 c-0.278,0.005-0.511,0.22-0.536,0.5l-0.375,3.873l-0.169,0.042c-1.546,0.392-3.018,1.011-4.375,1.842l-0.151,0.092l-2.974-2.465 c-0.207-0.171-0.534-0.156-0.724,0.034l-4.054,4.046c-0.199,0.198-0.214,0.509-0.035,0.725l2.469,2.978l-0.091,0.15 c-0.825,1.36-1.446,2.83-1.845,4.365l-0.043,0.167l-3.852,0.376c-0.268,0.027-0.472,0.26-0.465,0.53v5.741 c-0.007,0.276,0.198,0.509,0.466,0.536l3.861,0.375l0.042,0.168c0.39,1.54,1.009,3.006,1.837,4.355l0.093,0.152l-2.397,2.871 H5.239c-1.976,0-3.583-1.688-3.583-3.762V14.417h58.689v32.515C60.345,49.007,58.736,50.694,56.76,50.694z M47.448,50.199h9.312 c1.703,0,3.089-1.466,3.089-3.267v-32.02H2.151v32.02c0,1.801,1.385,3.267,3.088,3.267h9.364l2.021-2.422 c-0.779-1.3-1.37-2.702-1.759-4.17l-3.516-0.341c-0.526-0.055-0.927-0.51-0.913-1.037v-5.728 c-0.014-0.521,0.386-0.977,0.911-1.031l3.509-0.342c0.397-1.464,0.991-2.868,1.765-4.177l-2.244-2.707 c-0.344-0.415-0.316-1.014,0.066-1.393l4.053-4.046c0.363-0.365,0.991-0.395,1.391-0.065l2.702,2.24 c1.308-0.781,2.716-1.374,4.191-1.764l0.341-3.525c0.048-0.531,0.489-0.94,1.025-0.95h5.747c0.54,0.01,0.98,0.418,1.029,0.951 l0.342,3.532c1.47,0.396,2.875,0.989,4.183,1.763l2.71-2.246c0.402-0.331,1.029-0.3,1.394,0.069l4.006,4.045 c0.375,0.38,0.4,0.977,0.058,1.389l-2.242,2.702c0.78,1.307,1.371,2.712,1.76,4.182l3.517,0.341 c0.526,0.055,0.925,0.51,0.912,1.037v5.729c0.013,0.52-0.387,0.974-0.912,1.026l-3.457,0.338 c-0.398,1.462-0.992,2.864-1.766,4.172L47.448,50.199z M60.345,13.34H1.656V5.395c0-2.107,1.607-3.822,3.583-3.822H56.76 c1.977,0,3.585,1.714,3.585,3.822V13.34z M2.151,12.845h57.697v-7.45c0-1.834-1.386-3.326-3.089-3.326H5.239 c-1.703,0-3.088,1.492-3.088,3.326V12.845z"></path></g><g><path style="fill:#0CB4C4;" d="M16.23,11.225c1.949,0,3.534-1.646,3.534-3.669c0-2.022-1.585-3.669-3.534-3.669 s-3.534,1.646-3.534,3.669C12.696,9.58,14.282,11.225,16.23,11.225z M16.23,5.46c1.082,0,1.961,0.941,1.961,2.096 c0,1.156-0.879,2.096-1.961,2.096c-1.082,0-1.962-0.94-1.962-2.096C14.269,6.401,15.149,5.46,16.23,5.46z"></path><path style="fill:#0CB4C4;" d="M16.23,11.473c-2.085,0-3.782-1.757-3.782-3.917s1.697-3.917,3.782-3.917s3.782,1.757,3.782,3.917 S18.315,11.473,16.23,11.473z M16.23,4.135c-1.812,0-3.286,1.535-3.286,3.421s1.474,3.421,3.286,3.421s3.286-1.535,3.286-3.421 S18.042,4.135,16.23,4.135z M16.23,9.9c-1.219,0-2.21-1.052-2.21-2.344s0.991-2.344,2.21-2.344c1.218,0,2.209,1.052,2.209,2.344 S17.448,9.9,16.23,9.9z M16.23,5.708c-0.945,0-1.714,0.829-1.714,1.848s0.769,1.848,1.714,1.848c0.945,0,1.713-0.829,1.713-1.848 S17.175,5.708,16.23,5.708z"></path></g><g><path style="fill:#0CB4C4;" d="M25.161,11.225c1.948,0,3.535-1.646,3.535-3.669c0-2.022-1.586-3.669-3.535-3.669 c-1.949,0-3.534,1.646-3.534,3.669C21.627,9.58,23.212,11.225,25.161,11.225z M25.161,5.46c1.081,0,1.962,0.941,1.962,2.096 c0,1.156-0.881,2.096-1.962,2.096c-1.081,0-1.961-0.94-1.961-2.096C23.2,6.401,24.08,5.46,25.161,5.46z"></path><path style="fill:#0CB4C4;" d="M25.161,11.473c-2.085,0-3.782-1.757-3.782-3.917s1.697-3.917,3.782-3.917 c2.086,0,3.783,1.757,3.783,3.917S27.247,11.473,25.161,11.473z M25.161,4.135c-1.812,0-3.286,1.535-3.286,3.421 s1.474,3.421,3.286,3.421c1.813,0,3.287-1.535,3.287-3.421S26.974,4.135,25.161,4.135z M25.161,9.9 c-1.219,0-2.209-1.052-2.209-2.344s0.991-2.344,2.209-2.344s2.21,1.052,2.21,2.344S26.38,9.9,25.161,9.9z M25.161,5.708 c-0.945,0-1.713,0.829-1.713,1.848s0.769,1.848,1.713,1.848c0.945,0,1.714-0.829,1.714-1.848S26.106,5.708,25.161,5.708z"></path></g><g><path style="fill:#0CB4C4;" d="M7.3,11.225c1.949,0,3.534-1.646,3.534-3.669c0-2.022-1.586-3.669-3.534-3.669 c-1.948,0-3.534,1.646-3.534,3.669C3.766,9.58,5.351,11.225,7.3,11.225z M7.3,5.46c1.081,0,1.961,0.941,1.961,2.096 c0,1.156-0.88,2.096-1.961,2.096c-1.082,0-1.961-0.94-1.961-2.096C5.339,6.401,6.218,5.46,7.3,5.46z"></path><path style="fill:#0CB4C4;" d="M7.3,11.473c-2.085,0-3.782-1.757-3.782-3.917S5.215,3.639,7.3,3.639 c2.085,0,3.782,1.757,3.782,3.917S9.385,11.473,7.3,11.473z M7.3,4.135c-1.812,0-3.286,1.535-3.286,3.421s1.474,3.421,3.286,3.421 c1.813,0,3.286-1.535,3.286-3.421S9.112,4.135,7.3,4.135z M7.3,9.9c-1.218,0-2.209-1.052-2.209-2.344S6.082,5.212,7.3,5.212 c1.218,0,2.209,1.052,2.209,2.344S8.518,9.9,7.3,9.9z M7.3,5.708c-0.944,0-1.713,0.829-1.713,1.848S6.355,9.404,7.3,9.404 c0.945,0,1.713-0.829,1.713-1.848S8.245,5.708,7.3,5.708z"></path></g><g><path style="fill:#0CB4C4;" d="M31.004,27.088c-6.782,0.009-12.274,5.515-12.264,12.297c0.009,6.783,5.516,12.273,12.297,12.264 c6.776-0.009,12.264-5.504,12.264-12.28C43.29,32.585,37.788,27.091,31.004,27.088z M31.004,50.075 c-5.914-0.008-10.701-4.812-10.691-10.725c0.009-5.914,4.811-10.701,10.724-10.691c5.908,0.009,10.691,4.8,10.691,10.709 C41.718,45.283,36.919,50.074,31.004,50.075z"></path><path style="fill:#0CB4C4;" d="M31.019,51.896c-6.899,0-12.519-5.613-12.527-12.512c-0.004-3.347,1.294-6.494,3.658-8.864 c2.363-2.369,5.507-3.677,8.854-3.681c6.907,0.003,12.535,5.623,12.545,12.528c0,6.899-5.612,12.52-12.512,12.528H31.019z M31.004,27.335c-3.214,0.004-6.234,1.26-8.503,3.536s-3.517,5.299-3.513,8.514C18.997,46.01,24.394,51.4,31.019,51.4v0.248 l0.017-0.248c6.626-0.009,12.017-5.405,12.017-12.032C43.042,32.736,37.637,27.338,31.004,27.335z M31.004,50.323 c-2.926-0.004-5.676-1.148-7.743-3.221c-2.066-2.073-3.201-4.826-3.196-7.752c0.008-6.032,4.923-10.939,10.955-10.939h0.017 c6.031,0.009,10.938,4.925,10.938,10.957C41.965,45.408,37.043,50.322,31.004,50.323z M31.02,28.659v0.248 c-5.759,0-10.451,4.685-10.459,10.443c-0.004,2.794,1.08,5.423,3.052,7.401c1.973,1.979,4.598,3.071,7.392,3.075 c5.766-0.001,10.465-4.693,10.476-10.459c0-5.76-4.685-10.452-10.444-10.461L31.02,28.659z"></path></g><g><path style="fill:#0CB4C4;" d="M28.59,35.019c-0.262-0.347-0.754-0.415-1.101-0.153l-5.083,3.846 c-0.347,0.261-0.416,0.753-0.153,1.1c0.044,0.058,0.095,0.109,0.153,0.153l5.083,3.845c0.35,0.257,0.842,0.184,1.1-0.166 c0.253-0.345,0.185-0.828-0.152-1.09l-4.254-3.216l4.254-3.216C28.784,35.859,28.853,35.365,28.59,35.019L28.59,35.019z"></path><path style="fill:#0CB4C4;" d="M27.955,44.21L27.955,44.21c-0.222,0-0.434-0.07-0.613-0.202l-5.085-3.847 c-0.074-0.055-0.141-0.123-0.2-0.2c-0.168-0.221-0.238-0.493-0.201-0.766c0.038-0.273,0.181-0.517,0.401-0.683l5.082-3.845 c0.441-0.336,1.114-0.241,1.449,0.2c0.167,0.222,0.238,0.494,0.2,0.769c-0.038,0.273-0.181,0.516-0.401,0.682l-3.992,3.019 l3.992,3.019c0.449,0.349,0.537,0.977,0.203,1.433C28.594,44.053,28.282,44.21,27.955,44.21z M27.963,34.954 c-0.118,0-0.229,0.037-0.324,0.109l-5.083,3.845c-0.115,0.087-0.189,0.213-0.209,0.354c-0.02,0.143,0.017,0.284,0.104,0.398 c0.031,0.04,0.066,0.076,0.104,0.104l5.083,3.846c0.227,0.166,0.581,0.115,0.751-0.116c0.174-0.237,0.128-0.565-0.105-0.747 l-4.513-3.411l4.515-3.414c0.115-0.087,0.189-0.213,0.209-0.355c0.02-0.142-0.018-0.284-0.104-0.398 C28.29,35.032,28.133,34.954,27.963,34.954z"></path></g><g><path style="fill:#0CB4C4;" d="M33.419,35.019c-0.262,0.347-0.193,0.839,0.153,1.101l4.253,3.216l-4.253,3.218 c-0.351,0.258-0.426,0.75-0.167,1.1c0.257,0.351,0.75,0.424,1.1,0.167c0.004-0.004,0.01-0.009,0.015-0.013l5.083-3.843 c0.348-0.263,0.415-0.757,0.152-1.103c-0.043-0.058-0.094-0.108-0.152-0.152l-5.083-3.844 C34.173,34.604,33.68,34.672,33.419,35.019z"></path><path style="fill:#0CB4C4;" d="M34.039,44.221L34.039,44.221c-0.328,0-0.64-0.158-0.833-0.422 c-0.164-0.221-0.232-0.493-0.191-0.766c0.041-0.274,0.188-0.517,0.41-0.68l3.989-3.019l-3.991-3.019 c-0.221-0.165-0.363-0.408-0.4-0.682c-0.039-0.273,0.032-0.545,0.199-0.767c0.331-0.44,1.003-0.535,1.448-0.2l5.081,3.843 c0.079,0.059,0.145,0.125,0.203,0.202c0.165,0.22,0.237,0.49,0.199,0.765s-0.182,0.518-0.402,0.684l-5.082,3.843 C34.473,44.15,34.261,44.221,34.039,44.221z M34.046,34.954c-0.171,0-0.326,0.078-0.428,0.214 c-0.089,0.115-0.125,0.257-0.104,0.398c0.019,0.142,0.094,0.268,0.208,0.354l4.514,3.414l-4.514,3.415 c-0.119,0.088-0.195,0.213-0.216,0.356c-0.021,0.142,0.014,0.283,0.1,0.398c0.171,0.234,0.519,0.285,0.753,0.115l5.095-3.854 c0.115-0.088,0.188-0.215,0.209-0.356c0.02-0.143-0.018-0.284-0.104-0.398c-0.03-0.041-0.063-0.074-0.104-0.105l-5.083-3.843 C34.275,34.991,34.163,34.954,34.046,34.954z"></path></g><g><path style="fill:#0CB4C4;" d="M31.985,32.859c-0.43-0.066-0.83,0.229-0.895,0.659l-1.735,11.464 c-0.065,0.429,0.229,0.83,0.66,0.896c0.43,0.064,0.831-0.232,0.896-0.662l1.733-11.462C32.709,33.325,32.415,32.925,31.985,32.859 C31.986,32.859,31.986,32.859,31.985,32.859z"></path><path style="fill:#0CB4C4;" d="M30.132,46.135L30.132,46.135c-0.051,0-0.103-0.004-0.155-0.012 c-0.564-0.086-0.953-0.614-0.868-1.178l1.736-11.464c0.084-0.561,0.595-0.951,1.177-0.867c0.273,0.041,0.514,0.187,0.677,0.409 c0.164,0.222,0.231,0.495,0.189,0.77l-1.734,11.461C31.08,45.757,30.64,46.135,30.132,46.135z M31.865,33.099 c-0.267,0-0.489,0.191-0.53,0.457L29.6,45.02c-0.044,0.293,0.158,0.569,0.452,0.614c0.292,0.044,0.569-0.166,0.613-0.454 l1.733-11.462c0.045-0.293-0.157-0.569-0.45-0.613C31.92,33.101,31.893,33.099,31.865,33.099z"></path></g></g></svg>