<svg width="61" height="60" viewBox="0 0 61 60" fill="none" xmlns="http://www.w3.org/2000/svg"><path d="M22.4746 37.5275L10.4873 49.5148C9.11154 48.2844 7.24564 47.7564 5.42928 48.0837C3.61292 48.4111 2.04852 49.5567 1.1883 51.1898C0.3285 52.8229 0.268735 54.761 1.02686 56.444C1.78498 58.127 3.27578 59.3668 5.06896 59.8048C6.86169 60.2427 8.75659 59.8306 10.2055 58.6868C11.654 57.5433 12.495 55.7961 12.4852 53.9503C12.4883 52.9514 12.2372 51.9685 11.7561 51.0936L24.0025 38.846C25.5985 40.0336 27.4871 40.7653 29.4667 40.9639V48.0965C27.4729 48.4332 25.7831 49.7533 24.9733 51.6062C24.1639 53.4591 24.3432 55.5957 25.4505 57.2877C26.5574 58.9801 28.4433 60 30.4658 60C32.4882 60 34.3741 58.9801 35.481 57.2877C36.5883 55.5958 36.7676 53.4592 35.9582 51.6062C35.1483 49.7533 33.4586 48.4332 31.4648 48.0965V40.9639C33.6945 40.7636 35.8084 39.8811 37.5181 38.4366L49.9849 49.9547C48.9909 51.0477 48.4418 52.473 48.4463 53.9504C48.4467 55.7146 49.2245 57.3892 50.5726 58.5273C51.9203 59.6658 53.7009 60.1528 55.4407 59.858C57.1799 59.5637 58.7015 58.5175 59.5992 56.999C60.4974 55.4805 60.6803 53.6431 60.1001 51.9771C59.5199 50.3111 58.2351 48.9852 56.5881 48.3533C54.9412 47.7209 53.099 47.8462 51.5529 48.6962L38.9263 36.9681C40.3578 35.2735 41.2395 33.1829 41.4536 30.9745H48.5862C48.9229 32.9684 50.243 34.6581 52.0959 35.4679C53.9488 36.2773 56.0853 36.098 57.7774 34.9907C59.4698 33.8838 60.4897 31.9979 60.4897 29.9755C60.4897 27.953 59.4698 26.0672 57.7774 24.9602C56.0855 23.8529 53.9489 23.6736 52.0959 24.483C50.243 25.2929 48.9229 26.9827 48.5862 28.9764H41.4536C41.2538 26.7739 40.39 24.6836 38.9763 22.9828L51.5527 11.2547C53.0988 12.1047 54.9411 12.23 56.5879 11.5976C58.2348 10.9657 59.5196 9.63993 60.0998 7.97382C60.68 6.3077 60.4972 4.47034 59.599 2.95195C58.7013 1.43345 57.1798 0.387246 55.4405 0.0929298C53.7008 -0.201843 51.9201 0.285137 50.5724 1.42363C49.2242 2.56171 48.4465 4.2363 48.4461 6.00048C48.4416 7.47789 48.9906 8.90323 49.9847 9.99624L37.5179 21.5634C35.8081 20.119 33.6943 19.2364 31.4646 19.0361V11.9035C33.4584 11.5668 35.1482 10.2467 35.958 8.39383C36.7674 6.54094 36.5881 4.40435 35.4808 2.71232C34.3739 1.01995 32.488 0 30.4655 0C28.4431 0 26.5572 1.0199 25.4503 2.71232C24.343 4.40424 24.1637 6.54082 24.9731 8.39383C25.783 10.2467 27.4727 11.5668 29.4665 11.9035V19.0361C27.2368 19.2364 25.1229 20.1189 23.4132 21.5634L10.9464 9.99624C11.9404 8.90321 12.4895 7.47789 12.485 6.00048C12.4846 4.2363 11.7068 2.56174 10.3587 1.42363C9.01098 0.285103 7.23036 -0.201843 5.49061 0.0929298C3.75142 0.387257 2.22984 1.43345 1.33205 2.95195C0.433897 4.47045 0.251052 6.30782 0.831247 7.97382C1.41144 9.63982 2.69624 10.9657 4.34317 11.5976C5.99011 12.23 7.83227 12.1047 9.3784 11.2547L22.005 22.9828C20.5913 24.6836 19.7275 26.7739 19.5277 28.9764H12.3951C12.0584 26.9826 10.7383 25.2928 8.88544 24.483C7.03255 23.6736 4.89596 23.8529 3.20393 24.9602C1.51155 26.0671 0.491608 27.953 0.491608 29.9755C0.491608 31.9979 1.51151 33.8838 3.20393 34.9907C4.89584 36.098 7.03243 36.2773 8.88544 35.4679C10.7383 34.658 12.0584 32.9682 12.3951 30.9745H19.5277C19.748 33.4272 20.7858 35.735 22.4745 37.5273L22.4746 37.5275ZM54.4407 25.9798C55.5002 25.9798 56.5166 26.4008 57.2662 27.15C58.0154 27.8996 58.4364 28.916 58.4364 29.9755C58.4364 31.0351 58.0154 32.0515 57.2662 32.8011C56.5166 33.5503 55.5002 33.9713 54.4407 33.9713C53.3811 33.9713 52.3647 33.5503 51.6151 32.8011C50.8659 32.0515 50.4449 31.0351 50.4449 29.9755C50.4449 28.916 50.8659 27.8996 51.6151 27.15C52.3647 26.4008 53.3811 25.9798 54.4407 25.9798ZM6.49158 33.9713C5.432 33.9713 4.41561 33.5503 3.66601 32.8011C2.9168 32.0515 2.49582 31.0351 2.49582 29.9755C2.49582 28.916 2.9168 27.8996 3.66601 27.15C4.41566 26.4008 5.43202 25.9798 6.49158 25.9798C7.55114 25.9798 8.56755 26.4008 9.31715 27.15C10.0664 27.8996 10.4873 28.916 10.4873 29.9755C10.4873 31.0351 10.0664 32.0515 9.31715 32.8011C8.5675 33.5503 7.55114 33.9713 6.49158 33.9713ZM6.49158 57.9458C5.432 57.9458 4.41561 57.5249 3.66601 56.7757C2.9168 56.026 2.49582 55.0096 2.49582 53.9501C2.49582 52.8905 2.9168 51.8741 3.66601 51.1245C4.41566 50.3753 5.43202 49.9543 6.49158 49.9543C7.55114 49.9543 8.56755 50.3753 9.31715 51.1245C10.0664 51.8742 10.4873 52.8905 10.4873 53.9501C10.4873 55.0096 10.0664 56.0261 9.31715 56.7757C8.5675 57.5249 7.55114 57.9458 6.49158 57.9458ZM34.4619 53.9501C34.4619 55.0097 34.0409 56.0261 33.2917 56.7757C32.542 57.5249 31.5257 57.9458 30.4661 57.9458C29.4066 57.9458 28.3902 57.5249 27.6405 56.7757C26.8913 56.026 26.4704 55.0096 26.4704 53.9501C26.4704 52.8905 26.8913 51.8741 27.6405 51.1245C28.3902 50.3753 29.4066 49.9543 30.4661 49.9543C31.5257 49.9543 32.5421 50.3753 33.2917 51.1245C34.0409 51.8742 34.4619 52.8905 34.4619 53.9501ZM58.4364 53.9501C58.4364 55.0097 58.0154 56.0261 57.2662 56.7757C56.5166 57.5249 55.5002 57.9458 54.4407 57.9458C53.3811 57.9458 52.3647 57.5249 51.6151 56.7757C50.8659 56.026 50.4449 55.0096 50.4449 53.9501C50.4449 52.8905 50.8659 51.8741 51.6151 51.1245C52.3647 50.3753 53.3811 49.9543 54.4407 49.9543C55.5002 49.9543 56.5166 50.3753 57.2662 51.1245C58.0154 51.8742 58.4364 52.8905 58.4364 53.9501ZM54.4407 2.00525C55.5002 2.00525 56.5166 2.42623 57.2662 3.17544C58.0154 3.92509 58.4364 4.94145 58.4364 6.00101C58.4364 7.06057 58.0154 8.07698 57.2662 8.82658C56.5166 9.57578 55.5002 9.99677 54.4407 9.99677C53.3811 9.99677 52.3647 9.57578 51.6151 8.82658C50.8659 8.07693 50.4449 7.06057 50.4449 6.00101C50.4449 4.94145 50.8659 3.92504 51.6151 3.17544C52.3647 2.42623 53.3811 2.00525 54.4407 2.00525ZM26.4704 6.00101C26.4704 4.94143 26.8913 3.92504 27.6405 3.17544C28.3902 2.42623 29.4066 2.00525 30.4661 2.00525C31.5257 2.00525 32.5421 2.42623 33.2917 3.17544C34.0409 3.92509 34.4619 4.94145 34.4619 6.00101C34.4619 7.06057 34.0409 8.07698 33.2917 8.82658C32.542 9.57578 31.5257 9.99677 30.4661 9.99677C29.4066 9.99677 28.3902 9.57578 27.6405 8.82658C26.8913 8.07693 26.4704 7.06057 26.4704 6.00101ZM2.49582 6.00101C2.49582 4.94143 2.9168 3.92504 3.66601 3.17544C4.41566 2.42623 5.43202 2.00525 6.49158 2.00525C7.55114 2.00525 8.56755 2.42623 9.31715 3.17544C10.0664 3.92509 10.4873 4.94145 10.4873 6.00101C10.4873 7.06057 10.0664 8.07698 9.31715 8.82658C8.5675 9.57578 7.55114 9.99677 6.49158 9.99677C5.43202 9.99677 4.41561 9.57578 3.66601 8.82658C2.9168 8.07693 2.49582 7.06057 2.49582 6.00101ZM30.4661 20.9851C32.8507 20.9851 35.1375 21.9323 36.8233 23.6184C38.5095 25.3042 39.4566 27.591 39.4566 29.9755C39.4566 32.3601 38.5094 34.6469 36.8233 36.3327C35.1375 38.0189 32.8507 38.966 30.4661 38.966C28.0816 38.966 25.7947 38.0188 24.109 36.3327C22.4228 34.6469 21.4757 32.3601 21.4757 29.9755C21.4757 27.591 22.4229 25.3042 24.109 23.6184C25.7947 21.9322 28.0816 20.9851 30.4661 20.9851Z" fill="#0CB4C4"></path></svg>