<svg version="1.1" id="Layer_1" xmlns="http://www.w3.org/2000/svg" xmlns:xlink="http://www.w3.org/1999/xlink" x="0px" y="0px" width="41px" height="60px" viewBox="0 0 41 60" style="enable-background:new 0 0 41 60;" xml:space="preserve"><g><path style="fill:#0CB4C4;" d="M34.884,60H6.116c-3.354,0-6.083-2.729-6.083-6.083V6.083C0.033,2.729,2.762,0,6.116,0h28.768 c3.354,0,6.083,2.729,6.083,6.083v47.834C40.967,57.271,38.238,60,34.884,60z M6.116,2.027c-2.236,0-4.056,1.819-4.056,4.056 v47.834c0,2.236,1.819,4.056,4.056,4.056h28.768c2.236,0,4.056-1.819,4.056-4.056V6.083c0-2.236-1.819-4.056-4.056-4.056H6.116z"></path><rect x="1.047" y="9.454" style="fill:#0CB4C4;" width="38.906" height="2.027"></rect><rect x="1.047" y="47.961" style="fill:#0CB4C4;" width="38.906" height="2.027"></rect><path style="fill:#0CB4C4;" d="M23.5,6.59h-6c-0.561,0-1.014-0.453-1.014-1.014s0.453-1.014,1.014-1.014h6 c0.561,0,1.014,0.453,1.014,1.014S24.061,6.59,23.5,6.59z"></path><path style="fill:#0CB4C4;" d="M25.864,54.772H15.136c-0.561,0-1.014-0.453-1.014-1.014s0.453-1.014,1.014-1.014h10.729 c0.561,0,1.014,0.453,1.014,1.014S26.425,54.772,25.864,54.772z"></path><path style="fill:#0CB4C4;" d="M18.091,31.173c-2.158,0-3.914-1.756-3.914-3.914s1.756-3.915,3.914-3.915 c2.159,0,3.915,1.757,3.915,3.915S20.25,31.173,18.091,31.173z M18.091,25.371c-1.04,0-1.887,0.847-1.887,1.888 c0,1.04,0.847,1.887,1.887,1.887c1.041,0,1.888-0.847,1.888-1.887C19.979,26.218,19.132,25.371,18.091,25.371z"></path><path style="fill:#0CB4C4;" d="M18.091,35.888c-4.758,0-8.629-3.871-8.629-8.629c0-4.759,3.871-8.63,8.629-8.63 c4.759,0,8.63,3.871,8.63,8.63C26.721,32.017,22.85,35.888,18.091,35.888z M18.091,20.657c-3.64,0-6.602,2.961-6.602,6.602 s2.962,6.602,6.602,6.602c3.641,0,6.603-2.961,6.603-6.602S21.731,20.657,18.091,20.657z"></path><path style="fill:#0CB4C4;" d="M30.385,40.483c-0.259,0-0.517-0.098-0.715-0.295l-6.885-6.851 c-0.397-0.396-0.399-1.037-0.004-1.434c0.394-0.397,1.035-0.4,1.434-0.004l6.885,6.851c0.397,0.396,0.399,1.037,0.004,1.434 C30.905,40.384,30.646,40.483,30.385,40.483z"></path></g></svg>