<svg xmlns="http://www.w3.org/2000/svg" xmlns:xlink="http://www.w3.org/1999/xlink" version="1.1" id="Layer_1" x="0px" y="0px" width="55.2px" height="50px" viewBox="0 0 55.2 50" style="enable-background:new 0 0 55.2 50;" xml:space="preserve"><g><path style="fill:#0CB4C4;" d="M12.99,25.326c0-3.586-2.906-6.493-6.494-6.493c-3.584,0-6.493,2.907-6.493,6.493 s2.909,6.493,6.493,6.493C10.083,31.819,12.99,28.912,12.99,25.326z M6.496,29.871c-2.506,0-4.545-2.04-4.545-4.545 c0-2.506,2.039-4.547,4.545-4.547c2.507,0,4.546,2.041,4.546,4.547C11.042,27.831,9.002,29.871,6.496,29.871z"></path><path style="fill:#0CB4C4;" d="M37.666,12.987c3.586,0,6.493-2.907,6.493-6.493S41.251,0,37.666,0s-6.494,2.908-6.494,6.494 S34.08,12.987,37.666,12.987z M37.666,1.949c2.505,0,4.545,2.038,4.545,4.545c0,2.506-2.04,4.545-4.545,4.545 S33.121,9,33.121,6.494C33.121,3.987,35.161,1.949,37.666,1.949z"></path><path style="fill:#0CB4C4;" d="M38.315,36.365c-3.586,0-6.493,2.905-6.493,6.493c0,3.585,2.907,6.494,6.493,6.494 c3.587,0,6.494-2.909,6.494-6.494C44.809,39.271,41.902,36.365,38.315,36.365z M38.315,47.403c-2.506,0-4.546-2.038-4.546-4.545 c0-2.506,2.04-4.545,4.546-4.545c2.505,0,4.546,2.039,4.546,4.545C42.861,45.365,40.82,47.403,38.315,47.403z"></path><path style="fill:#0CB4C4;" d="M48.705,18.183c-3.255,0-5.94,2.397-6.413,5.521h-6.637c-0.481-4.204-4.047-7.469-8.38-7.469 c-1.439,0-2.793,0.363-3.979,0.997l-3.279-5.465c1.64-1.178,2.713-3.099,2.713-5.272C22.73,2.909,19.824,0,16.237,0 c-3.585,0-6.494,2.909-6.494,6.494c0,3.584,2.909,6.493,6.494,6.493c0.715,0,1.399-0.118,2.043-0.331l3.418,5.696 c-1.753,1.547-2.863,3.803-2.863,6.324c0,2.844,1.409,5.354,3.565,6.883l-3.474,5.787c-0.642-0.213-1.325-0.333-2.04-0.333 c-3.584,0-6.493,2.907-6.493,6.493S13.302,50,16.886,50c3.586,0,6.494-2.907,6.494-6.493c0-2.175-1.073-4.093-2.713-5.272 l3.441-5.736c0.979,0.396,2.045,0.62,3.166,0.62c4.333,0,7.898-3.265,8.38-7.469h6.637c0.473,3.123,3.158,5.521,6.413,5.521 c3.587,0,6.493-2.907,6.493-6.493C55.198,21.09,52.292,18.183,48.705,18.183z M11.691,6.494c0-2.507,2.039-4.545,4.546-4.545 c2.506,0,4.545,2.038,4.545,4.545c0,2.506-2.039,4.545-4.545,4.545C13.73,11.039,11.691,9,11.691,6.494z M16.886,48.054 c-2.506,0-4.545-2.04-4.545-4.547c0-2.505,2.039-4.545,4.545-4.545c2.507,0,4.545,2.04,4.545,4.545 C21.431,46.014,19.393,48.054,16.886,48.054z M27.275,31.17c-3.579,0-6.493-2.914-6.493-6.493c0-3.58,2.914-6.494,6.493-6.494 c3.581,0,6.494,2.914,6.494,6.494C33.769,28.256,30.856,31.17,27.275,31.17z M48.705,29.222c-2.507,0-4.546-2.041-4.546-4.545 c0-2.505,2.039-4.546,4.546-4.546c2.506,0,4.545,2.041,4.545,4.546C53.25,27.181,51.21,29.222,48.705,29.222z"></path></g></svg>