<svg width="66" height="66" viewBox="0 0 66 66" fill="none" xmlns="http://www.w3.org/2000/svg"><title>Unified Inbox</title><circle cx="33" cy="33" r="32" fill="white" stroke="#EE5A23" stroke-width="2"></circle><path d="M32.5812 12V23.2273H26.7646L33.4449 29.8945L40.0949 23.2273H34.3085V12H32.5812ZM35.9408 24.9545L33.4449 27.4505L30.936 24.9545H35.9408Z" fill="#0CB4C4"></path><path d="M52.8636 40.5H51.1364V48.2727H15.7273V40.5H14V50H52.8636V40.5Z" fill="#0CB4C4"></path><path d="M51.6675 25.3594L43.5796 33.4473L39.4902 29.3451V38.7716H48.9039L44.8016 34.6694L52.8766 26.5771L51.6675 25.3594ZM41.2175 37.0444V33.5164L44.7325 37.0444H41.2175Z" fill="#0CB4C4"></path><path d="M15.6244 26.2246L14.4023 27.4423L22.4946 35.5346L18.3923 39.6369H27.8319V30.2103L23.7296 34.3126L15.6244 26.2246ZM26.1046 37.9096H22.5637L26.1046 34.3817V37.9096Z" fill="#0CB4C4"></path></svg>