<svg width="58" height="60" viewBox="0 0 58 60" fill="none" xmlns="http://www.w3.org/2000/svg"><title>Restaurant and Food Service Software </title><path d="M58.0003 16.9998L56.3003 4.49997C56.1003 2 54.0003 0 51.3003 0H6.69998C3.99994 0 1.89997 2 1.69997 4.49997L0 16.9998C0 19.3998 1.69997 21.3998 4 21.8998V55C4 57.8 6.20001 60 9.00001 60H49.0001C51.8001 60 54.0001 57.8 54.0001 55V21.8998C56.3001 21.3998 58.0003 19.3998 58.0003 16.9998ZM54.3003 4.80013L55.7003 15.0005H49.9003L49.1003 2.00077H51.4004C52.9004 2.00077 54.2004 3.20013 54.3003 4.80013ZM41.9003 15.0005L41.1003 2.00077H47.1003L48.0003 15.0005H41.9003ZM39.9003 15.0005H34.0003V2.00077H39.1003L39.9003 15.0005ZM32.0002 15.0005H26.0002V2.00077H32.0002V15.0005ZM24.0002 15.0005H18.1001L19.0001 2.00077H24.0001L24.0002 15.0005ZM16.1 15.0005H10.1L10.9999 2.00077H17L16.1 15.0005ZM16 17.0005C16 18.7004 14.7 20.0005 13 20.0005C11.2999 20.0005 9.99998 18.7005 9.99998 17.0005H16ZM24 17.0005C24 18.7004 22.7 20.0005 21 20.0005C19.3 20.0005 18 18.7005 18 17.0005H24ZM32 17.0005C32 18.7004 30.7 20.0005 29 20.0005C27.3 20.0005 26 18.7005 26 17.0005H32ZM40 17.0005C40 18.7004 38.7 20.0005 37 20.0005C35.3 20.0005 34 18.7005 34 17.0005H40ZM48 17.0005C48 18.7004 46.7 20.0005 45 20.0005C43.3 20.0005 42 18.7005 42 17.0005H48ZM3.69981 4.70029C3.79981 3.20026 5.09981 2.00026 6.69982 2.00026H8.99985L8.09988 15H2.29987L3.69981 4.70029ZM1.99984 17.0005H7.99985C7.99985 18.7004 6.69988 20.0005 4.99985 20.0005C3.39984 20.0005 1.99984 18.7005 1.99984 17.0005ZM49.0002 58.0002H9.00017C7.3002 58.0002 6.00017 56.7002 6.00017 55.0002V21.9C7.20017 21.7 8.3002 20.9 9.00017 20C9.90014 21.2 11.4002 22 13.0002 22C14.6002 22 16.1002 21.2 17.0002 20C17.9001 21.2 19.4002 22 21.0002 22C22.6002 22 24.1002 21.2 25.0002 20C25.9002 21.2 27.4002 22 29.0002 22C30.6002 22 32.1002 21.2 33.0002 20C33.9002 21.2 35.4002 22 37.0002 22C38.6002 22 40.1002 21.2 41.0002 20C41.9002 21.2 43.4002 22 45.0002 22C46.6002 22 48.1002 21.2 49.0002 20C49.7002 21 50.8002 21.6999 52.0002 21.9V55.0002C52.0002 56.7002 50.7002 58.0002 49.0002 58.0002ZM53.0002 20.0002C51.3002 20.0002 50.0002 18.7002 50.0002 17.0001H56.0002C56.0002 18.7001 54.6002 20.0002 53.0002 20.0002Z" fill="#0CB4C4"></path><path d="M25.001 29.9992H23.001V23.9992H21.001V29.9992H19.001V23.9992H17.001V33.9992C17.001 35.4992 17.801 36.6992 19.001 37.3992L18.201 51.899V52.099C18.201 54.199 19.9009 55.899 22.001 55.899H22.201C23.201 55.799 24.201 55.399 24.801 54.5991C25.401 53.7991 25.801 52.8991 25.701 51.7991L25.0009 37.399C26.2009 36.699 27.0009 35.399 27.0009 33.999V23.999H25.0009L25.001 29.9992ZM23.001 35.9992H21.001C19.9009 35.9992 19.001 35.0992 19.001 33.9992V31.9992H25.001V33.9992C25.001 35.0992 24.101 35.9992 23.001 35.9992ZM23.101 37.9992L23.901 52.099C23.901 52.599 23.801 53.099 23.401 53.399C23.001 53.699 22.601 53.999 22.101 53.999H22.001C21.001 53.999 20.201 53.199 20.201 52.199L20.901 37.9987L23.101 37.9992Z" fill="#0CB4C4"></path><path d="M39.001 24C39.001 24 31.001 25 31.001 32.9997C31.001 35.4997 32.201 38.7997 33.1009 40.8999L32.201 51.9002V52.2002C32.201 54.3002 33.9009 56.0002 36.001 56.0002H36.301C37.301 55.9002 38.201 55.5002 38.901 54.7002C39.601 53.9003 39.901 53.0003 39.801 51.9002L39.001 42.0001L39.001 24ZM37.001 26.7V41.0002H35.301C34.401 38.9002 33.001 35.4002 33.001 33.0002C32.901 30.3002 34.501 27.7001 37.001 26.7ZM37.301 53.4002C37.001 53.7002 36.601 54.0002 36.101 54.0002H36.001C35.001 54.0002 34.201 53.2002 34.201 52.2002L34.901 43.0002H37.101L37.801 52.1004C37.801 52.6004 37.701 53.0002 37.301 53.4002Z" fill="#0CB4C4"></path></svg>