<svg xmlns="http://www.w3.org/2000/svg" xmlns:xlink="http://www.w3.org/1999/xlink" version="1.1" id="Layer_1" x="0px" y="0px" width="58.73px" height="60.002px" viewBox="0 0 58.73 60.002" enable-background="new 0 0 58.73 60.002" xml:space="preserve"><title>Travelport Configuration</title><g><g><g><path fill="#0EB3C3" d="M8.908,60.002c-0.641,0-1.159-0.519-1.159-1.159V32.479c0-0.642,0.519-1.16,1.159-1.16H15.5V18.135 h-2.716c-0.641,0-1.157-0.518-1.157-1.158c0-0.64,0.516-1.157,1.157-1.157h3.875c0.641,0,1.159,0.518,1.159,1.157v15.503 c0,0.641-0.519,1.158-1.159,1.158h-6.592v25.205C10.067,59.483,9.549,60.002,8.908,60.002z"></path></g></g><g><g><path fill="#0EB3C3" d="M4.563,33.638H1.157C0.516,33.638,0,33.12,0,32.479V16.977c0-0.64,0.516-1.157,1.157-1.157h6.592V1.158 C7.749,0.518,8.267,0,8.908,0c0.641,0,1.159,0.518,1.159,1.158v15.818c0,0.641-0.518,1.158-1.159,1.158H2.316v13.185h2.248 c0.641,0,1.159,0.519,1.159,1.16C5.723,33.12,5.204,33.638,4.563,33.638z"></path></g></g><g><g><path fill="#0EB3C3" d="M29.366,60.002c-0.641,0-1.159-0.519-1.159-1.159V48.693c0-0.641,0.518-1.159,1.159-1.159h6.593V34.35 H33.24c-0.641,0-1.16-0.519-1.16-1.159s0.52-1.159,1.16-1.159h3.875c0.641,0,1.156,0.519,1.156,1.159v15.503 c0,0.641-0.516,1.159-1.156,1.159h-6.592v8.99C30.523,59.483,30.005,60.002,29.366,60.002z"></path></g></g><g><g><path fill="#0EB3C3" d="M25.022,49.853h-3.406c-0.641,0-1.159-0.519-1.159-1.159V33.19c0-0.641,0.518-1.159,1.159-1.159h6.592 V1.158C28.208,0.518,28.726,0,29.366,0c0.639,0,1.157,0.518,1.157,1.158V33.19c0,0.641-0.519,1.159-1.157,1.159h-6.594v13.185 h2.25c0.641,0,1.159,0.519,1.159,1.159S25.661,49.853,25.022,49.853z"></path></g></g><g><g><path fill="#0EB3C3" d="M49.82,60.002c-0.639,0-1.156-0.519-1.156-1.159V32.479c0-0.642,0.518-1.16,1.156-1.16h6.594V18.135 h-2.715c-0.643,0-1.16-0.518-1.16-1.158c0-0.64,0.518-1.157,1.16-1.157h3.873c0.641,0,1.158,0.518,1.158,1.157v15.503 c0,0.641-0.518,1.158-1.158,1.158H50.98v25.205C50.98,59.483,50.461,60.002,49.82,60.002z"></path></g></g><g><g><path fill="#0EB3C3" d="M45.479,33.638h-3.406c-0.641,0-1.156-0.518-1.156-1.158V16.977c0-0.64,0.516-1.157,1.156-1.157h6.592 V1.158C48.664,0.518,49.182,0,49.82,0c0.641,0,1.16,0.518,1.16,1.158v15.818c0,0.641-0.52,1.158-1.16,1.158h-6.592v13.185h2.25 c0.641,0,1.156,0.519,1.156,1.16C46.635,33.12,46.117,33.638,45.479,33.638z"></path></g></g></g></svg>