<svg xmlns="http://www.w3.org/2000/svg" xmlns:xlink="http://www.w3.org/1999/xlink" version="1.1" id="Layer_1" x="0px" y="0px" width="49.973px" height="60px" viewBox="0 0 49.973 60" enable-background="new 0 0 49.973 60" xml:space="preserve"><title>Travelport System Upgrades</title><g><path fill="#0EB3C3" d="M24.953,26.685c0.933,0,1.666-0.732,1.666-1.665V5.697l7.129,7.13c0.334,0.333,0.732,0.466,1.199,0.466 s0.867-0.133,1.2-0.466c0.665-0.667,0.665-1.732,0-2.332L26.151,0.5c-0.665-0.666-1.731-0.666-2.332,0l-9.993,9.995 c-0.667,0.666-0.667,1.732,0,2.332c0.666,0.667,1.732,0.667,2.332,0l7.129-7.13V25.02C23.287,25.953,24.021,26.685,24.953,26.685z"></path><path fill="#0EB3C3" d="M1.666,60h46.641c0.934,0,1.666-0.731,1.666-1.664V25.02c0-0.933-0.732-1.666-1.666-1.666H34.98 c-0.934,0-1.666,0.733-1.666,1.666c0,0.933,0.732,1.665,1.666,1.665h11.66v29.984H3.332V26.685h11.66 c0.934,0,1.666-0.732,1.666-1.665c0-0.933-0.732-1.666-1.666-1.666H1.666C0.732,23.354,0,24.087,0,25.02v33.315 C0,59.268,0.732,60,1.666,60z"></path></g></svg>