<svg width="66" height="66" viewBox="0 0 66 66" fill="none" xmlns="http://www.w3.org/2000/svg"><title>Digital Guidebook </title><circle cx="33" cy="33" r="32" fill="white" stroke="#EE5A23" stroke-width="2"></circle><path fill-rule="evenodd" clip-rule="evenodd" d="M45.6809 45.1445C45.6809 44.8532 45.4446 44.6172 45.1535 44.6172H22.3618C21.6279 44.6172 21.0332 45.2121 21.0332 45.9459V47.6942C21.0332 48.428 21.6279 49.0229 22.3618 49.0229H45.1535C45.4446 49.0229 45.6809 48.7869 45.6809 48.4956V45.1445ZM44.6261 45.6719V47.9683H22.3618C22.2106 47.9682 22.0874 47.8456 22.0874 47.6942V45.9459C22.0874 45.7945 22.2106 45.6719 22.3618 45.6718L44.6261 45.6719Z" fill="#0CB4C4"></path><path fill-rule="evenodd" clip-rule="evenodd" d="M20 18.8216V20.0085V20.0113C20 20.0113 20 20.0978 20 20.1119V20.1147V20.114V47.9141C20 48.6623 20.2974 49.3802 20.8262 49.9096C21.3556 50.4384 22.0735 50.7358 22.8223 50.7358H46.0648C46.3559 50.7358 46.5922 50.4995 46.5922 50.2084V16.5273C46.5922 16.2362 46.3559 16 46.0648 16H22.8223C22.0735 16 21.3556 16.2974 20.8262 16.8262C20.2974 17.3556 20 18.0735 20 18.8216ZM21.0547 20.1147V20.1119V18.8216C21.0547 18.3534 21.241 17.9034 21.5722 17.5722C21.9034 17.241 22.3534 17.0547 22.8223 17.0547H45.5375V19.4678V49.6811H22.8223C22.3534 49.6811 21.9034 49.4948 21.5722 49.1636C21.241 48.8324 21.0547 48.3824 21.0547 47.9141V20.114V20.1147Z" fill="#0CB4C4"></path><path fill-rule="evenodd" clip-rule="evenodd" d="M22.5977 16.6856V45.1447C22.5977 45.4358 22.834 45.6721 23.125 45.6721C23.4161 45.6721 23.6524 45.4358 23.6524 45.1447V16.6856C23.6524 16.3945 23.4161 16.1582 23.125 16.1582C22.834 16.1582 22.5977 16.3945 22.5977 16.6856Z" fill="#0CB4C4"></path><path fill-rule="evenodd" clip-rule="evenodd" d="M35.2891 37.9442C34.4759 38.0863 33.6442 38.0863 32.8311 37.9442L32.6773 36.3443C32.1578 36.2119 31.6599 36.0057 31.1991 35.732L29.959 36.7545C29.2835 36.2802 28.6954 35.692 28.2211 35.0166L29.2436 33.7765C28.9698 33.3157 28.7636 32.8178 28.6313 32.2982L27.0314 32.1445C26.8893 31.3314 26.8893 30.4996 27.0314 29.6865L28.6313 29.5328C28.7636 29.0132 28.9698 28.5153 29.2436 28.0545L28.2211 26.8144C28.6954 26.139 29.2835 25.5508 29.959 25.0765L31.1991 26.099C31.6599 25.8253 32.1578 25.6191 32.6773 25.4867L32.8311 23.8868C33.6442 23.7447 34.4759 23.7447 35.2891 23.8868L35.4428 25.4867C35.9624 25.6191 36.4603 25.8253 36.9211 26.099L38.1611 25.0765C38.8366 25.5508 39.4247 26.139 39.8991 26.8144L38.8765 28.0545C39.1503 28.5153 39.3565 29.0132 39.4889 29.5328L41.0888 29.6865C41.2309 30.4996 41.2309 31.3314 41.0888 32.1445L39.4889 32.2982C39.3565 32.8178 39.1503 33.3157 38.8765 33.7765L39.8991 35.0166C39.4247 35.692 38.8366 36.2802 38.1611 36.7545L36.9211 35.732C36.4603 36.0057 35.9624 36.2119 35.4428 36.3443L35.2891 37.9442ZM34.0601 33.7199C35.6078 33.7199 36.8645 32.4633 36.8645 30.9155C36.8645 29.3674 35.6078 28.1107 34.0601 28.1107C32.5123 28.1107 31.2556 29.3674 31.2556 30.9155C31.2556 32.4633 32.5123 33.7199 34.0601 33.7199Z" fill="#0CB4C4"></path></svg>