<svg width="55" height="62" viewBox="0 0 55 62" fill="none" xmlns="http://www.w3.org/2000/svg"><mask id="path-1-outside-1_3829_168" maskUnits="userSpaceOnUse" x="0" y="0" width="55" height="62" fill="black"><rect fill="white" width="55" height="62"></rect><path fill-rule="evenodd" clip-rule="evenodd" d="M14.8313 37.8533H11.6853V40.8717C11.6853 41.179 11.4822 41.4472 11.1879 41.5332C10.6618 41.6842 10.154 41.8926 9.67482 42.153C9.40137 42.3327 9.03938 42.2962 8.80758 42.0644L6.67469 39.9315L4.45066 42.1556L6.58355 44.2885C6.79971 44.5046 6.84658 44.838 6.69814 45.1062C6.42991 45.5932 6.21635 46.1063 6.0601 46.6402C5.98717 46.9475 5.71112 47.1662 5.3934 47.1662H2.37247V50.3096H5.3908V50.3122C5.69811 50.3122 5.96895 50.5153 6.05229 50.8096C6.20334 51.3357 6.41168 51.8435 6.67211 52.3227C6.85181 52.5961 6.81534 52.9581 6.58617 53.1899L4.45327 55.3228L6.6773 57.5468L8.8102 55.4139H8.80759C9.02375 55.1978 9.3571 55.1509 9.62276 55.2993C10.1098 55.5676 10.6254 55.7811 11.1567 55.9374C11.4666 56.0103 11.6828 56.2864 11.6854 56.6041V59.6224H14.8314V56.6067C14.8314 56.2994 15.0345 56.0285 15.3288 55.9452C15.8548 55.7942 16.3627 55.5858 16.8444 55.3254C17.1153 55.1457 17.4799 55.1821 17.7091 55.4113L19.842 57.5442L22.066 55.3202L19.9331 53.1873V53.1899C19.717 52.9737 19.6701 52.6378 19.8185 52.3721C20.0868 51.8851 20.3003 51.3721 20.4566 50.8382C20.5321 50.5309 20.8055 50.3121 21.1233 50.3121H24.1416V47.1661H21.1259C20.8186 47.1661 20.5503 46.963 20.4644 46.6687C20.3133 46.1426 20.105 45.6348 19.8446 45.153C19.6623 44.8796 19.6987 44.5176 19.9331 44.2858L22.066 42.1529L19.8446 39.9315L17.7091 42.067C17.4929 42.2831 17.1596 42.33 16.8939 42.179C16.4069 41.9107 15.8913 41.6972 15.36 41.5435C15.0501 41.468 14.8339 41.1919 14.8313 40.8768L14.8313 37.8533ZM11.0004 36.4783L15.5162 36.4809C15.8964 36.4809 16.2037 36.7882 16.2037 37.1684V40.3743L17.0891 40.7441L19.3548 38.4784L19.3574 38.4732C19.6257 38.2049 20.0606 38.2049 20.3288 38.4732L23.5243 41.666C23.7925 41.9343 23.7925 42.3692 23.5243 42.6374L21.2586 44.9031L21.6232 45.7937H24.8291C25.2093 45.7937 25.5166 46.1011 25.5166 46.4812V50.9996C25.5166 51.3799 25.2093 51.6871 24.8291 51.6871H21.6232L21.2534 52.5726L23.5217 54.8409C23.7899 55.1091 23.7899 55.544 23.5217 55.8123L20.3262 59.0077V59.0051C20.1986 59.1353 20.0241 59.2083 19.8418 59.2083C19.6595 59.2083 19.485 59.1353 19.3548 59.0051L17.0891 56.7394L16.2037 57.1092V60.3151V60.3125C16.2037 60.6927 15.8964 61 15.5162 61H11.0004C10.6202 61 10.3129 60.6927 10.3129 60.3125V57.1066L9.42745 56.7368L7.15915 59.0051C7.03154 59.1327 6.85445 59.2056 6.67215 59.2056C6.48985 59.2056 6.31536 59.1327 6.18775 59.0051L2.99228 55.8096C2.72404 55.5414 2.72404 55.1065 2.99228 54.8383L5.25798 52.5726L4.88817 51.6871L1.6849 51.6845C1.30727 51.6845 1 51.3772 1 50.9996V46.4812C1 46.101 1.30731 45.7937 1.6849 45.7937H4.89077L5.26058 44.9083L2.99228 42.64C2.72404 42.3718 2.72404 41.9368 2.99228 41.6686L6.18775 38.4731C6.45599 38.2049 6.89092 38.2049 7.15913 38.4731L9.42483 40.7388L10.3103 40.369L10.3129 37.1684C10.3129 36.7881 10.6202 36.4809 11.0004 36.4809L11.0004 36.4783ZM16.261 45.7367C17.4746 46.9503 17.8392 48.7785 17.1803 50.3645C16.5241 51.9505 14.9745 52.987 13.2583 52.987C11.5421 52.987 9.99256 51.9505 9.33627 50.3645C8.67738 48.7785 9.04198 46.9503 10.2556 45.7367C11.9145 44.0777 14.6021 44.0777 16.261 45.7367ZM13.2609 43.1194C15.5345 43.1194 17.584 44.4892 18.4539 46.5883C19.3237 48.6873 18.8419 51.1067 17.2351 52.7135C15.6282 54.3204 13.2088 54.8022 11.1098 53.9323C9.01079 53.0625 7.64093 51.0129 7.64093 48.7394C7.64093 45.6351 10.1566 43.1194 13.2609 43.1194ZM39.7801 28.8794V26.7387C39.7801 25.9626 39.1498 25.3324 38.3737 25.3324C37.595 25.3324 36.9648 25.9626 36.9648 26.7387V28.8794C36.9648 29.6555 37.595 30.2857 38.3737 30.2857C39.1498 30.2857 39.7801 29.6555 39.7801 28.8794ZM43.9677 28.8794V25.1579C43.9651 24.3818 43.3349 23.7542 42.5588 23.7542C41.7801 23.7568 41.1525 24.387 41.1525 25.1631V28.8794C41.1525 29.6555 41.7827 30.2857 42.5614 30.2857C43.3375 30.2857 43.9677 29.6555 43.9677 28.8794ZM48.1554 28.8794V23.5615C48.1554 22.7854 47.5251 22.1551 46.749 22.1551C45.9703 22.1551 45.3401 22.7854 45.3401 23.5615V28.882C45.3427 29.6607 45.9729 30.2883 46.749 30.2883C47.5251 30.2857 48.1554 29.6555 48.1554 28.8794ZM50.9341 31.6608C50.132 31.6608 49.3663 31.3118 48.8403 30.705C48.3143 31.3118 47.5512 31.6608 46.7465 31.6608C45.9444 31.6608 45.1787 31.3118 44.6527 30.705C44.1266 31.3118 43.3635 31.6608 42.5614 31.6608C41.7567 31.6608 40.9936 31.3118 40.4676 30.705C39.7046 31.5749 38.4831 31.8848 37.3998 31.4785C36.3138 31.0723 35.595 30.0383 35.5924 28.8795V26.7388C35.5924 25.7205 36.1497 24.783 37.0456 24.296C37.9388 23.809 39.0301 23.8506 39.8843 24.4053C40.1239 23.5564 40.7541 22.874 41.5771 22.5615C42.4026 22.2516 43.3245 22.348 44.0668 22.8245C44.296 21.9912 44.9002 21.3141 45.7023 20.9885C46.5018 20.663 47.4081 20.7281 48.1555 21.163V20.6812V20.6838C48.1555 19.1473 49.4003 17.9024 50.9343 17.9024C52.4708 17.9024 53.7157 19.1473 53.7157 20.6838V28.8795C53.7131 30.4135 52.4707 31.6556 50.9341 31.6608ZM50.9341 30.2857C51.7102 30.2831 52.3379 29.6555 52.3431 28.8794V20.6864C52.3431 19.9103 51.7128 19.2801 50.9341 19.2801C50.158 19.2801 49.5278 19.9103 49.5278 20.6864V28.8794C49.533 29.6555 50.1607 30.2831 50.9341 30.2857ZM44.6604 38.7601C44.3687 38.9737 43.9572 38.9216 43.7281 38.6429C43.4989 38.3617 43.5276 37.9502 43.7932 37.7028L47.2256 34.8771C47.4913 34.6141 47.921 34.6141 48.1866 34.8771L51.6216 37.7028H51.619C51.7727 37.8147 51.8716 37.984 51.8951 38.1689C51.9185 38.3564 51.8664 38.5465 51.7466 38.6898C51.6268 38.8356 51.4523 38.9268 51.2648 38.9398C51.0773 38.9528 50.8924 38.8877 50.7544 38.7601L48.3975 36.8199V51.0598H48.3949C48.3949 51.4401 48.0876 51.7473 47.7074 51.7473H30.634C30.2616 51.7369 29.9673 51.4322 29.9673 51.0598C29.9673 50.69 30.2616 50.3853 30.634 50.3749H47.02V36.8197L44.6631 38.7599L44.6604 38.7601ZM9.77089 27.5096H19.3313C19.8522 27.5096 20.2767 27.0851 20.2767 26.5617C20.2767 26.0382 19.8522 25.6137 19.3313 25.6137H9.77089C9.24742 25.6137 8.82291 26.0382 8.82291 26.5617C8.82291 27.0851 9.24741 27.5096 9.77089 27.5096ZM10.4584 28.8847V29.4889L14.5523 30.5019L18.6462 29.4889V28.8847H10.4584ZM17.352 31.2181L14.7139 31.8692C14.6019 31.8978 14.4873 31.8978 14.3753 31.8692L11.7502 31.2207V31.2181C12.2581 32.3041 13.3492 32.9969 14.5498 32.9969C15.7478 32.9969 16.839 32.3041 17.3494 31.2181L17.352 31.2181ZM45.2439 12.952V12.9494C44.934 12.728 44.8637 12.2983 45.085 11.991C45.3064 11.6811 45.7361 11.6108 46.0434 11.8321L46.9107 12.4546C46.2205 9.13149 44.2283 6.2251 41.3765 4.38622C38.5249 2.5476 35.0559 1.93038 31.7435 2.67261C28.4334 3.41744 25.5609 5.4566 23.7691 8.33952C25.066 10.8214 25.3082 13.72 24.4436 16.3812C23.5764 19.0428 21.6753 21.246 19.1699 22.4909V24.2384H19.3262C20.4721 24.241 21.4461 25.0795 21.6153 26.215C21.7872 27.3478 21.1075 28.4364 20.0137 28.7776V30.0225C20.0137 30.3584 19.7715 30.6449 19.4434 30.6996L18.8705 30.8428C18.334 34.1659 14.0682 35.5669 11.5081 33.2075C10.8258 32.5851 10.3753 31.7517 10.2242 30.8428L9.60439 30.6891C9.29708 30.6136 9.08353 30.3376 9.08353 30.0224V28.7776C7.98715 28.4364 7.30478 27.3479 7.47666 26.2124C7.64854 25.0795 8.62258 24.2409 9.77103 24.2383H9.92729V22.4961C7.06256 21.0741 5.0104 18.4151 4.36191 15.2851C3.71344 12.1547 4.539 8.89939 6.60421 6.45669C8.66683 4.01385 11.7398 2.65705 14.9352 2.77426C18.1307 2.89145 21.0944 4.47227 22.9723 7.06091C25.0635 4.02951 28.2616 1.94349 31.876 1.25079C35.4933 0.558028 39.2356 1.31329 42.2984 3.35768C45.3611 5.39944 47.4992 8.56365 48.2492 12.1707L48.8144 11.3816C48.9185 11.2332 49.08 11.1316 49.2597 11.103C49.4394 11.0743 49.6243 11.116 49.7727 11.2228C50.08 11.4441 50.1504 11.8712 49.929 12.1812L48.3717 14.3531C48.1529 14.6604 47.7232 14.7307 47.4159 14.5094L45.2439 12.952ZM9.86236 16.3037C9.86236 16.0537 9.99778 15.8219 10.2191 15.7021C10.4379 15.5823 10.7061 15.5901 10.9171 15.7255L14.5501 17.8115L18.183 15.7255C18.394 15.5901 18.6622 15.5823 18.8836 15.7021C19.1024 15.8219 19.2404 16.0537 19.2404 16.3037V19.4366C19.2404 19.8168 18.9331 20.1241 18.5529 20.1241C18.1727 20.1241 17.8654 19.8168 17.8654 19.4366V17.4886L15.2377 18.9991V24.2389H17.7976V22.0617C17.8003 21.7883 17.9591 21.5435 18.2091 21.4315C22.1104 19.7049 24.2719 15.4833 23.3916 11.3084C22.514 7.13373 18.8342 4.1414 14.5659 4.1334C10.3001 4.12558 6.60955 7.10486 5.71418 11.277C4.82094 15.4491 6.96684 19.6761 10.8629 21.4182C11.1285 21.5197 11.303 21.7749 11.303 22.0614V24.2386H13.863V18.9987L11.2353 17.4909V19.4389C11.2353 19.8165 10.928 20.1264 10.5478 20.1264C10.1675 20.1264 9.86027 19.8165 9.86027 19.4389L9.86236 16.3037Z"></path></mask><path fill-rule="evenodd" clip-rule="evenodd" d="M14.8313 37.8533H11.6853V40.8717C11.6853 41.179 11.4822 41.4472 11.1879 41.5332C10.6618 41.6842 10.154 41.8926 9.67482 42.153C9.40137 42.3327 9.03938 42.2962 8.80758 42.0644L6.67469 39.9315L4.45066 42.1556L6.58355 44.2885C6.79971 44.5046 6.84658 44.838 6.69814 45.1062C6.42991 45.5932 6.21635 46.1063 6.0601 46.6402C5.98717 46.9475 5.71112 47.1662 5.3934 47.1662H2.37247V50.3096H5.3908V50.3122C5.69811 50.3122 5.96895 50.5153 6.05229 50.8096C6.20334 51.3357 6.41168 51.8435 6.67211 52.3227C6.85181 52.5961 6.81534 52.9581 6.58617 53.1899L4.45327 55.3228L6.6773 57.5468L8.8102 55.4139H8.80759C9.02375 55.1978 9.3571 55.1509 9.62276 55.2993C10.1098 55.5676 10.6254 55.7811 11.1567 55.9374C11.4666 56.0103 11.6828 56.2864 11.6854 56.6041V59.6224H14.8314V56.6067C14.8314 56.2994 15.0345 56.0285 15.3288 55.9452C15.8548 55.7942 16.3627 55.5858 16.8444 55.3254C17.1153 55.1457 17.4799 55.1821 17.7091 55.4113L19.842 57.5442L22.066 55.3202L19.9331 53.1873V53.1899C19.717 52.9737 19.6701 52.6378 19.8185 52.3721C20.0868 51.8851 20.3003 51.3721 20.4566 50.8382C20.5321 50.5309 20.8055 50.3121 21.1233 50.3121H24.1416V47.1661H21.1259C20.8186 47.1661 20.5503 46.963 20.4644 46.6687C20.3133 46.1426 20.105 45.6348 19.8446 45.153C19.6623 44.8796 19.6987 44.5176 19.9331 44.2858L22.066 42.1529L19.8446 39.9315L17.7091 42.067C17.4929 42.2831 17.1596 42.33 16.8939 42.179C16.4069 41.9107 15.8913 41.6972 15.36 41.5435C15.0501 41.468 14.8339 41.1919 14.8313 40.8768L14.8313 37.8533ZM11.0004 36.4783L15.5162 36.4809C15.8964 36.4809 16.2037 36.7882 16.2037 37.1684V40.3743L17.0891 40.7441L19.3548 38.4784L19.3574 38.4732C19.6257 38.2049 20.0606 38.2049 20.3288 38.4732L23.5243 41.666C23.7925 41.9343 23.7925 42.3692 23.5243 42.6374L21.2586 44.9031L21.6232 45.7937H24.8291C25.2093 45.7937 25.5166 46.1011 25.5166 46.4812V50.9996C25.5166 51.3799 25.2093 51.6871 24.8291 51.6871H21.6232L21.2534 52.5726L23.5217 54.8409C23.7899 55.1091 23.7899 55.544 23.5217 55.8123L20.3262 59.0077V59.0051C20.1986 59.1353 20.0241 59.2083 19.8418 59.2083C19.6595 59.2083 19.485 59.1353 19.3548 59.0051L17.0891 56.7394L16.2037 57.1092V60.3151V60.3125C16.2037 60.6927 15.8964 61 15.5162 61H11.0004C10.6202 61 10.3129 60.6927 10.3129 60.3125V57.1066L9.42745 56.7368L7.15915 59.0051C7.03154 59.1327 6.85445 59.2056 6.67215 59.2056C6.48985 59.2056 6.31536 59.1327 6.18775 59.0051L2.99228 55.8096C2.72404 55.5414 2.72404 55.1065 2.99228 54.8383L5.25798 52.5726L4.88817 51.6871L1.6849 51.6845C1.30727 51.6845 1 51.3772 1 50.9996V46.4812C1 46.101 1.30731 45.7937 1.6849 45.7937H4.89077L5.26058 44.9083L2.99228 42.64C2.72404 42.3718 2.72404 41.9368 2.99228 41.6686L6.18775 38.4731C6.45599 38.2049 6.89092 38.2049 7.15913 38.4731L9.42483 40.7388L10.3103 40.369L10.3129 37.1684C10.3129 36.7881 10.6202 36.4809 11.0004 36.4809L11.0004 36.4783ZM16.261 45.7367C17.4746 46.9503 17.8392 48.7785 17.1803 50.3645C16.5241 51.9505 14.9745 52.987 13.2583 52.987C11.5421 52.987 9.99256 51.9505 9.33627 50.3645C8.67738 48.7785 9.04198 46.9503 10.2556 45.7367C11.9145 44.0777 14.6021 44.0777 16.261 45.7367ZM13.2609 43.1194C15.5345 43.1194 17.584 44.4892 18.4539 46.5883C19.3237 48.6873 18.8419 51.1067 17.2351 52.7135C15.6282 54.3204 13.2088 54.8022 11.1098 53.9323C9.01079 53.0625 7.64093 51.0129 7.64093 48.7394C7.64093 45.6351 10.1566 43.1194 13.2609 43.1194ZM39.7801 28.8794V26.7387C39.7801 25.9626 39.1498 25.3324 38.3737 25.3324C37.595 25.3324 36.9648 25.9626 36.9648 26.7387V28.8794C36.9648 29.6555 37.595 30.2857 38.3737 30.2857C39.1498 30.2857 39.7801 29.6555 39.7801 28.8794ZM43.9677 28.8794V25.1579C43.9651 24.3818 43.3349 23.7542 42.5588 23.7542C41.7801 23.7568 41.1525 24.387 41.1525 25.1631V28.8794C41.1525 29.6555 41.7827 30.2857 42.5614 30.2857C43.3375 30.2857 43.9677 29.6555 43.9677 28.8794ZM48.1554 28.8794V23.5615C48.1554 22.7854 47.5251 22.1551 46.749 22.1551C45.9703 22.1551 45.3401 22.7854 45.3401 23.5615V28.882C45.3427 29.6607 45.9729 30.2883 46.749 30.2883C47.5251 30.2857 48.1554 29.6555 48.1554 28.8794ZM50.9341 31.6608C50.132 31.6608 49.3663 31.3118 48.8403 30.705C48.3143 31.3118 47.5512 31.6608 46.7465 31.6608C45.9444 31.6608 45.1787 31.3118 44.6527 30.705C44.1266 31.3118 43.3635 31.6608 42.5614 31.6608C41.7567 31.6608 40.9936 31.3118 40.4676 30.705C39.7046 31.5749 38.4831 31.8848 37.3998 31.4785C36.3138 31.0723 35.595 30.0383 35.5924 28.8795V26.7388C35.5924 25.7205 36.1497 24.783 37.0456 24.296C37.9388 23.809 39.0301 23.8506 39.8843 24.4053C40.1239 23.5564 40.7541 22.874 41.5771 22.5615C42.4026 22.2516 43.3245 22.348 44.0668 22.8245C44.296 21.9912 44.9002 21.3141 45.7023 20.9885C46.5018 20.663 47.4081 20.7281 48.1555 21.163V20.6812V20.6838C48.1555 19.1473 49.4003 17.9024 50.9343 17.9024C52.4708 17.9024 53.7157 19.1473 53.7157 20.6838V28.8795C53.7131 30.4135 52.4707 31.6556 50.9341 31.6608ZM50.9341 30.2857C51.7102 30.2831 52.3379 29.6555 52.3431 28.8794V20.6864C52.3431 19.9103 51.7128 19.2801 50.9341 19.2801C50.158 19.2801 49.5278 19.9103 49.5278 20.6864V28.8794C49.533 29.6555 50.1607 30.2831 50.9341 30.2857ZM44.6604 38.7601C44.3687 38.9737 43.9572 38.9216 43.7281 38.6429C43.4989 38.3617 43.5276 37.9502 43.7932 37.7028L47.2256 34.8771C47.4913 34.6141 47.921 34.6141 48.1866 34.8771L51.6216 37.7028H51.619C51.7727 37.8147 51.8716 37.984 51.8951 38.1689C51.9185 38.3564 51.8664 38.5465 51.7466 38.6898C51.6268 38.8356 51.4523 38.9268 51.2648 38.9398C51.0773 38.9528 50.8924 38.8877 50.7544 38.7601L48.3975 36.8199V51.0598H48.3949C48.3949 51.4401 48.0876 51.7473 47.7074 51.7473H30.634C30.2616 51.7369 29.9673 51.4322 29.9673 51.0598C29.9673 50.69 30.2616 50.3853 30.634 50.3749H47.02V36.8197L44.6631 38.7599L44.6604 38.7601ZM9.77089 27.5096H19.3313C19.8522 27.5096 20.2767 27.0851 20.2767 26.5617C20.2767 26.0382 19.8522 25.6137 19.3313 25.6137H9.77089C9.24742 25.6137 8.82291 26.0382 8.82291 26.5617C8.82291 27.0851 9.24741 27.5096 9.77089 27.5096ZM10.4584 28.8847V29.4889L14.5523 30.5019L18.6462 29.4889V28.8847H10.4584ZM17.352 31.2181L14.7139 31.8692C14.6019 31.8978 14.4873 31.8978 14.3753 31.8692L11.7502 31.2207V31.2181C12.2581 32.3041 13.3492 32.9969 14.5498 32.9969C15.7478 32.9969 16.839 32.3041 17.3494 31.2181L17.352 31.2181ZM45.2439 12.952V12.9494C44.934 12.728 44.8637 12.2983 45.085 11.991C45.3064 11.6811 45.7361 11.6108 46.0434 11.8321L46.9107 12.4546C46.2205 9.13149 44.2283 6.2251 41.3765 4.38622C38.5249 2.5476 35.0559 1.93038 31.7435 2.67261C28.4334 3.41744 25.5609 5.4566 23.7691 8.33952C25.066 10.8214 25.3082 13.72 24.4436 16.3812C23.5764 19.0428 21.6753 21.246 19.1699 22.4909V24.2384H19.3262C20.4721 24.241 21.4461 25.0795 21.6153 26.215C21.7872 27.3478 21.1075 28.4364 20.0137 28.7776V30.0225C20.0137 30.3584 19.7715 30.6449 19.4434 30.6996L18.8705 30.8428C18.334 34.1659 14.0682 35.5669 11.5081 33.2075C10.8258 32.5851 10.3753 31.7517 10.2242 30.8428L9.60439 30.6891C9.29708 30.6136 9.08353 30.3376 9.08353 30.0224V28.7776C7.98715 28.4364 7.30478 27.3479 7.47666 26.2124C7.64854 25.0795 8.62258 24.2409 9.77103 24.2383H9.92729V22.4961C7.06256 21.0741 5.0104 18.4151 4.36191 15.2851C3.71344 12.1547 4.539 8.89939 6.60421 6.45669C8.66683 4.01385 11.7398 2.65705 14.9352 2.77426C18.1307 2.89145 21.0944 4.47227 22.9723 7.06091C25.0635 4.02951 28.2616 1.94349 31.876 1.25079C35.4933 0.558028 39.2356 1.31329 42.2984 3.35768C45.3611 5.39944 47.4992 8.56365 48.2492 12.1707L48.8144 11.3816C48.9185 11.2332 49.08 11.1316 49.2597 11.103C49.4394 11.0743 49.6243 11.116 49.7727 11.2228C50.08 11.4441 50.1504 11.8712 49.929 12.1812L48.3717 14.3531C48.1529 14.6604 47.7232 14.7307 47.4159 14.5094L45.2439 12.952ZM9.86236 16.3037C9.86236 16.0537 9.99778 15.8219 10.2191 15.7021C10.4379 15.5823 10.7061 15.5901 10.9171 15.7255L14.5501 17.8115L18.183 15.7255C18.394 15.5901 18.6622 15.5823 18.8836 15.7021C19.1024 15.8219 19.2404 16.0537 19.2404 16.3037V19.4366C19.2404 19.8168 18.9331 20.1241 18.5529 20.1241C18.1727 20.1241 17.8654 19.8168 17.8654 19.4366V17.4886L15.2377 18.9991V24.2389H17.7976V22.0617C17.8003 21.7883 17.9591 21.5435 18.2091 21.4315C22.1104 19.7049 24.2719 15.4833 23.3916 11.3084C22.514 7.13373 18.8342 4.1414 14.5659 4.1334C10.3001 4.12558 6.60955 7.10486 5.71418 11.277C4.82094 15.4491 6.96684 19.6761 10.8629 21.4182C11.1285 21.5197 11.303 21.7749 11.303 22.0614V24.2386H13.863V18.9987L11.2353 17.4909V19.4389C11.2353 19.8165 10.928 20.1264 10.5478 20.1264C10.1675 20.1264 9.86027 19.8165 9.86027 19.4389L9.86236 16.3037Z" fill="#0CB4C4"></path><path d="M50.9368 31.4608H50.9341V31.8608H50.9368V31.4608ZM50.9368 30.0857H50.9341V30.4857H50.9368V30.0857ZM14.8313 37.8533L15.2313 37.8533L15.2313 37.4533H14.8313V37.8533ZM11.6853 37.8533V37.4533H11.2853V37.8533H11.6853ZM11.1879 41.5332L11.2983 41.9176L11.3 41.9171L11.1879 41.5332ZM9.67482 42.153L9.4838 41.8015L9.46912 41.8095L9.45515 41.8187L9.67482 42.153ZM8.80758 42.0644L8.52474 42.3473L8.52475 42.3473L8.80758 42.0644ZM6.67469 39.9315L6.95753 39.6487L6.67469 39.3659L6.39185 39.6487L6.67469 39.9315ZM4.45066 42.1556L4.16782 41.8727L3.88497 42.1556L4.16782 42.4384L4.45066 42.1556ZM6.58355 44.2885L6.30071 44.5713L6.30071 44.5713L6.58355 44.2885ZM6.69814 45.1062L6.34815 44.9126L6.34778 44.9133L6.69814 45.1062ZM6.0601 46.6402L5.6762 46.5278L5.67329 46.5378L5.6709 46.5478L6.0601 46.6402ZM2.37247 47.1662V46.7662H1.97247V47.1662H2.37247ZM2.37247 50.3096H1.97247V50.7096H2.37247V50.3096ZM5.3908 50.3096H5.7908V49.9096H5.3908V50.3096ZM5.3908 50.3122H4.9908V50.7122H5.3908V50.3122ZM6.05229 50.8096L5.66742 50.9186L5.66782 50.92L6.05229 50.8096ZM6.67211 52.3227L6.32067 52.5137L6.32865 52.5284L6.33783 52.5423L6.67211 52.3227ZM6.58617 53.1899L6.86901 53.4727L6.87061 53.4711L6.58617 53.1899ZM4.45327 55.3228L4.17043 55.04L3.88759 55.3228L4.17043 55.6056L4.45327 55.3228ZM6.6773 57.5468L6.39446 57.8297L6.6773 58.1125L6.96015 57.8297L6.6773 57.5468ZM8.8102 55.4139L9.09304 55.6968L9.77588 55.0139H8.8102V55.4139ZM8.80759 55.4139L8.52475 55.1311L7.84191 55.8139H8.80759V55.4139ZM9.62276 55.2993L9.42765 55.6485L9.42978 55.6497L9.62276 55.2993ZM11.1567 55.9374L11.0438 56.3211L11.0544 56.3242L11.0651 56.3268L11.1567 55.9374ZM11.6854 56.6041L12.0854 56.6041L12.0854 56.6008L11.6854 56.6041ZM11.6854 59.6224H11.2854V60.0224H11.6854V59.6224ZM14.8314 59.6224V60.0224H15.2314V59.6224H14.8314ZM15.3288 55.9452L15.4378 56.3301L15.4392 56.3297L15.3288 55.9452ZM16.8444 55.3254L17.0347 55.6773L17.0505 55.6687L17.0656 55.6587L16.8444 55.3254ZM17.7091 55.4113L17.9919 55.1285L17.9919 55.1285L17.7091 55.4113ZM19.842 57.5442L19.5591 57.8271L19.842 58.1099L20.1248 57.8271L19.842 57.5442ZM22.066 55.3202L22.3489 55.603L22.6317 55.3202L22.3489 55.0373L22.066 55.3202ZM19.9331 53.1873L20.216 52.9044L19.5331 52.2216V53.1873H19.9331ZM19.9331 53.1899L19.6503 53.4727L20.3331 54.1556V53.1899H19.9331ZM19.8185 52.3721L20.1677 52.5672L20.1689 52.5651L19.8185 52.3721ZM20.4566 50.8382L20.8405 50.9505L20.8429 50.9422L20.845 50.9337L20.4566 50.8382ZM24.1416 50.3121V50.7121H24.5416V50.3121H24.1416ZM24.1416 47.1661H24.5416V46.7661H24.1416V47.1661ZM20.4644 46.6687L20.0799 46.7791L20.0804 46.7808L20.4644 46.6687ZM19.8446 45.153L20.1964 44.9628L20.1876 44.9466L20.1774 44.9312L19.8446 45.153ZM19.9331 44.2858L20.2144 44.5702L20.2159 44.5686L19.9331 44.2858ZM22.066 42.1529L22.3488 42.4358L22.6317 42.1529L22.3488 41.8701L22.066 42.1529ZM19.8446 39.9315L20.1274 39.6486L19.8446 39.3658L19.5617 39.6486L19.8446 39.9315ZM17.7091 42.067L17.4262 41.7841L17.4262 41.7841L17.7091 42.067ZM16.8939 42.179L17.0916 41.8312L17.0869 41.8286L16.8939 42.179ZM15.36 41.5435L15.4711 41.1593L15.4629 41.1569L15.4547 41.1549L15.36 41.5435ZM14.8313 40.8768L14.4313 40.8768L14.4313 40.8801L14.8313 40.8768ZM11.0004 36.4783L11.0006 36.0783L10.6062 36.0781L10.6004 36.4725L11.0004 36.4783ZM15.5162 36.4809L15.516 36.8809H15.5162V36.4809ZM16.2037 40.3743H15.8037V40.6407L16.0495 40.7434L16.2037 40.3743ZM17.0891 40.7441L16.935 41.1132L17.1824 41.2165L17.372 41.0269L17.0891 40.7441ZM19.3548 38.4784L19.6377 38.7612L19.6836 38.7153L19.7126 38.6573L19.3548 38.4784ZM19.3574 38.4732L19.0746 38.1903L19.0287 38.2362L18.9997 38.2943L19.3574 38.4732ZM20.3288 38.4732L20.046 38.756L20.0461 38.7561L20.3288 38.4732ZM23.5243 41.666L23.8071 41.3832L23.807 41.3831L23.5243 41.666ZM23.5243 42.6374L23.2415 42.3546L23.2414 42.3546L23.5243 42.6374ZM21.2586 44.9031L20.9757 44.6203L20.7876 44.8084L20.8884 45.0547L21.2586 44.9031ZM21.6232 45.7937L21.253 45.9453L21.3547 46.1937H21.6232V45.7937ZM21.6232 51.6871V51.2871H21.3568L21.2541 51.533L21.6232 51.6871ZM21.2534 52.5726L20.8843 52.4184L20.781 52.6658L20.9705 52.8554L21.2534 52.5726ZM23.5217 54.8409L23.8045 54.558L23.8045 54.558L23.5217 54.8409ZM23.5217 55.8123L23.2389 55.5294L23.2388 55.5294L23.5217 55.8123ZM20.3262 59.0077H19.9262V59.9734L20.6091 59.2906L20.3262 59.0077ZM20.3262 59.0051H20.7262V58.0255L20.0405 58.7251L20.3262 59.0051ZM19.3548 59.0051L19.6377 58.7223L19.6377 58.7223L19.3548 59.0051ZM17.0891 56.7394L17.372 56.4566L17.1824 56.267L16.935 56.3703L17.0891 56.7394ZM16.2037 57.1092L16.0495 56.7401L15.8037 56.8428V57.1092H16.2037ZM10.3129 57.1066H10.7129V56.8402L10.467 56.7375L10.3129 57.1066ZM9.42745 56.7368L9.5816 56.3677L9.3342 56.2644L9.14461 56.454L9.42745 56.7368ZM7.15915 59.0051L6.87631 58.7223L6.87631 58.7223L7.15915 59.0051ZM6.18775 59.0051L6.4706 58.7223L6.4706 58.7223L6.18775 59.0051ZM2.99228 55.8096L2.70944 56.0925L2.70944 56.0925L2.99228 55.8096ZM2.99228 54.8383L3.27511 55.1211L3.27512 55.1211L2.99228 54.8383ZM5.25798 52.5726L5.54082 52.8554L5.73041 52.6658L5.62708 52.4184L5.25798 52.5726ZM4.88817 51.6871L5.25727 51.533L5.15468 51.2873L4.8885 51.2871L4.88817 51.6871ZM1.6849 51.6845L1.68522 51.2845H1.6849V51.6845ZM4.89077 45.7937V46.1937H5.15719L5.25987 45.9479L4.89077 45.7937ZM5.26058 44.9083L5.62968 45.0625L5.73301 44.815L5.54342 44.6255L5.26058 44.9083ZM2.99228 42.64L3.27512 42.3572L3.27512 42.3572L2.99228 42.64ZM2.99228 41.6686L3.27511 41.9515L3.27512 41.9515L2.99228 41.6686ZM6.18775 38.4731L6.4706 38.756L6.4706 38.756L6.18775 38.4731ZM7.15913 38.4731L6.87627 38.756L6.87629 38.756L7.15913 38.4731ZM9.42483 40.7388L9.14199 41.0217L9.33158 41.2113L9.57899 41.1079L9.42483 40.7388ZM10.3103 40.369L10.4644 40.7381L10.71 40.6356L10.7103 40.3694L10.3103 40.369ZM10.3129 37.1684L10.7129 37.1687V37.1684H10.3129ZM11.0004 36.4809V36.8809H11.3946L11.4003 36.4867L11.0004 36.4809ZM16.261 45.7367L15.9782 46.0195L15.9782 46.0195L16.261 45.7367ZM17.1803 50.3645L16.811 50.211L16.8107 50.2116L17.1803 50.3645ZM9.33627 50.3645L9.70587 50.2115L9.70566 50.211L9.33627 50.3645ZM10.2556 45.7367L10.5384 46.0195L10.5384 46.0195L10.2556 45.7367ZM17.2351 52.7135L17.5179 52.9964L17.5179 52.9964L17.2351 52.7135ZM43.9677 25.1579L44.3677 25.1579L44.3677 25.1566L43.9677 25.1579ZM42.5588 23.7542L42.5588 23.3542L42.5574 23.3542L42.5588 23.7542ZM45.3401 28.882L44.9401 28.882L44.9401 28.8834L45.3401 28.882ZM46.749 30.2883L46.749 30.6883L46.7504 30.6883L46.749 30.2883ZM50.9341 31.6608V32.0608L50.9355 32.0608L50.9341 31.6608ZM48.8403 30.705L49.1426 30.443L48.8403 30.0944L48.5381 30.443L48.8403 30.705ZM44.6527 30.705L44.9549 30.443L44.6527 30.0944L44.3504 30.443L44.6527 30.705ZM40.4676 30.705L40.7699 30.443L40.4694 30.0964L40.1669 30.4413L40.4676 30.705ZM37.3998 31.4785L37.5402 31.104L37.5399 31.1039L37.3998 31.4785ZM35.5924 28.8795L35.1924 28.8795L35.1924 28.8804L35.5924 28.8795ZM37.0456 24.296L37.2366 24.6474L37.2371 24.6471L37.0456 24.296ZM39.8843 24.4053L39.6664 24.7408L40.1218 25.0365L40.2692 24.514L39.8843 24.4053ZM41.5771 22.5615L41.4365 22.187L41.4351 22.1876L41.5771 22.5615ZM44.0668 22.8245L43.8507 23.1611L44.3083 23.455L44.4525 22.9306L44.0668 22.8245ZM45.7023 20.9885L45.8527 21.3592L45.8531 21.359L45.7023 20.9885ZM48.1555 21.163L47.9543 21.5088L48.5555 21.8586V21.163H48.1555ZM53.7157 28.8795L54.1157 28.8802V28.8795H53.7157ZM50.9341 30.2857L50.9328 30.6858L50.9355 30.6857L50.9341 30.2857ZM52.3431 28.8794L52.7431 28.8821V28.8794H52.3431ZM49.5278 28.8794L49.1278 28.8794L49.1278 28.8821L49.5278 28.8794ZM44.6604 38.7601L44.6263 38.3616L44.5146 38.3711L44.4241 38.4374L44.6604 38.7601ZM43.7281 38.6429L43.418 38.8956L43.4191 38.897L43.7281 38.6429ZM43.7932 37.7028L43.539 37.3939L43.5295 37.4017L43.5206 37.41L43.7932 37.7028ZM47.2256 34.8771L47.4799 35.1859L47.494 35.1742L47.5071 35.1613L47.2256 34.8771ZM48.1866 34.8771L47.9051 35.1613L47.9182 35.1743L47.9325 35.186L48.1866 34.8771ZM51.6216 37.7028V38.1028H52.7375L51.8757 37.3938L51.6216 37.7028ZM51.619 37.7028V37.3028H50.3911L51.3834 38.026L51.619 37.7028ZM51.8951 38.1689L52.292 38.1193L52.2919 38.1186L51.8951 38.1689ZM51.7466 38.6898L51.4398 38.4331L51.4375 38.4359L51.7466 38.6898ZM51.2648 38.9398L51.2371 38.5407L51.2371 38.5407L51.2648 38.9398ZM50.7544 38.7601L51.0259 38.4664L51.0175 38.4586L51.0086 38.4513L50.7544 38.7601ZM48.3975 36.8199L48.6517 36.5111L47.9975 35.9725V36.8199H48.3975ZM48.3975 51.0598V51.4598H48.7975V51.0598H48.3975ZM48.3949 51.0598V50.6598H47.9949V51.0598H48.3949ZM30.634 51.7473L30.6228 52.1473H30.634V51.7473ZM30.634 50.3749V49.9748L30.6228 49.9751L30.634 50.3749ZM47.02 50.3749V50.7749H47.42V50.3749H47.02ZM47.02 36.8197H47.42V35.9723L46.7658 36.5109L47.02 36.8197ZM44.6631 38.7599L44.6972 39.1584L44.8212 39.1478L44.9173 39.0687L44.6631 38.7599ZM10.4584 28.8847V28.4847H10.0584V28.8847H10.4584ZM10.4584 29.4889H10.0584V29.802L10.3623 29.8772L10.4584 29.4889ZM14.5523 30.5019L14.4562 30.8902L14.5523 30.914L14.6484 30.8902L14.5523 30.5019ZM18.6462 29.4889L18.7423 29.8772L19.0462 29.802V29.4889H18.6462ZM18.6462 28.8847H19.0462V28.4847H18.6462V28.8847ZM17.352 31.2181L17.4479 31.6065L17.3527 30.8181L17.352 31.2181ZM14.7139 31.8692L14.6181 31.4808L14.6148 31.4817L14.7139 31.8692ZM14.3753 31.8692L14.4745 31.4817L14.4713 31.4809L14.3753 31.8692ZM11.7502 31.2207H11.3502V31.5339L11.6543 31.609L11.7502 31.2207ZM11.7502 31.2181L12.1126 31.0487L11.3502 31.2181H11.7502ZM17.3494 31.2181L17.3501 30.8181L17.0956 30.8177L16.9874 31.048L17.3494 31.2181ZM45.2439 12.952H44.8439V13.1574L45.0108 13.2771L45.2439 12.952ZM45.2439 12.9494H45.6439V12.7435L45.4764 12.6239L45.2439 12.9494ZM45.085 11.991L45.4096 12.2248L45.4105 12.2235L45.085 11.991ZM46.0434 11.8321L45.8096 12.1567L45.8102 12.1571L46.0434 11.8321ZM46.9107 12.4546L46.6774 12.7795L47.5109 13.3777L47.3023 12.3732L46.9107 12.4546ZM41.3765 4.38622L41.5933 4.05005L41.5933 4.05004L41.3765 4.38622ZM31.7435 2.67261L31.656 2.28229L31.6556 2.28237L31.7435 2.67261ZM23.7691 8.33952L23.4294 8.12837L23.3088 8.32235L23.4146 8.52477L23.7691 8.33952ZM24.4436 16.3812L24.8239 16.5051L24.824 16.5048L24.4436 16.3812ZM19.1699 22.4909L18.9919 22.1327L18.7699 22.243V22.4909H19.1699ZM19.1699 24.2384H18.7699V24.6384H19.1699V24.2384ZM19.3262 24.2384L19.3271 23.8384H19.3262V24.2384ZM21.6153 26.215L21.2197 26.274L21.2199 26.275L21.6153 26.215ZM20.0137 28.7776L19.8946 28.3958L19.6137 28.4834V28.7776H20.0137ZM19.4434 30.6996L19.3777 30.305L19.3619 30.3076L19.3464 30.3115L19.4434 30.6996ZM18.8705 30.8428L18.7734 30.4547L18.5176 30.5187L18.4756 30.7791L18.8705 30.8428ZM11.5081 33.2075L11.7792 32.9134L11.7777 32.912L11.5081 33.2075ZM10.2242 30.8428L10.6188 30.7772L10.5757 30.5178L10.3205 30.4546L10.2242 30.8428ZM9.60439 30.6891L9.70063 30.3009L9.69985 30.3007L9.60439 30.6891ZM9.08353 28.7776H9.48353V28.4831L9.20238 28.3957L9.08353 28.7776ZM7.47666 26.2124L7.08118 26.1523L7.08116 26.1525L7.47666 26.2124ZM9.77103 24.2383L9.77103 23.8383L9.77012 23.8383L9.77103 24.2383ZM9.92729 24.2383V24.6383H10.3273V24.2383H9.92729ZM9.92729 22.4961H10.3273V22.248L10.1051 22.1378L9.92729 22.4961ZM4.36191 15.2851L3.97023 15.3662L3.97023 15.3662L4.36191 15.2851ZM6.60421 6.45669L6.90967 6.71494L6.90983 6.71474L6.60421 6.45669ZM14.9352 2.77426L14.9206 3.17399L14.9206 3.17399L14.9352 2.77426ZM22.9723 7.06091L22.6485 7.29579L22.9805 7.75343L23.3015 7.28805L22.9723 7.06091ZM31.876 1.25079L31.8007 0.857932L31.8007 0.857941L31.876 1.25079ZM42.2984 3.35768L42.0764 3.69038L42.0766 3.69051L42.2984 3.35768ZM48.2492 12.1707L47.8576 12.2522L48.0433 13.1453L48.5744 12.4036L48.2492 12.1707ZM48.8144 11.3816L49.1396 11.6145L49.1418 11.6114L48.8144 11.3816ZM49.2597 11.103L49.1967 10.708L49.1967 10.708L49.2597 11.103ZM49.7727 11.2228L50.0065 10.8982L50.0063 10.8981L49.7727 11.2228ZM49.929 12.1812L50.2541 12.4142L50.2545 12.4136L49.929 12.1812ZM48.3717 14.3531L48.0466 14.12L48.0458 14.1211L48.3717 14.3531ZM47.4159 14.5094L47.6497 14.1848L47.649 14.1843L47.4159 14.5094ZM9.86236 16.3037L10.2624 16.3039V16.3037H9.86236ZM10.2191 15.7021L10.4095 16.0539L10.4113 16.0529L10.2191 15.7021ZM10.9171 15.7255L10.701 16.0621L10.7094 16.0675L10.7179 16.0724L10.9171 15.7255ZM14.5501 17.8115L14.3509 18.1584L14.5501 18.2728L14.7492 18.1584L14.5501 17.8115ZM18.183 15.7255L18.3822 16.0724L18.3908 16.0675L18.3991 16.0621L18.183 15.7255ZM18.8836 15.7021L19.0757 15.3512L19.074 15.3503L18.8836 15.7021ZM17.8654 17.4886H18.2654V16.7973L17.666 17.1418L17.8654 17.4886ZM15.2377 18.9991L15.0383 18.6523L14.8377 18.7676V18.9991H15.2377ZM15.2377 24.2389H14.8377V24.6389H15.2377V24.2389ZM17.7976 24.2389V24.6389H18.1976V24.2389H17.7976ZM17.7976 22.0617L17.3976 22.0579V22.0617H17.7976ZM18.2091 21.4315L18.0472 21.0657L18.0456 21.0664L18.2091 21.4315ZM23.3916 11.3084L23.0002 11.3907L23.0002 11.3909L23.3916 11.3084ZM14.5659 4.1334L14.5667 3.7334L14.5666 3.7334L14.5659 4.1334ZM5.71418 11.277L5.32309 11.1931L5.32305 11.1933L5.71418 11.277ZM10.8629 21.4182L10.6996 21.7833L10.7097 21.7878L10.72 21.7918L10.8629 21.4182ZM11.303 24.2386H10.903V24.6386H11.303V24.2386ZM13.863 24.2386V24.6386H14.263V24.2386H13.863ZM13.863 18.9987H14.263V18.7671L14.0621 18.6518L13.863 18.9987ZM11.2353 17.4909L11.4343 17.1439L10.8353 16.8002V17.4909H11.2353ZM9.86027 19.4389L9.46027 19.4386V19.4389H9.86027ZM14.8313 37.4533H11.6853V38.2533H14.8313V37.4533ZM11.2853 37.8533V40.8717H12.0853V37.8533H11.2853ZM11.2853 40.8717C11.2853 40.9997 11.201 41.1126 11.0758 41.1492L11.3 41.9171C11.7634 41.7818 12.0853 41.3583 12.0853 40.8717H11.2853ZM11.0775 41.1487C10.5233 41.3078 9.98846 41.5272 9.4838 41.8015L9.86584 42.5044C10.3195 42.2579 10.8003 42.0606 11.2983 41.9176L11.0775 41.1487ZM9.45515 41.8187C9.33984 41.8945 9.18778 41.8789 9.09041 41.7816L8.52475 42.3473C8.89099 42.7135 9.4629 42.7709 9.89449 42.4873L9.45515 41.8187ZM9.09043 41.7816L6.95753 39.6487L6.39185 40.2144L8.52474 42.3473L9.09043 41.7816ZM6.39185 39.6487L4.16782 41.8727L4.7335 42.4384L6.95753 40.2144L6.39185 39.6487ZM4.16782 42.4384L6.30071 44.5713L6.8664 44.0056L4.7335 41.8727L4.16782 42.4384ZM6.30071 44.5713C6.39046 44.6611 6.41045 44.8 6.34815 44.9126L7.04814 45.2999C7.28272 44.876 7.20896 44.3482 6.8664 44.0056L6.30071 44.5713ZM6.34778 44.9133C6.06549 45.4258 5.84068 45.9658 5.6762 46.5278L6.44399 46.7525C6.59202 46.2467 6.79432 45.7607 7.04851 45.2992L6.34778 44.9133ZM5.6709 46.5478C5.64081 46.6746 5.52596 46.7662 5.3934 46.7662V47.5662C5.89629 47.5662 6.33353 47.2203 6.44929 46.7325L5.6709 46.5478ZM5.3934 46.7662H2.37247V47.5662H5.3934V46.7662ZM1.97247 47.1662V50.3096H2.77247V47.1662H1.97247ZM2.37247 50.7096H5.3908V49.9096H2.37247V50.7096ZM4.9908 50.3096V50.3122H5.7908V50.3096H4.9908ZM5.3908 50.7122C5.5212 50.7122 5.63339 50.7984 5.66743 50.9186L6.43716 50.7006C6.30451 50.2322 5.87502 49.9122 5.3908 49.9122V50.7122ZM5.66782 50.92C5.82694 51.4741 6.04637 52.009 6.32067 52.5137L7.02355 52.1316C6.77698 51.678 6.57974 51.1972 6.43676 50.6992L5.66782 50.92ZM6.33783 52.5423C6.41379 52.6579 6.39818 52.8111 6.30172 52.9087L6.87061 53.4711C7.23251 53.1051 7.28982 52.5343 7.00639 52.103L6.33783 52.5423ZM6.30332 52.9071L4.17043 55.04L4.73612 55.6056L6.86901 53.4727L6.30332 52.9071ZM4.17043 55.6056L6.39446 57.8297L6.96015 57.264L4.73612 55.04L4.17043 55.6056ZM6.96015 57.8297L9.09304 55.6968L8.52735 55.1311L6.39446 57.264L6.96015 57.8297ZM8.8102 55.0139H8.80759V55.8139H8.8102V55.0139ZM9.09044 55.6968C9.18088 55.6063 9.31923 55.5879 9.42765 55.6485L9.81787 54.9501C9.39497 54.7139 8.86662 54.7892 8.52475 55.1311L9.09044 55.6968ZM9.42978 55.6497C9.94264 55.9322 10.4852 56.1568 11.0438 56.3211L11.2696 55.5536C10.7656 55.4054 10.2769 55.203 9.81574 54.949L9.42978 55.6497ZM11.0651 56.3268C11.192 56.3566 11.2843 56.4704 11.2854 56.6074L12.0854 56.6008C12.0813 56.1023 11.7412 55.664 11.2483 55.548L11.0651 56.3268ZM11.2854 56.6041V59.6224H12.0854V56.6041H11.2854ZM11.6854 60.0224H14.8314V59.2224H11.6854V60.0224ZM15.2314 59.6224V56.6067H14.4314V59.6224H15.2314ZM15.2314 56.6067C15.2314 56.4763 15.3176 56.3641 15.4378 56.3301L15.2198 55.5603C14.7514 55.693 14.4314 56.1225 14.4314 56.6067H15.2314ZM15.4392 56.3297C15.9934 56.1705 16.528 55.9512 17.0347 55.6773L16.6542 54.9735C16.1974 55.2204 15.7163 55.4178 15.2184 55.5607L15.4392 56.3297ZM17.0656 55.6587C17.1781 55.584 17.3319 55.5998 17.4263 55.6942L17.9919 55.1285C17.6279 54.7644 17.0524 54.7074 16.6233 54.9921L17.0656 55.6587ZM17.4262 55.6942L19.5591 57.8271L20.1248 57.2614L17.9919 55.1285L17.4262 55.6942ZM20.1248 57.8271L22.3489 55.603L21.7832 55.0373L19.5591 57.2614L20.1248 57.8271ZM22.3489 55.0373L20.216 52.9044L19.6503 53.4701L21.7832 55.603L22.3489 55.0373ZM19.5331 53.1873V53.1899H20.3331V53.1873H19.5331ZM20.216 52.9071C20.1258 52.8169 20.1069 52.676 20.1677 52.5672L19.4693 52.177C19.2332 52.5996 19.3081 53.1306 19.6503 53.4727L20.216 52.9071ZM20.1689 52.5651C20.4512 52.0526 20.676 51.5125 20.8405 50.9505L20.0727 50.7258C19.9246 51.2316 19.7224 51.7176 19.4682 52.1791L20.1689 52.5651ZM20.845 50.9337C20.8774 50.8018 20.9931 50.7121 21.1233 50.7121V49.9121C20.618 49.9121 20.1868 50.26 20.0681 50.7427L20.845 50.9337ZM21.1233 50.7121H24.1416V49.9121H21.1233V50.7121ZM24.5416 50.3121V47.1661H23.7416V50.3121H24.5416ZM24.1416 46.7661H21.1259V47.5661H24.1416V46.7661ZM21.1259 46.7661C20.9979 46.7661 20.8849 46.6818 20.8483 46.5566L20.0804 46.7808C20.2157 47.2442 20.6392 47.5661 21.1259 47.5661V46.7661ZM20.8488 46.5583C20.6897 46.0041 20.4704 45.4695 20.1964 44.9628L19.4927 45.3433C19.7396 45.8001 19.937 46.2812 20.0799 46.7791L20.8488 46.5583ZM20.1774 44.9312C20.1013 44.817 20.1162 44.6673 20.2144 44.5702L19.6518 44.0014C19.2812 44.3679 19.2233 44.9422 19.5117 45.3749L20.1774 44.9312ZM20.2159 44.5686L22.3488 42.4358L21.7832 41.8701L19.6503 44.003L20.2159 44.5686ZM22.3488 41.8701L20.1274 39.6486L19.5617 40.2143L21.7832 42.4358L22.3488 41.8701ZM19.5617 39.6486L17.4262 41.7841L17.9919 42.3498L20.1274 40.2143L19.5617 39.6486ZM17.4262 41.7841C17.3359 41.8745 17.1989 41.8922 17.0916 41.8312L16.6962 42.5267C17.1203 42.7678 17.65 42.6918 17.9919 42.3498L17.4262 41.7841ZM17.0869 41.8286C16.574 41.5461 16.031 41.3212 15.4711 41.1593L15.2488 41.9278C15.7516 42.0732 16.2398 42.2753 16.7009 42.5293L17.0869 41.8286ZM15.4547 41.1549C15.3237 41.123 15.2324 41.0064 15.2313 40.8735L14.4313 40.8801C14.4354 41.3775 14.7765 41.813 15.2653 41.9321L15.4547 41.1549ZM15.2313 40.8768L15.2313 37.8533L14.4313 37.8533L14.4313 40.8768L15.2313 40.8768ZM11.0002 36.8783L15.516 36.8809L15.5164 36.0809L11.0006 36.0783L11.0002 36.8783ZM15.5162 36.8809C15.6755 36.8809 15.8037 37.0091 15.8037 37.1684H16.6037C16.6037 36.5673 16.1174 36.0809 15.5162 36.0809V36.8809ZM15.8037 37.1684V40.3743H16.6037V37.1684H15.8037ZM16.0495 40.7434L16.935 41.1132L17.2433 40.375L16.3579 40.0052L16.0495 40.7434ZM17.372 41.0269L19.6377 38.7612L19.072 38.1955L16.8063 40.4612L17.372 41.0269ZM19.7126 38.6573L19.7152 38.652L18.9997 38.2943L18.9971 38.2995L19.7126 38.6573ZM19.6403 38.756C19.7523 38.644 19.934 38.644 20.046 38.756L20.6117 38.1903C20.1872 37.7659 19.499 37.7659 19.0746 38.1903L19.6403 38.756ZM20.0461 38.7561L23.2416 41.949L23.807 41.3831L20.6115 38.1902L20.0461 38.7561ZM23.2414 41.9489C23.3535 42.0609 23.3535 42.2426 23.2415 42.3546L23.8071 42.9203C24.2316 42.4958 24.2316 41.8076 23.8071 41.3832L23.2414 41.9489ZM23.2414 42.3546L20.9757 44.6203L21.5414 45.186L23.8071 42.9203L23.2414 42.3546ZM20.8884 45.0547L21.253 45.9453L21.9934 45.6422L21.6288 44.7516L20.8884 45.0547ZM21.6232 46.1937H24.8291V45.3937H21.6232V46.1937ZM24.8291 46.1937C24.9884 46.1937 25.1166 46.322 25.1166 46.4812H25.9166C25.9166 45.8801 25.4302 45.3937 24.8291 45.3937V46.1937ZM25.1166 46.4812V50.9996H25.9166V46.4812H25.1166ZM25.1166 50.9996C25.1166 51.1589 24.9884 51.2871 24.8291 51.2871V52.0871C25.4302 52.0871 25.9166 51.6008 25.9166 50.9996H25.1166ZM24.8291 51.2871H21.6232V52.0871H24.8291V51.2871ZM21.2541 51.533L20.8843 52.4184L21.6225 52.7267L21.9923 51.8413L21.2541 51.533ZM20.9705 52.8554L23.2388 55.1237L23.8045 54.558L21.5362 52.2897L20.9705 52.8554ZM23.2388 55.1237C23.3509 55.2358 23.3509 55.4174 23.2389 55.5294L23.8045 56.0951C24.229 55.6707 24.229 54.9825 23.8045 54.558L23.2388 55.1237ZM23.2388 55.5294L20.0434 58.7249L20.6091 59.2906L23.8045 56.0951L23.2388 55.5294ZM20.7262 59.0077V59.0051H19.9262V59.0077H20.7262ZM20.0405 58.7251C19.9885 58.7782 19.9172 58.8083 19.8418 58.8083V59.6083C20.131 59.6083 20.4086 59.4925 20.6119 59.2851L20.0405 58.7251ZM19.8418 58.8083C19.7671 58.8083 19.6939 58.7786 19.6377 58.7223L19.072 59.288C19.2761 59.4921 19.5519 59.6083 19.8418 59.6083V58.8083ZM19.6377 58.7223L17.372 56.4566L16.8063 57.0223L19.072 59.288L19.6377 58.7223ZM16.935 56.3703L16.0495 56.7401L16.3578 57.4783L17.2433 57.1085L16.935 56.3703ZM15.8037 57.1092V60.3151H16.6037V57.1092H15.8037ZM16.6037 60.3151V60.3125H15.8037V60.3151H16.6037ZM15.8037 60.3125C15.8037 60.4718 15.6755 60.6 15.5162 60.6V61.4C16.1173 61.4 16.6037 60.9137 16.6037 60.3125H15.8037ZM15.5162 60.6H11.0004V61.4H15.5162V60.6ZM11.0004 60.6C10.8411 60.6 10.7129 60.4718 10.7129 60.3125H9.91289C9.91289 60.9136 10.3992 61.4 11.0004 61.4V60.6ZM10.7129 60.3125V57.1066H9.91289V60.3125H10.7129ZM10.467 56.7375L9.5816 56.3677L9.27329 57.1059L10.1587 57.4757L10.467 56.7375ZM9.14461 56.454L6.87631 58.7223L7.44199 59.288L9.71029 57.0197L9.14461 56.454ZM6.87631 58.7223C6.82456 58.774 6.74958 58.8056 6.67215 58.8056V59.6056C6.95932 59.6056 7.23851 59.4914 7.44199 59.288L6.87631 58.7223ZM6.67215 58.8056C6.59633 58.8056 6.52347 58.7752 6.4706 58.7223L5.90491 59.288C6.10725 59.4903 6.38336 59.6056 6.67215 59.6056V58.8056ZM6.4706 58.7223L3.27512 55.5268L2.70944 56.0925L5.90491 59.288L6.4706 58.7223ZM3.27512 55.5268C3.16309 55.4148 3.16311 55.2331 3.27511 55.1211L2.70945 54.5554C2.28498 54.9798 2.285 55.668 2.70944 56.0925L3.27512 55.5268ZM3.27512 55.1211L5.54082 52.8554L4.97514 52.2897L2.70944 54.5554L3.27512 55.1211ZM5.62708 52.4184L5.25727 51.533L4.51907 51.8413L4.88888 52.7267L5.62708 52.4184ZM4.8885 51.2871L1.68522 51.2845L1.68457 52.0845L4.88784 52.0871L4.8885 51.2871ZM1.6849 51.2845C1.5282 51.2845 1.4 51.1563 1.4 50.9996H0.6C0.6 51.5981 1.08635 52.0845 1.6849 52.0845V51.2845ZM1.4 50.9996V46.4812H0.6V50.9996H1.4ZM1.4 46.4812C1.4 46.3209 1.5292 46.1937 1.6849 46.1937V45.3937C1.08542 45.3937 0.6 45.8811 0.6 46.4812H1.4ZM1.6849 46.1937H4.89077V45.3937H1.6849V46.1937ZM5.25987 45.9479L5.62968 45.0625L4.89148 44.7541L4.52167 45.6396L5.25987 45.9479ZM5.54342 44.6255L3.27512 42.3572L2.70944 42.9228L4.97774 45.1911L5.54342 44.6255ZM3.27512 42.3572C3.16309 42.2451 3.16311 42.0635 3.27511 41.9515L2.70945 41.3858C2.28498 41.8102 2.285 42.4984 2.70944 42.9228L3.27512 42.3572ZM3.27512 41.9515L6.4706 38.756L5.90491 38.1903L2.70944 41.3858L3.27512 41.9515ZM6.4706 38.756C6.58263 38.644 6.76428 38.644 6.87627 38.756L7.44199 38.1903C7.01755 37.7658 6.32935 37.7659 5.90491 38.1903L6.4706 38.756ZM6.87629 38.756L9.14199 41.0217L9.70767 40.456L7.44197 38.1903L6.87629 38.756ZM9.57899 41.1079L10.4644 40.7381L10.1561 39.9999L9.27067 40.3697L9.57899 41.1079ZM10.7103 40.3694L10.7129 37.1687L9.91287 37.168L9.91027 40.3687L10.7103 40.3694ZM10.7129 37.1684C10.7129 37.0091 10.8411 36.8809 11.0004 36.8809V36.0809C10.3993 36.0809 9.91287 36.5672 9.91287 37.1684H10.7129ZM11.4003 36.4867L11.4004 36.4841L10.6004 36.4725L10.6004 36.475L11.4003 36.4867ZM15.9782 46.0195C17.0775 47.1188 17.4076 48.7749 16.811 50.211L17.5497 50.518C18.2709 48.7821 17.8718 46.7817 16.5439 45.4538L15.9782 46.0195ZM16.8107 50.2116C16.2163 51.6481 14.8125 52.587 13.2583 52.587V53.387C15.1365 53.387 16.8318 52.2529 17.5499 50.5174L16.8107 50.2116ZM13.2583 52.587C11.7041 52.587 10.3003 51.6481 9.70587 50.2115L8.96666 50.5174C9.68478 52.2529 11.3801 53.387 13.2583 53.387V52.587ZM9.70566 50.211C9.10902 48.7749 9.43911 47.1188 10.5384 46.0195L9.97273 45.4538C8.64485 46.7817 8.24575 48.7821 8.96687 50.518L9.70566 50.211ZM10.5384 46.0195C12.0411 44.5168 14.4755 44.5168 15.9782 46.0195L16.5439 45.4538C14.7287 43.6387 11.7879 43.6387 9.97273 45.4538L10.5384 46.0195ZM13.2609 43.5194C15.3727 43.5194 17.2764 44.7918 18.0843 46.7414L18.8234 46.4351C17.8916 44.1867 15.6962 42.7194 13.2609 42.7194V43.5194ZM18.0843 46.7414C18.8922 48.6908 18.4447 50.9381 16.9522 52.4307L17.5179 52.9964C19.2391 51.2752 19.7552 48.6837 18.8234 46.4351L18.0843 46.7414ZM16.9522 52.4307C15.4597 53.9232 13.2124 54.3706 11.2629 53.5628L10.9567 54.3018C13.2053 55.2337 15.7967 54.7176 17.5179 52.9964L16.9522 52.4307ZM11.2629 53.5628C9.31334 52.7549 8.04093 50.8511 8.04093 48.7394H7.24093C7.24093 51.1747 8.70823 53.3701 10.9567 54.3018L11.2629 53.5628ZM8.04093 48.7394C8.04093 45.856 10.3775 43.5194 13.2609 43.5194V42.7194C9.93565 42.7194 7.24093 45.4142 7.24093 48.7394H8.04093ZM40.1801 28.8794V26.7387H39.3801V28.8794H40.1801ZM40.1801 26.7387C40.1801 25.7417 39.3707 24.9324 38.3737 24.9324V25.7324C38.9289 25.7324 39.3801 26.1835 39.3801 26.7387H40.1801ZM38.3737 24.9324C37.3746 24.9324 36.5648 25.7412 36.5648 26.7387H37.3648C37.3648 26.184 37.8155 25.7324 38.3737 25.7324V24.9324ZM36.5648 26.7387V28.8794H37.3648V26.7387H36.5648ZM36.5648 28.8794C36.5648 29.8769 37.3746 30.6857 38.3737 30.6857V29.8857C37.8155 29.8857 37.3648 29.4341 37.3648 28.8794H36.5648ZM38.3737 30.6857C39.3708 30.6857 40.1801 29.8764 40.1801 28.8794H39.3801C39.3801 29.4346 38.9289 29.8857 38.3737 29.8857V30.6857ZM44.3677 28.8794V25.1579H43.5677V28.8794H44.3677ZM44.3677 25.1566C44.3644 24.1599 43.5551 23.3542 42.5588 23.3542V24.1542C43.1147 24.1542 43.5659 24.6037 43.5677 25.1593L44.3677 25.1566ZM42.5574 23.3542C41.5587 23.3575 40.7525 24.1663 40.7525 25.1631H41.5525C41.5525 24.6077 42.0015 24.1561 42.5601 24.1542L42.5574 23.3542ZM40.7525 25.1631V28.8794H41.5525V25.1631H40.7525ZM40.7525 28.8794C40.7525 29.8769 41.5623 30.6857 42.5614 30.6857V29.8857C42.0031 29.8857 41.5525 29.4341 41.5525 28.8794H40.7525ZM42.5614 30.6857C43.5584 30.6857 44.3677 29.8764 44.3677 28.8794H43.5677C43.5677 29.4346 43.1166 29.8857 42.5614 29.8857V30.6857ZM48.5554 28.8794V23.5615H47.7554V28.8794H48.5554ZM48.5554 23.5615C48.5554 22.5644 47.746 21.7551 46.749 21.7551V22.5551C47.3042 22.5551 47.7554 23.0063 47.7554 23.5615H48.5554ZM46.749 21.7551C45.7499 21.7551 44.9401 22.564 44.9401 23.5615H45.7401C45.7401 23.0068 46.1908 22.5551 46.749 22.5551V21.7551ZM44.9401 23.5615V28.882H45.7401V23.5615H44.9401ZM44.9401 28.8834C44.9434 29.8822 45.7523 30.6883 46.749 30.6883V29.8883C46.1936 29.8883 45.742 29.4393 45.7401 28.8807L44.9401 28.8834ZM46.7504 30.6883C47.7461 30.685 48.5554 29.8767 48.5554 28.8794H47.7554C47.7554 29.4343 47.3042 29.8865 46.7477 29.8883L46.7504 30.6883ZM50.9341 31.2608C50.2479 31.2608 49.5925 30.9621 49.1426 30.443L48.5381 30.967C49.1402 31.6616 50.0162 32.0608 50.9341 32.0608V31.2608ZM48.5381 30.443C48.0879 30.9622 47.4351 31.2608 46.7465 31.2608V32.0608C47.6673 32.0608 48.5406 31.6614 49.1426 30.9671L48.5381 30.443ZM46.7465 31.2608C46.0603 31.2608 45.4049 30.9621 44.9549 30.443L44.3504 30.967C44.9525 31.6616 45.8285 32.0608 46.7465 32.0608V31.2608ZM44.3504 30.443C43.9002 30.9624 43.2473 31.2608 42.5614 31.2608V32.0608C43.4798 32.0608 44.3531 31.6613 44.9549 30.9671L44.3504 30.443ZM42.5614 31.2608C41.8728 31.2608 41.22 30.9622 40.7699 30.443L40.1654 30.967C40.7673 31.6614 41.6407 32.0608 42.5614 32.0608V31.2608ZM40.1669 30.4413C39.513 31.1867 38.4669 31.4515 37.5402 31.104L37.2593 31.8531C38.4993 32.318 39.8962 31.963 40.7683 30.9688L40.1669 30.4413ZM37.5399 31.1039C36.6099 30.756 35.9946 29.8709 35.9924 28.8786L35.1924 28.8804C35.1954 30.2058 36.0177 31.3886 37.2596 31.8532L37.5399 31.1039ZM35.9924 28.8795V26.7388H35.1924V28.8795H35.9924ZM35.9924 26.7388C35.9924 25.8672 36.4695 25.0644 37.2366 24.6474L36.8546 23.9445C35.83 24.5015 35.1924 25.5739 35.1924 26.7388H35.9924ZM37.2371 24.6471C38.0013 24.2305 38.9354 24.2661 39.6664 24.7408L40.1021 24.0699C39.1248 23.4351 37.8764 23.3874 36.8541 23.9448L37.2371 24.6471ZM40.2692 24.514C40.4741 23.7881 41.0134 23.2034 41.7191 22.9355L41.4351 22.1876C40.4948 22.5446 39.7736 23.3246 39.4993 24.2967L40.2692 24.514ZM41.7176 22.936C42.4255 22.6703 43.2151 22.7531 43.8507 23.1611L44.2829 22.488C43.434 21.9429 42.3798 21.8329 41.4365 22.187L41.7176 22.936ZM44.4525 22.9306C44.6485 22.2179 45.1653 21.6382 45.8527 21.3592L45.5518 20.6179C44.635 20.99 43.9434 21.7645 43.6811 22.7185L44.4525 22.9306ZM45.8531 21.359C46.5372 21.0805 47.3135 21.1359 47.9543 21.5088L48.3567 20.8173C47.5026 20.3203 46.4663 20.2455 45.5514 20.6181L45.8531 21.359ZM48.5555 21.163V20.6812H47.7555V21.163H48.5555ZM47.7555 20.6812V20.6838H48.5555V20.6812H47.7555ZM48.5555 20.6838C48.5555 19.368 49.6215 18.3024 50.9343 18.3024V17.5024C49.1792 17.5024 47.7555 18.9266 47.7555 20.6838H48.5555ZM50.9343 18.3024C52.2499 18.3024 53.3157 19.3682 53.3157 20.6838H54.1157C54.1157 18.9264 52.6917 17.5024 50.9343 17.5024V18.3024ZM53.3157 20.6838V28.8795H54.1157V20.6838H53.3157ZM53.3157 28.8788C53.3134 30.192 52.2499 31.2564 50.9328 31.2608L50.9355 32.0608C52.6915 32.0549 54.1127 30.6349 54.1157 28.8802L53.3157 28.8788ZM50.9355 30.6857C51.9317 30.6824 52.7364 29.8768 52.7431 28.8821L51.9431 28.8767C51.9394 29.4343 51.4888 29.8839 50.9328 29.8857L50.9355 30.6857ZM52.7431 28.8794V20.6864H51.9431V28.8794H52.7431ZM52.7431 20.6864C52.7431 19.6889 51.9333 18.8801 50.9341 18.8801V19.6801C51.4924 19.6801 51.9431 20.1317 51.9431 20.6864H52.7431ZM50.9341 18.8801C49.9371 18.8801 49.1278 19.6894 49.1278 20.6864H49.9278C49.9278 20.1312 50.379 19.6801 50.9341 19.6801V18.8801ZM49.1278 20.6864V28.8794H49.9278V20.6864H49.1278ZM49.1278 28.8821C49.1345 29.8763 49.9387 30.6824 50.9328 30.6857L50.9355 29.8857C50.3826 29.8839 49.9316 29.4348 49.9278 28.8767L49.1278 28.8821ZM44.4241 38.4374C44.3036 38.5256 44.1314 38.5036 44.0371 38.3889L43.4191 38.897C43.7831 39.3395 44.4338 39.4218 44.8967 39.0829L44.4241 38.4374ZM44.0382 38.3903C43.9424 38.2727 43.954 38.0996 44.0658 37.9955L43.5206 37.41C43.1012 37.8007 43.0555 38.4507 43.418 38.8956L44.0382 38.3903ZM44.0474 38.0116L47.4799 35.1859L46.9714 34.5683L43.539 37.3939L44.0474 38.0116ZM47.5071 35.1613C47.6168 35.0526 47.7954 35.0527 47.9051 35.1613L48.4681 34.5929C48.0466 34.1755 47.3657 34.1755 46.9442 34.5929L47.5071 35.1613ZM47.9325 35.186L51.3675 38.0117L51.8757 37.3938L48.4407 34.5682L47.9325 35.186ZM51.6216 37.3028H51.619V38.1028H51.6216V37.3028ZM51.3834 38.026C51.4479 38.073 51.4886 38.1434 51.4982 38.2192L52.2919 38.1186C52.2546 37.8246 52.0975 37.5565 51.8546 37.3795L51.3834 38.026ZM51.4982 38.2185C51.5086 38.3024 51.4842 38.38 51.4398 38.4331L52.0534 38.9464C52.2486 38.7131 52.3284 38.4104 52.292 38.1193L51.4982 38.2185ZM51.4375 38.4359C51.3864 38.4981 51.313 38.5355 51.2371 38.5407L51.2925 39.3388C51.5916 39.3181 51.8672 39.1731 52.0557 38.9437L51.4375 38.4359ZM51.2371 38.5407C51.1597 38.5461 51.083 38.5192 51.0259 38.4664L50.4829 39.0538C50.7018 39.2562 50.995 39.3595 51.2925 39.3388L51.2371 38.5407ZM51.0086 38.4513L48.6517 36.5111L48.1433 37.1287L50.5002 39.0689L51.0086 38.4513ZM47.9975 36.8199V51.0598H48.7975V36.8199H47.9975ZM48.3975 50.6598H48.3949V51.4598H48.3975V50.6598ZM47.9949 51.0598C47.9949 51.2191 47.8667 51.3473 47.7074 51.3473V52.1473C48.3085 52.1473 48.7949 51.661 48.7949 51.0598H47.9949ZM47.7074 51.3473H30.634V52.1473H47.7074V51.3473ZM30.6452 51.3475C30.4907 51.3432 30.3673 51.2171 30.3673 51.0598H29.5673C29.5673 51.6473 30.0324 52.1307 30.6228 52.1472L30.6452 51.3475ZM30.3673 51.0598C30.3673 50.9061 30.4897 50.7791 30.6451 50.7748L30.6228 49.9751C30.0334 49.9915 29.5673 50.474 29.5673 51.0598H30.3673ZM30.634 50.7749H47.02V49.9749H30.634V50.7749ZM47.42 50.3749V36.8197H46.62V50.3749H47.42ZM46.7658 36.5109L44.4089 38.4511L44.9173 39.0687L47.2743 37.1285L46.7658 36.5109ZM44.629 38.3613L44.6263 38.3616L44.6945 39.1587L44.6972 39.1584L44.629 38.3613ZM9.77089 27.9096H19.3313V27.1096H9.77089V27.9096ZM19.3313 27.9096C20.0738 27.9096 20.6767 27.3053 20.6767 26.5617H19.8767C19.8767 26.8649 19.6305 27.1096 19.3313 27.1096V27.9096ZM20.6767 26.5617C20.6767 25.818 20.0738 25.2137 19.3313 25.2137V26.0137C19.6306 26.0137 19.8767 26.2584 19.8767 26.5617H20.6767ZM19.3313 25.2137H9.77089V26.0137H19.3313V25.2137ZM9.77089 25.2137C9.02651 25.2137 8.42291 25.8173 8.42291 26.5617H9.22291C9.22291 26.2591 9.46833 26.0137 9.77089 26.0137V25.2137ZM8.42291 26.5617C8.42291 27.306 9.0265 27.9096 9.77089 27.9096V27.1096C9.46832 27.1096 9.22291 26.8642 9.22291 26.5617H8.42291ZM10.0584 28.8847V29.4889H10.8584V28.8847H10.0584ZM10.3623 29.8772L14.4562 30.8902L14.6484 30.1136L10.5545 29.1006L10.3623 29.8772ZM14.6484 30.8902L18.7423 29.8772L18.5501 29.1006L14.4562 30.1136L14.6484 30.8902ZM19.0462 29.4889V28.8847H18.2462V29.4889H19.0462ZM18.6462 28.4847H10.4584V29.2847H18.6462V28.4847ZM17.2562 30.8298L14.6181 31.4808L14.8097 32.2575L17.4479 31.6065L17.2562 30.8298ZM14.6148 31.4817C14.5678 31.4937 14.5214 31.4937 14.4745 31.4817L14.2762 32.2567C14.4532 32.302 14.636 32.302 14.813 32.2567L14.6148 31.4817ZM14.4713 31.4809L11.8462 30.8324L11.6543 31.609L14.2794 32.2575L14.4713 31.4809ZM12.1502 31.2207V31.2181H11.3502V31.2207H12.1502ZM11.3879 31.3876C11.9617 32.6147 13.1944 33.3969 14.5498 33.3969V32.5969C13.504 32.5969 12.5544 31.9935 12.1126 31.0487L11.3879 31.3876ZM14.5498 33.3969C15.9029 33.3969 17.1351 32.6144 17.7114 31.3883L16.9874 31.048C16.5429 31.9938 15.5927 32.5969 14.5498 32.5969V33.3969ZM17.3488 31.6181L17.3514 31.6181L17.3527 30.8181L17.3501 30.8181L17.3488 31.6181ZM45.6439 12.952V12.9494H44.8439V12.952H45.6439ZM45.4764 12.6239C45.3465 12.5311 45.3179 12.3521 45.4096 12.2248L44.7605 11.7572C44.4094 12.2446 44.5215 12.925 45.0114 13.2749L45.4764 12.6239ZM45.4105 12.2235C45.5033 12.0936 45.6824 12.065 45.8096 12.1567L46.2772 11.5076C45.7899 11.1565 45.1095 11.2686 44.7596 11.7585L45.4105 12.2235ZM45.8102 12.1571L46.6774 12.7795L47.1439 12.1296L46.2767 11.5072L45.8102 12.1571ZM47.3023 12.3732C46.5904 8.94538 44.5353 5.94711 41.5933 4.05005L41.1598 4.72239C43.9213 6.50309 45.8506 9.3176 46.519 12.5359L47.3023 12.3732ZM41.5933 4.05004C38.6516 2.15333 35.073 1.51663 31.656 2.28229L31.8309 3.06293C35.0389 2.34412 38.3982 2.94187 41.1598 4.7224L41.5933 4.05004ZM31.6556 2.28237C28.2412 3.05069 25.2779 5.15425 23.4294 8.12837L24.1088 8.55067C25.844 5.75894 28.6257 3.78419 31.8313 3.06285L31.6556 2.28237ZM23.4146 8.52477C24.6617 10.9113 24.8946 13.6986 24.0632 16.2576L24.824 16.5048C25.7219 13.7414 25.4704 10.7315 24.1236 8.15427L23.4146 8.52477ZM24.0633 16.2573C23.2293 18.8169 21.401 20.9357 18.9919 22.1327L19.3479 22.8491C21.9496 21.5564 23.9235 19.2687 24.8239 16.5051L24.0633 16.2573ZM18.7699 22.4909V24.2384H19.5699V22.4909H18.7699ZM19.1699 24.6384H19.3262V23.8384H19.1699V24.6384ZM19.3253 24.6383C20.2739 24.6405 21.0797 25.3346 21.2197 26.274L22.011 26.156C21.8125 24.8244 20.6703 23.8414 19.3271 23.8384L19.3253 24.6383ZM21.2199 26.275C21.3622 27.2128 20.7995 28.1135 19.8946 28.3958L20.1329 29.1595C21.4155 28.7593 22.2123 27.4828 22.0108 26.155L21.2199 26.275ZM19.6137 28.7776V30.0225H20.4137V28.7776H19.6137ZM19.6137 30.0225C19.6137 30.1645 19.5113 30.2827 19.3777 30.305L19.5091 31.0941C20.0317 31.0071 20.4137 30.5524 20.4137 30.0225H19.6137ZM19.3464 30.3115L18.7734 30.4547L18.9675 31.2309L19.5404 31.0876L19.3464 30.3115ZM18.4756 30.7791C17.9934 33.7654 14.1213 35.072 11.7792 32.9134L11.237 33.5016C14.015 36.0619 18.6745 34.5664 19.2653 30.9066L18.4756 30.7791ZM11.7777 32.912C11.1621 32.3504 10.7553 31.5982 10.6188 30.7772L9.82962 30.9084C9.99531 31.9052 10.4896 32.8197 11.2385 33.503L11.7777 32.912ZM10.3205 30.4546L9.70063 30.3009L9.50814 31.0774L10.128 31.231L10.3205 30.4546ZM9.69985 30.3007C9.5734 30.2696 9.48353 30.1555 9.48353 30.0224H8.68353C8.68353 30.5196 9.02076 30.9576 9.50892 31.0776L9.69985 30.3007ZM9.48353 30.0224V28.7776H8.68353V30.0224H9.48353ZM9.20238 28.3957C8.29451 28.1132 7.72988 27.2122 7.87215 26.2722L7.08116 26.1525C6.87969 27.4836 7.67978 28.7597 8.96468 29.1595L9.20238 28.3957ZM7.87213 26.2724C8.01433 25.3351 8.82042 24.6405 9.77193 24.6383L9.77012 23.8383C8.42474 23.8414 7.28275 24.8239 7.08118 26.1523L7.87213 26.2724ZM9.77103 24.6383H9.92729V23.8383H9.77103V24.6383ZM10.3273 24.2383V22.4961H9.52729V24.2383H10.3273ZM10.1051 22.1378C7.3504 20.7704 5.37714 18.2136 4.75359 15.2039L3.97023 15.3662C4.64367 18.6167 6.77472 21.3778 9.74944 22.8543L10.1051 22.1378ZM4.75359 15.2039C4.13004 12.1939 4.92389 9.0637 6.90967 6.71494L6.29875 6.19843C4.15412 8.73509 3.29684 12.1156 3.97023 15.3662L4.75359 15.2039ZM6.90983 6.71474C8.89299 4.36601 11.8478 3.06128 14.9206 3.17399L14.9499 2.37453C11.6319 2.25282 8.44067 3.66168 6.29858 6.19863L6.90983 6.71474ZM14.9206 3.17399C17.9931 3.28667 20.8428 4.80667 22.6485 7.29579L23.296 6.82603C21.346 4.13786 18.2683 2.49623 14.9499 2.37453L14.9206 3.17399ZM23.3015 7.28805C25.3331 4.34309 28.44 2.31658 31.9513 1.64364L31.8007 0.857941C28.0832 1.5704 24.7939 3.71594 22.643 6.83378L23.3015 7.28805ZM31.9512 1.64365C35.4656 0.970612 39.1011 1.7044 42.0764 3.69038L42.5205 3.02499C39.3702 0.922194 35.5211 0.145444 31.8007 0.857932L31.9512 1.64365ZM42.0766 3.69051C45.0519 5.67403 47.129 8.74796 47.8576 12.2522L48.6409 12.0893C47.8694 8.37933 45.6703 5.12485 42.5203 3.02486L42.0766 3.69051ZM48.5744 12.4036L49.1396 11.6145L48.4892 11.1487L47.924 11.9378L48.5744 12.4036ZM49.1418 11.6114C49.1842 11.551 49.2506 11.5095 49.3227 11.498L49.1967 10.708C48.9094 10.7538 48.6529 10.9154 48.4869 11.1519L49.1418 11.6114ZM49.3227 11.498C49.4012 11.4855 49.4789 11.5042 49.5392 11.5475L50.0063 10.8981C49.7697 10.7278 49.4776 10.6632 49.1967 10.708L49.3227 11.498ZM49.5389 11.5473C49.6669 11.6395 49.6973 11.8174 49.6035 11.9487L50.2545 12.4136C50.6034 11.9251 50.4932 11.2488 50.0065 10.8982L49.5389 11.5473ZM49.6039 11.9481L48.0466 14.12L48.6967 14.5862L50.2541 12.4142L49.6039 11.9481ZM48.0458 14.1211C47.9565 14.2466 47.7782 14.2774 47.6497 14.1848L47.1821 14.8339C47.6682 15.1841 48.3493 15.0742 48.6975 14.5851L48.0458 14.1211ZM47.649 14.1843L45.477 12.6269L45.0108 13.2771L47.1828 14.8344L47.649 14.1843ZM10.2624 16.3037C10.2624 16.1981 10.3194 16.1026 10.4095 16.0539L10.0288 15.3503C9.67614 15.5411 9.46236 15.9092 9.46236 16.3037H10.2624ZM10.4113 16.0529C10.503 16.0027 10.6146 16.0066 10.701 16.0621L11.1332 15.3889C10.7977 15.1736 10.3728 15.1619 10.027 15.3512L10.4113 16.0529ZM10.7179 16.0724L14.3509 18.1584L14.7492 17.4647L11.1163 15.3786L10.7179 16.0724ZM14.7492 18.1584L18.3822 16.0724L17.9838 15.3786L14.3509 17.4647L14.7492 18.1584ZM18.3991 16.0621C18.4848 16.0071 18.5972 16.0019 18.6932 16.0539L19.074 15.3503C18.7272 15.1627 18.3031 15.1731 17.9669 15.3889L18.3991 16.0621ZM18.6915 16.0529C18.7826 16.1028 18.8404 16.2004 18.8404 16.3037H19.6404C19.6404 15.9069 19.4222 15.541 19.0757 15.3512L18.6915 16.0529ZM18.8404 16.3037V19.4366H19.6404V16.3037H18.8404ZM18.8404 19.4366C18.8404 19.5959 18.7122 19.7241 18.5529 19.7241V20.5241C19.154 20.5241 19.6404 20.0378 19.6404 19.4366H18.8404ZM18.5529 19.7241C18.3936 19.7241 18.2654 19.5959 18.2654 19.4366H17.4654C17.4654 20.0377 17.9517 20.5241 18.5529 20.5241V19.7241ZM18.2654 19.4366V17.4886H17.4654V19.4366H18.2654ZM17.666 17.1418L15.0383 18.6523L15.437 19.3458L18.0647 17.8354L17.666 17.1418ZM14.8377 18.9991V24.2389H15.6377V18.9991H14.8377ZM15.2377 24.6389H17.7976V23.8389H15.2377V24.6389ZM18.1976 24.2389V22.0617H17.3976V24.2389H18.1976ZM18.1976 22.0655C18.1988 21.9471 18.2664 21.8441 18.3726 21.7965L18.0456 21.0664C17.6518 21.2428 17.4017 21.6294 17.3977 22.0579L18.1976 22.0655ZM18.371 21.7973C22.445 19.9942 24.7023 15.5857 23.783 11.2258L23.0002 11.3909C23.8415 15.3809 21.7757 19.4156 18.0472 21.0657L18.371 21.7973ZM23.7831 11.2261C22.8665 6.86649 19.0238 3.74175 14.5667 3.7334L14.5652 4.5334C18.6446 4.54104 22.1614 7.40096 23.0002 11.3907L23.7831 11.2261ZM14.5666 3.7334C10.1118 3.72524 6.25804 6.83647 5.32309 11.1931L6.10528 11.361C6.96106 7.37325 10.4884 4.52593 14.5652 4.5334L14.5666 3.7334ZM5.32305 11.1933C4.39026 15.5501 6.63121 19.9642 10.6996 21.7833L11.0262 21.053C7.30246 19.388 5.25163 15.3481 6.10532 11.3608L5.32305 11.1933ZM10.72 21.7918C10.8291 21.8335 10.903 21.9389 10.903 22.0614H11.703C11.703 21.611 11.428 21.206 11.0057 21.0445L10.72 21.7918ZM10.903 22.0614V24.2386H11.703V22.0614H10.903ZM11.303 24.6386H13.863V23.8386H11.303V24.6386ZM14.263 24.2386V18.9987H13.463V24.2386H14.263ZM14.0621 18.6518L11.4343 17.1439L11.0362 17.8378L13.6639 19.3457L14.0621 18.6518ZM10.8353 17.4909V19.4389H11.6353V17.4909H10.8353ZM10.8353 19.4389C10.8353 19.5966 10.7061 19.7264 10.5478 19.7264V20.5264C11.1498 20.5264 11.6353 20.0365 11.6353 19.4389H10.8353ZM10.5478 19.7264C10.3895 19.7264 10.2603 19.5966 10.2603 19.4389H9.46027C9.46027 20.0364 9.94564 20.5264 10.5478 20.5264V19.7264ZM10.2603 19.4392L10.2624 16.3039L9.46236 16.3034L9.46027 19.4386L10.2603 19.4392Z" fill="#0CB4C4" mask="url(#path-1-outside-1_3829_168)"></path></svg>