<svg width="60" height="60" viewBox="0 0 60 60" fill="none" xmlns="http://www.w3.org/2000/svg"><path d="M51.2903 21.2903H57.0968C58.6974 21.2903 60 19.9877 60 18.3871V2.90323C60 1.30258 58.6974 0 57.0968 0H31.9355C30.3348 0 29.0323 1.30258 29.0323 2.90323V10.6452H26.399L25.5581 13.1671C24.0474 13.5648 22.5997 14.1658 21.2419 14.9594L19.3548 14.0148V0H0V21.2903H14.9332C14.1542 22.6345 13.561 24.0658 13.1681 25.5581L10.6452 26.399V32.9032H2.90323C1.30258 32.9032 0 34.2058 0 35.8065V51.2903C0 52.891 1.30258 54.1936 2.90323 54.1936H8.70968V54.36C8.70968 55.7381 8.21323 57.0377 7.31516 58.0645H4.83871V60H26.129V58.0645H23.6526C22.7545 57.0368 22.2581 55.7381 22.2581 54.36V54.1936H28.0645C29.6652 54.1936 30.9677 52.891 30.9677 51.2903V49.3548H33.601L34.4419 46.8329C35.9526 46.4352 37.4003 45.8342 38.7581 45.0406L40.6452 45.9852V60H60V38.7097H45.0668C45.8458 37.3655 46.439 35.9342 46.8319 34.4419L49.3548 33.601V27.0968H55.1613V25.1613H52.6848C51.7868 24.1335 51.2903 22.8348 51.2903 21.4568V21.2903ZM57.0968 19.3548H31.9355C31.4023 19.3548 30.9677 18.9213 30.9677 18.3871V15.4839H58.0645V18.3871C58.0645 18.9213 57.63 19.3548 57.0968 19.3548ZM36.3474 25.1613H33.871V27.0968H41.2403C41.4842 28.0403 41.6129 29.0129 41.6129 30C41.6129 36.0774 36.9184 41.069 30.9677 41.5636V35.8065C30.9677 34.2058 29.6652 32.9032 28.0645 32.9032H18.7597C18.5158 31.9587 18.3871 30.9861 18.3871 30C18.3871 23.9216 23.0835 18.9281 29.0371 18.4355C29.0642 20.0139 30.3513 21.2903 31.9355 21.2903H37.7419V21.4568C37.7419 22.8348 37.2455 24.1335 36.3474 25.1613ZM31.9355 1.93548H57.0968C57.63 1.93548 58.0645 2.36903 58.0645 2.90323V13.5484H30.9677V2.90323C30.9677 2.36903 31.4023 1.93548 31.9355 1.93548ZM1.93548 1.93548H17.4194V15.209L15.4839 17.1445V11.6129H3.87097V17.4194H15.209L13.7681 18.8603L14.0148 19.3548H1.93548V1.93548ZM13.5484 13.5484V15.4839H5.80645V13.5484H13.5484ZM12.5806 27.7945L14.8006 27.0542L14.9216 26.5239C15.3048 24.8545 15.9648 23.2655 16.8823 21.8003L17.1706 21.3387L16.1226 19.2416L19.2416 16.1216L21.3397 17.1706L21.8003 16.8823C23.2655 15.9648 24.8545 15.3048 26.5239 14.9216L27.0532 14.7997L27.7945 12.5806H29.0323V16.501C22.0132 17.0003 16.4516 22.8561 16.4516 30C16.4516 30.9823 16.5639 31.9529 16.7719 32.9032H12.5806V27.7945ZM2.90323 34.8387H28.0645C28.5977 34.8387 29.0323 35.2723 29.0323 35.8065V46.4516H1.93548V35.8065C1.93548 35.2723 2.37 34.8387 2.90323 34.8387ZM21.2932 58.0645H9.67452C10.3045 56.9458 10.6452 55.68 10.6452 54.36V54.1936H20.3226V54.36C20.3226 55.68 20.6632 56.9458 21.2932 58.0645ZM28.0645 52.2581H2.90323C2.37 52.2581 1.93548 51.8245 1.93548 51.2903V48.3871H29.0323V51.2903C29.0323 51.8245 28.5977 52.2581 28.0645 52.2581ZM58.0645 58.0645H42.5806V44.7919L44.5161 42.8555V48.3871H56.129V42.5806H44.791L46.2319 41.1397L45.9852 40.6452H58.0645V58.0645ZM46.4516 46.4516V44.5161H54.1936V46.4516H46.4516ZM47.4194 32.2055L45.1994 32.9458L45.0784 33.4761C44.6952 35.1455 44.0352 36.7345 43.1177 38.1997L42.8294 38.6613L43.8774 40.7584L40.7584 43.8784L38.6603 42.8294L38.1997 43.1177C36.7345 44.0352 35.1455 44.6952 33.4761 45.0784L32.9468 45.2003L32.2055 47.4194H30.9677V43.499C37.9868 42.9997 43.5484 37.1439 43.5484 30C43.5484 29.0168 43.4361 28.0461 43.229 27.0968H47.4194V32.2055ZM38.7068 25.1613C39.3368 24.0426 39.6774 22.7768 39.6774 21.4568V21.2903H49.3548V21.4568C49.3548 22.7768 49.6955 24.0426 50.3255 25.1613H38.7068Z" fill="#0CB4C4"></path><path d="M56.129 50.3226H44.5161V52.2581H56.129V50.3226Z" fill="#0CB4C4"></path><path d="M46.4516 54.1935H44.5161V56.129H46.4516V54.1935Z" fill="#0CB4C4"></path><path d="M56.129 54.1935H48.3871V56.129H56.129V54.1935Z" fill="#0CB4C4"></path><path d="M15.4839 7.74193H3.87096V9.67742H15.4839V7.74193Z" fill="#0CB4C4"></path><path d="M15.4839 3.87096H13.5484V5.80645H15.4839V3.87096Z" fill="#0CB4C4"></path><path d="M11.6129 3.87096H3.87096V5.80645H11.6129V3.87096Z" fill="#0CB4C4"></path><path d="M39.6184 31.0693C39.6571 30.718 39.6774 30.3619 39.6774 29.9999C39.6774 29.637 39.6571 29.278 39.6174 28.9248L37.6945 29.1406C37.7255 29.4212 37.7419 29.7086 37.7419 29.9999C37.7419 30.2902 37.7255 30.5767 37.6945 30.8583L39.6184 31.0693Z" fill="#0CB4C4"></path><path d="M39.1481 33.1645L37.3181 32.5325C37.1313 33.0745 36.8826 33.5951 36.5797 34.0819L38.2229 35.1048C38.6023 34.4941 38.9129 33.8419 39.1481 33.1645Z" fill="#0CB4C4"></path><path d="M36.8971 36.7887L35.5171 35.432C35.1484 35.8065 34.739 36.1452 34.3006 36.4384L35.3768 38.0468C35.9245 37.681 36.4355 37.2571 36.8971 36.7887Z" fill="#0CB4C4"></path></svg>