<svg aria-labelledby="svgTitle" xmlns="http://www.w3.org/2000/svg" xmlns:xlink="http://www.w3.org/1999/xlink" version="1.1" id="Layer_1" x="0px" y="0px" width="70.283px" height="60px" viewBox="0 0 70.283 60" style="enable-background:new 0 0 70.283 60;" xml:space="preserve"><title id="svgTitle">Data Backup &amp; Recovery Integrations</title><g><path style="fill:#0CB4C4;" d="M55.888,60c-7.938,0-14.396-6.458-14.396-14.396c0-7.938,6.459-14.396,14.396-14.396 s14.396,6.458,14.396,14.396C70.283,53.542,63.825,60,55.888,60z M55.888,33.322c-6.773,0-12.282,5.51-12.282,12.282 c0,6.772,5.509,12.282,12.282,12.282c6.772,0,12.282-5.51,12.282-12.282C68.17,38.832,62.66,33.322,55.888,33.322z M9.362,52.018 C4.2,52.018,0,47.818,0,42.656c0-3.364,1.808-6.493,4.718-8.167l0.304-0.174L4.718,34.14C1.808,32.467,0,29.365,0,26.045 c0-3.364,1.808-6.493,4.718-8.167l0.304-0.174l-0.304-0.174C1.808,15.855,0,12.753,0,9.434V9.291C0,4.167,4.168,0,9.291,0h39.622 c5.122,0,9.29,4.167,9.29,9.291v0.144c0,3.333-1.78,6.407-4.645,8.022l-0.308,0.174l0.307,0.176 c2.91,1.673,4.718,4.775,4.718,8.095c0,0.603-0.49,1.093-1.094,1.093c-0.634,0-1.093-0.429-1.093-1.021 c0-4.036-3.252-7.32-7.248-7.32H9.291c-3.996,0-7.248,3.251-7.248,7.249c0,4.036,3.252,7.32,7.248,7.32H39.42 c0.544,0,1.093,0.293,1.093,0.949c0,0.613-0.48,1.093-1.093,1.093H9.291c-3.996,0-7.248,3.251-7.248,7.249 c0,4.036,3.252,7.32,7.248,7.32h27.182c0.603,0,1.093,0.49,1.093,1.093s-0.49,1.093-1.093,1.093H9.362z M9.219,2.114 c-3.957,0-7.176,3.22-7.176,7.177v0.144c0,3.957,3.219,7.177,7.176,7.177h39.694c1.934,0,3.743-0.759,5.096-2.137 c1.33-1.355,2.043-3.146,2.008-5.043v-0.14c0-3.957-3.219-7.177-7.176-7.177H9.219z M53.73,50.868 c-0.294,0-0.531-0.111-0.794-0.373l-3.804-4.164c-0.364-0.426-0.364-1.028,0.005-1.459l3.806-4.166 c0.22-0.22,0.521-0.349,0.819-0.349c0.265,0,0.503,0.098,0.688,0.284c0.213,0.213,0.339,0.485,0.354,0.768 c0.015,0.283-0.085,0.547-0.284,0.745l-2.178,2.429h9.153c0.592,0,1.093,0.468,1.093,1.021c0,0.603-0.49,1.093-1.093,1.093h-9.165 l2.185,2.352c0.409,0.41,0.379,1.074-0.065,1.518C54.277,50.741,53.974,50.868,53.73,50.868z M14.756,44.252 c-0.889,0-1.669-0.779-1.669-1.668s0.78-1.668,1.669-1.668c0.936,0,1.668,0.732,1.668,1.668S15.691,44.252,14.756,44.252z M28.49,43.749c-0.604,0-1.093-0.49-1.093-1.093c0-0.603,0.489-1.093,1.093-1.093h7.623c0.612,0,1.092,0.48,1.092,1.093 s-0.479,1.093-1.092,1.093H28.49z M14.756,27.641c-0.889,0-1.669-0.779-1.669-1.668s0.78-1.668,1.669-1.668 c0.936,0,1.668,0.733,1.668,1.668S15.691,27.641,14.756,27.641z M28.49,27.138c-0.604,0-1.093-0.49-1.093-1.093 s0.489-1.093,1.093-1.093h16.827c0.612,0,1.092,0.48,1.092,1.093s-0.479,1.093-1.092,1.093H28.49z M14.828,11.031 c-0.889,0-1.668-0.78-1.668-1.668c0-0.936,0.732-1.668,1.668-1.668c0.937,0,1.669,0.732,1.669,1.668S15.765,11.031,14.828,11.031z M28.49,10.455c-0.604,0-1.093-0.49-1.093-1.093S27.887,8.27,28.49,8.27h16.754c0.636,0.064,1.095,0.514,1.095,1.093 c0,0.613-0.481,1.093-1.095,1.093H28.49z"></path></g></svg>