<svg aria-labelledby="svgTitle" xmlns="http://www.w3.org/2000/svg" xmlns:xlink="http://www.w3.org/1999/xlink" version="1.1" id="Layer_1" x="0px" y="0px" width="75.349px" height="60px" viewBox="0 0 75.349 60" style="enable-background:new 0 0 75.349 60;" xml:space="preserve"><title id="svgTitle">Data Protection</title><g><path style="fill:#0CB4C4;" d="M21.973,60c-0.565,0-1.025-0.46-1.025-1.024c0-0.565,0.459-1.025,1.025-1.025 c5.65,0,6.03-3.092,6.055-3.444l0.545-5.86H2.793C1.253,48.646,0,47.392,0,45.852V2.793C0,1.253,1.253,0,2.793,0h62.67 c1.54,0,2.793,1.253,2.793,2.793v22.978l0.074,0.086c1.105,1.274,1.715,2.896,1.715,4.565v4.083h4.28c0.273,0,0.53,0.106,0.724,0.3 c0.193,0.194,0.299,0.451,0.299,0.726v19.021c0,0.564-0.459,1.024-1.024,1.024H51.81c-0.564,0-1.024-0.46-1.024-1.024v-5.906h-11.1 l0.541,5.81c0.041,0.578,0.525,3.495,6.06,3.495c0.564,0,1.024,0.46,1.024,1.025C47.31,59.54,46.85,60,46.286,60H21.973z M30.059,54.765c-0.042,0.35-0.251,1.535-1.209,2.689l-0.412,0.496h11.388l-0.411-0.496c-1.151-1.39-1.229-2.855-1.23-2.87 l-0.555-5.938h-7L30.059,54.765z M52.834,53.527h20.466V36.553H52.834V53.527z M2.049,45.852c0,0.41,0.334,0.745,0.745,0.745 h47.994l-0.001-5.857H2.049V45.852z M2.793,2.049c-0.411,0-0.745,0.334-0.745,0.745v35.896h48.738V35.53 c0-0.565,0.459-1.025,1.023-1.025h4.281v-4.083c0-3.847,3.13-6.976,6.978-6.976c0.942,0,1.856,0.186,2.718,0.551l0.421,0.179V2.793 c0-0.411-0.334-0.745-0.745-0.745H2.793z M63.069,25.494c-2.718,0-4.929,2.21-4.929,4.928v4.083h9.857v-4.083 C67.997,27.705,65.786,25.494,63.069,25.494z M38.413,32.664c-0.262,0-0.511-0.1-0.703-0.28c-0.411-0.388-0.429-1.036-0.042-1.448 l9.109-9.646l-9.109-9.653c-0.387-0.41-0.368-1.06,0.043-1.447c0.19-0.18,0.44-0.279,0.702-0.279c0.286,0,0.549,0.114,0.744,0.321 l9.773,10.355c0.373,0.395,0.373,1.012,0,1.406l-9.774,10.352C38.962,32.55,38.698,32.664,38.413,32.664z M20.996,32.664 c-0.284,0-0.549-0.114-0.745-0.321l-9.772-10.354c-0.372-0.395-0.372-1.013,0-1.407l9.772-10.352c0.195-0.207,0.46-0.32,0.745-0.32 c0.262,0,0.512,0.099,0.703,0.279c0.41,0.387,0.429,1.038,0.042,1.449l-9.11,9.648l9.109,9.651 c0.388,0.412,0.369,1.061-0.041,1.449C21.508,32.564,21.258,32.664,20.996,32.664z M25.783,32.53c-0.123,0-0.247-0.023-0.369-0.069 c-0.526-0.202-0.79-0.795-0.587-1.322l7.844-20.437c0.15-0.393,0.535-0.656,0.957-0.656c0.125,0,0.248,0.022,0.367,0.067 c0.525,0.203,0.79,0.796,0.588,1.324L26.74,31.872C26.586,32.271,26.21,32.53,25.783,32.53z"></path></g></svg>