<svg aria-labelledby="svgTitle" xmlns="http://www.w3.org/2000/svg" xmlns:xlink="http://www.w3.org/1999/xlink" version="1.1" id="Layer_1" x="0px" y="0px" width="54.915px" height="60px" viewBox="0 0 54.915 60" style="enable-background:new 0 0 54.915 60;" xml:space="preserve"><title id="svgTitle">Backup-as-a-Service (BaaS)</title><g><path style="fill:#0CB4C4;" d="M5.391,60C2.418,60,0,57.617,0,54.688V5.313C0,2.383,2.418,0,5.391,0h44.134 c2.973,0,5.391,2.383,5.391,5.313v49.375c0,2.929-2.418,5.313-5.391,5.313H5.391z M5.391,1.892c-1.943,0-3.464,1.502-3.464,3.42 v49.375c0,1.886,1.554,3.42,3.464,3.42h44.134c1.943,0,3.464-1.502,3.464-3.42V5.313c0-1.886-1.554-3.42-3.464-3.42h-7.856v8.517 c0,2.126-1.753,3.855-3.908,3.855H17.154c-2.154,0-3.907-1.729-3.907-3.855V1.892H5.391z M15.174,10.409 c0,1.083,0.888,1.963,1.98,1.963H37.76c1.092,0,1.981-0.88,1.981-1.963V1.892H15.174V10.409z M22.992,46.687 c-0.296,0-0.571-0.13-0.755-0.358l-8.781-10.847c-0.159-0.197-0.232-0.442-0.204-0.691c0.028-0.251,0.153-0.477,0.354-0.635 c0.173-0.137,0.382-0.209,0.604-0.209c0.296,0,0.571,0.13,0.755,0.357l8.107,10.015l19.543-19.313 c0.183-0.18,0.425-0.279,0.684-0.279c0.258,0,0.501,0.099,0.683,0.279c0.369,0.362,0.374,0.955,0.013,1.322l-20.32,20.08 C23.492,46.588,23.25,46.687,22.992,46.687z"></path></g></svg>