<svg aria-labelledby="svgTitle" xmlns="http://www.w3.org/2000/svg" xmlns:xlink="http://www.w3.org/1999/xlink" version="1.1" id="Layer_1" x="0px" y="0px" width="82.867px" height="60px" viewBox="0 0 82.867 60" style="enable-background:new 0 0 82.867 60;" xml:space="preserve"><title id="svgTitle">Cyber Resilience Solutions</title><g><path style="fill:#0CB4C4;" d="M6.342,53.061c-0.585,0-1.061-0.475-1.061-1.06V1.06C5.281,0.475,5.757,0,6.342,0h70.183 c0.585,0,1.061,0.475,1.061,1.06V52c0,0.585-0.476,1.06-1.061,1.06H6.342z M7.401,50.94h68.063V2.12H7.401V50.94z"></path><path style="fill:#0CB4C4;" d="M8,60c-4.412,0-8-3.588-8-8c0-0.584,0.475-1.06,1.06-1.06h80.748c0.585,0,1.06,0.476,1.06,1.06 c0,4.411-3.588,8-8,8H8z M2.266,53.307C2.869,55.957,5.281,57.88,8,57.88h66.867c2.719,0,5.131-1.923,5.734-4.573l0.056-0.247H2.21 L2.266,53.307z"></path><path style="fill:#0CB4C4;" d="M41.434,43.386c-0.146,0-0.297-0.032-0.434-0.093c-0.497-0.222-12.201-5.527-12.201-12.543V18.005 c0-0.311,0.136-0.605,0.372-0.808c0.192-0.163,0.436-0.252,0.688-0.252c0.056,0,0.112,0.004,0.167,0.013 c0.665,0.106,1.34,0.161,2.007,0.161c2.746,0,5.646-0.918,8.865-2.806c0.162-0.096,0.348-0.146,0.535-0.146 c0.188,0,0.375,0.05,0.538,0.146c3.214,1.888,6.112,2.806,8.862,2.806c0.667,0,1.342-0.054,2.007-0.161 c0.059-0.01,0.116-0.015,0.173-0.015c0.248,0,0.49,0.09,0.684,0.254c0.235,0.202,0.371,0.496,0.371,0.807V30.75 c0,7.017-11.703,12.321-12.2,12.543C41.73,43.354,41.58,43.386,41.434,43.386z M30.919,30.75c0,4.232,6.555,8.507,10.427,10.366 l0.088,0.042l0.088-0.042c3.872-1.863,10.427-6.143,10.427-10.366V19.198l-0.214,0.013c-0.285,0.017-0.571,0.025-0.856,0.025 c-2.985,0-6.043-0.893-9.346-2.73l-0.099-0.055l-0.099,0.055c-3.306,1.842-6.342,2.737-9.283,2.737 c-0.307,0-0.612-0.01-0.918-0.029L30.919,19.2V30.75z"></path><path style="fill:#0CB4C4;" d="M38.751,33.638c-0.284,0-0.55-0.11-0.749-0.311l-2.237-2.236c-0.413-0.414-0.413-1.086,0-1.499 c0.201-0.2,0.466-0.311,0.749-0.311s0.55,0.111,0.751,0.311l1.486,1.486l6.852-6.852c0.201-0.201,0.467-0.311,0.75-0.311 s0.548,0.11,0.749,0.311c0.2,0.201,0.312,0.467,0.312,0.75c0,0.283-0.111,0.55-0.312,0.75L39.5,33.327 C39.303,33.524,39.03,33.638,38.751,33.638z"></path><path style="fill:#0CB4C4;" d="M20.815,23.303c-0.585,0-1.061-0.475-1.061-1.06v-4.909c0-0.584,0.476-1.06,1.061-1.06 s1.06,0.476,1.06,1.06v3.848h7.983c0.585,0,1.061,0.476,1.061,1.061s-0.476,1.06-1.061,1.06H20.815z"></path><path style="fill:#0CB4C4;" d="M20.815,42.842c-0.585,0-1.061-0.476-1.061-1.061V36.48c0-0.585,0.476-1.061,1.061-1.061h11.937 c0.585,0,1.06,0.476,1.06,1.061c0,0.584-0.475,1.06-1.06,1.06H21.875v4.242C21.875,42.366,21.4,42.842,20.815,42.842z"></path><path style="fill:#0CB4C4;" d="M16.888,29.837c-0.585,0-1.06-0.476-1.06-1.061s0.475-1.06,1.06-1.06h12.971 c0.585,0,1.061,0.475,1.061,1.06s-0.476,1.061-1.061,1.061H16.888z"></path><path style="fill:#0CB4C4;" d="M20.815,18.395c-1.693,0-3.072-1.378-3.072-3.073c0-1.694,1.379-3.073,3.072-3.073 c1.694,0,3.072,1.378,3.072,3.073C23.888,17.017,22.51,18.395,20.815,18.395z M20.815,14.369c-0.524,0-0.952,0.428-0.952,0.953 c0,0.525,0.428,0.953,0.952,0.953c0.525,0,0.953-0.427,0.953-0.953C21.769,14.797,21.341,14.369,20.815,14.369z"></path><path style="fill:#0CB4C4;" d="M14.679,31.849c-1.693,0-3.072-1.378-3.072-3.073s1.379-3.073,3.072-3.073 c1.694,0,3.072,1.378,3.072,3.073S16.373,31.849,14.679,31.849z M14.679,27.824c-0.524,0-0.952,0.428-0.952,0.953 s0.428,0.953,0.952,0.953c0.525,0,0.953-0.428,0.953-0.953S15.204,27.824,14.679,27.824z"></path><path style="fill:#0CB4C4;" d="M20.815,47.014c-1.693,0-3.072-1.378-3.072-3.073c0-1.695,1.379-3.073,3.072-3.073 c1.694,0,3.072,1.378,3.072,3.073C23.888,45.636,22.51,47.014,20.815,47.014z M20.815,42.989c-0.524,0-0.952,0.427-0.952,0.953 c0,0.525,0.428,0.953,0.952,0.953c0.525,0,0.953-0.428,0.953-0.953C21.769,43.416,21.341,42.989,20.815,42.989z"></path><path style="fill:#0CB4C4;" d="M53.008,23.303c-0.585,0-1.06-0.475-1.06-1.06s0.475-1.061,1.06-1.061h7.983v-3.848 c0-0.584,0.476-1.06,1.061-1.06s1.06,0.476,1.06,1.06v4.909c0,0.585-0.475,1.06-1.06,1.06H53.008z"></path><path style="fill:#0CB4C4;" d="M62.052,42.842c-0.585,0-1.061-0.476-1.061-1.061V37.54H50.114c-0.584,0-1.059-0.475-1.059-1.06 c0-0.585,0.475-1.061,1.059-1.061h11.938c0.585,0,1.06,0.476,1.06,1.061v5.301C63.111,42.366,62.637,42.842,62.052,42.842z"></path><path style="fill:#0CB4C4;" d="M53.008,29.837c-0.585,0-1.06-0.476-1.06-1.061s0.475-1.06,1.06-1.06h12.971 c0.585,0,1.061,0.475,1.061,1.06s-0.476,1.061-1.061,1.061H53.008z"></path><path style="fill:#0CB4C4;" d="M62.052,18.395c-1.695,0-3.073-1.378-3.073-3.073c0-1.694,1.378-3.073,3.073-3.073 c1.693,0,3.072,1.378,3.072,3.073C65.124,17.017,63.745,18.395,62.052,18.395z M62.052,14.369c-0.525,0-0.953,0.428-0.953,0.953 c0,0.525,0.428,0.953,0.953,0.953c0.524,0,0.952-0.427,0.952-0.953C63.004,14.797,62.576,14.369,62.052,14.369z"></path><path style="fill:#0CB4C4;" d="M68.188,31.849c-1.695,0-3.073-1.378-3.073-3.073s1.378-3.073,3.073-3.073 c1.693,0,3.072,1.378,3.072,3.073S69.882,31.849,68.188,31.849z M68.188,27.824c-0.525,0-0.953,0.428-0.953,0.953 s0.428,0.953,0.953,0.953c0.524,0,0.951-0.428,0.951-0.953S68.713,27.824,68.188,27.824z"></path><path style="fill:#0CB4C4;" d="M62.052,47.014c-1.695,0-3.073-1.378-3.073-3.073c0-1.695,1.378-3.073,3.073-3.073 c1.693,0,3.072,1.378,3.072,3.073C65.124,45.636,63.745,47.014,62.052,47.014z M62.052,42.989c-0.525,0-0.953,0.427-0.953,0.953 c0,0.525,0.428,0.953,0.953,0.953c0.524,0,0.952-0.428,0.952-0.953C63.004,43.416,62.576,42.989,62.052,42.989z"></path></g></svg>