<svg version="1.1" id="Layer_1" xmlns="http://www.w3.org/2000/svg" xmlns:xlink="http://www.w3.org/1999/xlink" x="0px" y="0px" width="58.8px" height="60px" viewBox="0 0 58.8 60" enable-background="new 0 0 58.8 60" xml:space="preserve"><g transform="translate(0,-952.36218)"><path fill="#0CB4C4" d="M10.42,952.362c-3.711,0-6.735,3.024-6.735,6.734s3.024,6.735,6.735,6.735h37.959 c3.711,0,6.735-3.025,6.735-6.735s-3.024-6.734-6.735-6.734H10.42z M10.42,954.811h37.959c2.396,0,4.286,1.89,4.286,4.285 c0,2.396-1.891,4.286-4.286,4.286H10.42c-2.396,0-4.286-1.89-4.286-4.286C6.134,956.701,8.025,954.811,10.42,954.811z M10.42,957.26c-1.016,0-1.838,0.822-1.838,1.836c0,1.014,0.822,1.837,1.838,1.837c1.014,0,1.837-0.824,1.837-1.837 C12.257,958.082,11.434,957.26,10.42,957.26z M17.767,957.26c-1.014,0-1.838,0.822-1.838,1.836c0,1.014,0.824,1.837,1.838,1.837 c1.015,0,1.837-0.824,1.837-1.837C19.604,958.082,18.782,957.26,17.767,957.26z M25.115,957.26c-1.015,0-1.837,0.822-1.837,1.836 c0,1.014,0.822,1.837,1.837,1.837c1.014,0,1.836-0.824,1.836-1.837C26.951,958.082,26.128,957.26,25.115,957.26z M10.42,968.28 c-3.711,0-6.735,3.025-6.735,6.735s3.024,6.734,6.735,6.734h37.959c3.711,0,6.735-3.024,6.735-6.734s-3.024-6.735-6.735-6.735 H10.42z M10.42,970.729h37.959c2.396,0,4.286,1.89,4.286,4.286c0,2.396-1.891,4.285-4.286,4.285H10.42 c-2.396,0-4.286-1.89-4.286-4.285C6.134,972.619,8.025,970.729,10.42,970.729z M10.42,973.178c-1.016,0-1.838,0.824-1.838,1.837 c0,1.014,0.822,1.836,1.838,1.836c1.014,0,1.837-0.822,1.837-1.836C12.257,974.001,11.434,973.178,10.42,973.178z M17.767,973.178 c-1.014,0-1.838,0.824-1.838,1.837c0,1.014,0.824,1.836,1.838,1.836c1.015,0,1.837-0.822,1.837-1.836 C19.604,974.001,18.782,973.178,17.767,973.178z M25.115,973.178c-1.015,0-1.837,0.824-1.837,1.837 c0,1.014,0.822,1.836,1.837,1.836c1.014,0,1.836-0.822,1.836-1.836C26.951,974.001,26.128,973.178,25.115,973.178z M10.42,984.198 c-3.711,0-6.735,3.024-6.735,6.736c0,3.71,3.024,6.734,6.735,6.734h17.755v6.313c-1.37,0.416-2.454,1.502-2.87,2.87H8.391 c-0.533-1.759-2.169-3.062-4.093-3.062c-2.354,0-4.286,1.936-4.286,4.287s1.933,4.285,4.286,4.285c1.931,0,3.585-1.293,4.112-3.062 h16.876c0.528,1.769,2.182,3.062,4.113,3.062s3.585-1.293,4.113-3.062h16.876c0.527,1.769,2.182,3.062,4.112,3.062 c2.354,0,4.286-1.934,4.286-4.285s-1.933-4.287-4.286-4.287c-1.924,0-3.56,1.303-4.093,3.062H33.495 c-0.416-1.368-1.5-2.454-2.87-2.87v-6.313h17.755c3.711,0,6.735-3.024,6.735-6.734c0-3.712-3.024-6.736-6.735-6.736H10.42z M10.42,986.646h37.959c2.396,0,4.286,1.892,4.286,4.288c0,2.395-1.891,4.285-4.286,4.285H10.42c-2.396,0-4.286-1.891-4.286-4.285 C6.134,988.538,8.025,986.646,10.42,986.646z M10.42,989.097c-1.016,0-1.838,0.822-1.838,1.838c0,1.015,0.822,1.836,1.838,1.836 c1.014,0,1.837-0.821,1.837-1.836C12.257,989.919,11.434,989.097,10.42,989.097z M17.767,989.097c-1.014,0-1.838,0.822-1.838,1.838 c0,1.015,0.824,1.836,1.838,1.836c1.015,0,1.837-0.821,1.837-1.836C19.604,989.919,18.782,989.097,17.767,989.097z M25.115,989.097 c-1.015,0-1.837,0.822-1.837,1.838c0,1.015,0.822,1.836,1.837,1.836c1.014,0,1.836-0.821,1.836-1.836 C26.951,989.919,26.128,989.097,25.115,989.097z M4.298,1006.241c1.028,0,1.836,0.808,1.836,1.836c0,1.029-0.808,1.836-1.836,1.836 c-1.029,0-1.838-0.807-1.838-1.836C2.46,1007.049,3.269,1006.241,4.298,1006.241z M29.4,1006.241c1.029,0,1.836,0.808,1.836,1.836 c0,1.029-0.807,1.836-1.836,1.836s-1.836-0.807-1.836-1.836C27.564,1007.049,28.371,1006.241,29.4,1006.241z M54.501,1006.241 c1.029,0,1.838,0.808,1.838,1.836c0,1.029-0.809,1.836-1.838,1.836c-1.028,0-1.836-0.807-1.836-1.836 C52.666,1007.049,53.473,1006.241,54.501,1006.241z"></path></g></svg>