<svg version="1.1" id="Layer_1" xmlns="http://www.w3.org/2000/svg" xmlns:xlink="http://www.w3.org/1999/xlink" x="0px" y="0px" width="60px" height="60px" viewBox="0 0 60 60" style="enable-background:new 0 0 60 60;" xml:space="preserve"><g><path style="fill:#0CB4C4;" d="M59.004,13.001h-1v-4c-0.003-2.761-2.24-4.998-5.001-5h-2V3c0-1.656-1.344-3-3-3H11 C9.344,0,8,1.344,8,3v1.001H7c-2.761,0.002-4.998,2.239-5.001,5v4h-1c-0.552,0-1,0.448-1,1v6.001c0,0.552,0.448,1,1,1h1v4 C2.002,27.763,4.239,30,7,30.003h19.001c0.266,0,0.52-0.105,0.707-0.293l1.707-1.708h3.172l1.708,1.708 c0.188,0.188,0.441,0.293,0.707,0.293h19.001c2.761-0.003,4.998-2.24,5.001-5.001v-4h1c0.552,0,1-0.448,1-1v-6.001 C60.004,13.449,59.556,13.001,59.004,13.001z M10,3c0-0.552,0.447-1,1-1h37.003c0.552,0,1,0.448,1,1v1.001H10V3z M3.999,9.001 c0-1.656,1.344-3,3.001-3h46.003c1.656,0,3,1.344,3,3v4h-2v-2c0-1.656-1.344-3-3-3H9c-1.656,0-3.001,1.344-3.001,3v2h-2V9.001z M8,11.001c0-0.552,0.447-1,1-1h42.003c0.552,0,1,0.448,1,1v12.001c0,0.552-0.448,1-1,1H36.416l-1.707-1.707 c-0.188-0.188-0.441-0.293-0.707-0.293h-8.001c-0.266,0-0.52,0.105-0.707,0.293l-1.707,1.707H9c-0.553,0-1-0.448-1-1V11.001z M1.999,15.001h4v4.001h-4V15.001z M56.003,25.002c0,1.656-1.344,3-3,3H34.416l-1.707-1.707c-0.188-0.188-0.441-0.293-0.707-0.293 h-4.001c-0.266,0-0.52,0.105-0.707,0.293l-1.707,1.707H7c-1.657,0-3.001-1.344-3.001-3v-4h2v2c0,1.656,1.345,3,3.001,3h15.001 c0.266,0,0.52-0.105,0.707-0.293l1.707-1.707h7.173l1.707,1.707c0.188,0.188,0.441,0.293,0.707,0.293h15.001c1.656,0,3-1.344,3-3 v-2h2V25.002z M58.004,19.002h-4.001v-4.001h4.001V19.002z"></path><path style="fill:#0CB4C4;" d="M8,36.003c-2.209,0-4.001,1.792-4.001,4c0,2.209,1.792,4.001,4.001,4.001c2.208,0,4-1.792,4-4.001 C12,37.795,10.208,36.003,8,36.003z M8,42.004c-1.104,0-2.001-0.896-2.001-2.001c0-1.104,0.896-2,2.001-2c1.104,0,2,0.896,2,2 C10,41.107,9.104,42.004,8,42.004z"></path><path style="fill:#0CB4C4;" d="M41.002,40.003c-0.002-2.761-2.239-4.997-5-5H14.241c-2.762-3.449-7.797-4.007-11.246-1.245 c-3.449,2.761-4.007,7.797-1.245,11.246c2.763,3.449,7.797,4.007,11.246,1.245c0.46-0.367,0.876-0.786,1.245-1.245h21.761 C38.763,45.001,41,42.764,41.002,40.003z M13.739,43.004c-0.325,0-0.631,0.16-0.817,0.427c-1.895,2.721-5.635,3.391-8.354,1.497 c-1.969-1.372-2.933-3.786-2.447-6.138c0.476-2.377,2.346-4.228,4.726-4.681c0.379-0.07,0.764-0.106,1.148-0.106 c1.965-0.007,3.808,0.956,4.925,2.57c0.188,0.269,0.495,0.429,0.82,0.429h22.263c1.656,0,3,1.344,3,3c0,1.658-1.344,3-3,3 L13.739,43.004z"></path><path style="fill:#0CB4C4;" d="M52.003,48.004c-2.208,0-4,1.792-4,4c0,2.209,1.792,4.001,4,4.001c2.209,0,4-1.792,4-4.001 C56.003,49.796,54.212,48.004,52.003,48.004z M52.003,54.004c-1.104,0-2-0.896-2-2c0-1.104,0.896-2,2-2s2,0.896,2,2 C54.003,53.108,53.107,54.004,52.003,54.004z"></path><path style="fill:#0CB4C4;" d="M53.524,44.145L53.524,44.145c-2.919-0.566-5.91,0.535-7.763,2.859H24.001c-2.762,0-5,2.238-5,5 c0,2.763,2.238,5.001,5,5.001h21.762c2.764,3.446,7.801,4,11.246,1.237c3.448-2.765,4.002-7.801,1.237-11.247 C57.06,45.514,55.386,44.505,53.524,44.145z M56.636,55.817c-2.106,2.558-5.888,2.925-8.445,0.816 c-0.424-0.348-0.796-0.752-1.109-1.202c-0.187-0.267-0.492-0.427-0.818-0.427H24.001c-1.656,0-3-1.345-3-3.001s1.344-3,3-3h22.262 c0.326,0,0.633-0.16,0.82-0.427c1.894-2.722,5.634-3.392,8.353-1.498c1.261,0.878,2.137,2.206,2.448,3.712 C58.24,52.568,57.783,54.413,56.636,55.817z"></path><path style="fill:#0CB4C4;" d="M15.711,39.292c-0.289-0.282-0.719-0.365-1.091-0.208c-0.123,0.047-0.234,0.12-0.331,0.208 c-0.087,0.1-0.159,0.21-0.208,0.331c-0.107,0.242-0.107,0.519,0,0.761c0.049,0.121,0.121,0.231,0.208,0.33 c0.099,0.088,0.21,0.159,0.331,0.209c0.242,0.106,0.519,0.106,0.761,0c0.121-0.05,0.231-0.121,0.33-0.209 c0.285-0.286,0.369-0.719,0.209-1.091C15.87,39.502,15.799,39.392,15.711,39.292z"></path><path style="fill:#0CB4C4;" d="M19.712,39.292c-0.289-0.282-0.719-0.365-1.092-0.208c-0.122,0.047-0.234,0.12-0.331,0.208 c-0.087,0.1-0.158,0.21-0.208,0.331c-0.106,0.242-0.106,0.519,0,0.761c0.05,0.121,0.121,0.231,0.208,0.33 c0.1,0.088,0.21,0.159,0.331,0.209c0.242,0.106,0.519,0.106,0.761,0c0.121-0.05,0.231-0.121,0.331-0.209 c0.285-0.286,0.368-0.719,0.208-1.091C19.87,39.502,19.799,39.392,19.712,39.292z"></path><rect x="22.001" y="39.003" style="fill:#0CB4C4;" width="14.001" height="2"></rect><path style="fill:#0CB4C4;" d="M45.922,51.624c-0.02-0.062-0.05-0.118-0.089-0.169c-0.041-0.061-0.08-0.111-0.119-0.162 c-0.042-0.049-0.102-0.078-0.162-0.119c-0.051-0.039-0.107-0.069-0.169-0.089c-0.06-0.031-0.125-0.052-0.191-0.06 c-0.128-0.031-0.262-0.031-0.39,0c-0.063,0.01-0.122,0.029-0.18,0.06c-0.063,0.021-0.125,0.052-0.181,0.089l-0.149,0.119 c-0.045,0.05-0.085,0.104-0.12,0.162c-0.039,0.051-0.07,0.107-0.089,0.169c-0.031,0.06-0.052,0.124-0.06,0.19 c-0.014,0.063-0.019,0.126-0.021,0.189c0.002,0.131,0.029,0.261,0.081,0.381c0.05,0.121,0.121,0.231,0.209,0.33 c0.099,0.088,0.209,0.159,0.33,0.209c0.242,0.106,0.519,0.106,0.761,0c0.251-0.092,0.448-0.288,0.539-0.539 c0.052-0.12,0.079-0.25,0.081-0.381c-0.002-0.063-0.008-0.127-0.021-0.189C45.974,51.748,45.953,51.684,45.922,51.624z"></path><path style="fill:#0CB4C4;" d="M41.922,51.624c-0.02-0.062-0.05-0.118-0.089-0.169c-0.042-0.061-0.081-0.111-0.12-0.162 c-0.24-0.234-0.58-0.334-0.911-0.268c-0.063,0.01-0.122,0.029-0.18,0.06c-0.063,0.021-0.125,0.052-0.181,0.089l-0.15,0.119 c-0.039,0.051-0.078,0.102-0.119,0.162c-0.04,0.051-0.071,0.107-0.089,0.169c-0.031,0.06-0.053,0.124-0.061,0.19 c-0.013,0.063-0.018,0.126-0.021,0.189c0.001,0.131,0.028,0.261,0.081,0.381c0.049,0.121,0.121,0.231,0.208,0.33 c0.1,0.088,0.21,0.159,0.331,0.209c0.372,0.16,0.805,0.076,1.091-0.209c0.088-0.099,0.159-0.209,0.209-0.33 c0.052-0.12,0.079-0.25,0.08-0.381c-0.001-0.063-0.008-0.127-0.021-0.189C41.974,51.748,41.953,51.684,41.922,51.624z"></path><rect x="24.001" y="51.004" style="fill:#0CB4C4;" width="14.001" height="2"></rect></g></svg>