<svg width="58" height="60" viewBox="0 0 58 60" fill="none" xmlns="http://www.w3.org/2000/svg"><path d="M53.6189 7.16533H50.9514V3.37646C50.9514 1.51476 49.4366 0 47.5749 0H9.24567C7.38397 0 5.86921 1.51476 5.86921 3.37646V7.16533H3.45174C1.5488 7.16533 0 8.71348 0 10.6171V45.2674C0 47.1703 1.54815 48.7192 3.45174 48.7192H21.0646L18.2197 54.5052H14.4295C12.9147 54.5052 11.6821 55.7379 11.6821 57.2526C11.6821 58.7674 12.9147 60 14.4295 60H42.6405C44.1552 60 45.3879 58.7674 45.3879 57.2526C45.3879 55.7379 44.1552 54.5052 42.6405 54.5052H38.8503L36.0054 48.7192H53.6182C55.5212 48.7192 57.07 47.171 57.07 45.2674V10.6171C57.0706 8.71413 55.5225 7.16533 53.6189 7.16533ZM9.24371 43.568C8.35606 43.5667 7.63403 42.8447 7.63403 41.9564V8.10273H49.1865V41.9564C49.1865 42.844 48.4645 43.5667 47.5769 43.568H9.24371ZM6.27965 43.568H5.15176V12.3164H5.86986V41.9564C5.86921 42.5397 6.01846 43.0889 6.27965 43.568ZM50.9514 12.3164H51.9195V43.568H50.5409C50.8021 43.0889 50.9507 42.5397 50.9507 41.9564L50.9514 12.3164ZM9.24567 1.76482H47.5749C48.4639 1.76482 49.1865 2.48751 49.1865 3.37646V6.33791H7.63403V3.37646C7.63403 2.48816 8.35737 1.76482 9.24567 1.76482ZM43.6237 57.252C43.6237 57.794 43.1825 58.2345 42.6411 58.2345H14.4302C13.8881 58.2345 13.4469 57.7933 13.4469 57.252C13.4469 56.7099 13.8881 56.2694 14.4302 56.2694H42.6411C43.1831 56.2694 43.6237 56.7099 43.6237 57.252ZM36.8845 54.5046H20.1874L23.0324 48.7185H34.0396L36.8845 54.5046ZM55.3058 45.2674C55.3058 46.1976 54.5491 46.9543 53.6189 46.9543H3.4524C2.5222 46.9543 1.76548 46.1976 1.76548 45.2674V10.6171C1.76548 9.68688 2.5222 8.93015 3.4524 8.93015H5.86986V10.5516H4.26935C3.78167 10.5516 3.38694 10.9463 3.38694 11.434V44.4505C3.38694 44.9381 3.78167 45.3329 4.26935 45.3329H52.8019C53.2896 45.3329 53.6844 44.9381 53.6844 44.4505V11.434C53.6844 10.9463 53.2896 10.5516 52.8019 10.5516H50.9514V8.93015H53.6189C54.5491 8.93015 55.3058 9.68688 55.3058 10.6171V45.2674ZM29.1254 4.05136C29.1254 3.56368 29.5202 3.16895 30.0079 3.16895H45.4036C45.8912 3.16895 46.286 3.56368 46.286 4.05136C46.286 4.53905 45.8912 4.93378 45.4036 4.93378H30.0079C29.5208 4.93378 29.1254 4.53905 29.1254 4.05136ZM10.2597 4.05136C10.2597 3.56368 10.6544 3.16895 11.1421 3.16895H12.5037C12.9913 3.16895 13.3861 3.56368 13.3861 4.05136C13.3861 4.53905 12.9913 4.93378 12.5037 4.93378H11.1421C10.6544 4.93378 10.2597 4.53905 10.2597 4.05136ZM14.8373 4.05136C14.8373 3.56368 15.2321 3.16895 15.7197 3.16895H17.0813C17.569 3.16895 17.9637 3.56368 17.9637 4.05136C17.9637 4.53905 17.569 4.93378 17.0813 4.93378H15.7197C15.2321 4.93378 14.8373 4.53905 14.8373 4.05136ZM19.4143 4.05136C19.4143 3.56368 19.8091 3.16895 20.2968 3.16895H21.6583C22.146 3.16895 22.5407 3.56368 22.5407 4.05136C22.5407 4.53905 22.146 4.93378 21.6583 4.93378H20.2968C19.8097 4.93378 19.4143 4.53905 19.4143 4.05136ZM37.0148 31.287C37.0148 30.8975 36.8636 30.5309 36.5886 30.2566L35.8476 29.5156C35.6519 29.3199 35.6002 29.0613 35.7062 28.8053C35.8123 28.5494 36.0316 28.4028 36.3085 28.4028H37.3558C38.1597 28.4028 38.8136 27.7488 38.8136 26.9449V24.7245C38.8136 23.9207 38.1597 23.2667 37.3558 23.2667H36.3085C36.0316 23.2667 35.8123 23.1201 35.7062 22.8641C35.6002 22.6082 35.6519 22.3496 35.8476 22.1539L36.588 21.4135C36.8629 21.1386 37.0141 20.7727 37.0141 20.3825C37.0141 19.9924 36.8629 19.6264 36.588 19.3515L35.0176 17.7811C34.4494 17.2129 33.5244 17.2129 32.9562 17.7811L32.2158 18.5221C32.0201 18.7178 31.7609 18.7696 31.5056 18.6635C31.2496 18.5575 31.103 18.3382 31.103 18.0613V17.0139C31.103 16.21 30.4491 15.5561 29.6452 15.5561H27.4248C26.6209 15.5561 25.967 16.21 25.967 17.0139V18.0613C25.967 18.3382 25.8203 18.5575 25.5644 18.6635C25.3091 18.7696 25.0499 18.7178 24.8541 18.5221L24.1131 17.7811C23.5449 17.2129 22.62 17.2129 22.0518 17.7811L20.4814 19.3515C20.2064 19.6264 20.0552 19.9924 20.0552 20.3825C20.0552 20.7727 20.2064 21.1386 20.4814 21.4129L21.2224 22.1539C21.4181 22.3496 21.4698 22.6082 21.3638 22.8641C21.2577 23.1201 21.0384 23.2667 20.7615 23.2667H19.7142C18.9103 23.2667 18.2563 23.9207 18.2563 24.7245V26.9449C18.2563 27.7488 18.9103 28.4028 19.7142 28.4028H20.7615C21.0384 28.4028 21.2577 28.5494 21.3638 28.8047C21.4698 29.0606 21.4181 29.3192 21.2224 29.5149L20.482 30.2559C20.2071 30.5309 20.0559 30.8968 20.0559 31.287C20.0559 31.6771 20.2071 32.043 20.482 32.3173L22.0524 33.8877C22.6206 34.4559 23.5456 34.4559 24.1138 33.8877L24.8541 33.1473C25.0499 32.9516 25.3084 32.9006 25.5644 33.006C25.8203 33.112 25.967 33.3313 25.967 33.6082V34.6556C25.967 35.4594 26.6209 36.1134 27.4248 36.1134H29.6452C30.4491 36.1134 31.103 35.4594 31.103 34.6556V33.6082C31.103 33.3313 31.2496 33.112 31.5049 33.006C31.7609 32.9006 32.0195 32.9516 32.2152 33.1473L32.9562 33.8884C33.2311 34.1633 33.5971 34.3145 33.9872 34.3145C34.3767 34.3145 34.7433 34.1633 35.0176 33.8884L36.5873 32.318C36.8636 32.043 37.0148 31.6771 37.0148 31.287ZM33.9879 32.4227L33.4642 31.899C32.7598 31.1947 31.7511 30.9937 30.8307 31.3753C29.911 31.7563 29.3395 32.6119 29.3395 33.6075V34.3479H27.7331V33.6075C27.7331 32.6119 27.1616 31.7563 26.2412 31.3753C25.3215 30.9943 24.3121 31.1947 23.6078 31.899L23.0841 32.4227L21.9483 31.287L22.472 30.7633C23.1764 30.0589 23.3767 29.0502 22.9957 28.1298C22.6147 27.2101 21.7591 26.6386 20.7635 26.6386H20.0231V25.0322H20.7635C21.7591 25.0322 22.6147 24.4607 22.9957 23.5403C23.3767 22.62 23.1757 21.6112 22.472 20.9075L21.9483 20.3838L23.0841 19.2474L23.6078 19.7711C24.3121 20.4755 25.3209 20.6758 26.2412 20.2948C27.1616 19.9138 27.7331 19.0582 27.7331 18.0626V17.3222H29.3395V18.0626C29.3395 19.0582 29.911 19.9138 30.8314 20.2948C31.7511 20.6758 32.7605 20.4748 33.4648 19.7711L33.9885 19.2474L35.1243 20.3832L34.6006 20.9068C33.8962 21.6112 33.6959 22.62 34.0769 23.5403C34.4579 24.4607 35.3134 25.0322 36.3091 25.0322H37.0495V26.6386H36.3091C35.3134 26.6386 34.4579 27.2101 34.0769 28.1304C33.6959 29.0508 33.8962 30.0596 34.6006 30.7639L35.1243 31.2876L33.9879 32.4227ZM28.5356 20.4506C25.5663 20.4506 23.1508 22.8661 23.1508 25.8354C23.1508 28.8047 25.5663 31.2202 28.5356 31.2202C31.5049 31.2202 33.9204 28.8047 33.9204 25.8354C33.9204 22.8661 31.5049 20.4506 28.5356 20.4506ZM28.5356 29.4554C26.5397 29.4554 24.9157 27.8313 24.9157 25.8354C24.9157 23.8395 26.5397 22.2154 28.5356 22.2154C30.5315 22.2154 32.1556 23.8395 32.1556 25.8354C32.1556 27.8313 30.5315 29.4554 28.5356 29.4554ZM26.4344 13.2558C26.09 12.9108 26.09 12.3524 26.4344 12.0081C26.7702 11.673 27.3076 11.6651 27.6532 11.9819V9.55072C27.6532 9.06304 28.048 8.66831 28.5356 8.66831C29.0233 8.66831 29.4181 9.06304 29.4181 9.55072V11.9819C29.7643 11.6644 30.3018 11.6723 30.6376 12.0081C30.9819 12.3524 30.9819 12.9115 30.6376 13.2558L29.1601 14.7332C28.988 14.9054 28.7621 14.9918 28.5363 14.9918C28.3105 14.9918 28.0846 14.9054 27.9125 14.7332L26.4344 13.2558ZM35.9451 17.5435V15.454C35.9451 14.9663 36.3399 14.5716 36.8276 14.5716C37.3015 14.5716 37.6877 14.946 37.708 15.4153L39.427 13.6963C39.772 13.352 40.3304 13.352 40.6747 13.6963C41.019 14.0413 41.019 14.5997 40.6747 14.944L38.9557 16.663C39.425 16.6833 39.7995 17.0689 39.7995 17.5435C39.7995 18.0312 39.4047 18.4259 38.9171 18.4259H36.8276C36.3399 18.4259 35.9451 18.0312 35.9451 17.5435ZM45.7027 25.8354C45.7027 26.3231 45.308 26.7178 44.8203 26.7178H42.3891C42.7066 27.0641 42.6987 27.6015 42.3636 27.9373C42.1914 28.1095 41.9656 28.1959 41.7397 28.1959C41.5139 28.1959 41.2881 28.1095 41.1159 27.9373L39.6384 26.4599C39.4728 26.2943 39.3799 26.0697 39.3799 25.836C39.3799 25.6017 39.4728 25.3778 39.6384 25.2122L41.1159 23.7348C41.4602 23.3904 42.0192 23.3904 42.3636 23.7348C42.6987 24.0699 42.7066 24.6073 42.3898 24.9536H44.821C45.308 24.953 45.7027 25.3477 45.7027 25.8354ZM40.6747 36.7261C41.019 37.0711 41.019 37.6294 40.6747 37.9738C40.5025 38.1459 40.2767 38.2323 40.0508 38.2323C39.825 38.2323 39.5992 38.1459 39.427 37.9738L37.708 36.2548C37.6877 36.7241 37.3021 37.0986 36.8276 37.0986C36.3399 37.0986 35.9451 36.7038 35.9451 36.2161V34.1266C35.9451 33.639 36.3399 33.2442 36.8276 33.2442H38.9171C39.4041 33.2442 39.7995 33.639 39.7995 34.1266C39.7995 34.6012 39.425 34.9868 38.9557 35.0071L40.6747 36.7261ZM30.6369 38.415C30.9813 38.76 30.9813 39.3183 30.6369 39.6627C30.4648 39.8348 30.2389 39.9212 30.0131 39.9212C29.799 39.9212 29.5863 39.8433 29.4181 39.6888V42.1201C29.4181 42.6071 29.0233 43.0025 28.5356 43.0025C28.048 43.0025 27.6532 42.6077 27.6532 42.1201V39.6888C27.3069 40.0063 26.7695 39.9985 26.4344 39.6627C26.09 39.3177 26.09 38.7593 26.4344 38.415L27.9118 36.9375C28.2568 36.5932 28.8152 36.5932 29.1595 36.9375L30.6369 38.415ZM21.1268 34.1266V36.2161C21.1268 36.7038 20.7321 37.0986 20.2444 37.0986C19.7698 37.0986 19.3842 36.7241 19.3639 36.2548L17.6449 37.9738C17.4728 38.1459 17.2469 38.2323 17.0211 38.2323C16.7953 38.2323 16.5694 38.1459 16.3973 37.9738C16.0529 37.6294 16.0529 37.0704 16.3973 36.7261L18.1163 35.0071C17.6469 34.9868 17.2725 34.6012 17.2725 34.1266C17.2725 33.639 17.6672 33.2442 18.1549 33.2442H20.2444C20.7314 33.2442 21.1268 33.6396 21.1268 34.1266ZM17.4335 26.4592L15.9561 27.9367C15.7839 28.1088 15.5581 28.1952 15.3322 28.1952C15.1064 28.1952 14.8805 28.1088 14.7084 27.9367C14.3732 27.6015 14.3654 27.0634 14.6822 26.7178H12.251C11.7633 26.7178 11.3686 26.3231 11.3686 25.8354C11.3686 25.3477 11.7633 24.953 12.251 24.953H14.6822C14.3647 24.6067 14.3726 24.0693 14.7084 23.7341C15.0534 23.3898 15.6117 23.3898 15.9561 23.7341L17.4335 25.2115C17.7785 25.5559 17.7785 26.1142 17.4335 26.4592ZM16.3966 14.944C16.0523 14.5997 16.0523 14.0407 16.3966 13.6963C16.7409 13.352 17.3 13.352 17.6443 13.6963L19.3633 15.4153C19.3836 14.946 19.7691 14.5716 20.2437 14.5716C20.7314 14.5716 21.1261 14.9663 21.1261 15.454V17.5435C21.1261 18.0312 20.7314 18.4259 20.2437 18.4259H18.1542C17.6665 18.4259 17.2718 18.0312 17.2718 17.5435C17.2718 17.0689 17.6463 16.6833 18.1156 16.663L16.3966 14.944Z" fill="#0CB4C4"></path></svg>