<svg width="59" height="60" viewBox="0 0 59 60" fill="none" xmlns="http://www.w3.org/2000/svg"><path fill-rule="evenodd" clip-rule="evenodd" d="M0 42.5096V3.09252C0 1.3847 1.38471 0 3.09253 0H55.0578C56.768 0 58.1472 1.3847 58.1472 3.09252V42.5096C58.1472 44.2166 56.768 45.6013 55.0578 45.6013H31.648V54.0514H40.4385C41.2581 54.0514 42.0462 54.3777 42.6294 54.9577C43.2047 55.537 43.5357 56.3235 43.5357 57.1439V59.2119C43.5357 59.6469 43.1811 60 42.7476 60H14.3924C13.9574 60 13.6043 59.6469 13.6043 59.2119V57.1439C13.6043 56.3235 13.9305 55.537 14.5106 54.9577C15.0898 54.3777 15.8764 54.0514 16.6968 54.0514H25.4889V45.6013H3.09253C1.38471 45.6013 0 44.2166 0 42.5096ZM56.571 38.3255V3.09252C56.571 2.25556 55.8932 1.57621 55.0578 1.57621H3.09253C2.25478 1.57621 1.57621 2.25556 1.57621 3.09252V38.3255H56.571ZM1.57621 39.9017V42.5096C1.57621 43.3466 2.25478 44.0251 3.09253 44.0251H55.0578C55.8932 44.0251 56.571 43.3466 56.571 42.5088V39.9017H1.57621ZM30.0718 54.0514V46.1073H27.0651V54.0514H30.0718ZM40.4385 55.6276H16.6968C16.2949 55.6276 15.9087 55.7876 15.625 56.0721C15.3405 56.3558 15.1805 56.742 15.1805 57.1439V58.4238H41.9595V57.1439C41.9595 56.742 41.794 56.3558 41.5103 56.0721C41.2266 55.7876 40.8404 55.6276 40.4385 55.6276ZM33.3865 21.8597C33.3865 21.4246 33.7396 21.0716 34.1746 21.0716C34.6097 21.0716 34.9627 21.4246 34.9627 21.8597V33.8751H54.2697C54.711 33.8751 55.0578 34.229 55.0578 34.6632C55.0578 35.0983 54.711 35.4513 54.2697 35.4513H34.1746C33.7396 35.4513 33.3865 35.099 33.3865 34.6632V21.8597ZM37.1986 30.5154C36.8912 30.8228 36.3915 30.8228 36.0842 30.5154C35.7768 30.2081 35.7768 29.7084 36.0842 29.401L39.1854 26.2998C39.343 26.147 39.5479 26.0634 39.7607 26.0689C39.9813 26.0745 40.1863 26.169 40.3281 26.3298L42.7949 29.0677L45.1277 24.8734C45.2301 24.6874 45.4035 24.551 45.6084 24.4959C45.8133 24.4407 46.034 24.4714 46.2231 24.5802L49.2574 26.396L52.3861 22.5705C52.662 22.234 53.1585 22.1844 53.4974 22.4594C53.8363 22.7352 53.8835 23.2318 53.6077 23.5683L50.0455 27.9202C49.8012 28.222 49.3677 28.2977 49.0367 28.0975L46.105 26.3503L43.6303 30.7991C43.5042 31.0214 43.2835 31.1703 43.0313 31.1987C42.7791 31.2271 42.5269 31.1317 42.3536 30.9426L39.7134 28.0014L37.1986 30.5154ZM35.5073 6.14406C35.0723 6.14406 34.7192 5.79099 34.7192 5.35596C34.7192 4.92093 35.0723 4.56786 35.5073 4.56786H48.1067C48.5402 4.56786 48.8948 4.92093 48.8948 5.35596C48.8948 5.79099 48.5402 6.14406 48.1067 6.14406H35.5073ZM44.182 9.66453C43.7406 9.66453 43.3939 9.31067 43.3939 8.87643C43.3939 8.44139 43.7406 8.08832 44.182 8.08832H49.8406C50.274 8.08832 50.6287 8.44139 50.6287 8.87643C50.6287 9.31067 50.274 9.66453 49.8406 9.66453H44.182ZM35.5073 9.66453C35.0723 9.66453 34.7192 9.31067 34.7192 8.87643C34.7192 8.44139 35.0723 8.08832 35.5073 8.08832H41.1714C41.6049 8.08832 41.9595 8.44139 41.9595 8.87643C41.9595 9.31067 41.6049 9.66453 41.1714 9.66453H35.5073ZM7.69903 25.1689C5.87536 22.9985 4.77673 20.1999 4.77673 17.146C4.77673 10.2556 10.3715 4.66164 17.2611 4.66164C20.5309 4.66164 23.5084 5.92103 25.7348 7.98114L27.3764 5.86902C27.5253 5.67672 27.7555 5.56481 27.9982 5.56481H32.518C32.953 5.56481 33.3061 5.91788 33.3061 6.35291C33.3061 6.78795 32.953 7.14102 32.518 7.14102H28.3844L26.8342 9.13571C28.6508 11.3046 29.7455 14.0984 29.7455 17.146C29.7455 24.0364 24.1515 29.6304 17.2611 29.6304C13.4254 29.6304 9.99082 27.8965 7.6998 25.1697L7.69903 25.1689ZM24.7638 9.23107C22.9867 7.54532 20.6429 6.45143 18.0492 6.26622V16.3579H28.1417C27.9817 14.1236 27.1471 12.0746 25.8412 10.4132L23.7314 13.1282C23.465 13.4719 22.9693 13.5341 22.6257 13.267C22.2821 13.0006 22.2198 12.5049 22.487 12.1612L24.7638 9.23107ZM16.473 6.26622C10.8199 6.67052 6.35294 11.3905 6.35294 17.146C6.35294 19.5308 7.12053 21.7383 8.4209 23.5344L16.473 16.7788V6.26622ZM9.43518 24.741C11.4181 26.7837 14.1922 28.0542 17.2611 28.0542C23.0166 28.0542 27.7366 23.5872 28.1417 17.9341H17.5479L9.43518 24.741ZM35.5073 13.1842C35.0723 13.1842 34.7192 12.8311 34.7192 12.3961C34.7192 11.9611 35.0723 11.608 35.5073 11.608H44.639C45.0725 11.608 45.4271 11.9611 45.4271 12.3961C45.4271 12.8311 45.0725 13.1842 44.639 13.1842H35.5073Z" fill="#0CB4C4"></path></svg>