<svg version="1.1" id="Layer_1" xmlns="http://www.w3.org/2000/svg" xmlns:xlink="http://www.w3.org/1999/xlink" x="0px" y="0px" width="60px" height="60px" viewBox="0 0 60 60" style="enable-background:new 0 0 60 60;" xml:space="preserve"><g><rect x="29" y="8.793" style="fill:#0CB4C4;" width="2" height="2.201"></rect><rect x="29" y="4.389" style="fill:#0CB4C4;" width="2" height="2.202"></rect><path style="fill:#0CB4C4;" d="M29,16.144v7.34l-6.394,2.74C22.238,26.38,22,26.742,22,27.144v7.34l-6.394,2.74 C15.238,37.38,15,37.742,15,38.144v8c0,0.399,0.238,0.761,0.606,0.919l7,3c0.25,0.107,0.535,0.107,0.787,0l21-9 C44.762,40.904,45,40.543,45,40.144v-24c0-0.401-0.238-0.764-0.606-0.92l-7-3c-0.25-0.108-0.535-0.108-0.787,0l-7,3 C29.238,15.38,29,15.742,29,16.144z M36,19.802v5.824l-5-2.143v-5.824L36,19.802z M24,41.803l5-2.144v5.824l-5,2.144V41.803z M24,28.659l5,2.143v5.824l-5-2.143V28.659z M31,30.802l5-2.143v13.824l-5,2.144V30.802z M30,25.23l4.461,1.913L30,29.055 l-4.461-1.913L30,25.23z M23,36.23l4.461,1.913L23,40.055l-4.461-1.913L23,36.23z M17,39.659l5,2.144v5.824l-5-2.144V39.659z M38,41.627V19.802l5-2.143v21.824L38,41.627z M37,14.23l4.461,1.913L37,18.055l-4.461-1.913L37,14.23z"></path><path style="fill:#0CB4C4;" d="M59.394,12.509l-29-12.429c-0.25-0.106-0.535-0.106-0.787,0l-29,12.429 C0.238,12.667,0,13.028,0,13.429v33.144c0,0.399,0.238,0.762,0.606,0.919l29,12.429c0.25,0.106,0.535,0.106,0.787,0l29-12.429 C59.762,47.334,60,46.972,60,46.572V13.429C60,13.028,59.762,12.667,59.394,12.509z M58,45.913l-28,12l-28-12V14.087l28-12l28,12 V45.913z"></path><rect x="3.138" y="43.585" transform="matrix(-0.9189 0.3944 -0.3944 -0.9189 25.8404 83.8595)" style="fill:#0CB4C4;" width="2.327" height="2.001"></rect><rect x="7.416" y="41.751" transform="matrix(-0.9191 0.3941 -0.3941 -0.9191 33.3157 78.6598)" style="fill:#0CB4C4;" width="2.329" height="1.999"></rect><rect x="11.695" y="39.917" transform="matrix(-0.9192 0.3938 -0.3938 -0.9192 40.7926 73.4645)" style="fill:#0CB4C4;" width="2.329" height="2.001"></rect><rect x="54.698" y="43.421" transform="matrix(-0.3943 0.919 -0.919 -0.3943 118.6351 10.9815)" style="fill:#0CB4C4;" width="2.001" height="2.328"></rect><rect x="50.42" y="41.587" transform="matrix(-0.3941 0.9191 -0.9191 -0.3941 110.9747 12.341)" style="fill:#0CB4C4;" width="2" height="2.327"></rect><rect x="46.14" y="39.753" transform="matrix(-0.3939 0.9191 -0.9191 -0.3939 103.3182 13.7064)" style="fill:#0CB4C4;" width="2.001" height="2.329"></rect></g></svg>