<svg xmlns="http://www.w3.org/2000/svg" id="Layer_1" data-name="Layer 1" width="60.01" height="60" viewBox="0 0 60.01 60"><defs><style> .cls-1 { fill: #0cb4c4; } </style></defs><path class="cls-1" d="M59.13,0H.93A.91.91,0,0,0,0,.93V59.07A.91.91,0,0,0,.93,60H59.07a.91.91,0,0,0,.93-.93V.93A.82.82,0,0,0,59.13,0ZM1.86,58.2V13.58H58.14V58.2Zm0-56.34H58.14v9.79H1.86Z"></path><path class="cls-1" d="M15.52,3.93a2.88,2.88,0,0,0-2.87,2.86,2.87,2.87,0,1,0,2.87-2.86Zm0,3.79a.93.93,0,1,1,.93-.93A.91.91,0,0,1,15.52,7.72Z"></path><path class="cls-1" d="M23,3.93a2.88,2.88,0,0,0-2.86,2.86A2.86,2.86,0,1,0,23,3.93Zm0,3.79A.93.93,0,1,1,24,6.79.87.87,0,0,1,23,7.72Z"></path><path class="cls-1" d="M7.92,3.93A2.88,2.88,0,0,0,5.06,6.79a2.87,2.87,0,1,0,5.73,0A2.88,2.88,0,0,0,7.92,3.93Zm0,3.79a.93.93,0,1,1,.94-.93A.91.91,0,0,1,7.92,7.72Z"></path><path class="cls-1" d="M24.5,47.71a1,1,0,0,0-1.09-.19,2.72,2.72,0,0,0-.85-2.11,35.81,35.81,0,0,1-3.91-5.48,1.12,1.12,0,0,0-1-.59,1.53,1.53,0,0,0-1.32,1,3.66,3.66,0,0,0-.13,2.56A4.56,4.56,0,0,1,15,40.6v-.07c-.6-3.25-1.07-5.81-2.93-5.81l-.31,0a1.47,1.47,0,0,0-1,.67c-1.17,1.79.09,7,.14,7.23l0,.11a10.71,10.71,0,0,0,2.9,5.59,38,38,0,0,0,4.6,4.09l-.13.13a1,1,0,0,0,0,1.37L20,55.71a1,1,0,0,0,1.37,0l4.87-4.87a1,1,0,0,0,0-1.37Zm-9.62-.35a9.21,9.21,0,0,1-2.56-5l0-.11c-.72-3-.75-5.76-.33-6.11H12c.63,0,1.15,2.77,1.49,4.6v.07c.62,3.37,4.35,5,4.51,5.08a.73.73,0,0,0,.86-1.13c-1.42-1.77-1.41-3-1.35-3.44a1.53,1.53,0,0,1,.08-.31c.81,1.32,3,4.66,4,5.49.35.29.36,1.49.14,2.49l-2.35,2.35a36.92,36.92,0,0,1-4.56-4Zm5.85,7-1.08-1.07,4.16-4.15,1.07,1.07Z"></path><path class="cls-1" d="M49.28,35.42a1.45,1.45,0,0,0-1-.67l-.31,0c-1.86,0-2.33,2.56-2.93,5.8l0,.08a4.55,4.55,0,0,1-1.24,2.28,3.73,3.73,0,0,0-.13-2.56,1.54,1.54,0,0,0-1.32-1,1.14,1.14,0,0,0-1,.59,34.23,34.23,0,0,1-3.92,5.48,2.77,2.77,0,0,0-.84,2.11,1,1,0,0,0-1.09.2l-1.77,1.77a1,1,0,0,0,0,1.37l4.87,4.87a1,1,0,0,0,1.37,0l1.77-1.77a1,1,0,0,0,0-1.37l-.13-.13a38,38,0,0,0,4.59-4.09,10.66,10.66,0,0,0,2.91-5.59l0-.11c.05-.22,1.3-5.44.13-7.23Zm-10,18.9-4.15-4.15L36.2,49.1l4.15,4.15Zm8.44-12,0,.11a9.31,9.31,0,0,1-2.56,5,36.92,36.92,0,0,1-4.56,4L38.22,49c-.22-1-.21-2.2.14-2.49,1-.83,3.22-4.17,4-5.49a2,2,0,0,1,.08.31c.06.44.07,1.67-1.35,3.44a.75.75,0,0,0,0,.91A.76.76,0,0,0,42,46c.16-.07,3.89-1.72,4.51-5.09v-.07c.34-1.83.85-4.6,1.49-4.6,0,0,0,0,0,0,.45.36.42,3.16-.3,6.12Z"></path><path class="cls-1" d="M43.68,27.31A13.94,13.94,0,0,0,30,16a13.7,13.7,0,0,0-2.63.25A13.92,13.92,0,0,0,30,43.85a14.55,14.55,0,0,0,2.63-.25A13.94,13.94,0,0,0,43.68,27.31Zm-1.8,6.36a1.85,1.85,0,0,1-1.58-.81,4.5,4.5,0,0,1-.56-4.34c.77-1.51.86-2.52-.61-4.47-.08-.12-.18-.28-.14-.38.1-.27.68-.58,1.28-.77a12.35,12.35,0,0,1,2,4.68,12.48,12.48,0,0,1-.36,6.09ZM23.82,19.12a3.54,3.54,0,0,0,2.59,1.74,3.78,3.78,0,0,0,2.2-.76,5.14,5.14,0,0,1,.53-.31l0,0,.17.34a2.31,2.31,0,0,1,.34,2.15c-.21.92-.74,3.36,1.52,4.11l.23.1c-.12.22-.71.81-2.49,1.42-2.4.82-4.29,1.46-4.62,2.83A2.38,2.38,0,0,0,25.16,33a.86.86,0,0,1,.23.31c0,.05-.18.21-.63.36a5.48,5.48,0,0,1-2.69.19,6,6,0,0,1,.12-1.53,7.46,7.46,0,0,0-.12-3.86,7.2,7.2,0,0,0-1.7-2.23c-.93-.92-1.41-1.46-1.22-2.38a12.43,12.43,0,0,1,4.68-4.73ZM17.77,32.27A12.4,12.4,0,0,1,18.2,26a8.77,8.77,0,0,0,1.14,1.29A5.72,5.72,0,0,1,20.71,29a6.31,6.31,0,0,1,0,3.09c-.19,1.29-.37,2.51.6,3a3.82,3.82,0,0,0,1.63.28c1.32,0,3-.37,3.59-1.21A1.61,1.61,0,0,0,26.23,32c-.35-.37-.54-.69-.5-.86.15-.59,2.18-1.28,3.67-1.79,2.3-.78,3.51-1.77,3.51-2.85,0-.32-.13-1.08-1.26-1.46-.53-.17-1-.49-.55-2.39a3.65,3.65,0,0,0-.46-3.13l-.17-.33a1.47,1.47,0,0,0-.9-.82,2.2,2.2,0,0,0-1.74.51,2.68,2.68,0,0,1-1.35.55,2,2,0,0,1-1.32-.95,12.94,12.94,0,0,1,2.5-.76,12.46,12.46,0,0,1,11.67,4,3,3,0,0,0-1.72,1.47A1.8,1.8,0,0,0,38,24.93c1.16,1.55,1,1.95.47,2.92a5.92,5.92,0,0,0,.72,5.92,3.45,3.45,0,0,0,2.17,1.33,12.77,12.77,0,0,1-1.78,2.82c-1.76-1.81-3-2.66-3.82-2.51a5.71,5.71,0,0,0-.89.29c-1,.39-1.85.65-2.57.09a2.68,2.68,0,0,0-2.53-.43,3.78,3.78,0,0,0-2.33,2.47,1.65,1.65,0,0,0,.08,1.33,1.63,1.63,0,0,0,1.24.63,2.06,2.06,0,0,1,1,.36,2.13,2.13,0,0,1,.75,1.61,1.23,1.23,0,0,1-.12.61H30A12.46,12.46,0,0,1,17.77,32.27Zm14.58,9.89-.41.06a2.58,2.58,0,0,0,0-.49A3.59,3.59,0,0,0,30.66,39a3.47,3.47,0,0,0-1.7-.65l-.17,0,0-.08a2.32,2.32,0,0,1,1.37-1.48,1.21,1.21,0,0,1,1.17.2c1.44,1.11,3,.49,4,.12a5.48,5.48,0,0,1,.59-.21A11.07,11.07,0,0,1,38.53,39a12.42,12.42,0,0,1-6.18,3.17Z"></path></svg>