<svg xmlns="http://www.w3.org/2000/svg" xmlns:xlink="http://www.w3.org/1999/xlink" version="1.1" id="Layer_1" x="0px" y="0px" width="58.6px" height="60px" viewBox="0 0 58.6 60" style="enable-background:new 0 0 58.6 60;" xml:space="preserve"><style type="text/css"> .st0 { fill: #0CB4C4; } </style><g><path class="st0" d="M13.6,38.9c0,8.8,6,14.9,14.5,14.9l0,0c8.6,0,14.5-6.1,14.5-14.9c0-4.1-2.2-8.2-8.4-17.7 c-2.2-3.3-3.9-6.9-5.2-10.6c-0.1-0.4-0.5-0.7-0.9-0.7c-0.4,0-0.8,0.2-0.9,0.6c-1.4,3.7-3.1,7.3-5.2,10.6 C16.1,30.4,13.6,34.7,13.6,38.9z M28.1,13.5c1.2,3,2.8,6,4.6,8.7c5.7,8.7,8.1,13,8.1,16.7c0,7.7-5.2,13-12.7,13s-12.7-5.4-12.7-13 c0-3.7,2.5-7.8,8.1-16.7C25.3,19.5,26.8,16.6,28.1,13.5z"></path><path class="st0" d="M30.6,49.9c0.1,0,0.1,0,0.2,0c5-1.1,8.1-5.3,8.1-10.9c-0.1-2.1-0.8-4.1-1.8-5.9c-0.2-0.5-0.8-0.7-1.3-0.4 c-0.5,0.2-0.7,0.8-0.4,1.3c0,0,0,0,0,0c0.9,1.5,1.5,3.2,1.6,5c0,4.7-2.6,8.2-6.7,9.1c-0.5,0.1-0.8,0.6-0.7,1.1 C29.8,49.6,30.2,49.9,30.6,49.9L30.6,49.9z"></path><path class="st0" d="M3.6,43.7c0.5-0.2,0.7-0.8,0.5-1.2c0,0,0,0,0,0C-1.7,29.2,4.3,13.7,17.5,7.9c1.9-0.9,4-1.5,6.1-1.8l-2.1,2.1 c-0.4,0.4-0.4,1,0,1.3c0.4,0.4,1,0.4,1.3,0l0,0l4-4c0.4-0.4,0.4-1,0-1.3l-4-4c-0.4-0.4-1-0.4-1.3,0c-0.4,0.4-0.4,1,0,1.3 c0,0,0,0,0,0L24,4.1C8.7,6.4-1.9,20.6,0.3,36c0.4,2.5,1.1,4.9,2.1,7.2c0.1,0.3,0.5,0.6,0.9,0.6C3.4,43.8,3.5,43.7,3.6,43.7z"></path><path class="st0" d="M49.3,47.3C40.9,59,24.5,61.6,12.8,53.2c-1.9-1.3-3.5-2.9-5-4.7l3,0.8c0.5,0.1,1-0.2,1.1-0.7 c0.1-0.5-0.2-1-0.7-1.1L5.8,46c-0.5-0.1-1,0.2-1.1,0.7l-1.5,5.4c-0.1,0.5,0.2,1,0.7,1.1c0.1,0,0.2,0,0.2,0c0.4,0,0.8-0.3,0.9-0.7 l0.9-3.4c9.5,12.2,27.1,14.4,39.4,4.9c2.1-1.6,4-3.6,5.5-5.7c0.3-0.4,0.2-1-0.2-1.3S49.6,46.8,49.3,47.3z"></path><path class="st0" d="M58.5,42.5c-0.1-0.5-0.6-0.8-1.1-0.7c0,0,0,0,0,0L54,42.7C60,28.4,53.3,12,39,6c-2.6-1.1-5.4-1.8-8.3-2.1 c-0.5,0-1,0.3-1,0.8c0,0.5,0.3,1,0.8,1c14.4,1.3,25,14.1,23.7,28.5c-0.2,2.5-0.8,4.9-1.7,7.2l-0.8-3c-0.1-0.5-0.6-0.8-1.1-0.7 C50,38,49.7,38.5,49.8,39l1.5,5.4c0.1,0.4,0.5,0.7,0.9,0.7c0.1,0,0.2,0,0.2,0l5.4-1.4C58.4,43.5,58.7,43,58.5,42.5z"></path></g></svg>