<svg xmlns="http://www.w3.org/2000/svg" xmlns:xlink="http://www.w3.org/1999/xlink" version="1.1" id="Layer_1" x="0px" y="0px" width="53.9px" height="60px" viewBox="0 0 53.9 60" style="enable-background:new 0 0 53.9 60;" xml:space="preserve"><style type="text/css"> .st0 { fill: #0CB4C4; } </style><g><g><g><g><path class="st0" d="M5.5,56.6c-0.5,0-1-0.1-1.4-0.2C1.7,55.8,0,53.6,0,51.1c0-0.5,0.1-0.9,0.2-1.4l0,0c0.6-2.4,2.8-4.1,5.3-4.1 c0.5,0,1,0.1,1.4,0.2C8,46.1,9,46.7,9.8,47.6c0,0,0,0,0,0c0.8,1,1.2,2.3,1.2,3.5c0,0,0,0,0,0c0,0.5-0.1,0.9-0.2,1.3 C10.2,54.9,8,56.6,5.5,56.6z M1.6,50.1c-0.1,0.3-0.1,0.7-0.1,1c0,1.8,1.2,3.4,3,3.9c0.3,0.1,0.7,0.1,1,0.1c1.8,0,3.4-1.2,3.9-3 c0.1-0.3,0.1-0.6,0.1-1c0-0.9-0.3-1.9-0.9-2.6c-0.6-0.7-1.3-1.1-2.1-1.3c-0.3-0.1-0.7-0.1-1-0.1C3.7,47.1,2.1,48.3,1.6,50.1z"></path></g><g><path class="st0" d="M29.9,38.5c-0.2,0-0.4,0-0.6,0c0,0,0,0,0,0c-0.4,0-0.8-0.1-1.3-0.2c-1.5-0.4-2.8-1.2-3.7-2.4 c-1-1.3-1.6-2.9-1.6-4.6c0-0.6,0.1-1.3,0.2-1.9c0.8-3.2,3.7-5.4,7-5.4c0.6,0,1.3,0.1,1.9,0.2c3.2,0.8,5.4,3.7,5.4,7 c0,0.6-0.1,1.3-0.2,1.9C36.1,36.2,33.2,38.5,29.9,38.5z M29.5,37c2.8,0.2,5.3-1.6,6-4.3c0.1-0.5,0.2-1,0.2-1.5 c0-2.6-1.8-4.9-4.3-5.6c-0.5-0.1-1-0.2-1.5-0.2c-2.6,0-4.9,1.8-5.6,4.3c-0.1,0.5-0.2,1-0.2,1.5c0,1.3,0.5,2.6,1.3,3.6l0,0 c0.8,1,1.8,1.6,3,1.9C28.8,36.9,29.2,36.9,29.5,37z"></path></g><g><path class="st0" d="M11.3,31.7c-0.4,0-0.8,0-1.1-0.1c-1.9-0.5-3.2-2.2-3.2-4.2c0-0.4,0-0.8,0.1-1.1c0.5-1.9,2.2-3.2,4.2-3.2 c0.4,0,0.8,0,1.1,0.1c1.9,0.5,3.2,2.2,3.2,4.2c0,0.4,0,0.7-0.1,1.1l0,0C15,30.4,13.2,31.7,11.3,31.7z M11.3,24.5 c-1.3,0-2.4,0.9-2.8,2.1c-0.1,0.2-0.1,0.5-0.1,0.7c0,1.3,0.9,2.4,2.1,2.8c0.2,0.1,0.5,0.1,0.7,0.1c1.3,0,2.4-0.9,2.8-2.1 c0.1-0.2,0.1-0.5,0.1-0.7c0-1.3-0.9-2.4-2.1-2.8C11.8,24.6,11.5,24.5,11.3,24.5z"></path></g><g><path class="st0" d="M14.7,11c-0.5,0-1-0.1-1.4-0.2C10.9,10.2,9.2,8,9.2,5.5c0-0.5,0.1-1,0.2-1.4C10,1.7,12.2,0,14.7,0 c0.5,0,1,0.1,1.4,0.2c2.4,0.6,4.1,2.8,4.1,5.3c0,0.5-0.1,1-0.2,1.4C19.4,9.3,17.2,11,14.7,11z M14.7,1.5c-1.8,0-3.4,1.2-3.9,3 c-0.1,0.3-0.1,0.7-0.1,1c0,1.8,1.2,3.4,3,3.9l0,0c0.3,0.1,0.7,0.1,1.1,0.1c1.8,0,3.4-1.2,3.9-3c0.1-0.3,0.1-0.7,0.1-1 c0-1.8-1.2-3.4-3-3.9C15.4,1.5,15,1.5,14.7,1.5z"></path></g><g><path class="st0" d="M30.6,17.5c-0.4,0-0.8,0-1.1-0.1c-1.9-0.5-3.2-2.2-3.2-4.2c0-0.4,0-0.8,0.1-1.1l0,0 c0.5-1.9,2.2-3.2,4.2-3.2c0.4,0,0.7,0,1.1,0.1c1.9,0.5,3.2,2.2,3.2,4.2c0,0.4,0,0.7-0.1,1.1C34.3,16.1,32.5,17.5,30.6,17.5z M27.8,12.4c-0.1,0.2-0.1,0.5-0.1,0.7c0,1.3,0.9,2.4,2.1,2.8c0.2,0.1,0.5,0.1,0.7,0.1c1.3,0,2.5-0.9,2.8-2.1 c0.1-0.2,0.1-0.5,0.1-0.7c0-1.3-0.9-2.4-2.1-2.8c-0.2-0.1-0.5-0.1-0.7-0.1C29.3,10.3,28.1,11.1,27.8,12.4z"></path></g><g><path class="st0" d="M48.5,18.3c-0.5,0-1-0.1-1.4-0.2c-2.4-0.6-4.1-2.8-4.1-5.3c0-0.5,0.1-0.9,0.2-1.4l0,0 C43.8,9,46,7.3,48.5,7.3c0.5,0,1,0.1,1.4,0.2c2.4,0.6,4.1,2.8,4.1,5.3c0,0.5-0.1,1-0.2,1.4C53.1,16.7,50.9,18.3,48.5,18.3z M44.5,11.8c-0.1,0.3-0.1,0.7-0.1,1c0,1.8,1.2,3.4,3,3.9c0.3,0.1,0.7,0.1,1,0.1c1.8,0,3.4-1.2,3.9-3c0.1-0.3,0.1-0.7,0.1-1.1 c0-1.8-1.2-3.4-3-3.9c-0.3-0.1-0.7-0.1-1-0.1C46.6,8.8,45,10,44.5,11.8L44.5,11.8z"></path></g><g><path class="st0" d="M48.9,36.5c-0.4,0-0.7,0-1.1-0.1c-1.9-0.5-3.2-2.2-3.2-4.2c0-0.4,0-0.8,0.1-1.1c0.5-1.9,2.2-3.2,4.2-3.2 c0.4,0,0.8,0,1.1,0.1c1.9,0.5,3.2,2.2,3.2,4.2c0,0.4,0,0.7-0.1,1.1C52.6,35.2,50.9,36.5,48.9,36.5z M48.9,29.3 c-1.3,0-2.4,0.9-2.8,2.1l0,0c-0.1,0.2-0.1,0.5-0.1,0.7c0,1.3,0.9,2.4,2.1,2.8c0.2,0.1,0.5,0.1,0.7,0.1c1.3,0,2.4-0.9,2.8-2.1 c0.1-0.2,0.1-0.5,0.1-0.7c0-1.3-0.9-2.4-2.1-2.8C49.4,29.3,49.2,29.3,48.9,29.3z"></path></g><g><path class="st0" d="M47,60c-0.5,0-1-0.1-1.4-0.2c-2.4-0.6-4.1-2.8-4.1-5.3c0-0.5,0.1-1,0.2-1.4c0.6-2.4,2.8-4.1,5.3-4.1 c0.5,0,0.9,0.1,1.4,0.2l0,0c2.4,0.6,4.1,2.8,4.1,5.3c0,0.5-0.1,1-0.2,1.4C51.6,58.3,49.5,60,47,60z M47,50.5 c-1.8,0-3.4,1.2-3.9,3c-0.1,0.3-0.1,0.7-0.1,1c0,1.8,1.2,3.4,3,3.9c0.3,0.1,0.7,0.1,1.1,0.1c1.8,0,3.4-1.2,3.9-3 c0.1-0.3,0.1-0.7,0.1-1c0-1.8-1.2-3.4-3-3.9C47.7,50.5,47.3,50.5,47,50.5z"></path></g><g><path class="st0" d="M28.4,55c-0.4,0-0.7,0-1.1-0.1c-1.9-0.5-3.2-2.2-3.2-4.1c0-0.1,0-0.1,0-0.2c0-0.4,0-0.7,0.1-1.1 c0.5-1.9,2.2-3.2,4.2-3.2c0.1,0,0.2,0,0.3,0h0l0,0c0.3,0,0.5,0,0.8,0.1c1.9,0.5,3.2,2.2,3.2,4.2c0,0.4,0,0.8-0.1,1.1l0,0 C32.1,53.7,30.4,55,28.4,55z M28.4,47.8c-1.3,0-2.4,0.9-2.8,2.1c-0.1,0.2-0.1,0.5-0.1,0.7c0,0,0,0.1,0,0.1v0 c0,1.3,0.9,2.4,2.1,2.7c0.2,0.1,0.5,0.1,0.7,0.1c1.3,0,2.4-0.9,2.8-2.1l0,0c0.1-0.2,0.1-0.5,0.1-0.7c0-1.3-0.9-2.4-2.1-2.8 c-0.2,0-0.3-0.1-0.5-0.1c0,0,0,0-0.1,0h0C28.5,47.8,28.5,47.8,28.4,47.8z"></path></g><g><path class="st0" d="M26.6,26.3c-0.2,0-0.5-0.1-0.6-0.4l-9.5-16c-0.2-0.4-0.1-0.8,0.3-1c0.4-0.2,0.8-0.1,1,0.3l9.5,16 c0.2,0.4,0.1,0.8-0.3,1C26.9,26.3,26.8,26.3,26.6,26.3z"></path></g><g><path class="st0" d="M34.6,27.4c-0.2,0-0.4-0.1-0.5-0.2c-0.3-0.3-0.3-0.7,0-1l10.5-10.5c0.3-0.3,0.7-0.3,1,0 c0.3,0.3,0.3,0.7,0,1L35.1,27.1C34.9,27.3,34.8,27.4,34.6,27.4z"></path></g><g><path class="st0" d="M30.2,25.4C30.2,25.4,30.2,25.4,30.2,25.4c-0.4,0-0.7-0.4-0.7-0.8l0.3-8c0-0.4,0.4-0.7,0.8-0.7 c0.4,0,0.7,0.4,0.7,0.8l-0.3,8C30.9,25.1,30.6,25.4,30.2,25.4z"></path></g><g><path class="st0" d="M45.3,32.7C45.3,32.7,45.3,32.7,45.3,32.7l-8.9-0.4c-0.4,0-0.7-0.4-0.7-0.8c0-0.4,0.4-0.7,0.8-0.7l8.9,0.4 c0.4,0,0.7,0.4,0.7,0.8C46,32.4,45.7,32.7,45.3,32.7z"></path></g><g><path class="st0" d="M44.2,51.4c-0.2,0-0.5-0.1-0.6-0.3L33.2,36.9c-0.2-0.3-0.2-0.8,0.2-1c0.3-0.2,0.8-0.2,1,0.2l10.4,14.2 c0.2,0.3,0.2,0.8-0.2,1C44.5,51.3,44.3,51.4,44.2,51.4z"></path></g><g><path class="st0" d="M28.7,47.8C28.7,47.8,28.7,47.8,28.7,47.8c-0.5,0-0.8-0.4-0.7-0.8l0.7-9.4c0-0.4,0.4-0.7,0.8-0.7 c0.4,0,0.7,0.4,0.7,0.8l-0.7,9.4C29.4,47.5,29.1,47.8,28.7,47.8z"></path></g><g><path class="st0" d="M23.6,30.6c0,0-0.1,0-0.1,0l-8.8-1.8c-0.4-0.1-0.6-0.5-0.6-0.9c0.1-0.4,0.5-0.6,0.9-0.6l8.8,1.8 c0.4,0.1,0.6,0.5,0.6,0.9C24.2,30.4,23.9,30.6,23.6,30.6z"></path></g><g><path class="st0" d="M9.2,48.8c-0.2,0-0.4-0.1-0.6-0.3c-0.3-0.3-0.2-0.8,0.1-1l15.7-12.8c0.3-0.3,0.8-0.2,1,0.1 c0.3,0.3,0.2,0.8-0.1,1L9.7,48.7C9.5,48.8,9.4,48.8,9.2,48.8z"></path></g></g></g></g></svg>