<svg xmlns="http://www.w3.org/2000/svg" xmlns:xlink="http://www.w3.org/1999/xlink" version="1.1" id="Layer_1" x="0px" y="0px" width="45.9px" height="60px" viewBox="0 0 45.9 60" style="enable-background:new 0 0 45.9 60;" xml:space="preserve"><style type="text/css"> .st0 { fill: #0CB4C4; } </style><g><g><g><path class="st0" d="M22,51.2c0.2,0.3,0.5,0.4,0.9,0.4s0.7-0.2,0.9-0.4l14.8-20c6-8.1,4.8-19.4-2.6-26.1s-18.8-6.7-26.2,0 s-8.6,18-2.6,26.1L22,51.2z M10.7,7.2c6.4-6.4,16.7-6.7,23.5-0.8c6.8,5.9,8,16.1,2.7,23.4L22.9,48.6L9,29.8 C3.8,22.9,4.6,13.3,10.7,7.2z"></path><path class="st0" d="M38.6,39.1c-0.6-0.3-1.2,0-1.5,0.5c-0.1,0.3-0.1,0.6-0.1,0.9c0.1,0.3,0.3,0.5,0.6,0.6c3.8,1.8,6,4.3,6,6.8 c0,5.3-9.5,9.8-20.7,9.8S2.2,53.3,2.2,47.9c0-2.5,2-4.9,5.8-6.7c0.6-0.3,0.8-0.9,0.5-1.5C8.2,39.2,7.6,39,7,39.3 c-4.4,2.2-7,5.4-7,8.7c0,6.7,10.1,12,22.9,12s22.9-5.3,22.9-12C45.9,44.5,43.3,41.4,38.6,39.1z"></path></g></g><path class="st0" d="M30.4,7c-0.6-0.4-1.2-0.1-1.5,0.4l-4.5,7.9l-0.5-0.1c-0.6-0.1-1.2-0.1-1.9,0l-0.5,0.1L17,7.5 c-0.3-0.6-1-0.8-1.6-0.4c-2.2,1.3-4,3.1-5.3,5.3c-1.3,2.3-2,4.8-2,7.5c0,0.6,0.5,1.1,1.1,1.1l9.4,0l0.2,0.4c0.2,0.5,0.5,1,0.8,1.4 l0.3,0.4l-4.5,7.9l0,0l-0.2,0.3c-0.1,0.2-0.1,0.3-0.1,0.5c0,0.4,0.2,0.8,0.6,0.9c4.5,2.5,10.2,2.5,14.6,0l0.2-0.1 c0.3-0.2,0.5-0.5,0.5-0.9c0-0.2-0.1-0.4-0.2-0.6L26,23.1l0.3-0.4c0.4-0.4,0.7-0.9,0.9-1.4l0.2-0.4h9.3c0.6,0,1.1-0.5,1.1-1.1 c0-2.6-0.7-5.2-2-7.5C34.4,10.1,32.6,8.3,30.4,7z M19.4,16.8c-0.3,0.4-0.6,0.9-0.8,1.4l-0.2,0.5h-8.2l0.1-0.8 c0.2-1.6,0.8-3.2,1.6-4.6c0.8-1.3,1.8-2.5,3-3.5l0.6-0.5l4.1,7.1L19.4,16.8z M23,17.2c1.3,0,2.4,1.1,2.4,2.4c0,1.3-1.1,2.4-2.4,2.4 c-1.3,0-2.4-1.1-2.4-2.4C20.6,18.3,21.7,17.2,23,17.2z M28.3,31.3l-0.7,0.3c-1.5,0.6-3,0.9-4.7,0.9s-3.2-0.3-4.7-0.9l-0.7-0.3 l4.2-7.3l0.5,0.1c0.5,0.1,1,0.1,1.4,0l0.5-0.1L28.3,31.3z M27.5,18.7l-0.2-0.5c-0.2-0.6-0.5-1.1-0.8-1.5l-0.3-0.4l4-7l0.6,0.5 c1.2,1,2.2,2.1,3,3.5c0.8,1.4,1.4,2.9,1.6,4.6l0.1,0.8L27.5,18.7L27.5,18.7z"></path></g></svg>