<svg xmlns="http://www.w3.org/2000/svg" xmlns:xlink="http://www.w3.org/1999/xlink" version="1.1" id="Layer_1" x="0px" y="0px" width="60px" height="60px" viewBox="0 0 60 60" style="enable-background:new 0 0 60 60;" xml:space="preserve"><style type="text/css"> .st0 { fill: #0CB4C4; } </style><g><path class="st0" d="M46.2,30.7c-0.4,0-0.8,0.3-0.8,0.7c-0.8,8.5-8.3,14.8-16.8,14c-8.1-0.7-14.2-7.6-14.1-15.7 c0.2-8.2,7-15,15.2-15.2c6.7-0.1,12.8,4.1,14.9,10.4c0.1,0.4,0.6,0.6,0.9,0.4c0.4-0.1,0.6-0.5,0.5-0.9c-2.3-6.9-8.8-11.5-16-11.4 c-0.1,0-0.2,0-0.3,0c-9.3,0.2-16.8,7.9-16.6,17.2c0.2,9.2,7.7,16.6,16.9,16.6c0.1,0,0.2,0,0.3,0c8.6-0.2,15.7-6.8,16.5-15.4 C46.9,31.1,46.6,30.8,46.2,30.7z"></path><path class="st0" d="M45.3,28.1C45.3,28.1,45.3,28.1,45.3,28.1c0,0.4,0.4,0.7,0.7,0.7c0,0,0.1,0,0.1,0c0.4,0,0.7-0.4,0.7-0.8 s-0.4-0.7-0.8-0.7C45.6,27.3,45.3,27.7,45.3,28.1C45.3,28.1,45.3,28.1,45.3,28.1z"></path><path class="st0" d="M57.3,23.3L54.5,23c-0.6-0.1-1.1-0.5-1.3-1.1c-0.3-0.9-0.7-1.8-1.1-2.6c-0.3-0.5-0.2-1.2,0.2-1.7l1.7-2.2 c1-1.2,0.9-3-0.2-4.1l-5.2-5.2C47.5,5.1,45.8,5,44.6,6l-2.2,1.7c-0.5,0.4-1.1,0.4-1.7,0.2c-0.9-0.4-1.7-0.8-2.6-1.1 c-0.6-0.2-1-0.7-1.1-1.3l-0.3-2.8c-0.2-1.5-1.5-2.7-3-2.7h-7.3c-1.5,0-2.9,1.2-3,2.7L23,5.5c-0.1,0.6-0.5,1.1-1.1,1.3 c-0.9,0.3-1.8,0.7-2.6,1.1c-0.5,0.3-1.2,0.2-1.7-0.2L15.4,6c-1.2-1-3-0.9-4.1,0.2l-5.2,5.2C5.1,12.5,5,14.2,6,15.4l1.7,2.2 c0.4,0.5,0.4,1.1,0.2,1.7c-0.4,0.9-0.8,1.7-1.1,2.6c-0.2,0.6-0.7,1-1.3,1.1l-2.8,0.3c-1.5,0.2-2.7,1.5-2.7,3v7.3 c0,1.5,1.2,2.9,2.7,3L5.5,37c0.6,0.1,1.1,0.5,1.3,1.1c0.3,0.9,0.7,1.8,1.1,2.6c0.3,0.5,0.2,1.2-0.2,1.7L6,44.6 c-1,1.2-0.9,3,0.2,4.1l5.2,5.2c1.1,1.1,2.8,1.2,4.1,0.2l2.2-1.7c0.5-0.4,1.1-0.4,1.7-0.2c0.9,0.4,1.7,0.8,2.6,1.1 c0.6,0.2,1,0.7,1.1,1.3l0.3,2.8c0.2,1.5,1.5,2.7,3,2.7h7.3c1.5,0,2.9-1.2,3-2.7l0.3-2.8c0.1-0.6,0.5-1.1,1.1-1.3 c0.9-0.3,1.8-0.7,2.6-1.1c0.5-0.3,1.2-0.2,1.7,0.2l2.2,1.7c1.2,1,3,0.8,4.1-0.2l5.2-5.2c1.1-1.1,1.2-2.8,0.2-4.1l-1.7-2.2 c-0.4-0.5-0.4-1.1-0.2-1.7c0.6-1.1,1-2.3,1.4-3.6l3.8-0.5c1.5-0.2,2.7-1.5,2.7-3v-7.3C60,24.8,58.8,23.5,57.3,23.3z M58.5,33.6 c0,0.8-0.6,1.5-1.4,1.6l-4.3,0.5c-0.3,0-0.5,0.2-0.6,0.5c-0.4,1.3-0.8,2.6-1.4,3.8c-0.5,1.1-0.4,2.3,0.3,3.2l1.7,2.2 c0.5,0.6,0.4,1.5-0.1,2.1l-5.2,5.2c-0.6,0.6-1.5,0.6-2.1,0.1l-2.2-1.7c-0.9-0.7-2.2-0.9-3.2-0.3c-0.8,0.4-1.6,0.7-2.5,1 c-1.1,0.4-1.9,1.4-2,2.5l-0.3,2.8c-0.1,0.8-0.8,1.4-1.6,1.4h-7.3c-0.8,0-1.5-0.6-1.6-1.4l-0.3-2.8c-0.1-1.2-0.9-2.1-2-2.5 c-0.8-0.3-1.7-0.6-2.5-1c-0.4-0.2-0.9-0.3-1.3-0.3c-0.7,0-1.3,0.2-1.9,0.7l-2.2,1.7c-0.6,0.5-1.5,0.4-2.1-0.1l-5.2-5.2 c-0.6-0.6-0.6-1.5-0.1-2.1l1.7-2.2c0.7-0.9,0.9-2.2,0.3-3.2c-0.4-0.8-0.7-1.6-1-2.5c-0.4-1.1-1.4-1.9-2.5-2l-2.8-0.3 c-0.8-0.1-1.4-0.8-1.4-1.6v-7.3c0-0.8,0.6-1.5,1.4-1.6l2.8-0.3c1.2-0.1,2.1-0.9,2.5-2c0.3-0.8,0.6-1.7,1-2.5 c0.5-1.1,0.4-2.3-0.3-3.2l-1.7-2.2c-0.5-0.6-0.4-1.5,0.1-2.1l5.2-5.2c0.6-0.6,1.5-0.6,2.1-0.1l2.2,1.7c0.9,0.7,2.2,0.9,3.2,0.3 c0.8-0.4,1.6-0.7,2.5-1c1.1-0.4,1.9-1.4,2-2.5l0.3-2.8c0.1-0.8,0.8-1.4,1.6-1.4h7.3c0.8,0,1.5,0.6,1.6,1.4l0.3,2.8 c0.1,1.2,0.9,2.1,2,2.5c0.8,0.3,1.7,0.6,2.5,1c1.1,0.5,2.3,0.4,3.2-0.3l2.2-1.7c0.6-0.5,1.5-0.4,2.1,0.1l5.2,5.2 c0.6,0.6,0.6,1.5,0.1,2.1l-1.7,2.2c-0.7,0.9-0.9,2.2-0.3,3.2c0.4,0.8,0.7,1.6,1,2.5l0,0c0.4,1.1,1.4,1.9,2.5,2l2.8,0.3 c0.8,0.1,1.4,0.8,1.4,1.6L58.5,33.6z"></path><path class="st0" d="M30.7,26c0.2-0.1,0.5-0.3,0.7-0.4c0.9-0.6,1.9-1.2,2.9-1.7c-0.1,2.5-0.7,8.7-4.7,10.3c-0.4,0.2-0.6,0.6-0.4,1 c0.2,0.4,0.6,0.6,1,0.4l0,0c6-2.4,5.7-12.4,5.7-12.8c0-0.4-0.4-0.7-0.8-0.7c-0.1,0-0.2,0-0.2,0c-1.6,0.6-3,1.5-4.2,2.2 c-0.2,0.1-0.5,0.3-0.7,0.4c-2.2,1.4-3.9,3.5-4.7,6c-0.3,0.8-0.5,1.7-0.6,2.6c-0.2,1-0.7,1.8-1.5,2.4c-0.3,0.2-0.5,0.3-0.5,0.3 c-0.4,0.2-0.5,0.6-0.3,1s0.6,0.5,1,0.3c0.2-0.1,5.3-2.9,8-7.7c0.2-0.4,0.1-0.8-0.3-1c-0.4-0.2-0.8-0.1-1,0.3 c-1.1,1.9-2.6,3.4-3.9,4.6c0.1-0.8,0.3-1.5,0.5-2.3C27.3,29,28.7,27.1,30.7,26z"></path></g></svg>