<svg xmlns="http://www.w3.org/2000/svg" xmlns:xlink="http://www.w3.org/1999/xlink" version="1.1" id="Layer_1" x="0px" y="0px" width="60px" height="60px" viewBox="0 0 60 60" style="enable-background:new 0 0 60 60;" xml:space="preserve"><style type="text/css"> .st0 { fill: #0CB4C4; } </style><g><path class="st0" d="M41.6,23.2c-1.7,0-3.3,0.2-4.8,0.7V11.6h1.9V5.8h-2.2L34.6,0H23.5l-1.9,5.8H0v5.8h1.9V29H0v9.7h1.9v15.5H0V60 h41.6C51.8,60,60,51.8,60,41.6S51.8,23.2,41.6,23.2z M24.9,1.9h8.3l1.3,3.9H23.6L24.9,1.9z M3.9,11.6H31V9.7h-29V7.7h34.8v1.9h-3.9 v1.9h1.9v12.9c-2.5,1-4.8,2.6-6.6,4.5H3.9V11.6z M1.9,31h24.7c-0.4,0.6-0.9,1.3-1.2,1.9h-9.9v1.9h9.1c-0.3,0.6-0.5,1.3-0.6,1.9h-22 V31z M3.9,38.7h19.6c-0.2,0.9-0.3,1.9-0.3,2.9c0,4.9,1.9,9.3,5,12.6H3.9V38.7z M1.9,58.1v-1.9h28.4c1,0.7,2,1.4,3.1,1.9H1.9z M41.6,58.1c-9.1,0-16.5-7.4-16.5-16.5s7.4-16.5,16.5-16.5s16.5,7.4,16.5,16.5S50.7,58.1,41.6,58.1z"></path><path class="st0" d="M41.6,44.5c1.6,0,2.9-1.3,2.9-2.9s-1.3-2.9-2.9-2.9s-2.9,1.3-2.9,2.9S40,44.5,41.6,44.5z M41.6,40.6 c0.5,0,1,0.4,1,1s-0.4,1-1,1s-1-0.4-1-1S41.1,40.6,41.6,40.6z"></path><path class="st0" d="M42.8,47l4.2,6c-3.3,1.6-7.4,1.6-10.7,0l4.2-6l-1.6-1.1l-5.4,7.7l0.9,0.5c2.2,1.3,4.7,2,7.3,2s5-0.7,7.3-2 l0.9-0.5l-5.4-7.7L42.8,47z"></path><path class="st0" d="M54.2,34.4c-1.3-2.2-3.1-4-5.3-5.3l-0.9-0.5l-4,8.6l1.8,0.8l3.1-6.6c1.5,1.1,2.8,2.4,3.7,4 c0.9,1.6,1.5,3.4,1.6,5.2l-7.3-0.7l-0.2,1.9l9.4,0.8l0-1.1C56.1,39.1,55.5,36.6,54.2,34.4z"></path><path class="st0" d="M36.4,39.9l-7.3,0.7c0.2-1.8,0.7-3.6,1.6-5.2c0.9-1.6,2.2-3,3.7-4l3.1,6.6l1.8-0.8l-4-8.6L34.4,29 c-2.2,1.3-4.1,3.1-5.3,5.3c-1.3,2.2-1.9,4.7-1.9,7.3l0,1.1l9.4-0.8L36.4,39.9z"></path><rect x="5.8" y="13.5" class="st0" width="16.5" height="1.9"></rect><rect x="24.2" y="13.5" class="st0" width="1.9" height="1.9"></rect><rect x="3.9" y="32.9" class="st0" width="1.9" height="1.9"></rect><rect x="7.7" y="32.9" class="st0" width="1.9" height="1.9"></rect><rect x="11.6" y="32.9" class="st0" width="1.9" height="1.9"></rect></g></svg>