<svg xmlns="http://www.w3.org/2000/svg" xmlns:xlink="http://www.w3.org/1999/xlink" version="1.1" id="Layer_1" x="0px" y="0px" width="54px" height="60px" viewBox="0 0 54 60" style="enable-background:new 0 0 54 60;" xml:space="preserve"><style type="text/css"> .st0 { fill: #0CB4C4; } </style><g><g><path class="st0" d="M18.7,55.9c-0.1,0-0.2-0.1-0.4-0.1c-0.3-0.2-0.4-0.6-0.2-0.9c0.1-0.1,3.6-5.6,2.9-14.9 c-0.1-0.5,0.1-0.9,0.4-1.3c0.3-0.4,0.8-0.5,1.2-0.5h9.1c0.5,0,0.9,0.2,1.2,0.5c0.3,0.4,0.5,0.8,0.4,1.3 c-0.7,9.3,2.8,14.9,2.9,14.9c0.2,0.3,0.1,0.7-0.2,0.9c-0.3,0.2-0.7,0.1-0.9-0.2c-0.2-0.2-3.8-6-3.1-15.8c0-0.1-0.1-0.2-0.1-0.2 c-0.1-0.1-0.1-0.1-0.2-0.1h-9.1c-0.1,0-0.2,0.1-0.2,0.1c-0.1,0.1-0.1,0.1-0.1,0.2c0.8,9.8-2.9,15.5-3.1,15.8 C19.1,55.8,18.9,55.9,18.7,55.9z"></path></g><g><g><path class="st0" d="M26.4,36.1c-2.3,0-4.1-1.7-4.3-4c-0.1,0-0.3,0-0.4,0c-3.4,0-6.2-2.8-6.2-6.2c0-2.1,1.1-4,2.8-5.2 c-2.2-1.4-3.6-3.8-3.6-6.5c0-3.7,2.5-6.7,6-7.4c1.2-4.1,5-6.8,9.2-6.8c5.3,0,9.7,4.3,9.7,9.7c0,3.5-1.9,6.7-4.8,8.3 c1.4,1.4,2.2,3.3,2.2,5.3c0,3.7-2.7,6.9-6.3,7.5c0.1,0.3,0.1,0.6,0.1,0.9C30.7,34.1,28.8,36.1,26.4,36.1z M23.6,30.5l-0.1,1 c0,0.1,0,0.2,0,0.4c0,1.6,1.3,2.9,2.9,2.9s2.9-1.3,2.9-2.9c0-0.4-0.1-0.8-0.2-1.2l-0.4-0.9l1-0.1c3.3-0.2,5.9-2.9,5.9-6.3 c0-1.9-0.9-3.7-2.4-4.9l-0.8-0.7l1-0.5c3-1.3,4.9-4.3,4.9-7.6c0-4.6-3.7-8.3-8.3-8.3c-3.8,0-7.1,2.6-8,6.2L21.8,8L21.4,8 c-3.1,0.5-5.3,3.1-5.3,6.2c0,2.6,1.6,4.9,4,5.9l1.6,0.7L20,21.4c-1.9,0.7-3.1,2.5-3.1,4.5c0,2.6,2.2,4.9,4.9,4.9 c0.4,0,0.7-0.1,1-0.1L23.6,30.5z"></path></g><g><path class="st0" d="M23.9,14.5c-0.1,0-0.2-0.1-0.4-0.1c-4-2.5-2.9-7.1-2.9-7.1c0.1-0.4,0.4-0.6,0.8-0.5c0.4,0.1,0.6,0.4,0.5,0.8 c-0.1,0.2-0.8,3.7,2.3,5.6c0.3,0.2,0.4,0.6,0.2,0.9C24.3,14.3,24.1,14.5,23.9,14.5z"></path></g><g><path class="st0" d="M25,24c-0.2,0-0.5-0.2-0.6-0.4c-1.2-2.9-4.3-2.2-4.4-2.2c-0.4,0.1-0.7-0.1-0.8-0.5c-0.1-0.4,0.1-0.7,0.5-0.8 c1.5-0.4,4.7-0.3,6,2.9c0.1,0.4,0,0.7-0.4,0.9C25.1,24,25,24,25,24z"></path></g></g><g><path class="st0" d="M38.5,60H15.7v-3.8c0-0.9,0.7-1.6,1.6-1.6h19.6c0.9,0,1.6,0.7,1.6,1.6V60z M17.1,58.7h20.1v-2.5 c0-0.1-0.1-0.2-0.2-0.2H17.3c-0.1,0-0.2,0.1-0.2,0.2V58.7z"></path></g><g><path class="st0" d="M45.8,60h-7.9c-0.4,0-0.7-0.3-0.7-0.7c0-0.4,0.3-0.7,0.7-0.7h6.6v-15c0-0.4,0.3-0.7,0.7-0.7 c0.4,0,0.7,0.3,0.7,0.7C45.8,43.7,45.8,60,45.8,60z"></path></g><g><g><rect x="40.7" y="50.7" class="st0" width="1.3" height="1.5"></rect></g><g><rect x="40.7" y="46.8" class="st0" width="1.3" height="1.5"></rect></g><g><rect x="36.9" y="46.8" class="st0" width="1.3" height="1.5"></rect></g><g><rect x="40.7" y="54.6" class="st0" width="1.3" height="1.5"></rect></g></g><g><path class="st0" d="M45.1,44.3c-0.4,0-0.7-0.3-0.7-0.7v-4.4h-2.3v5.1h-4.3c-0.4,0-0.7-0.3-0.7-0.7c0-0.4,0.3-0.7,0.7-0.7h2.9 v-5.1h5v5.8C45.8,44,45.5,44.3,45.1,44.3z"></path></g><g><path class="st0" d="M16.1,60H8.2V43.7c0-0.4,0.3-0.7,0.7-0.7c0.4,0,0.7,0.3,0.7,0.7v15h6.6c0.4,0,0.7,0.3,0.7,0.7 C16.9,59.7,16.6,60,16.1,60z"></path></g><g><g><rect x="11.9" y="50.7" class="st0" width="1.3" height="1.5"></rect></g><g><rect x="11.9" y="46.8" class="st0" width="1.3" height="1.5"></rect></g><g><rect x="15.7" y="46.8" class="st0" width="1.3" height="1.5"></rect></g><g><rect x="11.9" y="54.6" class="st0" width="1.3" height="1.5"></rect></g></g><g><path class="st0" d="M16.1,44.3h-4.3v-5.1H9.5v4.4c0,0.4-0.3,0.7-0.7,0.7c-0.4,0-0.7-0.3-0.7-0.7v-5.8h5V43h2.9 c0.4,0,0.7,0.3,0.7,0.7C16.9,44,16.6,44.3,16.1,44.3z"></path></g><g><path class="st0" d="M54,60h-9.6V42.6H54V60z M45.8,58.7h6.9V44h-6.9V58.7z"></path></g><g><path class="st0" d="M9.5,60H0V42.6h9.6L9.5,60L9.5,60z M1.3,58.7h6.9V44H1.3V58.7z"></path></g><g><g><rect x="48" y="47.2" class="st0" width="2.5" height="1.3"></rect></g><g><rect x="48" y="50.6" class="st0" width="2.5" height="1.3"></rect></g><g><rect x="48" y="54.1" class="st0" width="2.5" height="1.3"></rect></g></g><g><g><rect x="3.5" y="47.2" class="st0" width="2.5" height="1.3"></rect></g><g><rect x="3.5" y="50.6" class="st0" width="2.5" height="1.3"></rect></g><g><rect x="3.5" y="54.1" class="st0" width="2.5" height="1.3"></rect></g></g></g></svg>