<svg xmlns="http://www.w3.org/2000/svg" id="Layer_1" data-name="Layer 1" width="54" height="60" viewBox="0 0 54 60"><defs><style> .cls-1 { fill: #0cb4c4; } </style></defs><path class="cls-1" d="M31,0H5A5,5,0,0,0,0,5V55a5,5,0,0,0,5,5H31a5,5,0,0,0,5-5V41h8a6,6,0,0,0,5.84-7.36,6,6,0,0,0-3.28-4.06A8,8,0,0,0,36,18.08V5a5,5,0,0,0-5-5Zm3,55a3,3,0,0,1-3,3H5a3,3,0,0,1-3-3V5A3,3,0,0,1,5,2H31a3,3,0,0,1,3,3V19.72a8.16,8.16,0,0,0-1.23,1.85,7.08,7.08,0,0,0-.77-.28V9a1,1,0,0,0-1-1H5A1,1,0,0,0,4,9V49a1,1,0,0,0,1,1H31a1,1,0,0,0,1-1V41h2ZM23.12,29.3A6,6,0,0,0,25,41h5v7H6V10H30V21a7,7,0,0,0-6.88,8.3ZM48,35a4,4,0,0,1-4,4H25a4,4,0,0,1-.52-8,1,1,0,0,0,.73-.47,1,1,0,0,0,.09-.86,5,5,0,0,1,.22-3.93,5,5,0,0,1,6.92-2.13,5,5,0,0,1,2.4,3.11,1,1,0,0,0,.55.66,1,1,0,0,0,.86,0,4,4,0,0,1,5.69,2.89,1,1,0,0,0,.43.66,1,1,0,0,0,.77.14A4,4,0,0,1,48,35ZM40,19a6,6,0,0,1,4.45,10L44,29h-.34a6,6,0,0,0-7.24-3.8,6.83,6.83,0,0,0-1.93-2.58A6,6,0,0,1,40,19Z"></path><path class="cls-1" d="M20,54a2,2,0,1,1-2-2,2,2,0,0,1,2,2"></path><path class="cls-1" d="M15,5a1,1,0,1,1-1-1,1,1,0,0,1,1,1"></path><path class="cls-1" d="M18,6h5a1,1,0,0,0,0-2H18a1,1,0,0,0,0,2Z"></path><path class="cls-1" d="M42,14V12a1,1,0,0,0-2,0v2a1,1,0,0,0,2,0Z"></path><path class="cls-1" d="M50,27a1,1,0,0,0,1,1h2a1,1,0,0,0,0-2H51A1,1,0,0,0,50,27Z"></path><path class="cls-1" d="M50.29,15.29l-2,2a1,1,0,0,0,1.42,1.42l2-2a1,1,0,0,0-1.42-1.42Z"></path><path class="cls-1" d="M9,18h4a1,1,0,0,0,0-2H9a1,1,0,0,0,0,2Z"></path><path class="cls-1" d="M17,22H9a1,1,0,0,0,0,2h8a1,1,0,0,0,0-2Z"></path><path class="cls-1" d="M9,30h2a1,1,0,0,0,0-2H9a1,1,0,0,0,0,2Z"></path><path class="cls-1" d="M17,28H15a1,1,0,0,0,0,2h2a1,1,0,0,0,0-2Z"></path><path class="cls-1" d="M9,36h4a1,1,0,0,0,0-2H9a1,1,0,0,0,0,2Z"></path><path class="cls-1" d="M15,40H9a1,1,0,0,0,0,2h6a1,1,0,0,0,0-2Z"></path><path class="cls-1" d="M19,16H17a1,1,0,0,0,0,2h2a1,1,0,0,0,0-2Z"></path></svg>