<svg xmlns="http://www.w3.org/2000/svg" xmlns:xlink="http://www.w3.org/1999/xlink" version="1.1" id="Layer_1" x="0px" y="0px" width="61.8px" height="60px" viewBox="0 0 61.8 60" style="enable-background:new 0 0 61.8 60;" xml:space="preserve"><style type="text/css"> .st0 { fill: #0CB4C4; } </style><g><path class="st0" d="M52.5,32v-8.8c0-1-0.4-1.9-1-2.6c0.7-0.5,1.1-1.4,1-2.2V2.8c0-1.5-1.3-2.8-2.8-2.8H2.8C1.3,0,0,1.3,0,2.8v15.6 c0,0.8,0.4,1.6,1,2.2c-0.7,0.7-1,1.7-1,2.7v13.5c0,1.1,0.5,2.2,1.3,2.9C0.5,40.4,0,41.4,0,42.5v13.6C0,58.3,1.7,60,3.9,60h44.9 c0.5,0,0.9-0.1,1.4-0.3c7.8-1.6,12.9-9.2,11.4-17C60.5,37.8,57.1,33.8,52.5,32z M1.9,2.8c0-0.5,0.4-1,1-1h46.9c0.5,0,1,0.4,1,1 v15.6c0,0.5-0.4,1-1,1H2.8c-0.5,0-1-0.4-1-1L1.9,2.8z M1.9,23.2c0-1.1,0.9-1.9,1.9-1.9h45c1,0,1.9,0.9,1.9,1.9v8.2 c-1.1-0.3-2.2-0.4-3.4-0.4c-5.4,0-10.3,3-12.8,7.7H3.9c-1.1,0-1.9-0.9-1.9-1.9L1.9,23.2z M3.9,58.1c-1.1,0-1.9-0.9-1.9-1.9V42.5 c0-1.1,0.9-1.9,1.9-1.9h29.8c-0.6,1.6-0.9,3.2-0.9,4.9c0,5.2,2.8,10,7.4,12.6H3.9z M47.3,58.1c-7,0-12.6-5.6-12.6-12.6 c0-7,5.6-12.6,12.6-12.6c7,0,12.6,5.6,12.6,12.6c0,0,0,0,0,0C59.9,52.5,54.2,58.1,47.3,58.1z M50.8,41.6L45.4,47l-1.7-1.7 c-0.4-0.4-1.1-0.4-1.6,0c-0.4,0.4-0.4,1.1,0,1.6l2.5,2.5c0.2,0.2,0.5,0.3,0.8,0.3s0.6-0.1,0.8-0.3l6.2-6.2c0.4-0.4,0.4-1.1,0-1.6 C52,41.2,51.3,41.2,50.8,41.6z"></path><path class="st0" d="M8.9,11.6h3.4c0.5,0.1,1-0.2,1.2-0.7c0.1-0.5-0.2-1-0.7-1.2c-0.2,0-0.3,0-0.5,0H8.9c-0.5-0.1-1,0.2-1.2,0.7 c-0.1,0.5,0.2,1,0.7,1.2C8.6,11.6,8.7,11.6,8.9,11.6z"></path><path class="st0" d="M8.9,15.5h3.4c0.5,0.1,1-0.2,1.2-0.7c0.1-0.5-0.2-1-0.7-1.2c-0.2,0-0.3,0-0.5,0H8.9c-0.5-0.1-1,0.2-1.2,0.7 c-0.1,0.5,0.2,1,0.7,1.2C8.5,15.6,8.7,15.6,8.9,15.5z"></path><path class="st0" d="M8.9,30.1h3.4c0.5-0.1,0.8-0.7,0.7-1.2c-0.1-0.3-0.4-0.6-0.7-0.7H8.9c-0.5,0.1-0.8,0.7-0.7,1.2 C8.3,29.8,8.5,30.1,8.9,30.1z"></path><path class="st0" d="M8.9,34.5h3.4c0.5,0.1,1-0.2,1.2-0.7c0.1-0.5-0.2-1-0.7-1.2c-0.2,0-0.3,0-0.5,0H8.9c-0.5-0.1-1,0.2-1.2,0.7 c-0.1,0.5,0.2,1,0.7,1.2C8.6,34.5,8.7,34.5,8.9,34.5z"></path><path class="st0" d="M12.3,51.4H8.9C8.4,51.5,8,52,8.2,52.5c0.1,0.3,0.4,0.6,0.7,0.7h3.4c0.5-0.1,0.8-0.7,0.7-1.2 C12.9,51.7,12.6,51.5,12.3,51.4z"></path><path class="st0" d="M12.3,47.6H8.9c-0.5-0.1-1,0.2-1.2,0.7c-0.1,0.5,0.2,1,0.7,1.2c0.2,0,0.3,0,0.5,0h3.4c0.5,0.1,1-0.2,1.2-0.7 s-0.2-1-0.7-1.2C12.6,47.5,12.4,47.5,12.3,47.6z"></path></g></svg>