<svg xmlns="http://www.w3.org/2000/svg" id="Layer_1" data-name="Layer 1" width="60" height="60" viewBox="0 0 60 60"><defs><style> .cls-1 { fill: #0cb4c4; } </style></defs><path class="cls-1" d="M55.85,0H4.15A4.18,4.18,0,0,0,1.22,1.22C.44,2,0,3.05,0,5.15v51.7a5.48,5.48,0,0,0,1.22,1.93A4.18,4.18,0,0,0,4.15,60h51.7a4.18,4.18,0,0,0,2.93-1.22A5.48,5.48,0,0,0,60,56.85V5.15c0-2.1-.44-3.15-1.22-3.93A4.18,4.18,0,0,0,55.85,0Zm2.36,55.85a2.39,2.39,0,0,1-2.36,2.36H4.15a2.39,2.39,0,0,1-2.36-2.36v-8.4a14.27,14.27,0,0,0,2.77.25H23.79a10.91,10.91,0,0,0,2.06,2.07l.17.14a12.19,12.19,0,0,0,3.33,1.84,12.37,12.37,0,0,0,4.38.78H55.45a15.1,15.1,0,0,0,2.77-.25ZM32.83,29a8.21,8.21,0,0,1,1-.05,10.37,10.37,0,0,1,1.47.1l-1.72,1.71h0A.91.91,0,1,0,34.85,32l2.53-2.5a9,9,0,0,1,1.74.75L24.22,45.15a12,12,0,0,1-.77-1.72l8.16-8.15h0A.92.92,0,0,0,30.33,34L23,41.39a10.41,10.41,0,0,1-.1-1.48V39Zm-9,6.46h0a10.75,10.75,0,0,1,5.59-5.59ZM52.54,24.37h0A13.5,13.5,0,0,1,55.37,24L29.53,49.89A8.3,8.3,0,0,1,27.89,49Zm-8.31,5.75a13.81,13.81,0,0,1,3.92-3.92ZM26.45,47.92a8.76,8.76,0,0,1-1.2-1.31l15.36-15.3a9.21,9.21,0,0,1,1.13,1l.17.18Zm31.76,2.57h0a12.9,12.9,0,0,1-1.75.23L58.21,49Zm0-4.05-4.34,4.33H51.38l6.83-6.84Zm0-10.09-7.85,7.88a.92.92,0,0,0,0,1.27.93.93,0,0,0,1.28,0l6.57-6.57v2.53l-9.38,9.35h-2.5L48.18,49a.94.94,0,0,0-.13-1.15.92.92,0,0,0-1.15-.13l-3.09,3.09H41.28L58.21,33.89Zm0-5L38.74,50.81H36.23l22-22Zm0-5L33.69,50.81a10.62,10.62,0,0,1-2.24-.26L57.69,24.28l.48.09Zm0-3.75a4.72,4.72,0,0,1-.64-.1h0a15,15,0,0,0-5.59.28.31.31,0,0,0-.19,0,15.22,15.22,0,0,0-9.61,7.45c-.35-.29-.72-.57-1.08-.83H41a12.52,12.52,0,0,0-3.54-1.68h-.17a7.54,7.54,0,0,0-.82-.2,11.62,11.62,0,0,0-1.59-1.77,12.72,12.72,0,0,0-17-.32,15.26,15.26,0,0,0-9.59-7.46.92.92,0,0,0-.49,1.71,13.53,13.53,0,0,1,9,7.57l.54,1.24.92-1A11,11,0,0,1,33.65,27l.18.17h0a8.05,8.05,0,0,0-1.39.09.49.49,0,0,0-.17,0,12.67,12.67,0,0,0-10.92,10c-.06.33-.13.68-.17,1v.34c0,.4-.05.81-.05,1.23h0a12.5,12.5,0,0,0,.42,3.45v.17a12.55,12.55,0,0,0,1.07,2.43H4.55a13.56,13.56,0,0,1-2.77-.28V19.47a13.6,13.6,0,0,1,2.7-.28.92.92,0,0,0,0-1.79,14.15,14.15,0,0,0-2.68.26V4.15a2.36,2.36,0,0,1,.69-1.66,2.41,2.41,0,0,1,1.66-.7h51.7a2.39,2.39,0,0,1,2.36,2.36Z"></path><rect class="cls-1" x="1.78" y="11.59" width="56.43" height="2"></rect><path class="cls-1" d="M15.51,3.93a2.88,2.88,0,0,0-2.86,2.86,2.87,2.87,0,1,0,5.73,0A2.89,2.89,0,0,0,15.51,3.93Zm0,3.79a.93.93,0,1,1,.93-.93A.91.91,0,0,1,15.51,7.72Z"></path><path class="cls-1" d="M23,3.93a2.89,2.89,0,0,0-2.87,2.86A2.87,2.87,0,1,0,23,3.93Zm0,3.79A.93.93,0,1,1,24,6.79.87.87,0,0,1,23,7.72Z"></path><path class="cls-1" d="M7.92,3.93A2.88,2.88,0,0,0,5.06,6.79a2.86,2.86,0,1,0,5.72,0A2.88,2.88,0,0,0,7.92,3.93Zm0,3.79a.93.93,0,1,1,.93-.93A.91.91,0,0,1,7.92,7.72Z"></path></svg>