<svg xmlns="http://www.w3.org/2000/svg" xmlns:xlink="http://www.w3.org/1999/xlink" version="1.1" id="Layer_1" x="0px" y="0px" width="60px" height="60px" viewBox="0 0 60 60" style="enable-background:new 0 0 60 60;" xml:space="preserve"><g><path style="fill:#0CB4C4;" d="M24.823,0c0.72,0,1.391,0.295,1.887,0.83l3.112,3.316c0.108,0.118,0.248,0.179,0.413,0.179h12.673 c1.421,0,2.577,1.16,2.577,2.589v14.363c0,1.421-1.156,2.577-2.577,2.577H17.092c-1.421,0-2.577-1.156-2.577-2.577V2.59 c0-1.429,1.156-2.59,2.577-2.59H24.823z M43.472,6.338H30.235c-0.727,0-1.397-0.29-1.886-0.817l-3.112-3.317 c-0.144-0.156-0.305-0.189-0.414-0.189h-7.731c-0.311,0-0.563,0.259-0.563,0.576v19.252h26.943V6.338z"></path><path style="fill:#0CB4C4;" d="M53.25,11.938c0.746,0,1.352,0.608,1.352,1.355v2.11h4.392c0.555,0,1.007,0.451,1.007,1.007v18.074 c0,0.554-0.452,1.006-1.007,1.006H44.739l-14.334,6.352c-0.129,0.057-0.268,0.086-0.41,0.086s-0.28-0.029-0.409-0.087 l-14.243-6.333L2.013,35.49v16.059h3.385v-2.102c0-0.75,0.607-1.36,1.354-1.36c0.291,0,0.569,0.091,0.804,0.266l4.258,3.114 c0.346,0.254,0.553,0.662,0.553,1.092c0,0.431-0.205,0.84-0.548,1.093L7.55,56.765c-0.218,0.17-0.508,0.266-0.801,0.266 c-0.746,0-1.352-0.608-1.352-1.356v-2.111H1.006C0.451,53.563,0,53.111,0,52.556V34.484c0-0.556,0.451-1.007,1.006-1.007h14.263 l14.316-6.352c0.13-0.058,0.268-0.087,0.41-0.087s0.279,0.029,0.409,0.087l14.245,6.334l13.337,0.018V17.417h-3.385v2.102 c0,0.752-0.607,1.362-1.354,1.362c-0.291,0-0.569-0.093-0.805-0.268L48.186,17.5c-0.346-0.255-0.553-0.663-0.553-1.094 c0-0.43,0.206-0.839,0.55-1.092l4.266-3.112C52.664,12.034,52.96,11.938,53.25,11.938z M52.588,14.594l-2.486,1.813l2.486,1.819 V14.594z M42,34.485l-12.004-5.338l-11.997,5.338l11.997,5.334L42,34.485z M9.899,52.56L7.411,50.74v3.634L9.899,52.56z"></path><polygon style="fill:#0CB4C4;" points="26.672,33.791 26.615,35.232 25.174,35.176 25.229,33.791 "></polygon><polygon style="fill:#0CB4C4;" points="30.75,33.792 30.694,35.233 29.253,35.176 29.308,33.792 "></polygon><polygon style="fill:#0CB4C4;" points="34.826,33.791 34.77,35.232 33.328,35.176 33.383,33.791 "></polygon><path style="fill:#0CB4C4;" d="M44.479,45.111c0.555,0,1.006,0.451,1.006,1.007v12.875c0,0.556-0.452,1.007-1.006,1.007H15.521 c-0.555,0-1.007-0.451-1.007-1.007V46.118c0-0.556,0.452-1.007,1.007-1.007H44.479z M43.472,47.125H16.528v10.861h26.943V47.125z"></path><polygon style="fill:#0CB4C4;" points="24.325,51.233 24.371,53.833 21.772,53.878 21.726,51.3 21.772,51.233 "></polygon><polygon style="fill:#0CB4C4;" points="31.276,51.233 31.322,53.833 28.723,53.878 28.677,51.3 28.723,51.233 "></polygon><polygon style="fill:#0CB4C4;" points="38.228,51.233 38.274,53.833 35.674,53.878 35.629,51.3 35.674,51.233 "></polygon><polygon style="fill:#0CB4C4;" points="24.325,12.767 24.371,15.367 21.772,15.412 21.726,12.834 21.772,12.767 "></polygon><polygon style="fill:#0CB4C4;" points="31.276,12.767 31.322,15.367 28.723,15.412 28.677,12.834 28.723,12.767 "></polygon><polygon style="fill:#0CB4C4;" points="38.228,12.767 38.274,15.367 35.674,15.412 35.629,12.834 35.674,12.767 "></polygon></g></svg>