<svg width="55" height="60" viewBox="0 0 55 60" fill="none" xmlns="http://www.w3.org/2000/svg"><path d="M54.0105 29.9955C54.0105 20.7087 49.3337 12.1995 41.4799 7.21173C40.9578 6.87847 40.2802 7.03399 39.947 7.5561C39.6137 8.0782 39.7692 8.75583 40.2913 9.08909C47.4897 13.6658 51.7888 21.4863 51.7888 30.0066C51.7888 42.7038 42.1798 53.2015 29.8603 54.6234L30.7823 53.7013C31.2156 53.2681 31.2156 52.5683 30.7823 52.135C30.3491 51.7018 29.6493 51.7018 29.216 52.135L26.2278 55.1233C26.1278 55.2232 26.0389 55.3454 25.9834 55.4898C25.9279 55.6231 25.8945 55.7676 25.8945 55.912C25.8945 56.0564 25.9279 56.2008 25.9834 56.3341C26.0389 56.4674 26.1167 56.5896 26.2278 56.6896L29.216 59.6778C29.4382 59.9 29.7159 59.9999 30.0047 59.9999C30.2936 59.9999 30.5713 59.8889 30.7934 59.6778C31.2267 59.2446 31.2267 58.5447 30.7934 58.1115L29.5826 56.9006C43.2795 55.612 54.0327 44.0479 54.0327 30.0177L54.0105 29.9955Z" fill="#0CB4C4"></path><path d="M13.7192 50.9136C6.52077 46.3369 2.22173 38.5164 2.22173 29.9961C2.22173 17.2989 11.8307 6.80126 24.1502 5.37936L23.2281 6.30137C22.7949 6.73461 22.7949 7.43445 23.2281 7.86769C23.4503 8.08986 23.728 8.18984 24.0169 8.18984C24.3057 8.18984 24.5834 8.07875 24.8056 7.86769L27.7938 4.87947C27.8938 4.77949 27.9826 4.65729 28.0382 4.51288C28.0937 4.37958 28.1271 4.23517 28.1271 4.09075C28.1271 3.94634 28.0937 3.80193 28.0382 3.66863C27.9826 3.53532 27.9049 3.41313 27.7938 3.31315L24.8056 0.324927C24.3723 -0.108309 23.6725 -0.108309 23.2393 0.324927C22.806 0.758164 22.806 1.45801 23.2393 1.89124L24.4501 3.10209C10.7532 4.39069 0 15.9548 0 29.985C0 39.2718 4.68784 47.781 12.5305 52.7688C12.7194 52.891 12.9193 52.9465 13.1304 52.9465C13.497 52.9465 13.8525 52.7688 14.0635 52.4355C14.3968 51.9134 14.2413 51.2358 13.7192 50.9025V50.9136Z" fill="#0CB4C4"></path><path d="M25.8732 38.2944L24.2735 36.6948L26.5175 34.4508L29.9833 37.9167C29.1835 40.5384 29.85 43.3933 31.8274 45.3595C33.2604 46.7925 35.1489 47.5479 37.0929 47.5479C38.0704 47.5479 39.048 47.3591 39.9922 46.9592C40.0589 46.9258 40.1144 46.8814 40.17 46.837C40.2255 46.7925 40.2922 46.7703 40.3477 46.7148C40.4366 46.6148 40.5143 46.5037 40.5699 46.3926C40.6365 46.2482 40.6698 46.1038 40.6698 45.9594C40.6698 45.9594 40.6698 45.9594 40.6698 45.9483C40.6698 45.8039 40.6365 45.6595 40.581 45.5262C40.5588 45.4706 40.5143 45.4262 40.481 45.3817C40.4366 45.3151 40.4032 45.2373 40.3477 45.1707L37.5372 42.3602L38.437 41.4604L39.3368 40.5606L42.1362 43.36C42.1806 43.4155 42.2362 43.4377 42.2917 43.4711C42.3584 43.5155 42.4139 43.571 42.4917 43.6044C42.6027 43.6488 42.7249 43.671 42.8471 43.6821C42.8694 43.6821 42.8916 43.6932 42.9138 43.6932C43.0471 43.6932 43.1693 43.6599 43.2915 43.6155C43.3248 43.6044 43.3581 43.5821 43.3915 43.571C43.4803 43.5266 43.5692 43.4711 43.647 43.4044C43.6692 43.3933 43.6914 43.3822 43.7025 43.3711C43.7025 43.3711 43.7136 43.3489 43.7247 43.3378C43.8136 43.2489 43.8914 43.1378 43.9469 43.0156C43.9469 43.0156 43.9469 43.0045 43.9469 42.9934C45.1244 40.1829 44.4912 36.9947 42.3473 34.8397C40.3699 32.8623 37.5261 32.1958 34.9045 32.9956L31.4386 29.5297L37.0151 23.9532L40.3477 22.8423C40.6032 22.7535 40.8143 22.5868 40.9476 22.3647L44.5357 16.3993C44.8023 15.9661 44.7245 15.3995 44.369 15.0441L43.1804 13.8443L41.9807 12.6557C41.6141 12.3002 41.0586 12.2336 40.6254 12.4891L34.649 16.0772C34.4268 16.2105 34.2491 16.4215 34.1713 16.677L33.0493 20.0096L27.4728 25.5862L24.0069 22.1203C24.8067 19.4986 24.1402 16.6437 22.1629 14.6775C20.0078 12.5224 16.8196 11.9003 14.0091 13.0778C14.0091 13.0778 14.0091 13.0778 13.998 13.0778C13.9203 13.1112 13.8758 13.1667 13.8092 13.2111C13.7536 13.2445 13.6981 13.2667 13.6425 13.3222C13.5426 13.4222 13.4648 13.5444 13.4093 13.6666C13.3982 13.6999 13.387 13.7444 13.3759 13.7777C13.3426 13.8999 13.3204 14.0221 13.3204 14.1554C13.3204 14.2776 13.3426 14.4109 13.3982 14.522C13.4315 14.5886 13.4759 14.6442 13.5204 14.6997C13.5648 14.7552 13.587 14.8219 13.6425 14.8774L16.453 17.6879L15.5532 18.5877L14.6534 19.4875L11.8541 16.6881C11.8096 16.6326 11.743 16.6104 11.6874 16.566C11.6208 16.5215 11.5763 16.466 11.4986 16.4438C11.3653 16.3882 11.232 16.366 11.0987 16.366C11.032 16.366 10.9765 16.3882 10.9098 16.3993C10.8098 16.4104 10.721 16.4326 10.6321 16.466C10.5099 16.5215 10.3988 16.5882 10.2988 16.6881C10.2433 16.7437 10.2211 16.8103 10.1767 16.8659C10.1322 16.9214 10.0878 16.977 10.0545 17.0436C10.0545 17.0436 10.0545 17.0436 10.0545 17.0547C8.87694 19.8652 9.51014 23.0645 11.6541 25.2085C13.0871 26.6415 14.9756 27.3969 16.9196 27.3969C17.6528 27.3969 18.397 27.2858 19.1191 27.0636L22.5628 30.5073L20.3188 32.7512L18.7192 31.1516C18.286 30.7183 17.5861 30.7183 17.1529 31.1516C16.7196 31.5848 16.7196 32.2847 17.1529 32.7179L17.5639 33.1289L10.6321 40.0607C9.78785 40.905 9.32129 42.038 9.32129 43.2378C9.32129 44.4375 9.78785 45.5595 10.6321 46.4148C11.4764 47.2591 12.6094 47.7257 13.8092 47.7257C15.0089 47.7257 16.1309 47.2591 16.9862 46.4148L23.918 39.4831L24.3291 39.8941C24.5512 40.1163 24.8289 40.2162 25.1178 40.2162C25.4066 40.2162 25.6843 40.1051 25.9065 39.8941C26.3397 39.4608 26.3397 38.761 25.9065 38.3278L25.8732 38.2944ZM34.8156 21.3538C34.9378 21.2316 35.0267 21.0872 35.0822 20.9205L36.1486 17.7213L41.0253 14.7886L41.603 15.3662L42.1806 15.955L39.2479 20.8317L36.0487 21.8981C35.882 21.9536 35.7376 22.0425 35.6154 22.1647L29.85 27.9301L29.028 27.108L34.7934 21.3427L34.8156 21.3538ZM13.2093 23.6088C12.1318 22.5313 11.6097 21.0872 11.6985 19.6319L13.8869 21.8203C14.098 22.0314 14.3757 22.1425 14.6756 22.1425C14.9756 22.1425 15.2533 22.0203 15.4644 21.8203L17.1418 20.1429L18.8192 18.4655C19.2524 18.0323 19.2524 17.3324 18.8192 16.8992L16.6308 14.7108C18.086 14.633 19.5301 15.1552 20.6077 16.2216C22.1184 17.7324 22.5628 19.9874 21.7296 21.9647C21.6852 22.0869 21.663 22.2091 21.6519 22.3313C21.6519 22.4646 21.663 22.5979 21.7074 22.7312C21.7074 22.7535 21.7074 22.7868 21.7296 22.809C21.7852 22.9423 21.8629 23.0645 21.9629 23.1645L33.8269 35.0285C33.9158 35.1174 34.0158 35.1729 34.1269 35.2285C34.2824 35.3062 34.449 35.3506 34.6156 35.3506C34.7601 35.3506 34.9045 35.3173 35.0378 35.2618C37.0151 34.4286 39.2702 34.8619 40.7809 36.3838C41.8585 37.4613 42.3806 38.9054 42.2917 40.3606L40.1033 38.1722C39.8922 37.9612 39.6145 37.8501 39.3146 37.8501C39.0147 37.8501 38.7369 37.9723 38.5259 38.1722L36.8485 39.8496L35.1711 41.527C34.96 41.7381 34.8489 42.0158 34.8489 42.3158C34.8489 42.6157 34.9711 42.8934 35.1711 43.1045L37.3595 45.2929C35.9042 45.3706 34.4601 44.8485 33.3826 43.7821C31.8718 42.2713 31.4275 40.0163 32.2606 38.0389C32.3162 37.9056 32.3495 37.7612 32.3495 37.6168C32.3495 37.6168 32.3495 37.6057 32.3495 37.5946C32.3495 37.4502 32.3162 37.3058 32.2495 37.1614C32.194 37.0392 32.1273 36.9281 32.0273 36.8392L20.1744 24.9752C20.0856 24.8863 19.9856 24.8308 19.8745 24.7752C19.5857 24.6308 19.2635 24.6086 18.9636 24.7308C16.9862 25.5639 14.7312 25.1307 13.2204 23.6088H13.2093ZM24.94 32.8734L22.6961 35.1174L22.2851 34.7063L21.874 34.2953L24.118 32.0514L24.94 32.8734ZM15.3866 44.8152C14.5312 45.6706 13.0316 45.6706 12.1762 44.8152C11.743 44.382 11.5097 43.8154 11.5097 43.2156C11.5097 42.6157 11.743 42.038 12.1762 41.6159L19.108 34.6841L22.3184 37.8945L15.3866 44.8263V44.8152Z" fill="#0CB4C4"></path></svg>