<svg width="65" height="61" viewBox="0 0 65 61" fill="none" xmlns="http://www.w3.org/2000/svg"><title>Booking and Reservation Systems</title><path d="M61.0387 0.150391H3.76395C2.78259 0.151454 1.84174 0.539405 1.14781 1.22912C0.453887 1.91884 0.06357 2.854 0.0625 3.82941V39.7932C0.0626961 39.8503 0.0676539 39.9071 0.0773221 39.9633H0.0625V43.9343C0.0628564 44.8246 0.418645 45.6783 1.05175 46.3081C1.68485 46.9379 2.54352 47.2922 3.43921 47.2932H26.7744L25.4808 53.7218H23.7777C22.3482 53.7218 20.9773 54.2862 19.9665 55.2909C18.9557 56.2955 18.3878 57.6582 18.3878 59.079C18.3878 59.3631 18.5014 59.6356 18.7036 59.8366C18.9057 60.0375 19.1799 60.1504 19.4658 60.1504H45.3369C45.6228 60.1504 45.897 60.0375 46.0991 59.8366C46.3013 59.6356 46.4148 59.3631 46.4148 59.079C46.4148 57.6582 45.847 56.2955 44.8362 55.2909C43.8254 54.2862 42.4545 53.7218 41.025 53.7218H39.3219L38.0283 47.2932H61.3635C62.2587 47.2922 63.117 46.9382 63.75 46.3091C64.383 45.6799 64.7391 44.8268 64.7402 43.937V3.82941C64.7391 2.854 64.3488 1.91884 63.6549 1.22912C62.961 0.539405 62.0201 0.151454 61.0387 0.150391ZM41.025 55.8647C41.6938 55.8646 42.3462 56.0706 42.8923 56.4544C43.4384 56.8382 43.8514 57.3808 44.0743 58.0075H20.7284C20.9513 57.3808 21.3643 56.8382 21.9104 56.4544C22.4565 56.0706 23.1088 55.8646 23.7777 55.8647H41.025ZM27.6853 53.7218L28.9788 47.2932H35.8347L37.1282 53.7218H27.6853ZM62.5843 43.937C62.5843 44.2588 62.4557 44.5674 62.2267 44.795C61.9978 45.0225 61.6873 45.1504 61.3635 45.1504H3.43921C3.11544 45.1504 2.80493 45.0225 2.57598 44.795C2.34704 44.5674 2.21842 44.2588 2.21842 43.937V40.8647H62.5843V43.937ZM62.5843 38.7218H2.21842V3.82941C2.21914 3.42221 2.3822 3.03189 2.67188 2.74396C2.96157 2.45603 3.35427 2.29396 3.76395 2.29325H61.0387C61.4484 2.29396 61.8411 2.45603 62.1308 2.74396C62.4205 3.03189 62.5836 3.42221 62.5843 3.82941V38.7218Z" fill="#0CB4C4"></path><path d="M27.0112 4.43652H5.45199C5.16609 4.43652 4.89191 4.54941 4.68975 4.75034C4.48759 4.95127 4.37402 5.22379 4.37402 5.50795V35.508C4.37402 35.7921 4.48759 36.0646 4.68975 36.2656C4.89191 36.4665 5.16609 36.5794 5.45199 36.5794H27.0112C27.2971 36.5794 27.5713 36.4665 27.7735 36.2656C27.9756 36.0646 28.0892 35.7921 28.0892 35.508V5.50795C28.0892 5.22379 27.9756 4.95127 27.7735 4.75034C27.5713 4.54941 27.2971 4.43652 27.0112 4.43652ZM18.3875 34.4365H14.0757V30.1508H18.3875V34.4365ZM25.9333 34.4365H20.5434V29.0794C20.5434 28.7952 20.4299 28.5227 20.2277 28.3218C20.0256 28.1208 19.7514 28.008 19.4655 28.008H12.9977C12.7118 28.008 12.4376 28.1208 12.2355 28.3218C12.0333 28.5227 11.9198 28.7952 11.9198 29.0794V34.4365H6.52995V6.57938H25.9333V34.4365Z" fill="#0CB4C4"></path><path d="M9.76449 13.0075H14.0763C14.3622 13.0075 14.6364 12.8947 14.8386 12.6937C15.0407 12.4928 15.1543 12.2203 15.1543 11.9361V8.72182C15.1543 8.43766 15.0407 8.16514 14.8386 7.9642C14.6364 7.76327 14.3622 7.65039 14.0763 7.65039H9.76449C9.47859 7.65039 9.20441 7.76327 9.00225 7.9642C8.80009 8.16514 8.68652 8.43766 8.68652 8.72182V11.9361C8.68652 12.2203 8.80009 12.4928 9.00225 12.6937C9.20441 12.8947 9.47859 13.0075 9.76449 13.0075ZM10.8424 9.79325H12.9984V10.8647H10.8424V9.79325Z" fill="#0CB4C4"></path><path d="M9.76449 19.4362H14.0763C14.3622 19.4362 14.6364 19.3234 14.8386 19.1224C15.0407 18.9215 15.1543 18.649 15.1543 18.3648V15.1505C15.1543 14.8664 15.0407 14.5938 14.8386 14.3929C14.6364 14.192 14.3622 14.0791 14.0763 14.0791H9.76449C9.47859 14.0791 9.20441 14.192 9.00225 14.3929C8.80009 14.5938 8.68652 14.8664 8.68652 15.1505V18.3648C8.68652 18.649 8.80009 18.9215 9.00225 19.1224C9.20441 19.3234 9.47859 19.4362 9.76449 19.4362ZM10.8424 16.222H12.9984V17.2934H10.8424V16.222Z" fill="#0CB4C4"></path><path d="M9.76449 25.865H14.0763C14.3622 25.865 14.6364 25.7521 14.8386 25.5511C15.0407 25.3502 15.1543 25.0777 15.1543 24.7935V21.5792C15.1543 21.2951 15.0407 21.0226 14.8386 20.8216C14.6364 20.6207 14.3622 20.5078 14.0763 20.5078H9.76449C9.47859 20.5078 9.20441 20.6207 9.00225 20.8216C8.80009 21.0226 8.68652 21.2951 8.68652 21.5792V24.7935C8.68652 25.0777 8.80009 25.3502 9.00225 25.5511C9.20441 25.7521 9.47859 25.865 9.76449 25.865ZM10.8424 22.6507H12.9984V23.7221H10.8424V22.6507Z" fill="#0CB4C4"></path><path d="M18.3875 25.865H22.6994C22.9853 25.865 23.2595 25.7521 23.4616 25.5511C23.6638 25.3502 23.7773 25.0777 23.7773 24.7935V21.5792C23.7773 21.2951 23.6638 21.0226 23.4616 20.8216C23.2595 20.6207 22.9853 20.5078 22.6994 20.5078H18.3875C18.1016 20.5078 17.8275 20.6207 17.6253 20.8216C17.4231 21.0226 17.3096 21.2951 17.3096 21.5792V24.7935C17.3096 25.0777 17.4231 25.3502 17.6253 25.5511C17.8275 25.7521 18.1016 25.865 18.3875 25.865ZM19.4655 22.6507H21.6214V23.7221H19.4655V22.6507Z" fill="#0CB4C4"></path><path d="M18.3875 13.0075H22.6994C22.9853 13.0075 23.2595 12.8947 23.4616 12.6937C23.6638 12.4928 23.7773 12.2203 23.7773 11.9361V8.72182C23.7773 8.43766 23.6638 8.16514 23.4616 7.9642C23.2595 7.76327 22.9853 7.65039 22.6994 7.65039H18.3875C18.1016 7.65039 17.8275 7.76327 17.6253 7.9642C17.4231 8.16514 17.3096 8.43766 17.3096 8.72182V11.9361C17.3096 12.2203 17.4231 12.4928 17.6253 12.6937C17.8275 12.8947 18.1016 13.0075 18.3875 13.0075ZM19.4655 9.79325H21.6214V10.8647H19.4655V9.79325Z" fill="#0CB4C4"></path><path d="M18.3875 19.4362H22.6994C22.9853 19.4362 23.2595 19.3234 23.4616 19.1224C23.6638 18.9215 23.7773 18.649 23.7773 18.3648V15.1505C23.7773 14.8664 23.6638 14.5938 23.4616 14.3929C23.2595 14.192 22.9853 14.0791 22.6994 14.0791H18.3875C18.1016 14.0791 17.8275 14.192 17.6253 14.3929C17.4231 14.5938 17.3096 14.8664 17.3096 15.1505V18.3648C17.3096 18.649 17.4231 18.9215 17.6253 19.1224C17.8275 19.3234 18.1016 19.4362 18.3875 19.4362ZM19.4655 16.222H21.6214V17.2934H19.4655V16.222Z" fill="#0CB4C4"></path><path d="M44.6509 9.03567L41.1017 12.5647L39.7084 11.1785C39.5061 10.9775 39.2318 10.8645 38.9457 10.8645C38.6597 10.8645 38.3854 10.9775 38.1831 11.1785C37.9808 11.3796 37.8672 11.6522 37.8672 11.9366C37.8672 12.2209 37.9808 12.4936 38.1831 12.6946L40.339 14.8375C40.4391 14.9371 40.558 15.0161 40.6889 15.07C40.8197 15.1239 40.96 15.1517 41.1017 15.1517C41.2433 15.1517 41.3836 15.1239 41.5145 15.07C41.6453 15.0161 41.7642 14.9371 41.8643 14.8375L46.1762 10.5517C46.2763 10.4522 46.3558 10.334 46.41 10.204C46.4642 10.0739 46.4921 9.93448 46.4921 9.7937C46.4921 9.65292 46.4642 9.51352 46.41 9.38346C46.3558 9.25339 46.2763 9.13521 46.1762 9.03567C46.076 8.93612 45.9571 8.85716 45.8263 8.80328C45.6954 8.74941 45.5552 8.72168 45.4135 8.72168C45.2719 8.72168 45.1316 8.74941 45.0008 8.80328C44.8699 8.85716 44.751 8.93612 44.6509 9.03567Z" fill="#0CB4C4"></path><path d="M54.1448 14.8143L55.6701 13.2995C55.8213 13.1494 55.9241 12.9581 55.9657 12.7498C56.0072 12.5414 55.9855 12.3255 55.9034 12.1295C55.8212 11.9334 55.6823 11.7661 55.5042 11.6487C55.3262 11.5313 55.1171 11.4691 54.9034 11.4701H49.709C49.604 9.83276 48.961 8.27502 47.8788 7.03621C46.7967 5.79739 45.3352 4.94604 43.7189 4.61299C42.1027 4.27993 40.4211 4.48359 38.9326 5.19267C37.4441 5.90176 36.2311 7.07703 35.4799 8.53789C34.7287 9.99875 34.4808 11.6644 34.7745 13.2788C35.0682 14.8933 35.8871 16.3672 37.1054 17.4741C38.3237 18.581 39.874 19.2597 41.5181 19.4058C43.1621 19.552 44.809 19.1575 46.2056 18.283V20.1178C46.2054 20.3299 46.2685 20.5372 46.387 20.7135C46.5054 20.8899 46.6738 21.0273 46.8709 21.1085C47.068 21.1897 47.2849 21.2109 47.4941 21.1695C47.7033 21.128 47.8954 21.0259 48.0462 20.8759L49.5702 19.3598L53.3821 23.1486C53.5842 23.3494 53.8583 23.4622 54.1441 23.4622C54.4299 23.4622 54.7039 23.3494 54.9061 23.1486L57.9554 20.1178C58.0556 20.0183 58.1351 19.9001 58.1893 19.7701C58.2436 19.64 58.2715 19.5006 58.2715 19.3598C58.2715 19.219 58.2436 19.0796 58.1893 18.9495C58.1351 18.8194 58.0556 18.7013 57.9554 18.6018L54.1448 14.8143ZM47.2849 11.466C46.999 11.466 46.7248 11.5789 46.5227 11.7798C46.3205 11.9808 46.2069 12.2533 46.2069 12.5375V15.4839C45.3813 16.4043 44.2615 17.0135 43.0365 17.2085C41.8115 17.4036 40.5563 17.1727 39.4827 16.5547C38.4091 15.9367 37.5829 14.9695 37.1435 13.8163C36.704 12.6632 36.6783 11.3946 37.0706 10.2248C37.463 9.05494 38.2493 8.05545 39.297 7.39497C40.3446 6.73449 41.5895 6.45346 42.8214 6.59932C44.0533 6.74518 45.1969 7.30899 46.0591 8.1956C46.9214 9.08221 47.4495 10.2373 47.5544 11.466H47.2849ZM54.1448 20.8718L50.3342 17.083C50.2341 16.9834 50.1152 16.9044 49.9843 16.8504C49.8535 16.7965 49.7132 16.7688 49.5715 16.7688C49.4299 16.7688 49.2896 16.7965 49.1587 16.8504C49.0279 16.9044 48.909 16.9834 48.8089 17.083L48.3629 17.5276V13.6129H52.3055L51.8581 14.0562C51.7579 14.1557 51.6784 14.2739 51.6242 14.404C51.5699 14.534 51.542 14.6734 51.542 14.8143C51.542 14.9551 51.5699 15.0945 51.6242 15.2245C51.6784 15.3546 51.7579 15.4728 51.8581 15.5723L55.6701 19.3598L54.1448 20.8718Z" fill="#0CB4C4"></path><path d="M35.6356 25.8645H49.6491C49.935 25.8645 50.2092 25.7517 50.4113 25.5507C50.6135 25.3498 50.727 25.0773 50.727 24.7931C50.727 24.5089 50.6135 24.2364 50.4113 24.0355C50.2092 23.8346 49.935 23.7217 49.6491 23.7217H35.6356C35.3497 23.7217 35.0755 23.8346 34.8733 24.0355C34.6712 24.2364 34.5576 24.5089 34.5576 24.7931C34.5576 25.0773 34.6712 25.3498 34.8733 25.5507C35.0755 25.7517 35.3497 25.8645 35.6356 25.8645Z" fill="#0CB4C4"></path><path d="M57.1948 28.0078H35.6356C35.3497 28.0078 35.0755 28.1207 34.8733 28.3216C34.6712 28.5226 34.5576 28.7951 34.5576 29.0792C34.5576 29.3634 34.6712 29.6359 34.8733 29.8369C35.0755 30.0378 35.3497 30.1507 35.6356 30.1507H57.1948C57.4807 30.1507 57.7549 30.0378 57.957 29.8369C58.1592 29.6359 58.2728 29.3634 58.2728 29.0792C58.2728 28.7951 58.1592 28.5226 57.957 28.3216C57.7549 28.1207 57.4807 28.0078 57.1948 28.0078Z" fill="#0CB4C4"></path><path d="M57.1948 32.293H35.6356C35.3497 32.293 35.0755 32.4059 34.8733 32.6068C34.6712 32.8077 34.5576 33.0802 34.5576 33.3644C34.5576 33.6486 34.6712 33.9211 34.8733 34.122C35.0755 34.3229 35.3497 34.4358 35.6356 34.4358H57.1948C57.4807 34.4358 57.7549 34.3229 57.957 34.122C58.1592 33.9211 58.2728 33.6486 58.2728 33.3644C58.2728 33.0802 58.1592 32.8077 57.957 32.6068C57.7549 32.4059 57.4807 32.293 57.1948 32.293Z" fill="#0CB4C4"></path></svg>