<svg width="63" height="61" viewBox="0 0 63 61" fill="none" xmlns="http://www.w3.org/2000/svg"><title>Hospitality Accounting Software </title><path d="M58.7665 21.8866H48.5756V1.32856C48.5756 0.790138 48.1351 0.349609 47.5967 0.349609H0.978953C0.440529 0.349609 0 0.790138 0 1.32856V59.3707C0 59.9091 0.440529 60.3496 0.978953 60.3496H58.7665C60.9104 60.3496 62.653 58.6071 62.653 56.4632V25.7828C62.653 23.6389 60.9104 21.8866 58.7665 21.8866ZM1.95791 2.3173H46.6177V21.8964H37.9834V11.8915C37.9834 11.353 37.5428 10.9125 37.0044 10.9125H31.1307C30.5923 10.9125 30.1517 11.353 30.1517 11.8915V22.8753C30.1517 23.4137 30.5923 23.8543 31.1307 23.8543H33.0592C32.7264 24.4221 32.5306 25.0779 32.5306 25.7828V28.5728H25.0612C24.5228 28.5728 24.0822 29.0133 24.0822 29.5518C24.0822 30.0902 24.5228 30.5307 25.0612 30.5307H32.5208V34.4172H25.0612C24.5228 34.4172 24.0822 34.8577 24.0822 35.3961C24.0822 35.9345 24.5228 36.3751 25.0612 36.3751H32.5208V44.6276H25.0612C24.5228 44.6276 24.0822 45.0682 24.0822 45.6066C24.0822 46.145 24.5228 46.5855 25.0612 46.5855H32.5208V50.472H25.0612C24.5228 50.472 24.0822 50.9125 24.0822 51.4509C24.0822 51.9894 24.5228 52.4299 25.0612 52.4299H32.5208V56.473C32.5208 57.1778 32.7264 57.8239 33.0494 58.4015H1.95791V2.3173ZM32.1096 21.8866V12.8606H36.0157V21.8866H32.1096ZM60.6951 56.473C60.6951 57.5302 59.8336 58.4015 58.7665 58.4015H36.4072C35.35 58.4015 34.4787 57.54 34.4787 56.473V25.7828C34.4787 24.7157 35.3402 23.8543 36.4072 23.8543H36.9946H58.7567C59.8238 23.8543 60.6853 24.7157 60.6853 25.7828V56.473H60.6951Z" fill="#0CB4C4"></path><path d="M56.8961 25.6357H38.2862C37.1702 25.6357 36.2695 26.5364 36.2695 27.6426V32.9289C36.2695 34.0352 37.1702 34.9358 38.2862 34.9358H56.8961C58.0023 34.9358 58.9029 34.0352 58.9029 32.9289V27.6426C58.9029 26.5364 58.0023 25.6357 56.8961 25.6357ZM56.8961 32.9877L38.2274 32.9387L38.2862 27.6034H56.8961C56.9254 27.6034 56.945 27.623 56.945 27.6524L56.8961 32.9877Z" fill="#0CB4C4"></path><path d="M55.8491 43.2383H55.1051C53.4213 43.2383 52.0508 44.6088 52.0508 46.2926V53.3998C52.0508 55.0836 53.4213 56.4541 55.1051 56.4541H55.8491C57.5329 56.4541 58.9034 55.0836 58.9034 53.3998V46.2926C58.9034 44.6088 57.5329 43.2383 55.8491 43.2383ZM56.9455 53.3998C56.9455 54.0068 56.4561 54.4962 55.8491 54.4962H55.1051C54.4982 54.4962 54.0087 54.0068 54.0087 53.3998V46.2926C54.0087 45.6857 54.4982 45.1962 55.1051 45.1962H55.8491C56.4561 45.1962 56.9455 45.6857 56.9455 46.2926V53.3998Z" fill="#0CB4C4"></path><path d="M19.3829 26.5566H8.33052C7.79209 26.5566 7.35156 26.9972 7.35156 27.5356V38.588C7.35156 39.1264 7.79209 39.5669 8.33052 39.5669H19.3829C19.9213 39.5669 20.3618 39.1264 20.3618 38.588V27.5356C20.3618 26.9972 19.9311 26.5566 19.3829 26.5566ZM18.4039 37.609H9.30947V28.5145H18.4039V37.609Z" fill="#0CB4C4"></path><path d="M12.3254 35.6024C12.5212 35.7982 12.7659 35.8863 13.0205 35.8863C13.275 35.8863 13.5197 35.7884 13.7155 35.6024L17.4062 31.9118C17.788 31.53 17.788 30.9133 17.4062 30.5315C17.0244 30.1497 16.4076 30.1497 16.0258 30.5315L13.0302 33.5271L11.7087 32.2055C11.3269 31.8237 10.7101 31.8237 10.3283 32.2055C9.94654 32.5873 9.94654 33.204 10.3283 33.5858L12.3254 35.6024Z" fill="#0CB4C4"></path><path d="M19.3829 42.6113H8.33052C7.79209 42.6113 7.35156 43.0519 7.35156 43.5903V54.6427C7.35156 55.1811 7.79209 55.6216 8.33052 55.6216H19.3829C19.9213 55.6216 20.3618 55.1811 20.3618 54.6427V43.5903C20.3618 43.0519 19.9311 42.6113 19.3829 42.6113ZM18.4039 53.6637H9.30947V44.5692H18.4039V53.6637Z" fill="#0CB4C4"></path><path d="M12.3254 51.6561C12.5114 51.8421 12.7561 51.94 13.0205 51.94C13.2848 51.94 13.5295 51.8324 13.7155 51.6561L17.4062 47.9655C17.788 47.5837 17.788 46.967 17.4062 46.5852C17.0244 46.2034 16.4076 46.2034 16.0258 46.5852L13.0302 49.5808L11.7087 48.2592C11.3269 47.8774 10.7101 47.8774 10.3283 48.2592C9.94654 48.641 9.94654 49.2577 10.3283 49.6395L12.3254 51.6561Z" fill="#0CB4C4"></path><path d="M11.5717 23.8447H17.4357C17.9741 23.8447 18.4146 23.4042 18.4146 22.8657V14.0356C18.4146 13.4972 17.9741 13.0566 17.4357 13.0566H11.5717C11.0333 13.0566 10.5928 13.4972 10.5928 14.0356V22.8657C10.5928 23.414 11.0235 23.8447 11.5717 23.8447ZM12.5507 15.0145H16.4567V21.8868H12.5507V15.0145Z" fill="#0CB4C4"></path><path d="M28.1939 22.8664V6.55708C28.1939 6.01865 27.7534 5.57812 27.2149 5.57812H21.351C20.8126 5.57812 20.3721 6.01865 20.3721 6.55708V22.8762C20.3721 23.4146 20.8126 23.8552 21.351 23.8552H27.2149C27.7534 23.8454 28.1939 23.4146 28.1939 22.8664ZM26.236 21.8875H22.33V7.53603H26.236V21.8875Z" fill="#0CB4C4"></path><path d="M53.8813 40.0077H56.7594C57.2978 40.0077 57.7384 39.5672 57.7384 39.0288C57.7384 38.4903 57.2978 38.0498 56.7594 38.0498H53.8813C53.3429 38.0498 52.9023 38.4903 52.9023 39.0288C52.9023 39.5672 53.3429 40.0077 53.8813 40.0077Z" fill="#0CB4C4"></path><path d="M41.2926 38.0498H38.4145C37.8761 38.0498 37.4355 38.4903 37.4355 39.0288C37.4355 39.5672 37.8761 40.0077 38.4145 40.0077H41.2926C41.831 40.0077 42.2716 39.5672 42.2716 39.0288C42.2716 38.4903 41.831 38.0498 41.2926 38.0498Z" fill="#0CB4C4"></path><path d="M49.026 38.0498H46.1479C45.6095 38.0498 45.1689 38.4903 45.1689 39.0288C45.1689 39.5672 45.6095 40.0077 46.1479 40.0077H49.026C49.5644 40.0077 50.005 39.5672 50.005 39.0288C50.005 38.4903 49.5644 38.0498 49.026 38.0498Z" fill="#0CB4C4"></path><path d="M41.2926 43.2383H38.4145C37.8761 43.2383 37.4355 43.6788 37.4355 44.2172C37.4355 44.7557 37.8761 45.1962 38.4145 45.1962H41.2926C41.831 45.1962 42.2716 44.7557 42.2716 44.2172C42.2716 43.6788 41.831 43.2383 41.2926 43.2383Z" fill="#0CB4C4"></path><path d="M49.026 43.2383H46.1479C45.6095 43.2383 45.1689 43.6788 45.1689 44.2172C45.1689 44.7557 45.6095 45.1962 46.1479 45.1962H49.026C49.5644 45.1962 50.005 44.7557 50.005 44.2172C50.005 43.6788 49.5644 43.2383 49.026 43.2383Z" fill="#0CB4C4"></path><path d="M41.2926 48.8672H38.4145C37.8761 48.8672 37.4355 49.3077 37.4355 49.8461C37.4355 50.3846 37.8761 50.8251 38.4145 50.8251H41.2926C41.831 50.8251 42.2716 50.3846 42.2716 49.8461C42.2716 49.3077 41.831 48.8672 41.2926 48.8672Z" fill="#0CB4C4"></path><path d="M49.026 48.8672H46.1479C45.6095 48.8672 45.1689 49.3077 45.1689 49.8461C45.1689 50.3846 45.6095 50.8251 46.1479 50.8251H49.026C49.5644 50.8251 50.005 50.3846 50.005 49.8461C50.005 49.3077 49.5644 48.8672 49.026 48.8672Z" fill="#0CB4C4"></path><path d="M41.2926 54.0254H38.4145C37.8761 54.0254 37.4355 54.4659 37.4355 55.0043C37.4355 55.5428 37.8761 55.9833 38.4145 55.9833H41.2926C41.831 55.9833 42.2716 55.5428 42.2716 55.0043C42.2716 54.4659 41.831 54.0254 41.2926 54.0254Z" fill="#0CB4C4"></path><path d="M49.026 54.0254H46.1479C45.6095 54.0254 45.1689 54.4659 45.1689 55.0043C45.1689 55.5428 45.6095 55.9833 46.1479 55.9833H49.026C49.5644 55.9833 50.005 55.5428 50.005 55.0043C50.005 54.4659 49.5644 54.0254 49.026 54.0254Z" fill="#0CB4C4"></path></svg>