<svg xmlns="http://www.w3.org/2000/svg" width="60" height="60" viewBox="0 0 60 60" fill="none"><title>Security &amp; Compliance Automation</title><path d="M56.6289 10.632H45.7305V7.0179C45.7305 6.95853 45.7231 6.89669 45.7107 6.83732V6.8299C45.6909 6.74332 45.6637 6.66911 45.6241 6.58995C45.6167 6.57016 45.6044 6.55779 45.5969 6.53553C45.5574 6.46132 45.5029 6.38958 45.4436 6.32774L39.3933 0.286951C39.334 0.227583 39.2598 0.180581 39.1856 0.13358C39.1658 0.126159 39.1534 0.113791 39.1311 0.10637C39.0569 0.0667905 38.9778 0.0395791 38.8986 0.0197896H38.8863C38.8269 0.00742125 38.7651 0 38.7057 0H15.222C14.6877 0 14.2549 0.432894 14.2549 0.967187V10.627L3.35905 10.6246C1.50637 10.6246 0 12.131 0 13.9838V44.235C0 46.0878 1.50637 47.5943 3.35905 47.5943H22.8034L20.5303 53.9864H16.9783C15.3259 53.9864 13.9729 55.3321 13.9729 56.992V59.0328C13.9729 59.5671 14.4058 60 14.94 60H45.0624C45.5967 60 46.0295 59.5671 46.0295 59.0328V56.992C46.0295 55.3321 44.6839 53.9864 43.0242 53.9864H39.497L37.2238 47.5943H56.6409C58.4936 47.5943 60 46.0878 60 44.235L59.9951 13.9838C59.9876 12.131 58.4816 10.632 56.6289 10.632ZM49.4779 21.0365C49.6387 21.3433 49.7648 21.65 49.8638 21.9641C49.9627 22.2832 50.2249 22.5306 50.544 22.6171L52.1443 23.0303V24.037L50.544 24.4501C50.2175 24.5367 49.9578 24.7841 49.8638 25.1031C49.7698 25.4173 49.6362 25.729 49.4779 26.0308C49.3246 26.3251 49.332 26.6838 49.4977 26.9708L50.3387 28.3907L49.6263 29.1031L48.2065 28.2621C47.9122 28.0889 47.5609 28.0815 47.2591 28.2423C46.9722 28.3956 46.6655 28.5218 46.3316 28.6282C46.0125 28.7271 45.7726 28.9893 45.686 29.3084L45.273 30.9015H44.2588L43.8457 29.3084C43.7591 28.9893 43.5192 28.7296 43.2001 28.6282C42.8662 28.5218 42.5546 28.3956 42.2726 28.2423C41.9733 28.0815 41.6121 28.0889 41.3252 28.2621L39.9054 29.1031L39.193 28.3907L40.034 26.9708C40.2072 26.6764 40.2146 26.3252 40.0538 26.0233C39.9005 25.7364 39.7743 25.4297 39.6679 25.0957C39.569 24.7766 39.3068 24.5367 38.9877 24.4501L37.3948 24.037V23.0303L38.9877 22.6171C39.3068 22.5306 39.5665 22.2906 39.6679 21.9715C39.7743 21.6376 39.9005 21.3259 40.0538 21.0439C40.2146 20.7446 40.2072 20.3834 40.034 20.0965L39.193 18.6766L39.9054 17.9642L41.3252 18.8052C41.6122 18.9709 41.9708 18.9858 42.2652 18.825C42.5719 18.6642 42.886 18.538 43.1927 18.4391C43.5118 18.3401 43.7592 18.0779 43.8457 17.7588L44.2588 16.1584H45.2655L45.6786 17.7588C45.7651 18.0854 46.0125 18.3451 46.3315 18.4391C46.6457 18.5331 46.9524 18.6667 47.2591 18.825C47.5534 18.9784 47.9121 18.9709 48.199 18.8052L49.6188 17.9642L50.3312 18.6766L49.4902 20.0965C49.3295 20.3834 49.3171 20.7446 49.4779 21.0365ZM39.6775 3.3L42.4231 6.04578H39.6775V3.3ZM16.1888 1.93202H37.738V7.01049C37.738 7.54481 38.1708 7.97768 38.7051 7.97768H43.7906V14.2164H43.5037C43.0634 14.2164 42.6775 14.5157 42.5712 14.9436L42.0987 16.7692C42.0196 16.8013 41.9379 16.836 41.8588 16.8681L40.2312 15.9158C39.8503 15.6882 39.3704 15.755 39.0587 16.0617L37.2852 17.8354C36.9711 18.1495 36.9117 18.6294 37.1393 19.0079L38.099 20.6282C38.0668 20.7074 38.0322 20.789 38 20.8681L36.1746 21.3406C35.7491 21.4544 35.4474 21.8329 35.4474 22.2732V24.7791C35.4474 25.2194 35.7467 25.6053 36.1746 25.7117L38 26.1842C38.0322 26.2633 38.0668 26.3449 38.099 26.4241L37.1393 28.0444C36.9117 28.4253 36.9785 28.9102 37.2852 29.2169L39.0587 30.9906C39.3729 31.3047 39.8527 31.3641 40.2312 31.1365L41.8514 30.1768C41.9305 30.2089 42.0122 30.2435 42.0913 30.2757L42.5638 32.1013C42.6775 32.5268 43.056 32.8285 43.4963 32.8285H43.7832V33.7413L18.4816 33.7487C18.4939 33.6424 18.5088 33.5286 18.5088 33.4148V32.8632C19.2162 32.5094 19.7084 31.7772 19.7084 30.9361V29.5286C19.7084 26.7482 20.3095 25.7216 20.8957 24.7296C21.4152 23.8441 21.9544 22.9287 21.9544 21.1774C21.9544 17.7983 19.4487 15.0055 16.201 14.5306L16.2035 1.93178L16.1888 1.93202ZM14.21 33.7638C14.0294 33.7638 13.8761 33.6104 13.8761 33.4298V33.0959H16.5697V33.4298C16.5697 33.6104 16.4164 33.7638 16.2358 33.7638H14.21ZM15.2217 16.3907C17.861 16.3907 20.008 18.5379 20.008 21.1774C20.008 22.4117 19.674 22.9708 19.2214 23.75C18.6426 24.737 17.9352 25.9367 17.7942 28.5638H12.6542C12.5132 25.9368 11.8082 24.737 11.2269 23.75C10.7669 22.9708 10.4404 22.4092 10.4404 21.1774C10.4379 18.5379 12.5824 16.3907 15.2217 16.3907ZM17.7694 30.4955V30.9358C17.7694 31.057 17.663 31.1634 17.5418 31.1634H12.9163C12.7902 31.1634 12.6888 31.057 12.6888 30.9358V30.4955H17.7694ZM3.35853 12.5639H14.2645V14.5379C11.0192 15.0104 8.51112 17.8032 8.51112 21.1847C8.51112 22.9435 9.05034 23.8588 9.5698 24.7369C10.1486 25.7314 10.7571 26.7505 10.7571 29.5359V30.9435C10.7571 31.7894 11.2444 32.5167 11.9567 32.8705V33.437C11.9567 34.6837 12.9758 35.7029 14.2225 35.7029H44.7729C45.3072 35.7029 45.74 35.27 45.74 34.7357V32.8556H46.0269C46.4672 32.8556 46.8531 32.5563 46.9595 32.1284L47.4319 30.3028C47.5111 30.2706 47.5927 30.236 47.6719 30.2039L49.292 31.1636C49.6729 31.3912 50.1578 31.3244 50.4645 31.0177L52.238 29.244C52.5522 28.9299 52.6115 28.45 52.384 28.0715L51.4317 26.4438C51.4638 26.3646 51.4984 26.283 51.5306 26.2038L53.356 25.7314C53.7815 25.6176 54.0832 25.2391 54.0832 24.7988V22.2929C54.0832 21.8526 53.7839 21.4667 53.356 21.3603L51.5306 20.8878C51.4984 20.8087 51.4638 20.727 51.4317 20.6479L52.384 19.0202C52.6115 18.6393 52.5447 18.1593 52.238 17.8476L50.4571 16.0641C50.1429 15.75 49.6631 15.6906 49.2846 15.9182L47.657 16.8705C47.5779 16.8384 47.4963 16.8037 47.4171 16.7716L46.9447 14.946C46.8309 14.5205 46.4524 14.2188 46.0121 14.2188H45.7252V12.5589H56.6236C57.4102 12.5589 58.0508 13.1996 58.0508 13.9788V40.2695H1.9315V13.9839C1.9315 13.1972 2.57194 12.5639 3.35853 12.5639ZM44.0848 56.9863V58.0524H15.9014V56.9863C15.9014 56.3926 16.3812 55.9127 16.9675 55.9127H43.0163C43.605 55.9127 44.0848 56.4 44.0848 56.9863ZM37.4385 53.9807H22.5749L24.8481 47.5885H35.1601L37.4385 53.9807ZM56.6283 45.6545H3.35853C2.57194 45.6545 1.93871 45.0139 1.93871 44.2346V42.2087H58.0631V44.2346C58.0557 45.0213 57.4149 45.6545 56.6283 45.6545Z" fill="#0CB4C4"></path><path d="M44.7583 19.624C43.712 19.624 42.7325 20.0297 41.9929 20.7693C41.2533 21.509 40.8477 22.4885 40.8477 23.53C40.8477 24.5764 41.2533 25.5634 41.9929 26.303C42.7325 27.0427 43.712 27.4483 44.7583 27.4483C45.8046 27.4483 46.7841 27.0427 47.5237 26.303C48.2633 25.5634 48.669 24.5764 48.669 23.53C48.669 22.4837 48.2633 21.5041 47.5237 20.7693C46.7916 20.0297 45.8046 19.624 44.7583 19.624ZM46.1583 24.9375C45.7848 25.311 45.2926 25.5164 44.7583 25.5164C44.2315 25.5164 43.7318 25.3086 43.3583 24.9375C42.9848 24.564 42.7795 24.0643 42.7795 23.5374C42.7795 23.0105 42.9873 22.5182 43.3583 22.1447C43.7318 21.7712 44.2241 21.5659 44.7583 21.5659C45.2852 21.5659 45.7848 21.7737 46.1583 22.1447C46.5318 22.5183 46.7371 23.0105 46.7371 23.5374C46.7445 24.0643 46.5367 24.564 46.1583 24.9375Z" fill="#0CB4C4"></path><path d="M25.703 7.97734H34.2812C34.8155 7.97734 35.2483 7.54445 35.2483 7.01016C35.2483 6.47586 34.8155 6.04297 34.2812 6.04297L25.703 6.04544C25.1687 6.04544 24.7358 6.47834 24.7358 7.01263C24.7358 7.55189 25.1687 7.97734 25.703 7.97734Z" fill="#0CB4C4"></path><path d="M21.2747 12.5643H38.7105C39.2448 12.5643 39.6776 12.1314 39.6776 11.5971C39.6776 11.0628 39.2448 10.6299 38.7105 10.6299L21.2747 10.6324C20.7405 10.6324 20.3076 11.0653 20.3076 11.5995C20.3101 12.1314 20.743 12.5643 21.2747 12.5643Z" fill="#0CB4C4"></path><path d="M34.6468 15.2104H25.3416C24.8073 15.2104 24.3745 15.6433 24.3745 16.1776C24.3745 16.7119 24.8074 17.1448 25.3416 17.1448H34.6399C35.1741 17.1448 35.607 16.7119 35.607 16.1776C35.6144 15.6433 35.1811 15.2104 34.6468 15.2104Z" fill="#0CB4C4"></path><path d="M33.7342 21.7244C34.2685 21.7244 34.7013 21.2915 34.7013 20.7572C34.7013 20.2229 34.2685 19.79 33.7342 19.79H23.9364C23.4021 19.79 22.9692 20.2229 22.9692 20.7572C22.9692 21.2915 23.4021 21.7244 23.9364 21.7244H33.7342Z" fill="#0CB4C4"></path><path d="M22.6951 26.3104H33.1059C33.6402 26.3104 34.0731 25.8775 34.0731 25.3432C34.0731 24.8089 33.6402 24.376 33.1059 24.376H22.6951C22.1609 24.376 21.728 24.8089 21.728 25.3432C21.7305 25.8775 22.1634 26.3104 22.6951 26.3104Z" fill="#0CB4C4"></path><path d="M34.647 28.9565H21.2752C20.7409 28.9565 20.3081 29.3894 20.3081 29.9237C20.3081 30.458 20.741 30.8909 21.2752 30.8909H34.647C35.1813 30.8909 35.6141 30.458 35.6141 29.9237C35.6141 29.3894 35.1812 28.9565 34.647 28.9565Z" fill="#0CB4C4"></path></svg>