<svg width="66" height="66" viewBox="0 0 66 66" fill="none" xmlns="http://www.w3.org/2000/svg"><title>Data Clean Rooms </title><circle cx="33" cy="33" r="32" fill="white" stroke="#EE5A23" stroke-width="2"></circle><path d="M20.8682 33.2578H23.5145V34.7547H20.8682V33.2578Z" fill="#0CB4C4"></path><path d="M32 30H34.6463V31.4969H32V30Z" fill="#0CB4C4"></path><path d="M25.1055 33.2578H27.7518V34.7547H25.1055V33.2578Z" fill="#0CB4C4"></path><path d="M38.9375 33.2578H45.5467V34.7547H38.9375V33.2578Z" fill="#0CB4C4"></path><path d="M46.2354 23.1467C47.6622 23.1467 48.8199 21.9891 48.8199 20.5623V15.5872C48.8199 14.1603 47.6622 13.0027 46.2354 13.0027L20.5845 13C19.1576 13 18 14.1576 18 15.5845V20.5596C18 21.9864 19.1576 23.144 20.5845 23.144H21.3571V27.928H20.5845C19.1576 27.928 18 29.0856 18 30.5124V35.4876C18 36.9144 19.1576 38.072 20.5845 38.072H21.3571V42.856H20.5845C19.1576 42.856 18 44.0136 18 45.4404V50.4155C18 51.8424 19.1576 53 20.5845 53H46.2299C47.6567 53 48.8143 51.8424 48.8143 50.4155V45.4404C48.8143 44.0136 47.6567 42.856 46.2299 42.856H45.4572V38.072H46.2299C47.6567 38.072 48.8143 36.9144 48.8143 35.4876V30.5124C48.8143 29.0856 47.6567 27.928 46.2299 27.928H45.4572V23.144L46.2354 23.1467ZM46.2354 44.3662C46.8357 44.3662 47.323 44.8562 47.323 45.4538V50.4289C47.323 51.0293 46.833 51.5165 46.2354 51.5165L20.5845 51.5192C19.9841 51.5192 19.4969 51.0292 19.4969 50.4316V45.4565C19.4969 44.8561 19.9868 44.3689 20.5845 44.3689L46.2354 44.3662ZM22.8595 42.8693V38.0854H43.9687V42.8693H22.8595ZM46.2354 29.4301C46.8357 29.4301 47.323 29.9201 47.323 30.5178V35.4929C47.323 36.0932 46.833 36.5805 46.2354 36.5805L20.5845 36.5859C19.9841 36.5859 19.4969 36.0959 19.4969 35.4983V30.5231C19.4969 29.9228 19.9868 29.4355 20.5845 29.4355L46.2354 29.4301ZM22.8595 27.936V23.152H43.9687V27.936H22.8595ZM20.5846 21.6498C19.9843 21.6498 19.497 21.1598 19.497 20.5622V15.5871C19.497 14.9867 19.987 14.4995 20.5846 14.4995H46.23C46.8304 14.4995 47.3176 14.9894 47.3176 15.5871V20.5622C47.3176 21.1625 46.8277 21.6498 46.23 21.6498H20.5846Z" fill="#0CB4C4"></path><path d="M20.8682 18.3203H23.5145V19.8172H20.8682V18.3203Z" fill="#0CB4C4"></path><path d="M29.3457 18.3203H31.9921V19.8172H29.3457V18.3203Z" fill="#0CB4C4"></path><path d="M25.1055 18.3203H27.7518V19.8172H25.1055V18.3203Z" fill="#0CB4C4"></path><path d="M38.9375 18.3203H45.5467V19.8172H38.9375V18.3203Z" fill="#0CB4C4"></path><path d="M20.8682 48.1992H23.5145V49.6961H20.8682V48.1992Z" fill="#0CB4C4"></path><path d="M29.3457 48.1992H31.9921V49.6961H29.3457V48.1992Z" fill="#0CB4C4"></path><path d="M25.1055 48.1992H27.7518V49.6961H25.1055V48.1992Z" fill="#0CB4C4"></path><path d="M38.9375 48.1992H45.5467V49.6961H38.9375V48.1992Z" fill="#0CB4C4"></path></svg>