<svg width="66" height="66" viewBox="0 0 66 66" fill="none" xmlns="http://www.w3.org/2000/svg"><title>Dynamic Pricing</title><circle cx="33" cy="33" r="32" fill="white" stroke="#EE5A23" stroke-width="2"></circle><path d="M22.675 13C17.3402 13 13 17.3402 13 22.675C13 28.0098 17.3402 32.3501 22.6794 32.3501C28.0185 32.3501 32.3544 28.0098 32.3544 22.675C32.3544 17.3402 28.0098 13 22.675 13ZM22.675 31.0633C18.0513 31.0633 14.2868 27.3032 14.2868 22.6794C14.2868 18.0556 18.0513 14.2912 22.675 14.2912C27.2988 14.2912 31.0589 18.0513 31.0589 22.6794C31.0589 27.3075 27.2988 31.0633 22.675 31.0633ZM24.1276 20.795C24.1538 20.4504 24.0316 20.1145 23.7874 19.8484C23.5082 19.5518 23.1069 19.3773 22.675 19.3773C21.8724 19.3773 21.2181 19.9706 21.2181 20.7034C21.2181 21.6063 21.6325 21.7808 22.8146 22.0469C23.8528 22.2781 25.4231 22.6314 25.4231 24.651C25.4231 25.8811 24.5245 26.9193 23.3206 27.1941V28.6859C23.3206 29.0436 23.0327 29.3315 22.675 29.3315C22.3173 29.3315 22.0294 29.0436 22.0294 28.6859V27.1941C21.4885 27.0676 20.9913 26.7884 20.6161 26.3828C20.1232 25.8506 19.879 25.1701 19.9313 24.4591C19.9575 24.1014 20.2672 23.8353 20.6249 23.8615C20.9826 23.8877 21.2486 24.1974 21.2225 24.5551C21.1963 24.8997 21.3184 25.2356 21.5627 25.5016C21.8419 25.8026 22.2475 25.9727 22.675 25.9727C23.4776 25.9727 24.132 25.3795 24.132 24.6467C24.132 23.7437 23.7176 23.5692 22.5354 23.3032C21.4973 23.072 19.9269 22.7186 19.9269 20.699C19.9269 19.4689 20.8255 18.4308 22.0294 18.1559V16.6598C22.0294 16.3021 22.3173 16.0142 22.675 16.0142C23.0327 16.0142 23.3206 16.3021 23.3206 16.6598V18.1559C23.8615 18.2824 24.3588 18.5616 24.7339 18.9629C25.2268 19.4951 25.4711 20.1756 25.4144 20.8822C25.3882 21.2399 25.0785 21.506 24.7208 21.4798C24.3631 21.4537 24.0971 21.1439 24.1232 20.7863L24.1276 20.795ZM52.7775 41.8201C52.7339 41.5365 52.5071 41.3184 52.2279 41.2792L51.2028 41.1396C51.0196 40.4678 50.7535 39.8266 50.4089 39.2246L51.0371 38.4002C51.2116 38.1734 51.2116 37.8593 51.0458 37.6281C50.4482 36.8081 49.7328 36.0927 48.9171 35.4995C48.6859 35.3293 48.3719 35.3337 48.145 35.5082L47.3206 36.1363C46.7187 35.7917 46.0774 35.5256 45.4057 35.3424L45.2661 34.3173C45.2268 34.0338 45.0087 33.8113 44.7252 33.7634C43.7263 33.6063 42.7099 33.6063 41.711 33.7634C41.4275 33.807 41.2094 34.0294 41.1701 34.313L41.0305 35.3381C40.3588 35.5213 39.7219 35.7874 39.1156 36.132L38.2912 35.5038C38.0643 35.3293 37.7503 35.3293 37.5191 35.4951C36.7034 36.0883 35.988 36.8081 35.3904 37.6238C35.2203 37.855 35.2246 38.169 35.3991 38.3959L36.0273 39.2203C35.6827 39.8222 35.4209 40.4635 35.2377 41.1352L34.2127 41.2748C33.9291 41.3141 33.7067 41.5322 33.6587 41.8157C33.5016 42.819 33.5016 43.831 33.6587 44.8299C33.7023 45.1134 33.9248 45.3315 34.2083 45.3708L35.2334 45.5104C35.4166 46.1821 35.6827 46.8233 36.0273 47.4253L35.3991 48.2497C35.2246 48.4766 35.2246 48.7906 35.3904 49.0218C35.9836 49.8332 36.699 50.5529 37.5191 51.1505C37.7503 51.3206 38.0643 51.3162 38.2912 51.1418L39.1156 50.5136C39.7176 50.8582 40.3588 51.1243 41.0305 51.3075L41.1701 52.3326C41.2094 52.6161 41.4275 52.8386 41.711 52.8822C42.2127 52.9607 42.7143 53 43.2203 53C43.7263 53 44.2279 52.9607 44.7296 52.8822C45.0131 52.8386 45.2312 52.6118 45.2705 52.3282L45.41 51.3032C46.0818 51.12 46.723 50.8539 47.325 50.5093L48.1494 51.1374C48.3762 51.3119 48.6903 51.3119 48.9215 51.1461C49.7416 50.5485 50.4569 49.8288 51.0502 49.0174C51.2203 48.7863 51.2159 48.4722 51.0414 48.2454L50.4133 47.4209C50.7579 46.819 51.024 46.1778 51.2028 45.506L52.2279 45.3664C52.5115 45.3272 52.7339 45.1091 52.7775 44.8255C52.9346 43.8266 52.9346 42.8146 52.7775 41.8113V41.8201ZM51.5605 44.1581L50.5878 44.289C50.3173 44.3239 50.0992 44.5289 50.0425 44.795C49.8637 45.6238 49.5409 46.4046 49.0829 47.1156C48.9346 47.3424 48.9477 47.6434 49.1091 47.8571L49.7023 48.6379C49.349 49.0654 48.9564 49.4624 48.5245 49.8157L47.7437 49.2225C47.5256 49.0567 47.229 49.048 47.0022 49.1919C46.2912 49.6543 45.5104 49.9771 44.6816 50.1516C44.4155 50.2083 44.2105 50.4264 44.1756 50.6968L44.0447 51.6696C43.4907 51.7263 42.9324 51.7263 42.3784 51.6696L42.2476 50.6968C42.2127 50.4264 42.0076 50.2083 41.7416 50.1516C40.9128 49.9727 40.132 49.6499 39.4209 49.1919C39.1941 49.0436 38.8975 49.0567 38.6794 49.2181L37.8986 49.8113C37.4667 49.458 37.0742 49.0611 36.7208 48.6336L37.3141 47.8528C37.4798 47.6347 37.4929 47.3381 37.3446 47.1112C36.8866 46.4046 36.5638 45.6238 36.3806 44.7906C36.3239 44.5245 36.1058 44.3239 35.8353 44.289L34.8626 44.1581C34.8059 43.6041 34.8059 43.0458 34.8626 42.4918L35.831 42.361C36.1014 42.3261 36.3195 42.121 36.3762 41.8593C36.5551 41.0305 36.8779 40.2497 37.3359 39.5387C37.4842 39.3119 37.4711 39.0153 37.3053 38.7972L36.7121 38.0164C37.0654 37.5845 37.458 37.1919 37.8899 36.8386L38.6707 37.4318C38.8888 37.5976 39.1854 37.6063 39.4122 37.4624C40.1232 37.0044 40.904 36.6772 41.7328 36.5027C41.9989 36.446 42.1996 36.2279 42.2388 35.9575L42.3697 34.9847C42.9237 34.928 43.482 34.928 44.036 34.9847L44.1669 35.9575C44.2017 36.2279 44.4068 36.446 44.6728 36.5027C45.5016 36.6816 46.2824 37.0044 46.9935 37.4624C47.2203 37.6107 47.5169 37.5976 47.735 37.4318L48.5158 36.8386C48.9477 37.1919 49.3402 37.5845 49.6936 38.0164L49.096 38.7972C48.9302 39.0153 48.9171 39.3119 49.0654 39.5387C49.5234 40.2497 49.8462 41.0262 50.0251 41.8593C50.0818 42.1254 50.2999 42.3261 50.5703 42.3653L51.5431 42.4962C51.5998 43.0502 51.5998 43.6085 51.5431 44.1625L51.5605 44.1581ZM46.422 40.1189C44.6554 38.3522 41.7764 38.3522 40.0098 40.1189C39.1549 40.9738 38.6838 42.1123 38.6838 43.325C38.6838 44.5376 39.1549 45.6761 40.0098 46.5311C40.8953 47.4166 42.0556 47.8571 43.2159 47.8571C44.3762 47.8571 45.5365 47.4166 46.422 46.5311C47.277 45.6761 47.7481 44.5376 47.7481 43.325C47.7481 42.1123 47.277 40.9738 46.422 40.1189ZM45.5104 45.615C44.2454 46.88 42.1908 46.88 40.9258 45.615C40.3152 45.0044 39.9749 44.1887 39.9749 43.3206C39.9749 42.4526 40.3108 41.6412 40.9258 41.0262C41.5583 40.3937 42.3871 40.0796 43.2203 40.0796C44.0534 40.0796 44.8822 40.3937 45.5147 41.0262C46.1254 41.6369 46.4657 42.4526 46.4657 43.3206C46.4657 44.1887 46.1298 45 45.5147 45.615H45.5104ZM37.7939 27.5344C37.9771 27.7176 38.2563 27.7743 38.4962 27.6739C38.7361 27.5736 38.8931 27.3381 38.8931 27.0763V25.2661H40.6249V31.2552C40.6249 31.6129 40.9128 31.9008 41.2705 31.9008H43.8528C44.2105 31.9008 44.4984 31.6129 44.4984 31.2552V22.0382C44.4984 21.6805 44.2105 21.3926 43.8528 21.3926H38.8931V19.6783C38.8931 19.4166 38.7361 19.181 38.4962 19.0807C38.2563 18.9804 37.9771 19.0371 37.7939 19.2203L34.0949 22.9193C33.8419 23.1723 33.8419 23.5823 34.0949 23.831L37.7939 27.53V27.5344ZM37.6063 21.2399V22.0382C37.6063 22.3959 37.8942 22.6838 38.2519 22.6838H43.2116V30.6052H41.9204V24.6161C41.9204 24.2585 41.6325 23.9706 41.2748 23.9706H38.2519C37.8942 23.9706 37.6063 24.2585 37.6063 24.6161V25.5147L35.4646 23.373L37.6063 21.2312V21.2399ZM27.9924 38.47C27.8092 38.2868 27.53 38.2301 27.2901 38.3304C27.0502 38.4308 26.8931 38.6663 26.8931 38.928V40.7383H25.1614V34.7535C25.1614 34.3959 24.8735 34.108 24.5158 34.108H21.9335C21.5758 34.108 21.2879 34.3959 21.2879 34.7535V43.9706C21.2879 44.3282 21.5758 44.6161 21.9335 44.6161H26.8931V46.3304C26.8931 46.5921 27.0502 46.8277 27.2901 46.928C27.3686 46.9629 27.4558 46.976 27.5387 46.976C27.7088 46.976 27.8702 46.9106 27.9967 46.7884L31.6957 43.0894C31.8179 42.9673 31.8833 42.8059 31.8833 42.6314C31.8833 42.4569 31.8135 42.2955 31.6957 42.1734L27.9967 38.4744L27.9924 38.47ZM28.1799 44.7645V43.9662C28.1799 43.6085 27.892 43.3206 27.5344 43.3206H22.5747V35.3991H23.8659V41.3839C23.8659 41.7415 24.1538 42.0294 24.5115 42.0294H27.5344C27.892 42.0294 28.1799 41.7415 28.1799 41.3839V40.4896L30.3217 42.6314L28.1799 44.7732V44.7645Z" fill="#0CB4C4"></path></svg>