<svg id="Layer_1" data-name="Layer 1" xmlns="http://www.w3.org/2000/svg" width="63.4" height="60" viewBox="0 0 63.4 60"><defs><style> .cls-1 { fill: #0cb4c4; } </style></defs><path class="cls-1" d="M20.9,43.12s0,.07,0,.1a.43.43,0,0,0,0,.05v0h0a10.45,10.45,0,0,0,6,9.28h0l.05,0a.88.88,0,0,0,.28.06h.07a.6.6,0,0,0,.29-.08l.07,0a.8.8,0,0,0,.22-.23l0,0,3.37-5.81a2.05,2.05,0,0,0,.9,0l3.37,5.81s0,0,0,0a.76.76,0,0,0,.23.24l0,0a.72.72,0,0,0,.32.08h.05a.88.88,0,0,0,.28-.06l.05,0h0a10.46,10.46,0,0,0,6-9.28h0v-.06a.36.36,0,0,0,0-.1,1,1,0,0,0,0-.17.41.41,0,0,0-.05-.09.56.56,0,0,0-.1-.15l-.08-.06a.83.83,0,0,0-.15-.11l-.11,0a.47.47,0,0,0-.14,0l-6.39-.62a3.78,3.78,0,0,0-.81-1.61l2.91-5.66a.66.66,0,0,0,.05-.15s0-.06,0-.09a1.21,1.21,0,0,0,0-.19s0-.06,0-.09a.51.51,0,0,0-.07-.17l-.05-.09a.37.37,0,0,0-.13-.12l-.07-.07,0,0a0,0,0,0,0,0,0h0a10.43,10.43,0,0,0-11,0h0l-.05,0-.07.07a.74.74,0,0,0-.13.12l-.05.1a1,1,0,0,0-.07.15.41.41,0,0,0,0,.11.55.55,0,0,0,0,.18l0,.1c0,.05,0,.1,0,.15l2.91,5.66a3.76,3.76,0,0,0-.8,1.61l-6.39.61-.14,0-.11,0-.15.11-.08.06a1.19,1.19,0,0,0-.09.15l-.06.1,0,.16ZM27,50.93a8.94,8.94,0,0,1-4.51-7l5.48-.52A3.83,3.83,0,0,0,29.8,46Zm2.4-8.23A2.35,2.35,0,1,1,31.7,45,2.35,2.35,0,0,1,29.35,42.7Zm7.1,8.23L33.6,46a3.85,3.85,0,0,0,1.88-2.66l5.48.53a8.94,8.94,0,0,1-4.51,7Zm-.57-16.38-2.44,4.74a3.77,3.77,0,0,0-1.74-.44,3.84,3.84,0,0,0-1.75.44l-2.43-4.74a9,9,0,0,1,8.36,0Z"></path><path class="cls-1" d="M60.81,59.64a.64.64,0,0,0,.08-.14.8.8,0,0,0,0-.15s0-.06,0-.1,0,0,0,0a.8.8,0,0,0,0-.15.5.5,0,0,0,0-.13.83.83,0,0,0-.08-.12.48.48,0,0,0-.09-.11l0,0C51.87,51.5,43.73,41.42,43.73,16.39V10.14c2.89-2.75,2.55-5.23,2.06-6.49A5.93,5.93,0,0,0,40.38,0a7.4,7.4,0,0,0-6.12,3.23,5.17,5.17,0,0,0-1.9-.61,4.9,4.9,0,0,0-9.19,1.59c-1.08.18-2.73.52-3.52,1.91a4.49,4.49,0,0,0,0,3.81v6.46c0,25-8.14,35.11-16.94,42.28l0,0a.58.58,0,0,0-.1.12.34.34,0,0,0-.07.11.65.65,0,0,0,0,.13.4.4,0,0,0,0,.15s0,0,0,0a.44.44,0,0,0,0,.1.8.8,0,0,0,0,.15.54.54,0,0,0,.07.13.73.73,0,0,0,0,.09l0,0a.9.9,0,0,0,.19.15l.06,0a.67.67,0,0,0,.31.07h57a.82.82,0,0,0,.31-.07l0,0a1,1,0,0,0,.19-.16l0,0a.2.2,0,0,0,0-.08Zm-39.64-44V10.58H42.23v5.06ZM21,6.87C21.44,6,22.74,5.8,23.6,5.66L24,5.58a.76.76,0,0,0,.6-.72,3.4,3.4,0,0,1,6.55-1.24.75.75,0,0,0,.68.47A3.75,3.75,0,0,1,34,4.87a.72.72,0,0,0,.62.14.71.71,0,0,0,.5-.38A5.9,5.9,0,0,1,40.37,1.5a4.44,4.44,0,0,1,4,2.69c.6,1.55,0,3.27-1.72,4.89H21a2.88,2.88,0,0,1,0-2.21Zm.21,10.27H42.24c.15,23.62,7.53,34.1,15.9,41.36H5.27C13.63,51.24,21,40.76,21.16,17.14Z"></path></svg>