<svg width="61" height="61" viewBox="0 0 61 61" fill="none" xmlns="http://www.w3.org/2000/svg"><path d="M18.9771 47.4347H20.9093C21.2118 47.4347 21.4926 47.2711 21.647 47.0088C21.7982 46.7464 21.7982 46.4223 21.647 46.1569C20.3908 43.984 19.1376 41.8111 17.8845 39.6382L16.2487 36.8079C16.0974 36.5455 15.8166 36.3819 15.511 36.3819C15.2085 36.3819 14.9277 36.5455 14.7733 36.8079L13.1375 39.6382C11.8844 41.8111 10.6281 43.984 9.37503 46.1569C9.22379 46.4193 9.22379 46.7434 9.37503 47.0088C9.52628 47.2711 9.80715 47.4347 10.1127 47.4347H11.9276C12.585 54.3825 15.8599 58.6082 21.6654 60.006C21.7302 60.0214 21.7981 60.0307 21.866 60.0307C22.1376 60.0307 22.4 59.8979 22.5605 59.6695C22.7611 59.3825 22.7673 59.0029 22.5728 58.7128C19.5727 54.1663 18.366 50.3757 18.9771 47.4347ZM13.5634 46.5304C13.5356 46.0828 13.1621 45.7341 12.7146 45.7341H11.588C12.5973 43.9871 13.6066 42.2401 14.6158 40.4901L15.514 38.9345L16.4122 40.4901C17.4214 42.237 18.4308 43.9871 19.44 45.7341H18.3196C17.9461 45.7341 17.6159 45.9779 17.5079 46.336C16.5696 49.407 17.3782 53.2004 19.9123 57.6295C16.0171 55.8919 13.9337 52.2374 13.5664 46.5272L13.5634 46.5304ZM27.2709 4.711C21.0515 -1.50526 10.9274 -1.50526 4.70817 4.711C1.69573 7.72344 0.0351562 11.7297 0.0351562 15.9919C0.0351562 20.2542 1.69573 24.2609 4.70817 27.2729C7.81938 30.381 11.9029 31.9366 15.9891 31.9366C20.0757 31.9366 24.1593 30.3809 27.2701 27.2729C30.2825 24.2605 31.9431 20.2542 31.9431 15.9919C31.9431 11.7297 30.2833 7.72305 27.2709 4.711ZM6.77915 26.866C7.93972 22.7486 11.6589 19.9151 15.9923 19.9151C20.3227 19.9151 24.0392 22.7485 25.2022 26.866C19.9058 31.3538 12.0787 31.3538 6.78231 26.866H6.77915ZM11.1465 13.3687C11.1465 10.6988 13.3194 8.529 15.9893 8.529C18.6591 8.529 20.8289 10.6988 20.8289 13.3687C20.8289 16.0385 18.656 18.2114 15.9893 18.2114C13.3194 18.2114 11.1465 16.0385 11.1465 13.3687ZM26.5576 25.5543C25.8477 23.6499 24.6224 21.9493 23.0204 20.6745C21.9988 19.8597 20.8413 19.2331 19.6129 18.8164C21.3722 17.6435 22.5327 15.6404 22.5327 13.3718C22.5327 9.76368 19.5975 6.83152 15.9924 6.83152C12.3843 6.83152 9.44906 9.76677 9.44906 13.3718C9.44906 15.6404 10.6096 17.6435 12.3689 18.8164C11.1405 19.2331 9.98305 19.8596 8.9583 20.6745C7.35643 21.9524 6.13415 23.6499 5.42421 25.5543C3.04143 22.9308 1.73887 19.5603 1.73887 15.9896C1.73887 12.1839 3.2204 8.60351 5.91181 5.91203C11.4707 0.356335 20.5137 0.356335 26.0701 5.91203C28.7615 8.60343 30.243 12.1838 30.243 15.9896C30.243 19.5607 28.9404 22.928 26.5576 25.5543ZM59.182 40.2495H57.1048C56.8178 39.2402 56.4165 38.2711 55.9042 37.3543L57.3734 35.8851C57.7067 35.5518 57.7067 35.0147 57.3734 34.6814L53.2899 30.5948C53.1294 30.4343 52.9133 30.3448 52.688 30.3448C52.4627 30.3448 52.2467 30.4343 52.0862 30.5948L50.6169 32.064C49.7034 31.5548 48.7342 31.1536 47.7248 30.8665V28.7893C47.7248 28.3201 47.3452 27.9374 46.8761 27.9374H41.0981C40.629 27.9374 40.2493 28.3171 40.2493 28.7893V30.8665C39.2401 31.1535 38.2709 31.5548 37.3541 32.064L35.8849 30.5948C35.7245 30.4343 35.5084 30.3448 35.2831 30.3448C35.0578 30.3448 34.8417 30.4343 34.6812 30.5948L30.5977 34.6814C30.2675 35.0148 30.2675 35.5518 30.5977 35.8851L32.0669 37.3543C31.5546 38.2711 31.1533 39.2402 30.8663 40.2495H28.7891C28.3199 40.2495 27.9403 40.6291 27.9403 41.1014V46.8732C27.9403 47.3423 28.3199 47.725 28.7891 47.725H30.8663C31.1533 48.7343 31.5546 49.7035 32.0669 50.6202L30.5977 52.0894C30.2644 52.4228 30.2644 52.9598 30.5977 53.2931L34.6812 57.3797C34.8417 57.5402 35.0578 57.6297 35.2831 57.6297C35.5084 57.6297 35.7244 57.5402 35.8849 57.3797L37.3541 55.9105C38.2677 56.4198 39.2369 56.821 40.2493 57.108V59.1853C40.2493 59.6544 40.629 60.0371 41.0981 60.0371H46.8761C47.3452 60.0371 47.7248 59.6575 47.7248 59.1853V57.108C48.7341 56.821 49.7033 56.4197 50.6169 55.9105L52.0862 57.3797C52.2466 57.5402 52.4627 57.6297 52.688 57.6297C52.9133 57.6297 53.1294 57.5402 53.2899 57.3797L57.3734 53.2931C57.7067 52.9598 57.7036 52.4227 57.3734 52.0894L55.9042 50.6202C56.4165 49.7035 56.8177 48.7344 57.1048 47.725H59.182C59.6512 47.725 60.0308 47.3454 60.0308 46.8732V41.1014C60.0308 40.6322 59.6512 40.2495 59.182 40.2495ZM58.3332 46.0213H56.4474C56.0523 46.0213 55.7066 46.296 55.6202 46.6818C55.3239 47.9658 54.8177 49.185 54.1202 50.3023C53.9103 50.6387 53.9597 51.0739 54.2406 51.3548L55.5739 52.6881L52.6942 55.5709L51.3609 54.2375C51.08 53.9567 50.6448 53.9073 50.3084 54.1172C49.191 54.8116 47.975 55.3178 46.6879 55.6141C46.3021 55.7036 46.0305 56.0462 46.0305 56.4413V58.3271H41.9532V56.4413C41.9532 56.0462 41.6816 55.7036 41.2957 55.6141C40.0087 55.3147 38.7895 54.8116 37.6753 54.1172C37.3389 53.9073 36.9037 53.9567 36.6228 54.2375L35.2894 55.5709L32.4097 52.6881L33.7431 51.3548C34.024 51.0739 34.0734 50.6387 33.8635 50.3023C33.1659 49.1849 32.6598 47.9658 32.3635 46.6818C32.274 46.296 31.9313 46.0213 31.5363 46.0213H29.6504V41.9502H31.5363C31.9313 41.9502 32.277 41.6755 32.3635 41.2928C32.6598 40.0088 33.1659 38.7896 33.8635 37.6723C34.0734 37.3359 34.024 36.9007 33.7431 36.6199L32.4097 35.2865L35.2894 32.4037L36.6228 33.7371C36.9037 34.018 37.3389 34.0673 37.6753 33.8574C38.7926 33.163 40.0087 32.6568 41.2957 32.3605C41.6816 32.271 41.9532 31.9284 41.9532 31.5333V29.6475H46.0305V31.5333C46.0305 31.9284 46.3021 32.271 46.6879 32.3605C47.975 32.6599 49.1942 33.163 50.3084 33.8574C50.6448 34.0673 51.08 34.0179 51.3609 33.7371L52.6942 32.4037L55.5739 35.2865L54.2406 36.6199C53.9597 36.9007 53.9103 37.3359 54.1202 37.6723C54.8177 38.7897 55.3239 40.0088 55.6202 41.2928C55.7097 41.6786 56.0523 41.9533 56.4474 41.9533H58.3332V46.0244V46.0213ZM37.1905 37.1874C33.4434 40.9345 33.4434 47.0335 37.1905 50.7804C39.064 52.6539 41.527 53.5922 43.987 53.5922C46.4501 53.5922 48.91 52.6539 50.7835 50.7804C54.5306 47.0333 54.5306 40.9343 50.7835 37.1874C47.0365 33.4404 40.9375 33.4404 37.1875 37.1874H37.1905ZM49.5831 49.577C48.2559 50.9042 46.5738 51.6573 44.8392 51.8425V49.3794C44.8392 48.9103 44.4595 48.5276 43.9904 48.5276C43.5213 48.5276 43.1416 48.9072 43.1416 49.3794V51.8425C41.407 51.6573 39.7218 50.9011 38.3976 49.577C37.0735 48.2528 36.3173 46.5676 36.1321 44.8361H38.5952C39.0643 44.8361 39.444 44.4564 39.444 43.9842C39.444 43.5151 39.0643 43.1324 38.5952 43.1324H36.1321C36.3173 41.3978 37.0704 39.7125 38.3976 38.3884C39.7249 37.0612 41.407 36.3081 43.1416 36.1229V38.5859C43.1416 39.0551 43.5213 39.4378 43.9904 39.4378C44.4595 39.4378 44.8392 39.0581 44.8392 38.5859V36.1229C46.5738 36.3081 48.259 37.0643 49.5831 38.3884C50.9104 39.7156 51.6635 41.3978 51.8487 43.1324H49.3856C48.9165 43.1324 48.5368 43.512 48.5368 43.9842C48.5368 44.4534 48.9165 44.8361 49.3856 44.8361H51.8487C51.6635 46.5676 50.9073 48.2528 49.5831 49.577ZM47.3053 43.9811C47.3053 44.4503 46.9257 44.833 46.4565 44.833H43.9873C43.5182 44.833 43.1385 44.4534 43.1385 43.9811V40.9255C43.1385 40.4563 43.5182 40.0736 43.9873 40.0736C44.4565 40.0736 44.8361 40.4533 44.8361 40.9255V43.1324H46.4534C46.9226 43.1324 47.3022 43.512 47.3022 43.9842L47.3053 43.9811ZM40.9995 12.6281H39.0643C38.7618 12.6281 38.4809 12.7916 38.3266 13.054C38.1754 13.3163 38.1754 13.6404 38.3266 13.9058L38.3945 14.0231C40.1724 17.1004 41.9502 20.1746 43.7249 23.2552C43.8762 23.5176 44.1571 23.6812 44.4626 23.6812C44.7651 23.6812 45.046 23.5176 45.2003 23.2552L47.1541 19.8755C48.3023 17.8848 49.4536 15.897 50.5987 13.9062C50.7499 13.6438 50.7499 13.3198 50.5987 13.0574C50.4474 12.7951 50.1666 12.6315 49.861 12.6315H48.0492C47.3887 5.68679 44.1138 1.45799 38.3146 0.0602186C37.975 -0.0200289 37.6201 0.112689 37.4195 0.396648C37.2188 0.683693 37.2127 1.06025 37.404 1.35344C40.4011 5.90296 41.6109 9.69345 40.9998 12.6312L40.9995 12.6281ZM46.4164 13.5324C46.4442 13.9799 46.8176 14.3287 47.2652 14.3287H48.3887C47.4874 15.8936 46.583 17.4553 45.6787 19.0202L44.4626 21.1252C43.1539 18.8566 41.8452 16.5911 40.5365 14.3256H41.66C42.0335 14.3256 42.3637 14.0818 42.4717 13.7237C43.41 10.6557 42.6014 6.8624 40.0673 2.43014C43.9625 4.16784 46.046 7.82213 46.4164 13.5324Z" fill="#0CB4C4"></path></svg>