<svg id="Layer_1" data-name="Layer 1" xmlns="http://www.w3.org/2000/svg" width="42.15" height="60" viewBox="0 0 42.15 60"><defs><style> .cls-1 { fill: #0cb4c4; } </style></defs><path class="cls-1" d="M41,21.05H34.61V1.17a1.17,1.17,0,0,0-2.34,0V21.05H9.88V1.17a1.18,1.18,0,0,0-2.35,0V21.05H1.17A1.18,1.18,0,0,0,0,22.23v8.45C0,42.93,8.83,52.94,19.9,53.61v5.22a1.18,1.18,0,0,0,2.35,0V53.61c11.07-.67,19.9-10.68,19.9-22.93V22.23A1.18,1.18,0,0,0,41,21.05ZM2.35,23.4H39.8v6.1H2.35ZM21.07,51.32c-10,0-18.11-8.63-18.67-19.47H39.74C39.18,42.69,31,51.32,21.07,51.32Z"></path></svg>