<svg id="Layer_1" data-name="Layer 1" xmlns="http://www.w3.org/2000/svg" width="42.91" height="60" viewBox="0 0 42.91 60"><defs><style> .cls-1 { fill: #0cb4c4; } </style></defs><path class="cls-1" d="M22.51.56a1.25,1.25,0,0,0-2.08,0L2.75,28.88a19.75,19.75,0,0,0,.08,20.24A21.61,21.61,0,0,0,21.47,60,21.61,21.61,0,0,0,40.11,49.12a20.08,20.08,0,0,0,.08-20.32ZM38,47.92a19,19,0,0,1-33.12,0,17.78,17.78,0,0,1-.16-17.84L21.47,3.44,38.19,30.08A17.59,17.59,0,0,1,38,47.92Z"></path><path class="cls-1" d="M34.19,38.24a1.23,1.23,0,0,0-1.2,1.2,9.83,9.83,0,0,1-9.84,9.84,1.2,1.2,0,1,0,0,2.4A12.24,12.24,0,0,0,35.39,39.44a1.18,1.18,0,0,0-1.2-1.2Z"></path></svg>