<svg id="Layer_1" data-name="Layer 1" xmlns="http://www.w3.org/2000/svg" width="52.08" height="60" viewBox="0 0 52.08 60"><defs><style> .cls-1 { fill: #0cb4c4; } </style></defs><path class="cls-1" d="M26.63.35a.6.6,0,0,0-.54.35c-3.76,7-13,10.77-23.81,10.42a.67.67,0,0,0-.69.69A75.27,75.27,0,0,0,3.61,30C1.83,32.46.35,35,.35,38.34A10.36,10.36,0,0,0,10.68,48.67a9.09,9.09,0,0,0,2.07-.2A53.13,53.13,0,0,0,26.34,59.53a.51.51,0,0,0,.64,0c5.83-3.5,12.05-8,16.74-15.36s8-17.54,8-32.36a.68.68,0,0,0-.7-.69C40.27,11.47,31,7.71,27.22.7a.67.67,0,0,0-.59-.35Zm.05,1.83C30.93,9.05,40,12.6,50.39,12.45c-.09,14.23-3.26,24-7.75,31s-10.33,11.26-16,14.72a51.27,51.27,0,0,1-12.5-10.13A10.35,10.35,0,0,0,21,38.34c0-3.8-1.88-6.52-4-9.34s-4.45-5.83-5.68-10.47a.75.75,0,0,0-.65-.49.69.69,0,0,0-.64.49,27.86,27.86,0,0,1-5.38,10A75.69,75.69,0,0,1,2.92,12.45c10.37.15,19.46-3.4,23.76-10.27Zm-.05,2.91a.66.66,0,0,0-.64.65V54.25a.64.64,0,0,0,1,.54c4.84-2.91,10-6.72,13.88-12.89s6.62-14.72,6.62-27.12a.66.66,0,0,0-.64-.69c-8.89.29-16.5-2.87-19.61-8.65a.61.61,0,0,0-.6-.35Zm.69,2.82c3.81,5,10.87,7.61,18.83,7.51-.1,11.86-2.67,20-6.38,25.79A37.68,37.68,0,0,1,27.32,53ZM10.68,20.7A33.15,33.15,0,0,0,16,29.79c2.08,2.82,3.76,5.14,3.76,8.55a9,9,0,1,1-18,0c0-3.41,1.63-5.73,3.76-8.55A34.72,34.72,0,0,0,10.68,20.7Z"></path><path class="cls-1" d="M26.66,60a.94.94,0,0,1-.54-.18,54.34,54.34,0,0,1-13.5-11,10,10,0,0,1-1.94.16A10.69,10.69,0,0,1,0,38.34c0-3.56,1.65-6.21,3.23-8.42a76.29,76.29,0,0,1-2-18.11,1,1,0,0,1,1-1C13.2,11.1,22.21,7.2,25.78.53A1,1,0,0,1,26.63,0a1,1,0,0,1,.91.54C31.1,7.2,40.1,11.13,51,10.77h0a1,1,0,0,1,1.06,1C52.08,25.3,49.44,36,44,44.36,39.16,52,32.77,56.46,27.16,59.84A.88.88,0,0,1,26.66,60ZM12.88,48.08l.14.16a53.09,53.09,0,0,0,13.5,11c.1.08.18.08.25,0C32.34,55.9,38.64,51.48,43.43,44c5.35-8.3,8-18.82,8-32.17a.33.33,0,0,0-.35-.34C39.88,11.83,30.61,7.77,26.91.86A.34.34,0,0,0,26.63.7h0a.28.28,0,0,0-.23.15c-3.7,6.92-13,11-24.13,10.62a.32.32,0,0,0-.33.34,75.49,75.49,0,0,0,2,18.1l0,.15-.09.14C2.35,32.34.7,34.92.7,38.34a10,10,0,0,0,10,10,9.39,9.39,0,0,0,2-.18Zm13.8,10.53-.18-.11A51.9,51.9,0,0,1,13.92,48.3l-.34-.38.48-.18a10,10,0,0,0,6.59-9.4c0-3.62-1.71-6.17-3.93-9.12l-.13-.17c-2.06-2.73-4.38-5.81-5.61-10.43a.42.42,0,0,0-.31-.23.34.34,0,0,0-.3.25A27.89,27.89,0,0,1,4.93,28.77l-.46.6-.17-.73A76.67,76.67,0,0,1,2.57,12.46V12.1h.36C13.58,12.26,22.33,8.47,26.38,2l.3-.48L27,2C31,8.48,39.75,12.25,50.39,12.1h.36v.36C50.66,25.4,48.1,35.6,42.93,43.67,38.25,50.92,32.18,55.24,26.86,58.5ZM14.78,48.22a51.34,51.34,0,0,0,11.9,9.57c5.21-3.21,11.11-7.45,15.66-14.5,5-7.87,7.57-17.85,7.7-30.48h-.27c-10.36,0-18.91-3.7-23.09-10-4.22,6.28-12.79,10-23.14,10H3.27A76.87,76.87,0,0,0,4.83,27.74a26.31,26.31,0,0,0,4.86-9.3,1,1,0,0,1,1-.75,1.07,1.07,0,0,1,1,.71c1.21,4.52,3.4,7.42,5.51,10.22l.13.17c2.23,3,4.07,5.71,4.07,9.55A10.74,10.74,0,0,1,14.78,48.22Zm11.88,7a.91.91,0,0,1-.45-.11,1,1,0,0,1-.57-.89V5.74a1,1,0,0,1,1-1h0a.94.94,0,0,1,.92.57C30.5,10.79,37.89,14,46.83,13.73h0a1,1,0,0,1,1,1c0,11.36-2.18,20.29-6.67,27.31a40.42,40.42,0,0,1-14,13A.81.81,0,0,1,26.66,55.25Zm0-49.81a.31.31,0,0,0-.29.3V54.25a.34.34,0,0,0,.18.27.25.25,0,0,0,.25,0,39.92,39.92,0,0,0,13.79-12.8C45,34.81,47.13,26,47.13,14.78a.32.32,0,0,0-.29-.34c-9.2.3-16.83-3.08-19.93-8.83a.28.28,0,0,0-.28-.17ZM27,53.65V6.86l.63.84c3.55,4.7,10.13,7.37,18.09,7.37h.81v.36c-.09,10.82-2.2,19.31-6.43,26A38.42,38.42,0,0,1,27.51,53.31ZM27.68,8.9V52.37A37.13,37.13,0,0,0,39.48,41c4.11-6.48,6.18-14.74,6.31-25.25h-.1C38,15.77,31.47,13.29,27.68,8.9Zm-17,38.83a9.38,9.38,0,0,1-9.35-9.39c0-3.42,1.59-5.79,3.83-8.76a34.21,34.21,0,0,0,5.18-9l.34-.93.33.93a33.29,33.29,0,0,0,5.23,9c2.05,2.79,3.83,5.19,3.83,8.76A9.4,9.4,0,0,1,10.68,47.73Zm0-26A36.74,36.74,0,0,1,5.74,30C3.49,33,2,35.13,2,38.34a8.66,8.66,0,1,0,17.32,0c0-3.34-1.7-5.65-3.68-8.34A35.21,35.21,0,0,1,10.68,21.7Z"></path></svg>