<svg id="Layer_1" data-name="Layer 1" xmlns="http://www.w3.org/2000/svg" width="64.28" height="60" viewBox="0 0 64.28 60"><defs><style> .cls-1 { fill: #0cb4c4; } </style></defs><path class="cls-1" d="M19.52,29.54a7.32,7.32,0,0,0,6.17-3.4h4.06a.74.74,0,0,1,.74.74v2.51a2.1,2.1,0,0,0,1,4h6.9a2.1,2.1,0,0,0,.84-4V26.87a9.55,9.55,0,0,0-9.53-9.54H25.58a7.42,7.42,0,0,0-3.51-2.73V10.05h1.27A.74.74,0,0,0,24,9.63a5.58,5.58,0,0,1,2.06.66A4.05,4.05,0,0,0,28,10.8a4,4,0,0,0,2.91-1.27,3.91,3.91,0,0,0,1.06-3,4,4,0,0,0-3.67-3.69,3.85,3.85,0,0,0-2.3.53A5.43,5.43,0,0,1,24,4a.75.75,0,0,0-.67-.42H22.07V3.05a3.06,3.06,0,0,0-6.11,0v.52H14.68A.75.75,0,0,0,14,4a5.37,5.37,0,0,1-2-.62A3.89,3.89,0,0,0,9.7,2.84,4,4,0,0,0,6,6.53a4,4,0,0,0,1.06,3,4,4,0,0,0,4.86.76A5.62,5.62,0,0,1,14,9.63a.73.73,0,0,0,.66.42H16v4.63a7.39,7.39,0,0,0-3.28,2.69,1.06,1.06,0,0,0-.19,0H6.54a5.86,5.86,0,0,0-5.8-5.14.74.74,0,0,0-.74.74V30.54a.74.74,0,0,0,.74.74,5.86,5.86,0,0,0,5.8-5.14h5.88a.8.8,0,0,0,.15,0,7.31,7.31,0,0,0,6.19,3.43ZM29.69,18.81a8.07,8.07,0,0,1,8.05,8.06v3a.74.74,0,0,0,.69.74.63.63,0,0,1,0,1.25h-6.9a.63.63,0,0,1-.63-.62.64.64,0,0,1,.51-.62A.73.73,0,0,0,32,29.9v-3a2.23,2.23,0,0,0-2.22-2.22H26.4a7.15,7.15,0,0,0,.45-2.45v-.76a7.3,7.3,0,0,0-.51-2.64ZM24.08,5.51a6.93,6.93,0,0,0,2.68-.86,2.64,2.64,0,0,1,1.45-.34,2.53,2.53,0,0,1,2.31,2.32,2.47,2.47,0,0,1-.67,1.89A2.54,2.54,0,0,1,26.8,9a7.44,7.44,0,0,0-2.72-.89ZM13.94,8.11A7.39,7.39,0,0,0,11.23,9a2.55,2.55,0,0,1-3.06-.48,2.47,2.47,0,0,1-.66-1.89,2.49,2.49,0,0,1,2.3-2.31,2.33,2.33,0,0,1,1.45.33,7,7,0,0,0,2.68.86ZM5.14,25.18a.79.79,0,0,0,0,.22.42.42,0,0,0,0,.15,4.42,4.42,0,0,1-3.65,4.19v-16a4.42,4.42,0,0,1,3.66,4.34Zm6.74-.52H6.62V18.81h5.32a7.31,7.31,0,0,0-.51,2.65v.75a7.39,7.39,0,0,0,.45,2.45ZM17.44,3.05a1.58,1.58,0,0,1,3.15,0v.52H17.44Zm-2,5.52V5.05H22.6V8.57Zm5.17,1.48v4.07H17.44V10.05ZM12.91,22.21v-.75a5.86,5.86,0,0,1,5.85-5.86h.76a5.86,5.86,0,0,1,5.85,5.86v.75a5.85,5.85,0,0,1-5.85,5.85h-.76A5.85,5.85,0,0,1,12.91,22.21Z"></path><path class="cls-1" d="M63.54,46.92h-6.6a.74.74,0,0,0-.74.74h0c-1.88-1.25-5.24-3-8.76-2.55a41.66,41.66,0,0,0-7,1.56,14.46,14.46,0,0,1-3.72.65l-3.67.14a2.38,2.38,0,0,0-2.31,2.39,3.35,3.35,0,0,0,.07.44l-.22-.08-8.72-3.6a2.67,2.67,0,0,0-3.5,1.51,2.67,2.67,0,0,0,1.22,3.29l10.45,5.67a12.82,12.82,0,0,0,7.72,1.63A95,95,0,0,1,50.5,58c1.3.1,4.41.75,5.7,1v.27a.74.74,0,0,0,.74.74h6.6a.74.74,0,0,0,.74-.74V47.66a.74.74,0,0,0-.74-.74ZM56.2,57.48c-1.46-.31-4.29-.88-5.6-1a101.55,101.55,0,0,0-13,.74,11.49,11.49,0,0,1-6.85-1.45L20.33,50.11a1.18,1.18,0,0,1-.54-1.46A1.17,1.17,0,0,1,21.34,48l8.72,3.6a13.46,13.46,0,0,0,2.59.73l0,0h.06a37.55,37.55,0,0,0,10.31.08.74.74,0,0,0-.2-1.46,37.12,37.12,0,0,1-9.92-.08,1,1,0,0,1-.68-1,.92.92,0,0,1,.88-.92l3.68-.13a15.77,15.77,0,0,0,4.11-.72,39.64,39.64,0,0,1,6.71-1.5c3.63-.48,7.21,1.87,8.56,2.88v8Zm6.6,1H57.68V48.4H62.8Z"></path><path class="cls-1" d="M35.44,35.37a.74.74,0,0,0-1.46,0,16.06,16.06,0,0,1-.75,2.92c-.21.58-.48,1.17-.72,1.72a7.31,7.31,0,0,0-.84,2.49,3.66,3.66,0,0,0,.86,2.39A2.85,2.85,0,0,0,34.72,46h0a3.26,3.26,0,0,0,3-3.44h0A7.44,7.44,0,0,0,36.92,40c-.25-.55-.51-1.14-.71-1.7a16.18,16.18,0,0,1-.77-2.91Zm-.72,9.1h0a1.37,1.37,0,0,1-1.06-.53,2.18,2.18,0,0,1-.5-1.43,8.66,8.66,0,0,1,.71-1.89c.26-.58.54-1.2.76-1.81l.1-.3.1.28c.22.59.49,1.21.74,1.79a9,9,0,0,1,.72,1.93,1.8,1.8,0,0,1-1.56,2Z"></path></svg>