<svg id="Layer_1" data-name="Layer 1" xmlns="http://www.w3.org/2000/svg" width="63.4" height="60" viewBox="0 0 63.4 60"><defs><style> .cls-1 { fill: #0cb4c4; } </style></defs><path class="cls-1" d="M53.2,34.45A51.49,51.49,0,0,0,48.46,30c7.15-6,10.88-11.74,9-14.91-.86-1.48-2.73-2.23-5.56-2.23a36.79,36.79,0,0,0-11.86,2.62C38.48,6.3,35.36.2,31.7.2s-6.77,6.1-8.39,15.29a36.79,36.79,0,0,0-11.86-2.62c-2.83,0-4.7.75-5.56,2.23-1.33,2.31.2,6,4.31,10.45A50.23,50.23,0,0,0,14.94,30c-7.15,6-10.88,11.74-9,14.91.86,1.48,2.73,2.23,5.56,2.23a36.79,36.79,0,0,0,11.86-2.62C24.93,53.7,28,59.8,31.7,59.8s6.78-6.1,8.39-15.29A36.79,36.79,0,0,0,52,47.13c2.83,0,4.7-.75,5.56-2.23,1.33-2.31-.2-6-4.31-10.45ZM52,14c1.65,0,3.79.29,4.58,1.67,1.41,2.44-1.88,7.75-9,13.62-2-1.59-4.14-3.18-6.48-4.71-.16-2.82-.44-5.49-.83-8A36.25,36.25,0,0,1,52,14Zm-16,23.31q-2.12,1.23-4.22,2.29-2.1-1.06-4.22-2.29c-1.41-.81-2.77-1.66-4.1-2.51-.07-1.54-.11-3.14-.11-4.79s0-3.25.11-4.79c1.31-.84,2.66-1.68,4.1-2.51s2.82-1.58,4.22-2.29q2.1,1.07,4.22,2.29c1.41.81,2.77,1.66,4.1,2.51.07,1.55.11,3.14.11,4.79s0,3.25-.11,4.79c-1.31.84-2.66,1.68-4.1,2.51Zm4-1.12c-.16,2.43-.41,4.71-.73,6.8-2-.78-4.13-1.71-6.26-2.76,1.17-.61,2.35-1.26,3.53-1.94s2.34-1.39,3.46-2.1Zm-9.48,4c-2.14,1.05-4.24,2-6.26,2.76-.33-2.1-.58-4.38-.74-6.81,1.13.72,2.28,1.42,3.46,2.11s2.36,1.33,3.54,1.94ZM22.23,34c-2-1.32-3.82-2.67-5.51-4,1.66-1.34,3.48-2.69,5.51-4-.06,1.32-.09,2.67-.09,4S22.17,32.71,22.23,34Zm1.23-10.21c.16-2.43.41-4.71.73-6.8,2,.78,4.13,1.71,6.26,2.76-1.17.61-2.35,1.26-3.53,1.94s-2.34,1.39-3.46,2.1Zm9.48-4c2.14-1.05,4.24-2,6.26-2.76.33,2.1.58,4.38.74,6.81-1.13-.72-2.28-1.42-3.46-2.11s-2.36-1.33-3.54-1.94ZM41.17,26c2,1.32,3.82,2.67,5.51,4-1.66,1.34-3.48,2.69-5.51,4,.06-1.32.09-2.67.09-4S41.23,27.29,41.17,26ZM31.7,1.33c2.81,0,5.76,5.5,7.32,14.56a78.72,78.72,0,0,0-7.32,3.26,78.72,78.72,0,0,0-7.32-3.26C25.94,6.83,28.89,1.33,31.7,1.33ZM11,24.79c-3.7-4-5.22-7.3-4.16-9.13C7.66,14.28,9.8,14,11.45,14a36.2,36.2,0,0,1,11.68,2.61c-.39,2.47-.67,5.14-.83,8-2.36,1.55-4.53,3.13-6.48,4.7A52.72,52.72,0,0,1,11,24.79ZM11.45,46c-1.65,0-3.79-.29-4.58-1.67-1.41-2.44,1.88-7.75,9-13.62,2,1.59,4.14,3.18,6.48,4.71.16,2.82.44,5.49.83,8A36,36,0,0,1,11.45,46ZM31.7,58.68c-2.81,0-5.76-5.51-7.32-14.56,2.36-.91,4.82-2,7.32-3.27,2.5,1.26,5,2.36,7.32,3.27C37.47,53.17,34.51,58.68,31.7,58.68ZM56.53,44.34C55.74,45.72,53.6,46,52,46a36.25,36.25,0,0,1-11.68-2.62c.39-2.47.67-5.14.83-8,2.36-1.55,4.53-3.13,6.48-4.7a52.72,52.72,0,0,1,4.79,4.48c3.7,4,5.22,7.31,4.16,9.13Z"></path><path class="cls-1" d="M31.7,60c-3.65,0-6.83-5.68-8.54-15.22a36.57,36.57,0,0,1-11.71,2.55c-2.91,0-4.84-.78-5.73-2.33-1.83-3.16,1.5-8.76,8.91-15a49.91,49.91,0,0,1-4.57-4.3C5.87,21.19,4.33,17.4,5.72,15c.89-1.55,2.82-2.33,5.73-2.33a36.63,36.63,0,0,1,11.71,2.55C24.87,5.68,28.05,0,31.7,0s6.83,5.68,8.54,15.22A36.57,36.57,0,0,1,52,12.67c2.91,0,4.84.78,5.73,2.33,1.82,3.16-1.5,8.76-8.91,15a49.83,49.83,0,0,1,4.57,4.3c4.18,4.5,5.72,8.29,4.34,10.69-.89,1.55-2.82,2.33-5.73,2.33a36.57,36.57,0,0,1-11.71-2.55C38.53,54.32,35.35,60,31.7,60ZM23.47,44.24l0,.23C25.15,53.8,28.29,59.6,31.7,59.6s6.55-5.8,8.19-15.13l0-.23.23.08A36.44,36.44,0,0,0,52,46.93c2.76,0,4.57-.72,5.38-2.13,1.29-2.23-.23-5.86-4.28-10.22h0a51.86,51.86,0,0,0-4.72-4.42L48.15,30l.18-.16c7.26-6.08,10.71-11.69,9-14.65-.81-1.41-2.63-2.13-5.38-2.13a36.55,36.55,0,0,0-11.8,2.61l-.22.08,0-.24C38.25,6.2,35.12.4,31.7.4s-6.55,5.8-8.19,15.12l0,.24-.22-.08a36.6,36.6,0,0,0-11.8-2.61c-2.76,0-4.57.72-5.38,2.13-1.29,2.23.23,5.86,4.28,10.22a52,52,0,0,0,4.72,4.42l.18.15-.18.16c-7.26,6.08-10.71,11.69-9,14.65.81,1.41,2.62,2.13,5.38,2.13a36.6,36.6,0,0,0,11.8-2.61ZM31.7,58.88c-3,0-6-5.78-7.52-14.73l0-.16.16-.06c2.36-.91,4.82-2,7.3-3.26l.09,0,.09,0c2.5,1.26,5,2.36,7.3,3.26l.16.06,0,.16C37.68,53.1,34.73,58.88,31.7,58.88ZM24.61,44.24c1.48,8.52,4.33,14.23,7.09,14.23s5.61-5.71,7.09-14.22c-2.28-.89-4.67-2-7.09-3.17C29.29,42.29,26.9,43.35,24.61,44.24Zm27.34,2A36.25,36.25,0,0,1,40.2,43.58l-.15-.06,0-.16a79,79,0,0,0,.83-7.94v-.1l.08-.06c2.33-1.52,4.5-3.1,6.46-4.68l.13-.11.13.11a51.08,51.08,0,0,1,4.81,4.5c3.76,4,5.29,7.46,4.19,9.36h0C55.86,45.9,53.65,46.21,52,46.21Zm-11.45-3A35.69,35.69,0,0,0,52,45.81c1.6,0,3.66-.28,4.41-1.57h0c1-1.74-.5-5-4.13-8.89A51.78,51.78,0,0,0,47.57,31c-1.91,1.54-4,3.07-6.27,4.55C41.14,38.24,40.87,40.83,40.5,43.26Zm-29,3c-1.7,0-3.91-.31-4.76-1.77-1.51-2.63,2-8.07,9-13.87l.12-.11.13.1c2,1.6,4.16,3.18,6.47,4.7l.08.05v.1a76.41,76.41,0,0,0,.83,8l0,.16-.15.06A36.14,36.14,0,0,1,11.45,46.21ZM15.82,31C9.18,36.53,5.66,41.85,7,44.24c.75,1.29,2.81,1.57,4.41,1.57A35.64,35.64,0,0,0,22.9,43.26c-.37-2.43-.64-5-.8-7.72C19.86,34.07,17.75,32.53,15.82,31ZM24,43.26,24,43c-.33-2.16-.58-4.46-.74-6.84l0-.39.33.21c1.3.82,2.39,1.49,3.45,2.1s2.33,1.31,3.53,1.94l.35.19-.35.17c-2.14,1.05-4.25,2-6.28,2.77Zm-.35-6.71c.15,2.14.37,4.21.67,6.16,1.83-.73,3.73-1.56,5.65-2.5-1.09-.57-2.16-1.16-3.19-1.76S24.85,37.28,23.69,36.55Zm15.68,6.71-.24-.09c-2-.79-4.14-1.72-6.27-2.77l-.36-.17.35-.19c1.2-.63,2.39-1.28,3.53-1.94s2.29-1.35,3.45-2.09l.33-.21,0,.39c-.16,2.38-.4,4.68-.74,6.83Zm-6-3c1.92.94,3.82,1.77,5.65,2.5.3-2,.52-4,.67-6.15-1.05.66-2.1,1.3-3.13,1.89S34.47,39.64,33.39,40.21Zm-1.69-.39-.09,0c-1.46-.74-2.88-1.52-4.23-2.29S24.73,35.9,23.28,35l-.09-.06v-.1c-.07-1.57-.11-3.19-.11-4.8s0-3.21.11-4.8v-.1l.09-.06c1.5-1,2.8-1.77,4.1-2.52s2.76-1.54,4.23-2.29l.09-.05.09.05c1.5.77,2.89,1.52,4.23,2.29s2.65,1.58,4.11,2.53l.08.05v.1c.08,1.6.12,3.21.12,4.8s0,3.21-.12,4.8v.1l-.08.06c-1.52,1-2.83,1.78-4.11,2.52h0c-1.34.77-2.72,1.52-4.23,2.29Zm-8.12-5.15c1.41.92,2.73,1.72,4,2.46s2.7,1.51,4.12,2.24c1.47-.75,2.81-1.49,4.12-2.24h0c1.25-.72,2.52-1.5,4-2.45.08-1.56.11-3.13.11-4.68s0-3.12-.11-4.67c-1.42-.92-2.73-1.72-4-2.46s-2.66-1.49-4.12-2.24c-1.43.74-2.82,1.49-4.12,2.24s-2.54,1.51-4,2.46c-.07,1.55-.11,3.12-.11,4.67S23.51,33.14,23.58,34.67ZM41,34.43V34c.06-1.35.09-2.71.09-4s0-2.67-.09-4v-.4l.33.22c2,1.31,3.81,2.67,5.52,4.05L47,30l-.19.16c-1.76,1.42-3.62,2.78-5.52,4.05Zm.43-8.07c0,1.22.07,2.44.07,3.64s0,2.43-.07,3.65c1.71-1.15,3.38-2.38,5-3.65C44.81,28.77,43.14,27.54,41.39,26.36ZM22.44,34.42l-.32-.22c-2-1.32-3.83-2.68-5.53-4.05L16.4,30l.19-.16c1.76-1.41,3.61-2.77,5.53-4.05l.32-.22V26c-.06,1.37-.09,2.73-.09,4s0,2.66.09,4ZM17,30c1.54,1.22,3.21,2.45,5,3.64-.05-1.23-.07-2.45-.07-3.64s0-2.41.07-3.65C20.3,27.5,18.62,28.73,17,30Zm30.54-.46-.12-.1c-2-1.6-4.16-3.18-6.47-4.7l-.08,0v-.1a77.28,77.28,0,0,0-.83-7.95l0-.16.15-.06A36.2,36.2,0,0,1,52,13.79h0c1.7,0,3.91.31,4.76,1.77,1.51,2.63-2,8.07-9,13.88ZM41.3,24.46c2.24,1.48,4.35,3,6.28,4.56,6.64-5.55,10.16-10.86,8.78-13.26-.75-1.29-2.81-1.56-4.41-1.56h0A35.59,35.59,0,0,0,40.5,16.74C40.87,19.19,41.14,21.78,41.3,24.46ZM15.82,29.53l-.13-.11a52.42,52.42,0,0,1-4.81-4.49h0c-3.76-4.05-5.29-7.46-4.19-9.37.85-1.46,3.06-1.77,4.76-1.77A36,36,0,0,1,23.2,16.43l.15.05,0,.17c-.39,2.48-.67,5.15-.83,7.93v.1l-.08.06c-2.32,1.52-4.49,3.1-6.46,4.68Zm-4.65-4.88A50.38,50.38,0,0,0,15.83,29c1.91-1.54,4-3.07,6.27-4.55.16-2.7.43-5.29.81-7.71A35.53,35.53,0,0,0,11.45,14.2c-1.6,0-3.66.27-4.41,1.56-1,1.74.5,5,4.13,8.89Zm29-.44L39.83,24c-1.31-.83-2.41-1.5-3.45-2.1S34,20.57,32.85,20l-.35-.18.36-.18c2.12-1,4.23-2,6.27-2.77l.23-.09,0,.25c.34,2.17.58,4.47.74,6.83Zm-6.77-4.42c1.06.56,2.13,1.15,3.19,1.76s2,1.16,3.13,1.9c-.15-2.12-.37-4.19-.67-6.15C37.2,18,35.3,18.86,33.39,19.79ZM23.24,24.2l0-.39c.16-2.38.4-4.67.74-6.83l0-.24.24.09c2,.79,4.15,1.72,6.27,2.77l.36.18-.35.18c-1.17.61-2.36,1.26-3.53,1.94S24.76,23.24,23.57,24Zm1.12-6.91c-.3,1.95-.52,4-.67,6.15,1.07-.68,2.1-1.3,3.13-1.89S29,20.35,30,19.79C28.1,18.86,26.2,18,24.36,17.29Zm7.34,2.08-.09,0c-2.5-1.26-5-2.35-7.3-3.26L24.15,16l0-.16C25.72,6.91,28.67,1.12,31.7,1.12s6,5.79,7.52,14.73l0,.16-.16.06c-2.35.91-4.81,2-7.3,3.26Zm-7.09-3.61c2.28.88,4.66,2,7.09,3.16,2.42-1.21,4.8-2.27,7.09-3.16C37.31,7.24,34.46,1.53,31.7,1.53S26.09,7.24,24.61,15.76Z"></path><path class="cls-1" d="M31.7,24.94A5.06,5.06,0,1,0,36.76,30,5.07,5.07,0,0,0,31.7,24.94Zm0,9A3.94,3.94,0,1,1,35.64,30,3.94,3.94,0,0,1,31.7,33.94Z"></path><path class="cls-1" d="M31.7,35.26A5.26,5.26,0,1,1,37,30,5.27,5.27,0,0,1,31.7,35.26Zm0-10.12A4.86,4.86,0,1,0,36.56,30,4.87,4.87,0,0,0,31.7,25.14Zm0,9A4.14,4.14,0,1,1,35.84,30,4.15,4.15,0,0,1,31.7,34.14Zm0-7.87A3.73,3.73,0,1,0,35.44,30,3.73,3.73,0,0,0,31.7,26.27Z"></path></svg>