<svg aria-labelledby="svgTitle" width="66" height="60" viewBox="0 0 66 60" fill="none" xmlns="http://www.w3.org/2000/svg"><title id="svgTitle">Customized Shopping Experiences</title><mask id="path-1-inside-1_1520_114" fill="white"><path d="M65.963 12.9807L60.3615 38.3192C59.7967 40.8598 57.596 42.6358 55.0116 42.6358H21.9395C19.395 42.6358 17.2005 40.8999 16.605 38.4117L8.45598 4.26764C8.29944 3.62016 7.73162 3.17003 7.0656 3.17003H1.5715C0.705915 3.17003 0 2.46088 0 1.5914C0 0.721928 0.705947 0.0127786 1.5715 0.0127786H7.06254C9.18343 0.0127786 11.0158 1.45572 11.51 3.53382L13.3117 11.0631H15.715C16.5806 11.0631 17.2865 11.7723 17.2865 12.6418C17.2865 13.5112 16.5806 14.2204 15.715 14.2204H14.0637L19.6652 37.678C19.9169 38.7355 20.853 39.4785 21.9426 39.4785H55.0053C56.1134 39.4785 57.0495 38.72 57.292 37.6409L62.4761 14.2205H61.2883C60.4227 14.2205 59.7168 13.5113 59.7168 12.6418C59.7168 11.7724 60.4228 11.0632 61.2883 11.0632H64.4313C64.9101 11.0632 65.3583 11.2852 65.656 11.6552C65.9568 12.0252 66.0643 12.5151 65.963 12.9807ZM33.0016 52.8962C33.0016 56.8119 29.8279 60 25.9299 60C22.0319 60 18.8582 56.8119 18.8582 52.8962C18.8582 48.9805 22.0319 45.7924 25.9299 45.7924C29.8279 45.7924 33.0016 48.9805 33.0016 52.8962ZM29.8587 52.8962C29.8587 50.7164 28.0999 48.9496 25.9299 48.9496C23.7599 48.9496 22.0012 50.7164 22.0012 52.8962C22.0012 55.076 23.7599 56.8428 25.9299 56.8428C28.0999 56.8428 29.8587 55.076 29.8587 52.8962ZM58.1456 52.8962C58.1456 56.8119 54.9719 60 51.0738 60C47.1758 60 44.0021 56.8119 44.0021 52.8962C44.0021 48.9805 47.1758 45.7924 51.0738 45.7924C54.9719 45.7924 58.1456 48.9805 58.1456 52.8962ZM55.0026 52.8962C55.0026 50.7164 53.2438 48.9496 51.0738 48.9496C48.9038 48.9496 47.1451 50.7164 47.1451 52.8962C47.1451 55.076 48.9038 56.8428 51.0738 56.8428C53.2438 56.8428 55.0026 55.076 55.0026 52.8962ZM32.1546 17.3772C32.1546 13.8961 34.9753 11.0627 38.4406 11.0627C41.9059 11.0627 44.7266 13.8961 44.7266 17.3772C44.7266 20.8582 41.9059 23.6917 38.4406 23.6917C34.9753 23.6917 32.1546 20.8582 32.1546 17.3772ZM35.2976 17.3772C35.2976 19.1223 36.7034 20.5344 38.4406 20.5344C40.1778 20.5344 41.5836 19.1223 41.5836 17.3772C41.5836 15.6321 40.1778 14.2199 38.4406 14.2199C36.7034 14.2199 35.2976 15.6321 35.2976 17.3772ZM22.9221 14.0226C21.9552 13.1716 21.7189 11.741 22.3634 10.6218L24.5703 6.77079C25.2149 5.64847 26.5592 5.13668 27.7839 5.54672L29.7022 6.1942C30.7703 5.3494 31.9335 4.67107 33.1828 4.17467L33.5849 2.186C33.8366 0.921837 34.9508 0 36.2399 0H40.6627C41.9518 0 43.066 0.924994 43.3177 2.186L43.7198 4.17467C44.9598 4.67108 46.1323 5.3494 47.2004 6.1942L49.1187 5.54672C50.3373 5.13665 51.6877 5.64847 52.3323 6.77079L54.5391 10.6218C55.1837 11.7441 54.9474 13.1716 53.9805 14.0226L52.4643 15.3638C52.5594 16.0359 52.6055 16.7142 52.6055 17.3772C52.6055 18.0401 52.5594 18.7184 52.4643 19.3905L53.9805 20.7317C54.9474 21.5827 55.1837 23.0133 54.5391 24.1326L52.3323 27.9835C51.6877 29.1059 50.3434 29.6177 49.1187 29.2076L47.2004 28.5601C46.1384 29.3957 44.9691 30.0771 43.7198 30.5797L43.3177 32.5683C43.0599 33.817 41.9427 34.742 40.6536 34.742H36.2307C34.9416 34.742 33.8274 33.817 33.5757 32.556L33.1736 30.5673C31.9244 30.0709 30.755 29.3926 29.693 28.5478L27.7747 29.1953C26.5561 29.6054 25.2057 29.0935 24.5611 27.9712L22.3543 24.1203C21.7189 22.9979 21.9522 21.5704 22.9129 20.7194L24.4291 19.3782C24.334 18.7153 24.2879 18.037 24.2879 17.3649C24.2879 16.6927 24.334 16.0144 24.4291 15.3515L22.9221 14.0226ZM26.6912 21.6074L25.2609 22.8716L27.1087 26.0997L28.9165 25.483C29.8036 25.184 30.7704 25.3659 31.5101 25.964C32.4125 26.6978 33.4131 27.2837 34.4874 27.6937C35.3836 28.0329 36.019 28.7914 36.2093 29.7071L36.5838 31.5848H40.2915L40.6691 29.7071C40.8502 28.7821 41.4947 28.0329 42.3818 27.6937C43.4591 27.2837 44.4627 26.6979 45.3682 25.964C46.1079 25.3628 47.0748 25.184 47.9618 25.483L49.7697 26.0904L51.6174 22.8623L50.1871 21.5982C49.4873 20.9815 49.1589 20.0504 49.3062 19.1131C49.3922 18.5365 49.4413 17.9537 49.4413 17.3772C49.4413 16.8007 49.3953 16.2179 49.3062 15.6414C49.1558 14.701 49.4873 13.7698 50.1871 13.1563L51.6174 11.8921L49.7697 8.66402L47.9618 9.28067C47.0809 9.57974 46.1141 9.39783 45.3774 8.79967C44.4658 8.05661 43.4591 7.47387 42.391 7.06998C41.5039 6.73082 40.8594 5.97236 40.6783 5.0566L40.2946 3.16967H36.5868L36.2093 5.04736C36.0221 5.97236 35.3836 6.72157 34.4966 7.06074C33.4284 7.47081 32.4217 8.05662 31.5101 8.7966C30.7704 9.39783 29.8036 9.57666 28.9257 9.27759L27.1179 8.66094L25.2701 11.8891L26.7004 13.1532C27.4063 13.776 27.7378 14.7072 27.5813 15.6568C27.4954 16.2242 27.4463 16.8007 27.4463 17.3773C27.4463 17.9539 27.4923 18.5366 27.5813 19.0978C27.7286 20.0443 27.4002 20.9846 26.6912 21.6074Z"></path></mask><path d="M65.963 12.9807L60.3615 38.3192C59.7967 40.8598 57.596 42.6358 55.0116 42.6358H21.9395C19.395 42.6358 17.2005 40.8999 16.605 38.4117L8.45598 4.26764C8.29944 3.62016 7.73162 3.17003 7.0656 3.17003H1.5715C0.705915 3.17003 0 2.46088 0 1.5914C0 0.721928 0.705947 0.0127786 1.5715 0.0127786H7.06254C9.18343 0.0127786 11.0158 1.45572 11.51 3.53382L13.3117 11.0631H15.715C16.5806 11.0631 17.2865 11.7723 17.2865 12.6418C17.2865 13.5112 16.5806 14.2204 15.715 14.2204H14.0637L19.6652 37.678C19.9169 38.7355 20.853 39.4785 21.9426 39.4785H55.0053C56.1134 39.4785 57.0495 38.72 57.292 37.6409L62.4761 14.2205H61.2883C60.4227 14.2205 59.7168 13.5113 59.7168 12.6418C59.7168 11.7724 60.4228 11.0632 61.2883 11.0632H64.4313C64.9101 11.0632 65.3583 11.2852 65.656 11.6552C65.9568 12.0252 66.0643 12.5151 65.963 12.9807ZM33.0016 52.8962C33.0016 56.8119 29.8279 60 25.9299 60C22.0319 60 18.8582 56.8119 18.8582 52.8962C18.8582 48.9805 22.0319 45.7924 25.9299 45.7924C29.8279 45.7924 33.0016 48.9805 33.0016 52.8962ZM29.8587 52.8962C29.8587 50.7164 28.0999 48.9496 25.9299 48.9496C23.7599 48.9496 22.0012 50.7164 22.0012 52.8962C22.0012 55.076 23.7599 56.8428 25.9299 56.8428C28.0999 56.8428 29.8587 55.076 29.8587 52.8962ZM58.1456 52.8962C58.1456 56.8119 54.9719 60 51.0738 60C47.1758 60 44.0021 56.8119 44.0021 52.8962C44.0021 48.9805 47.1758 45.7924 51.0738 45.7924C54.9719 45.7924 58.1456 48.9805 58.1456 52.8962ZM55.0026 52.8962C55.0026 50.7164 53.2438 48.9496 51.0738 48.9496C48.9038 48.9496 47.1451 50.7164 47.1451 52.8962C47.1451 55.076 48.9038 56.8428 51.0738 56.8428C53.2438 56.8428 55.0026 55.076 55.0026 52.8962ZM32.1546 17.3772C32.1546 13.8961 34.9753 11.0627 38.4406 11.0627C41.9059 11.0627 44.7266 13.8961 44.7266 17.3772C44.7266 20.8582 41.9059 23.6917 38.4406 23.6917C34.9753 23.6917 32.1546 20.8582 32.1546 17.3772ZM35.2976 17.3772C35.2976 19.1223 36.7034 20.5344 38.4406 20.5344C40.1778 20.5344 41.5836 19.1223 41.5836 17.3772C41.5836 15.6321 40.1778 14.2199 38.4406 14.2199C36.7034 14.2199 35.2976 15.6321 35.2976 17.3772ZM22.9221 14.0226C21.9552 13.1716 21.7189 11.741 22.3634 10.6218L24.5703 6.77079C25.2149 5.64847 26.5592 5.13668 27.7839 5.54672L29.7022 6.1942C30.7703 5.3494 31.9335 4.67107 33.1828 4.17467L33.5849 2.186C33.8366 0.921837 34.9508 0 36.2399 0H40.6627C41.9518 0 43.066 0.924994 43.3177 2.186L43.7198 4.17467C44.9598 4.67108 46.1323 5.3494 47.2004 6.1942L49.1187 5.54672C50.3373 5.13665 51.6877 5.64847 52.3323 6.77079L54.5391 10.6218C55.1837 11.7441 54.9474 13.1716 53.9805 14.0226L52.4643 15.3638C52.5594 16.0359 52.6055 16.7142 52.6055 17.3772C52.6055 18.0401 52.5594 18.7184 52.4643 19.3905L53.9805 20.7317C54.9474 21.5827 55.1837 23.0133 54.5391 24.1326L52.3323 27.9835C51.6877 29.1059 50.3434 29.6177 49.1187 29.2076L47.2004 28.5601C46.1384 29.3957 44.9691 30.0771 43.7198 30.5797L43.3177 32.5683C43.0599 33.817 41.9427 34.742 40.6536 34.742H36.2307C34.9416 34.742 33.8274 33.817 33.5757 32.556L33.1736 30.5673C31.9244 30.0709 30.755 29.3926 29.693 28.5478L27.7747 29.1953C26.5561 29.6054 25.2057 29.0935 24.5611 27.9712L22.3543 24.1203C21.7189 22.9979 21.9522 21.5704 22.9129 20.7194L24.4291 19.3782C24.334 18.7153 24.2879 18.037 24.2879 17.3649C24.2879 16.6927 24.334 16.0144 24.4291 15.3515L22.9221 14.0226ZM26.6912 21.6074L25.2609 22.8716L27.1087 26.0997L28.9165 25.483C29.8036 25.184 30.7704 25.3659 31.5101 25.964C32.4125 26.6978 33.4131 27.2837 34.4874 27.6937C35.3836 28.0329 36.019 28.7914 36.2093 29.7071L36.5838 31.5848H40.2915L40.6691 29.7071C40.8502 28.7821 41.4947 28.0329 42.3818 27.6937C43.4591 27.2837 44.4627 26.6979 45.3682 25.964C46.1079 25.3628 47.0748 25.184 47.9618 25.483L49.7697 26.0904L51.6174 22.8623L50.1871 21.5982C49.4873 20.9815 49.1589 20.0504 49.3062 19.1131C49.3922 18.5365 49.4413 17.9537 49.4413 17.3772C49.4413 16.8007 49.3953 16.2179 49.3062 15.6414C49.1558 14.701 49.4873 13.7698 50.1871 13.1563L51.6174 11.8921L49.7697 8.66402L47.9618 9.28067C47.0809 9.57974 46.1141 9.39783 45.3774 8.79967C44.4658 8.05661 43.4591 7.47387 42.391 7.06998C41.5039 6.73082 40.8594 5.97236 40.6783 5.0566L40.2946 3.16967H36.5868L36.2093 5.04736C36.0221 5.97236 35.3836 6.72157 34.4966 7.06074C33.4284 7.47081 32.4217 8.05662 31.5101 8.7966C30.7704 9.39783 29.8036 9.57666 28.9257 9.27759L27.1179 8.66094L25.2701 11.8891L26.7004 13.1532C27.4063 13.776 27.7378 14.7072 27.5813 15.6568C27.4954 16.2242 27.4463 16.8007 27.4463 17.3773C27.4463 17.9539 27.4923 18.5366 27.5813 19.0978C27.7286 20.0443 27.4002 20.9846 26.6912 21.6074Z" fill="#0CB4C4" stroke="white" stroke-width="0.6" mask="url(#path-1-inside-1_1520_114)"></path></svg>