<svg xmlns="http://www.w3.org/2000/svg" xmlns:xlink="http://www.w3.org/1999/xlink" version="1.1" id="Layer_1" x="0px" y="0px" width="48.75px" height="60px" viewBox="0 0 48.75 60" enable-background="new 0 0 48.75 60" xml:space="preserve"><g><path fill="#0CB4C4" d="M15.938,19.688h11.25c0.518,0,0.938-0.419,0.938-0.938V15c0-0.518-0.42-0.938-0.938-0.938h-11.25 C15.419,14.063,15,14.482,15,15v3.75C15,19.269,15.419,19.688,15.938,19.688 M16.875,15.938h9.375v1.875h-9.375V15.938z"></path><path fill="#0CB4C4" d="M15.938,27.188h11.25c0.518,0,0.938-0.418,0.938-0.937v-0.938h3.75c0.519,0,0.938-0.418,0.938-0.937v-7.5 c0-0.518-0.419-0.937-0.938-0.937H30c-0.52,0-0.938,0.419-0.938,0.937c0,0.519,0.419,0.938,0.938,0.938h0.938v5.625h-2.813V22.5 c0-0.518-0.42-0.938-0.938-0.938h-11.25C15.419,21.563,15,21.982,15,22.5v3.75C15,26.77,15.419,27.188,15.938,27.188 M16.875,23.438h9.375v1.875h-9.375V23.438z"></path><path fill="#0CB4C4" d="M31.875,30.938H30c-0.52,0-0.938,0.42-0.938,0.938s0.419,0.937,0.938,0.937h0.938v5.626h-2.813V37.5 c0-0.518-0.42-0.938-0.938-0.938h-11.25c-0.519,0-0.938,0.42-0.938,0.938v3.75c0,0.519,0.419,0.938,0.938,0.938h11.25 c0.518,0,0.938-0.42,0.938-0.938v-0.938h3.75c0.519,0,0.938-0.419,0.938-0.938v-7.499C32.813,31.357,32.394,30.938,31.875,30.938 M26.25,40.313h-9.375v-1.874h9.375V40.313z"></path><path fill="#0CB4C4" d="M11.25,32.813H15v0.938c0,0.52,0.419,0.938,0.938,0.938h11.25c0.518,0,0.938-0.418,0.938-0.938V30 c0-0.518-0.42-0.938-0.938-0.938h-11.25C15.419,29.063,15,29.482,15,30v0.938h-2.812v-5.625h0.937c0.518,0,0.938-0.418,0.938-0.937 c0-0.518-0.42-0.938-0.938-0.938H11.25c-0.519,0-0.938,0.42-0.938,0.938v7.5C10.313,32.395,10.731,32.813,11.25,32.813 M16.875,30.938h9.375v1.875h-9.375V30.938z"></path><path fill="#0CB4C4" d="M11.25,47.813H15v0.938c0,0.518,0.419,0.937,0.938,0.937h11.25c0.518,0,0.938-0.419,0.938-0.937v-3.75 c0-0.519-0.42-0.938-0.938-0.938h-11.25c-0.519,0-0.938,0.42-0.938,0.938v0.937h-2.812v-5.625h0.937 c0.518,0,0.938-0.419,0.938-0.938s-0.42-0.937-0.938-0.937H11.25c-0.519,0-0.938,0.418-0.938,0.937v7.5 C10.313,47.393,10.731,47.813,11.25,47.813 M16.875,45.938h9.375v1.875h-9.375V45.938z"></path><path fill="#0CB4C4" d="M47.926,31.763c-1.063-1.063-2.914-1.063-3.977,0l-0.824,0.823V7.5c0-2.068-1.682-3.75-3.75-3.75H33.75 C33.75,1.682,32.069,0,30,0H13.125c-2.068,0-3.75,1.682-3.75,3.75H3.75C1.682,3.75,0,5.433,0,7.5v48.75C0,58.318,1.682,60,3.75,60 h35.625c2.068,0,3.75-1.682,3.75-3.75V40.539l4.801-4.8C49.024,34.643,49.024,32.858,47.926,31.763 M41.25,7.5V34.46l-2.813,2.813 V5.625h0.938C40.408,5.625,41.25,6.467,41.25,7.5 M11.25,3.75c0-1.033,0.841-1.875,1.875-1.875H30c1.033,0,1.874,0.842,1.874,1.875 V7.5c0,1.034-0.841,1.875-1.874,1.875H13.125c-1.034,0-1.875-0.841-1.875-1.875V3.75z M13.125,11.25H30 c2.068,0,3.75-1.681,3.75-3.75V5.625h2.813v33.523l-4.801,4.801c-0.138,0.137-0.229,0.313-0.261,0.505l-0.55,3.2 c-0.051,0.299,0.046,0.605,0.261,0.821c0.177,0.177,0.417,0.275,0.662,0.275c0.054,0,0.106-0.006,0.159-0.015l3.201-0.55 c0.189-0.032,0.368-0.123,0.504-0.261l0.824-0.824v6.336h-30V5.625h2.813V7.5C9.375,9.569,11.057,11.25,13.125,11.25 M41.25,56.25 c0,1.034-0.842,1.875-1.874,1.875H3.75c-1.034,0-1.875-0.841-1.875-1.875V7.5c0-1.033,0.841-1.875,1.875-1.875h0.938v48.75 c0,0.52,0.419,0.938,0.938,0.938H37.5c0.519,0,0.937-0.419,0.937-0.938v-9.147l2.813-2.813V56.25z M46.6,34.413L34.625,46.39 l-1.601,0.275l0.274-1.601l11.977-11.977c0.355-0.354,0.97-0.354,1.325,0C46.966,33.453,46.966,34.048,46.6,34.413"></path></g></svg>