<svg version="1.1" xmlns="http://www.w3.org/2000/svg" xmlns:xlink="http://www.w3.org/1999/xlink" xmlns:a="http://ns.adobe.com/AdobeSVGViewerExtensions/3.0/" x="0px" y="0px" width="64px" height="60px" viewBox="0 0 64 60" enable-background="new 0 0 64 60" xml:space="preserve"><path fill="#0097A4" d="M43.14,31.944c0.011-0.761-0.528-1.409-1.285-1.536l-0.959-0.165c-0.089-0.255-0.192-0.501-0.307-0.743 l0.566-0.789c0.44-0.621,0.37-1.462-0.166-1.998l-1.096-1.093c-0.52-0.526-1.395-0.597-1.993-0.168l-0.796,0.568 c-0.259-0.125-0.522-0.233-0.787-0.327l-0.159-0.939c-0.129-0.75-0.77-1.295-1.53-1.295h-1.545c-0.762,0-1.404,0.544-1.531,1.292 l-0.166,0.974c-0.254,0.091-0.497,0.194-0.738,0.313l-0.778-0.56c-0.595-0.43-1.488-0.358-1.998,0.165l-1.099,1.093 c-0.537,0.536-0.607,1.377-0.167,1.998l0.572,0.804c-0.113,0.242-0.215,0.491-0.302,0.748l-0.941,0.16 c-0.749,0.125-1.293,0.77-1.293,1.531v1.547c0,0.762,0.544,1.403,1.293,1.528l0.974,0.167c0.091,0.252,0.196,0.499,0.313,0.74 l-0.561,0.777c-0.443,0.623-0.374,1.463,0.165,1.996l1.096,1.096c0.528,0.525,1.399,0.594,1.992,0.167l0.804-0.574 c0.228,0.108,0.465,0.205,0.71,0.29l0.158,0.957c0.127,0.751,0.77,1.295,1.531,1.295h1.55c0.756,0,1.401-0.544,1.531-1.295 l0.16-0.957c0.26-0.09,0.506-0.191,0.744-0.309l0.785,0.563c0.592,0.431,1.476,0.359,2-0.163l1.097-1.096 c0.536-0.539,0.608-1.378,0.165-1.996l-0.565-0.793c0.119-0.25,0.223-0.499,0.307-0.743l0.959-0.162 c0.749-0.124,1.293-0.769,1.293-1.53v-1.54H43.14z M28.405,37.606l0.722-1.016c0.215-0.308,0.233-0.719,0.041-1.051 c-0.27-0.445-0.469-0.921-0.599-1.419c-0.101-0.361-0.401-0.635-0.767-0.695l-1.246-0.215v-0.924l1.228-0.207 c0.379-0.063,0.679-0.345,0.77-0.711c0.13-0.515,0.327-0.992,0.581-1.422c0.188-0.327,0.169-0.735-0.051-1.041l-0.734-1.032 l0.655-0.656l1.016,0.725c0.309,0.214,0.719,0.236,1.051,0.04c0.445-0.269,0.924-0.467,1.419-0.598 c0.364-0.1,0.638-0.403,0.699-0.764l0.211-1.25h0.927l0.205,1.226c0.065,0.376,0.347,0.679,0.715,0.772 c0.511,0.127,0.998,0.329,1.452,0.596c0.332,0.191,0.729,0.178,1.046-0.047l1.013-0.728l0.656,0.653l-0.725,1.019 c-0.223,0.308-0.242,0.719-0.045,1.051c0.259,0.438,0.456,0.915,0.588,1.417c0.093,0.368,0.399,0.647,0.767,0.706l1.24,0.209 l-0.005,0.924l-1.235,0.207c-0.378,0.063-0.679,0.339-0.77,0.706c-0.132,0.504-0.329,0.981-0.593,1.422 c-0.189,0.326-0.17,0.732,0.046,1.043l0.726,1.024l-0.66,0.654l-1.019-0.725c-0.306-0.223-0.721-0.238-1.052-0.045 c-0.433,0.26-0.91,0.457-1.411,0.587c-0.372,0.09-0.647,0.396-0.711,0.772l-0.208,1.234h-0.925l-0.205-1.236 c-0.064-0.375-0.344-0.678-0.706-0.768c-0.478-0.122-0.944-0.316-1.393-0.574c-0.323-0.185-0.749-0.156-1.035,0.054l-1.03,0.735 L28.405,37.606z"></path><path fill="#0097A4" d="M33.89,36.967c2.348,0,4.256-1.908,4.256-4.256c0-2.349-1.911-4.256-4.256-4.256 c-2.346,0-4.257,1.91-4.257,4.256C29.633,35.057,31.542,36.967,33.89,36.967z M31.552,32.711c0-1.29,1.05-2.338,2.338-2.338 c1.286,0,2.337,1.051,2.337,2.338s-1.051,2.338-2.337,2.338C32.602,35.049,31.552,34.001,31.552,32.711z"></path><path fill="#0097A4" d="M12.724,24.865c1.868,0,3.385-1.518,3.385-3.385c0-1.868-1.517-3.386-3.385-3.386 c-1.867,0-3.386,1.521-3.386,3.386C9.338,23.344,10.858,24.865,12.724,24.865z M12.724,20.352c0.623,0,1.128,0.507,1.128,1.128 c0,0.623-0.508,1.127-1.128,1.127c-0.624,0-1.129-0.506-1.129-1.127C11.595,20.858,12.103,20.352,12.724,20.352z"></path><path fill="#0097A4" d="M60.086,32.055c1.801-1.682,2.646-4.112,2.27-6.566c-0.385-2.481-1.949-4.564-4.213-5.617 c0.936-3.46-0.053-7.154-2.609-9.683c-2.51-2.489-6.125-3.452-9.515-2.568c0.345-2.337-0.599-4.736-2.472-6.206 c-1.987-1.563-4.741-1.858-7.01-0.748c-2.269,1.104-3.736,3.449-3.736,5.975v6.938h-0.957V9.754c0-0.586-0.479-1.062-1.062-1.062 c-0.584,0-1.063,0.475-1.063,1.062v3.826h-4.646V9.754c0-0.586-0.477-1.062-1.06-1.062c-0.585,0-1.063,0.475-1.063,1.062v3.826 h-4.651V9.754c0-0.586-0.477-1.062-1.062-1.062c-0.584,0-1.061,0.475-1.061,1.062v3.826H11.53V9.754 c0-0.586-0.479-1.062-1.063-1.062c-0.583,0-1.062,0.475-1.062,1.062v3.895c-0.436,0.077-0.849,0.244-1.165,0.561l-2.785,2.785 c-0.318,0.319-0.485,0.733-0.56,1.168H1.062C0.476,18.163,0,18.638,0,19.224c0,0.586,0.479,1.062,1.062,1.062h3.763v4.649H1.062 C0.476,24.934,0,25.409,0,25.995c0,0.586,0.479,1.061,1.062,1.061h3.763v4.649H1.062C0.476,31.706,0,32.181,0,32.767 s0.479,1.061,1.062,1.061h3.763v4.649H1.062C0.476,38.477,0,38.952,0,39.538C0,40.125,0.479,40.6,1.062,40.6h3.763v4.648H1.062 C0.476,45.249,0,45.723,0,46.309c0,0.588,0.479,1.062,1.062,1.062h3.763v2.431c0,1.189,0.964,2.152,2.151,2.152h2.431v3.717 c0,0.587,0.479,1.063,1.062,1.063c0.584,0,1.063-0.476,1.063-1.063v-3.717h4.646v3.717c0,0.587,0.477,1.063,1.06,1.063 c0.586,0,1.063-0.476,1.063-1.063v-3.717h4.648v3.717c0,0.587,0.478,1.063,1.062,1.063s1.062-0.476,1.062-1.063v-3.717h4.646v3.717 c0,0.587,0.479,1.063,1.063,1.063c0.583,0,1.061-0.476,1.061-1.063v-3.717h0.958v0.297c0,3.064,1.81,5.848,4.609,7.086 C38.411,59.784,39.479,60,40.541,60c1.829,0,3.636-0.646,5.068-1.881c2.357,1.326,5.256,1.328,7.627-0.016 c2.42-1.374,3.922-3.959,3.918-6.74v-2.42c3.305-1.254,5.705-4.179,6.285-7.673C64.021,37.819,62.738,34.317,60.086,32.055z M52.51,48.485c0,0.611,0.498,1.109,1.107,1.109c0.443,0,0.887-0.029,1.328-0.09v1.857c0,3.049-2.484,5.529-5.533,5.529 s-5.534-2.48-5.534-5.529c0-0.609-0.497-1.109-1.108-1.109s-1.112,0.5-1.112,1.109c0,1.989,0.78,3.925,2.156,5.354 c-1.625,1.181-3.807,1.396-5.633,0.526c-1.919-0.913-3.156-2.874-3.156-4.995v-6.904h8.104c1.871,0,3.394-1.527,3.396-3.397V23.477 c-0.003-1.873-1.525-3.396-3.396-3.396h-8.104V6.642c0.002-1.847,1.169-3.516,2.903-4.15c1.74-0.639,3.704-0.117,4.898,1.289 c1.178,1.391,1.381,3.384,0.512,4.981c-0.268,0.165-0.504,0.323-0.722,0.485c-0.321,0.234-0.496,0.624-0.45,1.021 c0.044,0.393,0.296,0.738,0.663,0.894c0.365,0.159,0.787,0.109,1.104-0.127c2.928-2.162,7.036-1.972,9.759,0.461 c2.719,2.43,3.371,6.487,1.551,9.642c-0.205,0.346-0.211,0.775-0.012,1.118c0.197,0.345,0.564,0.56,0.965,0.56h0.002 c0.396-0.002,0.77-0.22,0.965-0.565c0.057-0.101,0.115-0.205,0.168-0.305c1.303,0.645,2.275,1.799,2.689,3.205 c0.436,1.483,0.191,3.073-0.666,4.359c-0.32,0.483-0.719,0.905-1.176,1.258c-1.402-0.722-2.967-1.104-4.541-1.104 c-0.006,0-0.012,0-0.016,0c-0.611,0-1.109,0.499-1.109,1.109c0,0.613,0.498,1.112,1.109,1.112c4.268,0,7.746,3.476,7.746,7.745 s-3.479,7.742-7.746,7.742C53.006,47.374,52.51,47.874,52.51,48.485z M24.653,43.168c-0.673,0-1.221-0.55-1.224-1.221V23.48 c0.003-0.671,0.551-1.221,1.224-1.221h18.47c0.671,0,1.218,0.549,1.221,1.221v18.468c-0.003,0.671-0.55,1.221-1.221,1.221H24.653z M7.082,49.695V18.561l2.725-2.725h22.997v4.243h-8.15c-1.871,0-3.396,1.526-3.398,3.396v18.47c0.002,1.874,1.527,3.397,3.398,3.397 h8.147v4.35H7.082V49.695z"></path><path fill="#0097A4" d="M15.73,45.358h-4.2v-4.201c0-0.586-0.479-1.063-1.063-1.063c-0.583,0-1.062,0.477-1.062,1.063v5.262 c0,0.587,0.479,1.061,1.062,1.061h5.263c0.585,0,1.06-0.474,1.06-1.061S16.315,45.358,15.73,45.358z"></path></svg>