<svg version="1.1" xmlns="http://www.w3.org/2000/svg" xmlns:xlink="http://www.w3.org/1999/xlink" xmlns:a="http://ns.adobe.com/AdobeSVGViewerExtensions/3.0/" x="0px" y="0px" width="60px" height="60px" viewBox="0 -0.5 60 60" enable-background="new 0 -0.5 60 60" xml:space="preserve"><path fill="#0097A4" d="M30.133,0c-0.665,0-1.197,0.532-1.197,1.198v6.585c-5.256,0.133-10.11,0.865-14.302,2.128l-1.065-2.062 h2.596c0.666,0,1.198-0.532,1.198-1.197V1.729c0-0.666-0.532-1.197-1.198-1.197H1.33C0.665,0.465,0.133,1.064,0.133,1.729v4.856 c0,0.665,0.532,1.197,1.197,1.197h9.445l1.463,2.86C4.789,13.503,0,18.026,0,23.215v21.286C0,53.214,13.236,60,30.133,60 s30.133-6.786,30.133-15.499V15.432C60.266,6.785,47.029,0,30.133,0z M2.594,2.927h12.373v2.461H2.594V2.927z M11.108,34.19 l17.827-8.914v7.25L11.108,41.44V34.19z M30.398,34.457h27.273c-1.331,6.519-13.37,11.84-27.539,11.84 c-6.387,0-12.438-1.064-17.362-2.928L30.398,34.457z M31.33,31.995v-8.78V16.63h26.476v15.299L31.33,31.995L31.33,31.995z M31.33,2.461c13.637,0.266,25.077,5.454,26.342,11.774H31.33V8.98V2.461z M13.436,12.905l2.263,4.457 c0.199,0.399,0.666,0.665,1.065,0.665c0.199,0,0.398-0.066,0.531-0.133c0.599-0.333,0.865-1.064,0.532-1.663l-2.129-4.125 c3.858-1.131,8.382-1.863,13.171-1.929v5.255v7.051L9.845,32.062c-4.723-2.46-7.385-5.653-7.385-8.847 C2.46,19.091,6.785,15.366,13.436,12.905z M2.46,44.567v-15.1c1.465,1.729,3.526,3.325,6.188,4.723v18.492 C4.789,50.421,2.46,47.562,2.46,44.567z M57.806,44.567c0,7.051-12.64,13.038-27.673,13.038c-7.317,0-14.036-1.397-19.024-3.658 v-8.648c5.322,2.196,12.039,3.46,19.024,3.46c12.571,0,23.147-3.792,27.673-9.246V44.567z"></path><path fill="#0097A4" d="M49.822,19.291c-0.465-0.465-1.264-0.465-1.729,0l-8.781,8.847c-0.466,0.466-0.466,1.264,0,1.73 c0.267,0.266,0.532,0.333,0.864,0.333c0.333,0,0.599-0.133,0.865-0.333l8.78-8.848C50.354,20.554,50.354,19.756,49.822,19.291z"></path><path fill="#0097A4" d="M41.507,22.816c0.932,0,1.729-0.798,1.729-1.729c0-0.931-0.798-1.729-1.729-1.729 c-0.931,0-1.729,0.798-1.729,1.729C39.778,22.018,40.51,22.816,41.507,22.816z"></path><path fill="#0097A4" d="M47.429,26.274c-0.933,0-1.73,0.799-1.73,1.73c0,0.932,0.798,1.729,1.73,1.729 c0.931,0,1.729-0.798,1.729-1.729C49.157,27.007,48.359,26.274,47.429,26.274z"></path></svg>