<svg xmlns="http://www.w3.org/2000/svg" width="72" height="60" viewBox="0 0 72 60" fill="none"><mask id="path-1-inside-1_1405_285" fill="white"><path d="M71.9946 31.2193L70.7758 19.4299C70.7664 19.3329 70.7383 19.2391 70.7008 19.1547L66.5632 9.98935C66.4632 9.76733 66.2757 9.59533 66.0444 9.5109L41.3749 0.789077C41.2937 0.760932 41.2062 0.74217 41.1218 0.739043L26.4966 0.00104681C26.3684 -0.00520777 26.2403 0.016682 26.1184 0.0635886L7.5051 7.45292C7.32697 7.52485 7.17384 7.64993 7.07384 7.81566L0.133005 19.048L0.136129 19.0511C-0.0107469 19.2888 -0.0451236 19.5858 0.0642522 19.8547L6.19571 35.1898C6.33321 35.5338 6.66447 35.7527 7.02701 35.7527C7.05201 35.7527 7.07701 35.7495 7.10201 35.7495L16.1647 34.999C16.6647 36.4751 18.0585 37.5414 19.6992 37.5414C20.3586 37.5414 20.9774 37.3694 21.5117 37.0692L24.0899 44.7525C24.2087 45.109 24.5399 45.3529 24.9149 45.3654L36.2624 45.6718L52.1909 59.7748C52.3596 59.9218 52.569 60 52.7847 60C52.9097 60 53.0315 59.975 53.1503 59.9218C53.4722 59.778 53.6784 59.459 53.6816 59.1057L53.7534 45.5838L62.7665 44.3924C63.1602 44.3393 63.4728 44.0359 63.5353 43.6419L64.5478 37.1751L71.6324 32.0373C71.8886 31.8497 72.0292 31.5369 71.9949 31.218L71.9946 31.2193ZM68.8038 19.305L60.366 27.154C59.7785 26.7693 59.0784 26.5442 58.3253 26.5442C58.2097 26.5442 58.0972 26.5504 57.9815 26.5598L54.2627 15.8495C55.2127 15.2272 55.8659 14.1796 55.9503 12.982L65.213 11.359L68.8038 19.305ZM16.7528 31.5227L2.62757 19.7965L12.9375 15.675C13.5375 16.5069 14.4688 17.0853 15.5375 17.2073L18.0626 30.4602C17.5501 30.7103 17.1028 31.0756 16.7528 31.5227ZM55.6443 11.2156C55.0661 9.90533 53.7536 8.98912 52.2317 8.98912C51.5223 8.98912 50.8598 9.18613 50.2941 9.53324L44.5346 3.81069L62.2255 10.0649L55.6443 11.2156ZM60.2662 30.2755C60.2662 31.3449 59.3975 32.2143 58.3255 32.2143C57.2568 32.2143 56.388 31.345 56.388 30.2755C56.388 29.206 57.2567 28.3336 58.3255 28.3336C59.3943 28.3367 60.2662 29.206 60.2662 30.2755ZM54.763 29.1748L47.8097 28.7745C47.6472 27.9021 47.1815 27.1359 46.5252 26.5918L51.4629 16.3721C51.7098 16.4253 51.9691 16.4534 52.2316 16.4534C52.3473 16.4534 52.4598 16.4472 52.5754 16.4378L56.2942 27.1481C55.5723 27.6203 55.0224 28.3336 54.763 29.1748ZM30.4591 16.0132C30.4591 14.9437 31.3278 14.0712 32.3998 14.0712C33.4685 14.0712 34.3373 14.9405 34.3373 16.0132C34.3373 17.0826 33.4686 17.9551 32.3998 17.9551C31.331 17.952 30.4591 17.0795 30.4591 16.0132ZM36.1186 16.304L48.8062 14.1995C49.0405 14.7436 49.3999 15.2189 49.8499 15.591L44.9123 25.8107C44.6654 25.7575 44.406 25.7294 44.1435 25.7294C43.5279 25.7294 42.9497 25.8795 42.4372 26.1453L35.4557 18.1493C35.8276 17.6177 36.0623 16.9857 36.1186 16.304ZM44.1436 31.4045C43.0749 31.4045 42.2029 30.5352 42.2029 29.4625C42.2029 28.3931 43.0717 27.5237 44.1436 27.5237C45.2124 27.5237 46.0812 28.393 46.0812 29.4625C46.0812 30.5321 45.2125 31.4045 44.1436 31.4045ZM42.7436 32.9211C43.0311 33.0399 43.3405 33.1212 43.6592 33.1619L44.6936 42.396L38.2466 39.1188L42.7436 32.9211ZM52.2311 14.6617C51.1623 14.6617 50.2904 13.7924 50.2904 12.7229C50.2904 11.6534 51.1591 10.7809 52.2311 10.7809C53.2998 10.7809 54.1686 11.6502 54.1686 12.7229C54.1718 13.7923 53.2999 14.6617 52.2311 14.6617ZM49.031 10.806C48.7403 11.2876 48.5591 11.8411 48.5122 12.432L35.8246 14.5366C35.2496 13.2107 33.9308 12.2819 32.3996 12.2819C32.2308 12.2819 32.0683 12.2945 31.9058 12.3132L27.7932 1.86224L40.6872 2.51267L49.031 10.806ZM30.24 12.9699C29.6744 13.3733 29.2244 13.9268 28.9556 14.5772L19.6801 13.1576C19.6176 12.4634 19.3645 11.8223 18.9707 11.2876L26.1741 2.63222L30.24 12.9699ZM17.9021 13.4984C17.9021 14.5678 17.0333 15.4403 15.9614 15.4403C14.8926 15.4403 14.0238 14.571 14.0238 13.4984C14.0238 12.429 14.8926 11.5596 15.9614 11.5596C17.0302 11.5596 17.9021 12.4289 17.9021 13.4984ZM19.8115 30.0815L17.3145 16.9759C18.2583 16.6069 19.0177 15.8658 19.4052 14.9339L28.6807 16.3536C28.7588 17.2229 29.137 18.0109 29.712 18.6051L22.0056 30.8885C21.4024 30.4038 20.6428 30.1065 19.8115 30.0815ZM23.1616 32.4237L31.2338 19.5559C31.6026 19.6778 31.9932 19.7435 32.3995 19.7435C33.0151 19.7435 33.5932 19.5934 34.1057 19.3276L41.0872 27.3236C40.7028 27.8708 40.4622 28.5275 40.4184 29.2374L23.1616 32.4237ZM40.7461 31.004C40.8867 31.3167 41.0742 31.6075 41.293 31.8671L36.5804 38.3652L24.6896 33.9685L40.7461 31.004ZM37.7616 40.8858L45.0868 44.6101L50.1713 55.5927L37.6614 44.5165L37.7616 40.8858ZM46.6435 43.7064L45.5216 33.7029L51.9624 45.0353L51.9124 55.0796L46.6435 43.7064ZM46.7122 32.1675C47.1685 31.7328 47.5185 31.1825 47.7091 30.5664L54.6624 30.9667C54.9874 32.696 56.5062 34.0125 58.3281 34.0125C58.9188 34.0125 59.4813 33.8718 59.9782 33.6279L62.422 36.5267L53.1378 43.4782L46.7122 32.1675ZM8.44552 9.01125L23.5116 3.02909L17.5927 10.1401C17.0989 9.8993 16.5489 9.76483 15.9645 9.76483C13.9082 9.76483 12.2362 11.4378 12.2362 13.4955C12.2362 13.6706 12.2487 13.8395 12.2737 14.0083L3.08623 17.6795L8.44552 9.01125ZM3.03601 22.4674L15.9868 33.2186L7.61134 33.9128L3.03601 22.4674ZM19.6989 35.7515C18.6301 35.7515 17.7613 34.8822 17.7613 33.8127C17.7613 32.7433 18.6301 31.8708 19.6989 31.8708C20.7677 31.8708 21.6396 32.7401 21.6396 33.8127C21.6396 34.8821 20.7677 35.7515 19.6989 35.7515ZM22.9334 35.6671C23.0021 35.5482 23.0646 35.4263 23.1209 35.2981L35.9932 40.0606L35.8901 43.8694L25.5898 43.5911L22.9334 35.6671ZM56.1439 43.4629L62.491 38.7097L61.866 42.7062L56.1439 43.4629ZM63.866 35.4544L61.3472 32.4649C61.7941 31.8488 62.0597 31.0921 62.0597 30.2759C62.0597 29.6192 61.8878 29.0032 61.5909 28.4653L69.1818 21.4012L70.1631 30.886L63.866 35.4544Z"></path></mask><path d="M71.9946 31.2193L70.7758 19.4299C70.7664 19.3329 70.7383 19.2391 70.7008 19.1547L66.5632 9.98935C66.4632 9.76733 66.2757 9.59533 66.0444 9.5109L41.3749 0.789077C41.2937 0.760932 41.2062 0.74217 41.1218 0.739043L26.4966 0.00104681C26.3684 -0.00520777 26.2403 0.016682 26.1184 0.0635886L7.5051 7.45292C7.32697 7.52485 7.17384 7.64993 7.07384 7.81566L0.133005 19.048L0.136129 19.0511C-0.0107469 19.2888 -0.0451236 19.5858 0.0642522 19.8547L6.19571 35.1898C6.33321 35.5338 6.66447 35.7527 7.02701 35.7527C7.05201 35.7527 7.07701 35.7495 7.10201 35.7495L16.1647 34.999C16.6647 36.4751 18.0585 37.5414 19.6992 37.5414C20.3586 37.5414 20.9774 37.3694 21.5117 37.0692L24.0899 44.7525C24.2087 45.109 24.5399 45.3529 24.9149 45.3654L36.2624 45.6718L52.1909 59.7748C52.3596 59.9218 52.569 60 52.7847 60C52.9097 60 53.0315 59.975 53.1503 59.9218C53.4722 59.778 53.6784 59.459 53.6816 59.1057L53.7534 45.5838L62.7665 44.3924C63.1602 44.3393 63.4728 44.0359 63.5353 43.6419L64.5478 37.1751L71.6324 32.0373C71.8886 31.8497 72.0292 31.5369 71.9949 31.218L71.9946 31.2193ZM68.8038 19.305L60.366 27.154C59.7785 26.7693 59.0784 26.5442 58.3253 26.5442C58.2097 26.5442 58.0972 26.5504 57.9815 26.5598L54.2627 15.8495C55.2127 15.2272 55.8659 14.1796 55.9503 12.982L65.213 11.359L68.8038 19.305ZM16.7528 31.5227L2.62757 19.7965L12.9375 15.675C13.5375 16.5069 14.4688 17.0853 15.5375 17.2073L18.0626 30.4602C17.5501 30.7103 17.1028 31.0756 16.7528 31.5227ZM55.6443 11.2156C55.0661 9.90533 53.7536 8.98912 52.2317 8.98912C51.5223 8.98912 50.8598 9.18613 50.2941 9.53324L44.5346 3.81069L62.2255 10.0649L55.6443 11.2156ZM60.2662 30.2755C60.2662 31.3449 59.3975 32.2143 58.3255 32.2143C57.2568 32.2143 56.388 31.345 56.388 30.2755C56.388 29.206 57.2567 28.3336 58.3255 28.3336C59.3943 28.3367 60.2662 29.206 60.2662 30.2755ZM54.763 29.1748L47.8097 28.7745C47.6472 27.9021 47.1815 27.1359 46.5252 26.5918L51.4629 16.3721C51.7098 16.4253 51.9691 16.4534 52.2316 16.4534C52.3473 16.4534 52.4598 16.4472 52.5754 16.4378L56.2942 27.1481C55.5723 27.6203 55.0224 28.3336 54.763 29.1748ZM30.4591 16.0132C30.4591 14.9437 31.3278 14.0712 32.3998 14.0712C33.4685 14.0712 34.3373 14.9405 34.3373 16.0132C34.3373 17.0826 33.4686 17.9551 32.3998 17.9551C31.331 17.952 30.4591 17.0795 30.4591 16.0132ZM36.1186 16.304L48.8062 14.1995C49.0405 14.7436 49.3999 15.2189 49.8499 15.591L44.9123 25.8107C44.6654 25.7575 44.406 25.7294 44.1435 25.7294C43.5279 25.7294 42.9497 25.8795 42.4372 26.1453L35.4557 18.1493C35.8276 17.6177 36.0623 16.9857 36.1186 16.304ZM44.1436 31.4045C43.0749 31.4045 42.2029 30.5352 42.2029 29.4625C42.2029 28.3931 43.0717 27.5237 44.1436 27.5237C45.2124 27.5237 46.0812 28.393 46.0812 29.4625C46.0812 30.5321 45.2125 31.4045 44.1436 31.4045ZM42.7436 32.9211C43.0311 33.0399 43.3405 33.1212 43.6592 33.1619L44.6936 42.396L38.2466 39.1188L42.7436 32.9211ZM52.2311 14.6617C51.1623 14.6617 50.2904 13.7924 50.2904 12.7229C50.2904 11.6534 51.1591 10.7809 52.2311 10.7809C53.2998 10.7809 54.1686 11.6502 54.1686 12.7229C54.1718 13.7923 53.2999 14.6617 52.2311 14.6617ZM49.031 10.806C48.7403 11.2876 48.5591 11.8411 48.5122 12.432L35.8246 14.5366C35.2496 13.2107 33.9308 12.2819 32.3996 12.2819C32.2308 12.2819 32.0683 12.2945 31.9058 12.3132L27.7932 1.86224L40.6872 2.51267L49.031 10.806ZM30.24 12.9699C29.6744 13.3733 29.2244 13.9268 28.9556 14.5772L19.6801 13.1576C19.6176 12.4634 19.3645 11.8223 18.9707 11.2876L26.1741 2.63222L30.24 12.9699ZM17.9021 13.4984C17.9021 14.5678 17.0333 15.4403 15.9614 15.4403C14.8926 15.4403 14.0238 14.571 14.0238 13.4984C14.0238 12.429 14.8926 11.5596 15.9614 11.5596C17.0302 11.5596 17.9021 12.4289 17.9021 13.4984ZM19.8115 30.0815L17.3145 16.9759C18.2583 16.6069 19.0177 15.8658 19.4052 14.9339L28.6807 16.3536C28.7588 17.2229 29.137 18.0109 29.712 18.6051L22.0056 30.8885C21.4024 30.4038 20.6428 30.1065 19.8115 30.0815ZM23.1616 32.4237L31.2338 19.5559C31.6026 19.6778 31.9932 19.7435 32.3995 19.7435C33.0151 19.7435 33.5932 19.5934 34.1057 19.3276L41.0872 27.3236C40.7028 27.8708 40.4622 28.5275 40.4184 29.2374L23.1616 32.4237ZM40.7461 31.004C40.8867 31.3167 41.0742 31.6075 41.293 31.8671L36.5804 38.3652L24.6896 33.9685L40.7461 31.004ZM37.7616 40.8858L45.0868 44.6101L50.1713 55.5927L37.6614 44.5165L37.7616 40.8858ZM46.6435 43.7064L45.5216 33.7029L51.9624 45.0353L51.9124 55.0796L46.6435 43.7064ZM46.7122 32.1675C47.1685 31.7328 47.5185 31.1825 47.7091 30.5664L54.6624 30.9667C54.9874 32.696 56.5062 34.0125 58.3281 34.0125C58.9188 34.0125 59.4813 33.8718 59.9782 33.6279L62.422 36.5267L53.1378 43.4782L46.7122 32.1675ZM8.44552 9.01125L23.5116 3.02909L17.5927 10.1401C17.0989 9.8993 16.5489 9.76483 15.9645 9.76483C13.9082 9.76483 12.2362 11.4378 12.2362 13.4955C12.2362 13.6706 12.2487 13.8395 12.2737 14.0083L3.08623 17.6795L8.44552 9.01125ZM3.03601 22.4674L15.9868 33.2186L7.61134 33.9128L3.03601 22.4674ZM19.6989 35.7515C18.6301 35.7515 17.7613 34.8822 17.7613 33.8127C17.7613 32.7433 18.6301 31.8708 19.6989 31.8708C20.7677 31.8708 21.6396 32.7401 21.6396 33.8127C21.6396 34.8821 20.7677 35.7515 19.6989 35.7515ZM22.9334 35.6671C23.0021 35.5482 23.0646 35.4263 23.1209 35.2981L35.9932 40.0606L35.8901 43.8694L25.5898 43.5911L22.9334 35.6671ZM56.1439 43.4629L62.491 38.7097L61.866 42.7062L56.1439 43.4629ZM63.866 35.4544L61.3472 32.4649C61.7941 31.8488 62.0597 31.0921 62.0597 30.2759C62.0597 29.6192 61.8878 29.0032 61.5909 28.4653L69.1818 21.4012L70.1631 30.886L63.866 35.4544Z" fill="#0CB4C4" stroke="white" stroke-width="0.4" mask="url(#path-1-inside-1_1405_285)"></path></svg>