<svg width="57" height="60" viewBox="0 0 57 60" fill="none" xmlns="http://www.w3.org/2000/svg"><path d="M56.8193 22.1608C56.8193 22.0659 53.021 4.7469 53.0417 4.59898C52.9416 4.14803 52.6917 3.74406 52.3324 3.45376C51.973 3.16299 51.5258 3.00328 51.0636 3H5.75573C5.2935 3.00329 4.84632 3.163 4.48694 3.45376C4.12759 3.74407 3.87769 4.14803 3.77764 4.59898L0 22.0658C0.0103343 22.1358 0.0103343 22.2067 0 22.2762V25.2648C0.069991 26.3837 0.487592 27.4528 1.19549 28.3228C1.90291 29.1923 2.86448 29.8194 3.9458 30.1153V54.9693C3.94298 55.509 4.15624 56.0271 4.53768 56.4086C4.91911 56.79 5.43723 57.0028 5.97651 57H50.8322C51.3701 57.0028 51.8868 56.7914 52.2678 56.4123C52.6487 56.0328 52.8634 55.5175 52.8634 54.9801V30.1153C53.9466 29.8213 54.9105 29.1951 55.6198 28.3251C56.3296 27.4552 56.7491 26.3851 56.8196 25.2648V22.2763V22.1607L56.8193 22.1608ZM54.5673 21.2561H45.771L44.2876 5.03028H51.0641L54.5673 21.2561ZM34.9011 5.03028H42.2666L43.7501 21.2561H34.9114L34.9011 5.03028ZM32.8704 21.2561H23.9472V5.03028H32.8699L32.8704 21.2561ZM21.917 21.2561H13.1202L15.1298 5.03028H21.9166L21.917 21.2561ZM12.9835 23.2868H21.917L21.9165 25.2648C21.9165 27.0536 19.9173 28.5164 17.4549 28.5164C14.9924 28.5164 12.9829 27.0536 12.9829 25.2648L12.9835 23.2868ZM23.9477 23.2868H32.8704V25.2648C32.8704 27.0536 30.8712 28.5164 28.4087 28.5164C25.9463 28.5164 23.9471 27.0536 23.9471 25.2648L23.9477 23.2868ZM34.9011 23.2868H43.8346L43.8341 25.2648C43.8341 27.0536 41.8246 28.5164 39.3621 28.5164C36.8997 28.5164 34.9005 27.0536 34.9005 25.2648L34.9011 23.2868ZM5.7541 5.03113H13.1196L11.0781 21.2569H2.27096L5.7541 5.03113ZM2.02901 25.265V23.2869H10.9517V25.265C10.7939 29.5579 2.18678 29.5579 2.02901 25.265ZM22.8316 54.9687H11.1624V40.5215C11.4043 33.156 22.5892 33.156 22.8316 40.5215V54.9687ZM50.8314 54.9687H24.8627V40.5215C24.463 30.4099 9.52199 30.4099 9.13237 40.5215V54.9687H5.97572V30.526C8.25212 30.7313 10.4871 29.8214 11.9734 28.0848C13.3328 29.6946 15.3493 30.6002 17.4557 30.5472C19.5587 30.6003 21.572 29.6941 22.9272 28.0848C24.2872 29.6936 26.3032 30.5988 28.4091 30.5472C30.515 30.5989 32.531 29.6937 33.891 28.0848C35.2879 29.6382 37.2787 30.5256 39.3681 30.5256C41.4571 30.5256 43.4479 29.6382 44.8448 28.0848C46.332 29.82 48.5661 30.7294 50.8425 30.526L50.8314 54.9687ZM50.3264 28.5154C47.864 28.5154 45.8648 27.0526 45.8648 25.2639L45.8653 23.2863H54.788V25.2643C54.788 27.0531 52.7887 28.5159 50.3263 28.5159L50.3264 28.5154Z" fill="#0CB4C4"></path><path d="M42.6354 35.9551H36.1009C34.461 35.9579 32.8888 36.6108 31.7291 37.7707C30.5697 38.93 29.9168 40.5022 29.9139 42.1425C29.5034 46.0882 32.0184 49.5709 36.1009 49.6344H42.6349L42.6354 49.6339C44.2771 49.6311 45.8508 48.9772 47.0111 47.8151C48.1709 46.6534 48.8223 45.0784 48.8223 43.4367C49.2329 39.4697 46.7494 36.0077 42.6354 35.9551ZM46.7916 43.4362V43.4366C46.7916 44.5438 46.3552 45.6064 45.5773 46.3941C44.7994 47.1819 43.7425 47.6314 42.6353 47.6455H36.1007C34.9846 47.6455 33.9141 47.2021 33.125 46.4124C32.3353 45.6233 31.8919 44.5527 31.8919 43.4366V42.1425C31.906 41.0353 32.3555 39.9779 33.1432 39.2C33.931 38.4221 34.9936 37.9857 36.1007 37.9861H42.6353C43.7331 37.9998 44.7824 38.4418 45.5589 39.2183C46.3354 39.9947 46.7779 41.0442 46.7915 42.1423L46.7916 43.4362Z" fill="#0CB4C4"></path><path d="M14.0885 45.6257C13.4083 45.6257 12.8573 46.1767 12.8573 46.8569C12.8573 47.5366 13.4083 48.088 14.0885 48.088C14.7682 48.088 15.3192 47.5366 15.3192 46.8569C15.3192 46.1767 14.7682 45.6257 14.0885 45.6257Z" fill="#0CB4C4"></path></svg>