<svg xmlns="http://www.w3.org/2000/svg" xmlns:xlink="http://www.w3.org/1999/xlink" version="1.1" id="Layer_1" x="0px" y="0px" width="60px" height="60px" viewBox="0 0 60 60" enable-background="new 0 0 60 60" xml:space="preserve"><g><g><path fill="#0CB4C4" d="M59.063,58.125h-0.938v-0.938c0-1.551-1.263-2.813-2.813-2.813H48.75v-33.75h0.938 c0.518,0,0.938-0.42,0.938-0.938v-3.75c0-0.518-0.42-0.938-0.938-0.938h-18.75v-3.75c0-0.349-0.193-0.668-0.502-0.831 L10.748,0.107c-0.291-0.152-0.641-0.142-0.921,0.028c-0.28,0.171-0.452,0.475-0.452,0.803v53.438H4.688 c-1.551,0-2.813,1.262-2.813,2.813v0.938H0.938C0.419,58.125,0,58.545,0,59.063S0.419,60,0.938,60h58.125 C59.58,60,60,59.58,60,59.063S59.58,58.125,59.063,58.125z M46.875,54.375H41.25v-3.75c0.518,0,0.938-0.42,0.938-0.938 s-0.42-0.938-0.938-0.938h-0.938h-5.625H33.75c-0.518,0-0.938,0.42-0.938,0.938s0.42,0.938,0.938,0.938v3.75h-5.625v-33.75h18.75 V54.375z M35.625,54.375v-3.75h3.75v3.75H35.625z M48.75,18.75h-22.5v-1.875h22.5V18.75z M11.25,2.487l17.813,9.33V15h-3.75 c-0.518,0-0.938,0.42-0.938,0.938v3.75c0,0.518,0.419,0.938,0.938,0.938h0.938v33.75h-4.688v-4.688 c0-0.518-0.419-0.938-0.938-0.938H15c-0.518,0-0.938,0.42-0.938,0.938v4.688H11.25V2.487z M15.938,54.375v-3.75h3.75v3.75H15.938z M3.75,57.188c0-0.518,0.42-0.938,0.938-0.938h50.625c0.518,0,0.938,0.42,0.938,0.938v0.938H3.75V57.188z"></path><path fill="#0CB4C4" d="M31.875,29.063h3.75c0.518,0,0.938-0.42,0.938-0.938v-3.75c0-0.518-0.42-0.938-0.938-0.938h-3.75 c-0.518,0-0.938,0.42-0.938,0.938v3.75C30.938,28.643,31.357,29.063,31.875,29.063z M32.813,25.313h1.875v1.875h-1.875V25.313z"></path><path fill="#0CB4C4" d="M39.375,29.063h3.75c0.518,0,0.938-0.42,0.938-0.938v-3.75c0-0.518-0.42-0.938-0.938-0.938h-3.75 c-0.518,0-0.938,0.42-0.938,0.938v3.75C38.438,28.643,38.857,29.063,39.375,29.063z M40.313,25.313h1.875v1.875h-1.875V25.313z"></path><path fill="#0CB4C4" d="M31.875,37.5h3.75c0.518,0,0.938-0.42,0.938-0.938v-3.75c0-0.518-0.42-0.938-0.938-0.938h-3.75 c-0.518,0-0.938,0.42-0.938,0.938v3.75C30.938,37.08,31.357,37.5,31.875,37.5z M32.813,33.75h1.875v1.875h-1.875V33.75z"></path><path fill="#0CB4C4" d="M39.375,37.5h3.75c0.518,0,0.938-0.42,0.938-0.938v-3.75c0-0.518-0.42-0.938-0.938-0.938h-3.75 c-0.518,0-0.938,0.42-0.938,0.938v3.75C38.438,37.08,38.857,37.5,39.375,37.5z M40.313,33.75h1.875v1.875h-1.875V33.75z"></path><path fill="#0CB4C4" d="M31.875,45.938h3.75c0.518,0,0.938-0.42,0.938-0.938v-3.75c0-0.518-0.42-0.938-0.938-0.938h-3.75 c-0.518,0-0.938,0.42-0.938,0.938V45C30.938,45.518,31.357,45.938,31.875,45.938z M32.813,42.188h1.875v1.875h-1.875V42.188z"></path><path fill="#0CB4C4" d="M39.375,45.938h3.75c0.518,0,0.938-0.42,0.938-0.938v-3.75c0-0.518-0.42-0.938-0.938-0.938h-3.75 c-0.518,0-0.938,0.42-0.938,0.938V45C38.438,45.518,38.857,45.938,39.375,45.938z M40.313,42.188h1.875v1.875h-1.875V42.188z"></path><path fill="#0CB4C4" d="M15,15.938h3.75c0.518,0,0.938-0.42,0.938-0.938v-2.813c0-0.518-0.419-0.938-0.938-0.938H15 c-0.518,0-0.938,0.42-0.938,0.938V15C14.063,15.518,14.482,15.938,15,15.938z M15.938,13.125h1.875v0.938h-1.875V13.125z"></path><path fill="#0CB4C4" d="M15,23.438h5.625c0.518,0,0.938-0.42,0.938-0.938v-2.813c0-0.518-0.419-0.938-0.938-0.938H15 c-0.518,0-0.938,0.42-0.938,0.938V22.5C14.063,23.018,14.482,23.438,15,23.438z M15.938,20.625h3.75v0.938h-3.75V20.625z"></path><path fill="#0CB4C4" d="M15,30.938h5.625c0.518,0,0.938-0.42,0.938-0.938v-2.813c0-0.518-0.419-0.938-0.938-0.938H15 c-0.518,0-0.938,0.42-0.938,0.938V30C14.063,30.518,14.482,30.938,15,30.938z M15.938,28.125h3.75v0.938h-3.75V28.125z"></path><path fill="#0CB4C4" d="M15,38.438h5.625c0.518,0,0.938-0.42,0.938-0.938v-2.813c0-0.518-0.419-0.938-0.938-0.938H15 c-0.518,0-0.938,0.42-0.938,0.938V37.5C14.063,38.018,14.482,38.438,15,38.438z M15.938,35.625h3.75v0.938h-3.75V35.625z"></path><path fill="#0CB4C4" d="M15,45.938h5.625c0.518,0,0.938-0.42,0.938-0.938v-2.813c0-0.518-0.419-0.938-0.938-0.938H15 c-0.518,0-0.938,0.42-0.938,0.938V45C14.063,45.518,14.482,45.938,15,45.938z M15.938,43.125h3.75v0.938h-3.75V43.125z"></path></g></g></svg>