<svg xmlns="http://www.w3.org/2000/svg" xmlns:xlink="http://www.w3.org/1999/xlink" version="1.1" id="Layer_1" x="0px" y="0px" width="59.998px" height="60px" viewBox="0 0 59.998 60" enable-background="new 0 0 59.998 60" xml:space="preserve"><path fill="#0CB4C4" d="M37.666,32.156c2.363-2.272,5.52-3.535,8.799-3.518c4.801-0.106,9.209,2.639,11.232,6.992 c0.269,0.606,0.977,0.882,1.583,0.616c0.604-0.266,0.88-0.972,0.617-1.577c-1.678-3.731-4.894-6.55-8.811-7.725 c1.956-1.642,3.076-4.073,3.053-6.628c0-4.586-3.44-8.318-7.672-8.318c-3.296,0.084-6.177,2.25-7.172,5.392 c-1.399-1.086-2.983-1.915-4.677-2.443c1.959-1.643,3.079-4.073,3.056-6.628c0-4.587-3.44-8.319-7.672-8.319 c-4.23,0-7.672,3.732-7.672,8.319c-0.023,2.555,1.097,4.985,3.056,6.628c-1.695,0.53-3.279,1.357-4.682,2.445 c-0.996-3.144-3.877-5.31-7.172-5.394c-4.231,0-7.673,3.732-7.673,8.318c-0.022,2.555,1.098,4.986,3.053,6.628 c-3.916,1.175-7.132,3.993-8.81,7.725c-0.268,0.605,0.008,1.313,0.613,1.582c0.607,0.267,1.315-0.008,1.582-0.614 C2.3,35.635,2.3,35.634,2.302,35.631c2.024-4.354,6.432-7.099,11.232-6.992c3.282-0.02,6.442,1.245,8.805,3.523 c0.03,2.484,1.143,4.831,3.044,6.431c-1.692,0.529-3.276,1.356-4.679,2.445c-0.996-3.143-3.877-5.308-7.172-5.394 c-4.231,0-7.673,3.732-7.673,8.32c-0.022,2.554,1.098,4.985,3.056,6.628c-3.917,1.175-7.132,3.992-8.813,7.72 c-0.269,0.606,0.005,1.315,0.61,1.584c0.606,0.269,1.315-0.005,1.584-0.61c0.001-0.002,0.003-0.006,0.004-0.009 c2.027-4.353,6.433-7.095,11.233-6.991c4.799-0.104,9.207,2.639,11.232,6.989c0.267,0.608,0.974,0.885,1.582,0.619 c0.605-0.267,0.883-0.975,0.617-1.582l0,0c-1.681-3.729-4.897-6.548-8.816-7.721c1.957-1.643,3.076-4.073,3.054-6.627 c0-0.053-0.006-0.104-0.007-0.158c4.929-4.697,12.677-4.698,17.606,0c-0.001,0.053-0.007,0.104-0.007,0.158 c-0.023,2.554,1.096,4.984,3.053,6.627c-3.918,1.173-7.135,3.991-8.815,7.721c-0.266,0.607,0.011,1.315,0.617,1.582 c0.607,0.266,1.315-0.011,1.581-0.619c2.026-4.351,6.435-7.093,11.232-6.989c4.801-0.104,9.206,2.639,11.233,6.991 c0.265,0.606,0.973,0.884,1.58,0.619c0.608-0.266,0.885-0.974,0.619-1.581c0,0,0-0.001,0-0.003c-1.681-3.728-4.896-6.545-8.813-7.72 c1.959-1.643,3.079-4.074,3.056-6.628c0-4.588-3.44-8.32-7.672-8.32c-3.296,0.084-6.174,2.249-7.172,5.393 c-1.399-1.088-2.982-1.915-4.674-2.444C36.526,36.993,37.637,34.644,37.666,32.156z M13.533,49.885c-2.908,0-5.273-2.655-5.273-5.92 s2.365-5.92,5.273-5.92c2.721,0,4.966,2.327,5.243,5.302c0.019,0.221,0.028,0.419,0.028,0.618 C18.804,47.229,16.44,49.885,13.533,49.885z M46.467,38.045c2.907,0,5.273,2.655,5.273,5.92s-2.366,5.92-5.273,5.92 c-2.908,0-5.271-2.655-5.271-5.92c0-0.199,0.009-0.397,0.025-0.59C41.5,40.372,43.747,38.045,46.467,38.045z M46.467,14.397 c2.907,0,5.273,2.656,5.273,5.92c0,3.265-2.366,5.92-5.273,5.92c-2.908,0-5.271-2.655-5.271-5.92c0-0.197,0.009-0.395,0.025-0.587 C41.5,16.726,43.747,14.397,46.467,14.397z M30.002,2.399c2.908,0,5.273,2.655,5.273,5.92c0,3.263-2.365,5.92-5.273,5.92 c-2.907,0-5.273-2.657-5.273-5.92C24.729,5.055,27.095,2.399,30.002,2.399z M30,16.639c3.282-0.017,6.439,1.247,8.804,3.523 c-0.001,0.052-0.007,0.103-0.007,0.155c-0.023,2.555,1.096,4.984,3.053,6.628c-1.653,0.516-3.205,1.317-4.581,2.367 c-0.918-3.276-3.864-5.574-7.266-5.665c-3.402,0.092-6.349,2.39-7.267,5.668c-1.378-1.053-2.93-1.854-4.584-2.371 c1.955-1.643,3.074-4.072,3.052-6.627c0-0.053-0.006-0.103-0.007-0.155C23.56,17.889,26.719,16.625,30,16.639z M13.533,14.397 c2.721,0,4.966,2.328,5.243,5.304c0.019,0.222,0.028,0.417,0.028,0.616c0,3.265-2.364,5.92-5.271,5.92 c-2.908,0-5.273-2.655-5.273-5.92C8.259,17.054,10.625,14.397,13.533,14.397z M30.026,37.884c-2.944-0.015-5.297-2.662-5.297-5.917 c0-3.265,2.366-5.922,5.273-5.922c2.908,0,5.273,2.657,5.273,5.922C35.276,35.222,32.921,37.869,30.026,37.884L30.026,37.884z"></path></svg>