<svg xmlns="http://www.w3.org/2000/svg" xmlns:xlink="http://www.w3.org/1999/xlink" version="1.1" id="Layer_1" x="0px" y="0px" width="44.17px" height="60px" viewBox="0 0 44.17 60" enable-background="new 0 0 44.17 60" xml:space="preserve"><path fill="#0CB4C4" d="M29.526,0H0v60h44.17V14.326L29.526,0z M30.197,3.819l10.071,9.852H30.197v-9.86V3.819z M2.26,57.739V2.26 h25.678V15.93h13.972v41.81H2.26z"></path><rect x="17.444" y="20.983" fill="#0CB4C4" width="20.179" height="2.26"></rect><polygon fill="#0CB4C4" points="9.62,22.189 7.329,19.893 5.732,21.489 9.62,25.383 15.072,19.929 13.476,18.326 "></polygon><rect x="17.444" y="31.483" fill="#0CB4C4" width="20.179" height="2.261"></rect><polygon fill="#0CB4C4" points="9.62,33.178 7.329,30.881 5.732,32.478 9.62,36.372 15.072,30.912 13.476,29.313 "></polygon><rect x="17.444" y="41.991" fill="#0CB4C4" width="20.179" height="2.26"></rect><polygon fill="#0CB4C4" points="9.62,44.159 7.329,41.87 5.732,43.467 9.62,47.362 15.072,41.9 13.476,40.304 "></polygon></svg>