<svg width="67" height="60" viewBox="0 0 67 60" fill="none" xmlns="http://www.w3.org/2000/svg"><path d="M46.5996 18.9323C45.9008 18.9323 45.2834 18.4278 45.1649 17.7155C43.8886 10.0579 37.641 8.7226 37.578 8.70967C36.7894 8.55194 36.2781 7.78468 36.4353 6.99604C36.593 6.20744 37.3603 5.69611 38.1489 5.85384C38.4862 5.92119 46.4345 7.6179 48.0375 17.2367C48.1694 18.0298 47.634 18.7802 46.8403 18.9127C46.7601 18.9256 46.6793 18.9323 46.5996 18.9323Z" fill="#0CB4C4"></path><path d="M27.67 26.5046H30.5826V29.4172H27.67V26.5046Z" fill="#0CB4C4"></path><path d="M27.67 20.6802H30.5826V25.0492H27.67V20.6802Z" fill="#0CB4C4"></path><path d="M32.0381 26.5046H34.9507V29.4172H32.0381V26.5046Z" fill="#0CB4C4"></path><path d="M32.0381 22.135H34.9507V25.0476H32.0381V22.135Z" fill="#0CB4C4"></path><path d="M32.0381 17.7654H34.9507V20.678H32.0381V17.7654Z" fill="#0CB4C4"></path><path d="M36.4077 26.5046H39.3203V29.4172H36.4077V26.5046Z" fill="#0CB4C4"></path><path d="M50.9705 32.3282H53.8831V35.2408H50.9705V32.3282Z" fill="#0CB4C4"></path><path d="M55.3401 32.3282H58.2526V35.2408H55.3401V32.3282Z" fill="#0CB4C4"></path><path d="M50.9705 36.6978H53.8831V39.6103H50.9705V36.6978Z" fill="#0CB4C4"></path><path d="M43.6897 32.3282H49.5147V35.2408H43.6897V32.3282Z" fill="#0CB4C4"></path><path d="M43.6897 36.6978H49.5147V39.6103H43.6897V36.6978Z" fill="#0CB4C4"></path><path d="M11.6501 36.6978H14.5627V39.6103H11.6501V36.6978Z" fill="#0CB4C4"></path><path d="M11.6501 32.3282H14.5627V35.2408H11.6501V32.3282Z" fill="#0CB4C4"></path><path d="M7.28201 32.3282H10.1946V35.2408H7.28201V32.3282Z" fill="#0CB4C4"></path><path d="M16.0197 36.6978H21.8447V39.6103H16.0197V36.6978Z" fill="#0CB4C4"></path><path d="M16.0197 32.3282H21.8447V35.2408H16.0197V32.3282Z" fill="#0CB4C4"></path><path d="M36.4077 20.6802H39.3203V25.0492H36.4077V20.6802Z" fill="#0CB4C4"></path><path d="M53.8831 45.1456H40.7766C39.9722 45.1456 39.32 44.4939 39.32 43.689V33.7863H26.2135V43.689C26.2135 44.4933 25.5618 45.1456 24.7569 45.1456H10.1941C10.0599 45.1456 9.92634 45.127 9.79725 45.09C4.12041 43.4824 0 37.6149 0 31.1387C0 24.9825 4.09627 19.5807 9.89323 17.8734C10.3512 12.0328 15.235 7.42067 21.1728 7.42067C22.3088 7.42067 23.4208 7.58794 24.4923 7.91909C25.7944 5.74193 27.5883 3.89352 29.738 2.52518C32.3333 0.873338 35.3368 0 38.4238 0C47.3802 0 54.6664 7.31129 54.6664 16.2986C54.6664 16.6595 54.654 17.0232 54.6293 17.3886C61.5629 18.1037 66.9894 23.9977 66.9894 31.14C66.9894 38.7605 61.2525 44.9128 53.9288 45.1457C53.9137 45.1457 53.8985 45.1463 53.8828 45.1463L53.8831 45.1456ZM42.2331 42.233H53.8595C59.5914 42.0382 64.0776 37.1703 64.0776 31.1393C64.0776 25.1229 59.2029 20.2279 53.2112 20.2279C53.1871 20.2279 53.1624 20.229 53.1382 20.2301C53.1017 20.2312 53.0647 20.2323 53.0282 20.2335C52.5927 20.2391 52.1812 20.0561 51.8984 19.7283C51.6155 19.4005 51.4937 18.9639 51.5655 18.5367C51.6912 17.788 51.7547 17.0347 51.7547 16.2989C51.7547 8.91865 45.7742 2.91405 38.4243 2.91405C33.3195 2.91405 28.74 5.77101 26.4717 10.3708C26.126 11.0724 25.2874 11.3749 24.5729 11.0572C23.4963 10.5779 22.3524 10.3348 21.172 10.3348C16.5392 10.3348 12.7702 14.1202 12.7702 18.7726C12.7702 18.8103 12.7718 18.8473 12.773 18.8843L12.7763 18.9842C12.7937 19.6898 12.302 20.3061 11.6105 20.4464C6.57082 21.4702 2.91237 25.9678 2.91237 31.14C2.91237 36.2674 6.05167 40.8973 10.4038 42.2337H23.3004V32.331C23.3004 31.5267 23.9521 30.8745 24.7564 30.8745H40.7763C41.5806 30.8745 42.2328 31.5261 42.2328 32.331V42.2343L42.2331 42.233Z" fill="#0CB4C4"></path><path d="M40.7773 49.8057H24.7575C23.9532 49.8057 23.3015 49.1535 23.3015 48.3491V32.3308C23.3015 31.5264 23.9532 30.8742 24.7575 30.8742H40.7773C41.5816 30.8742 42.2339 31.5264 42.2339 32.3308V48.3506C42.2339 49.1549 41.5817 49.8066 40.7773 49.8066V49.8057ZM26.2145 46.8931H39.321V33.7866H26.2145V46.8931Z" fill="#0CB4C4"></path><path d="M29.1255 59.9997H7.28058C6.47625 59.9997 5.82401 59.3481 5.82401 58.5437C5.82401 57.7394 6.47622 57.0872 7.28058 57.0872H27.6685V48.3492C27.6685 47.5449 28.3202 46.8926 29.1245 46.8926C29.9288 46.8926 30.5811 47.5448 30.5811 48.3492V58.5432C30.5816 59.3475 29.9294 59.9997 29.1251 59.9997H29.1255Z" fill="#0CB4C4"></path><path d="M58.2525 60H36.4076C35.6032 60 34.951 59.3483 34.951 58.544V48.35C34.951 47.5463 35.6026 46.8935 36.4076 46.8935C37.2119 46.8935 37.8636 47.5451 37.8636 48.35V57.088H58.2515C59.0558 57.088 59.7075 57.7397 59.7075 58.5446C59.7086 59.3478 59.0564 60 58.2521 60H58.2525Z" fill="#0CB4C4"></path><path d="M36.4076 45.4362H29.126C28.3217 45.4362 27.67 44.7845 27.67 43.9796V36.6981C27.67 35.8938 28.3217 35.2421 29.126 35.2421H36.4076C37.2119 35.2421 37.8636 35.8937 37.8636 36.6981V43.9796C37.8641 44.784 37.2119 45.4362 36.4076 45.4362ZM30.5826 42.5232H34.9516V38.1542H30.5826V42.5232Z" fill="#0CB4C4"></path></svg>