<svg width="61" height="60" viewBox="0 0 61 60" fill="none" xmlns="http://www.w3.org/2000/svg"><path d="M56.9064 23.2258V18.3871C56.9064 17.1255 56.0972 16.0499 54.9709 15.6503V11.6129H53.0354V3.87097C53.0354 1.73649 51.2989 0 49.1644 0H43.358C41.2235 0 39.487 1.73649 39.487 3.87097V56.129C39.487 57.1962 38.6187 58.0645 37.5515 58.0645C36.4844 58.0645 35.6161 57.1962 35.6161 56.129V48.3871C35.6161 46.2526 33.8796 44.5161 31.7451 44.5161H29.8096V24.9803C29.8096 21.7808 27.6282 19.0615 24.5049 18.3674L22.6188 17.9482C22.883 17.5109 23.0354 16.9986 23.0354 16.4515C23.0354 14.1148 21.3704 12.1597 19.1644 11.7102V9.17468L24.0031 5.30371V0H6.5838V5.30383L11.4225 9.1748V11.7103C9.21654 12.1598 7.55154 14.1149 7.55154 16.4516C7.55154 16.9987 7.70384 17.511 7.96815 17.9483L6.08202 18.3675C2.95876 19.0616 0.777344 21.7808 0.777344 24.9803V51.2903C0.777344 53.9584 2.94799 56.129 5.61605 56.129H24.9709C27.639 56.129 29.8096 53.9584 29.8096 51.2903V46.4516H31.7451C32.8123 46.4516 33.6806 47.3199 33.6806 48.3871V56.129C33.6806 58.2635 35.4171 60 37.5515 60C39.686 60 41.4225 58.2635 41.4225 56.129V3.87097C41.4225 2.80379 42.2908 1.93548 43.358 1.93548H49.1644C50.2316 1.93548 51.0999 2.80379 51.0999 3.87097V11.6129H49.1644V15.6503C48.0381 16.0499 47.229 17.1255 47.229 18.3871V28.0645C47.229 29.3261 48.0381 30.4017 49.1644 30.8013V44.5161H47.229V50.3226H56.9064V44.5161H54.9709V30.8013C55.7943 30.5093 56.4478 29.8557 56.7399 29.0323H60.7773V23.2258H56.9064ZM12.7297 7.74194L10.3103 5.80645H20.2765L17.8571 7.74194H12.7297ZM17.229 9.67742V11.6129H13.358V9.67742H17.229ZM22.0677 1.93548V3.87097H8.51928V1.93548H22.0677ZM12.3902 13.5484H18.1967C19.7975 13.5484 21.0999 14.8508 21.0999 16.4516C21.0999 16.9852 20.6658 17.4194 20.1322 17.4194H10.4548C9.92117 17.4194 9.48702 16.9852 9.48702 16.4516C9.48702 14.8508 10.7895 13.5484 12.3902 13.5484ZM6.5019 20.2569L10.561 19.3548H20.0259L24.085 20.2569C26.3161 20.7526 27.8741 22.695 27.8741 24.9803V48.3871H2.71283V24.9803C2.71283 22.695 4.27089 20.7526 6.5019 20.2569ZM24.9709 54.1935H5.61605C4.01517 54.1935 2.71283 52.8911 2.71283 51.2903V50.3226H27.8741V51.2903C27.8741 52.8911 26.5718 54.1935 24.9709 54.1935ZM53.0354 13.5484V15.4839H51.0999V13.5484H53.0354ZM54.9709 48.3871H49.1644V46.4516H54.9709V48.3871ZM51.0999 44.5161V30.9677H53.0354V44.5161H51.0999ZM54.9709 28.0645C54.9709 28.5981 54.5367 29.0323 54.0031 29.0323H50.1322C49.5986 29.0323 49.1644 28.5981 49.1644 28.0645V18.3871C49.1644 17.8535 49.5986 17.4194 50.1322 17.4194H54.0031C54.5367 17.4194 54.9709 17.8535 54.9709 18.3871V28.0645ZM58.8419 27.0968H56.9064V25.1613H58.8419V27.0968Z" fill="#0CB4C4"></path><path d="M59.8026 51.1743L57.8811 51.4061L58.4473 56.1017L56.4865 52.9896L56.4403 52.9356C55.9074 52.3141 55.067 52.0959 54.2992 52.3801C53.5314 52.6642 53.0353 53.3767 53.0353 54.1954V57.0967C53.0353 57.6302 52.6012 58.0644 52.0676 58.0644C51.534 58.0644 51.0999 57.6302 51.0999 57.0967V54.1954C51.0999 53.3767 50.6038 52.6643 49.836 52.3802C49.0681 52.0958 48.2277 52.3142 47.6949 52.9357L47.6486 52.9897L45.6879 56.1018L46.2541 51.4062L44.3326 51.1744L43.7644 55.8858C43.6577 56.74 44.1148 57.5477 44.9021 57.8959C45.6891 58.244 46.5943 58.0389 47.1545 57.3854L47.2007 57.3316L49.1645 54.2147V57.0967C49.1645 58.6974 50.4668 59.9999 52.0677 59.9999C53.6686 59.9999 54.9709 58.6974 54.9709 57.0967L54.9717 54.2159L56.9346 57.3316L56.9808 57.3854C57.5409 58.039 58.4462 58.2443 59.2332 57.8959C60.0204 57.5477 60.4776 56.7399 60.3714 55.8899L59.8026 51.1743Z" fill="#0CB4C4"></path><path d="M15.2936 44.5159C21.1633 44.5159 25.9388 39.7405 25.9388 33.8707C25.9388 28.001 21.1633 23.2256 15.2936 23.2256C9.42388 23.2256 4.64844 28.001 4.64844 33.8707C4.64844 39.7405 9.42388 44.5159 15.2936 44.5159ZM24.0033 33.8707C24.0033 35.9241 23.2874 37.8124 22.0944 39.3029L19.9412 37.1497C20.0647 36.7228 20.1323 36.2724 20.1323 35.8062V33.8707C20.1323 32.6092 19.3232 31.5335 18.1968 31.134V29.9998C18.1968 28.3989 16.8945 27.0966 15.2936 27.0966C13.8201 27.0966 12.6004 28.2001 12.4155 29.6241L9.86142 27.0701C11.3521 25.877 13.2403 25.1611 15.2936 25.1611C20.0961 25.1611 24.0033 29.0682 24.0033 33.8707ZM16.2613 30.9675H14.3259V29.9998C14.3259 29.4662 14.76 29.032 15.2936 29.032C15.8272 29.032 16.2613 29.4662 16.2613 29.9998V30.9675ZM12.3904 33.8707C12.3904 33.4563 12.6526 33.103 13.0195 32.9653L14.3259 34.2716V38.543C13.1995 38.1434 12.3904 37.0678 12.3904 35.8062V33.8707ZM16.2613 36.2071L17.6093 37.5551C17.2692 38.0041 16.8019 38.3514 16.2613 38.543V36.2071ZM15.6945 32.903H17.2291C17.7627 32.903 18.1968 33.3372 18.1968 33.8707V35.4053L15.6945 32.903ZM8.49291 28.4386L11.6094 31.5551C10.9086 32.0856 10.4549 32.9261 10.4549 33.8707V35.8062C10.4549 38.4743 12.6255 40.6449 15.2936 40.6449C16.7717 40.6449 18.0962 39.978 18.9844 38.9302L20.7257 40.6714C19.2351 41.8645 17.3469 42.5804 15.2936 42.5804C10.4911 42.5804 6.58392 38.6733 6.58392 33.8707C6.58392 31.8174 7.29981 29.9291 8.49291 28.4386Z" fill="#0CB4C4"></path></svg>