<svg width="61" height="60" viewBox="0 0 61 60" fill="none" xmlns="http://www.w3.org/2000/svg"><path d="M1.77734 52H27.7773V50H2.77734V6H27.7773V12C27.7773 12.2652 27.8827 12.5196 28.0702 12.7071C28.2578 12.8946 28.5121 13 28.7773 13H34.7773V20H36.7773V1C36.7773 0.734784 36.672 0.48043 36.4845 0.292893C36.2969 0.105357 36.0426 0 35.7773 0H1.77734C1.51213 0 1.25777 0.105357 1.07024 0.292893C0.882701 0.48043 0.777344 0.734784 0.777344 1V51C0.777344 51.2652 0.882701 51.5196 1.07024 51.7071C1.25777 51.8946 1.51213 52 1.77734 52ZM29.7773 11V7.414L33.3633 11H29.7773ZM34.7773 2V9.586L29.4843 4.293C29.3995 4.20879 29.2998 4.14098 29.1903 4.093C29.161 4.08036 29.1309 4.06935 29.1003 4.06C29.0151 4.03072 28.9263 4.01323 28.8363 4.008C28.8163 4.01 28.7973 4 28.7773 4H2.77734V2H34.7773Z" fill="#0CB4C4"></path><path d="M9.77734 17.118L13.3303 18.9C13.5484 19.0089 13.7986 19.0344 14.0341 18.9718C14.2696 18.9092 14.4742 18.7628 14.6093 18.56L17.7773 13.8L20.9453 18.552C21.0274 18.675 21.1358 18.7783 21.2627 18.8544C21.3895 18.9306 21.5317 18.9776 21.6789 18.9921C21.8261 19.0066 21.9747 18.9883 22.114 18.9385C22.2533 18.8887 22.3798 18.8086 22.4843 18.704L25.7773 15.414L29.0703 18.707L30.4843 17.293L26.4843 13.293C26.2968 13.1055 26.0425 13.0002 25.7773 13.0002C25.5122 13.0002 25.2579 13.1055 25.0703 13.293L21.9323 16.431L18.6093 11.445C18.5126 11.3156 18.387 11.2106 18.2426 11.1383C18.0982 11.066 17.9389 11.0283 17.7773 11.0283C17.6158 11.0283 17.4565 11.066 17.3121 11.1383C17.1677 11.2106 17.0421 11.3156 16.9453 11.445L13.4343 16.711L10.2243 15.105C10.0855 15.0356 9.93251 14.9995 9.77734 14.9995C9.62218 14.9995 9.46914 15.0356 9.33034 15.105L6.77734 16.382V12H4.77734V22C4.77734 22.2652 4.8827 22.5196 5.07024 22.7071C5.25777 22.8946 5.51213 23 5.77734 23H29.7773V21H6.77734V18.618L9.77734 17.118Z" fill="#0CB4C4"></path><path d="M25.7773 33.0003C25.7778 31.8154 25.4262 30.6571 24.7673 29.6723C23.9683 28.4755 22.7658 27.6058 21.379 27.2216C19.9922 26.8375 18.5135 26.9646 17.2126 27.5797C15.9117 28.1948 14.8752 29.2569 14.2921 30.5725C13.7089 31.8881 13.618 33.3694 14.0359 34.7463C14.4538 36.1233 15.3527 37.3043 16.5686 38.0738C17.7846 38.8434 19.2366 39.1503 20.6599 38.9386C22.0833 38.727 23.3831 38.0108 24.3225 36.9207C25.2619 35.8306 25.7782 34.4393 25.7773 33.0003ZM20.7773 31.1323V29.1323C21.3963 29.2926 21.9676 29.5992 22.4433 30.0263L20.7773 31.1323ZM19.7773 37.0003C18.8038 37.0003 17.8636 36.6452 17.1331 36.0016C16.4026 35.358 15.9318 34.4701 15.8092 33.5043C15.6865 32.5385 15.9203 31.561 16.4667 30.7553C17.0131 29.9495 17.8347 29.3706 18.7773 29.1273V33.0003C18.7773 33.1813 18.8263 33.359 18.9193 33.5143C19.0123 33.6696 19.1457 33.7968 19.3053 33.8823C19.382 33.9222 19.4633 33.9524 19.5473 33.9723C19.5783 33.9793 19.6103 33.9793 19.6413 33.9833C19.6862 33.9924 19.7316 33.9981 19.7773 34.0003C19.7843 34.0003 19.7913 34.0003 19.7993 34.0003C19.8621 33.9969 19.9244 33.9875 19.9853 33.9723C20.0156 33.9685 20.0456 33.9631 20.0753 33.9563C20.1662 33.9281 20.2527 33.8874 20.3323 33.8353L23.5533 31.6873C23.7016 32.1091 23.7774 32.5531 23.7773 33.0003C23.7773 34.0611 23.3559 35.0785 22.6058 35.8287C21.8556 36.5788 20.8382 37.0003 19.7773 37.0003Z" fill="#0CB4C4"></path><path d="M11.7773 29H4.77734V31H11.7773V29Z" fill="#0CB4C4"></path><path d="M13.7773 25H4.77734V27H13.7773V25Z" fill="#0CB4C4"></path><path d="M11.7773 33H4.77734V35H11.7773V33Z" fill="#0CB4C4"></path><path d="M11.7773 37H4.77734V39H11.7773V37Z" fill="#0CB4C4"></path><path d="M22.7773 41H4.77734V43H22.7773V41Z" fill="#0CB4C4"></path><path d="M13.7773 45H4.77734V47H13.7773V45Z" fill="#0CB4C4"></path><path d="M22.7773 45H15.7773V47H22.7773V45Z" fill="#0CB4C4"></path><path d="M6.77734 8H4.77734V10H6.77734V8Z" fill="#0CB4C4"></path><path d="M10.7773 8H8.77734V10H10.7773V8Z" fill="#0CB4C4"></path><path d="M14.7773 8H12.7773V10H14.7773V8Z" fill="#0CB4C4"></path><path d="M44.3483 20C40.7987 20.0194 37.3493 21.1796 34.5095 23.3095C31.6697 25.4393 29.5899 28.4258 28.5773 31.828L24.8173 44.72C24.7739 44.869 24.7657 45.0261 24.7935 45.1789C24.8212 45.3316 24.8842 45.4758 24.9773 45.6C25.0705 45.7242 25.1913 45.825 25.3301 45.8944C25.469 45.9639 25.6221 46 25.7773 46H29.7773V53C29.7797 54.8558 30.518 56.6349 31.8302 57.9471C33.1425 59.2594 34.9216 59.9976 36.7773 60H59.7773C60.0426 60 60.2969 59.8946 60.4845 59.7071C60.672 59.5196 60.7773 59.2652 60.7773 59V36.429C60.7723 32.0733 59.0398 27.8974 55.9598 24.8175C52.8799 21.7376 48.704 20.005 44.3483 20ZM31.7773 53V45C31.7773 44.7348 31.672 44.4804 31.4845 44.2929C31.2969 44.1054 31.0426 44 30.7773 44H27.1103L30.4973 32.389C31.2416 29.8122 32.6928 27.4954 34.6865 25.7013C36.6802 23.9071 39.1366 22.7074 41.7773 22.238V58H36.7773C35.4517 57.9984 34.1809 57.4711 33.2436 56.5338C32.3062 55.5964 31.7789 54.3256 31.7773 53ZM58.7773 58H43.7773V53H46.3633L49.0703 55.707C49.2578 55.8946 49.5121 55.9999 49.7773 56H51.7773V54H50.1913L47.4843 51.293C47.2969 51.1054 47.0425 51.0001 46.7773 51H43.7773V46H45.3633L48.0703 48.707C48.2578 48.8946 48.5121 48.9999 48.7773 49H49.9613C50.1972 49.6672 50.6614 50.2296 51.2718 50.5876C51.8822 50.9457 52.5996 51.0765 53.2971 50.9568C53.9946 50.8371 54.6273 50.4747 55.0835 49.9337C55.5396 49.3926 55.7898 48.7077 55.7898 48C55.7898 47.2923 55.5396 46.6074 55.0835 46.0663C54.6273 45.5253 53.9946 45.1629 53.2971 45.0432C52.5996 44.9235 51.8822 45.0543 51.2718 45.4124C50.6614 45.7704 50.1972 46.3328 49.9613 47H49.1913L46.4843 44.293C46.2969 44.1054 46.0425 44.0001 45.7773 44H43.7773V41H45.7773V39H43.7773V36H46.7773C47.0425 35.9999 47.2969 35.8946 47.4843 35.707L49.8843 33.307C50.4153 33.7515 51.0849 33.9966 51.7773 34C52.4048 34.0082 53.0193 33.8221 53.5368 33.4671C54.0542 33.1122 54.4491 32.6058 54.6673 32.0175C54.8855 31.4292 54.9164 30.7878 54.7556 30.1813C54.5948 29.5748 54.2503 29.0329 53.7693 28.6299C53.2883 28.227 52.6944 27.9827 52.0691 27.9307C51.4438 27.8787 50.8178 28.0214 50.2768 28.3394C49.7358 28.6573 49.3065 29.1348 49.0477 29.7064C48.7889 30.278 48.7133 30.9157 48.8313 31.532L46.3633 34H43.7773V22.015C43.9773 22.005 44.1643 22 44.3483 22C48.1738 22.0045 51.8412 23.5261 54.5462 26.2311C57.2512 28.9361 58.7728 32.6036 58.7773 36.429V58ZM51.7773 48C51.7773 47.8022 51.836 47.6089 51.9459 47.4444C52.0558 47.28 52.2119 47.1518 52.3947 47.0761C52.5774 47.0004 52.7785 46.9806 52.9724 47.0192C53.1664 47.0578 53.3446 47.153 53.4845 47.2929C53.6243 47.4327 53.7195 47.6109 53.7581 47.8049C53.7967 47.9989 53.7769 48.2 53.7012 48.3827C53.6255 48.5654 53.4974 48.7216 53.3329 48.8315C53.1685 48.9414 52.9751 49 52.7773 49C52.5121 49 52.2578 48.8946 52.0702 48.7071C51.8827 48.5196 51.7773 48.2652 51.7773 48ZM50.7773 31C50.7773 30.8022 50.836 30.6089 50.9459 30.4444C51.0558 30.28 51.2119 30.1518 51.3947 30.0761C51.5774 30.0004 51.7785 29.9806 51.9724 30.0192C52.1664 30.0578 52.3446 30.153 52.4845 30.2929C52.6243 30.4327 52.7195 30.6109 52.7581 30.8049C52.7967 30.9989 52.7769 31.2 52.7012 31.3827C52.6255 31.5654 52.4974 31.7216 52.3329 31.8315C52.1685 31.9414 51.9751 32 51.7773 32C51.5121 32 51.2578 31.8946 51.0702 31.7071C50.8827 31.5196 50.7773 31.2652 50.7773 31Z" fill="#0CB4C4"></path><path d="M35.9062 34C35.1405 34 34.3921 34.227 33.7555 34.6524C33.119 35.0777 32.6228 35.6823 32.3298 36.3896C32.0368 37.097 31.9602 37.8753 32.1095 38.6262C32.2589 39.3771 32.6276 40.0668 33.1689 40.6082C33.7103 41.1496 34.4001 41.5183 35.151 41.6676C35.9019 41.817 36.6802 41.7403 37.3875 41.4473C38.0949 41.1544 38.6994 40.6582 39.1248 40.0216C39.5501 39.385 39.7772 38.6366 39.7772 37.871C39.7764 36.8446 39.3683 35.8604 38.6425 35.1347C37.9167 34.4089 36.9326 34.0008 35.9062 34ZM35.9062 39.741C35.5361 39.741 35.1743 39.6312 34.8666 39.4256C34.5589 39.22 34.3191 38.9277 34.1775 38.5858C34.0359 38.2438 33.9989 37.8676 34.0712 37.5046C34.1435 37.1417 34.3218 36.8083 34.5835 36.5466C34.8453 36.285 35.1788 36.1069 35.5418 36.0348C35.9048 35.9627 36.281 35.9999 36.6229 36.1417C36.9647 36.2835 37.2569 36.5234 37.4623 36.8313C37.6678 37.1391 37.7774 37.5009 37.7772 37.871C37.7766 38.367 37.5793 38.8425 37.2285 39.1931C36.8777 39.5437 36.4021 39.7407 35.9062 39.741Z" fill="#0CB4C4"></path><path d="M49.9613 39H47.7773V41H49.9613C50.1972 41.6672 50.6614 42.2296 51.2718 42.5876C51.8822 42.9457 52.5996 43.0765 53.2971 42.9568C53.9946 42.8371 54.6273 42.4747 55.0835 41.9337C55.5396 41.3926 55.7898 40.7077 55.7898 40C55.7898 39.2923 55.5396 38.6074 55.0835 38.0663C54.6273 37.5253 53.9946 37.1629 53.2971 37.0432C52.5996 36.9235 51.8822 37.0543 51.2718 37.4124C50.6614 37.7705 50.1972 38.3328 49.9613 39ZM53.7773 40C53.7773 40.1978 53.7187 40.3911 53.6088 40.5556C53.4989 40.72 53.3428 40.8482 53.16 40.9239C52.9773 40.9996 52.7762 41.0194 52.5823 40.9808C52.3883 40.9422 52.2101 40.847 52.0702 40.7071C51.9304 40.5673 51.8351 40.3891 51.7966 40.1951C51.758 40.0011 51.7778 39.8 51.8535 39.6173C51.9292 39.4346 52.0573 39.2784 52.2218 39.1685C52.3862 39.0587 52.5796 39 52.7773 39C53.0426 39 53.2969 39.1054 53.4845 39.2929C53.672 39.4804 53.7773 39.7348 53.7773 40Z" fill="#0CB4C4"></path><path d="M47.7773 26H45.7773V28H47.7773V26Z" fill="#0CB4C4"></path><path d="M55.7773 54H53.7773V56H55.7773V54Z" fill="#0CB4C4"></path></svg>