<svg width="62" height="60" viewBox="0 0 62 60" fill="none" xmlns="http://www.w3.org/2000/svg"><path d="M60.8751 58.4082H0.777344V60H60.8751V58.4082Z" fill="#0CB4C4"></path><path d="M11.2039 51.0672C11.2015 51.0672 11.1991 51.0672 11.1967 51.0672C7.93767 51.0394 4.70493 49.247 2.96085 46.502C1.2 43.7307 0.988479 40.0752 2.38055 36.4737C2.51305 36.1323 2.86267 35.9246 3.22585 35.9707C4.87974 36.1801 6.51447 36.7857 7.95363 37.7225C9.3928 38.6593 10.6069 39.9072 11.4649 41.3327C13.3112 44.3993 13.478 48.1614 11.88 50.6956C11.7331 50.9264 11.4777 51.0672 11.2039 51.0672ZM3.65289 37.6517C2.68786 40.5742 2.91774 43.4601 4.30902 45.6496C5.68832 47.82 8.17873 49.2797 10.7498 49.4572C11.7866 47.4276 11.5448 44.5568 10.096 42.1509C8.71512 39.8579 6.28698 38.1754 3.65289 37.6517Z" fill="#0CB4C4"></path><path d="M12.155 49.6914H10.5586V59.2039H12.155V49.6914Z" fill="#0CB4C4"></path><path d="M32.4642 56.6638C32.0595 56.6638 31.658 56.6384 31.2613 56.5874C30.9867 56.5524 30.7496 56.3773 30.6363 56.1258C29.4014 53.3983 30.0831 49.6942 32.3325 46.9086C32.5328 46.661 32.7459 46.4199 32.9662 46.1923C35.0982 43.986 38.1873 42.6871 41.2301 42.7214C41.5972 42.7253 41.9149 42.9784 41.9987 43.335C42.8832 47.0924 42.172 50.6843 40.0479 53.1897C38.4683 55.0529 36.1311 56.2937 33.6367 56.5938C33.2448 56.6399 32.8537 56.6638 32.4642 56.6638ZM31.9246 55.0537C32.425 55.088 32.9343 55.0744 33.4436 55.0123C35.5428 54.7592 37.5048 53.7198 38.8275 52.1607C40.5061 50.1805 41.1303 47.3535 40.5747 44.3267C38.1745 44.4699 35.7983 45.5524 34.1141 47.2946C33.9265 47.4888 33.7445 47.6949 33.5737 47.9058C31.8104 50.0913 31.1767 52.9024 31.9246 55.0537Z" fill="#0CB4C4"></path><path d="M31.6159 49.6914H30.0195V59.2039H31.6159V49.6914Z" fill="#0CB4C4"></path><path d="M51.9071 56.6632C51.5104 56.6632 51.1145 56.6385 50.7218 56.5876C50.4472 56.5526 50.2109 56.3775 50.0968 56.126C48.8612 53.3977 49.5428 49.6936 51.7922 46.9079C52.8378 45.613 54.2115 44.5425 55.7657 43.8111C57.3198 43.0797 59.0199 42.704 60.689 42.7207C61.0562 42.7247 61.3739 42.9778 61.4577 43.3344C62.3421 47.0918 61.6317 50.6845 59.5068 53.1891C57.6582 55.3683 54.7719 56.6632 51.9071 56.6632ZM51.3851 55.0539C53.9577 55.229 56.6237 54.1227 58.288 52.1608C59.9674 50.1815 60.5908 47.3544 60.0353 44.3277C57.3541 44.4876 54.7176 45.8223 53.0358 47.906C51.2702 50.0915 50.6364 52.9026 51.3851 55.0539Z" fill="#0CB4C4"></path><path d="M50.1239 51.0672C50.1215 51.0672 50.1191 51.0672 50.1167 51.0672C46.8576 51.0394 43.6249 49.247 41.8808 46.502C40.1199 43.7307 39.9084 40.0752 41.3005 36.4737C41.433 36.1323 41.7818 35.9246 42.1458 35.9707C43.7997 36.1801 45.4344 36.7857 46.8736 37.7225C48.3127 38.6593 49.5268 39.9072 50.3849 41.3327C52.2311 44.3993 52.3979 48.1614 50.7991 50.6956C50.6531 50.9264 50.3976 51.0672 50.1239 51.0672ZM42.5736 37.6517C41.6086 40.5742 41.8385 43.4601 43.2297 45.6496C44.609 47.82 47.0994 49.2797 49.6705 49.4572C50.7073 47.4276 50.4655 44.5568 49.0167 42.1509C47.635 39.8579 45.2069 38.1754 42.5736 37.6517Z" fill="#0CB4C4"></path><path d="M51.0759 49.6914H49.4795V59.2039H51.0759V49.6914Z" fill="#0CB4C4"></path><path d="M30.6633 51.0672C30.6609 51.0672 30.6593 51.0672 30.6569 51.0672C29.727 51.0593 28.7907 50.9105 27.8743 50.6247C26.8438 50.304 25.8724 49.8217 24.9872 49.1905C24.106 48.5618 23.3461 47.8105 22.7299 46.9565C22.6269 46.8164 22.5247 46.666 22.4202 46.5004C21.5501 45.1299 21.0536 43.5652 20.9467 41.8492C20.8373 40.1022 21.1383 38.294 21.8415 36.4745C21.974 36.1323 22.3236 35.9246 22.6876 35.9707C23.7412 36.1045 24.7797 36.3958 25.775 36.8343C26.8095 37.2911 27.7706 37.8968 28.6334 38.6346C29.549 39.4186 30.32 40.3259 30.9259 41.3319C32.7721 44.3985 32.9381 48.1614 31.3401 50.6948C31.1925 50.9272 30.9378 51.0672 30.6633 51.0672ZM23.113 37.6517C22.6493 39.0477 22.4569 40.4238 22.5391 41.7497C22.6293 43.1951 23.0436 44.5075 23.7691 45.6496C23.8553 45.7857 23.9376 45.9075 24.0222 46.0229C24.5402 46.74 25.1756 47.3687 25.9155 47.8964C26.6618 48.4289 27.4816 48.8356 28.3501 49.1062C28.9647 49.298 29.5881 49.4158 30.2091 49.458C31.2467 47.4292 31.0041 44.5576 29.5553 42.1517C29.0373 41.2921 28.3772 40.5153 27.5918 39.8428C26.8486 39.2068 26.0193 38.6839 25.1277 38.2908C24.4732 38.0011 23.7979 37.7878 23.113 37.6517Z" fill="#0CB4C4"></path><path d="M13.0051 56.6635C12.602 56.6635 12.1997 56.638 11.8006 56.5863C11.526 56.5504 11.2898 56.3761 11.1756 56.1246C9.9392 53.3963 10.6201 49.6914 12.871 46.9066C14.1968 45.2639 16.0654 43.9809 18.1328 43.2948C19.3221 42.9001 20.549 42.7059 21.7686 42.7194C22.1358 42.7234 22.4535 42.9773 22.5373 43.3338C22.7744 44.343 22.9005 45.3482 22.9117 46.3224C22.9125 46.3742 22.9125 46.4331 22.9125 46.4912C22.9125 46.4919 22.9125 46.4919 22.9125 46.4927C22.9069 49.0834 22.1023 51.3986 20.5857 53.1878C20.0796 53.7831 19.4953 54.3188 18.8496 54.7796C17.1382 56.0029 15.0613 56.6635 13.0051 56.6635ZM12.4647 55.0534C14.3621 55.1847 16.3264 54.6244 17.9205 53.4855C18.4601 53.1002 18.947 52.6546 19.3676 52.1603C20.6376 50.6624 21.3113 48.7013 21.3168 46.4912C21.3168 46.4434 21.3168 46.3948 21.316 46.3471C21.3081 45.6857 21.241 45.0092 21.1157 44.3263C20.2832 44.3749 19.4522 44.5348 18.6381 44.8054C16.8581 45.396 15.2521 46.4967 14.1154 47.9047C12.349 50.091 11.7152 52.9021 12.4647 55.0534Z" fill="#0CB4C4"></path><path d="M50.0554 32.634H1.60582C1.16521 32.634 0.807617 32.2775 0.807617 31.8382V28.8376C0.807617 27.5873 1.82773 26.5693 3.08251 26.5693H48.5787C49.8327 26.5693 50.8536 27.5865 50.8536 28.8376V31.8382C50.8536 32.2775 50.496 32.634 50.0554 32.634ZM2.40403 31.0423H49.2572V28.8376C49.2572 28.4644 48.9531 28.1611 48.5787 28.1611H3.08251C2.70815 28.1611 2.40403 28.4644 2.40403 28.8376V31.0423Z" fill="#0CB4C4"></path><path d="M40.3644 28.161H11.2953C10.8547 28.161 10.4971 27.8044 10.4971 27.3651V22.9909C10.4971 21.5105 11.7048 20.3071 13.1886 20.3071H38.471C39.9557 20.3071 41.1626 21.5113 41.1626 22.9909V27.3651C41.1626 27.8044 40.8058 28.161 40.3644 28.161ZM12.0935 26.5692H39.5662V22.9909C39.5662 22.3884 39.0745 21.8989 38.471 21.8989H13.1886C12.5844 21.8989 12.0935 22.3892 12.0935 22.9909V26.5692Z" fill="#0CB4C4"></path><path d="M35.0249 21.899H16.5887C16.188 21.899 15.8496 21.6029 15.7977 21.2074L13.3759 2.93366C13.2777 2.19269 13.5052 1.44614 13.9985 0.884238C14.4926 0.322337 15.2054 0 15.9549 0H35.7058C36.4553 0 37.1681 0.322337 37.6622 0.884238C38.1563 1.44614 38.3829 2.19348 38.2848 2.93366L36.4353 16.8912L35.8654 21.1859C35.8295 21.4581 35.6555 21.6921 35.4048 21.8059L35.3553 21.8282C35.2516 21.8743 35.139 21.899 35.0249 21.899ZM17.2887 20.3072H34.372L34.8533 16.6819L36.7027 2.72434C36.741 2.43384 36.6556 2.15289 36.4625 1.93243C36.2685 1.71197 36.0003 1.59099 35.7066 1.59099H15.9549C15.6612 1.59099 15.393 1.71197 15.199 1.93243C15.0051 2.15289 14.9197 2.43384 14.9588 2.72434L17.2887 20.3072Z" fill="#0CB4C4"></path><path d="M35.0719 21.8991H35.0257C34.6497 21.8991 34.3248 21.6381 34.2458 21.272C34.166 20.9059 34.3536 20.5342 34.6952 20.379L34.7447 20.3567C35.0073 20.2373 35.313 20.2692 35.5461 20.4387C35.7792 20.6082 35.9021 20.8892 35.8678 21.1749L35.8654 21.1972C35.8167 21.5975 35.4758 21.8991 35.0719 21.8991Z" fill="#0CB4C4"></path><path d="M29.6881 21.8989H21.9718C21.7443 21.8989 21.528 21.8018 21.3763 21.633C21.2247 21.4643 21.1528 21.2383 21.1792 21.013L21.9558 14.2233C22.0548 13.3566 22.79 12.7031 23.6648 12.7031H27.9959C28.8707 12.7031 29.605 13.3566 29.7048 14.2233L30.4815 21.013C30.507 21.2383 30.4352 21.4643 30.2843 21.633C30.1335 21.8018 29.9155 21.8989 29.6881 21.8989ZM22.8666 20.3071H28.7933L28.118 14.404C28.1108 14.3419 28.0581 14.2949 27.9959 14.2949H23.6648C23.6017 14.2949 23.549 14.3419 23.5419 14.404L22.8666 20.3071Z" fill="#0CB4C4"></path><path d="M37.0234 5.58154H14.6377V7.17333H37.0234V5.58154Z" fill="#0CB4C4"></path><path d="M2.40403 31.8379H0.807617V39.9616H2.40403V31.8379Z" fill="#0CB4C4"></path><path d="M14.5163 31.8379H12.9199V39.9616H14.5163V31.8379Z" fill="#0CB4C4"></path><path d="M26.6286 31.8379H25.0322V37.562H26.6286V31.8379Z" fill="#0CB4C4"></path><path d="M38.7409 31.8379H37.1445V39.9616H38.7409V31.8379Z" fill="#0CB4C4"></path><path d="M50.8532 31.8379H49.2568V39.9616H50.8532V31.8379Z" fill="#0CB4C4"></path><path d="M35.0743 21.8768C34.9026 21.8768 34.7326 21.8219 34.5921 21.7152C34.3638 21.5425 34.2457 21.26 34.2832 20.9766L34.8532 16.6828C34.8899 16.4034 35.0727 16.1647 35.3329 16.0548L52.2062 8.91725C53.5855 8.33386 55.1723 8.44926 56.4518 9.22765L61.4566 12.2703C61.6865 12.4104 61.8302 12.6564 61.8389 12.9254C61.8469 13.1944 61.7192 13.4491 61.4981 13.6027L56.2547 17.251C56.0743 17.3768 55.85 17.4222 55.6345 17.3776C55.419 17.333 55.2322 17.2009 55.1172 17.0139L53.4131 14.237C53.3795 14.1821 53.3101 14.1606 53.251 14.1853L35.3903 21.8131C35.2874 21.8553 35.1804 21.8768 35.0743 21.8768ZM36.3753 17.3418L36.0497 19.7987L52.6212 12.7216C53.4035 12.3873 54.3294 12.681 54.774 13.4053L56.036 15.4611L59.5816 12.9938L55.6209 10.5854C54.7796 10.0745 53.7363 9.99807 52.8296 10.3817L36.3753 17.3418Z" fill="#0CB4C4"></path></svg>