<svg width="61" height="61" viewBox="0 0 61 61" fill="none" xmlns="http://www.w3.org/2000/svg"><path fill-rule="evenodd" clip-rule="evenodd" d="M22.0152 18.4002L21.5379 18.1242C21.5159 18.1115 21.4946 18.0975 21.4739 18.0835C20.9646 17.7655 20.6219 17.2789 20.4779 16.7409C20.3273 16.1802 20.392 15.5603 20.7059 15.0149L22.4652 11.9677C22.7819 11.4304 23.2832 11.0704 23.8379 10.9217C24.3945 10.7724 25.0105 10.835 25.5538 11.1444L25.5665 11.151V11.1497L26.0425 11.4244C26.0972 11.3917 26.1518 11.359 26.2078 11.327C26.2632 11.295 26.3178 11.2637 26.3711 11.2344V10.6824C26.3711 10.0537 26.6278 9.4844 27.0398 9.07107C27.4525 8.65841 28.0224 8.40242 28.6511 8.40242H32.1484C32.7777 8.40242 33.347 8.65908 33.7603 9.07107C34.173 9.4844 34.429 10.0537 34.429 10.6824V11.2364C34.4836 11.2657 34.5376 11.2964 34.591 11.3277L34.5936 11.329L34.595 11.3277C34.6496 11.3597 34.7043 11.3917 34.7583 11.4244L35.2349 11.149C35.7803 10.8344 36.4009 10.771 36.9629 10.9217C37.5256 11.0724 38.0322 11.4384 38.3462 11.9817C38.3555 11.999 38.3655 12.0163 38.3742 12.0343L40.0948 15.0149C40.4095 15.5596 40.4735 16.1796 40.3228 16.7402C40.1722 17.3029 39.8068 17.8095 39.2622 18.1235L38.7842 18.4002C38.7862 18.4635 38.7862 18.5275 38.7862 18.5915C38.7862 18.6549 38.7862 18.7189 38.7842 18.7822L39.2622 19.0575C39.8068 19.3715 40.1722 19.8775 40.3228 20.4408C40.4728 21.0015 40.4088 21.6215 40.0948 22.1661L38.3449 25.198H38.3469C38.0329 25.742 37.5262 26.108 36.9636 26.2587C36.4063 26.4087 35.7909 26.346 35.2483 26.0367L35.2349 26.03V26.0314L34.7583 25.7567C34.7036 25.79 34.649 25.822 34.593 25.8547C34.5376 25.8867 34.4836 25.9174 34.4296 25.9467V26.4987C34.4296 27.1273 34.1736 27.698 33.761 28.1106C33.3477 28.5233 32.7777 28.7793 32.149 28.7793H28.6518C28.0231 28.7793 27.4525 28.5226 27.0405 28.1106C26.6278 27.6973 26.3718 27.1273 26.3718 26.4987V25.9454C26.3178 25.916 26.2638 25.8854 26.2105 25.854L26.2078 25.8527L26.2065 25.854C26.1512 25.822 26.0972 25.79 26.0432 25.7574L25.5672 26.0314C25.5452 26.0447 25.5225 26.056 25.4992 26.0674C24.9705 26.3507 24.3772 26.404 23.8379 26.2593C23.2752 26.1087 22.7686 25.7427 22.4546 25.1994C22.4452 25.182 22.4359 25.1647 22.4272 25.1474L20.7059 22.1668C20.3913 21.6221 20.3273 21.0021 20.4779 20.4415C20.6286 19.8782 20.9946 19.3722 21.5379 19.0582L22.0159 18.7822C22.0146 18.7189 22.0139 18.6542 22.0139 18.5909C22.0139 18.5275 22.0139 18.4635 22.0152 18.4002ZM9.00754 8.87174L8.98488 8.91174L8.98021 8.91974C8.82355 9.2104 8.79088 9.54039 8.86821 9.84439C8.94888 10.1617 9.14954 10.4484 9.45353 10.6297H9.45487C9.75686 10.8097 10.1055 10.8497 10.4262 10.769C10.7435 10.6884 11.0302 10.487 11.2115 10.1837V10.1824C11.3922 9.88039 11.4315 9.53173 11.3508 9.21107C11.2702 8.89307 11.0695 8.60642 10.7655 8.42509L10.7255 8.40242V8.40375L10.7175 8.39842C10.4262 8.24176 10.0969 8.20976 9.79286 8.28642C9.47553 8.36642 9.18887 8.56842 9.00754 8.87174ZM7.05159 10.2977C6.86159 9.54573 6.94959 8.72108 7.35691 7.9911C7.37625 7.95043 7.39891 7.91043 7.42491 7.87177L7.42691 7.8731C7.87424 7.14711 8.57022 6.66379 9.33887 6.4698C10.0909 6.2798 10.9155 6.3678 11.6448 6.77579C11.6855 6.79446 11.7255 6.81779 11.7648 6.84312L11.7635 6.84512C12.4895 7.29245 12.9721 7.98843 13.1661 8.75641C13.3634 9.53573 13.2621 10.3924 12.8148 11.1424C12.3681 11.8903 11.6615 12.387 10.8788 12.5843C10.1002 12.781 9.24287 12.6803 8.49356 12.2323C7.74491 11.7863 7.24825 11.0797 7.05092 10.297L7.05159 10.2977ZM8.42422 49.9601L8.40156 50.0001H8.40289L8.39756 50.0081C8.24089 50.2988 8.2089 50.6288 8.28556 50.9328C8.36623 51.2501 8.56755 51.5368 8.87155 51.7181C9.17354 51.8981 9.5222 51.9381 9.84286 51.8574C10.1609 51.7768 10.4475 51.5761 10.6282 51.2721V51.2708C10.8088 50.9688 10.8488 50.6201 10.7675 50.2995C10.6875 49.9815 10.4862 49.6948 10.1822 49.5135L10.1422 49.4908V49.4921L10.1342 49.4868C9.84352 49.3302 9.51353 49.2982 9.21021 49.3748C8.89221 49.4555 8.60555 49.6568 8.42422 49.9601ZM6.46893 51.3861C6.27894 50.6341 6.36694 49.8095 6.77426 49.0795C6.79359 49.0395 6.81693 48.9988 6.84226 48.9608H6.84426C7.29158 48.2355 7.98757 47.7529 8.75622 47.5582C9.5082 47.3682 10.3328 47.4562 11.0628 47.8642C11.1035 47.8835 11.1435 47.9062 11.1822 47.9315L11.1808 47.9335C11.9075 48.3808 12.3895 49.0768 12.5841 49.8455C12.7808 50.6241 12.6795 51.4814 12.2328 52.2308C11.7861 52.9787 11.0795 53.4754 10.2975 53.6727C9.5182 53.8701 8.66088 53.7687 7.91157 53.3214C7.16359 52.8754 6.66626 52.1688 6.46893 51.3861ZM49.5293 50.5588L49.5026 50.5988H49.508L49.5026 50.6068C49.344 50.8974 49.312 51.2274 49.386 51.5314C49.4706 51.8494 49.672 52.1354 49.9739 52.3167C50.2759 52.4967 50.6253 52.5367 50.9433 52.4561C51.2612 52.3761 51.5526 52.1741 51.7326 51.8708C51.9126 51.5681 51.9499 51.2194 51.8706 50.8988C51.7912 50.5808 51.5899 50.2941 51.2879 50.1128L51.2459 50.0901V50.0915L51.2406 50.0861C50.9493 49.9295 50.6159 49.8975 50.3139 49.9748C49.9959 50.0555 49.7106 50.2561 49.53 50.5601L49.5293 50.5588ZM47.57 51.9848C47.3793 51.2328 47.4693 50.4081 47.8773 49.6788C47.8987 49.6381 47.9193 49.5981 47.946 49.5595C48.396 48.8348 49.09 48.3515 49.8573 48.1575C50.6093 47.9682 51.4352 48.0562 52.1659 48.4635C52.2032 48.4828 52.2452 48.5055 52.2826 48.5315V48.5328C53.0079 48.9802 53.4899 49.6761 53.6859 50.4448C53.8819 51.2234 53.7812 52.0808 53.3365 52.8301C52.8865 53.5787 52.1819 54.0754 51.3986 54.2727C50.6199 54.47 49.7626 54.3687 49.016 53.922V53.9207C48.264 53.4747 47.7713 52.7674 47.57 51.9848ZM50.1119 9.43973L50.0853 9.47906H50.0906L50.0853 9.48773C49.9266 9.77839 49.8946 10.1084 49.9739 10.4117C50.0533 10.729 50.2546 11.0164 50.5566 11.1977C50.8586 11.3777 51.2079 11.4177 51.5312 11.337C51.8492 11.2564 52.1346 11.0544 52.3152 10.7517C52.4952 10.4497 52.5372 10.1004 52.4532 9.77972C52.3739 9.4624 52.1726 9.17507 51.8706 8.99374L51.8279 8.97107L51.8226 8.96707C51.5312 8.81041 51.1979 8.77774 50.8959 8.85441C50.5779 8.93507 50.2926 9.1364 50.1119 9.4404V9.43973ZM48.1527 10.8657C47.9673 10.1137 48.052 9.28907 48.46 8.55908C48.4813 8.51842 48.502 8.47842 48.5286 8.44042C48.9786 7.7151 49.6726 7.23245 50.4399 7.03778C51.1919 6.84779 52.0179 6.93579 52.7485 7.34311C52.7912 7.36244 52.8279 7.38578 52.8652 7.41111V7.41311C53.5905 7.85977 54.0779 8.55642 54.2685 9.3244C54.4645 10.1037 54.3638 10.9604 53.9192 11.7097V11.711C53.4745 12.459 52.7645 12.955 51.9812 13.153C51.2026 13.3503 50.3446 13.2483 49.598 12.8017C48.8513 12.3557 48.354 11.6483 48.1527 10.8657ZM18.5233 52.8201L13.5548 53.2827C13.0408 53.3294 12.6628 53.7841 12.7088 54.2974C12.7181 54.4027 12.7448 54.5027 12.7855 54.594L14.7894 59.0859C15.0001 59.5573 15.5527 59.7686 16.0241 59.5586C16.4954 59.3486 16.7067 58.7953 16.496 58.3239L15.7241 56.5933C20.5153 59.2699 25.7445 60.4926 30.887 60.3939C36.4836 60.2859 41.9788 58.6139 46.698 55.5493C47.13 55.2687 47.2513 54.6894 46.9733 54.2567C46.692 53.8234 46.1134 53.7007 45.68 53.982C41.2535 56.8566 36.1023 58.4253 30.8584 58.5266C25.9845 58.6206 21.0299 57.4486 16.4994 54.8854L18.6913 54.6814C19.2053 54.6347 19.584 54.1807 19.5373 53.6667C19.4906 53.1534 19.036 52.7741 18.5227 52.8207L18.5233 52.8201ZM44.3361 2.45722L45.1201 4.29785C40.2902 1.56058 35.009 0.307937 29.8137 0.404602C24.2245 0.508599 18.7353 2.17256 14.0174 5.22583C13.5848 5.50715 13.4614 6.08581 13.7428 6.51913C14.0248 6.95179 14.6034 7.07445 15.0361 6.79379C19.46 3.92985 24.6052 2.36989 29.8431 2.27256C34.7396 2.18189 39.7175 3.36853 44.2641 5.96114L42.1768 6.11981C41.6608 6.1578 41.2748 6.60779 41.3128 7.12312C41.3515 7.6391 41.8008 8.02576 42.3161 7.9871L47.22 7.61577V7.61444L47.2307 7.6131C47.326 7.60444 47.4267 7.58111 47.5167 7.54177C47.9933 7.33978 48.2153 6.79046 48.0093 6.31513L46.0574 1.72391C45.8547 1.24858 45.3061 1.02725 44.8301 1.22992C44.3554 1.43258 44.1334 1.98123 44.3354 2.45655L44.3361 2.45722ZM2.45703 16.3876L4.29765 15.6036C1.56905 20.4195 0.315741 25.6847 0.403739 30.8666C0.49907 36.4418 2.14503 41.9183 5.1743 46.6295C5.45362 47.0642 6.03294 47.1909 6.4676 46.9115C6.90226 46.6322 7.02892 46.0529 6.74959 45.6182C3.90566 41.1963 2.36103 36.0611 2.27236 30.8372C2.18903 25.9547 3.37634 20.9928 5.96161 16.4596L6.12028 18.5462C6.15894 19.0622 6.60827 19.4488 7.12359 19.4102C7.63958 19.3715 8.02623 18.9228 7.98757 18.4069L7.61624 13.5023H7.61491V13.493C7.60624 13.3963 7.58224 13.2996 7.54291 13.2063C7.34091 12.731 6.79159 12.5097 6.31627 12.7117L1.72504 14.6663C1.24972 14.8683 1.02839 15.4176 1.23039 15.8936C1.43305 16.3682 1.98237 16.5902 2.45703 16.3876ZM52.8179 42.2017L53.2785 47.1695C53.3259 47.6829 53.7812 48.0615 54.2952 48.0149C54.4012 48.0055 54.5018 47.9788 54.5918 47.9382L59.0824 45.9342C59.5537 45.7242 59.7657 45.1709 59.5537 44.6996C59.3471 44.2283 58.7911 44.0169 58.3198 44.2269L56.6198 44.9849C59.2937 40.1817 60.507 34.9398 60.3904 29.7873C60.2684 24.1654 58.5631 18.6482 55.4552 13.9203C55.1745 13.489 54.5972 13.3696 54.1632 13.653C53.7345 13.9363 53.6125 14.5149 53.8985 14.9456C56.8111 19.3788 58.4104 24.5521 58.5271 29.8233C58.6331 34.7218 57.4624 39.705 54.8838 44.2603L54.6772 42.0317C54.6345 41.5183 54.1792 41.1397 53.6659 41.1863C53.1519 41.233 52.7705 41.687 52.8185 42.201L52.8179 42.2017ZM42.6228 35.4978C42.1988 35.0731 41.6421 34.8612 41.0861 34.8612C40.5302 34.8612 39.9735 35.0738 39.5495 35.4978C39.1255 35.9218 38.9129 36.4784 38.9129 37.0344C38.9129 37.5904 39.1255 38.1464 39.5495 38.5711C39.9735 38.9951 40.5302 39.2071 41.0861 39.2071C41.6421 39.2071 42.1988 38.9951 42.6228 38.5711C43.0468 38.1464 43.2594 37.5904 43.2594 37.0344C43.2594 36.4784 43.0468 35.9218 42.6228 35.4978ZM41.0861 32.9859C42.1228 32.9859 43.1581 33.3812 43.9487 34.1718C44.7394 34.9625 45.1347 35.9985 45.1347 37.0344C45.1347 38.0704 44.7387 39.1057 43.9487 39.8964C43.1581 40.687 42.1221 41.0823 41.0861 41.0823C40.0502 41.0823 39.0142 40.687 38.2235 39.8964C37.4336 39.1057 37.0376 38.0704 37.0376 37.0344C37.0376 35.9985 37.4329 34.9625 38.2235 34.1718C39.0142 33.3812 40.0508 32.9859 41.0861 32.9859ZM21.2506 35.4978C20.8259 35.0731 20.27 34.8612 19.714 34.8612C19.158 34.8612 18.6013 35.0738 18.1773 35.4978C17.7527 35.9218 17.5407 36.4784 17.5407 37.0344C17.5407 37.5904 17.7527 38.1464 18.1773 38.5711C18.6013 38.9951 19.1573 39.2071 19.714 39.2071C20.2706 39.2071 20.8259 38.9951 21.2506 38.5711C21.6746 38.1464 21.8866 37.5904 21.8866 37.0344C21.8866 36.4784 21.6746 35.9218 21.2506 35.4978ZM19.714 32.9859C20.7499 32.9859 21.7859 33.3812 22.5766 34.1718C23.3672 34.9625 23.7625 35.9985 23.7625 37.0344C23.7625 38.0704 23.3672 39.1057 22.5766 39.8964C21.7859 40.687 20.7499 41.0823 19.714 41.0823C18.678 41.0823 17.642 40.687 16.8514 39.8964C16.0607 39.1057 15.6654 38.0704 15.6654 37.0344C15.6654 35.9985 16.06 34.9625 16.8514 34.1718C17.642 33.3812 18.678 32.9859 19.714 32.9859ZM31.9364 17.0549C31.5124 16.6302 30.9564 16.4182 30.3997 16.4182C29.8431 16.4182 29.2871 16.6302 28.8631 17.0549C28.4391 17.4789 28.2271 18.0349 28.2271 18.5909C28.2271 19.1468 28.4391 19.7035 28.8631 20.1275C29.2871 20.5521 29.8437 20.7641 30.3997 20.7641C30.9557 20.7641 31.5124 20.5521 31.9364 20.1275C32.3603 19.7035 32.573 19.1475 32.573 18.5909C32.573 18.0342 32.3603 17.4789 31.9364 17.0549ZM33.2623 15.7289C32.4717 14.9383 31.4357 14.5429 30.3997 14.5429C29.3637 14.5429 28.3278 14.9383 27.5378 15.7289C26.7471 16.5196 26.3518 17.5555 26.3518 18.5909C26.3518 19.6262 26.7478 20.6628 27.5378 21.4535C28.3278 22.2441 29.3644 22.6394 30.3997 22.6394C31.435 22.6394 32.4717 22.2441 33.2623 21.4535C34.053 20.6628 34.4483 19.6268 34.4483 18.5909C34.4483 17.5549 34.053 16.5196 33.2623 15.7289ZM32.7017 36.8431C32.6997 36.9058 32.6997 36.9698 32.6997 37.0331C32.6997 37.0978 32.701 37.1611 32.7023 37.2251L32.2243 37.5011L32.2257 37.5024C31.6804 37.8177 31.3144 38.3237 31.1637 38.8837C31.0137 39.4444 31.0777 40.0644 31.3924 40.6097L33.0983 43.5643C33.1183 43.6089 33.1423 43.6516 33.1703 43.6943V43.6929C33.487 44.2096 33.979 44.5563 34.5243 44.7029C35.0516 44.8443 35.6316 44.7956 36.1523 44.5276C36.2049 44.5056 36.2556 44.4776 36.3049 44.4449L36.7309 44.1983L36.8422 44.2649C36.8589 44.2763 36.8749 44.2863 36.8922 44.2963C36.9469 44.3283 37.0016 44.3589 37.0582 44.3896V44.9416C37.0582 45.5702 37.3142 46.1402 37.7269 46.5529C38.1395 46.9662 38.7095 47.2215 39.3382 47.2215H42.8354C43.4641 47.2215 44.0347 46.9655 44.4467 46.5529C44.8601 46.1402 45.1154 45.5702 45.1154 44.9416V44.3896C45.1687 44.3596 45.2234 44.3289 45.2781 44.2969C45.334 44.2649 45.3894 44.2323 45.444 44.1996L45.92 44.4743V44.4729L45.934 44.4803C46.476 44.7896 47.092 44.8516 47.65 44.7023C48.2113 44.5516 48.72 44.1856 49.032 43.6423V43.6409L50.7793 40.609C51.0973 40.0644 51.1606 39.4437 51.0073 38.8831C50.8639 38.3451 50.5199 37.8584 50.0119 37.5404C49.9906 37.5258 49.9699 37.5124 49.9486 37.4998L49.472 37.2238V36.8411L49.9486 36.5651C50.4939 36.2511 50.8593 35.7451 51.0079 35.1818C51.1613 34.6212 51.0979 34.0012 50.7799 33.4565L49.0586 30.4766C49.0533 30.4593 49.0426 30.4419 49.032 30.4246C48.7193 29.8806 48.2113 29.5153 47.65 29.3646C47.11 29.2199 46.5167 29.2733 45.988 29.5566C45.9647 29.5679 45.942 29.5793 45.92 29.5926L45.4447 29.8666C45.39 29.8339 45.3354 29.8013 45.2814 29.7699L45.2801 29.7719L45.2774 29.7699C45.2234 29.7386 45.1694 29.7086 45.1154 29.6786V29.1253C45.1154 28.4966 44.8594 27.926 44.4467 27.5133C44.0341 27.1007 43.4641 26.8453 42.8354 26.8453H39.3382C38.7095 26.8453 38.1389 27.1013 37.7269 27.5133C37.3136 27.9266 37.0582 28.4966 37.0582 29.1253V29.6766C37.0049 29.7066 36.9502 29.7373 36.8949 29.7686C36.8389 29.8013 36.7836 29.8333 36.7296 29.8666L36.2536 29.5919V29.5939L36.2403 29.5866C35.6983 29.2766 35.0823 29.2146 34.525 29.3639C33.9623 29.5146 33.4557 29.8806 33.1417 30.4239H33.143L31.3924 33.4565C31.0777 34.0012 31.0137 34.6212 31.1637 35.1818C31.315 35.7451 31.6804 36.2511 32.2243 36.5651L32.7023 36.8411L32.7017 36.8431ZM33.161 34.9485L34.1356 35.5111C34.4416 35.6891 34.633 36.0331 34.5976 36.4084C34.5776 36.6204 34.5676 36.8291 34.5676 37.0331C34.5676 37.2238 34.577 37.4178 34.595 37.6138C34.647 37.9804 34.4776 38.3597 34.1376 38.5564L33.1617 39.1197V39.1184L33.1583 39.1197C33.0643 39.1737 33.0003 39.2644 32.973 39.3677C32.9457 39.4717 32.9557 39.5837 33.011 39.6797L34.715 42.6316L34.7303 42.6536L34.7283 42.655L34.7296 42.657C34.7403 42.673 34.7503 42.689 34.7596 42.705C34.8156 42.801 34.9056 42.8663 35.0076 42.8936C35.1016 42.9183 35.2016 42.913 35.2909 42.871L35.3156 42.8563L36.2909 42.293C36.5989 42.1157 36.9936 42.121 37.3016 42.3403C37.4636 42.455 37.6236 42.5596 37.7802 42.6523C37.7969 42.6603 37.8129 42.6696 37.8289 42.6783C37.9922 42.7723 38.1542 42.8576 38.3135 42.933C38.6742 43.0636 38.9322 43.4096 38.9322 43.8149V44.9416C38.9322 45.0523 38.9775 45.1542 39.0515 45.2276C39.1249 45.3009 39.2262 45.3469 39.3369 45.3469H42.8341C42.9448 45.3469 43.0468 45.3009 43.1201 45.2276C43.1934 45.1542 43.2394 45.0523 43.2394 44.9416V43.8256C43.2354 43.4656 43.4401 43.1196 43.7894 42.9616C44.0034 42.8636 44.1901 42.7696 44.3481 42.6783C44.5101 42.585 44.6761 42.4783 44.8454 42.359C45.1374 42.1363 45.5454 42.097 45.882 42.293L46.8567 42.8556V42.857C46.9507 42.9103 47.0613 42.9203 47.1667 42.893C47.2673 42.8663 47.3573 42.801 47.4107 42.7043L47.416 42.7056L49.1633 39.679C49.2166 39.583 49.2266 39.471 49.2006 39.367C49.174 39.2737 49.1213 39.1904 49.042 39.1357L49.01 39.1191L48.0353 38.5564C47.728 38.3784 47.5373 38.0344 47.5747 37.6591C47.596 37.4471 47.6067 37.2384 47.6067 37.0344C47.6067 36.8438 47.596 36.6498 47.5747 36.4531C47.5267 36.0858 47.6967 35.7078 48.0353 35.5111L49.01 34.9478C49.1053 34.8918 49.174 34.8012 49.2006 34.6998C49.2273 34.5952 49.2166 34.4838 49.1633 34.3878L47.442 31.4099C47.4313 31.3946 47.4207 31.3779 47.4107 31.3626C47.3573 31.2666 47.2673 31.2012 47.1667 31.1732C47.0707 31.1486 46.97 31.1539 46.8807 31.1966L46.856 31.2112L45.88 31.7746C45.5727 31.9519 45.1774 31.9459 44.8694 31.7266C44.7021 31.6072 44.5261 31.4946 44.3421 31.3879L44.3434 31.3859C44.1874 31.2966 44.0261 31.2119 43.8581 31.1326C43.4974 31.0026 43.2388 30.6566 43.2388 30.2506V29.1239C43.2388 29.0126 43.1934 28.9113 43.1194 28.838C43.0454 28.7646 42.9448 28.7193 42.8334 28.7193H39.3362C39.2255 28.7193 39.1242 28.7646 39.0509 28.838C38.9769 28.912 38.9315 29.0126 38.9315 29.1239V30.2399C38.9355 30.5992 38.7309 30.9452 38.3822 31.1039C38.1675 31.2012 37.9816 31.2959 37.8236 31.3866C37.6609 31.4806 37.4949 31.5866 37.3256 31.7059C37.0342 31.9286 36.6256 31.9672 36.2889 31.7719L35.3143 31.2092V31.2072C35.2203 31.1532 35.1089 31.1432 35.0063 31.1706C34.905 31.1979 34.8143 31.2632 34.7583 31.3599H34.757L33.0097 34.3852C32.9543 34.4805 32.9443 34.5925 32.9717 34.6972C32.9983 34.7985 33.0637 34.8885 33.1603 34.9451L33.161 34.9485ZM11.3288 36.8431C11.3275 36.9058 11.3268 36.9698 11.3268 37.0331C11.3268 37.0978 11.3268 37.1611 11.3288 37.2251L10.8508 37.5011C10.3068 37.8151 9.94152 38.3217 9.79086 38.8844C9.6402 39.445 9.70486 40.065 10.0189 40.6104L11.7395 43.5903C11.7488 43.6076 11.7581 43.6249 11.7675 43.6429C12.0815 44.1869 12.5881 44.5523 13.1508 44.7029C13.6901 44.8476 14.2828 44.7936 14.8121 44.5103C14.8347 44.4996 14.8574 44.4876 14.8807 44.4749L15.3574 44.1989L15.4687 44.2656C15.4854 44.2769 15.5021 44.2869 15.5194 44.2969C15.5747 44.3296 15.6314 44.3609 15.6881 44.3923V44.9423H15.6847C15.6847 45.5709 15.9407 46.1409 16.3534 46.5536C16.766 46.9662 17.3367 47.2222 17.9653 47.2222H21.4626C22.0912 47.2222 22.6612 46.9662 23.0739 46.5536C23.4865 46.1409 23.7419 45.5709 23.7419 44.9423H23.7385V44.3923C23.7932 44.3616 23.8485 44.3303 23.9052 44.2976C23.9605 44.2656 24.0165 44.2329 24.0705 44.2003L24.5465 44.4749V44.4736L24.5505 44.4749C25.0952 44.7896 25.7152 44.8536 26.2758 44.7029C26.8145 44.5583 27.3011 44.2183 27.6171 43.7123L27.6298 43.6936H27.6285L27.6585 43.6429L27.6571 43.6416L29.4071 40.6097C29.7217 40.065 29.7857 39.4444 29.6351 38.8837C29.4911 38.3457 29.1484 37.8591 28.6391 37.5411C28.6184 37.5264 28.5971 37.5131 28.5751 37.5004L28.0971 37.2244C28.0984 37.1611 28.0984 37.0971 28.0984 37.0338C28.0984 36.9698 28.0984 36.9058 28.0964 36.8424L28.5744 36.5664L28.5731 36.5651C29.1184 36.2491 29.4837 35.7438 29.6344 35.1831C29.7851 34.6225 29.7211 34.0025 29.4064 33.4579L27.6725 30.4533C27.6611 30.4333 27.6498 30.4133 27.6371 30.3939C27.3205 29.8659 26.8245 29.5119 26.2751 29.3646C25.7358 29.2199 25.1425 29.2733 24.6132 29.5573C24.5905 29.5679 24.5685 29.5799 24.5459 29.5926L24.0692 29.8679L23.9579 29.8019C23.9412 29.7906 23.9245 29.7799 23.9072 29.7699C23.8519 29.7379 23.7952 29.7066 23.7379 29.6753V29.1259H23.7412C23.7412 28.4973 23.4852 27.9266 23.0732 27.514C22.6606 27.1013 22.0906 26.846 21.4619 26.846H17.9647C17.336 26.846 16.7654 27.102 16.3527 27.514C15.9401 27.9273 15.6841 28.4973 15.6841 29.1259V29.6773C15.6307 29.7073 15.5767 29.7379 15.5207 29.7693C15.4654 29.8019 15.4094 29.8339 15.3554 29.8673L14.8794 29.5926V29.5946L14.8754 29.5926C14.3314 29.2779 13.7108 29.2139 13.1501 29.3646C12.6115 29.5086 12.1248 29.8499 11.8095 30.3546L11.7961 30.3733V30.3746L11.7668 30.4246H11.7688L10.0182 33.4572C9.70353 34.0018 9.63953 34.6218 9.79019 35.1825C9.94086 35.7458 10.3068 36.2518 10.8502 36.5658L11.3282 36.8418L11.3288 36.8431ZM11.7888 34.9485L12.7628 35.5111C13.0681 35.6891 13.2601 36.0331 13.2248 36.4084C13.2048 36.6204 13.1948 36.8291 13.1948 37.0331C13.1948 37.2238 13.2041 37.4178 13.2221 37.6144C13.2741 37.9811 13.1048 38.3597 12.7648 38.5564L11.7895 39.1197C11.6928 39.1751 11.6282 39.2664 11.6002 39.3677C11.5728 39.4717 11.5828 39.5837 11.6382 39.6797L13.3568 42.657C13.3674 42.673 13.3768 42.689 13.3868 42.705C13.4421 42.801 13.5334 42.8663 13.6348 42.8936C13.7288 42.9183 13.8288 42.913 13.9188 42.8703L13.9428 42.8563L14.9181 42.293C15.2254 42.1157 15.6214 42.121 15.9287 42.3403C16.0914 42.455 16.2507 42.5596 16.4074 42.6523C16.424 42.6603 16.44 42.6696 16.456 42.6783C16.6434 42.7863 16.828 42.8823 17.01 42.965C17.332 43.1123 17.556 43.4376 17.556 43.8149V44.9416H17.5593C17.5593 45.0523 17.6053 45.1542 17.6793 45.2276C17.7533 45.3009 17.854 45.3469 17.9653 45.3469H21.4626C21.5733 45.3469 21.6746 45.3009 21.7479 45.2276C21.8213 45.1542 21.8673 45.0523 21.8673 44.9416H21.8713V43.8983C21.8366 43.513 22.0452 43.1303 22.4172 42.9616C22.6319 42.8636 22.8186 42.7696 22.9759 42.6783C23.1386 42.585 23.3039 42.4783 23.4732 42.359C23.7652 42.1363 24.1732 42.097 24.5105 42.293L25.4278 42.8223C25.4605 42.8383 25.4925 42.857 25.5238 42.877C25.6098 42.913 25.7045 42.917 25.7932 42.8936C25.8832 42.8696 25.9652 42.815 26.0212 42.735C26.0358 42.7076 26.0518 42.6796 26.0698 42.6536L26.0712 42.655L27.7891 39.6804C27.8444 39.5844 27.8544 39.4724 27.8271 39.3684C27.8018 39.275 27.7465 39.1917 27.6671 39.1371L27.6378 39.1204L26.6638 38.5577C26.3578 38.3797 26.1665 38.0357 26.2012 37.6604C26.2218 37.4484 26.2312 37.2398 26.2312 37.0351C26.2312 36.8451 26.2218 36.6504 26.2045 36.4544C26.1518 36.0878 26.3218 35.7091 26.6618 35.5125L27.6378 34.9491L27.6391 34.9505L27.6418 34.9491C27.7358 34.8952 27.7991 34.8038 27.8271 34.7012C27.8544 34.5965 27.8444 34.4845 27.7891 34.3892L26.0405 31.3599C25.9865 31.2659 25.8952 31.2019 25.7925 31.1746C25.6985 31.1499 25.5978 31.1552 25.5092 31.1979L25.4845 31.2126L24.5092 31.7759C24.2012 31.9532 23.8065 31.9472 23.4985 31.7279C23.3365 31.6126 23.1766 31.5079 23.0199 31.4159C23.0039 31.4072 22.9872 31.3992 22.9712 31.3892C22.7839 31.2812 22.5986 31.1852 22.4172 31.1026C22.0952 30.9552 21.8713 30.6299 21.8713 30.2533V29.1266H21.8673C21.8673 29.0153 21.8219 28.914 21.7479 28.8406C21.6739 28.7673 21.5733 28.722 21.4626 28.722H17.9653C17.854 28.722 17.7527 28.7673 17.6793 28.8406C17.606 28.9146 17.56 29.0153 17.56 29.1266V30.2426C17.564 30.6019 17.3594 30.9479 17.01 31.1066C16.796 31.2039 16.6094 31.2986 16.4514 31.3892C16.2894 31.4832 16.1227 31.5892 15.9541 31.7086C15.6621 31.9312 15.2541 31.9699 14.9167 31.7746L13.9994 31.2446C13.9668 31.2286 13.9348 31.2106 13.9034 31.1906C13.8181 31.1539 13.7228 31.1499 13.6341 31.1732C13.5441 31.1979 13.4621 31.2519 13.4061 31.3319C13.3914 31.3599 13.3748 31.3872 13.3574 31.4139L13.3554 31.4126L11.6375 34.3878C11.5822 34.4838 11.5722 34.5952 11.5995 34.6998C11.6268 34.8012 11.6921 34.8918 11.7888 34.9485ZM22.4752 16.5049L23.4499 17.0676C23.7559 17.2456 23.9472 17.5895 23.9125 17.9649C23.8919 18.1769 23.8819 18.3855 23.8825 18.5902C23.8825 18.7808 23.8919 18.9748 23.9092 19.1708C23.9619 19.5375 23.7925 19.9168 23.4519 20.1128L22.4766 20.6768C22.3799 20.7328 22.3152 20.8228 22.2879 20.9241C22.2599 21.0281 22.2706 21.1408 22.3252 21.2368L24.0439 24.2141C24.0539 24.2301 24.0639 24.2461 24.0739 24.2621C24.1292 24.3581 24.2205 24.4234 24.3219 24.4507C24.4159 24.4754 24.5159 24.4701 24.6052 24.4274L24.6299 24.4127L25.6052 23.8494C25.9125 23.6721 26.3085 23.6781 26.6158 23.8974C26.7831 24.0167 26.9591 24.1294 27.1431 24.2361V24.2374C27.2978 24.3267 27.4598 24.4114 27.6271 24.4907C27.9884 24.6207 28.2464 24.9667 28.2464 25.3727V26.4987C28.2464 26.61 28.2924 26.7113 28.3658 26.7847C28.4398 26.858 28.5404 26.904 28.6511 26.904H32.1484C32.2597 26.904 32.361 26.858 32.4343 26.7847C32.5077 26.7113 32.5537 26.61 32.5537 26.4987V25.3834C32.5503 25.0234 32.7543 24.6774 33.1037 24.5187C33.3183 24.4214 33.5043 24.3267 33.6623 24.2361C33.825 24.1421 33.9903 24.0361 34.1596 23.9167C34.4516 23.6941 34.8596 23.6554 35.1969 23.8507L36.1716 24.4134V24.4154C36.2656 24.4694 36.3769 24.4794 36.4796 24.4521C36.5809 24.4254 36.6709 24.3594 36.7276 24.2634H36.7296L38.4769 21.2381C38.5322 21.1421 38.5422 21.0301 38.5142 20.9255C38.4875 20.8241 38.4222 20.7335 38.3255 20.6781L37.3509 20.1155C37.0449 19.9375 36.8529 19.5935 36.8889 19.2182C36.9089 19.0062 36.9189 18.7975 36.9189 18.5935C36.9189 18.4029 36.9096 18.2089 36.8922 18.0129C36.8396 17.6455 37.0089 17.2669 37.3496 17.0702L38.3249 16.5069C38.4215 16.4516 38.4862 16.3609 38.5135 16.2589C38.5415 16.1556 38.5309 16.0429 38.4762 15.9469L36.7569 12.9696C36.7462 12.9536 36.7362 12.9377 36.7276 12.9217C36.6716 12.8257 36.5809 12.7603 36.4796 12.733C36.3776 12.7057 36.2663 12.7157 36.1716 12.771L35.1956 13.3343C34.8883 13.5123 34.493 13.5063 34.185 13.287C34.0183 13.1683 33.8416 13.055 33.6583 12.9483L33.6596 12.947C33.503 12.8577 33.3417 12.773 33.1743 12.6937C32.813 12.5637 32.5543 12.2177 32.5543 11.8117V10.685C32.5543 10.5744 32.509 10.473 32.435 10.3997C32.3617 10.3264 32.2603 10.2797 32.149 10.2797H28.6518C28.5411 10.2797 28.4398 10.3257 28.3664 10.3997C28.2931 10.473 28.2471 10.5744 28.2471 10.685V11.801C28.2511 12.161 28.0471 12.507 27.6978 12.6657C27.4831 12.763 27.2971 12.8577 27.1391 12.9483C26.9765 13.0416 26.8105 13.1483 26.6411 13.2676C26.3498 13.491 25.9412 13.5296 25.6045 13.3343L24.6299 12.7717V12.7703C24.5352 12.7163 24.4245 12.7063 24.3219 12.7337C24.2192 12.761 24.1279 12.825 24.0739 12.9183L22.3252 15.9476C22.2699 16.0436 22.2599 16.1556 22.2879 16.2596C22.3119 16.3529 22.3672 16.4362 22.4472 16.4916L22.4766 16.5076L22.4752 16.5049Z" fill="#0CB4C4"></path></svg>