<svg width="58" height="62" aria-labelledby="svgTitle" viewBox="0 0 58 62" fill="none" xmlns="http://www.w3.org/2000/svg"><title id="svgTitle">Managed NOC Services</title><path d="M11.7365 37.9721C11.6709 38.4092 11.2908 38.7267 10.8581 38.7267C10.8136 38.7267 10.7716 38.7241 10.727 38.7163C8.92837 38.4509 7.3159 38.097 5.93675 37.6625C5.47004 37.5142 5.21049 37.0173 5.35991 36.5542C5.50937 36.091 6.00753 35.8335 6.47689 35.9818C7.76691 36.3876 9.285 36.7207 10.9893 36.9731C11.4744 37.0433 11.81 37.4934 11.7392 37.9747L11.7365 37.9721ZM5.93675 26.8703C7.31591 27.3048 8.92838 27.6612 10.727 27.924C10.7716 27.9318 10.8162 27.9344 10.8581 27.9344C11.2908 27.9344 11.6709 27.6196 11.7365 27.1799C11.8073 26.6985 11.4717 26.2484 10.9866 26.1782C9.28232 25.9284 7.76422 25.5954 6.4742 25.1869C6.00487 25.0386 5.50671 25.2962 5.35723 25.7593C5.20777 26.2224 5.46735 26.7193 5.93406 26.8677L5.93675 26.8703ZM25.5357 27.9344C25.5803 27.9344 25.6222 27.9318 25.6668 27.924C27.4654 27.6586 29.0779 27.3048 30.4571 26.8703C30.9238 26.722 31.1833 26.2251 31.0339 25.7619C30.8845 25.2988 30.3863 25.0413 29.9169 25.1895C28.6269 25.5954 27.1088 25.9285 25.4045 26.1808C24.9195 26.2511 24.5838 26.7012 24.6546 27.1825C24.7202 27.6196 25.1004 27.937 25.533 27.937L25.5357 27.9344ZM25.5357 17.1449C25.5803 17.1449 25.6222 17.1423 25.6668 17.1345C27.4654 16.8691 29.0779 16.5153 30.4571 16.0808C30.9238 15.9325 31.1833 15.4356 31.0339 14.9724C30.8845 14.5093 30.3863 14.2518 29.9169 14.4C28.6269 14.8059 27.1088 15.139 25.4045 15.3913C24.9195 15.4616 24.5838 15.9117 24.6546 16.393C24.7202 16.8301 25.1004 17.1475 25.533 17.1475L25.5357 17.1449ZM5.93675 16.0808C7.31591 16.5153 8.92838 16.8717 10.727 17.1345C10.7716 17.1423 10.8162 17.1449 10.8581 17.1449C11.2908 17.1449 11.6709 16.8301 11.7365 16.3904C11.8073 15.909 11.4717 15.459 10.9866 15.3887C9.28232 15.1389 7.76422 14.8059 6.4742 14.3974C6.00487 14.2491 5.50671 14.5067 5.35723 14.9698C5.20777 15.4329 5.46735 15.9298 5.93406 16.0782L5.93675 16.0808ZM15.0929 16.7703C15.0929 15.0713 16.4851 13.6897 18.1972 13.6897C19.9094 13.6897 21.3016 15.0713 21.3016 16.7703C21.3016 18.4693 19.9094 19.8508 18.1972 19.8508C16.4851 19.8508 15.0929 18.4693 15.0929 16.7703ZM16.8705 16.7703C16.8705 17.4961 17.4657 18.0868 18.1972 18.0868C18.9288 18.0868 19.524 17.4962 19.524 16.7703C19.524 16.0444 18.9288 15.4537 18.1972 15.4537C17.4657 15.4537 16.8705 16.0443 16.8705 16.7703ZM15.0929 27.5598C15.0929 25.8608 16.4851 24.4792 18.1972 24.4792C19.9094 24.4792 21.3016 25.8608 21.3016 27.5598C21.3016 29.2588 19.9094 30.6403 18.1972 30.6403C16.4851 30.6403 15.0929 29.2588 15.0929 27.5598ZM16.8705 27.5598C16.8705 28.2856 17.4657 28.8763 18.1972 28.8763C18.9288 28.8763 19.524 28.2857 19.524 27.5598C19.524 26.8339 18.9288 26.2432 18.1972 26.2432C17.4657 26.2432 16.8705 26.8338 16.8705 27.5598ZM21.3043 38.3493C21.3043 40.0483 19.912 41.4298 18.1999 41.4298C16.4877 41.4298 15.0955 40.0483 15.0955 38.3493C15.0955 36.6503 16.4877 35.2687 18.1999 35.2687C19.912 35.2687 21.3043 36.6503 21.3043 38.3493ZM19.524 38.3493C19.524 37.6234 18.9288 37.0327 18.1972 37.0327C17.4657 37.0327 16.8705 37.6233 16.8705 38.3493C16.8705 39.0752 17.4657 39.6658 18.1972 39.6658C18.9288 39.6658 19.524 39.0752 19.524 38.3493ZM24.7889 48.7718C24.9488 49.2323 24.7024 49.7344 24.2383 49.8931C24.1439 49.927 24.0443 49.94 23.9499 49.94C23.5802 49.94 23.2367 49.711 23.1082 49.3442C22.5629 47.7701 22.2535 46.131 22.1801 44.484C20.8822 44.5777 19.5476 44.6245 18.1973 44.6245C9.65001 44.6245 1 42.6914 1 38.9968V6.62767C1 2.9331 9.65269 1 18.1973 1C26.7446 1 35.3946 2.9331 35.3946 6.62767V26.9425C40.9584 25.5869 47.0678 26.9789 51.5066 31.1209V28.7585C51.5066 28.272 51.9051 27.8765 52.3954 27.8765C52.8857 27.8765 53.2842 28.272 53.2842 28.7585V33.2388C53.2842 33.7253 52.8857 34.1208 52.3954 34.1208H47.8804C47.3901 34.1208 46.9916 33.7253 46.9916 33.2388C46.9916 32.7523 47.3901 32.3568 47.8804 32.3568H50.2323C44.1074 26.6953 34.4821 26.8228 28.517 32.7419C24.2563 36.9698 22.8273 43.1124 24.7859 48.7713L24.7889 48.7718ZM2.77759 6.62819C2.77759 7.27863 4.05707 8.30632 6.91505 9.1389C9.91722 10.0131 13.9233 10.4945 18.1976 10.4945C22.4719 10.4945 26.4777 10.0131 29.4801 9.1389C32.338 8.30632 33.6176 7.27859 33.6176 6.62819C33.6176 5.97778 32.3381 4.95005 29.4801 4.11748C26.4779 3.24327 22.4719 2.76191 18.1976 2.76191C13.9233 2.76191 9.91742 3.24325 6.91505 4.11748C4.05714 4.95005 2.77759 5.97778 2.77759 6.62819ZM2.77759 17.4177C2.77759 18.0681 4.05707 19.0958 6.91505 19.9284C9.91722 20.8026 13.9233 21.284 18.1976 21.284C22.4719 21.284 26.4777 20.8026 29.4801 19.9284C32.338 19.0958 33.6176 18.0681 33.6176 17.4177V9.27178C30.6495 11.2413 24.3964 12.2587 18.1976 12.2587C11.9989 12.2587 5.74586 11.2414 2.77772 9.27178L2.77759 17.4177ZM2.77759 28.2072C2.77759 28.8576 4.05707 29.8853 6.91505 30.7179C9.91722 31.5921 13.9233 32.0735 18.1976 32.0735C21.6113 32.0735 24.8468 31.7664 27.5812 31.1889C29.3668 29.5029 31.4277 28.2671 33.617 27.4813V20.0634C30.6489 22.0329 24.3958 23.0503 18.197 23.0503C11.9983 23.0503 5.74525 22.033 2.77712 20.0634V28.2093L2.77759 28.2072ZM25.6648 33.3197C23.3627 33.658 20.8274 33.8349 18.1975 33.8349C11.9992 33.8349 5.74572 32.8176 2.77759 30.848V38.9939C2.77759 39.6444 4.05707 40.672 6.91505 41.5046C9.91722 42.3788 13.9233 42.8602 18.1976 42.8602C19.5531 42.8602 20.8929 42.8081 22.1934 42.7119C22.2459 41.7908 22.3743 40.8724 22.5762 39.9644C23.1163 37.5447 24.1704 35.2864 25.6649 33.322L25.6648 33.3197ZM56.0529 38.0888C55.893 37.6283 55.387 37.3837 54.9229 37.5399C54.4588 37.6986 54.2123 38.2007 54.3723 38.6612C56.3309 44.3201 54.9019 50.4631 50.6412 54.6906C47.6863 57.6228 43.7585 59.2359 39.5816 59.2359C35.5909 59.2359 31.831 57.7634 28.9259 55.0757H31.2778C31.7681 55.0757 32.1667 54.6802 32.1667 54.1937C32.1667 53.7071 31.7681 53.3117 31.2778 53.3117H26.7628C26.2725 53.3117 25.874 53.7072 25.874 54.1937V58.674C25.874 59.1605 26.2725 59.556 26.7628 59.556C27.2531 59.556 27.6516 59.1605 27.6516 58.674V56.3115C30.8923 59.3401 35.1082 61 39.5792 61C44.2332 61 48.6064 59.2022 51.8974 55.9369C54.2493 53.6031 55.8697 50.6761 56.5855 47.4679C57.2829 44.3484 57.0968 41.1039 56.0532 38.0858L56.0529 38.0888ZM48.0379 47.1952C47.8518 47.6427 47.9461 48.1136 48.2922 48.4571L48.5807 48.7433C49.168 49.3261 49.168 50.2731 48.5807 50.8559L46.7741 52.6486C46.1868 53.2314 45.2324 53.2314 44.6451 52.6486L44.3567 52.3624C44.0106 52.0189 43.536 51.9253 43.0851 52.11C42.6341 52.2947 42.3667 52.6954 42.3667 53.1793V53.5826C42.3667 54.4074 41.6902 55.0761 40.8616 55.0761H38.3052C37.4741 55.0761 36.8002 54.4048 36.8002 53.5826V53.1793C36.8002 52.6954 36.5302 52.2947 36.0818 52.11C35.6308 51.9253 35.1563 52.0189 34.8102 52.3624L34.5218 52.6486C33.9345 53.2314 32.9801 53.2314 32.3927 52.6486L30.5862 50.8559C30.303 50.5749 30.1457 50.1977 30.1457 49.7996C30.1457 49.3989 30.3031 49.0243 30.5862 48.7433L30.8746 48.4571C31.2207 48.1137 31.3151 47.6427 31.129 47.1953C30.9428 46.7478 30.539 46.4824 30.0513 46.4824H29.6423C28.8111 46.4824 28.1373 45.8111 28.1373 44.9889V42.4522C28.1373 41.6274 28.8137 40.9588 29.6423 40.9588H30.0513C30.539 40.9588 30.9428 40.6908 31.129 40.2459C31.3151 39.7984 31.2207 39.3274 30.8773 38.984L30.5888 38.6978C30.0015 38.115 30.0015 37.168 30.5888 36.5851L32.3954 34.7925C32.9827 34.2097 33.9371 34.2097 34.5244 34.7925L34.8128 35.0787C35.1589 35.4221 35.6335 35.5158 36.0845 35.3311C36.5354 35.1464 36.8029 34.7457 36.8029 34.2617V33.8585C36.8029 33.0337 37.4793 32.365 38.3079 32.365H40.8643C41.6954 32.365 42.3693 33.0363 42.3693 33.8585V34.2643C42.3693 34.7483 42.6393 35.1489 43.0877 35.3337C43.5387 35.5184 44.0132 35.4248 44.3593 35.0813L44.6477 34.7951C45.235 34.2123 46.1895 34.2123 46.7768 34.7951L48.5833 36.5878C48.8665 36.8688 49.0238 37.246 49.0238 37.6441C49.0238 38.0447 48.8665 38.4194 48.5833 38.7004L48.2949 38.9866C47.9488 39.33 47.8544 39.801 48.0405 40.2484C48.2267 40.6959 48.6305 40.9613 49.1182 40.9613H49.5246C50.3558 40.9613 51.0296 41.6325 51.0296 42.4547V44.9915C51.0296 45.8163 50.3531 46.4849 49.5246 46.4849H49.1182C48.6305 46.4849 48.2267 46.7529 48.0405 47.2004L48.0379 47.1952ZM46.3966 46.5188C46.8607 45.4052 47.9042 44.7157 49.1182 44.7157H49.2519V42.7201H49.1182C47.9042 42.7201 46.8633 42.028 46.3966 40.9171C45.9325 39.8035 46.1763 38.5833 47.0337 37.7326L47.1281 37.6389L45.707 36.2287L45.6126 36.3224C44.7553 37.1731 43.5255 37.4177 42.4034 36.9546C41.2812 36.4941 40.5864 35.4586 40.5864 34.2539V34.1213H38.5753V34.2539C38.5753 35.4586 37.8779 36.4915 36.7584 36.9546C35.6361 37.4151 34.4065 37.1732 33.5491 36.3224L33.4547 36.2287L32.0336 37.6389L32.128 37.7326C32.9854 38.5833 33.2318 39.8036 32.7651 40.9171C32.3011 42.0307 31.2575 42.7201 30.0436 42.7201H29.9098V44.7157H30.0436C31.2575 44.7157 32.2985 45.4078 32.7651 46.5188C33.2292 47.6323 32.9854 48.8526 32.128 49.7033L32.0336 49.797L33.4547 51.2072L33.5491 51.1135C34.4065 50.2627 35.6362 50.0182 36.7584 50.4813C37.8806 50.9418 38.5753 51.9773 38.5753 53.1819V53.3146H40.5864V53.1819C40.5864 51.9773 41.2839 50.9444 42.4034 50.4813C43.5256 50.0207 44.7553 50.2627 45.6126 51.1135L45.707 51.2072L47.1281 49.797L47.0337 49.7033C46.1764 48.8526 45.9299 47.6323 46.3966 46.5188ZM45.6886 43.7192C45.6886 47.0625 42.9487 49.7814 39.5795 49.7814C36.2102 49.7814 33.4703 47.0626 33.4703 43.7192C33.4703 40.3759 36.2102 37.657 39.5795 37.657C42.9487 37.657 45.6886 40.3759 45.6886 43.7192ZM43.911 43.7192C43.911 41.349 41.9681 39.4237 39.5822 39.4237C37.1962 39.4237 35.2533 41.3516 35.2533 43.7192C35.2533 46.0869 37.1962 48.0148 39.5822 48.0148C41.9681 48.0148 43.911 46.0869 43.911 43.7192ZM42.267 41.4895C41.8947 41.1721 41.3336 41.2163 41.0137 41.5857L38.9791 43.9404L38.1375 43.009C37.8098 42.6473 37.2487 42.6161 36.8816 42.9413C36.5171 43.2665 36.4857 43.8233 36.8134 44.1876L38.3315 45.8657C38.4993 46.0531 38.7405 46.1597 38.9922 46.1597H39.0027C39.2597 46.1571 39.5009 46.0453 39.6687 45.8501L42.3614 42.7332C42.6813 42.3637 42.6367 41.8069 42.2644 41.4895L42.267 41.4895Z" fill="#0CB4C4" stroke="#0CB4C4" stroke-width="0.1"></path></svg>