<svg width="61" height="60" aria-labelledby="svgTitle" viewBox="0 0 61 60" fill="none" xmlns="http://www.w3.org/2000/svg"><title id="svgTitle">Backup &amp; Disaster Recovery Support</title><path fill-rule="evenodd" clip-rule="evenodd" d="M19.8047 5.34148L18.5982 4.78938C16.6704 3.92447 14.8122 2.91037 13.0404 1.7562C9.50326 4.04071 5.6599 5.80571 1.62667 6.9978V14.332C1.68855 17.5066 2.81597 20.5669 4.82578 23.0157C6.347 24.9465 8.22213 26.5661 10.3497 27.787L10.4581 27.8483C11.2842 28.3209 12.1453 28.7288 13.0337 29.0684C15.4988 28.1047 17.7495 26.6591 19.6556 24.8152L19.7369 24.7265C20.2847 24.1963 20.7986 23.6317 21.2754 23.0361C23.2691 20.6724 24.4023 17.6961 24.4881 14.5978V6.9978C22.9095 6.52429 21.3554 5.97149 19.8318 5.34148H19.8047ZM14.7349 13.0982C14.8037 13.0091 14.89 12.9353 14.9885 12.8814C15.087 12.8275 15.1955 12.7946 15.3073 12.7849C15.419 12.7752 15.5315 12.7888 15.6378 12.8249C15.744 12.861 15.8417 12.9188 15.9247 12.9947C16.0076 13.0706 16.0741 13.1629 16.1199 13.2659C16.1656 13.3688 16.1898 13.4802 16.1907 13.593C16.1916 13.7058 16.1693 13.8175 16.1253 13.9212C16.0812 14.0249 16.0163 14.1184 15.9346 14.1956L12.8303 17.6037C12.7541 17.6874 12.6615 17.7542 12.5582 17.7999C12.4549 17.8456 12.3433 17.8692 12.2305 17.8692C12.1177 17.8692 12.0061 17.8456 11.9028 17.7999C11.7995 17.7542 11.7069 17.6874 11.6307 17.6037C11.1291 17.0652 10.6411 16.5131 10.1463 15.9678C10.0208 15.8052 9.96087 15.6009 9.97852 15.3958C9.99617 15.1907 10.0901 14.9998 10.2416 14.8612C10.393 14.7227 10.5908 14.6467 10.7956 14.6484C11.0003 14.6501 11.1969 14.7294 11.346 14.8704L12.2 15.8656L14.7078 13.0982H14.7349ZM5.856 10.3036C7.0016 8.65839 8.67163 7.45602 10.5895 6.89564C12.5074 6.33526 14.5581 6.45048 16.402 7.22223C18.2459 7.99397 19.7723 9.37595 20.7285 11.1393C21.6848 12.9026 22.0134 14.9415 21.66 16.9183C21.3066 18.8951 20.2924 20.6913 18.7854 22.0092C17.2783 23.3272 15.3688 24.088 13.3731 24.1656C11.3774 24.2432 9.41522 23.6329 7.81149 22.4358C6.20777 21.2388 5.05873 19.5267 4.55467 17.5832C4.50293 17.3737 4.53499 17.152 4.64398 16.9659C4.75297 16.7799 4.93019 16.6442 5.13756 16.5881C5.24036 16.5615 5.34738 16.5556 5.45247 16.5706C5.55756 16.5857 5.65866 16.6215 5.74996 16.676C5.84127 16.7304 5.92098 16.8025 5.98454 16.888C6.0481 16.9735 6.09424 17.0708 6.12033 17.1743C6.53439 18.7741 7.48339 20.1818 8.80786 21.1608C10.1323 22.1399 11.7515 22.6306 13.3934 22.5506C15.0353 22.4706 16.5997 21.8246 17.8238 20.7213C19.0479 19.6181 19.8571 18.1247 20.1153 16.4921C20.3736 14.8595 20.0652 13.1873 19.242 11.7565C18.4188 10.3257 17.1309 9.22338 15.5948 8.63491C14.0587 8.04643 12.368 8.00762 10.8068 8.525C9.24559 9.04238 7.90905 10.0844 7.02178 11.476L8.54678 11.1284C8.7562 11.0814 8.9756 11.12 9.15673 11.2356C9.33786 11.3513 9.46587 11.5346 9.51261 11.7452C9.55935 11.9558 9.52098 12.1765 9.40595 12.3586C9.29091 12.5408 9.10864 12.6695 8.89922 12.7165L5.734 13.439C5.62846 13.4652 5.51877 13.4699 5.41142 13.4527C5.30407 13.4355 5.20123 13.3969 5.10898 13.3391C5.01673 13.2812 4.93694 13.2054 4.87433 13.116C4.81171 13.0267 4.76755 12.9256 4.74444 12.8188L4.06667 9.63564C4.0202 9.42416 4.05904 9.20277 4.17467 9.02005C4.29029 8.83732 4.47326 8.70818 4.68344 8.66094C4.78715 8.63787 4.89437 8.63563 4.99894 8.65435C5.10351 8.67306 5.20337 8.71236 5.2928 8.77C5.38222 8.82763 5.45945 8.90246 5.52004 8.99019C5.58064 9.07791 5.6234 9.17681 5.64589 9.2812L5.87633 10.3036H5.856ZM20.2113 3.74651H57.1502C58.1701 3.7501 59.1473 4.15915 59.8685 4.88443C60.5897 5.60971 60.9964 6.59237 61 7.61807V14.5637C60.9929 15.587 60.5845 16.5662 59.8637 17.2885C59.1429 18.0109 58.1678 18.4181 57.1502 18.4216H55.1847V24.5561H57.1502C58.1678 24.5597 59.1429 24.9669 59.8637 25.6892C60.5845 26.4116 60.9929 27.3907 61 28.4141V35.3597C60.9964 36.3854 60.5897 37.3681 59.8685 38.0933C59.1473 38.8186 58.1701 39.2277 57.1502 39.2313H55.1847V45.3658H57.1502C58.1643 45.3693 59.1364 45.7736 59.8566 46.4916C60.5769 47.2095 60.9876 48.1835 61 49.2033V56.1489C60.9911 57.171 60.582 58.1485 59.8614 58.8693C59.1407 59.5902 58.1666 59.9965 57.1502 60H13.0404C12.02 59.9982 11.0418 59.5897 10.3202 58.8641C9.59863 58.1384 9.19246 57.1547 9.19067 56.1284V49.2033C9.19424 48.1776 9.60099 47.1949 10.3222 46.4696C11.0434 45.7443 12.0205 45.3353 13.0404 45.3317H15.006V39.1972H13.0404C12.0205 39.1936 11.0434 38.7845 10.3222 38.0593C9.60099 37.334 9.19424 36.3513 9.19067 35.3256V28.9662C4.06667 25.9194 0 20.5142 0 14.332V6.38435C0.00163853 6.20736 0.0598527 6.03559 0.16604 5.89444C0.272227 5.75328 0.420752 5.65022 0.589667 5.6005C2.71811 4.99743 4.79991 4.23882 6.81844 3.33073C8.82522 2.43349 10.7525 1.36633 12.5796 0.140778C12.7134 0.0490556 12.8717 0 13.0337 0C13.1957 0 13.3539 0.0490556 13.4878 0.140778C15.6088 1.55861 17.8603 2.76834 20.2113 3.75333V3.74651ZM10.8444 29.8455C11.4689 30.1602 12.1091 30.4423 12.7626 30.6907C12.9399 30.7552 13.1342 30.7552 13.3116 30.6907C15.9969 29.6891 18.4558 28.1572 20.5434 26.1852H57.1434C57.7331 26.1888 58.2975 26.4264 58.7139 26.8464C59.1302 27.2664 59.3648 27.8347 59.3666 28.4277V35.3597C59.3648 35.9521 59.13 36.5197 58.7134 36.9386C58.2969 37.3575 57.7325 37.5936 57.1434 37.5954H13.0404C12.4567 37.5847 11.9002 37.3449 11.4898 36.9272C11.0795 36.5094 10.8479 35.9469 10.8444 35.3597V29.8455ZM22.1023 24.5561C23.6462 22.7722 24.8007 20.6824 25.4912 18.4216H53.5444V24.5561H22.1023ZM25.8911 16.8062H57.1502C57.7399 16.8026 58.3043 16.565 58.7206 16.145C59.137 15.725 59.3716 15.1567 59.3733 14.5637V7.61807C59.3715 7.02568 59.1368 6.45807 58.7202 6.03918C58.3037 5.6203 57.7393 5.38418 57.1502 5.38238H24.7389L25.4912 5.6005C25.6602 5.64792 25.8091 5.74944 25.9155 5.88966C26.0219 6.02987 26.08 6.20115 26.0809 6.37753V14.5978C26.0789 15.338 26.0154 16.0767 25.8911 16.8062ZM53.68 49.9053C53.1344 49.9053 52.6011 50.068 52.1474 50.3728C51.6938 50.6777 51.3402 51.1109 51.1314 51.6179C50.9226 52.1248 50.868 52.6826 50.9745 53.2207C51.0809 53.7588 51.3436 54.2531 51.7294 54.6411C52.1152 55.0291 52.6067 55.2933 53.1418 55.4003C53.6769 55.5074 54.2316 55.4524 54.7357 55.2425C55.2397 55.0325 55.6705 54.6769 55.9737 54.2207C56.2768 53.7645 56.4386 53.2282 56.4386 52.6795C56.4386 51.9437 56.1479 51.2381 55.6306 50.7178C55.1133 50.1976 54.4116 49.9053 53.68 49.9053ZM45.9533 49.9053C45.4075 49.904 44.8735 50.0655 44.4189 50.3695C43.9644 50.6735 43.6098 51.1063 43.3999 51.6131C43.1901 52.1199 43.1345 52.6779 43.2402 53.2165C43.3459 53.7551 43.608 54.25 43.9936 54.6387C44.3791 55.0273 44.8706 55.2922 45.4059 55.3998C45.9412 55.5074 46.4962 55.4529 47.0006 55.2431C47.5051 55.0333 47.9363 54.6778 48.2397 54.2214C48.5431 53.7651 48.7051 53.2285 48.7051 52.6795C48.7051 51.9449 48.4154 51.2403 47.8995 50.7203C47.3837 50.2002 46.6838 49.9071 45.9533 49.9053ZM38.2199 49.9053C37.6743 49.9053 37.141 50.068 36.6873 50.3728C36.2337 50.6777 35.8801 51.1109 35.6713 51.6179C35.4625 52.1248 35.4079 52.6826 35.5143 53.2207C35.6208 53.7588 35.8835 54.2531 36.2693 54.6411C36.6551 55.0291 37.1466 55.2933 37.6817 55.4003C38.2168 55.5074 38.7715 55.4524 39.2755 55.2425C39.7796 55.0325 40.2104 54.6769 40.5135 54.2207C40.8167 53.7645 40.9784 53.2282 40.9784 52.6795C40.9784 51.9437 40.6878 51.2381 40.1705 50.7178C39.6531 50.1976 38.9515 49.9053 38.2199 49.9053ZM17.4257 53.4974H28.2294C28.4452 53.4974 28.652 53.4112 28.8046 53.2578C28.9571 53.1045 29.0428 52.8964 29.0428 52.6795C29.0428 52.4626 28.9571 52.2545 28.8046 52.1011C28.652 51.9477 28.4452 51.8615 28.2294 51.8615H17.4257C17.21 51.8615 17.0031 51.9477 16.8506 52.1011C16.698 52.2545 16.6123 52.4626 16.6123 52.6795C16.6123 52.8964 16.698 53.1045 16.8506 53.2578C17.0031 53.4112 17.21 53.4974 17.4257 53.4974ZM53.5444 45.3317V39.1972H16.6259V45.3317H53.5444ZM57.1367 46.9676H13.0404C12.4567 46.9782 11.9002 47.2181 11.4898 47.6358C11.0795 48.0535 10.8479 48.6161 10.8444 49.2033V56.1489C10.8462 56.7431 11.0817 57.3124 11.4995 57.7326C11.9173 58.1528 12.4835 58.3896 13.0743 58.3914H57.1502C57.7399 58.3878 58.3043 58.1502 58.7206 57.7302C59.137 57.3102 59.3716 56.7419 59.3733 56.1489V49.2033C59.3715 48.6109 59.1368 48.0433 58.7202 47.6244C58.3037 47.2055 57.7393 46.9694 57.1502 46.9676H57.1367ZM53.6597 29.1161C53.1138 29.1161 52.5802 29.279 52.1264 29.5841C51.6726 29.8893 51.319 30.3229 51.1104 30.8302C50.9019 31.3376 50.8476 31.8957 50.9546 32.434C51.0616 32.9723 51.325 33.4666 51.7115 33.8543C52.098 34.242 52.5901 34.5057 53.1257 34.612C53.6612 34.7183 54.2161 34.6623 54.72 34.4513C55.224 34.2403 55.6543 33.8837 55.9566 33.4266C56.2589 32.9695 56.4196 32.4324 56.4182 31.8835C56.4182 31.5195 56.3468 31.1591 56.2081 30.8229C56.0694 30.4867 55.8661 30.1813 55.6098 29.9243C55.3536 29.6672 55.0495 29.4635 54.7148 29.3248C54.3802 29.1862 54.0216 29.1152 53.6597 29.1161ZM45.933 29.1161C45.3868 29.1148 44.8526 29.2765 44.3979 29.5808C43.9432 29.8851 43.5886 30.3183 43.379 30.8255C43.1693 31.3327 43.1141 31.8911 43.2204 32.4298C43.3266 32.9686 43.5894 33.4635 43.9756 33.8519C44.3618 34.2403 44.854 34.5047 45.3897 34.6115C45.9255 34.7183 46.4807 34.6628 46.985 34.452C47.4893 34.2412 47.9201 33.8845 48.2227 33.4273C48.5253 32.97 48.6861 32.4327 48.6848 31.8835C48.683 31.1501 48.3925 30.4472 47.8768 29.9287C47.3612 29.4101 46.6623 29.1179 45.933 29.1161ZM38.1996 29.1161C37.6537 29.1161 37.1201 29.279 36.6663 29.5841C36.2125 29.8893 35.8589 30.3229 35.6503 30.8302C35.4418 31.3376 35.3875 31.8957 35.4945 32.434C35.6015 32.9723 35.8649 33.4666 36.2514 33.8543C36.6378 34.242 37.13 34.5057 37.6656 34.612C38.2011 34.7183 38.756 34.6623 39.2599 34.4513C39.7639 34.2403 40.1942 33.8837 40.4965 33.4266C40.7988 32.9695 40.9595 32.4324 40.9581 31.8835C40.9581 31.5195 40.8867 31.1591 40.748 30.8229C40.6093 30.4867 40.406 30.1813 40.1497 29.9243C39.8935 29.6672 39.5893 29.4635 39.2547 29.3248C38.9201 29.1862 38.5615 29.1152 38.1996 29.1161ZM17.4257 32.7355H28.2294C28.4315 32.7169 28.6193 32.623 28.756 32.4723C28.8928 32.3216 28.9686 32.125 28.9686 31.921C28.9686 31.717 28.8928 31.5203 28.756 31.3696C28.6193 31.2189 28.4315 31.125 28.2294 31.1064H17.4257C17.3131 31.0961 17.1996 31.1094 17.0924 31.1456C16.9852 31.1819 16.8867 31.2402 16.8032 31.3168C16.7197 31.3934 16.653 31.4868 16.6074 31.5908C16.5617 31.6948 16.5382 31.8073 16.5382 31.921C16.5382 32.0347 16.5617 32.1471 16.6074 32.2512C16.653 32.3552 16.7197 32.4485 16.8032 32.5251C16.8867 32.6018 16.9852 32.6601 17.0924 32.6963C17.1996 32.7325 17.3131 32.7459 17.4257 32.7355ZM53.6597 8.32013C53.1141 8.32013 52.5807 8.48283 52.1271 8.78766C51.6735 9.09249 51.3199 9.52576 51.1111 10.0327C50.9023 10.5396 50.8477 11.0974 50.9541 11.6355C51.0606 12.1736 51.3233 12.6679 51.7091 13.0559C52.0949 13.4439 52.5864 13.7081 53.1215 13.8152C53.6566 13.9222 54.2113 13.8673 54.7153 13.6573C55.2194 13.4473 55.6502 13.0917 55.9533 12.6355C56.2564 12.1793 56.4182 11.643 56.4182 11.0943C56.4182 10.3585 56.1276 9.65292 55.6103 9.13266C55.0929 8.61241 54.3913 8.32013 53.6597 8.32013ZM45.933 8.32013C45.3871 8.31878 44.8531 8.48034 44.3986 8.78434C43.9441 9.08835 43.5894 9.52114 43.3796 10.0279C43.1698 10.5347 43.1142 11.0927 43.2198 11.6313C43.3255 12.1699 43.5877 12.6648 43.9732 13.0535C44.3588 13.4422 44.8503 13.707 45.3856 13.8146C45.9208 13.9222 46.4758 13.8677 46.9803 13.6579C47.4848 13.4482 47.916 13.0926 48.2194 12.6362C48.5228 12.1799 48.6848 11.6433 48.6848 11.0943C48.6848 10.3597 48.3951 9.65513 47.8792 9.13507C47.3633 8.61501 46.6634 8.32194 45.933 8.32013ZM38.1996 8.32013C37.654 8.32013 37.1206 8.48283 36.667 8.78766C36.2133 9.09249 35.8598 9.52576 35.651 10.0327C35.4422 10.5396 35.3876 11.0974 35.494 11.6355C35.6004 12.1736 35.8632 12.6679 36.249 13.0559C36.6348 13.4439 37.1263 13.7081 37.6614 13.8152C38.1965 13.9222 38.7511 13.8673 39.2552 13.6573C39.7593 13.4473 40.1901 13.0917 40.4932 12.6355C40.7963 12.1793 40.9581 11.643 40.9581 11.0943C40.9581 10.73 40.8868 10.3692 40.7481 10.0327C40.6095 9.69609 40.4063 9.39027 40.1501 9.13266C39.894 8.87506 39.5899 8.67072 39.2552 8.5313C38.9205 8.39189 38.5618 8.32013 38.1996 8.32013Z" fill="#0CB4C4"></path></svg>