<svg width="54" height="60" aria-labelledby="svgTitle" viewBox="0 0 54 60" fill="none" xmlns="http://www.w3.org/2000/svg"><title id="svgTitle">Co-Managed NOC Services</title><path d="M28.9998 18.0096C32.9557 17.9058 32.9549 12.1095 28.9998 12.0063C25.0439 12.1101 25.0447 17.9064 28.9998 18.0096ZM28.9998 14.0074C30.314 14.0308 30.3138 15.9853 28.9998 16.0085C27.6856 15.9851 27.6858 14.0306 28.9998 14.0074Z" fill="#0CB4C4"></path><path d="M33.9999 16.0084H36.9999C38.3136 15.9865 38.315 14.0293 36.9999 14.0073H33.9999C32.6863 14.0291 32.6849 15.9864 33.9999 16.0084Z" fill="#0CB4C4"></path><path d="M28.9998 30.0159C32.9557 29.9122 32.9549 24.1158 28.9998 24.0127C25.0439 24.1165 25.0447 29.9127 28.9998 30.0159ZM28.9998 26.0138C30.314 26.0371 30.3138 27.9916 28.9998 28.0148C27.6856 27.9914 27.6858 26.0369 28.9998 26.0138Z" fill="#0CB4C4"></path><path d="M33.9999 28.0152H36.9999C38.3136 27.9934 38.315 26.0361 36.9999 26.0142H33.9999C32.6863 26.036 32.6849 27.9932 33.9999 28.0152Z" fill="#0CB4C4"></path><path d="M28.9998 36.019C25.0439 36.1228 25.0447 41.9191 28.9999 42.0223C32.9557 41.9185 32.9549 36.1222 28.9998 36.019ZM28.9998 40.0212C27.6856 39.9978 27.6858 38.0433 28.9999 38.0201C30.314 38.0434 30.3138 39.998 28.9998 40.0212Z" fill="#0CB4C4"></path><path d="M36.9999 38.0205H33.9999C32.6863 38.0423 32.6849 39.9995 34 40.0216H36.9999C38.3136 39.9997 38.315 38.0425 36.9999 38.0205Z" fill="#0CB4C4"></path><path d="M16.0047 18.0099C17.3192 17.9878 17.319 16.0307 16.0046 16.0088C14.6781 16.0293 14.6886 17.9885 16.0047 18.0099Z" fill="#0CB4C4"></path><path d="M19.0096 18.0099C20.3241 17.9878 20.3239 16.0307 19.0095 16.0088C17.683 16.0293 17.6935 17.9885 19.0096 18.0099Z" fill="#0CB4C4"></path><path d="M16.0096 30.0162C17.3241 29.9941 17.3239 28.0371 16.0095 28.0151C14.683 28.0357 14.6935 29.9948 16.0096 30.0162Z" fill="#0CB4C4"></path><path d="M19.0144 30.0162C20.3289 29.9941 20.3288 28.0371 19.0144 28.0151C17.6878 28.0357 17.6984 29.9948 19.0144 30.0162Z" fill="#0CB4C4"></path><path d="M16.0095 40.0215C14.6829 40.042 14.6935 42.0012 16.0096 42.0226C17.3241 42.0005 17.3239 40.0434 16.0095 40.0215Z" fill="#0CB4C4"></path><path d="M19.0144 40.0215C17.6878 40.042 17.6984 42.0012 19.0145 42.0226C20.3289 42.0005 20.3288 40.0434 19.0144 40.0215Z" fill="#0CB4C4"></path><path d="M21.4998 51.4352C22.7938 51.6834 23.1986 49.7799 21.9197 49.4791C-5.90312 42.6717 -1.70543 2.75421 27.0001 2.00106C40.2332 2.00106 50.9998 12.7729 50.9998 26.0139C50.9998 37.2548 43.0428 47.1234 32.0799 49.4791C31.5399 49.5949 31.1961 50.1269 31.3123 50.6673C31.4258 51.2112 31.9739 51.5525 32.4998 51.4352C44.3787 48.8826 52.9998 38.1913 52.9998 26.0139C52.9998 11.6698 41.3367 0 26.9998 0C-4.10576 0.82252 -8.64079 44.062 21.4998 51.4352Z" fill="#0CB4C4"></path><path d="M49 50.0269C46.5856 50.0269 44.5657 51.7486 44.1011 54.0291H31.8989C31.5002 52.072 29.9561 50.527 28 50.1281V45.0243H39C40.6543 45.0243 42 43.6778 42 42.0227V34.0184C42 33.2468 41.6995 32.5496 41.2197 32.0173C41.6995 31.485 42 30.7878 42 30.0162V22.0119C42 21.2404 41.6995 20.5431 41.2197 20.0109C41.6995 19.4786 42 18.7813 42 18.0098V10.0055C42 8.35033 40.6543 7.00391 39 7.00391H15C13.3457 7.00391 12 8.35033 12 10.0055V18.0098C12 18.7813 12.3005 19.4786 12.7803 20.0109C12.3005 20.5431 12 21.2404 12 22.0119V30.0162C12 30.7878 12.3005 31.485 12.7803 32.0173C12.3005 32.5496 12 33.2468 12 34.0184V42.0227C12 43.6778 13.3457 45.0243 15 45.0243H26V50.1281C24.044 50.527 22.4998 52.072 22.1011 54.0291H9.89893C8.60199 48.2072 0.12897 49.0091 0 55.0297C0.12964 61.0512 8.60303 61.851 9.89893 56.0302H22.1011C23.2336 61.3252 30.7683 61.3218 31.8989 56.0302H44.1011C45.3987 61.8527 53.871 61.0495 54 55.0295C54 52.2713 51.7569 50.0269 49 50.0269ZM5.00002 58.0312C1.04415 57.9275 1.04494 52.1312 5.00008 52.028C8.95589 52.1318 8.9551 57.928 5.00002 58.0312ZM14 10.0055C14 9.45395 14.4483 9.00498 15 9.00498H39C39.5518 9.00498 40 9.45395 40 10.0055V18.0098C40 18.5614 39.5518 19.0103 39 19.0103H15C14.4483 19.0103 14 18.5614 14 18.0098V10.0055ZM14 22.0119C14 21.4604 14.4483 21.0114 15 21.0114H39C39.5518 21.0114 40 21.4604 40 22.0119V30.0162C40 30.5678 39.5518 31.0168 39 31.0168H15C14.4483 31.0168 14 30.5678 14 30.0162V22.0119ZM15 43.0232C14.4483 43.0232 14 42.5742 14 42.0227V34.0184C14 33.4668 14.4483 33.0178 15 33.0178H39C39.5518 33.0178 40 33.4668 40 34.0184V42.0227C40 42.5742 39.5518 43.0232 39 43.0232H15ZM27 58.0312C23.0441 57.9275 23.0449 52.1312 27.0001 52.028C30.9559 52.1318 30.9551 57.928 27 58.0312ZM49 58.0312C45.0441 57.9275 45.0449 52.1312 49.0001 52.028C52.9559 52.1318 52.9551 57.928 49 58.0312Z" fill="#0CB4C4"></path></svg>