<svg width="55" height="62" aria-labelledby="svgTitle" viewBox="0 0 55 62" fill="none" xmlns="http://www.w3.org/2000/svg"><title id="svgTitle">Tailored Automation Frameworks</title><path d="M49.6762 10.0591H37.8253C37.6347 9.65877 37.4367 9.26832 37.2094 8.88767L38.4145 6.94524C38.5856 6.67757 38.5367 6.3264 38.3191 6.09799L36.2218 4.01065C35.9945 3.78227 35.6425 3.74298 35.3785 3.91488L33.445 5.12556C32.4305 4.4969 31.3208 4.0303 30.1548 3.75281L29.6439 1.53289C29.5681 1.21856 29.2919 1 28.979 1H26.0213C25.7084 1 25.4248 1.21856 25.3564 1.53289L24.8455 3.74546C23.6697 4.0205 22.5698 4.48954 21.5553 5.1182L19.6218 3.90753C19.3554 3.73563 19.0058 3.77492 18.7785 4.0033L16.691 6.09799C16.4636 6.32637 16.4245 6.67017 16.5956 6.94524L17.791 8.88767C17.5539 9.26831 17.3559 9.65879 17.175 10.0591H5.32419C2.94333 10.0591 1 12.0114 1 14.4032V47.8178C1 50.2096 2.94333 52.1619 5.32419 52.1619H22.4471C22.1733 53.5518 21.462 54.8853 20.3889 56.0002H19.7069C17.9616 56.0002 16.5487 57.4196 16.5487 59.173V60.3149C16.5487 60.6955 16.8518 61 17.2307 61H38.3091C38.688 61 38.9911 60.6955 38.9911 60.3149V59.173C38.9911 57.4196 37.5782 56.0002 35.8329 56.0002H35.1509C34.0803 54.8755 33.3689 53.5519 33.0829 52.1619H49.6758C52.0567 52.1619 54 50.2096 54 47.8178V14.4032C54 12.0138 52.057 10.0591 49.6762 10.0591ZM19.3558 5.36372L21.194 6.51542C21.4213 6.65785 21.7146 6.64803 21.9346 6.5056C23.0248 5.76152 24.2397 5.25809 25.5377 5.00027C25.8041 4.94379 26.0119 4.74242 26.0681 4.48703L26.5521 2.37266H28.4197L28.9037 4.48703C28.9599 4.7547 29.1701 4.95361 29.4341 5.00027C30.7321 5.25812 31.9469 5.76152 33.0372 6.5056C33.2645 6.65785 33.548 6.66767 33.7778 6.52525L35.616 5.37354L36.9336 6.69718L35.7969 8.54387C35.6551 8.77225 35.6649 9.05712 35.8067 9.28795C36.166 9.83066 36.4716 10.4028 36.716 10.9922C36.7258 11.0217 36.7356 11.0388 36.7453 11.0585C36.9922 11.6577 37.1804 12.2765 37.3051 12.915C37.3515 13.1827 37.5618 13.3914 37.816 13.4479L39.9206 13.9341V15.8005L37.816 16.2965C37.5495 16.353 37.3515 16.5642 37.3051 16.8294C37.0484 18.1334 36.5474 19.3539 35.8067 20.4589C35.6551 20.6873 35.6551 20.9722 35.7969 21.203L36.9336 23.0497L35.616 24.3733L33.7778 23.2216C33.5505 23.0792 33.2572 23.0792 33.0372 23.2413C31.9469 23.9854 30.7321 24.4888 29.4341 24.7466C29.1677 24.8031 28.9599 25.0045 28.9037 25.2598L28.4197 27.3742H26.5521L26.0681 25.2598C26.0119 24.9922 25.8017 24.7933 25.5377 24.7466C24.2397 24.4888 23.0249 23.9854 21.9346 23.2413C21.7073 23.089 21.4238 23.089 21.194 23.2216L19.3558 24.3733L18.0382 23.0497L19.1749 21.203C19.3166 20.9746 19.3069 20.6799 19.1651 20.4589C18.4244 19.3539 17.9233 18.126 17.6667 16.8294C17.6105 16.5617 17.41 16.353 17.1558 16.2965L15.0512 15.8005V13.9341L17.1558 13.4479C17.4222 13.3914 17.6202 13.1802 17.6667 12.915C17.7889 12.2765 17.9796 11.6577 18.2265 11.0486C18.2362 11.029 18.246 11.0093 18.2558 10.9921C18.5027 10.4028 18.8058 9.83057 19.1651 9.27804C19.3167 9.05948 19.3167 8.76479 19.1749 8.53396L18.0382 6.68727L19.3558 5.36372ZM5.32479 11.4317H16.6449C16.5692 11.6896 16.4934 11.945 16.4274 12.2028L14.2177 12.7161C13.9048 12.7922 13.6872 13.0697 13.6872 13.384V16.3456C13.6872 16.6599 13.9048 16.9448 14.2177 17.0135L16.4274 17.5268C16.7012 18.6982 17.1681 19.813 17.7938 20.842L16.5985 22.7844C16.4274 23.0521 16.4763 23.4032 16.6938 23.6316L18.7691 25.7165C18.9964 25.9449 19.3484 25.9842 19.6125 25.8123L21.546 24.6016C22.5604 25.2303 23.6701 25.6969 24.8361 25.9744L25.347 28.1943C25.4228 28.5086 25.699 28.7272 26.0119 28.7272H26.8087V30.4143H11.8003C10.4535 30.4143 9.36324 31.5095 9.36324 32.8626V33.8915H7.7793C6.90666 33.8915 6.19535 34.6061 6.19535 35.4926V39.4071C6.19535 40.2837 6.90666 41.0082 7.7793 41.0082H12.3112C13.1839 41.0082 13.905 40.2936 13.905 39.4071V35.4926C13.905 34.6061 13.1937 33.8915 12.3112 33.8915H10.7273V32.8626C10.7273 32.2732 11.2113 31.787 11.7979 31.787H26.8164V33.8916H25.2324C24.3598 33.8916 23.6387 34.6062 23.6387 35.4927V39.4071C23.6387 40.2838 24.35 41.0082 25.2324 41.0082H29.7644C30.637 41.0082 31.3483 40.2936 31.3483 39.4071V35.4927C31.3483 34.6062 30.637 33.8916 29.7644 33.8916H28.1804V31.787H43.1989C43.7855 31.787 44.2695 32.2732 44.2695 32.8626V33.8915H42.6856C41.8129 33.8915 41.1016 34.6061 41.1016 35.4926V39.4071C41.1016 40.2837 41.8129 41.0082 42.6856 41.0082H47.2175C48.0901 41.0082 48.8113 40.2936 48.8113 39.4071V35.4926C48.8113 34.6061 48.1 33.8915 47.2175 33.8915H45.6336V32.8626C45.6336 31.5095 44.5433 30.4143 43.1965 30.4143H28.1831V28.7272H28.9799C29.2928 28.7272 29.5763 28.5086 29.6448 28.1943L30.1557 25.9744C31.3314 25.6993 32.4314 25.2303 33.4556 24.6016L35.3891 25.8123C35.6555 25.9842 36.0051 25.9449 36.2325 25.7165L38.3078 23.6316C38.5351 23.4033 38.5742 23.0595 38.4031 22.7844L37.2077 20.842C37.8433 19.813 38.298 18.6981 38.5742 17.5268L40.7839 17.0135C41.0968 16.9374 41.3143 16.6599 41.3143 16.3456V13.384C41.3143 13.0697 41.0968 12.7849 40.7839 12.7161L38.5742 12.2028C38.5179 11.945 38.4422 11.6896 38.3566 11.4317H49.6768C51.3072 11.4317 52.6345 12.7652 52.6345 14.4032V43.798H2.36526V14.4032C2.36526 12.7652 3.69258 11.4317 5.32546 11.4317H5.32479ZM12.3109 35.2743C12.4331 35.2743 12.5382 35.3799 12.5382 35.5027V39.4171C12.5382 39.5399 12.4331 39.6455 12.3109 39.6455H7.77893C7.65671 39.6455 7.56137 39.5399 7.56137 39.4171V35.5027C7.56137 35.3799 7.66649 35.2743 7.77893 35.2743H12.3109ZM29.7667 35.2743C29.8889 35.2743 29.9843 35.3799 29.9843 35.5027V39.4171C29.9843 39.5399 29.8791 39.6455 29.7667 39.6455H25.2348C25.1125 39.6455 25.0074 39.5399 25.0074 39.4171V35.5027C25.0074 35.3799 25.1125 35.2743 25.2348 35.2743H29.7667ZM47.2225 35.2743C47.3447 35.2743 47.4498 35.3799 47.4498 35.5027V39.4171C47.4498 39.5399 47.3447 39.6455 47.2225 39.6455H42.6906C42.5684 39.6455 42.473 39.5399 42.473 39.4171V35.5027C42.473 35.3799 42.5781 35.2743 42.6906 35.2743H47.2225ZM52.6369 47.8179C52.6369 49.4559 51.3095 50.7894 49.6791 50.7894H5.32523C3.69479 50.7894 2.36747 49.4559 2.36747 47.8179V45.1707H52.6267V47.8179H52.6369ZM37.6284 59.1709V59.6277L17.9067 59.6301V59.1734C17.9067 58.1837 18.7134 57.3733 19.6985 57.3733H35.8364C36.8215 57.3709 37.6284 58.1813 37.6284 59.1709ZM33.3507 56.0006H22.182C23.0449 54.839 23.6145 53.5252 23.8417 52.1623H31.6933C31.9108 53.5129 32.4781 54.8292 33.3507 56.0006Z" fill="#0CB4C4" stroke="#0CB4C4" stroke-width="0.4"></path><path d="M27.7667 50.0751C28.9229 50.0751 29.8518 49.1321 29.8518 47.9804C29.8518 46.8189 28.9131 45.8857 27.7667 45.8857C26.6203 45.8857 25.6816 46.8287 25.6816 47.9804C25.6792 49.1321 26.6081 50.0751 27.7667 50.0751ZM27.7667 47.2462C28.1651 47.2462 28.4878 47.5703 28.4878 47.9706C28.4878 48.361 28.1553 48.695 27.7667 48.695C27.378 48.695 27.0456 48.361 27.0456 47.9706C27.0456 47.5801 27.3683 47.2462 27.7667 47.2462Z" fill="#0CB4C4" stroke="#0CB4C4" stroke-width="0.4"></path><path d="M27.5003 20.6628C30.6853 20.6628 33.274 18.0622 33.274 14.8624C33.274 11.6627 30.6854 9.06201 27.5003 9.06201C24.3152 9.06201 21.7266 11.6626 21.7266 14.8624C21.7266 18.0622 24.3152 20.6628 27.5003 20.6628ZM27.5003 10.442C29.9276 10.442 31.91 12.4336 31.91 14.8722C31.91 17.3107 29.9276 19.3023 27.5003 19.3023C25.0632 19.3023 23.0906 17.3107 23.0906 14.8722C23.0906 12.4214 25.073 10.442 27.5003 10.442Z" fill="#0CB4C4" stroke="#0CB4C4" stroke-width="0.4"></path></svg>