<svg version="1.1" id="Layer_1" xmlns="http://www.w3.org/2000/svg" xmlns:xlink="http://www.w3.org/1999/xlink" x="0px" y="0px" width="64px" height="60px" viewBox="0 0 64 60" style="enable-background:new 0 0 64 60;" xml:space="preserve"><g><path style="fill:#0CB4C4;" d="M53.053,32.631V1.053C53.053,0.471,52.581,0,52,0H12c-0.581,0-1.053,0.471-1.053,1.053v31.578 c0,0.582,0.472,1.053,1.053,1.053h10.526h18.947H52C52.581,33.684,53.053,33.213,53.053,32.631z M23.579,31.579v-2.105 c0-4.643,3.777-8.421,8.421-8.421s8.421,3.778,8.421,8.421v2.105H23.579z M50.947,31.579h-8.421v-2.105 c0-5.805-4.722-10.526-10.526-10.526s-10.526,4.722-10.526,10.526v2.105h-8.421V2.105h37.895V31.579z"></path><path style="fill:#0CB4C4;" d="M37.263,41.053c0-2.903-2.359-5.264-5.263-5.264s-5.263,2.36-5.263,5.264s2.359,5.263,5.263,5.263 S37.263,43.956,37.263,41.053z M28.842,41.053c0-1.741,1.418-3.158,3.158-3.158s3.158,1.417,3.158,3.158 c0,1.74-1.418,3.158-3.158,3.158S28.842,42.793,28.842,41.053z"></path><path style="fill:#0CB4C4;" d="M48.842,41.053c0,2.903,2.36,5.263,5.264,5.263c2.902,0,5.263-2.359,5.263-5.263 s-2.36-5.264-5.263-5.264C51.202,35.789,48.842,38.149,48.842,41.053z M54.105,37.895c1.74,0,3.157,1.417,3.157,3.158 c0,1.74-1.417,3.158-3.157,3.158c-1.741,0-3.158-1.418-3.158-3.158C50.947,39.312,52.364,37.895,54.105,37.895z"></path><path style="fill:#0CB4C4;" d="M9.895,46.315c2.903,0,5.264-2.359,5.264-5.263s-2.36-5.264-5.264-5.264 c-2.902,0-5.263,2.36-5.263,5.264S6.992,46.315,9.895,46.315z M9.895,37.895c1.741,0,3.158,1.417,3.158,3.158 c0,1.74-1.417,3.158-3.158,3.158c-1.74,0-3.157-1.418-3.157-3.158C6.737,39.312,8.154,37.895,9.895,37.895z"></path><path style="fill:#0CB4C4;" d="M32,16.842c3.484,0,6.315-2.833,6.315-6.316S35.484,4.21,32,4.21s-6.315,2.833-6.315,6.316 S28.516,16.842,32,16.842z M32,6.316c2.322,0,4.211,1.889,4.211,4.21s-1.889,4.21-4.211,4.21s-4.211-1.889-4.211-4.21 S29.678,6.316,32,6.316z"></path><rect x="42.526" y="4.21" style="fill:#0CB4C4;" width="6.315" height="2.105"></rect><rect x="42.526" y="8.421" style="fill:#0CB4C4;" width="6.315" height="2.105"></rect><path style="fill:#0CB4C4;" d="M32,48.421c-5.225,0-9.474,4.249-9.474,9.474V60h2.105v-2.105c0-4.063,3.306-7.368,7.368-7.368 s7.368,3.306,7.368,7.368V60h2.105v-2.105C41.474,52.67,37.225,48.421,32,48.421z"></path><path style="fill:#0CB4C4;" d="M54.105,48.421c-5.225,0-9.474,4.249-9.474,9.474V60h2.105v-2.105c0-4.063,3.306-7.368,7.368-7.368 s7.368,3.306,7.368,7.368V60h2.105v-2.105C63.579,52.67,59.33,48.421,54.105,48.421z"></path><path style="fill:#0CB4C4;" d="M9.895,48.421c-5.225,0-9.474,4.249-9.474,9.474V60h2.105v-2.105c0-4.063,3.306-7.368,7.368-7.368 s7.368,3.306,7.368,7.368V60h2.105v-2.105C19.368,52.67,15.119,48.421,9.895,48.421z"></path></g></svg>