<svg version="1.1" id="Layer_1" xmlns="http://www.w3.org/2000/svg" xmlns:xlink="http://www.w3.org/1999/xlink" x="0px" y="0px" width="73.3px" height="60px" viewBox="0 0 73.3 60" style="enable-background:new 0 0 73.3 60;" xml:space="preserve"><g><g><path style="fill:#0CB4C4;" d="M36.65,46.711c3.217,0,5.832-2.618,5.832-5.835c0-3.216-2.615-5.833-5.832-5.833 c-3.216,0-5.831,2.617-5.831,5.833C30.819,44.093,33.434,46.711,36.65,46.711z M36.65,36.691c2.307,0,4.185,1.878,4.185,4.185 c0,2.308-1.878,4.185-4.185,4.185s-4.185-1.877-4.185-4.185C32.465,38.569,34.343,36.691,36.65,36.691z"></path><path style="fill:#0CB4C4;" d="M36.65,47.056c-3.406,0-6.178-2.771-6.178-6.18c0-3.407,2.771-6.179,6.178-6.179 s6.178,2.771,6.178,6.179C42.828,44.284,40.056,47.056,36.65,47.056z M36.65,35.389c-3.024,0-5.485,2.461-5.485,5.487 s2.461,5.489,5.485,5.489c3.025,0,5.487-2.463,5.487-5.489S39.675,35.389,36.65,35.389z M36.65,45.406 c-2.498,0-4.53-2.032-4.53-4.53s2.032-4.53,4.53-4.53s4.531,2.032,4.531,4.53S39.148,45.406,36.65,45.406z M36.65,37.037 c-2.116,0-3.838,1.722-3.838,3.839s1.722,3.839,3.838,3.839s3.838-1.722,3.838-3.839S38.766,37.037,36.65,37.037z"></path></g><g><path style="fill:#0CB4C4;" d="M13.785,56.923h12.789c-0.001,0.075-0.01,0.15-0.01,0.229v2.502h1.648v-2.502 c0-3.916,3.184-7.099,7.099-7.099h2.682c3.911,0,7.097,3.183,7.097,7.099v2.502h1.65v-2.502c0-0.079-0.011-0.154-0.012-0.229 h12.789l-0.666-4.665L56.25,34.063l-1.307-9.147H48.92H24.382h-6.025l-1.307,9.147l-2.6,18.194L13.785,56.923z M19.788,26.567 h33.726l4.101,28.703H46.529c-0.863-3.922-4.362-6.869-8.538-6.869h-2.682c-4.176,0-7.674,2.947-8.538,6.869H15.686L19.788,26.567 z"></path><path style="fill:#0CB4C4;" d="M47.084,60h-2.342v-2.848c0-3.724-3.026-6.753-6.75-6.753h-2.682c-3.724,0-6.753,3.029-6.753,6.753 V60h-2.341v-2.731H13.386l4.67-32.697h37.188l4.672,32.697H47.084V60z M45.436,59.309h0.958l-0.017-2.731h12.741l-4.476-31.315 H18.657l-4.474,31.315h12.741l-0.015,2.731h0.957v-2.156c0-4.105,3.34-7.444,7.444-7.444h2.682c4.104,0,7.443,3.339,7.443,7.444 V59.309z M58.012,55.616H46.25l-0.06-0.271c-0.842-3.823-4.29-6.599-8.2-6.599h-2.682c-3.909,0-7.357,2.775-8.2,6.599l-0.06,0.271 H15.288l4.2-29.395h34.325L58.012,55.616z M46.803,54.926h10.412l-4.003-28.013H20.087l-4.002,28.013h10.412 c1.012-3.998,4.674-6.869,8.812-6.869h2.682C42.13,48.057,45.792,50.928,46.803,54.926z"></path></g><g><path style="fill:#0CB4C4;" d="M29.846,20.174c0-2.886,2.347-5.232,5.229-5.232h2.05c2.883,0,5.229,2.347,5.229,5.232v2.279h1.649 v-2.279c0-3.795-3.087-6.881-6.879-6.881h-2.05c-3.792,0-6.879,3.086-6.879,6.881v2.279h1.65V20.174z"></path><path style="fill:#0CB4C4;" d="M44.349,22.799h-2.342v-2.625c0-2.694-2.19-4.887-4.883-4.887h-2.05 c-2.692,0-4.882,2.192-4.882,4.887v2.625H27.85v-2.625c0-3.985,3.241-7.227,7.225-7.227h2.05c3.983,0,7.225,3.242,7.225,7.227 V22.799z M42.701,22.107h0.957v-1.933c0-3.604-2.932-6.536-6.533-6.536h-2.05c-3.602,0-6.532,2.932-6.532,6.536v1.933H29.5v-1.933 c0-3.076,2.501-5.578,5.574-5.578h2.05c3.074,0,5.576,2.502,5.576,5.578V22.107z"></path></g><g><path style="fill:#0CB4C4;" d="M30.266,6.179c0,3.216,2.616,5.832,5.835,5.832c3.216,0,5.833-2.616,5.833-5.832 c0-3.217-2.617-5.833-5.833-5.833C32.882,0.346,30.266,2.962,30.266,6.179z M40.286,6.179c0,2.308-1.878,4.185-4.184,4.185 c-2.309,0-4.185-1.877-4.185-4.185c0-2.307,1.877-4.185,4.185-4.185C38.408,1.994,40.286,3.872,40.286,6.179z"></path><path style="fill:#0CB4C4;" d="M36.101,12.357c-3.408,0-6.181-2.771-6.181-6.178C29.92,2.771,32.693,0,36.101,0 c3.407,0,6.179,2.771,6.179,6.179C42.28,9.585,39.508,12.357,36.101,12.357z M36.101,0.691c-3.026,0-5.488,2.461-5.488,5.488 c0,3.025,2.462,5.487,5.488,5.487c3.025,0,5.487-2.462,5.487-5.487C41.588,3.153,39.126,0.691,36.101,0.691z M36.102,10.709 c-2.498,0-4.531-2.032-4.531-4.53c0-2.499,2.033-4.53,4.531-4.53s4.528,2.032,4.528,4.53C40.63,8.677,38.6,10.709,36.102,10.709z M36.102,2.34c-2.116,0-3.839,1.722-3.839,3.839c0,2.117,1.723,3.839,3.839,3.839c2.115,0,3.838-1.722,3.838-3.839 C39.94,4.062,38.217,2.34,36.102,2.34z"></path></g><g><path style="fill:#0CB4C4;" d="M64.018,35.357h2.049c2.885,0,5.229,2.347,5.229,5.23v3.619H60.996l0.227,1.651h11.724v-5.271 c0-3.794-3.085-6.879-6.879-6.879h-2.049c-1.61,0-3.09,0.561-4.263,1.489l0.275,2.013C60.992,36.078,62.419,35.357,64.018,35.357z "></path><path style="fill:#0CB4C4;" d="M73.292,46.204H60.919l-0.32-2.342H70.95v-3.274c0-2.693-2.189-4.885-4.883-4.885h-2.049 c-1.433,0-2.79,0.631-3.724,1.731l-0.502,0.591l-0.406-2.976l0.155-0.123c1.291-1.023,2.84-1.563,4.477-1.563h2.049 c3.983,0,7.225,3.24,7.225,7.225V46.204z M61.524,45.513H72.6v-4.925c0-3.603-2.931-6.533-6.533-6.533h-2.049 c-1.414,0-2.756,0.447-3.892,1.295l0.15,1.109c1.021-0.927,2.35-1.447,3.741-1.447h2.049c3.073,0,5.575,2.501,5.575,5.576v3.965 H61.393L61.524,45.513z"></path></g><g><path style="fill:#0CB4C4;" d="M65.042,20.761c-3.216,0-5.832,2.616-5.832,5.834c0,3.216,2.616,5.833,5.832,5.833 c3.217,0,5.833-2.618,5.833-5.833C70.875,23.377,68.259,20.761,65.042,20.761z M65.042,30.779c-2.307,0-4.185-1.876-4.185-4.184 c0-2.309,1.878-4.184,4.185-4.184c2.308,0,4.185,1.875,4.185,4.184C69.227,28.902,67.35,30.779,65.042,30.779z"></path><path style="fill:#0CB4C4;" d="M65.042,32.774c-3.406,0-6.179-2.771-6.179-6.179c0-3.407,2.772-6.18,6.179-6.18 c3.407,0,6.179,2.772,6.179,6.18C71.221,30.003,68.45,32.774,65.042,32.774z M65.042,21.106c-3.025,0-5.485,2.462-5.485,5.489 s2.46,5.488,5.485,5.488s5.486-2.461,5.486-5.488S68.068,21.106,65.042,21.106z M65.042,31.125c-2.498,0-4.53-2.032-4.53-4.53 c0-2.497,2.032-4.529,4.53-4.529s4.53,2.032,4.53,4.529C69.573,29.093,67.541,31.125,65.042,31.125z M65.042,22.757 c-2.117,0-3.839,1.722-3.839,3.838c0,2.116,1.722,3.838,3.839,3.838s3.839-1.722,3.839-3.838 C68.881,24.479,67.16,22.757,65.042,22.757z"></path></g><g><path style="fill:#0CB4C4;" d="M12.304,44.207h-10.3v-3.619c0-2.882,2.346-5.23,5.229-5.23h2.049c1.598,0,3.026,0.721,3.986,1.854 l0.279-2.013c-1.175-0.93-2.653-1.489-4.265-1.489H7.235c-3.795,0-6.881,3.085-6.881,6.879v5.271h11.725L12.304,44.207z"></path><path style="fill:#0CB4C4;" d="M12.381,46.204H0.008v-5.616c0-3.984,3.241-7.225,7.227-7.225h2.049 c1.637,0,3.187,0.54,4.479,1.563l0.155,0.123l-0.413,2.975l-0.5-0.59c-0.933-1.101-2.29-1.731-3.723-1.731H7.234 c-2.693,0-4.884,2.191-4.884,4.885v3.274h10.351L12.381,46.204z M0.7,45.513h11.077l0.132-0.96H1.658v-3.965 c0-3.075,2.501-5.576,5.576-5.576h2.049c1.392,0,2.721,0.521,3.741,1.448l0.154-1.11c-1.138-0.848-2.48-1.295-3.895-1.295H7.235 c-3.604,0-6.535,2.931-6.535,6.533V45.513z"></path></g><g><path style="fill:#0CB4C4;" d="M2.425,26.595c0,3.216,2.616,5.833,5.833,5.833c3.216,0,5.831-2.618,5.831-5.833 c0-3.218-2.615-5.834-5.831-5.834C5.042,20.761,2.425,23.377,2.425,26.595z M12.443,26.595c0,2.307-1.878,4.184-4.184,4.184 c-2.307,0-4.185-1.876-4.185-4.184c0-2.309,1.878-4.184,4.185-4.184C10.565,22.412,12.443,24.286,12.443,26.595z"></path><path style="fill:#0CB4C4;" d="M8.258,32.774c-3.407,0-6.18-2.771-6.18-6.179c0-3.407,2.772-6.18,6.18-6.18 c3.406,0,6.178,2.772,6.178,6.18C14.436,30.003,11.665,32.774,8.258,32.774z M8.258,21.106c-3.025,0-5.487,2.462-5.487,5.489 s2.462,5.488,5.487,5.488c3.024,0,5.485-2.461,5.485-5.488S11.283,21.106,8.258,21.106z M8.259,31.125 c-2.498,0-4.53-2.032-4.53-4.53c0-2.497,2.032-4.529,4.53-4.529c2.497,0,4.529,2.032,4.529,4.529 C12.789,29.093,10.756,31.125,8.259,31.125z M8.259,22.757c-2.117,0-3.839,1.722-3.839,3.838c0,2.116,1.722,3.838,3.839,3.838 c2.115,0,3.837-1.722,3.837-3.838C12.096,24.479,10.375,22.757,8.259,22.757z"></path></g></g></svg>