<svg version="1.1" id="Layer_1" xmlns="http://www.w3.org/2000/svg" xmlns:xlink="http://www.w3.org/1999/xlink" x="0px" y="0px" width="72px" height="60px" viewBox="0 0 72 60" style="enable-background:new 0 0 72 60;" xml:space="preserve"><g><path style="fill:#0CB4C4;" d="M4.354,0v50.442h-2.93c-0.452,0-0.881,0.218-1.147,0.584c-0.268,0.364-0.345,0.84-0.204,1.268 l1.592,4.982C2.185,58.906,3.681,60,5.391,60h61.217c4.232,0,4.128-5.16,5.321-7.703c0.137-0.431,0.062-0.904-0.205-1.271 c-0.266-0.366-0.694-0.584-1.148-0.584h-2.928V0H4.354z M6.61,2.256H65.39v48.187H6.61V2.256z M69.431,52.699 c-1.085,2.61-0.883,5.045-2.823,5.045H5.391c-0.724,0-1.357-0.463-1.577-1.153L2.57,52.699h1.784v0.002h63.293v-0.002H69.431z"></path><path style="fill:#0CB4C4;" d="M9.093,5.707v41.288c19.006,0,33.087,0,53.814,0V5.707H9.093z M22.031,44.595v-7.92 c0-1.265,0.895-2.369,2.13-2.627l4.343-0.914c-0.183,0.32-0.206,0.845,0.062,1.219l3.001,4.189c0.423,0.587,1.22,0.587,1.672,0.181 l0.384-0.348l-1.18,6.364H22.174C22.094,44.739,22.031,44.675,22.031,44.595z M30.103,14.297c-0.112-3.187,1.433-2.894,1.585-3.064 c0.01-0.003,0.751-0.338,1.904-0.338c1.488,0,4.761,1.158,8.259,0.736c0.062,0.783,0.09,2.024-0.042,3.842 c-3.205-1.867-7.398-2.438-10.973-1.691l-0.433,0.089C30.248,14.091,30.224,14.124,30.103,14.297z M31.743,15.906 c2.978-0.495,6.353-0.046,9.107,1.621l0.726,1.243c1.049,5.862-3.509,10.777-7.692,8.369c-2.05-1.169-3.374-3.793-3.374-6.681 C30.51,18.896,31.048,17.032,31.743,15.906z M38.359,29.604l0.442,0.965L36,33.261l-2.805-2.688l0.475-1.041 C35.188,30.139,36.778,30.176,38.359,29.604z M30.912,33.753l1.048-1.24l2.347,2.252c-0.549,0.437-1.745,1.531-1.641,1.437 L30.912,33.753z M37.693,34.762l2.344-2.252l1.044,1.241l-1.753,2.45C39.214,36.103,37.581,34.663,37.693,34.762z M34.739,44.739 l1.133-6.114h0.197l1.135,6.114H34.739z M39.5,44.739l-1.19-6.408l0.444,0.391c0.481,0.435,1.271,0.383,1.674-0.18 c2.256-3.525,3.695-4.307,3.059-5.411l4.348,0.917c1.235,0.258,2.133,1.362,2.133,2.627v7.92c0,0.077-0.065,0.145-0.141,0.145H39.5 z M60.651,44.739H52.21c0.003-0.049,0.015-0.096,0.015-0.145v-7.92c0-2.325-1.653-4.36-3.928-4.836l-7.094-1.497 c-0.467-0.989-0.925-1.958-0.864-1.832c2.618-2.03,4.207-5.944,3.447-10.151c0.756-6.063,0.145-8.253,0.072-8.483L43.4,8.566 l-1.212,0.688c-0.84,0.485-4.923,0.03-6.462-0.345c-2.581-0.658-6.009-0.062-7.176,1.943c-1.382,2.375-0.385,6.294-0.065,7.389 c-0.145,0.735-0.23,1.479-0.23,2.218c0,3.192,1.332,6.157,3.465,7.911l-0.847,1.852l-0.108,0.132l-7.066,1.485 c-2.273,0.475-3.923,2.509-3.923,4.836v7.92c0,0.049,0.012,0.096,0.015,0.145h-8.441V7.962h49.303V44.739z"></path><rect x="9.275" y="54.093" style="fill:#0CB4C4;" width="2.543" height="2.256"></rect><rect x="14.5" y="54.093" style="fill:#0CB4C4;" width="2.544" height="2.256"></rect><rect x="19.726" y="54.093" style="fill:#0CB4C4;" width="2.544" height="2.256"></rect></g></svg>