<svg version="1.1" id="Layer_1" xmlns="http://www.w3.org/2000/svg" xmlns:xlink="http://www.w3.org/1999/xlink" x="0px" y="0px" width="60px" height="60px" viewBox="0 0 60 60" style="enable-background:new 0 0 60 60;" xml:space="preserve"><g><path style="fill:#0CB4C4;" d="M58.289,16.43c-0.472,0.211-0.684,0.767-0.472,1.238c0,0.003,0.003,0.006,0.003,0.008 c0.051,0.107,0.095,0.217,0.131,0.33c0.164,0.49,0.693,0.756,1.188,0.594c0.49-0.162,0.756-0.694,0.594-1.186 c-0.056-0.184-0.123-0.363-0.201-0.539C59.309,16.411,58.755,16.212,58.289,16.43z"></path><path style="fill:#0CB4C4;" d="M60,30.347c0-0.518-0.42-0.938-0.938-0.938s-0.938,0.42-0.938,0.938v0.469 c0,0.518,0.42,0.938,0.938,0.938S60,31.333,60,30.815V30.347z"></path><path style="fill:#0CB4C4;" d="M60,27.065c0-0.518-0.42-0.938-0.938-0.938s-0.938,0.42-0.938,0.938v0.469 c0,0.518,0.42,0.938,0.938,0.938S60,28.052,60,27.534V27.065z"></path><path style="fill:#0CB4C4;" d="M60,33.628c0-0.518-0.42-0.938-0.938-0.938s-0.938,0.42-0.938,0.938v0.469 c0,0.518,0.42,0.938,0.938,0.938S60,34.614,60,34.097V33.628z"></path><path style="fill:#0CB4C4;" d="M60,23.784c0-0.518-0.42-0.938-0.938-0.938s-0.938,0.42-0.938,0.938v0.469 c0,0.518,0.42,0.938,0.938,0.938S60,24.771,60,24.253V23.784z"></path><path style="fill:#0CB4C4;" d="M60,20.503c0-0.518-0.42-0.938-0.938-0.938s-0.938,0.42-0.938,0.938v0.469 c0,0.518,0.42,0.938,0.938,0.938S60,21.489,60,20.972V20.503z"></path><path style="fill:#0CB4C4;" d="M56.925,40.313h0.146c0.156,0,0.313-0.012,0.469-0.037c0.512-0.082,0.859-0.564,0.776-1.076 s-0.565-0.859-1.077-0.776H57.07h-0.146c-0.518,0-0.938,0.42-0.938,0.938s0.42,0.938,0.938,0.938V40.313z"></path><path style="fill:#0CB4C4;" d="M53.555,14.063c-0.43,0.441-0.899,0.84-1.406,1.191c0.109,0.396,0.467,0.672,0.877,0.684h0.469 c0.518,0.018,0.95-0.39,0.968-0.907C54.479,14.513,54.072,14.08,53.555,14.063z"></path><path style="fill:#0CB4C4;" d="M56.006,16.078c0.113,0.035,0.225,0.078,0.333,0.127c0.473,0.212,1.026,0.001,1.239-0.472 c0.213-0.472,0.002-1.027-0.471-1.239c-0.175-0.08-0.354-0.148-0.539-0.207c-0.494-0.155-1.021,0.119-1.176,0.615 C55.236,15.396,55.512,15.923,56.006,16.078L56.006,16.078z"></path><path style="fill:#0CB4C4;" d="M59.063,38.315c0.518,0,0.938-0.42,0.938-0.938v-0.469c0-0.518-0.42-0.938-0.938-0.938 s-0.938,0.42-0.938,0.938v0.469C58.125,37.896,58.545,38.315,59.063,38.315z"></path><path style="fill:#0CB4C4;" d="M40.627,9.717c-0.459,0.242-0.635,0.809-0.395,1.266c0.082,0.152,0.168,0.309,0.258,0.469 c0.291,0.429,0.875,0.54,1.302,0.249c0.403-0.273,0.53-0.81,0.293-1.233c-0.069-0.109-0.134-0.222-0.192-0.338 c-0.232-0.461-0.797-0.647-1.259-0.414C40.631,9.715,40.629,9.717,40.627,9.717z"></path><path style="fill:#0CB4C4;" d="M41.513,3.6c-0.458-0.24-1.023-0.066-1.267,0.39c-0.08,0.153-0.156,0.31-0.225,0.469 c-0.271,0.44-0.134,1.019,0.309,1.289c0.44,0.271,1.018,0.134,1.289-0.308c0.043-0.068,0.076-0.145,0.1-0.223 c0.054-0.119,0.109-0.234,0.168-0.346C42.134,4.416,41.967,3.848,41.513,3.6z"></path><path style="fill:#0CB4C4;" d="M43.383,3.088c0.1-0.08,0.205-0.156,0.313-0.229c0.396-0.332,0.448-0.925,0.114-1.321 c-0.283-0.337-0.764-0.433-1.154-0.226c-0.145,0.096-0.283,0.2-0.418,0.309c-0.41,0.317-0.484,0.906-0.168,1.316 c0.317,0.41,0.906,0.484,1.316,0.168c0.007-0.005,0.013-0.011,0.02-0.018H43.383z"></path><path style="fill:#0CB4C4;" d="M39.375,7.5c0,0.174,0,0.347,0,0.516c0.024,0.5,0.438,0.891,0.938,0.891h0.066 c0.516-0.034,0.908-0.48,0.872-0.997c0-0.007-0.001-0.014-0.001-0.021c0-0.126,0-0.257,0-0.389V7.472 c0-0.518-0.42-0.938-0.938-0.938s-0.938,0.419-0.938,0.937C39.375,7.48,39.375,7.49,39.375,7.5z"></path><path style="fill:#0CB4C4;" d="M45.994,0.051c-0.172,0.022-0.348,0.049-0.525,0.081c-0.518,0.046-0.899,0.503-0.854,1.021 c0.048,0.519,0.504,0.9,1.021,0.854c0.059,0.005,0.116,0.005,0.174,0l0.385-0.056c0.519-0.062,0.889-0.53,0.827-1.049 c-0.061-0.518-0.529-0.888-1.048-0.826L45.994,0.051z"></path><path style="fill:#0CB4C4;" d="M49.551,0.492c-0.158-0.061-0.314-0.116-0.469-0.169c-0.5-0.127-1.011,0.177-1.138,0.679 c-0.12,0.468,0.137,0.949,0.591,1.112l0.369,0.127c0.485,0.183,1.026-0.062,1.211-0.544c0.183-0.484-0.062-1.025-0.545-1.209 L49.551,0.492z"></path><path style="fill:#0CB4C4;" d="M46.191,13.084c-0.519-0.064-0.988,0.306-1.051,0.824c-0.063,0.518,0.308,0.986,0.825,1.051 c0.169,0.021,0.339,0.035,0.511,0.041h0.052c0.518,0.015,0.95-0.393,0.963-0.912c0.014-0.518-0.394-0.948-0.911-0.963l0,0 L46.191,13.084z"></path><path style="fill:#0CB4C4;" d="M54.023,5.223c-0.174-0.488-0.711-0.742-1.199-0.569c-0.462,0.166-0.72,0.661-0.587,1.136 c0.038,0.121,0.072,0.246,0.104,0.375c0.1,0.42,0.476,0.716,0.908,0.717c0.075,0,0.15-0.01,0.225-0.027 c0.504-0.123,0.813-0.631,0.69-1.133c0,0,0,0-0.001-0.002C54.121,5.549,54.074,5.386,54.023,5.223z"></path><path style="fill:#0CB4C4;" d="M51.328,10.936c-0.078,0.104-0.161,0.203-0.249,0.3c-0.345,0.388-0.308,0.982,0.081,1.327 c0.388,0.344,0.98,0.309,1.325-0.08c0.116-0.128,0.226-0.261,0.329-0.397c0.328-0.4,0.27-0.991-0.131-1.321 c-0.4-0.326-0.992-0.268-1.318,0.133c-0.013,0.012-0.022,0.026-0.032,0.039H51.328z"></path><path style="fill:#0CB4C4;" d="M52.144,2.166c-0.386-0.346-0.978-0.314-1.323,0.071c-0.322,0.359-0.32,0.905,0.006,1.259 c0.094,0.092,0.184,0.187,0.268,0.287c0.343,0.388,0.936,0.425,1.324,0.082c0.389-0.344,0.425-0.936,0.082-1.324 C52.388,2.41,52.268,2.285,52.144,2.166z"></path><path style="fill:#0CB4C4;" d="M49.219,12.615c-0.117,0.056-0.239,0.102-0.361,0.148c-0.488,0.186-0.732,0.731-0.548,1.219 c0.185,0.488,0.731,0.734,1.22,0.549l0,0c0.16-0.063,0.316-0.129,0.469-0.201c0.473-0.215,0.684-0.773,0.469-1.246 C50.252,12.609,49.692,12.4,49.219,12.615z"></path><path style="fill:#0CB4C4;" d="M44.33,13.622c0.265-0.444,0.119-1.02-0.324-1.284c-0.111-0.066-0.222-0.136-0.328-0.211 c-0.437-0.279-1.017-0.149-1.294,0.287c-0.263,0.416-0.162,0.961,0.231,1.256c0.139,0.096,0.285,0.188,0.434,0.275 c0.445,0.265,1.02,0.119,1.285-0.323H44.33z"></path><path style="fill:#0CB4C4;" d="M53.244,10.021c0.433,0,0.808-0.294,0.911-0.713c0.04-0.166,0.075-0.334,0.107-0.505 c0.088-0.511-0.257-0.996-0.767-1.083c-0.508-0.086-0.988,0.253-1.08,0.758c0,0.127-0.048,0.254-0.08,0.381 c-0.124,0.504,0.183,1.012,0.686,1.136C53.095,10.012,53.169,10.021,53.244,10.021z"></path><path style="fill:#0CB4C4;" d="M47.813,45.469c0-0.518-0.42-0.938-0.938-0.938s-0.938,0.42-0.938,0.938v0.469 c0,0.518,0.42,0.938,0.938,0.938s0.938-0.42,0.938-0.938V45.469z"></path><path style="fill:#0CB4C4;" d="M47.813,48.75c0-0.518-0.42-0.938-0.938-0.938s-0.938,0.42-0.938,0.938v0.469 c0,0.518,0.42,0.938,0.938,0.938s0.938-0.42,0.938-0.938V48.75z"></path><path style="fill:#0CB4C4;" d="M47.813,52.031c0-0.518-0.42-0.938-0.938-0.938s-0.938,0.42-0.938,0.938V52.5 c0,0.518,0.42,0.938,0.938,0.938s0.938-0.42,0.938-0.938V52.031z"></path><path style="fill:#0CB4C4;" d="M47.813,42.188c0-0.518-0.42-0.938-0.938-0.938s-0.938,0.42-0.938,0.938v0.469 c0,0.518,0.42,0.938,0.938,0.938s0.938-0.42,0.938-0.938V42.188z"></path><path style="fill:#0CB4C4;" d="M47.813,55.781v-0.469c0-0.518-0.42-0.938-0.938-0.938s-0.938,0.42-0.938,0.938v0.469 c0,0.518,0.42,0.938,0.938,0.938S47.813,56.299,47.813,55.781z"></path><path style="fill:#0CB4C4;" d="M0.966,38.672c0.518,0.008,0.943-0.405,0.95-0.923c0.002-0.059-0.003-0.117-0.013-0.173 c-0.005-0.061-0.005-0.12,0-0.179v-0.127c0-0.518-0.42-0.938-0.938-0.938s-0.938,0.42-0.938,0.938v0.127 c-0.001,0.167,0.013,0.335,0.042,0.501C0.147,38.335,0.522,38.658,0.966,38.672z"></path><path style="fill:#0CB4C4;" d="M0.938,35.396c0.518,0,0.938-0.42,0.938-0.938v-0.469c0-0.518-0.42-0.938-0.938-0.938 S0,33.472,0,33.989v0.469C0,34.976,0.42,35.396,0.938,35.396z"></path><path style="fill:#0CB4C4;" d="M0.938,32.114c0.518,0,0.938-0.42,0.938-0.938v-0.469c0-0.518-0.42-0.938-0.938-0.938 S0,30.19,0,30.708v0.469C0,31.694,0.42,32.114,0.938,32.114z"></path><path style="fill:#0CB4C4;" d="M1.495,16.729c-0.487-0.176-1.024,0.076-1.2,0.563c-0.065,0.182-0.12,0.368-0.163,0.557 c-0.117,0.505,0.198,1.009,0.703,1.125c0.504,0.117,1.009-0.197,1.124-0.703l0,0c0.025-0.115,0.059-0.229,0.1-0.342 C2.234,17.443,1.982,16.906,1.495,16.729z"></path><path style="fill:#0CB4C4;" d="M0.938,25.552c0.518,0,0.938-0.42,0.938-0.938v-0.469c0-0.518-0.42-0.938-0.938-0.938 S0,23.628,0,24.146v0.469C0,25.132,0.42,25.552,0.938,25.552z"></path><path style="fill:#0CB4C4;" d="M2.958,16.447c0.165,0.003,0.325-0.04,0.469-0.121c0.104-0.057,0.214-0.109,0.323-0.154 c0.473-0.213,0.683-0.768,0.47-1.24c-0.204-0.454-0.728-0.669-1.192-0.489c-0.178,0.074-0.352,0.158-0.52,0.253 c-0.449,0.256-0.608,0.827-0.354,1.277c0.168,0.297,0.482,0.478,0.822,0.475H2.958z"></path><path style="fill:#0CB4C4;" d="M0.938,28.833c0.518,0,0.938-0.42,0.938-0.938v-0.469c0-0.518-0.42-0.938-0.938-0.938 S0,26.909,0,27.427v0.469C0,28.413,0.42,28.833,0.938,28.833z"></path><path style="fill:#0CB4C4;" d="M0.938,22.271c0.518,0,0.938-0.42,0.938-0.938v-0.469c0-0.518-0.42-0.938-0.938-0.938 S0,20.347,0,20.864v0.469C0,21.851,0.42,22.271,0.938,22.271z"></path><path style="fill:#0CB4C4;" d="M2.963,40.313h0.469c0.518,0,0.938-0.42,0.938-0.938s-0.42-0.938-0.938-0.938H2.963 c-0.52,0-0.938,0.42-0.938,0.938S2.443,40.313,2.963,40.313z"></path><path style="fill:#0CB4C4;" d="M6.15,15.938h0.469c0.518,0,0.938-0.42,0.938-0.938c-0.394-0.283-0.766-0.597-1.111-0.938H6.154 c-0.518,0-0.938,0.42-0.938,0.938s0.42,0.938,0.938,0.938H6.15z"></path><path style="fill:#0CB4C4;" d="M5.625,7.5c0,0.174,0,0.347,0,0.516c0.024,0.5,0.438,0.891,0.938,0.891h0.066 c0.516-0.034,0.908-0.48,0.872-0.997c0-0.007-0.001-0.014-0.001-0.021c0-0.126,0-0.257,0-0.389V7.472 c0-0.518-0.42-0.938-0.938-0.938S5.625,6.953,5.625,7.471C5.625,7.48,5.625,7.49,5.625,7.5z"></path><path style="fill:#0CB4C4;" d="M9.052,3.281c0.211,0,0.416-0.07,0.581-0.201c0.1-0.082,0.205-0.158,0.313-0.23 c0.385-0.348,0.415-0.94,0.067-1.324c-0.281-0.31-0.731-0.396-1.107-0.213c-0.145,0.096-0.283,0.2-0.418,0.309 c-0.397,0.331-0.453,0.922-0.124,1.32C8.534,3.146,8.784,3.271,9.052,3.281z"></path><path style="fill:#0CB4C4;" d="M12.216,14.943c0.169,0.022,0.339,0.037,0.511,0.042h0.052c0.518,0.015,0.95-0.394,0.963-0.911 c0.014-0.518-0.394-0.949-0.911-0.964l-0.389-0.032c-0.519-0.063-0.988,0.309-1.051,0.826s0.308,0.986,0.825,1.049V14.943z"></path><path style="fill:#0CB4C4;" d="M8.859,13.67C9,13.766,9.146,13.857,9.295,13.945c0.42,0.305,1.006,0.213,1.311-0.207 c0.304-0.418,0.211-1.005-0.207-1.309c-0.052-0.038-0.107-0.071-0.166-0.097c-0.113-0.065-0.222-0.136-0.328-0.212 c-0.437-0.276-1.016-0.148-1.293,0.289c-0.264,0.414-0.164,0.96,0.229,1.254L8.859,13.67z"></path><path style="fill:#0CB4C4;" d="M6.74,11.434c0.291,0.427,0.875,0.539,1.303,0.248c0.402-0.273,0.529-0.809,0.292-1.232 c-0.069-0.109-0.134-0.223-0.192-0.338C7.891,9.658,7.319,9.494,6.867,9.746C6.43,9.99,6.26,10.535,6.482,10.982 C6.564,11.139,6.65,11.289,6.74,11.434z"></path><path style="fill:#0CB4C4;" d="M12.08,1.973l0.383-0.057c0.518-0.061,0.889-0.529,0.828-1.047s-0.529-0.889-1.047-0.828 C12.072,0.07,11.896,0.1,11.719,0.132c-0.518,0.046-0.899,0.503-0.854,1.021c0.048,0.519,0.504,0.9,1.021,0.854 C11.953,2.002,12.017,1.991,12.08,1.973z"></path><path style="fill:#0CB4C4;" d="M14.146,0.938c-0.152,0.496,0.126,1.02,0.621,1.172c0,0,0.002,0,0.003,0l0.37,0.127 c0.484,0.184,1.026-0.06,1.209-0.545c0.184-0.482-0.06-1.025-0.544-1.208c-0.159-0.06-0.315-0.116-0.469-0.169 c-0.491-0.162-1.021,0.106-1.182,0.599C14.151,0.92,14.149,0.929,14.146,0.938z"></path><path style="fill:#0CB4C4;" d="M17.344,3.783c0.343,0.388,0.936,0.425,1.324,0.082c0.389-0.344,0.425-0.936,0.082-1.324 c-0.112-0.129-0.229-0.254-0.352-0.375c-0.386-0.346-0.979-0.314-1.323,0.071c-0.322,0.359-0.319,0.905,0.006,1.259 C17.172,3.588,17.26,3.683,17.344,3.783z"></path><path style="fill:#0CB4C4;" d="M7.763,3.6c-0.458-0.24-1.023-0.066-1.267,0.39c-0.08,0.153-0.156,0.31-0.225,0.469 C6.001,4.898,6.138,5.477,6.58,5.747c0.44,0.271,1.018,0.134,1.289-0.308c0.043-0.068,0.076-0.145,0.1-0.223 c0.054-0.119,0.109-0.234,0.168-0.346C8.384,4.416,8.217,3.848,7.763,3.6z"></path><path style="fill:#0CB4C4;" d="M17.578,10.936c-0.078,0.104-0.161,0.203-0.249,0.3c-0.345,0.388-0.308,0.982,0.081,1.327 c0.388,0.344,0.98,0.309,1.325-0.08l0,0c0.116-0.128,0.226-0.261,0.329-0.397c0.328-0.4,0.27-0.991-0.131-1.321 c-0.4-0.326-0.992-0.268-1.318,0.133c-0.013,0.012-0.022,0.026-0.032,0.039H17.578z"></path><path style="fill:#0CB4C4;" d="M19.494,10.021c0.433,0,0.808-0.294,0.911-0.713c0.04-0.166,0.075-0.334,0.107-0.505 c0.087-0.511-0.257-0.996-0.767-1.081c-0.508-0.088-0.988,0.251-1.08,0.756c0,0.127-0.048,0.254-0.08,0.381 c-0.124,0.504,0.183,1.012,0.686,1.136C19.345,10.012,19.419,10.021,19.494,10.021z"></path><path style="fill:#0CB4C4;" d="M16.717,13.074c-0.214-0.473-0.77-0.684-1.24-0.471c-0.002,0-0.003,0.002-0.003,0.002 c-0.117,0.056-0.239,0.102-0.361,0.148c-0.491,0.185-0.739,0.731-0.556,1.222c0.185,0.491,0.731,0.739,1.223,0.556 c0.16-0.063,0.316-0.129,0.469-0.201c0.473-0.21,0.686-0.764,0.476-1.236C16.721,13.086,16.719,13.08,16.717,13.074z"></path><path style="fill:#0CB4C4;" d="M19.5,6.881c0.075,0,0.15-0.01,0.225-0.027c0.504-0.123,0.813-0.631,0.69-1.133c0,0,0,0-0.001-0.002 c-0.043-0.17-0.09-0.333-0.141-0.496C20.1,4.734,19.563,4.48,19.074,4.653c-0.462,0.166-0.72,0.661-0.587,1.136 c0.038,0.121,0.072,0.246,0.104,0.375C18.691,6.584,19.067,6.88,19.5,6.881z"></path><path style="fill:#0CB4C4;" d="M14.063,52.031c0-0.518-0.42-0.938-0.938-0.938s-0.938,0.42-0.938,0.938V52.5 c0,0.518,0.42,0.938,0.938,0.938s0.938-0.42,0.938-0.938V52.031z"></path><path style="fill:#0CB4C4;" d="M14.063,42.188c0-0.518-0.42-0.938-0.938-0.938s-0.938,0.42-0.938,0.938v0.469 c0,0.518,0.42,0.938,0.938,0.938s0.938-0.42,0.938-0.938V42.188z"></path><path style="fill:#0CB4C4;" d="M14.063,55.781v-0.469c0-0.518-0.42-0.938-0.938-0.938s-0.938,0.42-0.938,0.938v0.469 c0,0.518,0.42,0.938,0.938,0.938S14.063,56.299,14.063,55.781z"></path><path style="fill:#0CB4C4;" d="M14.063,45.469c0-0.518-0.42-0.938-0.938-0.938s-0.938,0.42-0.938,0.938v0.469 c0,0.518,0.42,0.938,0.938,0.938s0.938-0.42,0.938-0.938V45.469z"></path><path style="fill:#0CB4C4;" d="M14.063,48.75c0-0.518-0.42-0.938-0.938-0.938s-0.938,0.42-0.938,0.938v0.469 c0,0.518,0.42,0.938,0.938,0.938s0.938-0.42,0.938-0.938V48.75z"></path><path style="fill:#0CB4C4;" d="M52.064,59.93c0.089,0,0.177-0.013,0.262-0.037c0.228-0.067,0.445-0.164,0.647-0.285 c0.434-0.283,0.556-0.865,0.272-1.299c-0.27-0.413-0.813-0.546-1.243-0.306c-0.064,0.039-0.134,0.068-0.206,0.089 c-0.497,0.146-0.782,0.666-0.637,1.164c0.117,0.398,0.482,0.674,0.899,0.674H52.064z"></path><path style="fill:#0CB4C4;" d="M42.229,60h0.469c0.518,0,0.938-0.42,0.938-0.938s-0.42-0.938-0.938-0.938h-0.469 c-0.518,0-0.938,0.42-0.938,0.938S41.711,60,42.229,60z"></path><path style="fill:#0CB4C4;" d="M45.51,60h0.469c0.518,0,0.938-0.42,0.938-0.938s-0.42-0.938-0.938-0.938H45.51 c-0.518,0-0.938,0.42-0.938,0.938S44.992,60,45.51,60z"></path><path style="fill:#0CB4C4;" d="M48.791,58.125c-0.518,0-0.938,0.42-0.938,0.938S48.273,60,48.791,60h0.469 c0.518,0,0.938-0.42,0.938-0.938s-0.42-0.938-0.938-0.938H48.791z"></path><path style="fill:#0CB4C4;" d="M41.25,57.225c-0.002-0.049-0.002-0.1,0-0.149v-0.206c0-0.52-0.42-0.938-0.938-0.938 s-0.938,0.418-0.938,0.938v0.206c-0.008,0.127-0.008,0.254,0,0.38c0.059,0.471,0.461,0.824,0.938,0.82h0.117 c0.514-0.061,0.881-0.526,0.821-1.041C41.25,57.231,41.25,57.228,41.25,57.225z"></path><path style="fill:#0CB4C4;" d="M40.313,45.154c0.518,0,0.938-0.419,0.938-0.938v-0.469c0-0.518-0.42-0.938-0.938-0.938 s-0.938,0.42-0.938,0.938v0.469C39.375,44.735,39.795,45.154,40.313,45.154z"></path><path style="fill:#0CB4C4;" d="M39.375,54.061c0,0.519,0.42,0.938,0.938,0.938s0.938-0.419,0.938-0.938v-0.469 c0-0.518-0.42-0.938-0.938-0.938s-0.938,0.42-0.938,0.938V54.061z"></path><path style="fill:#0CB4C4;" d="M39.375,50.779c0,0.519,0.42,0.938,0.938,0.938s0.938-0.419,0.938-0.938v-0.469 c0-0.518-0.42-0.938-0.938-0.938s-0.938,0.42-0.938,0.938V50.779z"></path><path style="fill:#0CB4C4;" d="M39.375,47.498c0,0.519,0.42,0.938,0.938,0.938s0.938-0.419,0.938-0.938v-0.469 c0-0.518-0.42-0.938-0.938-0.938s-0.938,0.42-0.938,0.938V47.498z"></path><path style="fill:#0CB4C4;" d="M54.375,42.727c0-0.518-0.42-0.938-0.938-0.938s-0.938,0.42-0.938,0.938v0.469 c0,0.518,0.42,0.938,0.938,0.938s0.938-0.42,0.938-0.938V42.727z"></path><path style="fill:#0CB4C4;" d="M54.375,36.164c0-0.518-0.42-0.938-0.938-0.938s-0.938,0.42-0.938,0.938v0.469 c0,0.518,0.42,0.938,0.938,0.938s0.938-0.42,0.938-0.938V36.164z"></path><path style="fill:#0CB4C4;" d="M54.375,39.445c0-0.518-0.42-0.938-0.938-0.938s-0.938,0.42-0.938,0.938v0.469 c0,0.518,0.42,0.938,0.938,0.938s0.938-0.42,0.938-0.938V39.445z"></path><path style="fill:#0CB4C4;" d="M54.375,32.883c0-0.518-0.42-0.938-0.938-0.938s-0.938,0.42-0.938,0.938v0.469 c0,0.518,0.42,0.938,0.938,0.938s0.938-0.42,0.938-0.938V32.883z"></path><path style="fill:#0CB4C4;" d="M54.375,46.008c0-0.518-0.42-0.938-0.938-0.938S52.5,45.49,52.5,46.008v0.469 c0,0.518,0.42,0.938,0.938,0.938s0.938-0.42,0.938-0.938V46.008z"></path><path style="fill:#0CB4C4;" d="M54.375,52.57c0-0.518-0.42-0.938-0.938-0.938S52.5,52.053,52.5,52.57v0.469 c0,0.518,0.42,0.938,0.938,0.938s0.938-0.42,0.938-0.938V52.57z"></path><path style="fill:#0CB4C4;" d="M54.375,49.289c0-0.518-0.42-0.938-0.938-0.938s-0.938,0.42-0.938,0.938v0.469 c0,0.518,0.42,0.938,0.938,0.938s0.938-0.42,0.938-0.938V49.289z"></path><path style="fill:#0CB4C4;" d="M54.375,56.32v-0.469c0-0.518-0.42-0.938-0.938-0.938s-0.938,0.42-0.938,0.938v0.469 c0,0.518,0.42,0.938,0.938,0.938S54.375,56.838,54.375,56.32z"></path><path style="fill:#0CB4C4;" d="M7.5,33.904c0-0.518-0.42-0.938-0.938-0.938s-0.938,0.42-0.938,0.938v0.469 c0,0.519,0.42,0.938,0.938,0.938S7.5,34.892,7.5,34.373V33.904z"></path><path style="fill:#0CB4C4;" d="M7.5,37.186c0-0.518-0.42-0.938-0.938-0.938s-0.938,0.42-0.938,0.938v0.469 c0,0.519,0.42,0.938,0.938,0.938S7.5,38.173,7.5,37.654V37.186z"></path><path style="fill:#0CB4C4;" d="M7.5,40.467c0-0.518-0.42-0.938-0.938-0.938s-0.938,0.42-0.938,0.938v0.469 c0,0.519,0.42,0.938,0.938,0.938S7.5,41.454,7.5,40.936V40.467z"></path><path style="fill:#0CB4C4;" d="M20.625,52.57c0-0.518-0.42-0.938-0.938-0.938s-0.938,0.42-0.938,0.938v0.469 c0,0.518,0.42,0.938,0.938,0.938s0.938-0.42,0.938-0.938V52.57z"></path><path style="fill:#0CB4C4;" d="M7.5,43.748c0-0.518-0.42-0.938-0.938-0.938s-0.938,0.42-0.938,0.938v0.469 c0,0.519,0.42,0.938,0.938,0.938S7.5,44.735,7.5,44.217V43.748z"></path><path style="fill:#0CB4C4;" d="M20.625,42.727c0-0.192-0.061-0.382-0.174-0.539h-0.646c-0.273-0.002-0.547-0.027-0.815-0.076 c-0.15,0.172-0.233,0.389-0.234,0.615v0.469c0,0.518,0.42,0.938,0.938,0.938s0.938-0.42,0.938-0.938L20.625,42.727z"></path><path style="fill:#0CB4C4;" d="M20.625,49.289c0-0.518-0.42-0.938-0.938-0.938s-0.938,0.42-0.938,0.938v0.469 c0,0.518,0.42,0.938,0.938,0.938s0.938-0.42,0.938-0.938V49.289z"></path><path style="fill:#0CB4C4;" d="M20.625,46.008c0-0.518-0.42-0.938-0.938-0.938s-0.938,0.42-0.938,0.938v0.469 c0,0.518,0.42,0.938,0.938,0.938s0.938-0.42,0.938-0.938V46.008z"></path><path style="fill:#0CB4C4;" d="M20.625,55.852c0-0.518-0.42-0.938-0.938-0.938s-0.938,0.42-0.938,0.938v0.469 c0,0.518,0.42,0.938,0.938,0.938s0.938-0.42,0.938-0.938V55.852z"></path><path style="fill:#0CB4C4;" d="M8.479,58.125c-0.518,0-0.938,0.42-0.938,0.938S7.961,60,8.479,60h0.469 c0.518,0,0.938-0.42,0.938-0.938s-0.42-0.938-0.938-0.938H8.479z"></path><path style="fill:#0CB4C4;" d="M11.76,60h0.469c0.518,0,0.938-0.42,0.938-0.938s-0.42-0.938-0.938-0.938H11.76 c-0.518,0-0.938,0.42-0.938,0.938S11.242,60,11.76,60z"></path><path style="fill:#0CB4C4;" d="M15.041,60h0.469c0.518,0,0.938-0.42,0.938-0.938s-0.42-0.938-0.938-0.938h-0.469 c-0.518,0-0.938,0.42-0.938,0.938S14.523,60,15.041,60z"></path><path style="fill:#0CB4C4;" d="M19.542,58.318c-0.269-0.443-0.846-0.584-1.288-0.315c0,0,0,0-0.001,0 c-0.064,0.039-0.134,0.068-0.206,0.089c-0.497,0.146-0.781,0.668-0.635,1.166c0.146,0.496,0.666,0.781,1.164,0.635 c0.228-0.067,0.445-0.164,0.647-0.285c0.444-0.268,0.587-0.844,0.319-1.287C19.543,58.319,19.543,58.318,19.542,58.318z"></path><path style="fill:#0CB4C4;" d="M7.5,50.311c0-0.518-0.42-0.938-0.938-0.938s-0.938,0.42-0.938,0.938v0.469 c0,0.519,0.42,0.938,0.938,0.938S7.5,51.298,7.5,50.779V50.311z"></path><path style="fill:#0CB4C4;" d="M7.5,57.225c-0.002-0.049-0.002-0.1,0-0.149v-0.206c0-0.52-0.42-0.938-0.938-0.938 s-0.938,0.418-0.938,0.938v0.206c-0.008,0.127-0.008,0.254,0,0.38c0.059,0.471,0.461,0.824,0.938,0.82H6.68 c0.514-0.061,0.881-0.526,0.821-1.041C7.5,57.231,7.5,57.228,7.5,57.225z"></path><path style="fill:#0CB4C4;" d="M7.5,47.029c0-0.518-0.42-0.938-0.938-0.938s-0.938,0.42-0.938,0.938v0.469 c0,0.519,0.42,0.938,0.938,0.938S7.5,48.017,7.5,47.498V47.029z"></path><path style="fill:#0CB4C4;" d="M6.563,52.654c-0.518,0-0.938,0.42-0.938,0.938v0.469c0,0.519,0.42,0.938,0.938,0.938 S7.5,54.579,7.5,54.061v-0.469C7.5,53.074,7.08,52.654,6.563,52.654z"></path><path style="fill:#0CB4C4;" d="M43.125,37.397V18.951c-0.01-2.706-2.209-4.894-4.917-4.889h-1.523 c-0.762,0.771-1.649,1.406-2.624,1.875h4.147c1.671-0.005,3.032,1.343,3.042,3.014v18.446c-0.002,0.576-0.473,1.042-1.05,1.04 c-0.003,0-0.003,0-0.005,0H37.5v-5.625c0-0.518-0.42-0.938-0.938-0.938s-0.938,0.42-0.938,0.938v24.263 c0.029,0.548-0.39,1.017-0.938,1.05h-3.75V42.188c0-0.518-0.42-0.938-0.938-0.938s-0.938,0.42-0.938,0.938v15.938h-3.75 c-0.548-0.033-0.967-0.502-0.938-1.05V32.813c0-0.518-0.42-0.938-0.938-0.938s-0.938,0.42-0.938,0.938v5.625h-2.695 c-0.577,0.005-1.05-0.459-1.055-1.035c0-0.002,0-0.004,0-0.005V18.951c0.01-1.671,1.371-3.019,3.042-3.014h4.147 c-0.975-0.469-1.862-1.104-2.624-1.875h-1.523c-2.708-0.005-4.907,2.183-4.917,4.889v18.446c0.005,1.614,1.316,2.917,2.93,2.915 H22.5v16.763c-0.031,1.585,1.229,2.894,2.812,2.925c0.001,0,0.001,0,0.001,0h9.375c1.584-0.03,2.843-1.34,2.813-2.924 c0-0.001,0-0.001,0-0.001V40.313h2.695C41.809,40.314,43.12,39.012,43.125,37.397z"></path><path style="fill:#0CB4C4;" d="M37.5,7.5C37.5,3.358,34.142,0,30,0s-7.5,3.358-7.5,7.5S25.858,15,30,15S37.5,11.642,37.5,7.5z M30,13.125c-3.106,0-5.625-2.519-5.625-5.625S26.894,1.875,30,1.875s5.625,2.519,5.625,5.625S33.106,13.125,30,13.125z"></path><path style="fill:#0CB4C4;" d="M11.25,29.063c0.518-0.002,0.936-0.424,0.934-0.941c-0.001-0.246-0.099-0.482-0.271-0.658 l-1.68-1.682l1.684-1.682c0.367-0.367,0.367-0.961,0-1.328s-0.961-0.367-1.328,0l-1.682,1.684l-1.682-1.684 c-0.367-0.367-0.961-0.367-1.328,0s-0.367,0.961,0,1.328l0,0l1.684,1.682l-1.684,1.682c-0.367,0.367-0.367,0.961,0,1.328 s0.961,0.367,1.328,0l0,0l1.682-1.684l1.682,1.684C10.764,28.965,11.002,29.063,11.25,29.063z"></path><path style="fill:#0CB4C4;" d="M52.307,28.787c0.367,0.365,0.961,0.365,1.328,0c0.367-0.367,0.367-0.961,0-1.328l-1.684-1.678 l1.684-1.682c0.367-0.367,0.367-0.961,0-1.328s-0.961-0.367-1.328,0l-1.682,1.684l-1.682-1.684c-0.367-0.367-0.961-0.367-1.328,0 s-0.367,0.961,0,1.328l1.684,1.682l-1.684,1.682c-0.367,0.367-0.367,0.961,0,1.328s0.961,0.367,1.328,0l1.682-1.684L52.307,28.787z "></path><path style="fill:#0CB4C4;" d="M32.344,23.799l-3.408,1.959l-1.04-1.209c-0.296-0.426-0.88-0.53-1.305-0.234 c-0.427,0.295-0.531,0.879-0.235,1.305c0.039,0.055,0.084,0.105,0.134,0.152l1.547,1.801c0.293,0.34,0.787,0.425,1.177,0.201 l4.078-2.344c0.449-0.259,0.604-0.832,0.344-1.281c-0.258-0.449-0.832-0.604-1.281-0.345L32.344,23.799z"></path></g></svg>