<svg version="1.1" id="Layer_1" xmlns="http://www.w3.org/2000/svg" xmlns:xlink="http://www.w3.org/1999/xlink" x="0px" y="0px" width="53.7px" height="60px" viewBox="0 0 53.7 60" style="enable-background:new 0 0 53.7 60;" xml:space="preserve"><g><path style="fill:#0CB4C4;" d="M44.218,9.474v1.579c0,0.873-0.706,1.579-1.579,1.579c-0.872,0-1.578-0.706-1.578-1.579V9.474 H28.429v1.579c0,0.873-0.706,1.579-1.579,1.579s-1.579-0.706-1.579-1.579V9.474H12.639v1.579c0,0.873-0.706,1.579-1.578,1.579 c-0.873,0-1.579-0.706-1.579-1.579V9.474H4.745c-0.872,0-1.579,0.706-1.579,1.579v4.736h47.369v-4.736 c0-0.873-0.707-1.579-1.579-1.579H44.218z M44.218,6.315h4.737c2.618,0,4.736,2.122,4.736,4.737v44.21 c0,2.615-2.118,4.737-4.736,4.737H4.745c-2.616,0-4.736-2.122-4.736-4.737v-44.21c0-2.615,2.12-4.737,4.736-4.737h4.737V1.579 C9.482,0.706,10.188,0,11.061,0c0.872,0,1.578,0.706,1.578,1.579v4.736h12.632V1.579C25.271,0.706,25.977,0,26.85,0 s1.579,0.706,1.579,1.579v4.736h12.632V1.579C41.061,0.706,41.767,0,42.639,0c0.873,0,1.579,0.706,1.579,1.579V6.315z M50.535,18.947H3.166v36.315c0,0.873,0.707,1.579,1.579,1.579h44.211c0.872,0,1.579-0.706,1.579-1.579V18.947z M25.734,22.567 c0.616-0.616,1.616-0.616,2.232,0l12.632,12.632c0.296,0.296,0.463,0.697,0.463,1.116v15.79c0,0.872-0.707,1.579-1.579,1.579 h-9.474c-0.873,0-1.579-0.707-1.579-1.579v-6.316c0-0.871-0.708-1.578-1.579-1.578s-1.579,0.707-1.579,1.578v6.316 c0,0.872-0.706,1.579-1.579,1.579h-9.474c-0.872,0-1.579-0.707-1.579-1.579v-15.79c0-0.419,0.167-0.82,0.463-1.116L25.734,22.567z M26.85,25.917L15.797,36.97v13.557h6.315v-4.737c0-2.614,2.122-4.736,4.737-4.736s4.737,2.122,4.737,4.736v4.737h6.315V36.97 L26.85,25.917z"></path></g></svg>