<svg version="1.1" id="Layer_1" xmlns="http://www.w3.org/2000/svg" xmlns:xlink="http://www.w3.org/1999/xlink" x="0px" y="0px" width="60px" height="60px" viewBox="0 0 60 60" style="enable-background:new 0 0 60 60;" xml:space="preserve"><g><path style="fill:#0CB4C4;" d="M1.875,0C0.839,0.003,0.002,0.844,0.004,1.879c0,0.001,0,0.003,0,0.004v20.5 c0,1.036,0.84,1.878,1.876,1.878c1.037,0,1.878-0.84,1.878-1.878l0,0V3.75h18.629c1.036,0.022,1.894-0.798,1.916-1.833 C24.326,0.882,23.506,0.022,22.47,0c-0.028,0-0.055,0-0.083,0H1.875z M37.624,0c-1.035-0.022-1.893,0.799-1.916,1.834 s0.798,1.894,1.833,1.916c0.027,0,0.057,0,0.083,0h18.629v11.129c0,1.037,0.842,1.877,1.877,1.877c1.037,0,1.877-0.84,1.877-1.877 V1.883C60.011,0.848,59.175,0.004,58.14,0c-0.005,0-0.01,0-0.015,0H37.624z M1.875,28.125c-1.036-0.023-1.893,0.799-1.916,1.834 s0.797,1.893,1.833,1.916c0.028,0,0.056,0,0.083,0h56.25c1.035,0.021,1.893-0.799,1.916-1.834c0.023-1.034-0.798-1.894-1.833-1.916 c-0.027,0-0.057,0-0.083,0H1.875z M1.86,35.713c-0.064,0-0.129,0.005-0.193,0.011c-0.96,0.11-1.68,0.932-1.663,1.897v20.511 c0.005,1.031,0.84,1.865,1.871,1.868h20.512c1.036,0.022,1.894-0.799,1.916-1.834c0.023-1.035-0.797-1.894-1.833-1.916 c-0.028,0-0.055,0-0.083,0H3.758V37.621c0.019-1.035-0.807-1.89-1.842-1.908C1.897,35.713,1.879,35.713,1.86,35.713z M58.11,35.713 c-0.065,0-0.13,0.005-0.194,0.011c-0.961,0.11-1.681,0.932-1.663,1.897V56.25H37.624c-1.035-0.022-1.893,0.798-1.916,1.833 s0.798,1.895,1.833,1.917c0.027,0,0.057,0,0.083,0h20.501c1.035,0.005,1.877-0.833,1.882-1.868V37.621 c0.019-1.037-0.806-1.89-1.842-1.908C58.146,35.713,58.128,35.713,58.11,35.713z"></path></g></svg>