<svg version="1.1" id="Layer_1" xmlns="http://www.w3.org/2000/svg" xmlns:xlink="http://www.w3.org/1999/xlink" x="0px" y="0px" width="37.5px" height="60px" viewBox="0 0 37.5 60" style="enable-background:new 0 0 37.5 60;" xml:space="preserve"><g><g><path style="fill:#0CB4C4;" d="M34.668,0.492H2.833c-1.282,0-2.324,1.042-2.324,2.326v54.365c0,1.282,1.042,2.325,2.324,2.325 h31.835c1.281,0,2.324-1.043,2.324-2.325V2.817C36.992,1.534,35.949,0.492,34.668,0.492z M1.438,8.244h34.627v43.099H1.438V8.244z M2.833,1.422h31.835c0.768,0,1.396,0.625,1.396,1.395v4.495H1.438V2.817C1.438,2.048,2.063,1.422,2.833,1.422z M34.668,58.577 H2.833c-0.77,0-1.396-0.626-1.396-1.395v-4.909h34.627v4.909C36.064,57.951,35.436,58.577,34.668,58.577z"></path><path style="fill:#0CB4C4;" d="M34.668,60H2.833c-1.553,0-2.816-1.264-2.816-2.817V2.817C0.017,1.264,1.28,0,2.833,0h31.835 c1.553,0,2.814,1.264,2.814,2.817v54.365C37.482,58.736,36.221,60,34.668,60z M1.929,52.765v4.418 c0,0.498,0.405,0.903,0.904,0.903h31.835c0.498,0,0.904-0.405,0.904-0.903v-4.418H1.929z M1.929,50.851h33.643V8.735H1.929V50.851 z M1.929,6.821h33.643V2.817c0-0.498-0.406-0.903-0.904-0.903H2.833c-0.499,0-0.904,0.405-0.904,0.903V6.821z"></path></g><g><path style="fill:#0CB4C4;" d="M12.498,4.832h7.442c0.258,0,0.465-0.207,0.465-0.464s-0.207-0.464-0.465-0.464h-7.442 c-0.257,0-0.464,0.207-0.464,0.464S12.24,4.832,12.498,4.832z"></path><path style="fill:#0CB4C4;" d="M19.939,5.323h-7.442c-0.527,0-0.956-0.428-0.956-0.956s0.429-0.956,0.956-0.956h7.442 c0.527,0,0.957,0.428,0.957,0.956S20.467,5.323,19.939,5.323z"></path></g><g><path style="fill:#0CB4C4;" d="M22.006,4.832h2.998c0.258,0,0.463-0.207,0.463-0.464s-0.205-0.464-0.463-0.464h-2.998 c-0.256,0-0.465,0.207-0.465,0.464S21.75,4.832,22.006,4.832z"></path><path style="fill:#0CB4C4;" d="M25.004,5.323h-2.998c-0.527,0-0.955-0.428-0.955-0.956s0.428-0.956,0.955-0.956h2.998 c0.525,0,0.955,0.428,0.955,0.956S25.529,5.323,25.004,5.323z"></path></g><g><path style="fill:#0CB4C4;" d="M18.75,53.618c-0.996,0-1.808,0.812-1.808,1.808s0.812,1.808,1.808,1.808s1.808-0.812,1.808-1.808 S19.747,53.618,18.75,53.618z M18.75,56.57c-0.63,0-1.144-0.514-1.144-1.145c0-0.63,0.514-1.145,1.144-1.145 s1.144,0.515,1.144,1.145C19.895,56.057,19.381,56.57,18.75,56.57z"></path><path style="fill:#0CB4C4;" d="M18.75,57.726c-1.268,0-2.3-1.032-2.3-2.3s1.032-2.3,2.3-2.3s2.3,1.032,2.3,2.3 S20.019,57.726,18.75,57.726z M18.75,54.772c-0.36,0-0.652,0.293-0.652,0.653c0,0.359,0.292,0.652,0.652,0.652 s0.652-0.293,0.652-0.652C19.403,55.065,19.11,54.772,18.75,54.772z"></path></g><g><path style="fill:#0CB4C4;" d="M29.135,26.036c-0.314-3.422-2.773-5.907-5.852-5.907c-1.781,0-3.48,0.853-4.583,2.265 c-1.08-1.432-2.71-2.265-4.481-2.265c-3.079,0-5.54,2.485-5.847,5.875c-0.025,0.15-0.135,0.966,0.174,2.268 c0.437,1.834,1.438,3.499,2.899,4.81l6.935,6.258c0.089,0.081,0.202,0.12,0.313,0.12c0.11,0,0.219-0.039,0.308-0.116l7.055-6.26 c1.461-1.313,2.467-2.979,2.9-4.81C29.254,27.022,29.164,26.222,29.135,26.036z M28.051,28.057 c-0.393,1.648-1.297,3.146-2.615,4.333l-6.741,5.98l-6.626-5.98c-1.319-1.187-2.226-2.684-2.617-4.333 c-0.273-1.152-0.174-1.828-0.157-1.936c0.268-2.934,2.338-5.063,4.924-5.063c1.67,0,3.194,0.897,4.075,2.398 c0.083,0.142,0.235,0.23,0.4,0.23c0.147,0.003,0.316-0.086,0.4-0.226c0.891-1.482,2.496-2.403,4.189-2.403 c2.586,0,4.658,2.13,4.928,5.095C28.23,26.276,28.314,26.945,28.051,28.057z"></path><path style="fill:#0CB4C4;" d="M18.692,39.95c-0.24,0-0.469-0.088-0.645-0.249l-6.932-6.255c-1.534-1.377-2.588-3.127-3.048-5.061 c-0.323-1.358-0.22-2.229-0.181-2.463c0.327-3.627,2.992-6.286,6.332-6.286c1.718,0,3.324,0.72,4.488,1.996 c1.192-1.259,2.862-1.996,4.577-1.996c3.338,0,6.004,2.672,6.34,6.354c0.023,0.129,0.139,1.016-0.189,2.396 c-0.457,1.929-1.512,3.679-3.049,5.062l-7.058,6.261C19.15,39.866,18.925,39.95,18.692,39.95z M14.219,21.55 c-2.326,0-4.191,1.941-4.435,4.616c-0.028,0.189-0.089,0.789,0.146,1.778c0.368,1.548,1.22,2.96,2.467,4.08l6.3,5.687l6.412-5.688 c1.24-1.115,2.094-2.527,2.463-4.079c0.248-1.048,0.164-1.646,0.152-1.711c-0.248-2.727-2.115-4.682-4.441-4.682 c-1.521,0-2.965,0.83-3.768,2.166c-0.345,0.58-1.313,0.558-1.646-0.008C17.078,22.356,15.713,21.55,14.219,21.55z"></path></g></g></svg>