<svg version="1.1" id="Layer_1" xmlns="http://www.w3.org/2000/svg" xmlns:xlink="http://www.w3.org/1999/xlink" x="0px" y="0px" width="47.3px" height="60px" viewBox="0 0 47.3 60" style="enable-background:new 0 0 47.3 60;" xml:space="preserve"><g><circle style="fill:#0CB4C4;" cx="15.416" cy="53.333" r="2.6"></circle><path style="fill:#0CB4C4;" d="M18.15,6.468c0.533,0,0.934-0.401,0.934-0.935S18.684,4.6,18.15,4.6h-5.467 C12.15,4.6,11.75,5,11.75,5.533s0.4,0.935,0.934,0.935H18.15z"></path><path style="fill:#0CB4C4;" d="M30.751,12.533V4.6c0-2.532-1.801-4.6-4.068-4.6H4.15C1.883,0,0.017,2.067,0.017,4.6V55.4 c0,2.532,1.866,4.6,4.134,4.6h22.533c2.268,0,4.133-2.067,4.133-4.6V47.6c9.201-0.599,16.467-8.2,16.467-17.533 S39.951,13.133,30.751,12.533z M30.751,45.467c-0.334,0-0.736,0.066-1.135,0.066c-0.4,0-0.732,0-1.133-0.066 c-8-0.6-14.334-7.267-14.334-15.4s6.4-14.799,14.401-15.399c0.334,0,0.732-0.066,1.133-0.066s0.734,0,1.133,0.066 c8,0.601,14.334,7.266,14.334,15.399S38.751,44.934,30.751,45.467z M28.55,55.4c0,1.333-0.867,2.399-1.867,2.399H4.15 c-1.067,0-1.866-1.066-1.866-2.399V4.6C2.284,3.267,3.149,2.2,4.15,2.2h22.533c1.068,0,1.867,1.066,1.867,2.399v7.934 c-9.201,0.6-16.468,8.2-16.468,17.533S19.35,47.001,28.55,47.6V55.4z"></path><path style="fill:#0CB4C4;" d="M35.351,25.601h-1.268v-2.2c0-2-1.4-3.533-3.268-3.867c-0.266-0.066-0.6-0.066-0.934-0.066 c-0.467,0-0.932,0.066-1.332,0.2c-1.668,0.532-2.867,1.934-2.867,3.8v2.2h-1.266c-0.867,0-1.601,0.733-1.601,1.6v8.334 c0,0.866,0.733,1.599,1.601,1.599h4.133h2.201h4.533c0.865,0,1.598-0.732,1.598-1.599v-8.4 C36.949,26.333,36.216,25.601,35.351,25.601z M27.484,23.4c0-0.867,0.4-1.533,1.066-1.935c0.4-0.199,0.799-0.332,1.332-0.332 c0.334,0,0.668,0.066,0.934,0.199c0.869,0.334,1.535,1.134,1.535,2.134v2.2h-1.535h-2.199H27.55L27.484,23.4z M35.285,34.934 c0,0.399-0.334,0.733-0.734,0.733h-3.799H28.55h-3.467c-0.4,0-0.735-0.334-0.735-0.733v-7.067c0-0.399,0.334-0.733,0.735-0.733 h3.467h2.201h3.799c0.4,0,0.734,0.334,0.734,0.733V34.934z"></path><path style="fill:#0CB4C4;" d="M29.951,33.6L29.951,33.6c-0.467,0-0.801-0.333-0.801-0.8V30c0-0.467,0.334-0.8,0.801-0.8l0,0 c0.467,0,0.801,0.333,0.801,0.8v2.867C30.751,33.267,30.349,33.6,29.951,33.6z"></path></g></svg>