<svg version="1.1" id="Layer_1" xmlns="http://www.w3.org/2000/svg" xmlns:xlink="http://www.w3.org/1999/xlink" x="0px" y="0px" width="59px" height="60px" viewBox="0 0 59 60" style="enable-background:new 0 0 59 60;" xml:space="preserve"><g><g><g><path style="fill:#0CB4C4;" d="M27.522,46.937h-3.01c-0.354,0-0.648-0.294-0.648-0.647c0-0.354,0.294-0.649,0.648-0.649h2.539 l2.183-5.371H4.446l2.185,5.371h2.537c0.355,0,0.65,0.295,0.65,0.649c0,0.354-0.294,0.647-0.65,0.647H6.159 c-0.295,0-0.531-0.176-0.649-0.413l-2.361-6.019c-0.118-0.354-0.118-0.767,0.119-1.121c0.235-0.295,0.59-0.531,0.944-0.531 h25.318c0.413,0,0.768,0.177,0.944,0.531c0.236,0.295,0.236,0.708,0.117,1.121l-2.418,6.019 C28.053,46.761,27.816,46.937,27.522,46.937z"></path><path style="fill:#0CB4C4;" d="M27.522,47.429h-3.01c-0.628,0-1.14-0.512-1.14-1.14c0-0.629,0.512-1.142,1.14-1.142h2.208 l1.783-4.388H5.177l1.784,4.388h2.206c0.63,0,1.142,0.513,1.142,1.142c0,0.628-0.512,1.14-1.142,1.14H6.159 c-0.461,0-0.878-0.263-1.089-0.686l-2.378-6.059c-0.193-0.577-0.13-1.127,0.167-1.573c0.383-0.482,0.879-0.751,1.353-0.751 h25.318c0.597,0,1.101,0.282,1.36,0.758c0.288,0.391,0.349,0.916,0.174,1.522l-2.434,6.066 C28.401,47.166,27.983,47.429,27.522,47.429z M24.512,46.132c-0.082,0-0.156,0.074-0.156,0.157c0,0.082,0.074,0.155,0.156,0.155 h3.01c0.125,0,0.188-0.099,0.209-0.141l2.402-5.982c0.035-0.129,0.099-0.451-0.044-0.629l-0.057-0.09 c-0.106-0.213-0.333-0.258-0.503-0.258H4.211c-0.169,0-0.394,0.139-0.56,0.346c-0.145,0.22-0.086,0.509-0.036,0.658l2.351,5.995 c0.003,0.002,0.066,0.101,0.192,0.101h3.009c0.084,0,0.158-0.072,0.158-0.155s-0.076-0.157-0.158-0.157H6.3l-2.584-6.355h26.249 l-2.583,6.355H24.512z"></path></g></g><g><g><path style="fill:#0CB4C4;" d="M24.512,59.508c-0.354,0-0.648-0.296-0.648-0.648V44.224H9.876v14.636 c0,0.353-0.295,0.648-0.648,0.648c-0.354,0-0.649-0.296-0.649-0.648V43.868c0-0.531,0.472-1.003,1.002-1.003h14.636 c0.531,0,1.004,0.472,1.004,1.003v14.991C25.221,59.212,24.925,59.508,24.512,59.508z"></path><path style="fill:#0CB4C4;" d="M24.512,60c-0.628,0-1.14-0.511-1.14-1.141V44.716H10.368v14.144c0,0.63-0.512,1.141-1.14,1.141 c-0.629,0-1.141-0.511-1.141-1.141V43.868c0-0.796,0.698-1.494,1.494-1.494h14.636c0.797,0,1.496,0.698,1.496,1.494v14.991 C25.712,59.5,25.185,60,24.512,60z M9.384,43.732h14.972v15.127c0,0.206,0.373,0.149,0.373,0V43.868 c0-0.257-0.254-0.511-0.512-0.511H9.581c-0.257,0-0.511,0.254-0.511,0.511v14.991c0,0.161,0.314,0.163,0.314,0V43.732z"></path></g></g><g><g><path style="fill:#0CB4C4;" d="M55.319,35.725h-22.84c-0.355,0-0.649-0.296-0.649-0.649c0-0.354,0.294-0.649,0.649-0.649h22.19 v-28.8H4.388V16.25c0,0.353-0.294,0.648-0.65,0.648c-0.353,0-0.648-0.296-0.648-0.648V4.978c0-0.355,0.295-0.649,0.648-0.649 h51.582c0.354,0,0.648,0.294,0.648,0.649v30.098C55.968,35.429,55.673,35.725,55.319,35.725z"></path><path style="fill:#0CB4C4;" d="M55.319,36.217h-22.84c-0.628,0-1.141-0.512-1.141-1.142c0-0.629,0.513-1.141,1.141-1.141h21.699 V6.118H4.879V16.25c0,0.629-0.512,1.14-1.142,1.14c-0.628,0-1.14-0.511-1.14-1.14V4.978c0-0.629,0.512-1.141,1.14-1.141h51.582 c0.629,0,1.141,0.512,1.141,1.141v30.098C56.46,35.705,55.948,36.217,55.319,36.217z M32.479,34.918 c-0.083,0-0.157,0.074-0.157,0.157s0.075,0.158,0.157,0.158h22.84c0.083,0,0.157-0.075,0.157-0.158V4.978 c0-0.083-0.074-0.158-0.157-0.158H3.738c-0.082,0-0.156,0.075-0.156,0.158V16.25c0,0.164,0.314,0.162,0.314,0V5.134h51.266 v29.784H32.479z"></path></g></g><g><g><path style="fill:#0CB4C4;" d="M55.968,5.626H3.089c-1.417,0-2.597-1.181-2.597-2.596c0.059-1.357,1.18-2.538,2.597-2.538h52.82 c1.416,0,2.598,1.181,2.598,2.596C58.507,4.505,57.385,5.626,55.968,5.626z M3.089,1.848c-0.649,0-1.239,0.532-1.239,1.239 c0,0.651,0.531,1.241,1.239,1.241h52.82c0.649,0,1.239-0.532,1.239-1.241c0-0.647-0.53-1.239-1.239-1.239H3.089z"></path><path style="fill:#0CB4C4;" d="M55.968,6.118H3.089c-1.674,0-3.088-1.414-3.088-3.088C0.073,1.35,1.458,0,3.089,0h52.82 c1.675,0,3.09,1.414,3.09,3.087C58.999,4.787,57.667,6.118,55.968,6.118z M3.089,0.983c-1.112,0-2.056,0.927-2.105,2.067 c0,1.12,0.964,2.083,2.105,2.083h52.878c1.148,0,2.047-0.899,2.047-2.047c0-1.14-0.964-2.104-2.105-2.104H3.089z M55.909,4.82 H3.089c-0.954,0-1.73-0.777-1.73-1.732c0-0.955,0.776-1.731,1.73-1.731h52.82c0.955,0,1.731,0.776,1.731,1.731 C57.641,4.043,56.864,4.82,55.909,4.82z M3.089,2.34c-0.36,0-0.747,0.301-0.747,0.748c0,0.362,0.3,0.749,0.747,0.749h52.82 c0.361,0,0.748-0.301,0.748-0.749c0-0.361-0.3-0.748-0.748-0.748H3.089z"></path></g></g><g><g><path style="fill:#0CB4C4;" d="M42.158,25.514c-0.177,0-0.354-0.058-0.471-0.177l-4.781-4.367l-3.541,3.421 c-0.296,0.237-0.709,0.237-0.945,0c-0.235-0.294-0.235-0.707,0-0.943l3.956-3.836c0.234-0.236,0.647-0.236,0.943,0l4.781,4.367 l8.733-8.911c0.235-0.235,0.709-0.294,0.943,0c0.237,0.236,0.296,0.708,0,0.945l-9.146,9.266 C42.514,25.457,42.335,25.514,42.158,25.514z"></path><path style="fill:#0CB4C4;" d="M42.158,26.006c-0.319,0-0.618-0.118-0.82-0.323l-4.423-4.038l-3.208,3.101 c-0.545,0.443-1.233,0.396-1.635-0.005c-0.432-0.534-0.417-1.221-0.001-1.638l3.962-3.843c0.387-0.388,1.116-0.41,1.593-0.031 l4.455,4.068l8.401-8.572c0.446-0.447,1.297-0.442,1.679,0.037c0.196,0.192,0.325,0.533,0.307,0.872 c-0.017,0.308-0.152,0.58-0.382,0.764l-9.105,9.228C42.846,25.845,42.533,26.006,42.158,26.006z M36.896,20.296l5.122,4.678 c0.043,0.041,0.188,0.046,0.197,0.04l0.065-0.082l9.204-9.354c0.004-0.063-0.025-0.132-0.055-0.163l-0.096-0.055 c-0.064,0-0.126,0.028-0.153,0.055l-9.063,9.246l-5.133-4.687c-0.052-0.039-0.213-0.065-0.263-0.016l-3.962,3.843 c-0.038,0.039-0.047,0.171,0.043,0.282c-0.014-0.017,0.022-0.007,0.065-0.007c0.064,0,0.132-0.025,0.188-0.069L36.896,20.296z"></path></g></g><g><g><g><path style="fill:#0CB4C4;" d="M21.856,37.377c-0.353,0-0.648-0.296-0.648-0.648v-8.204c0-0.354,0.295-0.649,0.648-0.649 c0.354,0,0.65,0.294,0.65,0.649v8.204C22.506,37.081,22.211,37.377,21.856,37.377z"></path><path style="fill:#0CB4C4;" d="M21.856,37.869c-0.629,0-1.14-0.512-1.14-1.141v-8.204c0-0.629,0.511-1.141,1.14-1.141 c0.629,0,1.142,0.512,1.142,1.141v8.204C22.998,37.357,22.486,37.869,21.856,37.869z M21.856,28.367 c-0.082,0-0.157,0.075-0.157,0.157v8.204c0,0.162,0.314,0.16,0.314,0v-8.204C22.014,28.442,21.939,28.367,21.856,28.367z"></path></g></g><g><g><path style="fill:#0CB4C4;" d="M11.765,37.377c-0.354,0-0.649-0.296-0.649-0.648v-8.204c0-0.354,0.295-0.649,0.649-0.649 c0.354,0,0.649,0.294,0.649,0.649v8.204C12.473,37.081,12.179,37.377,11.765,37.377z"></path><path style="fill:#0CB4C4;" d="M11.765,37.869c-0.629,0-1.142-0.512-1.142-1.141v-8.204c0-0.629,0.512-1.141,1.142-1.141 s1.141,0.512,1.141,1.141v8.204c0.043,0.217-0.037,0.509-0.232,0.74C12.458,37.723,12.127,37.869,11.765,37.869z M11.765,28.367 c-0.083,0-0.158,0.075-0.158,0.157v8.204c0,0.165,0.275,0.153,0.316,0.104l-0.007-0.04l0.006-0.064v-8.204 C11.922,28.442,11.848,28.367,11.765,28.367z"></path></g></g><g><g><path style="fill:#0CB4C4;" d="M16.9,19.672c-2.951,0-5.312-2.42-5.312-5.312c0-2.951,2.42-5.311,5.312-5.311 c2.95,0,5.311,2.42,5.311,5.311C22.211,17.252,19.85,19.672,16.9,19.672z M16.9,10.347c-2.184,0-4.014,1.771-4.014,4.013 c0,2.184,1.771,4.013,4.014,4.013c2.242,0,4.013-1.771,4.013-4.013C20.853,12.118,19.083,10.347,16.9,10.347z"></path><path style="fill:#0CB4C4;" d="M16.9,20.164c-3.2,0-5.804-2.603-5.804-5.804c0-3.2,2.604-5.803,5.804-5.803 c3.2,0,5.803,2.603,5.803,5.803C22.703,17.561,20.1,20.164,16.9,20.164z M16.9,9.541c-2.658,0-4.82,2.163-4.82,4.819 c0,2.658,2.162,4.82,4.82,4.82c2.657,0,4.819-2.162,4.819-4.82C21.719,11.704,19.557,9.541,16.9,9.541z M16.9,18.865 c-2.484,0-4.505-2.021-4.505-4.505s2.021-4.505,4.505-4.505c2.458,0,4.437,1.973,4.504,4.491 C21.404,16.887,19.426,18.865,16.9,18.865z M16.9,10.839c-1.942,0-3.522,1.58-3.522,3.521s1.58,3.521,3.522,3.521 c1.975,0,3.521-1.547,3.521-3.521C20.368,12.391,18.821,10.839,16.9,10.839z"></path></g></g><g><g><path style="fill:#0CB4C4;" d="M25.751,37.377c-0.353,0-0.648-0.296-0.648-0.648V24.924c0-1.297-1.063-2.36-2.36-2.36H11.057 c-1.299,0-2.36,1.063-2.36,2.36v11.804c0,0.353-0.295,0.648-0.651,0.648c-0.353,0-0.648-0.296-0.648-0.648V24.924 c0-2.066,1.652-3.718,3.718-3.718H22.8c2.066,0,3.719,1.652,3.719,3.718v11.804C26.46,37.081,26.106,37.377,25.751,37.377z"></path><path style="fill:#0CB4C4;" d="M25.751,37.869c-0.629,0-1.14-0.512-1.14-1.141V24.924c0-1.03-0.838-1.868-1.869-1.868H11.057 c-1.03,0-1.869,0.838-1.869,1.868v11.804c0,0.629-0.512,1.141-1.143,1.141c-0.628,0-1.14-0.512-1.14-1.141V24.924 c0-2.322,1.889-4.21,4.209-4.21H22.8c2.321,0,4.21,1.888,4.21,4.21v11.804C26.906,37.394,26.344,37.869,25.751,37.869z M11.057,22.073h11.686c1.573,0,2.852,1.279,2.852,2.852v11.804c0,0.197,0.407,0.11,0.439-0.081l-0.006-11.723 c0-1.81-1.417-3.227-3.227-3.227H11.115c-1.809,0-3.226,1.417-3.226,3.227v11.804c0,0.163,0.315,0.161,0.315,0V24.924 C8.205,23.352,9.484,22.073,11.057,22.073z"></path></g></g><g><g><path style="fill:#0CB4C4;" d="M16.9,27.993c-0.355,0-0.649-0.294-0.649-0.649v-5.43c0-0.354,0.294-0.647,0.649-0.647 c0.353,0,0.648,0.294,0.648,0.647v5.43C17.548,27.639,17.253,27.993,16.9,27.993z"></path><path style="fill:#0CB4C4;" d="M16.9,28.485c-0.629,0-1.141-0.512-1.141-1.141v-5.43c0-0.628,0.512-1.139,1.141-1.139 s1.14,0.511,1.14,1.139v5.43C18.04,27.883,17.553,28.485,16.9,28.485z M16.9,21.758c-0.084,0-0.158,0.073-0.158,0.156v5.43 c0,0.083,0.074,0.157,0.158,0.157c0.058,0,0.151-0.104,0.157-0.16v-5.427C17.057,21.833,16.982,21.758,16.9,21.758z"></path></g></g></g></g></svg>