<svg version="1.1" id="Layer_1" xmlns="http://www.w3.org/2000/svg" xmlns:xlink="http://www.w3.org/1999/xlink" x="0px" y="0px" width="61px" height="60px" viewBox="0 0 61 60" style="enable-background:new 0 0 61 60;" xml:space="preserve"><g><g><g><path style="fill:#0CB4C4;" d="M59.712,59.753H1.402c-0.597,0-0.993-0.397-0.993-0.993V37.142c0-0.596,0.396-0.991,0.993-0.991 h58.411c0.596,0,0.993,0.396,0.993,0.991V58.76C60.705,59.355,60.309,59.753,59.712,59.753z M2.393,57.768H58.82V38.132H2.393 V57.768z"></path><path style="fill:#0CB4C4;" d="M59.712,60H1.402c-0.73,0-1.24-0.51-1.24-1.24V37.142c0-0.729,0.51-1.238,1.24-1.238h58.411 c0.73,0,1.241,0.509,1.241,1.238V58.76C60.925,59.541,60.412,60,59.712,60z M1.402,36.398c-0.459,0-0.745,0.285-0.745,0.743 V58.76c0,0.459,0.286,0.745,0.745,0.745h58.31c0.455,0,0.765-0.287,0.85-0.787l-0.004-21.576c0-0.458-0.286-0.743-0.745-0.743 H1.402z M59.068,58.015H2.145v-20.13h56.923V58.015z M2.641,57.52h55.932V38.38H2.641V57.52z"></path></g><g><path style="fill:#0CB4C4;" d="M40.275,31.191c-0.595,0-0.99-0.398-0.99-0.993c0-4.463-3.869-8.131-8.531-8.131 c-4.66,0-8.528,3.668-8.528,8.131c0,0.595-0.397,0.993-0.991,0.993c-0.596,0-0.993-0.398-0.993-0.993 c0-5.552,4.762-10.114,10.512-10.114c5.753,0,10.512,4.563,10.512,10.114C41.267,30.694,40.771,31.191,40.275,31.191z"></path><path style="fill:#0CB4C4;" d="M40.275,31.439c-0.729,0-1.238-0.511-1.238-1.241c0-4.347-3.715-7.884-8.283-7.884 c-4.565,0-8.28,3.537-8.28,7.884c0,0.73-0.509,1.241-1.239,1.241c-0.73,0-1.241-0.511-1.241-1.241 c0-5.714,4.827-10.362,10.76-10.362c5.933,0,10.76,4.648,10.76,10.362C41.515,30.836,40.912,31.439,40.275,31.439z M30.754,21.819c4.84,0,8.779,3.759,8.779,8.379c0,0.459,0.284,0.745,0.742,0.745c0.361,0,0.743-0.383,0.743-0.745 c0-5.44-4.604-9.867-10.264-9.867s-10.264,4.427-10.264,9.867c0,0.459,0.286,0.745,0.745,0.745c0.458,0,0.743-0.286,0.743-0.745 C21.979,25.578,25.915,21.819,30.754,21.819z"></path></g><g><path style="fill:#0CB4C4;" d="M48.606,29.008c-0.496,0-0.992-0.396-0.992-0.99c-0.299-8.727-7.735-15.57-16.86-15.57 c-9.022,0-16.462,6.742-16.859,15.472c0,0.592-0.497,0.992-0.991,0.992c-0.596,0-0.991-0.497-0.991-0.992 c0.495-9.72,8.726-17.356,18.84-17.356c10.215,0,18.546,7.637,18.843,17.455C49.598,28.511,49.2,29.008,48.606,29.008 L48.606,29.008z"></path><path style="fill:#0CB4C4;" d="M48.606,29.256c-0.597,0-1.24-0.474-1.24-1.238c-0.294-8.589-7.59-15.322-16.612-15.322 c-8.926,0-16.223,6.691-16.611,15.234c0,0.755-0.643,1.229-1.239,1.229c-0.765,0-1.239-0.645-1.239-1.24 c0.502-9.877,8.887-17.604,19.088-17.604c10.406,0,18.792,7.773,19.091,17.695C49.846,28.613,49.372,29.256,48.606,29.256z M30.754,12.199c9.29,0,16.804,6.944,17.107,15.81c0,0.468,0.387,0.751,0.745,0.751c0.459,0,0.743-0.385,0.743-0.742 c-0.292-9.646-8.459-17.207-18.595-17.207c-9.938,0-18.104,7.521-18.593,17.12c0,0.346,0.284,0.732,0.743,0.732 c0.357,0,0.743-0.284,0.743-0.744C14.048,19.099,21.563,12.199,30.754,12.199z"></path></g><g><path style="fill:#0CB4C4;" d="M56.343,25.142c-0.497,0-0.894-0.396-0.993-0.894C53.764,11.654,43.151,2.133,30.754,2.133 c-12.295,0-22.908,9.422-24.594,21.918c-0.097,0.493-0.594,0.892-1.089,0.892c-0.497-0.099-0.892-0.596-0.892-1.092 C5.961,10.365,17.367,0.248,30.754,0.248c13.488,0,24.894,10.216,26.579,23.901c0.1,0.497-0.297,0.992-0.894,1.089 C56.439,25.142,56.343,25.142,56.343,25.142z"></path><path style="fill:#0CB4C4;" d="M56.191,25.53v-0.15c-0.525-0.07-0.969-0.504-1.084-1.083 C53.531,11.795,43.063,2.381,30.754,2.381c-12.211,0-22.679,9.33-24.348,21.702C6.285,24.7,5.688,25.19,5.071,25.19 c-0.65-0.124-1.14-0.724-1.14-1.34C5.728,10.24,17.259,0,30.754,0c13.599,0,25.132,10.369,26.825,24.119 c0.054,0.265-0.011,0.558-0.184,0.807c-0.203,0.293-0.537,0.496-0.916,0.558L56.191,25.53z M30.754,1.885 c12.558,0,23.238,9.601,24.841,22.332c0.078,0.385,0.393,0.677,0.747,0.677c0.07,0,0.144,0.022,0.203,0.065 c0.185-0.06,0.341-0.17,0.441-0.315c0.097-0.138,0.133-0.296,0.104-0.446C55.425,10.678,44.104,0.496,30.754,0.496 c-13.248,0-24.567,10.055-26.33,23.388c0.002,0.353,0.318,0.741,0.694,0.815c0.337-0.005,0.724-0.321,0.798-0.696 C7.617,11.4,18.296,1.885,30.754,1.885z"></path></g></g></g></svg>