<svg width="73" height="61" viewBox="0 0 73 61" fill="none" xmlns="http://www.w3.org/2000/svg"><path fill-rule="evenodd" clip-rule="evenodd" d="M6.48489 39.2243C4.49455 39.8466 4.26999 42.5651 6.09709 43.5223C7.92648 44.4803 10.0333 42.7467 9.411 40.7556C9.0255 39.5217 7.71879 38.8388 6.48489 39.2243ZM56.415 33.5384L65.4961 33.6105C66.0739 30.6989 69.6967 29.57 71.8212 31.6945C74.1763 34.0496 72.4987 38.0916 69.1717 38.0916C67.3469 38.0916 65.8057 36.7803 65.4853 35.0191L56.4142 34.9471C56.2426 39.4949 54.4224 43.6212 51.5354 46.7465L54.5833 49.5569C57.0427 47.736 60.5582 49.4933 60.5582 52.5704C60.5582 55.8973 56.5162 57.575 54.161 55.2198C52.9325 53.9921 52.7064 52.0738 53.6261 50.5939L50.5375 47.7467C47.4068 50.6567 43.2628 52.4915 38.6936 52.6639V53.2119C41.6212 53.7706 42.7693 57.4094 40.6364 59.5423C38.2813 61.8975 34.2393 60.2198 34.2393 56.8929C34.2393 55.0796 35.5337 53.5453 37.2796 53.2119V52.6639C32.7218 52.4922 28.5878 50.6659 25.4602 47.7689L20.7246 52.5788C22.4321 55.0482 20.6633 58.4541 17.6398 58.4541C14.3129 58.4541 12.6352 54.4121 14.9904 52.0569C16.2519 50.7954 18.2338 50.5954 19.7198 51.5894L24.4631 46.7726C22.2459 44.3814 20.6548 41.4009 19.9513 38.0924L10.8993 41.0001C11.2649 43.9768 8.12192 46.1748 5.44412 44.7715C2.48428 43.2211 2.90044 38.8672 6.06413 37.8785C7.7801 37.3421 9.62253 38.1085 10.4686 39.6581L19.7099 36.6898C19.552 35.5004 19.5106 34.3332 19.5842 33.1115H1.33162C0.941523 33.1115 0.625 32.795 0.625 32.4049V10.2407C0.625 9.85056 0.941523 9.53403 1.33162 9.53403H6.1515C6.50711 6.89686 8.93813 6.08064 10.2027 7.98361C10.4832 8.40513 10.6825 8.94161 10.7622 9.53403H13.3595C13.7151 6.89686 16.1461 6.08064 17.4099 7.98361C17.6904 8.40513 17.8897 8.94161 17.9694 9.53403H20.5667C20.9223 6.89686 23.3533 6.08064 24.6179 7.98361C24.8984 8.40513 25.0977 8.94161 25.1774 9.53403H30.0348C30.4249 9.53403 30.7414 9.85056 30.7414 10.2407V17.2816C32.8053 16.3971 35.011 15.8997 37.2773 15.8131L37.1868 8.08171C34.2316 7.55519 33.0506 3.89027 35.198 1.74282C37.5532 -0.612322 41.5952 1.06532 41.5952 4.39226C41.5952 6.19024 40.3214 7.71614 38.5947 8.06485L38.6851 15.8108C43.2559 15.9802 47.4022 17.8142 50.5344 20.7235L61.8419 10.0766C60.2646 7.60041 62.0427 4.31946 65.0048 4.31946C68.3318 4.31946 70.0094 8.36144 67.6543 10.7166C66.3544 12.0172 64.299 12.1835 62.8083 11.1036L51.53 21.7228C54.4224 24.8513 56.2449 28.9837 56.415 33.5384ZM39.4983 2.74221C38.0322 1.27608 35.5138 2.31915 35.5138 4.39226C35.5138 6.46537 38.0322 7.50921 39.4983 6.04309C40.4095 5.13184 40.4095 3.65345 39.4983 2.74221ZM66.6549 6.41709C65.1888 4.95097 62.6704 5.99404 62.6704 8.06715C62.6704 10.1403 65.1888 11.1841 66.6549 9.7172C67.5661 8.80596 67.5661 7.32834 66.6549 6.41709ZM58.4621 50.9188C56.996 49.4527 54.4776 50.4958 54.4776 52.5689C54.4776 54.642 56.996 55.6858 58.4621 54.2197C59.3733 53.3084 59.3733 51.8308 58.4621 50.9188ZM39.6393 55.2413C38.1732 53.7752 35.6548 54.8183 35.6548 56.8914C35.6548 58.9645 38.1732 60.0075 39.6393 58.5414C40.5506 57.6309 40.5506 56.1526 39.6393 55.2413ZM19.2922 53.0555C17.8261 51.5894 15.3077 52.6325 15.3077 54.7064C15.3077 56.7795 17.8261 57.8225 19.2922 56.3564C20.2034 55.4452 20.2034 53.9668 19.2922 53.0555ZM20.9974 33.1108C20.3559 42.9345 28.1372 51.2629 37.9885 51.2629C47.3922 51.2629 55.014 43.6403 55.014 34.2374C55.014 23.2227 44.7198 15.1471 34.0546 17.6678C32.8965 17.9414 31.7876 18.3315 30.7407 18.8243V32.4041C30.7407 32.7942 30.4241 33.1108 30.034 33.1108H20.9974ZM37.9885 21.3833C35.0877 21.3833 32.7356 23.7354 32.7356 26.6362C32.7356 29.537 35.0877 31.8891 37.9885 31.8891C40.8893 31.8891 43.2414 29.537 43.2414 26.6362C43.2414 23.7354 40.8893 21.3833 37.9885 21.3833ZM40.7038 23.9209C38.2912 21.509 34.1496 23.2258 34.1496 26.6355C34.1496 30.0459 38.292 31.7627 40.7038 29.35C42.2029 27.8517 42.2029 25.4207 40.7038 23.9209ZM37.9885 31.9857C31.6465 31.9857 26.7876 37.6118 27.7011 43.8886H27.7026C27.7364 44.1255 27.8904 44.3385 28.1265 44.4381C32.7218 46.3787 38.1946 46.8117 43.1226 45.8613C44.791 45.5395 46.3652 45.0635 47.8061 44.4565C48.0482 44.373 48.2368 44.1599 48.2751 43.8886C49.1817 37.5865 44.3189 31.9857 37.9885 31.9857ZM44.3412 36.03C40.8326 32.5214 35.1444 32.5214 31.6358 36.03C29.7696 37.8962 28.771 40.5349 29.0492 43.2954C34.5144 45.4781 41.4626 45.4781 46.927 43.2954C47.206 40.5341 46.2081 37.8962 44.3412 36.03ZM2.03824 10.9465V14.4375H29.3274V10.9465H22.0604C22.18 11.3335 22.4804 11.8731 22.872 11.8731C23.8024 11.8731 23.8024 13.2863 22.872 13.2863C21.6328 13.2863 20.838 12.1137 20.6081 10.9465H14.8532C14.9728 11.3335 15.2732 11.8731 15.664 11.8731C16.5945 11.8731 16.5945 13.2863 15.664 13.2863C14.4255 13.2863 13.63 12.1137 13.4001 10.9465H7.64522C7.76477 11.3335 8.06444 11.8731 8.45607 11.8731C9.38647 11.8731 9.38647 13.2863 8.45607 13.2863C7.2168 13.2863 6.42204 12.1137 6.19212 10.9465H2.03824ZM2.03824 15.8507V31.6975H29.3274V15.8507H2.03824ZM23.7457 9.53327C23.5794 8.70402 22.9249 7.82267 22.3018 8.7615C22.1631 8.96997 22.0573 9.23361 21.9976 9.53327H23.7457ZM16.5377 9.53327C16.3714 8.70402 15.7169 7.82267 15.0938 8.7615C14.9551 8.96997 14.8494 9.23361 14.7896 9.53327H16.5377ZM9.33053 9.53327C9.16422 8.70402 8.50971 7.82267 7.88663 8.7615C7.74791 8.96997 7.64215 9.23361 7.58237 9.53327H9.33053ZM22.3907 25.2644C22.0006 25.2644 21.6841 25.5809 21.6841 25.971V29.4742C21.6841 29.8643 22.0006 30.1808 22.3907 30.1808H25.8939C26.284 30.1808 26.6006 29.8643 26.6006 29.4742V25.971C26.6006 25.5809 26.284 25.2644 25.8939 25.2644H22.3907ZM25.1873 26.6776H23.0981V28.7676H25.1873V26.6776ZM13.9305 25.2644C13.5404 25.2644 13.2238 25.5809 13.2238 25.971V29.4742C13.2238 29.8643 13.5404 30.1808 13.9305 30.1808H17.4337C17.8238 30.1808 18.1403 29.8643 18.1403 29.4742V25.971C18.1403 25.5809 17.8238 25.2644 17.4337 25.2644H13.9305ZM16.727 26.6776H14.6371V28.7676H16.727V26.6776ZM5.47017 25.2644C5.08008 25.2644 4.76355 25.5809 4.76355 25.971V29.4742C4.76355 29.8643 5.08008 30.1808 5.47017 30.1808H8.97339C9.36348 30.1808 9.68 29.8643 9.68 29.4742V25.971C9.68 25.5809 9.36348 25.2644 8.97339 25.2644H5.47017ZM8.26677 26.6776H6.17679V28.7676H8.26677V26.6776ZM22.3907 18.1315C22.0006 18.1315 21.6841 18.448 21.6841 18.8381V22.3413C21.6841 22.7314 22.0006 23.0479 22.3907 23.0479H25.8939C26.284 23.0479 26.6006 22.7314 26.6006 22.3413V18.8381C26.6006 18.448 26.284 18.1315 25.8939 18.1315H22.3907ZM25.1873 19.5447H23.0981V21.6347H25.1873V19.5447ZM13.9305 18.1315C13.5404 18.1315 13.2238 18.448 13.2238 18.8381V22.3413C13.2238 22.7314 13.5404 23.0479 13.9305 23.0479H17.4337C17.8238 23.0479 18.1403 22.7314 18.1403 22.3413V18.8381C18.1403 18.448 17.8238 18.1315 17.4337 18.1315H13.9305ZM16.727 19.5447H14.6371V21.6347H16.727V19.5447ZM70.8218 32.6931C69.3557 31.227 66.8373 32.27 66.8373 34.3431C66.8373 36.4162 69.3549 37.4601 70.8218 35.9932C71.733 35.0827 71.733 33.6051 70.8218 32.6931Z" fill="#0CB4C4"></path></svg>