<svg version="1.1" id="Layer_1" xmlns="http://www.w3.org/2000/svg" xmlns:xlink="http://www.w3.org/1999/xlink" x="0px" y="0px" width="32.2px" height="60px" viewBox="0 0 32.2 60" style="enable-background:new 0 0 32.2 60;" xml:space="preserve"><g><path style="fill:#0CB4C4;" d="M5.709,40.977c-0.292,0-0.586-0.22-0.586-0.586v-3.073h0.731v2.928h2.928v0.731H5.709z"></path><path style="fill:#0CB4C4;" d="M27.076,40.391c0,0.292-0.219,0.586-0.585,0.586h-3.074v-0.731h2.929v-2.928h0.73V40.391z"></path><path style="fill:#0CB4C4;" d="M26.491,19.024c0.292,0,0.585,0.219,0.585,0.585v3.074h-0.73v-2.929h-2.929v-0.73H26.491z"></path><path style="fill:#0CB4C4;" d="M5.124,19.609c0-0.292,0.22-0.585,0.586-0.585h3.073v0.73H5.855v2.929H5.124V19.609z"></path><path style="fill:#0CB4C4;" d="M26.345,0H5.855C2.636,0,0.001,2.634,0.001,5.854v48.293c0,3.22,2.635,5.854,5.854,5.854h20.49 c3.219,0,5.854-2.634,5.854-5.854V5.854C32.199,2.634,29.564,0,26.345,0z M30.734,54.146c0,2.414-1.975,4.392-4.389,4.392H5.855 c-2.415,0-4.389-1.978-4.389-4.392V5.854c0-2.414,1.974-4.392,4.389-4.392H7.32c0.366,0,0.732,0.366,0.732,0.732v0.733 c0,0.804,0.658,1.463,1.462,1.463h13.172c0.804,0,1.462-0.659,1.462-1.463V2.194c0-0.366,0.366-0.732,0.732-0.732h1.465 c2.414,0,4.389,1.978,4.389,4.392V54.146z"></path><path style="fill:#0CB4C4;" d="M8.052,21.952v16.096h16.096V21.952H8.052z M13.906,23.414v4.392H9.514v-4.392H13.906z M22.686,36.586H9.514v-7.318h5.854v-5.854h7.318V36.586z"></path><rect x="10.979" y="24.879" style="fill:#0CB4C4;" width="1.462" height="1.462"></rect><rect x="13.906" y="33.659" style="fill:#0CB4C4;" width="1.462" height="1.462"></rect><rect x="10.979" y="30.732" style="fill:#0CB4C4;" width="4.389" height="1.462"></rect><rect x="10.979" y="33.659" style="fill:#0CB4C4;" width="1.462" height="1.462"></rect><polygon style="fill:#0CB4C4;" points="16.833,24.879 16.833,27.806 18.294,27.806 18.294,26.341 21.221,26.341 21.221,24.879 "></polygon><polygon style="fill:#0CB4C4;" points="21.221,35.121 16.833,35.121 16.833,33.659 19.759,33.659 19.759,32.194 21.221,32.194 "></polygon><rect x="16.833" y="29.268" style="fill:#0CB4C4;" width="1.462" height="2.927"></rect><rect x="19.759" y="27.806" style="fill:#0CB4C4;" width="1.462" height="2.927"></rect></g></svg>