<svg version="1.1" id="Layer_1" xmlns="http://www.w3.org/2000/svg" xmlns:xlink="http://www.w3.org/1999/xlink" x="0px" y="0px" width="50px" height="60px" viewBox="0 0 75.8 60" style="enable-background:new 0 0 75.8 60;" xml:space="preserve"><g><path style="fill:#0CB4C4;" d="M67.98,45.101H7.821V5.21H67.98V45.101z M9.724,43.196h56.353V7.113H9.724V43.196z"></path><rect x="36.974" y="6.162" style="fill:#0CB4C4;" width="1.904" height="37.986"></rect><rect x="8.772" y="23.948" style="fill:#0CB4C4;" width="58.256" height="1.903"></rect><g><path style="fill:#0CB4C4;" d="M31.394,24.899h-1.903v-1.605c0-2.269-1.845-4.113-4.112-4.113h-4.194 c-2.268,0-4.112,1.845-4.112,4.113v1.605h-1.904v-1.605c0-3.318,2.699-6.018,6.017-6.018h4.194c3.316,0,6.016,2.699,6.016,6.018 V24.899z"></path><path style="fill:#0CB4C4;" d="M23.281,18.979c-3.414,0-4.131-1.695-4.131-3.116v-1.93c0-2.277,1.854-4.131,4.131-4.131 s4.131,1.854,4.131,4.131v1.93C27.412,17.284,26.695,18.979,23.281,18.979z M23.281,11.706c-1.229,0-2.228,0.999-2.228,2.228v1.93 c0,0.512,0,1.213,2.228,1.213s2.228-0.701,2.228-1.213v-1.93C25.508,12.705,24.509,11.706,23.281,11.706z"></path></g><g><path style="fill:#0CB4C4;" d="M60.643,24.899h-1.904v-1.605c0-2.269-1.845-4.113-4.112-4.113h-4.194 c-2.268,0-4.112,1.845-4.112,4.113v1.605h-1.903v-1.605c0-3.318,2.699-6.018,6.016-6.018h4.194c3.317,0,6.017,2.699,6.017,6.018 V24.899z"></path><path style="fill:#0CB4C4;" d="M52.53,18.979c-3.414,0-4.131-1.695-4.131-3.116v-1.93c0-2.277,1.854-4.131,4.131-4.131 s4.131,1.854,4.131,4.131v1.93C56.661,17.284,55.944,18.979,52.53,18.979z M52.53,11.706c-1.229,0-2.228,0.999-2.228,2.228v1.93 c0,0.512,0,1.213,2.228,1.213s2.228-0.701,2.228-1.213v-1.93C54.757,12.705,53.758,11.706,52.53,11.706z"></path></g><g><path style="fill:#0CB4C4;" d="M31.394,44.172h-1.903v-1.606c0-2.269-1.845-4.113-4.112-4.113h-4.194 c-2.268,0-4.112,1.845-4.112,4.113v1.606h-1.904v-1.606c0-3.317,2.699-6.017,6.017-6.017h4.194c3.316,0,6.016,2.699,6.016,6.017 V44.172z"></path><path style="fill:#0CB4C4;" d="M23.281,38.252c-3.414,0-4.131-1.695-4.131-3.117v-1.931c0-2.276,1.854-4.131,4.131-4.131 s4.131,1.854,4.131,4.131v1.931C27.412,36.557,26.695,38.252,23.281,38.252z M23.281,30.978c-1.229,0-2.228,0.998-2.228,2.227 v1.931c0,0.513,0,1.214,2.228,1.214s2.228-0.701,2.228-1.214v-1.931C25.508,31.976,24.509,30.978,23.281,30.978z"></path></g><g><path style="fill:#0CB4C4;" d="M60.643,44.172h-1.904v-1.606c0-2.269-1.845-4.113-4.112-4.113h-4.194 c-2.268,0-4.112,1.845-4.112,4.113v1.606h-1.903v-1.606c0-3.317,2.699-6.017,6.016-6.017h4.194c3.317,0,6.017,2.699,6.017,6.017 V44.172z"></path><path style="fill:#0CB4C4;" d="M52.53,38.252c-3.414,0-4.131-1.695-4.131-3.117v-1.931c0-2.276,1.854-4.131,4.131-4.131 s4.131,1.854,4.131,4.131v1.931C56.661,36.557,55.944,38.252,52.53,38.252z M52.53,30.978c-1.229,0-2.228,0.998-2.228,2.227v1.931 c0,0.513,0,1.214,2.228,1.214s2.228-0.701,2.228-1.214v-1.931C54.757,31.976,53.758,30.978,52.53,30.978z"></path></g><path style="fill:#0CB4C4;" d="M69.765,60H6.035c-3.318,0-6.017-2.699-6.017-6.016V48.08h75.764v5.904 C75.782,57.301,73.083,60,69.765,60z M1.921,49.983v4.001c0,2.268,1.845,4.112,4.113,4.112h63.73c2.269,0,4.113-1.845,4.113-4.112 v-4.001H1.921z"></path><path style="fill:#0CB4C4;" d="M73.117,48.746h-1.903V3.991c0-1.151-0.937-2.088-2.088-2.088H6.674 c-1.151,0-2.088,0.937-2.088,2.088v44.755H2.683V3.991C2.683,1.79,4.473,0,6.674,0h62.451c2.201,0,3.991,1.79,3.991,3.991V48.746z"></path><path style="fill:#0CB4C4;" d="M47.764,55.234H27.819c-2.201,0-3.991-1.79-3.991-3.99v-2.213h1.903v2.213 c0,1.15,0.937,2.087,2.088,2.087h19.945c1.15,0,2.086-0.937,2.086-2.087v-2.213h1.904v2.213 C51.754,53.444,49.963,55.234,47.764,55.234z"></path></g></svg>