<svg version="1.1" id="Layer_1" xmlns="http://www.w3.org/2000/svg" xmlns:xlink="http://www.w3.org/1999/xlink" x="0px" y="0px" width="50px" height="60px" viewBox="0 0 61.1 60" style="enable-background:new 0 0 61.1 60;" xml:space="preserve"><g><path style="fill:#0CB4C4;" d="M58.169,0H2.931C1.353,0,0.072,1.279,0.072,2.857v30.477c0,1.578,1.28,2.856,2.858,2.856h55.238 c1.578,0,2.858-1.278,2.858-2.856V2.857C61.027,1.279,59.747,0,58.169,0z M2.931,1.905h55.238c0.525,0,0.953,0.427,0.953,0.952 v2.857H1.978V2.857C1.978,2.332,2.405,1.905,2.931,1.905z M59.122,7.619v20.952H1.978V7.619H59.122z M58.169,34.286H2.931 c-0.525,0-0.953-0.426-0.953-0.952v-2.857h57.145v2.857C59.122,33.86,58.694,34.286,58.169,34.286z"></path><path style="fill:#0CB4C4;" d="M57.216,48.572h-6.084l-0.581-5.81c-0.05-0.488-0.463-0.859-0.954-0.858h-7.619 c-0.49-0.001-0.903,0.37-0.951,0.858l-0.581,5.81h-4.553l-0.58-5.81c-0.05-0.488-0.462-0.859-0.953-0.858H26.74 c-0.491-0.001-0.903,0.37-0.953,0.858l-0.58,5.81h-4.553l-0.581-5.81c-0.048-0.488-0.462-0.859-0.951-0.858h-7.619 c-0.491-0.001-0.904,0.37-0.954,0.858l-0.581,5.81H3.884C3.393,48.57,2.98,48.94,2.931,49.43l-0.953,9.524 c-0.025,0.269,0.065,0.534,0.248,0.732C2.405,59.887,2.662,60,2.931,60h9.523c0.269,0,0.524-0.113,0.706-0.313 c0.182-0.198,0.271-0.464,0.247-0.732l-0.562-5.619h4.933l-0.562,5.619c-0.025,0.269,0.063,0.534,0.248,0.732 c0.179,0.2,0.435,0.313,0.703,0.313h9.524c0.269,0,0.524-0.113,0.705-0.313c0.183-0.198,0.272-0.464,0.247-0.732l-0.562-5.619 h4.934l-0.562,5.619c-0.025,0.269,0.064,0.534,0.247,0.732c0.181,0.2,0.436,0.313,0.704,0.313h9.525 c0.269,0,0.524-0.113,0.703-0.313c0.185-0.198,0.273-0.464,0.248-0.732l-0.562-5.619h4.933l-0.562,5.619 c-0.024,0.269,0.065,0.534,0.247,0.732c0.182,0.2,0.438,0.313,0.706,0.313h9.523c0.269,0,0.525-0.113,0.704-0.313 c0.184-0.198,0.274-0.464,0.249-0.732l-0.953-9.524C58.119,48.94,57.707,48.57,57.216,48.572z M3.988,58.096l0.762-7.618h5.886 l0.762,7.618H3.988z M12.653,51.43l-0.199-2c-0.037-0.342-0.256-0.638-0.57-0.771l0.484-4.848h5.887l0.486,4.848 c-0.317,0.134-0.535,0.43-0.573,0.771l-0.199,2H12.653z M19.226,58.096l0.763-7.618h5.886l0.761,7.618H19.226z M27.893,51.43 l-0.2-2c-0.038-0.342-0.255-0.638-0.571-0.771l0.486-4.848h5.885l0.486,4.848c-0.316,0.134-0.533,0.43-0.572,0.771l-0.199,2H27.893 z M34.464,58.096l0.762-7.618h5.886l0.763,7.618H34.464z M43.131,51.43l-0.199-2c-0.038-0.342-0.256-0.638-0.573-0.771l0.486-4.848 h5.887l0.484,4.848c-0.314,0.134-0.533,0.43-0.57,0.771l-0.199,2H43.131z M49.701,58.096l0.763-7.618h5.885l0.763,7.618H49.701z"></path></g></svg>