<svg version="1.1" id="Layer_1" xmlns="http://www.w3.org/2000/svg" xmlns:xlink="http://www.w3.org/1999/xlink" x="0px" y="0px" width="65px" height="60px" viewBox="0 0 79.4 60" style="enable-background:new 0 0 79.4 60;" xml:space="preserve"><g><path style="fill:#0CB4C4;" d="M71.366,53.916H8.034c-4.411,0-8-3.588-8-8v-1h79.333v1C79.366,50.328,75.778,53.916,71.366,53.916z M2.117,46.916c0.478,2.834,2.949,5,5.917,5h63.333c2.969,0,5.439-2.166,5.918-5H2.117z"></path><polygon style="fill:#0CB4C4;" points="76.45,45.916 74.45,45.916 74.45,2 5.117,2 5.117,45.916 3.117,45.916 3.117,0 76.45,0 "></polygon><rect x="4.117" y="22.833" style="fill:#0CB4C4;" width="71.333" height="2"></rect><rect x="38.783" y="23.458" style="fill:#0CB4C4;" width="2" height="22.458"></rect><g><path style="fill:#0CB4C4;" d="M47.755,46.436L47.755,46.436c0,1.031-0.836,1.867-1.867,1.867H33.735 c-1.032,0-1.868-0.836-1.868-1.867l0,0"></path><path style="fill:#0CB4C4;" d="M45.888,48.803H33.735c-1.306,0-2.368-1.063-2.368-2.367h1c0,0.754,0.614,1.367,1.368,1.367h12.153 c0.754,0,1.367-0.613,1.367-1.367h1C48.255,47.74,47.192,48.803,45.888,48.803z"></path></g><path style="fill:#0CB4C4;" d="M63.265,45.939l-0.068-3.123c0-3.125-2.523-5.648-5.625-5.648s-5.625,2.523-5.625,5.625l0.068,3.102 l-2,0.045l-0.068-3.123c0-4.227,3.42-7.648,7.625-7.648c4.203,0,7.625,3.422,7.625,7.625l0.068,3.102L63.265,45.939z"></path><path style="fill:#0CB4C4;" d="M57.44,35.5c-2.359,0-4.277-1.918-4.277-4.277c0-2.36,1.918-4.279,4.277-4.279 s4.279,1.919,4.279,4.279C61.72,33.582,59.8,35.5,57.44,35.5z M57.44,28.944c-1.256,0-2.277,1.022-2.277,2.279 c0,1.256,1.021,2.277,2.277,2.277s2.279-1.021,2.279-2.277C59.72,29.966,58.696,28.944,57.44,28.944z"></path><path style="fill:#0CB4C4;" d="M27.533,45.939l-0.069-3.123c0-3.125-2.524-5.648-5.625-5.648s-5.625,2.523-5.625,5.625l0.069,3.102 l-2,0.045l-0.069-3.123c0-4.227,3.42-7.648,7.625-7.648s7.625,3.422,7.625,7.625l0.069,3.102L27.533,45.939z"></path><path style="fill:#0CB4C4;" d="M21.708,35.5c-2.359,0-4.278-1.918-4.278-4.277c0-2.36,1.919-4.279,4.278-4.279 s4.278,1.919,4.278,4.279C25.987,33.582,24.067,35.5,21.708,35.5z M21.708,28.944c-1.256,0-2.278,1.022-2.278,2.279 c0,1.256,1.022,2.277,2.278,2.277s2.278-1.021,2.278-2.277C23.987,29.966,22.965,28.944,21.708,28.944z"></path><path style="fill:#0CB4C4;" d="M45.36,23.855l-0.07-3.123c0-3.124-2.523-5.647-5.625-5.647s-5.625,2.523-5.625,5.625l0.069,3.101 l-2,0.044l-0.069-3.123c0-4.227,3.42-7.647,7.625-7.647c4.205,0,7.625,3.42,7.625,7.625l0.07,3.101L45.36,23.855z"></path><path style="fill:#0CB4C4;" d="M39.535,13.417c-2.359,0-4.278-1.919-4.278-4.278s1.919-4.278,4.278-4.278 c2.358,0,4.278,1.919,4.278,4.278S41.894,13.417,39.535,13.417z M39.535,6.86c-1.256,0-2.278,1.022-2.278,2.278 s1.022,2.278,2.278,2.278c1.256,0,2.278-1.022,2.278-2.278S40.791,6.86,39.535,6.86z"></path></g></svg>