<svg width="77" height="60" viewBox="0 0 77 60" fill="none" xmlns="http://www.w3.org/2000/svg"><path fill-rule="evenodd" clip-rule="evenodd" d="M17.4993 36.6402C18.6582 36.6409 19.791 36.9851 20.7543 37.6295C21.7176 38.2739 22.4682 39.1894 22.9113 40.2603C23.3543 41.3313 23.4699 42.5095 23.2434 43.6461C23.0169 44.7827 22.4585 45.8267 21.6387 46.6459C20.819 47.4652 19.7747 48.023 18.638 48.2489C17.5012 48.4747 16.3231 48.3585 15.2524 47.9148C14.1817 47.4711 13.2666 46.72 12.6228 45.7563C11.979 44.7926 11.6354 43.6597 11.6354 42.5007C11.6369 40.9463 12.2554 39.4561 13.3548 38.3572C14.4543 37.2584 15.9449 36.6409 17.4993 36.6402ZM17.4993 50.1929C19.0207 50.192 20.5077 49.7401 21.7722 48.8942C23.0368 48.0484 24.0222 46.8465 24.6037 45.4407C25.1853 44.0349 25.337 42.4882 25.0396 40.9961C24.7423 39.5041 24.0092 38.1337 22.933 37.0583C21.8569 35.9829 20.486 35.2507 18.9938 34.9543C17.5016 34.6579 15.9549 34.8106 14.5495 35.3931C13.144 35.9756 11.9429 36.9618 11.0978 38.2269C10.2528 39.492 9.80188 40.9793 9.80205 42.5007C9.80362 44.5416 10.6151 46.4984 12.0583 47.9414C13.5015 49.3845 15.4584 50.1958 17.4993 50.1971V50.1929ZM1.83248 40.6156V44.3849C1.83122 44.4009 1.83602 44.4167 1.84592 44.4293C1.85583 44.4419 1.87011 44.4503 1.88593 44.4528L5.08682 44.9915C5.25953 45.0204 5.42027 45.0983 5.54981 45.2161C5.67936 45.3339 5.77221 45.4866 5.81726 45.6558C6.08815 46.6595 6.48734 47.6242 7.00498 48.5258C7.09315 48.6784 7.13548 48.8532 7.1269 49.0292C7.11832 49.2053 7.05921 49.3751 6.95662 49.5184L5.08003 52.1577C5.07084 52.1703 5.06647 52.1858 5.06772 52.2014C5.06896 52.2169 5.07574 52.2315 5.08682 52.2425L7.74985 54.9072C7.76166 54.9199 7.77777 54.9277 7.79503 54.9291C7.81229 54.9305 7.82945 54.9254 7.84317 54.9149L10.4799 53.034C10.635 52.9237 10.8206 52.8644 11.011 52.8644C11.1719 52.8634 11.33 52.9056 11.4691 52.9865C12.3706 53.5038 13.3349 53.903 14.3383 54.1742C14.5087 54.2186 14.6627 54.3114 14.7816 54.4413C14.9005 54.5712 14.9793 54.7327 15.0085 54.9064L15.5463 58.1056C15.5469 58.1138 15.549 58.1218 15.5527 58.1292C15.5564 58.1366 15.5615 58.1431 15.5677 58.1485C15.574 58.1539 15.5812 58.1579 15.5891 58.1605C15.5969 58.163 15.6052 58.164 15.6134 58.1633H19.3784C19.3957 58.165 19.4129 58.1599 19.4265 58.1491C19.4401 58.1384 19.449 58.1228 19.4514 58.1056L19.9892 54.9064C20.0185 54.7337 20.0966 54.5729 20.2143 54.4432C20.332 54.3134 20.4844 54.2201 20.6535 54.1742C21.6568 53.9029 22.6211 53.5037 23.5227 52.9865C23.675 52.8989 23.8492 52.8568 24.0247 52.8652C24.2002 52.8736 24.3696 52.9322 24.5127 53.034L27.1554 54.9149C27.1678 54.9247 27.1836 54.9294 27.1993 54.928C27.2151 54.9265 27.2298 54.9191 27.2402 54.9072L29.9033 52.2425C29.9153 52.2323 29.9232 52.2181 29.9257 52.2026C29.9282 52.187 29.925 52.1711 29.9168 52.1577L28.0318 49.5184C27.9306 49.3752 27.8726 49.2061 27.8645 49.0309C27.8563 48.8558 27.8985 48.682 27.986 48.5301C28.5034 47.6286 28.9026 46.6643 29.1737 45.6609C29.2187 45.4916 29.3115 45.3388 29.441 45.2209C29.5706 45.1029 29.7313 45.0248 29.9041 44.9958L33.105 44.457C33.122 44.456 33.1378 44.4482 33.1491 44.4355C33.1604 44.4228 33.1662 44.4061 33.1652 44.3892V40.6156C33.1657 40.6073 33.1645 40.5989 33.1617 40.591C33.1589 40.5831 33.1546 40.5759 33.149 40.5696C33.1434 40.5634 33.1367 40.5583 33.1291 40.5547C33.1216 40.5511 33.1134 40.5491 33.105 40.5486L29.9041 40.0099C29.7314 39.9804 29.5708 39.902 29.4413 39.784C29.3118 39.6659 29.2189 39.5132 29.1737 39.3439C28.9026 38.3405 28.5034 37.3762 27.986 36.4748C27.8985 36.3228 27.8563 36.149 27.8645 35.9739C27.8726 35.7988 27.9306 35.6296 28.0318 35.4864L29.9185 32.8429C29.9267 32.8295 29.9299 32.8135 29.9274 32.798C29.9249 32.7824 29.917 32.7683 29.905 32.7581L27.2419 30.0908C27.2317 30.0785 27.217 30.0708 27.2011 30.0694C27.1852 30.068 27.1694 30.0729 27.1571 30.0832L24.5144 31.964C24.3713 32.0658 24.2019 32.1244 24.0264 32.1329C23.8509 32.1413 23.6767 32.0992 23.5244 32.0115C22.6226 31.4947 21.6584 31.0956 20.6552 30.8238C20.4861 30.7782 20.3337 30.6851 20.216 30.5554C20.0982 30.4258 20.0201 30.2652 19.9909 30.0925L19.4531 26.8933C19.4507 26.8761 19.4418 26.8605 19.4282 26.8497C19.4146 26.839 19.3974 26.8339 19.3801 26.8356H15.61C15.6018 26.8349 15.5935 26.8359 15.5857 26.8384C15.5778 26.8409 15.5706 26.845 15.5643 26.8504C15.5581 26.8558 15.553 26.8623 15.5493 26.8697C15.5457 26.877 15.5435 26.8851 15.5429 26.8933L15.0085 30.0908C14.9793 30.2645 14.9005 30.426 14.7816 30.5559C14.6627 30.6858 14.5087 30.7786 14.3383 30.8229C13.3349 31.0942 12.3706 31.4933 11.4691 32.0106C11.3169 32.0981 11.1429 32.1402 10.9675 32.1317C10.7922 32.1233 10.623 32.0648 10.4799 31.9631L7.84317 30.0823C7.82961 30.0714 7.81235 30.066 7.79498 30.0675C7.7776 30.0689 7.76144 30.0769 7.74985 30.0899L5.09021 32.7547C5.07913 32.7657 5.07235 32.7803 5.07111 32.7958C5.06986 32.8114 5.07423 32.8269 5.08343 32.8395L6.95662 35.4864C7.05808 35.6294 7.11641 35.7986 7.12468 35.9738C7.13295 36.1489 7.09082 36.3228 7.00328 36.4748C6.48565 37.3764 6.08645 38.341 5.81557 39.3448C5.77008 39.5139 5.67712 39.6663 5.54766 39.7842C5.41821 39.9021 5.2577 39.9804 5.08512 40.0099L1.88423 40.5486C1.86849 40.5509 1.85421 40.5591 1.84429 40.5716C1.83437 40.584 1.82954 40.5998 1.83079 40.6156H1.83248ZM24.791 17.3373C24.7908 16.3375 25.0871 15.3602 25.6424 14.5289C26.1977 13.6975 26.9871 13.0496 27.9107 12.6669C28.8343 12.2842 29.8506 12.1839 30.8312 12.3789C31.8117 12.5738 32.7124 13.0551 33.4194 13.762C34.1264 14.4689 34.6079 15.3695 34.803 16.35C34.9981 17.3305 34.898 18.3469 34.5155 19.2705C34.1329 20.1942 33.4851 20.9837 32.6538 21.5391C31.8226 22.0945 30.8453 22.391 29.8456 22.391C28.5059 22.3888 27.2216 21.8556 26.2742 20.9084C25.3268 19.9611 24.7935 18.677 24.791 17.3373ZM14.2653 6.21264C14.2655 5.34916 14.5216 4.50512 15.0014 3.78721C15.4812 3.0693 16.1631 2.50976 16.9609 2.17932C17.7586 1.84888 18.6364 1.76238 19.4833 1.93076C20.3302 2.09913 21.1082 2.51482 21.7189 3.12527C22.3296 3.73572 22.7456 4.51353 22.9143 5.36037C23.083 6.2072 22.9968 7.08505 22.6667 7.88292C22.3365 8.6808 21.7773 9.36289 21.0595 9.84296C20.3418 10.323 19.4979 10.5795 18.6344 10.58C17.4763 10.5789 16.3659 10.1185 15.5468 9.29972C14.7278 8.48096 14.2669 7.37075 14.2653 6.21264ZM36.6919 6.21264C36.6917 5.34909 36.9476 4.50488 37.4272 3.78675C37.9068 3.06862 38.5886 2.50881 39.3863 2.17811C40.184 1.84741 41.0619 1.76067 41.9089 1.92885C42.7559 2.09704 43.534 2.51259 44.1449 3.12297C44.7557 3.73336 45.1719 4.51116 45.3407 5.35805C45.5096 6.20493 45.4235 7.08286 45.0934 7.88083C44.7634 8.67881 44.2041 9.361 43.4863 9.84114C42.7686 10.3213 41.9246 10.5778 41.061 10.5783C39.9027 10.5774 38.7921 10.1171 37.9729 9.29832C37.1536 8.47954 36.6926 7.3692 36.6911 6.21094L36.6919 6.21264ZM1.5873 46.2598L4.21724 46.7027C4.458 47.4667 4.76456 48.2084 5.13348 48.9195L3.58606 51.0947C3.32537 51.4609 3.20294 51.9077 3.24053 52.3556C3.27811 52.8036 3.47328 53.2237 3.79136 53.5414L6.45439 56.2069C6.77129 56.5255 7.19114 56.7209 7.63889 56.7584C8.08664 56.7958 8.53312 56.6728 8.89854 56.4114L11.0771 54.8631C11.7885 55.2333 12.5308 55.5407 13.2956 55.7819L13.7402 58.4118C13.8128 58.8553 14.0408 59.2585 14.3833 59.5495C14.7258 59.8404 15.1606 60.0001 15.61 60H19.375C19.8254 60.0012 20.2616 59.8425 20.6059 59.5521C20.9502 59.2617 21.1802 58.8585 21.255 58.4144L21.6996 55.7845C22.4629 55.5412 23.204 55.233 23.9146 54.8631L26.0932 56.4122C26.4585 56.6736 26.9049 56.7966 27.3525 56.7591C27.8001 56.7217 28.2198 56.5262 28.5366 56.2078L31.1996 53.5422C31.5207 53.2264 31.7181 52.8059 31.7559 52.3571C31.7937 51.9082 31.6695 51.4607 31.4057 51.0955L29.8625 48.9195C30.2336 48.2093 30.5405 47.4674 30.7796 46.7027L33.4155 46.2598C33.8592 46.1857 34.2622 45.9567 34.5528 45.6133C34.8435 45.27 35.0029 44.8348 35.0028 44.3849V40.6156C35.0031 40.1658 34.8437 39.7304 34.553 39.3871C34.2624 39.0437 33.8593 38.8147 33.4155 38.7407L30.7796 38.2979C30.5403 37.5329 30.2334 36.7908 29.8625 36.0803L31.4057 33.9084C31.6696 33.5432 31.7938 33.0955 31.756 32.6465C31.7182 32.1975 31.5208 31.7769 31.1996 31.4609L28.5366 28.7962C28.2198 28.4777 27.8001 28.2823 27.3525 28.2448C26.9049 28.2074 26.4585 28.3303 26.0932 28.5917L23.9146 30.14C23.2048 29.7718 22.4649 29.4647 21.7029 29.2221L21.5774 28.4993C22.5922 27.0691 23.9605 25.9266 25.5487 25.1832C27.1369 24.4397 28.8907 24.1208 30.6389 24.2576C32.3872 24.3943 34.0701 24.9821 35.5234 25.9634C36.9767 26.9447 38.1507 28.2861 38.9307 29.8566C39.0419 30.0693 39.232 30.2299 39.4602 30.3039C39.6884 30.3779 39.9366 30.3594 40.1514 30.2524C40.3661 30.1454 40.5303 29.9585 40.6087 29.7317C40.6871 29.5049 40.6735 29.2565 40.5706 29.0397C39.1726 26.2075 36.7074 24.0462 33.7167 23.0307C34.6461 22.4 35.407 21.5514 35.933 20.559C36.459 19.5666 36.7341 18.4605 36.7343 17.3373C36.7368 16.1942 36.4514 15.0689 35.9046 14.0651C37.6877 12.7913 39.8792 12.2227 42.0567 12.469C44.2342 12.7152 46.2434 13.7589 47.6969 15.3988C47.776 15.4915 47.8727 15.5675 47.9815 15.6223C48.0903 15.6771 48.209 15.7097 48.3305 15.7181C48.452 15.7265 48.574 15.7105 48.6893 15.6712C48.8046 15.6318 48.9109 15.5698 49.0019 15.4888C49.093 15.4078 49.1669 15.3095 49.2194 15.1996C49.272 15.0897 49.302 14.9704 49.3079 14.8487C49.3137 14.727 49.2952 14.6053 49.2534 14.4909C49.2116 14.3765 49.1474 14.2715 49.0645 14.1822C47.8809 12.8496 46.384 11.8329 44.709 11.2239C45.7691 10.454 46.5583 9.3681 46.9633 8.12202C47.3684 6.87593 47.3685 5.53359 46.9637 4.28742C46.5589 3.04125 45.77 1.95523 44.71 1.18503C43.65 0.414831 42.3734 0 41.0631 0C39.7529 0 38.4762 0.414831 37.4162 1.18503C36.3562 1.95523 35.5673 3.04125 35.1625 4.28742C34.7577 5.53359 34.7578 6.87593 35.1629 8.12202C35.5679 9.3681 36.3571 10.454 37.4173 11.2239C36.4946 11.5555 35.6228 12.0144 34.8272 12.5873C34.1853 11.9128 33.4131 11.3759 32.5574 11.009C31.7018 10.6421 30.7804 10.4529 29.8494 10.4529C28.9184 10.4529 27.997 10.6421 27.1413 11.009C26.2857 11.3759 25.5135 11.9128 24.8716 12.5873C24.0744 12.0169 23.203 11.5582 22.2815 11.2239C23.3401 10.4538 24.1278 9.36832 24.5317 8.12308C24.9357 6.87783 24.9351 5.5367 24.5302 4.29179C24.1252 3.04688 23.3366 1.96207 22.2774 1.19276C21.2182 0.423459 19.9427 0.00913031 18.6336 0.00913031C17.3244 0.00913031 16.0489 0.423459 14.9897 1.19276C13.9305 1.96207 13.1419 3.04688 12.7369 4.29179C12.332 5.5367 12.3315 6.87783 12.7354 8.12308C13.1393 9.36832 13.927 10.4538 14.9856 11.2239C12.922 11.9764 11.1395 13.3446 9.87916 15.1434C8.61882 16.9423 7.94156 19.0849 7.93903 21.2813C7.94628 21.5196 8.04604 21.7457 8.21715 21.9117C8.38827 22.0777 8.6173 22.1705 8.85569 22.1705C9.09409 22.1705 9.32312 22.0777 9.49423 21.9117C9.66535 21.7457 9.7651 21.5196 9.77235 21.2813C9.77218 19.6523 10.221 18.0547 11.0694 16.664C11.9178 15.2733 13.1331 14.1434 14.5817 13.3982C16.0304 12.6531 17.6564 12.3216 19.2811 12.4401C20.9058 12.5587 22.4665 13.1227 23.7916 14.0702C22.9785 15.5703 22.7526 17.3193 23.1578 18.9768C23.563 20.6342 24.5703 22.0817 25.9838 23.0375C24.1361 23.6665 22.4712 24.7397 21.1354 26.1629C20.9903 25.8171 20.7459 25.5221 20.4332 25.3153C20.1204 25.1084 19.7534 24.9989 19.3784 25.0006H15.61C15.1615 25.0012 14.7279 25.1609 14.3861 25.4512C14.0443 25.7416 13.8167 26.1437 13.7436 26.5862L13.299 29.2161C12.5344 29.4574 11.7921 29.7645 11.0805 30.1341L8.89854 28.5892C8.53312 28.3277 8.08664 28.2048 7.63889 28.2422C7.19114 28.2797 6.77129 28.4751 6.45439 28.7936L3.79136 31.4584C3.47256 31.7763 3.27695 32.1971 3.23936 32.6458C3.20176 33.0944 3.32462 33.5419 3.58606 33.9084L5.13348 36.0803C4.76471 36.7917 4.45815 37.5337 4.21724 38.2979L1.5873 38.7407C1.14311 38.8137 0.739423 39.0425 0.448565 39.386C0.157707 39.7296 -0.00130953 40.1655 8.12349e-06 40.6156V44.3849C-0.00127683 44.8352 0.157859 45.2712 0.448888 45.6148C0.739916 45.9584 1.14381 46.187 1.58815 46.2598H1.5873ZM56.9857 32.283C56.9862 32.04 57.083 31.8072 57.2549 31.6356C57.4269 31.464 57.6599 31.3676 57.9028 31.3676H67.6471C67.7698 31.3639 67.8919 31.3848 68.0062 31.4291C68.1206 31.4735 68.2249 31.5403 68.313 31.6257C68.401 31.7111 68.471 31.8134 68.5188 31.9263C68.5666 32.0393 68.5913 32.1607 68.5913 32.2834C68.5913 32.4061 68.5666 32.5275 68.5188 32.6405C68.471 32.7534 68.401 32.8556 68.313 32.9411C68.2249 33.0265 68.1206 33.0933 68.0062 33.1377C67.8919 33.182 67.7698 33.2029 67.6471 33.1992H57.9045C57.6614 33.1992 57.4283 33.1027 57.2563 32.9309C57.0843 32.7591 56.9876 32.5261 56.9874 32.283H56.9857ZM56.9857 26.0169C56.9862 25.7739 57.0829 25.541 57.2549 25.3692C57.4268 25.1975 57.6598 25.1009 57.9028 25.1007H67.6471C67.8901 25.1007 68.1232 25.1972 68.295 25.3691C68.4668 25.5409 68.5634 25.7739 68.5634 26.0169C68.5634 26.2599 68.4668 26.493 68.295 26.6648C68.1232 26.8366 67.8901 26.9332 67.6471 26.9332H57.9045C57.6615 26.9329 57.4285 26.8364 57.2566 26.6646C57.0846 26.4929 56.9878 26.2599 56.9874 26.0169H56.9857ZM51.0353 20.3464V37.889C51.0353 38.0547 51.101 38.2136 51.2181 38.3308C51.3352 38.448 51.494 38.514 51.6597 38.5142H56.5208C56.641 38.5139 56.7601 38.5374 56.8712 38.5833C56.9824 38.6292 57.0833 38.6966 57.1682 38.7817C57.2532 38.8668 57.3204 38.9678 57.3661 39.079C57.4118 39.1902 57.435 39.3094 57.4345 39.4296V43.495L65.8486 38.6415C65.9854 38.5604 66.1417 38.5179 66.3008 38.5185H73.8928C74.0582 38.5171 74.2163 38.4508 74.3332 38.3338C74.45 38.2168 74.5161 38.0586 74.5172 37.8932V20.3464C74.5161 20.1811 74.45 20.0228 74.3332 19.9058C74.2163 19.7889 74.0582 19.7225 73.8928 19.7212H51.6656C51.4999 19.7214 51.3411 19.7874 51.224 19.9046C51.107 20.0219 51.0412 20.1808 51.0412 20.3464H51.0353ZM69.0147 49.2342C69.0148 49.3163 68.9988 49.3976 68.9674 49.4734C68.9361 49.5493 68.8901 49.6182 68.8321 49.6763C68.7741 49.7343 68.7053 49.7804 68.6295 49.8118C68.5536 49.8433 68.4724 49.8595 68.3903 49.8595H60.8C60.6391 49.8596 60.4811 49.902 60.3418 49.9825L51.9337 54.836V50.7748C51.9335 50.532 51.8368 50.2992 51.665 50.1275C51.4932 49.9559 51.2603 49.8595 51.0174 49.8595H46.1563C45.991 49.8581 45.8328 49.7918 45.716 49.6748C45.5991 49.5578 45.533 49.3995 45.5319 49.2342V31.6917C45.5328 31.5263 45.5988 31.3679 45.7157 31.2508C45.8326 31.1338 45.9909 31.0675 46.1563 31.0664H49.2053V37.889C49.2053 38.5415 49.4645 39.1673 49.9259 39.6287C50.3873 40.09 51.0131 40.3493 51.6656 40.3493H55.6105V45.0806C55.6105 45.3237 55.707 45.5568 55.8788 45.7288C56.0506 45.9007 56.2837 45.9975 56.5267 45.9977C56.6874 45.9962 56.845 45.9539 56.9849 45.8747L66.5553 40.3493H69.0156L69.0147 49.2342ZM49.2053 29.2339V20.3464C49.2053 19.6939 49.4645 19.0682 49.9259 18.6068C50.3873 18.1454 51.0131 17.8862 51.6656 17.8862H73.8928C74.5449 17.8875 75.1699 18.1472 75.631 18.6083C76.0921 19.0694 76.3517 19.6943 76.3531 20.3464V37.889C76.352 38.5411 76.0924 39.1663 75.6313 39.6274C75.1701 40.0886 74.545 40.3481 73.8928 40.3493H70.848V49.2342C70.848 49.8867 70.5888 50.5125 70.1274 50.9739C69.666 51.4353 69.0403 51.6945 68.3878 51.6945H61.0451L51.4756 57.2199C51.3364 57.3007 51.1783 57.3431 51.0174 57.3429C50.7744 57.3427 50.5413 57.246 50.3695 57.074C50.1977 56.902 50.1012 56.6689 50.1012 56.4258V51.6911H46.1563C45.8332 51.6911 45.5133 51.6274 45.2148 51.5038C44.9163 51.3802 44.6451 51.1989 44.4166 50.9705C44.1882 50.742 44.0069 50.4708 43.8833 50.1723C43.7597 49.8738 43.696 49.5539 43.696 49.2308V31.6917C43.696 31.0392 43.9552 30.4134 44.4166 29.952C44.878 29.4906 45.5038 29.2314 46.1563 29.2314L49.2053 29.2339Z" fill="#0CB4C4"></path></svg>