<?xml version="1.0" encoding="utf-8"?>
<!-- Generator: Adobe Illustrator 24.0.1, SVG Export Plug-In . SVG Version: 6.00 Build 0)  -->
<svg version="1.1" id="Layer_1" xmlns="http://www.w3.org/2000/svg" xmlns:xlink="http://www.w3.org/1999/xlink" x="0px" y="0px"
	 width="53.9px" height="60.1px" viewBox="0 0 53.9 60.1" style="enable-background:new 0 0 53.9 60.1;" xml:space="preserve">
<style type="text/css">
	.st0{fill:#28BBCA;}
</style>
<g>
	<path class="st0" d="M53,42.9h-4.6v-7.7c0-0.5-0.4-0.9-0.9-0.9H32.8c-0.4-2.5-2.4-4.5-4.9-4.9v-2.1H42c4.8,0,8.8-3.9,8.8-8.8
		S46.9,9.7,42,9.7c-1,0-2,0.2-2.9,0.5c-1.3-1.4-3.1-2.1-5-2.1c-0.7,0-1.4,0.1-2.1,0.3c-1.8-4.8-6.4-8.1-11.6-8.1
		c-5.9,0-11,4.3-12.1,10.1c-3.2,1.4-5.3,4.5-5.3,8.1c0,4.8,3.9,8.8,8.8,8.8H26v2.1c-2.5,0.4-4.5,2.4-4.9,4.9H6.5
		c-0.5,0-0.9,0.4-0.9,0.9v7.7H0.9c-0.5,0-0.9,0.4-0.9,0.9v15.4c0,0.5,0.4,0.9,0.9,0.9H12c0.5,0,0.9-0.4,0.9-0.9V43.8
		c0-0.5-0.4-0.9-0.9-0.9H7.4v-6.7h13.7c0.4,2.5,2.4,4.5,4.9,4.9v1.8h-4.6c-0.5,0-0.9,0.4-0.9,0.9v15.4c0,0.5,0.4,0.9,0.9,0.9h11.1
		c0.5,0,0.9-0.4,0.9-0.9V43.8c0-0.5-0.4-0.9-0.9-0.9h-4.6v-1.8c2.5-0.4,4.5-2.4,4.9-4.9h13.7v6.7h-4.6c-0.5,0-0.9,0.4-0.9,0.9v15.4
		c0,0.5,0.4,0.9,0.9,0.9H53c0.5,0,0.9-0.4,0.9-0.9V43.8C53.9,43.3,53.5,42.9,53,42.9z M5,18.5c0-2.9,1.8-5.5,4.6-6.5
		c0.3-0.1,0.6-0.4,0.6-0.8c0.7-5.2,5.1-9,10.3-9c4.7,0,8.8,3.2,10.1,7.7c0.1,0.3,0.3,0.5,0.5,0.6s0.5,0.1,0.8,0
		c0.7-0.3,1.4-0.5,2.2-0.5c1.6,0,3,0.7,4,1.9c0.3,0.3,0.7,0.5,1.1,0.3c0.9-0.4,1.8-0.6,2.8-0.6c3.8,0,6.9,3.1,6.9,6.9
		s-3.1,6.9-6.9,6.9H11.9C8.1,25.4,5,22.3,5,18.5z M11.1,58.2H1.9V44.7h9.2C11.1,44.7,11.1,58.2,11.1,58.2z M31.6,58.2h-9.2V44.7h9.2
		V58.2z M27,39.3L27,39.3C27,39.3,27,39.3,27,39.3c-2.3,0-4.1-1.8-4.1-4.1c0,0,0,0,0,0c0,0,0,0,0,0c0-2.2,1.8-4.1,4.1-4.1
		c2.2,0,4.1,1.8,4.1,4.1C31,37.5,29.2,39.3,27,39.3z M52.1,58.2h-9.2V44.7h9.2V58.2z"/>
</g>
</svg>
