<svg xmlns="http://www.w3.org/2000/svg" xmlns:xlink="http://www.w3.org/1999/xlink" version="1.1" id="Layer_1" x="0px" y="0px" width="60px" height="60px" viewBox="0 0 60 60" style="enable-background:new 0 0 60 60;" xml:space="preserve"><g><path style="fill:#0CB4C4;" d="M48.965,44.849c-0.529,0-0.959-0.431-0.959-0.96s0.43-0.959,0.959-0.959h5.025 c0.529,0,0.96,0.43,0.96,0.959s-0.431,0.96-0.96,0.96H48.965z"></path><path style="fill:#0CB4C4;" d="M12.323,60c-0.529,0-0.959-0.431-0.959-0.96c0-0.529,0.43-0.959,0.959-0.959h6.616v-8.182H0.96 c-0.529,0-0.96-0.431-0.96-0.959V0.96C0,0.431,0.431,0,0.96,0h58.08C59.569,0,60,0.431,60,0.96v47.979 c0,0.529-0.431,0.959-0.96,0.959H41.061v8.182h6.616c0.529,0,0.959,0.431,0.959,0.959c0,0.529-0.43,0.96-0.959,0.96H12.323z M20.859,58.081h18.282v-8.182H20.859V58.081z M1.919,47.979h56.161v-8.181H1.919V47.979z M1.919,37.878h56.161V1.919H1.919V37.878 z"></path><path style="fill:#0CB4C4;" d="M19.899,34.748c-0.529,0-0.959-0.431-0.959-0.959v-5.051c0-0.529,0.43-0.959,0.959-0.959h6.643 l-0.028-0.329c-0.202-2.358-1.787-3.579-4.663-5.795l-1.287-0.997c-0.331-0.264-0.449-0.727-0.285-1.122l6.312-15.151 c0.142-0.359,0.495-0.596,0.882-0.596h5.051c0.385,0,0.744,0.236,0.896,0.587l6.312,15.148c0.173,0.422,0.031,0.9-0.347,1.162 c-3.86,2.655-5.559,4.61-5.86,6.747l-0.049,0.346h6.625c0.529,0,0.959,0.43,0.959,0.959v5.051c0,0.529-0.43,0.959-0.959,0.959 H19.899z M20.859,32.828h18.282v-3.131H20.859V32.828z M22.333,19.592l0.702,0.547c3.028,2.335,5.217,4.022,5.4,7.353l0.015,0.286 h3.09l0.024-0.276c0.236-2.677,1.996-5.013,5.885-7.811l0.195-0.141L31.881,5.708H30.96v8.318l0.2,0.073 c1.391,0.503,2.325,1.819,2.325,3.275c0,1.921-1.563,3.485-3.485,3.485s-3.485-1.563-3.485-3.485c0-1.468,0.934-2.784,2.323-3.275 l0.202-0.071v-8.32h-0.921L22.333,19.592z M30,15.809c-0.863,0-1.565,0.702-1.565,1.565c0,0.863,0.702,1.565,1.565,1.565 s1.565-0.703,1.565-1.565C31.565,16.511,30.863,15.809,30,15.809z"></path></g></svg>