<svg width="75" height="60" viewBox="0 0 75 60" fill="none" xmlns="http://www.w3.org/2000/svg"><path d="M38.9224 36.7945C39.4695 35.7606 39.9179 34.6774 40.2614 33.5594L43.4032 32.9534C43.6058 32.9145 43.7884 32.8061 43.9196 32.647C44.0509 32.4879 44.1225 32.288 44.1222 32.0817V24.0587C44.1223 23.8526 44.0506 23.6529 43.9194 23.494C43.7881 23.335 43.6056 23.2268 43.4032 23.1878L40.2614 22.5786C39.9176 21.46 39.4684 20.3765 38.92 19.3427L40.7138 16.692C40.8293 16.5211 40.8817 16.3154 40.8622 16.1101C40.8426 15.9048 40.7522 15.7128 40.6065 15.5668L34.9312 9.89155C34.7852 9.74583 34.5932 9.65542 34.3879 9.63584C34.1826 9.61626 33.9769 9.66872 33.806 9.78423L31.1562 11.5789C30.1229 11.0306 29.0399 10.5814 27.9219 10.2374L27.316 7.09477C27.2768 6.89231 27.1684 6.70979 27.0093 6.57858C26.8503 6.44737 26.6505 6.37566 26.4442 6.37576H18.4188C18.2125 6.3755 18.0126 6.44716 17.8535 6.57839C17.6944 6.70963 17.586 6.89223 17.547 7.09477L16.9411 10.2374C15.8231 10.5812 14.7402 11.0301 13.7068 11.578L11.0545 9.78423C10.8837 9.66872 10.678 9.61626 10.4727 9.63584C10.2674 9.65542 10.0753 9.74583 9.92936 9.89155L4.25408 15.5668C4.10835 15.7128 4.01795 15.9048 3.99837 16.1101C3.97879 16.3154 4.03125 16.5211 4.14676 16.692L5.94057 19.3435C5.39305 20.3773 4.94419 21.4605 4.59996 22.5786L1.45812 23.1845C1.25502 23.2234 1.0719 23.3321 0.940447 23.4917C0.808997 23.6514 0.737486 23.8519 0.738288 24.0587V32.085C0.738027 32.2913 0.809683 32.4912 0.94092 32.6503C1.07216 32.8094 1.25476 32.9178 1.4573 32.9567L4.59831 33.5627C4.94278 34.6812 5.39219 35.7647 5.94057 36.7986L4.14676 39.446C4.03125 39.6168 3.97879 39.8225 3.99837 40.0278C4.01795 40.2331 4.10835 40.4252 4.25408 40.5711L9.92936 46.2464C10.0753 46.3921 10.2674 46.4825 10.4727 46.5021C10.678 46.5217 10.8837 46.4692 11.0545 46.3537L13.7068 44.5591C14.7401 45.1074 15.8231 45.5565 16.9411 45.9005L17.547 49.0432C17.586 49.2457 17.6944 49.4283 17.8535 49.5596C18.0126 49.6908 18.2125 49.7625 18.4188 49.7622H26.4442C26.6505 49.7623 26.8503 49.6906 27.0093 49.5594C27.1684 49.4282 27.2768 49.2457 27.316 49.0432L27.9219 45.9005C29.0399 45.5565 30.1229 45.1074 31.1562 44.5591L33.8085 46.3537C33.9793 46.4692 34.185 46.5217 34.3903 46.5021C34.5956 46.4825 34.7877 46.3921 34.9336 46.2464L40.6089 40.5686C40.7547 40.4227 40.8451 40.2306 40.8646 40.0253C40.8842 39.82 40.8318 39.6143 40.7162 39.4435L38.9224 36.7945ZM34.1965 44.4716L31.7018 42.7835C31.5647 42.6908 31.4044 42.6383 31.239 42.6318C31.0735 42.6254 30.9096 42.6654 30.7657 42.7471C29.5545 43.437 28.262 43.973 26.9181 44.3428C26.7585 44.3868 26.6144 44.4745 26.5019 44.596C26.3895 44.7175 26.3132 44.8679 26.2816 45.0305L25.712 47.9857H19.151L18.5814 45.0305C18.5498 44.8679 18.4735 44.7175 18.3611 44.596C18.2487 44.4745 18.1045 44.3868 17.9449 44.3428C16.6011 43.9727 15.3086 43.4367 14.0973 42.7471C13.9534 42.6654 13.7895 42.6254 13.6241 42.6318C13.4587 42.6383 13.2983 42.6908 13.1612 42.7835L10.6665 44.4732L6.02724 39.834L7.71456 37.3401C7.80724 37.203 7.85975 37.0427 7.86616 36.8772C7.87258 36.7118 7.83265 36.5479 7.75088 36.404C7.06078 35.1927 6.52473 33.8998 6.15519 32.5555C6.11119 32.396 6.02351 32.2518 5.90202 32.1394C5.78053 32.0269 5.63006 31.9506 5.46756 31.9191L2.51311 31.3495V24.7885L5.46756 24.2189C5.63018 24.1876 5.78079 24.1114 5.90232 23.9989C6.02386 23.8864 6.11146 23.7421 6.15519 23.5824C6.52554 22.2387 7.06155 20.9462 7.75088 19.7348C7.83294 19.5908 7.8731 19.4268 7.86683 19.2612C7.86056 19.0957 7.8081 18.9351 7.71538 18.7978L6.02724 16.304L10.6665 11.6647L13.1612 13.3529C13.2983 13.4455 13.4587 13.498 13.6241 13.5045C13.7895 13.5109 13.9534 13.4709 14.0973 13.3892C15.3087 12.6997 16.6012 12.1637 17.9449 11.7935C18.1045 11.7495 18.2487 11.6618 18.3611 11.5403C18.4735 11.4188 18.5498 11.2684 18.5814 11.1059L19.151 8.15058H25.712L26.2816 11.1059C26.3132 11.2684 26.3895 11.4188 26.5019 11.5403C26.6144 11.6618 26.7585 11.7495 26.9181 11.7935C28.2628 12.1631 29.5562 12.6991 30.7682 13.3892C30.9121 13.4709 31.076 13.5109 31.2414 13.5045C31.4068 13.498 31.5672 13.4455 31.7043 13.3529L34.199 11.6647L38.8382 16.304L37.1509 18.7978C37.0583 18.935 37.0057 19.0953 36.9993 19.2607C36.9929 19.4261 37.0328 19.59 37.1146 19.7339C37.8044 20.9455 38.3404 22.2383 38.7103 23.5824C38.7543 23.742 38.842 23.8861 38.9635 23.9986C39.085 24.111 39.2354 24.1873 39.3979 24.2189L42.3524 24.7885V31.3495L39.3979 31.9191C39.2353 31.9504 39.0847 32.0266 38.9632 32.1391C38.8416 32.2516 38.754 32.3958 38.7103 32.5555C38.3397 33.8992 37.8037 35.1916 37.1146 36.4032C37.0326 36.5471 36.9924 36.7112 36.9987 36.8767C37.0049 37.0423 37.0574 37.2028 37.1501 37.3401L38.8382 39.834L34.1965 44.4716ZM22.4307 16.5228C20.1471 16.5229 17.9148 17.2002 16.0162 18.4691C14.1175 19.7379 12.6377 21.5412 11.764 23.651C10.8902 25.7608 10.6616 28.0823 11.1072 30.322C11.5529 32.5617 12.6526 34.619 14.2674 36.2337C15.8822 37.8484 17.9395 38.948 20.1793 39.3934C22.419 39.8388 24.7405 39.6101 26.8502 38.7362C28.96 37.8623 30.7632 36.3824 32.0319 34.4836C33.3006 32.5849 33.9777 30.3526 33.9777 28.069C33.9749 25.0075 32.7574 22.0722 30.5925 19.9074C28.4276 17.7427 25.4922 16.5254 22.4307 16.5228ZM22.4307 37.8396C20.498 37.8396 18.6088 37.2664 17.0019 36.1927C15.395 35.119 14.1426 33.5929 13.403 31.8073C12.6635 30.0218 12.47 28.057 12.8471 26.1615C13.2242 24.2661 14.1549 22.525 15.5215 21.1584C16.8882 19.7919 18.6294 18.8613 20.5249 18.4844C22.4204 18.1075 24.3851 18.3011 26.1706 19.0408C27.9561 19.7805 29.4821 21.033 30.5557 22.6401C31.6293 24.2471 32.2022 26.1363 32.2021 28.069C32.1992 30.6596 31.1688 33.1432 29.3369 34.975C27.505 36.8067 25.0213 37.8369 22.4307 37.8396ZM74.9661 14.6101L73.4893 9.09907C73.4352 8.90031 73.314 8.7264 73.1462 8.60691C72.9784 8.48742 72.7744 8.42973 72.5688 8.44363L70.4506 8.59469C70.0485 7.96836 69.5948 7.37663 69.0943 6.82566L69.7894 4.82465C69.8566 4.62965 69.8539 4.41737 69.7817 4.22415C69.7096 4.03094 69.5725 3.86881 69.394 3.76554L64.4534 0.912625C64.2748 0.809503 64.0659 0.771801 63.8625 0.805998C63.6591 0.840194 63.474 0.944154 63.339 1.10001L61.9488 2.70313C61.2215 2.54554 60.4824 2.44862 59.739 2.41338L58.8103 0.499877C58.7203 0.31437 58.5684 0.166014 58.3809 0.0802987C58.1933 -0.00541711 57.9818 -0.0231416 57.7826 0.0301702L52.2715 1.50698C52.0723 1.56022 51.8978 1.68125 51.7782 1.84925C51.6586 2.01725 51.6012 2.2217 51.6161 2.42741L51.7672 4.54481C51.141 4.94632 50.549 5.39885 49.9973 5.8978L47.993 5.20438C47.798 5.13672 47.5856 5.1392 47.3922 5.21138C47.1989 5.28356 47.0368 5.42092 46.9339 5.59979L44.081 10.5404C43.978 10.719 43.9404 10.9279 43.9746 11.1312C44.0088 11.3346 44.1126 11.5197 44.2684 11.6548L45.8748 13.0474C45.717 13.7753 45.6198 14.515 45.5842 15.2589L43.6757 16.186C43.4902 16.2763 43.3419 16.4283 43.2562 16.6159C43.1705 16.8036 43.1527 17.0152 43.2059 17.2145L44.6828 22.7255C44.7368 22.9243 44.8581 23.0982 45.0259 23.2177C45.1937 23.3372 45.3977 23.3949 45.6032 23.381L47.7214 23.2299C48.124 23.856 48.5776 24.4477 49.0777 24.999L48.3835 27.0041C48.3163 27.1991 48.319 27.4114 48.3911 27.6046C48.4633 27.7978 48.6003 27.9599 48.7789 28.0632L53.717 30.9161C53.8957 31.0189 54.1045 31.0564 54.3078 31.0223C54.5111 30.9881 54.6962 30.8843 54.8314 30.7287L56.2207 29.1248C56.9483 29.2827 57.6877 29.3799 58.4314 29.4154L59.3593 31.3231C59.4492 31.5087 59.6011 31.657 59.7887 31.7426C59.9763 31.8282 60.1879 31.8457 60.387 31.792L65.898 30.3152C66.0973 30.2619 66.2717 30.1409 66.3914 29.9729C66.511 29.8049 66.5683 29.6004 66.5535 29.3947L66.4024 27.2782C67.0291 26.8761 67.6211 26.4224 68.1723 25.9219L70.1766 26.6153C70.3714 26.6828 70.5838 26.6804 70.7771 26.6084C70.9703 26.5364 71.1325 26.3993 71.2357 26.2207L74.0886 21.2793C74.1917 21.1007 74.2294 20.8917 74.1952 20.6884C74.161 20.485 74.0571 20.2999 73.9012 20.1649L72.2981 18.7755C72.4559 18.048 72.5531 17.3085 72.5887 16.5649L74.4972 15.6387C74.6829 15.5486 74.8314 15.3966 74.9171 15.2089C75.0028 15.0211 75.0196 14.8094 74.9661 14.6101ZM71.3273 15.2044C71.1784 15.2767 71.0527 15.3893 70.9644 15.5293C70.8761 15.6694 70.8288 15.8314 70.8279 15.9969C70.8221 16.9667 70.6954 17.932 70.4506 18.8705C70.4089 19.0307 70.4127 19.1993 70.4617 19.3574C70.5107 19.5155 70.603 19.6568 70.728 19.7653L72.1842 21.0275L70.0618 24.6993L68.2457 24.0694C68.0894 24.0152 67.921 24.0058 67.7596 24.0424C67.5982 24.079 67.4503 24.1602 67.3327 24.2766C66.6413 24.9575 65.868 25.5498 65.0304 26.0399C64.8881 26.1233 64.7718 26.2447 64.6947 26.3906C64.6176 26.5364 64.5826 26.7008 64.5937 26.8654L64.7308 28.7896L60.6355 29.8875L59.7918 28.154C59.7195 28.005 59.607 27.8793 59.4669 27.7909C59.3269 27.7025 59.1649 27.655 58.9993 27.6538C58.0302 27.6482 57.0654 27.5221 56.1274 27.2782C56.0542 27.2588 55.9787 27.2491 55.9029 27.2493C55.7756 27.2494 55.6499 27.2767 55.5341 27.3296C55.4183 27.3824 55.3152 27.4595 55.2318 27.5555L53.9696 29.0117L50.2978 26.8918L50.9276 25.07C50.9819 24.9136 50.9913 24.7452 50.9547 24.5838C50.918 24.4224 50.8369 24.2745 50.7204 24.1569C50.0399 23.4664 49.4479 22.6938 48.958 21.8571C48.8748 21.7146 48.7534 21.5982 48.6076 21.521C48.4617 21.4439 48.2971 21.409 48.1325 21.4204L46.2083 21.5583L45.1104 17.4622L46.8439 16.6202C46.9921 16.5472 47.117 16.4342 47.2045 16.2941C47.2921 16.1539 47.3387 15.9921 47.3392 15.8269C47.3451 14.8571 47.4718 13.8918 47.7165 12.9533C47.7583 12.7931 47.7545 12.6244 47.7055 12.4663C47.6565 12.3082 47.5642 12.1669 47.4391 12.0585L45.9829 10.7971L48.1036 7.12448L49.9247 7.75516C50.0812 7.80913 50.2496 7.81833 50.4111 7.78172C50.5725 7.74512 50.7206 7.66416 50.8385 7.54796C51.5289 6.86664 52.3018 6.2743 53.1391 5.7847C53.2815 5.70137 53.3978 5.57995 53.475 5.43412C53.5521 5.28828 53.5871 5.12381 53.5758 4.95921L53.4388 3.03498L57.5341 1.93542L58.3777 3.66896C58.4502 3.81777 58.5628 3.94338 58.7028 4.03163C58.8428 4.11987 59.0047 4.16724 59.1702 4.16838C60.1398 4.17409 61.1048 4.30082 62.0429 4.54564C62.2031 4.58699 62.3717 4.58295 62.5297 4.53396C62.6878 4.48498 62.8291 4.39298 62.9378 4.26827L64.2008 2.81209L67.8726 4.93197L67.2427 6.75384C67.1885 6.91031 67.1791 7.07885 67.2158 7.24036C67.2524 7.40187 67.3335 7.5499 67.4499 7.66766C68.1307 8.35778 68.7227 9.13007 69.2124 9.96667C69.2957 10.1091 69.4171 10.2254 69.563 10.3025C69.7088 10.3797 69.8733 10.4146 70.0379 10.4034L71.9613 10.2663L73.0592 14.3616L71.3273 15.2044ZM62.6984 9.65298C61.7387 9.10037 60.6649 8.77568 59.5598 8.70399C58.4547 8.63229 57.3479 8.81551 56.3249 9.2395C55.3018 9.66349 54.3899 10.3169 53.6595 11.1493C52.9291 11.9817 52.3998 12.9708 52.1124 14.0403C51.8249 15.1097 51.7871 16.2309 52.0018 17.3173C52.2166 18.4037 52.678 19.4262 53.3507 20.306C54.0234 21.1857 54.8892 21.899 55.8813 22.391C56.8735 22.8829 57.9654 23.1403 59.0728 23.1432C59.7086 23.1433 60.3416 23.06 60.9558 22.8956C62.3367 22.5258 63.577 21.7547 64.5197 20.6799C65.4623 19.6051 66.065 18.2748 66.2516 16.8574C66.4381 15.44 66.2001 13.9991 65.5676 12.717C64.9352 11.4349 63.9366 10.3692 62.6984 9.65463V9.65298ZM63.807 18.6385C63.1765 19.7298 62.1871 20.5687 61.0074 21.0123C59.8277 21.456 58.5307 21.4769 57.3374 21.0715C56.144 20.6662 55.128 19.8596 54.4626 18.7893C53.7972 17.7189 53.5234 16.451 53.688 15.2014C53.8525 13.9519 54.4452 12.798 55.365 11.9364C56.2849 11.0748 57.475 10.5588 58.7326 10.4762C59.9902 10.3936 61.2376 10.7496 62.2622 11.4835C63.2868 12.2174 64.0253 13.2838 64.3519 14.5011C64.5392 15.1925 64.5876 15.9142 64.4941 16.6244C64.4005 17.3346 64.167 18.0192 63.807 18.6385ZM68.585 40.9888C68.5313 40.7897 68.4101 40.6154 68.242 40.4958C68.0739 40.3762 67.8695 40.3188 67.6637 40.3334L66.0012 40.4514C65.6917 39.9792 65.3474 39.5308 64.971 39.11L65.5158 37.5341C65.5834 37.3392 65.5809 37.1269 65.5089 36.9336C65.4369 36.7403 65.2998 36.5782 65.1212 36.475L61.0284 34.1116C60.8498 34.0086 60.6409 33.971 60.4376 34.0052C60.2342 34.0394 60.0491 34.1433 59.914 34.299L58.821 35.5604C58.2685 35.4448 57.708 35.3706 57.1444 35.3383L56.4155 33.8384C56.3252 33.6531 56.1733 33.505 55.9858 33.4195C55.7983 33.334 55.5869 33.3163 55.3878 33.3695L50.8228 34.5929C50.6228 34.6454 50.4474 34.7661 50.3268 34.9341C50.2063 35.1022 50.1481 35.307 50.1624 35.5133L50.2813 37.1767C49.8089 37.4859 49.3605 37.8303 48.9398 38.2069L47.3631 37.6612C47.1683 37.5937 46.9559 37.5961 46.7626 37.6681C46.5694 37.7401 46.4072 37.8772 46.304 38.0558L43.9415 42.1486C43.8383 42.3272 43.8006 42.5362 43.8348 42.7395C43.869 42.9429 43.973 43.128 44.1289 43.2631L45.3894 44.356C45.2737 44.9085 45.1998 45.469 45.1682 46.0326L43.6682 46.7615C43.4828 46.8518 43.3345 47.0039 43.2488 47.1915C43.1631 47.3792 43.1453 47.5908 43.1985 47.7901L44.4219 52.3543C44.4746 52.5542 44.5953 52.7295 44.7633 52.85C44.9313 52.9706 45.1361 53.0288 45.3423 53.0147L47.0057 52.8958C47.3152 53.3683 47.6595 53.8169 48.0359 54.238L47.4911 55.8139C47.4234 56.0087 47.4258 56.2209 47.4978 56.4141C47.5699 56.6073 47.707 56.7693 47.8857 56.8722L51.9834 59.2315C52.162 59.3346 52.371 59.3723 52.5743 59.3381C52.7777 59.3039 52.9628 59.1999 53.0979 59.0441L54.1908 57.7835C54.7434 57.8988 55.3038 57.9728 55.8674 58.0048L56.5963 59.5047C56.6697 59.6537 56.7834 59.7791 56.9245 59.8666C57.0656 59.9542 57.2285 60.0004 57.3946 60C57.472 59.9999 57.5491 59.9899 57.6241 59.9703L62.1891 58.7469C62.3883 58.6937 62.5628 58.5726 62.6824 58.4046C62.802 58.2366 62.8594 58.0322 62.8445 57.8265L62.7248 56.1705C63.197 55.861 63.6454 55.5166 64.0662 55.1403L65.6438 55.6851C65.8385 55.7526 66.0507 55.7502 66.2439 55.6782C66.437 55.6062 66.599 55.4691 66.702 55.2905L69.0654 51.1977C69.1684 51.0191 69.206 50.8102 69.1718 50.6069C69.1376 50.4035 69.0338 50.2184 68.8781 50.0833L67.6175 48.9887C67.7332 48.4362 67.8071 47.8757 67.8388 47.3121L69.3387 46.5832C69.5241 46.4931 69.6724 46.3413 69.758 46.1537C69.8436 45.9661 69.8611 45.7546 69.8076 45.5555L68.585 40.9888ZM66.5807 45.9484C66.4319 46.0208 66.3063 46.1334 66.218 46.2735C66.1298 46.4135 66.0824 46.5754 66.0813 46.7409C66.076 47.5314 65.972 48.3181 65.7717 49.0828C65.73 49.243 65.7338 49.4117 65.7828 49.5698C65.8318 49.7279 65.9241 49.8692 66.0491 49.9776L67.1618 50.9418L65.5315 53.765L64.1397 53.2813C63.9833 53.2272 63.815 53.2179 63.6536 53.2546C63.4923 53.2912 63.3444 53.3722 63.2267 53.4885C62.6645 54.0457 62.035 54.5307 61.3528 54.9323C61.2105 55.0157 61.0943 55.1371 61.0173 55.283C60.9403 55.4288 60.9056 55.5932 60.917 55.7578L61.021 57.2247L57.8717 58.0692L57.2287 56.7484C57.1556 56.6003 57.0428 56.4756 56.9028 56.3881C56.7628 56.3006 56.6012 56.2538 56.4362 56.2531C55.6457 56.2478 54.8589 56.1438 54.0942 55.9435C53.9341 55.9016 53.7653 55.9053 53.6072 55.9543C53.449 56.0034 53.3078 56.0957 53.1994 56.2209L52.2352 57.3262L49.412 55.6959L49.8925 54.3057C49.9467 54.1493 49.9561 53.9807 49.9195 53.8192C49.8828 53.6577 49.8017 53.5097 49.6853 53.3919C49.1299 52.829 48.6466 52.1993 48.2464 51.5172C48.1631 51.3749 48.0416 51.2587 47.8958 51.1817C47.7499 51.1047 47.5855 51.0699 47.4209 51.0813L45.9548 51.1854L45.1071 48.0377L46.4279 47.3955C46.5769 47.3232 46.7027 47.2107 46.7911 47.0707C46.8795 46.9306 46.927 46.7686 46.9281 46.603C46.9333 45.8126 47.037 45.0259 47.2368 44.2611C47.279 44.1009 47.2753 43.9321 47.2263 43.774C47.1773 43.6158 47.0848 43.4745 46.9595 43.3663L45.8475 42.4021L47.4795 39.578L48.8705 40.0593C49.027 40.1136 49.1955 40.1229 49.357 40.0863C49.5185 40.0497 49.6666 39.9686 49.7843 39.8521C50.3467 39.2965 50.9762 38.8131 51.6582 38.4133C51.8005 38.3299 51.9167 38.2084 51.9937 38.0626C52.0707 37.9168 52.1055 37.7523 52.0941 37.5878L51.9892 36.1209L55.1393 35.2764L55.7824 36.5972C55.8545 36.7461 55.9668 36.8718 56.1068 36.9601C56.2467 37.0484 56.4086 37.0957 56.574 37.0966C57.3645 37.1026 58.1511 37.2066 58.916 37.4062C59.0761 37.448 59.2448 37.4442 59.403 37.3952C59.5611 37.3462 59.7024 37.2539 59.8108 37.1288L60.775 36.016L63.599 37.6464L63.1177 39.0373C63.0637 39.1938 63.0544 39.3623 63.091 39.5238C63.1277 39.6853 63.2087 39.8333 63.3249 39.9512C63.8808 40.5134 64.3641 41.1429 64.7638 41.825C64.8474 41.9681 64.9695 42.0848 65.1161 42.162C65.2628 42.2392 65.4281 42.2738 65.5934 42.2617L67.0595 42.1569L67.904 45.3062L66.5807 45.9484ZM59.578 41.3545C58.3478 40.6441 56.9094 40.3823 55.5078 40.6136C54.1062 40.8449 52.8282 41.555 51.8915 42.623C50.9548 43.691 50.4174 45.0507 50.3708 46.4705C50.3243 47.8903 50.7715 49.2823 51.6362 50.4093C52.5009 51.5364 53.7297 52.3287 55.1132 52.6513C56.4966 52.9739 57.9491 52.8068 59.2232 52.1786C60.4972 51.5503 61.514 50.4997 62.1003 49.2057C62.6866 47.9118 62.806 46.4546 62.4384 45.0825C62.2317 44.3028 61.8725 43.5719 61.3816 42.932C60.8906 42.2921 60.2776 41.7559 59.578 41.3545ZM57.6348 50.8873C56.801 51.1108 55.9197 51.0821 55.1022 50.8047C54.2848 50.5273 53.568 50.0137 53.0425 49.3289C52.5169 48.6441 52.2063 47.8188 52.1498 46.9574C52.0932 46.0961 52.2934 45.2373 52.725 44.4897C53.1566 43.7421 53.8002 43.1393 54.5744 42.7575C55.3486 42.3757 56.2186 42.232 57.0744 42.3447C57.9302 42.4574 58.7335 42.8213 59.3825 43.3905C60.0315 43.9596 60.4971 44.7084 60.7205 45.5423C61.0187 46.6602 60.8613 47.8508 60.2828 48.8528C59.7043 49.8548 58.752 50.5865 57.6348 50.8873Z" fill="#0CB4C4"></path></svg>