<svg width="61" height="60" viewBox="0 0 61 60" fill="none" xmlns="http://www.w3.org/2000/svg"><title id="svgTitle">Accessibility Optimization with AI</title><path d="M30.0557 0C24.1222 0 18.322 1.75947 13.3886 5.05591C8.45509 8.35235 4.60992 13.0377 2.33929 18.5195C0.0686625 24.0013 -0.525437 30.0333 0.632119 35.8527C1.78968 41.6721 4.6469 47.0176 8.84247 51.2132C13.038 55.4088 18.3835 58.266 24.203 59.4235C30.0224 60.5811 36.0544 59.987 41.5362 57.7164C47.018 55.4457 51.7033 51.6006 54.9998 46.6671C58.2962 41.7336 60.0557 35.9334 60.0557 30C60.0466 22.0463 56.883 14.4209 51.2589 8.79677C45.6348 3.17264 38.0094 0.00903667 30.0557 0ZM30.0557 57.1428C24.6873 57.1428 19.4395 55.5509 14.9759 52.5684C10.5123 49.586 7.03333 45.3468 4.97895 40.3871C2.92457 35.4274 2.38705 29.9699 3.43436 24.7047C4.48168 19.4395 7.06678 14.6031 10.8628 10.8071C14.6588 7.0111 19.4952 4.426 24.7604 3.37868C30.0256 2.33137 35.4831 2.86889 40.4428 4.92327C45.4025 6.97765 49.6416 10.4566 52.6241 14.9202C55.6066 19.3838 57.1985 24.6316 57.1985 30C57.1903 37.1962 54.328 44.0954 49.2395 49.1839C44.151 54.2724 37.2519 57.1347 30.0557 57.1428ZM30.0557 22.8571C31.4684 22.8571 32.8494 22.4382 34.024 21.6533C35.1987 20.8685 36.1142 19.7529 36.6548 18.4477C37.1954 17.1425 37.3369 15.7064 37.0613 14.3208C36.7857 12.9352 36.1054 11.6625 35.1064 10.6635C34.1075 9.66457 32.8348 8.98428 31.4492 8.70867C30.0636 8.43306 28.6274 8.57452 27.3222 9.11514C26.017 9.65577 24.9015 10.5713 24.1166 11.7459C23.3317 12.9206 22.9128 14.3016 22.9128 15.7143C22.915 17.608 23.6683 19.4235 25.0074 20.7626C26.3464 22.1017 28.162 22.8549 30.0557 22.8571ZM30.0557 11.4286C30.9033 11.4286 31.7319 11.6799 32.4367 12.1508C33.1415 12.6218 33.6908 13.2911 34.0152 14.0742C34.3395 14.8573 34.4244 15.719 34.259 16.5504C34.0937 17.3817 33.6855 18.1454 33.0861 18.7447C32.4868 19.3441 31.7231 19.7523 30.8918 19.9176C30.0604 20.083 29.1987 19.9981 28.4156 19.6738C27.6325 19.3494 26.9632 18.8001 26.4922 18.0953C26.0213 17.3905 25.77 16.5619 25.77 15.7143C25.7712 14.578 26.2231 13.4887 27.0266 12.6852C27.83 11.8817 28.9194 11.4298 30.0557 11.4286ZM31.4842 31.0298V35.2383L39.7697 46.2856C39.997 46.5886 40.0947 46.9695 40.0412 47.3446C39.9877 47.7196 39.7874 48.058 39.4844 48.2854C39.1814 48.5128 38.8004 48.6105 38.4254 48.557C38.0503 48.5035 37.7119 48.3032 37.4845 48.0001L30.0557 38.095L22.6268 48.0001C22.3995 48.3032 22.061 48.5035 21.686 48.557C21.3109 48.6105 20.93 48.5128 20.627 48.2854C20.3239 48.058 20.1236 47.7196 20.0701 47.3446C20.0166 46.9695 20.1143 46.5886 20.3417 46.2856L28.6271 35.2383V31.0298L21.0322 28.4982C20.6728 28.3783 20.3757 28.1205 20.2063 27.7816C20.0369 27.4426 20.009 27.0503 20.1289 26.6908C20.2488 26.3314 20.5066 26.0343 20.8455 25.8649C21.1845 25.6955 21.5768 25.6676 21.9363 25.7875L30.0557 28.494L38.1751 25.7875C38.3531 25.7282 38.541 25.7044 38.7282 25.7177C38.9153 25.731 39.098 25.781 39.2658 25.8649C39.4337 25.9487 39.5833 26.0649 39.7063 26.2066C39.8292 26.3483 39.9231 26.5129 39.9824 26.6908C40.0418 26.8688 40.0655 27.0568 40.0522 27.2439C40.039 27.4311 39.989 27.6138 39.9051 27.7816C39.8212 27.9494 39.7051 28.0991 39.5634 28.222C39.4216 28.345 39.2571 28.4388 39.0791 28.4982L31.4842 31.0298Z" fill="#0CB4C4"></path></svg>