<svg xmlns="http://www.w3.org/2000/svg" id="Layer_1" data-name="Layer 1" width="67.03" height="60" viewBox="0 0 67.03 60"><title id="svgTitle">In-Depth User Research</title><defs><style> .cls-1 { fill: #0cb4c4; } </style></defs><path class="cls-1" d="M35.89,29.26v6.2h2.24v-6.2A8.43,8.43,0,0,0,33.94,22a7.69,7.69,0,1,0-12.22,0,8.42,8.42,0,0,0-4.2,7.28v6.2h2.23v-6.2a6.2,6.2,0,0,1,1-3.37,6.32,6.32,0,0,1,2.65-2.29l.31.18a6.62,6.62,0,0,0,1,.53,7.85,7.85,0,0,0,.8.32,7.42,7.42,0,0,0,5.44-.32,3.42,3.42,0,0,0,.47-.23,5.39,5.39,0,0,0,.52-.3l.31-.18a6.18,6.18,0,0,1,2.67,2.29,6.09,6.09,0,0,1,1,3.37Zm-4.53-7.82a5.6,5.6,0,0,1-5.41.93,5.28,5.28,0,0,1-1.65-.93,5.44,5.44,0,1,1,7.48-7.89,5.46,5.46,0,0,1-.42,7.89Z"></path><path class="cls-1" d="M11,36.4A21.41,21.41,0,0,1,35.37,3.48l.76-2.1h0a23.66,23.66,0,0,0-27,36.36Z"></path><path class="cls-1" d="M50.82,43.18l-1.36,1.36L45,40.07h0a23.65,23.65,0,0,0,6.7-16.52,24.3,24.3,0,0,0-.29-3.71l-2.23.36a20.83,20.83,0,0,1,.26,3.35A21.43,21.43,0,0,1,32.19,44.64l.42,2.23h0A23.31,23.31,0,0,0,43.38,41.7l4.47,4.47-1.37,1.36a3.11,3.11,0,0,0,0,4.38L54.56,60l1.59-1.59L48,50.29a.89.89,0,0,1,0-1.18l4.35-4.36a.87.87,0,0,1,1.23,0L62.89,54l1.58-1.56L55.2,43.19a3.1,3.1,0,0,0-4.38,0Z"></path><path class="cls-1" d="M65.91,2.19H39.1A1.12,1.12,0,0,0,38,3.3V16.71a1.13,1.13,0,0,0,1.12,1.12H65.91A1.13,1.13,0,0,0,67,16.71V3.3a1.13,1.13,0,0,0-.33-.79A1.15,1.15,0,0,0,65.91,2.19ZM64.8,15.59H40.22V4.42H64.8Z"></path><path class="cls-1" d="M42.45,6.66H62.56V8.89H42.45Z"></path><path class="cls-1" d="M42.45,11.12H53.62v2.24H42.45Z"></path><path class="cls-1" d="M55.86,11.12h6.7v2.24h-6.7Z"></path><path class="cls-1" d="M27.93,39.05H1.12A1.12,1.12,0,0,0,0,40.17V53.58a1.13,1.13,0,0,0,.33.79,1.1,1.1,0,0,0,.79.32H27.93a1.1,1.1,0,0,0,.79-.32,1.13,1.13,0,0,0,.33-.79V40.17a1.13,1.13,0,0,0-1.12-1.12ZM26.81,52.46H2.23V41.29H26.81Z"></path><path class="cls-1" d="M4.47,43.52H24.58v2.24H4.47Z"></path><path class="cls-1" d="M4.47,48H15.64v2.24H4.47Z"></path><path class="cls-1" d="M17.87,48h6.71v2.24H17.87Z"></path></svg>