<svg xmlns="http://www.w3.org/2000/svg" id="Layer_1" data-name="Layer 1" width="62.3" height="60" viewBox="0 0 62.3 60"><title id="svgTitle">Information Architecture/Wireframes</title><defs><style> .cls-1 { fill: #0cb4c4; } </style></defs><path class="cls-1" d="M0,0V60H62.3V0ZM60.68,58.38H1.62V9.89H60.68ZM1.62,8.26V1.63H60.68V8.26Z"></path><path class="cls-1" d="M7.68,4.94A1.7,1.7,0,1,1,6,3.25a1.7,1.7,0,0,1,1.7,1.69"></path><path class="cls-1" d="M13.88,4.94a1.69,1.69,0,1,1-1.69-1.69,1.7,1.7,0,0,1,1.69,1.69"></path><path class="cls-1" d="M20.09,4.94A1.7,1.7,0,1,1,18.4,3.25a1.7,1.7,0,0,1,1.69,1.69"></path><path class="cls-1" d="M28,13.46l0-.08,0,0V12.19H4.33V56.48H28Zm-12.7,21L6,52.59V16.34ZM6.48,13.82H26L16.25,32.7Zm9.77,22.41,9.64,18.62H6.62Zm.92-1.76L26.41,16.6V52.33Z"></path><path class="cls-1" d="M58.24,12.19H29.53V37.38H58.24ZM56.61,35.76H31.15V13.81H56.61Z"></path><path class="cls-1" d="M58.24,39.68H29.53V44H58.24Zm-1.63,2.71H31.15V41.31H56.61Z"></path><path class="cls-1" d="M58.24,45.91H29.53v4.34H58.24Zm-1.63,2.71H31.15V47.54H56.61Z"></path><path class="cls-1" d="M58.24,52.14H29.53v4.34H58.24Zm-1.63,2.71H31.15V53.77H56.61Z"></path></svg>