<svg xmlns="http://www.w3.org/2000/svg" id="Layer_1" data-name="Layer 1" width="71.76" height="60" viewBox="0 0 71.76 60"><title id="svgTitle">Interactive Prototype Development</title><defs><style> .cls-1 { fill: #0cb4c4; } </style></defs><path class="cls-1" d="M30.15,0H4.38A4.39,4.39,0,0,0,0,4.38V55.62A4.38,4.38,0,0,0,4.38,60H30.15a4.39,4.39,0,0,0,4.39-4.38V4.38A4.39,4.39,0,0,0,30.15,0ZM8.8,2.4H26.17V4H8.8ZM32.13,55.62a2,2,0,0,1-2,2H4.38a2,2,0,0,1-2-2V4.38a2,2,0,0,1,2-2h2V4.49A1.88,1.88,0,0,0,8.27,6.36H26.7a1.87,1.87,0,0,0,1.87-1.87V2.4h1.58a2,2,0,0,1,2,2Z"></path><path class="cls-1" d="M21,53H14a1.2,1.2,0,1,0,0,2.4h7A1.2,1.2,0,1,0,21,53Z"></path><path class="cls-1" d="M67.38,0H41.6a4.39,4.39,0,0,0-4.38,4.38V55.62A4.38,4.38,0,0,0,41.6,60H67.38a4.39,4.39,0,0,0,4.38-4.38V4.38A4.39,4.39,0,0,0,67.38,0ZM46,2.4H63.39V3.63H46ZM69.35,55.62a2,2,0,0,1-2,2H41.6a2,2,0,0,1-2-2V4.38a2,2,0,0,1,2-2h2V4.15A1.88,1.88,0,0,0,45.49,6H63.92a1.88,1.88,0,0,0,1.87-1.88V2.4h1.59a2,2,0,0,1,2,2Z"></path><path class="cls-1" d="M58.18,53h-7a1.2,1.2,0,1,0,0,2.4h7a1.2,1.2,0,1,0,0-2.4Z"></path><path class="cls-1" d="M17.27,16.13a13,13,0,1,0,13,13,13,13,0,0,0-13-13Zm0,23.57A10.58,10.58,0,1,1,27.85,29.12,10.59,10.59,0,0,1,17.27,39.7Z"></path><path class="cls-1" d="M54.7,16.13a13,13,0,1,0,13,13,13,13,0,0,0-13-13Zm0,23.57A10.58,10.58,0,1,1,65.29,29.12,10.59,10.59,0,0,1,54.7,39.7Z"></path><path class="cls-1" d="M23.08,23.14a1.2,1.2,0,0,0-1.7,0l-4.19,4.19-4.07-4.07a1.2,1.2,0,1,0-1.7,1.7L15.49,29,11.6,32.92a1.2,1.2,0,0,0,0,1.7,1.17,1.17,0,0,0,.85.36,1.19,1.19,0,0,0,.85-.36l3.89-3.89,4.17,4.17a1.2,1.2,0,0,0,.85.35,1.24,1.24,0,0,0,.85-.35,1.2,1.2,0,0,0,0-1.7L18.89,29l4.19-4.19a1.2,1.2,0,0,0,0-1.7Z"></path><path class="cls-1" d="M58.27,23.07l-6.42,9-1.66-2a1.2,1.2,0,0,0-1.85,1.54L51,34.77a1.19,1.19,0,0,0,.92.43h0a1.2,1.2,0,0,0,.93-.5l7.32-10.24a1.2,1.2,0,1,0-1.95-1.39Z"></path></svg>