<svg xmlns="http://www.w3.org/2000/svg" id="Layer_1" data-name="Layer 1" width="76.36" height="60" viewBox="0 0 76.36 60"><title id="svgTitle">User Interface (UI) Development Services</title><defs><style> .cls-1 { fill: #0cb4c4; } </style></defs><path class="cls-1" d="M73.64,0H2.73A2.73,2.73,0,0,0,0,2.73V57.27A2.73,2.73,0,0,0,2.73,60H73.64a2.72,2.72,0,0,0,1.92-.8,2.68,2.68,0,0,0,.8-1.93V2.73A2.68,2.68,0,0,0,75.56.8,2.72,2.72,0,0,0,73.64,0ZM2.73,2.73H73.64v8.18H2.73Zm0,54.54V13.64H73.64V57.27ZM70.91,6.82a1.36,1.36,0,0,1-2.33,1,1.34,1.34,0,0,1-.29-1.48,1.36,1.36,0,0,1,1.26-.85,1.39,1.39,0,0,1,1,.4A1.37,1.37,0,0,1,70.91,6.82Zm-47.73,0a1.37,1.37,0,0,1-1.36,1.36h-15a1.37,1.37,0,1,1,0-2.73h15a1.37,1.37,0,0,1,1.36,1.37Zm15,12.27h-30a1.33,1.33,0,0,0-1,.4,1.35,1.35,0,0,0-.4,1V47.73a1.37,1.37,0,0,0,1.36,1.36h30a1.37,1.37,0,0,0,1.37-1.36V20.45a1.39,1.39,0,0,0-.4-1A1.37,1.37,0,0,0,38.18,19.09Zm-1.36,2.73V42.45l-6.06-4a1.35,1.35,0,0,0-1.46,0l-5.91,3.54-6.06-6.07a1.37,1.37,0,0,0-1.84-.08L9.55,40.72V21.82ZM9.55,44.28l6.73-5.62,7.7,7.7H9.55Zm18.29,2.08-2.46-2.45L30,41.16l6.86,4.57v.63ZM25.91,34.09A4.1,4.1,0,1,0,23,32.89a4.07,4.07,0,0,0,2.89,1.2Zm0-5.45a1.36,1.36,0,0,1,1.26.84,1.38,1.38,0,0,1-.3,1.49,1.36,1.36,0,1,1-1-2.33Zm20.45,5.45h8.19a1.35,1.35,0,0,0,1-.4,1.33,1.33,0,0,0,.4-1V20.46a1.35,1.35,0,0,0-.4-1,1.39,1.39,0,0,0-1-.4H46.36a1.39,1.39,0,0,0-1,.4,1.35,1.35,0,0,0-.4,1V32.73a1.33,1.33,0,0,0,.4,1A1.35,1.35,0,0,0,46.36,34.09Zm1.37-12.27h5.45v9.54H47.73Zm20.45,15H46.36a1.35,1.35,0,0,0-1,.4,1.33,1.33,0,0,0-.4,1v9.55a1.33,1.33,0,0,0,.4,1,1.35,1.35,0,0,0,1,.4H68.18a1.37,1.37,0,0,0,1.37-1.36V38.18a1.37,1.37,0,0,0-1.37-1.36Zm-1.36,9.54H47.73V39.55H66.82ZM58.64,21.82A1.35,1.35,0,0,1,60,20.46h2.73a1.36,1.36,0,1,1,0,2.72H60a1.37,1.37,0,0,1-1.36-1.36Zm10.91,5.45a1.4,1.4,0,0,1-.4,1,1.41,1.41,0,0,1-1,.4H60a1.37,1.37,0,0,1,0-2.73h8.18a1.37,1.37,0,0,1,1.37,1.36Zm0,5.46a1.37,1.37,0,0,1-1.37,1.36H60a1.37,1.37,0,0,1,0-2.73h8.18a1.37,1.37,0,0,1,1.37,1.37Z"></path></svg>