<svg xmlns="http://www.w3.org/2000/svg" id="Layer_1" data-name="Layer 1" width="60" height="60" viewBox="0 0 60 60"><title id="svgTitle">Front-End Programming</title><defs><style> .cls-1 { fill: #0cb4c4; } </style></defs><path class="cls-1" d="M60,50.11V42.8l-2.8-.72-.06-.14,1.48-2.48L56.13,37V0H7.74V11.61H0V56.13H37l2.49,2.49,2.48-1.48.14.06L42.8,60h7.31l.71-2.8.14-.06,2.49,1.47,5.17-5.16L57.14,51l.06-.14ZM54.19,1.94v5.8H9.68V1.94ZM9.68,9.68H54.19V35l-.74-.74L51,35.76l-.14-.06-.71-2.8H48.39V11.61H9.68Zm36.77,3.87v5.8H1.94v-5.8ZM1.94,54.19V21.29H46.45V32.9H42.8l-.72,2.8-.14.06-2.48-1.47-5.17,5.17,1.47,2.48-.06.14-2.8.72v7.31l2.8.71.06.14-1.47,2.49.74.74Zm54.24-1-3,3L51.07,55l-.46.22a9.53,9.53,0,0,1-.93.38l-.48.17-.6,2.33H44.3l-.59-2.33-.49-.17a9.35,9.35,0,0,1-.92-.38L41.83,55l-2.07,1.23-3-3L38,51.07l-.23-.46a9.53,9.53,0,0,1-.38-.93l-.17-.48-2.33-.6V44.3l2.33-.59.17-.49a9.35,9.35,0,0,1,.38-.92l.23-.47-1.23-2.07,3-3L41.83,38l.47-.22a7.47,7.47,0,0,1,.92-.39l.49-.17.59-2.33h4.3l.6,2.33.48.17a9.53,9.53,0,0,1,.93.38l.46.23,2.07-1.23,3,3L55,41.83l.22.47a9.35,9.35,0,0,1,.38.92l.18.49,2.32.59v4.3l-2.32.6-.18.48a9.53,9.53,0,0,1-.38.93l-.22.46Z"></path><path class="cls-1" d="M46.45,38.71a7.74,7.74,0,1,0,7.74,7.74A7.75,7.75,0,0,0,46.45,38.71Zm0,13.55a5.81,5.81,0,1,1,5.81-5.81A5.81,5.81,0,0,1,46.45,52.26Z"></path><path class="cls-1" d="M46.45,42.58a3.87,3.87,0,1,0,3.87,3.87A3.88,3.88,0,0,0,46.45,42.58Zm0,5.81a1.94,1.94,0,1,1,1.94-1.94A1.93,1.93,0,0,1,46.45,48.39Z"></path><path class="cls-1" d="M3.87,15.48H5.81v1.94H3.87Z"></path><path class="cls-1" d="M7.74,15.48H9.68v1.94H7.74Z"></path><path class="cls-1" d="M11.61,15.48h1.94v1.94H11.61Z"></path><path class="cls-1" d="M11.61,3.87h1.94V5.81H11.61Z"></path><path class="cls-1" d="M15.48,3.87h1.94V5.81H15.48Z"></path><path class="cls-1" d="M19.35,3.87h1.94V5.81H19.35Z"></path><path class="cls-1" d="M3.87,40.65H27.1V23.23H3.87ZM5.81,25.16H25.16V38.71H5.81Z"></path><path class="cls-1" d="M3.87,42.58H27.1v1.94H3.87Z"></path><path class="cls-1" d="M3.87,46.45H5.81v1.94H3.87Z"></path><path class="cls-1" d="M7.74,46.45H27.1v1.94H7.74Z"></path><path class="cls-1" d="M25.16,50.32H27.1v1.94H25.16Z"></path><path class="cls-1" d="M3.87,50.32H23.23v1.94H3.87Z"></path></svg>