<svg xmlns="http://www.w3.org/2000/svg" id="Layer_1" data-name="Layer 1" width="43.64" height="60" viewBox="0 0 43.64 60"><title id="svgTitle">Intuitive &amp; Interactive Solutions</title><defs><style> .cls-1 { fill: #0cb4c4; } </style></defs><path class="cls-1" d="M15.52,6h6a.9.9,0,0,0,1-1,.9.9,0,0,0-1-1h-6a.9.9,0,0,0-.95,1A1,1,0,0,0,15.52,6Z"></path><path class="cls-1" d="M18.57,52.38A2.57,2.57,0,1,0,21.14,55,2.56,2.56,0,0,0,18.57,52.38Zm0,3.24a.65.65,0,0,1-.66-.67.64.64,0,0,1,.66-.66.65.65,0,0,1,.67.66A.66.66,0,0,1,18.57,55.62Z"></path><path class="cls-1" d="M43.62,37a3.14,3.14,0,0,0-2.95-3.14,2.89,2.89,0,0,0-1.72.48,2.82,2.82,0,0,0-1.81-1.53V4.38A4.43,4.43,0,0,0,32.76,0H4.38A4.43,4.43,0,0,0,0,4.38V55.62A4.43,4.43,0,0,0,4.38,60H40.1a.9.9,0,0,0,.95-1c-.1-4.48-.1-4.57.38-5.62C44,47.81,43.62,43.62,43.62,37ZM31.81,28.86a2.63,2.63,0,0,0-1.24.28V27.62a3.14,3.14,0,1,0-6.28,0v9.81c-1.15.29-3.05,1.43-4.1,5.24,0,.09-1,3,1.33,7.14H1.91V10.19H35.24V32.76c-.1,0-.19.1-.29.1V32a3.17,3.17,0,0,0-3.14-3.14ZM4.38,1.91H32.76a2.52,2.52,0,0,1,2.48,2.47V8.29H1.91V4.38A2.39,2.39,0,0,1,4.38,1.91ZM26.86,58.1H4.38a2.52,2.52,0,0,1-2.47-2.48v-3.9h21c2.09,2.57,4.19,2.85,4,6.38Zm13-5.43a5.74,5.74,0,0,0-.57,2.47v3H28.76c.19-5.05-3.24-5.43-5.14-8.48-2.38-3.81-1.71-6.29-1.62-6.48.67-2.28,1.52-3.42,2.29-3.81v1.34a1,1,0,1,0,1.9,0v-13a1.24,1.24,0,1,1,2.48,0V40.76a.95.95,0,0,0,1.9,0V32a1.24,1.24,0,0,1,2.48,0v8.76a1,1,0,0,0,1.9,0v-5a1.24,1.24,0,0,1,2.48,0V42a.95.95,0,1,0,1.9,0V37a1.24,1.24,0,1,1,2.48,0c-.1,6.48.29,10.48-2,15.72Z"></path><path class="cls-1" d="M27.43,19.14a.9.9,0,0,0-.95,1V22a.95.95,0,0,0,1.9,0V20.1A1,1,0,0,0,27.43,19.14Z"></path><path class="cls-1" d="M32,21.91a1,1,0,0,0-1.33.38l-.76,1.33a1,1,0,1,0,1.71.95l.76-1.33A1,1,0,0,0,32,21.91Z"></path><path class="cls-1" d="M24.1,22.29a1,1,0,1,0-1.72.95l.76,1.33a1,1,0,0,0,1.72-.95Z"></path></svg>