<svg xmlns="http://www.w3.org/2000/svg" xmlns:xlink="http://www.w3.org/1999/xlink" version="1.1" id="Layer_1" x="0px" y="0px" width="60px" height="60px" viewBox="120 120 60 60" enable-background="new 120 120 60 60" xml:space="preserve"><g><path fill="#0CB4C4" d="M146.586,153.621c-0.207,0.206-0.414,0.31-0.724,0.31c-0.311,0-0.518-0.104-0.725-0.31l-2.689-2.794 L140.276,153l5.586,5.586l2.896-2.793l12-12l-2.173-2.172L146.586,153.621z"></path><path fill="#0CB4C4" d="M135.104,135.104c-0.207,0.207-0.517,0.31-0.724,0.31c-0.311,0-0.517-0.103-0.724-0.31l-4.862-4.862 c-0.414-0.414-0.414-1.034,0-1.448c0.414-0.414,1.035-0.414,1.448,0l4.862,4.862C135.517,134.069,135.517,134.689,135.104,135.104z "></path><path fill="#0CB4C4" d="M128.896,150c0,0.518-0.414,1.034-1.034,1.034h-6.828c-0.518,0-1.035-0.517-1.035-1.034 c0-0.517,0.517-1.035,1.035-1.035h6.828C128.483,148.965,128.896,149.483,128.896,150z"></path><path fill="#0CB4C4" d="M135.104,166.345l-4.862,4.862c-0.207,0.207-0.414,0.311-0.724,0.311c-0.31,0-0.517-0.104-0.724-0.311 c-0.414-0.414-0.414-1.034,0-1.448l4.862-4.862c0.414-0.414,1.034-0.414,1.448,0C135.517,165.311,135.517,165.931,135.104,166.345z "></path><path fill="#0CB4C4" d="M151.034,172.138v6.828c0,0.517-0.517,1.034-1.034,1.034c-0.517,0-1.035-0.518-1.035-1.034v-6.828 c0-0.62,0.518-1.034,1.035-1.034C150.518,171.104,151.034,171.518,151.034,172.138z"></path><path fill="#0CB4C4" d="M171.207,171.207c-0.207,0.207-0.518,0.311-0.725,0.311s-0.517-0.104-0.724-0.311l-4.862-4.862 c-0.414-0.414-0.414-1.034,0-1.448s1.034-0.414,1.448,0l4.862,4.862C171.621,170.173,171.621,170.793,171.207,171.207z"></path><path fill="#0CB4C4" d="M180,150c0,0.518-0.518,1.034-1.034,1.034h-6.828c-0.62,0-1.034-0.517-1.034-1.034 c0-0.517,0.414-1.035,1.034-1.035h6.828C179.482,148.965,180,149.483,180,150z"></path><path fill="#0CB4C4" d="M171.207,130.241l-4.862,4.862c-0.207,0.207-0.518,0.31-0.724,0.31c-0.311,0-0.518-0.103-0.725-0.31 c-0.414-0.414-0.414-1.035,0-1.448l4.862-4.862c0.414-0.414,1.034-0.414,1.448,0C171.621,129.207,171.621,129.828,171.207,130.241z "></path><path fill="#0CB4C4" d="M151.034,121.035v6.828c0,0.621-0.517,1.034-1.034,1.034c-0.517,0-1.035-0.414-1.035-1.034v-6.828 c0-0.518,0.518-1.035,1.035-1.035C150.518,120,151.034,120.517,151.034,121.035z"></path></g></svg>