<svg width="61" height="60" viewBox="0 0 61 60" fill="none" xmlns="http://www.w3.org/2000/svg"><path d="M30.0628 13.1641C20.759 13.1641 13.1641 20.759 13.1641 30.0628C13.1641 39.3666 20.759 46.9615 30.0628 46.9615C39.3666 46.9615 46.9615 39.3666 46.9615 30.0628C46.9615 20.759 39.3666 13.1641 30.0628 13.1641ZM27.4046 44.1134V33.7337C27.4046 33.0375 26.8349 32.4679 26.1387 32.4679H22.8476L22.6577 32.1514L30.1894 22.721L37.4679 32.1514L37.278 32.4679H33.9868C33.2906 32.4679 32.721 33.0375 32.721 33.7337V44.1767C31.8349 44.3666 30.9489 44.4299 29.9995 44.4299C29.1767 44.4299 28.2906 44.3033 27.4046 44.1134ZM35.316 43.3539V34.9995H37.278C38.3539 34.9995 39.3033 34.4299 39.8096 33.4172C40.2527 32.4679 40.1261 31.3286 39.4932 30.5691L32.278 21.1387C31.202 19.7463 28.7337 19.8096 27.9109 21.1387L20.6324 30.5691C20.2527 31.0755 20.0628 31.6451 20.0628 32.2147C20.0628 32.5944 20.1261 32.9742 20.3793 33.4805C20.8856 34.3666 21.8349 34.9362 22.8476 34.9362H24.8096V43.3539C19.4932 41.2653 15.6957 36.0755 15.6957 30.0628C15.6957 22.1514 22.1514 15.6957 30.0628 15.6957C37.9742 15.6957 44.4299 22.1514 44.4299 30.0628C44.4299 36.1387 40.6324 41.2653 35.316 43.3539Z" fill="#0CB4C4"></path><path d="M56.8987 22.5316H53.4177C52.9747 21.2658 52.4684 20 51.8987 18.7975L54.3671 16.3291C55 15.6962 55.3165 14.8734 55.3165 14.0506C55.3165 13.1646 55 12.4051 54.3671 11.7722L48.3544 5.75949C47.0886 4.49367 45.0633 4.49367 43.7975 5.75949L41.3291 8.22785C40.1266 7.59494 38.8608 7.08861 37.5949 6.70886V3.22785C37.5949 1.4557 36.1392 0 34.3671 0H25.7595C23.9873 0 22.5316 1.4557 22.5316 3.22785V6.70886C21.2658 7.1519 20 7.65823 18.7975 8.22785L16.3291 5.75949C15.0633 4.49367 13.038 4.49367 11.7722 5.75949L5.75949 11.7722C4.49367 13.038 4.49367 15.0633 5.75949 16.3291L8.22785 18.7975C7.59494 20 7.08861 21.2658 6.70886 22.5316H3.22785C1.4557 22.5316 0 23.9873 0 25.7595V34.2405C0 36.0127 1.4557 37.4684 3.22785 37.4684H6.70886C7.1519 38.7342 7.65823 40 8.29114 41.2025L5.82278 43.6709C4.55696 44.9367 4.55696 46.962 5.82278 48.2278L11.8354 54.2405C13.1013 55.5063 15.1266 55.5063 16.3924 54.2405L18.8608 51.7722C20.0633 52.4051 21.3291 52.9114 22.5949 53.2911V56.7721C22.5949 58.5443 24.0506 60 25.8228 60H34.3038C36.0759 60 37.5316 58.5443 37.5316 56.7721V53.2911C38.7975 52.8481 40.0633 52.3418 41.2658 51.7722L43.7342 54.2405C44.3671 54.8734 45.1899 55.1899 46.0127 55.1899C46.8987 55.1899 47.6582 54.8734 48.2911 54.2405L54.3038 48.2278C55.5696 46.962 55.5696 44.9367 54.3038 43.6709L51.8354 41.2025C52.4684 40 52.9747 38.7342 53.3544 37.4684H56.8354C58.6076 37.4684 60.0633 36.0127 60.0633 34.2405V25.7595C60.1266 23.9873 58.6709 22.5316 56.8987 22.5316ZM57.5316 34.2405C57.5316 34.6203 57.2152 34.9367 56.8354 34.9367H52.4051C51.8354 34.9367 51.3291 35.3165 51.1392 35.8861C50.6329 37.6582 50 39.3038 49.1139 40.8228C48.8608 41.3291 48.9241 41.962 49.3038 42.3418L52.4684 45.5063C52.7215 45.7595 52.7215 46.2025 52.4684 46.4557L46.519 52.4684C46.2658 52.7215 45.8228 52.7215 45.5696 52.4684L42.4684 49.3671C42.0886 48.9873 41.4557 48.8608 40.9494 49.1772C39.4304 50.0633 37.7215 50.7595 36.0127 51.2658C35.443 51.3924 35.0633 51.8987 35.0633 52.5316V56.962C35.0633 57.3418 34.7468 57.6582 34.3671 57.6582H25.8861C25.5063 57.6582 25.1899 57.3418 25.1899 56.962V52.5316C25.1899 51.962 24.8101 51.4557 24.2405 51.2658C22.4684 50.7595 20.8228 50.1266 19.3038 49.2405C19.1139 49.1139 18.8608 49.0506 18.6709 49.0506C18.3544 49.0506 18.038 49.1772 17.7848 49.4304L14.6203 52.5949C14.3671 52.8481 13.9241 52.8481 13.6709 52.5949L7.65823 46.519C7.40506 46.2658 7.40506 45.8228 7.65823 45.5696L10.7595 42.4684C11.1392 42.0886 11.2658 41.4557 10.9494 40.9494C10.0633 39.4304 9.36709 37.7215 8.86076 36.0127C8.73418 35.443 8.22785 35.0633 7.59494 35.0633H3.16456C2.78481 35.0633 2.46835 34.7468 2.46835 34.3671V25.8228C2.46835 25.443 2.78481 25.1266 3.16456 25.1266H7.59494C8.16456 25.1266 8.67089 24.7468 8.86076 24.1772C9.36709 22.4051 10 20.7595 10.8861 19.1772C11.1392 18.6709 11.0759 18.038 10.6962 17.6582L7.53165 14.4937C7.27848 14.2405 7.27848 13.7975 7.53165 13.5443L13.5443 7.53165C13.7975 7.27848 14.2405 7.27848 14.4937 7.53165L17.5949 10.6329C17.9747 11.0127 18.6076 11.1392 19.1139 10.8228C20.6329 9.93671 22.3418 9.24051 24.0506 8.73418C24.6203 8.60759 25 8.10127 25 7.46835V3.03797C25 2.65823 25.3165 2.34177 25.6962 2.34177H34.1772C34.557 2.34177 34.8734 2.65823 34.8734 3.03797V7.46835C34.8734 8.03797 35.2532 8.5443 35.8228 8.73418C37.5949 9.24051 39.2405 9.87342 40.7595 10.7595C41.2658 11.0127 41.8987 10.9494 42.2785 10.5696L45.443 7.40506C45.6962 7.1519 46.1392 7.1519 46.3924 7.40506L52.4051 13.4177C52.5316 13.5443 52.5949 13.7342 52.5949 13.8608C52.5949 13.9873 52.5316 14.1772 52.4051 14.3671L49.3038 17.4684C48.9241 17.8481 48.7975 18.481 49.1139 18.9873C50 20.5063 50.6962 22.2152 51.2025 23.924C51.3291 24.4937 51.8354 24.8734 52.4684 24.8734H56.8987C57.2785 24.8734 57.5949 25.1899 57.5949 25.5696V34.2405H57.5316Z" fill="#0CB4C4"></path></svg>