<svg width="61" height="60" viewBox="0 0 61 60" fill="none" xmlns="http://www.w3.org/2000/svg"><path d="M13.3244 22.16C13.3244 21.7035 13.6921 21.3357 14.1486 21.3357H26.037C26.4936 21.3357 26.8613 21.7035 26.8613 22.16C26.8613 22.6165 26.4936 22.9843 26.037 22.9843H14.1486C13.6921 22.9843 13.3244 22.6165 13.3244 22.16ZM8.63875 18.1908C8.31539 17.8675 7.79547 17.8675 7.4721 18.1908L5.31634 20.3403L4.53012 19.5541C4.20676 19.2307 3.68684 19.2307 3.36347 19.5541C3.04011 19.8774 3.04011 20.3973 3.36347 20.7207L4.73302 22.0902C4.89153 22.2488 5.1071 22.3312 5.31634 22.3312C5.52558 22.3312 5.73481 22.2488 5.89966 22.0902L8.63241 19.3575C8.95578 19.0341 8.95578 18.5142 8.63241 18.1908H8.63875ZM8.63875 32.6408C8.31539 32.3174 7.79547 32.3174 7.4721 32.6408L5.31634 34.7902L4.53012 34.004C4.20676 33.6807 3.68684 33.6807 3.36347 34.004C3.04011 34.3274 3.04011 34.8473 3.36347 35.1707L4.73302 36.5402C4.89153 36.6987 5.1071 36.7811 5.31634 36.7811C5.52558 36.7811 5.73481 36.6987 5.89966 36.5402L8.63241 33.8075C8.95578 33.4841 8.95578 32.9642 8.63241 32.6408H8.63875ZM26.0307 50.2357H14.1423C13.6858 50.2357 13.318 50.6034 13.318 51.0599C13.318 51.5164 13.6858 51.8842 14.1423 51.8842H26.0307C26.4872 51.8842 26.855 51.5164 26.855 51.0599C26.855 50.6034 26.4872 50.2357 26.0307 50.2357ZM8.63875 47.0908C8.31539 46.7674 7.79547 46.7674 7.4721 47.0908L5.32268 49.2402L4.53646 48.454C4.2131 48.1306 3.69318 48.1306 3.36981 48.454C3.04645 48.7773 3.04645 49.2973 3.36981 49.6206L4.73936 50.9902C4.89787 51.1487 5.11344 51.2311 5.32268 51.2311C5.53192 51.2311 5.74115 51.1487 5.90601 50.9902L8.63875 48.2574C8.96212 47.9341 8.96212 47.4141 8.63875 47.0908ZM59.3753 54.2428C58.6842 54.934 57.7775 55.2763 56.8772 55.2763C55.9768 55.2763 55.0638 54.934 54.379 54.2428L49.1925 49.0563C48.8691 48.733 48.8691 48.213 49.1925 47.8897L49.313 47.7692L47.4615 45.9178C47.4615 45.9178 47.4298 45.9368 47.4108 45.9495V59.1757C47.4108 59.6322 47.0431 60 46.5865 60H6.00745C5.55094 60 5.18319 59.6322 5.18319 59.1757V54.1033H1.76567C1.30915 54.1033 0.941406 53.7356 0.941406 53.2791V44.7955C0.941406 44.339 1.30915 43.9713 1.76567 43.9713H5.18319V39.6534H1.76567C1.30915 39.6534 0.941406 39.2856 0.941406 38.8291V30.3456C0.941406 29.889 1.30915 29.5213 1.76567 29.5213H5.18319V25.2034H1.76567C1.30915 25.2034 0.941406 24.8357 0.941406 24.3792V15.8956C0.941406 15.4391 1.30915 15.0713 1.76567 15.0713H5.18319V4.10863C5.18319 3.65212 5.55094 3.28437 6.00745 3.28437H22.1059C22.5054 1.41393 24.2363 0 26.3033 0C28.3703 0 30.1013 1.41393 30.5007 3.28437H46.5992C47.0557 3.28437 47.4235 3.65212 47.4235 4.10863V23.352C51.0186 25.7804 53.3392 29.8383 53.4279 34.3781C53.485 37.2503 52.6481 39.9958 51.0566 42.3164L52.9144 44.1742L53.0348 44.0537C53.3582 43.7303 53.8781 43.7303 54.2015 44.0537L59.388 49.2402C60.7639 50.6161 60.7639 52.8606 59.388 54.2428H59.3753ZM43.4861 23.2506L43.3656 24.9308C47.3601 26.3954 50.0548 30.1363 50.1436 34.4479C50.2006 37.2186 49.1735 39.8373 47.2586 41.8345C45.3438 43.8318 42.7632 44.9604 39.9924 45.0174C39.9227 45.0174 39.853 45.0174 39.7832 45.0174C34.1655 45.0174 29.537 40.503 29.4229 34.86C29.3341 30.5231 32.0161 26.5666 36.0106 25.0005L35.8394 23.3266C30.9573 25.0132 27.6919 29.6354 27.7997 34.8917C27.9328 41.4985 33.4364 46.7864 40.0242 46.6343C43.2198 46.5709 46.1998 45.2647 48.419 42.9631L48.4316 42.9504C50.6445 40.6425 51.8301 37.6054 51.7667 34.4098C51.6653 29.2677 48.3048 24.804 43.4861 23.2442V23.2506ZM36.1882 26.7188C33.0623 28.1391 31.0016 31.341 31.0714 34.8283C31.1665 39.6344 35.161 43.464 39.9607 43.3689C42.2877 43.3245 44.4561 42.3735 46.073 40.6932C47.6835 39.013 48.5458 36.8065 48.5014 34.4796C48.4316 31.0176 46.3583 27.9996 43.2451 26.6554L42.852 32.1843C42.7696 33.3256 41.8692 34.2006 40.7533 34.2133L38.9272 34.2386H38.8955C37.7923 34.2386 36.8793 33.3953 36.7651 32.2731L36.2008 26.7125L36.1882 26.7188ZM42.0024 20.9299C42.0404 20.3973 41.8439 19.8711 41.4444 19.4526C40.9752 18.9517 40.3095 18.66 39.5993 18.6727C38.9146 18.6854 38.2361 18.9961 37.7796 19.5097C37.3929 19.9408 37.209 20.4734 37.266 21.006L38.401 32.1146C38.4327 32.3999 38.6673 32.6218 38.9019 32.6028L40.7279 32.5774C40.9879 32.5774 41.1908 32.3618 41.2098 32.0765L42.0087 20.9363L42.0024 20.9299ZM19.3986 4.9329V8.90838H33.2081V4.9329H29.7652C29.3087 4.9329 28.941 4.56515 28.941 4.10863C28.941 2.75177 27.7617 1.64853 26.3033 1.64853C24.845 1.64853 23.6657 2.75177 23.6657 4.10863C23.6657 4.56515 23.298 4.9329 22.8414 4.9329H19.3986ZM2.58993 23.5549H9.42497V16.7199H2.58993V23.5549ZM2.58993 38.0049H9.42497V31.1698H2.58993V38.0049ZM2.58993 52.4548H9.42497V45.6198H2.58993V52.4548ZM45.7686 46.8942C44.0123 47.7565 42.0785 48.2384 40.0622 48.2828C39.9671 48.2828 39.8783 48.2828 39.7832 48.2828C38.6102 48.2828 37.4753 48.1179 36.3911 47.839H14.1486C13.6921 47.839 13.3244 47.4712 13.3244 47.0147C13.3244 46.5582 13.6921 46.1904 14.1486 46.1904H32.5677C29.4546 44.2312 27.1847 41.0546 26.4365 37.3137C26.316 37.3835 26.1829 37.4342 26.037 37.4342H14.1486C13.6921 37.4342 13.3244 37.0665 13.3244 36.61C13.3244 36.1534 13.6921 35.7857 14.1486 35.7857H26.037C26.1068 35.7857 26.1639 35.8111 26.2273 35.8237C26.2019 35.5257 26.1702 35.2277 26.1639 34.9234C26.1512 34.4035 26.1829 33.8962 26.2273 33.389H14.1486C13.6921 33.389 13.3244 33.0212 13.3244 32.5647C13.3244 32.1082 13.6921 31.7405 14.1486 31.7405H26.4745C27.489 27.0168 30.9509 23.1428 35.6809 21.6528L35.6302 21.1582C35.5478 20.3783 35.738 19.6111 36.1565 18.9327H14.1486C13.6921 18.9327 13.3244 18.5649 13.3244 18.1084C13.3244 17.6519 13.6921 17.2842 14.1486 17.2842H37.9191C37.9762 17.2842 38.0332 17.3032 38.0903 17.3159C38.5595 17.1256 39.0667 17.0115 39.5803 17.0052C39.5803 17.0052 39.6184 17.0052 39.6437 17.0052C40.7787 17.0052 41.8692 17.4744 42.6491 18.2986C43.3656 19.0595 43.727 20.0296 43.6509 21.025L43.6129 21.5513C44.361 21.7669 45.0839 22.0459 45.7686 22.3819V4.9329H34.8503V9.73264C34.8503 10.1892 34.4826 10.5569 34.0261 10.5569H18.568C18.1114 10.5569 17.7437 10.1892 17.7437 9.73264V4.9329H6.83172V15.0713H10.2492C10.7058 15.0713 11.0735 15.4391 11.0735 15.8956V24.3792C11.0735 24.8357 10.7058 25.2034 10.2492 25.2034H6.83172V29.5213H10.2492C10.7058 29.5213 11.0735 29.889 11.0735 30.3456V38.8291C11.0735 39.2856 10.7058 39.6534 10.2492 39.6534H6.83172V43.9713H10.2492C10.7058 43.9713 11.0735 44.339 11.0735 44.7955V53.2791C11.0735 53.7356 10.7058 54.1033 10.2492 54.1033H6.83172V58.3515H45.7686V46.8942ZM50.4796 46.6089L51.7477 45.3408L50.0611 43.6542L48.793 44.9223L50.4796 46.6089ZM58.215 50.4068L53.6118 45.8037L53.4913 45.9241L51.0629 48.3589L50.9425 48.4793L55.5457 53.0825C56.2812 53.818 57.4795 53.818 58.215 53.0825C58.9505 52.347 58.9505 51.1487 58.215 50.4132V50.4068ZM36.5052 37.8781C36.5369 36.0647 38.0396 34.6 39.8466 34.6507C41.66 34.6824 43.1056 36.1788 43.0739 37.9922C43.0422 39.7865 41.5776 41.2195 39.7896 41.2195C39.7705 41.2195 39.7515 41.2195 39.7325 41.2195C37.9191 41.1878 36.4735 39.6914 36.5052 37.8781ZM38.1537 37.9034C38.141 38.8038 38.8575 39.5519 39.7642 39.571C39.7769 39.571 39.7832 39.571 39.7896 39.571C40.6772 39.571 41.4127 38.8545 41.4254 37.9605C41.4381 37.0601 40.7216 36.312 39.8149 36.2929C39.8022 36.2929 39.7959 36.2929 39.7896 36.2929C38.9019 36.2929 38.1664 37.0094 38.1537 37.9034Z" fill="#0CB4C4"></path></svg>