<svg xmlns="http://www.w3.org/2000/svg" xmlns:xlink="http://www.w3.org/1999/xlink" version="1.1" id="Layer_1" x="0px" y="0px" width="65.319px" height="60px" viewBox="117.34 120 65.319 60" enable-background="new 117.34 120 65.319 60" xml:space="preserve"><g><path fill="#0CB4C4" d="M178.873,120h-50.8c-2.146,0-3.884,1.738-3.884,3.884v2.862h-2.964c-2.146,0.102-3.884,1.84-3.884,3.986 c0,7.155,0,38.637,0,45.383c0,2.146,1.738,3.884,3.884,3.884h50.801c2.146,0,3.884-1.737,3.884-3.884v-2.862h2.862 c2.146,0,3.884-1.737,3.884-3.884v-45.384C182.758,121.84,181.02,120,178.873,120z M119.385,130.733c0-1.022,0.817-1.84,1.84-1.84 h50.801c1.022,0,1.84,0.817,1.84,1.84v5.417h-54.48V130.733z M172.025,178.058h-50.801c-1.022,0-1.84-0.817-1.84-1.84v-38.023 h54.582v37.922C173.967,177.139,173.048,178.058,172.025,178.058z M180.713,169.37c0,1.022-0.817,1.84-1.84,1.84h-2.861 c0-15.23,0-26.065,0-40.477c0-2.146-1.738-3.884-3.885-3.884h-45.996v-2.862c0-1.022,0.818-1.839,1.84-1.839h50.801 c1.022,0,1.84,0.817,1.84,1.839v45.384H180.713z"></path><path fill="#0CB4C4" d="M146.676,141.363C146.676,141.363,146.574,141.363,146.676,141.363c-9.097,0-16.457,7.461-16.457,16.559 c0,4.396,1.738,8.483,4.906,11.652c3.066,3.066,7.155,4.805,11.55,4.805h0.103c9.097,0,16.456-7.462,16.354-16.56 C163.03,148.723,155.671,141.363,146.676,141.363z M146.574,143.407C146.574,143.407,146.676,143.407,146.574,143.407 c3.578,0,6.848,1.227,9.404,3.476l-2.044,2.146c-0.205,0-0.512,0.102-0.614,0.307c-2.044,1.84-3.884,1.84-5.928,0 c-0.409-0.307-1.022-0.307-1.329,0c-2.044,1.84-3.884,1.84-6.031,0c-0.409-0.307-0.817-0.307-1.227-0.205 c-0.409,0.103-0.613,0.511-0.613,0.92v9.404c0,1.124,0.716,2.352,1.738,3.577l-4.191,4.294c-2.249-2.556-3.577-5.929-3.577-9.404 C132.264,149.949,138.703,143.51,146.574,143.407z M153.014,159.455c0,1.533-3.578,4.906-6.338,6.95 c-1.227-0.919-2.658-2.146-3.884-3.271l10.12-10.222L153.014,159.455z M140.339,159.455v-7.359c2.146,1.124,4.293,0.92,6.337-0.716 c1.227,0.92,2.453,1.329,3.68,1.329l-8.79,8.893C140.748,160.784,140.339,159.966,140.339,159.455z M146.676,172.232 L146.676,172.232c-3.578,0-6.848-1.228-9.404-3.476l4.089-4.191c1.84,1.84,3.986,3.476,4.702,3.987 c0.205,0.102,0.409,0.204,0.613,0.204c0.205,0,0.409-0.103,0.613-0.204c1.329-0.921,7.769-5.827,7.769-9.098v-8.586l2.453-2.453 c2.249,2.657,3.577,5.929,3.577,9.403C161.088,165.69,154.648,172.13,146.676,172.232z"></path><path fill="#0CB4C4" d="M124.188,131.755c-0.409,0.409-0.409,1.022,0,1.431c0.409,0.409,1.022,0.409,1.431,0 c0.409-0.409,0.409-1.022,0-1.431C125.313,131.346,124.598,131.346,124.188,131.755z"></path><path fill="#0CB4C4" d="M130.833,131.755c-0.409,0.409-0.409,1.022,0,1.431c0.409,0.409,1.022,0.409,1.431,0 c0.409-0.409,0.409-1.022,0-1.431C131.957,131.346,131.242,131.346,130.833,131.755z"></path><path fill="#0CB4C4" d="M137.477,131.755c-0.409,0.409-0.409,1.125,0,1.431c0.409,0.409,1.022,0.409,1.431,0 c0.409-0.409,0.409-1.022,0-1.431C138.499,131.346,137.885,131.346,137.477,131.755z"></path></g></svg>