<svg width="74" height="60" viewBox="0 0 74 60" fill="none" xmlns="http://www.w3.org/2000/svg"><path d="M39.4326 0.299805C52.3464 0.30003 62.9393 10.4924 63.5752 23.2549L63.5859 23.4658L63.7871 23.5273C69.5966 25.3078 73.7002 30.7585 73.7002 36.9121C73.7 43.3144 69.3606 48.7135 63.4668 50.3604L62.9102 50.5156L63.3584 50.8818C65.416 52.5625 66.8562 54.9777 67.2666 57.7764L67.335 58.3408C67.3676 58.6891 67.2524 59.0361 67.0176 59.2939C66.7822 59.5523 66.4482 59.7002 66.0986 59.7002H7.90137C7.55182 59.7002 7.21783 59.5523 6.98242 59.2939C6.77686 59.0683 6.66249 58.7741 6.65918 58.4707L6.66504 58.3408C6.95432 55.3028 8.44693 52.6745 10.6416 50.8818L11.0898 50.5156L10.5332 50.3604C4.63944 48.7135 0.299977 43.3144 0.299805 36.9121C0.299805 29.3172 6.38293 23.115 13.9326 22.9229L14.2939 22.9189C14.5535 22.919 14.8049 22.9247 15.0488 22.9365L15.3398 22.9502L15.3623 22.6592C16.3052 10.1827 26.7673 0.299805 39.4326 0.299805ZM17.6006 50.8887C13.8035 50.8887 10.5749 53.3431 9.48828 56.8271L9.36719 57.2168H25.835L25.7129 56.8271C24.6255 53.3432 21.3976 50.8887 17.6006 50.8887ZM37 50.8887C33.2029 50.8887 29.9743 53.3431 28.8877 56.8271L28.7666 57.2168H45.2334L45.1123 56.8271C44.0257 53.3431 40.7971 50.8887 37 50.8887ZM56.3994 50.8887C52.6024 50.8887 49.3745 53.3432 48.2871 56.8271L48.165 57.2168H64.6328L64.5117 56.8271C63.4251 53.3431 60.1965 50.8887 56.3994 50.8887ZM39.4326 2.7832C27.7409 2.7832 18.1457 12.1693 17.7861 23.8203L17.7764 24.377C17.7748 24.7025 17.6447 25.0138 17.418 25.2432L17.3145 25.3359C17.0591 25.5396 16.7359 25.6356 16.417 25.6055L16.2803 25.584L15.8242 25.5039C15.357 25.4352 14.8518 25.4014 14.2939 25.4014C7.94731 25.4014 2.7832 30.5648 2.7832 36.9121C2.78338 42.1655 6.33422 46.5939 11.1592 47.9609L11.917 48.1758L11.4941 47.5117C10.7777 46.3865 10.3507 45.0635 10.3506 43.6387C10.3506 39.6417 13.6027 36.3887 17.6006 36.3887C21.5984 36.3887 24.8506 39.6417 24.8506 43.6387C24.8505 45.7877 23.891 47.7026 22.3936 49.0342L22.0596 49.3311L22.4609 49.5283C24.3675 50.4624 25.9577 51.9358 27.042 53.7637L27.3008 54.1992L27.5586 53.7637C28.6428 51.9357 30.233 50.4624 32.1396 49.5283L32.541 49.3311L32.207 49.0342C30.7096 47.7026 29.7501 45.7877 29.75 43.6387C29.75 39.6417 33.0021 36.3887 37 36.3887C40.9979 36.3887 44.25 39.6417 44.25 43.6387C44.2499 45.7877 43.2904 47.7026 41.793 49.0342L41.459 49.3311L41.8604 49.5283C43.767 50.4624 45.3572 51.9357 46.4414 53.7637L46.6992 54.1992L46.958 53.7637C48.0423 51.9358 49.6325 50.4624 51.5391 49.5283L51.9404 49.3311L51.6064 49.0342C50.109 47.7026 49.1495 45.7877 49.1494 43.6387C49.1494 39.6417 52.4016 36.3887 56.3994 36.3887C60.3973 36.3887 63.6494 39.6417 63.6494 43.6387C63.6493 45.0635 63.2223 46.3865 62.5059 47.5117L62.083 48.1758L62.8408 47.9609C67.6658 46.5939 71.2166 42.1655 71.2168 36.9121C71.2168 31.6848 67.6211 27.0787 62.5957 25.7686L62.1055 25.6523C61.5687 25.5375 61.1755 25.087 61.1279 24.5488L61.123 24.4395C61.1068 12.4982 51.3763 2.78344 39.4326 2.7832ZM17.6006 38.8711C14.9719 38.8711 12.834 41.01 12.834 43.6387C12.8342 46.2672 14.972 48.4053 17.6006 48.4053C20.2291 48.4052 22.367 46.2671 22.3672 43.6387C22.3672 41.01 20.2293 38.8712 17.6006 38.8711ZM37 38.8711C34.3713 38.8711 32.2334 41.01 32.2334 43.6387C32.2336 46.2672 34.3714 48.4053 37 48.4053C39.6286 48.4053 41.7664 46.2672 41.7666 43.6387C41.7666 41.01 39.6287 38.8711 37 38.8711ZM56.3994 38.8711C53.7707 38.8712 51.6328 41.01 51.6328 43.6387C51.633 46.2671 53.7709 48.4052 56.3994 48.4053C59.028 48.4053 61.1658 46.2672 61.166 43.6387C61.166 41.01 59.0281 38.8711 56.3994 38.8711Z" fill="#0CB4C4" stroke="white" stroke-width="0.6"></path><path d="M39.4409 7.97461C40.1266 7.97475 40.6821 8.53056 40.6821 9.2168C40.6819 9.90286 40.1265 10.4579 39.4409 10.458C31.8849 10.458 25.6861 16.5208 25.4575 24.0459L25.4507 24.4053C25.447 25.0892 24.8919 25.6405 24.2095 25.6406H24.2036C23.5606 25.6372 23.0336 25.146 22.9731 24.5205L22.9673 24.3936C23.0131 15.34 30.4039 7.97461 39.4409 7.97461Z" fill="#0CB4C4" stroke="white" stroke-width="0.6"></path></svg>