<svg width="63" height="62" viewBox="0 0 63 62" fill="none" xmlns="http://www.w3.org/2000/svg"><path d="M8.21384 26.0396V16.9107C8.21384 14.2324 10.214 12.0546 12.6723 12.0546H21.1548L19.3357 10.238C18.9967 9.9 18.9993 9.35558 19.3357 9.01751C19.6747 8.68207 20.2206 8.68207 20.5596 9.01751L23.8537 12.3048C23.8744 12.3255 23.8925 12.3461 23.9132 12.3693C23.921 12.3771 23.9262 12.3874 23.9314 12.3952C23.9417 12.4081 23.9521 12.4235 23.9624 12.4364C23.9702 12.4468 23.9753 12.4597 23.9831 12.47C23.9909 12.4829 23.9986 12.4958 24.0064 12.5087C24.0142 12.5216 24.0193 12.5319 24.0245 12.5448C24.0323 12.5577 24.0374 12.5706 24.0426 12.5861C24.0478 12.599 24.0504 12.6093 24.0556 12.6222C24.0607 12.6377 24.0659 12.6506 24.0711 12.6661C24.0737 12.679 24.0763 12.6893 24.0814 12.7022C24.0866 12.7177 24.0892 12.7332 24.0918 12.7487C24.0944 12.7616 24.097 12.777 24.0995 12.7925C24.1021 12.8054 24.1047 12.8183 24.1047 12.8338C24.1073 12.8596 24.1073 12.8828 24.1099 12.9086V12.9164V12.919C24.1099 12.9473 24.1073 12.9757 24.1047 13.0041C24.1021 13.017 24.0995 13.0299 24.0995 13.0428C24.097 13.0583 24.0944 13.0738 24.0918 13.0867C24.0892 13.1022 24.084 13.1151 24.0814 13.1305C24.0788 13.1434 24.0763 13.1563 24.0711 13.1692C24.0659 13.1821 24.0607 13.1951 24.0556 13.2105C24.0504 13.2234 24.0478 13.2363 24.0426 13.2492C24.0374 13.2621 24.0323 13.2725 24.0245 13.2854C24.0193 13.2983 24.0116 13.3112 24.0064 13.3241C23.9986 13.337 23.9935 13.3473 23.9857 13.3576C23.9779 13.3705 23.9702 13.3834 23.9624 13.3963C23.9546 13.4092 23.9443 13.4221 23.9365 13.4324C23.9288 13.4428 23.921 13.4531 23.9132 13.4634C23.8951 13.484 23.877 13.5073 23.8563 13.5279L20.5622 16.8127C20.394 16.9804 20.1715 17.0655 19.9516 17.0655C19.729 17.0655 19.5091 16.9804 19.3409 16.8127C19.0019 16.4746 19.0019 15.9302 19.3409 15.5922L21.1574 13.7808H12.6776C11.1716 13.7808 9.94765 15.1845 9.94765 16.9107V26.0396C9.94765 26.517 9.5595 26.9014 9.08337 26.9014C8.60466 26.9014 8.2191 26.5144 8.2191 26.0396L8.21384 26.0396ZM62 19.0906V22.1895C62 23.3377 61.1616 24.2383 59.8134 24.5376L56.9231 25.1956C56.6488 26.0677 56.2969 26.9141 55.8699 27.7217L57.4509 30.2297C58.1884 31.3934 58.1419 32.6191 57.3319 33.4319L55.135 35.6226C54.3173 36.4328 53.0856 36.4767 51.9186 35.7413L49.406 34.1647C48.5934 34.5905 47.7473 34.9414 46.8727 35.2123L46.2129 38.0997C45.9101 39.4414 45.0096 40.2775 43.8581 40.2775H40.7504C39.5989 40.2775 38.6958 39.4415 38.3956 38.0971L37.7384 35.2149C36.8612 34.9414 36.0124 34.5905 35.2025 34.1647L32.6873 35.7413C31.5203 36.4767 30.2886 36.4303 29.4761 35.62L27.2792 33.4319C26.4666 32.6165 26.4227 31.3883 27.1601 30.2246L28.7412 27.7191C28.3142 26.9088 27.9623 26.0625 27.6906 25.193L24.7951 24.535C23.4495 24.2357 22.6111 23.3352 22.6111 22.1869V19.088C22.6111 17.9397 23.4495 17.0392 24.7976 16.7399L27.6906 16.0819C27.9623 15.2124 28.3142 14.366 28.7412 13.5558L27.1601 11.0477C26.4227 9.88404 26.4692 8.65837 27.2792 7.84556L29.4787 5.65488C30.2912 4.84464 31.5203 4.7982 32.6899 5.53618L35.2025 7.11274C36.0151 6.68699 36.8612 6.33605 37.7358 6.06516L38.3956 3.17779C38.6958 1.83607 39.5989 1 40.7504 1H43.8581C45.0096 1 45.9101 1.836 46.2129 3.18037L46.8727 6.06516C47.7447 6.33609 48.5935 6.68702 49.406 7.11274L51.9212 5.53618C53.0856 4.80336 54.3173 4.84722 55.1324 5.65488L57.3293 7.84556C58.1419 8.66095 58.1859 9.88919 57.4484 11.0503L55.8673 13.5558C56.2943 14.3635 56.6462 15.2098 56.9179 16.0819L59.8134 16.7399C61.159 17.0392 61.9974 17.9397 61.9974 19.088L62 19.0906ZM60.2715 19.0906C60.2715 18.6571 59.6866 18.479 59.4357 18.4248L56.0407 17.6533C55.7302 17.5836 55.4844 17.3463 55.399 17.0418C55.104 15.9658 54.6718 14.9285 54.1155 13.9557C53.9577 13.6796 53.9654 13.339 54.1336 13.0707L55.9864 10.1343C56.1261 9.915 56.4133 9.37574 56.1054 9.06607L53.9137 6.88055C53.6058 6.5735 53.0623 6.86249 52.845 6.99925L49.9003 8.84676C49.6312 9.01706 49.2896 9.02222 49.0127 8.86482C48.0372 8.31006 46.997 7.88172 45.9179 7.58499C45.61 7.49984 45.3745 7.25471 45.3047 6.94508L44.5309 3.56229C44.474 3.30943 44.2955 2.72372 43.8608 2.72372H40.753C40.3183 2.72372 40.1398 3.30686 40.0854 3.55714L39.3117 6.9425C39.2418 7.25214 39.0038 7.49726 38.6984 7.58242C37.6194 7.87657 36.5792 8.30751 35.6036 8.86225C35.3267 9.01965 34.9852 9.0119 34.7161 8.84419L31.7714 6.99667C31.6006 6.8883 31.0184 6.56318 30.7053 6.8754L28.5058 9.0635C28.2005 9.37055 28.4877 9.90981 28.6248 10.1292L30.4776 13.0656C30.6484 13.3339 30.6535 13.6745 30.4957 13.9506C29.9394 14.9234 29.5098 15.9606 29.2122 17.0366C29.1268 17.3437 28.881 17.5785 28.5705 17.6482L25.1781 18.4197C24.9245 18.4765 24.3372 18.6545 24.3372 19.088V22.1869C24.3372 22.6204 24.922 22.7985 25.173 22.8526L28.5679 23.6242C28.8784 23.6938 29.1243 23.9312 29.2097 24.2357C29.5046 25.3117 29.9368 26.349 30.4931 27.3218C30.651 27.5979 30.6432 27.9384 30.475 28.2068L28.6222 31.1432C28.4825 31.3625 28.1953 31.9017 28.5032 32.2114L30.7001 34.3969C31.0158 34.7117 31.5954 34.3866 31.7662 34.2782L34.7109 32.4307C34.8507 32.343 35.0111 32.2991 35.1715 32.2991C35.319 32.2991 35.4665 32.3378 35.5985 32.4127C36.5715 32.9648 37.6117 33.3958 38.6985 33.6951C39.0064 33.7802 39.2419 34.0253 39.3117 34.335L40.0803 37.7126C40.1372 37.9655 40.3158 38.5486 40.7505 38.5486H43.8582C44.2929 38.5486 44.4715 37.9655 44.5258 37.7152L45.2995 34.3298C45.3694 34.0202 45.6075 33.7751 45.9128 33.6899C46.9918 33.3958 48.032 32.9648 49.0076 32.4101C49.2845 32.2527 49.626 32.2604 49.8951 32.4281L52.8398 34.2757C53.0598 34.415 53.6006 34.7014 53.9111 34.3944L56.1028 32.2088C56.4108 31.9018 56.121 31.3599 55.9838 31.1432L54.1311 28.2068C53.9603 27.9384 53.9551 27.5978 54.1129 27.3218C54.6667 26.3542 55.0988 25.3143 55.399 24.2331C55.4844 23.9286 55.7302 23.6938 56.0407 23.6216L59.4279 22.8501C59.6841 22.7933 60.2689 22.6153 60.2689 22.1818V19.0828L60.2715 19.0906ZM51.22 20.6413C51.22 25.5439 47.2221 29.5305 42.3056 29.5305C37.3892 29.5305 33.3913 25.5439 33.3913 20.6413C33.3913 15.7388 37.3892 11.7522 42.3056 11.7522C47.2221 11.7522 51.22 15.7388 51.22 20.6413ZM49.4914 20.6413C49.4914 16.6909 46.2672 13.4756 42.3054 13.4756C38.3435 13.4756 35.1193 16.6907 35.1193 20.6413C35.1193 24.5918 38.3435 27.8071 42.3054 27.8071C46.2672 27.8071 49.4914 24.592 49.4914 20.6413ZM31.2514 43.0798C31.5024 44.0217 31.0237 44.9428 29.999 45.4847L28.0867 46.491C28.0531 47.1231 27.9703 47.7553 27.8383 48.3772L29.4245 49.8402C30.2732 50.6298 30.4958 51.6413 30.0093 52.485L28.819 54.5441C28.3248 55.3904 27.3337 55.7026 26.2287 55.3595L24.1638 54.7222C23.6929 55.1453 23.1857 55.535 22.65 55.8807L22.7328 58.0353C22.7768 59.1912 22.2179 60.0659 21.2734 60.3188L18.9704 60.9329C18.8022 60.9768 18.6366 61 18.4736 61C17.7103 61 17.0064 60.5278 16.5613 59.6866L15.5548 57.7798C14.9182 57.7488 14.2842 57.6662 13.6606 57.5321L12.1908 59.1138C11.4042 59.9601 10.3872 60.1846 9.53851 59.6969L7.47616 58.51C6.62745 58.0223 6.31174 57.0314 6.65587 55.9271L7.29501 53.868C6.86546 53.3932 6.4773 52.89 6.13575 52.3585L3.97768 52.441C2.82101 52.4849 1.94382 51.9301 1.68507 50.9909L1.06663 48.6892C0.813047 47.7449 1.29434 46.8237 2.32161 46.287L4.22869 45.2833C4.26232 44.6485 4.34513 44.0189 4.4771 43.3971L2.89349 41.9314C2.04213 41.147 1.81704 40.1329 2.3061 39.2892L3.50159 37.2327C3.98806 36.3889 4.98172 36.0767 6.08918 36.4173L8.15411 37.0546C8.63023 36.6263 9.13484 36.2366 9.66525 35.8961L9.58245 33.7441C9.53846 32.5881 10.0974 31.7134 11.047 31.4605L13.3449 30.8438C14.2919 30.591 15.2131 31.0709 15.7565 32.0953L16.7657 34.0021C17.4022 34.0331 18.0336 34.1156 18.6572 34.2498L20.127 32.6681C20.9163 31.8166 21.9332 31.5947 22.7819 32.0875L24.8443 33.2719C25.693 33.7596 26.0061 34.7479 25.662 35.8548L25.0228 37.9139C25.4498 38.3835 25.838 38.8893 26.1847 39.4208L28.3453 39.3382C29.502 39.2944 30.3818 39.8517 30.6354 40.7986L31.2512 43.0926L31.2514 43.0798ZM29.5798 43.5237L28.9639 41.2323C28.9225 41.0723 28.5835 41.044 28.4102 41.0517L25.7475 41.1523C25.4318 41.1652 25.1317 41.0001 24.9686 40.7266C24.5417 40.0015 24.0241 39.3332 23.4342 38.7346C23.2091 38.5075 23.1288 38.1772 23.222 37.8728L24.0086 35.3311C24.0604 35.166 24.1199 34.8331 23.9802 34.7506L21.9152 33.5636C21.7367 33.4604 21.4107 33.8087 21.3951 33.8242L19.5812 35.7749C19.3638 36.0097 19.0352 36.1026 18.7272 36.0226C17.9147 35.8085 17.0763 35.6975 16.2354 35.6949C15.9171 35.6923 15.6221 35.5169 15.4746 35.2356L14.2274 32.8824C14.1472 32.7302 13.9531 32.4515 13.7953 32.4928L11.4974 33.1095C11.337 33.1533 11.3085 33.4888 11.3137 33.6617L11.4146 36.3193C11.4276 36.6367 11.262 36.936 10.9877 37.096C10.2709 37.514 9.5981 38.0275 8.99263 38.6261C8.76492 38.8506 8.4337 38.9306 8.12836 38.8377L5.57952 38.0533C5.5614 38.0481 5.09822 37.9088 4.9973 38.0817L3.80181 40.1382C3.70089 40.3137 4.05281 40.6414 4.06833 40.6543L6.02198 42.4631C6.25486 42.6798 6.3506 43.0049 6.27039 43.312C6.0582 44.1248 5.94694 44.966 5.94176 45.8072C5.93917 46.1245 5.76322 46.4161 5.48117 46.5632L3.12642 47.8017C3.10572 47.812 2.68134 48.0365 2.73569 48.2326L3.35155 50.5291C3.40589 50.7252 3.88718 50.7071 3.90788 50.7071L6.57053 50.6065C6.88881 50.5936 7.18897 50.7588 7.34942 51.0349C7.7712 51.7547 8.28616 52.4231 8.88129 53.0294C9.10383 53.2565 9.18404 53.5868 9.09089 53.8887L8.30425 56.4303C8.29649 56.4509 8.15935 56.9077 8.33789 57.0109L10.4002 58.1978C10.5788 58.301 10.9048 57.9527 10.9178 57.9372L12.7317 55.9865C12.8973 55.8085 13.1276 55.7104 13.3657 55.7104C13.4381 55.7104 13.5132 55.7207 13.5856 55.7388C14.3982 55.953 15.2391 56.0639 16.0801 56.0665C16.4009 56.0691 16.6933 56.2445 16.8408 56.5258L18.0829 58.879C18.0932 58.8971 18.3183 59.3177 18.515 59.2661L20.818 58.652C20.9733 58.6107 21.0043 58.2727 20.9966 58.0998L20.8956 55.4447C20.8827 55.1273 21.0483 54.8306 21.3226 54.668C22.0549 54.2397 22.7277 53.7236 23.3228 53.1379C23.5505 52.9134 23.8817 52.8334 24.1871 52.9263L26.7359 53.7107C26.7566 53.7184 27.2146 53.8578 27.3181 53.6772L28.5059 51.6206C28.6068 51.4452 28.2575 51.1149 28.2419 51.102L26.2883 49.3009C26.0554 49.0867 25.9597 48.759 26.0373 48.452C26.2495 47.634 26.3608 46.7954 26.3659 45.9568C26.3685 45.6395 26.5445 45.3479 26.8265 45.2008L29.1813 43.9623C29.2253 43.9391 29.6238 43.7223 29.572 43.5262L29.5798 43.5237ZM22.958 44.0655C23.962 47.8044 21.7289 51.6593 17.9821 52.6607C17.3766 52.8233 16.7607 52.9033 16.1475 52.9033C14.9287 52.9033 13.7255 52.5833 12.6386 51.9614C11.011 51.0248 9.8466 49.5102 9.36011 47.7014C8.87363 45.89 9.12463 43.9986 10.0639 42.3756C11.0033 40.7526 12.5222 39.5915 14.3361 39.1064C18.0804 38.1052 21.9461 40.332 22.9557 44.0683L22.958 44.0655ZM21.2891 44.5119C20.6525 42.151 18.5022 40.5873 16.1604 40.5873C15.7075 40.5873 15.2469 40.6466 14.7889 40.7679C13.4201 41.1343 12.2737 42.009 11.5647 43.2347C10.8557 44.4604 10.6668 45.8846 11.0343 47.2522C11.4017 48.6172 12.2789 49.7603 13.5081 50.4673C14.7346 51.1743 16.1681 51.3627 17.537 50.9962C20.3627 50.2402 22.0472 47.3322 21.2891 44.5119ZM49.6776 38.7243C49.1989 38.7243 48.8133 39.1114 48.8133 39.5861V48.715C48.8133 50.4413 47.5893 51.845 46.0834 51.845H37.6036L39.4227 50.0336C39.7616 49.6982 39.7616 49.1511 39.4227 48.8131C39.0863 48.4751 38.5377 48.4751 38.1987 48.8131L34.902 52.0978C34.8813 52.1185 34.8632 52.1391 34.8451 52.1598C34.8425 52.1649 34.8399 52.1675 34.8347 52.1727C34.8192 52.1907 34.8063 52.2088 34.7933 52.2294C34.7908 52.2346 34.7882 52.2372 34.7856 52.2423C34.7726 52.263 34.7597 52.281 34.7494 52.3043C34.7468 52.3068 34.7468 52.3094 34.7468 52.312C34.7338 52.3352 34.7235 52.3584 34.7131 52.3817V52.3842C34.6924 52.4359 34.6743 52.4875 34.664 52.5442C34.664 52.5468 34.664 52.552 34.6614 52.5545C34.6562 52.5778 34.6536 52.6036 34.651 52.6268C34.6484 52.6552 34.6459 52.6836 34.6459 52.712V52.7249C34.6459 52.7507 34.6484 52.7739 34.651 52.7997C34.6536 52.8229 34.6562 52.8461 34.6614 52.8693C34.6614 52.8745 34.664 52.8797 34.664 52.8848C34.6691 52.9106 34.6769 52.9364 34.6821 52.9622C34.6821 52.9648 34.6821 52.9648 34.6847 52.9674C34.6924 52.9932 34.7002 53.0164 34.7105 53.0422C34.7105 53.0448 34.7131 53.0448 34.7131 53.0474C34.7235 53.0706 34.7338 53.0913 34.7442 53.1145C34.7468 53.1171 34.7468 53.1222 34.7494 53.1248C34.7597 53.1454 34.7726 53.1635 34.7856 53.1841C34.7882 53.1893 34.7908 53.1945 34.7933 53.1996C34.8063 53.2177 34.8192 53.2358 34.8322 53.2512C34.8373 53.2564 34.8399 53.2616 34.8425 53.2667C34.8606 53.2874 34.8787 53.3106 34.8994 53.3286L38.1961 56.616C38.3643 56.7837 38.5868 56.8688 38.8068 56.8688C39.0293 56.8688 39.2493 56.7837 39.4175 56.616C39.7564 56.278 39.7564 55.7335 39.4175 55.3955L37.5958 53.5789H46.0756C48.5338 53.5789 50.5341 51.4011 50.5341 48.7228V39.5939C50.5341 39.1165 50.1459 38.732 49.6698 38.732L49.6776 38.7243Z" fill="#0CB4C4" stroke="#0CB4C4" stroke-width="0.2"></path></svg>