<svg version="1.1" id="Layer_1" xmlns="http://www.w3.org/2000/svg" xmlns:xlink="http://www.w3.org/1999/xlink" x="0px" y="0px" width="70.1px" height="60px" viewBox="0 0 70.1 60" enable-background="new 0 0 70.1 60" xml:space="preserve"><g><path fill="#0CB4C4" d="M64.134,0H5.966C2.693,0,0.001,2.691,0.001,5.965v44.742c0,3.273,2.692,5.967,5.965,5.967h58.168 c3.271,0,5.965-2.693,5.965-5.967V5.965C70.099,2.691,67.404,0,64.134,0z M67.116,50.707c0,1.637-1.348,2.982-2.982,2.982H5.966 c-1.635,0-2.981-1.346-2.981-2.982V14.914h58.91v-2.983H2.984V5.965c0-1.636,1.347-2.983,2.981-2.983h58.168 c1.635,0,2.982,1.347,2.982,2.983V50.707z"></path><rect x="7.458" y="5.965" fill="#0CB4C4" width="3.729" height="2.983"></rect><rect x="14.915" y="5.965" fill="#0CB4C4" width="3.729" height="2.983"></rect><rect x="22.373" y="5.965" fill="#0CB4C4" width="3.729" height="2.983"></rect><path fill="#0CB4C4" d="M15.34,30.021l-4.026-4.026l2.11-2.111l1.916,1.918l4.796-4.795l2.109,2.109L15.34,30.021z"></path><path fill="#0CB4C4" d="M15.34,47.381l-4.026-4.025l2.11-2.111l1.916,1.926l4.796-4.797l2.109,2.111L15.34,47.381z"></path><rect x="29.83" y="21.626" fill="#0CB4C4" width="24.609" height="2.983"></rect><rect x="29.83" y="27.591" fill="#0CB4C4" width="16.406" height="2.983"></rect><rect x="29.83" y="38.775" fill="#0CB4C4" width="24.609" height="2.982"></rect><rect x="29.83" y="44.74" fill="#0CB4C4" width="16.406" height="2.982"></rect></g></svg>