<svg width="60" height="60" viewBox="0 0 60 60" fill="none" xmlns="http://www.w3.org/2000/svg"><path d="M13.671 38.7756C9.50498 38.7756 6.11543 42.1652 6.11543 46.3312C6.11543 50.4972 9.50498 53.8868 13.671 53.8868C17.8371 53.8868 21.2266 50.4972 21.2266 46.3312C21.2266 42.1652 17.8378 38.7756 13.671 38.7756ZM13.671 51.9515C10.5717 51.9515 8.05073 49.4305 8.05073 46.3312C8.05073 43.2319 10.5717 40.7109 13.671 40.7109C16.7703 40.7109 19.2913 43.2319 19.2913 46.3312C19.2913 49.4298 16.7703 51.9515 13.671 51.9515ZM42.4792 5.44064C36.5478 5.44064 31.7226 9.95187 31.7226 15.4964C31.7226 18.0019 32.456 19.229 33.3068 20.652C34.3349 22.372 35.3987 24.1507 35.3987 28.5372C35.3987 28.6307 35.4158 28.7198 35.4395 28.8067C35.1426 29.2335 34.9652 29.7502 34.9652 30.3084C34.9652 31.5741 35.8619 32.6327 37.0526 32.8859C36.9792 33.1286 36.9272 33.381 36.9272 33.6475C36.9272 35.1018 38.1105 36.2851 39.564 36.2851H41.4392V50.7088C41.4392 51.178 41.1608 51.5425 40.921 51.5425H23.8604C24.2346 50.8127 24.5323 50.0466 24.7409 49.2531H26.299C26.8736 49.2531 27.3413 48.7854 27.3413 48.2108V44.4538C27.3413 43.8792 26.8736 43.4116 26.299 43.4116H24.7401C24.4773 42.4153 24.0809 41.4592 23.5613 40.5706L24.6614 39.4705C24.8559 39.2774 24.968 39.0087 24.9688 38.7333C24.9695 38.4572 24.8582 38.1884 24.6644 37.9939L22.012 35.3415C21.8205 35.1478 21.5517 35.0364 21.2749 35.0357H21.2726C20.9965 35.0357 20.7277 35.1463 20.5355 35.3378L19.4338 36.4402C18.5445 35.9206 17.5884 35.5242 16.5914 35.2614V33.7024C16.5914 33.1279 16.1237 32.6602 15.5491 32.6602H14.6383V19.4687C14.6383 18.9996 14.9167 18.6351 15.1564 18.6351H21.6022C22.1367 18.6351 22.5702 18.2023 22.5702 17.6671C22.5702 17.1326 22.1375 16.699 21.6022 16.699H15.1564C13.8039 16.699 12.703 17.941 12.703 19.468V32.6609H11.7944C11.2191 32.6609 10.7506 33.1279 10.7506 33.7024V35.2614C9.75738 35.5227 8.80124 35.9191 7.90968 36.4395L6.81324 35.3438C6.42796 34.9503 5.70492 34.957 5.333 35.3371L2.67689 37.9925C2.27751 38.3918 2.27751 39.0666 2.67689 39.466L3.77928 40.5684C3.25889 41.4592 2.86248 42.4153 2.60118 43.4101H1.04225C0.467677 43.4101 0 43.8778 0 44.4516V48.2071C0 48.7817 0.467677 49.2494 1.04225 49.2494H2.60118C2.86322 50.2449 3.25963 51.2003 3.78002 52.0911L2.67764 53.1934C2.48537 53.3864 2.37476 53.6559 2.3755 53.9328C2.37624 54.2142 2.48463 54.4762 2.67764 54.667L5.33968 57.3298C5.53492 57.5213 5.80513 57.6356 6.08351 57.6252C6.36412 57.6215 6.62468 57.5109 6.80656 57.3231L7.90894 56.2207C8.79975 56.7411 9.75589 57.1375 10.7506 57.3988V58.9578C10.7506 59.5323 11.2183 60 11.7929 60H15.5484C16.123 60 16.5899 59.5323 16.5899 58.9585V57.3996C17.5847 57.1383 18.5408 56.7411 19.4316 56.2207L20.5347 57.3238C20.9349 57.7232 21.6089 57.7232 22.0083 57.3238L24.6674 54.6655C24.9851 54.3456 25.046 53.866 24.8567 53.4755H40.9225C42.275 53.4755 43.3759 52.2336 43.3759 50.7066V36.2828H45.3921C46.8464 36.2828 48.0297 35.0995 48.0297 33.6453C48.0297 33.3788 47.9785 33.1264 47.9042 32.8836C49.095 32.6298 49.9925 31.5712 49.9925 30.3055C49.9925 29.748 49.8158 29.232 49.5196 28.8052C49.5441 28.7183 49.5612 28.6285 49.5612 28.5342C49.5612 24.1477 50.6249 22.3691 51.6531 20.6498C52.5031 19.229 53.2372 18.0019 53.2358 15.495C53.2358 9.95113 48.4105 5.44064 42.4792 5.44064ZM21.2726 55.3232L20.2719 54.3233C19.9602 54.0122 19.4776 53.9506 19.0983 54.1726L18.4695 54.5415C17.7213 54.9803 16.9188 55.3128 16.0836 55.5311L15.3784 55.7159C14.9523 55.8273 14.6554 56.2118 14.6554 56.652V58.0647H12.6867V56.6528C12.6867 56.2133 12.3897 55.828 11.9644 55.7167L11.2591 55.5318C10.4233 55.3136 9.62079 54.9803 8.87399 54.543L8.24522 54.1733C8.0923 54.0835 7.92304 54.0397 7.75527 54.0397C7.5051 54.0397 7.25716 54.137 7.07083 54.3233L6.07164 55.3232L4.68048 53.9313L5.68042 52.9321C5.9922 52.6204 6.05382 52.1371 5.83037 51.7577L5.46143 51.1297C5.02345 50.3829 4.69088 49.5797 4.47188 48.7438L4.28704 48.0386C4.17569 47.6125 3.79115 47.3156 3.35094 47.3156H1.93826V45.3469H3.35094C3.79115 45.3469 4.17569 45.0499 4.28704 44.6246L4.47188 43.9186C4.69013 43.0827 5.02345 42.2802 5.46143 41.5319L5.83037 40.9032C6.05308 40.5231 5.99072 40.0406 5.67968 39.7295L4.68048 38.7303L6.07238 37.3392L7.07232 38.3384C7.3841 38.6502 7.86588 38.7125 8.24522 38.4891L8.87399 38.1209C9.62301 37.6822 10.4255 37.3488 11.2606 37.1313L11.9659 36.9465C12.3912 36.8344 12.6882 36.4506 12.6882 36.0104V34.5992H14.6583V36.0111C14.6583 36.4513 14.9553 36.8359 15.3806 36.9472L16.0866 37.1321C16.924 37.3511 17.7264 37.6844 18.4718 38.1209L19.1005 38.4906C19.4806 38.714 19.9631 38.6524 20.2749 38.3406L21.2741 37.3414L22.6653 38.7333L21.6661 39.7325C21.355 40.0436 21.2927 40.5261 21.5154 40.9054L21.8843 41.5357C22.3216 42.2817 22.6549 43.0842 22.8739 43.9216L23.0587 44.6268C23.1701 45.0529 23.5546 45.3491 23.9948 45.3491H25.4075V47.317H23.9955C23.5553 47.317 23.1708 47.614 23.0594 48.0393L22.8746 48.7453C22.6556 49.5819 22.3223 50.3844 21.8851 51.1305L21.5161 51.7592C21.2934 52.1393 21.355 52.6218 21.6661 52.9336L21.9251 53.1934L21.9274 53.1957L22.666 53.9343L21.2726 55.3232ZM42.4792 21.5681C42.7019 21.5681 42.9216 21.551 43.1399 21.5243V27.6702H41.8192V21.5243C42.0367 21.5503 42.2572 21.5681 42.4792 21.5681ZM45.3929 34.3483H39.5655C39.1787 34.3483 38.864 34.0335 38.864 33.646C38.864 33.2585 39.1787 32.9438 39.5655 32.9438H45.3929C45.7796 32.9438 46.0951 33.2585 46.0951 33.646C46.0951 34.0335 45.7804 34.3483 45.3929 34.3483ZM47.3556 31.0092H45.3929H39.5655H37.6035C37.2167 31.0092 36.9019 30.6945 36.9019 30.307C36.9019 29.9195 37.2167 29.6047 37.6035 29.6047H47.3556C47.7424 29.6047 48.0579 29.9195 48.0579 30.307C48.0572 30.6945 47.7424 31.0092 47.3556 31.0092ZM49.9925 19.6573C49.0022 21.3135 47.7847 23.3497 47.64 27.6687H45.0752V20.9007C45.9467 20.4301 46.6935 19.7315 47.2079 18.8518C47.4774 18.3901 47.3215 17.7977 46.8605 17.5282C46.3995 17.2588 45.8064 17.4139 45.5369 17.8757C44.9037 18.9587 43.7323 19.632 42.4792 19.632C41.2261 19.632 40.0547 18.9587 39.4215 17.8757C39.152 17.4139 38.5596 17.2588 38.0979 17.5282C37.6361 17.7977 37.481 18.3901 37.7504 18.8518C38.2642 19.7315 39.0117 20.4301 39.8832 20.9015V27.6702H37.3199C37.1759 23.3504 35.9577 21.3142 34.9667 19.6565C34.1783 18.3381 33.6579 17.4674 33.6579 15.4957C33.6579 11.0179 37.6153 7.37519 42.4792 7.37519C47.343 7.37519 51.3005 11.0179 51.3005 15.4964C51.3019 17.4689 50.7808 18.3396 49.9925 19.6573ZM33.2385 3.74216C32.9712 3.27968 33.1294 2.68729 33.5926 2.42004C34.0543 2.15206 34.6474 2.31092 34.9147 2.77414L35.9666 4.59511C36.2338 5.05759 36.0757 5.64998 35.6125 5.91723C35.4603 6.00557 35.294 6.04714 35.13 6.04714C34.7952 6.04714 34.47 5.87343 34.2911 5.56313L33.2385 3.74216ZM27.2322 8.88735C27.4987 8.42413 28.0903 8.26526 28.5543 8.53325L30.3753 9.58441C30.8385 9.85165 30.9966 10.4433 30.7294 10.9065C30.5504 11.2168 30.2246 11.3905 29.8905 11.3905C29.7264 11.3905 29.5602 11.349 29.408 11.2606L27.587 10.2095C27.1238 9.94222 26.9649 9.35057 27.2322 8.88735ZM24.9569 17.6678C24.9569 17.1333 25.3897 16.6998 25.9249 16.6998H28.028C28.5624 16.6998 28.996 17.1326 28.996 17.6678C28.996 18.2023 28.5632 18.6358 28.028 18.6358H25.9249C25.3904 18.6351 24.9569 18.2023 24.9569 17.6678ZM30.8741 24.3905C31.1414 24.8537 30.9832 25.4453 30.52 25.7126L28.699 26.7637C28.5469 26.8521 28.3806 26.8937 28.2165 26.8937C27.8817 26.8937 27.5566 26.7199 27.3777 26.4096C27.1104 25.9464 27.2685 25.3548 27.7318 25.0875L29.5527 24.0364C30.0152 23.7684 30.6076 23.9273 30.8741 24.3905ZM57.7262 26.1587C57.5473 26.469 57.2214 26.6427 56.8874 26.6427C56.7233 26.6427 56.557 26.6012 56.4048 26.5128L54.5839 25.4609C54.1206 25.1937 53.9625 24.602 54.2298 24.1388C54.4963 23.6756 55.0879 23.5167 55.5519 23.7847L57.3728 24.8366C57.8353 25.1039 57.9934 25.6955 57.7262 26.1587ZM60.0015 17.3775C60.0015 17.912 59.5687 18.3456 59.0335 18.3456H56.9304C56.3959 18.3456 55.9624 17.9128 55.9624 17.3775C55.9624 16.8423 56.3952 16.4095 56.9304 16.4095H59.0335C59.5687 16.4103 60.0015 16.8431 60.0015 17.3775ZM54.0843 10.6556C53.817 10.1924 53.9751 9.60074 54.4384 9.3335L56.2593 8.28234C56.7218 8.01435 57.3142 8.17396 57.5814 8.63644C57.8487 9.09966 57.6906 9.69131 57.2273 9.95855L55.4064 11.0097C55.2542 11.0981 55.0879 11.1396 54.9238 11.1396C54.589 11.1396 54.2639 10.9659 54.0843 10.6556ZM48.7416 4.4511L49.7928 2.63013C50.06 2.16765 50.6517 2.00804 51.1149 2.27603C51.5781 2.54327 51.7362 3.13492 51.469 3.59814L50.4178 5.41912C50.2389 5.72942 49.913 5.90312 49.579 5.90312C49.4149 5.90312 49.2486 5.86155 49.0964 5.77321C48.6332 5.50523 48.4744 4.91358 48.7416 4.4511ZM41.3671 3.07108V0.968017C41.3671 0.433529 41.7999 0 42.3352 0C42.8697 0 43.3032 0.432787 43.3032 0.968017V3.07108C43.3032 3.60557 42.8704 4.0391 42.3352 4.0391C41.7999 4.0391 41.3671 3.60557 41.3671 3.07108Z" fill="#0CB4C4"></path></svg>