<svg width="62" height="62" viewBox="0 0 62 62" fill="none" xmlns="http://www.w3.org/2000/svg"><path d="M31.1906 28.1693C31.5515 28.1693 31.8976 28.2377 32.2169 28.3638V23.7514C32.2169 23.188 31.7528 22.7251 31.1906 22.7251C30.6245 22.7251 30.1643 23.1893 30.1643 23.7514V28.3638C30.4796 28.2377 30.8257 28.1693 31.1906 28.1693ZM49.801 33.3102V28.6898C49.801 28.443 49.6226 28.2417 49.3757 28.2149L47.3835 27.9975C47.2614 27.9868 47.0065 27.9211 46.9153 27.579C46.5088 25.6967 45.7709 23.9165 44.7285 22.2972C44.5957 22.0919 44.6225 21.833 44.7741 21.6586L46.0178 20.1104C46.1734 19.9159 46.1586 19.6462 45.9829 19.4718L42.7161 16.2051C42.5417 16.0307 42.2707 16.0146 42.0776 16.1702L40.5146 17.4286C40.4422 17.4863 40.1953 17.6231 39.8908 17.4635C38.2701 16.4211 36.4912 15.6832 34.609 15.2767C34.3688 15.223 34.1985 15.0137 34.1864 14.779L33.9771 12.8122C33.9503 12.5654 33.745 12.3869 33.4982 12.3869H28.8818C28.6349 12.3869 28.4297 12.5654 28.4028 12.8122L28.1895 14.779C28.1774 15.0151 28.0111 15.2244 27.7669 15.2767C25.8847 15.6832 24.1044 16.4211 22.4891 17.4635C22.1806 17.6231 21.9337 17.4863 21.8613 17.4286L20.3024 16.1702C20.1078 16.0146 19.8342 16.0293 19.6598 16.2051L16.393 19.4718C16.2186 19.6462 16.2025 19.9172 16.3581 20.1104L17.6058 21.6586C17.7574 21.833 17.7842 22.0919 17.6514 22.2972C16.609 23.9178 15.8711 25.6967 15.4646 27.579C15.3734 27.9211 15.1145 27.9855 14.9964 27.9975L13.0002 28.2149C12.7573 28.2417 12.5749 28.443 12.5749 28.6898V33.3102C12.5749 33.5571 12.7573 33.7583 13.0002 33.7851L14.9964 34.0025C15.1145 34.0145 15.3734 34.0789 15.4646 34.421C15.8711 36.3033 16.609 38.0835 17.6514 39.6988C17.7842 39.9041 17.7574 40.167 17.6058 40.3414L16.3581 41.8896C16.2025 42.0841 16.2173 42.3538 16.393 42.5282L19.6598 45.7949C19.8342 45.9693 20.1078 45.9854 20.3024 45.8298L21.8613 44.5714C21.9337 44.5137 22.1806 44.3769 22.4891 44.5379C24.1058 45.5803 25.8847 46.3182 27.7669 46.7247C28.0097 46.7783 28.1774 46.9876 28.1895 47.2224L28.4028 49.1878C28.4297 49.4346 28.6349 49.6131 28.8818 49.6131H33.4982C33.745 49.6131 33.9503 49.4346 33.9771 49.1878L34.1864 47.2224C34.1985 46.9863 34.3688 46.777 34.609 46.7247C36.4912 46.3182 38.2715 45.5803 39.8908 44.5379C40.1953 44.3782 40.4422 44.5151 40.5146 44.5714L42.0776 45.8298C42.2721 45.9854 42.5417 45.9707 42.7161 45.7949L45.9829 42.5282C46.1573 42.3538 46.1734 42.0828 46.0178 41.8896L44.7741 40.3414C44.6225 40.167 44.5957 39.9041 44.7285 39.6988C45.7709 38.0822 46.5088 36.3033 46.9153 34.421C47.0065 34.0789 47.2614 34.0145 47.3835 34.0025L49.3757 33.7851C49.6226 33.7583 49.801 33.5571 49.801 33.3102ZM50.8783 28.6898V33.3102C50.8783 34.1044 50.2813 34.7672 49.4898 34.8503L47.8772 35.0247C47.4586 36.7594 46.7664 38.4283 45.8353 39.9497L46.8549 41.2161C47.3526 41.8359 47.303 42.7254 46.7449 43.2889L43.4782 46.5516C42.9147 47.1151 42.0252 47.1607 41.4054 46.6616L40.143 45.642C38.6216 46.5731 36.9487 47.2693 35.214 47.6839L35.0423 49.3005C34.9551 50.088 34.2937 50.685 33.4982 50.685H28.8818C28.0835 50.685 27.4208 50.088 27.3376 49.3005L27.1632 47.6839C25.4285 47.2693 23.7596 46.5731 22.2383 45.642L20.9718 46.6616C20.356 47.1593 19.4625 47.1137 18.8991 46.5516L15.6364 43.2889C15.0729 42.7254 15.0273 41.8359 15.5264 41.2161L16.5459 39.9497C15.6149 38.4283 14.9226 36.7594 14.5041 35.0247L12.8915 34.8503C12.1 34.7672 11.503 34.1044 11.503 33.3102V28.6898C11.503 27.8956 12.1 27.2328 12.8915 27.1497L14.5041 26.9753C14.9226 25.2406 15.6149 23.5717 16.5459 22.0463L15.5264 20.7839C15.0286 20.1641 15.0742 19.2746 15.6364 18.7111L18.8991 15.4484C19.4625 14.8849 20.356 14.8393 20.9718 15.3344L22.2383 16.358C23.7596 15.4269 25.4285 14.7307 27.1632 14.3161L27.3376 12.6995C27.4208 11.912 28.0835 11.315 28.8818 11.315H33.4982C34.2924 11.315 34.9551 11.912 35.0423 12.6995L35.214 14.3161C36.9487 14.7307 38.6216 15.4269 40.143 16.358L41.4054 15.3344C42.0252 14.8393 42.9147 14.8863 43.4782 15.4484L46.7449 18.7111C47.3043 19.2746 47.354 20.1641 46.8549 20.7839L45.8353 22.0463C46.7664 23.5717 47.4586 25.2406 47.8772 26.9753L49.4898 27.1497C50.2813 27.2328 50.8783 27.8942 50.8783 28.6898ZM43.1736 30.9973C43.1736 37.618 37.8073 42.9843 31.1906 42.9843C24.5699 42.9843 19.2036 37.618 19.2036 30.9973C19.2036 24.3806 24.5699 19.0143 31.1906 19.0143C37.8073 19.0157 43.1736 24.3806 43.1736 30.9973ZM42.1004 30.9973C42.1004 24.9736 37.213 20.0863 31.1893 20.0863C25.1616 20.0863 20.2782 24.9736 20.2782 30.9973C20.2782 37.025 25.1616 41.9111 31.1893 41.9111C37.2143 41.9124 42.1004 37.025 42.1004 30.9973ZM53.2355 33.7623C53.0637 33.6751 52.947 33.4927 52.947 33.2874V29.272C52.947 28.9259 53.2784 28.667 53.6125 28.7515C57.6359 29.7631 60.1647 33.1707 60.6396 37.1981C61.7277 46.3665 55.103 53.615 47.4278 57.5364C40.2597 61.1949 31.4174 61.8563 23.3558 59.9862C15.5451 58.1683 8.4522 53.9705 4.28794 47.8127L2.45936 48.6726C1.64234 49.0563 0.759582 48.2621 1.0601 47.4062L3.93108 39.1957C4.12158 38.6403 4.71053 38.3666 5.2579 38.5638L13.4228 41.6106C14.2706 41.9258 14.3162 43.1091 13.4992 43.4928L11.613 44.3782C14.5376 47.8999 18.1693 50.4207 22.0974 52.0373C31.0994 55.7374 41.6751 54.9579 49.5086 48.949C52.7257 46.4805 55.1137 43.2526 55.5215 39.4949C55.7536 37.3792 55.2049 34.904 53.2355 33.7623ZM54.019 32.9869C56.1829 34.417 56.8564 37.1552 56.5854 39.6076C56.14 43.6913 53.5923 47.1674 50.1579 49.7996C42.0158 56.0433 31.0484 56.8724 21.6896 53.0247C17.4032 51.2605 13.4563 48.4647 10.3452 44.5137C10.1211 44.228 10.2392 43.8067 10.5732 43.6806L12.9425 42.5698L4.93055 39.5807L2.10519 47.6544L4.2544 46.6468C4.49454 46.5328 4.78298 46.616 4.92787 46.8414C8.89492 52.9684 15.8805 57.1474 23.596 58.9384C31.4268 60.7603 40.0021 60.1217 46.9421 56.5772C54.2054 52.8731 60.6101 46.0284 59.5758 37.3229C59.184 34.0025 57.2481 31.102 54.0203 29.9911V32.9869H54.019ZM9.14043 28.2377C9.31215 28.3249 9.42887 28.5073 9.42887 28.7126V32.728C9.42887 33.0741 9.10153 33.333 8.76345 33.2485C4.74005 32.2369 2.2152 28.8293 1.73625 24.8019C0.648232 15.6335 7.27295 8.38097 14.9481 4.46355C22.1202 0.805067 30.9585 0.143669 39.0201 2.01383C46.8308 3.83167 53.9277 8.02679 58.088 14.1873L59.9206 13.3274C60.7376 12.9437 61.6163 13.7379 61.3198 14.5898L58.4448 22.8043C58.2543 23.3597 57.6654 23.6334 57.118 23.4362L48.9572 20.3894C48.1093 20.0742 48.0597 18.8909 48.8807 18.5072L50.7629 17.6218C47.8423 14.1001 44.2066 11.5793 40.2825 9.96269C31.2778 6.26261 20.7008 7.04207 12.8673 13.051C9.65023 15.5195 7.26624 18.7474 6.85438 22.5051C6.62765 24.6208 7.17099 27.096 9.14043 28.2377ZM8.35695 29.0131C6.19298 27.583 5.52353 24.8448 5.79051 22.3924C6.23591 18.3087 8.7876 14.8326 12.218 12.2004C20.3601 5.95673 31.3315 5.12764 40.6863 8.97529C44.9727 10.7395 48.9196 13.5353 52.0348 17.4863C52.2588 17.772 52.1381 18.1933 51.8027 18.3194L49.4334 19.4302L57.4494 22.4193L60.2707 14.3456L58.1255 15.3532C57.8827 15.4672 57.5929 15.384 57.448 15.1586C53.481 9.03163 46.4994 4.85261 38.7799 3.0616C30.9491 1.23974 22.3738 1.87833 15.4338 5.42278C8.17449 9.12689 1.77113 15.973 2.80147 24.6771C3.19723 27.9975 5.12911 30.8994 8.35695 32.0089V29.0131ZM28.5544 29.963L23.9448 29.9549C23.3786 29.9509 22.9104 30.4151 22.9104 30.9785C22.9104 31.542 23.3706 32.0089 23.9367 32.0129L28.5491 32.025C28.423 31.7057 28.3586 31.3595 28.3586 30.9987C28.3612 30.6324 28.4297 30.2863 28.5544 29.963ZM29.2842 33.0929L23.9367 33.0808C22.7803 33.0768 21.8371 32.1336 21.8412 30.9772C21.8452 29.8208 22.7843 28.8816 23.9448 28.8816L29.0857 28.8937V23.7488C29.0857 22.5923 30.0329 21.6492 31.1893 21.6492C32.3457 21.6492 33.2889 22.5923 33.2889 23.7488V29.103C33.741 29.6048 34.0187 30.2702 34.0187 30.9973C34.0187 32.5603 32.7522 33.8307 31.1893 33.8307C30.4568 33.8307 29.7873 33.5503 29.2842 33.0929ZM31.1906 29.2452C30.2207 29.2452 29.4332 30.0287 29.4332 30.9987C29.4332 31.9726 30.2207 32.7561 31.1906 32.7561C32.1606 32.7561 32.9481 31.9726 32.9481 30.9987C32.9468 30.0287 32.1593 29.2452 31.1906 29.2452Z" fill="#0CB4C4" stroke="#0CB4C4" stroke-width="0.3"></path></svg>