<svg width="60" height="60" viewBox="0 0 60 60" fill="none" xmlns="http://www.w3.org/2000/svg"><path d="M24.0935 36.7741V36.8741H24.1935C25.7389 36.8741 26.9967 38.1319 26.9967 39.6773V43.5482C26.9967 45.0937 25.7389 46.3515 24.1935 46.3515H2.90322C1.35781 46.3515 0.1 45.0937 0.1 43.5482V39.6773C0.1 38.1319 1.35781 36.8741 2.90322 36.8741H3.00322V36.7741V34.8386V34.7386H2.90322C1.35781 34.7386 0.1 33.4808 0.1 31.9354V28.0644C0.1 26.519 1.35781 25.2612 2.90322 25.2612H3.00322V25.1612V23.2257V23.1257H2.90322C1.35781 23.1257 0.1 21.8679 0.1 20.3225V16.4516C0.1 14.9061 1.35781 13.6483 2.90322 13.6483H24.1935C25.7389 13.6483 26.9967 14.9061 26.9967 16.4516V20.3225C26.9967 21.8679 25.7389 23.1257 24.1935 23.1257H24.0935V23.2257V25.1612V25.2612H24.1935C25.7389 25.2612 26.9967 26.519 26.9967 28.0644V31.9354C26.9967 33.4808 25.7389 34.7386 24.1935 34.7386H24.0935V34.8386V36.7741ZM4.8387 23.1257H4.7387V23.2257V25.1612V25.2612H4.8387H22.258H22.358V25.1612V23.2257V23.1257H22.258H4.8387ZM4.8387 34.7386H4.7387V34.8386V36.7741V36.8741H4.8387H22.258H22.358V36.7741V34.8386V34.7386H22.258H4.8387ZM1.83548 16.4516V20.3225C1.83548 20.9119 2.3138 21.3903 2.90322 21.3903H24.1935C24.7829 21.3903 25.2612 20.9119 25.2612 20.3225V16.4516C25.2612 15.8621 24.7829 15.3838 24.1935 15.3838H2.90322C2.3138 15.3838 1.83548 15.8621 1.83548 16.4516ZM1.83548 28.0644V31.9354C1.83548 32.5248 2.3138 33.0031 2.90322 33.0031H24.1935C24.7829 33.0031 25.2612 32.5248 25.2612 31.9354V28.0644C25.2612 27.475 24.7829 26.9967 24.1935 26.9967H2.90322C2.3138 26.9967 1.83548 27.475 1.83548 28.0644ZM1.83548 39.6773V43.5482C1.83548 44.1377 2.3138 44.616 2.90322 44.616H24.1935C24.7829 44.616 25.2612 44.1377 25.2612 43.5482V39.6773C25.2612 39.0879 24.7829 38.6096 24.1935 38.6096H2.90322C2.3138 38.6096 1.83548 39.0879 1.83548 39.6773Z" fill="#0CB4C4" stroke="white" stroke-width="0.2"></path><path d="M35.9063 23.2257V23.1257H35.8063C34.2609 23.1257 33.0031 21.8679 33.0031 20.3225V16.4516C33.0031 14.9061 34.2609 13.6483 35.8063 13.6483H57.0966C58.642 13.6483 59.8998 14.9061 59.8998 16.4516V20.3225C59.8998 21.8679 58.642 23.1257 57.0966 23.1257H56.9966V23.2257V25.1612V25.2612H57.0966C58.642 25.2612 59.8998 26.519 59.8998 28.0644V31.9354C59.8998 33.4808 58.642 34.7386 57.0966 34.7386H56.9966V34.8386V36.7741V36.8741H57.0966C58.642 36.8741 59.8998 38.1319 59.8998 39.6773V43.5482C59.8998 45.0937 58.642 46.3515 57.0966 46.3515H35.8063C34.2609 46.3515 33.0031 45.0937 33.0031 43.5482V39.6773C33.0031 38.1319 34.2609 36.8741 35.8063 36.8741H35.9063V36.7741V34.8386V34.7386H35.8063C34.2609 34.7386 33.0031 33.4808 33.0031 31.9354V28.0644C33.0031 26.519 34.2609 25.2612 35.8063 25.2612H35.9063V25.1612V23.2257ZM55.1611 36.8741H55.2611V36.7741V34.8386V34.7386H55.1611H37.7418H37.6418V34.8386V36.7741V36.8741H37.7418H55.1611ZM55.1611 25.2612H55.2611V25.1612V23.2257V23.1257H55.1611H37.7418H37.6418V23.2257V25.1612V25.2612H37.7418H55.1611ZM34.7386 16.4516V20.3225C34.7386 20.9119 35.2169 21.3903 35.8063 21.3903H57.0966C57.686 21.3903 58.1643 20.9119 58.1643 20.3225V16.4516C58.1643 15.8621 57.686 15.3838 57.0966 15.3838H35.8063C35.2169 15.3838 34.7386 15.8621 34.7386 16.4516ZM58.1643 43.5482V39.6773C58.1643 39.0879 57.686 38.6096 57.0966 38.6096H35.8063C35.2169 38.6096 34.7386 39.0879 34.7386 39.6773V43.5482C34.7386 44.1377 35.2169 44.616 35.8063 44.616H57.0966C57.686 44.616 58.1643 44.1377 58.1643 43.5482ZM58.1643 31.9354V28.0644C58.1643 27.475 57.686 26.9967 57.0966 26.9967H35.8063C35.2169 26.9967 34.7386 27.475 34.7386 28.0644V31.9354C34.7386 32.5248 35.2169 33.0031 35.8063 33.0031H57.0966C57.686 33.0031 58.1643 32.5248 58.1643 31.9354Z" fill="#0CB4C4" stroke="white" stroke-width="0.2"></path><path d="M43.6012 2.62976L43.4483 2.53416V2.71457V3.87101C43.4483 4.35095 43.0605 4.73875 42.5805 4.73875H9.77739V3.00328H41.6128H41.7128V2.90328V0.967797C41.7128 0.652897 41.8837 0.362143 42.1597 0.208456C42.435 0.0565877 42.7715 0.0636883 43.0404 0.231924L43.0404 0.231954L50.7822 5.07058C51.0358 5.22948 51.1902 5.50722 51.1902 5.80649C51.1902 6.10577 51.0358 6.38351 50.7822 6.5424L43.0405 11.381C42.8998 11.4687 42.741 11.5129 42.5805 11.5129C42.4356 11.5129 42.2907 11.4765 42.1605 11.4045C41.8836 11.2508 41.7128 10.96 41.7128 10.6452V8.70971V8.60971H41.6128H11.7129V6.87423H42.5805C43.0605 6.87423 43.4483 7.26204 43.4483 7.74197V8.89842V9.07882L43.6012 8.98322L48.5493 5.8913L48.685 5.80649L48.5493 5.72169L43.6012 2.62976Z" fill="#0CB4C4" stroke="white" stroke-width="0.2"></path><path d="M16.3986 57.3701L16.5516 57.4657V57.2853V56.1288C16.5516 55.6489 16.9394 55.2611 17.4193 55.2611H50.2224V56.9966H18.387H18.287V57.0965V59.032C18.287 59.3469 18.1162 59.6377 17.8392 59.7914C17.709 59.8633 17.5642 59.8998 17.4193 59.8998C17.2588 59.8998 17.1 59.8556 16.9593 59.7678L9.21759 54.9292C9.21756 54.9292 9.21753 54.9292 9.2175 54.9292C8.96402 54.7703 8.80965 54.4926 8.80965 54.1933C8.80965 53.8941 8.96406 53.6163 9.21666 53.4574C9.21669 53.4574 9.21672 53.4574 9.21676 53.4573L16.9584 48.6188L16.9586 48.6187C17.2264 48.4505 17.5649 48.4434 17.8392 48.5953C18.1162 48.749 18.287 49.0397 18.287 49.3546V51.2901V51.3901H18.387H48.287V53.1256H17.4193C16.9394 53.1256 16.5516 52.7378 16.5516 52.2579V51.1014V50.921L16.3986 51.0166L11.4505 54.1085L11.3148 54.1933L11.4505 54.2781L16.3986 57.3701Z" fill="#0CB4C4" stroke="white" stroke-width="0.2"></path><path d="M50.4224 51.3902H52.1579V53.1256H50.4224V51.3902Z" fill="#0CB4C4" stroke="white" stroke-width="0.2"></path><path d="M54.2934 51.3902H56.0289V53.1256H54.2934V51.3902Z" fill="#0CB4C4" stroke="white" stroke-width="0.2"></path><path d="M7.84191 6.87417H9.57739V8.60965H7.84191V6.87417Z" fill="#0CB4C4" stroke="white" stroke-width="0.2"></path><path d="M3.97096 6.87417H5.70643V8.60965H3.97096V6.87417Z" fill="#0CB4C4" stroke="white" stroke-width="0.2"></path></svg>