<svg xmlns="http://www.w3.org/2000/svg" width="57" height="60" viewBox="0 0 57 60" fill="none"><path d="M54.7602 3.29627H52.3599V1.55686C52.3597 1.3522 52.3192 1.14959 52.2407 0.960586C52.1622 0.771586 52.0472 0.599901 51.9024 0.455333C51.7575 0.310766 51.5856 0.196147 51.3964 0.118021C51.2073 0.0398948 51.0046 -0.00020866 50.7999 8.16412e-07H37.3087C37.1111 -0.000164633 36.9193 0.0664088 36.7643 0.188929L32.0666 3.88059C31.9618 3.96308 31.877 4.06829 31.8188 4.18828C31.7605 4.30828 31.7302 4.43993 31.7302 4.57332V23.6677C31.7306 24.0807 31.8949 24.4765 32.1869 24.7684C32.479 25.0603 32.8749 25.2244 33.2878 25.2246H35.6865V26.964C35.6866 27.1689 35.7271 27.3717 35.8057 27.5609C35.8842 27.7501 35.9993 27.9219 36.1444 28.0666C36.2894 28.2113 36.4616 28.3259 36.651 28.404C36.8403 28.4821 37.0433 28.5221 37.2481 28.5217H54.7602C55.1731 28.5212 55.569 28.357 55.8609 28.0649C56.1528 27.7729 56.3168 27.3769 56.3171 26.964V4.85392C56.3168 4.44101 56.1528 4.04506 55.8609 3.75301C55.569 3.46096 55.1731 3.29669 54.7602 3.29627ZM36.4255 2.69202V3.70362H35.142L36.4255 2.69202ZM33.4919 23.4645V5.46534H37.3087C37.4242 5.46535 37.5386 5.44253 37.6452 5.39822C37.7519 5.3539 37.8487 5.28895 37.9302 5.2071C38.0117 5.12526 38.0762 5.02812 38.12 4.92127C38.1638 4.81442 38.1861 4.69997 38.1856 4.58448V1.76093H50.599V3.29627H41.2642C41.0668 3.29587 40.8749 3.36216 40.7198 3.4844L36.0237 7.17685C35.9187 7.25902 35.8339 7.36405 35.7756 7.48395C35.7173 7.60385 35.6871 7.73547 35.6873 7.86879V23.4645H33.4919ZM40.3834 5.99067V7.00148H39.0976L40.3834 5.99067ZM54.5561 26.7607H37.4482V8.76161H41.2642C41.4968 8.76161 41.7198 8.66922 41.8843 8.50478C42.0487 8.34033 42.1411 8.11729 42.1411 7.88473V5.05799H54.5529L54.5561 26.7607ZM52.9522 23.4645C52.9522 23.697 52.8598 23.9201 52.6954 24.0845C52.531 24.249 52.3079 24.3413 52.0754 24.3413H39.933C39.6995 24.3413 39.4755 24.2486 39.3104 24.0835C39.1453 23.9183 39.0525 23.6944 39.0525 23.4609C39.0525 23.2274 39.1453 23.0034 39.3104 22.8383C39.4755 22.6732 39.6995 22.5804 39.933 22.5804H52.0754C52.1911 22.5804 52.3057 22.6033 52.4126 22.6478C52.5194 22.6924 52.6164 22.7576 52.698 22.8398C52.7795 22.922 52.8439 23.0195 52.8876 23.1267C52.9312 23.2339 52.9532 23.3487 52.9522 23.4645ZM52.9522 20.3476C52.9522 20.4631 52.9294 20.5774 52.8851 20.6841C52.8408 20.7907 52.7758 20.8875 52.694 20.969C52.6121 21.0505 52.515 21.115 52.4082 21.1588C52.3013 21.2027 52.1869 21.225 52.0714 21.2244H39.933C39.6995 21.2244 39.4755 21.1317 39.3104 20.9666C39.1453 20.8014 39.0525 20.5775 39.0525 20.344C39.0525 20.1105 39.1453 19.8865 39.3104 19.7214C39.4755 19.5563 39.6995 19.4635 39.933 19.4635H52.0754C52.1911 19.4635 52.3057 19.4864 52.4126 19.5309C52.5194 19.5755 52.6164 19.6407 52.698 19.7229C52.7795 19.8051 52.8439 19.9026 52.8876 20.0098C52.9312 20.117 52.9532 20.2318 52.9522 20.3476ZM52.9522 17.2307C52.9528 17.3461 52.9305 17.4606 52.8866 17.5674C52.8428 17.6743 52.7783 17.7714 52.6968 17.8533C52.6153 17.9351 52.5185 18.0001 52.4118 18.0444C52.3052 18.0887 52.1908 18.1115 52.0754 18.1115H39.933C39.6995 18.1115 39.4755 18.0188 39.3104 17.8536C39.1453 17.6885 39.0525 17.4646 39.0525 17.2311C39.0525 16.9975 39.1453 16.7736 39.3104 16.6085C39.4755 16.4434 39.6995 16.3506 39.933 16.3506H52.0754C52.1908 16.3506 52.3051 16.3734 52.4117 16.4176C52.5183 16.4619 52.6151 16.5268 52.6965 16.6086C52.778 16.6903 52.8425 16.7874 52.8864 16.8941C52.9303 17.0009 52.9527 17.1152 52.9522 17.2307ZM52.9522 14.1138C52.9528 14.2292 52.9305 14.3437 52.8866 14.4505C52.8428 14.5574 52.7783 14.6545 52.6968 14.7364C52.6153 14.8182 52.5185 14.8832 52.4118 14.9275C52.3052 14.9718 52.1908 14.9946 52.0754 14.9946H39.933C39.6995 14.9946 39.4755 14.9019 39.3104 14.7367C39.1453 14.5716 39.0525 14.3477 39.0525 14.1142C39.0525 13.8806 39.1453 13.6567 39.3104 13.4916C39.4755 13.3265 39.6995 13.2337 39.933 13.2337H52.0754C52.1908 13.2337 52.3051 13.2565 52.4117 13.3007C52.5183 13.345 52.6151 13.4099 52.6965 13.4916C52.778 13.5734 52.8425 13.6705 52.8864 13.7772C52.9303 13.884 52.9527 13.9983 52.9522 14.1138ZM39.933 10.1168H52.0754C52.3089 10.1168 52.5328 10.2095 52.6979 10.3747C52.8631 10.5398 52.9558 10.7637 52.9558 10.9972C52.9558 11.2308 52.8631 11.4547 52.6979 11.6198C52.5328 11.785 52.3089 11.8777 52.0754 11.8777H39.933C39.6995 11.8777 39.4755 11.785 39.3104 11.6198C39.1453 11.4547 39.0525 11.2308 39.0525 10.9972C39.0525 10.7637 39.1453 10.5398 39.3104 10.3747C39.4755 10.2095 39.6995 10.1168 39.933 10.1168ZM18.793 28.029C18.0839 28.2409 17.3985 28.5251 16.7475 28.8772L14.7243 27.8409L11.2822 31.2846L12.3129 33.3078C11.9607 33.9587 11.6765 34.6442 11.4647 35.3533L9.30761 36.0596V40.9223L11.4647 41.6238C11.6762 42.3331 11.9604 43.0186 12.3129 43.6693L11.2822 45.6925L14.7243 49.1347L16.7475 48.1047C17.3985 48.4566 18.0839 48.7406 18.793 48.9521L19.4953 51.1108H24.3628L25.0643 48.9521C25.7741 48.7403 26.4603 48.4564 27.1122 48.1047L29.1338 49.1347L32.5752 45.6925L31.5452 43.6709C31.8973 43.0194 32.1815 42.3334 32.3934 41.6238L34.5521 40.9223V36.0596L32.3934 35.3573C32.1808 34.648 31.8966 33.9621 31.5452 33.3102L32.5752 31.2886L29.1338 27.8489L27.1122 28.8852C26.4603 28.5331 25.7741 28.2486 25.0643 28.0362L24.3628 25.8783H19.4953L18.793 28.029ZM20.1721 29.4878L20.7748 27.6312H23.0866L23.6916 29.4886L24.1627 29.6066C25.0325 29.8246 25.8653 30.17 26.6339 30.6318L27.05 30.8813L28.7918 29.9964L30.4244 31.6298L29.5396 33.3716L29.7899 33.7877C30.2513 34.5566 30.5967 35.3892 30.815 36.2589L30.933 36.7308L32.7904 37.3359V39.6477L30.933 40.2511L30.815 40.7238C30.5972 41.5949 30.2517 42.429 29.7899 43.199L29.5396 43.6151L30.4244 45.3569L28.7926 46.9887L27.0516 46.1039L26.6347 46.3542C25.8659 46.8155 25.0332 47.161 24.1635 47.3793L23.6924 47.4965L23.0874 49.3539H20.7756L20.1729 47.4973L19.6994 47.3793C18.8297 47.1612 17.997 46.8157 17.2282 46.3542L16.8121 46.1039L15.0687 46.9887L13.4361 45.3561L14.3242 43.6167L14.0722 43.1974C13.6099 42.4291 13.2644 41.5962 13.0471 40.7262L12.9291 40.2527L11.0685 39.6469V37.3351L12.9251 36.7308L13.0431 36.2581C13.2609 35.3883 13.6063 34.5555 14.0683 33.7869L14.3202 33.3676L13.4321 31.6282L15.0647 29.9948L16.8081 30.8805L17.225 30.6302C17.9935 30.168 18.8263 29.8226 19.6962 29.605L20.1721 29.4878ZM21.9259 44.8085C23.175 44.8083 24.396 44.4378 25.4345 43.7437C26.473 43.0497 27.2825 42.0632 27.7604 40.9092C28.2383 39.7551 28.3633 38.4853 28.1196 37.2602C27.8759 36.0351 27.2744 34.9098 26.3911 34.0265C25.5079 33.1433 24.3826 32.5418 23.1575 32.298C21.9324 32.0543 20.6625 32.1793 19.5085 32.6573C18.3544 33.1352 17.368 33.9446 16.6739 34.9831C15.9799 36.0217 15.6093 37.2427 15.6092 38.4918C15.6109 40.1671 16.2774 41.7733 17.4623 42.9576C18.6472 44.142 20.2537 44.8076 21.9291 44.8085H21.9259ZM21.9259 33.9376C22.8268 33.9377 23.7074 34.205 24.4564 34.7057C25.2053 35.2063 25.789 35.9178 26.1337 36.7502C26.4783 37.5826 26.5683 38.4984 26.3924 39.382C26.2165 40.2655 25.7825 41.0771 25.1454 41.714C24.5083 42.3509 23.6966 42.7846 22.8129 42.9602C21.9293 43.1358 21.0135 43.0454 20.1812 42.7005C19.349 42.3556 18.6377 41.7717 18.1373 41.0225C17.6369 40.2734 17.37 39.3927 17.3701 38.4918C17.3716 37.2835 17.8525 36.1253 18.7073 35.2714C19.5621 34.4175 20.7209 33.9378 21.9291 33.9376H21.9259ZM45.1727 40.5333C45.3135 40.7147 45.3778 40.9439 45.3521 41.172C45.3264 41.4001 45.2126 41.6092 45.035 41.7547C44.8574 41.9002 44.63 41.9706 44.4013 41.9509C44.1725 41.9312 43.9605 41.823 43.8104 41.6493L42.9168 40.5604C42.5161 44.707 40.9198 48.6481 38.3218 51.9047C35.7239 55.1613 32.2361 57.5934 28.2821 58.9054C24.3282 60.2175 20.0783 60.353 16.0488 59.2956C12.0193 58.2382 8.38364 56.0333 5.58346 52.9488C2.78327 49.8643 0.939116 46.033 0.275038 41.9203C-0.38904 37.8077 0.15554 33.5906 1.84262 29.7816C3.5297 25.9725 6.28666 22.7354 9.77857 20.4635C13.2705 18.1916 17.347 16.9826 21.513 16.9835C21.7465 16.9835 21.9704 17.0763 22.1355 17.2414C22.3007 17.4065 22.3934 17.6305 22.3934 17.864C22.3934 18.0975 22.3007 18.3215 22.1355 18.4866C21.9704 18.6517 21.7465 18.7445 21.513 18.7445C17.6772 18.7432 13.9241 19.859 10.7121 21.9556C7.50004 24.0522 4.96805 27.0388 3.42537 30.5506C1.88269 34.0625 1.39608 37.9476 2.02499 41.7314C2.6539 45.5152 4.37109 49.034 6.96684 51.858C9.5626 54.682 12.9246 56.689 16.6421 57.6338C20.3597 58.5786 24.2719 58.4203 27.901 57.1784C31.5301 55.9364 34.719 53.6645 37.0782 50.6401C39.4374 47.6157 40.8649 43.9697 41.1861 40.1475L39.8309 41.2587C39.649 41.3931 39.4224 41.4525 39.1979 41.4245C38.9735 41.3965 38.7684 41.2833 38.625 41.1083C38.4817 40.9333 38.4111 40.7099 38.4278 40.4844C38.4446 40.2588 38.5473 40.0483 38.7149 39.8964L41.5847 37.5431C41.7656 37.3953 41.9976 37.3252 42.2301 37.348C42.4625 37.3709 42.6765 37.4849 42.8251 37.6651L45.1727 40.5333Z" fill="#0CB4C4"></path></svg>