<svg xmlns="http://www.w3.org/2000/svg" width="54" height="62" viewBox="0 0 54 62" fill="none"><path fill-rule="evenodd" clip-rule="evenodd" d="M18.1064 4.5054C20.3838 4.5054 22.4538 5.43786 23.9537 6.93786C25.4537 8.43787 26.3862 10.5078 26.3862 12.7852V16.6826C26.3862 18.9601 25.4537 21.0301 23.9537 22.53C22.4537 24.0299 20.3838 24.9625 18.1064 24.9625C15.8289 24.9625 13.7589 24.03 12.259 22.53C10.7591 21.03 9.82654 18.9601 9.82654 16.6826V12.7852C9.82654 10.5078 10.759 8.4378 12.259 6.93786C13.759 5.43537 15.8289 4.5054 18.1064 4.5054ZM36.1438 16.5327C35.8063 16.5327 35.5313 16.2577 35.5313 15.9202C35.5313 15.5827 35.8063 15.3077 36.1438 15.3077H47.6962C48.0337 15.3077 48.3087 15.5827 48.3087 15.9202C48.3087 16.2577 48.0337 16.5327 47.6962 16.5327H36.1438ZM36.1438 12.9678C35.8063 12.9678 35.5313 12.6928 35.5313 12.3553C35.5313 12.0178 35.8063 11.7428 36.1438 11.7428H44.8713C45.2088 11.7428 45.4838 12.0178 45.4838 12.3553C45.4838 12.6928 45.2088 12.9678 44.8713 12.9678H36.1438ZM36.1438 9.28034C35.8063 9.28034 35.5313 9.00535 35.5313 8.66786C35.5313 8.33037 35.8063 8.05537 36.1438 8.05537H48.0661C48.4036 8.05537 48.6786 8.33037 48.6786 8.66786C48.6786 9.00535 48.4036 9.28034 48.0661 9.28034H36.1438ZM42.2837 22.0551C45.0211 22.0551 47.501 20.9451 49.296 19.1502C51.091 17.3552 52.201 14.8777 52.201 12.1404C52.201 9.40303 51.091 6.92302 49.296 5.12804C47.501 3.33307 45.0236 2.22308 42.2837 2.22308C39.5463 2.22308 37.0663 3.33307 35.2713 5.12804C33.4764 6.92302 32.3664 9.40047 32.3664 12.1404C32.3664 13.6228 32.6914 15.0278 33.2714 16.2878C33.8764 17.6003 34.7588 18.7553 35.8438 19.6828C36.0513 19.8603 36.1113 20.1503 36.0063 20.3903L34.7038 23.8902L40.6737 21.9902C40.7612 21.9627 40.8512 21.9552 40.9387 21.9677H40.9437C41.1562 21.9952 41.3787 22.0202 41.6112 22.0352C41.8237 22.0477 42.0487 22.0551 42.2837 22.0551ZM50.1613 20.0177C52.1762 18.0027 53.4237 15.2178 53.4237 12.1401C53.4237 9.06512 52.1763 6.28021 50.1613 4.26246C48.1463 2.24753 45.3614 1 42.2837 1C39.2087 1 36.4238 2.24746 34.4061 4.26246C32.3911 6.2774 31.1436 9.06486 31.1436 12.1401C31.1436 13.8026 31.5086 15.38 32.1636 16.7999C32.7811 18.1399 33.6586 19.3374 34.7311 20.3274L33.1261 24.6398C33.0086 24.9548 33.1686 25.3073 33.4836 25.4248C33.6236 25.4773 33.7686 25.4748 33.8986 25.4273L40.9109 23.1948C41.1184 23.2198 41.3234 23.2398 41.5234 23.2523C41.7834 23.2698 42.0359 23.2773 42.2784 23.2773C45.3608 23.2798 48.1458 22.0324 50.1605 20.0174L50.1613 20.0177ZM31.9018 42.5772C32.8393 42.1047 33.5818 41.4647 34.0943 40.5847C34.7268 39.4948 35.0267 38.0173 34.9293 36.0074C34.8593 35.4399 34.9418 34.9749 35.1368 34.6249C35.3168 34.3024 35.5843 34.0824 35.9168 33.9774C36.2193 33.8799 36.5593 33.8824 36.9168 33.9899C37.4742 34.1574 38.1092 34.5949 38.7142 35.3299C40.1592 37.0824 39.9717 38.8673 39.5892 40.8697C39.7392 40.8622 39.8967 40.8547 40.0592 40.8447C41.7317 40.7572 43.8166 40.6473 45.1241 41.2597C46.3366 41.8272 46.9041 42.8722 46.0816 44.7622C46.1791 45.3422 46.1891 45.8647 46.1116 46.3297C46.0366 46.7796 45.8791 47.1746 45.6391 47.5122C45.6866 48.0747 45.6541 48.5946 45.5016 49.1096C45.3466 49.6346 45.0691 50.1371 44.6316 50.6396C44.6466 51.2671 44.5166 51.9446 44.1966 52.4845C43.8591 53.0495 43.3341 53.4645 42.5716 53.5495C42.5491 53.552 42.5267 53.552 42.5042 53.552V53.5545H33.6115C33.574 53.5545 33.534 53.552 33.499 53.5445C32.8466 53.467 32.3766 53.262 31.9841 52.9695C31.9416 52.937 31.8991 52.9046 31.8566 52.8696C31.7866 52.9945 31.6991 53.107 31.5991 53.2095C31.3141 53.4945 30.9191 53.672 30.4841 53.672H27.5666C27.1316 53.672 26.7366 53.4945 26.4517 53.2095C26.1667 52.9245 25.9892 52.5296 25.9892 52.0946L25.9842 43.2647C25.9842 42.8297 26.1617 42.4347 26.4467 42.1497C26.7316 41.8647 27.1266 41.6872 27.5616 41.6872H30.4791C30.9141 41.6872 31.3091 41.8647 31.5941 42.1497C31.7191 42.2747 31.8243 42.4172 31.9018 42.5772ZM32.0593 51.2996C32.2818 51.5821 32.4868 51.8271 32.7118 51.9946C32.9393 52.1646 33.2193 52.2845 33.6293 52.332H42.4713C42.7813 52.287 43.0013 52.1071 43.1463 51.8646C43.3713 51.4871 43.4413 50.9696 43.4013 50.4996C43.3788 50.3221 43.4313 50.1371 43.5638 49.9971C43.9663 49.5721 44.2063 49.1721 44.3288 48.7646C44.4513 48.3521 44.4588 47.9072 44.3963 47.4021H44.3988C44.3788 47.2346 44.4263 47.0572 44.5488 46.9222C44.7313 46.7172 44.8488 46.4522 44.9038 46.1272C44.9663 45.7622 44.9438 45.3197 44.8438 44.8047H44.8463C44.8213 44.6822 44.8363 44.5522 44.8913 44.4297C45.4463 43.2472 45.2088 42.6472 44.6063 42.3647C43.5788 41.8822 41.6588 41.9822 40.1214 42.0647C39.6864 42.0872 39.2789 42.1097 38.8964 42.1147C38.8389 42.1197 38.7814 42.1172 38.7239 42.1072C38.3914 42.0422 38.1764 41.7222 38.2414 41.3897L38.2664 41.2672C38.6564 39.3048 38.9989 37.5923 37.7714 36.1048C37.3339 35.5724 36.9114 35.2649 36.5689 35.1623C36.4489 35.1273 36.3564 35.1198 36.2914 35.1398C36.2564 35.1498 36.2289 35.1773 36.2039 35.2173C36.1314 35.3448 36.1089 35.5598 36.1464 35.8623H36.1439C36.1464 35.8773 36.1464 35.8898 36.1489 35.9048C36.2664 38.1873 35.9089 39.8972 35.154 41.1972C34.4415 42.4247 33.389 43.2647 32.0615 43.8521L32.0593 51.2996ZM30.4793 42.91H27.5619C27.4644 42.91 27.3769 42.95 27.3119 43.015C27.2469 43.08 27.2069 43.1675 27.2069 43.265V52.0949C27.2069 52.1924 27.2469 52.2799 27.3119 52.3449C27.3769 52.4099 27.4644 52.4499 27.5619 52.4499H30.4793C30.5768 52.4499 30.6643 52.4099 30.7293 52.3449C30.7943 52.2799 30.8343 52.1924 30.8343 52.0949V43.265C30.8343 43.1675 30.7943 43.08 30.7293 43.015C30.6643 42.95 30.5768 42.91 30.4793 42.91ZM35.9867 59.7749C40.0517 59.7749 43.7318 58.1275 46.3942 55.465C49.0567 52.8025 50.7041 49.1226 50.7041 45.0575C50.7041 40.9926 49.0567 37.3124 46.3942 34.6501C43.7317 31.9877 40.0518 30.3401 35.9867 30.3401C31.9218 30.3401 28.2416 31.9876 25.5792 34.6501C22.9168 37.3125 21.2693 40.9925 21.2693 45.0575C21.2693 49.1225 22.9168 52.8027 25.5792 55.465C28.2417 58.1275 31.9216 59.7749 35.9867 59.7749ZM47.2588 56.33C50.1437 53.4451 51.9287 49.4604 51.9287 45.0579C51.9287 40.6555 50.1437 36.6709 47.2588 33.7858C44.3739 30.9009 40.3892 29.1159 35.9867 29.1159C33.8017 29.1159 31.7218 29.5559 29.8268 30.3509C28.2793 29.1034 26.5094 28.1134 24.6219 27.426C22.6195 26.696 20.4871 26.3085 18.3496 26.306V26.3035H18.3396C14.0197 26.3035 9.69462 27.8935 6.44989 30.6734C3.18742 33.4683 1.01 37.4656 1.0075 42.2604L1 42.2579V47.8428C1 48.4827 1.25999 49.0627 1.67999 49.4827C2.09998 49.9028 2.67997 50.1627 3.31995 50.1627L20.8799 50.1652C21.6724 52.5127 22.9999 54.6176 24.7148 56.3301C27.5973 59.215 31.5845 61 35.9869 61C40.3868 61 44.3737 59.215 47.2588 56.33ZM20.5195 48.9401C20.2095 47.6976 20.042 46.3951 20.042 45.0577C20.042 40.6553 21.827 36.6706 24.7119 33.7856C25.8469 32.6506 27.1519 31.6857 28.5844 30.9332C27.2569 29.9407 25.7719 29.1457 24.2019 28.5732C22.3295 27.8907 20.3345 27.5257 18.3446 27.5257V27.5282H18.3346C14.2997 27.5282 10.2624 29.0107 7.2372 31.6032C4.22978 34.1806 2.22233 37.858 2.21983 42.2602H2.22233V47.8451C2.22233 48.1476 2.34483 48.4201 2.54483 48.6176C2.74232 48.8151 3.01732 48.9401 3.31729 48.9401H8.15969L8.16219 41.1579C8.16219 40.8204 8.43719 40.5454 8.77468 40.5454C9.11217 40.5454 9.38716 40.8204 9.38716 41.1579V48.9401L20.5195 48.9401ZM18.1071 5.72816C16.1671 5.72816 14.4046 6.52315 13.1246 7.80063C11.8472 9.07811 11.0522 10.8431 11.0522 12.7831V16.6805C11.0522 18.6204 11.8472 20.3829 13.1246 21.6629C14.4046 22.9404 16.1671 23.7353 18.1071 23.7353C20.0471 23.7353 21.8095 22.9404 23.0895 21.6629C24.367 20.3829 25.162 18.6204 25.162 16.6805V12.7831C25.162 10.8431 24.367 9.08061 23.0895 7.80063C21.8095 6.52315 20.0471 5.72816 18.1071 5.72816Z" fill="#0CB4C4" stroke="#0CB4C4" stroke-width="0.4"></path></svg>