<svg xmlns="http://www.w3.org/2000/svg" width="60" height="60" viewBox="0 0 60 60" fill="none"><path d="M27.3907 53.7772C27.5752 53.6541 27.792 53.5885 28.0138 53.5886L28.0139 53.4887L28.0137 53.5886C28.3109 53.5891 28.5957 53.7074 28.8057 53.9176C29.0157 54.1278 29.1338 54.4127 29.1341 54.7098C29.134 54.9316 29.0683 55.1483 28.9451 55.3327C28.8218 55.5171 28.6467 55.6607 28.4418 55.7456C28.2369 55.8304 28.0114 55.8525 27.794 55.8092C27.5765 55.7659 27.3767 55.659 27.22 55.5022C27.0632 55.3453 26.9565 55.1455 26.9133 54.9279C26.8702 54.7104 26.8925 54.485 26.9775 54.2801C27.0625 54.0753 27.2063 53.9003 27.3907 53.7772Z" fill="#0CB4C4" stroke="white" stroke-width="0.2"></path><path d="M23.4325 53.7772C23.6169 53.6541 23.8338 53.5885 24.0555 53.5886L24.0556 53.4887L24.0554 53.5886C24.3526 53.5891 24.6374 53.7074 24.8474 53.9176C25.0575 54.1278 25.1756 54.4127 25.1758 54.7098C25.1758 54.9316 25.11 55.1483 24.9868 55.3327C24.8636 55.5171 24.6884 55.6607 24.4835 55.7456C24.2786 55.8304 24.0532 55.8525 23.8357 55.8092C23.6182 55.7659 23.4184 55.659 23.2617 55.5022C23.1049 55.3453 22.9982 55.1455 22.9551 54.9279C22.9119 54.7104 22.9342 54.485 23.0192 54.2801C23.1042 54.0753 23.248 53.9003 23.4325 53.7772Z" fill="#0CB4C4" stroke="white" stroke-width="0.2"></path><path d="M33.5531 22.3226H33.552C31.93 22.3226 30.593 20.9325 30.593 19.2141V3.20853C30.593 1.49038 31.9298 0.1 33.5635 0.1H56.2192C57.853 0.1 59.1897 1.49038 59.1897 3.20853V19.2141C59.1897 20.9323 57.853 22.3226 56.2192 22.3226H43.849H43.8055L43.7758 22.3545L39.49 26.9593C39.3568 27.1025 39.1834 27.2021 38.9927 27.2451C38.802 27.2882 38.6027 27.2727 38.4209 27.2006C38.2391 27.1285 38.0833 27.0033 37.9739 26.8413C37.8644 26.6792 37.8064 26.4879 37.8075 26.2924L37.8277 22.4679L37.8282 22.3684L37.7287 22.3674L33.5531 22.3226ZM39.7648 23.5576L39.7634 23.8138L39.938 23.6263L42.6715 20.6894C42.7624 20.5917 42.8724 20.5138 42.9948 20.4605C43.1171 20.4073 43.2491 20.3798 43.3826 20.3798H56.2192C56.7986 20.3798 57.2469 19.8435 57.2469 19.2141V3.20853C57.2469 2.57914 56.7986 2.04286 56.2192 2.04286H33.5635C32.9842 2.04286 32.5359 2.57914 32.5359 3.20853V19.2141C32.5359 19.8433 32.9839 20.3794 33.563 20.3798C33.5632 20.3798 33.5633 20.3798 33.5635 20.3798L38.8152 20.4361C39.0719 20.4388 39.317 20.5431 39.4971 20.7261C39.6772 20.9091 39.7775 21.1559 39.7762 21.4126L39.7648 23.5576Z" fill="#0CB4C4" stroke="white" stroke-width="0.2"></path><path d="M37.6185 5.43984H52.3248C52.5824 5.43984 52.8295 5.54219 53.0117 5.72437C53.1939 5.90655 53.2962 6.15363 53.2962 6.41127C53.2962 6.66891 53.1939 6.916 53.0117 7.09818C52.8295 7.28035 52.5824 7.3827 52.3248 7.3827H37.6185C37.3608 7.3827 37.1138 7.28035 36.9316 7.09818C36.7494 6.916 36.6471 6.66891 36.6471 6.41127C36.6471 6.15363 36.7494 5.90655 36.9316 5.72437C37.1138 5.54219 37.3608 5.43984 37.6185 5.43984Z" fill="#0CB4C4" stroke="white" stroke-width="0.2"></path><path d="M37.6185 10.0008H52.3248C52.5824 10.0008 52.8295 10.1031 53.0117 10.2853C53.1939 10.4675 53.2962 10.7145 53.2962 10.9722C53.2962 11.2298 53.1939 11.4769 53.0117 11.6591C52.8295 11.8413 52.5824 11.9436 52.3248 11.9436H37.6185C37.3608 11.9436 37.1138 11.8413 36.9316 11.6591C36.7494 11.4769 36.6471 11.2298 36.6471 10.9722C36.6471 10.7145 36.7494 10.4675 36.9316 10.2853C37.1138 10.1031 37.3608 10.0008 37.6185 10.0008Z" fill="#0CB4C4" stroke="white" stroke-width="0.2"></path><path d="M37.6185 14.6948H44.9716C45.2293 14.6948 45.4763 14.7972 45.6585 14.9794C45.8407 15.1616 45.943 15.4086 45.943 15.6663C45.943 15.9239 45.8407 16.171 45.6585 16.3532C45.4763 16.5354 45.2293 16.6377 44.9716 16.6377H37.6185C37.3608 16.6377 37.1138 16.5354 36.9316 16.3532C36.7494 16.171 36.6471 15.9239 36.6471 15.6663C36.6471 15.4086 36.7494 15.1616 36.9316 14.9794C37.1138 14.7972 37.3608 14.6948 37.6185 14.6948Z" fill="#0CB4C4" stroke="white" stroke-width="0.2"></path><path d="M32.9602 37.4485H32.9602C33.8729 37.4489 34.7766 37.2693 35.6199 36.9202C36.4631 36.5711 37.2293 36.0593 37.8746 35.4139C38.5199 34.7686 39.0318 34.0024 39.3809 33.1592C39.73 32.3159 39.9095 31.4122 39.9092 30.4995V30.4995C39.9092 30.2419 39.8068 29.9948 39.6247 29.8126C39.4425 29.6304 39.1954 29.5281 38.9377 29.5281C38.6801 29.5281 38.433 29.6304 38.2508 29.8126C38.0687 29.9948 37.9663 30.2418 37.9663 30.4994C37.9663 30.4995 37.9663 30.4995 37.9663 30.4995L32.9602 37.4485ZM32.9602 37.4485H19.8865C18.0441 37.4465 16.2778 36.7137 14.975 35.4109C13.6723 34.1081 12.9394 32.3418 12.9374 30.4994L12.9374 27.7031C12.9395 25.8607 13.6723 24.0944 14.975 22.7917C16.2778 21.4889 18.0441 20.7561 19.8865 20.7541L27.2956 20.7541C27.5532 20.7541 27.8003 20.8564 27.9825 21.0386C28.1647 21.2208 28.267 21.4678 28.267 21.7255C28.267 21.9831 28.1647 22.2302 27.9825 22.4124C27.8003 22.5946 27.5532 22.6969 27.2956 22.6969L19.8864 22.6969L19.8863 22.6969C18.5591 22.6984 17.2866 23.2263 16.3481 24.1648C15.4097 25.1033 14.8817 26.3757 14.8802 27.7029V27.703L14.8802 30.4995L14.8802 30.4996C14.8817 31.8268 15.4096 33.0993 16.3481 34.0378C17.2866 34.9763 18.5591 35.5042 19.8863 35.5057H19.8864M32.9602 37.4485L19.8864 35.5057M19.8864 35.5057H32.9602H19.8864Z" fill="#0CB4C4" stroke="white" stroke-width="0.2"></path><path d="M20.809 31.7981C19.2462 31.7981 17.9698 30.4892 17.9698 28.8747C17.9698 27.26 19.2462 25.9512 20.809 25.9512C22.3718 25.9512 23.6482 27.26 23.6482 28.8747C23.6482 30.4892 22.3718 31.7981 20.809 31.7981ZM20.809 29.8552C21.3126 29.8552 21.7054 29.4058 21.7054 28.8747C21.7054 28.3436 21.3126 27.8941 20.809 27.8941C20.3054 27.8941 19.9126 28.3436 19.9126 28.8747C19.9126 29.4058 20.3054 29.8552 20.809 29.8552Z" fill="#0CB4C4" stroke="white" stroke-width="0.2"></path><path d="M33.5898 28.8747C33.5898 30.4892 32.3134 31.7981 30.7506 31.7981C29.1878 31.7981 27.9113 30.4892 27.9113 28.8747C27.9113 27.26 29.1878 25.9512 30.7506 25.9512C32.3134 25.9512 33.5898 27.26 33.5898 28.8747ZM31.647 28.8747C31.647 28.3436 31.2542 27.8941 30.7506 27.8941C30.247 27.8941 29.8542 28.3436 29.8542 28.8747C29.8542 29.4058 30.247 29.8552 30.7506 29.8552C31.2541 29.8552 31.647 29.4058 31.647 28.8747Z" fill="#0CB4C4" stroke="white" stroke-width="0.2"></path><mask id="path-10-inside-1_1231_97" fill="white"><path d="M46.7567 25.4724H43.6594C43.5187 25.4724 43.3794 25.5001 43.2494 25.5539C43.1194 25.6078 43.0012 25.6867 42.9018 25.7862C42.8023 25.8857 42.7233 26.0038 42.6695 26.1338C42.6157 26.2638 42.5879 26.4031 42.588 26.5438V39.9461C42.5873 40.5582 42.3438 41.145 41.911 41.5778C41.4782 42.0107 40.8913 42.2541 40.2793 42.2548H12.5673C11.9552 42.2541 11.3684 42.0107 10.9356 41.5778C10.5027 41.145 10.2593 40.5582 10.2586 39.9461V22.5786C10.2607 20.7004 11.0078 18.8998 12.3359 17.5717C13.664 16.2436 15.4646 15.4966 17.3428 15.4945H26.8686C27.1528 15.4945 27.4253 15.3816 27.6262 15.1806C27.8272 14.9797 27.94 14.7072 27.94 14.423C27.94 14.1389 27.8272 13.8663 27.6262 13.6654C27.4253 13.4645 27.1528 13.3516 26.8686 13.3516H17.3428C14.8965 13.3544 12.5512 14.3274 10.8213 16.0572C9.09153 17.787 8.1185 20.1323 8.11573 22.5786V25.4724H6.08987C5.75826 25.4724 5.42879 25.5254 5.11398 25.6296V18.3329C5.97867 18.0744 6.73597 17.542 7.27182 16.8158C7.80767 16.0896 8.09305 15.209 8.08499 14.3066C8.08499 12.0037 6.27153 10.1302 4.04255 10.1302C1.81356 10.1302 0.000166583 12.0037 0.000166583 14.3066C-0.00790396 15.209 0.277472 16.0896 0.813313 16.8158C1.34915 17.542 2.10644 18.0744 2.97112 18.3329V34.4656C2.97205 35.283 3.29715 36.0666 3.8751 36.6445C4.45306 37.2225 5.23667 37.5476 6.05403 37.5485H8.11573V39.9461C8.11707 41.1263 8.5865 42.2578 9.42104 43.0923C10.2556 43.9269 11.3871 44.3963 12.5673 44.3976H14.3651C12.4497 45.6236 10.8735 47.3115 9.78148 49.3062C8.68943 51.3009 8.11661 53.5382 8.11573 55.8122V58.9286C8.11573 59.0693 8.14344 59.2086 8.19728 59.3386C8.25113 59.4686 8.33005 59.5867 8.42954 59.6862C8.52903 59.7857 8.64715 59.8646 8.77714 59.9185C8.90713 59.9723 9.04646 60 9.18716 60H43.6594C43.8001 60 43.9394 59.9723 44.0694 59.9185C44.1994 59.8646 44.3175 59.7857 44.417 59.6862C44.5165 59.5867 44.5954 59.4686 44.6493 59.3386C44.7031 59.2086 44.7308 59.0693 44.7308 58.9286V55.6715C44.7299 53.4279 44.1665 51.2204 43.0919 49.2509C42.0174 47.2814 40.4662 45.6127 38.5801 44.3977H40.2793C41.4595 44.3963 42.591 43.9269 43.4255 43.0923C44.26 42.2578 44.7295 41.1263 44.7308 39.9461V37.5485H46.7925C47.6099 37.5476 48.3935 37.2225 48.9714 36.6445C49.5494 36.0666 49.8745 35.283 49.8754 34.4656V28.5911C49.8745 27.7643 49.5456 26.9716 48.9609 26.3869C48.3762 25.8022 47.5835 25.4733 46.7567 25.4724ZM2.14303 14.3066C2.14303 13.1853 2.99512 12.2731 4.04255 12.2731C5.08998 12.2731 5.94213 13.1853 5.94213 14.3066C5.94213 15.4278 5.08998 16.3401 4.04255 16.3401C2.99512 16.3401 2.14303 15.4278 2.14303 14.3066ZM6.05403 35.4057C5.80481 35.4054 5.56587 35.3062 5.38964 35.13C5.21341 34.9538 5.11428 34.7148 5.11399 34.4656V28.5911C5.11427 28.3324 5.21718 28.0843 5.40013 27.9014C5.58308 27.7184 5.83114 27.6155 6.08987 27.6153H8.11573V35.4057L6.05403 35.4057ZM31.3141 44.3976C32.458 44.3969 33.5953 44.5708 34.6867 44.9134L31.6476 48.6012C31.557 48.7115 31.443 48.8003 31.3139 48.8612C31.1848 48.9221 31.0438 48.9535 30.901 48.9533H21.047C20.895 48.9531 20.7451 48.9171 20.6094 48.8482C20.4738 48.7794 20.3563 48.6797 20.2663 48.5571L17.7355 45.0981C18.9963 44.6336 20.3296 44.3964 21.6733 44.3976H31.3141ZM42.588 55.6715V57.8571H10.2586V55.8123C10.2596 53.8473 10.7677 51.9158 11.7336 50.2047C12.6996 48.4936 14.0908 47.0606 15.7727 46.0445L18.5369 49.8225C18.8263 50.2166 19.2042 50.5372 19.6402 50.7584C20.0762 50.9796 20.5581 51.0953 21.047 51.0962H30.901C31.36 51.0969 31.8134 50.9957 32.2285 50.7999C32.6436 50.6041 33.01 50.3186 33.3013 49.9639L36.7391 45.7924C38.509 46.7649 39.9853 48.1946 41.0141 49.9323C42.0429 51.6701 42.5864 53.6521 42.588 55.6715ZM47.7326 34.4656C47.7323 34.7148 47.6331 34.9538 47.4569 35.13C47.2807 35.3062 47.0417 35.4054 46.7925 35.4057H44.7308V27.6153H46.7567C47.0154 27.6155 47.2635 27.7184 47.4464 27.9014C47.6294 28.0843 47.7323 28.3324 47.7326 28.5911L47.7326 34.4656Z"></path></mask><path d="M46.7567 25.4724H43.6594C43.5187 25.4724 43.3794 25.5001 43.2494 25.5539C43.1194 25.6078 43.0012 25.6867 42.9018 25.7862C42.8023 25.8857 42.7233 26.0038 42.6695 26.1338C42.6157 26.2638 42.5879 26.4031 42.588 26.5438V39.9461C42.5873 40.5582 42.3438 41.145 41.911 41.5778C41.4782 42.0107 40.8913 42.2541 40.2793 42.2548H12.5673C11.9552 42.2541 11.3684 42.0107 10.9356 41.5778C10.5027 41.145 10.2593 40.5582 10.2586 39.9461V22.5786C10.2607 20.7004 11.0078 18.8998 12.3359 17.5717C13.664 16.2436 15.4646 15.4966 17.3428 15.4945H26.8686C27.1528 15.4945 27.4253 15.3816 27.6262 15.1806C27.8272 14.9797 27.94 14.7072 27.94 14.423C27.94 14.1389 27.8272 13.8663 27.6262 13.6654C27.4253 13.4645 27.1528 13.3516 26.8686 13.3516H17.3428C14.8965 13.3544 12.5512 14.3274 10.8213 16.0572C9.09153 17.787 8.1185 20.1323 8.11573 22.5786V25.4724H6.08987C5.75826 25.4724 5.42879 25.5254 5.11398 25.6296V18.3329C5.97867 18.0744 6.73597 17.542 7.27182 16.8158C7.80767 16.0896 8.09305 15.209 8.08499 14.3066C8.08499 12.0037 6.27153 10.1302 4.04255 10.1302C1.81356 10.1302 0.000166583 12.0037 0.000166583 14.3066C-0.00790396 15.209 0.277472 16.0896 0.813313 16.8158C1.34915 17.542 2.10644 18.0744 2.97112 18.3329V34.4656C2.97205 35.283 3.29715 36.0666 3.8751 36.6445C4.45306 37.2225 5.23667 37.5476 6.05403 37.5485H8.11573V39.9461C8.11707 41.1263 8.5865 42.2578 9.42104 43.0923C10.2556 43.9269 11.3871 44.3963 12.5673 44.3976H14.3651C12.4497 45.6236 10.8735 47.3115 9.78148 49.3062C8.68943 51.3009 8.11661 53.5382 8.11573 55.8122V58.9286C8.11573 59.0693 8.14344 59.2086 8.19728 59.3386C8.25113 59.4686 8.33005 59.5867 8.42954 59.6862C8.52903 59.7857 8.64715 59.8646 8.77714 59.9185C8.90713 59.9723 9.04646 60 9.18716 60H43.6594C43.8001 60 43.9394 59.9723 44.0694 59.9185C44.1994 59.8646 44.3175 59.7857 44.417 59.6862C44.5165 59.5867 44.5954 59.4686 44.6493 59.3386C44.7031 59.2086 44.7308 59.0693 44.7308 58.9286V55.6715C44.7299 53.4279 44.1665 51.2204 43.0919 49.2509C42.0174 47.2814 40.4662 45.6127 38.5801 44.3977H40.2793C41.4595 44.3963 42.591 43.9269 43.4255 43.0923C44.26 42.2578 44.7295 41.1263 44.7308 39.9461V37.5485H46.7925C47.6099 37.5476 48.3935 37.2225 48.9714 36.6445C49.5494 36.0666 49.8745 35.283 49.8754 34.4656V28.5911C49.8745 27.7643 49.5456 26.9716 48.9609 26.3869C48.3762 25.8022 47.5835 25.4733 46.7567 25.4724ZM2.14303 14.3066C2.14303 13.1853 2.99512 12.2731 4.04255 12.2731C5.08998 12.2731 5.94213 13.1853 5.94213 14.3066C5.94213 15.4278 5.08998 16.3401 4.04255 16.3401C2.99512 16.3401 2.14303 15.4278 2.14303 14.3066ZM6.05403 35.4057C5.80481 35.4054 5.56587 35.3062 5.38964 35.13C5.21341 34.9538 5.11428 34.7148 5.11399 34.4656V28.5911C5.11427 28.3324 5.21718 28.0843 5.40013 27.9014C5.58308 27.7184 5.83114 27.6155 6.08987 27.6153H8.11573V35.4057L6.05403 35.4057ZM31.3141 44.3976C32.458 44.3969 33.5953 44.5708 34.6867 44.9134L31.6476 48.6012C31.557 48.7115 31.443 48.8003 31.3139 48.8612C31.1848 48.9221 31.0438 48.9535 30.901 48.9533H21.047C20.895 48.9531 20.7451 48.9171 20.6094 48.8482C20.4738 48.7794 20.3563 48.6797 20.2663 48.5571L17.7355 45.0981C18.9963 44.6336 20.3296 44.3964 21.6733 44.3976H31.3141ZM42.588 55.6715V57.8571H10.2586V55.8123C10.2596 53.8473 10.7677 51.9158 11.7336 50.2047C12.6996 48.4936 14.0908 47.0606 15.7727 46.0445L18.5369 49.8225C18.8263 50.2166 19.2042 50.5372 19.6402 50.7584C20.0762 50.9796 20.5581 51.0953 21.047 51.0962H30.901C31.36 51.0969 31.8134 50.9957 32.2285 50.7999C32.6436 50.6041 33.01 50.3186 33.3013 49.9639L36.7391 45.7924C38.509 46.7649 39.9853 48.1946 41.0141 49.9323C42.0429 51.6701 42.5864 53.6521 42.588 55.6715ZM47.7326 34.4656C47.7323 34.7148 47.6331 34.9538 47.4569 35.13C47.2807 35.3062 47.0417 35.4054 46.7925 35.4057H44.7308V27.6153H46.7567C47.0154 27.6155 47.2635 27.7184 47.4464 27.9014C47.6294 28.0843 47.7323 28.3324 47.7326 28.5911L47.7326 34.4656Z" fill="#0CB4C4" stroke="white" stroke-width="0.4" mask="url(#path-10-inside-1_1231_97)"></path><path d="M31.9315 54.0228C32.1137 53.8407 32.3608 53.7383 32.6184 53.7383H36.9146C37.1722 53.7383 37.4193 53.8407 37.6015 54.0228C37.7837 54.205 37.886 54.4521 37.886 54.7097C37.886 54.9674 37.7837 55.2145 37.6015 55.3966C37.4193 55.5788 37.1722 55.6812 36.9146 55.6812H32.6184C32.3608 55.6812 32.1137 55.5788 31.9315 55.3966C31.7493 55.2145 31.647 54.9674 31.647 54.7097C31.647 54.4521 31.7493 54.205 31.9315 54.0228Z" fill="#0CB4C4" stroke="white" stroke-width="0.2"></path><path d="M15.2955 53.7383H19.5917C19.8494 53.7383 20.0964 53.8407 20.2786 54.0228C20.4608 54.205 20.5632 54.4521 20.5632 54.7097C20.5632 54.9674 20.4608 55.2145 20.2786 55.3966C20.0964 55.5788 19.8494 55.6812 19.5917 55.6812H15.2955C15.0379 55.6812 14.7908 55.5788 14.6086 55.3966C14.4265 55.2145 14.3241 54.9674 14.3241 54.7097C14.3241 54.4521 14.4265 54.205 14.6086 54.0228C14.7908 53.8407 15.0379 53.7383 15.2955 53.7383Z" fill="#0CB4C4" stroke="white" stroke-width="0.2"></path></svg>