<svg width="58" height="62" viewBox="0 0 58 62" fill="none" xmlns="http://www.w3.org/2000/svg"><path d="M41.0925 36.8955C41.0925 36.1244 42.2679 36.1244 42.2679 36.8955V38.0954C42.2679 38.2666 42.1945 38.4258 42.0719 38.536C42.0596 39.7968 42.133 41.4129 40.9456 42.4044L41.7414 45.1587C41.7782 45.2689 41.7782 45.3791 41.7414 45.4768C41.3008 47.0438 41.7171 47.1907 42.0719 47.3252C42.6227 47.5331 43.1248 47.7171 43.1248 48.6108V49.7739C43.1248 50.1044 42.8554 50.3614 42.5373 50.3614H35.8407C35.5102 50.3614 35.2532 50.092 35.2532 49.7739V48.6108C35.2532 47.7172 35.7553 47.5336 36.318 47.3252C36.6728 47.1907 37.0891 47.0438 36.6485 45.4768C36.6118 45.3543 36.6242 45.2322 36.6609 45.122L37.4567 42.4044C36.2694 41.413 36.3304 39.8093 36.3304 38.536C36.2078 38.4259 36.1344 38.2666 36.1344 38.0954V36.8955C36.1344 36.1244 37.3098 36.1244 37.3098 36.8955V37.6914H38.6074V36.8955C38.6074 36.1244 39.7828 36.1244 39.7828 36.8955V37.6914H41.0804V36.8955L41.0925 36.8955ZM41.9618 49.1617C41.9618 48.476 42.0476 48.5494 41.668 48.4149C40.8478 48.1211 39.9174 47.7659 40.5665 45.3053L39.7095 42.3426C39.6118 42.0856 39.7219 41.7794 39.9666 41.6326C40.8359 41.1185 40.9093 39.9063 40.9093 38.8415L37.5055 38.8419C37.5055 39.9068 37.5665 41.1189 38.4358 41.633C38.6562 41.7675 38.7787 42.0369 38.7053 42.3063L37.836 45.2934C38.4849 47.754 37.5422 48.1093 36.7344 48.403C36.3672 48.5375 36.4406 48.464 36.4406 49.1498H41.9618L41.9618 49.1617ZM39.2074 32.7453C45.0471 32.7453 49.7848 37.4829 49.7848 43.3226C49.7848 49.1623 45.0471 53.9 39.2074 53.9C33.3677 53.9 28.63 49.1623 28.63 43.3226C28.63 37.4829 33.3557 32.7453 39.2074 32.7453ZM45.8549 36.6751C42.182 33.0022 36.2327 33.0022 32.5602 36.6751C28.8874 40.3479 28.8874 46.2972 32.5602 49.9697C36.233 53.6426 42.1824 53.6426 45.8549 49.9697C49.5273 46.2969 49.5273 40.3472 45.8549 36.6751ZM36.5875 25.6572H41.8149C42.1454 25.6572 42.4024 25.9266 42.4024 26.2447V29.1708C42.9899 29.3053 43.5655 29.4645 44.1163 29.6729V13.8314H32.7803V30.3091C33.8085 29.8069 34.8862 29.4154 36.012 29.1708V26.2447C36.012 25.9262 36.2694 25.6572 36.5875 25.6572ZM45.3036 30.1502C45.8792 30.4196 46.43 30.7133 46.9564 31.0438L49.0256 28.9747C49.2583 28.742 49.6255 28.742 49.8582 28.9747L53.5553 32.6718C53.788 32.9045 53.788 33.2717 53.5553 33.5044L51.4861 35.5735C52.3674 36.9693 53.0041 38.5115 53.3712 40.1276H56.2973C56.6278 40.1276 56.8848 40.397 56.8848 40.7151V45.9301C56.8848 46.2729 56.6154 46.53 56.2482 46.5176H53.3837C53.0165 48.1337 52.3798 49.6759 51.4986 51.0717L53.5677 53.1408C53.8004 53.3735 53.8004 53.7407 53.5677 53.9734L49.8706 57.6705C49.6379 57.9032 49.2707 57.9032 49.038 57.6705L46.9689 55.6013C45.5731 56.4826 44.0428 57.1193 42.4272 57.4864V60.4125C42.4272 60.743 42.1578 61 41.8397 61H36.6123C36.2942 61 36.0248 60.7306 36.0248 60.4125V57.4864C34.4087 57.1192 32.8664 56.4826 31.4707 55.6013L29.4016 57.6705C29.1689 57.9032 28.8017 57.9032 28.569 57.6705L24.8719 53.9734C24.6392 53.7407 24.6392 53.3735 24.8719 53.1408L26.941 51.0717C26.0598 49.6758 25.4231 48.1456 25.056 46.5299H22.1299C21.8118 46.5299 21.5424 46.2605 21.5424 45.9424V44.4489H7.15794C6.82747 44.4489 6.57043 44.1795 6.57043 43.8614V32.2314C6.57043 31.9009 6.83984 31.6439 7.15794 31.6439H19.0819V23.6745C19.0819 23.3564 19.3514 23.087 19.6695 23.087H31.5935L31.593 13.2436C31.593 12.9255 31.8624 12.6561 32.1805 12.6561H44.6915C45.0096 12.6561 45.279 12.9255 45.279 13.2436V30.1497L45.3036 30.1502ZM21.542 43.2612V40.7147C21.542 40.3843 21.8114 40.1272 22.1295 40.1272H25.0556C25.4228 38.5112 26.0594 36.9689 26.9406 35.5732L24.8715 33.504C24.6388 33.2713 24.6388 32.9042 24.8715 32.6715L28.5686 28.9743C28.8013 28.7416 29.1685 28.7416 29.4012 28.9743L31.4703 31.0435C31.5194 31.0068 31.5681 30.9824 31.6172 30.9457V24.2371H20.2813V43.2364H21.5421L21.542 43.2612ZM41.2277 26.8328H37.1758V29.6119C37.1882 29.9057 36.9922 30.1627 36.6984 30.2242C35.7924 30.3954 34.9236 30.6529 34.091 30.9953C33.4544 31.2647 32.3404 31.8279 31.7281 32.2685C31.4955 32.4521 31.165 32.4278 30.957 32.2194L28.9737 30.2361L26.1092 33.1006L28.1049 35.0839C28.3008 35.2799 28.3375 35.598 28.1783 35.8307C27.6762 36.5775 27.2355 37.3733 26.8927 38.2179C26.5622 39.0381 26.2928 39.8951 26.1215 40.7763C26.0848 41.07 25.8402 41.2904 25.534 41.2904H22.7181V45.3423H25.534C25.8154 45.3423 26.0605 45.5383 26.1096 45.8196C26.2808 46.7257 26.5383 47.5945 26.8807 48.4271C27.2236 49.2597 27.6518 50.0431 28.1539 50.7899C28.3251 51.0226 28.3131 51.3531 28.1048 51.561L26.1091 53.5443L28.9736 56.4089L30.957 54.4255C31.1529 54.2296 31.471 54.1929 31.7037 54.3521C32.4505 54.8662 33.2463 55.2949 34.0909 55.6497C34.9111 55.9801 35.7681 56.2496 36.6493 56.4208C36.9431 56.4575 37.1758 56.7021 37.1758 57.0083V59.8242H41.2277V57.0083C41.2277 56.7269 41.4237 56.4818 41.705 56.4327C42.6111 56.2615 43.4799 56.004 44.3125 55.6616C45.1451 55.3188 45.9285 54.8905 46.6753 54.3884C46.908 54.2048 47.2385 54.2292 47.4464 54.4375L49.4297 56.4209L52.2943 53.5563L50.311 51.5615C50.115 51.3655 50.0783 51.0475 50.2375 50.8148C51.2657 49.3089 51.9638 47.6198 52.3067 45.8201C52.3558 45.5507 52.6004 45.3428 52.8822 45.3428H55.6981V41.2908H52.8822C52.6128 41.2908 52.3558 41.0949 52.3067 40.8135C52.1354 39.9075 51.878 39.0386 51.5355 38.206C51.1927 37.3734 50.7644 36.59 50.2624 35.8432C50.0788 35.6105 50.1031 35.28 50.3115 35.0721L52.2948 33.0888L49.4303 30.2242L47.4466 32.219C47.2506 32.415 46.9445 32.4517 46.6998 32.2925C45.9531 31.7784 45.1452 31.3497 44.3126 30.9949C43.4924 30.6645 42.6355 30.395 41.7543 30.2238C41.4605 30.1871 41.2402 29.9424 41.2402 29.6363L41.2398 26.8329L41.2277 26.8328ZM27.639 9.66872C27.639 10.4398 26.4635 10.4398 26.4635 9.66872V5.09029C26.4635 3.62113 27.6634 2.42173 29.1321 2.42173H36.0243L35.4611 2.10364C34.7878 1.72405 35.3753 0.695905 36.0486 1.08744L38.4849 2.49517C38.8888 2.71549 38.8888 3.29104 38.4973 3.51137L36.0371 4.9191C35.3761 5.29868 34.7881 4.28249 35.4495 3.9029L35.976 3.59676H29.1205C28.3003 3.59676 27.627 4.2701 27.627 5.0903L27.6266 9.66873L27.639 9.66872ZM14.9072 21.4703C14.9072 22.2414 13.7318 22.2414 13.7318 21.4703V16.4022C13.7318 14.933 14.9316 13.7336 16.4003 13.7336H23.2925L22.7417 13.4155C22.0684 13.036 22.6559 12.0197 23.3292 12.3993L25.7655 13.8071C26.1575 14.0274 26.1575 14.6029 25.7655 14.8233L23.3292 16.231C22.6683 16.6106 22.0803 15.5944 22.7417 15.2148L23.2682 14.9087H16.4127C15.5925 14.9087 14.9192 15.582 14.9192 16.4022L14.9196 21.4703L14.9072 21.4703ZM2.17546 33.1123C2.17546 33.8834 1 33.8834 1 33.1123V27.7013C1 26.2321 2.19983 25.0447 3.66856 25.0447H10.5607L9.99757 24.7266C9.32423 24.347 9.91175 23.3307 10.5851 23.7104L13.0214 25.1181C13.4253 25.3384 13.4253 25.914 13.0337 26.1343L10.5855 27.542C9.9246 27.9216 9.33664 26.9054 9.99804 26.5258L10.5245 26.2197H3.66903C2.84883 26.2197 2.1755 26.893 2.1755 27.7009L2.17546 33.1123ZM19.0947 32.8062H7.7467V43.2609H19.0826V32.8062H19.0947Z" fill="#0CB4C4" stroke="#0CB4C4" stroke-width="0.5"></path></svg>