<svg width="52" height="62" viewBox="0 0 52 62" fill="none" xmlns="http://www.w3.org/2000/svg"><path d="M35.8737 40.3928H35.8298L16.7218 40.184C15.6814 40.1726 14.7076 39.7573 13.9802 39.0137C13.2534 38.2696 12.8588 37.2869 12.8712 36.2465L13.008 24.3438C13.0327 22.2132 14.7757 20.4953 16.9015 20.4953H16.944L36.0532 20.7042C37.0936 20.7155 38.0679 21.1318 38.7948 21.8759C39.5216 22.62 39.9161 23.6026 39.9033 24.6431L39.7675 36.5458C39.7423 38.6755 37.9995 40.3928 35.8737 40.3928ZM16.8997 21.9106C15.5463 21.9106 14.4377 23.0033 14.4219 24.3597L14.2856 36.2629C14.2777 36.9256 14.5285 37.5498 14.9912 38.0233C15.4544 38.4963 16.0736 38.761 16.7353 38.7679L35.8445 38.9768H35.8722C37.2251 38.9768 38.3342 37.8845 38.349 36.5281L38.4848 24.6254C38.4927 23.9628 38.2419 23.3376 37.7792 22.8641C37.317 22.391 36.6973 22.1264 36.0351 22.1185L16.9259 21.9096C16.917 21.9106 16.9081 21.9106 16.8997 21.9106Z" fill="#0CB4C4"></path><path d="M31.9815 22.0749L21.1765 21.9569L21.1972 20.1363C21.2229 17.9237 23.0213 16.1446 25.2571 16.1663L28.0297 16.196C29.1037 16.2078 30.1076 16.6369 30.8576 17.4043C31.6082 18.1716 32.0146 19.1854 32.0017 20.2583L31.9815 22.0749ZM22.6086 20.5565L30.5832 20.6434L30.5876 20.2419C30.596 19.5467 30.3328 18.8905 29.8469 18.3937C29.3606 17.897 28.7107 17.6195 28.0155 17.6116L25.2429 17.5819C23.7931 17.5424 22.6308 18.7186 22.6145 20.1521L22.6086 20.5565Z" fill="#0CB4C4"></path><path d="M19.1536 40.0882L19.3734 21.3164L20.789 21.3332L20.5693 40.105L19.1536 40.0882Z" fill="#0CB4C4"></path><path d="M32.1345 39.4233L32.3449 21.458L33.7605 21.4748L33.5502 39.44L32.1345 39.4233Z" fill="#0CB4C4"></path><path d="M46.2506 47.9597H6.15874V20.7615C6.15874 9.86519 15.0232 1 25.919 1H26.4888C37.3851 1 46.2503 9.86494 46.2503 20.7615L46.2506 47.9597ZM7.57452 46.544H44.8348V20.7616C44.8348 10.646 36.605 2.41591 26.4891 2.41591H25.9193C15.8036 2.41591 7.5748 10.6454 7.5748 20.7616L7.57452 46.544Z" fill="#0CB4C4"></path><path d="M51.3803 54.7896H1V46.5908H51.3803V54.7896ZM2.41578 53.3739H49.9633V48.0065H2.41578V53.3739Z" fill="#0CB4C4"></path><path d="M11.0786 61C9.07086 61 7.4379 59.367 7.4379 57.3593C7.4379 55.3515 9.07086 53.7181 11.0786 53.7181C13.0864 53.7181 14.7198 55.352 14.7198 57.3593C14.7203 59.3665 13.0864 61 11.0786 61ZM11.0786 55.1344C9.85205 55.1344 8.85356 56.1323 8.85356 57.3598C8.85356 58.5859 9.8515 59.5848 11.0786 59.5848C12.3052 59.5848 13.304 58.5869 13.304 57.3598C13.3045 56.1323 12.3061 55.1344 11.0786 55.1344Z" fill="#0CB4C4"></path><path d="M41.0287 61C39.0209 61 37.3875 59.367 37.3875 57.3593C37.3875 55.3515 39.0214 53.7181 41.0287 53.7181C43.0364 53.7181 44.6699 55.352 44.6699 57.3593C44.6699 59.3665 43.0359 61 41.0287 61ZM41.0287 55.1344C39.8021 55.1344 38.8032 56.1323 38.8032 57.3598C38.8032 58.5859 39.8012 59.5848 41.0287 59.5848C42.2562 59.5848 43.2541 58.5869 43.2541 57.3598C43.2541 56.1323 42.2552 55.1344 41.0287 55.1344Z" fill="#0CB4C4"></path><path d="M12.3275 49.9822H42.3686V51.3979H12.3275V49.9822Z" fill="#0CB4C4"></path><path d="M43.4191 47.5261H8.7881V39.3885H43.4191V47.5261ZM10.2039 46.1105H42.0033V40.8042H10.2039V46.1105Z" fill="#0CB4C4"></path><path d="M12.8066 40.3208H14.2223V47.2515H12.8066V40.3208Z" fill="#0CB4C4"></path><path d="M38.1441 40.0958H39.5597V47.2516H38.1441V40.0958Z" fill="#0CB4C4"></path><path d="M35.8737 40.3928H35.8298L16.7218 40.184C15.6814 40.1726 14.7076 39.7573 13.9802 39.0137C13.2534 38.2696 12.8588 37.2869 12.8712 36.2465L13.008 24.3438C13.0327 22.2132 14.7757 20.4953 16.9015 20.4953H16.944L36.0532 20.7042C37.0936 20.7155 38.0679 21.1318 38.7948 21.8759C39.5216 22.62 39.9161 23.6026 39.9033 24.6431L39.7675 36.5458C39.7423 38.6755 37.9995 40.3928 35.8737 40.3928ZM16.8997 21.9106C15.5463 21.9106 14.4377 23.0033 14.4219 24.3597L14.2856 36.2629C14.2777 36.9256 14.5285 37.5498 14.9912 38.0233C15.4544 38.4963 16.0736 38.761 16.7353 38.7679L35.8445 38.9768H35.8722C37.2251 38.9768 38.3342 37.8845 38.349 36.5281L38.4848 24.6254C38.4927 23.9628 38.2419 23.3376 37.7792 22.8641C37.317 22.391 36.6973 22.1264 36.0351 22.1185L16.9259 21.9096C16.917 21.9106 16.9081 21.9106 16.8997 21.9106Z" stroke="#0CB4C4" stroke-width="0.3"></path><path d="M31.9815 22.0749L21.1765 21.9569L21.1972 20.1363C21.2229 17.9237 23.0213 16.1446 25.2571 16.1663L28.0297 16.196C29.1037 16.2078 30.1076 16.6369 30.8576 17.4043C31.6082 18.1716 32.0146 19.1854 32.0017 20.2583L31.9815 22.0749ZM22.6086 20.5565L30.5832 20.6434L30.5876 20.2419C30.596 19.5467 30.3328 18.8905 29.8469 18.3937C29.3606 17.897 28.7107 17.6195 28.0155 17.6116L25.2429 17.5819C23.7931 17.5424 22.6308 18.7186 22.6145 20.1521L22.6086 20.5565Z" stroke="#0CB4C4" stroke-width="0.3"></path><path d="M19.1536 40.0882L19.3734 21.3164L20.789 21.3332L20.5693 40.105L19.1536 40.0882Z" stroke="#0CB4C4" stroke-width="0.3"></path><path d="M32.1345 39.4233L32.3449 21.458L33.7605 21.4748L33.5502 39.44L32.1345 39.4233Z" stroke="#0CB4C4" stroke-width="0.3"></path><path d="M46.2506 47.9597H6.15874V20.7615C6.15874 9.86519 15.0232 1 25.919 1H26.4888C37.3851 1 46.2503 9.86494 46.2503 20.7615L46.2506 47.9597ZM7.57452 46.544H44.8348V20.7616C44.8348 10.646 36.605 2.41591 26.4891 2.41591H25.9193C15.8036 2.41591 7.5748 10.6454 7.5748 20.7616L7.57452 46.544Z" stroke="#0CB4C4" stroke-width="0.3"></path><path d="M51.3803 54.7896H1V46.5908H51.3803V54.7896ZM2.41578 53.3739H49.9633V48.0065H2.41578V53.3739Z" stroke="#0CB4C4" stroke-width="0.3"></path><path d="M11.0786 61C9.07086 61 7.4379 59.367 7.4379 57.3593C7.4379 55.3515 9.07086 53.7181 11.0786 53.7181C13.0864 53.7181 14.7198 55.352 14.7198 57.3593C14.7203 59.3665 13.0864 61 11.0786 61ZM11.0786 55.1344C9.85205 55.1344 8.85356 56.1323 8.85356 57.3598C8.85356 58.5859 9.8515 59.5848 11.0786 59.5848C12.3052 59.5848 13.304 58.5869 13.304 57.3598C13.3045 56.1323 12.3061 55.1344 11.0786 55.1344Z" stroke="#0CB4C4" stroke-width="0.3"></path><path d="M41.0287 61C39.0209 61 37.3875 59.367 37.3875 57.3593C37.3875 55.3515 39.0214 53.7181 41.0287 53.7181C43.0364 53.7181 44.6699 55.352 44.6699 57.3593C44.6699 59.3665 43.0359 61 41.0287 61ZM41.0287 55.1344C39.8021 55.1344 38.8032 56.1323 38.8032 57.3598C38.8032 58.5859 39.8012 59.5848 41.0287 59.5848C42.2562 59.5848 43.2541 58.5869 43.2541 57.3598C43.2541 56.1323 42.2552 55.1344 41.0287 55.1344Z" stroke="#0CB4C4" stroke-width="0.3"></path><path d="M12.3275 49.9822H42.3686V51.3979H12.3275V49.9822Z" stroke="#0CB4C4" stroke-width="0.3"></path><path d="M43.4191 47.5261H8.7881V39.3885H43.4191V47.5261ZM10.2039 46.1105H42.0033V40.8042H10.2039V46.1105Z" stroke="#0CB4C4" stroke-width="0.3"></path><path d="M12.8066 40.3208H14.2223V47.2515H12.8066V40.3208Z" stroke="#0CB4C4" stroke-width="0.3"></path><path d="M38.1441 40.0958H39.5597V47.2516H38.1441V40.0958Z" stroke="#0CB4C4" stroke-width="0.3"></path></svg>