<svg width="62" height="60" viewBox="0 0 62 60" fill="none" xmlns="http://www.w3.org/2000/svg"><path d="M57.3108 0H3.95337C1.77096 0 0 1.77096 0 3.94397V56.0466C0 58.2196 1.77096 60 3.95337 60H57.3196C59.4926 60 61.273 58.229 61.273 56.0466V3.94397C61.2636 1.77096 59.4934 0 57.3108 0ZM59.4069 56.0564C59.4069 57.2145 58.4689 58.1529 57.3104 58.1529L3.95403 58.1525C2.79593 58.1525 1.8575 57.2145 1.8575 56.0559L1.85792 10.6638H47.6242V32.058C47.6242 32.0867 47.6336 32.1059 47.6336 32.1345C47.6336 32.173 47.643 32.2016 47.6528 32.2397C47.672 32.326 47.7007 32.4025 47.7391 32.4696C47.7485 32.4888 47.7485 32.508 47.7583 32.5268C47.7583 32.5362 47.7677 32.5362 47.7776 32.5461C47.787 32.5555 47.787 32.5653 47.7968 32.5747L51.5108 37.9447C51.683 38.1934 51.9702 38.3468 52.2766 38.3468C52.583 38.3468 52.8702 38.1938 53.0424 37.9447L56.7564 32.5747C56.7658 32.5653 56.7658 32.5555 56.7756 32.5362C56.785 32.5268 56.7949 32.517 56.8043 32.4978C56.8137 32.4785 56.8137 32.4593 56.8235 32.4405C56.862 32.364 56.8808 32.2875 56.9 32.2106C56.9094 32.1721 56.9094 32.1435 56.9192 32.1055C56.9192 32.0862 56.9286 32.067 56.9286 32.0384V10.6639H59.4269V56.0571L59.4069 56.0564ZM49.4807 9.72563V9.247C49.4807 8.95043 49.72 8.72052 50.0072 8.72052H54.5156C54.8122 8.72052 55.0421 8.95983 55.0421 9.247V11.7452H49.4708V9.72561C49.4807 9.73501 49.4807 9.73503 49.4807 9.72563ZM55.0515 13.6025V30.4599L54.1135 29.924C53.7785 29.7326 53.3669 29.771 53.0699 30.0104L52.0935 30.7954L51.4042 30.0868C51.1076 29.7804 50.629 29.7133 50.2555 29.9339L49.4803 30.4031L49.4807 13.6026L55.0515 13.6025ZM54.64 32.3646L52.2661 35.8012L49.873 32.3457L50.591 31.9146L51.3568 32.6996C51.6918 33.044 52.2277 33.0825 52.6106 32.7761L53.7593 31.8475L54.64 32.3646ZM56.8702 8.80645C56.6595 7.70567 55.6929 6.86329 54.5249 6.86329H50.0164C48.8485 6.86329 47.8818 7.70558 47.6711 8.80645H1.85786V3.94375C1.85786 2.78564 2.79587 1.84721 3.95439 1.84721H57.3206C58.4787 1.84721 59.4172 2.78523 59.4172 3.94375L59.4167 8.80645H56.8702Z" fill="#0CB4C4"></path><path d="M7.54386 31.58H15.4984C16.0155 31.58 16.427 31.1685 16.427 30.6514V19.5189C16.427 19.0018 16.0155 18.5903 15.4984 18.5903H7.54386C7.02677 18.5903 6.61524 19.0018 6.61524 19.5189V30.6612C6.61524 31.1685 7.03661 31.58 7.54386 31.58ZM8.47248 20.4475H14.5702V29.7328H8.47248V20.4475Z" fill="#0CB4C4"></path><path d="M19.7398 20.4475H32.6336C33.1507 20.4475 33.5622 20.036 33.5622 19.5189C33.5622 19.0018 33.1507 18.5903 32.6336 18.5903H19.7398C19.2227 18.5903 18.8111 19.0018 18.8111 19.5189C18.8111 20.0261 19.2325 20.4475 19.7398 20.4475Z" fill="#0CB4C4"></path><path d="M19.7398 26.0181H32.6336C33.1507 26.0181 33.5622 25.6066 33.5622 25.0895C33.5622 24.5724 33.1507 24.1609 32.6336 24.1609H19.7398C19.2227 24.1609 18.8111 24.5724 18.8111 25.0895C18.8111 25.5968 19.2325 26.0181 19.7398 26.0181Z" fill="#0CB4C4"></path><path d="M19.7398 31.58H32.6336C33.1507 31.58 33.5622 31.1685 33.5622 30.6514C33.5622 30.1343 33.1507 29.7228 32.6336 29.7228H19.7398C19.2227 29.7228 18.8111 30.1343 18.8111 30.6514C18.8111 31.1685 19.2325 31.58 19.7398 31.58Z" fill="#0CB4C4"></path><path d="M45.499 36.4997H7.54386C7.02677 36.4997 6.61524 36.9112 6.61524 37.4283C6.61524 37.9454 7.02677 38.3569 7.54386 38.3569H45.499C46.0161 38.3569 46.4276 37.9454 46.4276 37.4283C46.4276 36.9112 46.0161 36.4997 45.499 36.4997Z" fill="#0CB4C4"></path><path d="M45.499 44.2725H7.54386C7.02677 44.2725 6.61524 44.6841 6.61524 45.2012C6.61524 45.7183 7.02677 46.1298 7.54386 46.1298H45.499C46.0161 46.1298 46.4276 45.7183 46.4276 45.2012C46.4276 44.6845 46.0161 44.2725 45.499 44.2725Z" fill="#0CB4C4"></path><path d="M45.499 52.0454H7.54386C7.02677 52.0454 6.61524 52.4569 6.61524 52.974C6.61524 53.4911 7.02677 53.9026 7.54386 53.9026H45.499C46.0161 53.9026 46.4276 53.4911 46.4276 52.974C46.4276 52.4668 46.0161 52.0454 45.499 52.0454Z" fill="#0CB4C4"></path><path d="M6.82622 2.88153C5.47667 2.88153 4.37589 3.98231 4.37589 5.33186C4.37589 6.68141 5.47667 7.78219 6.82622 7.78219C8.17578 7.78219 9.27656 6.68141 9.27656 5.33186C9.27698 3.98231 8.17611 2.88153 6.82622 2.88153ZM6.82622 5.92546C6.50058 5.92546 6.23264 5.65752 6.23264 5.33188C6.23264 5.00624 6.50058 4.7383 6.82622 4.7383C7.15186 4.7383 7.4198 5.00624 7.4198 5.33188C7.4198 5.65752 7.15186 5.92546 6.82622 5.92546Z" fill="#0CB4C4"></path><path d="M15.2784 2.88153C13.9289 2.88153 12.8281 3.98231 12.8281 5.33186C12.8281 6.68141 13.9289 7.78219 15.2784 7.78219C16.628 7.78219 17.7288 6.68141 17.7288 5.33186C17.7292 3.98231 16.6283 2.88153 15.2784 2.88153ZM15.2784 5.92546C14.9528 5.92546 14.6848 5.65752 14.6848 5.33188C14.6848 5.00624 14.9528 4.7383 15.2784 4.7383C15.6041 4.7383 15.872 5.00624 15.872 5.33188C15.872 5.65752 15.6135 5.92546 15.2784 5.92546Z" fill="#0CB4C4"></path><path d="M23.7405 2.88153C22.3909 2.88153 21.2901 3.98231 21.2901 5.33186C21.2901 6.68141 22.3909 7.78219 23.7405 7.78219C25.09 7.78219 26.1908 6.68141 26.1908 5.33186C26.1908 3.98231 25.09 2.88153 23.7405 2.88153ZM23.7405 5.92546C23.4148 5.92546 23.1469 5.65752 23.1469 5.33188C23.1469 5.00624 23.4148 4.7383 23.7405 4.7383C24.0661 4.7383 24.3341 5.00624 24.3341 5.33188C24.3341 5.65752 24.0661 5.92546 23.7405 5.92546Z" fill="#0CB4C4"></path></svg>