<svg width="62" height="62" viewBox="0 0 62 62" fill="none" xmlns="http://www.w3.org/2000/svg"><path d="M31 1C27.577 1 24.7931 3.78386 24.7931 7.20684C24.7931 7.43867 24.8065 7.66635 24.8315 7.89172C24.8689 8.23116 24.9423 8.56321 25.0356 8.88787C25.0573 8.96361 25.0744 9.03981 25.0984 9.11416C25.1829 9.37186 25.2882 9.62171 25.4073 9.86555C25.4757 10.0096 25.5477 10.1505 25.6276 10.2881C25.6761 10.3708 25.7315 10.4497 25.7833 10.5306C25.9685 10.821 26.1735 11.0944 26.4035 11.3489C26.4137 11.36 26.4234 11.3697 26.4335 11.3812C27.5728 12.6267 29.1938 13.4137 31 13.4137C32.299 13.4137 33.5053 13.0105 34.5033 12.3247C34.5057 12.3224 34.5084 12.3238 34.5117 12.3224C34.5477 12.2979 34.5805 12.2674 34.6165 12.242C34.7601 12.1386 34.9005 12.0314 35.0349 11.9164C35.0991 11.8606 35.1605 11.8005 35.2229 11.7428C35.3305 11.6426 35.4353 11.5373 35.536 11.4297C35.5937 11.3664 35.6519 11.3059 35.7078 11.2417C35.8172 11.1133 35.9216 10.9794 36.0209 10.8418C36.0537 10.7952 36.0915 10.7527 36.1239 10.706C36.2532 10.5181 36.37 10.3223 36.4776 10.1204C36.4993 10.0798 36.5155 10.0373 36.5358 9.99713C36.6199 9.83135 36.6979 9.66186 36.7662 9.48775C36.7912 9.42586 36.8124 9.36305 36.8351 9.30025C36.8919 9.14278 36.9431 8.98252 36.9865 8.82134C37.005 8.75207 37.0225 8.68326 37.0392 8.61307C37.0775 8.44634 37.1094 8.27871 37.1338 8.10784C37.1435 8.04365 37.1551 7.9813 37.1625 7.91619C37.1902 7.68342 37.2068 7.44697 37.2068 7.20683C37.2068 3.78385 34.4229 1 31 1ZM31 2.03447C33.8522 2.03447 36.1723 4.35465 36.1723 7.20684C36.1723 7.53288 36.1354 7.84923 36.0772 8.15865C36.0578 8.26487 36.0246 8.36924 35.9987 8.47362C35.9479 8.67451 35.8883 8.87125 35.8144 9.06152C35.771 9.17328 35.7239 9.28135 35.6731 9.38894C35.5886 9.56905 35.4939 9.7427 35.3905 9.91034C35.3314 10.0064 35.2736 10.1029 35.2085 10.1953C35.1808 10.2336 35.1466 10.2659 35.1175 10.3043C35.1157 8.91607 34.3999 7.62245 33.2528 6.86557C33.4453 6.5035 33.5659 6.09388 33.5659 5.65518C33.5659 4.22949 32.4053 3.06899 30.9797 3.06899C29.554 3.06899 28.3935 4.22954 28.3935 5.65518C28.3935 5.75123 28.3995 5.84499 28.4097 5.94012C28.4471 6.27633 28.5478 6.59129 28.6988 6.87345C27.5701 7.62345 26.8602 8.89109 26.8418 10.2577C26.6183 9.95794 26.4396 9.63236 26.2862 9.29385C26.2327 9.17194 26.1791 9.04955 26.1348 8.92209C26.0955 8.81264 26.0586 8.70272 26.0276 8.59097C25.9551 8.32819 25.8928 8.05987 25.8618 7.78047C25.8401 7.59158 25.8277 7.4004 25.8277 7.20689C25.8277 4.3547 28.1478 2.03447 31 2.03447ZM30.9796 4.10342C31.8354 4.10342 32.5314 4.79984 32.5314 5.65513C32.5314 6.05322 32.3757 6.41436 32.1273 6.68961L32.1254 6.69145C31.7777 7.07522 31.2678 7.23039 30.7838 7.17036C30.7145 7.16112 30.648 7.15189 30.5815 7.13388C30.4831 7.10802 30.3866 7.07338 30.2947 7.02904C30.2028 6.98332 30.1146 6.9316 30.0343 6.86925C29.9793 6.82815 29.929 6.78289 29.8805 6.73209C29.6459 6.49195 29.4755 6.18575 29.4362 5.82877C29.4307 5.77197 29.4279 5.71424 29.4279 5.65512C29.4279 4.79983 30.1244 4.10342 30.9796 4.10342ZM7.20684 5.13789C3.78386 5.13789 1 7.92175 1 11.3447C1 11.5766 1.01339 11.8042 1.03833 12.0296C1.07574 12.3681 1.14917 12.6988 1.24246 13.0239C1.26416 13.0992 1.28125 13.1777 1.3048 13.2521C1.38978 13.5098 1.49508 13.7596 1.61422 14.0034C1.68257 14.1475 1.75462 14.2865 1.83451 14.4237C1.88301 14.5068 1.93842 14.5858 1.99015 14.6666C2.17534 14.9571 2.38039 15.23 2.61037 15.4845C2.62053 15.496 2.63023 15.5057 2.64039 15.5168C3.77969 16.7638 5.40072 17.5516 7.20685 17.5516C8.50591 17.5516 9.71217 17.1484 10.7102 16.4626C10.7125 16.4603 10.7153 16.4617 10.7185 16.4603C10.7546 16.4359 10.7874 16.4058 10.8234 16.38C10.967 16.2761 11.1074 16.1694 11.2418 16.0544C11.3069 15.9985 11.3697 15.9399 11.4316 15.8807C11.5392 15.7805 11.6422 15.6752 11.7429 15.5676C11.8006 15.5044 11.8606 15.4439 11.9165 15.3797C12.026 15.2513 12.1285 15.1174 12.2278 14.9797C12.2606 14.9331 12.2984 14.8906 12.3308 14.844C12.4601 14.656 12.5788 14.4602 12.6864 14.2584C12.7081 14.2178 12.7242 14.1753 12.745 14.1351C12.8286 13.9693 12.9071 13.7998 12.9755 13.6257C12.9999 13.5638 13.0212 13.501 13.0438 13.4382C13.1006 13.2807 13.15 13.1205 13.1934 12.9593C13.2119 12.89 13.2313 12.8212 13.2479 12.751C13.2863 12.5843 13.3163 12.4167 13.3408 12.2458C13.3505 12.1816 13.3638 12.1193 13.3712 12.0541C13.398 11.8214 13.4137 11.5849 13.4137 11.3448C13.4137 7.9218 10.6298 5.13789 7.20684 5.13789ZM54.7725 5.13789C51.3495 5.13789 48.5657 7.92175 48.5657 11.3447C48.5657 11.5766 48.5772 11.8042 48.6022 12.0296C48.6396 12.3681 48.713 12.6988 48.8063 13.0239C48.828 13.1001 48.846 13.1777 48.871 13.2539C48.9555 13.5116 49.0599 13.7605 49.1781 14.0034C49.2464 14.1484 49.3194 14.2884 49.3984 14.426C49.4445 14.5068 49.499 14.5839 49.5498 14.6624C49.736 14.9552 49.9433 15.2309 50.1742 15.4868C50.1844 15.4979 50.1941 15.5076 50.2042 15.5191C51.3431 16.7646 52.9654 17.5515 54.7726 17.5515C56.0721 17.5515 57.2779 17.1474 58.276 16.4626C58.2783 16.4616 58.282 16.4616 58.2843 16.4603C58.3175 16.4376 58.3452 16.4118 58.3771 16.3878C58.5249 16.2811 58.6699 16.1702 58.8075 16.0525C58.8708 15.9975 58.9304 15.9407 58.9913 15.8848C59.1012 15.7832 59.2061 15.6761 59.3086 15.5676C59.3663 15.5052 59.4236 15.4457 59.4781 15.3815C59.5889 15.2531 59.6933 15.1191 59.7935 14.9815C59.8267 14.9349 59.8623 14.8919 59.8946 14.8439C60.023 14.6559 60.1426 14.4601 60.2502 14.2583C60.2719 14.2177 60.289 14.1752 60.3089 14.135C60.3925 13.9692 60.4696 13.8016 60.5389 13.6279C60.5638 13.5647 60.5851 13.5018 60.6077 13.4381C60.6636 13.2816 60.7139 13.1222 60.7573 12.961C60.7758 12.8918 60.7952 12.8225 60.8118 12.7509C60.8501 12.5856 60.8797 12.4157 60.9046 12.2457C60.9139 12.1806 60.9268 12.1192 60.9351 12.054C60.9619 11.8213 60.9795 11.5848 60.9795 11.3447C60.9795 7.92171 58.1955 5.13789 54.7725 5.13789ZM7.20684 6.17237C10.059 6.17237 12.3792 8.49254 12.3792 11.3447C12.3792 11.6708 12.3423 11.9871 12.2841 12.2965C12.2647 12.4028 12.2314 12.5071 12.2056 12.6115C12.1548 12.8124 12.0952 13.0091 12.0213 13.1994C11.9779 13.3112 11.9308 13.4192 11.88 13.5268C11.7955 13.7069 11.7008 13.8806 11.5974 14.0482C11.5382 14.1443 11.4805 14.2408 11.4154 14.3332C11.3877 14.3715 11.3535 14.4038 11.3244 14.4422C11.3226 13.054 10.6068 11.7603 9.45965 11.0035C9.65407 10.64 9.77275 10.2318 9.77275 9.79307C9.77275 8.36739 8.61221 7.20689 7.18657 7.20689C5.76089 7.20689 4.60039 8.36744 4.60039 9.79307C4.60039 9.88913 4.60639 9.98288 4.61655 10.078C4.65396 10.4142 4.75464 10.7292 4.90565 11.0114C3.77696 11.7613 3.06948 13.029 3.05057 14.3956C2.82751 14.0958 2.64647 13.7703 2.49316 13.4317C2.43728 13.3089 2.38417 13.1856 2.33937 13.0581C2.30012 12.9487 2.26363 12.8406 2.23269 12.7288C2.16019 12.4661 2.09784 12.1978 2.0669 11.9188C2.04612 11.7304 2.03458 11.5383 2.03458 11.3448C2.03458 8.49258 4.35465 6.17237 7.20684 6.17237ZM54.7725 6.17237C57.6247 6.17237 59.9449 8.49254 59.9449 11.3447C59.9449 11.6708 59.9061 11.9871 59.8479 12.2965C59.8285 12.4042 59.7962 12.5062 59.769 12.6115C59.7186 12.811 59.6609 13.0091 59.5875 13.1994C59.544 13.3121 59.4946 13.4202 59.4438 13.5287C59.3602 13.707 59.2665 13.8797 59.163 14.0459C59.103 14.1434 59.0453 14.2417 58.9792 14.335C58.9511 14.3734 58.916 14.4057 58.8883 14.444C58.8864 13.0549 58.1706 11.7617 57.0235 11.0034C57.2179 10.64 57.3385 10.2336 57.3385 9.7948C57.3385 8.36959 56.1779 7.20861 54.7523 7.20861C53.3271 7.20861 52.1661 8.36962 52.1661 9.7948C52.1661 9.89224 52.1702 9.98784 52.1804 10.0797C52.2178 10.416 52.3194 10.7291 52.4695 11.0112C51.3408 11.7612 50.6333 13.0289 50.6144 14.3954C50.3914 14.0957 50.2099 13.7701 50.057 13.4316C50.003 13.3097 49.9499 13.1873 49.9055 13.0599C49.8663 12.9504 49.8303 12.8405 49.7984 12.7287C49.7259 12.466 49.6617 12.1976 49.6308 11.9187C49.61 11.7303 49.6003 11.5382 49.6003 11.3447C49.6003 8.49247 51.9203 6.17237 54.7725 6.17237ZM29.3694 7.66958C29.8132 8.02425 30.3706 8.2413 30.9798 8.2413C31.4185 8.2413 31.8258 8.1217 32.1879 7.9282C32.2138 7.9148 32.2378 7.90002 32.2627 7.88571C32.3602 7.82983 32.4548 7.77025 32.5435 7.7019C32.5592 7.69036 32.5768 7.68204 32.592 7.66958C33.5087 8.2293 34.0832 9.23145 34.0832 10.3103C34.0832 10.7259 33.9802 11.1383 33.8005 11.5429C32.9914 12.0661 32.0337 12.3792 31 12.3792C29.9388 12.3792 28.9546 12.0476 28.1289 11.4962C28.007 11.2076 27.9243 10.93 27.8943 10.6516C27.8823 10.5398 27.8763 10.4262 27.8763 10.3103C27.8763 9.2324 28.4532 8.22926 29.3694 7.66958ZM7.18674 8.2413C8.0425 8.2413 8.73846 8.93772 8.73846 9.79301C8.73846 10.1911 8.58282 10.5522 8.33436 10.8275L8.33251 10.8293C7.98476 11.2131 7.47492 11.3683 6.99089 11.3082C6.92162 11.299 6.85512 11.2884 6.78862 11.2699C6.69025 11.2441 6.59604 11.2094 6.50367 11.1651C6.41177 11.1194 6.32403 11.0695 6.24321 11.0071C6.18825 10.966 6.13607 10.9185 6.08757 10.8677C5.85297 10.628 5.68256 10.3236 5.64331 9.96666C5.63684 9.91078 5.63499 9.85213 5.63499 9.79301C5.63499 8.93772 6.33145 8.2413 7.18674 8.2413ZM54.7524 8.2413C55.6082 8.2413 56.3041 8.93772 56.3041 9.79301C56.3032 10.1911 56.1467 10.5522 55.8982 10.8275L55.8964 10.8293C55.5486 11.2131 55.0388 11.3683 54.5547 11.3082C54.4864 11.299 54.4199 11.2898 54.3548 11.2722C54.255 11.2459 54.1576 11.2094 54.0657 11.1651C53.9747 11.1194 53.8888 11.0695 53.8089 11.0071C53.7544 10.966 53.7022 10.9194 53.6533 10.87C53.4187 10.6298 53.2483 10.3209 53.209 9.9625C53.2025 9.90708 53.2007 9.85074 53.2007 9.79301C53.2007 8.93772 53.8971 8.2413 54.7524 8.2413ZM5.57651 11.8075C6.02032 12.1621 6.57774 12.3792 7.18686 12.3792C7.62559 12.3792 8.03291 12.2596 8.39501 12.0661C8.42087 12.0527 8.44489 12.0379 8.46982 12.0236C8.56727 11.9677 8.66194 11.9081 8.75061 11.8398C8.76631 11.8282 8.78386 11.8199 8.7991 11.8075C9.71581 12.3672 10.2903 13.3693 10.2903 14.4481C10.2903 14.8638 10.1873 15.2762 10.0077 15.6808C9.19854 16.204 8.24077 16.5171 7.20712 16.5171C6.14586 16.5171 5.1617 16.1855 4.33601 15.6341C4.2141 15.3455 4.13143 15.0679 4.10187 14.7894C4.0894 14.6777 4.0834 14.5641 4.0834 14.4482C4.0834 13.3703 4.66025 12.3671 5.57651 11.8075ZM53.1398 11.8075C53.5836 12.1621 54.1411 12.3792 54.7502 12.3792C55.1899 12.3792 55.5972 12.2587 55.9606 12.0638C55.9851 12.0504 56.0114 12.0379 56.0354 12.0236C56.1324 11.9677 56.2252 11.9081 56.3139 11.8398C56.3296 11.8282 56.3471 11.8199 56.3624 11.8074C57.2791 12.3672 57.8535 13.3693 57.8535 14.4481C57.8535 14.8638 57.7506 15.2771 57.5705 15.6808C56.7618 16.2049 55.8049 16.5171 54.7723 16.5171C53.7101 16.5171 52.7269 16.1855 51.9012 15.6341C51.7793 15.3464 51.6961 15.0688 51.6647 14.7917C51.6523 14.6791 51.6467 14.565 51.6467 14.4482C51.6467 13.3703 52.2231 12.3671 53.1398 11.8075ZM27.8963 14.438C27.6109 14.438 27.3791 14.6698 27.3791 14.9552V17.0242C27.3791 17.3096 27.6109 17.5414 27.8963 17.5414C28.1817 17.5414 28.4136 17.3096 28.4136 17.0242V14.9552C28.4136 14.6698 28.1817 14.438 27.8963 14.438ZM34.1032 14.438C33.8178 14.438 33.5859 14.6698 33.5859 14.9552V17.0242C33.5859 17.3096 33.8178 17.5414 34.1032 17.5414C34.3886 17.5414 34.6204 17.3096 34.6204 17.0242V14.9552C34.6204 14.6698 34.3886 14.438 34.1032 14.438ZM29.9653 15.4725C29.6799 15.4725 29.448 15.7043 29.448 15.9897V17.0242C29.448 17.3096 29.6799 17.5414 29.9653 17.5414C30.2507 17.5414 30.4825 17.3096 30.4825 17.0242V15.9897C30.4825 15.7043 30.2507 15.4725 29.9653 15.4725ZM32.0342 15.4725C31.7488 15.4725 31.517 15.7043 31.517 15.9897V17.0242C31.517 17.3096 31.7488 17.5414 32.0342 17.5414C32.3196 17.5414 32.5515 17.3096 32.5515 17.0242V15.9897C32.5515 15.7043 32.3196 15.4725 32.0342 15.4725ZM10.8612 18.0245C10.7291 18.0245 10.5966 18.0748 10.4954 18.1759C10.2941 18.3777 10.2941 18.7056 10.4954 18.9075L11.9585 20.37C12.0587 20.4702 12.1917 20.5215 12.3242 20.5215C12.4563 20.5215 12.5884 20.4702 12.69 20.37C12.8914 20.1682 12.8914 19.8403 12.69 19.6385L11.227 18.1759C11.1263 18.0748 10.9937 18.0245 10.8612 18.0245ZM50.689 18.0245C50.5569 18.0245 50.4244 18.0748 50.3233 18.1759L48.8607 19.6385C48.6589 19.8403 48.6589 20.1682 48.8607 20.37C48.9618 20.4716 49.0939 20.5215 49.2265 20.5215C49.3585 20.5215 49.4906 20.4702 49.5922 20.37L51.0548 18.9075C51.2566 18.7047 51.2575 18.3777 51.0548 18.1759C50.9541 18.0748 50.8216 18.0245 50.689 18.0245ZM44.9592 18.4729C44.4956 18.4304 44.0494 18.5967 43.7248 18.9213L38.6046 24.0433C38.2915 24.3569 38.1262 24.7915 38.152 25.2334C38.1534 25.25 38.1631 25.2634 38.1645 25.2796C38.1663 25.292 38.1613 25.3059 38.1645 25.3179C38.1686 25.3359 38.1793 25.3479 38.1843 25.3645C38.2333 25.6915 38.3668 26.0005 38.6028 26.2374L41.5303 29.163C41.8323 29.465 42.2295 29.6156 42.6275 29.6156C43.0256 29.6156 43.4214 29.465 43.7248 29.163L48.8463 24.0432C49.1391 23.7504 49.2989 23.3607 49.2989 22.946C49.2989 22.5322 49.1391 22.1405 48.8463 21.8468L45.9188 18.9212C45.6602 18.6635 45.319 18.5048 44.9592 18.4729ZM16.5922 18.4771C16.2301 18.508 15.8911 18.6659 15.6325 18.9236L12.7045 21.8511C12.1005 22.4561 12.1005 23.4411 12.7045 24.0453L17.8266 29.1631C18.1193 29.4559 18.5087 29.618 18.9238 29.6176C19.3372 29.6176 19.7269 29.4559 20.0206 29.1631L22.9462 26.2375C23.1822 26.0015 23.3171 25.6935 23.3665 25.367C23.373 25.3504 23.3827 25.3361 23.3868 25.3181C23.3901 25.306 23.3845 25.2945 23.3868 25.282C23.3878 25.2654 23.3979 25.2502 23.3988 25.2335C23.4247 24.7907 23.2598 24.3565 22.9463 24.0453L17.8265 18.9237C17.5018 18.5977 17.0493 18.4387 16.5922 18.4771ZM28.9314 18.5962C28.5684 18.5962 28.2156 18.725 27.9371 18.9578C27.5833 19.2538 27.3797 19.6875 27.3797 20.1479V27.3892C27.3797 27.833 27.5709 28.2569 27.9029 28.5507C27.9154 28.5622 27.932 28.5636 27.9454 28.5751C27.9556 28.5825 27.9593 28.595 27.9694 28.6015C27.9791 28.6075 27.9907 28.6042 27.9999 28.6093C28.2687 28.8153 28.5901 28.9409 28.9314 28.9409H33.0693C33.9246 28.9409 34.621 28.2445 34.621 27.3892V20.1479C34.621 19.2921 33.9246 18.5962 33.0693 18.5962L28.9314 18.5962ZM8.6687 18.7555C8.53616 18.7555 8.40408 18.8059 8.30294 18.9075C8.10112 19.1088 8.10112 19.4372 8.30294 19.6385L10.4971 21.8349C10.5987 21.9365 10.7326 21.9846 10.8652 21.9846C10.9972 21.9846 11.1293 21.9351 11.2309 21.8349C11.4323 21.6331 11.4323 21.3052 11.2309 21.1034L9.03453 18.9075C8.93293 18.8059 8.80125 18.7555 8.6687 18.7555ZM52.8839 18.7555C52.7518 18.7555 52.6193 18.8063 52.5186 18.9075L50.3241 21.1034C50.1227 21.3052 50.1227 21.6331 50.3241 21.8349C50.4248 21.9351 50.5578 21.9845 50.6899 21.9845C50.8224 21.9845 50.9545 21.9351 51.0556 21.8349L53.2498 19.6385C53.4516 19.4372 53.4516 19.1088 53.2498 18.9075C53.1491 18.8063 53.0164 18.7555 52.8839 18.7555ZM29.1596 19.6307H33.0693C33.3547 19.6316 33.5865 19.8625 33.5865 20.1479V27.3892C33.5865 27.6746 33.3547 27.9065 33.0693 27.9065H29.0201L30.871 24.9767C31.3767 24.1759 31.3767 23.141 30.871 22.3379L29.1596 19.6307ZM16.2009 19.8163L16.9079 22.9423C17.1171 23.8669 17.8491 24.598 18.7727 24.8071L22.1509 25.5705L19.2899 28.4314C19.0946 28.6272 18.7542 28.6272 18.5589 28.4314L13.4368 23.3117C13.235 23.1099 13.235 22.782 13.4368 22.5801L16.2009 19.8163ZM45.3494 19.8163L48.1134 22.5803C48.2108 22.6787 48.2648 22.8075 48.2648 22.9461C48.2648 23.0846 48.2108 23.2135 48.1134 23.3119L42.9936 28.4339C42.7918 28.6357 42.4639 28.6343 42.2621 28.4339L39.3993 25.5706L42.7774 24.8072C43.702 24.598 44.4345 23.866 44.6422 22.9424L45.3494 19.8163ZM17.2625 19.8223L21.8895 24.4493L19.0003 23.7968C18.4623 23.6758 18.036 23.2486 17.915 22.712L17.2625 19.8223ZM44.2865 19.8223L43.634 22.7119C43.513 23.2485 43.089 23.6757 42.551 23.7967L39.6615 24.4492L44.2865 19.8223ZM28.4136 20.3862L29.9953 22.8897C30.2895 23.3562 30.2895 23.9598 29.9953 24.4253L28.4136 26.9306V20.3862ZM31.0016 30.9997C28.1499 30.9997 25.8293 33.3198 25.8293 36.172H17.0362C15.611 36.172 14.4501 37.3326 14.4501 38.7582V55.8276H12.8983C12.6129 55.8276 12.3811 56.0595 12.3811 56.3449V57.3793C12.3811 59.3758 14.0053 61 16.0018 61H46.0015C47.998 61 49.6222 59.3758 49.6222 57.3793V56.3449C49.6222 56.0595 49.3903 55.8276 49.1049 55.8276H47.5532V38.7582C47.5532 37.3325 46.3927 36.172 44.967 36.172H36.174C36.174 33.3198 33.8538 30.9997 31.0016 30.9997ZM30.9998 32.0341C33.2817 32.0341 35.1377 33.8902 35.1377 36.172C35.1377 38.4539 33.2817 40.3099 30.9998 40.3099C28.8865 40.3099 27.1177 38.7277 26.8859 36.6287C26.8706 36.4787 26.8619 36.3263 26.8619 36.172C26.8619 33.8901 28.7189 32.0341 30.9998 32.0341ZM30.9998 33.0686C29.2887 33.0686 27.8964 34.461 27.8964 36.172C27.8964 36.287 27.9019 36.4006 27.9144 36.5133C27.9435 36.7784 28.1679 36.9742 28.4298 36.9742C28.4482 36.9742 28.4658 36.9742 28.4843 36.9724C28.7687 36.9423 28.9761 36.686 28.9452 36.4025C28.9368 36.3258 28.9308 36.2496 28.9308 36.172C28.9308 35.0309 29.8586 34.1031 30.9998 34.1031C31.2852 34.1031 31.517 33.8713 31.517 33.5859C31.517 33.3004 31.2852 33.0686 30.9998 33.0686ZM17.0362 37.2065H25.9544C26.0283 37.5677 26.135 37.9131 26.2777 38.241H17.0362C16.7508 38.241 16.519 38.4728 16.519 38.7582V54.2753C16.519 54.5607 16.7508 54.7926 17.0362 54.7926H44.967C45.2524 54.7926 45.4842 54.5607 45.4842 54.2753V38.7582C45.4842 38.4728 45.2524 38.241 44.967 38.241H35.7357C35.8803 37.9122 35.9957 37.5677 36.0691 37.2065H44.967C45.8228 37.2065 46.5187 37.9029 46.5187 38.7582V55.8276H15.4845V38.7582C15.4845 37.9029 16.1809 37.2065 17.0362 37.2065ZM35.1129 39.2736C35.1142 39.2736 35.1152 39.2754 35.117 39.2754H44.4495V53.758H17.5532V39.2754H26.8676C27.5058 40.1256 28.399 40.7537 29.4298 41.0815L29.4455 42.3788C29.1624 42.3807 28.9324 42.6097 28.9324 42.8942V48.5857C28.9324 49.7269 29.8607 50.6547 31.0013 50.6547C32.1425 50.6547 33.0703 49.7269 33.0703 48.5857V42.8961C33.0703 42.6107 32.8385 42.3789 32.5531 42.3789H32.5489L32.5332 41.0857C33.5728 40.7597 34.4696 40.1238 35.1129 39.2736ZM30.466 41.294C30.6429 41.3125 30.8174 41.3444 30.9994 41.3444C31.1712 41.3444 31.3328 41.3102 31.5005 41.294L31.5125 42.3789H30.478L30.466 41.294ZM29.9649 43.4134H32.0339V48.5857C32.0339 49.1556 31.5693 49.6202 30.9994 49.6202C30.4295 49.6202 29.9649 49.1556 29.9649 48.5857V43.4134ZM13.4157 56.8615H26.8639V58.4132C26.8639 58.6986 27.0957 58.9305 27.3811 58.9305H34.6224C34.9078 58.9305 35.1397 58.6986 35.1397 58.4132V56.8615H48.5878V57.3787C48.5878 58.8044 47.4273 59.9649 46.0016 59.9649H16.0019C14.5767 59.9649 13.4157 58.8044 13.4157 57.3787V56.8615ZM27.8983 56.8615H34.1052V57.896H27.8983V56.8615Z" fill="#0CB4C4" stroke="#0CB4C4" stroke-width="0.3"></path></svg>