<svg width="58" height="60" viewBox="0 0 58 60" fill="none" xmlns="http://www.w3.org/2000/svg"><path d="M17.1811 12.316C17.0041 12.4259 16.7896 12.4608 16.5884 12.4099C16.3873 12.3589 16.2129 12.2302 16.111 12.0505C16.0064 11.8708 15.9796 11.6562 16.0359 11.455C16.0949 11.2566 16.229 11.0876 16.4141 10.9911C16.8191 10.7577 17.2321 10.5351 17.6532 10.3232C18.0743 10.1113 18.498 9.91287 18.9245 9.72782C19.3107 9.55885 19.7613 9.73586 19.9302 10.1221C20.0992 10.5083 19.9222 10.9589 19.536 11.1278C19.1337 11.3021 18.7421 11.4899 18.3424 11.6857C17.9455 11.8815 17.5647 12.0933 17.1865 12.3133L17.1811 12.316ZM26.19 8.82936C26.0479 8.68185 25.9728 8.48338 25.9781 8.27955C25.9862 8.07303 26.0747 7.87992 26.2249 7.74314C26.3751 7.60367 26.5735 7.53126 26.7774 7.54199C26.9839 7.55003 27.1743 7.64122 27.3111 7.7941L28.2418 8.80525L30.1487 6.89836C30.4491 6.59797 30.9345 6.59797 31.2322 6.89836C31.5326 7.19606 31.5326 7.6815 31.2322 7.98188L28.7379 10.4762L28.7406 10.4735C28.4268 10.7605 27.9413 10.739 27.6571 10.4279L26.19 8.82936ZM28.7192 3.95341C30.9694 3.95341 32.9058 5.54117 33.3457 7.74845C33.7855 9.95572 32.6055 12.1657 30.5268 13.0267C28.4483 13.8903 26.0506 13.1635 24.8007 11.2941C23.5482 9.42203 23.7923 6.93043 25.3827 5.33732C26.2652 4.44954 27.4667 3.95073 28.7192 3.95341ZM30.9694 6.42084C29.8965 5.34535 28.2096 5.17638 26.9463 6.02122C25.6803 6.86608 25.1896 8.48597 25.7716 9.89137C26.3509 11.2968 27.8448 12.096 29.336 11.7983C30.8299 11.5006 31.9027 10.1918 31.9027 8.67101C31.9027 7.82615 31.5675 7.01619 30.9694 6.42084ZM32.2138 1.99818L32.6108 1.79434C33.2035 1.49395 33.925 1.60928 34.3943 2.07863L35.3142 2.99854V3.00122C35.5449 3.22919 35.6978 3.52422 35.7487 3.8434C35.797 4.16525 35.746 4.49245 35.5985 4.78212L35.3947 5.17906C35.3947 5.18979 35.3893 5.17906 35.3893 5.17906H35.3947C35.502 5.38557 35.5985 5.58941 35.679 5.78788C35.7648 5.9944 35.8426 6.20628 35.9096 6.42084L36.3388 6.56031H36.3361C36.9717 6.76146 37.4009 7.35147 37.3955 8.01665V9.32009C37.3982 9.98523 36.9691 10.5753 36.3361 10.7791L35.9123 10.9159H35.907C35.8399 11.1331 35.7621 11.3397 35.6763 11.5489C35.5905 11.7554 35.4993 11.9458 35.392 12.1577C35.392 12.1604 35.3866 12.1577 35.3866 12.1577L35.392 12.1604L35.5958 12.5627V12.56C35.7407 12.8496 35.7943 13.1769 35.746 13.496C35.6951 13.8152 35.5422 14.1129 35.3116 14.3409L34.3943 15.2662C34.1664 15.4942 33.8713 15.6471 33.5495 15.698C33.2303 15.7517 32.9004 15.698 32.6107 15.5478L32.2138 15.3467C32.2084 15.3386 32.2138 15.3386 32.2138 15.3386C32.0073 15.4486 31.8035 15.5425 31.6077 15.6283C31.4012 15.7114 31.1893 15.7892 30.972 15.8563L30.8326 16.2854C30.736 16.5965 30.5402 16.8647 30.2774 17.0578C30.0146 17.2456 29.7008 17.3475 29.3762 17.3475H28.0755C27.4076 17.3502 26.8176 16.9183 26.6138 16.2827L26.477 15.8536H26.4743C26.2571 15.7865 26.0505 15.7087 25.8413 15.6256C25.6482 15.5425 25.4444 15.4486 25.2352 15.3359L25.2325 15.344L24.8302 15.5451L24.8329 15.5478C24.5459 15.698 24.2187 15.7517 23.8969 15.698C23.5777 15.6444 23.2827 15.4942 23.052 15.2635L22.124 14.3463C21.652 13.8769 21.5393 13.1581 21.8424 12.5654L22.0462 12.1631C22.0489 12.1577 22.0489 12.1631 22.0489 12.1604C22.0489 12.1577 22.0489 12.1631 22.0462 12.1604C21.9416 11.9593 21.8451 11.7554 21.7619 11.5516C21.6761 11.3451 21.5983 11.1332 21.5313 10.9186L21.1075 10.7818V10.7845C20.4745 10.578 20.0454 9.99068 20.0454 9.32283V8.02206C20.0454 7.35692 20.4745 6.76957 21.1075 6.56572L21.5366 6.42626C21.6037 6.20901 21.6814 5.99713 21.7673 5.79329C21.8504 5.58678 21.9443 5.38294 22.0516 5.18447H22.0543C22.0543 5.18447 22.0543 5.18984 22.0516 5.18447L21.8477 4.78754C21.542 4.19749 21.6573 3.476 22.1267 3.00664L23.0439 2.07863C23.5132 1.60928 24.232 1.49395 24.8248 1.79434L25.2271 1.99817C25.2325 1.99817 25.2271 2.00354 25.2298 2.00354C25.2325 2.00354 25.2271 2.00354 25.2298 2.00354C25.4363 1.89357 25.6401 1.79702 25.8359 1.71388C26.0424 1.62806 26.2543 1.55028 26.4689 1.48322H26.4716L26.6083 1.0541L26.6057 1.05678C26.7076 0.748348 26.9034 0.480149 27.1662 0.289714C27.4264 0.0992923 27.7428 -0.00262629 28.0674 5.14477e-05H29.3681C30.0333 -0.00263041 30.6233 0.426491 30.8245 1.05947L30.9639 1.4886C31.1812 1.55565 31.3931 1.63343 31.5996 1.71925C31.7927 1.79972 31.9965 1.89627 32.2057 2.00892V2.00355L32.2138 1.99818ZM33.3054 3.16217L32.9084 3.36601C32.4659 3.59129 31.9402 3.58862 31.5004 3.35528C31.3555 3.2775 31.1892 3.2024 31.0122 3.12731C30.8486 3.06026 30.6823 3.00125 30.5107 2.94761H30.5134C30.0333 2.80546 29.6578 2.43266 29.5103 1.95527L29.3735 1.53151C29.3735 1.52882 29.3762 1.52882 29.3735 1.52882H28.0728H28.0701V1.53151L27.9306 1.95527H27.9279C27.8555 2.19129 27.7241 2.40316 27.5498 2.5775C27.3754 2.74915 27.1636 2.8752 26.9302 2.94762C26.7586 2.99858 26.5923 3.06026 26.4287 3.13C26.249 3.20241 26.0881 3.28019 25.9406 3.35797V3.35529C25.7233 3.46793 25.4819 3.52962 25.2379 3.5323C24.9938 3.5323 24.7525 3.47598 24.5326 3.36601L24.1356 3.16217V3.15949L24.1329 3.16217L23.2076 4.08208L23.4114 4.48439V4.4817C23.6367 4.92424 23.6341 5.4472 23.4007 5.8871C23.3229 6.03194 23.2478 6.19822 23.1727 6.37524C23.1057 6.53884 23.0467 6.70513 22.993 6.87678V6.87409C22.9233 7.11011 22.7946 7.32467 22.6229 7.49901C22.4486 7.67334 22.2394 7.80208 22.0061 7.87717L21.5769 8.01396V8.01664V9.3174V9.32545L22.0061 9.46223C22.2421 9.53733 22.454 9.66607 22.6256 9.8404C22.7973 10.0147 22.926 10.2293 22.9957 10.4653C23.0494 10.637 23.1084 10.8032 23.1754 10.9669C23.2478 11.1358 23.3203 11.2941 23.4034 11.4469C23.5187 11.6642 23.5804 11.9082 23.5804 12.1523C23.5831 12.3963 23.5268 12.6377 23.4141 12.8549L23.2076 13.2599L24.1275 14.1798H24.1302L24.5271 13.976C24.7471 13.8634 24.9884 13.807 25.2325 13.8097C25.4765 13.8124 25.7179 13.8714 25.9351 13.9867C26.08 14.0645 26.2436 14.1396 26.4233 14.2147C26.5842 14.2817 26.7505 14.3407 26.9248 14.3944C27.1581 14.4668 27.37 14.5929 27.5444 14.7645C27.7187 14.9362 27.8474 15.148 27.9225 15.3787L28.062 15.8078H28.0647H29.3654L29.5022 15.3787H29.5049C29.58 15.148 29.7114 14.9388 29.8831 14.7645C30.0574 14.5929 30.272 14.4668 30.508 14.3944C30.6796 14.3407 30.8459 14.2791 31.0095 14.2147C31.1865 14.1423 31.3501 14.0645 31.4976 13.9867H31.495C31.7122 13.8714 31.9536 13.8097 32.1976 13.8097C32.4417 13.807 32.6858 13.8633 32.903 13.976L33.2999 14.1798H33.3026L34.2225 13.2599L34.0187 12.8576V12.8603C33.906 12.6431 33.8497 12.4017 33.8497 12.1576C33.8524 11.9109 33.9141 11.6695 34.0294 11.4523C34.1072 11.3075 34.1796 11.1439 34.252 10.9668C34.3217 10.8032 34.3834 10.637 34.4371 10.4653C34.5792 9.99059 34.9493 9.61509 35.424 9.46493L35.8478 9.32815V9.3201V8.01934C35.8478 8.01666 35.8505 8.01934 35.8478 8.01666L35.424 7.87988C35.1934 7.80478 34.9815 7.67604 34.8099 7.50171C34.6382 7.32738 34.5095 7.11281 34.4397 6.87679C34.3861 6.70783 34.3244 6.53886 34.2547 6.37525C34.1823 6.19824 34.1099 6.03464 34.0321 5.88712C33.7987 5.44995 33.7934 4.92431 34.0213 4.4844L34.2252 4.0821L33.3054 3.16217L33.3053 3.15951L33.3026 3.16219L33.3054 3.16217ZM33.3081 14.1909V14.1882C33.3081 14.1882 33.3054 14.1909 33.3081 14.1909ZM24.1303 14.1909V14.1882C24.1303 14.1882 24.1276 14.1882 24.1303 14.1909ZM28.7219 46.6059V46.6032C29.9771 46.6032 31.1223 47.3167 31.6748 48.4458C32.2273 49.5722 32.0879 50.916 31.3154 51.9056C31.8706 52.1202 32.3776 52.4474 32.7986 52.8684C33.5845 53.6489 34.0244 54.711 34.027 55.8187V57.6532C34.0244 58.9486 32.9757 59.9973 31.6802 60H25.7637C24.4709 59.9973 23.4196 58.9487 23.4196 57.6532V55.8187C23.4169 54.711 23.8594 53.6489 24.648 52.8684C25.069 52.4474 25.5733 52.1202 26.1311 51.9056C25.3587 50.916 25.2193 49.575 25.7691 48.4458C26.3189 47.3193 27.4668 46.6032 28.7193 46.6032L28.7219 46.6059ZM28.7273 53.1769L27.5982 53.1742C26.1391 53.1769 24.9563 54.3597 24.9483 55.8187V57.6532C24.951 58.1038 25.3158 58.4659 25.7636 58.4685H31.6749C31.8921 58.4685 32.1013 58.3827 32.2542 58.2298C32.407 58.0743 32.4929 57.8678 32.4902 57.6505V55.8187C32.4875 54.3597 31.3047 53.1769 29.8457 53.1742L28.7273 53.1769ZM29.9584 48.6442C29.5453 48.2312 28.9526 48.0515 28.3786 48.1668C27.8047 48.2794 27.3246 48.671 27.102 49.2128C26.8767 49.7519 26.9357 50.3687 27.2602 50.8542C27.5847 51.3423 28.1292 51.6346 28.7139 51.6373H28.7246C29.4326 51.6346 30.071 51.2055 30.3392 50.5511C30.6101 49.8967 30.4599 49.1457 29.9584 48.6442ZM51.9536 34.2256C51.1222 34.2283 50.406 34.8183 50.2478 35.6337C50.0868 36.4517 50.524 37.2671 51.2937 37.5835C52.0635 37.9 52.9486 37.6318 53.4098 36.9398C53.8711 36.2479 53.78 35.3252 53.1926 34.7379C52.8627 34.408 52.4176 34.2256 51.9536 34.2256ZM49.6309 33.6544C50.8566 32.4152 52.836 32.3482 54.1421 33.5015C55.4482 34.6574 55.6253 36.6314 54.5444 37.9992C56.1724 38.6161 57.2506 40.1717 57.2586 41.9123V43.7442C57.2559 45.0369 56.2073 46.0856 54.9118 46.0883H48.9952C47.6998 46.0856 46.6511 45.037 46.6484 43.7442V41.9123C46.6565 40.1716 47.7346 38.6161 49.3626 37.9992C48.3434 36.6905 48.4562 34.8264 49.6309 33.6544ZM53.0773 39.2625H50.8298C49.3681 39.2679 48.188 40.4507 48.1826 41.9124V43.7442C48.1799 43.9614 48.2684 44.1706 48.424 44.3208C48.5742 44.4737 48.7807 44.5595 48.9953 44.5622H54.9092C55.1237 44.5622 55.3302 44.4737 55.4804 44.3208C55.636 44.1706 55.7245 43.9614 55.7218 43.7442V41.9124C55.7164 40.4507 54.5363 39.2678 53.0746 39.2625H53.0773ZM5.30244 34.2257C4.46836 34.2284 3.74956 34.8184 3.58862 35.6391C3.4277 36.4571 3.86755 37.2778 4.63994 37.5943C5.40969 37.9135 6.30014 37.6426 6.76414 36.948C7.22545 36.2507 7.13426 35.328 6.54153 34.7379C6.21433 34.408 5.76644 34.2257 5.30244 34.2257ZM2.9825 33.6544H2.97981C4.20553 32.4153 6.18486 32.3483 7.49098 33.5015C8.79709 34.6575 8.97417 36.6315 7.89328 37.9993C9.52395 38.6108 10.6048 40.1691 10.6075 41.9124V43.7442C10.6048 45.0369 9.55615 46.0857 8.26336 46.0883H2.3468C1.05139 46.0856 0.00267774 45.037 0 43.7442V41.9124C0.00268186 40.1717 1.08352 38.6135 2.71152 37.9993C1.68965 36.6905 1.805 34.8265 2.97704 33.6544L2.9825 33.6544ZM6.42888 39.2625H4.18404C2.72234 39.2679 1.53954 40.4507 1.53418 41.9124V43.7442C1.53687 44.1921 1.90162 44.5542 2.34952 44.5596H8.26073C8.71131 44.5569 9.07338 44.1921 9.07338 43.7442V41.9124C9.06802 40.4507 7.8879 39.2679 6.4262 39.2625H6.42888ZM45.6213 6.79945C46.8765 6.79945 48.0217 7.51557 48.5716 8.64468C49.1214 9.77112 48.9819 11.1149 48.2095 12.1045C49.8375 12.7214 50.9157 14.2797 50.9237 16.0203V17.8521V17.8494C50.9183 19.1448 49.8696 20.1936 48.5742 20.1962H42.663C41.3676 20.1935 40.3189 19.1449 40.3162 17.8494V16.0203C40.3216 14.2796 41.3997 12.7214 43.0304 12.1072C42.258 11.1175 42.1159 9.77386 42.6657 8.64468C43.2182 7.51557 44.3635 6.79945 45.6213 6.79945ZM45.624 13.3704L44.4976 13.3677C43.0385 13.3785 41.8584 14.5612 41.8531 16.0203V17.8521C41.8531 18.0694 41.9389 18.2785 42.0944 18.4314C42.2473 18.5816 42.4512 18.6674 42.6657 18.6701H48.5742C49.0248 18.6674 49.3869 18.3027 49.3896 17.8548V16.0203C49.3869 14.5612 48.2041 13.3758 46.7451 13.3704L45.624 13.3704ZM46.8604 8.84586C46.4447 8.43283 45.8547 8.25581 45.2807 8.36846C44.7094 8.48379 44.2321 8.87536 44.0067 9.41442C43.7814 9.95351 43.8404 10.5677 44.1623 11.0558C44.4841 11.5413 45.0286 11.8363 45.6133 11.8416H45.6267H45.624C46.332 11.8363 46.9677 11.4071 47.2386 10.7527C47.5068 10.101 47.3566 9.34734 46.8578 8.84585L46.8604 8.84586ZM11.8199 6.4374C13.075 6.4374 14.2203 7.15353 14.7728 8.28264C15.3226 9.41175 15.1831 10.7528 14.4107 11.7452C16.036 12.362 17.1142 13.9149 17.1222 15.6529V17.4874C17.1195 18.7855 16.0709 19.8342 14.7728 19.8342H8.86155C7.56882 19.8315 6.5201 18.7829 6.51743 17.4874V15.6582C6.52547 13.9176 7.60363 12.362 9.22894 11.7478C8.45652 10.7582 8.31439 9.41182 8.86419 8.28264C9.41669 7.15353 10.562 6.4374 11.8199 6.4374ZM11.8279 13.0084H10.6961C9.23709 13.0137 8.05696 14.1938 8.0516 15.6529V17.4874C8.04892 17.7046 8.13474 17.9138 8.29031 18.0667C8.44319 18.2196 8.64702 18.3054 8.86158 18.3081H14.7728C15.2234 18.3027 15.5854 17.9407 15.5881 17.4928V15.6582C15.5828 14.1992 14.4026 13.0164 12.9436 13.011L11.8279 13.0084ZM13.059 8.48113C12.6459 8.0681 12.0532 7.8884 11.4792 8.00105C10.9053 8.11369 10.4252 8.50527 10.1999 9.04701C9.97461 9.5861 10.0336 10.203 10.3581 10.6911C10.6827 11.1792 11.2271 11.4715 11.8118 11.4742H11.8279C12.5332 11.4688 13.1689 11.0424 13.4372 10.388C13.708 9.7336 13.5578 8.98262 13.059 8.48113ZM11.8547 22.428H16.0789H16.0762C16.5536 22.4253 17.0096 22.6157 17.3475 22.951C17.6828 23.2889 17.8732 23.7448 17.8705 24.2223V24.7506L20.7832 24.7882L24.6802 22.9429H24.6829C24.8572 22.8598 25.0584 22.8464 25.2434 22.9054L25.6189 23.0019L28.0033 20.6176C28.4995 20.1134 29.1566 19.7969 29.8592 19.7245L33.2762 19.3409C34.1102 19.239 34.9497 19.4884 35.5934 20.0275L39.7506 23.4363C40.0483 22.8168 40.6759 22.4225 41.3652 22.4252H45.5894C46.579 22.4279 47.3836 23.2298 47.3836 24.2195V38.0668C47.381 38.5442 47.1932 39.0002 46.8553 39.3381C46.52 39.6734 46.0641 39.8611 45.5893 39.8611H41.3625C40.8878 39.8611 40.4291 39.6734 40.0939 39.3381C39.8552 39.0967 39.6889 38.7937 39.6111 38.4638L39.477 38.496L39.4797 38.4987C39.831 39.3113 39.7291 40.2501 39.2088 40.9689C38.9701 41.2826 38.6643 41.5428 38.313 41.7225C37.9724 41.8995 37.6022 42.0095 37.2214 42.0497C36.5751 42.1222 35.9234 41.98 35.3682 41.6448C35.1429 42.1087 34.7889 42.5003 34.349 42.7712C34.3034 42.8061 34.2524 42.8329 34.1988 42.8543C33.5846 43.1869 32.8658 43.27 32.1899 43.0877C31.9164 43.0152 31.6535 42.8972 31.4122 42.7444C31.1735 43.2298 30.7926 43.6348 30.3233 43.903C29.4114 44.4287 28.2796 44.3884 27.4079 43.7984C27.1692 44.2704 26.7964 44.662 26.3351 44.9275C26.319 44.9356 26.3029 44.9463 26.2868 44.9543C24.978 45.6758 23.3312 45.2172 22.583 43.9244C22.5749 43.9083 22.5669 43.8949 22.5588 43.8815L18.7503 37.281H17.8679V38.0695C17.8706 38.5443 17.6802 39.0029 17.3449 39.3382C17.007 39.6761 16.5511 39.8638 16.0736 39.8638H11.8548C10.8625 39.8638 10.0605 39.0592 10.0578 38.0695V24.2222C10.0605 23.2299 10.8624 22.428 11.8547 22.428ZM17.8732 29.4841V35.7467H19.1928H19.1901C19.4663 35.7467 19.7185 35.8942 19.8526 36.1302L23.8863 43.1115C23.8917 43.125 23.9024 43.1384 23.9105 43.1518C24.243 43.7177 24.9618 43.9242 25.5438 43.6211L25.5733 43.6023V43.5997C26.1339 43.2725 26.3431 42.5644 26.048 41.9851L23.889 38.2383L25.2086 37.4739L27.8987 42.1272V42.1325C28.0623 42.4115 28.3278 42.6126 28.6389 42.6958C28.9313 42.7762 29.2451 42.744 29.5159 42.6046C29.5481 42.5831 29.5803 42.5644 29.6151 42.5483C30.1381 42.205 30.3205 41.5237 30.0389 40.9632C30.0121 40.9283 29.9906 40.8908 29.9745 40.8532L27.0887 35.854C26.9868 35.6769 26.96 35.4704 27.0109 35.2746C27.0646 35.0788 27.1906 34.9099 27.3676 34.808C27.7324 34.5988 28.199 34.7221 28.4109 35.0896L31.3075 40.113C31.3183 40.1264 31.3236 40.1398 31.3344 40.1532L31.8493 41.0464C32.1899 41.6257 32.9328 41.8241 33.5175 41.4916C33.7965 41.3307 33.9976 41.0651 34.0781 40.7514C34.1612 40.451 34.1237 40.1318 33.9762 39.8582C33.9708 39.8475 33.9654 39.8368 33.9601 39.826L30.68 34.1455H30.6773C30.4815 33.7835 30.6102 33.3275 30.967 33.121C31.3264 32.9118 31.785 33.0271 32.0022 33.3812L35.2823 39.0617C35.2877 39.0751 35.2984 39.0912 35.3064 39.1046L35.7972 39.9601C36.0708 40.3839 36.567 40.6065 37.0659 40.5287C37.2536 40.51 37.4387 40.4563 37.6076 40.3678C37.7552 40.2954 37.8812 40.1908 37.9805 40.0621C38.2218 39.6383 38.1896 39.11 37.9 38.7184L31.6267 27.0517L27.0593 30.128C25.7826 30.9889 24.6964 31.1016 23.8542 30.7932C23.3929 30.6242 22.9933 30.3211 22.7009 29.9269C22.4247 29.5568 22.2316 29.133 22.1377 28.6797C21.8802 27.6391 22.1592 26.5395 22.8779 25.7429L23.3634 25.2575L21.2794 26.2418C21.1748 26.2901 21.0622 26.3142 20.9442 26.3142L17.8705 26.274L17.8732 29.4841ZM16.0789 23.9565H11.8547C11.785 23.9591 11.718 23.986 11.6697 24.0342C11.6214 24.0852 11.5919 24.1523 11.5919 24.222V38.0693C11.5919 38.139 11.6187 38.2034 11.6697 38.2517C11.718 38.3026 11.7823 38.3322 11.8547 38.3322H16.0789H16.0762C16.146 38.3322 16.213 38.3026 16.2613 38.2517C16.3122 38.2061 16.3391 38.139 16.3364 38.0693V24.222C16.3391 24.1523 16.3122 24.0825 16.2613 24.0342C16.213 23.986 16.146 23.9591 16.0762 23.9565H16.0789ZM45.5889 23.9565H41.3621C41.2924 23.9565 41.228 23.986 41.1797 24.0342C41.1288 24.0825 41.0993 24.1496 41.0993 24.222V38.0693C41.1046 38.2115 41.2199 38.3268 41.3621 38.3322H45.5863C45.656 38.3322 45.723 38.3026 45.7713 38.2517C45.8196 38.2034 45.8464 38.139 45.8464 38.0693V24.222C45.8464 24.1523 45.8196 24.0852 45.7713 24.0342C45.7204 23.986 45.656 23.9591 45.5863 23.9565H45.5889ZM32.6026 25.6434L38.9268 37.0636L39.5651 36.9027V25.2656L34.6275 21.2104C34.4639 21.0763 34.2762 20.9743 34.075 20.9127C33.8712 20.8563 33.6566 20.8402 33.4474 20.8671L30.0278 21.2479C29.8508 21.264 29.6765 21.3123 29.5129 21.3874C29.3546 21.4678 29.2098 21.5751 29.0864 21.7012L23.9638 26.8265V26.8292C23.4757 27.4648 23.4569 28.3445 23.9155 29.0043C24.0335 29.1626 24.1944 29.2859 24.3822 29.3583C25.0339 29.4871 25.7098 29.302 26.2059 28.8595L31.4761 25.3111C31.4949 25.2977 31.5163 25.2843 31.5378 25.2736C31.9106 25.0751 32.3746 25.2146 32.5757 25.5847L32.6026 25.6434ZM38.1678 11.2406V11.2433C37.9774 11.1629 37.8272 11.0127 37.7494 10.8196C37.6743 10.6291 37.677 10.4146 37.7602 10.2268C37.846 10.0364 38.0015 9.89159 38.1946 9.81917C38.3904 9.74944 38.605 9.76017 38.7901 9.84867C39.2406 10.0525 39.6644 10.2563 40.056 10.4602C40.4369 10.6586 40.8445 10.8893 41.2844 11.1441V11.1468C41.6465 11.3613 41.7672 11.828 41.5526 12.1901C41.338 12.5548 40.8687 12.6728 40.5066 12.4583C40.1633 12.2544 39.7771 12.0399 39.3507 11.8173C38.943 11.6081 38.5487 11.4123 38.1706 11.2379L38.1678 11.2406ZM49.3251 21.9042C49.2285 21.7218 49.2071 21.5073 49.2687 21.3115C49.3304 21.113 49.4699 20.9494 49.655 20.8555C49.84 20.7644 50.0546 20.7483 50.2504 20.818C50.4462 20.885 50.6044 21.0299 50.6929 21.2149C51.4331 22.6793 52.0259 24.2161 52.4577 25.8012C52.8895 27.3863 53.163 29.0116 53.273 30.653C53.2918 30.8595 53.2274 31.0633 53.0906 31.2216C52.9565 31.3771 52.7661 31.4737 52.5596 31.4871C52.3531 31.4978 52.1492 31.4281 51.9964 31.2886C51.8435 31.1518 51.7523 30.9561 51.7469 30.7495C51.5485 27.6679 50.725 24.6588 49.3251 21.9042ZM46.5331 46.9919C46.804 46.6861 47.2706 46.6486 47.5871 46.9087C47.9036 47.1716 47.9573 47.6329 47.7078 47.96C46.2139 49.7704 44.4707 51.3608 42.5288 52.6777C40.5951 53.9946 38.4817 55.0272 36.2529 55.7433C36.0571 55.8103 35.8452 55.7969 35.6602 55.7057C35.4778 55.6118 35.3383 55.4509 35.274 55.2551C35.2123 55.0567 35.231 54.8448 35.3276 54.6624C35.4242 54.4827 35.5904 54.3459 35.7889 54.2896C39.9916 52.9298 43.7198 50.398 46.5307 46.989L46.5331 46.9919ZM21.9789 54.3913C22.3812 54.5147 22.6092 54.9412 22.4858 55.3435C22.3651 55.7484 21.9387 55.9764 21.5337 55.853C16.9045 54.4369 12.7954 51.6879 9.72216 47.9489C9.58269 47.7934 9.51564 47.5895 9.53173 47.383C9.54783 47.1765 9.64706 46.9834 9.80798 46.852C9.9689 46.7205 10.1754 46.6615 10.3819 46.6857C10.5885 46.7098 10.7762 46.8171 10.8996 46.9834C13.7854 50.4861 17.6392 53.0611 21.9789 54.3913ZM5.70447 30.5773C5.67496 30.9984 5.30753 31.3149 4.88645 31.2854C4.46537 31.2558 4.14623 30.8911 4.17568 30.47C4.4278 27.0424 5.39866 23.7086 7.02397 20.6805C7.22781 20.3211 7.68375 20.1897 8.04851 20.3855C8.41596 20.5839 8.5581 21.0345 8.37036 21.4047C6.84425 24.2396 5.93509 27.3645 5.70447 30.5773Z" fill="#0CB4C4"></path></svg>