<svg width="53" height="60" viewBox="0 0 53 60" fill="none" xmlns="http://www.w3.org/2000/svg"><path d="M51.5473 14.7L49.8435 12.9962C49.4661 12.6165 48.9528 12.4055 48.4185 12.4079H48.4138C47.8817 12.4055 47.3708 12.6188 46.9958 12.9962L45.8122 14.1798C45.8028 14.1892 45.7934 14.1962 45.784 14.2056C45.7747 14.2149 45.7676 14.2243 45.7582 14.2337L43.8387 16.1532H43.8364C43.1614 15.3095 42.4184 14.5219 41.6168 13.7954V0.820318C41.6168 0.602349 41.5301 0.393752 41.3754 0.239065C41.2231 0.0867184 41.0122 0 40.7942 0H21.2755C21.0575 0 20.8489 0.0867184 20.6942 0.239065L14.5466 6.3915C14.3919 6.54618 14.3052 6.75478 14.3052 6.97275V10.6501C11.0755 12.5908 8.48799 15.4408 6.87056 18.8437C4.93693 22.8117 4.09087 27.6284 4.35571 33.1616L0.366647 38.9343C-0.0692909 39.5625 -0.120855 40.3804 0.235397 41.0578C0.591648 41.7351 1.29242 42.1593 2.05887 42.1593H4.6675L4.66515 49.2328C4.66984 52.5258 7.33703 55.193 10.6277 55.1953H17.7197L17.7994 59.1938V59.1961C17.8088 59.6438 18.1744 60 18.6221 60H39.894C40.1119 60 40.3205 59.9133 40.4752 59.7609C40.6276 59.6062 40.7143 59.3977 40.7143 59.1797V46.3192C48.8401 35.512 48.7135 27.2385 47.0377 22.0545L51.5471 17.5451C52.3323 16.7576 52.3323 15.4849 51.5471 14.6974L51.5473 14.7ZM48.4185 14.0485H48.4161C48.5169 14.0485 48.6106 14.086 48.681 14.1563L50.3872 15.8626C50.4552 15.9306 50.4951 16.0243 50.4951 16.1228C50.4951 16.2212 50.4552 16.3173 50.3849 16.3876L49.7544 17.0181L47.5208 14.7868L48.1536 14.154H48.156C48.2239 14.086 48.3177 14.0462 48.4161 14.0438L48.4185 14.0485ZM38.753 28.0196L36.5194 25.7859C41.235 21.0679 42.2663 20.039 46.363 15.9447L48.5967 18.176L38.753 28.0196ZM35.767 27.3563L37.1827 28.7719L35.2069 29.3297L35.767 27.3563ZM42.6671 17.3182L41.6124 18.3706V16.0901C41.985 16.4838 42.3366 16.8916 42.6694 17.3159L42.6671 17.3182ZM39.9741 20.0112L34.7756 25.2097L34.7779 25.2073C34.6771 25.3058 34.6045 25.43 34.567 25.5636L33.2287 30.2933V30.2956C33.1584 30.5417 33.2076 30.8089 33.3623 31.0128C33.5193 31.2191 33.7607 31.3386 34.0186 31.3386C34.0936 31.3386 34.1686 31.3292 34.2412 31.3081L38.9756 29.9698C39.1092 29.9323 39.2334 29.8597 39.3319 29.7589L39.974 29.1167V34.0292H15.9433V7.79291H21.2754C21.7277 7.79291 22.0957 7.42494 22.0957 6.97259V1.64054H39.9764L39.9741 20.0112ZM17.1038 6.14994L20.4553 2.79838V6.14994H17.1038ZM39.2427 45.5461H39.245C39.1349 45.6891 39.0763 45.8625 39.0763 46.043V58.3593H19.4262L19.3465 54.3608C19.3371 53.9131 18.9715 53.5569 18.5262 53.5569H10.6277C8.24408 53.5522 6.31285 51.6209 6.30817 49.235V41.339C6.30817 41.121 6.2238 40.9124 6.0691 40.7577C5.91442 40.603 5.70347 40.5163 5.48551 40.5163H2.05895C1.90426 40.5187 1.76129 40.4343 1.68863 40.296C1.61832 40.1601 1.6277 39.9937 1.71676 39.8671L5.86524 33.8671C5.96837 33.7171 6.01992 33.539 6.01055 33.3561C5.49492 23.9061 8.42928 16.6005 14.3026 12.5948V34.8489C14.3026 35.3036 14.6706 35.6693 15.1229 35.6693H40.794C41.012 35.6693 41.2206 35.5849 41.3753 35.4302C41.5276 35.2755 41.6144 35.0669 41.6144 34.849V27.4755L45.7159 23.374C47.0238 28.2513 46.6816 35.7562 39.2425 45.5483L39.2427 45.5461ZM37.1614 11.1348C37.6043 11.1465 37.9582 11.5098 37.9582 11.9551C37.9582 12.4004 37.6043 12.7637 37.1614 12.7754H18.7605C18.3152 12.7637 17.9613 12.4004 17.9613 11.9551C17.9613 11.5098 18.3152 11.1465 18.7605 11.1348H37.1614ZM37.9817 17.3574C37.9817 17.5754 37.895 17.784 37.7426 17.9386C37.5879 18.0933 37.3794 18.1801 37.1614 18.1801H18.7605C18.3152 18.1683 17.9613 17.8027 17.9613 17.3597C17.9613 16.9144 18.3152 16.5511 18.7605 16.5394H37.1614C37.6137 16.5394 37.9794 16.905 37.9817 17.3574ZM31.8905 22.7574H31.8881C31.8905 22.9754 31.8038 23.184 31.6491 23.3387C31.4967 23.4934 31.2858 23.5801 31.0678 23.5801H18.7605C18.3152 23.5684 17.9613 23.2027 17.9613 22.7598C17.9613 22.3144 18.3152 21.9511 18.7605 21.9394H31.0678C31.5202 21.9394 31.8858 22.3074 31.8858 22.7574L31.8905 22.7574ZM31.8905 28.1574H31.8881C31.8905 28.3754 31.8038 28.584 31.6491 28.7387C31.4967 28.8934 31.2858 28.9801 31.0678 28.9801H18.7605C18.3152 28.9684 17.9613 28.6028 17.9613 28.1598C17.9613 27.7145 18.3152 27.3512 18.7605 27.3395H31.0678C31.5202 27.3395 31.8835 27.7051 31.8858 28.1551L31.8905 28.1574Z" fill="#0CB4C4"></path></svg>