<svg width="56" height="60" viewBox="0 0 56 60" fill="none" xmlns="http://www.w3.org/2000/svg"><path d="M9.26916 39.7082C8.68475 40.5959 8.27543 41.5897 8.06585 42.6327L6.49262 43.1456L6.50002 45.0098L8.07325 45.5153H8.07079C8.28531 46.5558 8.69958 47.5472 9.29139 48.4324L8.54177 49.9069L9.8635 51.2262L11.3381 50.4667C12.2257 51.056 13.2195 51.4629 14.265 51.6725L14.7804 53.2433L16.647 53.2408L17.1525 51.6676L17.1501 51.6651C18.1931 51.4506 19.1844 51.0388 20.0672 50.447L21.5467 51.1941L22.866 49.8724L22.1089 48.4028V48.4052C22.6958 47.5176 23.1051 46.5262 23.3123 45.4857L24.8855 44.9678L24.8806 43.1086L23.3024 42.5981H23.3049C23.0903 41.5576 22.6761 40.5662 22.0867 39.6835L22.8339 38.2065L21.5196 36.8946L20.0475 37.6443V37.6467C19.1598 37.0598 18.166 36.6505 17.123 36.4434L16.6052 34.8726L14.741 34.88L14.233 36.4483C13.1924 36.6604 12.2011 37.0747 11.3159 37.664L9.83634 36.9169L8.5196 38.2361L9.26916 39.7082ZM26.074 27.0508C26.2614 27.1741 26.3921 27.3664 26.434 27.5883C26.4759 27.8078 26.4241 28.0371 26.2934 28.2196C26.1627 28.4021 25.9605 28.5229 25.7386 28.5525C25.5167 28.5821 25.2923 28.5204 25.1147 28.3799C24.4539 27.9089 23.83 27.3861 23.253 26.814C23.0977 26.6611 23.0089 26.454 23.0089 26.237C23.0064 26.0175 23.0903 25.8079 23.2432 25.6526C23.5613 25.3296 24.0815 25.3271 24.4045 25.6452C24.9248 26.1532 25.4846 26.6242 26.074 27.0508ZM22.4837 23.2977C22.7327 23.6775 22.6267 24.1879 22.2445 24.437C21.8647 24.686 21.3543 24.5775 21.1052 24.1978C20.3901 23.1078 19.8156 21.9341 19.3964 20.7012C19.2509 20.2696 19.4802 19.8036 19.9093 19.6581C20.3384 19.5102 20.8069 19.742 20.9523 20.171C21.3321 21.2733 21.8475 22.3238 22.4837 23.2977ZM20.257 16.9706C20.3039 17.4219 19.9734 17.8263 19.5222 17.8707C19.0709 17.915 18.6665 17.5871 18.6221 17.1333C18.4544 15.464 18.558 13.7773 18.9254 12.1399C18.9723 11.9279 19.103 11.7429 19.2854 11.627C19.4704 11.5087 19.6923 11.4717 19.9044 11.5185C20.3482 11.6172 20.6268 12.0561 20.5282 12.4975C20.2027 13.9647 20.1115 15.4738 20.257 16.9706ZM26.4883 53.5616C26.7916 53.2263 27.3069 53.1967 27.6447 53.4951C27.985 53.7934 28.0195 54.3088 27.7261 54.6515C27.1861 55.2606 26.6017 55.8278 25.9754 56.3505C25.6277 56.6415 25.1098 56.5922 24.8189 56.2445C24.5279 55.8968 24.5748 55.379 24.9249 55.088C25.4847 54.622 26.0074 54.1115 26.4883 53.5616ZM22.4023 56.7648C22.8042 56.5552 23.2999 56.713 23.5095 57.1149C23.7191 57.5193 23.5612 58.015 23.1593 58.2246C22.0004 58.8238 20.7748 59.2775 19.5073 59.5783C19.2953 59.6276 19.0709 59.5906 18.8859 59.4772C18.701 59.3613 18.5703 59.1788 18.521 58.9668C18.4174 58.5254 18.6911 58.084 19.1325 57.9804C20.2693 57.7141 21.3666 57.3073 22.4023 56.7672L22.4023 56.7648ZM15.8751 58.3577C16.3288 58.3577 16.6962 58.7251 16.6962 59.1789C16.6962 59.6326 16.3288 60 15.8751 60C14.1933 60 12.5239 59.7337 10.9261 59.2085C10.497 59.0679 10.2628 58.6019 10.4058 58.1704C10.5488 57.7413 11.0149 57.507 11.4439 57.6501C12.8741 58.1235 14.3709 58.3626 15.8751 58.3577ZM24.3327 1.49246C24.3845 1.2804 24.5201 1.09792 24.705 0.984493C24.8924 0.871061 25.1168 0.836538 25.3289 0.890788C26.0983 1.07326 25.9034 1.96835 25.8295 2.30374C30.6404 -0.596147 36.6152 -0.768734 41.5864 1.84509C46.5551 4.46135 49.7978 9.48461 50.1305 15.0915C50.4658 20.6964 47.8446 26.0697 43.2213 29.2576L43.3791 30.0442H43.3767C43.9364 30.2883 44.4691 30.5892 44.9696 30.9369L46.7993 30.2637L49.4328 33.6L48.3503 35.2201H48.3528C48.5772 35.7897 48.7424 36.3766 48.846 36.9783L50.6214 37.7945L50.1208 42.0185L48.2048 42.3983L48.2073 42.3958C47.9632 42.9556 47.6623 43.4882 47.3122 43.9863L47.9853 45.8159L44.6465 48.447L43.024 47.367C42.4544 47.5889 41.8651 47.7541 41.2633 47.8602L40.4422 49.6331L36.2133 49.1326L35.8335 47.2191L35.836 47.2215C35.2762 46.9774 34.7436 46.6791 34.2431 46.3313L32.4134 47.0045L29.7799 43.6682L30.8623 42.0481H30.8599C30.6379 41.4785 30.4727 40.8916 30.3667 40.2899L28.5913 39.4737L29.0919 35.2497L31.0079 34.8699V34.8724C31.2495 34.3126 31.5479 33.7775 31.8955 33.2795L31.2199 31.4498L34.5636 28.8163L36.1862 29.8963C36.7558 29.6719 37.3451 29.5067 37.9468 29.4007L38.7679 27.6277L42.1067 28.0198L42.1043 28.0222C46.3185 25.1816 48.7249 20.3309 48.4339 15.2562C48.143 10.1839 45.2012 5.63709 40.6909 3.29448C36.1808 0.954395 30.7706 1.16151 26.4528 3.8419L27.2345 4.03177C27.6759 4.14027 27.9471 4.58413 27.8386 5.02304C27.7326 5.46443 27.2887 5.73567 26.8474 5.62965L24.347 5.01564C24.1226 4.97126 23.9253 4.83563 23.807 4.63836C23.6886 4.44356 23.6566 4.20684 23.7182 3.98741L24.3327 1.49246ZM33.5895 15.3385C33.2961 15.415 33.0791 15.6591 33.0371 15.9599C32.9952 16.2608 33.1382 16.5542 33.3996 16.7071C33.661 16.86 33.989 16.8427 34.2306 16.6602C34.4723 16.4778 34.5783 16.1671 34.5043 15.8736C34.3958 15.4766 33.989 15.2374 33.5895 15.3385ZM31.7154 14.8478C32.2061 14.0144 33.153 13.5582 34.1098 13.6914C35.069 13.827 35.8531 14.5273 36.0948 15.4643C36.334 16.4014 35.9863 17.3926 35.212 17.9746C34.4377 18.5541 33.3898 18.6108 32.5563 18.1176C31.4269 17.4444 31.0521 15.9846 31.7154 14.8478ZM32.4059 10.7249C34.566 10.1726 36.8444 10.9765 38.1809 12.7618C39.5174 14.5446 39.6456 16.9586 38.5089 18.8746C37.3721 20.7931 35.1948 21.8361 32.9878 21.5205C30.7808 21.2049 28.9832 19.5897 28.4309 17.4321C27.6788 14.4804 29.4567 11.4795 32.4059 10.7249ZM35.7496 12.7297C34.4008 11.9332 32.7043 12.0269 31.4516 12.9664C30.1989 13.9084 29.6367 15.5112 30.0264 17.0277C30.416 18.5442 31.6809 19.676 33.232 19.898C34.783 20.1174 36.3143 19.3826 37.1107 18.0338C38.1958 16.1918 37.5867 13.8196 35.7496 12.7297ZM36.4918 8.51553V8.51306C35.4587 8.15551 34.3663 8.00017 33.2739 8.05688L32.359 6.61432L30.4579 7.10009L30.3469 8.80399H30.3494C29.3655 9.27991 28.4852 9.94077 27.7553 10.752L26.0859 10.3821L25.0922 12.0663L26.2166 13.3511C25.859 14.3818 25.7037 15.4717 25.7604 16.5616L24.3154 17.4789L24.8036 19.3727L26.5124 19.4787H26.51C26.9859 20.4601 27.6467 21.338 28.4604 22.0654L28.0856 23.7348L29.7748 24.731L31.0595 23.6016H31.062C32.0927 23.9616 33.1851 24.117 34.2775 24.0627L35.1948 25.5053L37.0935 25.0146L37.202 23.3107C38.1834 22.8372 39.0662 22.1763 39.7961 21.3651L41.4655 21.7375L42.4666 20.0483L41.3347 18.7686C41.6923 17.7354 41.8501 16.6455 41.7958 15.5556L43.2409 14.6432L42.7501 12.7494L41.0463 12.6434V12.6409C40.5703 11.6571 39.907 10.7768 39.0958 10.0468L39.4706 8.37993L37.7765 7.38373L36.4918 8.51553ZM36.0751 6.69081L37.5817 5.36415L41.3299 7.57849L40.8934 9.53641C41.3249 10.0049 41.7096 10.5178 42.04 11.0628L44.0448 11.1886L45.1273 15.4027L43.4307 16.4754C43.4086 17.1091 43.3173 17.7403 43.1644 18.3568L44.4911 19.8635L42.2743 23.6042L40.3164 23.1677C39.8454 23.5993 39.335 23.984 38.79 24.3144L38.6642 26.3142L34.4402 27.3942L33.3676 25.7051C32.7314 25.678 32.0977 25.5892 31.4812 25.4338L29.9721 26.7605L26.2264 24.5462L26.6629 22.5882V22.5907C26.2314 22.1197 25.8467 21.6093 25.5138 21.0619L23.5115 20.9361L22.4265 16.7195L24.123 15.6468C24.1477 15.0106 24.2389 14.3794 24.3918 13.7629L23.0627 12.2563L25.2795 8.52046L27.2398 8.95692C27.7108 8.52539 28.2213 8.14316 28.7662 7.8103L28.892 5.81046L33.1111 4.73044L34.1887 6.41956H34.1911C34.8273 6.44669 35.4586 6.53793 36.0775 6.69081L36.0751 6.69081ZM54.2706 29.3127C54.4876 29.3595 54.6774 29.4902 54.7958 29.6776C54.9142 29.8675 54.9512 30.0944 54.8969 30.3113C54.8451 30.5259 54.707 30.7108 54.5147 30.8218C54.3248 30.9352 54.0955 30.9648 53.881 30.9056L53.2842 30.7577C55.8857 35.7338 55.7008 41.7037 52.7985 46.5095C49.8937 51.313 44.6931 54.2526 39.0786 54.262C33.4664 54.2719 28.2557 51.3498 25.3361 46.5537L24.6826 46.7707H24.6801C24.5051 47.3551 24.2708 47.9198 23.9823 48.4574L24.8725 50.1933L21.8715 53.2041L20.1331 52.3214V52.3189C19.5931 52.6099 19.0284 52.8466 18.4415 53.0266L17.8399 54.876L13.5838 54.8834L12.9796 53.034C12.3952 52.8565 11.8281 52.6247 11.288 52.3386L9.55207 53.2288L6.53136 50.2254L7.41412 48.4894H7.41658C7.12561 47.9519 6.88889 47.3872 6.71134 46.8028L4.85455 46.2036L4.84715 41.9524L6.70148 41.3483C6.87655 40.7639 7.11081 40.1967 7.39934 39.6591L6.51166 37.9256L9.51261 34.9148L11.251 35.7951C11.7886 35.5042 12.3557 35.2699 12.9402 35.0923L13.5418 33.238L17.7979 33.2306L18.407 35.08V35.0825C18.9914 35.2576 19.5561 35.4894 20.0961 35.7779L21.8345 34.8951L24.8503 37.8912L23.9675 39.6271H23.9651C24.256 40.1647 24.4927 40.7294 24.6703 41.3138L26.5271 41.913L26.5345 45.3504V45.3529C29.0423 49.7791 33.698 52.5581 38.7847 52.6616C43.8718 52.7652 48.6381 50.1785 51.3235 45.856C54.0088 41.5358 54.2159 36.1156 51.8709 31.6008L51.7205 32.2075V32.2099C51.612 32.6488 51.1681 32.9201 50.7267 32.8116C50.2878 32.7031 50.0166 32.2592 50.1251 31.8179L50.7465 29.2928C50.7983 29.0807 50.9314 28.8983 51.1188 28.7848C51.3038 28.6714 51.5282 28.6369 51.7402 28.6911L54.2706 29.3127ZM39.167 42.3299C40.6638 42.505 42.1187 41.7628 42.8535 40.446C43.5883 39.1317 43.4576 37.5042 42.523 36.3206C41.5909 35.1394 40.0375 34.6363 38.5875 35.0457C37.1376 35.4575 36.0772 36.7003 35.9022 38.1971C35.7863 39.1761 36.0674 40.1649 36.679 40.9392C37.2905 41.7135 38.1856 42.214 39.167 42.3299ZM42.9348 42.8502C41.2285 44.1966 38.8785 44.3815 36.9822 43.3187C35.086 42.2584 34.0158 40.1575 34.2722 37.9998C34.5262 35.8397 36.0575 34.0495 38.151 33.4602C40.2445 32.8709 42.4836 33.6007 43.8274 35.3096C45.6522 37.6423 45.2528 41.0084 42.9348 42.8502ZM44.5648 46.4207L46.0295 45.2643L45.4549 43.7182L45.4574 43.7157C46.1479 42.9044 46.6755 41.9674 47.0059 40.9564L48.626 40.6359L48.8455 38.7865L47.3462 38.096C47.2575 37.0356 46.9665 36.0025 46.4856 35.0531L47.4029 33.6772L46.2489 32.2149L44.6954 32.787C43.8841 32.0965 42.9447 31.5713 41.9312 31.2409L41.6106 29.6233L39.7588 29.4038L39.0658 30.9031C38.0055 30.9894 36.9723 31.2803 36.023 31.7612L34.647 30.8439L33.1774 31.9979L33.7519 33.5465V33.5489C33.0614 34.3602 32.5362 35.2972 32.2034 36.3082L30.5833 36.6288L30.3638 38.4782L31.8631 39.1687C31.9494 40.229 32.2428 41.2597 32.7237 42.2091L31.8064 43.5826L32.9653 45.0473L34.5139 44.4802V44.4777C35.3276 45.1656 36.2646 45.6909 37.2781 46.0238L37.5987 47.6414L39.4505 47.8608L40.141 46.3641C41.2038 46.2778 42.2394 45.9843 43.1913 45.5035L44.5648 46.4207ZM25.3706 29.9436H25.3731C25.812 29.8375 26.2559 30.1088 26.3619 30.5502L26.9537 33.016H26.9512C27.0277 33.2453 27.0006 33.4968 26.8723 33.7015C26.7466 33.9062 26.537 34.0442 26.2978 34.0788L23.8245 34.673C23.6075 34.7396 23.3708 34.715 23.1736 34.6015C22.9763 34.4881 22.8357 34.3007 22.7839 34.0788C22.7297 33.8568 22.7716 33.6251 22.8974 33.4352C23.0231 33.2454 23.2204 33.1171 23.4448 33.0801L24.3375 32.8656C20.1381 29.8893 14.6716 29.3764 9.99333 31.5242C5.31556 33.6694 2.13981 38.1499 1.65879 43.2738C1.18041 48.3979 3.4712 53.3885 7.66808 56.3649C8.03796 56.6288 8.1218 57.1417 7.86042 57.5115C7.59657 57.8814 7.08365 57.9677 6.71379 57.7039C2.11493 54.4144 -0.415037 48.9477 0.0558838 43.313C0.524399 37.6785 3.92482 32.7072 9.00716 30.227C14.0869 27.7463 20.0984 28.1236 24.8303 31.2182C24.7046 30.6856 24.6898 30.1037 25.3704 29.9459L25.3706 29.9436ZM14.9794 44.063C14.9844 44.4551 15.3025 44.7707 15.6945 44.7732V44.7682C15.9806 44.7658 16.2395 44.5907 16.3455 44.3244C16.454 44.0581 16.3899 43.7523 16.1852 43.5501C15.9805 43.3479 15.6748 43.2911 15.4109 43.4021C15.1446 43.5131 14.9744 43.7745 14.9744 44.063L14.9794 44.063ZM13.3322 44.063C13.3372 43.1112 13.9092 42.2555 14.7896 41.8906C15.6674 41.5231 16.6784 41.7204 17.3565 42.3887C17.9138 42.9435 18.1554 43.7399 18.0026 44.5118C17.8497 45.2836 17.3245 45.9297 16.597 46.233C15.8696 46.5363 15.0411 46.4549 14.3851 46.0209C13.7292 45.5845 13.3346 44.8521 13.3322 44.0655L13.3322 44.063ZM10.319 44.063C10.3116 41.8881 11.616 39.9253 13.6208 39.0869C15.628 38.251 17.941 38.7047 19.4822 40.2384C21.0233 41.7722 21.4869 44.0827 20.6609 46.0924C19.8323 48.102 17.8744 49.4163 15.6995 49.4188C14.2767 49.4237 12.9106 48.8615 11.8997 47.8579C10.8911 46.8518 10.3215 45.4882 10.319 44.0654L10.319 44.063ZM13.0487 41.4245C11.9883 42.4947 11.6752 44.0951 12.2547 45.4858C12.8342 46.8741 14.1928 47.7766 15.6995 47.7741C17.2036 47.7716 18.5598 46.8642 19.1344 45.471C19.709 44.0803 19.3884 42.4799 18.3231 41.4147C17.6253 40.7143 16.6734 40.3198 15.6846 40.3223C14.6934 40.3247 13.7465 40.7217 13.0487 41.4245Z" fill="#0CB4C4"></path></svg>