<?xml version="1.0" encoding="utf-8"?>
<!-- Generator: Adobe Illustrator 24.0.1, SVG Export Plug-In . SVG Version: 6.00 Build 0)  -->
<svg version="1.1" id="Layer_1" xmlns="http://www.w3.org/2000/svg" xmlns:xlink="http://www.w3.org/1999/xlink" x="0px" y="0px"
	 width="60.1px" height="60px" viewBox="0 0 60.1 60" style="enable-background:new 0 0 60.1 60;" xml:space="preserve">
<style type="text/css">
	.st0{fill:#26BAC9;}
</style>
<g>
	<path class="st0" d="M40.8,22.9h1.9V6c0-0.5-0.4-0.9-0.9-0.9h-4.2V7h3.3L40.8,22.9L40.8,22.9z"/>
	<rect x="25.8" y="30" class="st0" width="8.5" height="1.9"/>
	<path class="st0" d="M19.2,7h3.3V5.1h-4.2c-0.5,0-0.9,0.4-0.9,0.9v16.9h1.9L19.2,7L19.2,7z"/>
	<path class="st0" d="M4.7,30.9v16h1.9v-15h4.2V30H5.6C5.1,30,4.7,30.4,4.7,30.9z"/>
	<path class="st0" d="M19.2,37.9h-1.9v16.4c0,0.5,0.4,0.9,0.9,0.9h4.2v-1.9h-3.3L19.2,37.9L19.2,37.9z"/>
	<path class="st0" d="M40.8,53.4h-3.3v1.9h4.2c0.5,0,0.9-0.4,0.9-0.9V37.9h-1.9L40.8,53.4L40.8,53.4z"/>
	<path class="st0" d="M53.5,46.9h1.9v-16c0-0.5-0.4-0.9-0.9-0.9h-5.2v1.9h4.2C53.5,31.8,53.5,46.9,53.5,46.9z"/>
	<path class="st0" d="M34.7-0.1h-9.4c-0.5,0-0.9,0.4-0.9,0.9v9.4c0,0.5,0.4,0.9,0.9,0.9h9.4c0.5,0,0.9-0.4,0.9-0.9V0.9
		C35.7,0.3,35.3-0.1,34.7-0.1z M33.8,9.3h-7.5V1.8h7.5V9.3z"/>
	<path class="st0" d="M46.5,24.8h-9.4c-0.5,0-0.9,0.4-0.9,0.9v9.4c0,0.5,0.4,0.9,0.9,0.9h9.4c0.5,0,0.9-0.4,0.9-0.9v-9.4
		C47.4,25.2,47,24.8,46.5,24.8z M45.5,34.2H38v-7.5h7.5V34.2z"/>
	<path class="st0" d="M23,24.8h-9.4c-0.5,0-0.9,0.4-0.9,0.9v9.4c0,0.5,0.4,0.9,0.9,0.9H23c0.5,0,0.9-0.4,0.9-0.9v-9.4
		C23.9,25.2,23.5,24.8,23,24.8z M22.1,34.2h-7.5v-7.5h7.5V34.2z"/>
	<path class="st0" d="M59.1,48.7h-9.4c-0.5,0-0.9,0.4-0.9,0.9v9.4c0,0.5,0.4,0.9,0.9,0.9h9.4c0.5,0,0.9-0.4,0.9-0.9v-9.4
		C60.1,49.2,59.7,48.7,59.1,48.7z M58.2,58.1h-7.5v-7.5h7.5C58.2,50.6,58.2,58.1,58.2,58.1z"/>
	<path class="st0" d="M34.7,48.7h-9.4c-0.5,0-0.9,0.4-0.9,0.9v9.4c0,0.5,0.4,0.9,0.9,0.9h9.4c0.5,0,0.9-0.4,0.9-0.9v-9.4
		C35.7,49.2,35.3,48.7,34.7,48.7z M33.8,58.1h-7.5v-7.5h7.5V58.1z"/>
	<path class="st0" d="M10.3,48.7H0.9c-0.5,0-0.9,0.4-0.9,0.9v9.4C0,59.6,0.4,60,0.9,60h9.4c0.5,0,0.9-0.4,0.9-0.9v-9.4
		C11.3,49.2,10.8,48.7,10.3,48.7z M9.4,58.1H1.9v-7.5h7.5V58.1z"/>
	<path class="st0" d="M59.1-0.1c-0.5,0-0.9,0.4-0.9,0.9v12.2c0,0.5,0.4,0.9,0.9,0.9s0.9-0.4,0.9-0.9V0.9C60.1,0.3,59.7-0.1,59.1-0.1
		z"/>
	<path class="st0" d="M55.4,6.5c0.5,0,0.9-0.4,0.9-0.9V0.9c0-0.5-0.4-0.9-0.9-0.9s-0.9,0.4-0.9,0.9v4.7C54.5,6.1,54.9,6.5,55.4,6.5z
		"/>
	<path class="st0" d="M1,14C1.5,14,2,13.6,2,13.1V0.9C2,0.3,1.5-0.1,1-0.1S0.1,0.3,0.1,0.9v12.2C0.1,13.6,0.5,14,1,14z"/>
	<path class="st0" d="M4.7,6.5c0.5,0,0.9-0.4,0.9-0.9V0.9c0-0.5-0.4-0.9-0.9-0.9S3.8,0.3,3.8,0.9v4.7C3.8,6.1,4.2,6.5,4.7,6.5z"/>
</g>
</svg>
