<?xml version="1.0" encoding="utf-8"?>
<!-- Generator: Adobe Illustrator 24.0.1, SVG Export Plug-In . SVG Version: 6.00 Build 0)  -->
<svg version="1.1" id="Layer_1" xmlns="http://www.w3.org/2000/svg" xmlns:xlink="http://www.w3.org/1999/xlink" x="0px" y="0px"
	 width="66.1px" height="60.1px" viewBox="0 0 66.1 60.1" style="enable-background:new 0 0 66.1 60.1;" xml:space="preserve">
<style type="text/css">
	.st0{fill:#28BBCA;}
</style>
<g>
	<path class="st0" d="M1.4,56.8c0.5,1.9,2.2,3.3,4.2,3.3h54.9c2,0,3.7-1.3,4.2-3.3l1.4-5.8c0.2-0.6-0.3-1.3-1-1.3h-1V16.5
		c0-2.1-1.7-3.8-3.8-3.8h-0.5c0-1.3,0-11.3,0-12.6H6.4c0,1.3,0-4.7,0,12.6H5.9c-2.1,0-3.8,1.7-3.8,3.8v33.3H1c-0.7,0-1.1,0.6-1,1.3
		L1.4,56.8z M59.7,14.7h0.5c1,0,1.8,0.8,1.8,1.8v33.3h-2.3V14.7z M8.4,2.1h49.2v2.2H27v2h30.6v2.2H8.4V2.1z M8.4,10.5h49.2
		c0,11.2,0,20.5,0,39.3c-16.9,0-29.9,0-49.2,0C8.4,38.2,8.4,28.4,8.4,10.5z M38.5,51.9l0,1.5l-10.8,0v-1.5H38.5z M4.1,16.5
		c0-1,0.8-1.8,1.8-1.8h0.5v35.2H4.1V16.5z M25.6,51.9v1.5c0,1.1,0.9,2.1,2.1,2.1h10.8c1.1,0,2.1-0.9,2.1-2.1v-1.5
		c0.7,0,22.6,0,23.3,0l-1.1,4.5c-0.2,1-1.1,1.7-2.2,1.7H5.6c-1,0-1.9-0.7-2.2-1.7l-1.1-4.5C4.7,51.9-6.3,51.9,25.6,51.9z"/>
	<path class="st0" d="M55.4,12.6H10.6v35.2h44.8V12.6z M53.4,45.8H12.7V14.6h40.7V45.8z"/>
	<rect x="20.1" y="4.3" class="st0" width="2.4" height="2"/>
	<rect x="15.4" y="4.3" class="st0" width="2.4" height="2"/>
	<rect x="10.7" y="4.3" class="st0" width="2.4" height="2"/>
	<path class="st0" d="M21.6,33.9h6.2l1.3,3H32l-6.1-13.3h-2.4l-6.1,13.3h2.9L21.6,33.9z M24.7,26.7l2.1,5h-4.3L24.7,26.7z"/>
	<path class="st0" d="M36,31.5h3.1c2.7,0,4.7-1.3,4.7-4s-2-4-4.7-4h-6v13.3H36C36,36.9,36,31.5,36,31.5z M36,25.8h2.8
		c1.5,0,2.3,0.6,2.3,1.7c0,1.1-0.8,1.7-2.3,1.7H36V25.8z"/>
	<rect x="45.8" y="23.5" class="st0" width="2.9" height="13.3"/>
</g>
</svg>
