<svg version="1.1" id="Layer_1" xmlns="http://www.w3.org/2000/svg" xmlns:xlink="http://www.w3.org/1999/xlink" x="0px" y="0px" width="35.18px" height="50px" viewBox="0 0 35.18 50" enable-background="new 0 0 35.18 50" xml:space="preserve"><g><path fill="#FFFFFF" d="M16.203,46.552c0,1.904-1.544,3.448-3.448,3.448l0,0c-1.905,0-3.449-1.544-3.449-3.448V27.05 c0-1.904,1.544-3.449,3.449-3.449l0,0c1.904,0,3.448,1.545,3.448,3.449V46.552z"></path><path fill="#FFFFFF" d="M25.874,46.552c0,1.904-1.544,3.448-3.449,3.448l0,0c-1.904,0-3.448-1.544-3.448-3.448V27.05 c0-1.904,1.544-3.449,3.448-3.449l0,0c1.905,0,3.449,1.545,3.449,3.449V46.552z"></path><g><path fill="#FFFFFF" d="M23.889,21.783c-1.055,1.069-2.777,1.082-3.848,0.026l0.016-0.016c-1.069-1.056-1.097-2.762-0.042-3.832 L30.521,7.307c1.056-1.07,2.778-1.082,3.848-0.027l0,0c1.07,1.056,1.082,2.778,0.027,3.849L23.889,21.783z"></path><path fill="#FFFFFF" d="M11.291,21.783c1.055,1.069,2.777,1.082,3.848,0.026l-0.016-0.016c1.069-1.056,1.097-2.762,0.042-3.832 L4.658,7.307C3.603,6.236,1.88,6.225,0.81,7.279l0,0c-1.069,1.056-1.081,2.778-0.026,3.849L11.291,21.783z"></path></g><path fill="#FFFFFF" d="M25.874,28.512c0,2.881-2.335,5.217-5.216,5.217h-6.137c-2.881,0-5.216-2.336-5.216-5.217v-8.867 c0-2.881,2.335-5.216,5.216-5.216h6.137c2.881,0,5.216,2.335,5.216,5.216V28.512z"></path><circle fill="#FFFFFF" cx="17.583" cy="6.618" r="6.619"></circle></g></svg>