<svg width="65" height="62" viewBox="0 0 65 62" fill="none" xmlns="http://www.w3.org/2000/svg"><mask id="path-1-outside-1_2001_33" maskUnits="userSpaceOnUse" x="0" y="0" width="65" height="62" fill="black"><rect fill="white" width="65" height="62"></rect><path fill-rule="evenodd" clip-rule="evenodd" d="M30.1602 10.6891C34.4641 10.6311 38.7601 11.0975 42.951 12.0804C46.5086 13.0105 48.7105 14.415 48.7262 16.0751V25.9381V41.0791C48.8287 41.0316 48.9285 40.9868 49.031 40.9473C49.3384 40.8208 49.6485 40.7101 49.9664 40.6179V39.1159C49.9664 38.8419 50.0742 38.581 50.2686 38.3887C50.2922 38.3623 50.3185 38.3386 50.3474 38.3175C50.5287 38.1673 50.7573 38.083 50.9938 38.083H54.1704C54.4437 38.083 54.7038 38.1937 54.8956 38.386C55.0875 38.5784 55.1978 38.8393 55.1978 39.1107V40.6179C55.5157 40.7101 55.8258 40.8208 56.1306 40.9473C56.438 41.0738 56.7349 41.2187 57.0239 41.3768L58.0802 40.3175C58.1038 40.2938 58.1275 40.2701 58.1538 40.2517C58.5584 39.9117 59.1575 39.9407 59.5306 40.3175L61.7771 42.5705C61.7981 42.5916 61.8218 42.6153 61.8402 42.639C62.1791 43.0474 62.1528 43.6482 61.7771 44.0198L60.7209 45.0791C60.8785 45.3715 61.023 45.6693 61.1491 45.975C61.2752 46.2833 61.3856 46.5942 61.4776 46.913H62.9753C63.2459 46.913 63.506 47.0237 63.6978 47.2161C63.8896 47.4084 64 47.6719 64 47.946V51.137C64 51.4084 63.8896 51.6693 63.6978 51.8617C63.506 52.054 63.2459 52.1647 62.9753 52.1647H61.4828C61.2963 52.7997 61.044 53.4163 60.7235 53.9961L61.7824 55.058C61.806 55.0817 61.827 55.1054 61.848 55.1318C62.187 55.5402 62.1581 56.141 61.7824 56.5125L59.5359 58.7629C59.344 58.9578 59.0813 59.0659 58.808 59.0659C58.5348 59.0659 58.2746 58.9578 58.0828 58.7655L57.0266 57.7115C56.4459 58.0303 55.831 58.2833 55.1978 58.4704V59.9697C55.1978 60.2437 55.0875 60.5046 54.8956 60.6943C54.7038 60.8893 54.4437 60.9974 54.1704 61H50.9938C50.7205 61 50.4578 60.8893 50.266 60.697C50.2423 60.6733 50.2213 60.6469 50.2003 60.6206C50.0479 60.4387 49.9638 60.2069 49.9638 59.9671V58.4704C49.6459 58.3755 49.3358 58.2675 49.031 58.1383C48.7236 58.0119 48.4267 57.8669 48.1377 57.7088L47.0788 58.7681C47.0551 58.7945 47.0315 58.8156 47.0052 58.8366C46.5979 59.1766 45.9989 59.1476 45.6258 58.7708L43.3792 56.5178C43.3582 56.4941 43.3345 56.4704 43.3162 56.444C42.9746 56.0382 43.0035 55.4374 43.3792 55.0632L44.4355 54.004C44.1149 53.4216 43.8627 52.805 43.6761 52.17H42.1811C41.9104 52.17 41.6477 52.0593 41.4585 51.8669C41.2667 51.6746 41.159 51.4137 41.159 51.1423V50.025C39.6271 50.307 38.0086 50.5178 36.4978 50.6627C33.5786 50.9526 31.0378 51.0343 30.1602 51.0343C30.0551 51.0343 30.197 51.0343 29.9421 51.029C26.5763 50.9605 23.2157 50.6706 19.8892 50.1515C15.5354 49.4269 11.5889 48.0909 11.5889 45.6509V23.917H10.8374C10.5641 23.917 10.304 23.809 10.1122 23.614C9.92041 23.4242 9.81271 23.1607 9.81271 22.8893V21.3847C9.49478 21.2899 9.18471 21.1818 8.87729 21.0553C8.5725 20.9289 8.27559 20.7839 7.98393 20.6258L6.92244 21.6877C6.89879 21.7088 6.87513 21.7325 6.84886 21.751C6.44159 22.0935 5.84252 22.0646 5.46941 21.6877L3.22287 19.4348C3.03106 19.2424 2.92333 18.9816 2.92333 18.7075C2.92333 18.4335 3.03106 18.1726 3.22287 17.9802L4.27914 16.9209C4.12149 16.6285 3.97697 16.3307 3.85085 16.025C3.72473 15.7167 3.61437 15.4058 3.51978 15.087H2.02474C1.7541 15.087 1.49135 14.9763 1.30217 14.7839C1.10773 14.5916 1 14.3281 1 14.054V10.8656C1 10.5942 1.10773 10.3307 1.30217 10.1383C1.32582 10.1146 1.34944 10.0935 1.37572 10.0725C1.55964 9.91963 1.79089 9.83531 2.02737 9.83531H3.51978C3.70633 9.19763 3.95858 8.58366 4.27914 8.00395L3.22024 6.94203C2.82086 6.5415 2.82086 5.88801 3.22024 5.48485L5.46678 3.23188C5.49043 3.20817 5.51408 3.18709 5.54036 3.16601C5.94762 2.82609 6.5467 2.85507 6.91718 3.23188L7.97344 4.29117C8.55412 3.97233 9.16895 3.71937 9.80219 3.53228V2.03294C9.80219 1.75889 9.91255 1.49802 10.1044 1.3083C10.2962 1.11067 10.5589 1 10.8348 1H14.0115C14.2847 1 14.5475 1.11067 14.7393 1.30567C14.7629 1.32675 14.784 1.3531 14.805 1.37945C14.9574 1.56126 15.0414 1.79315 15.0414 2.03294V3.53228C15.6747 3.71937 16.2895 3.97233 16.8676 4.29381L17.9264 3.23452C17.9501 3.20817 17.9738 3.18709 18 3.16601C18.4073 2.82609 19.0064 2.85507 19.3768 3.23188L21.6234 5.48221C21.647 5.50856 21.6681 5.53228 21.6891 5.55863C22.028 5.96706 21.9991 6.56522 21.6234 6.93939L20.5671 7.99868C20.7221 8.29117 20.8667 8.58893 20.9928 8.8946C21.1189 9.2029 21.2293 9.51383 21.3238 9.83267H22.8189C23.0896 9.83267 23.3523 9.94335 23.5415 10.1357C23.7359 10.3281 23.8436 10.5916 23.8436 10.863V10.9921C25.809 10.7997 27.9373 10.6917 30.1549 10.6917H30.1628L30.1602 10.6891ZM30.1602 42.6548C28.8701 42.6548 27.756 43.5692 27.5064 44.8393C27.2568 46.1094 27.9321 47.3794 29.125 47.8748C30.3152 48.3702 31.692 47.9539 32.4094 46.8762C33.1267 45.8011 32.9848 44.3676 32.0704 43.4532C31.5633 42.942 30.8775 42.6574 30.1602 42.6574V42.6548ZM31.0273 44.4967C30.6148 44.083 29.9658 44.0198 29.4797 44.3465C28.9936 44.6733 28.8044 45.2978 29.0277 45.8432C29.2511 46.386 29.8291 46.6917 30.4019 46.5784C30.9747 46.4625 31.3899 45.9592 31.3899 45.3715C31.3899 45.0422 31.2611 44.7312 31.0299 44.4993L31.0273 44.4967ZM30.1602 36.7576C30.6568 36.7576 31.1035 36.4572 31.2927 35.9987C31.4845 35.5376 31.3794 35.0079 31.0299 34.6574C30.6805 34.3044 30.1523 34.1989 29.6925 34.3887C29.2327 34.5758 28.9331 35.0237 28.9331 35.5217C28.9331 35.8511 29.0566 36.1621 29.2879 36.3939C29.5191 36.6258 29.8317 36.7549 30.1576 36.7549L30.1602 36.7576ZM32.073 37.4453C32.9848 36.5283 33.124 35.0949 32.412 34.0198C31.6946 32.9447 30.3178 32.5257 29.1276 33.0211C27.9347 33.5165 27.2594 34.7866 27.5117 36.0567C27.7639 37.3241 28.8727 38.2385 30.1628 38.2385C30.8801 38.2385 31.5685 37.9539 32.073 37.4427V37.4453ZM30.1602 22.9684C28.8701 22.9684 27.756 23.8801 27.5064 25.1502C27.2542 26.4177 27.9321 27.6904 29.125 28.1858C30.3152 28.6812 31.692 28.2648 32.4094 27.1871C33.1267 26.1094 32.9848 24.6785 32.0704 23.7642C31.5633 23.253 30.8775 22.9657 30.1602 22.9684ZM31.0273 24.8103C30.6148 24.3939 29.9658 24.3307 29.4797 24.6574C28.9936 24.9842 28.8044 25.6087 29.0277 26.1542C29.2511 26.697 29.8291 27.0026 30.4019 26.8893C30.9747 26.7734 31.3899 26.2701 31.3899 25.6825C31.3899 25.3531 31.2611 25.0422 31.0299 24.8129L31.0273 24.8103ZM9.5946 31.8669L6.38378 27.3557C6.24978 27.1397 6.0133 27.0105 5.75843 27.0105C5.50356 27.0105 5.26708 27.1397 5.13308 27.3557L1.92226 31.8669C1.69892 32.1989 1.78299 32.6495 2.10617 32.8814C2.43199 33.1133 2.88392 33.0422 3.12302 32.7233L5.02271 30.0567V53.9065C5.02271 55.3874 6.22087 56.5863 7.69491 56.5889H23.3654C23.5651 56.5942 23.7569 56.5178 23.9015 56.3781C24.046 56.2411 24.1274 56.0461 24.1274 55.8459C24.1274 55.6456 24.046 55.4559 23.9015 55.3136C23.7596 55.1766 23.5651 55.1001 23.3654 55.1054H7.69491C7.0354 55.1054 6.49937 54.5652 6.49675 53.9038V30.0567L8.39647 32.7233C8.63557 33.0448 9.08751 33.1133 9.41332 32.8814C9.73913 32.6469 9.82057 32.1989 9.59723 31.8643L9.5946 31.8669ZM50.7258 29.8564L53.9366 34.3676C54.0706 34.5837 54.3071 34.7128 54.5619 34.7128C54.8168 34.7128 55.0507 34.5837 55.1847 34.3676L58.3981 29.8564C58.6267 29.5217 58.5479 29.0659 58.2195 28.8314C57.891 28.5968 57.4338 28.6733 57.1974 28.9974L55.2977 31.664V7.81686C55.2977 6.33597 54.0995 5.13966 52.6228 5.13702H36.9549C36.7553 5.13175 36.5635 5.20817 36.4163 5.34519C36.2744 5.48485 36.193 5.67721 36.193 5.87747C36.193 6.07773 36.2744 6.27009 36.4163 6.40975C36.5608 6.54941 36.7553 6.62582 36.9549 6.61792H52.6228C53.285 6.61792 53.821 7.1581 53.8236 7.8195V31.6693L51.9239 29.0026C51.8109 28.8366 51.6401 28.7207 51.4431 28.6838C51.2486 28.6469 51.0463 28.6943 50.8834 28.8076C50.7205 28.9236 50.6102 29.1028 50.5812 29.2978C50.5497 29.4954 50.6023 29.6957 50.7205 29.8564H50.7258ZM13.1969 18.415L13.0682 18.4308V25.946C13.0734 26.8524 14.8549 27.7721 17.7373 28.5257C21.8073 29.4743 25.9798 29.9249 30.1628 29.8643C34.3432 29.9249 38.5157 29.4743 42.5857 28.5231C45.4629 27.7694 47.2496 26.8498 47.2548 25.9433V18.3228C45.9358 19.1555 44.4801 19.7589 42.9562 20.1041C38.7653 21.087 34.4693 21.556 30.1654 21.4954C25.8616 21.556 21.5629 21.087 17.372 20.1041C15.9006 19.7642 14.4949 19.195 13.2022 18.4124L13.1969 18.415ZM11.5863 18.4071C9.31873 18.0856 7.43217 16.4967 6.72537 14.3123C6.01857 12.1278 6.61501 9.73254 8.26246 8.13834C9.90992 6.54414 12.3194 6.0303 14.4713 6.81818C16.6232 7.60606 18.1393 9.55336 18.3758 11.8379C19.2455 11.643 20.1835 11.469 21.1846 11.3188H20.751C20.4068 11.3188 20.1099 11.0764 20.0337 10.7418C19.8393 9.88011 19.5004 9.05534 19.03 8.30962C18.8277 8.01449 18.8645 7.61924 19.1167 7.36627L20.2597 6.22003L18.649 4.60474L17.5061 5.75099C17.2643 5.99341 16.8886 6.03557 16.5969 5.85375C15.8586 5.38472 15.0493 5.0448 14.1954 4.84453C13.8354 4.79183 13.5674 4.4809 13.5674 4.11199V2.48617H11.2867V4.10672C11.2867 4.45191 11.0476 4.75231 10.7113 4.82872C9.8521 5.02108 9.02969 5.361 8.28347 5.83531C7.98919 6.03557 7.59507 6.00132 7.34283 5.74835L6.19987 4.59947L4.5892 6.21476L5.73216 7.361C5.97389 7.60606 6.01594 7.98287 5.83464 8.27536C5.36694 9.01845 5.02797 9.83004 4.82828 10.6864C4.7731 11.0501 4.46308 11.3188 4.09522 11.3188H2.47929V13.6034H4.09522C4.43943 13.6034 4.73896 13.8432 4.81516 14.1779C5.00697 15.0395 5.34853 15.8643 5.81886 16.61C6.02118 16.9051 5.9844 17.303 5.73216 17.556L4.5892 18.7049L6.19987 20.3202L7.34283 19.1739C7.58456 18.9315 7.96029 18.8893 8.25194 19.0711C8.62768 19.3083 9.02707 19.5165 9.43959 19.6851C9.83109 19.8485 10.2383 19.9802 10.6535 20.0777C11.0135 20.1304 11.2841 20.4414 11.2815 20.8103V22.4335H11.5836V18.4018H11.5889L11.5863 18.4071ZM16.928 12.2042C16.8282 10.4756 15.7561 8.9552 14.1665 8.28854C12.5768 7.62187 10.7455 7.92227 9.45011 9.06324C8.15474 10.2042 7.62133 11.9855 8.07589 13.6535C8.53045 15.3241 9.89413 16.5837 11.5889 16.9078V16.0804C11.6046 14.4888 13.6305 13.1318 16.9306 12.2069L16.928 12.2042ZM52.5808 43.5402C49.7247 43.5402 47.268 45.5639 46.7136 48.3755C46.1565 51.1871 47.6595 53.9987 50.2975 55.0922C52.9355 56.1858 55.9808 55.2582 57.5652 52.8762C59.1496 50.4914 58.8343 47.3188 56.8137 45.2951C55.6918 44.17 54.1678 43.5376 52.5782 43.5402H52.5808ZM55.7706 46.3491C54.2493 44.8235 51.8661 44.5889 50.0768 45.7852C48.2901 46.9842 47.5938 49.282 48.4162 51.2767C49.2386 53.2688 51.3511 54.3992 53.4636 53.9802C55.5735 53.5586 57.0922 51.7009 57.0922 49.5428C57.0922 48.3412 56.6167 47.1897 55.7706 46.3439V46.3491ZM47.2522 40.4914V38.0145C45.9279 38.8472 44.4749 39.4506 42.951 39.7958C38.7601 40.7787 34.4641 41.2477 30.1602 41.1871C25.8537 41.2477 21.5577 40.7787 17.3668 39.7958C15.8429 39.4506 14.3898 38.8472 13.0682 38.0145V45.6482C13.0682 47.1107 16.4235 48.0777 20.1257 48.6943C23.3786 49.2003 26.663 49.4901 29.9526 49.5534H30.1628C31.0325 49.5534 33.526 49.4717 36.3559 49.1924C37.9219 49.0369 39.5956 48.8208 41.1616 48.5231V47.9513C41.1616 47.6798 41.2746 47.4163 41.4664 47.224C41.6582 47.0316 41.921 46.921 42.1916 46.921H43.6893C43.8732 46.2859 44.1281 45.6693 44.446 45.0896L43.3897 44.0303C43.3661 44.0066 43.3424 43.9802 43.324 43.9539C42.9825 43.5481 43.0114 42.9473 43.3897 42.5731L45.6336 40.3202C45.6573 40.2991 45.6836 40.2754 45.7072 40.2569C46.1145 39.917 46.7136 39.9434 47.084 40.3228L47.2548 40.4941L47.2522 40.4914ZM53.7212 39.5665H51.4457V41.1871C51.4457 41.5323 51.2066 41.83 50.8703 41.9091C50.0111 42.1015 49.1887 42.4414 48.4451 42.913C48.1508 43.1159 47.7567 43.0791 47.5044 42.8261L46.3615 41.6798L44.7508 43.2951L45.8938 44.4414C46.1355 44.6838 46.1775 45.0632 45.9962 45.3531C45.5285 46.0935 45.1922 46.9078 44.9899 47.7615C44.9347 48.1225 44.6273 48.3939 44.2595 48.3939H42.6383V50.6785H44.2542C44.5984 50.6785 44.8979 50.9183 44.9741 51.253C45.1659 52.1146 45.5075 52.9394 45.9778 53.6851C46.1775 53.9802 46.1408 54.3755 45.8911 54.6285L44.7482 55.7747L46.3588 57.39L47.5018 56.2437C47.7435 56.0013 48.1193 55.9592 48.4109 56.141C48.7867 56.3808 49.186 56.5863 49.5986 56.7576C49.9901 56.921 50.3973 57.0527 50.8125 57.1476C51.1724 57.2029 51.4431 57.5112 51.4405 57.8801V59.5138H53.7185V57.8933C53.7185 57.5481 53.9576 57.2477 54.2939 57.1713C55.1558 56.9789 55.9808 56.6364 56.727 56.1647C57.0213 55.9644 57.4154 56.0013 57.6703 56.2543L58.8133 57.4005L60.424 55.7852L59.281 54.639C59.0392 54.3939 58.9972 54.0171 59.1785 53.7246C59.6436 52.9842 59.9825 52.1726 60.1848 51.3162C60.2374 50.9552 60.5474 50.6864 60.9153 50.6864H62.5312V48.3966H60.9153C60.5711 48.3966 60.2716 48.1568 60.1954 47.8195C60.0036 46.9578 59.662 46.1357 59.1943 45.3874C58.9919 45.0922 59.0261 44.697 59.2783 44.444L60.4213 43.2978L58.8107 41.6825L57.6677 42.8287C57.4259 43.0711 57.0476 43.1133 56.7585 42.9315C56.0176 42.4651 55.2083 42.1252 54.357 41.9223C53.997 41.8696 53.7264 41.5586 53.7264 41.1897V39.5639H53.7212V39.5665ZM47.2522 28.1673C45.9306 29 44.4775 29.6061 42.9536 29.9486C38.76 30.9315 34.4667 31.4005 30.1628 31.3399C25.8563 31.4005 21.5603 30.9315 17.3694 29.9486C15.8455 29.6034 14.3924 29 13.0708 28.1673V35.7852C13.0708 36.6917 14.8549 37.6113 17.7399 38.3676C21.8099 39.3162 25.9824 39.7642 30.1654 39.7036C34.3458 39.7642 38.5183 39.3162 42.5884 38.3676C45.4655 37.614 47.2522 36.6943 47.2574 35.7879V28.1673H47.2522ZM13.0682 16.0883V16.0988C13.0761 17.0053 14.8575 17.9249 17.7373 18.6759C21.8073 19.6271 25.9798 20.0777 30.1628 20.0171C34.3432 20.0777 38.5157 19.6271 42.5857 18.6785C45.4629 17.9249 47.2496 17.0053 47.2548 16.0988V16.0883C47.2496 15.1818 45.4655 14.2622 42.5857 13.5086C38.5157 12.5599 34.3432 12.112 30.1628 12.1726C25.9798 12.112 21.8099 12.5599 17.7346 13.5112C14.8601 14.2648 13.0734 15.1818 13.0682 16.0883Z"></path></mask><path fill-rule="evenodd" clip-rule="evenodd" d="M30.1602 10.6891C34.4641 10.6311 38.7601 11.0975 42.951 12.0804C46.5086 13.0105 48.7105 14.415 48.7262 16.0751V25.9381V41.0791C48.8287 41.0316 48.9285 40.9868 49.031 40.9473C49.3384 40.8208 49.6485 40.7101 49.9664 40.6179V39.1159C49.9664 38.8419 50.0742 38.581 50.2686 38.3887C50.2922 38.3623 50.3185 38.3386 50.3474 38.3175C50.5287 38.1673 50.7573 38.083 50.9938 38.083H54.1704C54.4437 38.083 54.7038 38.1937 54.8956 38.386C55.0875 38.5784 55.1978 38.8393 55.1978 39.1107V40.6179C55.5157 40.7101 55.8258 40.8208 56.1306 40.9473C56.438 41.0738 56.7349 41.2187 57.0239 41.3768L58.0802 40.3175C58.1038 40.2938 58.1275 40.2701 58.1538 40.2517C58.5584 39.9117 59.1575 39.9407 59.5306 40.3175L61.7771 42.5705C61.7981 42.5916 61.8218 42.6153 61.8402 42.639C62.1791 43.0474 62.1528 43.6482 61.7771 44.0198L60.7209 45.0791C60.8785 45.3715 61.023 45.6693 61.1491 45.975C61.2752 46.2833 61.3856 46.5942 61.4776 46.913H62.9753C63.2459 46.913 63.506 47.0237 63.6978 47.2161C63.8896 47.4084 64 47.6719 64 47.946V51.137C64 51.4084 63.8896 51.6693 63.6978 51.8617C63.506 52.054 63.2459 52.1647 62.9753 52.1647H61.4828C61.2963 52.7997 61.044 53.4163 60.7235 53.9961L61.7824 55.058C61.806 55.0817 61.827 55.1054 61.848 55.1318C62.187 55.5402 62.1581 56.141 61.7824 56.5125L59.5359 58.7629C59.344 58.9578 59.0813 59.0659 58.808 59.0659C58.5348 59.0659 58.2746 58.9578 58.0828 58.7655L57.0266 57.7115C56.4459 58.0303 55.831 58.2833 55.1978 58.4704V59.9697C55.1978 60.2437 55.0875 60.5046 54.8956 60.6943C54.7038 60.8893 54.4437 60.9974 54.1704 61H50.9938C50.7205 61 50.4578 60.8893 50.266 60.697C50.2423 60.6733 50.2213 60.6469 50.2003 60.6206C50.0479 60.4387 49.9638 60.2069 49.9638 59.9671V58.4704C49.6459 58.3755 49.3358 58.2675 49.031 58.1383C48.7236 58.0119 48.4267 57.8669 48.1377 57.7088L47.0788 58.7681C47.0551 58.7945 47.0315 58.8156 47.0052 58.8366C46.5979 59.1766 45.9989 59.1476 45.6258 58.7708L43.3792 56.5178C43.3582 56.4941 43.3345 56.4704 43.3162 56.444C42.9746 56.0382 43.0035 55.4374 43.3792 55.0632L44.4355 54.004C44.1149 53.4216 43.8627 52.805 43.6761 52.17H42.1811C41.9104 52.17 41.6477 52.0593 41.4585 51.8669C41.2667 51.6746 41.159 51.4137 41.159 51.1423V50.025C39.6271 50.307 38.0086 50.5178 36.4978 50.6627C33.5786 50.9526 31.0378 51.0343 30.1602 51.0343C30.0551 51.0343 30.197 51.0343 29.9421 51.029C26.5763 50.9605 23.2157 50.6706 19.8892 50.1515C15.5354 49.4269 11.5889 48.0909 11.5889 45.6509V23.917H10.8374C10.5641 23.917 10.304 23.809 10.1122 23.614C9.92041 23.4242 9.81271 23.1607 9.81271 22.8893V21.3847C9.49478 21.2899 9.18471 21.1818 8.87729 21.0553C8.5725 20.9289 8.27559 20.7839 7.98393 20.6258L6.92244 21.6877C6.89879 21.7088 6.87513 21.7325 6.84886 21.751C6.44159 22.0935 5.84252 22.0646 5.46941 21.6877L3.22287 19.4348C3.03106 19.2424 2.92333 18.9816 2.92333 18.7075C2.92333 18.4335 3.03106 18.1726 3.22287 17.9802L4.27914 16.9209C4.12149 16.6285 3.97697 16.3307 3.85085 16.025C3.72473 15.7167 3.61437 15.4058 3.51978 15.087H2.02474C1.7541 15.087 1.49135 14.9763 1.30217 14.7839C1.10773 14.5916 1 14.3281 1 14.054V10.8656C1 10.5942 1.10773 10.3307 1.30217 10.1383C1.32582 10.1146 1.34944 10.0935 1.37572 10.0725C1.55964 9.91963 1.79089 9.83531 2.02737 9.83531H3.51978C3.70633 9.19763 3.95858 8.58366 4.27914 8.00395L3.22024 6.94203C2.82086 6.5415 2.82086 5.88801 3.22024 5.48485L5.46678 3.23188C5.49043 3.20817 5.51408 3.18709 5.54036 3.16601C5.94762 2.82609 6.5467 2.85507 6.91718 3.23188L7.97344 4.29117C8.55412 3.97233 9.16895 3.71937 9.80219 3.53228V2.03294C9.80219 1.75889 9.91255 1.49802 10.1044 1.3083C10.2962 1.11067 10.5589 1 10.8348 1H14.0115C14.2847 1 14.5475 1.11067 14.7393 1.30567C14.7629 1.32675 14.784 1.3531 14.805 1.37945C14.9574 1.56126 15.0414 1.79315 15.0414 2.03294V3.53228C15.6747 3.71937 16.2895 3.97233 16.8676 4.29381L17.9264 3.23452C17.9501 3.20817 17.9738 3.18709 18 3.16601C18.4073 2.82609 19.0064 2.85507 19.3768 3.23188L21.6234 5.48221C21.647 5.50856 21.6681 5.53228 21.6891 5.55863C22.028 5.96706 21.9991 6.56522 21.6234 6.93939L20.5671 7.99868C20.7221 8.29117 20.8667 8.58893 20.9928 8.8946C21.1189 9.2029 21.2293 9.51383 21.3238 9.83267H22.8189C23.0896 9.83267 23.3523 9.94335 23.5415 10.1357C23.7359 10.3281 23.8436 10.5916 23.8436 10.863V10.9921C25.809 10.7997 27.9373 10.6917 30.1549 10.6917H30.1628L30.1602 10.6891ZM30.1602 42.6548C28.8701 42.6548 27.756 43.5692 27.5064 44.8393C27.2568 46.1094 27.9321 47.3794 29.125 47.8748C30.3152 48.3702 31.692 47.9539 32.4094 46.8762C33.1267 45.8011 32.9848 44.3676 32.0704 43.4532C31.5633 42.942 30.8775 42.6574 30.1602 42.6574V42.6548ZM31.0273 44.4967C30.6148 44.083 29.9658 44.0198 29.4797 44.3465C28.9936 44.6733 28.8044 45.2978 29.0277 45.8432C29.2511 46.386 29.8291 46.6917 30.4019 46.5784C30.9747 46.4625 31.3899 45.9592 31.3899 45.3715C31.3899 45.0422 31.2611 44.7312 31.0299 44.4993L31.0273 44.4967ZM30.1602 36.7576C30.6568 36.7576 31.1035 36.4572 31.2927 35.9987C31.4845 35.5376 31.3794 35.0079 31.0299 34.6574C30.6805 34.3044 30.1523 34.1989 29.6925 34.3887C29.2327 34.5758 28.9331 35.0237 28.9331 35.5217C28.9331 35.8511 29.0566 36.1621 29.2879 36.3939C29.5191 36.6258 29.8317 36.7549 30.1576 36.7549L30.1602 36.7576ZM32.073 37.4453C32.9848 36.5283 33.124 35.0949 32.412 34.0198C31.6946 32.9447 30.3178 32.5257 29.1276 33.0211C27.9347 33.5165 27.2594 34.7866 27.5117 36.0567C27.7639 37.3241 28.8727 38.2385 30.1628 38.2385C30.8801 38.2385 31.5685 37.9539 32.073 37.4427V37.4453ZM30.1602 22.9684C28.8701 22.9684 27.756 23.8801 27.5064 25.1502C27.2542 26.4177 27.9321 27.6904 29.125 28.1858C30.3152 28.6812 31.692 28.2648 32.4094 27.1871C33.1267 26.1094 32.9848 24.6785 32.0704 23.7642C31.5633 23.253 30.8775 22.9657 30.1602 22.9684ZM31.0273 24.8103C30.6148 24.3939 29.9658 24.3307 29.4797 24.6574C28.9936 24.9842 28.8044 25.6087 29.0277 26.1542C29.2511 26.697 29.8291 27.0026 30.4019 26.8893C30.9747 26.7734 31.3899 26.2701 31.3899 25.6825C31.3899 25.3531 31.2611 25.0422 31.0299 24.8129L31.0273 24.8103ZM9.5946 31.8669L6.38378 27.3557C6.24978 27.1397 6.0133 27.0105 5.75843 27.0105C5.50356 27.0105 5.26708 27.1397 5.13308 27.3557L1.92226 31.8669C1.69892 32.1989 1.78299 32.6495 2.10617 32.8814C2.43199 33.1133 2.88392 33.0422 3.12302 32.7233L5.02271 30.0567V53.9065C5.02271 55.3874 6.22087 56.5863 7.69491 56.5889H23.3654C23.5651 56.5942 23.7569 56.5178 23.9015 56.3781C24.046 56.2411 24.1274 56.0461 24.1274 55.8459C24.1274 55.6456 24.046 55.4559 23.9015 55.3136C23.7596 55.1766 23.5651 55.1001 23.3654 55.1054H7.69491C7.0354 55.1054 6.49937 54.5652 6.49675 53.9038V30.0567L8.39647 32.7233C8.63557 33.0448 9.08751 33.1133 9.41332 32.8814C9.73913 32.6469 9.82057 32.1989 9.59723 31.8643L9.5946 31.8669ZM50.7258 29.8564L53.9366 34.3676C54.0706 34.5837 54.3071 34.7128 54.5619 34.7128C54.8168 34.7128 55.0507 34.5837 55.1847 34.3676L58.3981 29.8564C58.6267 29.5217 58.5479 29.0659 58.2195 28.8314C57.891 28.5968 57.4338 28.6733 57.1974 28.9974L55.2977 31.664V7.81686C55.2977 6.33597 54.0995 5.13966 52.6228 5.13702H36.9549C36.7553 5.13175 36.5635 5.20817 36.4163 5.34519C36.2744 5.48485 36.193 5.67721 36.193 5.87747C36.193 6.07773 36.2744 6.27009 36.4163 6.40975C36.5608 6.54941 36.7553 6.62582 36.9549 6.61792H52.6228C53.285 6.61792 53.821 7.1581 53.8236 7.8195V31.6693L51.9239 29.0026C51.8109 28.8366 51.6401 28.7207 51.4431 28.6838C51.2486 28.6469 51.0463 28.6943 50.8834 28.8076C50.7205 28.9236 50.6102 29.1028 50.5812 29.2978C50.5497 29.4954 50.6023 29.6957 50.7205 29.8564H50.7258ZM13.1969 18.415L13.0682 18.4308V25.946C13.0734 26.8524 14.8549 27.7721 17.7373 28.5257C21.8073 29.4743 25.9798 29.9249 30.1628 29.8643C34.3432 29.9249 38.5157 29.4743 42.5857 28.5231C45.4629 27.7694 47.2496 26.8498 47.2548 25.9433V18.3228C45.9358 19.1555 44.4801 19.7589 42.9562 20.1041C38.7653 21.087 34.4693 21.556 30.1654 21.4954C25.8616 21.556 21.5629 21.087 17.372 20.1041C15.9006 19.7642 14.4949 19.195 13.2022 18.4124L13.1969 18.415ZM11.5863 18.4071C9.31873 18.0856 7.43217 16.4967 6.72537 14.3123C6.01857 12.1278 6.61501 9.73254 8.26246 8.13834C9.90992 6.54414 12.3194 6.0303 14.4713 6.81818C16.6232 7.60606 18.1393 9.55336 18.3758 11.8379C19.2455 11.643 20.1835 11.469 21.1846 11.3188H20.751C20.4068 11.3188 20.1099 11.0764 20.0337 10.7418C19.8393 9.88011 19.5004 9.05534 19.03 8.30962C18.8277 8.01449 18.8645 7.61924 19.1167 7.36627L20.2597 6.22003L18.649 4.60474L17.5061 5.75099C17.2643 5.99341 16.8886 6.03557 16.5969 5.85375C15.8586 5.38472 15.0493 5.0448 14.1954 4.84453C13.8354 4.79183 13.5674 4.4809 13.5674 4.11199V2.48617H11.2867V4.10672C11.2867 4.45191 11.0476 4.75231 10.7113 4.82872C9.8521 5.02108 9.02969 5.361 8.28347 5.83531C7.98919 6.03557 7.59507 6.00132 7.34283 5.74835L6.19987 4.59947L4.5892 6.21476L5.73216 7.361C5.97389 7.60606 6.01594 7.98287 5.83464 8.27536C5.36694 9.01845 5.02797 9.83004 4.82828 10.6864C4.7731 11.0501 4.46308 11.3188 4.09522 11.3188H2.47929V13.6034H4.09522C4.43943 13.6034 4.73896 13.8432 4.81516 14.1779C5.00697 15.0395 5.34853 15.8643 5.81886 16.61C6.02118 16.9051 5.9844 17.303 5.73216 17.556L4.5892 18.7049L6.19987 20.3202L7.34283 19.1739C7.58456 18.9315 7.96029 18.8893 8.25194 19.0711C8.62768 19.3083 9.02707 19.5165 9.43959 19.6851C9.83109 19.8485 10.2383 19.9802 10.6535 20.0777C11.0135 20.1304 11.2841 20.4414 11.2815 20.8103V22.4335H11.5836V18.4018H11.5889L11.5863 18.4071ZM16.928 12.2042C16.8282 10.4756 15.7561 8.9552 14.1665 8.28854C12.5768 7.62187 10.7455 7.92227 9.45011 9.06324C8.15474 10.2042 7.62133 11.9855 8.07589 13.6535C8.53045 15.3241 9.89413 16.5837 11.5889 16.9078V16.0804C11.6046 14.4888 13.6305 13.1318 16.9306 12.2069L16.928 12.2042ZM52.5808 43.5402C49.7247 43.5402 47.268 45.5639 46.7136 48.3755C46.1565 51.1871 47.6595 53.9987 50.2975 55.0922C52.9355 56.1858 55.9808 55.2582 57.5652 52.8762C59.1496 50.4914 58.8343 47.3188 56.8137 45.2951C55.6918 44.17 54.1678 43.5376 52.5782 43.5402H52.5808ZM55.7706 46.3491C54.2493 44.8235 51.8661 44.5889 50.0768 45.7852C48.2901 46.9842 47.5938 49.282 48.4162 51.2767C49.2386 53.2688 51.3511 54.3992 53.4636 53.9802C55.5735 53.5586 57.0922 51.7009 57.0922 49.5428C57.0922 48.3412 56.6167 47.1897 55.7706 46.3439V46.3491ZM47.2522 40.4914V38.0145C45.9279 38.8472 44.4749 39.4506 42.951 39.7958C38.7601 40.7787 34.4641 41.2477 30.1602 41.1871C25.8537 41.2477 21.5577 40.7787 17.3668 39.7958C15.8429 39.4506 14.3898 38.8472 13.0682 38.0145V45.6482C13.0682 47.1107 16.4235 48.0777 20.1257 48.6943C23.3786 49.2003 26.663 49.4901 29.9526 49.5534H30.1628C31.0325 49.5534 33.526 49.4717 36.3559 49.1924C37.9219 49.0369 39.5956 48.8208 41.1616 48.5231V47.9513C41.1616 47.6798 41.2746 47.4163 41.4664 47.224C41.6582 47.0316 41.921 46.921 42.1916 46.921H43.6893C43.8732 46.2859 44.1281 45.6693 44.446 45.0896L43.3897 44.0303C43.3661 44.0066 43.3424 43.9802 43.324 43.9539C42.9825 43.5481 43.0114 42.9473 43.3897 42.5731L45.6336 40.3202C45.6573 40.2991 45.6836 40.2754 45.7072 40.2569C46.1145 39.917 46.7136 39.9434 47.084 40.3228L47.2548 40.4941L47.2522 40.4914ZM53.7212 39.5665H51.4457V41.1871C51.4457 41.5323 51.2066 41.83 50.8703 41.9091C50.0111 42.1015 49.1887 42.4414 48.4451 42.913C48.1508 43.1159 47.7567 43.0791 47.5044 42.8261L46.3615 41.6798L44.7508 43.2951L45.8938 44.4414C46.1355 44.6838 46.1775 45.0632 45.9962 45.3531C45.5285 46.0935 45.1922 46.9078 44.9899 47.7615C44.9347 48.1225 44.6273 48.3939 44.2595 48.3939H42.6383V50.6785H44.2542C44.5984 50.6785 44.8979 50.9183 44.9741 51.253C45.1659 52.1146 45.5075 52.9394 45.9778 53.6851C46.1775 53.9802 46.1408 54.3755 45.8911 54.6285L44.7482 55.7747L46.3588 57.39L47.5018 56.2437C47.7435 56.0013 48.1193 55.9592 48.4109 56.141C48.7867 56.3808 49.186 56.5863 49.5986 56.7576C49.9901 56.921 50.3973 57.0527 50.8125 57.1476C51.1724 57.2029 51.4431 57.5112 51.4405 57.8801V59.5138H53.7185V57.8933C53.7185 57.5481 53.9576 57.2477 54.2939 57.1713C55.1558 56.9789 55.9808 56.6364 56.727 56.1647C57.0213 55.9644 57.4154 56.0013 57.6703 56.2543L58.8133 57.4005L60.424 55.7852L59.281 54.639C59.0392 54.3939 58.9972 54.0171 59.1785 53.7246C59.6436 52.9842 59.9825 52.1726 60.1848 51.3162C60.2374 50.9552 60.5474 50.6864 60.9153 50.6864H62.5312V48.3966H60.9153C60.5711 48.3966 60.2716 48.1568 60.1954 47.8195C60.0036 46.9578 59.662 46.1357 59.1943 45.3874C58.9919 45.0922 59.0261 44.697 59.2783 44.444L60.4213 43.2978L58.8107 41.6825L57.6677 42.8287C57.4259 43.0711 57.0476 43.1133 56.7585 42.9315C56.0176 42.4651 55.2083 42.1252 54.357 41.9223C53.997 41.8696 53.7264 41.5586 53.7264 41.1897V39.5639H53.7212V39.5665ZM47.2522 28.1673C45.9306 29 44.4775 29.6061 42.9536 29.9486C38.76 30.9315 34.4667 31.4005 30.1628 31.3399C25.8563 31.4005 21.5603 30.9315 17.3694 29.9486C15.8455 29.6034 14.3924 29 13.0708 28.1673V35.7852C13.0708 36.6917 14.8549 37.6113 17.7399 38.3676C21.8099 39.3162 25.9824 39.7642 30.1654 39.7036C34.3458 39.7642 38.5183 39.3162 42.5884 38.3676C45.4655 37.614 47.2522 36.6943 47.2574 35.7879V28.1673H47.2522ZM13.0682 16.0883V16.0988C13.0761 17.0053 14.8575 17.9249 17.7373 18.6759C21.8073 19.6271 25.9798 20.0777 30.1628 20.0171C34.3432 20.0777 38.5157 19.6271 42.5857 18.6785C45.4629 17.9249 47.2496 17.0053 47.2548 16.0988V16.0883C47.2496 15.1818 45.4655 14.2622 42.5857 13.5086C38.5157 12.5599 34.3432 12.112 30.1628 12.1726C25.9798 12.112 21.8099 12.5599 17.7346 13.5112C14.8601 14.2648 13.0734 15.1818 13.0682 16.0883Z" fill="#0096A3"></path><path fill-rule="evenodd" clip-rule="evenodd" d="M30.1602 10.6891C34.4641 10.6311 38.7601 11.0975 42.951 12.0804C46.5086 13.0105 48.7105 14.415 48.7262 16.0751V25.9381V41.0791C48.8287 41.0316 48.9285 40.9868 49.031 40.9473C49.3384 40.8208 49.6485 40.7101 49.9664 40.6179V39.1159C49.9664 38.8419 50.0742 38.581 50.2686 38.3887C50.2922 38.3623 50.3185 38.3386 50.3474 38.3175C50.5287 38.1673 50.7573 38.083 50.9938 38.083H54.1704C54.4437 38.083 54.7038 38.1937 54.8956 38.386C55.0875 38.5784 55.1978 38.8393 55.1978 39.1107V40.6179C55.5157 40.7101 55.8258 40.8208 56.1306 40.9473C56.438 41.0738 56.7349 41.2187 57.0239 41.3768L58.0802 40.3175C58.1038 40.2938 58.1275 40.2701 58.1538 40.2517C58.5584 39.9117 59.1575 39.9407 59.5306 40.3175L61.7771 42.5705C61.7981 42.5916 61.8218 42.6153 61.8402 42.639C62.1791 43.0474 62.1528 43.6482 61.7771 44.0198L60.7209 45.0791C60.8785 45.3715 61.023 45.6693 61.1491 45.975C61.2752 46.2833 61.3856 46.5942 61.4776 46.913H62.9753C63.2459 46.913 63.506 47.0237 63.6978 47.2161C63.8896 47.4084 64 47.6719 64 47.946V51.137C64 51.4084 63.8896 51.6693 63.6978 51.8617C63.506 52.054 63.2459 52.1647 62.9753 52.1647H61.4828C61.2963 52.7997 61.044 53.4163 60.7235 53.9961L61.7824 55.058C61.806 55.0817 61.827 55.1054 61.848 55.1318C62.187 55.5402 62.1581 56.141 61.7824 56.5125L59.5359 58.7629C59.344 58.9578 59.0813 59.0659 58.808 59.0659C58.5348 59.0659 58.2746 58.9578 58.0828 58.7655L57.0266 57.7115C56.4459 58.0303 55.831 58.2833 55.1978 58.4704V59.9697C55.1978 60.2437 55.0875 60.5046 54.8956 60.6943C54.7038 60.8893 54.4437 60.9974 54.1704 61H50.9938C50.7205 61 50.4578 60.8893 50.266 60.697C50.2423 60.6733 50.2213 60.6469 50.2003 60.6206C50.0479 60.4387 49.9638 60.2069 49.9638 59.9671V58.4704C49.6459 58.3755 49.3358 58.2675 49.031 58.1383C48.7236 58.0119 48.4267 57.8669 48.1377 57.7088L47.0788 58.7681C47.0551 58.7945 47.0315 58.8156 47.0052 58.8366C46.5979 59.1766 45.9989 59.1476 45.6258 58.7708L43.3792 56.5178C43.3582 56.4941 43.3345 56.4704 43.3162 56.444C42.9746 56.0382 43.0035 55.4374 43.3792 55.0632L44.4355 54.004C44.1149 53.4216 43.8627 52.805 43.6761 52.17H42.1811C41.9104 52.17 41.6477 52.0593 41.4585 51.8669C41.2667 51.6746 41.159 51.4137 41.159 51.1423V50.025C39.6271 50.307 38.0086 50.5178 36.4978 50.6627C33.5786 50.9526 31.0378 51.0343 30.1602 51.0343C30.0551 51.0343 30.197 51.0343 29.9421 51.029C26.5763 50.9605 23.2157 50.6706 19.8892 50.1515C15.5354 49.4269 11.5889 48.0909 11.5889 45.6509V23.917H10.8374C10.5641 23.917 10.304 23.809 10.1122 23.614C9.92041 23.4242 9.81271 23.1607 9.81271 22.8893V21.3847C9.49478 21.2899 9.18471 21.1818 8.87729 21.0553C8.5725 20.9289 8.27559 20.7839 7.98393 20.6258L6.92244 21.6877C6.89879 21.7088 6.87513 21.7325 6.84886 21.751C6.44159 22.0935 5.84252 22.0646 5.46941 21.6877L3.22287 19.4348C3.03106 19.2424 2.92333 18.9816 2.92333 18.7075C2.92333 18.4335 3.03106 18.1726 3.22287 17.9802L4.27914 16.9209C4.12149 16.6285 3.97697 16.3307 3.85085 16.025C3.72473 15.7167 3.61437 15.4058 3.51978 15.087H2.02474C1.7541 15.087 1.49135 14.9763 1.30217 14.7839C1.10773 14.5916 1 14.3281 1 14.054V10.8656C1 10.5942 1.10773 10.3307 1.30217 10.1383C1.32582 10.1146 1.34944 10.0935 1.37572 10.0725C1.55964 9.91963 1.79089 9.83531 2.02737 9.83531H3.51978C3.70633 9.19763 3.95858 8.58366 4.27914 8.00395L3.22024 6.94203C2.82086 6.5415 2.82086 5.88801 3.22024 5.48485L5.46678 3.23188C5.49043 3.20817 5.51408 3.18709 5.54036 3.16601C5.94762 2.82609 6.5467 2.85507 6.91718 3.23188L7.97344 4.29117C8.55412 3.97233 9.16895 3.71937 9.80219 3.53228V2.03294C9.80219 1.75889 9.91255 1.49802 10.1044 1.3083C10.2962 1.11067 10.5589 1 10.8348 1H14.0115C14.2847 1 14.5475 1.11067 14.7393 1.30567C14.7629 1.32675 14.784 1.3531 14.805 1.37945C14.9574 1.56126 15.0414 1.79315 15.0414 2.03294V3.53228C15.6747 3.71937 16.2895 3.97233 16.8676 4.29381L17.9264 3.23452C17.9501 3.20817 17.9738 3.18709 18 3.16601C18.4073 2.82609 19.0064 2.85507 19.3768 3.23188L21.6234 5.48221C21.647 5.50856 21.6681 5.53228 21.6891 5.55863C22.028 5.96706 21.9991 6.56522 21.6234 6.93939L20.5671 7.99868C20.7221 8.29117 20.8667 8.58893 20.9928 8.8946C21.1189 9.2029 21.2293 9.51383 21.3238 9.83267H22.8189C23.0896 9.83267 23.3523 9.94335 23.5415 10.1357C23.7359 10.3281 23.8436 10.5916 23.8436 10.863V10.9921C25.809 10.7997 27.9373 10.6917 30.1549 10.6917H30.1628L30.1602 10.6891ZM30.1602 42.6548C28.8701 42.6548 27.756 43.5692 27.5064 44.8393C27.2568 46.1094 27.9321 47.3794 29.125 47.8748C30.3152 48.3702 31.692 47.9539 32.4094 46.8762C33.1267 45.8011 32.9848 44.3676 32.0704 43.4532C31.5633 42.942 30.8775 42.6574 30.1602 42.6574V42.6548ZM31.0273 44.4967C30.6148 44.083 29.9658 44.0198 29.4797 44.3465C28.9936 44.6733 28.8044 45.2978 29.0277 45.8432C29.2511 46.386 29.8291 46.6917 30.4019 46.5784C30.9747 46.4625 31.3899 45.9592 31.3899 45.3715C31.3899 45.0422 31.2611 44.7312 31.0299 44.4993L31.0273 44.4967ZM30.1602 36.7576C30.6568 36.7576 31.1035 36.4572 31.2927 35.9987C31.4845 35.5376 31.3794 35.0079 31.0299 34.6574C30.6805 34.3044 30.1523 34.1989 29.6925 34.3887C29.2327 34.5758 28.9331 35.0237 28.9331 35.5217C28.9331 35.8511 29.0566 36.1621 29.2879 36.3939C29.5191 36.6258 29.8317 36.7549 30.1576 36.7549L30.1602 36.7576ZM32.073 37.4453C32.9848 36.5283 33.124 35.0949 32.412 34.0198C31.6946 32.9447 30.3178 32.5257 29.1276 33.0211C27.9347 33.5165 27.2594 34.7866 27.5117 36.0567C27.7639 37.3241 28.8727 38.2385 30.1628 38.2385C30.8801 38.2385 31.5685 37.9539 32.073 37.4427V37.4453ZM30.1602 22.9684C28.8701 22.9684 27.756 23.8801 27.5064 25.1502C27.2542 26.4177 27.9321 27.6904 29.125 28.1858C30.3152 28.6812 31.692 28.2648 32.4094 27.1871C33.1267 26.1094 32.9848 24.6785 32.0704 23.7642C31.5633 23.253 30.8775 22.9657 30.1602 22.9684ZM31.0273 24.8103C30.6148 24.3939 29.9658 24.3307 29.4797 24.6574C28.9936 24.9842 28.8044 25.6087 29.0277 26.1542C29.2511 26.697 29.8291 27.0026 30.4019 26.8893C30.9747 26.7734 31.3899 26.2701 31.3899 25.6825C31.3899 25.3531 31.2611 25.0422 31.0299 24.8129L31.0273 24.8103ZM9.5946 31.8669L6.38378 27.3557C6.24978 27.1397 6.0133 27.0105 5.75843 27.0105C5.50356 27.0105 5.26708 27.1397 5.13308 27.3557L1.92226 31.8669C1.69892 32.1989 1.78299 32.6495 2.10617 32.8814C2.43199 33.1133 2.88392 33.0422 3.12302 32.7233L5.02271 30.0567V53.9065C5.02271 55.3874 6.22087 56.5863 7.69491 56.5889H23.3654C23.5651 56.5942 23.7569 56.5178 23.9015 56.3781C24.046 56.2411 24.1274 56.0461 24.1274 55.8459C24.1274 55.6456 24.046 55.4559 23.9015 55.3136C23.7596 55.1766 23.5651 55.1001 23.3654 55.1054H7.69491C7.0354 55.1054 6.49937 54.5652 6.49675 53.9038V30.0567L8.39647 32.7233C8.63557 33.0448 9.08751 33.1133 9.41332 32.8814C9.73913 32.6469 9.82057 32.1989 9.59723 31.8643L9.5946 31.8669ZM50.7258 29.8564L53.9366 34.3676C54.0706 34.5837 54.3071 34.7128 54.5619 34.7128C54.8168 34.7128 55.0507 34.5837 55.1847 34.3676L58.3981 29.8564C58.6267 29.5217 58.5479 29.0659 58.2195 28.8314C57.891 28.5968 57.4338 28.6733 57.1974 28.9974L55.2977 31.664V7.81686C55.2977 6.33597 54.0995 5.13966 52.6228 5.13702H36.9549C36.7553 5.13175 36.5635 5.20817 36.4163 5.34519C36.2744 5.48485 36.193 5.67721 36.193 5.87747C36.193 6.07773 36.2744 6.27009 36.4163 6.40975C36.5608 6.54941 36.7553 6.62582 36.9549 6.61792H52.6228C53.285 6.61792 53.821 7.1581 53.8236 7.8195V31.6693L51.9239 29.0026C51.8109 28.8366 51.6401 28.7207 51.4431 28.6838C51.2486 28.6469 51.0463 28.6943 50.8834 28.8076C50.7205 28.9236 50.6102 29.1028 50.5812 29.2978C50.5497 29.4954 50.6023 29.6957 50.7205 29.8564H50.7258ZM13.1969 18.415L13.0682 18.4308V25.946C13.0734 26.8524 14.8549 27.7721 17.7373 28.5257C21.8073 29.4743 25.9798 29.9249 30.1628 29.8643C34.3432 29.9249 38.5157 29.4743 42.5857 28.5231C45.4629 27.7694 47.2496 26.8498 47.2548 25.9433V18.3228C45.9358 19.1555 44.4801 19.7589 42.9562 20.1041C38.7653 21.087 34.4693 21.556 30.1654 21.4954C25.8616 21.556 21.5629 21.087 17.372 20.1041C15.9006 19.7642 14.4949 19.195 13.2022 18.4124L13.1969 18.415ZM11.5863 18.4071C9.31873 18.0856 7.43217 16.4967 6.72537 14.3123C6.01857 12.1278 6.61501 9.73254 8.26246 8.13834C9.90992 6.54414 12.3194 6.0303 14.4713 6.81818C16.6232 7.60606 18.1393 9.55336 18.3758 11.8379C19.2455 11.643 20.1835 11.469 21.1846 11.3188H20.751C20.4068 11.3188 20.1099 11.0764 20.0337 10.7418C19.8393 9.88011 19.5004 9.05534 19.03 8.30962C18.8277 8.01449 18.8645 7.61924 19.1167 7.36627L20.2597 6.22003L18.649 4.60474L17.5061 5.75099C17.2643 5.99341 16.8886 6.03557 16.5969 5.85375C15.8586 5.38472 15.0493 5.0448 14.1954 4.84453C13.8354 4.79183 13.5674 4.4809 13.5674 4.11199V2.48617H11.2867V4.10672C11.2867 4.45191 11.0476 4.75231 10.7113 4.82872C9.8521 5.02108 9.02969 5.361 8.28347 5.83531C7.98919 6.03557 7.59507 6.00132 7.34283 5.74835L6.19987 4.59947L4.5892 6.21476L5.73216 7.361C5.97389 7.60606 6.01594 7.98287 5.83464 8.27536C5.36694 9.01845 5.02797 9.83004 4.82828 10.6864C4.7731 11.0501 4.46308 11.3188 4.09522 11.3188H2.47929V13.6034H4.09522C4.43943 13.6034 4.73896 13.8432 4.81516 14.1779C5.00697 15.0395 5.34853 15.8643 5.81886 16.61C6.02118 16.9051 5.9844 17.303 5.73216 17.556L4.5892 18.7049L6.19987 20.3202L7.34283 19.1739C7.58456 18.9315 7.96029 18.8893 8.25194 19.0711C8.62768 19.3083 9.02707 19.5165 9.43959 19.6851C9.83109 19.8485 10.2383 19.9802 10.6535 20.0777C11.0135 20.1304 11.2841 20.4414 11.2815 20.8103V22.4335H11.5836V18.4018H11.5889L11.5863 18.4071ZM16.928 12.2042C16.8282 10.4756 15.7561 8.9552 14.1665 8.28854C12.5768 7.62187 10.7455 7.92227 9.45011 9.06324C8.15474 10.2042 7.62133 11.9855 8.07589 13.6535C8.53045 15.3241 9.89413 16.5837 11.5889 16.9078V16.0804C11.6046 14.4888 13.6305 13.1318 16.9306 12.2069L16.928 12.2042ZM52.5808 43.5402C49.7247 43.5402 47.268 45.5639 46.7136 48.3755C46.1565 51.1871 47.6595 53.9987 50.2975 55.0922C52.9355 56.1858 55.9808 55.2582 57.5652 52.8762C59.1496 50.4914 58.8343 47.3188 56.8137 45.2951C55.6918 44.17 54.1678 43.5376 52.5782 43.5402H52.5808ZM55.7706 46.3491C54.2493 44.8235 51.8661 44.5889 50.0768 45.7852C48.2901 46.9842 47.5938 49.282 48.4162 51.2767C49.2386 53.2688 51.3511 54.3992 53.4636 53.9802C55.5735 53.5586 57.0922 51.7009 57.0922 49.5428C57.0922 48.3412 56.6167 47.1897 55.7706 46.3439V46.3491ZM47.2522 40.4914V38.0145C45.9279 38.8472 44.4749 39.4506 42.951 39.7958C38.7601 40.7787 34.4641 41.2477 30.1602 41.1871C25.8537 41.2477 21.5577 40.7787 17.3668 39.7958C15.8429 39.4506 14.3898 38.8472 13.0682 38.0145V45.6482C13.0682 47.1107 16.4235 48.0777 20.1257 48.6943C23.3786 49.2003 26.663 49.4901 29.9526 49.5534H30.1628C31.0325 49.5534 33.526 49.4717 36.3559 49.1924C37.9219 49.0369 39.5956 48.8208 41.1616 48.5231V47.9513C41.1616 47.6798 41.2746 47.4163 41.4664 47.224C41.6582 47.0316 41.921 46.921 42.1916 46.921H43.6893C43.8732 46.2859 44.1281 45.6693 44.446 45.0896L43.3897 44.0303C43.3661 44.0066 43.3424 43.9802 43.324 43.9539C42.9825 43.5481 43.0114 42.9473 43.3897 42.5731L45.6336 40.3202C45.6573 40.2991 45.6836 40.2754 45.7072 40.2569C46.1145 39.917 46.7136 39.9434 47.084 40.3228L47.2548 40.4941L47.2522 40.4914ZM53.7212 39.5665H51.4457V41.1871C51.4457 41.5323 51.2066 41.83 50.8703 41.9091C50.0111 42.1015 49.1887 42.4414 48.4451 42.913C48.1508 43.1159 47.7567 43.0791 47.5044 42.8261L46.3615 41.6798L44.7508 43.2951L45.8938 44.4414C46.1355 44.6838 46.1775 45.0632 45.9962 45.3531C45.5285 46.0935 45.1922 46.9078 44.9899 47.7615C44.9347 48.1225 44.6273 48.3939 44.2595 48.3939H42.6383V50.6785H44.2542C44.5984 50.6785 44.8979 50.9183 44.9741 51.253C45.1659 52.1146 45.5075 52.9394 45.9778 53.6851C46.1775 53.9802 46.1408 54.3755 45.8911 54.6285L44.7482 55.7747L46.3588 57.39L47.5018 56.2437C47.7435 56.0013 48.1193 55.9592 48.4109 56.141C48.7867 56.3808 49.186 56.5863 49.5986 56.7576C49.9901 56.921 50.3973 57.0527 50.8125 57.1476C51.1724 57.2029 51.4431 57.5112 51.4405 57.8801V59.5138H53.7185V57.8933C53.7185 57.5481 53.9576 57.2477 54.2939 57.1713C55.1558 56.9789 55.9808 56.6364 56.727 56.1647C57.0213 55.9644 57.4154 56.0013 57.6703 56.2543L58.8133 57.4005L60.424 55.7852L59.281 54.639C59.0392 54.3939 58.9972 54.0171 59.1785 53.7246C59.6436 52.9842 59.9825 52.1726 60.1848 51.3162C60.2374 50.9552 60.5474 50.6864 60.9153 50.6864H62.5312V48.3966H60.9153C60.5711 48.3966 60.2716 48.1568 60.1954 47.8195C60.0036 46.9578 59.662 46.1357 59.1943 45.3874C58.9919 45.0922 59.0261 44.697 59.2783 44.444L60.4213 43.2978L58.8107 41.6825L57.6677 42.8287C57.4259 43.0711 57.0476 43.1133 56.7585 42.9315C56.0176 42.4651 55.2083 42.1252 54.357 41.9223C53.997 41.8696 53.7264 41.5586 53.7264 41.1897V39.5639H53.7212V39.5665ZM47.2522 28.1673C45.9306 29 44.4775 29.6061 42.9536 29.9486C38.76 30.9315 34.4667 31.4005 30.1628 31.3399C25.8563 31.4005 21.5603 30.9315 17.3694 29.9486C15.8455 29.6034 14.3924 29 13.0708 28.1673V35.7852C13.0708 36.6917 14.8549 37.6113 17.7399 38.3676C21.8099 39.3162 25.9824 39.7642 30.1654 39.7036C34.3458 39.7642 38.5183 39.3162 42.5884 38.3676C45.4655 37.614 47.2522 36.6943 47.2574 35.7879V28.1673H47.2522ZM13.0682 16.0883V16.0988C13.0761 17.0053 14.8575 17.9249 17.7373 18.6759C21.8073 19.6271 25.9798 20.0777 30.1628 20.0171C34.3432 20.0777 38.5157 19.6271 42.5857 18.6785C45.4629 17.9249 47.2496 17.0053 47.2548 16.0988V16.0883C47.2496 15.1818 45.4655 14.2622 42.5857 13.5086C38.5157 12.5599 34.3432 12.112 30.1628 12.1726C25.9798 12.112 21.8099 12.5599 17.7346 13.5112C14.8601 14.2648 13.0734 15.1818 13.0682 16.0883Z" stroke="#0096A3" stroke-width="0.4" mask="url(#path-1-outside-1_2001_33)"></path></svg>