<svg width="59" height="62" viewBox="0 0 59 62" fill="none" xmlns="http://www.w3.org/2000/svg"><mask id="path-1-outside-1_2002_140" maskUnits="userSpaceOnUse" x="0" y="0" width="59" height="62" fill="black"><rect fill="white" width="59" height="62"></rect><path d="M54.1011 37.6818C51.8897 37.475 49.8822 38.9821 49.4713 41.1598H47.4733V31.8006H49.4745C49.854 33.8278 51.6262 35.3005 53.6933 35.2974C55.3558 35.2974 56.8708 34.3354 57.5765 32.8314C58.2823 31.3274 58.0565 29.5508 56.9994 28.2693C55.9392 26.9909 54.2328 26.4363 52.6206 26.8499C51.0083 27.2604 49.7819 28.567 49.4682 30.1994H47.4701V20.8371H49.4682C49.8822 23.0179 51.8866 24.525 54.0979 24.3182C56.3125 24.1114 58 22.2565 58 20.0381C58 17.8197 56.3093 15.9648 54.0979 15.758C51.8866 15.5512 49.8822 17.0614 49.4682 19.2391H47.4701V4.27433C47.4638 2.4664 45.999 1.00313 44.1923 1H14.8109C13.0041 1 11.5393 2.4664 11.533 4.27433V19.2359H9.53495C9.12091 17.0552 7.11656 15.548 4.90519 15.7548C2.69068 15.9616 1.00314 17.8165 1.00314 20.0349C1.00314 22.2533 2.69382 24.1083 4.90519 24.3151C7.11656 24.5219 9.12091 23.0116 9.53495 20.8339H11.533V30.1963H9.53495C9.22442 28.5607 7.99797 27.251 6.37944 26.8343C4.76718 26.4207 3.05454 26.9752 1.99121 28.2568C0.931003 29.5414 0.702016 31.3212 1.41405 32.8252C2.12608 34.3323 3.64423 35.2942 5.30981 35.2942C7.37689 35.2942 9.15227 33.8247 9.52867 31.7943H11.5299V41.1567H9.53181C9.11777 38.9759 7.11342 37.4687 4.90205 37.6755C2.68754 37.8823 1 39.7373 1 41.9557C1 44.1741 2.69068 46.029 4.90205 46.2358C7.11342 46.4426 9.11777 44.9323 9.53181 42.7547H11.5299V57.7257C11.5362 59.5305 13.001 60.9937 14.8077 61H44.1891C45.9959 60.9937 47.4607 59.5305 47.467 57.7257V42.7609H49.465C49.876 44.9417 51.8834 46.4489 54.0948 46.2389C56.3062 46.0321 57.9969 44.1803 57.9969 41.9619C57.9969 39.7436 56.3062 37.8855 54.0948 37.6818H54.1011ZM50.9895 30.964C50.9958 30.1462 51.3753 29.3785 52.0215 28.8772C52.7084 28.3351 53.618 28.1597 54.4555 28.4072C55.2962 28.6516 55.9643 29.2908 56.2529 30.118C56.5383 30.942 56.4066 31.857 55.8984 32.5682C55.3903 33.2826 54.5684 33.7025 53.6933 33.7025C52.9687 33.7025 52.2724 33.4174 51.7642 32.9004C51.2561 32.3834 50.9769 31.6846 50.9895 30.9608V30.964ZM52.6645 17.5439C53.6745 17.1241 54.8351 17.3559 55.6098 18.1299C56.6638 19.1858 56.6638 20.8935 55.6098 21.9494C54.8351 22.7233 53.6745 22.9521 52.6645 22.5353C51.6545 22.1155 50.9926 21.1316 50.9926 20.0381C50.9926 18.9445 51.6513 17.9638 52.6645 17.5439ZM6.34806 22.5353C5.33804 22.9521 4.17434 22.7202 3.39958 21.9494C2.62795 21.1755 2.39584 20.0161 2.81302 19.0072C3.2302 17.9983 4.2151 17.3372 5.30667 17.3372C6.79974 17.3372 8.0105 18.5466 8.01364 20.0381C8.01364 21.1316 7.35495 22.1155 6.34494 22.5353H6.34806ZM5.31295 33.7025C4.43782 33.7025 3.61601 33.2795 3.10787 32.5682C2.59972 31.857 2.46798 30.942 2.75656 30.118C3.042 29.2908 3.71011 28.6516 4.55074 28.4072C5.39137 28.1597 6.29788 28.3351 6.98796 28.874C7.65294 29.391 8.0356 30.1932 8.01678 31.0329C8.0011 32.5118 6.79661 33.7056 5.31295 33.7056V33.7025ZM6.34806 44.4561C5.33804 44.8759 4.17434 44.6472 3.39958 43.8733C2.62481 43.1025 2.3927 41.94 2.80988 40.9311C3.2302 39.9221 4.2151 39.261 5.30667 39.2579C6.79974 39.2579 8.0105 40.4674 8.01364 41.9619C8.01364 43.0555 7.35809 44.0393 6.34494 44.4592L6.34806 44.4561ZM36.5481 2.60112L33.5181 5.02945C32.8437 5.59971 31.9843 5.90992 31.0997 5.89425H27.1945C26.1876 5.90365 25.2247 5.51199 24.5158 4.80072L22.1946 2.60112H36.5513H36.5481ZM13.1327 4.27746C13.139 3.35313 13.8855 2.60426 14.8109 2.60112H19.8735L23.4148 5.95692C24.4217 6.95018 25.7799 7.50479 27.1945 7.49539H31.0997C32.3481 7.50166 33.5589 7.06925 34.5156 6.27025L39.092 2.59801H44.1923C45.1176 2.59801 45.8673 3.35 45.8673 4.27433V19.2422H40.9772C40.7482 19.2422 40.5286 19.3362 40.3781 19.5085L39.368 20.4924L38.4929 19.6213C38.2451 19.3738 37.9095 19.2328 37.5582 19.2328C37.2068 19.2328 36.8744 19.3738 36.6266 19.6213L35.4095 20.8371C35.328 20.9248 35.1962 20.9436 35.0927 20.8809C34.3399 20.4642 33.5432 20.1321 32.712 19.8971C32.5959 19.8689 32.5175 19.7623 32.5238 19.6433V17.9262C32.5238 17.5784 32.3826 17.2431 32.1348 16.9956C31.887 16.7481 31.5514 16.6102 31.2001 16.6102H27.7968C27.0691 16.6102 26.4794 17.2024 26.4762 17.9294V19.6464C26.4825 19.7655 26.4072 19.872 26.288 19.9002C25.4631 20.1383 24.6632 20.4673 23.9104 20.8841C23.81 20.9467 23.672 20.9279 23.5936 20.8402L22.3766 19.6245C21.859 19.1075 21.0278 19.1075 20.5102 19.6245L19.632 20.4987L18.6125 19.5085C18.462 19.3362 18.2424 19.2391 18.0134 19.2422H13.1202V4.27746H13.1327ZM38.2326 26.1888C38.5901 26.8374 38.8756 27.5205 39.0857 28.2317C39.3084 29.0307 40.0393 29.579 40.8705 29.579H42.3103V32.4178H40.8705C40.0393 32.4178 39.3084 32.9662 39.0857 33.7652C38.8787 34.4733 38.5901 35.1595 38.2326 35.8081C37.8279 36.5319 37.9565 37.4343 38.5462 38.0202L39.5656 39.0417L37.555 41.0501L36.5356 40.0318C35.949 39.4427 35.0457 39.3143 34.3211 39.7185C33.6718 40.0757 32.988 40.3608 32.276 40.5676C31.4761 40.7932 30.9272 41.5233 30.9272 42.3536V43.7949H28.0854V42.3536C28.0854 41.5233 27.5364 40.7932 26.7366 40.5676C26.0245 40.3608 25.3407 40.0757 24.6915 39.7185C23.9669 39.3143 23.0635 39.4427 22.4769 40.0318L21.4575 41.0501L19.4469 39.0417L20.4663 38.0234C21.056 37.4374 21.1846 36.535 20.78 35.8112C20.4224 35.1626 20.137 34.4764 19.9268 33.7683C19.7041 32.9693 18.9733 32.4178 18.142 32.421H16.7023V29.5822H18.142C18.9733 29.5822 19.7041 29.0338 19.9268 28.2348C20.1338 27.5236 20.4224 26.8405 20.78 26.1919C21.1846 25.4681 21.056 24.5626 20.4663 23.9798L19.4469 22.9615L21.4575 20.9499L22.4769 21.9682C23.0635 22.5573 23.9669 22.6857 24.6915 22.2815C25.3407 21.9212 26.0245 21.6392 26.7366 21.4293C27.5364 21.2068 28.0854 20.4767 28.0854 19.6495V18.2082H30.9272V19.6495C30.9272 20.4736 31.4761 21.2068 32.276 21.4293C32.988 21.6392 33.6718 21.9275 34.3211 22.2847C35.0457 22.6889 35.949 22.5604 36.5356 21.9713L37.555 20.953L39.5656 22.9615L38.5462 23.9767C37.9565 24.5595 37.8279 25.465 38.2326 26.1888ZM18.1138 23.8889L19.3308 25.1047C19.4187 25.1861 19.4375 25.3177 19.3748 25.4211C18.9576 26.1731 18.6251 26.969 18.393 27.7962C18.3616 27.9121 18.2549 27.9904 18.1358 27.9842H16.4169C15.6891 27.9842 15.0963 28.5764 15.0963 29.3033V30.2026H13.1327V20.8402H17.706L18.5153 21.6267L18.1138 22.0277C17.866 22.2753 17.7249 22.6105 17.7249 22.9615C17.7249 23.3124 17.866 23.6477 18.1138 23.8952V23.8889ZM13.1327 31.7974H15.0963V32.6967C15.0963 33.4236 15.6891 34.0158 16.4137 34.0158H18.1326C18.2518 34.0096 18.3585 34.0879 18.3898 34.2038C18.6251 35.0279 18.9544 35.8269 19.3716 36.5789C19.4343 36.6791 19.4155 36.817 19.3277 36.8953L18.1107 38.1111C17.8629 38.3586 17.7217 38.6939 17.7249 39.0448C17.7249 39.684 18.1044 39.966 18.5122 40.3765L17.7029 41.1629H13.1327V31.7974ZM45.8704 57.7226C45.8704 58.6469 45.1207 59.3957 44.1954 59.3957H14.814C13.8887 59.3957 13.139 58.6469 13.1359 57.7226V42.7578H18.0291C18.2361 42.7578 18.4369 42.6763 18.5843 42.5322L19.6351 41.5045L20.5134 42.3818C20.7612 42.6293 21.0968 42.7703 21.4481 42.7703C21.7994 42.7703 22.135 42.6293 22.3828 42.3818L23.5999 41.1661C23.6846 41.0783 23.8163 41.0595 23.9167 41.1222C24.6695 41.5389 25.4662 41.8711 26.2943 42.1029C26.4104 42.1343 26.4888 42.2408 26.4825 42.3599V44.0769C26.4825 44.8039 27.0753 45.3961 27.803 45.3961H31.2064C31.9341 45.3961 32.5269 44.8039 32.5269 44.0769V42.3599C32.5206 42.2408 32.599 42.1343 32.7151 42.1061C33.5432 41.8679 34.343 41.5421 35.0927 41.1253C35.1962 41.0595 35.3311 41.0783 35.4095 41.1692L36.6266 42.3849C36.8744 42.6325 37.21 42.7703 37.5582 42.7703C37.9063 42.7703 38.2451 42.6325 38.4929 42.3849L39.3712 41.5076L40.4314 42.5385C40.5788 42.6826 40.7795 42.7609 40.9866 42.7609H45.8767V57.7257L45.8704 57.7226ZM45.8704 31.8006V41.1661H41.3002L40.491 40.3796L40.8925 39.9785C41.1403 39.731 41.2814 39.3957 41.2814 39.0448C41.2814 38.6939 41.1403 38.3586 40.8925 38.1142L39.6754 36.8985C39.5876 36.817 39.5688 36.6854 39.6315 36.582C40.0487 35.8332 40.3812 35.0342 40.6133 34.207C40.6447 34.091 40.7513 34.0158 40.8705 34.019H42.5894C43.3171 34.019 43.9068 33.4299 43.91 32.6998V31.8006H45.8735H45.8704ZM43.91 30.1994V29.3033C43.91 28.5732 43.3171 27.9842 42.5894 27.9842H40.8705C40.7513 27.9904 40.6447 27.9121 40.6133 27.7962C40.3781 26.969 40.0487 26.17 39.6315 25.4211C39.5688 25.3177 39.5876 25.183 39.6754 25.1047L40.8925 23.8889C41.1371 23.6414 41.2783 23.3061 41.2783 22.9552C41.2783 22.316 40.8987 22.0309 40.491 21.6235L41.3002 20.8339H45.8673V30.1963H43.91V30.1994ZM55.6098 43.8701C54.8351 44.6409 53.6745 44.8728 52.6613 44.4561C51.6513 44.0362 50.9926 43.0523 50.9926 41.9588C50.9926 40.8653 51.6513 39.8814 52.6613 39.4615C53.6714 39.0448 54.8351 39.2767 55.6098 40.0475C56.6669 41.1034 56.6669 42.8142 55.6098 43.8701Z"></path><path d="M29.5031 23.8544C26.6111 23.8544 24.0045 25.5934 22.8941 28.2662C21.7868 30.9357 22.3985 34.0064 24.4436 36.0525C26.4887 38.0954 29.5658 38.7095 32.2383 37.6003C34.9108 36.4943 36.6547 33.8905 36.6547 30.9984C36.6547 27.0504 33.4522 23.8544 29.5031 23.8544ZM33.4334 34.9213C31.8431 36.5099 29.456 36.9831 27.3796 36.1245C25.3031 35.266 23.948 33.245 23.948 31.0015C23.948 28.7581 25.2999 26.734 27.3796 25.8754C29.456 25.0169 31.8431 25.4932 33.4334 27.0786C35.6008 29.2438 35.6008 32.7562 33.4334 34.9245V34.9213Z"></path><path d="M31.9497 54.3229H27.0596C26.84 54.3104 26.6205 54.3856 26.4605 54.536C26.2974 54.6895 26.2064 54.8995 26.2064 55.1219C26.2064 55.3444 26.2974 55.5543 26.4605 55.7047C26.6236 55.8551 26.84 55.9334 27.0596 55.9178H31.9497C32.1693 55.9334 32.3889 55.8551 32.5488 55.7047C32.7088 55.5543 32.8029 55.3413 32.8029 55.1219C32.8029 54.9026 32.7119 54.6895 32.5488 54.536C32.3857 54.3856 32.1693 54.3104 31.9497 54.3229Z"></path></mask><path d="M54.1011 37.6818C51.8897 37.475 49.8822 38.9821 49.4713 41.1598H47.4733V31.8006H49.4745C49.854 33.8278 51.6262 35.3005 53.6933 35.2974C55.3558 35.2974 56.8708 34.3354 57.5765 32.8314C58.2823 31.3274 58.0565 29.5508 56.9994 28.2693C55.9392 26.9909 54.2328 26.4363 52.6206 26.8499C51.0083 27.2604 49.7819 28.567 49.4682 30.1994H47.4701V20.8371H49.4682C49.8822 23.0179 51.8866 24.525 54.0979 24.3182C56.3125 24.1114 58 22.2565 58 20.0381C58 17.8197 56.3093 15.9648 54.0979 15.758C51.8866 15.5512 49.8822 17.0614 49.4682 19.2391H47.4701V4.27433C47.4638 2.4664 45.999 1.00313 44.1923 1H14.8109C13.0041 1 11.5393 2.4664 11.533 4.27433V19.2359H9.53495C9.12091 17.0552 7.11656 15.548 4.90519 15.7548C2.69068 15.9616 1.00314 17.8165 1.00314 20.0349C1.00314 22.2533 2.69382 24.1083 4.90519 24.3151C7.11656 24.5219 9.12091 23.0116 9.53495 20.8339H11.533V30.1963H9.53495C9.22442 28.5607 7.99797 27.251 6.37944 26.8343C4.76718 26.4207 3.05454 26.9752 1.99121 28.2568C0.931003 29.5414 0.702016 31.3212 1.41405 32.8252C2.12608 34.3323 3.64423 35.2942 5.30981 35.2942C7.37689 35.2942 9.15227 33.8247 9.52867 31.7943H11.5299V41.1567H9.53181C9.11777 38.9759 7.11342 37.4687 4.90205 37.6755C2.68754 37.8823 1 39.7373 1 41.9557C1 44.1741 2.69068 46.029 4.90205 46.2358C7.11342 46.4426 9.11777 44.9323 9.53181 42.7547H11.5299V57.7257C11.5362 59.5305 13.001 60.9937 14.8077 61H44.1891C45.9959 60.9937 47.4607 59.5305 47.467 57.7257V42.7609H49.465C49.876 44.9417 51.8834 46.4489 54.0948 46.2389C56.3062 46.0321 57.9969 44.1803 57.9969 41.9619C57.9969 39.7436 56.3062 37.8855 54.0948 37.6818H54.1011ZM50.9895 30.964C50.9958 30.1462 51.3753 29.3785 52.0215 28.8772C52.7084 28.3351 53.618 28.1597 54.4555 28.4072C55.2962 28.6516 55.9643 29.2908 56.2529 30.118C56.5383 30.942 56.4066 31.857 55.8984 32.5682C55.3903 33.2826 54.5684 33.7025 53.6933 33.7025C52.9687 33.7025 52.2724 33.4174 51.7642 32.9004C51.2561 32.3834 50.9769 31.6846 50.9895 30.9608V30.964ZM52.6645 17.5439C53.6745 17.1241 54.8351 17.3559 55.6098 18.1299C56.6638 19.1858 56.6638 20.8935 55.6098 21.9494C54.8351 22.7233 53.6745 22.9521 52.6645 22.5353C51.6545 22.1155 50.9926 21.1316 50.9926 20.0381C50.9926 18.9445 51.6513 17.9638 52.6645 17.5439ZM6.34806 22.5353C5.33804 22.9521 4.17434 22.7202 3.39958 21.9494C2.62795 21.1755 2.39584 20.0161 2.81302 19.0072C3.2302 17.9983 4.2151 17.3372 5.30667 17.3372C6.79974 17.3372 8.0105 18.5466 8.01364 20.0381C8.01364 21.1316 7.35495 22.1155 6.34494 22.5353H6.34806ZM5.31295 33.7025C4.43782 33.7025 3.61601 33.2795 3.10787 32.5682C2.59972 31.857 2.46798 30.942 2.75656 30.118C3.042 29.2908 3.71011 28.6516 4.55074 28.4072C5.39137 28.1597 6.29788 28.3351 6.98796 28.874C7.65294 29.391 8.0356 30.1932 8.01678 31.0329C8.0011 32.5118 6.79661 33.7056 5.31295 33.7056V33.7025ZM6.34806 44.4561C5.33804 44.8759 4.17434 44.6472 3.39958 43.8733C2.62481 43.1025 2.3927 41.94 2.80988 40.9311C3.2302 39.9221 4.2151 39.261 5.30667 39.2579C6.79974 39.2579 8.0105 40.4674 8.01364 41.9619C8.01364 43.0555 7.35809 44.0393 6.34494 44.4592L6.34806 44.4561ZM36.5481 2.60112L33.5181 5.02945C32.8437 5.59971 31.9843 5.90992 31.0997 5.89425H27.1945C26.1876 5.90365 25.2247 5.51199 24.5158 4.80072L22.1946 2.60112H36.5513H36.5481ZM13.1327 4.27746C13.139 3.35313 13.8855 2.60426 14.8109 2.60112H19.8735L23.4148 5.95692C24.4217 6.95018 25.7799 7.50479 27.1945 7.49539H31.0997C32.3481 7.50166 33.5589 7.06925 34.5156 6.27025L39.092 2.59801H44.1923C45.1176 2.59801 45.8673 3.35 45.8673 4.27433V19.2422H40.9772C40.7482 19.2422 40.5286 19.3362 40.3781 19.5085L39.368 20.4924L38.4929 19.6213C38.2451 19.3738 37.9095 19.2328 37.5582 19.2328C37.2068 19.2328 36.8744 19.3738 36.6266 19.6213L35.4095 20.8371C35.328 20.9248 35.1962 20.9436 35.0927 20.8809C34.3399 20.4642 33.5432 20.1321 32.712 19.8971C32.5959 19.8689 32.5175 19.7623 32.5238 19.6433V17.9262C32.5238 17.5784 32.3826 17.2431 32.1348 16.9956C31.887 16.7481 31.5514 16.6102 31.2001 16.6102H27.7968C27.0691 16.6102 26.4794 17.2024 26.4762 17.9294V19.6464C26.4825 19.7655 26.4072 19.872 26.288 19.9002C25.4631 20.1383 24.6632 20.4673 23.9104 20.8841C23.81 20.9467 23.672 20.9279 23.5936 20.8402L22.3766 19.6245C21.859 19.1075 21.0278 19.1075 20.5102 19.6245L19.632 20.4987L18.6125 19.5085C18.462 19.3362 18.2424 19.2391 18.0134 19.2422H13.1202V4.27746H13.1327ZM38.2326 26.1888C38.5901 26.8374 38.8756 27.5205 39.0857 28.2317C39.3084 29.0307 40.0393 29.579 40.8705 29.579H42.3103V32.4178H40.8705C40.0393 32.4178 39.3084 32.9662 39.0857 33.7652C38.8787 34.4733 38.5901 35.1595 38.2326 35.8081C37.8279 36.5319 37.9565 37.4343 38.5462 38.0202L39.5656 39.0417L37.555 41.0501L36.5356 40.0318C35.949 39.4427 35.0457 39.3143 34.3211 39.7185C33.6718 40.0757 32.988 40.3608 32.276 40.5676C31.4761 40.7932 30.9272 41.5233 30.9272 42.3536V43.7949H28.0854V42.3536C28.0854 41.5233 27.5364 40.7932 26.7366 40.5676C26.0245 40.3608 25.3407 40.0757 24.6915 39.7185C23.9669 39.3143 23.0635 39.4427 22.4769 40.0318L21.4575 41.0501L19.4469 39.0417L20.4663 38.0234C21.056 37.4374 21.1846 36.535 20.78 35.8112C20.4224 35.1626 20.137 34.4764 19.9268 33.7683C19.7041 32.9693 18.9733 32.4178 18.142 32.421H16.7023V29.5822H18.142C18.9733 29.5822 19.7041 29.0338 19.9268 28.2348C20.1338 27.5236 20.4224 26.8405 20.78 26.1919C21.1846 25.4681 21.056 24.5626 20.4663 23.9798L19.4469 22.9615L21.4575 20.9499L22.4769 21.9682C23.0635 22.5573 23.9669 22.6857 24.6915 22.2815C25.3407 21.9212 26.0245 21.6392 26.7366 21.4293C27.5364 21.2068 28.0854 20.4767 28.0854 19.6495V18.2082H30.9272V19.6495C30.9272 20.4736 31.4761 21.2068 32.276 21.4293C32.988 21.6392 33.6718 21.9275 34.3211 22.2847C35.0457 22.6889 35.949 22.5604 36.5356 21.9713L37.555 20.953L39.5656 22.9615L38.5462 23.9767C37.9565 24.5595 37.8279 25.465 38.2326 26.1888ZM18.1138 23.8889L19.3308 25.1047C19.4187 25.1861 19.4375 25.3177 19.3748 25.4211C18.9576 26.1731 18.6251 26.969 18.393 27.7962C18.3616 27.9121 18.2549 27.9904 18.1358 27.9842H16.4169C15.6891 27.9842 15.0963 28.5764 15.0963 29.3033V30.2026H13.1327V20.8402H17.706L18.5153 21.6267L18.1138 22.0277C17.866 22.2753 17.7249 22.6105 17.7249 22.9615C17.7249 23.3124 17.866 23.6477 18.1138 23.8952V23.8889ZM13.1327 31.7974H15.0963V32.6967C15.0963 33.4236 15.6891 34.0158 16.4137 34.0158H18.1326C18.2518 34.0096 18.3585 34.0879 18.3898 34.2038C18.6251 35.0279 18.9544 35.8269 19.3716 36.5789C19.4343 36.6791 19.4155 36.817 19.3277 36.8953L18.1107 38.1111C17.8629 38.3586 17.7217 38.6939 17.7249 39.0448C17.7249 39.684 18.1044 39.966 18.5122 40.3765L17.7029 41.1629H13.1327V31.7974ZM45.8704 57.7226C45.8704 58.6469 45.1207 59.3957 44.1954 59.3957H14.814C13.8887 59.3957 13.139 58.6469 13.1359 57.7226V42.7578H18.0291C18.2361 42.7578 18.4369 42.6763 18.5843 42.5322L19.6351 41.5045L20.5134 42.3818C20.7612 42.6293 21.0968 42.7703 21.4481 42.7703C21.7994 42.7703 22.135 42.6293 22.3828 42.3818L23.5999 41.1661C23.6846 41.0783 23.8163 41.0595 23.9167 41.1222C24.6695 41.5389 25.4662 41.8711 26.2943 42.1029C26.4104 42.1343 26.4888 42.2408 26.4825 42.3599V44.0769C26.4825 44.8039 27.0753 45.3961 27.803 45.3961H31.2064C31.9341 45.3961 32.5269 44.8039 32.5269 44.0769V42.3599C32.5206 42.2408 32.599 42.1343 32.7151 42.1061C33.5432 41.8679 34.343 41.5421 35.0927 41.1253C35.1962 41.0595 35.3311 41.0783 35.4095 41.1692L36.6266 42.3849C36.8744 42.6325 37.21 42.7703 37.5582 42.7703C37.9063 42.7703 38.2451 42.6325 38.4929 42.3849L39.3712 41.5076L40.4314 42.5385C40.5788 42.6826 40.7795 42.7609 40.9866 42.7609H45.8767V57.7257L45.8704 57.7226ZM45.8704 31.8006V41.1661H41.3002L40.491 40.3796L40.8925 39.9785C41.1403 39.731 41.2814 39.3957 41.2814 39.0448C41.2814 38.6939 41.1403 38.3586 40.8925 38.1142L39.6754 36.8985C39.5876 36.817 39.5688 36.6854 39.6315 36.582C40.0487 35.8332 40.3812 35.0342 40.6133 34.207C40.6447 34.091 40.7513 34.0158 40.8705 34.019H42.5894C43.3171 34.019 43.9068 33.4299 43.91 32.6998V31.8006H45.8735H45.8704ZM43.91 30.1994V29.3033C43.91 28.5732 43.3171 27.9842 42.5894 27.9842H40.8705C40.7513 27.9904 40.6447 27.9121 40.6133 27.7962C40.3781 26.969 40.0487 26.17 39.6315 25.4211C39.5688 25.3177 39.5876 25.183 39.6754 25.1047L40.8925 23.8889C41.1371 23.6414 41.2783 23.3061 41.2783 22.9552C41.2783 22.316 40.8987 22.0309 40.491 21.6235L41.3002 20.8339H45.8673V30.1963H43.91V30.1994ZM55.6098 43.8701C54.8351 44.6409 53.6745 44.8728 52.6613 44.4561C51.6513 44.0362 50.9926 43.0523 50.9926 41.9588C50.9926 40.8653 51.6513 39.8814 52.6613 39.4615C53.6714 39.0448 54.8351 39.2767 55.6098 40.0475C56.6669 41.1034 56.6669 42.8142 55.6098 43.8701Z" fill="#0096A3"></path><path d="M29.5031 23.8544C26.6111 23.8544 24.0045 25.5934 22.8941 28.2662C21.7868 30.9357 22.3985 34.0064 24.4436 36.0525C26.4887 38.0954 29.5658 38.7095 32.2383 37.6003C34.9108 36.4943 36.6547 33.8905 36.6547 30.9984C36.6547 27.0504 33.4522 23.8544 29.5031 23.8544ZM33.4334 34.9213C31.8431 36.5099 29.456 36.9831 27.3796 36.1245C25.3031 35.266 23.948 33.245 23.948 31.0015C23.948 28.7581 25.2999 26.734 27.3796 25.8754C29.456 25.0169 31.8431 25.4932 33.4334 27.0786C35.6008 29.2438 35.6008 32.7562 33.4334 34.9245V34.9213Z" fill="#0096A3"></path><path d="M31.9497 54.3229H27.0596C26.84 54.3104 26.6205 54.3856 26.4605 54.536C26.2974 54.6895 26.2064 54.8995 26.2064 55.1219C26.2064 55.3444 26.2974 55.5543 26.4605 55.7047C26.6236 55.8551 26.84 55.9334 27.0596 55.9178H31.9497C32.1693 55.9334 32.3889 55.8551 32.5488 55.7047C32.7088 55.5543 32.8029 55.3413 32.8029 55.1219C32.8029 54.9026 32.7119 54.6895 32.5488 54.536C32.3857 54.3856 32.1693 54.3104 31.9497 54.3229Z" fill="#0096A3"></path><path d="M39.368 20.4924L39.3327 20.457L39.3264 20.4633L39.3618 20.4987L39.3971 20.5341L39.4034 20.5278L39.368 20.4924ZM43.91 30.1994H43.86V30.2057H43.91H43.96V30.1994H43.91ZM54.1011 37.6818V37.7818L54.1104 37.5822L54.1011 37.6818ZM49.4713 41.1598V41.2598H49.5542L49.5696 41.1783L49.4713 41.1598ZM47.4733 41.1598H47.3733V41.2598H47.4733V41.1598ZM47.4733 31.8006V31.7006H47.3733V31.8006H47.4733ZM49.4745 31.8006L49.5728 31.7822L49.5575 31.7006H49.4745V31.8006ZM53.6933 35.2974V35.1974H53.6932L53.6933 35.2974ZM56.9994 28.2693L57.0765 28.2057L57.0764 28.2055L56.9994 28.2693ZM52.6206 26.8499L52.6452 26.9468L52.6454 26.9468L52.6206 26.8499ZM49.4682 30.1994V30.2994H49.5508L49.5664 30.2183L49.4682 30.1994ZM47.4701 30.1994H47.3701V30.2994H47.4701V30.1994ZM47.4701 20.8371V20.7371H47.3701V20.8371H47.4701ZM49.4682 20.8371L49.5664 20.8184L49.551 20.7371H49.4682V20.8371ZM54.0979 24.3182L54.0887 24.2186H54.0886L54.0979 24.3182ZM49.4682 19.2391V19.3391H49.551L49.5664 19.2578L49.4682 19.2391ZM47.4701 19.2391H47.3701V19.3391H47.4701V19.2391ZM47.4701 4.27433H47.5701V4.27398L47.4701 4.27433ZM44.1923 1L44.1924 0.9H44.1923V1ZM11.533 4.27433L11.433 4.27398V4.27433H11.533ZM11.533 19.2359V19.3359H11.633V19.2359H11.533ZM9.53495 19.2359L9.4367 19.2546L9.45215 19.3359H9.53495V19.2359ZM4.90519 15.7548L4.91448 15.8544L4.9145 15.8544L4.90519 15.7548ZM9.53495 20.8339V20.7339H9.45217L9.43671 20.8153L9.53495 20.8339ZM11.533 20.8339H11.633V20.7339H11.533V20.8339ZM11.533 30.1963V30.2963H11.633V30.1963H11.533ZM9.53495 30.1963L9.4367 30.215L9.45215 30.2963H9.53495V30.1963ZM6.37944 26.8343L6.40437 26.7374L6.40428 26.7374L6.37944 26.8343ZM1.99121 28.2568L1.91425 28.1929L1.91408 28.1931L1.99121 28.2568ZM1.41405 32.8252L1.50446 32.7824L1.50443 32.7824L1.41405 32.8252ZM9.52867 31.7943V31.6943H9.4455L9.43034 31.7761L9.52867 31.7943ZM11.5299 31.7943H11.6299V31.6943H11.5299V31.7943ZM11.5299 41.1567V41.2567H11.6299V41.1567H11.5299ZM9.53181 41.1567L9.43357 41.1753L9.44901 41.2567H9.53181V41.1567ZM4.90205 37.6755L4.91135 37.7751H4.91136L4.90205 37.6755ZM9.53181 42.7547V42.6547H9.44903L9.43357 42.736L9.53181 42.7547ZM11.5299 42.7547H11.6299V42.6547H11.5299V42.7547ZM11.5299 57.7257H11.4299L11.4299 57.726L11.5299 57.7257ZM14.8077 61L14.8074 61.1H14.8077V61ZM44.1891 61V61.1L44.1895 61.1L44.1891 61ZM47.467 57.7257L47.567 57.726V57.7257H47.467ZM47.467 42.7609V42.6609H47.367V42.7609H47.467ZM49.465 42.7609L49.5633 42.7424L49.548 42.6609H49.465V42.7609ZM54.0948 46.2389L54.0855 46.1394L54.0854 46.1394L54.0948 46.2389ZM54.0948 37.6818V37.5818L54.0856 37.7814L54.0948 37.6818ZM50.9895 30.964H50.8895L51.0895 30.9647L50.9895 30.964ZM52.0215 28.8772L52.0828 28.9562L52.0834 28.9557L52.0215 28.8772ZM54.4555 28.4072L54.4272 28.5031L54.4276 28.5032L54.4555 28.4072ZM56.2529 30.118L56.3474 30.0852L56.3473 30.085L56.2529 30.118ZM55.8984 32.5682L55.817 32.5101L55.8169 32.5103L55.8984 32.5682ZM50.9895 30.9608H51.0895L50.8895 30.9591L50.9895 30.9608ZM52.6645 17.5439L52.7028 17.6363L52.7029 17.6363L52.6645 17.5439ZM55.6098 18.1299L55.6806 18.0592L55.6805 18.0591L55.6098 18.1299ZM55.6098 21.9494L55.6805 22.0201L55.6806 22.02L55.6098 21.9494ZM52.6645 22.5353L52.6261 22.6277L52.6263 22.6278L52.6645 22.5353ZM6.34806 22.5353L6.3862 22.6278L6.34806 22.4353V22.5353ZM3.39958 21.9494L3.32876 22.02L3.32905 22.0203L3.39958 21.9494ZM8.01364 20.0381H8.11364L8.11364 20.0379L8.01364 20.0381ZM6.34494 22.5353L6.30655 22.443L6.34494 22.6353V22.5353ZM5.31295 33.7025H5.41295V33.6025H5.31295V33.7025ZM3.10787 32.5682L3.0265 32.6264L3.10787 32.5682ZM2.75656 30.118L2.85094 30.151L2.85109 30.1506L2.75656 30.118ZM4.55074 28.4072L4.57866 28.5032L4.57899 28.5031L4.55074 28.4072ZM6.98796 28.874L6.9264 28.9529L6.92658 28.953L6.98796 28.874ZM8.01678 31.0329L7.9168 31.0307L7.91679 31.0319L8.01678 31.0329ZM5.31295 33.7056H5.21295V33.8056H5.31295V33.7056ZM6.34806 44.4561L6.41892 44.5266L6.30967 44.3637L6.34806 44.4561ZM3.39958 43.8733L3.47025 43.8025L3.47011 43.8024L3.39958 43.8733ZM2.80988 40.9311L2.71757 40.8926L2.71747 40.8929L2.80988 40.9311ZM5.30667 39.2579V39.1579L5.30639 39.1579L5.30667 39.2579ZM8.01364 41.9619H8.11364L8.11364 41.9617L8.01364 41.9619ZM6.34494 44.4592L6.27408 44.3886L6.38322 44.5516L6.34494 44.4592ZM36.5481 2.60112V2.50112H36.513L36.4856 2.52309L36.5481 2.60112ZM33.5181 5.02945L33.4555 4.95139L33.4535 4.95309L33.5181 5.02945ZM31.0997 5.89425L31.1015 5.79425H31.0997V5.89425ZM27.1945 5.89425V5.79424L27.1936 5.79425L27.1945 5.89425ZM24.5158 4.80072L24.5867 4.7301L24.5846 4.72814L24.5158 4.80072ZM22.1946 2.60112V2.50112H21.9437L22.1259 2.67371L22.1946 2.60112ZM13.1327 4.27746V4.37746H13.2321L13.2327 4.27814L13.1327 4.27746ZM14.8109 2.60112V2.50112L14.8105 2.50112L14.8109 2.60112ZM19.8735 2.60112L19.9423 2.52854L19.9133 2.50112H19.8735V2.60112ZM23.4148 5.95692L23.4851 5.88571L23.4836 5.88433L23.4148 5.95692ZM27.1945 7.49539V7.39539L27.1939 7.39539L27.1945 7.49539ZM31.0997 7.49539L31.1002 7.39539H31.0997V7.49539ZM34.5156 6.27025L34.453 6.19224L34.4515 6.1935L34.5156 6.27025ZM39.092 2.59801V2.49801H39.0568L39.0294 2.52001L39.092 2.59801ZM45.8673 19.2422V19.3422H45.9673V19.2422H45.8673ZM40.3781 19.5085L40.4481 19.5804L40.4534 19.5743L40.3781 19.5085ZM39.368 20.4924L39.2975 20.5633L39.3673 20.6327L39.4378 20.564L39.368 20.4924ZM38.4929 19.6213L38.4222 19.6921L38.4224 19.6922L38.4929 19.6213ZM36.6266 19.6213L36.5559 19.5506L36.6266 19.6213ZM35.4095 20.8371L35.3388 20.7663L35.3363 20.769L35.4095 20.8371ZM35.0927 20.8809L35.1445 20.7953L35.1412 20.7934L35.0927 20.8809ZM32.712 19.8971L32.7392 19.8008L32.7356 19.7999L32.712 19.8971ZM32.5238 19.6433L32.6238 19.6485V19.6433H32.5238ZM26.4762 17.9294L26.3762 17.9289V17.9294H26.4762ZM26.4762 19.6464H26.3761L26.3764 19.6517L26.4762 19.6464ZM26.288 19.9002L26.265 19.8028L26.2603 19.8041L26.288 19.9002ZM23.9104 20.8841L23.8619 20.7965L23.8575 20.7992L23.9104 20.8841ZM23.5936 20.8402L23.6683 20.7735L23.6643 20.7695L23.5936 20.8402ZM20.5102 19.6245L20.5808 19.6953L20.5809 19.6952L20.5102 19.6245ZM19.632 20.4987L19.5623 20.5704L19.6328 20.6389L19.7025 20.5696L19.632 20.4987ZM18.6125 19.5085L18.537 19.5746L18.5429 19.5803L18.6125 19.5085ZM18.0134 19.2422V19.3422L18.0148 19.3422L18.0134 19.2422ZM13.1202 19.2422H13.0202V19.3422H13.1202V19.2422ZM13.1202 4.27746V4.17746H13.0202V4.27746H13.1202ZM38.2326 26.1888L38.3201 26.1405L38.3198 26.14L38.2326 26.1888ZM39.0857 28.2317L39.1821 28.2049L39.1816 28.2034L39.0857 28.2317ZM42.3103 29.579H42.4103V29.479H42.3103V29.579ZM42.3103 32.4178V32.5178H42.4103V32.4178H42.3103ZM39.0857 33.7652L39.1817 33.7932L39.1821 33.792L39.0857 33.7652ZM38.2326 35.8081L38.3198 35.8569L38.3201 35.8564L38.2326 35.8081ZM38.5462 38.0202L38.617 37.9496L38.6167 37.9493L38.5462 38.0202ZM39.5656 39.0417L39.6363 39.1124L39.707 39.0418L39.6364 38.971L39.5656 39.0417ZM37.555 41.0501L37.4844 41.1209L37.555 41.1915L37.6257 41.1209L37.555 41.0501ZM36.5356 40.0318L36.4647 40.1024L36.4649 40.1026L36.5356 40.0318ZM34.3211 39.7185L34.3693 39.8061L34.3698 39.8058L34.3211 39.7185ZM32.276 40.5676L32.3031 40.6639L32.3039 40.6636L32.276 40.5676ZM30.9272 43.7949V43.8949H31.0272V43.7949H30.9272ZM28.0854 43.7949H27.9854V43.8949H28.0854V43.7949ZM26.7366 40.5676L26.7087 40.6636L26.7094 40.6639L26.7366 40.5676ZM24.6915 39.7185L24.6427 39.8058L24.6433 39.8061L24.6915 39.7185ZM22.4769 40.0318L22.5476 40.1026L22.5478 40.1024L22.4769 40.0318ZM21.4575 41.0501L21.3869 41.1209L21.4575 41.1915L21.5282 41.1209L21.4575 41.0501ZM19.4469 39.0417L19.3762 38.9709L19.3054 39.0417L19.3762 39.1124L19.4469 39.0417ZM20.4663 38.0234L20.3958 37.9524L20.3956 37.9526L20.4663 38.0234ZM20.78 35.8112L20.6924 35.8595L20.6927 35.86L20.78 35.8112ZM19.9268 33.7683L19.8305 33.7952L19.8309 33.7967L19.9268 33.7683ZM18.142 32.421V32.521L18.1424 32.521L18.142 32.421ZM16.7023 32.421H16.6023V32.521H16.7023V32.421ZM16.7023 29.5822V29.4822H16.6023V29.5822H16.7023ZM19.9268 28.2348L19.8308 28.2069L19.8305 28.208L19.9268 28.2348ZM20.78 26.1919L20.6927 26.1431L20.6924 26.1436L20.78 26.1919ZM20.4663 23.9798L20.3956 24.0505L20.396 24.0509L20.4663 23.9798ZM19.4469 22.9615L19.3762 22.8908L19.3054 22.9615L19.3762 23.0322L19.4469 22.9615ZM21.4575 20.9499L21.5282 20.8791L21.4575 20.8085L21.3868 20.8792L21.4575 20.9499ZM22.4769 21.9682L22.5478 21.8976L22.5476 21.8974L22.4769 21.9682ZM24.6915 22.2815L24.6429 22.1941L24.6427 22.1942L24.6915 22.2815ZM26.7366 21.4293L26.7098 21.3329L26.7083 21.3334L26.7366 21.4293ZM28.0854 18.2082V18.1082H27.9854V18.2082H28.0854ZM30.9272 18.2082H31.0272V18.1082H30.9272V18.2082ZM32.276 21.4293L32.3043 21.3333L32.3028 21.3329L32.276 21.4293ZM34.3211 22.2847L34.3698 22.1973L34.3693 22.197L34.3211 22.2847ZM36.5356 21.9713L36.4649 21.9006L36.4647 21.9008L36.5356 21.9713ZM37.555 20.953L37.6257 20.8823L37.555 20.8117L37.4844 20.8822L37.555 20.953ZM39.5656 22.9615L39.6362 23.0323L39.7073 22.9616L39.6363 22.8907L39.5656 22.9615ZM38.5462 23.9767L38.6165 24.0478L38.6168 24.0475L38.5462 23.9767ZM18.1138 23.8889L18.1845 23.8182L18.0138 23.6477V23.8889H18.1138ZM19.3308 25.1047L19.2601 25.1754L19.2628 25.178L19.3308 25.1047ZM19.3748 25.4211L19.2892 25.3692L19.2873 25.3726L19.3748 25.4211ZM18.393 27.7962L18.2967 27.7692L18.2964 27.7701L18.393 27.7962ZM18.1358 27.9842L18.141 27.8842H18.1358V27.9842ZM15.0963 30.2026V30.3026H15.1963V30.2026H15.0963ZM13.1327 30.2026H13.0327V30.3026H13.1327V30.2026ZM13.1327 20.8402V20.7402H13.0327V20.8402H13.1327ZM17.706 20.8402L17.7757 20.7685L17.7466 20.7402H17.706V20.8402ZM18.5153 21.6267L18.586 21.6974L18.6578 21.6257L18.585 21.555L18.5153 21.6267ZM18.1138 22.0277L18.0431 21.957L18.0431 21.957L18.1138 22.0277ZM18.1138 23.8952L18.0431 23.9659L18.2138 24.1364V23.8952H18.1138ZM13.1327 31.7974V31.6974H13.0327V31.7974H13.1327ZM15.0963 31.7974H15.1963V31.6974H15.0963V31.7974ZM18.1326 34.0158V34.116L18.1379 34.1157L18.1326 34.0158ZM18.3898 34.2038L18.2933 34.23L18.2937 34.2313L18.3898 34.2038ZM19.3716 36.5789L19.284 36.6275L19.2868 36.6319L19.3716 36.5789ZM19.3277 36.8953L19.261 36.8206L19.257 36.8246L19.3277 36.8953ZM18.1107 38.1111L18.1813 38.1818L18.1107 38.1111ZM17.7249 39.0448H17.8249L17.8248 39.0439L17.7249 39.0448ZM18.5122 40.3765L18.5819 40.4482L18.6544 40.3777L18.5831 40.306L18.5122 40.3765ZM17.7029 41.1629V41.2629H17.7435L17.7726 41.2346L17.7029 41.1629ZM13.1327 41.1629H13.0327V41.2629H13.1327V41.1629ZM45.8704 57.7226L45.9151 57.6331L45.7704 57.5608V57.7226H45.8704ZM13.1359 57.7226H13.0359L13.0359 57.7229L13.1359 57.7226ZM13.1359 42.7578V42.6578H13.0359V42.7578H13.1359ZM18.5843 42.5322L18.6542 42.6037L18.6542 42.6037L18.5843 42.5322ZM19.6351 41.5045L19.7058 41.4337L19.6358 41.3639L19.5652 41.433L19.6351 41.5045ZM20.5134 42.3818L20.584 42.3111L20.5134 42.3818ZM22.3828 42.3818L22.4535 42.4525L22.3828 42.3818ZM23.5999 41.1661L23.6706 41.2368L23.6718 41.2355L23.5999 41.1661ZM23.9167 41.1222L23.8636 41.2071L23.8682 41.2097L23.9167 41.1222ZM26.2943 42.1029L26.2673 42.1992L26.2682 42.1995L26.2943 42.1029ZM26.4825 42.3599L26.3825 42.3546V42.3599H26.4825ZM32.5269 42.3599H32.627L32.6268 42.3546L32.5269 42.3599ZM32.7151 42.1061L32.7387 42.2033L32.7427 42.2022L32.7151 42.1061ZM35.0927 41.1253L35.1414 41.2129L35.1464 41.2097L35.0927 41.1253ZM35.4095 41.1692L35.3336 41.2347L35.3389 41.24L35.4095 41.1692ZM36.6266 42.3849L36.5559 42.4557L36.6266 42.3849ZM38.4929 42.3849L38.5636 42.4557L38.4929 42.3849ZM39.3712 41.5076L39.4409 41.4359L39.3702 41.3672L39.3005 41.4369L39.3712 41.5076ZM40.4314 42.5385L40.5013 42.467L40.5011 42.4668L40.4314 42.5385ZM45.8767 42.7609H45.9767V42.6609H45.8767V42.7609ZM45.8767 57.7257L45.832 57.8151L45.9767 57.8875V57.7257H45.8767ZM45.8704 31.8006V31.7006H45.7704V31.8006H45.8704ZM45.8704 41.1661V41.2661H45.9704V41.1661H45.8704ZM41.3002 41.1661L41.2305 41.2378L41.2596 41.2661H41.3002V41.1661ZM40.491 40.3796L40.4203 40.3089L40.3485 40.3806L40.4213 40.4513L40.491 40.3796ZM40.8925 39.9785L40.8218 39.9078L40.8925 39.9785ZM40.8925 38.1142L40.8218 38.185L40.8222 38.1854L40.8925 38.1142ZM39.6754 36.8985L39.7461 36.8277L39.7434 36.8252L39.6754 36.8985ZM39.6315 36.582L39.7171 36.6339L39.7189 36.6307L39.6315 36.582ZM40.6133 34.207L40.7096 34.234L40.7098 34.2331L40.6133 34.207ZM40.8705 34.019L40.8679 34.119H40.8705V34.019ZM43.91 32.6998L44.01 32.7003V32.6998H43.91ZM43.91 31.8006V31.7006H43.81V31.8006H43.91ZM40.8705 27.9842V27.884L40.8653 27.8843L40.8705 27.9842ZM40.6133 27.7962L40.7098 27.7701L40.7095 27.7688L40.6133 27.7962ZM39.6315 25.4211L39.7189 25.3724L39.717 25.3692L39.6315 25.4211ZM39.6754 25.1047L39.7421 25.1794L39.7461 25.1754L39.6754 25.1047ZM40.8925 23.8889L40.9631 23.9597L40.9636 23.9592L40.8925 23.8889ZM40.491 21.6235L40.4211 21.552L40.3486 21.6227L40.4203 21.6943L40.491 21.6235ZM41.3002 20.8339V20.7339H41.2595L41.2304 20.7624L41.3002 20.8339ZM45.8673 20.8339H45.9673V20.7339H45.8673V20.8339ZM45.8673 30.1963V30.2963H45.9673V30.1963H45.8673ZM43.91 30.1963V30.0963H43.81V30.1963H43.91ZM55.6098 43.8701L55.6804 43.941L55.6805 43.9409L55.6098 43.8701ZM52.6613 44.4561L52.623 44.5484L52.6233 44.5485L52.6613 44.4561ZM52.6613 39.4615L52.6232 39.3691L52.623 39.3692L52.6613 39.4615ZM55.6098 40.0475L55.6805 39.9767L55.6804 39.9766L55.6098 40.0475ZM22.8941 28.2662L22.8017 28.2278L22.8017 28.2278L22.8941 28.2662ZM24.4436 36.0525L24.3729 36.1231L24.3729 36.1232L24.4436 36.0525ZM32.2383 37.6003L32.2001 37.5079L32.2 37.508L32.2383 37.6003ZM33.4334 34.9213H33.5334V34.6801L33.3627 34.8506L33.4334 34.9213ZM27.3796 25.8754L27.4177 25.9679L27.4178 25.9678L27.3796 25.8754ZM33.4334 27.0786L33.504 27.0079L33.504 27.0078L33.4334 27.0786ZM33.4334 34.9245H33.3334V35.166L33.5041 34.9952L33.4334 34.9245ZM31.9497 54.3229V54.4231L31.9554 54.4227L31.9497 54.3229ZM27.0596 54.3229L27.0539 54.4229H27.0596V54.3229ZM26.4605 54.536L26.392 54.4631L26.392 54.4632L26.4605 54.536ZM27.0596 55.9178V55.8175L27.0525 55.818L27.0596 55.9178ZM31.9497 55.9178L31.9568 55.8178H31.9497V55.9178ZM32.5488 54.536L32.6174 54.4632L32.6166 54.4625L32.5488 54.536ZM54.1011 37.6818L54.1104 37.5822C51.8479 37.3707 49.7936 38.9126 49.3731 41.1413L49.4713 41.1598L49.5696 41.1783C49.9709 39.0516 51.9316 37.5794 54.0918 37.7814L54.1011 37.6818ZM49.4713 41.1598V41.0598H47.4733V41.1598V41.2598H49.4713V41.1598ZM47.4733 41.1598H47.5733V31.8006H47.4733H47.3733V41.1598H47.4733ZM47.4733 31.8006V31.9006H49.4745V31.8006V31.7006H47.4733V31.8006ZM49.4745 31.8006L49.3762 31.819C49.7646 33.8935 51.5781 35.4006 53.6935 35.3974L53.6933 35.2974L53.6932 35.1974C51.6743 35.2004 49.9434 33.7621 49.5728 31.7822L49.4745 31.8006ZM53.6933 35.2974V35.3974C55.3945 35.3974 56.9448 34.4131 57.6671 32.8739L57.5765 32.8314L57.486 32.789C56.7967 34.2578 55.317 35.1974 53.6933 35.1974V35.2974ZM57.5765 32.8314L57.6671 32.8739C58.3893 31.3349 58.1581 29.517 57.0765 28.2057L56.9994 28.2693L56.9222 28.333C57.9548 29.5847 58.1753 31.32 57.486 32.789L57.5765 32.8314ZM56.9994 28.2693L57.0764 28.2055C55.9915 26.8973 54.2455 26.3298 52.5957 26.7531L52.6206 26.8499L52.6454 26.9468C54.2202 26.5428 55.8869 27.0845 56.9224 28.3332L56.9994 28.2693ZM52.6206 26.8499L52.5959 26.753C50.9459 27.1731 49.6909 28.5102 49.37 30.1806L49.4682 30.1994L49.5664 30.2183C49.8728 28.6238 51.0707 27.3477 52.6452 26.9468L52.6206 26.8499ZM49.4682 30.1994V30.0994H47.4701V30.1994V30.2994H49.4682V30.1994ZM47.4701 30.1994H47.5701V20.8371H47.4701H47.3701V30.1994H47.4701ZM47.4701 20.8371V20.9371H49.4682V20.8371V20.7371H47.4701V20.8371ZM49.4682 20.8371L49.3699 20.8557C49.7936 23.0872 51.8446 24.6293 54.1073 24.4177L54.0979 24.3182L54.0886 24.2186C51.9286 24.4206 49.9708 22.9485 49.5664 20.8184L49.4682 20.8371ZM54.0979 24.3182L54.1073 24.4178C56.3731 24.2062 58.1 22.3081 58.1 20.0381H58H57.9C57.9 22.2048 56.2518 24.0166 54.0887 24.2186L54.0979 24.3182ZM58 20.0381H58.1C58.1 17.768 56.37 15.87 54.1073 15.6584L54.0979 15.758L54.0886 15.8575C56.2487 16.0595 57.9 17.8714 57.9 20.0381H58ZM54.0979 15.758L54.1073 15.6584C51.8445 15.4468 49.7936 16.9921 49.3699 19.2204L49.4682 19.2391L49.5664 19.2578C49.9708 17.1307 51.9286 15.6555 54.0886 15.8575L54.0979 15.758ZM49.4682 19.2391V19.1391H47.4701V19.2391V19.3391H49.4682V19.2391ZM47.4701 19.2391H47.5701V4.27433H47.4701H47.3701V19.2391H47.4701ZM47.4701 4.27433L47.5701 4.27398C47.5637 2.41109 46.0543 0.903229 44.1924 0.9L44.1923 1L44.1921 1.1C45.9437 1.10304 47.364 2.52171 47.3701 4.27467L47.4701 4.27433ZM44.1923 1V0.9H14.8109V1V1.1H44.1923V1ZM14.8109 1V0.9C12.9488 0.9 11.4395 2.41125 11.433 4.27398L11.533 4.27433L11.633 4.27467C11.6391 2.52155 13.0595 1.1 14.8109 1.1V1ZM11.533 4.27433H11.433V19.2359H11.533H11.633V4.27433H11.533ZM11.533 19.2359V19.1359H9.53495V19.2359V19.3359H11.533V19.2359ZM9.53495 19.2359L9.63319 19.2173C9.20952 16.9858 7.15856 15.4437 4.89588 15.6553L4.90519 15.7548L4.9145 15.8544C7.07456 15.6524 9.03229 17.1245 9.4367 19.2546L9.53495 19.2359ZM4.90519 15.7548L4.89589 15.6553C2.62999 15.8669 0.90314 17.7649 0.90314 20.0349H1.00314H1.10314C1.10314 17.8682 2.75137 16.0564 4.91448 15.8544L4.90519 15.7548ZM1.00314 20.0349H0.90314C0.90314 22.305 2.63318 24.203 4.89588 24.4146L4.90519 24.3151L4.9145 24.2155C2.75445 24.0135 1.10314 22.2016 1.10314 20.0349H1.00314ZM4.90519 24.3151L4.89588 24.4146C7.15862 24.6262 9.20952 23.0809 9.63319 20.8526L9.53495 20.8339L9.43671 20.8153C9.03229 22.9423 7.07449 24.4175 4.9145 24.2155L4.90519 24.3151ZM9.53495 20.8339V20.9339H11.533V20.8339V20.7339H9.53495V20.8339ZM11.533 20.8339H11.433V30.1963H11.533H11.633V20.8339H11.533ZM11.533 30.1963V30.0963H9.53495V30.1963V30.2963H11.533V30.1963ZM9.53495 30.1963L9.63319 30.1776C9.31543 28.504 8.0604 27.1638 6.40437 26.7374L6.37944 26.8343L6.3545 26.9311C7.93554 27.3382 9.1334 28.6175 9.4367 30.215L9.53495 30.1963ZM6.37944 26.8343L6.40428 26.7374C4.75458 26.3142 3.0023 26.8816 1.91425 28.1929L1.99121 28.2568L2.06816 28.3206C3.10679 27.0689 4.77977 26.5271 6.35459 26.9311L6.37944 26.8343ZM1.99121 28.2568L1.91408 28.1931C0.829437 29.5074 0.594878 31.3286 1.32366 32.868L1.41405 32.8252L1.50443 32.7824C0.809155 31.3138 1.03257 29.5755 2.06833 28.3204L1.99121 28.2568ZM1.41405 32.8252L1.32363 32.8679C2.05217 34.41 3.60553 35.3942 5.30981 35.3942V35.2942V35.1942C3.68293 35.1942 2.19998 34.2546 1.50446 32.7824L1.41405 32.8252ZM5.30981 35.2942V35.3942C7.42482 35.3942 9.24176 33.8906 9.62699 31.8125L9.52867 31.7943L9.43034 31.7761C9.06278 33.7588 7.32896 35.1942 5.30981 35.1942V35.2942ZM9.52867 31.7943V31.8943H11.5299V31.7943V31.6943H9.52867V31.7943ZM11.5299 31.7943H11.4299V41.1567H11.5299H11.6299V31.7943H11.5299ZM11.5299 41.1567V41.0567H9.53181V41.1567V41.2567H11.5299V41.1567ZM9.53181 41.1567L9.63005 41.138C9.20638 38.9065 7.15542 37.3644 4.89274 37.576L4.90205 37.6755L4.91136 37.7751C7.07142 37.5731 9.02915 39.0452 9.43357 41.1753L9.53181 41.1567ZM4.90205 37.6755L4.89275 37.576C2.62685 37.7876 0.9 39.6856 0.9 41.9557H1H1.1C1.1 39.7889 2.74823 37.9771 4.91135 37.7751L4.90205 37.6755ZM1 41.9557H0.9C0.9 44.2258 2.63004 46.1238 4.89274 46.3354L4.90205 46.2358L4.91136 46.1362C2.75131 45.9342 1.1 44.1224 1.1 41.9557H1ZM4.90205 46.2358L4.89274 46.3354C7.15548 46.547 9.20638 45.0016 9.63005 42.7733L9.53181 42.7547L9.43357 42.736C9.02915 44.863 7.07135 46.3382 4.91136 46.1362L4.90205 46.2358ZM9.53181 42.7547V42.8547H11.5299V42.7547V42.6547H9.53181V42.7547ZM11.5299 42.7547H11.4299V57.7257H11.5299H11.6299V42.7547H11.5299ZM11.5299 57.7257L11.4299 57.726C11.4363 59.5859 12.9458 61.0935 14.8074 61.1L14.8077 61L14.8081 60.9C13.0562 60.8939 11.636 59.4751 11.6299 57.7253L11.5299 57.7257ZM14.8077 61V61.1H44.1891V61V60.9H14.8077V61ZM44.1891 61L44.1895 61.1C46.0511 61.0935 47.5605 59.5859 47.567 57.726L47.467 57.7257L47.367 57.7253C47.3609 59.4751 45.9407 60.8939 44.1888 60.9L44.1891 61ZM47.467 57.7257H47.567V42.7609H47.467H47.367V57.7257H47.467ZM47.467 42.7609V42.8609H49.465V42.7609V42.6609H47.467V42.7609ZM49.465 42.7609L49.3668 42.7795C49.7873 45.0112 51.8416 46.5533 54.1043 46.3385L54.0948 46.2389L54.0854 46.1394C51.9253 46.3444 49.9646 44.8723 49.5633 42.7424L49.465 42.7609ZM54.0948 46.2389L54.1041 46.3385C56.3667 46.1269 58.0969 44.2321 58.0969 41.9619H57.9969H57.8969C57.8969 44.1285 56.2456 45.9373 54.0855 46.1394L54.0948 46.2389ZM57.9969 41.9619H58.0969C58.0969 39.692 56.3669 37.7906 54.104 37.5822L54.0948 37.6818L54.0856 37.7814C56.2455 37.9803 57.8969 39.7951 57.8969 41.9619H57.9969ZM54.0948 37.6818V37.7818H54.1011V37.6818V37.5818H54.0948V37.6818ZM50.9895 30.964L51.0895 30.9647C51.0955 30.1776 51.4608 29.4387 52.0828 28.9562L52.0215 28.8772L51.9602 28.7982C51.2898 29.3183 50.896 30.1148 50.8895 30.9632L50.9895 30.964ZM52.0215 28.8772L52.0834 28.9557C52.7449 28.4337 53.6209 28.2648 54.4272 28.5031L54.4555 28.4072L54.4839 28.3113C53.6152 28.0545 52.6719 28.2365 51.9595 28.7987L52.0215 28.8772ZM54.4555 28.4072L54.4276 28.5032C55.2368 28.7385 55.8804 29.3539 56.1584 30.1509L56.2529 30.118L56.3473 30.085C56.0482 29.2276 55.3555 28.5647 54.4834 28.3112L54.4555 28.4072ZM56.2529 30.118L56.1584 30.1507C56.4332 30.9441 56.3063 31.8252 55.817 32.5101L55.8984 32.5682L55.9798 32.6264C56.5068 31.8887 56.6434 30.9399 56.3474 30.0852L56.2529 30.118ZM55.8984 32.5682L55.8169 32.5103C55.3277 33.1981 54.5364 33.6025 53.6933 33.6025V33.7025V33.8025C54.6005 33.8025 55.4528 33.3672 55.9799 32.6262L55.8984 32.5682ZM53.6933 33.7025V33.6025C52.9949 33.6025 52.3245 33.3277 51.8356 32.8303L51.7642 32.9004L51.6929 32.9705C52.2203 33.507 52.9425 33.8025 53.6933 33.8025V33.7025ZM51.7642 32.9004L51.8356 32.8303C51.3462 32.3324 51.0774 31.6595 51.0895 30.9626L50.9895 30.9608L50.8895 30.9591C50.8765 31.7098 51.166 32.4344 51.6929 32.9705L51.7642 32.9004ZM50.9895 30.9608H50.8895V30.964H50.9895H51.0895V30.9608H50.9895ZM52.6645 17.5439L52.7029 17.6363C53.6753 17.232 54.7929 17.4552 55.5392 18.2006L55.6098 18.1299L55.6805 18.0591C54.8772 17.2567 53.6737 17.0161 52.6261 17.4516L52.6645 17.5439ZM55.6098 18.1299L55.5391 18.2005C56.554 19.2174 56.554 20.8619 55.5391 21.8787L55.6098 21.9494L55.6806 22.02C56.7735 20.9251 56.7735 19.1542 55.6806 18.0592L55.6098 18.1299ZM55.6098 21.9494L55.5392 21.8786C54.7931 22.6239 53.6754 22.8443 52.7026 22.4429L52.6645 22.5353L52.6263 22.6278C53.6735 23.0599 54.8771 22.8227 55.6805 22.0201L55.6098 21.9494ZM52.6645 22.5353L52.7029 22.443C51.7298 22.0385 51.0926 21.0909 51.0926 20.0381H50.9926H50.8926C50.8926 21.1723 51.5791 22.1924 52.6261 22.6277L52.6645 22.5353ZM50.9926 20.0381H51.0926C51.0926 18.9853 51.7267 18.0408 52.7028 17.6363L52.6645 17.5439L52.6262 17.4516C51.576 17.8868 50.8926 18.9038 50.8926 20.0381H50.9926ZM6.34806 22.5353L6.30992 22.4429C5.33724 22.8442 4.21636 22.6209 3.47011 21.8785L3.39958 21.9494L3.32905 22.0203C4.13232 22.8194 5.33884 23.0599 6.3862 22.6278L6.34806 22.5353ZM3.39958 21.9494L3.47039 21.8788C2.72715 21.1333 2.50374 20.0169 2.90543 19.0454L2.81302 19.0072L2.72061 18.969C2.28793 20.0154 2.52876 21.2176 3.32876 22.02L3.39958 21.9494ZM2.81302 19.0072L2.90543 19.0454C3.30721 18.0737 4.25574 17.4372 5.30667 17.4372V17.3372V17.2372C4.17447 17.2372 3.15318 17.9228 2.72061 18.969L2.81302 19.0072ZM5.30667 17.3372V17.4372C6.74457 17.4372 7.91062 18.6019 7.91364 20.0383L8.01364 20.0381L8.11364 20.0379C8.11039 18.4913 6.85491 17.2372 5.30667 17.2372V17.3372ZM8.01364 20.0381H7.91364C7.91364 21.0911 7.2794 22.0386 6.30655 22.443L6.34494 22.5353L6.38332 22.6277C7.43051 22.1924 8.11364 21.1721 8.11364 20.0381H8.01364ZM6.34494 22.5353V22.6353H6.34806V22.5353V22.4353H6.34494V22.5353ZM5.31295 33.7025V33.6025C4.4701 33.6025 3.6786 33.1951 3.18924 32.5101L3.10787 32.5682L3.0265 32.6264C3.55342 33.3639 4.40553 33.8025 5.31295 33.8025V33.7025ZM3.10787 32.5682L3.18924 32.5101C2.69993 31.8252 2.57316 30.9443 2.85094 30.151L2.75656 30.118L2.66218 30.0849C2.36281 30.9398 2.49952 31.8887 3.0265 32.6264L3.10787 32.5682ZM2.75656 30.118L2.85109 30.1506C3.126 29.3539 3.7694 28.7385 4.57866 28.5032L4.55074 28.4072L4.52282 28.3112C3.65081 28.5647 2.958 29.2276 2.66203 30.0854L2.75656 30.118ZM4.55074 28.4072L4.57899 28.5031C5.38847 28.2648 6.26158 28.4336 6.9264 28.9529L6.98796 28.874L7.04951 28.7952C6.33419 28.2366 5.39428 28.0546 4.52249 28.3113L4.55074 28.4072ZM6.98796 28.874L6.92658 28.953C7.56669 29.4507 7.93491 30.2227 7.91681 31.0307L8.01678 31.0329L8.11676 31.0352C8.13629 30.1636 7.73918 29.3314 7.04933 28.7951L6.98796 28.874ZM8.01678 31.0329L7.91679 31.0319C7.90168 32.456 6.74181 33.6056 5.31295 33.6056V33.7056V33.8056C6.85141 33.8056 8.10051 32.5677 8.11678 31.034L8.01678 31.0329ZM5.31295 33.7056H5.41295V33.7025H5.31295H5.21295V33.7056H5.31295ZM6.34806 44.4561L6.30967 44.3637C5.33694 44.7681 4.21631 44.5478 3.47025 43.8025L3.39958 43.8733L3.32891 43.944C4.13237 44.7466 5.33915 44.9838 6.38644 44.5484L6.34806 44.4561ZM3.39958 43.8733L3.47011 43.8024C2.72411 43.0602 2.50057 41.9408 2.90229 40.9693L2.80988 40.9311L2.71747 40.8929C2.28483 41.9392 2.52552 43.1447 3.32905 43.9442L3.39958 43.8733ZM2.80988 40.9311L2.90219 40.9695C3.30709 39.9976 4.25584 39.3609 5.30696 39.3579L5.30667 39.2579L5.30639 39.1579C4.17437 39.1611 3.1533 39.8467 2.71757 40.8926L2.80988 40.9311ZM5.30667 39.2579V39.3579C6.7445 39.3579 7.91062 40.5226 7.91364 41.9622L8.01364 41.9619L8.11364 41.9617C8.11039 40.4121 6.85498 39.1579 5.30667 39.1579V39.2579ZM8.01364 41.9619H7.91364C7.91364 43.0151 7.28241 43.9624 6.30665 44.3668L6.34494 44.4592L6.38322 44.5516C7.43377 44.1162 8.11364 43.0959 8.11364 41.9619H8.01364ZM6.34494 44.4592L6.4158 44.5298L6.41892 44.5266L6.34806 44.4561L6.2772 44.3855L6.27408 44.3886L6.34494 44.4592ZM36.5481 2.60112L36.4856 2.52309L33.4556 4.95142L33.5181 5.02945L33.5806 5.10748L36.6107 2.67916L36.5481 2.60112ZM33.5181 5.02945L33.4535 4.95309C32.7974 5.50789 31.9615 5.8095 31.1015 5.79426L31.0997 5.89425L31.0979 5.99423C32.007 6.01033 32.89 5.69154 33.5827 5.10581L33.5181 5.02945ZM31.0997 5.89425V5.79425H27.1945V5.89425V5.99425H31.0997V5.89425ZM27.1945 5.89425L27.1936 5.79425C26.2134 5.8034 25.2764 5.42217 24.5866 4.73013L24.5158 4.80072L24.445 4.87132C25.173 5.6018 26.1619 6.00389 27.1955 5.99424L27.1945 5.89425ZM24.5158 4.80072L24.5846 4.72814L22.2634 2.52854L22.1946 2.60112L22.1259 2.67371L24.447 4.87331L24.5158 4.80072ZM22.1946 2.60112V2.70112H36.5513V2.60112V2.50112H22.1946V2.60112ZM36.5513 2.60112V2.50112H36.5481V2.60112V2.70112H36.5513V2.60112ZM13.1327 4.27746L13.2327 4.27814C13.2386 3.4083 13.9411 2.70407 14.8112 2.70112L14.8109 2.60112L14.8105 2.50112C13.83 2.50444 13.0394 3.29796 13.0327 4.27678L13.1327 4.27746ZM14.8109 2.60112V2.70112H19.8735V2.60112V2.50112H14.8109V2.60112ZM19.8735 2.60112L19.8047 2.67371L23.346 6.02951L23.4148 5.95692L23.4836 5.88433L19.9423 2.52854L19.8735 2.60112ZM23.4148 5.95692L23.3446 6.02811C24.3703 7.03991 25.7539 7.60497 27.1952 7.59539L27.1945 7.49539L27.1939 7.39539C25.8059 7.40462 24.4731 6.86046 23.485 5.88573L23.4148 5.95692ZM27.1945 7.49539V7.59539H31.0997V7.49539V7.39539H27.1945V7.49539ZM31.0997 7.49539L31.0992 7.59539C32.371 7.60177 33.6047 7.16126 34.5797 6.347L34.5156 6.27025L34.4515 6.1935C33.5131 6.97724 32.3252 7.40154 31.1002 7.39539L31.0997 7.49539ZM34.5156 6.27025L34.5782 6.34825L39.1546 2.676L39.092 2.59801L39.0294 2.52001L34.453 6.19226L34.5156 6.27025ZM39.092 2.59801V2.69801H44.1923V2.59801V2.49801H39.092V2.59801ZM44.1923 2.59801V2.69801C45.0622 2.69801 45.7673 3.40508 45.7673 4.27433H45.8673H45.9673C45.9673 3.29491 45.173 2.49801 44.1923 2.49801V2.59801ZM45.8673 4.27433H45.7673V19.2422H45.8673H45.9673V4.27433H45.8673ZM45.8673 19.2422V19.1422H40.9772V19.2422V19.3422H45.8673V19.2422ZM40.9772 19.2422V19.1422C40.7211 19.1422 40.4734 19.2474 40.3028 19.4427L40.3781 19.5085L40.4534 19.5743C40.5838 19.425 40.7753 19.3422 40.9772 19.3422V19.2422ZM40.3781 19.5085L40.3083 19.4369L39.2983 20.4208L39.368 20.4924L39.4378 20.564L40.4478 19.5802L40.3781 19.5085ZM39.368 20.4924L39.4386 20.4215L38.5634 19.5505L38.4929 19.6213L38.4224 19.6922L39.2975 20.5633L39.368 20.4924ZM38.4929 19.6213L38.5636 19.5506C38.2973 19.2846 37.9363 19.1328 37.5582 19.1328V19.2328V19.3328C37.8826 19.3328 38.1929 19.463 38.4222 19.6921L38.4929 19.6213ZM37.5582 19.2328V19.1328C37.1797 19.1328 36.822 19.2848 36.5559 19.5506L36.6266 19.6213L36.6972 19.6921C36.9267 19.4628 37.234 19.3328 37.5582 19.3328V19.2328ZM36.6266 19.6213L36.5559 19.5506L35.3389 20.7663L35.4095 20.8371L35.4802 20.9078L36.6972 19.6921L36.6266 19.6213ZM35.4095 20.8371L35.3363 20.769C35.287 20.822 35.2075 20.8335 35.1445 20.7954L35.0927 20.8809L35.0409 20.9665C35.185 21.0537 35.369 21.0276 35.4828 20.9052L35.4095 20.8371ZM35.0927 20.8809L35.1412 20.7934C34.3819 20.3731 33.5781 20.038 32.7392 19.8008L32.712 19.8971L32.6848 19.9933C33.5083 20.2261 34.2979 20.5553 35.0443 20.9684L35.0927 20.8809ZM32.712 19.8971L32.7356 19.7999C32.6668 19.7832 32.6199 19.7201 32.6236 19.6485L32.5238 19.6433L32.4239 19.638C32.4151 19.8046 32.5251 19.9546 32.6884 19.9942L32.712 19.8971ZM32.5238 19.6433H32.6238V17.9262H32.5238H32.4238V19.6433H32.5238ZM32.5238 17.9262H32.6238C32.6238 17.5514 32.4717 17.1908 32.2055 16.9249L32.1348 16.9956L32.0641 17.0664C32.2935 17.2955 32.4238 17.6055 32.4238 17.9262H32.5238ZM32.1348 16.9956L32.2055 16.9249C31.9388 16.6584 31.5777 16.5102 31.2001 16.5102V16.6102V16.7102C31.5251 16.7102 31.8353 16.8377 32.0641 17.0664L32.1348 16.9956ZM31.2001 16.6102V16.5102H27.7968V16.6102V16.7102H31.2001V16.6102ZM27.7968 16.6102V16.5102C27.0135 16.5102 26.3796 17.1474 26.3762 17.9289L26.4762 17.9294L26.5762 17.9298C26.5791 17.2575 27.1246 16.7102 27.7968 16.7102V16.6102ZM26.4762 17.9294H26.3762V19.6464H26.4762H26.5762V17.9294H26.4762ZM26.4762 19.6464L26.3764 19.6517C26.3802 19.7245 26.3352 19.7863 26.265 19.8029L26.288 19.9002L26.311 19.9975C26.4792 19.9577 26.5848 19.8065 26.5761 19.6411L26.4762 19.6464ZM26.288 19.9002L26.2603 19.8041C25.4283 20.0443 24.6215 20.3761 23.862 20.7966L23.9104 20.8841L23.9589 20.9716C24.7049 20.5586 25.4978 20.2324 26.3158 19.9963L26.288 19.9002ZM23.9104 20.8841L23.8575 20.7992C23.7977 20.8366 23.7136 20.8244 23.6682 20.7736L23.5936 20.8402L23.5191 20.9068C23.6304 21.0315 23.8224 21.0569 23.9634 20.9689L23.9104 20.8841ZM23.5936 20.8402L23.6643 20.7695L22.4472 19.5537L22.3766 19.6245L22.3059 19.6952L23.5229 20.911L23.5936 20.8402ZM22.3766 19.6245L22.4472 19.5537C21.8906 18.9977 20.9962 18.9977 20.4396 19.5537L20.5102 19.6245L20.5809 19.6952C21.0594 19.2172 21.8274 19.2172 22.3059 19.6952L22.3766 19.6245ZM20.5102 19.6245L20.4397 19.5536L19.5614 20.4278L19.632 20.4987L19.7025 20.5696L20.5808 19.6953L20.5102 19.6245ZM19.632 20.4987L19.7016 20.4269L18.6822 19.4368L18.6125 19.5085L18.5429 19.5803L19.5623 20.5704L19.632 20.4987ZM18.6125 19.5085L18.6878 19.4427C18.5178 19.2481 18.2701 19.1387 18.0121 19.1422L18.0134 19.2422L18.0148 19.3422C18.2147 19.3395 18.4061 19.4243 18.5372 19.5743L18.6125 19.5085ZM18.0134 19.2422V19.1422H13.1202V19.2422V19.3422H18.0134V19.2422ZM13.1202 19.2422H13.2202V4.27746H13.1202H13.0202V19.2422H13.1202ZM13.1202 4.27746V4.37746H13.1327V4.27746V4.17746H13.1202V4.27746ZM38.2326 26.1888L38.145 26.2371C38.4991 26.8793 38.7817 27.5557 38.9898 28.2601L39.0857 28.2317L39.1816 28.2034C38.9694 27.4852 38.6812 26.7954 38.3201 26.1405L38.2326 26.1888ZM39.0857 28.2317L38.9894 28.2586C39.2243 29.1014 39.995 29.679 40.8705 29.679V29.579V29.479C40.0835 29.479 39.3925 28.96 39.1821 28.2049L39.0857 28.2317ZM40.8705 29.579V29.679H42.3103V29.579V29.479H40.8705V29.579ZM42.3103 29.579H42.2103V32.4178H42.3103H42.4103V29.579H42.3103ZM42.3103 32.4178V32.3178H40.8705V32.4178V32.5178H42.3103V32.4178ZM40.8705 32.4178V32.3178C39.995 32.3178 39.2243 32.8955 38.9894 33.7383L39.0857 33.7652L39.1821 33.792C39.3925 33.0368 40.0835 32.5178 40.8705 32.5178V32.4178ZM39.0857 33.7652L38.9897 33.7371C38.7849 34.4379 38.4992 35.1174 38.145 35.7598L38.2326 35.8081L38.3201 35.8564C38.6811 35.2016 38.9726 34.5086 39.1817 33.7932L39.0857 33.7652ZM38.2326 35.8081L38.1453 35.7593C37.7186 36.5225 37.8544 37.4738 38.4757 38.0912L38.5462 38.0202L38.6167 37.9493C38.0586 37.3948 37.9372 36.5413 38.3198 35.8569L38.2326 35.8081ZM38.5462 38.0202L38.4754 38.0909L39.4949 39.1123L39.5656 39.0417L39.6364 38.971L38.617 37.9496L38.5462 38.0202ZM39.5656 39.0417L39.495 38.9709L37.4844 40.9794L37.555 41.0501L37.6257 41.1209L39.6363 39.1124L39.5656 39.0417ZM37.555 41.0501L37.6257 40.9794L36.6063 39.9611L36.5356 40.0318L36.4649 40.1026L37.4844 41.1209L37.555 41.0501ZM36.5356 40.0318L36.6065 39.9612C35.9885 39.3406 35.0363 39.205 34.2724 39.6311L34.3211 39.7185L34.3698 39.8058C35.0551 39.4235 35.9096 39.5449 36.4647 40.1024L36.5356 40.0318ZM34.3211 39.7185L34.2729 39.6309C33.6299 39.9846 32.9529 40.2669 32.2481 40.4716L32.276 40.5676L32.3039 40.6636C33.0231 40.4548 33.7137 40.1668 34.3693 39.8061L34.3211 39.7185ZM32.276 40.5676L32.2488 40.4714C31.4056 40.7092 30.8272 41.4788 30.8272 42.3536H30.9272H31.0272C31.0272 41.5678 31.5466 40.8772 32.3031 40.6639L32.276 40.5676ZM30.9272 42.3536H30.8272V43.7949H30.9272H31.0272V42.3536H30.9272ZM30.9272 43.7949V43.6949H28.0854V43.7949V43.8949H30.9272V43.7949ZM28.0854 43.7949H28.1854V42.3536H28.0854H27.9854V43.7949H28.0854ZM28.0854 42.3536H28.1854C28.1854 41.4788 27.6069 40.7092 26.7637 40.4714L26.7366 40.5676L26.7094 40.6639C27.4659 40.8772 27.9854 41.5678 27.9854 42.3536H28.0854ZM26.7366 40.5676L26.7645 40.4716C26.0596 40.2669 25.3826 39.9846 24.7397 39.6309L24.6915 39.7185L24.6433 39.8061C25.2989 40.1668 25.9894 40.4548 26.7087 40.6636L26.7366 40.5676ZM24.6915 39.7185L24.7402 39.6311C23.9763 39.205 23.0241 39.3406 22.4061 39.9612L22.4769 40.0318L22.5478 40.1024C23.1029 39.5449 23.9575 39.4235 24.6427 39.8058L24.6915 39.7185ZM22.4769 40.0318L22.4063 39.9611L21.3869 40.9794L21.4575 41.0501L21.5282 41.1209L22.5476 40.1026L22.4769 40.0318ZM21.4575 41.0501L21.5282 40.9794L19.5176 38.9709L19.4469 39.0417L19.3762 39.1124L21.3869 41.1209L21.4575 41.0501ZM19.4469 39.0417L19.5176 39.1124L20.537 38.0941L20.4663 38.0234L20.3956 37.9526L19.3762 38.9709L19.4469 39.0417ZM20.4663 38.0234L20.5368 38.0943C21.1581 37.4769 21.2939 36.5256 20.8673 35.7624L20.78 35.8112L20.6927 35.86C21.0753 36.5444 20.9539 37.3979 20.3958 37.9524L20.4663 38.0234ZM20.78 35.8112L20.8676 35.763C20.5135 35.1208 20.2308 34.4412 20.0227 33.7398L19.9268 33.7683L19.8309 33.7967C20.0431 34.5117 20.3313 35.2045 20.6924 35.8595L20.78 35.8112ZM19.9268 33.7683L20.0231 33.7414C19.7883 32.8989 19.0177 32.3177 18.1417 32.321L18.142 32.421L18.1424 32.521C18.9288 32.518 19.6199 33.0397 19.8305 33.7951L19.9268 33.7683ZM18.142 32.421V32.321H16.7023V32.421V32.521H18.142V32.421ZM16.7023 32.421H16.8023V29.5822H16.7023H16.6023V32.421H16.7023ZM16.7023 29.5822V29.6822H18.142V29.5822V29.4822H16.7023V29.5822ZM18.142 29.5822V29.6822C19.0175 29.6822 19.7882 29.1045 20.0231 28.2617L19.9268 28.2348L19.8305 28.208C19.62 28.9632 18.929 29.4822 18.142 29.4822V29.5822ZM19.9268 28.2348L20.0228 28.2628C20.2277 27.559 20.5133 26.8827 20.8676 26.2402L20.78 26.1919L20.6924 26.1436C20.3315 26.7983 20.04 27.4882 19.8308 28.2069L19.9268 28.2348ZM20.78 26.1919L20.8673 26.2407C21.2939 25.4777 21.1583 24.5231 20.5366 23.9087L20.4663 23.9798L20.396 24.0509C20.9538 24.6021 21.0754 25.4586 20.6927 26.1431L20.78 26.1919ZM20.4663 23.9798L20.537 23.909L19.5176 22.8907L19.4469 22.9615L19.3762 23.0322L20.3956 24.0505L20.4663 23.9798ZM19.4469 22.9615L19.5176 23.0322L21.5282 21.0206L21.4575 20.9499L21.3868 20.8792L19.3762 22.8908L19.4469 22.9615ZM21.4575 20.9499L21.3869 21.0206L22.4063 22.0389L22.4769 21.9682L22.5476 21.8974L21.5282 20.8791L21.4575 20.9499ZM22.4769 21.9682L22.4061 22.0388C23.0241 22.6594 23.9763 22.795 24.7402 22.3689L24.6915 22.2815L24.6427 22.1942C23.9575 22.5765 23.1029 22.4551 22.5478 21.8976L22.4769 21.9682ZM24.6915 22.2815L24.74 22.369C25.3825 22.0124 26.0595 21.7332 26.7648 21.5252L26.7366 21.4293L26.7083 21.3334C25.9896 21.5453 25.299 21.83 24.6429 22.1941L24.6915 22.2815ZM26.7366 21.4293L26.7634 21.5256C27.6069 21.291 28.1854 20.5213 28.1854 19.6495H28.0854H27.9854C27.9854 20.4322 27.466 21.1226 26.7098 21.3329L26.7366 21.4293ZM28.0854 19.6495H28.1854V18.2082H28.0854H27.9854V19.6495H28.0854ZM28.0854 18.2082V18.3082H30.9272V18.2082V18.1082H28.0854V18.2082ZM30.9272 18.2082H30.8272V19.6495H30.9272H31.0272V18.2082H30.9272ZM30.9272 19.6495H30.8272C30.8272 20.518 31.4056 21.291 32.2492 21.5256L32.276 21.4293L32.3028 21.3329C31.5467 21.1226 31.0272 20.4292 31.0272 19.6495H30.9272ZM32.276 21.4293L32.2477 21.5252C32.9525 21.733 33.6297 22.0184 34.2729 22.3723L34.3211 22.2847L34.3693 22.197C33.7139 21.8365 33.0235 21.5454 32.3043 21.3334L32.276 21.4293ZM34.3211 22.2847L34.2724 22.372C35.0363 22.7981 35.9885 22.6625 36.6065 22.0419L36.5356 21.9713L36.4647 21.9008C35.9096 22.4583 35.0551 22.5796 34.3698 22.1973L34.3211 22.2847ZM36.5356 21.9713L36.6063 22.0421L37.6257 21.0237L37.555 20.953L37.4844 20.8822L36.4649 21.9006L36.5356 21.9713ZM37.555 20.953L37.4844 21.0237L39.495 23.0322L39.5656 22.9615L39.6363 22.8907L37.6257 20.8823L37.555 20.953ZM39.5656 22.9615L39.4951 22.8906L38.4757 23.9058L38.5462 23.9767L38.6168 24.0475L39.6362 23.0323L39.5656 22.9615ZM38.5462 23.9767L38.4759 23.9055C37.8543 24.5199 37.7187 25.4745 38.1453 26.2376L38.2326 26.1888L38.3198 26.14C37.9372 25.4555 38.0588 24.599 38.6165 24.0478L38.5462 23.9767ZM18.1138 23.8889L18.0431 23.9597L19.2602 25.1754L19.3308 25.1047L19.4015 25.0339L18.1845 23.8182L18.1138 23.8889ZM19.3308 25.1047L19.2628 25.178C19.3159 25.2272 19.3273 25.3065 19.2893 25.3692L19.3748 25.4211L19.4603 25.473C19.5476 25.329 19.5214 25.1451 19.3988 25.0313L19.3308 25.1047ZM19.3748 25.4211L19.2873 25.3726C18.8666 26.1311 18.531 26.9341 18.2967 27.7692L18.393 27.7962L18.4892 27.8232C18.7192 27.0039 19.0486 26.2152 19.4622 25.4696L19.3748 25.4211ZM18.393 27.7962L18.2964 27.7701C18.2772 27.8413 18.2123 27.8881 18.141 27.8843L18.1358 27.9842L18.1305 28.084C18.2976 28.0928 18.446 27.9829 18.4895 27.8223L18.393 27.7962ZM18.1358 27.9842V27.8842H16.4169V27.9842V28.0842H18.1358V27.9842ZM16.4169 27.9842V27.8842C15.634 27.8842 14.9963 28.5211 14.9963 29.3033H15.0963H15.1963C15.1963 28.6317 15.7443 28.0842 16.4169 28.0842V27.9842ZM15.0963 29.3033H14.9963V30.2026H15.0963H15.1963V29.3033H15.0963ZM15.0963 30.2026V30.1026H13.1327V30.2026V30.3026H15.0963V30.2026ZM13.1327 30.2026H13.2327V20.8402H13.1327H13.0327V30.2026H13.1327ZM13.1327 20.8402V20.9402H17.706V20.8402V20.7402H13.1327V20.8402ZM17.706 20.8402L17.6363 20.9119L18.4456 21.6984L18.5153 21.6267L18.585 21.555L17.7757 20.7685L17.706 20.8402ZM18.5153 21.6267L18.4446 21.5559L18.0431 21.957L18.1138 22.0277L18.1845 22.0985L18.586 21.6974L18.5153 21.6267ZM18.1138 22.0277L18.0431 21.957C17.7768 22.223 17.6249 22.5836 17.6249 22.9615H17.7249H17.8249C17.8249 22.6375 17.9552 22.3275 18.1845 22.0985L18.1138 22.0277ZM17.7249 22.9615H17.6249C17.6249 23.3393 17.7768 23.6999 18.0431 23.9659L18.1138 23.8952L18.1845 23.8244C17.9552 23.5954 17.8249 23.2855 17.8249 22.9615H17.7249ZM18.1138 23.8952H18.2138V23.8889H18.1138H18.0138V23.8952H18.1138ZM13.1327 31.7974V31.8974H15.0963V31.7974V31.6974H13.1327V31.7974ZM15.0963 31.7974H14.9963V32.6967H15.0963H15.1963V31.7974H15.0963ZM15.0963 32.6967H14.9963C14.9963 33.4788 15.6339 34.1158 16.4137 34.1158V34.0158V33.9158C15.7444 33.9158 15.1963 33.3685 15.1963 32.6967H15.0963ZM16.4137 34.0158V34.1158H18.1326V34.0158V33.9158H16.4137V34.0158ZM18.1326 34.0158L18.1379 34.1157C18.2092 34.1119 18.274 34.1587 18.2933 34.23L18.3898 34.2038L18.4864 34.1777C18.4429 34.0171 18.2945 33.9072 18.1274 33.916L18.1326 34.0158ZM18.3898 34.2038L18.2937 34.2313C18.531 35.0626 18.8633 35.8687 19.2842 36.6274L19.3716 36.5789L19.4591 36.5304C19.0456 35.7851 18.7192 34.9932 18.486 34.1764L18.3898 34.2038ZM19.3716 36.5789L19.2868 36.6319C19.3241 36.6915 19.312 36.7753 19.2611 36.8207L19.3277 36.8953L19.3943 36.97C19.519 36.8587 19.5446 36.6668 19.4564 36.5258L19.3716 36.5789ZM19.3277 36.8953L19.257 36.8246L18.04 38.0403L18.1107 38.1111L18.1813 38.1818L19.3984 36.9661L19.3277 36.8953ZM18.1107 38.1111L18.04 38.0403C17.7737 38.3063 17.6215 38.6672 17.6249 39.0457L17.7249 39.0448L17.8248 39.0439C17.822 38.7206 17.952 38.4109 18.1813 38.1818L18.1107 38.1111ZM17.7249 39.0448H17.6249C17.6249 39.7344 18.0453 40.0484 18.4412 40.4469L18.5122 40.3765L18.5831 40.306C18.1635 39.8836 17.8249 39.6336 17.8249 39.0448H17.7249ZM18.5122 40.3765L18.4425 40.3047L17.6332 41.0912L17.7029 41.1629L17.7726 41.2346L18.5819 40.4482L18.5122 40.3765ZM17.7029 41.1629V41.0629H13.1327V41.1629V41.2629H17.7029V41.1629ZM45.8704 57.7226H45.7704C45.7704 58.5916 45.0656 59.2957 44.1954 59.2957V59.3957V59.4957C45.1759 59.4957 45.9704 58.7022 45.9704 57.7226H45.8704ZM44.1954 59.3957V59.2957H14.814V59.3957V59.4957H44.1954V59.3957ZM14.814 59.3957V59.2957C13.9439 59.2957 13.2388 58.5915 13.2359 57.7222L13.1359 57.7226L13.0359 57.7229C13.0392 58.7022 13.8335 59.4957 14.814 59.4957V59.3957ZM13.1359 57.7226H13.2359V42.7578H13.1359H13.0359V57.7226H13.1359ZM13.1359 42.7578V42.8578H18.0291V42.7578V42.6578H13.1359V42.7578ZM18.0291 42.7578V42.8578C18.2621 42.8578 18.488 42.7662 18.6542 42.6037L18.5843 42.5322L18.5144 42.4607C18.3858 42.5864 18.2102 42.6578 18.0291 42.6578V42.7578ZM18.5843 42.5322L18.6542 42.6037L19.705 41.576L19.6351 41.5045L19.5652 41.433L18.5144 42.4607L18.5843 42.5322ZM19.6351 41.5045L19.5644 41.5752L20.4427 42.4525L20.5134 42.3818L20.584 42.3111L19.7058 41.4337L19.6351 41.5045ZM20.5134 42.3818L20.4427 42.4525C20.709 42.7186 21.0699 42.8703 21.4481 42.8703V42.7703V42.6703C21.1237 42.6703 20.8134 42.5401 20.584 42.3111L20.5134 42.3818ZM21.4481 42.7703V42.8703C21.8263 42.8703 22.1872 42.7186 22.4535 42.4525L22.3828 42.3818L22.3122 42.3111C22.0829 42.5401 21.7726 42.6703 21.4481 42.6703V42.7703ZM22.3828 42.3818L22.4535 42.4525L23.6705 41.2368L23.5999 41.1661L23.5292 41.0953L22.3122 42.3111L22.3828 42.3818ZM23.5999 41.1661L23.6718 41.2355C23.7257 41.1797 23.8057 41.1708 23.8637 41.207L23.9167 41.1222L23.9696 41.0374C23.8269 40.9482 23.6434 40.977 23.5279 41.0966L23.5999 41.1661ZM23.9167 41.1222L23.8682 41.2097C24.6275 41.63 25.4314 41.9652 26.2673 42.1992L26.2943 42.1029L26.3213 42.0066C25.501 41.777 24.7115 41.4479 23.9651 41.0347L23.9167 41.1222ZM26.2943 42.1029L26.2682 42.1995C26.3397 42.2188 26.3864 42.2836 26.3826 42.3546L26.4825 42.3599L26.5824 42.3651C26.5912 42.198 26.481 42.0498 26.3204 42.0064L26.2943 42.1029ZM26.4825 42.3599H26.3825V44.0769H26.4825H26.5825V42.3599H26.4825ZM26.4825 44.0769H26.3825C26.3825 44.8592 27.0202 45.4961 27.803 45.4961V45.3961V45.2961C27.1305 45.2961 26.5825 44.7485 26.5825 44.0769H26.4825ZM27.803 45.3961V45.4961H31.2064V45.3961V45.2961H27.803V45.3961ZM31.2064 45.3961V45.4961C31.9892 45.4961 32.6269 44.8592 32.6269 44.0769H32.5269H32.4269C32.4269 44.7485 31.8789 45.2961 31.2064 45.2961V45.3961ZM32.5269 44.0769H32.6269V42.3599H32.5269H32.4269V44.0769H32.5269ZM32.5269 42.3599L32.6268 42.3546C32.623 42.2831 32.6699 42.22 32.7387 42.2032L32.7151 42.1061L32.6915 42.0089C32.5282 42.0486 32.4183 42.1985 32.427 42.3651L32.5269 42.3599ZM32.7151 42.1061L32.7427 42.2022C33.5776 41.9621 34.3846 41.6334 35.1413 41.2127L35.0927 41.1253L35.0441 41.0379C34.3015 41.4507 33.5087 41.7738 32.6875 42.01L32.7151 42.1061ZM35.0927 41.1253L35.1464 41.2097C35.2093 41.1697 35.2888 41.1824 35.3338 41.2345L35.4095 41.1692L35.4852 41.1039C35.3734 40.9743 35.1832 40.9493 35.0391 41.0409L35.0927 41.1253ZM35.4095 41.1692L35.3389 41.24L36.5559 42.4557L36.6266 42.3849L36.6972 42.3142L35.4802 41.0985L35.4095 41.1692ZM36.6266 42.3849L36.5559 42.4557C36.8225 42.722 37.1836 42.8703 37.5582 42.8703V42.7703V42.6703C37.2364 42.6703 36.9262 42.5429 36.6972 42.3142L36.6266 42.3849ZM37.5582 42.7703V42.8703C37.9325 42.8703 38.2968 42.7222 38.5636 42.4557L38.4929 42.3849L38.4222 42.3142C38.1934 42.5427 37.8802 42.6703 37.5582 42.6703V42.7703ZM38.4929 42.3849L38.5636 42.4557L39.4418 41.5784L39.3712 41.5076L39.3005 41.4369L38.4222 42.3142L38.4929 42.3849ZM39.3712 41.5076L39.3015 41.5793L40.3617 42.6102L40.4314 42.5385L40.5011 42.4668L39.4409 41.4359L39.3712 41.5076ZM40.4314 42.5385L40.3615 42.61C40.5284 42.7732 40.7546 42.8609 40.9866 42.8609V42.7609V42.6609C40.8045 42.6609 40.6292 42.592 40.5013 42.467L40.4314 42.5385ZM40.9866 42.7609V42.8609H45.8767V42.7609V42.6609H40.9866V42.7609ZM45.8767 42.7609H45.7767V57.7257H45.8767H45.9767V42.7609H45.8767ZM45.8767 57.7257L45.9214 57.6362L45.9151 57.6331L45.8704 57.7226L45.8257 57.812L45.832 57.8151L45.8767 57.7257ZM45.8704 31.8006H45.7704V41.1661H45.8704H45.9704V31.8006H45.8704ZM45.8704 41.1661V41.0661H41.3002V41.1661V41.2661H45.8704V41.1661ZM41.3002 41.1661L41.3699 41.0944L40.5607 40.3079L40.491 40.3796L40.4213 40.4513L41.2305 41.2378L41.3002 41.1661ZM40.491 40.3796L40.5616 40.4504L40.9631 40.0493L40.8925 39.9785L40.8218 39.9078L40.4203 40.3089L40.491 40.3796ZM40.8925 39.9785L40.9631 40.0493C41.2294 39.7833 41.3814 39.4227 41.3814 39.0448H41.2814H41.1814C41.1814 39.3688 41.0511 39.6787 40.8218 39.9078L40.8925 39.9785ZM41.2814 39.0448H41.3814C41.3814 38.667 41.2295 38.3062 40.9627 38.043L40.8925 38.1142L40.8222 38.1854C41.051 38.4111 41.1814 38.7207 41.1814 39.0448H41.2814ZM40.8925 38.1142L40.9631 38.0435L39.7461 36.8277L39.6754 36.8985L39.6048 36.9692L40.8218 38.185L40.8925 38.1142ZM39.6754 36.8985L39.7434 36.8252C39.6904 36.776 39.6789 36.6967 39.717 36.6339L39.6315 36.582L39.546 36.5301C39.4586 36.6742 39.4848 36.8581 39.6074 36.9718L39.6754 36.8985ZM39.6315 36.582L39.7189 36.6307C40.1398 35.8752 40.4753 35.0689 40.7096 34.234L40.6133 34.207L40.517 34.18C40.2871 34.9994 39.9576 35.7911 39.5442 36.5334L39.6315 36.582ZM40.6133 34.207L40.7098 34.2331C40.7285 34.1639 40.7924 34.1169 40.8679 34.1189L40.8705 34.019L40.8731 33.919C40.7102 33.9147 40.5608 34.0181 40.5168 34.1809L40.6133 34.207ZM40.8705 34.019V34.119H42.5894V34.019V33.919H40.8705V34.019ZM42.5894 34.019V34.119C43.3725 34.119 44.0066 33.4851 44.01 32.7003L43.91 32.6998L43.81 32.6994C43.8071 33.3747 43.2618 33.919 42.5894 33.919V34.019ZM43.91 32.6998H44.01V31.8006H43.91H43.81V32.6998H43.91ZM43.91 31.8006V31.9006H45.8735V31.8006V31.7006H43.91V31.8006ZM45.8735 31.8006V31.7006H45.8704V31.8006V31.9006H45.8735V31.8006ZM43.91 30.1994H44.01V29.3033H43.91H43.81V30.1994H43.91ZM43.91 29.3033H44.01C44.01 28.5178 43.3721 27.8842 42.5894 27.8842V27.9842V28.0842C43.2622 28.0842 43.81 28.6287 43.81 29.3033H43.91ZM42.5894 27.9842V27.8842H40.8705V27.9842V28.0842H42.5894V27.9842ZM40.8705 27.9842L40.8653 27.8843C40.794 27.8881 40.7291 27.8413 40.7098 27.7701L40.6133 27.7962L40.5168 27.8223C40.5602 27.9829 40.7087 28.0928 40.8758 28.084L40.8705 27.9842ZM40.6133 27.7962L40.7095 27.7688C40.4722 26.9343 40.1399 26.1282 39.7189 25.3725L39.6315 25.4211L39.5442 25.4698C39.9575 26.2118 40.2839 27.0036 40.5171 27.8235L40.6133 27.7962ZM39.6315 25.4211L39.717 25.3692C39.6783 25.3055 39.6915 25.2243 39.742 25.1793L39.6754 25.1047L39.6089 25.03C39.4837 25.1416 39.4592 25.3299 39.546 25.473L39.6315 25.4211ZM39.6754 25.1047L39.7461 25.1754L40.9631 23.9597L40.8925 23.8889L40.8218 23.8182L39.6048 25.0339L39.6754 25.1047ZM40.8925 23.8889L40.9636 23.9592C41.2264 23.6934 41.3783 23.333 41.3783 22.9552H41.2783H41.1783C41.1783 23.2793 41.0479 23.5894 40.8213 23.8186L40.8925 23.8889ZM41.2783 22.9552H41.3783C41.3783 22.2656 40.9581 21.9488 40.5616 21.5528L40.491 21.6235L40.4203 21.6943C40.8394 22.1129 41.1783 22.3664 41.1783 22.9552H41.2783ZM40.491 21.6235L40.5608 21.6951L41.3701 20.9055L41.3002 20.8339L41.2304 20.7624L40.4211 21.552L40.491 21.6235ZM41.3002 20.8339V20.9339H45.8673V20.8339V20.7339H41.3002V20.8339ZM45.8673 20.8339H45.7673V30.1963H45.8673H45.9673V20.8339H45.8673ZM45.8673 30.1963V30.0963H43.91V30.1963V30.2963H45.8673V30.1963ZM43.91 30.1963H43.81V30.1994H43.91H44.01V30.1963H43.91ZM55.6098 43.8701L55.5393 43.7992C54.7931 44.5417 53.6753 44.765 52.6994 44.3636L52.6613 44.4561L52.6233 44.5485C53.6737 44.9806 54.8771 44.7402 55.6804 43.941L55.6098 43.8701ZM52.6613 44.4561L52.6997 44.3637C51.7269 43.9593 51.0926 43.0118 51.0926 41.9588H50.9926H50.8926C50.8926 43.0929 51.5758 44.1131 52.623 44.5484L52.6613 44.4561ZM50.9926 41.9588H51.0926C51.0926 40.9058 51.7269 39.9583 52.6997 39.5539L52.6613 39.4615L52.623 39.3692C51.5758 39.8045 50.8926 40.8247 50.8926 41.9588H50.9926ZM52.6613 39.4615L52.6995 39.554C53.6722 39.1527 54.7931 39.3759 55.5393 40.1184L55.6098 40.0475L55.6804 39.9766C54.8771 39.1774 53.6706 38.937 52.6232 39.3691L52.6613 39.4615ZM55.6098 40.0475L55.5392 40.1182C56.5571 41.1351 56.5571 42.7825 55.5392 43.7994L55.6098 43.8701L55.6805 43.9409C56.7767 42.8459 56.7767 41.0717 55.6805 39.9767L55.6098 40.0475ZM29.5031 23.8544V23.7544C26.5706 23.7544 23.9276 25.5177 22.8017 28.2278L22.8941 28.2662L22.9864 28.3045C24.0813 25.6691 26.6515 23.9544 29.5031 23.9544V23.8544ZM22.8941 28.2662L22.8017 28.2278C21.6789 30.9349 22.2992 34.0485 24.3729 36.1231L24.4436 36.0525L24.5143 35.9818C22.4977 33.9643 21.8947 30.9366 22.9864 28.3045L22.8941 28.2662ZM24.4436 36.0525L24.3729 36.1232C26.4466 38.1947 29.5667 38.8174 32.2766 37.6927L32.2383 37.6003L32.2 37.508C29.5649 38.6016 26.5308 37.9961 24.5143 35.9817L24.4436 36.0525ZM32.2383 37.6003L32.2765 37.6927C34.9863 36.5712 36.7547 33.931 36.7547 30.9984H36.6547H36.5547C36.5547 33.8499 34.8352 36.4173 32.2001 37.5079L32.2383 37.6003ZM36.6547 30.9984H36.7547C36.7547 26.9951 33.5073 23.7544 29.5031 23.7544V23.8544V23.9544C33.3971 23.9544 36.5547 27.1058 36.5547 30.9984H36.6547ZM33.4334 34.9213L33.3627 34.8506C31.801 36.4106 29.457 36.8752 27.4178 36.0321L27.3796 36.1245L27.3413 36.2169C29.4551 37.0909 31.8851 36.6093 33.504 34.9921L33.4334 34.9213ZM27.3796 36.1245L27.4178 36.0321C25.3785 35.189 24.048 33.2044 24.048 31.0015H23.948H23.848C23.848 33.2856 25.2276 35.343 27.3413 36.2169L27.3796 36.1245ZM23.948 31.0015H24.048C24.048 28.7986 25.3755 26.8109 27.4177 25.9679L27.3796 25.8754L27.3414 25.783C25.2243 26.657 23.848 28.7176 23.848 31.0015H23.948ZM27.3796 25.8754L27.4178 25.9678C29.4569 25.1248 31.801 25.5924 33.3628 27.1495L33.4334 27.0786L33.504 27.0078C31.8851 25.3939 29.4552 24.909 27.3413 25.783L27.3796 25.8754ZM33.4334 27.0786L33.3627 27.1494C35.491 29.2754 35.4911 32.7245 33.3626 34.8538L33.4334 34.9245L33.5041 34.9952C35.7106 32.7879 35.7106 29.2121 33.504 27.0079L33.4334 27.0786ZM33.4334 34.9245H33.5334V34.9213H33.4334H33.3334V34.9245H33.4334ZM31.9497 54.3229V54.2229H27.0596V54.3229V54.4229H31.9497V54.3229ZM27.0596 54.3229L27.0653 54.2231C26.8199 54.2091 26.573 54.2929 26.392 54.4631L26.4605 54.536L26.529 54.6088C26.6679 54.4782 26.8602 54.4117 27.0539 54.4227L27.0596 54.3229ZM26.4605 54.536L26.392 54.4632C26.2089 54.6355 26.1064 54.8717 26.1064 55.1219H26.2064H26.3064C26.3064 54.9272 26.3859 54.7435 26.529 54.6088L26.4605 54.536ZM26.2064 55.1219H26.1064C26.1064 55.372 26.2088 55.6087 26.3927 55.7782L26.4605 55.7047L26.5283 55.6312C26.386 55.5 26.3064 55.3168 26.3064 55.1219H26.2064ZM26.4605 55.7047L26.3927 55.7782C26.5754 55.9467 26.8187 56.0352 27.0667 56.0175L27.0596 55.9178L27.0525 55.818C26.8614 55.8317 26.6718 55.7635 26.5283 55.6312L26.4605 55.7047ZM27.0596 55.9178V56.0178H31.9497V55.9178V55.8178H27.0596V55.9178ZM31.9497 55.9178L31.9426 56.0175C32.1901 56.0352 32.437 55.9471 32.6173 55.7776L32.5488 55.7047L32.4803 55.6319C32.3407 55.7632 32.1485 55.8317 31.9568 55.818L31.9497 55.9178ZM32.5488 55.7047L32.6173 55.7776C32.7969 55.6087 32.9029 55.3695 32.9029 55.1219H32.8029H32.7029C32.7029 55.313 32.6207 55.4999 32.4803 55.6319L32.5488 55.7047ZM32.8029 55.1219H32.9029C32.9029 54.875 32.8006 54.6356 32.6174 54.4632L32.5488 54.536L32.4803 54.6088C32.6233 54.7434 32.7029 54.9301 32.7029 55.1219H32.8029ZM32.5488 54.536L32.6166 54.4625C32.4331 54.2933 32.19 54.209 31.944 54.2231L31.9497 54.3229L31.9554 54.4227C32.1485 54.4117 32.3383 54.4779 32.481 54.6095L32.5488 54.536ZM13.1327 41.1629H13.2327V31.7974H13.1327H13.0327V41.1629H13.1327Z" fill="#0096A3" mask="url(#path-1-outside-1_2002_140)"></path></svg>