<svg width="56" height="61" viewBox="0 0 56 61" fill="none" xmlns="http://www.w3.org/2000/svg"><path d="M14.4984 32.1189L15.0661 32.7216C15.1111 32.7699 15.1628 32.8116 15.2087 32.8591C15.2829 32.9342 15.3612 33.0059 15.4388 33.0784C15.5813 33.2143 15.7239 33.3493 15.8739 33.4744C15.9723 33.5577 16.0765 33.6328 16.179 33.7111C16.3133 33.8145 16.4458 33.9204 16.5859 34.0162C16.7434 34.1246 16.9077 34.2221 17.0719 34.3205C17.1644 34.3755 17.2528 34.4356 17.347 34.4872C17.6026 34.6295 17.8663 34.7596 18.1381 34.8774L18.1606 34.8882C19.3261 35.3941 20.5831 35.6552 21.8537 35.6552C23.1242 35.6552 24.3812 35.3941 25.5467 34.8882L25.5592 34.8824C25.8332 34.7629 26.1003 34.6312 26.3604 34.4872C26.4504 34.4372 26.5363 34.3789 26.6246 34.3264C26.7914 34.2255 26.9581 34.1254 27.1248 34.0146C27.2607 33.922 27.3899 33.8187 27.5208 33.7186C27.6267 33.6353 27.735 33.5586 27.8368 33.4685C27.9843 33.346 28.1227 33.2134 28.2627 33.0817C28.3461 33.005 28.4295 32.9308 28.5028 32.8516C28.5478 32.8058 28.5979 32.7683 28.6429 32.7174L29.2098 32.1147L29.1764 32.0788C30.2583 30.7047 30.9316 29.0537 31.1192 27.3149C31.3069 25.576 31.0013 23.8194 30.2376 22.2461C29.4738 20.6727 28.2826 19.346 26.8003 18.4179C25.3179 17.4897 23.6043 16.9975 21.8553 16.9975C20.1064 16.9975 18.3927 17.4897 16.9104 18.4179C15.4281 19.346 14.2369 20.6727 13.4731 22.2461C12.7093 23.8194 12.4038 25.576 12.5915 27.3149C12.7791 29.0537 13.4524 30.7047 14.5343 32.0788L14.4984 32.1189ZM24.8064 33.2918L24.7723 33.306C24.568 33.3893 24.3596 33.4677 24.147 33.5352L24.0553 33.5644C23.8628 33.6236 23.666 33.6728 23.4668 33.7161L23.3251 33.7478C23.1383 33.7845 22.9474 33.812 22.7557 33.8312C22.6998 33.8378 22.6448 33.8478 22.589 33.8537C22.3464 33.877 22.1013 33.8904 21.8528 33.8904C21.6044 33.8904 21.3602 33.877 21.1176 33.8537C21.0617 33.8478 21.0067 33.8378 20.9508 33.8312C20.7591 33.8087 20.5682 33.7811 20.3806 33.7478L20.2397 33.7161C20.0405 33.6728 19.8438 33.6236 19.6503 33.5644L19.5603 33.5361C19.3469 33.4677 19.1368 33.3918 18.9317 33.3051L18.9017 33.2926C18.2096 32.9968 17.5656 32.5992 16.991 32.113C18.3529 30.9688 20.0746 30.3416 21.8533 30.3416C23.6319 30.3416 25.3537 30.9688 26.7155 32.113C26.1414 32.5989 25.498 32.9962 24.8064 33.2918ZM21.8528 18.7789C23.2527 18.7764 24.6256 19.1635 25.8179 19.8968C27.0103 20.6301 27.9751 21.6808 28.6044 22.9312C29.2337 24.1816 29.5027 25.5824 29.3813 26.9769C29.2598 28.3715 28.7527 29.7047 27.9168 30.8275C26.2293 29.3776 24.0781 28.5804 21.8533 28.5804C19.6284 28.5804 17.4772 29.3776 15.7897 30.8275C14.9537 29.7049 14.4466 28.3717 14.3251 26.9773C14.2036 25.5828 14.4725 24.1821 15.1017 22.9317C15.7309 21.6814 16.6957 20.6308 17.888 19.8975C19.0803 19.1642 20.4531 18.7764 21.8528 18.7789ZM21.8528 27.8222C22.5898 27.8222 23.3102 27.6037 23.923 27.1943C24.5358 26.7849 25.0134 26.2029 25.2955 25.5221C25.5776 24.8412 25.6514 24.092 25.5077 23.3692C25.364 22.6463 25.0092 21.9824 24.4881 21.4612C23.967 20.94 23.3031 20.585 22.5803 20.4412C21.8575 20.2973 21.1083 20.371 20.4274 20.6529C19.7465 20.9348 19.1644 21.4123 18.7549 22.025C18.3453 22.6377 18.1266 23.358 18.1264 24.095C18.1275 25.0831 18.5205 26.0303 19.219 26.7291C19.9176 27.4278 20.8648 27.8209 21.8528 27.8222ZM21.8528 22.1318C22.2413 22.1319 22.621 22.2473 22.9439 22.4632C23.2668 22.6792 23.5184 22.9861 23.6669 23.345C23.8154 23.704 23.8541 24.0989 23.7782 24.4798C23.7022 24.8608 23.515 25.2107 23.2402 25.4852C22.9654 25.7598 22.6154 25.9467 22.2344 26.0223C21.8533 26.098 21.4584 26.0589 21.0996 25.9101C20.7408 25.7613 20.4342 25.5094 20.2185 25.1863C20.0028 24.8633 19.8878 24.4835 19.8879 24.095C19.8888 23.5743 20.0962 23.0752 20.4645 22.7072C20.8329 22.3391 21.3321 22.1322 21.8528 22.1318ZM9.45736 39.4074C9.45736 39.2915 9.48026 39.1766 9.52477 39.0696C9.56927 38.9625 9.63448 38.8653 9.71667 38.7835C9.79886 38.7017 9.8964 38.6369 10.0037 38.5929C10.111 38.5489 10.2259 38.5265 10.3419 38.5271H31.0446C31.1626 38.5235 31.28 38.5436 31.3901 38.5862C31.5001 38.6288 31.6004 38.6931 31.6851 38.7753C31.7699 38.8574 31.8372 38.9557 31.8832 39.0644C31.9292 39.173 31.9529 39.2898 31.9529 39.4078C31.9529 39.5258 31.9292 39.6426 31.8832 39.7513C31.8372 39.86 31.7699 39.9583 31.6851 40.0404C31.6004 40.1226 31.5001 40.1869 31.3901 40.2295C31.28 40.2721 31.1626 40.2922 31.0446 40.2886H10.3419C10.2258 40.2891 10.1108 40.2667 10.0035 40.2227C9.89615 40.1786 9.79858 40.1138 9.71638 40.0319C9.63418 39.95 9.56898 39.8527 9.52453 39.7455C9.48007 39.6384 9.45725 39.5235 9.45736 39.4074ZM35.7614 44.7694C35.7614 45.0031 35.6686 45.2273 35.5033 45.3925C35.3381 45.5578 35.1139 45.6506 34.8802 45.6506H10.3419C10.1082 45.6506 9.88403 45.5578 9.71878 45.3925C9.55353 45.2273 9.46069 45.0031 9.46069 44.7694C9.46069 44.5357 9.55353 44.3116 9.71878 44.1464C9.88403 43.9811 10.1082 43.8883 10.3419 43.8883H34.8844C35.1174 43.8894 35.3404 43.9827 35.5048 44.1478C35.6691 44.313 35.7614 44.5365 35.7614 44.7694ZM35.7614 50.1298C35.7614 50.2455 35.7386 50.36 35.6943 50.4669C35.65 50.5737 35.5851 50.6708 35.5033 50.7526C35.4214 50.8343 35.3243 50.8991 35.2174 50.9433C35.1105 50.9875 34.9959 51.0102 34.8802 51.0101H10.3419C10.113 51.0031 9.89579 50.9072 9.73637 50.7428C9.57695 50.5784 9.48779 50.3584 9.48779 50.1294C9.48779 49.9004 9.57695 49.6803 9.73637 49.5159C9.89579 49.3515 10.113 49.2557 10.3419 49.2486H34.8844C35.1174 49.2497 35.3404 49.343 35.5048 49.5082C35.6691 49.6733 35.7614 49.8968 35.7614 50.1298ZM54.0691 40.427C54.8392 39.0966 55.313 37.6157 55.458 36.0853C55.603 34.555 55.4158 33.0114 54.9092 31.5601C54.4026 30.1088 53.5886 28.784 52.5227 27.6763C51.4569 26.5686 50.1645 25.7042 48.7338 25.1421V1.394C48.7338 1.16096 48.6414 0.93742 48.4768 0.772397C48.3122 0.607375 48.089 0.514334 47.8559 0.513672H6.95725C6.84165 0.513672 6.72717 0.536442 6.62037 0.580683C6.51356 0.624924 6.41651 0.689769 6.33477 0.771515C6.25302 0.853261 6.18818 0.950308 6.14394 1.05711C6.09969 1.16392 6.07692 1.2784 6.07692 1.394V6.38921H1.40851C1.17481 6.38921 0.95068 6.48205 0.78543 6.6473C0.62018 6.81255 0.527344 7.03667 0.527344 7.27037V57.3525C0.527344 57.4682 0.550135 57.5828 0.594418 57.6897C0.6387 57.7966 0.703606 57.8937 0.78543 57.9756C0.867254 58.0574 0.964393 58.1223 1.0713 58.1666C1.17821 58.2109 1.29279 58.2336 1.40851 58.2336H42.2997C42.4154 58.2336 42.53 58.2109 42.6369 58.1666C42.7438 58.1223 42.8409 58.0574 42.9227 57.9756C43.0046 57.8937 43.0695 57.7966 43.1138 57.6897C43.158 57.5828 43.1808 57.4682 43.1808 57.3525V52.3556H46.4196L48.2886 59.3299C48.3798 59.6688 48.58 59.9683 48.8583 60.1822C49.1365 60.3961 49.4774 60.5126 49.8283 60.5137C49.9691 60.5137 50.1092 60.4952 50.2452 60.4586L52.7869 59.7776C52.9893 59.7234 53.1789 59.6299 53.3451 59.5024C53.5113 59.3749 53.6507 59.2159 53.7555 59.0346C53.8602 58.8532 53.9282 58.653 53.9555 58.4453C53.9829 58.2376 53.9691 58.0266 53.9149 57.8243L51.3022 48.084C51.2294 47.8024 51.0792 47.5467 50.8687 47.3459C50.6582 47.1451 50.3957 47.0072 50.1109 46.9477L49.5057 44.6886C51.4197 43.7577 53.0096 42.2729 54.0691 40.427ZM53.4414 32.7649C54.0066 34.8879 53.7712 37.1446 52.7802 39.1052C51.7891 41.0659 50.1115 42.5935 48.0668 43.3973C47.7615 43.5169 47.4502 43.6204 47.134 43.7074L47.1198 43.7115L47.0998 43.7157C44.8123 44.3243 42.3768 44.0001 40.3281 42.8144C38.2794 41.6287 36.785 39.6783 36.1732 37.3917C35.5597 35.1018 35.8809 32.6619 37.0663 30.6089C38.2516 28.5558 40.204 27.0578 42.4939 26.4442C44.7838 25.8307 47.2236 26.1519 49.2767 27.3373C51.3297 28.5227 52.8278 30.475 53.4414 32.7649ZM47.7976 47.3737L47.2915 45.4855C47.3866 45.4622 47.4816 45.438 47.5758 45.413C47.67 45.388 47.7642 45.3613 47.8576 45.3296L48.3636 47.2187L47.7976 47.3737ZM32.7519 9.40867L40.1864 16.9007H32.7519V9.40867ZM7.84092 2.27517H46.9714V24.611C45.725 24.3473 44.4412 24.3106 43.1817 24.5027V17.7818C43.1814 17.5494 43.0894 17.3265 42.9257 17.1616L32.496 6.65014C32.4142 6.56751 32.3168 6.50191 32.2095 6.45712C32.1022 6.41233 31.987 6.38925 31.8708 6.38921H7.84092V2.27517ZM2.2855 56.4722V8.1507H30.9896V17.7818C30.9896 18.0155 31.0824 18.2396 31.2477 18.4049C31.4129 18.5701 31.6371 18.663 31.8708 18.663H41.4193V24.9387C39.2771 25.6318 37.4096 26.986 36.085 28.8068C34.7604 30.6276 34.0469 32.8213 34.0469 35.0729C34.0469 37.3245 34.7604 39.5182 36.085 41.339C37.4096 43.1598 39.2771 44.5139 41.4193 45.2071V56.4722H2.2855ZM43.1817 50.5958V45.6464C43.7118 45.732 44.2478 45.7769 44.7848 45.7806C45.0349 45.7806 45.285 45.749 45.5309 45.7315L46.142 48.0115C45.9277 48.2073 45.7712 48.4581 45.6895 48.7366C45.6078 49.0151 45.604 49.3107 45.6784 49.5912L45.9477 50.5916L43.1817 50.5958ZM52.1684 58.1211L49.9475 58.7163L47.4224 49.2961L48.2827 49.0652L49.6441 48.7009L52.1684 58.1211ZM42.7707 27.4838C40.9297 27.9776 39.3307 29.1232 38.2713 30.7077C37.2118 32.2922 36.7639 34.2076 37.011 36.0976C37.2581 37.9875 38.1833 39.7234 39.6145 40.9823C41.0456 42.2412 42.8854 42.9373 44.7914 42.9412C45.9108 42.9427 47.0176 42.705 48.0377 42.2442C49.0578 41.7835 49.9678 41.1102 50.7068 40.2694C51.4457 39.4286 51.9966 38.4397 52.3226 37.3689C52.6486 36.298 52.7422 35.1699 52.5971 34.06C52.452 32.9501 52.0716 31.8839 51.4812 30.9329C50.8909 29.9818 50.1043 29.1678 49.1741 28.5452C48.2438 27.9227 47.1913 27.5059 46.087 27.3229C44.9827 27.1398 43.8521 27.1947 42.7707 27.4838ZM50.6962 33.4977C51.0088 34.6632 50.9688 35.8952 50.5811 37.038C50.1935 38.1807 49.4757 39.1829 48.5184 39.9176C47.5612 40.6524 46.4076 41.0867 45.2035 41.1658C43.9994 41.2448 42.7989 40.965 41.7538 40.3617C40.7087 39.7584 39.8661 38.8588 39.3324 37.7765C38.7986 36.6942 38.5979 35.478 38.7555 34.2816C38.913 33.0853 39.4219 31.9625 40.2176 31.0553C41.0133 30.1482 42.0602 29.4974 43.2259 29.1853C43.9995 28.9776 44.8065 28.9245 45.6007 29.0289C46.3949 29.1333 47.1608 29.3931 47.8546 29.7936C48.5483 30.1941 49.1563 30.7274 49.6439 31.3629C50.1315 31.9985 50.489 32.7239 50.6962 33.4977ZM43.9603 35.8861L46.733 32.4873C46.8036 32.3907 46.893 32.3095 46.996 32.2486C47.0989 32.1877 47.2132 32.1484 47.3318 32.1331C47.4505 32.1178 47.571 32.1268 47.686 32.1596C47.8011 32.1924 47.9082 32.2482 48.001 32.3238C48.0937 32.3993 48.1701 32.4929 48.2255 32.5989C48.2809 32.7049 48.3142 32.8211 48.3232 32.9404C48.3323 33.0597 48.3169 33.1795 48.2782 33.2927C48.2394 33.4058 48.178 33.5099 48.0977 33.5986L44.7814 37.6643C44.6363 37.8426 44.4272 37.957 44.1988 37.9831C43.9703 38.0091 43.7408 37.9446 43.5593 37.8035L41.6511 36.3238C41.4665 36.1801 41.3465 35.9689 41.3176 35.7367C41.2887 35.5046 41.3532 35.2704 41.4969 35.0858C41.6406 34.9012 41.8517 34.7812 42.0839 34.7523C42.3161 34.7234 42.5502 34.7879 42.7348 34.9316L43.9603 35.8861Z" fill="#0CB4C4"></path></svg>