<svg width="51" height="62" viewBox="0 0 51 62" fill="none" xmlns="http://www.w3.org/2000/svg"><mask id="path-1-outside-1_1214_338" maskUnits="userSpaceOnUse" x="-0.585938" y="0" width="52" height="62" fill="black"><rect fill="white" x="-0.585938" width="52" height="62"></rect><path d="M47.8942 50.8175H13.1829C11.8774 50.8175 10.8145 49.755 10.8145 48.4495V3.35748C10.8145 2.05743 11.8774 1 13.1829 1H40.1983C41.2228 1 42.185 1.3978 42.9073 2.12061L49.154 8.39792C49.858 9.10242 50.2627 10.0825 50.2627 11.0854V48.439C50.2627 49.7505 49.1998 50.8175 47.8942 50.8175ZM13.1829 2.875C12.9156 2.875 12.6895 3.0961 12.6895 3.35748V48.4495C12.6895 48.7214 12.911 48.9425 13.1829 48.9425H47.8942C48.1661 48.9425 48.3877 48.7168 48.3877 48.439V11.0854C48.3877 10.576 48.1835 10.0788 47.8265 9.72223L41.5798 3.44492C41.2127 3.07779 40.722 2.875 40.1983 2.875H13.1829Z"></path><path d="M48.7841 10.7586H42.5356C41.415 10.7586 40.5032 9.84674 40.5032 8.72568V2.43967C40.5032 1.92194 40.9225 1.50217 41.4407 1.50217C41.9589 1.50217 42.3782 1.92194 42.3782 2.43967V8.72568C42.3782 8.81265 42.4487 8.88361 42.5356 8.88361H48.7841C49.3023 8.88361 49.7216 9.30338 49.7216 9.82111C49.7216 10.3388 49.3023 10.7586 48.7841 10.7586Z"></path><path d="M42.694 55.7989H7.98181C6.67627 55.7989 5.61426 54.7364 5.61426 53.4304V8.33887C5.61426 7.03882 6.67627 5.98138 7.98181 5.98138H11.752C12.2701 5.98138 12.6895 6.40115 12.6895 6.91888V48.4495C12.6895 48.7214 12.911 48.9425 13.1829 48.9425H44.1241C44.6423 48.9425 45.0616 49.3623 45.0616 49.88V53.4203C45.0616 54.7318 43.9996 55.7989 42.694 55.7989ZM7.98181 7.85638C7.7099 7.85638 7.48926 8.07291 7.48926 8.33887V53.4304C7.48926 53.7069 7.70532 53.9239 7.98181 53.9239H42.694C42.9614 53.9239 43.1866 53.6932 43.1866 53.4203V50.8175H13.1829C11.8774 50.8175 10.8145 49.755 10.8145 48.4495V7.85638H7.98181Z"></path><path d="M37.4938 61H2.78162C1.47607 61 0.414062 59.9375 0.414062 58.632V13.54C0.414062 12.2399 1.47607 11.1825 2.78162 11.1825H6.55176C7.06995 11.1825 7.48926 11.6023 7.48926 12.12C7.48926 12.6377 7.06995 13.0575 6.55176 13.0575H2.78162C2.5097 13.0575 2.28906 13.274 2.28906 13.54V58.632C2.28906 58.9085 2.50513 59.125 2.78162 59.125H37.4938C37.7612 59.125 37.9864 58.8943 37.9864 58.6215V55.0811C37.9864 54.5634 38.4057 54.1436 38.9239 54.1436C39.4421 54.1436 39.8614 54.5634 39.8614 55.0811V58.6215C39.8614 59.933 38.7994 61 37.4938 61Z"></path><path d="M22.4306 13.4036C22.2283 13.4036 22.0251 13.389 21.82 13.3592L21.8163 13.3583C20.0951 13.0992 18.7081 11.7232 18.4408 10.0121C18.233 8.71476 18.6413 7.43668 19.5623 6.50971C20.4842 5.58274 21.7605 5.16434 23.0651 5.36667C24.7835 5.62485 26.1669 7.00775 26.426 8.72986C26.6219 10.0235 26.2109 11.2924 25.299 12.2102C24.529 12.9843 23.5082 13.4036 22.4306 13.4036ZM22.0937 11.5039C22.7969 11.6051 23.4798 11.3812 23.9687 10.8887C24.4585 10.3961 24.6783 9.71131 24.5721 9.00956C24.4366 8.1073 23.684 7.35566 22.7831 7.22016C22.0754 7.11121 21.3869 7.33414 20.8926 7.83173C20.3982 8.3284 20.1803 9.01642 20.2929 9.71955C20.433 10.6186 21.1901 11.3675 22.0937 11.5039Z"></path><path d="M28.5006 21.2798H16.3589C15.8407 21.2798 15.4214 20.8601 15.4214 20.3423V16.3072C15.4214 13.6636 17.572 11.513 20.216 11.513H24.6435C27.2875 11.513 29.4381 13.6636 29.4381 16.3072V20.3423C29.4381 20.8601 29.0188 21.2798 28.5006 21.2798ZM17.2964 19.4048H27.5631V16.3072C27.5631 14.6977 26.253 13.388 24.6435 13.388H20.216C18.6065 13.388 17.2964 14.6977 17.2964 16.3072V19.4048Z"></path><path d="M36.9775 7.85638H31.7104C31.1923 7.85638 30.7729 7.43661 30.7729 6.91888C30.7729 6.40115 31.1923 5.98138 31.7104 5.98138H36.9775C37.4957 5.98138 37.915 6.40115 37.915 6.91888C37.915 7.43661 37.4957 7.85638 36.9775 7.85638Z"></path><path d="M36.9775 12.5613H31.7104C31.1923 12.5613 30.7729 12.1415 30.7729 11.6238C30.7729 11.106 31.1923 10.6863 31.7104 10.6863H36.9775C37.4957 10.6863 37.915 11.106 37.915 11.6238C37.915 12.1415 37.4957 12.5613 36.9775 12.5613Z"></path><path d="M44.8062 17.2662H31.7104C31.1923 17.2662 30.7729 16.8464 30.7729 16.3287C30.7729 15.8109 31.1923 15.3912 31.7104 15.3912H44.8062C45.3243 15.3912 45.7437 15.8109 45.7437 16.3287C45.7437 16.8464 45.3243 17.2662 44.8062 17.2662Z"></path><path d="M44.8062 21.9711H31.7104C31.1923 21.9711 30.7729 21.5513 30.7729 21.0336C30.7729 20.5158 31.1923 20.0961 31.7104 20.0961H44.8062C45.3243 20.0961 45.7437 20.5158 45.7437 21.0336C45.7437 21.5513 45.3243 21.9711 44.8062 21.9711Z"></path><path d="M44.8071 26.676H16.3589C15.8407 26.676 15.4214 26.2562 15.4214 25.7385C15.4214 25.2207 15.8407 24.801 16.3589 24.801H44.8071C45.3253 24.801 45.7446 25.2207 45.7446 25.7385C45.7446 26.2562 45.3253 26.676 44.8071 26.676Z"></path><path d="M44.8071 31.3813H16.3589C15.8407 31.3813 15.4214 30.9615 15.4214 30.4438C15.4214 29.9261 15.8407 29.5063 16.3589 29.5063H44.8071C45.3253 29.5063 45.7446 29.9261 45.7446 30.4438C45.7446 30.9615 45.3253 31.3813 44.8071 31.3813Z"></path><path d="M44.8071 36.0862H16.3589C15.8407 36.0862 15.4214 35.6664 15.4214 35.1487C15.4214 34.631 15.8407 34.2112 16.3589 34.2112H44.8071C45.3253 34.2112 45.7446 34.631 45.7446 35.1487C45.7446 35.6664 45.3253 36.0862 44.8071 36.0862Z"></path><path d="M44.8071 40.7911H16.3589C15.8407 40.7911 15.4214 40.3713 15.4214 39.8536C15.4214 39.3359 15.8407 38.9161 16.3589 38.9161H44.8071C45.3253 38.9161 45.7446 39.3359 45.7446 39.8536C45.7446 40.3713 45.3253 40.7911 44.8071 40.7911Z"></path><path d="M44.8071 45.496H16.3589C15.8407 45.496 15.4214 45.0762 15.4214 44.5585C15.4214 44.0408 15.8407 43.621 16.3589 43.621H44.8071C45.3253 43.621 45.7446 44.0408 45.7446 44.5585C45.7446 45.0762 45.3253 45.496 44.8071 45.496Z"></path></mask><path d="M47.8942 50.8175H13.1829C11.8774 50.8175 10.8145 49.755 10.8145 48.4495V3.35748C10.8145 2.05743 11.8774 1 13.1829 1H40.1983C41.2228 1 42.185 1.3978 42.9073 2.12061L49.154 8.39792C49.858 9.10242 50.2627 10.0825 50.2627 11.0854V48.439C50.2627 49.7505 49.1998 50.8175 47.8942 50.8175ZM13.1829 2.875C12.9156 2.875 12.6895 3.0961 12.6895 3.35748V48.4495C12.6895 48.7214 12.911 48.9425 13.1829 48.9425H47.8942C48.1661 48.9425 48.3877 48.7168 48.3877 48.439V11.0854C48.3877 10.576 48.1835 10.0788 47.8265 9.72223L41.5798 3.44492C41.2127 3.07779 40.722 2.875 40.1983 2.875H13.1829Z" fill="#0CB4C4"></path><path d="M48.7841 10.7586H42.5356C41.415 10.7586 40.5032 9.84674 40.5032 8.72568V2.43967C40.5032 1.92194 40.9225 1.50217 41.4407 1.50217C41.9589 1.50217 42.3782 1.92194 42.3782 2.43967V8.72568C42.3782 8.81265 42.4487 8.88361 42.5356 8.88361H48.7841C49.3023 8.88361 49.7216 9.30338 49.7216 9.82111C49.7216 10.3388 49.3023 10.7586 48.7841 10.7586Z" fill="#0CB4C4"></path><path d="M42.694 55.7989H7.98181C6.67627 55.7989 5.61426 54.7364 5.61426 53.4304V8.33887C5.61426 7.03882 6.67627 5.98138 7.98181 5.98138H11.752C12.2701 5.98138 12.6895 6.40115 12.6895 6.91888V48.4495C12.6895 48.7214 12.911 48.9425 13.1829 48.9425H44.1241C44.6423 48.9425 45.0616 49.3623 45.0616 49.88V53.4203C45.0616 54.7318 43.9996 55.7989 42.694 55.7989ZM7.98181 7.85638C7.7099 7.85638 7.48926 8.07291 7.48926 8.33887V53.4304C7.48926 53.7069 7.70532 53.9239 7.98181 53.9239H42.694C42.9614 53.9239 43.1866 53.6932 43.1866 53.4203V50.8175H13.1829C11.8774 50.8175 10.8145 49.755 10.8145 48.4495V7.85638H7.98181Z" fill="#0CB4C4"></path><path d="M37.4938 61H2.78162C1.47607 61 0.414062 59.9375 0.414062 58.632V13.54C0.414062 12.2399 1.47607 11.1825 2.78162 11.1825H6.55176C7.06995 11.1825 7.48926 11.6023 7.48926 12.12C7.48926 12.6377 7.06995 13.0575 6.55176 13.0575H2.78162C2.5097 13.0575 2.28906 13.274 2.28906 13.54V58.632C2.28906 58.9085 2.50513 59.125 2.78162 59.125H37.4938C37.7612 59.125 37.9864 58.8943 37.9864 58.6215V55.0811C37.9864 54.5634 38.4057 54.1436 38.9239 54.1436C39.4421 54.1436 39.8614 54.5634 39.8614 55.0811V58.6215C39.8614 59.933 38.7994 61 37.4938 61Z" fill="#0CB4C4"></path><path d="M22.4306 13.4036C22.2283 13.4036 22.0251 13.389 21.82 13.3592L21.8163 13.3583C20.0951 13.0992 18.7081 11.7232 18.4408 10.0121C18.233 8.71476 18.6413 7.43668 19.5623 6.50971C20.4842 5.58274 21.7605 5.16434 23.0651 5.36667C24.7835 5.62485 26.1669 7.00775 26.426 8.72986C26.6219 10.0235 26.2109 11.2924 25.299 12.2102C24.529 12.9843 23.5082 13.4036 22.4306 13.4036ZM22.0937 11.5039C22.7969 11.6051 23.4798 11.3812 23.9687 10.8887C24.4585 10.3961 24.6783 9.71131 24.5721 9.00956C24.4366 8.1073 23.684 7.35566 22.7831 7.22016C22.0754 7.11121 21.3869 7.33414 20.8926 7.83173C20.3982 8.3284 20.1803 9.01642 20.2929 9.71955C20.433 10.6186 21.1901 11.3675 22.0937 11.5039Z" fill="#0CB4C4"></path><path d="M28.5006 21.2798H16.3589C15.8407 21.2798 15.4214 20.8601 15.4214 20.3423V16.3072C15.4214 13.6636 17.572 11.513 20.216 11.513H24.6435C27.2875 11.513 29.4381 13.6636 29.4381 16.3072V20.3423C29.4381 20.8601 29.0188 21.2798 28.5006 21.2798ZM17.2964 19.4048H27.5631V16.3072C27.5631 14.6977 26.253 13.388 24.6435 13.388H20.216C18.6065 13.388 17.2964 14.6977 17.2964 16.3072V19.4048Z" fill="#0CB4C4"></path><path d="M36.9775 7.85638H31.7104C31.1923 7.85638 30.7729 7.43661 30.7729 6.91888C30.7729 6.40115 31.1923 5.98138 31.7104 5.98138H36.9775C37.4957 5.98138 37.915 6.40115 37.915 6.91888C37.915 7.43661 37.4957 7.85638 36.9775 7.85638Z" fill="#0CB4C4"></path><path d="M36.9775 12.5613H31.7104C31.1923 12.5613 30.7729 12.1415 30.7729 11.6238C30.7729 11.106 31.1923 10.6863 31.7104 10.6863H36.9775C37.4957 10.6863 37.915 11.106 37.915 11.6238C37.915 12.1415 37.4957 12.5613 36.9775 12.5613Z" fill="#0CB4C4"></path><path d="M44.8062 17.2662H31.7104C31.1923 17.2662 30.7729 16.8464 30.7729 16.3287C30.7729 15.8109 31.1923 15.3912 31.7104 15.3912H44.8062C45.3243 15.3912 45.7437 15.8109 45.7437 16.3287C45.7437 16.8464 45.3243 17.2662 44.8062 17.2662Z" fill="#0CB4C4"></path><path d="M44.8062 21.9711H31.7104C31.1923 21.9711 30.7729 21.5513 30.7729 21.0336C30.7729 20.5158 31.1923 20.0961 31.7104 20.0961H44.8062C45.3243 20.0961 45.7437 20.5158 45.7437 21.0336C45.7437 21.5513 45.3243 21.9711 44.8062 21.9711Z" fill="#0CB4C4"></path><path d="M44.8071 26.676H16.3589C15.8407 26.676 15.4214 26.2562 15.4214 25.7385C15.4214 25.2207 15.8407 24.801 16.3589 24.801H44.8071C45.3253 24.801 45.7446 25.2207 45.7446 25.7385C45.7446 26.2562 45.3253 26.676 44.8071 26.676Z" fill="#0CB4C4"></path><path d="M44.8071 31.3813H16.3589C15.8407 31.3813 15.4214 30.9615 15.4214 30.4438C15.4214 29.9261 15.8407 29.5063 16.3589 29.5063H44.8071C45.3253 29.5063 45.7446 29.9261 45.7446 30.4438C45.7446 30.9615 45.3253 31.3813 44.8071 31.3813Z" fill="#0CB4C4"></path><path d="M44.8071 36.0862H16.3589C15.8407 36.0862 15.4214 35.6664 15.4214 35.1487C15.4214 34.631 15.8407 34.2112 16.3589 34.2112H44.8071C45.3253 34.2112 45.7446 34.631 45.7446 35.1487C45.7446 35.6664 45.3253 36.0862 44.8071 36.0862Z" fill="#0CB4C4"></path><path d="M44.8071 40.7911H16.3589C15.8407 40.7911 15.4214 40.3713 15.4214 39.8536C15.4214 39.3359 15.8407 38.9161 16.3589 38.9161H44.8071C45.3253 38.9161 45.7446 39.3359 45.7446 39.8536C45.7446 40.3713 45.3253 40.7911 44.8071 40.7911Z" fill="#0CB4C4"></path><path d="M44.8071 45.496H16.3589C15.8407 45.496 15.4214 45.0762 15.4214 44.5585C15.4214 44.0408 15.8407 43.621 16.3589 43.621H44.8071C45.3253 43.621 45.7446 44.0408 45.7446 44.5585C45.7446 45.0762 45.3253 45.496 44.8071 45.496Z" fill="#0CB4C4"></path><path d="M13.1829 50.7175C11.9326 50.7175 10.9145 49.6998 10.9145 48.4495H10.7145C10.7145 49.8103 11.8222 50.9175 13.1829 50.9175V50.7175ZM12.5895 48.4495C12.5895 48.7768 12.8559 49.0425 13.1829 49.0425V48.8425C12.9661 48.8425 12.7895 48.6661 12.7895 48.4495H12.5895ZM42.9073 2.12061L43.0491 1.97953L43.0488 1.97923L42.9073 2.12061ZM49.154 8.39792L49.0122 8.53899L49.0125 8.53929L49.154 8.39792ZM47.8265 9.72223L47.6847 9.8633L47.6851 9.86374L47.8265 9.72223ZM41.5798 3.44492L41.7216 3.30384L41.7213 3.30349L41.5798 3.44492ZM45.0616 53.4203L45.2616 53.4203V53.4203H45.0616ZM43.1866 50.8175H43.3866V50.6175H43.1866V50.8175ZM10.8145 7.85638H11.0145V7.65638H10.8145V7.85638ZM2.28906 58.632H2.48906H2.28906ZM39.8614 58.6215L39.6614 58.6215V58.6215L39.8614 58.6215ZM21.82 13.3592L21.7715 13.5533L21.7813 13.5557L21.7913 13.5572L21.82 13.3592ZM21.8163 13.3583L21.8648 13.1643L21.8556 13.162L21.8461 13.1605L21.8163 13.3583ZM18.4408 10.0121L18.6384 9.98119L18.6383 9.98042L18.4408 10.0121ZM19.5623 6.50971L19.4205 6.36867L19.4204 6.36874L19.5623 6.50971ZM23.0651 5.36667L23.0345 5.56431L23.0354 5.56445L23.0651 5.36667ZM26.426 8.72986L26.2282 8.75962L26.2283 8.75981L26.426 8.72986ZM25.299 12.2102L25.4408 12.3513L25.4409 12.3512L25.299 12.2102ZM22.0937 11.5039L22.0639 11.7017L22.0652 11.7019L22.0937 11.5039ZM23.9687 10.8887L23.8269 10.7476L23.8268 10.7478L23.9687 10.8887ZM24.5721 9.00956L24.3743 9.03926L24.3743 9.03948L24.5721 9.00956ZM22.7831 7.22016L22.7527 7.41783L22.7534 7.41793L22.7831 7.22016ZM20.8926 7.83173L21.0343 7.97282L21.0344 7.97269L20.8926 7.83173ZM20.2929 9.71955L20.4905 9.68876L20.4904 9.68792L20.2929 9.71955ZM17.2964 19.4048H17.0964V19.6048H17.2964V19.4048ZM27.5631 19.4048V19.6048H27.7631V19.4048H27.5631ZM47.8942 50.6175H13.1829V51.0175H47.8942V50.6175ZM11.0145 48.4495V3.35748H10.6145V48.4495H11.0145ZM11.0145 3.35748C11.0145 2.1688 11.9869 1.2 13.1829 1.2V0.8C11.7678 0.8 10.6145 1.94607 10.6145 3.35748H11.0145ZM13.1829 1.2H40.1983V0.8H13.1829V1.2ZM40.1983 1.2C41.1699 1.2 42.0812 1.57685 42.7659 2.26198L43.0488 1.97923C42.2888 1.21874 41.2756 0.8 40.1983 0.8V1.2ZM42.7656 2.26168L49.0122 8.53899L49.2958 8.25684L43.0491 1.97953L42.7656 2.26168ZM49.0125 8.53929C49.6788 9.20605 50.0627 10.1352 50.0627 11.0854H50.4627C50.4627 10.0298 50.0372 8.99879 49.2955 8.25654L49.0125 8.53929ZM50.0627 11.0854V48.439H50.4627V11.0854H50.0627ZM50.0627 48.439C50.0627 49.6408 49.0885 50.6175 47.8942 50.6175V51.0175C49.311 51.0175 50.4627 49.8601 50.4627 48.439H50.0627ZM13.1829 2.675C12.8094 2.675 12.4895 2.98142 12.4895 3.35748H12.8895C12.8895 3.21078 13.0218 3.075 13.1829 3.075V2.675ZM12.4895 3.35748V48.4495H12.8895V3.35748H12.4895ZM13.1829 49.1425H47.8942V48.7425H13.1829V49.1425ZM47.8942 49.1425C48.2803 49.1425 48.5877 48.8236 48.5877 48.439H48.1877C48.1877 48.6101 48.052 48.7425 47.8942 48.7425V49.1425ZM48.5877 48.439V11.0854H48.1877V48.439H48.5877ZM48.5877 11.0854C48.5877 10.5237 48.363 9.97538 47.9678 9.58072L47.6851 9.86374C48.0041 10.1823 48.1877 10.6283 48.1877 11.0854H48.5877ZM47.9682 9.58115L41.7216 3.30384L41.4381 3.58599L47.6847 9.8633L47.9682 9.58115ZM41.7213 3.30349C41.3164 2.8986 40.7747 2.675 40.1983 2.675V3.075C40.6693 3.075 41.1091 3.25698 41.4384 3.58634L41.7213 3.30349ZM40.1983 2.675H13.1829V3.075H40.1983V2.675ZM48.7841 10.5586H42.5356V10.9586H48.7841V10.5586ZM42.5356 10.5586C41.5255 10.5586 40.7032 9.73631 40.7032 8.72568H40.3032C40.3032 9.95717 41.3046 10.9586 42.5356 10.9586V10.5586ZM40.7032 8.72568V2.43967H40.3032V8.72568H40.7032ZM40.7032 2.43967C40.7032 2.03233 41.033 1.70217 41.4407 1.70217V1.30217C40.812 1.30217 40.3032 1.81154 40.3032 2.43967H40.7032ZM41.4407 1.70217C41.8483 1.70217 42.1782 2.03233 42.1782 2.43967H42.5782C42.5782 1.81154 42.0694 1.30217 41.4407 1.30217V1.70217ZM42.1782 2.43967V8.72568H42.5782V2.43967H42.1782ZM42.1782 8.72568C42.1782 8.92235 42.3375 9.08361 42.5356 9.08361V8.68361C42.5599 8.68361 42.5782 8.70295 42.5782 8.72568H42.1782ZM42.5356 9.08361H48.7841V8.68361H42.5356V9.08361ZM48.7841 9.08361C49.1918 9.08361 49.5216 9.41377 49.5216 9.82111H49.9216C49.9216 9.19298 49.4128 8.68361 48.7841 8.68361V9.08361ZM49.5216 9.82111C49.5216 10.2284 49.1918 10.5586 48.7841 10.5586V10.9586C49.4128 10.9586 49.9216 10.4492 49.9216 9.82111H49.5216ZM42.694 55.5989H7.98181V55.9989H42.694V55.5989ZM7.98181 55.5989C6.7868 55.5989 5.81426 54.626 5.81426 53.4304H5.41426C5.41426 54.8468 6.56574 55.9989 7.98181 55.9989V55.5989ZM5.81426 53.4304V8.33887H5.41426V53.4304H5.81426ZM5.81426 8.33887C5.81426 7.15008 6.78592 6.18138 7.98181 6.18138V5.78138C6.56662 5.78138 5.41426 6.92756 5.41426 8.33887H5.81426ZM7.98181 6.18138H11.752V5.78138H7.98181V6.18138ZM11.752 6.18138C12.1596 6.18138 12.4895 6.51155 12.4895 6.91888H12.8895C12.8895 6.29076 12.3807 5.78138 11.752 5.78138V6.18138ZM12.4895 6.91888V48.4495H12.8895V6.91888H12.4895ZM13.1829 49.1425H44.1241V48.7425H13.1829V49.1425ZM44.1241 49.1425C44.5318 49.1425 44.8616 49.4727 44.8616 49.88H45.2616C45.2616 49.2519 44.7528 48.7425 44.1241 48.7425V49.1425ZM44.8616 49.88V53.4203H45.2616V49.88H44.8616ZM44.8616 53.4203C44.8616 54.6223 43.8882 55.5989 42.694 55.5989V55.9989C44.1109 55.9989 45.2616 54.8414 45.2616 53.4203L44.8616 53.4203ZM7.98181 7.65638C7.60325 7.65638 7.28926 7.95868 7.28926 8.33887H7.68926C7.68926 8.18713 7.81655 8.05638 7.98181 8.05638V7.65638ZM7.28926 8.33887V53.4304H7.68926V8.33887H7.28926ZM7.28926 53.4304C7.28926 53.8169 7.59438 54.1239 7.98181 54.1239V53.7239C7.81627 53.7239 7.68926 53.5969 7.68926 53.4304H7.28926ZM7.98181 54.1239H42.694V53.7239H7.98181V54.1239ZM42.694 54.1239C43.0761 54.1239 43.3866 53.7993 43.3866 53.4203H42.9866C42.9866 53.587 42.8467 53.7239 42.694 53.7239V54.1239ZM43.3866 53.4203V50.8175H42.9866V53.4203H43.3866ZM43.1866 50.6175H13.1829V51.0175H43.1866V50.6175ZM11.0145 48.4495V7.85638H10.6145V48.4495H11.0145ZM10.8145 7.65638H7.98181V8.05638H10.8145V7.65638ZM37.4938 60.8H2.78162V61.2H37.4938V60.8ZM2.78162 60.8C1.58658 60.8 0.614063 59.8271 0.614063 58.632H0.214062C0.214062 60.0479 1.36557 61.2 2.78162 61.2V60.8ZM0.614063 58.632V13.54H0.214062V58.632H0.614063ZM0.614063 13.54C0.614063 12.3512 1.58572 11.3825 2.78162 11.3825V10.9825C1.36643 10.9825 0.214062 12.1287 0.214062 13.54H0.614063ZM2.78162 11.3825H6.55176V10.9825H2.78162V11.3825ZM6.55176 11.3825C6.95943 11.3825 7.28926 11.7127 7.28926 12.12H7.68926C7.68926 11.4919 7.18047 10.9825 6.55176 10.9825V11.3825ZM7.28926 12.12C7.28926 12.5273 6.95943 12.8575 6.55176 12.8575V13.2575C7.18047 13.2575 7.68926 12.7481 7.68926 12.12H7.28926ZM6.55176 12.8575H2.78162V13.2575H6.55176V12.8575ZM2.78162 12.8575C2.40306 12.8575 2.08906 13.1598 2.08906 13.54H2.48906C2.48906 13.3882 2.61635 13.2575 2.78162 13.2575V12.8575ZM2.08906 13.54V58.632H2.48906V13.54H2.08906ZM2.08906 58.632C2.08906 59.0187 2.39443 59.325 2.78162 59.325V58.925C2.61583 58.925 2.48906 58.7983 2.48906 58.632H2.08906ZM2.78162 59.325H37.4938V58.925H2.78162V59.325ZM37.4938 59.325C37.8759 59.325 38.1864 59.0004 38.1864 58.6215H37.7864C37.7864 58.7881 37.6465 58.925 37.4938 58.925V59.325ZM38.1864 58.6215V55.0811H37.7864V58.6215H38.1864ZM38.1864 55.0811C38.1864 54.6738 38.5162 54.3436 38.9239 54.3436V53.9436C38.2952 53.9436 37.7864 54.453 37.7864 55.0811H38.1864ZM38.9239 54.3436C39.3316 54.3436 39.6614 54.6738 39.6614 55.0811H40.0614C40.0614 54.453 39.5526 53.9436 38.9239 53.9436V54.3436ZM39.6614 55.0811V58.6215H40.0614V55.0811H39.6614ZM39.6614 58.6215C39.6614 59.8234 38.688 60.8 37.4938 60.8V61.2C38.9107 61.2 40.0614 60.0425 40.0614 58.6215L39.6614 58.6215ZM22.4306 13.2036C22.238 13.2036 22.0444 13.1897 21.8487 13.1613L21.7913 13.5572C22.0058 13.5883 22.2186 13.6036 22.4306 13.6036V13.2036ZM21.8685 13.1652L21.8648 13.1643L21.7678 13.5523L21.7715 13.5533L21.8685 13.1652ZM21.8461 13.1605C20.2108 12.9144 18.8922 11.6055 18.6384 9.98119L18.2432 10.0429C18.5241 11.8408 19.9794 13.2841 21.7866 13.5561L21.8461 13.1605ZM18.6383 9.98042C18.4405 8.74566 18.8286 7.53189 19.7042 6.65067L19.4204 6.36874C18.4539 7.34147 18.0255 8.68385 18.2433 10.0437L18.6383 9.98042ZM19.7041 6.65074C20.5806 5.76942 21.7927 5.37172 23.0345 5.56431L23.0958 5.16903C21.7283 4.95696 20.3878 5.39605 19.4205 6.36867L19.7041 6.65074ZM23.0354 5.56445C24.6669 5.80957 25.9822 7.12424 26.2282 8.75962L26.6238 8.70011C26.3516 6.89127 24.9002 5.44013 23.0948 5.16889L23.0354 5.56445ZM26.2283 8.75981C26.4148 9.99166 26.0238 11.197 25.1571 12.0693L25.4409 12.3512C26.3979 11.3879 26.829 10.0553 26.6238 8.69991L26.2283 8.75981ZM25.1572 12.0692C24.425 12.8053 23.4553 13.2036 22.4306 13.2036V13.6036C23.5612 13.6036 24.6331 13.1633 25.4408 12.3513L25.1572 12.0692ZM22.0652 11.7019C22.8292 11.8118 23.5759 11.5683 24.1107 11.0296L23.8268 10.7478C23.3838 11.1941 22.7645 11.3984 22.1222 11.3059L22.0652 11.7019ZM24.1105 11.0297C24.6462 10.4911 24.8852 9.74235 24.7698 8.97963L24.3743 9.03948C24.4713 9.68026 24.2709 10.3012 23.8269 10.7476L24.1105 11.0297ZM24.7698 8.97985C24.6213 7.9907 23.8005 7.17093 22.8129 7.02238L22.7534 7.41793C23.5675 7.54038 24.2518 8.22391 24.3743 9.03926L24.7698 8.97985ZM22.8136 7.02249C22.0441 6.90404 21.2912 7.14676 20.7507 7.69077L21.0344 7.97269C21.4827 7.52152 22.1067 7.31838 22.7527 7.41783L22.8136 7.02249ZM20.7508 7.69064C20.2103 8.23367 19.9729 8.9863 20.0954 9.75117L20.4904 9.68792C20.3877 9.04654 20.5861 8.42314 21.0343 7.97282L20.7508 7.69064ZM20.0953 9.75034C20.2489 10.7365 21.0747 11.5523 22.0639 11.7017L22.1236 11.3062C21.3055 11.1827 20.617 10.5007 20.4905 9.68876L20.0953 9.75034ZM28.5006 21.0798H16.3589V21.4798H28.5006V21.0798ZM16.3589 21.0798C15.9512 21.0798 15.6214 20.7497 15.6214 20.3423H15.2214C15.2214 20.9705 15.7302 21.4798 16.3589 21.4798V21.0798ZM15.6214 20.3423V16.3072H15.2214V20.3423H15.6214ZM15.6214 16.3072C15.6214 13.774 17.6824 11.713 20.216 11.713V11.313C17.4615 11.313 15.2214 13.5531 15.2214 16.3072H15.6214ZM20.216 11.713H24.6435V11.313H20.216V11.713ZM24.6435 11.713C27.1771 11.713 29.2381 13.774 29.2381 16.3072H29.6381C29.6381 13.5531 27.398 11.313 24.6435 11.313V11.713ZM29.2381 16.3072V20.3423H29.6381V16.3072H29.2381ZM29.2381 20.3423C29.2381 20.7497 28.9083 21.0798 28.5006 21.0798V21.4798C29.1293 21.4798 29.6381 20.9705 29.6381 20.3423H29.2381ZM17.2964 19.6048H27.5631V19.2048H17.2964V19.6048ZM27.7631 19.4048V16.3072H27.3631V19.4048H27.7631ZM27.7631 16.3072C27.7631 14.5872 26.3634 13.188 24.6435 13.188V13.588C26.1426 13.588 27.3631 14.8082 27.3631 16.3072H27.7631ZM24.6435 13.188H20.216V13.588H24.6435V13.188ZM20.216 13.188C18.4961 13.188 17.0964 14.5872 17.0964 16.3072H17.4964C17.4964 14.8082 18.7169 13.588 20.216 13.588V13.188ZM17.0964 16.3072V19.4048H17.4964V16.3072H17.0964ZM36.9775 7.65638H31.7104V8.05638H36.9775V7.65638ZM31.7104 7.65638C31.3028 7.65638 30.9729 7.32622 30.9729 6.91888H30.5729C30.5729 7.54701 31.0817 8.05638 31.7104 8.05638V7.65638ZM30.9729 6.91888C30.9729 6.51155 31.3028 6.18138 31.7104 6.18138V5.78138C31.0817 5.78138 30.5729 6.29076 30.5729 6.91888H30.9729ZM31.7104 6.18138H36.9775V5.78138H31.7104V6.18138ZM36.9775 6.18138C37.3851 6.18138 37.715 6.51155 37.715 6.91888H38.115C38.115 6.29076 37.6062 5.78138 36.9775 5.78138V6.18138ZM37.715 6.91888C37.715 7.32622 37.3851 7.65638 36.9775 7.65638V8.05638C37.6062 8.05638 38.115 7.54701 38.115 6.91888H37.715ZM36.9775 12.3613H31.7104V12.7613H36.9775V12.3613ZM31.7104 12.3613C31.3028 12.3613 30.9729 12.0311 30.9729 11.6238H30.5729C30.5729 12.2519 31.0817 12.7613 31.7104 12.7613V12.3613ZM30.9729 11.6238C30.9729 11.2164 31.3028 10.8863 31.7104 10.8863V10.4863C31.0817 10.4863 30.5729 10.9957 30.5729 11.6238H30.9729ZM31.7104 10.8863H36.9775V10.4863H31.7104V10.8863ZM36.9775 10.8863C37.3851 10.8863 37.715 11.2164 37.715 11.6238H38.115C38.115 10.9957 37.6062 10.4863 36.9775 10.4863V10.8863ZM37.715 11.6238C37.715 12.0311 37.3851 12.3613 36.9775 12.3613V12.7613C37.6062 12.7613 38.115 12.2519 38.115 11.6238H37.715ZM44.8062 17.0662H31.7104V17.4662H44.8062V17.0662ZM31.7104 17.0662C31.3028 17.0662 30.9729 16.736 30.9729 16.3287H30.5729C30.5729 16.9568 31.0817 17.4662 31.7104 17.4662V17.0662ZM30.9729 16.3287C30.9729 15.9213 31.3028 15.5912 31.7104 15.5912V15.1912C31.0817 15.1912 30.5729 15.7006 30.5729 16.3287H30.9729ZM31.7104 15.5912H44.8062V15.1912H31.7104V15.5912ZM44.8062 15.5912C45.2138 15.5912 45.5437 15.9213 45.5437 16.3287H45.9437C45.9437 15.7006 45.4349 15.1912 44.8062 15.1912V15.5912ZM45.5437 16.3287C45.5437 16.736 45.2138 17.0662 44.8062 17.0662V17.4662C45.4349 17.4662 45.9437 16.9568 45.9437 16.3287H45.5437ZM44.8062 21.7711H31.7104V22.1711H44.8062V21.7711ZM31.7104 21.7711C31.3028 21.7711 30.9729 21.4409 30.9729 21.0336H30.5729C30.5729 21.6617 31.0817 22.1711 31.7104 22.1711V21.7711ZM30.9729 21.0336C30.9729 20.6262 31.3028 20.2961 31.7104 20.2961V19.8961C31.0817 19.8961 30.5729 20.4054 30.5729 21.0336H30.9729ZM31.7104 20.2961H44.8062V19.8961H31.7104V20.2961ZM44.8062 20.2961C45.2138 20.2961 45.5437 20.6262 45.5437 21.0336H45.9437C45.9437 20.4054 45.4349 19.8961 44.8062 19.8961V20.2961ZM45.5437 21.0336C45.5437 21.4409 45.2138 21.7711 44.8062 21.7711V22.1711C45.4349 22.1711 45.9437 21.6617 45.9437 21.0336H45.5437ZM44.8071 26.476H16.3589V26.876H44.8071V26.476ZM16.3589 26.476C15.9512 26.476 15.6214 26.1458 15.6214 25.7385H15.2214C15.2214 26.3666 15.7302 26.876 16.3589 26.876V26.476ZM15.6214 25.7385C15.6214 25.3311 15.9512 25.001 16.3589 25.001V24.601C15.7302 24.601 15.2214 25.1103 15.2214 25.7385H15.6214ZM16.3589 25.001H44.8071V24.601H16.3589V25.001ZM44.8071 25.001C45.2147 25.001 45.5446 25.3311 45.5446 25.7385H45.9446C45.9446 25.1103 45.4358 24.601 44.8071 24.601V25.001ZM45.5446 25.7385C45.5446 26.1458 45.2147 26.476 44.8071 26.476V26.876C45.4358 26.876 45.9446 26.3666 45.9446 25.7385H45.5446ZM44.8071 31.1813H16.3589V31.5813H44.8071V31.1813ZM16.3589 31.1813C15.9512 31.1813 15.6214 30.8512 15.6214 30.4438H15.2214C15.2214 31.0719 15.7302 31.5813 16.3589 31.5813V31.1813ZM15.6214 30.4438C15.6214 30.0365 15.9512 29.7063 16.3589 29.7063V29.3063C15.7302 29.3063 15.2214 29.8157 15.2214 30.4438H15.6214ZM16.3589 29.7063H44.8071V29.3063H16.3589V29.7063ZM44.8071 29.7063C45.2147 29.7063 45.5446 30.0365 45.5446 30.4438H45.9446C45.9446 29.8157 45.4358 29.3063 44.8071 29.3063V29.7063ZM45.5446 30.4438C45.5446 30.8512 45.2147 31.1813 44.8071 31.1813V31.5813C45.4358 31.5813 45.9446 31.0719 45.9446 30.4438H45.5446ZM44.8071 35.8862H16.3589V36.2862H44.8071V35.8862ZM16.3589 35.8862C15.9512 35.8862 15.6214 35.556 15.6214 35.1487H15.2214C15.2214 35.7768 15.7302 36.2862 16.3589 36.2862V35.8862ZM15.6214 35.1487C15.6214 34.7414 15.9512 34.4112 16.3589 34.4112V34.0112C15.7302 34.0112 15.2214 34.5206 15.2214 35.1487H15.6214ZM16.3589 34.4112H44.8071V34.0112H16.3589V34.4112ZM44.8071 34.4112C45.2147 34.4112 45.5446 34.7414 45.5446 35.1487H45.9446C45.9446 34.5206 45.4358 34.0112 44.8071 34.0112V34.4112ZM45.5446 35.1487C45.5446 35.556 45.2147 35.8862 44.8071 35.8862V36.2862C45.4358 36.2862 45.9446 35.7768 45.9446 35.1487H45.5446ZM44.8071 40.5911H16.3589V40.9911H44.8071V40.5911ZM16.3589 40.5911C15.9512 40.5911 15.6214 40.2609 15.6214 39.8536H15.2214C15.2214 40.4817 15.7302 40.9911 16.3589 40.9911V40.5911ZM15.6214 39.8536C15.6214 39.4463 15.9512 39.1161 16.3589 39.1161V38.7161C15.7302 38.7161 15.2214 39.2255 15.2214 39.8536H15.6214ZM16.3589 39.1161H44.8071V38.7161H16.3589V39.1161ZM44.8071 39.1161C45.2147 39.1161 45.5446 39.4463 45.5446 39.8536H45.9446C45.9446 39.2255 45.4358 38.7161 44.8071 38.7161V39.1161ZM45.5446 39.8536C45.5446 40.2609 45.2147 40.5911 44.8071 40.5911V40.9911C45.4358 40.9911 45.9446 40.4817 45.9446 39.8536H45.5446ZM44.8071 45.296H16.3589V45.696H44.8071V45.296ZM16.3589 45.296C15.9512 45.296 15.6214 44.9658 15.6214 44.5585H15.2214C15.2214 45.1866 15.7302 45.696 16.3589 45.696V45.296ZM15.6214 44.5585C15.6214 44.1512 15.9512 43.821 16.3589 43.821V43.421C15.7302 43.421 15.2214 43.9304 15.2214 44.5585H15.6214ZM16.3589 43.821H44.8071V43.421H16.3589V43.821ZM44.8071 43.821C45.2147 43.821 45.5446 44.1512 45.5446 44.5585H45.9446C45.9446 43.9304 45.4358 43.421 44.8071 43.421V43.821ZM45.5446 44.5585C45.5446 44.9658 45.2147 45.296 44.8071 45.296V45.696C45.4358 45.696 45.9446 45.1866 45.9446 44.5585H45.5446Z" fill="#0CB4C4" mask="url(#path-1-outside-1_1214_338)"></path></svg>