<svg aria-labelledby="svgTitle" width="60" height="60" viewBox="0 0 60 60" fill="none" xmlns="http://www.w3.org/2000/svg"><title id="svgTitle">Kiosk Consulting</title><path fill-rule="evenodd" clip-rule="evenodd" d="M35.1036 17.0454C35.9967 14.9753 36.2024 12.5588 35.4369 10.0773C34.562 7.23894 32.5022 4.96824 29.9581 3.53868C25.586 1.08572 19.8288 1.18991 16.4071 4.93964C14.2015 7.35614 13.3943 10.8116 14.1234 14.0017C14.5739 15.978 15.6207 17.8842 17.3185 19.4361C17.5606 19.6601 17.67 19.9934 17.6049 20.3163L16.9774 23.3421L20.5006 22.3657C20.7141 22.2927 20.9563 22.2927 21.1802 22.3891C23.7659 23.501 26.3465 23.5583 28.607 22.8604C31.5 21.9673 33.9061 19.8346 35.1065 17.0457L35.1036 17.0454ZM7.77757 24.6176C5.41574 24.6176 3.50181 26.5315 3.50181 28.8933C3.50181 31.2551 5.41574 33.1691 7.77757 33.1691C10.1394 33.1691 12.0559 31.2551 12.0559 28.8933C12.0559 26.5315 10.142 24.6176 7.77757 24.6176ZM3.42635 24.5446C5.82985 22.1411 9.72276 22.1411 12.1264 24.5446C14.5299 26.9481 14.5299 30.8437 12.1264 33.2447C9.7229 35.6482 5.82998 35.6482 3.42635 33.2447C1.02546 30.8412 1.02546 26.9457 3.42635 24.5446ZM22.209 47.1963C23.4407 47.1963 23.3678 44.4908 22.1621 44.4908H14.6187C14.1005 44.4908 13.6813 44.0716 13.6813 43.5534V40.2438C13.6813 38.9496 12.6188 37.8845 11.322 37.8845H4.23389C2.93711 37.8845 1.87466 38.9496 1.87466 40.2438V52.5449H13.6811V49.0712L10.3064 49.0738C9.91578 49.0738 9.5825 48.8342 9.44184 48.4957L7.62944 44.0768C7.43414 43.5976 7.66329 43.0534 8.13982 42.8581C8.61635 42.6628 9.16322 42.8894 9.35847 43.3685L10.9339 47.2094L22.2091 47.2016L22.209 47.1963ZM15.5558 49.0686V53.4823C15.5558 54.0005 15.1366 54.4197 14.6184 54.4197L0.937399 54.4171C0.41921 54.4171 0 53.9979 0 53.4797V40.2414C0 37.9108 1.90353 36.0073 4.23409 36.0073H11.3222C13.6528 36.0073 15.5563 37.9108 15.5563 40.2414V42.6136H19.9128L21.4596 37.7025C21.5611 37.2937 21.9283 36.9916 22.3684 36.9916L37.146 36.9942C37.5418 36.9942 37.9063 37.2442 38.0365 37.64L39.664 42.6136H44.4371V40.2413C44.4371 37.9108 46.3406 36.0072 48.6712 36.0072H55.7594C58.0899 36.0072 59.9961 37.9108 59.9961 40.2413V53.4797C59.9961 53.9979 59.5768 54.4171 59.0587 54.4171H45.3776C44.8595 54.4171 44.4403 53.9979 44.4403 53.4797V49.066L41.7816 49.0634L43.9403 55.654L44.008 56.003V59.06C44.008 59.5782 43.5887 59.9974 43.0706 59.9974L16.6792 60C16.161 60 15.7418 59.5808 15.7418 59.0626V56.0056C15.7418 55.8858 15.7652 55.7738 15.8043 55.6696L17.8822 49.0686L15.5569 49.0712L15.5558 49.0686ZM21.8757 42.6133L23.0553 38.8662H36.4683L37.6974 42.6211C35.8981 42.7123 35.0023 44.3554 35.0231 45.949C35.044 47.5296 35.9579 49.0894 37.8381 49.0608L39.8067 49.0634L41.7726 55.0656H17.9544L19.8448 49.0634L22.1545 49.0608C23.4982 49.1025 24.3601 48.2901 24.7507 47.2068C25.0345 46.4178 25.0449 45.4804 24.7923 44.6835C24.4382 43.569 23.6023 42.6759 22.2769 42.6185L21.8785 42.6107L21.8757 42.6133ZM52.2175 22.7421C55.6157 22.7421 58.3707 25.4971 58.3707 28.8953C58.3707 32.2935 55.6157 35.0485 52.2175 35.0485C48.8193 35.0485 46.0643 32.2935 46.0643 28.8953C46.0643 25.4971 48.8193 22.7421 52.2175 22.7421ZM55.2407 25.8695C53.5716 24.2003 50.8635 24.2003 49.1943 25.8695C47.5226 27.5412 47.5226 30.2494 49.1943 31.9185C50.8635 33.5877 53.5716 33.5877 55.2407 31.9185C56.9125 30.2468 56.9125 27.5386 55.2407 25.8695ZM49.0615 47.2039L50.6369 43.3631C50.8322 42.8866 51.3791 42.6574 51.8556 42.8527C52.3321 43.048 52.5613 43.5948 52.366 44.0713L50.551 48.4903C50.4103 48.8288 50.077 49.0684 49.6864 49.0684L46.3117 49.0658V52.5395H58.1208V40.2383C58.1208 38.9442 57.0532 37.8791 55.7564 37.8791H48.6682C47.3715 37.8791 46.309 38.9442 46.309 40.2383V43.548C46.309 44.0662 45.8898 44.4854 45.3716 44.4854H37.8282C36.698 44.4854 36.4351 47.1492 37.8386 47.1909L49.0564 47.1987L49.0615 47.2039ZM17.6158 58.1251H42.1294V56.943L17.6158 56.9404V58.1251ZM30.6382 9.19868C30.6382 9.71687 30.2189 10.1361 29.7008 10.1361C29.1826 10.1361 28.7634 9.71684 28.7634 9.19868V8.76382L26.6724 10.8548C26.3078 11.222 25.7141 11.222 25.347 10.8548L24.0319 9.53977L20.7379 12.8338C20.3707 13.201 19.7796 13.201 19.4125 12.8338C19.0453 12.4666 19.0453 11.8729 19.4125 11.5084L23.3705 7.55031C23.7377 7.18315 24.3288 7.18315 24.6959 7.55031L26.0136 8.86535L27.4405 7.43838H26.8651C26.3469 7.43838 25.9277 7.01914 25.9277 6.50098C25.9277 5.98283 26.3469 5.56359 26.8651 5.56359H29.7034C30.2216 5.56359 30.6408 5.98283 30.6408 6.50098V9.19872L30.6382 9.19868ZM30.6382 11.1152V17.8074H28.7633V11.1152H30.6382ZM27.4301 13.3234V17.8101H25.5552V13.3234H27.4301ZM24.222 12.4588V17.8074H22.3471V12.4588H24.222ZM21.0139 14.7607V17.81H19.139V14.7607H21.0139ZM32.3777 23.1088C34.3307 21.8016 35.8983 19.9476 36.8305 17.7837C37.8877 15.3255 38.1377 12.4637 37.2315 9.52626C36.3436 6.64887 34.4375 4.28184 32.0366 2.62542C34.1692 1.85988 36.5311 1.6385 38.7341 2.14109C46.7335 3.96649 48.5381 14.0856 42.6844 19.4318C42.45 19.6454 42.3302 19.9761 42.3979 20.3094L43.0255 23.3352L39.5023 22.3588C39.2887 22.2858 39.0492 22.2858 38.8252 22.3822C36.7108 23.291 34.5157 23.541 32.3804 23.1061L32.3777 23.1088ZM30.0029 1.45171C34.9817 -0.925719 41.1608 -0.503883 44.9785 3.67808C47.5955 6.54507 48.5668 10.6202 47.7022 14.4093C47.2049 16.5914 46.1008 18.6929 44.3327 20.4453L45.1581 24.432C45.317 25.1481 44.666 25.734 43.9994 25.5492L39.2549 24.2341C37.6769 24.8695 36.0963 25.1689 34.5625 25.1846C32.9585 25.2002 31.4169 24.9034 30.0003 24.3487C29.7243 24.4555 29.443 24.5544 29.1566 24.643C26.5813 25.4372 23.6648 25.4085 20.7486 24.2315L16.0041 25.5466C15.3375 25.7315 14.6865 25.1482 14.8453 24.4295L15.6708 20.4427C9.04108 13.8703 11.7388 2.40005 20.8606 0.316871C23.889 -0.373212 27.157 0.0903274 30.0032 1.44959L30.0029 1.45171Z" fill="#0CB4C4"></path></svg>