<svg aria-labelledby="svgTitle" width="34" height="62" viewBox="0 0 34 62" fill="none" xmlns="http://www.w3.org/2000/svg"><title id="svgTitle">Interactive Self-Service Kiosk Development</title><path d="M29.2955 28.8703C28.5774 28.8703 27.9039 29.0768 27.332 29.4446C26.8809 27.8894 25.4575 26.7473 23.78 26.7473C22.6934 26.7473 21.7085 27.2248 21.0286 27.9927C20.3487 27.2312 19.3701 26.7473 18.2772 26.7473C17.6291 26.7473 17.0127 26.9215 16.4789 27.2183V12.9701C16.4789 10.8987 14.8205 9.20801 12.7744 9.20801C10.7347 9.20801 9.06989 10.8922 9.06989 12.9701V28.8122C8.53614 28.5089 7.92613 28.3412 7.27164 28.3412H4.54567C4.01826 28.3412 3.59253 28.7735 3.59253 29.3091V46.0675C3.59253 54.3016 10.1882 60.9998 18.2963 60.9998C26.4043 60.9998 33 54.3016 33 46.0675V32.6259C33 30.5545 31.3352 28.8703 29.2955 28.8703ZM31.0937 46.0611C31.0937 53.2304 25.3558 59.0574 18.2963 59.0574C11.2367 59.0574 5.4988 53.2304 5.4988 46.0611V30.2706H7.29706C8.28832 30.2706 9.09531 31.0901 9.09531 32.0968V41.4472C9.09531 41.9828 9.52104 42.4151 10.0484 42.4151C10.5759 42.4151 11.0016 41.9828 11.0016 41.4472V12.9701C11.0016 11.9634 11.8086 11.1439 12.7998 11.1439C13.7911 11.1439 14.5981 11.9634 14.5981 12.9701L14.6743 35.1039C14.6743 35.6395 15.1001 36.0718 15.6275 36.0718C16.1549 36.0718 16.5806 35.6395 16.5806 35.1039C16.5806 35.1039 16.5616 30.3093 16.5298 30.2125C16.6696 29.3478 17.4067 28.6767 18.2963 28.6767C19.2875 28.6767 20.0945 29.4962 20.0945 30.5029V35.1039C20.0945 35.6395 20.5202 36.0718 21.0477 36.0718C21.5751 36.0718 22.0008 35.6395 22.0008 35.1039V30.5029C22.0008 29.4962 22.8078 28.6767 23.799 28.6767C24.7903 28.6767 25.5973 29.4962 25.5973 30.5029V34.878C25.5973 34.9039 25.6036 34.9361 25.61 34.9619V35.0974C25.61 35.633 26.0357 36.0654 26.5631 36.0654C27.0905 36.0654 27.5163 35.633 27.5163 35.0974V34.9168C27.5163 34.9103 27.5226 34.8974 27.5226 34.891V32.6259C27.5226 31.6193 28.3296 30.7997 29.3209 30.7997C30.3121 30.7997 31.1191 31.6193 31.1191 32.6259V46.0611H31.0937Z" fill="#0CB4C4" stroke="#0CB4C4" stroke-width="0.3"></path><path d="M18.2645 8.42106C18.506 8.42106 18.7538 8.32426 18.9381 8.13712L21.1557 5.88503C21.5306 5.5043 21.5306 4.89126 21.1557 4.51699C20.7808 4.13626 20.1772 4.13626 19.8086 4.51699L17.591 6.76909C17.2161 7.14981 17.2161 7.76285 17.591 8.13712C17.7753 8.32426 18.0167 8.42106 18.2645 8.42106Z" fill="#0CB4C4" stroke="#0CB4C4" stroke-width="0.3"></path><path d="M6.68076 8.13712C6.86503 8.32426 7.11285 8.42106 7.35431 8.42106C7.59577 8.42106 7.84359 8.32426 8.02786 8.13712C8.40276 7.7564 8.40276 7.14336 8.02786 6.76909L5.81022 4.51699C5.43532 4.13626 4.83167 4.13626 4.46312 4.51699C4.09458 4.89772 4.08822 5.51075 4.46312 5.88503L6.68076 8.13712Z" fill="#0CB4C4" stroke="#0CB4C4" stroke-width="0.3"></path><path d="M6.04527 12.9894C6.04527 12.4538 5.61954 12.0215 5.09214 12.0215H1.95314C1.42573 12.0215 1 12.4538 1 12.9894C1 13.525 1.42573 13.9574 1.95314 13.9574H5.09214C5.61954 13.9574 6.04527 13.525 6.04527 12.9894Z" fill="#0CB4C4" stroke="#0CB4C4" stroke-width="0.3"></path><path d="M19.5671 12.9894C19.5671 13.525 19.9929 13.9574 20.5203 13.9574H23.6593C24.1867 13.9574 24.6124 13.525 24.6124 12.9894C24.6124 12.4538 24.1867 12.0215 23.6593 12.0215H20.5203C19.9929 12.0215 19.5671 12.4538 19.5671 12.9894Z" fill="#0CB4C4" stroke="#0CB4C4" stroke-width="0.3"></path><path d="M12.8062 6.12368C13.3336 6.12368 13.7593 5.69133 13.7593 5.15573V1.96795C13.7593 1.43235 13.3336 1 12.8062 1C12.2788 1 11.853 1.43235 11.853 1.96795V5.15573C11.853 5.69133 12.2851 6.12368 12.8062 6.12368Z" fill="#0CB4C4" stroke="#0CB4C4" stroke-width="0.3"></path></svg>