<svg aria-labelledby="svgTitle" width="74" height="60" viewBox="0 0 74 60" fill="none" xmlns="http://www.w3.org/2000/svg"><title id="svgTitle">Improved Customer Service</title><path d="M17.0517 44.7366C19.2523 44.7366 21.0482 42.9492 21.0482 40.7589C21.0482 38.5687 19.2523 36.7812 17.0517 36.7812C14.8511 36.7812 13.0552 38.5687 13.0552 40.7589C13.0552 42.9492 14.8511 44.7366 17.0517 44.7366ZM17.0517 38.9283C18.0707 38.9283 18.891 39.7483 18.891 40.7589C18.891 41.7732 18.0671 42.5895 17.0517 42.5895C16.0326 42.5895 15.2124 41.7695 15.2124 40.7589C15.2124 39.7447 16.0363 38.9283 17.0517 38.9283Z" fill="#0CB4C4"></path><path d="M38.3568 44.7366C40.5575 44.7366 42.3533 42.9492 42.3533 40.7589C42.3533 38.5687 40.5575 36.7812 38.3568 36.7812C36.1562 36.7812 34.3604 38.5687 34.3604 40.7589C34.3604 42.9492 36.1562 44.7366 38.3568 44.7366ZM38.3568 38.9283C39.3759 38.9283 40.1961 39.7483 40.1961 40.7589C40.1961 41.7732 39.3723 42.5895 38.3568 42.5895C37.3378 42.5895 36.5176 41.7695 36.5176 40.7589C36.5176 39.7447 37.3414 38.9283 38.3568 38.9283Z" fill="#0CB4C4"></path><path d="M22.1324 52.7273H33.2691C33.8617 52.7273 34.3532 52.2489 34.3532 51.6483C34.3532 51.0513 33.8726 50.5693 33.2691 50.5693H22.1324C21.5398 50.5693 21.0483 51.0477 21.0483 51.6483C21.0483 52.2453 21.5289 52.7273 22.1324 52.7273Z" fill="#0CB4C4"></path><path d="M4.85974 52.6055H6.41355H6.53279V55.4144C6.53279 57.9463 8.59612 59.9999 11.14 59.9999H44.2467C46.7905 59.9999 48.8539 57.9463 48.8539 55.4144V52.6055H48.9731H50.5269C53.2081 52.6055 55.3834 50.4332 55.3834 47.7719V41.7514C55.3834 39.0828 53.2009 36.9177 50.5269 36.9177H48.9731H48.8539V34.1089C48.8539 31.577 46.7905 29.5234 44.2467 29.5234H34.2737C34.0966 27.0094 31.9972 25.0206 29.428 25.0206H28.7703V22.0931C30.4542 21.622 31.6937 20.0863 31.6937 18.2628C31.6937 16.0726 29.8978 14.2852 27.6972 14.2852C25.4966 14.2852 23.7007 16.0726 23.7007 18.2628C23.7007 20.0863 24.9401 21.6219 26.6131 22.0931V25.0206H25.9555C23.3827 25.0206 21.2832 27.0095 21.1098 29.5234H11.1368C8.5929 29.5234 6.52957 31.577 6.52957 34.1089V36.9177H6.41033H4.85652C2.17535 36.9177 0 39.09 0 41.7514V47.7719C0 50.4404 2.18257 52.6055 4.85652 52.6055H4.85974ZM48.8542 39.0612H48.9735H50.5273C52.0161 39.0612 53.2302 40.266 53.2302 41.7514V47.7719C53.2302 49.2536 52.0197 50.462 50.5273 50.462H48.9735H48.8542V39.0612ZM25.8584 18.2627C25.8584 17.2485 26.6823 16.4321 27.6977 16.4321C28.7167 16.4321 29.537 17.2521 29.537 18.2627C29.537 19.277 28.7131 20.0933 27.6977 20.0933C26.6786 20.0933 25.8584 19.2734 25.8584 18.2627ZM25.9704 27.1676H29.4393C30.8161 27.1676 31.9544 28.1998 32.1205 29.5233H23.2964C23.4626 28.1962 24.6009 27.1676 25.9775 27.1676H25.9704ZM8.69786 51.3247V34.1087C8.69786 32.7636 9.79996 31.6703 11.1478 31.6703H44.247C45.5984 31.6703 46.6969 32.7672 46.6969 34.1087V38.1979V38.2086V51.3175V51.3283V55.4174C46.6969 56.7625 45.5948 57.8558 44.247 57.8558H11.1515C9.80005 57.8558 8.70156 56.7589 8.70156 55.4174V51.3211L8.69786 51.3247ZM2.15747 41.7578C2.15747 40.276 3.36799 39.0676 4.86038 39.0676H6.41418H6.53343V50.4649H6.41418H4.86038C3.3716 50.4649 2.15747 49.2601 2.15747 47.7747V41.7542V41.7578Z" fill="#0CB4C4"></path><path d="M64.9233 6.58105H47.7266C47.134 6.58105 46.6426 7.05938 46.6426 7.66001C46.6426 8.25703 47.1232 8.73897 47.7266 8.73897H64.9233C65.5159 8.73897 66.0074 8.26065 66.0074 7.66001C66.0074 7.063 65.5268 6.58105 64.9233 6.58105Z" fill="#0CB4C4"></path><path d="M64.9233 11.1484H47.7266C47.134 11.1484 46.6426 11.6268 46.6426 12.2274C46.6426 12.8244 47.1232 13.3064 47.7266 13.3064H64.9233C65.5159 13.3064 66.0074 12.828 66.0074 12.2274C66.0074 11.6304 65.5268 11.1484 64.9233 11.1484Z" fill="#0CB4C4"></path><path d="M64.9233 15.7236H47.7266C47.134 15.7236 46.6426 16.202 46.6426 16.8026C46.6426 17.3996 47.1232 17.8816 47.7266 17.8816H64.9233C65.5159 17.8816 66.0074 17.4032 66.0074 16.8026C66.0074 16.2056 65.5268 15.7236 64.9233 15.7236Z" fill="#0CB4C4"></path><path d="M68.9484 0H43.7047C42.4942 0 41.3198 0.431575 40.3948 1.23354C39.2746 2.19024 38.6387 3.58205 38.6387 5.04576V19.4169C38.6387 22.1969 40.9151 24.4519 43.6976 24.4519H60.8471L66.6757 30.253C66.878 30.4544 67.1563 30.5659 67.4345 30.5659C67.5718 30.5659 67.7127 30.5372 67.85 30.4832C68.2584 30.3178 68.5149 29.9222 68.5149 29.4906V24.4448H68.9413C71.7345 24.4448 74.0002 22.179 74.0002 19.4097V5.03858C74.0002 2.25855 71.7238 0.0034946 68.9413 0.0034946L68.9484 0ZM71.8536 19.4174C71.8536 21.0107 70.5491 22.3089 68.9484 22.3089H67.4416C66.849 22.3089 66.3575 22.7873 66.3575 23.3879V26.9124L62.0575 22.6327C61.8552 22.4313 61.5842 22.3198 61.2987 22.3198H43.7042C42.1034 22.3198 40.799 21.0214 40.799 19.4282V5.05715C40.799 4.21917 41.1676 3.42798 41.8071 2.86691C42.3347 2.40656 43.0105 2.15841 43.7042 2.15841H68.948C70.5488 2.15841 71.8532 3.45677 71.8532 5.04994V19.421L71.8536 19.4174Z" fill="#0CB4C4"></path></svg>