<svg xmlns="http://www.w3.org/2000/svg" width="60" height="62" viewBox="0 0 60 62" fill="none"><path d="M55.8561 13.3613H47.1011C46.7411 13.3613 46.4486 13.6538 46.4486 14.0138C46.4486 14.3738 46.7411 14.6663 47.1011 14.6663H55.8561C56.9936 14.6663 57.9211 15.6638 57.9211 16.8912V48.1303H2.305V16.8912C2.305 15.6638 3.22997 14.6663 4.36998 14.6663H13.125C13.485 14.6663 13.7775 14.3738 13.7775 14.0138C13.7775 13.6538 13.485 13.3613 13.125 13.3613H4.36742C2.50998 13.3613 1 14.9438 1 16.8912V50.1577C1 52.1027 2.51248 53.6876 4.36742 53.6876H23.4544V55.7201H20.7344C19.2795 55.7201 18.0945 56.9051 18.0945 58.3601V60.3475C18.0945 60.7075 18.387 61 18.7469 61H41.4716C41.8316 61 42.1241 60.7075 42.1241 60.3475L42.1266 58.3576C42.1266 56.9026 40.9416 55.7176 39.4866 55.7176H36.7667V53.6851H55.8536C57.7111 53.6851 59.221 52.1027 59.221 50.1552V16.8887C59.2235 14.9438 57.7135 13.3613 55.8561 13.3613ZM40.8215 58.3581V59.6931H19.4018V58.3581C19.4018 57.6207 20.0018 57.0232 20.7368 57.0232H39.4839C40.2214 57.0232 40.8215 57.6207 40.8215 58.3581ZM35.4617 55.7182H24.7617V53.6857H35.4642V55.7182H35.4617ZM55.8561 52.3833H4.36729C3.22984 52.3833 2.30231 51.3858 2.30231 50.1583V49.4358H57.9184V50.1583C57.9184 51.3833 56.9936 52.3833 55.8561 52.3833ZM32.3788 50.9083C32.3788 51.2683 32.0864 51.5608 31.7264 51.5608H28.4939C28.1339 51.5608 27.8415 51.2683 27.8415 50.9083C27.8415 50.5483 28.134 50.2558 28.4939 50.2558H31.7264C32.0864 50.2558 32.3788 50.5483 32.3788 50.9083ZM37.2787 17.7993L30.6613 7.42956C30.6588 7.42706 30.6563 7.42456 30.6563 7.42206C30.6513 7.41706 30.6488 7.40956 30.6438 7.40456C30.6263 7.37956 30.6063 7.35456 30.5838 7.33206C30.5788 7.32706 30.5738 7.31956 30.5688 7.31456C30.5438 7.28956 30.5138 7.26706 30.4838 7.24456C30.4763 7.23956 30.4713 7.23706 30.4638 7.23206C30.4363 7.21456 30.4088 7.19956 30.3813 7.18706C30.3738 7.18456 30.3688 7.17956 30.3613 7.17706C30.3263 7.16206 30.2938 7.15206 30.2563 7.14456C30.2488 7.14206 30.2388 7.14206 30.2288 7.13956C30.1913 7.13206 30.1513 7.12706 30.1113 7.12706C30.0713 7.12706 30.0338 7.13206 29.9938 7.13956C29.9863 7.14206 29.9763 7.14206 29.9663 7.14456C29.9313 7.15206 29.8963 7.16206 29.8613 7.17706C29.8538 7.17956 29.8488 7.18456 29.8413 7.18706C29.8138 7.19956 29.7838 7.21456 29.7588 7.23206C29.7513 7.23706 29.7463 7.23956 29.7388 7.24456C29.7088 7.26456 29.6813 7.28956 29.6538 7.31456C29.6488 7.31956 29.6438 7.32706 29.6388 7.33206C29.6163 7.35456 29.5963 7.37956 29.5788 7.40456C29.5738 7.40956 29.5713 7.41706 29.5663 7.42206C29.5638 7.42456 29.5613 7.42706 29.5613 7.42956L22.9438 17.7993C22.8063 18.0143 22.8063 18.2867 22.9438 18.5018L25.7987 22.9767C24.7963 23.1742 24.0388 24.0592 24.0388 25.1192V25.2867C24.0388 26.2641 24.6838 27.0941 25.5712 27.3716V31.9415C25.5712 32.3015 25.8637 32.594 26.2237 32.594C26.5837 32.594 26.8762 32.3015 26.8762 31.9415L26.8737 27.4716H33.3433V31.9415C33.3433 32.3015 33.6358 32.594 33.9957 32.594C34.3557 32.594 34.6482 32.3015 34.6482 31.9415L34.6457 27.3716C35.5332 27.0941 36.1782 26.2641 36.1782 25.2867V25.1192C36.1782 24.0592 35.4207 23.1742 34.4182 22.9767L37.2731 18.5018C37.4156 18.2868 37.4162 18.0143 37.2787 17.7993ZM30.1115 17.0293C30.814 17.0293 31.384 17.6018 31.384 18.3018C31.384 19.0043 30.8115 19.5743 30.1115 19.5743C29.409 19.5743 28.839 19.0018 28.839 18.3018C28.839 17.5993 29.409 17.0293 30.1115 17.0293ZM34.8789 25.1194V25.2869C34.8789 25.7718 34.4839 26.1668 33.9989 26.1668H26.2244C25.7394 26.1668 25.3444 25.7718 25.3444 25.2869V25.1194C25.3444 24.6344 25.7394 24.2394 26.2244 24.2394H33.2591H33.2616H33.999C34.484 24.2394 34.8789 24.6344 34.8789 25.1194ZM32.904 22.9344H27.3191L24.2666 18.152L29.459 10.0171V15.8145C28.354 16.1045 27.5341 17.1094 27.5341 18.3044C27.5341 19.7269 28.6891 20.8818 30.1115 20.8818C31.5339 20.8818 32.6889 19.7268 32.6889 18.3044C32.6889 17.1094 31.869 16.1044 30.764 15.8145V10.0171L35.9564 18.152L32.904 22.9344ZM10.9767 6.48481H15.1592C15.5192 6.48481 15.8117 6.19232 15.8117 5.83234L15.8092 4.39487H24.1187C22.2538 5.24983 20.5713 6.49735 19.2038 8.0723C17.0764 10.5272 15.8439 13.6297 15.6964 16.867H14.2439C13.8839 16.867 13.5915 17.1595 13.5915 17.5195V21.7019C13.5915 22.0619 13.884 22.3544 14.2439 22.3544H18.4264C18.7864 22.3544 19.0788 22.0619 19.0788 21.7019L19.0763 17.5195C19.0763 17.1595 18.7838 16.867 18.4239 16.867H17.0039C17.3014 10.9696 21.6113 5.9149 27.3685 4.68485V5.83234C27.3685 6.19234 27.6609 6.48481 28.0209 6.48481H32.2034C32.5633 6.48481 32.8558 6.19232 32.8558 5.83234L32.8533 4.68485C38.6107 5.91484 42.9203 10.9697 43.2179 16.867H41.7979C41.4379 16.867 41.1454 17.1595 41.1454 17.5195V21.7019C41.1454 22.0619 41.4379 22.3544 41.7979 22.3544H45.9803C46.3403 22.3544 46.6328 22.0619 46.6328 21.7019L46.6303 17.5195C46.6303 17.1595 46.3378 16.867 45.9778 16.867H44.5254C44.3804 13.6296 43.1479 10.5297 41.0179 8.0723C39.6505 6.49486 37.9705 5.24733 36.103 4.39487H44.4101V5.83234C44.4101 6.19234 44.7026 6.48481 45.0625 6.48481H49.245C49.605 6.48481 49.8974 6.19232 49.8974 5.83234V1.65247C49.8974 1.29247 49.6049 1 49.245 1H45.0625C44.7025 1 44.4101 1.29249 44.4101 1.65247V3.08994H32.8526V1.65247C32.8526 1.29247 32.5601 1 32.2001 1H28.0176C27.6577 1 27.3652 1.29249 27.3652 1.65247V3.08994H15.8077V1.65247C15.8077 1.29247 15.5152 1 15.1552 1H10.9728C10.6128 1 10.3203 1.29249 10.3203 1.65247V5.83491C10.3228 6.1949 10.6153 6.48487 10.9753 6.48487L10.9767 6.48481ZM17.774 21.0496H14.8966V18.1722H17.774V21.0496ZM45.3261 21.0496H42.4487V18.1722H45.3261V21.0496ZM45.7161 2.30506H48.5935V5.1825H45.7161V2.30506ZM28.6739 2.30506H31.5513V5.1825H28.6739V2.30506ZM11.6291 2.30506H14.5066V5.1825H11.6291V2.30506ZM45.0537 40.7766H49.2361C49.5961 40.7766 49.8886 40.4841 49.8886 40.1241V35.9417C49.8886 35.5817 49.5961 35.2892 49.2361 35.2892H45.0537C44.6937 35.2892 44.4012 35.5817 44.4012 35.9417V37.7866C42.6763 39.759 40.2063 40.8866 37.5841 40.8866C35.9041 40.8866 34.2766 40.4291 32.8567 39.5566V35.9417C32.8567 35.5817 32.5642 35.2893 32.2042 35.2893H30.7668V34.2068C31.8668 33.9168 32.6817 32.9168 32.6817 31.7268C32.6817 30.3119 31.5292 29.1594 30.1143 29.1594C28.6994 29.1594 27.5469 30.3119 27.5469 31.7268C27.5469 32.9168 28.3618 33.9168 29.4618 34.2068V35.2893H28.0244C27.9794 35.2893 27.9369 35.2943 27.8944 35.3018C26.3069 34.3668 24.5044 33.8743 22.6445 33.8743C20.1121 33.8743 17.7021 34.7917 15.8274 36.4342V35.9417C15.8274 35.5817 15.5349 35.2893 15.1749 35.2893H10.9925C10.6325 35.2893 10.34 35.5817 10.34 35.9417V40.1242C10.34 40.4842 10.6325 40.7766 10.9925 40.7766H15.1749C15.5349 40.7766 15.8274 40.4841 15.8274 40.1242V38.2792C17.5523 36.3068 20.0223 35.1792 22.6445 35.1792C24.3245 35.1792 25.9519 35.6367 27.3719 36.5092V40.1241C27.3719 40.4841 27.6644 40.7766 28.0243 40.7766H29.4618V41.859C28.3618 42.149 27.5469 43.149 27.5469 44.339C27.5469 45.7539 28.6993 46.9064 30.1143 46.9064C31.5292 46.9064 32.6817 45.7539 32.6817 44.339C32.6817 43.149 31.8668 42.149 30.7668 41.859V40.7766H32.2042C32.2492 40.7766 32.2917 40.7716 32.3342 40.7641C33.9217 41.699 35.7242 42.1915 37.5841 42.1915C40.1165 42.1915 42.5265 41.2741 44.4012 39.6316V40.1241C44.4012 40.4866 44.6937 40.7766 45.0537 40.7766ZM28.8492 31.7316C28.8492 31.0367 29.4142 30.4691 30.1117 30.4691C30.8067 30.4691 31.3742 31.0341 31.3742 31.7316C31.3742 32.4266 30.8068 32.9941 30.1117 32.9941C29.4167 32.9941 28.8492 32.4266 28.8492 31.7316ZM14.5167 39.4742H11.6393V36.5967H14.5167V39.4742ZM31.374 44.3391C31.374 45.0341 30.809 45.6016 30.1115 45.6016C29.4165 45.6016 28.849 45.0366 28.849 44.3391C28.849 43.6441 29.414 43.0766 30.1115 43.0766C30.8064 43.0766 31.374 43.6441 31.374 44.3391ZM28.674 36.5966H31.549V39.474H28.6715L28.674 36.5966ZM45.706 36.5966H48.5834V39.474H45.706V36.5966Z" fill="#0CB4C4" stroke="#0CB4C4" stroke-width="0.8"></path></svg>