<svg xmlns="http://www.w3.org/2000/svg" width="64" height="60" viewBox="0 0 64 60" fill="none"><path fill-rule="evenodd" clip-rule="evenodd" d="M5.34021 60C4.944 60 4.58224 59.7588 4.4272 59.397L0.103345 49.4918C0.051665 49.3712 0.0172119 49.2334 0.0172119 49.0956V8.38928C0.0172119 7.83803 0.465101 7.39014 1.01635 7.39014H9.64684C10.1981 7.39014 10.646 7.83803 10.646 8.38928V49.1128C10.646 49.2506 10.6115 49.3884 10.5598 49.509L6.23599 59.397C6.08095 59.7588 5.71919 60 5.34021 60ZM2.01549 48.8888L5.34021 56.5202L8.66493 48.8888V9.37119H2.01549V48.8888Z" fill="#0CB4C4"></path><path fill-rule="evenodd" clip-rule="evenodd" d="M9.64684 50.095H1.01635C0.465101 50.095 0.0172119 49.6471 0.0172119 49.0958C0.0172119 48.5446 0.465101 48.0967 1.01635 48.0967H9.64684C10.1981 48.0967 10.646 48.5446 10.646 49.0958C10.646 49.6471 10.1981 50.095 9.64684 50.095Z" fill="#0CB4C4"></path><path fill-rule="evenodd" clip-rule="evenodd" d="M9.64686 9.38846C9.09561 9.38846 8.64772 8.94057 8.64772 8.38932V4.68562C8.64772 3.18691 7.42463 1.98105 5.94315 1.98105H4.70284C3.20413 1.98105 1.99828 3.20414 1.99828 4.68562V8.38932C1.99828 8.94057 1.55039 9.38846 0.999139 9.38846C0.44789 9.38846 0 8.94057 0 8.38932V4.68562C0 2.10164 2.10164 0 4.68562 0H5.92593C8.5099 0 10.6115 2.10164 10.6115 4.68562V8.38932C10.646 8.94057 10.1981 9.38846 9.64686 9.38846Z" fill="#0CB4C4"></path><path fill-rule="evenodd" clip-rule="evenodd" d="M5.3402 50.0947C4.78895 50.0947 4.34106 49.6468 4.34106 49.0956V8.38928C4.34106 7.83803 4.78895 7.39014 5.3402 7.39014C5.89145 7.39014 6.33934 7.83803 6.33934 8.38928V49.1128C6.32212 49.6468 5.87423 50.0947 5.3402 50.0947Z" fill="#0CB4C4"></path><path fill-rule="evenodd" clip-rule="evenodd" d="M60.913 59.9999H16.8131C15.3661 59.9999 14.2119 58.8285 14.2119 57.3987V2.6183C14.2119 1.17127 15.3833 0.0170898 16.8131 0.0170898H47.7864C48.3377 0.0170898 48.7856 0.46498 48.7856 1.01623C48.7856 1.56748 48.3377 2.01537 47.7864 2.01537H16.8131C16.4858 2.01537 16.193 2.30822 16.193 2.63552V57.4159C16.193 57.7432 16.4858 58.036 16.8131 58.036H60.9303C61.2576 58.036 61.5504 57.7432 61.5504 57.4159V15.7449C61.5504 15.1937 61.9983 14.7458 62.5495 14.7458C63.1008 14.7458 63.5487 15.1937 63.5487 15.7449V57.3987C63.5315 58.8285 62.3601 59.9999 60.913 59.9999Z" fill="#0CB4C4"></path><path fill-rule="evenodd" clip-rule="evenodd" d="M62.5323 16.7444H49.3884C47.9414 16.7444 46.7872 15.573 46.7872 14.1432V0.999334C46.7872 0.603124 47.0284 0.241367 47.4074 0.0863278C47.7864 -0.068711 48.1998 0.0174224 48.4927 0.293047L63.2386 15.039C63.5314 15.3318 63.6003 15.7452 63.4453 16.1242C63.2902 16.5032 62.9285 16.7444 62.5323 16.7444ZM48.7683 3.39382V14.1259C48.7683 14.4533 49.0611 14.7461 49.3884 14.7461H60.1206L48.7683 3.39382Z" fill="#0CB4C4"></path><path fill-rule="evenodd" clip-rule="evenodd" d="M55.7967 21.74H21.9293C21.3781 21.74 20.9302 21.2921 20.9302 20.7408C20.9302 20.1896 21.3781 19.7417 21.9293 19.7417H55.7794C56.3307 19.7417 56.7786 20.1896 56.7786 20.7408C56.7786 21.2921 56.3479 21.74 55.7967 21.74Z" fill="#0CB4C4"></path><path fill-rule="evenodd" clip-rule="evenodd" d="M55.7967 29.4919H21.9293C21.3781 29.4919 20.9302 29.044 20.9302 28.4928C20.9302 27.9415 21.3781 27.4937 21.9293 27.4937H55.7794C56.3307 27.4937 56.7786 27.9415 56.7786 28.4928C56.7786 29.044 56.3479 29.4919 55.7967 29.4919Z" fill="#0CB4C4"></path><path fill-rule="evenodd" clip-rule="evenodd" d="M55.7967 37.261H21.9293C21.3781 37.261 20.9302 36.8131 20.9302 36.2618C20.9302 35.7106 21.3781 35.2627 21.9293 35.2627H55.7794C56.3307 35.2627 56.7786 35.7106 56.7786 36.2618C56.7786 36.8131 56.3479 37.261 55.7967 37.261Z" fill="#0CB4C4"></path><path fill-rule="evenodd" clip-rule="evenodd" d="M46.167 59.9996C45.6158 59.9996 45.1679 59.5517 45.1679 59.0005C45.1679 55.5207 42.3428 52.6955 38.863 52.6955C35.3832 52.6955 32.5581 55.5207 32.5581 59.0005C32.5581 59.5517 32.1102 59.9996 31.559 59.9996C31.0077 59.9996 30.5598 59.5517 30.5598 59.0005C30.5598 54.4182 34.2807 50.6973 38.863 50.6973C43.4453 50.6973 47.1662 54.4182 47.1662 59.0005C47.1662 59.5517 46.7183 59.9996 46.167 59.9996Z" fill="#0CB4C4"></path><path fill-rule="evenodd" clip-rule="evenodd" d="M21.137 59.9998C20.5857 59.9998 20.1378 59.5519 20.1378 59.0006V57.6914C20.1378 56.2961 21.1886 55.1763 22.7735 54.9007L24.7545 54.539C25.0129 53.7293 25.3402 52.9369 25.7364 52.1789L24.5823 50.5252C23.6693 49.1987 23.7209 47.6656 24.7028 46.6837L26.5461 44.8404C27.528 43.8585 29.0784 43.8068 30.3876 44.7198L32.0413 45.874C32.7993 45.4778 33.5917 45.1505 34.4014 44.8921L34.7631 42.9111C35.056 41.3434 36.1757 40.2754 37.5538 40.2754H40.155C41.5332 40.2754 42.6701 41.3262 42.9457 42.9111L43.3075 44.8921C44.1171 45.1505 44.9096 45.4778 45.6675 45.874L47.3213 44.7198C48.6477 43.8068 50.1809 43.8585 51.1628 44.8404L53.006 46.6837C53.9879 47.6656 54.0396 49.216 53.1266 50.5252L51.9724 52.1789C52.3687 52.9369 52.696 53.7293 52.9544 54.539L54.9354 54.9007C56.503 55.1936 57.5711 56.3133 57.5711 57.6914V59.0006C57.5711 59.5519 57.1232 59.9998 56.5719 59.9998C56.0207 59.9998 55.5728 59.5519 55.5728 59.0006V57.6914C55.5728 57.0713 54.7287 56.8818 54.5736 56.8473L51.9897 56.3822C51.6107 56.3133 51.3006 56.0377 51.2145 55.6587C50.9216 54.5906 50.5082 53.5743 49.9569 52.6096C49.7674 52.2823 49.7847 51.8688 50.0086 51.5588L51.5073 49.3882C51.6107 49.2504 52.0586 48.5269 51.6279 48.079L49.7847 46.2358C49.3368 45.7879 48.6133 46.253 48.4755 46.3564L46.3049 47.8551C45.9948 48.079 45.5814 48.0962 45.2541 47.9067C44.2894 47.3555 43.273 46.9248 42.205 46.6492C41.826 46.5458 41.5504 46.2358 41.4815 45.874L41.0164 43.29C40.9819 43.1178 40.8097 42.2909 40.1723 42.2909H37.5538C36.9165 42.2909 36.7442 43.135 36.7097 43.29L36.2446 45.874C36.1757 46.253 35.9001 46.5631 35.5211 46.6492C34.4531 46.9421 33.4367 47.3555 32.472 47.9067C32.1447 48.0962 31.7313 48.079 31.4212 47.8551L29.2507 46.3564C29.1128 46.253 28.3893 45.8051 27.9414 46.2358L26.0982 48.079C25.6503 48.5269 26.1154 49.2504 26.2188 49.3882L27.7175 51.5588C27.9414 51.8688 27.9587 52.2823 27.7692 52.6096C27.2179 53.557 26.7873 54.5906 26.5116 55.6587C26.4083 56.0377 26.0982 56.3133 25.7364 56.3822L23.1525 56.8473C22.9802 56.8818 22.1533 57.054 22.1533 57.6914V59.0006C22.1189 59.5519 21.6882 59.9998 21.137 59.9998Z" fill="#0CB4C4"></path></svg>