<svg xmlns="http://www.w3.org/2000/svg" width="64" height="62" viewBox="0 0 64 62" fill="none"><path fill-rule="evenodd" clip-rule="evenodd" d="M48.1283 2.26085C44.3573 2.26085 40.9566 2.93219 38.5083 4.02029C36.2139 5.03891 34.794 6.38935 34.794 7.82981C34.794 9.27027 36.2139 10.6207 38.5083 11.6393C40.9571 12.7248 44.3576 13.3988 48.1283 13.3988C51.8992 13.3988 55.2999 12.7274 57.7482 11.6393C59.3379 10.9345 60.5057 10.0703 61.0741 9.12626C61.0896 9.09024 61.1102 9.0568 61.1333 9.02594C61.3468 8.63753 61.46 8.23884 61.46 7.82985C61.46 6.38939 60.0401 5.03895 57.7457 4.02033C55.3021 2.93229 51.9014 2.26085 48.1283 2.26085ZM27.7255 23.2089V20.135C27.7255 19.7878 28.0084 19.5048 28.3557 19.5048C28.5151 19.5048 28.6592 19.564 28.7698 19.6617L33.5362 23.2912V7.81391C33.5465 5.83842 35.2493 4.09447 38.0016 2.87263C40.6072 1.71513 44.1878 1 48.1286 1C52.0693 1 55.6499 1.71506 58.2556 2.87263C61.0079 4.09447 62.7132 5.83842 62.7209 7.81391V10.7051C62.7287 10.79 62.7338 10.8774 62.7338 10.9649C62.7338 11.0832 62.7312 11.199 62.7235 11.3147V31.6227C62.7132 33.5982 61.0104 35.3421 58.2581 36.564C55.6525 37.7215 52.0719 38.4366 48.1311 38.4366C44.1904 38.4366 40.6098 37.7216 38.0041 36.564C35.612 35.5016 34.012 34.0458 33.6262 32.3866L28.7363 36.1086C28.4611 36.3196 28.065 36.2655 27.8567 35.9903C27.7692 35.8771 27.7281 35.7408 27.7281 35.6096H27.7255V33.2097H26.568V58.5513C26.568 59.2252 26.2927 59.8374 25.8503 60.2798C25.4053 60.7222 24.7957 60.9974 24.1218 60.9974L3.4951 61C2.82377 61 2.19866 60.7402 1.74081 60.3081C1.28809 59.8785 1 59.2843 1 58.6104V33.739C1 33.5461 1.08745 33.3712 1.22636 33.2555L6.83384 27.8331C6.94702 27.6634 7.13993 27.5502 7.36115 27.5502H7.37915H16.8503V23.8385C16.8503 23.4912 17.1332 23.2083 17.4805 23.2083L27.7255 23.2089ZM34.7937 24.2506L38.8965 27.3733C39.1717 27.5843 39.2257 27.9778 39.0148 28.253C38.9762 28.3019 38.9351 28.3431 38.8862 28.3791L34.7938 31.4941V31.6073C34.7938 33.0477 36.2136 34.3982 38.5081 35.4168C40.9569 36.5023 44.3574 37.1762 48.1281 37.1762C51.899 37.1762 55.2997 36.5049 57.748 35.4168C60.0425 34.3982 61.4623 33.0477 61.4623 31.6073V26.4293C61.0893 26.8692 60.6187 27.2782 60.045 27.646C58.5146 28.6286 56.2252 29.318 53.0123 29.6035C52.6676 29.6318 52.3615 29.3772 52.3333 29.0325C52.3024 28.6878 52.5596 28.3817 52.9043 28.3535C55.8959 28.0885 57.9974 27.466 59.3658 26.5889C60.7625 25.6912 61.367 24.5131 61.367 23.1781C61.367 23.0752 61.3593 22.9749 61.3464 22.8771C60.5851 23.6411 59.533 24.3201 58.2546 24.8886C55.649 26.0461 52.0684 26.7613 48.1276 26.7613C44.1869 26.7613 40.6063 26.0462 38.0006 24.8886C36.6579 24.2919 35.5622 23.5716 34.793 22.7614L34.7937 24.2506ZM28.9831 32.5819V34.3413L33.7494 30.7119C33.7726 30.6939 33.7932 30.6759 33.8189 30.6605L37.4766 27.8747L33.8163 25.0889C33.7932 25.0735 33.77 25.0555 33.7494 25.0375L28.9831 21.4081V23.8414C28.9831 24.1887 28.7001 24.4716 28.3529 24.4716L18.11 24.469V31.9515H28.3555C28.7027 31.9515 28.9831 32.2321 28.9831 32.5819ZM25.3073 33.2121H17.4798C17.1326 33.2121 16.8496 32.9292 16.8496 32.5819V28.811H7.98824V33.8629C7.98824 34.2101 7.70529 34.4931 7.35804 34.4931L2.25984 34.4905V58.6105C2.25984 58.9218 2.3936 59.1944 2.60452 59.3951C2.83345 59.6085 3.15241 59.7397 3.49454 59.7397H24.1186C24.4453 59.7397 24.7411 59.606 24.9571 59.3899C25.1732 59.1738 25.307 58.878 25.307 58.5514L25.3073 33.2121ZM7.46871 53.8724H20.4483C20.7956 53.8724 21.0785 53.5894 21.0785 53.2422C21.0785 52.8949 20.7956 52.612 20.4483 52.612H7.46871C7.12145 52.612 6.83851 52.8949 6.83851 53.2422C6.83851 53.5894 7.11888 53.8724 7.46871 53.8724ZM7.46871 49.8726H20.4483C20.7956 49.8726 21.0785 49.5896 21.0785 49.2424C21.0785 48.8951 20.7956 48.6122 20.4483 48.6122H7.46871C7.12145 48.6122 6.83851 48.8951 6.83851 49.2424C6.83851 49.5896 7.11888 49.8726 7.46871 49.8726ZM7.46871 45.8727H20.4483C20.7956 45.8727 21.0785 45.5898 21.0785 45.2425C21.0785 44.8953 20.7956 44.6123 20.4483 44.6123H7.46871C7.12145 44.6123 6.83851 44.8953 6.83851 45.2425C6.83851 45.5898 7.11888 45.8727 7.46871 45.8727ZM7.46871 41.8729H20.4483C20.7956 41.8729 21.0785 41.59 21.0785 41.2427C21.0785 40.8955 20.7956 40.6125 20.4483 40.6125H7.46871C7.12145 40.6125 6.83851 40.8955 6.83851 41.2427C6.83851 41.59 7.11888 41.8729 7.46871 41.8729ZM7.46871 37.8731H20.4483C20.7956 37.8731 21.0785 37.5901 21.0785 37.2429C21.0785 36.8956 20.7956 36.6127 20.4483 36.6127H7.46871C7.12145 36.6127 6.83851 36.8956 6.83851 37.2429C6.83851 37.5901 7.11888 37.8731 7.46871 37.8731ZM3.05988 33.2302H6.73047V29.6805L3.05988 33.2302ZM60.933 21.4444C60.3234 22.3035 59.2148 23.0881 57.7486 23.7414C55.2998 24.8269 51.8993 25.5009 48.1287 25.5009C44.3577 25.5009 40.957 24.8295 38.5087 23.7414C36.2143 22.7228 34.7944 21.3724 34.7944 19.9319V10.659C35.5635 11.4693 36.6567 12.1895 38.002 12.7863C40.6077 13.9438 44.1882 14.6589 48.129 14.6589C52.0697 14.6589 55.6503 13.9438 58.256 12.7863C59.5935 12.1921 60.6842 11.4744 61.4533 10.6667C61.4559 10.6924 61.461 10.7207 61.461 10.7464V11.266C61.3761 12.4775 60.7614 13.5476 59.4701 14.3759C58.1017 15.253 56.0002 15.8755 53.0086 16.1405C52.664 16.1688 52.4067 16.4749 52.4376 16.8195C52.4685 17.1642 52.772 17.4214 53.1167 17.3905C56.3294 17.105 58.6187 16.4156 60.1494 15.433C60.669 15.0986 61.1062 14.7308 61.4612 14.3372V19.9293C61.4612 20.3331 61.3506 20.7319 61.1371 21.1177C61.0368 21.2051 60.9674 21.3209 60.9339 21.4444L60.933 21.4444Z" fill="#0CB4C4" stroke="#0CB4C4"></path></svg>