<svg xmlns="http://www.w3.org/2000/svg" width="59" height="62" viewBox="0 0 59 62" fill="none"><path d="M36.2638 16.8883H35.8236C36.3081 16.3074 36.5998 15.5625 36.5998 14.7499C36.5998 12.9084 35.1022 11.4108 33.2607 11.4108C31.4193 11.4108 29.9216 12.9084 29.9216 14.7499C29.9216 15.5626 30.2133 16.31 30.6978 16.8883H30.2576C28.002 16.8883 26.1658 18.7245 26.1658 20.9801V26.752C26.1658 27.0827 26.434 27.351 26.7648 27.351H39.7518C40.0826 27.351 40.3509 27.0828 40.3509 26.752V20.9801C40.3509 18.7245 38.5146 16.8883 36.259 16.8883H36.2638ZM31.1223 14.7499C31.1223 13.57 32.0808 12.6115 33.2607 12.6115C34.4406 12.6115 35.3991 13.57 35.3991 14.7499C35.3991 15.9298 34.4406 16.8883 33.2607 16.8883H33.2581C32.0782 16.8883 31.1197 15.9272 31.1197 14.7499H31.1223ZM39.1551 26.1506H27.369V20.9804C27.369 19.3864 28.6661 18.0893 30.2601 18.0893H33.2606H33.2632H33.2658H36.2664C37.8604 18.0893 39.1575 19.3864 39.1575 20.9804V26.1506H39.1551ZM51.4099 1.00012H15.1141C11.3947 1.00012 8.37094 4.02412 8.37094 7.74332V8.11839H1.59907C1.26828 8.11839 1 8.38666 1 8.71745V14.6664C1 14.9972 1.26827 15.2655 1.59907 15.2655H8.37094V20.9905H1.59907C1.26828 20.9905 1 21.2587 1 21.5895V27.5385C1 27.8693 1.26827 28.1376 1.59907 28.1376H8.37094V33.8625H1.59907C1.26828 33.8625 1 34.1308 1 34.4616V40.4106C1 40.7414 1.26827 41.0097 1.59907 41.0097H8.37094V46.7346H1.59907C1.26828 46.7346 1 47.0029 1 47.3337V53.2827C1 53.6135 1.26827 53.8817 1.59907 53.8817H8.37094V54.2568C8.37094 57.9762 11.3949 61 15.1141 61H51.4099C55.1293 61 58.1531 57.976 58.1531 54.2568V7.7432C58.1531 4.0238 55.1291 1.00012 51.4099 1.00012ZM2.19784 9.3196H15.7416V14.0678H2.19784V9.3196ZM2.19784 22.1946H15.7416V26.9428H2.19784V22.1946ZM2.19784 35.0695H15.7416V39.8178H2.19784V35.0695ZM2.19784 47.9445H15.7416V52.6927H2.19784V47.9445ZM56.9522 54.2685C56.9522 57.3263 54.4648 59.8112 51.4096 59.8112H15.1138C12.056 59.8112 9.57115 57.3237 9.57115 54.2685V53.8935H16.343C16.6738 53.8935 16.9421 53.6252 16.9421 53.2944V47.3454C16.9421 47.0146 16.6738 46.7463 16.343 46.7463H9.57115V41.0214H16.343C16.6738 41.0214 16.9421 40.7531 16.9421 40.4223V34.4733C16.9421 34.1425 16.6738 33.8743 16.343 33.8743H9.57115V28.1493H16.343C16.6738 28.1493 16.9421 27.881 16.9421 27.5502V21.6012C16.9421 21.2705 16.6738 21.0022 16.343 21.0022H9.57115V15.2772H16.343C16.6738 15.2772 16.9421 15.009 16.9421 14.6782V8.72917C16.9421 8.39839 16.6738 8.13011 16.343 8.13011H9.57115V7.75504C9.57115 4.69723 12.0586 2.21239 15.1138 2.21239H51.4096C54.4674 2.21239 56.9522 4.69983 56.9522 7.75504V54.2786V54.2685ZM22.8888 30.3529H43.6319C43.9627 30.3529 44.2309 30.0847 44.2309 29.7539V9.01085C44.2309 8.68006 43.9627 8.41178 43.6319 8.41178H22.8888C22.5581 8.41178 22.2898 8.68006 22.2898 9.01085V29.7539C22.2898 30.0847 22.5581 30.3529 22.8888 30.3529ZM23.4879 9.60992H43.0307V29.1527H23.4879V9.60992ZM46.424 34.4137H20.094C19.7632 34.4137 19.4949 34.6819 19.4949 35.0127V37.9195C19.4949 38.2503 19.7632 38.5186 20.094 38.5186H46.424C46.7548 38.5186 47.0231 38.2503 47.0231 37.9195V35.0127C47.0231 34.6819 46.7548 34.4137 46.424 34.4137ZM45.8249 37.3204H20.6951V35.6118H45.8249V37.3204ZM43.6657 43.7044C43.6657 44.0352 43.3974 44.3034 43.0666 44.3034H23.4565C23.1257 44.3034 22.8574 44.0352 22.8574 43.7044C22.8574 43.3736 23.1257 43.1053 23.4565 43.1053H43.0666C43.3974 43.1053 43.6657 43.3736 43.6657 43.7044ZM43.6657 48.5308C43.6657 48.8616 43.3974 49.1298 43.0666 49.1298H23.4565C23.1257 49.1298 22.8574 48.8616 22.8574 48.5308C22.8574 48.2 23.1257 47.9317 23.4565 47.9317H43.0666C43.3974 47.9317 43.6657 48.2 43.6657 48.5308ZM43.6657 53.3572C43.6657 53.6879 43.3974 53.9562 43.0666 53.9562H23.4565C23.1257 53.9562 22.8574 53.688 22.8574 53.3572C22.8574 53.0264 23.1257 52.7581 23.4565 52.7581H43.0666C43.3974 52.7581 43.6657 53.0264 43.6657 53.3572Z" fill="#0CB4C4" stroke="#0CB4C4"></path></svg>