<svg width="60" height="60" viewBox="0 0 60 60" fill="none" xmlns="http://www.w3.org/2000/svg"><path d="M37.7778 28.8889C37.7778 24.6 34.2889 21.1111 30 21.1111C25.7111 21.1111 22.2222 24.6 22.2222 28.8889C22.2222 38.7778 31.0222 38.8889 31.1111 38.8889H52.2222C57.1667 38.8889 60 35.6444 60 30C60 13.4556 46.5444 0 30 0C13.4556 0 0 13.4556 0 30C0 46.5444 13.4556 60 30 60C40.4556 60 49.9889 54.6889 55.5111 45.8C55.8333 45.2778 55.6778 44.5889 55.1556 44.2667C54.6333 43.9444 53.9556 44.1 53.6222 44.6222C48.5111 52.8667 39.6778 57.7778 30 57.7778C22.7667 57.7778 16.1667 54.9889 11.2111 50.4444C12.0444 49.7889 12.7444 48.9444 13.3111 47.8444C14.2222 46.0556 14.4333 43.9889 13.9 42.1889C13.7 41.5333 13.4222 40.9222 13.1556 40.3444C12.9667 39.9222 12.7667 39.5 12.6111 39.0667C12.4222 38.5222 12.1556 37.5 12.5889 36.7889C12.7667 36.5 13.0667 36.2222 13.4 35.9333L13.6556 35.7C15.3222 34.1556 16.3222 32.3 16.4667 30.4444C16.5667 29.1778 16.2778 28 16 26.8667L15.8778 26.3444C15.2111 23.4889 15.3444 21.3889 16.3 19.9C16.9111 18.9556 17.9222 18.1556 19.4778 17.3667C20.8444 16.6778 22.2778 16.1556 23.7889 15.6C24.7444 15.2556 25.7 14.9 26.6444 14.5111C29.8111 13.1889 31.9556 11.6778 33.4111 9.73333C34.1444 8.75556 34.6889 7.61111 34.9778 6.44444C35.1667 5.68889 35.4333 4.17778 35.1333 2.7C37.9667 3.23333 40.6444 4.18889 43.1 5.51111C42.1444 6.97778 41.5778 8.5 41.4444 10.0667C41.2444 12.4 42.1222 14.6889 43.7444 16.0556C44.0222 16.2889 44.3222 16.5 44.6222 16.7C44.8889 16.8889 45.1556 17.0667 45.4 17.2889C46.4889 18.2667 46.8444 19.8556 47.2222 21.5333C47.4778 22.6556 47.7333 23.8111 48.2222 24.9C49.6 27.9333 53.0778 29.8889 56.5 29.8889C56.9222 29.8889 57.3444 29.8556 57.7667 29.7889C57.7667 29.8556 57.7667 29.9222 57.7667 29.9778C57.7667 34.4 55.9 36.6444 52.2111 36.6444H31.1111C30.8556 36.6444 25.0778 36.5667 24.4889 29.9778H36.6667C37.2778 30 37.7778 29.5 37.7778 28.8889ZM32.8333 5.91111C32.6111 6.8 32.2 7.66667 31.6444 8.41111C30.4333 10.0222 28.5778 11.3111 25.7889 12.4667C24.8778 12.8444 23.9556 13.1889 23.0333 13.5222C21.5333 14.0778 19.9667 14.6444 18.4889 15.3889C17.2667 16 15.5222 17.0111 14.4333 18.7111C13.1444 20.7222 12.9111 23.3889 13.7111 26.8556L13.8444 27.4C14.0889 28.4111 14.3222 29.3667 14.2556 30.2778C14.1556 31.5667 13.4111 32.9111 12.1556 34.0667L11.9222 34.2778C11.5 34.6556 11.0333 35.0778 10.6889 35.6556C10.0333 36.7556 9.97778 38.2333 10.5333 39.8111C10.7111 40.3111 10.9333 40.7889 11.1556 41.2778C11.4 41.8111 11.6333 42.3222 11.7889 42.8333C12.1667 44.0889 12.0111 45.5556 11.3556 46.8444C10.8889 47.7556 10.3444 48.4111 9.66667 48.8778C5.04444 43.9111 2.22222 37.2778 2.22222 30C2.22222 14.6778 14.6778 2.22222 30 2.22222C30.9 2.22222 31.8 2.26667 32.6778 2.35556C33.2111 3.26667 33.1333 4.74444 32.8333 5.91111ZM50.2556 23.9889C49.8556 23.1111 49.6333 22.1111 49.4 21.0556C48.9667 19.1111 48.5111 17.0889 46.9 15.6444C46.5667 15.3444 46.2333 15.1111 45.9 14.8889C45.6667 14.7222 45.4222 14.5556 45.2 14.3778C44.1222 13.4667 43.5444 11.8889 43.6778 10.2667C43.7778 9.05556 44.2444 7.84444 45.0222 6.66667C52.0444 11.2 56.9 18.8111 57.6667 27.5778C54.8222 28.0889 51.4 26.5111 50.2556 23.9889ZM24.5556 27.7778C25.0667 25.2444 27.3111 23.3333 30 23.3333C32.6889 23.3333 34.9222 25.2444 35.4444 27.7778H24.5556Z" fill="#0CB4C4"></path></svg>