<svg width="67" height="60" viewBox="0 0 67 60" fill="none" xmlns="http://www.w3.org/2000/svg"><path d="M61.4538 0H4.70643C2.14643 0 0 2.07612 0 4.70643V43.669C0 46.229 2.07612 48.3754 4.70643 48.3754H7.95847C8.37477 48.3754 8.72082 48.0294 8.72082 47.6131C8.72082 47.1968 8.3748 46.8507 7.95847 46.8507H4.70643C2.97633 46.8507 1.59225 45.4667 1.59225 43.7366V40.6224H57.1638C57.5801 40.6224 57.9262 40.2764 57.9262 39.86C57.9262 39.4437 57.5801 39.0977 57.1638 39.0977L1.59225 39.1004V4.70387C1.59225 2.97377 2.97633 1.58969 4.70643 1.58969H61.4538C63.1839 1.58969 64.568 2.97377 64.568 4.70387V39.0305H61.0374C60.6211 39.0305 60.2751 39.3765 60.2751 39.7928C60.2751 40.2091 60.6211 40.5552 61.0374 40.5552H64.568V43.6694C64.568 45.3995 63.1839 46.7835 61.4538 46.7835L40.9009 46.7808H11.8351C11.4188 46.7808 11.0728 47.1269 11.0728 47.5432C11.0728 47.9595 11.4188 48.3055 11.8351 48.3055H24.5002V49.4815C24.5002 52.2496 22.2159 54.5339 19.4477 54.5339L10.519 54.5312C7.95902 54.5312 5.81259 56.6073 5.81259 59.2376C5.81259 59.654 6.15861 60 6.57494 60H59.4455C59.8618 60 60.2078 59.654 60.2078 59.2376C60.2078 56.6776 58.1317 54.5312 55.5014 54.5312H46.7132C43.945 54.5312 41.6607 52.2469 41.6607 49.4788V48.3028H61.4545C64.0145 48.3028 66.1609 46.2267 66.1609 43.5964V4.70442C66.1609 2.07681 64.0848 0.000687701 61.4545 0.000687701L61.4538 0ZM42.4227 54.6006H35.0185C34.6022 54.6006 34.2562 54.9466 34.2562 55.363C34.2562 55.7793 34.6022 56.1253 35.0185 56.1253H55.642C57.0964 56.1253 58.2723 57.0931 58.6183 58.4772H7.54504C7.89106 57.1634 9.13729 56.1253 10.5214 56.1253H31.1449C31.5612 56.1253 31.9072 55.7793 31.9072 55.363C31.9072 54.9467 31.5612 54.6006 31.1449 54.6006H23.738C25.1924 53.3544 26.0898 51.5568 26.0898 49.5482V48.3723H40.1389V49.5482C40.0713 51.5567 40.9683 53.3544 42.4227 54.6006ZM27.2683 37.3702C27.3386 37.4405 27.4765 37.4405 27.5441 37.4405C27.7522 37.4405 27.9604 37.3702 28.0983 37.2323L33.7049 31.6257H42.9769C45.2611 31.6257 47.2669 30.1038 47.8914 28.0276C49.2755 27.7519 50.3136 26.5732 50.3136 25.1216V23.7375H51.6977C53.3575 23.7375 54.674 22.4238 54.674 20.7612V17.5092C54.674 15.8494 53.3602 14.5328 51.6977 14.5328H50.1054C50.0351 14.3247 49.8973 14.1165 49.7594 13.9787C49.4134 13.6326 48.9295 13.4245 48.4456 13.4245C48.2375 13.4245 48.0996 13.4245 47.9617 13.4948C47.34 11.3483 45.3314 9.75887 42.9796 9.75887H40.7656V7.89091C41.7334 7.54489 42.3579 6.64468 42.3579 5.60662C42.3579 4.29285 41.2495 3.18448 39.9357 3.18448C38.622 3.18448 37.5136 4.29285 37.5136 5.60662C37.5136 6.64468 38.2056 7.54489 39.1058 7.89091V9.75887L26.9896 9.75616V7.88821C27.9573 7.54219 28.5818 6.64198 28.5818 5.60392C28.5818 4.29015 27.4735 3.18178 26.1597 3.18178C24.8459 3.18178 23.7376 4.29015 23.7376 5.60392C23.7376 6.64198 24.4296 7.54219 25.3298 7.88821V9.75616H23.1158C20.764 9.75616 18.7554 11.3484 18.1337 13.4921C17.9958 13.4218 17.7877 13.4218 17.6498 13.4218C16.8874 13.4218 16.2657 13.8381 15.9197 14.5302H14.3274C12.6677 14.5302 11.3511 15.8439 11.3511 17.5065V20.7585C11.3511 22.4183 12.6649 23.7349 14.3274 23.7349H15.9197C16.1954 24.3566 16.8874 24.8432 17.6498 24.8432H17.9255V26.5733C17.9255 28.5791 19.1014 30.4499 20.9694 31.2798C21.1073 31.3501 21.1776 31.35 21.3154 31.35C21.5912 31.35 21.8696 31.2122 22.0075 30.8662C22.2156 30.4499 22.0075 29.966 21.5912 29.8281C20.3449 29.2739 19.515 27.9601 19.515 26.5761V14.8086C19.515 12.8028 21.1073 11.2105 23.1131 11.2105H42.9068C44.9127 11.2105 46.5049 12.8028 46.5049 14.8086V22.8377C46.5049 23.8757 47.3348 24.7056 48.3729 24.7056H48.6486V25.0516C48.6486 25.814 48.0268 26.4357 47.2645 26.4357H43.1826C42.9068 25.814 42.2148 25.3273 41.4525 25.3273C40.4144 25.3273 39.5845 26.1572 39.5845 27.1953C39.5845 28.2334 40.4144 29.0633 41.4525 29.0633C42.2148 29.0633 42.8366 28.647 43.1826 27.9549H46.0886C45.4668 29.1308 44.2882 29.9607 42.9041 29.9607L33.356 29.9634C33.1479 29.9634 32.9397 30.0337 32.8018 30.1715L28.3036 34.6698V30.7257C28.3036 30.3094 27.9576 29.9634 27.5412 29.9634H25.2569C24.8406 29.9634 24.4946 30.3094 24.4946 30.7257C24.4946 31.1421 24.8406 31.4881 25.2569 31.4881H26.7113V36.5405C26.7816 37.0244 26.9223 37.3 27.2683 37.3702ZM39.9306 4.7038C40.4145 4.7038 40.7605 5.04982 40.7605 5.5337C40.7605 6.01758 40.4145 6.36359 39.9306 6.36359C39.4467 6.36359 39.1007 6.01757 39.1007 5.5337C39.1007 5.04981 39.517 4.7038 39.9306 4.7038ZM26.2303 4.7038C26.7142 4.7038 27.0602 5.04982 27.0602 5.5337C27.0602 6.01758 26.7142 6.36359 26.2303 6.36359C25.7464 6.36359 25.4004 6.01757 25.4004 5.5337C25.3977 5.04981 25.7437 4.7038 26.2303 4.7038ZM17.9936 22.9052C17.9936 23.043 17.8557 23.1809 17.7179 23.1809C17.58 23.1809 17.4421 23.043 17.4421 22.9052V18.5448C17.4421 18.1284 17.0961 17.7824 16.6798 17.7824C16.2635 17.7824 15.9174 18.1284 15.9174 18.5448V22.1428H14.5334C13.771 22.1428 13.1493 21.5211 13.1493 20.7587V17.5067C13.1493 16.7443 13.771 16.1226 14.5334 16.1226H16.7473C17.1636 16.1226 17.5097 15.7766 17.5097 15.3603C17.5097 15.2224 17.6476 15.0845 17.7854 15.0845C17.9233 15.0845 17.9936 15.1548 17.9936 15.1548C17.9936 15.1548 18.0639 15.2927 18.0639 15.363V22.9048L17.9936 22.9052ZM48.4434 23.1836C48.3055 23.1836 48.1677 23.0457 48.1677 22.9079V15.2248C48.1677 15.087 48.3055 14.9491 48.4434 14.9491C48.5813 14.9491 48.6516 15.0194 48.6516 15.0194C48.6516 15.0194 48.7218 15.1572 48.7218 15.2275C48.7218 15.6438 49.0679 15.9899 49.4842 15.9899H51.6982C52.4605 15.9899 53.0822 16.6116 53.0822 17.374V20.626C53.0822 21.3883 52.4605 22.0101 51.6982 22.0101H50.3141V18.412C50.3141 17.9957 49.9681 17.6497 49.5517 17.6497C49.1354 17.6497 48.7894 17.9957 48.7894 18.412V22.7724C48.7218 23.0428 48.5813 23.1836 48.4434 23.1836ZM41.523 27.6116C41.3851 27.6116 41.2473 27.4737 41.2473 27.3358C41.2473 27.1979 41.3851 27.0601 41.523 27.0601C41.6609 27.0601 41.7987 27.1979 41.7987 27.3358C41.8014 27.4737 41.7312 27.6116 41.523 27.6116ZM38.617 19.9991C38.2007 19.9991 37.8546 19.6531 37.8546 19.2368V16.3307C37.8546 15.9144 38.2006 15.5684 38.617 15.5684C39.0333 15.5684 39.3793 15.9144 39.3793 16.3307V19.2368C39.3793 19.6531 39.0333 19.9991 38.617 19.9991ZM27.5443 19.9991C27.128 19.9991 26.782 19.6531 26.782 19.2368V16.3307C26.782 15.9144 27.128 15.5684 27.5443 15.5684C27.9607 15.5684 28.3067 15.9144 28.3067 16.3307V19.2368C28.3743 19.6531 27.9607 19.9991 27.5443 19.9991ZM30.4503 25.8111C30.034 25.8111 29.688 25.4651 29.688 25.0488C29.688 24.6325 30.034 24.2864 30.4503 24.2864H35.711C36.1273 24.2864 36.4733 24.6325 36.4733 25.0488C36.4733 25.4651 36.1273 25.8111 35.711 25.8111H30.4503ZM11.7652 44.4962H7.88871C7.47241 44.4962 7.12636 44.1502 7.12636 43.7339C7.12636 43.3176 7.47238 42.9715 7.88871 42.9715H11.7652C12.1816 42.9715 12.5276 43.3176 12.5276 43.7339C12.5276 44.1502 12.1816 44.4962 11.7652 44.4962Z" fill="#0CB4C4"></path></svg>