<svg width="61" height="60" viewBox="0 0 61 60" fill="none" xmlns="http://www.w3.org/2000/svg"><path d="M36.3016 28H27.1396C26.0788 28 25.0614 28.4214 24.3112 29.1716C23.5611 29.9217 23.1396 30.9391 23.1396 32H17.5536L13.6746 28.122C13.3192 27.7665 12.8971 27.4845 12.4327 27.2921C11.9682 27.0997 11.4704 27.0007 10.9676 27.0007C9.95233 27.0007 8.97859 27.4041 8.26065 28.122C7.90516 28.4775 7.62317 28.8995 7.43078 29.364C7.23839 29.8284 7.13937 30.3263 7.13937 30.829C7.13937 31.8443 7.54271 32.8181 8.26065 33.536L14.7256 40H53.1396V30H42.3017L36.3016 28ZM51.1396 38H15.5536L9.67465 32.122C9.41898 31.8662 9.24488 31.5404 9.17436 31.1857C9.10383 30.8309 9.14005 30.4633 9.27844 30.1292C9.41682 29.795 9.65115 29.5094 9.95182 29.3084C10.2525 29.1075 10.606 29.0001 10.9676 29C11.4525 29.0012 11.9171 29.1939 12.2606 29.536L16.7256 34H23.6766C24.0276 34.6079 24.5324 35.1128 25.1403 35.4638C25.7481 35.8149 26.4377 35.9998 27.1396 36H36.1396V34H27.1396C26.6092 34 26.1005 33.7893 25.7254 33.4142C25.3504 33.0391 25.1396 32.5304 25.1396 32C25.1396 31.4696 25.3504 30.9609 25.7254 30.5858C26.1005 30.2107 26.6092 30 27.1396 30H35.9776L41.9777 32H51.1396V38Z" fill="#0CB4C4"></path><path d="M30.1396 19C31.3263 19 32.4864 18.6481 33.4731 17.9888C34.4598 17.3295 35.2288 16.3925 35.6829 15.2961C36.1371 14.1997 36.2559 12.9933 36.0244 11.8295C35.7928 10.6656 35.2214 9.59647 34.3823 8.75736C33.5432 7.91824 32.4741 7.3468 31.3102 7.11529C30.1463 6.88378 28.9399 7.0026 27.8435 7.45672C26.7472 7.91085 25.8101 8.67988 25.1508 9.66658C24.4915 10.6533 24.1396 11.8133 24.1396 13C24.1412 14.5908 24.7739 16.116 25.8988 17.2409C27.0236 18.3658 28.5488 18.9984 30.1396 19ZM30.1396 17C29.0788 17 28.0614 16.5786 27.3112 15.8284C26.5611 15.0783 26.1396 14.0609 26.1396 13C26.1439 12.662 26.1916 12.3259 26.2816 12H33.9977C34.0877 12.3259 34.1354 12.662 34.1396 13C34.1396 14.0609 33.7182 15.0783 32.9681 15.8284C32.2179 16.5786 31.2005 17 30.1396 17ZM32.7576 10H27.5216C28.2416 9.35603 29.1737 9.00001 30.1396 9.00001C31.1056 9.00001 32.0377 9.35603 32.7576 10Z" fill="#0CB4C4"></path><path d="M39.6736 10C39.4978 9.44142 39.2726 8.89961 39.0006 8.381L41.4526 5.929L37.2106 1.687L34.7586 4.139C34.24 3.86703 33.6982 3.6418 33.1396 3.466V0H27.1396V3.466C26.5811 3.6418 26.0393 3.86703 25.5206 4.139L23.0686 1.687L18.8266 5.929L21.2786 8.381C21.0067 8.89961 20.7814 9.44142 20.6056 10H0.139648V50H24.1396V53.808L21.6626 60H38.6166L36.1396 53.808V50H60.1396V10H39.6736ZM19.1396 12H22.1676L22.3446 11.222C22.5449 10.3456 22.8921 9.50942 23.3716 8.749L23.7976 8.073L21.6546 5.929L23.0686 4.515L25.2116 6.658L25.8866 6.233C26.6475 5.75282 27.4844 5.40553 28.3616 5.206L29.1396 5.029V2H31.1396V5.029L31.9176 5.206C32.7949 5.40553 33.6318 5.75282 34.3926 6.233L35.0676 6.658L37.2106 4.515L38.6246 5.929L36.4816 8.073L36.9076 8.749C37.3889 9.50908 37.7379 10.3453 37.9396 11.222L38.1166 12H41.1396V14H38.1116L37.9346 14.778C37.7344 15.6544 37.3872 16.4906 36.9076 17.251L36.4816 17.927L38.6246 20.071L37.2106 21.485L35.0676 19.342L34.3916 19.767C33.6313 20.2474 32.7947 20.5948 31.9176 20.794L31.1396 20.971V24H29.1396V20.971L28.3616 20.794C27.4846 20.5948 26.648 20.2474 25.8876 19.767L25.2116 19.342L23.0686 21.485L21.6546 20.071L23.7976 17.927L23.3716 17.251C22.8921 16.4906 22.5449 15.6544 22.3446 14.778L22.1676 14H19.1396V12ZM24.6166 58L25.8166 55H34.4627L35.6626 58H24.6166ZM34.1396 53H26.1396V50H34.1396V53ZM58.1396 48H2.13965V44H58.1396V48ZM58.1396 12V42H2.13965V12H17.1396V16H20.6056C20.7814 16.5586 21.0067 17.1004 21.2786 17.619L18.8266 20.071L23.0686 24.313L25.5206 21.862C26.0394 22.1334 26.5812 22.3583 27.1396 22.534V26H33.1396V22.534C33.6981 22.3583 34.2399 22.1334 34.7586 21.862L37.2106 24.313L41.4526 20.071L39.0006 17.619C39.2726 17.1004 39.4978 16.5586 39.6736 16H43.1396V12H58.1396Z" fill="#0CB4C4"></path></svg>