<svg width="71" height="60" viewBox="0 0 71 60" fill="none" xmlns="http://www.w3.org/2000/svg"><path d="M63.2742 22.479C71.1579 3.21173 44.4862 -9.39069 34.5873 8.88342C33.2863 7.98549 31.7921 7.40662 30.2258 7.19369C28.6594 6.98076 27.0649 7.13976 25.5714 7.65782C24.078 8.17588 22.7275 9.03842 21.6295 10.1756C20.5315 11.3127 19.7167 12.6925 19.2512 14.2032C-1.45611 12.8044 -7.54392 41.0169 11.7722 48.3921V54.1179C11.7732 55.0536 12.1454 55.9507 12.807 56.6123C13.4687 57.274 14.3658 57.6461 15.3015 57.6471H29.6174C29.8637 58.3339 30.3155 58.9281 30.9114 59.3491C31.5073 59.77 32.2183 59.9973 32.9479 60H37.6536C38.3833 59.9991 39.0949 59.7725 39.6907 59.3513C40.2866 58.93 40.7376 58.3348 40.9818 57.6471H55.3C56.2357 57.6461 57.1328 57.274 57.7945 56.6123C58.4561 55.9507 58.8283 55.0536 58.8293 54.1179V46.9997C71.8249 45.7051 75.0167 28.2704 63.2742 22.479ZM56.4764 54.1179C56.4761 54.4298 56.3521 54.7288 56.1315 54.9494C55.911 55.1699 55.6119 55.294 55.3 55.2943H40.0064C39.8519 55.2943 39.6989 55.3247 39.5562 55.3838C39.4134 55.4429 39.2837 55.5295 39.1745 55.6388C39.0652 55.748 38.9786 55.8777 38.9195 56.0205C38.8604 56.1632 38.83 56.3162 38.83 56.4707C38.8297 56.7826 38.7057 57.0817 38.4851 57.3022C38.2645 57.5228 37.9655 57.6468 37.6536 57.6471H32.9479C32.6371 57.6433 32.3401 57.5181 32.1203 57.2983C31.9005 57.0785 31.7753 56.7815 31.7715 56.4707C31.7715 56.3162 31.7411 56.1632 31.682 56.0205C31.6229 55.8777 31.5362 55.748 31.427 55.6388C31.3177 55.5295 31.188 55.4429 31.0453 55.3838C30.9025 55.3247 30.7495 55.2943 30.595 55.2943H15.3015C14.9896 55.294 14.6905 55.1699 14.4699 54.9494C14.2494 54.7288 14.1253 54.4298 14.125 54.1179V36.4714C14.1253 36.1595 14.2494 35.8605 14.4699 35.6399C14.6905 35.4194 14.9896 35.2953 15.3015 35.295H16.4779V49.4122C16.4789 50.3479 16.8511 51.245 17.5127 51.9066C18.1744 52.5683 19.0715 52.9404 20.0072 52.9414H30.7742C31.5183 52.9438 32.2441 53.172 32.8556 53.5958C33.4671 54.0196 33.9356 54.6191 34.199 55.315C34.2761 55.502 34.3976 55.6675 34.5529 55.7972C34.7082 55.9269 34.8927 56.0169 35.0905 56.0594C35.3612 56.1022 35.6383 56.0519 35.8767 55.9166C36.115 55.7814 36.3004 55.5693 36.4025 55.315C36.6659 54.6191 37.1343 54.0196 37.7459 53.5958C38.3574 53.1719 39.0832 52.9438 39.8272 52.9414H50.5943C51.53 52.9404 52.4271 52.5683 53.0887 51.9066C53.7504 51.245 54.1226 50.3479 54.1236 49.4122V35.295H55.3C55.6119 35.2953 55.911 35.4194 56.1315 35.6399C56.3521 35.8605 56.4761 36.1595 56.4764 36.4714V54.1179ZM34.1243 51.6162C33.1347 50.948 31.9683 50.5902 30.7742 50.5886H20.0072C19.6953 50.5883 19.3962 50.4642 19.1757 50.2437C18.9551 50.0231 18.8311 49.7241 18.8307 49.4122V30.5893C18.8311 30.2774 18.9551 29.9784 19.1757 29.7578C19.3962 29.5372 19.6953 29.4132 20.0072 29.4129H32.9479C33.2598 29.4132 33.5588 29.5372 33.7794 29.7578C34 29.9784 34.124 30.2774 34.1243 30.5893V51.6162ZM51.7707 49.4122C51.7704 49.7241 51.6464 50.0231 51.4258 50.2437C51.2053 50.4642 50.9062 50.5883 50.5943 50.5886H39.8272C38.6332 50.5902 37.4667 50.948 36.4772 51.6162V30.5893C36.4775 30.2774 36.6015 29.9784 36.8221 29.7578C37.0426 29.5372 37.3417 29.4132 37.6536 29.4129H50.5943C50.9062 29.4132 51.2053 29.5372 51.4258 29.7578C51.6464 29.9784 51.7704 30.2774 51.7707 30.5893V49.4122ZM58.8293 44.637V36.4714C58.8283 35.5357 58.4561 34.6386 57.7945 33.977C57.1328 33.3153 56.2357 32.9432 55.3 32.9422H54.1236V30.5893C54.1226 29.6536 53.7504 28.7565 53.0887 28.0949C52.4271 27.4332 51.53 27.061 50.5943 27.06H37.6536C36.7824 27.0627 35.9436 27.39 35.3007 27.978C34.6579 27.39 33.819 27.0627 32.9479 27.06H20.0072C19.0715 27.061 18.1744 27.4332 17.5127 28.0949C16.8511 28.7565 16.4789 29.6536 16.4779 30.5893V32.9422H15.3015C14.3658 32.9432 13.4687 33.3153 12.807 33.977C12.1454 34.6386 11.7732 35.5357 11.7722 36.4714V45.875C-4.63038 38.5618 2.06254 14.3313 19.9625 16.6692C20.2667 16.7174 20.5777 16.6447 20.8289 16.4664C21.0801 16.2882 21.2516 16.0187 21.3065 15.7157C21.621 13.949 22.5473 12.3493 23.9229 11.197C25.2986 10.0448 27.0359 9.41342 28.8304 9.41361C29.8294 9.40978 30.8192 9.60401 31.7427 9.98509C32.6662 10.3662 33.5049 10.9265 34.2105 11.6338C34.351 11.7713 34.5235 11.8718 34.7125 11.926C34.9015 11.9803 35.101 11.9866 35.2931 11.9445C35.4851 11.9024 35.6637 11.8131 35.8126 11.6847C35.9616 11.5564 36.0763 11.393 36.1463 11.2092C43.5819 -6.61199 69.3853 5.39144 60.6282 22.4947C60.5456 22.6439 60.4961 22.8092 60.4833 22.9793C60.4705 23.1493 60.4946 23.3202 60.554 23.4801C60.6134 23.64 60.7066 23.7851 60.8273 23.9056C60.948 24.0261 61.0934 24.1191 61.2534 24.1781C71.7253 28.0629 69.854 43.3319 58.8293 44.637Z" fill="#0CB4C4"></path><path d="M47.065 32.9422H41.1829C40.8748 32.9482 40.5814 33.0748 40.3657 33.2947C40.15 33.5147 40.0292 33.8105 40.0292 34.1186C40.0292 34.4267 40.1501 34.7225 40.3658 34.9425C40.5815 35.1625 40.8749 35.289 41.1829 35.295H47.065C47.373 35.289 47.6664 35.1624 47.8822 34.9425C48.0979 34.7225 48.2187 34.4267 48.2187 34.1186C48.2187 33.8105 48.0979 33.5147 47.8822 33.2947C47.6664 33.0748 47.373 32.9482 47.065 32.9422Z" fill="#0CB4C4"></path><path d="M47.065 38.8243H41.1829C40.8748 38.8303 40.5814 38.9569 40.3657 39.1769C40.15 39.3969 40.0292 39.6927 40.0292 40.0008C40.0292 40.3089 40.1501 40.6047 40.3658 40.8246C40.5815 41.0446 40.8749 41.1712 41.1829 41.1772H47.065C47.373 41.1712 47.6664 41.0446 47.8822 40.8246C48.0979 40.6046 48.2187 40.3088 48.2187 40.0007C48.2187 39.6926 48.0979 39.3968 47.8822 39.1769C47.6664 38.9569 47.373 38.8303 47.065 38.8243Z" fill="#0CB4C4"></path><path d="M47.065 44.7064H41.1829C40.8748 44.7125 40.5814 44.839 40.3657 45.059C40.15 45.279 40.0292 45.5748 40.0292 45.8829C40.0292 46.191 40.1501 46.4868 40.3658 46.7068C40.5815 46.9267 40.8749 47.0533 41.1829 47.0593H47.065C47.373 47.0533 47.6664 46.9267 47.8822 46.7067C48.0979 46.4868 48.2187 46.191 48.2187 45.8829C48.2187 45.5748 48.0979 45.279 47.8822 45.059C47.6664 44.839 47.373 44.7124 47.065 44.7064Z" fill="#0CB4C4"></path><path d="M29.4186 32.9422H23.5365C23.2284 32.9482 22.935 33.0748 22.7193 33.2947C22.5036 33.5147 22.3828 33.8105 22.3828 34.1186C22.3828 34.4267 22.5036 34.7225 22.7194 34.9425C22.9351 35.1625 23.2285 35.289 23.5365 35.295H29.4186C29.7266 35.289 30.02 35.1624 30.2358 34.9425C30.4515 34.7225 30.5723 34.4267 30.5723 34.1186C30.5723 33.8105 30.4515 33.5147 30.2358 33.2947C30.02 33.0748 29.7266 32.9482 29.4186 32.9422Z" fill="#0CB4C4"></path><path d="M29.4186 38.8243H23.5365C23.2284 38.8303 22.935 38.9569 22.7193 39.1769C22.5036 39.3969 22.3828 39.6927 22.3828 40.0008C22.3828 40.3089 22.5036 40.6047 22.7194 40.8246C22.9351 41.0446 23.2285 41.1712 23.5365 41.1772H29.4186C29.7266 41.1712 30.02 41.0446 30.2358 40.8246C30.4515 40.6046 30.5723 40.3088 30.5723 40.0007C30.5723 39.6926 30.4515 39.3968 30.2358 39.1769C30.02 38.9569 29.7266 38.8303 29.4186 38.8243Z" fill="#0CB4C4"></path><path d="M29.4186 44.7064H23.5365C23.2284 44.7125 22.935 44.839 22.7193 45.059C22.5036 45.279 22.3828 45.5748 22.3828 45.8829C22.3828 46.191 22.5036 46.4868 22.7194 46.7068C22.9351 46.9267 23.2285 47.0533 23.5365 47.0593H29.4186C29.7266 47.0533 30.02 46.9267 30.2358 46.7067C30.4515 46.4868 30.5723 46.191 30.5723 45.8829C30.5723 45.5748 30.4515 45.279 30.2358 45.059C30.02 44.839 29.7266 44.7124 29.4186 44.7064Z" fill="#0CB4C4"></path></svg>