<svg xmlns="http://www.w3.org/2000/svg" width="72" height="60" viewBox="0 0 72 60" fill="none"><path d="M64.5865 0H6.8421C3.08271 0 0 3.08271 0 6.84211V50.6767C0 54.4361 3.08271 57.5188 6.8421 57.5188H18.1955V55.4135H6.8421C4.21053 55.4135 2.10526 53.3083 2.10526 50.6767V14.5113H69.3233V50.7519C69.3233 53.3835 67.218 55.4887 64.5865 55.4887H53.1579V57.594H64.5113C68.2707 57.594 71.3534 54.5113 71.3534 50.7519V6.91729C71.4286 3.08271 68.3459 0 64.5865 0ZM2.10526 12.406V6.84211C2.10526 4.21053 4.21053 2.10526 6.8421 2.10526H64.5113C67.1429 2.10526 69.2481 4.21053 69.2481 6.84211V12.406H2.10526Z" fill="#0CB4C4"></path><path d="M64.1353 6.24072H46.6165C46.015 6.24072 45.5639 6.69185 45.5639 7.29335C45.5639 7.89486 46.015 8.34599 46.6165 8.34599H64.2105C64.812 8.34599 65.2632 7.89486 65.2632 7.29335C65.2632 6.69185 64.7368 6.24072 64.1353 6.24072Z" fill="#0CB4C4"></path><path d="M7.74438 5.33838C6.69175 5.33838 5.78949 6.24063 5.78949 7.29326C5.78949 8.3459 6.69175 9.24815 7.74438 9.24815C8.79701 9.24815 9.69926 8.3459 9.69926 7.29326C9.69926 6.24063 8.8722 5.33838 7.74438 5.33838Z" fill="#0CB4C4"></path><path d="M13.5338 9.24815C14.6135 9.24815 15.4887 8.37292 15.4887 7.29326C15.4887 6.21361 14.6135 5.33838 13.5338 5.33838C12.4542 5.33838 11.5789 6.21361 11.5789 7.29326C11.5789 8.37292 12.4542 9.24815 13.5338 9.24815Z" fill="#0CB4C4"></path><path d="M19.3233 9.24815C20.4029 9.24815 21.2782 8.37292 21.2782 7.29326C21.2782 6.21361 20.4029 5.33838 19.3233 5.33838C18.2436 5.33838 17.3684 6.21361 17.3684 7.29326C17.3684 8.37292 18.2436 9.24815 19.3233 9.24815Z" fill="#0CB4C4"></path><path d="M59.3985 48.1955C60.5263 46.767 60.9022 44.8873 60.4511 43.0828C59.9248 41.0527 58.3458 39.3986 56.3158 38.8722C55.1879 38.5715 53.9849 38.6467 52.9323 38.9474C52.3308 39.173 51.7293 39.3234 51.0526 39.4737V30.3008C51.0526 29.6993 50.6015 29.2482 50 29.2482H40.827C40.9774 28.5715 41.1278 27.97 41.3534 27.3685C41.7293 26.3158 41.7293 25.1128 41.4285 23.985C40.9022 21.9549 39.3233 20.376 37.218 19.8497C35.4135 19.3986 33.5338 19.7745 32.1052 20.9023C30.6767 22.0301 29.8496 23.6843 29.8496 25.564C29.8496 26.1655 29.9248 26.767 30.1503 27.3685C30.3759 27.97 30.5263 28.5715 30.6767 29.2482H21.3534C20.7519 29.2482 20.3007 29.6993 20.3007 30.3008V39.5489C19.624 39.3986 19.0225 39.2482 18.421 39.0226C17.3684 38.6467 16.1654 38.6467 15.0376 38.9474C13.0075 39.4737 11.3534 41.0527 10.9022 43.158C10.4511 44.9625 10.827 46.8422 11.9549 48.2707C13.0827 49.6993 14.7368 50.5264 16.6165 50.5264C17.218 50.5264 17.8195 50.4512 18.421 50.2256C19.0225 50.0001 19.624 49.8497 20.3007 49.6993V58.9474C20.3007 59.5489 20.7519 60.0001 21.3534 60.0001H31.8797C32.1804 60.0001 32.4812 59.8497 32.7067 59.6241C32.9323 59.3986 33.0075 59.0978 32.9323 58.7219C32.7067 57.4437 32.4812 56.4662 32.1804 55.4888C32.03 55.1128 32.03 54.7369 32.03 54.2858C32.03 53.0828 32.5564 52.0301 33.4586 51.2783C34.3609 50.5264 35.5639 50.3008 36.7669 50.6016C38.0451 50.9023 39.0977 51.9549 39.3985 53.2331C39.624 53.985 39.5488 54.7369 39.3233 55.4136C39.0225 56.391 38.7218 57.4437 38.4962 58.5715C38.421 58.8722 38.4962 59.173 38.7218 59.3986C38.9473 59.6241 39.2481 59.7745 39.5488 59.7745H50.0752C50.6767 59.7745 51.1278 59.3234 51.1278 58.7219V49.6993C51.8045 49.8497 52.4812 50.0001 53.0075 50.2256C53.609 50.4512 54.2105 50.5264 54.812 50.5264C56.6165 50.4512 58.3458 49.6241 59.3985 48.1955ZM53.609 48.1955C52.5564 47.8948 51.5037 47.594 50.1503 47.3685C49.8496 47.2933 49.5488 47.3685 49.3233 47.594C49.0977 47.8196 48.9473 48.1204 48.9473 48.4211V57.8948H40.827C40.9774 57.2933 41.1278 56.767 41.2782 56.2407C41.6541 55.188 41.6541 53.985 41.3534 52.8572C40.827 50.8271 39.2481 49.2482 37.1428 48.7219C35.3383 48.2707 33.4586 48.6467 32.03 49.7745C30.6015 50.9023 29.7744 52.5564 29.7744 54.4361C29.7744 55.0376 29.8496 55.6392 30.0752 56.2407C30.2255 56.767 30.3759 57.2933 30.5263 57.8948H22.406V48.4211C22.406 48.1204 22.2556 47.8196 22.03 47.594C21.8045 47.3685 21.5037 47.2933 21.203 47.3685C19.9248 47.594 18.797 47.8948 17.8195 48.1955C16.3158 48.6467 14.6616 48.1955 13.6842 46.9173C12.9323 46.0151 12.7067 44.8121 13.0075 43.6091C13.3082 42.3309 14.3609 41.2783 15.6391 40.9775C16.391 40.7519 17.1428 40.8271 17.8195 41.0527C18.8722 41.4286 20 41.6542 21.203 41.8798C21.5037 41.9549 21.8045 41.8798 22.03 41.6542C22.2556 41.4286 22.406 41.1279 22.406 40.8271V31.3534H31.9549C32.2556 31.3534 32.5564 31.2031 32.7819 30.9775C33.0075 30.7519 33.0827 30.4512 33.0075 30.1504C32.7819 28.8722 32.4812 27.7444 32.1804 26.6918C32.03 26.3158 32.03 25.9399 32.03 25.4888C32.03 24.2858 32.5564 23.2331 33.4586 22.4813C34.3609 21.7294 35.5639 21.5038 36.7669 21.8046C38.0451 22.1053 39.0977 23.1579 39.3985 24.4361C39.624 25.188 39.5488 25.9399 39.3233 26.6166C38.9473 27.6692 38.7218 28.797 38.4962 30.0752C38.421 30.376 38.4962 30.6767 38.7218 30.9023C38.9473 31.1279 39.2481 31.2783 39.5488 31.2783H49.0225V40.7519C49.0225 41.0527 49.1729 41.3534 49.3985 41.579C49.624 41.8046 49.9248 41.8798 50.2255 41.8046C51.5037 41.579 52.6316 41.3534 53.6842 40.9775C54.3609 40.7519 55.1128 40.7519 55.8646 40.9023C57.1428 41.2031 58.1955 42.2557 58.4962 43.5339C58.797 44.7369 58.5714 45.8647 57.8195 46.8422C56.8421 48.1955 55.1128 48.6467 53.609 48.1955Z" fill="#0CB4C4"></path></svg>