<svg width="65" height="60" viewBox="0 0 65 60" fill="none" xmlns="http://www.w3.org/2000/svg"><path d="M60.8399 0H3.92646C2.8851 0 1.88639 0.41368 1.15003 1.15003C0.41368 1.88639 0 2.8851 0 3.92646L0 45.9335C0 46.4492 0.101561 46.9598 0.298884 47.4361C0.496207 47.9125 0.785429 48.3454 1.15003 48.71C1.51464 49.0746 1.94749 49.3638 2.42387 49.5611C2.90025 49.7585 3.41083 49.86 3.92646 49.86H27.0299V53.5942H22.1319C21.1281 53.5942 20.1654 53.993 19.4556 54.7027C18.7459 55.4125 18.3471 56.3752 18.3471 57.379V58.988C18.3471 59.2564 18.4537 59.5138 18.6435 59.7036C18.8333 59.8934 19.0907 60 19.3591 60H45.4478C45.7162 60 45.9736 59.8934 46.1634 59.7036C46.3532 59.5138 46.4598 59.2564 46.4598 58.988V57.379C46.4571 56.3743 46.0561 55.4116 45.3447 54.7021C44.6333 53.9926 43.6696 53.5942 42.6649 53.5942H37.7366V49.86H60.8399C61.3556 49.86 61.8662 49.7585 62.3425 49.5611C62.8189 49.3638 63.2518 49.0746 63.6164 48.71C63.981 48.3454 64.2702 47.9125 64.4675 47.4361C64.6648 46.9598 64.7664 46.4492 64.7664 45.9335V3.92646C64.7664 3.41083 64.6648 2.90025 64.4675 2.42387C64.2702 1.94749 63.981 1.51464 63.6164 1.15003C63.2518 0.785429 62.8189 0.496207 62.3425 0.298884C61.8662 0.101561 61.3556 0 60.8399 0ZM42.6244 55.5574C43.1084 55.5574 43.5728 55.749 43.916 56.0903C44.2592 56.4317 44.4534 56.895 44.4561 57.379V58.0064H20.3002V57.379C20.3029 56.895 20.4971 56.4317 20.8403 56.0903C21.1835 55.749 21.6479 55.5574 22.1319 55.5574H42.6244ZM28.9931 53.5942V49.86H35.7733V53.5942H28.9931ZM62.8032 45.9335C62.8032 46.4542 62.5963 46.9536 62.2282 47.3218C61.86 47.6899 61.3606 47.8968 60.8399 47.8968H3.92646C3.40578 47.8968 2.90643 47.6899 2.53825 47.3218C2.17007 46.9536 1.96323 46.4542 1.96323 45.9335V40.9546H62.8032V45.9335ZM32.3124 27.9609C33.405 27.9476 34.4662 27.5938 35.3483 26.9489C35.8811 27.3 36.4392 27.6112 37.018 27.8799L38.5562 28.5782L39.6998 29.0943L40.226 29.3372C41.9767 30.1467 43.2619 30.7236 44.3953 32.5856C45.3009 34.614 45.8815 36.7723 46.1157 38.9813H18.6912C18.7528 37.7129 18.9634 36.4562 19.3186 35.237C19.5932 34.3075 19.9314 33.3979 20.3306 32.5148C21.2211 30.7843 22.476 30.2176 24.0648 29.4788L24.9755 29.0639L26.1191 28.5478L27.7079 27.8394C28.274 27.5802 28.8217 27.2827 29.3473 26.9489C30.2106 27.5783 31.2444 27.9311 32.3124 27.9609ZM27.6876 21.383C27.3476 20.3825 27.1733 19.3331 27.1715 18.2763C27.1347 17.208 27.3533 16.1464 27.8091 15.1796C28.2602 14.4032 28.9236 13.7716 29.7214 13.3593C30.5191 12.947 31.418 12.771 32.3124 12.8521C33.2062 12.7727 34.1042 12.9507 34.9003 13.3648C35.6964 13.779 36.3575 14.4122 36.8055 15.1897C37.2545 16.1373 37.4729 17.1776 37.4431 18.2257C37.4413 19.2824 37.267 20.3319 36.927 21.3324C36.49 22.7167 35.698 23.9623 34.6298 24.9452C34.3287 25.2571 33.9679 25.5051 33.5689 25.6745C33.1698 25.8439 32.7408 25.9312 32.3073 25.9312C31.8738 25.9312 31.4448 25.8439 31.0457 25.6745C30.6467 25.5051 30.2859 25.2571 29.9848 24.9452C28.9329 23.985 28.1424 22.7732 27.6876 21.4235V21.383ZM62.8032 38.9914H48.0486C47.8044 36.4178 47.1197 33.9053 46.0246 31.5635C44.84 29.6847 43.0578 28.2589 40.9647 27.5156L40.479 27.3132L39.3456 26.7971L37.8175 26.1191C37.4836 25.947 37.1496 25.7851 36.8055 25.5928C37.6749 24.5448 38.3407 23.3436 38.7688 22.0509C39.1728 20.8472 39.3812 19.5865 39.3861 18.3167C39.4255 16.9388 39.134 15.5716 38.536 14.3296C37.4127 12.1336 35.1965 10.9293 32.2921 10.9293C29.3878 10.9293 27.1614 12.1336 26.0381 14.3296C25.4412 15.5719 25.1498 16.939 25.1881 18.3167C25.1916 19.5874 25.4035 20.8489 25.8155 22.0509C26.2395 23.3453 26.9058 24.5473 27.7787 25.5928C27.4751 25.775 27.1614 25.9268 26.8173 26.0988L25.2488 26.8072L24.0951 27.3233L23.2046 27.7281C21.4944 28.4972 19.7234 29.2764 18.509 31.6445C18.0756 32.6313 17.7071 33.6454 17.406 34.6804C17.0082 36.0823 16.7739 37.5255 16.7077 38.9813H1.96323V3.92646C1.96323 3.66865 2.01401 3.41336 2.11267 3.17517C2.21134 2.93698 2.35595 2.72055 2.53825 2.53825C2.90643 2.17007 3.40578 1.96323 3.92646 1.96323H60.8399C61.0978 1.96323 61.353 2.01401 61.5912 2.11267C61.8294 2.21134 62.0459 2.35595 62.2282 2.53825C62.4105 2.72055 62.5551 2.93698 62.6537 3.17517C62.7524 3.41336 62.8032 3.66865 62.8032 3.92646V38.9914Z" fill="#0CB4C4"></path><path d="M34.1136 43.4439H30.6527C30.4339 43.4988 30.2396 43.6252 30.1009 43.803C29.9621 43.9808 29.8867 44.2 29.8867 44.4255C29.8867 44.6511 29.9621 44.8702 30.1009 45.0481C30.2396 45.2259 30.4339 45.3523 30.6527 45.4072H34.1136C34.2629 45.4446 34.4186 45.4474 34.5691 45.4156C34.7196 45.3838 34.8609 45.318 34.9822 45.2234C35.1035 45.1287 35.2016 45.0077 35.2691 44.8694C35.3365 44.7312 35.3716 44.5794 35.3716 44.4255C35.3716 44.2717 35.3365 44.1199 35.2691 43.9817C35.2016 43.8434 35.1035 43.7224 34.9822 43.6277C34.8609 43.5331 34.7196 43.4673 34.5691 43.4355C34.4186 43.4037 34.2629 43.4065 34.1136 43.4439Z" fill="#0CB4C4"></path><path d="M44.042 4.87753H41.006C40.8568 4.84013 40.701 4.83724 40.5505 4.86909C40.4 4.90094 40.2588 4.96668 40.1375 5.06132C40.0162 5.15595 39.9181 5.277 39.8506 5.41525C39.7831 5.55349 39.748 5.70531 39.748 5.85914C39.748 6.01298 39.7831 6.16479 39.8506 6.30304C39.9181 6.44129 40.0162 6.56233 40.1375 6.65697C40.2588 6.75161 40.4 6.81735 40.5505 6.8492C40.701 6.88104 40.8568 6.87816 41.006 6.84076H44.042C44.0792 6.84076 44.116 6.84809 44.1504 6.86233C44.1848 6.87657 44.216 6.89744 44.2423 6.92375C44.2686 6.95006 44.2895 6.9813 44.3037 7.01568C44.318 7.05006 44.3253 7.0869 44.3253 7.12411V10.0386C44.2879 10.1878 44.285 10.3436 44.3169 10.4941C44.3487 10.6446 44.4145 10.7859 44.5091 10.9072C44.6037 11.0284 44.7248 11.1266 44.863 11.194C45.0013 11.2615 45.1531 11.2966 45.3069 11.2966C45.4608 11.2966 45.6126 11.2615 45.7508 11.194C45.8891 11.1266 46.0101 11.0284 46.1048 10.9072C46.1994 10.7859 46.2651 10.6446 46.297 10.4941C46.3288 10.3436 46.3259 10.1878 46.2886 10.0386V7.12411C46.2886 6.52828 46.0519 5.95685 45.6305 5.53554C45.2092 5.11422 44.6378 4.87753 44.042 4.87753Z" fill="#0CB4C4"></path><path d="M23.7104 4.87744H20.7251C20.1293 4.87744 19.5578 5.11413 19.1365 5.53545C18.7152 5.95677 18.4785 6.52819 18.4785 7.12403V10.0385C18.5334 10.2573 18.6597 10.4516 18.8376 10.5903C19.0154 10.7291 19.2345 10.8045 19.4601 10.8045C19.6857 10.8045 19.9048 10.7291 20.0827 10.5903C20.2605 10.4516 20.3869 10.2573 20.4417 10.0385V7.12403C20.4417 7.04888 20.4716 6.9768 20.5247 6.92367C20.5779 6.87053 20.6499 6.84067 20.7251 6.84067H23.7104C23.9292 6.78583 24.1235 6.65945 24.2622 6.4816C24.401 6.30376 24.4764 6.08464 24.4764 5.85906C24.4764 5.63347 24.401 5.41436 24.2622 5.23651C24.1235 5.05866 23.9292 4.93228 23.7104 4.87744Z" fill="#0CB4C4"></path><path d="M45.306 20.5835C45.0376 20.5835 44.7802 20.6901 44.5905 20.8799C44.4007 21.0697 44.2941 21.3271 44.2941 21.5955V24.5201C44.2914 24.5935 44.2604 24.663 44.2076 24.7139C44.1547 24.7649 44.0841 24.7934 44.0107 24.7933H40.9748C40.8256 24.7559 40.6698 24.753 40.5193 24.7849C40.3688 24.8167 40.2275 24.8825 40.1062 24.9771C39.9849 25.0717 39.8868 25.1928 39.8194 25.331C39.7519 25.4693 39.7168 25.6211 39.7168 25.7749C39.7168 25.9288 39.7519 26.0806 39.8194 26.2188C39.8868 26.3571 39.9849 26.4781 40.1062 26.5728C40.2275 26.6674 40.3688 26.7331 40.5193 26.765C40.6698 26.7968 40.8256 26.7939 40.9748 26.7565H44.0107C44.6048 26.7566 45.1747 26.5212 45.5957 26.1021C46.0167 25.683 46.2546 25.1142 46.2573 24.5201V21.5651C46.2502 21.3122 46.1485 21.0711 45.9725 20.8894C45.7964 20.7077 45.5586 20.5986 45.306 20.5835Z" fill="#0CB4C4"></path><path d="M23.7104 24.7631H20.7251C20.6517 24.7632 20.5811 24.7347 20.5282 24.6837C20.4754 24.6328 20.4444 24.5633 20.4417 24.4899V21.5653C20.3869 21.3465 20.2605 21.1522 20.0827 21.0135C19.9048 20.8747 19.6857 20.7993 19.4601 20.7993C19.2345 20.7993 19.0154 20.8747 18.8376 21.0135C18.6597 21.1522 18.5334 21.3465 18.4785 21.5653V24.4899C18.4812 25.084 18.7191 25.6528 19.1401 26.0719C19.5611 26.491 20.131 26.7264 20.7251 26.7263H23.7104C23.9292 26.6715 24.1235 26.5451 24.2622 26.3673C24.401 26.1894 24.4764 25.9703 24.4764 25.7447C24.4764 25.5191 24.401 25.3 24.2622 25.1222C24.1235 24.9443 23.9292 24.818 23.7104 24.7631Z" fill="#0CB4C4"></path></svg>