<svg width="47" height="60" viewBox="0 0 47 60" fill="none" xmlns="http://www.w3.org/2000/svg"><path d="M4.69801 49.9108V52.5363H3.91101C3.05558 52.5363 2.23518 52.8761 1.6303 53.481C1.02541 54.0859 0.685592 54.9063 0.685592 55.7617V58.9871C0.679416 59.119 0.700306 59.2508 0.746976 59.3743C0.793646 59.4979 0.865109 59.6106 0.956964 59.7054C1.04882 59.8003 1.15912 59.8754 1.28108 59.926C1.40304 59.9767 1.53408 60.0018 1.66612 59.9999H34.6493C34.9059 59.9999 35.152 59.898 35.3335 59.7165C35.5149 59.535 35.6169 59.2889 35.6169 59.0323V55.8069C35.6169 54.9514 35.2771 54.131 34.6722 53.5261C34.0673 52.9212 33.2469 52.5814 32.3915 52.5814H31.5851V49.9108C31.5834 49.1414 31.277 48.404 30.733 47.86C30.189 47.316 29.4516 47.0096 28.6822 47.0079H27.921L18.5222 30.2357C19.5527 28.6615 20.1019 26.8211 20.1026 24.9396C20.1001 24.1048 19.9873 23.2741 19.7672 22.4689L27.3147 13.3668C27.8565 13.3384 28.3923 13.2386 28.908 13.07L33.1333 16.9728C32.9752 17.5178 32.8948 18.0825 32.8946 18.65C32.8912 19.7889 33.2063 20.9061 33.8042 21.8754L31.7786 24.03C31.625 24.1901 31.5319 24.3988 31.5154 24.6202C31.4989 24.8415 31.5601 25.0616 31.6883 25.2428L34.2687 28.9907C34.3576 29.1187 34.4762 29.2231 34.6144 29.2951C34.7527 29.367 34.9063 29.4042 35.0621 29.4036C35.2597 29.4048 35.4531 29.3464 35.6169 29.2358C35.7276 29.163 35.8222 29.0681 35.8947 28.9572C35.9673 28.8463 36.0163 28.7216 36.0386 28.5909C36.061 28.4603 36.0563 28.3264 36.0248 28.1977C35.9933 28.0689 35.9357 27.948 35.8556 27.8425L35.475 27.2812L33.7074 24.7396L35.0621 23.3075C35.5223 23.6971 36.0375 24.0166 36.591 24.2558C37.6345 24.7048 38.7825 24.8539 39.9061 24.6863C41.0297 24.5188 42.0843 24.0413 42.9515 23.3075L44.3062 24.7396L42.5386 27.2812L42.158 27.8425C42.0851 27.9466 42.0334 28.0642 42.006 28.1883C41.9785 28.3125 41.9758 28.4408 41.9979 28.566C42.0201 28.6913 42.0667 28.8109 42.1352 28.9181C42.2036 29.0252 42.2925 29.1179 42.3967 29.1907C42.5605 29.3012 42.7539 29.3597 42.9515 29.3584C43.1073 29.3591 43.2609 29.3218 43.3992 29.2499C43.5374 29.178 43.6561 29.0735 43.7449 28.9456L46.3253 25.1976C46.4535 25.0165 46.5147 24.7963 46.4982 24.575C46.4817 24.3537 46.3886 24.145 46.235 23.9849L44.2417 21.8303C44.8138 20.9022 45.1277 19.8382 45.1509 18.7483C45.1742 17.6583 44.9059 16.5819 44.3739 15.6303C43.8419 14.6787 43.0654 13.8865 42.1247 13.3354C41.1839 12.7844 40.1132 12.4946 39.0229 12.4959C38.7097 12.4985 38.397 12.5243 38.0876 12.5733L33.372 8.219C33.5895 7.30294 33.6108 6.35124 33.4345 5.42637C33.2582 4.5015 32.8883 3.62437 32.349 2.85258C31.8097 2.08078 31.1133 1.43176 30.3055 0.948136C29.4977 0.464508 28.5967 0.157205 27.6617 0.0463987C26.7267 -0.0644074 25.7789 0.02379 24.8804 0.305201C23.9819 0.586612 23.1531 1.05487 22.4484 1.67924C21.7437 2.30361 21.179 3.06997 20.7914 3.92802C20.4038 4.78606 20.202 5.71638 20.1994 6.6579L9.05878 15.302C7.20162 15.5452 5.45495 16.3221 4.03071 17.5385C2.60646 18.7549 1.56586 20.3586 1.03518 22.1548C0.504503 23.9511 0.50655 25.8627 1.04108 27.6579C1.5756 29.453 2.61963 31.0544 4.04648 32.2677L7.33641 47.0402C6.61767 47.103 5.94842 47.4323 5.4602 47.9635C4.97198 48.4947 4.70011 49.1893 4.69801 49.9108ZM39.0229 14.4312C39.8541 14.4299 40.6669 14.6753 41.3585 15.1362C42.0501 15.5972 42.5893 16.253 42.908 17.0206C43.2266 17.7882 43.3103 18.6331 43.1485 19.4484C42.9867 20.2636 42.5866 21.0124 41.9989 21.6001C41.4112 22.1878 40.6623 22.5879 39.8471 22.7498C39.0319 22.9116 38.1869 22.8279 37.4193 22.5092C36.6517 22.1906 35.9959 21.6513 35.5349 20.9597C35.074 20.2682 34.8286 19.4553 34.8299 18.6242C34.8316 17.5127 35.2739 16.4471 36.0599 15.6612C36.8459 14.8752 37.9114 14.4329 39.0229 14.4312ZM32.5721 10.1285L35.991 13.2958C35.1941 13.7465 34.5085 14.3704 33.9848 15.1214L30.7594 12.1153C31.4976 11.5831 32.1207 10.9073 32.5914 10.1285H32.5721ZM26.876 1.94234C27.8156 1.94106 28.7344 2.21859 29.5162 2.7398C30.2979 3.261 30.9075 4.00245 31.2676 4.87026C31.6278 5.73807 31.7223 6.69323 31.5394 7.61482C31.3564 8.53641 30.904 9.38298 30.2397 10.0474C29.5753 10.7117 28.7287 11.1641 27.8071 11.3471C26.8855 11.53 25.9304 11.4355 25.0626 11.0753C24.1947 10.7152 23.4533 10.1056 22.9321 9.32387C22.4109 8.54211 22.1334 7.62328 22.1346 6.6837C22.1363 5.42674 22.6364 4.22174 23.5252 3.33293C24.414 2.44413 25.619 1.94404 26.876 1.94234ZM20.5542 8.82538C20.9004 9.84135 21.4853 10.7594 22.2598 11.5025C23.0343 12.2456 23.9758 12.792 25.0053 13.0958L18.9673 20.3724C18.2789 19.0762 17.3062 17.9526 16.1221 17.0857C14.9379 16.2188 13.5729 15.6311 12.1294 15.3665L20.5542 8.82538ZM2.60149 24.9138C2.60149 23.3735 3.05831 21.8679 3.91415 20.5873C4.76999 19.3068 5.9864 18.3088 7.40951 17.7197C8.83262 17.1306 10.3985 16.9767 11.909 17.2777C13.4196 17.5787 14.8069 18.3209 15.8956 19.4104C16.9842 20.5 17.7253 21.8879 18.025 23.3987C18.3247 24.9095 18.1696 26.4753 17.5793 27.8979C16.989 29.3205 15.99 30.5361 14.7087 31.3909C13.4274 32.2456 11.9214 32.7012 10.3812 32.6999C8.3173 32.6982 6.33852 31.8772 4.87973 30.4171C3.42093 28.9571 2.60149 26.9777 2.60149 24.9138ZM6.35588 33.7514C8.1465 34.5714 10.1447 34.8254 12.0835 34.4796C14.0223 34.1338 15.8095 33.2046 17.2062 31.8162L25.7019 47.0079H9.31037L6.35588 33.7514ZM6.63327 49.8785C6.63326 49.623 6.73432 49.3779 6.91439 49.1966C7.09446 49.0153 7.33893 48.9126 7.59444 48.9109H28.6822C28.9389 48.9109 29.185 49.0128 29.3665 49.1943C29.5479 49.3758 29.6499 49.6219 29.6499 49.8785V52.504H6.63327V49.8785ZM30.6175 54.4393H32.3721C32.7143 54.4393 33.0424 54.5752 33.2844 54.8172C33.5264 55.0591 33.6623 55.3873 33.6623 55.7294V58.0646H2.60149V55.8069C2.60149 55.4647 2.73742 55.1365 2.97937 54.8946C3.22133 54.6526 3.54949 54.5167 3.89166 54.5167H30.5981L30.6175 54.4393ZM39.0036 21.7851C39.6415 21.7851 40.2651 21.596 40.7955 21.2415C41.3259 20.8871 41.7394 20.3834 41.9835 19.794C42.2276 19.2046 42.2915 18.5561 42.167 17.9305C42.0426 17.3048 41.7354 16.7301 41.2843 16.279C40.8332 15.8279 40.2585 15.5207 39.6328 15.3963C39.0072 15.2718 38.3586 15.3357 37.7693 15.5798C37.1799 15.8239 36.6762 16.2373 36.3217 16.7678C35.9673 17.2982 35.7782 17.9218 35.7782 18.5597C35.7739 18.9876 35.8548 19.4121 36.0162 19.8084C36.1776 20.2048 36.4162 20.565 36.7182 20.8682C37.0202 21.1714 37.3795 21.4115 37.7752 21.5744C38.1709 21.7374 38.595 21.82 39.0229 21.8174L39.0036 21.7851ZM39.0036 17.334C39.2509 17.3404 39.4909 17.4195 39.6934 17.5615C39.896 17.7036 40.0522 17.9022 40.1425 18.1325C40.2328 18.3628 40.2531 18.6147 40.201 18.8565C40.1489 19.0984 40.0266 19.3195 39.8495 19.4922C39.6723 19.6649 39.4482 19.7816 39.2051 19.8275C38.962 19.8735 38.7108 19.8468 38.4828 19.7507C38.2548 19.6546 38.0602 19.4935 37.9234 19.2873C37.7865 19.0812 37.7135 18.8394 37.7134 18.592C37.7301 18.2577 37.876 17.943 38.1203 17.7143C38.3647 17.4857 38.6883 17.3609 39.0229 17.3663L39.0036 17.334ZM10.3619 30.2357C11.4249 30.237 12.4645 29.9229 13.349 29.3333C14.2335 28.7436 14.9233 27.9048 15.331 26.923C15.7387 25.9412 15.846 24.8606 15.6394 23.8178C15.4328 22.775 14.9215 21.8169 14.1703 21.0648C13.419 20.3126 12.4615 19.8002 11.419 19.5923C10.3765 19.3845 9.29569 19.4905 8.31343 19.897C7.33116 20.3036 6.49155 20.9923 5.90081 21.8761C5.31007 22.7599 4.99475 23.7991 4.99475 24.8622C4.98792 25.5733 5.1223 26.2786 5.39009 26.9374C5.65789 27.5961 6.05377 28.1952 6.5548 28.6998C7.05583 29.2045 7.65204 29.6046 8.30887 29.8771C8.96571 30.1496 9.67009 30.2891 10.3812 30.2873L10.3619 30.2357ZM10.3619 21.4303C11.0424 21.429 11.7081 21.6298 12.2745 22.0071C12.8409 22.3844 13.2826 22.9213 13.5436 23.5499C13.8047 24.1784 13.8733 24.8702 13.7408 25.5378C13.6084 26.2054 13.2808 26.8186 12.7995 27.2999C12.3183 27.7811 11.7051 28.1087 11.0375 28.2412C10.3699 28.3736 9.67807 28.305 9.04954 28.044C8.42101 27.7829 7.88409 27.3412 7.50677 26.7748C7.12946 26.2084 6.92873 25.5427 6.93 24.8622C6.94527 23.9581 7.31601 23.0965 7.96195 22.4638C8.6079 21.8312 9.47705 21.4784 10.3812 21.4819L10.3619 21.4303ZM26.876 9.92202C27.5139 9.92202 28.1375 9.73286 28.6679 9.37844C29.1984 9.02403 29.6118 8.52029 29.8559 7.93092C30.1 7.34155 30.1639 6.69303 30.0394 6.06736C29.915 5.44169 29.6078 4.86697 29.1567 4.41589C28.7056 3.9648 28.1309 3.65761 27.5052 3.53316C26.8796 3.40871 26.2311 3.47258 25.6417 3.71671C25.0523 3.96083 24.5486 4.37424 24.1942 4.90466C23.8397 5.43507 23.6506 6.05868 23.6506 6.6966C23.6506 7.55204 23.9904 8.37244 24.5953 8.97732C25.2002 9.5822 26.0206 9.92202 26.876 9.92202ZM26.876 5.40644C27.1312 5.40644 27.3806 5.4821 27.5928 5.62387C27.8049 5.76563 27.9703 5.96713 28.068 6.20288C28.1656 6.43863 28.1912 6.69804 28.1414 6.9483C28.0916 7.19857 27.9687 7.42846 27.7883 7.60889C27.6079 7.78932 27.378 7.9122 27.1277 7.96198C26.8774 8.01176 26.618 7.98621 26.3823 7.88856C26.1465 7.79091 25.945 7.62555 25.8033 7.41338C25.6615 7.20122 25.5858 6.95178 25.5858 6.6966C25.5833 6.52556 25.6147 6.3557 25.6784 6.19693C25.7421 6.03816 25.8367 5.89364 25.9568 5.77178C26.0769 5.64992 26.22 5.55315 26.3778 5.48711C26.5356 5.42107 26.7049 5.38706 26.876 5.38708V5.40644ZM15.4 36.2544C15.2759 36.0294 15.2463 35.7643 15.3177 35.5175C15.3891 35.2707 15.5556 35.0624 15.7806 34.9384C16.0055 34.8143 16.2706 34.7848 16.5174 34.8561C16.7642 34.9275 16.9725 35.094 17.0965 35.319L21.7282 43.7502C21.8429 43.973 21.8673 44.2313 21.7964 44.4716C21.7255 44.7118 21.5648 44.9155 21.3476 45.0404C21.206 45.1207 21.046 45.1629 20.8832 45.163C20.7094 45.1621 20.5389 45.115 20.3893 45.0266C20.2397 44.9382 20.1163 44.8116 20.0317 44.6598L15.4 36.2544Z" fill="#0CB4C4"></path></svg>