<svg width="46" height="60" viewBox="0 0 46 60" fill="none" xmlns="http://www.w3.org/2000/svg"><path d="M44.4333 34.4107C44.9581 34.4107 45.4079 33.9858 45.4079 33.4361V29.8376C45.4079 29.3128 44.9831 28.863 44.4333 28.863H42.4092C40.285 21.491 34.2875 16.0433 26.9406 14.519V11.7201C26.9406 9.77093 25.5912 8.14661 23.7919 7.69679V6.7222H28.8148C29.2147 6.7222 29.5645 6.49729 29.7145 6.12245C29.8644 5.77259 29.7894 5.34777 29.5145 5.07289L27.9402 3.44856L29.5645 1.59933C29.8144 1.32445 29.8644 0.899625 29.7145 0.574761C29.5645 0.224906 29.2147 0 28.8398 0H22.8423C22.3175 0 21.8677 0.424823 21.8677 0.974594V7.69679C20.0185 8.12162 18.6441 9.77093 18.6441 11.7451V14.5939C11.2971 16.0683 5.27463 21.516 3.17551 28.888H1.15135C0.626571 28.888 0.176758 29.3128 0.176758 29.8626V33.4611C0.176758 33.9858 0.601581 34.4356 1.15135 34.4356H2.97559V54.4523H1.15135C0.626571 54.4523 0.176758 54.8771 0.176758 55.4269V59.0254C0.176758 59.5502 0.601581 60 1.15135 60H44.4333C44.9581 60 45.4079 59.5752 45.4079 59.0254V55.4269C45.4079 54.9021 44.9831 54.4523 44.4333 54.4523H42.6091V34.4356L44.4333 34.4107ZM23.7919 1.89921H26.6907L25.891 2.82382C25.5662 3.19867 25.5662 3.77343 25.916 4.12328L26.5158 4.74802H23.7919V1.89921ZM20.5683 14.2441V11.7201C20.5683 10.4956 21.5678 9.49604 22.7923 9.49604C24.0168 9.49604 25.0164 10.4956 25.0164 11.7201V14.2691C24.9414 14.2691 24.8665 14.2691 24.8165 14.2441C24.6915 14.2441 24.5666 14.2191 24.4416 14.2191C24.2167 14.1941 24.0168 14.1941 23.7919 14.1691C23.717 14.1691 23.642 14.1691 23.542 14.1691C23.2921 14.1691 23.0422 14.1441 22.7923 14.1441C22.5424 14.1441 22.2925 14.1441 22.0426 14.1691C21.9677 14.1691 21.8927 14.1691 21.7928 14.1691C21.5928 14.1691 21.3929 14.1941 21.168 14.2191C21.0181 14.2191 20.8931 14.2441 20.7432 14.2691C20.6932 14.2441 20.6182 14.2441 20.5683 14.2441ZM19.7436 16.3182C21.7678 15.9933 23.8169 15.9933 25.8411 16.3182H25.8661C32.6382 17.4427 38.2859 22.2657 40.41 28.888H5.19966C7.29879 22.2657 12.9464 17.4427 19.7436 16.3182ZM2.10096 30.8372H3.90021H41.6595H43.4587V32.4865H41.6345H36.9115H32.1884H27.4654H22.7424H18.0193H13.3713H8.64823H3.9252H2.10096V30.8372ZM28.465 54.4273V34.4107H31.2388V54.4273H28.465ZM23.7419 54.4273V34.4107H26.5158V54.4273H23.7419ZM19.0439 54.4273V34.4107H21.8177V54.4273H19.0439ZM14.3209 54.4273V34.4107H17.0947V54.4273H14.3209ZM9.62282 54.4273V34.4107H12.3967V54.4273H9.62282ZM33.163 34.4107H35.9369V54.4273H33.163V34.4107ZM4.89979 34.4107H7.67363V54.4273H4.89979V34.4107ZM43.4587 58.0008H2.10096V56.3515H3.9252H8.64823H13.3713H18.0943H22.8173H27.5404H32.2634H36.9115H41.6345H43.4587V58.0008ZM40.6599 54.4273H37.886V34.4107H40.6599V54.4273Z" fill="#0CB4C4"></path></svg>