<svg width="61" height="60" viewBox="0 0 61 60" fill="none" xmlns="http://www.w3.org/2000/svg"><path d="M59.6801 58.441H56.8262V34.9394C56.8262 34.5086 56.4774 34.1599 56.0473 34.1599H48.6645C48.2344 34.1599 47.8856 34.5086 47.8856 34.9394V58.441H42.2298V40.6286C42.2298 40.1978 41.881 39.8491 41.4509 39.8491H34.0674C33.6373 39.8491 33.2885 40.1978 33.2885 40.6286V58.441H27.632V34.9394C27.632 34.5086 27.2833 34.1599 26.8532 34.1599H19.4703C19.0402 34.1599 18.6915 34.5086 18.6915 34.9394V58.441H13.0343V40.6286C13.0343 40.1978 12.6855 39.8491 12.2554 39.8491H4.87254C4.44244 39.8491 4.0937 40.1978 4.0937 40.6286V58.441H1.23977C0.809678 58.441 0.460938 58.7897 0.460938 59.2205C0.460938 59.6513 0.809678 60 1.23977 60H4.87254H12.2548H19.4703H26.8525H34.0674H41.4503H48.6645H56.0473H59.6801C60.1102 60 60.4589 59.6513 60.4589 59.2205C60.4589 58.7897 60.1102 58.441 59.6801 58.441ZM5.65137 58.441V41.4074H11.4753V58.4403L5.65137 58.441ZM20.2491 58.441V35.7189H26.0737V58.441H20.2491ZM34.8469 58.441V41.4074H40.6714V58.4403L34.8469 58.441ZM49.4439 58.441V35.7189H55.2685V58.441H49.4439ZM19.617 23.0629L11.0258 29.1075C10.3824 28.5007 9.51885 28.1219 8.56398 28.1219C6.5849 28.1219 4.97389 29.7236 4.97389 31.692C4.97389 33.6611 6.58423 35.2628 8.56398 35.2628C10.5431 35.2628 12.1527 33.6604 12.1527 31.692C12.1527 31.2346 12.0581 30.7998 11.8994 30.3978L19.8324 24.8159C20.3611 26.1329 21.6507 27.0691 23.1617 27.0691C24.1779 27.0691 25.0915 26.643 25.7449 25.9662L34.2147 31.2453C34.1961 31.3933 34.1694 31.5393 34.1694 31.6927C34.1694 33.6611 35.7791 35.2628 37.7588 35.2628C39.5852 35.2628 41.0802 33.8938 41.3029 32.1368L50.0541 26.2155C50.6789 26.7403 51.4757 27.0697 52.3559 27.0697C54.3356 27.0697 55.9453 25.468 55.9453 23.499C55.9453 21.5299 54.3356 19.9282 52.3559 19.9282C50.3768 19.9282 48.7665 21.5299 48.7665 23.499C48.7665 24.0284 48.8905 24.5272 49.0992 24.9799L41.0935 30.3964C40.5701 29.0681 39.2765 28.1219 37.7575 28.1219C36.5005 28.1219 35.3963 28.7707 34.7548 29.7469L26.5471 24.6312C26.6685 24.2731 26.7492 23.897 26.7492 23.499C26.7492 21.5299 25.1395 19.9282 23.1597 19.9282C21.3327 19.9282 19.8357 21.3012 19.617 23.0629ZM52.3566 21.4872C53.4768 21.4872 54.3877 22.3894 54.3877 23.499C54.3877 24.6085 53.4761 25.5107 52.3566 25.5107C51.2363 25.5107 50.3255 24.6079 50.3255 23.499C50.3255 22.3894 51.2363 21.4872 52.3566 21.4872ZM37.7588 29.6809C38.879 29.6809 39.7899 30.5838 39.7899 31.6927C39.7899 32.8016 38.8784 33.7044 37.7588 33.7044C36.6386 33.7044 35.7277 32.8023 35.7277 31.6927C35.7277 30.5838 36.6392 29.6809 37.7588 29.6809ZM8.56398 33.7051C7.44375 33.7051 6.53222 32.8023 6.53222 31.6927C6.53222 30.5838 7.44375 29.6809 8.56398 29.6809C9.68355 29.6809 10.5944 30.5831 10.5944 31.6927C10.5944 32.8023 9.68355 33.7051 8.56398 33.7051ZM23.1617 21.4872C24.282 21.4872 25.1928 22.3894 25.1928 23.499C25.1928 24.6085 24.2813 25.5107 23.1617 25.5107C22.0415 25.5107 21.1306 24.6079 21.1306 23.499C21.1306 22.3894 22.0422 21.4872 23.1617 21.4872ZM0.468939 10.5756C0.501612 16.3461 5.20327 21.0318 10.9818 21.0318C16.7597 21.0318 21.462 16.3461 21.494 10.5756C21.4974 10.5356 21.4974 10.4969 21.494 10.4575C21.462 4.68632 16.7597 0 10.9812 0C5.20194 0 0.500279 4.68632 0.468272 10.4575C0.465605 10.4969 0.465605 10.5356 0.468939 10.5756ZM10.9818 6.9608C12.9422 6.9608 14.5366 8.55514 14.5366 10.5156C14.5366 12.476 12.9422 14.0703 10.9818 14.0703C9.02141 14.0703 7.42708 12.476 7.42708 10.5156C7.42708 8.55581 9.02141 6.9608 10.9818 6.9608ZM14.6013 6.90813C16.6964 7.58827 18.5274 8.83787 19.773 10.5162C18.5274 12.1946 16.6957 13.4442 14.6006 14.1243C15.5235 13.1988 16.0949 11.9232 16.0949 10.5162C16.0949 9.10926 15.5241 7.83365 14.6013 6.90813ZM7.36306 14.1243C5.26795 13.4442 3.43623 12.1946 2.18997 10.5162C3.43557 8.83787 5.26729 7.58827 7.3624 6.90813C6.4402 7.83365 5.86875 9.10926 5.86875 10.5162C5.86875 11.9232 6.4402 13.1988 7.36306 14.1243ZM10.9818 19.4728C6.9183 19.4728 3.48358 16.7509 2.39135 13.0368C4.63115 15.0665 7.72447 16.2628 10.9812 16.2628C14.2385 16.2628 17.3318 15.0665 19.5716 13.0368C18.4801 16.7509 15.0454 19.4728 10.9818 19.4728ZM10.9818 1.55833C15.0454 1.55833 18.4801 4.2809 19.5723 7.99569C17.3325 5.96526 14.2392 4.76901 10.9818 4.76901C7.72447 4.76901 4.63115 5.96526 2.39135 7.99569C3.48358 4.2809 6.9183 1.55833 10.9818 1.55833ZM60.4596 5.06507C60.4596 5.49583 60.1109 5.84457 59.6808 5.84457H39.7926C39.3625 5.84457 39.0137 5.49583 39.0137 5.06507C39.0137 4.63431 39.3625 4.28557 39.7926 4.28557H59.6801C60.1102 4.28557 60.4596 4.63498 60.4596 5.06507ZM33.2885 5.06507C33.2885 4.63431 33.6373 4.28557 34.0674 4.28557H35.725C36.1551 4.28557 36.5039 4.63431 36.5039 5.06507C36.5039 5.49583 36.1551 5.84457 35.725 5.84457H34.0674C33.6373 5.84457 33.2885 5.49583 33.2885 5.06507ZM33.2885 9.35064C33.2885 8.91988 33.6373 8.57114 34.0674 8.57114H35.725C36.1551 8.57114 36.5039 8.91988 36.5039 9.35064C36.5039 9.7814 36.1551 10.1301 35.725 10.1301H34.0674C33.6373 10.1301 33.2885 9.7814 33.2885 9.35064ZM60.4596 9.35064C60.4596 9.7814 60.1109 10.1301 59.6808 10.1301H39.7926C39.3625 10.1301 39.0137 9.7814 39.0137 9.35064C39.0137 8.91988 39.3625 8.57114 39.7926 8.57114H59.6801C60.1102 8.57114 60.4596 8.91988 60.4596 9.35064ZM60.4596 13.6362C60.4596 14.067 60.1109 14.4157 59.6808 14.4157H39.7926C39.3625 14.4157 39.0137 14.067 39.0137 13.6362C39.0137 13.2055 39.3625 12.8567 39.7926 12.8567H59.6801C60.1102 12.8574 60.4596 13.2061 60.4596 13.6362ZM33.2885 13.6362C33.2885 13.2055 33.6373 12.8567 34.0674 12.8567H35.725C36.1551 12.8567 36.5039 13.2055 36.5039 13.6362C36.5039 14.067 36.1551 14.4157 35.725 14.4157H34.0674C33.6373 14.4157 33.2885 14.067 33.2885 13.6362ZM33.2885 0.779498C33.2885 0.34874 33.6373 0 34.0674 0H35.725C36.1551 0 36.5039 0.34874 36.5039 0.779498C36.5039 1.21026 36.1551 1.559 35.725 1.559H34.0674C33.6373 1.559 33.2885 1.21026 33.2885 0.779498ZM39.0137 0.779498C39.0137 0.34874 39.3625 0 39.7926 0H59.6801C60.1102 0 60.4589 0.34874 60.4589 0.779498C60.4589 1.21026 60.1102 1.559 59.6801 1.559H39.7926C39.3625 1.559 39.0137 1.21026 39.0137 0.779498Z" fill="#0CB4C4"></path></svg>