<svg width="61" height="60" viewBox="0 0 61 60" fill="none" xmlns="http://www.w3.org/2000/svg"><path d="M30.6643 39.2628C32.8719 39.2639 35.01 38.4914 36.707 37.0796C36.838 36.9696 36.9203 36.8124 36.9361 36.6421C36.9519 36.4718 36.9 36.3022 36.7915 36.17C36.7689 36.1446 36.7426 36.1227 36.7135 36.105C36.5963 36.006 36.4478 35.9518 36.2944 35.9518C36.141 35.9518 35.9926 36.006 35.8753 36.105C35.2699 36.5986 34.5957 37.0013 33.8741 37.3005C35.1574 35.2524 35.8334 32.8821 35.8234 30.4651H38.7667C38.6635 31.7819 38.2397 33.0534 37.5322 34.1687C37.4517 34.3002 37.4205 34.4561 37.4443 34.6085C37.4681 34.7608 37.5453 34.8998 37.6622 35.0004C37.6622 35.0004 37.7011 35.0524 37.7336 35.0654C37.8057 35.111 37.8861 35.1421 37.9702 35.1566C38.0543 35.1712 38.1404 35.1691 38.2237 35.1504C38.307 35.1317 38.3857 35.0968 38.4555 35.0476C38.5252 34.9985 38.5847 34.9361 38.6303 34.864C39.7518 33.0916 40.2521 30.9966 40.0523 28.9087C39.8526 26.8208 38.9643 24.8586 37.5271 23.331C36.0899 21.8033 34.1855 20.797 32.1137 20.4703C30.0419 20.1437 27.9203 20.5153 26.0828 21.5267C24.2453 22.538 22.7964 24.1317 21.9639 26.0568C21.1315 27.982 20.9629 30.1293 21.4847 32.1608C22.0065 34.1923 23.189 35.9925 24.8462 37.2783C26.5033 38.564 28.5409 39.2621 30.6383 39.2628H30.6643ZM38.7862 29.1656H35.8234C35.8349 26.7423 35.159 24.3654 33.8741 22.3107C35.239 22.8984 36.4178 23.8472 37.2833 25.0552C38.1489 26.2631 38.6685 27.6843 38.7862 29.1656ZM31.3141 21.7844C33.0359 22.4342 34.4069 25.488 34.5628 29.1656H31.3141V21.7844ZM31.3141 30.4651H34.5628C34.4199 34.1362 33.0489 37.2031 31.3141 37.8398V30.4651ZM30.0146 37.8398C28.2992 37.1901 26.9283 34.1362 26.7658 30.4651H30.0146V37.8398ZM27.4675 22.3172L27.2401 22.6356C27.1945 22.7077 27.1635 22.7881 27.1489 22.8722C27.1343 22.9563 27.1364 23.0424 27.1551 23.1257C27.1738 23.2089 27.2087 23.2877 27.2579 23.3575C27.307 23.4272 27.3694 23.4866 27.4416 23.5323C27.49 23.5602 27.5426 23.58 27.5975 23.5908C27.7324 23.6341 27.8778 23.6322 28.0115 23.5853C28.1453 23.5384 28.26 23.449 28.3382 23.3309C28.7211 22.6524 29.3075 22.1115 30.0146 21.7844V29.1656H26.7658C26.7658 28.7758 26.8048 28.3859 26.8503 28.0091C26.8644 27.8604 26.8269 27.7114 26.7441 27.5872C26.6612 27.4629 26.5381 27.371 26.3955 27.3268L26.2915 27.2943C26.2066 27.2844 26.1205 27.2913 26.0383 27.3147C25.956 27.338 25.8792 27.3774 25.8122 27.4305C25.7452 27.4836 25.6893 27.5495 25.6478 27.6242C25.6063 27.699 25.58 27.7812 25.5703 27.8661C25.5248 28.295 25.4988 28.7303 25.4793 29.1656H22.5424C22.6624 27.684 23.1845 26.2632 24.0524 25.0564C24.9203 23.8496 26.1011 22.9025 27.4675 22.3172ZM25.4793 30.4651C25.4822 32.8908 26.174 35.2657 27.474 37.3135C26.1068 36.7286 24.9251 35.7818 24.056 34.575C23.187 33.3683 22.6637 31.9473 22.5424 30.4651H25.4793Z" fill="#0CB4C4"></path><path d="M26.4335 26.4889C26.4875 26.4953 26.542 26.4953 26.596 26.4889H26.674C26.8028 26.474 26.9243 26.4209 27.0228 26.3364C27.1212 26.2518 27.1921 26.1398 27.2262 26.0146C27.3172 25.6702 27.4212 25.3648 27.5316 25.014C27.5748 24.8964 27.5831 24.7688 27.5554 24.6466C27.5277 24.5244 27.4653 24.4128 27.3757 24.3252C27.3112 24.2664 27.2363 24.2201 27.1548 24.1888C27.0742 24.16 26.9886 24.1474 26.9031 24.1517C26.8176 24.1561 26.7338 24.1772 26.6565 24.2141C26.5793 24.2509 26.51 24.3027 26.4528 24.3663C26.3956 24.43 26.3515 24.5044 26.3231 24.5851C26.1931 24.936 26.0827 25.3129 25.9787 25.6962C25.9349 25.8616 25.9581 26.0376 26.0432 26.186C26.1284 26.3345 26.2686 26.4433 26.4335 26.4889Z" fill="#0CB4C4"></path><path d="M55.6664 15.2288C54.7456 15.2319 53.8446 15.4954 53.0673 15.989L46.6283 8.25691C47.1718 7.6687 47.5634 6.95668 47.7692 6.18271C47.9749 5.40874 47.9886 4.59623 47.809 3.81578C47.6294 3.03533 47.2619 2.31054 46.7385 1.70439C46.2151 1.09824 45.5516 0.62906 44.8056 0.337615C44.0597 0.0461697 43.2539 -0.0587248 42.4582 0.032045C41.6625 0.122815 40.901 0.406503 40.2399 0.858463C39.5787 1.31042 39.0379 1.91698 38.6645 2.62544C38.2911 3.3339 38.0963 4.12283 38.097 4.92368C38.097 5.07312 38.097 5.22257 38.097 5.36551L28.7341 7.48371C28.3846 6.54471 27.7562 5.73507 26.9334 5.16338C26.1105 4.59169 25.1326 4.2853 24.1306 4.2853C23.1287 4.2853 22.1507 4.59169 21.3279 5.16338C20.505 5.73507 19.8767 6.54471 19.5271 7.48371L10.554 5.3915C10.554 5.23556 10.554 5.07962 10.554 4.92368C10.555 3.96256 10.2744 3.0222 9.74685 2.2188C9.21929 1.41541 8.46791 0.784181 7.58555 0.403114C6.7032 0.0220481 5.72853 -0.0921574 4.78198 0.0746095C3.83543 0.241376 2.95849 0.681808 2.25949 1.34148C1.5605 2.00116 1.07009 2.85117 0.848865 3.78649C0.627639 4.72181 0.685289 5.70145 1.01469 6.60437C1.34409 7.50728 1.93081 8.29391 2.70236 8.86704C3.4739 9.44018 4.39645 9.77472 5.35603 9.82931L6.83746 27.2947C5.62719 27.529 4.54906 28.2093 3.81653 29.2008C3.08401 30.1923 2.75051 31.4228 2.88207 32.6485C3.01363 33.8742 3.60065 35.0058 4.52691 35.8193C5.45317 36.6328 6.65112 37.0687 7.88356 37.0409C8.14721 37.0399 8.41026 37.016 8.66976 36.9695L11.3662 45.9296C10.5606 46.294 9.86815 46.8688 9.36168 47.5936C8.85522 48.3184 8.55349 49.1663 8.48825 50.0481C8.42301 50.9299 8.59667 51.8129 8.99096 52.6043C9.38525 53.3958 9.98559 54.0663 10.7288 54.5453C11.472 55.0243 12.3306 55.2941 13.2142 55.3263C14.0978 55.3586 14.9738 55.152 15.7499 54.7284C16.526 54.3048 17.1736 53.6798 17.6245 52.9192C18.0754 52.1586 18.3129 51.2905 18.3121 50.4063C18.322 50.2332 18.322 50.0597 18.3121 49.8865L36.9275 45.3383L39.416 50.8937C38.5487 51.428 37.8687 52.2184 37.4699 53.1558C37.0711 54.0932 36.9732 55.1313 37.1897 56.1267C37.4062 57.1221 37.9264 58.0258 38.6785 58.7128C39.4306 59.3999 40.3775 59.8365 41.3884 59.9623C42.3993 60.0882 43.4243 59.897 44.3219 59.4153C45.2195 58.9335 45.9454 58.185 46.3993 57.273C46.8532 56.361 47.0128 55.3306 46.8559 54.3241C46.6991 53.3175 46.2336 52.3845 45.5237 51.6539L50.8842 44.8769C51.633 45.3307 52.4907 45.5732 53.3662 45.5787C54.5645 45.5752 55.7203 45.1345 56.6167 44.3392C57.513 43.5438 58.0881 42.4487 58.2341 41.2593C58.3801 40.0699 58.0869 38.8681 57.4095 37.8797C56.7321 36.8912 55.7172 36.184 54.5553 35.8909L55.7638 25.0595C57.0373 25.0023 58.2388 24.453 59.1151 23.5272C59.9914 22.6015 60.4741 21.3717 60.4615 20.0971C60.4489 18.8224 59.9419 17.6024 59.0473 16.6943C58.1528 15.7861 56.9407 15.2607 55.6664 15.2288ZM52.0667 16.8206C51.2282 17.7251 50.7638 18.914 50.7672 20.1474C50.7679 20.533 50.8159 20.917 50.9102 21.2909L48.7075 22.1421L44.9974 9.42646C45.2215 9.32891 45.4386 9.21602 45.6472 9.08859L52.0667 16.8206ZM51.3585 22.506C51.6876 23.1008 52.1354 23.6217 52.6742 24.0364C53.2129 24.451 53.831 24.7506 54.4903 24.9166L53.2623 35.7414C53.0448 35.7442 52.8277 35.7615 52.6125 35.7934L49.0454 23.3961L51.3585 22.506ZM17.0516 30.5434L12.6657 30.9917C12.4399 30.0474 11.9404 29.1908 11.2298 28.5292L18.3381 18.4905L20.5602 20.7127C18.2854 23.1968 17.0202 26.4409 17.0126 29.8092C17.0126 30.0691 17.0386 30.303 17.0516 30.5434ZM19.0983 17.4184L21.8402 13.5199C22.5445 13.8936 23.3301 14.0877 24.1274 14.0852C24.4083 14.0845 24.6886 14.0606 24.9656 14.0137L25.9272 17.0676C24.2848 17.6724 22.7754 18.5904 21.4829 19.7705L19.0983 17.4184ZM30.6249 17.5484C33.0539 17.5535 35.4269 18.2785 37.444 19.6317C39.4611 20.9849 41.0319 22.9056 41.9579 25.1512C42.8839 27.3968 43.1235 29.8664 42.6465 32.2481C42.1694 34.6298 40.9972 36.8167 39.2778 38.5324C37.5584 40.2482 35.3691 41.4158 32.9864 41.8878C30.6037 42.3598 28.1346 42.1149 25.891 41.1842C23.6474 40.2535 21.7299 38.6787 20.381 36.6587C19.0321 34.6387 18.3121 32.2642 18.3121 29.8352C18.3173 26.5736 19.617 23.4475 21.9257 21.1436C24.2344 18.8398 27.3633 17.5466 30.6249 17.5484ZM37.2524 17.9837L41.4498 9.57591C41.9623 9.75107 42.5 9.84106 43.0417 9.84231C43.2876 9.84247 43.5331 9.82291 43.7759 9.78383L47.46 22.6164L43.0092 24.3318C41.815 21.6485 39.7869 19.4222 37.2264 17.9837H37.2524ZM43.0157 1.30456C43.7315 1.30456 44.4312 1.51682 45.0263 1.91449C45.6215 2.31217 46.0854 2.8774 46.3593 3.5387C46.6332 4.20001 46.7049 4.9277 46.5653 5.62974C46.4256 6.33178 46.0809 6.97664 45.5748 7.48279C45.0686 7.98893 44.4238 8.33362 43.7217 8.47326C43.0197 8.61291 42.292 8.54123 41.6307 8.26731C40.9694 7.99339 40.4042 7.52952 40.0065 6.93436C39.6088 6.33919 39.3966 5.63948 39.3966 4.92368C39.3983 3.96436 39.7801 3.04482 40.4585 2.36647C41.1368 1.68813 42.0563 1.30628 43.0157 1.30456ZM29.0265 8.75072L38.4219 6.63253C38.7767 7.59513 39.4243 8.42229 40.2737 8.99763L36.0633 17.4054C34.351 16.6448 32.4985 16.2508 30.6249 16.2489C29.4667 16.2543 28.3138 16.4071 27.1942 16.7037L26.2066 13.6499C27.0545 13.2535 27.7719 12.6237 28.2748 11.8343C28.7776 11.0449 29.0452 10.1285 29.046 9.19255C29.046 9.04311 29.0395 8.90016 29.0265 8.75072ZM24.1274 5.57343C24.8432 5.57343 25.5429 5.78569 26.138 6.18337C26.7332 6.58104 27.1971 7.14627 27.471 7.80758C27.7449 8.46888 27.8166 9.19657 27.677 9.89861C27.5373 10.6006 27.1926 11.2455 26.6865 11.7517C26.1803 12.2578 25.5355 12.6025 24.8334 12.7421C24.1314 12.8818 23.4037 12.8101 22.7424 12.5362C22.0811 12.2623 21.5159 11.7984 21.1182 11.2032C20.7205 10.6081 20.5083 9.90835 20.5083 9.19255C20.51 8.23323 20.8918 7.31369 21.5702 6.63535C22.2485 5.957 23.168 5.57515 24.1274 5.57343ZM10.2552 6.65202L19.2282 8.73123C19.2282 8.88067 19.2282 9.03661 19.2282 9.19255C19.2286 9.86845 19.3684 10.537 19.639 11.1564C19.9095 11.7758 20.305 12.3326 20.8006 12.7922L18.2016 16.4893L9.55992 7.90604C9.85405 7.52579 10.0885 7.10293 10.2552 6.65202ZM2.03579 4.92368C2.03579 4.20789 2.24805 3.50817 2.64572 2.91301C3.0434 2.31784 3.60863 1.85397 4.26994 1.58005C4.93124 1.30613 5.65893 1.23446 6.36097 1.3741C7.06301 1.51375 7.70787 1.85843 8.21402 2.36458C8.72016 2.87072 9.06485 3.51559 9.20449 4.21763C9.34414 4.91967 9.27247 5.64735 8.99854 6.30866C8.72462 6.96997 8.26075 7.5352 7.66559 7.93287C7.07043 8.33054 6.37071 8.5428 5.65491 8.5428C4.69559 8.54108 3.77605 8.15923 3.09771 7.48089C2.41936 6.80254 2.03751 5.883 2.03579 4.92368ZM6.70101 9.75134C7.41048 9.59731 8.0765 9.2865 8.65027 8.84169L17.4024 17.5484L10.1707 27.769C9.53984 27.4362 8.84302 27.2476 8.13047 27.2167L6.70101 9.75134ZM7.88356 35.7414C7.16777 35.7414 6.46805 35.5292 5.87289 35.1315C5.27773 34.7338 4.81385 34.1686 4.53993 33.5073C4.26601 32.846 4.19434 32.1183 4.33398 31.4163C4.47363 30.7142 4.81832 30.0694 5.32446 29.5632C5.8306 29.0571 6.47547 28.7124 7.17751 28.5727C7.87955 28.4331 8.60723 28.5048 9.26854 28.7787C9.92985 29.0526 10.4951 29.5165 10.8928 30.1116C11.2904 30.7068 11.5027 31.4065 11.5027 32.1223C11.501 33.0816 11.1191 34.0012 10.4408 34.6795C9.76243 35.3579 8.84289 35.7397 7.88356 35.7414ZM9.91079 36.5991C10.747 36.2199 11.4604 35.6143 11.9703 34.8507C12.4801 34.087 12.766 33.196 12.7957 32.2783L17.175 31.8429C17.6329 34.9074 19.1256 37.723 21.4049 39.8219L16.0185 46.2674C15.2416 45.7723 14.3407 45.5065 13.4195 45.5007C13.1579 45.5013 12.897 45.5253 12.6397 45.5722L9.91079 36.5991ZM13.3935 54.0255C12.6777 54.0255 11.9779 53.8132 11.3828 53.4155C10.7876 53.0179 10.3238 52.4526 10.0498 51.7913C9.77591 51.13 9.70424 50.4023 9.84388 49.7003C9.98353 48.9982 10.3282 48.3534 10.8344 47.8472C11.3405 47.3411 11.9854 46.9964 12.6874 46.8568C13.3894 46.7171 14.1171 46.7888 14.7784 47.0627C15.4397 47.3366 16.005 47.8005 16.4027 48.3957C16.8003 48.9908 17.0126 49.6905 17.0126 50.4063C17.0109 51.3657 16.629 52.2852 15.9507 52.9635C15.2723 53.6419 14.3528 54.0237 13.3935 54.0255ZM17.9742 48.6195C17.7518 48.053 17.4257 47.533 17.0126 47.0861L22.399 40.6406C24.2542 42.0631 26.4477 42.9783 28.7637 43.2961C31.0798 43.614 33.4387 43.3235 35.6085 42.4534L36.3622 44.1362L17.9742 48.6195ZM36.817 41.9141C39.7132 40.4437 41.9832 37.9799 43.2121 34.9734C44.441 31.9668 44.5466 28.6183 43.5095 25.5403L47.8498 23.864L51.417 36.1638C50.5438 36.5473 49.8012 37.1766 49.2797 37.975C48.7581 38.7734 48.4803 39.7064 48.4801 40.6601C48.4704 40.8354 48.4704 41.0111 48.4801 41.1864L37.6487 43.8244L36.817 41.9141ZM45.5692 55.0781C45.5692 55.7939 45.3569 56.4936 44.9593 57.0887C44.5616 57.6839 43.9964 58.1478 43.3351 58.4217C42.6737 58.6956 41.9461 58.7673 41.244 58.6276C40.542 58.488 39.8971 58.1433 39.391 57.6372C38.8848 57.131 38.5401 56.4862 38.4005 55.7841C38.2609 55.0821 38.3325 54.3544 38.6064 53.6931C38.8804 53.0318 39.3442 52.4665 39.9394 52.0689C40.5346 51.6712 41.2343 51.4589 41.9501 51.4589C42.9094 51.4607 43.8289 51.8425 44.5073 52.5209C45.1856 53.1992 45.5675 54.1187 45.5692 55.0781ZM44.4581 50.8547C43.7011 50.3986 42.8338 50.1582 41.9501 50.1594C41.4772 50.1593 41.0067 50.2272 40.5531 50.3609L38.1685 45.0329L48.766 42.4339C49.0036 43.0428 49.3616 43.5974 49.8186 44.0648L44.4581 50.8547ZM56.9853 40.6601C56.9853 41.3759 56.7731 42.0756 56.3754 42.6707C55.9777 43.2659 55.4125 43.7298 54.7512 44.0037C54.0899 44.2776 53.3622 44.3493 52.6602 44.2096C51.9581 44.07 51.3133 43.7253 50.8071 43.2192C50.301 42.713 49.9563 42.0682 49.8166 41.3661C49.677 40.6641 49.7487 39.9364 50.0226 39.2751C50.2965 38.6138 50.7604 38.0485 51.3555 37.6509C51.9507 37.2532 52.6504 37.0409 53.3662 37.0409C54.3255 37.0427 55.2451 37.4245 55.9234 38.1029C56.6018 38.7812 56.9836 39.7007 56.9853 40.6601ZM55.6858 23.7665C54.9692 23.7704 54.2676 23.5614 53.6699 23.1661C53.0722 22.7707 52.6053 22.2069 52.3283 21.5459C52.0514 20.885 51.977 20.1567 52.1144 19.4533C52.2518 18.75 52.595 18.1033 53.1003 17.5952C53.6057 17.0872 54.2505 16.7405 54.9531 16.5993C55.6557 16.4581 56.3843 16.5286 57.0468 16.8019C57.7092 17.0753 58.2756 17.5391 58.6742 18.1347C59.0727 18.7303 59.2855 19.4308 59.2855 20.1474C59.2838 21.1067 58.9019 22.0262 58.2236 22.7046C57.5452 23.3829 56.6257 23.7648 55.6664 23.7665H55.6858Z" fill="#0CB4C4"></path></svg>