<svg width="64" height="60" viewBox="0 0 64 60" fill="none" xmlns="http://www.w3.org/2000/svg"><path d="M58.4993 54.635V22.2013C58.4993 20.7186 57.2995 19.5188 55.8168 19.5188H48.4326C48.5887 18.7287 48.6765 17.9093 48.7058 17.0801H53.2514C53.5733 18.2019 54.5975 19.0311 55.8168 19.0311C57.2995 19.0311 58.4993 17.8312 58.4993 16.3486C58.4993 14.8659 57.2995 13.6661 55.8168 13.6661C54.5975 13.6661 53.5733 14.4952 53.2514 15.617H48.7058C48.6375 14.0075 48.3351 12.4565 47.8279 11.0031H51.3102L53.3001 8.24256C53.4757 8.28158 53.6708 8.30109 53.8562 8.30109C55.3388 8.30109 56.5386 7.10128 56.5386 5.6186C56.5386 4.13591 55.3388 2.93611 53.8562 2.93611C52.3735 2.93611 51.1737 4.13591 51.1737 5.6186C51.1737 6.37945 51.4956 7.05251 51.993 7.54024L50.5494 9.53016H47.2231C44.6381 3.92131 38.9708 0 32.3865 0C25.8022 0 20.1446 3.91156 17.5499 9.53016H14.2236L12.7799 7.54024C13.2871 7.05251 13.5993 6.3697 13.5993 5.6186C13.5993 4.13591 12.3995 2.93611 10.9168 2.93611C9.43411 2.93611 8.23431 4.13591 8.23431 5.6186C8.23431 7.10128 9.43411 8.30109 10.9168 8.30109C11.1119 8.30109 11.2972 8.28158 11.4728 8.24256L13.4627 11.0031H16.9451C16.4379 12.4565 16.1355 14.0075 16.0672 15.617H11.5216C11.1997 14.4952 10.1755 13.6661 8.95614 13.6661C7.47345 13.6661 6.27365 14.8659 6.27365 16.3486C6.27365 17.8312 7.47345 19.0311 8.95614 19.0311C10.1755 19.0311 11.1997 18.2019 11.5216 17.0801H16.0672C16.1062 17.9093 16.1842 18.7287 16.3403 19.5188H8.99516C7.51247 19.5188 6.31267 20.7186 6.31267 22.2013V54.635H0.459961V57.6199L0.67456 57.8345C2.06945 59.2294 3.92281 60 5.90298 60H57.9335C59.9039 60 61.7671 59.2294 63.162 57.8345L63.3766 57.6199V54.635H58.4993ZM55.8168 15.1292C56.4899 15.1292 57.0361 15.6755 57.0361 16.3486C57.0361 17.0216 56.4899 17.5679 55.8168 17.5679C55.1438 17.5679 54.5975 17.0216 54.5975 16.3486C54.5975 15.6755 55.1438 15.1292 55.8168 15.1292ZM53.8659 4.39928C54.539 4.39928 55.0852 4.94554 55.0852 5.6186C55.0852 6.29166 54.539 6.83791 53.8659 6.83791C53.1928 6.83791 52.6466 6.29166 52.6466 5.6186C52.6466 4.94554 53.1928 4.39928 53.8659 4.39928ZM9.72675 5.6186C9.72675 4.94554 10.273 4.39928 10.9461 4.39928C11.6191 4.39928 12.1654 4.94554 12.1654 5.6186C12.1654 6.29166 11.6191 6.83791 10.9461 6.83791C10.273 6.83791 9.72675 6.29166 9.72675 5.6186ZM8.99516 17.5679C8.3221 17.5679 7.77584 17.0216 7.77584 16.3486C7.77584 15.6755 8.3221 15.1292 8.99516 15.1292C9.66822 15.1292 10.2145 15.6755 10.2145 16.3486C10.2145 17.0216 9.66822 17.5679 8.99516 17.5679ZM23.4123 29.9756L21.9882 31.0096L22.8466 32.1899L24.778 30.7852C26.8557 31.8875 29.187 32.5313 31.6744 32.6483V34.8821H33.1376V32.6483C35.6152 32.5411 37.9563 31.8875 40.034 30.7852L41.9654 32.1899L42.8238 31.0096L41.3996 29.9756C43.7017 28.4539 45.5941 26.3664 46.8817 23.9083H54.1098V51.7087H10.7022V23.9083H17.9303C19.2276 26.3664 21.1103 28.4539 23.4123 29.9756ZM32.406 1.47293C40.6095 1.47293 47.2816 8.14502 47.2816 16.3486C47.2816 24.5521 40.6095 31.2242 32.406 31.2242C24.2024 31.2242 17.5304 24.5521 17.5304 16.3486C17.5304 8.14502 24.2024 1.47293 32.406 1.47293ZM7.77584 22.2013C7.77584 21.5282 8.3221 20.982 8.99516 20.982H16.75C16.8963 21.4794 17.0719 21.9672 17.267 22.4451H9.24878V53.1718H55.5827V22.4451H47.5645C47.7596 21.9672 47.9254 21.4794 48.0815 20.982H55.8168C56.4899 20.982 57.0361 21.5282 57.0361 22.2013V54.635H7.77584V22.2013ZM61.9134 57.0054C60.8209 58.0003 59.4162 58.5368 57.9335 58.5368H5.90298C4.42029 58.5368 3.01564 57.9906 1.92314 57.0054V56.0982H6.31267H58.4993H61.9134V57.0054Z" fill="#0CB4C4"></path><path d="M26.5533 23.9083H38.2587C40.8144 23.9083 42.8921 21.8306 42.8921 19.2749V13.4222C42.8921 10.8665 40.8144 8.78883 38.2587 8.78883H27.2849V5.16016H25.8217V8.85711C23.6172 9.20828 21.9199 11.1104 21.9199 13.4125V19.2652C21.9199 21.8306 23.9976 23.9083 26.5533 23.9083ZM23.3831 13.4222C23.3831 11.6762 24.8073 10.252 26.5533 10.252H38.2587C40.0048 10.252 41.4289 11.6762 41.4289 13.4222V19.2749C41.4289 21.021 40.0048 22.4451 38.2587 22.4451H26.5533C24.8073 22.4451 23.3831 21.021 23.3831 19.2749V13.4222Z" fill="#0CB4C4"></path><path d="M28.0161 17.5678C29.2256 17.5678 30.2108 16.5825 30.2108 15.373C30.2108 14.1634 29.2256 13.1782 28.0161 13.1782C26.8065 13.1782 25.8213 14.1634 25.8213 15.373C25.8213 16.5825 26.8065 17.5678 28.0161 17.5678ZM28.0161 14.6414C28.416 14.6414 28.7476 14.9731 28.7476 15.373C28.7476 15.7729 28.416 16.1046 28.0161 16.1046C27.6161 16.1046 27.2845 15.7729 27.2845 15.373C27.2845 14.9731 27.6161 14.6414 28.0161 14.6414Z" fill="#0CB4C4"></path><path d="M36.8051 17.5678C38.0147 17.5678 38.9999 16.5825 38.9999 15.373C38.9999 14.1634 38.0147 13.1782 36.8051 13.1782C35.5956 13.1782 34.6104 14.1634 34.6104 15.373C34.6104 16.5825 35.5956 17.5678 36.8051 17.5678ZM36.8051 14.6414C37.2051 14.6414 37.5367 14.9731 37.5367 15.373C37.5367 15.7729 37.2051 16.1046 36.8051 16.1046C36.4052 16.1046 36.0735 15.7729 36.0735 15.373C36.0735 14.9731 36.4052 14.6414 36.8051 14.6414Z" fill="#0CB4C4"></path><path d="M32.416 18.992L34.9619 18.0067L34.4352 16.6411L32.4063 17.4215L30.3773 16.6411L29.8506 18.0067L32.416 18.992Z" fill="#0CB4C4"></path><path d="M37.0392 40.0029H33.1374V37.8081H31.6743V40.0029H27.7725V49.2697H37.0392V40.0029ZM35.5761 47.8065H29.2356V41.466H35.5761V47.8065Z" fill="#0CB4C4"></path><path d="M50.6955 40.0036H46.862V38.4819H45.3988V40.0036H41.4287V49.2704H50.6955V40.0036ZM49.2323 47.8072H42.8919V41.4668H49.2323V47.8072Z" fill="#0CB4C4"></path><path d="M23.383 40.0036H19.4129V38.4819H17.9497V40.0036H14.1162V49.2704H23.383V40.0036ZM21.9198 47.8072H15.5794V41.4668H21.9198V47.8072Z" fill="#0CB4C4"></path><path d="M19.4124 34.6867L20.4756 33.9161L19.6172 32.7261L17.9492 33.9454V35.5549H19.4124V34.6867Z" fill="#0CB4C4"></path><path d="M45.3992 35.5549H46.8624V33.9454L45.1943 32.7261L44.3359 33.9161L45.3992 34.6867V35.5549Z" fill="#0CB4C4"></path></svg>