<svg xmlns="http://www.w3.org/2000/svg" width="62" height="62" viewBox="0 0 62 62" fill="none"><path fill-rule="evenodd" clip-rule="evenodd" d="M10.7692 5.97462C8.12768 5.97462 5.97526 8.12735 5.97526 10.7692C5.97526 13.4111 8.12768 15.5638 10.7692 15.5638C13.4107 15.5638 15.5631 13.4111 15.5631 10.7692C15.5605 8.12735 13.4107 5.97462 10.7692 5.97462ZM10.7692 14.3356C8.80018 14.3356 7.20301 12.7383 7.20301 10.7689C7.20301 8.79961 8.80011 7.20229 10.7692 7.20229C12.7382 7.20229 14.3353 8.79961 14.3353 10.7689C14.3353 12.7306 12.7306 14.3356 10.7692 14.3356ZM51.2242 41.4677C46.0457 41.4677 41.8074 45.5235 41.4885 50.6237H34.4198V47.6634C34.4198 46.3132 33.3245 45.2101 31.9669 45.2101H15.3333C13.9833 45.2101 12.8804 46.3055 12.8804 47.6634V50.6237H11.7265C6.48428 50.6237 2.22554 46.359 2.22554 41.1214C2.22554 35.8784 6.48963 31.6191 11.7265 31.6191H20.2291V34.5794C20.2291 35.9296 21.3244 37.0327 22.6821 37.0327H39.3182C40.6682 37.0327 41.7712 35.9373 41.7712 34.5794V31.6191H50.2738C56.1884 31.6191 61 26.8067 61 20.8913C61 14.976 56.1883 10.1636 50.2738 10.1636H49.1199L49.1173 7.19564C49.1173 5.84542 48.022 4.74232 46.6644 4.74232H30.0256C28.6756 4.74232 27.5727 5.83779 27.5727 7.19564V10.156H20.5295V9.81713C20.5295 9.2694 20.1372 8.80064 19.6022 8.70131L18.5732 8.51279C18.4025 7.93195 18.1682 7.36384 17.8752 6.83649L18.4764 5.97541C18.7897 5.52448 18.7311 4.91816 18.3465 4.5335L17.0041 3.19092C16.6195 2.80623 16.0132 2.74763 15.5624 3.06099L14.6938 3.65458C14.1665 3.36161 13.5985 3.12723 13.0177 2.95655L12.8292 1.92734C12.7299 1.39235 12.2688 1 11.7212 1H9.81587C9.26822 1 8.79952 1.39233 8.70021 1.92734L8.51171 2.95655C7.93095 3.12724 7.36293 3.35397 6.83565 3.65458L5.97469 3.05335C5.52383 2.74 4.91759 2.79859 4.53299 3.18328L3.19059 4.53604C2.80596 4.92072 2.74737 5.52703 3.06068 5.97795L3.66183 6.83902C3.3689 7.36637 3.13456 7.93449 2.9639 8.51533L1.93484 8.70385C1.39228 8.80066 1 9.26941 1 9.81712V11.7227C1 12.2705 1.39227 12.7392 1.92721 12.8386L2.95627 13.0271C3.12694 13.6079 3.36128 14.176 3.6542 14.7034L3.05306 15.5645C2.73975 16.0154 2.79833 16.6217 3.18297 17.0064L4.53299 18.3566C4.91762 18.7413 5.52384 18.7999 5.9747 18.4865L6.83565 17.8853C7.36293 18.1782 7.93097 18.4126 8.51172 18.5833L8.70021 19.6125C8.79701 20.1475 9.26824 20.5399 9.81587 20.5399H11.7212C12.2689 20.5399 12.7376 20.1475 12.8369 19.6125L13.0254 18.5833C13.6061 18.4126 14.1742 18.1859 14.7014 17.8853L15.5624 18.4865C16.0133 18.7999 16.6195 18.7413 17.0041 18.3566L18.3465 17.014C18.7311 16.6293 18.7897 16.023 18.4764 15.5721L17.8753 14.6957C18.1682 14.1683 18.4025 13.6002 18.5732 13.0194L19.6022 12.8309C20.1372 12.7341 20.5295 12.2628 20.5295 11.7227V11.3838H27.5727V14.3442C27.5727 15.6944 28.668 16.7975 30.0257 16.7975H46.6618C48.0118 16.7975 49.1147 15.702 49.1147 14.3442V11.3838H50.2686C55.5108 11.3838 59.7696 15.6485 59.7696 20.8861C59.7696 26.1291 55.5055 30.3884 50.2686 30.3884L41.7634 30.3859V27.4256C41.7634 26.0754 40.6681 24.9723 39.3104 24.9723L22.6743 24.9748C21.3243 24.9748 20.2213 26.0703 20.2213 27.4281V30.3884L11.7266 30.3859C5.81191 30.3859 1.00033 35.2008 1.00033 41.1163C1.00033 47.0318 5.81204 51.844 11.7266 51.844H12.8804V54.8043C12.8804 56.1545 13.9758 57.2576 15.3334 57.2576H31.9695C33.3196 57.2576 34.4225 56.1622 34.4225 54.8043V51.844H41.499C41.8072 56.9443 46.0458 61 51.2243 61C56.6116 61 60.9926 56.6181 60.9926 51.2303C60.9926 45.8447 56.6112 41.4677 51.2242 41.4677ZM19.3102 11.6434L18.299 11.8268C17.8685 11.9058 17.5297 12.2115 17.4125 12.6344C17.2622 13.1618 17.0534 13.6713 16.7859 14.1477C16.5719 14.5247 16.5898 14.9884 16.8445 15.3476L17.4304 16.1959L16.1975 17.4289L15.3493 16.843C14.9901 16.5959 14.5342 16.5755 14.1496 16.7844C13.6732 17.0519 13.1587 17.2659 12.6365 17.4111C12.2188 17.5283 11.9055 17.8671 11.829 18.2977L11.6456 19.3091H9.89823L9.71483 18.2977C9.63587 17.8671 9.3302 17.5283 8.90734 17.4111C8.38007 17.2608 7.87065 17.0519 7.3943 16.7844C7.01731 16.5704 6.55369 16.5882 6.19458 16.843L5.34635 17.4289L4.1135 16.1959L4.69937 15.3476C4.94645 14.9884 4.96683 14.5323 4.75795 14.1477C4.49049 13.6713 4.27653 13.1618 4.13133 12.6344C4.01416 12.2166 3.67538 11.9033 3.24488 11.8268L2.23362 11.6434V9.89574L3.24488 9.71231C3.67537 9.63334 4.01415 9.32763 4.13133 8.90471C4.28162 8.37737 4.49049 7.86787 4.75795 7.39146C4.97192 7.01442 4.95409 6.55073 4.69937 6.19157L4.1135 5.34321L5.34635 4.11019L6.19458 4.69614C6.55374 4.94326 7.0097 4.96364 7.3943 4.75473C7.87063 4.48724 8.38515 4.27324 8.90734 4.12803C9.32509 4.01084 9.6384 3.67201 9.71483 3.24145L9.89823 2.23004H11.6456L11.829 3.24145C11.908 3.67199 12.2137 4.01083 12.6365 4.12803C13.1638 4.27834 13.6732 4.48724 14.1496 4.75473C14.5266 4.96874 14.9902 4.9509 15.3493 4.69614L16.1975 4.11019L17.4304 5.34321L16.8445 6.19157C16.5974 6.55078 16.577 7.0068 16.7859 7.39146C17.0534 7.86786 17.2673 8.37736 17.4125 8.90471C17.5297 9.32252 17.8685 9.63588 18.299 9.71231L19.3102 9.89574V11.6434ZM47.8848 14.3362C47.8848 15.0139 47.3372 15.5616 46.6596 15.5616H30.0261C29.3485 15.5616 28.8009 15.0138 28.8009 14.3362L28.7983 7.19544C28.7983 6.51776 29.346 5.97006 30.0236 5.97006H46.6597C47.3373 5.97006 47.8849 6.51778 47.8849 7.19544L47.8848 14.3362ZM21.4576 27.4255C21.4576 26.7478 22.0052 26.2001 22.6828 26.2001H39.3189C39.9965 26.2001 40.5441 26.7478 40.5441 27.4255V34.5662C40.5441 35.2439 39.9965 35.7916 39.3189 35.7916L22.6756 35.7942C21.998 35.7942 21.4504 35.2464 21.4504 34.5688V27.4254L21.4576 27.4255ZM33.1952 54.8041C33.1952 55.4818 32.6475 56.0295 31.97 56.0295H15.3339C14.6563 56.0295 14.1086 55.4818 14.1086 54.8041V47.6634C14.1086 46.9857 14.6563 46.438 15.3339 46.438H31.97C32.6476 46.438 33.1952 46.9857 33.1952 47.6634V54.8041ZM51.2242 59.7745C46.5169 59.7745 42.6805 55.9404 42.6805 51.2296C42.6805 46.5216 46.5141 42.6847 51.2242 42.6847C55.9315 42.6847 59.7679 46.5188 59.7679 51.2296C59.7679 55.9375 55.9318 59.7745 51.2242 59.7745ZM55.0119 46.8736C54.4261 46.8227 53.8504 46.9985 53.402 47.3755L49.4895 50.6568L48.6413 49.541C48.2821 49.0722 47.7599 48.7716 47.1817 48.6926C46.5958 48.6136 46.015 48.7716 45.5438 49.1231C44.5784 49.8594 44.39 51.2504 45.1261 52.221L47.3753 55.1762C47.7472 55.6577 48.2821 55.9659 48.8883 56.0296C48.9724 56.0373 49.059 56.0424 49.143 56.0424C49.6576 56.0424 50.1543 55.8666 50.5517 55.5278L56.2371 50.7663C57.1694 49.9842 57.2942 48.5881 56.5122 47.6557C56.1353 47.2073 55.6055 46.9271 55.0119 46.8736ZM55.45 49.834L49.7646 54.5954C49.5557 54.7712 49.2959 54.8502 49.0208 54.8171C48.7534 54.7839 48.5114 54.654 48.3484 54.44L46.0992 51.4849C45.7655 51.0543 45.8521 50.4352 46.2826 50.1015C46.4584 49.9716 46.6596 49.9002 46.8761 49.9002C46.922 49.9002 46.9678 49.9002 47.006 49.9079C47.2658 49.941 47.5027 50.0786 47.6581 50.2849L48.896 51.9078C49.0005 52.0377 49.1508 52.1294 49.3138 52.1421C49.4768 52.1625 49.6475 52.109 49.7774 52.0046L54.1866 48.3131C54.3878 48.1424 54.6426 48.066 54.905 48.0914C55.1648 48.1169 55.4068 48.2418 55.5774 48.4379C55.9264 48.8634 55.8678 49.4824 55.45 49.834ZM39.4817 10.7695C39.4817 11.4013 38.9722 11.9109 38.3405 11.9109C37.7088 11.9109 37.1993 11.4013 37.1993 10.7695C37.1993 10.1377 37.7088 9.62821 38.3405 9.62821C38.9722 9.62821 39.4817 10.1377 39.4817 10.7695ZM44.1227 10.7695C44.1227 11.4013 43.6133 11.9109 42.9816 11.9109C42.3498 11.9109 41.8404 11.4013 41.8404 10.7695C41.8404 10.1377 42.3498 9.62821 42.9816 9.62821C43.6158 9.62821 44.1227 10.1377 44.1227 10.7695ZM34.8435 10.7695C34.8435 11.4013 34.334 11.9109 33.7023 11.9109C33.0706 11.9109 32.5612 11.4013 32.5612 10.7695C32.5612 10.1377 33.0706 9.62821 33.7023 9.62821C34.3289 9.62821 34.8435 10.1377 34.8435 10.7695ZM29.856 31.0002C29.856 30.3684 30.3655 29.8589 30.9972 29.8589C31.6289 29.8589 32.1383 30.3684 32.1383 31.0002C32.1383 31.632 31.6289 32.1416 30.9972 32.1416C30.3655 32.1416 29.856 31.632 29.856 31.0002ZM34.4996 31.0002C34.4996 30.3684 35.0091 29.8589 35.6408 29.8589C36.2725 29.8589 36.7819 30.3684 36.7819 31.0002C36.7819 31.632 36.2725 32.1416 35.6408 32.1416C35.0065 32.1416 34.4996 31.632 34.4996 31.0002ZM25.2126 31.0002C25.2126 30.3684 25.722 29.8589 26.3537 29.8589C26.9854 29.8589 27.4949 30.3684 27.4949 31.0002C27.4949 31.632 26.9854 32.1416 26.3537 32.1416C25.7296 32.1416 25.2126 31.632 25.2126 31.0002ZM24.7897 51.2309C24.7897 51.8627 24.2803 52.3723 23.6486 52.3723C23.0168 52.3723 22.5074 51.8627 22.5074 51.2309C22.5074 50.5991 23.0168 50.0896 23.6486 50.0896C24.2803 50.0896 24.7897 50.6042 24.7897 51.2309ZM29.4333 51.2309C29.4333 51.8627 28.9239 52.3723 28.2922 52.3723C27.6604 52.3723 27.151 51.8627 27.151 51.2309C27.151 50.5991 27.6604 50.0896 28.2922 50.0896C28.9239 50.0896 29.4333 50.6042 29.4333 51.2309ZM20.1541 51.2309C20.1541 51.8627 19.6446 52.3723 19.0129 52.3723C18.3812 52.3723 17.8718 51.8627 17.8718 51.2309C17.8718 50.5991 18.3812 50.0896 19.0129 50.0896C19.6446 50.0896 20.1541 50.6042 20.1541 51.2309Z" fill="#0CB4C4" stroke="#0CB4C4" stroke-width="0.5"></path></svg>