<svg xmlns="http://www.w3.org/2000/svg" xmlns:xlink="http://www.w3.org/1999/xlink" version="1.1" id="Layer_1" x="0px" y="0px" width="55.078px" height="60px" viewBox="0 0 55.078 60" enable-background="new 0 0 55.078 60" xml:space="preserve"><g><path fill="#0CB4C4" d="M45.969,45.371v-7.525c2.182,0.521,2.629,1.761,2.654,1.849c0.143,0.526,0.68,0.838,1.211,0.71 c0.539-0.134,0.865-0.679,0.73-1.213c-0.027-0.113-0.723-2.688-4.596-3.399v-2.028c0-0.554-0.447-1.003-1.002-1.003 c-0.553,0-1,0.449-1,1.003v1.972c-1.184,0.178-2.289,0.713-3.129,1.571c-1.297,1.328-1.826,3.19-1.488,5.246 c0.393,2.4,2.504,3.435,4.617,4.22v8.131c-0.033-0.008-0.061-0.012-0.092-0.016c-2.109-0.469-3.326-1.434-3.326-4.962 c0-0.554-0.449-1.001-1.002-1.001c-0.555,0-1.002,0.447-1.002,1.001c0,4.031,1.512,6.161,4.896,6.917 c0.176,0.04,0.348,0.057,0.525,0.084v2.072c0,0.554,0.447,1.001,1,1.001c0.555,0,1.002-0.447,1.002-1.001v-1.997 c1.445-0.119,2.75-0.606,3.709-1.476c0.945-0.86,1.994-2.474,1.641-5.298C50.953,47.315,48.381,46.238,45.969,45.371z M41.328,42.229c-0.234-1.412,0.104-2.663,0.943-3.521c0.461-0.47,1.053-0.774,1.695-0.925v6.84 C42.443,43.992,41.514,43.353,41.328,42.229z M48.332,54.049c-0.586,0.531-1.422,0.857-2.363,0.96V47.51 c1.975,0.765,3.176,1.486,3.365,2.971C49.529,52.064,49.191,53.26,48.332,54.049z"></path><path fill="#0CB4C4" d="M27.539,0C12.354,0,0,12.355,0,27.539c0,15.185,12.354,27.54,27.539,27.54c2.363,0,4.711-0.297,6.98-0.888 c0.535-0.142,0.855-0.689,0.715-1.223c-0.141-0.538-0.693-0.854-1.223-0.718c-2.104,0.551-4.283,0.827-6.473,0.827 c-14.079,0-25.536-11.455-25.536-25.537c0-14.08,11.457-25.535,25.536-25.535c14.08,0,25.537,11.455,25.537,25.535 c0,2.354-0.32,4.686-0.951,6.929c-0.148,0.534,0.16,1.086,0.693,1.234c0.535,0.15,1.086-0.161,1.236-0.693 c0.68-2.417,1.023-4.934,1.023-7.47C55.078,12.354,42.727,0,27.539,0z"></path><path fill="#0CB4C4" d="M28.541,7.651V4.773c0-0.553-0.449-1.002-1.002-1.002s-1,0.449-1,1.002v2.878c0,0.553,0.447,1.001,1,1.001 S28.541,8.204,28.541,7.651z"></path><path fill="#0CB4C4" d="M12.769,14.185c0.196,0.196,0.454,0.293,0.708,0.293c0.26,0,0.514-0.099,0.711-0.293 c0.391-0.391,0.391-1.025,0-1.416l-2.036-2.035c-0.391-0.391-1.024-0.391-1.415,0s-0.391,1.025,0,1.416L12.769,14.185z"></path><path fill="#0CB4C4" d="M4.775,26.538c-0.553,0-1.002,0.448-1.002,1.001c0,0.554,0.449,1.003,1.002,1.003h2.878 c0.554,0,1.001-0.449,1.001-1.003c0-0.553-0.447-1.001-1.001-1.001H4.775z"></path><path fill="#0CB4C4" d="M10.734,44.345c0.195,0.196,0.451,0.291,0.709,0.291c0.256,0,0.512-0.097,0.708-0.291l2.036-2.034 c0.391-0.391,0.391-1.024,0-1.415s-1.026-0.391-1.417,0l-2.034,2.033C10.344,43.317,10.344,43.952,10.734,44.345z"></path><path fill="#0CB4C4" d="M26.539,47.429v2.875c0,0.551,0.447,1.001,1,1.001s1.002-0.45,1.002-1.001v-2.875 c0-0.556-0.449-1.001-1.002-1.001S26.539,46.873,26.539,47.429z"></path><path fill="#0CB4C4" d="M50.303,28.542c0.555,0,1.004-0.449,1.004-1.003c0-0.553-0.449-1.001-1.004-1.001h-2.875 c-0.553,0-1.002,0.448-1.002,1.001c0,0.554,0.449,1.003,1.002,1.003H50.303z"></path><path fill="#0CB4C4" d="M41.602,14.476c0.256,0,0.512-0.1,0.711-0.293l2.033-2.033c0.391-0.389,0.391-1.025,0-1.416 s-1.025-0.391-1.416,0l-2.035,2.033c-0.391,0.391-0.391,1.025,0,1.416C41.09,14.376,41.348,14.476,41.602,14.476z"></path><path fill="#0CB4C4" d="M32.186,27.539c0-1.293-0.531-2.459-1.381-3.302l-0.793-11.322c0-1.364-1.111-2.472-2.473-2.472 s-2.471,1.109-2.469,2.403l-0.773,11.118l-8.912,0.961c-1.114,0.042-1.976,1.178-1.976,2.615c0,1.438,0.864,2.572,1.976,2.616 l9.269,0.997c0.794,0.638,1.792,1.038,2.886,1.038C30.102,32.189,32.186,30.103,32.186,27.539z M23.144,28.974l-7.573-0.815 c-0.06-0.086-0.158-0.3-0.158-0.62s0.099-0.537,0.158-0.621l7.573-0.817c-0.148,0.457-0.251,0.933-0.251,1.438 C22.893,28.043,22.993,28.519,23.144,28.974z M27.071,12.913c0-0.261,0.21-0.47,0.468-0.47c0.26,0,0.469,0.209,0.471,0.539 l0.703,10.076c-0.377-0.098-0.768-0.168-1.174-0.168c-0.405,0-0.793,0.07-1.171,0.168L27.071,12.913z M27.539,30.186 c-1.46,0-2.644-1.188-2.644-2.646c0-1.457,1.187-2.646,2.644-2.646c1.459,0,2.645,1.188,2.645,2.646 C30.184,28.998,29,30.186,27.539,30.186z"></path></g></svg>