<svg xmlns="http://www.w3.org/2000/svg" xmlns:xlink="http://www.w3.org/1999/xlink" version="1.1" id="Layer_1" x="0px" y="0px" width="107px" height="60px" viewBox="0 0 107 60" enable-background="new 0 0 107 60" xml:space="preserve"><g><g><path fill="#0CB4C4" d="M3.574,0.423C3.165,0.137,2.751,0,2.322,0C1.189,0,0.26,0.93,0.26,2.067v55.905 c0,1.573,1.984,2.6,3.254,1.684l44.821-27.94c0.544-0.367,0.889-1.009,0.889-1.696c0-0.688-0.343-1.332-0.916-1.713L3.574,0.423z M4.051,54.856V5.18l39.837,24.839L4.051,54.856z"></path></g><g><path fill="#0CB4C4" d="M105.826,28.306L61.096,0.423C60.688,0.137,60.272,0,59.843,0c-1.137,0-2.063,0.93-2.063,2.067v55.905 c0,1.573,1.98,2.6,3.252,1.684l44.824-27.94c0.539-0.367,0.884-1.007,0.884-1.696C106.74,29.331,106.397,28.687,105.826,28.306z M61.567,54.856V5.18l39.844,24.839L61.567,54.856z"></path></g></g></svg>