<svg xmlns="http://www.w3.org/2000/svg" xmlns:xlink="http://www.w3.org/1999/xlink" version="1.1" id="Layer_1" x="0px" y="0px" width="68px" height="60px" viewBox="0 0 68 60" enable-background="new 0 0 68 60" xml:space="preserve"><g><path fill="#0CB4C4" d="M0.933,47.87l0.633,0.633l0.002,0.003l2.35,2.35l0.633,0.633c0.823,0.822,2.155,0.822,2.977,0l0,0 L23.656,35.36l4.357,4.392c0.82,0.825,2.153,0.83,2.979,0.011c0.357-0.354,0.574-0.823,0.615-1.325l1.333-16.691 c0.092-1.158-0.771-2.174-1.931-2.266c-0.055-0.004-0.111-0.007-0.167-0.007c-0.055,0-0.113,0.003-0.167,0.007l-16.688,1.336 c-1.158,0.093-2.023,1.107-1.93,2.267c0.041,0.501,0.259,0.972,0.615,1.327l4.389,4.354L0.933,44.894 C0.11,45.716,0.11,47.048,0.933,47.87z M20.044,28.76l-5.89-5.843l16.688-1.337l-1.334,16.689l-5.847-5.892L6.04,50l-0.633-0.633 l-2.349-2.35l-0.636-0.636L20.044,28.76z"></path><path fill="#0CB4C4" d="M6.04,54.211c-0.333-0.002-0.664-0.042-0.987-0.121v4.857C5.053,59.528,5.524,60,6.105,60h55.789 c0.581,0,1.053-0.472,1.053-1.053V22.204l-2.105,2.105v33.585H7.158v-3.838C6.793,54.158,6.418,54.211,6.04,54.211z"></path><path fill="#0CB4C4" d="M61.961,5.79c0.333,0.001,0.663,0.041,0.986,0.121V1.053C62.947,0.472,62.476,0,61.895,0H6.105 C5.524,0,5.053,0.472,5.053,1.053v36.743l2.105-2.105V2.105h53.684v3.837C61.207,5.842,61.582,5.79,61.961,5.79z"></path><path fill="#0CB4C4" d="M66.435,11.497l-2.35-2.349l-0.636-0.636c-0.822-0.823-2.155-0.823-2.978,0L44.344,24.64l-4.354-4.389 c-0.819-0.825-2.151-0.83-2.977-0.011c-0.357,0.355-0.576,0.825-0.617,1.326L35.06,38.254c-0.094,1.158,0.771,2.174,1.931,2.266 c0.056,0.004,0.111,0.007,0.168,0.007c0.055,0,0.112-0.003,0.167-0.007l16.691-1.334c1.158-0.093,2.022-1.107,1.93-2.267 c-0.04-0.502-0.258-0.972-0.615-1.327l-4.392-4.357l16.128-16.127c0.822-0.822,0.822-2.155,0-2.977L66.435,11.497z M47.956,31.24 l5.892,5.848l-16.689,1.333l1.338-16.687l5.843,5.89L61.961,10l0.636,0.636l2.349,2.35l0.634,0.633L47.956,31.24z"></path></g></svg>