<svg xmlns="http://www.w3.org/2000/svg" xmlns:xlink="http://www.w3.org/1999/xlink" version="1.1" id="Layer_1" x="0px" y="0px" width="60px" height="60px" viewBox="0 0 60 60" enable-background="new 0 0 60 60" xml:space="preserve"><g transform="translate(0,-952.36218)"><path fill="#0CB4C4" d="M30,952.362c-16.561,0-30,13.439-30,30c0,16.56,13.439,30,30,30c16.56,0,30-13.44,30-30 C60,965.802,46.56,952.362,30,952.362z M30,953.736c15.807,0,28.604,12.82,28.604,28.626c0,9.057-4.204,17.126-10.771,22.369 l-5.274-6.955c0-0.008,0-0.014,0-0.022c0-0.014,0-0.028,0-0.042v-30.698c0-0.386-0.313-0.698-0.698-0.698H18.75l-5.451-7.173 C18,955.755,23.76,953.736,30,953.736z M12.167,959.993l5.274,6.955c0,0.021,0,0.043,0,0.065v23.72 c0.003,0.19,0.081,0.372,0.218,0.503l7.675,6.975c0.13,0.125,0.3,0.196,0.48,0.197h15.457l5.429,7.173 c-4.701,3.389-10.461,5.385-16.7,5.385c-15.807,0-28.604-12.797-28.604-28.604C1.396,973.305,5.601,965.236,12.167,959.993z M19.797,967.711h21.365v28.212L19.797,967.711z M18.838,968.779l21.388,28.234H27.907v-8.372c0-0.386-0.312-0.698-0.698-0.698 h-8.371V968.779z M18.838,989.339h7.673v7.675h-0.414l-7.259-6.606V989.339z"></path></g></svg>