<svg xmlns="http://www.w3.org/2000/svg" width="60" height="60" viewBox="0 0 60 60" fill="none"><mask id="path-1-inside-1_920_37" fill="white"><path fill-rule="evenodd" clip-rule="evenodd" d="M36.7326 27.7024C37.3377 27.9393 37.9578 28.1259 38.5931 28.257C39.0595 28.3553 39.3948 28.7663 39.3948 29.2428H39.3973V31.7614H42.5611V29.2428C42.5611 28.7385 42.9317 28.3125 43.4308 28.2444C44.8199 27.9443 46.1409 27.3922 47.3308 26.6107C47.7291 26.351 48.256 26.4065 48.5938 26.7418L50.3761 28.5242L52.6122 26.2854L50.8299 24.503C50.482 24.1551 50.4366 23.6029 50.724 23.2021C51.4728 22.1079 52.0727 20.5801 52.345 19.2741H52.3475C52.4433 18.8077 52.8542 18.4724 53.3307 18.4724V18.4699H55.8491V15.3059H53.3307C52.829 15.3059 52.4004 14.9353 52.3323 14.436C52.0323 13.0469 51.4803 11.7258 50.7013 10.5358C50.4391 10.1375 50.4946 9.61054 50.8324 9.27273L52.6122 7.49029L50.3761 5.25405L48.5938 7.03398C48.2459 7.38442 47.6938 7.4298 47.293 7.13987C46.1989 6.39106 44.6712 5.79108 43.3653 5.51878H43.3628C42.8964 5.42046 42.5636 5.00951 42.5636 4.53304H42.5611V2.01695H39.3973V4.53304C39.3973 5.03727 39.0242 5.46334 38.525 5.53395C37.136 5.83144 35.815 6.38609 34.6276 7.1651C34.2293 7.42478 33.6999 7.37183 33.3646 7.03401L31.5823 5.25408L29.3436 7.49031L31.1259 9.27275C31.4764 9.62067 31.5192 10.1728 31.2318 10.5737C30.4831 11.6678 29.8831 13.1956 29.6108 14.5016C29.5125 14.9705 29.1016 15.3033 28.6252 15.3033V15.3058H26.1067V18.4699H28.6252C29.1294 18.4699 29.5554 18.843 29.6235 19.3397C29.7369 19.8616 29.8857 20.3734 30.0672 20.8725L31.731 19.2086C33.6444 17.2951 33.6545 16.1253 33.6646 14.9731C33.6772 13.4452 33.6898 11.9376 35.989 9.64084C38.6839 6.95075 42.8357 6.37091 46.1665 8.22144C46.4816 8.39793 46.6782 8.73071 46.6807 9.09127C46.6833 9.45179 46.4942 9.78709 46.1816 9.97116L40.7237 13.1226V16.3093L43.4791 17.9001L49.0328 14.6932H49.0303C49.3505 14.5092 49.7438 14.5117 50.0589 14.7033C50.3715 14.8949 50.558 15.2428 50.5404 15.6084C50.5631 17.8925 49.6631 20.0884 48.0471 21.6995C45.748 23.9987 44.243 24.0113 42.7153 24.024C41.5632 24.0341 40.3934 24.0442 38.48 25.9577L36.7326 27.7024ZM8.52028 39.6529L9.55894 41.0975L17.0994 35.677C18.6121 34.5576 20.5179 34.1089 22.3708 34.4391L36.425 36.7384C39.4225 37.23 40.8897 40.626 39.9317 43.1144C40.8519 42.7766 41.7771 42.2471 42.7552 41.5462L51.5284 35.2409C54.6014 33.0323 59.2876 34.8223 59.9259 37.6233C60.1805 38.7453 59.7999 39.91 58.4562 40.8757L41.2055 53.2747C39.6929 54.3941 37.7845 54.8429 35.9316 54.5126L23.1984 52.4301C21.8724 52.1906 20.506 52.5108 19.4245 53.3125L18.7085 53.8269L19.7774 55.3118H19.7749C19.9337 55.5312 19.9967 55.806 19.9488 56.0707C19.9035 56.3379 19.7522 56.5724 19.5303 56.7262L15.0556 59.8197V59.8222C14.6523 60.102 14.1027 60.0466 13.7598 59.6911L0.282583 45.6559C0.0758649 45.4416 -0.0249742 45.1491 0.00527425 44.8542C0.0380468 44.5592 0.196865 44.2919 0.441402 44.1256L7.09904 39.3858C7.32088 39.2294 7.59819 39.1689 7.86541 39.2168C8.13516 39.2673 8.36904 39.426 8.52028 39.6529ZM10.7312 42.7286L17.5353 52.1956C18.6395 51.4014 19.3807 50.8417 20.7597 50.519C21.6672 50.3123 22.605 50.2845 23.5226 50.4434L36.2558 52.5284H36.2532C37.5818 52.7679 38.9482 52.4477 40.0297 51.6434L57.2804 39.2444C58.14 38.6267 58.1527 38.0493 57.5955 37.4291C56.5493 36.2644 54.225 35.7753 52.6998 36.872L43.9267 43.1774C41.499 44.922 39.1167 45.9027 36.1951 45.4363L29.391 44.3219H29.3885C29.1238 44.2841 28.8843 44.1379 28.728 43.9211C28.5692 43.7042 28.5036 43.432 28.5465 43.1672C28.5894 42.9025 28.7381 42.6655 28.9574 42.5092C29.1767 42.3529 29.449 42.2924 29.7112 42.3378L36.4373 43.4395C37.1961 43.4168 37.6877 43.0891 37.9448 42.6252C38.6532 41.352 37.8944 39.02 36.0994 38.725L22.0452 36.4257L22.0477 36.4231C20.7217 36.1836 19.3553 36.5038 18.2713 37.3081L10.7312 42.7286ZM17.5457 55.6544L7.44884 41.6037L2.53797 45.1005L14.6161 57.6784L17.5457 55.6544ZM28.5221 22.4155L28.5246 22.418C28.2448 21.7928 28.0129 21.1473 27.8339 20.4868H25.0986C24.5415 20.4868 24.0902 20.0355 24.0902 19.4784V14.2974C24.0902 13.7402 24.5415 13.289 25.0986 13.289H27.8339C28.1339 12.1872 28.5725 11.1283 29.1397 10.1375L27.2061 8.2038C26.8129 7.8105 26.8129 7.17262 27.2061 6.77685L30.8691 3.11361C31.2624 2.72031 31.9002 2.72031 32.296 3.11361L34.2296 5.04734C35.2203 4.4826 36.2791 4.04391 37.3808 3.7414V1.00846C37.3808 0.451287 37.832 0 38.3892 0H43.5697C43.837 0 44.0941 0.105887 44.2832 0.294974C44.4723 0.484061 44.5781 0.74122 44.5781 1.00848V3.74394C45.6798 4.04396 46.7386 4.48262 47.7294 5.04987L49.6629 3.11363C50.0562 2.72033 50.6941 2.72033 51.0898 3.11363L54.7503 6.77687C55.1461 7.17018 55.1461 7.81057 54.7503 8.20382L52.8167 10.1375C53.3839 11.1284 53.8225 12.1873 54.1225 13.289H56.8578C57.125 13.289 57.3821 13.3949 57.5712 13.584C57.7603 13.773 57.8662 14.0302 57.8662 14.2975V19.4784C57.8662 19.7456 57.7603 20.0028 57.5712 20.1919C57.3822 20.381 57.125 20.4869 56.8578 20.4869H54.1225C53.8225 21.5886 53.3839 22.6475 52.8167 23.6383L54.7503 25.572H54.7528C55.1461 25.9679 55.1461 26.6057 54.7528 26.999L51.0898 30.6622C50.694 31.0555 50.0562 31.0555 49.663 30.6622L47.7294 28.7285C46.7386 29.2932 45.6798 29.7319 44.5781 30.0344V32.7699V32.7674C44.5781 33.0371 44.4723 33.2918 44.2832 33.4809C44.0941 33.67 43.837 33.7758 43.5697 33.7758H38.3892C37.832 33.7758 37.3808 33.3246 37.3808 32.7674V30.0319C36.6346 29.8277 35.906 29.5605 35.2026 29.2327L31.2876 33.1481C30.9548 33.4808 30.4355 33.5388 30.0372 33.2892C27.5843 32.0387 25.5877 30.0471 24.3348 27.594C24.1381 27.2057 24.2112 26.7343 24.5188 26.4267L24.5163 26.4242L28.5221 22.4181L28.5221 22.4155ZM41.1094 9.22C41.8505 9.11663 42.6018 9.14185 43.3329 9.29059L39.2086 11.6731C38.8985 11.8521 38.7069 12.1849 38.7069 12.5429L38.7044 16.8894C38.7044 17.2751 38.9262 17.6281 39.2716 17.797L42.9724 19.9324C43.2875 20.1139 43.6783 20.1114 43.9909 19.9248L48.2815 17.4466V17.4491C47.979 18.518 47.4067 19.4912 46.6202 20.2728C44.8984 21.9947 43.8068 22.0048 42.6976 22.0149C41.1321 22.0275 39.5414 22.0426 37.0506 24.531L30.3904 31.1942C28.782 30.2513 27.4359 28.9176 26.4753 27.3167L33.1562 20.6354C35.647 18.1444 35.6595 16.5561 35.6721 14.988C35.6822 13.8786 35.6898 12.787 37.4141 11.0651H37.4166C38.4124 10.0642 39.7107 9.41625 41.1099 9.21959L41.1094 9.22Z"></path></mask><path fill-rule="evenodd" clip-rule="evenodd" d="M36.7326 27.7024C37.3377 27.9393 37.9578 28.1259 38.5931 28.257C39.0595 28.3553 39.3948 28.7663 39.3948 29.2428H39.3973V31.7614H42.5611V29.2428C42.5611 28.7385 42.9317 28.3125 43.4308 28.2444C44.8199 27.9443 46.1409 27.3922 47.3308 26.6107C47.7291 26.351 48.256 26.4065 48.5938 26.7418L50.3761 28.5242L52.6122 26.2854L50.8299 24.503C50.482 24.1551 50.4366 23.6029 50.724 23.2021C51.4728 22.1079 52.0727 20.5801 52.345 19.2741H52.3475C52.4433 18.8077 52.8542 18.4724 53.3307 18.4724V18.4699H55.8491V15.3059H53.3307C52.829 15.3059 52.4004 14.9353 52.3323 14.436C52.0323 13.0469 51.4803 11.7258 50.7013 10.5358C50.4391 10.1375 50.4946 9.61054 50.8324 9.27273L52.6122 7.49029L50.3761 5.25405L48.5938 7.03398C48.2459 7.38442 47.6938 7.4298 47.293 7.13987C46.1989 6.39106 44.6712 5.79108 43.3653 5.51878H43.3628C42.8964 5.42046 42.5636 5.00951 42.5636 4.53304H42.5611V2.01695H39.3973V4.53304C39.3973 5.03727 39.0242 5.46334 38.525 5.53395C37.136 5.83144 35.815 6.38609 34.6276 7.1651C34.2293 7.42478 33.6999 7.37183 33.3646 7.03401L31.5823 5.25408L29.3436 7.49031L31.1259 9.27275C31.4764 9.62067 31.5192 10.1728 31.2318 10.5737C30.4831 11.6678 29.8831 13.1956 29.6108 14.5016C29.5125 14.9705 29.1016 15.3033 28.6252 15.3033V15.3058H26.1067V18.4699H28.6252C29.1294 18.4699 29.5554 18.843 29.6235 19.3397C29.7369 19.8616 29.8857 20.3734 30.0672 20.8725L31.731 19.2086C33.6444 17.2951 33.6545 16.1253 33.6646 14.9731C33.6772 13.4452 33.6898 11.9376 35.989 9.64084C38.6839 6.95075 42.8357 6.37091 46.1665 8.22144C46.4816 8.39793 46.6782 8.73071 46.6807 9.09127C46.6833 9.45179 46.4942 9.78709 46.1816 9.97116L40.7237 13.1226V16.3093L43.4791 17.9001L49.0328 14.6932H49.0303C49.3505 14.5092 49.7438 14.5117 50.0589 14.7033C50.3715 14.8949 50.558 15.2428 50.5404 15.6084C50.5631 17.8925 49.6631 20.0884 48.0471 21.6995C45.748 23.9987 44.243 24.0113 42.7153 24.024C41.5632 24.0341 40.3934 24.0442 38.48 25.9577L36.7326 27.7024ZM8.52028 39.6529L9.55894 41.0975L17.0994 35.677C18.6121 34.5576 20.5179 34.1089 22.3708 34.4391L36.425 36.7384C39.4225 37.23 40.8897 40.626 39.9317 43.1144C40.8519 42.7766 41.7771 42.2471 42.7552 41.5462L51.5284 35.2409C54.6014 33.0323 59.2876 34.8223 59.9259 37.6233C60.1805 38.7453 59.7999 39.91 58.4562 40.8757L41.2055 53.2747C39.6929 54.3941 37.7845 54.8429 35.9316 54.5126L23.1984 52.4301C21.8724 52.1906 20.506 52.5108 19.4245 53.3125L18.7085 53.8269L19.7774 55.3118H19.7749C19.9337 55.5312 19.9967 55.806 19.9488 56.0707C19.9035 56.3379 19.7522 56.5724 19.5303 56.7262L15.0556 59.8197V59.8222C14.6523 60.102 14.1027 60.0466 13.7598 59.6911L0.282583 45.6559C0.0758649 45.4416 -0.0249742 45.1491 0.00527425 44.8542C0.0380468 44.5592 0.196865 44.2919 0.441402 44.1256L7.09904 39.3858C7.32088 39.2294 7.59819 39.1689 7.86541 39.2168C8.13516 39.2673 8.36904 39.426 8.52028 39.6529ZM10.7312 42.7286L17.5353 52.1956C18.6395 51.4014 19.3807 50.8417 20.7597 50.519C21.6672 50.3123 22.605 50.2845 23.5226 50.4434L36.2558 52.5284H36.2532C37.5818 52.7679 38.9482 52.4477 40.0297 51.6434L57.2804 39.2444C58.14 38.6267 58.1527 38.0493 57.5955 37.4291C56.5493 36.2644 54.225 35.7753 52.6998 36.872L43.9267 43.1774C41.499 44.922 39.1167 45.9027 36.1951 45.4363L29.391 44.3219H29.3885C29.1238 44.2841 28.8843 44.1379 28.728 43.9211C28.5692 43.7042 28.5036 43.432 28.5465 43.1672C28.5894 42.9025 28.7381 42.6655 28.9574 42.5092C29.1767 42.3529 29.449 42.2924 29.7112 42.3378L36.4373 43.4395C37.1961 43.4168 37.6877 43.0891 37.9448 42.6252C38.6532 41.352 37.8944 39.02 36.0994 38.725L22.0452 36.4257L22.0477 36.4231C20.7217 36.1836 19.3553 36.5038 18.2713 37.3081L10.7312 42.7286ZM17.5457 55.6544L7.44884 41.6037L2.53797 45.1005L14.6161 57.6784L17.5457 55.6544ZM28.5221 22.4155L28.5246 22.418C28.2448 21.7928 28.0129 21.1473 27.8339 20.4868H25.0986C24.5415 20.4868 24.0902 20.0355 24.0902 19.4784V14.2974C24.0902 13.7402 24.5415 13.289 25.0986 13.289H27.8339C28.1339 12.1872 28.5725 11.1283 29.1397 10.1375L27.2061 8.2038C26.8129 7.8105 26.8129 7.17262 27.2061 6.77685L30.8691 3.11361C31.2624 2.72031 31.9002 2.72031 32.296 3.11361L34.2296 5.04734C35.2203 4.4826 36.2791 4.04391 37.3808 3.7414V1.00846C37.3808 0.451287 37.832 0 38.3892 0H43.5697C43.837 0 44.0941 0.105887 44.2832 0.294974C44.4723 0.484061 44.5781 0.74122 44.5781 1.00848V3.74394C45.6798 4.04396 46.7386 4.48262 47.7294 5.04987L49.6629 3.11363C50.0562 2.72033 50.6941 2.72033 51.0898 3.11363L54.7503 6.77687C55.1461 7.17018 55.1461 7.81057 54.7503 8.20382L52.8167 10.1375C53.3839 11.1284 53.8225 12.1873 54.1225 13.289H56.8578C57.125 13.289 57.3821 13.3949 57.5712 13.584C57.7603 13.773 57.8662 14.0302 57.8662 14.2975V19.4784C57.8662 19.7456 57.7603 20.0028 57.5712 20.1919C57.3822 20.381 57.125 20.4869 56.8578 20.4869H54.1225C53.8225 21.5886 53.3839 22.6475 52.8167 23.6383L54.7503 25.572H54.7528C55.1461 25.9679 55.1461 26.6057 54.7528 26.999L51.0898 30.6622C50.694 31.0555 50.0562 31.0555 49.663 30.6622L47.7294 28.7285C46.7386 29.2932 45.6798 29.7319 44.5781 30.0344V32.7699V32.7674C44.5781 33.0371 44.4723 33.2918 44.2832 33.4809C44.0941 33.67 43.837 33.7758 43.5697 33.7758H38.3892C37.832 33.7758 37.3808 33.3246 37.3808 32.7674V30.0319C36.6346 29.8277 35.906 29.5605 35.2026 29.2327L31.2876 33.1481C30.9548 33.4808 30.4355 33.5388 30.0372 33.2892C27.5843 32.0387 25.5877 30.0471 24.3348 27.594C24.1381 27.2057 24.2112 26.7343 24.5188 26.4267L24.5163 26.4242L28.5221 22.4181L28.5221 22.4155ZM41.1094 9.22C41.8505 9.11663 42.6018 9.14185 43.3329 9.29059L39.2086 11.6731C38.8985 11.8521 38.7069 12.1849 38.7069 12.5429L38.7044 16.8894C38.7044 17.2751 38.9262 17.6281 39.2716 17.797L42.9724 19.9324C43.2875 20.1139 43.6783 20.1114 43.9909 19.9248L48.2815 17.4466V17.4491C47.979 18.518 47.4067 19.4912 46.6202 20.2728C44.8984 21.9947 43.8068 22.0048 42.6976 22.0149C41.1321 22.0275 39.5414 22.0426 37.0506 24.531L30.3904 31.1942C28.782 30.2513 27.4359 28.9176 26.4753 27.3167L33.1562 20.6354C35.647 18.1444 35.6595 16.5561 35.6721 14.988C35.6822 13.8786 35.6898 12.787 37.4141 11.0651H37.4166C38.4124 10.0642 39.7107 9.41625 41.1099 9.21959L41.1094 9.22Z" fill="#0CB4C4" stroke="white" stroke-width="0.4" mask="url(#path-1-inside-1_920_37)"></path></svg>