<svg xmlns="http://www.w3.org/2000/svg" xmlns:xlink="http://www.w3.org/1999/xlink" version="1.1" id="Layer_1" x="0px" y="0px" width="60px" height="60px" viewBox="0 0 60 60" enable-background="new 0 0 60 60" xml:space="preserve"><path fill="#0CB4C4" d="M1.465,4.256h20.538c0.811,0,1.468,0.655,1.468,1.466l0,0V26.26c0,0.811-0.657,1.467-1.468,1.467H1.465 c-0.811,0-1.466-0.657-1.466-1.467V5.722C-0.001,4.911,0.654,4.256,1.465,4.256z M28.449,14.953L42.972,0.429 c0.573-0.572,1.503-0.572,2.074,0L59.57,14.953c0.573,0.571,0.575,1.5,0.001,2.074c-0.001,0.001-0.001,0.001-0.001,0.001 L45.046,31.553c-0.571,0.573-1.501,0.575-2.074,0.003c-0.002-0.001-0.002-0.003-0.002-0.003L28.446,17.029 c-0.573-0.572-0.575-1.501-0.004-2.073c0.002-0.001,0.004-0.003,0.004-0.003H28.449z M1.465,36.528h20.538 c0.811,0,1.468,0.657,1.468,1.468v20.538c0,0.811-0.657,1.466-1.468,1.466H1.465c-0.811,0-1.466-0.655-1.466-1.466V37.996 C-0.001,37.186,0.654,36.528,1.465,36.528z M33.739,36.528h20.538c0.811,0,1.465,0.657,1.465,1.468v20.538 c0,0.811-0.654,1.466-1.465,1.466H33.739c-0.811,0-1.468-0.655-1.468-1.466V37.996C32.271,37.186,32.929,36.528,33.739,36.528z M2.933,7.189v17.604h17.604V7.189H2.933z M31.558,15.991l12.45,12.45l12.448-12.45L44.008,3.542L31.558,15.991z M2.933,39.462 v17.604h17.604V39.462H2.933z M35.205,39.462v17.604H52.81V39.462H35.205z"></path></svg>