<svg xmlns="http://www.w3.org/2000/svg" xmlns:xlink="http://www.w3.org/1999/xlink" version="1.1" id="Layer_1" x="0px" y="0px" width="60px" height="60px" viewBox="0 0 60 60" enable-background="new 0 0 60 60" xml:space="preserve"><g><path fill="#0CB4C4" d="M57.558,24.246l-2.902-2.901c-0.692-0.693-1.071-1.64-1.071-2.648v-4.162c0-4.477-3.657-8.135-8.135-8.135 h-4.098c-1.01,0-1.955-0.378-2.649-1.072l-2.964-2.964c-3.153-3.153-8.323-3.153-11.477,0l-2.9,2.901 c-0.693,0.693-1.64,1.072-2.648,1.072h-4.162c-4.478,0-8.135,3.658-8.135,8.134v4.162c0,1.009-0.379,1.955-1.072,2.648 l-2.963,2.964c-1.514,1.514-2.396,3.595-2.396,5.738s0.819,4.225,2.396,5.738l2.9,2.901c0.693,0.692,1.072,1.64,1.072,2.647v4.162 c0,4.478,3.657,8.135,8.134,8.135h4.162c1.009,0,1.955,0.379,2.648,1.071l2.964,2.964C25.839,59.182,27.919,60,30,60 s4.162-0.818,5.738-2.396l2.901-2.899c0.692-0.694,1.64-1.072,2.647-1.072h4.162c4.478,0,8.135-3.658,8.135-8.134v-4.162 c0-1.01,0.379-1.955,1.071-2.649l2.964-2.964c1.514-1.514,2.396-3.595,2.396-5.738S59.133,25.823,57.558,24.246z M54.467,32.633 l-2.964,2.963l0,0c-1.514,1.515-2.396,3.596-2.396,5.74v4.098c0,2.081-1.702,3.721-3.72,3.721h-4.162 c-2.144,0-4.225,0.819-5.738,2.396l-2.901,2.9c-1.451,1.451-3.846,1.451-5.296,0l-2.964-2.963 c-1.514-1.515-3.595-2.396-5.738-2.396h-4.1c-2.081,0-3.72-1.703-3.72-3.721v-4.162c0-2.144-0.883-4.225-2.396-5.738l-2.9-2.901 c-0.694-0.693-1.072-1.638-1.072-2.647c0-1.009,0.378-1.956,1.072-2.649l2.964-2.963c1.513-1.514,2.396-3.595,2.396-5.739v-4.099 c0-2.081,1.702-3.72,3.72-3.72h4.162c2.144,0,4.225-0.82,5.738-2.396l2.9-2.901c1.45-1.45,3.847-1.45,5.297,0l2.963,2.964 c1.515,1.513,3.595,2.396,5.74,2.396h4.098c2.081,0,3.721,1.703,3.721,3.72v4.162c0,2.144,0.883,4.225,2.396,5.738l2.9,2.901 c0.694,0.694,1.071,1.64,1.071,2.648S55.161,31.939,54.467,32.633z"></path><path fill="#0CB4C4" d="M39.522,20.462c-0.947-0.945-2.396-0.945-3.343,0L20.541,36.164c-0.945,0.946-0.945,2.396,0,3.343 c0.442,0.441,1.072,0.692,1.64,0.692s1.198-0.251,1.64-0.692l15.702-15.702C40.468,22.859,40.468,21.345,39.522,20.462z"></path><circle fill="#0CB4C4" cx="22.748" cy="22.669" r="3.847"></circle><circle fill="#0CB4C4" cx="37.315" cy="37.3" r="3.846"></circle></g></svg>