<svg xmlns="http://www.w3.org/2000/svg" width="60" height="60" viewBox="0 0 60 60" fill="none"><path d="M55.2874 23.4166C54.685 21.0785 53.752 18.8467 52.5354 16.7565L55.2047 12.7534L47.2441 4.79433L43.2283 7.4631C41.1496 6.23499 38.9173 5.31391 36.5669 4.71167L35.622 0H24.3543L23.4094 4.71167C21.0709 5.31391 18.8386 6.2468 16.748 7.4631L12.7441 4.79433L4.78346 12.7534L7.46457 16.7684C6.23622 18.8467 5.31496 21.0785 4.7126 23.4285L0 24.3732V35.6387L4.7126 36.5833C5.31496 38.9215 6.24803 41.1533 7.46457 43.2435L4.79528 47.2466L12.7559 55.2057L16.7598 52.5369C18.8386 53.765 21.0709 54.6861 23.4213 55.2883L24.3661 60H35.6339L36.5787 55.2883C38.9173 54.6861 41.1496 53.7532 43.2402 52.5369L47.2441 55.2057L55.2047 47.2466L52.5354 43.2198C53.7638 41.1415 54.685 38.9097 55.2874 36.5597L60 35.615V24.3495L55.2874 23.4166ZM58.063 34.0445L53.6929 34.9183C53.2913 36.5243 52.4409 40.126 50.2323 43.2671L52.7008 46.975L46.9843 52.6904L43.2756 50.2224C40.6299 51.911 37.9606 53.0447 34.9134 53.6823L34.0394 58.0516H25.9488L25.0748 53.6823C21.9685 53.0919 18.1063 51.0608 16.7126 50.2224L13.0039 52.6904L7.2874 46.975L9.75591 43.2671C7.34646 39.4765 6.66142 36.418 6.29528 34.9183L1.9252 34.0445V25.9555L6.29528 25.0817C6.33071 24.8573 6.95669 21.1021 9.75591 16.7211L7.2874 13.0132L13.0039 7.29778L16.7126 9.76579C17.7047 9.12812 21.0354 7.07341 25.0748 6.30585L25.9488 1.93663H34.0394L34.9134 6.30585C37.5472 6.86085 41.4094 8.38418 43.2756 9.76579L46.9843 7.29778L52.7008 13.0132L50.2323 16.7211C51.4724 18.5987 53.0551 21.6926 53.6929 25.0817L58.063 25.9555V34.0445Z" fill="#0CB4C4"></path><path d="M29.9999 10.6396C19.3227 10.6396 10.6416 19.319 10.6416 29.9941C10.6416 41.8382 20.681 49.3486 29.9999 49.3486C40.677 49.3486 49.3581 40.6692 49.3581 29.9941C49.3581 19.319 40.677 10.6396 29.9999 10.6396ZM18.8148 43.3261C20.1967 38.3429 24.7322 34.8357 29.9999 34.8357C35.2203 34.8357 39.803 38.3665 41.1849 43.3379C38.1495 45.8768 34.2518 47.4119 29.9999 47.4119C25.7479 47.4119 21.8385 45.865 18.8148 43.3261ZM25.1573 28.0575C25.1573 25.3887 27.3306 23.2159 29.9999 23.2159C32.6692 23.2159 34.8424 25.3887 34.8424 28.0575C34.8424 30.7262 32.6692 32.899 29.9999 32.899C27.3306 32.899 25.1573 30.7262 25.1573 28.0575ZM42.7321 41.8382C41.2794 37.8351 38.0077 34.7648 33.992 33.5131C35.6692 32.285 36.7676 30.3011 36.7676 28.0575C36.7676 24.3259 33.7322 21.2793 29.9881 21.2793C26.244 21.2793 23.2085 24.3141 23.2085 28.0575C23.2085 30.2893 24.307 32.2732 25.9841 33.5131C21.9566 34.753 18.6967 37.8115 17.244 41.8382C14.3503 38.7325 12.5668 34.5759 12.5668 30.0059C12.5668 20.4054 20.3857 12.5881 29.9881 12.5881C39.5904 12.5881 47.4211 20.3936 47.4211 29.9941C47.4211 34.5759 45.6259 38.7325 42.7321 41.8382Z" fill="#0CB4C4"></path><path d="M30.9687 3.87305H29.0317V5.80967H30.9687V3.87305Z" fill="#0CB4C4"></path><path d="M30.9687 54.1782H29.0317V56.1149H30.9687V54.1782Z" fill="#0CB4C4"></path><path d="M49.1548 12.2053L47.7852 10.8359L46.4155 12.2053L47.7852 13.5747L49.1548 12.2053Z" fill="#0CB4C4"></path><path d="M10.8325 47.7825L12.2021 49.1519L13.5718 47.7825L12.2021 46.4131L10.8325 47.7825Z" fill="#0CB4C4"></path><path d="M56.126 29.0259H54.189V30.9625H56.126V29.0259Z" fill="#0CB4C4"></path><path d="M5.81103 29.0259H3.87402V30.9625H5.81103V29.0259Z" fill="#0CB4C4"></path><path d="M46.4218 47.7888L47.7915 49.1582L49.1612 47.7888L47.7915 46.4194L46.4218 47.7888Z" fill="#0CB4C4"></path><path d="M13.5782 12.2117L12.2085 10.8423L10.8388 12.2117L12.2085 13.5811L13.5782 12.2117Z" fill="#0CB4C4"></path></svg>