<svg xmlns="http://www.w3.org/2000/svg" width="61" height="60" viewBox="0 0 61 60" fill="none"><path d="M7.21384 25.0396V15.9107C7.21384 13.2324 9.21405 11.0546 11.6723 11.0546H20.1548L18.3357 9.23802C17.9967 8.9 17.9993 8.35558 18.3357 8.01751C18.6747 7.68207 19.2206 7.68207 19.5596 8.01751L22.8537 11.3048C22.8744 11.3255 22.8925 11.3461 22.9132 11.3693C22.921 11.3771 22.9262 11.3874 22.9314 11.3952C22.9417 11.4081 22.9521 11.4235 22.9624 11.4364C22.9702 11.4468 22.9753 11.4597 22.9831 11.47C22.9909 11.4829 22.9986 11.4958 23.0064 11.5087C23.0142 11.5216 23.0193 11.5319 23.0245 11.5448C23.0323 11.5577 23.0374 11.5706 23.0426 11.5861C23.0478 11.599 23.0504 11.6093 23.0556 11.6222C23.0607 11.6377 23.0659 11.6506 23.0711 11.6661C23.0737 11.679 23.0763 11.6893 23.0814 11.7022C23.0866 11.7177 23.0892 11.7332 23.0918 11.7487C23.0944 11.7616 23.097 11.777 23.0995 11.7925C23.1021 11.8054 23.1047 11.8183 23.1047 11.8338C23.1073 11.8596 23.1073 11.8828 23.1099 11.9086V11.9164V11.919C23.1099 11.9473 23.1073 11.9757 23.1047 12.0041C23.1021 12.017 23.0995 12.0299 23.0995 12.0428C23.097 12.0583 23.0944 12.0738 23.0918 12.0867C23.0892 12.1022 23.084 12.1151 23.0814 12.1305C23.0788 12.1434 23.0763 12.1563 23.0711 12.1692C23.0659 12.1821 23.0607 12.1951 23.0556 12.2105C23.0504 12.2234 23.0478 12.2363 23.0426 12.2492C23.0374 12.2621 23.0323 12.2725 23.0245 12.2854C23.0193 12.2983 23.0116 12.3112 23.0064 12.3241C22.9986 12.337 22.9935 12.3473 22.9857 12.3576C22.9779 12.3705 22.9702 12.3834 22.9624 12.3963C22.9546 12.4092 22.9443 12.4221 22.9365 12.4324C22.9288 12.4428 22.921 12.4531 22.9132 12.4634C22.8951 12.484 22.877 12.5073 22.8563 12.5279L19.5622 15.8127C19.394 15.9804 19.1715 16.0655 18.9516 16.0655C18.729 16.0655 18.5091 15.9804 18.3409 15.8127C18.0019 15.4746 18.0019 14.9302 18.3409 14.5922L20.1574 12.7808H11.6776C10.1716 12.7808 8.94765 14.1845 8.94765 15.9107V25.0396C8.94765 25.517 8.5595 25.9014 8.08337 25.9014C7.60466 25.9014 7.2191 25.5144 7.2191 25.0396L7.21384 25.0396ZM61 18.0906V21.1895C61 22.3377 60.1616 23.2383 58.8134 23.5376L55.9231 24.1956C55.6488 25.0677 55.2969 25.9141 54.8699 26.7217L56.4509 29.2297C57.1884 30.3934 57.1419 31.6191 56.3319 32.4319L54.135 34.6226C53.3173 35.4328 52.0856 35.4767 50.9186 34.7413L48.406 33.1647C47.5934 33.5905 46.7473 33.9414 45.8727 34.2123L45.2129 37.0997C44.9101 38.4414 44.0096 39.2775 42.8581 39.2775H39.7504C38.5989 39.2775 37.6958 38.4415 37.3956 37.0971L36.7384 34.2149C35.8612 33.9414 35.0124 33.5905 34.2025 33.1647L31.6873 34.7413C30.5203 35.4767 29.2886 35.4303 28.4761 34.62L26.2792 32.4319C25.4666 31.6165 25.4227 30.3883 26.1601 29.2246L27.7412 26.7191C27.3142 25.9088 26.9623 25.0625 26.6906 24.193L23.7951 23.535C22.4495 23.2357 21.6111 22.3352 21.6111 21.1869V18.088C21.6111 16.9397 22.4495 16.0392 23.7976 15.7399L26.6906 15.0819C26.9623 14.2124 27.3142 13.366 27.7412 12.5558L26.1601 10.0477C25.4227 8.88404 25.4692 7.65837 26.2792 6.84556L28.4787 4.65488C29.2912 3.84464 30.5203 3.7982 31.6899 4.53618L34.2025 6.11274C35.0151 5.68699 35.8612 5.33605 36.7358 5.06516L37.3956 2.17779C37.6958 0.836069 38.5989 0 39.7504 0H42.8581C44.0096 0 44.9101 0.836002 45.2129 2.18037L45.8727 5.06516C46.7447 5.33609 47.5935 5.68702 48.406 6.11274L50.9212 4.53618C52.0856 3.80336 53.3173 3.84722 54.1324 4.65488L56.3293 6.84556C57.1419 7.66095 57.1859 8.88919 56.4484 10.0503L54.8673 12.5558C55.2943 13.3635 55.6462 14.2098 55.9179 15.0819L58.8134 15.7399C60.159 16.0392 60.9974 16.9397 60.9974 18.088L61 18.0906ZM59.2715 18.0906C59.2715 17.6571 58.6866 17.479 58.4357 17.4248L55.0407 16.6533C54.7302 16.5836 54.4844 16.3463 54.399 16.0418C54.104 14.9658 53.6718 13.9285 53.1155 12.9557C52.9577 12.6796 52.9654 12.339 53.1336 12.0707L54.9864 9.13433C55.1261 8.915 55.4133 8.37574 55.1054 8.06607L52.9137 5.88055C52.6058 5.5735 52.0623 5.86249 51.845 5.99925L48.9003 7.84676C48.6312 8.01706 48.2896 8.02222 48.0127 7.86482C47.0372 7.31006 45.997 6.88172 44.9179 6.58499C44.61 6.49984 44.3745 6.25471 44.3047 5.94508L43.5309 2.56229C43.474 2.30943 43.2955 1.72372 42.8608 1.72372H39.753C39.3183 1.72372 39.1398 2.30686 39.0854 2.55714L38.3117 5.9425C38.2418 6.25214 38.0038 6.49726 37.6984 6.58242C36.6194 6.87657 35.5792 7.30751 34.6036 7.86225C34.3267 8.01965 33.9852 8.0119 33.7161 7.84419L30.7714 5.99667C30.6006 5.8883 30.0184 5.56318 29.7053 5.8754L27.5058 8.0635C27.2005 8.37055 27.4877 8.90981 27.6248 9.12918L29.4776 12.0656C29.6484 12.3339 29.6535 12.6745 29.4957 12.9506C28.9394 13.9234 28.5098 14.9606 28.2122 16.0366C28.1268 16.3437 27.881 16.5785 27.5705 16.6482L24.1781 17.4197C23.9245 17.4765 23.3372 17.6545 23.3372 18.088V21.1869C23.3372 21.6204 23.922 21.7985 24.173 21.8526L27.5679 22.6242C27.8784 22.6938 28.1243 22.9312 28.2097 23.2357C28.5046 24.3117 28.9368 25.349 29.4931 26.3218C29.651 26.5979 29.6432 26.9384 29.475 27.2068L27.6222 30.1432C27.4825 30.3625 27.1953 30.9017 27.5032 31.2114L29.7001 33.3969C30.0158 33.7117 30.5954 33.3866 30.7662 33.2782L33.7109 31.4307C33.8507 31.343 34.0111 31.2991 34.1715 31.2991C34.319 31.2991 34.4665 31.3378 34.5985 31.4127C35.5715 31.9648 36.6117 32.3958 37.6985 32.6951C38.0064 32.7802 38.2419 33.0253 38.3117 33.335L39.0803 36.7126C39.1372 36.9655 39.3158 37.5486 39.7505 37.5486H42.8582C43.2929 37.5486 43.4715 36.9655 43.5258 36.7152L44.2995 33.3298C44.3694 33.0202 44.6075 32.7751 44.9128 32.6899C45.9918 32.3958 47.032 31.9648 48.0076 31.4101C48.2845 31.2527 48.626 31.2604 48.8951 31.4281L51.8398 33.2757C52.0598 33.415 52.6006 33.7014 52.9111 33.3944L55.1028 31.2088C55.4108 30.9018 55.121 30.3599 54.9838 30.1432L53.1311 27.2068C52.9603 26.9384 52.9551 26.5978 53.1129 26.3218C53.6667 25.3542 54.0988 24.3143 54.399 23.2331C54.4844 22.9286 54.7302 22.6938 55.0407 22.6216L58.4279 21.8501C58.6841 21.7933 59.2689 21.6153 59.2689 21.1818V18.0828L59.2715 18.0906ZM50.22 19.6413C50.22 24.5439 46.2221 28.5305 41.3056 28.5305C36.3892 28.5305 32.3913 24.5439 32.3913 19.6413C32.3913 14.7388 36.3892 10.7522 41.3056 10.7522C46.2221 10.7522 50.22 14.7388 50.22 19.6413ZM48.4914 19.6413C48.4914 15.6909 45.2672 12.4756 41.3054 12.4756C37.3435 12.4756 34.1193 15.6907 34.1193 19.6413C34.1193 23.5918 37.3435 26.8071 41.3054 26.8071C45.2672 26.8071 48.4914 23.592 48.4914 19.6413ZM30.2514 42.0798C30.5024 43.0217 30.0237 43.9428 28.999 44.4847L27.0867 45.491C27.0531 46.1231 26.9703 46.7553 26.8383 47.3772L28.4245 48.8402C29.2732 49.6298 29.4958 50.6413 29.0093 51.485L27.819 53.5441C27.3248 54.3904 26.3337 54.7026 25.2287 54.3595L23.1638 53.7222C22.6929 54.1453 22.1857 54.535 21.65 54.8807L21.7328 57.0353C21.7768 58.1912 21.2179 59.0659 20.2734 59.3188L17.9704 59.9329C17.8022 59.9768 17.6366 60 17.4736 60C16.7103 60 16.0064 59.5278 15.5613 58.6866L14.5548 56.7798C13.9182 56.7488 13.2842 56.6662 12.6606 56.5321L11.1908 58.1138C10.4042 58.9601 9.38722 59.1846 8.53851 58.6969L6.47616 57.51C5.62745 57.0223 5.31174 56.0314 5.65587 54.9271L6.29501 52.868C5.86546 52.3932 5.4773 51.89 5.13575 51.3585L2.97768 51.441C1.82101 51.4849 0.943818 50.9301 0.685072 49.9909L0.0666326 47.6892C-0.186953 46.7449 0.294343 45.8237 1.32161 45.287L3.22869 44.2833C3.26232 43.6485 3.34513 43.0189 3.4771 42.3971L1.89349 40.9314C1.04213 40.147 0.817035 39.1329 1.3061 38.2892L2.50159 36.2327C2.98806 35.3889 3.98172 35.0767 5.08918 35.4173L7.15411 36.0546C7.63023 35.6263 8.13484 35.2366 8.66525 34.8961L8.58245 32.7441C8.53846 31.5881 9.09738 30.7134 10.047 30.4605L12.3449 29.8438C13.2919 29.591 14.2131 30.0709 14.7565 31.0953L15.7657 33.0021C16.4022 33.0331 17.0336 33.1156 17.6572 33.2498L19.127 31.6681C19.9163 30.8166 20.9332 30.5947 21.7819 31.0875L23.8443 32.2719C24.693 32.7596 25.0061 33.7479 24.662 34.8548L24.0228 36.9139C24.4498 37.3835 24.838 37.8893 25.1847 38.4208L27.3453 38.3382C28.502 38.2944 29.3818 38.8517 29.6354 39.7986L30.2512 42.0926L30.2514 42.0798ZM28.5798 42.5237L27.9639 40.2323C27.9225 40.0723 27.5835 40.044 27.4102 40.0517L24.7475 40.1523C24.4318 40.1652 24.1317 40.0001 23.9686 39.7266C23.5417 39.0015 23.0241 38.3332 22.4342 37.7346C22.2091 37.5075 22.1288 37.1772 22.222 36.8728L23.0086 34.3311C23.0604 34.166 23.1199 33.8331 22.9802 33.7506L20.9152 32.5636C20.7367 32.4604 20.4107 32.8087 20.3951 32.8242L18.5812 34.7749C18.3638 35.0097 18.0352 35.1026 17.7272 35.0226C16.9147 34.8085 16.0763 34.6975 15.2354 34.6949C14.9171 34.6923 14.6221 34.5169 14.4746 34.2356L13.2274 31.8824C13.1472 31.7302 12.9531 31.4515 12.7953 31.4928L10.4974 32.1095C10.337 32.1533 10.3085 32.4888 10.3137 32.6617L10.4146 35.3193C10.4276 35.6367 10.262 35.936 9.98768 36.096C9.27093 36.514 8.5981 37.0275 7.99263 37.6261C7.76492 37.8506 7.4337 37.9306 7.12836 37.8377L4.57952 37.0533C4.5614 37.0481 4.09822 36.9088 3.9973 37.0817L2.80181 39.1382C2.70089 39.3137 3.05281 39.6414 3.06833 39.6543L5.02198 41.4631C5.25486 41.6798 5.3506 42.0049 5.27039 42.312C5.0582 43.1248 4.94694 43.966 4.94176 44.8072C4.93917 45.1245 4.76322 45.4161 4.48117 45.5632L2.12642 46.8017C2.10572 46.812 1.68134 47.0365 1.73569 47.2326L2.35155 49.5291C2.40589 49.7252 2.88718 49.7071 2.90788 49.7071L5.57053 49.6065C5.88881 49.5936 6.18897 49.7588 6.34942 50.0349C6.7712 50.7547 7.28616 51.4231 7.88129 52.0294C8.10383 52.2565 8.18404 52.5868 8.09089 52.8887L7.30425 55.4303C7.29649 55.4509 7.15935 55.9077 7.33789 56.0109L9.40024 57.1978C9.57879 57.301 9.90483 56.9527 9.91777 56.9372L11.7317 54.9865C11.8973 54.8085 12.1276 54.7104 12.3657 54.7104C12.4381 54.7104 12.5132 54.7207 12.5856 54.7388C13.3982 54.953 14.2391 55.0639 15.0801 55.0665C15.4009 55.0691 15.6933 55.2445 15.8408 55.5258L17.0829 57.879C17.0932 57.8971 17.3183 58.3177 17.515 58.2661L19.818 57.652C19.9733 57.6107 20.0043 57.2727 19.9966 57.0998L19.8956 54.4447C19.8827 54.1273 20.0483 53.8306 20.3226 53.668C21.0549 53.2397 21.7277 52.7236 22.3228 52.1379C22.5505 51.9134 22.8817 51.8334 23.1871 51.9263L25.7359 52.7107C25.7566 52.7184 26.2146 52.8578 26.3181 52.6772L27.5059 50.6206C27.6068 50.4452 27.2575 50.1149 27.2419 50.102L25.2883 48.3009C25.0554 48.0867 24.9597 47.759 25.0373 47.452C25.2495 46.634 25.3608 45.7954 25.3659 44.9568C25.3685 44.6395 25.5445 44.3479 25.8265 44.2008L28.1813 42.9623C28.2253 42.9391 28.6238 42.7223 28.572 42.5262L28.5798 42.5237ZM21.958 43.0655C22.962 46.8044 20.7289 50.6593 16.9821 51.6607C16.3766 51.8233 15.7607 51.9033 15.1475 51.9033C13.9287 51.9033 12.7255 51.5833 11.6386 50.9614C10.011 50.0248 8.8466 48.5102 8.36011 46.7014C7.87363 44.89 8.12463 42.9986 9.06394 41.3756C10.0033 39.7526 11.5222 38.5915 13.3361 38.1064C17.0804 37.1052 20.9461 39.332 21.9557 43.0683L21.958 43.0655ZM20.2891 43.5119C19.6525 41.151 17.5022 39.5873 15.1604 39.5873C14.7075 39.5873 14.2469 39.6466 13.7889 39.7679C12.4201 40.1343 11.2737 41.009 10.5647 42.2347C9.85575 43.4604 9.66682 44.8846 10.0343 46.2522C10.4017 47.6172 11.2789 48.7603 12.5081 49.4673C13.7346 50.1743 15.1681 50.3627 16.537 49.9962C19.3627 49.2402 21.0472 46.3322 20.2891 43.5119ZM48.6776 37.7243C48.1989 37.7243 47.8133 38.1114 47.8133 38.5861V47.715C47.8133 49.4413 46.5893 50.845 45.0834 50.845H36.6036L38.4227 49.0336C38.7616 48.6982 38.7616 48.1511 38.4227 47.8131C38.0863 47.4751 37.5377 47.4751 37.1987 47.8131L33.902 51.0978C33.8813 51.1185 33.8632 51.1391 33.8451 51.1598C33.8425 51.1649 33.8399 51.1675 33.8347 51.1727C33.8192 51.1907 33.8063 51.2088 33.7933 51.2294C33.7908 51.2346 33.7882 51.2372 33.7856 51.2423C33.7726 51.263 33.7597 51.281 33.7494 51.3043C33.7468 51.3068 33.7468 51.3094 33.7468 51.312C33.7338 51.3352 33.7235 51.3584 33.7131 51.3817V51.3842C33.6924 51.4359 33.6743 51.4875 33.664 51.5442C33.664 51.5468 33.664 51.552 33.6614 51.5545C33.6562 51.5778 33.6536 51.6036 33.651 51.6268C33.6484 51.6552 33.6459 51.6836 33.6459 51.712V51.7249C33.6459 51.7507 33.6484 51.7739 33.651 51.7997C33.6536 51.8229 33.6562 51.8461 33.6614 51.8693C33.6614 51.8745 33.664 51.8797 33.664 51.8848C33.6691 51.9106 33.6769 51.9364 33.6821 51.9622C33.6821 51.9648 33.6821 51.9648 33.6847 51.9674C33.6924 51.9932 33.7002 52.0164 33.7105 52.0422C33.7105 52.0448 33.7131 52.0448 33.7131 52.0474C33.7235 52.0706 33.7338 52.0913 33.7442 52.1145C33.7468 52.1171 33.7468 52.1222 33.7494 52.1248C33.7597 52.1454 33.7726 52.1635 33.7856 52.1841C33.7882 52.1893 33.7908 52.1945 33.7933 52.1996C33.8063 52.2177 33.8192 52.2358 33.8322 52.2512C33.8373 52.2564 33.8399 52.2616 33.8425 52.2667C33.8606 52.2874 33.8787 52.3106 33.8994 52.3286L37.1961 55.616C37.3643 55.7837 37.5868 55.8688 37.8068 55.8688C38.0293 55.8688 38.2493 55.7837 38.4175 55.616C38.7564 55.278 38.7564 54.7335 38.4175 54.3955L36.5958 52.5789H45.0756C47.5338 52.5789 49.5341 50.4011 49.5341 47.7228V38.5939C49.5341 38.1165 49.1459 37.732 48.6698 37.732L48.6776 37.7243Z" fill="#0CB4C4"></path></svg>