<svg xmlns="http://www.w3.org/2000/svg" xmlns:xlink="http://www.w3.org/1999/xlink" version="1.1" id="Layer_1" x="0px" y="0px" width="60px" height="60px" viewBox="0 0 60 60" enable-background="new 0 0 60 60" xml:space="preserve"><g><path fill="#0CB4C4" d="M56.4,14.2H39.6V3.6C39.602,1.615,37.986,0,36,0H3.6C1.615,0,0,1.615,0,3.6v52.798 C0,58.386,1.615,60,3.6,60H36c1.986,0,3.602-1.614,3.602-3.602V45.8H56.4c1.986,0,3.601-1.614,3.601-3.601v-24.4 C60,15.814,58.387,14.2,56.4,14.2 M57.602,17.799v6.5H25.726v-6.5c0-0.662,0.539-1.2,1.201-1.2H56.4 C57.063,16.599,57.602,17.137,57.602,17.799 M3.6,2.4H36c0.662,0,1.2,0.538,1.2,1.2v4.274H2.4V3.6C2.4,2.938,2.938,2.4,3.6,2.4 M36,57.602H3.6c-0.661,0-1.199-0.539-1.199-1.201v-4.275h34.8V56.4C37.2,57.063,36.662,57.602,36,57.602 M37.2,49.727H2.4V10.275 h34.8V14.2H26.927c-1.985,0-3.602,1.614-3.602,3.6v24.4c0,1.985,1.616,3.601,3.602,3.601H37.2V49.727z M56.4,43.398H26.927 c-0.662,0-1.201-0.537-1.201-1.199V26.7h31.875v15.5C57.602,42.861,57.063,43.398,56.4,43.398"></path><path fill="#0CB4C4" d="M29.313,19.6c-0.663,0-1.2,0.537-1.2,1.2c0,0.663,0.537,1.2,1.2,1.2h8.3c0.662,0,1.199-0.538,1.199-1.2 c0-0.663-0.537-1.2-1.199-1.2H29.313z"></path><path fill="#0CB4C4" d="M46.514,22.005c0.084,0,0.154-0.012,0.238-0.024c0.072-0.024,0.145-0.048,0.216-0.073 c0.072-0.035,0.144-0.072,0.218-0.107c0.06-0.048,0.119-0.096,0.18-0.157c0.217-0.215,0.349-0.527,0.349-0.839 c0-0.324-0.132-0.636-0.349-0.852c-0.336-0.337-0.864-0.444-1.309-0.264c-0.145,0.061-0.275,0.156-0.396,0.264 c-0.218,0.215-0.349,0.527-0.349,0.852c0,0.312,0.131,0.625,0.349,0.839C45.889,21.874,46.2,22.005,46.514,22.005"></path><path fill="#0CB4C4" d="M50.268,22.005c0.072,0,0.157-0.012,0.229-0.024c0.071-0.024,0.155-0.048,0.229-0.073 c0.07-0.035,0.144-0.072,0.203-0.107c0.072-0.048,0.133-0.096,0.18-0.157c0.229-0.215,0.359-0.527,0.359-0.839 c0-0.324-0.132-0.636-0.359-0.852c-0.323-0.337-0.862-0.444-1.308-0.264c-0.144,0.061-0.274,0.156-0.385,0.264 c-0.229,0.215-0.349,0.527-0.349,0.852c0,0.312,0.119,0.625,0.349,0.839C49.645,21.874,49.943,22.005,50.268,22.005"></path><path fill="#0CB4C4" d="M54.014,22.005c0.084,0,0.154-0.012,0.238-0.024c0.072-0.024,0.145-0.048,0.216-0.073 c0.072-0.035,0.144-0.072,0.218-0.107c0.06-0.048,0.119-0.096,0.18-0.157c0.217-0.227,0.349-0.527,0.349-0.839 c0-0.324-0.132-0.625-0.349-0.852c-0.336-0.337-0.864-0.444-1.309-0.264c-0.145,0.061-0.275,0.156-0.396,0.264 c-0.218,0.227-0.349,0.527-0.349,0.852c0,0.312,0.131,0.612,0.349,0.839C53.389,21.874,53.7,22.005,54.014,22.005"></path></g></svg>