<svg xmlns="http://www.w3.org/2000/svg" aria-labelledby="svgTitle" id="Layer_1" data-name="Layer 1" width="60" height="60" viewBox="0 0 60 60"><title id="svgTitle">Compliance Assurance Software</title><defs><style> .cls-1 { fill: #0cb4c4; } </style></defs><path class="cls-1" d="M59.59,31.86A2.07,2.07,0,0,0,57.87,31H47v-7.8a1.72,1.72,0,0,0-1.72-1.73H42.43V.91A.86.86,0,0,0,41.53,0h-36a.86.86,0,0,0-.91.91v20.6H1.77A1.72,1.72,0,0,0,.05,23.24v35A1.72,1.72,0,0,0,1.77,60H48.25a2,2,0,0,0,1.9-1.27l9.71-25a2.27,2.27,0,0,0-.27-1.91ZM45.16,23.33V31H42.44V23.33ZM6.4,1.82H40.71V31H17.56a2,2,0,0,0-1.9,1.27l-.28.73H10a.91.91,0,0,0,0,1.82h4.63L13,38.94H10a.91.91,0,1,0,0,1.82H12.3L9.12,48.93H6.4ZM1.86,23.33H4.58v26.5a.86.86,0,0,0,.91.91h3L5.94,57.19a1.56,1.56,0,0,0-.09.9h-4ZM58.14,33,48.43,58c0,.09-.09.09-.19.09H7.85c-.18,0-.18-.09-.27-.09v-.09l9.71-25c0-.09.09-.09.18-.09H57.78c.18,0,.18.09.27.09a.28.28,0,0,1,.09.18Z"></path><path class="cls-1" d="M10,11.71H36.9a.86.86,0,0,0,.91-.91V5.17a.86.86,0,0,0-.91-.9H10a.85.85,0,0,0-.91.9V10.8a.91.91,0,0,0,.91.91Zm.91-5.63H36V9.89H10.94Z"></path><path class="cls-1" d="M10,16.88H36.9a.91.91,0,1,0,0-1.81H10a.91.91,0,1,0,0,1.81Z"></path><path class="cls-1" d="M10,22.88H36.9a.91.91,0,0,0,0-1.82H10a.86.86,0,0,0-.91.91.91.91,0,0,0,.91.91Z"></path><path class="cls-1" d="M10,28.87H36.9a.91.91,0,0,0,0-1.82H10a.86.86,0,0,0-.91.91.91.91,0,0,0,.91.91Z"></path><path class="cls-1" d="M44.43,43.3,42.53,43a10.26,10.26,0,0,0-.91-2.27l1.18-1.55a1,1,0,0,0-.09-1.27l-1.64-1.63a1,1,0,0,0-.72-.27,1.72,1.72,0,0,0-.64.18l-1.54,1.27a10,10,0,0,0-2.27-.91l-.27-1.9a1,1,0,0,0-.91-.82H32.27a1,1,0,0,0-.91.82l-.27,1.9a10,10,0,0,0-2.27.91l-1.36-1.18a.85.85,0,0,0-1.18.09L24.55,38a.86.86,0,0,0-.09,1.18l1.18,1.55A10.26,10.26,0,0,0,24.73,43l-1.9.27a1,1,0,0,0-.82.91v2.45a1,1,0,0,0,.82.9l1.9.28a10.66,10.66,0,0,0,.91,2.27l-1.18,1.54a.85.85,0,0,0,.09,1.18l1.73,1.72a.85.85,0,0,0,1.18.1L29,53.47a10,10,0,0,0,2.27.9l.27,1.91a1,1,0,0,0,.91.82H34.9a1,1,0,0,0,.91-.82l.27-1.91a10,10,0,0,0,2.27-.9l1.54,1.18a1,1,0,0,0,1.27-.1l1.64-1.72a.86.86,0,0,0,.09-1.18l-1.18-1.54a10.17,10.17,0,0,0,.91-2.27l1.9-.28a1,1,0,0,0,.82-.9V44.21a1.29,1.29,0,0,0-.91-.91Zm-1.09,2.54-1.72.27c-.37.09-.73.37-.73.73a6.77,6.77,0,0,1-1.18,2.81,1.17,1.17,0,0,0,0,1.09l1.09,1.45-.54.46L38.8,51.56a.83.83,0,0,0-1.09,0A7.3,7.3,0,0,1,35,52.74a1,1,0,0,0-.72.82L34,55.37h-.81l-.28-1.81a1.1,1.1,0,0,0-.72-.82,6.18,6.18,0,0,1-2.73-1.18,1.15,1.15,0,0,0-1.08,0L27,52.65l-.54-.55,1.09-1.45a.83.83,0,0,0,0-1.09,7,7,0,0,1-1.09-2.72,1,1,0,0,0-.73-.73L24,45.84V45l1.72-.27c.37-.09.73-.36.73-.72a6.87,6.87,0,0,1,1.18-2.82,1.17,1.17,0,0,0,0-1.09l-1.09-1.45.54-.54,1.37,1.08a.81.81,0,0,0,1.09,0,7.13,7.13,0,0,1,2.72-1.08,1,1,0,0,0,.73-.82l.27-1.82h.81l.28,1.82a1.13,1.13,0,0,0,.72.82,6.07,6.07,0,0,1,2.73,1.18,1.17,1.17,0,0,0,1.09,0l1.45-1.09.54.54L39.8,40.21a.83.83,0,0,0,0,1.09A9.56,9.56,0,0,1,41,44.12a1,1,0,0,0,.73.72l1.72.27v.73Z"></path><path class="cls-1" d="M33.63,40.21a5.23,5.23,0,0,0-5.17,5.18,5.17,5.17,0,0,0,5.17,5.17,5.18,5.18,0,0,0,0-10.35Zm0,8.63A3.36,3.36,0,1,1,37,45.48,3.41,3.41,0,0,1,33.63,48.84Z"></path></svg>