<svg xmlns="http://www.w3.org/2000/svg" aria-labelledby="svgTitle" width="74" height="60" viewBox="0 0 74 60" fill="none"><title id="svgTitle">Legal Document Management Software</title><path d="M67.8109 36.5671L67.0976 36.9292L66.6484 36.6637V36.6606C66.3054 36.4584 65.9503 36.2804 65.583 36.1265C65.2188 35.9786 64.8424 35.8549 64.4599 35.7583L63.9531 35.6316L63.4219 33.9959H61.5582L61.021 35.6316L60.5202 35.7583C60.1347 35.8549 59.7583 35.9786 59.3911 36.1265C59.0238 36.2804 58.6687 36.4584 58.3257 36.6606L57.8765 36.9262L56.3345 36.1476L55.0202 37.4543L55.8094 38.9844L55.5362 39.431C55.1325 40.11 54.829 40.8403 54.6378 41.6068L54.5103 42.1108L52.8652 42.645V44.4949L54.5103 45.029L54.6378 45.533V45.527C54.7319 45.9072 54.8563 46.2814 55.0081 46.6465C55.1599 47.0117 55.3359 47.3648 55.5393 47.7028L55.8125 48.1464L55.0263 49.6795L56.3406 50.9862L57.8826 50.2016L58.3318 50.4732V50.4762C58.6717 50.6784 59.0269 50.8534 59.3941 51.0043C59.7584 51.1582 60.1347 51.2819 60.5202 51.3725L61.021 51.4992L61.5583 53.1349H63.4189L63.9501 51.4992L64.457 51.3725C64.8424 51.2789 65.2188 51.1582 65.583 51.0043C65.9503 50.8534 66.3054 50.6784 66.6454 50.4762L67.0946 50.2046L68.6366 50.9892L69.9448 49.6825L69.1617 48.1494L69.4288 47.7058C69.8386 47.0298 70.1451 46.2965 70.3364 45.53L70.4639 45.026L72.109 44.4918V42.642L70.4639 42.1078L70.3364 41.6038V41.6068C70.2392 41.2266 70.1148 40.8524 69.9661 40.4873C69.8143 40.1221 69.6352 39.769 69.4288 39.431L69.1617 38.9844L69.9448 37.4543L68.6366 36.1476L67.8109 36.5671ZM23.5898 22.0005L29.9518 25.4257L30.4435 24.5445L24.0421 21.1435L23.5898 22.0005ZM31.4604 26.5996C31.7245 26.9406 31.9218 27.3299 32.0432 27.7434C32.2982 28.5884 32.2284 29.4967 31.8459 30.2935L41.3949 35.5142H47.4321C47.8661 35.6199 48.1696 36.0092 48.1696 36.4528C48.1696 36.8964 47.8661 37.2826 47.4321 37.3913H44.8338L47.7902 39.0057C47.8388 39.0269 47.8873 39.054 47.9329 39.0872C49.666 40.0861 50.3065 42.262 49.3837 44.0304C49.3625 44.0787 49.3382 44.1269 49.3109 44.1722C48.291 45.9225 46.051 46.5442 44.2662 45.5725H44.2632L41.4495 44.0364H41.4464C41.3432 44.1179 41.2158 44.1601 41.0822 44.1631H33.6063C33.1874 44.0424 32.896 43.6592 32.896 43.2246C32.896 42.7901 33.1874 42.4068 33.6063 42.2861H38.2442L28.2889 36.839L28.2555 36.8933V36.8903C28.2342 36.9416 28.2099 36.9899 28.1826 37.0381C27.9793 37.3822 27.7273 37.693 27.4268 37.9556V50.5969H29.2116C31.0237 50.6 32.4928 52.0605 32.4958 53.8622V56.1859C32.4958 56.708 32.0709 57.1275 31.5488 57.1275H27.4299V57.5923C27.4299 57.7311 27.4875 57.8669 27.5877 57.9635C27.6848 58.0661 27.8214 58.1204 27.961 58.1204H66.2238C66.3634 58.1204 66.5 58.063 66.5971 57.9635C66.6973 57.8669 66.755 57.7311 66.755 57.5923V52.5374C66.6062 52.6068 66.4575 52.6732 66.3088 52.7336C66.0204 52.8513 65.726 52.9599 65.4255 53.0504L64.7881 55.0121H60.1896L59.5461 53.0504C59.2487 52.9599 58.9573 52.8543 58.6689 52.7336C58.3806 52.6159 58.0953 52.4831 57.8252 52.3413L55.9767 53.2768L52.7259 50.0447L53.6698 48.2038C53.5211 47.9292 53.3875 47.6486 53.2692 47.3649C53.1508 47.0812 53.0415 46.7855 52.9505 46.4928L50.9745 45.853L50.9775 41.278L52.9505 40.6442C53.0415 40.3455 53.1478 40.0558 53.2692 39.7691C53.3875 39.4824 53.5211 39.2078 53.6698 38.9332L52.7259 37.0923L55.9767 33.8542L57.8282 34.7927H57.8252C58.0983 34.6479 58.3806 34.5151 58.6689 34.4004C58.9573 34.2827 59.2517 34.1741 59.5461 34.0835L60.1896 32.1189H64.7881L65.4255 34.0835C65.726 34.1741 66.0204 34.2797 66.3088 34.4004C66.4575 34.4608 66.6062 34.5272 66.755 34.5966V9.56955C66.755 9.42772 66.6973 9.29493 66.5971 9.19534C66.5 9.09575 66.3634 9.04143 66.2238 9.04143H37.6833V16.1453C37.6863 16.3928 37.5862 16.6312 37.4101 16.8093C37.231 16.9843 36.9913 17.0839 36.7424 17.0839H28.4164L35.1396 20.657H35.1365C35.5524 20.8773 35.865 21.2545 35.9986 21.7042C36.0259 21.7947 36.0471 21.8852 36.0593 21.9758H60.3541C60.864 21.9909 61.2707 22.4073 61.2707 22.9143C61.2707 23.4243 60.864 23.8407 60.3541 23.8559H35.4345L34.87 24.9001C34.4056 25.7601 33.3311 26.083 32.4691 25.6273L32.1018 25.4342L31.4604 26.5996ZM31.7336 30.5167L29.184 35.1913L45.1707 43.9251C46.0722 44.4079 47.1953 44.082 47.6931 43.1948C48.1848 42.2985 47.8539 41.1789 46.9585 40.687L30.9532 31.9416L31.7336 30.5167ZM25.5355 38.8125V38.8094C25.3079 38.8426 25.0802 38.8517 24.8526 38.8396L24.2516 39.9864L24.634 40.1916H24.631C25.0468 40.4119 25.3564 40.7861 25.493 41.2358C25.5112 41.2901 25.5264 41.3505 25.5355 41.4078L25.5355 38.8125ZM23.0375 38.2511L16.7029 34.841L16.2172 35.7161L22.5974 39.1081L23.0375 38.2511ZM15.1972 33.6701V33.6671C14.9332 33.3231 14.7359 32.9338 14.6144 32.5203C14.3382 31.6119 14.4414 30.6312 14.8937 29.7953C14.9058 29.7802 14.9149 29.7621 14.924 29.747L16.897 26.1256V8.95704C16.897 8.65224 17.0488 8.36556 17.3007 8.19354L27.5203 0.202194C27.6872 0.0724271 27.8906 0 28.103 0H57.5791C58.2226 0 58.8387 0.256513 59.294 0.706165C59.7463 1.15884 60.0012 1.77145 60.0012 2.4112V7.1612H66.2236V7.15818C67.5591 7.16422 68.6397 8.24154 68.6427 9.56941V34.0379L69.0009 33.8538L72.2577 37.0919L71.3107 38.9297C71.4594 39.2044 71.5899 39.485 71.7114 39.7656C71.8297 40.0493 71.9329 40.3451 72.0301 40.6408L74 41.2745V45.8465L72.0301 46.4863C71.936 46.782 71.8328 47.0778 71.7114 47.3584V47.3645C71.593 47.6482 71.4594 47.9288 71.3107 48.2034L72.2516 50.0412L68.9947 53.2733L68.6366 53.0922V57.5888H68.6396C68.6366 58.9197 67.556 59.994 66.2205 60H27.9577C26.6221 59.994 25.5416 58.9197 25.5355 57.5888V57.124L0.943942 57.127C0.421868 57.124 0 56.7045 0 56.1854V53.8617C0.00303588 52.0601 1.47209 50.5995 3.28422 50.5965H5.06899V49.2143C5.07506 47.4127 6.54108 45.952 8.3532 45.946H16.8913L16.8943 42.4634L11.5218 39.6026H11.5188C10.6567 39.1408 10.329 38.0725 10.7903 37.2124L11.7828 35.3595V35.3625C12.2472 34.5024 13.3217 34.1796 14.1898 34.6352L14.5601 34.8314L15.1972 33.6701ZM18.7819 22.7732L18.7849 22.7702C19.2433 22.1968 19.8685 21.7742 20.5788 21.566C20.9613 21.4544 21.3619 21.4061 21.7656 21.4212L22.3817 20.2624L22.0236 20.0692C21.1585 19.6105 20.8338 18.5422 21.2951 17.6822L22.2938 15.8293H22.2907C22.7551 14.9692 23.8296 14.6463 24.6947 15.105L25.6751 15.6301V15.6271C25.7449 15.5184 25.8329 15.4249 25.9392 15.3494L36.1199 7.39439C36.2898 7.24048 36.5114 7.159 36.7421 7.159H58.1137V2.409V2.41202C58.1137 2.11929 57.8769 1.88089 57.5795 1.87786H29.0413V8.98177C29.0443 9.23225 28.9442 9.47367 28.7681 9.6487C28.589 9.82676 28.3493 9.92635 28.0973 9.92635H18.7853L18.7819 22.7732ZM29.4296 27.2304L22.4758 23.4883L22.4272 23.4642L22.4303 23.4612C21.5803 23.0145 20.5241 23.3284 20.0597 24.1673V24.1643L16.5418 30.6224C16.5327 30.6375 16.5206 30.6556 16.5145 30.6707C16.0622 31.5157 16.3779 32.5659 17.2217 33.0276L24.215 36.7939C24.6248 37.0142 25.1043 37.0625 25.5475 36.9297C25.9937 36.7999 26.3701 36.5042 26.5947 36.0998L30.1126 29.6447C30.1217 29.6296 30.1338 29.6085 30.1399 29.5904V29.5934C30.3584 29.186 30.404 28.7122 30.2704 28.2686C30.1429 27.825 29.8394 27.4538 29.4297 27.2365L29.4296 27.2304ZM8.21269 38.4835C8.46158 38.9302 8.30375 39.4945 7.85756 39.748C7.41137 40.0015 6.84376 39.8536 6.58275 39.413L4.67358 36.1266C4.41558 35.68 4.57038 35.1066 5.02264 34.8501C5.4749 34.5936 6.05159 34.7475 6.30956 35.1972L8.21269 38.4835ZM5.19561 40.8887C5.69947 41.0245 5.99689 41.5376 5.86338 42.0385C5.7268 42.5395 5.20776 42.8352 4.70692 42.6994L1.1617 41.7578C0.657839 41.622 0.357313 41.109 0.493931 40.605C0.630518 40.1041 1.14955 39.8084 1.65342 39.9441L5.19561 40.8887ZM4.31842 44.667C4.81924 44.5433 5.32616 44.842 5.45973 45.337C5.59329 45.8319 5.3019 46.3419 4.80411 46.4807L1.75059 47.2925V47.2956C1.25584 47.4133 0.755053 47.1145 0.621481 46.6256C0.490963 46.1337 0.776282 45.6297 1.26496 45.4848L4.31842 44.667ZM1.89019 55.2472H30.6008V53.865C30.5978 53.1015 29.9786 52.4798 29.2107 52.4738H3.28333C2.5154 52.4798 1.89617 53.1015 1.89314 53.865L1.89019 55.2472ZM18.7845 45.9464H24.1417C24.6213 45.9433 25.0979 46.049 25.5319 46.2512V42.0926C25.4986 42.2616 25.4409 42.4246 25.3589 42.5785L24.3634 44.4314L24.3604 44.4284C23.899 45.2855 22.8305 45.6144 21.9625 45.1617H21.9595L18.7846 43.4657L18.7845 45.9464ZM24.1417 47.8234H8.3555C7.98823 47.8204 7.6331 47.9683 7.37512 48.2278C7.11408 48.4874 6.96536 48.8374 6.96536 49.2056V50.5878H25.5349V49.2056C25.5319 48.4421 24.9127 47.8204 24.1447 47.8144L24.1417 47.8234ZM12.4987 38.0004L22.7516 43.4536L23.65 41.7908L13.394 36.3376L12.4987 38.0004ZM34.1554 22.2595L23.8993 16.8063L23.0039 18.4721L33.26 23.9193L33.9976 22.5432C34.0219 22.4919 34.0492 22.4436 34.0795 22.3953L34.1554 22.2595ZM62.49 37.8528C65.2308 37.8528 67.5923 39.7812 68.1265 42.4549C68.6607 45.1287 67.2189 47.8055 64.6875 48.8496C62.1531 49.8908 59.2301 49.0096 57.7063 46.7402C56.1857 44.4738 56.4861 41.4529 58.4257 39.5246C59.5032 38.4533 60.9632 37.8498 62.49 37.8528ZM65.2187 40.8525C63.9165 39.5548 61.8738 39.3557 60.341 40.3697C58.8081 41.3866 58.2132 43.3392 58.9175 45.0322C59.6217 46.7252 61.4307 47.6879 63.2367 47.3288C65.0457 46.9727 66.3479 45.3974 66.3479 43.5656C66.3479 42.5486 65.9411 41.5708 65.2187 40.8525ZM60.3501 28.7419C60.8722 28.7419 61.294 29.1614 61.294 29.6804C61.294 30.1994 60.8721 30.622 60.3501 30.622H33.8307C33.3086 30.622 32.8836 30.1995 32.8836 29.6804C32.8836 29.1613 33.3086 28.7419 33.8307 28.7419H60.3501ZM47.2283 49.0517C47.7504 49.0517 48.1723 49.4711 48.1723 49.9902C48.1723 50.5062 47.7503 50.9287 47.2283 50.9287H33.8307C33.3086 50.9287 32.8867 50.5062 32.8867 49.9902C32.8867 49.4711 33.3086 49.0517 33.8307 49.0517H47.2283ZM27.1528 2.87354L20.5359 8.04303H27.1559L27.1528 2.87354ZM35.7942 10.0287L30.2336 14.3774L29.1713 15.2043H35.7912L35.7942 10.0287Z" fill="#0CB4C4"></path></svg>