<svg version="1.1" id="Layer_1" xmlns="http://www.w3.org/2000/svg" xmlns:xlink="http://www.w3.org/1999/xlink" x="0px" y="0px" width="60px" height="60px" viewBox="0 0 60 60" enable-background="new 0 0 60 60" xml:space="preserve"><g><path fill="#0CB4C4" d="M1.579,28.193h25.036c0.871,0,1.578-0.707,1.578-1.578V1.579C28.193,0.707,27.486,0,26.615,0H1.579 C0.707,0,0,0.707,0,1.579v25.037C0,27.486,0.707,28.193,1.579,28.193z M3.157,3.158h21.878v21.877H3.157V3.158z"></path><path fill="#0CB4C4" d="M58.421,0H33.385c-0.871,0-1.578,0.707-1.578,1.579v25.037c0,0.871,0.707,1.578,1.578,1.578h25.036 c0.872,0,1.579-0.707,1.579-1.578V1.579C60,0.707,59.293,0,58.421,0z M56.843,25.035H34.965V3.158h21.878V25.035z"></path><path fill="#0CB4C4" d="M27.075,31.807H2.034c-0.873,0-1.581,0.707-1.581,1.578v25.036C0.453,59.293,1.161,60,2.034,60h25.041 c0.873,0,1.579-0.707,1.579-1.579V33.385C28.654,32.514,27.948,31.807,27.075,31.807z M25.497,56.843H3.612V34.965h21.885V56.843z"></path><path fill="#0CB4C4" d="M56.943,42.695h-9.473v-9.474c0-0.873-0.707-1.579-1.581-1.579c-0.871,0-1.578,0.706-1.578,1.579v9.474 h-9.474c-0.872,0-1.579,0.707-1.579,1.578c0,0.872,0.707,1.579,1.579,1.579h9.474v9.474c0,0.872,0.707,1.58,1.578,1.58 c0.874,0,1.581-0.708,1.581-1.58v-9.474h9.473c0.872,0,1.579-0.707,1.579-1.579C58.522,43.402,57.815,42.695,56.943,42.695z"></path></g></svg>