<svg version="1.1" id="Layer_1" xmlns="http://www.w3.org/2000/svg" xmlns:xlink="http://www.w3.org/1999/xlink" x="0px" y="0px" width="62.1px" height="60px" viewBox="0 0 62.1 60" enable-background="new 0 0 62.1 60" xml:space="preserve"><g><g><path fill="#0CB4C4" d="M16.164,7.942c1.135,0,2.059-0.925,2.059-2.061c0-1.136-0.923-2.061-2.059-2.061s-2.059,0.924-2.059,2.061 C14.105,7.018,15.029,7.942,16.164,7.942z M16.164,4.566c0.724,0,1.313,0.59,1.313,1.316s-0.589,1.315-1.313,1.315 s-1.314-0.59-1.314-1.315C14.85,5.156,15.44,4.566,16.164,4.566z"></path><path fill="#0CB4C4" d="M16.164,8.434c-1.406,0-2.55-1.145-2.55-2.552c0-1.408,1.144-2.553,2.55-2.553s2.55,1.145,2.55,2.553 C18.714,7.289,17.57,8.434,16.164,8.434z M16.164,5.058c-0.453,0-0.822,0.37-0.822,0.824s0.369,0.823,0.822,0.823 c0.453,0,0.821-0.369,0.821-0.823S16.617,5.058,16.164,5.058z"></path></g><g><path fill="#0CB4C4" d="M21.479,7.942c1.136,0,2.058-0.925,2.058-2.061c0-1.136-0.922-2.061-2.058-2.061 c-1.136,0-2.059,0.924-2.059,2.061C19.42,7.018,20.343,7.942,21.479,7.942z M21.479,4.566c0.726,0,1.314,0.59,1.314,1.316 s-0.588,1.315-1.314,1.315c-0.725,0-1.313-0.59-1.313-1.315C20.167,5.156,20.754,4.566,21.479,4.566z"></path><path fill="#0CB4C4" d="M21.479,8.434c-1.406,0-2.55-1.145-2.55-2.552c0-1.408,1.144-2.553,2.55-2.553s2.55,1.145,2.55,2.553 C24.029,7.289,22.885,8.434,21.479,8.434z M21.479,5.058c-0.453,0-0.82,0.37-0.82,0.824s0.368,0.823,0.82,0.823 c0.453,0,0.822-0.369,0.822-0.823S21.932,5.058,21.479,5.058z"></path></g><g><path fill="#0CB4C4" d="M26.793,7.942c1.136,0,2.06-0.925,2.06-2.061c0-1.136-0.923-2.061-2.06-2.061 c-1.134,0-2.058,0.924-2.058,2.061C24.735,7.018,25.659,7.942,26.793,7.942z M26.793,4.566c0.726,0,1.316,0.59,1.316,1.316 s-0.59,1.315-1.316,1.315c-0.724,0-1.312-0.59-1.312-1.315C25.481,5.156,26.069,4.566,26.793,4.566z"></path><path fill="#0CB4C4" d="M26.793,8.434c-1.406,0-2.55-1.145-2.55-2.552c0-1.408,1.144-2.553,2.55-2.553 c1.407,0,2.551,1.145,2.551,2.553C29.345,7.289,28.201,8.434,26.793,8.434z M26.793,5.058c-0.452,0-0.82,0.37-0.82,0.824 s0.368,0.823,0.82,0.823c0.455,0,0.824-0.369,0.824-0.823S27.248,5.058,26.793,5.058z"></path></g><g><path fill="#0CB4C4" d="M43.994,27.824l-3.327-0.473c-0.072-0.353-0.165-0.7-0.276-1.042l2.644-2.077 c0.28-0.22,0.355-0.611,0.178-0.92l-0.832-1.454c-0.177-0.31-0.563-0.44-0.888-0.308l-3.127,1.256 c-0.241-0.27-0.494-0.524-0.759-0.761l1.256-3.129c0.133-0.33,0.003-0.708-0.307-0.886l-1.447-0.836 c-0.311-0.178-0.702-0.103-0.922,0.178l-2.078,2.65c-0.341-0.113-0.687-0.205-1.04-0.28l-0.473-3.333 c-0.05-0.353-0.353-0.615-0.709-0.615h-1.673c-0.356,0-0.658,0.263-0.709,0.615l-0.473,3.333c-0.354,0.074-0.702,0.167-1.041,0.28 l-2.077-2.65c-0.221-0.281-0.615-0.356-0.923-0.178l-1.447,0.836c-0.31,0.178-0.439,0.557-0.307,0.886l1.256,3.13 c-0.267,0.239-0.521,0.494-0.759,0.76l-3.126-1.256c-0.331-0.133-0.709-0.001-0.888,0.308l-0.834,1.454 c-0.178,0.309-0.102,0.699,0.178,0.92l2.647,2.081c-0.112,0.338-0.205,0.685-0.28,1.038l-3.327,0.473 c-0.354,0.051-0.616,0.353-0.616,0.709v1.676c0,0.355,0.261,0.659,0.613,0.709l3.33,0.476c0.075,0.354,0.167,0.701,0.28,1.039 l-2.647,2.081c-0.279,0.22-0.355,0.612-0.178,0.92l0.834,1.45c0.179,0.308,0.555,0.439,0.887,0.308l3.126-1.252 c0.239,0.267,0.493,0.521,0.759,0.757l-1.255,3.129c-0.132,0.329-0.003,0.705,0.305,0.886l1.449,0.841 c0.307,0.18,0.701,0.103,0.923-0.178l2.078-2.653c0.34,0.113,0.689,0.206,1.04,0.276l0.473,3.339 c0.05,0.354,0.353,0.615,0.709,0.615h1.673c0.357,0,0.658-0.262,0.709-0.615L33.068,39c0.351-0.072,0.698-0.165,1.039-0.276 l2.077,2.651c0.223,0.28,0.616,0.357,0.924,0.178l1.448-0.841c0.309-0.181,0.438-0.557,0.306-0.886l-1.256-3.129 c0.267-0.236,0.52-0.49,0.758-0.757l3.127,1.252c0.332,0.131,0.709,0.001,0.889-0.308l0.832-1.45 c0.178-0.308,0.104-0.699-0.177-0.919l-2.645-2.083c0.111-0.339,0.203-0.687,0.276-1.038l3.33-0.476 c0.352-0.05,0.613-0.353,0.613-0.709v-1.676C44.61,28.176,44.349,27.875,43.994,27.824z M43.18,29.589l-3.227,0.462 c-0.313,0.045-0.558,0.289-0.607,0.601c-0.092,0.605-0.249,1.198-0.472,1.766c-0.112,0.293-0.022,0.627,0.227,0.822l2.563,2.018 l-0.215,0.373l-3.027-1.212c-0.293-0.117-0.628-0.03-0.826,0.216c-0.387,0.481-0.82,0.914-1.291,1.288 c-0.246,0.197-0.337,0.533-0.219,0.827l1.218,3.034l-0.374,0.217l-2.013-2.568c-0.195-0.248-0.528-0.338-0.823-0.225 c-0.559,0.217-1.143,0.375-1.738,0.467c-0.321,0.034-0.584,0.284-0.631,0.611l-0.458,3.232h-0.431l-0.459-3.232 c-0.043-0.313-0.288-0.56-0.601-0.607c-0.604-0.092-1.199-0.25-1.768-0.471c-0.295-0.113-0.628-0.023-0.823,0.225L25.171,40 l-0.375-0.216l1.218-3.034c0.118-0.294,0.028-0.63-0.219-0.827c-0.471-0.374-0.904-0.807-1.291-1.288 c-0.198-0.246-0.533-0.333-0.826-0.216l-3.027,1.212l-0.214-0.373l2.567-2.017c0.249-0.197,0.339-0.534,0.223-0.828 c-0.212-0.535-0.369-1.103-0.464-1.685c0.034-0.554-0.133-0.606-3.843-1.139v-0.434l3.226-0.458 c0.313-0.045,0.559-0.29,0.606-0.601c0.094-0.61,0.253-1.203,0.476-1.761c0.116-0.294,0.026-0.631-0.224-0.827l-2.568-2.018 l0.218-0.376l3.025,1.216c0.29,0.118,0.627,0.031,0.826-0.215c0.383-0.479,0.818-0.914,1.295-1.296 c0.245-0.197,0.332-0.533,0.215-0.825l-1.217-3.032l0.372-0.214l2.014,2.568c0.195,0.25,0.533,0.342,0.828,0.224 c0.56-0.223,1.153-0.381,1.762-0.474c0.312-0.046,0.559-0.294,0.602-0.606l0.459-3.23h0.431l0.458,3.23 c0.044,0.313,0.288,0.56,0.601,0.606c0.604,0.093,1.2,0.251,1.767,0.475c0.292,0.115,0.629,0.024,0.825-0.225l2.013-2.568 L37.3,18.96l-1.215,3.032c-0.118,0.293-0.029,0.629,0.218,0.827c0.467,0.371,0.9,0.808,1.292,1.294 c0.198,0.246,0.533,0.333,0.826,0.215l3.025-1.216l0.217,0.376l-2.563,2.013c-0.248,0.195-0.339,0.528-0.227,0.822 c0.222,0.568,0.38,1.163,0.472,1.77c0.047,0.313,0.295,0.557,0.608,0.602l3.226,0.458V29.589L43.18,29.589z"></path><path fill="#0CB4C4" d="M31.886,43.444h-1.673c-0.599,0-1.112-0.446-1.196-1.038l-0.424-3.002 c-0.142-0.034-0.283-0.071-0.423-0.112l-1.868,2.387c-0.366,0.463-1.052,0.596-1.558,0.299l-1.447-0.84 c-0.523-0.307-0.74-0.935-0.515-1.494l1.129-2.815c-0.104-0.1-0.207-0.201-0.307-0.306l-2.813,1.126 c-0.549,0.22-1.203-0.012-1.496-0.518l-0.834-1.451c-0.298-0.515-0.169-1.183,0.299-1.551l2.381-1.873 c-0.04-0.139-0.078-0.28-0.113-0.422l-2.996-0.429c-0.59-0.083-1.034-0.599-1.034-1.196v-1.676c0-0.598,0.446-1.112,1.038-1.196 l2.993-0.426c0.035-0.141,0.072-0.282,0.112-0.421l-2.38-1.871c-0.469-0.37-0.597-1.037-0.3-1.552l0.833-1.454 c0.295-0.509,0.957-0.737,1.499-0.519l2.812,1.129c0.1-0.104,0.203-0.208,0.308-0.308L22.781,19.1 c-0.222-0.556,0.001-1.199,0.519-1.496l1.445-0.835c0.506-0.292,1.194-0.16,1.555,0.3l1.868,2.383 c0.14-0.041,0.281-0.079,0.424-0.114l0.424-2.997c0.085-0.592,0.6-1.038,1.196-1.038h1.673c0.597,0,1.113,0.446,1.196,1.038 l0.425,2.998c0.143,0.035,0.283,0.073,0.424,0.114l1.869-2.383c0.358-0.459,1.046-0.593,1.553-0.301l1.449,0.836 c0.519,0.299,0.74,0.943,0.517,1.497l-1.13,2.814c0.104,0.101,0.208,0.204,0.308,0.309l2.813-1.129 c0.536-0.218,1.207,0.012,1.498,0.52l0.832,1.454c0.298,0.515,0.168,1.183-0.301,1.551l-2.378,1.868 c0.04,0.141,0.078,0.282,0.112,0.424l2.991,0.425c0.592,0.084,1.038,0.598,1.038,1.196v1.676c0,0.597-0.444,1.113-1.035,1.196 l-2.994,0.429c-0.034,0.141-0.072,0.282-0.112,0.422l2.38,1.874c0.468,0.367,0.597,1.035,0.298,1.551l-0.832,1.448 c-0.217,0.375-0.619,0.606-1.05,0.606l0,0c-0.152,0-0.303-0.029-0.444-0.085l-2.815-1.128c-0.1,0.104-0.203,0.206-0.307,0.306 l1.129,2.814c0.223,0.549,0.003,1.191-0.513,1.494l-1.451,0.842c-0.502,0.295-1.19,0.162-1.556-0.298l-1.87-2.388 c-0.14,0.041-0.28,0.078-0.422,0.112l-0.425,3.001C32.997,42.998,32.483,43.444,31.886,43.444z M27.818,38.146l0.33,0.109 c0.321,0.107,0.65,0.194,0.982,0.262l0.34,0.068l0.521,3.684c0.016,0.109,0.11,0.191,0.222,0.191h1.673 c0.113,0,0.206-0.081,0.222-0.192l0.521-3.679l0.339-0.069c0.333-0.069,0.663-0.158,0.986-0.264l0.328-0.106l2.29,2.922 c0.066,0.084,0.193,0.111,0.288,0.057l1.449-0.842c0.097-0.057,0.139-0.173,0.097-0.274l-1.385-3.453l0.259-0.229 c0.251-0.224,0.491-0.464,0.717-0.717l0.23-0.257l3.446,1.381c0.169,0.013,0.239-0.028,0.28-0.099l0.832-1.448 c0.056-0.096,0.031-0.22-0.055-0.288l-2.916-2.294l0.108-0.328c0.105-0.321,0.192-0.651,0.262-0.984l0.07-0.338l3.671-0.525 c0.109-0.015,0.191-0.111,0.191-0.222v-1.676c0-0.113-0.082-0.207-0.193-0.222l-3.67-0.522l-0.07-0.339 c-0.068-0.334-0.156-0.664-0.262-0.988l-0.107-0.327l2.916-2.289c0.086-0.068,0.11-0.191,0.055-0.288l-0.833-1.455 c-0.039-0.068-0.116-0.112-0.197-0.112l-3.527,1.401l-0.23-0.257c-0.229-0.256-0.47-0.498-0.72-0.723l-0.257-0.229l1.384-3.448 c0.042-0.104,0-0.223-0.096-0.278l-1.447-0.835c-0.094-0.056-0.22-0.032-0.287,0.055l-2.293,2.922l-0.328-0.107 c-0.323-0.107-0.651-0.195-0.988-0.266l-0.337-0.071l-0.521-3.674c-0.016-0.11-0.11-0.193-0.222-0.193h-1.673 c-0.111,0-0.207,0.083-0.222,0.193l-0.521,3.674l-0.338,0.071c-0.334,0.069-0.665,0.158-0.984,0.265l-0.329,0.11l-2.291-2.922 c-0.066-0.085-0.195-0.111-0.29-0.056l-1.446,0.835c-0.097,0.055-0.138,0.175-0.096,0.279l1.384,3.449l-0.257,0.229 c-0.254,0.227-0.494,0.468-0.72,0.721l-0.23,0.258l-3.445-1.385c-0.167-0.018-0.239,0.028-0.28,0.097l-0.833,1.453 c-0.057,0.098-0.033,0.219,0.056,0.289l2.918,2.294l-0.108,0.328c-0.107,0.321-0.194,0.65-0.265,0.985l-0.072,0.336l-3.667,0.522 c-0.111,0.016-0.193,0.109-0.193,0.222v1.676c0,0.111,0.082,0.207,0.19,0.222l3.671,0.525l0.071,0.336 c0.071,0.335,0.158,0.666,0.265,0.986l0.108,0.328l-2.919,2.294c-0.086,0.068-0.111,0.191-0.056,0.287l0.834,1.451 c0.04,0.068,0.115,0.112,0.196,0.112l3.527-1.396l0.229,0.256c0.227,0.254,0.467,0.494,0.72,0.718l0.258,0.229l-1.384,3.451 c-0.042,0.104,0,0.22,0.098,0.277l1.446,0.84c0.099,0.059,0.224,0.029,0.29-0.058L27.818,38.146z M31.692,42.011h-1.284 l-0.52-3.656c-0.014-0.098-0.091-0.175-0.189-0.189c-0.643-0.099-1.272-0.267-1.87-0.499l-0.082-0.015 c-0.07,0-0.135,0.031-0.178,0.086l-2.275,2.901l-1.114-0.642l1.377-3.431c0.037-0.092,0.008-0.197-0.069-0.26 c-0.496-0.393-0.956-0.852-1.368-1.363c-0.043-0.054-0.106-0.085-0.176-0.085l-3.507,1.388l-0.64-1.112l2.902-2.28 c0.077-0.061,0.105-0.168,0.069-0.26c-0.226-0.57-0.392-1.172-0.492-1.787l-0.009-0.054l0.004-0.055 c0.001-0.009,0.002-0.014,0.003-0.018c-0.34-0.162-1.777-0.368-3.426-0.604l-0.421-0.061v-1.288l3.648-0.519 c0.098-0.014,0.174-0.089,0.189-0.187c0.101-0.655,0.271-1.284,0.505-1.871c0.035-0.09,0.006-0.197-0.071-0.257l-2.904-2.282 l0.646-1.115l3.42,1.375c0.15,0.016,0.217-0.015,0.26-0.068c0.406-0.507,0.868-0.968,1.37-1.371 c0.075-0.061,0.102-0.167,0.065-0.259l-1.375-3.427l1.111-0.639l2.278,2.903c0.042,0.054,0.108,0.086,0.177,0.086 c0.672-0.251,1.301-0.42,1.952-0.519c0.099-0.015,0.176-0.092,0.189-0.188l0.52-3.654h1.283l0.519,3.652 c0.014,0.099,0.09,0.175,0.188,0.189c0.649,0.1,1.279,0.269,1.874,0.504c0.147,0.014,0.215-0.017,0.259-0.071l2.274-2.902 l1.111,0.639l-1.375,3.428c-0.037,0.093-0.01,0.197,0.068,0.259c0.49,0.39,0.95,0.851,1.369,1.371 c0.042,0.054,0.106,0.084,0.175,0.084l3.506-1.392l0.643,1.116l-2.898,2.276c-0.077,0.062-0.105,0.167-0.069,0.26 c0.233,0.599,0.401,1.229,0.498,1.872c0.015,0.098,0.094,0.175,0.191,0.188l3.648,0.519v1.288l-3.648,0.523 c-0.099,0.014-0.176,0.091-0.191,0.19c-0.098,0.643-0.266,1.273-0.499,1.87c-0.035,0.09-0.007,0.194,0.07,0.255l2.898,2.282 l-0.641,1.11l-3.423-1.37c-0.153-0.016-0.217,0.015-0.26,0.068c-0.412,0.512-0.872,0.971-1.369,1.364 c-0.076,0.062-0.104,0.167-0.068,0.259l1.377,3.43l-1.112,0.645l-2.276-2.904c-0.043-0.054-0.107-0.085-0.177-0.085 c-0.677,0.246-1.295,0.412-1.922,0.51c-0.125,0.013-0.206,0.093-0.221,0.194L31.692,42.011z M27.748,36.668 c0.149,0,0.296,0.027,0.436,0.081c0.532,0.207,1.092,0.356,1.665,0.443c0.525,0.081,0.942,0.503,1.014,1.026l0.188,1.315 l0.187-1.317c0.079-0.549,0.518-0.973,1.065-1.031c0.535-0.083,1.085-0.231,1.613-0.436c0.497-0.191,1.064-0.03,1.387,0.378 l0.83,1.06l-0.503-1.254c-0.197-0.491-0.046-1.064,0.369-1.396c0.439-0.35,0.848-0.757,1.214-1.212 c0.327-0.406,0.904-0.558,1.392-0.364l1.259,0.504l-1.066-0.84c-0.419-0.328-0.572-0.885-0.381-1.384 c0.209-0.532,0.357-1.09,0.445-1.664c0.083-0.532,0.494-0.938,1.022-1.014l1.337-0.192l-1.335-0.189 c-0.526-0.076-0.948-0.493-1.025-1.017c-0.087-0.569-0.235-1.13-0.443-1.664c-0.191-0.501-0.038-1.058,0.38-1.387l1.064-0.835 l-1.256,0.504c-0.484,0.196-1.065,0.044-1.393-0.363c-0.373-0.463-0.782-0.874-1.215-1.218c-0.421-0.335-0.569-0.896-0.368-1.395 l0.497-1.241l-0.823,1.05c-0.324,0.414-0.902,0.571-1.393,0.378c-0.526-0.208-1.085-0.358-1.661-0.446 c-0.53-0.08-0.938-0.491-1.013-1.024l-0.187-1.316l-0.188,1.316c-0.072,0.524-0.491,0.945-1.016,1.024 c-0.575,0.087-1.132,0.237-1.653,0.444c-0.485,0.198-1.072,0.039-1.397-0.377l-0.824-1.05l0.499,1.242 c0.198,0.498,0.052,1.056-0.363,1.39c-0.448,0.358-0.857,0.769-1.219,1.221c-0.332,0.41-0.912,0.562-1.396,0.363l-1.257-0.505 l1.071,0.843c0.417,0.327,0.573,0.9,0.377,1.394c-0.208,0.519-0.357,1.076-0.446,1.655c-0.08,0.529-0.491,0.937-1.023,1.013 l-1.363,0.193c2.091,0.331,2.437,0.536,2.405,1.324c0.09,0.527,0.233,1.043,0.427,1.531c0.195,0.493,0.041,1.066-0.375,1.395 l-1.064,0.837l1.25-0.501c0.486-0.193,1.064-0.042,1.392,0.364c0.366,0.455,0.774,0.862,1.213,1.211 c0.416,0.332,0.567,0.905,0.37,1.396l-0.503,1.253l0.829-1.058C27.028,36.836,27.374,36.668,27.748,36.668z"></path></g><g><path fill="#0CB4C4" d="M31.05,23.754c-3.095,0-5.612,2.52-5.612,5.619s2.518,5.618,5.612,5.618s5.613-2.52,5.613-5.618 S34.145,23.754,31.05,23.754z M31.05,33.56c-2.305,0-4.18-1.878-4.18-4.187s1.875-4.187,4.18-4.187 c2.307,0,4.182,1.878,4.182,4.187S33.356,33.56,31.05,33.56z"></path><path fill="#0CB4C4" d="M31.05,35.482c-3.366,0-6.104-2.74-6.104-6.109s2.739-6.11,6.104-6.11c3.367,0,6.105,2.741,6.105,6.11 S34.417,35.482,31.05,35.482z M31.05,24.246c-2.824,0-5.121,2.3-5.121,5.127c0,2.826,2.296,5.126,5.121,5.126 s5.122-2.3,5.122-5.126C36.172,26.546,33.874,24.246,31.05,24.246z M31.05,34.052c-2.576,0-4.672-2.099-4.672-4.679 s2.096-4.679,4.672-4.679c2.577,0,4.673,2.099,4.673,4.679S33.627,34.052,31.05,34.052z M31.05,25.678 c-2.034,0-3.688,1.658-3.688,3.695s1.655,3.695,3.688,3.695c2.034,0,3.689-1.658,3.689-3.695S33.084,25.678,31.05,25.678z"></path></g><g><path fill="#0CB4C4" d="M56.105,30.09c0.318,1.196,1.4,2.085,2.695,2.085c1.543,0,2.799-1.256,2.799-2.801 c0-1.544-1.256-2.801-2.799-2.801c-1.295,0-2.377,0.888-2.695,2.085h-4.763V23.01h2.842c0.204,0,0.396-0.086,0.532-0.237 l2.813-3.122c0.384,0.198,0.812,0.32,1.271,0.32c1.543,0,2.799-1.257,2.799-2.801s-1.256-2.802-2.799-2.802s-2.8,1.257-2.8,2.802 c0,0.564,0.172,1.088,0.459,1.527l-2.594,2.88h-2.523c0-5.767,0-14.071,0-17.362c0-2.053-1.669-3.723-3.721-3.723H14.478 c-2.052,0-3.719,1.67-3.719,3.723c0,3.297,0,11.591,0,17.362H8.233l-2.594-2.878c0.288-0.44,0.459-0.965,0.459-1.529 c0-1.544-1.256-2.802-2.8-2.802c-1.542,0-2.798,1.257-2.798,2.802s1.255,2.801,2.798,2.801c0.46,0,0.889-0.123,1.272-0.32 l2.813,3.122c0.136,0.151,0.329,0.237,0.531,0.237h2.844v5.648H5.994c-0.318-1.197-1.4-2.085-2.695-2.085 c-1.542,0-2.798,1.257-2.798,2.801c0,1.545,1.255,2.801,2.798,2.801c1.295,0,2.377-0.889,2.695-2.085h4.765v5.648H7.914 c-0.203,0-0.395,0.087-0.531,0.236L4.57,39.097c-0.383-0.198-0.812-0.321-1.272-0.321c-1.542,0-2.798,1.257-2.798,2.803 c0,1.543,1.255,2.802,2.798,2.802c1.544,0,2.8-1.259,2.8-2.802c0-0.565-0.172-1.089-0.459-1.529l2.594-2.878h2.524v8.018 c0,2.052,1.668,3.723,3.72,3.723h8.775v2.863l-2.879,2.595c-0.44-0.288-0.964-0.459-1.528-0.459c-1.545,0-2.802,1.255-2.802,2.799 c0,1.543,1.257,2.798,2.802,2.798c1.544,0,2.802-1.255,2.802-2.798c0-0.461-0.123-0.89-0.32-1.271l3.12-2.812 c0.151-0.136,0.238-0.328,0.238-0.532v-3.183h5.648v5.103c-1.197,0.319-2.086,1.4-2.086,2.695c0,1.543,1.257,2.798,2.802,2.798 c1.546,0,2.802-1.255,2.802-2.798c0-1.295-0.89-2.376-2.086-2.695v-5.103h5.647v3.183c0,0.204,0.088,0.396,0.237,0.532 l3.121,2.812c-0.197,0.382-0.319,0.811-0.319,1.271c0,1.543,1.256,2.799,2.802,2.799c1.544,0,2.801-1.256,2.801-2.799 c0-1.544-1.257-2.799-2.801-2.799c-0.564,0-1.089,0.171-1.528,0.459l-2.881-2.595v-2.863h8.777c2.052,0,3.721-1.671,3.721-3.723 v-8.018h2.523l2.594,2.879c-0.287,0.439-0.459,0.964-0.459,1.528c0,1.543,1.257,2.802,2.8,2.802s2.799-1.259,2.799-2.802 c0-1.546-1.256-2.803-2.799-2.803c-0.46,0-0.888,0.123-1.271,0.321l-2.813-3.122c-0.137-0.149-0.328-0.236-0.532-0.236h-2.842 V30.09H56.105z M58.801,28.004c0.754,0,1.366,0.615,1.366,1.37c0,0.755-0.612,1.37-1.366,1.37s-1.366-0.615-1.366-1.37 C57.435,28.619,58.047,28.004,58.801,28.004z M58.801,15.8c0.754,0,1.366,0.615,1.366,1.37s-0.612,1.37-1.366,1.37 s-1.366-0.615-1.366-1.37S58.047,15.8,58.801,15.8z M1.933,17.17c0-0.755,0.613-1.37,1.366-1.37c0.754,0,1.367,0.615,1.367,1.37 s-0.613,1.37-1.367,1.37C2.545,18.54,1.933,17.925,1.933,17.17z M3.298,30.744c-0.753,0-1.366-0.615-1.366-1.37 c0-0.755,0.613-1.37,1.366-1.37c0.754,0,1.367,0.615,1.367,1.37C4.666,30.129,4.053,30.744,3.298,30.744z M3.298,42.947 c-0.753,0-1.366-0.615-1.366-1.369c0-0.757,0.613-1.37,1.366-1.37c0.754,0,1.367,0.613,1.367,1.37 C4.666,42.332,4.053,42.947,3.298,42.947z M18.846,58.077c-0.755,0-1.369-0.615-1.369-1.368c0-0.754,0.614-1.367,1.369-1.367 c0.755,0,1.369,0.613,1.369,1.367C20.215,57.462,19.602,58.077,18.846,58.077z M32.419,56.709c0,0.753-0.614,1.368-1.369,1.368 c-0.756,0-1.369-0.615-1.369-1.368c0-0.754,0.613-1.367,1.369-1.367S32.419,55.955,32.419,56.709z M44.622,56.709 c0,0.753-0.613,1.368-1.368,1.368c-0.756,0-1.369-0.615-1.369-1.368c0-0.754,0.613-1.367,1.369-1.367 C44.009,55.342,44.622,55.955,44.622,56.709z M60.167,41.578c0,0.754-0.612,1.369-1.366,1.369s-1.366-0.615-1.366-1.369 c0-0.757,0.612-1.37,1.366-1.37S60.167,40.821,60.167,41.578z M14.478,1.924h33.145c1.262,0,2.287,1.027,2.287,2.291v5.622H12.19 V4.215C12.19,2.951,13.216,1.924,14.478,1.924z M49.909,35.738h-2.366c-0.396,0-0.715,0.321-0.715,0.716s0.319,0.717,0.715,0.717 h2.366v8.018c0,1.262-1.025,2.29-2.287,2.29h-8.777v-2.026c0-0.395-0.319-0.716-0.715-0.716c-0.396,0-0.717,0.321-0.717,0.716 v2.026h-5.647v-2.026c0-0.395-0.321-0.716-0.716-0.716s-0.716,0.321-0.716,0.716v2.026h-5.648v-2.026 c0-0.395-0.32-0.716-0.716-0.716c-0.396,0-0.717,0.321-0.717,0.716v2.026h-8.775c-1.261,0-2.287-1.028-2.287-2.29v-8.018h2.365 c0.395,0,0.717-0.322,0.717-0.717s-0.322-0.716-0.717-0.716H12.19V30.09h2.365c0.395,0,0.717-0.321,0.717-0.716 c0-0.395-0.322-0.716-0.717-0.716H12.19V23.01h2.365c0.395,0,0.717-0.321,0.717-0.717c0-0.395-0.322-0.716-0.717-0.716H12.19 V11.272h37.719v10.305h-2.366c-0.396,0-0.715,0.321-0.715,0.716c0,0.396,0.319,0.717,0.715,0.717h2.366v5.648h-2.366 c-0.396,0-0.715,0.321-0.715,0.716c0,0.396,0.319,0.716,0.715,0.716h2.366V35.738L49.909,35.738z"></path><path fill="#0CB4C4" d="M43.254,60c-1.816,0-3.294-1.477-3.294-3.291c0-0.388,0.073-0.772,0.217-1.146l-2.855-2.572 c-0.254-0.229-0.399-0.557-0.399-0.897v-2.69h-4.665v4.255c1.246,0.492,2.087,1.697,2.087,3.051c0,1.814-1.478,3.29-3.294,3.29 s-3.294-1.476-3.294-3.29c0-1.354,0.841-2.559,2.086-3.051v-4.255h-4.665v2.69c0,0.342-0.146,0.669-0.401,0.898l-2.854,2.571 c0.144,0.373,0.217,0.758,0.217,1.146c0,1.814-1.477,3.29-3.293,3.29s-3.294-1.476-3.294-3.29s1.478-3.291,3.294-3.291 c0.509,0,1.008,0.119,1.464,0.347l2.451-2.209v-2.152h-8.284c-2.323,0-4.212-1.891-4.212-4.215v-7.526H8.452l-2.209,2.452 c0.229,0.456,0.348,0.955,0.348,1.464c0,1.815-1.477,3.293-3.292,3.293c-1.814,0-3.29-1.478-3.29-3.293 c0-1.816,1.475-3.294,3.29-3.294c0.388,0,0.772,0.072,1.146,0.217l2.573-2.855c0.23-0.254,0.557-0.399,0.896-0.399h2.352v-4.664 H6.349c-0.491,1.244-1.696,2.084-3.051,2.084c-1.814,0-3.29-1.477-3.29-3.292s1.475-3.293,3.29-3.293 c1.355,0,2.56,0.84,3.051,2.085h3.917v-4.665H7.914c-0.34,0-0.667-0.146-0.896-0.399l-2.573-2.856 c-0.374,0.144-0.758,0.217-1.146,0.217c-1.814,0-3.29-1.478-3.29-3.293c0-1.816,1.475-3.294,3.29-3.294 c1.815,0,3.292,1.478,3.292,3.294c0,0.508-0.119,1.008-0.348,1.464l2.209,2.451h1.814V4.215c0-2.324,1.89-4.215,4.211-4.215 h33.145c2.323,0,4.212,1.891,4.212,4.215v16.87h1.813l2.211-2.453c-0.229-0.455-0.348-0.954-0.348-1.462 c0-1.816,1.476-3.294,3.291-3.294c1.814,0,3.29,1.478,3.29,3.294c0,1.816-1.476,3.293-3.29,3.293 c-0.388,0-0.771-0.073-1.146-0.217l-2.573,2.855c-0.229,0.255-0.557,0.4-0.897,0.4h-2.351v4.665h3.916 c0.491-1.245,1.696-2.085,3.051-2.085c1.814,0,3.29,1.477,3.29,3.293s-1.476,3.292-3.29,3.292c-1.354,0-2.56-0.84-3.051-2.084 h-3.916v4.664h2.351c0.34,0,0.667,0.146,0.896,0.397l2.574,2.857c0.374-0.145,0.758-0.217,1.146-0.217 c1.814,0,3.29,1.478,3.29,3.294c0,1.815-1.476,3.293-3.29,3.293c-1.815,0-3.291-1.478-3.291-3.293 c0-0.509,0.119-1.008,0.348-1.464l-2.211-2.452h-1.813v7.526c0,2.324-1.889,4.215-4.212,4.215h-8.285v2.152l2.453,2.209 c0.455-0.228,0.954-0.347,1.464-0.347c1.815,0,3.293,1.477,3.293,3.291S45.069,60,43.254,60z M31.273,48.42h6.632v3.674 c0,0.064,0.027,0.124,0.075,0.167l3.402,3.065l-0.174,0.336c-0.176,0.342-0.266,0.694-0.266,1.047 c0,1.271,1.036,2.308,2.311,2.308c1.273,0,2.309-1.036,2.309-2.308s-1.035-2.307-2.309-2.307c-0.445,0-0.881,0.13-1.259,0.378 l-0.316,0.208l-3.326-2.994V48.42h9.27c1.78,0,3.229-1.45,3.229-3.231v-8.51h3.234l2.994,3.323l-0.208,0.317 c-0.247,0.379-0.378,0.814-0.378,1.259c0,1.274,1.035,2.31,2.308,2.31s2.307-1.035,2.307-2.31s-1.034-2.311-2.307-2.311 c-0.353,0-0.704,0.089-1.046,0.266l-0.337,0.174l-3.066-3.403c-0.043-0.047-0.103-0.073-0.167-0.073h-3.334v-6.632h5.634 l0.097,0.365c0.27,1.013,1.182,1.719,2.22,1.719c1.272,0,2.307-1.035,2.307-2.309c0-1.273-1.034-2.31-2.307-2.31 c-1.038,0-1.95,0.707-2.22,1.72l-0.097,0.365h-5.634v-6.632h3.334c0.064,0,0.124-0.027,0.167-0.075l3.066-3.402l0.337,0.174 c0.341,0.176,0.693,0.266,1.046,0.266c1.272,0,2.307-1.036,2.307-2.31c0-1.274-1.034-2.31-2.307-2.31s-2.308,1.036-2.308,2.31 c0,0.444,0.131,0.879,0.379,1.258l0.207,0.317l-2.994,3.324h-3.234V4.215c0-1.782-1.448-3.231-3.229-3.231H14.478 c-1.78,0-3.228,1.45-3.228,3.231v17.854H8.014l-2.993-3.322l0.207-0.316c0.248-0.381,0.379-0.816,0.379-1.26 c0-1.274-1.035-2.31-2.308-2.31c-1.271,0-2.306,1.036-2.306,2.31c0,1.273,1.035,2.31,2.306,2.31c0.353,0,0.705-0.089,1.046-0.266 l0.337-0.174l3.066,3.403c0.043,0.047,0.103,0.074,0.167,0.074h3.336v6.632H5.615l-0.097-0.365c-0.269-1.013-1.181-1.72-2.22-1.72 c-1.271,0-2.306,1.036-2.306,2.31c0,1.274,1.035,2.309,2.306,2.309c1.039,0,1.951-0.707,2.22-1.719l0.097-0.365h5.635v6.632H7.914 c-0.063,0-0.124,0.027-0.167,0.075l-3.065,3.401l-0.337-0.174c-0.342-0.177-0.694-0.266-1.046-0.266 c-1.271,0-2.306,1.036-2.306,2.311s1.035,2.31,2.306,2.31c1.273,0,2.308-1.035,2.308-2.31c0-0.444-0.13-0.881-0.379-1.26 l-0.207-0.317l2.993-3.322h3.235v8.51c0,1.781,1.448,3.231,3.229,3.231h9.267v3.574l-3.322,2.995l-0.318-0.209 c-0.378-0.248-0.814-0.378-1.258-0.378c-1.274,0-2.311,1.035-2.311,2.307s1.037,2.307,2.311,2.307c1.273,0,2.31-1.035,2.31-2.307 c0-0.353-0.089-0.705-0.265-1.047l-0.174-0.336l3.401-3.065c0.049-0.044,0.076-0.104,0.076-0.167V48.42h6.632v5.972l-0.365,0.098 c-1.013,0.27-1.721,1.183-1.721,2.22c0,1.271,1.036,2.307,2.31,2.307c1.273,0,2.311-1.035,2.311-2.307 c0-1.037-0.708-1.95-1.722-2.22l-0.365-0.098V48.42z M43.254,58.568c-1.026,0-1.861-0.833-1.861-1.859 c0-1.024,0.835-1.858,1.861-1.858c1.025,0,1.86,0.834,1.86,1.858C45.114,57.735,44.279,58.568,43.254,58.568z M43.254,55.834 c-0.483,0-0.877,0.393-0.877,0.875c0,0.483,0.394,0.876,0.877,0.876c0.482,0,0.877-0.393,0.877-0.876 C44.131,56.227,43.736,55.834,43.254,55.834z M31.05,58.568c-1.026,0-1.86-0.833-1.86-1.859c0-1.024,0.834-1.858,1.86-1.858 c1.025,0,1.86,0.834,1.86,1.858C32.91,57.735,32.075,58.568,31.05,58.568z M31.05,55.834c-0.483,0-0.877,0.393-0.877,0.875 c0,0.483,0.394,0.876,0.877,0.876s0.877-0.393,0.877-0.876C31.927,56.227,31.533,55.834,31.05,55.834z M18.846,58.568 c-1.026,0-1.861-0.833-1.861-1.859c0-1.024,0.835-1.858,1.861-1.858s1.86,0.834,1.86,1.858 C20.707,57.735,19.872,58.568,18.846,58.568z M18.846,55.834c-0.483,0-0.877,0.393-0.877,0.875c0,0.483,0.394,0.876,0.877,0.876 c0.483,0,0.877-0.393,0.877-0.876C19.723,56.227,19.329,55.834,18.846,55.834z M47.622,47.97h-9.27v-2.518 c0.001-0.247-0.446-0.245-0.447,0v2.518h-6.632v-2.518c0-0.246-0.447-0.246-0.447,0v2.518h-6.632v-2.518 c0-0.246-0.45-0.246-0.45,0v2.518h-9.267c-1.532,0-2.779-1.247-2.779-2.781v-8.51h2.856c0.124,0,0.225-0.101,0.225-0.225 c0-0.123-0.101-0.224-0.225-0.224h-2.856v-6.632h2.856c0.124,0,0.225-0.101,0.225-0.225c0-0.124-0.101-0.224-0.225-0.224h-2.856 v-6.632h2.856c0.124,0,0.225-0.101,0.225-0.225s-0.101-0.224-0.225-0.224h-2.856V10.781h38.703v11.288h-2.858 c-0.123,0-0.224,0.1-0.224,0.224s0.101,0.225,0.224,0.225h2.858v6.632h-2.858c-0.123,0-0.224,0.101-0.224,0.224 c0,0.124,0.101,0.225,0.224,0.225h2.858v6.632h-2.858c-0.123,0-0.224,0.101-0.224,0.224c0,0.124,0.101,0.225,0.224,0.225h2.858 v8.51C50.401,46.723,49.154,47.97,47.622,47.97z M39.337,46.986h8.285c0.99,0,1.796-0.807,1.796-1.798v-7.526h-1.875 c-0.666,0-1.207-0.542-1.207-1.208s0.541-1.208,1.207-1.208h1.875v-4.664h-1.875c-0.666,0-1.207-0.542-1.207-1.208 c0-0.666,0.541-1.208,1.207-1.208h1.875v-4.665h-1.875c-0.666,0-1.207-0.542-1.207-1.208s0.541-1.208,1.207-1.208h1.875v-9.321 H12.682v9.321h1.873c0.667,0,1.208,0.542,1.208,1.208s-0.542,1.208-1.208,1.208h-1.873v4.665h1.873 c0.667,0,1.208,0.542,1.208,1.208c0,0.667-0.542,1.208-1.208,1.208h-1.873v4.664h1.873c0.667,0,1.208,0.542,1.208,1.208 s-0.542,1.208-1.208,1.208h-1.873v7.526c0,0.991,0.805,1.798,1.795,1.798h8.284v-1.534c0-0.665,0.542-1.207,1.208-1.207 c0.667,0,1.208,0.542,1.208,1.207v1.534h4.665v-1.534c0-0.665,0.542-1.207,1.208-1.207s1.207,0.542,1.207,1.207v1.534h4.665 v-1.534c0-0.665,0.542-1.207,1.208-1.207s1.207,0.542,1.207,1.207V46.986z M58.801,43.439c-1.024,0-1.858-0.835-1.858-1.861 s0.834-1.862,1.858-1.862s1.858,0.836,1.858,1.862S59.825,43.439,58.801,43.439z M58.801,40.699c-0.481,0-0.875,0.395-0.875,0.879 c0,0.483,0.394,0.877,0.875,0.877c0.482,0,0.874-0.394,0.874-0.877C59.675,41.094,59.283,40.699,58.801,40.699z M3.298,43.439 c-1.024,0-1.857-0.835-1.857-1.861s0.833-1.862,1.857-1.862c1.025,0,1.859,0.836,1.859,1.862S4.323,43.439,3.298,43.439z M3.298,40.699c-0.482,0-0.874,0.395-0.874,0.879c0,0.483,0.392,0.877,0.874,0.877c0.482,0,0.875-0.394,0.875-0.877 C4.173,41.094,3.781,40.699,3.298,40.699z M58.801,31.235c-1.024,0-1.858-0.835-1.858-1.862s0.834-1.861,1.858-1.861 s1.858,0.835,1.858,1.861S59.825,31.235,58.801,31.235z M58.801,28.496c-0.481,0-0.875,0.394-0.875,0.878 c0,0.484,0.394,0.878,0.875,0.878c0.482,0,0.874-0.394,0.874-0.878C59.675,28.89,59.283,28.496,58.801,28.496z M3.298,31.235 c-1.024,0-1.857-0.835-1.857-1.862s0.833-1.861,1.857-1.861c1.025,0,1.859,0.835,1.859,1.861S4.323,31.235,3.298,31.235z M3.298,28.496c-0.482,0-0.874,0.394-0.874,0.878c0,0.484,0.392,0.878,0.874,0.878c0.482,0,0.875-0.394,0.875-0.878 C4.173,28.89,3.781,28.496,3.298,28.496z M58.801,19.031c-1.024,0-1.858-0.835-1.858-1.861s0.834-1.862,1.858-1.862 s1.858,0.835,1.858,1.862S59.825,19.031,58.801,19.031z M58.801,16.292c-0.481,0-0.875,0.394-0.875,0.878 c0,0.484,0.394,0.878,0.875,0.878c0.482,0,0.874-0.394,0.874-0.878C59.675,16.686,59.283,16.292,58.801,16.292z M3.298,19.031 c-1.024,0-1.857-0.835-1.857-1.861s0.833-1.862,1.857-1.862c1.025,0,1.859,0.835,1.859,1.862S4.323,19.031,3.298,19.031z M3.298,16.292c-0.482,0-0.874,0.394-0.874,0.878c0,0.484,0.392,0.878,0.874,0.878c0.482,0,0.875-0.394,0.875-0.878 C4.173,16.686,3.781,16.292,3.298,16.292z M50.401,10.328H11.699V4.215c0-1.534,1.247-2.783,2.779-2.783h33.145 c1.532,0,2.779,1.249,2.779,2.783V10.328z M12.682,9.345h36.736v-5.13c0-0.992-0.806-1.799-1.796-1.799H14.478 c-0.991,0-1.795,0.807-1.795,1.799V9.345z"></path></g></g></svg>