<svg version="1.1" id="Layer_1" xmlns="http://www.w3.org/2000/svg" xmlns:xlink="http://www.w3.org/1999/xlink" x="0px" y="0px" width="45px" height="60px" viewBox="0 0 45 60" enable-background="new 0 0 45 60" xml:space="preserve"><g transform="translate(0,-982.36218)"><path fill="#0CB4C4" d="M0.002,1018.36c0,0.902,0.77,1.512,1.5,1.5h11.999c0.783,0,1.499-0.713,1.499-1.5v-4.498h6.001v20.998 c0,0.918,0.769,1.504,1.499,1.5H30v4.498c0,0.902,0.771,1.512,1.5,1.504h11.999c0.786,0,1.499-0.717,1.499-1.504v-11.996 c0-0.787-0.713-1.5-1.499-1.5H31.5c-0.784,0-1.5,0.713-1.5,1.5v4.498h-6v-19.498h6v4.498c0,0.902,0.771,1.512,1.5,1.5h11.999 c0.786,0,1.499-0.713,1.499-1.5v-11.999c0-0.786-0.713-1.5-1.499-1.5H31.5c-0.784,0-1.5,0.714-1.5,1.5v4.501h-6v-19.501h6v4.5 c0,0.9,0.771,1.512,1.5,1.5h11.999c0.786,0,1.499-0.713,1.499-1.5v-11.999c0-0.786-0.713-1.5-1.499-1.5H31.5 c-0.784,0-1.5,0.714-1.5,1.5v4.499h-7.5c-0.786,0.001-1.499,0.715-1.499,1.501v21H15v-4.501c0-0.786-0.716-1.5-1.499-1.5H1.502 c-0.786,0-1.5,0.714-1.5,1.5V1018.36L0.002,1018.36z M3.001,1016.86v-8.999h9v8.999H3.001z M33,1039.358v-8.996h8.999v8.996H33z M33,1016.86v-8.999h8.999v8.999H33z M33,994.362v-9h8.999v9H33z"></path></g></svg>