<svg version="1.1" id="Layer_1" xmlns="http://www.w3.org/2000/svg" xmlns:xlink="http://www.w3.org/1999/xlink" x="0px" y="0px" width="62.8px" height="60px" viewBox="0 0 62.8 60" enable-background="new 0 0 62.8 60" xml:space="preserve"><path fill="#0CB4C4" d="M53.918,28.468V11.839c-0.005-3.077-2.498-5.571-5.575-5.575h-5.337V1.744 c-0.005-0.963-0.789-1.74-1.752-1.735c-0.956,0.005-1.731,0.779-1.735,1.735v4.521H14.402V1.744c0-0.963-0.78-1.744-1.743-1.744 s-1.745,0.78-1.745,1.744v4.521H5.577C2.5,6.268,0.008,8.762,0.005,11.839v33.708c0.003,3.077,2.495,5.569,5.572,5.575h25.688 c4.348,8.161,14.491,11.256,22.654,6.906c8.164-4.349,11.255-14.491,6.907-22.652C59.26,32.438,56.856,30.033,53.918,28.468z M3.492,11.839c0.001-1.151,0.934-2.085,2.085-2.086h5.337v2.88c0,0.963,0.782,1.744,1.745,1.744s1.743-0.781,1.743-1.744v-2.88 h25.117v2.88c-0.005,0.963,0.771,1.748,1.735,1.753c0.963,0.004,1.747-0.773,1.752-1.736c0-0.005,0-0.011,0-0.017v-2.88h5.337 c1.152,0.001,2.085,0.935,2.086,2.086v5.766H3.492V11.839z M29.879,47.634H5.577c-1.149-0.002-2.084-0.934-2.085-2.086V21.093 h46.937v5.99c-8.922-2.427-18.125,2.839-20.551,11.763C29.096,41.721,29.096,44.756,29.879,47.634L29.879,47.634z M46.043,56.508 c-7.325,0-13.263-5.938-13.264-13.263c0-7.323,5.937-13.261,13.263-13.261c7.323,0,13.261,5.938,13.262,13.261l0,0 C59.296,50.566,53.363,56.499,46.043,56.508L46.043,56.508z"></path></svg>