<svg aria-labelledby="svgTitle" xmlns="http://www.w3.org/2000/svg" xmlns:xlink="http://www.w3.org/1999/xlink" version="1.1" id="Layer_1" x="0px" y="0px" width="60px" height="60px" viewBox="0 0 60 60" style="enable-background:new 0 0 60 60;" xml:space="preserve"><title id="svgTitle">Cloud &amp; Hybrid Backup Services</title><g><path style="fill:#0CB4C4;" d="M48.387,20.323h-1.936c0,2.668-2.17,4.838-4.839,4.838v1.936 C45.348,27.097,48.387,24.058,48.387,20.323z"></path><path style="fill:#0CB4C4;" d="M30,5.807V3.871c-4.802,0-8.709,3.908-8.709,8.709h1.936C23.226,8.845,26.264,5.807,30,5.807z"></path><rect x="7.742" y="25.161" style="fill:#0CB4C4;" width="10.645" height="1.936"></rect><rect x="20.322" y="25.161" style="fill:#0CB4C4;" width="1.936" height="1.936"></rect><rect x="24.193" y="25.161" style="fill:#0CB4C4;" width="1.936" height="1.936"></rect><path style="fill:#0CB4C4;" d="M36.774,32.903h-6.596c0.401-1.124,1.465-1.936,2.725-1.936h8.709c2.899,0,5.609-1.145,7.631-3.224 c2.021-2.078,3.09-4.82,3.01-7.724c-0.151-5.438-4.612-9.991-10.013-10.314C40.921,4.04,35.902,0,30,0 c-4.939,0-9.21,2.868-11.267,7.019c-0.823-0.18-1.665-0.262-2.524-0.242c-3.68,0.081-7.165,2.276-9.096,5.726 c-0.89,1.59-1.32,3.228-1.307,4.984c-1.477,0.209-2.834,0.897-3.893,1.988c-1.287,1.326-1.965,3.075-1.91,4.925 c0.107,3.622,3.255,6.567,7.013,6.567h13.306c1.26,0,2.325,0.812,2.725,1.936h-7.564c-1.601,0-2.903,1.303-2.903,2.903v1.935 c0,1.601,1.302,2.903,2.903,2.903v1.936c-1.601,0-2.903,1.303-2.903,2.903v1.936c0,1.601,1.302,2.903,2.903,2.903v1.935 c-1.601,0-2.903,1.303-2.903,2.903v1.936c0,1.601,1.302,2.903,2.903,2.903h21.291c1.601,0,2.903-1.303,2.903-2.903v-1.936 c0-1.601-1.303-2.903-2.903-2.903v-1.935c1.601,0,2.903-1.303,2.903-2.903v-1.936c0-1.601-1.303-2.903-2.903-2.903v-1.936 c1.601,0,2.903-1.302,2.903-2.903v-1.935C39.677,34.206,38.375,32.903,36.774,32.903z M20.322,29.032H7.017 c-2.723,0-5.002-2.104-5.08-4.688c-0.04-1.323,0.444-2.572,1.364-3.52c0.917-0.945,2.147-1.467,3.512-1.467c0.003,0,0.007,0,0.01,0 h1.068l-0.105-1.063c-0.172-1.73,0.16-3.316,1.015-4.845c1.598-2.855,4.453-4.67,7.451-4.737c0.582-0.015,1.161,0.036,1.732,0.139 c-0.366,1.179-0.564,2.432-0.564,3.73h1.936C19.354,6.711,24.13,1.936,30,1.936c4.864,0,9.023,3.238,10.268,7.836 c-2.286,0.283-4.397,1.286-6.078,2.92c-2.078,2.021-3.223,4.731-3.223,7.631h1.936c0-2.372,0.937-4.589,2.637-6.244 c1.7-1.653,3.951-2.52,6.32-2.463c4.539,0.126,8.333,3.92,8.459,8.459c0.066,2.376-0.809,4.62-2.463,6.32 c-1.655,1.701-3.872,2.637-6.244,2.637h-8.709c-2.336,0-4.291,1.666-4.741,3.871h-3.099C24.613,30.698,22.658,29.032,20.322,29.032 z M37.742,55.161v1.936c0,0.534-0.435,0.968-0.968,0.968H15.483c-0.533,0-0.968-0.434-0.968-0.968v-1.936 c0-0.534,0.435-0.968,0.968-0.968h1.936h17.419h1.936C37.307,54.193,37.742,54.627,37.742,55.161z M34.838,52.258H17.419v-1.935 h17.419V52.258z M37.742,45.484v1.936c0,0.534-0.435,0.968-0.968,0.968h-1.936H17.419h-1.936c-0.533,0-0.968-0.434-0.968-0.968 v-1.936c0-0.534,0.435-0.968,0.968-0.968h1.936h17.419h1.936C37.307,44.516,37.742,44.95,37.742,45.484z M34.838,42.581H17.419 v-1.936h17.419V42.581z M37.742,37.742c0,0.534-0.435,0.968-0.968,0.968h-1.936H17.419h-1.936c-0.533,0-0.968-0.434-0.968-0.968 v-1.935c0-0.534,0.435-0.968,0.968-0.968h21.291c0.533,0,0.968,0.434,0.968,0.968V37.742z"></path><path style="fill:#0CB4C4;" d="M50.322,45.356l8.52-5.679l-8.52-5.679v2.776h-8.71v5.806h8.71V45.356z M43.548,40.645v-1.936h8.71 v-1.095l3.094,2.063l-3.094,2.063v-1.096H43.548z"></path><path style="fill:#0CB4C4;" d="M51.29,50.323v-2.775l-8.519,5.678l8.519,5.679v-2.775H60v-5.806H51.29z M58.064,54.193h-8.709 v1.096l-3.094-2.063l3.094-2.063v1.095h8.709V54.193z"></path></g></svg>