<svg aria-labelledby="svgTitle" xmlns="http://www.w3.org/2000/svg" xmlns:xlink="http://www.w3.org/1999/xlink" version="1.1" id="Layer_1" x="0px" y="0px" width="74px" height="60px" viewBox="0 0 74 60" style="enable-background:new 0 0 74 60;" xml:space="preserve"><title id="svgTitle">Centralized Management</title><g><path style="fill:#0CB4C4;" d="M69.801,26.479c-0.588,0-0.999-0.411-0.999-0.999c0-0.617,0.519-0.999,0.999-0.999 c0.48,0,0.999,0.382,0.999,0.999C70.8,26.068,70.389,26.479,69.801,26.479z"></path><path style="fill:#0CB4C4;" d="M66.921,26.479c-0.48,0-0.999-0.382-0.999-0.999c0-0.617,0.519-0.999,0.999-0.999 c0.48,0,0.999,0.382,0.999,0.999C67.92,26.068,67.509,26.479,66.921,26.479z"></path><path style="fill:#0CB4C4;" d="M20.561,60V48.959H0V15.36h16.88V0h28.441L53.6,8.196v13.884H74V60H20.561z M72.002,58.002V28.878 H33.679v20.081H22.558v9.042H72.002z M31.681,46.962v-5.569l-5.885-6.968l-5.699,6.502l-10.22-15.41L1.998,37.221v9.741H31.681z M31.601,38.297V17.278H1.998v16.347L9.881,21.84l10.342,15.792l5.5-6.298L31.601,38.297z M72.002,26.881v-2.802H33.599v2.802 H72.002z M51.521,22V9.002l-0.524-0.523h-5.956V2.521l-0.524-0.523H18.878v13.203h14.641V22H51.521z M49.081,6.56L47.12,4.599V6.56 H49.081z"></path><path style="fill:#0CB4C4;" d="M64.121,26.479c-0.588,0-0.999-0.411-0.999-0.999c0-0.617,0.519-0.999,0.999-0.999 s0.999,0.382,0.999,0.999C65.12,26.068,64.709,26.479,64.121,26.479z"></path><path style="fill:#0CB4C4;" d="M42.082,35.458l9.817,5.61l1.604,0.962l3.098,1.771L53.5,45.573l-1.597,0.958l-7.444,4.243 l-2.377,1.371V35.458z M44.16,48.735l7.541-4.386l0.887-0.533l-0.956-0.478l-7.472-4.346V48.735z"></path><path style="fill:#0CB4C4;" d="M21.959,30.398c-0.424,0-0.838-0.083-1.239-0.164c-0.786-0.158-1.452-0.465-2.16-0.996 c-0.8-0.699-1.291-1.239-1.649-1.813c-0.466-0.93-0.67-1.747-0.67-2.666s0.204-1.735,0.661-2.649 c0.417-0.75,0.988-1.408,1.658-1.911c0.958-0.696,2.136-1.08,3.319-1.08c2.183,0,4.2,1.27,5.14,3.233 c0.239,0.479,0.411,1.053,0.498,1.657c0.082,0.236,0.082,0.497,0.082,0.749c0,0.972-0.192,1.789-0.585,2.497 c-0.361,0.722-0.826,1.236-1.233,1.644c-0.996,0.906-2.172,1.421-3.409,1.498l-0.006,0H21.959z M21.879,20.959 c-1.158,0-2.322,0.641-3.037,1.673c-0.368,0.589-0.607,1.28-0.687,1.99c0.001,0.693,0.207,1.385,0.611,2.032 c0.471,0.706,1.169,1.217,1.964,1.434c0.396,0.157,0.775,0.233,1.148,0.233c0.048,0,0.085-0.012,0.137-0.03 c0.067-0.022,0.15-0.05,0.263-0.05c1.035-0.15,1.88-0.609,2.485-1.365c0.533-0.61,0.836-1.437,0.836-2.276 c0-0.225,0-0.419-0.126-0.61c-0.11-0.629-0.441-1.181-0.72-1.6C24.002,21.472,22.978,20.959,21.879,20.959z"></path><path style="fill:#0CB4C4;" d="M36.68,20.398c-0.588,0-0.999-0.411-0.999-0.999c0-0.588,0.411-0.999,0.999-0.999h11.201 c0.48,0,0.999,0.382,0.999,0.999c0,0.588-0.411,0.999-0.999,0.999H36.68z"></path><path style="fill:#0CB4C4;" d="M22.6,8.798c-0.481,0-0.999-0.382-0.999-0.999c0-0.588,0.411-0.999,0.999-0.999h11.52 c0.588,0,1,0.411,1,0.999c0,0.588-0.411,0.999-1,0.999H22.6z"></path><path style="fill:#0CB4C4;" d="M22.6,14.558c-0.588,0-0.999-0.411-0.999-0.999c0-0.588,0.411-0.999,0.999-0.999h25.281 c0.588,0,0.999,0.411,0.999,0.999c0,0.569-0.464,0.999-1.079,0.999H22.6z"></path><path style="fill:#0CB4C4;" d="M68.281,20.479c-2.016,0-3.719-1.703-3.719-3.719s1.704-3.719,3.719-3.719 c0.572,0,1.138,0.141,1.721,0.428V9.038H62.56v7.722c0,2.016-1.703,3.719-3.719,3.719c-2.016,0-3.719-1.703-3.719-3.719 s1.704-3.719,3.719-3.719c0.662,0,1.229,0.131,1.721,0.4V4.48H72V16.76C72,18.775,70.296,20.479,68.281,20.479z M68.361,15.039 c-0.933,0-1.721,0.788-1.721,1.721c0,0.933,0.788,1.721,1.721,1.721c0.933,0,1.721-0.788,1.721-1.721v-0.24 C69.939,15.675,69.214,15.039,68.361,15.039z M58.841,15.039c-0.933,0-1.721,0.788-1.721,1.721c0,0.933,0.788,1.721,1.721,1.721 s1.721-0.788,1.721-1.721C60.562,15.827,59.774,15.039,58.841,15.039z M70.002,7.121V6.478H62.56v0.643H70.002z"></path></g></svg>