<svg width="61" height="60" viewBox="0 0 61 60" fill="none" xmlns="http://www.w3.org/2000/svg"><path d="M1.32413 52H27.3241V50H2.32413V6H27.3241V12C27.3241 12.2652 27.4295 12.5196 27.617 12.7071C27.8046 12.8946 28.0589 13 28.3241 13H34.3241V20H36.3241V1C36.3241 0.734784 36.2188 0.48043 36.0312 0.292893C35.8437 0.105357 35.5893 0 35.3241 0H1.32413C1.05891 0 0.804557 0.105357 0.61702 0.292893C0.429484 0.48043 0.324127 0.734784 0.324127 1V51C0.324127 51.2652 0.429484 51.5196 0.61702 51.7071C0.804557 51.8946 1.05891 52 1.32413 52ZM29.3241 11V7.414L32.9101 11H29.3241ZM34.3241 2V9.586L29.0311 4.293C28.9463 4.20879 28.8466 4.14098 28.7371 4.093C28.7078 4.08036 28.6777 4.06935 28.6471 4.06C28.5619 4.03072 28.4731 4.01323 28.3831 4.008C28.3631 4.01 28.3441 4 28.3241 4H2.32413V2H34.3241Z" fill="#0CB4C4"></path><path d="M9.32413 17.118L12.8771 18.9C13.0951 19.0089 13.3454 19.0344 13.5809 18.9718C13.8164 18.9092 14.021 18.7628 14.1561 18.56L17.3241 13.8L20.4921 18.552C20.5742 18.675 20.6826 18.7783 20.8095 18.8544C20.9363 18.9306 21.0785 18.9776 21.2257 18.9921C21.3729 19.0066 21.5215 18.9883 21.6608 18.9385C21.8 18.8887 21.9265 18.8086 22.0311 18.704L25.3241 15.414L28.6171 18.707L30.0311 17.293L26.0311 13.293C25.8436 13.1055 25.5893 13.0002 25.3241 13.0002C25.059 13.0002 24.8047 13.1055 24.6171 13.293L21.4791 16.431L18.1561 11.445C18.0594 11.3156 17.9338 11.2106 17.7894 11.1383C17.645 11.066 17.4857 11.0283 17.3241 11.0283C17.1626 11.0283 17.0033 11.066 16.8589 11.1383C16.7144 11.2106 16.5889 11.3156 16.4921 11.445L12.9811 16.711L9.77113 15.105C9.63233 15.0356 9.47929 14.9995 9.32413 14.9995C9.16896 14.9995 9.01593 15.0356 8.87713 15.105L6.32413 16.382V12H4.32413V22C4.32413 22.2652 4.42948 22.5196 4.61702 22.7071C4.80456 22.8946 5.05891 23 5.32413 23H29.3241V21H6.32413V18.618L9.32413 17.118Z" fill="#0CB4C4"></path><path d="M25.3241 33C25.3245 31.8151 24.973 30.6568 24.3141 29.672C23.5151 28.4752 22.3125 27.6055 20.9258 27.2214C19.539 26.8373 18.0603 26.9643 16.7594 27.5794C15.4585 28.1945 14.422 29.2567 13.8389 30.5723C13.2557 31.8878 13.1648 33.3691 13.5827 34.7461C14.0006 36.1231 14.8995 37.304 16.1154 38.0736C17.3313 38.8431 18.7834 39.1501 20.2067 38.9384C21.63 38.7267 22.9299 38.0106 23.8693 36.9205C24.8087 35.8304 25.325 34.439 25.3241 33ZM20.3241 31.132V29.132C20.943 29.2923 21.5144 29.5989 21.9901 30.026L20.3241 31.132ZM19.3241 37C18.3505 37 17.4104 36.645 16.6799 36.0014C15.9493 35.3578 15.4786 34.4699 15.3559 33.504C15.2333 32.5382 15.4671 31.5608 16.0135 30.755C16.5599 29.9492 17.3815 29.3704 18.3241 29.127V33C18.3241 33.1811 18.3731 33.3587 18.4661 33.5141C18.5591 33.6694 18.6925 33.7966 18.8521 33.882C18.9287 33.9219 19.01 33.9522 19.0941 33.972C19.1251 33.979 19.1571 33.979 19.1881 33.983C19.233 33.9922 19.2784 33.9979 19.3241 34C19.3311 34 19.3381 34 19.3461 34C19.4089 33.9966 19.4712 33.9873 19.5321 33.972C19.5624 33.9682 19.5924 33.9629 19.6221 33.956C19.713 33.9278 19.7995 33.8871 19.8791 33.835L23.1001 31.687C23.2484 32.1089 23.3242 32.5528 23.3241 33C23.3241 34.0609 22.9027 35.0783 22.1526 35.8284C21.4024 36.5786 20.385 37 19.3241 37Z" fill="#0CB4C4"></path><path d="M11.3241 29H4.32413V31H11.3241V29Z" fill="#0CB4C4"></path><path d="M13.3241 25H4.32413V27H13.3241V25Z" fill="#0CB4C4"></path><path d="M11.3241 33H4.32413V35H11.3241V33Z" fill="#0CB4C4"></path><path d="M11.3241 37H4.32413V39H11.3241V37Z" fill="#0CB4C4"></path><path d="M22.3241 41H4.32413V43H22.3241V41Z" fill="#0CB4C4"></path><path d="M13.3241 45H4.32413V47H13.3241V45Z" fill="#0CB4C4"></path><path d="M22.3241 45H15.3241V47H22.3241V45Z" fill="#0CB4C4"></path><path d="M6.32413 8H4.32413V10H6.32413V8Z" fill="#0CB4C4"></path><path d="M10.3241 8H8.32413V10H10.3241V8Z" fill="#0CB4C4"></path><path d="M14.3241 8H12.3241V10H14.3241V8Z" fill="#0CB4C4"></path><path d="M43.8951 20C40.3454 20.0194 36.8961 21.1796 34.0563 23.3095C31.2164 25.4393 29.1367 28.4258 28.1241 31.828L24.3641 44.72C24.3207 44.869 24.3125 45.0261 24.3403 45.1789C24.368 45.3316 24.431 45.4758 24.5241 45.6C24.6173 45.7242 24.7381 45.825 24.8769 45.8944C25.0158 45.9639 25.1689 46 25.3241 46H29.3241V53C29.3265 54.8558 30.0648 56.6349 31.377 57.9471C32.6892 59.2594 34.4683 59.9976 36.3241 60H59.3241C59.5893 60 59.8437 59.8946 60.0312 59.7071C60.2188 59.5196 60.3241 59.2652 60.3241 59V36.429C60.3191 32.0733 58.5866 27.8974 55.5066 24.8175C52.4267 21.7376 48.2508 20.005 43.8951 20ZM31.3241 53V45C31.3241 44.7348 31.2188 44.4804 31.0312 44.2929C30.8437 44.1054 30.5893 44 30.3241 44H26.6571L30.0441 32.389C30.7884 29.8122 32.2396 27.4954 34.2333 25.7013C36.227 23.9071 38.6834 22.7074 41.3241 22.238V58H36.3241C34.9985 57.9984 33.7277 57.4711 32.7903 56.5338C31.853 55.5964 31.3257 54.3256 31.3241 53ZM58.3241 58H43.3241V53H45.9101L48.6171 55.707C48.8046 55.8946 49.0589 55.9999 49.3241 56H51.3241V54H49.7381L47.0311 51.293C46.8436 51.1054 46.5893 51.0001 46.3241 51H43.3241V46H44.9101L47.6171 48.707C47.8046 48.8946 48.0589 48.9999 48.3241 49H49.5081C49.744 49.6672 50.2082 50.2296 50.8186 50.5876C51.429 50.9457 52.1464 51.0765 52.8439 50.9568C53.5414 50.8371 54.1741 50.4747 54.6302 49.9337C55.0864 49.3926 55.3366 48.7077 55.3366 48C55.3366 47.2923 55.0864 46.6074 54.6302 46.0663C54.1741 45.5253 53.5414 45.1629 52.8439 45.0432C52.1464 44.9235 51.429 45.0543 50.8186 45.4124C50.2082 45.7704 49.744 46.3328 49.5081 47H48.7381L46.0311 44.293C45.8436 44.1054 45.5893 44.0001 45.3241 44H43.3241V41H45.3241V39H43.3241V36H46.3241C46.5893 35.9999 46.8436 35.8946 47.0311 35.707L49.4311 33.307C49.9621 33.7515 50.6317 33.9966 51.3241 34C51.9515 34.0082 52.5661 33.8221 53.0835 33.4671C53.601 33.1122 53.9959 32.6058 54.2141 32.0175C54.4323 31.4292 54.4632 30.7878 54.3024 30.1813C54.1416 29.5748 53.7971 29.0329 53.3161 28.6299C52.8351 28.227 52.2412 27.9827 51.6159 27.9307C50.9906 27.8787 50.3645 28.0214 49.8236 28.3394C49.2826 28.6573 48.8533 29.1348 48.5945 29.7064C48.3357 30.278 48.2601 30.9157 48.3781 31.532L45.9101 34H43.3241V22.015C43.5241 22.005 43.7111 22 43.8951 22C47.7206 22.0045 51.388 23.5261 54.093 26.2311C56.798 28.9361 58.3196 32.6036 58.3241 36.429V58ZM51.3241 48C51.3241 47.8022 51.3828 47.6089 51.4927 47.4444C51.6025 47.28 51.7587 47.1518 51.9414 47.0761C52.1242 47.0004 52.3252 46.9806 52.5192 47.0192C52.7132 47.0578 52.8914 47.153 53.0312 47.2929C53.1711 47.4327 53.2663 47.6109 53.3049 47.8049C53.3435 47.9989 53.3237 48.2 53.248 48.3827C53.1723 48.5654 53.0441 48.7216 52.8797 48.8315C52.7152 48.9414 52.5219 49 52.3241 49C52.0589 49 51.8046 48.8946 51.617 48.7071C51.4295 48.5196 51.3241 48.2652 51.3241 48ZM50.3241 31C50.3241 30.8022 50.3828 30.6089 50.4927 30.4444C50.6025 30.28 50.7587 30.1518 50.9414 30.0761C51.1242 30.0004 51.3252 29.9806 51.5192 30.0192C51.7132 30.0578 51.8914 30.153 52.0312 30.2929C52.1711 30.4327 52.2663 30.6109 52.3049 30.8049C52.3435 30.9989 52.3237 31.2 52.248 31.3827C52.1723 31.5654 52.0441 31.7216 51.8797 31.8315C51.7152 31.9414 51.5219 32 51.3241 32C51.0589 32 50.8046 31.8946 50.617 31.7071C50.4295 31.5196 50.3241 31.2652 50.3241 31Z" fill="#0CB4C4"></path><path d="M35.4531 34C34.6875 34 33.9391 34.227 33.3025 34.6524C32.6659 35.0777 32.1698 35.6823 31.8768 36.3896C31.5838 37.097 31.5071 37.8753 31.6565 38.6262C31.8059 39.3771 32.1745 40.0668 32.7159 40.6082C33.2573 41.1496 33.947 41.5183 34.6979 41.6676C35.4488 41.817 36.2272 41.7403 36.9345 41.4473C37.6418 41.1544 38.2464 40.6582 38.6717 40.0216C39.0971 39.385 39.3241 38.6366 39.3241 37.871C39.3233 36.8446 38.9152 35.8604 38.1895 35.1347C37.4637 34.4089 36.4795 34.0008 35.4531 34ZM35.4531 39.741C35.083 39.741 34.7213 39.6312 34.4136 39.4256C34.1058 39.22 33.866 38.9277 33.7245 38.5858C33.5829 38.2438 33.5459 37.8676 33.6182 37.5046C33.6904 37.1417 33.8687 36.8083 34.1305 36.5466C34.3922 36.285 34.7257 36.1069 35.0887 36.0348C35.4517 35.9627 35.828 35.9999 36.1698 36.1417C36.5117 36.2835 36.8038 36.5234 37.0093 36.8313C37.2148 37.1391 37.3243 37.5009 37.3241 37.871C37.3236 38.367 37.1263 38.8425 36.7755 39.1931C36.4247 39.5437 35.9491 39.7407 35.4531 39.741Z" fill="#0CB4C4"></path><path d="M49.5081 39H47.3241V41H49.5081C49.744 41.6672 50.2082 42.2296 50.8186 42.5876C51.429 42.9457 52.1464 43.0765 52.8439 42.9568C53.5414 42.8371 54.1741 42.4747 54.6302 41.9337C55.0864 41.3926 55.3366 40.7077 55.3366 40C55.3366 39.2923 55.0864 38.6074 54.6302 38.0663C54.1741 37.5253 53.5414 37.1629 52.8439 37.0432C52.1464 36.9235 51.429 37.0543 50.8186 37.4124C50.2082 37.7705 49.744 38.3328 49.5081 39ZM53.3241 40C53.3241 40.1978 53.2655 40.3911 53.1556 40.5556C53.0457 40.72 52.8895 40.8482 52.7068 40.9239C52.5241 40.9996 52.323 41.0194 52.129 40.9808C51.9351 40.9422 51.7569 40.847 51.617 40.7071C51.4772 40.5673 51.3819 40.3891 51.3433 40.1951C51.3048 40.0011 51.3246 39.8 51.4002 39.6173C51.4759 39.4346 51.6041 39.2784 51.7686 39.1685C51.933 39.0587 52.1263 39 52.3241 39C52.5893 39 52.8437 39.1054 53.0312 39.2929C53.2188 39.4804 53.3241 39.7348 53.3241 40Z" fill="#0CB4C4"></path><path d="M47.3241 26H45.3241V28H47.3241V26Z" fill="#0CB4C4"></path><path d="M55.3241 54H53.3241V56H55.3241V54Z" fill="#0CB4C4"></path></svg>