<svg width="62" height="62" viewBox="0 0 62 62" fill="none" xmlns="http://www.w3.org/2000/svg"><path fill-rule="evenodd" clip-rule="evenodd" d="M31.0002 41.5001C36.7994 41.5001 41.5001 36.7995 41.5001 31.0002C41.5001 25.201 36.7994 20.5004 31.0002 20.5004C25.201 20.5004 20.5004 25.201 20.5004 31.0002C20.5004 36.7995 25.201 41.5001 31.0002 41.5001ZM35.1112 29.444C35.1112 30.3211 34.6369 31.0325 34.052 31.0325C33.4672 31.0325 32.9928 30.321 32.9928 29.444C32.9928 28.5665 33.4671 27.8555 34.052 27.8555C34.6369 27.8555 35.1112 28.5665 35.1112 29.444ZM28.5421 29.4445C28.5421 30.3215 28.0678 31.033 27.4829 31.033C26.8976 31.033 26.4238 30.3215 26.4238 29.4445C26.4238 28.567 26.8976 27.8555 27.4829 27.8555C28.0678 27.8555 28.5421 28.567 28.5421 29.4445Z" fill="#0CB4C4"></path><path fill-rule="evenodd" clip-rule="evenodd" d="M31.9376 10.2151C33.03 9.82902 33.8126 8.78737 33.8126 7.56263C33.8126 6.00968 32.5538 4.75034 31.0003 4.75034C29.4469 4.75034 28.188 6.00968 28.188 7.56263C28.188 8.78737 28.9707 9.82898 30.063 10.2151V14.1255H24.4379V11.8619L21.0758 8.50031H18.6525C18.2663 7.40792 17.2247 6.62532 16 6.62532C14.447 6.62532 13.1877 7.88418 13.1877 9.43762C13.1877 10.9911 14.447 12.2504 16 12.2504C17.2247 12.2504 18.2663 11.4678 18.6525 10.3754H20.2993L22.5628 12.6385V14.1255H17.8751C15.8041 14.1255 14.1255 15.8041 14.1255 17.8751V20.6879H12.0901C11.704 19.5955 10.6623 18.8129 9.43757 18.8129C7.88413 18.8129 6.62528 20.0722 6.62528 21.6252C6.62528 23.1786 7.88413 24.438 9.43757 24.438C10.6623 24.438 11.7039 23.6553 12.0901 22.563H14.1255V30.0632H12.0901C11.704 28.9708 10.6623 28.1882 9.43757 28.1882C7.88413 28.1882 6.62528 29.447 6.62528 31.0005C6.62528 32.5539 7.88413 33.8128 9.43757 33.8128C10.6623 33.8128 11.7039 33.0301 12.0901 31.9378H14.1255V39.438H12.0901C11.704 38.3456 10.6623 37.563 9.43757 37.563C7.88413 37.563 6.62528 38.8223 6.62528 40.3758C6.62528 41.9287 7.88413 43.1881 9.43757 43.1881C10.6623 43.1881 11.7039 42.4054 12.0901 41.3131H14.1255V44.1259C14.1255 46.1968 15.8041 47.8755 17.8751 47.8755H22.5628V49.362L20.2993 51.6256H18.6525C18.2663 50.5332 17.2247 49.7506 16 49.7506C14.447 49.7506 13.1877 51.0099 13.1877 52.5634C13.1877 54.1168 14.447 55.3757 16 55.3757C17.2247 55.3757 18.2663 54.5935 18.6525 53.5007H21.0758L24.4379 50.139V47.8755H30.063V51.7859C28.9706 52.1715 28.188 53.2136 28.188 54.4384C28.188 55.9918 29.4469 57.2506 31.0003 57.2506C32.5538 57.2506 33.8126 55.9918 33.8126 54.4384C33.8126 53.2136 33.03 52.1715 31.9376 51.7859V47.8755H37.5627V50.139L40.9248 53.5007H43.3482C43.7343 54.5935 44.776 55.3757 46.0007 55.3757C47.5541 55.3757 48.813 54.1168 48.813 52.5634C48.813 51.0099 47.5541 49.7506 46.0007 49.7506C44.776 49.7506 43.7343 50.5332 43.3482 51.6256H41.7014L39.4378 49.362V47.8755H44.1256C46.1966 47.8755 47.8752 46.1968 47.8752 44.1259V41.3131H49.9106C50.2967 42.4055 51.3383 43.1881 52.5631 43.1881C54.1165 43.1881 55.3754 41.9287 55.3754 40.3758C55.3754 38.8223 54.1165 37.563 52.5631 37.563C51.3383 37.563 50.2967 38.3456 49.9106 39.438H47.8752V31.9378H49.9106C50.2967 33.0302 51.3383 33.8128 52.5631 33.8128C54.1165 33.8128 55.3754 32.5539 55.3754 31.0005C55.3754 29.447 54.1165 28.1882 52.5631 28.1882C51.3383 28.1882 50.2967 28.9708 49.9106 30.0632H47.8752V22.563H49.9106C50.2967 23.6554 51.3383 24.438 52.5631 24.438C54.1165 24.438 55.3754 23.1786 55.3754 21.6252C55.3754 20.0722 54.1165 18.8129 52.5631 18.8129C51.3383 18.8129 50.2967 19.5956 49.9106 20.6879H47.8752V17.8751C47.8752 15.8041 46.1966 14.1255 44.1256 14.1255H39.4378V12.6385L41.7014 10.3754H43.3482C43.7343 11.4678 44.776 12.2504 46.0007 12.2504C47.5541 12.2504 48.813 10.9911 48.813 9.43762C48.813 7.88418 47.5541 6.62532 46.0007 6.62532C44.776 6.62532 43.7343 7.40797 43.3482 8.50031H40.9248L37.5627 11.8619V14.1255H31.9376V10.2151ZM31.9376 7.56263C31.9376 8.0806 31.5183 8.50039 31.0003 8.50039C30.4824 8.50039 30.0631 8.08061 30.0631 7.56263C30.0631 7.04514 30.4824 6.62535 31.0003 6.62535C31.5183 6.62535 31.9376 7.04513 31.9376 7.56263ZM45.0629 9.43762C45.0629 9.95559 45.4827 10.3754 46.0007 10.3754C46.5181 10.3754 46.9379 9.9556 46.9379 9.43762C46.9379 8.92013 46.5182 8.50033 46.0007 8.50033C45.4827 8.50033 45.0629 8.92011 45.0629 9.43762ZM16.9375 9.43762C16.9375 8.92013 16.5177 8.50033 15.9998 8.50033C15.4823 8.50033 15.0625 8.92011 15.0625 9.43762C15.0625 9.95559 15.4822 10.3754 15.9998 10.3754C16.5177 10.3754 16.9375 9.9556 16.9375 9.43762ZM17.8748 16C16.8393 16 15.9998 16.8396 15.9998 17.875V44.1255C15.9998 45.161 16.8394 46.0005 17.8748 46.0005H44.1253C45.1608 46.0005 46.0003 45.1609 46.0003 44.1255V17.875C46.0003 16.8395 45.1607 16 44.1253 16H17.8748ZM31.0001 53.4997C31.518 53.4997 31.9373 53.9195 31.9373 54.4375C31.9373 54.9554 31.518 55.3747 31.0001 55.3747C30.4821 55.3747 30.0628 54.9554 30.0628 54.4375C30.0628 53.9195 30.4821 53.4997 31.0001 53.4997ZM46.0002 51.6247C45.4822 51.6247 45.0624 52.0445 45.0624 52.5625C45.0624 53.0805 45.4822 53.4998 46.0002 53.4998C46.5177 53.4998 46.9375 53.0805 46.9375 52.5625C46.9375 52.0445 46.5177 51.6247 46.0002 51.6247ZM15.9999 53.4997C16.5179 53.4997 16.9377 53.0804 16.9377 52.5624C16.9377 52.0444 16.5179 51.6247 15.9999 51.6247C15.4824 51.6247 15.0626 52.0444 15.0626 52.5624C15.0626 53.0804 15.4824 53.4997 15.9999 53.4997ZM52.5634 20.6872C52.0454 20.6872 51.6257 21.1069 51.6257 21.6244C51.6257 22.1424 52.0454 22.5622 52.5634 22.5622C53.0814 22.5622 53.5007 22.1424 53.5007 21.6244C53.5007 21.107 53.0814 20.6872 52.5634 20.6872ZM52.5634 30.0623C52.0454 30.0623 51.6257 30.4816 51.6257 30.9996C51.6257 31.5176 52.0454 31.9369 52.5634 31.9369C53.0814 31.9369 53.5007 31.5176 53.5007 30.9996C53.5007 30.4816 53.0814 30.0623 52.5634 30.0623ZM51.6257 40.3748C51.6257 39.8568 52.0454 39.437 52.5634 39.437C53.0814 39.437 53.5007 39.8568 53.5007 40.3748C53.5007 40.8923 53.0814 41.3121 52.5634 41.3121C52.0454 41.3121 51.6257 40.8923 51.6257 40.3748ZM10.3762 21.625C10.3762 21.1075 9.95645 20.6877 9.43847 20.6877C8.92098 20.6877 8.50119 21.1075 8.50119 21.625C8.50119 22.1429 8.92097 22.5627 9.43847 22.5627C9.95644 22.5627 10.3762 22.1429 10.3762 21.625ZM10.3762 31.0001C10.3762 30.4822 9.95645 30.0628 9.43847 30.0628C8.92098 30.0628 8.50119 30.4821 8.50119 31.0001C8.50119 31.5181 8.92097 31.9374 9.43847 31.9374C9.95644 31.9374 10.3762 31.5181 10.3762 31.0001ZM9.43847 39.4375C9.95644 39.4375 10.3762 39.8573 10.3762 40.3753C10.3762 40.8928 9.95645 41.3125 9.43847 41.3125C8.92098 41.3125 8.50119 40.8928 8.50119 40.3753C8.50119 39.8573 8.92097 39.4375 9.43847 39.4375Z" fill="#0CB4C4"></path><path fill-rule="evenodd" clip-rule="evenodd" d="M1 9.0001C1 4.58167 4.58167 1 9.0001 1H52.9999C57.4183 1 61 4.58167 61 9.0001V52.9999C61 57.4183 57.4183 61 52.9999 61H9.0001C4.58167 61 1 57.4183 1 52.9999V9.0001ZM9.0001 2.99981H52.9999C56.3136 2.99981 59.0002 5.68643 59.0002 9.0001V52.9999C59.0002 56.3136 56.3136 59.0002 52.9999 59.0002H9.0001C5.68643 59.0002 2.99981 56.3136 2.99981 52.9999V9.0001C2.99981 5.68643 5.68643 2.99981 9.0001 2.99981Z" fill="#0CB4C4"></path><path fill-rule="evenodd" clip-rule="evenodd" d="M31.0002 41.5001C36.7994 41.5001 41.5001 36.7995 41.5001 31.0002C41.5001 25.201 36.7994 20.5004 31.0002 20.5004C25.201 20.5004 20.5004 25.201 20.5004 31.0002C20.5004 36.7995 25.201 41.5001 31.0002 41.5001ZM35.1112 29.444C35.1112 30.3211 34.6369 31.0325 34.052 31.0325C33.4672 31.0325 32.9928 30.321 32.9928 29.444C32.9928 28.5665 33.4671 27.8555 34.052 27.8555C34.6369 27.8555 35.1112 28.5665 35.1112 29.444ZM28.5421 29.4445C28.5421 30.3215 28.0678 31.033 27.4829 31.033C26.8976 31.033 26.4238 30.3215 26.4238 29.4445C26.4238 28.567 26.8976 27.8555 27.4829 27.8555C28.0678 27.8555 28.5421 28.567 28.5421 29.4445Z" stroke="#0CB4C4" stroke-width="0.5"></path><path fill-rule="evenodd" clip-rule="evenodd" d="M31.9376 10.2151C33.03 9.82902 33.8126 8.78737 33.8126 7.56263C33.8126 6.00968 32.5538 4.75034 31.0003 4.75034C29.4469 4.75034 28.188 6.00968 28.188 7.56263C28.188 8.78737 28.9707 9.82898 30.063 10.2151V14.1255H24.4379V11.8619L21.0758 8.50031H18.6525C18.2663 7.40792 17.2247 6.62532 16 6.62532C14.447 6.62532 13.1877 7.88418 13.1877 9.43762C13.1877 10.9911 14.447 12.2504 16 12.2504C17.2247 12.2504 18.2663 11.4678 18.6525 10.3754H20.2993L22.5628 12.6385V14.1255H17.8751C15.8041 14.1255 14.1255 15.8041 14.1255 17.8751V20.6879H12.0901C11.704 19.5955 10.6623 18.8129 9.43757 18.8129C7.88413 18.8129 6.62528 20.0722 6.62528 21.6252C6.62528 23.1786 7.88413 24.438 9.43757 24.438C10.6623 24.438 11.7039 23.6553 12.0901 22.563H14.1255V30.0632H12.0901C11.704 28.9708 10.6623 28.1882 9.43757 28.1882C7.88413 28.1882 6.62528 29.447 6.62528 31.0005C6.62528 32.5539 7.88413 33.8128 9.43757 33.8128C10.6623 33.8128 11.7039 33.0301 12.0901 31.9378H14.1255V39.438H12.0901C11.704 38.3456 10.6623 37.563 9.43757 37.563C7.88413 37.563 6.62528 38.8223 6.62528 40.3758C6.62528 41.9287 7.88413 43.1881 9.43757 43.1881C10.6623 43.1881 11.7039 42.4054 12.0901 41.3131H14.1255V44.1259C14.1255 46.1968 15.8041 47.8755 17.8751 47.8755H22.5628V49.362L20.2993 51.6256H18.6525C18.2663 50.5332 17.2247 49.7506 16 49.7506C14.447 49.7506 13.1877 51.0099 13.1877 52.5634C13.1877 54.1168 14.447 55.3757 16 55.3757C17.2247 55.3757 18.2663 54.5935 18.6525 53.5007H21.0758L24.4379 50.139V47.8755H30.063V51.7859C28.9706 52.1715 28.188 53.2136 28.188 54.4384C28.188 55.9918 29.4469 57.2506 31.0003 57.2506C32.5538 57.2506 33.8126 55.9918 33.8126 54.4384C33.8126 53.2136 33.03 52.1715 31.9376 51.7859V47.8755H37.5627V50.139L40.9248 53.5007H43.3482C43.7343 54.5935 44.776 55.3757 46.0007 55.3757C47.5541 55.3757 48.813 54.1168 48.813 52.5634C48.813 51.0099 47.5541 49.7506 46.0007 49.7506C44.776 49.7506 43.7343 50.5332 43.3482 51.6256H41.7014L39.4378 49.362V47.8755H44.1256C46.1966 47.8755 47.8752 46.1968 47.8752 44.1259V41.3131H49.9106C50.2967 42.4055 51.3383 43.1881 52.5631 43.1881C54.1165 43.1881 55.3754 41.9287 55.3754 40.3758C55.3754 38.8223 54.1165 37.563 52.5631 37.563C51.3383 37.563 50.2967 38.3456 49.9106 39.438H47.8752V31.9378H49.9106C50.2967 33.0302 51.3383 33.8128 52.5631 33.8128C54.1165 33.8128 55.3754 32.5539 55.3754 31.0005C55.3754 29.447 54.1165 28.1882 52.5631 28.1882C51.3383 28.1882 50.2967 28.9708 49.9106 30.0632H47.8752V22.563H49.9106C50.2967 23.6554 51.3383 24.438 52.5631 24.438C54.1165 24.438 55.3754 23.1786 55.3754 21.6252C55.3754 20.0722 54.1165 18.8129 52.5631 18.8129C51.3383 18.8129 50.2967 19.5956 49.9106 20.6879H47.8752V17.8751C47.8752 15.8041 46.1966 14.1255 44.1256 14.1255H39.4378V12.6385L41.7014 10.3754H43.3482C43.7343 11.4678 44.776 12.2504 46.0007 12.2504C47.5541 12.2504 48.813 10.9911 48.813 9.43762C48.813 7.88418 47.5541 6.62532 46.0007 6.62532C44.776 6.62532 43.7343 7.40797 43.3482 8.50031H40.9248L37.5627 11.8619V14.1255H31.9376V10.2151ZM31.9376 7.56263C31.9376 8.0806 31.5183 8.50039 31.0003 8.50039C30.4824 8.50039 30.0631 8.08061 30.0631 7.56263C30.0631 7.04514 30.4824 6.62535 31.0003 6.62535C31.5183 6.62535 31.9376 7.04513 31.9376 7.56263ZM45.0629 9.43762C45.0629 9.95559 45.4827 10.3754 46.0007 10.3754C46.5181 10.3754 46.9379 9.9556 46.9379 9.43762C46.9379 8.92013 46.5182 8.50033 46.0007 8.50033C45.4827 8.50033 45.0629 8.92011 45.0629 9.43762ZM16.9375 9.43762C16.9375 8.92013 16.5177 8.50033 15.9998 8.50033C15.4823 8.50033 15.0625 8.92011 15.0625 9.43762C15.0625 9.95559 15.4822 10.3754 15.9998 10.3754C16.5177 10.3754 16.9375 9.9556 16.9375 9.43762ZM17.8748 16C16.8393 16 15.9998 16.8396 15.9998 17.875V44.1255C15.9998 45.161 16.8394 46.0005 17.8748 46.0005H44.1253C45.1608 46.0005 46.0003 45.1609 46.0003 44.1255V17.875C46.0003 16.8395 45.1607 16 44.1253 16H17.8748ZM31.0001 53.4997C31.518 53.4997 31.9373 53.9195 31.9373 54.4375C31.9373 54.9554 31.518 55.3747 31.0001 55.3747C30.4821 55.3747 30.0628 54.9554 30.0628 54.4375C30.0628 53.9195 30.4821 53.4997 31.0001 53.4997ZM46.0002 51.6247C45.4822 51.6247 45.0624 52.0445 45.0624 52.5625C45.0624 53.0805 45.4822 53.4998 46.0002 53.4998C46.5177 53.4998 46.9375 53.0805 46.9375 52.5625C46.9375 52.0445 46.5177 51.6247 46.0002 51.6247ZM15.9999 53.4997C16.5179 53.4997 16.9377 53.0804 16.9377 52.5624C16.9377 52.0444 16.5179 51.6247 15.9999 51.6247C15.4824 51.6247 15.0626 52.0444 15.0626 52.5624C15.0626 53.0804 15.4824 53.4997 15.9999 53.4997ZM52.5634 20.6872C52.0454 20.6872 51.6257 21.1069 51.6257 21.6244C51.6257 22.1424 52.0454 22.5622 52.5634 22.5622C53.0814 22.5622 53.5007 22.1424 53.5007 21.6244C53.5007 21.107 53.0814 20.6872 52.5634 20.6872ZM52.5634 30.0623C52.0454 30.0623 51.6257 30.4816 51.6257 30.9996C51.6257 31.5176 52.0454 31.9369 52.5634 31.9369C53.0814 31.9369 53.5007 31.5176 53.5007 30.9996C53.5007 30.4816 53.0814 30.0623 52.5634 30.0623ZM51.6257 40.3748C51.6257 39.8568 52.0454 39.437 52.5634 39.437C53.0814 39.437 53.5007 39.8568 53.5007 40.3748C53.5007 40.8923 53.0814 41.3121 52.5634 41.3121C52.0454 41.3121 51.6257 40.8923 51.6257 40.3748ZM10.3762 21.625C10.3762 21.1075 9.95645 20.6877 9.43847 20.6877C8.92098 20.6877 8.50119 21.1075 8.50119 21.625C8.50119 22.1429 8.92097 22.5627 9.43847 22.5627C9.95644 22.5627 10.3762 22.1429 10.3762 21.625ZM10.3762 31.0001C10.3762 30.4822 9.95645 30.0628 9.43847 30.0628C8.92098 30.0628 8.50119 30.4821 8.50119 31.0001C8.50119 31.5181 8.92097 31.9374 9.43847 31.9374C9.95644 31.9374 10.3762 31.5181 10.3762 31.0001ZM9.43847 39.4375C9.95644 39.4375 10.3762 39.8573 10.3762 40.3753C10.3762 40.8928 9.95645 41.3125 9.43847 41.3125C8.92098 41.3125 8.50119 40.8928 8.50119 40.3753C8.50119 39.8573 8.92097 39.4375 9.43847 39.4375Z" stroke="#0CB4C4" stroke-width="0.5"></path><path fill-rule="evenodd" clip-rule="evenodd" d="M1 9.0001C1 4.58167 4.58167 1 9.0001 1H52.9999C57.4183 1 61 4.58167 61 9.0001V52.9999C61 57.4183 57.4183 61 52.9999 61H9.0001C4.58167 61 1 57.4183 1 52.9999V9.0001ZM9.0001 2.99981H52.9999C56.3136 2.99981 59.0002 5.68643 59.0002 9.0001V52.9999C59.0002 56.3136 56.3136 59.0002 52.9999 59.0002H9.0001C5.68643 59.0002 2.99981 56.3136 2.99981 52.9999V9.0001C2.99981 5.68643 5.68643 2.99981 9.0001 2.99981Z" stroke="#0CB4C4" stroke-width="0.5"></path></svg>