<svg xmlns="http://www.w3.org/2000/svg" width="60" height="60" viewBox="0 0 60 60" fill="none"><path d="M47.82 0H5.80645V9.67742H4.83871C2.17065 9.67742 0 11.8481 0 14.5161V31.9355C0 34.6035 2.17065 36.7742 4.83871 36.7742H5.80645V60H60V12.18L47.82 0ZM48.3871 3.30387L56.6961 11.6129H48.3871V3.30387ZM11.6129 17.4194V1.93548H13.5484V17.4194H11.6129ZM9.67742 1.93548V17.4194H7.74194V1.93548H9.67742ZM4.83871 11.6129H5.80645V17.4194H4.83871C3.23806 17.4194 1.93548 16.1168 1.93548 14.5161C1.93548 12.9155 3.23806 11.6129 4.83871 11.6129ZM1.93548 31.9355V18.3852C2.74452 18.9929 3.75 19.3548 4.83871 19.3548H35.8065C37.4071 19.3548 38.7097 20.6574 38.7097 22.2581V31.9355C38.7097 33.5361 37.4071 34.8387 35.8065 34.8387H4.83871C3.23806 34.8387 1.93548 33.5361 1.93548 31.9355ZM13.5484 36.7742V58.0645H11.6129V36.7742H13.5484ZM7.74194 36.7742H9.67742V58.0645H7.74194V36.7742ZM15.4839 58.0645V36.7742H35.8065C38.4745 36.7742 40.6452 34.6035 40.6452 31.9355V22.2581C40.6452 19.59 38.4745 17.4194 35.8065 17.4194H15.4839V1.93548H46.4516V13.5484H58.0645V58.0645H15.4839Z" fill="#0CB4C4"></path><path d="M25.004 21.29C24.1021 21.29 23.3037 21.8649 23.0182 22.7213L21.5598 27.0965H21.0189L19.5605 22.7213C19.276 21.8649 18.4776 21.29 17.5757 21.29C16.4221 21.29 15.4834 22.2287 15.4834 23.3823V32.9029H17.4189V23.3823C17.4189 23.2275 17.6773 23.1858 17.7247 23.3329L19.6244 29.032H22.9544L24.854 23.3329C24.9024 23.1858 25.1608 23.2275 25.1608 23.3823V32.9029H27.0963V23.3823C27.0963 22.2287 26.1576 21.29 25.004 21.29Z" fill="#0CB4C4"></path><path d="M30.9677 21.29H29.0322V32.9029H34.8387V30.9675H30.9677V21.29Z" fill="#0CB4C4"></path><path d="M12.7429 20.7529L9.67711 25.3516L6.6113 20.7529L5.00098 21.8271L8.51388 27.0965L5.00098 32.3658L6.6113 33.44L9.67711 28.8413L12.7429 33.44L14.3532 32.3658L10.8403 27.0965L14.3532 21.8271L12.7429 20.7529Z" fill="#0CB4C4"></path><path d="M17.4189 9.67755H23.2254V3.87109H17.4189V9.67755ZM19.3544 5.80658H21.2899V7.74206H19.3544V5.80658Z" fill="#0CB4C4"></path><path d="M25.1611 9.67755H30.9676V3.87109H25.1611V9.67755ZM27.0966 5.80658H29.0321V7.74206H27.0966V5.80658Z" fill="#0CB4C4"></path><path d="M32.9033 9.67755H38.7098V3.87109H32.9033V9.67755ZM34.8388 5.80658H36.7743V7.74206H34.8388V5.80658Z" fill="#0CB4C4"></path><path d="M38.7097 38.71C33.9077 38.71 30 42.6167 30 47.4196C30 52.2225 33.9077 56.1293 38.7097 56.1293C43.5116 56.1293 47.4194 52.2225 47.4194 47.4196C47.4194 42.6167 43.5116 38.71 38.7097 38.71ZM37.1719 50.3229C37.0074 49.7325 36.8845 49.0842 36.8216 48.3874H40.5968C40.5339 49.0842 40.411 49.7325 40.2465 50.3229H37.1719ZM39.5013 52.2583C39.2303 52.8042 38.9526 53.2571 38.7097 53.6083C38.4668 53.2571 38.1881 52.8042 37.9181 52.2583H39.5013ZM36.8216 46.4519C36.8845 45.7551 37.0074 45.1067 37.1719 44.5164H40.2465C40.411 45.1067 40.5339 45.7551 40.5968 46.4519H36.8216ZM37.9181 42.5809C38.189 42.0351 38.4668 41.5822 38.7097 41.2309C38.9526 41.5822 39.2303 42.0351 39.5013 42.5809H37.9181ZM40.8571 41.0006C41.8365 41.3296 42.7181 41.8735 43.441 42.5809H41.6323C41.3884 41.9819 41.1213 41.4564 40.8571 41.0006ZM35.7861 42.5809H33.9774C34.7003 41.8735 35.5819 41.3287 36.5613 41.0006C36.2981 41.4564 36.031 41.9819 35.7861 42.5809ZM35.1745 44.5164C35.0342 45.1193 34.9268 45.7629 34.8755 46.4519H32.0129C32.1116 45.7687 32.311 45.1183 32.5984 44.5164H35.1745ZM34.8755 48.3874C34.9268 49.0764 35.0342 49.72 35.1745 50.3229H32.5984C32.311 49.7209 32.1116 49.0706 32.0129 48.3874H34.8755ZM35.7861 52.2583C36.03 52.8574 36.2981 53.3829 36.5613 53.8387C35.5819 53.5096 34.7003 52.9658 33.9774 52.2583H35.7861ZM41.6332 52.2583H43.4419C42.719 52.9658 41.8374 53.5106 40.8581 53.8387C41.1213 53.3829 41.3884 52.8574 41.6332 52.2583ZM42.2448 50.3229C42.3852 49.72 42.4926 49.0764 42.5439 48.3874H45.4065C45.3077 49.0706 45.1084 49.7209 44.821 50.3229H42.2448ZM42.5439 46.4519C42.4926 45.7629 42.3852 45.1193 42.2448 44.5164H44.821C45.1084 45.1183 45.3077 45.7687 45.4065 46.4519H42.5439Z" fill="#0CB4C4"></path><path d="M46.6953 39.3525L53.8663 47.4196L46.6953 55.4867L48.1431 56.7719L56.456 47.4196L48.1431 38.0674L46.6953 39.3525Z" fill="#0CB4C4"></path><path d="M30.7235 39.3525L29.2758 38.0674L20.9629 47.4196L29.2758 56.7719L30.7235 55.4867L23.5526 47.4196L30.7235 39.3525Z" fill="#0CB4C4"></path><path d="M56.1294 15.4834H42.5811V17.4189H56.1294V15.4834Z" fill="#0CB4C4"></path><path d="M56.1288 19.3545H54.1934V21.29H56.1288V19.3545Z" fill="#0CB4C4"></path><path d="M52.2585 19.3545H42.5811V21.29H52.2585V19.3545Z" fill="#0CB4C4"></path><path d="M56.1294 23.2256H42.5811V25.1611H56.1294V23.2256Z" fill="#0CB4C4"></path><path d="M56.1294 27.0967H42.5811V29.0322H56.1294V27.0967Z" fill="#0CB4C4"></path><path d="M56.1286 30.9678H46.4512V32.9033H56.1286V30.9678Z" fill="#0CB4C4"></path><path d="M44.5165 30.9678H42.5811V32.9033H44.5165V30.9678Z" fill="#0CB4C4"></path><path d="M56.1294 34.8389H42.5811V36.7744H56.1294V34.8389Z" fill="#0CB4C4"></path></svg>