<svg version="1.1" id="Layer_1" xmlns="http://www.w3.org/2000/svg" xmlns:xlink="http://www.w3.org/1999/xlink" x="0px" y="0px" width="53.409px" height="60px" viewBox="0 0 53.409 60" enable-background="new 0 0 53.409 60" xml:space="preserve"><g><path fill="#0CB4C4" d="M7.571,23.139l5.805,10.021c0.287,0.45,0.885,0.584,1.336,0.297c0.425-0.27,0.57-0.818,0.339-1.265 L9.247,22.175c1.005-0.838,1.69-2.001,1.935-3.289h11.646c0.534,0,0.968-0.434,0.968-0.967c0-0.534-0.434-0.968-0.968-0.968H11.22 c-0.489-3.078-3.382-5.177-6.462-4.688c-3.078,0.49-5.177,3.382-4.687,6.461c0.488,3.079,3.382,5.177,6.46,4.688 c0.36-0.058,0.713-0.15,1.056-0.274H7.571z M5.637,14.127c2.054,0,3.716,1.663,3.716,3.714c0,2.053-1.662,3.715-3.716,3.715 c-2.05,0-3.713-1.663-3.713-3.715l0,0c0.003-2.048,1.66-3.709,3.709-3.714H5.637z"></path><path fill="#0CB4C4" d="M47.76,36.53c-1.689,0.008-3.286,0.771-4.353,2.08l-9.49-5.804c1.541-3.987-0.443-8.468-4.43-10.008 c-0.587-0.227-1.199-0.38-1.823-0.458V11.216c3.073-0.535,5.133-3.459,4.599-6.533c-0.535-3.074-3.46-5.132-6.533-4.599 c-3.073,0.534-5.133,3.459-4.599,6.533c0.409,2.35,2.248,4.19,4.599,4.599V22.34c-4.24,0.539-7.239,4.415-6.698,8.654 c0.079,0.626,0.235,1.238,0.463,1.826l-9.489,5.805c-1.994-2.399-5.556-2.729-7.955-0.735c-2.399,1.995-2.729,5.558-0.733,7.955 c1.994,2.401,5.555,2.729,7.956,0.736c1.831-1.521,2.511-4.031,1.7-6.268l9.437-5.791c2.479,3.466,7.296,4.267,10.761,1.79 c0.692-0.494,1.297-1.099,1.79-1.79l9.479,5.775c-1.037,2.94,0.508,6.164,3.447,7.199c2.939,1.038,6.163-0.506,7.199-3.445 c1.037-2.94-0.506-6.164-3.445-7.2C49.035,36.639,48.4,36.53,47.76,36.53z M5.633,45.893c-2.052,0-3.714-1.662-3.714-3.713 c0-2.053,1.662-3.716,3.714-3.716s3.715,1.663,3.715,3.716C9.345,44.23,7.683,45.891,5.633,45.893z M22.982,5.673 c-0.003-2.051,1.658-3.716,3.709-3.72c2.052-0.002,3.717,1.658,3.72,3.71c0.002,2.051-1.659,3.717-3.71,3.72 c-0.002,0-0.002,0-0.005,0C24.648,9.38,22.987,7.721,22.982,5.673z M26.696,35.814c-3.205,0-5.804-2.598-5.804-5.804 c0-3.206,2.599-5.804,5.804-5.804c3.206,0,5.804,2.598,5.804,5.804C32.5,33.217,29.902,35.814,26.696,35.814z M47.76,45.893 c-2.052,0-3.715-1.662-3.715-3.713c0-2.053,1.663-3.716,3.715-3.716s3.714,1.663,3.714,3.716 C51.472,44.23,49.811,45.891,47.76,45.893z"></path><path fill="#0CB4C4" d="M35.886,38.648c-0.461-0.27-1.053-0.119-1.325,0.342c0,0,0,0,0,0.003l-5.93,10.059 c-1.248-0.464-2.621-0.464-3.869,0l-5.867-10.157c-0.287-0.45-0.884-0.584-1.335-0.297c-0.424,0.27-0.571,0.818-0.337,1.265 l5.866,10.157c-2.393,2.002-2.708,5.566-0.704,7.957c2.004,2.394,5.566,2.708,7.959,0.703c2.391-2.003,2.706-5.564,0.703-7.958 c-0.214-0.254-0.448-0.488-0.703-0.702l5.89-10.047c0.271-0.461,0.116-1.053-0.345-1.322L35.886,38.648z M26.696,58.063 c-2.052,0-3.714-1.662-3.714-3.713c0-2.053,1.662-3.716,3.714-3.716s3.715,1.663,3.715,3.716 C30.408,56.4,28.747,58.06,26.696,58.063z"></path><path fill="#0CB4C4" d="M30.604,16.952c-0.534,0-0.967,0.434-0.967,0.968c0,0.534,0.433,0.967,0.967,0.967h11.608 c0.241,1.291,0.927,2.457,1.935,3.298l-5.658,10.157c-0.26,0.467-0.093,1.055,0.373,1.316c0.466,0.26,1.054,0.094,1.314-0.373 l5.654-10.143c2.931,1.059,6.168-0.458,7.226-3.39c1.061-2.932-0.457-6.167-3.388-7.227c-2.933-1.059-6.168,0.458-7.228,3.39 c-0.122,0.336-0.211,0.683-0.267,1.036H30.604z M47.76,14.127c2.052,0,3.714,1.663,3.714,3.714c0,2.053-1.662,3.715-3.714,3.715 s-3.715-1.663-3.715-3.715C44.048,15.791,45.711,14.13,47.76,14.127z"></path></g></svg>