<svg version="1.1" id="Layer_1" xmlns="http://www.w3.org/2000/svg" xmlns:xlink="http://www.w3.org/1999/xlink" x="0px" y="0px" width="60px" height="60px" viewBox="0 0 60 60" enable-background="new 0 0 60 60" xml:space="preserve"><g><path fill="#0CB4C4" d="M20,60H3.75C1.679,60,0,58.32,0,56.25V15h2.5v41.25c0,0.691,0.56,1.25,1.25,1.25H20V60z"></path><path fill="#0CB4C4" d="M60,20h-2.5V3.75c0-0.69-0.559-1.25-1.25-1.25H3.75C3.06,2.5,2.5,3.06,2.5,3.75v8.75H0V3.75 C0,1.679,1.679,0,3.75,0h52.5C58.32,0,60,1.679,60,3.75V20z"></path><rect x="1.25" y="7.5" fill="#0CB4C4" width="57.5" height="2.5"></rect><rect x="5" y="3.75" fill="#0CB4C4" width="2.5" height="2.5"></rect><rect x="10" y="3.75" fill="#0CB4C4" width="2.5" height="2.5"></rect><rect x="15" y="3.75" fill="#0CB4C4" width="2.5" height="2.5"></rect><rect x="52.5" y="3.75" fill="#0CB4C4" width="2.5" height="2.5"></rect><path fill="#0CB4C4" d="M56.25,60h-30c-2.071,0-3.75-1.68-3.75-3.75v-30c0-2.071,1.679-3.75,3.75-3.75h30 c2.07,0,3.75,1.679,3.75,3.75v25h-2.5v-25c0-0.69-0.559-1.25-1.25-1.25h-30C25.56,25,25,25.56,25,26.25v30 c0,0.691,0.56,1.25,1.25,1.25h30c0.691,0,1.25-0.559,1.25-1.25v-2.5H60v2.5C60,58.32,58.32,60,56.25,60z"></path><rect x="23.75" y="30" fill="#0CB4C4" width="35" height="2.5"></rect><rect x="27.5" y="26.25" fill="#0CB4C4" width="2.5" height="2.5"></rect><rect x="32.5" y="26.25" fill="#0CB4C4" width="2.5" height="2.5"></rect><rect x="37.5" y="26.25" fill="#0CB4C4" width="2.5" height="2.5"></rect><rect x="52.5" y="26.25" fill="#0CB4C4" width="2.5" height="2.5"></rect><path fill="#0CB4C4" d="M20,25H6.25C5.56,25,5,24.44,5,23.75v-10c0-0.69,0.56-1.25,1.25-1.25h47.5c0.691,0,1.25,0.56,1.25,1.25V20 h-2.5v-5h-45v7.5H20V25z"></path><rect x="10" y="31.25" fill="#0CB4C4" width="10" height="2.5"></rect><rect x="5" y="36.25" fill="#0CB4C4" width="15" height="2.5"></rect><rect x="5" y="41.25" fill="#0CB4C4" width="15" height="2.5"></rect><rect x="5" y="46.25" fill="#0CB4C4" width="15" height="2.5"></rect><rect x="5" y="31.25" fill="#0CB4C4" width="2.5" height="2.5"></rect><g transform="translate(0,-952.36218)"><path fill="#0CB4C4" d="M39.227,986.114c-0.384,0.04-0.676,0.365-0.674,0.752v1.974c-0.486,0.171-0.945,0.368-1.37,0.603 l-1.356-1.354c-0.293-0.295-0.768-0.295-1.063-0.002c0,0-0.001,0.001-0.002,0.002l-2.757,2.757c-0.289,0.293-0.289,0.765,0,1.058 l1.362,1.362c-0.233,0.428-0.433,0.885-0.604,1.371h-1.98c-0.416,0-0.753,0.336-0.753,0.752v4.011 c0,0.416,0.337,0.752,0.753,0.752h1.98c0.17,0.484,0.37,0.938,0.604,1.362l-1.362,1.363c-0.289,0.293-0.289,0.765,0,1.058 l2.757,2.757c0.293,0.295,0.77,0.296,1.063,0.002c0.001-0.001,0.001-0.001,0.001-0.002l1.356-1.355 c0.427,0.234,0.884,0.434,1.37,0.604v1.98c0,0.415,0.337,0.752,0.752,0.752h4.012c0.415,0,0.751-0.337,0.751-0.752v-1.98 c0.486-0.171,0.943-0.37,1.371-0.604l1.355,1.355c0.293,0.295,0.769,0.296,1.063,0.002c0-0.001,0.001-0.001,0.001-0.002 l2.758-2.757c0.289-0.293,0.289-0.765,0-1.058l-1.363-1.363c0.233-0.425,0.435-0.878,0.604-1.362h1.98 c0.415,0,0.752-0.336,0.752-0.752v-4.011c0-0.416-0.337-0.752-0.752-0.752h-1.98c-0.171-0.486-0.37-0.943-0.604-1.371l1.363-1.362 c0.289-0.293,0.289-0.765,0-1.058l-2.758-2.757c-0.293-0.295-0.769-0.295-1.063-0.002c-0.001,0-0.001,0.001-0.002,0.002 l-1.355,1.354c-0.426-0.234-0.884-0.432-1.371-0.603v-1.974c0-0.415-0.336-0.752-0.751-0.752h-4.012 C39.278,986.112,39.253,986.112,39.227,986.114z M40.057,987.618h2.508v1.746c0.001,0.346,0.236,0.646,0.571,0.729 c0.687,0.171,1.39,0.525,2.052,0.925c0.296,0.175,0.674,0.126,0.917-0.118l1.222-1.222l1.692,1.7l-1.223,1.222 c-0.241,0.244-0.286,0.622-0.109,0.916c0.396,0.659,0.745,1.361,0.917,2.053c0.082,0.335,0.383,0.57,0.729,0.571h1.755v2.507 h-1.755c-0.344,0-0.643,0.231-0.729,0.563c-0.172,0.69-0.521,1.394-0.917,2.053c-0.177,0.294-0.132,0.672,0.109,0.917l1.223,1.229 l-1.692,1.692l-1.222-1.223c-0.243-0.243-0.621-0.292-0.917-0.116c-0.659,0.396-1.36,0.743-2.052,0.915 c-0.339,0.084-0.574,0.39-0.571,0.737v1.755h-2.508v-1.755c0.003-0.348-0.233-0.653-0.571-0.737 c-0.691-0.172-1.394-0.52-2.052-0.915c-0.297-0.176-0.675-0.127-0.917,0.116l-1.222,1.223l-1.692-1.692l1.223-1.229 c0.241-0.245,0.286-0.623,0.109-0.917c-0.397-0.659-0.745-1.362-0.917-2.053c-0.086-0.332-0.385-0.563-0.729-0.563h-1.754v-2.507 h1.754c0.346-0.001,0.646-0.236,0.729-0.571c0.172-0.691,0.52-1.394,0.917-2.053c0.177-0.294,0.132-0.672-0.109-0.916 l-1.223-1.222l1.692-1.7l1.222,1.222c0.242,0.244,0.62,0.293,0.917,0.118c0.661-0.399,1.365-0.754,2.052-0.925 c0.336-0.082,0.57-0.383,0.571-0.729V987.618L40.057,987.618z M41.311,990.885c-3.591,0-6.509,2.918-6.509,6.508 c0,3.591,2.918,6.509,6.509,6.509s6.509-2.918,6.509-6.509C47.819,993.803,44.901,990.885,41.311,990.885L41.311,990.885z M41.311,992.372c2.777,0,5.021,2.243,5.021,5.021c0,2.064-1.241,3.827-3.016,4.599v-1.677c1.187-0.698,2.004-1.953,2.004-3.423 c0-1.661-1.016-3.1-2.467-3.705c-0.383-0.159-0.824,0.021-0.984,0.404c-0.038,0.093-0.058,0.192-0.058,0.293v2.647l-0.501,0.399 l-0.502-0.399v-2.647c0.004-0.416-0.33-0.755-0.745-0.758c-0.034,0-0.067,0.002-0.101,0.006c-0.067,0.01-0.133,0.028-0.195,0.055 c-1.452,0.605-2.468,2.044-2.468,3.705c0,1.47,0.818,2.725,2.005,3.423v1.677c-1.775-0.771-3.016-2.534-3.016-4.599 C36.289,994.615,38.533,992.372,41.311,992.372L41.311,992.372z M39.305,995.403v1.488c0,0.229,0.104,0.444,0.282,0.588 l1.254,1.002c0.274,0.22,0.664,0.22,0.939,0l1.254-1.002c0.178-0.144,0.282-0.359,0.282-0.588v-1.488 c0.31,0.415,0.5,0.925,0.5,1.488c0,1.05-0.638,1.934-1.543,2.311c-0.28,0.117-0.463,0.393-0.462,0.697v2.482 c-0.164,0.017-0.333,0.032-0.501,0.032s-0.337-0.016-0.502-0.032v-2.482c0.001-0.305-0.181-0.58-0.461-0.697 c-0.905-0.377-1.544-1.261-1.544-2.311C38.804,996.328,38.994,995.818,39.305,995.403L39.305,995.403z"></path></g></g></svg>