<svg width="61" height="60" viewBox="0 0 61 60" fill="none" xmlns="http://www.w3.org/2000/svg"><path d="M56.6139 0H11.0066C9.02169 0 7.40671 1.61497 7.40671 3.5999V35.6029C7.40671 37.5878 9.02169 39.2028 11.0066 39.2028H12.8153C13.2388 40.2298 13.7732 41.1996 14.4029 42.0983L12.847 43.6541L12.5973 43.4043C12.2298 43.0369 11.6338 43.0369 11.2663 43.4043L1.35913 53.3097C-0.169271 54.8381 -0.169271 57.325 1.35913 58.854C2.12333 59.6182 3.12732 60 4.1313 60C5.13529 60 6.13927 59.6176 6.90348 58.854L16.8101 48.9468C16.9863 48.7699 17.086 48.5308 17.086 48.281C17.086 48.0313 16.9869 47.7921 16.8101 47.6152L16.5603 47.3655L18.1161 45.8097C20.5588 47.5218 23.5303 48.5283 26.7328 48.5283C30.187 48.5283 33.3727 47.3574 35.9157 45.393H46.295C46.7789 45.393 47.2305 45.1308 47.4727 44.7085C47.715 44.2869 47.7119 43.7818 47.4646 43.357L45.0431 39.2015H56.6132C58.5982 39.2015 60.2131 37.5866 60.2131 35.6016V3.5999C60.2131 1.61497 58.5988 0 56.6139 0ZM11.0066 1.88216H56.6139C57.5606 1.88216 58.331 2.65259 58.331 3.5999V32.8687H41.7683C41.6768 30.5842 41.0733 28.4299 40.0699 26.5159H50.7905C51.9639 26.5159 52.9181 25.5612 52.9181 24.3884V5.65645C52.9181 4.48306 51.9639 3.5289 50.7905 3.5289H16.83C15.6566 3.5289 14.7024 4.48368 14.7024 5.65645V24.3884C14.7024 24.4083 14.7037 24.4276 14.7043 24.4476C12.9237 26.8124 11.8244 29.7172 11.6979 32.8687H9.2895V3.5999C9.2895 2.65259 10.0599 1.88216 11.0066 1.88216ZM22.6814 18.986C21.901 18.1041 20.8515 17.5131 19.6987 17.3032V12.7417C21.8362 12.3524 23.5253 10.6627 23.9146 8.52578H43.7053C44.0946 10.6633 45.7843 12.3524 47.9212 12.7417V17.3032C45.7836 17.6925 44.0939 19.3822 43.7053 21.5191H35.854C33.3216 19.5833 30.1596 18.4311 26.7328 18.4311C25.3296 18.4311 23.9706 18.6248 22.6814 18.986ZM44.5617 23.4012C45.0817 23.4012 45.5028 22.9796 45.5028 22.4601C45.5028 20.6079 47.01 19.1006 48.8622 19.1006C49.3823 19.1006 49.8033 18.679 49.8033 18.1596V11.8853C49.8033 11.3652 49.3817 10.9442 48.8622 10.9442C47.01 10.9442 45.5028 9.43697 45.5028 7.5847C45.5028 7.06465 45.0811 6.64362 44.5617 6.64362H23.0582C22.5381 6.64362 22.1171 7.06527 22.1171 7.5847C22.1171 9.43697 20.6099 10.9442 18.7576 10.9442C18.2376 10.9442 17.8165 11.3658 17.8165 11.8853V18.1602C17.8165 18.6802 18.2382 19.1013 18.7576 19.1013C19.4558 19.1013 20.1235 19.3174 20.679 19.7048C19.1687 20.3712 17.7873 21.2786 16.5846 22.3786V5.65645C16.5846 5.52379 16.6967 5.41106 16.83 5.41106H50.7905C50.9232 5.41106 51.0359 5.52317 51.0359 5.65645V24.3884C51.0359 24.5211 50.9238 24.6338 50.7905 24.6338H38.899C38.587 24.2059 38.2531 23.7942 37.8987 23.4018L44.5617 23.4012ZM11.0066 37.32C10.0599 37.32 9.2895 36.5496 9.2895 35.6029V34.7509H11.7384C11.8125 35.6309 11.962 36.4892 12.1813 37.32H11.0066ZM5.57251 57.523C4.77779 58.3178 3.48482 58.3178 2.6901 57.523C1.89538 56.7283 1.89538 55.4354 2.6901 54.6413L9.21788 48.1129L12.1003 50.9953L5.57251 57.523ZM13.4319 49.6637L10.5495 46.7813L11.9315 45.3992L14.8139 48.281L13.4319 49.6637ZM15.2293 46.0351L14.1786 44.9844L15.585 43.5781C15.9176 43.9456 16.2688 44.2962 16.6357 44.6288L15.2293 46.0351ZM13.5664 33.4803C13.5664 26.2201 19.4726 20.3139 26.7328 20.3139C33.993 20.3139 39.8992 26.2201 39.8992 33.4803C39.8992 40.7405 33.993 46.6467 26.7328 46.6467C19.4732 46.6461 13.5664 40.7399 13.5664 33.4803ZM45.3763 43.5115H37.9405C39.0721 42.2484 39.9939 40.7935 40.6504 39.2022H42.8645L45.3763 43.5115ZM56.6139 37.32H41.2844C41.5036 36.4892 41.6537 35.6309 41.7272 34.7509H58.331V35.6029C58.331 36.5496 57.5606 37.32 56.6139 37.32ZM31.2775 13.5906C31.2775 12.5561 31.9433 11.6735 32.8688 11.3503V11.222C32.8688 10.7019 33.2905 10.2809 33.8099 10.2809C34.33 10.2809 34.751 10.7025 34.751 11.222V11.3104C35.2561 11.4562 35.7083 11.7682 36.0234 12.2042C36.328 12.6252 36.2333 13.2138 35.8123 13.5183C35.3913 13.8229 34.8027 13.7282 34.4981 13.3072C34.4047 13.1776 34.2559 13.101 34.1002 13.101H33.6492C33.3833 13.101 33.1591 13.3252 33.1591 13.5912C33.1591 13.8571 33.3833 14.0813 33.6492 14.0813H33.9694C35.2773 14.0813 36.3417 15.1457 36.3417 16.4543C36.3417 17.4888 35.6759 18.3713 34.7504 18.6946V18.8235C34.7504 19.3435 34.3287 19.7646 33.8093 19.7646C33.2892 19.7646 32.8682 19.3429 32.8682 18.8235V18.7351C32.3625 18.5893 31.9109 18.2773 31.5952 17.8413C31.2906 17.4203 31.3853 16.8317 31.8063 16.5272C32.2273 16.2226 32.8159 16.3173 33.1205 16.7383C33.2139 16.8678 33.3627 16.9444 33.5184 16.9444H33.9694C34.2353 16.9444 34.4595 16.7202 34.4595 16.4543C34.4595 16.1883 34.2353 15.9641 33.9694 15.9641H33.6492C32.3419 15.9635 31.2775 14.8991 31.2775 13.5906ZM40.0699 15.0224C40.0699 14.5024 40.4915 14.0813 41.011 14.0813H43.0052C43.5253 14.0813 43.9463 14.503 43.9463 15.0224C43.9463 15.5419 43.5247 15.9635 43.0052 15.9635H41.011C40.4909 15.9635 40.0699 15.5419 40.0699 15.0224ZM26.6095 15.9635H24.6152C24.0952 15.9635 23.6742 15.5419 23.6742 15.0224C23.6742 14.503 24.0958 14.0813 24.6152 14.0813H26.6095C27.1296 14.0813 27.5506 14.503 27.5506 15.0224C27.5506 15.5419 27.1289 15.9635 26.6095 15.9635ZM26.7328 21.4917C20.1222 21.4917 14.7448 26.8697 14.7448 33.4797C14.7448 40.0903 20.1228 45.4677 26.7328 45.4677C33.3434 45.4677 38.7209 40.0897 38.7209 33.4797C38.7209 26.8697 33.3434 21.4917 26.7328 21.4917ZM26.7328 43.5862C21.1604 43.5862 16.6269 39.0527 16.6269 33.4803C16.6269 27.9079 21.1604 23.3744 26.7328 23.3744C32.3052 23.3744 36.8387 27.9079 36.8387 33.4803C36.8387 39.0527 32.3052 43.5862 26.7328 43.5862ZM36.5746 34.143C36.3959 33.6491 36.0353 33.2549 35.5594 33.0319C35.0836 32.8095 34.5498 32.7853 34.0566 32.964C34.0092 32.9808 33.9638 32.9964 33.9164 33.0132L32.2136 27.974C31.9907 27.3132 31.5248 26.7819 30.9026 26.4773C30.2804 26.1728 29.5754 26.131 28.9164 26.3609C27.6546 26.8 25.9587 26.8 24.6968 26.3609C24.0379 26.1317 23.3322 26.1728 22.71 26.478C22.0878 26.7825 21.6226 27.3138 21.3996 27.9746L19.6813 33.0605C19.5909 33.0288 19.5013 32.9976 19.4097 32.9646C18.9158 32.7853 18.3821 32.8095 17.9062 33.0319C17.4304 33.2542 17.0698 33.6491 16.891 34.143C16.7116 34.6369 16.7359 35.1707 16.9583 35.6465C17.1806 36.1223 17.5755 36.4829 18.0694 36.6617C18.9202 36.9694 19.7392 37.2322 20.5339 37.4545C20.5028 37.6059 20.4866 37.7591 20.4866 37.9136C20.4866 39.5011 22.0648 40.7449 24.0802 40.7449C25.1409 40.7449 26.0801 40.3999 26.7328 39.8418C27.3849 40.3999 28.3241 40.7449 29.3854 40.7449C31.4002 40.7449 32.9791 39.5011 32.9791 37.9136C32.9791 37.7591 32.9629 37.6053 32.9318 37.4545C33.7265 37.2328 34.5449 36.97 35.3962 36.6617C35.8901 36.4829 36.2844 36.1223 36.5074 35.6465C36.7297 35.1707 36.754 34.6363 36.5746 34.143ZM23.1834 28.5769C23.2444 28.3956 23.3708 28.2505 23.5384 28.1683C23.7059 28.0861 23.8984 28.0755 24.079 28.1384C25.7363 28.7151 27.8782 28.7151 29.5349 28.1384C29.7161 28.0755 29.908 28.0861 30.0755 28.1683C30.243 28.2505 30.3688 28.3956 30.4305 28.5769L32.1258 33.5943C30.1832 34.1555 28.435 34.422 26.7328 34.422C25.0705 34.422 23.3634 34.1679 21.475 33.6329L23.1834 28.5769ZM24.0809 38.8627C23.1012 38.8627 22.3693 38.362 22.3693 37.9136C22.3693 37.9092 22.37 37.9048 22.3706 37.9005C23.4767 38.1278 24.5442 38.2686 25.5962 38.3277C25.3153 38.6229 24.7572 38.8627 24.0809 38.8627ZM31.0969 37.9136C31.0969 38.3614 30.3651 38.8627 29.3854 38.8627C28.7084 38.8627 28.1504 38.6236 27.8701 38.3277C28.922 38.2692 29.9902 38.1278 31.0957 37.9005C31.0957 37.9048 31.0969 37.9092 31.0969 37.9136ZM34.8021 34.8487C34.7921 34.8698 34.7765 34.8842 34.7554 34.8916C31.7633 35.9741 29.2141 36.478 26.7328 36.478C24.2515 36.478 21.7023 35.9741 18.7109 34.8916C18.6891 34.8835 18.6735 34.8692 18.6636 34.848C18.6536 34.8269 18.653 34.8057 18.6605 34.7839C18.676 34.7403 18.7246 34.7179 18.7688 34.7334C21.7303 35.8047 24.2608 36.3036 26.7328 36.3036C29.2048 36.3036 31.7353 35.8047 34.6974 34.7334C34.7192 34.726 34.7404 34.7266 34.7616 34.7365C34.7828 34.7465 34.7971 34.7621 34.8052 34.7839C34.8127 34.8057 34.812 34.8275 34.8021 34.8487Z" fill="#0CB4C4"></path></svg>