<svg xmlns="http://www.w3.org/2000/svg" width="55" height="60" viewBox="0 0 55 60" fill="none"><path fill-rule="evenodd" clip-rule="evenodd" d="M42.263 2.32911H39.2256L38.576 4.3605C38.5108 4.56692 38.3452 4.73557 38.122 4.79599C37.7207 4.90675 37.3244 5.04267 36.9381 5.20378C36.5594 5.35985 36.1857 5.54613 35.8195 5.75506C35.6313 5.86078 35.3956 5.87589 35.1899 5.76764L33.3012 4.79097L31.1542 6.94577L32.1098 8.80852C32.2252 9.00738 32.2352 9.2591 32.1149 9.47562C31.9042 9.84313 31.7211 10.2182 31.5656 10.5983C31.41 10.9759 31.2771 11.3636 31.1693 11.7563C31.1191 11.9778 30.9586 12.1666 30.7278 12.2421L28.7037 12.8941V15.9425L30.7278 16.5944C30.9335 16.6624 31.1015 16.826 31.1617 17.05C31.2721 17.4528 31.4075 17.8505 31.5681 18.2382C31.7236 18.6183 31.9092 18.9934 32.1174 19.3609C32.2252 19.5497 32.2377 19.7863 32.1299 19.9928L31.1567 21.8882L33.3038 24.043L35.1598 23.084C35.358 22.9682 35.6088 22.9581 35.8245 23.0789C36.1807 23.2828 36.5444 23.4641 36.9131 23.6176C36.9231 23.6227 36.9356 23.6252 36.9457 23.6302C37.3269 23.7888 37.7107 23.9222 38.0995 24.0279C38.3202 24.0783 38.5083 24.2394 38.5835 24.471L39.2331 26.5024H42.2706L42.9202 24.471C42.9854 24.2646 43.1509 24.0959 43.3742 24.0355C43.7755 23.9247 44.1718 23.7888 44.5581 23.6277C44.9368 23.4716 45.3105 23.2853 45.6767 23.0764C45.8648 22.9707 46.1006 22.9556 46.3063 23.0638L48.1949 24.0405L50.342 21.8857L49.3864 20.023C49.271 19.8241 49.2609 19.5724 49.3813 19.3559C49.5845 18.9984 49.7651 18.6334 49.9181 18.2634C49.9231 18.2533 49.9256 18.2407 49.9306 18.2306C50.0886 17.848 50.2216 17.4629 50.3269 17.0727C50.3771 16.8512 50.5376 16.6624 50.7684 16.5869L52.7925 15.9349V12.8865L50.7684 12.2345C50.5627 12.1666 50.3947 12.003 50.3345 11.7789C50.2241 11.3762 50.0887 10.9784 49.9281 10.5907C49.7726 10.2106 49.587 9.83555 49.3788 9.46804C49.271 9.27925 49.2584 9.04262 49.3663 8.83621L50.3395 6.94073L48.1924 4.78593L46.3364 5.74501C46.1382 5.86081 45.8874 5.87087 45.6717 5.75005C45.3055 5.5386 44.9318 5.35484 44.553 5.19877C44.1768 5.0427 43.7905 4.90928 43.3967 4.80104C43.176 4.75069 42.9879 4.58959 42.9126 4.358L42.263 2.32661L42.263 2.32911ZM38.744 1H42.7446C43.0581 1 43.3215 1.219 43.3892 1.51352L44.0614 3.62044C44.4 3.72365 44.7311 3.84448 45.0522 3.97789C45.3833 4.11634 45.7018 4.26486 46.0078 4.42848L48.0144 3.39387C48.2752 3.25794 48.5862 3.31584 48.7844 3.5147L48.7869 3.51218L51.6161 6.35161C51.8368 6.57313 51.8694 6.91044 51.7139 7.16467L50.7031 9.13819C50.8661 9.4453 51.0141 9.76499 51.1521 10.0973C51.285 10.4195 51.4029 10.7517 51.5082 11.0916L53.6578 11.7838C53.9387 11.8745 54.1168 12.1337 54.1168 12.4132H54.1193V16.4282C54.1193 16.7428 53.9011 17.0072 53.6076 17.0751L51.5083 17.7498C51.4029 18.0921 51.285 18.4244 51.1521 18.7466C51.1471 18.7592 51.1421 18.7693 51.1371 18.7793C51.0041 19.099 50.8587 19.4061 50.7032 19.7032L51.734 21.717C51.8695 21.9788 51.8118 22.2909 51.6136 22.4898L51.6162 22.4923L48.7869 25.3317C48.5662 25.5532 48.2301 25.5859 47.9768 25.4299L46.0104 24.4154C45.7044 24.5791 45.3859 24.7276 45.0548 24.866C44.7337 24.9994 44.4027 25.1177 44.064 25.2235L43.3743 27.3808C43.284 27.6627 43.0256 27.8414 42.7472 27.8414V27.844H38.7466C38.4331 27.844 38.1698 27.625 38.102 27.3304L37.4298 25.2235C37.0887 25.1178 36.7576 24.9995 36.4366 24.8661C36.424 24.861 36.414 24.856 36.404 24.851C36.0854 24.7175 35.7794 24.5715 35.4835 24.4155L33.4769 25.4501C33.2161 25.586 32.905 25.5281 32.7069 25.3293V25.3318L29.8777 22.4923C29.657 22.2708 29.6244 21.9335 29.7799 21.6793L30.7907 19.7058C30.6276 19.3987 30.4797 19.079 30.3417 18.7467C30.2088 18.4245 30.0909 18.0922 29.9855 17.7523L27.836 17.0601C27.5551 16.9695 27.377 16.7102 27.377 16.4308H27.3745V12.4158C27.3745 12.1011 27.5927 11.8368 27.8862 11.7688L29.9855 11.0942C30.0883 10.7544 30.2087 10.4221 30.3417 10.1024C30.4796 9.7701 30.6276 9.45042 30.7906 9.14329L29.7597 7.12949C29.6243 6.86769 29.682 6.55556 29.8801 6.3567L29.8776 6.35419L32.7068 3.51476C32.9276 3.29324 33.2636 3.26052 33.517 3.41659L35.4834 4.43103C35.7894 4.2674 36.1079 4.11889 36.439 3.98044C36.7601 3.84703 37.0911 3.72872 37.4298 3.62299L38.1195 1.46568C38.2098 1.18374 38.4681 1.00502 38.7466 1.00502V1.0025L38.744 1ZM44.0513 11.0993C44.8966 11.9476 45.4208 13.1231 45.4208 14.417C45.4208 15.7134 44.8966 16.8864 44.0513 17.7347C43.2061 18.583 42.0348 19.1091 40.7456 19.1091C39.4539 19.1091 38.2851 18.583 37.4398 17.7347C36.5946 16.8864 36.0703 15.7109 36.0703 14.417C36.0703 13.1206 36.5946 11.9476 37.4398 11.0993C38.2851 10.251 39.4564 9.72488 40.7456 9.72488C42.0373 9.72488 43.2061 10.251 44.0513 11.0993ZM40.7456 8.39577C42.401 8.39577 43.9009 9.07041 44.9869 10.1604C46.073 11.2503 46.7452 12.7556 46.7452 14.4171C46.7452 16.0784 46.073 17.5838 44.9869 18.6738C43.9009 19.7637 42.401 20.4384 40.7456 20.4384C39.0901 20.4384 37.5903 19.7637 36.5042 18.6738C35.4182 17.5838 34.746 16.0785 34.746 14.4171C34.746 12.7557 35.4182 11.2503 36.5042 10.1604C37.5903 9.07041 39.0901 8.39577 40.7456 8.39577ZM7.23394 46.3306H19.0575V45.442C19.0575 44.9059 19.1654 44.4024 19.376 43.9393C19.5867 43.4786 19.8952 43.0658 20.3016 42.7134C21.4829 41.6863 22.441 40.4126 23.0982 38.9727C23.7278 37.5883 24.0789 36.0452 24.0789 34.4165C24.0789 31.3858 22.8549 28.642 20.8759 26.6584C18.897 24.6723 16.163 23.4439 13.1457 23.4439C10.1259 23.4439 7.39195 24.6722 5.41552 26.6584C3.43658 28.6445 2.21255 31.3883 2.21255 34.4165C2.21255 36.0452 2.56369 37.5883 3.19322 38.9727C3.85034 40.4151 4.80848 41.6888 5.98987 42.7134C6.3962 43.0658 6.70472 43.4786 6.91539 43.9393C7.12607 44.4024 7.23393 44.9084 7.23393 45.442L7.23394 46.3306ZM7.76567 51.559C7.15618 51.5615 6.76991 51.8812 6.60688 52.294C6.53916 52.4627 6.50404 52.6514 6.50404 52.8453C6.50404 53.0391 6.53916 53.2279 6.60688 53.3966C6.77242 53.8094 7.15868 54.1316 7.77068 54.1316H18.5207C19.1326 54.1316 19.5189 53.8094 19.6845 53.3966C19.7522 53.2279 19.7873 53.0391 19.7873 52.8453C19.7873 52.6514 19.7522 52.4627 19.6845 52.294C19.5189 51.8837 19.1352 51.5615 18.5257 51.559H7.76567ZM18.5182 50.2299H18.5207H18.5257H19.2556C19.6068 50.2299 19.9278 50.0839 20.1585 49.8523C20.3918 49.6182 20.5348 49.2985 20.5348 48.9461C20.5348 48.5937 20.3893 48.2715 20.1585 48.0399C19.998 47.8788 19.7948 47.7605 19.5716 47.7026C19.5641 47.7001 19.5566 47.7001 19.549 47.6976C19.4537 47.6749 19.3559 47.6623 19.2556 47.6623H7.03842C6.93809 47.6623 6.83776 47.6749 6.74245 47.6976C6.73492 47.7001 6.7274 47.7026 6.72238 47.7026C6.49665 47.7605 6.29599 47.8788 6.13547 48.0399C5.90221 48.274 5.75924 48.5937 5.75924 48.9461C5.75924 49.2985 5.90471 49.6207 6.13547 49.8523C6.36873 50.0864 6.68727 50.2299 7.03838 50.2299H7.77076H7.77327H18.5182ZM9.56418 55.4582V55.4708C9.56418 56.0271 9.92536 56.5507 10.5123 56.9459C11.1744 57.394 12.105 57.6709 13.1434 57.6709C14.1818 57.6709 15.1123 57.394 15.7745 56.9459C16.3589 56.5507 16.7227 56.0271 16.7227 55.4708V55.4582H9.562H9.56418ZM18.0469 55.4582V55.4708C18.0469 56.4953 17.46 57.404 16.5094 58.0459C15.6366 58.635 14.4452 59 13.1434 59C11.8392 59 10.6478 58.635 9.77742 58.0459C8.8268 57.404 8.23992 56.4953 8.23992 55.4708V55.4582H7.76838C6.52933 55.4582 5.73172 54.771 5.37805 53.8874C5.24512 53.5552 5.17739 53.1977 5.17739 52.8428C5.17739 52.4904 5.24512 52.1329 5.37805 51.7981C5.46333 51.5842 5.57619 51.3802 5.71415 51.1965C5.52353 51.0832 5.34795 50.9473 5.19245 50.7912C4.72091 50.318 4.42745 49.6635 4.42745 48.9461C4.42745 48.2261 4.72091 47.5716 5.19245 47.1009C5.39812 46.8945 5.6389 46.7208 5.90479 46.5924V45.4471C5.90479 45.0972 5.83958 44.7775 5.70915 44.493C5.57872 44.2061 5.38057 43.9468 5.11972 43.7203C3.7979 42.5724 2.72438 41.1451 1.987 39.5265C1.27716 37.9683 0.880859 36.239 0.880859 34.419C0.880859 31.0233 2.25283 27.9471 4.47005 25.722C6.68727 23.4967 9.75232 22.1198 13.1358 22.1198C16.5193 22.1198 19.5844 23.4967 21.8015 25.722C24.0187 27.9472 25.3907 31.0233 25.3907 34.419C25.3907 36.2365 24.9944 37.9658 24.2846 39.5265C23.5472 41.1426 22.4737 42.5699 21.1518 43.7203C20.891 43.9468 20.6928 44.2086 20.5624 44.493C20.4345 44.7775 20.3668 45.0972 20.3668 45.4471V46.5924C20.6326 46.7208 20.8734 46.8945 21.0791 47.1009C21.5507 47.5741 21.8441 48.2286 21.8441 48.9461C21.8441 49.666 21.5506 50.3205 21.0791 50.7912C20.9236 50.9473 20.748 51.0832 20.5574 51.1965C20.6954 51.3803 20.8082 51.5842 20.8935 51.7981C21.0264 52.1304 21.0942 52.4878 21.0942 52.8428C21.0942 53.1952 21.0264 53.5527 20.8935 53.8874C20.5399 54.7685 19.7422 55.4582 18.5057 55.4582H18.0341H18.0469ZM10.946 17.1812C11.2796 17.0352 11.6683 17.1887 11.8138 17.5235C11.9593 17.8583 11.8063 18.2485 11.4727 18.3945L7.58752 20.0911C7.25393 20.2371 6.86516 20.0836 6.71966 19.7488L6.71716 19.7437L5.04668 15.7942C4.90371 15.4569 5.05922 15.0692 5.39532 14.9257C5.73142 14.7822 6.11768 14.9383 6.26067 15.2756L7.19871 17.4958C8.63591 14.0094 11.0087 11.0117 14.0011 8.81616C17.3596 6.3543 21.4982 4.89934 25.973 4.89934C26.3392 4.89934 26.6351 5.19637 26.6351 5.56386C26.6351 5.93138 26.3391 6.22838 25.973 6.22838C21.7868 6.22838 17.9191 7.5852 14.7812 9.88596C11.8818 12.013 9.60683 14.9406 8.27743 18.3439L10.9411 17.1809L10.946 17.1812ZM46.9059 35.036L45.2932 31.1242C45.2882 31.1141 45.2857 31.1066 45.2806 31.0965C45.1377 30.7668 44.7589 30.6107 44.4254 30.7491L44.4178 30.7517L40.4825 32.4282C40.1464 32.5717 39.9909 32.9593 40.1339 33.2967C40.2768 33.634 40.6631 33.79 40.9992 33.6465L43.535 32.5666C42.1855 35.8441 39.9533 38.6609 37.1315 40.7172C33.9988 43.0029 30.1436 44.3521 25.9726 44.3521C25.6064 44.3521 25.3104 44.6491 25.3104 45.0166C25.3104 45.3841 25.6064 45.6812 25.9726 45.6812C30.4321 45.6812 34.5555 44.2388 37.9066 41.792C40.8913 39.6146 43.2615 36.6392 44.7089 33.1781L45.6821 35.5418C45.82 35.8791 46.2063 36.0402 46.5424 35.9017C46.8784 35.7633 47.039 35.3756 46.901 35.0384L46.9059 35.036Z" fill="#0CB4C4" stroke="#0CB4C4" stroke-width="0.5"></path></svg>