<svg width="66" height="60" viewBox="0 0 66 60" fill="none" xmlns="http://www.w3.org/2000/svg"><path d="M47.9319 37.1713C47.4126 30.138 41.523 24.5771 34.3583 24.5771H27.5747V18.9571C28.9222 18.5232 29.9082 17.2546 29.9082 15.7625C29.9082 13.9154 28.403 12.4167 26.5625 12.4167C24.7154 12.4167 23.2167 13.922 23.2167 15.7625C23.2167 17.2546 24.1961 18.5232 25.5502 18.9571V24.5706H18.7601C11.5953 24.5706 5.71234 30.1315 5.18648 37.1648C2.40603 37.2108 0.151428 39.4851 0.151428 42.2853C0.151428 45.0789 2.39946 47.3598 5.18648 47.4058C5.70577 54.4391 11.5953 60 18.7601 60H34.3583C41.523 60 47.406 54.4391 47.9319 47.4058C50.7123 47.3598 52.9669 45.0855 52.9669 42.2853C52.9604 39.4917 50.7123 37.2108 47.9319 37.1713ZM26.5559 14.4544C27.2789 14.4544 27.8705 15.046 27.8705 15.7691C27.8705 16.4921 27.2789 17.0837 26.5559 17.0837C25.8328 17.0837 25.2413 16.4921 25.2413 15.7691C25.2478 15.0394 25.8328 14.4544 26.5559 14.4544ZM2.18911 42.2853C2.18911 40.6223 3.50375 39.2682 5.15362 39.2025V45.3681C3.51032 45.3089 2.18911 43.9483 2.18911 42.2853ZM34.3583 57.9623H18.7601C12.3775 57.9623 7.18473 52.7695 7.18473 46.3869V38.1836C7.18473 31.8011 12.3775 26.6082 18.7601 26.6082H34.3583C40.7408 26.6082 45.9336 31.8011 45.9336 38.1836V46.3869C45.9336 52.7695 40.7408 57.9623 34.3583 57.9623ZM47.9647 45.3681V39.2025C49.608 39.2682 50.9293 40.6223 50.9293 42.2853C50.9293 43.9483 49.608 45.3089 47.9647 45.3681ZM35.3442 32.5372H17.7741C14.0931 32.5372 11.1023 35.528 11.1023 39.209V45.3681C11.1023 49.0491 14.0931 52.0399 17.7741 52.0399H35.3442C39.0252 52.0399 42.016 49.0491 42.016 45.3681V39.209C42.016 35.528 39.0252 32.5372 35.3442 32.5372ZM39.9783 45.3681C39.9783 47.9251 37.9012 50.0022 35.3442 50.0022H17.7741C15.2172 50.0022 13.14 47.9251 13.14 45.3681V39.209C13.14 36.6521 15.2172 34.5749 17.7741 34.5749H35.3442C37.9012 34.5749 39.9783 36.6521 39.9783 39.209V45.3681ZM20.0287 38.0193C17.6755 38.0193 15.7627 39.9321 15.7627 42.2853C15.7627 44.6385 17.6755 46.5513 20.0287 46.5513C22.3819 46.5513 24.2947 44.6385 24.2947 42.2853C24.3013 39.9321 22.3819 38.0193 20.0287 38.0193ZM20.0287 44.5202C18.7995 44.5202 17.7938 43.521 17.7938 42.2853C17.7938 41.0561 18.793 40.0504 20.0287 40.0504C21.2579 40.0504 22.2636 41.0495 22.2636 42.2853C22.2636 43.521 21.2645 44.5202 20.0287 44.5202ZM33.0896 38.0193C30.7364 38.0193 28.8236 39.9321 28.8236 42.2853C28.8236 44.6385 30.7364 46.5513 33.0896 46.5513C35.4428 46.5513 37.3556 44.6385 37.3556 42.2853C37.3556 39.9321 35.4428 38.0193 33.0896 38.0193ZM33.0896 44.5202C31.8605 44.5202 30.8548 43.521 30.8548 42.2853C30.8548 41.0561 31.8539 40.0504 33.0896 40.0504C34.3188 40.0504 35.3245 41.0495 35.3245 42.2853C35.3179 43.521 34.3188 44.5202 33.0896 44.5202ZM60.7496 0H40.6094C38.1444 0 36.133 2.00482 36.133 4.46976V16.3212C36.133 18.7862 38.1378 20.791 40.6094 20.791H42.2855C42.5945 20.791 42.8442 21.0408 42.8442 21.3563V24.4062C42.8442 25.1819 43.3109 25.8458 44.034 26.1087C44.2378 26.181 44.4481 26.2204 44.6584 26.2204C45.1843 26.2204 45.6839 25.9904 46.0388 25.5697L49.4306 21.4943C49.8184 21.0276 50.3179 20.7975 50.9227 20.7975H60.743C63.208 20.7975 65.2128 18.7927 65.2128 16.3278V4.46976C65.2259 2.00482 63.2145 0 60.7496 0ZM63.1882 16.3212C63.1882 17.6621 62.0971 18.7599 60.7496 18.7599H50.9293C49.7264 18.7599 48.6418 19.266 47.8727 20.1928L44.8819 23.7818V21.3563C44.8819 19.9233 43.7185 18.7599 42.2855 18.7599H40.6094C39.2619 18.7599 38.1707 17.6687 38.1707 16.3212V4.46976C38.1707 3.12883 39.2684 2.03111 40.6094 2.03111H60.7496C62.0905 2.03111 63.1882 3.12226 63.1882 4.46976V16.3212ZM45.4538 10.3988C45.4538 10.9641 45.0002 11.4176 44.435 11.4176H44.126C43.5607 11.4176 43.1072 10.9641 43.1072 10.3988C43.1072 9.83348 43.5607 9.37993 44.126 9.37993H44.435C45.0002 9.37993 45.4538 9.83348 45.4538 10.3988ZM51.8495 10.3988C51.8495 10.9641 51.3959 11.4176 50.8307 11.4176H50.5217C49.9564 11.4176 49.5029 10.9641 49.5029 10.3988C49.5029 9.83348 49.9564 9.37993 50.5217 9.37993H50.8307C51.3959 9.37993 51.8495 9.83348 51.8495 10.3988ZM58.2452 10.3988C58.2452 10.9641 57.7917 11.4176 57.2264 11.4176H56.9174C56.3521 11.4176 55.8986 10.9641 55.8986 10.3988C55.8986 9.83348 56.3521 9.37993 56.9174 9.37993H57.2264C57.7917 9.37993 58.2452 9.83348 58.2452 10.3988Z" fill="#0CB4C4"></path></svg>