<svg xmlns="http://www.w3.org/2000/svg" id="Layer_1" data-name="Layer 1" width="60" height="60" viewBox="0 0 60 60"><defs><style> .cls-1 { fill: #0cb4c4; } </style></defs><path class="cls-1" d="M57,9H44v2H57a1,1,0,0,1,1,1v3H43v2H58V44a1,1,0,0,1-1,1H3a1,1,0,0,1-1-1V17H17V15H2V12a1,1,0,0,1,1-1H16V9H3a3,3,0,0,0-3,3V44a3,3,0,0,0,3,3H23v6H20a1,1,0,0,0-1,1v4a1,1,0,0,0,1,1h1.59l.7.71A1,1,0,0,0,23,60h2a1,1,0,0,0,.71-.29l.7-.71h7.18l.7.71A1,1,0,0,0,35,60h2a1,1,0,0,0,.71-.29l.7-.71H40a1,1,0,0,0,1-1V54a1,1,0,0,0-1-1H37V47H57a3,3,0,0,0,3-3V12a3,3,0,0,0-3-3ZM25,47h4v3a1,1,0,0,0,2,0V47h4v6H25Zm14,8v2H21V55Z"></path><path class="cls-1" d="M6,13a1,1,0,1,1-1-1,1,1,0,0,1,1,1"></path><path class="cls-1" d="M9,13a1,1,0,1,1-1-1,1,1,0,0,1,1,1"></path><path class="cls-1" d="M12,13a1,1,0,1,1-1-1,1,1,0,0,1,1,1"></path><path class="cls-1" d="M48,30a3,3,0,0,0-3-3H15a3,3,0,1,0,0,6H45a3,3,0,0,0,3-3ZM19,31H15a1,1,0,0,1,0-2h4Zm2-2H45a1,1,0,0,1,0,2H21Z"></path><path class="cls-1" d="M17,36h5v2H17Z"></path><path class="cls-1" d="M24,36h5v2H24Z"></path><path class="cls-1" d="M31,36h5v2H31Z"></path><path class="cls-1" d="M38,36h5v2H38Z"></path><path class="cls-1" d="M30,0a12,12,0,1,0,8.48,3.52A12,12,0,0,0,30,0Zm0,22a10,10,0,1,1,7.07-2.93A10,10,0,0,1,30,22Z"></path><path class="cls-1" d="M30,8a4,4,0,1,0,2.83,1.17A4,4,0,0,0,30,8Zm0,6a2,2,0,1,1,1.41-.59A2,2,0,0,1,30,14Z"></path></svg>