<svg xmlns="http://www.w3.org/2000/svg" id="Layer_1" data-name="Layer 1" width="60" height="60" viewBox="0 0 60 60"><defs><style> .cls-1 { fill: #0cb4c4; } </style></defs><path class="cls-1" d="M24.94,20.81a1,1,0,0,0-1-.08.94.94,0,0,0-.51.83v2.81H19.69a.94.94,0,1,0,0,1.88h4.68a.92.92,0,0,0,.94-.94V23.44l5,3.75-5,3.75V29.06A1,1,0,0,0,25,28.4a1,1,0,0,0-.67-.28H19.69a.94.94,0,1,0,0,1.88h3.75v2.81a.94.94,0,0,0,.51.84.9.9,0,0,0,.42.1,1,1,0,0,0,.57-.19l7.5-5.62a1,1,0,0,0,.37-.75.93.93,0,0,0-.37-.75Z"></path><path class="cls-1" d="M15.94,24.37H15a.94.94,0,1,0,0,1.88h.94a.94.94,0,0,0,0-1.88Z"></path><path class="cls-1" d="M11.25,24.37h-.94a.94.94,0,0,0,0,1.88h.94a.94.94,0,1,0,0-1.88Z"></path><path class="cls-1" d="M15.94,28.12H15A.94.94,0,1,0,15,30h.94a.94.94,0,0,0,0-1.88Z"></path><path class="cls-1" d="M11.25,28.12h-.94a.94.94,0,0,0,0,1.88h.94a.94.94,0,1,0,0-1.88Z"></path><path class="cls-1" d="M24.94,35.81a1,1,0,0,0-1-.08.94.94,0,0,0-.51.83v2.81H19.69a.94.94,0,1,0,0,1.88h4.68a.92.92,0,0,0,.94-.94V38.44l5,3.75-5,3.75V44.06A1,1,0,0,0,25,43.4a.94.94,0,0,0-.67-.27H19.69a.94.94,0,1,0,0,1.87h3.75v2.81a.94.94,0,0,0,.51.84.9.9,0,0,0,.42.1,1,1,0,0,0,.57-.19l7.5-5.62a1,1,0,0,0,.37-.75.93.93,0,0,0-.37-.75Z"></path><path class="cls-1" d="M15.94,39.37H15a.94.94,0,0,0,0,1.88h.94a.94.94,0,0,0,0-1.88Z"></path><path class="cls-1" d="M11.25,39.37h-.94a.94.94,0,1,0,0,1.88h.94a.94.94,0,0,0,0-1.88Z"></path><path class="cls-1" d="M15.94,43.12H15A.94.94,0,0,0,15,45h.94a.94.94,0,0,0,0-1.88Z"></path><path class="cls-1" d="M11.25,43.12h-.94a.94.94,0,1,0,0,1.88h.94a.94.94,0,1,0,0-1.88Z"></path><path class="cls-1" d="M27.19,56.25h5.62a.94.94,0,1,0,0-1.88H27.19a.94.94,0,0,0,0,1.88Z"></path><path class="cls-1" d="M49.69,5.62A4.69,4.69,0,1,0,53,7,4.69,4.69,0,0,0,49.69,5.62Zm0,7.5a2.82,2.82,0,0,1-2.82-2.81,2.82,2.82,0,1,1,4.8,2A2.78,2.78,0,0,1,49.69,13.12Z"></path><path class="cls-1" d="M59.48,12.32a.93.93,0,0,0,.52-.84V9.14a.93.93,0,0,0-.52-.83l-1.87-.94a4.38,4.38,0,0,0-.23-.54l.67-2a.94.94,0,0,0-.23-.94L56.15,2.19A1,1,0,0,0,55.21,2l-2,.66-.53-.22L51.72.53h0A.93.93,0,0,0,50.86,0H48.51a.93.93,0,0,0-.83.52l-.94,1.87c-.18.08-.36.14-.53.23l-2-.65a.93.93,0,0,0-.93.22L41.57,3.85a1,1,0,0,0-.23.94l.67,2a5.15,5.15,0,0,0-.23.54l-1.87.94h0a.93.93,0,0,0-.52.83v2.14H5.63a2.82,2.82,0,0,0-2.82,2.81V50.63H.94a.93.93,0,0,0-.94.93v3.75A4.68,4.68,0,0,0,4.69,60H55.31A4.68,4.68,0,0,0,60,55.31V51.56a1,1,0,0,0-.27-.66.94.94,0,0,0-.67-.27H57.19V17.4l.62-.63h0a1,1,0,0,0,.22-.94l-.66-2c.08-.18.15-.36.22-.55Zm-53.86.81H41.49l.29.14h0c.07.18.14.36.23.54l-.67,2h0a.94.94,0,0,0,.23.93l.09.11h-37v-2.8a.93.93,0,0,1,.94-.93Zm52.5,42.18a2.82,2.82,0,0,1-2.81,2.82H4.69a2.83,2.83,0,0,1-2.82-2.82V52.5H58.12ZM4.69,50.63V18.75H43.83a.91.91,0,0,0,.42-.11l2-.65c.17.09.35.15.53.23l.94,1.87h0a.93.93,0,0,0,.84.52h2.34a.93.93,0,0,0,.83-.52l.94-1.87c.18-.08.37-.14.53-.23l2,.67h.12v32ZM56.41,11.77a.92.92,0,0,0-.47.55,8.65,8.65,0,0,1-.42,1,.91.91,0,0,0-.06.72l.61,1.88-.83.83-1.88-.61h0a1,1,0,0,0-.72.06,8.65,8.65,0,0,1-1,.42,1,1,0,0,0-.56.47l-.81,1.67H49.1L48.23,17a.9.9,0,0,0-.55-.46,7.22,7.22,0,0,1-1-.43,1,1,0,0,0-.73-.05l-1.87.61-.83-.84.6-1.87h0a1,1,0,0,0,0-.72,7.86,7.86,0,0,1-.42-1,1,1,0,0,0-.47-.55l-1.67-.82V9.72L43,8.86a.89.89,0,0,0,.47-.55,7.35,7.35,0,0,1,.43-1,.93.93,0,0,0,0-.75L43.3,4.73l.84-.83L46,4.51h0a.9.9,0,0,0,.72-.06,8.8,8.8,0,0,1,1-.42.89.89,0,0,0,.55-.47l.82-1.68h1.18l.86,1.71a.92.92,0,0,0,.55.47,9.63,9.63,0,0,1,1,.42.9.9,0,0,0,.72.06l1.87-.61.84.83-.66,1.8a.93.93,0,0,0,.06.73,8.65,8.65,0,0,1,.42,1,.92.92,0,0,0,.47.55l1.71.86v1.19Z"></path></svg>