<svg xmlns="http://www.w3.org/2000/svg" width="81" height="60" viewBox="0 0 81 60" fill="none"><path d="M80.8701 15.6527V0H41.739V6.52185H36.5216V28.6957H31.826C31.9566 22.4346 25.5649 20.2175 22.5654 21.2607C20.9999 20.0868 19.0436 19.5651 16.9565 19.5651C13.304 19.5651 10.0438 21.5214 8.34759 24.6523C4.95658 24.783 2.08649 27.2609 1.56483 30.5219C0.652287 31.6958 0 33.1305 0 34.5653C0 37.8263 2.73934 40.4349 6.00034 40.4349H27.913C31.174 40.4349 33.9133 37.8263 33.9133 34.5653C33.9133 33.3914 33.5218 32.2175 32.8701 31.3043H36.5226V53.4781H41.7399V60H80.871V44.3473H41.7399V50.8691H39.1313V31.3043H41.7399V37.8261H80.871V22.1734H41.7399V28.6953H39.1313V9.13044H41.7399V15.6523L80.8701 15.6527ZM27.9131 37.8266H5.99902C4.17284 37.8266 2.60801 36.3919 2.60801 34.5656C2.60801 32.7393 4.17343 31.6961 4.17343 31.6961C4.17343 28.4351 6.78202 26.6089 10.043 27.2612C10.043 27.2612 11.4777 22.0438 16.9558 22.0438C19.9559 22.0438 22.043 24.0002 22.043 24.0002C22.043 24.0002 23.2169 23.6087 24.26 23.4786C26.8686 23.3479 30.7819 26.2179 28.5642 31.0437C28.5642 31.0437 31.3036 31.9568 31.3036 34.4347C31.3036 36.3917 29.7381 37.8263 27.9126 37.8263L27.9131 37.8266ZM44.348 46.9572H78.261V57.3917H44.348V46.9572ZM44.348 24.7833H78.261V35.2178H44.348V24.7833ZM44.348 2.60947H78.261V13.044H44.348V2.60947Z" fill="#0CB4C4"></path><path d="M46.9585 28.6964H49.5671V31.305H46.9585V28.6964Z" fill="#0CB4C4"></path><path d="M52.175 28.6964H54.7836V31.305H52.175V28.6964Z" fill="#0CB4C4"></path><path d="M57.3917 28.6964H60.0003V31.305H57.3917V28.6964Z" fill="#0CB4C4"></path><path d="M63.9143 28.6964H75.6535V31.305H63.9143V28.6964Z" fill="#0CB4C4"></path><path d="M46.9585 6.52258H49.5671V9.13118H46.9585V6.52258Z" fill="#0CB4C4"></path><path d="M52.175 6.52258H54.7836V9.13118H52.175V6.52258Z" fill="#0CB4C4"></path><path d="M57.3917 6.52258H60.0003V9.13118H57.3917V6.52258Z" fill="#0CB4C4"></path><path d="M63.9143 6.52258H75.6535V9.13118H63.9143V6.52258Z" fill="#0CB4C4"></path><path d="M46.9585 50.8703H49.5671V53.4789H46.9585V50.8703Z" fill="#0CB4C4"></path><path d="M52.175 50.8703H54.7836V53.4789H52.175V50.8703Z" fill="#0CB4C4"></path><path d="M57.3917 50.8703H60.0003V53.4789H57.3917V50.8703Z" fill="#0CB4C4"></path><path d="M63.9143 50.8703H75.6535V53.4789H63.9143V50.8703Z" fill="#0CB4C4"></path></svg>