<svg xmlns="http://www.w3.org/2000/svg" id="Layer_1" data-name="Layer 1" width="60" height="60" viewBox="0 0 60 60"><defs><style> .cls-1 { fill: #0cb4c4; } </style></defs><path class="cls-1" d="M4,0A4,4,0,0,0,0,4V14a4,4,0,0,0,1.39,3A4,4,0,0,0,0,20V30a4,4,0,0,0,1.39,3A4,4,0,0,0,0,36V46a4,4,0,0,0,4,4H28.67l-1.24,1.68a1,1,0,0,0,.1,1.3L31,56.47a1,1,0,0,0,1.3.11l2.52-1.87a13.82,13.82,0,0,0,3.24,1.34l.46,3.1a1,1,0,0,0,1,.85h4.94a1,1,0,0,0,1-.85L45.92,56a14.06,14.06,0,0,0,3.26-1.33l2.5,1.87a1,1,0,0,0,1.3-.11L56.47,53a1,1,0,0,0,.1-1.3l-1.86-2.51a15.26,15.26,0,0,0,1.35-3.25l3.09-.46a1,1,0,0,0,.85-1V39.53a1,1,0,0,0-.85-1l-3.09-.46a15.43,15.43,0,0,0-1.34-3.26l1.85-2.51a1,1,0,0,0-.1-1.3L53,27.52a1,1,0,0,0-1.3-.1l-.68.51V20a4,4,0,0,0-1.38-3A4,4,0,0,0,51,14V4a4,4,0,0,0-4-4ZM4,2H14V16H4a2,2,0,0,1-2-2V4A2,2,0,0,1,4,2ZM16,2H47a2,2,0,0,1,2,2V14a2,2,0,0,1-2,2H16ZM9,6a3,3,0,1,0,3,3A3,3,0,0,0,9,6ZM9,8A1,1,0,1,1,8,9,1,1,0,0,1,9,8ZM21,8a1,1,0,0,0,0,2H44a1,1,0,0,0,0-2ZM4,18H14V32H4a2,2,0,0,1-2-2V20a2,2,0,0,1,2-2Zm12,0H47a2,2,0,0,1,2,2v9.21a15.18,15.18,0,0,0-3.07-1.27l-.47-3.09a1,1,0,0,0-1-.86H21a1,1,0,1,0,0,2H38.37L38.08,28a13.8,13.8,0,0,0-3.25,1.33l-2.51-1.85a1,1,0,0,0-1.3.09L27.53,31a1,1,0,0,0-.25,1H16ZM9,22a3,3,0,1,0,3,3,3,3,0,0,0-3-3Zm0,2a1,1,0,0,1,0,2,1,1,0,0,1,0-2Zm34.61,2,.43,2.9a1,1,0,0,0,.76.83,12.44,12.44,0,0,1,3.89,1.62,1,1,0,0,0,1.13-.05l2.36-1.75,2.27,2.28-1.73,2.34a1,1,0,0,0,0,1.13,12.55,12.55,0,0,1,1.6,3.9,1,1,0,0,0,.83.77l2.9.43v3.22L55.11,44a1,1,0,0,0-.83.77,12.54,12.54,0,0,1-1.62,3.89,1,1,0,0,0,.05,1.13l1.74,2.36-2.27,2.27-2.35-1.74a1,1,0,0,0-1.12-.05,12.57,12.57,0,0,1-3.9,1.61,1,1,0,0,0-.77.83L43.61,58H40.4L40,55.1a1,1,0,0,0-.76-.83,12.76,12.76,0,0,1-3.89-1.61,1,1,0,0,0-1.13.05l-2.35,1.74-2.28-2.27,1.74-2.35a1,1,0,0,0,0-1.12,12.6,12.6,0,0,1-1.6-3.91A1,1,0,0,0,28.9,44L26,43.61V40.39L28.89,40a1,1,0,0,0,.83-.77,12.54,12.54,0,0,1,1.62-3.89,1,1,0,0,0,0-1.13l-1.75-2.35,2.27-2.28,2.35,1.75a1,1,0,0,0,1.12,0,12.57,12.57,0,0,1,3.9-1.61,1,1,0,0,0,.77-.83L40.39,26ZM4,34H14V48H4a2,2,0,0,1-2-2V36a2,2,0,0,1,2-2Zm12,0H28.68l.61.83A15.35,15.35,0,0,0,28,38.08l-3.09.46a1,1,0,0,0-.86,1V40H21a1,1,0,0,0-1,1,1,1,0,0,0,1,1h3v2.47a1,1,0,0,0,.86,1l3.08.46A16.81,16.81,0,0,0,28.7,48H16Zm26,.92A7.08,7.08,0,1,0,49.08,42,7.08,7.08,0,0,0,42,34.92Zm0,2A5.08,5.08,0,1,1,36.93,42,5.07,5.07,0,0,1,42,36.92ZM9,38a3,3,0,1,0,3,3A3,3,0,0,0,9,38Zm0,2a1,1,0,1,1-1,1A1,1,0,0,1,9,40Z"></path></svg>