<svg xmlns="http://www.w3.org/2000/svg" id="Layer_1" data-name="Layer 1" width="60" height="60" viewBox="0 0 60 60"><defs><style> .cls-1 { fill: #0cb4c4; } </style></defs><path class="cls-1" d="M4.29,60H36.43a4.29,4.29,0,0,0,4.28-4.29V47.14h8.58a4.3,4.3,0,0,0,4.28-4.28V33.21h5.36A1,1,0,0,0,60,32.14v-15a4.3,4.3,0,0,0-4.29-4.28H47.14V4.29A4.3,4.3,0,0,0,42.86,0H8.57A4.29,4.29,0,0,0,4.29,4.29V31.82l-3,3a1,1,0,0,0,0,1.5l3,3V52.5H1.07A1,1,0,0,0,0,53.57v2.14A4.3,4.3,0,0,0,4.29,60ZM57.86,17.14V31.07H53.57V17.14a2.15,2.15,0,0,1,4.29,0ZM52.07,15a3.83,3.83,0,0,0-.64,2.14V42.86a2.15,2.15,0,0,1-4.29,0V15ZM45,4.29V42.86A3.83,3.83,0,0,0,45.64,45H40.71V4.29a2.15,2.15,0,1,1,4.29,0ZM9.64,29.46l1.5,1.5L5,37.07l-1.5-1.5Zm12.86-.53A10.72,10.72,0,1,1,33.21,18.21,10.74,10.74,0,0,1,22.5,28.93Zm-9.11-1.72.75.75-1.5,1.5L11.14,28l1.5-1.5Zm-7,11.47L16,29.14a12.83,12.83,0,1,0-4.5-17.57,13,13,0,0,0,0,13.07l-5,5V4.28A2.15,2.15,0,0,1,8.57,2.14H39.21a3.91,3.91,0,0,0-.64,2.14V55.71a2.14,2.14,0,1,1-4.28,0V53.57a1,1,0,0,0-1.08-1.07H6.43Zm-4.29,16h30v1.07a5,5,0,0,0,.54,2.15H4.29a2.16,2.16,0,0,1-2.15-2.15Z"></path><path class="cls-1" d="M9.64,42.86H35.36V45H9.64Z"></path><path class="cls-1" d="M9.64,47.14H31.07v2.15H9.64Z"></path><path class="cls-1" d="M9.64,38.57H35.36v2.14H9.64Z"></path><path class="cls-1" d="M18.21,34.29H35.36v2.14H18.21Z"></path><path class="cls-1" d="M13.93,34.29h2.14v2.14H13.93Z"></path><path class="cls-1" d="M31.07,18.21a8.57,8.57,0,1,0-8.57,8.58A8.6,8.6,0,0,0,31.07,18.21Zm-15,0a6.43,6.43,0,1,1,6.43,6.43A6.44,6.44,0,0,1,16.07,18.21Z"></path></svg>