<svg width="56" height="60" viewBox="0 0 56 60" fill="none" xmlns="http://www.w3.org/2000/svg"><path fill-rule="evenodd" clip-rule="evenodd" d="M25.3113 13.5224H30.2513C30.4809 13.5224 30.7019 13.6103 30.8694 13.7681C31.0369 13.926 31.1383 14.142 31.1532 14.3724L31.5835 18.0771C32.2367 18.2864 32.8713 18.5505 33.4806 18.8665L36.4261 16.5237C36.5992 16.3867 36.8163 16.3182 37.0362 16.3312C37.2562 16.3442 37.4638 16.4379 37.6197 16.5944L41.1122 20.1058C41.2792 20.2736 41.3743 20.5004 41.3771 20.7377C41.38 20.975 41.2904 21.2041 41.1274 21.3758L38.8563 24.2699C39.1712 24.8824 39.4343 25.5204 39.6428 26.1773L43.3707 26.6146C43.591 26.64 43.7944 26.7459 43.9421 26.9122C44.0898 27.0785 44.1715 27.2936 44.1717 27.5166V32.4834C44.1717 32.7142 44.0843 32.9364 43.9273 33.1048C43.7702 33.2732 43.5554 33.3752 43.3263 33.3901L39.6414 33.8227C39.4336 34.4807 39.1709 35.1198 38.8563 35.7334L41.1858 38.6948C41.3222 38.8688 41.3905 39.087 41.3776 39.3081C41.3648 39.5293 41.2718 39.738 41.1162 39.8949L37.6236 43.4069C37.4569 43.5738 37.2321 43.6688 36.9968 43.6717C36.7615 43.6746 36.5344 43.5851 36.3638 43.4223L33.4806 41.1335C32.8711 41.4494 32.2366 41.7139 31.5835 41.9242L31.1485 45.6723C31.1231 45.8937 31.0177 46.098 30.8523 46.2464C30.6869 46.3947 30.473 46.4768 30.2513 46.477H25.3113C25.0816 46.477 24.8606 46.3891 24.693 46.2313C24.5254 46.0734 24.4238 45.8574 24.4088 45.627L23.9791 41.9229C23.3254 41.7132 22.6902 41.4492 22.08 41.1335L19.1346 43.4756C18.9615 43.6127 18.7444 43.6812 18.5244 43.6682C18.3045 43.6551 18.0969 43.5615 17.941 43.4049L14.4478 39.8935C14.281 39.7256 14.1862 39.4988 14.1834 39.2615C14.1807 39.0242 14.2703 38.7952 14.4332 38.6235L16.709 35.7334C16.3945 35.1208 16.1314 34.4828 15.9225 33.8261L12.1946 33.3887C11.9744 33.3632 11.7712 33.2572 11.6236 33.0909C11.476 32.9246 11.3944 32.7096 11.3942 32.4867V27.52C11.3943 27.2891 11.4817 27.067 11.6387 26.8986C11.7957 26.7302 12.0106 26.6282 12.2397 26.6133L15.9239 26.1806C16.132 25.5228 16.3946 24.8836 16.709 24.2699L14.3795 21.3085C14.2428 21.1349 14.174 20.9169 14.1863 20.6958C14.1985 20.4747 14.2908 20.2658 14.4458 20.1085L17.939 16.5971C18.1058 16.4292 18.3314 16.3335 18.5675 16.3307C18.8036 16.3278 19.0314 16.4179 19.2022 16.5817L22.08 18.8665C22.6891 18.55 23.3234 18.2855 23.9765 18.0758L24.4121 14.327C24.4372 14.1055 24.5426 13.901 24.708 13.7526C24.8735 13.6042 25.0875 13.5222 25.3093 13.5224H25.3113ZM19.5132 56.7938C24.8455 58.4647 30.555 58.481 35.8967 56.8406C41.2383 55.2001 45.9642 51.9791 49.4578 47.5977C52.9514 43.2163 55.0505 37.878 55.4812 32.2792C55.9119 26.6804 54.6542 21.0811 51.8722 16.2117C51.8179 16.1002 51.7413 16.0011 51.6473 15.9206C51.5533 15.8401 51.4437 15.7799 51.3256 15.7438C51.2074 15.7076 51.0831 15.6963 50.9604 15.7105C50.8377 15.7247 50.7192 15.7642 50.6123 15.8264L46.6875 18.1051C46.4809 18.2248 46.3299 18.4221 46.2678 18.6535C46.2056 18.885 46.2373 19.1318 46.3559 19.3398C48.2393 22.6175 49.2306 26.3361 49.23 30.1214C49.2294 33.9068 48.237 37.6251 46.3526 40.9022C43.8956 45.1796 40.0527 48.4795 35.4664 50.2503C30.88 52.0211 25.8281 52.1555 21.155 50.6311L21.8924 47.867C21.9317 47.718 21.9326 47.5613 21.895 47.4118C21.8573 47.2624 21.7824 47.125 21.6773 47.0127C21.5721 46.9005 21.4402 46.8171 21.2941 46.7703C21.1479 46.7236 20.9924 46.7151 20.842 46.7456L7.91565 49.4037C7.75194 49.4378 7.60087 49.517 7.47933 49.6324C7.35778 49.7478 7.27054 49.8949 7.22734 50.0573C7.18414 50.2197 7.18669 50.3909 7.2347 50.5519C7.28271 50.7129 7.3743 50.8574 7.49923 50.9691L17.3203 59.7259C17.4317 59.8408 17.5713 59.9239 17.725 59.9669C17.8788 60.0098 18.0411 60.011 18.1954 59.9704C18.3497 59.9297 18.4906 59.8487 18.6036 59.7354C18.7167 59.6222 18.7978 59.4809 18.8388 59.3259L19.5132 56.7925V56.7938ZM17.4715 57.4399L18.0159 55.3958C18.0482 55.2755 18.1048 55.1632 18.1821 55.0658C18.2594 54.9684 18.3558 54.8881 18.4653 54.8297C18.5749 54.7714 18.6951 54.7363 18.8187 54.7267C18.9423 54.7171 19.0665 54.7331 19.1836 54.7738C24.1175 56.5121 29.4583 56.7136 34.5079 55.3518C39.5575 53.99 44.081 51.1283 47.4873 47.1407C50.8936 43.1532 53.0242 38.2252 53.6006 33.0009C54.1771 27.7766 53.1726 22.499 50.7184 17.8578L48.3512 19.2318C50.183 22.7259 51.1037 26.63 51.0271 30.5791C50.9506 34.5281 49.8793 38.3932 47.9135 41.8129C45.1752 46.5806 40.8512 50.2238 35.7033 52.1006C30.5554 53.9774 24.9138 53.9674 19.7725 52.0724C19.5563 51.9976 19.3764 51.8432 19.2688 51.6403C19.1613 51.4375 19.1342 51.2012 19.1929 50.9791L19.7698 48.815L10.0422 50.8151L17.4689 57.4385L17.4715 57.4399ZM3.69174 44.0396C3.7462 44.151 3.82284 44.25 3.91692 44.3303C4.01099 44.4107 4.12049 44.4708 4.23863 44.5069C4.35676 44.543 4.48101 44.5542 4.60366 44.54C4.72631 44.5258 4.84474 44.4864 4.95162 44.4243L8.87714 42.1462C9.0837 42.0266 9.23463 41.8295 9.29679 41.5982C9.35895 41.3668 9.32726 41.1201 9.20869 40.9122C7.32481 37.6348 6.33294 33.9163 6.33294 30.131C6.33294 26.3457 7.32481 22.6272 9.20869 19.3498C11.5658 15.2465 15.2007 12.0374 19.5523 10.2179C23.904 8.39834 28.7303 8.06955 33.2863 9.28227L32.5277 12.133C32.4885 12.2821 32.4878 12.4387 32.5255 12.5882C32.5633 12.7377 32.6383 12.875 32.7434 12.9872C32.8486 13.0994 32.9805 13.1828 33.1267 13.2296C33.2728 13.2763 33.4284 13.2849 33.5788 13.2543L46.5045 10.5996C46.6682 10.5656 46.8194 10.4865 46.941 10.3712C47.0626 10.2558 47.15 10.1087 47.1932 9.94629C47.2365 9.78389 47.234 9.6126 47.186 9.45155C47.1381 9.29049 47.0465 9.14602 46.9216 9.03427L37.0998 0.274105C36.9884 0.159222 36.8488 0.0760711 36.6951 0.0331246C36.5413 -0.00982201 36.379 -0.011029 36.2247 0.0296271C36.0704 0.0702831 35.9295 0.151349 35.8165 0.264563C35.7035 0.377778 35.6223 0.519094 35.5813 0.674113L34.9268 3.13283C29.0249 1.55438 22.7702 1.97501 17.1299 4.32966C11.4897 6.68431 6.77822 10.8418 3.72423 16.1591C1.29033 20.3957 0.00607287 25.2008 2.14848e-05 30.0934C-0.0060299 34.9859 1.26634 39.7942 3.68975 44.0369L3.69174 44.0396ZM1.80059 30.096C1.80133 34.3829 2.8463 38.6044 4.8442 42.3916L7.21145 41.0175C5.37946 37.5236 4.45869 33.6196 4.53522 29.6706C4.61176 25.7216 5.68311 21.8567 7.64909 18.4371C10.2792 13.8559 14.3771 10.307 19.273 8.3706C24.169 6.43416 29.5735 6.22463 34.6032 7.77625C34.7201 7.80474 34.8301 7.85645 34.9268 7.92834C35.0234 8.00024 35.1048 8.09085 35.1661 8.19485C35.2274 8.29885 35.2674 8.41414 35.2837 8.53391C35.3 8.65369 35.2923 8.77553 35.261 8.89227L34.6503 11.185L44.3779 9.18494L36.9513 2.56148L36.4374 4.48952C36.4063 4.60695 36.352 4.71689 36.2777 4.81276C36.2034 4.90863 36.1107 4.98848 36.005 5.04753C35.8994 5.10658 35.783 5.14362 35.6628 5.15645C35.5426 5.16928 35.4211 5.15763 35.3055 5.1222C29.6951 3.41916 23.6769 3.67227 18.2276 5.84044C12.7783 8.00861 8.2177 11.9646 5.28582 17.0664C3.00471 21.0253 1.80317 25.5194 1.80258 30.0947L1.80059 30.096ZM27.7826 22.4459C26.2965 22.4456 24.8438 22.8884 23.608 23.7183C22.3722 24.5482 21.409 25.7279 20.8401 27.1082C20.2712 28.4885 20.1222 30.0075 20.412 31.4729C20.7018 32.9384 21.4172 34.2845 22.468 35.3411C23.5187 36.3977 24.8575 37.1173 26.315 37.4089C27.7725 37.7005 29.2833 37.551 30.6563 36.9792C32.0293 36.4075 33.2028 35.4393 34.0285 34.197C34.8542 32.9547 35.2948 31.4941 35.2948 30C35.2947 27.9968 34.5032 26.0757 33.0945 24.6591C31.6857 23.2425 29.7751 22.4464 27.7826 22.4459ZM31.8169 25.9439C31.0192 25.1426 30.0031 24.5971 28.897 24.3763C27.7909 24.1555 26.6446 24.2694 25.6029 24.7035C24.5612 25.1376 23.6709 25.8725 23.0445 26.8152C22.4182 27.758 22.0838 28.8663 22.0838 30C22.0838 31.1337 22.4182 32.242 23.0445 33.1848C23.6709 34.1275 24.5612 34.8624 25.6029 35.2965C26.6446 35.7306 27.7909 35.8445 28.897 35.6237C30.0031 35.4029 31.0192 34.8574 31.8169 34.0561C32.347 33.5236 32.7676 32.8913 33.0545 32.1953C33.3414 31.4994 33.4891 30.7534 33.4891 30C33.4891 29.2466 33.3414 28.5006 33.0545 27.8047C32.7676 27.1087 32.347 26.4764 31.8169 25.9439ZM29.449 15.3437H26.115L25.7038 18.8845C25.6831 19.066 25.6083 19.237 25.4893 19.3751C25.3703 19.5132 25.2125 19.612 25.0368 19.6585C24.1293 19.9 23.2577 20.2614 22.4447 20.7332C22.2886 20.8242 22.1089 20.8658 21.9289 20.8528C21.7489 20.8397 21.577 20.7725 21.4355 20.6598L18.6505 18.4471L16.2905 20.8205L18.4536 23.5705C18.5819 23.713 18.662 23.8927 18.6821 24.0838C18.7022 24.275 18.6615 24.4676 18.5656 24.6339C18.1038 25.4399 17.7472 26.3023 17.5047 27.1999C17.4647 27.3855 17.3679 27.5538 17.2279 27.6812C17.0879 27.8087 16.9118 27.8889 16.7242 27.9106L13.2025 28.324V31.6747L16.7235 32.088C16.9042 32.1089 17.0743 32.1841 17.2118 32.3038C17.3493 32.4234 17.4476 32.582 17.4941 32.7587C17.736 33.6711 18.0973 34.5472 18.5683 35.3641C18.6585 35.5211 18.6998 35.7018 18.6868 35.8827C18.6738 36.0636 18.6071 36.2364 18.4953 36.3788L16.2945 39.1788L18.6545 41.5522L21.3904 39.3775C21.5323 39.2477 21.7117 39.1668 21.9025 39.1465C22.0933 39.1263 22.2856 39.1677 22.4514 39.2648C23.2511 39.7293 24.1069 40.0884 24.9976 40.3335C25.1822 40.3738 25.3496 40.4711 25.4764 40.6118C25.6031 40.7525 25.6829 40.9296 25.7045 41.1182L26.1156 44.6589H29.4483L29.8595 41.1182C29.8801 40.9366 29.9548 40.7656 30.0739 40.6274C30.1929 40.4893 30.3507 40.3906 30.5265 40.3442C31.434 40.1008 32.3053 39.7376 33.1179 39.2642C33.274 39.1732 33.4538 39.1315 33.6338 39.1446C33.8137 39.1576 33.9857 39.2249 34.1271 39.3375L36.9121 41.5502L39.2728 39.1775L37.1091 36.4268C36.981 36.2842 36.9012 36.1044 36.8812 35.9133C36.8612 35.7223 36.902 35.5297 36.9977 35.3634C37.4599 34.5583 37.8171 33.6968 38.0606 32.8001C38.1005 32.6145 38.1973 32.4461 38.3373 32.3186C38.4773 32.1912 38.6534 32.111 38.8411 32.0894L42.3621 31.676V28.3246L38.8411 27.9113C38.6605 27.8904 38.4904 27.8153 38.353 27.6956C38.2157 27.5759 38.1174 27.4173 38.0712 27.2406C37.829 26.3283 37.4678 25.4523 36.997 24.6352C36.9066 24.4783 36.8651 24.2976 36.878 24.1167C36.8909 23.9358 36.9575 23.7629 37.0693 23.6205L39.2708 20.8205L36.9101 18.4471L34.1749 20.6225C34.033 20.7513 33.8542 20.8315 33.6642 20.8516C33.4741 20.8717 33.2826 20.8307 33.1172 20.7345C32.3164 20.27 31.4595 19.9111 30.5676 19.6665C30.383 19.6263 30.2156 19.5291 30.0888 19.3883C29.962 19.2476 29.8823 19.0704 29.8608 18.8818L29.449 15.3437Z" fill="#0CB4C4"></path></svg>