<svg xmlns="http://www.w3.org/2000/svg" id="Layer_1" data-name="Layer 1" width="59.69" height="60" viewBox="0 0 59.69 60"><defs><style> .cls-1 { fill: #0cb4c4; } </style></defs><path class="cls-1" d="M21,27.06a11.59,11.59,0,1,0-8.21-3.39A11.59,11.59,0,0,0,21,27.06ZM14.16,8.62a9.63,9.63,0,1,1-2.85,6.84A9.67,9.67,0,0,1,14.16,8.62Z"></path><path class="cls-1" d="M1.37,40.57,10,31.86l.7.7a1,1,0,0,0,1.37,0L15,29.71h0a15.48,15.48,0,1,0-8.2-8.21L3.9,24.35a1,1,0,0,0,0,1.37l.67.67L0,31l1.37,1.36,4.57-4.58,2.73,2.73L0,39.2ZM11.42,5.89A13.54,13.54,0,1,1,7.92,19a13.53,13.53,0,0,1,3.5-13.08ZM6,25l1.72-1.73a15.15,15.15,0,0,0,5.48,5.48l-1.73,1.72Z"></path><path class="cls-1" d="M16.16,16.43H18.1V20.3H16.16Z"></path><path class="cls-1" d="M20,13.53H22V20.3H20Z"></path><path class="cls-1" d="M23.9,10.62h1.94V20.3H23.9Z"></path><path class="cls-1" d="M58.72,40.61H51v-2.9a1,1,0,0,0,1-1V32.87a1,1,0,0,0-1-1H31.64a1,1,0,0,0-1,1v3.87a1,1,0,0,0,1,1v2.9H23.9a1,1,0,0,0-1,1v3.87a1,1,0,0,0,1,1V58a1,1,0,0,0,.28.69,1,1,0,0,0,.69.28h6.77v0a1,1,0,0,0,1,1H50a1,1,0,0,0,.68-.28A1,1,0,0,0,51,59v0h6.77a1,1,0,0,0,1-1V46.42a1,1,0,0,0,.69-.29,1,1,0,0,0,.28-.68V41.58a1,1,0,0,0-1-1ZM31.64,57.06h-5.8V46.42h5.8Zm0-12.58H24.87V42.55h6.77ZM43.25,58H39.38v-2.9h3.87Zm5.8,0v0H45.18V54.15a1,1,0,0,0-1-1h-5.8a1,1,0,0,0-1,1v3.92H33.57V37.71H49.05Zm1-22.24H32.61V33.84H50Zm6.77,21.28H51V46.42h5.8Zm1-12.58H51V42.55h6.77Z"></path><path class="cls-1" d="M36.48,44.48h2.9a1,1,0,0,0,.68-.28,1,1,0,0,0,.29-.69v-2.9a1,1,0,0,0-1-1h-2.9a1,1,0,0,0-1,1v2.9a1,1,0,0,0,1,1Zm1-2.9h1v1h-1Z"></path><path class="cls-1" d="M43.25,44.48h2.9a1,1,0,0,0,.68-.28,1,1,0,0,0,.29-.69v-2.9a1,1,0,0,0-.29-.68,1,1,0,0,0-.68-.29h-2.9a1,1,0,0,0-1,1v2.9a1,1,0,0,0,1,1Zm1-2.9h1v1h-1Z"></path><path class="cls-1" d="M36.48,51.25h2.9a1,1,0,0,0,.68-.28,1,1,0,0,0,.29-.68V47.38a1,1,0,0,0-.29-.68,1,1,0,0,0-.68-.28h-2.9a1,1,0,0,0-1,1v2.91a1,1,0,0,0,1,1Zm1-2.9h1v1h-1Z"></path><path class="cls-1" d="M43.25,51.25h2.9a1,1,0,0,0,.68-.28,1,1,0,0,0,.29-.68V47.38a1,1,0,0,0-.29-.68,1,1,0,0,0-.68-.28h-2.9a1,1,0,0,0-1,1v2.91a1,1,0,0,0,1,1Zm1-2.9h1v1h-1Z"></path><path class="cls-1" d="M51,6.76h1.93V8.69H51Z"></path><path class="cls-1" d="M47.12,6.76h1.93V8.69H47.12Z"></path><path class="cls-1" d="M43.25,6.76h1.93V8.69H43.25Z"></path><path class="cls-1" d="M39.38,6.76h1.93V8.69H39.38Z"></path><path class="cls-1" d="M51,22.23h1.93v1.94H51Z"></path><path class="cls-1" d="M51,26.1h1.93V28H51Z"></path><path class="cls-1" d="M51,18.36h1.93V20.3H51Z"></path><path class="cls-1" d="M51,14.49h1.93v1.94H51Z"></path><path class="cls-1" d="M51,10.62h1.93v1.94H51Z"></path><path class="cls-1" d="M6.49,51.25H8.42v1.94H6.49Z"></path><path class="cls-1" d="M10.36,51.25h1.93v1.94H10.36Z"></path><path class="cls-1" d="M14.23,51.25h1.93v1.94H14.23Z"></path><path class="cls-1" d="M18.1,51.25H20v1.94H18.1Z"></path><path class="cls-1" d="M6.49,39.64H8.42v1.94H6.49Z"></path><path class="cls-1" d="M6.49,43.51H8.42v1.94H6.49Z"></path><path class="cls-1" d="M6.49,47.38H8.42v1.94H6.49Z"></path></svg>