<svg width="60" height="60" viewBox="0 0 60 60" fill="none" xmlns="http://www.w3.org/2000/svg"><path d="M31.2539 15.1052C31.5858 15.4371 31.5858 15.9752 31.2539 16.3072L28.1487 19.413C27.8167 19.745 27.2787 19.745 26.946 19.413C26.6141 19.081 26.6141 18.543 26.946 18.211L28.6 16.557H15.203V28.5042C15.203 28.9737 14.8221 29.3546 14.3525 29.3546C13.8829 29.3546 13.502 28.9737 13.502 28.5042V15.7065C13.502 15.2369 13.8829 14.856 14.3525 14.856H28.6L26.946 13.202C26.6141 12.87 26.6141 12.332 26.946 11.9993C27.278 11.6674 27.8167 11.6674 28.1487 11.9993L31.2539 15.1052ZM28.7037 43.6061V47.6902C28.7037 48.1011 28.4096 48.4533 28.0052 48.527L25.8255 48.9229C25.5751 49.8014 25.2255 50.646 24.78 51.445L26.0421 53.2672C26.2762 53.6051 26.2351 54.0623 25.9442 54.3525L23.0563 57.2405C22.766 57.5314 22.3088 57.5725 21.971 57.3383L20.1481 56.0757C19.3484 56.5211 18.5045 56.8714 17.6266 57.1211L17.2307 59.3015C17.157 59.7059 16.8048 60 16.3939 60H12.3098C11.8989 60 11.5467 59.7059 11.473 59.3015L11.0771 57.1218C10.1986 56.8714 9.35399 56.5218 8.55503 56.0763L6.73276 57.3383C6.39491 57.5725 5.93771 57.5314 5.64748 57.2405L2.7595 54.3525C2.46861 54.0616 2.42752 53.6051 2.66167 53.2672L3.92434 51.4443C3.47888 50.6447 3.12865 49.8007 2.87885 48.9229L0.698516 48.527C0.294146 48.4533 0 48.1017 0 47.6902V43.6061C0 43.1952 0.294146 42.843 0.698516 42.7693L2.8782 42.3734C3.128 41.4955 3.47823 40.6509 3.92369 39.8513L2.66167 38.029C2.42752 37.6912 2.46861 37.234 2.7595 36.9437L5.64748 34.0558C5.93837 33.7655 6.39491 33.7238 6.73276 33.9579L8.55568 35.2206C9.35529 34.7752 10.1993 34.4249 11.0771 34.1751L11.473 31.9948C11.5467 31.5904 11.8983 31.2963 12.3098 31.2963H16.3939C16.8048 31.2963 17.157 31.5904 17.2307 31.9948L17.6266 34.1751C18.5045 34.4249 19.3484 34.7752 20.1481 35.2206L21.9703 33.9579C22.3082 33.7238 22.7654 33.7649 23.0556 34.0558L25.9436 36.9437C26.2338 37.2346 26.2756 37.6912 26.0414 38.029L24.7787 39.852C25.2242 40.6509 25.5744 41.4955 25.8242 42.3727L28.0046 42.7686C28.4096 42.843 28.7037 43.1952 28.7037 43.6061ZM27.0034 44.3157L24.9868 43.9498C24.6535 43.8891 24.3881 43.6367 24.3111 43.3074C24.0594 42.2312 23.6341 41.2072 23.0491 40.2635C22.8704 39.9759 22.8795 39.6093 23.0726 39.3308L24.2407 37.6449L22.3564 35.7606L20.6705 36.9287C20.392 37.1218 20.0254 37.1309 19.7378 36.9522C18.7947 36.3665 17.7707 35.942 16.694 35.6902C16.3639 35.6132 16.1115 35.3471 16.0515 35.0145L15.6856 32.9979H13.0207L12.6548 35.0145C12.5942 35.3478 12.3418 35.6132 12.0124 35.6902C10.9362 35.942 9.91228 36.3665 8.96853 36.9522C8.68091 37.1309 8.31437 37.1211 8.03587 36.9287L6.34991 35.7606L4.46568 37.6449L5.63313 39.3302C5.82619 39.6087 5.83532 39.9752 5.65661 40.2628C5.07158 41.2053 4.64699 42.2299 4.39459 43.3067C4.31763 43.6367 4.05152 43.8891 3.7189 43.9491L1.70227 44.3157V46.9806L3.7189 47.3465C4.05218 47.4071 4.31763 47.6595 4.39459 47.9889C4.64634 49.0651 5.07093 50.089 5.65661 51.0328C5.83532 51.3204 5.82619 51.6869 5.63313 51.9654L4.46503 53.6514L6.34926 55.5356L8.03457 54.3682C8.31306 54.1751 8.6796 54.166 8.96723 54.3447C9.90967 54.9297 10.9343 55.3543 12.0111 55.6067C12.3411 55.6837 12.5935 55.9491 12.6535 56.2824L13.0194 58.2984H15.6843L16.0502 56.2818C16.1109 55.9485 16.3633 55.683 16.6926 55.6061C17.7688 55.3543 18.7928 54.9297 19.7365 54.344C20.0241 54.1653 20.3907 54.1745 20.6692 54.3675L22.3551 55.5356L24.2394 53.6514L23.0719 51.9661C22.8789 51.6876 22.8697 51.321 23.0484 51.0334C23.6335 50.091 24.058 49.0664 24.3105 47.9896C24.3874 47.6595 24.6529 47.4071 24.9861 47.3471L27.0021 46.9813V44.3157H27.0034ZM20.8596 45.6481C20.8596 49.2359 17.941 52.1552 14.3525 52.1552C10.7647 52.1552 7.84543 49.2366 7.84543 45.6481C7.84543 42.0603 10.7641 39.141 14.3525 39.141C17.9403 39.141 20.8596 42.0603 20.8596 45.6481ZM19.1593 45.6481C19.1593 42.9976 17.0031 40.8414 14.3525 40.8414C11.7019 40.8414 9.54574 42.9976 9.54574 45.6481C9.54574 48.2987 11.7019 50.4549 14.3525 50.4549C17.0031 50.4543 19.1593 48.2981 19.1593 45.6481ZM46.6167 32.0007C46.1471 32.0007 45.7662 32.3815 45.7662 32.8511V44.7983H34.7986L36.4526 43.1443C36.7846 42.8123 36.7846 42.2743 36.4526 41.9423C36.1207 41.6103 35.5826 41.6103 35.2506 41.9423L32.1448 45.0481C31.8128 45.3801 31.8128 45.9181 32.1448 46.2501L35.2506 49.3559C35.4169 49.5223 35.6341 49.6051 35.8519 49.6051C36.0698 49.6051 36.287 49.5223 36.4533 49.3559C36.7853 49.024 36.7853 48.4859 36.4533 48.1539L34.7993 46.4999H46.6173C47.0869 46.4999 47.4678 46.119 47.4678 45.6494V32.8511C47.4671 32.3815 47.0863 32.0007 46.6167 32.0007ZM54.6578 13.384C54.6578 15.5102 53.8353 17.5151 52.3424 19.0289C51.6387 19.7424 51.2969 20.5759 51.2969 21.5783V25.5014C51.2969 26.8515 50.3251 27.9759 49.0448 28.2198L48.7207 29.7629C48.6379 30.1569 48.2909 30.4386 47.8885 30.4386H45.3442C44.9418 30.4386 44.5948 30.1569 44.512 29.7629L44.1878 28.2198C42.9075 27.9759 41.9358 26.8521 41.9358 25.5014V21.5783C41.9358 20.5766 41.594 19.7424 40.8903 19.0289C39.3974 17.5151 38.5749 15.5102 38.5749 13.384C38.5749 8.95027 42.1823 5.3429 46.616 5.3429C51.0504 5.3429 54.6578 8.95027 54.6578 13.384ZM47.1984 28.7376L47.2963 28.272H45.9364L46.0342 28.7376H47.1984ZM49.5966 25.5014V24.0183H43.6361V25.5014C43.6361 26.0916 44.1161 26.5717 44.7063 26.5717H48.5263C49.1166 26.5717 49.5966 26.0916 49.5966 25.5014ZM46.2756 22.318H46.9578V20.7448C46.9578 20.5602 46.8019 20.4037 46.6167 20.4037C46.4321 20.4037 46.2756 20.5596 46.2756 20.7448V22.318ZM52.9574 13.384C52.9574 9.88749 50.1132 7.04321 46.6167 7.04321C43.1202 7.04321 40.2759 9.88749 40.2759 13.384C40.2759 15.0608 40.9242 16.6418 42.1014 17.8353C43.1202 18.8684 43.6367 20.1278 43.6367 21.5783V22.318H44.5752V20.7448C44.5752 19.9237 45.0657 19.2187 45.7662 18.8952V16.2165L42.7628 12.9307C42.4458 12.5844 42.4699 12.0463 42.8169 11.7293C43.1632 11.4124 43.7013 11.4365 44.0183 11.7835L46.6167 14.6264L49.2151 11.7835C49.532 11.4371 50.0695 11.413 50.4164 11.7293C50.7628 12.0463 50.7869 12.5837 50.4706 12.9307L47.4671 16.2165V18.8952C48.1683 19.2187 48.6581 19.9237 48.6581 20.7455V22.318H49.5966V21.5783C49.5966 20.1278 50.1132 18.8684 51.1319 17.8353C52.3091 16.6411 52.9574 15.0602 52.9574 13.384ZM38.8032 6.77254C38.9695 6.93886 39.1867 7.02169 39.4045 7.02169C39.6224 7.02169 39.8396 6.93886 40.0059 6.77254C40.3378 6.44057 40.3378 5.9025 40.0059 5.56987L38.3558 3.91978C38.0238 3.5878 37.4857 3.5878 37.1538 3.91978C36.8218 4.25175 36.8218 4.78983 37.1538 5.1218L38.8032 6.77254ZM46.6167 4.03391C47.0863 4.03391 47.4671 3.65302 47.4671 3.18343V0.850481C47.4671 0.38089 47.0863 0 46.6167 0C46.1471 0 45.7662 0.38089 45.7662 0.850481V3.18409C45.7662 3.65368 46.1471 4.03391 46.6167 4.03391ZM53.8294 7.02169C54.0473 7.02169 54.2645 6.93886 54.4308 6.77254L56.0809 5.12245C56.4128 4.79048 56.4128 4.25241 56.0809 3.92043C55.7489 3.58846 55.2108 3.58846 54.8782 3.92043L53.2281 5.57052C52.8961 5.90249 52.8961 6.44057 53.2281 6.77319C53.3938 6.93886 53.6116 7.02169 53.8294 7.02169ZM59.1502 12.5335H56.8166C56.347 12.5335 55.9661 12.9144 55.9661 13.384C55.9661 13.8536 56.347 14.2345 56.8166 14.2345H59.1502C59.6198 14.2345 60.0007 13.8536 60.0007 13.384C60.0007 12.9144 59.6198 12.5335 59.1502 12.5335ZM54.4301 19.9954C54.0982 19.6635 53.5601 19.6635 53.2275 19.9954C52.8955 20.3274 52.8955 20.8655 53.2275 21.1981L54.8775 22.8482C55.0439 23.0145 55.261 23.0973 55.4789 23.0973C55.6967 23.0973 55.9139 23.0145 56.0802 22.8482C56.4122 22.5162 56.4122 21.9782 56.0802 21.6462L54.4301 19.9954ZM37.1531 22.8475C37.3188 23.0139 37.5366 23.0967 37.7544 23.0967C37.9723 23.0967 38.1895 23.0139 38.3558 22.8475L40.0059 21.1975C40.3378 20.8655 40.3378 20.3274 40.0059 19.9948C39.6739 19.6628 39.1358 19.6628 38.8032 19.9948L37.1531 21.6449C36.8211 21.9775 36.8211 22.5156 37.1531 22.8475ZM34.0832 14.2338H36.4168C36.8864 14.2338 37.2672 13.8529 37.2672 13.3833C37.2672 12.9137 36.8864 12.5329 36.4168 12.5329H34.0832C33.6136 12.5329 33.2327 12.9137 33.2327 13.3833C33.2333 13.8536 33.6136 14.2338 34.0832 14.2338Z" fill="#0CB4C4"></path></svg>