<svg width="61" height="60" viewBox="0 0 61 60" fill="none" xmlns="http://www.w3.org/2000/svg"><path fill-rule="evenodd" clip-rule="evenodd" d="M42.5594 17.9299H47.0936C47.4755 17.9299 47.7856 18.2394 47.7856 18.622V23.1581L59.0281 23.2642V1.38341H42.45L42.5601 17.9293L42.5594 17.9299ZM46.4015 22.1701L43.5448 19.3133H46.4015V22.1701ZM47.1473 24.5295C47.1298 24.5308 47.1117 24.5315 47.0936 24.5315C46.9016 24.5315 46.7284 24.4536 46.6029 24.3274L41.3921 19.116C41.3425 19.067 41.2995 19.0106 41.2659 18.9489L41.2612 18.9408C41.2116 18.8455 41.1827 18.7367 41.1827 18.6213C41.1827 18.6025 41.1834 18.5837 41.1847 18.5649L41.0659 0.694724C41.0646 0.314136 41.372 0.00469842 41.7519 0.00268473H41.7546V0H59.7181C60.1 0 60.4101 0.309437 60.4101 0.692039V23.9589C60.4101 24.3409 60.1007 24.651 59.7181 24.651C59.6953 24.651 59.6724 24.6496 59.6503 24.6476L47.1459 24.5301L47.1473 24.5295ZM17.8514 42.0701H13.3172C12.9353 42.0701 12.6252 41.7606 12.6252 41.378V36.8419L1.38274 36.7358V58.6152H17.9608L17.8514 42.0701ZM14.0093 37.8299L16.866 40.6867H14.0093V37.8299ZM13.2635 35.4705C13.2816 35.4692 13.2998 35.4685 13.3179 35.4685C13.5105 35.4685 13.6844 35.5471 13.8099 35.6739L19.0193 40.8833C19.0422 40.9055 19.0636 40.9297 19.0831 40.9552L19.0891 40.9625L19.0945 40.9693L19.0959 40.9713L19.1059 40.986L19.1113 40.9941L19.1167 41.0021C19.1871 41.1102 19.2281 41.2398 19.2281 41.3787C19.2281 41.3975 19.2274 41.4163 19.2261 41.4351L19.3449 59.3053C19.3462 59.6859 19.0388 59.9953 18.6589 59.9973H18.6562V60H0.692039C0.310109 60 0 59.6906 0 59.308V36.0411C0 35.6591 0.309438 35.349 0.692039 35.349C0.714861 35.349 0.737683 35.3504 0.759834 35.3524L13.2635 35.4699V35.4705ZM26.7908 26.6707C27.6433 25.7968 28.8294 25.2484 30.1463 25.2316C31.4633 25.2155 32.6614 25.7337 33.5347 26.5854C34.4086 27.4379 34.957 28.624 34.9738 29.9409C34.9899 31.2579 34.4717 32.456 33.6199 33.3293C32.7675 34.2032 31.5814 34.7516 30.2645 34.7684C28.9482 34.7845 27.7494 34.2663 26.8768 33.4146C26.0028 32.5621 25.4544 31.376 25.4376 30.0591C25.4215 28.7421 25.9397 27.544 26.7915 26.6707H26.7908ZM30.1624 26.6096C29.2274 26.621 28.3857 27.011 27.7796 27.6326C27.1728 28.2548 26.8029 29.1073 26.815 30.0423C26.8264 30.9773 27.2171 31.8197 27.838 32.4252C28.4602 33.0319 29.3127 33.4018 30.2477 33.3897C31.1827 33.3783 32.0251 32.9876 32.6306 32.3668C33.2373 31.7445 33.6072 30.8921 33.5951 29.957C33.5837 29.022 33.1937 28.1803 32.5722 27.5742C31.9499 26.9674 31.0975 26.5975 30.1624 26.6096ZM33.3555 22.3285C33.1004 22.2238 32.8366 22.1305 32.5654 22.0499C32.3171 21.9882 32.1137 21.7902 32.0567 21.523L31.6626 19.6966L28.6448 19.7342L28.3119 21.4888C28.2763 21.7492 28.0924 21.9774 27.8245 22.0573C27.5466 22.1406 27.2741 22.2379 27.0083 22.3486C26.7486 22.4574 26.4995 22.5755 26.2626 22.7037C26.0431 22.84 25.7558 22.8474 25.5242 22.699L23.9509 21.6841L21.8432 23.8448L22.8608 25.3396C23.0078 25.5471 23.034 25.8276 22.9058 26.0659C22.7655 26.3257 22.6413 26.5875 22.5332 26.8492C22.4278 27.105 22.3359 27.3641 22.258 27.6259C22.2003 27.8803 21.9996 28.0903 21.7277 28.1481L19.9007 28.5421L19.9382 31.5599L21.6928 31.8929C21.9533 31.9284 22.1815 32.1124 22.2614 32.3802C22.3446 32.6581 22.4419 32.9306 22.5527 33.1957C22.6614 33.4555 22.7796 33.7045 22.9078 33.9415C23.044 34.161 23.0514 34.4482 22.9031 34.6798L21.8875 36.2539L24.0482 38.3615L25.543 37.3439C25.7504 37.1969 26.031 37.1708 26.2693 37.299C26.5291 37.4393 26.7908 37.5634 27.0533 37.6715C27.309 37.7769 27.5681 37.8688 27.8299 37.9467C28.0843 38.0044 28.2944 38.2051 28.3521 38.477L28.7461 40.3034L31.764 40.2658L32.0969 38.5112C32.1325 38.2508 32.3164 38.0226 32.5842 37.9427C32.8621 37.8594 33.1346 37.7621 33.4005 37.6514C33.6602 37.5426 33.9092 37.4245 34.1455 37.2963C34.365 37.16 34.6523 37.1526 34.8839 37.301L36.4579 38.3166L38.5656 36.1559L37.548 34.661C37.401 34.4536 37.3748 34.1737 37.503 33.9348C37.6433 33.675 37.7675 33.4132 37.8756 33.1508C37.9809 32.895 38.0729 32.6359 38.1508 32.3741C38.2092 32.1197 38.4092 31.9097 38.681 31.8519L40.5074 31.4579L40.4699 28.4401L38.7146 28.1071C38.4542 28.0716 38.2259 27.8876 38.1461 27.6198C38.0628 27.3419 37.9655 27.0694 37.8547 26.8036C37.746 26.5438 37.6279 26.2948 37.4997 26.0579C37.3634 25.8384 37.356 25.5511 37.5044 25.3195L38.5199 23.7455L36.3592 21.6378L34.8644 22.6554C34.657 22.8024 34.3764 22.8286 34.1381 22.7004C33.8784 22.5601 33.6166 22.4359 33.3541 22.3278L33.3555 22.3285ZM33.3226 20.8437L32.8943 18.8576H32.893C32.8266 18.5428 32.5453 18.3078 32.211 18.3119L28.1004 18.3629C27.7635 18.3488 27.458 18.5837 27.3943 18.9254L27.0264 20.8639C26.8425 20.9283 26.66 20.9981 26.4794 21.0733C26.2982 21.1491 26.1169 21.2317 25.9364 21.321L24.2247 20.2168C23.9542 20.043 23.5904 20.0772 23.3575 20.3168L20.4813 23.2655C20.2396 23.4944 20.1926 23.8717 20.3866 24.1549L21.4989 25.788C21.4143 25.9625 21.3351 26.1411 21.2599 26.3237C21.1847 26.5062 21.1149 26.6922 21.0511 26.8801L19.0643 27.3084V27.3097C18.7495 27.3762 18.5146 27.6574 18.5186 27.9917L18.5696 32.1023C18.5555 32.4393 18.7904 32.7447 19.1321 32.8084L21.0713 33.1763C21.1357 33.3602 21.2055 33.5428 21.2807 33.7226C21.3566 33.9039 21.4391 34.0851 21.5284 34.2657L20.4242 35.9773C20.2504 36.2478 20.2846 36.6116 20.5236 36.8445L23.4723 39.7208C23.7012 39.9624 24.0784 40.0094 24.3617 39.8154L25.9948 38.7032C26.1693 38.7878 26.3478 38.867 26.5311 38.9421C26.7137 39.0173 26.8996 39.0871 27.0875 39.1509L27.5158 41.1377H27.5171C27.5836 41.4525 27.8648 41.6875 28.1991 41.6834L32.3097 41.6324C32.6467 41.6465 32.9521 41.4109 33.0158 41.0699L33.3837 39.1308C33.5676 39.0663 33.7502 38.9965 33.9307 38.9213C34.112 38.8455 34.2932 38.7629 34.4738 38.6736L36.1854 39.7778C36.4559 39.9517 36.8197 39.9174 37.0526 39.6778L39.9288 36.7291C40.1705 36.5002 40.2175 36.123 40.0235 35.8397L38.9113 34.2066C38.9958 34.0321 39.075 33.8535 39.1502 33.6703C39.2254 33.4877 39.2952 33.3018 39.359 33.1138L41.3458 32.6856V32.6843C41.6606 32.6178 41.8956 32.3366 41.8915 32.0023L41.8405 27.8917C41.8546 27.5547 41.6197 27.2493 41.278 27.1855L39.3388 26.8177C39.2744 26.6338 39.2046 26.4512 39.1294 26.2706C39.0536 26.0894 38.971 25.9082 38.8817 25.7276L39.9859 24.016C40.1598 23.7455 40.1255 23.3817 39.8866 23.1487L36.9378 20.2725C36.709 20.0309 36.3317 19.9839 36.0485 20.1779L34.4154 21.2901C34.2408 21.2055 34.0623 21.1263 33.879 21.0511C33.6945 20.9753 33.5085 20.9055 33.3219 20.8417L33.3226 20.8437ZM32.6413 6.68613L33.9166 7.96147H8.85891C8.47698 7.96147 8.16687 8.27091 8.16687 8.65351V29.7537C8.16687 30.1356 8.47631 30.4457 8.85891 30.4457C9.24151 30.4457 9.55095 30.1363 9.55095 29.7537V9.34555H33.918L32.6426 10.6209C32.3728 10.8907 32.3728 11.329 32.6426 11.5989C32.9125 11.8687 33.3508 11.8687 33.6206 11.5989L36.0706 9.14888C36.0934 9.12606 36.1149 9.10256 36.1351 9.07706C36.1458 9.06363 36.1559 9.04954 36.1653 9.03477C36.1747 9.02 36.1834 9.00591 36.1914 8.99114C36.2471 8.89113 36.2787 8.77635 36.2787 8.65418C36.2787 8.53202 36.2471 8.41724 36.1914 8.3179C36.1834 8.30246 36.1747 8.28836 36.1653 8.27426C36.1559 8.2595 36.1458 8.2454 36.1351 8.23198C36.1156 8.20647 36.0941 8.18231 36.0706 8.16016L33.6206 5.71016C33.3508 5.44033 32.9125 5.44033 32.6426 5.71016C32.3728 5.98 32.3728 6.41831 32.6426 6.68815L32.6413 6.68613ZM26.856 48.4018L24.406 50.8518C24.3831 50.8739 24.3617 50.8981 24.3415 50.9236C24.3308 50.937 24.3207 50.9511 24.3113 50.9659C24.3019 50.9807 24.2932 50.9948 24.2851 51.0095C24.2294 51.1095 24.1979 51.2243 24.1979 51.3465C24.1979 51.4687 24.2294 51.5834 24.2851 51.6828C24.2932 51.6982 24.3019 51.7123 24.3113 51.7264C24.3207 51.7412 24.3308 51.7553 24.3415 51.7687C24.361 51.7942 24.3825 51.8184 24.406 51.8405L26.856 54.2905C27.1258 54.5603 27.5641 54.5603 27.8339 54.2905C28.1038 54.0207 28.1038 53.5824 27.8339 53.3125L26.5586 52.0372H51.5512C51.9331 52.0372 52.2433 51.7278 52.2433 51.3451V30.1262C52.2433 29.7443 51.9338 29.4342 51.5512 29.4342C51.1686 29.4342 50.8592 29.7436 50.8592 30.1262V50.6538H26.5586L27.8339 49.3784C28.1038 49.1086 28.1038 48.6703 27.8339 48.4005C27.5641 48.1306 27.1258 48.1306 26.856 48.4005V48.4018Z" fill="#0CB4C4"></path></svg>