<svg width="61" height="61" viewBox="0 0 61 61" fill="none" xmlns="http://www.w3.org/2000/svg"><path fill-rule="evenodd" clip-rule="evenodd" d="M11.6808 16.2808H27.1476V30.167H11.6808V16.2808ZM10.7428 32.045H28.0836C28.2065 32.045 28.3282 32.0207 28.4417 31.9736C28.5552 31.9264 28.6583 31.8573 28.745 31.7702C28.8318 31.6831 28.9004 31.5798 28.9471 31.4661C28.9938 31.3524 29.0175 31.2306 29.017 31.1077V15.3428C29.017 15.0949 28.9188 14.8571 28.7439 14.6814C28.5689 14.5058 28.3315 14.4065 28.0836 14.4055H10.7428C10.4941 14.4055 10.2556 14.5042 10.0797 14.68C9.90385 14.8558 9.80495 15.0942 9.80477 15.3428V31.1077C9.80424 31.231 9.82815 31.3532 9.87511 31.4672C9.92207 31.5812 9.99115 31.6847 10.0784 31.7719C10.1656 31.859 10.2692 31.9281 10.3832 31.9749C10.4973 32.0218 10.6195 32.0456 10.7428 32.045ZM33.8577 26.4043H38.2338V30.167H33.8577V26.4043ZM32.9197 32.045H39.1724C39.2953 32.045 39.417 32.0207 39.5305 31.9736C39.644 31.9264 39.7471 31.8573 39.8338 31.7702C39.9205 31.6831 39.9892 31.5798 40.0359 31.4661C40.0825 31.3524 40.1063 31.2306 40.1058 31.1077V25.4663C40.1058 25.2187 40.0074 24.9813 39.8324 24.8063C39.6574 24.6313 39.42 24.5329 39.1724 24.5329H32.9197C32.6717 24.5328 32.4337 24.6309 32.2579 24.8058C32.0821 24.9808 31.9827 25.2183 31.9817 25.4663V31.1077C31.9819 31.3563 32.0808 31.5948 32.2567 31.7705C32.4325 31.9463 32.671 32.045 32.9197 32.045ZM49.3225 30.167H44.9458V26.4043H49.3225V30.167ZM50.2606 24.5289H44.0078C43.7599 24.5289 43.5221 24.6271 43.3464 24.8021C43.1708 24.977 43.0715 25.2144 43.0705 25.4623V31.1037C43.0707 31.3522 43.1695 31.5905 43.3452 31.7663C43.521 31.942 43.7593 32.0408 44.0078 32.041H50.2606C50.3835 32.041 50.5052 32.0167 50.6187 31.9696C50.7322 31.9224 50.8352 31.8533 50.9219 31.7662C51.0087 31.6791 51.0773 31.5758 51.124 31.4621C51.1707 31.3484 51.1944 31.2266 51.1939 31.1037V25.4663C51.1939 25.3437 51.1698 25.2223 51.1229 25.1091C51.0759 24.9959 51.0072 24.893 50.9205 24.8063C50.8339 24.7196 50.731 24.6509 50.6177 24.604C50.5045 24.5571 50.3831 24.5329 50.2606 24.5329V24.5289ZM33.8604 16.2782H49.3272V20.0436H33.8604V16.2808V16.2782ZM32.9224 21.9189H50.2606C50.5085 21.9178 50.7459 21.8186 50.9208 21.643C51.0957 21.4673 51.1939 21.2295 51.1939 20.9816V15.3428C51.1939 15.0949 51.0957 14.8571 50.9208 14.6814C50.7459 14.5058 50.5085 14.4065 50.2606 14.4055H32.9197C32.6711 14.4058 32.4329 14.5047 32.257 14.6804C32.0812 14.8561 31.9822 15.0943 31.9817 15.3428V20.9842C31.9822 21.2328 32.0812 21.471 32.257 21.6467C32.4329 21.8224 32.6711 21.9212 32.9197 21.9216L32.9224 21.9189ZM51.2339 6.36673C51.2334 6.61454 51.135 6.85212 50.9602 7.02778C50.7854 7.20345 50.5484 7.30299 50.3006 7.30474H33.537C33.2883 7.30474 33.0497 7.20592 32.8738 7.03001C32.6978 6.85409 32.599 6.61551 32.599 6.36673C32.599 6.11796 32.6978 5.87937 32.8738 5.70346C33.0497 5.52755 33.2883 5.42872 33.537 5.42872H50.3006C50.5485 5.43013 50.7858 5.52956 50.9606 5.7053C51.1355 5.88104 51.2337 6.11882 51.2339 6.36673ZM22.9949 6.81007C22.907 6.80981 22.8211 6.78347 22.7481 6.73439C22.6751 6.68531 22.6183 6.61569 22.5849 6.53434C22.5515 6.45298 22.543 6.36355 22.5604 6.27734C22.5778 6.19114 22.6204 6.11203 22.6828 6.05003C22.7451 5.98803 22.8245 5.94591 22.9108 5.92901C22.9971 5.91212 23.0865 5.92119 23.1677 5.95509C23.2488 5.98899 23.3181 6.04619 23.3667 6.11946C23.4154 6.19273 23.4412 6.27878 23.4409 6.36673C23.4409 6.42518 23.4294 6.48305 23.4069 6.53701C23.3845 6.59097 23.3516 6.63996 23.3101 6.68117C23.2687 6.72237 23.2195 6.75497 23.1654 6.77709C23.1113 6.79921 23.0534 6.81042 22.9949 6.81007ZM22.9949 4.04537C22.5363 4.04616 22.0882 4.18287 21.7072 4.43822C21.3262 4.69357 21.0295 5.0561 20.8545 5.48002C20.6795 5.90394 20.634 6.37023 20.7239 6.81997C20.8137 7.26971 21.0349 7.68273 21.3594 8.00684C21.6838 8.33096 22.0971 8.55163 22.547 8.64097C22.9968 8.73032 23.463 8.68433 23.8867 8.50882C24.3105 8.33331 24.6727 8.03615 24.9276 7.65489C25.1825 7.27363 25.3187 6.82536 25.3189 6.36673C25.3186 5.75118 25.0739 5.16094 24.6386 4.72567C24.2034 4.29041 23.6131 4.04573 22.9976 4.04537H22.9949ZM17.5389 6.81007C17.4209 6.81007 17.3078 6.76322 17.2244 6.67983C17.141 6.59644 17.0942 6.48333 17.0942 6.3654C17.0942 6.24746 17.141 6.13436 17.2244 6.05097C17.3078 5.96758 17.4209 5.92073 17.5389 5.92073C17.5973 5.92073 17.6551 5.93223 17.709 5.95458C17.763 5.97692 17.812 6.00968 17.8533 6.05097C17.8946 6.09226 17.9273 6.14128 17.9497 6.19523C17.972 6.24918 17.9835 6.307 17.9835 6.3654C17.9835 6.42379 17.972 6.48162 17.9497 6.53557C17.9273 6.58952 17.8946 6.63854 17.8533 6.67983C17.812 6.72112 17.763 6.75387 17.709 6.77622C17.6551 6.79857 17.5973 6.81007 17.5389 6.81007ZM17.5389 4.04537C17.0801 4.04564 16.6317 4.18189 16.2504 4.43692C15.8691 4.69195 15.5719 5.0543 15.3965 5.47818C15.2211 5.90205 15.1752 6.36842 15.2648 6.81834C15.3544 7.26826 15.5753 7.68152 15.8997 8.0059C16.2241 8.33029 16.6373 8.55122 17.0872 8.64078C17.5372 8.73034 18.0035 8.68451 18.4274 8.50908C18.8513 8.33365 19.2136 8.03649 19.4687 7.65517C19.7237 7.27385 19.86 6.82548 19.8602 6.36673C19.8597 5.75169 19.6153 5.16196 19.1807 4.72681C18.746 4.29166 18.1566 4.04661 17.5415 4.04537H17.5389ZM12.0828 6.81007C11.9948 6.80981 11.909 6.78347 11.836 6.73439C11.763 6.68531 11.7062 6.61569 11.6728 6.53434C11.6394 6.45298 11.6308 6.36355 11.6483 6.27734C11.6657 6.19114 11.7083 6.11203 11.7706 6.05003C11.833 5.98803 11.9124 5.94591 11.9987 5.92901C12.085 5.91212 12.1744 5.92119 12.2555 5.95509C12.3367 5.98899 12.406 6.04619 12.4546 6.11946C12.5032 6.19273 12.5291 6.27878 12.5288 6.36673C12.5283 6.48461 12.481 6.59747 12.3974 6.68058C12.3138 6.76368 12.2007 6.81025 12.0828 6.81007ZM12.0828 4.04537C11.6241 4.04564 11.1757 4.18189 10.7944 4.43692C10.413 4.69195 10.1159 5.0543 9.94045 5.47818C9.76502 5.90205 9.71919 6.36842 9.80875 6.81834C9.89831 7.26826 10.1192 7.68152 10.4436 8.0059C10.768 8.33029 11.1813 8.55122 11.6312 8.64078C12.0811 8.73034 12.5475 8.68451 12.9713 8.50908C13.3952 8.33365 13.7576 8.03649 14.0126 7.65517C14.2676 7.27385 14.4039 6.82548 14.4042 6.36673C14.404 5.75159 14.1597 5.16164 13.725 4.72642C13.2903 4.2912 12.7006 4.04626 12.0855 4.04537H12.0828ZM58.628 50.8052V13.2828C58.6269 12.9099 58.4782 12.5526 58.2143 12.2891C57.9504 12.0256 57.5929 11.8773 57.22 11.8768H54.9473V33.6844C54.9464 34.4361 54.6474 35.1568 54.1158 35.6883C53.5843 36.2198 52.8636 36.5189 52.1119 36.5197H8.88876C8.13705 36.5189 7.41637 36.2198 6.88483 35.6883C6.35329 35.1568 6.05428 34.4361 6.0534 33.6844V11.8768H3.7807C3.40808 11.8775 3.05094 12.0259 2.78752 12.2894C2.52409 12.553 2.37588 12.9102 2.37535 13.2828V50.8052C2.37571 51.1779 2.52386 51.5352 2.78732 51.7988C3.05078 52.0624 3.40803 52.2107 3.7807 52.2112H57.22C57.5929 52.2109 57.9506 52.0627 58.2145 51.7992C58.4784 51.5356 58.6271 51.1782 58.628 50.8052ZM33.7297 58.6253H27.271V54.0866H33.7297V58.6253ZM7.92942 11.8768V33.6844C7.92942 33.9389 8.03047 34.1829 8.21036 34.363C8.39025 34.543 8.63426 34.6442 8.88876 34.6444H52.1119C52.3664 34.6442 52.6104 34.543 52.7903 34.363C52.9702 34.1829 53.0713 33.9389 53.0713 33.6844V11.8768H7.92942ZM7.92942 3.33336V10.0001H53.0713V3.33336C53.0709 3.07898 52.9697 2.8351 52.7899 2.65516C52.6101 2.47522 52.3663 2.37388 52.1119 2.37335H8.88876C8.63437 2.37388 8.39057 2.47522 8.21075 2.65516C8.03093 2.8351 7.92977 3.07898 7.92942 3.33336ZM57.22 10.0001H54.9473V3.33336C54.9464 2.58183 54.6473 1.86137 54.1157 1.33014C53.5841 0.798917 52.8634 0.500353 52.1119 0.5H8.88876C8.13723 0.500353 7.41655 0.798917 6.88495 1.33014C6.35335 1.86137 6.05428 2.58183 6.0534 3.33336V10.0001H3.7807C2.91059 10.0012 2.07644 10.3474 1.46136 10.9629C0.84628 11.5783 0.500529 12.4127 0.5 13.2828V50.8052C0.501234 51.675 0.847254 52.5088 1.46222 53.1239C2.07718 53.739 2.91092 54.0852 3.7807 54.0866H25.3976V58.6253H22.6009C22.4778 58.6253 22.3559 58.6496 22.2422 58.6967C22.1285 58.7438 22.0252 58.8128 21.9381 58.8999C21.8511 58.9869 21.782 59.0902 21.7349 59.204C21.6878 59.3177 21.6636 59.4396 21.6636 59.5627C21.6636 59.6858 21.6878 59.8076 21.7349 59.9214C21.782 60.0351 21.8511 60.1384 21.9381 60.2255C22.0252 60.3125 22.1285 60.3815 22.2422 60.4286C22.3559 60.4758 22.4778 60.5 22.6009 60.5H38.4011C38.6497 60.5 38.8881 60.4012 39.0639 60.2255C39.2397 60.0497 39.3384 59.8113 39.3384 59.5627C39.3384 59.3141 39.2397 59.0756 39.0639 58.8999C38.8881 58.7241 38.6497 58.6253 38.4011 58.6253H35.6057V54.0866H57.22C58.0897 54.0852 58.9235 53.739 59.5384 53.1239C60.1534 52.5088 60.4994 51.675 60.5007 50.8052V13.2828C60.4998 12.4129 60.1539 11.5789 59.5388 10.9637C58.9238 10.3486 58.0899 10.0025 57.22 10.0014V10.0001Z" fill="#0CB4C4"></path></svg>