<svg xmlns="http://www.w3.org/2000/svg" width="60" height="60" viewBox="0 0 60 60" fill="none"><path d="M57.8581 7.03125H52.8855V2.05078C52.8848 1.50707 52.6689 0.985807 52.2851 0.601345C51.9012 0.216883 51.3808 0.000620321 50.8379 0L2.04756 0C1.5047 0.000620321 0.984257 0.216883 0.6004 0.601345C0.216542 0.985807 0.000619345 1.50707 0 2.05078L0 50.918C0.000619345 51.4617 0.216542 51.9829 0.6004 52.3674C0.984257 52.7519 1.5047 52.9681 2.04756 52.9688H7.02019V57.9492C7.02081 58.4929 7.23674 59.0142 7.62059 59.3987C8.00445 59.7831 8.5249 59.9994 9.06775 60H57.8581C58.401 59.9994 58.9214 59.7831 59.3053 59.3987C59.6891 59.0142 59.905 58.4929 59.9057 57.9492V9.08203C59.905 8.53832 59.6891 8.01706 59.3053 7.6326C58.9214 7.24813 58.401 7.03187 57.8581 7.03125ZM57.8581 8.78906C57.9357 8.78906 58.0101 8.81993 58.0649 8.87487C58.1198 8.92981 58.1506 9.00433 58.1506 9.08203V11.7188H52.8855V8.78906H57.8581ZM2.04756 1.75781H50.8379C50.9155 1.75781 50.9899 1.78868 51.0447 1.84362C51.0996 1.89856 51.1304 1.97308 51.1304 2.05078V4.6875H1.75505V2.05078C1.75505 1.97308 1.78587 1.89856 1.84072 1.84362C1.89558 1.78868 1.96998 1.75781 2.04756 1.75781ZM1.75505 50.918V6.44531H51.1304V50.918C51.1304 50.9957 51.0996 51.0702 51.0447 51.1251C50.9899 51.1801 50.9155 51.2109 50.8379 51.2109H2.04756C1.96998 51.2109 1.89558 51.1801 1.84072 51.1251C1.78587 51.0702 1.75505 50.9957 1.75505 50.918ZM57.8581 58.2422H9.06775C8.99017 58.2422 8.91577 58.2113 8.86092 58.1564C8.80606 58.1014 8.77524 58.0269 8.77524 57.9492V52.9688H50.8379C51.3808 52.9681 51.9012 52.7519 52.2851 52.3674C52.6689 51.9829 52.8848 51.4617 52.8855 50.918V13.4766H58.1506V57.9492C58.1506 58.0269 58.1198 58.1014 58.0649 58.1564C58.0101 58.2113 57.9357 58.2422 57.8581 58.2422Z" fill="#0CB4C4"></path><path d="M44.9878 41.8359H37.9676C37.1142 41.8359 36.2958 42.1755 35.6924 42.7798C35.089 43.3842 34.75 44.2039 34.75 45.0586C34.75 45.9133 35.089 46.733 35.6924 47.3374C36.2958 47.9417 37.1142 48.2812 37.9676 48.2812H44.9878C45.8411 48.2812 46.6595 47.9417 47.263 47.3374C47.8664 46.733 48.2054 45.9133 48.2054 45.0586C48.2054 44.2039 47.8664 43.3842 47.263 42.7798C46.6595 42.1755 45.8411 41.8359 44.9878 41.8359ZM44.9878 46.5234H37.9676C37.5797 46.5234 37.2077 46.3691 36.9334 46.0944C36.6591 45.8197 36.505 45.4471 36.505 45.0586C36.505 44.6701 36.6591 44.2975 36.9334 44.0228C37.2077 43.7481 37.5797 43.5938 37.9676 43.5938H44.9878C45.3757 43.5938 45.7477 43.7481 46.022 44.0228C46.2962 44.2975 46.4503 44.6701 46.4503 45.0586C46.4503 45.4471 46.2962 45.8197 46.022 46.0944C45.7477 46.3691 45.3757 46.5234 44.9878 46.5234Z" fill="#0CB4C4"></path><path d="M26.2668 32.6367H6.72724C6.18439 32.6373 5.66394 32.8536 5.28009 33.2381C4.89623 33.6225 4.68031 34.1438 4.67969 34.6875V46.2305C4.68031 46.7742 4.89623 47.2954 5.28009 47.6799C5.66394 48.0644 6.18439 48.2806 6.72724 48.2812H26.2668C26.8096 48.2806 27.3301 48.0644 27.7139 47.6799C28.0978 47.2954 28.3137 46.7742 28.3143 46.2305V34.6875C28.3137 34.1438 28.0978 33.6225 27.7139 33.2381C27.3301 32.8536 26.8096 32.6373 26.2668 32.6367ZM26.5593 46.2305C26.5593 46.3082 26.5285 46.3827 26.4736 46.4376C26.4188 46.4926 26.3444 46.5234 26.2668 46.5234H6.72724C6.64967 46.5234 6.57527 46.4926 6.52041 46.4376C6.46555 46.3827 6.43474 46.3082 6.43474 46.2305V34.6875C6.43474 34.6098 6.46555 34.5353 6.52041 34.4803C6.57527 34.4254 6.64967 34.3945 6.72724 34.3945H26.2668C26.3444 34.3945 26.4188 34.4254 26.4736 34.4803C26.5285 34.5353 26.5593 34.6098 26.5593 34.6875V46.2305Z" fill="#0CB4C4"></path><path d="M46.1573 14.0625H6.72724C6.18439 14.0631 5.66394 14.2794 5.28009 14.6638C4.89623 15.0483 4.68031 15.5696 4.67969 16.1133V27.832C4.68031 28.3757 4.89623 28.897 5.28009 29.2815C5.66394 29.6659 6.18439 29.8822 6.72724 29.8828H46.1573C46.7002 29.8822 47.2206 29.6659 47.6045 29.2815C47.9884 28.897 48.2043 28.3757 48.2049 27.832V16.1133C48.2043 15.5696 47.9884 15.0483 47.6045 14.6638C47.2206 14.2794 46.7002 14.0631 46.1573 14.0625ZM46.4498 27.832C46.4498 27.9097 46.419 27.9842 46.3642 28.0392C46.3093 28.0941 46.2349 28.125 46.1573 28.125H6.72724C6.64967 28.125 6.57527 28.0941 6.52041 28.0392C6.46555 27.9842 6.43474 27.9097 6.43474 27.832V16.1133C6.43474 16.0356 6.46555 15.9611 6.52041 15.9061C6.57527 15.8512 6.64967 15.8203 6.72724 15.8203H46.1573C46.2349 15.8203 46.3093 15.8512 46.3642 15.9061C46.419 15.9611 46.4498 16.0356 46.4498 16.1133V27.832Z" fill="#0CB4C4"></path><path d="M47.3281 32.6367H33.2877C33.0549 32.6367 32.8317 32.7293 32.6672 32.8941C32.5026 33.059 32.4102 33.2825 32.4102 33.5156C32.4102 33.7487 32.5026 33.9723 32.6672 34.1371C32.8317 34.3019 33.0549 34.3945 33.2877 34.3945H47.3281C47.5608 34.3945 47.784 34.3019 47.9486 34.1371C48.1131 33.9723 48.2056 33.7487 48.2056 33.5156C48.2056 33.2825 48.1131 33.059 47.9486 32.8941C47.784 32.7293 47.5608 32.6367 47.3281 32.6367Z" fill="#0CB4C4"></path><path d="M47.3281 37.3242H33.2877C33.0549 37.3242 32.8317 37.4168 32.6672 37.5816C32.5026 37.7465 32.4102 37.97 32.4102 38.2031C32.4102 38.4362 32.5026 38.6598 32.6672 38.8246C32.8317 38.9894 33.0549 39.082 33.2877 39.082H47.3281C47.5608 39.082 47.784 38.9894 47.9486 38.8246C48.1131 38.6598 48.2056 38.4362 48.2056 38.2031C48.2056 37.97 48.1131 37.7465 47.9486 37.5816C47.784 37.4168 47.5608 37.3242 47.3281 37.3242Z" fill="#0CB4C4"></path><path d="M47.3282 9.375H39.3521C39.1194 9.375 38.8962 9.4676 38.7316 9.63243C38.5671 9.79725 38.4746 10.0208 38.4746 10.2539C38.4746 10.487 38.5671 10.7106 38.7316 10.8754C38.8962 11.0402 39.1194 11.1328 39.3521 11.1328H47.3282C47.561 11.1328 47.7842 11.0402 47.9488 10.8754C48.1133 10.7106 48.2058 10.487 48.2058 10.2539C48.2058 10.0208 48.1133 9.79725 47.9488 9.63243C47.7842 9.4676 47.561 9.375 47.3282 9.375Z" fill="#0CB4C4"></path><path d="M35.6275 11.1328H36.154C36.3868 11.1328 36.61 11.0402 36.7745 10.8754C36.9391 10.7106 37.0316 10.487 37.0316 10.2539C37.0316 10.0208 36.9391 9.79725 36.7745 9.63243C36.61 9.4676 36.3868 9.375 36.154 9.375H35.6275C35.3948 9.375 35.1716 9.4676 35.007 9.63243C34.8425 9.79725 34.75 10.0208 34.75 10.2539C34.75 10.487 34.8425 10.7106 35.007 10.8754C35.1716 11.0402 35.3948 11.1328 35.6275 11.1328Z" fill="#0CB4C4"></path><path d="M23.1003 36.4916C22.9805 36.2917 22.7864 36.1478 22.5606 36.0913C22.3348 36.0348 22.0959 36.0705 21.8964 36.1904L16.4978 39.4342L11.0993 36.1904C11.0005 36.1296 10.8906 36.0891 10.776 36.0711C10.6614 36.0532 10.5444 36.0581 10.4318 36.0857C10.3191 36.1133 10.2131 36.163 10.1197 36.2319C10.0263 36.3008 9.94754 36.3875 9.88785 36.4871C9.82816 36.5867 9.78878 36.6971 9.77196 36.812C9.75515 36.927 9.76125 37.0441 9.78991 37.1566C9.81857 37.2692 9.86921 37.3749 9.93892 37.4678C10.0086 37.5606 10.096 37.6386 10.196 37.6974L14.7919 40.4596L10.196 43.2217C10.0315 43.3206 9.90393 43.4708 9.83278 43.6493C9.76163 43.8278 9.75085 44.0247 9.80208 44.2099C9.85332 44.3951 9.96376 44.5584 10.1165 44.6747C10.2692 44.7911 10.4558 44.8541 10.6477 44.8541C10.8064 44.8543 10.9622 44.811 11.0981 44.7287L16.4978 41.4849L21.8964 44.7287C22.0322 44.811 22.188 44.8543 22.3468 44.8541C22.5388 44.8543 22.7256 44.7915 22.8785 44.6752C23.0314 44.559 23.142 44.3957 23.1934 44.2104C23.2448 44.0252 23.2341 43.8281 23.163 43.6495C23.0918 43.4709 22.9642 43.3206 22.7996 43.2217L18.2037 40.4596L22.7996 37.6974C22.9991 37.5775 23.1429 37.383 23.1993 37.1569C23.2557 36.9307 23.2201 36.6914 23.1003 36.4916Z" fill="#0CB4C4"></path></svg>