<svg xmlns="http://www.w3.org/2000/svg" width="70" height="60" viewBox="0 0 70 60" fill="none"><path d="M27.7708 22.8143C23.0746 27.5105 23.0746 35.1588 27.7708 39.8644C30.1233 42.2169 33.2103 43.3932 36.2944 43.3932C39.3813 43.3932 42.4654 42.2169 44.8179 39.8644C49.5142 35.1682 49.5142 27.5199 44.8179 22.8143C40.1217 18.1122 32.4734 18.1122 27.7708 22.8143ZM43.5887 38.6292C41.5815 40.6365 38.9364 41.6488 36.2942 41.6488C33.6491 41.6488 31.0127 40.6452 28.9996 38.6292C24.9763 34.6059 24.9763 28.066 28.9996 24.0458C31.0068 22.0385 33.6519 21.0262 36.2942 21.0262C38.9392 21.0262 41.5756 22.0298 43.5887 24.0458C47.612 28.0661 47.612 34.606 43.5887 38.6292ZM64.7789 11.0166C61.9553 11.0166 59.6555 13.3165 59.6555 16.14C59.6555 16.8598 59.8047 17.5475 60.0739 18.1707L51.3398 23.8706C51.2111 23.6248 51.0853 23.3761 50.9507 23.1303L53.1306 20.807C53.5724 20.3359 53.5636 19.6073 53.1072 19.1509L48.4782 14.5219C48.0218 14.0655 47.2961 14.0509 46.8221 14.4985L44.4988 16.6784C43.346 16.0347 42.1229 15.5256 40.8501 15.1716L40.7535 11.9968C40.7301 11.3531 40.2151 10.8439 39.5627 10.8439H33.0172C32.3647 10.8439 31.8497 11.3531 31.8263 11.9968L31.7298 15.1716C30.457 15.5315 29.2368 16.0318 28.081 16.6843L25.7666 14.5044C25.2955 14.0626 24.5669 14.0713 24.1105 14.5278L22.4105 16.2278L14.4225 8.23082C15.0809 7.3706 15.4788 6.2909 15.4788 5.12342C15.4788 2.29984 13.179 0 10.3554 0C7.53183 0 5.23199 2.29984 5.23199 5.12342C5.23199 7.947 7.53183 10.2468 10.3554 10.2468C11.3824 10.2468 12.3392 9.9396 13.1498 9.41583L21.1872 17.4532L19.4872 19.1532C19.0307 19.6097 19.0161 20.3353 19.4638 20.8093L21.6437 23.1238C21 24.2766 20.4908 25.4997 20.131 26.7725L16.9562 26.8691C16.3037 26.8925 15.8034 27.4075 15.8034 28.0599V30.4651H10.1708C9.75824 28.054 7.65442 26.2107 5.12342 26.2107C2.29984 26.2107 0 28.5105 0 31.3341C0 34.1577 2.29984 36.4575 5.12342 36.4575C7.65442 36.4575 9.76115 34.6141 10.1708 32.2031H15.8034V34.6082C15.8034 35.2607 16.3125 35.7757 16.9562 35.7991L20.131 35.8956C20.4909 37.1684 20.9912 38.3886 21.6437 39.5444L19.4638 41.8588C19.022 42.3299 19.0307 43.0585 19.4872 43.5149L24.1162 48.1439C24.5726 48.6003 25.2983 48.615 25.7723 48.1673L28.0867 45.9874C28.2213 46.0634 28.3559 46.1366 28.4905 46.2039L24.6779 50.8855C23.8001 50.1745 22.6853 49.7532 21.4711 49.7532C18.6475 49.7532 16.3476 52.053 16.3476 54.8766C16.3476 57.7002 18.6475 60 21.4711 60C24.2946 60 26.5945 57.7002 26.5945 54.8766C26.5945 53.9022 26.3165 52.9893 25.8454 52.211L30.1291 46.953C30.6529 47.1636 31.1855 47.3421 31.7326 47.4913L31.8291 50.6748C31.8525 51.3186 32.3675 51.8277 33.02 51.8277H39.5655C40.2092 51.8277 40.733 51.3186 40.7563 50.6748L40.8529 47.4913C42.1257 47.1314 43.3459 46.6311 44.4929 45.9845L46.8162 48.1644C47.2873 48.6062 48.0159 48.5974 48.4723 48.141L50.1723 46.441L54.5613 50.83C54.0668 51.6171 53.783 52.5447 53.783 53.5424C53.783 56.366 56.0828 58.6658 58.9064 58.6658C61.7299 58.6658 64.0298 56.366 64.0298 53.5424C64.0298 50.7188 61.7299 48.419 58.9064 48.419C57.7067 48.419 56.6007 48.8374 55.7229 49.528L51.4012 45.2063L53.1012 43.5063C53.5576 43.0498 53.5722 42.3242 53.1246 41.8502L50.9447 39.5269C51.5884 38.374 52.0975 37.151 52.4515 35.8869L55.635 35.7904C56.2788 35.767 56.7879 35.2432 56.7879 34.5995V28.0569C56.7879 27.4132 56.2788 26.8895 55.635 26.8661L52.4515 26.7695C52.3316 26.3365 52.1882 25.9093 52.0331 25.488L61.0218 19.6242C61.9582 20.6278 63.2924 21.2657 64.7759 21.2657C67.5995 21.2657 69.8993 18.9659 69.8993 16.1423C69.8964 13.3158 67.6054 11.0166 64.7789 11.0166ZM6.96645 5.12363C6.96645 3.25974 8.48794 1.73825 10.3518 1.73825C12.2157 1.73825 13.7372 3.25974 13.7372 5.12363C13.7372 6.98751 12.2157 8.509 10.3518 8.509C8.48794 8.509 6.96645 6.98751 6.96645 5.12363ZM5.11133 34.7175C3.24744 34.7175 1.72595 33.196 1.72595 31.3321C1.72595 29.4682 3.24744 27.9467 5.11133 27.9467C6.97521 27.9467 8.4967 29.4682 8.4967 31.3321C8.4967 33.1989 6.97521 34.7175 5.11133 34.7175ZM21.4708 58.2747C19.6069 58.2747 18.0854 56.7532 18.0854 54.8893C18.0854 53.0254 19.6069 51.5039 21.4708 51.5039C22.2725 51.5039 23.007 51.7819 23.5834 52.2442L23.478 52.3729L24.3032 53.0401C24.6485 53.5726 24.8504 54.2075 24.8504 54.8834C24.8562 56.7561 23.3347 58.2747 21.4708 58.2747ZM58.9148 50.1728C60.7787 50.1728 62.3002 51.6943 62.3002 53.5582C62.3002 55.4221 60.7787 56.9436 58.9148 56.9436C57.0509 56.9436 55.5294 55.4221 55.5294 53.5582C55.5294 51.6914 57.0509 50.1728 58.9148 50.1728ZM55.0583 28.5909V34.0743L52.0036 34.1708C51.4652 34.1854 51.0146 34.5453 50.8888 35.0691C50.5376 36.456 49.9817 37.7874 49.256 39.0163C48.9781 39.4815 49.0454 40.0491 49.414 40.4383L51.512 42.6621L47.6321 46.542L45.4083 44.4528C45.0191 44.087 44.4427 44.0256 43.9863 44.2948C42.7574 45.0204 41.4318 45.5763 40.0391 45.9275C39.5212 46.0621 39.1613 46.5127 39.1408 47.0423L39.0443 50.0971H33.5609L33.4644 47.0423C33.4497 46.5039 33.0898 46.0533 32.5661 45.9275C31.1733 45.5764 29.8478 45.0205 28.6189 44.2948C28.1537 44.0168 27.5861 44.0841 27.1969 44.4528L24.9731 46.5508L21.0874 42.665L23.1853 40.4412C23.5511 40.052 23.6125 39.4756 23.3433 39.0192C22.6089 37.7844 22.0618 36.456 21.7106 35.0632C21.576 34.5453 21.1254 34.1796 20.5958 34.165L17.541 34.0743V28.5909L20.5958 28.5002C21.1342 28.4856 21.5848 28.1257 21.7106 27.602C22.0617 26.2092 22.6176 24.8837 23.3433 23.646C23.6213 23.1808 23.554 22.6131 23.1853 22.224L21.0874 20.0002L24.9673 16.1203L27.1911 18.2183C27.5802 18.584 28.1567 18.6513 28.6131 18.3763C29.8478 17.6418 31.1763 17.0947 32.569 16.7435C33.0869 16.6089 33.4468 16.1583 33.4673 15.6287L33.558 12.574H39.0413L39.132 15.6287C39.1467 16.1671 39.5066 16.6177 40.0303 16.7435C41.4231 17.0947 42.7486 17.6506 43.9775 18.3763C44.4427 18.6542 45.0104 18.5869 45.3995 18.2183L47.6233 16.1203L51.5032 20.0002L49.4052 22.224C49.0395 22.6132 48.9781 23.1896 49.2472 23.646C49.9729 24.8749 50.5288 26.2005 50.88 27.5932C51.0146 28.1111 51.4652 28.471 51.9948 28.4915L55.0583 28.5909ZM64.7789 19.5206C62.915 19.5206 61.3935 17.9991 61.3935 16.1352C61.3935 14.2713 62.915 12.7498 64.7789 12.7498C66.6428 12.7498 68.1642 14.2713 68.1642 16.1352C68.1672 17.9991 66.6457 19.5206 64.7789 19.5206Z" fill="#0CB4C4"></path></svg>