<svg width="53" height="61" viewBox="0 0 53 61" fill="none" xmlns="http://www.w3.org/2000/svg"><path d="M26.0977 60.078C26.3533 60.1602 26.6089 60.1602 26.8646 60.078C32.3791 56.7638 36.2867 54.0522 39.2631 51.3315C45.6267 45.6435 47.8362 39.1886 49.79 31.1268C51.1503 25.3567 51.826 19.9152 52.8485 14.1451C53.1863 11.7713 52.1729 9.89961 49.79 9.22399C45.8002 8.20143 41.8925 7.188 38.1584 5.82763C35.1911 4.64073 32.3882 3.28036 29.7497 1.50002C28.3893 0.568758 27.458 0.139648 26.5268 0.139648C25.5042 0.139648 24.573 0.559628 23.2126 1.50002C20.5831 3.28036 17.7802 4.64073 14.8039 5.82763C11.0697 7.188 7.16206 8.20143 3.17226 9.22399C0.798462 9.89961 -0.224097 11.7713 0.113713 14.1451C1.13627 19.9152 1.81189 25.3567 3.17226 31.1268C5.12608 39.1886 7.33553 45.6435 13.6991 51.3315C16.6755 54.0522 20.6653 56.773 26.0977 60.078ZM26.5268 58.5533C21.3501 55.4126 17.5246 52.7832 14.7217 50.2359C8.6046 44.8036 6.48645 38.6043 4.6148 30.789C3.51007 26.1145 2.57881 20.6 1.64755 13.9807C1.39191 12.6203 1.64755 11.3513 3.60137 10.6665C7.59117 9.64397 11.4988 8.63054 15.233 7.27017C18.3737 6.08327 21.3501 4.64073 24.0617 2.68691C25.1664 2.0113 25.842 1.66436 26.5268 1.58219C27.2024 1.66436 27.8871 2.00217 28.9006 2.68691C31.6213 4.64073 34.6707 6.08327 37.7293 7.27017C41.4634 8.63054 45.3711 9.64397 49.3609 10.6665C51.3147 11.3421 51.5703 12.6203 51.3969 13.9807C50.3743 20.6 49.443 26.1236 48.3383 30.789C46.4667 38.6043 44.4307 44.7944 38.3227 50.2359C35.4376 52.7832 31.7035 55.4126 26.5268 58.5533ZM26.0977 55.4126C23.2126 53.6323 20.154 51.5963 17.4333 49.2955C10.3028 43.2697 8.43113 36.5592 6.47732 27.7305C5.45476 22.8916 4.69697 17.9705 4.10352 13.8072C4.02135 13.4694 4.35916 13.0403 4.69697 12.9582C13.5257 10.6665 19.7249 8.96835 26.0977 4.38509C26.1798 4.30292 26.3533 4.21162 26.5268 4.21162C26.6089 4.21162 26.7824 4.29379 26.8646 4.38509C33.3195 8.96835 39.5187 10.6665 48.2653 12.9582C48.6853 13.0403 48.9409 13.4694 48.8587 13.8072C48.2653 17.9705 47.4984 22.8916 46.4849 27.7305C44.6133 36.5592 42.6686 43.2697 35.5289 49.2955C32.8082 51.5871 29.7588 53.6231 26.8646 55.4126C26.6089 55.4948 26.3533 55.4948 26.0977 55.4126ZM34.2507 23.485H18.7115C18.0359 23.485 17.5246 24.0785 17.5246 24.6719V40.129C17.5246 40.8046 18.1181 41.3159 18.7115 41.3159H34.2507C34.9264 41.3159 35.4376 40.8046 35.4376 40.129V24.6719C35.4376 24.0785 34.9264 23.485 34.2507 23.485ZM24.9929 30.0221V35.4544C24.9929 37.4083 27.9602 37.4904 27.9602 35.4544V30.0221C27.9693 28.0683 24.9929 28.0683 24.9929 30.0221ZM29.494 30.0221V35.4544C29.494 39.4442 23.4682 39.2708 23.4682 35.4544V30.0221C23.4682 26.0323 29.494 26.2058 29.494 30.0221ZM35.0177 22.1247C36.1224 22.4625 36.9715 23.485 36.9715 24.6719V25.7767H40.3678C41.2991 25.7767 41.2991 27.2192 40.3678 27.2192H36.9715V29.6843H40.3678C41.2991 29.6843 41.2991 31.209 40.3678 31.209H36.9715V33.6741H40.3678C41.2991 33.6741 41.2991 35.1166 40.3678 35.1166H36.9715V37.5817H40.3678C41.2991 37.5817 41.2991 39.1064 40.3678 39.1064H36.9715V40.129C36.9715 41.5715 35.7024 42.8497 34.2507 42.8497H33.146V46.0726C33.146 46.4926 32.8082 46.8395 32.3791 46.8395C32.0413 46.8395 31.7035 46.5017 31.7035 46.0726V42.8497H29.2384V46.0726C29.2384 46.4926 28.9006 46.8395 28.4715 46.8395C28.0515 46.8395 27.7045 46.5017 27.7045 46.0726V42.8497H25.2394V46.0726C25.2394 46.4926 24.9016 46.8395 24.4725 46.8395C24.0434 46.8395 23.7969 46.5017 23.7969 46.0726V42.8497H21.3318V46.0726C21.3318 46.4926 20.994 46.8395 20.5649 46.8395C20.1358 46.8395 19.798 46.5017 19.798 46.0726V42.8497H18.6932C17.2507 42.8497 15.9725 41.5807 15.9725 40.129V39.1064H12.5761C11.6449 39.1064 11.6449 37.5817 12.5761 37.5817H15.9725V35.1166H12.5761C11.6449 35.1166 11.6449 33.6741 12.5761 33.6741H15.9725V31.209H12.5761C11.6449 31.209 11.6449 29.6843 12.5761 29.6843H15.9725V27.2192H12.5761C11.6449 27.2192 11.6449 25.7767 12.5761 25.7767H15.9725V24.6719C15.9725 23.485 16.8216 22.4625 17.9263 22.1247V18.8196C17.9263 14.0629 21.7427 10.2465 26.4994 10.2465C31.1648 10.2465 34.9903 14.0629 34.9903 18.8196V22.1247H35.0177ZM23.3861 22.0425H29.5853V18.8196C29.5853 17.1214 28.2249 15.6789 26.5268 15.6789C24.8286 15.6789 23.3861 17.1214 23.3861 18.8196V22.0425ZM19.3871 22.0425H21.9344V18.8196C21.9344 16.2723 23.9704 14.2364 26.5176 14.2364C28.9827 14.2364 31.1009 16.2723 31.1009 18.8196V22.0425H33.566V18.8196C33.566 14.912 30.3431 11.6891 26.5176 11.6891C22.61 11.6891 19.3871 14.912 19.3871 18.8196V22.0425ZM26.5268 53.8788C29.2475 52.1806 32.0413 50.3089 34.5886 48.1908C41.3813 42.4206 43.1616 35.8836 45.0333 27.3927C45.9645 22.8916 46.7314 18.2262 47.3249 14.2364C40.0209 12.456 32.6347 10.2465 26.5268 5.91893C20.3275 10.2465 12.9413 12.456 5.72866 14.2364C6.32211 18.2262 6.99772 22.9007 7.93811 27.3927C9.80976 35.8836 11.5901 42.4206 18.3828 48.1908C20.921 50.3181 23.806 52.1806 26.5268 53.8788Z" fill="#0CB4C4"></path></svg>