<svg width="49" height="60" viewBox="0 0 49 60" fill="none" xmlns="http://www.w3.org/2000/svg"><path fill-rule="evenodd" clip-rule="evenodd" d="M33.3491 38.6991V2.17147C33.3519 1.96556 33.2758 1.76639 33.1364 1.61477C33.0761 1.54952 33.003 1.49734 32.9217 1.46144C32.8404 1.42555 32.7526 1.40671 32.6638 1.40609H13.0625V9.76261C13.0618 10.2598 12.864 10.7364 12.5124 11.088C12.1609 11.4395 11.6843 11.6374 11.1871 11.6381H1.73448V47.1356C1.73204 47.3416 1.80835 47.5407 1.94783 47.6923C2.00817 47.7576 2.08124 47.8098 2.16255 47.8456C2.24385 47.8815 2.33165 47.9004 2.42052 47.901H27.9641C27.8677 47.3182 27.8346 46.7268 27.8655 46.1369V39.6565C27.8654 39.5641 27.8835 39.4727 27.9187 39.3874C27.954 39.302 28.0058 39.2245 28.071 39.1592C28.1363 39.0938 28.2138 39.042 28.2991 39.0067C28.3844 38.9713 28.4758 38.9531 28.5682 38.9531C28.5902 38.9531 28.6122 38.9531 28.6348 38.9564L30.835 38.9651C31.6807 38.9725 32.5244 38.883 33.3498 38.6984L33.3491 38.6991ZM35.0199 49.6511C34.9402 49.6049 34.8703 49.5435 34.8144 49.4703C34.7584 49.3971 34.7174 49.3137 34.6937 49.2246C34.67 49.1356 34.664 49.0428 34.6762 48.9515C34.6883 48.8601 34.7184 48.7721 34.7645 48.6924C34.8107 48.6127 34.8722 48.5428 34.9453 48.4869C35.0185 48.4309 35.102 48.3899 35.191 48.3661C35.2801 48.3424 35.3729 48.3365 35.4642 48.3487C35.5555 48.3608 35.6436 48.3908 35.7233 48.437L37.5974 49.5191L39.9135 45.5075C40.0061 45.3465 40.1588 45.2289 40.3381 45.1805C40.5174 45.1321 40.7086 45.1569 40.8696 45.2495C41.0306 45.3421 41.1482 45.4948 41.1966 45.6741C41.245 45.8534 41.2202 46.0446 41.1276 46.2056L38.4808 50.7892C38.4741 50.8025 38.4675 50.8158 38.4601 50.8285C38.3668 50.9894 38.2133 51.1067 38.0336 51.1546C37.8538 51.2024 37.6624 51.177 37.5014 51.0839L35.0199 49.6511ZM37.5014 57.1129C35.3551 55.5114 33.457 53.6018 31.8684 51.4459C30.7092 49.942 30.0921 48.0908 30.1169 46.1922V41.7413C30.1168 41.6489 30.1349 41.5575 30.1702 41.4722C30.2055 41.3868 30.2572 41.3093 30.3225 41.244C30.3878 41.1786 30.4653 41.1268 30.5506 41.0915C30.6359 41.0561 30.7273 41.0379 30.8196 41.0379C30.8416 41.0379 30.8623 41.0379 30.8863 41.0379C32.083 41.0454 33.2751 40.89 34.4299 40.5759C35.5407 40.2685 36.5985 39.7946 37.5674 39.1705C37.6822 39.0967 37.8159 39.058 37.9523 39.0591C38.0887 39.0602 38.2218 39.1009 38.3354 39.1765C39.3015 39.798 40.3559 40.2701 41.463 40.5765C42.6376 40.8955 43.8507 41.0507 45.0679 41.0379C45.2536 41.0374 45.4319 41.1106 45.5637 41.2415C45.6955 41.3724 45.7699 41.5502 45.7706 41.7359V46.1869C45.7958 48.0845 45.1796 49.935 44.0218 51.4386C42.43 53.5984 40.5283 55.5115 38.3781 57.1162C38.2524 57.2148 38.0969 57.2676 37.9372 57.266C37.7775 57.2644 37.6231 57.2086 37.4994 57.1076L37.5014 57.1129ZM33.0271 50.6532C32.0415 49.3949 31.5111 47.8399 31.5223 46.2416C31.5223 46.2256 31.5223 46.2102 31.5223 46.1949V42.4293C32.6305 42.3909 33.7304 42.2235 34.7999 41.9306C35.903 41.6261 36.9603 41.175 37.9434 40.5892C38.9263 41.1749 39.9834 41.6261 41.0863 41.9306C42.1557 42.2235 43.2557 42.3908 44.3638 42.4293V46.1949C44.3639 46.2232 44.3657 46.2515 44.3692 46.2796C44.3683 47.8647 43.8378 49.4041 42.8617 50.6532C41.4681 52.5489 39.8131 54.2377 37.9461 55.6695C36.0778 54.2375 34.4217 52.5482 33.0271 50.6518V50.6532ZM28.3101 49.3044H5.59005V50.3712C5.58741 50.5772 5.66375 50.7764 5.8034 50.9279C5.86361 50.9931 5.93658 51.0453 6.01777 51.0812C6.09896 51.1171 6.18666 51.1359 6.27543 51.1365H29.1015C28.7854 50.5489 28.5206 49.935 28.3101 49.3018V49.3044ZM29.9582 52.5453H6.27543C5.99579 52.5439 5.71941 52.4853 5.46334 52.3729C5.20728 52.2605 4.97698 52.0968 4.78667 51.8919C4.40009 51.4811 4.18539 50.9379 4.18663 50.3738V49.3071H2.42052C2.14081 49.3056 1.86437 49.2468 1.60822 49.1345C1.35207 49.0221 1.12163 48.8585 0.931094 48.6537C0.544921 48.2426 0.330291 47.6996 0.331057 47.1356V10.9334C0.330809 10.8355 0.351161 10.7387 0.39079 10.6492C0.430419 10.5597 0.488437 10.4796 0.561072 10.414L11.8438 0.227348C11.9096 0.155561 11.9897 0.0982708 12.0789 0.0591284C12.168 0.019986 12.2644 -0.00015089 12.3618 8.51233e-07H32.6638C32.9435 0.00134632 33.22 0.0600188 33.4761 0.172396C33.7323 0.284772 33.9627 0.448468 34.1532 0.653375C34.5396 1.06426 34.7543 1.6074 34.7532 2.17147V3.2382H36.5173C36.7969 3.23964 37.0733 3.29836 37.3294 3.41073C37.5854 3.5231 37.8157 3.68675 38.0061 3.89158C38.3936 4.30206 38.6095 4.84518 38.6095 5.40967V36.8256L39.6142 37.4723C40.4067 37.9826 41.2738 38.3666 42.1843 38.6104C43.1198 38.8561 44.084 38.9754 45.0512 38.9651L47.318 38.9558C47.5038 38.9552 47.6822 39.0284 47.8141 39.1593C47.9459 39.2902 48.0205 39.468 48.0214 39.6538V46.1416C48.1547 48.7104 47.032 51.1305 45.3925 53.2827C43.7714 55.3089 41.9063 57.1272 39.8395 58.6963L38.3728 59.8497C38.2473 59.9484 38.092 60.0014 37.9323 60C37.7727 59.9985 37.6184 59.9427 37.4947 59.8417L36.0393 58.6963C33.9725 57.1272 32.1074 55.3089 30.4863 53.2827C30.3009 53.0391 30.1231 52.7924 29.9529 52.5426L29.9582 52.5453ZM37.2047 36.8776V5.41234C37.2073 5.20645 37.1313 5.00733 36.992 4.85564C36.9314 4.79021 36.858 4.73792 36.7763 4.70203C36.6947 4.66613 36.6065 4.64739 36.5173 4.64696H34.7559V38.2591C35.2861 38.0454 35.7948 37.782 36.2753 37.4723L37.2047 36.8723V36.8776ZM29.2709 40.3632L30.829 40.3692C31.9214 40.3813 33.0105 40.2467 34.0672 39.9692C35.1183 39.6882 36.1191 39.2449 37.0334 38.6551L37.9461 38.0684L38.8581 38.6551C39.7725 39.2447 40.7733 39.6881 41.8243 39.9692C42.881 40.2467 43.9701 40.3813 45.0625 40.3692L46.6206 40.3632V46.1356C46.6207 46.1632 46.6225 46.1908 46.626 46.2182C46.74 48.4057 45.7392 50.5232 44.2831 52.4353C42.7329 54.3667 40.9507 56.0998 38.9768 57.5956L37.9461 58.4083L36.9174 57.5943C34.9437 56.0985 33.1617 54.3653 31.6117 52.434C30.1449 50.5098 29.1449 48.377 29.2709 46.1756C29.2709 46.1616 29.2709 46.1482 29.2709 46.1342V40.3599V40.3632ZM7.91953 39.4125C7.82539 39.4154 7.73162 39.3993 7.64379 39.3653C7.55596 39.3313 7.47585 39.28 7.40823 39.2144C7.34061 39.1488 7.28685 39.0703 7.25014 38.9836C7.21342 38.8968 7.1945 38.8036 7.1945 38.7094C7.1945 38.6152 7.21342 38.522 7.25014 38.4353C7.28685 38.3485 7.34061 38.27 7.40823 38.2045C7.47585 38.1389 7.55596 38.0876 7.64379 38.0535C7.73162 38.0195 7.82539 38.0035 7.91953 38.0064H27.1647C27.2589 38.0035 27.3527 38.0195 27.4405 38.0535C27.5283 38.0876 27.6084 38.1389 27.676 38.2045C27.7437 38.27 27.7974 38.3485 27.8341 38.4353C27.8709 38.522 27.8898 38.6152 27.8898 38.7094C27.8898 38.8036 27.8709 38.8968 27.8341 38.9836C27.7974 39.0703 27.7437 39.1488 27.676 39.2144C27.6084 39.28 27.5283 39.3313 27.4405 39.3653C27.3527 39.3993 27.2589 39.4154 27.1647 39.4125H7.91953ZM7.91953 32.1287C7.82539 32.1316 7.73162 32.1155 7.64379 32.0815C7.55596 32.0475 7.47585 31.9962 7.40823 31.9306C7.34061 31.865 7.28685 31.7865 7.25014 31.6998C7.21342 31.6131 7.1945 31.5198 7.1945 31.4256C7.1945 31.3314 7.21342 31.2382 7.25014 31.1515C7.28685 31.0647 7.34061 30.9862 7.40823 30.9207C7.47585 30.8551 7.55596 30.8038 7.64379 30.7698C7.73162 30.7357 7.82539 30.7197 7.91953 30.7226H27.1647C27.2589 30.7197 27.3527 30.7357 27.4405 30.7698C27.5283 30.8038 27.6084 30.8551 27.676 30.9207C27.7437 30.9862 27.7974 31.0647 27.8341 31.1515C27.8709 31.2382 27.8898 31.3314 27.8898 31.4256C27.8898 31.5198 27.8709 31.6131 27.8341 31.6998C27.7974 31.7865 27.7437 31.865 27.676 31.9306C27.6084 31.9962 27.5283 32.0475 27.4405 32.0815C27.3527 32.1155 27.2589 32.1316 27.1647 32.1287H7.91953ZM7.91953 24.8449C7.82539 24.8478 7.73162 24.8317 7.64379 24.7977C7.55596 24.7637 7.47585 24.7124 7.40823 24.6468C7.34061 24.5812 7.28685 24.5028 7.25014 24.416C7.21342 24.3293 7.1945 24.236 7.1945 24.1418C7.1945 24.0477 7.21342 23.9544 7.25014 23.8677C7.28685 23.7809 7.34061 23.7025 7.40823 23.6369C7.47585 23.5713 7.55596 23.52 7.64379 23.486C7.73162 23.4519 7.82539 23.4359 7.91953 23.4388H11.7544C11.9372 23.4444 12.1105 23.521 12.2377 23.6522C12.365 23.7834 12.4362 23.959 12.4362 24.1418C12.4362 24.3246 12.365 24.5003 12.2377 24.6315C12.1105 24.7627 11.9372 24.8393 11.7544 24.8449H7.91953ZM15.7374 24.8449C15.5546 24.8393 15.3813 24.7627 15.254 24.6315C15.1268 24.5003 15.0556 24.3246 15.0556 24.1418C15.0556 23.959 15.1268 23.7834 15.254 23.6522C15.3813 23.521 15.5546 23.4444 15.7374 23.4388H27.1647C27.2589 23.4359 27.3527 23.4519 27.4405 23.486C27.5283 23.52 27.6084 23.5713 27.676 23.6369C27.7437 23.7025 27.7974 23.7809 27.8341 23.8677C27.8709 23.9544 27.8898 24.0477 27.8898 24.1418C27.8898 24.236 27.8709 24.3293 27.8341 24.416C27.7974 24.5028 27.7437 24.5812 27.676 24.6468C27.6084 24.7124 27.5283 24.7637 27.4405 24.7977C27.3527 24.8317 27.2589 24.8478 27.1647 24.8449H15.7374ZM10.8831 17.5611C10.7889 17.564 10.6951 17.548 10.6073 17.5139C10.5195 17.4799 10.4394 17.4286 10.3718 17.363C10.3041 17.2974 10.2504 17.219 10.2137 17.1322C10.1769 17.0455 10.158 16.9522 10.158 16.8581C10.158 16.7639 10.1769 16.6706 10.2137 16.5839C10.2504 16.4971 10.3041 16.4187 10.3718 16.3531C10.4394 16.2875 10.5195 16.2362 10.6073 16.2022C10.6951 16.1682 10.7889 16.1521 10.8831 16.155H27.1647C27.2589 16.1521 27.3527 16.1682 27.4405 16.2022C27.5283 16.2362 27.6084 16.2875 27.676 16.3531C27.7437 16.4187 27.7974 16.4971 27.8341 16.5839C27.8709 16.6706 27.8898 16.7639 27.8898 16.8581C27.8898 16.9522 27.8709 17.0455 27.8341 17.1322C27.7974 17.219 27.7437 17.2974 27.676 17.363C27.6084 17.4286 27.5283 17.4799 27.4405 17.5139C27.3527 17.548 27.2589 17.564 27.1647 17.5611H10.8831ZM11.6584 2.28148V9.76261C11.6576 9.88612 11.6081 10.0043 11.5208 10.0917C11.4334 10.179 11.3152 10.2284 11.1917 10.2293H2.85522L11.6584 2.28148Z" fill="#0CB4C4"></path></svg>