<svg xmlns="http://www.w3.org/2000/svg" xmlns:xlink="http://www.w3.org/1999/xlink" version="1.1" id="Layer_1" x="0px" y="0px" width="69.261px" height="60px" viewBox="115.37 120 69.261 60" enable-background="new 115.37 120 69.261 60" xml:space="preserve"><title>Data-data integration-data management-integration</title><g><path fill="#0CB4C4" d="M126.78,166.054c-5.098,0-11.145-0.865-11.41-3.304l0.002-25.521c0-3.124,9.503-3.281,11.408-3.281 s11.409,0.157,11.409,3.281v25.542C137.9,165.188,131.861,166.054,126.78,166.054z M117.291,162.477l0.065,0.06 c0.719,0.663,4.117,1.599,9.424,1.599c5.308,0,8.707-0.936,9.425-1.599l0.065-0.06v-2.81l-0.275,0.107 c-3.032,1.191-8.208,1.251-9.215,1.251c-1.002,0-6.153-0.06-9.215-1.251l-0.274-0.106V162.477z M117.291,157.449l0.065,0.059 c0.719,0.664,4.117,1.599,9.424,1.599c5.308,0,8.707-0.935,9.425-1.599l0.065-0.059v-2.823l-0.275,0.109 c-2.924,1.16-7.792,1.251-9.215,1.251c-1.002,0-6.153-0.061-9.215-1.252l-0.274-0.105V157.449z M117.291,152.408l0.063,0.061 c0.699,0.659,4.086,1.588,9.426,1.588c5.316,0,8.712-0.929,9.425-1.587l0.065-0.06v-2.811l-0.275,0.109 c-2.927,1.161-7.793,1.252-9.215,1.252c-1.002,0-6.153-0.061-9.215-1.252l-0.274-0.107V152.408z M117.291,147.383l0.065,0.06 c0.719,0.664,4.118,1.598,9.424,1.598c5.307,0,8.707-0.934,9.425-1.598l0.065-0.06v-2.81l-0.275,0.108 c-3.031,1.192-8.208,1.251-9.215,1.251c-1.001,0-6.152-0.06-9.215-1.252l-0.274-0.106V147.383z M117.291,142.413l0.065,0.06 c0.719,0.664,4.117,1.599,9.424,1.599c5.308,0,8.707-0.935,9.425-1.599l0.065-0.06v-3.152l-0.271,0.101 c-2.787,1.037-7.375,1.148-9.219,1.148c-1.854,0-6.462-0.111-9.217-1.147l-0.272-0.104V142.413z M126.78,135.867 c-4.754,0-7.838,0.635-9.035,1.179l-0.422,0.193l0.429,0.177c1.311,0.542,4.46,1.176,9.028,1.176c4.734,0,7.826-0.635,9.035-1.178 l0.425-0.192l-0.431-0.178C134.499,136.501,131.348,135.867,126.78,135.867z"></path><path fill="#0CB4C4" d="M173.222,166.054c-5.098,0-11.145-0.865-11.409-3.304l0.001-25.521c0-2.42,5.893-3.281,11.408-3.281 c1.905,0,11.409,0.157,11.409,3.281v25.542C184.342,165.188,178.303,166.054,173.222,166.054z M163.732,162.477l0.064,0.06 c0.719,0.663,4.117,1.599,9.425,1.599s8.706-0.936,9.425-1.599l0.065-0.06v-2.81l-0.275,0.107 c-3.032,1.191-8.208,1.251-9.215,1.251c-1.002,0-6.153-0.06-9.215-1.251l-0.274-0.106V162.477z M163.732,157.449l0.064,0.059 c0.719,0.664,4.117,1.599,9.425,1.599s8.706-0.935,9.425-1.599l0.065-0.059v-2.823l-0.276,0.109 c-2.924,1.16-7.792,1.251-9.214,1.251c-1.002,0-6.153-0.061-9.215-1.252l-0.274-0.105V157.449z M163.732,152.41l0.064,0.06 c0.713,0.658,4.108,1.587,9.425,1.587s8.712-0.929,9.425-1.587l0.065-0.06v-2.811l-0.276,0.109 c-2.926,1.161-7.793,1.252-9.214,1.252c-1.002,0-6.153-0.061-9.215-1.252l-0.274-0.107V152.41z M163.732,147.383l0.064,0.06 c0.719,0.664,4.118,1.598,9.425,1.598s8.706-0.934,9.425-1.598l0.065-0.06v-2.81l-0.275,0.108 c-3.031,1.192-8.208,1.251-9.215,1.251c-1.002,0-6.152-0.06-9.215-1.252l-0.274-0.106V147.383z M163.732,142.355l0.064,0.06 c0.719,0.664,4.117,1.599,9.425,1.599s8.706-0.935,9.425-1.599l0.065-0.06v-3.094l-0.271,0.101 c-2.787,1.037-7.376,1.148-9.219,1.148c-1.854,0-6.461-0.111-9.217-1.147l-0.272-0.104V142.355z M173.222,135.867 c-4.755,0-7.839,0.635-9.035,1.179l-0.422,0.193l0.429,0.177c1.31,0.542,4.46,1.176,9.028,1.176c4.734,0,7.825-0.635,9.034-1.178 l0.425-0.192l-0.431-0.178C180.941,136.501,177.791,135.867,173.222,135.867z"></path><path fill="#0CB4C4" d="M163.934,131.222c-0.528,0-0.959-0.431-0.959-0.959c0-0.53,0.431-0.959,0.959-0.959h3.77l-0.37-0.348 c-4.794-4.519-11.064-7.008-17.653-7.008c-6.868,0-13.329,2.672-18.189,7.522c-0.18,0.184-0.419,0.286-0.673,0.29 c-0.25-0.009-0.498-0.124-0.671-0.316c-0.378-0.38-0.378-0.987-0.007-1.361c5.222-5.211,12.163-8.082,19.544-8.082 c6.971,0,13.633,2.604,18.758,7.334l0.338,0.312v-3.188c0-0.53,0.43-0.959,0.959-0.959c0.528,0,0.959,0.43,0.959,0.959v6.765 H163.934z"></path><path fill="#0CB4C4" d="M150.318,180c-6.971,0-13.633-2.604-18.758-7.334l-0.338-0.312v3.188c0,0.528-0.43,0.959-0.959,0.959 c-0.529,0-0.959-0.431-0.959-0.959v-6.766h6.765c0.53,0,0.959,0.431,0.959,0.96c0,0.528-0.43,0.959-0.959,0.959h-3.77l0.369,0.349 c4.797,4.52,11.065,7.009,17.652,7.009c0.001,0,0.002,0,0.002,0c6.799,0,13.194-2.617,18.037-7.372l0.141-0.105 c0.175-0.148,0.396-0.231,0.625-0.231c0.229,0,0.45,0.083,0.624,0.231c0.194,0.166,0.313,0.398,0.332,0.654 s-0.061,0.504-0.228,0.698C164.641,177.129,157.699,180,150.318,180z"></path></g></svg>