<svg xmlns="http://www.w3.org/2000/svg" xmlns:xlink="http://www.w3.org/1999/xlink" version="1.1" id="Layer_1" x="0px" y="0px" width="51.2px" height="60px" viewBox="0 0 51.2 60" style="enable-background:new 0 0 51.2 60;" xml:space="preserve"><g><g><g><path style="fill:#0CB4C4;" d="M44.328,50.856h-28.88c-3.503,0-6.354-2.851-6.354-6.342V6.839c0-3.497,2.851-6.348,6.354-6.348 h28.88c3.504,0,6.362,2.857,6.362,6.348v37.669C50.69,48.006,47.832,50.856,44.328,50.856z M15.442,1.907 c-2.721,0-4.945,2.212-4.945,4.938v37.67c0,2.722,2.218,4.938,4.945,4.938h28.88c2.732,0,4.943-2.216,4.943-4.938V6.839 c0-2.721-2.204-4.938-4.943-4.938h-28.88V1.907z"></path><path style="fill:#0CB4C4;" d="M44.328,51.349h-28.88c-3.775,0-6.846-3.065-6.846-6.834V6.839C8.601,3.068,11.672,0,15.447,0 h28.88c3.779,0,6.854,3.068,6.854,6.839v37.669C51.181,48.28,48.107,51.349,44.328,51.349z M15.447,0.983 c-3.232,0-5.862,2.627-5.862,5.856v37.675c0,3.226,2.63,5.85,5.862,5.85h28.88c3.237,0,5.87-2.627,5.87-5.855V6.839 c0-3.229-2.633-5.856-5.87-5.856H15.447z M44.323,49.944h-28.88c-2.998,0-5.437-2.436-5.437-5.43V6.845 c0-2.829,2.177-5.159,4.945-5.408V1.415l0.492-0.005h28.88c2.997,0,5.436,2.435,5.436,5.429v37.675 C49.758,47.509,47.32,49.944,44.323,49.944z M15.442,2.398c-2.455,0-4.453,1.995-4.453,4.446v37.67 c0,2.451,1.998,4.445,4.453,4.445h28.88c2.455,0,4.451-1.994,4.451-4.445V6.839c0-2.452-1.996-4.446-4.451-4.446L15.442,2.398z"></path></g></g><g><g><path style="fill:#0CB4C4;" d="M35.746,59.508H6.865c-3.498,0-6.354-2.838-6.354-6.353V15.503c0-3.515,2.857-6.36,6.354-6.36 v1.417c-2.727,0-4.945,2.21-4.945,4.95v37.651c0,2.726,2.211,4.949,4.945,4.949h28.881c2.719,0,4.949-2.216,4.949-4.949h1.409 C42.099,56.67,39.249,59.508,35.746,59.508z"></path><path style="fill:#0CB4C4;" d="M35.746,60H6.865c-3.775,0-6.846-3.071-6.846-6.845V15.503c0-3.778,3.071-6.852,6.846-6.852h0.492 v2.4H6.865c-2.456,0-4.453,2-4.453,4.458v37.651c0,2.458,1.998,4.458,4.453,4.458h28.881c2.458,0,4.458-2,4.458-4.458v-0.492 h2.394l-0.001,0.493C42.591,56.932,39.517,60,35.746,60z M6.373,9.655c-3.003,0.251-5.37,2.778-5.37,5.848v37.652 c0,3.232,2.63,5.861,5.862,5.861h28.881c3.065,0,5.59-2.364,5.846-5.364h-0.427c-0.249,2.771-2.585,4.95-5.419,4.95H6.865 c-2.998,0-5.437-2.44-5.437-5.441V15.51c0-2.835,2.177-5.17,4.945-5.419V9.655z"></path></g></g><g><g><path style="fill:#0CB4C4;" d="M41.396,13.087H18.374c-0.392,0-0.703-0.324-0.703-0.702c0-0.396,0.317-0.708,0.703-0.708h23.022 c0.393,0,0.703,0.312,0.703,0.708C42.099,12.771,41.783,13.087,41.396,13.087z"></path><path style="fill:#0CB4C4;" d="M41.396,13.579H18.374c-0.659,0-1.195-0.536-1.195-1.194c0-0.662,0.536-1.2,1.195-1.2h23.022 c0.671,0,1.195,0.527,1.195,1.2C42.591,13.043,42.055,13.579,41.396,13.579z M18.374,12.169c-0.118,0-0.211,0.095-0.211,0.216 c0,0.102,0.084,0.21,0.211,0.21h23.022c0.114,0,0.212-0.096,0.212-0.21c0-0.123-0.092-0.216-0.212-0.216H18.374z"></path></g></g><g><g><path style="fill:#0CB4C4;" d="M32.119,21.49H18.374c-0.392,0-0.703-0.31-0.703-0.694c0-0.385,0.317-0.715,0.703-0.715h13.745 c0.385,0,0.701,0.33,0.701,0.715C32.82,21.18,32.497,21.49,32.119,21.49z"></path><path style="fill:#0CB4C4;" d="M32.119,21.982H18.374c-0.659,0-1.195-0.532-1.195-1.187c0-0.666,0.536-1.208,1.195-1.208h13.745 c0.658,0,1.192,0.542,1.192,1.208C33.311,21.45,32.777,21.982,32.119,21.982z M18.374,20.572c-0.111,0-0.211,0.106-0.211,0.224 c0,0.113,0.093,0.203,0.211,0.203h13.745c0.111,0,0.209-0.095,0.209-0.203c0-0.117-0.1-0.224-0.209-0.224H18.374z"></path></g></g><g><g><path style="fill:#0CB4C4;" d="M41.396,28.622H18.374c-0.392,0-0.703-0.324-0.703-0.709c0-0.384,0.317-0.701,0.703-0.701h23.022 c0.393,0,0.703,0.317,0.703,0.701C42.099,28.298,41.783,28.622,41.396,28.622z"></path><path style="fill:#0CB4C4;" d="M41.396,29.113H18.374c-0.659,0-1.195-0.539-1.195-1.201c0-0.658,0.536-1.193,1.195-1.193h23.022 c0.659,0,1.195,0.535,1.195,1.193C42.591,28.575,42.055,29.113,41.396,29.113z M18.374,27.703c-0.114,0-0.211,0.096-0.211,0.209 c0,0.118,0.097,0.217,0.211,0.217h23.022c0.112,0,0.212-0.102,0.212-0.217s-0.096-0.209-0.212-0.209H18.374z"></path></g></g><g><g><path style="fill:#0CB4C4;" d="M32.119,37.031H18.374c-0.392,0-0.703-0.323-0.703-0.695c0-0.397,0.317-0.716,0.703-0.716h13.745 c0.385,0,0.701,0.318,0.701,0.716C32.82,36.708,32.497,37.031,32.119,37.031z"></path><path style="fill:#0CB4C4;" d="M32.119,37.523H18.374c-0.659,0-1.195-0.532-1.195-1.188c0-0.666,0.536-1.208,1.195-1.208h13.745 c0.658,0,1.192,0.542,1.192,1.208C33.311,36.979,32.765,37.523,32.119,37.523z M18.374,36.112c-0.116,0-0.211,0.101-0.211,0.224 c0,0.096,0.086,0.203,0.211,0.203h13.745c0.105,0,0.209-0.101,0.209-0.203c0-0.123-0.094-0.224-0.209-0.224H18.374z"></path></g></g></g></svg>