<svg width="67" height="60" viewBox="0 0 67 60" fill="none" xmlns="http://www.w3.org/2000/svg"><path d="M33.872 32.9305V30.9227H36.9886C37.5218 30.9227 38.0064 30.6525 38.284 30.1994C38.5616 29.747 38.5829 29.1933 38.3413 28.7167L33.6825 19.6069C34.4572 14.702 33.0568 9.72596 29.8359 5.94764C26.6135 2.16785 21.9157 0 16.947 0C7.60217 0 0 7.60217 0 16.947C0 21.5023 1.76689 25.7469 4.97093 28.8974V40.977C4.97093 41.8127 5.65096 42.492 6.48593 42.492H26.9777C27.8149 42.492 28.4964 41.8119 28.4964 40.977V37.2633H29.534C31.8444 37.2633 33.8712 35.2386 33.8712 32.9298L33.872 32.9305ZM32.2431 32.9305C32.2431 34.3464 30.9521 35.6352 29.534 35.6352H28.3826C27.5468 35.6352 26.8676 36.3167 26.8676 37.1538V40.8639H6.59976V28.8489C6.59976 28.4391 6.44407 28.0668 6.14372 27.7664C3.23268 24.9163 1.62956 21.0741 1.62956 16.9477C1.62956 8.50104 8.50177 1.62883 16.9485 1.62883C21.4399 1.62883 25.686 3.58812 28.5977 7.0044C31.5168 10.4287 32.7822 14.9414 32.0683 19.3946C32.0206 19.7134 32.0698 20.0211 32.2182 20.3177L36.808 29.2939H33.7589C32.9232 29.2939 32.2439 29.9754 32.2439 30.8126V32.9305H32.2431ZM17.3098 9.49904C12.7207 9.49904 8.98719 13.234 8.98719 17.8253C8.98719 20.5358 10.2767 23.0158 12.4226 24.5646C12.1237 24.9487 11.9437 25.4297 11.9437 25.9533C11.9437 26.504 12.142 27.0093 12.4703 27.4014C12.142 27.7951 11.9437 28.3003 11.9437 28.8526C11.9437 29.993 12.7897 30.9367 13.8862 31.0931C13.881 31.6424 14.036 32.1903 14.3473 32.6691C14.8746 33.4798 15.7647 33.9637 16.7274 33.9637H17.8899C18.8563 33.9637 19.7479 33.4783 20.2751 32.6661C20.585 32.1881 20.7393 31.6409 20.7334 31.0931C21.8305 30.936 22.678 29.993 22.678 28.8526C22.678 28.301 22.4797 27.7951 22.1507 27.4014C22.4797 27.0086 22.678 26.504 22.678 25.9533C22.678 25.4297 22.4981 24.9479 22.1985 24.5638C24.345 23.0136 25.6353 20.5344 25.6353 17.8246C25.6353 13.2333 21.9003 9.49831 17.309 9.49831L17.3098 9.49904ZM20.4132 25.3158C20.7584 25.3158 21.0506 25.6081 21.0506 25.9533C21.0506 26.2962 20.7591 26.587 20.4132 26.587H14.2063C13.8568 26.587 13.5726 26.3028 13.5726 25.9533C13.5726 25.6081 13.8627 25.3158 14.2063 25.3158H20.4132ZM17.8914 32.3349H16.7289C16.3132 32.3349 15.9431 32.133 15.714 31.7805C15.5803 31.5749 15.515 31.3472 15.515 31.1181H19.1068C19.1075 31.3472 19.0429 31.5741 18.91 31.779C18.6808 32.1322 18.31 32.3349 17.8914 32.3349ZM20.4132 29.4893H14.2063C13.8634 29.4893 13.5726 29.1977 13.5726 28.8518C13.5726 28.5059 13.8627 28.2144 14.2063 28.2144H20.4132C20.7584 28.2144 21.0506 28.5059 21.0506 28.8518C21.0506 29.1977 20.7591 29.4893 20.4132 29.4893ZM20.5366 23.6929C20.4955 23.6907 20.4551 23.687 20.4132 23.687H18.1242V19.4864H20.4558C20.9052 19.4864 21.2702 19.1222 21.2702 18.672C21.2702 18.2219 20.906 17.8576 20.4558 17.8576H14.1645C13.715 17.8576 13.3501 18.2219 13.3501 18.672C13.3501 19.1222 13.7143 19.4864 14.1645 19.4864H16.4961V23.687H14.2071C14.1667 23.687 14.127 23.6907 14.0874 23.6929C11.9408 22.5164 10.6167 20.2891 10.6167 17.8246C10.6167 14.1314 13.6196 11.1271 17.3105 11.1271C21.0014 11.1271 24.0079 14.1314 24.0079 17.8246C24.0079 20.2869 22.6839 22.5142 20.5366 23.6929ZM16.4961 7.30549V5.14938C16.4961 4.69922 16.8603 4.33497 17.3105 4.33497C17.7607 4.33497 18.1249 4.69922 18.1249 5.14938V7.30549C18.1249 7.75565 17.7607 8.1199 17.3105 8.1199C16.8603 8.1199 16.4961 7.75565 16.4961 7.30549ZM21.865 8.3079L22.9431 6.4404C23.1678 6.05045 23.6657 5.91753 24.0557 6.14225C24.4449 6.36696 24.5785 6.86486 24.3538 7.25481L23.2758 9.12231C23.1252 9.38374 22.8513 9.52988 22.57 9.52988C22.432 9.52988 22.2917 9.49463 22.1639 9.42046C21.7747 9.19575 21.6411 8.69785 21.8658 8.3079H21.865ZM28.6954 12.1927L26.8279 13.2707C26.6994 13.3449 26.5599 13.3802 26.4218 13.3802C26.1405 13.3802 25.8666 13.234 25.7161 12.9726C25.4914 12.5834 25.625 12.0847 26.0142 11.86L27.8817 10.782C28.2717 10.5573 28.7696 10.6909 28.9943 11.0801C29.219 11.4693 29.0846 11.968 28.6954 12.1927ZM30.8008 17.8253C30.8008 18.2755 30.4366 18.6397 29.9864 18.6397H27.8303C27.3809 18.6397 27.0159 18.2755 27.0159 17.8253C27.0159 17.3751 27.3801 17.0109 27.8303 17.0109H29.9864C30.4359 17.0109 30.8008 17.3751 30.8008 17.8253ZM7.60658 17.8253C7.60658 18.2755 7.24233 18.6397 6.79216 18.6397H4.63973C4.1903 18.6397 3.82532 18.2755 3.82532 17.8253C3.82532 17.3751 4.18957 17.0109 4.63973 17.0109H6.79216C7.2416 17.0109 7.60658 17.3751 7.60658 17.8253ZM8.90641 12.9733C8.75586 13.234 8.48194 13.3802 8.20068 13.3802C8.06262 13.3802 7.92235 13.3449 7.79384 13.2707L5.93002 12.1927C5.5408 11.9672 5.40788 11.4693 5.6326 11.0801C5.85805 10.6909 6.35595 10.558 6.74516 10.7827L8.60899 11.8608C8.9982 12.0862 9.13112 12.5841 8.90641 12.9733ZM10.2716 7.25408C10.0476 6.86413 10.1813 6.36623 10.5712 6.14225C10.9612 5.91826 11.4591 6.05192 11.683 6.44187L12.7574 8.30936C12.9814 8.69931 12.8478 9.19721 12.4578 9.4212C12.33 9.49463 12.1905 9.52988 12.0524 9.52988C11.7704 9.52988 11.4965 9.38374 11.346 9.12158L10.2716 7.25408ZM47.225 40.8756H41.8002C41.1297 40.8756 40.6428 41.5064 40.6428 42.3752V58.4042C40.6428 59.273 41.1297 59.9038 41.8002 59.9038H47.225C47.8932 59.9038 48.3779 59.273 48.3779 58.4042V42.3752C48.3779 41.5064 47.8932 40.8756 47.225 40.8756ZM46.7498 58.275H42.2716V42.5037H46.7498V58.275ZM65.5988 36.5972H60.1777C59.5396 36.5972 59.0211 37.1164 59.0211 37.7546V58.8426C59.0211 59.4808 59.5403 60 60.1777 60H65.5988C66.237 60 66.7562 59.4808 66.7562 58.8426V37.7546C66.7562 37.1164 66.237 36.5972 65.5988 36.5972ZM65.1274 58.3712H60.6492V38.226H65.1274V58.3712ZM38.0343 49.619H32.6096C31.9736 49.619 31.4566 50.136 31.4566 50.7719V58.7464C31.4566 59.3846 31.9736 59.9031 32.6096 59.9031H38.0343C38.6725 59.9031 39.1917 59.3839 39.1917 58.7464V50.7719C39.1917 50.136 38.6725 49.619 38.0343 49.619ZM37.5629 58.2742H33.0847V51.2471H37.5629V58.2742ZM56.4119 45.2444H50.9871C50.3401 45.2444 49.8342 45.8267 49.8342 46.5706V58.5724C49.8342 59.3185 50.3409 59.9031 50.9871 59.9031H56.4119C57.0589 59.9031 57.5648 59.3185 57.5648 58.5724V46.5706C57.5648 45.8267 57.0581 45.2444 56.4119 45.2444ZM55.9368 58.2742H51.4623V46.8732H55.9368V58.2742ZM60.8218 32.5905C61.4232 32.9628 62.1311 33.178 62.889 33.178C65.062 33.178 66.8296 31.4104 66.8296 29.2374C66.8296 27.0644 65.062 25.2967 62.889 25.2967C60.716 25.2967 58.9484 27.0644 58.9484 29.2374C58.9484 30.0643 59.2054 30.8324 59.6424 31.4676L55.8508 35.2592C55.2325 34.8545 54.4945 34.6188 53.7021 34.6188C52.638 34.6188 51.6715 35.0433 50.9607 35.7306L48.1627 33.8433C48.3485 33.3865 48.4513 32.8872 48.4513 32.3643C48.4513 30.1913 46.6837 28.4237 44.5107 28.4237C42.3377 28.4237 40.5701 30.1913 40.5701 32.3643C40.5701 33.1934 40.8286 33.9637 41.2678 34.599L37.3859 38.6916C36.7859 38.3215 36.0795 38.107 35.3238 38.107C33.1508 38.107 31.3832 39.8769 31.3832 42.0513C31.3832 44.2258 33.1508 45.992 35.3238 45.992C37.4968 45.992 39.2644 44.2243 39.2644 42.0513C39.2644 41.2208 39.0059 40.4497 38.566 39.8137L42.4479 35.7204C43.0486 36.0905 43.7543 36.3049 44.51 36.3049C45.5741 36.3049 46.5405 35.8804 47.2499 35.1923L50.0464 37.0789C49.8599 37.5372 49.7556 38.038 49.7556 38.5631C49.7556 40.7361 51.5254 42.5037 53.6999 42.5037C55.8743 42.5037 57.6405 40.7361 57.6405 38.5631C57.6405 37.7692 57.404 37.0305 56.9994 36.4107L60.8196 32.5905H60.8218ZM62.889 26.9248C64.1639 26.9248 65.2015 27.9618 65.2015 29.2366C65.2015 30.5115 64.1646 31.5492 62.889 31.5492C61.6134 31.5492 60.5772 30.5115 60.5772 29.2366C60.5772 27.9618 61.6141 26.9248 62.889 26.9248ZM35.3245 44.3631C34.0497 44.3631 33.012 43.3255 33.012 42.0506C33.012 40.7757 34.0489 39.7344 35.3245 39.7344C36.6001 39.7344 37.6363 40.7735 37.6363 42.0506C37.6363 43.3277 36.5994 44.3631 35.3245 44.3631ZM44.5115 34.6754C43.2366 34.6754 42.1989 33.6377 42.1989 32.3628C42.1989 31.088 43.2359 30.0503 44.5115 30.0503C45.7871 30.0503 46.8233 31.088 46.8233 32.3628C46.8233 33.6377 45.7863 34.6754 44.5115 34.6754ZM53.7021 40.8741C52.425 40.8741 51.3859 39.8365 51.3859 38.5616C51.3859 37.2868 52.425 36.2454 53.7021 36.2454C54.9791 36.2454 56.0146 37.2846 56.0146 38.5616C56.0146 39.8387 54.9777 40.8741 53.7021 40.8741Z" fill="#0CB4C4"></path></svg>