<svg xmlns="http://www.w3.org/2000/svg" xmlns:xlink="http://www.w3.org/1999/xlink" version="1.1" id="Layer_1" x="0px" y="0px" width="60px" height="60px" viewBox="0 0 60 60" style="enable-background:new 0 0 60 60;" xml:space="preserve"><g><path style="fill:#0CB4C4;" d="M1,60h58c0.552,0,1-0.448,1-1V1c0-0.552-0.448-1-1-1H1C0.448,0,0,0.448,0,1v58 C0,59.552,0.448,60,1,60z M2,2h56v56H2V2z"></path><path style="fill:#0CB4C4;" d="M55,4H5C4.448,4,4,4.448,4,5v20c0,0.552,0.448,1,1,1h50c0.552,0,1-0.448,1-1V5 C56,4.448,55.552,4,55,4z M54,24H6V6h48V24z"></path><path style="fill:#0CB4C4;" d="M30,18c-0.552,0-1-0.449-1-1h-2c0,1.302,0.839,2.402,2,2.815V21h2v-1.185 c1.161-0.413,2-1.514,2-2.815c0-0.266-0.104-0.521-0.293-0.707l-3.645-3.645C29.206,12.271,29.573,12,30,12c0.552,0,1,0.449,1,1h2 c0-1.302-0.839-2.402-2-2.815V9h-2v1.185c-1.161,0.413-2,1.514-2,2.815c0,0.266,0.104,0.521,0.293,0.707l3.645,3.645 C30.794,17.729,30.427,18,30,18z"></path><path style="fill:#0CB4C4;" d="M18,18c-0.552,0-1-0.449-1-1h-2c0,1.302,0.838,2.402,2,2.815V21h2v-1.185 c1.162-0.413,2-1.514,2-2.815c0-0.266-0.104-0.521-0.293-0.707l-3.645-3.645C17.206,12.271,17.573,12,18,12c0.552,0,1,0.449,1,1h2 c0-1.302-0.838-2.402-2-2.815V9h-2v1.185c-1.162,0.413-2,1.514-2,2.815c0,0.266,0.104,0.521,0.293,0.707l3.645,3.645 C18.794,17.729,18.427,18,18,18z"></path><path style="fill:#0CB4C4;" d="M11,28H5c-0.552,0-1,0.448-1,1v6c0,0.552,0.448,1,1,1h6c0.552,0,1-0.448,1-1v-6 C12,28.448,11.552,28,11,28z M10,34H6v-4h4V34z"></path><path style="fill:#0CB4C4;" d="M22,28h-6c-0.552,0-1,0.448-1,1v6c0,0.552,0.448,1,1,1h6c0.552,0,1-0.448,1-1v-6 C23,28.448,22.552,28,22,28z M21,34h-4v-4h4V34z"></path><path style="fill:#0CB4C4;" d="M33,28h-6c-0.552,0-1,0.448-1,1v6c0,0.552,0.448,1,1,1h6c0.552,0,1-0.448,1-1v-6 C34,28.448,33.552,28,33,28z M32,34h-4v-4h4V34z"></path><path style="fill:#0CB4C4;" d="M38,36h6c0.552,0,1-0.448,1-1v-6c0-0.552-0.448-1-1-1h-6c-0.552,0-1,0.448-1,1v6 C37,35.552,37.448,36,38,36z M39,30h4v4h-4V30z"></path><path style="fill:#0CB4C4;" d="M11,38H5c-0.552,0-1,0.448-1,1v6c0,0.552,0.448,1,1,1h6c0.552,0,1-0.448,1-1v-6 C12,38.448,11.552,38,11,38z M10,44H6v-4h4V44z"></path><path style="fill:#0CB4C4;" d="M22,38h-6c-0.552,0-1,0.448-1,1v6c0,0.552,0.448,1,1,1h6c0.552,0,1-0.448,1-1v-6 C23,38.448,22.552,38,22,38z M21,44h-4v-4h4V44z"></path><path style="fill:#0CB4C4;" d="M33,38h-6c-0.552,0-1,0.448-1,1v6c0,0.552,0.448,1,1,1h6c0.552,0,1-0.448,1-1v-6 C34,38.448,33.552,38,33,38z M32,44h-4v-4h4V44z"></path><path style="fill:#0CB4C4;" d="M37,45c0,0.552,0.448,1,1,1h6c0.552,0,1-0.448,1-1v-6c0-0.552-0.448-1-1-1h-6c-0.552,0-1,0.448-1,1 V45z M39,40h4v4h-4V40z"></path><path style="fill:#0CB4C4;" d="M11,48H5c-0.552,0-1,0.448-1,1v6c0,0.552,0.448,1,1,1h6c0.552,0,1-0.448,1-1v-6 C12,48.448,11.552,48,11,48z M10,54H6v-4h4V54z"></path><path style="fill:#0CB4C4;" d="M22,48h-6c-0.552,0-1,0.448-1,1v6c0,0.552,0.448,1,1,1h6c0.552,0,1-0.448,1-1v-6 C23,48.448,22.552,48,22,48z M21,54h-4v-4h4V54z"></path><path style="fill:#0CB4C4;" d="M33,48h-6c-0.552,0-1,0.448-1,1v6c0,0.552,0.448,1,1,1h6c0.552,0,1-0.448,1-1v-6 C34,48.448,33.552,48,33,48z M32,54h-4v-4h4V54z"></path><path style="fill:#0CB4C4;" d="M55,48H38c-0.552,0-1,0.448-1,1v6c0,0.552,0.448,1,1,1h17c0.552,0,1-0.448,1-1v-6 C56,48.448,55.552,48,55,48z M54,54H39v-4h15V54z"></path><path style="fill:#0CB4C4;" d="M55,28h-6c-0.552,0-1,0.448-1,1v6c0,0.552,0.448,1,1,1h6c0.552,0,1-0.448,1-1v-6 C56,28.448,55.552,28,55,28z M54,34h-4v-4h4V34z"></path><path style="fill:#0CB4C4;" d="M55,38h-6c-0.552,0-1,0.448-1,1v6c0,0.552,0.448,1,1,1h6c0.552,0,1-0.448,1-1v-6 C56,38.448,55.552,38,55,38z M54,44h-4v-4h4V44z"></path><rect x="40" y="10" style="fill:#0CB4C4;" width="2" height="2"></rect><rect x="45" y="18" style="fill:#0CB4C4;" width="2" height="2"></rect><rect x="37.799" y="13.502" transform="matrix(-0.6139 0.7894 -0.7894 -0.6139 81.6528 -10.9331)" style="fill:#0CB4C4;" width="11.402" height="1.999"></rect></g></svg>