<svg width="49" height="60" viewBox="0 0 49 60" fill="none" xmlns="http://www.w3.org/2000/svg"><path d="M48.0253 15.6113L42.8093 10.3953V0.833333C42.8093 0.61232 42.7215 0.400358 42.5653 0.244078C42.409 0.0877974 42.197 0 41.976 0H0.830666C0.610115 0.000705768 0.398838 0.0888148 0.243134 0.245019C0.0874302 0.401223 -1.12922e-06 0.612781 0 0.833333V54.3587C0 54.5797 0.0877974 54.7916 0.244078 54.9479C0.400358 55.1042 0.61232 55.192 0.833333 55.192H5.46V59.1667C5.46 59.3872 5.54743 59.5988 5.70313 59.755C5.85884 59.9112 6.07012 59.9993 6.29067 60H47.436C47.657 60 47.869 59.9122 48.0253 59.7559C48.1815 59.5996 48.2693 59.3877 48.2693 59.1667V16.2C48.2692 15.9792 48.1814 15.7675 48.0253 15.6113ZM37.71 7.65333L45.424 15.3673H37.71V7.65333ZM1.66667 53.5253V1.66667H41.1427V8.72867L37.4667 5.052C37.3103 4.89585 37.0983 4.80811 36.8773 4.808H6.29067C6.06965 4.808 5.85769 4.8958 5.70141 5.05208C5.54513 5.20836 5.45733 5.42032 5.45733 5.64133V53.5253H1.66667ZM7.12667 58.3333V6.47467H36.0433V16.2C36.0433 16.421 36.1311 16.633 36.2874 16.7893C36.4437 16.9455 36.6557 17.0333 36.8767 17.0333H46.6V58.3333H7.12667ZM42.2667 35.916C42.2667 36.137 42.1789 36.349 42.0226 36.5053C41.8663 36.6615 41.6543 36.7493 41.4333 36.7493H12.292C12.071 36.7493 11.859 36.6615 11.7027 36.5053C11.5465 36.349 11.4587 36.137 11.4587 35.916C11.4587 35.695 11.5465 35.483 11.7027 35.3267C11.859 35.1705 12.071 35.0827 12.292 35.0827H41.4347C41.6555 35.083 41.8671 35.171 42.0231 35.3272C42.1791 35.4835 42.2667 35.6952 42.2667 35.916ZM42.2667 42.94C42.2667 43.161 42.1789 43.373 42.0226 43.5293C41.8663 43.6855 41.6543 43.7733 41.4333 43.7733H12.292C12.071 43.7733 11.859 43.6855 11.7027 43.5293C11.5465 43.373 11.4587 43.161 11.4587 42.94C11.4587 42.719 11.5465 42.507 11.7027 42.3507C11.859 42.1945 12.071 42.1067 12.292 42.1067H41.4347C41.544 42.1068 41.6523 42.1284 41.7533 42.1703C41.8543 42.2122 41.946 42.2736 42.0233 42.351C42.1005 42.4284 42.1618 42.5202 42.2035 42.6213C42.2453 42.7224 42.2668 42.8307 42.2667 42.94ZM42.2667 49.9633C42.2668 50.0728 42.2453 50.1812 42.2034 50.2823C42.1616 50.3835 42.1002 50.4754 42.0228 50.5528C41.9454 50.6302 41.8535 50.6916 41.7523 50.7334C41.6512 50.7753 41.5428 50.7968 41.4333 50.7967H24.26C24.039 50.7967 23.827 50.7089 23.6707 50.5526C23.5145 50.3963 23.4267 50.1843 23.4267 49.9633C23.4267 49.7423 23.5145 49.5304 23.6707 49.3741C23.827 49.2178 24.039 49.13 24.26 49.13H41.4347C41.6555 49.1304 41.8671 49.2183 42.0231 49.3745C42.1791 49.5308 42.2667 49.7426 42.2667 49.9633ZM22.7107 26.0667C23.6501 26.0667 24.5685 25.7881 25.3496 25.2661C26.1308 24.7442 26.7396 24.0024 27.0991 23.1344C27.4586 22.2665 27.5527 21.3114 27.3694 20.39C27.1861 19.4686 26.7337 18.6222 26.0694 17.9579C25.4051 17.2936 24.5588 16.8412 23.6373 16.6579C22.7159 16.4747 21.7609 16.5687 20.8929 16.9282C20.025 17.2878 19.2831 17.8966 18.7612 18.6777C18.2393 19.4588 17.9607 20.3772 17.9607 21.3167C17.9621 22.576 18.463 23.7834 19.3535 24.6739C20.244 25.5644 21.4513 26.0653 22.7107 26.0667ZM22.7107 18.234C23.3205 18.234 23.9167 18.4149 24.4237 18.7537C24.9308 19.0925 25.326 19.5741 25.5594 20.1375C25.7927 20.701 25.8537 21.321 25.7347 21.9191C25.6157 22.5172 25.322 23.0666 24.8907 23.4978C24.4594 23.929 23.9099 24.2226 23.3118 24.3415C22.7136 24.4604 22.0937 24.3992 21.5303 24.1658C20.9669 23.9323 20.4854 23.537 20.1466 23.0299C19.8079 22.5227 19.6272 21.9265 19.6273 21.3167C19.6289 20.4997 19.9544 19.7167 20.5324 19.1394C21.1104 18.562 21.8937 18.2374 22.7107 18.2367V18.234ZM12.1773 23.5913L14.194 23.8693C14.3683 24.4547 14.6029 25.0204 14.894 25.5573L13.6667 27.1827C13.5452 27.3431 13.4858 27.5422 13.4995 27.743C13.5132 27.9438 13.5991 28.1329 13.7413 28.2753L15.7713 30.3047C15.9137 30.4468 16.1026 30.5327 16.3034 30.5464C16.5041 30.5601 16.703 30.5008 16.8633 30.3793L18.4867 29.1493C19.0232 29.4409 19.5887 29.6755 20.174 29.8493L20.452 31.866C20.4795 32.0653 20.5783 32.248 20.73 32.3802C20.8817 32.5124 21.0761 32.5853 21.2773 32.5853H24.1473C24.3482 32.5849 24.5421 32.5119 24.6935 32.3799C24.8449 32.2478 24.9436 32.0656 24.9713 31.8667L25.2487 29.85C25.834 29.6757 26.3998 29.4411 26.9367 29.15L28.5593 30.38C28.7198 30.5015 28.9188 30.5609 29.1196 30.5472C29.3205 30.5334 29.5095 30.4475 29.652 30.3053L31.6813 28.276C31.8235 28.1335 31.9094 27.9445 31.9232 27.7436C31.9369 27.5428 31.8775 27.3438 31.756 27.1833L30.526 25.56C30.8175 25.0235 31.0521 24.458 31.226 23.8727L33.2427 23.5947C33.442 23.5671 33.6247 23.4684 33.7569 23.3167C33.8891 23.165 33.962 22.9706 33.962 22.7693V19.9027C33.962 19.7014 33.8891 19.507 33.7569 19.3553C33.6247 19.2036 33.442 19.1049 33.2427 19.0773L31.226 18.7993C31.052 18.2139 30.8174 17.6481 30.526 17.1113L31.756 15.4887C31.8775 15.3282 31.9369 15.1292 31.9232 14.9284C31.9094 14.7275 31.8235 14.5385 31.6813 14.396L29.652 12.3667C29.5095 12.2245 29.3205 12.1386 29.1196 12.1248C28.9188 12.1111 28.7198 12.1705 28.5593 12.292L26.9367 13.522C26.3999 13.2306 25.8342 12.996 25.2487 12.822L24.9707 10.8C24.9433 10.6006 24.8446 10.4179 24.6928 10.2856C24.5411 10.1534 24.3466 10.0806 24.1453 10.0807H21.2787C21.0769 10.0799 20.8816 10.1524 20.7292 10.2847C20.5768 10.417 20.4776 10.6001 20.45 10.8L20.172 12.8167C19.5868 12.9909 19.0214 13.2255 18.4847 13.5167L16.8613 12.2867C16.701 12.1652 16.5021 12.1059 16.3014 12.1196C16.1006 12.1333 15.9117 12.2192 15.7693 12.3613L13.7393 14.3907C13.5971 14.5331 13.5112 14.7222 13.4975 14.923C13.4838 15.1238 13.5432 15.3229 13.6647 15.4833L14.8947 17.1067C14.6034 17.6433 14.3688 18.2088 14.1947 18.794L12.178 19.072C11.9787 19.0995 11.796 19.1983 11.6638 19.35C11.5316 19.5017 11.4587 19.6961 11.4587 19.8973V22.7673C11.4584 22.9688 11.5311 23.1635 11.6633 23.3155C11.7956 23.4675 11.9784 23.5664 12.178 23.594L12.1773 23.5913ZM13.1247 20.6227L14.9727 20.368C15.1405 20.3449 15.2974 20.2711 15.4222 20.1565C15.5471 20.0419 15.634 19.892 15.6713 19.7267C15.8516 18.9344 16.1657 18.1787 16.6 17.492C16.6903 17.3486 16.7347 17.1811 16.7274 17.0119C16.72 16.8426 16.6611 16.6796 16.5587 16.5447L15.432 15.0573L16.432 14.0573L17.9193 15.1847C18.0543 15.2871 18.2173 15.346 18.3865 15.3534C18.5558 15.3607 18.7233 15.3163 18.8667 15.226C19.5544 14.7919 20.311 14.4781 21.104 14.298C21.2693 14.2606 21.4192 14.1736 21.5338 14.0488C21.6483 13.924 21.7221 13.7672 21.7453 13.5993L22 11.7513H23.4167L23.6713 13.5987C23.6944 13.7666 23.7682 13.9236 23.8827 14.0485C23.9973 14.1735 24.1473 14.2605 24.3127 14.298C25.1058 14.4778 25.8624 14.7917 26.55 15.226C26.6934 15.3163 26.8609 15.3607 27.0301 15.3534C27.1994 15.346 27.3624 15.2871 27.4973 15.1847L28.9853 14.0573L29.9853 15.0573L28.858 16.5447C28.7557 16.6798 28.697 16.843 28.6897 17.0123C28.6824 17.1817 28.727 17.3492 28.8173 17.4927C29.2514 18.1803 29.565 18.9369 29.7447 19.73C29.7821 19.8953 29.869 20.0452 29.9939 20.1597C30.1187 20.2743 30.2755 20.3481 30.4433 20.3713L32.2913 20.626V22.0427L30.4433 22.2973C30.2755 22.3205 30.1187 22.3943 29.9939 22.5089C29.869 22.6235 29.7821 22.7734 29.7447 22.9387C29.5648 23.7317 29.2512 24.4883 28.8173 25.176C28.7269 25.3193 28.6824 25.4868 28.6897 25.656C28.6969 25.8253 28.7556 25.9883 28.858 26.1233L29.9853 27.6107L28.9853 28.6107L27.4973 27.4833C27.3624 27.3809 27.1994 27.322 27.0301 27.3146C26.8609 27.3073 26.6934 27.3517 26.55 27.442C25.8624 27.8763 25.1058 28.1901 24.3127 28.37C24.1474 28.4074 23.9975 28.4944 23.8829 28.6192C23.7683 28.744 23.6945 28.9008 23.6713 29.0687L23.4173 30.9167H22L21.7453 29.0687C21.7221 28.9008 21.6483 28.744 21.5338 28.6192C21.4192 28.4944 21.2693 28.4074 21.104 28.37C20.311 28.1908 19.5544 27.8776 18.8667 27.444C18.7233 27.3537 18.5558 27.3093 18.3865 27.3166C18.2173 27.324 18.0543 27.3829 17.9193 27.4853L16.432 28.6127L15.432 27.6127L16.5587 26.1253C16.6611 25.9904 16.72 25.8274 16.7274 25.6581C16.7347 25.4889 16.6903 25.3214 16.6 25.178C16.1657 24.4904 15.8519 23.7338 15.672 22.9407C15.6346 22.7754 15.5477 22.6254 15.4229 22.5108C15.2981 22.3962 15.1412 22.3224 14.9733 22.2993L13.1253 22.0447L13.1247 20.6227Z" fill="#0CB4C4"></path></svg>