<svg width="82" height="62" viewBox="0 0 82 62" fill="none" xmlns="http://www.w3.org/2000/svg"><mask id="path-1-outside-1_2001_8" maskUnits="userSpaceOnUse" x="0" y="0" width="82" height="62" fill="black"><rect fill="white" width="82" height="62"></rect><path d="M80.0425 1H1.95754C1.42881 1 1 1.43019 1 1.95643V60.0394C1 60.5698 1.42881 61 1.95754 61H80.0425C80.5712 61 81 60.5698 81 60.0436V1.9606C81 1.43018 80.5712 1 80.0425 1ZM79.0849 2.92121V10.5601H2.91091V2.92121H79.0849ZM2.91091 59.083V12.4813H79.0849V59.083H2.91091ZM6.71607 6.73855C6.71607 6.20813 7.14488 5.77795 7.6736 5.77795H9.78435C10.3131 5.79465 10.7252 6.23736 10.7127 6.76778C10.6961 7.27314 10.2923 7.68245 9.78435 7.69915H7.6736C7.14488 7.69915 6.71607 7.26897 6.71607 6.74273V6.73855ZM14.4721 6.73855C14.4721 6.20813 14.9009 5.77795 15.4296 5.77795H17.5404C18.0691 5.79465 18.4813 6.23736 18.4688 6.76778C18.4521 7.27314 18.0483 7.68245 17.5404 7.69915H15.4296C14.9009 7.69915 14.4721 7.26897 14.4721 6.74273V6.73855ZM22.224 6.73855C22.224 6.20813 22.6528 5.77795 23.1815 5.77795H38.9684C39.4971 5.79465 39.9092 6.23736 39.8968 6.76778C39.8801 7.27314 39.4763 7.68245 38.9684 7.69915H23.1815C22.6528 7.69915 22.224 7.26897 22.224 6.74273V6.73855ZM29.8218 31.1629C29.8218 31.6933 29.393 32.1235 28.8643 32.1235H24.8135C24.2848 32.1235 23.856 31.6933 23.856 31.1629C23.856 30.6325 24.2848 30.2023 24.8135 30.2023H28.8643C29.393 30.2023 29.8218 30.6325 29.8218 31.1629ZM29.8218 39.1776C29.8218 39.7081 29.393 40.1382 28.8643 40.1382H24.8135C24.2848 40.1382 23.856 39.7081 23.856 39.1776C23.856 38.6472 24.2848 38.217 24.8135 38.217H28.8643C29.393 38.217 29.8218 38.6472 29.8218 39.1776ZM29.8218 47.1882C29.8218 47.7186 29.393 48.1488 28.8643 48.1488H24.8135C24.2848 48.1655 23.8435 47.7479 23.8268 47.2175C23.8102 46.687 24.2265 46.2443 24.7552 46.2276C24.776 46.2276 24.7927 46.2276 24.8135 46.2276H28.8643C29.393 46.2276 29.8218 46.6578 29.8218 47.1882ZM41.6203 41.0571C39.368 41.0571 37.5404 42.8906 37.5362 45.1501C37.5362 47.4096 39.3639 49.2431 41.6161 49.2472C43.8684 49.2472 45.6961 47.4138 45.7003 45.1543C45.7003 42.8948 43.8726 41.0613 41.6203 41.0571ZM41.6203 47.3302C40.4213 47.3302 39.4513 46.3571 39.4513 45.1543C39.4513 43.9514 40.4213 42.9783 41.6203 42.9783C42.8193 42.9783 43.7893 43.9514 43.7893 45.1543C43.7893 46.3571 42.8193 47.3302 41.6203 47.3302ZM50.5754 42.9825L49.0225 42.7694C48.8934 42.3601 48.7269 41.9676 48.5354 41.5875L49.4804 40.3387C49.7677 39.9545 49.7302 39.4199 49.393 39.0816L47.6736 37.3567C47.3364 37.0184 46.8035 36.9766 46.4205 37.269L45.1757 38.217C44.7968 38.0207 44.4013 37.8579 43.9975 37.7242L43.7852 36.1705C43.7269 35.7445 43.3897 35.4104 42.9692 35.3561V22.7514C42.9692 21.0891 41.1915 19.6941 37.8276 18.7168C34.2431 17.7813 30.5504 17.3344 26.8451 17.3845C23.1399 17.3302 19.4471 17.7771 15.8626 18.7168C12.4988 19.6983 10.7211 21.0891 10.7211 22.7514V46.7914C10.7211 47.9525 11.612 49.5981 15.8543 50.8302C19.443 51.7657 23.1399 52.2126 26.8451 52.1583C29.3139 52.1666 31.7827 51.9829 34.2223 51.6112L35.5629 52.956C35.9001 53.2943 36.4371 53.3319 36.816 53.0437L38.0608 52.0956C38.4396 52.2919 38.8351 52.4548 39.239 52.5843L39.4513 54.138C39.5179 54.6141 39.9217 54.9649 40.3963 54.9649H42.8276C43.3064 54.9649 43.7102 54.6099 43.7769 54.138L43.9892 52.5843C44.3972 52.4548 44.7885 52.2919 45.1674 52.0956L46.4122 53.0437C46.7952 53.3319 47.3281 53.2943 47.6653 52.956L49.3847 51.2311C49.7219 50.8928 49.7594 50.3582 49.4721 49.974L48.5271 48.7252C48.7227 48.3451 48.8851 47.9483 49.0142 47.5432L50.5629 47.3302C51.0375 47.2634 51.3872 46.8583 51.3872 46.378V43.9305C51.3872 43.4544 51.0375 43.0535 50.567 42.9825H50.5754ZM35.5629 37.3525L33.8435 39.0774C33.5062 39.4157 33.4688 39.9503 33.756 40.3345L34.6886 41.5708C32.0949 42.0177 29.4679 42.2349 26.8368 42.2223C17.6445 42.2223 12.6278 39.9461 12.6278 38.7767V33.46C13.6353 34.0489 14.7219 34.4957 15.8501 34.7965C19.4388 35.732 23.1357 36.1789 26.841 36.1246C32.1116 36.1246 38.0733 35.2768 41.05 33.4474V35.3311H40.4047C39.9259 35.3311 39.5221 35.6861 39.4596 36.158L39.2473 37.7117C38.8393 37.8411 38.448 38.0082 38.0691 38.2045L36.8243 37.2564C36.4413 36.9641 35.9042 37.0058 35.567 37.3483L35.5629 37.3525ZM41.0541 30.858C41.0375 30.8872 41.025 30.9123 41.0125 30.9415C40.4047 32.3114 35.1465 34.2117 26.8451 34.2117C17.6528 34.2117 12.6361 31.9355 12.6361 30.7661V25.4452C13.6478 26.0341 14.7344 26.4852 15.8626 26.7901C19.4471 27.7256 23.1399 28.1767 26.8451 28.1224C30.5504 28.1767 34.2431 27.7298 37.8276 26.7901C38.96 26.4852 40.0425 26.0341 41.0541 25.4452V30.8622V30.858ZM26.841 19.3015C36.0333 19.3015 41.05 21.5778 41.05 22.7472C41.05 23.9166 36.0333 26.1928 26.841 26.1928C17.6486 26.1928 12.632 23.9166 12.632 22.7472C12.632 21.5778 17.6486 19.3015 26.841 19.3015ZM12.632 46.7914V41.4747C13.6395 42.0636 14.7261 42.5105 15.8543 42.8112C19.443 43.7468 23.1399 44.1937 26.8451 44.1394C28.5604 44.1394 30.2465 44.0558 31.8451 43.8971V46.3696C31.8451 46.8499 32.199 47.255 32.6694 47.3219L34.2181 47.5349C34.3472 47.9442 34.5096 48.3368 34.7052 48.7168L33.96 49.7067C31.6078 50.0658 29.2306 50.2413 26.8493 50.2329C17.6486 50.2329 12.632 47.9567 12.632 46.7873V46.7914ZM49.4888 45.5427L48.1399 45.7306C47.7444 45.7849 47.428 46.0814 47.3405 46.4699C47.1948 47.1172 46.9409 47.7312 46.587 48.2908C46.3747 48.6291 46.3913 49.0635 46.6328 49.3809L47.4571 50.471L46.9159 51.0139L45.8293 50.187C45.5129 49.9447 45.0799 49.928 44.7427 50.141C44.1848 50.496 43.5687 50.7508 42.9234 50.897C42.5362 50.9847 42.2448 51.3063 42.1865 51.6989L41.9992 53.0521H41.2331L41.0458 51.6989C40.9917 51.3021 40.6961 50.9847 40.3089 50.897C39.6636 50.7508 39.0516 50.496 38.4938 50.141C38.1565 49.928 37.7236 49.9489 37.4072 50.187L36.3206 51.0139L35.7793 50.471L36.6037 49.3809C36.8451 49.0635 36.8618 48.6291 36.6495 48.2908C36.2956 47.7312 36.0416 47.113 35.8959 46.4699C35.8085 46.0814 35.4879 45.7849 35.0966 45.7306L33.7435 45.5385V44.77L35.0924 44.5821C35.4879 44.5278 35.8043 44.2312 35.8918 43.8428C36.0375 43.1955 36.2914 42.5815 36.6453 42.0219C36.8576 41.6836 36.841 41.2492 36.5995 40.9318L35.7752 39.8417L36.3164 39.2988L37.403 40.1257C37.7194 40.3679 38.1524 40.3847 38.4896 40.1717C39.0475 39.8167 39.6636 39.5619 40.3047 39.4157C40.6919 39.328 40.9875 39.0064 41.0416 38.6138L41.229 37.2606H41.995L42.1823 38.6138C42.2365 39.0106 42.5321 39.328 42.9192 39.4157C43.5645 39.5619 44.1765 39.8167 44.7385 40.1717C45.0758 40.3847 45.5087 40.3638 45.8251 40.1257L46.9117 39.2988L47.453 39.8417L46.6286 40.9318C46.3872 41.2492 46.3705 41.6836 46.5828 42.0219C46.9367 42.5815 47.1907 43.1996 47.3364 43.8428C47.4238 44.2312 47.7444 44.5278 48.1357 44.5821L49.4846 44.77V45.5427H49.4888ZM48.8018 26.0968C48.4271 25.7209 48.4271 25.1153 48.8018 24.7394L54.9342 18.5874C55.2923 18.1989 55.8959 18.1739 56.2873 18.5331C56.6786 18.8922 56.6994 19.4978 56.3414 19.8904C56.3247 19.9071 56.3081 19.928 56.2873 19.9447L50.8335 25.416L56.2873 30.8872C56.6495 31.2715 56.6328 31.8812 56.2456 32.2446C55.8793 32.5913 55.3047 32.5913 54.9342 32.2446L48.8018 26.0968ZM59.5928 31.7309L63.0983 18.6082C63.2356 18.0945 63.7602 17.7938 64.2681 17.9275C64.7802 18.0653 65.0799 18.5915 64.9467 19.1011L61.4455 32.2195C61.3206 32.7333 60.8043 33.0507 60.2923 32.9254C59.7802 32.8001 59.4638 32.2822 59.5887 31.7685C59.5887 31.7518 59.597 31.7392 59.6012 31.7225H59.597L59.5928 31.7309ZM74.8218 24.7394C75.1965 25.1153 75.1965 25.7209 74.8218 26.0968L68.6894 32.2488C68.3272 32.633 67.7236 32.6539 67.3364 32.2905C66.9492 31.9272 66.9326 31.3216 67.2948 30.9332C67.3072 30.9206 67.3197 30.9039 67.3364 30.8914L72.7902 25.4202L67.3364 19.9447C66.9534 19.5814 66.9326 18.9758 67.2948 18.5874C67.657 18.2031 68.2606 18.1822 68.6478 18.5456C68.6603 18.5581 68.6769 18.5706 68.6894 18.5874L74.8218 24.7394ZM72.3739 36.1956C72.3739 36.726 71.945 37.152 71.4205 37.152H53.9226C53.3938 37.1687 52.9525 36.7511 52.9359 36.2207C52.9192 35.6902 53.3356 35.2475 53.8643 35.2308C53.8851 35.2308 53.9018 35.2308 53.9226 35.2308H71.4205C71.9492 35.2308 72.3739 35.661 72.3739 36.1914V36.1956ZM72.3739 41.0863C72.3739 41.6167 71.945 42.0469 71.4163 42.0469H53.9226C53.3938 42.0636 52.9525 41.646 52.9359 41.1155C52.9192 40.5851 53.3356 40.1424 53.8643 40.1257C53.8851 40.1257 53.9018 40.1257 53.9226 40.1257H71.4205C71.9492 40.1257 72.3739 40.5559 72.3739 41.0863ZM72.3739 45.9812C72.3739 46.5116 71.945 46.9418 71.4163 46.9418H53.9226C53.3938 46.9585 52.9525 46.5409 52.9359 46.0104C52.9192 45.48 53.3356 45.0373 53.8643 45.0206C53.8851 45.0206 53.9018 45.0206 53.9226 45.0206H71.4205C71.9492 45.0206 72.3739 45.4508 72.3739 45.9812ZM72.3739 50.8719C72.3739 51.4023 71.945 51.8325 71.4205 51.8325H53.9226C53.3938 51.8325 52.965 51.4023 52.965 50.8719C52.965 50.3415 53.3938 49.9113 53.9226 49.9113H71.4205C71.9492 49.9113 72.3739 50.3415 72.3739 50.8719Z"></path></mask><path d="M80.0425 1H1.95754C1.42881 1 1 1.43019 1 1.95643V60.0394C1 60.5698 1.42881 61 1.95754 61H80.0425C80.5712 61 81 60.5698 81 60.0436V1.9606C81 1.43018 80.5712 1 80.0425 1ZM79.0849 2.92121V10.5601H2.91091V2.92121H79.0849ZM2.91091 59.083V12.4813H79.0849V59.083H2.91091ZM6.71607 6.73855C6.71607 6.20813 7.14488 5.77795 7.6736 5.77795H9.78435C10.3131 5.79465 10.7252 6.23736 10.7127 6.76778C10.6961 7.27314 10.2923 7.68245 9.78435 7.69915H7.6736C7.14488 7.69915 6.71607 7.26897 6.71607 6.74273V6.73855ZM14.4721 6.73855C14.4721 6.20813 14.9009 5.77795 15.4296 5.77795H17.5404C18.0691 5.79465 18.4813 6.23736 18.4688 6.76778C18.4521 7.27314 18.0483 7.68245 17.5404 7.69915H15.4296C14.9009 7.69915 14.4721 7.26897 14.4721 6.74273V6.73855ZM22.224 6.73855C22.224 6.20813 22.6528 5.77795 23.1815 5.77795H38.9684C39.4971 5.79465 39.9092 6.23736 39.8968 6.76778C39.8801 7.27314 39.4763 7.68245 38.9684 7.69915H23.1815C22.6528 7.69915 22.224 7.26897 22.224 6.74273V6.73855ZM29.8218 31.1629C29.8218 31.6933 29.393 32.1235 28.8643 32.1235H24.8135C24.2848 32.1235 23.856 31.6933 23.856 31.1629C23.856 30.6325 24.2848 30.2023 24.8135 30.2023H28.8643C29.393 30.2023 29.8218 30.6325 29.8218 31.1629ZM29.8218 39.1776C29.8218 39.7081 29.393 40.1382 28.8643 40.1382H24.8135C24.2848 40.1382 23.856 39.7081 23.856 39.1776C23.856 38.6472 24.2848 38.217 24.8135 38.217H28.8643C29.393 38.217 29.8218 38.6472 29.8218 39.1776ZM29.8218 47.1882C29.8218 47.7186 29.393 48.1488 28.8643 48.1488H24.8135C24.2848 48.1655 23.8435 47.7479 23.8268 47.2175C23.8102 46.687 24.2265 46.2443 24.7552 46.2276C24.776 46.2276 24.7927 46.2276 24.8135 46.2276H28.8643C29.393 46.2276 29.8218 46.6578 29.8218 47.1882ZM41.6203 41.0571C39.368 41.0571 37.5404 42.8906 37.5362 45.1501C37.5362 47.4096 39.3639 49.2431 41.6161 49.2472C43.8684 49.2472 45.6961 47.4138 45.7003 45.1543C45.7003 42.8948 43.8726 41.0613 41.6203 41.0571ZM41.6203 47.3302C40.4213 47.3302 39.4513 46.3571 39.4513 45.1543C39.4513 43.9514 40.4213 42.9783 41.6203 42.9783C42.8193 42.9783 43.7893 43.9514 43.7893 45.1543C43.7893 46.3571 42.8193 47.3302 41.6203 47.3302ZM50.5754 42.9825L49.0225 42.7694C48.8934 42.3601 48.7269 41.9676 48.5354 41.5875L49.4804 40.3387C49.7677 39.9545 49.7302 39.4199 49.393 39.0816L47.6736 37.3567C47.3364 37.0184 46.8035 36.9766 46.4205 37.269L45.1757 38.217C44.7968 38.0207 44.4013 37.8579 43.9975 37.7242L43.7852 36.1705C43.7269 35.7445 43.3897 35.4104 42.9692 35.3561V22.7514C42.9692 21.0891 41.1915 19.6941 37.8276 18.7168C34.2431 17.7813 30.5504 17.3344 26.8451 17.3845C23.1399 17.3302 19.4471 17.7771 15.8626 18.7168C12.4988 19.6983 10.7211 21.0891 10.7211 22.7514V46.7914C10.7211 47.9525 11.612 49.5981 15.8543 50.8302C19.443 51.7657 23.1399 52.2126 26.8451 52.1583C29.3139 52.1666 31.7827 51.9829 34.2223 51.6112L35.5629 52.956C35.9001 53.2943 36.4371 53.3319 36.816 53.0437L38.0608 52.0956C38.4396 52.2919 38.8351 52.4548 39.239 52.5843L39.4513 54.138C39.5179 54.6141 39.9217 54.9649 40.3963 54.9649H42.8276C43.3064 54.9649 43.7102 54.6099 43.7769 54.138L43.9892 52.5843C44.3972 52.4548 44.7885 52.2919 45.1674 52.0956L46.4122 53.0437C46.7952 53.3319 47.3281 53.2943 47.6653 52.956L49.3847 51.2311C49.7219 50.8928 49.7594 50.3582 49.4721 49.974L48.5271 48.7252C48.7227 48.3451 48.8851 47.9483 49.0142 47.5432L50.5629 47.3302C51.0375 47.2634 51.3872 46.8583 51.3872 46.378V43.9305C51.3872 43.4544 51.0375 43.0535 50.567 42.9825H50.5754ZM35.5629 37.3525L33.8435 39.0774C33.5062 39.4157 33.4688 39.9503 33.756 40.3345L34.6886 41.5708C32.0949 42.0177 29.4679 42.2349 26.8368 42.2223C17.6445 42.2223 12.6278 39.9461 12.6278 38.7767V33.46C13.6353 34.0489 14.7219 34.4957 15.8501 34.7965C19.4388 35.732 23.1357 36.1789 26.841 36.1246C32.1116 36.1246 38.0733 35.2768 41.05 33.4474V35.3311H40.4047C39.9259 35.3311 39.5221 35.6861 39.4596 36.158L39.2473 37.7117C38.8393 37.8411 38.448 38.0082 38.0691 38.2045L36.8243 37.2564C36.4413 36.9641 35.9042 37.0058 35.567 37.3483L35.5629 37.3525ZM41.0541 30.858C41.0375 30.8872 41.025 30.9123 41.0125 30.9415C40.4047 32.3114 35.1465 34.2117 26.8451 34.2117C17.6528 34.2117 12.6361 31.9355 12.6361 30.7661V25.4452C13.6478 26.0341 14.7344 26.4852 15.8626 26.7901C19.4471 27.7256 23.1399 28.1767 26.8451 28.1224C30.5504 28.1767 34.2431 27.7298 37.8276 26.7901C38.96 26.4852 40.0425 26.0341 41.0541 25.4452V30.8622V30.858ZM26.841 19.3015C36.0333 19.3015 41.05 21.5778 41.05 22.7472C41.05 23.9166 36.0333 26.1928 26.841 26.1928C17.6486 26.1928 12.632 23.9166 12.632 22.7472C12.632 21.5778 17.6486 19.3015 26.841 19.3015ZM12.632 46.7914V41.4747C13.6395 42.0636 14.7261 42.5105 15.8543 42.8112C19.443 43.7468 23.1399 44.1937 26.8451 44.1394C28.5604 44.1394 30.2465 44.0558 31.8451 43.8971V46.3696C31.8451 46.8499 32.199 47.255 32.6694 47.3219L34.2181 47.5349C34.3472 47.9442 34.5096 48.3368 34.7052 48.7168L33.96 49.7067C31.6078 50.0658 29.2306 50.2413 26.8493 50.2329C17.6486 50.2329 12.632 47.9567 12.632 46.7873V46.7914ZM49.4888 45.5427L48.1399 45.7306C47.7444 45.7849 47.428 46.0814 47.3405 46.4699C47.1948 47.1172 46.9409 47.7312 46.587 48.2908C46.3747 48.6291 46.3913 49.0635 46.6328 49.3809L47.4571 50.471L46.9159 51.0139L45.8293 50.187C45.5129 49.9447 45.0799 49.928 44.7427 50.141C44.1848 50.496 43.5687 50.7508 42.9234 50.897C42.5362 50.9847 42.2448 51.3063 42.1865 51.6989L41.9992 53.0521H41.2331L41.0458 51.6989C40.9917 51.3021 40.6961 50.9847 40.3089 50.897C39.6636 50.7508 39.0516 50.496 38.4938 50.141C38.1565 49.928 37.7236 49.9489 37.4072 50.187L36.3206 51.0139L35.7793 50.471L36.6037 49.3809C36.8451 49.0635 36.8618 48.6291 36.6495 48.2908C36.2956 47.7312 36.0416 47.113 35.8959 46.4699C35.8085 46.0814 35.4879 45.7849 35.0966 45.7306L33.7435 45.5385V44.77L35.0924 44.5821C35.4879 44.5278 35.8043 44.2312 35.8918 43.8428C36.0375 43.1955 36.2914 42.5815 36.6453 42.0219C36.8576 41.6836 36.841 41.2492 36.5995 40.9318L35.7752 39.8417L36.3164 39.2988L37.403 40.1257C37.7194 40.3679 38.1524 40.3847 38.4896 40.1717C39.0475 39.8167 39.6636 39.5619 40.3047 39.4157C40.6919 39.328 40.9875 39.0064 41.0416 38.6138L41.229 37.2606H41.995L42.1823 38.6138C42.2365 39.0106 42.5321 39.328 42.9192 39.4157C43.5645 39.5619 44.1765 39.8167 44.7385 40.1717C45.0758 40.3847 45.5087 40.3638 45.8251 40.1257L46.9117 39.2988L47.453 39.8417L46.6286 40.9318C46.3872 41.2492 46.3705 41.6836 46.5828 42.0219C46.9367 42.5815 47.1907 43.1996 47.3364 43.8428C47.4238 44.2312 47.7444 44.5278 48.1357 44.5821L49.4846 44.77V45.5427H49.4888ZM48.8018 26.0968C48.4271 25.7209 48.4271 25.1153 48.8018 24.7394L54.9342 18.5874C55.2923 18.1989 55.8959 18.1739 56.2873 18.5331C56.6786 18.8922 56.6994 19.4978 56.3414 19.8904C56.3247 19.9071 56.3081 19.928 56.2873 19.9447L50.8335 25.416L56.2873 30.8872C56.6495 31.2715 56.6328 31.8812 56.2456 32.2446C55.8793 32.5913 55.3047 32.5913 54.9342 32.2446L48.8018 26.0968ZM59.5928 31.7309L63.0983 18.6082C63.2356 18.0945 63.7602 17.7938 64.2681 17.9275C64.7802 18.0653 65.0799 18.5915 64.9467 19.1011L61.4455 32.2195C61.3206 32.7333 60.8043 33.0507 60.2923 32.9254C59.7802 32.8001 59.4638 32.2822 59.5887 31.7685C59.5887 31.7518 59.597 31.7392 59.6012 31.7225H59.597L59.5928 31.7309ZM74.8218 24.7394C75.1965 25.1153 75.1965 25.7209 74.8218 26.0968L68.6894 32.2488C68.3272 32.633 67.7236 32.6539 67.3364 32.2905C66.9492 31.9272 66.9326 31.3216 67.2948 30.9332C67.3072 30.9206 67.3197 30.9039 67.3364 30.8914L72.7902 25.4202L67.3364 19.9447C66.9534 19.5814 66.9326 18.9758 67.2948 18.5874C67.657 18.2031 68.2606 18.1822 68.6478 18.5456C68.6603 18.5581 68.6769 18.5706 68.6894 18.5874L74.8218 24.7394ZM72.3739 36.1956C72.3739 36.726 71.945 37.152 71.4205 37.152H53.9226C53.3938 37.1687 52.9525 36.7511 52.9359 36.2207C52.9192 35.6902 53.3356 35.2475 53.8643 35.2308C53.8851 35.2308 53.9018 35.2308 53.9226 35.2308H71.4205C71.9492 35.2308 72.3739 35.661 72.3739 36.1914V36.1956ZM72.3739 41.0863C72.3739 41.6167 71.945 42.0469 71.4163 42.0469H53.9226C53.3938 42.0636 52.9525 41.646 52.9359 41.1155C52.9192 40.5851 53.3356 40.1424 53.8643 40.1257C53.8851 40.1257 53.9018 40.1257 53.9226 40.1257H71.4205C71.9492 40.1257 72.3739 40.5559 72.3739 41.0863ZM72.3739 45.9812C72.3739 46.5116 71.945 46.9418 71.4163 46.9418H53.9226C53.3938 46.9585 52.9525 46.5409 52.9359 46.0104C52.9192 45.48 53.3356 45.0373 53.8643 45.0206C53.8851 45.0206 53.9018 45.0206 53.9226 45.0206H71.4205C71.9492 45.0206 72.3739 45.4508 72.3739 45.9812ZM72.3739 50.8719C72.3739 51.4023 71.945 51.8325 71.4205 51.8325H53.9226C53.3938 51.8325 52.965 51.4023 52.965 50.8719C52.965 50.3415 53.3938 49.9113 53.9226 49.9113H71.4205C71.9492 49.9113 72.3739 50.3415 72.3739 50.8719Z" fill="#0096A3"></path><path d="M80.0425 1H1.95754C1.42881 1 1 1.43019 1 1.95643V60.0394C1 60.5698 1.42881 61 1.95754 61H80.0425C80.5712 61 81 60.5698 81 60.0436V1.9606C81 1.43018 80.5712 1 80.0425 1ZM79.0849 2.92121V10.5601H2.91091V2.92121H79.0849ZM2.91091 59.083V12.4813H79.0849V59.083H2.91091ZM6.71607 6.73855C6.71607 6.20813 7.14488 5.77795 7.6736 5.77795H9.78435C10.3131 5.79465 10.7252 6.23736 10.7127 6.76778C10.6961 7.27314 10.2923 7.68245 9.78435 7.69915H7.6736C7.14488 7.69915 6.71607 7.26897 6.71607 6.74273V6.73855ZM14.4721 6.73855C14.4721 6.20813 14.9009 5.77795 15.4296 5.77795H17.5404C18.0691 5.79465 18.4813 6.23736 18.4688 6.76778C18.4521 7.27314 18.0483 7.68245 17.5404 7.69915H15.4296C14.9009 7.69915 14.4721 7.26897 14.4721 6.74273V6.73855ZM22.224 6.73855C22.224 6.20813 22.6528 5.77795 23.1815 5.77795H38.9684C39.4971 5.79465 39.9092 6.23736 39.8968 6.76778C39.8801 7.27314 39.4763 7.68245 38.9684 7.69915H23.1815C22.6528 7.69915 22.224 7.26897 22.224 6.74273V6.73855ZM29.8218 31.1629C29.8218 31.6933 29.393 32.1235 28.8643 32.1235H24.8135C24.2848 32.1235 23.856 31.6933 23.856 31.1629C23.856 30.6325 24.2848 30.2023 24.8135 30.2023H28.8643C29.393 30.2023 29.8218 30.6325 29.8218 31.1629ZM29.8218 39.1776C29.8218 39.7081 29.393 40.1382 28.8643 40.1382H24.8135C24.2848 40.1382 23.856 39.7081 23.856 39.1776C23.856 38.6472 24.2848 38.217 24.8135 38.217H28.8643C29.393 38.217 29.8218 38.6472 29.8218 39.1776ZM29.8218 47.1882C29.8218 47.7186 29.393 48.1488 28.8643 48.1488H24.8135C24.2848 48.1655 23.8435 47.7479 23.8268 47.2175C23.8102 46.687 24.2265 46.2443 24.7552 46.2276C24.776 46.2276 24.7927 46.2276 24.8135 46.2276H28.8643C29.393 46.2276 29.8218 46.6578 29.8218 47.1882ZM41.6203 41.0571C39.368 41.0571 37.5404 42.8906 37.5362 45.1501C37.5362 47.4096 39.3639 49.2431 41.6161 49.2472C43.8684 49.2472 45.6961 47.4138 45.7003 45.1543C45.7003 42.8948 43.8726 41.0613 41.6203 41.0571ZM41.6203 47.3302C40.4213 47.3302 39.4513 46.3571 39.4513 45.1543C39.4513 43.9514 40.4213 42.9783 41.6203 42.9783C42.8193 42.9783 43.7893 43.9514 43.7893 45.1543C43.7893 46.3571 42.8193 47.3302 41.6203 47.3302ZM50.5754 42.9825L49.0225 42.7694C48.8934 42.3601 48.7269 41.9676 48.5354 41.5875L49.4804 40.3387C49.7677 39.9545 49.7302 39.4199 49.393 39.0816L47.6736 37.3567C47.3364 37.0184 46.8035 36.9766 46.4205 37.269L45.1757 38.217C44.7968 38.0207 44.4013 37.8579 43.9975 37.7242L43.7852 36.1705C43.7269 35.7445 43.3897 35.4104 42.9692 35.3561V22.7514C42.9692 21.0891 41.1915 19.6941 37.8276 18.7168C34.2431 17.7813 30.5504 17.3344 26.8451 17.3845C23.1399 17.3302 19.4471 17.7771 15.8626 18.7168C12.4988 19.6983 10.7211 21.0891 10.7211 22.7514V46.7914C10.7211 47.9525 11.612 49.5981 15.8543 50.8302C19.443 51.7657 23.1399 52.2126 26.8451 52.1583C29.3139 52.1666 31.7827 51.9829 34.2223 51.6112L35.5629 52.956C35.9001 53.2943 36.4371 53.3319 36.816 53.0437L38.0608 52.0956C38.4396 52.2919 38.8351 52.4548 39.239 52.5843L39.4513 54.138C39.5179 54.6141 39.9217 54.9649 40.3963 54.9649H42.8276C43.3064 54.9649 43.7102 54.6099 43.7769 54.138L43.9892 52.5843C44.3972 52.4548 44.7885 52.2919 45.1674 52.0956L46.4122 53.0437C46.7952 53.3319 47.3281 53.2943 47.6653 52.956L49.3847 51.2311C49.7219 50.8928 49.7594 50.3582 49.4721 49.974L48.5271 48.7252C48.7227 48.3451 48.8851 47.9483 49.0142 47.5432L50.5629 47.3302C51.0375 47.2634 51.3872 46.8583 51.3872 46.378V43.9305C51.3872 43.4544 51.0375 43.0535 50.567 42.9825H50.5754ZM35.5629 37.3525L33.8435 39.0774C33.5062 39.4157 33.4688 39.9503 33.756 40.3345L34.6886 41.5708C32.0949 42.0177 29.4679 42.2349 26.8368 42.2223C17.6445 42.2223 12.6278 39.9461 12.6278 38.7767V33.46C13.6353 34.0489 14.7219 34.4957 15.8501 34.7965C19.4388 35.732 23.1357 36.1789 26.841 36.1246C32.1116 36.1246 38.0733 35.2768 41.05 33.4474V35.3311H40.4047C39.9259 35.3311 39.5221 35.6861 39.4596 36.158L39.2473 37.7117C38.8393 37.8411 38.448 38.0082 38.0691 38.2045L36.8243 37.2564C36.4413 36.9641 35.9042 37.0058 35.567 37.3483L35.5629 37.3525ZM41.0541 30.858C41.0375 30.8872 41.025 30.9123 41.0125 30.9415C40.4047 32.3114 35.1465 34.2117 26.8451 34.2117C17.6528 34.2117 12.6361 31.9355 12.6361 30.7661V25.4452C13.6478 26.0341 14.7344 26.4852 15.8626 26.7901C19.4471 27.7256 23.1399 28.1767 26.8451 28.1224C30.5504 28.1767 34.2431 27.7298 37.8276 26.7901C38.96 26.4852 40.0425 26.0341 41.0541 25.4452V30.8622V30.858ZM26.841 19.3015C36.0333 19.3015 41.05 21.5778 41.05 22.7472C41.05 23.9166 36.0333 26.1928 26.841 26.1928C17.6486 26.1928 12.632 23.9166 12.632 22.7472C12.632 21.5778 17.6486 19.3015 26.841 19.3015ZM12.632 46.7914V41.4747C13.6395 42.0636 14.7261 42.5105 15.8543 42.8112C19.443 43.7468 23.1399 44.1937 26.8451 44.1394C28.5604 44.1394 30.2465 44.0558 31.8451 43.8971V46.3696C31.8451 46.8499 32.199 47.255 32.6694 47.3219L34.2181 47.5349C34.3472 47.9442 34.5096 48.3368 34.7052 48.7168L33.96 49.7067C31.6078 50.0658 29.2306 50.2413 26.8493 50.2329C17.6486 50.2329 12.632 47.9567 12.632 46.7873V46.7914ZM49.4888 45.5427L48.1399 45.7306C47.7444 45.7849 47.428 46.0814 47.3405 46.4699C47.1948 47.1172 46.9409 47.7312 46.587 48.2908C46.3747 48.6291 46.3913 49.0635 46.6328 49.3809L47.4571 50.471L46.9159 51.0139L45.8293 50.187C45.5129 49.9447 45.0799 49.928 44.7427 50.141C44.1848 50.496 43.5687 50.7508 42.9234 50.897C42.5362 50.9847 42.2448 51.3063 42.1865 51.6989L41.9992 53.0521H41.2331L41.0458 51.6989C40.9917 51.3021 40.6961 50.9847 40.3089 50.897C39.6636 50.7508 39.0516 50.496 38.4938 50.141C38.1565 49.928 37.7236 49.9489 37.4072 50.187L36.3206 51.0139L35.7793 50.471L36.6037 49.3809C36.8451 49.0635 36.8618 48.6291 36.6495 48.2908C36.2956 47.7312 36.0416 47.113 35.8959 46.4699C35.8085 46.0814 35.4879 45.7849 35.0966 45.7306L33.7435 45.5385V44.77L35.0924 44.5821C35.4879 44.5278 35.8043 44.2312 35.8918 43.8428C36.0375 43.1955 36.2914 42.5815 36.6453 42.0219C36.8576 41.6836 36.841 41.2492 36.5995 40.9318L35.7752 39.8417L36.3164 39.2988L37.403 40.1257C37.7194 40.3679 38.1524 40.3847 38.4896 40.1717C39.0475 39.8167 39.6636 39.5619 40.3047 39.4157C40.6919 39.328 40.9875 39.0064 41.0416 38.6138L41.229 37.2606H41.995L42.1823 38.6138C42.2365 39.0106 42.5321 39.328 42.9192 39.4157C43.5645 39.5619 44.1765 39.8167 44.7385 40.1717C45.0758 40.3847 45.5087 40.3638 45.8251 40.1257L46.9117 39.2988L47.453 39.8417L46.6286 40.9318C46.3872 41.2492 46.3705 41.6836 46.5828 42.0219C46.9367 42.5815 47.1907 43.1996 47.3364 43.8428C47.4238 44.2312 47.7444 44.5278 48.1357 44.5821L49.4846 44.77V45.5427H49.4888ZM48.8018 26.0968C48.4271 25.7209 48.4271 25.1153 48.8018 24.7394L54.9342 18.5874C55.2923 18.1989 55.8959 18.1739 56.2873 18.5331C56.6786 18.8922 56.6994 19.4978 56.3414 19.8904C56.3247 19.9071 56.3081 19.928 56.2873 19.9447L50.8335 25.416L56.2873 30.8872C56.6495 31.2715 56.6328 31.8812 56.2456 32.2446C55.8793 32.5913 55.3047 32.5913 54.9342 32.2446L48.8018 26.0968ZM59.5928 31.7309L63.0983 18.6082C63.2356 18.0945 63.7602 17.7938 64.2681 17.9275C64.7802 18.0653 65.0799 18.5915 64.9467 19.1011L61.4455 32.2195C61.3206 32.7333 60.8043 33.0507 60.2923 32.9254C59.7802 32.8001 59.4638 32.2822 59.5887 31.7685C59.5887 31.7518 59.597 31.7392 59.6012 31.7225H59.597L59.5928 31.7309ZM74.8218 24.7394C75.1965 25.1153 75.1965 25.7209 74.8218 26.0968L68.6894 32.2488C68.3272 32.633 67.7236 32.6539 67.3364 32.2905C66.9492 31.9272 66.9326 31.3216 67.2948 30.9332C67.3072 30.9206 67.3197 30.9039 67.3364 30.8914L72.7902 25.4202L67.3364 19.9447C66.9534 19.5814 66.9326 18.9758 67.2948 18.5874C67.657 18.2031 68.2606 18.1822 68.6478 18.5456C68.6603 18.5581 68.6769 18.5706 68.6894 18.5874L74.8218 24.7394ZM72.3739 36.1956C72.3739 36.726 71.945 37.152 71.4205 37.152H53.9226C53.3938 37.1687 52.9525 36.7511 52.9359 36.2207C52.9192 35.6902 53.3356 35.2475 53.8643 35.2308C53.8851 35.2308 53.9018 35.2308 53.9226 35.2308H71.4205C71.9492 35.2308 72.3739 35.661 72.3739 36.1914V36.1956ZM72.3739 41.0863C72.3739 41.6167 71.945 42.0469 71.4163 42.0469H53.9226C53.3938 42.0636 52.9525 41.646 52.9359 41.1155C52.9192 40.5851 53.3356 40.1424 53.8643 40.1257C53.8851 40.1257 53.9018 40.1257 53.9226 40.1257H71.4205C71.9492 40.1257 72.3739 40.5559 72.3739 41.0863ZM72.3739 45.9812C72.3739 46.5116 71.945 46.9418 71.4163 46.9418H53.9226C53.3938 46.9585 52.9525 46.5409 52.9359 46.0104C52.9192 45.48 53.3356 45.0373 53.8643 45.0206C53.8851 45.0206 53.9018 45.0206 53.9226 45.0206H71.4205C71.9492 45.0206 72.3739 45.4508 72.3739 45.9812ZM72.3739 50.8719C72.3739 51.4023 71.945 51.8325 71.4205 51.8325H53.9226C53.3938 51.8325 52.965 51.4023 52.965 50.8719C52.965 50.3415 53.3938 49.9113 53.9226 49.9113H71.4205C71.9492 49.9113 72.3739 50.3415 72.3739 50.8719Z" stroke="#0096A3" stroke-width="0.2" mask="url(#path-1-outside-1_2001_8)"></path></svg>