<svg width="68" height="62" viewBox="0 0 68 62" fill="none" xmlns="http://www.w3.org/2000/svg"><mask id="path-1-outside-1_2001_36" maskUnits="userSpaceOnUse" x="0" y="0" width="68" height="62" fill="black"><rect fill="white" width="68" height="62"></rect><path fill-rule="evenodd" clip-rule="evenodd" d="M37.7271 40.8522C38.2294 40.8522 38.6433 41.2619 38.6433 41.7649V47.3762C38.6433 47.8767 38.232 48.289 37.7271 48.289C37.2222 48.289 36.8109 47.8793 36.8109 47.3762V41.7675C36.8109 41.2567 37.2222 40.8522 37.7271 40.8522ZM22.5142 47.3814V41.7701C22.5142 41.2697 22.1029 40.8574 21.598 40.8574C21.0931 40.8574 20.6818 41.2671 20.6818 41.7701V47.3814C20.6818 47.8819 21.0931 48.2942 21.598 48.2942C22.1029 48.2942 22.5142 47.8845 22.5142 47.3814ZM13.8289 19.6983H4.20916C2.44191 19.6983 1 18.2695 1 16.5011V4.19719C1 2.43652 2.4341 1 4.20916 1H21.3768C23.144 1 24.5859 2.42875 24.5859 4.19719V16.5089C24.5859 18.2695 23.1518 19.7061 21.3768 19.7061H19.9583V24.2594C19.9583 24.638 19.7188 24.9829 19.3649 25.1125C19.2581 25.154 19.1488 25.1696 19.0421 25.1696C18.787 25.1696 18.5294 25.0633 18.3498 24.8584L13.8289 19.6957V19.6983ZM4.20916 17.8754H14.2505C14.516 17.8754 14.7684 17.9921 14.9428 18.1866L18.126 21.822V18.7881C18.126 18.2877 18.5372 17.8754 19.0421 17.8754H21.3742C22.1342 17.8754 22.7432 17.2583 22.7432 16.5115V4.19978C22.7432 3.44262 22.1237 2.82548 21.3742 2.82548H4.20916C3.44917 2.82548 2.84013 3.44262 2.84013 4.19978V16.5115C2.82972 17.2583 3.44917 17.8754 4.20916 17.8754ZM44.4291 27.4644V16.3455C44.4291 14.7015 45.7669 13.3687 47.4171 13.3687H62.9345C64.5847 13.3687 65.9225 14.7015 65.9225 16.3455V27.4644C65.9225 29.1084 64.5847 30.4412 62.9345 30.4412H61.7399V34.4682C61.7399 34.8468 61.5004 35.1916 61.1465 35.3213C61.0397 35.3628 60.9304 35.3783 60.8237 35.3783C60.5687 35.3783 60.311 35.272 60.1314 35.0672L56.0711 30.4412H47.4197C45.7695 30.4412 44.4317 29.1032 44.4317 27.4644H44.4291ZM46.2589 27.4644C46.2589 28.0971 46.7768 28.6131 47.4119 28.6131H56.4772C56.7426 28.6131 56.9951 28.7298 57.1695 28.9243L59.8919 32.0333V29.5259C59.8919 29.0254 60.3032 28.6131 60.8081 28.6131H62.9189C63.554 28.6131 64.0719 28.0971 64.0719 27.4644L64.0771 16.3455C64.0771 15.7128 63.5592 15.1968 62.9241 15.1968H47.4145C46.7794 15.1942 46.2615 15.7102 46.2615 16.3429V27.4644H46.2589ZM40.5589 54.1544C40.5589 54.6549 40.1476 55.0672 39.6427 55.0672H12.3921C11.8898 55.0672 11.476 54.6575 11.476 54.1544V50.003C11.476 49.5025 11.8872 49.0902 12.3921 49.0902H28.4536L25.8639 45.4807C25.7311 45.2915 25.6661 45.0529 25.6999 44.8221L27.4333 32.3938H27.4229L23.2742 33.405C21.9468 33.7421 19.9166 34.2581 18.9276 34.8441C17.8631 35.4613 17.4935 35.9929 17.3347 37.935C17.176 40.8107 17.1603 43.7149 17.2853 47.3451C17.3009 47.8456 16.9053 48.2734 16.4029 48.289C15.9006 48.3045 15.4712 47.9104 15.4556 47.41C15.3332 43.7201 15.3488 40.7614 15.505 37.8261V37.8106C15.695 35.3705 16.2988 34.2685 17.9958 33.2728C19.128 32.6141 20.9265 32.1241 22.8291 31.6392L26.0981 30.8431C25.5125 30.3893 24.9841 29.8318 24.5313 29.1732C22.8083 26.6917 22.4933 23.2637 23.7713 20.847C24.867 18.7674 26.9648 17.6239 29.6795 17.6239C32.3941 17.6239 34.4867 18.7674 35.5877 20.847C36.8578 23.2637 36.5533 26.6917 34.8277 29.1732C34.3722 29.8318 33.8386 30.3893 33.253 30.8431L36.5116 31.6392C38.4246 32.1241 40.2231 32.6193 41.3553 33.2728C43.0549 34.2685 43.6561 35.3705 43.8461 37.8106V37.8261C44.0101 40.7614 44.0257 43.7201 43.8956 47.41C43.88 47.9052 43.4739 48.289 42.9794 48.289H42.9482C42.4459 48.2734 42.0502 47.8534 42.0659 47.3451C42.1882 43.7097 42.1726 40.8107 42.0164 37.935C41.868 35.9955 41.4881 35.4587 40.4235 34.8441C39.4241 34.2607 37.4044 33.7421 36.0666 33.405L31.91 32.386H31.8996L33.633 44.8143C33.6642 45.0451 33.607 45.2837 33.469 45.473L30.8689 49.0773H41.9071C42.4094 49.0773 42.8232 49.487 42.8232 49.99C42.8232 50.4931 42.412 50.9028 41.9071 50.9028H13.3187V53.2261H39.6453C40.1476 53.2287 40.5615 53.641 40.5615 54.1518L40.5589 54.1544ZM29.604 30.2778H29.7367C31.098 30.2519 32.3603 29.4973 33.3077 28.1334C34.6351 26.2094 34.9084 23.5074 33.9532 21.6897C33.1775 20.2195 31.7018 19.4468 29.6691 19.4468C27.6363 19.4468 26.1632 20.2195 25.385 21.6897C24.4272 23.5074 24.7031 26.2094 26.0304 28.1334C26.9778 29.4973 28.2402 30.2519 29.604 30.2778ZM29.6691 47.6174L31.7564 44.708L29.9996 32.1085C29.9085 32.1085 29.82 32.0981 29.7289 32.0981H29.6222C29.5311 32.0981 29.4426 32.0981 29.3567 32.1085L27.5999 44.708L29.6665 47.6174H29.6691ZM67 58.0906V60.0873C67 60.5877 66.5888 61 66.0838 61H42.0008C41.4985 61 41.0846 60.5903 41.0846 60.0873V58.0076C41.3735 54.8027 42.8519 51.8285 45.2412 49.6399C46.6753 48.3227 48.3775 47.3633 50.2072 46.8058C48.492 45.5974 47.3676 43.6164 47.3676 41.363C47.3676 37.6965 50.3608 34.7145 54.041 34.7145C57.7213 34.7145 60.7144 37.6965 60.7144 41.363C60.7144 43.606 59.5926 45.5948 57.8748 46.8058C59.7046 47.3633 61.3963 48.3279 62.8408 49.6399C65.2327 51.8259 66.7111 54.8027 66.9974 58.0076C66.9948 58.0388 66.9948 58.0647 66.9948 58.0906H67ZM54.0384 46.1886C56.7088 46.1886 58.8821 44.0286 58.8821 41.363C58.8821 38.6974 56.714 36.5374 54.0384 36.5374C51.3628 36.5374 49.1947 38.6974 49.1947 41.363C49.2051 44.0286 51.3732 46.1886 54.0384 46.1886ZM65.1703 58.1321C64.6341 52.3782 59.8555 48.053 54.0488 48.053C48.2421 48.053 43.4661 52.3834 42.9274 58.1321V59.1693H65.1755V58.1321H65.1677H65.1703ZM15.4113 16.4259L12.7956 14.9868L10.1798 16.4259C9.70873 16.68 9.14914 16.6463 8.70928 16.3352C8.26942 16.024 8.06381 15.4976 8.16531 14.9712L8.7249 12.0463L6.54642 10.0082C6.15861 9.63996 6.01025 9.09542 6.18203 8.5846C6.346 8.07377 6.78587 7.72112 7.31422 7.65629L10.2761 7.28808L11.5463 4.59133C11.7779 4.10644 12.249 3.80046 12.7826 3.80046C13.3161 3.80046 13.7976 4.10644 14.0189 4.59133L15.289 7.28808L18.2509 7.65629C18.787 7.72112 19.2165 8.08414 19.3831 8.5846C19.547 9.09542 19.4091 9.63736 19.0187 10.0082L16.8402 12.0463L17.3998 14.9712C17.4987 15.4976 17.2931 16.0136 16.8558 16.3352C16.6164 16.5089 16.3379 16.5996 16.0568 16.5996C15.8512 16.5996 15.6195 16.5426 15.4113 16.4259ZM13.2328 13.1483L15.4269 14.3567L14.9558 11.9011C14.8986 11.5951 14.9975 11.2762 15.2265 11.0635L17.0562 9.35472L14.5654 9.04355C14.2531 9.00206 13.9876 8.81278 13.8471 8.52754L12.7826 6.26643L11.7232 8.51977C11.5905 8.8076 11.3198 8.99429 11.0049 9.03578L8.51408 9.34695L10.3438 11.0557C10.5754 11.271 10.6717 11.5821 10.6145 11.8933L10.1434 14.3489L12.3375 13.1405C12.478 13.0679 12.6264 13.0239 12.7826 13.0239C12.9439 13.029 13.0923 13.0731 13.2302 13.1457L13.2328 13.1483ZM60.4437 20.9896H55.1706C54.6683 20.9896 54.2544 21.3993 54.2544 21.9024C54.2544 22.4054 54.6657 22.8151 55.1706 22.8151H60.4437C60.9461 22.8151 61.3599 22.4054 61.3599 21.9024C61.3599 21.3993 60.9487 20.9896 60.4437 20.9896ZM49.8975 19.0915H60.4411C60.9435 19.0915 61.3573 18.6818 61.3573 18.1788C61.3573 17.6757 60.9461 17.266 60.4411 17.266H49.8975C49.3951 17.2634 48.9813 17.6731 48.9813 18.1736C48.9813 18.6741 49.3925 19.0889 49.8975 19.0889V19.0915ZM49.8975 22.8229H51.7376C52.2399 22.8229 52.6538 22.4132 52.6538 21.9102C52.6538 21.4071 52.2425 20.9974 51.7376 20.9974H49.8975C49.3951 20.9974 48.9813 21.4071 48.9813 21.9102C48.9813 22.4132 49.3925 22.8229 49.8975 22.8229ZM49.8975 26.5439H60.4411C60.9435 26.5439 61.3573 26.1342 61.3573 25.6311C61.3573 25.1281 60.9461 24.7184 60.4411 24.7184H49.8975C49.3951 24.7184 48.9813 25.1281 48.9813 25.6311C48.9813 26.1342 49.3925 26.5439 49.8975 26.5439Z"></path></mask><path fill-rule="evenodd" clip-rule="evenodd" d="M37.7271 40.8522C38.2294 40.8522 38.6433 41.2619 38.6433 41.7649V47.3762C38.6433 47.8767 38.232 48.289 37.7271 48.289C37.2222 48.289 36.8109 47.8793 36.8109 47.3762V41.7675C36.8109 41.2567 37.2222 40.8522 37.7271 40.8522ZM22.5142 47.3814V41.7701C22.5142 41.2697 22.1029 40.8574 21.598 40.8574C21.0931 40.8574 20.6818 41.2671 20.6818 41.7701V47.3814C20.6818 47.8819 21.0931 48.2942 21.598 48.2942C22.1029 48.2942 22.5142 47.8845 22.5142 47.3814ZM13.8289 19.6983H4.20916C2.44191 19.6983 1 18.2695 1 16.5011V4.19719C1 2.43652 2.4341 1 4.20916 1H21.3768C23.144 1 24.5859 2.42875 24.5859 4.19719V16.5089C24.5859 18.2695 23.1518 19.7061 21.3768 19.7061H19.9583V24.2594C19.9583 24.638 19.7188 24.9829 19.3649 25.1125C19.2581 25.154 19.1488 25.1696 19.0421 25.1696C18.787 25.1696 18.5294 25.0633 18.3498 24.8584L13.8289 19.6957V19.6983ZM4.20916 17.8754H14.2505C14.516 17.8754 14.7684 17.9921 14.9428 18.1866L18.126 21.822V18.7881C18.126 18.2877 18.5372 17.8754 19.0421 17.8754H21.3742C22.1342 17.8754 22.7432 17.2583 22.7432 16.5115V4.19978C22.7432 3.44262 22.1237 2.82548 21.3742 2.82548H4.20916C3.44917 2.82548 2.84013 3.44262 2.84013 4.19978V16.5115C2.82972 17.2583 3.44917 17.8754 4.20916 17.8754ZM44.4291 27.4644V16.3455C44.4291 14.7015 45.7669 13.3687 47.4171 13.3687H62.9345C64.5847 13.3687 65.9225 14.7015 65.9225 16.3455V27.4644C65.9225 29.1084 64.5847 30.4412 62.9345 30.4412H61.7399V34.4682C61.7399 34.8468 61.5004 35.1916 61.1465 35.3213C61.0397 35.3628 60.9304 35.3783 60.8237 35.3783C60.5687 35.3783 60.311 35.272 60.1314 35.0672L56.0711 30.4412H47.4197C45.7695 30.4412 44.4317 29.1032 44.4317 27.4644H44.4291ZM46.2589 27.4644C46.2589 28.0971 46.7768 28.6131 47.4119 28.6131H56.4772C56.7426 28.6131 56.9951 28.7298 57.1695 28.9243L59.8919 32.0333V29.5259C59.8919 29.0254 60.3032 28.6131 60.8081 28.6131H62.9189C63.554 28.6131 64.0719 28.0971 64.0719 27.4644L64.0771 16.3455C64.0771 15.7128 63.5592 15.1968 62.9241 15.1968H47.4145C46.7794 15.1942 46.2615 15.7102 46.2615 16.3429V27.4644H46.2589ZM40.5589 54.1544C40.5589 54.6549 40.1476 55.0672 39.6427 55.0672H12.3921C11.8898 55.0672 11.476 54.6575 11.476 54.1544V50.003C11.476 49.5025 11.8872 49.0902 12.3921 49.0902H28.4536L25.8639 45.4807C25.7311 45.2915 25.6661 45.0529 25.6999 44.8221L27.4333 32.3938H27.4229L23.2742 33.405C21.9468 33.7421 19.9166 34.2581 18.9276 34.8441C17.8631 35.4613 17.4935 35.9929 17.3347 37.935C17.176 40.8107 17.1603 43.7149 17.2853 47.3451C17.3009 47.8456 16.9053 48.2734 16.4029 48.289C15.9006 48.3045 15.4712 47.9104 15.4556 47.41C15.3332 43.7201 15.3488 40.7614 15.505 37.8261V37.8106C15.695 35.3705 16.2988 34.2685 17.9958 33.2728C19.128 32.6141 20.9265 32.1241 22.8291 31.6392L26.0981 30.8431C25.5125 30.3893 24.9841 29.8318 24.5313 29.1732C22.8083 26.6917 22.4933 23.2637 23.7713 20.847C24.867 18.7674 26.9648 17.6239 29.6795 17.6239C32.3941 17.6239 34.4867 18.7674 35.5877 20.847C36.8578 23.2637 36.5533 26.6917 34.8277 29.1732C34.3722 29.8318 33.8386 30.3893 33.253 30.8431L36.5116 31.6392C38.4246 32.1241 40.2231 32.6193 41.3553 33.2728C43.0549 34.2685 43.6561 35.3705 43.8461 37.8106V37.8261C44.0101 40.7614 44.0257 43.7201 43.8956 47.41C43.88 47.9052 43.4739 48.289 42.9794 48.289H42.9482C42.4459 48.2734 42.0502 47.8534 42.0659 47.3451C42.1882 43.7097 42.1726 40.8107 42.0164 37.935C41.868 35.9955 41.4881 35.4587 40.4235 34.8441C39.4241 34.2607 37.4044 33.7421 36.0666 33.405L31.91 32.386H31.8996L33.633 44.8143C33.6642 45.0451 33.607 45.2837 33.469 45.473L30.8689 49.0773H41.9071C42.4094 49.0773 42.8232 49.487 42.8232 49.99C42.8232 50.4931 42.412 50.9028 41.9071 50.9028H13.3187V53.2261H39.6453C40.1476 53.2287 40.5615 53.641 40.5615 54.1518L40.5589 54.1544ZM29.604 30.2778H29.7367C31.098 30.2519 32.3603 29.4973 33.3077 28.1334C34.6351 26.2094 34.9084 23.5074 33.9532 21.6897C33.1775 20.2195 31.7018 19.4468 29.6691 19.4468C27.6363 19.4468 26.1632 20.2195 25.385 21.6897C24.4272 23.5074 24.7031 26.2094 26.0304 28.1334C26.9778 29.4973 28.2402 30.2519 29.604 30.2778ZM29.6691 47.6174L31.7564 44.708L29.9996 32.1085C29.9085 32.1085 29.82 32.0981 29.7289 32.0981H29.6222C29.5311 32.0981 29.4426 32.0981 29.3567 32.1085L27.5999 44.708L29.6665 47.6174H29.6691ZM67 58.0906V60.0873C67 60.5877 66.5888 61 66.0838 61H42.0008C41.4985 61 41.0846 60.5903 41.0846 60.0873V58.0076C41.3735 54.8027 42.8519 51.8285 45.2412 49.6399C46.6753 48.3227 48.3775 47.3633 50.2072 46.8058C48.492 45.5974 47.3676 43.6164 47.3676 41.363C47.3676 37.6965 50.3608 34.7145 54.041 34.7145C57.7213 34.7145 60.7144 37.6965 60.7144 41.363C60.7144 43.606 59.5926 45.5948 57.8748 46.8058C59.7046 47.3633 61.3963 48.3279 62.8408 49.6399C65.2327 51.8259 66.7111 54.8027 66.9974 58.0076C66.9948 58.0388 66.9948 58.0647 66.9948 58.0906H67ZM54.0384 46.1886C56.7088 46.1886 58.8821 44.0286 58.8821 41.363C58.8821 38.6974 56.714 36.5374 54.0384 36.5374C51.3628 36.5374 49.1947 38.6974 49.1947 41.363C49.2051 44.0286 51.3732 46.1886 54.0384 46.1886ZM65.1703 58.1321C64.6341 52.3782 59.8555 48.053 54.0488 48.053C48.2421 48.053 43.4661 52.3834 42.9274 58.1321V59.1693H65.1755V58.1321H65.1677H65.1703ZM15.4113 16.4259L12.7956 14.9868L10.1798 16.4259C9.70873 16.68 9.14914 16.6463 8.70928 16.3352C8.26942 16.024 8.06381 15.4976 8.16531 14.9712L8.7249 12.0463L6.54642 10.0082C6.15861 9.63996 6.01025 9.09542 6.18203 8.5846C6.346 8.07377 6.78587 7.72112 7.31422 7.65629L10.2761 7.28808L11.5463 4.59133C11.7779 4.10644 12.249 3.80046 12.7826 3.80046C13.3161 3.80046 13.7976 4.10644 14.0189 4.59133L15.289 7.28808L18.2509 7.65629C18.787 7.72112 19.2165 8.08414 19.3831 8.5846C19.547 9.09542 19.4091 9.63736 19.0187 10.0082L16.8402 12.0463L17.3998 14.9712C17.4987 15.4976 17.2931 16.0136 16.8558 16.3352C16.6164 16.5089 16.3379 16.5996 16.0568 16.5996C15.8512 16.5996 15.6195 16.5426 15.4113 16.4259ZM13.2328 13.1483L15.4269 14.3567L14.9558 11.9011C14.8986 11.5951 14.9975 11.2762 15.2265 11.0635L17.0562 9.35472L14.5654 9.04355C14.2531 9.00206 13.9876 8.81278 13.8471 8.52754L12.7826 6.26643L11.7232 8.51977C11.5905 8.8076 11.3198 8.99429 11.0049 9.03578L8.51408 9.34695L10.3438 11.0557C10.5754 11.271 10.6717 11.5821 10.6145 11.8933L10.1434 14.3489L12.3375 13.1405C12.478 13.0679 12.6264 13.0239 12.7826 13.0239C12.9439 13.029 13.0923 13.0731 13.2302 13.1457L13.2328 13.1483ZM60.4437 20.9896H55.1706C54.6683 20.9896 54.2544 21.3993 54.2544 21.9024C54.2544 22.4054 54.6657 22.8151 55.1706 22.8151H60.4437C60.9461 22.8151 61.3599 22.4054 61.3599 21.9024C61.3599 21.3993 60.9487 20.9896 60.4437 20.9896ZM49.8975 19.0915H60.4411C60.9435 19.0915 61.3573 18.6818 61.3573 18.1788C61.3573 17.6757 60.9461 17.266 60.4411 17.266H49.8975C49.3951 17.2634 48.9813 17.6731 48.9813 18.1736C48.9813 18.6741 49.3925 19.0889 49.8975 19.0889V19.0915ZM49.8975 22.8229H51.7376C52.2399 22.8229 52.6538 22.4132 52.6538 21.9102C52.6538 21.4071 52.2425 20.9974 51.7376 20.9974H49.8975C49.3951 20.9974 48.9813 21.4071 48.9813 21.9102C48.9813 22.4132 49.3925 22.8229 49.8975 22.8229ZM49.8975 26.5439H60.4411C60.9435 26.5439 61.3573 26.1342 61.3573 25.6311C61.3573 25.1281 60.9461 24.7184 60.4411 24.7184H49.8975C49.3951 24.7184 48.9813 25.1281 48.9813 25.6311C48.9813 26.1342 49.3925 26.5439 49.8975 26.5439Z" fill="#0096A3"></path><path fill-rule="evenodd" clip-rule="evenodd" d="M37.7271 40.8522C38.2294 40.8522 38.6433 41.2619 38.6433 41.7649V47.3762C38.6433 47.8767 38.232 48.289 37.7271 48.289C37.2222 48.289 36.8109 47.8793 36.8109 47.3762V41.7675C36.8109 41.2567 37.2222 40.8522 37.7271 40.8522ZM22.5142 47.3814V41.7701C22.5142 41.2697 22.1029 40.8574 21.598 40.8574C21.0931 40.8574 20.6818 41.2671 20.6818 41.7701V47.3814C20.6818 47.8819 21.0931 48.2942 21.598 48.2942C22.1029 48.2942 22.5142 47.8845 22.5142 47.3814ZM13.8289 19.6983H4.20916C2.44191 19.6983 1 18.2695 1 16.5011V4.19719C1 2.43652 2.4341 1 4.20916 1H21.3768C23.144 1 24.5859 2.42875 24.5859 4.19719V16.5089C24.5859 18.2695 23.1518 19.7061 21.3768 19.7061H19.9583V24.2594C19.9583 24.638 19.7188 24.9829 19.3649 25.1125C19.2581 25.154 19.1488 25.1696 19.0421 25.1696C18.787 25.1696 18.5294 25.0633 18.3498 24.8584L13.8289 19.6957V19.6983ZM4.20916 17.8754H14.2505C14.516 17.8754 14.7684 17.9921 14.9428 18.1866L18.126 21.822V18.7881C18.126 18.2877 18.5372 17.8754 19.0421 17.8754H21.3742C22.1342 17.8754 22.7432 17.2583 22.7432 16.5115V4.19978C22.7432 3.44262 22.1237 2.82548 21.3742 2.82548H4.20916C3.44917 2.82548 2.84013 3.44262 2.84013 4.19978V16.5115C2.82972 17.2583 3.44917 17.8754 4.20916 17.8754ZM44.4291 27.4644V16.3455C44.4291 14.7015 45.7669 13.3687 47.4171 13.3687H62.9345C64.5847 13.3687 65.9225 14.7015 65.9225 16.3455V27.4644C65.9225 29.1084 64.5847 30.4412 62.9345 30.4412H61.7399V34.4682C61.7399 34.8468 61.5004 35.1916 61.1465 35.3213C61.0397 35.3628 60.9304 35.3783 60.8237 35.3783C60.5687 35.3783 60.311 35.272 60.1314 35.0672L56.0711 30.4412H47.4197C45.7695 30.4412 44.4317 29.1032 44.4317 27.4644H44.4291ZM46.2589 27.4644C46.2589 28.0971 46.7768 28.6131 47.4119 28.6131H56.4772C56.7426 28.6131 56.9951 28.7298 57.1695 28.9243L59.8919 32.0333V29.5259C59.8919 29.0254 60.3032 28.6131 60.8081 28.6131H62.9189C63.554 28.6131 64.0719 28.0971 64.0719 27.4644L64.0771 16.3455C64.0771 15.7128 63.5592 15.1968 62.9241 15.1968H47.4145C46.7794 15.1942 46.2615 15.7102 46.2615 16.3429V27.4644H46.2589ZM40.5589 54.1544C40.5589 54.6549 40.1476 55.0672 39.6427 55.0672H12.3921C11.8898 55.0672 11.476 54.6575 11.476 54.1544V50.003C11.476 49.5025 11.8872 49.0902 12.3921 49.0902H28.4536L25.8639 45.4807C25.7311 45.2915 25.6661 45.0529 25.6999 44.8221L27.4333 32.3938H27.4229L23.2742 33.405C21.9468 33.7421 19.9166 34.2581 18.9276 34.8441C17.8631 35.4613 17.4935 35.9929 17.3347 37.935C17.176 40.8107 17.1603 43.7149 17.2853 47.3451C17.3009 47.8456 16.9053 48.2734 16.4029 48.289C15.9006 48.3045 15.4712 47.9104 15.4556 47.41C15.3332 43.7201 15.3488 40.7614 15.505 37.8261V37.8106C15.695 35.3705 16.2988 34.2685 17.9958 33.2728C19.128 32.6141 20.9265 32.1241 22.8291 31.6392L26.0981 30.8431C25.5125 30.3893 24.9841 29.8318 24.5313 29.1732C22.8083 26.6917 22.4933 23.2637 23.7713 20.847C24.867 18.7674 26.9648 17.6239 29.6795 17.6239C32.3941 17.6239 34.4867 18.7674 35.5877 20.847C36.8578 23.2637 36.5533 26.6917 34.8277 29.1732C34.3722 29.8318 33.8386 30.3893 33.253 30.8431L36.5116 31.6392C38.4246 32.1241 40.2231 32.6193 41.3553 33.2728C43.0549 34.2685 43.6561 35.3705 43.8461 37.8106V37.8261C44.0101 40.7614 44.0257 43.7201 43.8956 47.41C43.88 47.9052 43.4739 48.289 42.9794 48.289H42.9482C42.4459 48.2734 42.0502 47.8534 42.0659 47.3451C42.1882 43.7097 42.1726 40.8107 42.0164 37.935C41.868 35.9955 41.4881 35.4587 40.4235 34.8441C39.4241 34.2607 37.4044 33.7421 36.0666 33.405L31.91 32.386H31.8996L33.633 44.8143C33.6642 45.0451 33.607 45.2837 33.469 45.473L30.8689 49.0773H41.9071C42.4094 49.0773 42.8232 49.487 42.8232 49.99C42.8232 50.4931 42.412 50.9028 41.9071 50.9028H13.3187V53.2261H39.6453C40.1476 53.2287 40.5615 53.641 40.5615 54.1518L40.5589 54.1544ZM29.604 30.2778H29.7367C31.098 30.2519 32.3603 29.4973 33.3077 28.1334C34.6351 26.2094 34.9084 23.5074 33.9532 21.6897C33.1775 20.2195 31.7018 19.4468 29.6691 19.4468C27.6363 19.4468 26.1632 20.2195 25.385 21.6897C24.4272 23.5074 24.7031 26.2094 26.0304 28.1334C26.9778 29.4973 28.2402 30.2519 29.604 30.2778ZM29.6691 47.6174L31.7564 44.708L29.9996 32.1085C29.9085 32.1085 29.82 32.0981 29.7289 32.0981H29.6222C29.5311 32.0981 29.4426 32.0981 29.3567 32.1085L27.5999 44.708L29.6665 47.6174H29.6691ZM67 58.0906V60.0873C67 60.5877 66.5888 61 66.0838 61H42.0008C41.4985 61 41.0846 60.5903 41.0846 60.0873V58.0076C41.3735 54.8027 42.8519 51.8285 45.2412 49.6399C46.6753 48.3227 48.3775 47.3633 50.2072 46.8058C48.492 45.5974 47.3676 43.6164 47.3676 41.363C47.3676 37.6965 50.3608 34.7145 54.041 34.7145C57.7213 34.7145 60.7144 37.6965 60.7144 41.363C60.7144 43.606 59.5926 45.5948 57.8748 46.8058C59.7046 47.3633 61.3963 48.3279 62.8408 49.6399C65.2327 51.8259 66.7111 54.8027 66.9974 58.0076C66.9948 58.0388 66.9948 58.0647 66.9948 58.0906H67ZM54.0384 46.1886C56.7088 46.1886 58.8821 44.0286 58.8821 41.363C58.8821 38.6974 56.714 36.5374 54.0384 36.5374C51.3628 36.5374 49.1947 38.6974 49.1947 41.363C49.2051 44.0286 51.3732 46.1886 54.0384 46.1886ZM65.1703 58.1321C64.6341 52.3782 59.8555 48.053 54.0488 48.053C48.2421 48.053 43.4661 52.3834 42.9274 58.1321V59.1693H65.1755V58.1321H65.1677H65.1703ZM15.4113 16.4259L12.7956 14.9868L10.1798 16.4259C9.70873 16.68 9.14914 16.6463 8.70928 16.3352C8.26942 16.024 8.06381 15.4976 8.16531 14.9712L8.7249 12.0463L6.54642 10.0082C6.15861 9.63996 6.01025 9.09542 6.18203 8.5846C6.346 8.07377 6.78587 7.72112 7.31422 7.65629L10.2761 7.28808L11.5463 4.59133C11.7779 4.10644 12.249 3.80046 12.7826 3.80046C13.3161 3.80046 13.7976 4.10644 14.0189 4.59133L15.289 7.28808L18.2509 7.65629C18.787 7.72112 19.2165 8.08414 19.3831 8.5846C19.547 9.09542 19.4091 9.63736 19.0187 10.0082L16.8402 12.0463L17.3998 14.9712C17.4987 15.4976 17.2931 16.0136 16.8558 16.3352C16.6164 16.5089 16.3379 16.5996 16.0568 16.5996C15.8512 16.5996 15.6195 16.5426 15.4113 16.4259ZM13.2328 13.1483L15.4269 14.3567L14.9558 11.9011C14.8986 11.5951 14.9975 11.2762 15.2265 11.0635L17.0562 9.35472L14.5654 9.04355C14.2531 9.00206 13.9876 8.81278 13.8471 8.52754L12.7826 6.26643L11.7232 8.51977C11.5905 8.8076 11.3198 8.99429 11.0049 9.03578L8.51408 9.34695L10.3438 11.0557C10.5754 11.271 10.6717 11.5821 10.6145 11.8933L10.1434 14.3489L12.3375 13.1405C12.478 13.0679 12.6264 13.0239 12.7826 13.0239C12.9439 13.029 13.0923 13.0731 13.2302 13.1457L13.2328 13.1483ZM60.4437 20.9896H55.1706C54.6683 20.9896 54.2544 21.3993 54.2544 21.9024C54.2544 22.4054 54.6657 22.8151 55.1706 22.8151H60.4437C60.9461 22.8151 61.3599 22.4054 61.3599 21.9024C61.3599 21.3993 60.9487 20.9896 60.4437 20.9896ZM49.8975 19.0915H60.4411C60.9435 19.0915 61.3573 18.6818 61.3573 18.1788C61.3573 17.6757 60.9461 17.266 60.4411 17.266H49.8975C49.3951 17.2634 48.9813 17.6731 48.9813 18.1736C48.9813 18.6741 49.3925 19.0889 49.8975 19.0889V19.0915ZM49.8975 22.8229H51.7376C52.2399 22.8229 52.6538 22.4132 52.6538 21.9102C52.6538 21.4071 52.2425 20.9974 51.7376 20.9974H49.8975C49.3951 20.9974 48.9813 21.4071 48.9813 21.9102C48.9813 22.4132 49.3925 22.8229 49.8975 22.8229ZM49.8975 26.5439H60.4411C60.9435 26.5439 61.3573 26.1342 61.3573 25.6311C61.3573 25.1281 60.9461 24.7184 60.4411 24.7184H49.8975C49.3951 24.7184 48.9813 25.1281 48.9813 25.6311C48.9813 26.1342 49.3925 26.5439 49.8975 26.5439Z" stroke="#0096A3" stroke-width="0.1" mask="url(#path-1-outside-1_2001_36)"></path></svg>