<svg width="76" height="62" viewBox="0 0 76 62" fill="none" xmlns="http://www.w3.org/2000/svg"><mask id="path-1-outside-1_2002_139" maskUnits="userSpaceOnUse" x="0" y="0" width="76" height="62" fill="black"><rect fill="white" width="76" height="62"></rect><path d="M31.4856 22.6187C31.3345 22.1355 31.6127 21.6205 32.0976 21.47C32.5985 21.3195 33.0754 21.1532 33.5285 20.9868C34.0055 20.8046 34.5381 21.0422 34.7209 21.5176C34.9038 21.9929 34.6653 22.5236 34.1883 22.7058C33.7034 22.888 33.1787 23.0702 32.6382 23.2366C32.5508 23.2604 32.4554 23.2762 32.3679 23.2762C31.9705 23.2683 31.6048 23.0148 31.4856 22.6187ZM20.436 24.8447C23.4011 24.8447 26.239 24.5992 28.8782 24.1238C29.379 24.0367 29.7129 23.5535 29.6175 23.0544C29.53 22.5553 29.0451 22.2226 28.5443 22.3177C26.0164 22.7771 23.2819 23.0069 20.4281 23.0069C19.9193 23.0069 19.506 23.4188 19.506 23.9258C19.5139 24.4328 19.9273 24.8447 20.436 24.8447ZM28.5523 36.0541C26.0244 36.5136 23.2898 36.7433 20.436 36.7433C19.9273 36.7433 19.5139 37.1553 19.5139 37.6623C19.5139 38.1693 19.9273 38.5812 20.436 38.5812C23.4011 38.5812 26.239 38.3356 28.8782 37.8603C29.379 37.7732 29.7129 37.2899 29.6175 36.7909C29.53 36.2918 29.0531 35.9591 28.5523 36.0541ZM33.5206 34.7153C33.0675 34.8896 32.5905 35.0481 32.0897 35.1986C31.6048 35.3491 31.3266 35.864 31.4776 36.3472C31.5968 36.7433 31.9625 36.9968 32.36 36.9968C32.4474 36.9968 32.5428 36.981 32.6303 36.9572C33.1708 36.7909 33.6875 36.6166 34.1804 36.4265C34.6573 36.2443 34.8958 35.7135 34.713 35.2382C34.5301 34.7787 33.9975 34.5411 33.5206 34.7153ZM33.5206 48.4518C33.0675 48.6261 32.5905 48.7845 32.0897 48.935C31.6048 49.0856 31.3266 49.6005 31.4776 50.0837C31.5968 50.4798 31.9625 50.7333 32.36 50.7333C32.4474 50.7333 32.5428 50.7175 32.6303 50.6937C33.1708 50.5273 33.6875 50.3531 34.1804 50.1629C34.6573 49.9807 34.8958 49.45 34.713 48.9746C34.5301 48.5073 33.9975 48.2696 33.5206 48.4518ZM28.5523 49.7827C26.0244 50.2421 23.2898 50.4719 20.436 50.4719C19.9273 50.4719 19.5139 50.8838 19.5139 51.3908C19.5139 51.8978 19.9273 52.3097 20.436 52.3097C23.4011 52.3097 26.239 52.0642 28.8782 51.5889C29.379 51.5017 29.7129 51.0185 29.6175 50.5194C29.53 50.0203 29.0531 49.6876 28.5523 49.7827ZM55.8263 12.0589V8.85054H47.8373V30.0811H55.8263V26.8727C55.8263 25.328 57.0902 24.0684 58.6404 24.0684H72.178C73.7281 24.0684 74.9921 25.328 74.9921 26.8727V35.1273C74.9921 36.672 73.7281 37.9316 72.178 37.9316H58.6483C57.0982 37.9316 55.8342 36.672 55.8342 35.1273V31.9189H47.8373V53.1495H55.8263V49.9411C55.8263 48.3964 57.0902 47.1368 58.6404 47.1368H72.178C73.7281 47.1368 74.9921 48.3964 74.9921 49.9411V58.1957C74.9921 59.7404 73.7281 61 72.178 61H58.6483C57.0982 61 55.8342 59.7404 55.8342 58.1957V54.9873H46.9231C46.4143 54.9873 46.001 54.5754 46.001 54.0684V31.9189H39.888V51.1373C39.888 53.3475 37.7496 55.3359 33.8544 56.746C30.2614 58.0531 25.4918 58.766 20.444 58.766C15.3962 58.766 10.6266 58.0452 7.03352 56.746C3.14631 55.3359 1 53.3475 1 51.1373V10.8627C1 8.66042 3.14631 6.67204 7.04147 5.26195C10.6425 3.95485 15.4041 3.23396 20.444 3.23396C25.4838 3.23396 30.2455 3.95485 33.8465 5.26195C37.7416 6.67204 39.888 8.66042 39.888 10.8627V30.0731H46.001V7.93161C46.001 7.42461 46.4143 7.01267 46.9231 7.01267H55.8342V3.80433C55.8342 2.25957 57.0982 1 58.6483 1H72.186C73.7361 1 75 2.25957 75 3.80433V12.0589C75 13.6036 73.7361 14.8632 72.186 14.8632H58.6483C57.0902 14.8711 55.8263 13.6116 55.8263 12.0589ZM2.83629 10.8627C2.83629 12.1936 4.64078 13.6433 7.66946 14.7444C11.0797 15.9802 15.6108 16.6615 20.444 16.6615C25.2771 16.6615 29.8083 15.9802 33.2185 14.7444C36.2392 13.6512 38.0437 12.2015 38.0517 10.8706C38.0517 9.53974 36.2472 8.09004 33.2185 6.98891C29.8083 5.7531 25.2771 5.07182 20.444 5.07182C15.6108 5.07182 11.0797 5.7531 7.66946 6.98891C4.64078 8.08212 2.83629 9.53182 2.83629 10.8627ZM2.83629 24.2902C2.83629 27.0312 10.0622 30.0811 20.436 30.0811C30.8099 30.0811 38.0358 27.0312 38.0358 24.2902V14.2136C37.0262 15.0613 35.6112 15.8297 33.8385 16.4713C30.2375 17.7785 25.4759 18.4993 20.436 18.4993C15.3962 18.4993 10.6345 17.7785 7.03352 16.4713C5.25287 15.8297 3.84585 15.0613 2.83629 14.2136V24.2902ZM38.0437 51.1294V41.0687C37.0342 41.9163 35.6271 42.6847 33.8544 43.3264C30.2614 44.6335 25.4918 45.3464 20.444 45.3464C15.3882 45.3464 10.6266 44.6256 7.03352 43.3264C5.26082 42.6847 3.8538 41.9242 2.84424 41.0687V51.1373C2.84424 53.8783 10.0701 56.9282 20.444 56.9282C30.8099 56.9282 38.0437 53.8703 38.0437 51.1294ZM38.0437 37.7098V27.6411C37.0342 28.4888 35.6271 29.2572 33.8544 29.8989C30.2614 31.206 25.4918 31.9189 20.444 31.9189C15.3882 31.9189 10.6266 31.198 7.03352 29.8989C5.26082 29.2572 3.8538 28.4967 2.84424 27.6411V37.7098C2.84424 40.4508 10.0701 43.5007 20.444 43.5007C30.8099 43.5007 38.0437 40.4508 38.0437 37.7098ZM57.6705 58.1957C57.6705 58.7344 58.1077 59.1701 58.6483 59.1701H72.186C72.7265 59.1701 73.1637 58.7344 73.1637 58.1957V49.9411C73.1637 49.4024 72.7265 48.9667 72.186 48.9667H58.6483C58.1077 48.9667 57.6705 49.4024 57.6705 49.9411V58.1957ZM57.6705 35.1273C57.6705 35.666 58.1077 36.1017 58.6483 36.1017H72.186C72.7265 36.1017 73.1637 35.666 73.1637 35.1273V26.8727C73.1637 26.334 72.7265 25.8983 72.186 25.8983H58.6483C58.1077 25.8983 57.6705 26.334 57.6705 26.8727V35.1273ZM57.6705 12.0589C57.6705 12.5976 58.1077 13.0333 58.6483 13.0333H72.186C72.7265 13.0333 73.1637 12.5976 73.1637 12.0589V3.80433C73.1637 3.26565 72.7265 2.82994 72.186 2.82994H58.6483C58.1077 2.82994 57.6705 3.26565 57.6705 3.80433V12.0589ZM59.642 8.85054H64.8805C65.3893 8.85054 65.8027 8.4386 65.8027 7.93161C65.8027 7.42461 65.3893 7.01267 64.8805 7.01267H59.642C59.1332 7.01267 58.7198 7.42461 58.7198 7.93161C58.7198 8.4386 59.1332 8.85054 59.642 8.85054ZM68.4895 8.85054H71.1843C71.6931 8.85054 72.1065 8.4386 72.1065 7.93161C72.1065 7.42461 71.6931 7.01267 71.1843 7.01267H68.4895C67.9808 7.01267 67.5674 7.42461 67.5674 7.93161C67.5674 8.4386 67.9808 8.85054 68.4895 8.85054ZM68.4895 31.9189H71.1843C71.6931 31.9189 72.1065 31.507 72.1065 31C72.1065 30.493 71.6931 30.0811 71.1843 30.0811H68.4895C67.9808 30.0811 67.5674 30.493 67.5674 31C67.5674 31.507 67.9808 31.9189 68.4895 31.9189ZM59.642 31.9189H64.8805C65.3893 31.9189 65.8027 31.507 65.8027 31C65.8027 30.493 65.3893 30.0811 64.8805 30.0811H59.642C59.1332 30.0811 58.7198 30.493 58.7198 31C58.7198 31.507 59.1332 31.9189 59.642 31.9189ZM59.642 54.9873H64.8805C65.3893 54.9873 65.8027 54.5754 65.8027 54.0684C65.8027 53.5614 65.3893 53.1495 64.8805 53.1495H59.642C59.1332 53.1495 58.7198 53.5614 58.7198 54.0684C58.7198 54.5754 59.1332 54.9873 59.642 54.9873ZM68.4895 54.9873H71.1843C71.6931 54.9873 72.1065 54.5754 72.1065 54.0684C72.1065 53.5614 71.6931 53.1495 71.1843 53.1495H68.4895C67.9808 53.1495 67.5674 53.5614 67.5674 54.0684C67.5754 54.5754 67.9808 54.9873 68.4895 54.9873Z"></path></mask><path d="M31.4856 22.6187C31.3345 22.1355 31.6127 21.6205 32.0976 21.47C32.5985 21.3195 33.0754 21.1532 33.5285 20.9868C34.0055 20.8046 34.5381 21.0422 34.7209 21.5176C34.9038 21.9929 34.6653 22.5236 34.1883 22.7058C33.7034 22.888 33.1787 23.0702 32.6382 23.2366C32.5508 23.2604 32.4554 23.2762 32.3679 23.2762C31.9705 23.2683 31.6048 23.0148 31.4856 22.6187ZM20.436 24.8447C23.4011 24.8447 26.239 24.5992 28.8782 24.1238C29.379 24.0367 29.7129 23.5535 29.6175 23.0544C29.53 22.5553 29.0451 22.2226 28.5443 22.3177C26.0164 22.7771 23.2819 23.0069 20.4281 23.0069C19.9193 23.0069 19.506 23.4188 19.506 23.9258C19.5139 24.4328 19.9273 24.8447 20.436 24.8447ZM28.5523 36.0541C26.0244 36.5136 23.2898 36.7433 20.436 36.7433C19.9273 36.7433 19.5139 37.1553 19.5139 37.6623C19.5139 38.1693 19.9273 38.5812 20.436 38.5812C23.4011 38.5812 26.239 38.3356 28.8782 37.8603C29.379 37.7732 29.7129 37.2899 29.6175 36.7909C29.53 36.2918 29.0531 35.9591 28.5523 36.0541ZM33.5206 34.7153C33.0675 34.8896 32.5905 35.0481 32.0897 35.1986C31.6048 35.3491 31.3266 35.864 31.4776 36.3472C31.5968 36.7433 31.9625 36.9968 32.36 36.9968C32.4474 36.9968 32.5428 36.981 32.6303 36.9572C33.1708 36.7909 33.6875 36.6166 34.1804 36.4265C34.6573 36.2443 34.8958 35.7135 34.713 35.2382C34.5301 34.7787 33.9975 34.5411 33.5206 34.7153ZM33.5206 48.4518C33.0675 48.6261 32.5905 48.7845 32.0897 48.935C31.6048 49.0856 31.3266 49.6005 31.4776 50.0837C31.5968 50.4798 31.9625 50.7333 32.36 50.7333C32.4474 50.7333 32.5428 50.7175 32.6303 50.6937C33.1708 50.5273 33.6875 50.3531 34.1804 50.1629C34.6573 49.9807 34.8958 49.45 34.713 48.9746C34.5301 48.5073 33.9975 48.2696 33.5206 48.4518ZM28.5523 49.7827C26.0244 50.2421 23.2898 50.4719 20.436 50.4719C19.9273 50.4719 19.5139 50.8838 19.5139 51.3908C19.5139 51.8978 19.9273 52.3097 20.436 52.3097C23.4011 52.3097 26.239 52.0642 28.8782 51.5889C29.379 51.5017 29.7129 51.0185 29.6175 50.5194C29.53 50.0203 29.0531 49.6876 28.5523 49.7827ZM55.8263 12.0589V8.85054H47.8373V30.0811H55.8263V26.8727C55.8263 25.328 57.0902 24.0684 58.6404 24.0684H72.178C73.7281 24.0684 74.9921 25.328 74.9921 26.8727V35.1273C74.9921 36.672 73.7281 37.9316 72.178 37.9316H58.6483C57.0982 37.9316 55.8342 36.672 55.8342 35.1273V31.9189H47.8373V53.1495H55.8263V49.9411C55.8263 48.3964 57.0902 47.1368 58.6404 47.1368H72.178C73.7281 47.1368 74.9921 48.3964 74.9921 49.9411V58.1957C74.9921 59.7404 73.7281 61 72.178 61H58.6483C57.0982 61 55.8342 59.7404 55.8342 58.1957V54.9873H46.9231C46.4143 54.9873 46.001 54.5754 46.001 54.0684V31.9189H39.888V51.1373C39.888 53.3475 37.7496 55.3359 33.8544 56.746C30.2614 58.0531 25.4918 58.766 20.444 58.766C15.3962 58.766 10.6266 58.0452 7.03352 56.746C3.14631 55.3359 1 53.3475 1 51.1373V10.8627C1 8.66042 3.14631 6.67204 7.04147 5.26195C10.6425 3.95485 15.4041 3.23396 20.444 3.23396C25.4838 3.23396 30.2455 3.95485 33.8465 5.26195C37.7416 6.67204 39.888 8.66042 39.888 10.8627V30.0731H46.001V7.93161C46.001 7.42461 46.4143 7.01267 46.9231 7.01267H55.8342V3.80433C55.8342 2.25957 57.0982 1 58.6483 1H72.186C73.7361 1 75 2.25957 75 3.80433V12.0589C75 13.6036 73.7361 14.8632 72.186 14.8632H58.6483C57.0902 14.8711 55.8263 13.6116 55.8263 12.0589ZM2.83629 10.8627C2.83629 12.1936 4.64078 13.6433 7.66946 14.7444C11.0797 15.9802 15.6108 16.6615 20.444 16.6615C25.2771 16.6615 29.8083 15.9802 33.2185 14.7444C36.2392 13.6512 38.0437 12.2015 38.0517 10.8706C38.0517 9.53974 36.2472 8.09004 33.2185 6.98891C29.8083 5.7531 25.2771 5.07182 20.444 5.07182C15.6108 5.07182 11.0797 5.7531 7.66946 6.98891C4.64078 8.08212 2.83629 9.53182 2.83629 10.8627ZM2.83629 24.2902C2.83629 27.0312 10.0622 30.0811 20.436 30.0811C30.8099 30.0811 38.0358 27.0312 38.0358 24.2902V14.2136C37.0262 15.0613 35.6112 15.8297 33.8385 16.4713C30.2375 17.7785 25.4759 18.4993 20.436 18.4993C15.3962 18.4993 10.6345 17.7785 7.03352 16.4713C5.25287 15.8297 3.84585 15.0613 2.83629 14.2136V24.2902ZM38.0437 51.1294V41.0687C37.0342 41.9163 35.6271 42.6847 33.8544 43.3264C30.2614 44.6335 25.4918 45.3464 20.444 45.3464C15.3882 45.3464 10.6266 44.6256 7.03352 43.3264C5.26082 42.6847 3.8538 41.9242 2.84424 41.0687V51.1373C2.84424 53.8783 10.0701 56.9282 20.444 56.9282C30.8099 56.9282 38.0437 53.8703 38.0437 51.1294ZM38.0437 37.7098V27.6411C37.0342 28.4888 35.6271 29.2572 33.8544 29.8989C30.2614 31.206 25.4918 31.9189 20.444 31.9189C15.3882 31.9189 10.6266 31.198 7.03352 29.8989C5.26082 29.2572 3.8538 28.4967 2.84424 27.6411V37.7098C2.84424 40.4508 10.0701 43.5007 20.444 43.5007C30.8099 43.5007 38.0437 40.4508 38.0437 37.7098ZM57.6705 58.1957C57.6705 58.7344 58.1077 59.1701 58.6483 59.1701H72.186C72.7265 59.1701 73.1637 58.7344 73.1637 58.1957V49.9411C73.1637 49.4024 72.7265 48.9667 72.186 48.9667H58.6483C58.1077 48.9667 57.6705 49.4024 57.6705 49.9411V58.1957ZM57.6705 35.1273C57.6705 35.666 58.1077 36.1017 58.6483 36.1017H72.186C72.7265 36.1017 73.1637 35.666 73.1637 35.1273V26.8727C73.1637 26.334 72.7265 25.8983 72.186 25.8983H58.6483C58.1077 25.8983 57.6705 26.334 57.6705 26.8727V35.1273ZM57.6705 12.0589C57.6705 12.5976 58.1077 13.0333 58.6483 13.0333H72.186C72.7265 13.0333 73.1637 12.5976 73.1637 12.0589V3.80433C73.1637 3.26565 72.7265 2.82994 72.186 2.82994H58.6483C58.1077 2.82994 57.6705 3.26565 57.6705 3.80433V12.0589ZM59.642 8.85054H64.8805C65.3893 8.85054 65.8027 8.4386 65.8027 7.93161C65.8027 7.42461 65.3893 7.01267 64.8805 7.01267H59.642C59.1332 7.01267 58.7198 7.42461 58.7198 7.93161C58.7198 8.4386 59.1332 8.85054 59.642 8.85054ZM68.4895 8.85054H71.1843C71.6931 8.85054 72.1065 8.4386 72.1065 7.93161C72.1065 7.42461 71.6931 7.01267 71.1843 7.01267H68.4895C67.9808 7.01267 67.5674 7.42461 67.5674 7.93161C67.5674 8.4386 67.9808 8.85054 68.4895 8.85054ZM68.4895 31.9189H71.1843C71.6931 31.9189 72.1065 31.507 72.1065 31C72.1065 30.493 71.6931 30.0811 71.1843 30.0811H68.4895C67.9808 30.0811 67.5674 30.493 67.5674 31C67.5674 31.507 67.9808 31.9189 68.4895 31.9189ZM59.642 31.9189H64.8805C65.3893 31.9189 65.8027 31.507 65.8027 31C65.8027 30.493 65.3893 30.0811 64.8805 30.0811H59.642C59.1332 30.0811 58.7198 30.493 58.7198 31C58.7198 31.507 59.1332 31.9189 59.642 31.9189ZM59.642 54.9873H64.8805C65.3893 54.9873 65.8027 54.5754 65.8027 54.0684C65.8027 53.5614 65.3893 53.1495 64.8805 53.1495H59.642C59.1332 53.1495 58.7198 53.5614 58.7198 54.0684C58.7198 54.5754 59.1332 54.9873 59.642 54.9873ZM68.4895 54.9873H71.1843C71.6931 54.9873 72.1065 54.5754 72.1065 54.0684C72.1065 53.5614 71.6931 53.1495 71.1843 53.1495H68.4895C67.9808 53.1495 67.5674 53.5614 67.5674 54.0684C67.5754 54.5754 67.9808 54.9873 68.4895 54.9873Z" fill="#0096A3"></path><path d="M31.4856 22.6187C31.3345 22.1355 31.6127 21.6205 32.0976 21.47C32.5985 21.3195 33.0754 21.1532 33.5285 20.9868C34.0055 20.8046 34.5381 21.0422 34.7209 21.5176C34.9038 21.9929 34.6653 22.5236 34.1883 22.7058C33.7034 22.888 33.1787 23.0702 32.6382 23.2366C32.5508 23.2604 32.4554 23.2762 32.3679 23.2762C31.9705 23.2683 31.6048 23.0148 31.4856 22.6187ZM20.436 24.8447C23.4011 24.8447 26.239 24.5992 28.8782 24.1238C29.379 24.0367 29.7129 23.5535 29.6175 23.0544C29.53 22.5553 29.0451 22.2226 28.5443 22.3177C26.0164 22.7771 23.2819 23.0069 20.4281 23.0069C19.9193 23.0069 19.506 23.4188 19.506 23.9258C19.5139 24.4328 19.9273 24.8447 20.436 24.8447ZM28.5523 36.0541C26.0244 36.5136 23.2898 36.7433 20.436 36.7433C19.9273 36.7433 19.5139 37.1553 19.5139 37.6623C19.5139 38.1693 19.9273 38.5812 20.436 38.5812C23.4011 38.5812 26.239 38.3356 28.8782 37.8603C29.379 37.7732 29.7129 37.2899 29.6175 36.7909C29.53 36.2918 29.0531 35.9591 28.5523 36.0541ZM33.5206 34.7153C33.0675 34.8896 32.5905 35.0481 32.0897 35.1986C31.6048 35.3491 31.3266 35.864 31.4776 36.3472C31.5968 36.7433 31.9625 36.9968 32.36 36.9968C32.4474 36.9968 32.5428 36.981 32.6303 36.9572C33.1708 36.7909 33.6875 36.6166 34.1804 36.4265C34.6573 36.2443 34.8958 35.7135 34.713 35.2382C34.5301 34.7787 33.9975 34.5411 33.5206 34.7153ZM33.5206 48.4518C33.0675 48.6261 32.5905 48.7845 32.0897 48.935C31.6048 49.0856 31.3266 49.6005 31.4776 50.0837C31.5968 50.4798 31.9625 50.7333 32.36 50.7333C32.4474 50.7333 32.5428 50.7175 32.6303 50.6937C33.1708 50.5273 33.6875 50.3531 34.1804 50.1629C34.6573 49.9807 34.8958 49.45 34.713 48.9746C34.5301 48.5073 33.9975 48.2696 33.5206 48.4518ZM28.5523 49.7827C26.0244 50.2421 23.2898 50.4719 20.436 50.4719C19.9273 50.4719 19.5139 50.8838 19.5139 51.3908C19.5139 51.8978 19.9273 52.3097 20.436 52.3097C23.4011 52.3097 26.239 52.0642 28.8782 51.5889C29.379 51.5017 29.7129 51.0185 29.6175 50.5194C29.53 50.0203 29.0531 49.6876 28.5523 49.7827ZM55.8263 12.0589V8.85054H47.8373V30.0811H55.8263V26.8727C55.8263 25.328 57.0902 24.0684 58.6404 24.0684H72.178C73.7281 24.0684 74.9921 25.328 74.9921 26.8727V35.1273C74.9921 36.672 73.7281 37.9316 72.178 37.9316H58.6483C57.0982 37.9316 55.8342 36.672 55.8342 35.1273V31.9189H47.8373V53.1495H55.8263V49.9411C55.8263 48.3964 57.0902 47.1368 58.6404 47.1368H72.178C73.7281 47.1368 74.9921 48.3964 74.9921 49.9411V58.1957C74.9921 59.7404 73.7281 61 72.178 61H58.6483C57.0982 61 55.8342 59.7404 55.8342 58.1957V54.9873H46.9231C46.4143 54.9873 46.001 54.5754 46.001 54.0684V31.9189H39.888V51.1373C39.888 53.3475 37.7496 55.3359 33.8544 56.746C30.2614 58.0531 25.4918 58.766 20.444 58.766C15.3962 58.766 10.6266 58.0452 7.03352 56.746C3.14631 55.3359 1 53.3475 1 51.1373V10.8627C1 8.66042 3.14631 6.67204 7.04147 5.26195C10.6425 3.95485 15.4041 3.23396 20.444 3.23396C25.4838 3.23396 30.2455 3.95485 33.8465 5.26195C37.7416 6.67204 39.888 8.66042 39.888 10.8627V30.0731H46.001V7.93161C46.001 7.42461 46.4143 7.01267 46.9231 7.01267H55.8342V3.80433C55.8342 2.25957 57.0982 1 58.6483 1H72.186C73.7361 1 75 2.25957 75 3.80433V12.0589C75 13.6036 73.7361 14.8632 72.186 14.8632H58.6483C57.0902 14.8711 55.8263 13.6116 55.8263 12.0589ZM2.83629 10.8627C2.83629 12.1936 4.64078 13.6433 7.66946 14.7444C11.0797 15.9802 15.6108 16.6615 20.444 16.6615C25.2771 16.6615 29.8083 15.9802 33.2185 14.7444C36.2392 13.6512 38.0437 12.2015 38.0517 10.8706C38.0517 9.53974 36.2472 8.09004 33.2185 6.98891C29.8083 5.7531 25.2771 5.07182 20.444 5.07182C15.6108 5.07182 11.0797 5.7531 7.66946 6.98891C4.64078 8.08212 2.83629 9.53182 2.83629 10.8627ZM2.83629 24.2902C2.83629 27.0312 10.0622 30.0811 20.436 30.0811C30.8099 30.0811 38.0358 27.0312 38.0358 24.2902V14.2136C37.0262 15.0613 35.6112 15.8297 33.8385 16.4713C30.2375 17.7785 25.4759 18.4993 20.436 18.4993C15.3962 18.4993 10.6345 17.7785 7.03352 16.4713C5.25287 15.8297 3.84585 15.0613 2.83629 14.2136V24.2902ZM38.0437 51.1294V41.0687C37.0342 41.9163 35.6271 42.6847 33.8544 43.3264C30.2614 44.6335 25.4918 45.3464 20.444 45.3464C15.3882 45.3464 10.6266 44.6256 7.03352 43.3264C5.26082 42.6847 3.8538 41.9242 2.84424 41.0687V51.1373C2.84424 53.8783 10.0701 56.9282 20.444 56.9282C30.8099 56.9282 38.0437 53.8703 38.0437 51.1294ZM38.0437 37.7098V27.6411C37.0342 28.4888 35.6271 29.2572 33.8544 29.8989C30.2614 31.206 25.4918 31.9189 20.444 31.9189C15.3882 31.9189 10.6266 31.198 7.03352 29.8989C5.26082 29.2572 3.8538 28.4967 2.84424 27.6411V37.7098C2.84424 40.4508 10.0701 43.5007 20.444 43.5007C30.8099 43.5007 38.0437 40.4508 38.0437 37.7098ZM57.6705 58.1957C57.6705 58.7344 58.1077 59.1701 58.6483 59.1701H72.186C72.7265 59.1701 73.1637 58.7344 73.1637 58.1957V49.9411C73.1637 49.4024 72.7265 48.9667 72.186 48.9667H58.6483C58.1077 48.9667 57.6705 49.4024 57.6705 49.9411V58.1957ZM57.6705 35.1273C57.6705 35.666 58.1077 36.1017 58.6483 36.1017H72.186C72.7265 36.1017 73.1637 35.666 73.1637 35.1273V26.8727C73.1637 26.334 72.7265 25.8983 72.186 25.8983H58.6483C58.1077 25.8983 57.6705 26.334 57.6705 26.8727V35.1273ZM57.6705 12.0589C57.6705 12.5976 58.1077 13.0333 58.6483 13.0333H72.186C72.7265 13.0333 73.1637 12.5976 73.1637 12.0589V3.80433C73.1637 3.26565 72.7265 2.82994 72.186 2.82994H58.6483C58.1077 2.82994 57.6705 3.26565 57.6705 3.80433V12.0589ZM59.642 8.85054H64.8805C65.3893 8.85054 65.8027 8.4386 65.8027 7.93161C65.8027 7.42461 65.3893 7.01267 64.8805 7.01267H59.642C59.1332 7.01267 58.7198 7.42461 58.7198 7.93161C58.7198 8.4386 59.1332 8.85054 59.642 8.85054ZM68.4895 8.85054H71.1843C71.6931 8.85054 72.1065 8.4386 72.1065 7.93161C72.1065 7.42461 71.6931 7.01267 71.1843 7.01267H68.4895C67.9808 7.01267 67.5674 7.42461 67.5674 7.93161C67.5674 8.4386 67.9808 8.85054 68.4895 8.85054ZM68.4895 31.9189H71.1843C71.6931 31.9189 72.1065 31.507 72.1065 31C72.1065 30.493 71.6931 30.0811 71.1843 30.0811H68.4895C67.9808 30.0811 67.5674 30.493 67.5674 31C67.5674 31.507 67.9808 31.9189 68.4895 31.9189ZM59.642 31.9189H64.8805C65.3893 31.9189 65.8027 31.507 65.8027 31C65.8027 30.493 65.3893 30.0811 64.8805 30.0811H59.642C59.1332 30.0811 58.7198 30.493 58.7198 31C58.7198 31.507 59.1332 31.9189 59.642 31.9189ZM59.642 54.9873H64.8805C65.3893 54.9873 65.8027 54.5754 65.8027 54.0684C65.8027 53.5614 65.3893 53.1495 64.8805 53.1495H59.642C59.1332 53.1495 58.7198 53.5614 58.7198 54.0684C58.7198 54.5754 59.1332 54.9873 59.642 54.9873ZM68.4895 54.9873H71.1843C71.6931 54.9873 72.1065 54.5754 72.1065 54.0684C72.1065 53.5614 71.6931 53.1495 71.1843 53.1495H68.4895C67.9808 53.1495 67.5674 53.5614 67.5674 54.0684C67.5754 54.5754 67.9808 54.9873 68.4895 54.9873Z" stroke="#0096A3" stroke-width="0.2" mask="url(#path-1-outside-1_2002_139)"></path></svg>