<svg width="70" height="60" viewBox="0 0 70 60" fill="none" xmlns="http://www.w3.org/2000/svg"><path d="M67.8726 50.5849C69.0445 50.5849 70 49.6386 70 48.4719V44.1928C69.9972 43.0288 69.0473 42.0825 67.8726 42.0797H43.1679C41.996 42.0825 41.0406 43.026 41.0406 44.1928V48.4719C41.0406 49.6358 41.9904 50.5849 43.1679 50.5849H44.0503V51.4893H43.1679C41.9932 51.4893 41.0406 52.4355 41.0406 53.6023V57.8842C41.0406 59.0482 41.9932 59.9944 43.1679 59.9972H67.8726C69.0445 59.9944 70 59.051 70 57.8842V53.6023C70 52.4383 69.0473 51.4893 67.8726 51.4893H66.9874V50.5849H67.8726ZM42.9487 48.4719V44.1928C42.9487 44.0727 43.0471 43.9778 43.1679 43.9751H67.8726C67.9935 43.9778 68.089 44.0727 68.0918 44.1928V48.4719C68.089 48.5919 67.9935 48.6868 67.8726 48.6896H43.1679C43.0471 48.6868 42.9487 48.5919 42.9487 48.4719ZM52.0229 51.4893V50.5849H59.0176V51.4893H52.0229ZM45.9557 50.5849H50.112V51.4893H45.9557V50.5849ZM68.0918 53.5995V57.8814C68.089 58.0014 67.9935 58.0963 67.8726 58.0991H43.1679C43.0471 58.0963 42.9487 58.0014 42.9487 57.8814V53.5995C42.9487 53.4795 43.0471 53.3818 43.1679 53.379H67.8726C67.9935 53.3818 68.089 53.4795 68.0918 53.5995ZM60.9286 51.4893V50.5849H65.0849V51.4893H60.9286ZM52.2365 46.3337C52.2365 46.8557 51.8094 47.2772 51.2839 47.2772H50.778C50.5223 47.2856 50.2722 47.1879 50.0867 47.012C49.9012 46.8306 49.7973 46.5877 49.7973 46.3309C49.7973 46.0741 49.9012 45.8313 50.0867 45.6526C50.2722 45.474 50.5223 45.3791 50.778 45.3875H51.2839C51.5368 45.3875 51.7785 45.4852 51.9583 45.6638C52.1382 45.8424 52.2365 46.0825 52.2365 46.3337ZM62.3927 46.3337C62.3927 46.5821 62.2915 46.8222 62.1145 47.0008C61.9346 47.1823 61.6929 47.2772 61.44 47.2772H54.1475C53.6304 47.2632 53.2201 46.8445 53.2201 46.3309C53.2201 45.8173 53.6332 45.4014 54.1475 45.3875H61.4428C61.6958 45.3847 61.9374 45.4852 62.1173 45.661C62.3 45.8397 62.3983 46.0825 62.3983 46.3337H62.3927ZM48.2741 46.3337C48.2741 46.8892 47.9341 47.3916 47.4142 47.6066C46.8943 47.8187 46.2985 47.7015 45.9023 47.3051C45.506 46.9115 45.3852 46.317 45.5988 45.8034C45.8152 45.287 46.321 44.952 46.8831 44.952C47.6502 44.952 48.2713 45.5661 48.2741 46.3309H48.2713L48.2741 46.3337ZM49.8282 55.7377C49.8282 55.4892 49.9293 55.2464 50.1064 55.0677C50.2862 54.8891 50.5279 54.7914 50.7808 54.7942H51.2867C51.8037 54.8082 52.2141 55.2269 52.2141 55.7377C52.2141 56.2485 51.8009 56.67 51.2867 56.6839H50.7808C50.2525 56.6839 49.8282 56.2596 49.8282 55.7377ZM53.1948 55.7377C53.1948 55.2157 53.622 54.7942 54.1475 54.7942H61.44C61.6958 54.7858 61.9459 54.8835 62.1314 55.0594C62.3168 55.2352 62.4208 55.4837 62.4208 55.7377C62.4208 55.9917 62.3168 56.2373 62.1314 56.4187C61.9459 56.5974 61.6958 56.6923 61.44 56.6839H54.1447C53.8918 56.6839 53.6501 56.5834 53.4702 56.4076C53.2904 56.2289 53.192 55.9889 53.192 55.7377H53.1948ZM45.5032 55.7377C45.5032 55.1794 45.8405 54.6798 46.3604 54.4648C46.8803 54.2499 47.4788 54.3699 47.8723 54.7635C48.2685 55.1571 48.3893 55.7544 48.1758 56.268C47.9594 56.7844 47.4535 57.1194 46.8943 57.1194C46.1243 57.1194 45.5032 56.5053 45.5032 55.7405H45.506L45.5032 55.7377ZM26.8377 42.0825H2.12736C0.955497 42.0853 0.00281023 43.0288 0 44.1956V48.4747C0 49.6386 0.952687 50.5877 2.12736 50.5877H3.01259V51.4921H2.12736C0.955497 51.4921 0 52.4383 0 53.6051V57.887C0 59.051 0.952687 59.9972 2.12736 60H26.8321C28.0039 59.9972 28.9594 59.0537 28.9594 57.887V53.6051C28.9594 52.4411 28.0095 51.4921 26.8321 51.4921H25.9497V50.5877H26.8321C28.0067 50.5877 28.9594 49.6414 28.9594 48.4747V44.1956C28.9594 43.0316 28.0067 42.0853 26.8321 42.0825H26.8377ZM4.9179 50.5849H9.07424V51.4893H4.9179V50.5849ZM10.9824 51.4893V50.5849H17.9798V51.4893H10.9824ZM27.0513 53.5995V57.8814C27.0513 58.0014 26.9529 58.0963 26.8321 58.0991H2.12736C2.00652 58.0963 1.91097 58.0014 1.90816 57.8814V53.5995C1.91097 53.4795 2.00652 53.3818 2.12736 53.379H26.8321C26.9529 53.3818 27.0513 53.4795 27.0513 53.5995ZM19.888 51.4893V50.5849H24.0443V51.4893H19.888ZM27.0513 48.4719C27.0513 48.5919 26.9529 48.6868 26.8321 48.6896H2.12736C2.00652 48.6868 1.91097 48.5919 1.90816 48.4719V44.1928C1.91097 44.0727 2.00652 43.9778 2.12736 43.9751H26.8321C26.9529 43.9778 27.0513 44.0727 27.0513 44.1928V48.4719ZM16.808 46.3337C16.808 46.8557 16.3808 47.2772 15.8553 47.2772H8.55998C8.30425 47.2856 8.05411 47.1879 7.86864 47.012C7.68316 46.8306 7.57921 46.5877 7.57921 46.3309C7.57921 46.0741 7.68316 45.8313 7.86864 45.6526C8.05411 45.474 8.30425 45.3791 8.55998 45.3875H15.8553C16.1082 45.3875 16.3499 45.4852 16.5298 45.6638C16.7096 45.8424 16.808 46.0825 16.808 46.3337ZM20.1746 46.3337H20.1775C20.1775 46.5821 20.0763 46.8222 19.8992 47.0008C19.7194 47.1823 19.4749 47.2772 19.2248 47.2772H18.7189C18.2018 47.2632 17.7916 46.8445 17.7916 46.3309C17.7916 45.8173 18.2047 45.4014 18.7189 45.3875H19.2248C19.7503 45.3875 20.1746 45.8117 20.1746 46.3337ZM24.4996 46.3337C24.4996 46.8892 24.1623 47.3916 23.6425 47.6066C23.1226 47.8187 22.524 47.7015 22.1277 47.3051C21.7343 46.9115 21.6107 46.317 21.8271 45.8034C22.0434 45.287 22.5465 44.952 23.1085 44.952C23.8757 44.952 24.4968 45.5689 24.4968 46.3309L24.4996 46.3337ZM17.7635 55.7377C17.7635 55.2157 18.1906 54.7942 18.7161 54.7942H19.222C19.4777 54.7858 19.7278 54.8835 19.9133 55.0594C20.0987 55.2352 20.2027 55.4837 20.2027 55.7377C20.2027 55.9917 20.0987 56.2373 19.9133 56.4187C19.7278 56.5974 19.4777 56.6923 19.222 56.6839H18.7161C18.4632 56.6839 18.2215 56.5834 18.0417 56.4076C17.8618 56.2289 17.7635 55.9889 17.7635 55.7377ZM7.60731 55.7377C7.60731 55.4892 7.70847 55.2464 7.88552 55.0677C8.06537 54.8891 8.30706 54.7914 8.55998 54.7942H15.8553C16.3724 54.8082 16.7827 55.2269 16.7827 55.7377C16.7827 56.2485 16.3696 56.67 15.8553 56.6839H8.55717C8.30424 56.6839 8.06256 56.5862 7.8827 56.4104C7.70004 56.2289 7.60168 55.9889 7.60168 55.7377H7.60731ZM21.7259 55.7377C21.7259 55.1794 22.0659 54.6798 22.5858 54.4648C23.1057 54.2499 23.7015 54.3699 24.0977 54.7635C24.4939 55.1571 24.6148 55.7544 24.4012 56.268C24.1848 56.7844 23.679 57.1194 23.1169 57.1194C22.3497 57.1194 21.7287 56.5053 21.7259 55.7405H21.7287L21.7259 55.7377ZM42.367 35.6485L42.5975 35.4699H32.0956C31.8399 35.4755 31.5898 35.3806 31.4043 35.2019C31.2188 35.0233 31.1149 34.7777 31.1149 34.5236C31.1149 34.2696 31.2188 34.024 31.4043 33.8454C31.5898 33.6639 31.8399 33.5718 32.0956 33.5774H42.5975L42.367 33.3987C41.9483 33.0805 41.8724 32.486 42.1928 32.0729C42.5131 31.657 43.1117 31.5816 43.5276 31.8998L45.9725 33.77C46.2086 33.9486 46.3435 34.225 46.3435 34.5209C46.3435 34.8167 46.2086 35.0903 45.9725 35.2717L43.5276 37.1475C43.1117 37.4657 42.5131 37.3875 42.1928 36.9716C41.8696 36.5585 41.9483 35.964 42.367 35.643V35.6485ZM38.857 38.0826C38.857 38.6046 38.4299 39.026 37.9044 39.026H27.4025L27.633 39.2047C27.841 39.3526 27.9786 39.5815 28.0152 39.8355C28.0489 40.0895 27.9814 40.3435 27.8241 40.5473C27.6667 40.7511 27.4363 40.8795 27.1777 40.9102C26.9248 40.9381 26.6691 40.8655 26.4667 40.7036L24.0218 38.8334H24.0246C23.7886 38.652 23.6537 38.3757 23.6537 38.0826C23.6537 37.7895 23.7886 37.5104 24.0246 37.3317L26.4696 35.4559C26.8855 35.1377 27.484 35.2131 27.8044 35.629C28.1276 36.0449 28.0489 36.6395 27.6302 36.9577L27.3997 37.1363H37.9015C38.4271 37.1363 38.8514 37.5578 38.8542 38.077L38.857 38.0826ZM11.0751 40.4831C11.2578 40.7176 11.536 40.8516 11.8311 40.8516C12.1262 40.8516 12.4072 40.7176 12.587 40.4831L14.9055 37.4992C15.2286 37.0833 15.15 36.4915 14.7312 36.1705C14.3125 35.8523 13.7167 35.9305 13.3936 36.3436L12.7837 37.1279V33.0889C12.7865 31.777 13.8572 30.7135 15.1809 30.7107H54.822C56.1456 30.7135 57.2162 31.777 57.2191 33.0917V37.1307L56.6093 36.3464C56.2861 35.9305 55.6903 35.8551 55.2716 36.1705C54.8529 36.4915 54.777 37.0833 55.0974 37.4992L57.413 40.4831C57.5956 40.7176 57.871 40.8516 58.1689 40.8516C58.4668 40.8516 58.7422 40.7176 58.9249 40.4831L61.2433 37.4992C61.5637 37.0833 61.485 36.4915 61.0691 36.1705C60.6504 35.8523 60.0518 35.9305 59.7314 36.3436L59.1216 37.1279V33.0889C59.1188 30.7302 57.1938 28.8182 54.8163 28.8154H35.9541V25.2258H48.2657C51.7138 25.2286 54.7039 22.8671 55.4852 19.5343C56.2636 16.1986 54.6224 12.7681 51.5256 11.2636C51.6605 8.17082 50.1907 5.22319 47.6334 3.45349C45.0761 1.6838 41.7853 1.33768 38.9104 2.53515C37.5728 0.79616 35.4398 -0.152888 33.2394 0.0201733C31.0418 0.196026 29.0859 1.46608 28.0433 3.39767C25.7136 3.30276 23.4457 4.15132 21.754 5.74517C20.0622 7.33901 19.0955 9.54694 19.0674 11.8609C15.4479 12.1261 12.6882 15.1854 12.8231 18.7862C12.958 22.3898 15.9396 25.2369 19.5676 25.2314H34.0431V28.821H15.178C12.8034 28.8238 10.8784 30.7358 10.8756 33.0973V37.1363L10.2658 36.352C9.94541 35.9333 9.34682 35.8579 8.9281 36.1761C8.51219 36.4971 8.43631 37.0889 8.75387 37.5048L11.0695 40.4859L11.0751 40.4831ZM14.734 18.5378C14.7369 15.8888 16.9007 13.7395 19.5704 13.7395H20.0707C20.3404 13.7395 20.599 13.6251 20.7788 13.4241C20.9587 13.2231 21.0458 12.9579 21.0177 12.6928C20.7929 10.6663 21.5123 8.64814 22.9736 7.21619C24.4349 5.78145 26.4752 5.092 28.5126 5.34042C28.9426 5.39067 29.35 5.15061 29.513 4.75146C30.1706 3.13249 31.7022 2.02713 33.4586 1.91269C35.215 1.79824 36.8815 2.69426 37.747 4.21552C37.9999 4.66214 38.5676 4.82403 39.0256 4.58398C41.3947 3.31951 44.278 3.47024 46.4981 4.97755C48.7181 6.48766 49.9069 9.10033 49.5781 11.7549C49.5275 12.1875 49.7776 12.6006 50.1879 12.7542C52.6834 13.6781 54.1559 16.2433 53.6838 18.8476C53.2117 21.4491 50.9298 23.3444 48.2657 23.3444H19.5704C16.9007 23.3416 14.7369 21.1923 14.734 18.5406V18.5378Z" fill="#0096A3"></path></svg>