<svg width="60" height="60" viewBox="0 0 60 60" fill="none" xmlns="http://www.w3.org/2000/svg"><path d="M8.28616 35.0725C8.22112 35.5096 7.8439 35.827 7.41463 35.827C7.3704 35.827 7.32878 35.8244 7.28455 35.8166C5.96293 35.6214 4.77665 35.3587 3.76199 35.0334C3.29891 34.8851 3.04137 34.3882 3.18965 33.925C3.33794 33.4619 3.83223 33.2043 4.29794 33.3526C5.22409 33.6466 6.31673 33.8886 7.54471 34.0707C8.02601 34.141 8.35904 34.5911 8.28877 35.0724L8.28616 35.0725ZM18.0917 35.827C18.136 35.827 18.1776 35.8244 18.2218 35.8166C19.5434 35.6214 20.7297 35.3587 21.7444 35.0334C22.2075 34.8851 22.465 34.3882 22.3167 33.925C22.1684 33.4619 21.6741 33.2043 21.2084 33.3526C20.2823 33.6466 19.1896 33.8886 17.9617 34.0707C17.4804 34.141 17.1473 34.5911 17.2176 35.0724C17.2826 35.5095 17.6599 35.8269 18.0891 35.8269L18.0917 35.827ZM3.75933 27.1216C4.77652 27.4442 5.96028 27.707 7.2819 27.9047C7.32612 27.9125 7.37035 27.9151 7.41197 27.9151C7.84123 27.9151 8.21844 27.6003 8.28351 27.1606C8.35375 26.6793 8.02075 26.2292 7.53945 26.1589C6.31147 25.9768 5.21882 25.7348 4.29268 25.4409C3.82699 25.2925 3.3327 25.5501 3.18438 26.0133C3.03606 26.4764 3.29364 26.9733 3.75673 27.1216L3.75933 27.1216ZM3.75933 19.2094C4.77652 19.5321 5.96028 19.7949 7.2819 19.9926C7.32612 20.0004 7.37035 20.003 7.41197 20.003C7.84123 20.003 8.21844 19.6882 8.28351 19.2485C8.35375 18.7672 8.02075 18.3171 7.53945 18.2468C6.31147 18.0647 5.21882 17.8227 4.29268 17.5287C3.82699 17.3804 3.3327 17.638 3.18438 18.1011C3.03608 18.5642 3.29364 19.0612 3.75673 19.2095L3.75933 19.2094ZM10.2581 19.4904C10.2581 18.1141 11.3768 16.9953 12.753 16.9953C14.1292 16.9953 15.2479 18.1141 15.2479 19.4904C15.2479 20.8668 14.1292 21.9856 12.753 21.9856C11.3768 21.9856 10.2581 20.8668 10.2581 19.4904ZM12.0219 19.4904C12.0219 19.8937 12.3497 20.2216 12.753 20.2216C13.1562 20.2216 13.4841 19.8937 13.4841 19.4904C13.4841 19.0872 13.1563 18.7593 12.753 18.7593C12.3497 18.7593 12.0219 19.0871 12.0219 19.4904ZM10.2581 27.4026C10.2581 26.0262 11.3768 24.9074 12.753 24.9074C14.1292 24.9074 15.2479 26.0262 15.2479 27.4026C15.2479 28.7789 14.1292 29.8977 12.753 29.8977C11.3768 29.8977 10.2581 28.7789 10.2581 27.4026ZM12.0219 27.4026C12.0219 27.8058 12.3497 28.1337 12.753 28.1337C13.1562 28.1337 13.4841 27.8059 13.4841 27.4026C13.4841 26.9993 13.1563 26.6714 12.753 26.6714C12.3497 26.6714 12.0219 26.9993 12.0219 27.4026ZM12.753 37.8124C11.3768 37.8124 10.2581 36.6936 10.2581 35.3173C10.2581 33.9409 11.3768 32.8222 12.753 32.8222C14.1292 32.8222 15.2479 33.9409 15.2479 35.3173C15.2479 36.6936 14.1292 37.8124 12.753 37.8124ZM12.753 36.0458C13.1562 36.0458 13.4841 35.718 13.4841 35.3147C13.4841 34.9114 13.1563 34.5836 12.753 34.5836C12.3497 34.5836 12.0219 34.9114 12.0219 35.3147C12.0219 35.718 12.3497 36.0458 12.753 36.0458ZM60 12.0544V35.7934C60 38.6476 54.006 40.0213 48.1318 40.1462V51.737C48.1318 52.2235 47.7364 52.619 47.2499 52.619H42.7882L40.7069 59.3782C40.5924 59.7476 40.2516 60 39.864 60H18.4007C17.9142 60 17.5188 59.6045 17.5188 59.118V52.6161H12.7527C12.2662 52.6161 11.8708 52.2206 11.8708 51.7341V40.1434C5.99644 40.0185 0.00260158 38.6447 0.00260158 35.7905L0 12.0541C0 9.05687 6.61063 7.69092 12.7507 7.69092C14.3142 7.69092 15.8205 7.77678 17.2488 7.94589V4.36322C17.2488 1.36596 23.8594 0 29.9994 0C36.1418 0 42.7501 1.36596 42.7501 4.36322V7.94589C44.1783 7.77677 45.6846 7.69092 47.2482 7.69092C53.3906 7.69092 59.9989 9.05687 59.9989 12.0541L60 12.0544ZM42.7518 14.3856C44.1645 14.5599 45.7046 14.6509 47.25 14.6509C50.338 14.6509 53.231 14.3023 55.3932 13.6674C57.7138 12.9858 58.2341 12.2547 58.2341 12.0517C58.2341 11.8488 57.7112 11.1177 55.3932 10.436C53.2313 9.80115 50.3383 9.45248 47.25 9.45248C45.7046 9.45248 44.1645 9.54614 42.7518 9.71787V14.3856ZM40.988 28.0998V22.5528C38.6127 23.9135 34.1981 24.551 30.0016 24.551C25.8051 24.551 21.3901 23.9135 19.0152 22.5528V28.0998C19.0152 28.3027 19.5381 29.0338 21.8561 29.7155C24.018 30.3504 26.9109 30.699 29.9993 30.699C33.0874 30.699 35.9804 30.3504 38.1425 29.7155C40.4632 29.0339 40.9834 28.3027 40.9834 28.0998H40.988ZM38.9822 45.2355H28.3234C28.1465 45.2355 27.9748 45.1835 27.8291 45.0846L24.5329 42.8522H19.2856V53.2541L20.9844 47.7357C21.0989 47.3662 21.4397 47.1138 21.8273 47.1138H38.9822L38.9822 45.2355ZM19.0154 12.2736C19.0154 12.4765 19.5383 13.2076 21.8563 13.8893C24.0182 14.5241 26.9111 14.8728 29.9995 14.8728C33.0876 14.8728 35.9806 14.5241 38.1427 13.8893C40.4634 13.2076 40.9836 12.4765 40.9836 12.2736V6.72654C38.6084 8.0873 34.1937 8.72472 29.9972 8.72472C25.8009 8.72472 21.3858 8.08728 19.0108 6.72654V12.2736H19.0154ZM40.9882 20.1857V14.6387C38.6129 15.9994 34.1983 16.6368 30.0018 16.6368C25.8053 16.6368 21.3903 15.9994 19.0154 14.6387V20.1857C19.0154 20.3886 19.5383 21.1197 21.8563 21.8014C24.0182 22.4362 26.9111 22.7849 29.9995 22.7849C33.0876 22.7849 35.9806 22.4363 38.1427 21.8014C40.4634 21.1198 40.9836 20.3886 40.9836 20.1857H40.9882ZM19.0154 4.36143C19.0154 4.56437 19.5383 5.29544 21.8563 5.97715C24.0182 6.61199 26.9111 6.96066 29.9995 6.96066C33.0876 6.96066 35.9806 6.61202 38.1427 5.97715C40.4634 5.29551 40.9836 4.56437 40.9836 4.36143C40.9836 4.15848 40.4607 3.42741 38.1427 2.7457C35.9808 2.11086 33.0879 1.76219 29.9995 1.76219C26.9114 1.76219 24.0185 2.11084 21.8563 2.7457C19.5356 3.42734 19.0154 4.15848 19.0154 4.36143ZM1.76718 12.0551C1.76718 12.258 2.2901 12.9891 4.60809 13.6708C6.77 14.3056 9.66293 14.6543 12.7513 14.6543C14.3227 14.6543 15.829 14.5633 17.2494 14.3889V9.72391C15.829 9.547 14.3227 9.45853 12.7513 9.45853C9.66326 9.45853 6.77027 9.80717 4.60809 10.442C2.28746 11.1237 1.76718 11.8548 1.76718 12.0578V12.0551ZM1.76718 19.9672C1.76718 20.1702 2.2901 20.9012 4.60809 21.5829C6.77 22.2178 9.66293 22.5664 12.7513 22.5664C14.3227 22.5664 15.829 22.4754 17.2494 22.3011V16.166C15.8212 16.3352 14.3149 16.421 12.7513 16.421C8.55496 16.421 4.13989 15.7836 1.76492 14.4228V19.9699L1.76718 19.9672ZM1.76718 27.8793C1.76718 28.0823 2.2901 28.8133 4.60809 29.4951C6.77 30.1299 9.66293 30.4786 12.7513 30.4786C14.7571 30.4786 16.6849 30.3303 18.3837 30.0519C17.6657 29.5003 17.2494 28.8524 17.2494 28.1005V24.0781C15.8212 24.2472 14.3149 24.3331 12.7513 24.3331C8.55496 24.3331 4.13989 23.6957 1.76492 22.3349V27.8819L1.76718 27.8793ZM4.61069 37.4073C6.7726 38.0422 9.66552 38.3908 12.7539 38.3908C15.842 38.3908 18.735 38.0422 20.8972 37.4073C23.2178 36.7257 23.7381 35.9945 23.7381 35.7916V31.9592C22.7443 31.7848 21.8129 31.5663 20.9856 31.3009C18.7197 31.9097 15.8111 32.2428 12.7545 32.2428C8.55809 32.2428 4.14302 31.6053 1.76805 30.2446V35.7916C1.76805 35.9945 2.29097 36.7256 4.60895 37.4073L4.61069 37.4073ZM17.5198 50.8537V41.9685C17.5198 41.482 17.9153 41.0865 18.4018 41.0865H24.8017C24.9786 41.0865 25.1503 41.1385 25.296 41.2374L28.5922 43.4698H29.1177V32.4511C27.9002 32.4251 26.6774 32.3445 25.5015 32.2092V35.7892C25.5015 38.6434 19.5074 40.0172 13.6333 40.1421V50.8483H17.5174L17.5198 50.8537ZM42.0941 48.879H22.4783L19.5983 58.2378H39.2141L42.0941 48.879ZM46.3685 50.8537V40.1475C40.4941 40.0226 34.5003 38.6489 34.5003 35.7947V32.2146C33.327 32.3499 32.1016 32.4305 30.8841 32.4566V43.4752H39.8645C40.351 43.4752 40.7464 43.8707 40.7464 44.3572V47.1177H43.2882C43.5691 47.1177 43.8319 47.2504 43.9984 47.4767C44.1649 47.7031 44.2143 47.9919 44.1311 48.2599L43.3324 50.859H46.3684L46.3685 50.8537ZM58.2367 35.7921V30.2451C55.8615 31.6059 51.4468 32.2433 47.2503 32.2433C44.1908 32.2433 41.2849 31.9077 39.0191 31.3014C38.1892 31.5668 37.2579 31.7853 36.2667 31.9597V35.7921C36.2667 35.9951 36.7896 36.7261 39.1076 37.4078C41.2695 38.0427 44.1624 38.3913 47.2508 38.3913C50.3389 38.3913 53.2319 38.0427 55.394 37.4078C57.7147 36.7262 58.235 35.9951 58.235 35.7921L58.2367 35.7921ZM58.2367 27.88V22.333C55.8615 23.6937 51.4468 24.3312 47.2503 24.3312C45.6867 24.3312 44.1804 24.2453 42.7522 24.0762V28.0986C42.7522 28.8505 42.3359 29.4984 41.6179 30.0499C43.3167 30.3283 45.2445 30.4766 47.2503 30.4766C50.3383 30.4766 53.2313 30.128 55.3935 29.4931C57.7141 28.8115 58.2344 28.0804 58.2344 27.8774L58.2367 27.88ZM58.2367 19.9679V14.4209C55.8615 15.7816 51.4468 16.419 47.2503 16.419C45.6867 16.419 44.1804 16.3332 42.7522 16.1641V22.2991C44.1648 22.4734 45.7049 22.5645 47.2503 22.5645C50.3383 22.5645 53.2313 22.2158 55.3935 21.581C57.7141 20.8993 58.2344 20.1682 58.2344 19.9652L58.2367 19.9679ZM55.7105 33.3543C54.7844 33.6483 53.6917 33.8903 52.4638 34.0724C51.9825 34.1427 51.6494 34.5928 51.7197 35.0741C51.7847 35.5112 52.162 35.8286 52.5912 35.8286C52.6355 35.8286 52.6771 35.826 52.7213 35.8182C54.0429 35.6231 55.2292 35.3603 56.2439 35.0351C56.707 34.8868 56.9645 34.3898 56.8162 33.9267C56.6679 33.4636 56.1736 33.206 55.7079 33.3543L55.7105 33.3543ZM42.0395 34.0724C40.8115 33.8903 39.7188 33.6483 38.7927 33.3543C38.327 33.206 37.8327 33.4636 37.6844 33.9267C37.5361 34.3899 37.7937 34.8868 38.2567 35.0351C39.2739 35.3578 40.4577 35.6205 41.7793 35.8183C41.8235 35.8261 41.8678 35.8287 41.9094 35.8287C42.3386 35.8287 42.7159 35.5139 42.7809 35.0742C42.8512 34.5928 42.5182 34.1428 42.0369 34.0725L42.0395 34.0724ZM55.7079 25.4423C54.7817 25.7363 53.6891 25.9783 52.4611 26.1604C51.9798 26.2306 51.6468 26.6807 51.717 27.1621C51.7821 27.5992 52.1593 27.9166 52.5886 27.9166C52.6328 27.9166 52.6744 27.914 52.7186 27.9062C54.0403 27.711 55.2266 27.4482 56.2412 27.123C56.7043 26.9747 56.9618 26.4778 56.8136 26.0146C56.6653 25.5515 56.171 25.2939 55.7053 25.4422L55.7079 25.4423ZM55.7105 17.5302C54.7843 17.8242 53.6917 18.0661 52.4637 18.2482C51.9824 18.3185 51.6494 18.7686 51.7196 19.2499C51.7847 19.687 52.1619 20.0044 52.5912 20.0044C52.6354 20.0044 52.677 20.0018 52.7212 19.994C54.0429 19.7989 55.2292 19.5361 56.2438 19.2109C56.7069 19.0626 56.9644 18.5656 56.8162 18.1025C56.6679 17.6394 56.1736 17.3818 55.7079 17.5301L55.7105 17.5302ZM49.7451 19.4919C49.7451 20.8683 48.6264 21.987 47.2502 21.987C45.8739 21.987 44.7552 20.8683 44.7552 19.4919C44.7552 18.1156 45.8739 16.9968 47.2502 16.9968C48.6264 16.9968 49.7451 18.1156 49.7451 19.4919ZM47.9812 19.4919C47.9812 19.0886 47.6534 18.7608 47.2502 18.7608C46.8469 18.7608 46.5191 19.0886 46.5191 19.4919C46.5191 19.8952 46.8469 20.223 47.2502 20.223C47.6534 20.223 47.9812 19.8952 47.9812 19.4919ZM49.7451 27.404C49.7451 28.7804 48.6264 29.8992 47.2502 29.8992C45.8739 29.8992 44.7552 28.7804 44.7552 27.404C44.7552 26.0277 45.8739 24.9089 47.2502 24.9089C48.6264 24.9089 49.7451 26.0277 49.7451 27.404ZM47.9812 27.404C47.9812 27.0008 47.6534 26.6729 47.2502 26.6729C46.8469 26.6729 46.5191 27.0007 46.5191 27.404C46.5191 27.8073 46.8469 28.1352 47.2502 28.1352C47.6534 28.1352 47.9812 27.8073 47.9812 27.404ZM49.7451 35.3188C49.7451 36.6952 48.6264 37.8139 47.2502 37.8139C45.8739 37.8139 44.7552 36.6952 44.7552 35.3188C44.7552 33.9425 45.8739 32.8237 47.2502 32.8237C48.6264 32.8237 49.7451 33.9425 49.7451 35.3188ZM47.9812 35.3188C47.9812 34.9155 47.6534 34.5877 47.2502 34.5877C46.8469 34.5877 46.5191 34.9155 46.5191 35.3188C46.5191 35.7221 46.8469 36.05 47.2502 36.05C47.6534 36.05 47.9812 35.7221 47.9812 35.3188ZM38.4594 25.6636C37.5332 25.9576 36.4406 26.1996 35.2126 26.3817C34.7313 26.4519 34.3983 26.9021 34.4685 27.3834C34.5336 27.8205 34.9108 28.1379 35.3401 28.1379C35.3843 28.1379 35.4259 28.1353 35.4701 28.1275C36.7918 27.9324 37.978 27.6696 38.9927 27.3443C39.4558 27.196 39.7133 26.6991 39.5651 26.2359C39.4168 25.7728 38.9199 25.5153 38.4568 25.6635L38.4594 25.6636ZM24.791 26.3817C23.563 26.1996 22.4703 25.9576 21.5442 25.6636C21.0785 25.5153 20.5842 25.7729 20.4359 26.236C20.2876 26.6991 20.5451 27.1961 21.0082 27.3444C22.0254 27.667 23.2092 27.9298 24.5308 28.1276C24.575 28.1354 24.6192 28.138 24.6609 28.138C25.0901 28.138 25.4673 27.8231 25.5324 27.3835C25.6027 26.9021 25.2697 26.452 24.7884 26.3818L24.791 26.3817ZM24.791 18.4669C23.563 18.2848 22.4703 18.0428 21.5442 17.7488C21.0785 17.6005 20.5842 17.8581 20.4359 18.3212C20.2876 18.7843 20.5451 19.2813 21.0082 19.4296C22.0254 19.7522 23.2092 20.015 24.5308 20.2128C24.575 20.2206 24.6192 20.2232 24.6609 20.2232C25.0901 20.2232 25.4673 19.9084 25.5324 19.4687C25.6027 18.9873 25.2697 18.5372 24.7884 18.467L24.791 18.4669ZM38.4594 17.7488C37.5332 18.0428 36.4406 18.2848 35.2126 18.4669C34.7313 18.5372 34.3983 18.9873 34.4685 19.4686C34.5336 19.9057 34.9108 20.2231 35.3401 20.2231C35.3843 20.2231 35.4259 20.2205 35.4701 20.2127C36.7918 20.0176 37.978 19.7548 38.9927 19.4295C39.4558 19.2812 39.7133 18.7843 39.5651 18.3212C39.4168 17.858 38.9199 17.6005 38.4568 17.7488L38.4594 17.7488ZM35.3427 12.3111C35.3869 12.3111 35.4285 12.3084 35.4727 12.3006C36.7944 12.1055 37.9806 11.8427 38.9953 11.5175C39.4584 11.3692 39.7159 10.8722 39.5677 10.4091C39.4194 9.94598 38.9225 9.68842 38.4594 9.8367C37.5332 10.1307 36.4406 10.3727 35.2126 10.5548C34.7313 10.625 34.3983 11.0751 34.4685 11.5565C34.5336 11.9936 34.9108 12.311 35.3401 12.311L35.3427 12.3111ZM21.0082 11.5201C22.0254 11.8427 23.2092 12.1055 24.5308 12.3033C24.575 12.3111 24.6193 12.3137 24.6609 12.3137C25.0901 12.3137 25.4674 11.9988 25.5324 11.5592C25.6027 11.0778 25.2697 10.6277 24.7884 10.5575C23.5604 10.3753 22.4677 10.1334 21.5416 9.83939C21.0759 9.69108 20.5816 9.94866 20.4333 10.4118C20.285 10.8749 20.5426 11.3718 21.0056 11.5202L21.0082 11.5201ZM27.507 11.7985C27.507 10.4222 28.6257 9.30337 30.0019 9.30337C31.3781 9.30337 32.4968 10.4222 32.4968 11.7985C32.4968 13.1748 31.3781 14.2936 30.0019 14.2936C28.6257 14.2936 27.507 13.1748 27.507 11.7985ZM29.2708 11.7985C29.2708 12.2018 29.5986 12.5296 30.0019 12.5296C30.4052 12.5296 30.733 12.2018 30.733 11.7985C30.733 11.3952 30.4052 11.0674 30.0019 11.0674C29.5986 11.0674 29.2708 11.3952 29.2708 11.7985ZM32.4968 19.7133C32.4968 21.0896 31.3781 22.2084 30.0019 22.2084C28.6257 22.2084 27.507 21.0896 27.507 19.7133C27.507 18.3369 28.6257 17.2182 30.0019 17.2182C31.3781 17.2182 32.4968 18.3369 32.4968 19.7133ZM30.733 19.7133C30.733 19.31 30.4052 18.9822 30.0019 18.9822C29.5986 18.9822 29.2708 19.31 29.2708 19.7133C29.2708 20.1166 29.5986 20.4444 30.0019 20.4444C30.4052 20.4444 30.733 20.1166 30.733 19.7133ZM32.4968 27.6254C32.4968 29.0018 31.3781 30.1205 30.0019 30.1205C28.6257 30.1205 27.507 29.0018 27.507 27.6254C27.507 26.2491 28.6257 25.1303 30.0019 25.1303C31.3781 25.1303 32.4968 26.2491 32.4968 27.6254ZM30.733 27.6254C30.733 27.2221 30.4052 26.8943 30.0019 26.8943C29.5986 26.8943 29.2708 27.2221 29.2708 27.6254C29.2708 28.0287 29.5986 28.3565 30.0019 28.3565C30.4052 28.3565 30.733 28.0287 30.733 27.6254Z" fill="#0096A3"></path></svg>