<svg width="55" height="60" viewBox="0 0 55 60" fill="none" xmlns="http://www.w3.org/2000/svg"><path d="M46.0773 36.6652C45.9237 36.5093 45.714 36.4241 45.497 36.4241C45.28 36.4241 45.0703 36.5093 44.9143 36.6652L38.731 42.8409C38.4945 43.0723 38.4262 43.4278 38.553 43.7322C38.6798 44.0391 38.9797 44.2388 39.3113 44.2388H41.5764C41.3496 47.7504 39.5551 50.9746 36.6902 53.0202C33.8253 55.0658 30.1899 55.716 26.7935 54.7906C23.3922 53.8652 20.5907 51.4665 19.1595 48.2496C18.979 47.8502 18.5182 47.6603 18.111 47.821C17.7014 47.9793 17.4893 48.4298 17.6283 48.8462C19.2546 53.724 23.0947 57.5497 27.9809 59.1692C32.8671 60.7886 38.2336 60.0142 42.459 57.0773C46.6844 54.138 49.2762 49.382 49.4542 44.2412H51.6706C52.0022 44.2412 52.3021 44.0415 52.4289 43.7347C52.5556 43.4303 52.4874 43.0747 52.2509 42.8409L46.07 36.6676L46.0773 36.6652ZM48.6447 42.5998C48.4253 42.5998 48.2181 42.6851 48.062 42.8385C47.9084 42.9944 47.8206 43.2013 47.8206 43.4205C47.8206 43.4668 47.8206 43.5179 47.8231 43.5666C47.8231 43.6056 47.8255 43.647 47.8255 43.686C47.8206 47.2365 46.5308 50.6678 44.1901 53.3392C41.8519 56.0131 38.6188 57.7494 35.098 58.2243C31.5748 58.704 27.998 57.8858 25.0282 55.9327C29.1415 57.5327 33.7814 57.0042 37.4265 54.5154C41.0692 52.0266 43.2466 47.9013 43.2466 43.4936V43.4205C43.2466 43.2013 43.1612 42.9944 43.0052 42.8385C42.8491 42.6826 42.6419 42.5998 42.4249 42.5998H41.296L45.4946 38.4064L49.6907 42.5998H48.6423H48.6447ZM13.1493 23.3396C13.3029 23.493 13.5126 23.5782 13.7296 23.5782C13.9466 23.5782 14.1563 23.493 14.3123 23.3396L20.4956 17.1638C20.7272 16.9276 20.8004 16.577 20.6736 16.2701C20.5468 15.9633 20.2469 15.7636 19.9153 15.7636H17.6502C17.8745 12.252 19.6691 9.02529 22.5339 6.9797C25.3988 4.9341 29.0367 4.28391 32.4331 5.2093C35.8344 6.13712 38.6359 8.53582 40.0671 11.7528C40.2476 12.1521 40.7084 12.3421 41.1156 12.1838C41.5252 12.0231 41.7373 11.575 41.5983 11.1586C39.972 6.27836 36.1318 2.45017 31.2457 0.830737C26.3571 -0.788692 20.9906 -0.0142794 16.7651 2.92505C12.5397 5.86194 9.9479 10.6204 9.77235 15.7611H7.55602C7.22442 15.7611 6.92452 15.9608 6.79773 16.2677C6.67095 16.5721 6.73922 16.9276 6.97573 17.1614L13.1566 23.3371L13.1493 23.3396ZM10.5818 17.4049C10.8061 17.4049 11.0207 17.3124 11.1719 17.1541C11.3279 16.9934 11.4108 16.7766 11.4011 16.5526C11.3986 16.4722 11.3986 16.3943 11.3986 16.3139C11.4011 12.7634 12.6933 9.33213 15.034 6.65825C17.3723 3.9868 20.6053 2.25048 24.1261 1.77561C27.6518 1.2983 31.2262 2.11411 34.1959 4.06717C30.0826 2.46722 25.4427 2.99566 21.7976 5.48446C18.1525 7.97327 15.9752 12.0986 15.9776 16.5063V16.5843C15.9776 16.801 16.0629 17.008 16.2165 17.1638C16.3726 17.3173 16.5798 17.4049 16.7993 17.4049H17.9233L13.7247 21.5984L9.52853 17.4049H10.5794H10.5818ZM12.2228 30.8912C9.81624 30.8912 7.64623 32.3353 6.72702 34.5563C5.80782 36.7772 6.31741 39.3318 8.01684 41.0291C9.71871 42.7289 12.2764 43.2379 14.5 42.3174C16.7188 41.3993 18.1696 39.2344 18.1696 36.8308C18.1671 33.553 15.507 30.8961 12.2252 30.8937L12.2228 30.8912ZM12.2228 41.1265C10.4819 41.1265 8.91166 40.0794 8.24603 38.4721C7.5804 36.8673 7.94857 35.0165 9.17986 33.7892C10.4112 32.5618 12.2618 32.1917 13.8685 32.8589C15.4753 33.5237 16.5238 35.0896 16.5238 36.8283C16.5238 39.2027 14.5976 41.1241 12.2228 41.1265ZM19.6252 46.6935L22.0975 44.2241C22.3486 43.9733 22.4096 43.5886 22.2511 43.272L21.0418 40.8976C21.1515 40.659 21.249 40.4179 21.3417 40.1744L23.8774 39.3561C24.2163 39.249 24.4455 38.9324 24.4455 38.5744V35.0847C24.4455 34.7316 24.2163 34.415 23.8774 34.303L21.3392 33.4775C21.2515 33.2339 21.1515 32.9929 21.0393 32.7542L22.2487 30.3799H22.2511C22.412 30.0681 22.3511 29.6834 22.0975 29.4301L19.6252 26.9608H19.6276C19.3765 26.7124 18.9912 26.6515 18.6718 26.8122L16.2994 28.0225C16.0605 27.913 15.8191 27.8131 15.5753 27.7206L14.7512 25.1904C14.6415 24.8519 14.3245 24.623 13.9685 24.623H10.4746C10.1161 24.623 9.80405 24.8519 9.69189 25.1904L8.86534 27.7206C8.61908 27.8131 8.3777 27.9105 8.14119 28.0201L5.76881 26.8098C5.45184 26.6515 5.0666 26.7124 4.81547 26.9657L2.34068 29.4325C2.08955 29.6834 2.0286 30.0681 2.19196 30.3847L3.40374 32.7566C3.29646 32.988 3.1965 33.2291 3.10385 33.4799L0.568107 34.3054H0.565667C0.226755 34.415 0 34.7316 0 35.0871V38.5768C0 38.9348 0.229196 39.249 0.568107 39.3586L3.1014 40.1768C3.19406 40.4203 3.29158 40.6638 3.40374 40.9025L2.19196 43.272C2.0286 43.591 2.08955 43.9757 2.34068 44.2266L4.81547 46.6959C5.0666 46.9467 5.45184 47.0052 5.76881 46.8445L8.14362 45.6342C8.38013 45.7413 8.62152 45.8411 8.86534 45.9337L9.69189 48.4663C9.80161 48.8048 10.1161 49.0337 10.4746 49.0337H13.9685C14.3221 49.0337 14.639 48.8048 14.7512 48.4663L15.5753 45.9361C15.8191 45.8436 16.0605 45.7462 16.2994 45.6366L18.6743 46.8469C18.9912 47.0052 19.3765 46.9467 19.6252 46.6935ZM15.9288 43.9904C15.5241 44.1974 15.1047 44.3727 14.6732 44.5115C14.422 44.5919 14.2245 44.7891 14.1416 45.04L13.3736 47.3924H11.0744L10.3088 45.04H10.3063C10.2259 44.7891 10.0259 44.5919 9.77723 44.5115C9.34566 44.3751 8.92629 44.2022 8.52155 43.9904C8.28504 43.8686 8.00709 43.8686 7.76814 43.9879L5.55913 45.1106L3.93284 43.4863L5.05685 41.28C5.17633 41.0437 5.17632 40.7661 5.05441 40.5299C4.84473 40.1281 4.66917 39.7068 4.53263 39.2757C4.45217 39.0249 4.25468 38.8252 4.00355 38.7424L1.64823 37.9778V35.6765L4.00355 34.9118C4.25224 34.8339 4.44974 34.6366 4.5302 34.3858C4.66918 33.9548 4.84229 33.531 5.05441 33.1268C5.17632 32.8906 5.17633 32.613 5.05685 32.3767L3.93284 30.1704L5.56156 28.5461L7.77058 29.6688C8.00708 29.7905 8.28992 29.7881 8.52155 29.6663C8.92385 29.4569 9.34566 29.284 9.77723 29.1452C10.0259 29.0648 10.2259 28.8676 10.3063 28.6167L11.0719 26.2643H13.376L14.1441 28.6192C14.227 28.8676 14.4245 29.0648 14.6756 29.1452C15.1072 29.284 15.5265 29.4569 15.9313 29.6663C16.1678 29.7881 16.4433 29.7905 16.6822 29.6688L18.8913 28.5461L20.5175 30.1704L19.396 32.3767C19.2765 32.613 19.2765 32.8881 19.396 33.1219C19.6032 33.5286 19.7788 33.9499 19.9177 34.3834C19.9982 34.6342 20.1957 34.8315 20.4468 34.9143L22.8046 35.6789V37.9802L20.4468 38.7449C20.1957 38.8252 19.9982 39.0249 19.9177 39.2757C19.7788 39.7068 19.6057 40.1305 19.396 40.5348C19.2765 40.7661 19.2765 41.0462 19.396 41.28L20.5175 43.4863L18.8913 45.1106L16.6822 43.9879C16.4457 43.8686 16.1678 43.8686 15.9313 43.9904H15.9288ZM46.2846 11.3193C41.4715 11.3242 37.5704 15.223 37.5655 20.0301C37.5168 21.8736 38.1409 23.6732 39.3259 25.0881C40.2573 26.4007 41.313 27.8837 41.7178 31.5512C41.7617 31.9701 42.1152 32.2818 42.5322 32.2818H42.7638V33.4288C42.7662 34.9873 44.0292 36.2512 45.5897 36.2512H46.9697C48.5301 36.2512 49.7956 34.9873 49.7956 33.4288V32.2818H49.9785C50.3978 32.2818 50.7489 31.9701 50.7952 31.5536C51.2024 27.8764 52.2679 26.4129 53.2042 25.1222C54.4184 23.7049 55.0548 21.8882 54.9963 20.0277C54.9939 15.2205 51.0952 11.3242 46.2797 11.3168L46.2846 11.3193ZM44.4071 21.1016H43.0881C42.5882 21.1016 42.1835 20.6974 42.1835 20.1981C42.1835 19.6989 42.5882 19.2995 43.0881 19.2995H44.3242C44.3681 19.2995 44.4047 19.3361 44.4071 19.3823V21.1016ZM48.1595 33.4288C48.1571 34.0814 47.628 34.6099 46.9721 34.6147H45.5921C44.9411 34.6123 44.4096 34.0838 44.4096 33.4288V32.2818H48.1571V33.4288H48.1595ZM46.0505 30.6404V22.743H46.5186V30.6428H46.0505V30.6404ZM51.8803 24.1554C50.4149 26.033 49.5054 28.2782 49.2592 30.6428H48.162V22.743H49.4811C50.8879 22.743 52.029 21.6057 52.029 20.1981C52.029 18.7906 50.8903 17.6582 49.4811 17.6582H48.2473C47.294 17.6582 46.5211 18.4277 46.5186 19.3823V21.104H46.0505V19.3823C46.0481 18.4302 45.2776 17.6582 44.3242 17.6582H43.0881C41.6812 17.6582 40.5401 18.7955 40.5401 20.1981C40.5401 21.6008 41.6788 22.743 43.0881 22.743H44.4071V30.6428H43.2587C43.0076 28.2782 42.1103 26.0281 40.6669 24.1383C39.6794 23.0011 39.1601 21.5327 39.2064 20.0301C39.2064 16.1264 42.3737 12.9631 46.2821 12.9631C50.1906 12.9631 53.3578 16.1264 53.3578 20.0301C53.4163 21.5448 52.8872 23.023 51.8803 24.1578V24.1554ZM48.162 21.0992V19.3775V19.3823C48.1644 19.3361 48.201 19.2995 48.2473 19.2995H49.4811C49.9809 19.2971 50.3856 19.7014 50.3881 20.1981C50.3808 20.6925 49.9785 21.0943 49.4811 21.1016H48.162V21.0992Z" fill="#0096A3"></path></svg>