<svg width="60" height="60" viewBox="0 0 60 60" fill="none" xmlns="http://www.w3.org/2000/svg"><path fill-rule="evenodd" clip-rule="evenodd" d="M30 13.1837C39.2899 13.1837 46.8182 20.7117 46.8182 30.0012C46.8182 39.2907 39.2899 46.8212 30 46.8212C20.7101 46.8212 13.1818 39.2907 13.1818 30.0012C13.1818 20.7117 20.7101 13.1837 30 13.1837ZM40.5575 40.4884C43.23 37.7991 44.8831 34.0929 44.8831 29.9988C44.8831 21.7792 38.2199 15.1187 30 15.1187C21.7801 15.1187 15.1169 21.7792 15.1169 29.9988C15.1169 34.0905 16.77 37.7991 19.4425 40.4884C20.8523 35.999 25.0478 32.7411 30 32.7411C34.9522 32.7411 39.1477 35.999 40.5575 40.4884ZM30 31.5314C26.9202 31.5314 24.4044 29.0132 24.4044 25.936C24.4044 22.8587 26.9202 20.3382 30 20.3382C33.0798 20.3382 35.5956 22.8563 35.5956 25.936C35.5956 29.0156 33.0798 31.5314 30 31.5314ZM58.048 30.9675H52.491L53.2669 31.8856C53.6091 32.2929 53.5585 32.9049 53.1488 33.2495C52.7416 33.5917 52.1319 33.5411 51.7849 33.1339L49.6715 30.6253C49.3678 30.2639 49.3678 29.7385 49.6715 29.3771L51.7849 26.8685C52.1295 26.4589 52.7416 26.4059 53.1488 26.7505C53.5585 27.0951 53.6115 27.7071 53.2669 28.1168L52.491 29.0325H59.0337C59.5662 29.0325 60 29.4662 60 30.0012C60 44.5729 49.5895 56.73 35.8053 59.4385C35.2823 59.5421 34.7739 59.2 34.6703 58.6746C34.5666 58.1517 34.9064 57.6433 35.4342 57.5397C48.0231 55.0673 57.6022 44.168 58.0505 30.9699L58.048 30.9675ZM29.0312 7.50874V0.968718C29.0312 0.436167 29.465 0 30 0C44.5723 0 56.7299 10.4125 59.4385 24.1962C59.5421 24.7191 59.1999 25.2275 58.6746 25.3311C58.1517 25.4324 57.6432 25.0926 57.5396 24.5672C55.0671 11.9788 44.1674 2.4001 30.9688 1.94948V7.50633L31.8869 6.7328C32.2942 6.39062 32.9063 6.44123 33.2509 6.84848C33.5931 7.25813 33.5425 7.86779 33.1352 8.21238L30.6266 10.3257C30.2651 10.6293 29.7373 10.6293 29.3783 10.3257L26.8696 8.21238C26.46 7.8702 26.4069 7.25813 26.7516 6.84848C27.0962 6.44123 27.7082 6.38821 28.1155 6.7328L29.0337 7.50633L29.0312 7.50874ZM1.95196 29.0301H7.50905L6.73547 28.1144C6.39086 27.7047 6.44147 27.0951 6.85114 26.7481C7.2584 26.4059 7.8705 26.4565 8.21511 26.8661L10.3285 29.3747C10.6322 29.7361 10.6322 30.2615 10.3285 30.6229L8.21511 33.1315C7.87291 33.5387 7.2584 33.5917 6.85114 33.2471C6.44147 32.9049 6.38845 32.2904 6.73547 31.8832L7.50905 30.9651H0.968757C0.433775 30.9651 0 30.5314 0 29.9964C0 15.4247 10.4129 3.2676 24.1947 0.561472C24.7177 0.457854 25.2285 0.797622 25.3297 1.32535C25.4334 1.84827 25.0936 2.35672 24.5658 2.45793C11.9793 4.93032 2.39777 15.8296 1.94955 29.0277L1.95196 29.0301ZM29.0312 58.0457V52.4888L28.1131 53.2648C27.7059 53.607 27.0962 53.5564 26.7491 53.1467C26.4069 52.7395 26.4575 52.1298 26.8672 51.7828L29.3759 49.6695C29.7349 49.3658 30.2627 49.3658 30.6241 49.6695L33.1328 51.7828C33.54 52.1274 33.5931 52.7395 33.2485 53.1467C32.9063 53.5564 32.2917 53.6094 31.8845 53.2648L30.9663 52.4888V59.0313C30.9663 59.5638 30.5326 60 29.9976 60C15.4253 60 3.26772 49.5875 0.559068 35.8038C0.457855 35.2809 0.797652 34.7725 1.323 34.6689C1.84593 34.5653 2.3568 34.9074 2.45802 35.4328C4.93051 48.0212 15.8302 57.5999 29.0288 58.0481L29.0312 58.0457Z" fill="#0096A3"></path></svg>