<?xml version="1.0" encoding="iso-8859-1"?>
<!-- Generator: Adobe Illustrator 15.0.0, SVG Export Plug-In . SVG Version: 6.00 Build 0)  -->
<!DOCTYPE svg PUBLIC "-//W3C//DTD SVG 1.1//EN" "http://www.w3.org/Graphics/SVG/1.1/DTD/svg11.dtd">
<svg version="1.1" id="Layer_1" xmlns="http://www.w3.org/2000/svg" xmlns:xlink="http://www.w3.org/1999/xlink" x="0px" y="0px"
	 width="51.6px" height="50px" viewBox="0 0 51.6 50" style="enable-background:new 0 0 51.6 50;" xml:space="preserve">
<g transform="translate(0,-952.36218)">
	<path style="fill:#0CB4C4;" d="M5.824,953.364c-0.818,0.022-1.66,0.24-2.413,0.677c-2.415,1.399-3.219,4.516-1.829,6.932
		l4.536,7.903H1.215c-0.646,0-1.169,0.524-1.169,1.17v4.208c0,0.646,0.522,1.17,1.169,1.17h1.226v0.018
		c0,9.937,5.396,18.812,13.298,21.421c0.617,0.205,1.283-0.127,1.492-0.742c0.206-0.615-0.125-1.285-0.742-1.49l0,0
		c-6.681-2.203-11.706-10.109-11.706-19.188v-1.188c0-0.646-0.524-1.17-1.17-1.17H2.386v-1.867h46.826v1.867h-1.227
		c-0.645,0-1.17,0.524-1.17,1.17v1.188c0,9.079-5.025,16.985-11.705,19.188c-0.617,0.205-0.949,0.875-0.742,1.49
		c0.209,0.615,0.873,0.947,1.492,0.742l0,0c7.902-2.609,13.297-11.484,13.297-21.421v-0.018h1.227c0.646,0,1.17-0.524,1.17-1.17
		v-4.208c0-0.646-0.523-1.17-1.17-1.17H8.806l-5.212-9.073c-0.771-1.338-0.322-2.962,1.006-3.731
		c0.416-0.241,0.843-0.354,1.28-0.366c0.969-0.027,1.925,0.441,2.451,1.354l4.992,8.707c0.323,0.56,1.041,0.753,1.601,0.431
		c0.561-0.323,0.755-1.04,0.433-1.601c0,0,0-0.001-0.003-0.001l-5.011-8.707C9.382,954.218,7.621,953.315,5.824,953.364z
		 M22.47,974.874c-0.595,0.066-1.046,0.572-1.042,1.17v3.97h-3.914c-0.647,0-1.172,0.525-1.172,1.172v6.51
		c0,0.646,0.524,1.172,1.172,1.172h3.914v3.971c0,0.645,0.524,1.168,1.17,1.168h6.403c0.645,0,1.17-0.523,1.17-1.168v-3.971h3.914
		c0.648,0,1.172-0.525,1.172-1.172v-6.51c0-0.646-0.523-1.172-1.172-1.172h-3.914v-3.97c0-0.646-0.525-1.17-1.17-1.17h-6.403
		C22.555,974.872,22.513,974.872,22.47,974.874z M23.769,977.216h4.062v3.97c0,0.646,0.523,1.169,1.17,1.169h3.914v4.173h-3.914
		c-0.646,0-1.17,0.521-1.17,1.168v3.971h-4.062v-3.971c0-0.646-0.525-1.168-1.171-1.168h-3.913v-4.173h3.913
		c0.646,0,1.171-0.523,1.171-1.169V977.216z M14.276,999.02c-0.646,0.027-1.146,0.576-1.116,1.223
		c0.03,0.648,0.579,1.148,1.225,1.117h0.001h23.999c0.646,0.01,1.178-0.51,1.188-1.154c0.01-0.646-0.508-1.178-1.152-1.186
		c-0.012,0-0.023,0-0.035,0H14.385C14.348,999.016,14.313,999.016,14.276,999.02z"/>
</g>
</svg>
