<svg xmlns="http://www.w3.org/2000/svg" xmlns:xlink="http://www.w3.org/1999/xlink" version="1.1" id="Layer_1" x="0px" y="0px" width="60px" height="60px" viewBox="0 0 60 60" style="enable-background:new 0 0 60 60;" xml:space="preserve"><g><g><path style="fill:#0CB4C4;" d="M30,60C13.429,60,0,46.571,0,30S13.429,0,30,0s30,13.429,30,30S46.571,60,30,60z M30,1.905 C14.477,1.905,1.904,14.477,1.904,30S14.477,58.096,30,58.096S58.096,45.523,58.096,30S45.523,1.905,30,1.905z"></path><g><g><g><path style="fill:#0CB4C4;" d="M42.19,54.001H17.81c-1.428,0-2.571-1.144-2.571-2.572V8.571c0-1.429,1.144-2.572,2.571-2.572 H42.19c1.428,0,2.571,1.144,2.571,2.572v42.953C44.762,52.857,43.618,54.001,42.19,54.001z M17.81,7.904 c-0.382,0-0.667,0.286-0.667,0.667v42.953c0,0.381,0.285,0.666,0.667,0.666H42.19c0.382,0,0.667-0.285,0.667-0.666V8.571 c0-0.381-0.285-0.667-0.667-0.667H17.81z"></path><path style="fill:#0CB4C4;" d="M43.81,45.334H16.19c-0.571,0-0.952-0.381-0.952-0.953c0-0.571,0.381-0.952,0.952-0.952H43.81 c0.571,0,0.952,0.381,0.952,0.952C44.762,44.953,44.381,45.334,43.81,45.334z"></path><path style="fill:#0CB4C4;" d="M43.81,14.19H16.19c-0.571,0-0.952-0.381-0.952-0.952c0-0.572,0.381-0.953,0.952-0.953H43.81 c0.571,0,0.952,0.381,0.952,0.953C44.762,13.81,44.381,14.19,43.81,14.19z"></path><path style="fill:#0CB4C4;" d="M32,10.952h-4c-0.572,0-0.952-0.381-0.952-0.952S27.428,9.048,28,9.048h4 c0.572,0,0.952,0.381,0.952,0.952S32.572,10.952,32,10.952z"></path><path style="fill:#0CB4C4;" d="M30,51.429c-1.524,0-2.666-1.237-2.666-2.666c0-1.524,1.237-2.668,2.666-2.668 s2.666,1.239,2.666,2.668C32.762,50.285,31.524,51.429,30,51.429z M30,48c-0.477,0-0.762,0.381-0.762,0.763 c0,0.476,0.381,0.761,0.762,0.761s0.762-0.38,0.762-0.761C30.856,48.381,30.477,48,30,48z"></path></g></g><g><g><path style="fill:#0CB4C4;" d="M35.81,35.714L35.81,35.714c-0.286,0-0.476-0.095-0.667-0.285l-3.238-3.238l-0.952,0.952 c-0.285,0.286-0.667,0.382-0.952,0.19c-0.381-0.095-0.571-0.381-0.667-0.761l-0.952-6.382c0-0.285,0.095-0.571,0.286-0.856 c0.189-0.287,0.477-0.287,0.856-0.287l6.382,0.952c0.381,0.096,0.666,0.287,0.762,0.668c0.095,0.381,0,0.761-0.191,0.952 l-0.952,0.952l3.239,3.238c0.381,0.381,0.381,0.952,0,1.333l-2.287,2.286C36.382,35.619,36.095,35.714,35.81,35.714z M31.904,29.809c0.286,0,0.477,0.096,0.668,0.287l3.237,3.237l0.857-0.856l-3.238-3.238c-0.19-0.19-0.286-0.382-0.286-0.667 s0.096-0.476,0.286-0.667l0.285-0.285l-3.237-0.477l0.476,3.238l0.285-0.285C31.429,29.904,31.619,29.809,31.904,29.809z"></path></g><path style="fill:#0CB4C4;" d="M29.904,30.285h-8c-0.571,0-0.952-0.381-0.952-0.952V18.571c0-0.571,0.381-0.952,0.952-0.952 h10.762c0.572,0,0.952,0.381,0.952,0.952v8c0,0.286-0.094,0.571-0.285,0.763c-0.19,0.189-0.476,0.285-0.761,0.189l-2.096-0.381 l0.285,2.096c0,0.285,0,0.57-0.19,0.762S30.191,30.285,29.904,30.285z M22.857,28.381h5.905l-0.287-2.19 c0-0.285,0.096-0.571,0.287-0.856c0.189-0.287,0.476-0.287,0.856-0.287l2.19,0.287v-5.811h-8.857v8.857H22.857z"></path></g><path style="fill:#0CB4C4;" d="M37.904,40.191H22.096c-0.571,0-0.952-0.383-0.952-0.953c0-0.571,0.381-0.952,0.952-0.952h15.809 c0.571,0,0.952,0.381,0.952,0.952C38.856,39.809,38.381,40.191,37.904,40.191z"></path></g></g></g></svg>