<svg width="64" height="60" viewBox="0 0 64 60" fill="none" xmlns="http://www.w3.org/2000/svg"><path d="M13.4287 57.7344H50.5586V38.1426H17.7129L17.6855 38.1543C17.6014 38.1896 17.5109 38.208 17.4199 38.208C17.3289 38.208 17.2384 38.1896 17.1543 38.1543L17.126 38.1426H13.4287V57.7344ZM27.8564 2.63965C26.3334 2.33039 24.7626 2.34887 23.2471 2.69336C21.7316 3.03785 20.305 3.70053 19.0605 4.63867C17.816 5.57693 16.7817 6.76991 16.0244 8.13867C15.2672 9.50741 14.8036 11.0217 14.665 12.583C14.5351 14.0469 14.6931 15.5215 15.1289 16.9219L15.2197 17.2002V17.2012C15.279 17.3743 15.2937 17.5597 15.2627 17.7402C15.2316 17.9208 15.1564 18.0907 15.043 18.2334C14.9294 18.3761 14.7817 18.4872 14.6143 18.5566C14.4886 18.6087 14.3547 18.6362 14.2197 18.6377L14.085 18.6309C12.5987 18.4578 11.093 18.6038 9.66699 19.0605C8.24094 19.5174 6.92675 20.2748 5.81152 21.2812C4.6965 22.2876 3.8049 23.5205 3.19629 24.8994C2.58764 26.2785 2.27567 27.7725 2.28027 29.2822L2.29102 29.8008C2.52281 35.1293 6.30522 39.4712 11.1221 39.9453L11.2871 39.9619V37.0967C11.2872 36.8092 11.4006 36.5339 11.6016 36.3311C11.8025 36.1283 12.0748 36.0146 12.3584 36.0146H16.3545V26.8408C16.3546 26.5533 16.468 26.2781 16.6689 26.0752C16.8699 25.8723 17.1422 25.7588 17.4258 25.7588C17.7094 25.7588 17.9816 25.8723 18.1826 26.0752C18.3835 26.2781 18.497 26.5534 18.4971 26.8408V35.9775H22.7656V22.6377C22.7656 22.3501 22.8791 22.075 23.0801 21.8721C23.2811 21.6692 23.5533 21.5547 23.8369 21.5547C24.1205 21.5547 24.3928 21.6692 24.5938 21.8721C24.7946 22.075 24.9082 22.3502 24.9082 22.6377V35.9775H29.6279V27.4209C29.6279 27.1333 29.7414 26.8572 29.9424 26.6543C30.1433 26.4515 30.4157 26.338 30.6992 26.3379C30.9827 26.3379 31.2551 26.4516 31.4561 26.6543C31.6571 26.8572 31.7705 27.1333 31.7705 27.4209V35.9775H51.6299C51.9135 35.9775 52.1857 36.0911 52.3867 36.2939C52.5877 36.4968 52.7011 36.7721 52.7012 37.0596V40.0078H53.1602V39.9561C56.2762 39.9154 58.4086 38.6119 59.7617 36.7598C61.046 35.0017 61.6215 32.7605 61.6885 30.6611L61.6953 30.2432C61.6994 28.8137 61.3911 27.4008 60.792 26.1055C60.1927 24.8099 59.3174 23.663 58.2285 22.748C57.1397 21.8332 55.8635 21.1725 54.4922 20.8125C53.2924 20.4976 52.0453 20.42 50.8193 20.582L50.2949 20.666C50.0204 20.7167 49.7368 20.6574 49.5049 20.5C49.3018 20.3621 49.1525 20.1583 49.0801 19.9238L49.0537 19.8213V19.8203L48.9482 19.3789C48.6762 18.3566 48.2224 17.3907 47.6084 16.5293C46.9067 15.5449 46.0099 14.7181 44.9756 14.1006C43.9413 13.4831 42.7916 13.0879 41.5986 12.9414C40.5547 12.8132 39.4975 12.878 38.4785 13.1299L38.0439 13.249H38.043C37.8921 13.2961 37.7325 13.3095 37.5762 13.2871C37.4197 13.2646 37.2698 13.207 37.1377 13.1191C37.0057 13.0313 36.8939 12.9149 36.8115 12.7783C36.7498 12.6759 36.706 12.5639 36.6807 12.4473L36.6611 12.3291V12.3281L36.625 12.0371C36.4241 10.5833 35.9412 9.18254 35.2021 7.91602C34.4139 6.56515 33.3515 5.39745 32.0859 4.48828C30.8204 3.57919 29.3794 2.9489 27.8564 2.63965ZM11.2988 42.0732L11.1602 42.0625C4.98392 41.6006 0.150391 36.0425 0.150391 29.2324L0.15332 28.917C0.221873 25.6612 1.50863 22.5478 3.76172 20.207C6.08755 17.7909 9.25804 16.3897 12.5938 16.3037L12.7734 16.2988L12.7373 16.123C12.5546 15.2456 12.4609 14.3517 12.459 13.4551C12.4665 10.1674 13.6771 6.99833 15.8574 4.55664C18.0377 2.11506 21.034 0.57219 24.2715 0.224609C27.509 -0.122904 30.7604 0.748775 33.4004 2.67285C36.0404 4.59692 37.8839 7.43795 38.5762 10.6504L38.6064 10.791L38.748 10.7666C41.3127 10.3296 43.9476 10.8388 46.1719 12.2002C48.3964 13.5618 50.0621 15.6858 50.8643 18.1846L50.8975 18.2881H52.0449C55.1744 18.2913 58.1754 19.548 60.3887 21.7822C62.6018 24.0164 63.8463 27.046 63.8496 30.2061L63.8398 30.748C63.7395 33.4585 62.8852 36.2118 61.2168 38.3291C59.4406 40.5832 56.7364 42.124 53.0098 42.124H52.7012V58.7676C52.7011 59.055 52.5877 59.3303 52.3867 59.5332C52.1857 59.7361 51.9135 59.8496 51.6299 59.8496H12.3701C12.0865 59.8496 11.8142 59.7361 11.6133 59.5332C11.4124 59.3303 11.2989 59.055 11.2988 58.7676V42.0732Z" fill="#0CB4C4" stroke="white" stroke-width="0.3"></path><path d="M31.9937 40.2056C32.2773 40.2056 32.5495 40.3191 32.7505 40.522C32.9515 40.7248 33.0649 41.0001 33.0649 41.2876V42.6704H35.853C36.1365 42.6705 36.409 42.784 36.6099 42.9868C36.8109 43.1897 36.9233 43.4658 36.9233 43.7534C36.9233 44.0408 36.8107 44.3162 36.6099 44.519C36.409 44.7218 36.1365 44.8353 35.853 44.8354H33.0649V47.4282H34.3511C34.8008 47.4283 35.2461 47.5182 35.6616 47.6919C36.0774 47.8657 36.4556 48.1206 36.7739 48.4419C37.0922 48.7632 37.3447 49.145 37.5171 49.5649C37.6894 49.985 37.7788 50.4354 37.7788 50.8901L37.7739 51.061C37.7545 51.4575 37.6679 51.8479 37.5171 52.2153C37.3447 52.6354 37.0923 53.017 36.7739 53.3384C36.4555 53.6598 36.0774 53.9145 35.6616 54.0884C35.246 54.2621 34.8008 54.352 34.3511 54.3521H33.0649V55.895C33.0649 56.1826 32.9515 56.4577 32.7505 56.6606C32.5495 56.8635 32.2773 56.978 31.9937 56.978C31.7101 56.978 31.4378 56.8635 31.2368 56.6606C31.0359 56.4577 30.9224 56.1825 30.9224 55.895V54.3521H27.8179C27.5344 54.3521 27.262 54.2383 27.061 54.0356C26.86 53.8327 26.7466 53.5566 26.7466 53.269C26.7467 52.9816 26.8601 52.7063 27.061 52.5034C27.262 52.3006 27.5343 52.187 27.8179 52.187H30.9224V49.5942H29.6372C28.7285 49.5942 27.8564 49.2296 27.2134 48.5806C26.5704 47.9315 26.2095 47.0508 26.2095 46.1323L26.2134 45.9604C26.2555 45.1046 26.6107 44.2926 27.2134 43.6841C27.8564 43.035 28.7285 42.6704 29.6372 42.6704H30.9224V41.2876C30.9224 41.0002 31.0359 40.7248 31.2368 40.522C31.4378 40.3191 31.7101 40.2056 31.9937 40.2056ZM33.0649 52.187H34.3511C34.6923 52.1869 35.0194 52.0493 35.2603 51.8062C35.5011 51.5629 35.6362 51.2334 35.6362 50.8901C35.6362 50.5468 35.5012 50.2173 35.2603 49.9741C35.0194 49.731 34.6923 49.5944 34.3511 49.5942H33.0649V52.187ZM29.6372 44.8354C29.2958 44.8354 28.968 44.973 28.7271 45.2163C28.4863 45.4595 28.3511 45.7891 28.3511 46.1323C28.3511 46.4756 28.4863 46.8052 28.7271 47.0483C28.968 47.2916 29.2958 47.4282 29.6372 47.4282H30.9224V44.8354H29.6372Z" fill="#0CB4C4" stroke="white" stroke-width="0.3"></path><path d="M23.8364 15.5522C24.1201 15.5522 24.3932 15.6658 24.5942 15.8687C24.795 16.0715 24.9076 16.3469 24.9077 16.6343V18.2124C24.9077 18.4998 24.795 18.7751 24.5942 18.978C24.3933 19.1809 24.1201 19.2954 23.8364 19.2954C23.553 19.2953 23.2805 19.1808 23.0796 18.978C22.8788 18.7751 22.7661 18.4998 22.7661 18.2124V16.6343C22.7662 16.3469 22.8788 16.0715 23.0796 15.8687C23.2805 15.6659 23.553 15.5524 23.8364 15.5522Z" fill="#0CB4C4" stroke="white" stroke-width="0.3"></path></svg>