<svg width="54" height="60" viewBox="0 0 54 60" fill="none" xmlns="http://www.w3.org/2000/svg"><path d="M48.0681 14.5752H46.998C47.0039 14.4873 47.0039 14.3965 47.0039 14.3086C47.0039 11.294 44.3579 8.83885 41.1039 8.83885C41.022 8.83885 40.9431 8.84178 40.8612 8.84471C40.335 3.89061 35.774 0 30.2772 0C24.4094 0 19.6378 4.40038 19.6378 9.81145V9.92278H18.521C13.9747 9.92278 10.2759 13.6288 10.2759 18.1847C10.2759 22.7404 13.9744 26.4467 18.521 26.4467H19.7518V27.3667C19.7518 27.8178 20.1173 28.187 20.5705 28.187H22.8217C23.0176 28.8725 23.2924 29.5347 23.6404 30.1587L22.047 31.7553C21.7283 32.0747 21.7283 32.5932 22.047 32.9126L24.5672 35.4409C24.7192 35.5932 24.9297 35.6811 25.1461 35.6811C25.3624 35.6811 25.57 35.5962 25.725 35.4409L27.3184 33.8442C27.9441 34.1929 28.6018 34.4653 29.286 34.6616V36.9174C29.286 37.3686 29.6515 37.7378 30.1047 37.7378H33.6716C34.1218 37.7378 34.4902 37.3715 34.4902 36.9174V34.6616C35.1773 34.4653 35.8351 34.1899 36.4608 33.8442L38.0513 35.4409C38.2033 35.5932 38.4109 35.6811 38.6301 35.6811C38.8465 35.6811 39.0541 35.5962 39.209 35.4409L41.7322 32.9126C41.8842 32.7602 41.9719 32.5493 41.9719 32.3325C41.9719 32.1157 41.8871 31.9077 41.7322 31.7524L40.1388 30.1558C40.4867 29.5317 40.7586 28.8726 40.9545 28.1841H43.2057C43.6559 28.1841 44.0243 27.8179 44.0243 27.3637V26.4438H48.0766C51.3424 26.4438 54 23.7807 54 20.5083C53.9912 17.2358 51.3339 14.5752 48.0681 14.5752ZM42.3815 26.5429H40.3086C39.9227 26.5429 39.5894 26.8153 39.5105 27.1933C39.3117 28.1395 38.9433 29.0272 38.42 29.8299C38.2095 30.1551 38.2533 30.5829 38.5252 30.8583L39.9929 32.3289L38.6275 33.6971L37.1628 32.2264C36.8909 31.951 36.4611 31.9071 36.1395 32.118C35.3326 32.6454 34.4438 33.0116 33.5024 33.2137C33.1252 33.2928 32.8533 33.6268 32.8533 34.0135V36.0906H30.9208V34.0135C30.9208 33.6268 30.6489 33.2928 30.2717 33.2137C29.3332 33.0145 28.4473 32.6483 27.6375 32.118C27.313 31.9071 26.8861 31.951 26.6142 32.2264L25.1465 33.6971L23.7812 32.3289L25.2489 30.8583C25.5208 30.5858 25.5675 30.1551 25.3541 29.8299C24.8249 29.0214 24.4566 28.1337 24.2607 27.1933C24.1817 26.8153 23.8484 26.5429 23.4625 26.5429H21.3897V24.6064H23.4625C23.8484 24.6064 24.1818 24.3339 24.2607 23.956C24.4566 23.0214 24.825 22.1337 25.3541 21.3164C25.5646 20.9912 25.5178 20.5664 25.2459 20.2939L23.7783 18.8203L25.1436 17.4522L26.6113 18.9228C26.8832 19.1953 27.31 19.2422 27.6346 19.0312C28.4503 18.501 29.3361 18.1318 30.2688 17.9356C30.646 17.8565 30.9179 17.5225 30.9179 17.1358V15.0587H32.8504V17.1358C32.8504 17.5225 33.1223 17.8565 33.4994 17.9356C34.4409 18.1348 35.3297 18.5039 36.1366 19.0312C36.4611 19.2422 36.888 19.1982 37.1599 18.9228L38.6246 17.4522L39.99 18.8203L38.5223 20.291C38.2504 20.5634 38.2036 20.9941 38.4141 21.3164C38.9404 22.1249 39.3088 23.0126 39.5076 23.956C39.5865 24.3339 39.9198 24.6064 40.3057 24.6064H42.3786L42.3815 26.5429ZM48.0681 24.8056H44.0158V23.786C44.0158 23.3349 43.6504 22.9657 43.1972 22.9657H40.946C40.7501 22.2801 40.4752 21.618 40.1303 20.994L41.7237 19.3974C41.8757 19.245 41.9634 19.0341 41.9634 18.8173C41.9634 18.6005 41.8786 18.3925 41.7237 18.2372L39.2005 15.7089C39.0485 15.5565 38.8409 15.4687 38.6217 15.4687C38.4053 15.4687 38.1977 15.5536 38.0428 15.7089L36.4523 17.3056C35.8266 16.9569 35.1688 16.6845 34.4817 16.4882V14.2324C34.4817 13.7812 34.1163 13.412 33.6631 13.412H30.0962C29.6459 13.412 29.2775 13.7782 29.2775 14.2324V16.4882C28.5963 16.6845 27.9384 16.957 27.3099 17.3056L25.7136 15.7089C25.5615 15.5565 25.354 15.4687 25.1347 15.4687C24.9183 15.4687 24.7107 15.5536 24.5558 15.7089L22.0356 18.2372C21.7169 18.5565 21.7169 19.0751 22.0356 19.3944L23.629 20.9911C23.281 21.621 23.0091 22.2802 22.8133 22.9628H20.5591C20.1089 22.9628 19.7405 23.329 19.7405 23.7831V24.8027H18.5096C14.8667 24.8027 11.9021 21.832 11.9021 18.1816C11.9021 14.5312 14.8667 11.5606 18.5096 11.5606H20.4948C20.7287 11.5606 20.9509 11.461 21.1058 11.2852C21.2608 11.1094 21.3339 10.878 21.3076 10.6465C21.2754 10.377 21.2608 10.1045 21.2608 9.81155C21.2608 5.30572 25.3013 1.63809 30.2655 1.63809C35.1978 1.63809 39.2381 5.27677 39.2703 9.75005C39.2732 9.99321 39.3814 10.2217 39.5656 10.3741C39.7527 10.5293 39.9954 10.5909 40.2351 10.5469C40.5099 10.4971 40.7994 10.4708 41.0946 10.4708C43.4452 10.4708 45.3603 12.1905 45.3603 14.3028C45.3603 14.5958 45.3223 14.8917 45.2462 15.1846C45.1819 15.4307 45.2375 15.6915 45.3924 15.8907C45.5474 16.0899 45.7842 16.2071 46.0386 16.2071H48.0588C50.4241 16.2071 52.3479 18.1348 52.3479 20.5049C52.3596 22.878 50.4334 24.8056 48.0681 24.8056ZM31.8826 20.3818C29.0233 20.3818 26.6989 22.7109 26.6989 25.5761C26.6989 28.4413 29.0233 30.7734 31.8826 30.7734C34.742 30.7734 37.0692 28.4413 37.0692 25.5761C37.0721 22.7109 34.7449 20.3818 31.8826 20.3818ZM31.8826 29.1358C29.9266 29.1358 28.3332 27.5391 28.3332 25.5762C28.3332 23.6162 29.9266 22.0196 31.8826 22.0196C33.8415 22.0196 35.4349 23.6162 35.4349 25.5762C35.4349 27.5391 33.8415 29.1358 31.8826 29.1358ZM48.7612 40.8635C47.425 39.677 45.6854 39.3576 43.8611 39.9699L34.3646 43.1457C33.8939 41.9269 32.8647 40.9924 31.5637 40.6584C27.4296 39.5949 24.9065 38.719 23.237 38.1389C19.4128 36.8088 19.1702 36.8322 14.5511 38.9562C13.1478 39.6007 11.2708 40.465 8.6921 41.5548L7.853 39.5216C7.6805 39.1027 7.20394 38.9064 6.78584 39.0763L0.502873 41.6779C0.30114 41.7599 0.143259 41.9211 0.0614001 42.1203C-0.0204667 42.3224 -0.0204667 42.5451 0.0614001 42.7472L6.97008 59.4932C7.05194 59.6953 7.21275 59.8535 7.41155 59.9355C7.5168 59.9795 7.62206 60 7.73023 60C7.83549 60 7.94367 59.9795 8.04307 59.9385L14.329 57.334C14.5307 57.2519 14.6886 57.0908 14.7704 56.8916C14.8523 56.6894 14.8523 56.4668 14.7704 56.2646L14.0541 54.5303L17.3462 52.7813C21.8544 54.5098 25.2634 55.292 28.395 55.292C28.8335 55.292 29.2662 55.2774 29.696 55.2452C33.0992 55.0079 36.1193 53.8243 39.941 52.3243C41.9876 51.5216 44.306 50.6134 47.0923 49.6818C48.9167 49.0724 50.1154 47.7687 50.475 46.0168C50.858 44.1505 50.185 42.1291 48.7612 40.8635ZM8.17207 58.1104L1.88618 42.8764L6.65763 40.9019L12.2447 54.437C12.2506 54.4546 12.2594 54.4722 12.2681 54.4898L12.9464 56.1304L8.17207 58.1104ZM48.8757 45.6889C48.709 46.5063 48.174 47.5933 46.5777 48.1293C43.7505 49.0756 41.4116 49.9897 39.3474 50.7983C31.6203 53.8276 28.0943 55.2104 17.5896 51.1176C17.3674 51.0327 17.1218 51.0444 16.9113 51.1586L13.4263 53.0102L9.32144 43.0668C11.9265 41.9652 13.821 41.0922 15.236 40.4418C17.3762 39.4574 18.4521 38.9623 19.3233 38.8774C20.1536 38.7953 20.9547 39.0737 22.7031 39.683C24.3988 40.2719 26.9599 41.1625 31.1584 42.2436C32.132 42.4955 32.8512 43.3041 32.9886 44.309V44.3119C33.0325 44.6254 33.012 44.9389 32.9331 45.2465C32.5969 46.5648 31.252 47.3617 29.9363 47.0248L21.2444 44.7894C20.8059 44.6781 20.3615 44.9418 20.2504 45.3783C20.1393 45.8178 20.4024 46.2631 20.8381 46.3744L29.53 48.6097C29.8691 48.6976 30.2112 48.7387 30.5474 48.7387C32.3747 48.7387 34.0442 47.5053 34.5178 45.6537C34.5938 45.3637 34.6347 45.0707 34.6435 44.7748L44.3795 41.5199C45.9758 40.9867 47.0546 41.5346 47.6774 42.0883C48.6568 42.9584 49.1388 44.4057 48.8757 45.6889Z" fill="#0CB4C4"></path></svg>