<svg width="74" height="62" viewBox="0 0 74 62" fill="none" xmlns="http://www.w3.org/2000/svg"><path d="M72.8499 16.6563H1.86977C1.38885 16.6563 1.00061 16.2652 1.00061 15.7871V7.28685C1.00351 3.81605 3.81955 1.00289 7.29325 1H67.4294C70.9002 1.0029 73.7163 3.81605 73.7192 7.28685V15.7871C73.7192 16.2652 73.3309 16.6563 72.8499 16.6563ZM2.73901 14.918H71.9807V7.28692C71.9778 4.77511 69.9411 2.7413 67.4293 2.7384H7.2931C4.77839 2.7384 2.74168 4.77511 2.73879 7.28692L2.73901 14.918Z" fill="#0CB4C4" stroke="#0CB4C4" stroke-width="0.2"></path><path d="M11.4735 12.5942C9.94959 12.5942 8.57638 11.6758 7.99113 10.2678C7.4088 8.85977 7.73039 7.24026 8.80815 6.16246C9.88588 5.08474 11.5054 4.76315 12.9135 5.34544C14.3214 5.93066 15.237 7.3039 15.237 8.82781C15.237 10.9051 13.5508 12.5941 11.4707 12.5941L11.4735 12.5942ZM11.4735 6.79986C10.6507 6.79986 9.91191 7.29237 9.59907 8.05143C9.28328 8.80756 9.45711 9.67962 10.0394 10.2591C10.6189 10.8414 11.4909 11.0152 12.2471 10.6995C13.0061 10.3866 13.4987 9.64776 13.5016 8.82792H13.4987C13.4987 8.28905 13.2872 7.77334 12.9047 7.39382C12.5252 7.0114 12.0096 6.79701 11.4707 6.79701L11.4735 6.79986Z" fill="#0CB4C4" stroke="#0CB4C4" stroke-width="0.2"></path><path d="M20.1615 12.5942C18.6404 12.5942 17.2672 11.6758 16.682 10.2678C16.0997 8.85977 16.4212 7.24026 17.499 6.16246C18.5767 5.08474 20.1962 4.76315 21.6043 5.34544C23.0123 5.93066 23.9278 7.3039 23.9278 8.82781C23.9278 10.9051 22.2416 12.5942 20.1615 12.5942ZM20.1615 6.79986C19.3415 6.79986 18.6028 7.29237 18.2899 8.05143C17.9741 8.80756 18.148 9.67962 18.7303 10.2591C19.3097 10.8414 20.1817 11.0152 20.938 10.6995C21.697 10.3866 22.1895 9.64776 22.1895 8.82792C22.1895 8.28905 21.978 7.77334 21.5956 7.39382C21.2161 7.0114 20.7004 6.79701 20.1615 6.79701L20.1615 6.79986Z" fill="#0CB4C4" stroke="#0CB4C4" stroke-width="0.2"></path><path d="M63.2481 12.5942H38.6194C36.5422 12.5942 34.8531 10.9052 34.8531 8.82793C34.8531 6.74776 36.5422 5.06165 38.6194 5.06165H63.2481C65.3254 5.06165 67.0144 6.74776 67.0144 8.82793C67.0144 10.9052 65.3254 12.5942 63.2481 12.5942ZM38.6224 6.7999H38.6195C37.5012 6.7999 36.5915 7.70674 36.5915 8.82793C36.5915 9.94622 37.5012 10.856 38.6195 10.856H63.2482C64.3665 10.856 65.2762 9.94622 65.2762 8.82793C65.2762 7.70674 64.3665 6.7999 63.2482 6.7999H38.6224Z" fill="#0CB4C4" stroke="#0CB4C4" stroke-width="0.2"></path><path d="M67.4289 52.0829H60.9972C60.5163 52.0829 60.128 51.6947 60.128 51.2138V34.0159C60.1251 32.0574 58.5404 30.4727 56.582 30.4698H24.2785C22.32 30.4698 20.7353 32.0574 20.7324 34.0159V51.2138C20.7324 51.6947 20.3442 52.0829 19.8632 52.0829H7.29264C3.81894 52.08 1.00289 49.2669 1 45.7961V36.3568C1 35.8759 1.38822 35.4877 1.86916 35.4877C2.35009 35.4877 2.73833 35.8759 2.73833 36.3568V45.7961C2.74123 48.3079 4.77793 50.3446 7.29264 50.3446H18.9999L18.997 34.016C18.9999 31.0985 21.364 28.7344 24.2814 28.7315H56.5849C59.5024 28.7344 61.8664 31.0985 61.8693 34.016V50.3446H67.4319C69.9437 50.3417 71.9775 48.305 71.9804 45.7961V16.6565H2.7387V29.5839C2.7387 30.0648 2.35047 30.453 1.86953 30.453C1.3886 30.453 1.00037 30.0648 1.00037 29.5839V15.7932C1.00037 15.3123 1.38859 14.9241 1.86953 14.9241H72.8497C73.3306 14.9241 73.7189 15.3123 73.7189 15.7932V45.7961C73.716 49.2669 70.8997 52.08 67.4289 52.0829Z" fill="#0CB4C4" stroke="#0CB4C4" stroke-width="0.2"></path><path d="M1.86916 34.4882C1.38824 34.4882 1 34.0971 1 33.619V32.3153C1 31.8344 1.38822 31.4462 1.86916 31.4462C2.35009 31.4462 2.73833 31.8344 2.73833 32.3153V33.619C2.73833 34.0971 2.35011 34.4882 1.86916 34.4882Z" fill="#0CB4C4" stroke="#0CB4C4" stroke-width="0.2"></path><path d="M56.579 61H24.2755C21.3581 60.9971 18.994 58.633 18.9911 55.7155V34.0157C18.994 31.0983 21.3581 28.7342 24.2755 28.7313H56.579C59.4993 28.7342 61.8634 31.0983 61.8663 34.0157V55.7155C61.8634 58.633 59.4993 60.9971 56.579 61ZM24.2755 30.4668V30.4697C22.3199 30.4697 20.7323 32.0574 20.7294 34.0158V55.7156C20.7323 57.6741 22.3199 59.2617 24.2755 59.2617H56.579C58.5374 59.2617 60.1251 57.6741 60.128 55.7156V34.0158C60.1251 32.0574 58.5375 30.4697 56.579 30.4697L24.2755 30.4668Z" fill="#0CB4C4" stroke="#0CB4C4" stroke-width="0.2"></path><path d="M40.1406 39.364C38.411 39.3756 36.8437 38.3442 36.1715 36.7479C35.4993 35.1516 35.8586 33.3061 37.0783 32.0777C38.298 30.8493 40.1377 30.4785 41.7399 31.1362C43.342 31.7967 44.385 33.3554 44.385 35.0878H44.3879C44.3937 37.4404 42.4931 39.3525 40.1406 39.364ZM40.1406 32.5557C39.1121 32.5441 38.1793 33.1525 37.7765 34.0999C37.3738 35.0472 37.5853 36.1452 38.3096 36.8753C39.0339 37.6083 40.1261 37.8285 41.0793 37.4374C42.0295 37.0463 42.6496 36.1163 42.6467 35.0878H42.6496C42.6554 33.6971 41.5342 32.5615 40.1406 32.5527L40.1406 32.5557Z" fill="#0CB4C4" stroke="#0CB4C4" stroke-width="0.2"></path><path d="M33.1874 49.1392C31.4578 49.1508 29.8905 48.1165 29.2183 46.5202C28.5461 44.9239 28.9054 43.0813 30.1251 41.8528C31.3448 40.6245 33.1874 40.2537 34.7867 40.9113C36.3888 41.5718 37.4318 43.1334 37.4347 44.863C37.4376 47.2155 35.5399 49.1276 33.1903 49.1392H33.1874ZM33.1874 42.3309C32.1589 42.3193 31.2261 42.9277 30.8233 43.875C30.4206 44.8224 30.6321 45.9175 31.3535 46.6505C32.0778 47.3806 33.17 47.6037 34.1232 47.2125C35.0734 46.8214 35.6935 45.8973 35.6964 44.8687C35.7022 43.4752 34.581 42.3395 33.1903 42.3308L33.1874 42.3309Z" fill="#0CB4C4" stroke="#0CB4C4" stroke-width="0.2"></path><path d="M48.5422 58.9168C46.8098 58.9284 45.2424 57.897 44.5702 56.2978C43.8981 54.7015 44.2573 52.856 45.4771 51.6276C46.6996 50.3993 48.5422 50.0284 50.1415 50.689C51.7437 51.3495 52.7895 52.9111 52.7895 54.6435C52.7924 56.9932 50.8947 58.9053 48.5422 58.9168ZM48.5422 52.1085C47.5138 52.0969 46.578 52.7053 46.1753 53.6527C45.7726 54.6 45.9841 55.6981 46.7083 56.431C47.4297 57.164 48.5248 57.3842 49.478 56.9931C50.4283 56.602 51.0512 55.672 51.0512 54.6435C51.057 53.25 49.9358 52.1142 48.5423 52.1056L48.5422 52.1085Z" fill="#0CB4C4" stroke="#0CB4C4" stroke-width="0.2"></path><path d="M55.4895 35.9567H43.5182C43.0372 35.9567 42.649 35.5685 42.649 35.0875C42.649 34.6066 43.0372 34.2184 43.5182 34.2184H55.4895C55.9675 34.2184 56.3586 34.6066 56.3586 35.0875C56.3586 35.5685 55.9675 35.9567 55.4895 35.9567Z" fill="#0CB4C4" stroke="#0CB4C4" stroke-width="0.2"></path><path d="M36.7682 35.9567H25.3769C24.8959 35.9567 24.5077 35.5685 24.5077 35.0875C24.5077 34.6066 24.8959 34.2184 25.3769 34.2184H36.7682C37.2491 34.2184 37.6373 34.6066 37.6373 35.0875C37.6373 35.5685 37.2491 35.9567 36.7682 35.9567Z" fill="#0CB4C4" stroke="#0CB4C4" stroke-width="0.2"></path><path d="M55.4895 45.735H36.565C36.0841 45.735 35.6958 45.3468 35.6958 44.8659C35.6958 44.3849 36.0841 43.9967 36.565 43.9967H55.4895C55.9675 43.9967 56.3586 44.3849 56.3586 44.8659C56.3586 45.3468 55.9675 45.735 55.4895 45.735Z" fill="#0CB4C4" stroke="#0CB4C4" stroke-width="0.2"></path><path d="M29.815 45.735H25.3766C24.8957 45.735 24.5074 45.3468 24.5074 44.8659C24.5074 44.3849 24.8956 43.9967 25.3766 43.9967H29.815C30.296 43.9967 30.6842 44.3849 30.6842 44.8659C30.6842 45.3468 30.296 45.735 29.815 45.735Z" fill="#0CB4C4" stroke="#0CB4C4" stroke-width="0.2"></path><path d="M55.4895 55.5125H51.9202C51.4393 55.5125 51.051 55.1243 51.051 54.6433C51.051 54.1624 51.4392 53.7742 51.9202 53.7742H55.4895C55.9675 53.7742 56.3586 54.1624 56.3586 54.6433C56.3586 55.1243 55.9675 55.5125 55.4895 55.5125Z" fill="#0CB4C4" stroke="#0CB4C4" stroke-width="0.2"></path><path d="M45.1699 55.5125H25.3762C24.8952 55.5125 24.507 55.1243 24.507 54.6433C24.507 54.1624 24.8952 53.7742 25.3762 53.7742H45.1699C45.6508 53.7742 46.039 54.1624 46.039 54.6433C46.039 55.1243 45.6508 55.5125 45.1699 55.5125Z" fill="#0CB4C4" stroke="#0CB4C4" stroke-width="0.2"></path></svg>