<svg width="62" height="62" viewBox="0 0 62 62" fill="none" xmlns="http://www.w3.org/2000/svg"><path fill-rule="evenodd" clip-rule="evenodd" d="M42.1946 48.9899C41.8682 48.609 41.9127 48.0378 42.2935 47.7114C42.6744 47.385 43.2456 47.4295 43.572 47.8103L47.1279 51.9499L54.0419 43.6957C54.3634 43.3124 54.9346 43.2604 55.3203 43.5819C55.7036 43.9034 55.7556 44.4746 55.4341 44.8603L47.8351 53.9356C47.4765 54.3634 46.8163 54.3683 46.4503 53.943L42.1946 48.9899ZM37.5803 53.5472C39.4547 57.9909 43.8291 61 48.8117 61C55.5403 61 60.9952 55.545 60.9952 48.8165C60.9952 43.8338 57.9858 39.4596 53.5424 37.5852L53.7378 36.9595L57.9737 36.01C58.4188 35.9506 58.7625 35.5698 58.7625 35.1074L58.765 24.6597H58.7625C58.7625 24.2443 58.4757 23.8684 58.0528 23.7745L53.7452 22.8076C53.2531 21.1508 52.5805 19.5287 51.7571 18.0153L54.1037 14.3135C54.351 13.9599 54.3164 13.4678 53.9999 13.1513L46.611 5.76755C46.3168 5.47329 45.8494 5.41147 45.4835 5.64391L41.7471 8.01287C40.2313 7.18942 38.6141 6.51681 36.9573 6.02475L36.0077 1.7913C35.9484 1.3462 35.5675 1.00247 35.1051 1.00247L24.6574 1V1.00247C24.242 1.00247 23.8661 1.28932 23.7722 1.71217L22.8054 6.02228C21.1486 6.51437 19.5289 7.18695 18.0155 8.0104L14.3112 5.66126C13.9576 5.41398 13.4656 5.4486 13.149 5.76512L5.76275 13.1539C5.46849 13.4482 5.40667 13.9156 5.63911 14.2815L8.00807 18.0179C7.18461 19.5337 6.51201 21.1509 6.01995 22.8102L1.72465 23.7721C1.3117 23.8562 1.00014 24.2222 1.00014 24.6598V35.0904C0.992721 35.5132 1.28204 35.8965 1.70984 35.9905L6.01748 36.9549C6.50957 38.6141 7.18214 40.2314 8.0056 41.7472L5.65893 45.4515C5.41165 45.8051 5.44626 46.2971 5.76278 46.6137L13.1491 54C13.4433 54.2942 13.9107 54.356 14.2767 54.1236L18.013 51.7546C19.5288 52.5781 21.1461 53.2507 22.8029 53.7428L23.7524 57.9762C23.8118 58.4213 24.1926 58.765 24.655 58.765H35.1027V58.7626C35.5181 58.7626 35.894 58.4757 35.9879 58.0529L36.9548 53.7428L37.5803 53.5472ZM51.8263 37.0066L52.1354 35.9531H52.1378C52.2244 35.6391 52.4766 35.3819 52.8154 35.3053L56.9425 34.3805L56.9449 25.3843L52.8945 24.4768C52.5434 24.4298 52.2367 24.1776 52.1378 23.8141C51.6482 22.0114 50.8569 20.0579 49.9197 18.4555C49.7491 18.1712 49.7417 17.8002 49.9321 17.501L52.1996 13.9254L45.8395 7.56525L42.2712 9.82538C41.9943 10.0059 41.6283 10.0282 41.3242 9.85258C39.6278 8.88328 37.8498 8.14142 35.9532 7.6246V7.62213C35.6392 7.53558 35.382 7.28335 35.3053 6.94459L34.3805 2.81749H25.3819L24.4744 6.8704C24.4274 7.22154 24.1752 7.52819 23.8116 7.62707C22.0089 8.11669 20.0579 8.90796 18.4556 9.84517C18.1712 10.0158 17.8002 10.0232 17.5011 9.83281L13.9229 7.56526L7.56279 13.9254L9.82293 17.4937C10.0035 17.7706 10.0257 18.1366 9.85013 18.4407C8.87829 20.1371 8.13897 21.9151 7.62215 23.8142H7.61968C7.53313 24.1282 7.2809 24.3854 6.94214 24.462L2.8101 25.3893V34.3854L6.86548 35.2954C7.21662 35.3424 7.52327 35.5946 7.62215 35.9581C8.11177 37.7608 8.90304 39.7143 9.84025 41.3167C10.0109 41.6011 10.0183 41.972 9.82789 42.2712L7.56034 45.8468L13.918 52.207L17.4862 49.9444C17.7632 49.7639 18.1291 49.7416 18.4333 49.9172C20.1297 50.8865 21.9101 51.6283 23.8043 52.1452V52.1476C24.1183 52.2342 24.3755 52.4864 24.4521 52.8252L25.3769 56.9523H34.3756L35.2831 52.9018C35.3301 52.5507 35.5823 52.244 35.9458 52.1452L36.9993 51.8361C36.5121 49.9271 36.4973 47.9043 36.9547 45.9879C28.817 49.5735 19.3683 46.4824 14.8332 38.9997C10.6294 32.061 11.7323 23.1687 17.442 17.4568C24.3092 10.5896 35.4418 10.5896 42.3084 17.4568C47.4172 22.5656 48.9009 30.3176 45.9731 36.9696C47.897 36.5072 49.9173 36.5219 51.8263 37.0066ZM43.4879 37.8522C47.1081 31.6826 46.0992 23.8089 41.0274 18.7351C34.8701 12.5778 24.89 12.5778 18.7324 18.7351C13.9253 23.5423 12.7161 30.9382 15.8294 37.0388L19.41 33.4582C20.2013 32.6669 20.5401 31.6827 20.404 30.5724C19.7413 25.1792 23.4654 20.2013 28.8608 19.3581C30.9305 19.0342 33.0819 19.3557 34.9909 20.32C35.6313 20.6168 35.708 21.3735 35.2802 21.8012L29.1823 27.8992L31.8653 30.5822L37.9608 24.4867L37.9632 24.4892C38.3935 24.0589 39.1279 24.1628 39.4099 24.7142C40.399 26.6381 40.7328 28.8141 40.4039 30.9036C39.5582 36.3017 34.5829 40.0232 29.1896 39.3604C28.0793 39.2244 27.0952 39.5631 26.3039 40.3544L22.7233 43.935C26.2149 45.7154 30.3197 46.1383 34.1427 45.0676C35.4557 44.6992 36.6971 44.1675 37.8469 43.4924C38.4429 42.2659 39.2391 41.1531 40.1936 40.2011C41.1506 39.2466 42.2614 38.4506 43.4879 37.8522ZM16.7793 38.6583L20.6938 34.7439C21.8758 33.5619 22.4099 32.0139 22.2047 30.3547C21.4653 24.3334 27.2591 19.5556 33.0379 21.4725L27.2515 27.2588C26.8954 27.6149 26.8954 28.1886 27.2515 28.5447L31.2203 32.5135C31.5764 32.8696 32.1501 32.8696 32.5062 32.5135L38.2925 26.7271C40.2064 32.5061 35.4315 38.2997 29.4103 37.5603C27.7486 37.3576 26.2031 37.8892 25.0186 39.0712L21.1042 42.9857C19.3979 41.8358 17.9267 40.367 16.7793 38.6583ZM56.1417 41.4847C52.0937 37.4368 45.5282 37.4368 41.4805 41.4847C37.4325 45.5327 37.4325 52.0957 41.4805 56.1434C45.5285 60.1914 52.094 60.1914 56.1417 56.1434C60.1897 52.0979 60.1897 45.5349 56.1417 41.4847Z" fill="#0CB4C4" stroke="#0CB4C4" stroke-width="0.2"></path></svg>