<svg width="52" height="62" viewBox="0 0 52 62" fill="none" xmlns="http://www.w3.org/2000/svg">
<path d="M49.4447 44.7326C47.1403 43.3264 42.9167 44.854 39.7536 46.1389C39.7388 46.0027 39.7092 45.8665 39.6707 45.7333C39.3864 44.8066 38.5511 44.1376 37.5411 44.0311C37.5056 44.0281 37.47 44.0251 37.4315 44.0281C31.1257 44.3064 27.4857 42.5509 24.5619 41.1388C21.6889 39.7504 19.2069 38.5513 15.6291 40.1441C15.6114 40.15 15.5965 40.1589 15.5817 40.1677L14.4177 40.7953C10.3451 42.9919 9.2581 43.5752 7.89562 43.7617L7.26178 42.3407C7.1818 42.1631 7.03371 42.0239 6.85007 41.9588C6.66644 41.8937 6.46207 41.9055 6.28732 41.9914L1.39728 44.4248C1.05371 44.5965 0.905611 45.008 1.06259 45.3573L7.83935 60.5767C7.91932 60.7543 8.06741 60.8934 8.25105 60.9586C8.33102 60.9882 8.41099 61 8.49392 61C8.60351 61 8.7131 60.9734 8.81381 60.926L13.7038 58.4926C14.0474 58.3209 14.1955 57.9094 14.0385 57.56L13.3395 55.9881C16.6154 55.3338 18.508 55.8874 20.6553 56.5387C22.2755 57.0301 23.949 57.5393 26.3154 57.5393C26.4665 57.5393 26.6235 57.5364 26.7804 57.5334C29.0315 57.4712 35.8823 55.4404 39.4013 54.1023C39.4369 54.0905 39.4694 54.0727 39.502 54.055C39.8189 53.8744 40.7638 53.4244 41.8597 52.9034C44.8275 51.4913 49.3088 49.3598 50.7425 48.1638C50.9231 48.0128 51.0179 47.7879 50.9972 47.554C50.8876 46.2484 50.3663 45.2981 49.4422 44.7357L49.4447 44.7326ZM8.84631 59.3063L2.65301 45.3981L6.2576 43.604L12.4509 57.5123L8.84631 59.3063ZM41.2459 51.6034C40.0878 52.154 39.2348 52.5596 38.8438 52.7757C35.4643 54.0546 28.741 56.0411 26.7445 56.0943C24.3603 56.1595 22.6897 55.6532 21.0725 55.1618C18.8689 54.4927 16.5764 53.8207 12.744 54.6467L8.49964 45.1113C9.93317 44.836 11.2779 44.1136 15.1016 42.0502L16.2419 41.4374C19.1979 40.1319 21.0875 41.0437 23.9426 42.4232C27.0023 43.9005 30.8053 45.7389 37.437 45.4576C37.9376 45.5287 38.21 45.8573 38.2989 46.1474C38.3463 46.3073 38.3877 46.6063 38.1182 46.8401C38.0827 46.8697 38.0501 46.9023 38.0205 46.9378C36.7913 48.3529 34.022 49.2647 31.5725 49.0604C29.4725 48.8828 27.3577 48.347 26.4337 47.9296C26.0723 47.7667 25.6487 47.9266 25.4859 48.2878C25.323 48.6489 25.4829 49.0723 25.8443 49.2351C27.0764 49.7917 29.437 50.3157 31.4511 50.4873C34.3418 50.7301 37.4104 49.7088 38.9949 47.9946C39.1223 47.9413 39.2556 47.8881 39.3889 47.8318C42.1552 46.6921 46.7817 44.7826 48.6947 45.9519C49.1301 46.2184 49.4026 46.6565 49.5181 47.29C47.9216 48.4239 43.7839 50.3925 41.2427 51.6033L41.2459 51.6034ZM18.3478 22.9025H22.3612C22.059 23.5242 21.8132 24.1696 21.6236 24.8327H19.3193C18.9639 24.8327 18.6617 25.0932 18.6084 25.4425C18.3271 27.3195 18.3271 29.1638 18.6084 30.9222C18.6647 31.2686 18.9639 31.5262 19.3163 31.5262H21.6207C21.8724 32.3994 22.2219 33.2402 22.6633 34.0395L21.0343 35.6677C20.7884 35.9134 20.7529 36.3012 20.9543 36.5884C22.0324 38.1218 23.3445 39.4333 24.8521 40.4842C24.9765 40.5701 25.1187 40.6145 25.2608 40.6145C25.4445 40.6145 25.6281 40.5434 25.7673 40.4043L27.3963 38.7761C28.1931 39.2172 29.0343 39.5666 29.9109 39.8182V42.1214C29.9109 42.4677 30.1597 42.7667 30.5033 42.8259C31.4688 42.9976 32.4137 43.0835 33.3349 43.0835C34.262 43.0835 35.1624 42.9977 36.0331 42.823C36.3678 42.7549 36.6107 42.4618 36.6107 42.1184V39.8152C37.4844 39.5636 38.3256 39.2142 39.1253 38.7731L40.7543 40.4013C40.8935 40.5405 41.0772 40.6115 41.2608 40.6115C41.3882 40.6115 41.5185 40.576 41.634 40.5079C43.2601 39.5162 44.5929 38.187 45.5941 36.5498C45.7659 36.2656 45.7244 35.9015 45.4904 35.6676L43.8614 34.0394C44.3027 33.2431 44.6522 32.4023 44.904 31.5261H47.2083C47.5549 31.5261 47.8511 31.2774 47.9133 30.9369C48.2331 29.1814 48.2361 27.3282 47.9162 25.4306C47.857 25.0843 47.5578 24.8326 47.2083 24.8326H44.904C44.7144 24.1695 44.4686 23.5241 44.1665 22.9024H48.0436C49.4001 22.9024 50.5019 21.8012 50.5019 20.4453V19.7082C50.5019 18.6958 49.8859 17.8254 49.0062 17.4494C48.8847 13.7933 47.5193 10.2912 45.1024 7.53506C43.7667 6.01343 42.1584 4.78486 40.3871 3.87899C40.3456 3.85531 40.3042 3.83163 40.2568 3.81683C38.921 3.15074 37.4963 2.67412 36.0124 2.40766V1.98433C36.0124 1.65573 35.7902 1.37153 35.4733 1.28864C33.9598 0.903788 32.4256 0.903788 30.915 1.28864C30.5981 1.36857 30.376 1.65573 30.376 1.98433V2.40766C26.8691 3.03822 23.6584 4.83516 21.2892 7.53504C18.8723 10.2911 17.5039 13.7933 17.3855 17.4494C16.5088 17.8253 15.8897 18.6957 15.8897 19.7082V20.4453C15.8897 21.8012 16.9912 22.9025 18.3478 22.9025ZM46.5952 30.0933H44.359C44.3383 30.0933 44.3205 30.1022 44.2998 30.1051C44.2494 30.1081 44.205 30.1199 44.1576 30.1348C44.1132 30.1466 44.0717 30.1614 44.0332 30.1821C43.9918 30.2028 43.9562 30.2295 43.9207 30.2591C43.8851 30.2887 43.8496 30.3153 43.82 30.3509C43.7904 30.3834 43.7696 30.4219 43.7459 30.4604C43.7222 30.5018 43.7015 30.5462 43.6867 30.5906C43.6808 30.6114 43.666 30.6262 43.663 30.6439C43.3994 31.754 42.961 32.811 42.3597 33.7849C42.3479 33.8026 42.3479 33.8234 42.339 33.8411C42.3153 33.8855 42.3005 33.9299 42.2886 33.9773C42.2768 34.0217 42.2679 34.0632 42.262 34.1076C42.259 34.1549 42.262 34.1964 42.2679 34.2438C42.2738 34.2882 42.2798 34.3326 42.2946 34.377C42.3094 34.4184 42.3272 34.4569 42.3479 34.4983C42.3716 34.5428 42.3953 34.5812 42.4279 34.6197C42.4397 34.6345 42.4456 34.6553 42.4604 34.6701L44.0658 36.2746C43.3312 37.3463 42.4249 38.2522 41.3616 38.9804L39.7563 37.3758C39.7414 37.361 39.7207 37.3551 39.7059 37.3433C39.6674 37.3107 39.6289 37.287 39.5845 37.2633C39.543 37.2426 39.5045 37.2219 39.463 37.2071C39.4186 37.1923 39.3742 37.1864 39.3297 37.1805C39.2824 37.1745 39.2409 37.1716 39.1935 37.1745C39.1491 37.1775 39.1076 37.1893 39.0632 37.2012C39.0158 37.213 38.9714 37.2278 38.9269 37.2515C38.9091 37.2604 38.8884 37.2604 38.8706 37.2722C37.8962 37.8732 36.8388 38.3113 35.7281 38.5748C35.7074 38.5808 35.6926 38.5926 35.6748 38.5985C35.6274 38.6133 35.5859 38.634 35.5445 38.6577C35.506 38.6814 35.4675 38.7021 35.4349 38.7317C35.3994 38.7613 35.3727 38.7939 35.3431 38.8324C35.3135 38.8679 35.2898 38.9034 35.2661 38.9449C35.2453 38.9834 35.2305 39.0248 35.2187 39.0692C35.2039 39.1166 35.195 39.161 35.1891 39.2113C35.1861 39.232 35.1772 39.2498 35.1772 39.2705V41.5145C33.9628 41.6951 32.6803 41.6921 31.3505 41.5056V39.2705C31.3505 39.2498 31.3416 39.232 31.3386 39.2113C31.3357 39.161 31.3238 39.1166 31.309 39.0692C31.2972 39.0248 31.2823 38.9834 31.2616 38.9449C31.2409 38.9034 31.2142 38.8679 31.1846 38.8324C31.155 38.7968 31.1283 38.7613 31.0928 38.7317C31.0602 38.7021 31.0217 38.6784 30.9832 38.6577C30.9417 38.634 30.9003 38.6133 30.8529 38.5985C30.8321 38.5926 30.8173 38.5778 30.7996 38.5748C29.6889 38.3113 28.6315 37.8732 27.657 37.2722C27.6393 37.2604 27.6185 37.2604 27.6008 37.2515C27.5563 37.2278 27.5119 37.213 27.4645 37.2012C27.4201 37.1893 27.3786 37.1804 27.3342 37.1745C27.2868 37.1716 27.2453 37.1745 27.1979 37.1804C27.1506 37.1864 27.1091 37.1923 27.0647 37.2071C27.0232 37.2219 26.9847 37.2396 26.9432 37.2604C26.8988 37.2841 26.8603 37.3077 26.8218 37.3403C26.807 37.3521 26.7862 37.3581 26.7714 37.3729L25.1898 38.9537C24.1679 38.1781 23.2765 37.287 22.4856 36.2479L24.0643 34.67C24.0791 34.6552 24.085 34.6345 24.0969 34.6197C24.1295 34.5812 24.1531 34.5427 24.1768 34.4983C24.1976 34.4569 24.2183 34.4184 24.2302 34.377C24.245 34.3325 24.2509 34.2881 24.2568 34.2437C24.2627 34.1964 24.2657 34.1549 24.2627 34.1076C24.2598 34.0631 24.2479 34.0217 24.2361 33.9773C24.2242 33.9299 24.2094 33.8855 24.1857 33.8411C24.1768 33.8234 24.1768 33.8026 24.165 33.7849C23.5637 32.8109 23.1254 31.754 22.8617 30.6439C22.8558 30.6232 22.844 30.6084 22.838 30.5906C22.8232 30.5433 22.8025 30.5018 22.7788 30.4604C22.7551 30.4219 22.7344 30.3834 22.7048 30.3508C22.6751 30.3153 22.6426 30.2887 22.6041 30.2591C22.5685 30.2295 22.533 30.2058 22.4915 30.1821C22.453 30.1614 22.4115 30.1466 22.3671 30.1347C22.3197 30.1199 22.2753 30.111 22.2249 30.1051C22.2042 30.1022 22.1864 30.0933 22.1657 30.0933H19.9413C19.7932 28.8559 19.7962 27.574 19.9443 26.2684H22.1627H22.1657C22.2546 26.2684 22.3434 26.2477 22.4234 26.2152C22.45 26.2033 22.4737 26.1885 22.5004 26.1737C22.5508 26.1471 22.5981 26.1175 22.6426 26.079C22.6663 26.0553 22.687 26.0316 22.7077 26.0079C22.7433 25.9665 22.7699 25.925 22.7966 25.8777C22.8144 25.8451 22.8262 25.8155 22.8381 25.78C22.8469 25.7593 22.8588 25.7415 22.8647 25.7178C23.0987 24.729 23.4778 23.7876 23.9814 22.9055H27.5623C26.2472 24.3235 25.4949 26.1885 25.4949 28.1838C25.4949 32.4704 28.984 35.961 33.2759 35.961C37.5647 35.961 41.057 32.4736 41.057 28.1838C41.057 26.1885 40.3047 24.3234 38.9896 22.9055H42.5438C43.0473 23.7877 43.4294 24.729 43.6605 25.7178C43.6664 25.7415 43.6812 25.7593 43.6871 25.78C43.699 25.8155 43.7138 25.8451 43.7286 25.8777C43.7523 25.925 43.7819 25.9694 43.8175 26.0079C43.8382 26.0346 43.8589 26.0583 43.8826 26.079C43.9241 26.1175 43.9715 26.1471 44.0248 26.1737C44.0514 26.1885 44.0722 26.2033 44.1018 26.2152C44.1847 26.2477 44.2706 26.2684 44.3595 26.2684H44.3624H46.5927C46.7645 27.5829 46.7675 28.8647 46.5986 30.0933L46.5952 30.0933ZM36.7798 22.9025C38.5599 24.0837 39.6232 26.0375 39.6232 28.1808C39.6232 31.6771 36.7769 34.522 33.2789 34.522C29.7809 34.522 26.9345 31.6771 26.9345 28.1808C26.9345 26.0375 27.9978 24.0837 29.7779 22.9025H36.7857H36.7798ZM25.2318 5.99012V10.108C25.2318 10.5047 25.5517 10.8244 25.9486 10.8244C26.3455 10.8244 26.6654 10.5047 26.6654 10.108V5.15829C27.8205 4.56621 29.0645 4.12806 30.3766 3.86758V8.32C30.3766 8.7167 30.6965 9.03642 31.0934 9.03642C31.4903 9.03642 31.8101 8.71669 31.8101 8.32V2.56202C32.7283 2.39327 33.6554 2.39327 34.5765 2.56202V8.31705C34.5765 8.71374 34.8964 9.03346 35.2933 9.03346C35.6902 9.03346 36.01 8.71374 36.01 8.31705V3.86462C37.1681 4.09554 38.2729 4.46262 39.3096 4.95109V10.2058C39.3096 10.6025 39.6295 10.9222 40.0264 10.9222C40.4233 10.9222 40.7431 10.6025 40.7431 10.2058V5.73267C44.6735 8.17207 47.3155 12.438 47.5554 17.2453H18.825C19.059 12.6064 21.5203 8.46172 25.2256 5.98428L25.2318 5.99012ZM17.3264 19.7089C17.3264 19.1464 17.7855 18.6875 18.3483 18.6875H48.041C48.6037 18.6875 49.0628 19.1464 49.0628 19.7089V20.446C49.0628 21.0085 48.6038 21.4674 48.041 21.4674H18.3483C17.7856 21.4674 17.3264 21.0085 17.3264 20.446V19.7089Z" fill="#0CB4C4" stroke="#0CB4C4" stroke-width="0.3"/>
</svg>
