<svg width="60" height="60" viewBox="0 0 60 60" fill="none" xmlns="http://www.w3.org/2000/svg"><path d="M50.5951 2.54503C48.4801 0.652462 45.6351 -0.250107 42.7902 0.0599234C38.2002 0.567447 34.4977 4.2701 33.9876 8.86288C33.6626 11.7955 34.6301 14.7007 36.6376 16.8357C37.3651 17.6082 37.8276 18.6358 38.0076 19.7633H37.0351C36.4826 19.7633 36.0351 20.2109 36.0351 20.7634C36.0351 21.3159 36.4826 21.7634 37.0351 21.7634H50.8176C51.3701 21.7634 51.8177 21.3159 51.8177 20.7634C51.8177 20.2109 51.3701 19.7633 50.8176 19.7633H49.8452C50.0227 18.6333 50.4827 17.6107 51.2052 16.8432C52.9602 14.9832 53.9252 12.5505 53.9252 9.9981C53.9252 7.15797 52.7102 4.44284 50.5927 2.54496L50.5951 2.54503ZM49.7501 15.473C48.6826 16.6055 48.0076 18.1131 47.8101 19.7656H44.9251V14.9304L47.6801 12.1953C48.0726 11.8053 48.0751 11.1727 47.6851 10.7803C47.2951 10.3878 46.6626 10.3853 46.2701 10.7753L43.9251 13.1054L41.58 10.7753C41.19 10.3878 40.555 10.3878 40.1651 10.7803C39.7751 11.1728 39.7776 11.8054 40.1701 12.1953L42.9251 14.9304V19.7656H40.0426C39.8451 18.1156 39.1676 16.608 38.095 15.4654C36.4875 13.7578 35.715 11.4327 35.9775 9.0826C36.3825 5.41242 39.3425 2.45254 43.0099 2.04741C45.3274 1.7899 47.5449 2.49742 49.2599 4.03502C50.9549 5.55259 51.925 7.72517 51.925 9.99778C51.925 12.0404 51.1526 13.9854 49.7501 15.473Z" fill="#0CB4C4"></path><path d="M42.9247 24.0889C42.9247 23.5364 42.4772 23.0889 41.9247 23.0889H37.0347C36.4822 23.0889 36.0347 23.5364 36.0347 24.0889C36.0347 24.6414 36.4822 25.089 37.0347 25.089H38.2197C38.6997 27.7341 41.0147 29.7392 43.7547 29.7392H44.0997C46.8523 29.7392 49.1573 27.7366 49.6348 25.089H50.8173C51.3698 25.089 51.8173 24.6414 51.8173 24.0889C51.8173 23.5364 51.3698 23.0889 50.8173 23.0889H46.9748C46.4223 23.0889 45.9748 23.5364 45.9748 24.0889C45.9748 24.6414 46.4223 25.089 46.9748 25.089H47.6023C47.1648 26.6215 45.7523 27.7391 44.0972 27.7391H43.7522C42.1047 27.7391 40.6822 26.619 40.2447 25.089H41.9247C42.4772 25.089 42.9247 24.6414 42.9247 24.0889Z" fill="#0CB4C4"></path><path d="M59 9.22559H56.3374C55.7849 9.22559 55.3374 9.67311 55.3374 10.2256C55.3374 10.7782 55.7849 11.2257 56.3374 11.2257H59C59.5525 11.2257 60 10.7782 60 10.2256C60 9.67311 59.5525 9.22559 59 9.22559Z" fill="#0CB4C4"></path><path d="M58.0104 15.6909L55.5954 14.5659C55.0954 14.3309 54.5004 14.5484 54.2679 15.0509C54.0354 15.5509 54.2504 16.1459 54.7529 16.3785L57.1679 17.5035C57.3054 17.5685 57.4479 17.5985 57.5904 17.5985C57.9679 17.5985 58.3279 17.386 58.498 17.021C58.7305 16.521 58.5155 15.926 58.013 15.6934L58.0104 15.6909Z" fill="#0CB4C4"></path><path d="M55.1755 5.98033C55.318 5.98033 55.4605 5.95033 55.598 5.88532L58.013 4.76028C58.513 4.52777 58.7305 3.93272 58.498 3.43273C58.2655 2.93271 57.6704 2.7152 57.1705 2.94771L54.7555 4.07275C54.2555 4.30526 54.038 4.90031 54.2705 5.4003C54.4405 5.76532 54.8005 5.97783 55.178 5.97783L55.1755 5.98033Z" fill="#0CB4C4"></path><path d="M28.8525 11.2257H31.5151C32.0676 11.2257 32.5151 10.7782 32.5151 10.2256C32.5151 9.67311 32.0676 9.22559 31.5151 9.22559H28.8525C28.3 9.22559 27.8525 9.67311 27.8525 10.2256C27.8525 10.7782 28.3 11.2257 28.8525 11.2257Z" fill="#0CB4C4"></path><path d="M32.2549 14.566L29.8399 15.691C29.3399 15.9235 29.1224 16.5186 29.3549 17.0186C29.5249 17.3836 29.8849 17.5961 30.2625 17.5961C30.405 17.5961 30.5475 17.5661 30.685 17.5011L33.1 16.376C33.6 16.1435 33.8175 15.5485 33.585 15.0485C33.3525 14.546 32.7574 14.3284 32.2575 14.5635L32.2549 14.566Z" fill="#0CB4C4"></path><path d="M29.8427 4.75975L32.2577 5.88479C32.3952 5.9498 32.5377 5.9798 32.6802 5.9798C33.0577 5.9798 33.4177 5.76729 33.5877 5.40228C33.8202 4.90225 33.6052 4.30725 33.1027 4.07473L30.6877 2.94969C30.1877 2.71467 29.5927 2.93219 29.3602 3.43471C29.1277 3.93473 29.3427 4.52973 29.8452 4.76225L29.8427 4.75975Z" fill="#0CB4C4"></path><path d="M50.6729 29.484C50.2154 29.174 49.5929 29.294 49.2854 29.7515C48.9754 30.209 49.0954 30.8316 49.5529 31.1391C49.8329 31.3291 50.0004 31.6441 50.0004 31.9816V36.0118C50.0004 36.5719 49.5454 37.0268 48.9854 37.0268H47.3204C45.9829 37.0268 44.7929 37.9219 44.4304 39.2044C44.0254 40.637 43.4478 42.0245 42.7153 43.3321C42.0603 44.4996 42.2653 45.9747 43.2128 46.9248L44.3954 48.1074C44.5879 48.2999 44.6929 48.5549 44.6929 48.8249C44.6929 49.0949 44.5879 49.3499 44.3954 49.5424L41.5454 52.3925C41.1604 52.7776 40.4929 52.7776 40.1103 52.3925L38.9278 51.21C37.9803 50.2624 36.5003 50.0574 35.3352 50.7124C34.0277 51.4449 32.6402 52.0225 31.2077 52.4275C29.9252 52.79 29.0302 53.9801 29.0302 55.3176V56.9827C29.0302 57.5428 28.5752 57.9978 28.0152 57.9978H23.9852C23.4252 57.9978 22.9702 57.5427 22.9702 56.9827V55.3176C22.9702 53.9801 22.0752 52.79 20.7927 52.4275C19.3602 52.0225 17.9727 51.4449 16.6652 50.7124C15.4977 50.0574 14.0227 50.2624 13.0726 51.21L11.8901 52.3925C11.5076 52.7776 10.8376 52.7776 10.4551 52.3925L7.60505 49.5424C7.41255 49.3499 7.30755 49.0949 7.30755 48.8249C7.30755 48.5549 7.41255 48.2999 7.60505 48.1074L8.78759 46.9248C9.73512 45.9772 9.94012 44.4996 9.2851 43.3321C8.55261 42.0245 7.97507 40.637 7.57007 39.2044C7.20757 37.9219 6.01754 37.0268 4.68006 37.0268H3.01502C2.45501 37.0268 2.00003 36.5718 2.00003 36.0118V31.9816C2.00003 31.4216 2.45504 30.9666 3.01502 30.9666H4.68006C6.01754 30.9666 7.20757 30.0716 7.57007 28.789C7.97507 27.3565 8.55261 25.9689 9.2851 24.6614C9.94008 23.4938 9.7351 22.0187 8.78759 21.0687L7.60505 19.8861C7.41255 19.6936 7.30755 19.4386 7.30755 19.1686C7.30755 18.8986 7.41255 18.6435 7.60505 18.451L10.4551 15.6009C10.8401 15.2159 11.5076 15.2159 11.8901 15.6009L13.0726 16.7835C14.0227 17.7311 15.5002 17.9361 16.6652 17.281C17.9727 16.5485 19.3602 15.9709 20.7927 15.5659C22.0752 15.2034 22.9702 14.0134 22.9702 12.6758V11.0107C22.9702 10.4507 23.4252 9.9957 23.9852 9.9957C24.5377 9.9957 24.9852 9.54818 24.9852 8.99565C24.9852 8.44313 24.5377 7.99561 23.9852 7.99561C22.3226 7.99561 20.9702 9.34818 20.9702 11.0107V12.6758C20.9702 13.1233 20.6727 13.5208 20.2477 13.6409C18.6651 14.0884 17.1301 14.7259 15.6851 15.5359C15.2976 15.7559 14.8026 15.6834 14.4876 15.3684L13.3076 14.1858C12.1701 13.0483 10.1826 13.0458 9.04251 14.1858L6.1925 17.0359C5.62249 17.606 5.30999 18.3635 5.30999 19.1685C5.30999 19.9735 5.625 20.7311 6.1925 21.3011L7.37254 22.4837C7.69004 22.8012 7.76005 23.2937 7.54004 23.6837C6.73005 25.1288 6.09254 26.6613 5.64505 28.2464C5.52505 28.674 5.12755 28.969 4.68005 28.969H3.01501C1.35246 28.969 0 30.3215 0 31.9841V36.0143C0 37.6769 1.35253 39.0294 3.01501 39.0294H4.68005C5.12755 39.0294 5.52505 39.3269 5.64505 39.7519C6.09255 41.3345 6.73005 42.8696 7.54004 44.3146C7.75754 44.7021 7.69005 45.1972 7.37254 45.5122L6.19 46.6923C5.62 47.2623 5.3075 48.0198 5.3075 48.8248C5.3075 49.6299 5.62 50.3874 6.19 50.9574L9.04001 53.8075C10.1775 54.9475 12.165 54.945 13.3026 53.8075L14.4851 52.6274C14.8026 52.3099 15.2976 52.2424 15.6851 52.4599C17.1301 53.27 18.6626 53.9075 20.2477 54.355C20.6752 54.475 20.9702 54.8725 20.9702 55.32V56.9851C20.9702 58.6477 22.3227 60.0002 23.9852 60.0002H28.0152C29.6778 60.0002 31.0302 58.6477 31.0302 56.9851V55.32C31.0302 54.8725 31.3277 54.475 31.7527 54.355C33.3353 53.9075 34.8703 53.27 36.3153 52.4599C36.7028 52.2424 37.1978 52.3124 37.5128 52.6274L38.6929 53.81C39.8303 54.9475 41.8179 54.95 42.9579 53.81L45.8079 50.9599C46.3779 50.3899 46.6904 49.6324 46.6904 48.8273C46.6904 48.0223 46.3754 47.2648 45.8079 46.6948L44.6279 45.5122C44.3104 45.1947 44.2404 44.7022 44.4604 44.3121C45.2704 42.8671 45.9079 41.3345 46.3554 39.7494C46.4754 39.3219 46.8729 39.0269 47.3204 39.0269H48.9854C50.648 39.0269 52.0004 37.6743 52.0004 36.0118V31.9816C52.0004 30.979 51.5029 30.044 50.6729 29.4815L50.6729 29.484Z" fill="#0CB4C4"></path><path d="M12.4994 33.9993C12.4994 41.4447 18.5544 47.5001 25.9997 47.5001C33.445 47.5001 39.5 41.4448 39.5 33.9993C39.5 32.7367 39.325 31.4867 38.9825 30.2841C38.83 29.7541 38.28 29.4466 37.745 29.5966C37.215 29.7491 36.9075 30.3016 37.0575 30.8341C37.35 31.8567 37.4975 32.9217 37.4975 33.9993C37.4975 40.3421 32.3399 45.5 25.9972 45.5C19.6545 45.5 14.4969 40.3422 14.4969 33.9993C14.4969 27.6563 19.6545 22.4986 25.9972 22.4986C28.5572 22.4986 30.9823 23.3212 33.0046 24.8812C33.4396 25.2163 34.0672 25.1362 34.4072 24.6987C34.7447 24.2612 34.6622 23.6337 34.2246 23.2962C31.8471 21.4661 29.0021 20.4985 25.9974 20.4985C18.5522 20.4985 12.4971 26.5538 12.4971 33.9993L12.4994 33.9993Z" fill="#0CB4C4"></path></svg>