<svg width="61" height="62" viewBox="0 0 61 62" fill="none" xmlns="http://www.w3.org/2000/svg"><path d="M59.4397 26.3064L56.3675 25.1126C54.7774 24.5071 53.8615 22.8306 54.2056 21.1599C54.4417 20.0404 54.6835 18.8751 54.8656 17.924V17.9211C54.8968 17.7669 54.8456 17.6041 54.729 17.4956C52.9938 15.8591 50.9229 14.6224 48.6616 13.8713C48.5136 13.817 48.3486 13.8485 48.2292 13.9541L45.6719 16.0933C44.3748 17.1986 42.4718 17.1986 41.1746 16.0933L38.6572 13.9541C38.5377 13.8485 38.3727 13.817 38.2248 13.8713C35.9634 14.6224 33.8925 15.8592 32.1545 17.4956C32.0407 17.6041 31.9895 17.7669 32.018 17.9211C32.2 18.8351 32.4418 20.0374 32.6779 21.157V21.1599C33.025 22.8307 32.1062 24.5072 30.516 25.1126L27.4808 26.3093L27.4837 26.3064C27.3386 26.3693 27.2334 26.4978 27.2021 26.6492C27.0513 27.486 26.966 28.3314 26.9432 29.1796H24.5992V20.4658C24.5992 19.6575 24.2806 18.8835 23.7117 18.3123C23.1427 17.7412 22.3719 17.4184 21.5669 17.4184H20.8074C20.5713 15.3163 18.8019 13.7284 16.697 13.7255H8.22278C7.09631 13.677 5.99831 14.0911 5.18475 14.8765C4.37119 15.659 3.91038 16.7415 3.91038 17.8725C3.91038 19.0035 4.3712 20.0859 5.18475 20.8685C5.99831 21.6539 7.09631 22.068 8.22278 22.0195H16.6737C18.7786 22.0223 20.548 20.4343 20.7841 18.3323H21.5436C22.7127 18.3466 23.6571 19.2919 23.6742 20.4658V38.8044C23.6742 40.001 22.7099 40.9692 21.5209 40.9692H20.7613C20.5252 38.8672 18.7559 37.2764 16.651 37.2735H8.22263C5.93845 37.2735 4.08945 39.1328 4.08945 41.4262C4.08945 43.7167 5.93845 45.576 8.22263 45.576H16.6735C18.7785 45.5732 20.5478 43.9852 20.7839 41.8832H21.5434C22.3485 41.8832 23.1194 41.5604 23.6882 40.9892C24.2571 40.4179 24.5758 39.644 24.5758 38.8357V30.0934H26.9055C26.9282 30.9417 27.0136 31.7871 27.1643 32.621C27.1956 32.7752 27.3009 32.9038 27.4431 32.9637L30.4783 34.1604C32.0684 34.763 32.9844 36.4395 32.6402 38.1131C32.4041 39.2326 32.1623 40.3979 31.9803 41.349C31.9518 41.5061 32.003 41.666 32.1168 41.7746C33.852 43.4139 35.9229 44.6506 38.1843 45.4017C38.335 45.4502 38.4972 45.4188 38.6166 45.316L41.2109 43.1854C42.4995 42.0944 44.3826 42.0944 45.6712 43.1854L48.1886 45.3246H48.1915C48.274 45.3931 48.3792 45.4302 48.4873 45.4302C48.5328 45.4388 48.5783 45.4388 48.6238 45.4302C50.8825 44.6791 52.9533 43.4424 54.6913 41.806C54.8051 41.6946 54.8563 41.5346 54.8278 41.3804C54.6458 40.4665 54.404 39.2641 54.1679 38.1445V38.1416C53.8237 36.4708 54.7397 34.7944 56.3298 34.1889C57.4363 33.7405 58.5685 33.2836 59.4389 32.9637C59.5868 32.9066 59.6921 32.7752 59.7205 32.621C60.0932 30.6474 60.0932 28.6225 59.7205 26.649C59.6921 26.4947 59.5868 26.3662 59.4389 26.3062L59.4397 26.3064ZM16.674 21.097H8.22313C6.44243 21.097 5.00021 19.649 5.00021 17.8611C5.00021 16.0733 6.44243 14.6252 8.22313 14.6252H16.674C18.4547 14.6252 19.8969 16.0733 19.8969 17.8611C19.8969 19.649 18.4547 21.097 16.674 21.097ZM16.674 44.7079H8.22313C6.44243 44.7079 5.00021 43.2599 5.00021 41.472C5.00021 39.6841 6.44243 38.2332 8.22313 38.2332H16.674C18.4547 38.2332 19.8969 39.6841 19.8969 41.472C19.8969 43.2599 18.4547 44.7079 16.674 44.7079ZM58.8702 32.2017L56.0427 33.2841C54.0345 34.0524 52.8795 36.1687 53.3176 38.2793C53.531 39.2989 53.75 40.3813 53.9235 41.2638L53.9264 41.2667C52.3846 42.669 50.5783 43.7457 48.6155 44.434L46.2943 42.4691C44.6644 41.0667 42.2579 41.0667 40.628 42.4691L38.3068 44.434C36.3412 43.7486 34.5349 42.6718 32.996 41.2667C33.1695 40.3842 33.3914 39.3017 33.6019 38.2822L33.6047 38.2793C34.0485 36.163 32.8822 34.0409 30.8654 33.2841L28.0351 32.1788C27.89 31.3335 27.816 30.4738 27.816 29.6141C27.816 28.7516 27.89 27.8891 28.0351 27.038L30.8654 25.9413C32.8737 25.1787 34.0314 23.0567 33.5877 20.9461C33.3743 19.9322 33.1553 18.8441 32.9818 17.9673C34.5235 16.565 36.327 15.4826 38.2926 14.7913L40.6138 16.7648C42.2437 18.1672 44.6474 18.1672 46.2802 16.7648L48.6013 14.7913C50.5641 15.4854 52.3676 16.565 53.9093 17.9673C53.7358 18.8441 53.5139 19.9322 53.3034 20.9461C52.8625 23.0567 54.0174 25.1788 56.0257 25.9413L58.8561 27.038C59.0011 27.8891 59.0751 28.7517 59.0751 29.6141C59.0808 30.4795 59.0125 31.3477 58.8702 32.2017ZM43.4584 19.4008C39.3337 19.3979 35.6134 21.8883 34.0346 25.7126C32.453 29.5369 33.3234 33.9409 36.2391 36.8713C39.1548 39.8018 43.538 40.6784 47.3502 39.0934C51.1591 37.5111 53.6452 33.7783 53.6452 29.6367C53.6366 23.9903 49.0819 19.4125 43.4584 19.4008ZM52.7118 29.1798H46.0213C45.8279 28.0974 44.983 27.252 43.905 27.0607V20.3376C48.6668 20.5775 52.4729 24.3987 52.7118 29.1798ZM43.4584 31.3418C42.77 31.3418 42.1499 30.9249 41.8882 30.288C41.6237 29.6511 41.7687 28.9171 42.2552 28.4287C42.7416 27.9403 43.4727 27.7946 44.107 28.0602C44.7413 28.323 45.1566 28.9456 45.1566 29.6367C45.1566 30.5792 44.397 31.3418 43.4584 31.3418ZM43.0032 20.3374V27.0633V27.0605C41.9251 27.2547 41.0803 28.0972 40.8869 29.1796H34.1965C34.4354 24.3986 38.2412 20.5772 43.0032 20.3374ZM34.1963 30.0938H40.8867C41.083 31.1734 41.925 32.0159 43.003 32.2101V38.9275C38.2412 38.6933 34.4322 34.8719 34.1963 30.0938ZM43.9048 38.9275V32.2101C44.9829 32.0187 45.8248 31.1733 46.0211 30.0938H52.7115C52.4754 34.8719 48.6668 38.6935 43.9048 38.9275ZM10.3473 17.8471C10.3473 18.0984 10.1425 18.3041 9.89219 18.3041C9.63902 18.3041 9.43706 18.0984 9.43706 17.8471C9.43706 17.3444 9.03313 16.9389 8.53247 16.9389C8.03468 16.9389 7.63073 17.3444 7.63073 17.8471C7.63357 18.3326 8.01759 18.7324 8.504 18.7525C8.75432 18.7525 8.95913 18.9581 8.95913 19.2094C8.95913 19.4608 8.75432 19.6664 8.504 19.6664C7.77011 19.6664 7.10729 19.2237 6.82853 18.5439C6.54692 17.8614 6.70337 17.0788 7.22108 16.559C7.7388 16.0393 8.51817 15.8821 9.19803 16.1649C9.87504 16.4448 10.316 17.1103 10.316 17.8471L10.3473 17.8471ZM14.2615 17.8471C14.2615 18.0984 14.0566 18.3041 13.8063 18.3041C13.5532 18.3041 13.3512 18.0984 13.3512 17.8471C13.3512 17.3444 12.9473 16.9389 12.4466 16.9389C11.9488 16.9389 11.5449 17.3444 11.5449 17.8471C11.5477 18.344 11.9516 18.7496 12.4466 18.7525C12.6998 18.7525 12.9017 18.9581 12.9017 19.2094C12.9017 19.4608 12.6998 19.6664 12.4466 19.6664C11.7156 19.6664 11.0527 19.2237 10.774 18.5439C10.4924 17.8614 10.646 17.0788 11.1665 16.559C11.6842 16.0392 12.4636 15.8821 13.1406 16.1649C13.8177 16.4448 14.2615 17.1102 14.2615 17.8471ZM18.1756 17.8471C18.1756 18.0984 17.9708 18.3041 17.7205 18.3041C17.4673 18.3041 17.2653 18.0984 17.2653 17.8471C17.2653 17.3444 16.8614 16.9389 16.3607 16.9389C15.8629 16.9389 15.459 17.3444 15.459 17.8471C15.4618 18.344 15.8658 18.7496 16.3607 18.7525C16.6139 18.7525 16.8159 18.9581 16.8159 19.2094C16.8159 19.4608 16.6139 19.6664 16.3607 19.6664C15.6297 19.6664 14.9669 19.2237 14.6881 18.5439C14.4065 17.8614 14.5601 17.0788 15.0807 16.559C15.5984 16.0392 16.3778 15.8821 17.0548 16.1649C17.7318 16.4448 18.1756 17.1102 18.1756 17.8471ZM8.2224 33.7868H16.6733C18.9546 33.7868 20.8065 31.9275 20.8065 29.6369C20.8065 27.3436 18.9546 25.4843 16.6733 25.4843H8.2224C5.93822 25.4843 4.08922 27.3436 4.08922 29.6369C4.08922 31.9275 5.93822 33.7868 8.2224 33.7868ZM8.2224 26.3986H16.6733C18.454 26.3986 19.8962 27.8494 19.8962 29.6373C19.8962 31.4252 18.454 32.8732 16.6733 32.8732H8.2224C6.44171 32.8732 4.99948 31.4252 4.99948 29.6373C4.99948 27.8494 6.44171 26.3986 8.2224 26.3986ZM6.70627 29.6345V29.6373C6.70627 28.632 7.51698 27.8152 8.51827 27.8152C9.51956 27.8152 10.3303 28.632 10.3303 29.6373C10.3303 29.8887 10.1283 30.0943 9.87515 30.0943C9.62483 30.0943 9.42002 29.8887 9.42002 29.6373C9.42002 29.2717 9.20383 28.9404 8.86817 28.8005C8.53251 28.6606 8.14565 28.7348 7.88392 28.989C7.62506 29.2461 7.54542 29.6345 7.67911 29.9715C7.81565 30.3114 8.13993 30.537 8.50403 30.5427C8.75435 30.5427 8.95916 30.7484 8.95916 30.9997C8.95916 31.251 8.75435 31.4567 8.50403 31.4567C7.5141 31.4395 6.72049 30.6313 6.72049 29.6374L6.70627 29.6345ZM10.6204 29.6345V29.6373C10.6204 28.632 11.4311 27.8152 12.4324 27.8152C13.4337 27.8152 14.2444 28.632 14.2444 29.6373C14.2444 29.8887 14.0425 30.0943 13.7893 30.0943C13.539 30.0943 13.3342 29.8887 13.3342 29.6373C13.3342 29.2689 13.1123 28.9376 12.7738 28.7977C12.4353 28.6577 12.0456 28.7377 11.7895 29.0004C11.5307 29.2632 11.4595 29.6545 11.6018 29.9944C11.7469 30.3314 12.0825 30.5484 12.4467 30.5427C12.6998 30.5427 12.9018 30.7484 12.9018 30.9997C12.9018 31.251 12.6998 31.4567 12.4467 31.4567C11.9659 31.4567 11.5051 31.2653 11.1666 30.9226C10.8253 30.5827 10.6347 30.12 10.6347 29.6374L10.6204 29.6345ZM14.5345 29.6345V29.6373C14.5345 28.632 15.3453 27.8152 16.3465 27.8152C17.3478 27.8152 18.1586 28.632 18.1586 29.6373C18.1586 29.8887 17.9566 30.0943 17.7034 30.0943C17.4531 30.0943 17.2483 29.8887 17.2483 29.6373C17.2483 29.2689 17.0293 28.9405 16.6908 28.7977C16.3551 28.6577 15.9654 28.7377 15.7093 28.9947C15.4505 29.2546 15.3737 29.6459 15.5131 29.983C15.6525 30.3228 15.9824 30.5427 16.3465 30.5427C16.5968 30.5427 16.8016 30.7484 16.8016 30.9997C16.8016 31.251 16.5968 31.4567 16.3465 31.4567C15.3594 31.4367 14.5715 30.6284 14.5715 29.6374L14.5345 29.6345ZM10.3473 41.4271C10.3473 41.6784 10.1425 41.8841 9.89219 41.8841C9.63902 41.8841 9.43706 41.6784 9.43706 41.4271C9.43706 41.0615 9.21803 40.7331 8.88521 40.5932C8.5524 40.4504 8.16554 40.5218 7.90664 40.7759C7.64494 41.0273 7.5596 41.4128 7.69045 41.7527C7.8213 42.0925 8.1399 42.321 8.50401 42.3325C8.75433 42.3325 8.95914 42.5381 8.95914 42.7894C8.95914 43.0408 8.75433 43.2464 8.50401 43.2464C7.77012 43.2464 7.1073 42.8037 6.82854 42.1239C6.54692 41.4413 6.70337 40.6588 7.22109 40.139C7.7388 39.6193 8.51818 39.4621 9.19804 39.7449C9.87505 40.0248 10.316 40.6903 10.316 41.4271L10.3473 41.4271ZM14.2615 41.4271C14.2615 41.6784 14.0566 41.8841 13.8063 41.8841C13.5532 41.8841 13.3512 41.6784 13.3512 41.4271C13.3512 41.0587 13.1293 40.7302 12.7937 40.5875C12.4552 40.4475 12.0683 40.5275 11.8094 40.7845C11.5506 41.0444 11.4737 41.4357 11.6131 41.7727C11.7525 42.1126 12.0825 42.3325 12.4466 42.3325C12.6997 42.3325 12.9017 42.5382 12.9017 42.7895C12.9017 43.0408 12.6997 43.2464 12.4466 43.2464C11.7155 43.2464 11.0527 42.8038 10.7739 42.124C10.4923 41.4414 10.6459 40.6589 11.1665 40.1391C11.6842 39.6193 12.4636 39.4622 13.1406 39.7449C13.8176 40.0248 14.2615 40.6903 14.2615 41.4271ZM18.1756 41.4271C18.1756 41.6784 17.9708 41.8841 17.7205 41.8841C17.4673 41.8841 17.2653 41.6784 17.2653 41.4271C17.2653 41.0587 17.0435 40.7302 16.7078 40.5875C16.3693 40.4475 15.9824 40.5275 15.7235 40.7845C15.4647 41.0444 15.3879 41.4357 15.5273 41.7727C15.6667 42.1126 15.9966 42.3325 16.3607 42.3325C16.6139 42.3325 16.8158 42.5382 16.8158 42.7895C16.8158 43.0408 16.6139 43.2464 16.3607 43.2464C15.6297 43.2464 14.9668 42.8038 14.6881 42.124C14.4065 41.4414 14.5601 40.6589 15.0806 40.1391C15.5983 39.6193 16.3777 39.4622 17.0547 39.7449C17.7318 40.0248 18.1756 40.6903 18.1756 41.4271ZM36.5091 48.1588C36.2587 48.1588 36.0539 48.3644 36.0539 48.6157V51.8973H1.919V10.1021H36.0539V11.3274C36.0539 11.5787 36.2587 11.7844 36.5091 11.7844C36.7594 11.7844 36.9642 11.5787 36.9642 11.3274V6.69778C36.9613 5.18124 36.3583 3.7275 35.2887 2.65937C34.2191 1.59124 32.7684 0.994338 31.2608 1.00004H6.67495C3.54306 1.0029 1.00568 3.55335 1 6.69785V55.3022C1.00569 58.4467 3.54306 60.9971 6.67495 61H31.2608C34.3927 60.9971 36.9301 58.4467 36.9329 55.3022V48.6162C36.9358 48.3763 36.748 48.1759 36.5091 48.1588ZM36.0539 6.69771V9.18814H21.8684C23.2366 8.24276 24.053 6.68053 24.053 5.01264V1.91383H31.2611C32.527 1.90811 33.7473 2.40792 34.6461 3.30753C35.545 4.20436 36.0511 5.42391 36.0539 6.69771ZM23.1595 1.91383V5.01264C23.1595 7.32605 21.2906 9.20247 18.9865 9.20247C16.6823 9.20247 14.8134 7.32605 14.8134 5.01264V1.91383H23.1595ZM6.69243 1.91383H13.929V5.01264H13.9262C13.9262 6.29214 14.4069 7.5231 15.2689 8.46277C15.5192 8.73695 15.798 8.97971 16.1051 9.1882H1.91084V6.69777C1.91084 4.05593 4.04428 1.91389 6.67553 1.91389L6.69243 1.91383ZM31.2608 60.0852H6.67495C4.04371 60.0852 1.91026 57.9432 1.91026 55.3013V52.8109H36.0452V55.3013C36.0452 56.5751 35.5388 57.7917 34.64 58.6914C33.7439 59.5882 32.5267 60.0881 31.2608 60.0852ZM18.9781 7.38864C19.712 7.3915 20.372 6.95166 20.6536 6.27481C20.9352 5.59508 20.7816 4.81537 20.2638 4.2956C19.7461 3.7758 18.9668 3.62158 18.2926 3.90432C17.6156 4.18707 17.1775 4.84969 17.1804 5.58369C17.1861 6.58046 17.9882 7.38572 18.9781 7.38864ZM18.9781 4.68399V4.68685C19.3422 4.68399 19.6693 4.90105 19.8115 5.2352C19.9509 5.57222 19.877 5.95778 19.6209 6.21772C19.3678 6.47476 18.9809 6.55473 18.6453 6.41478C18.3096 6.27769 18.0906 5.94925 18.0906 5.58369C18.0821 5.34379 18.1731 5.10673 18.3409 4.93252C18.5059 4.7583 18.7363 4.65834 18.9781 4.65548L18.9781 4.68399ZM27.2105 54.3273H10.7806C9.81631 54.3273 9.03407 55.1127 9.03407 56.078C9.03407 57.0462 9.81631 57.8316 10.7806 57.8316H27.2105C28.172 57.8316 28.9542 57.0462 28.9542 56.078C28.9542 55.1127 28.172 54.3273 27.2105 54.3273ZM27.2105 56.9177H10.7806C10.3198 56.9177 9.94433 56.5407 9.94433 56.0781C9.94433 55.6154 10.3198 55.2413 10.7806 55.2413H27.2105C27.6713 55.2413 28.044 55.6154 28.044 56.0781C28.044 56.5408 27.6713 56.9177 27.2105 56.9177Z" fill="#0CB4C4" stroke="#0CB4C4" stroke-width="0.6"></path></svg>