<svg width="72" height="60" viewBox="0 0 72 60" fill="none" xmlns="http://www.w3.org/2000/svg"><path d="M43.208 0.150391C52.5239 0.150423 60.0964 7.33534 60.9658 16.7539L60.9795 16.9053L61.1309 16.8896C61.3466 16.867 61.5634 16.8662 61.8008 16.8662C67.3373 16.8676 71.8496 21.6507 71.8496 27.5518C71.8495 33.4536 67.3361 38.2497 61.7988 38.25H43.7627L43.7188 38.3164L29.6758 59.377V59.3779C29.4759 59.6829 29.1511 59.8496 28.8047 59.8496C28.7047 59.8496 28.6028 59.8331 28.5039 59.8018L28.4062 59.7656H28.4053C27.9452 59.5775 27.6814 59.0846 27.7754 58.5898L31.0879 42.0293L31.124 41.8506H24.0039C23.658 41.8506 23.3433 41.6827 23.1426 41.3975C22.9439 41.1151 22.9012 40.7588 23.0176 40.4307L23.0166 40.4297L23.749 38.4521L23.8232 38.25H12.6016C5.73742 38.2497 0.150391 32.5948 0.150391 25.6318C0.15049 19.2023 4.85938 13.879 11.0479 13.1084L11.1553 13.0957L11.1768 12.9893C12.2088 7.79697 16.545 4.0021 21.6035 4.00195C24.3823 4.00195 26.9967 5.12465 28.9736 7.14844L29.0947 7.27246L29.2002 7.13574C32.5816 2.73164 37.7108 0.150391 43.208 0.150391ZM33.0928 19.1484L26.3018 37.5859C26.2905 37.6084 26.2851 37.628 26.2832 37.6377C26.2827 37.6401 26.2816 37.6423 26.2812 37.6445L25.5801 39.5488L25.5059 39.751H32.4062C32.7186 39.7511 33.0127 39.8965 33.2139 40.1396L33.2891 40.2314C33.4126 40.4255 33.4717 40.6567 33.4521 40.8828L33.4355 40.9971L33.4346 40.998L31.0225 53.0469L31.2939 53.1592L45.8887 31.2715L46.0449 31.0381H39.6074C39.283 31.0381 38.9667 30.8803 38.7666 30.6172C38.5923 30.3879 38.5218 30.0938 38.5703 29.8135L38.5986 29.6953L41.7314 19.2432L41.7891 19.0498H33.1289L33.0928 19.1484ZM58.9492 18.1406C58.7314 9.24433 51.8272 2.2627 43.208 2.2627C38.064 2.2627 33.2975 4.83357 30.3398 9.16699L30.0596 9.5918C29.8701 9.88639 29.5553 10.0647 29.209 10.0752L29.0762 10.0713C28.814 10.0482 28.579 9.93306 28.4082 9.74609L28.3281 9.64648L28.3271 9.64453L28.0107 9.23535C26.3855 7.24476 24.0826 6.11433 21.6045 6.11426C17.2832 6.11426 13.6505 9.60044 13.1143 14.2021C13.0549 14.6756 12.6809 15.0552 12.2119 15.1182L12.1172 15.127H12.1162C6.57433 15.3826 2.23926 19.8414 2.23926 25.6328C2.23949 31.4251 6.87679 36.1504 12.5908 36.1504H24.5889L24.625 36.0527L31.4062 17.6328L31.4053 17.6318C31.564 17.2219 31.9537 16.9503 32.3936 16.9502H43.1953C43.5197 16.9502 43.836 17.108 44.0361 17.3711C44.2104 17.6003 44.2808 17.8946 44.2324 18.1748L44.2041 18.2939L41.0713 28.7451L41.0137 28.9385H48.0088C48.3985 28.9386 48.7543 29.149 48.9316 29.4932C49.1105 29.8405 49.0896 30.2505 48.8799 30.5771L45.3271 35.917L45.1719 36.1504H61.8105V36.1494C66.1957 36.1429 69.7508 32.2757 69.751 27.5527C69.751 22.8254 66.19 18.967 61.7998 18.9668C61.3773 18.9668 60.9816 19.0007 60.5986 19.0645L60.2188 19.1377C59.9158 19.1998 59.6014 19.1276 59.3477 18.9385C59.1047 18.7484 58.9492 18.4545 58.9492 18.1445V18.1406Z" fill="#0CB4C4" stroke="white" stroke-width="0.3"></path></svg>