<svg xmlns="http://www.w3.org/2000/svg" xmlns:xlink="http://www.w3.org/1999/xlink" version="1.1" id="Layer_1" x="0px" y="0px" width="75.789px" height="60px" viewBox="0 0 75.789 60" style="enable-background:new 0 0 75.789 60;" xml:space="preserve"><g><path style="fill:#0CB4C4;" d="M1.038,59.996C0.466,59.996,0,59.531,0,58.958V1.042C-0.003,0.498,0.401,0.051,0.939,0L74.75,0.004 c0.572,0,1.039,0.466,1.039,1.039v57.915c0,0.345-0.17,0.667-0.455,0.862c-0.032,0.025-0.056,0.044-0.074,0.06l-0.015,0.004 c-0.194,0.077-0.298,0.104-0.403,0.115L1.038,59.996z M2.076,57.92h71.636V14.365H2.076V57.92z M2.076,12.289h71.636V2.08H2.076 V12.289z M37.895,51.221c-2.856,0-5.754-1.712-7.952-4.698c-2.333-3.171-3.616-7.481-3.616-12.135v-7.898 c0-0.572,0.466-1.038,1.038-1.038c0.991,0,2.449-0.488,3.466-1.161c0.98-0.648,1.638-1.527,1.638-2.188 c-0.003-0.544,0.402-0.99,0.94-1.042l8.874,0.003c0.572,0,1.038,0.466,1.038,1.038c0,0.662,0.658,1.541,1.639,2.188 c1.016,0.672,2.474,1.161,3.466,1.161c0.571,0,1.037,0.466,1.037,1.038v7.898c0,4.655-1.283,8.965-3.615,12.136 C43.647,49.509,40.75,51.221,37.895,51.221z M34.195,23.566c-0.511,1.152-1.498,1.975-2.235,2.462 c-0.826,0.547-1.808,0.944-2.999,1.215l-0.559,0.126v7.017c0,4.214,1.139,8.085,3.21,10.9c1.778,2.416,4.126,3.857,6.282,3.857 c2.157,0,4.504-1.442,6.28-3.857c2.072-2.815,3.212-6.687,3.212-10.9v-7.017l-0.559-0.126c-1.191-0.271-2.173-0.668-3-1.215 c-0.736-0.487-1.724-1.311-2.235-2.463l-0.188-0.426h-7.021L34.195,23.566z M19.377,8.225c-0.559,0-1.014-0.437-1.038-0.994 c-0.012-0.278,0.084-0.544,0.272-0.749c0.188-0.205,0.443-0.325,0.721-0.337l3.644,0.001c0.613,0.008,1.073,0.481,1.064,1.053 c-0.009,0.564-0.475,1.023-1.038,1.023L19.377,8.225z M8.846,8.225c-0.557,0-1.013-0.437-1.037-0.994 C7.796,6.952,7.893,6.686,8.08,6.482c0.188-0.205,0.444-0.325,0.722-0.337l3.645,0.001c0.612,0.008,1.072,0.481,1.063,1.053 c-0.008,0.564-0.474,1.023-1.038,1.023L8.846,8.225z"></path></g></svg>