<svg xmlns="http://www.w3.org/2000/svg" xmlns:xlink="http://www.w3.org/1999/xlink" version="1.1" id="Layer_1" x="0px" y="0px" width="65.4px" height="60px" viewBox="0 0 65.4 60" enable-background="new 0 0 65.4 60" xml:space="preserve"><g><g><path fill="#0CB4C4" d="M28.229,0.492h-1.787H6.769H4.98c-2.505,0-4.469,1.967-4.469,4.471v50.074 c0,2.505,1.964,4.471,4.469,4.471h23.249c2.503,0,4.471-1.966,4.471-4.471v-1.878V32.146V4.963 C32.7,2.458,30.731,0.492,28.229,0.492z M8.556,2.28h16.095v0.894c0,0.537-0.356,0.894-0.894,0.894H9.45 c-0.534,0-0.894-0.357-0.894-0.894V2.28z M30.911,53.159v1.878c0,1.521-1.162,2.683-2.683,2.683H4.98 c-1.519,0-2.684-1.162-2.684-2.683V4.963c0-1.521,1.165-2.683,2.684-2.683h1.789v0.894c0,1.52,1.162,2.683,2.681,2.683h14.308 c1.52,0,2.684-1.163,2.684-2.683V2.28h1.787c1.521,0,2.683,1.162,2.683,2.683v27.184V53.159z"></path><path fill="#0CB4C4" d="M28.229,60H4.98c-2.782,0-4.961-2.181-4.961-4.963V4.963C0.019,2.18,2.198,0,4.98,0h23.249 c2.783,0,4.963,2.18,4.963,4.963v50.074C33.191,57.819,31.011,60,28.229,60z M4.98,0.983c-2.23,0-3.978,1.748-3.978,3.979v50.074 c0,2.231,1.747,3.979,3.978,3.979h23.249c2.231,0,3.979-1.748,3.979-3.979V4.963c0-2.231-1.749-3.979-3.979-3.979H4.98z M28.229,58.212H4.98c-1.781,0-3.175-1.396-3.175-3.175V4.963c0-1.78,1.395-3.174,3.175-3.174h2.28v1.386 c0,1.249,0.941,2.191,2.189,2.191h14.308c1.25,0,2.192-0.942,2.192-2.191V1.789h2.279c1.78,0,3.174,1.394,3.174,3.174v50.074 C31.403,56.816,30.008,58.212,28.229,58.212z M4.98,2.772c-1.25,0-2.192,0.942-2.192,2.191v50.074c0,1.248,0.942,2.19,2.192,2.19 h23.249c1.249,0,2.191-0.942,2.191-2.19V4.963c0-1.249-0.942-2.191-2.191-2.191h-1.295v0.402c0,1.78-1.395,3.174-3.176,3.174H9.45 c-1.779,0-3.173-1.394-3.173-3.174V2.772H4.98z M23.758,4.56H9.45c-0.803,0-1.385-0.583-1.385-1.386V1.789h17.079v1.386 C25.143,3.977,24.561,4.56,23.758,4.56z M9.048,2.772v0.402c0,0.263,0.14,0.402,0.402,0.402h14.308 c0.266,0,0.402-0.135,0.402-0.402V2.772H9.048z"></path></g><g><rect x="45.922" y="7.614" transform="matrix(-0.707 0.7072 -0.7072 -0.707 90.8922 -20.6404)" fill="#0CB4C4" width="7.6" height="1.787"></rect><path fill="#0CB4C4" d="M47.665,12.524l-1.957-1.961l6.068-6.07l1.959,1.96L47.665,12.524z M47.099,10.563l0.566,0.568l4.68-4.679 l-0.568-0.568L47.099,10.563z"></path></g><g><rect x="58.452" y="30.715" fill="#0CB4C4" width="6.438" height="1.788"></rect><path fill="#0CB4C4" d="M65.382,32.995h-7.42v-2.772h7.42V32.995z M58.944,32.012h5.453v-0.805h-5.453V32.012z"></path></g><g><rect x="48.317" y="52.809" transform="matrix(-0.7396 0.6731 -0.6731 -0.7396 123.3793 64.5006)" fill="#0CB4C4" width="1.79" height="6.619"></rect><path fill="#0CB4C4" d="M50.743,59.86l-5.113-5.621l2.049-1.867l5.115,5.624L50.743,59.86z M47.019,54.305l3.791,4.167 l0.596-0.541l-3.791-4.169L47.019,54.305z"></path></g><g><polygon fill="#0CB4C4" points="50.942,21.237 35.382,12.295 35.382,14.352 48.081,21.684 35.382,29.018 35.382,31.072 49.153,23.116 49.153,42.251 35.382,50.208 35.382,52.266 50.942,43.324 "></polygon><path fill="#0CB4C4" d="M34.89,53.115v-3.19l13.771-7.957v-18L34.89,31.925v-3.191l12.207-7.05L34.89,14.635v-3.19l16.543,9.507 v22.656L34.89,53.115z M35.874,50.491v0.925l14.576-8.377V21.521l-14.576-8.376v0.923l13.189,7.616l-13.189,7.618v0.919 l13.771-7.957v20.27L35.874,50.491z"></path></g><g><polygon fill="#0CB4C4" points="12.67,43.324 28.229,52.266 28.229,50.208 14.458,42.251 14.458,23.116 28.229,31.072 28.229,29.018 15.532,21.684 28.229,14.352 28.229,12.295 12.67,21.237 "></polygon><path fill="#0CB4C4" d="M28.72,53.115l-16.542-9.507V20.952l16.542-9.507v3.19l-12.205,7.049l12.205,7.05v3.191L14.95,23.968v18 l13.771,7.957V53.115z M13.162,43.039l14.574,8.377v-0.925l-13.771-7.957v-20.27l13.771,7.957v-0.919l-13.188-7.618l13.188-7.616 v-0.923l-14.574,8.376V43.039z"></path></g></g></svg>