<svg xmlns="http://www.w3.org/2000/svg" xmlns:xlink="http://www.w3.org/1999/xlink" version="1.1" id="Layer_1" x="0px" y="0px" width="60px" height="60px" viewBox="0 0 60 60" style="enable-background:new 0 0 60 60;" xml:space="preserve"><g><path style="fill:#0CB4C4;" d="M30,60c-2.187,0-4.104-1.49-4.663-3.625l-0.039-0.15H12.382c-0.583,0-1.057-0.474-1.057-1.057 s0.474-1.057,1.057-1.057h12.915l0.04-0.15c0.449-1.699,1.773-3.023,3.455-3.456l0.152-0.039v-8.084H12.131 c-0.109,0.012-0.187,0.013-0.28,0.013c-0.007,0-0.264-0.013-0.337-0.013C5.062,42.073,0,37.054,0,30.957 c0-4.019,2.203-7.776,5.75-9.804l0.158-0.09l-0.074-0.166c-0.648-1.458-0.977-2.993-0.977-4.563c0-6.273,5.21-11.375,11.615-11.375 c3.245,0,6.369,1.357,8.573,3.724L25.249,8.9l0.126-0.27C27.826,3.387,33.204,0,39.073,0c8.313,0,15.075,6.621,15.075,14.761 c0,1.878-0.386,3.801-1.117,5.561l-0.076,0.183l0.182,0.079C57.306,22.395,60,26.467,60,30.957c0,6.3-5.21,11.426-11.615,11.426 H31.057v8.083l0.15,0.04c1.7,0.449,3.023,1.773,3.456,3.455l0.039,0.152h12.917c0.583,0,1.057,0.474,1.057,1.057 s-0.474,1.057-1.057,1.057H34.702l-0.039,0.15C34.104,58.51,32.187,60,30,60z M30,52.45c-1.499,0-2.718,1.219-2.718,2.718 c0,1.499,1.22,2.718,2.718,2.718s2.718-1.22,2.718-2.718C32.718,53.669,31.499,52.45,30,52.45z M16.485,7.072 c-5.239,0-9.501,4.155-9.501,9.262c0,1.623,0.45,3.229,1.3,4.647c0.151,0.271,0.187,0.588,0.095,0.864 c-0.095,0.284-0.322,0.531-0.593,0.646c-3.446,1.479-5.672,4.802-5.672,8.466c0,5.046,4.091,9.055,9.517,9.325 c0.06,0.004,0.115,0.006,0.164,0.006l0.261-0.008c0.083-0.01,0.167-0.011,0.285-0.011c0.013,0,36.044,0,36.044,0 c5.239,0,9.501-4.177,9.501-9.312c0-4.1-2.693-7.656-6.7-8.851c-0.303-0.083-0.549-0.303-0.678-0.604 c-0.124-0.288-0.107-0.628,0.043-0.908c0.976-1.837,1.471-3.803,1.471-5.846c0-6.967-5.809-12.635-12.949-12.635 c-5.818,0-10.943,3.828-12.463,9.309c-0.119,0.409-0.463,0.708-0.876,0.76c-0.044,0.006-0.088,0.009-0.131,0.009 c-0.369,0-0.721-0.199-0.918-0.519C22.99,8.836,19.848,7.072,16.485,7.072z"></path></g></svg>