<svg xmlns="http://www.w3.org/2000/svg" xmlns:xlink="http://www.w3.org/1999/xlink" version="1.1" id="Layer_1" x="0px" y="0px" width="60px" height="60px" viewBox="0 0 60 60" style="enable-background:new 0 0 60 60;" xml:space="preserve"><g><path style="fill:#0CB4C4;" d="M59.117,26.063l-3.6-1.01c-0.229-1.202-0.545-2.385-0.944-3.542l2.601-2.665 c0.287-0.293,0.366-0.733,0.199-1.108c-0.84-1.875-1.87-3.658-3.074-5.322c-0.241-0.333-0.66-0.484-1.058-0.382l-3.607,0.924 c-0.802-0.923-1.668-1.789-2.591-2.591l0.924-3.607c0.103-0.398-0.049-0.818-0.382-1.059c-1.664-1.206-3.447-2.237-5.321-3.078 c-0.375-0.167-0.814-0.088-1.108,0.2l-2.665,2.6c-1.156-0.398-2.34-0.714-3.542-0.944l-1.01-3.6 c-0.111-0.396-0.453-0.683-0.861-0.725c-2.046-0.207-4.107-0.207-6.153,0c-0.409,0.042-0.75,0.33-0.861,0.725l-1.01,3.6 c-1.202,0.23-2.386,0.545-3.542,0.944l-2.664-2.6c-0.293-0.288-0.733-0.367-1.108-0.2c-1.874,0.841-3.657,1.873-5.321,3.078 c-0.333,0.241-0.484,0.66-0.383,1.058l0.924,3.607c-0.922,0.802-1.788,1.668-2.59,2.591l-3.607-0.924 c-0.397-0.104-0.818,0.048-1.058,0.382c-1.206,1.664-2.237,3.447-3.078,5.322c-0.167,0.375-0.088,0.814,0.2,1.108l2.6,2.665 c-0.398,1.157-0.714,2.341-0.943,3.543l-3.6,1.01c-0.396,0.111-0.684,0.452-0.726,0.861c-0.208,2.046-0.208,4.107,0,6.153 c0.042,0.409,0.329,0.751,0.726,0.862l3.6,1.009c0.229,1.202,0.545,2.386,0.943,3.543l-2.6,2.665 c-0.288,0.293-0.367,0.733-0.2,1.108c0.841,1.875,1.872,3.658,3.077,5.322c0.24,0.333,0.66,0.484,1.058,0.382l3.606-0.924 c0.803,0.923,1.668,1.789,2.592,2.591l-0.924,3.607c-0.103,0.397,0.049,0.817,0.381,1.058c1.664,1.206,3.447,2.237,5.322,3.078 c0.375,0.167,0.814,0.088,1.107-0.2l2.665-2.6c1.157,0.398,2.341,0.714,3.543,0.944l1.01,3.6c0.111,0.396,0.452,0.683,0.861,0.725 c2.045,0.208,4.106,0.208,6.152,0c0.409-0.042,0.751-0.329,0.862-0.725l1.009-3.6c1.201-0.23,2.386-0.546,3.543-0.945l2.664,2.6 c0.293,0.288,0.732,0.367,1.108,0.2c1.874-0.841,3.657-1.872,5.321-3.076c0.333-0.241,0.483-0.66,0.382-1.058l-0.924-3.607 c0.923-0.802,1.789-1.668,2.591-2.591l3.606,0.924c0.397,0.102,0.817-0.049,1.059-0.382c1.205-1.664,2.236-3.447,3.078-5.322 c0.167-0.375,0.088-0.814-0.2-1.108l-2.6-2.665c0.398-1.157,0.714-2.341,0.943-3.543l3.6-1.01c0.396-0.111,0.684-0.452,0.725-0.861 c0.208-2.046,0.208-4.108,0-6.154C59.802,26.514,59.514,26.173,59.117,26.063z M57.917,32.199l-3.534,0.993 c-0.374,0.105-0.653,0.417-0.716,0.8c-0.25,1.5-0.644,2.974-1.175,4.399c-0.135,0.362-0.049,0.77,0.222,1.047l2.558,2.62 c-0.633,1.322-1.368,2.593-2.2,3.8l-3.547-0.908c-0.375-0.098-0.772,0.032-1.018,0.332c-0.97,1.173-2.049,2.252-3.223,3.222 c-0.299,0.247-0.428,0.644-0.332,1.019l0.908,3.547c-1.207,0.832-2.478,1.567-3.8,2.2l-2.62-2.558 c-0.276-0.271-0.685-0.357-1.047-0.221c-1.426,0.531-2.899,0.924-4.399,1.175c-0.383,0.063-0.694,0.342-0.8,0.716L32.2,57.912 c-1.465,0.115-2.936,0.115-4.399,0l-0.993-3.535c-0.105-0.374-0.417-0.653-0.8-0.716c-1.501-0.25-2.974-0.643-4.399-1.174 c-0.363-0.137-0.771-0.051-1.047,0.221l-2.621,2.558c-1.321-0.633-2.592-1.369-3.799-2.2l0.908-3.546 c0.096-0.375-0.034-0.771-0.332-1.018c-1.172-0.97-2.248-2.048-3.217-3.221c-0.246-0.299-0.643-0.428-1.018-0.332l-3.547,0.908 c-0.832-1.207-1.567-2.478-2.201-3.799l2.559-2.62c0.27-0.277,0.355-0.685,0.221-1.047c-0.531-1.426-0.924-2.899-1.174-4.399 c-0.063-0.383-0.342-0.695-0.716-0.8L2.089,32.2C2.03,31.467,2.003,30.729,2.003,30c0-0.729,0.027-1.467,0.086-2.2l3.534-0.993 c0.374-0.105,0.653-0.417,0.716-0.8c0.25-1.5,0.643-2.974,1.174-4.399c0.135-0.362,0.049-0.77-0.221-1.047l-2.558-2.62 c0.633-1.322,1.368-2.592,2.2-3.799l3.546,0.908c0.375,0.096,0.771-0.034,1.019-0.332c0.969-1.171,2.048-2.248,3.221-3.216 c0.299-0.247,0.428-0.644,0.332-1.019l-0.908-3.547c1.207-0.832,2.478-1.567,3.8-2.2l2.62,2.558 c0.275,0.271,0.684,0.358,1.047,0.221c1.426-0.53,2.898-0.923,4.399-1.174c0.383-0.063,0.694-0.342,0.8-0.716l0.991-3.537 c1.464-0.115,2.935-0.115,4.399,0l0.993,3.535c0.104,0.374,0.417,0.653,0.8,0.716c1.501,0.25,2.974,0.643,4.399,1.174 c0.362,0.137,0.771,0.051,1.047-0.221l2.62-2.558c1.322,0.633,2.592,1.369,3.8,2.2l-0.908,3.546 c-0.096,0.375,0.033,0.771,0.332,1.018c1.173,0.97,2.252,2.049,3.222,3.223c0.247,0.299,0.644,0.428,1.02,0.332l3.547-0.908 c0.831,1.207,1.566,2.478,2.199,3.8l-2.558,2.62c-0.27,0.277-0.356,0.685-0.221,1.047c0.53,1.426,0.923,2.899,1.174,4.4 c0.063,0.383,0.342,0.695,0.716,0.8l3.534,0.993c0.059,0.732,0.086,1.47,0.086,2.2s-0.031,1.463-0.09,2.196L57.917,32.199z"></path><path style="fill:#0CB4C4;" d="M30,10.001c-11.044,0-19.998,8.954-19.998,19.999c0,11.045,8.954,19.999,19.998,19.999 c11.045,0,19.999-8.954,19.999-19.999C49.986,18.96,41.04,10.014,30,10.001z M47.948,31c-0.222,4.072-1.826,7.945-4.549,10.98 l-2.087-2.081l-1.413,1.413l2.081,2.087c-3.035,2.723-6.909,4.327-10.98,4.548v-2.949h-2v2.949 c-4.071-0.221-7.944-1.826-10.979-4.548l2.08-2.087l-1.412-1.413l-2.082,2.082c-2.725-3.035-4.332-6.909-4.554-10.981h2.948v-2 h-2.948c0.223-4.072,1.829-7.946,4.554-10.98l2.082,2.081l1.412-1.413l-2.082-2.082c3.035-2.725,6.91-4.332,10.981-4.554v2.949h2 v-2.949c4.072,0.223,7.946,1.829,10.98,4.554l-2.081,2.082l1.413,1.413l2.087-2.081c2.723,3.035,4.327,6.909,4.549,10.98h-2.949v2 H47.948z"></path><path style="fill:#0CB4C4;" d="M37.445,21.169l-7.257,4.838C30.125,26,30.063,26,30,26c-2.209,0-3.999,1.791-3.999,4 c0,2.209,1.79,4,3.999,4s4-1.791,4-4c0-0.062,0-0.125-0.007-0.187l4.839-7.258c0.307-0.459,0.183-1.08-0.276-1.387 C38.22,20.944,37.781,20.944,37.445,21.169z M32.124,29.011c-0.137,0.214-0.191,0.471-0.153,0.722 C31.987,29.821,31.997,29.911,32,30c0,1.104-0.896,2-2,2s-2-0.895-2-2c0-1.105,0.896-2,2-2c0.097,0.004,0.192,0.015,0.286,0.033 c0.245,0.036,0.494-0.021,0.7-0.157l3.404-2.27L32.124,29.011z"></path></g></svg>