<svg xmlns="http://www.w3.org/2000/svg" xmlns:xlink="http://www.w3.org/1999/xlink" version="1.1" id="Layer_1" x="0px" y="0px" width="72.208px" height="60px" viewBox="0 0 72.208 60" style="enable-background:new 0 0 72.208 60;" xml:space="preserve"><g><path style="fill:#0CB4C4;" d="M1.017,60c-0.102,0-0.213-0.026-0.323-0.077l-0.101-0.045H0.565c-0.1-0.048-0.166-0.095-0.227-0.156 l-0.137-0.145l-0.063-0.109l-0.083-0.167c-0.028-0.077-0.041-0.158-0.041-0.257v-0.102L0,58.9V1.017C0,0.457,0.456,0,1.017,0 h19.831c0.264,0,0.522,0.107,0.708,0.293l7.334,7.333h31.619c0.561,0,1.017,0.457,1.017,1.017v9.661h9.661 c0.326,0,0.636,0.153,0.832,0.41c0.182,0.25,0.24,0.591,0.146,0.904L59.961,59.276C59.83,59.702,59.427,60,58.983,60H1.017z M2.438,57.966h55.791L69.8,20.339H15.467L2.438,57.966z M2.034,49.907l0.989,0.167l10.769-31.088 c0.134-0.41,0.516-0.68,0.954-0.68h44.746V9.661H28.475c-0.264,0-0.521-0.107-0.708-0.293l-7.333-7.334H2.034V49.907z"></path><path style="fill:#0CB4C4;" d="M11.695,53.898c-0.561,0-1.017-0.457-1.017-1.017s0.457-1.017,1.017-1.017h24.407 c0.561,0,1.017,0.457,1.017,1.017s-0.457,1.017-1.017,1.017H11.695z"></path><path style="fill:#0CB4C4;" d="M43.729,53.898c-0.561,0-1.017-0.457-1.017-1.017s0.456-1.017,1.017-1.017h12.204 c0.561,0,1.017,0.457,1.017,1.017s-0.457,1.017-1.017,1.017H43.729z"></path></g></svg>