<svg width="61" height="60" viewBox="0 0 61 60" fill="none" xmlns="http://www.w3.org/2000/svg"><path d="M0.217694 26.6012C0.96703 29.8123 4.0426 33.6072 10.1174 33.1697C13.6988 32.9188 17.7899 33.4839 28.7268 33.0723C28.7455 34.3878 28.7616 35.8028 28.7741 37.266C24.002 37.4508 24.1415 36.4447 24.0299 41.4691C22.1487 41.4188 20.5228 41.36 19.1399 41.3096C10.8532 41.0062 10.176 40.9812 9.94744 45.6224C9.78379 48.8733 9.50516 50.2176 9.64276 52.4195C4.30351 53.857 6.3298 59.9976 10.3539 59.9976C15.9258 59.9976 14.5943 52.9165 10.8843 52.3372C10.7893 50.8274 10.9057 49.7779 11.0996 47.3559C11.4748 42.2637 10.3407 42.2332 19.0935 42.5563C20.4806 42.6073 22.1114 42.6661 23.9982 42.7169C23.9002 46.1343 23.6955 46.5196 24.3058 46.8307C24.3877 46.874 24.5998 46.9209 24.6921 46.9245C25.6994 46.9666 26.7079 46.9873 27.7163 46.9873C28.0736 46.9873 28.4332 46.9699 28.7915 46.9645C28.7765 49.1758 28.7448 51.0884 28.6918 52.4247C24.6939 53.1864 24.1053 59.9958 29.2932 59.9976C32.6554 59.9976 33.6795 56.1789 33.1145 54.9256C32.484 53.5257 31.2982 52.5969 29.941 52.3985C29.9915 51.0299 30.022 49.12 30.0367 46.9382C31.3108 46.8975 32.5845 46.8354 33.8455 46.729C34.1071 46.707 34.3271 46.5248 34.3968 46.2726C34.7204 45.0952 34.8705 43.9051 34.9324 42.7156C36.7147 42.669 38.2488 42.6233 39.548 42.5837C46.0414 42.3881 46.7688 42.3894 47.2425 43.0791C47.7067 43.7532 48.0379 51.1291 47.9587 52.3675C44.0757 52.9059 43.1304 60 48.4918 60C50.1375 59.797 50.9158 59.6121 51.7391 58.0691C52.1694 57.2605 52.8209 56.0394 52.3185 54.9256C51.7097 53.5727 50.401 52.7308 49.2088 52.4487C49.2927 51.1395 49.0167 43.4524 48.2754 42.3735C47.3989 41.0982 46.6526 41.1201 39.5101 41.3364C38.2293 41.375 36.7189 41.4202 34.9686 41.4659C34.991 36.5046 35.0242 37.9282 32.3872 37.4081C31.8883 37.3094 31.4468 37.2159 30.021 37.2321C30.0089 35.7621 29.993 34.3413 29.9746 33.0202C46.7509 32.3014 50.1987 33.06 55.2963 30.3863C60.5723 27.6188 61.6222 19.8468 57.8016 15.3519C55.0067 12.0637 49.9958 10.899 45.9088 12.5167C45.1184 7.54052 39.6401 4.91876 35.2934 7.16259C34.4054 4.34142 30.4032 1.27897 28.6264 0.598964C27.588 0.201686 26.4267 0 25.1756 0C17.6669 0 9.45603 6.83013 9.98961 15.5633C8.19871 15.1848 5.84107 16.7254 4.57252 17.3462C0.534909 19.3247 -0.523695 23.4199 0.217694 26.6012ZM12.7119 55.6604C13.7509 58.9037 9.69249 59.286 8.61746 58.1245C8.22079 57.6962 7.39933 56.0498 7.6756 55.4362C8.22751 54.2102 9.70113 53.5942 10.4388 53.5461C11.4865 53.5461 12.3751 54.6099 12.7119 55.6604ZM48.3671 53.5826C49.3383 53.5826 50.6542 54.276 51.1768 55.4368C51.428 55.9937 50.969 56.8547 50.5931 57.5584C49.509 59.5972 45.6493 59.0533 46.0335 56.1698C46.2421 54.6121 47.3988 53.5826 48.3671 53.5826ZM31.9728 55.4368C32.249 56.0498 31.4276 57.6962 31.0309 58.1245C30.0738 59.1561 26.827 58.9629 26.8075 56.7395C26.7767 53.1016 30.6849 52.5775 31.9728 55.4368ZM33.6481 38.8187C33.7532 41.0543 33.8149 43.3423 33.2972 45.5219C30.5976 45.7327 27.8844 45.7912 25.1475 45.6931C25.1504 45.566 25.35 38.693 25.3993 38.5677C26.4984 38.6039 27.0527 38.5996 27.3845 38.5805C32.6636 38.2924 31.341 38.6946 33.6481 38.8187ZM5.12505 18.4661C6.35211 17.8635 9.13737 16.0625 10.3142 17.0702C10.511 17.239 10.7933 17.2682 11.0219 17.1445C11.2499 17.0202 11.3777 16.7679 11.3416 16.5114C11.0561 14.4537 11.298 12.6581 11.7916 11.1028C11.9616 11.0622 12.1145 10.958 12.2016 10.7917C13.739 7.85066 16.0588 8.1813 16.6688 9.8235C16.7789 10.1215 17.0973 10.2902 17.4066 10.2129C17.7164 10.1361 17.9188 9.83934 17.876 9.52371C17.8582 9.3921 17.8106 9.04296 18.4242 8.8041C19.6643 8.32213 22.2638 8.8888 23.6775 10.9057C23.7991 11.0793 23.9935 11.1725 24.1909 11.1725C24.3144 11.1725 24.4397 11.136 24.5485 11.0598C24.8321 10.863 24.9011 10.4736 24.7031 10.1915C23.0015 7.76216 19.8489 6.91277 17.9695 7.64152C17.6101 7.78166 17.3155 7.97664 17.0936 8.21367C16.1872 7.31111 14.7939 7.0443 13.4783 7.6828C16.314 3.60483 21.1391 1.24789 25.1756 1.24789C26.2727 1.24789 27.283 1.42155 28.1778 1.76399C30.1233 2.50858 34.1474 5.9476 34.2177 8.17772C34.2244 8.40621 34.3565 8.61217 34.5606 8.71514C34.7635 8.81812 35.0092 8.80167 35.1981 8.67188C39.1107 5.98659 44.5758 8.64675 44.7451 13.4654C44.7524 13.6787 44.8685 13.8731 45.0531 13.9815C45.2383 14.0912 45.4651 14.0973 45.6552 13.9992C49.2924 12.1456 54.2024 13.0472 56.8469 16.1586C57.6199 17.0683 58.1696 18.1641 58.4955 19.3466C56.7611 17.9296 54.4721 17.4933 52.9768 18.0737C52.6174 18.2139 52.3222 18.4089 52.1009 18.6465C51.5869 18.1341 50.9085 17.8184 50.1597 17.7715C48.5987 17.6557 47.1068 18.7202 46.0983 20.6469C45.9388 20.9528 46.0573 21.3293 46.3635 21.489C46.6716 21.648 47.0475 21.5304 47.2082 21.2245C47.9777 19.7536 49.0211 18.9542 50.0809 19.0163C50.7978 19.062 51.409 19.5367 51.6761 20.2557C51.7861 20.5543 52.1034 20.717 52.4145 20.6451C52.7237 20.5677 52.9254 20.2716 52.8833 19.9559C52.8655 19.8243 52.8179 19.4752 53.4315 19.2363C54.6716 18.7537 57.2711 19.321 58.6848 21.3379C58.722 21.391 58.7756 21.4217 58.8245 21.4594C58.9635 25.0395 57.2157 27.97 54.7132 29.2822C49.2344 32.156 42.5559 31.043 35.2916 31.4953C19.6914 32.4673 14.3418 31.6196 10.0293 31.9255C4.76077 32.2886 2.10876 29.1981 1.43704 26.3185C0.807506 23.618 1.70353 20.1424 5.12505 18.4661Z" fill="#0CB4C4"></path><path d="M22.0354 22.0397C22.3441 22.2005 22.72 22.0805 22.8801 21.7752C23.649 20.3043 24.6966 19.5043 25.7527 19.5671C26.4697 19.6128 27.0809 20.0874 27.348 20.8064C27.458 21.1044 27.7746 21.2689 28.0863 21.1958C28.3956 21.1184 28.5979 20.8223 28.5551 20.5066C28.5374 20.3744 28.4897 20.0234 29.1058 19.784C30.3484 19.302 32.9423 19.8711 34.3567 21.8886C34.4783 22.0622 34.6726 22.1555 34.8701 22.1555C34.9935 22.1555 35.1188 22.1189 35.2276 22.0427C35.5112 21.8459 35.5803 21.4566 35.3823 21.1744C33.6794 18.7433 30.525 17.8926 28.6511 18.6214C28.2905 18.7615 27.994 18.9577 27.7722 19.1966C27.2581 18.6841 26.5803 18.3691 25.8316 18.3222C24.2718 18.2125 22.7786 19.2709 21.7701 21.1976C21.6106 21.5035 21.7292 21.88 22.0354 22.0397Z" fill="#0CB4C4"></path><path d="M4.83697 25.0674C4.93843 25.129 5.05089 25.1582 5.16152 25.1582C5.373 25.1582 5.57897 25.0516 5.69694 24.8584C6.71703 23.184 8.44735 22.6588 9.6068 22.7185C10.4099 22.7593 11.0217 23.0609 11.2436 23.5264C11.3934 23.8378 11.7644 23.9682 12.0779 23.822C12.3902 23.6739 12.5229 23.3016 12.3743 22.9902C11.9514 22.1043 10.9411 21.5364 9.67098 21.4718C8.16742 21.3938 5.93408 22.0659 4.62733 24.2101C4.44764 24.505 4.54176 24.8889 4.83697 25.0674Z" fill="#0CB4C4"></path></svg>