<svg xmlns="http://www.w3.org/2000/svg" xmlns:xlink="http://www.w3.org/1999/xlink" version="1.1" id="Layer_1" x="0px" y="0px" width="87.416px" height="60px" viewBox="0 0 87.416 60" style="enable-background:new 0 0 87.416 60;" xml:space="preserve"><g><path style="fill:#0CB4C4;" d="M4.973,60C2.231,60,0,57.769,0,55.027V4.974C0,2.231,2.231,0,4.973,0h77.47 c2.742,0,4.973,2.231,4.973,4.974v50.053c0,2.742-2.231,4.973-4.973,4.973H4.973z M2.035,55.027c0,1.62,1.318,2.937,2.938,2.937 h77.47c1.621,0,2.938-1.317,2.938-2.937V13.201H2.035V55.027z M4.973,2.036c-1.621,0-2.938,1.318-2.938,2.938v6.192h83.347V4.974 c0-1.62-1.318-2.938-2.938-2.938H4.973z"></path><path style="fill:#0CB4C4;" d="M7.743,7.699c-0.541,0-0.998-0.457-0.998-0.999s0.457-0.999,0.998-0.999 c0.551,0,0.999,0.448,0.999,0.999C8.742,7.242,8.285,7.699,7.743,7.699z"></path><circle style="fill:#0CB4C4;" cx="12.791" cy="6.7" r="0.999"></circle><circle style="fill:#0CB4C4;" cx="17.828" cy="6.7" r="0.999"></circle><path style="fill:#0CB4C4;" d="M58.26,51.159c-0.267,0-0.529-0.109-0.719-0.299L45.334,38.651l2.849,10.627 c0.069,0.262,0.032,0.539-0.104,0.776c-0.135,0.236-0.353,0.404-0.613,0.472c-0.096,0.022-0.187,0.034-0.268,0.034 c-0.46,0-0.864-0.31-0.983-0.752l-3.833-14.297c-0.022-0.098-0.034-0.178-0.034-0.256c0-0.106,0.024-0.218,0.07-0.343 c0.093-0.217,0.154-0.31,0.229-0.385c0.077-0.076,0.17-0.137,0.293-0.191l0.024-0.006l0.071-0.034 c0.124-0.046,0.235-0.069,0.341-0.069c0.078,0,0.169,0.013,0.261,0.036l14.29,3.831c0.538,0.148,0.862,0.709,0.72,1.251 c-0.122,0.442-0.525,0.754-0.98,0.754l0,0c-0.089,0-0.179-0.012-0.266-0.036l-10.628-2.85L58.98,49.421 c0.193,0.19,0.299,0.442,0.3,0.712c0.001,0.273-0.105,0.531-0.3,0.726C58.791,51.05,58.528,51.159,58.26,51.159z"></path><path style="fill:#0CB4C4;" d="M43.367,26.958c-0.562,0-1.018-0.457-1.018-1.018v-4.914c0-0.561,0.457-1.018,1.018-1.018 c0.561,0,1.018,0.457,1.018,1.018v4.914C44.384,26.5,43.928,26.958,43.367,26.958z"></path><path style="fill:#0CB4C4;" d="M29.146,36.264c-0.561,0-1.017-0.456-1.017-1.018c0-0.561,0.456-1.018,1.017-1.018h4.915 c0.561,0,1.018,0.457,1.018,1.018c0,0.562-0.457,1.018-1.018,1.018H29.146z"></path><path style="fill:#0CB4C4;" d="M33.32,46.311c-0.267,0-0.529-0.109-0.719-0.299c-0.194-0.191-0.3-0.442-0.301-0.711 c-0.001-0.273,0.105-0.532,0.301-0.727l3.472-3.473c0.189-0.189,0.444-0.294,0.715-0.294c0.273,0,0.531,0.105,0.725,0.296 c0.191,0.188,0.297,0.44,0.298,0.708c0.001,0.274-0.105,0.532-0.301,0.727l-3.472,3.472C33.85,46.202,33.587,46.311,33.32,46.311z"></path><path style="fill:#0CB4C4;" d="M49.95,29.69c-0.271,0-0.526-0.106-0.719-0.299c-0.194-0.19-0.3-0.442-0.301-0.71 c-0.001-0.274,0.105-0.532,0.301-0.727l3.472-3.473c0.192-0.195,0.445-0.301,0.715-0.301c0.272,0,0.529,0.107,0.722,0.301 c0.194,0.191,0.3,0.442,0.302,0.711c0.001,0.273-0.106,0.531-0.301,0.727l-3.472,3.472C50.479,29.581,50.217,29.69,49.95,29.69z"></path><path style="fill:#0CB4C4;" d="M36.792,29.69c-0.267,0-0.529-0.109-0.719-0.299l-3.472-3.472c-0.194-0.191-0.3-0.442-0.301-0.711 c-0.001-0.273,0.105-0.531,0.301-0.727c0.192-0.195,0.445-0.301,0.715-0.301c0.272,0,0.528,0.107,0.723,0.301l3.472,3.472 c0.193,0.19,0.299,0.442,0.3,0.711c0.001,0.273-0.105,0.531-0.301,0.727C37.322,29.581,37.059,29.69,36.792,29.69z"></path></g></svg>