<svg width="61" height="60" viewBox="0 0 61 60" fill="none" xmlns="http://www.w3.org/2000/svg"><path d="M59.0898 25H56.6298C55.9339 21.3382 54.4905 17.8591 52.3898 14.78L54.0898 13C54.2761 12.8126 54.3806 12.5592 54.3806 12.295C54.3806 12.0308 54.2761 11.7774 54.0898 11.59L48.4698 6C48.2836 5.81526 48.0322 5.7111 47.7698 5.71C47.5145 5.71626 47.2711 5.82002 47.0898 6L45.3098 7.7C42.2308 5.59936 38.7517 4.15599 35.0898 3.46V1C35.0898 0.734784 34.9845 0.48043 34.797 0.292893C34.6094 0.105357 34.3551 0 34.0898 0H26.0898C25.8246 0 25.5703 0.105357 25.3827 0.292893C25.1952 0.48043 25.0898 0.734784 25.0898 1V3.46C21.428 4.15599 17.9489 5.59936 14.8698 7.7L13.0898 6C12.9025 5.81375 12.649 5.70921 12.3848 5.70921C12.1207 5.70921 11.8672 5.81375 11.6798 6L6.08984 11.62C5.91255 11.806 5.81365 12.0531 5.81365 12.31C5.81365 12.5669 5.91255 12.814 6.08984 13L7.78984 14.78C5.6892 17.8591 4.24584 21.3382 3.54984 25H1.08984C0.824627 25 0.570273 25.1054 0.382737 25.2929C0.195201 25.4804 0.0898438 25.7348 0.0898438 26V34C0.0898438 34.2652 0.195201 34.5196 0.382737 34.7071C0.570273 34.8946 0.824627 35 1.08984 35H3.54984C4.24584 38.6618 5.6892 42.1409 7.78984 45.22L6.08984 47C5.90359 47.1874 5.79905 47.4408 5.79905 47.705C5.79905 47.9692 5.90359 48.2226 6.08984 48.41L11.7098 54C11.8961 54.1847 12.1475 54.2889 12.4098 54.29C12.6652 54.2837 12.9085 54.18 13.0898 54L14.8398 52.26C17.9246 54.3786 21.4145 55.8358 25.0898 56.54V59C25.0898 59.2652 25.1952 59.5196 25.3827 59.7071C25.5703 59.8946 25.8246 60 26.0898 60H34.0898C34.3551 60 34.6094 59.8946 34.797 59.7071C34.9845 59.5196 35.0898 59.2652 35.0898 59V56.54C38.7517 55.844 42.2308 54.4006 45.3098 52.3L47.0898 54C47.2772 54.1863 47.5307 54.2908 47.7948 54.2908C48.059 54.2908 48.3125 54.1863 48.4998 54L54.0898 48.38C54.2671 48.194 54.366 47.9469 54.366 47.69C54.366 47.4331 54.2671 47.186 54.0898 47L52.3898 45.22C54.4905 42.1409 55.9339 38.6618 56.6298 35H59.0898C59.3551 35 59.6094 34.8946 59.797 34.7071C59.9845 34.5196 60.0898 34.2652 60.0898 34V26C60.0898 25.7348 59.9845 25.4804 59.797 25.2929C59.6094 25.1054 59.3551 25 59.0898 25ZM58.0898 33H55.7798C55.5387 32.9973 55.3047 33.0818 55.1209 33.238C54.9371 33.3942 54.816 33.6115 54.7798 33.85C54.1607 37.7878 52.6112 41.5212 50.2598 44.74C50.1183 44.9328 50.0505 45.17 50.0688 45.4085C50.0872 45.6471 50.1904 45.8711 50.3598 46.04L51.9898 47.68L47.7498 51.92L46.0898 50.29C45.9209 50.1206 45.6969 50.0173 45.4584 49.999C45.2199 49.9807 44.9827 50.0484 44.7898 50.19C41.571 52.5413 37.8377 54.0909 33.8998 54.71C33.6614 54.7462 33.444 54.8673 33.2878 55.051C33.1316 55.2348 33.0471 55.4688 33.0498 55.71V58H27.0898V55.69C27.0926 55.4488 27.008 55.2148 26.8518 55.031C26.6956 54.8473 26.4783 54.7262 26.2398 54.69C22.302 54.0709 18.5687 52.5213 15.3498 50.17C15.157 50.0284 14.9198 49.9607 14.6813 49.979C14.4428 49.9973 14.2187 50.1006 14.0498 50.27L12.4098 51.9L8.16984 47.66L9.79984 46C9.96925 45.8311 10.0725 45.6071 10.0908 45.3685C10.1092 45.13 10.0414 44.8928 9.89984 44.7C7.55433 41.4928 6.00505 37.7739 5.37984 33.85C5.34368 33.6115 5.22256 33.3942 5.0388 33.238C4.85503 33.0818 4.62101 32.9973 4.37984 33H2.08984V27H4.39984C4.64101 27.0027 4.87503 26.9182 5.0588 26.762C5.24256 26.6058 5.36368 26.3885 5.39984 26.15C6.01895 22.2122 7.56851 18.4788 9.91984 15.26C10.0614 15.0672 10.1292 14.83 10.1108 14.5915C10.0925 14.3529 9.98925 14.1289 9.81984 13.96L8.18984 12.32L12.4298 8.08L14.0898 9.71C14.2587 9.87941 14.4828 9.98265 14.7213 10.001C14.9598 10.0193 15.197 9.95158 15.3898 9.81C18.597 7.46449 22.316 5.91521 26.2398 5.29C26.4783 5.25384 26.6956 5.13272 26.8518 4.94895C27.008 4.76519 27.0926 4.53116 27.0898 4.29V2H33.0898V4.31C33.0871 4.55116 33.1716 4.78519 33.3278 4.96895C33.484 5.15272 33.7014 5.27384 33.9398 5.31C37.8777 5.92911 41.611 7.47866 44.8298 9.83C45.0227 9.97158 45.2599 10.0393 45.4984 10.021C45.7369 10.0027 45.9609 9.89941 46.1298 9.73L47.7698 8.1L52.0098 12.34L50.3798 14C50.2104 14.1689 50.1072 14.3929 50.0888 14.6315C50.0705 14.87 50.1383 15.1072 50.2798 15.3C52.6312 18.5188 54.1807 22.2522 54.7998 26.19C54.836 26.4285 54.9571 26.6458 55.1409 26.802C55.3247 26.9582 55.5587 27.0427 55.7998 27.04H58.0898V33Z" fill="#0CB4C4"></path><path d="M30.0899 9C25.9364 9 21.8763 10.2316 18.4229 12.5391C14.9694 14.8466 12.2778 18.1264 10.6884 21.9636C9.09894 25.8009 8.68307 30.0233 9.49336 34.0969C10.3037 38.1705 12.3037 41.9123 15.2406 44.8492C18.1775 47.7861 21.9194 49.7862 25.993 50.5965C30.0666 51.4068 34.289 50.9909 38.1262 49.4015C41.9635 47.812 45.2432 45.1204 47.5507 41.667C49.8582 38.2135 51.0899 34.1534 51.0899 30C51.0899 24.4305 48.8774 19.089 44.9391 15.1508C41.0008 11.2125 35.6594 9 30.0899 9ZM30.0899 19C29.6943 19 29.3076 18.8827 28.9787 18.6629C28.6498 18.4432 28.3935 18.1308 28.2421 17.7654C28.0907 17.3999 28.0511 16.9978 28.1283 16.6098C28.2055 16.2219 28.3959 15.8655 28.6756 15.5858C28.9553 15.3061 29.3117 15.1156 29.6997 15.0384C30.0876 14.9613 30.4898 15.0009 30.8552 15.1522C31.2207 15.3036 31.533 15.56 31.7528 15.8889C31.9726 16.2178 32.0899 16.6044 32.0899 17C32.0899 17.5304 31.8791 18.0391 31.5041 18.4142C31.129 18.7893 30.6203 19 30.0899 19ZM35.0899 48.31V34.65L39.9799 32.48C40.5742 33.2147 41.4095 33.7153 42.3377 33.8929C43.2659 34.0706 44.227 33.9139 45.0507 33.4506C45.8743 32.9873 46.5074 32.2474 46.8376 31.3619C47.1678 30.4764 47.1738 29.5026 46.8546 28.6132C46.5354 27.7237 45.9116 26.9759 45.0937 26.5025C44.2758 26.029 43.3167 25.8604 42.3864 26.0266C41.4561 26.1927 40.6146 26.6829 40.0112 27.4102C39.4078 28.1375 39.0814 29.055 39.0899 30C39.0934 30.2217 39.1168 30.4425 39.1599 30.66L33.6799 33.09C33.5044 33.1689 33.3554 33.2967 33.2508 33.4581C33.1461 33.6195 33.0903 33.8076 33.0899 34V48.74C32.4299 48.84 31.7699 48.91 31.0899 48.95V20.86C32.0325 20.6166 32.854 20.0378 33.4005 19.232C33.9469 18.4262 34.1806 17.4488 34.058 16.483C33.9353 15.5172 33.4646 14.6293 32.7341 13.9857C32.0036 13.3421 31.0634 12.987 30.0899 12.987C29.1163 12.987 28.1761 13.3421 27.4456 13.9857C26.7151 14.6293 26.2444 15.5172 26.1217 16.483C25.9991 17.4488 26.2328 18.4262 26.7793 19.232C27.3257 20.0378 28.1472 20.6166 29.0899 20.86V49C28.4099 49 27.7499 48.89 27.0899 48.79V34C27.0895 33.8076 27.0336 33.6195 26.9289 33.4581C26.8243 33.2967 26.6753 33.1689 26.4999 33.09L21.0199 30.66C21.0629 30.4425 21.0863 30.2217 21.0899 30C21.1034 29.0391 20.7756 28.1045 20.1649 27.3626C19.5541 26.6206 18.7 26.1193 17.7544 25.9479C16.8088 25.7765 15.8331 25.9461 15.0007 26.4265C14.1684 26.9069 13.5335 27.6669 13.2089 28.5714C12.8843 29.476 12.891 30.4663 13.228 31.3663C13.5649 32.2663 14.2102 33.0176 15.049 33.4866C15.8878 33.9555 16.8658 34.1118 17.8089 33.9275C18.7521 33.7431 19.5993 33.2302 20.1999 32.48L25.0899 34.65V48.31C20.6499 47.0989 16.8004 44.3174 14.2564 40.4822C11.7125 36.647 10.6471 32.0188 11.258 27.4574C11.869 22.8959 14.1148 18.7112 17.5783 15.6807C21.0419 12.6501 25.4876 10.9797 30.0899 10.9797C34.6921 10.9797 39.1378 12.6501 42.6014 15.6807C46.0649 18.7112 48.3107 22.8959 48.9217 27.4574C49.5326 32.0188 48.4672 36.647 45.9233 40.4822C43.3793 44.3174 39.5298 47.0989 35.0899 48.31ZM41.0899 30C41.0899 29.6044 41.2071 29.2178 41.4269 28.8889C41.6467 28.56 41.959 28.3036 42.3245 28.1522C42.6899 28.0009 43.0921 27.9613 43.48 28.0384C43.868 28.1156 44.2244 28.3061 44.5041 28.5858C44.7838 28.8655 44.9743 29.2219 45.0514 29.6098C45.1286 29.9978 45.089 30.3999 44.9376 30.7654C44.7862 31.1308 44.5299 31.4432 44.201 31.6629C43.8721 31.8827 43.4854 32 43.0899 32C42.5594 32 42.0507 31.7893 41.6756 31.4142C41.3006 31.0391 41.0899 30.5304 41.0899 30ZM19.0899 30C19.0899 30.3956 18.9726 30.7822 18.7528 31.1111C18.533 31.44 18.2207 31.6964 17.8552 31.8478C17.4898 31.9991 17.0876 32.0387 16.6997 31.9616C16.3117 31.8844 15.9553 31.6939 15.6756 31.4142C15.3959 31.1345 15.2055 30.7781 15.1283 30.3902C15.0511 30.0022 15.0907 29.6001 15.2421 29.2346C15.3935 28.8692 15.6498 28.5568 15.9787 28.3371C16.3076 28.1173 16.6943 28 17.0899 28C17.6203 28 18.129 28.2107 18.5041 28.5858C18.8791 28.9609 19.0899 29.4696 19.0899 30Z" fill="#0CB4C4"></path></svg>