<svg id="Layer_1" data-name="Layer 1" xmlns="http://www.w3.org/2000/svg" width="37.27" height="59.5" viewBox="0 0 37.27 59.5"><defs><style> .cls-1 { fill: #0cb4c4; } </style></defs><g id="gym-mobile-app"><path class="cls-1" d="M22.05,2.64H15.22V4h6.83Zm3.53,21.48h0A2,2,0,0,0,24.85,23a2.09,2.09,0,0,0-1.25-.44h-.19a1.32,1.32,0,0,0-1.32,1.32V28h-6.9v-4.1a1.33,1.33,0,0,0-1.33-1.33h-.19a2.12,2.12,0,0,0-1.25.45,2.07,2.07,0,0,0-.73,1.1H11.5a2.13,2.13,0,0,0-1.51.62,2.07,2.07,0,0,0-.61,1.5v7.12a2.12,2.12,0,0,0,2.1,2.09h.19a2.11,2.11,0,0,0,.73,1.1,2,2,0,0,0,1.25.44h.19a1.37,1.37,0,0,0,.94-.38,1.33,1.33,0,0,0,.39-.94v-4h6.92v4.06a1.37,1.37,0,0,0,.38.94,1.33,1.33,0,0,0,.94.39h.19a2.1,2.1,0,0,0,1.25-.45,2,2,0,0,0,.73-1.1h.2a2.12,2.12,0,0,0,1.5-.62,2.07,2.07,0,0,0,.61-1.5V26.19A2.1,2.1,0,0,0,25.8,24.1ZM11.61,34H11.5a.71.71,0,0,1-.52-.2.76.76,0,0,1-.21-.52V26.19a.72.72,0,0,1,.73-.72h.11Zm2.21,1.55H13.7a.72.72,0,0,1-.72-.73V24.65a.72.72,0,0,1,.72-.72h.12Zm8.27-5.35h-6.9v-1h6.9Zm2.21,4.63h0a.73.73,0,0,1-.73.73h-.11V23.93h.11a.73.73,0,0,1,.73.72Zm2.2-8.67v7.12a.71.71,0,0,1-.21.51.75.75,0,0,1-.51.21h-.12V25.47h.12a.75.75,0,0,1,.51.21A.71.71,0,0,1,26.5,26.19ZM34.19,0H3.08A3.07,3.07,0,0,0,0,3.08V56.42A3.07,3.07,0,0,0,3.08,59.5H34.19a3.07,3.07,0,0,0,3.08-3.08V3.08A3.07,3.07,0,0,0,34.19,0Zm1.72,56.42a1.73,1.73,0,0,1-.51,1.21,1.7,1.7,0,0,1-1.21.5H3.08a1.71,1.71,0,0,1-1.71-1.71V3.08A1.71,1.71,0,0,1,3.08,1.37H34.19a1.7,1.7,0,0,1,1.21.5,1.73,1.73,0,0,1,.51,1.21ZM33,5.13H4.28a1.7,1.7,0,0,0-1.21.5,1.75,1.75,0,0,0-.51,1.21V52.67a1.75,1.75,0,0,0,.51,1.2,1.7,1.7,0,0,0,1.21.5H33a1.7,1.7,0,0,0,1.2-.5,1.66,1.66,0,0,0,.51-1.2V6.84a1.67,1.67,0,0,0-.51-1.21,1.7,1.7,0,0,0-1.2-.5Zm.34,47.53h0a.39.39,0,0,1-.1.25A.36.36,0,0,1,33,53H4.28A.38.38,0,0,1,4,52.91a.39.39,0,0,1-.1-.25V6.83A.37.37,0,0,1,4,6.59a.38.38,0,0,1,.25-.09H33a.36.36,0,0,1,.24.09.37.37,0,0,1,.1.24ZM18.64,17.1a12.67,12.67,0,1,0,8.94,3.71,12.65,12.65,0,0,0-8.94-3.71Zm0,23.94a11.3,11.3,0,1,1,8-3.31,11.25,11.25,0,0,1-8,3.31Z"></path></g></svg>