<svg xmlns="http://www.w3.org/2000/svg" width="60" height="60" viewBox="0 0 60 60" fill="none"><path d="M0 7.51097V0.987811C0 0.442527 0.442528 0 0.987812 0H7.51472C8.06 0 8.50253 0.442527 8.50253 0.987811C8.50253 1.5331 8.06 1.97562 7.51472 1.97562H1.97562V7.51097C1.97562 8.05625 1.5331 8.49878 0.987812 8.49878C0.442528 8.49878 0 8.05625 0 7.51097ZM59.0159 0H52.4928C51.9475 0 51.505 0.442527 51.505 0.987811C51.505 1.5331 51.9475 1.97562 52.4928 1.97562H58.0289V7.51097C58.0289 8.05625 58.4714 8.49878 59.0167 8.49878C59.562 8.49878 60.0045 8.05625 60.0045 7.51097V0.987811C60.0045 0.442527 59.5612 0 59.0159 0ZM59.0159 51.5012C58.4707 51.5012 58.0281 51.9437 58.0281 52.489V58.0244H52.492C51.9467 58.0244 51.5042 58.4669 51.5042 59.0122C51.5042 59.5575 51.9467 60 52.492 60H59.0152C59.5605 60 60.003 59.5575 60.003 59.0122V52.489C60.003 51.9437 59.5612 51.5012 59.0159 51.5012ZM7.51472 58.0244H1.97562V52.489C1.97562 51.9437 1.5331 51.5012 0.987812 51.5012C0.442528 51.5012 0 51.9437 0 52.489V59.0122C0 59.5575 0.442528 60 0.987812 60H7.51472C8.06 60 8.50253 59.5575 8.50253 59.0122C8.50253 58.4669 8.06 58.0244 7.51472 58.0244ZM16.6023 5.6171C16.6023 4.075 17.8571 2.82018 19.3992 2.82018C20.9413 2.82018 22.1961 4.075 22.1961 5.6171C22.1961 6.81193 21.4431 7.83349 20.387 8.23326V9.14157L23.5447 12.2993C23.73 12.4845 23.8342 12.7358 23.8342 12.9976V14.8877C23.8342 15.433 23.3917 15.8755 22.8464 15.8755C22.3011 15.8755 21.8586 15.433 21.8586 14.8877V13.4071L18.7009 10.2494C18.5157 10.0641 18.4114 9.81286 18.4114 9.5511V8.23401C17.3553 7.83424 16.6023 6.81193 16.6023 5.6171ZM18.5779 5.6171C18.5779 6.07013 18.9462 6.4384 19.3992 6.4384C19.8522 6.4384 20.2213 6.07013 20.2213 5.6171C20.2213 5.16407 19.853 4.7958 19.3992 4.7958C18.9454 4.7958 18.5779 5.16407 18.5779 5.6171ZM9.09207 11.3137H13.3381C13.5999 11.3137 13.8511 11.418 14.0364 11.6032L18.2921 15.859C18.6777 16.2445 18.6777 16.8701 18.2921 17.2556C18.0994 17.4483 17.8466 17.5451 17.5938 17.5451C17.3411 17.5451 17.0883 17.4483 16.8956 17.2556L12.9293 13.2893H9.09207C8.69229 14.3454 7.67073 15.0984 6.47591 15.0984C4.93381 15.0984 3.67898 13.8436 3.67898 12.3015C3.67898 10.7594 4.93381 9.50084 6.47591 9.50084C7.67073 9.50084 8.69229 10.2554 9.09207 11.3137ZM7.29646 12.3015C7.29646 11.8462 6.92818 11.4765 6.47515 11.4765C6.02213 11.4765 5.6531 11.847 5.6531 12.3015C5.6531 12.756 6.02138 13.1228 6.47515 13.1228C6.92893 13.1228 7.29646 12.7545 7.29646 12.3015ZM36.1688 14.8877V12.9976C36.1688 12.7358 36.273 12.4845 36.4583 12.2993L39.616 9.14157V8.23326C38.5599 7.83349 37.8069 6.81193 37.8069 5.6171C37.8069 4.075 39.0617 2.82018 40.6038 2.82018C42.1459 2.82018 43.4007 4.075 43.4007 5.6171C43.4007 6.81193 42.6477 7.83349 41.5916 8.23326V9.55035C41.5916 9.81211 41.4873 10.0634 41.3021 10.2486L38.1444 13.4063V14.8869C38.1444 15.4322 37.7019 15.8747 37.1566 15.8747C36.6113 15.8747 36.1688 15.433 36.1688 14.8877ZM39.7825 5.6171C39.7825 6.07013 40.1508 6.4384 40.6038 6.4384C41.0568 6.4384 41.4258 6.07013 41.4258 5.6171C41.4258 5.16407 41.0576 4.7958 40.6038 4.7958C40.15 4.7958 39.7825 5.16407 39.7825 5.6171ZM41.7116 15.859L45.9674 11.6032C46.1526 11.418 46.4039 11.3137 46.6657 11.3137H50.9154C51.3152 10.2554 52.3375 9.50084 53.5323 9.50084C55.0744 9.50084 56.3293 10.7572 56.3293 12.3015C56.3293 13.8459 55.0744 15.0984 53.5323 15.0984C52.3375 15.0984 51.316 14.3454 50.9162 13.2893H47.0752L43.1089 17.2556C42.9162 17.4483 42.6634 17.5451 42.4106 17.5451C42.1579 17.5451 41.9051 17.4483 41.7124 17.2556C41.3268 16.8701 41.3261 16.2445 41.7116 15.859ZM52.7103 12.3015C52.7103 12.7545 53.0786 13.1228 53.5323 13.1228C53.9861 13.1228 54.3536 12.7545 54.3536 12.3015C54.3536 11.8485 53.9854 11.4765 53.5323 11.4765C53.0793 11.4765 52.7103 11.847 52.7103 12.3015ZM23.8342 45.1108V47.0009C23.8342 47.2627 23.73 47.514 23.5447 47.6992L20.387 50.8569V51.7652C21.4431 52.165 22.1961 53.1873 22.1961 54.3814C22.1961 55.9235 20.9413 57.1783 19.3992 57.1783C17.8571 57.1783 16.6023 55.9235 16.6023 54.3814C16.6023 53.1866 17.3553 52.165 18.4114 51.7652V50.4482C18.4114 50.1864 18.5157 49.9351 18.7009 49.7499L21.8586 46.5922V45.1116C21.8586 44.5663 22.3011 44.1238 22.8464 44.1238C23.3917 44.1238 23.8342 44.5655 23.8342 45.1108ZM20.2213 54.3814C20.2213 53.9284 19.853 53.5601 19.3992 53.5601C18.9454 53.5601 18.5779 53.9284 18.5779 54.3814C18.5779 54.8344 18.9462 55.2027 19.3992 55.2027C19.8522 55.2027 20.2213 54.8344 20.2213 54.3814ZM18.2921 44.1395L14.0364 48.3953C13.8511 48.5805 13.5999 48.6848 13.3381 48.6848H9.09132C8.69154 49.7409 7.66998 50.4939 6.47515 50.4939C4.93306 50.4939 3.67823 49.2391 3.67823 47.697C3.67823 46.1549 4.93306 44.9001 6.47515 44.9001C7.66998 44.9001 8.69154 45.6531 9.09132 46.7092H12.9286L16.8948 42.7429C17.2803 42.3574 17.9059 42.3574 18.2914 42.7429C18.6769 43.1284 18.6777 43.754 18.2921 44.1395ZM7.29646 47.697C7.29646 47.244 6.92818 46.8757 6.47515 46.8757C6.02213 46.8757 5.6531 47.244 5.6531 47.697C5.6531 48.15 6.02138 48.5183 6.47515 48.5183C6.92893 48.5183 7.29646 48.15 7.29646 47.697ZM32.8003 54.3814C32.8003 55.9235 31.5455 57.1783 30.0034 57.1783C28.4613 57.1783 27.2064 55.9235 27.2064 54.3814C27.2064 53.1866 27.9595 52.165 29.0156 51.7652V43.5057C24.0173 43.37 19.2245 42.1999 14.7557 40.0232C10.2134 37.8106 6.15113 34.5689 3.00919 30.6484C2.71967 30.2876 2.71967 29.7739 3.00919 29.4131C6.15113 25.4926 10.2134 22.2501 14.7557 20.0383C19.2245 17.8616 24.0173 16.6923 29.0156 16.5558V8.23326C27.9595 7.83349 27.2064 6.81193 27.2064 5.6171C27.2064 4.075 28.4613 2.82018 30.0034 2.82018C31.5455 2.82018 32.8003 4.075 32.8003 5.6171C32.8003 6.81193 32.0473 7.83349 30.9912 8.23326V16.5558C35.9895 16.6915 40.7815 17.8616 45.2496 20.0383C49.7911 22.2501 53.8534 25.4918 56.9968 29.4131C57.2863 29.7746 57.2863 30.2884 56.9968 30.6499C56.4605 31.3175 55.8905 31.9715 55.2972 32.6045C56.4793 33.7611 57.2151 35.3722 57.2151 37.1528C57.2151 40.6638 54.3589 43.5192 50.8487 43.5192C48.3833 43.5192 46.2419 42.1091 45.1843 40.054C40.7868 42.1811 35.9205 43.3647 30.9919 43.5042V51.7645C32.048 52.1643 32.801 53.1866 32.801 54.3806L32.8003 54.3814ZM29.6974 41.5398C29.7994 41.5406 29.9006 41.5436 30.0034 41.5436C36.3518 41.5436 41.5166 36.3788 41.5166 30.0304C41.5166 23.784 36.5168 18.6837 30.3094 18.5217C30.2074 18.5209 30.1061 18.5179 30.0034 18.5179C29.9006 18.5179 29.7994 18.5209 29.6974 18.5217C23.49 18.6844 18.4902 23.7847 18.4902 30.0304C18.4902 36.276 23.49 41.3778 29.6974 41.5398ZM55.2387 37.1528C55.2387 34.7317 53.2691 32.7613 50.8472 32.7613C48.4253 32.7613 46.4556 34.7309 46.4556 37.1528C46.4556 39.5747 48.4253 41.5443 50.8472 41.5443C53.2691 41.5443 55.2387 39.5747 55.2387 37.1528ZM38.6019 19.646C41.5871 22.1219 43.4915 25.8579 43.4915 30.0304C43.4915 34.2029 41.5946 37.9231 38.6199 40.3998C40.6705 39.8462 42.6634 39.0962 44.5603 38.1586C44.5078 37.8309 44.48 37.4948 44.48 37.1521C44.48 33.6411 47.3362 30.7857 50.8464 30.7857C51.8605 30.7857 52.8198 31.0249 53.6711 31.4487C54.1106 30.9867 54.5367 30.5127 54.9462 30.0296C50.6439 24.9256 44.9488 21.3478 38.6019 19.646ZM29.1813 5.6171C29.1813 6.07013 29.5496 6.4384 30.0026 6.4384C30.4557 6.4384 30.8247 6.07013 30.8247 5.6171C30.8247 5.16407 30.4564 4.7958 30.0026 4.7958C29.5488 4.7958 29.1813 5.16407 29.1813 5.6171ZM21.4048 40.4163C18.4189 37.9404 16.5138 34.2036 16.5138 30.0311C16.5138 25.8586 18.4189 22.1219 21.4048 19.646C15.0557 21.3478 9.35833 24.9256 5.05757 30.0311C9.35833 35.1367 15.0549 38.7144 21.4048 40.4163ZM30.8239 54.3814C30.8239 53.9284 30.4557 53.5601 30.0019 53.5601C29.5481 53.5601 29.1806 53.9284 29.1806 54.3814C29.1806 54.8344 29.5488 55.2027 30.0019 55.2027C30.4474 55.2027 30.8239 54.8262 30.8239 54.3814ZM43.4 54.3814C43.4 55.9235 42.1451 57.1783 40.603 57.1783C39.0609 57.1783 37.8061 55.9235 37.8061 54.3814C37.8061 53.1866 38.5592 52.165 39.6152 51.7652V50.8569L36.4575 47.6992C36.2723 47.514 36.168 47.2627 36.168 47.0009V45.1108C36.168 44.5655 36.6105 44.123 37.1558 44.123C37.7011 44.123 38.1436 44.5655 38.1436 45.1108V46.5914L41.3013 49.7491C41.4866 49.9344 41.5908 50.1856 41.5908 50.4474V51.7645C42.6469 52.1643 43.4 53.1866 43.4 54.3806V54.3814ZM41.4243 54.3814C41.4243 53.9284 41.0561 53.5601 40.6023 53.5601C40.1485 53.5601 39.781 53.9284 39.781 54.3814C39.781 54.8344 40.1493 55.2027 40.6023 55.2027C41.0553 55.2027 41.4243 54.8344 41.4243 54.3814ZM50.9139 48.6848H46.6642C46.4024 48.6848 46.1511 48.5805 45.9659 48.3953L41.7101 44.1395C41.3246 43.754 41.3246 43.1284 41.7101 42.7429C42.0956 42.3574 42.7212 42.3574 43.1067 42.7429L47.0729 46.7092H50.9139C51.3137 45.6531 52.336 44.9001 53.5301 44.9001C55.0722 44.9001 56.327 46.1549 56.327 47.697C56.327 49.2391 55.0722 50.4939 53.5301 50.4939C52.3353 50.4939 51.3137 49.7409 50.9139 48.6848ZM52.7088 47.697C52.7088 48.15 53.0771 48.5183 53.5308 48.5183C53.9846 48.5183 54.3521 48.15 54.3521 47.697C54.3521 47.244 53.9839 46.8757 53.5308 46.8757C53.0778 46.8757 52.7088 47.244 52.7088 47.697ZM29.9989 29.0426C29.4536 29.0426 29.0111 29.4851 29.0111 30.0304C29.0111 33.8541 26.9184 36.9706 26.0191 38.1331C25.6854 38.5644 25.7641 39.1847 26.1961 39.5185C26.3761 39.658 26.5892 39.7255 26.7999 39.7255C27.0954 39.7255 27.3872 39.5935 27.5815 39.3422C28.8528 37.6989 30.9867 34.3041 30.9867 30.0304C30.9867 29.4851 30.5442 29.0426 29.9989 29.0426ZM22.1189 25.0396C22.5457 25.3793 23.1674 25.3088 23.5065 24.8813C25.0928 22.8877 27.46 21.7439 30.0026 21.7439C34.5719 21.7439 38.2891 25.4611 38.2891 30.0304C38.2891 30.3791 38.2674 30.7227 38.2231 31.0812C38.1564 31.6227 38.5404 32.1155 39.0819 32.183C39.1232 32.1883 39.1637 32.1905 39.2042 32.1905C39.6955 32.1905 40.1215 31.8245 40.183 31.3242C40.2378 30.8847 40.264 30.4609 40.264 30.0304C40.264 24.372 35.6602 19.7682 30.0019 19.7682C26.8539 19.7682 23.9227 21.1836 21.9599 23.6512C21.6201 24.078 21.6914 24.6998 22.1181 25.0388L22.1189 25.0396ZM21.7124 30.0304C21.7124 28.9226 21.9276 27.8462 22.3529 26.8322C22.5637 26.3289 22.3266 25.7506 21.8241 25.5391C21.3208 25.3283 20.7425 25.5653 20.531 26.0686C20.0038 27.3265 19.7367 28.6593 19.7367 30.0304C19.7367 30.5757 20.1793 31.0182 20.7245 31.0182C21.2698 31.0182 21.7124 30.5757 21.7124 30.0304ZM30.0026 22.8659C29.3786 22.8659 28.7635 22.9454 28.174 23.1022C27.6467 23.2425 27.3332 23.7832 27.4735 24.3105C27.6137 24.8378 28.1538 25.1513 28.6818 25.0111C29.1056 24.8986 29.5503 24.8416 30.0026 24.8416C32.8641 24.8416 35.1922 27.1697 35.1922 30.0311C35.1922 30.9979 35.1082 31.9835 34.9432 32.9601C34.8524 33.4978 35.2147 34.0079 35.7525 34.0986C35.808 34.1084 35.8635 34.1129 35.9182 34.1129C36.3915 34.1129 36.8093 33.7716 36.8911 33.2893C37.0741 32.204 37.1671 31.1082 37.1671 30.0311C37.1671 26.0806 33.9531 22.8667 30.0026 22.8667V22.8659ZM35.5935 34.7542C35.0722 34.5907 34.5187 34.8809 34.3559 35.4015C34.0971 36.2273 33.7791 37.0448 33.4101 37.8324C33.1791 38.3266 33.3913 38.9147 33.8856 39.1457C34.0214 39.2095 34.1639 39.2395 34.3041 39.2395C34.6754 39.2395 35.0309 39.0287 35.1989 38.6702C35.6055 37.8024 35.9557 36.9016 36.2408 35.9917C36.4035 35.4712 36.114 34.9169 35.5935 34.7542ZM26.7684 25.9704C27.1952 25.6306 27.2657 25.0096 26.9267 24.5828C26.5869 24.156 25.9651 24.0855 25.5391 24.4245C23.8207 25.7919 22.8352 27.835 22.8352 30.0304C22.8352 31.322 22.2651 32.7868 21.2293 34.1556C20.9001 34.5907 20.9863 35.2102 21.4213 35.5395C21.5999 35.6745 21.8091 35.7397 22.0161 35.7397C22.3154 35.7397 22.6102 35.6047 22.8044 35.3482C24.0983 33.6381 24.81 31.7502 24.81 30.0311C24.81 28.441 25.5233 26.9604 26.7684 25.9704ZM26.1436 33.8594C25.6606 33.6058 25.0636 33.7919 24.81 34.2749C24.4695 34.9229 24.0683 35.5477 23.6167 36.1298L23.2875 36.5535C22.9529 36.9841 23.0309 37.6051 23.4615 37.9396C23.6415 38.0799 23.8552 38.1474 24.0668 38.1474C24.3615 38.1474 24.6525 38.0161 24.8476 37.7656L25.1776 37.3411C25.7004 36.6668 26.1654 35.9437 26.5592 35.1929C26.8127 34.7099 26.6267 34.1129 26.1436 33.8594ZM30.9927 39.8477C33.0066 36.792 34.0709 33.3973 34.0709 30.0304C34.0709 27.7877 32.246 25.9629 30.0034 25.9629C27.7607 25.9629 25.9321 27.7877 25.9321 30.0304C25.9321 30.7002 25.8414 31.3947 25.6621 32.0953C25.5271 32.624 25.8459 33.1618 26.3739 33.2968C26.9019 33.4318 27.4405 33.1131 27.5755 32.585C27.796 31.7247 27.907 30.8652 27.907 30.0304C27.907 28.8768 28.8468 27.9385 30.0026 27.9385C31.1584 27.9385 32.0945 28.8768 32.0945 30.0304C32.0945 33.0096 31.1427 36.0293 29.3426 38.7609C29.0426 39.2162 29.1686 39.829 29.6238 40.129C29.7911 40.2393 29.9801 40.2918 30.1661 40.2918C30.4872 40.2918 30.8029 40.1358 30.9927 39.8477ZM52.4808 34.9552L50.0889 37.2496L49.2293 36.39C48.8438 36.0045 48.2183 36.0045 47.8327 36.39C47.4472 36.7755 47.4472 37.4011 47.8327 37.7866L49.3763 39.3302C49.5691 39.523 49.8219 39.6197 50.0746 39.6197C50.3206 39.6197 50.5674 39.5282 50.7587 39.3445L53.8489 36.3803C54.2426 36.003 54.2554 35.3775 53.8781 34.9837C53.5008 34.5899 52.8753 34.5772 52.4815 34.9544L52.4808 34.9552Z" fill="#0CB4C4"></path></svg>