<svg xmlns="http://www.w3.org/2000/svg" width="55" height="60" viewBox="0 0 55 60" fill="none"><path d="M52.9658 56.5975C51.4586 53.2182 49.0111 50.3515 45.9181 48.338C42.8222 46.3245 39.2156 45.2517 35.5275 45.2488H35.2496L34.7247 41.3148H34.7275C38.0507 39.4534 40.2793 36.0994 40.7143 32.3034L40.7957 31.5515C42.752 31.3966 44.3238 29.8675 44.5399 27.9103H45.9404H45.9376C47.1024 27.9075 48.0455 26.9613 48.0483 25.7926V21.3404C48.0455 20.1718 47.1024 19.2256 45.9376 19.2228H44.6128C44.5875 17.8316 43.8606 16.5503 42.6818 15.8209V15.6548C42.7267 15.421 43.6557 9.865 40.3606 5.39622C38.2443 2.52945 34.9295 0.794791 30.4614 0.237238C24.9237 -0.447065 20.8655 0.34988 18.4038 2.61682V2.61964C17.1829 3.73762 16.3885 5.24981 16.1584 6.89161C14.7719 6.82684 13.433 7.39568 12.5124 8.4376C10.4776 10.8256 11.3757 15.1201 11.5021 15.6554V15.7145C10.239 16.4241 9.4447 17.7533 9.42228 19.2064H8.03574C6.87373 19.2121 5.93067 20.1583 5.92506 21.3241V25.7791C5.93068 26.945 6.87373 27.8912 8.03574 27.8968H9.4447C9.6524 29.8568 11.227 31.3888 13.1861 31.538L13.2675 32.2899C13.6885 36.0014 15.8272 39.2963 19.0381 41.1888L18.6339 45.258H18.4908H18.4936C14.8055 45.2608 11.1962 46.3337 8.10297 48.3472C5.00712 50.3607 2.55967 53.2274 1.05242 56.6038L0.0728472 58.9102C-0.0422322 59.1523 -0.0197781 59.4396 0.131789 59.6621C0.269322 59.8705 0.502276 59.9972 0.754888 60H53.3195C53.5693 59.9972 53.8023 59.8705 53.9398 59.6621C54.0913 59.4396 54.1166 59.1524 53.9987 58.9102L52.9658 56.5975ZM20.4747 41.9991L26.658 45.3924C26.891 45.5276 27.1745 45.5276 27.4075 45.3924L33.3942 42.1117L34.4636 50.1232C32.3052 51.6213 29.7651 52.4661 27.1433 52.559C24.5218 52.6548 21.9255 51.993 19.6663 50.6554L20.4747 41.9991ZM46.6112 21.3407V25.7929C46.6112 26.1336 46.3361 26.4096 45.9993 26.4096H44.6212V20.724H45.9993C46.1621 20.724 46.3165 20.7887 46.4316 20.9042C46.5466 21.0197 46.6112 21.1773 46.6112 21.3407ZM13.643 9.40598C14.3166 8.61744 15.3495 8.29361 16.7865 8.41472C16.9942 8.43162 17.1991 8.36122 17.3535 8.2176C17.5079 8.0768 17.5949 7.87404 17.5949 7.66565C17.6314 6.14778 18.2938 4.71158 19.4193 3.70064C21.5075 1.77163 25.2657 1.08734 30.2784 1.70971C34.3117 2.21378 37.3065 3.73727 39.1616 6.2154C41.7971 9.78895 41.3536 14.3112 41.2413 15.2268H41.2441C41.014 15.1817 40.7782 15.1592 40.5425 15.1592H13.4913C13.3061 15.1592 13.1209 15.1733 12.9384 15.2043C12.7953 14.641 12.1526 11.1632 13.643 9.40598ZM7.42327 25.7923V21.3401C7.42327 20.9993 7.69833 20.7234 8.03514 20.7234H9.41328V26.409H8.03514C7.87235 26.409 7.71797 26.3442 7.6029 26.2287C7.48782 26.1133 7.42327 25.9556 7.42327 25.7923ZM10.9121 27.4819L10.9093 19.296C10.9149 17.8682 12.0685 16.7109 13.4915 16.7052H40.5426C41.9657 16.7108 43.1192 17.8682 43.1249 19.296V27.4819C43.1193 28.9097 41.9657 30.0642 40.5426 30.0642H32.0101C31.5723 30.0614 31.1541 29.8784 30.8565 29.5545L29.2623 27.7973C28.6869 27.1609 27.8729 26.7948 27.0169 26.792C26.1608 26.8005 25.3497 27.1637 24.7715 27.7973L23.1997 29.5545C22.9022 29.8784 22.484 30.0614 22.0461 30.0642H13.4913C12.0683 30.0642 10.9147 28.9096 10.9091 27.4819H10.9121ZM14.7742 32.1144L14.7152 31.5652H22.027L22.0242 31.5681C22.8802 31.5624 23.697 31.1963 24.2696 30.5599L25.6701 28.997L24.9656 32.5791V32.5819C24.7411 33.7167 25.3193 34.8629 26.3662 35.3529L28.0194 36.1048V36.102C28.1176 36.1527 28.2242 36.178 28.3337 36.178C28.6874 36.1809 28.9933 35.933 29.069 35.5895C29.1448 35.2431 28.9708 34.8911 28.648 34.7446L27.0005 33.9927H27.0033C26.5794 33.7956 26.3437 33.3338 26.4335 32.8748L27.3232 28.4817V28.3606C27.6516 28.4225 27.9491 28.5915 28.1709 28.8421L29.7511 30.5993H29.7483C30.3236 31.2358 31.1376 31.599 31.9937 31.6046H39.3054L39.2465 32.1538C38.8675 35.4992 36.8916 38.4533 33.9473 40.0751L27.0175 43.8515L20.2055 40.0977L20.0708 40.0301C17.1292 38.4109 15.1562 35.4597 14.7716 32.1145L14.7742 32.1144ZM1.87732 58.4586L2.43024 57.2111C3.81959 54.1021 6.0762 51.4578 8.92789 49.6019C11.7767 47.7461 15.1028 46.7577 18.4987 46.752L18.0805 50.9508V50.9479C18.0356 51.2464 18.1703 51.5421 18.4257 51.6998C20.9883 53.336 23.9803 54.1667 27.0171 54.0822C30.0541 53.9978 32.9983 53.0037 35.4685 51.2268L35.6481 51.1057C35.8867 50.9367 36.0073 50.6439 35.954 50.3566L35.4741 46.752H35.5274C38.9264 46.752 42.2552 47.7433 45.1068 49.5991C47.9585 51.4548 50.2151 54.0991 51.6044 57.2112L52.1574 58.4587L1.87732 58.4586ZM15.5883 19.9714C15.5883 19.5574 15.9223 19.2223 16.3377 19.2223H21.0305C21.4431 19.2223 21.7772 19.5574 21.7772 19.9714C21.7772 20.3881 21.4432 20.7233 21.0305 20.7233H16.3377C15.9223 20.7233 15.5883 20.3882 15.5883 19.9714ZM14.2943 22.5114C14.2943 22.0946 14.6283 21.7595 15.041 21.7595H22.3383C22.7537 21.7595 23.0877 22.0946 23.0877 22.5114C23.0877 22.9254 22.7537 23.2605 22.3383 23.2605H15.041C14.6284 23.2605 14.2943 22.9254 14.2943 22.5114ZM13.9351 25.6344C13.5197 25.6344 13.1856 25.2993 13.1856 24.8825C13.1856 24.4685 13.5196 24.1334 13.9351 24.1334H23.4247C23.8373 24.1334 24.1741 24.4685 24.1741 24.8825C24.1741 25.2993 23.8373 25.6344 23.4247 25.6344H13.9351Z" fill="#0CB4C4"></path></svg>