<svg width="60" height="61" viewBox="0 0 60 61" fill="none" xmlns="http://www.w3.org/2000/svg"><path d="M51.0799 44.0518C52.9989 42.7501 54.2626 40.5517 54.2626 38.063C54.2626 34.0756 51.0188 30.8318 47.0314 30.8318C43.0441 30.8318 39.8002 34.0756 39.8002 38.063C39.8002 40.5543 41.0665 42.7553 42.9893 44.0563C40.3184 45.0019 38.0164 46.8624 36.5461 49.3427C35.6603 48.726 34.6889 48.2232 33.6531 47.8576C35.5721 46.5559 36.8358 44.3576 36.8358 41.8688C36.8358 37.8815 33.5919 34.6376 29.6046 34.6376C25.6172 34.6376 22.3734 37.8815 22.3734 41.8688C22.3734 44.3569 23.6371 46.5559 25.5561 47.8576C24.5177 48.2245 23.5437 48.7286 22.6553 49.3485C21.1863 46.8675 18.8849 45.0071 16.214 44.0614C18.1356 42.7611 19.4012 40.5607 19.4012 38.0707C19.4012 34.0847 16.1587 30.8421 12.1726 30.8421C8.18651 30.8421 4.94397 34.0847 4.94397 38.0707C4.94397 40.5575 6.20635 42.7553 8.12471 44.0563C3.3964 45.7281 0 50.2427 0 55.5362C0 56.0705 0.433241 56.5038 0.96755 56.5038H17.7609C17.5427 57.4147 17.4262 58.3655 17.4262 59.342C17.4262 59.8763 17.8594 60.3096 18.3937 60.3096H40.8135C41.3478 60.3096 41.781 59.8763 41.781 59.342C41.781 58.3648 41.6645 57.4147 41.4463 56.5038H58.2403C58.7746 56.5038 59.2079 56.0705 59.2079 55.5362C59.2079 50.2401 55.8102 45.7242 51.0799 44.0518ZM41.7353 38.063C41.7353 35.143 44.1107 32.7669 47.0314 32.7669C49.9521 32.7669 52.3275 35.1423 52.3275 38.063C52.3275 40.9837 49.9553 43.3552 47.0379 43.3585C47.0359 43.3585 47.0333 43.3585 47.0314 43.3585C47.0295 43.3585 47.0276 43.3585 47.0263 43.3585C44.1088 43.3552 41.7353 40.9811 41.7353 38.063ZM24.3085 41.8695C24.3085 38.9494 26.6839 36.5734 29.6046 36.5734C32.5253 36.5734 34.9007 38.9488 34.9007 41.8695C34.9007 44.7902 32.5285 47.1617 29.611 47.1649C29.6091 47.1649 29.6065 47.1649 29.6046 47.1649C29.6026 47.1649 29.6007 47.1649 29.5988 47.1649C26.6813 47.1617 24.3091 44.7876 24.3091 41.8695H24.3085ZM6.87907 38.0707C6.87907 35.152 9.25384 32.7779 12.1719 32.7779C15.09 32.7779 17.4648 35.1526 17.4648 38.0707C17.4648 40.9888 15.0933 43.361 12.1771 43.3636C12.1752 43.3636 12.1732 43.3636 12.1713 43.3636C12.1694 43.3636 12.1674 43.3636 12.1649 43.3636C9.24934 43.3604 6.87778 40.9869 6.87778 38.0707H6.87907ZM1.98016 54.5686C2.46876 49.3775 6.85074 45.3019 12.1674 45.2994C12.1694 45.2994 12.1707 45.2994 12.1726 45.2994C12.1745 45.2994 12.1765 45.2994 12.1777 45.2994C15.907 45.3013 19.3516 47.3587 21.14 50.5961C19.9819 51.7175 19.0446 53.0655 18.4015 54.5686H1.98016ZM19.407 58.3751C19.8962 53.1814 24.2802 49.1032 29.5994 49.1007C29.6014 49.1007 29.6026 49.1007 29.6046 49.1007C29.6059 49.1007 29.6078 49.1007 29.6091 49.1007C34.9277 49.1032 39.3116 53.1814 39.8009 58.3751H19.407ZM40.8064 54.5686C40.162 53.0629 39.2228 51.7123 38.0615 50.5897C39.8517 47.3529 43.2971 45.2961 47.0263 45.2942C47.0282 45.2942 47.0301 45.2942 47.0314 45.2942C47.0327 45.2942 47.0346 45.2942 47.0359 45.2942C52.3546 45.2968 56.7391 49.3749 57.2277 54.5686H40.8064ZM18.7594 15.0002C18.8064 15.0755 18.816 15.1302 18.7974 15.2171L18.1916 18.0657C17.9534 19.1852 18.5952 20.2963 19.6838 20.6497L20.3449 20.8647L17.3271 28.3663C17.1178 28.8871 17.1829 29.4291 17.5022 29.8166C17.817 30.199 18.3294 30.3651 18.8714 30.2608L22.0966 29.6409L24.1482 32.2056C24.4411 32.5719 24.8441 32.7753 25.258 32.7753C25.3314 32.7753 25.4048 32.7688 25.4788 32.756C25.9732 32.6684 26.3749 32.2983 26.5532 31.7659L29.0304 24.3795L29.4932 24.1929C29.5756 24.1594 29.631 24.1594 29.7134 24.1929L30.1762 24.3795L32.6534 31.7659C32.8317 32.2983 33.2334 32.6678 33.7278 32.756C33.8012 32.7688 33.8752 32.7753 33.9486 32.7753C34.3625 32.7753 34.7655 32.5719 35.0584 32.2056L37.11 29.6409L40.3352 30.2608C40.8772 30.3651 41.3896 30.199 41.7044 29.8166C42.0237 29.4291 42.0887 28.8871 41.8795 28.3663L38.8616 20.8647L39.5221 20.6497C40.6107 20.2963 41.2519 19.1852 41.0143 18.0657L40.4086 15.2171C40.3899 15.1302 40.3996 15.0755 40.4465 15.0002L41.9896 12.5308C42.596 11.56 42.3733 10.297 41.4714 9.59206L39.1764 7.79923C39.1063 7.74451 39.0786 7.69623 39.0664 7.60804L38.6614 4.7247C38.5024 3.59106 37.5194 2.76578 36.3755 2.80634L33.4651 2.90805C33.3763 2.91127 33.3241 2.89196 33.2578 2.83273L31.0936 0.884113C30.2432 0.118056 28.9602 0.118056 28.1098 0.884113L25.9462 2.83273C25.8799 2.89196 25.8271 2.91191 25.7389 2.90805L22.8285 2.80634C21.6859 2.76707 20.7022 3.59106 20.5426 4.72406L20.1377 7.60739C20.1254 7.69559 20.0977 7.74387 20.0276 7.79859L17.7326 9.59142C16.8307 10.2963 16.608 11.5593 17.2144 12.5301L18.7575 14.9995L18.7594 15.0002ZM25.0333 30.2119L22.8787 27.5191L19.492 28.1699L22.1899 21.4634L22.4539 21.549C22.5382 21.5767 22.5807 21.6121 22.6225 21.6906L23.9898 24.2617C24.3883 25.0111 25.1537 25.4462 25.9558 25.4462C26.1947 25.4462 26.4361 25.405 26.6723 25.3252L25.0333 30.2119ZM39.7152 28.1699L36.3285 27.5191L34.1739 30.2119L32.5356 25.3259C33.5662 25.6754 34.7011 25.2351 35.218 24.2624L36.5854 21.6913C36.6272 21.6127 36.6697 21.5773 36.754 21.5496L37.0173 21.464L39.7152 28.1699ZM18.9261 11.1171L21.2211 9.32426C21.6852 8.96119 21.9743 8.461 22.0567 7.87777L22.4616 4.99379C22.4822 4.84573 22.6038 4.74079 22.7519 4.74079C22.7558 4.74079 22.759 4.74079 22.7628 4.74079L25.6732 4.84251C26.2616 4.86246 26.8049 4.66548 27.2433 4.27086L29.4076 2.32224C29.5215 2.21989 29.687 2.21924 29.8009 2.32224L31.9652 4.27086C32.4029 4.66548 32.945 4.86246 33.5346 4.84186L36.445 4.74015C36.5963 4.73629 36.725 4.84122 36.7469 4.99314L37.1525 7.87712C37.2343 8.461 37.5233 8.96119 37.9874 9.32362L40.2824 11.1165C40.4034 11.2111 40.4324 11.374 40.3506 11.504L38.8076 13.9734C38.4953 14.4736 38.3949 15.042 38.5172 15.6188L39.1224 18.4674C39.1545 18.6174 39.0715 18.7609 38.9254 18.8086L36.156 19.7085C35.5953 19.8907 35.1524 20.2621 34.8762 20.7823L33.5089 23.3534C33.4368 23.4886 33.281 23.5459 33.1387 23.488L30.4389 22.3968C29.8923 22.176 29.3149 22.176 28.7684 22.3968L26.0685 23.488C25.9262 23.5453 25.7704 23.4886 25.6983 23.3534L24.331 20.7823C24.0542 20.2615 23.6119 19.8907 23.0512 19.7085L20.2819 18.8086C20.1357 18.7609 20.0533 18.618 20.0849 18.4674L20.6906 15.6188C20.8129 15.0427 20.7125 14.4736 20.4003 13.974L18.8572 11.5046C18.7761 11.3746 18.8051 11.2117 18.9261 11.1171ZM29.6039 20.5293C33.823 20.5293 37.2555 17.0969 37.2555 12.8777C37.2555 8.65863 33.823 5.22618 29.6039 5.22618C25.3848 5.22618 21.9524 8.65863 21.9524 12.8777C21.9524 17.0969 25.3848 20.5293 29.6039 20.5293ZM29.6039 7.16192C32.7557 7.16192 35.3198 9.72596 35.3198 12.8777C35.3198 16.0295 32.7557 18.5936 29.6039 18.5936C26.4522 18.5936 23.8881 16.0295 23.8881 12.8777C23.8881 9.72596 26.4522 7.16192 29.6039 7.16192ZM26.9279 14.0661L26.4554 15.5107C26.2867 16.0269 26.4682 16.5883 26.9079 16.9076C27.3476 17.2269 27.9373 17.2262 28.3763 16.9063L29.6039 16.0109L30.8316 16.9063C31.0517 17.0666 31.3092 17.1471 31.5667 17.1471C31.8242 17.1471 32.0804 17.0672 32.2993 16.9082C32.739 16.5889 32.9205 16.0276 32.7519 15.5113L32.2793 14.0667L33.5108 13.1758C33.9511 12.8571 34.134 12.2964 33.966 11.7795C33.7986 11.2639 33.3216 10.9175 32.7795 10.9175H32.777L31.2571 10.9208L30.7904 9.47426C30.6236 8.95733 30.1466 8.61035 29.6033 8.61035C29.06 8.61035 28.583 8.95797 28.4162 9.47426L27.9495 10.9208L26.4296 10.9175H26.427C25.885 10.9175 25.408 11.2639 25.2406 11.7789C25.0726 12.2958 25.2554 12.8565 25.6958 13.1752L26.9279 14.0661ZM29.6039 12.0846C29.7829 12.5211 30.191 12.8172 30.6616 12.8526C30.3018 13.1578 30.146 13.6374 30.2573 14.0957C29.8556 13.8479 29.3516 13.8479 28.9505 14.0957C29.0619 13.6374 28.9061 13.1578 28.5469 12.8526C29.0168 12.8166 29.425 12.5205 29.6039 12.0846Z" fill="#0CB4C4"></path></svg>