<svg width="68" height="60" viewBox="0 0 68 60" fill="none" xmlns="http://www.w3.org/2000/svg"><path d="M50.3178 26.5389C50.0847 26.1162 50.2158 25.5916 50.6385 25.3438C51.0611 25.1106 51.5858 25.2418 51.8335 25.6644L52.8683 27.457L57.1092 23.799C57.4736 23.4784 58.0274 23.5221 58.3334 23.8864C58.6541 24.2508 58.6103 24.8046 58.246 25.1106L53.218 29.4536C52.81 29.8034 52.1687 29.7014 51.8918 29.235L50.3178 26.5389ZM53.9613 18.8439C58.2897 18.8439 61.802 22.3562 61.802 26.6846C61.802 30.911 58.45 34.365 54.2382 34.5107V41.2147C60.7381 40.8503 65.8535 35.458 65.8535 28.9144C65.8535 23.5658 62.4287 18.8876 57.4444 17.2262C57.0364 17.0805 56.7886 16.6724 56.8615 16.2498C58.2023 8.70055 52.4165 1.73428 44.7215 1.73428C39.4021 1.73428 34.7093 5.15912 33.0479 10.1142C32.873 10.6243 32.3047 10.8575 31.8237 10.6097C26.344 7.84069 19.5963 10.4203 17.4103 16.206C17.2645 16.5995 16.8419 16.8327 16.4484 16.7598C8.92831 15.4628 2.02034 21.2486 2.02034 28.8998C2.02034 35.7058 7.52923 41.2292 14.3498 41.2292H31.0513V38.8537C27.233 39.699 22.0884 39.5824 18.6782 38.4602C16.6087 37.7752 15.3262 36.7259 15.3262 35.4434V20.8114C15.3262 19.5289 16.6087 18.4796 18.6782 17.7946C22.5256 16.5267 28.6612 16.5412 32.5087 17.7946C34.5782 18.4796 35.8607 19.5289 35.8607 20.8114V27.4279C38.8774 26.6554 42.7249 26.4806 46.1352 26.8449C46.0332 22.4436 49.56 18.8439 53.9613 18.8439ZM52.4893 34.3796C52.0958 34.3067 51.7169 34.2047 51.338 34.0735C50.3324 34.4816 49.0791 34.8313 47.6508 35.0645C43.5702 35.7495 38.3673 35.56 34.7822 34.3941C34.0098 34.1464 33.3394 33.8403 32.7856 33.5051V37.338C37.0411 39.7864 48.2338 39.7864 52.4893 37.338V34.3796ZM49.2394 32.9367C47.8403 31.8729 46.8201 30.3718 46.3684 28.6375C42.7832 28.1857 38.3236 28.4043 35.3214 29.3953C33.9223 29.8617 32.7856 30.4592 32.7856 31.0567C32.7856 31.6105 33.762 32.2081 35.3214 32.7181C39.0669 33.9423 45.1442 34.0444 49.2394 32.9367ZM58.2606 22.3708C55.885 19.9952 52.023 19.9952 49.6475 22.3708C47.2719 24.7463 47.2719 28.6083 49.6475 30.9839C52.023 33.3594 55.885 33.3594 58.2606 30.9839C60.6361 28.6083 60.6361 24.7463 58.2606 22.3708ZM23.0212 3.8912C23.1523 3.8912 23.0649 3.68717 22.9774 3.77461C22.9483 3.80376 22.9483 3.8912 23.0212 3.8912ZM24.3036 5.10082C23.1523 6.25215 21.1994 5.40687 21.1994 3.81833C21.1994 2.22979 23.1523 1.38451 24.3036 2.53584C25.0178 3.24995 25.0178 4.37213 24.3036 5.10082ZM28.1366 55.0452C28.2677 55.0452 28.1803 54.8411 28.0928 54.9286C28.0491 54.9577 28.0491 55.0452 28.1366 55.0452ZM29.419 56.2548C28.2677 57.4061 26.3148 56.5608 26.3148 54.9723C26.3148 53.3838 28.2531 52.5385 29.419 53.6898C30.1332 54.4039 30.1332 55.5261 29.419 56.2548ZM33.6746 58.2514C34.6365 58.2514 35.1174 57.0855 34.447 56.4005C33.762 55.7156 32.5961 56.1965 32.5961 57.1729C32.5816 57.7705 33.0771 58.2514 33.6746 58.2514ZM35.6712 59.1696C33.8932 60.9476 30.8327 59.6796 30.8327 57.1729C30.8327 54.6517 33.8932 53.3838 35.6712 55.1618C36.7788 56.2694 36.7788 58.0619 35.6712 59.1696ZM33.9806 48.4287C33.5434 48.2246 33.354 47.7 33.5726 47.2628C33.7766 46.8256 34.3013 46.6507 34.7385 46.8547C35.8315 47.3648 38.4256 47.7874 39.8684 47.8166C40.3494 47.8311 40.7283 48.2246 40.7283 48.7056C40.7137 49.1865 40.3202 49.5654 39.8393 49.5654C38.0759 49.5217 35.2923 49.0553 33.9806 48.4287ZM33.9806 42.8469C33.5434 42.6429 33.354 42.1182 33.5726 41.681C33.7766 41.2438 34.3013 41.0543 34.7385 41.2729C35.8315 41.783 38.4256 42.2057 39.8684 42.2348C40.3494 42.2494 40.7283 42.6429 40.7283 43.1238C40.7137 43.6048 40.3202 43.9837 39.8393 43.9837C38.0759 43.9545 35.2923 43.4882 33.9806 42.8469ZM33.9806 36.9591C33.5434 36.7551 33.354 36.2304 33.5726 35.7932C33.7766 35.356 34.3013 35.1811 34.7385 35.3851C35.8315 35.9098 38.4256 36.3179 39.8684 36.347C40.3494 36.3616 40.7283 36.7551 40.7283 37.236C40.7137 37.7169 40.3202 38.0959 39.8393 38.0959C38.0759 38.0521 35.2923 37.5858 33.9806 36.9591ZM42.6375 40.9232C39.3584 40.9232 35.4963 40.4714 32.7856 39.2763V43.4882C37.0411 45.9366 48.2338 45.9366 52.4893 43.4882V39.2763C49.7786 40.4714 45.9166 40.9232 42.6375 40.9232ZM54.2382 42.9635V47.7729C54.2382 49.1719 52.81 50.3378 50.4927 51.0957C46.1206 52.5239 39.1543 52.5239 34.7822 51.0957C32.465 50.3378 31.0367 49.1719 31.0367 47.7729V42.9927H14.3498C6.58193 42.9927 0.271484 36.6822 0.271484 28.9144C0.271484 20.4616 7.67497 13.918 16.0549 14.9527C18.7365 8.96288 25.7027 6.17928 31.7363 8.65683C33.9078 3.45399 38.994 0 44.7215 0C53.1889 0 59.7325 7.43263 58.6832 15.8271C64.0026 17.9258 67.5878 23.0994 67.5878 28.9144C67.6024 36.4199 61.7 42.5992 54.2382 42.9635ZM52.4893 45.4265C47.5051 47.6125 37.7698 47.6125 32.7856 45.4265V47.7583C32.7856 48.3121 33.762 48.9096 35.3214 49.4197C39.3292 50.7313 45.9457 50.7313 49.9535 49.4197C51.5129 48.9096 52.4893 48.3121 52.4893 47.7583V45.4265ZM31.0367 31.0276C31.0513 30.124 31.6634 29.3224 32.7273 28.6521C28.3843 29.92 21.214 29.9054 17.0605 28.1711V31.6251C19.1445 32.791 22.8608 33.1845 25.5861 33.1845C27.437 33.1845 29.3316 33.0242 31.0513 32.6598V31.0276H31.0367ZM31.0367 37.0611V34.4524C26.8686 35.2686 20.8059 35.1374 17.0605 33.5634V35.4434C17.0605 35.8806 17.8766 36.3616 19.2028 36.7988C22.3945 37.8481 27.5099 37.9501 31.0367 37.0611ZM58.8581 45.4848C61.3211 45.4848 62.5744 48.487 60.8255 50.2212C59.0767 51.9701 56.0891 50.7168 56.0891 48.2538C56.0891 46.7235 57.3278 45.4848 58.8581 45.4848ZM59.5868 47.5251C58.9455 46.8839 57.8379 47.3356 57.8379 48.2538C57.8379 49.1719 58.9455 49.6237 59.5868 48.9825C59.9803 48.589 59.9803 47.9332 59.5868 47.5251ZM16.0112 2.20064C18.4741 2.20064 19.7129 5.20284 17.9786 6.93712C16.2298 8.68597 13.2421 7.4472 13.2421 4.96966C13.2421 3.43941 14.4809 2.20064 16.0112 2.20064ZM16.7399 4.24097C16.0986 3.59972 14.991 4.05151 14.991 4.96966C14.991 5.88781 16.0986 6.3396 16.7399 5.69835C17.1479 5.29028 17.1479 4.64904 16.7399 4.24097ZM6.90255 45.2224C9.40925 45.2224 10.6772 48.2684 8.89916 50.0464C7.12116 51.8244 4.07524 50.5564 4.07524 48.0498C4.07524 46.4904 5.34316 45.2224 6.90255 45.2224ZM7.66039 47.2919C6.99 46.6215 5.82409 47.1025 5.82409 48.0498C5.82409 48.997 6.99 49.4926 7.66039 48.8076C8.08303 48.3995 8.08303 47.7146 7.66039 47.2919ZM17.9495 36.1284C17.5123 35.9244 17.3228 35.3997 17.5414 34.9625C17.7454 34.5253 18.2701 34.3504 18.7073 34.5544C19.64 35.0062 21.899 35.356 23.1669 35.3851C23.6478 35.3997 24.0267 35.7932 24.0267 36.2741C24.0122 36.7551 23.6187 37.134 23.1377 37.134C21.5638 37.1048 19.1154 36.6822 17.9495 36.1284ZM17.9495 31.2462C17.5123 31.0422 17.3228 30.5175 17.5414 30.0803C17.7454 29.6431 18.2701 29.4682 18.7073 29.6722C19.64 30.124 21.899 30.4738 23.1669 30.5029C23.6478 30.5175 24.0267 30.911 24.0267 31.3919C24.0122 31.8729 23.6187 32.2518 23.1377 32.2518C21.5638 32.2226 19.1154 31.8 17.9495 31.2462ZM17.9495 26.0871C17.5123 25.883 17.3228 25.3584 17.5414 24.9212C17.7454 24.484 18.2701 24.3091 18.7073 24.5131C19.64 24.9649 21.899 25.3147 23.1669 25.3438C23.6478 25.3584 24.0267 25.7519 24.0267 26.2328C24.0122 26.7137 23.6187 27.0927 23.1377 27.0927C21.5638 27.0489 19.1154 26.6409 17.9495 26.0871ZM17.0605 26.2474C20.7914 28.3314 30.3809 28.3314 34.0972 26.2474V23.1432C30.2352 25.3292 20.908 25.3292 17.0605 23.1432V26.2474ZM25.5861 18.6107C23.0795 18.6107 20.8351 18.9459 19.2174 19.4706C17.8912 19.9078 17.0751 20.3887 17.0751 20.8259C17.0751 21.2631 17.8912 21.7441 19.2174 22.1813C22.7005 23.3326 28.4718 23.3326 31.9549 22.1813C33.2811 21.7441 34.0972 21.2631 34.0972 20.8259C34.0972 20.4033 33.2811 19.9078 31.9549 19.4706C30.3372 18.9313 28.0928 18.6107 25.5861 18.6107Z" fill="#0CB4C4"></path></svg>