<svg width="70" height="61" viewBox="0 0 70 61" fill="none" xmlns="http://www.w3.org/2000/svg"><path d="M64.2487 21.8086C61.3857 20.967 57.6013 20.4978 53.5866 20.4978C49.5719 20.4978 45.7877 20.9641 42.9246 21.8086C38.767 23.0344 37.8981 24.6824 37.8981 25.8524V55.3671C37.8981 56.5313 38.7728 58.1851 42.9246 59.4109C45.7876 60.2525 49.572 60.7217 53.5866 60.7217C57.6014 60.7217 61.3856 60.2554 64.2487 59.4109C68.4063 58.1851 69.2752 56.5371 69.2752 55.3671V25.8554C69.2752 24.6825 68.4092 23.0344 64.2487 21.8086ZM63.6773 57.4377C60.9949 58.2266 57.4176 58.6635 53.5922 58.6635C49.7699 58.6635 46.1808 58.2265 43.507 57.4377C40.5827 56.5727 39.9413 55.646 39.9413 55.3616V48.3296C40.6731 48.7665 41.6411 49.1888 42.9356 49.5641C45.7986 50.4057 49.583 50.8749 53.5977 50.8749C57.6123 50.8749 61.3966 50.4087 64.2598 49.5641C65.5456 49.18 66.5222 48.7607 67.254 48.3296V55.3616C67.2424 55.6519 66.6045 56.5786 63.6773 57.4377ZM63.6773 47.602C60.9949 48.3909 57.4176 48.8278 53.5922 48.8278C49.7699 48.8278 46.1808 48.3908 43.507 47.602C40.5827 46.737 39.9413 45.8103 39.9413 45.5259V38.4939C40.6731 38.9308 41.6411 39.3531 42.9356 39.7284C45.7986 40.57 49.583 41.0392 53.5977 41.0392C57.6123 41.0392 61.3966 40.573 64.2598 39.7284C65.5456 39.3443 66.5222 38.925 67.254 38.4939V45.5259C67.2424 45.8103 66.6045 46.7428 63.6773 47.602ZM63.6773 37.7663C60.9949 38.5552 57.4176 38.9921 53.5922 38.9921C49.7699 38.9921 46.1808 38.5551 43.507 37.7663C40.5827 36.9013 39.9413 35.9746 39.9413 35.6902L39.9472 28.6582C40.679 29.0951 41.6469 29.5174 42.9414 29.8927C45.8045 30.7343 49.5889 31.2035 53.6035 31.2035C57.6182 31.2035 61.4025 30.7373 64.2656 29.8927C65.5514 29.5086 66.528 29.0892 67.2599 28.6582V35.6902C67.2424 35.9717 66.6045 36.8984 63.6773 37.7663ZM63.6773 27.9306C60.9949 28.7195 57.4176 29.1564 53.5922 29.1564C49.7699 29.1564 46.1808 28.7194 43.507 27.9306C40.5827 27.0656 39.9413 26.1389 39.9413 25.8545C39.9413 25.57 40.5798 24.6434 43.507 23.7783C46.1894 22.9895 49.7667 22.5526 53.5922 22.5526C57.4145 22.5526 61.0035 22.9895 63.6773 23.7783C66.6016 24.6434 67.243 25.57 67.243 25.8545C67.243 26.136 66.6045 27.0627 63.6773 27.9306ZM47.9973 54.4574C47.9215 54.9618 47.4871 55.3313 46.9914 55.3313C46.9389 55.3313 46.8922 55.3313 46.8398 55.3225C45.21 55.0762 43.7464 54.7566 42.4985 54.349C41.965 54.1818 41.6676 53.5982 41.8367 53.0616C42.0029 52.525 42.5831 52.2259 43.1166 52.396C44.2653 52.7625 45.6211 53.0616 47.1458 53.2933C47.691 53.3754 48.0731 53.8973 47.9973 54.4574ZM65.3477 53.0704C65.5139 53.607 65.2194 54.1876 64.6859 54.3577C63.4292 54.7565 61.9744 55.0849 60.3446 55.3313C60.2921 55.3401 60.2455 55.3401 60.193 55.3401C59.6973 55.3401 59.2629 54.9735 59.1871 54.4662C59.1025 53.9061 59.4903 53.387 60.0471 53.302C61.5691 53.0732 62.9248 52.7741 64.0764 52.4047C64.6012 52.2287 65.1786 52.5249 65.3477 53.0704ZM65.3477 43.2264C65.5139 43.763 65.2194 44.3437 64.6859 44.5137C63.438 44.9125 61.9744 45.241 60.3446 45.4873C60.2921 45.4961 60.2455 45.4961 60.193 45.4961C59.6973 45.4961 59.2629 45.1295 59.1871 44.6222C59.1025 44.0621 59.4903 43.5431 60.0471 43.458C61.5691 43.2293 62.9248 42.9302 64.0764 42.5607C64.6012 42.3906 65.1786 42.6898 65.3477 43.2264ZM47.9973 44.6223C47.9215 45.1266 47.4871 45.4962 46.9914 45.4962C46.9389 45.4962 46.8922 45.4962 46.8398 45.4874C45.21 45.241 43.7464 44.9214 42.4985 44.5138C41.965 44.3466 41.6676 43.7631 41.8367 43.2265C42.0029 42.6898 42.5831 42.3907 43.1166 42.5608C44.2653 42.9274 45.6211 43.2265 47.1458 43.4581C47.691 43.5402 48.0731 44.0622 47.9973 44.6223ZM65.3477 33.391C65.5139 33.9276 65.2194 34.5083 64.6859 34.6783C63.4292 35.0771 61.9744 35.4055 60.3446 35.6519C60.2921 35.6607 60.2455 35.6607 60.193 35.6607C59.6973 35.6607 59.2629 35.2941 59.1871 34.7868C59.1025 34.2267 59.4903 33.7077 60.0471 33.6226C61.5691 33.3939 62.9248 33.0948 64.0764 32.7253C64.6012 32.5552 65.1786 32.8544 65.3477 33.391ZM47.9973 34.7839C47.9215 35.2883 47.4871 35.6578 46.9914 35.6578C46.9389 35.6578 46.8922 35.6578 46.8398 35.649C45.21 35.4027 43.7464 35.0831 42.4985 34.6754C41.965 34.5083 41.6676 33.9247 41.8367 33.3881C42.0029 32.8515 42.5831 32.5524 43.1166 32.7225C44.2653 33.089 45.6211 33.3881 47.1458 33.6198C47.691 33.7048 48.0731 34.2267 47.9973 34.7839ZM53.5864 32.0656C51.9274 32.0656 50.5717 33.4204 50.5717 35.0977C50.5717 36.7751 51.9187 38.1299 53.5864 38.1299C55.2454 38.1299 56.6011 36.7751 56.6011 35.0977C56.604 33.4233 55.2483 32.0656 53.5864 32.0656ZM53.5864 36.0801C53.047 36.0801 52.6126 35.6432 52.6126 35.1006C52.6126 34.5581 53.047 34.1212 53.5864 34.1212C54.1258 34.1212 54.5602 34.5581 54.5602 35.1006C54.5631 35.6432 54.1287 36.0801 53.5864 36.0801ZM53.5864 41.901C51.9274 41.901 50.5717 43.2558 50.5717 44.9331C50.5717 46.6105 51.9187 47.9653 53.5864 47.9653C55.2454 47.9653 56.6011 46.6105 56.6011 44.9331C56.604 43.2587 55.2483 41.901 53.5864 41.901ZM53.5864 45.9155C53.047 45.9155 52.6126 45.4786 52.6126 44.9361C52.6126 44.3936 53.047 43.9566 53.5864 43.9566C54.1258 43.9566 54.5602 44.3935 54.5602 44.9361C54.5631 45.4786 54.1287 45.9155 53.5864 45.9155ZM53.5864 51.7452C51.9274 51.7452 50.5717 53.0999 50.5717 54.7773C50.5717 56.4459 51.9187 57.8095 53.5864 57.8095C55.2454 57.8095 56.6011 56.4547 56.6011 54.7773C56.604 53.0999 55.2483 51.7452 53.5864 51.7452ZM53.5864 55.7508C53.047 55.7508 52.6126 55.3139 52.6126 54.7714C52.6126 54.2289 53.047 53.7919 53.5864 53.7919C54.1258 53.7919 54.5602 54.2289 54.5602 54.7714C54.5631 55.3139 54.1287 55.7508 53.5864 55.7508ZM34.9119 48.7804C27.0599 46.4286 23.1825 42.0153 21.6375 39.7487L22.3139 39.4437C22.8941 39.1827 23.2731 38.6226 23.2964 37.9805C23.3197 37.3441 22.9845 36.7547 22.4276 36.4556L15.5876 32.749C15.1299 32.5027 14.5964 32.4822 14.124 32.6963C13.6517 32.9103 13.3076 33.3179 13.1882 33.8223L11.3455 41.4142C11.1939 42.0358 11.4067 42.678 11.8849 43.0827C12.3718 43.4962 13.0424 43.5871 13.6225 43.3291L15.0249 42.7015C17.6372 45.8275 20.1738 47.9183 22.9701 49.2497C25.46 50.4373 28.1948 51.018 31.2565 51.018C32.3673 51.018 33.5336 50.9417 34.7377 50.7892C35.2188 50.7277 35.5832 50.3376 35.6211 49.8538C35.6736 49.3641 35.3755 48.9182 34.9119 48.7804ZM16.1239 40.7982C15.9257 40.5519 15.6283 40.414 15.3309 40.414C15.1939 40.414 15.0481 40.4434 14.9198 40.5049L13.5174 41.1325L15.0569 34.7809L20.7772 37.8834L19.7335 38.3496C19.474 38.464 19.2699 38.6956 19.1766 38.9625C19.0862 39.2381 19.1154 39.5372 19.2611 39.7895C20.0921 41.2675 21.684 43.4961 24.5383 45.757C26.0602 46.9593 27.7367 48.0091 29.556 48.8888C24.3546 48.4665 20.2432 45.9238 16.1239 40.7982ZM34.3641 2.96427C42.216 5.31607 46.0935 9.72938 47.6385 11.996L46.9621 12.3009C46.3819 12.5619 46.0028 13.1221 45.9795 13.7642C45.9562 14.4006 46.2915 14.99 46.8484 15.289L53.6883 18.9956C53.9332 19.1247 54.2073 19.195 54.4726 19.195C54.7 19.195 54.9304 19.1481 55.1432 19.0484C55.6155 18.8344 55.9596 18.4267 56.0791 17.9224L57.9218 10.3305C58.0734 9.70884 57.8605 9.06663 57.3824 8.66192C56.8955 8.24845 56.2249 8.15754 55.6447 8.4156L54.2424 9.04314C51.63 5.91714 49.0935 3.82636 46.2971 2.49499C42.9005 0.879254 39.0549 0.371929 34.5296 0.95545C34.0486 1.01703 33.6841 1.40704 33.6462 1.8909C33.6025 2.38355 33.9005 2.82644 34.3641 2.96427ZM53.152 10.9465C53.4407 11.3072 53.9363 11.4303 54.3562 11.2368L55.7585 10.6093L54.2191 16.9609L48.4988 13.8584L49.5425 13.3921C49.802 13.2778 50.0061 13.0461 50.0994 12.7792C50.1898 12.5036 50.1606 12.2045 50.0148 11.9523C49.1839 10.4743 47.592 8.24567 44.7377 5.98478C43.2157 4.78246 41.5393 3.73267 39.72 2.85293C44.9214 3.28692 49.0327 5.82955 53.152 10.9465ZM36.8398 11.5125H32.9329V7.26926C32.9329 6.70329 32.4752 6.2429 31.9125 6.2429H15.6145L10.8096 2.96443C10.6434 2.85007 10.4452 2.78848 10.2382 2.78848H1.01362C0.450914 2.78848 -0.00683594 3.24887 -0.00683594 3.81484V28.6406C-0.00683594 29.2065 0.450906 29.6669 1.01362 29.6669H31.9042C32.3532 29.6669 32.7497 29.3766 32.878 28.9456L37.8053 12.8437C37.8957 12.53 37.8432 12.1927 37.6537 11.9318C37.4642 11.6679 37.1605 11.5125 36.8398 11.5125ZM2.03372 4.84118H9.91702L14.7219 8.11965C14.888 8.23402 15.0863 8.2956 15.2933 8.2956H30.883V11.5213H5.94933C5.50034 11.5213 5.10383 11.8116 4.97553 12.2427L2.03373 21.8314L2.03372 4.84118ZM31.1576 27.6145H2.3987L6.70205 13.5591H35.4609L31.1576 27.6145Z" fill="#0CB4C4"></path></svg>