<svg width="68" height="60" viewBox="0 0 68 60" fill="none" xmlns="http://www.w3.org/2000/svg"><path fill-rule="evenodd" clip-rule="evenodd" d="M51.5695 16.4286H60.7913C62.5069 16.4286 64.0672 17.1304 65.1971 18.2603C66.3262 19.3902 67.0287 20.9505 67.0287 22.666V50.0661C67.0287 51.7809 66.327 53.3411 65.1971 54.471C64.0672 55.6009 62.5069 56.3027 60.7913 56.3027H6.35358C4.63803 56.3027 3.07776 55.6017 1.9486 54.471C0.817961 53.3411 0.116211 51.7809 0.116211 50.0661V22.666C0.116211 20.9505 0.817222 19.3902 1.9486 18.2603C3.07776 17.1311 4.63803 16.4286 6.35358 16.4286H15.5754V5.80626C15.5754 5.11782 15.866 4.49372 16.3341 4.04116C16.7955 3.59527 17.4293 3.31871 18.1251 3.31871H25.5907V2.41878C25.5907 2.04166 25.8961 1.73626 26.2732 1.73626H29.0129V0.682524C29.0129 0.305398 29.3183 0 29.6962 0H37.4487C37.8259 0 38.1313 0.305398 38.1313 0.682524V1.73774H40.871C41.2481 1.73774 41.5542 2.04314 41.5542 2.42026V3.32019H49.0191C49.7149 3.32019 50.3494 3.59675 50.8101 4.04264C51.2789 4.49445 51.5695 5.1193 51.5695 5.80774V16.4286ZM47.5454 44.7456L50.4389 47.2657C50.7228 47.5134 51.1539 47.4839 51.4017 47.1992C51.4283 47.1688 51.4512 47.1363 51.4719 47.103L55.9301 40.6017C56.1416 40.2904 56.0625 39.8667 55.7512 39.6544C55.4406 39.4429 55.0169 39.5228 54.8047 39.8334L50.7583 45.7335L48.4408 43.7156C48.1569 43.4678 47.7258 43.4982 47.4781 43.7821C47.2311 44.0675 47.2607 44.4986 47.5454 44.7456ZM51.8764 35.0557C54.4364 35.0557 56.7539 36.0932 58.4317 37.771C60.1096 39.4489 61.147 41.7656 61.147 44.3256C61.147 46.8856 60.1096 49.2031 58.4317 50.8802C56.7531 52.558 54.4364 53.5955 51.8764 53.5955C49.3164 53.5955 46.9989 52.558 45.3218 50.8802C44.8397 50.3981 44.4108 49.862 44.0433 49.2837H18.1251C17.43 49.2837 16.7955 49.0071 16.3341 48.562C15.8653 48.1094 15.5754 47.4846 15.5754 46.7969V17.7944H6.35358C5.01441 17.7944 3.79652 18.3424 2.9136 19.226C2.03068 20.1097 1.482 21.3276 1.482 22.666V50.0661C1.482 51.4052 2.02994 52.6224 2.9136 53.5053C3.79726 54.3882 5.01515 54.9369 6.35358 54.9369H60.7906C62.1298 54.9369 63.3469 54.389 64.2306 53.5053C65.1128 52.6224 65.6622 51.4045 65.6622 50.0661V22.666C65.6622 21.3268 65.1135 20.1089 64.2306 19.226C63.3469 18.3431 62.129 17.7944 60.7906 17.7944H51.5695V35.0609C51.6716 35.0572 51.7736 35.0557 51.8764 35.0557ZM43.3282 47.9179C42.8631 46.8132 42.6057 45.599 42.6057 44.3256C42.6057 43.0145 42.8779 41.7671 43.3689 40.6364H28.1418C27.7647 40.6364 27.4586 40.331 27.4586 39.9539C27.4586 39.5768 27.7647 39.2706 28.1418 39.2706H44.1046C44.4581 38.7294 44.8663 38.2265 45.3218 37.771C46.6255 36.4673 48.3144 35.5504 50.2045 35.2066V17.1119V5.80626C50.2045 5.5016 50.0743 5.2243 49.8665 5.02243C49.6506 4.8139 49.3511 4.6845 49.0191 4.6845H41.5542V6.95908C41.5542 7.33621 41.2481 7.64235 40.871 7.64235H26.2732C25.8961 7.64235 25.5907 7.33621 25.5907 6.95908V4.6845H18.1251C17.7938 4.6845 17.4936 4.8139 17.2777 5.02243C17.0699 5.22356 16.9405 5.50086 16.9405 5.80626V17.1119V46.7976C16.9405 47.1023 17.0699 47.3796 17.2777 47.5807C17.4936 47.7893 17.7931 47.9187 18.1251 47.9187L43.3282 47.9179ZM57.466 38.736C56.0359 37.3052 54.06 36.4208 51.8764 36.4208C49.6942 36.4208 47.7176 37.3052 46.2868 38.736C45.818 39.2048 45.4076 39.7328 45.0674 40.3074C44.3716 41.4846 43.9723 42.8585 43.9723 44.3256C43.9723 45.7572 44.3531 47.1001 45.0186 48.2581L45.0216 48.2632C45.3706 48.8681 45.7965 49.4235 46.2875 49.9145C47.7184 51.3453 49.6935 52.2297 51.8771 52.2297C54.0608 52.2297 56.0366 51.3453 57.4667 49.9145C58.8983 48.4836 59.7827 46.5085 59.7827 44.3249C59.7827 42.1412 58.8968 40.1661 57.466 38.736ZM28.1418 38.4883H42.5865C42.9644 38.4883 43.2698 38.1829 43.2698 37.8058C43.2698 37.4286 42.9644 37.1225 42.5865 37.1225H28.1418C27.7647 37.1225 27.4586 37.4286 27.4586 37.8058C27.4586 38.1829 27.7647 38.4883 28.1418 38.4883ZM21.588 36.1878C21.2109 36.1878 20.9055 36.4932 20.9055 36.8703V40.8893C20.9055 41.2665 21.2109 41.5719 21.588 41.5719H25.607C25.9841 41.5719 26.2895 41.2665 26.2895 40.8893V36.8703C26.2895 36.4932 25.9841 36.1878 25.607 36.1878H21.588ZM24.9237 37.5536H22.2713V40.2061H24.9237V37.5536ZM28.1418 32.7893H45.5562C45.9333 32.7893 46.2395 32.4839 46.2395 32.1067C46.2395 31.7296 45.9333 31.4235 45.5562 31.4235H28.1418C27.7647 31.4235 27.4586 31.7296 27.4586 32.1067C27.4586 32.4839 27.7647 32.7893 28.1418 32.7893ZM28.1418 30.6411H42.5865C42.9644 30.6411 43.2698 30.3357 43.2698 29.9586C43.2698 29.5807 42.9644 29.2753 42.5865 29.2753H28.1418C27.7647 29.2753 27.4586 29.5807 27.4586 29.9586C27.4586 30.3357 27.7647 30.6411 28.1418 30.6411ZM21.588 28.3414C21.2109 28.3414 20.9055 28.6468 20.9055 29.0239V33.0421C20.9055 33.42 21.2109 33.7254 21.588 33.7254H25.607C25.9841 33.7254 26.2895 33.42 26.2895 33.0421V29.0239C26.2895 28.6468 25.9841 28.3414 25.607 28.3414H21.588ZM24.9237 29.7064H22.2713V32.3596H24.9237V29.7064ZM28.1418 24.9428H45.5562C45.9333 24.9428 46.2395 24.6374 46.2395 24.2603C46.2395 23.8832 45.9333 23.577 45.5562 23.577H28.1418C27.7647 23.577 27.4586 23.8832 27.4586 24.2603C27.4586 24.6374 27.7647 24.9428 28.1418 24.9428ZM28.1418 22.7947H42.5865C42.9644 22.7947 43.2698 22.4893 43.2698 22.1122C43.2698 21.735 42.9644 21.4289 42.5865 21.4289H28.1418C27.7647 21.4289 27.4586 21.735 27.4586 22.1122C27.4586 22.4893 27.7647 22.7947 28.1418 22.7947ZM28.1418 17.0964H45.5562C45.9333 17.0964 46.2395 16.791 46.2395 16.4139C46.2395 16.0367 45.9333 15.7306 45.5562 15.7306H28.1418C27.7647 15.7306 27.4586 16.0367 27.4586 16.4139C27.4586 16.791 27.7647 17.0964 28.1418 17.0964ZM28.1418 14.9482H42.5865C42.9644 14.9482 43.2698 14.6428 43.2698 14.2657C43.2698 13.8878 42.9644 13.5825 42.5865 13.5825H28.1418C27.7647 13.5825 27.4586 13.8878 27.4586 14.2657C27.4586 14.6421 27.7647 14.9482 28.1418 14.9482ZM21.588 20.4942C21.2109 20.4942 20.9055 20.8003 20.9055 21.1775V25.1965C20.9055 25.5736 21.2109 25.879 21.588 25.879H25.607C25.9841 25.879 26.2895 25.5736 26.2895 25.1965V21.1775C26.2895 20.8003 25.9841 20.4942 25.607 20.4942H21.588ZM24.9237 21.86H22.2713V24.5124H24.9237V21.86ZM21.588 12.647C21.2109 12.647 20.9055 12.9532 20.9055 13.3303V17.3485C20.9055 17.7264 21.2109 18.0318 21.588 18.0318H25.607C25.9841 18.0318 26.2895 17.7264 26.2895 17.3485V13.3303C26.2895 12.9532 25.9841 12.647 25.607 12.647H21.588ZM24.9237 14.0128H22.2713V16.666H24.9237V14.0128ZM26.9565 3.99975V4.00271V4.00567V6.2773H40.1892V4.00271V3.79862V3.10352H37.4495C37.0723 3.10352 36.7662 2.79739 36.7662 2.42026V1.36505H30.3787V2.41952C30.3787 2.79665 30.0733 3.10279 29.6962 3.10279H26.9565V3.99975ZM13.7194 60C13.3422 60 13.0361 59.6946 13.0361 59.3167C13.0361 58.9396 13.3422 58.6342 13.7194 58.6342H53.4241C53.8019 58.6342 54.1073 58.9396 54.1073 59.3167C54.1073 59.6946 53.8019 60 53.4241 60H13.7194Z" fill="#0CB4C4"></path></svg>