<svg width="61" height="60" viewBox="0 0 61 60" fill="none" xmlns="http://www.w3.org/2000/svg"><path d="M58.3006 49.4068L48.1155 39.2243C50.4794 35.3216 51.8424 30.7487 51.8424 25.8631C51.8424 11.602 40.2403 0 25.9793 0C11.7182 0 0.116211 11.602 0.116211 25.8631C0.116211 40.1241 11.7182 51.7262 25.9793 51.7262C30.8649 51.7262 35.4374 50.3632 39.3405 47.9992L49.523 58.1844C50.7334 59.3948 52.3215 60 53.912 60C55.5026 60 57.0907 59.3948 58.3011 58.1844C60.7218 55.7636 60.7218 51.8271 58.3011 49.4062L58.3006 49.4068ZM2.18469 25.8631C2.18469 12.7428 12.8585 2.06841 25.9794 2.06841C39.1003 2.06841 49.774 12.7422 49.774 25.8631C49.774 38.984 39.1003 49.6578 25.9794 49.6578C12.8585 49.6578 2.18469 38.984 2.18469 25.8631ZM46.9462 40.9776L49.8998 43.9312L44.0495 49.7814L41.0959 46.8279C43.3434 45.2011 45.322 43.2251 46.9462 40.9776ZM56.8367 56.7204C55.2254 58.3343 52.6003 58.3343 50.9864 56.7204L45.5111 51.2451L51.3614 45.3949L56.8367 50.8701C58.4506 52.484 58.4506 55.1091 56.8367 56.7204ZM25.9794 4.13748C13.9993 4.13748 4.25442 13.883 4.25442 25.8624C4.25442 37.8419 13.9999 47.5874 25.9794 47.5874C37.9588 47.5874 47.7043 37.8419 47.7043 25.8624C47.7043 13.883 37.9588 4.13748 25.9794 4.13748ZM25.9794 45.5189C15.1401 45.5189 6.32283 36.7024 6.32283 25.8624C6.32283 15.0225 15.1394 6.20589 25.9794 6.20589C36.8193 6.20589 45.6359 15.0225 45.6359 25.8624C45.6359 36.7024 36.8193 45.5189 25.9794 45.5189ZM28.6666 11.8967C28.1053 10.9242 27.1018 10.3448 25.9794 10.3448C24.8569 10.3448 23.8534 10.9242 23.2921 11.8967L12.5409 30.5183C11.9797 31.4908 11.9797 32.6495 12.5409 33.6219C13.1021 34.5944 14.1057 35.1738 15.2281 35.1738H36.7313C37.8537 35.1738 38.8572 34.5944 39.4185 33.6219C39.9797 32.6494 39.9797 31.4908 39.4185 30.5183L28.6666 11.8967ZM37.6255 32.5874C37.535 32.7426 37.2686 33.1047 36.7306 33.1047H15.2275C14.6869 33.1047 14.4205 32.7426 14.3326 32.5874C14.242 32.4322 14.0636 32.0184 14.3326 31.5529L25.0838 12.9312C25.3528 12.4657 25.8002 12.4139 25.9787 12.4139C26.1572 12.4139 26.6046 12.4657 26.8736 12.9312L37.6248 31.5529C37.8938 32.0184 37.716 32.4322 37.6255 32.5874ZM24.9449 23.794V18.6213C24.9449 18.0497 25.4078 17.5868 25.9794 17.5868C26.551 17.5868 27.014 18.0497 27.014 18.6213V23.794C27.014 24.3656 26.551 24.8285 25.9794 24.8285C25.4078 24.8285 24.9449 24.3656 24.9449 23.794ZM27.7899 28.9667C27.7899 29.965 26.9777 30.7771 25.9794 30.7771C24.9811 30.7771 24.169 29.965 24.169 28.9667C24.169 27.9684 24.9811 27.1562 25.9794 27.1562C26.9777 27.1562 27.7899 27.9684 27.7899 28.9667Z" fill="#0CB4C4"></path></svg>