<svg width="68" height="60" viewBox="0 0 68 60" fill="none" xmlns="http://www.w3.org/2000/svg"><path d="M14.6142 17.42C14.3233 17.0273 14.4105 16.489 14.7888 16.1981C15.1815 15.9071 15.7198 15.9944 16.0107 16.3726L16.7672 17.391L19.6912 14.467C20.0403 14.1178 20.5931 14.1178 20.9277 14.467C21.2768 14.8016 21.2768 15.3543 20.9277 15.7035L17.2909 19.3403C16.9127 19.7185 16.2871 19.6749 15.9816 19.2384L14.6142 17.42ZM17.8146 10.2192C21.5096 10.2192 24.5063 13.2159 24.5063 16.9109C24.5063 20.6059 21.5096 23.6026 17.8146 23.6026C14.1196 23.6026 11.1229 20.6059 11.1229 16.9109C11.1229 13.2159 14.1196 10.2192 17.8146 10.2192ZM21.3059 13.4196C19.3711 11.4848 16.2435 11.4848 14.3087 13.4196C12.3739 15.3543 12.3739 18.482 14.3087 20.4168C16.2435 22.3515 19.3711 22.3515 21.3059 20.4168C23.2407 18.482 23.2407 15.3543 21.3059 13.4196ZM16.1417 5.12767H19.473C19.953 5.12767 20.3458 5.52044 20.3458 6.0005V7.48431C21.1604 7.70252 21.946 8.02256 22.6733 8.44443L23.7207 7.39703C24.0699 7.0479 24.6227 7.0479 24.9573 7.39703L27.3139 9.75368C27.663 10.0883 27.663 10.6411 27.3139 10.9902L26.2665 12.0376C26.6884 12.7649 27.0084 13.5505 27.2412 14.3651H28.725C29.205 14.3651 29.5978 14.7579 29.5978 15.238V18.5693C29.5978 19.0493 29.205 19.4421 28.725 19.4421H27.2412C27.023 20.2568 26.6884 21.0423 26.2665 21.7697L27.3139 22.8171C27.663 23.1662 27.663 23.719 27.3139 24.0536L24.9573 26.4102C24.6227 26.7448 24.0699 26.7448 23.7207 26.4102L22.6733 25.3628C21.946 25.7847 21.1604 26.1047 20.3458 26.3229V27.8067C20.3458 28.2868 19.953 28.6796 19.473 28.6796H16.1417C15.6616 28.6796 15.2688 28.2868 15.2688 27.8067V26.3229C14.4542 26.1047 13.6686 25.7847 12.9413 25.3628L11.8939 26.4102C11.5593 26.7448 11.0065 26.7448 10.6574 26.4102L8.30072 24.0536C7.96614 23.7044 7.96614 23.1516 8.30072 22.8171L9.34812 21.7697C8.92625 21.0423 8.60621 20.2568 8.388 19.4421H6.90419C6.42413 19.4421 6.03136 19.0493 6.03136 18.5693V15.238C6.03136 14.7579 6.42413 14.3651 6.90419 14.3651H8.388C8.60621 13.5505 8.92625 12.7649 9.34812 12.0376L8.30072 10.9902C7.96614 10.6411 7.96614 10.0883 8.30072 9.75368L10.6574 7.39703C11.0065 7.0479 11.5593 7.0479 11.8939 7.39703L12.9413 8.44443C13.6686 8.02256 14.4542 7.70252 15.2688 7.48431V6.0005C15.2688 5.52044 15.6616 5.12767 16.1417 5.12767ZM18.6001 6.87333H17.0145V8.12439C17.0436 8.54626 16.7381 8.93903 16.3017 9.02632C15.327 9.20088 14.1341 9.66639 13.3486 10.2337C12.9995 10.4956 12.5049 10.481 12.1994 10.161L11.2829 9.24452L10.1628 10.3647L11.0792 11.2811C11.3702 11.5721 11.4284 12.0376 11.1811 12.3867C10.6283 13.1868 10.1046 14.3651 9.94455 15.3253C9.88637 15.7617 9.52269 16.0963 9.07172 16.0963H7.77702V17.6819H9.07172C9.47904 17.6819 9.84272 17.9728 9.93001 18.3947C10.1191 19.3694 10.5701 20.5622 11.152 21.3478C11.4138 21.6969 11.3847 22.1915 11.0792 22.497L10.1628 23.4135L11.2829 24.5336L12.1994 23.6172C12.4903 23.3262 12.9558 23.268 13.305 23.5153C14.1196 24.0681 15.2834 24.5918 16.258 24.7518C16.6945 24.7955 17.029 25.1737 17.029 25.6247V26.9194H18.6147V25.6538C18.6147 25.2464 18.9056 24.8828 19.3275 24.7955C20.3022 24.6064 21.495 24.1554 22.2806 23.5735C22.6297 23.3117 23.1243 23.3408 23.4298 23.6462L24.3463 24.5627L25.4664 23.4426L24.5499 22.5261C24.259 22.2352 24.2008 21.7697 24.4481 21.4205C25.0009 20.6204 25.5246 19.4421 25.6846 18.482C25.7283 18.0456 26.1065 17.711 26.5574 17.711H27.8522V16.1253H26.5574C26.1501 16.1253 25.7719 15.8344 25.6992 15.4125C25.5246 14.4379 25.0591 13.245 24.4917 12.4595C24.2299 12.1103 24.2444 11.6157 24.5645 11.3102L25.481 10.3938L24.3608 9.27362L23.4444 10.1901C23.1534 10.481 22.6879 10.5392 22.3388 10.2919C21.5241 9.73913 20.3603 9.21543 19.4002 9.05541C18.9638 9.01177 18.6292 8.63354 18.6292 8.18258V6.87333H18.6001ZM50.604 11.0629C53.2225 11.0629 55.3463 13.1868 55.3463 15.8053C55.3463 18.4238 53.2225 20.5477 50.604 20.5477C47.9855 20.5477 45.8616 18.4238 45.8616 15.8053C45.8616 13.1868 47.9855 11.0629 50.604 11.0629ZM52.7279 13.696C50.8513 11.8194 47.6072 13.1577 47.6072 15.8199C47.6072 18.482 50.8513 19.8203 52.7279 17.9437C53.9062 16.7654 53.9062 14.8597 52.7279 13.696ZM50.604 6.87333C55.5355 6.87333 59.5359 10.8738 59.5359 15.8053C59.5359 20.6641 53.8625 28.8396 51.2731 31.9382C50.924 32.36 50.2694 32.3455 49.9348 31.9236C47.3308 28.7523 41.672 20.7223 41.672 15.8053C41.672 10.8738 45.6725 6.87333 50.604 6.87333ZM55.6955 10.7283C52.8879 7.92073 48.3346 7.92073 45.527 10.7283C44.2323 12.023 43.4176 13.8269 43.4176 15.8199C43.4176 19.8785 48.3346 27.0939 50.604 30.0034C52.8879 27.0939 57.7903 19.8931 57.7903 15.8199C57.8048 13.8269 56.9902 12.023 55.6955 10.7283ZM7.45698 5.44771C7.0933 5.76775 6.54051 5.7241 6.23502 5.34588C5.91498 4.9822 5.97317 4.4294 6.33685 4.12391C14.3814 -2.75691 26.7029 -0.793039 32.2309 8.26986C32.8127 7.96437 33.511 8.40079 33.4965 9.05541L33.4528 10.8011C33.4383 11.4848 32.6673 11.8776 32.1145 11.5139L30.587 10.5101C30.0197 10.1465 30.0779 9.31726 30.6598 9.01177C25.5973 0.981718 14.6142 -0.662115 7.45698 5.44771ZM48.8874 0.647133C49.3675 0.603491 49.7893 0.967171 49.8184 1.44723C49.8621 1.92729 49.4984 2.34915 49.0183 2.3928C41.1628 3.01833 35.0821 9.39 34.7475 17.3182C34.7184 22.0461 32.7837 26.3229 29.6706 29.436C26.6447 32.4473 22.5279 34.3384 17.9601 34.4694C17.931 35.1094 17.2327 35.5022 16.6654 35.1676L15.1088 34.2657C14.5124 33.9166 14.5415 33.0437 15.1525 32.7382L16.7963 31.9091C17.3927 31.6181 18.0764 32.0545 18.0619 32.7237C22.1206 32.5782 25.7864 30.8908 28.4631 28.2141C31.2707 25.421 33.0019 21.566 33.031 17.3182C33.031 17.3037 33.031 17.2746 33.031 17.26C33.3219 8.50262 40.1591 1.3454 48.8874 0.647133ZM63.5219 29.9161C63.3473 30.5416 62.5763 30.7598 62.0962 30.338C54.4735 37.5679 42.1957 36.3314 36.1441 27.7195C35.8677 27.3267 35.9695 26.7739 36.3623 26.4975C36.755 26.2211 37.2933 26.3229 37.5697 26.7157C42.9812 34.3966 53.9353 35.5749 60.8161 29.1596C60.336 28.7087 60.5106 27.9086 61.1361 27.6904L62.8527 27.1376C63.551 26.8903 64.1619 27.5158 64.0019 28.185L63.5219 29.9161ZM54.1826 0.254359C54.8372 0.0797925 55.4336 0.690774 55.2445 1.33085C65.1366 4.32757 70.2136 15.3689 65.9658 24.8537C65.7767 25.2901 65.253 25.4937 64.8166 25.2901C64.3802 25.0864 64.1765 24.5773 64.3802 24.1409C68.2061 15.6017 63.6092 5.68046 54.779 2.98923C54.6335 3.62931 53.848 3.89116 53.3534 3.44019L52.0296 2.26187C51.4186 1.75272 51.695 0.894435 52.3351 0.734416L54.1826 0.254359ZM2.30728 9.1136C1.72539 8.79356 1.71084 7.93528 2.29273 7.60069L3.95111 6.64058C4.54754 6.29144 5.28945 6.75696 5.26036 7.44067L5.15853 9.27362C5.11489 9.94279 4.37298 10.3065 3.82019 9.95734C-0.529426 18.1183 3.25284 28.3741 11.9812 31.7054C12.4321 31.88 12.6503 32.3746 12.4903 32.8255C12.3157 33.2765 11.8211 33.4947 11.3702 33.3347C2.84552 30.0907 -1.70775 20.6932 1.09986 11.9503C1.4199 10.9611 1.82722 10.0155 2.30728 9.1136ZM9.23174 39.8082C11.0938 39.8227 12.9849 39.8227 14.847 39.8518C15.8798 39.8664 16.7235 40.6374 16.9418 41.612C19.1238 39.6627 21.1023 37.6988 23.8371 36.8842C24.8118 36.5933 25.7864 35.9095 26.8775 35.124C27.9394 34.3675 29.1178 33.5238 30.6161 32.8255C33.6274 31.3854 35.9404 31.5308 37.3806 32.4328C38.6025 33.2038 39.2281 34.5421 39.0826 35.9677C38.908 37.6116 37.7297 39.3863 35.373 40.4628C33.2928 41.5538 31.4017 42.6012 30.0488 43.445C29.4523 43.8232 28.9723 44.1141 28.6522 44.3178C29.5978 44.4051 31.7508 44.5506 34.3111 44.8124C36.2022 45.0015 38.2825 45.1906 40.2173 45.307C40.45 45.2925 41.3519 45.0743 41.5265 44.9579L52.3642 38.208C54.4881 36.8842 57.3539 36.5933 58.8522 37.9752C59.3323 38.4117 59.6087 38.979 59.6378 39.6191C61.8344 38.7753 64.5256 38.9644 65.7039 40.521C66.0385 40.972 66.2131 41.4957 66.1695 42.063C66.0967 42.9504 65.5148 43.8959 64.2347 44.7397C63.3182 45.3507 62.0381 46.2235 60.5688 47.2272C54.5026 51.3877 45.0469 57.8758 41.5556 58.8359C40.4937 59.1269 21.0877 58.7341 16.5344 58.7341C16.1853 59.5196 15.3852 60.0142 14.5124 59.9997C12.6358 59.9851 10.7592 59.9851 8.88261 59.956C7.67519 59.9415 6.71508 58.8796 6.74417 57.7158C6.846 52.4497 6.91874 47.1691 7.00602 41.903C7.03512 40.7101 8.03887 39.8082 9.23174 39.8082ZM16.9708 43.9105C16.8981 48.2746 16.8254 52.6534 16.7526 57.0321C21.3059 57.0321 40.0281 57.3812 41.1919 57.163C44.4505 56.2174 53.6734 49.8894 59.6087 45.8162C61.0779 44.8124 62.3435 43.9396 63.2891 43.3141C64.4529 42.5431 64.962 41.6993 63.7401 41.1465C62.8236 40.7247 61.3834 40.7247 59.8705 41.4229L48.3055 46.8199C46.3562 47.7219 36.5514 46.7763 34.1511 46.529C31.358 46.238 28.8705 45.8453 27.5612 45.4525C27.1684 45.5543 26.7466 45.3507 26.572 44.9724C26.1356 44.056 27.4885 42.9795 29.1469 41.9466C30.5725 41.0592 32.4927 39.9973 34.573 38.8917C34.602 38.8772 34.6166 38.8626 34.6457 38.8481C36.3768 38.0625 37.2496 36.8551 37.3515 35.7495C37.4242 34.9785 37.1187 34.2802 36.4495 33.8584C35.4603 33.2328 33.7438 33.2038 31.358 34.3384C28.6086 35.6477 26.5574 37.8443 24.3317 38.5135C21.8442 39.2554 19.9385 41.2484 17.8291 43.1104C17.5382 43.4159 17.2472 43.6777 16.9708 43.9105ZM14.8324 41.5975L9.23174 41.5538C8.98444 41.5538 8.76623 41.7139 8.76623 41.9612L8.50438 57.7594C8.50438 57.9922 8.6935 58.254 8.9408 58.254L14.5415 58.2977C14.7888 58.2977 15.007 58.1376 15.0215 57.8903L15.2834 42.0921C15.2688 41.8593 15.0797 41.5975 14.8324 41.5975ZM44.0286 45.467C45.076 45.4816 47.069 45.4816 47.5636 45.2488L57.4557 40.6228C57.8048 40.2155 57.9357 39.8809 57.9067 39.6191C57.863 39.2408 57.3684 38.9935 56.9902 38.9063C56.0446 38.659 54.6626 38.8481 53.3097 39.6918L44.0286 45.467Z" fill="#0CB4C4"></path></svg>