<svg xmlns="http://www.w3.org/2000/svg" xmlns:xlink="http://www.w3.org/1999/xlink" version="1.1" id="Layer_1" x="0px" y="0px" width="52.3px" height="60px" viewBox="0 0 52.3 60" style="enable-background:new 0 0 52.3 60;" xml:space="preserve"><style type="text/css"> .st0 { fill: #0CB4C4; } </style><g><path class="st0" d="M50.1,48.4c-0.3,0.8-1,1.2-1.9,1.2H4.1c-0.8,0-1.5-0.5-1.9-1.2c-0.3-0.8-0.2-1.6,0.4-2.2l6.2-6.9 c0.2-0.2,0.3-0.4,0.3-0.7V19.1c0-9.4,7.7-17.1,17.1-17.1c9.4,0,17.1,7.7,17.1,17.1v19.5c0,0.3,0.1,0.5,0.3,0.7l6.2,6.9 C50.3,46.9,50.4,47.7,50.1,48.4z M34.5,57.9H17.9c-0.6,0-1-0.5-1-1c0-0.6,0.5-1,1-1h16.6c0.6,0,1,0.5,1,1 C35.5,57.5,35,57.9,34.5,57.9z M34.5,53.8H17.9c-1.7,0-3.1,1.4-3.1,3.1c0,1.7,1.4,3.1,3.1,3.1h16.6c1.7,0,3.1-1.4,3.1-3.1 C37.6,55.2,36.2,53.8,34.5,53.8z M51.3,44.9l-6-6.6V19.1C45.3,8.6,36.7,0,26.2,0C15.6,0,7,8.6,7,19.1v19.1l-6,6.6 c-1.1,1.2-1.4,2.9-0.7,4.4c0.7,1.5,2.1,2.4,3.8,2.4h44.1c1.6,0,3.1-0.9,3.8-2.4C52.7,47.8,52.4,46.1,51.3,44.9z"></path></g></svg>