<svg width="81" height="60" viewBox="0 0 81 60" fill="none" xmlns="http://www.w3.org/2000/svg"><path d="M21.9639 43.75H17.3978C17.756 43.7499 18.11 43.6728 18.4358 43.524C18.7615 43.3752 19.0516 43.1582 19.2862 42.8876C19.5208 42.6169 19.6946 42.2991 19.7957 41.9555C19.8968 41.6119 19.9229 41.2506 19.8722 40.896L18.9445 34.3988C18.8279 33.596 18.456 32.8521 17.8837 32.2772L15.0889 29.4824V27.9879L18.2407 29.0601C18.4962 29.147 18.7643 29.1914 19.0342 29.1913C19.5469 29.1912 20.0474 29.0346 20.4688 28.7424C20.8901 28.4502 21.2122 28.0363 21.392 27.5562L21.8235 26.3836C21.9386 26.0707 21.99 25.7378 21.9745 25.4047C21.9591 25.0716 21.8771 24.7449 21.7335 24.4439C21.5899 24.143 21.3875 23.8737 21.1383 23.6522C20.8891 23.4306 20.5981 23.2611 20.2824 23.1537L15.0889 21.387V20.625C15.0875 19.4651 14.6261 18.3531 13.8059 17.533C12.9857 16.7128 11.8738 16.2514 10.7139 16.25H6.96387C5.80398 16.2514 4.69199 16.7128 3.87183 17.533C3.05166 18.3531 2.59027 19.4651 2.58887 20.625V41.25C2.58953 41.9128 2.85313 42.5483 3.32183 43.017C3.79053 43.4857 4.42603 43.7493 5.08887 43.75H1.96387C1.63235 43.75 1.31442 43.8817 1.08 44.1161C0.845585 44.3506 0.713884 44.6685 0.713867 45L0.713867 53.75C0.713884 54.0815 0.845585 54.3994 1.08 54.6339C1.31442 54.8683 1.63235 55 1.96387 55H21.9639C22.2954 55 22.6133 54.8683 22.8477 54.6339C23.0821 54.3994 23.2139 54.0815 23.2139 53.75V45C23.2139 44.6685 23.0821 44.3506 22.8477 44.1161C22.6133 43.8817 22.2954 43.75 21.9639 43.75ZM5.08887 20.625C5.08941 20.1279 5.28713 19.6513 5.63864 19.2998C5.99015 18.9483 6.46675 18.7505 6.96387 18.75H10.7139C11.1942 18.7512 11.6558 18.937 12.003 19.2689C12.3503 19.6008 12.5567 20.0535 12.5796 20.5333L10.7822 19.9219C10.4684 19.815 10.1249 19.8373 9.8274 19.9837C9.52991 20.1301 9.30276 20.3886 9.19593 20.7025C9.08909 21.0164 9.11131 21.3599 9.25771 21.6573C9.40411 21.9548 9.66269 22.182 9.97657 22.2888L19.4773 25.5206L19.0464 26.6931L9.48824 23.4418C9.33266 23.3882 9.16805 23.3659 9.00383 23.3761C8.8396 23.3863 8.67901 23.4288 8.53126 23.5012C8.3835 23.5736 8.25149 23.6745 8.1428 23.798C8.0341 23.9215 7.95086 24.0653 7.89785 24.221C7.84483 24.3768 7.82308 24.5415 7.83385 24.7057C7.84462 24.8699 7.8877 25.0303 7.9606 25.1778C8.03351 25.3253 8.13482 25.457 8.25872 25.5652C8.38262 25.6735 8.52667 25.7562 8.68262 25.8087L12.5889 27.1375V30C12.5891 30.0822 12.5973 30.1641 12.6135 30.2447C12.621 30.2822 12.6349 30.3169 12.6457 30.3531C12.6646 30.4411 12.6995 30.5248 12.7488 30.6002C12.7658 30.6311 12.7793 30.6633 12.7991 30.6929C12.8449 30.7618 12.8974 30.826 12.9559 30.8846L16.1161 34.0448C16.3068 34.2366 16.4307 34.4846 16.4695 34.7522L17.3978 41.25H14.9692L14.5023 36.6156C14.4438 36.0475 14.1937 35.5163 13.7931 35.1093L10.0889 31.3611V30.625C10.0889 30.2935 9.95717 29.9755 9.72275 29.7411C9.48833 29.5067 9.17039 29.375 8.83887 29.375C8.50735 29.375 8.1894 29.5067 7.95498 29.7411C7.72056 29.9755 7.58887 30.2935 7.58887 30.625V41.25H5.08887V20.625ZM10.0889 41.25V34.9183L12.0145 36.8665L12.4814 41.5008C12.5422 42.1179 12.8307 42.6903 13.2907 43.1061C13.7507 43.522 14.3491 43.7515 14.9692 43.75H7.58887C8.25171 43.7493 8.88721 43.4857 9.3559 43.017C9.8246 42.5483 10.0882 41.9128 10.0889 41.25ZM20.7139 52.5H3.21387V46.25H20.7139V52.5Z" fill="#0CB4C4"></path><path d="M8.83887 15C9.82777 15 10.7945 14.7068 11.6167 14.1574C12.439 13.6079 13.0798 12.827 13.4583 11.9134C13.8367 10.9998 13.9357 9.99446 13.7428 9.02455C13.5499 8.05465 13.0737 7.16373 12.3744 6.46447C11.6751 5.76521 10.7842 5.289 9.81432 5.09608C8.84441 4.90315 7.83908 5.00217 6.92545 5.3806C6.01182 5.75904 5.23093 6.39991 4.68152 7.22215C4.13211 8.0444 3.83887 9.0111 3.83887 10C3.84038 11.3256 4.36766 12.5965 5.30501 13.5339C6.24236 14.4712 7.51325 14.9985 8.83887 15ZM8.83887 7.5C9.33332 7.5 9.81667 7.64663 10.2278 7.92133C10.6389 8.19603 10.9593 8.58648 11.1486 9.04329C11.3378 9.50011 11.3873 10.0028 11.2908 10.4877C11.1944 10.9727 10.9563 11.4181 10.6066 11.7678C10.257 12.1174 9.81155 12.3555 9.32659 12.452C8.84164 12.5484 8.33897 12.4989 7.88216 12.3097C7.42534 12.1205 7.0349 11.8001 6.76019 11.3889C6.48549 10.9778 6.33887 10.4945 6.33887 10C6.33953 9.33716 6.60313 8.70166 7.07183 8.23297C7.54053 7.76427 8.17603 7.50066 8.83887 7.5Z" fill="#0CB4C4"></path><path d="M50.7139 35H30.7139C30.3824 35 30.0644 35.1317 29.83 35.3661C29.5956 35.6006 29.4639 35.9185 29.4639 36.25V53.75C29.4639 54.0815 29.5956 54.3994 29.83 54.6339C30.0644 54.8683 30.3824 55 30.7139 55H50.7139C51.0454 55 51.3633 54.8683 51.5977 54.6339C51.8321 54.3994 51.9639 54.0815 51.9639 53.75V36.25C51.9639 35.9185 51.8321 35.6006 51.5977 35.3661C51.3633 35.1317 51.0454 35 50.7139 35ZM31.9639 37.5H49.4639V43.75H31.9639V37.5ZM49.4639 52.5H31.9639V46.25H49.4639V52.5Z" fill="#0CB4C4"></path><path d="M79.4639 26.25H59.4639C59.1324 26.25 58.8144 26.3817 58.58 26.6161C58.3456 26.8506 58.2139 27.1685 58.2139 27.5V53.75C58.2139 54.0815 58.3456 54.3994 58.58 54.6339C58.8144 54.8683 59.1324 55 59.4639 55H79.4639C79.7954 55 80.1133 54.8683 80.3477 54.6339C80.5821 54.3994 80.7139 54.0815 80.7139 53.75V27.5C80.7139 27.1685 80.5821 26.8506 80.3477 26.6161C80.1133 26.3817 79.7954 26.25 79.4639 26.25ZM60.7139 37.5H78.2139V43.75H60.7139V37.5ZM60.7139 28.75H78.2139V35H60.7139V28.75ZM78.2139 52.5H60.7139V46.25H78.2139V52.5Z" fill="#0CB4C4"></path></svg>