<svg width="61" height="60" viewBox="0 0 61 60" fill="none" xmlns="http://www.w3.org/2000/svg"><path d="M30.584 48.3188C26.0483 48.3219 21.6733 46.6395 18.3082 43.5984C14.9432 40.5572 12.8282 36.3742 12.3738 31.8613C11.9194 27.3485 13.1581 22.8277 15.8493 19.1768C18.5405 15.5258 22.4924 13.0051 26.9376 12.1039C31.3829 11.2027 36.0044 11.9854 39.905 14.3C43.8056 16.6146 46.7071 20.296 48.0461 24.6295C49.3851 28.9631 49.0662 33.6395 47.1512 37.7511C45.2362 41.8627 41.8618 45.1161 37.683 46.8796C35.4372 47.8309 33.0229 48.3203 30.584 48.3188ZM30.584 13.6367C27.3439 13.6354 24.1762 14.5951 21.4816 16.3944C18.787 18.1937 16.6866 20.7518 15.4461 23.745C14.2056 26.7382 13.8806 30.0321 14.5124 33.21C15.1442 36.3879 16.7044 39.3071 18.9955 41.5982C21.2866 43.8893 24.2057 45.4494 27.3836 46.0812C30.5615 46.713 33.8554 46.3881 36.8486 45.1476C39.8419 43.907 42.3999 41.8066 44.1992 39.1121C45.9985 36.4175 46.9583 33.2498 46.957 30.0097C46.9519 25.6689 45.2252 21.5073 42.1558 18.4379C39.0863 15.3684 34.9248 13.6418 30.584 13.6367Z" fill="#0CB4C4"></path><path d="M36.1212 60H25.0467C24.7899 60 24.5437 59.898 24.3622 59.7165C24.1806 59.5349 24.0786 59.2887 24.0786 59.0319V54.5918C21.8787 54.0184 19.7664 53.15 17.7992 52.0103L14.6627 55.1468C14.5727 55.2376 14.4656 55.3096 14.3477 55.3587C14.2297 55.4079 14.1032 55.4332 13.9754 55.4332C13.8476 55.4332 13.7211 55.4079 13.6031 55.3587C13.4851 55.3096 13.3781 55.2376 13.2881 55.1468L5.46618 47.3056C5.37545 47.2156 5.30343 47.1085 5.25428 46.9906C5.20513 46.8726 5.17983 46.7461 5.17983 46.6183C5.17983 46.4905 5.20513 46.3639 5.25428 46.246C5.30343 46.128 5.37545 46.0209 5.46618 45.9309L8.60268 42.7944C7.46447 40.8243 6.59621 38.71 6.0212 36.5086H1.54233C1.28559 36.5086 1.03936 36.4066 0.857816 36.225C0.676271 36.0435 0.57428 35.7972 0.57428 35.5405V24.4789C0.57428 24.2221 0.676271 23.9759 0.857816 23.7943C1.03936 23.6128 1.28559 23.5108 1.54233 23.5108H5.98248C6.55748 21.3093 7.42575 19.1951 8.56395 17.2249L5.42746 14.0884C5.33672 13.9984 5.26471 13.8914 5.21556 13.7734C5.16641 13.6554 5.14111 13.5289 5.14111 13.4011C5.14111 13.2733 5.16641 13.1468 5.21556 13.0288C5.26471 12.9108 5.33672 12.8038 5.42746 12.7138L13.2881 4.8919C13.3781 4.80117 13.4851 4.72915 13.6031 4.68C13.7211 4.63086 13.8476 4.60555 13.9754 4.60555C14.1032 4.60555 14.2297 4.63086 14.3477 4.68C14.4656 4.72915 14.5727 4.80117 14.6627 4.8919L17.7992 8.0284C19.7664 6.88867 21.8787 6.02031 24.0786 5.44692V0.968054C24.0786 0.71131 24.1806 0.465082 24.3622 0.283537C24.5437 0.101991 24.7899 0 25.0467 0H36.1212C36.378 0 36.6242 0.101991 36.8057 0.283537C36.9873 0.465082 37.0893 0.71131 37.0893 0.968054V5.4082C39.2893 5.98159 41.4016 6.84995 43.3687 7.98967L46.5052 4.85318C46.5952 4.76244 46.7023 4.69043 46.8203 4.64128C46.9382 4.59213 47.0647 4.56683 47.1925 4.56683C47.3203 4.56683 47.4469 4.59213 47.5648 4.64128C47.6828 4.69043 47.7899 4.76244 47.8799 4.85318L55.7017 12.7138C55.7925 12.8038 55.8645 12.9108 55.9136 13.0288C55.9628 13.1468 55.9881 13.2733 55.9881 13.4011C55.9881 13.5289 55.9628 13.6554 55.9136 13.7734C55.8645 13.8914 55.7925 13.9984 55.7017 14.0884L52.5652 17.2249C53.7034 19.1951 54.5717 21.3093 55.1467 23.5108H59.6256C59.8823 23.5108 60.1286 23.6128 60.3101 23.7943C60.4917 23.9759 60.5936 24.2221 60.5936 24.4789V35.5405C60.5936 35.7972 60.4917 36.0435 60.3101 36.225C60.1286 36.4066 59.8823 36.5086 59.6256 36.5086H55.1661C54.5911 38.71 53.7228 40.8243 52.5846 42.7944L55.7211 45.9309C55.8118 46.0209 55.8839 46.128 55.933 46.246C55.9821 46.3639 56.0075 46.4905 56.0075 46.6183C56.0075 46.7461 55.9821 46.8726 55.933 46.9906C55.8839 47.1085 55.8118 47.2156 55.7211 47.3056L47.8799 55.1275C47.7899 55.2182 47.6828 55.2902 47.5648 55.3394C47.4469 55.3885 47.3203 55.4138 47.1925 55.4138C47.0647 55.4138 46.9382 55.3885 46.8203 55.3394C46.7023 55.2902 46.5952 55.2182 46.5052 55.1275L43.3687 51.991C41.4016 53.1307 39.2893 53.9991 37.0893 54.5724V59.0513C37.0842 59.3047 36.98 59.546 36.799 59.7233C36.618 59.9007 36.3747 60.0001 36.1212 60ZM26.0147 58.0639H35.1532V53.8303C35.1545 53.6121 35.2289 53.4006 35.3647 53.2298C35.5004 53.0589 35.6895 52.9386 35.9018 52.888C38.4155 52.3091 40.8148 51.3145 43.0009 49.9451C43.1864 49.8296 43.4057 49.7807 43.6228 49.8065C43.8398 49.8323 44.0415 49.9313 44.1948 50.0871L47.1893 53.0752L53.643 46.6215L50.6614 43.627C50.5056 43.4737 50.4066 43.272 50.3808 43.0549C50.355 42.8379 50.4039 42.6186 50.5194 42.433C51.8861 40.2456 52.8805 37.8467 53.4623 35.334C53.5129 35.12 53.634 34.9292 53.806 34.7923C53.9781 34.6554 54.1911 34.5802 54.411 34.5789H58.6382V25.4469H54.411C54.1911 25.4456 53.9781 25.3704 53.806 25.2335C53.634 25.0966 53.5129 24.9058 53.4623 24.6918C52.8805 22.1791 51.8861 19.7802 50.5194 17.5928C50.4039 17.4073 50.355 17.1879 50.3808 16.9709C50.4066 16.7539 50.5056 16.5521 50.6614 16.3988L53.6495 13.4108L47.1958 6.95708L44.2013 9.93224C44.048 10.0881 43.8462 10.187 43.6292 10.2128C43.4122 10.2386 43.1928 10.1898 43.0073 10.0742C40.8213 8.70491 38.4219 7.71027 35.9083 7.13133C35.696 7.08076 35.5069 6.96042 35.3711 6.78958C35.2354 6.61874 35.1609 6.40729 35.1596 6.18909V1.95547H26.0147V6.18909C26.0135 6.40729 25.939 6.61874 25.8033 6.78958C25.6675 6.96042 25.4784 7.08076 25.2661 7.13133C22.7524 7.71027 20.3531 8.70491 18.1671 10.0742C17.9815 10.1898 17.7622 10.2386 17.5452 10.2128C17.3281 10.187 17.1264 10.0881 16.9731 9.93224L13.9786 6.94418L7.52491 13.3979L10.513 16.3859C10.6688 16.5392 10.7678 16.7409 10.7936 16.958C10.8194 17.175 10.7705 17.3943 10.655 17.5799C9.28832 19.7673 8.29387 22.1662 7.71207 24.6789C7.66144 24.8929 7.54039 25.0837 7.36835 25.2206C7.19631 25.3575 6.98325 25.4327 6.76337 25.434H2.52975V34.5724H6.75692C6.9768 34.5738 7.18986 34.6489 7.3619 34.7859C7.53394 34.9228 7.65499 35.1136 7.70561 35.3275C8.28742 37.8403 9.28187 40.2392 10.6485 42.4266C10.764 42.6121 10.8129 42.8315 10.7871 43.0485C10.7613 43.2655 10.6623 43.4673 10.5065 43.6205L7.51846 46.6086L13.9722 53.0623L16.9667 50.0742C17.1199 49.9184 17.3217 49.8194 17.5387 49.7936C17.7557 49.7678 17.9751 49.8167 18.1606 49.9322C20.3466 51.3015 22.746 52.2962 25.2597 52.8751C25.4719 52.9257 25.6611 53.046 25.7968 53.2169C25.9325 53.3877 26.007 53.5992 26.0083 53.8174L26.0147 58.0639Z" fill="#0CB4C4"></path><path d="M23.5172 36.2181C22.9874 36.2181 22.4696 36.0611 22.0292 35.7668C21.5887 35.4725 21.2455 35.0542 21.0427 34.5648C20.84 34.0754 20.787 33.5369 20.8903 33.0173C20.9937 32.4978 21.2488 32.0206 21.6233 31.646C21.9979 31.2715 22.4751 31.0164 22.9947 30.913C23.5142 30.8097 24.0527 30.8627 24.5421 31.0654C25.0315 31.2682 25.4498 31.6114 25.7441 32.0519C26.0384 32.4923 26.1954 33.0101 26.1954 33.5399C26.1954 34.2502 25.9133 34.9314 25.411 35.4337C24.9087 35.936 24.2275 36.2181 23.5172 36.2181ZM23.5172 32.8041C23.3701 32.8041 23.2264 32.8478 23.1042 32.9297C22.982 33.0115 22.8869 33.1278 22.8309 33.2638C22.7749 33.3998 22.7606 33.5494 22.7898 33.6935C22.8189 33.8376 22.8902 33.9699 22.9947 34.0734C23.0991 34.1769 23.232 34.2471 23.3764 34.275C23.5208 34.3029 23.6702 34.2873 23.8057 34.2301C23.9412 34.173 24.0566 34.0768 24.1374 33.9539C24.2182 33.831 24.2606 33.6869 24.2593 33.5399C24.2593 33.4427 24.2401 33.3465 24.2027 33.2568C24.1653 33.1671 24.1106 33.0857 24.0416 33.0173C23.9726 32.9489 23.8907 32.8949 23.8007 32.8583C23.7107 32.8217 23.6143 32.8033 23.5172 32.8041Z" fill="#0CB4C4"></path><path d="M37.683 29.1513C37.1528 29.1526 36.634 28.9965 36.1926 28.7027C35.7512 28.4089 35.4069 27.9906 35.2034 27.501C34.9999 27.0113 34.9463 26.4723 35.0494 25.9521C35.1526 25.432 35.4078 24.9542 35.7827 24.5792C36.1577 24.2043 36.6355 23.9491 37.1556 23.8459C37.6758 23.7428 38.2148 23.7964 38.7045 23.9999C39.1941 24.2034 39.6124 24.5477 39.9062 24.9891C40.2 25.4305 40.3561 25.9493 40.3548 26.4795C40.3531 27.1876 40.0711 27.8662 39.5704 28.3669C39.0697 28.8676 38.3911 29.1496 37.683 29.1513ZM37.683 25.7373C37.536 25.7361 37.3918 25.7785 37.2689 25.8593C37.146 25.94 37.0499 26.0555 36.9927 26.191C36.9356 26.3265 36.92 26.4759 36.9479 26.6203C36.9758 26.7647 37.0459 26.8975 37.1495 27.002C37.253 27.1064 37.3852 27.1778 37.5294 27.2069C37.6735 27.2361 37.8231 27.2218 37.9591 27.1658C38.0951 27.1098 38.2114 27.0147 38.2932 26.8925C38.375 26.7703 38.4187 26.6266 38.4187 26.4795C38.4187 26.2838 38.3414 26.096 38.2036 25.957C38.0659 25.818 37.8787 25.739 37.683 25.7373Z" fill="#0CB4C4"></path><path d="M30.584 32.6815C30.0555 32.6815 29.5389 32.5248 29.0996 32.2312C28.6602 31.9376 28.3177 31.5204 28.1155 31.0321C27.9133 30.5439 27.8604 30.0067 27.9635 29.4884C28.0666 28.9701 28.321 28.4941 28.6947 28.1204C29.0683 27.7467 29.5444 27.4923 30.0627 27.3892C30.581 27.2861 31.1182 27.339 31.6064 27.5412C32.0946 27.7435 32.5119 28.0859 32.8055 28.5253C33.0991 28.9647 33.2558 29.4812 33.2558 30.0097C33.2558 30.7183 32.9743 31.3979 32.4732 31.8989C31.9722 32.4 31.2926 32.6815 30.584 32.6815ZM30.584 29.274C30.4384 29.274 30.2962 29.3171 30.1752 29.3979C30.0542 29.4788 29.9599 29.5937 29.9042 29.7281C29.8485 29.8626 29.834 30.0105 29.8624 30.1532C29.8908 30.2959 29.9608 30.427 30.0637 30.5299C30.1666 30.6328 30.2977 30.7029 30.4404 30.7313C30.5831 30.7596 30.7311 30.7451 30.8655 30.6894C30.9999 30.6337 31.1148 30.5394 31.1957 30.4184C31.2765 30.2974 31.3197 30.1552 31.3197 30.0097C31.3197 29.8145 31.2422 29.6274 31.1042 29.4894C30.9662 29.3515 30.7791 29.274 30.584 29.274Z" fill="#0CB4C4"></path><path d="M30.584 29.274C30.3272 29.274 30.081 29.172 29.8994 28.9904C29.7179 28.8089 29.6159 28.5626 29.6159 28.3059V20.1872C29.6159 19.9304 29.7179 19.6842 29.8994 19.5026C30.081 19.3211 30.3272 19.2191 30.584 19.2191C30.8407 19.2191 31.0869 19.3211 31.2685 19.5026C31.45 19.6842 31.552 19.9304 31.552 20.1872V28.3059C31.552 28.5626 31.45 28.8089 31.2685 28.9904C31.0869 29.172 30.8407 29.274 30.584 29.274Z" fill="#0CB4C4"></path><path d="M37.683 25.7373C37.4263 25.7373 37.1801 25.6353 36.9985 25.4538C36.817 25.2723 36.715 25.026 36.715 24.7693V20.1872C36.715 19.9304 36.817 19.6842 36.9985 19.5026C37.1801 19.3211 37.4263 19.2191 37.683 19.2191C37.9398 19.2191 38.186 19.3211 38.3675 19.5026C38.5491 19.6842 38.6511 19.9304 38.6511 20.1872V24.7693C38.6511 25.026 38.5491 25.2723 38.3675 25.4538C38.186 25.6353 37.9398 25.7373 37.683 25.7373Z" fill="#0CB4C4"></path><path d="M23.5172 40.8003C23.2604 40.8003 23.0142 40.6983 22.8326 40.5167C22.6511 40.3352 22.5491 40.089 22.5491 39.8322V35.2501C22.5491 34.9933 22.6511 34.7471 22.8326 34.5656C23.0142 34.384 23.2604 34.282 23.5172 34.282C23.7739 34.282 24.0201 34.384 24.2017 34.5656C24.3832 34.7471 24.4852 34.9933 24.4852 35.2501V39.8322C24.4852 40.089 24.3832 40.3352 24.2017 40.5167C24.0201 40.6983 23.7739 40.8003 23.5172 40.8003Z" fill="#0CB4C4"></path><path d="M30.584 40.8003C30.3272 40.8003 30.081 40.6983 29.8994 40.5167C29.7179 40.3352 29.6159 40.089 29.6159 39.8322V31.7135C29.6159 31.4567 29.7179 31.2105 29.8994 31.0289C30.081 30.8474 30.3272 30.7454 30.584 30.7454C30.8407 30.7454 31.0869 30.8474 31.2685 31.0289C31.45 31.2105 31.552 31.4567 31.552 31.7135V39.8322C31.552 40.089 31.45 40.3352 31.2685 40.5167C31.0869 40.6983 30.8407 40.8003 30.584 40.8003Z" fill="#0CB4C4"></path><path d="M37.683 40.8003C37.4263 40.8003 37.1801 40.6983 36.9985 40.5167C36.817 40.3352 36.715 40.0889 36.715 39.8322V28.2156C36.715 27.9588 36.817 27.7126 36.9985 27.531C37.1801 27.3495 37.4263 27.2475 37.683 27.2475C37.9398 27.2475 38.186 27.3495 38.3675 27.531C38.5491 27.7126 38.6511 27.9588 38.6511 28.2156V39.8322C38.6511 40.0889 38.5491 40.3352 38.3675 40.5167C38.186 40.6983 37.9398 40.8003 37.683 40.8003Z" fill="#0CB4C4"></path><path d="M23.5172 32.8041C23.2604 32.8041 23.0142 32.7021 22.8326 32.5206C22.6511 32.339 22.5491 32.0928 22.5491 31.8361V20.2194C22.5491 19.9627 22.6511 19.7165 22.8326 19.5349C23.0142 19.3534 23.2604 19.2514 23.5172 19.2514C23.7739 19.2514 24.0201 19.3534 24.2017 19.5349C24.3832 19.7165 24.4852 19.9627 24.4852 20.2194V31.8361C24.4852 32.0928 24.3832 32.339 24.2017 32.5206C24.0201 32.7021 23.7739 32.8041 23.5172 32.8041Z" fill="#0CB4C4"></path></svg>