<svg version="1.1" xmlns="http://www.w3.org/2000/svg" xmlns:xlink="http://www.w3.org/1999/xlink" xmlns:a="http://ns.adobe.com/AdobeSVGViewerExtensions/3.0/" x="0px" y="0px" width="64px" height="60px" viewBox="-1.439 0 64 60" enable-background="new -1.439 0 64 60" xml:space="preserve"><rect x="55.059" y="55.058" fill="#0097A4" width="1.977" height="1.977"></rect><rect x="39.245" y="55.058" fill="#0097A4" width="1.977" height="1.977"></rect><rect x="23.431" y="55.058" fill="#0097A4" width="1.978" height="1.977"></rect><rect x="7.617" y="55.058" fill="#0097A4" width="1.977" height="1.977"></rect><path fill="#0097A4" d="M11.571,36.279H1.688c-0.546,0-0.988,0.442-0.988,0.988v21.743C0.699,59.557,1.142,60,1.688,60h9.884 c0.545,0,0.988-0.443,0.988-0.989V37.268C12.56,36.722,12.116,36.279,11.571,36.279z M10.583,58.022H2.676V38.256h7.907V58.022z"></path><path fill="#0097A4" d="M27.385,30.349h-9.884c-0.546,0-0.988,0.443-0.988,0.988v27.674c0,0.546,0.442,0.989,0.988,0.989h9.884 c0.546,0,0.988-0.443,0.988-0.989V31.337C28.373,30.792,27.931,30.349,27.385,30.349z M26.396,58.022h-7.907V32.325h7.907V58.022z"></path><path fill="#0097A4" d="M43.198,24.419h-9.884c-0.546,0-0.988,0.442-0.988,0.988v33.604c0,0.546,0.442,0.989,0.988,0.989h9.884 c0.546,0,0.988-0.443,0.988-0.989V25.407C44.187,24.861,43.744,24.419,43.198,24.419z M42.21,58.022h-7.907V26.396h7.907V58.022z"></path><path fill="#0097A4" d="M59.012,16.512h-9.884c-0.545,0-0.988,0.443-0.988,0.988v41.511c0,0.546,0.443,0.989,0.988,0.989h9.884 C59.558,60,60,59.557,60,59.011V17.5C60,16.955,59.558,16.512,59.012,16.512z M58.023,58.022h-7.907V18.488h7.907V58.022z"></path><path fill="#0097A4" d="M59.302,0L46.657,12.644L41.92,7.906c-0.386-0.386-1.011-0.386-1.397,0L26.396,22.033L16.223,11.859 c-0.386-0.386-1.011-0.386-1.397,0L0,26.685l1.397,1.398l14.127-14.127l10.173,10.173c0.386,0.387,1.012,0.387,1.397,0 l14.127-14.126l4.737,4.737c0.386,0.386,1.011,0.386,1.397,0L60.699,1.397L59.302,0z"></path></svg>