<svg version="1.1" xmlns="http://www.w3.org/2000/svg" xmlns:xlink="http://www.w3.org/1999/xlink" xmlns:a="http://ns.adobe.com/AdobeSVGViewerExtensions/3.0/" x="0px" y="0px" width="36px" height="60px" viewBox="-0.499 0 36 60" enable-background="new -0.499 0 36 60" xml:space="preserve"><path fill="#0097A4" d="M31.933,0H4.067C1.861-0.037,0.041,1.721,0,3.927v52.147c0.041,2.204,1.861,3.962,4.067,3.925h27.865 c2.209,0.037,4.027-1.721,4.069-3.925V3.927C35.96,1.721,34.142-0.037,31.933,0z M34.667,56.074c-0.058,1.46-1.27,2.611-2.734,2.593 H4.067c-1.471,0.037-2.694-1.123-2.733-2.593V3.927c0.039-1.47,1.263-2.631,2.733-2.593h27.865c1.472-0.038,2.695,1.123,2.734,2.593 V56.074z"></path><path fill="#0097A4" d="M16.667,4.667h4.7c0.367,0,0.665-0.298,0.665-0.667c0-0.368-0.298-0.667-0.665-0.667h-4.7 c-0.368,0-0.666,0.299-0.666,0.667C16.001,4.369,16.299,4.667,16.667,4.667z"></path><circle fill="#0097A4" cx="14" cy="4" r="0.667"></circle><path fill="#0097A4" d="M31.333,2.667h-4.76c-1.03-0.006-1.895,0.774-1.999,1.799c-0.107,1.333-0.914,2.18-2.093,2.201h-9.548 c-1.152,0-1.999-0.867-2.079-2.201c-0.104-1.025-0.97-1.805-2.001-1.799H4.667c-1.104,0-1.999,0.895-1.999,2v50.668 c0,1.103,0.895,2,1.999,2h26.666c1.106,0,2-0.897,2-2V4.667C33.333,3.563,32.439,2.667,31.333,2.667z M32,55.335 C32,55.702,31.702,56,31.333,56H4.667c-0.368,0-0.666-0.298-0.666-0.665V4.667C4.001,4.299,4.299,4,4.667,4h4.174 c0.337-0.003,0.623,0.246,0.666,0.581C9.668,6.581,11.066,8,12.914,8h9.567c1.839,0,3.245-1.407,3.406-3.419 C25.93,4.246,26.218,3.997,26.553,4h4.78C31.702,4,32,4.299,32,4.667V55.335z"></path><path fill="#0097A4" d="M15.334,13.334h-8c-1.104,0-2,0.895-2,2v8c0,1.104,0.896,2,2,2h8c1.104,0,2-0.896,2-2v-8 C17.334,14.229,16.438,13.334,15.334,13.334z M16.001,23.334c0,0.368-0.299,0.667-0.667,0.667h-8c-0.369,0-0.666-0.299-0.666-0.667 v-8c0-0.368,0.297-0.666,0.666-0.666h8c0.368,0,0.667,0.298,0.667,0.666V23.334z"></path><path fill="#0097A4" d="M28.668,13.334h-8c-1.104,0-2.001,0.895-2.001,2v8c0,1.104,0.896,2,2.001,2h8c1.103,0,2-0.896,2-2v-8 C30.668,14.229,29.771,13.334,28.668,13.334z M29.333,23.334c0,0.368-0.297,0.667-0.665,0.667h-8C20.298,24,20,23.702,20,23.334v-8 c0-0.368,0.298-0.666,0.668-0.666h8c0.368,0,0.665,0.298,0.665,0.666V23.334z"></path><path fill="#0097A4" d="M15.334,26.667h-8c-1.104,0-2,0.895-2,2v7.999c0,1.104,0.896,2.002,2,2.002h8c1.104,0,2-0.897,2-2.002 v-7.999C17.334,27.563,16.438,26.667,15.334,26.667z M16.001,36.666c0,0.37-0.299,0.668-0.667,0.668h-8 c-0.369,0-0.666-0.298-0.666-0.668v-7.999C6.668,28.298,6.965,28,7.334,28h8c0.368,0,0.667,0.298,0.667,0.667V36.666z"></path><path fill="#0097A4" d="M28.668,26.667h-8c-1.104,0-2.001,0.895-2.001,2v7.999c0,1.104,0.896,2.002,2.001,2.002h8 c1.103,0,2-0.897,2-2.002v-7.999C30.668,27.563,29.771,26.667,28.668,26.667z M29.333,36.666c0,0.37-0.297,0.668-0.665,0.668h-8 c-0.37,0-0.668-0.298-0.668-0.668v-7.999C20,28.298,20.298,28,20.668,28h8c0.368,0,0.665,0.298,0.665,0.667V36.666z"></path><path fill="#0097A4" d="M15.334,40.001h-8c-1.104,0-2,0.895-2,1.999v8.001c0,1.103,0.896,2,2,2h8c1.104,0,2-0.897,2-2V42 C17.334,40.896,16.438,40.001,15.334,40.001z M16.001,50.001c0,0.367-0.299,0.665-0.667,0.665h-8c-0.369,0-0.666-0.298-0.666-0.665 V42c0-0.369,0.297-0.667,0.666-0.667h8c0.368,0,0.667,0.298,0.667,0.667V50.001z"></path><path fill="#0097A4" d="M28.668,40.001h-8c-1.104,0-2.001,0.895-2.001,1.999v8.001c0,1.103,0.896,2,2.001,2h8c1.103,0,2-0.897,2-2 V42C30.668,40.896,29.771,40.001,28.668,40.001z M29.333,50.001c0,0.367-0.297,0.665-0.665,0.665h-8 c-0.37,0-0.668-0.298-0.668-0.665V42c0-0.369,0.298-0.667,0.668-0.667h8c0.368,0,0.665,0.298,0.665,0.667V50.001z"></path><path fill="#0097A4" d="M12.667,32h-1.333l1.2-1.6c0.222-0.294,0.161-0.713-0.135-0.934c-0.294-0.22-0.712-0.161-0.933,0.134 l-2,2.667c-0.221,0.295-0.161,0.711,0.135,0.933c0.115,0.088,0.256,0.135,0.399,0.135h1.565l-0.945,1.825 c-0.17,0.327-0.043,0.729,0.284,0.899c0,0,0.001,0,0.003,0c0.094,0.049,0.199,0.074,0.305,0.074c0.248-0.002,0.474-0.14,0.588-0.36 l1.46-2.799c0.169-0.328,0.042-0.73-0.286-0.899C12.881,32.025,12.775,32,12.667,32z"></path><path fill="#0097A4" d="M24.12,16.287c-0.446,0.667-1.899,2.828-1.899,3.934c0,1.351,1.095,2.446,2.446,2.446 c1.351,0,2.448-1.095,2.448-2.446c0-1.106-1.456-3.293-1.902-3.934c-0.209-0.301-0.625-0.375-0.928-0.165 C24.223,16.167,24.167,16.223,24.12,16.287z M24.667,21.333c-0.614,0-1.114-0.499-1.114-1.113c0.232-0.839,0.609-1.631,1.114-2.34 c0.504,0.709,0.881,1.501,1.113,2.34C25.78,20.834,25.283,21.333,24.667,21.333L24.667,21.333z"></path><path fill="#0097A4" d="M26.669,31.334V31.2c0-1.104-0.897-2-2.002-2s-2,0.895-2,2v0.134C22.298,31.334,22,31.633,22,32v1.335 c0,1.472,1.195,2.664,2.667,2.664s2.667-1.192,2.667-2.664V32C27.334,31.633,27.036,31.334,26.669,31.334z M23.999,31.2 c0-0.368,0.301-0.666,0.668-0.666c0.369,0,0.667,0.298,0.667,0.666v0.134h-1.335V31.2z M25.999,33.335 c0,0.734-0.595,1.332-1.332,1.332s-1.332-0.598-1.332-1.332v-0.668h2.664V33.335z"></path><path fill="#0097A4" d="M14.134,17.527c-0.198-0.31-0.61-0.399-0.919-0.2L12,18.107v-1.44C12,16.298,11.701,16,11.334,16 c-0.368,0-0.667,0.298-0.667,0.667v1.44l-1.214-0.773c-0.319-0.182-0.727-0.071-0.908,0.249c-0.169,0.295-0.088,0.672,0.189,0.871 l1.373,0.88l-1.373,0.887c-0.31,0.2-0.398,0.612-0.198,0.921c0.122,0.19,0.333,0.305,0.558,0.306 c0.129-0.001,0.253-0.037,0.359-0.107l1.214-0.78V22c0,0.368,0.299,0.667,0.667,0.667C11.701,22.667,12,22.368,12,22v-1.44 l1.215,0.773c0.106,0.07,0.23,0.107,0.359,0.107c0.367-0.001,0.666-0.3,0.664-0.668c0-0.226-0.115-0.436-0.305-0.558l-1.373-0.88 l1.373-0.887C14.243,18.248,14.332,17.836,14.134,17.527z"></path><path fill="#0097A4" d="M14.387,42.793c-0.172-0.125-0.396-0.16-0.6-0.093l-4,1.335l0,0c-0.044,0.019-0.086,0.044-0.127,0.071 l-0.093,0.061c-0.029,0.035-0.056,0.067-0.08,0.105c-0.026,0.032-0.049,0.064-0.066,0.102s-0.029,0.079-0.034,0.121 c-0.006,0.042-0.006,0.089,0,0.13l0,0v3.335H8.668C8.299,47.96,8,48.257,8,48.627s0.299,0.667,0.668,0.667h1.333 c0.367,0,0.666-0.297,0.666-0.667v-3.48l2.667-0.886v2.406h-0.667c-0.368,0-0.667,0.298-0.667,0.665c0,0.369,0.299,0.67,0.667,0.67 H14c0.369,0,0.668-0.301,0.668-0.67v-3.999C14.666,43.119,14.562,42.919,14.387,42.793z"></path><path fill="#0097A4" d="M27.334,45.332h-0.786l-0.079-0.19l0.558-0.554c0.261-0.263,0.261-0.688,0-0.948 c-0.26-0.261-0.684-0.261-0.946,0L25.527,44.2l-0.193-0.082v-0.785c0-0.368-0.298-0.665-0.667-0.665 c-0.367,0-0.668,0.297-0.668,0.665v0.785l-0.19,0.082l-0.553-0.561c-0.263-0.261-0.688-0.261-0.949,0s-0.261,0.686,0,0.948 l0.561,0.554l-0.081,0.19H22c-0.367,0-0.665,0.3-0.665,0.67c0,0.367,0.298,0.665,0.665,0.665h0.786l0.081,0.192l-0.561,0.554 c-0.261,0.258-0.263,0.682-0.005,0.941c0.003,0.003,0.005,0.005,0.005,0.005c0.126,0.126,0.298,0.195,0.475,0.195 s0.347-0.069,0.475-0.195l0.553-0.558l0.19,0.079v0.785c0,0.368,0.301,0.668,0.668,0.668c0.369,0,0.667-0.3,0.667-0.668v-0.785 l0.193-0.079l0.553,0.558c0.126,0.126,0.296,0.195,0.473,0.195c0.179,0,0.349-0.069,0.474-0.195 c0.261-0.258,0.266-0.681,0.005-0.941c0-0.002-0.002-0.002-0.005-0.005l-0.558-0.554l0.079-0.192h0.786 c0.367,0,0.667-0.298,0.667-0.665C28.001,45.632,27.701,45.332,27.334,45.332z M24.667,46.667c-0.367,0-0.668-0.298-0.668-0.665 c0-0.37,0.301-0.67,0.668-0.67c0.369,0,0.667,0.3,0.667,0.67C25.334,46.369,25.036,46.667,24.667,46.667z"></path></svg>