<svg version="1.1" xmlns="http://www.w3.org/2000/svg" xmlns:xlink="http://www.w3.org/1999/xlink" xmlns:a="http://ns.adobe.com/AdobeSVGViewerExtensions/3.0/" x="0px" y="0px" width="78px" height="60px" viewBox="0 0 78 60" enable-background="new 0 0 78 60" xml:space="preserve"><circle fill="#0097A4" cx="62.672" cy="26.113" r="3.917"></circle><circle fill="#0097A4" cx="48.31" cy="26.113" r="3.917"></circle><circle fill="#0097A4" cx="33.947" cy="26.113" r="3.917"></circle><path fill="#0097A4" d="M73.574,40.24c3.072-4.071,4.745-9.027,4.766-14.127C78.34,11.75,64.864,0,48.31,0 C37.407,0,27.419,5.092,22.196,13.331C9.479,15.002,0,24.403,0,35.447c0.02,4.357,1.459,8.588,4.101,12.053L1.163,58.414 c-0.11,0.486,0.068,0.992,0.456,1.307c0.411,0.324,0.978,0.369,1.437,0.117l9.558-5.287c4.17,2.164,8.801,3.293,13.5,3.289 c6.393,0.064,12.618-2.023,17.678-5.927c1.499,0.204,3.007,0.31,4.519,0.313c5.457,0.028,10.838-1.285,15.668-3.826l11.137,6.268 c0.188,0.105,0.399,0.164,0.614,0.17c0.289,0,0.567-0.098,0.795-0.275c0.395-0.309,0.578-0.816,0.472-1.307L73.574,40.24z M13.227,51.991c-0.404-0.234-0.9-0.234-1.306,0l-7.429,4.151l2.298-8.592c0.101-0.401,0.004-0.828-0.262-1.149 c-2.509-3.101-3.892-6.964-3.917-10.954c0-9.139,7.535-17.064,17.902-19.205c-1.462,3.086-2.226,6.456-2.234,9.871 c0,11.868,9.062,22.053,21.935,25.133c-4.233,2.615-9.124,3.975-14.101,3.918c-4.495,0.043-8.929-1.051-12.887-3.187V51.991z M64.603,45.789c-0.402-0.234-0.9-0.234-1.306,0c-4.586,2.533-9.748,3.85-14.987,3.826c-1.574,0.004-3.146-0.113-4.701-0.354 c-13.16-1.945-22.718-11.672-22.718-23.149c0.016-3.852,1.095-7.625,3.121-10.902l0,0C28.725,7.442,38.085,2.611,48.31,2.611 c15.12,0,27.419,10.537,27.419,23.501c-0.025,4.747-1.649,9.345-4.609,13.057c-0.246,0.317-0.335,0.732-0.236,1.123l2.795,10.627 L64.603,45.789z"></path></svg>