<svg xmlns="http://www.w3.org/2000/svg" width="60" height="60" viewBox="0 0 60 60" fill="none"><path fill-rule="evenodd" clip-rule="evenodd" d="M24.2584 38.4167C24.2263 38.2906 24.1842 38.1693 24.1322 38.0506C23.9962 37.7438 23.8007 37.4692 23.5533 37.2416C21.7276 35.5098 20.6761 33.1199 20.6316 30.6041C20.5871 28.088 21.5544 25.661 23.3183 23.8672C25.0797 22.0711 27.4894 21.0616 30.0057 21.0616C32.522 21.0616 34.9313 22.0711 36.693 23.8672C38.457 25.6608 39.4243 28.0879 39.3797 30.6041C39.3352 33.1202 38.2837 35.5101 36.458 37.2416C36.2131 37.4692 36.0151 37.7438 35.8791 38.0506C35.8271 38.1693 35.7851 38.2906 35.7529 38.4167C36.3887 38.6617 36.8018 39.2777 36.7845 39.958C36.7697 40.6384 36.3269 41.2346 35.6811 41.4474V41.8086C35.6811 42.3529 35.602 42.8947 35.4461 43.4168H42.314C42.93 43.4143 43.4272 42.917 43.4297 42.301V17.6897C43.4272 17.0737 42.93 16.5764 42.314 16.5739H17.7008C17.0848 16.5764 16.5875 17.0737 16.5851 17.6897V42.301C16.5875 42.917 17.0848 43.4143 17.7008 43.4168H24.5687C24.4128 42.8948 24.3336 42.3529 24.3361 41.8086V41.4474C23.6879 41.2347 23.2451 40.6385 23.2302 39.958C23.2129 39.2777 23.6261 38.6616 24.2619 38.4167H24.2584ZM1.4116 43.4266C1.41408 43.9313 1.77033 44.3643 2.26267 44.4608C2.75746 44.5597 3.25225 44.295 3.44523 43.8299C3.63572 43.3623 3.47244 42.8279 3.05434 42.5484C2.63624 42.2688 2.07711 42.3233 1.72086 42.6795C1.52295 42.8774 1.4116 43.1471 1.4116 43.4266ZM0.728807 45.1708C0.187011 44.634 -0.0752075 43.8769 0.0187789 43.1199C0.112791 42.3628 0.548206 41.6923 1.20381 41.3014C1.85943 40.9105 2.65851 40.8462 3.36606 41.1233C4.07609 41.4029 4.61791 41.9942 4.83311 42.724H7.65587L10.1125 40.5641V40.5666C10.2164 40.4726 10.3352 40.4008 10.4663 40.3538C10.5949 40.3044 10.731 40.2796 10.8695 40.2796H15.1767L15.1792 38.0233H10.8498C10.7261 38.0233 10.6049 38.001 10.4861 37.9615C10.3698 37.9219 10.261 37.865 10.1645 37.7908L7.69057 35.9278H4.12067C3.93018 35.9352 3.74463 35.8635 3.60856 35.7299C3.4725 35.5988 3.3958 35.4157 3.3958 35.2252C3.3958 35.0347 3.47249 34.8541 3.60856 34.7205C3.74463 34.5894 3.93018 34.5176 4.12067 34.5226H7.77221C7.8959 34.5226 8.01713 34.5424 8.13588 34.5844C8.25215 34.6215 8.36101 34.6809 8.45997 34.7551L10.9339 36.6156H15.1792V34.3618H10.9438C10.5554 34.3618 10.2387 34.0451 10.2387 33.6567C10.2387 33.2682 10.5553 32.954 10.9438 32.954H15.1792V30.6977H8.24483C7.88858 32.1623 6.49575 33.1296 4.999 32.9516C3.50225 32.7709 2.37663 31.5018 2.37663 29.9951C2.37663 28.4884 3.50225 27.2192 4.999 27.0386C6.49575 26.8605 7.88858 27.8278 8.24483 29.2924H15.1792V27.0361H10.9438C10.5554 27.0361 10.2387 26.7219 10.2387 26.3335C10.2387 25.9451 10.5553 25.6284 10.9438 25.6284H15.1792V23.3746H10.872C10.7335 23.3746 10.5974 23.3498 10.4688 23.3003C10.3376 23.2509 10.2189 23.1791 10.115 23.0876L7.65588 20.9277H4.83312C4.4843 22.1029 3.32649 22.8426 2.11423 22.667C0.90197 22.4888 0.00149899 21.4497 0.00149899 20.2251C0.00149899 19.0004 0.902033 17.9614 2.11423 17.7832C3.32649 17.6076 4.48429 18.3473 4.83312 19.5225H7.7524C7.89095 19.5225 8.02701 19.5472 8.15813 19.5967C8.26203 19.6363 8.36099 19.6907 8.45006 19.7624C8.46985 19.7773 8.48964 19.7921 8.50943 19.8094L10.9661 21.9693H15.1767L15.1792 19.713H11.4188C11.1466 19.7105 10.8844 19.6017 10.689 19.4087L10.684 19.4037C10.4911 19.2108 10.3847 18.9485 10.3822 18.6739V15.0173C9.21201 14.6685 8.47234 13.5107 8.65043 12.3009C8.82608 11.091 9.86269 10.1955 11.0848 10.1955C12.3094 10.1955 13.346 11.0911 13.5217 12.3009C13.6998 13.5107 12.9601 14.6685 11.7899 15.0173V18.3053H15.1793V17.6893C15.1817 16.2989 16.3099 15.1707 17.7002 15.1658H18.3163V10.955L16.1565 8.49832C16.1391 8.47852 16.1243 8.45873 16.1095 8.43894C16.0402 8.34988 15.9858 8.25091 15.9462 8.147C15.8967 8.01588 15.8695 7.87981 15.8695 7.74127V4.82191C14.6993 4.47308 13.9596 3.31524 14.1377 2.10542C14.3134 0.895593 15.35 3.79015e-05 16.5746 3.79015e-05C17.7967 3.79015e-05 18.8333 0.895656 19.0115 2.10542C19.1871 3.31524 18.4499 4.47306 17.2772 4.82191V7.64475L19.437 10.1014C19.6201 10.3117 19.7215 10.5814 19.724 10.8585V15.1658H21.9802V10.8387H21.9777C21.9802 10.5913 22.0618 10.3513 22.2103 10.151L24.0707 7.67698V4.10946C24.0657 3.91896 24.1375 3.73341 24.2686 3.59734C24.4022 3.46127 24.5828 3.38457 24.7733 3.38457C24.9638 3.38457 25.1469 3.46126 25.278 3.59734C25.4116 3.73341 25.4833 3.91896 25.4759 4.10946V7.76109C25.4759 7.88479 25.4561 8.00602 25.4165 8.12477C25.377 8.24105 25.3201 8.34991 25.2458 8.44887L23.3854 10.9229V15.1683H25.6417L25.6392 10.9327C25.6392 10.5443 25.9559 10.2276 26.3443 10.2276C26.7327 10.2276 27.0469 10.5443 27.0469 10.9327V15.1683H29.3031V8.23372C27.8386 7.87746 26.8713 6.48213 27.0494 4.98781C27.23 3.49102 28.4991 2.36537 30.0058 2.36537C31.5124 2.36537 32.7815 3.49102 32.9622 4.98781C33.1403 6.48213 32.173 7.87746 30.7084 8.23372V15.1657H32.9646V10.9327C32.9646 10.5443 33.2788 10.2276 33.6672 10.2276C34.0557 10.2276 34.3723 10.5442 34.3723 10.9327V15.1682H36.6286L36.6261 10.8609C36.6286 10.5813 36.73 10.3142 36.9131 10.1039L39.0729 7.64471V4.82187C37.9002 4.47304 37.163 3.3152 37.3386 2.10538C37.5142 0.895555 38.5533 0 39.7755 0C40.9976 0 42.0367 0.895618 42.2124 2.10538C42.388 3.3152 41.6508 4.47302 40.4781 4.82187V7.74123C40.4781 7.87977 40.4534 8.01584 40.4039 8.14697C40.3643 8.25087 40.3099 8.34983 40.2381 8.4389C40.2233 8.45869 40.2084 8.47849 40.1911 8.49828L38.0313 10.955V15.1657H40.2876V11.4077C40.2901 11.1355 40.3989 10.8733 40.5919 10.6779L40.5968 10.6729C40.7898 10.48 41.052 10.3711 41.3266 10.3711H44.9856H44.9831C45.3319 9.1984 46.4897 8.46118 47.6995 8.63681C48.9093 8.81494 49.8073 9.85157 49.8073 11.0737C49.8073 12.2984 48.9092 13.335 47.6995 13.5107C46.4897 13.6888 45.3319 12.9491 44.9831 11.7789H41.6952V15.1683H42.3112V15.1658C43.7016 15.1708 44.8297 16.2989 44.8347 17.6893V18.3054H49.0453L51.5019 16.1455C51.6058 16.054 51.7246 15.9822 51.8557 15.9352C51.9844 15.8857 52.1204 15.8585 52.259 15.8585H55.1783C55.5271 14.6883 56.6849 13.9486 57.8947 14.1267C59.1045 14.3023 60 15.339 60 16.5636C60 17.7858 59.1044 18.8224 57.8947 19.0006C56.6849 19.1762 55.5271 18.439 55.1783 17.2663H52.3555L49.8989 19.4236C49.795 19.5176 49.6762 19.5893 49.5451 19.6363C49.4165 19.6858 49.2804 19.7106 49.1418 19.7106H44.8347V21.9669H49.1616C49.409 21.9693 49.649 22.051 49.8493 22.1994L52.3232 24.0599H55.8932H55.8907C56.0812 24.0549 56.2667 24.1267 56.4028 24.2578C56.5388 24.3914 56.6155 24.572 56.6155 24.7625C56.6155 24.953 56.5389 25.1361 56.4028 25.2672C56.2667 25.4008 56.0812 25.4726 55.8907 25.4651H52.2391C51.9917 25.4651 51.7518 25.3835 51.5514 25.2351L49.0775 23.3746H44.8347V25.6309H49.0701L49.0676 25.6284C49.2581 25.6235 49.4436 25.6952 49.5797 25.8288C49.7158 25.9599 49.7925 26.143 49.7925 26.3335C49.7925 26.524 49.7158 26.7046 49.5797 26.8382C49.4436 26.9694 49.2581 27.0411 49.0676 27.0362H44.8347V29.2925H51.769H51.7665C52.1228 27.8278 53.5156 26.8605 55.0124 27.0411C56.5067 27.2192 57.6323 28.4884 57.6323 29.9951C57.6323 31.5018 56.5067 32.7709 55.0124 32.9491C53.5156 33.1297 52.1228 32.1623 51.7665 30.6977H44.8322V32.954H49.0676C49.456 32.954 49.7727 33.2682 49.7727 33.6567C49.7727 34.0451 49.456 34.3618 49.0676 34.3618H44.8347V36.6181L49.1394 36.6156C49.4189 36.6181 49.6861 36.7195 49.8964 36.9026L52.3555 39.0624H55.1782C55.5271 37.8897 56.6824 37.1525 57.8922 37.3281C59.102 37.5063 60 38.5429 60 39.7651C60 40.9872 59.1019 42.0238 57.8922 42.202C56.6824 42.3777 55.5271 41.6404 55.1782 40.4677H52.259C51.9794 40.4677 51.7097 40.3663 51.5019 40.1807L49.0453 38.0209L44.8347 38.0234V40.2797H48.5926V40.2772C48.8647 40.2797 49.127 40.3885 49.3224 40.5815L49.3273 40.5864H49.3249C49.5203 40.7794 49.6292 41.0417 49.6292 41.3162V44.9753V44.9728C50.7994 45.3217 51.539 46.4795 51.3609 47.6893C51.1853 48.8991 50.1487 49.7947 48.9265 49.7947C47.7019 49.7947 46.6654 48.8991 46.4897 47.6893C46.3115 46.4795 47.0513 45.3217 48.2215 44.9728V41.6849H44.8346V42.3009C44.8296 43.6913 43.7015 44.8195 42.3111 44.8244H41.6951V49.0352L43.8549 51.4919C43.9464 51.5958 44.0182 51.7145 44.0652 51.8432C44.1147 51.9743 44.1419 52.1104 44.1419 52.2489V55.1683C45.3121 55.5171 46.0518 56.6749 45.8737 57.8848C45.698 59.0946 44.6614 59.9901 43.4368 59.9901C42.2147 59.9901 41.1781 59.0945 40.9999 57.8848C40.8243 56.6749 41.5615 55.5171 42.7342 55.1683V52.3454L40.5769 49.8887C40.3914 49.6784 40.2899 49.4112 40.2899 49.1317V44.8244H38.0337V49.1514C38.0312 49.3988 37.9496 49.6388 37.8011 49.8392L35.9383 52.3107V55.8807C35.9457 56.0712 35.8739 56.2568 35.7403 56.3928C35.6092 56.5289 35.4262 56.6056 35.2357 56.6056C35.0452 56.6056 34.8646 56.5289 34.731 56.3928C34.5999 56.2568 34.5281 56.0712 34.5331 55.8807V52.2291C34.5331 51.9817 34.6147 51.7417 34.7656 51.5413L36.626 49.0673V44.8244H34.8052C34.6741 45.0322 34.5281 45.2326 34.3698 45.4231V49.0575C34.3698 49.4459 34.0556 49.7626 33.6672 49.7626C33.2787 49.7626 32.9621 49.4459 32.9621 49.0575V46.6453C32.2768 47.0683 31.5074 47.338 30.7083 47.4394V51.7615V51.7591C32.1704 52.1153 33.1377 53.5082 32.9596 55.005C32.779 56.4993 31.5098 57.625 30.0032 57.625C28.499 57.625 27.2299 56.4993 27.0493 55.005C26.8712 53.5082 27.8385 52.1153 29.3006 51.7591V47.4394C28.5015 47.338 27.7321 47.0683 27.0468 46.6453V49.0599V49.0575C27.0468 49.4459 26.7302 49.7626 26.3417 49.7626C25.9533 49.7626 25.6391 49.4459 25.6391 49.0575V45.4231C25.4808 45.2326 25.3348 45.0322 25.2037 44.8244H23.3853V49.1292C23.3829 49.4088 23.2814 49.676 23.0984 49.8862L20.9386 52.3454V55.1682C22.1137 55.5171 22.8534 56.6749 22.6778 57.8872C22.4996 59.0995 21.4606 60 20.236 60C19.0113 60 17.9723 59.0994 17.7941 57.8872C17.6185 56.6749 18.3582 55.5171 19.5333 55.1682V52.2489C19.5333 51.9693 19.6348 51.6997 19.8178 51.4919L21.9776 49.0352V44.8244H19.7239V48.5824C19.7214 48.8546 19.6125 49.1168 19.4196 49.3122L19.4146 49.3172C19.2216 49.5102 18.9594 49.6165 18.6848 49.619H15.0283C14.6795 50.7893 13.5217 51.5289 12.3119 51.3508C11.1021 51.1752 10.2066 50.1386 10.2066 48.9164C10.2066 47.6917 11.1022 46.6551 12.3119 46.4794C13.5217 46.3013 14.6795 47.041 15.0283 48.2113H18.3162V44.8243H17.7002C16.3099 44.8194 15.1817 43.6912 15.1792 42.3008V41.6848H10.9661L8.50948 43.8446C8.48969 43.8619 8.4699 43.8768 8.45011 43.8916C8.36105 43.9609 8.26208 44.0153 8.15818 44.0549C8.02706 44.1044 7.89099 44.1316 7.75246 44.1316H4.83318C4.58331 44.9629 3.91782 45.6012 3.07422 45.8139C2.2331 46.0291 1.34232 45.7844 0.728807 45.1708ZM1.72086 19.4784C1.36461 19.8347 1.31018 20.3938 1.58974 20.8119C1.8693 21.2325 2.40864 21.3958 2.87369 21.2028C3.3388 21.0098 3.60595 20.5151 3.50703 20.0202C3.41054 19.5254 2.9776 19.1691 2.47292 19.1667C2.19089 19.1667 1.92123 19.278 1.72331 19.4784L1.72086 19.4784ZM10.3399 11.9055C9.98115 12.2642 9.92672 12.8233 10.2088 13.2439C10.4883 13.6645 11.0276 13.8278 11.4952 13.6348C11.9628 13.4394 12.2274 12.9421 12.1285 12.4448C12.0271 11.95 11.5917 11.5937 11.0845 11.5962C10.805 11.5962 10.5353 11.7075 10.3399 11.9055ZM4.23417 28.8849C3.70474 29.4143 3.62558 30.2456 4.0412 30.8666C4.45683 31.49 5.25593 31.7325 5.94861 31.4455C6.64135 31.1585 7.03218 30.4237 6.88626 29.689C6.74029 28.9542 6.09706 28.4247 5.34745 28.4247C4.92935 28.4223 4.52854 28.588 4.23417 28.8849ZM43.4367 58.5902C43.9389 58.5902 44.3744 58.234 44.4708 57.7391C44.5698 57.2443 44.3051 56.7495 43.84 56.5565C43.3724 56.3636 42.8356 56.5268 42.556 56.9449C42.2765 57.3655 42.3309 57.9222 42.6871 58.2809C42.8851 58.4789 43.1547 58.5902 43.4367 58.5902ZM19.4866 58.281C19.8429 58.6372 20.402 58.6917 20.8226 58.4121C21.2407 58.13 21.404 57.5932 21.211 57.1281C21.018 56.6605 20.5233 56.3958 20.0284 56.4947C19.5336 56.5937 19.1749 57.0267 19.1749 57.5313C19.1749 57.8134 19.2862 58.083 19.4866 58.281ZM11.9165 49.6617C12.2752 50.018 12.8343 50.0724 13.2549 49.7928C13.673 49.5108 13.8338 48.9715 13.6408 48.5064C13.4454 48.0413 12.9506 47.7766 12.4558 47.8755C11.961 47.977 11.6047 48.4124 11.6073 48.9171C11.6073 49.1966 11.7186 49.4663 11.9165 49.6617ZM28.8954 55.7651C29.4248 56.2946 30.2561 56.3762 30.8771 55.9606C31.5005 55.5424 31.7429 54.7433 31.456 54.0531C31.169 53.3603 30.4342 52.967 29.6995 53.113C28.9647 53.2589 28.4353 53.9046 28.4353 54.6543C28.4328 55.0699 28.5985 55.4707 28.8954 55.7651ZM58.6 16.564C58.6 16.0593 58.2437 15.6263 57.7489 15.5274C57.2541 15.4285 56.7593 15.6932 56.5663 16.1608C56.3734 16.6259 56.5366 17.1627 56.9547 17.4447C57.3753 17.7243 57.932 17.6699 58.2907 17.3136C58.4886 17.1132 58.6 16.8436 58.6 16.564ZM58.2907 40.5147C58.647 40.156 58.7014 39.5969 58.4218 39.1787C58.1398 38.7581 57.6029 38.5949 57.1379 38.7878C56.6703 38.9808 56.4056 39.4781 56.5045 39.9729C56.6035 40.4677 57.0364 40.824 57.5411 40.824C57.8231 40.824 58.0928 40.7126 58.2907 40.5147ZM49.6718 48.0852C50.0305 47.7289 50.0874 47.1673 49.8054 46.7467C49.5258 46.3262 48.9865 46.1604 48.5189 46.3558C48.0514 46.5488 47.7867 47.0436 47.8856 47.5409C47.9845 48.0382 48.42 48.3945 48.9246 48.3945C49.2042 48.3945 49.4738 48.2831 49.6718 48.0852ZM55.775 31.1057C56.3044 30.5763 56.3861 29.7451 55.9704 29.1241C55.5523 28.5006 54.7532 28.2581 54.063 28.5451C53.3703 28.8321 52.977 29.5669 53.1229 30.3017C53.2688 31.0364 53.9146 31.5659 54.6642 31.5659C55.0798 31.5684 55.4806 31.4026 55.775 31.1057ZM16.575 1.40043C16.0703 1.40043 15.6349 1.75669 15.5384 2.25153C15.4394 2.74633 15.7042 3.24113 16.1693 3.43412C16.6368 3.62709 17.1737 3.4638 17.4532 3.0457C17.7352 2.62511 17.6783 2.06844 17.3221 1.70971C17.1242 1.51179 16.8545 1.40043 16.575 1.40043ZM40.525 1.70968H40.5226C40.1663 1.35343 39.6072 1.299 39.1891 1.57856C38.7685 1.85813 38.6052 2.39748 38.7982 2.86255C38.9912 3.32767 39.4859 3.59483 39.9808 3.4959C40.4756 3.39941 40.8318 2.96646 40.8343 2.46177C40.8343 2.17973 40.723 1.91006 40.5226 1.71214L40.525 1.70968ZM48.0953 10.3289C47.7365 9.97267 47.1774 9.91824 46.7568 10.1978C46.3387 10.4798 46.1779 11.0192 46.3709 11.4843C46.5663 11.9494 47.0611 12.2141 47.5559 12.1151C48.0507 12.0137 48.407 11.5783 48.4045 11.0736C48.4045 10.794 48.2932 10.5244 48.0953 10.3289ZM31.1163 4.22307C30.5868 3.69362 29.7556 3.61445 29.1346 4.03009C28.5112 4.44573 28.2687 5.24485 28.5557 5.93755C28.8427 6.6303 29.5775 7.02114 30.3122 6.87522C31.047 6.72925 31.5764 6.086 31.5764 5.33637C31.5789 4.91826 31.4131 4.51745 31.1163 4.22307ZM31.4602 29.265C31.4602 29.1933 31.4898 29.1215 31.5418 29.0696C31.6383 28.9756 31.7867 28.9607 31.898 29.035C32.0118 29.1092 32.0539 29.2527 32.0044 29.3764C31.9525 29.5025 31.8214 29.5718 31.6902 29.5471C31.5566 29.5223 31.4602 29.4085 31.4602 29.2725L31.4602 29.265ZM31.4602 30.935C31.5542 30.9523 31.6482 30.9597 31.7422 30.9597C32.425 30.9597 33.041 30.549 33.3032 29.9182C33.5655 29.2873 33.422 28.5624 32.9395 28.0775C32.4596 27.5951 31.7348 27.4491 31.1014 27.7064C30.4706 27.9662 30.0574 28.5798 30.0525 29.2626V38.31H29.956L29.9585 29.2626C29.9535 28.5798 29.5404 27.9662 28.907 27.7089C28.2762 27.4491 27.5513 27.5976 27.0689 28.08C26.589 28.5649 26.4455 29.2898 26.7077 29.9207C26.97 30.5515 27.586 30.9597 28.2688 30.9597C28.3628 30.9597 28.4568 30.9523 28.5508 30.9375V38.3103H25.6711C25.6216 38.0282 25.5375 37.7536 25.4212 37.4889C25.2109 37.0114 24.9066 36.5809 24.5232 36.2222C22.158 33.9782 21.3986 30.5196 22.6083 27.4915C23.8156 24.4608 26.7473 22.4741 30.0082 22.4741C33.2688 22.4741 36.2005 24.4608 37.4106 27.4915C38.6178 30.5196 37.8584 33.9782 35.4933 36.2222C35.1123 36.5809 34.808 37.0114 34.5977 37.4889C34.4814 37.7536 34.3973 38.0282 34.3478 38.3103H31.4607L31.4602 30.935ZM28.5508 29.2724C28.5483 29.4308 28.4222 29.5545 28.2663 29.5545C28.1104 29.552 27.9843 29.4258 27.9843 29.27C27.9843 29.1141 28.1104 28.9879 28.2663 28.9855C28.4222 28.9855 28.5483 29.1092 28.5508 29.265V29.2724ZM19.5454 37.2957C19.2089 37.4887 18.7834 37.3724 18.5905 37.0384C18.3975 36.7019 18.5138 36.274 18.8478 36.0834L20.3396 35.22C20.6736 35.027 21.1015 35.1433 21.2945 35.4798C21.4875 35.8138 21.3712 36.2418 21.0372 36.4347L19.5454 37.2957ZM17.5242 31.1503V31.1527C17.3337 31.1577 17.1506 31.0859 17.0146 30.9523C16.876 30.8212 16.7993 30.6381 16.7993 30.4476C16.7993 30.2571 16.876 30.0765 17.0146 29.9429C17.1506 29.8118 17.3337 29.7401 17.5242 29.745H19.2486C19.4391 29.7401 19.6221 29.8118 19.7582 29.9429C19.8967 30.0765 19.9734 30.2571 19.9734 30.4476C19.9734 30.6381 19.8967 30.8212 19.7582 30.9523C19.6221 31.0859 19.4391 31.1577 19.2486 31.1527L17.5242 31.1503ZM18.8477 24.8168V24.8192C18.5113 24.6263 18.395 24.1983 18.588 23.8618C18.7809 23.5253 19.2089 23.4091 19.5454 23.602L21.0372 24.4605C21.3736 24.6535 21.4899 25.084 21.2969 25.418C21.104 25.7544 20.6735 25.8707 20.3395 25.6778L18.8477 24.8168ZM23.1574 19.99V19.9924C22.9644 19.656 23.0807 19.228 23.4171 19.035C23.7511 18.842 24.1791 18.9583 24.3721 19.2923L25.233 20.7842V20.7866C25.426 21.1206 25.3122 21.5486 24.9757 21.7416C24.6417 21.9346 24.2138 21.8183 24.0208 21.4843L23.1598 19.9924L23.1574 19.99ZM41.163 36.0833V36.0858C41.4994 36.2788 41.6132 36.7068 41.4203 37.0408C41.2298 37.3773 40.8018 37.4911 40.4653 37.2981L38.9735 36.4371C38.8102 36.3431 38.694 36.1922 38.6445 36.0116C38.5975 35.831 38.6222 35.6405 38.7138 35.4797C38.9067 35.1432 39.3372 35.0269 39.6712 35.2199L41.1655 36.0809L41.163 36.0833ZM42.4865 29.7473C42.677 29.7424 42.8601 29.8141 42.9962 29.9452C43.1347 30.0788 43.2114 30.2619 43.2114 30.45C43.2114 30.6405 43.1347 30.8235 42.9962 30.9571C42.8601 31.0882 42.677 31.16 42.4865 31.155H40.7622C40.5717 31.16 40.3886 31.0882 40.2525 30.9571C40.114 30.8235 40.0373 30.6405 40.0373 30.45C40.0373 30.2619 40.114 30.0788 40.2525 29.9452C40.3886 29.8141 40.5717 29.7424 40.7622 29.7473H42.4865ZM40.4653 23.6019C40.8018 23.4089 41.2297 23.5252 41.4202 23.8592C41.6132 24.1956 41.4994 24.6236 41.163 24.8141L39.6711 25.6776C39.3372 25.8706 38.9067 25.7543 38.7137 25.4178C38.5208 25.0838 38.637 24.6534 38.9735 24.4604L40.4653 23.6019ZM35.6386 19.2921V19.2897C35.7302 19.1289 35.8835 19.0126 36.0641 18.9631C36.2423 18.9161 36.4328 18.9408 36.5936 19.0324C36.93 19.2253 37.0463 19.6534 36.8533 19.9873L35.9924 21.4817C35.7994 21.8156 35.3714 21.9319 35.035 21.739C34.701 21.546 34.5847 21.118 34.7777 20.784L35.6386 19.2921ZM29.3028 17.9661C29.3028 17.5777 29.617 17.2635 30.0054 17.2635C30.3938 17.2635 30.708 17.5777 30.708 17.9661V19.6905C30.708 20.0789 30.3938 20.3956 30.0054 20.3956C29.617 20.3956 29.3028 20.0789 29.3028 19.6905V17.9661ZM34.273 41.5285V41.8081C34.273 44.1634 32.3606 46.0733 30.0054 46.0733C27.6502 46.0733 25.7378 44.1634 25.7378 41.8081V41.5285H34.273ZM35.1784 39.7175C35.2873 39.72 35.3739 39.8066 35.3764 39.9179C35.3739 40.0268 35.2873 40.1133 35.1784 40.1158H24.8323C24.7482 40.1183 24.674 40.0688 24.6418 39.9921C24.6097 39.9154 24.6295 39.8288 24.6888 39.7719C24.726 39.7323 24.7779 39.7126 24.8323 39.7126L35.1784 39.7175Z" fill="#0CB4C4"></path></svg>