<svg xmlns="http://www.w3.org/2000/svg" width="60" height="60" viewBox="0 0 60 60" fill="none"><path d="M47.0633 26.7955H54.2189C54.5846 28.0113 55.7126 28.8993 57.0442 28.8993C58.6726 28.8993 59.9979 27.574 59.9979 25.9454C59.9979 24.3169 58.6726 22.9951 57.0442 22.9951C55.7126 22.9951 54.5853 23.8816 54.2196 25.0954H47.064V18.6878H54.2196C54.5853 19.9036 55.7133 20.7916 57.0449 20.7916C58.6733 20.7916 59.9986 19.4663 59.9986 17.8377C59.9986 16.2091 58.6733 14.8873 57.0449 14.8873C55.7133 14.8873 54.586 15.7739 54.2203 16.9876H47.0647V16.1853C47.0647 14.3931 45.6054 12.9352 43.8113 12.9352H43.009V5.7793C44.2247 5.41358 45.1127 4.28551 45.1127 2.95388C45.1127 1.32532 43.7874 0 42.1589 0C40.5304 0 39.2087 1.32532 39.2087 2.95388C39.2087 4.28551 40.0952 5.41287 41.3089 5.7793V12.9352H34.9016V5.7793C36.1174 5.41358 37.0053 4.28551 37.0053 2.95388C37.0053 1.32532 35.6801 0 34.0516 0C32.4231 0 31.1013 1.32532 31.1013 2.95388C31.1013 4.28551 31.9879 5.41287 33.2015 5.7793V12.9352H26.7978V5.7793C28.0114 5.41358 28.898 4.28551 28.898 2.95388C28.898 1.32532 27.5741 0 25.9477 0C24.3213 0 22.994 1.32532 22.994 2.95388C22.994 4.28551 23.8819 5.41358 25.0977 5.7793V12.9352H18.6904V5.7793C19.9041 5.41358 20.7906 4.28551 20.7906 2.95388C20.7906 1.32532 19.4668 0 17.8404 0C16.214 0 14.8866 1.32532 14.8866 2.95388C14.8866 4.28551 15.7746 5.41358 16.9903 5.7793V12.9352H16.188C14.3939 12.9352 12.9346 14.3931 12.9346 16.1853V16.9876H5.77903C5.41332 15.7739 4.28531 14.8873 2.95374 14.8873C1.32525 14.8873 0 16.2112 0 17.8377C0 19.4642 1.32525 20.7916 2.95374 20.7916C4.28531 20.7916 5.41332 19.9036 5.77903 18.6878H12.9346V25.0954H5.77903C5.41332 23.8816 4.28531 22.9951 2.95374 22.9951C1.32525 22.9951 0 24.319 0 25.9454C0 27.5719 1.32525 28.8993 2.95374 28.8993C4.28531 28.8993 5.41332 28.0113 5.77903 26.7955H12.9346V33.2031H5.77903C5.41332 31.9894 4.28531 31.1028 2.95374 31.1028C1.32525 31.1028 0 32.4267 0 34.0532C0 35.6796 1.32525 37.007 2.95374 37.007C4.28531 37.007 5.41332 36.1191 5.77903 34.9032H12.9346V41.3108H5.77903C5.41332 40.0971 4.28531 39.2105 2.95374 39.2105C1.32525 39.2105 0 40.5344 0 42.1609C0 43.7873 1.32525 45.1148 2.95374 45.1148C4.28531 45.1148 5.41332 44.2268 5.77903 43.011H12.9346V43.8133C12.9346 45.6076 14.3939 47.0669 16.188 47.0669H16.9903V54.2193C15.7746 54.5857 14.8866 55.7145 14.8866 57.0482C14.8866 58.6754 16.2119 59.9986 17.8404 59.9986C19.4689 59.9986 20.7906 58.6747 20.7906 57.0482C20.7906 55.7152 19.9041 54.5864 18.6904 54.22V47.0676H25.0977V54.22C23.8819 54.5864 22.994 55.7152 22.994 57.0489C22.994 58.6761 24.3192 59.9993 25.9477 59.9993C27.5762 59.9993 28.898 58.6754 28.898 57.0489C28.898 55.7159 28.0114 54.5871 26.7978 54.2207V47.0683H33.205V54.2207C31.9893 54.5871 31.1013 55.7159 31.1013 57.0496C31.1013 58.6768 32.4266 60 34.0551 60C35.6836 60 37.0053 58.6761 37.0053 57.0496C37.0053 55.7166 36.1188 54.5878 34.9051 54.2214V47.0691H41.3089V54.2214C40.0952 54.5878 39.2087 55.7166 39.2087 57.0496C39.2087 58.6768 40.5325 60 42.1589 60C43.7853 60 45.1127 58.6761 45.1127 57.0496C45.1127 55.7166 44.2247 54.5871 43.009 54.2207V47.0683H43.8113C45.6054 47.0683 47.0647 45.609 47.0647 43.8147V43.0124H54.2203C54.586 44.2282 55.714 45.1162 57.0456 45.1162C58.674 45.1162 59.9993 43.7909 59.9993 42.1623C59.9993 40.5337 58.674 39.2119 57.0456 39.2119C55.714 39.2119 54.5867 40.0985 54.221 41.3122H47.0654V34.9046H54.221C54.5867 36.1205 55.7147 37.0084 57.0463 37.0084C58.6747 37.0084 60 35.6831 60 34.0546C60 32.426 58.6747 31.1042 57.0463 31.1042C55.7147 31.1042 54.5874 31.9908 54.2217 33.2045H47.0662V26.7969L47.0633 26.7955ZM57.0442 24.6952C57.7349 24.6952 58.2971 25.2561 58.2971 25.9447C58.2971 26.6334 57.7349 27.1977 57.0442 27.1977C56.3535 27.1977 55.7947 26.6355 55.7947 25.9447C55.7947 25.254 56.3556 24.6952 57.0442 24.6952ZM57.0442 16.5875C57.7349 16.5875 58.2971 17.1484 58.2971 17.837C58.2971 18.5256 57.7349 19.09 57.0442 19.09C56.3535 19.09 55.7947 18.5277 55.7947 17.837C55.7947 17.1463 56.3556 16.5875 57.0442 16.5875ZM40.9081 2.95388C40.9081 2.26314 41.4689 1.70087 42.1575 1.70087C42.8461 1.70087 43.4105 2.26314 43.4105 2.95388C43.4105 3.64462 42.8482 4.20338 42.1575 4.20338C41.4668 4.20338 40.9081 3.64251 40.9081 2.95388ZM32.8007 2.95388C32.8007 2.26314 33.3616 1.70087 34.0502 1.70087C34.7388 1.70087 35.3031 2.26314 35.3031 2.95388C35.3031 3.64462 34.7409 4.20338 34.0502 4.20338C33.3595 4.20338 32.8007 3.64251 32.8007 2.95388ZM24.6934 2.95388C24.6934 2.26314 25.2556 1.70087 25.9463 1.70087C26.637 1.70087 27.1958 2.26314 27.1958 2.95388C27.1958 3.64462 26.6349 4.20338 25.9463 4.20338C25.2577 4.20338 24.6934 3.64251 24.6934 2.95388ZM16.586 2.95388C16.586 2.26314 17.1483 1.70087 17.839 1.70087C18.5297 1.70087 19.0884 2.26314 19.0884 2.95388C19.0884 3.64462 18.5276 4.20338 17.839 4.20338C17.1504 4.20338 16.586 3.64251 16.586 2.95388ZM2.95304 19.0907C2.26234 19.0907 1.70009 18.5284 1.70009 17.8377C1.70009 17.147 2.26234 16.5882 2.95304 16.5882C3.64374 16.5882 4.20249 17.1491 4.20249 17.8377C4.20249 18.5263 3.64164 19.0907 2.95304 19.0907ZM2.95304 27.1984C2.26234 27.1984 1.70009 26.6362 1.70009 25.9454C1.70009 25.2547 2.26234 24.6959 2.95304 24.6959C3.64374 24.6959 4.20249 25.2568 4.20249 25.9454C4.20249 26.6341 3.64164 27.1984 2.95304 27.1984ZM2.95304 35.3062C2.26234 35.3062 1.70009 34.7439 1.70009 34.0532C1.70009 33.3624 2.26234 32.8037 2.95304 32.8037C3.64374 32.8037 4.20249 33.3645 4.20249 34.0532C4.20249 34.7418 3.64164 35.3062 2.95304 35.3062ZM2.95304 43.4139C2.26234 43.4139 1.70009 42.8516 1.70009 42.1609C1.70009 41.4702 2.26234 40.9114 2.95304 40.9114C3.64374 40.9114 4.20249 41.4723 4.20249 42.1609C4.20249 42.8495 3.64164 43.4139 2.95304 43.4139ZM19.0891 57.0475C19.0891 57.7369 18.5283 58.297 17.8397 58.297C17.1511 58.297 16.5867 57.7362 16.5867 57.0475C16.5867 56.3589 17.149 55.7945 17.8397 55.7945C18.5304 55.7945 19.0891 56.3568 19.0891 57.0475ZM27.1965 57.0475C27.1965 57.7369 26.6356 58.297 25.947 58.297C25.2584 58.297 24.6941 57.7362 24.6941 57.0475C24.6941 56.3589 25.2563 55.7945 25.947 55.7945C26.6377 55.7945 27.1965 56.3568 27.1965 57.0475ZM35.3038 57.0475C35.3038 57.7369 34.743 58.297 34.0544 58.297C33.3658 58.297 32.8014 57.7362 32.8014 57.0475C32.8014 56.3589 33.3637 55.7945 34.0544 55.7945C34.7451 55.7945 35.3038 56.3568 35.3038 57.0475ZM43.4112 57.0475C43.4112 57.7369 42.8489 58.297 42.1582 58.297C41.4675 58.297 40.9088 57.7362 40.9088 57.0475C40.9088 56.3589 41.4696 55.7945 42.1582 55.7945C42.8468 55.7945 43.4112 56.3568 43.4112 57.0475ZM57.0442 40.9107C57.7349 40.9107 58.2971 41.4716 58.2971 42.1602C58.2971 42.8488 57.7349 43.4132 57.0442 43.4132C56.3535 43.4132 55.7947 42.8509 55.7947 42.1602C55.7947 41.4695 56.3556 40.9107 57.0442 40.9107ZM57.0442 32.8023C57.7349 32.8023 58.2971 33.3631 58.2971 34.0518C58.2971 34.7404 57.7349 35.3048 57.0442 35.3048C56.3535 35.3048 55.7947 34.7425 55.7947 34.0518C55.7947 33.361 56.3556 32.8023 57.0442 32.8023ZM45.3633 43.8126C45.3633 44.669 44.6669 45.3654 43.8106 45.3654H16.1852C15.3289 45.3654 14.6325 44.669 14.6325 43.8126V16.1846C14.6325 15.3303 15.3289 14.6353 16.1852 14.6353H43.8099C44.6662 14.6353 45.3626 15.3303 45.3626 16.1846V43.814L45.3633 43.8126ZM38.5208 29.9565C40.7803 25.0904 40.6715 20.8063 38.2112 18.9714C36.2107 17.4832 33.0682 17.936 29.7312 20.1654C29.251 19.8755 28.7702 19.6172 28.2915 19.394C25.516 18.0974 23.0944 18.0897 21.4736 19.3722C20.5042 20.1374 19.9006 21.3244 19.7272 22.8048C19.4794 24.9178 20.0978 27.5375 21.4027 30.2022C19.2246 34.9987 19.3629 39.221 21.7867 41.0286C22.5623 41.6049 23.5141 41.8892 24.5846 41.8885C26.1927 41.8885 28.069 41.2462 30.0133 39.996C31.9752 41.2259 33.907 41.892 35.5748 41.892C36.7028 41.892 37.7108 41.5867 38.5236 40.9444C40.1465 39.6619 40.6982 37.3033 40.0777 34.3024C39.7885 32.9019 39.2571 31.4299 38.5215 29.9565H38.5208ZM37.1948 20.3353C38.7559 21.4992 38.8275 24.5668 37.4707 28.0822C36.9534 27.2462 36.3757 26.42 35.7404 25.6162C34.3738 23.8873 32.8442 22.3858 31.2656 21.2036C33.709 19.7288 35.9208 19.3869 37.1948 20.3353ZM22.8017 39.664C21.2504 38.5071 21.1479 35.5743 22.4507 32.108C22.9849 32.9834 23.5885 33.8517 24.2568 34.6962C25.5862 36.3781 27.0308 37.8038 28.4929 38.9318C26.1464 40.2831 24.0265 40.573 22.8024 39.6633L22.8017 39.664ZM37.4686 39.6092C36.3946 40.4579 34.5563 40.3737 32.4252 39.3776C31.7822 39.0771 31.1343 38.7044 30.4893 38.272C30.4801 38.2657 30.4717 38.2594 30.4626 38.2537C28.7569 37.1046 27.0764 35.521 25.5904 33.6411C22.7216 30.0147 21.0826 25.8387 21.4153 23.0021C21.5368 21.9646 21.9109 21.1924 22.5272 20.7059H22.5279C23.0193 20.3171 23.6714 20.1233 24.4379 20.1233C25.3462 20.1233 26.4159 20.395 27.5713 20.9348C29.9228 22.0327 32.3494 24.0698 34.406 26.6713C35.36 27.8772 36.1749 29.1324 36.8298 30.3861C36.8319 30.3903 36.834 30.3945 36.8361 30.3987C37.59 31.8448 38.1298 33.2873 38.4113 34.647C38.8879 36.9509 38.544 38.7599 37.4686 39.6099V39.6092ZM29.9979 25.4723C27.5018 25.4723 25.4704 27.5031 25.4704 30C25.4704 32.4969 27.5011 34.5277 29.9979 34.5277C32.4947 34.5277 34.5254 32.4969 34.5254 30C34.5254 27.5031 32.4947 25.4723 29.9979 25.4723ZM29.9979 32.8261C28.4396 32.8261 27.1712 31.5584 27.1712 29.9993C27.1712 28.4402 28.4389 27.1725 29.9979 27.1725C31.5569 27.1725 32.8246 28.4402 32.8246 29.9993C32.8246 31.5584 31.5569 32.8261 29.9979 32.8261Z" fill="#0CB4C4"></path></svg>