<svg xmlns="http://www.w3.org/2000/svg" width="61" height="62" viewBox="0 0 61 62" fill="none"><path d="M56.9196 32.7073C33.3276 35.1446 31.3693 37.1226 28.9599 61.0001C27.9582 51.1139 27.0437 45.0215 24.6313 41.0261C21.2593 35.4089 14.8286 34.1156 1 32.7065C24.592 30.2752 26.5503 28.2973 28.9598 4.41992C31.3692 28.2974 33.3274 30.2753 56.9195 32.7065L56.9196 32.7073Z" stroke="#0CB4C4" stroke-width="1.8"></path><path d="M60.0002 12.1341C50.7234 13.0836 49.9533 13.8626 48.9815 23.2651C48.5273 18.795 48.1182 16.2542 46.8097 14.757C45.3689 13.0895 42.8452 12.6391 37.978 12.1309C47.2879 11.1754 48.0488 10.3964 48.9813 1C49.9529 10.3961 50.7231 11.1752 60.0002 12.1341Z" stroke="#0CB4C4" stroke-width="1.8"></path><path d="M49.0051 53.6373C49.0051 58.6642 41.5513 58.6642 41.5513 53.6373C41.5513 48.6105 49.0051 48.6105 49.0051 53.6373Z" stroke="#0CB4C4" stroke-width="1.8"></path></svg>