<svg width="66" height="59" viewBox="0 0 66 59" fill="none" xmlns="http://www.w3.org/2000/svg"><path d="M57.4675 13.9558H42.916V7H3.073V31.0287H0V45.7811H5.25612C5.5822 49.2588 8.49913 52 12.0776 52C15.6561 52 18.5731 49.2588 18.8991 45.7811H46.1583C46.4844 49.2588 49.4013 52 52.9798 52C56.5583 52 59.4753 49.2588 59.8013 45.7811H65.3768L65.3774 33.3455V28.5748L57.4675 13.9558ZM5.40284 27.7325H31.4997V25.4154H5.40284V15.2436H31.8951V12.9265H5.40284V9.31641H40.5861V19.0155H22.9965V21.3326H40.5861V31.0296H5.40284V27.7325ZM12.0778 49.6798C9.5638 49.6798 7.5206 47.6456 7.5206 45.1476C7.5206 42.65 9.56394 40.6154 12.0778 40.6154C14.5917 40.6154 16.6349 42.6495 16.6349 45.1476C16.6349 47.6451 14.5916 49.6798 12.0778 49.6798ZM52.9831 49.6798C50.4692 49.6798 48.426 47.6456 48.426 45.1476C48.426 42.65 50.4693 40.6154 52.9831 40.6154C55.4971 40.6154 57.5403 42.6495 57.5403 45.1476C57.5403 47.6451 55.497 49.6798 52.9831 49.6798ZM63.0503 43.463H59.6325C58.8732 40.504 56.1913 38.2982 52.981 38.2982C49.7708 38.2982 47.0914 40.5015 46.3295 43.463H18.7295C17.9703 40.504 15.2883 38.2982 12.078 38.2982C8.86778 38.2982 6.18846 40.5015 5.42654 43.463H2.32811L2.32759 33.3444H63.0499L63.0503 43.463ZM63.0503 31.0273H42.9138V16.2722H56.0728L63.0483 29.1599V31.0275L63.0503 31.0273Z" fill="#0CB4C4"></path></svg>