<svg width="57" height="60" viewBox="0 0 57 60" fill="none" xmlns="http://www.w3.org/2000/svg"><path d="M27.8559 31.5602C32.7611 31.5577 37.3861 29.2739 40.3706 25.3812C43.3554 21.4884 44.3596 16.4286 43.0883 11.691C41.8172 6.9531 38.4154 3.07589 33.883 1.19981C29.3507 -0.676274 24.2035 -0.338091 19.956 2.11524C15.7083 4.56856 12.8427 8.85768 12.2028 13.7213C11.5628 18.5847 13.2208 23.4691 16.6891 26.9378C19.6446 29.9085 23.6659 31.5727 27.8557 31.5602H27.8559ZM18.4797 26.1128C19.2311 23.4846 20.972 21.2494 23.3365 19.8777C23.9501 19.5353 24.3846 18.9434 24.5273 18.2557C24.6947 17.4637 24.5248 16.6382 24.0585 15.9769C23.3662 14.9987 22.9991 13.8279 23.0083 12.63C22.9777 10.854 23.7876 9.16832 25.1928 8.08251C26.3461 7.21313 27.8513 6.96113 29.2246 7.40735C30.9098 7.98456 32.1621 9.41191 32.5154 11.1578C32.9302 12.8389 32.5874 14.6173 31.5778 16.0237C31.1253 16.6591 30.965 17.4574 31.1375 18.218C31.2827 18.9291 31.7268 19.544 32.3564 19.9057C34.7029 21.2824 36.4316 23.5075 37.185 26.122C34.6216 28.4597 31.2776 29.7556 27.8089 29.7556C24.3397 29.7556 20.9957 28.4597 18.4328 26.122L18.4797 26.1128ZM17.9733 5.88829C21.4106 2.58533 26.295 1.26303 30.9294 2.38066C35.5635 3.49872 39.308 6.90252 40.861 11.4098C42.4144 15.917 41.5622 20.9047 38.6007 24.6403C37.6104 21.9698 35.7163 19.7309 33.2471 18.3115C33.0701 18.2001 32.9478 18.0201 32.9093 17.8146C32.8532 17.5618 32.9043 17.2973 33.05 17.0834C34.3521 15.2416 34.79 12.9252 34.25 10.7357C33.7448 8.36242 32.0223 6.43319 29.7214 5.66295C27.8047 5.05267 25.711 5.40176 24.0957 6.60056C22.2306 8.0283 21.1494 10.2531 21.1799 12.6013C21.1661 14.1814 21.6554 15.7246 22.5767 17.008C22.7403 17.25 22.7981 17.548 22.7362 17.8335C22.7073 18.0101 22.6005 18.165 22.4457 18.2554C19.9618 19.6831 18.0527 21.9305 17.0448 24.6123C14.846 21.9275 13.7239 18.5211 13.8971 15.0553C14.0704 11.5895 15.5266 8.31158 17.9824 5.86008L17.9733 5.88829Z" fill="#0CB4C4"></path><path d="M56.4064 35.5078C56.0083 34.8071 55.3708 34.2742 54.6106 34.0072C53.8509 33.7401 53.02 33.7569 52.2712 34.0545L49.8711 33.2483V33.2479C48.4002 32.7632 46.8344 32.6376 45.3049 32.8825C45.2346 32.8381 45.1593 32.8033 45.0797 32.7791L42.5763 32.1788L42.5767 32.1792C39.7199 31.4852 36.7066 31.8938 34.1382 33.3228L26.7688 37.4014L23.0183 36.3419H23.0179C18.3022 35.0427 13.2505 36.0096 9.34806 38.958L0.356206 45.7745C0.135198 45.9491 0.00417907 46.2145 0 46.4962V59.0505C0 59.2991 0.0987846 59.5377 0.274586 59.7135C0.450388 59.8893 0.688978 59.9881 0.937611 59.9881C1.03723 60.004 1.13853 60.004 1.23773 59.9881L12.114 56.4063L25.4185 57.8876C28.1246 58.1823 30.8487 57.5189 33.1161 56.0124L55.3937 40.073C56.1162 39.5871 56.6239 38.842 56.8123 37.9923C57.0006 37.1426 56.8554 36.2527 56.4067 35.5072L56.4064 35.5078ZM49.2994 34.9732L50.0214 35.2169L35.9572 42.7738L35.9568 42.7742C35.9489 42.1669 35.7911 41.5708 35.4976 41.0396C35.3013 40.6896 35.0514 40.3732 34.7568 40.102L42.9889 35.5545C44.9185 34.4867 47.2068 34.2757 49.2989 34.9731L49.2994 34.9732ZM35.038 34.9172L35.0376 34.9167C37.2142 33.7205 39.7608 33.386 42.1727 33.9791L32.8903 39.1171L29.3274 38.1234L35.038 34.9172ZM54.3142 38.5174L32.0366 54.4568C30.1409 55.7053 27.8722 56.2617 25.6139 56.0318L12.122 54.5317C11.996 54.4986 11.8637 54.4986 11.7377 54.5317L1.81788 57.8229V46.9467L10.4347 40.3834H10.4343C13.8795 37.7798 18.3395 36.9276 22.5011 38.0766L26.6546 39.2395L32.7023 40.9272C33.3423 41.0984 33.8546 41.5768 34.0689 42.2034C34.2832 42.83 34.1719 43.522 33.7713 44.0494C33.7353 44.0791 33.7035 44.1138 33.6776 44.1524C33.4314 44.4454 33.1045 44.6588 32.7379 44.7672C32.3712 44.8757 31.9807 44.874 31.6149 44.7618C27.8644 43.599 22.7264 42.3897 19.9692 43.2524L16.022 44.4713C15.5532 44.6358 15.2937 45.1377 15.4314 45.6153C15.5955 46.0795 16.0911 46.3378 16.5658 46.2059L20.513 44.987C22.2852 44.4337 26.1386 44.987 31.0799 46.4964C31.7726 46.7028 32.5102 46.7049 33.2037 46.5018C33.8973 46.2988 34.5176 45.8999 34.9898 45.3528L52.7112 35.8173C53.0686 35.6218 53.4885 35.5753 53.8798 35.6875C54.2712 35.8001 54.6027 36.0621 54.8019 36.4171C55.0029 36.7637 55.0644 37.1739 54.974 37.564C54.8831 37.9541 54.6475 38.2948 54.3143 38.5175L54.3142 38.5174Z" fill="#0CB4C4"></path></svg>