<svg xmlns="http://www.w3.org/2000/svg" xmlns:xlink="http://www.w3.org/1999/xlink" version="1.1" id="Layer_1" x="0px" y="0px" width="60px" height="60px" viewBox="0 0 60 60" enable-background="new 0 0 60 60" xml:space="preserve"><path fill="#0CB4C4" d="M59.758,31.048c0-0.106,0-0.211,0-0.316c0-0.106,0-0.327,0-0.49C60.022,13.807,46.915,0.269,30.479,0.004 C14.045-0.261,0.507,12.847,0.242,29.282l0,0c-0.005,0.058-0.005,0.115,0,0.173c0,0.058,0,0.115,0,0.172c0,0.213,0,0.423,0,0.636 C0.252,46.688,13.572,59.999,30,59.999c6.515,0.021,12.853-2.125,18.019-6.096l3.955,3.965c1.56,1.562,4.092,1.562,5.653,0 c1.561-1.562,1.561-4.094,0-5.653l0,0l-3.965-3.955c3.748-4.856,5.881-10.764,6.096-16.896 C59.758,31.259,59.758,31.201,59.758,31.048z M57.838,31.201c-0.192,2.285-2.42,4.051-4.31,5.145c0,0,0,0-0.067,0l-10.981-3.608 c0-0.826,0-1.651,0-2.496c0.003-3.087-0.195-6.172-0.596-9.234c9.234,1.93,15.782,5.683,15.954,9.743 C57.838,30.905,57.838,31.048,57.838,31.201z M56.878,37.546l-1.113-0.374c0.519-0.354,1.009-0.745,1.469-1.171 C57.118,36.501,57.003,37.028,56.878,37.546z M28.128,29.589l3.792,11.211c-0.72,0-1.44,0-2.16,0c-3.219-0.093-6.427-0.413-9.6-0.96 c-0.93-6.534-0.907-13.168,0.068-19.699c3.337-0.408,6.699-0.563,10.059-0.46c3.22,0.093,6.428,0.413,9.6,0.96 c0.455,3.181,0.68,6.388,0.673,9.6c0,0.624,0,1.237,0,1.852L29.348,28.37c-0.503-0.171-1.048,0.096-1.22,0.598 C28.059,29.169,28.059,29.387,28.128,29.589z M30,58.079c-4.157,0-7.852-6.719-9.552-16.203c3.051,0.479,6.13,0.761,9.216,0.845 h2.006h0.845l3.438,10.319C34.166,56.284,32.063,58.079,30,58.079z M2.162,29.36c0.24-4.043,6.824-7.45,16.011-8.92 c-0.869,6.314-0.895,12.716-0.076,19.036c-9.32-1.92-15.906-5.76-15.935-9.858V29.36z M30,2.404c4.157,0,7.852,6.72,9.6,16.204 c-3.05-0.48-6.129-0.762-9.216-0.845c-3.276-0.092-6.554,0.047-9.811,0.412C22.263,8.931,25.9,2.404,30,2.404z M57.521,26.027 c-2.965-3.1-8.64-5.635-15.943-7.055c-1.21-7.286-3.59-13.064-6.615-16.117C46.648,4.989,55.703,14.288,57.521,26.027z M25.038,2.855c-2.958,2.976-5.29,8.543-6.528,15.58C11.435,19.48,5.799,21.67,2.747,24.54C5.093,13.46,13.897,4.895,25.038,2.855z M2.479,34.456c2.965,3.1,8.64,5.635,15.943,7.055c1.21,7.287,3.59,13.065,6.615,16.117C13.352,55.495,4.297,46.195,2.479,34.456z M36.72,55.43l0.585,1.689c-0.758,0.203-1.525,0.375-2.313,0.518C35.64,56.962,36.22,56.222,36.72,55.43z M39.6,56.342l2.88-7.882 l4.069,4.071c-2.096,1.594-4.411,2.877-6.872,3.811H39.6z M56.878,55.046c0,0.55-0.217,1.079-0.604,1.469 c-0.825,0.777-2.112,0.777-2.938,0L42.873,46.043c-0.182-0.18-0.427-0.28-0.682-0.28h-0.212c-0.32,0.074-0.58,0.305-0.69,0.615 l-2.88,7.891l-7.852-23.469l23.488,7.832l-7.89,2.88c-0.5,0.179-0.76,0.728-0.582,1.228c0.047,0.135,0.125,0.256,0.228,0.357 l10.472,10.462C56.666,53.955,56.883,54.489,56.878,55.046z M48.238,42.816l7.883-2.88c-0.936,2.498-2.229,4.845-3.84,6.969 L48.238,42.816z"></path></svg>