<svg width="60" height="60" viewBox="0 0 60 60" fill="none" xmlns="http://www.w3.org/2000/svg"><path fill-rule="evenodd" clip-rule="evenodd" d="M36.4456 39.8759L38.1496 38.1726L37.1496 37.1692C37.0057 37.0255 36.9143 36.8376 36.8902 36.6356C36.866 36.4337 36.9104 36.2295 37.0162 36.0559C37.4403 35.3634 37.7563 34.6103 37.9536 33.8226C37.9877 33.6088 38.0969 33.4143 38.2616 33.2739C38.4264 33.1334 38.6358 33.0564 38.8522 33.0566H40.2702V30.6472H38.8522C38.6489 30.6472 38.4515 30.5789 38.2918 30.4531C38.1321 30.3273 38.0193 30.1515 37.9716 29.9539C37.8732 29.5489 37.7435 29.1521 37.5836 28.7672V28.7639C37.4322 28.3983 37.2539 28.0445 37.0502 27.7052C36.9266 27.5301 36.8689 27.3169 36.8872 27.1033C36.9055 26.8897 36.9986 26.6895 37.1502 26.5379L38.1502 25.5346L36.4469 23.8313L35.4469 24.8346C35.3032 24.9785 35.1152 25.0698 34.9133 25.094C34.7114 25.1182 34.5072 25.0738 34.3336 24.9679C33.9909 24.7581 33.633 24.5742 33.2629 24.4179L33.2182 24.4006C32.8553 24.2501 32.4819 24.1262 32.1009 24.0299C31.8875 23.9957 31.6933 23.8866 31.553 23.7222C31.4128 23.5577 31.3357 23.3487 31.3356 23.1326V21.7086H28.9189V23.1273C28.9188 23.3304 28.8505 23.5277 28.7249 23.6874C28.5993 23.8471 28.4237 23.96 28.2263 24.0079C27.821 24.106 27.424 24.2355 27.0389 24.3953C26.6732 24.5467 26.3191 24.725 25.9796 24.9286C25.8045 25.0521 25.5914 25.1099 25.3778 25.0918C25.1643 25.0736 24.964 24.9806 24.8123 24.8293L23.8089 23.8259L22.1009 25.5333L23.1043 26.5333C23.2481 26.677 23.3395 26.8649 23.3637 27.0668C23.3879 27.2688 23.3435 27.4729 23.2376 27.6466C22.8145 28.3397 22.4983 29.0926 22.2996 29.8799C22.2654 30.0932 22.1562 30.2874 21.9918 30.4275C21.8273 30.5677 21.6183 30.6446 21.4023 30.6446H19.9816V33.0539H21.4003C21.6036 33.0539 21.801 33.1223 21.9607 33.248C22.1204 33.3738 22.2332 33.5496 22.2809 33.7472C22.3788 34.1535 22.5086 34.5514 22.6689 34.9372C22.8204 35.303 22.9987 35.6571 23.2023 35.9966C23.326 36.1716 23.3838 36.3848 23.3656 36.5984C23.3475 36.8119 23.2544 37.0122 23.1029 37.1639L22.0996 38.1672L23.8029 39.8705L24.8063 38.8705C24.9502 38.7267 25.1382 38.6354 25.3402 38.6112C25.5422 38.5871 25.7465 38.6314 25.9203 38.7372C26.6132 39.1601 27.3659 39.4763 28.1529 39.6752C28.3671 39.7095 28.5619 39.8192 28.7023 39.9844C28.8428 40.1497 28.9196 40.3597 28.9189 40.5765V41.9952H31.3276V40.5765C31.3279 40.3733 31.3964 40.1761 31.5221 40.0165C31.6478 39.8568 31.8235 39.7439 32.0209 39.6959C32.4259 39.5977 32.8227 39.4682 33.2076 39.3085H33.2109C33.5765 39.1572 33.9304 38.9789 34.2696 38.7752C34.4448 38.6516 34.658 38.5938 34.8717 38.612C35.0853 38.6301 35.2857 38.7231 35.4376 38.8745L36.4376 39.8745L36.4456 39.8759ZM39.5936 39.2999L37.5729 41.3205C37.5476 41.3452 37.5216 41.3685 37.4949 41.3872C37.1917 41.6548 36.7979 41.7968 36.3937 41.7844C35.9895 41.7721 35.6052 41.6062 35.3189 41.3205L34.6422 40.6432C34.4036 40.7659 34.1591 40.8792 33.9089 40.9832C33.6622 41.0852 33.4082 41.1785 33.1482 41.2612V42.2199C33.1477 42.6423 32.9797 43.0473 32.681 43.3459C32.3823 43.6446 31.9773 43.8127 31.5549 43.8132H28.6963C28.2741 43.8116 27.8697 43.6433 27.5711 43.3448C27.2725 43.0464 27.104 42.642 27.1023 42.2199V41.2625C26.8429 41.1799 26.5889 41.0872 26.3423 40.9845C26.0956 40.8819 25.8476 40.7672 25.6089 40.6439L24.9329 41.3205C24.6337 41.6189 24.2285 41.7865 23.8059 41.7865C23.3834 41.7865 22.9781 41.6189 22.6789 41.3205L20.6569 39.2999C20.6333 39.2763 20.6111 39.2514 20.5903 39.2252C20.3219 38.9223 20.1794 38.5284 20.1918 38.124C20.2042 37.7195 20.3706 37.3351 20.6569 37.0492L21.3336 36.3719C21.2109 36.1332 21.0974 35.8888 20.9929 35.6386C20.8885 35.3883 20.7958 35.1359 20.7149 34.8812H19.7576C19.335 34.8809 18.9297 34.7128 18.6309 34.414C18.332 34.1151 18.164 33.7099 18.1636 33.2872V30.4232C18.164 30.0006 18.332 29.5954 18.6309 29.2965C18.9297 28.9977 19.335 28.8296 19.7576 28.8292H20.7143C20.7969 28.5692 20.8903 28.3159 20.9923 28.0686C21.0943 27.8213 21.2096 27.5746 21.3329 27.3352L20.6569 26.6586C20.6335 26.6351 20.6112 26.6104 20.5903 26.5846C20.3219 26.2817 20.1794 25.8878 20.1918 25.4834C20.2042 25.0789 20.3706 24.6945 20.6569 24.4086L22.6776 22.3879C22.7011 22.3645 22.7258 22.3422 22.7516 22.3213C23.0551 22.0527 23.4497 21.91 23.8548 21.9224C24.2599 21.9348 24.6451 22.1013 24.9316 22.3879L25.6083 23.0653C25.846 22.9426 26.0905 22.8293 26.3416 22.7253C26.5889 22.6233 26.8429 22.5299 27.1023 22.4473V21.4839C27.104 21.0618 27.2725 20.6574 27.5711 20.359C27.8697 20.0605 28.2741 19.8922 28.6963 19.8906H31.5542C31.9767 19.8911 32.3816 20.0592 32.6803 20.3579C32.979 20.6566 33.147 21.0615 33.1476 21.4839V22.4413C33.4076 22.5239 33.6611 22.6166 33.9082 22.7193L33.9549 22.7406C34.1896 22.8393 34.4187 22.9459 34.6422 23.0606L35.3189 22.3833C35.3429 22.3597 35.3676 22.3375 35.3929 22.3166C35.6957 22.0479 36.0898 21.9052 36.4945 21.9176C36.8991 21.93 37.2837 22.0966 37.5696 22.3833L39.5902 24.4039C39.8886 24.7031 40.0561 25.1084 40.0561 25.5309C40.0561 25.9535 39.8886 26.3587 39.5902 26.6579L38.9189 27.3333C39.0416 27.571 39.1549 27.8155 39.2589 28.0666C39.3616 28.3137 39.4544 28.5672 39.5376 28.8272H40.4942C40.9165 28.8288 41.321 28.9973 41.6196 29.2959C41.9182 29.5945 42.0866 29.999 42.0882 30.4212V33.2786C42.0866 33.7008 41.9182 34.1054 41.6196 34.4039C41.321 34.7025 40.9165 34.871 40.4942 34.8726H39.5356C39.4529 35.1299 39.3602 35.3821 39.2576 35.6292C39.1549 35.8763 39.042 36.1228 38.9189 36.3686L39.5962 37.0459C39.8946 37.3451 40.0621 37.7504 40.0621 38.1729C40.0621 38.5954 39.8946 39.0007 39.5962 39.2999H39.5936ZM32.8116 29.1666C33.4333 29.7882 33.8203 30.6061 33.9066 31.481C33.9928 32.356 33.773 33.2337 33.2847 33.9648C32.7963 34.6958 32.0695 35.2349 31.2283 35.4902C30.387 35.7455 29.4832 35.7011 28.6709 35.3647C27.8587 35.0283 27.1882 34.4207 26.7737 33.6454C26.3592 32.87 26.2264 31.9749 26.3979 31.1127C26.5694 30.2504 27.0346 29.4743 27.7142 28.9165C28.3938 28.3588 29.2457 28.0539 30.1249 28.0539C30.624 28.0533 31.1182 28.1512 31.5793 28.3422C32.0403 28.5331 32.4591 28.8133 32.8116 29.1666ZM30.1249 26.2333C31.4245 26.2332 32.6839 26.6838 33.6885 27.5083C34.6931 28.3327 35.3808 29.48 35.6344 30.7546C35.8879 32.0292 35.6917 33.3523 35.0791 34.4985C34.4665 35.6446 33.4754 36.5429 32.2748 37.0403C31.0741 37.5376 29.7381 37.6033 28.4945 37.226C27.2508 36.8488 26.1765 36.052 25.4544 34.9715C24.7324 33.8909 24.4074 32.5934 24.5347 31.3001C24.6621 30.0067 25.234 28.7975 26.1529 27.8786C26.674 27.3562 27.2931 26.9419 27.9747 26.6596C28.6564 26.3772 29.3871 26.2323 30.1249 26.2333ZM28.4083 47.1265C28.2896 47.1137 28.1695 47.1244 28.055 47.1579C27.9405 47.1915 27.8336 47.2473 27.7407 47.3221C27.6477 47.397 27.5704 47.4894 27.5131 47.5941C27.4558 47.6989 27.4198 47.8139 27.4069 47.9325C27.3941 48.0512 27.4048 48.1712 27.4383 48.2858C27.4719 48.4003 27.5277 48.5071 27.6025 48.6001C27.6774 48.6931 27.7698 48.7704 27.8745 48.8277C27.9793 48.885 28.0943 48.921 28.2129 48.9339L28.3689 48.9505L28.4776 48.9612L28.5863 48.9712L28.6949 48.9805L28.9129 48.9972L29.0223 49.0045L29.1316 49.0112L29.2416 49.0172L29.3516 49.0225L29.5716 49.0305H30.1249C30.2464 49.0338 30.3672 49.0127 30.4804 48.9685C30.5935 48.9243 30.6967 48.8579 30.7838 48.7732C30.8708 48.6884 30.94 48.5871 30.9873 48.4752C31.0345 48.3633 31.0589 48.243 31.0589 48.1215C31.0589 48 31.0345 47.8798 30.9873 47.7679C30.94 47.6559 30.8708 47.5546 30.7838 47.4699C30.6967 47.3852 30.5935 47.3187 30.4804 47.2745C30.3672 47.2303 30.2464 47.2092 30.1249 47.2125H30.0256L29.7282 47.2079L29.4316 47.1972L29.2316 47.1872C29.0356 47.1752 28.8416 47.1605 28.6463 47.1425L28.4049 47.1179L28.4083 47.1265ZM21.9809 44.8885C21.7765 44.7658 21.532 44.7284 21.3002 44.7842C21.0684 44.8399 20.8678 44.9846 20.7416 45.1868C20.6154 45.3891 20.5736 45.6329 20.6254 45.8656C20.6771 46.0984 20.8182 46.3015 21.0183 46.4312C21.1409 46.5085 21.2656 46.5832 21.3903 46.6572C21.5396 46.7452 21.6889 46.8305 21.8409 46.9145L22.0236 47.0139L22.1149 47.0625L22.3003 47.1585L22.4856 47.2525L22.5796 47.2985L22.7016 47.3579C22.8099 47.4124 22.9279 47.4447 23.0489 47.4529C23.1698 47.4612 23.2912 47.4451 23.4058 47.4058C23.5205 47.3664 23.6261 47.3046 23.7165 47.2238C23.8069 47.143 23.8802 47.045 23.9322 46.9355C23.9841 46.826 24.0137 46.7072 24.0191 46.5861C24.0244 46.465 24.0055 46.344 23.9635 46.2303C23.9215 46.1166 23.8571 46.0125 23.7742 45.924C23.6914 45.8356 23.5916 45.7646 23.4809 45.7152C22.9656 45.4685 22.4648 45.1925 21.9809 44.8885ZM17.1463 40.0885C17.0161 39.8852 16.8104 39.7419 16.5746 39.6902C16.3387 39.6385 16.092 39.6827 15.8886 39.8129C15.6853 39.9431 15.542 40.1488 15.4903 40.3846C15.4386 40.6205 15.4827 40.8672 15.613 41.0705C15.7156 41.2319 15.8216 41.3905 15.929 41.5492L16.047 41.7192C16.1263 41.8319 16.207 41.9432 16.2883 42.0525C16.4323 42.2459 16.579 42.4359 16.7296 42.6245C16.8826 42.8068 17.101 42.9218 17.3379 42.9448C17.5747 42.9679 17.8111 42.8972 17.9965 42.7479C18.1818 42.5986 18.3012 42.3827 18.3291 42.1464C18.357 41.91 18.2911 41.6722 18.1456 41.4839C17.7871 41.0358 17.4532 40.5684 17.1456 40.0839L17.1463 40.0885ZM14.863 33.6772C14.8307 33.4407 14.7067 33.2264 14.5177 33.0805C14.3287 32.9346 14.09 32.8688 13.853 32.8975C13.616 32.9261 13.3997 33.0468 13.2509 33.2334C13.1021 33.4201 13.0327 33.6578 13.0576 33.8952L13.0756 34.0412L13.0896 34.1486L13.1196 34.3626L13.1356 34.4699L13.1523 34.5759L13.1696 34.6826L13.2063 34.8946L13.225 35.0006L13.245 35.1059L13.2656 35.2112L13.3083 35.4212L13.3543 35.6299L13.3903 35.7859C13.4179 35.902 13.4681 36.0116 13.538 36.1083C13.6079 36.2051 13.6962 36.2871 13.7978 36.3497C13.8994 36.4123 14.0124 36.4543 14.1302 36.4733C14.2481 36.4922 14.3685 36.4878 14.4846 36.4602C14.6008 36.4326 14.7103 36.3825 14.8071 36.3125C14.9038 36.2426 14.9858 36.1543 15.0484 36.0527C15.1111 35.9511 15.153 35.8381 15.172 35.7203C15.191 35.6025 15.1865 35.482 15.159 35.3659L15.1283 35.2326C15.073 34.9826 15.0236 34.7332 14.979 34.4812C14.9343 34.2146 14.8943 33.9479 14.863 33.6812V33.6772ZM15.5696 26.9046C15.644 26.6771 15.6257 26.4294 15.5186 26.2153C15.4115 26.0012 15.2243 25.838 14.9977 25.761C14.771 25.6841 14.5231 25.6996 14.3078 25.8042C14.0925 25.9088 13.9272 26.0941 13.8476 26.3199C13.6445 26.9209 13.4742 27.5324 13.3376 28.1519L13.3336 28.1692C13.2823 28.4048 13.3266 28.651 13.4568 28.8539C13.587 29.0567 13.7925 29.1995 14.028 29.2509C14.2635 29.3023 14.5097 29.258 14.7126 29.1278C14.9154 28.9976 15.0583 28.7921 15.1096 28.5566C15.2333 27.9981 15.3868 27.4466 15.5696 26.9046ZM45.6582 22.9439C45.7289 22.7141 45.8881 22.5217 46.1006 22.4092C46.3131 22.2967 46.5617 22.2732 46.7915 22.3439C47.0214 22.4147 47.2137 22.5738 47.3263 22.7863C47.4388 22.9989 47.4623 23.2474 47.3915 23.4773L46.3815 26.7573C46.3466 26.8711 46.2896 26.977 46.2137 27.0688C46.1378 27.1606 46.0445 27.2365 45.9393 27.2923C45.834 27.348 45.7188 27.3824 45.6002 27.3936C45.4816 27.4047 45.362 27.3924 45.2482 27.3573L41.9682 26.3473C41.7384 26.2765 41.546 26.1174 41.4335 25.9049C41.321 25.6923 41.2975 25.4438 41.3682 25.2139C41.4389 24.9841 41.5981 24.7917 41.8106 24.6792C42.0232 24.5667 42.2717 24.5432 42.5015 24.6139L43.9142 25.0486C42.7096 22.6064 40.8779 20.528 38.6065 19.026C36.335 17.524 33.7054 16.6524 30.9865 16.5002C28.2676 16.348 25.5571 16.9208 23.1323 18.1599C20.7074 19.399 18.6552 21.2601 17.1856 23.5526C17.1227 23.656 17.0398 23.7457 16.9417 23.8165C16.8436 23.8874 16.7324 23.9379 16.6145 23.9651C16.4966 23.9923 16.3744 23.9956 16.2552 23.9749C16.136 23.9542 16.0222 23.9099 15.9204 23.8445C15.8185 23.7792 15.7308 23.6941 15.6624 23.5943C15.5939 23.4946 15.5461 23.3821 15.5218 23.2636C15.4974 23.1451 15.497 23.0229 15.5205 22.9042C15.5441 22.7856 15.5912 22.6728 15.659 22.5726C17.2848 20.0383 19.5479 17.9755 22.2217 16.5908C24.8954 15.2061 27.886 14.548 30.894 14.6825C33.902 14.817 36.822 15.7393 39.3615 17.357C41.901 18.9748 43.971 21.2313 45.3642 23.9006L45.6595 22.9426L45.6582 22.9439ZM2.37633 10.8846H57.9948V3.26666C57.9929 2.8834 57.8398 2.51638 57.5688 2.24537C57.2978 1.97436 56.9308 1.82126 56.5475 1.81933H3.82366C3.4404 1.82126 3.07339 1.97436 2.80238 2.24537C2.53137 2.51638 2.37826 2.8834 2.37633 3.26666V10.8846ZM22.5589 7.12131C22.3178 7.12131 22.0865 7.02551 21.9159 6.85498C21.7454 6.68444 21.6496 6.45315 21.6496 6.21198C21.6496 5.97081 21.7454 5.73952 21.9159 5.56899C22.0865 5.39845 22.3178 5.30265 22.5589 5.30265H51.2829C51.524 5.30265 51.7553 5.39845 51.9258 5.56899C52.0964 5.73952 52.1922 5.97081 52.1922 6.21198C52.1922 6.45315 52.0964 6.68444 51.9258 6.85498C51.7553 7.02551 51.524 7.12131 51.2829 7.12131H22.5589ZM7.02565 7.12131C6.78448 7.12131 6.55319 7.02551 6.38266 6.85498C6.21213 6.68444 6.11632 6.45315 6.11632 6.21198C6.11632 5.97081 6.21213 5.73952 6.38266 5.56899C6.55319 5.39845 6.78448 5.30265 7.02565 5.30265H7.02899C7.27016 5.30265 7.50145 5.39845 7.67198 5.56899C7.84251 5.73952 7.93832 5.97081 7.93832 6.21198C7.93832 6.45315 7.84251 6.68444 7.67198 6.85498C7.50145 7.02551 7.27016 7.12131 7.02899 7.12131H7.02565ZM12.019 7.12131C11.7778 7.12131 11.5465 7.02551 11.376 6.85498C11.2054 6.68444 11.1096 6.45315 11.1096 6.21198C11.1096 5.97081 11.2054 5.73952 11.376 5.56899C11.5465 5.39845 11.7778 5.30265 12.019 5.30265C12.2601 5.30265 12.4914 5.39845 12.662 5.56899C12.8325 5.73952 12.9283 5.97081 12.9283 6.21198C12.9283 6.45315 12.8325 6.68444 12.662 6.85498C12.4914 7.02551 12.2601 7.12131 12.019 7.12131ZM17.013 7.12131C16.7718 7.12131 16.5405 7.02551 16.37 6.85498C16.1994 6.68444 16.1036 6.45315 16.1036 6.21198C16.1036 5.97081 16.1994 5.73952 16.37 5.56899C16.5405 5.39845 16.7718 5.30265 17.013 5.30265C17.2541 5.30265 17.4854 5.39845 17.656 5.56899C17.8265 5.73952 17.9223 5.97081 17.9223 6.21198C17.9223 6.45315 17.8265 6.68444 17.656 6.85498C17.4854 7.02551 17.2541 7.12131 17.013 7.12131ZM50.4862 45.6085C49.2813 44.4038 47.696 43.6541 46.0004 43.4872C44.3048 43.3202 42.6037 43.7464 41.1871 44.6931C39.7704 45.6397 38.7258 47.0483 38.2313 48.6787C37.7367 50.3092 37.8228 52.0607 38.4749 53.6348C39.1269 55.209 40.3046 56.5083 41.8073 57.3115C43.3099 58.1146 45.0446 58.3719 46.7156 58.0395C48.3867 57.7071 49.8909 56.8056 50.9718 55.4885C52.0527 54.1714 52.6435 52.5203 52.6435 50.8165C52.6449 49.8491 52.455 48.8909 52.0848 47.9971C51.7146 47.1034 51.1713 46.2916 50.4862 45.6085ZM54.3188 52.4292C53.9399 54.5517 52.8263 56.4733 51.1732 57.8574C49.52 59.2415 47.4326 60 45.2765 60C43.1204 60 41.0331 59.2415 39.3799 57.8574C37.7268 56.4733 36.6132 54.5517 36.2342 52.4292H3.82366C2.95773 52.4278 2.12766 52.0831 1.51535 51.4708C0.903035 50.8585 0.558417 50.0285 0.557007 49.1625V3.26666C0.558417 2.40072 0.903035 1.57065 1.51535 0.958339C2.12766 0.346028 2.95773 0.00141033 3.82366 0H56.5475C57.4134 0.00141033 58.2435 0.346028 58.8558 0.958339C59.4681 1.57065 59.8127 2.40072 59.8142 3.26666V49.1632C59.8127 50.0291 59.4681 50.8592 58.8558 51.4715C58.2435 52.0838 57.4134 52.4284 56.5475 52.4298L54.3188 52.4292ZM45.2782 41.6332C42.8783 41.6331 40.5736 42.5726 38.8577 44.2504C37.1417 45.9282 36.1507 48.2112 36.0969 50.6105H3.82366C3.44029 50.6089 3.07308 50.4559 2.80199 50.1849C2.53091 49.9138 2.37791 49.5466 2.37633 49.1632V12.7026H57.9948V49.1632C57.9932 49.5466 57.8403 49.9138 57.5692 50.1849C57.2981 50.4559 56.9309 50.6089 56.5475 50.6105H54.4595C54.4058 48.2111 53.4149 45.9281 51.6989 44.2502C49.9829 42.5723 47.6782 41.633 45.2782 41.6332ZM41.7855 51.7665C41.601 51.613 41.4849 51.3924 41.463 51.1532C41.441 50.9141 41.515 50.6761 41.6685 50.4915C41.8221 50.3069 42.0427 50.1909 42.2818 50.169C42.5209 50.147 42.759 50.221 42.9435 50.3745L44.7295 51.8665L47.9762 47.8432C48.1301 47.6674 48.346 47.5579 48.5787 47.5374C48.8115 47.517 49.0431 47.5871 49.2254 47.7333C49.4077 47.8794 49.5265 48.0903 49.557 48.322C49.5876 48.5536 49.5276 48.7881 49.3895 48.9765L45.5642 53.7165L45.5542 53.7278C45.4782 53.8193 45.385 53.8949 45.2798 53.9503C45.1746 54.0057 45.0596 54.0398 44.9412 54.0507C44.8228 54.0616 44.7034 54.049 44.5899 54.0138C44.4764 53.9785 44.3709 53.9212 44.2795 53.8452L41.7855 51.7665Z" fill="#0CB4C4"></path></svg>