<svg width="61" height="60" viewBox="0 0 61 60" fill="none" xmlns="http://www.w3.org/2000/svg"><path d="M55.5708 26.8745C54.162 15.5453 45.2465 6.63388 33.9119 5.2247V3.10705C33.9119 1.39372 32.5182 0 30.7864 0C29.0733 0 27.6796 1.39372 27.6796 3.10705V5.2247C16.3451 6.63388 7.42955 15.5453 6.02053 26.8745H3.91195C2.19366 26.8745 0.795898 28.2727 0.795898 30C0.795898 31.7183 2.19366 33.1161 3.91195 33.1161H6.02075C7.43044 44.4449 16.346 53.3571 27.6796 54.7663V56.8839C27.6796 58.6022 29.0733 60 30.7864 60H30.8049C32.5182 60 33.9119 58.6022 33.9119 56.8839V54.7663C45.2458 53.3571 54.1613 44.4449 55.5708 33.116H57.6888C59.402 33.116 60.7957 31.7183 60.7957 29.991C60.7957 28.2727 59.402 26.8745 57.6888 26.8745L55.5708 26.8745ZM53.7352 26.8745H49.1645C47.8478 19.0494 41.7426 12.9481 33.9119 11.6308V7.06042C44.2304 8.44288 52.3523 16.5616 53.7352 26.8745ZM30.7864 42.0681C29.0733 42.0681 27.6796 43.4618 27.6796 45.1751V46.9651C20.6158 45.6809 15.1067 40.1756 13.8217 33.1161H15.6113C17.3296 33.1161 18.7276 31.7183 18.7276 29.991C18.7276 28.2727 17.3296 26.8745 15.6113 26.8745H13.8217C15.1056 19.8154 20.6149 14.3101 27.6796 13.0255V14.8159C27.6796 15.03 27.7014 15.2392 27.7429 15.4412C28.033 16.8555 29.2874 17.9225 30.7864 17.9225H30.8049C32.5182 17.9225 33.9119 16.5288 33.9119 14.8159V13.0255C40.9766 14.3101 46.486 19.8154 47.7699 26.8745H45.98C44.2617 26.8745 42.864 28.2727 42.864 30C42.864 31.7183 44.2617 33.1161 45.98 33.1161H47.7699C46.4846 40.1756 40.9757 45.6809 33.9119 46.9651V45.1751C33.9119 43.4618 32.5182 42.0681 30.7864 42.0681ZM29.5235 3.10705C29.5235 2.41065 30.09 1.84388 30.8049 1.84388C31.5013 1.84388 32.0681 2.41065 32.0681 3.10705V5.02071V14.8159C32.0681 15.5123 31.5013 16.0786 30.7864 16.0786C30.09 16.0786 29.5235 15.5123 29.5235 14.8159V5.02071V3.10705ZM27.6796 7.06042V11.6308C19.8487 12.948 13.7436 19.0494 12.4268 26.8745H7.85608C9.23922 16.5616 17.3611 8.44288 27.6796 7.06042ZM3.91195 31.2722C3.21036 31.2722 2.63978 30.7014 2.63978 29.991C2.63978 29.2892 3.21037 28.7184 3.91195 28.7184H5.81637H15.6113C16.3129 28.7184 16.8837 29.2892 16.8837 30C16.8837 30.7014 16.3129 31.2722 15.6113 31.2722H5.81615H3.91195ZM7.85608 33.1161H12.4271C13.7447 40.9415 19.8501 47.0433 27.6796 48.3598V52.9306C17.3618 51.5477 9.24011 43.4289 7.85608 33.1161ZM32.0681 56.8839C32.0681 57.5853 31.5013 58.1561 30.8049 58.1561H30.7864C30.09 58.1561 29.5235 57.5853 29.5235 56.8839V54.9703V45.1751C29.5235 44.4787 30.09 43.912 30.8049 43.912C31.5013 43.912 32.0681 44.4787 32.0681 45.1751V54.9703V56.8839ZM33.9119 52.9306V48.3598C41.7415 47.0432 47.8466 40.9415 49.1645 33.1161H53.7352C52.3514 43.4289 44.2298 51.5477 33.9119 52.9306ZM58.9518 30C58.9518 30.7014 58.3853 31.2722 57.6888 31.2722H55.7752H45.98C45.2784 31.2722 44.7078 30.7014 44.7078 29.991C44.7078 29.2892 45.2784 28.7184 45.98 28.7184H55.775H57.6888C58.3853 28.7184 58.9518 29.2892 58.9518 30Z" fill="#0CB4C4"></path><path d="M38.5491 33.2821C38.5491 31.1363 37.6571 29.1034 36.1058 27.6418V24.2562C36.1058 21.3333 33.7319 18.9551 30.7862 18.9551C27.8631 18.9551 25.485 21.3333 25.485 24.2562V27.6421C23.9338 29.1044 23.042 31.1366 23.042 33.2821C23.042 37.5573 26.5202 41.0353 30.7954 41.0353C35.0709 41.0353 38.5491 37.5573 38.5491 33.2821ZM26.868 24.2562C26.868 22.0959 28.6256 20.338 30.8139 20.338C32.9693 20.338 34.7229 22.0959 34.7229 24.2562V26.5899C34.5931 26.542 33.0927 25.5194 30.7954 25.5194C29.3833 25.5194 28.0018 25.931 26.868 26.5899V24.2562ZM30.7954 39.6524C27.2828 39.6524 24.4249 36.7947 24.4249 33.2821C24.4249 29.7408 27.2995 26.9023 30.7954 26.9023C34.2641 26.9023 37.1662 29.7176 37.1662 33.2821C37.1662 36.7947 34.3083 39.6524 30.7954 39.6524Z" fill="#0CB4C4"></path><path d="M30.7975 29.791C29.4995 29.791 28.4434 30.8471 28.4434 32.1449C28.4434 33.201 29.1467 34.0861 30.1061 34.3837V36.074H31.489V34.3837C32.4483 34.0861 33.1514 33.201 33.1514 32.1449C33.1514 30.8471 32.0956 29.791 30.7975 29.791ZM30.7975 33.1164C30.262 33.1164 29.8263 32.6806 29.8263 32.1449C29.8263 31.6097 30.262 31.1739 30.7975 31.1739C31.333 31.1739 31.7685 31.6097 31.7685 32.1449C31.7685 32.6806 31.333 33.1164 30.7975 33.1164Z" fill="#0CB4C4"></path></svg>