<svg width="61" height="60" viewBox="0 0 61 60" fill="none" xmlns="http://www.w3.org/2000/svg"><mask id="path-1-inside-1_561_75" fill="white"><path d="M60.0202 0H44.968C44.5021 0 44.1235 0.378553 44.1235 0.844473V15.8967C44.1235 16.3626 44.5021 16.7412 44.968 16.7412H51.6496V18.8484H31.2768V16.7412H37.9585C38.4244 16.7412 38.8029 16.3626 38.8029 15.8967V0.844473C38.8029 0.378559 38.4244 0 37.9585 0H22.9062C22.4403 0 22.0618 0.378553 22.0618 0.844473V15.8967C22.0618 16.3626 22.4403 16.7412 22.9062 16.7412H29.5879V18.8484H9.21507V16.7412H15.8967C16.3626 16.7412 16.7412 16.3626 16.7412 15.8967V0.844473C16.7412 0.378559 16.3626 0 15.8967 0H0.844473C0.378559 0 0 0.378553 0 0.844473V15.8967C0 16.3626 0.378553 16.7412 0.844473 16.7412H7.52612V19.6929C7.52612 20.1588 7.90467 20.5374 8.37059 20.5374H29.5885V22.9146C29.3423 22.5942 29.0723 22.3083 28.7784 22.0569C28.2781 21.6307 27.5845 21.5221 26.9704 21.7763L26.7533 21.8663H6.82233C5.64165 21.8663 4.68068 22.8272 4.68068 24.0079V52.6777H4.13535C3.66944 52.6777 3.29088 53.0563 3.29088 53.5222V56.9372C3.29088 58.6261 4.66476 60 6.35371 60H54.5099C56.1989 60 57.5727 58.6261 57.5727 56.9372V53.5222C57.5727 53.0563 57.1942 52.6777 56.7283 52.6777H56.1829V24.0079C56.1829 22.8272 55.222 21.8663 54.0413 21.8663H34.1103L33.88 21.771C33.2791 21.5221 32.5961 21.6227 32.0958 22.0331C31.7967 22.2792 31.5213 22.5599 31.2752 22.8722V20.5374H52.4931C52.959 20.5374 53.3375 20.1588 53.3375 19.6929V16.7412H60.0192C60.4851 16.7412 60.8637 16.3627 60.8637 15.8967L60.8663 0.844507C60.8663 0.378593 60.4878 3.36075e-05 60.0218 3.36075e-05L60.0202 0ZM7.57559 1.68895H9.16126V3.93116L8.88065 3.71673C8.72976 3.60025 8.5471 3.54202 8.36709 3.54202C8.18443 3.54202 8.00442 3.60026 7.85353 3.71673L7.57292 3.93116V1.68895H7.57559ZM1.68813 15.0524V1.68895H5.88665V5.6439C5.88665 5.96421 6.0693 6.25806 6.35785 6.40101C6.47698 6.45925 6.60404 6.48838 6.73111 6.48838C6.91377 6.48838 7.09379 6.43014 7.24467 6.31366L8.36978 5.45333L9.49489 6.31366C9.74902 6.50955 10.0932 6.54397 10.3817 6.40102C10.6703 6.25807 10.8529 5.96423 10.8529 5.6439V1.68895H15.0514V15.0524L1.68813 15.0524ZM29.6375 1.68895H31.2232V3.93116L30.9426 3.71673C30.7917 3.60025 30.6091 3.54202 30.429 3.54202C30.2464 3.54202 30.0664 3.60026 29.9155 3.71673L29.6349 3.93116V1.68895H29.6375ZM55.8846 54.366V56.9365C55.8846 57.6936 55.2678 58.3104 54.5107 58.3104L6.35249 58.3131C5.59537 58.3131 4.9786 57.6962 4.9786 56.9392V54.3687H55.8849L55.8846 54.366ZM54.0421 23.5547C54.2909 23.5547 54.4948 23.7586 54.4948 24.0074V52.6772H6.36772V24.0074C6.36772 23.7586 6.57156 23.5547 6.8204 23.5547H23.6197C23.498 23.7665 23.4185 24.0047 23.3921 24.2589C23.3762 24.4257 23.3682 24.5925 23.3682 24.7619H8.31329C7.84738 24.7619 7.46882 25.1404 7.46882 25.6064V50.7311C7.46882 51.1971 7.84737 51.5756 8.31329 51.5756H52.5484C53.0143 51.5756 53.3928 51.1971 53.3928 50.7311V25.6064C53.3928 25.1404 53.0143 24.7619 52.5484 24.7619H37.4751C37.4777 24.6004 37.4725 24.4389 37.4619 24.2827C37.4407 24.0207 37.3613 23.7745 37.2368 23.5548H54.0443L54.0421 23.5547ZM18.8129 31.9859C19.1385 32.3803 19.525 32.7351 19.9697 33.0395C19.9882 33.0527 19.9988 33.0739 19.9962 33.0977C19.9777 33.4684 19.9777 33.8443 19.9988 34.2175C20.0015 34.2493 19.9882 34.281 19.9724 34.2943C19.5409 34.5908 19.1597 34.9322 18.8393 35.3082C18.4131 35.8085 18.3046 36.5021 18.5587 37.1162L19.5938 39.6152C19.8426 40.2162 20.3959 40.6291 21.0391 40.6926C21.5474 40.7429 22.0742 40.7191 22.601 40.6212C22.6249 40.6159 22.646 40.6265 22.6646 40.645C22.9134 40.9229 23.1781 41.1877 23.4561 41.4365C23.4799 41.4577 23.4932 41.4868 23.4905 41.508C23.3952 42.0216 23.3661 42.5325 23.4058 43.0249C23.4588 43.6814 23.8717 44.2479 24.4859 44.5021L26.9849 45.5371C27.2046 45.6271 27.4323 45.6721 27.66 45.6721C28.057 45.6721 28.4515 45.5371 28.7691 45.275C29.1636 44.9494 29.5183 44.5629 29.8227 44.1182C29.836 44.0997 29.8598 44.0891 29.8836 44.0891C30.2569 44.1076 30.6328 44.1076 31.0034 44.0864C31.0351 44.0838 31.0669 44.097 31.0801 44.1129C31.3766 44.5444 31.7181 44.9256 32.094 45.2459C32.5944 45.6721 33.2879 45.7807 33.9021 45.5265L36.4011 44.4915C37.002 44.2427 37.415 43.6894 37.4785 43.0461C37.5288 42.5378 37.505 42.0111 37.407 41.4842C37.4017 41.4604 37.4123 41.4392 37.4309 41.4234C37.7088 41.1745 37.9736 40.9071 38.2224 40.6318C38.2436 40.608 38.2727 40.5947 38.2939 40.5974C38.8075 40.6927 39.3184 40.7218 39.8108 40.6821C40.4673 40.6292 41.0338 40.2162 41.2879 39.602L42.323 37.103C42.5718 36.5021 42.4712 35.8191 42.0609 35.3188C41.7353 34.9243 41.3488 34.5696 40.9041 34.2652C40.8855 34.2519 40.875 34.2307 40.8776 34.2069C40.8961 33.8363 40.8961 33.4604 40.875 33.0872C40.8723 33.0554 40.8855 33.0236 40.9014 33.0104C41.3329 32.7139 41.7141 32.3724 42.0345 31.9965C42.4607 31.4962 42.5692 30.8026 42.3151 30.1884L41.28 27.6894C41.0312 27.0885 40.4779 26.6755 39.8347 26.612C39.3264 26.5617 38.7996 26.5856 38.2728 26.6835C38.2489 26.6888 38.2278 26.6782 38.2119 26.6597C38.1457 26.5882 38.0769 26.5194 38.0107 26.4479H51.7157V49.8839L9.15859 49.8865V26.4505H22.8636C22.7921 26.5247 22.7206 26.5988 22.6518 26.6729C22.6306 26.6967 22.6015 26.71 22.5803 26.7073C22.0668 26.612 21.5558 26.5829 21.0634 26.6226C20.4069 26.6756 19.8404 27.0885 19.5863 27.7027L18.5512 30.2017C18.3024 30.8026 18.4026 31.4856 18.8129 31.9859ZM32.4359 24.1423C32.653 23.8273 32.8912 23.5625 33.1665 23.3375C33.1824 23.3243 33.2115 23.3216 33.2327 23.3322L35.7317 24.3673C35.7555 24.3778 35.7714 24.3964 35.774 24.4176C35.8005 24.7617 35.7793 25.1217 35.7131 25.4923C35.602 26.0906 35.819 26.718 36.2797 27.131C36.51 27.3401 36.735 27.5625 36.9415 27.7928C37.3491 28.2455 37.9712 28.4572 38.5695 28.3487C38.9454 28.2799 39.3001 28.2613 39.6575 28.2958C39.6787 28.2984 39.6999 28.3143 39.7078 28.3381L40.7429 30.8371C40.7534 30.8609 40.7508 30.8874 40.7376 30.9033C40.5126 31.1654 40.2425 31.4063 39.9328 31.6207C39.4325 31.9648 39.1413 32.5631 39.1757 33.1799C39.1916 33.4923 39.1942 33.8073 39.1757 34.117C39.1439 34.7259 39.4351 35.3162 39.9354 35.6577C40.2505 35.8748 40.5152 36.113 40.7402 36.391C40.7534 36.4069 40.7561 36.436 40.7455 36.4572L39.7105 38.9561C39.6999 38.98 39.6813 38.9959 39.6602 38.9985C39.316 39.025 38.9533 39.0038 38.5854 38.9376C37.9871 38.8264 37.3597 39.0435 36.9494 39.5041C36.7429 39.7344 36.5179 39.9594 36.2876 40.1659C35.8349 40.5736 35.6231 41.1983 35.7317 41.794C35.8005 42.1699 35.819 42.5272 35.7846 42.882C35.782 42.9032 35.7661 42.9243 35.7423 42.9323L33.2433 43.9673C33.2194 43.9753 33.193 43.9753 33.1771 43.962C32.915 43.737 32.6741 43.467 32.4597 43.1573C32.1155 42.6569 31.5173 42.3657 30.9004 42.4002C30.5907 42.416 30.2757 42.4187 29.9633 42.4002C29.3571 42.3684 28.7641 42.6596 28.4227 43.1599C28.2056 43.4749 27.9673 43.7397 27.692 43.9647C27.6762 43.9779 27.647 43.9806 27.6259 43.9726L25.1269 42.9376C25.103 42.927 25.0872 42.9085 25.0845 42.8873C25.058 42.5431 25.0792 42.1804 25.1454 41.8125C25.2566 41.2143 25.0395 40.5869 24.5789 40.1739C24.3459 39.9647 24.1236 39.7424 23.9171 39.5121C23.5809 39.1388 23.0991 38.927 22.604 38.927C22.4982 38.927 22.3923 38.9376 22.289 38.9561C21.9131 39.025 21.5584 39.0435 21.201 39.0091C21.1798 39.0064 21.1586 38.9906 21.1507 38.9667L20.1157 36.4677C20.1051 36.4439 20.1077 36.4174 20.1209 36.4016C20.346 36.1395 20.616 35.8986 20.9257 35.6841C21.426 35.34 21.7173 34.7417 21.6828 34.1249C21.6669 33.8125 21.6643 33.4975 21.6828 33.1878C21.7146 32.5789 21.4234 31.9886 20.9231 31.6471C20.608 31.4301 20.3433 31.1918 20.1183 30.9139C20.1051 30.898 20.1024 30.8689 20.113 30.8477L21.1481 28.3487C21.1586 28.3249 21.1772 28.309 21.1983 28.3063C21.5425 28.2799 21.9052 28.301 22.2731 28.3672C22.8714 28.4784 23.4988 28.2613 23.9118 27.8007C24.1209 27.5704 24.3433 27.3454 24.5736 27.1389C25.0262 26.7312 25.238 26.1065 25.1295 25.5109C25.0607 25.135 25.0421 24.7803 25.0765 24.4228C25.0792 24.4017 25.0951 24.3805 25.1189 24.3725L27.6179 23.3375C27.6417 23.3296 27.6682 23.3296 27.6841 23.3428C27.9462 23.5678 28.1871 23.8378 28.4015 24.1476C28.7456 24.6479 29.3465 24.9391 29.9607 24.9047C30.2731 24.8888 30.5881 24.8861 30.8978 24.9047C31.5067 24.9364 32.097 24.6453 32.4385 24.1449L32.4359 24.1423ZM23.7506 15.0517V1.68827H27.9491V5.64322C27.9491 5.96354 28.1317 6.25738 28.4203 6.40034C28.7088 6.54329 29.053 6.50888 29.3071 6.31297L30.4322 5.45264L31.5573 6.31297C31.7082 6.42681 31.8882 6.48769 32.0709 6.48769C32.198 6.48769 32.325 6.45857 32.4441 6.40033C32.7327 6.25738 32.9154 5.96354 32.9154 5.64321V1.68826H37.1139V15.0517L23.7506 15.0517ZM51.7 1.68827H53.2857V3.93048L53.005 3.71606C52.7033 3.4831 52.2797 3.4831 51.9779 3.71606L51.6973 3.93048V1.68827H51.7ZM59.1756 15.0517H45.8122V1.68827H50.0107V5.64322C50.0107 5.96354 50.1934 6.25738 50.4819 6.40034C50.7705 6.54329 51.1146 6.50888 51.3687 6.31297L52.4938 5.45264L53.6189 6.31297C53.7698 6.42681 53.9499 6.48769 54.1325 6.48769C54.2596 6.48769 54.3866 6.45857 54.5058 6.40033C54.7943 6.25738 54.977 5.96354 54.977 5.64321V1.68826H59.1755L59.1756 15.0517ZM24.0942 33.651C24.0942 37.1453 26.9373 39.9885 30.4317 39.9885C33.9261 39.9885 36.7692 37.1454 36.7692 33.651C36.7692 30.1566 33.9261 27.3135 30.4317 27.3135C26.9373 27.3135 24.0942 30.1566 24.0942 33.651ZM35.0802 33.651C35.0802 36.2135 32.9942 38.2996 30.4317 38.2996C27.8691 38.2996 25.7831 36.2135 25.7831 33.651C25.7831 31.0884 27.8691 29.0024 30.4317 29.0024C32.9942 29.0024 35.0802 31.0884 35.0802 33.651Z"></path></mask><path d="M60.0202 0H44.968C44.5021 0 44.1235 0.378553 44.1235 0.844473V15.8967C44.1235 16.3626 44.5021 16.7412 44.968 16.7412H51.6496V18.8484H31.2768V16.7412H37.9585C38.4244 16.7412 38.8029 16.3626 38.8029 15.8967V0.844473C38.8029 0.378559 38.4244 0 37.9585 0H22.9062C22.4403 0 22.0618 0.378553 22.0618 0.844473V15.8967C22.0618 16.3626 22.4403 16.7412 22.9062 16.7412H29.5879V18.8484H9.21507V16.7412H15.8967C16.3626 16.7412 16.7412 16.3626 16.7412 15.8967V0.844473C16.7412 0.378559 16.3626 0 15.8967 0H0.844473C0.378559 0 0 0.378553 0 0.844473V15.8967C0 16.3626 0.378553 16.7412 0.844473 16.7412H7.52612V19.6929C7.52612 20.1588 7.90467 20.5374 8.37059 20.5374H29.5885V22.9146C29.3423 22.5942 29.0723 22.3083 28.7784 22.0569C28.2781 21.6307 27.5845 21.5221 26.9704 21.7763L26.7533 21.8663H6.82233C5.64165 21.8663 4.68068 22.8272 4.68068 24.0079V52.6777H4.13535C3.66944 52.6777 3.29088 53.0563 3.29088 53.5222V56.9372C3.29088 58.6261 4.66476 60 6.35371 60H54.5099C56.1989 60 57.5727 58.6261 57.5727 56.9372V53.5222C57.5727 53.0563 57.1942 52.6777 56.7283 52.6777H56.1829V24.0079C56.1829 22.8272 55.222 21.8663 54.0413 21.8663H34.1103L33.88 21.771C33.2791 21.5221 32.5961 21.6227 32.0958 22.0331C31.7967 22.2792 31.5213 22.5599 31.2752 22.8722V20.5374H52.4931C52.959 20.5374 53.3375 20.1588 53.3375 19.6929V16.7412H60.0192C60.4851 16.7412 60.8637 16.3627 60.8637 15.8967L60.8663 0.844507C60.8663 0.378593 60.4878 3.36075e-05 60.0218 3.36075e-05L60.0202 0ZM7.57559 1.68895H9.16126V3.93116L8.88065 3.71673C8.72976 3.60025 8.5471 3.54202 8.36709 3.54202C8.18443 3.54202 8.00442 3.60026 7.85353 3.71673L7.57292 3.93116V1.68895H7.57559ZM1.68813 15.0524V1.68895H5.88665V5.6439C5.88665 5.96421 6.0693 6.25806 6.35785 6.40101C6.47698 6.45925 6.60404 6.48838 6.73111 6.48838C6.91377 6.48838 7.09379 6.43014 7.24467 6.31366L8.36978 5.45333L9.49489 6.31366C9.74902 6.50955 10.0932 6.54397 10.3817 6.40102C10.6703 6.25807 10.8529 5.96423 10.8529 5.6439V1.68895H15.0514V15.0524L1.68813 15.0524ZM29.6375 1.68895H31.2232V3.93116L30.9426 3.71673C30.7917 3.60025 30.6091 3.54202 30.429 3.54202C30.2464 3.54202 30.0664 3.60026 29.9155 3.71673L29.6349 3.93116V1.68895H29.6375ZM55.8846 54.366V56.9365C55.8846 57.6936 55.2678 58.3104 54.5107 58.3104L6.35249 58.3131C5.59537 58.3131 4.9786 57.6962 4.9786 56.9392V54.3687H55.8849L55.8846 54.366ZM54.0421 23.5547C54.2909 23.5547 54.4948 23.7586 54.4948 24.0074V52.6772H6.36772V24.0074C6.36772 23.7586 6.57156 23.5547 6.8204 23.5547H23.6197C23.498 23.7665 23.4185 24.0047 23.3921 24.2589C23.3762 24.4257 23.3682 24.5925 23.3682 24.7619H8.31329C7.84738 24.7619 7.46882 25.1404 7.46882 25.6064V50.7311C7.46882 51.1971 7.84737 51.5756 8.31329 51.5756H52.5484C53.0143 51.5756 53.3928 51.1971 53.3928 50.7311V25.6064C53.3928 25.1404 53.0143 24.7619 52.5484 24.7619H37.4751C37.4777 24.6004 37.4725 24.4389 37.4619 24.2827C37.4407 24.0207 37.3613 23.7745 37.2368 23.5548H54.0443L54.0421 23.5547ZM18.8129 31.9859C19.1385 32.3803 19.525 32.7351 19.9697 33.0395C19.9882 33.0527 19.9988 33.0739 19.9962 33.0977C19.9777 33.4684 19.9777 33.8443 19.9988 34.2175C20.0015 34.2493 19.9882 34.281 19.9724 34.2943C19.5409 34.5908 19.1597 34.9322 18.8393 35.3082C18.4131 35.8085 18.3046 36.5021 18.5587 37.1162L19.5938 39.6152C19.8426 40.2162 20.3959 40.6291 21.0391 40.6926C21.5474 40.7429 22.0742 40.7191 22.601 40.6212C22.6249 40.6159 22.646 40.6265 22.6646 40.645C22.9134 40.9229 23.1781 41.1877 23.4561 41.4365C23.4799 41.4577 23.4932 41.4868 23.4905 41.508C23.3952 42.0216 23.3661 42.5325 23.4058 43.0249C23.4588 43.6814 23.8717 44.2479 24.4859 44.5021L26.9849 45.5371C27.2046 45.6271 27.4323 45.6721 27.66 45.6721C28.057 45.6721 28.4515 45.5371 28.7691 45.275C29.1636 44.9494 29.5183 44.5629 29.8227 44.1182C29.836 44.0997 29.8598 44.0891 29.8836 44.0891C30.2569 44.1076 30.6328 44.1076 31.0034 44.0864C31.0351 44.0838 31.0669 44.097 31.0801 44.1129C31.3766 44.5444 31.7181 44.9256 32.094 45.2459C32.5944 45.6721 33.2879 45.7807 33.9021 45.5265L36.4011 44.4915C37.002 44.2427 37.415 43.6894 37.4785 43.0461C37.5288 42.5378 37.505 42.0111 37.407 41.4842C37.4017 41.4604 37.4123 41.4392 37.4309 41.4234C37.7088 41.1745 37.9736 40.9071 38.2224 40.6318C38.2436 40.608 38.2727 40.5947 38.2939 40.5974C38.8075 40.6927 39.3184 40.7218 39.8108 40.6821C40.4673 40.6292 41.0338 40.2162 41.2879 39.602L42.323 37.103C42.5718 36.5021 42.4712 35.8191 42.0609 35.3188C41.7353 34.9243 41.3488 34.5696 40.9041 34.2652C40.8855 34.2519 40.875 34.2307 40.8776 34.2069C40.8961 33.8363 40.8961 33.4604 40.875 33.0872C40.8723 33.0554 40.8855 33.0236 40.9014 33.0104C41.3329 32.7139 41.7141 32.3724 42.0345 31.9965C42.4607 31.4962 42.5692 30.8026 42.3151 30.1884L41.28 27.6894C41.0312 27.0885 40.4779 26.6755 39.8347 26.612C39.3264 26.5617 38.7996 26.5856 38.2728 26.6835C38.2489 26.6888 38.2278 26.6782 38.2119 26.6597C38.1457 26.5882 38.0769 26.5194 38.0107 26.4479H51.7157V49.8839L9.15859 49.8865V26.4505H22.8636C22.7921 26.5247 22.7206 26.5988 22.6518 26.6729C22.6306 26.6967 22.6015 26.71 22.5803 26.7073C22.0668 26.612 21.5558 26.5829 21.0634 26.6226C20.4069 26.6756 19.8404 27.0885 19.5863 27.7027L18.5512 30.2017C18.3024 30.8026 18.4026 31.4856 18.8129 31.9859ZM32.4359 24.1423C32.653 23.8273 32.8912 23.5625 33.1665 23.3375C33.1824 23.3243 33.2115 23.3216 33.2327 23.3322L35.7317 24.3673C35.7555 24.3778 35.7714 24.3964 35.774 24.4176C35.8005 24.7617 35.7793 25.1217 35.7131 25.4923C35.602 26.0906 35.819 26.718 36.2797 27.131C36.51 27.3401 36.735 27.5625 36.9415 27.7928C37.3491 28.2455 37.9712 28.4572 38.5695 28.3487C38.9454 28.2799 39.3001 28.2613 39.6575 28.2958C39.6787 28.2984 39.6999 28.3143 39.7078 28.3381L40.7429 30.8371C40.7534 30.8609 40.7508 30.8874 40.7376 30.9033C40.5126 31.1654 40.2425 31.4063 39.9328 31.6207C39.4325 31.9648 39.1413 32.5631 39.1757 33.1799C39.1916 33.4923 39.1942 33.8073 39.1757 34.117C39.1439 34.7259 39.4351 35.3162 39.9354 35.6577C40.2505 35.8748 40.5152 36.113 40.7402 36.391C40.7534 36.4069 40.7561 36.436 40.7455 36.4572L39.7105 38.9561C39.6999 38.98 39.6813 38.9959 39.6602 38.9985C39.316 39.025 38.9533 39.0038 38.5854 38.9376C37.9871 38.8264 37.3597 39.0435 36.9494 39.5041C36.7429 39.7344 36.5179 39.9594 36.2876 40.1659C35.8349 40.5736 35.6231 41.1983 35.7317 41.794C35.8005 42.1699 35.819 42.5272 35.7846 42.882C35.782 42.9032 35.7661 42.9243 35.7423 42.9323L33.2433 43.9673C33.2194 43.9753 33.193 43.9753 33.1771 43.962C32.915 43.737 32.6741 43.467 32.4597 43.1573C32.1155 42.6569 31.5173 42.3657 30.9004 42.4002C30.5907 42.416 30.2757 42.4187 29.9633 42.4002C29.3571 42.3684 28.7641 42.6596 28.4227 43.1599C28.2056 43.4749 27.9673 43.7397 27.692 43.9647C27.6762 43.9779 27.647 43.9806 27.6259 43.9726L25.1269 42.9376C25.103 42.927 25.0872 42.9085 25.0845 42.8873C25.058 42.5431 25.0792 42.1804 25.1454 41.8125C25.2566 41.2143 25.0395 40.5869 24.5789 40.1739C24.3459 39.9647 24.1236 39.7424 23.9171 39.5121C23.5809 39.1388 23.0991 38.927 22.604 38.927C22.4982 38.927 22.3923 38.9376 22.289 38.9561C21.9131 39.025 21.5584 39.0435 21.201 39.0091C21.1798 39.0064 21.1586 38.9906 21.1507 38.9667L20.1157 36.4677C20.1051 36.4439 20.1077 36.4174 20.1209 36.4016C20.346 36.1395 20.616 35.8986 20.9257 35.6841C21.426 35.34 21.7173 34.7417 21.6828 34.1249C21.6669 33.8125 21.6643 33.4975 21.6828 33.1878C21.7146 32.5789 21.4234 31.9886 20.9231 31.6471C20.608 31.4301 20.3433 31.1918 20.1183 30.9139C20.1051 30.898 20.1024 30.8689 20.113 30.8477L21.1481 28.3487C21.1586 28.3249 21.1772 28.309 21.1983 28.3063C21.5425 28.2799 21.9052 28.301 22.2731 28.3672C22.8714 28.4784 23.4988 28.2613 23.9118 27.8007C24.1209 27.5704 24.3433 27.3454 24.5736 27.1389C25.0262 26.7312 25.238 26.1065 25.1295 25.5109C25.0607 25.135 25.0421 24.7803 25.0765 24.4228C25.0792 24.4017 25.0951 24.3805 25.1189 24.3725L27.6179 23.3375C27.6417 23.3296 27.6682 23.3296 27.6841 23.3428C27.9462 23.5678 28.1871 23.8378 28.4015 24.1476C28.7456 24.6479 29.3465 24.9391 29.9607 24.9047C30.2731 24.8888 30.5881 24.8861 30.8978 24.9047C31.5067 24.9364 32.097 24.6453 32.4385 24.1449L32.4359 24.1423ZM23.7506 15.0517V1.68827H27.9491V5.64322C27.9491 5.96354 28.1317 6.25738 28.4203 6.40034C28.7088 6.54329 29.053 6.50888 29.3071 6.31297L30.4322 5.45264L31.5573 6.31297C31.7082 6.42681 31.8882 6.48769 32.0709 6.48769C32.198 6.48769 32.325 6.45857 32.4441 6.40033C32.7327 6.25738 32.9154 5.96354 32.9154 5.64321V1.68826H37.1139V15.0517L23.7506 15.0517ZM51.7 1.68827H53.2857V3.93048L53.005 3.71606C52.7033 3.4831 52.2797 3.4831 51.9779 3.71606L51.6973 3.93048V1.68827H51.7ZM59.1756 15.0517H45.8122V1.68827H50.0107V5.64322C50.0107 5.96354 50.1934 6.25738 50.4819 6.40034C50.7705 6.54329 51.1146 6.50888 51.3687 6.31297L52.4938 5.45264L53.6189 6.31297C53.7698 6.42681 53.9499 6.48769 54.1325 6.48769C54.2596 6.48769 54.3866 6.45857 54.5058 6.40033C54.7943 6.25738 54.977 5.96354 54.977 5.64321V1.68826H59.1755L59.1756 15.0517ZM24.0942 33.651C24.0942 37.1453 26.9373 39.9885 30.4317 39.9885C33.9261 39.9885 36.7692 37.1454 36.7692 33.651C36.7692 30.1566 33.9261 27.3135 30.4317 27.3135C26.9373 27.3135 24.0942 30.1566 24.0942 33.651ZM35.0802 33.651C35.0802 36.2135 32.9942 38.2996 30.4317 38.2996C27.8691 38.2996 25.7831 36.2135 25.7831 33.651C25.7831 31.0884 27.8691 29.0024 30.4317 29.0024C32.9942 29.0024 35.0802 31.0884 35.0802 33.651Z" fill="#0CB4C4" stroke="white" stroke-width="0.4" mask="url(#path-1-inside-1_561_75)"></path></svg>