<svg width="58" height="60" viewBox="0 0 58 60" fill="none" xmlns="http://www.w3.org/2000/svg"><mask id="path-1-inside-1_561_72" fill="white"><path d="M52.8092 12.2573H50.21V3.58878C50.21 1.60968 48.4618 0 46.3046 0H11.1556C9.00495 0 7.25014 1.60968 7.25014 3.58878V12.2573H4.65091C2.08466 12.2573 0 14.177 0 16.5322V48.5739C0 50.9357 2.08466 52.8488 4.65091 52.8488H22.5816L20.5234 58.1264H16.5915C16.0308 58.1264 15.569 58.5487 15.569 59.0632C15.569 59.5778 16.0242 60 16.5915 60H21.2358H21.2424C21.2424 60 21.2424 60 21.249 60H36.2045C36.2045 60 36.2045 60 36.2111 60H36.2177H40.862C41.4228 60 41.8845 59.5778 41.8845 59.0632C41.8845 58.5487 41.4294 58.1264 40.862 58.1264H36.9236L34.8653 52.8488H52.8092C55.3755 52.8488 57.4601 50.9291 57.4601 48.5739V16.5322C57.4601 14.177 55.3755 12.2573 52.8092 12.2573ZM9.28862 10.0077H48.1649V33.249C48.1649 34.1924 47.3271 34.9577 46.3046 34.9577H11.1556C10.1264 34.9577 9.29522 34.1924 9.29522 33.249V10.0077H9.28862ZM11.1556 1.87356H46.3112C47.3403 1.87356 48.1715 2.63881 48.1715 3.58878V8.13414H9.28862V3.58878C9.28862 2.63881 10.1264 1.87356 11.1556 1.87356ZM4.65091 14.1308H7.25014V33.249C7.25014 35.2281 8.99835 36.8378 11.1556 36.8378H46.3112C48.4618 36.8378 50.2166 35.2281 50.2166 33.249V14.1308H52.8158C54.254 14.1308 55.4283 15.2062 55.4283 16.5322V42.5179H2.04508V16.5322C2.04508 15.2128 3.21275 14.1308 4.65091 14.1308ZM34.7598 58.133H22.7004L24.7587 52.8554H32.7147L34.7598 58.133ZM52.8092 50.9753H4.65091C3.21275 50.9753 2.03848 49.8999 2.03848 48.5739V44.398H55.4151V48.5739C55.4151 49.8999 54.2474 50.9753 52.8092 50.9753ZM13.6954 7.3227C15.0874 7.3227 16.2221 6.28037 16.2221 5.00055C16.2221 3.72073 15.0874 2.67839 13.6954 2.67839C12.3035 2.67839 11.1688 3.72073 11.1688 5.00055C11.1688 6.28697 12.3035 7.3227 13.6954 7.3227ZM13.6954 4.55855C13.9659 4.55855 14.1836 4.75646 14.1836 5.00715C14.1836 5.25124 13.9659 5.44915 13.6954 5.44915C13.4316 5.44915 13.2139 5.24464 13.2139 5.00715C13.2139 4.75646 13.425 4.55855 13.6954 4.55855ZM19.6526 7.3227C21.0445 7.3227 22.1792 6.28037 22.1792 5.00055C22.1792 3.72073 21.0445 2.67839 19.6526 2.67839C18.2606 2.67839 17.1259 3.72073 17.1259 5.00055C17.1259 6.28697 18.2606 7.3227 19.6526 7.3227ZM19.6526 4.55855C19.923 4.55855 20.1407 4.75646 20.1407 5.00715C20.1407 5.25124 19.923 5.44915 19.6526 5.44915C19.3887 5.44915 19.1644 5.24464 19.1644 5.00715C19.171 4.76306 19.3887 4.55855 19.6526 4.55855ZM25.6163 7.3227C27.0082 7.3227 28.1429 6.28037 28.1429 5.00055C28.1429 3.72073 27.0082 2.67839 25.6163 2.67839C24.2243 2.67839 23.0896 3.72073 23.0896 5.00055C23.0896 6.28697 24.2243 7.3227 25.6163 7.3227ZM25.6163 4.55855C25.8802 4.55855 26.0979 4.75646 26.0979 5.00715C26.0979 5.24464 25.8802 5.44915 25.6163 5.44915C25.3458 5.44915 25.1281 5.25124 25.1281 5.00715C25.1281 4.75646 25.3524 4.55855 25.6163 4.55855ZM29.1985 5.00715C29.1985 4.48598 29.6537 4.07037 30.221 4.07037H45.2754C45.8362 4.07037 46.298 4.49258 46.298 5.00715C46.298 5.52171 45.8428 5.94392 45.2754 5.94392H30.2144C29.6537 5.94392 29.1985 5.52171 29.1985 5.00715ZM26.2826 28.1034L29.1919 16.4464C29.3172 15.9384 29.8648 15.6284 30.4123 15.7405C30.9599 15.8593 31.3029 16.3606 31.1776 16.862L28.2683 28.5256C28.1627 28.961 27.7405 29.2512 27.2721 29.2512C27.1996 29.2512 27.1204 29.2446 27.0412 29.2248C26.5003 29.1127 26.1572 28.6113 26.2826 28.1034ZM16.3408 22.4893C16.3408 22.1462 16.5388 21.8362 16.862 21.6712L23.8285 18.0957C24.3233 17.845 24.9434 18.0033 25.2204 18.4585C25.4975 18.9137 25.3194 19.481 24.8246 19.7383L19.4546 22.4959L24.8246 25.2534C25.3194 25.5041 25.4909 26.0781 25.2204 26.5333C25.0357 26.8433 24.6861 27.0148 24.3299 27.0148C24.1583 27.0148 23.9934 26.9753 23.8351 26.8961L16.8686 23.3205C16.5454 23.1424 16.3408 22.8257 16.3408 22.4893ZM32.6289 25.2402L37.9989 22.4827L32.6289 19.7251C32.1341 19.4744 31.9626 18.9005 32.2331 18.4453C32.5102 17.9901 33.1303 17.8318 33.6251 18.0825L40.5915 21.6581C40.9148 21.823 41.1127 22.1396 41.1127 22.4761C41.1127 22.8191 40.9148 23.1292 40.5915 23.2941L33.6251 26.8697C33.4667 26.9489 33.2952 26.9885 33.1303 26.9885C32.774 26.9885 32.4244 26.8169 32.2397 26.5069C31.9626 26.0649 32.1407 25.4975 32.6289 25.2402Z"></path></mask><path d="M52.8092 12.2573H50.21V3.58878C50.21 1.60968 48.4618 0 46.3046 0H11.1556C9.00495 0 7.25014 1.60968 7.25014 3.58878V12.2573H4.65091C2.08466 12.2573 0 14.177 0 16.5322V48.5739C0 50.9357 2.08466 52.8488 4.65091 52.8488H22.5816L20.5234 58.1264H16.5915C16.0308 58.1264 15.569 58.5487 15.569 59.0632C15.569 59.5778 16.0242 60 16.5915 60H21.2358H21.2424C21.2424 60 21.2424 60 21.249 60H36.2045C36.2045 60 36.2045 60 36.2111 60H36.2177H40.862C41.4228 60 41.8845 59.5778 41.8845 59.0632C41.8845 58.5487 41.4294 58.1264 40.862 58.1264H36.9236L34.8653 52.8488H52.8092C55.3755 52.8488 57.4601 50.9291 57.4601 48.5739V16.5322C57.4601 14.177 55.3755 12.2573 52.8092 12.2573ZM9.28862 10.0077H48.1649V33.249C48.1649 34.1924 47.3271 34.9577 46.3046 34.9577H11.1556C10.1264 34.9577 9.29522 34.1924 9.29522 33.249V10.0077H9.28862ZM11.1556 1.87356H46.3112C47.3403 1.87356 48.1715 2.63881 48.1715 3.58878V8.13414H9.28862V3.58878C9.28862 2.63881 10.1264 1.87356 11.1556 1.87356ZM4.65091 14.1308H7.25014V33.249C7.25014 35.2281 8.99835 36.8378 11.1556 36.8378H46.3112C48.4618 36.8378 50.2166 35.2281 50.2166 33.249V14.1308H52.8158C54.254 14.1308 55.4283 15.2062 55.4283 16.5322V42.5179H2.04508V16.5322C2.04508 15.2128 3.21275 14.1308 4.65091 14.1308ZM34.7598 58.133H22.7004L24.7587 52.8554H32.7147L34.7598 58.133ZM52.8092 50.9753H4.65091C3.21275 50.9753 2.03848 49.8999 2.03848 48.5739V44.398H55.4151V48.5739C55.4151 49.8999 54.2474 50.9753 52.8092 50.9753ZM13.6954 7.3227C15.0874 7.3227 16.2221 6.28037 16.2221 5.00055C16.2221 3.72073 15.0874 2.67839 13.6954 2.67839C12.3035 2.67839 11.1688 3.72073 11.1688 5.00055C11.1688 6.28697 12.3035 7.3227 13.6954 7.3227ZM13.6954 4.55855C13.9659 4.55855 14.1836 4.75646 14.1836 5.00715C14.1836 5.25124 13.9659 5.44915 13.6954 5.44915C13.4316 5.44915 13.2139 5.24464 13.2139 5.00715C13.2139 4.75646 13.425 4.55855 13.6954 4.55855ZM19.6526 7.3227C21.0445 7.3227 22.1792 6.28037 22.1792 5.00055C22.1792 3.72073 21.0445 2.67839 19.6526 2.67839C18.2606 2.67839 17.1259 3.72073 17.1259 5.00055C17.1259 6.28697 18.2606 7.3227 19.6526 7.3227ZM19.6526 4.55855C19.923 4.55855 20.1407 4.75646 20.1407 5.00715C20.1407 5.25124 19.923 5.44915 19.6526 5.44915C19.3887 5.44915 19.1644 5.24464 19.1644 5.00715C19.171 4.76306 19.3887 4.55855 19.6526 4.55855ZM25.6163 7.3227C27.0082 7.3227 28.1429 6.28037 28.1429 5.00055C28.1429 3.72073 27.0082 2.67839 25.6163 2.67839C24.2243 2.67839 23.0896 3.72073 23.0896 5.00055C23.0896 6.28697 24.2243 7.3227 25.6163 7.3227ZM25.6163 4.55855C25.8802 4.55855 26.0979 4.75646 26.0979 5.00715C26.0979 5.24464 25.8802 5.44915 25.6163 5.44915C25.3458 5.44915 25.1281 5.25124 25.1281 5.00715C25.1281 4.75646 25.3524 4.55855 25.6163 4.55855ZM29.1985 5.00715C29.1985 4.48598 29.6537 4.07037 30.221 4.07037H45.2754C45.8362 4.07037 46.298 4.49258 46.298 5.00715C46.298 5.52171 45.8428 5.94392 45.2754 5.94392H30.2144C29.6537 5.94392 29.1985 5.52171 29.1985 5.00715ZM26.2826 28.1034L29.1919 16.4464C29.3172 15.9384 29.8648 15.6284 30.4123 15.7405C30.9599 15.8593 31.3029 16.3606 31.1776 16.862L28.2683 28.5256C28.1627 28.961 27.7405 29.2512 27.2721 29.2512C27.1996 29.2512 27.1204 29.2446 27.0412 29.2248C26.5003 29.1127 26.1572 28.6113 26.2826 28.1034ZM16.3408 22.4893C16.3408 22.1462 16.5388 21.8362 16.862 21.6712L23.8285 18.0957C24.3233 17.845 24.9434 18.0033 25.2204 18.4585C25.4975 18.9137 25.3194 19.481 24.8246 19.7383L19.4546 22.4959L24.8246 25.2534C25.3194 25.5041 25.4909 26.0781 25.2204 26.5333C25.0357 26.8433 24.6861 27.0148 24.3299 27.0148C24.1583 27.0148 23.9934 26.9753 23.8351 26.8961L16.8686 23.3205C16.5454 23.1424 16.3408 22.8257 16.3408 22.4893ZM32.6289 25.2402L37.9989 22.4827L32.6289 19.7251C32.1341 19.4744 31.9626 18.9005 32.2331 18.4453C32.5102 17.9901 33.1303 17.8318 33.6251 18.0825L40.5915 21.6581C40.9148 21.823 41.1127 22.1396 41.1127 22.4761C41.1127 22.8191 40.9148 23.1292 40.5915 23.2941L33.6251 26.8697C33.4667 26.9489 33.2952 26.9885 33.1303 26.9885C32.774 26.9885 32.4244 26.8169 32.2397 26.5069C31.9626 26.0649 32.1407 25.4975 32.6289 25.2402Z" fill="#0CB4C4" stroke="white" stroke-width="0.8" mask="url(#path-1-inside-1_561_72)"></path></svg>