<svg width="59" height="61" viewBox="0 0 59 61" fill="none" xmlns="http://www.w3.org/2000/svg"><path d="M23.5159 4.88434C23.5159 4.67215 23.6007 4.46865 23.7517 4.31861C23.9027 4.16857 24.1076 4.08428 24.3211 4.08428H43.9157C44.1293 4.08428 44.3341 4.16857 44.4851 4.31861C44.6362 4.46865 44.721 4.67215 44.721 4.88434C44.721 5.09653 44.6362 5.30003 44.4851 5.45007C44.3341 5.60011 44.1293 5.6844 43.9157 5.6844H24.3198C24.1065 5.68405 23.902 5.5996 23.7513 5.4496C23.6005 5.2996 23.5159 5.0963 23.5159 4.88434ZM11.9779 5.6844H12.2013C12.4149 5.6844 12.6197 5.60011 12.7707 5.45007C12.9218 5.30003 13.0066 5.09653 13.0066 4.88434C13.0066 4.67215 12.9218 4.46865 12.7707 4.31861C12.6197 4.16857 12.4149 4.08428 12.2013 4.08428H11.9806C11.767 4.08428 11.5622 4.16857 11.4112 4.31861C11.2601 4.46865 11.1753 4.67215 11.1753 4.88434C11.1753 5.09653 11.2601 5.30003 11.4112 5.45007C11.5622 5.60011 11.767 5.6844 11.9806 5.6844H11.9779ZM15.7357 5.6844H15.9572C16.1708 5.6844 16.3756 5.60011 16.5266 5.45007C16.6776 5.30003 16.7625 5.09653 16.7625 4.88434C16.7625 4.67215 16.6776 4.46865 16.5266 4.31861C16.3756 4.16857 16.1708 4.08428 15.9572 4.08428H15.7357C15.5222 4.08428 15.3174 4.16857 15.1663 4.31861C15.0153 4.46865 14.9305 4.67215 14.9305 4.88434C14.9305 5.09653 15.0153 5.30003 15.1663 5.45007C15.3174 5.60011 15.5222 5.6844 15.7357 5.6844ZM19.4936 5.6844H19.7171C19.9306 5.6844 20.1355 5.60011 20.2865 5.45007C20.4375 5.30003 20.5223 5.09653 20.5223 4.88434C20.5223 4.67215 20.4375 4.46865 20.2865 4.31861C20.1355 4.16857 19.9306 4.08428 19.7171 4.08428H19.4956C19.2821 4.08428 19.0772 4.16857 18.9262 4.31861C18.7752 4.46865 18.6904 4.67215 18.6904 4.88434C18.6904 5.09653 18.7752 5.30003 18.9262 5.45007C19.0772 5.60011 19.2821 5.6844 19.4956 5.6844H19.4936ZM58.6379 24.2352V27.4821C58.6373 27.8309 58.4976 28.1653 58.2492 28.4119C58.0009 28.6585 57.6643 28.7972 57.3132 28.7975H56.2395C56.1559 29.0264 56.0622 29.2511 55.9584 29.4716L56.7193 30.2276C56.9672 30.4745 57.1065 30.809 57.1065 31.1577C57.1065 31.5064 56.9672 31.8409 56.7193 32.0878L55.2625 33.5352V46.1362C55.2618 46.6461 55.0576 47.135 54.6947 47.4955C54.3318 47.8561 53.8397 48.059 53.3265 48.0597H33.9258C34.3016 51.916 37.3717 54.9329 41.0906 54.9329C41.1679 54.9331 41.2447 54.9443 41.3188 54.9662C42.0141 55.0763 42.6423 55.4423 43.0783 55.9916C43.5143 56.5408 43.7263 57.2331 43.672 57.9305C43.6177 58.628 43.3011 59.2796 42.7853 59.7557C42.2694 60.2318 41.5921 60.4975 40.888 60.5H15.3009C14.5968 60.4975 13.9195 60.2318 13.4036 59.7557C12.8878 59.2796 12.5712 58.628 12.5169 57.9305C12.4626 57.2331 12.6745 56.5408 13.1106 55.9916C13.5466 55.4423 14.1748 55.0763 14.8701 54.9662C14.9441 54.9443 15.021 54.9331 15.0983 54.9329C18.8172 54.9329 21.8866 51.916 22.263 48.0597H2.86371C2.35111 48.0588 1.85971 47.8563 1.49693 47.4965C1.13415 47.1367 0.929507 46.6488 0.927734 46.1396V8.44462C0.928445 7.93458 1.13273 7.44564 1.49579 7.08505C1.85885 6.72446 2.35103 6.52166 2.86438 6.52114H7.3604V4.12895C7.36164 3.1671 7.74667 2.24498 8.43109 1.56473C9.11551 0.884474 10.0435 0.501588 11.0116 0.5H45.1766C46.1451 0.501059 47.0736 0.883712 47.7584 1.56402C48.4433 2.24433 48.8286 3.16676 48.8298 4.12895V6.52114H53.3258C53.8391 6.52166 54.3312 6.72449 54.6942 7.08509C55.0571 7.4457 55.2613 7.93464 55.2618 8.44462V18.1834L56.7187 19.6308C56.9664 19.8779 57.1056 20.2124 57.1056 20.5612C57.1056 20.91 56.9664 21.2446 56.7187 21.4916L55.9577 22.2477C56.061 22.4699 56.1548 22.6944 56.2389 22.9211H57.3125C57.6635 22.9213 58.0001 23.0597 58.2485 23.306C58.497 23.5523 58.637 23.8865 58.6379 24.2352ZM48.8298 8.11793V15.4285H49.7726C50.1237 15.4288 50.4602 15.5676 50.7084 15.8142C50.9567 16.0608 51.0963 16.3952 51.0966 16.7439V17.8107C51.3261 17.8942 51.5523 17.9874 51.7751 18.09L52.536 17.334C52.6591 17.2111 52.8055 17.1138 52.9668 17.0478C53.1281 16.9817 53.301 16.9483 53.4755 16.9493C53.5364 16.9499 53.5971 16.9546 53.6573 16.9633V8.44462C53.6556 8.35851 53.6204 8.2764 53.5591 8.2155C53.4978 8.1546 53.4152 8.11963 53.3285 8.11793H48.8298ZM47.2193 15.4285V9.20068H8.96689V35.008C8.96742 35.5467 9.18299 36.0632 9.56631 36.4442C9.94963 36.8251 10.4694 37.0395 11.0116 37.0402H11.8712V21.0216C11.8712 20.8094 11.956 20.6059 12.107 20.4559C12.2581 20.3058 12.4629 20.2215 12.6764 20.2215H18.8917V18.2881C18.8917 18.0759 18.9765 17.8724 19.1275 17.7223C19.2786 17.5723 19.4834 17.488 19.6969 17.488H20.7183V15.4865C20.7183 15.2743 20.8031 15.0708 20.9541 14.9208C21.1051 14.7707 21.31 14.6864 21.5235 14.6864H23.2421V13.7417C23.235 13.6325 23.2505 13.523 23.2877 13.42C23.3248 13.3171 23.3829 13.2227 23.4582 13.1429C23.5335 13.0631 23.6245 12.9995 23.7255 12.956C23.8266 12.9125 23.9355 12.89 24.0457 12.89C24.1558 12.89 24.2647 12.9125 24.3658 12.956C24.4668 12.9995 24.5578 13.0631 24.6332 13.1429C24.7085 13.2227 24.7665 13.3171 24.8037 13.42C24.8408 13.523 24.8564 13.6325 24.8493 13.7417V14.6878H26.5618C26.7753 14.6878 26.9802 14.7721 27.1312 14.9221C27.2822 15.0721 27.367 15.2756 27.367 15.4878V17.492H28.3884C28.6019 17.492 28.8067 17.5763 28.9578 17.7263C29.1088 17.8764 29.1936 18.0799 29.1936 18.2921V18.8861L34.3177 19.8335C34.5021 19.868 34.6685 19.9653 34.7883 20.1087C34.9081 20.2521 34.9738 20.4325 34.974 20.6189V37.0402H45.1766C45.4788 37.0378 45.7768 36.9694 46.0494 36.8399C46.322 36.7104 46.5627 36.5229 46.7543 36.2908H46.506C46.1549 36.2904 45.8184 36.1517 45.5702 35.9051C45.322 35.6585 45.1824 35.3241 45.182 34.9753V33.9086C44.9525 33.8253 44.7257 33.7319 44.5036 33.6286L43.7406 34.3826C43.4921 34.629 43.1555 34.7673 42.8045 34.7673C42.4535 34.7673 42.1168 34.629 41.8684 34.3826L39.5586 32.0878C39.3107 31.8409 39.1715 31.5064 39.1715 31.1577C39.1715 30.809 39.3107 30.4745 39.5586 30.2276L40.3196 29.4716C40.2163 29.2493 40.1225 29.0247 40.0384 28.7975H38.9647C38.6137 28.7972 38.277 28.6585 38.0287 28.4119C37.7804 28.1653 37.6406 27.8309 37.6401 27.4821V24.2352C37.6406 23.8864 37.7804 23.552 38.0287 23.3054C38.277 23.0588 38.6137 22.9201 38.9647 22.9197H40.0384C40.1225 22.6917 40.2163 22.4673 40.3196 22.2464L39.5586 21.4903C39.3107 21.2433 39.1714 20.9087 39.1714 20.5599C39.1714 20.2111 39.3107 19.8765 39.5586 19.6295L41.8684 17.3346C42.1168 17.0883 42.4535 16.95 42.8045 16.95C43.1555 16.95 43.4921 17.0883 43.7406 17.3346L44.5016 18.0907C44.7237 17.988 44.9505 17.8947 45.18 17.8113V16.7446C45.1803 16.3958 45.3199 16.0614 45.5682 15.8148C45.8164 15.5682 46.1529 15.4295 46.504 15.4292L47.2193 15.4285ZM33.3655 37.0402V21.2796L29.1923 20.5076V37.0422L33.3655 37.0402ZM27.5844 37.0402V19.5621V19.0881H20.4975V20.2215H20.8485C21.062 20.2215 21.2668 20.3058 21.4179 20.4559C21.5689 20.6059 21.6537 20.8094 21.6537 21.0216V37.0402H27.5844ZM20.0445 37.0402V21.8203H13.4763V37.0402H20.0445ZM22.3221 16.2852V17.4907H25.7599V16.2852H22.3221ZM8.96689 4.12895V7.60322H47.222V4.12895C47.2204 3.59078 47.0043 3.07516 46.621 2.69493C46.2376 2.3147 45.7183 2.10083 45.1766 2.10012H11.0116C10.47 2.10083 9.95072 2.31472 9.56749 2.69497C9.18427 3.07522 8.96831 3.59084 8.96689 4.12895ZM2.53825 8.44462V40.8471H53.654V34.754C53.5937 34.7625 53.533 34.7669 53.4721 34.7673C53.2977 34.7684 53.1248 34.7349 52.9635 34.6688C52.8022 34.6028 52.6557 34.5055 52.5327 34.3826L51.7717 33.6266C51.5496 33.7299 51.3228 33.8226 51.0933 33.9066V34.9734C51.0929 35.3221 50.9533 35.6565 50.7051 35.9031C50.4569 36.1497 50.1203 36.2884 49.7693 36.2888H48.5936C48.3324 36.9792 47.8652 37.5739 47.2546 37.9934C46.644 38.4129 45.919 38.6372 45.1766 38.6363H11.0116C10.0432 38.6351 9.11494 38.2523 8.43023 37.572C7.74552 36.8918 7.3603 35.9694 7.35906 35.0074V8.11793H2.86304C2.77707 8.12064 2.69544 8.15606 2.635 8.21685C2.57456 8.27765 2.53993 8.35918 2.53825 8.44462ZM42.0831 57.7205C42.0827 57.4057 41.9567 57.1039 41.7326 56.8814C41.5085 56.6589 41.2048 56.5339 40.888 56.5337H15.3009C15.1416 56.5299 14.9832 56.5579 14.8349 56.6158C14.6867 56.6738 14.5516 56.7607 14.4376 56.8713C14.3236 56.9819 14.233 57.114 14.1712 57.2599C14.1093 57.4058 14.0775 57.5625 14.0775 57.7208C14.0775 57.8791 14.1093 58.0358 14.1712 58.1817C14.233 58.3276 14.3236 58.4597 14.4376 58.5703C14.5516 58.6809 14.6867 58.7678 14.8349 58.8257C14.9832 58.8837 15.1416 58.9116 15.3009 58.9079H40.888C41.2048 58.9075 41.5086 58.7823 41.7327 58.5597C41.9567 58.3371 42.0827 58.0353 42.0831 57.7205ZM32.3113 48.063H23.8776C23.7756 49.4167 23.3792 50.7323 22.7157 51.9189C22.0522 53.1056 21.1374 54.135 20.0345 54.9362H36.1577C35.0542 54.1354 34.1388 53.106 33.4747 51.9194C32.8106 50.7327 32.4137 49.417 32.3113 48.063ZM53.6506 46.1396V42.4426H2.53825V46.1396C2.54014 46.2255 2.57541 46.3075 2.63668 46.3682C2.69796 46.429 2.78051 46.4639 2.86706 46.4656H53.3299C53.4156 46.4627 53.497 46.4273 53.5572 46.3667C53.6175 46.306 53.6521 46.2248 53.654 46.1396H53.6506ZM57.0273 24.5185H55.6517C55.4772 24.5182 55.3076 24.4616 55.1683 24.3573C55.029 24.2529 54.9276 24.1064 54.8793 23.9398C54.7328 23.4321 54.5284 22.9427 54.27 22.481C54.1854 22.3293 54.1527 22.1542 54.1769 21.9824C54.2011 21.8105 54.2809 21.6512 54.4042 21.5283L55.3779 20.5609L53.4708 18.6647L52.4984 19.6348C52.3748 19.7572 52.2145 19.8364 52.0417 19.8604C51.8689 19.8845 51.6929 19.8521 51.5402 19.7682C51.0755 19.5117 50.5829 19.3086 50.0719 19.1628C49.9043 19.1148 49.7568 19.0141 49.6518 18.8757C49.5467 18.7373 49.4898 18.5687 49.4895 18.3954V17.0286H46.7892V18.3954C46.7888 18.5687 46.7319 18.7373 46.6268 18.8757C46.5218 19.0141 46.3743 19.1148 46.2067 19.1628C45.6958 19.3086 45.2032 19.5117 44.7384 19.7682C44.5857 19.8521 44.4097 19.8845 44.2369 19.8604C44.0641 19.8364 43.9038 19.7572 43.7802 19.6348L42.8065 18.6681L40.8974 20.5642L41.8711 21.5316C41.9944 21.6545 42.0742 21.8139 42.0984 21.9857C42.1226 22.1576 42.0899 22.3326 42.0053 22.4844C41.7469 22.9458 41.5425 23.435 41.396 23.9425C41.3478 24.1092 41.2464 24.2558 41.1071 24.3603C40.9678 24.4648 40.7981 24.5215 40.6236 24.5219H39.2479V27.2041H40.6236C40.798 27.2044 40.9677 27.261 41.107 27.3654C41.2463 27.4697 41.3477 27.6162 41.396 27.7828C41.5425 28.2905 41.7469 28.78 42.0053 29.2416C42.0899 29.3934 42.1226 29.5684 42.0984 29.7402C42.0742 29.9121 41.9944 30.0714 41.8711 30.1943L40.8974 31.1611L42.8065 33.0579L43.7802 32.0911C43.9038 31.9687 44.0641 31.8896 44.2369 31.8655C44.4097 31.8415 44.5857 31.8738 44.7384 31.9578C45.2032 32.214 45.6958 32.4169 46.2067 32.5625C46.3745 32.6105 46.522 32.7113 46.627 32.8499C46.7321 32.9884 46.789 33.1571 46.7892 33.3306V34.6973H49.4895V33.3306C49.4896 33.1571 49.5465 32.9884 49.6516 32.8499C49.7566 32.7113 49.9042 32.6105 50.0719 32.5625C50.5829 32.4171 51.0755 32.2142 51.5402 31.9578C51.6929 31.8738 51.8689 31.8415 52.0417 31.8655C52.2145 31.8896 52.3748 31.9687 52.4984 32.0911L53.4721 33.0579L55.3813 31.1611L54.4103 30.191C54.2869 30.0681 54.2071 29.9087 54.1829 29.7369C54.1587 29.565 54.1914 29.39 54.276 29.2382C54.5345 28.7766 54.7389 28.2872 54.8854 27.7795C54.9336 27.6129 55.035 27.4664 55.1743 27.362C55.3136 27.2577 55.4833 27.2011 55.6577 27.2007H57.0334L57.0273 24.5185ZM52.4756 25.8593C52.4739 27.0015 52.0165 28.0965 51.2037 28.9043C50.3909 29.7121 49.289 30.1669 48.1393 30.169H48.0407H48.0259C48.0105 30.169 47.9957 30.169 47.9803 30.169C46.8568 30.1291 45.7928 29.6575 45.0124 28.8535C44.232 28.0495 43.7963 26.976 43.7969 25.8591C43.7975 24.7421 44.2344 23.669 45.0157 22.8659C45.7969 22.0628 46.8615 21.5923 47.985 21.5536C47.9984 21.5536 48.0118 21.5536 48.0259 21.5536H48.0393C48.0729 21.5536 48.1064 21.5536 48.1393 21.5536C49.2888 21.5549 50.391 22.0087 51.2044 22.8157C52.0178 23.6228 52.4761 24.7172 52.479 25.8593H52.4756ZM47.2186 28.4162V23.3018C46.6875 23.4897 46.2279 23.8364 45.9029 24.2942C45.5779 24.752 45.4034 25.2984 45.4034 25.8586C45.4034 26.4188 45.5779 26.9653 45.9029 27.4231C46.2279 27.8809 46.6875 28.2282 47.2186 28.4162ZM50.8685 25.8593C50.8674 25.2598 50.6669 24.6774 50.2982 24.2028C49.9295 23.7282 49.4133 23.388 48.8298 23.2351V28.4882C49.4146 28.3355 49.932 27.9948 50.3014 27.5192C50.6708 27.0437 50.8714 26.46 50.8718 25.8593H50.8685ZM15.8659 25.9533H17.7039V24.0385H15.8693L15.8659 25.9533ZM15.8659 29.0629H17.7039V27.1474H15.8693L15.8659 29.0629ZM15.8659 32.1725H17.7039V30.257H15.8693L15.8659 32.1725ZM15.8659 35.282H17.7039V33.3692H15.8693L15.8659 35.282ZM23.5514 25.9533H25.3888V24.0385H23.5514V25.9533ZM23.5514 29.0629H25.3888V27.1474H23.5514V29.0629ZM23.5514 32.1725H25.3888V30.257H23.5514V32.1725ZM23.5514 35.282H25.3888V33.3692H23.5514V35.282Z" fill="#0CB4C4"></path></svg>