<svg id="Layer_1" data-name="Layer 1" xmlns="http://www.w3.org/2000/svg" width="72.56" height="59.5" viewBox="0 0 72.56 59.5"><defs><style> .cls-1 { fill: #0cb4c4; } </style></defs><g id="sports-data-management"><path class="cls-1" d="M69.1,45.88l3.46-.67V39.52L69,38.85a16.85,16.85,0,0,0-1.56-3.68l2-3-4-4-2.9,2.12a5.66,5.66,0,0,1-.78-.44V18.42H0V33H41.75l1.57,2.24a10,10,0,0,0-.79,1.56H0V51.57H42.09l-.79,1,4,4,2.91-2A10.46,10.46,0,0,0,51.91,56l.67,3.46h5.69l.67-3.57a13.82,13.82,0,0,0,3.69-1.57l3,2,4-4-2-2.91a19.21,19.21,0,0,0,1.45-3.57ZM42.2,31.48H1.68V20.09H60.17v9.05c-.44-.12-.78-.23-1.22-.34l-.67-3.46h-5.7l-.67,3.57a17.63,17.63,0,0,0-3.68,1.57l-3-2ZM1.68,49.9V38.63H41.86c0,.11-.11.22-.11.44l-3.46.67v5.7l3.57.67a13.76,13.76,0,0,0,1.57,3.68l-.12.22H1.68Zm63.74,4.47-2.68-1.9-.45.33a12.13,12.13,0,0,1-4.13,1.79l-.55.11-.68,3.24H54l-.56-3.24-.55-.11a13.38,13.38,0,0,1-4.13-1.67l-.45-.34-2.68,1.9-2.12-2.12,1.9-2.68-.34-.45a11.11,11.11,0,0,1-1.67-4.13l-.11-.56L40.08,44v-2.9l3.24-.56.11-.55a14.28,14.28,0,0,1,1.67-4.13l.34-.45L43.32,32.6l2.12-2.12,2.68,1.89.44-.33a11.3,11.3,0,0,1,4.13-1.68l.56-.11L53.81,27h2.9l.56,3.23.56.11A13.6,13.6,0,0,1,62,32l.44.33,2.68-1.89,2.13,2.12-1.9,2.68.33.44a13.84,13.84,0,0,1,1.79,4.13l.11.56,3.24.56v2.9l-3.24.56-.11.56a13.35,13.35,0,0,1-1.68,4.13l-.33.45,1.9,2.67Z"></path><path class="cls-1" d="M55.37,35.39a6.84,6.84,0,0,0-4.91,2.12,6.94,6.94,0,0,0,5,11.83,7.05,7.05,0,0,0,6.93-7,7,7,0,0,0-7-6.92Zm3.8,10.83a5.35,5.35,0,0,1-3.8,1.56v0A5.34,5.34,0,0,1,50,42.53a5.36,5.36,0,0,1,5.36-5.36,5.3,5.3,0,0,1,3.8,9Z"></path><path class="cls-1" d="M61.74,0H0V14.62H61.74ZM60.06,13H1.68V1.67H60.17V13Z"></path><path class="cls-1" d="M24.45,9.38a2.88,2.88,0,0,0,2.9-2.9,3,3,0,0,0-2.9-2.91,2.88,2.88,0,0,0-2.9,2.91A3,3,0,0,0,24.45,9.38Zm0-4.24a1.34,1.34,0,1,1-1.34,1.34A1.43,1.43,0,0,1,24.45,5.14Z"></path><path class="cls-1" d="M15.63,9.38a2.88,2.88,0,0,0,2.9-2.9,3,3,0,0,0-2.9-3,2.88,2.88,0,0,0-2.9,2.9A3.06,3.06,0,0,0,15.63,9.38Zm0-4.24a1.34,1.34,0,1,1-1.34,1.34A1.43,1.43,0,0,1,15.63,5.14Z"></path><path class="cls-1" d="M6.92,9.38a2.88,2.88,0,0,0,2.9-2.9,3,3,0,0,0-2.9-3,3,3,0,0,0,0,5.92Zm0-4.24A1.34,1.34,0,1,1,5.58,6.48,1.29,1.29,0,0,1,6.92,5.14Z"></path><path class="cls-1" d="M24.45,21.88a2.9,2.9,0,1,0,2.9,2.9,2.82,2.82,0,0,0-2.9-2.9Zm0,4.24a1.34,1.34,0,1,1,1.34-1.34A1.36,1.36,0,0,1,24.45,26.12Z"></path><path class="cls-1" d="M15.63,21.88a2.9,2.9,0,1,0,2.9,2.9,2.81,2.81,0,0,0-2.9-2.9Zm0,4.24A1.34,1.34,0,1,1,17,24.78,1.29,1.29,0,0,1,15.63,26.12Z"></path><path class="cls-1" d="M6.92,21.88a2.9,2.9,0,0,0,0,5.8,2.9,2.9,0,1,0,0-5.8Zm0,4.24a1.34,1.34,0,1,1,1.34-1.34A1.44,1.44,0,0,1,6.92,26.12Z"></path><path class="cls-1" d="M24.45,40.41a2.91,2.91,0,1,0,2.9,2.9A2.82,2.82,0,0,0,24.45,40.41Zm0,4.24a1.34,1.34,0,1,1,1.34-1.34A1.35,1.35,0,0,1,24.45,44.65Z"></path><path class="cls-1" d="M15.63,40.41a2.91,2.91,0,1,0,2.9,2.9A2.81,2.81,0,0,0,15.63,40.41Zm0,4.24A1.34,1.34,0,1,1,17,43.31,1.29,1.29,0,0,1,15.63,44.65Z"></path><path class="cls-1" d="M6.92,40.41a2.91,2.91,0,0,0,0,5.81,2.91,2.91,0,0,0,0-5.81Zm0,4.24a1.34,1.34,0,1,1,1.34-1.34A1.43,1.43,0,0,1,6.92,44.65Z"></path></g></svg>