<svg id="Layer_1" data-name="Layer 1" xmlns="http://www.w3.org/2000/svg" width="60" height="60" viewBox="0 0 60 60"><defs><style> .cls-1 { fill: #0cb4c4; } </style></defs><g id="sports-training-app-development"><path class="cls-1" d="M47.66,5.85a6.52,6.52,0,0,1,6.5,6.5.93.93,0,0,0,1.86,0A8.36,8.36,0,0,0,47.66,4a.93.93,0,0,0,0,1.86Z"></path><path class="cls-1" d="M52.4,49.19a.94.94,0,0,0-1,.84l0,.43a3.7,3.7,0,0,1-3.71,3.71.93.93,0,1,0,0,1.86,5.57,5.57,0,0,0,5.57-5.57v-.09l0-.16a1,1,0,0,0-.22-.69,1,1,0,0,0-.63-.33Z"></path><path class="cls-1" d="M58.81,21.65h-.12a23.71,23.71,0,0,0-.46-3.47,12.08,12.08,0,1,0-21.14,0,23.73,23.73,0,0,0-.47,3.47H36.5a.93.93,0,0,0-.93.93v5.57a.91.91,0,0,0,.28.66.93.93,0,0,0,.65.27h.26c.12,1.63.26,3.31.36,4.56a31.82,31.82,0,0,0-9.77-3.54c-3.1-.72-6-1.4-8.51-3.32,0-.48,0-1.28,0-1.82v-.52a9.3,9.3,0,1,0-9.3,9.29h.56c3,2.89,27.51,26,37.55,26A9.29,9.29,0,0,0,57,50.54c0-.14,1.2-13.21,1.67-21.46h.19a.93.93,0,0,0,.65-.27.91.91,0,0,0,.28-.66V22.58a.91.91,0,0,0-.28-.66.93.93,0,0,0-.65-.27ZM37.43,27.22V23.51h3.72v.93h-.93a.93.93,0,1,0,0,1.85h.93v.93Zm5.58.93v-6.5H52.3V30H43Zm0-8.36a.93.93,0,0,1,.93-.93h7.43a.94.94,0,0,1,.66.27,1,1,0,0,1,.27.66ZM52.3,31.87a1,1,0,0,1-.27.66.94.94,0,0,1-.66.27H43.94a.93.93,0,0,1-.93-.93Zm1.86-5.58h.93a.93.93,0,1,0,0-1.85h-.93v-.93h3.72v3.71H54.16Zm-15.27-8.7a10.22,10.22,0,1,1,17.53,0,.94.94,0,0,0-.07.8,16.35,16.35,0,0,1,.48,3.25H54.16V19.79A2.78,2.78,0,0,0,51.37,17H43.94a2.8,2.8,0,0,0-2.79,2.79v1.86H38.48A16.34,16.34,0,0,1,39,18.39a.94.94,0,0,0-.07-.8Zm16.2,32.87a7.44,7.44,0,0,1-7.43,7.43c-9.74,0-36.26-25.5-36.53-25.76a.94.94,0,0,0-.65-.26H9.55A7.43,7.43,0,1,1,17,24.44V25c0,2.64,0,2.64.33,3,2.89,2.4,6.15,3.16,9.61,4s7.12,1.66,10.74,4.32h0l.09.05s0,0,0,0l.17.12c1.77,1.33,4.74,3.55,6,6.91h0a.94.94,0,0,0,1.2.53,1,1,0,0,0,.52-.49.92.92,0,0,0,0-.71c-1.48-3.84-4.81-6.35-6.62-7.71-.09-1-.31-3.48-.49-5.9h2.53v2.79a2.75,2.75,0,0,0,.82,2,2.79,2.79,0,0,0,2,.82h7.43a2.79,2.79,0,0,0,2-.82,2.75,2.75,0,0,0,.82-2V29.08h2.59c-.47,8.22-1.64,21.16-1.66,21.38Z"></path><path class="cls-1" d="M48.59,22.58a2.64,2.64,0,0,0-.93.16,2.72,2.72,0,0,0-.93-.16,2.78,2.78,0,0,0-2.79,2.78c0,2.46,3.07,3.56,3.42,3.67A.86.86,0,0,0,48,29c.35-.11,3.42-1.21,3.42-3.67a2.77,2.77,0,0,0-2.78-2.78Zm-.93,4.58c-.65-.28-1.86-1-1.86-1.8a.92.92,0,0,1,.93-.92.84.84,0,0,1,.46.13,1,1,0,0,0,.94,0,.89.89,0,0,1,.92,0,.92.92,0,0,1,.46.79c0,.83-1.17,1.5-1.85,1.8Z"></path><path class="cls-1" d="M53.5,14.48a.93.93,0,0,0,.66,1.59.93.93,0,0,0,.66-1.59,1,1,0,0,0-1.32,0Z"></path></g></svg>