<svg id="Layer_1" data-name="Layer 1" xmlns="http://www.w3.org/2000/svg" width="59.5" height="59.5" viewBox="0 0 59.5 59.5"><defs><style> .cls-1 { fill: #0cb4c4; } </style></defs><g id="golf"><path class="cls-1" d="M16.86,47.6h2v2h-2Z"></path><path class="cls-1" d="M12.89,47.6h2v2h-2Z"></path><path class="cls-1" d="M10.91,43.63h2v2h-2Z"></path><path class="cls-1" d="M20.82,47.6h2v2h-2Z"></path><path class="cls-1" d="M18.84,43.63h2v2h-2Z"></path><path class="cls-1" d="M22.81,43.63h2v2h-2Z"></path><path class="cls-1" d="M14.87,43.63h2v2h-2Z"></path><path class="cls-1" d="M8.92,39.67h2v2h-2Z"></path><path class="cls-1" d="M16.86,39.67h2v2h-2Z"></path><path class="cls-1" d="M24.79,39.67h2v2h-2Z"></path><path class="cls-1" d="M20.82,39.67h2v2h-2Z"></path><path class="cls-1" d="M12.89,39.67h2v2h-2Z"></path><path class="cls-1" d="M10.91,35.7h2v2h-2Z"></path><path class="cls-1" d="M18.84,35.7h2v2h-2Z"></path><path class="cls-1" d="M22.81,35.7h2v2h-2Z"></path><path class="cls-1" d="M14.87,35.7h2v2h-2Z"></path><path class="cls-1" d="M55.19,45.49,57.51,26.9v0a0,0,0,0,1,0,0l2-25.78a1,1,0,0,0-1-1.07h-5a1,1,0,0,0-1,.88l-2.87,24.9H17.4A5,5,0,0,0,12.46,31,12.34,12.34,0,0,0,8,49.58H0v2H9.82a12,12,0,0,0,1.75,1.24C7.39,53.17,3,54,3,56c0,3.22,11.39,3.47,14.88,3.47S32.72,59.25,32.72,56c0-2-4.41-2.86-8.58-3.22a12.49,12.49,0,0,0,1.74-1.24H59.5v-2H53.14a6.85,6.85,0,0,0,2-4.09ZM54.43,2h3l-1.83,23.8H51.69ZM30.4,56c-1.37.62-5.64,1.49-12.55,1.49S6.67,56.65,5.3,56c1.37-.62,5.64-1.49,12.55-1.49S29,55.41,30.4,56ZM17.85,52.56a10.41,10.41,0,1,1,7.36-3.05,10.42,10.42,0,0,1-7.36,3.05ZM30.22,41.65a13,13,0,0,0-.22-2H49.45l-.25,2Zm18.73,2-.24,2h-19a12.11,12.11,0,0,0,.41-2Zm-19.55-6a13,13,0,0,0-1-2H50l-.25,2Zm-2.49-4h0a12.15,12.15,0,0,0-2.36-2H50.44l-.25,2ZM48.29,49.58H27.74a11.84,11.84,0,0,0,1.22-2H49.58a1,1,0,0,0,1-.87l2-15.86a1,1,0,0,0-.24-.78,1,1,0,0,0-.74-.34H17.85a12,12,0,0,0-3.37.48,3,3,0,0,1,.73-1.5,2.91,2.91,0,0,1,2.19-1h38L53.22,45.24a5,5,0,0,1-4.93,4.34Z"></path></g></svg>