<svg id="Layer_1" data-name="Layer 1" xmlns="http://www.w3.org/2000/svg" width="60" height="60" viewBox="0 0 60 60"><defs><style> .cls-1 { fill: #0cb4c4; } </style></defs><path class="cls-1" d="M59.65,59.64H.35V27.3l30,31.46H59.65ZM1.2,58.76h28L1.2,29.43Z"></path><path class="cls-1" d="M60,60H0V26.41l30.54,32H60ZM.71,59.27H59.29v-.14h-29L.71,28.19Zm29.34-.14H.85V28.54ZM1.55,58.4H28.36L1.55,30.32Z"></path><path class="cls-1" d="M8.38,13.8a12,12,0,0,0,2.55,4.25,48.65,48.65,0,0,0,7.55,6.8c5.61,4.25,8,8.66,10.08,13s3.79,8.59,8,12c3.85,3.13,10,4.56,15.45,4.76a7.17,7.17,0,0,1-2,.77c-5.07.93-9.92-1-12-1.56-6.09-1.73-9-5.66-12.74-10.81S17.1,31.62,8.31,26c-3-1.93-4-4.66-3.71-7.12a6.37,6.37,0,0,1,3.78-5Zm34.27,1.55a9.84,9.84,0,0,1-.2,1.43,24.28,24.28,0,0,1-5.28-1.23c1.14-.68,1.92-1.86,3.09-2.44,1.48-.73,2.47.89,2.39,2.24ZM16.31,4.87a12.51,12.51,0,0,1,2.27,7.52c0,3-.95,6-2.71,7.76a35.45,35.45,0,0,1-3.42-3.39,8.57,8.57,0,0,1-2.27-4.21,14,14,0,0,1,4.11-6.09,19.06,19.06,0,0,1,2-1.59Zm7.06-2.42A1.38,1.38,0,0,1,24.55,4c-.32,3.48,1.56,7,4.79,9.72a23.74,23.74,0,0,0,12.83,5.08c-.14.74-.27,1.48-.38,2.23L38,20.05A1,1,0,0,0,37.49,22l4,1q-.14,1.11-.21,2.22l-3.21-.78c-1.28-.31-1.65,1.66-.37,2l3.42.82h.05c0,.82,0,1.63,0,2.43L38.67,29A1,1,0,1,0,38.21,31l3.24.78a22.91,22.91,0,0,0,1.78,6c2.16,4.32,5.51,5.76,8.08,7.61s3.37,4,3.11,5.89A4.19,4.19,0,0,1,54,52.63c-5.44.11-12.52-1.36-16.16-4.33-3.8-3.09-5.37-7-7.47-11.34s-4.75-9.22-10.67-13.7c-.82-.62-1.58-1.22-2.29-1.8,2.2-2.28,3.16-5.7,3.17-9.06A14.17,14.17,0,0,0,18,3.82,13.58,13.58,0,0,1,21.1,2.59a5.34,5.34,0,0,1,2.26-.14Zm.38-2a7.12,7.12,0,0,0-3.12.17A18.37,18.37,0,0,0,13,5a21.29,21.29,0,0,0-4.51,6.78,8.46,8.46,0,0,0-5.82,6.82,9.39,9.39,0,0,0,4.61,9.05C15.71,33.1,19.87,39,23.59,44.18S30.7,53.83,37.4,55.74c1.77.5,7.19,2.67,13,1.6h0c3.47-.77,5.63-3.1,6-5.82s-1-5.67-3.92-7.77-5.65-3.18-7.57-7.1C42.2,30.92,43.05,23,44.59,15.83a4.21,4.21,0,0,0-1.23-3.94,3.68,3.68,0,0,0-3.88-.61,8.6,8.6,0,0,0-2.55,2A6.56,6.56,0,0,1,35,14.73a19.26,19.26,0,0,1-4.39-2.59c-2.88-2.42-4.34-5.37-4.1-8A3.29,3.29,0,0,0,24.68.78a5,5,0,0,0-.93-.29Z"></path></svg>