<svg width="60" height="60" viewBox="0 0 60 60" fill="none" xmlns="http://www.w3.org/2000/svg"><path d="M55.5805 48.6279C54.8305 46.0873 52.468 44.3154 49.8336 44.3154C49.3555 44.3154 48.8868 44.3717 48.4461 44.4842C47.968 44.6061 47.668 45.0936 47.7899 45.5717C47.9118 46.0498 48.3993 46.3498 48.8774 46.2279C49.1774 46.1529 49.5055 46.1154 49.8336 46.1154C51.6805 46.1154 53.3399 47.3529 53.8555 49.1248C54.0243 49.7248 54.568 51.8061 54.568 53.5967C54.568 54.0936 54.9711 54.4967 55.468 54.4967C55.9649 54.4967 56.368 54.0936 56.368 53.5967C56.3586 51.5717 55.768 49.2936 55.5805 48.6279Z" fill="#0CB4C4"></path><path d="M46.1772 48.2718C46.4772 47.7187 46.8897 47.2593 47.3866 46.9031C47.7897 46.6125 47.8835 46.05 47.5929 45.6468C47.3022 45.2437 46.7397 45.15 46.3366 45.4406C45.6241 45.9562 45.0335 46.6125 44.6022 47.4C43.8335 48.7968 43.6554 50.4093 44.096 51.9375C44.2554 52.5 44.4241 53.3718 44.4241 53.5875C44.4241 54.0843 44.8272 54.4875 45.3241 54.4875C45.821 54.4875 46.2241 54.0843 46.2241 53.5875C46.2241 53.0531 45.9616 51.9093 45.8304 51.45C45.5116 50.3812 45.6429 49.2468 46.1772 48.2718Z" fill="#0CB4C4"></path><path d="M51.4841 47.2779C50.6779 46.8373 49.7498 46.7342 48.8685 46.9873C47.0591 47.5123 46.0091 49.4154 46.5248 51.2342C46.6748 51.7498 46.956 52.9686 46.956 53.5967C46.956 54.0936 47.3591 54.4967 47.856 54.4967C48.3529 54.4967 48.756 54.0936 48.756 53.5967C48.756 52.6592 48.3998 51.2248 48.2591 50.7467C48.006 49.8842 48.5123 48.9748 49.3654 48.7217C49.7873 48.5998 50.2279 48.6467 50.6216 48.8623C51.006 49.0686 51.2779 49.4154 51.4091 49.8467C51.5404 50.2779 52.0279 52.1623 52.0279 53.5873C52.0279 54.0842 52.431 54.4873 52.9279 54.4873C53.4248 54.4873 53.8279 54.0842 53.8279 53.5873C53.8279 51.6561 53.1341 49.3404 53.1341 49.3311C52.8716 48.4498 52.2904 47.7279 51.4841 47.2779Z" fill="#0CB4C4"></path><path d="M49.5712 49.425C49.0931 49.5656 48.8212 50.0625 48.9619 50.5406C48.9712 50.5594 49.4869 52.3687 49.4869 53.5875C49.4869 54.0844 49.89 54.4875 50.3869 54.4875C50.8837 54.4875 51.2869 54.0844 51.2869 53.5875C51.2869 52.1062 50.715 50.1187 50.6869 50.0344C50.5462 49.5656 50.0494 49.2844 49.5712 49.425Z" fill="#0CB4C4"></path><path d="M51.0053 40.3781V37.3219C51.0053 34.5844 48.774 32.3531 46.0365 32.3531H33.3334V26.0625H44.9584C47.9115 26.0625 50.3115 23.6625 50.3115 20.7094V19.1062C52.2428 18.9187 54.0896 18.1594 55.5803 16.8938C57.7459 15.075 58.9928 12.4031 58.9928 9.5625C58.9928 4.29375 54.6896 0 49.4115 0C44.1334 0 39.8396 4.29375 39.8396 9.57188C39.8396 12.4406 41.1053 15.1313 43.3178 16.9594C44.799 18.1875 46.6178 18.9281 48.5209 19.1062V20.7094C48.5209 22.6688 46.9271 24.2625 44.9678 24.2625H33.3428L33.3334 8.9625C33.3334 8.94375 33.3334 8.93438 33.3334 8.91563C33.174 5.63438 30.4646 3.06562 27.174 3.06562H26.7053C26.7053 3.06562 26.7053 3.06562 26.6959 3.06562H7.96465C7.96465 3.06562 7.96465 3.06562 7.95527 3.06562H6.66152C3.24902 3.06562 0.483398 5.84062 0.483398 9.24375V48C0.483398 48.8438 0.642774 49.6594 0.970899 50.4094C1.10215 50.7 1.26152 51.0094 1.47715 51.3375C1.4959 51.3656 1.51465 51.4031 1.5334 51.4313C1.85215 51.9188 2.26465 52.3687 2.72402 52.7437C3.05215 53.0156 3.38965 53.2406 3.68965 53.4C4.01777 53.5875 4.37402 53.7469 4.80527 53.8875C5.3959 54.0656 6.00527 54.1594 6.6334 54.1594H10.224L10.1959 57.3563C10.1959 58.8188 11.3865 60 12.8396 60H27.4084C28.8521 60 30.0428 58.8281 30.0521 57.375L30.0803 53.4094C30.4271 53.2219 30.7553 53.0156 31.0459 52.7719C31.224 52.6406 31.3928 52.4906 31.5146 52.35C32.6865 51.1875 33.324 49.65 33.324 48V46.3312L33.3146 34.1625H46.0178C47.7615 34.1625 49.1865 35.5875 49.1865 37.3312V40.3406C44.049 40.6594 39.9615 44.9344 39.9615 50.1562C39.9615 55.5844 44.3771 60 49.8053 60C55.2334 60 59.649 55.5844 59.649 50.1562C59.6771 45.1219 55.8803 40.9687 51.0053 40.3781ZM49.4115 1.8C53.6959 1.8 57.1928 5.2875 57.1928 9.58125C57.1928 11.0625 56.7709 12.4875 56.0021 13.7156C55.0928 12.4688 53.8646 11.5313 52.449 10.9781C53.274 10.1906 53.7896 9.08437 53.7896 7.84687C53.7896 5.45625 51.8396 3.50625 49.449 3.50625C47.0584 3.50625 45.1084 5.45625 45.1084 7.84687C45.1084 9.075 45.624 10.1812 46.449 10.9687C45.024 11.5406 43.7865 12.5062 42.8771 13.7812C42.0803 12.5437 41.6396 11.0906 41.6396 9.57188C41.6303 5.2875 45.1271 1.8 49.4115 1.8ZM49.449 10.3875C48.0428 10.3875 46.9084 9.24375 46.9084 7.84687C46.9084 6.44062 48.0521 5.30625 49.449 5.30625C50.8459 5.30625 51.9896 6.45 51.9896 7.84687C51.9896 9.24375 50.8553 10.3875 49.449 10.3875ZM44.0584 15.2156C45.2115 13.3406 47.2178 12.1875 49.4396 12.1875C51.6428 12.1875 53.6396 13.3219 54.8021 15.1688C54.6709 15.2906 54.549 15.4219 54.4084 15.5344C53.0115 16.7156 51.2396 17.3625 49.4021 17.3625C47.574 17.3625 45.8584 16.7438 44.4521 15.5813C44.3209 15.4594 44.1896 15.3375 44.0584 15.2156ZM25.0365 4.875L23.5834 7.13437C23.4334 7.35937 23.1334 7.5 22.8053 7.5H11.8553C11.5271 7.5 11.2271 7.35937 11.0865 7.13437L9.62402 4.875H25.0365ZM6.66152 4.875H7.47715L9.56777 8.10937C10.0459 8.84062 10.9178 9.3 11.8553 9.3H22.8146C23.7521 9.3 24.624 8.84062 25.1021 8.10937L27.1928 4.875C29.5084 4.88437 31.4209 6.68438 31.5428 8.99063L31.5615 45.4219H29.5084C30.3053 40.7156 29.9115 32.7188 29.8928 32.4188L29.9115 31.6406C29.9209 31.0125 29.7615 30.4031 29.4334 29.8969C28.8803 29.025 27.924 28.4813 26.8553 28.4625C26.3584 28.4625 25.8615 28.5656 25.4209 28.7625C25.3178 28.1438 25.0271 27.5625 24.5771 27.1031C24.0428 26.55 23.349 26.2313 22.5896 26.175C22.5146 26.1563 22.4303 26.1469 22.3553 26.1469C22.2803 26.1469 22.2053 26.1656 22.1303 26.175C23.3396 24.5344 24.0146 22.5375 24.0146 20.4562C24.0146 15.1406 19.6928 10.8187 14.3771 10.8187C9.06152 10.8187 4.73965 15.1406 4.73965 20.4469C4.73965 24.1687 6.84902 27.5062 10.1678 29.1094L10.0646 36.2156C10.0646 36.4875 9.91465 36.6469 9.83027 36.7219C9.68027 36.8531 9.47402 36.9094 9.28652 36.8813L7.66465 36.6188C7.6459 36.6188 7.54277 36.6 7.51465 36.6C7.40215 36.5906 7.28965 36.5813 7.1959 36.5813C5.49902 36.5813 4.05527 37.7437 3.77402 39.4031C3.60527 40.3312 3.83027 41.2688 4.39277 42.0281C4.9459 42.7875 5.79902 43.2844 6.72715 43.3969L10.5803 43.8656C10.7959 43.9031 11.2553 44.5125 11.6115 45.4125H2.2834V9.2625C2.2834 6.84375 4.24277 4.875 6.66152 4.875ZM20.7803 24.9375C20.7053 24.75 20.6303 24.5719 20.5178 24.4031C19.9553 23.5219 18.999 22.9781 17.9303 22.95C17.424 22.95 16.9553 23.0531 16.5334 23.25L16.5896 17.8781C16.599 17.2312 16.4303 16.6219 16.1021 16.1437C15.549 15.2531 14.5834 14.7094 13.524 14.7C12.4459 14.6625 11.4521 15.1969 10.8521 16.0969C10.6928 16.3313 10.5709 16.575 10.4771 16.8656C10.374 17.1937 10.3271 17.4844 10.3271 17.7469L10.1865 27.0563C7.93652 25.6406 6.53027 23.175 6.53027 20.4375C6.53027 16.1156 10.0459 12.6 14.3678 12.6C18.6896 12.6 22.2053 16.1156 22.2053 20.4375C22.2053 22.0687 21.699 23.6344 20.7803 24.9375ZM10.9834 38.1C11.5271 37.6312 11.8459 36.9562 11.8553 36.2437L11.9678 28.5281V28.5188L12.1271 17.7656C12.1271 17.6625 12.1459 17.5406 12.1928 17.4094C12.2303 17.2969 12.2865 17.1937 12.3521 17.0906C12.6053 16.7062 13.0553 16.4813 13.4959 16.4906C13.9459 16.5 14.349 16.7156 14.5928 17.1094C14.724 17.3062 14.799 17.5594 14.7896 17.8406L14.7053 26.0156V26.025L14.6021 32.3156C14.5928 32.8125 14.9865 33.225 15.4834 33.2344C15.4928 33.2344 15.4928 33.2344 15.5021 33.2344C15.9896 33.2344 16.3928 32.8406 16.4021 32.3531L16.5146 26.0438C16.5334 25.3219 17.1803 24.7594 17.9021 24.75C18.3521 24.7594 18.7646 24.9937 18.999 25.3687C19.1303 25.575 19.1959 25.8187 19.1959 26.0906L19.1865 26.9813C19.1865 26.9906 19.1865 27 19.1865 27.0094L19.1584 29.1844V29.1937C19.1584 29.2031 19.149 29.2125 19.149 29.2125L19.0834 33.3469C19.074 33.8437 19.4678 34.2562 19.9646 34.2656C19.974 34.2656 19.974 34.2656 19.9834 34.2656C20.4709 34.2656 20.874 33.8719 20.8834 33.3844L20.949 29.2594C20.949 29.25 20.9584 29.2406 20.9584 29.2313V29.2125C20.9678 28.8844 21.1084 28.575 21.3709 28.3312C21.6053 28.1156 21.9053 27.975 22.2146 27.9469C22.2615 27.9562 22.3084 27.9562 22.3553 27.9562C22.7021 27.9562 23.0303 28.0969 23.274 28.35C23.5178 28.6031 23.6584 28.9406 23.649 29.2781L23.5928 31.4719C23.5928 31.5 23.6021 31.5188 23.6021 31.5469L23.5459 34.9594C23.5365 35.4563 23.9303 35.8688 24.4271 35.8781C24.4365 35.8781 24.4365 35.8781 24.4459 35.8781C24.9334 35.8781 25.3365 35.4844 25.3459 34.9969L25.4021 31.5562C25.4021 31.5375 25.3928 31.5188 25.3928 31.5094C25.4396 30.8156 26.0396 30.2625 26.7896 30.2625C27.249 30.2719 27.6521 30.4969 27.8865 30.8625C28.0271 31.0781 28.0928 31.3406 28.0928 31.6125L28.074 32.4562C28.0834 32.55 28.5428 41.9531 27.5115 46.1156C27.3615 46.7156 27.2115 47.0719 27.099 47.2781L13.8334 47.0625L13.8053 46.7531C13.7865 46.575 13.749 46.3594 13.7021 46.1344C13.6646 45.9844 12.849 42.3469 10.7865 42.0938L6.9334 41.625C6.4834 41.5688 6.08965 41.3344 5.82715 40.9688C5.55527 40.6031 5.45215 40.1625 5.53652 39.7125C5.66777 38.9531 6.34277 38.3812 7.13965 38.3812C7.1959 38.3812 7.25215 38.3906 7.3084 38.3906L8.98652 38.6531C9.69902 38.775 10.4303 38.5687 10.9834 38.1ZM10.2521 50.9531L10.2428 52.3594H6.64277C6.19277 52.3594 5.76152 52.2938 5.3584 52.1719C5.0584 52.0781 4.81465 51.975 4.56152 51.825C4.33652 51.7125 4.10215 51.5531 3.86777 51.3562C3.56777 51.1125 3.2959 50.8219 3.08027 50.5125C3.0709 50.4938 3.05215 50.4656 3.04277 50.4469C2.86465 50.1656 2.72402 49.9219 2.63027 49.6969C2.40527 49.1719 2.29277 48.6 2.29277 48V47.2219H11.4615C10.7678 47.5406 10.2803 48.2344 10.2803 49.0312L10.2521 50.9531ZM28.2709 57.3656C28.2709 57.8344 27.8959 58.2 27.4271 58.2H12.849C12.3803 58.2 12.0053 57.825 12.0053 57.3563L12.0709 49.0406C12.0709 48.9094 12.1928 48.8344 12.2959 48.8344L27.324 49.0969H27.5303C27.5865 49.0969 27.6334 49.0875 27.6896 49.0781L28.0928 49.0875C28.1115 49.0875 28.1303 49.0969 28.1396 49.0969C28.2521 49.1062 28.3271 49.2 28.3271 49.3219L28.2709 57.3656ZM30.2396 51.1031C30.2021 51.1406 30.1646 51.1781 30.1178 51.2156C30.1178 51.225 30.1084 51.225 30.1084 51.2344L30.1178 49.3312C30.1178 49.3312 30.1178 49.3313 30.1178 49.3219C30.1178 48.5063 29.649 47.8125 28.9553 47.4844C28.9834 47.4 29.0115 47.3062 29.049 47.2219H31.5428V48C31.5428 49.1625 31.0928 50.25 30.2396 51.1031ZM49.8334 58.2C45.399 58.2 41.7803 54.5906 41.7803 50.1469C41.7803 45.7031 45.3896 42.0938 49.8334 42.0938C54.2771 42.0938 57.8865 45.7031 57.8865 50.1469C57.8865 54.5906 54.2678 58.2 49.8334 58.2Z" fill="#0CB4C4"></path></svg>