<svg width="63" height="60" viewBox="0 0 63 60" fill="none" xmlns="http://www.w3.org/2000/svg"><path d="M29.2244 40.8787H6.94543C4.56978 40.8787 2.63835 38.9472 2.63835 36.5716V6.17091C2.63835 3.7856 4.56978 1.85417 6.94543 1.85417H48.9829C51.3586 1.85417 53.29 3.79525 53.29 6.17091V20.8498C53.29 21.3616 53.7053 21.7768 54.2171 21.7768C54.7289 21.7768 55.1442 21.3616 55.1442 20.8498V6.17091C55.1442 2.7716 52.3822 0 48.9829 0H6.94543C3.54612 0 0.78418 2.7716 0.78418 6.17091V36.5619C0.78418 39.9612 3.54612 42.7232 6.94543 42.7232H29.2244C29.7363 42.7232 30.1515 42.3079 30.1515 41.7961C30.1515 41.2939 29.7363 40.8787 29.2244 40.8787Z" fill="#0CB4C4"></path><path d="M33.4353 6.85667C33.4353 5.33084 32.1992 4.09473 30.6733 4.09473H9.57249C8.04666 4.09473 6.81055 5.33084 6.81055 6.85667V18.6384C6.81055 20.1642 8.04666 21.4003 9.57249 21.4003H30.6733C32.1992 21.4003 33.4353 20.1642 33.4353 18.6384V6.85667ZM31.5811 18.6384C31.5811 19.1405 31.1755 19.5461 30.6733 19.5461H9.57249C9.07032 19.5461 8.66472 19.1405 8.66472 18.6384V6.85667C8.66472 6.3545 9.07032 5.9489 9.57249 5.9489H30.6733C31.1755 5.9489 31.5811 6.3545 31.5811 6.85667V18.6384Z" fill="#0CB4C4"></path><path d="M12.5562 24.2876H10.6731C9.05067 24.2876 7.7373 25.601 7.7373 27.2234C7.7373 28.8458 9.05067 30.1591 10.6731 30.1591H12.5562C14.1786 30.1591 15.492 28.8458 15.492 27.2234C15.492 25.6106 14.1786 24.2876 12.5562 24.2876ZM12.5562 28.305H10.6731C10.0743 28.305 9.59147 27.8221 9.59147 27.2234C9.59147 26.6246 10.0743 26.1418 10.6731 26.1418H12.5562C13.155 26.1418 13.6378 26.6246 13.6378 27.2234C13.6475 27.8221 13.155 28.305 12.5562 28.305Z" fill="#0CB4C4"></path><path d="M21.5279 24.2876H19.6448C18.0224 24.2876 16.709 25.601 16.709 27.2234C16.709 28.8458 18.0224 30.1591 19.6448 30.1591H21.5279C23.1503 30.1591 24.4637 28.8458 24.4637 27.2234C24.4637 25.6106 23.1503 24.2876 21.5279 24.2876ZM21.5279 28.305H19.6448C19.046 28.305 18.5632 27.8221 18.5632 27.2234C18.5632 26.6246 19.046 26.1418 19.6448 26.1418H21.5279C22.1266 26.1418 22.6095 26.6246 22.6095 27.2234C22.6095 27.8221 22.1266 28.305 21.5279 28.305Z" fill="#0CB4C4"></path><path d="M30.4996 24.2876H28.6164C26.994 24.2876 25.6807 25.601 25.6807 27.2234C25.6807 28.8458 26.994 30.1591 28.6164 30.1591H30.4996C32.122 30.1591 33.4353 28.8458 33.4353 27.2234C33.4353 25.6106 32.122 24.2876 30.4996 24.2876ZM30.4996 28.305H28.6164C28.0177 28.305 27.5348 27.8221 27.5348 27.2234C27.5348 26.6246 28.0177 26.1418 28.6164 26.1418H30.4996C31.0983 26.1418 31.5812 26.6246 31.5812 27.2234C31.5812 27.8221 31.0983 28.305 30.4996 28.305Z" fill="#0CB4C4"></path><path d="M12.5562 31.4629H10.6731C9.05067 31.4629 7.7373 32.7763 7.7373 34.3987C7.7373 36.0211 9.05067 37.3344 10.6731 37.3344H12.5562C14.1786 37.3344 15.492 36.0211 15.492 34.3987C15.492 32.7859 14.1786 31.4629 12.5562 31.4629ZM12.5562 35.4899H10.6731C10.0743 35.4899 9.59147 35.0071 9.59147 34.4083C9.59147 33.8096 10.0743 33.3267 10.6731 33.3267H12.5562C13.155 33.3267 13.6378 33.8096 13.6378 34.4083C13.6378 35.0071 13.155 35.4899 12.5562 35.4899Z" fill="#0CB4C4"></path><path d="M21.5279 31.4629H19.6448C18.0224 31.4629 16.709 32.7763 16.709 34.3987C16.709 36.0211 18.0224 37.3344 19.6448 37.3344H21.5279C23.1503 37.3344 24.4637 36.0211 24.4637 34.3987C24.4637 32.7859 23.1503 31.4629 21.5279 31.4629ZM21.5279 35.4899H19.6448C19.046 35.4899 18.5632 35.0071 18.5632 34.4083C18.5632 33.8096 19.046 33.3267 19.6448 33.3267H21.5279C22.1266 33.3267 22.6095 33.8096 22.6095 34.4083C22.6095 35.0071 22.1266 35.4899 21.5279 35.4899Z" fill="#0CB4C4"></path><path d="M33.4353 34.3987C33.4353 32.7763 32.122 31.4629 30.4996 31.4629H28.6164C26.994 31.4629 25.6807 32.7763 25.6807 34.3987C25.6807 36.0211 26.994 37.3344 28.6164 37.3344H30.4996C32.122 37.3441 33.4353 36.0211 33.4353 34.3987ZM30.4996 35.4899H28.6164C28.0177 35.4899 27.5348 35.0071 27.5348 34.4083C27.5348 33.8096 28.0177 33.3267 28.6164 33.3267H30.4996C31.0983 33.3267 31.5812 33.8096 31.5812 34.4083C31.5812 35.0071 31.0983 35.4899 30.4996 35.4899Z" fill="#0CB4C4"></path><path d="M60.5325 48.8073C62.4929 44.8768 62.0101 33.0661 61.8845 30.6036L61.9135 29.6958C61.9232 28.9908 61.7397 28.3148 61.363 27.7257C60.7257 26.731 59.6344 26.1323 58.4562 26.1033C57.8189 26.084 57.2105 26.2385 56.689 26.5186C56.5441 25.2825 55.7522 24.2009 54.5837 23.6987C54.2168 23.5442 53.8305 23.4476 53.4442 23.4283C53.3669 23.409 53.28 23.3993 53.2124 23.3993C52.6233 23.3993 52.0439 23.5442 51.5224 23.8146L51.5321 23.2255C51.5321 22.5302 51.3486 21.8639 50.9913 21.3037C50.4988 20.5312 49.7359 20 48.8667 19.7779C49.0309 19.4303 49.1275 19.044 49.1275 18.6287V6.85667C49.1275 5.33084 47.8913 4.09473 46.3655 4.09473H38.3887C36.8629 4.09473 35.6268 5.33084 35.6268 6.85667V18.648C35.6268 20.1739 36.8629 21.41 38.3887 21.41H39.2096L39.0068 35.0555C39.0068 35.3259 38.8909 35.5673 38.6881 35.7412C38.4853 35.915 38.2052 35.9922 37.9542 35.9536L35.9841 35.6349L35.8875 35.6253C35.7716 35.6156 35.6461 35.606 35.5302 35.606C35.5109 35.606 35.4916 35.606 35.4723 35.606C33.5795 35.606 31.9764 36.9386 31.648 38.8025C31.397 40.2221 31.9571 41.6513 33.0966 42.5398C33.6471 42.9647 34.3134 43.2351 34.9991 43.322L39.5089 43.8821C40.098 43.9497 41.1603 46.1226 41.3052 47.5615L41.3341 47.8319C40.1849 47.9188 39.2675 48.8555 39.2579 50.0144L39.1806 57.4504C39.171 58.0491 39.3931 58.6092 39.8083 59.0342C40.2236 59.4591 40.774 59.7005 41.3728 59.7102L58.7942 59.9999C58.8039 59.9999 58.8232 59.9999 58.8329 59.9999C59.4123 59.9999 59.9628 59.7778 60.378 59.3722C60.8029 58.9569 61.0444 58.4064 61.054 57.798L61.1313 50.3524C61.1313 49.7537 60.8995 49.2129 60.5325 48.8073ZM38.3791 19.5558C37.8769 19.5558 37.4713 19.1502 37.4713 18.648V6.85667C37.4713 6.3545 37.8769 5.9489 38.3791 5.9489H46.3559C46.858 5.9489 47.2636 6.3545 47.2636 6.85667V18.648C47.2636 19.1502 46.858 19.5558 46.3559 19.5558H46.3172L46.3752 13.636C46.3848 12.9117 46.1917 12.2357 45.8247 11.6852C45.197 10.6809 44.1057 10.0628 42.9179 10.0532C41.7494 10.0242 40.5712 10.6229 39.9242 11.608C39.7311 11.8687 39.5766 12.1777 39.4607 12.5254C39.3931 12.7861 39.3062 13.1241 39.3062 13.5008L39.2192 19.5558H38.3791ZM39.7214 42.0279L35.2115 41.4678C34.8542 41.4292 34.5162 41.2843 34.2265 41.0622C33.6278 40.5987 33.338 39.8454 33.4636 39.1115C33.6278 38.1458 34.4679 37.4505 35.4723 37.4505C35.5495 37.4505 35.6268 37.4601 35.704 37.4601L37.6548 37.7692C38.4467 37.885 39.2675 37.6629 39.8759 37.1318C40.4843 36.6103 40.8416 35.857 40.8513 35.0555L41.0637 20.4925C41.0637 20.4829 41.0637 20.4829 41.0637 20.4732V20.4636L41.17 13.5104C41.17 13.3463 41.2183 13.1628 41.2472 13.0565C41.2859 12.931 41.3535 12.8055 41.45 12.6606C41.7687 12.1777 42.3095 11.8784 42.8889 11.8977C43.4491 11.9073 43.9609 12.1874 44.2699 12.6799C44.4437 12.9407 44.5307 13.2497 44.521 13.607L44.4244 23.1483V23.1579L44.2989 30.507C44.2892 31.0188 44.6948 31.4437 45.2067 31.4534C45.2067 31.4534 45.2163 31.4534 45.226 31.4534C45.7281 31.4534 46.1434 31.0478 46.1531 30.5456L46.2786 23.1772C46.3076 22.2598 47.0995 21.5355 48.0265 21.5452C48.5963 21.5548 49.1081 21.8445 49.4172 22.3177C49.5813 22.5785 49.6683 22.8972 49.6683 23.2352L49.6103 26.818C49.6103 26.8276 49.6103 26.8373 49.6103 26.8373C49.6103 26.8469 49.6007 26.8566 49.6007 26.8662L49.5234 31.6948C49.5137 32.2066 49.9193 32.6316 50.4312 32.6412C50.4408 32.6412 50.4408 32.6412 50.4505 32.6412C50.9527 32.6412 51.3679 32.2356 51.3776 31.7334L51.4548 26.9242C51.4548 26.9145 51.4645 26.9049 51.4645 26.8856V26.8469C51.4838 26.0261 52.1984 25.3308 53.0676 25.2632C53.3283 25.3114 53.5891 25.3018 53.8401 25.408C54.4485 25.6688 54.8541 26.2868 54.8445 26.9435L54.7865 29.5123C54.7865 29.5316 54.7962 29.5509 54.7962 29.5799L54.7286 33.578C54.7189 34.0898 55.1245 34.5147 55.6364 34.5244C55.646 34.5244 55.646 34.5244 55.6557 34.5244C56.1578 34.5244 56.5731 34.1188 56.5828 33.6166L56.6504 29.5992C56.6504 29.5799 56.6407 29.5702 56.6407 29.5509C56.689 28.6625 57.4616 27.9285 58.3983 27.9672C58.9681 27.9768 59.4799 28.2665 59.7793 28.7301C59.9531 29.0101 60.04 29.3288 60.04 29.6572L60.011 30.6325C60.3201 36.8324 60.1462 45.997 58.8329 48.0926L57.4809 48.0733L43.1497 47.8319L43.1014 47.3683C43.0048 46.0839 41.9136 42.2983 39.7214 42.0279ZM59.1902 57.7691C59.1902 57.9719 59.026 58.1554 58.8039 58.136L41.3824 57.8463C41.17 57.8463 41.0058 57.6725 41.0058 57.4697L41.0831 50.0241C41.0831 49.8213 41.2569 49.6571 41.4693 49.6571L49.1468 49.7826C49.1564 49.7826 49.1564 49.7826 49.1661 49.7826L58.9294 49.9565C59.1226 49.9854 59.2578 50.1399 59.2578 50.3331L59.1902 57.7691Z" fill="#0CB4C4"></path><path d="M19.8368 7.30078C19.354 7.30078 18.8904 7.35872 18.4462 7.46495C17.9537 7.5905 17.6447 8.09267 17.7702 8.58518C17.8957 9.07769 18.3979 9.37706 18.8904 9.26118C19.1898 9.18392 19.5085 9.14529 19.8368 9.14529C21.6717 9.14529 23.3134 10.3717 23.8252 12.1293C23.9894 12.7281 24.5398 14.814 24.5398 16.5813C24.5398 17.0931 24.9551 17.5084 25.4669 17.5084C25.9788 17.5084 26.394 17.0931 26.394 16.5813C26.394 14.6305 25.8436 12.4673 25.6118 11.6175C24.8585 9.07769 22.4829 7.30078 19.8368 7.30078Z" fill="#0CB4C4"></path><path d="M16.2167 11.2889C16.516 10.7481 16.9216 10.2846 17.4141 9.92728C17.8294 9.62791 17.926 9.04849 17.6266 8.63323C17.3272 8.21797 16.7478 8.1214 16.3325 8.42077C15.6179 8.94226 15.0288 9.59894 14.5943 10.3908C13.8314 11.7911 13.6479 13.4039 14.0824 14.9393C14.2466 15.4995 14.4108 16.3686 14.4108 16.5714C14.4108 17.0832 14.826 17.4985 15.3379 17.4985C15.8497 17.4985 16.2649 17.0832 16.2649 16.5714C16.2649 16.0403 16.0042 14.8911 15.869 14.4275C15.56 13.3749 15.6855 12.2643 16.2167 11.2889Z" fill="#0CB4C4"></path><path d="M21.5085 10.2661C20.6974 9.82182 19.7703 9.72525 18.8722 9.97634C17.047 10.5075 15.9847 12.4196 16.5158 14.2544C16.6607 14.7663 16.9407 15.9734 16.9407 16.5915C16.9407 17.1033 17.356 17.5186 17.8678 17.5186C18.3796 17.5186 18.7949 17.1033 18.7949 16.5915C18.7949 15.6547 18.4376 14.2158 18.3024 13.7426C18.061 12.8928 18.5438 12.0043 19.3936 11.7532C19.8089 11.6374 20.2435 11.6856 20.6201 11.8884C20.9967 12.0912 21.2671 12.4292 21.3927 12.8638C21.4023 12.8831 22.0107 14.9691 22.0107 16.5915C22.0107 17.1033 22.426 17.5186 22.9378 17.5186C23.4496 17.5186 23.8649 17.1033 23.8649 16.5915C23.8649 14.6697 23.1696 12.3423 23.1696 12.3327C22.9088 11.4442 22.3197 10.7103 21.5085 10.2661Z" fill="#0CB4C4"></path><path d="M19.577 12.3999C19.0845 12.5448 18.8044 13.0566 18.9493 13.5491C18.959 13.5684 19.4708 15.3647 19.4708 16.5911C19.4708 17.103 19.886 17.5182 20.3979 17.5182C20.9097 17.5182 21.325 17.103 21.325 16.5911C21.325 15.1039 20.7455 13.1146 20.7262 13.0373C20.5814 12.5351 20.0695 12.2551 19.577 12.3999Z" fill="#0CB4C4"></path></svg>