<svg width="61" height="60" viewBox="0 0 61 60" fill="none" xmlns="http://www.w3.org/2000/svg"><path d="M35.4772 54.1934H25.7998C25.2656 54.1934 24.832 54.6259 24.832 55.1611C24.832 55.6963 25.2656 56.1288 25.7998 56.1288H35.4772C36.0114 56.1288 36.4449 55.6963 36.4449 55.1611C36.4449 54.6259 36.0114 54.1934 35.4772 54.1934Z" fill="#0CB4C4"></path><path d="M19.0254 13.5483C19.5598 13.5483 19.9931 13.115 19.9931 12.5805C19.9931 12.0461 19.5598 11.6128 19.0254 11.6128C18.4909 11.6128 18.0576 12.0461 18.0576 12.5805C18.0576 13.115 18.4909 13.5483 19.0254 13.5483Z" fill="#0CB4C4"></path><path d="M22.8965 13.5483C23.4309 13.5483 23.8642 13.115 23.8642 12.5805C23.8642 12.0461 23.4309 11.6128 22.8965 11.6128C22.362 11.6128 21.9287 12.0461 21.9287 12.5805C21.9287 13.115 22.362 13.5483 22.8965 13.5483Z" fill="#0CB4C4"></path><path d="M26.7675 13.5483C27.302 13.5483 27.7353 13.115 27.7353 12.5805C27.7353 12.0461 27.302 11.6128 26.7675 11.6128C26.2331 11.6128 25.7998 12.0461 25.7998 12.5805C25.7998 13.115 26.2331 13.5483 26.7675 13.5483Z" fill="#0CB4C4"></path><path d="M30.6386 13.5483C31.1731 13.5483 31.6064 13.115 31.6064 12.5805C31.6064 12.0461 31.1731 11.6128 30.6386 11.6128C30.1042 11.6128 29.6709 12.0461 29.6709 12.5805C29.6709 13.115 30.1042 13.5483 30.6386 13.5483Z" fill="#0CB4C4"></path><path d="M24.832 46.4516C25.3665 46.4516 25.7997 46.0183 25.7997 45.4839C25.7997 44.9494 25.3665 44.5161 24.832 44.5161C24.2975 44.5161 23.8643 44.9494 23.8643 45.4839C23.8643 46.0183 24.2975 46.4516 24.832 46.4516Z" fill="#0CB4C4"></path><path d="M28.7031 46.4516C29.2376 46.4516 29.6708 46.0183 29.6708 45.4839C29.6708 44.9494 29.2376 44.5161 28.7031 44.5161C28.1686 44.5161 27.7354 44.9494 27.7354 45.4839C27.7354 46.0183 28.1686 46.4516 28.7031 46.4516Z" fill="#0CB4C4"></path><path d="M32.5742 46.4516C33.1087 46.4516 33.5419 46.0183 33.5419 45.4839C33.5419 44.9494 33.1087 44.5161 32.5742 44.5161C32.0397 44.5161 31.6064 44.9494 31.6064 45.4839C31.6064 46.0183 32.0397 46.4516 32.5742 46.4516Z" fill="#0CB4C4"></path><path d="M36.4453 46.4516C36.9798 46.4516 37.413 46.0183 37.413 45.4839C37.413 44.9494 36.9798 44.5161 36.4453 44.5161C35.9108 44.5161 35.4775 44.9494 35.4775 45.4839C35.4775 46.0183 35.9108 46.4516 36.4453 46.4516Z" fill="#0CB4C4"></path><path d="M32.5737 16.4516C32.5737 15.9165 32.1402 15.4839 31.606 15.4839H18.0576C17.5234 15.4839 17.0898 15.9165 17.0898 16.4516C17.0898 16.9868 17.5234 17.4194 18.0576 17.4194H31.606C32.1402 17.4194 32.5737 16.9868 32.5737 16.4516Z" fill="#0CB4C4"></path><path d="M28.703 40.645H24.832C24.2978 40.645 23.8643 41.0776 23.8643 41.6128C23.8643 42.1479 24.2978 42.5805 24.832 42.5805H28.703C29.2372 42.5805 29.6707 42.1479 29.6707 41.6128C29.6707 41.0776 29.2372 40.645 28.703 40.645Z" fill="#0CB4C4"></path><path d="M36.4452 40.645H32.5742C32.04 40.645 31.6064 41.0776 31.6064 41.6128C31.6064 42.1479 32.04 42.5805 32.5742 42.5805H36.4452C36.9793 42.5805 37.4129 42.1479 37.4129 41.6128C37.4129 41.0776 36.9793 40.645 36.4452 40.645Z" fill="#0CB4C4"></path><path d="M54.832 30.9677C55.3665 30.9677 55.7997 30.5344 55.7997 30C55.7997 29.4655 55.3665 29.0322 54.832 29.0322C54.2975 29.0322 53.8643 29.4655 53.8643 30C53.8643 30.5344 54.2975 30.9677 54.832 30.9677Z" fill="#0CB4C4"></path><path d="M39.3486 30.9677C39.8831 30.9677 40.3163 30.5344 40.3163 30C40.3163 29.4655 39.8831 29.0322 39.3486 29.0322C38.8141 29.0322 38.3809 29.4655 38.3809 30C38.3809 30.5344 38.8141 30.9677 39.3486 30.9677Z" fill="#0CB4C4"></path><path d="M47.0907 25.1615C48.1581 25.1615 49.0262 26.0296 49.0262 27.097C49.0262 27.6321 49.4597 28.0647 49.9939 28.0647C50.5281 28.0647 50.9617 27.6321 50.9617 27.097C50.9617 25.2979 49.723 23.796 48.0584 23.3634V22.2583C48.0584 21.7231 47.6249 21.2905 47.0907 21.2905C46.5565 21.2905 46.123 21.7231 46.123 22.2583V23.3634C44.4584 23.796 43.2197 25.2979 43.2197 27.097C43.2197 29.2318 44.9559 30.9679 47.0907 30.9679C48.1581 30.9679 49.0262 31.836 49.0262 32.9034C49.0262 33.9709 48.1581 34.8389 47.0907 34.8389C46.0233 34.8389 45.1552 33.9709 45.1552 32.9034C45.1552 32.3683 44.7217 31.9357 44.1875 31.9357C43.6533 31.9357 43.2197 32.3683 43.2197 32.9034C43.2197 34.7025 44.4584 36.2044 46.123 36.637V37.7421C46.123 38.2773 46.5565 38.7099 47.0907 38.7099C47.6249 38.7099 48.0584 38.2773 48.0584 37.7421V36.637C49.723 36.2044 50.9617 34.7025 50.9617 32.9034C50.9617 30.7686 49.2255 29.0325 47.0907 29.0325C46.0233 29.0325 45.1552 28.1644 45.1552 27.097C45.1552 26.0296 46.0233 25.1615 47.0907 25.1615Z" fill="#0CB4C4"></path><path d="M59.8296 27.1103L58.2628 26.849C58.016 25.9732 57.6657 25.1303 57.2157 24.33L58.1418 23.0342C58.4167 22.65 58.3731 22.1226 58.0383 21.7877L55.3015 19.051C54.9676 18.7171 54.4402 18.6716 54.055 18.9484L52.7592 19.8735C51.9599 19.4245 51.117 19.0742 50.2412 18.8274L49.9799 17.2606C49.9025 16.7942 49.4989 16.4516 49.0257 16.4516H48.0579V4.83871C48.0579 2.17065 45.8873 0 43.2192 0H18.0579C15.3899 0 13.2192 2.17065 13.2192 4.83871V26.129H1.60633C1.30826 26.129 1.02665 26.2665 0.843747 26.5016C0.660844 26.7358 0.595037 27.0426 0.667618 27.331L2.90794 36.2913C2.12504 36.8119 1.60633 37.7013 1.60633 38.7097C1.60633 40.3103 2.90891 41.6129 4.50955 41.6129C5.76955 41.6129 6.83407 40.801 7.23471 39.6774H13.2192V55.1613C13.2192 57.8294 15.3899 60 18.0579 60H43.2192C45.8873 60 48.0579 57.8294 48.0579 55.1613V43.5484H49.0257C49.4989 43.5484 49.9025 43.2058 49.9799 42.7394L50.2412 41.1726C51.117 40.9258 51.9599 40.5755 52.7592 40.1265L54.055 41.0516C54.4402 41.3264 54.9676 41.2819 55.3015 40.949L58.0383 38.2123C58.3731 37.8774 58.4167 37.35 58.1418 36.9658L57.2157 35.67C57.6647 34.8706 58.015 34.0277 58.2628 33.151L59.8296 32.8897C60.296 32.8123 60.6386 32.4087 60.6386 31.9355V28.0645C60.6386 27.5913 60.296 27.1877 59.8296 27.1103ZM18.0579 1.93548H43.2192C44.8199 1.93548 46.1225 3.23806 46.1225 4.83871V7.74194H15.1547V4.83871C15.1547 3.23806 16.4573 1.93548 18.0579 1.93548ZM15.3667 28.0645L17.4241 36.2923C16.9054 36.6368 16.5134 37.1468 16.3005 37.7419H14.9418L12.5225 28.0645H15.3667ZM19.0257 37.7419C19.5589 37.7419 19.9934 38.1755 19.9934 38.7097C19.9934 39.2439 19.5589 39.6774 19.0257 39.6774C18.4925 39.6774 18.0579 39.2439 18.0579 38.7097C18.0579 38.1755 18.4925 37.7419 19.0257 37.7419ZM17.3621 28.0645H21.596L19.287 35.7619L17.3621 28.0645ZM10.1041 37.7419L7.68471 28.0645H10.5279L12.9473 37.7419H10.1041ZM5.68923 28.0645L8.10859 37.7419H7.23471C6.86407 36.7035 5.92439 35.9448 4.78923 35.8345L2.84601 28.0645H5.68923ZM4.50955 39.6774C3.97633 39.6774 3.54181 39.2439 3.54181 38.7097C3.54181 38.1755 3.97633 37.7419 4.50955 37.7419C5.04278 37.7419 5.4773 38.1755 5.4773 38.7097C5.4773 39.2439 5.04278 39.6774 4.50955 39.6774ZM43.2192 58.0645H18.0579C16.4573 58.0645 15.1547 56.7619 15.1547 55.1613V52.2581H46.1225V55.1613C46.1225 56.7619 44.8199 58.0645 43.2192 58.0645ZM46.1225 50.3226H15.1547V39.6774H16.3005C16.7012 40.801 17.7657 41.6129 19.0257 41.6129C20.6263 41.6129 21.9289 40.3103 21.9289 38.7097C21.9289 37.8948 21.5892 37.1594 21.0463 36.6319L25.6489 21.2903H29.6708C30.205 21.2903 30.6386 20.8577 30.6386 20.3226C30.6386 19.7874 30.205 19.3548 29.6708 19.3548H24.9289C24.5021 19.3548 24.1247 19.6355 24.0018 20.0448L22.1767 26.129H15.1547V9.67742H46.1225V16.4516H45.1547C44.6815 16.4516 44.2779 16.7942 44.2005 17.2606L43.9392 18.8274C43.0634 19.0742 42.2205 19.4245 41.4212 19.8735L40.1254 18.9484C39.7412 18.6726 39.2118 18.7181 38.8789 19.051L36.1421 21.7877C35.8073 22.1226 35.7638 22.65 36.0386 23.0342L36.9647 24.33C36.5157 25.1294 36.1654 25.9723 35.9176 26.849L34.3508 27.1103C33.8844 27.1877 33.5418 27.5913 33.5418 28.0645V31.9355C33.5418 32.4087 33.8844 32.8123 34.3508 32.8897L35.9176 33.151C36.1644 34.0268 36.5147 34.8697 36.9647 35.67L36.0386 36.9658C35.7638 37.35 35.8073 37.8774 36.1421 38.2123L38.8789 40.949C39.2118 41.2829 39.7412 41.3274 40.1254 41.0516L41.4212 40.1265C42.2205 40.5755 43.0634 40.9258 43.9392 41.1726L44.2005 42.7394C44.2779 43.2058 44.6815 43.5484 45.1547 43.5484H46.1225V50.3226ZM58.7031 31.1148L57.3202 31.3452C56.9302 31.41 56.6186 31.7052 56.5344 32.0913C56.2925 33.1906 55.8579 34.2348 55.2454 35.1948C55.0325 35.5277 55.0441 35.9565 55.2734 36.2777L56.0902 37.4226L54.5128 39.001L53.3679 38.1832C53.0467 37.9548 52.6189 37.9413 52.285 38.1552C51.325 38.7677 50.2808 39.2013 49.1825 39.4442C48.7963 39.5294 48.5012 39.84 48.4363 40.23L48.206 41.6129H45.9744L45.7441 40.23C45.6792 39.84 45.3841 39.5284 44.9979 39.4442C43.8996 39.2013 42.8554 38.7677 41.8954 38.1552C41.5644 37.9413 41.1338 37.9548 40.8125 38.1832L39.6676 39.001L38.0902 37.4226L38.9079 36.2777C39.1373 35.9565 39.1489 35.5277 38.936 35.1948C38.3234 34.2348 37.8889 33.1906 37.647 32.0913C37.5618 31.7061 37.2502 31.411 36.8612 31.3452L35.4773 31.1148V28.8842L36.8602 28.6539C37.2502 28.589 37.5618 28.2939 37.646 27.9077C37.8879 26.8084 38.3225 25.7642 38.935 24.8042C39.1479 24.4713 39.1363 24.0426 38.907 23.7213L38.0902 22.5774L39.6676 20.999L40.8125 21.8168C41.1338 22.0461 41.5634 22.0597 41.8954 21.8448C42.8554 21.2323 43.8996 20.7987 44.9979 20.5558C45.3841 20.4706 45.6792 20.16 45.7441 19.77L45.9744 18.3871H48.206L48.4363 19.77C48.5012 20.16 48.7963 20.4716 49.1825 20.5558C50.2808 20.7987 51.325 21.2323 52.285 21.8448C52.617 22.0587 53.0467 22.0471 53.3679 21.8168L54.5128 20.999L56.0902 22.5774L55.2725 23.7223C55.0431 24.0435 55.0315 24.4723 55.2444 24.8052C55.857 25.7652 56.2915 26.8094 56.5334 27.9087C56.6186 28.2939 56.9302 28.589 57.3192 28.6548L58.7031 28.8852V31.1148Z" fill="#0CB4C4"></path></svg>