<svg width="70" height="60" viewBox="0 0 70 60" fill="none" xmlns="http://www.w3.org/2000/svg"><path d="M7.33015 53.0771H5.02246V55.3848H7.33015V53.0771Z" fill="#0CB4C4"></path><path d="M11.9454 53.0771H9.6377V55.3848H11.9454V53.0771Z" fill="#0CB4C4"></path><path d="M62.7149 53.0771H60.4072V55.3848H62.7149V53.0771Z" fill="#0CB4C4"></path><path d="M67.3303 8.07692C67.3303 7.15887 66.9656 6.27841 66.3164 5.62925C65.6673 4.98008 64.7868 4.61538 63.8688 4.61538H61.5611V1.15385C61.5611 0.847827 61.4395 0.554342 61.2231 0.337954C61.0067 0.121566 60.7132 0 60.4072 0H39.638C38.739 0.00252269 37.8532 0.21585 37.0516 0.622846C36.25 1.02984 35.5551 1.61916 35.0226 2.34346C34.4901 1.61916 33.7952 1.02984 32.9936 0.622846C32.192 0.21585 31.3062 0.00252269 30.4072 0H9.638C9.33198 0 9.03849 0.121566 8.8221 0.337954C8.60572 0.554342 8.48415 0.847827 8.48415 1.15385V4.61538H6.17646C5.2584 4.61538 4.37794 4.98008 3.72878 5.62925C3.07962 6.27841 2.71492 7.15887 2.71492 8.07692V48.4615H0.407227V54.2308C0.409059 55.7603 1.01747 57.2267 2.09902 58.3082C3.18056 59.3898 4.64692 59.9982 6.17646 60H63.8688C65.3983 59.9982 66.8647 59.3898 67.9462 58.3082C69.0277 57.2267 69.6362 55.7603 69.638 54.2308V48.4615H67.3303V8.07692ZM61.5611 6.92308H63.8688C64.1748 6.92308 64.4683 7.04464 64.6847 7.26103C64.901 7.47742 65.0226 7.7709 65.0226 8.07692V9.23077H61.5611V6.92308ZM36.1765 5.76923C36.1765 4.85117 36.5412 3.97072 37.1903 3.32155C37.8395 2.67239 38.7199 2.30769 39.638 2.30769H59.2534V43.8462H36.1765V31.6315L56.6076 11.2004C56.8239 10.984 56.9454 10.6906 56.9454 10.3846C56.9454 10.0787 56.8239 9.78522 56.6076 9.56885L53.1461 6.10731C52.9297 5.891 52.6363 5.76948 52.3303 5.76948C52.0243 5.76948 51.7309 5.891 51.5145 6.10731L36.1765 21.4454V5.76923ZM52.3303 8.55461L54.1603 10.3846L30.4072 34.1377L28.5772 32.3077L52.3303 8.55461ZM10.7918 2.30769H30.4072C31.3253 2.30769 32.2057 2.67239 32.8549 3.32155C33.5041 3.97072 33.8688 4.85117 33.8688 5.76923V23.7531L26.1299 31.4919C26.1184 31.5035 25.8772 31.8727 25.8761 31.875L23.5684 37.6442C23.4844 37.8539 23.4639 38.0836 23.5093 38.3049C23.5547 38.5261 23.664 38.7292 23.8237 38.8889C23.9834 39.0486 24.1865 39.1579 24.4077 39.2033C24.629 39.2487 24.8587 39.2282 25.0684 39.1442L30.8376 36.8365C30.8376 36.8365 31.2138 36.5919 31.2253 36.5804L33.8688 33.9392V43.8462H10.7918V2.30769ZM28.3545 35.3481L26.7091 36.0058L27.3668 34.3604L28.3545 35.3481ZM5.02261 8.07692C5.02261 7.7709 5.14418 7.47742 5.36057 7.26103C5.57695 7.04464 5.87044 6.92308 6.17646 6.92308H8.48415V9.23077H5.02261V8.07692ZM5.02261 11.5385H8.48415V45C8.48415 45.306 8.60572 45.5995 8.8221 45.8159C9.03849 46.0323 9.33198 46.1538 9.638 46.1538H60.4072C60.7132 46.1538 61.0067 46.0323 61.2231 45.8159C61.4395 45.5995 61.5611 45.306 61.5611 45V11.5385H65.0226V48.4615H5.02261V11.5385ZM40.7918 50.7692V53.0769H29.2534V50.7692H40.7918ZM67.3303 54.2308C67.3303 55.1488 66.9656 56.0293 66.3164 56.6784C65.6673 57.3276 64.7868 57.6923 63.8688 57.6923H6.17646C5.2584 57.6923 4.37794 57.3276 3.72878 56.6784C3.07962 56.0293 2.71492 55.1488 2.71492 54.2308V50.7692H26.9457V55.3846H43.0995V50.7692H67.3303V54.2308Z" fill="#0CB4C4"></path><path d="M31.5611 4.61523H13.0996V18.4614H31.5611V4.61523ZM29.2535 16.1537H15.4073V6.92293H29.2535V16.1537Z" fill="#0CB4C4"></path><path d="M38.4844 41.5383H56.9459V34.6152H38.4844V41.5383ZM40.7921 36.9229H54.6382V39.2306H40.7921V36.9229Z" fill="#0CB4C4"></path><path d="M22.3304 20.769H13.0996V23.0767H22.3304V20.769Z" fill="#0CB4C4"></path><path d="M31.5608 20.769H24.6377V23.0767H31.5608V20.769Z" fill="#0CB4C4"></path><path d="M17.715 25.3848H13.0996V27.6925H17.715V25.3848Z" fill="#0CB4C4"></path><path d="M26.9455 25.3848H20.0225V27.6925H26.9455V25.3848Z" fill="#0CB4C4"></path><path d="M23.4842 30H13.0996V32.3077H23.4842V30Z" fill="#0CB4C4"></path><path d="M21.1765 34.6152H13.0996V36.9229H21.1765V34.6152Z" fill="#0CB4C4"></path><path d="M22.3304 39.231H13.0996V41.5386H22.3304V39.231Z" fill="#0CB4C4"></path><path d="M56.9455 30H50.0225V32.3077H56.9455V30Z" fill="#0CB4C4"></path><path d="M47.7151 30H40.792V32.3077H47.7151V30Z" fill="#0CB4C4"></path><path d="M56.9457 25.3848H45.4072V27.6925H56.9457V25.3848Z" fill="#0CB4C4"></path><path d="M56.9455 20.769H50.0225V23.0767H56.9455V20.769Z" fill="#0CB4C4"></path><path d="M56.9459 16.1538H53.4844V18.4615H56.9459V16.1538Z" fill="#0CB4C4"></path><path d="M47.7151 4.61523H38.4844V6.92293H47.7151V4.61523Z" fill="#0CB4C4"></path><path d="M44.2536 9.23096H38.4844V11.5386H44.2536V9.23096Z" fill="#0CB4C4"></path></svg>