<svg width="69" height="60" viewBox="0 0 69 60" fill="none" xmlns="http://www.w3.org/2000/svg"><path d="M58.1429 1.26219e-05C55.6387 0.00340685 53.2234 0.928106 51.3573 2.59786C49.4911 4.26762 48.3046 6.56567 48.0239 9.05401H44.4951C44.2093 6.5706 43.0203 4.27898 41.1544 2.61545C39.2884 0.951927 36.8759 0.0326561 34.3761 0.0326561C31.8763 0.0326561 29.4638 0.951927 27.5979 2.61545C25.7319 4.27898 24.5429 6.5706 24.2571 9.05401H20.7283C20.4391 6.46682 19.1702 4.08857 17.1822 2.4077C15.1943 0.726836 12.6382 -0.129061 10.0389 0.0157923C7.43963 0.160645 4.99447 1.29525 3.20559 3.18659C1.41672 5.07794 0.419922 7.58245 0.419922 10.1858C0.419922 12.7891 1.41672 15.2936 3.20559 17.1849C4.99447 19.0763 7.43963 20.2109 10.0389 20.3557C12.6382 20.5006 15.1943 19.6447 17.1822 17.9638C19.1702 16.283 20.4391 13.9047 20.7283 11.3175H24.2571C24.5169 13.6116 25.5472 15.7497 27.1797 17.3822C28.8122 19.0147 30.9503 20.045 33.2444 20.3047V28.3515C29.1507 28.6446 25.3304 30.5148 22.588 33.5683C19.8456 36.6217 18.3951 40.6202 18.5417 44.7217C18.6884 48.8233 20.4209 52.7079 23.3744 55.5577C26.3279 58.4075 30.2719 60 34.3761 60C38.4803 60 42.4244 58.4075 45.3779 55.5577C48.3313 52.7079 50.0638 48.8233 50.2105 44.7217C50.3572 40.6202 48.9066 36.6217 46.1642 33.5683C43.4218 30.5148 39.6016 28.6446 35.5079 28.3515V20.3047C37.8019 20.045 39.94 19.0147 41.5725 17.3822C43.205 15.7497 44.2354 13.6116 44.4951 11.3175H48.0239C48.2424 13.2718 49.0219 15.121 50.2683 16.642C51.5147 18.1629 53.1748 19.2906 55.048 19.8888C56.9213 20.487 58.9276 20.5301 60.8249 20.0131C62.7221 19.496 64.4291 18.4408 65.7398 16.9749C67.0505 15.5089 67.9088 13.6949 68.2112 11.7519C68.5135 9.80883 68.247 7.8198 67.4437 6.02491C66.6404 4.23002 65.3347 2.70603 63.6843 1.63692C62.0339 0.567813 60.1093 -0.000702254 58.1429 1.26219e-05ZM10.6094 18.108C9.0425 18.108 7.51081 17.6434 6.20801 16.7729C4.9052 15.9024 3.88979 14.6651 3.29017 13.2175C2.69055 11.7699 2.53367 10.177 2.83935 8.64021C3.14503 7.10344 3.89955 5.69183 5.0075 4.58389C6.11544 3.47594 7.52705 2.72142 9.06382 2.41574C10.6006 2.11005 12.1935 2.26694 13.6411 2.86656C15.0887 3.46617 16.326 4.48159 17.1965 5.7844C18.067 7.0872 18.5316 8.61889 18.5316 10.1858C18.5292 12.2861 17.6938 14.2998 16.2086 15.785C14.7234 17.2702 12.7097 18.1056 10.6094 18.108ZM47.9571 44.1383C47.9571 46.8243 47.1606 49.4501 45.6683 51.6835C44.176 53.9168 42.0549 55.6575 39.5733 56.6855C37.0917 57.7134 34.3611 57.9823 31.7266 57.4583C29.0921 56.9343 26.6722 55.6408 24.7729 53.7415C22.8736 51.8421 21.5801 49.4222 21.0561 46.7878C20.532 44.1533 20.801 41.4226 21.8289 38.941C22.8568 36.4594 24.5975 34.3384 26.8309 32.8461C29.0643 31.3538 31.69 30.5573 34.3761 30.5573C37.9768 30.5612 41.4289 31.9933 43.975 34.5393C46.5211 37.0854 47.9532 40.5375 47.9571 44.1383ZM34.3761 18.108C32.8092 18.108 31.2776 17.6434 29.9748 16.7729C28.6719 15.9024 27.6565 14.6651 27.0569 13.2175C26.4573 11.7699 26.3004 10.177 26.6061 8.64021C26.9118 7.10344 27.6663 5.69183 28.7742 4.58389C29.8822 3.47594 31.2938 2.72142 32.8306 2.41574C34.3673 2.11005 35.9602 2.26694 37.4078 2.86656C38.8554 3.46617 40.0927 4.48159 40.9632 5.7844C41.8337 7.0872 42.2984 8.61889 42.2984 10.1858C42.296 12.2861 41.4605 14.2998 39.9753 15.785C38.4902 17.2702 36.4765 18.1056 34.3761 18.108ZM58.1429 18.108C56.576 18.108 55.0443 17.6434 53.7415 16.7729C52.4387 15.9024 51.4233 14.6651 50.8237 13.2175C50.224 11.7699 50.0672 10.177 50.3728 8.64021C50.6785 7.10344 51.433 5.69183 52.541 4.58389C53.6489 3.47594 55.0605 2.72142 56.5973 2.41574C58.1341 2.11005 59.727 2.26694 61.1746 2.86656C62.6222 3.46617 63.8595 4.48159 64.73 5.7844C65.6005 7.0872 66.0651 8.61889 66.0651 10.1858C66.0627 12.2861 65.2273 14.2998 63.7421 15.785C62.2569 17.2702 60.2432 18.1056 58.1429 18.108Z" fill="#0CB4C4"></path><path d="M30.9803 36.2161H29.8485C29.5484 36.2161 29.2605 36.3353 29.0483 36.5475C28.836 36.7598 28.7168 37.0476 28.7168 37.3478V54.324C28.7168 54.6242 28.836 54.9121 29.0483 55.1243C29.2605 55.3366 29.5484 55.4558 29.8485 55.4558H38.9025C39.2027 55.4558 39.4906 55.3366 39.7028 55.1243C39.9151 54.9121 40.0343 54.6242 40.0343 54.324V37.3478C40.0343 37.0476 39.9151 36.7598 39.7028 36.5475C39.4906 36.3353 39.2027 36.2161 38.9025 36.2161H37.7708C37.7708 35.3156 37.4131 34.452 36.7763 33.8152C36.1396 33.1785 35.276 32.8208 34.3755 32.8208C33.4751 32.8208 32.6115 33.1785 31.9747 33.8152C31.338 34.452 30.9803 35.3156 30.9803 36.2161ZM37.7708 53.1923H30.9803V38.4796H37.7708V53.1923ZM35.5073 36.2161H33.2438C33.2438 35.9159 33.363 35.628 33.5753 35.4158C33.7875 35.2035 34.0754 35.0843 34.3755 35.0843C34.6757 35.0843 34.9636 35.2035 35.1758 35.4158C35.3881 35.628 35.5073 35.9159 35.5073 36.2161Z" fill="#0CB4C4"></path><path d="M36.6393 49.7969H32.1123V52.0604H36.6393V49.7969Z" fill="#0CB4C4"></path><path d="M36.6393 46.4019H32.1123V48.6654H36.6393V46.4019Z" fill="#0CB4C4"></path><path d="M36.6393 43.0063H32.1123V45.2698H36.6393V43.0063Z" fill="#0CB4C4"></path><path d="M36.6393 39.6113H32.1123V41.8748H36.6393V39.6113Z" fill="#0CB4C4"></path><path d="M35.5076 3.39502H33.2441V5.65852H35.5076V3.39502Z" fill="#0CB4C4"></path><path d="M30.3749 4.58355L28.7744 6.18408L30.3749 7.78462L31.9755 6.18408L30.3749 4.58355Z" fill="#0CB4C4"></path><path d="M29.8485 9.0542H27.585V11.3177H29.8485V9.0542Z" fill="#0CB4C4"></path><path d="M30.3749 12.5875L28.7744 14.188L30.3749 15.7885L31.9755 14.188L30.3749 12.5875Z" fill="#0CB4C4"></path><path d="M35.5076 14.7129H33.2441V16.9764H35.5076V14.7129Z" fill="#0CB4C4"></path><path d="M38.3769 12.5875L36.7764 14.188L38.3769 15.7885L39.9774 14.188L38.3769 12.5875Z" fill="#0CB4C4"></path><path d="M41.1658 9.0542H38.9023V11.3177H41.1658V9.0542Z" fill="#0CB4C4"></path><path d="M38.3759 4.58355L36.7754 6.18408L38.3759 7.78462L39.9765 6.18408L38.3759 4.58355Z" fill="#0CB4C4"></path><path d="M34.3757 6.79053C33.7042 6.79053 33.0478 6.98966 32.4894 7.36273C31.9311 7.73581 31.4959 8.26607 31.2389 8.88647C30.9819 9.50687 30.9147 10.1895 31.0457 10.8482C31.1767 11.5068 31.5001 12.1117 31.9749 12.5866C32.4497 13.0614 33.0547 13.3848 33.7133 13.5158C34.372 13.6468 35.0546 13.5796 35.675 13.3226C36.2954 13.0656 36.8257 12.6304 37.1988 12.0721C37.5718 11.5137 37.771 10.8573 37.771 10.1858C37.771 9.2853 37.4133 8.42171 36.7765 7.78497C36.1398 7.14824 35.2762 6.79053 34.3757 6.79053ZM34.3757 11.3175C34.1519 11.3175 33.9331 11.2512 33.747 11.1268C33.5608 11.0024 33.4158 10.8257 33.3301 10.6189C33.2445 10.4121 33.222 10.1845 33.2657 9.96498C33.3094 9.74545 33.4172 9.54379 33.5755 9.38551C33.7337 9.22723 33.9354 9.11944 34.1549 9.07577C34.3745 9.0321 34.602 9.05452 34.8088 9.14018C35.0156 9.22584 35.1924 9.37089 35.3167 9.55701C35.4411 9.74313 35.5075 9.96194 35.5075 10.1858C35.5075 10.4859 35.3882 10.7738 35.176 10.986C34.9637 11.1983 34.6759 11.3175 34.3757 11.3175Z" fill="#0CB4C4"></path><path d="M9.62214 3.97264C9.03024 5.0263 6.08203 10.3829 6.08203 12.4494C6.08203 13.6501 6.55898 14.8015 7.40796 15.6505C8.25694 16.4995 9.4084 16.9764 10.609 16.9764C11.8097 16.9764 12.9611 16.4995 13.8101 15.6505C14.6591 14.8015 15.136 13.6501 15.136 12.4494C15.136 10.3829 12.1878 5.0263 11.5959 3.97264C11.4889 3.80847 11.3426 3.6736 11.1702 3.58024C10.9979 3.48688 10.805 3.43799 10.609 3.43799C10.413 3.43799 10.2202 3.48688 10.0478 3.58024C9.8755 3.6736 9.72919 3.80847 9.62214 3.97264ZM10.609 14.7129C10.0087 14.7129 9.43298 14.4745 9.00849 14.05C8.58401 13.6255 8.34553 13.0498 8.34553 12.4494C8.83995 10.5094 9.60175 8.64761 10.609 6.91745C11.6168 8.64736 12.3786 10.5093 12.8725 12.4494C12.8725 13.0498 12.6341 13.6255 12.2096 14.05C11.7851 14.4745 11.2093 14.7129 10.609 14.7129Z" fill="#0CB4C4"></path><path d="M10.6093 13.5809C11.2343 13.5809 11.741 13.0742 11.741 12.4491C11.741 11.8241 11.2343 11.3174 10.6093 11.3174C9.98424 11.3174 9.47754 11.8241 9.47754 12.4491C9.47754 13.0742 9.98424 13.5809 10.6093 13.5809Z" fill="#0CB4C4"></path><path d="M64.8464 8.62039C64.7607 8.41364 64.6156 8.23695 64.4295 8.11265C64.2433 7.98836 64.0245 7.92205 63.8007 7.9221H61.3878L62.4788 6.28673C62.5925 6.11628 62.6578 5.91817 62.6678 5.71351C62.6777 5.50886 62.6319 5.30535 62.5352 5.12468C62.4386 4.94402 62.2947 4.79299 62.1189 4.68771C61.9431 4.58242 61.7421 4.52682 61.5372 4.52686H57.0102C56.8149 4.52689 56.6229 4.57746 56.453 4.67365C56.283 4.76983 56.1408 4.90836 56.0403 5.07575L52.645 10.7345C52.5419 10.9062 52.4861 11.1022 52.4835 11.3025C52.4809 11.5028 52.5315 11.7002 52.6301 11.8746C52.7287 12.0489 52.8718 12.194 53.0449 12.2949C53.2179 12.3959 53.4146 12.4491 53.6149 12.4491H55.8784V15.8444C55.8785 16.0682 55.9449 16.2869 56.0692 16.473C56.1936 16.6591 56.3703 16.8041 56.5771 16.8897C56.7839 16.9754 57.0114 16.9978 57.2309 16.9541C57.4504 16.9105 57.6521 16.8027 57.8103 16.6445L64.6008 9.854C64.7592 9.69573 64.8671 9.49405 64.9108 9.27446C64.9545 9.05487 64.9321 8.82725 64.8464 8.62039ZM58.1419 13.1123V11.3174C58.1419 11.0172 58.0227 10.7293 57.8105 10.5171C57.5982 10.3048 57.3103 10.1856 57.0102 10.1856H55.6147L57.6519 6.79035H59.4242L58.3332 8.42573C58.2195 8.5961 58.1542 8.79411 58.1442 8.99866C58.1343 9.20322 58.18 9.40665 58.2765 9.58728C58.373 9.7679 58.5167 9.91895 58.6924 10.0243C58.868 10.1297 59.0689 10.1854 59.2737 10.1856H61.0686L58.1419 13.1123Z" fill="#0CB4C4"></path></svg>