<svg width="61" height="60" viewBox="0 0 61 60" fill="none" xmlns="http://www.w3.org/2000/svg"><path d="M32.5493 41.1099L30.8971 41.0718C30.7867 45.8529 30.0874 50.3589 28.8184 54.466L30.3976 54.9541C31.7116 50.7011 32.4357 46.0434 32.5493 41.1099Z" fill="#0CB4C4"></path><path d="M15.5373 23.0513C12.7184 23.5478 10.2177 25.0864 8.49609 27.3837L9.81841 28.3754C11.2876 26.4152 13.4202 25.1026 15.8292 24.6784C16.3622 24.5809 16.9232 24.5318 17.4969 24.5318C18.9706 24.5318 20.3853 24.8591 21.7014 25.5048L22.4297 24.0211C20.8847 23.2631 19.2253 22.8789 17.4969 22.8789C16.8238 22.8789 16.163 22.937 15.5373 23.0513Z" fill="#0CB4C4"></path><path d="M25.5248 36.0645L23.8771 36.191C24.2638 41.2284 24.1867 50.8817 19.3252 58.9331L20.7398 59.7879C25.8399 51.3414 25.9271 41.2988 25.5248 36.0645Z" fill="#0CB4C4"></path><path d="M17.4973 26.3462C17.0414 26.3462 16.5853 26.3856 16.1391 26.4637C11.9343 27.2094 9.11016 31.2338 9.84202 35.4255C9.88625 35.7121 10.2707 38.3225 10.118 41.6425L11.769 41.7187C11.9259 38.3103 11.552 35.6682 11.4717 35.1491C10.8948 31.8446 13.1181 28.6783 16.4258 28.0914C16.7761 28.0301 17.1367 27.9991 17.4973 27.9991C19.872 27.9991 22.0476 29.3944 23.0399 31.5534L24.5417 30.8626C23.2808 28.1192 20.5154 26.3462 17.4973 26.3462Z" fill="#0CB4C4"></path><path d="M22.0863 43.4893L20.4386 43.3628C19.9527 49.667 18.1558 54.9311 15.0977 59.0084L16.42 60.0001C19.6696 55.6671 21.5762 50.1125 22.0863 43.4893Z" fill="#0CB4C4"></path><path d="M12.4565 53.3146C16.4951 45.5537 15.0669 35.6874 14.8868 34.5633C14.6356 33.1313 15.597 31.7599 17.0297 31.5061C18.4625 31.2524 19.8335 32.2112 20.0892 33.6368C20.1634 34.0713 20.414 35.6687 20.5205 37.9821L22.1714 37.9059C22.0607 35.4982 21.797 33.8169 21.7172 33.3508C21.3004 31.0238 19.0671 29.4691 16.7418 29.8791C14.4132 30.291 12.8507 32.5205 13.2584 34.8494C13.426 35.8934 14.7835 45.2619 10.9902 52.5514L12.4565 53.3146Z" fill="#0CB4C4"></path><path d="M32.7561 9.61719L31.9297 10.4436V27.9604L32.7561 28.7868H50.2729L51.0993 27.9604V10.4436L50.2729 9.61719H32.7561ZM49.4464 27.1339H33.5826V11.2701H49.4464V27.1339Z" fill="#0CB4C4"></path><path d="M60.716 11.5102V9.85728H57.5062V8.56726L57.264 7.98293L52.7328 3.45234L52.1485 3.21022H50.8588V0H49.2059V3.21022H45.1799V0H43.527V3.21022H39.5013V0H37.8484V3.21022H33.8227V0H32.1698V3.21022H30.8798L30.2955 3.45234L25.7646 7.98293L25.5224 8.56726V9.85728H22.3122V11.5102H25.5224V15.5359H22.3122V17.1887H25.5224V21.7975C23.1477 20.25 20.3533 19.4118 17.4962 19.4118C16.6059 19.4118 15.7417 19.4873 14.9327 19.6358C7.23768 20.9975 1.95135 28.1159 2.89756 35.8425L4.53818 35.6411C3.69882 28.7874 8.39115 22.4715 15.2255 21.2622C15.9415 21.1311 16.7053 21.0646 17.4962 21.0646C20.4042 21.0646 23.2389 22.0432 25.5224 23.8271V28.1051L25.1615 28.3709C25.2864 28.5409 25.4085 28.7143 25.5224 28.8907V29.8359L25.7646 30.4202L26.6472 31.3029C26.7607 31.6683 26.8493 32.0357 26.9167 32.4192C27.1572 33.8067 29.1188 46.3035 23.9254 57.6329L25.4278 58.3211C30.0715 48.1911 29.2192 37.1878 28.7298 33.3857L30.2955 34.9515L30.8798 35.1936H32.1698V38.4038H33.8227V35.1936H37.8484V38.4038H39.5013V35.1936H43.527V38.4038H45.1799V35.1936H49.2059V38.4038H50.8588V35.1936H52.1485L52.7328 34.9515L57.264 30.4202L57.5062 29.8359V28.5465H60.716V26.8937H57.5062V22.868H60.716V21.2151H57.5062V17.1887H60.716V15.5359H57.5062V11.5102H60.716ZM55.8533 29.4937L51.8063 33.5407H31.222L27.1753 29.4937V8.90946L31.222 4.86311H51.8063L55.8533 8.90946V29.4937Z" fill="#0CB4C4"></path><path d="M36.9014 12.1919L34.5049 14.5884L35.6735 15.757L38.0701 13.3605L36.9014 12.1919Z" fill="#0CB4C4"></path><path d="M41.7056 12.1923L34.5049 19.3931L35.6735 20.5617L42.8742 13.361L41.7056 12.1923Z" fill="#0CB4C4"></path><path d="M0.523438 49.5936L1.90127 50.5066C2.08561 50.2283 2.28254 49.9539 2.48527 49.6898C4.81675 46.6824 4.932 41.2917 4.87325 39.1133L3.221 39.1585C3.33335 43.3249 2.56986 46.8831 1.17717 48.6794C0.948604 48.9764 0.72908 49.2831 0.523438 49.5936Z" fill="#0CB4C4"></path><path d="M2.70898 52.7472L4.19788 53.4652C4.47067 52.8996 4.81674 52.3436 5.2248 51.8142C8.89376 47.0841 8.50765 38.593 8.0473 35.7082C7.7787 34.1696 7.89847 32.5703 8.39434 31.084L6.82603 30.561C6.24429 32.3069 6.10354 34.1851 6.41701 35.9807C6.84411 38.6563 7.22731 46.5353 3.91701 50.8031C3.43793 51.4249 3.03149 52.0789 2.70898 52.7472Z" fill="#0CB4C4"></path><path d="M5.36816 55.4227L6.94938 55.9043C7.16859 55.1844 7.51078 54.5239 7.96953 53.9377C9.57108 51.8696 10.6874 49.1998 11.2882 46.0025L9.66374 45.6978C9.11202 48.6349 8.10221 51.0664 6.66529 52.922C6.08323 53.6665 5.64677 54.5078 5.36816 55.4227Z" fill="#0CB4C4"></path><path d="M16.6993 45.7276L18.3335 45.9742L18.3338 45.9736C19.2881 39.6551 18.3438 34.1864 18.3031 33.9565L16.6738 34.2355C16.8275 35.1633 17.5497 40.0774 16.6993 45.7263V45.7276Z" fill="#0CB4C4"></path><path d="M8.5 57.6703H10.1529C10.1529 57.0925 10.3495 56.5211 10.7149 56.0523L10.8712 55.8444L9.55016 54.8501L9.40231 55.0477C8.82057 55.7947 8.5 56.7264 8.5 57.6703Z" fill="#0CB4C4"></path></svg>