<svg width="74" height="60" viewBox="0 0 74 60" fill="none" xmlns="http://www.w3.org/2000/svg"><path d="M14.666 24.668L14.666 24.668L14.6663 24.6732C15.4502 36.2706 25.1926 45.3742 36.8596 45.3742C48.5266 45.3742 58.269 36.2706 59.0528 24.6732L59.0532 24.668C59.166 22.8198 60.7067 21.3723 62.5073 21.3723H69.4344C71.3584 21.3723 72.9192 22.9331 72.9192 24.857V50.5723C72.9192 55.341 69.06 59.2001 64.2914 59.2001H64.2848H9.42782C4.65912 59.2001 0.8 55.341 0.8 50.5723V24.857C0.8 22.9331 2.3608 21.3723 4.28477 21.3723H11.2118C13.0096 21.3723 14.5531 22.8202 14.666 24.668ZM5.13646 24.9153V25.7153H4.33975V50.5723C4.33975 53.3799 6.6169 55.657 9.42453 55.657H64.2848C67.0924 55.657 69.3695 53.3799 69.3695 50.5723V25.7153V24.9153H68.5695H63.2883H62.5616L62.4919 25.6386C61.2296 38.7395 50.085 48.9173 36.853 48.9173C23.6194 48.9173 12.4452 38.7383 11.2142 25.6405L11.1461 24.9153H10.4178H5.93975H5.13975H5.13646Z" fill="#0CB4C4" stroke="white" stroke-width="1.6"></path><path d="M20.5738 4.69619L20.5748 4.69714C25.0077 8.81076 30.792 11.0824 36.8567 11.0824C42.9214 11.0824 48.7057 8.81076 53.1386 4.69714L53.1406 4.69526C53.8402 4.04159 54.9801 4.08313 55.6454 4.79515C56.2988 5.49439 56.2576 6.63367 55.5464 7.29911C50.449 12.0307 43.8197 14.6287 36.8567 14.6287C29.8937 14.6287 23.2645 12.0307 18.167 7.29911C17.4572 6.63499 17.4164 5.49545 18.0685 4.79464C18.7327 4.08434 19.8729 4.0435 20.5738 4.69619Z" fill="#0CB4C4" stroke="white" stroke-width="1.6"></path><path d="M43.713 45.4873C38.9443 45.4873 35.0852 41.6282 35.0852 36.8595C35.0852 32.0908 38.9443 28.2316 43.713 28.2316C48.4817 28.2316 52.3408 32.0908 52.3408 36.8595C52.3408 41.6282 48.4817 45.4873 43.713 45.4873ZM43.713 31.7714C40.9053 31.7714 38.6282 34.0485 38.6282 36.8562C38.6282 39.6638 40.9053 41.9409 43.713 41.9409C46.5206 41.9409 48.7977 39.6638 48.7977 36.8562C48.7977 34.0485 46.5206 31.7714 43.713 31.7714Z" fill="#0CB4C4" stroke="white" stroke-width="1.6"></path><path d="M55.6569 5.14304V4.34304H54.8569H49.4407C48.4778 4.34304 47.6691 3.53436 47.6691 2.57152C47.6691 1.60868 48.4778 0.8 49.4407 0.8H57.4284C58.3913 0.8 59.2 1.60868 59.2 2.57152V10.5593C59.2 11.5221 58.3913 12.3308 57.4284 12.3308C56.4656 12.3308 55.6569 11.5221 55.6569 10.5593V5.14304Z" fill="#0CB4C4" stroke="white" stroke-width="1.6"></path><path d="M19.438 4.34304H18.638V5.14304V10.5593C18.638 11.5221 17.8293 12.3308 16.8664 12.3308C15.9036 12.3308 15.0949 11.5221 15.0949 10.5593V2.57152C15.0949 1.60868 15.9036 0.8 16.8664 0.8H24.8542C25.8171 0.8 26.6257 1.60868 26.6257 2.57152C26.6257 3.53436 25.8171 4.34304 24.8542 4.34304H19.438Z" fill="#0CB4C4" stroke="white" stroke-width="1.6"></path></svg>