<svg version="1.1" id="Layer_1" xmlns="http://www.w3.org/2000/svg" xmlns:xlink="http://www.w3.org/1999/xlink" x="0px" y="0px" width="69.5px" height="60px" viewBox="0 0 69.5 60" style="enable-background:new 0 0 69.5 60;" xml:space="preserve"><g><path style="fill:#0CB4C4;" d="M30.907,29.192c0.134,0.052,0.272,0.076,0.408,0.076c0.458,0,0.892-0.279,1.065-0.732l6.871-17.907 c0.226-0.588-0.068-1.248-0.656-1.474c-0.588-0.228-1.248,0.066-1.474,0.655l-6.872,17.907 C30.024,28.308,30.319,28.967,30.907,29.192z M41.597,29.076c0.221,0.208,0.502,0.312,0.783,0.312c0.304,0,0.605-0.12,0.83-0.357 l8.565-9.07c0.414-0.439,0.414-1.126,0-1.566L43.21,9.317c-0.432-0.46-1.154-0.479-1.613-0.047 c-0.458,0.432-0.479,1.154-0.046,1.612l7.825,8.291l-7.825,8.289C41.117,27.921,41.139,28.643,41.597,29.076z M26.29,29.03 c0.225,0.237,0.526,0.358,0.83,0.358c0.281,0,0.563-0.104,0.783-0.312c0.458-0.433,0.479-1.155,0.047-1.612l-7.826-8.293 l7.826-8.287c0.432-0.458,0.411-1.18-0.046-1.612c-0.458-0.432-1.182-0.412-1.614,0.047l-8.564,9.067 c-0.415,0.439-0.416,1.127,0,1.567L26.29,29.03z M67.588,0H1.912C0.863,0,0.01,0.854,0.01,1.901v46.659 c0,1.049,0.854,1.902,1.902,1.902h27.712l-0.419,4.502c-0.019,0.282-0.327,2.752-5.001,2.752c-0.63,0-1.141,0.511-1.141,1.143 c0,0.63,0.511,1.141,1.141,1.141h21.092c0.632,0,1.143-0.511,1.143-1.141c0-0.632-0.511-1.143-1.143-1.143 c-4.674,0-4.98-2.47-5.005-2.802l-0.415-4.452h26.952c0.683,0,2.662-0.469,2.662-1.902V1.901C69.49,0.854,68.638,0,67.588,0z M67.207,38.671H2.292V2.282h64.915V38.671z"></path></g></svg>