<svg width="45" height="60" viewBox="0 0 45 60" fill="none" xmlns="http://www.w3.org/2000/svg"><path d="M43.3638 46.907V10.6166C43.3638 10.3909 43.2757 10.1747 43.1195 10.0152L33.5516 0.249333C33.3954 0.0898679 33.1835 0 32.9624 0H7.60111C7.14101 0 6.76831 0.380418 6.76831 0.850029V6.90834H0.832799C0.372707 6.90834 0 7.28876 0 7.75837V58.1189C0 58.5885 0.372707 58.9689 0.832799 58.9689H31.8191C33.0253 59.6257 34.4003 60 35.86 60C40.6085 60 44.4713 56.0573 44.4713 51.2105C44.4713 49.6476 44.0675 48.18 43.3638 46.907ZM33.7952 2.9028L40.5198 9.76655H33.7952V2.9028ZM8.4339 1.70073H32.1296V10.6166C32.1296 11.0862 32.5023 11.4666 32.9624 11.4666H41.6975V44.7569C40.1617 43.3082 38.1108 42.421 35.8593 42.421C31.3921 42.421 27.7094 45.9117 27.289 50.3605H8.4339V1.70073ZM1.6656 8.60907H6.76831V51.2105C6.76831 51.6801 7.14101 52.0605 7.60111 52.0605H27.289C27.479 54.0707 28.3357 55.8836 29.6292 57.2688H1.6656V8.60907ZM35.8593 58.2999C32.0296 58.2999 28.9136 55.1194 28.9136 51.2105C28.9136 47.3016 32.0296 44.1211 35.8593 44.1211C39.689 44.1211 42.805 47.3016 42.805 51.2105C42.805 55.1201 39.6897 58.2999 35.8593 58.2999ZM40.7985 47.6915C41.1322 48.0145 41.1467 48.5523 40.8303 48.8935L35.4409 54.6985C35.2787 54.8735 35.0583 54.964 34.8359 54.964C34.6684 54.964 34.4996 54.9127 34.3539 54.8073L30.7751 52.2146C30.3998 51.943 30.3117 51.4119 30.5779 51.0294C30.844 50.6463 31.3643 50.5564 31.739 50.8281L34.7286 52.9937L39.6208 47.7246C39.9373 47.3827 40.4649 47.3685 40.7985 47.6915ZM12.6469 10.1963C12.6469 9.72668 13.0196 9.34626 13.4797 9.34626H27.8359C28.2959 9.34626 28.6687 9.72668 28.6687 10.1963C28.6687 10.6659 28.2959 11.0463 27.8359 11.0463H13.4797C13.0196 11.0463 12.6469 10.6659 12.6469 10.1963ZM12.3159 19.9932C12.3159 19.5236 12.6886 19.1432 13.1487 19.1432H36.9827C37.4428 19.1432 37.8155 19.5236 37.8155 19.9932C37.8155 20.4629 37.4428 20.8433 36.9827 20.8433H13.1487C12.6893 20.8433 12.3159 20.4629 12.3159 19.9932ZM12.3159 29.7902C12.3159 29.3206 12.6886 28.9402 13.1487 28.9402H36.9827C37.4428 28.9402 37.8155 29.3206 37.8155 29.7902C37.8155 30.2598 37.4428 30.6402 36.9827 30.6402H13.1487C12.6893 30.6402 12.3159 30.2598 12.3159 29.7902ZM13.1487 40.4372C12.6886 40.4372 12.3159 40.0568 12.3159 39.5871C12.3159 39.1175 12.6886 38.7371 13.1487 38.7371H36.9827C37.4428 38.7371 37.8155 39.1175 37.8155 39.5871C37.8155 40.0568 37.4428 40.4372 36.9827 40.4372H13.1487Z" fill="#0CB4C4"></path></svg>