<svg width="60" height="60" viewBox="0 0 60 60" fill="none" xmlns="http://www.w3.org/2000/svg"><path d="M6.20031 23.781L11.4384 26.8477C11.5813 26.9334 11.7432 26.9715 11.8955 26.9715C12.2098 26.9715 12.5146 26.8096 12.686 26.5239C12.9432 26.0953 12.7908 25.5334 12.3622 25.2762L8.46697 22.9905L12.3622 20.7048C12.7908 20.4477 12.9432 19.8953 12.686 19.4572C12.4289 19.0286 11.8765 18.8762 11.4384 19.1334L6.20031 22.2001C5.91459 22.381 5.74316 22.6762 5.74316 23.0001C5.74316 23.3239 5.91459 23.6191 6.20031 23.781Z" fill="#0CB4C4"></path><path d="M23.0379 26.5243C23.2093 26.8101 23.514 26.972 23.8283 26.972C23.9807 26.972 24.1426 26.9339 24.2855 26.8482L29.5236 23.7815C29.7998 23.6196 29.9712 23.3243 29.9712 23.0005C29.9712 22.6767 29.7998 22.3815 29.5236 22.2196L24.2855 19.1529C23.8474 18.8958 23.295 19.0482 23.0379 19.4767C22.7807 19.9053 22.9331 20.4672 23.3617 20.7243L27.2569 23.0101L23.3617 25.2958C22.9236 25.5339 22.7807 26.0958 23.0379 26.5243Z" fill="#0CB4C4"></path><path d="M14.2665 30.59C14.3904 30.6472 14.5237 30.6757 14.657 30.6757C14.9999 30.6757 15.3237 30.4853 15.4761 30.1519L21.8665 16.6091C22.0761 16.1519 21.8856 15.6091 21.4285 15.3996C20.9713 15.1805 20.4285 15.3805 20.2189 15.8377L13.8285 29.3805C13.6189 29.8377 13.8189 30.3805 14.2665 30.59Z" fill="#0CB4C4"></path><path d="M44.7622 37.2187H53.9527C54.4574 37.2187 54.8574 36.8092 54.8574 36.3139C54.8574 35.8092 54.4479 35.4092 53.9527 35.4092H44.7622C44.2574 35.4092 43.8574 35.8187 43.8574 36.3139C43.8574 36.8092 44.2669 37.2187 44.7622 37.2187Z" fill="#0CB4C4"></path><path d="M21.1621 36.3141C21.1621 36.8189 21.5716 37.2189 22.0669 37.2189H37.7812C38.2859 37.2189 38.6859 36.8093 38.6859 36.3141C38.6859 35.8093 38.2764 35.4093 37.7812 35.4093H22.0669C21.5716 35.3998 21.1621 35.8093 21.1621 36.3141Z" fill="#0CB4C4"></path><path d="M6.65688 37.2187H14.6569C15.1616 37.2187 15.5616 36.8092 15.5616 36.3139C15.5616 35.8092 15.1521 35.4092 14.6569 35.4092H6.65688C6.15212 35.4092 5.75212 35.8187 5.75212 36.3139C5.74259 36.8092 6.15212 37.2187 6.65688 37.2187Z" fill="#0CB4C4"></path><path d="M6.65688 42.4951H53.9521C54.4569 42.4951 54.8569 42.0855 54.8569 41.5903C54.8569 41.0855 54.4474 40.6855 53.9521 40.6855H6.65688C6.15212 40.6855 5.75212 41.0951 5.75212 41.5903C5.74259 42.0855 6.15212 42.4951 6.65688 42.4951Z" fill="#0CB4C4"></path><path d="M53.9523 45.9434H43.3618C42.857 45.9434 42.457 46.3529 42.457 46.8481C42.457 47.3529 42.8666 47.7529 43.3618 47.7529H53.9618C54.4666 47.7529 54.8666 47.3434 54.8666 46.8481C54.8666 46.3529 54.457 45.9434 53.9523 45.9434Z" fill="#0CB4C4"></path><path d="M39.2004 45.9434H25.3432C24.8385 45.9434 24.4385 46.3529 24.4385 46.8481C24.4385 47.3529 24.848 47.7529 25.3432 47.7529H39.2004C39.7051 47.7529 40.1051 47.3434 40.1051 46.8481C40.1147 46.3529 39.7051 45.9434 39.2004 45.9434Z" fill="#0CB4C4"></path><path d="M6.65688 47.7617H15.9616C16.4664 47.7617 16.8664 47.3521 16.8664 46.8569C16.8664 46.3521 16.4569 45.9521 15.9616 45.9521H6.65688C6.15212 45.9521 5.75212 46.3617 5.75212 46.8569C5.74259 47.3521 6.15212 47.7617 6.65688 47.7617Z" fill="#0CB4C4"></path><path d="M53.9528 51.2197H44.1147C43.61 51.2197 43.21 51.6293 43.21 52.1245C43.21 52.6293 43.6195 53.0293 44.1147 53.0293H53.9623C54.4671 53.0293 54.8671 52.6197 54.8671 52.1245C54.8671 51.6197 54.4576 51.2197 53.9528 51.2197Z" fill="#0CB4C4"></path><path d="M6.65688 53.038H36.5807C37.0854 53.038 37.4854 52.6285 37.4854 52.1333C37.4854 51.6285 37.0759 51.2285 36.5807 51.2285H6.65688C6.15212 51.2285 5.75212 51.638 5.75212 52.1333C5.74259 52.6285 6.15212 53.038 6.65688 53.038Z" fill="#0CB4C4"></path><path d="M55.4571 0H4.54286C2.0381 0 0 2.0381 0 4.54286V10.8381V55.4571C0 57.9619 2.0381 60 4.54286 60H55.4571C57.9619 60 60 57.9619 60 55.4571V10.8381V4.54286C60 2.0381 57.9619 0 55.4571 0ZM1.81905 4.54286C1.81905 3.0381 3.0381 1.81905 4.54286 1.81905H55.4571C56.9619 1.81905 58.181 3.0381 58.181 4.54286V9.92381H1.81905V4.54286ZM58.181 55.4571C58.181 56.9619 56.9619 58.181 55.4571 58.181H4.54286C3.0381 58.181 1.81905 56.9619 1.81905 55.4571V11.7429H58.1905V55.4571H58.181Z" fill="#0CB4C4"></path><path d="M6.69472 5.22803C6.6471 5.18994 6.59948 5.15184 6.55186 5.12327C6.50424 5.07565 6.4471 5.04708 6.38996 5.03756C6.33281 5.00898 6.28519 4.98994 6.21853 4.98041C6.11376 4.95184 5.98043 4.95184 5.86615 4.98041C5.809 4.98994 5.75186 5.00898 5.70424 5.03756C5.6471 5.04708 5.58996 5.07565 5.53281 5.11375C5.48519 5.15184 5.43757 5.18994 5.39948 5.21851C5.31377 5.31375 5.25662 5.40898 5.209 5.52327C5.15186 5.63756 5.13281 5.75184 5.13281 5.86613C5.13281 6.11375 5.22805 6.34232 5.39948 6.51375C5.49472 6.59946 5.58996 6.6566 5.70424 6.70422C5.809 6.75184 5.92329 6.78041 6.0471 6.78041C6.17091 6.78041 6.28519 6.75184 6.38996 6.70422C6.49472 6.6566 6.59948 6.59946 6.69472 6.51375C6.86615 6.34232 6.95186 6.11375 6.95186 5.86613C6.95186 5.75184 6.92329 5.62803 6.87567 5.52327C6.83757 5.41851 6.77091 5.31375 6.69472 5.22803Z" fill="#0CB4C4"></path><path d="M11.2379 5.22858C11.1427 5.14287 11.0475 5.08572 10.9332 5.0381C10.7713 4.96191 10.5903 4.94287 10.4094 4.98096C10.3522 4.99049 10.3046 5.00953 10.2475 5.0381C10.1808 5.05715 10.1427 5.08572 10.0855 5.12382C10.0379 5.15239 9.99031 5.20001 9.95221 5.22858C9.8665 5.32382 9.80936 5.40953 9.76174 5.53334C9.71412 5.6381 9.68555 5.76191 9.68555 5.8762C9.68555 5.99049 9.71412 6.11429 9.76174 6.21906C9.80936 6.32382 9.8665 6.42858 9.95221 6.52382C10.0475 6.60953 10.1427 6.66668 10.257 6.7143C10.3617 6.76191 10.4855 6.79049 10.5998 6.79049C10.7141 6.79049 10.8379 6.76191 10.9427 6.7143C11.0475 6.66668 11.1522 6.60953 11.2475 6.52382C11.3332 6.42858 11.3903 6.33334 11.4379 6.21906C11.4855 6.11429 11.5141 5.99049 11.5141 5.8762C11.5141 5.76191 11.4855 5.6381 11.4379 5.53334C11.3808 5.40953 11.3141 5.31429 11.2379 5.22858Z" fill="#0CB4C4"></path><path d="M15.7807 5.22852C15.4473 4.89518 14.8378 4.89518 14.4854 5.22852C14.3235 5.39994 14.2188 5.63804 14.2188 5.87613C14.2188 6.12375 14.314 6.35233 14.4854 6.52375C14.5807 6.60947 14.6664 6.66661 14.7902 6.71423C14.8949 6.76185 15.0187 6.79042 15.133 6.79042C15.2473 6.79042 15.3711 6.76185 15.4759 6.71423C15.5807 6.66661 15.6854 6.60947 15.7807 6.52375C15.9426 6.35233 16.0473 6.12375 16.0473 5.87613C16.0473 5.76185 16.0188 5.63804 15.9711 5.53328C15.9235 5.40947 15.8664 5.30471 15.7807 5.22852Z" fill="#0CB4C4"></path><path d="M53.9527 4.96191H32.7622C32.2574 4.96191 31.8574 5.37144 31.8574 5.86668C31.8574 6.36191 32.2669 6.77144 32.7622 6.77144H53.9527C54.4574 6.77144 54.8574 6.36191 54.8574 5.86668C54.8574 5.37144 54.4574 4.96191 53.9527 4.96191Z" fill="#0CB4C4"></path></svg>