<svg width="55" height="60" viewBox="0 0 55 60" fill="none" xmlns="http://www.w3.org/2000/svg"><path d="M35.8277 12C35.6684 11.4973 35.4643 11.0096 35.2178 10.5429L37.4399 8.3361L33.5956 4.5183L31.3735 6.7251C30.9035 6.48032 30.4125 6.27762 29.9062 6.1194V3H24.4688V6.1194C23.9625 6.27762 23.4715 6.48032 23.0015 6.7251L20.7794 4.5183L16.9351 8.3361L19.1572 10.5429C18.9107 11.0096 18.7066 11.4973 18.5473 12H0V48H21.75V51.4272L19.5052 57H34.8698L32.625 51.4272V48H54.375V12H35.8277ZM17.2188 13.8H19.9629L20.1233 13.0998C20.3047 12.311 20.6194 11.5585 21.054 10.8741L21.4401 10.2657L19.498 8.3361L20.7794 7.0635L22.7215 8.9922L23.3332 8.6097C24.0227 8.17754 24.7812 7.86498 25.5762 7.6854L26.2812 7.5261V4.8H28.0938V7.5261L28.7988 7.6854C29.5938 7.86498 30.3523 8.17754 31.0418 8.6097L31.6535 8.9922L33.5956 7.0635L34.877 8.3361L32.9349 10.2657L33.321 10.8741C33.7572 11.5582 34.0734 12.3107 34.2562 13.0998L34.4167 13.8H37.1562V15.6H34.4121L34.2517 16.3002C34.0703 17.089 33.7556 17.8415 33.321 18.5259L32.9349 19.1343L34.877 21.0639L33.5956 22.3365L31.6535 20.4078L31.0409 20.7903C30.3518 21.2227 29.5936 21.5353 28.7988 21.7146L28.0938 21.8739V24.6H26.2812V21.8739L25.5762 21.7146C24.7814 21.5353 24.0232 21.2227 23.3341 20.7903L22.7215 20.4078L20.7794 22.3365L19.498 21.0639L21.4401 19.1343L21.054 18.5259C20.6194 17.8415 20.3047 17.089 20.1233 16.3002L19.9629 15.6H17.2188V13.8ZM22.1823 55.2L23.2698 52.5H31.1052L32.1927 55.2H22.1823ZM30.8125 50.7H23.5625V48H30.8125V50.7ZM52.5625 46.2H1.8125V42.6H52.5625V46.2ZM52.5625 13.8V40.8H1.8125V13.8H15.4062V17.4H18.5473C18.7066 17.9027 18.9107 18.3904 19.1572 18.8571L16.9351 21.0639L20.7794 24.8817L23.0015 22.6758C23.4716 22.9201 23.9626 23.1225 24.4688 23.2806V26.4H29.9062V23.2806C30.4124 23.1225 30.9034 22.9201 31.3735 22.6758L33.5956 24.8817L37.4399 21.0639L35.2178 18.8571C35.4643 18.3904 35.6684 17.9027 35.8277 17.4H38.9688V13.8H52.5625Z" fill="#0CB4C4"></path><path d="M32.7711 28.2001H24.468C23.5066 28.2001 22.5846 28.5794 21.9048 29.2545C21.2249 29.9297 20.843 30.8453 20.843 31.8001H15.7807L12.2654 28.3099C11.9432 27.99 11.5607 27.7362 11.1398 27.563C10.7189 27.3899 10.2678 27.3008 9.81215 27.3008C8.89201 27.3008 8.00956 27.6638 7.35893 28.3099C7.03677 28.6299 6.78122 29.0097 6.60686 29.4277C6.43251 29.8457 6.34277 30.2938 6.34277 30.7462C6.34277 31.66 6.7083 32.5364 7.35893 33.1825L13.2178 39.0001H48.0305V30.0001H38.2086L32.7711 28.2001ZM46.218 37.2001H13.9682L8.64037 31.9099C8.40867 31.6797 8.25089 31.3865 8.18698 31.0672C8.12307 30.748 8.15589 30.4171 8.2813 30.1164C8.40671 29.8156 8.61908 29.5586 8.89156 29.3777C9.16404 29.1968 9.4844 29.1002 9.81215 29.1001C10.2515 29.1013 10.6726 29.2746 10.9839 29.5825L15.0303 33.6001H21.3297C21.6478 34.1473 22.1052 34.6016 22.6561 34.9176C23.207 35.2335 23.8319 35.4 24.468 35.4001H32.6243V33.6001H24.468C23.9873 33.6001 23.5263 33.4105 23.1864 33.0729C22.8465 32.7354 22.6555 32.2775 22.6555 31.8001C22.6555 31.3227 22.8465 30.8649 23.1864 30.5273C23.5263 30.1898 23.9873 30.0001 24.468 30.0001H32.4775L37.915 31.8001H46.218V37.2001Z" fill="#0CB4C4"></path><path d="M27.1875 20.0998C28.2629 20.0998 29.3142 19.7831 30.2084 19.1897C31.1026 18.5964 31.7995 17.753 32.2111 16.7663C32.6226 15.7796 32.7303 14.6938 32.5205 13.6463C32.3107 12.5988 31.7928 11.6366 31.0324 10.8814C30.2719 10.1262 29.3031 9.61193 28.2483 9.40357C27.1935 9.19521 26.1002 9.30214 25.1067 9.71086C24.1131 10.1196 23.2639 10.8117 22.6664 11.6997C22.0689 12.5878 21.75 13.6318 21.75 14.6998C21.7514 16.1315 22.3248 17.5042 23.3442 18.5166C24.3636 19.529 25.7458 20.0984 27.1875 20.0998ZM27.1875 18.2998C26.2261 18.2998 25.3041 17.9205 24.6242 17.2454C23.9444 16.5703 23.5625 15.6546 23.5625 14.6998C23.5663 14.3956 23.6096 14.0931 23.6912 13.7998H30.6838C30.7654 14.0931 30.8087 14.3956 30.8125 14.6998C30.8125 15.6546 30.4306 16.5703 29.7508 17.2454C29.0709 17.9205 28.1489 18.2998 27.1875 18.2998ZM29.5601 11.9998H24.8149C25.4674 11.4202 26.3121 11.0998 27.1875 11.0998C28.0629 11.0998 28.9076 11.4202 29.5601 11.9998Z" fill="#0CB4C4"></path></svg>