<svg version="1.1" id="Layer_1" xmlns="http://www.w3.org/2000/svg" xmlns:xlink="http://www.w3.org/1999/xlink" x="0px" y="0px" width="67.6px" height="60px" viewBox="0 0 67.6 60" style="enable-background:new 0 0 67.6 60;" xml:space="preserve"><g><path style="fill:#0CB4C4;" d="M31.535,12.453h4.528c0.625,0,1.133-0.508,1.133-1.133V6.792c0-0.625-0.508-1.132-1.133-1.132 h-4.528c-0.625,0-1.132,0.507-1.132,1.132v4.528C30.403,11.945,30.91,12.453,31.535,12.453z M32.667,7.925h2.263v2.264h-2.263 V7.925z"></path><path style="fill:#0CB4C4;" d="M40.591,12.453h4.528c0.625,0,1.133-0.508,1.133-1.133V6.792c0-0.625-0.508-1.132-1.133-1.132 h-4.528c-0.625,0-1.132,0.507-1.132,1.132v4.528C39.459,11.945,39.966,12.453,40.591,12.453z M41.724,7.925h2.264v2.264h-2.264 V7.925z"></path><path style="fill:#0CB4C4;" d="M49.647,12.453h4.528c0.625,0,1.133-0.508,1.133-1.133V6.792c0-0.625-0.508-1.132-1.133-1.132 h-4.528c-0.625,0-1.132,0.507-1.132,1.132v4.528C48.516,11.945,49.022,12.453,49.647,12.453z M50.78,7.925h2.264v2.264H50.78V7.925 z"></path><path style="fill:#0CB4C4;" d="M31.535,20.377h4.528c0.625,0,1.133-0.507,1.133-1.132v-4.528c0-0.625-0.508-1.132-1.133-1.132 h-4.528c-0.625,0-1.132,0.507-1.132,1.132v4.528C30.403,19.87,30.91,20.377,31.535,20.377z M32.667,15.849h2.263v2.265h-2.263 V15.849z"></path><path style="fill:#0CB4C4;" d="M40.591,20.377h4.528c0.625,0,1.133-0.507,1.133-1.132v-4.528c0-0.625-0.508-1.132-1.133-1.132 h-4.528c-0.625,0-1.132,0.507-1.132,1.132v4.528C39.459,19.87,39.966,20.377,40.591,20.377z M41.724,15.849h2.264v2.265h-2.264 V15.849z"></path><path style="fill:#0CB4C4;" d="M49.647,20.377h4.528c0.625,0,1.133-0.507,1.133-1.132v-4.528c0-0.625-0.508-1.132-1.133-1.132 h-4.528c-0.625,0-1.132,0.507-1.132,1.132v4.528C48.516,19.87,49.022,20.377,49.647,20.377z M50.78,15.849h2.264v2.265H50.78 V15.849z"></path><path style="fill:#0CB4C4;" d="M31.535,28.302h4.528c0.625,0,1.133-0.507,1.133-1.132v-4.528c0-0.625-0.508-1.132-1.133-1.132 h-4.528c-0.625,0-1.132,0.507-1.132,1.132v4.528C30.403,27.795,30.91,28.302,31.535,28.302z M32.667,23.773h2.263v2.265h-2.263 V23.773z"></path><path style="fill:#0CB4C4;" d="M40.591,28.302h4.528c0.625,0,1.133-0.507,1.133-1.132v-4.528c0-0.625-0.508-1.132-1.133-1.132 h-4.528c-0.625,0-1.132,0.507-1.132,1.132v4.528C39.459,27.795,39.966,28.302,40.591,28.302z M41.724,23.773h2.264v2.265h-2.264 V23.773z"></path><path style="fill:#0CB4C4;" d="M49.647,28.302h4.528c0.625,0,1.133-0.507,1.133-1.132v-4.528c0-0.625-0.508-1.132-1.133-1.132 h-4.528c-0.625,0-1.132,0.507-1.132,1.132v4.528C48.516,27.795,49.022,28.302,49.647,28.302z M50.78,23.773h2.264v2.265H50.78 V23.773z"></path><path style="fill:#0CB4C4;" d="M31.535,36.227h4.528c0.625,0,1.133-0.507,1.133-1.132v-4.528c0-0.625-0.508-1.133-1.133-1.133 h-4.528c-0.625,0-1.132,0.508-1.132,1.133v4.528C30.403,35.72,30.91,36.227,31.535,36.227z M32.667,31.698h2.263v2.264h-2.263 V31.698z"></path><path style="fill:#0CB4C4;" d="M13.422,12.453h4.528c0.625,0,1.132-0.508,1.132-1.133V6.792c0-0.625-0.507-1.132-1.132-1.132 h-4.528c-0.625,0-1.133,0.507-1.133,1.132v4.528C12.29,11.945,12.797,12.453,13.422,12.453z M14.554,7.925h2.264v2.264h-2.264 V7.925z"></path><path style="fill:#0CB4C4;" d="M22.479,12.453h4.527c0.625,0,1.133-0.508,1.133-1.133V6.792c0-0.625-0.508-1.132-1.133-1.132 h-4.527c-0.625,0-1.133,0.507-1.133,1.132v4.528C21.346,11.945,21.854,12.453,22.479,12.453z M23.611,7.925h2.264v2.264h-2.264 V7.925z"></path><path style="fill:#0CB4C4;" d="M13.422,20.377h4.528c0.625,0,1.132-0.507,1.132-1.132v-4.528c0-0.625-0.507-1.132-1.132-1.132 h-4.528c-0.625,0-1.133,0.507-1.133,1.132v4.528C12.29,19.87,12.797,20.377,13.422,20.377z M14.554,15.849h2.264v2.265h-2.264 V15.849z"></path><path style="fill:#0CB4C4;" d="M22.479,20.377h4.527c0.625,0,1.133-0.507,1.133-1.132v-4.528c0-0.625-0.508-1.132-1.133-1.132 h-4.527c-0.625,0-1.133,0.507-1.133,1.132v4.528C21.346,19.87,21.854,20.377,22.479,20.377z M23.611,15.849h2.264v2.265h-2.264 V15.849z"></path><path style="fill:#0CB4C4;" d="M13.422,28.302h4.528c0.625,0,1.132-0.507,1.132-1.132v-4.528c0-0.625-0.507-1.132-1.132-1.132 h-4.528c-0.625,0-1.133,0.507-1.133,1.132v4.528C12.29,27.795,12.797,28.302,13.422,28.302z M14.554,23.773h2.264v2.265h-2.264 V23.773z"></path><path style="fill:#0CB4C4;" d="M22.479,28.302h4.527c0.625,0,1.133-0.507,1.133-1.132v-4.528c0-0.625-0.508-1.132-1.133-1.132 h-4.527c-0.625,0-1.133,0.507-1.133,1.132v4.528C21.346,27.795,21.854,28.302,22.479,28.302z M23.611,23.773h2.264v2.265h-2.264 V23.773z"></path><rect x="31.535" y="49.812" style="fill:#0CB4C4;" width="4.528" height="2.264"></rect><path style="fill:#0CB4C4;" d="M65.663,33.683c-0.146-1.761-1.616-3.115-3.381-3.116h-1.313V3.396C60.969,1.521,59.447,0,57.572,0 H10.026C8.151,0,6.629,1.521,6.629,3.396v27.17H5.316c-1.763,0.003-3.231,1.353-3.38,3.11l-1.89,22.641 c-0.159,1.869,1.228,3.512,3.097,3.671C3.236,59.995,3.331,60,3.425,60h60.748c1.875-0.003,3.394-1.524,3.393-3.399 c0-0.094-0.005-0.188-0.014-0.283L65.663,33.683z M7.85,44.474c0.607,0.519,1.377,0.807,2.176,0.81h47.546 c0.799-0.003,1.568-0.291,2.176-0.81l0.625,7.505c0.053,0.625-0.41,1.172-1.032,1.225c-0.03,0.003-0.062,0.005-0.094,0.005H8.351 c-0.626-0.002-1.132-0.511-1.131-1.136c0-0.032,0.002-0.063,0.005-0.096L7.85,44.474z M8.894,3.396 c0-0.625,0.507-1.133,1.132-1.133h47.546c0.625,0,1.132,0.508,1.132,1.133v38.49c0,0.625-0.507,1.132-1.132,1.132H10.026 c-0.625,0-1.132-0.507-1.132-1.132V3.396z M65.003,57.37c-0.212,0.236-0.515,0.369-0.83,0.365H3.425 c-0.625-0.003-1.13-0.51-1.128-1.135c0-0.032,0.001-0.064,0.004-0.096l1.89-22.642c0.052-0.582,0.54-1.03,1.125-1.033h1.313v3.833 c-0.305,0.46-0.486,0.99-0.527,1.541L4.969,51.789c-0.159,1.869,1.229,3.512,3.098,3.671c0.094,0.007,0.188,0.012,0.284,0.012 h50.896c1.876-0.002,3.396-1.524,3.395-3.399c0-0.094-0.004-0.188-0.014-0.283L61.496,38.22c-0.038-0.556-0.221-1.093-0.527-1.557 V32.83h1.313c0.585,0.003,1.073,0.451,1.124,1.033l1.891,22.642C65.327,56.822,65.22,57.138,65.003,57.37z"></path><path style="fill:#0CB4C4;" d="M13.422,36.227h4.528c0.625,0,1.132-0.507,1.132-1.132v-4.528c0-0.625-0.507-1.133-1.132-1.133 h-4.528c-0.625,0-1.133,0.508-1.133,1.133v4.528C12.29,35.72,12.797,36.227,13.422,36.227z M14.554,31.698h2.264v2.264h-2.264 V31.698z"></path><path style="fill:#0CB4C4;" d="M22.479,36.227h4.527c0.625,0,1.133-0.507,1.133-1.132v-4.528c0-0.625-0.508-1.133-1.133-1.133 h-4.527c-0.625,0-1.133,0.508-1.133,1.133v4.528C21.346,35.72,21.854,36.227,22.479,36.227z M23.611,31.698h2.264v2.264h-2.264 V31.698z"></path><rect x="25.875" y="38.49" style="fill:#0CB4C4;" width="15.849" height="2.265"></rect><rect x="22.479" y="38.49" style="fill:#0CB4C4;" width="2.264" height="2.265"></rect><rect x="42.855" y="38.49" style="fill:#0CB4C4;" width="2.264" height="2.265"></rect></g></svg>