<svg version="1.1" id="Layer_1" xmlns="http://www.w3.org/2000/svg" xmlns:xlink="http://www.w3.org/1999/xlink" x="0px" y="0px" width="60px" height="60px" viewBox="0 0 60 60" style="enable-background:new 0 0 60 60;" xml:space="preserve"><path style="fill:#0CB4C4;" d="M23,42h14c0,0.552,0.448,1,1,1s1-0.448,1-1h1c0.552,0,1-0.448,1-1v-9c0-0.552-0.448-1-1-1h-4v-1.586 l4.707-4.707c0.391-0.391,0.391-1.023,0-1.414s-1.023-0.391-1.414,0l-5,5C34.105,28.48,34,28.734,34,29v2h-8v-2 c0-0.266-0.105-0.52-0.293-0.707l-5-5c-0.391-0.391-1.023-0.391-1.414,0s-0.391,1.023,0,1.414L24,29.414V31h-4c-0.552,0-1,0.448-1,1 v9c0,0.552,0.448,1,1,1h1c0,0.552,0.448,1,1,1S23,42.552,23,42z M21,33h18v7H21V33z M34.192,21.758C33.06,20.625,31.552,20,29.95,20 c-1.604,0-3.109,0.625-4.243,1.758c-0.391,0.391-1.023,0.391-1.414,0s-0.391-1.023,0-1.414C25.805,18.832,27.813,18,29.95,18 c2.136,0,4.146,0.832,5.656,2.344c0.391,0.391,0.391,1.023,0,1.414c-0.195,0.195-0.45,0.292-0.707,0.292 C34.644,22.05,34.388,21.953,34.192,21.758z M31.364,24.586C30.987,24.208,30.484,24,29.95,24c-0.535,0-1.036,0.208-1.414,0.586 c-0.391,0.391-1.024,0.391-1.414,0c-0.391-0.391-0.391-1.023-0.001-1.414C27.878,22.417,28.882,22,29.95,22s2.073,0.417,2.828,1.172 c0.391,0.391,0.391,1.023,0,1.414c-0.195,0.195-0.451,0.293-0.708,0.293C31.815,24.879,31.56,24.781,31.364,24.586z M29.95,26 c0.553,0,1,0.448,1,1s-0.447,1-1,1c-0.552,0-1-0.448-1-1S29.398,26,29.95,26z M23,37v-1c0-0.552,0.448-1,1-1s1,0.448,1,1v1 c0,0.552-0.448,1-1,1S23,37.552,23,37z M35,37v-1c0-0.552,0.448-1,1-1s1,0.448,1,1v1c0,0.552-0.448,1-1,1S35,37.552,35,37z M28.105,36.829c-0.246-0.493-0.047-1.095,0.446-1.342c0.495-0.246,1.096-0.047,1.343,0.447C29.903,35.954,29.927,36,30,36 s0.097-0.046,0.105-0.065c0.247-0.494,0.848-0.695,1.343-0.447c0.493,0.247,0.692,0.849,0.446,1.342C31.534,37.552,30.808,38,30,38 S28.466,37.552,28.105,36.829z M19,14h1v1c0,0.552,0.448,1,1,1s1-0.448,1-1v-1h16v1c0,0.552,0.448,1,1,1s1-0.448,1-1v-1h1 c0.552,0,1-0.448,1-1V1c0-0.552-0.448-1-1-1H19c-0.552,0-1,0.448-1,1v12C18,13.552,18.448,14,19,14z M20,2h20v10H20V2z M59,52h-1v-6 c0-0.552-0.448-1-1-1H41c-0.552,0-1,0.448-1,1v4h-3c-0.552,0-1,0.448-1,1v8c0,0.552,0.448,1,1,1h6c0.552,0,1-0.448,1-1v-3h4v2h-2 c-0.552,0-1,0.448-1,1s0.448,1,1,1h6c0.552,0,1-0.448,1-1s-0.448-1-1-1h-2v-2h4v3c0,0.552,0.448,1,1,1h4c0.552,0,1-0.448,1-1v-6 C60,52.448,59.552,52,59,52z M42,58h-4v-6h3h1v3V58z M44,54v-3c0-0.552-0.448-1-1-1h-1v-3h14v5h-1c-0.552,0-1,0.448-1,1v1H44z M58,58h-2v-3v-1h1h1V58z M15,48h-3v-3c0-0.552-0.448-1-1-1H5c-0.552,0-1,0.448-1,1v3H1c-0.552,0-1,0.448-1,1v6c0,0.552,0.448,1,1,1 c0,0.552,0.448,1,1,1s1-0.448,1-1h1v3c0,0.552,0.448,1,1,1h6c0.552,0,1-0.448,1-1v-3h1c0,0.552,0.448,1,1,1s1-0.448,1-1 c0.552,0,1-0.448,1-1v-6C16,48.448,15.552,48,15,48z M6,46h4v2H6V46z M10,58H6v-3v-1h4v1V58z M12,54v-1c0-0.552-0.448-1-1-1H5 c-0.552,0-1,0.448-1,1v1H2v-4h3h6h3v4H12z M8,17c-4.411,0-8,3.589-8,8v1v3c0,2.206,1.794,4,4,4c1.442,0,2.758-0.78,3.464-2h1.072 c0.706,1.22,2.021,2,3.464,2c2.206,0,4-1.794,4-4v-3v-1C16,20.589,12.411,17,8,17z M13.815,25.438 c-0.02-0.011-0.039-0.021-0.058-0.03c-0.07-0.033-0.14-0.066-0.211-0.095c-0.011-0.005-0.021-0.009-0.032-0.015 c-0.062-0.024-0.123-0.048-0.186-0.07c-0.021-0.008-0.045-0.016-0.068-0.023c-0.055-0.018-0.109-0.035-0.166-0.051 c-0.021-0.005-0.043-0.013-0.063-0.018c-0.077-0.021-0.153-0.039-0.23-0.055c-0.007-0.002-0.015-0.003-0.021-0.004 c-0.072-0.015-0.143-0.026-0.215-0.037c-0.023-0.004-0.049-0.006-0.073-0.009c-0.058-0.008-0.117-0.013-0.175-0.019 c-0.024-0.001-0.049-0.002-0.072-0.005C12.164,25.003,12.082,25,12,25H4c-0.082,0-0.164,0.003-0.245,0.008 c-0.023,0.003-0.048,0.004-0.072,0.005c-0.058,0.006-0.117,0.011-0.175,0.019c-0.024,0.003-0.05,0.005-0.073,0.009 c-0.072,0.011-0.143,0.022-0.215,0.037c-0.006,0.001-0.014,0.002-0.021,0.004c-0.077,0.016-0.153,0.033-0.23,0.055 c-0.021,0.005-0.042,0.013-0.063,0.018c-0.057,0.016-0.111,0.033-0.166,0.051c-0.023,0.008-0.047,0.016-0.068,0.023 C2.608,25.25,2.547,25.273,2.485,25.3c-0.012,0.004-0.021,0.008-0.032,0.013c-0.071,0.028-0.141,0.062-0.211,0.095 c-0.019,0.01-0.038,0.02-0.058,0.03c-0.049,0.026-0.1,0.052-0.149,0.081C2.023,25.524,2.012,25.53,2,25.536V25 c0-0.98,0.708-1.798,1.641-1.969C4.852,24.083,6.382,24.656,8,24.656s3.148-0.573,4.359-1.625C13.292,23.202,14,24.02,14,25v0.536 c-0.012-0.006-0.023-0.012-0.035-0.018C13.915,25.489,13.864,25.464,13.815,25.438z M8,19c1.788,0,3.395,0.786,4.495,2.031 C12.333,21.012,12.168,21,12,21c-0.266,0-0.52,0.105-0.707,0.293C10.414,22.172,9.245,22.656,8,22.656s-2.414-0.484-3.293-1.363 C4.52,21.105,4.266,21,4,21c-0.168,0-0.333,0.012-0.495,0.031C4.605,19.786,6.212,19,8,19z M12,31c-0.847,0-1.603-0.536-1.886-1.333 C9.974,29.269,9.597,29,9.172,29H6.828c-0.425,0-0.802,0.269-0.942,0.667C5.603,30.464,4.847,31,4,31c-1.103,0-2-0.897-2-2 s0.897-2,2-2h8c1.103,0,2,0.897,2,2S13.103,31,12,31z M16,7c0,0.552-0.448,1-1,1h-0.024c-0.554,0-1-0.448-1-1s0.446-1,1-1H15 C15.552,6,16,6.448,16,7z M9.972,7c0-0.552,0.447-1,1-1h0.057c0.553,0,1,0.448,1,1s-0.447,1-1,1h-0.057 C10.419,8,9.972,7.552,9.972,7z M6,7.024V7c0-0.552,0.448-1,1-1h0.024c0.554,0,1,0.448,1,1c0,0.282-0.117,0.538-0.306,0.719 C7.538,7.907,7.282,8.024,7,8.024C6.448,8.024,6,7.578,6,7.024z M6,10.524v-0.049c0-0.553,0.448-1,1-1s1,0.447,1,1v0.049 c0,0.553-0.448,1-1,1S6,11.077,6,10.524z M6,14v-0.024c0-0.554,0.448-1,1-1s1,0.446,1,1V14c0,0.552-0.448,1-1,1S6,14.552,6,14z M44,7c0-0.552,0.448-1,1-1h0.024c0.554,0,1,0.448,1,1s-0.446,1-1,1H45C44.448,8,44,7.552,44,7z M47.972,7c0-0.552,0.447-1,1-1 h0.057c0.553,0,1,0.448,1,1s-0.447,1-1,1h-0.057C48.419,8,47.972,7.552,47.972,7z M52.281,7.719C52.093,7.538,51.976,7.282,51.976,7 c0-0.552,0.446-1,1-1H53c0.552,0,1,0.448,1,1v0.024c0,0.554-0.448,1-1,1C52.718,8.024,52.462,7.907,52.281,7.719z M54,10.524 c0,0.553-0.448,1-1,1s-1-0.447-1-1v-0.049c0-0.553,0.448-1,1-1s1,0.447,1,1V10.524z M54,13.976V14c0,0.552-0.448,1-1,1s-1-0.448-1-1 v-0.024c0-0.554,0.448-1,1-1S54,13.422,54,13.976z M7,38.55c0-0.553,0.448-1,1-1s1,0.447,1,1v0.051c0,0.552-0.448,1-1,1 s-1-0.448-1-1V38.55z M7,42.101c0-0.554,0.448-1,1-1s1,0.446,1,1v0.049c0,0.554-0.448,1-1,1s-1-0.446-1-1V42.101z M7,35.05V35 c0-0.552,0.448-1,1-1s1,0.448,1,1v0.05c0,0.552-0.448,1-1,1S7,35.602,7,35.05z M51,36.05V36c0-0.552,0.448-1,1-1s1,0.448,1,1v0.05 c0,0.552-0.448,1-1,1S51,36.602,51,36.05z M51,43.101c0-0.554,0.448-1,1-1s1,0.446,1,1v0.049c0,0.554-0.448,1-1,1s-1-0.446-1-1 V43.101z M51,39.55c0-0.553,0.448-1,1-1s1,0.447,1,1v0.051c0,0.552-0.448,1-1,1s-1-0.448-1-1V39.55z M34.25,53c0,0.552-0.448,1-1,1 H33.2c-0.552,0-1-0.448-1-1s0.448-1,1-1h0.05C33.802,52,34.25,52.448,34.25,53z M20.05,53c0,0.552-0.448,1-1,1H19 c-0.552,0-1-0.448-1-1s0.448-1,1-1h0.05C19.602,52,20.05,52.448,20.05,53z M23.601,53c0,0.552-0.448,1-1,1H22.55 c-0.553,0-1-0.448-1-1s0.447-1,1-1h0.051C23.152,52,23.601,52.448,23.601,53z M30.7,53c0,0.552-0.447,1-1,1h-0.051 c-0.552,0-1-0.448-1-1s0.448-1,1-1H29.7C30.253,52,30.7,52.448,30.7,53z M27.149,53c0,0.552-0.446,1-1,1h-0.049 c-0.554,0-1-0.448-1-1s0.446-1,1-1h0.049C26.703,52,27.149,52.448,27.149,53z M58.207,27.793C57.051,26.637,55.513,26,53.879,26H53 v-1c0-0.552,0.448-1,1-1c1.653,0,3-1.347,3-3s-1.347-3-3-3c-0.552,0-1-0.448-1-1s-0.448-1-1-1s-1,0.448-1,1c0,1.653,1.347,3,3,3 c0.552,0,1,0.448,1,1s-0.448,1-1,1c-1.653,0-3,1.347-3,3v1h-1.879c-1.634,0-3.172,0.637-4.328,1.793S43,30.487,43,32.121v0.758 C43,34.599,44.401,36,46.121,36c0.835,0,1.618-0.325,2.207-0.914c0.7-0.7,1.632-1.086,2.622-1.086h1.1 c0.99,0,1.922,0.386,2.622,1.086C55.261,35.675,56.044,36,56.879,36C58.599,36,60,34.599,60,32.879v-0.758 C60,30.487,59.363,28.949,58.207,27.793z M58,32.879C58,33.497,57.497,34,56.879,34c-0.3,0-0.582-0.117-0.793-0.328 C55.008,32.594,53.575,32,52.05,32h-1.1c-1.525,0-2.958,0.594-4.036,1.672C46.703,33.883,46.421,34,46.121,34 C45.503,34,45,33.497,45,32.879v-0.758c0-1.101,0.429-2.136,1.207-2.914S48.021,28,49.121,28h4.758c1.101,0,2.136,0.429,2.914,1.207 S58,31.021,58,32.121V32.879z"></path></svg>