<svg version="1.1" id="Layer_1" xmlns="http://www.w3.org/2000/svg" xmlns:xlink="http://www.w3.org/1999/xlink" x="0px" y="0px" width="72.8px" height="60px" viewBox="0 0 72.8 60" style="enable-background:new 0 0 72.8 60;" xml:space="preserve"><g><path style="fill:#0CB4C4;" d="M30.942,38.409c-0.274,0-0.552-0.1-0.769-0.301l-5.906-5.438c-0.238-0.219-0.371-0.529-0.367-0.852 c0.006-0.324,0.148-0.631,0.391-0.843l6.818-5.925c0.474-0.412,1.192-0.361,1.604,0.111c0.412,0.475,0.361,1.192-0.112,1.604 l-5.859,5.091l4.97,4.578c0.462,0.425,0.493,1.145,0.067,1.605C31.553,38.284,31.248,38.409,30.942,38.409z"></path><path style="fill:#0CB4C4;" d="M40.945,38.409c-0.333,0-0.664-0.146-0.887-0.428c-0.393-0.489-0.312-1.206,0.179-1.597l5.754-4.593 l-5.737-5.029c-0.472-0.412-0.521-1.132-0.106-1.603c0.414-0.474,1.13-0.521,1.604-0.106l6.762,5.926 c0.252,0.223,0.394,0.545,0.386,0.881c-0.007,0.337-0.164,0.652-0.427,0.862l-6.818,5.438 C41.446,38.327,41.194,38.409,40.945,38.409z"></path><path style="fill:#0CB4C4;" d="M35.264,38.409c-0.038,0-0.074-0.002-0.113-0.006c-0.624-0.063-1.08-0.618-1.018-1.242l1.137-11.364 c0.062-0.624,0.612-1.08,1.242-1.019c0.624,0.063,1.08,0.619,1.018,1.243l-1.136,11.364C36.334,37.972,35.842,38.409,35.264,38.409 z"></path><path style="fill:#0CB4C4;" d="M48.429,48.636h4.064l4.762-5.25l6.358,5.25h3.568l-10.153-8.385l-2.225,2.455l-3.273-3.273 c1.221-2.346,1.914-5.013,1.914-7.842c0-9.413-7.632-17.046-17.045-17.046s-17.045,7.633-17.045,17.046S26.987,48.636,36.4,48.636 c3.424,0,6.608-1.012,9.279-2.75L48.429,48.636z M53.275,44.392l-2.795,3.082l-2.965-2.965c1.054-0.909,1.994-1.942,2.799-3.078 L53.275,44.392z M21.627,31.591c0-8.146,6.625-14.772,14.772-14.772c8.146,0,14.772,6.627,14.772,14.772 c0,8.147-6.627,14.773-14.772,14.773C28.252,46.364,21.627,39.738,21.627,31.591z"></path><path style="fill:#0CB4C4;" d="M68.218,10H4.582c-2.511,0-4.546,2.03-4.546,4.535v34.111c0,2.505,2.035,4.535,4.546,4.535h25v4.546 h-6.817c-0.628,0-1.137,0.509-1.137,1.137c0,0.627,0.509,1.136,1.137,1.136h27.271c0.628,0,1.137-0.509,1.137-1.136 c0-0.628-0.509-1.137-1.137-1.137h-6.817v-4.546h25c2.51,0,4.546-2.03,4.546-4.535V14.535C72.764,12.03,70.728,10,68.218,10z M40.945,57.728h-9.09v-4.546h9.09V57.728z M70.491,48.646c0,1.248-1.02,2.263-2.272,2.263H4.582c-1.253,0-2.272-1.015-2.272-2.263 V14.535c0-1.247,1.02-2.263,2.272-2.263h63.637c1.253,0,2.272,1.016,2.272,2.263V48.646z"></path></g></svg>