<svg version="1.1" id="Layer_1" xmlns="http://www.w3.org/2000/svg" xmlns:xlink="http://www.w3.org/1999/xlink" x="0px" y="0px" width="63.7px" height="60px" viewBox="0 0 63.7 60" style="enable-background:new 0 0 63.7 60;" xml:space="preserve"><g><g><path style="fill:#0CB4C4;" d="M59.35,0h-55C1.956,0,0.007,1.948,0.007,4.341v46.318C0.007,53.052,1.956,55,4.351,55h55 c2.394,0,4.343-1.948,4.343-4.341V4.341C63.693,1.948,61.744,0,59.35,0z M60.798,50.659c0,0.799-0.648,1.446-1.448,1.446h-55 c-0.801,0-1.449-0.647-1.449-1.446V11.578h57.896V50.659z M60.798,8.685H2.902V4.341c0-0.798,0.648-1.446,1.449-1.446h55 c0.8,0,1.448,0.648,1.448,1.446V8.685z"></path><circle style="fill:#0CB4C4;" cx="7.245" cy="5.788" r="1.447"></circle><circle style="fill:#0CB4C4;" cx="13.034" cy="5.788" r="1.447"></circle><circle style="fill:#0CB4C4;" cx="18.823" cy="5.788" r="1.447"></circle><path style="fill:#0CB4C4;" d="M11.585,28.947h8.687c0.799,0,1.446-0.646,1.446-1.447v-8.684c0-0.801-0.646-1.449-1.446-1.449 h-8.687c-0.799,0-1.446,0.648-1.446,1.449V27.5C10.14,28.301,10.786,28.947,11.585,28.947z M13.034,20.263h5.789v5.79h-5.789 V20.263z"></path><path style="fill:#0CB4C4;" d="M26.061,20.263h15.922c0.8,0,1.445-0.646,1.445-1.446c0-0.801-0.646-1.449-1.445-1.449H26.061 c-0.801,0-1.449,0.648-1.449,1.449C24.612,19.616,25.26,20.263,26.061,20.263z"></path><path style="fill:#0CB4C4;" d="M26.061,24.605h11.578c0.801,0,1.448-0.647,1.448-1.449c0-0.799-0.647-1.445-1.448-1.445H26.061 c-0.801,0-1.449,0.646-1.449,1.445C24.612,23.958,25.26,24.605,26.061,24.605z"></path><path style="fill:#0CB4C4;" d="M46.325,20.263h5.79c0.799,0,1.446-0.646,1.446-1.446c0-0.801-0.647-1.449-1.446-1.449h-5.79 c-0.802,0-1.448,0.648-1.448,1.449C44.876,19.616,45.523,20.263,46.325,20.263z"></path><path style="fill:#0CB4C4;" d="M26.061,28.947h8.684c0.801,0,1.449-0.646,1.449-1.447s-0.648-1.447-1.449-1.447h-8.684 c-0.801,0-1.449,0.646-1.449,1.447S25.26,28.947,26.061,28.947z"></path><path style="fill:#0CB4C4;" d="M11.585,46.315h8.687c0.799,0,1.446-0.646,1.446-1.447v-8.684c0-0.8-0.646-1.447-1.446-1.447 h-8.687c-0.799,0-1.446,0.647-1.446,1.447v8.684C10.14,45.67,10.786,46.315,11.585,46.315z M13.034,37.633h5.789v5.789h-5.789 V37.633z"></path><path style="fill:#0CB4C4;" d="M47.772,23.156c0-0.799-0.648-1.445-1.447-1.445h-4.342c-0.802,0-1.449,0.646-1.449,1.445 c0,0.802,0.647,1.449,1.449,1.449h4.342C47.124,24.605,47.772,23.958,47.772,23.156z"></path><path style="fill:#0CB4C4;" d="M26.061,37.633h15.922c0.8,0,1.445-0.648,1.445-1.448s-0.646-1.447-1.445-1.447H26.061 c-0.801,0-1.449,0.647-1.449,1.447S25.26,37.633,26.061,37.633z"></path><path style="fill:#0CB4C4;" d="M26.061,41.975h11.578c0.801,0,1.448-0.646,1.448-1.448c0-0.8-0.647-1.448-1.448-1.448H26.061 c-0.801,0-1.449,0.648-1.449,1.448C24.612,41.328,25.26,41.975,26.061,41.975z"></path><path style="fill:#0CB4C4;" d="M52.115,34.737h-5.79c-0.802,0-1.448,0.647-1.448,1.447s0.646,1.448,1.448,1.448h5.79 c0.799,0,1.446-0.648,1.446-1.448S52.914,34.737,52.115,34.737z"></path><path style="fill:#0CB4C4;" d="M46.325,39.078h-4.342c-0.802,0-1.449,0.648-1.449,1.448c0,0.802,0.647,1.448,1.449,1.448h4.342 c0.799,0,1.447-0.646,1.447-1.448C47.772,39.727,47.124,39.078,46.325,39.078z"></path><path style="fill:#0CB4C4;" d="M26.061,46.315h8.684c0.801,0,1.449-0.646,1.449-1.447c0-0.799-0.648-1.446-1.449-1.446h-8.684 c-0.801,0-1.449,0.647-1.449,1.446C24.612,45.67,25.26,46.315,26.061,46.315z"></path></g></g></svg>