<svg version="1.1" id="Layer_1" xmlns="http://www.w3.org/2000/svg" xmlns:xlink="http://www.w3.org/1999/xlink" x="0px" y="0px" width="69.5px" height="60px" viewBox="0 0 69.5 60" style="enable-background:new 0 0 69.5 60;" xml:space="preserve"><g><g><path style="fill:#0CB4C4;" d="M58.259,50c-0.38,0-0.763-0.146-1.053-0.438c-0.582-0.581-0.582-1.525,0-2.106 C63.21,41.45,66.517,33.478,66.517,25c0-8.479-3.307-16.454-9.311-22.456c-0.582-0.582-0.582-1.524,0-2.108 c0.581-0.581,1.525-0.581,2.108,0C65.878,7.003,69.495,15.727,69.495,25c0,9.272-3.617,17.997-10.182,24.563 C59.022,49.854,58.64,50,58.259,50z"></path></g><g><path style="fill:#0CB4C4;" d="M11.241,50c-0.382,0-0.763-0.146-1.055-0.438C3.62,42.997,0.005,34.272,0.005,25 c0-9.273,3.615-17.997,10.182-24.563c0.583-0.58,1.523-0.58,2.107,0c0.582,0.583,0.582,1.525,0,2.107 C6.291,8.546,2.983,16.521,2.983,25c0,8.478,3.308,16.45,9.311,22.456c0.582,0.581,0.582,1.523,0,2.106 C12.003,49.854,11.622,50,11.241,50z"></path></g><g><path style="fill:#0CB4C4;" d="M17.119,44.123c-0.384,0-0.764-0.147-1.055-0.438C11.069,38.689,8.318,32.055,8.318,25 c0-7.056,2.751-13.691,7.746-18.687c0.582-0.582,1.524-0.582,2.106,0c0.582,0.583,0.582,1.525,0,2.107 C13.74,12.854,11.3,18.741,11.3,25c0,6.257,2.44,12.147,6.871,16.576c0.582,0.584,0.582,1.528,0,2.109 C17.881,43.976,17.5,44.123,17.119,44.123z"></path></g><g><path style="fill:#0CB4C4;" d="M52.381,44.123c-0.381,0-0.762-0.147-1.052-0.438c-0.582-0.581-0.582-1.525,0-2.109 C55.76,37.147,58.201,31.257,58.201,25s-2.439-12.146-6.872-16.579c-0.582-0.582-0.582-1.524,0-2.107 c0.583-0.582,1.525-0.582,2.107,0c4.994,4.995,7.745,11.631,7.745,18.687c0,7.055-2.751,13.689-7.745,18.686 C53.144,43.976,52.763,44.123,52.381,44.123z"></path></g><g><path style="fill:#0CB4C4;" d="M46.504,38.244c-0.382,0-0.763-0.146-1.052-0.437c-0.582-0.58-0.582-1.524,0-2.109 c2.858-2.858,4.437-6.659,4.437-10.698s-1.578-7.84-4.438-10.7c-0.582-0.582-0.582-1.526,0-2.109c0.583-0.58,1.525-0.58,2.107,0 c3.425,3.425,5.31,7.976,5.31,12.81c0,4.836-1.885,9.383-5.311,12.808C47.267,38.099,46.885,38.244,46.504,38.244z"></path></g><g><path style="fill:#0CB4C4;" d="M22.994,38.244c-0.382,0-0.762-0.146-1.053-0.437c-7.062-7.062-7.062-18.554,0-25.617 c0.582-0.58,1.526-0.58,2.108,0c0.58,0.583,0.58,1.526,0,2.109c-5.902,5.9-5.902,15.5,0,21.402c0.58,0.581,0.58,1.525,0,2.107 C23.757,38.099,23.377,38.244,22.994,38.244z"></path></g><polygon style="fill:#0CB4C4;" points="41.208,25 29.985,30.487 29.985,25 29.985,19.513 "></polygon><path style="fill:#0CB4C4;" d="M43.422,16.328c-4.792-4.79-12.549-4.79-17.344,0c-4.79,4.793-4.79,12.551,0,17.344 c4.793,4.791,12.55,4.791,17.344,0C48.213,28.879,48.213,21.119,43.422,16.328z M41.329,31.579c-3.635,3.64-9.523,3.64-13.162,0 c-3.636-3.635-3.636-9.523,0-13.16c3.639-3.638,9.527-3.638,13.162,0C44.969,22.056,44.969,27.944,41.329,31.579z"></path></g></svg>