<svg width="62" height="60" viewBox="0 0 62 60" fill="none" xmlns="http://www.w3.org/2000/svg"><path d="M59.7447 44.1702L55.7872 45.0638C58.4681 40.4681 59.8723 35.3617 59.8723 30C59.8723 13.5319 46.4681 0 29.8723 0C13.4043 0 0 13.5319 0 30C0 46.4681 13.4043 60 30 60C30.766 60 31.2766 59.4894 31.2766 58.7234C31.2766 57.9574 30.766 57.4468 30 57.4468C14.8085 57.4468 2.55319 45.0638 2.55319 30C2.55319 14.9362 14.8085 2.55319 30 2.55319C45.0638 2.55319 57.4468 14.8085 57.4468 30C57.4468 34.9787 56.1702 39.7021 53.617 43.9149L52.5957 39.7021C52.4681 39.0638 51.7021 38.5532 51.0638 38.8085C50.4255 38.9362 49.9149 39.7021 50.1702 40.3404L51.8298 47.3617C51.9574 47.8723 52.3404 48.2553 52.8511 48.2553C52.9787 48.2553 52.9787 48.2553 53.1064 48.2553C53.234 48.2553 53.234 48.2553 53.3617 48.2553C53.3617 48.2553 53.3617 48.2553 53.4894 48.2553L60.5106 46.5957C61.1489 46.4681 61.6596 45.7021 61.4043 45.0638C61.0213 44.4255 60.383 44.0426 59.7447 44.1702Z" fill="#0CB4C4"></path><path d="M30 11.8723C20.1702 11.8723 12.1277 19.9149 12.1277 29.7447C12.1277 39.5745 20.1702 47.617 30 47.617C39.8298 47.617 47.8724 39.5745 47.8724 29.7447C47.8724 19.9149 39.8298 11.8723 30 11.8723ZM43.0213 31.0213H45.1915C44.5532 38.4255 38.6809 44.2979 31.2766 44.9362V42.766C31.2766 42 30.766 41.4894 30 41.4894C29.2341 41.4894 28.7234 42 28.7234 42.766V44.9362C21.3192 44.2979 15.4468 38.4255 14.8085 31.0213H16.9787C17.7447 31.0213 18.2553 30.5106 18.2553 29.7447C18.2553 28.9787 17.7447 28.4681 16.9787 28.4681H14.8085C15.3192 21.0638 21.3192 15.1915 28.7234 14.5532V16.7234C28.7234 17.4894 29.2341 18 30 18C30.766 18 31.2766 17.4894 31.2766 16.7234V14.5532C38.6809 15.1915 44.5532 21.0638 45.1915 28.4681H43.0213C42.2553 28.4681 41.7447 28.9787 41.7447 29.7447C41.7447 30.5106 42.2553 31.0213 43.0213 31.0213Z" fill="#0CB4C4"></path><path d="M30 22.5957C29.234 22.5957 28.7234 23.1064 28.7234 23.8723V29.234L24.6383 34.3404C24.2553 34.8511 24.2553 35.7447 24.7659 36.1276C25.2766 36.5106 26.1702 36.5106 26.5532 36L31.0213 30.6383C31.1489 30.383 31.2766 30.1276 31.2766 29.8723V24C31.2766 23.234 30.6383 22.5957 30 22.5957Z" fill="#0CB4C4"></path></svg>