<svg width="66" height="60" viewBox="0 0 66 60" fill="none" xmlns="http://www.w3.org/2000/svg"><path d="M64.8781 46.3293C64.5422 45.1519 62.8541 41.472 55.2311 43.5451L41.7558 47.2108C41.0698 47.3969 40.3894 47.4754 39.7069 47.4462C40.0485 47.1352 40.3516 46.7587 40.6062 46.3172C41.7922 44.2626 41.0954 41.5996 39.0201 40.2539C38.9802 40.2282 38.9388 40.2054 38.8968 40.1847C35.7068 38.6821 32.7193 36.6003 30.3195 34.9273C29.4865 34.3467 28.6992 33.7976 28.0224 33.359C25.3031 31.5946 22.29 32.0703 19.7019 32.7678L9.66484 35.4735L9.32894 34.177C8.93884 32.6679 7.39341 31.7594 5.88507 32.1488L2.11813 33.1244C0.609785 33.5152 -0.300213 35.0599 0.0906009 36.5682L5.15336 56.1339C5.48284 57.4062 6.63246 58.252 7.88977 58.252C8.12369 58.252 8.36046 58.2228 8.59723 58.1615L12.3635 57.1866C13.0923 56.9976 13.7049 56.5354 14.0886 55.8836C14.4723 55.2318 14.58 54.4715 14.391 53.7427L13.7627 51.3136L16.0748 50.6939L29.9401 58.6992C31.4406 59.5657 32.9953 60 34.5871 60C35.4757 60 36.3757 59.8645 37.2843 59.5935L61.9284 52.2365C64.1635 51.5697 65.5698 48.7541 64.8781 46.3293ZM11.8379 55.1555L8.07163 56.1304C7.68367 56.2309 7.28572 55.997 7.18517 55.6083L2.12169 36.0426C2.02256 35.6611 2.26219 35.2546 2.64373 35.1562L6.40996 34.1813C6.46844 34.1663 6.52763 34.1592 6.58539 34.1592C6.90846 34.1592 7.21227 34.3803 7.29642 34.7033L12.3592 54.269C12.4583 54.6513 12.2194 55.0571 11.8379 55.1555ZM61.3272 50.2261L36.6831 57.5831C34.7226 58.1679 32.807 57.9325 30.9892 56.8828L16.7473 48.66C16.5062 48.5209 16.2195 48.4831 15.9514 48.5551L13.2371 49.2826L10.1897 37.5061L20.2475 34.7946C22.4968 34.1884 24.8574 33.8076 26.8799 35.1198C27.5275 35.5399 28.2649 36.0541 29.1193 36.6488C31.5668 38.3547 34.6092 40.4757 37.9326 42.0504C39.0472 42.8084 39.4167 44.1806 38.7884 45.2681C37.9725 46.6809 36.646 46.5276 35.6626 46.1382C33.936 45.2831 29.351 42.546 28.5694 42.0946C28.0673 41.805 27.4255 41.9769 27.136 42.479C26.8464 42.981 27.0183 43.6229 27.5204 43.9124C28.2884 44.356 32.9518 47.1395 34.7547 48.0309C34.7618 48.0345 34.7697 48.0381 34.7768 48.0416C35.2232 48.262 35.6847 48.4795 36.1639 48.6942C38.2342 49.6199 40.2439 49.7967 42.3064 49.2362L55.7824 45.5705C59.6741 44.5115 62.3207 45.0107 62.8605 46.9049C63.2328 48.2121 62.459 49.888 61.3272 50.2261ZM6.38428 37.347C6.30655 38.0103 5.70606 38.4845 5.04282 38.4068C4.37958 38.329 3.90532 37.7286 3.98306 37.0653C4.06079 36.4021 4.66128 35.9278 5.32452 36.0056C5.98705 36.0833 6.46202 36.6838 6.38428 37.347ZM25.4265 23.0345L27.9868 24.0201C28.3605 25.3872 28.9039 26.698 29.6078 27.9297L28.4938 30.4386C28.3177 30.8351 28.404 31.2994 28.7106 31.6068L32.2522 35.1476C32.5589 35.4543 33.0231 35.5406 33.4204 35.3644L35.93 34.2497C37.1616 34.9536 38.4724 35.4971 39.8381 35.8701L40.8237 38.431C40.9799 38.8361 41.3686 39.1036 41.8029 39.1036H46.8108C47.2451 39.1036 47.6337 38.8361 47.7899 38.431L48.7755 35.8708C50.1419 35.4971 51.4527 34.9536 52.6851 34.2497L55.194 35.3637C55.5905 35.5399 56.0548 35.4536 56.3622 35.1469L59.903 31.6053C60.2097 31.2987 60.296 30.8344 60.1198 30.4379L59.0052 27.9283C59.7091 26.6959 60.2525 25.3858 60.6255 24.0201L63.1864 23.0345C63.5915 22.8783 63.859 22.4897 63.859 22.0553V17.0475C63.859 16.6132 63.5915 16.2245 63.1864 16.0683L60.6262 15.0834C60.2525 13.717 59.7091 12.4062 59.0052 11.1739L60.1191 8.66567C60.2953 8.26915 60.209 7.80488 59.9023 7.4975L56.3607 3.95593C56.0541 3.64927 55.5898 3.56297 55.1926 3.73912L52.683 4.8538C51.4506 4.14991 50.1405 3.60648 48.7748 3.23349L47.7892 0.672514C47.633 0.267437 47.2444 0 46.81 0H41.8022C41.3679 0 40.9792 0.267437 40.823 0.672514L39.8374 3.23349C38.4717 3.60648 37.1609 4.14991 35.9293 4.8538L33.4197 3.73912C33.0231 3.56297 32.5589 3.64927 32.2515 3.95593L28.7106 7.4975C28.404 7.80416 28.3177 8.26843 28.4938 8.66495L29.6085 11.1746C28.9046 12.4069 28.3612 13.717 27.9882 15.0834L25.4279 16.069C25.0228 16.2252 24.7554 16.6139 24.7554 17.0482V22.0561C24.754 22.4889 25.0207 22.8783 25.4265 23.0345ZM26.8521 17.7678L29.2455 16.8464C29.5686 16.7223 29.8096 16.4463 29.8895 16.1104C30.2525 14.5849 30.8544 13.1322 31.6795 11.7936C31.8607 11.4991 31.8856 11.1339 31.7451 10.8173L30.7032 8.47097L33.2257 5.94851L35.572 6.99044C35.8886 7.13094 36.2531 7.10669 36.5483 6.92483C37.8876 6.10041 39.3396 5.49779 40.8651 5.13479C41.2017 5.05491 41.477 4.81386 41.6011 4.4908L42.5225 2.0967H46.0897L47.0111 4.4908C47.1352 4.81386 47.4112 5.0542 47.7471 5.13479C49.2726 5.49779 50.7246 6.0997 52.0639 6.92483C52.3585 7.10598 52.7236 7.13022 53.0402 6.99044L55.3866 5.94851L57.909 8.47097L56.8664 10.8159C56.7259 11.1318 56.7501 11.4969 56.932 11.7922C57.7564 13.1315 58.359 14.5842 58.722 16.1097C58.8019 16.4463 59.043 16.7216 59.366 16.8464L61.7594 17.7678V21.335L59.3653 22.2565C59.0422 22.3805 58.8012 22.6565 58.7213 22.9932C58.3583 24.5179 57.7564 25.9706 56.932 27.3099C56.7508 27.6045 56.7259 27.9696 56.8664 28.2863L57.9083 30.6326L55.3858 33.155L53.0402 32.1131C52.7243 31.9726 52.3585 31.9969 52.0639 32.1787C50.7246 33.0031 49.2726 33.6058 47.7464 33.9688C47.4098 34.0486 47.1345 34.2897 47.0104 34.6127L46.089 37.0054H42.5218L41.6004 34.6113C41.4763 34.2883 41.201 34.0479 40.8644 33.9673C39.3389 33.6043 37.8869 33.0024 36.5476 32.1773C36.2531 31.9961 35.8879 31.9712 35.5713 32.1117L33.225 33.1536L30.7025 30.6311L31.7444 28.2856C31.8849 27.9696 31.8607 27.6045 31.6788 27.3092C30.8544 25.9706 30.2525 24.5179 29.8888 22.9917C29.8089 22.6551 29.5678 22.3798 29.2448 22.2557L26.8514 21.3343L26.8521 17.7678ZM44.3054 29.4537C49.7654 29.4537 54.2077 25.0114 54.2077 19.5514C54.2077 14.0914 49.7654 9.64912 44.3054 9.64912C38.8454 9.64912 34.4031 14.0914 34.4031 19.5514C34.4031 25.0114 38.8454 29.4537 44.3054 29.4537ZM44.3054 11.7473C48.6086 11.7473 52.1096 15.2482 52.1096 19.5514C52.1096 23.8547 48.6086 27.3556 44.3054 27.3556C40.0022 27.3556 36.5012 23.8547 36.5012 19.5514C36.5012 15.2482 40.0029 11.7473 44.3054 11.7473ZM43.1458 24.5543C43.7769 24.5543 44.3703 24.3089 44.816 23.8625C45.9214 22.7571 47.0354 21.6267 48.113 20.5342C48.7591 19.8788 49.4045 19.2241 50.0528 18.5701C50.9678 17.6466 50.9628 16.1503 50.0414 15.2346C49.5957 14.7918 49.0052 14.5479 48.3769 14.5479C48.374 14.5479 48.3704 14.5479 48.3676 14.5479C47.7372 14.55 47.1452 14.7982 46.7016 15.246L43.1387 18.8447L41.9063 17.6123C41.4599 17.1659 40.8672 16.9206 40.2361 16.9206C39.6049 16.9206 39.0116 17.1659 38.5658 17.6123C38.1201 18.0588 37.8741 18.6514 37.8741 19.2826C37.8741 19.9137 38.1201 20.5071 38.5658 20.9528L41.4756 23.8625C41.9213 24.3082 42.5146 24.5543 43.1458 24.5543ZM39.9722 19.2826C39.9722 19.2326 39.9858 19.1599 40.0492 19.0957C40.1006 19.0444 40.1683 19.0187 40.2361 19.0187C40.3038 19.0187 40.3716 19.0444 40.4229 19.0957L42.4013 21.074C42.5981 21.2709 42.8648 21.3814 43.1429 21.3814C43.1437 21.3814 43.1444 21.3814 43.1458 21.3814C43.4246 21.3807 43.6921 21.2687 43.8889 21.0705L48.1936 16.7223C48.2556 16.6595 48.3269 16.646 48.3761 16.646C48.3761 16.646 48.3769 16.646 48.3776 16.646C48.4275 16.646 48.4995 16.6595 48.5623 16.7223C48.6643 16.8236 48.6643 16.9897 48.5623 17.0931C47.9133 17.7478 47.2665 18.4046 46.6189 19.0608C45.5442 20.1512 44.4323 21.2787 43.3319 22.3784C43.2677 22.4426 43.195 22.4554 43.1451 22.4554C43.0952 22.4554 43.0224 22.4419 42.9582 22.3784L40.0485 19.4687C39.9858 19.4052 39.9722 19.3325 39.9722 19.2826Z" fill="#0CB4C4"></path></svg>