<svg width="47" height="60" viewBox="0 0 47 60" fill="none" xmlns="http://www.w3.org/2000/svg"><path d="M12.2871 34.5254C9.60012 34.5254 7.41386 36.7116 7.41386 39.3986C7.41386 42.0857 9.60012 44.2719 12.2871 44.2719C14.9742 44.2719 17.1604 42.0857 17.1604 39.3986C17.1604 36.7116 14.9742 34.5254 12.2871 34.5254ZM12.2871 42.9676C10.3194 42.9676 8.71816 41.3663 8.71816 39.3986C8.71816 37.4309 10.3194 35.8297 12.2871 35.8297C14.2548 35.8297 15.8561 37.4309 15.8561 39.3986C15.8561 41.3663 14.2548 42.9676 12.2871 42.9676ZM23.4717 41.5213C22.7138 41.0854 22.2426 40.2722 22.2426 39.3993C22.2426 38.5263 22.7132 37.7131 23.4717 37.2773C24.427 36.7283 24.8236 35.5867 24.4154 34.5633C23.9493 33.3965 23.3168 32.3037 22.5351 31.3138C21.8537 30.4511 20.6683 30.2248 19.7163 30.7757C18.9603 31.2135 18.0212 31.2141 17.2652 30.7783C16.5092 30.3418 16.0406 29.528 16.0419 28.6538C16.0438 27.5519 15.2532 26.6378 14.1616 26.4804C12.9178 26.301 11.6565 26.3016 10.4127 26.4804C9.32178 26.6378 8.5311 27.5513 8.53238 28.6538C8.53367 29.528 8.06505 30.3418 7.30908 30.7783C6.55311 31.2141 5.61458 31.2135 4.85862 30.7757C3.90723 30.2248 2.72121 30.4511 2.03982 31.3138C1.25814 32.3031 0.624951 33.3965 0.159543 34.5639C-0.248653 35.5873 0.147972 36.7283 1.10322 37.2773C1.86111 37.7131 2.3323 38.5263 2.3323 39.3993C2.3323 40.2722 1.86111 41.0854 1.10322 41.5213C0.147972 42.0702 -0.248653 43.2119 0.159543 44.2353C0.624951 45.402 1.25749 46.4955 2.03982 47.4848C2.72121 48.3475 3.90659 48.5737 4.85862 48.0228C5.61458 47.5851 6.55376 47.5844 7.30908 48.0203C8.06505 48.4567 8.53367 49.2706 8.53238 50.1448C8.53045 51.2473 9.32113 52.1614 10.4127 52.3189C11.0343 52.4082 11.6604 52.4532 12.2865 52.4532C12.9126 52.4532 13.5394 52.4082 14.1616 52.3189C15.2525 52.1614 16.0432 51.2479 16.0419 50.1454C16.0406 49.2712 16.5092 48.4574 17.2652 48.0209C18.0205 47.5851 18.9597 47.5857 19.7163 48.0235C20.6677 48.5744 21.8537 48.3481 22.5351 47.4854C23.3174 46.4955 23.95 45.402 24.4154 44.2359C24.8236 43.2113 24.427 42.0702 23.4717 41.5213ZM23.2037 43.7512C22.7845 44.801 22.2156 45.7851 21.5111 46.6761C21.2353 47.0258 20.7545 47.1171 20.3688 46.894C19.2098 46.2235 17.7705 46.2223 16.6121 46.8908C15.4531 47.56 14.7344 48.8077 14.7363 50.1467C14.737 50.5935 14.4168 50.9638 13.9746 51.0274C12.8541 51.1888 11.7176 51.1888 10.5978 51.0274C10.1555 50.9638 9.8354 50.5928 9.83604 50.1467C9.83797 48.8077 9.11928 47.56 7.96027 46.8908C7.38172 46.5572 6.73375 46.39 6.08513 46.39C5.43459 46.39 4.78405 46.5578 4.20358 46.894C3.81852 47.1171 3.33769 47.0252 3.06127 46.6761C2.35737 45.7851 1.78783 44.801 1.3687 43.7512C1.2035 43.3366 1.3642 42.8744 1.75119 42.6513C2.91278 41.9835 3.63403 40.737 3.63403 39.3986C3.63403 38.0603 2.91213 36.8138 1.75119 36.1459C1.3642 35.9235 1.2035 35.4613 1.3687 35.0467C1.78783 33.9963 2.35737 33.0128 3.06127 32.1218C3.33769 31.7721 3.81724 31.6808 4.20358 31.9039C5.36195 32.575 6.80189 32.5757 7.96027 31.9071C9.11928 31.2379 9.83797 29.9902 9.83604 28.6512C9.8354 28.2044 10.1555 27.8342 10.5978 27.7712C11.7182 27.6098 12.8541 27.6098 13.9739 27.7712C14.4162 27.8348 14.7363 28.2051 14.7357 28.6518C14.7337 29.9915 15.4524 31.2392 16.6115 31.9078C17.7698 32.5763 19.2091 32.5757 20.3681 31.9045C20.7538 31.6815 21.234 31.7734 21.5104 32.1225C22.2143 33.0134 22.7839 33.9976 23.203 35.0473C23.3682 35.462 23.2075 35.9241 22.8205 36.1466C21.6589 36.8145 20.9377 38.0609 20.9377 39.3993C20.9377 40.7383 21.6596 41.9847 22.8205 42.652C23.2082 42.8744 23.3695 43.3366 23.2037 43.7512ZM44.5873 29.8012C43.8969 29.6174 43.3531 29.0755 43.1686 28.3863C42.9841 27.6972 43.1834 26.956 43.69 26.4514C44.3906 25.7527 44.4697 24.6695 43.8777 23.8769C43.229 23.0084 42.4577 22.239 41.5847 21.5884C40.7927 20.9983 39.7115 21.0774 39.0127 21.7768C38.5088 22.282 37.7669 22.4813 37.0791 22.2968C36.3906 22.1123 35.8481 21.5691 35.6642 20.8787C35.409 19.9216 34.5117 19.3128 33.5275 19.4298C32.4514 19.5584 31.4004 19.8399 30.4033 20.2668C29.4931 20.657 29.0193 21.6341 29.2777 22.5906C29.4635 23.2804 29.2655 24.0215 28.7616 24.5262C28.2576 25.0301 27.5164 25.2281 26.8266 25.043C25.872 24.7859 24.8962 25.2583 24.5054 26.1654C24.0747 27.165 23.7918 28.2173 23.6639 29.2934C23.5469 30.2763 24.157 31.1749 25.1141 31.4295C25.8045 31.6133 26.3484 32.1552 26.5329 32.8444C26.7174 33.5335 26.5181 34.2746 26.0115 34.7793C25.3102 35.478 25.2311 36.5605 25.8238 37.3538C26.4731 38.2223 27.2438 38.9924 28.1168 39.6423C28.9094 40.2324 29.9906 40.1533 30.6881 39.4539C31.1921 38.9487 31.9333 38.7487 32.6217 38.9339C33.3102 39.1184 33.8527 39.6616 34.0366 40.3519C34.2706 41.2301 35.0465 41.8157 35.9323 41.8157C36.012 41.8157 36.0924 41.8112 36.1734 41.8015C37.2495 41.673 38.3005 41.3914 39.2969 40.9646C40.2071 40.5744 40.6809 39.5973 40.4231 38.6407C40.2373 37.951 40.4353 37.2098 40.9393 36.7052C41.4433 36.2012 42.1851 36.0039 42.8742 36.189C43.8275 36.4461 44.8046 35.9736 45.1955 35.066C45.6262 34.067 45.909 33.0147 46.0369 31.938C46.1539 30.9544 45.5439 30.0558 44.5873 29.8012ZM44.7423 31.7837C44.6291 32.7351 44.3791 33.6659 43.9985 34.5491C43.8661 34.8558 43.5363 35.0145 43.2143 34.9284C42.0758 34.6224 40.8512 34.949 40.0181 35.7821C39.185 36.6152 38.8578 37.8404 39.1644 38.9789C39.2519 39.3022 39.0912 39.6326 38.7839 39.7644C37.9019 40.1424 36.9718 40.3918 36.0197 40.5049C35.6867 40.5461 35.3833 40.3385 35.2972 40.0151C34.9938 38.8754 34.0977 37.978 32.9599 37.6733C32.6789 37.5981 32.3935 37.5614 32.1094 37.5614C31.2422 37.5614 30.3924 37.9034 29.765 38.5321C29.5291 38.768 29.164 38.795 28.8959 38.5957C28.1245 38.0211 27.4425 37.3403 26.8691 36.5728C26.6685 36.3047 26.6955 35.9389 26.9327 35.7024C27.7684 34.8693 28.0982 33.6447 27.7935 32.5062C27.4881 31.3678 26.5907 30.4717 25.4503 30.1683C25.127 30.0821 24.9207 29.7787 24.9605 29.4464C25.073 28.495 25.3237 27.5642 25.7043 26.6809C25.836 26.3743 26.1658 26.2142 26.4885 26.3016C27.627 26.6083 28.8515 26.2811 29.6847 25.448C30.5178 24.6149 30.845 23.3896 30.5377 22.2505C30.4503 21.9272 30.611 21.5974 30.9182 21.4656C31.8002 21.0877 32.7304 20.8382 33.6824 20.7251C34.0173 20.6859 34.3188 20.8916 34.4049 21.2149C34.7084 22.3547 35.6045 23.2521 36.7423 23.5568C37.8807 23.8621 39.104 23.533 39.9371 22.698C40.173 22.4614 40.5388 22.435 40.8062 22.6343C41.5783 23.209 42.2603 23.8898 42.8331 24.6573C43.0336 24.9254 43.0066 25.2911 42.7694 25.5277C41.9337 26.3608 41.604 27.5854 41.9087 28.7238C42.214 29.8623 43.1121 30.7584 44.2518 31.0618C44.5751 31.1479 44.7815 31.4513 44.7423 31.7837ZM33.7473 26.4971C32.6475 26.7915 31.7276 27.4973 31.1587 28.4834C30.5891 29.4695 30.438 30.6189 30.7331 31.7188C31.0275 32.8186 31.7333 33.7385 32.7194 34.3074C33.3764 34.6867 34.1054 34.8802 34.844 34.8802C35.2143 34.8802 35.5871 34.8313 35.9542 34.733C38.2253 34.1249 39.5771 31.7824 38.969 29.5113C38.3603 27.2408 36.0178 25.8883 33.7473 26.4971ZM37.4134 32.0948C37.018 32.7794 36.3804 33.2693 35.6167 33.4737C34.853 33.6781 34.0559 33.5733 33.3713 33.178C32.6867 32.7826 32.1968 32.145 31.9924 31.3813C31.788 30.6176 31.8928 29.8205 32.2881 29.1359C32.6834 28.4513 33.3211 27.9614 34.0848 27.757C34.34 27.6889 34.5971 27.6561 34.8498 27.6561C36.156 27.6561 37.3549 28.529 37.7091 29.8494C37.9135 30.6131 37.8087 31.4102 37.4134 32.0948ZM6.49397 13.8295H8.69116V23.6172C8.69116 23.9772 8.98301 24.2697 9.34363 24.2697H15.2319C15.5919 24.2697 15.8844 23.9778 15.8844 23.6172V13.8295H18.081C18.3542 13.8295 18.5991 13.6591 18.6929 13.4027C18.7874 13.1462 18.7116 12.8582 18.5033 12.6808L12.7101 7.75283C12.4665 7.54584 12.1084 7.54584 11.8648 7.75283L6.07164 12.6808C5.86336 12.8582 5.78751 13.1462 5.882 13.4027C5.9765 13.6591 6.22077 13.8295 6.49397 13.8295ZM12.2871 9.10599L16.3067 12.5252H15.2313C14.8713 12.5252 14.5788 12.817 14.5788 13.1777V22.9654H9.99546V13.1777C9.99546 12.8177 9.70362 12.5252 9.34299 12.5252H8.2669L12.2871 9.10599ZM29.0579 6.2319H31.2544V16.0196C31.2544 16.3796 31.5463 16.6721 31.9069 16.6721H37.7952C38.1552 16.6721 38.4477 16.3802 38.4477 16.0196V6.2319H40.6442C40.9174 6.2319 41.1617 6.06155 41.2562 5.80506C41.3507 5.54857 41.2749 5.26059 41.0666 5.08317L35.2734 0.155243C35.0298 -0.0517477 34.6724 -0.0517477 34.4281 0.155243L28.6349 5.08317C28.4266 5.26059 28.3514 5.54857 28.4453 5.80506C28.5398 6.06155 28.784 6.2319 29.0579 6.2319ZM34.8504 1.5084L38.87 4.9276H37.7946C37.4346 4.9276 37.1421 5.21945 37.1421 5.58007V15.3678H32.5587V5.58007C32.5587 5.22009 32.2669 4.9276 31.9063 4.9276H30.8308L34.8504 1.5084ZM39.8008 50.49C39.3239 50.3634 38.9485 49.9886 38.8212 49.5129C38.6939 49.0372 38.8315 48.5249 39.1812 48.1765C39.7732 47.587 39.8394 46.6729 39.3399 46.0037C38.834 45.3262 38.2317 44.7258 37.5509 44.2179C36.8818 43.7197 35.9696 43.7866 35.3808 44.3767C35.0323 44.7258 34.5206 44.8633 34.045 44.736C33.5693 44.6088 33.1951 44.2334 33.0679 43.7564C32.8525 42.9483 32.0946 42.4347 31.2641 42.5331C30.4245 42.6334 29.6043 42.8532 28.8271 43.1862C28.0589 43.5153 27.6591 44.3401 27.8764 45.1468C28.0049 45.6231 27.868 46.1355 27.5203 46.4839C27.1718 46.8317 26.6601 46.9686 26.1838 46.8407C25.3783 46.624 24.5549 47.0226 24.2245 47.7882C23.8883 48.5679 23.6678 49.3888 23.5681 50.229C23.4698 51.0589 23.9841 51.8168 24.7914 52.0315C25.2684 52.1581 25.6438 52.5329 25.7718 53.0086C25.899 53.4849 25.7615 53.9966 25.4118 54.345C24.8197 54.9345 24.7529 55.8486 25.253 56.5178C25.7589 57.1953 26.3612 57.7964 27.042 58.3036C27.7112 58.8018 28.6233 58.7349 29.2122 58.1448C29.5606 57.7957 30.0723 57.6582 30.548 57.7855C31.0237 57.9127 31.3978 58.2882 31.5251 58.7651C31.7224 59.5063 32.3775 60.0006 33.1251 60C33.1919 60 33.2601 59.9961 33.3288 59.9878C34.169 59.8875 34.9886 59.6677 35.7658 59.3347C36.534 59.0055 36.9338 58.1808 36.7159 57.3734C36.5873 56.8971 36.7243 56.3847 37.0727 56.037C37.4204 55.6886 37.9321 55.5516 38.4091 55.6802C39.2146 55.8968 40.038 55.4983 40.3678 54.7327C40.704 53.9529 40.9252 53.1314 41.0241 52.2918C41.1231 51.4632 40.6082 50.7053 39.8008 50.49ZM39.7295 52.1395C39.6446 52.8543 39.4569 53.5537 39.1702 54.2178C39.0982 54.3855 38.9247 54.4697 38.7479 54.4222C37.8229 54.1734 36.8271 54.4389 36.1502 55.1158C35.4727 55.7933 35.2072 56.7891 35.4566 57.7147C35.5042 57.8915 35.42 58.0651 35.2515 58.1371C34.5888 58.4212 33.89 58.6083 33.1739 58.6938C32.9926 58.7163 32.8319 58.607 32.785 58.4302C32.5382 57.5039 31.8105 56.7743 30.8855 56.5268C30.6573 56.4657 30.4245 56.4362 30.1938 56.4362C29.4886 56.4362 28.7982 56.7139 28.2884 57.2249C28.1592 57.3541 27.967 57.3683 27.8204 57.259C27.2406 56.827 26.7283 56.3153 26.2969 55.7387C26.1877 55.5921 26.2018 55.3999 26.331 55.2707C27.0105 54.5938 27.2779 53.5981 27.0304 52.673C26.7823 51.7474 26.0527 51.0191 25.1257 50.7728C24.9489 50.7259 24.8403 50.5659 24.8622 50.3846C24.947 49.6698 25.1347 48.9704 25.4214 48.3063C25.4934 48.1385 25.667 48.0543 25.8438 48.1019C26.7681 48.3507 27.7645 48.0852 28.4414 47.4083C29.119 46.7307 29.3845 45.735 29.135 44.8093C29.0875 44.6325 29.1717 44.459 29.3401 44.387C30.0029 44.1029 30.7016 43.9158 31.4177 43.8303C31.5977 43.8084 31.7591 43.9171 31.8066 44.0939C32.0535 45.0202 32.7812 45.7491 33.7068 45.9973C34.6325 46.2448 35.6263 45.9773 36.3039 45.2992C36.4331 45.17 36.6253 45.1558 36.7712 45.2651C37.3517 45.6971 37.864 46.2088 38.2947 46.7854C38.404 46.9319 38.3898 47.1242 38.2606 47.2534C37.5812 47.9303 37.3131 48.926 37.5612 49.851C37.8094 50.7767 38.539 51.5044 39.4659 51.7512C39.6421 51.7975 39.7507 51.9576 39.7295 52.1395ZM34.0064 48.2986C33.2151 47.8415 32.2932 47.7201 31.41 47.9573C30.5274 48.1938 29.7894 48.7595 29.3324 49.5515C28.8753 50.3428 28.7538 51.2653 28.991 52.1479C29.2276 53.0305 29.7933 53.7684 30.5853 54.2255C31.1124 54.5302 31.6973 54.6851 32.2907 54.6851C32.5877 54.6851 32.8872 54.6459 33.1816 54.5668C34.0642 54.3303 34.8022 53.7646 35.2593 52.9726C35.7163 52.1813 35.8378 51.2595 35.6012 50.3762C35.364 49.493 34.7977 48.755 34.0064 48.2986ZM32.8435 53.3062C31.7166 53.6077 30.5531 52.9366 30.251 51.8091C30.1044 51.2627 30.1796 50.6925 30.4625 50.2027C30.7453 49.7128 31.2017 49.3625 31.7481 49.2166C31.9307 49.1677 32.1158 49.1433 32.2997 49.1433C32.6667 49.1433 33.0286 49.2397 33.3546 49.4274C33.8444 49.7102 34.1947 50.1667 34.3407 50.7131C34.6428 51.8412 33.971 53.0041 32.8435 53.3062Z" fill="#0CB4C4"></path></svg>