<svg width="60" height="60" viewBox="0 0 60 60" fill="none" xmlns="http://www.w3.org/2000/svg"><path d="M39.7527 54.3841C39.3771 54.3841 39.0671 54.694 39.0671 55.0696V57.0512C39.0671 57.9246 38.3628 58.6289 37.4894 58.6289H2.94882C2.07544 58.6289 1.37111 57.9246 1.37111 57.0512V12.9692C1.37111 12.0958 2.07544 11.3915 2.94882 11.3915H9.63531V12.5747C9.63531 13.3918 10.3021 14.0491 11.1097 14.0491H29.3285C30.1456 14.0491 30.8029 13.3824 30.8029 12.5747V11.3915H37.4894C38.3628 11.3915 39.0671 12.0958 39.0671 12.9692V22.9613C39.0671 23.337 39.3771 23.6469 39.7527 23.6469C40.1283 23.6469 40.4383 23.337 40.4383 22.9613V12.9692C40.4383 11.3445 39.1141 10.0203 37.4894 10.0203H30.8029V8.61168C30.8029 7.79465 30.1362 7.13727 29.3285 7.13727H25.6096V5.39051C25.6096 2.42291 23.1961 0 20.2191 0C17.2421 0 14.8286 2.41352 14.8286 5.39051V7.12788H11.1097C10.2927 7.12788 9.63531 7.79465 9.63531 8.60228V10.011H2.94882C1.32415 10.011 0 11.3351 0 12.9598V57.0512C0 58.6758 1.32415 60 2.94882 60H37.4988C39.1235 60 40.4476 58.6758 40.4476 57.0512V55.0696C40.4383 54.694 40.1377 54.3841 39.7527 54.3841ZM16.2091 5.39051C16.2091 3.17421 18.0122 1.3805 20.2191 1.3805C22.426 1.3805 24.2291 3.1836 24.2291 5.39051V7.12788H16.1997V5.39051H16.2091ZM11.0064 8.61168C11.0064 8.55533 11.0534 8.50837 11.1097 8.50837H15.5142H24.9147H29.3191C29.3755 8.50837 29.4224 8.55533 29.4224 8.61168V12.5747C29.4224 12.6311 29.3755 12.678 29.3191 12.678H11.1003C11.044 12.678 10.997 12.6311 10.997 12.5747V8.61168H11.0064Z" fill="#0CB4C4"></path><path d="M6.90249 26.051H11.5605C12.6123 26.051 13.4669 25.1965 13.4669 24.154V19.4866C13.4669 18.4348 12.6123 17.5896 11.5605 17.5896H6.90249C5.85068 17.5896 4.99609 18.4442 4.99609 19.4866V24.1446C5.00548 25.1965 5.86007 26.051 6.90249 26.051ZM6.37658 19.4866C6.37658 19.1955 6.61136 18.9607 6.90249 18.9607H11.5605C11.8516 18.9607 12.0864 19.1955 12.0864 19.4866V24.1446C12.0864 24.4358 11.8516 24.6705 11.5605 24.6705H6.90249C6.61136 24.6705 6.37658 24.4358 6.37658 24.1446V19.4866Z" fill="#0CB4C4"></path><path d="M35.4328 20.1158C35.4328 19.7402 35.1229 19.4303 34.7472 19.4303H18.2C17.8244 19.4303 17.5145 19.7402 17.5145 20.1158C17.5145 20.4915 17.8244 20.8014 18.2 20.8014H34.7472C35.1229 20.8108 35.4328 20.5009 35.4328 20.1158Z" fill="#0CB4C4"></path><path d="M30.5963 23.5154C30.5963 23.1398 30.2864 22.8299 29.9108 22.8299H18.2C17.8244 22.8299 17.5145 23.1398 17.5145 23.5154C17.5145 23.8911 17.8244 24.201 18.2 24.201H29.9108C30.2864 24.201 30.5963 23.9005 30.5963 23.5154Z" fill="#0CB4C4"></path><path d="M5.00548 35.6018C5.00548 36.6536 5.86007 37.4988 6.91188 37.4988H11.5699C12.6217 37.4988 13.4763 36.6442 13.4763 35.6018V30.9438C13.4763 29.892 12.6217 29.0468 11.5699 29.0468H6.90249C5.85068 29.0468 4.99609 29.9014 4.99609 30.9438V35.6018H5.00548ZM6.37658 30.9438C6.37658 30.6527 6.61136 30.4179 6.90249 30.4179H11.5605C11.8516 30.4179 12.0864 30.6527 12.0864 30.9438V35.6018C12.0864 35.893 11.8516 36.1277 11.5605 36.1277H6.90249C6.61136 36.1277 6.37658 35.893 6.37658 35.6018V30.9438Z" fill="#0CB4C4"></path><path d="M23.5999 31.573C23.5999 31.1974 23.29 30.8875 22.9144 30.8875H18.1906C17.815 30.8875 17.5051 31.1974 17.5051 31.573C17.5051 31.9487 17.815 32.2586 18.1906 32.2586H22.9144C23.2994 32.2586 23.5999 31.9581 23.5999 31.573Z" fill="#0CB4C4"></path><path d="M21.5339 35.6582C21.9095 35.6582 22.2194 35.3482 22.2194 34.9726C22.2194 34.597 21.9095 34.287 21.5339 34.287H18.1906C17.815 34.287 17.5051 34.597 17.5051 34.9726C17.5051 35.3482 17.815 35.6582 18.1906 35.6582H21.5339Z" fill="#0CB4C4"></path><path d="M8.28298 22.9332C8.41446 23.0928 8.61167 23.168 8.7995 23.168C8.95915 23.168 9.11879 23.1116 9.24088 23.0083L10.7716 21.7029C11.0628 21.4588 11.0909 21.0268 10.8468 20.7357C10.6026 20.4445 10.1612 20.4164 9.87948 20.6605L8.87462 21.5245L8.67741 21.2991C8.43324 21.008 7.99186 20.9798 7.71012 21.224C7.419 21.4682 7.39082 21.9095 7.63499 22.1913L8.28298 22.9332Z" fill="#0CB4C4"></path><path d="M8.28298 34.3716C8.41446 34.5312 8.61167 34.6064 8.80889 34.6064C8.96854 34.6064 9.12819 34.55 9.25027 34.4373L10.781 33.132C11.0722 32.8878 11.1003 32.4558 10.8562 32.1647C10.612 31.8735 10.1706 31.8454 9.88887 32.0895L8.88402 32.9535L8.6868 32.7281C8.44263 32.437 8.01064 32.4088 7.71952 32.653C7.42839 32.8972 7.40022 33.3292 7.64439 33.6203L8.28298 34.3716Z" fill="#0CB4C4"></path><path d="M45.331 32.7093C41.7154 29.0938 35.8366 29.0938 32.2304 32.7093C28.6148 36.3249 28.6148 42.2038 32.2304 45.81C34.0335 47.6131 36.4001 48.5146 38.776 48.5146C41.152 48.5146 43.5279 47.6131 45.331 45.8006C48.9466 42.1944 48.9466 36.3155 45.331 32.7093ZM44.3637 44.8333C41.2928 47.9136 36.2874 47.9136 33.2071 44.8427C30.1268 41.7624 30.1268 36.7569 33.2071 33.686C34.7472 32.1459 36.7663 31.3852 38.7854 31.3852C40.8045 31.3852 42.833 32.1553 44.3637 33.6954C47.4346 36.7569 47.4346 41.753 44.3637 44.8333Z" fill="#0CB4C4"></path><path d="M57.6992 50.4398C56.7037 49.4444 53.6704 47.2656 50.7122 45.7255C53.5013 40.5791 52.7219 34.0053 48.3832 29.6666C43.0866 24.37 34.4655 24.37 29.1783 29.6572C23.8817 34.9538 23.8817 43.5749 29.1783 48.8715C31.8266 51.5198 35.2919 52.8346 38.7666 52.8346C40.9923 52.8346 43.2274 52.2805 45.2371 51.1911C46.7773 54.1493 48.9654 57.1827 49.9609 58.1781C51.0221 59.2393 52.4213 59.7746 53.8206 59.7746C55.2199 59.7746 56.6286 59.2393 57.6992 58.1687C59.831 56.0369 59.831 52.5716 57.6992 50.4398ZM30.155 47.8948C27.8447 45.5846 26.5769 42.5231 26.5769 39.255C26.5769 35.9869 27.8447 32.9253 30.155 30.6151C32.5309 28.2392 35.6582 27.0465 38.7854 27.0465C41.9127 27.0465 45.0399 28.2392 47.4253 30.6151C52.1772 35.367 52.1772 43.1147 47.4159 47.8667C42.6546 52.6467 34.9069 52.6467 30.155 47.8948ZM56.7319 57.2014C55.1354 58.7979 52.534 58.8073 50.9375 57.2108C49.9984 56.2717 47.8948 53.3417 46.4204 50.4774C47.1154 50.0078 47.7727 49.4725 48.3925 48.8621C49.003 48.2517 49.5383 47.5943 50.0078 46.8994C52.8627 48.3738 55.7928 50.4774 56.7413 51.4165C58.3284 53.0036 58.3284 55.605 56.7319 57.2014Z" fill="#0CB4C4"></path><path d="M5.00548 53.6704C5.00548 54.5344 5.70981 55.2481 6.5738 55.2481H21.4681C22.3321 55.2481 23.0365 54.5437 23.0365 53.6704V48.7212C23.0365 47.8573 22.3321 47.1435 21.4681 47.1435H6.5738C5.70981 47.1435 5.00548 47.8479 5.00548 48.7212V53.6704ZM6.37658 48.7212C6.37658 48.6085 6.4705 48.524 6.5738 48.524H21.4681C21.5808 48.524 21.6654 48.6179 21.6654 48.7212V53.6704C21.6654 53.7831 21.5715 53.8676 21.4681 53.8676H6.5738C6.4611 53.8676 6.37658 53.7737 6.37658 53.6704V48.7212Z" fill="#0CB4C4"></path><path d="M44.2698 35.4422C43.913 35.029 43.4059 34.7754 42.8518 34.7378C42.2977 34.6909 41.7718 34.8787 41.3398 35.2543L37.574 38.7666L37.4519 38.6164C37.095 38.1938 36.5973 37.9402 36.0432 37.8933C35.4985 37.8463 34.9632 38.0153 34.5406 38.3722C34.118 38.7291 33.8645 39.2268 33.8175 39.7715C33.7705 40.3162 33.9396 40.8515 34.2964 41.2741L35.7802 43.049C36.1371 43.4622 36.6536 43.7252 37.1983 43.7721C37.2453 43.7721 37.3016 43.7815 37.3486 43.7815C37.48 43.7815 37.6115 43.7721 37.743 43.7439C38.0905 43.6782 38.4192 43.5092 38.7103 43.265L44.0538 38.3534C44.9272 37.6021 45.0211 36.2968 44.2698 35.4422ZM43.1523 37.3204L37.8087 42.232C37.7148 42.3071 37.6115 42.3634 37.4894 42.3916C37.4237 42.401 37.3673 42.4104 37.3016 42.401C37.1138 42.3822 36.9447 42.2977 36.8321 42.1662L35.3483 40.3913C35.2262 40.2504 35.1698 40.072 35.1886 39.8936C35.2074 39.7151 35.2919 39.5461 35.4328 39.424C35.5549 39.3207 35.7145 39.2644 35.8742 39.2644C35.8929 39.2644 35.9117 39.2644 35.9305 39.2644C36.1183 39.2831 36.278 39.3677 36.3907 39.4991L36.9635 40.2035C37.0856 40.3537 37.264 40.4383 37.4519 40.457C37.6397 40.4664 37.8275 40.4007 37.9684 40.2692L42.2601 36.2686C42.401 36.1465 42.5794 36.0902 42.7579 36.0996C42.9457 36.1089 43.1053 36.1935 43.2274 36.3343C43.481 36.6255 43.4528 37.0668 43.1523 37.3204Z" fill="#0CB4C4"></path></svg>