<svg width="60" height="60" viewBox="0 0 60 60" fill="none" xmlns="http://www.w3.org/2000/svg"><path d="M59.2561 16.6355H45.4969L52.2657 4.90426C52.6178 4.29781 52.7091 3.58703 52.5265 2.90884C52.3439 2.23066 51.907 1.66334 51.3005 1.31121L49.6442 0.352622C49.0378 0.000488921 48.327 -0.0908048 47.6488 0.0917825C46.9706 0.27437 46.4033 0.711275 46.0512 1.31773L37.2087 16.6355H23.9972C25.0406 15.3835 25.6275 13.7924 25.6275 12.1556C25.6275 8.28865 22.4843 5.14554 18.6174 5.14554C14.7505 5.14554 11.6074 8.28865 11.6074 12.1556C11.6074 13.7924 12.1942 15.3835 13.2376 16.6355H10.101V8.83641C10.101 8.43211 9.77496 8.10606 9.37066 8.10606H6.27319C2.81707 8.10606 1.13245e-05 10.9166 1.13245e-05 14.3792V53.7333C-0.00650965 57.1895 2.80403 60 6.26667 60H59.2561C59.6604 60 59.9865 59.6739 59.9865 59.2696V17.3659C59.9865 16.9616 59.6604 16.6355 59.2561 16.6355ZM37.6587 26.3844C38.6042 26.6517 39.5171 27.0299 40.3779 27.5125C40.9257 27.8255 41.5908 27.7929 42.1125 27.4342L43.7036 26.3322C43.7753 26.28 43.8601 26.2931 43.9253 26.3518L46.2794 28.7058C46.3446 28.771 46.3511 28.8558 46.299 28.9275L45.1969 30.5187C44.8383 31.0403 44.8056 31.7055 45.1187 32.2532C45.6012 33.114 45.9794 34.0269 46.2468 34.9725C46.4163 35.5789 46.9119 36.0289 47.5314 36.1397L49.4355 36.4854C49.5203 36.4984 49.579 36.5701 49.579 36.6549V39.9806C49.579 40.0654 49.5203 40.1371 49.4355 40.1501L47.5314 40.4958C46.9119 40.6066 46.4163 41.0566 46.2468 41.663C45.9794 42.6086 45.6012 43.528 45.1187 44.3823C44.8056 44.93 44.8383 45.5952 45.1969 46.1168L46.299 47.708C46.3511 47.7797 46.3381 47.8645 46.2794 47.9297L43.9253 50.2837C43.8601 50.349 43.7753 50.3555 43.7036 50.3033L42.1125 49.2013C41.5908 48.8426 40.9257 48.81 40.3779 49.123C39.5171 49.6056 38.6042 49.9838 37.6587 50.2511C37.0522 50.4207 36.6023 50.9163 36.4914 51.5358L36.1458 53.4399C36.1327 53.5247 36.061 53.5834 35.9762 53.5834H32.6505C32.5658 53.5834 32.494 53.5247 32.481 53.4399L32.1354 51.5358C32.0245 50.9163 31.5746 50.4207 30.9681 50.2511C30.0226 49.9838 29.1031 49.6056 28.2489 49.123C27.7011 48.81 27.036 48.8426 26.5143 49.2013L24.9232 50.3033C24.8515 50.3555 24.7667 50.3424 24.7015 50.2837L22.3474 47.9297C22.2822 47.8645 22.2757 47.7797 22.3278 47.708L23.4299 46.1168C23.7885 45.5952 23.8211 44.93 23.5081 44.3823C23.0256 43.5215 22.6474 42.6086 22.38 41.663C22.2105 41.0566 21.7149 40.6066 21.0954 40.4958L19.1912 40.1501C19.1065 40.1371 19.0478 40.0654 19.0478 39.9806V36.6549C19.0478 36.5701 19.1065 36.4984 19.1912 36.4854L21.0954 36.1397C21.7149 36.0289 22.2105 35.5789 22.38 34.9725C22.6474 34.0269 23.0256 33.1075 23.5081 32.2532C23.8211 31.7055 23.7885 31.0403 23.4299 30.5187L22.3278 28.9275C22.2757 28.8558 22.2887 28.771 22.3474 28.7058L24.7015 26.3518C24.7667 26.2865 24.8515 26.28 24.9232 26.3322L26.5143 27.4342C27.036 27.7929 27.7011 27.8255 28.2489 27.5125C29.1097 27.0299 30.0226 26.6517 30.9681 26.3844C31.5746 26.2148 32.0245 25.7192 32.1354 25.0997L32.481 23.1956C32.494 23.1108 32.5658 23.0521 32.6505 23.0521H35.1937L35.0959 26.1887C35.0894 26.4561 35.2263 26.7104 35.4611 26.8474C35.5719 26.9126 35.7024 26.9452 35.8263 26.9452C35.9567 26.9452 36.0936 26.906 36.211 26.8343L37.2413 26.1953C37.3717 26.2735 37.5087 26.3452 37.6587 26.3844ZM45.4317 5.32813L45.699 4.86514L49.3769 6.99098L49.1095 7.45397L45.4317 5.32813ZM45.9077 7.29094L38.2129 20.6133L37.0066 19.9156L44.7013 6.5932L45.9077 7.29094ZM36.5957 24.878L36.7001 21.4349L39.5237 23.0652L36.5957 24.878ZM40.6844 22.0414L39.478 21.3436L47.1728 8.02129L48.3791 8.71904L40.6844 22.0414ZM48.027 1.51336C48.327 1.4351 48.64 1.47423 48.9139 1.63073L50.5702 2.58932C50.8376 2.74582 51.0332 2.99362 51.1114 3.3001C51.1897 3.60007 51.1506 3.91307 50.9941 4.18696L50.1007 5.73243L46.4229 3.60659L47.3162 2.06112C47.4727 1.78724 47.7271 1.59161 48.027 1.51336ZM15.2526 21.4871C15.2004 21.4871 15.1548 21.4415 15.1548 21.3893V19.733C15.1548 19.6808 15.2004 19.6351 15.2526 19.6351H21.9757C22.0279 19.6351 22.0735 19.6808 22.0735 19.733V21.3893C22.0735 21.4415 22.0279 21.4871 21.9757 21.4871H15.2526ZM19.889 22.9478L19.6347 23.8151H17.5871L17.3328 22.9478H19.889ZM18.6174 6.60624C21.6757 6.60624 24.1602 9.09725 24.1602 12.1491C24.1602 13.6945 23.5407 15.1292 22.4191 16.1856C21.8322 16.7333 21.4605 17.4115 21.3171 18.1679H19.3478V13.9097L22.0474 11.21C22.3344 10.9231 22.3344 10.4601 22.0474 10.1732C21.7605 9.88629 21.2975 9.88629 21.0106 10.1732L18.6109 12.5729L16.2112 10.1732C15.9242 9.88629 15.4612 9.88629 15.1743 10.1732C14.8874 10.4601 14.8874 10.9231 15.1743 11.21L17.874 13.9097V18.1679H15.9047C15.7612 17.4115 15.3895 16.7333 14.8026 16.1856C13.6875 15.1292 13.068 13.7011 13.068 12.1556C13.068 9.09725 15.5591 6.60624 18.6174 6.60624ZM1.45419 14.3727C1.45419 11.7187 3.61263 9.56676 6.26015 9.56676H8.62726V47.4602H6.26015C4.63643 47.4602 3.09748 48.0862 1.91718 49.2143C1.75415 49.3708 1.59765 49.5404 1.45419 49.7099V14.3727ZM58.5258 58.5393H6.26667C3.61263 58.5393 1.46071 56.3809 1.46071 53.7333V53.5116C1.57809 50.9815 3.73001 48.9209 6.26667 48.9209H9.36414C9.76844 48.9209 10.0945 48.5948 10.0945 48.1905V18.1027H14.3722C14.4114 18.2005 14.444 18.2984 14.4635 18.3962C14.0006 18.67 13.6941 19.1656 13.6941 19.733V21.3893C13.6941 22.2501 14.3918 22.9478 15.2526 22.9478H15.8134L16.3351 24.7476C16.4264 25.0606 16.7133 25.2758 17.0393 25.2758H20.1824C20.5085 25.2758 20.7954 25.0606 20.8867 24.7476L21.4084 22.9478H21.9692C22.83 22.9478 23.5277 22.2501 23.5277 21.3893V19.733C23.5277 19.1591 23.2147 18.6635 22.7582 18.3962C22.7778 18.2918 22.8104 18.194 22.8495 18.1027H36.361L35.3698 19.8243C35.3111 19.9286 35.2785 20.046 35.272 20.1699L35.2263 21.6045H32.6375C31.8485 21.6045 31.1703 22.1718 31.0268 22.9478L30.6812 24.8519C30.6682 24.9237 30.629 24.9693 30.5573 24.9889C29.5009 25.2823 28.4771 25.7127 27.512 26.2539C27.4468 26.2931 27.3881 26.2865 27.3294 26.2474L25.7383 25.1454C25.0862 24.6954 24.2059 24.7737 23.6516 25.3345L21.2975 27.6886C20.7367 28.2494 20.6585 29.1297 21.1084 29.7753L22.2105 31.3664C22.2561 31.4251 22.2561 31.4838 22.217 31.549C21.6757 32.5076 21.2519 33.5314 20.9519 34.5943C20.9323 34.666 20.8867 34.7051 20.815 34.7182L18.9108 35.0638C18.1348 35.2072 17.5675 35.8854 17.5675 36.6745V40.0002C17.5675 40.7892 18.1348 41.4674 18.9108 41.6108L20.815 41.9565C20.8867 41.9695 20.9323 42.0086 20.9519 42.0804C21.2454 43.1367 21.6757 44.1605 22.217 45.1257C22.2561 45.1909 22.2496 45.2495 22.2105 45.3082L21.1084 46.8994C20.6585 47.5515 20.7367 48.4318 21.2975 48.9861L23.6516 51.3401C24.2124 51.9009 25.0927 51.9792 25.7383 51.5293L27.3294 50.4272C27.3881 50.3816 27.4468 50.3816 27.512 50.4207C28.4706 50.9619 29.4944 51.3858 30.5573 51.6858C30.629 51.7053 30.6682 51.751 30.6812 51.8227L31.0268 53.7268C31.1703 54.5028 31.8485 55.0701 32.6375 55.0701H35.9632C36.7522 55.0701 37.4304 54.5028 37.5739 53.7268L37.9195 51.8227C37.9325 51.751 37.9717 51.7053 38.0434 51.6858C39.0998 51.3923 40.1236 50.9619 41.0887 50.4207C41.1539 50.3816 41.2126 50.3881 41.2713 50.4272L42.8624 51.5293C43.5145 51.9792 44.3948 51.9009 44.9491 51.3401L47.3032 48.9861C47.864 48.4253 47.9422 47.5449 47.4923 46.8994L46.3902 45.3082C46.3446 45.2495 46.3446 45.1909 46.3837 45.1257C46.925 44.1671 47.3488 43.1433 47.6488 42.0804C47.6684 42.0086 47.714 41.9695 47.7857 41.9565L49.6899 41.6108C50.4659 41.4674 51.0332 40.7892 51.0332 40.0002V36.6745C51.0332 35.8854 50.4659 35.2072 49.6899 35.0638L47.7857 34.7182C47.714 34.7051 47.6684 34.666 47.6488 34.5943C47.3554 33.5379 46.925 32.5141 46.3902 31.549C46.3511 31.4838 46.3576 31.4251 46.3968 31.3664L47.4988 29.7753C47.9488 29.1232 47.8705 28.2428 47.3097 27.6886L44.9556 25.3345C44.3948 24.7737 43.5145 24.6954 42.8689 25.1454L41.2778 26.2474C41.2191 26.2931 41.1604 26.2931 41.0952 26.2539C40.3714 25.8431 39.6084 25.504 38.8194 25.2301L41.3365 23.6716C41.4408 23.6064 41.5256 23.5217 41.5843 23.4173L44.6491 18.1092H58.5258V58.5393ZM33.9417 28.0407L25.5883 32.8597C25.3601 32.9901 25.2232 33.2314 25.2232 33.4922V43.1368C25.2232 43.3976 25.3601 43.6389 25.5883 43.7693L33.9417 48.5883C34.0526 48.6535 34.183 48.6861 34.3069 48.6861C34.4308 48.6861 34.5612 48.6535 34.672 48.5883L43.0254 43.7693C43.2537 43.6389 43.3906 43.3976 43.3906 43.1368V33.4987C43.3906 33.2379 43.2537 32.9966 43.0254 32.8662L34.672 28.0472C34.4503 27.9103 34.1699 27.9103 33.9417 28.0407ZM34.3069 29.521L41.193 33.4987L34.3069 37.4765L27.4207 33.4987L34.3069 29.521ZM26.6904 34.7638L33.5765 38.7416V46.6972L26.6904 42.7194V34.7638ZM35.0437 46.6972V38.7416L41.9299 34.7638V42.7194L35.0437 46.6972ZM27.6881 11.4252H30.0291C30.4334 11.4252 30.7595 11.7513 30.7595 12.1556C30.7595 12.5599 30.4334 12.8859 30.0291 12.8859H27.6881C27.2838 12.8859 26.9577 12.5599 26.9577 12.1556C26.9577 11.7513 27.2838 11.4252 27.6881 11.4252ZM24.5124 6.25411C24.2254 5.96718 24.2254 5.50419 24.5124 5.21727L26.1687 3.56094C26.4556 3.27402 26.9186 3.27402 27.2055 3.56094C27.4925 3.84786 27.4925 4.31085 27.2055 4.59778L25.5492 6.25411C25.4057 6.39757 25.2166 6.4693 25.034 6.4693C24.8515 6.4693 24.6558 6.39757 24.5124 6.25411ZM17.8805 3.07839V0.737359C17.8805 0.333059 18.2066 0.00700977 18.6109 0.00700977C19.0152 0.00700977 19.3412 0.333059 19.3412 0.737359V3.07839C19.3412 3.48269 19.0152 3.80874 18.6109 3.80874C18.2066 3.80874 17.8805 3.48269 17.8805 3.07839ZM10.0293 4.59778C9.74235 4.31085 9.74235 3.84786 10.0293 3.56094C10.3162 3.27402 10.7792 3.27402 11.0661 3.56094L12.7159 5.22379C13.0028 5.51071 13.0028 5.9737 12.7159 6.26063C12.5725 6.40409 12.3833 6.47582 12.2008 6.47582C12.0117 6.47582 11.8291 6.40409 11.6856 6.26063L10.0293 4.59778Z" fill="#0CB4C4"></path></svg>