<svg width="62" height="60" viewBox="0 0 62 60" fill="none" xmlns="http://www.w3.org/2000/svg"><path d="M21.8541 44.7132C21.7247 44.7137 21.5985 44.6729 21.4934 44.5969C21.3382 44.4782 21.242 44.2972 21.2308 44.1021C21.2195 43.9103 21.2988 43.725 21.4446 43.6007L22.325 42.8976C22.3892 42.8432 22.4568 42.7921 22.5267 42.7447C22.7842 42.5707 23.1317 42.6181 23.3334 42.855C23.5398 43.0867 23.5398 43.4361 23.3334 43.6678C23.2513 43.7592 23.1613 43.8427 23.0646 43.9187L22.2331 44.5786C22.1257 44.6649 21.992 44.7123 21.8541 44.7132Z" fill="#0CB4C4"></path><path d="M18.2844 42.0968C18.1653 42.0912 18.0508 42.0509 17.9542 41.9805C17.7957 41.8628 17.6953 41.6827 17.6794 41.4852C17.6611 41.292 17.7361 41.1016 17.8811 40.9721L18.1747 40.7339C18.4134 40.5341 18.7633 40.5444 18.9889 40.7587C19.2145 40.9731 19.2426 41.323 19.0546 41.5711C18.9579 41.7047 18.8472 41.8276 18.7244 41.9378C18.6048 42.0471 18.4462 42.1043 18.2844 42.0968Z" fill="#0CB4C4"></path><path d="M33.7374 53.4423C33.023 53.4428 32.3317 53.1895 31.7872 52.727L28.505 49.9275C28.2559 49.7174 28.2156 49.3487 28.413 49.0898C28.8614 48.5265 28.8614 47.7278 28.413 47.1645C27.8723 46.4976 26.8939 46.3934 26.225 46.9323L25.8643 47.2199C25.6008 47.4342 25.2138 47.3943 24.999 47.1307C24.7847 46.8676 24.8245 46.4802 25.0876 46.2659C25.4521 45.9652 25.6613 45.5159 25.6566 45.0436C25.6613 44.4615 25.3419 43.9249 24.8278 43.6524C24.3133 43.3799 23.69 43.4165 23.2111 43.7477C22.9573 43.8865 22.6408 43.8279 22.4531 43.6074C22.2651 43.3874 22.2576 43.0657 22.4349 42.8368C22.7111 42.5465 22.8645 42.1614 22.8631 41.7609C22.8631 41.4063 22.7397 41.0625 22.5146 40.7891C22.2557 40.4673 21.8791 40.2619 21.4687 40.2183C21.0578 40.1746 20.647 40.2966 20.3261 40.5569L18.9139 41.6877C18.6742 41.88 18.3286 41.8645 18.1072 41.6507C17.8825 41.4349 17.8562 41.085 18.0462 40.8378C18.3877 40.3913 18.4613 39.7947 18.238 39.2784C18.0148 38.762 17.5298 38.4069 16.9702 38.3502C16.5598 38.3056 16.1485 38.4266 15.8272 38.6865L15.0388 39.2976C14.8202 39.4636 14.5177 39.4636 14.2991 39.2976L11.5422 37.3352C11.3875 37.2226 11.2951 37.0439 11.2918 36.8526C11.2871 36.6631 11.3706 36.4825 11.5179 36.3634C11.5877 36.3085 11.6473 36.2424 11.6951 36.1678L18.7918 25.7944C18.8603 25.6898 18.91 25.574 18.9387 25.4525C19.0109 25.1458 19.305 24.9445 19.6168 24.9877L23.6818 25.544C25.8445 24.7255 28.2112 24.612 30.4423 25.2199C30.6834 25.286 30.8597 25.4914 30.8888 25.7395C30.9184 25.9895 30.7922 26.232 30.5708 26.3507L27.3435 28.0804C27.0682 28.2272 26.8965 28.5147 26.897 28.8266C26.8852 29.1282 27.0433 29.4115 27.3064 29.5601C28.9096 30.4639 30.8517 30.5324 32.5144 29.7435L34.4585 28.7773C34.6738 28.6699 34.9322 28.6985 35.1184 28.851L40.6195 33.4108L45.6563 37.6898C46.2641 38.2151 46.6412 38.9584 46.7055 39.759C46.7693 40.5597 46.5155 41.3537 45.9987 41.9685C45.5296 42.5178 44.8791 42.8798 44.1652 42.9896C44.3936 43.377 44.5292 43.8123 44.5625 44.2607C44.6399 45.2053 44.2675 46.1311 43.5578 46.7592C42.8482 47.3867 41.8839 47.6438 40.9557 47.4515C41.0546 48.5077 40.5912 49.5377 39.7358 50.1643C38.8798 50.7909 37.7579 50.9213 36.781 50.5081C36.7725 51.2069 36.5174 51.8805 36.0596 52.409C35.4771 53.0811 34.6266 53.4596 33.7374 53.4423ZM29.6907 49.3346L32.5756 51.7796C32.9419 52.076 33.4095 52.22 33.8799 52.1815C34.3498 52.1426 34.7869 51.9245 35.1002 51.5713C35.3845 51.2425 35.5383 50.8209 35.5327 50.3861C35.5271 49.9513 35.3624 49.5339 35.0698 49.2122C34.907 48.9762 34.93 48.6587 35.1251 48.4486C35.3207 48.2385 35.6354 48.1925 35.8826 48.3379L36.769 49.0836C37.1349 49.381 37.6015 49.5264 38.0715 49.4889C38.542 49.4509 38.9796 49.2337 39.2938 48.882C39.5992 48.5199 39.7483 48.0518 39.7094 47.5799C39.6705 47.1081 39.4463 46.6705 39.0856 46.3638C38.829 46.1443 38.799 45.7582 39.0185 45.5017C39.238 45.2451 39.624 45.2151 39.8806 45.4346L40.3698 45.8502C40.7365 46.1471 41.2032 46.291 41.6731 46.2521C42.1436 46.2132 42.5807 45.9951 42.894 45.6424C43.2017 45.2817 43.3532 44.8136 43.3152 44.3413C43.2777 43.869 43.0535 43.431 42.6923 43.1237L41.7205 42.2865C41.4635 42.067 41.4335 41.681 41.653 41.4244C41.8725 41.1679 42.2585 41.1379 42.515 41.3574C42.8809 41.6505 43.3452 41.7921 43.8124 41.7537C44.2795 41.7148 44.7143 41.4985 45.0271 41.1496C45.3395 40.7917 45.4966 40.3241 45.4633 39.8504C45.43 39.3767 45.2091 38.9354 44.8498 38.6249L39.8192 34.346L34.6599 30.0671L33.0891 30.8555C31.0485 31.8254 28.6621 31.7344 26.7016 30.6111C26.3784 30.4296 26.1115 30.1623 25.9305 29.8387C25.7495 29.515 25.6608 29.1478 25.6749 28.7773C25.6777 28.4063 25.7809 28.0428 25.9737 27.7253C26.166 27.4077 26.4408 27.1484 26.7687 26.9744L28.4496 26.0757C26.937 25.9158 25.4075 26.1254 23.994 26.6868C23.895 26.7262 23.7876 26.7389 23.6821 26.7234L19.9351 26.2159C19.8924 26.2891 19.8497 26.3628 19.8005 26.4359L12.7956 36.7239L14.6294 38.0747L15.0511 37.7384C15.5698 37.3224 16.2199 37.1052 16.8845 37.1263C17.5496 37.1479 18.1846 37.4059 18.6757 37.8547C19.1663 38.3031 19.481 38.9124 19.5622 39.5723C20.1114 39.1385 20.8042 38.9279 21.5025 38.9823C22.2004 39.0367 22.8518 39.3523 23.3274 39.8664C23.803 40.3804 24.0671 41.0544 24.0671 41.7547C24.0661 41.9292 24.0497 42.1027 24.0183 42.2744C24.8715 42.2678 25.6815 42.6505 26.2189 43.3133C26.6176 43.8086 26.8334 44.4258 26.8301 45.0617C26.8362 45.1672 26.8362 45.2737 26.8301 45.3792C27.7831 45.2718 28.7263 45.6536 29.336 46.3942C29.7324 46.8904 29.9476 47.5072 29.9472 48.1423C29.9481 48.5536 29.8604 48.9598 29.6907 49.3346Z" fill="#0CB4C4"></path><path d="M15.069 44.0589C14.2266 44.0612 13.4284 43.6813 12.8989 43.0261C12.5035 42.5289 12.2882 41.9126 12.2877 41.2776C12.2882 40.4362 12.6705 39.6403 13.3266 39.114L15.0686 37.7266C15.6422 37.2641 16.3767 37.0479 17.1093 37.1272C17.8423 37.206 18.5135 37.5737 18.975 38.1482C19.3765 38.6416 19.5927 39.2603 19.5861 39.8963C19.5857 40.5037 19.3859 41.0942 19.0177 41.5773L18.9628 41.6383L18.9139 41.6877L16.8663 43.3375C16.8029 43.3919 16.7434 43.4515 16.6885 43.5148C16.6482 43.5584 16.6031 43.5974 16.5544 43.6311C16.1088 43.9093 15.5943 44.0575 15.069 44.0589ZM16.8048 38.3373C16.4493 38.3359 16.1041 38.4574 15.8269 38.6797L14.085 40.0671C13.7037 40.3589 13.4781 40.81 13.4734 41.2899C13.4766 41.8438 13.7721 42.3546 14.2505 42.6336C14.7289 42.9122 15.319 42.9173 15.8025 42.6472C15.8842 42.5595 15.9723 42.4779 16.0652 42.4024L18.0581 40.7945C18.2373 40.5337 18.333 40.2251 18.333 39.9085C18.3344 39.1107 17.7331 38.4404 16.9396 38.356L16.8048 38.3373Z" fill="#0CB4C4"></path><path d="M16.2301 43.7226C15.989 43.7249 15.7695 43.5852 15.6691 43.3661C15.5687 43.1466 15.6063 42.8891 15.7657 42.7081C15.8666 42.5932 15.9768 42.4867 16.0955 42.3901L18.1432 40.7335C18.3815 40.5337 18.7323 40.5445 18.9579 40.7588C19.1835 40.9732 19.2117 41.3231 19.0236 41.5712C18.927 41.7049 18.8163 41.8277 18.6934 41.938L18.5527 42.0604L16.8107 43.4478C16.7226 43.5186 16.6283 43.5819 16.5298 43.6372C16.4388 43.6912 16.3356 43.7207 16.2301 43.7226Z" fill="#0CB4C4"></path><path d="M17.851 47.3356C17.132 47.3365 16.4407 47.0593 15.9215 46.5617C15.4027 46.0636 15.0965 45.3844 15.0679 44.6659C15.0388 43.9478 15.2883 43.2461 15.7657 42.7081C15.8103 42.6589 15.8628 42.6153 15.9191 42.5797C15.9642 42.5548 16.0073 42.5262 16.0476 42.4943L17.7896 41.1069L17.8506 41.052C17.9186 40.9915 17.9805 40.9235 18.0344 40.8499L18.0954 40.7767L18.1503 40.734L19.5564 39.5971C20.1033 39.1628 20.7942 38.9494 21.4911 39.001C22.1876 39.0521 22.8399 39.364 23.317 39.8743C23.7944 40.3846 24.0619 41.0559 24.0671 41.7547C24.069 42.47 23.7935 43.1583 23.2973 43.6738C23.2691 43.7071 23.2363 43.7362 23.1992 43.7596L23.0707 43.8511L20.5709 45.85C20.4902 45.9175 20.4166 45.9935 20.3509 46.0761L20.2595 46.1675L19.5747 46.7177C19.0869 47.1131 18.479 47.3318 17.851 47.3356ZM16.6282 43.5824C16.405 43.8592 16.2844 44.2048 16.2858 44.5603C16.2825 45.1621 16.6259 45.7123 17.1681 45.9736C17.7102 46.2348 18.3542 46.1607 18.8227 45.7831L19.4339 45.2635C19.5469 45.1359 19.6698 45.0172 19.8006 44.9089L22.3005 42.91L22.4473 42.7998C22.7052 42.5127 22.8469 42.1403 22.8445 41.7548C22.845 41.4002 22.7217 41.0564 22.4965 40.783C22.2376 40.4612 21.861 40.2558 21.4506 40.2122C21.0398 40.1686 20.6284 40.2905 20.3081 40.5503L18.9756 41.6141C18.8883 41.7201 18.7945 41.82 18.6941 41.9138L18.5534 42.0362L16.8107 43.4478L16.6282 43.5824Z" fill="#0CB4C4"></path><path d="M16.2301 43.7226C15.989 43.7249 15.7695 43.5852 15.6691 43.3661C15.5687 43.1466 15.6063 42.8891 15.7657 42.7081C15.8666 42.5932 15.9768 42.4867 16.0955 42.3901L18.1432 40.7335C18.3815 40.5337 18.7323 40.5445 18.9579 40.7588C19.1835 40.9732 19.2117 41.3231 19.0236 41.5712C18.927 41.7049 18.8163 41.8277 18.6934 41.938L18.5527 42.0604L16.8107 43.4478C16.7226 43.5186 16.6283 43.5819 16.5298 43.6372C16.4388 43.6912 16.3356 43.7207 16.2301 43.7226Z" fill="#0CB4C4"></path><path d="M19.8922 46.3017C19.6464 46.3111 19.4189 46.1727 19.3148 45.9495C19.2107 45.7267 19.2501 45.4636 19.4152 45.2811C19.5376 45.131 19.675 44.9941 19.8246 44.8716L22.3245 42.8727L22.5323 42.7198C22.7897 42.5458 23.1378 42.5932 23.3394 42.8301C23.5458 43.0618 23.5458 43.4112 23.3394 43.6429C23.2574 43.7343 23.1673 43.8178 23.0707 43.8933L20.2772 46.1675C20.1679 46.2548 20.0319 46.3026 19.8922 46.3017Z" fill="#0CB4C4"></path><path d="M21.5791 49.8413C21.4792 49.8479 21.3793 49.8479 21.2794 49.8413C20.5445 49.7658 19.8705 49.3976 19.409 48.8207C19.0136 48.3236 18.7983 47.7073 18.7979 47.0723C18.7913 46.4325 19.0075 45.8101 19.409 45.3121C19.4343 45.2806 19.4629 45.252 19.4948 45.2267L22.27 42.9833C22.3221 42.9416 22.3708 42.8966 22.4163 42.8487C22.4464 42.8131 22.4815 42.7826 22.5205 42.7568C23.3169 42.2263 24.3299 42.1424 25.2028 42.5345C26.0756 42.927 26.6854 43.7403 26.8171 44.6883C26.9489 45.6362 26.5845 46.5855 25.8519 47.2008L23.3337 49.2181C22.8384 49.622 22.2184 49.8423 21.5791 49.8413ZM20.3564 46.1248C19.9263 46.6975 19.9418 47.4887 20.3929 48.0445C20.65 48.3676 21.0271 48.5731 21.4384 48.6129C21.8488 48.6552 22.2592 48.5346 22.5814 48.2767L25.0264 46.296H25.0629C25.4274 45.9953 25.6366 45.546 25.6314 45.0737C25.6314 44.5113 25.328 43.9926 24.8378 43.7163C24.3477 43.4405 23.7473 43.4499 23.2661 43.7412C23.199 43.8082 23.1254 43.8697 23.0522 43.9306L20.3564 46.1248Z" fill="#0CB4C4"></path><path d="M19.8922 46.3017C19.6464 46.3111 19.4189 46.1727 19.3148 45.9495C19.2107 45.7267 19.2501 45.4636 19.4152 45.2811C19.5376 45.131 19.675 44.9941 19.8246 44.8716L22.3245 42.8727L22.5323 42.7198C22.7897 42.5458 23.1378 42.5932 23.3394 42.8301C23.5458 43.0618 23.5458 43.4112 23.3394 43.6429C23.2574 43.7343 23.1673 43.8178 23.0707 43.8933L20.2772 46.1675C20.1679 46.2548 20.0319 46.3026 19.8922 46.3017Z" fill="#0CB4C4"></path><path d="M25.4418 52.3113C25.3423 52.3178 25.2419 52.3178 25.1425 52.3113C24.4615 52.2405 23.8306 51.9206 23.3715 51.4126C22.9123 50.9052 22.6567 50.2452 22.6544 49.5609C22.6544 48.7204 23.0343 47.925 23.6876 47.3969L25.4357 46.0095C26.0093 45.5475 26.7424 45.3318 27.4745 45.4096C28.2071 45.4875 28.8782 45.8529 29.3417 46.4251C29.7342 46.9105 29.9519 47.5141 29.9594 48.1385C29.9673 48.7627 29.7647 49.3716 29.3844 49.8664C29.2488 50.0432 29.0931 50.2031 28.92 50.3434L27.1842 51.6941C26.6917 52.0942 26.0764 52.3122 25.4418 52.3113ZM27.1715 46.5836C26.8169 46.5846 26.474 46.7079 26.1997 46.9326L24.4516 48.3382C24.0848 48.6379 23.8737 49.0872 23.877 49.561C23.877 49.9175 23.9999 50.2627 24.2255 50.5389C24.482 50.8625 24.8596 51.0675 25.2705 51.1074C25.6832 51.1519 26.0964 51.0314 26.42 50.7711L28.1559 49.3837C28.2525 49.3053 28.3407 49.2172 28.4185 49.1205C28.624 48.8471 28.7351 48.515 28.7365 48.1731C28.7346 47.3777 28.1338 46.7112 27.3431 46.6268L27.1715 46.5836Z" fill="#0CB4C4"></path><path d="M45.216 38.771C45.0706 38.771 44.9294 38.7189 44.8187 38.6242L39.788 34.3452L34.6288 30.0663L33.058 30.8609C31.0248 31.8181 28.6532 31.726 26.7016 30.6111C26.3784 30.4296 26.1115 30.1623 25.9305 29.8387C25.7495 29.515 25.6608 29.1478 25.6749 28.7773C25.6777 28.4063 25.7809 28.0428 25.9737 27.7253C26.166 27.4077 26.4408 27.1484 26.7687 26.9744L31.493 24.4367C32.197 24.0582 33.0182 23.9601 33.7917 24.1618L40.3323 24.8771L41.8664 23.9784C42.0137 23.8903 42.1909 23.8682 42.3556 23.917C42.5188 23.9667 42.6539 24.0816 42.7285 24.235L42.7894 24.3452L49.8801 34.6876C49.9069 34.7275 49.9378 34.7641 49.972 34.7978C50.0884 34.9296 50.1423 35.105 50.1198 35.2795C50.0977 35.4535 50.0016 35.6102 49.8557 35.7087L45.5768 38.6368C45.4741 38.7193 45.3478 38.7663 45.216 38.771ZM34.7146 28.7095C34.859 28.7104 34.9993 28.7597 35.1119 28.8502L40.5703 33.4101L45.2525 37.3893L48.645 35.0789L41.9826 25.3477L40.7598 26.0629C40.6458 26.1295 40.5126 26.1577 40.3808 26.1422L33.6082 25.3965C33.5782 25.4026 33.5468 25.4026 33.5167 25.3965C33.0332 25.2609 32.5163 25.3177 32.074 25.5555L27.343 28.0924C27.0677 28.2392 26.896 28.5262 26.8965 28.8381C26.8848 29.1397 27.0428 29.423 27.306 29.5717C28.9091 30.4755 30.8513 30.544 32.514 29.7551L34.4585 28.7773C34.5377 28.7365 34.625 28.7128 34.7146 28.7095Z" fill="#0CB4C4"></path><path d="M45.216 38.771C45.0706 38.771 44.9294 38.7189 44.8187 38.6242L34.9529 30.3174C34.829 30.2128 34.7516 30.0632 34.7376 29.9014C34.724 29.74 34.7751 29.5791 34.8797 29.4553C34.9852 29.332 35.1348 29.256 35.2966 29.2433C35.4585 29.2307 35.6184 29.2827 35.7417 29.3882L40.5703 33.4101L45.6071 37.689C45.7333 37.7936 45.8121 37.9446 45.8257 38.1078C45.8393 38.2711 45.7872 38.4329 45.6808 38.5572C45.5644 38.6927 45.3947 38.771 45.216 38.771Z" fill="#0CB4C4"></path><path d="M50.6875 36.3576C50.0684 36.36 49.478 36.1002 49.0614 35.6424C48.9944 35.5692 48.939 35.4956 48.8781 35.4163L41.7935 25.0557C41.7382 24.9726 41.687 24.8868 41.6406 24.7986C41.4061 24.3249 41.3498 23.7827 41.4821 23.2705C41.6148 22.7588 41.9267 22.3118 42.362 22.0112L45.5466 19.8289C46.0273 19.4991 46.6192 19.3748 47.1923 19.4813C47.765 19.5878 48.2725 19.9175 48.6027 20.3978L55.6934 30.7523C56.0245 31.2326 56.1507 31.825 56.0437 32.3986C55.9373 32.9722 55.6066 33.4792 55.1249 33.8084L51.9403 35.9908C51.5689 36.2356 51.1322 36.3633 50.6875 36.3576ZM46.7754 20.667C46.5789 20.667 46.3871 20.727 46.2253 20.8382L43.0158 23.0206C42.6261 23.2959 42.4915 23.8123 42.6983 24.2429L42.7654 24.3592L49.8561 34.7016C49.8828 34.7415 49.9138 34.778 49.948 34.8118C50.2735 35.1655 50.8087 35.2278 51.2068 34.9586L54.3914 32.7762C54.8299 32.4723 54.9416 31.8724 54.6423 31.4316L47.576 21.0887C47.3954 20.8242 47.0958 20.666 46.7754 20.667Z" fill="#0CB4C4"></path><path d="M10.9002 37.7876C10.4631 37.7839 10.0372 37.6497 9.6774 37.4026L6.49881 35.2202C6.01666 34.8966 5.686 34.3914 5.58187 33.8202C5.47118 33.2484 5.59454 32.6565 5.92426 32.1763L13.015 21.8278C13.3451 21.3475 13.8526 21.0178 14.4253 20.9113C14.9984 20.8044 15.5903 20.9296 16.0711 21.2589L19.2557 23.4412C19.6117 23.6912 19.8846 24.0421 20.0404 24.4478C20.1961 24.8539 20.2275 25.2971 20.1299 25.7211C20.0633 25.9945 19.9475 26.2534 19.7875 26.4851L12.7091 36.834C12.5881 37.0038 12.4464 37.1576 12.2875 37.2923C11.8968 37.614 11.4063 37.7895 10.9002 37.7876ZM14.8062 22.097C14.4863 22.097 14.1861 22.2546 14.0051 22.5186L6.91438 32.8672C6.7732 33.0815 6.7188 33.3418 6.76148 33.5946C6.8126 33.8441 6.95987 34.0636 7.17141 34.2062L10.35 36.3886C10.7046 36.6334 11.1783 36.6128 11.5113 36.3394C11.5831 36.2826 11.645 36.2146 11.6947 36.1377L18.7918 25.7944C18.8589 25.6917 18.9082 25.5781 18.9382 25.459C19.0296 25.0781 18.8824 24.6799 18.5653 24.4501L15.3807 22.2677C15.2123 22.1514 15.0111 22.0918 14.8062 22.097Z" fill="#0CB4C4"></path><path d="M35.4916 49.402C35.349 49.402 35.2106 49.3523 35.1004 49.2613L27.1537 42.6537C26.8934 42.4375 26.8582 42.0515 27.0745 41.7917C27.2907 41.5318 27.6762 41.4962 27.9365 41.7124L35.8826 48.3379C36.0078 48.4416 36.0863 48.5911 36.1013 48.7529C36.1163 48.9147 36.0661 49.0756 35.9624 49.2004C35.8424 49.3331 35.6702 49.4067 35.4916 49.402Z" fill="#0CB4C4"></path><path d="M39.4827 46.5036C39.3396 46.504 39.2012 46.4543 39.091 46.3633L30.7233 39.3275C30.599 39.2229 30.5216 39.0733 30.508 38.9119C30.4944 38.7501 30.5451 38.5897 30.6496 38.4654C30.8677 38.2075 31.2533 38.1746 31.5117 38.3923L39.8799 45.422C40.0793 45.5871 40.1529 45.86 40.0638 46.103C39.9742 46.3464 39.7416 46.5068 39.4827 46.5036Z" fill="#0CB4C4"></path><path d="M42.105 42.4212C41.9633 42.4231 41.8264 42.3729 41.7199 42.2805L34.9163 36.724C34.762 36.634 34.655 36.4806 34.6232 36.3047C34.5917 36.1289 34.6382 35.9478 34.7517 35.8094C34.8647 35.6711 35.0326 35.589 35.2113 35.5853C35.39 35.581 35.5612 35.6556 35.6803 35.7888L42.4834 41.3392C42.6809 41.5029 42.7559 41.7731 42.6697 42.0146C42.5834 42.2567 42.3554 42.4189 42.0989 42.4213L42.105 42.4212Z" fill="#0CB4C4"></path><path d="M55.8889 57H5.59429C4.28145 56.9981 3.02313 56.4761 2.09487 55.5479C1.16668 54.6197 0.644675 53.3613 0.643234 52.0484V7.95178C0.644641 6.63894 1.16666 5.38062 2.09487 4.45236C3.02307 3.52417 4.28145 3.00217 5.59429 3.00024H55.8889C57.2013 3.00353 58.4586 3.52648 59.3864 4.45416C60.3146 5.38189 60.8371 6.6393 60.8403 7.95166V52.0483C60.8371 53.3607 60.3146 54.618 59.3864 55.5458C58.4587 56.4735 57.2013 56.9967 55.8889 57ZM5.59429 4.22351C4.60606 4.22492 3.65865 4.61843 2.95937 5.31727C2.26053 6.01611 1.86748 6.96402 1.86561 7.95219V52.0488C1.86749 53.0371 2.26053 53.985 2.95937 54.6838C3.65868 55.3826 4.60612 55.7761 5.59429 55.7775H55.8889C56.8776 55.7761 57.825 55.3826 58.5238 54.6838C59.2227 53.9849 59.6162 53.037 59.6176 52.0488V7.95219C59.6162 6.96396 59.2227 6.01607 58.5238 5.31727C57.825 4.61843 56.8776 4.22491 55.8889 4.22351H5.59429Z" fill="#0CB4C4"></path><path d="M60.3267 13.6177H1.35225C1.01502 13.6177 0.741119 13.3443 0.741119 13.0066V7.95142C0.744402 6.63906 1.26689 5.38169 2.19504 4.45392C3.12277 3.52619 4.38018 3.00324 5.69254 3H55.9872C57.3 3.00188 58.5583 3.5239 59.4866 4.45212C60.4148 5.38031 60.9368 6.6387 60.9382 7.95154V13.0067C60.9382 13.169 60.874 13.3242 60.7595 13.4391C60.6446 13.5536 60.489 13.6177 60.3267 13.6177ZM1.9634 12.3949H59.7155V7.95139C59.7137 6.96316 59.3206 6.01528 58.6218 5.31647C57.9225 4.61763 56.975 4.22412 55.9869 4.22271H5.69223C4.70353 4.22412 3.75611 4.61763 3.0573 5.31647C2.35846 6.01531 1.96495 6.96322 1.96354 7.95139L1.9634 12.3949Z" fill="#0CB4C4"></path><path d="M9.39689 8.92306H6.83605C6.49836 8.92306 6.22444 8.64963 6.22444 8.31193C6.22444 7.97424 6.49835 7.70081 6.83605 7.70081H9.39689C9.73458 7.70081 10.0085 7.97424 10.0085 8.31193C10.0085 8.64963 9.7346 8.92306 9.39689 8.92306Z" fill="#0CB4C4"></path><path d="M16.0595 8.92306H13.48C13.1428 8.92306 12.8689 8.64963 12.8689 8.31193C12.8689 7.97424 13.1428 7.70081 13.48 7.70081H16.0595C16.3972 7.70081 16.6707 7.97424 16.6707 8.31193C16.6707 8.64963 16.3972 8.92306 16.0595 8.92306Z" fill="#0CB4C4"></path><path d="M22.7042 8.92306H20.1246C19.7869 8.92306 19.5135 8.64963 19.5135 8.31193C19.5135 7.97424 19.7869 7.70081 20.1246 7.70081H22.7042C23.0414 7.70081 23.3153 7.97424 23.3153 8.31193C23.3153 8.64963 23.0414 8.92306 22.7042 8.92306Z" fill="#0CB4C4"></path><path d="M54.8443 8.92306H36.158C35.8203 8.92306 35.5463 8.64963 35.5463 8.31193C35.5463 7.97424 35.8202 7.70081 36.158 7.70081H54.8443C55.182 7.70081 55.4555 7.97424 55.4555 8.31193C55.4555 8.64963 55.182 8.92306 54.8443 8.92306Z" fill="#0CB4C4"></path><path d="M18.9139 41.6877L20.3261 40.5569C20.647 40.2966 21.0578 40.1746 21.4687 40.2183C21.8791 40.2619 22.2557 40.4673 22.5146 40.7891C22.7397 41.0625 22.8631 41.4063 22.8631 41.7609C22.8645 42.1614 22.7111 42.5465 22.4349 42.8368C22.2576 43.0657 22.2651 43.3874 22.4531 43.6074C22.6408 43.8279 22.9573 43.8865 23.2111 43.7477C23.69 43.4165 24.3133 43.3799 24.8278 43.6524C25.3419 43.9249 25.6613 44.4615 25.6566 45.0436C25.6613 45.5159 25.4521 45.9652 25.0876 46.2659C24.8245 46.4802 24.7847 46.8676 24.999 47.1307C25.2138 47.3943 25.6008 47.4342 25.8643 47.2199L26.225 46.9323C26.8939 46.3934 27.8723 46.4976 28.413 47.1645C28.8614 47.7278 28.8614 48.5265 28.413 49.0898C28.2156 49.3487 28.2559 49.7174 28.505 49.9275L31.7872 52.727C32.3317 53.1895 33.023 53.4428 33.7374 53.4423C34.6266 53.4596 35.4771 53.0811 36.0596 52.409C36.5174 51.8805 36.7725 51.2069 36.781 50.5081C37.7579 50.9213 38.8798 50.7909 39.7358 50.1643C40.5912 49.5377 41.0546 48.5077 40.9557 47.4515C41.8839 47.6438 42.8482 47.3867 43.5578 46.7592C44.2675 46.1311 44.6399 45.2053 44.5625 44.2607C44.5292 43.8123 44.3936 43.377 44.1652 42.9896C44.8791 42.8798 45.5296 42.5178 45.9987 41.9685C46.5155 41.3537 46.7693 40.5597 46.7055 39.759C46.6412 38.9584 46.2641 38.2151 45.6563 37.6898L40.6195 33.4108L35.1184 28.851C34.9322 28.6985 34.6738 28.6699 34.4585 28.7773M18.9139 41.6877C18.6742 41.88 18.3286 41.8645 18.1072 41.6507C17.8825 41.4349 17.8562 41.085 18.0462 40.8378C18.3877 40.3913 18.4613 39.7947 18.238 39.2784C18.0148 38.762 17.5298 38.4069 16.9702 38.3502C16.5598 38.3056 16.1485 38.4266 15.8272 38.6865L15.0388 39.2976C14.8202 39.4636 14.5177 39.4636 14.2991 39.2976L11.5422 37.3352C11.3875 37.2226 11.2951 37.0439 11.2918 36.8526C11.2871 36.6631 11.3706 36.4825 11.5179 36.3634C11.5877 36.3085 11.6473 36.2424 11.6951 36.1678L18.7918 25.7944M18.9139 41.6877L18.9628 41.6383L19.0177 41.5773C19.3859 41.0942 19.5857 40.5037 19.5861 39.8963C19.5927 39.2603 19.3765 38.6416 18.975 38.1482C18.5135 37.5737 17.8423 37.206 17.1093 37.1272C16.3767 37.0479 15.6422 37.2641 15.0686 37.7266L13.3266 39.114C12.6705 39.6403 12.2882 40.4362 12.2877 41.2776C12.2882 41.9126 12.5035 42.5289 12.8989 43.0261C13.4284 43.6813 14.2266 44.0612 15.069 44.0589C15.5943 44.0575 16.1088 43.9093 16.5544 43.6311C16.6031 43.5974 16.6482 43.5584 16.6885 43.5148C16.7434 43.4515 16.8029 43.3919 16.8663 43.3375L18.9139 41.6877ZM18.7918 25.7944C18.8603 25.6898 18.91 25.574 18.9387 25.4525C19.0109 25.1458 19.305 24.9445 19.6168 24.9877L23.6818 25.544C25.8445 24.7255 28.2112 24.612 30.4423 25.2199C30.6834 25.286 30.8597 25.4914 30.8888 25.7395C30.9184 25.9895 30.7922 26.232 30.5708 26.3507L27.3435 28.0804C27.0682 28.2272 26.8965 28.5147 26.897 28.8266C26.8852 29.1282 27.0433 29.4115 27.3064 29.5601C28.9096 30.4639 30.8517 30.5324 32.5144 29.7435L34.4585 28.7773M18.7918 25.7944L11.6947 36.1377C11.645 36.2146 11.5831 36.2826 11.5113 36.3394C11.1783 36.6128 10.7046 36.6334 10.35 36.3886L7.17141 34.2062C6.95987 34.0636 6.8126 33.8441 6.76148 33.5946C6.7188 33.3418 6.7732 33.0815 6.91438 32.8672L14.0051 22.5186C14.1861 22.2546 14.4863 22.097 14.8062 22.097C15.0111 22.0918 15.2123 22.1514 15.3807 22.2677L18.5653 24.4501C18.8824 24.6799 19.0296 25.0781 18.9382 25.459C18.9082 25.5781 18.8589 25.6917 18.7918 25.7944ZM34.4585 28.7773L32.514 29.7551C30.8513 30.544 28.9091 30.4755 27.306 29.5717C27.0428 29.423 26.8848 29.1397 26.8965 28.8381C26.896 28.5262 27.0677 28.2392 27.343 28.0924L32.074 25.5555C32.5163 25.3177 33.0332 25.2609 33.5167 25.3965C33.5468 25.4026 33.5782 25.4026 33.6082 25.3965L40.3808 26.1422C40.5126 26.1577 40.6458 26.1295 40.7598 26.0629L41.9826 25.3477L48.645 35.0789L45.2525 37.3893L40.5703 33.4101M34.4585 28.7773C34.5377 28.7365 34.625 28.7128 34.7146 28.7095C34.859 28.7104 34.9993 28.7597 35.1119 28.8502L40.5703 33.4101M35.8826 48.3379C35.6354 48.1925 35.3207 48.2385 35.1251 48.4486C34.93 48.6587 34.907 48.9762 35.0698 49.2122C35.3624 49.5339 35.5271 49.9513 35.5327 50.3861C35.5383 50.8209 35.3845 51.2425 35.1002 51.5713C34.7869 51.9245 34.3498 52.1426 33.8799 52.1815C33.4095 52.22 32.9419 52.076 32.5756 51.7796L29.6907 49.3346C29.8604 48.9598 29.9481 48.5536 29.9472 48.1423C29.9476 47.5072 29.7324 46.8904 29.336 46.3942C28.7263 45.6536 27.7831 45.2718 26.8301 45.3792C26.8362 45.2737 26.8362 45.1672 26.8301 45.0617C26.8334 44.4258 26.6176 43.8086 26.2189 43.3133C25.6815 42.6505 24.8715 42.2678 24.0183 42.2744C24.0497 42.1027 24.0661 41.9292 24.0671 41.7547M35.8826 48.3379L36.769 49.0836C37.1349 49.381 37.6015 49.5264 38.0715 49.4889C38.542 49.4509 38.9796 49.2337 39.2938 48.882C39.5992 48.5199 39.7483 48.0518 39.7094 47.5799C39.6705 47.1081 39.4463 46.6705 39.0856 46.3638C38.829 46.1443 38.799 45.7582 39.0185 45.5017C39.238 45.2451 39.624 45.2151 39.8806 45.4346L40.3698 45.8502C40.7365 46.1471 41.2032 46.291 41.6731 46.2521C42.1436 46.2132 42.5807 45.9951 42.894 45.6424C43.2017 45.2817 43.3532 44.8136 43.3152 44.3413C43.2777 43.869 43.0535 43.431 42.6923 43.1237L41.7205 42.2865C41.4635 42.067 41.4335 41.681 41.653 41.4244C41.8725 41.1679 42.2585 41.1379 42.515 41.3574C42.8809 41.6505 43.3452 41.7921 43.8124 41.7537C44.2795 41.7148 44.7143 41.4985 45.0271 41.1496C45.3395 40.7917 45.4966 40.3241 45.4633 39.8504C45.43 39.3767 45.2091 38.9354 44.8498 38.6249L39.8192 34.346L34.6599 30.0671L33.0891 30.8555C31.0485 31.8254 28.6621 31.7344 26.7016 30.6111M35.8826 48.3379L27.9365 41.7124C27.6762 41.4962 27.2907 41.5318 27.0745 41.7917C26.8582 42.0515 26.8934 42.4375 27.1537 42.6537L35.1004 49.2613C35.2106 49.3523 35.349 49.402 35.4916 49.402C35.6702 49.4067 35.8424 49.3331 35.9624 49.2004C36.0661 49.0756 36.1163 48.9147 36.1013 48.7529C36.0863 48.5911 36.0078 48.4416 35.8826 48.3379ZM26.7016 30.6111C26.3784 30.4296 26.1115 30.1623 25.9305 29.8387C25.7495 29.515 25.6608 29.1478 25.6749 28.7773C25.6777 28.4063 25.7809 28.0428 25.9737 27.7253C26.166 27.4077 26.4408 27.1484 26.7687 26.9744M26.7016 30.6111C28.6532 31.726 31.0248 31.8181 33.058 30.8609L34.6288 30.0663L39.788 34.3452L44.8187 38.6242M26.7687 26.9744L28.4496 26.0757C26.937 25.9158 25.4075 26.1254 23.994 26.6868C23.895 26.7262 23.7876 26.7389 23.6821 26.7234L19.9351 26.2159C19.8924 26.2891 19.8497 26.3628 19.8005 26.4359L12.7956 36.7239L14.6294 38.0747L15.0511 37.7384C15.5698 37.3224 16.2199 37.1052 16.8845 37.1263C17.5496 37.1479 18.1846 37.4059 18.6757 37.8547C19.1663 38.3031 19.481 38.9124 19.5622 39.5723C20.1114 39.1385 20.8042 38.9279 21.5025 38.9823C22.2004 39.0367 22.8518 39.3523 23.3274 39.8664C23.803 40.3804 24.0671 41.0544 24.0671 41.7547M26.7687 26.9744L31.493 24.4367C32.197 24.0582 33.0182 23.9601 33.7917 24.1618L40.3323 24.8771L41.8664 23.9784C42.0137 23.8903 42.1909 23.8682 42.3556 23.917C42.5188 23.9667 42.6539 24.0816 42.7285 24.235L42.7894 24.3452L49.8801 34.6876C49.9069 34.7275 49.9378 34.7641 49.972 34.7978C50.0884 34.9296 50.1423 35.105 50.1198 35.2795C50.0977 35.4535 50.0016 35.6102 49.8557 35.7087L45.5768 38.6368C45.4741 38.7193 45.3478 38.7663 45.216 38.771M24.0671 41.7547C24.0619 41.0559 23.7944 40.3846 23.317 39.8743C22.8399 39.364 22.1876 39.0521 21.4911 39.001C20.7942 38.9494 20.1033 39.1628 19.5564 39.5971L18.1503 40.734L18.0954 40.7767L18.0344 40.8499C17.9805 40.9235 17.9186 40.9915 17.8506 41.052L17.7896 41.1069L16.0476 42.4943C16.0073 42.5262 15.9642 42.5548 15.9191 42.5797C15.8628 42.6153 15.8103 42.6589 15.7657 42.7081M24.0671 41.7547C24.069 42.47 23.7935 43.1583 23.2973 43.6738C23.2691 43.7071 23.2363 43.7362 23.1992 43.7596L23.0707 43.8511L20.5709 45.85C20.4902 45.9175 20.4166 45.9935 20.3509 46.0761L20.2595 46.1675L19.5747 46.7177C19.0869 47.1131 18.479 47.3318 17.851 47.3356C17.132 47.3365 16.4407 47.0593 15.9215 46.5617C15.4027 46.0636 15.0965 45.3844 15.0679 44.6659C15.0388 43.9478 15.2883 43.2461 15.7657 42.7081M15.7657 42.7081C15.6063 42.8891 15.5687 43.1466 15.6691 43.3661C15.7695 43.5852 15.989 43.7249 16.2301 43.7226C16.3356 43.7207 16.4388 43.6912 16.5298 43.6372C16.6283 43.5819 16.7226 43.5186 16.8107 43.4478M15.7657 42.7081C15.8666 42.5932 15.9768 42.4867 16.0955 42.3901L18.1432 40.7335C18.3815 40.5337 18.7323 40.5445 18.9579 40.7588C19.1835 40.9732 19.2117 41.3231 19.0236 41.5712C18.927 41.7049 18.8163 41.8277 18.6934 41.938L18.5527 42.0604L16.8107 43.4478M16.8107 43.4478L18.5534 42.0362L18.6941 41.9138C18.7945 41.82 18.8883 41.7201 18.9756 41.6141L20.3081 40.5503C20.6284 40.2905 21.0398 40.1686 21.4506 40.2122C21.861 40.2558 22.2376 40.4612 22.4965 40.783C22.7217 41.0564 22.845 41.4002 22.8445 41.7548C22.8469 42.1403 22.7052 42.5127 22.4473 42.7998L22.3005 42.91L19.8006 44.9089C19.6698 45.0172 19.5469 45.1359 19.4339 45.2635L18.8227 45.7831C18.3542 46.1607 17.7102 46.2348 17.1681 45.9736C16.6259 45.7123 16.2825 45.1621 16.2858 44.5603C16.2844 44.2048 16.405 43.8592 16.6282 43.5824L16.8107 43.4478ZM45.216 38.771C45.0706 38.771 44.9294 38.7189 44.8187 38.6242M45.216 38.771C45.3947 38.771 45.5644 38.6927 45.6808 38.5572C45.7872 38.4329 45.8393 38.2711 45.8257 38.1078C45.8121 37.9446 45.7333 37.7936 45.6071 37.689L40.5703 33.4101M44.8187 38.6242L34.9529 30.3174C34.829 30.2128 34.7516 30.0632 34.7376 29.9014C34.724 29.74 34.7751 29.5791 34.8797 29.4553C34.9852 29.332 35.1348 29.256 35.2966 29.2433C35.4585 29.2307 35.6184 29.2827 35.7417 29.3882L40.5703 33.4101M21.8541 44.7132C21.7247 44.7137 21.5985 44.6729 21.4934 44.5969C21.3382 44.4782 21.242 44.2972 21.2308 44.1021C21.2195 43.9103 21.2988 43.725 21.4446 43.6007L22.325 42.8976C22.3892 42.8432 22.4568 42.7921 22.5267 42.7447C22.7842 42.5707 23.1317 42.6181 23.3334 42.855C23.5398 43.0867 23.5398 43.4361 23.3334 43.6678C23.2513 43.7592 23.1613 43.8427 23.0646 43.9187L22.2331 44.5786C22.1257 44.6649 21.992 44.7123 21.8541 44.7132ZM18.2844 42.0968C18.1653 42.0912 18.0508 42.0509 17.9542 41.9805C17.7957 41.8628 17.6953 41.6827 17.6794 41.4852C17.6611 41.292 17.7361 41.1016 17.8811 40.9721L18.1747 40.7339C18.4134 40.5341 18.7633 40.5444 18.9889 40.7587C19.2145 40.9731 19.2426 41.323 19.0546 41.5711C18.9579 41.7047 18.8472 41.8276 18.7244 41.9378C18.6048 42.0471 18.4462 42.1043 18.2844 42.0968ZM16.8048 38.3373C16.4493 38.3359 16.1041 38.4574 15.8269 38.6797L14.085 40.0671C13.7037 40.3589 13.4781 40.81 13.4734 41.2899C13.4766 41.8438 13.7721 42.3546 14.2505 42.6336C14.7289 42.9122 15.319 42.9173 15.8025 42.6472C15.8842 42.5595 15.9723 42.4779 16.0652 42.4024L18.0581 40.7945C18.2373 40.5337 18.333 40.2251 18.333 39.9085C18.3344 39.1107 17.7331 38.4404 16.9396 38.356L16.8048 38.3373ZM19.8922 46.3017C19.6464 46.3111 19.4189 46.1727 19.3148 45.9495C19.2107 45.7267 19.2501 45.4636 19.4152 45.2811C19.5376 45.131 19.675 44.9941 19.8246 44.8716L22.3245 42.8727L22.5323 42.7198C22.7897 42.5458 23.1378 42.5932 23.3394 42.8301C23.5458 43.0618 23.5458 43.4112 23.3394 43.6429C23.2574 43.7343 23.1673 43.8178 23.0707 43.8933L20.2772 46.1675C20.1679 46.2548 20.0319 46.3026 19.8922 46.3017ZM21.5791 49.8413C21.4792 49.8479 21.3793 49.8479 21.2794 49.8413C20.5445 49.7658 19.8705 49.3976 19.409 48.8207C19.0136 48.3236 18.7983 47.7073 18.7979 47.0723C18.7913 46.4325 19.0075 45.8101 19.409 45.3121C19.4343 45.2806 19.4629 45.252 19.4948 45.2267L22.27 42.9833C22.3221 42.9416 22.3708 42.8966 22.4163 42.8487C22.4464 42.8131 22.4815 42.7826 22.5205 42.7568C23.3169 42.2263 24.3299 42.1424 25.2028 42.5345C26.0756 42.927 26.6854 43.7403 26.8171 44.6883C26.9489 45.6362 26.5845 46.5855 25.8519 47.2008L23.3337 49.2181C22.8384 49.622 22.2184 49.8423 21.5791 49.8413ZM20.3564 46.1248C19.9263 46.6975 19.9418 47.4887 20.3929 48.0445C20.65 48.3676 21.0271 48.5731 21.4384 48.6129C21.8488 48.6552 22.2592 48.5346 22.5814 48.2767L25.0264 46.296H25.0629C25.4274 45.9953 25.6366 45.546 25.6314 45.0737C25.6314 44.5113 25.328 43.9926 24.8378 43.7163C24.3477 43.4405 23.7473 43.4499 23.2661 43.7412C23.199 43.8082 23.1254 43.8697 23.0522 43.9306L20.3564 46.1248ZM25.4418 52.3113C25.3423 52.3178 25.2419 52.3178 25.1425 52.3113C24.4615 52.2405 23.8306 51.9206 23.3715 51.4126C22.9123 50.9052 22.6567 50.2452 22.6544 49.5609C22.6544 48.7204 23.0343 47.925 23.6876 47.3969L25.4357 46.0095C26.0093 45.5475 26.7424 45.3318 27.4745 45.4096C28.2071 45.4875 28.8782 45.8529 29.3417 46.4251C29.7342 46.9105 29.9519 47.5141 29.9594 48.1385C29.9673 48.7627 29.7647 49.3716 29.3844 49.8664C29.2488 50.0432 29.0931 50.2031 28.92 50.3434L27.1842 51.6941C26.6917 52.0942 26.0764 52.3122 25.4418 52.3113ZM27.1715 46.5836C26.8169 46.5846 26.474 46.7079 26.1997 46.9326L24.4516 48.3382C24.0848 48.6379 23.8737 49.0872 23.877 49.561C23.877 49.9175 23.9999 50.2627 24.2255 50.5389C24.482 50.8625 24.8596 51.0675 25.2705 51.1074C25.6832 51.1519 26.0964 51.0314 26.42 50.7711L28.1559 49.3837C28.2525 49.3053 28.3407 49.2172 28.4185 49.1205C28.624 48.8471 28.7351 48.515 28.7365 48.1731C28.7346 47.3777 28.1338 46.7112 27.3431 46.6268L27.1715 46.5836ZM50.6875 36.3576C50.0684 36.36 49.478 36.1002 49.0614 35.6424C48.9944 35.5692 48.939 35.4956 48.8781 35.4163L41.7935 25.0557C41.7382 24.9726 41.687 24.8868 41.6406 24.7986C41.4061 24.3249 41.3498 23.7827 41.4821 23.2705C41.6148 22.7588 41.9267 22.3118 42.362 22.0112L45.5466 19.8289C46.0273 19.4991 46.6192 19.3748 47.1923 19.4813C47.765 19.5878 48.2725 19.9175 48.6027 20.3978L55.6934 30.7523C56.0245 31.2326 56.1507 31.825 56.0437 32.3986C55.9373 32.9722 55.6066 33.4792 55.1249 33.8084L51.9403 35.9908C51.5689 36.2356 51.1322 36.3633 50.6875 36.3576ZM46.7754 20.667C46.5789 20.667 46.3871 20.727 46.2253 20.8382L43.0158 23.0206C42.6261 23.2959 42.4915 23.8123 42.6983 24.2429L42.7654 24.3592L49.8561 34.7016C49.8828 34.7415 49.9138 34.778 49.948 34.8118C50.2735 35.1655 50.8087 35.2278 51.2068 34.9586L54.3914 32.7762C54.8299 32.4723 54.9416 31.8724 54.6423 31.4316L47.576 21.0887C47.3954 20.8242 47.0958 20.666 46.7754 20.667ZM10.9002 37.7876C10.4631 37.7839 10.0372 37.6497 9.6774 37.4026L6.49881 35.2202C6.01666 34.8966 5.686 34.3914 5.58187 33.8202C5.47118 33.2484 5.59454 32.6565 5.92426 32.1763L13.015 21.8278C13.3451 21.3475 13.8526 21.0178 14.4253 20.9113C14.9984 20.8044 15.5903 20.9296 16.0711 21.2589L19.2557 23.4412C19.6117 23.6912 19.8846 24.0421 20.0404 24.4478C20.1961 24.8539 20.2275 25.2971 20.1299 25.7211C20.0633 25.9945 19.9475 26.2534 19.7875 26.4851L12.7091 36.834C12.5881 37.0038 12.4464 37.1576 12.2875 37.2923C11.8968 37.614 11.4063 37.7895 10.9002 37.7876ZM39.4827 46.5036C39.3396 46.504 39.2012 46.4543 39.091 46.3633L30.7233 39.3275C30.599 39.2229 30.5216 39.0733 30.508 38.9119C30.4944 38.7501 30.5451 38.5897 30.6496 38.4654C30.8677 38.2075 31.2533 38.1746 31.5117 38.3923L39.8799 45.422C40.0793 45.5871 40.1529 45.86 40.0638 46.103C39.9742 46.3464 39.7416 46.5068 39.4827 46.5036ZM42.105 42.4212C41.9633 42.4231 41.8264 42.3729 41.7199 42.2805L34.9163 36.724C34.762 36.634 34.655 36.4806 34.6232 36.3047C34.5917 36.1289 34.6382 35.9478 34.7517 35.8094C34.8647 35.6711 35.0326 35.589 35.2113 35.5853C35.39 35.581 35.5612 35.6556 35.6803 35.7888L42.4834 41.3392C42.6809 41.5029 42.7559 41.7731 42.6697 42.0146C42.5834 42.2567 42.3554 42.4189 42.0989 42.4213L42.105 42.4212ZM55.8889 57H5.59429C4.28145 56.9981 3.02313 56.4761 2.09487 55.5479C1.16668 54.6197 0.644675 53.3613 0.643234 52.0484V7.95178C0.644641 6.63894 1.16666 5.38062 2.09487 4.45236C3.02307 3.52417 4.28145 3.00217 5.59429 3.00024H55.8889C57.2013 3.00353 58.4586 3.52648 59.3864 4.45416C60.3146 5.38189 60.8371 6.6393 60.8403 7.95166V52.0483C60.8371 53.3607 60.3146 54.618 59.3864 55.5458C58.4587 56.4735 57.2013 56.9967 55.8889 57ZM5.59429 4.22351C4.60606 4.22492 3.65865 4.61843 2.95937 5.31727C2.26053 6.01611 1.86748 6.96402 1.86561 7.95219V52.0488C1.86749 53.0371 2.26053 53.985 2.95937 54.6838C3.65868 55.3826 4.60612 55.7761 5.59429 55.7775H55.8889C56.8776 55.7761 57.825 55.3826 58.5238 54.6838C59.2227 53.9849 59.6162 53.037 59.6176 52.0488V7.95219C59.6162 6.96396 59.2227 6.01607 58.5238 5.31727C57.825 4.61843 56.8776 4.22491 55.8889 4.22351H5.59429ZM60.3267 13.6177H1.35225C1.01502 13.6177 0.741119 13.3443 0.741119 13.0066V7.95142C0.744402 6.63906 1.26689 5.38169 2.19504 4.45392C3.12277 3.52619 4.38018 3.00324 5.69254 3H55.9872C57.3 3.00188 58.5583 3.5239 59.4866 4.45212C60.4148 5.38031 60.9368 6.6387 60.9382 7.95154V13.0067C60.9382 13.169 60.874 13.3242 60.7595 13.4391C60.6446 13.5536 60.489 13.6177 60.3267 13.6177ZM1.9634 12.3949H59.7155V7.95139C59.7137 6.96316 59.3206 6.01528 58.6218 5.31647C57.9225 4.61763 56.975 4.22412 55.9869 4.22271H5.69223C4.70353 4.22412 3.75611 4.61763 3.0573 5.31647C2.35846 6.01531 1.96495 6.96322 1.96354 7.95139L1.9634 12.3949ZM9.39689 8.92306H6.83605C6.49836 8.92306 6.22444 8.64963 6.22444 8.31193C6.22444 7.97424 6.49835 7.70081 6.83605 7.70081H9.39689C9.73458 7.70081 10.0085 7.97424 10.0085 8.31193C10.0085 8.64963 9.7346 8.92306 9.39689 8.92306ZM16.0595 8.92306H13.48C13.1428 8.92306 12.8689 8.64963 12.8689 8.31193C12.8689 7.97424 13.1428 7.70081 13.48 7.70081H16.0595C16.3972 7.70081 16.6707 7.97424 16.6707 8.31193C16.6707 8.64963 16.3972 8.92306 16.0595 8.92306ZM22.7042 8.92306H20.1246C19.7869 8.92306 19.5135 8.64963 19.5135 8.31193C19.5135 7.97424 19.7869 7.70081 20.1246 7.70081H22.7042C23.0414 7.70081 23.3153 7.97424 23.3153 8.31193C23.3153 8.64963 23.0414 8.92306 22.7042 8.92306ZM54.8443 8.92306H36.158C35.8203 8.92306 35.5463 8.64963 35.5463 8.31193C35.5463 7.97424 35.8202 7.70081 36.158 7.70081H54.8443C55.182 7.70081 55.4555 7.97424 55.4555 8.31193C55.4555 8.64963 55.182 8.92306 54.8443 8.92306Z" stroke="#0CB4C4" stroke-width="0.5"></path></svg>