<svg width="44" height="60" viewBox="0 0 44 60" fill="none" xmlns="http://www.w3.org/2000/svg"><path d="M21.5732 6.49878C19.6092 6.49878 17.6784 7.01946 15.9904 8.00481C15.5137 8.28282 15.3524 8.8955 15.6311 9.37284C15.9091 9.84952 16.5211 10.0109 16.9991 9.73218C18.3811 8.9255 19.9632 8.49882 21.5732 8.49882C26.5826 8.49882 30.6574 12.5742 30.6574 17.583C30.6574 19.1684 30.2434 20.7291 29.4594 22.0958C29.1847 22.5751 29.35 23.1858 29.8294 23.4605C29.9861 23.5505 30.1574 23.5932 30.3261 23.5932C30.6727 23.5932 31.0094 23.4125 31.1947 23.0905C32.1521 21.4218 32.6574 19.5171 32.6574 17.583C32.6574 11.4716 27.6853 6.49878 21.5732 6.49878Z" fill="#0CB4C4"></path><path d="M25.726 25.6659C24.4339 26.3305 23.0372 26.6679 21.5732 26.6679C16.5638 26.6679 12.489 22.5924 12.489 17.5837C12.489 15.8496 12.979 14.1643 13.9057 12.7089C14.2024 12.2429 14.0657 11.6249 13.5997 11.3282C13.1343 11.0322 12.5163 11.1689 12.219 11.6342C11.087 13.4109 10.489 15.4676 10.489 17.5837C10.489 23.6958 15.4611 28.6679 21.5732 28.6679C23.3332 28.6679 25.0859 28.2446 26.6413 27.4439C27.132 27.1912 27.3253 26.5885 27.0727 26.0972C26.8193 25.6065 26.2173 25.4125 25.726 25.6659Z" fill="#0CB4C4"></path><path d="M28.1147 14.365H24.7853V11.0423C24.7853 10.4896 24.3379 10.0422 23.7853 10.0422H19.3545C18.8018 10.0422 18.3545 10.4896 18.3545 11.0423V14.365H15.0317C14.4791 14.365 14.0317 14.8123 14.0317 15.365V19.7958C14.0317 20.3485 14.4791 20.7958 15.0317 20.7958H18.3545V24.1252C18.3545 24.6779 18.8018 25.1252 19.3545 25.1252H23.7853C24.3379 25.1252 24.7853 24.6779 24.7853 24.1252V20.7958H28.1147C28.6674 20.7958 29.1147 20.3485 29.1147 19.7958V15.365C29.1147 14.813 28.6674 14.365 28.1147 14.365ZM27.1147 18.7958H23.7853C23.2326 18.7958 22.7852 19.2431 22.7852 19.7958V23.1252H20.3545V19.7958C20.3545 19.2431 19.9072 18.7958 19.3545 18.7958H16.0318V16.365H19.3545C19.9072 16.365 20.3545 15.9177 20.3545 15.365V12.0423H22.7852V15.365C22.7852 15.9177 23.2326 16.365 23.7853 16.365H27.1147V18.7958Z" fill="#0CB4C4"></path><path d="M21.5712 3.1234C19.2025 1.10269 16.2244 0 13.0863 0C9.5916 0 6.30553 1.36136 3.83347 3.83342C-1.22464 8.89153 -1.26398 17.1464 3.74014 22.2498C3.7688 22.2818 3.7988 22.3132 3.83347 22.3472L20.8645 39.3782C21.0599 39.5735 21.3159 39.6709 21.5719 39.6709C21.8279 39.6709 22.0839 39.5735 22.2792 39.3782L39.3143 22.3472L39.3843 22.2778C41.811 19.8171 43.1477 16.5544 43.1477 13.0903C43.1477 9.58888 41.7863 6.30081 39.3143 3.83342C34.4722 -1.00936 26.7033 -1.25203 21.5712 3.1234ZM37.9689 20.8631L21.5712 37.2568L5.24617 20.9338C5.2275 20.9111 5.20817 20.8898 5.1875 20.8691C0.928741 16.547 0.955407 9.53888 5.24684 5.24678C7.34155 3.15274 10.1249 1.99938 13.0857 1.99938C16.0137 1.99938 18.7785 3.13274 20.8692 5.19145C21.2585 5.57546 21.8832 5.57479 22.2725 5.19078C26.594 0.928021 33.6041 0.953354 37.8982 5.24678L37.8989 5.24745C39.9923 7.3375 41.1456 10.1229 41.1456 13.0896C41.1463 16.025 40.0143 18.7891 37.9689 20.8631Z" fill="#0CB4C4"></path><path d="M42.937 27.72C42.917 27.164 42.689 26.6413 42.295 26.246C41.8736 25.8253 41.2816 25.5953 40.6789 25.6053C38.6629 25.672 37.0729 27.3673 37.1342 29.386L37.2335 32.4501L36.7689 34.3328C36.1162 34.3842 35.5075 34.6495 35.0415 35.1162L31.6554 38.5049L30.5514 38.6956C29.708 38.8389 28.942 39.2349 28.3367 39.8403L25.9593 42.2177C25.2059 42.971 24.7779 43.971 24.7526 45.0344L24.6686 48.7798C23.5426 49.2385 22.7479 50.3278 22.7339 51.6152L22.6785 56.7747C22.6699 57.6007 22.9846 58.3827 23.5652 58.9754C24.1459 59.568 24.9206 59.9001 25.7466 59.9087L34.3068 60.0001C34.3181 60.0001 34.3295 60.0001 34.3408 60.0001C35.1542 60.0001 35.9228 59.686 36.5075 59.1134C37.1009 58.5327 37.4322 57.758 37.4409 56.932L37.4962 51.7725C37.5095 50.5138 36.7649 49.4252 35.6908 48.9278C35.8268 48.1531 36.1848 47.4498 36.7415 46.8924L40.757 42.877C41.8296 41.8043 42.507 40.387 42.6643 38.8863L43.0903 34.8442C43.1177 34.6988 43.1337 34.5488 43.1377 34.3935L43.1397 34.3768C43.1403 34.3675 43.139 34.3588 43.1397 34.3502C43.1403 34.3128 43.145 34.2782 43.1443 34.2402L42.937 27.72ZM35.4408 56.9107C35.4342 57.518 34.9362 57.9833 34.3281 58L25.7686 57.908C25.4766 57.9053 25.2019 57.7867 24.9953 57.5753C24.7879 57.364 24.6759 57.0867 24.6793 56.7953L24.7346 51.6359C24.7373 51.3439 24.8559 51.0692 25.0673 50.8625C25.2759 50.6585 25.5486 50.5465 25.836 50.5465C25.84 50.5465 25.844 50.5465 25.848 50.5465L34.4075 50.6385C34.6995 50.6412 34.9742 50.7599 35.1808 50.9712C35.3882 51.1825 35.5002 51.4599 35.4968 51.7512L35.4408 56.9107ZM40.6756 38.6776C40.5656 39.7243 40.0929 40.7136 39.3429 41.463L35.3275 45.4784C34.4788 46.3271 33.9128 47.4431 33.7135 48.6305L26.674 48.5551L26.752 45.0797C26.7646 44.5337 26.9853 44.0197 27.3733 43.6317L29.7507 41.2543C30.0567 40.9483 30.4601 40.7403 30.8894 40.667L32.3088 40.4216C32.3794 40.4096 32.4468 40.3896 32.5108 40.3636C32.5154 40.3616 32.5194 40.359 32.5234 40.357C32.6434 40.307 32.7508 40.235 32.8408 40.1463C32.8421 40.1449 32.8441 40.1443 32.8461 40.1429L36.4569 36.5302C36.7375 36.2489 37.2375 36.2489 37.5189 36.5302C37.8116 36.8229 37.8116 37.2996 37.5189 37.5929L33.3708 41.741C32.9801 42.131 32.9801 42.765 33.3708 43.155C33.5661 43.3504 33.8221 43.4477 34.0781 43.4477C34.3341 43.4477 34.5901 43.3504 34.7855 43.155L38.9342 39.0069C40.0063 37.9342 40.0063 36.1882 38.9342 35.1162C38.8576 35.0395 38.7702 34.9788 38.6869 34.9128L39.2096 32.7961C39.2123 32.7848 39.2122 32.7735 39.2142 32.7621C39.2209 32.7288 39.2249 32.6948 39.2289 32.6608C39.2329 32.6261 39.2363 32.5914 39.2363 32.5568C39.2363 32.5454 39.2389 32.5348 39.2383 32.5234L39.1349 29.3234C39.1069 28.406 39.8296 27.6347 40.7349 27.6047C40.8196 27.598 40.861 27.64 40.8823 27.6607C40.9316 27.71 40.9383 27.7593 40.9396 27.788L41.1456 34.2342L41.0976 34.6862C41.0963 34.7028 41.093 34.7195 41.0923 34.7362L40.6756 38.6776Z" fill="#0CB4C4"></path><path d="M34.0888 53.6185C34.7593 53.6185 35.3028 53.0749 35.3028 52.4045C35.3028 51.734 34.7593 51.1904 34.0888 51.1904C33.4183 51.1904 32.8748 51.734 32.8748 52.4045C32.8748 53.0749 33.4183 53.6185 34.0888 53.6185Z" fill="#0CB4C4"></path><path d="M18.4778 48.7771L18.3938 45.033C18.3691 43.9703 17.9405 42.9703 17.1871 42.217L14.8097 39.8396C14.2044 39.2342 13.4384 38.8382 12.5977 38.6956L11.491 38.5042L8.1049 35.1155C7.63889 34.6495 7.03021 34.3841 6.37753 34.3328L5.91219 32.4501L6.01152 29.384C6.07286 27.3666 4.48282 25.6713 2.45544 25.6046C1.85676 25.5906 1.27209 25.8253 0.84941 26.2466C0.456068 26.6406 0.228729 27.1633 0.208729 27.724L5.75403e-05 34.2515C-0.000609141 34.2901 0.00472392 34.3275 0.00539061 34.3655C0.00605729 34.3695 0.00472392 34.3728 0.00539061 34.3768L0.00605692 34.3841C0.010057 34.5415 0.026724 34.6955 0.0547246 34.8461L0.480734 38.8862C0.637404 40.3876 1.31475 41.805 2.38811 42.877L6.40353 46.8924C6.96155 47.4504 7.31955 48.1544 7.45489 48.9278C6.38087 49.4251 5.63552 50.5138 5.64885 51.7725L5.70418 56.932C5.71285 57.758 6.04486 58.5327 6.63754 59.1133C7.22288 59.686 7.9909 60 8.80425 60C8.81559 60 8.82692 60 8.83825 60L17.3978 59.908C18.2238 59.8994 18.9985 59.5673 19.5792 58.9747C20.1598 58.382 20.4745 57.6 20.4658 56.774L20.4105 51.6145C20.3985 50.3291 19.5992 49.2351 18.4778 48.7771ZM3.80281 41.4623C3.05279 40.7129 2.58011 39.7242 2.47011 38.6769L2.05477 34.7368C2.0541 34.7201 2.05077 34.7035 2.04944 34.6868L2.00143 34.2348L2.20744 27.792C2.20877 27.7586 2.21611 27.7093 2.26411 27.6613C2.28611 27.6393 2.32811 27.604 2.40144 27.604C3.31813 27.634 4.04081 28.4053 4.01281 29.3213L3.90881 32.5234C3.90814 32.5347 3.91081 32.5454 3.91081 32.5567C3.91081 32.5914 3.91414 32.6261 3.91814 32.6608C3.92148 32.6948 3.92548 32.7288 3.93281 32.7621C3.93548 32.7734 3.93481 32.7848 3.93748 32.7961L4.46016 34.9128C4.37682 34.9788 4.28949 35.0395 4.21348 35.1161C3.14079 36.1882 3.14079 37.9342 4.21348 39.0069L8.36158 43.155C8.55691 43.3503 8.81292 43.4477 9.06893 43.4477C9.32493 43.4477 9.58094 43.3503 9.77627 43.155C10.1669 42.765 10.1669 42.131 9.77627 41.741L5.62818 37.5929C5.33551 37.3002 5.33551 36.8235 5.62818 36.5302C5.90886 36.2488 6.40953 36.2495 6.69021 36.5302L10.301 40.1436C10.3023 40.1449 10.3043 40.1456 10.3063 40.1469C10.3956 40.2356 10.503 40.3076 10.623 40.3576C10.6276 40.3596 10.6316 40.3623 10.6356 40.3643C10.6996 40.3903 10.767 40.4096 10.8376 40.4223L12.2597 40.6683C12.6857 40.7403 13.089 40.9489 13.395 41.2549L15.7724 43.6323C16.1604 44.0203 16.3811 44.535 16.3938 45.0797L16.4718 48.5558L9.43293 48.6304C9.23426 47.4451 8.66825 46.3277 7.81823 45.4784L3.80281 41.4623ZM18.1518 57.5753C17.9445 57.7866 17.6704 57.9053 17.3784 57.908L8.81825 58C8.81425 58 8.81025 58 8.80625 58C8.20491 58 7.71156 57.514 7.70556 56.9106L7.65023 51.7512C7.64689 51.4592 7.75956 51.1818 7.96623 50.9712C8.17357 50.7598 8.44758 50.6412 8.73958 50.6385L17.2991 50.5465C17.5991 50.5418 17.8678 50.6558 18.0791 50.8625C18.2905 51.0698 18.4091 51.3438 18.4118 51.6358L18.4671 56.7953C18.4711 57.0866 18.3585 57.364 18.1518 57.5753Z" fill="#0CB4C4"></path><path d="M9.05759 53.6185C9.72808 53.6185 10.2716 53.0749 10.2716 52.4045C10.2716 51.734 9.72808 51.1904 9.05759 51.1904C8.3871 51.1904 7.84357 51.734 7.84357 52.4045C7.84357 53.0749 8.3871 53.6185 9.05759 53.6185Z" fill="#0CB4C4"></path></svg>