<svg version="1.1" id="Layer_1" xmlns="http://www.w3.org/2000/svg" xmlns:xlink="http://www.w3.org/1999/xlink" x="0px" y="0px" width="41.2px" height="60px" viewBox="0 0 41.2 60" style="enable-background:new 0 0 41.2 60;" xml:space="preserve"><g><path style="fill:#0CB4C4;" d="M40.168,6.2H32.29c-0.516-1.744-2.133-2.972-4.004-2.972h-3.359C24.346,1.356,22.602,0,20.6,0 c-2.002,0-3.746,1.356-4.327,3.229h-3.358c-1.872,0-3.488,1.228-4.004,2.972H1.03c-0.517,0-0.968,0.451-0.968,0.97v51.86 c0,0.518,0.451,0.97,0.968,0.97h39.138c0.518,0,0.969-0.452,0.969-0.97V7.17C41.137,6.651,40.686,6.2,40.168,6.2z M10.719,7.362 c0-0.064,0-0.13,0-0.13l0,0l0,0c0.064-1.161,1.032-2.065,2.195-2.065h4.133c0.518,0,0.905-0.389,0.97-0.904 c0.129-1.293,1.228-2.325,2.583-2.325c1.356,0,2.456,1.032,2.583,2.325c0.064,0.516,0.453,0.904,0.971,0.904h4.133 c1.162,0,2.131,0.904,2.195,2.065l0,0c0,0.065,0,0.13,0,0.13v0.774H10.719V7.362z M39.2,58.062H1.999V8.137h6.717v0.97 c0,0.517,0.452,0.969,0.97,0.969H31.45c0.518,0,0.969-0.452,0.969-0.969v-0.97h6.717v49.925H39.2z"></path><path style="fill:#0CB4C4;" d="M30.803,49.215H16.918c-0.517,0-0.969,0.452-0.969,0.967c0,0.518,0.452,0.97,0.969,0.97h13.885 c0.518,0,0.971-0.452,0.971-0.97C31.774,49.667,31.321,49.215,30.803,49.215z"></path><path style="fill:#0CB4C4;" d="M34.487,43.401H16.918c-0.517,0-0.969,0.452-0.969,0.969s0.452,0.968,0.969,0.968h17.569 c0.516,0,0.967-0.451,0.967-0.968S35.002,43.401,34.487,43.401z"></path><path style="fill:#0CB4C4;" d="M16.918,37.589h13.885c0.518,0,0.971-0.452,0.971-0.971c0-0.515-0.453-0.967-0.971-0.967H16.918 c-0.517,0-0.969,0.452-0.969,0.967C15.949,37.137,16.401,37.589,16.918,37.589z"></path><path style="fill:#0CB4C4;" d="M34.487,29.839H16.918c-0.517,0-0.969,0.451-0.969,0.968s0.452,0.969,0.969,0.969h17.569 c0.516,0,0.967-0.452,0.967-0.969S35.002,29.839,34.487,29.839z"></path><path style="fill:#0CB4C4;" d="M16.918,24.025h13.885c0.518,0,0.971-0.452,0.971-0.969c0-0.516-0.453-0.968-0.971-0.968H16.918 c-0.517,0-0.969,0.452-0.969,0.968C15.949,23.573,16.401,24.025,16.918,24.025z"></path><path style="fill:#0CB4C4;" d="M15.949,17.244c0,0.517,0.452,0.968,0.969,0.968h17.569c0.516,0,0.967-0.451,0.967-0.968 s-0.451-0.969-0.967-0.969H16.918C16.401,16.275,15.949,16.728,15.949,17.244z"></path><path style="fill:#0CB4C4;" d="M13.107,16.662c-0.452-0.322-1.033-0.193-1.356,0.194l-3.1,4.328l-1.163-1.616 c-0.323-0.452-0.903-0.515-1.355-0.193c-0.452,0.323-0.517,0.904-0.194,1.356l1.938,2.713c0.193,0.258,0.452,0.387,0.775,0.387 c0.322,0,0.581-0.129,0.774-0.387l3.876-5.425C13.625,17.567,13.56,16.985,13.107,16.662z"></path><path style="fill:#0CB4C4;" d="M13.107,30.225c-0.452-0.321-1.033-0.193-1.356,0.194l-3.1,4.327l-1.163-1.615 c-0.323-0.451-0.903-0.516-1.355-0.192s-0.517,0.903-0.194,1.355l1.938,2.714c0.193,0.257,0.452,0.386,0.775,0.386 c0.322,0,0.581-0.129,0.774-0.386l3.876-5.426C13.625,31.13,13.56,30.548,13.107,30.225z"></path><path style="fill:#0CB4C4;" d="M13.107,43.788c-0.452-0.322-1.033-0.193-1.356,0.194l-3.1,4.327l-1.163-1.615 c-0.323-0.452-0.903-0.517-1.355-0.193c-0.452,0.322-0.517,0.904-0.194,1.356l1.938,2.713c0.193,0.258,0.452,0.387,0.775,0.387 c0.322,0,0.581-0.129,0.774-0.387l3.876-5.427C13.625,44.691,13.56,44.111,13.107,43.788z"></path></g></svg>