<svg version="1.1" id="Layer_1" xmlns="http://www.w3.org/2000/svg" xmlns:xlink="http://www.w3.org/1999/xlink" x="0px" y="0px" width="60px" height="60px" viewBox="0 0 60 60" style="enable-background:new 0 0 60 60;" xml:space="preserve"><g><path style="fill:#0CB4C4;" d="M27.188,3.751h-22.5c-0.518,0-0.937,0.419-0.937,0.937v14.063c0,0.517,0.419,0.937,0.937,0.937h22.5 c0.518,0,0.937-0.42,0.937-0.937V4.688C28.124,4.17,27.705,3.751,27.188,3.751z M26.25,17.812H5.625V5.625H26.25V17.812z"></path><path style="fill:#0CB4C4;" d="M20.624,26.25h-1.105l-0.563-2.813h10.107c1.552,0,2.813-1.26,2.813-2.813V2.813 C31.876,1.26,30.615,0,29.063,0H2.813C1.26,0,0,1.26,0,2.813v17.811c0,1.554,1.26,2.813,2.813,2.813h10.105l-0.563,2.813h-1.105 c-1.554,0-2.813,1.26-2.813,2.813c0,1.552,1.259,2.813,2.813,2.813h9.373c1.554,0,2.813-1.261,2.813-2.813 C23.438,27.51,22.178,26.25,20.624,26.25z M1.875,20.624V2.813c0-0.518,0.421-0.938,0.938-0.938h26.25 C29.579,1.875,30,2.296,30,2.813v17.811c0,0.519-0.421,0.939-0.937,0.939H2.813C2.296,21.563,1.875,21.143,1.875,20.624z M14.831,23.438h2.213l0.562,2.813H14.27L14.831,23.438z M20.624,30h-9.373c-0.519,0-0.939-0.421-0.939-0.937 c0-0.519,0.421-0.939,0.939-0.939h9.373c0.519,0,0.939,0.421,0.939,0.939C21.563,29.579,21.143,30,20.624,30z"></path><path style="fill:#0CB4C4;" d="M57.187,28.124h-26.25c-1.552,0-2.813,1.261-2.813,2.813v17.813c0,1.553,1.261,2.813,2.813,2.813 h10.107l-0.563,2.813h-1.104c-1.554,0-2.813,1.259-2.813,2.812c0,1.554,1.26,2.813,2.813,2.813h9.373 c1.553,0,2.813-1.26,2.813-2.813c0-1.553-1.26-2.812-2.813-2.812h-1.105l-0.563-2.813h10.105c1.554,0,2.813-1.26,2.813-2.813 V30.937C60,29.385,58.74,28.124,57.187,28.124z M49.688,57.187c0,0.518-0.42,0.938-0.938,0.938h-9.373 c-0.519,0-0.939-0.421-0.939-0.938s0.421-0.938,0.939-0.938h9.373C49.268,56.249,49.688,56.669,49.688,57.187z M45.73,54.375 h-3.336l0.562-2.813h2.213L45.73,54.375z M58.125,48.749c0,0.519-0.421,0.938-0.938,0.938h-26.25c-0.517,0-0.937-0.42-0.937-0.938 V30.937C30,30.42,30.42,30,30.937,30h26.25c0.518,0,0.938,0.42,0.938,0.937V48.749z"></path><path style="fill:#0CB4C4;" d="M55.313,31.876h-22.5c-0.518,0-0.937,0.419-0.937,0.937v14.062c0,0.518,0.419,0.938,0.937,0.938 h22.5c0.518,0,0.937-0.421,0.937-0.938V32.813C56.249,32.295,55.83,31.876,55.313,31.876z M54.375,45.937H33.75V33.75h20.625 V45.937z"></path><path style="fill:#0CB4C4;" d="M43.396,15.666c0.365,0.367,0.959,0.37,1.327,0.006c0.001-0.002,0.002-0.005,0.005-0.006 c0.367-0.364,0.37-0.958,0.005-1.326c-0.003-0.002-0.004-0.004-0.005-0.005l-2.156-2.147H52.5c0.518,0,0.937,0.421,0.937,0.938 V22.5c0,0.519,0.421,0.938,0.938,0.938c0.517,0,0.938-0.419,0.938-0.938v-9.375c0-1.553-1.259-2.813-2.813-2.813h-9.928 l2.156-2.145c0.367-0.368,0.367-0.965,0-1.332c-0.368-0.367-0.965-0.367-1.332,0l-3.75,3.749c-0.368,0.365-0.369,0.959-0.005,1.326 c0.001,0.003,0.004,0.004,0.005,0.006L43.396,15.666z"></path><path style="fill:#0CB4C4;" d="M17.54,44.334c-0.367-0.367-0.963-0.367-1.33,0c-0.368,0.368-0.368,0.963,0,1.331l2.156,2.147H8.438 c-0.519,0-0.938-0.421-0.938-0.938V37.5c0-0.519-0.42-0.938-0.937-0.938c-0.519,0-0.938,0.419-0.938,0.938v9.374 c0,1.554,1.261,2.813,2.813,2.813h9.928l-2.156,2.146c-0.368,0.365-0.37,0.959-0.006,1.327c0.002,0.002,0.004,0.003,0.006,0.005 c0.363,0.367,0.957,0.37,1.325,0.005c0.002-0.001,0.004-0.003,0.005-0.005l3.751-3.749c0.368-0.365,0.37-0.959,0.006-1.327 c-0.003-0.002-0.004-0.004-0.006-0.005L17.54,44.334z"></path></g></svg>