<svg xmlns="http://www.w3.org/2000/svg" width="62" height="60" viewBox="0 0 62 60" fill="none"><path d="M50.5681 44.607C50.5681 45.0158 50.2406 45.3459 49.8292 45.3459C49.4205 45.3459 49.0904 45.0184 49.0904 44.607C49.0904 44.1983 49.4179 43.8682 49.8292 43.8682C50.238 43.8682 50.5681 44.1957 50.5681 44.607ZM46.9734 43.8682C46.5646 43.8682 46.2345 44.1957 46.2345 44.607C46.2345 45.0158 46.562 45.3459 46.9734 45.3459C47.3821 45.3459 47.7123 45.0184 47.7123 44.607C47.7096 44.1957 47.3821 43.8682 46.9734 43.8682ZM44.1149 43.8682C43.7061 43.8682 43.376 44.1957 43.376 44.607C43.376 45.0158 43.7035 45.3459 44.1149 45.3459C44.5236 45.3459 44.8538 45.0184 44.8538 44.607C44.8538 44.1957 44.5184 43.8682 44.1149 43.8682ZM61.7084 10.7792V13.1347C61.7084 13.753 61.2734 14.2744 60.663 14.3818L59.3136 14.6229C59.0935 15.3879 58.7896 16.1242 58.4018 16.8106L59.18 17.9504C59.5285 18.4534 59.4682 19.1372 59.0333 19.5748L57.3695 21.2386C56.9346 21.6735 56.256 21.7338 55.7451 21.3853L54.6184 20.6071C54.4979 20.6753 54.3695 20.7224 54.249 20.7827V44.9555C54.249 46.8262 52.7267 48.3432 50.8612 48.3432L35.3685 48.3406L36.5423 54.579H38.0907C39.5868 54.579 40.7999 55.7921 40.7999 57.2882C40.7999 58.7843 39.5868 59.9974 38.0907 59.9974L16.171 60C14.6749 60 13.4618 58.7869 13.4618 57.2908C13.4618 55.7947 14.6749 54.5816 16.171 54.5816H17.7195L18.8932 48.3432L3.38777 48.3406C1.52231 48.3485 0 46.8262 0 44.9607V10.9415C0 9.0707 1.52224 7.55368 3.38777 7.55368H40.8888C40.9622 7.40696 41.0224 7.25237 41.1089 7.10303L40.3307 5.96331C39.9822 5.46025 40.0425 4.77644 40.4774 4.33884L42.1412 2.67508C42.5761 2.24014 43.2547 2.17988 43.7656 2.52835L44.8923 3.30654C45.5893 2.91878 46.3281 2.61488 47.0853 2.39997L47.3394 1.04541C47.4468 0.442795 47.9761 0 48.5866 0H50.942C51.5604 0 52.0818 0.434934 52.1892 1.04541L52.4303 2.39474L52.2704 3.01308L52.4381 2.41046C53.1953 2.62531 53.9263 2.92662 54.618 3.31703L55.7577 2.53884C56.2608 2.19037 56.9446 2.25063 57.3822 2.68557L59.046 4.34933C59.4809 4.78427 59.5412 5.4629 59.1927 5.9738L58.4145 7.10044C58.8023 7.7974 59.1062 8.53622 59.3211 9.29342L60.6756 9.54757C61.273 9.63927 61.7084 10.1714 61.7084 10.7792ZM38.0856 55.8469H16.1712C15.3721 55.8469 14.7144 56.4967 14.7144 57.3037C14.7144 58.1028 15.3642 58.7604 16.1712 58.7604H38.0856C38.8847 58.7604 39.5424 58.1107 39.5424 57.3037C39.5398 56.4967 38.89 55.8469 38.0856 55.8469ZM34.0874 48.348H20.1749L19.0011 54.5864H35.2531L34.0874 48.348ZM53.0016 44.9602V42.1175H1.26007V44.9602C1.26007 46.134 2.21903 47.093 3.39282 47.093H50.8738C52.0423 47.0878 53.0016 46.134 53.0016 44.9602ZM53.0016 21.3167C52.8129 21.3848 52.6321 21.4582 52.4383 21.5106L52.1841 22.8651C52.0767 23.4678 51.5474 23.9105 50.9369 23.9105H48.5815C47.9632 23.9105 47.4418 23.4756 47.3343 22.8651L47.0933 21.5158C46.3282 21.2957 45.592 20.9918 44.9055 20.604L43.7658 21.3822C43.2628 21.7307 42.5789 21.6704 42.1413 21.2355L40.4776 19.5717C40.0426 19.1368 39.9824 18.4581 40.3308 17.9472L41.109 16.8206C40.7213 16.1236 40.4174 15.3848 40.2025 14.6276L38.8479 14.3735C38.2453 14.266 37.8025 13.7368 37.8025 13.1263V10.7709C37.8025 10.1525 38.2374 9.63113 38.8479 9.52368L40.1972 9.28263C40.2444 9.12281 40.3125 8.96822 40.3649 8.80578L3.38774 8.8084C2.21395 8.8084 1.25499 9.76735 1.25499 10.9411V40.8575H52.9965V21.3168L53.0016 21.3167ZM60.4481 10.7787C60.4481 10.7708 60.4481 10.7708 60.4403 10.7656L59.0909 10.5246C58.6088 10.4381 58.2263 10.0896 58.0927 9.61798C57.904 8.9551 57.642 8.31581 57.3014 7.72106C57.0603 7.29138 57.0866 6.77519 57.3617 6.37174L58.1399 5.2451C58.1477 5.23724 58.1477 5.23724 58.1399 5.232L56.4761 3.56823C56.4682 3.56037 56.4682 3.56037 56.463 3.56823L55.3363 4.34642C54.9328 4.62939 54.4167 4.64773 53.987 4.40668C53.3896 4.07131 52.7451 3.80406 52.0901 3.61541C51.6211 3.48179 51.2726 3.09926 51.1835 2.61715L50.9425 1.26782C50.9425 1.25996 50.9425 1.25996 50.9294 1.25996H48.5739C48.5661 1.25996 48.5661 1.25996 48.5608 1.26782L48.3198 2.61715C48.2333 3.09924 47.8849 3.4818 47.4132 3.61541C46.7503 3.80406 46.111 4.06606 45.5163 4.40668C45.0866 4.64773 44.5704 4.62153 44.167 4.34642L43.0403 3.56823C43.0325 3.56037 43.0325 3.56037 43.0272 3.56823L41.3635 5.232C41.3556 5.23986 41.3556 5.23986 41.3635 5.2451L42.1417 6.37174C42.4246 6.77523 42.443 7.29139 42.2019 7.72106C41.8665 8.31844 41.5993 8.96301 41.4106 9.61798C41.277 10.087 40.8945 10.4355 40.4124 10.5246L39.0631 10.7656C39.0552 10.7656 39.0552 10.7656 39.0552 10.7787V13.1341C39.0552 13.142 39.0552 13.142 39.0631 13.1472L40.4124 13.3883C40.8945 13.4748 41.277 13.8232 41.4106 14.2949C41.5993 14.9577 41.8613 15.597 42.2019 16.1918C42.443 16.6215 42.4168 17.1377 42.1417 17.5411L41.3635 18.6677C41.3556 18.6756 41.3556 18.6756 41.3635 18.6808L43.0272 20.3446C43.0351 20.3525 43.0351 20.3525 43.0403 20.3446L44.167 19.5664C44.3871 19.4118 44.636 19.3385 44.8901 19.3385C45.1049 19.3385 45.3198 19.3909 45.5137 19.5062C46.1111 19.8415 46.7556 20.1088 47.4106 20.2974C47.8796 20.4311 48.2281 20.8136 48.3172 21.2957L48.5582 22.645C48.5582 22.6529 48.5582 22.6529 48.5713 22.6529H50.9268C50.9346 22.6529 50.9346 22.6529 50.9399 22.645L51.1809 21.2957C51.2674 20.8136 51.6158 20.431 52.0875 20.2974C52.7504 20.1088 53.3896 19.8468 53.9844 19.5062C54.4141 19.2651 54.9303 19.2913 55.3337 19.5664L56.4604 20.3446C56.4682 20.3525 56.4682 20.3525 56.4735 20.3446L58.1372 18.6808C58.1451 18.673 58.1451 18.673 58.1372 18.6677L57.359 17.5411C57.0761 17.1376 57.0577 16.6215 57.2988 16.1918C57.6341 15.5944 57.9014 14.9498 58.09 14.2949C58.2237 13.8259 58.6062 13.4774 59.0883 13.3883L60.4376 13.1472C60.4455 13.1472 60.4455 13.1472 60.4455 13.1341L60.4481 10.7787ZM55.6979 11.9603C55.6979 15.2328 53.0359 17.9027 49.7556 17.9027C46.4753 17.9027 43.8132 15.2407 43.8132 11.9603C43.8132 8.68787 46.4753 6.018 49.7556 6.018C53.0359 6.018 55.6979 8.68787 55.6979 11.9603ZM54.4377 11.9603C54.4377 9.37693 52.339 7.27825 49.7556 7.27825C47.1722 7.27825 45.0735 9.37693 45.0735 11.9603C45.0735 14.5438 47.1722 16.6424 49.7556 16.6424C52.339 16.6424 54.4377 14.5438 54.4377 11.9603ZM10.9389 23.0617C11.0594 23.1823 11.2219 23.2504 11.3817 23.2504C11.5415 23.2504 11.704 23.1901 11.8245 23.0617C12.0734 22.8128 12.0734 22.4172 11.8245 22.1709L7.92844 18.2749L11.8245 14.3788C12.0734 14.1299 12.0734 13.7343 11.8245 13.488C11.5756 13.2391 11.18 13.2391 10.9337 13.488L6.58696 17.8347C6.33806 18.0837 6.33806 18.4793 6.58696 18.7256L10.9389 23.0617ZM21.0134 23.0617C21.1339 23.1823 21.2964 23.2504 21.4562 23.2504C21.616 23.2504 21.7785 23.1901 21.899 23.0617L26.2457 18.715C26.4946 18.4661 26.4946 18.0705 26.2457 17.8242L21.899 13.4775C21.6501 13.2286 21.2545 13.2286 21.0082 13.4775C20.7593 13.7264 20.7593 14.122 21.0082 14.3683L24.9042 18.2644L21.0082 22.1604C20.7724 22.4172 20.7724 22.8128 21.0134 23.0617ZM14.6492 24.8984C14.7016 24.9115 14.7567 24.9194 14.8091 24.9194C15.0842 24.9194 15.3383 24.7307 15.4195 24.4504L18.6449 12.4113C18.7313 12.0759 18.5374 11.7275 18.2021 11.641C17.8667 11.5546 17.5182 11.7485 17.4318 12.0838L14.2065 24.1229C14.1121 24.4635 14.3139 24.8041 14.6492 24.8984ZM47.2197 32.5046H34.8579C34.5095 32.5046 34.2265 32.7876 34.2265 33.1361C34.2265 33.4845 34.5095 33.7675 34.8579 33.7675H47.2197C47.5681 33.7675 47.8511 33.4845 47.8511 33.1361C47.8432 32.7876 47.5629 32.5046 47.2197 32.5046ZM38.9977 36.7858H26.8091C26.4606 36.7858 26.1776 37.0688 26.1776 37.4173C26.1776 37.7657 26.4606 38.0487 26.8091 38.0487H39.0031C39.3516 38.0487 39.6345 37.7657 39.6345 37.4173C39.6267 37.0662 39.3462 36.7858 38.9977 36.7858ZM47.2197 28.2258H42.1027C41.7542 28.2258 41.4712 28.5088 41.4712 28.8573C41.4712 29.2057 41.7542 29.4887 42.1027 29.4887H47.2197C47.5681 29.4887 47.8511 29.2057 47.8511 28.8573C47.8432 28.5088 47.5629 28.2258 47.2197 28.2258ZM22.6592 36.7858H13.6907C13.3423 36.7858 13.0593 37.0688 13.0593 37.4173C13.0593 37.7657 13.3423 38.0487 13.6907 38.0487H22.6592C23.0077 38.0487 23.2906 37.7657 23.2906 37.4173C23.288 37.0662 23.0077 36.7858 22.6592 36.7858ZM9.54558 36.7858H7.04339C6.69492 36.7858 6.41195 37.0688 6.41195 37.4173C6.41195 37.7657 6.69492 38.0487 7.04339 38.0487H9.54558C9.89405 38.0487 10.177 37.7657 10.177 37.4173C10.177 37.0662 9.89405 36.7858 9.54558 36.7858ZM9.54558 32.5046H7.04339C6.69492 32.5046 6.41195 32.7876 6.41195 33.1361C6.41195 33.4845 6.69492 33.7675 7.04339 33.7675H9.54558C9.89405 33.7675 10.177 33.4845 10.177 33.1361C10.177 32.7876 9.89405 32.5046 9.54558 32.5046ZM7.04339 29.4863H15.7496C16.0981 29.4863 16.381 29.2033 16.381 28.8549C16.381 28.5064 16.0981 28.2234 15.7496 28.2234L7.04339 28.226C6.69492 28.226 6.41195 28.509 6.41195 28.8575C6.41195 29.2059 6.69492 29.4863 7.04339 29.4863ZM19.9028 29.4863H37.9604C38.3089 29.4863 38.5919 29.2033 38.5919 28.8549C38.5919 28.5064 38.3089 28.2234 37.9604 28.2234L19.9028 28.226C19.5543 28.226 19.2714 28.509 19.2714 28.8575C19.2714 29.2059 19.5517 29.4863 19.9028 29.4863ZM13.6906 32.5046C13.3421 32.5046 13.0592 32.7876 13.0592 33.1361C13.0592 33.4845 13.3421 33.7675 13.6906 33.7675H30.7133C31.0618 33.7675 31.3447 33.4845 31.3447 33.1361C31.3447 32.7876 31.0618 32.5046 30.7133 32.5046H13.6906Z" fill="#0CB4C4"></path></svg>