<svg xmlns="http://www.w3.org/2000/svg" xmlns:xlink="http://www.w3.org/1999/xlink" version="1.1" id="Layer_1" x="0px" y="0px" width="60px" height="60px" viewBox="0 0 60 60" enable-background="new 0 0 60 60" xml:space="preserve"><g><path fill="#0CB4C4" d="M18.514,37.153c-3.318,0-6.017-2.699-6.017-6.017c0-3.318,2.699-6.017,6.017-6.017 c3.318,0,6.017,2.699,6.017,6.017C24.531,34.454,21.832,37.153,18.514,37.153z M18.514,27.055c-2.251,0-4.082,1.831-4.082,4.082 c0,2.25,1.831,4.081,4.082,4.081s4.082-1.831,4.082-4.081C22.595,28.886,20.765,27.055,18.514,27.055z"></path><path fill="#0CB4C4" d="M31.889,53.184H5.138l0.038-1.004c0.273-7.388,6.131-13.175,13.337-13.175 c7.205,0,13.063,5.787,13.337,13.175L31.889,53.184z M7.188,51.248h22.65c-0.695-5.855-5.495-10.308-11.325-10.308 C12.683,40.94,7.883,45.393,7.188,51.248z"></path><rect x="37.194" y="28.275" fill="#0CB4C4" width="13.886" height="1.936"></rect><rect x="37.194" y="35.344" fill="#0CB4C4" width="13.886" height="1.936"></rect><path fill="#0CB4C4" d="M35.892,20.87H23.983V0h11.909V20.87z M25.918,18.934h8.038V1.936h-8.038V18.934z"></path><path fill="#0CB4C4" d="M55.245,60H4.754C2.133,60,0,57.867,0,55.245V20.533c0-2.622,2.133-4.754,4.754-4.754h21.164v3.155h8.164 v-3.155h21.163c2.666,0,4.755,2.088,4.755,4.754v34.712C60,57.867,57.867,60,55.245,60z M4.754,17.714 c-1.554,0-2.819,1.264-2.819,2.819v34.712c0,1.555,1.265,2.819,2.819,2.819h50.491c1.555,0,2.819-1.265,2.819-2.819V20.533 c0-1.607-1.212-2.819-2.819-2.819H36.018v3.155H23.983v-3.155H4.754z"></path></g></svg>