<svg xmlns="http://www.w3.org/2000/svg" width="61" height="61" viewBox="0 0 61 61" fill="none"><path fill-rule="evenodd" clip-rule="evenodd" d="M50.78 48.24C52.37 49.54 52.49 51.8 51.04 53.24L44.93 59.35C39.99 64.29 22.96 57.31 13.75 48.1C4.53998 38.89 -2.44002 21.87 2.49998 16.92L8.60998 10.81C10.05 9.36999 12.32 9.48999 13.61 11.07L21.72 20.98C22.97 22.51 22.86 24.85 21.46 26.24L17.6 30.1C16.82 30.88 16.63 32.35 17.22 33.35C17.26 33.43 17.35 33.6 17.49 33.84C17.73 34.25 18.02 34.72 18.36 35.23C19.36 36.71 20.6 38.24 22.1 39.74C23.6 41.24 25.14 42.49 26.61 43.48C27.12 43.83 27.59 44.12 28.01 44.35C28.25 44.49 28.42 44.58 28.56 44.65C29.5 45.2 30.97 45.01 31.74 44.24L35.6 40.38C36.99 38.99 39.33 38.87 40.86 40.12L50.77 48.23L50.78 48.24ZM49.63 49.65L39.72 41.54C38.91 40.88 37.63 40.94 36.89 41.67L33.03 45.53C31.67 46.89 29.31 47.19 27.71 46.26C27.6 46.2 27.39 46.1 27.12 45.94C26.67 45.68 26.16 45.37 25.61 44.99C24.04 43.93 22.42 42.61 20.83 41.02C19.24 39.43 17.93 37.81 16.87 36.24C16.5 35.69 16.18 35.18 15.93 34.73C15.77 34.45 15.67 34.25 15.65 34.21C14.66 32.56 14.97 30.18 16.34 28.81L20.2 24.95C20.93 24.22 21 22.93 20.33 22.12L12.22 12.21C11.6 11.46 10.59 11.4 9.90998 12.08L3.79998 18.19C-0.130022 22.12 6.47998 38.23 15.05 46.8C23.62 55.37 39.73 61.98 43.66 58.05L49.77 51.94C50.45 51.26 50.4 50.25 49.64 49.63L49.63 49.65ZM60.8 30.99C60.8 31.49 60.39 31.9 59.89 31.9C59.39 31.9 58.98 31.49 58.98 30.99C58.98 15.43 46.36 2.80999 30.8 2.80999C30.3 2.80999 29.89 2.39999 29.89 1.89999C29.89 1.39999 30.3 0.98999 30.8 0.98999C47.37 0.98999 60.8 14.42 60.8 30.99V30.99ZM49.89 30.99C49.89 31.49 49.48 31.9 48.98 31.9C48.48 31.9 48.07 31.49 48.07 30.99C48.07 21.45 40.34 13.72 30.8 13.72C30.3 13.72 29.89 13.31 29.89 12.81C29.89 12.31 30.3 11.9 30.8 11.9C41.34 11.9 49.89 20.45 49.89 30.99V30.99Z" fill="#0CB4C4"></path></svg>