<svg width="60" height="62" viewBox="0 0 60 62" fill="none" xmlns="http://www.w3.org/2000/svg"><mask id="path-1-outside-1_3882_330" maskUnits="userSpaceOnUse" x="-0.391602" y="0" width="60" height="62" fill="black"><rect fill="white" x="-0.391602" width="60" height="62"></rect><path d="M19.5938 19.7472V26.7863C19.5938 26.9804 19.6709 27.1665 19.8082 27.3037C19.9454 27.441 20.1315 27.518 20.3256 27.518H39.5234C39.7174 27.518 39.9035 27.441 40.0408 27.3037C40.178 27.1665 40.2551 26.9804 40.2551 26.7863V19.7472C40.2534 18.3657 39.7038 17.0412 38.7268 16.0644C37.7499 15.0876 36.4254 14.5381 35.0439 14.5366H33.4258C33.3153 14.5365 33.2093 14.4925 33.1311 14.4143C33.053 14.3362 33.009 14.2302 33.0088 14.1196C33.0089 13.9508 32.9506 13.7871 32.8437 13.6563C32.7368 13.5256 32.588 13.4358 32.4225 13.4023C32.257 13.3687 32.085 13.3934 31.9357 13.4722C31.7863 13.551 31.6688 13.6791 31.6031 13.8346L30.9012 14.5366H28.9732L28.1562 13.6188C28.0923 13.547 28.0149 13.4885 27.9284 13.4466C27.8419 13.4047 27.748 13.3803 27.652 13.3747C27.5561 13.3691 27.46 13.3825 27.3692 13.4141C27.2784 13.4456 27.1948 13.4948 27.123 13.5587C27.112 13.5684 27.1019 13.5791 27.0917 13.5895C27.0195 13.6577 26.962 13.7398 26.9227 13.831C26.8835 13.9222 26.8632 14.0204 26.8632 14.1196C26.8631 14.2302 26.8192 14.3361 26.7411 14.4143C26.6629 14.4925 26.5569 14.5365 26.4464 14.5366H24.8051C23.4235 14.5381 22.099 15.0876 21.1221 16.0644C20.1452 17.0412 19.5956 18.3657 19.5938 19.7472ZM29.9775 18.3124L30.7686 22.8621L29.9115 23.863L29.0854 22.8745L29.9775 18.3124ZM30.1806 16L30.0241 16.4563H29.8258L29.6684 16H30.1806ZM27.8013 15.4207L28.0007 15.6448L28.5373 17.2112C28.564 17.2995 28.603 17.3835 28.6531 17.461L27.5825 22.9366C27.5616 23.0435 27.5648 23.1537 27.5919 23.2592C27.619 23.3646 27.6693 23.4628 27.7391 23.5463L29.3434 25.4661C29.4116 25.5477 29.4968 25.6134 29.593 25.6587C29.6893 25.704 29.7942 25.7279 29.9006 25.7285H29.9049C30.0106 25.7285 30.115 25.7056 30.2109 25.6614C30.3069 25.6172 30.3921 25.5527 30.4608 25.4724L32.1046 23.5527C32.1747 23.4708 32.2258 23.3745 32.2544 23.2705C32.2829 23.1666 32.2882 23.0577 32.2697 22.9515L31.2841 17.284C31.2935 17.2596 31.3047 17.2366 31.3121 17.2109L31.8418 15.6656L32.0782 15.429C32.4167 15.7785 32.8777 15.9827 33.3639 15.9985C33.3768 15.9993 33.3896 15.9996 33.4028 15.9996H35.0441C36.0377 16.0007 36.9903 16.3959 37.6929 17.0985C38.3955 17.8011 38.7908 18.7537 38.7919 19.7473V26.0548H21.0573V19.7472C21.0585 18.7537 21.4538 17.8012 22.1564 17.0987C22.859 16.3962 23.8115 16.0011 24.8051 16H26.4464C26.6996 15.9999 26.9502 15.9485 27.183 15.8488C27.4158 15.7492 27.6259 15.6034 27.8008 15.4202L27.8013 15.4207Z"></path><path d="M29.9244 12.7022C31.1364 12.7008 32.2983 12.2188 33.1553 11.3618C34.0122 10.5048 34.4943 9.34292 34.4956 8.13098V5.57122C34.4956 4.35886 34.014 3.19615 33.1567 2.33888C32.2995 1.48161 31.1368 1 29.9244 1C28.712 1 27.5493 1.48161 26.6921 2.33888C25.8348 3.19615 25.3532 4.35886 25.3532 5.57122V8.13098C25.3545 9.34292 25.8366 10.5048 26.6936 11.3618C27.5505 12.2188 28.7125 12.7008 29.9244 12.7022ZM26.8166 5.57122C26.8166 4.74698 27.144 3.9565 27.7269 3.37367C28.3097 2.79084 29.1002 2.46341 29.9244 2.46341C30.7486 2.46341 31.5391 2.79084 32.122 3.37367C32.7048 3.9565 33.0322 4.74698 33.0322 5.57122V8.13098C33.0322 8.95522 32.7048 9.7457 32.122 10.3285C31.5391 10.9114 30.7486 11.2388 29.9244 11.2388C29.1002 11.2388 28.3097 10.9114 27.7269 10.3285C27.144 9.7457 26.8166 8.95522 26.8166 8.13098V5.57122Z"></path><path d="M33.764 20.8242H36.2283C36.4223 20.8242 36.6085 20.7471 36.7457 20.6099C36.8829 20.4726 36.96 20.2865 36.96 20.0925C36.96 19.8984 36.8829 19.7123 36.7457 19.5751C36.6085 19.4378 36.4223 19.3607 36.2283 19.3607H33.764C33.5699 19.3607 33.3838 19.4378 33.2466 19.5751C33.1094 19.7123 33.0323 19.8984 33.0323 20.0925C33.0323 20.2865 33.1094 20.4726 33.2466 20.6099C33.3838 20.7471 33.5699 20.8242 33.764 20.8242Z"></path><path d="M10.939 45.8424C12.1508 45.8409 13.3126 45.3588 14.1695 44.5019C15.0264 43.6449 15.5084 42.4831 15.5098 41.2712V38.7113C15.5036 37.503 15.0192 36.3464 14.1626 35.4942C13.306 34.642 12.1468 34.1636 10.9385 34.1636C9.73024 34.1636 8.57108 34.642 7.71447 35.4942C6.85787 36.3464 6.3735 37.503 6.36726 38.7113V41.2712C6.36862 42.4832 6.85073 43.6452 7.70781 44.5022C8.56489 45.3592 9.72694 45.8412 10.939 45.8424ZM7.83116 38.7113C7.8363 37.8904 8.16601 37.1049 8.74829 36.5263C9.33057 35.9476 10.1181 35.6229 10.939 35.6229C11.7599 35.6229 12.5475 35.9476 13.1298 36.5263C13.7121 37.1049 14.0418 37.8904 14.0469 38.7113V41.2712C14.0418 42.0921 13.7121 42.8776 13.1298 43.4562C12.5475 44.0349 11.7599 44.3597 10.939 44.3597C10.1181 44.3597 9.33057 44.0349 8.74829 43.4562C8.16601 42.8776 7.8363 42.0921 7.83116 41.2712V38.7113Z"></path><path d="M0.608398 52.8875V59.9269C0.608398 60.1209 0.685489 60.307 0.822711 60.4442C0.959932 60.5815 1.14604 60.6586 1.34011 60.6586H20.5378C20.7319 60.6586 20.918 60.5815 21.0552 60.4442C21.1924 60.307 21.2695 60.1209 21.2695 59.9269V52.8875C21.268 51.5059 20.7185 50.1814 19.7416 49.2044C18.7647 48.2275 17.4402 47.6779 16.0586 47.6762H14.4404C14.3298 47.6761 14.2239 47.6322 14.1457 47.554C14.0675 47.4759 14.0236 47.3699 14.0234 47.2594C14.0234 47.0871 13.9625 46.9204 13.8516 46.7886C13.7407 46.6567 13.5868 46.5683 13.4171 46.5387C13.2474 46.5092 13.0726 46.5405 12.9237 46.6272C12.7748 46.7138 12.6613 46.8502 12.603 47.0123L11.9596 48.8049C11.8845 49.0145 11.7461 49.1955 11.5636 49.3231C11.3811 49.4506 11.1635 49.5183 10.9409 49.5169C10.7183 49.5155 10.5016 49.445 10.3207 49.3151C10.1399 49.1853 10.0038 49.0025 9.93133 48.792L9.31596 47.0065C9.27552 46.8892 9.2059 46.7841 9.11366 46.7011C9.02142 46.6181 8.90958 46.5599 8.78867 46.532C8.66775 46.5041 8.54173 46.5074 8.42245 46.5416C8.30318 46.5758 8.19456 46.6398 8.10681 46.7276L8.0923 46.7421C8.02432 46.81 7.97039 46.8906 7.9336 46.9794C7.89682 47.0682 7.87789 47.1633 7.87791 47.2594C7.87781 47.3699 7.83387 47.4759 7.75572 47.554C7.67757 47.6322 7.5716 47.6761 7.46108 47.6762H5.81962C4.43799 47.6778 3.1134 48.2273 2.13644 49.2043C1.15948 50.1812 0.609948 51.5058 0.608398 52.8875ZM8.41328 48.88L8.54742 49.2689C8.71863 49.7659 9.03991 50.1975 9.46691 50.5041C9.8939 50.8107 10.4056 50.9772 10.9312 50.9806C11.4569 50.9839 11.9706 50.824 12.4015 50.5229C12.8324 50.2218 13.1592 49.7943 13.3367 49.2995L13.4873 48.8799C13.7576 49.0396 14.0638 49.1286 14.3775 49.1386C14.3904 49.1393 14.4032 49.1397 14.4163 49.1397H16.0586C17.0523 49.1408 18.0049 49.536 18.7075 50.2386C19.41 50.9412 19.8052 51.8938 19.8063 52.8875V59.1951H2.07181V52.8875C2.07294 51.8938 2.46816 50.9412 3.17077 50.2386C3.87337 49.536 4.82599 49.1408 5.81962 49.1397H7.46108C7.79614 49.1401 8.12515 49.0504 8.41364 48.88H8.41328Z"></path><path d="M48.91 45.8424C50.1219 45.8411 51.2838 45.359 52.1408 44.502C52.9978 43.6451 53.4798 42.4831 53.4812 41.2712V38.7113C53.475 37.503 52.9906 36.3464 52.134 35.4942C51.2774 34.642 50.1182 34.1636 48.9099 34.1636C47.7016 34.1636 46.5424 34.642 45.6858 35.4942C44.8292 36.3464 44.3449 37.503 44.3386 38.7113V41.2712C44.34 42.4832 44.8221 43.6451 45.6791 44.5021C46.5361 45.359 47.698 45.8411 48.91 45.8424ZM45.8025 38.7113C45.8077 37.8904 46.1374 37.1049 46.7197 36.5263C47.3019 35.9476 48.0895 35.6229 48.9104 35.6229C49.7313 35.6229 50.5189 35.9476 51.1011 36.5263C51.6834 37.1049 52.0131 37.8904 52.0183 38.7113V41.2712C52.0131 42.0921 51.6834 42.8776 51.1011 43.4562C50.5189 44.0349 49.7313 44.3597 48.9104 44.3597C48.0895 44.3597 47.3019 44.0349 46.7197 43.4562C46.1374 42.8776 45.8077 42.0921 45.8025 41.2712V38.7113Z"></path><path d="M38.5794 52.8874V59.9268C38.5794 60.1209 38.6565 60.307 38.7937 60.4442C38.931 60.5815 39.1171 60.6585 39.3111 60.6585H58.5088C58.7029 60.6585 58.889 60.5815 59.0262 60.4442C59.1634 60.307 59.2405 60.1209 59.2405 59.9268V52.8874C59.239 51.5058 58.6894 50.1812 57.7125 49.2043C56.7355 48.2273 55.4109 47.6778 54.0293 47.6762H52.4112C52.3007 47.6761 52.1948 47.6322 52.1166 47.554C52.0385 47.4759 51.9945 47.3699 51.9944 47.2594C51.9945 47.087 51.9337 46.9202 51.8228 46.7883C51.7119 46.6564 51.558 46.5678 51.3882 46.5383C51.2184 46.5087 51.0436 46.5401 50.8946 46.6268C50.7457 46.7135 50.6321 46.85 50.5739 47.0122L49.9304 48.8049C49.8552 49.0144 49.7167 49.1954 49.5343 49.3229C49.3518 49.4503 49.1342 49.518 48.9116 49.5166C48.689 49.5152 48.4724 49.4447 48.2915 49.3149C48.1107 49.185 47.9746 49.0023 47.9021 48.7918L47.2867 47.0061C47.2462 46.8885 47.1764 46.7832 47.0839 46.7001C46.9914 46.617 46.8792 46.5588 46.758 46.5311C46.6368 46.5034 46.5105 46.507 46.391 46.5417C46.2716 46.5763 46.163 46.6409 46.0754 46.7292L46.061 46.7438C45.9251 46.8808 45.8488 47.066 45.8488 47.259C45.8487 47.3696 45.8047 47.4755 45.7265 47.5537C45.6484 47.6318 45.5424 47.6758 45.4319 47.6759H43.7903C42.4086 47.6775 41.0841 48.2271 40.1072 49.2042C39.1303 50.1812 38.5809 51.5058 38.5794 52.8874ZM46.3843 48.88L46.5184 49.2689C46.6897 49.7659 47.011 50.1975 47.4379 50.5041C47.8649 50.8107 48.3766 50.9772 48.9023 50.9805C49.4279 50.9839 49.9417 50.824 50.3725 50.5229C50.8034 50.2218 51.1302 49.7944 51.3078 49.2996L51.4584 48.8799C51.7287 49.0396 52.0349 49.1286 52.3487 49.1385C52.3615 49.1393 52.3745 49.1396 52.3875 49.1396H54.0289C55.0226 49.1408 55.9752 49.536 56.6778 50.2386C57.3804 50.9412 57.7756 51.8938 57.7767 52.8874V59.1951H40.0428V52.8874C40.0439 51.8939 40.4391 50.9413 41.1416 50.2387C41.8442 49.5361 42.7967 49.1408 43.7903 49.1396H45.4316C45.7668 49.1401 46.0959 49.0505 46.3845 48.88H46.3843Z"></path><path d="M18.4253 38.6786V41.8397C18.4253 42.0216 18.4931 42.197 18.6154 42.3316C18.7377 42.4663 18.9058 42.5505 19.0869 42.568L20.9142 42.744C21.1231 43.492 21.4254 44.2106 21.814 44.883L20.6537 46.2838C20.5375 46.4241 20.4778 46.6028 20.4864 46.7848C20.4949 46.9668 20.5711 47.1391 20.6999 47.268L22.9298 49.4977C23.0587 49.6265 23.2309 49.7026 23.4129 49.7112C23.5949 49.7197 23.7735 49.66 23.9138 49.5438L25.3186 48.3805C26.1464 48.8594 27.0431 49.2077 27.9771 49.4131C28.0716 49.4349 28.1695 49.4377 28.265 49.4213C28.3606 49.405 28.4519 49.3698 28.5338 49.3179C28.6156 49.2659 28.6863 49.1982 28.7418 49.1187C28.7972 49.0392 28.8364 48.9494 28.8568 48.8547C28.8773 48.7599 28.8788 48.662 28.8611 48.5667C28.8434 48.4714 28.807 48.3806 28.7539 48.2994C28.7008 48.2183 28.6321 48.1486 28.5519 48.0942C28.4716 48.0399 28.3813 48.002 28.2863 47.9828C27.3474 47.7737 26.4541 47.3965 25.6495 46.8695C25.5188 46.7853 25.3646 46.7448 25.2094 46.754C25.0542 46.7633 24.9059 46.8217 24.7862 46.9209L23.4935 47.9917L22.2058 46.7042L23.2768 45.4109C23.3772 45.2896 23.4358 45.1393 23.4439 44.9821C23.4521 44.8249 23.4093 44.6693 23.322 44.5383C22.793 43.7388 22.4175 42.8477 22.2147 41.9108C22.1819 41.7591 22.1018 41.6218 21.9858 41.5186C21.8699 41.4155 21.7242 41.3519 21.5697 41.337L19.8887 41.175V39.3431L21.5697 39.1811C21.7241 39.1663 21.8697 39.1028 21.9857 38.9997C22.1016 38.8967 22.1818 38.7595 22.2147 38.608C22.4238 37.6691 22.801 36.7758 23.3281 35.9712C23.4124 35.8406 23.4529 35.6864 23.4437 35.5311C23.4344 35.3759 23.376 35.2276 23.2768 35.1078L22.2058 33.8144L23.4935 32.527L24.7862 33.5978C24.9074 33.6982 25.0578 33.7568 25.2149 33.765C25.3721 33.7731 25.5278 33.7304 25.6587 33.6431C26.4583 33.1142 27.3493 32.7387 28.2863 32.5359C28.438 32.5031 28.5753 32.423 28.6784 32.307C28.7816 32.1911 28.8452 32.0453 28.8601 31.8909L29.022 30.2098H30.8541L31.016 31.8909C31.0309 32.0453 31.0945 32.1911 31.1977 32.307C31.3008 32.423 31.4381 32.5031 31.5898 32.5359C32.5287 32.7449 33.422 33.1221 34.2267 33.6492C34.3573 33.7335 34.5115 33.7739 34.6667 33.7647C34.8219 33.7555 34.9702 33.697 35.0899 33.5978L36.3798 32.5295L37.6453 33.8112L36.5721 35.1078C36.4718 35.2291 36.4131 35.3794 36.405 35.5366C36.3968 35.6938 36.4396 35.8494 36.5269 35.9804C37.0559 36.7799 37.4314 37.671 37.6342 38.608C37.6671 38.7595 37.7473 38.8967 37.8632 38.9997C37.9792 39.1028 38.1248 39.1663 38.2792 39.1811L39.9602 39.3431V41.1758L38.3065 41.3371C38.1523 41.3521 38.0068 41.4157 37.8911 41.5187C37.7753 41.6217 37.6952 41.7588 37.6624 41.9103C37.4534 42.8492 37.0762 43.7425 36.549 44.547C36.4647 44.6777 36.4242 44.8318 36.4334 44.9871C36.4426 45.1423 36.5011 45.2906 36.6003 45.4104L37.6713 46.7037L36.3837 47.9914L35.0904 46.9204C34.9692 46.82 34.8188 46.7614 34.6616 46.7532C34.5045 46.7451 34.3488 46.7878 34.2179 46.8751C33.4183 47.4041 32.5273 47.7795 31.5903 47.9823C31.4953 48.0015 31.405 48.0394 31.3247 48.0937C31.2444 48.1481 31.1758 48.2178 31.1227 48.2989C31.0696 48.3801 31.0332 48.4709 31.0155 48.5662C30.9978 48.6616 30.9993 48.7594 31.0198 48.8542C31.0402 48.949 31.0793 49.0387 31.1348 49.1182C31.1903 49.1977 31.261 49.2654 31.3428 49.3174C31.4247 49.3693 31.516 49.4045 31.6116 49.4208C31.7071 49.4372 31.805 49.4344 31.8995 49.4126C32.835 49.2094 33.7334 48.8621 34.5624 48.3832L35.9634 49.5433C36.1037 49.6595 36.2823 49.7192 36.4643 49.7107C36.6463 49.7021 36.8185 49.626 36.9474 49.4972L39.1771 47.2683C39.306 47.1395 39.3822 46.9672 39.3907 46.7852C39.3993 46.6032 39.3396 46.4245 39.2234 46.2842L38.0599 44.8794C38.4475 44.2074 38.7507 43.4901 38.9624 42.7438L40.7626 42.5682C40.9435 42.5506 41.1114 42.4662 41.2335 42.3316C41.3557 42.197 41.4233 42.0218 41.4234 41.84V38.6786C41.4234 38.4966 41.3556 38.3212 41.2333 38.1866C41.111 38.0519 40.943 37.9676 40.7619 37.9501L38.9345 37.774C38.7255 37.0261 38.4232 36.3075 38.0347 35.6351L39.1949 34.2343C39.3107 34.0946 39.3703 33.9168 39.3624 33.7356C39.3545 33.5544 39.2795 33.3825 39.152 33.2534L36.9504 31.0237C36.8218 30.8933 36.649 30.816 36.4661 30.8068C36.2833 30.7977 36.1036 30.8574 35.9626 30.9743L34.5586 32.1376C33.8868 31.7501 33.1698 31.447 32.4237 31.2351L32.2476 29.4071C32.2302 29.226 32.1459 29.0579 32.0112 28.9356C31.8765 28.8134 31.7011 28.7456 31.5192 28.7456H28.358C28.1761 28.7456 28.0007 28.8134 27.8661 28.9357C27.7314 29.058 27.6472 29.226 27.6297 29.4071L27.4535 31.2347C26.7056 31.4436 25.9871 31.7458 25.3147 32.1342L23.9138 30.974C23.7735 30.8578 23.5949 30.7982 23.4129 30.8067C23.2309 30.8152 23.0587 30.8913 22.9298 31.0201L20.6999 33.25C20.571 33.3789 20.4949 33.5512 20.4863 33.7332C20.4778 33.9153 20.5375 34.0939 20.6537 34.2343L21.8173 35.639C21.4297 36.3108 21.1265 37.0279 20.9148 37.774L19.0869 37.9501C18.9058 37.9676 18.7377 38.0519 18.6154 38.1865C18.493 38.3212 18.4253 38.4966 18.4253 38.6786Z"></path><path d="M32.8618 38.2412C32.7262 38.1024 32.541 38.0232 32.347 38.0209C32.153 38.0186 31.966 38.0935 31.8272 38.229L29.2519 40.7433L28.0501 39.5699C27.9107 39.4372 27.7247 39.3648 27.5322 39.3683C27.3398 39.3718 27.1565 39.4509 27.0221 39.5886C26.8876 39.7263 26.8128 39.9115 26.8139 40.1039C26.8149 40.2964 26.8918 40.4807 27.0278 40.6169L28.7408 42.2894C28.8775 42.4229 29.061 42.4976 29.252 42.4976C29.443 42.4976 29.6265 42.4229 29.7631 42.2894L32.8494 39.2761C32.9181 39.209 32.973 39.129 33.0109 39.0406C33.0487 38.9523 33.0688 38.8574 33.07 38.7613C33.0711 38.6652 33.0533 38.5698 33.0176 38.4805C32.9819 38.3913 32.929 38.31 32.8618 38.2412Z"></path><path d="M31.1243 52.3374H30.6702V46.9495C32.3817 46.7623 33.9564 45.9264 35.0704 44.6137C36.1844 43.301 36.7531 41.6113 36.6593 39.8922C36.5656 38.173 35.8167 36.5551 34.5665 35.3713C33.3164 34.1875 31.6602 33.5277 29.9385 33.5277C28.2168 33.5277 26.5605 34.1875 25.3104 35.3713C24.0603 36.5551 23.3113 38.173 23.2176 39.8922C23.1239 41.6113 23.6925 43.301 24.8065 44.6137C25.9206 45.9264 27.4953 46.7623 29.2068 46.9495V52.3374H28.7246C28.5305 52.3374 28.3444 52.4145 28.2072 52.5518C28.0699 52.689 27.9929 52.8751 27.9929 53.0691V59.0684C27.9929 59.5807 28.1964 60.072 28.5586 60.4343C28.9209 60.7965 29.4122 61 29.9244 61C30.4367 61 30.928 60.7965 31.2903 60.4343C31.6525 60.072 31.856 59.5807 31.856 59.0684V53.0691C31.856 52.8751 31.7789 52.689 31.6417 52.5518C31.5045 52.4145 31.3184 52.3374 31.1243 52.3374ZM24.671 40.259C24.671 39.2172 24.98 38.1988 25.5588 37.3325C26.1376 36.4663 26.9603 35.7911 27.9228 35.3924C28.8853 34.9937 29.9445 34.8894 30.9663 35.0927C31.9881 35.2959 32.9267 35.7976 33.6634 36.5343C34.4 37.271 34.9017 38.2096 35.105 39.2314C35.3082 40.2533 35.2039 41.3124 34.8051 42.2749C34.4064 43.2374 33.7313 44.0601 32.865 44.6389C31.9987 45.2177 30.9803 45.5266 29.9385 45.5266C28.5419 45.525 27.2031 44.9695 26.2156 43.982C25.2281 42.9944 24.6726 41.6556 24.671 40.259ZM30.3926 53.8009V54.7372H29.4563V53.8009H30.3926ZM29.9244 59.5366C29.8003 59.5365 29.6813 59.4871 29.5935 59.3993C29.5058 59.3115 29.4564 59.1925 29.4563 59.0684V56.2006H30.3926V59.0684C30.3925 59.1925 30.3431 59.3115 30.2553 59.3993C30.1676 59.4871 30.0486 59.5365 29.9244 59.5366Z"></path></mask><path d="M19.5938 19.7472V26.7863C19.5938 26.9804 19.6709 27.1665 19.8082 27.3037C19.9454 27.441 20.1315 27.518 20.3256 27.518H39.5234C39.7174 27.518 39.9035 27.441 40.0408 27.3037C40.178 27.1665 40.2551 26.9804 40.2551 26.7863V19.7472C40.2534 18.3657 39.7038 17.0412 38.7268 16.0644C37.7499 15.0876 36.4254 14.5381 35.0439 14.5366H33.4258C33.3153 14.5365 33.2093 14.4925 33.1311 14.4143C33.053 14.3362 33.009 14.2302 33.0088 14.1196C33.0089 13.9508 32.9506 13.7871 32.8437 13.6563C32.7368 13.5256 32.588 13.4358 32.4225 13.4023C32.257 13.3687 32.085 13.3934 31.9357 13.4722C31.7863 13.551 31.6688 13.6791 31.6031 13.8346L30.9012 14.5366H28.9732L28.1562 13.6188C28.0923 13.547 28.0149 13.4885 27.9284 13.4466C27.8419 13.4047 27.748 13.3803 27.652 13.3747C27.5561 13.3691 27.46 13.3825 27.3692 13.4141C27.2784 13.4456 27.1948 13.4948 27.123 13.5587C27.112 13.5684 27.1019 13.5791 27.0917 13.5895C27.0195 13.6577 26.962 13.7398 26.9227 13.831C26.8835 13.9222 26.8632 14.0204 26.8632 14.1196C26.8631 14.2302 26.8192 14.3361 26.7411 14.4143C26.6629 14.4925 26.5569 14.5365 26.4464 14.5366H24.8051C23.4235 14.5381 22.099 15.0876 21.1221 16.0644C20.1452 17.0412 19.5956 18.3657 19.5938 19.7472ZM29.9775 18.3124L30.7686 22.8621L29.9115 23.863L29.0854 22.8745L29.9775 18.3124ZM30.1806 16L30.0241 16.4563H29.8258L29.6684 16H30.1806ZM27.8013 15.4207L28.0007 15.6448L28.5373 17.2112C28.564 17.2995 28.603 17.3835 28.6531 17.461L27.5825 22.9366C27.5616 23.0435 27.5648 23.1537 27.5919 23.2592C27.619 23.3646 27.6693 23.4628 27.7391 23.5463L29.3434 25.4661C29.4116 25.5477 29.4968 25.6134 29.593 25.6587C29.6893 25.704 29.7942 25.7279 29.9006 25.7285H29.9049C30.0106 25.7285 30.115 25.7056 30.2109 25.6614C30.3069 25.6172 30.3921 25.5527 30.4608 25.4724L32.1046 23.5527C32.1747 23.4708 32.2258 23.3745 32.2544 23.2705C32.2829 23.1666 32.2882 23.0577 32.2697 22.9515L31.2841 17.284C31.2935 17.2596 31.3047 17.2366 31.3121 17.2109L31.8418 15.6656L32.0782 15.429C32.4167 15.7785 32.8777 15.9827 33.3639 15.9985C33.3768 15.9993 33.3896 15.9996 33.4028 15.9996H35.0441C36.0377 16.0007 36.9903 16.3959 37.6929 17.0985C38.3955 17.8011 38.7908 18.7537 38.7919 19.7473V26.0548H21.0573V19.7472C21.0585 18.7537 21.4538 17.8012 22.1564 17.0987C22.859 16.3962 23.8115 16.0011 24.8051 16H26.4464C26.6996 15.9999 26.9502 15.9485 27.183 15.8488C27.4158 15.7492 27.6259 15.6034 27.8008 15.4202L27.8013 15.4207Z" fill="#0CB4C4"></path><path d="M29.9244 12.7022C31.1364 12.7008 32.2983 12.2188 33.1553 11.3618C34.0122 10.5048 34.4943 9.34292 34.4956 8.13098V5.57122C34.4956 4.35886 34.014 3.19615 33.1567 2.33888C32.2995 1.48161 31.1368 1 29.9244 1C28.712 1 27.5493 1.48161 26.6921 2.33888C25.8348 3.19615 25.3532 4.35886 25.3532 5.57122V8.13098C25.3545 9.34292 25.8366 10.5048 26.6936 11.3618C27.5505 12.2188 28.7125 12.7008 29.9244 12.7022ZM26.8166 5.57122C26.8166 4.74698 27.144 3.9565 27.7269 3.37367C28.3097 2.79084 29.1002 2.46341 29.9244 2.46341C30.7486 2.46341 31.5391 2.79084 32.122 3.37367C32.7048 3.9565 33.0322 4.74698 33.0322 5.57122V8.13098C33.0322 8.95522 32.7048 9.7457 32.122 10.3285C31.5391 10.9114 30.7486 11.2388 29.9244 11.2388C29.1002 11.2388 28.3097 10.9114 27.7269 10.3285C27.144 9.7457 26.8166 8.95522 26.8166 8.13098V5.57122Z" fill="#0CB4C4"></path><path d="M33.764 20.8242H36.2283C36.4223 20.8242 36.6085 20.7471 36.7457 20.6099C36.8829 20.4726 36.96 20.2865 36.96 20.0925C36.96 19.8984 36.8829 19.7123 36.7457 19.5751C36.6085 19.4378 36.4223 19.3607 36.2283 19.3607H33.764C33.5699 19.3607 33.3838 19.4378 33.2466 19.5751C33.1094 19.7123 33.0323 19.8984 33.0323 20.0925C33.0323 20.2865 33.1094 20.4726 33.2466 20.6099C33.3838 20.7471 33.5699 20.8242 33.764 20.8242Z" fill="#0CB4C4"></path><path d="M10.939 45.8424C12.1508 45.8409 13.3126 45.3588 14.1695 44.5019C15.0264 43.6449 15.5084 42.4831 15.5098 41.2712V38.7113C15.5036 37.503 15.0192 36.3464 14.1626 35.4942C13.306 34.642 12.1468 34.1636 10.9385 34.1636C9.73024 34.1636 8.57108 34.642 7.71447 35.4942C6.85787 36.3464 6.3735 37.503 6.36726 38.7113V41.2712C6.36862 42.4832 6.85073 43.6452 7.70781 44.5022C8.56489 45.3592 9.72694 45.8412 10.939 45.8424ZM7.83116 38.7113C7.8363 37.8904 8.16601 37.1049 8.74829 36.5263C9.33057 35.9476 10.1181 35.6229 10.939 35.6229C11.7599 35.6229 12.5475 35.9476 13.1298 36.5263C13.7121 37.1049 14.0418 37.8904 14.0469 38.7113V41.2712C14.0418 42.0921 13.7121 42.8776 13.1298 43.4562C12.5475 44.0349 11.7599 44.3597 10.939 44.3597C10.1181 44.3597 9.33057 44.0349 8.74829 43.4562C8.16601 42.8776 7.8363 42.0921 7.83116 41.2712V38.7113Z" fill="#0CB4C4"></path><path d="M0.608398 52.8875V59.9269C0.608398 60.1209 0.685489 60.307 0.822711 60.4442C0.959932 60.5815 1.14604 60.6586 1.34011 60.6586H20.5378C20.7319 60.6586 20.918 60.5815 21.0552 60.4442C21.1924 60.307 21.2695 60.1209 21.2695 59.9269V52.8875C21.268 51.5059 20.7185 50.1814 19.7416 49.2044C18.7647 48.2275 17.4402 47.6779 16.0586 47.6762H14.4404C14.3298 47.6761 14.2239 47.6322 14.1457 47.554C14.0675 47.4759 14.0236 47.3699 14.0234 47.2594C14.0234 47.0871 13.9625 46.9204 13.8516 46.7886C13.7407 46.6567 13.5868 46.5683 13.4171 46.5387C13.2474 46.5092 13.0726 46.5405 12.9237 46.6272C12.7748 46.7138 12.6613 46.8502 12.603 47.0123L11.9596 48.8049C11.8845 49.0145 11.7461 49.1955 11.5636 49.3231C11.3811 49.4506 11.1635 49.5183 10.9409 49.5169C10.7183 49.5155 10.5016 49.445 10.3207 49.3151C10.1399 49.1853 10.0038 49.0025 9.93133 48.792L9.31596 47.0065C9.27552 46.8892 9.2059 46.7841 9.11366 46.7011C9.02142 46.6181 8.90958 46.5599 8.78867 46.532C8.66775 46.5041 8.54173 46.5074 8.42245 46.5416C8.30318 46.5758 8.19456 46.6398 8.10681 46.7276L8.0923 46.7421C8.02432 46.81 7.97039 46.8906 7.9336 46.9794C7.89682 47.0682 7.87789 47.1633 7.87791 47.2594C7.87781 47.3699 7.83387 47.4759 7.75572 47.554C7.67757 47.6322 7.5716 47.6761 7.46108 47.6762H5.81962C4.43799 47.6778 3.1134 48.2273 2.13644 49.2043C1.15948 50.1812 0.609948 51.5058 0.608398 52.8875ZM8.41328 48.88L8.54742 49.2689C8.71863 49.7659 9.03991 50.1975 9.46691 50.5041C9.8939 50.8107 10.4056 50.9772 10.9312 50.9806C11.4569 50.9839 11.9706 50.824 12.4015 50.5229C12.8324 50.2218 13.1592 49.7943 13.3367 49.2995L13.4873 48.8799C13.7576 49.0396 14.0638 49.1286 14.3775 49.1386C14.3904 49.1393 14.4032 49.1397 14.4163 49.1397H16.0586C17.0523 49.1408 18.0049 49.536 18.7075 50.2386C19.41 50.9412 19.8052 51.8938 19.8063 52.8875V59.1951H2.07181V52.8875C2.07294 51.8938 2.46816 50.9412 3.17077 50.2386C3.87337 49.536 4.82599 49.1408 5.81962 49.1397H7.46108C7.79614 49.1401 8.12515 49.0504 8.41364 48.88H8.41328Z" fill="#0CB4C4"></path><path d="M48.91 45.8424C50.1219 45.8411 51.2838 45.359 52.1408 44.502C52.9978 43.6451 53.4798 42.4831 53.4812 41.2712V38.7113C53.475 37.503 52.9906 36.3464 52.134 35.4942C51.2774 34.642 50.1182 34.1636 48.9099 34.1636C47.7016 34.1636 46.5424 34.642 45.6858 35.4942C44.8292 36.3464 44.3449 37.503 44.3386 38.7113V41.2712C44.34 42.4832 44.8221 43.6451 45.6791 44.5021C46.5361 45.359 47.698 45.8411 48.91 45.8424ZM45.8025 38.7113C45.8077 37.8904 46.1374 37.1049 46.7197 36.5263C47.3019 35.9476 48.0895 35.6229 48.9104 35.6229C49.7313 35.6229 50.5189 35.9476 51.1011 36.5263C51.6834 37.1049 52.0131 37.8904 52.0183 38.7113V41.2712C52.0131 42.0921 51.6834 42.8776 51.1011 43.4562C50.5189 44.0349 49.7313 44.3597 48.9104 44.3597C48.0895 44.3597 47.3019 44.0349 46.7197 43.4562C46.1374 42.8776 45.8077 42.0921 45.8025 41.2712V38.7113Z" fill="#0CB4C4"></path><path d="M38.5794 52.8874V59.9268C38.5794 60.1209 38.6565 60.307 38.7937 60.4442C38.931 60.5815 39.1171 60.6585 39.3111 60.6585H58.5088C58.7029 60.6585 58.889 60.5815 59.0262 60.4442C59.1634 60.307 59.2405 60.1209 59.2405 59.9268V52.8874C59.239 51.5058 58.6894 50.1812 57.7125 49.2043C56.7355 48.2273 55.4109 47.6778 54.0293 47.6762H52.4112C52.3007 47.6761 52.1948 47.6322 52.1166 47.554C52.0385 47.4759 51.9945 47.3699 51.9944 47.2594C51.9945 47.087 51.9337 46.9202 51.8228 46.7883C51.7119 46.6564 51.558 46.5678 51.3882 46.5383C51.2184 46.5087 51.0436 46.5401 50.8946 46.6268C50.7457 46.7135 50.6321 46.85 50.5739 47.0122L49.9304 48.8049C49.8552 49.0144 49.7167 49.1954 49.5343 49.3229C49.3518 49.4503 49.1342 49.518 48.9116 49.5166C48.689 49.5152 48.4724 49.4447 48.2915 49.3149C48.1107 49.185 47.9746 49.0023 47.9021 48.7918L47.2867 47.0061C47.2462 46.8885 47.1764 46.7832 47.0839 46.7001C46.9914 46.617 46.8792 46.5588 46.758 46.5311C46.6368 46.5034 46.5105 46.507 46.391 46.5417C46.2716 46.5763 46.163 46.6409 46.0754 46.7292L46.061 46.7438C45.9251 46.8808 45.8488 47.066 45.8488 47.259C45.8487 47.3696 45.8047 47.4755 45.7265 47.5537C45.6484 47.6318 45.5424 47.6758 45.4319 47.6759H43.7903C42.4086 47.6775 41.0841 48.2271 40.1072 49.2042C39.1303 50.1812 38.5809 51.5058 38.5794 52.8874ZM46.3843 48.88L46.5184 49.2689C46.6897 49.7659 47.011 50.1975 47.4379 50.5041C47.8649 50.8107 48.3766 50.9772 48.9023 50.9805C49.4279 50.9839 49.9417 50.824 50.3725 50.5229C50.8034 50.2218 51.1302 49.7944 51.3078 49.2996L51.4584 48.8799C51.7287 49.0396 52.0349 49.1286 52.3487 49.1385C52.3615 49.1393 52.3745 49.1396 52.3875 49.1396H54.0289C55.0226 49.1408 55.9752 49.536 56.6778 50.2386C57.3804 50.9412 57.7756 51.8938 57.7767 52.8874V59.1951H40.0428V52.8874C40.0439 51.8939 40.4391 50.9413 41.1416 50.2387C41.8442 49.5361 42.7967 49.1408 43.7903 49.1396H45.4316C45.7668 49.1401 46.0959 49.0505 46.3845 48.88H46.3843Z" fill="#0CB4C4"></path><path d="M18.4253 38.6786V41.8397C18.4253 42.0216 18.4931 42.197 18.6154 42.3316C18.7377 42.4663 18.9058 42.5505 19.0869 42.568L20.9142 42.744C21.1231 43.492 21.4254 44.2106 21.814 44.883L20.6537 46.2838C20.5375 46.4241 20.4778 46.6028 20.4864 46.7848C20.4949 46.9668 20.5711 47.1391 20.6999 47.268L22.9298 49.4977C23.0587 49.6265 23.2309 49.7026 23.4129 49.7112C23.5949 49.7197 23.7735 49.66 23.9138 49.5438L25.3186 48.3805C26.1464 48.8594 27.0431 49.2077 27.9771 49.4131C28.0716 49.4349 28.1695 49.4377 28.265 49.4213C28.3606 49.405 28.4519 49.3698 28.5338 49.3179C28.6156 49.2659 28.6863 49.1982 28.7418 49.1187C28.7972 49.0392 28.8364 48.9494 28.8568 48.8547C28.8773 48.7599 28.8788 48.662 28.8611 48.5667C28.8434 48.4714 28.807 48.3806 28.7539 48.2994C28.7008 48.2183 28.6321 48.1486 28.5519 48.0942C28.4716 48.0399 28.3813 48.002 28.2863 47.9828C27.3474 47.7737 26.4541 47.3965 25.6495 46.8695C25.5188 46.7853 25.3646 46.7448 25.2094 46.754C25.0542 46.7633 24.9059 46.8217 24.7862 46.9209L23.4935 47.9917L22.2058 46.7042L23.2768 45.4109C23.3772 45.2896 23.4358 45.1393 23.4439 44.9821C23.4521 44.8249 23.4093 44.6693 23.322 44.5383C22.793 43.7388 22.4175 42.8477 22.2147 41.9108C22.1819 41.7591 22.1018 41.6218 21.9858 41.5186C21.8699 41.4155 21.7242 41.3519 21.5697 41.337L19.8887 41.175V39.3431L21.5697 39.1811C21.7241 39.1663 21.8697 39.1028 21.9857 38.9997C22.1016 38.8967 22.1818 38.7595 22.2147 38.608C22.4238 37.6691 22.801 36.7758 23.3281 35.9712C23.4124 35.8406 23.4529 35.6864 23.4437 35.5311C23.4344 35.3759 23.376 35.2276 23.2768 35.1078L22.2058 33.8144L23.4935 32.527L24.7862 33.5978C24.9074 33.6982 25.0578 33.7568 25.2149 33.765C25.3721 33.7731 25.5278 33.7304 25.6587 33.6431C26.4583 33.1142 27.3493 32.7387 28.2863 32.5359C28.438 32.5031 28.5753 32.423 28.6784 32.307C28.7816 32.1911 28.8452 32.0453 28.8601 31.8909L29.022 30.2098H30.8541L31.016 31.8909C31.0309 32.0453 31.0945 32.1911 31.1977 32.307C31.3008 32.423 31.4381 32.5031 31.5898 32.5359C32.5287 32.7449 33.422 33.1221 34.2267 33.6492C34.3573 33.7335 34.5115 33.7739 34.6667 33.7647C34.8219 33.7555 34.9702 33.697 35.0899 33.5978L36.3798 32.5295L37.6453 33.8112L36.5721 35.1078C36.4718 35.2291 36.4131 35.3794 36.405 35.5366C36.3968 35.6938 36.4396 35.8494 36.5269 35.9804C37.0559 36.7799 37.4314 37.671 37.6342 38.608C37.6671 38.7595 37.7473 38.8967 37.8632 38.9997C37.9792 39.1028 38.1248 39.1663 38.2792 39.1811L39.9602 39.3431V41.1758L38.3065 41.3371C38.1523 41.3521 38.0068 41.4157 37.8911 41.5187C37.7753 41.6217 37.6952 41.7588 37.6624 41.9103C37.4534 42.8492 37.0762 43.7425 36.549 44.547C36.4647 44.6777 36.4242 44.8318 36.4334 44.9871C36.4426 45.1423 36.5011 45.2906 36.6003 45.4104L37.6713 46.7037L36.3837 47.9914L35.0904 46.9204C34.9692 46.82 34.8188 46.7614 34.6616 46.7532C34.5045 46.7451 34.3488 46.7878 34.2179 46.8751C33.4183 47.4041 32.5273 47.7795 31.5903 47.9823C31.4953 48.0015 31.405 48.0394 31.3247 48.0937C31.2444 48.1481 31.1758 48.2178 31.1227 48.2989C31.0696 48.3801 31.0332 48.4709 31.0155 48.5662C30.9978 48.6616 30.9993 48.7594 31.0198 48.8542C31.0402 48.949 31.0793 49.0387 31.1348 49.1182C31.1903 49.1977 31.261 49.2654 31.3428 49.3174C31.4247 49.3693 31.516 49.4045 31.6116 49.4208C31.7071 49.4372 31.805 49.4344 31.8995 49.4126C32.835 49.2094 33.7334 48.8621 34.5624 48.3832L35.9634 49.5433C36.1037 49.6595 36.2823 49.7192 36.4643 49.7107C36.6463 49.7021 36.8185 49.626 36.9474 49.4972L39.1771 47.2683C39.306 47.1395 39.3822 46.9672 39.3907 46.7852C39.3993 46.6032 39.3396 46.4245 39.2234 46.2842L38.0599 44.8794C38.4475 44.2074 38.7507 43.4901 38.9624 42.7438L40.7626 42.5682C40.9435 42.5506 41.1114 42.4662 41.2335 42.3316C41.3557 42.197 41.4233 42.0218 41.4234 41.84V38.6786C41.4234 38.4966 41.3556 38.3212 41.2333 38.1866C41.111 38.0519 40.943 37.9676 40.7619 37.9501L38.9345 37.774C38.7255 37.0261 38.4232 36.3075 38.0347 35.6351L39.1949 34.2343C39.3107 34.0946 39.3703 33.9168 39.3624 33.7356C39.3545 33.5544 39.2795 33.3825 39.152 33.2534L36.9504 31.0237C36.8218 30.8933 36.649 30.816 36.4661 30.8068C36.2833 30.7977 36.1036 30.8574 35.9626 30.9743L34.5586 32.1376C33.8868 31.7501 33.1698 31.447 32.4237 31.2351L32.2476 29.4071C32.2302 29.226 32.1459 29.0579 32.0112 28.9356C31.8765 28.8134 31.7011 28.7456 31.5192 28.7456H28.358C28.1761 28.7456 28.0007 28.8134 27.8661 28.9357C27.7314 29.058 27.6472 29.226 27.6297 29.4071L27.4535 31.2347C26.7056 31.4436 25.9871 31.7458 25.3147 32.1342L23.9138 30.974C23.7735 30.8578 23.5949 30.7982 23.4129 30.8067C23.2309 30.8152 23.0587 30.8913 22.9298 31.0201L20.6999 33.25C20.571 33.3789 20.4949 33.5512 20.4863 33.7332C20.4778 33.9153 20.5375 34.0939 20.6537 34.2343L21.8173 35.639C21.4297 36.3108 21.1265 37.0279 20.9148 37.774L19.0869 37.9501C18.9058 37.9676 18.7377 38.0519 18.6154 38.1865C18.493 38.3212 18.4253 38.4966 18.4253 38.6786Z" fill="#0CB4C4"></path><path d="M32.8618 38.2412C32.7262 38.1024 32.541 38.0232 32.347 38.0209C32.153 38.0186 31.966 38.0935 31.8272 38.229L29.2519 40.7433L28.0501 39.5699C27.9107 39.4372 27.7247 39.3648 27.5322 39.3683C27.3398 39.3718 27.1565 39.4509 27.0221 39.5886C26.8876 39.7263 26.8128 39.9115 26.8139 40.1039C26.8149 40.2964 26.8918 40.4807 27.0278 40.6169L28.7408 42.2894C28.8775 42.4229 29.061 42.4976 29.252 42.4976C29.443 42.4976 29.6265 42.4229 29.7631 42.2894L32.8494 39.2761C32.9181 39.209 32.973 39.129 33.0109 39.0406C33.0487 38.9523 33.0688 38.8574 33.07 38.7613C33.0711 38.6652 33.0533 38.5698 33.0176 38.4805C32.9819 38.3913 32.929 38.31 32.8618 38.2412Z" fill="#0CB4C4"></path><path d="M31.1243 52.3374H30.6702V46.9495C32.3817 46.7623 33.9564 45.9264 35.0704 44.6137C36.1844 43.301 36.7531 41.6113 36.6593 39.8922C36.5656 38.173 35.8167 36.5551 34.5665 35.3713C33.3164 34.1875 31.6602 33.5277 29.9385 33.5277C28.2168 33.5277 26.5605 34.1875 25.3104 35.3713C24.0603 36.5551 23.3113 38.173 23.2176 39.8922C23.1239 41.6113 23.6925 43.301 24.8065 44.6137C25.9206 45.9264 27.4953 46.7623 29.2068 46.9495V52.3374H28.7246C28.5305 52.3374 28.3444 52.4145 28.2072 52.5518C28.0699 52.689 27.9929 52.8751 27.9929 53.0691V59.0684C27.9929 59.5807 28.1964 60.072 28.5586 60.4343C28.9209 60.7965 29.4122 61 29.9244 61C30.4367 61 30.928 60.7965 31.2903 60.4343C31.6525 60.072 31.856 59.5807 31.856 59.0684V53.0691C31.856 52.8751 31.7789 52.689 31.6417 52.5518C31.5045 52.4145 31.3184 52.3374 31.1243 52.3374ZM24.671 40.259C24.671 39.2172 24.98 38.1988 25.5588 37.3325C26.1376 36.4663 26.9603 35.7911 27.9228 35.3924C28.8853 34.9937 29.9445 34.8894 30.9663 35.0927C31.9881 35.2959 32.9267 35.7976 33.6634 36.5343C34.4 37.271 34.9017 38.2096 35.105 39.2314C35.3082 40.2533 35.2039 41.3124 34.8051 42.2749C34.4064 43.2374 33.7313 44.0601 32.865 44.6389C31.9987 45.2177 30.9803 45.5266 29.9385 45.5266C28.5419 45.525 27.2031 44.9695 26.2156 43.982C25.2281 42.9944 24.6726 41.6556 24.671 40.259ZM30.3926 53.8009V54.7372H29.4563V53.8009H30.3926ZM29.9244 59.5366C29.8003 59.5365 29.6813 59.4871 29.5935 59.3993C29.5058 59.3115 29.4564 59.1925 29.4563 59.0684V56.2006H30.3926V59.0684C30.3925 59.1925 30.3431 59.3115 30.2553 59.3993C30.1676 59.4871 30.0486 59.5365 29.9244 59.5366Z" fill="#0CB4C4"></path><path d="M19.5938 19.7472V26.7863C19.5938 26.9804 19.6709 27.1665 19.8082 27.3037C19.9454 27.441 20.1315 27.518 20.3256 27.518H39.5234C39.7174 27.518 39.9035 27.441 40.0408 27.3037C40.178 27.1665 40.2551 26.9804 40.2551 26.7863V19.7472C40.2534 18.3657 39.7038 17.0412 38.7268 16.0644C37.7499 15.0876 36.4254 14.5381 35.0439 14.5366H33.4258C33.3153 14.5365 33.2093 14.4925 33.1311 14.4143C33.053 14.3362 33.009 14.2302 33.0088 14.1196C33.0089 13.9508 32.9506 13.7871 32.8437 13.6563C32.7368 13.5256 32.588 13.4358 32.4225 13.4023C32.257 13.3687 32.085 13.3934 31.9357 13.4722C31.7863 13.551 31.6688 13.6791 31.6031 13.8346L30.9012 14.5366H28.9732L28.1562 13.6188C28.0923 13.547 28.0149 13.4885 27.9284 13.4466C27.8419 13.4047 27.748 13.3803 27.652 13.3747C27.5561 13.3691 27.46 13.3825 27.3692 13.4141C27.2784 13.4456 27.1948 13.4948 27.123 13.5587C27.112 13.5684 27.1019 13.5791 27.0917 13.5895C27.0195 13.6577 26.962 13.7398 26.9227 13.831C26.8835 13.9222 26.8632 14.0204 26.8632 14.1196C26.8631 14.2302 26.8192 14.3361 26.7411 14.4143C26.6629 14.4925 26.5569 14.5365 26.4464 14.5366H24.8051C23.4235 14.5381 22.099 15.0876 21.1221 16.0644C20.1452 17.0412 19.5956 18.3657 19.5938 19.7472ZM29.9775 18.3124L30.7686 22.8621L29.9115 23.863L29.0854 22.8745L29.9775 18.3124ZM30.1806 16L30.0241 16.4563H29.8258L29.6684 16H30.1806ZM27.8013 15.4207L28.0007 15.6448L28.5373 17.2112C28.564 17.2995 28.603 17.3835 28.6531 17.461L27.5825 22.9366C27.5616 23.0435 27.5648 23.1537 27.5919 23.2592C27.619 23.3646 27.6693 23.4628 27.7391 23.5463L29.3434 25.4661C29.4116 25.5477 29.4968 25.6134 29.593 25.6587C29.6893 25.704 29.7942 25.7279 29.9006 25.7285H29.9049C30.0106 25.7285 30.115 25.7056 30.2109 25.6614C30.3069 25.6172 30.3921 25.5527 30.4608 25.4724L32.1046 23.5527C32.1747 23.4708 32.2258 23.3745 32.2544 23.2705C32.2829 23.1666 32.2882 23.0577 32.2697 22.9515L31.2841 17.284C31.2935 17.2596 31.3047 17.2366 31.3121 17.2109L31.8418 15.6656L32.0782 15.429C32.4167 15.7785 32.8777 15.9827 33.3639 15.9985C33.3768 15.9993 33.3896 15.9996 33.4028 15.9996H35.0441C36.0377 16.0007 36.9903 16.3959 37.6929 17.0985C38.3955 17.8011 38.7908 18.7537 38.7919 19.7473V26.0548H21.0573V19.7472C21.0585 18.7537 21.4538 17.8012 22.1564 17.0987C22.859 16.3962 23.8115 16.0011 24.8051 16H26.4464C26.6996 15.9999 26.9502 15.9485 27.183 15.8488C27.4158 15.7492 27.6259 15.6034 27.8008 15.4202L27.8013 15.4207Z" stroke="#0CB4C4" stroke-width="0.4" mask="url(#path-1-outside-1_3882_330)"></path><path d="M29.9244 12.7022C31.1364 12.7008 32.2983 12.2188 33.1553 11.3618C34.0122 10.5048 34.4943 9.34292 34.4956 8.13098V5.57122C34.4956 4.35886 34.014 3.19615 33.1567 2.33888C32.2995 1.48161 31.1368 1 29.9244 1C28.712 1 27.5493 1.48161 26.6921 2.33888C25.8348 3.19615 25.3532 4.35886 25.3532 5.57122V8.13098C25.3545 9.34292 25.8366 10.5048 26.6936 11.3618C27.5505 12.2188 28.7125 12.7008 29.9244 12.7022ZM26.8166 5.57122C26.8166 4.74698 27.144 3.9565 27.7269 3.37367C28.3097 2.79084 29.1002 2.46341 29.9244 2.46341C30.7486 2.46341 31.5391 2.79084 32.122 3.37367C32.7048 3.9565 33.0322 4.74698 33.0322 5.57122V8.13098C33.0322 8.95522 32.7048 9.7457 32.122 10.3285C31.5391 10.9114 30.7486 11.2388 29.9244 11.2388C29.1002 11.2388 28.3097 10.9114 27.7269 10.3285C27.144 9.7457 26.8166 8.95522 26.8166 8.13098V5.57122Z" stroke="#0CB4C4" stroke-width="0.4" mask="url(#path-1-outside-1_3882_330)"></path><path d="M33.764 20.8242H36.2283C36.4223 20.8242 36.6085 20.7471 36.7457 20.6099C36.8829 20.4726 36.96 20.2865 36.96 20.0925C36.96 19.8984 36.8829 19.7123 36.7457 19.5751C36.6085 19.4378 36.4223 19.3607 36.2283 19.3607H33.764C33.5699 19.3607 33.3838 19.4378 33.2466 19.5751C33.1094 19.7123 33.0323 19.8984 33.0323 20.0925C33.0323 20.2865 33.1094 20.4726 33.2466 20.6099C33.3838 20.7471 33.5699 20.8242 33.764 20.8242Z" stroke="#0CB4C4" stroke-width="0.4" mask="url(#path-1-outside-1_3882_330)"></path><path d="M10.939 45.8424C12.1508 45.8409 13.3126 45.3588 14.1695 44.5019C15.0264 43.6449 15.5084 42.4831 15.5098 41.2712V38.7113C15.5036 37.503 15.0192 36.3464 14.1626 35.4942C13.306 34.642 12.1468 34.1636 10.9385 34.1636C9.73024 34.1636 8.57108 34.642 7.71447 35.4942C6.85787 36.3464 6.3735 37.503 6.36726 38.7113V41.2712C6.36862 42.4832 6.85073 43.6452 7.70781 44.5022C8.56489 45.3592 9.72694 45.8412 10.939 45.8424ZM7.83116 38.7113C7.8363 37.8904 8.16601 37.1049 8.74829 36.5263C9.33057 35.9476 10.1181 35.6229 10.939 35.6229C11.7599 35.6229 12.5475 35.9476 13.1298 36.5263C13.7121 37.1049 14.0418 37.8904 14.0469 38.7113V41.2712C14.0418 42.0921 13.7121 42.8776 13.1298 43.4562C12.5475 44.0349 11.7599 44.3597 10.939 44.3597C10.1181 44.3597 9.33057 44.0349 8.74829 43.4562C8.16601 42.8776 7.8363 42.0921 7.83116 41.2712V38.7113Z" stroke="#0CB4C4" stroke-width="0.4" mask="url(#path-1-outside-1_3882_330)"></path><path d="M0.608398 52.8875V59.9269C0.608398 60.1209 0.685489 60.307 0.822711 60.4442C0.959932 60.5815 1.14604 60.6586 1.34011 60.6586H20.5378C20.7319 60.6586 20.918 60.5815 21.0552 60.4442C21.1924 60.307 21.2695 60.1209 21.2695 59.9269V52.8875C21.268 51.5059 20.7185 50.1814 19.7416 49.2044C18.7647 48.2275 17.4402 47.6779 16.0586 47.6762H14.4404C14.3298 47.6761 14.2239 47.6322 14.1457 47.554C14.0675 47.4759 14.0236 47.3699 14.0234 47.2594C14.0234 47.0871 13.9625 46.9204 13.8516 46.7886C13.7407 46.6567 13.5868 46.5683 13.4171 46.5387C13.2474 46.5092 13.0726 46.5405 12.9237 46.6272C12.7748 46.7138 12.6613 46.8502 12.603 47.0123L11.9596 48.8049C11.8845 49.0145 11.7461 49.1955 11.5636 49.3231C11.3811 49.4506 11.1635 49.5183 10.9409 49.5169C10.7183 49.5155 10.5016 49.445 10.3207 49.3151C10.1399 49.1853 10.0038 49.0025 9.93133 48.792L9.31596 47.0065C9.27552 46.8892 9.2059 46.7841 9.11366 46.7011C9.02142 46.6181 8.90958 46.5599 8.78867 46.532C8.66775 46.5041 8.54173 46.5074 8.42245 46.5416C8.30318 46.5758 8.19456 46.6398 8.10681 46.7276L8.0923 46.7421C8.02432 46.81 7.97039 46.8906 7.9336 46.9794C7.89682 47.0682 7.87789 47.1633 7.87791 47.2594C7.87781 47.3699 7.83387 47.4759 7.75572 47.554C7.67757 47.6322 7.5716 47.6761 7.46108 47.6762H5.81962C4.43799 47.6778 3.1134 48.2273 2.13644 49.2043C1.15948 50.1812 0.609948 51.5058 0.608398 52.8875ZM8.41328 48.88L8.54742 49.2689C8.71863 49.7659 9.03991 50.1975 9.46691 50.5041C9.8939 50.8107 10.4056 50.9772 10.9312 50.9806C11.4569 50.9839 11.9706 50.824 12.4015 50.5229C12.8324 50.2218 13.1592 49.7943 13.3367 49.2995L13.4873 48.8799C13.7576 49.0396 14.0638 49.1286 14.3775 49.1386C14.3904 49.1393 14.4032 49.1397 14.4163 49.1397H16.0586C17.0523 49.1408 18.0049 49.536 18.7075 50.2386C19.41 50.9412 19.8052 51.8938 19.8063 52.8875V59.1951H2.07181V52.8875C2.07294 51.8938 2.46816 50.9412 3.17077 50.2386C3.87337 49.536 4.82599 49.1408 5.81962 49.1397H7.46108C7.79614 49.1401 8.12515 49.0504 8.41364 48.88H8.41328Z" stroke="#0CB4C4" stroke-width="0.4" mask="url(#path-1-outside-1_3882_330)"></path><path d="M48.91 45.8424C50.1219 45.8411 51.2838 45.359 52.1408 44.502C52.9978 43.6451 53.4798 42.4831 53.4812 41.2712V38.7113C53.475 37.503 52.9906 36.3464 52.134 35.4942C51.2774 34.642 50.1182 34.1636 48.9099 34.1636C47.7016 34.1636 46.5424 34.642 45.6858 35.4942C44.8292 36.3464 44.3449 37.503 44.3386 38.7113V41.2712C44.34 42.4832 44.8221 43.6451 45.6791 44.5021C46.5361 45.359 47.698 45.8411 48.91 45.8424ZM45.8025 38.7113C45.8077 37.8904 46.1374 37.1049 46.7197 36.5263C47.3019 35.9476 48.0895 35.6229 48.9104 35.6229C49.7313 35.6229 50.5189 35.9476 51.1011 36.5263C51.6834 37.1049 52.0131 37.8904 52.0183 38.7113V41.2712C52.0131 42.0921 51.6834 42.8776 51.1011 43.4562C50.5189 44.0349 49.7313 44.3597 48.9104 44.3597C48.0895 44.3597 47.3019 44.0349 46.7197 43.4562C46.1374 42.8776 45.8077 42.0921 45.8025 41.2712V38.7113Z" stroke="#0CB4C4" stroke-width="0.4" mask="url(#path-1-outside-1_3882_330)"></path><path d="M38.5794 52.8874V59.9268C38.5794 60.1209 38.6565 60.307 38.7937 60.4442C38.931 60.5815 39.1171 60.6585 39.3111 60.6585H58.5088C58.7029 60.6585 58.889 60.5815 59.0262 60.4442C59.1634 60.307 59.2405 60.1209 59.2405 59.9268V52.8874C59.239 51.5058 58.6894 50.1812 57.7125 49.2043C56.7355 48.2273 55.4109 47.6778 54.0293 47.6762H52.4112C52.3007 47.6761 52.1948 47.6322 52.1166 47.554C52.0385 47.4759 51.9945 47.3699 51.9944 47.2594C51.9945 47.087 51.9337 46.9202 51.8228 46.7883C51.7119 46.6564 51.558 46.5678 51.3882 46.5383C51.2184 46.5087 51.0436 46.5401 50.8946 46.6268C50.7457 46.7135 50.6321 46.85 50.5739 47.0122L49.9304 48.8049C49.8552 49.0144 49.7167 49.1954 49.5343 49.3229C49.3518 49.4503 49.1342 49.518 48.9116 49.5166C48.689 49.5152 48.4724 49.4447 48.2915 49.3149C48.1107 49.185 47.9746 49.0023 47.9021 48.7918L47.2867 47.0061C47.2462 46.8885 47.1764 46.7832 47.0839 46.7001C46.9914 46.617 46.8792 46.5588 46.758 46.5311C46.6368 46.5034 46.5105 46.507 46.391 46.5417C46.2716 46.5763 46.163 46.6409 46.0754 46.7292L46.061 46.7438C45.9251 46.8808 45.8488 47.066 45.8488 47.259C45.8487 47.3696 45.8047 47.4755 45.7265 47.5537C45.6484 47.6318 45.5424 47.6758 45.4319 47.6759H43.7903C42.4086 47.6775 41.0841 48.2271 40.1072 49.2042C39.1303 50.1812 38.5809 51.5058 38.5794 52.8874ZM46.3843 48.88L46.5184 49.2689C46.6897 49.7659 47.011 50.1975 47.4379 50.5041C47.8649 50.8107 48.3766 50.9772 48.9023 50.9805C49.4279 50.9839 49.9417 50.824 50.3725 50.5229C50.8034 50.2218 51.1302 49.7944 51.3078 49.2996L51.4584 48.8799C51.7287 49.0396 52.0349 49.1286 52.3487 49.1385C52.3615 49.1393 52.3745 49.1396 52.3875 49.1396H54.0289C55.0226 49.1408 55.9752 49.536 56.6778 50.2386C57.3804 50.9412 57.7756 51.8938 57.7767 52.8874V59.1951H40.0428V52.8874C40.0439 51.8939 40.4391 50.9413 41.1416 50.2387C41.8442 49.5361 42.7967 49.1408 43.7903 49.1396H45.4316C45.7668 49.1401 46.0959 49.0505 46.3845 48.88H46.3843Z" stroke="#0CB4C4" stroke-width="0.4" mask="url(#path-1-outside-1_3882_330)"></path><path d="M18.4253 38.6786V41.8397C18.4253 42.0216 18.4931 42.197 18.6154 42.3316C18.7377 42.4663 18.9058 42.5505 19.0869 42.568L20.9142 42.744C21.1231 43.492 21.4254 44.2106 21.814 44.883L20.6537 46.2838C20.5375 46.4241 20.4778 46.6028 20.4864 46.7848C20.4949 46.9668 20.5711 47.1391 20.6999 47.268L22.9298 49.4977C23.0587 49.6265 23.2309 49.7026 23.4129 49.7112C23.5949 49.7197 23.7735 49.66 23.9138 49.5438L25.3186 48.3805C26.1464 48.8594 27.0431 49.2077 27.9771 49.4131C28.0716 49.4349 28.1695 49.4377 28.265 49.4213C28.3606 49.405 28.4519 49.3698 28.5338 49.3179C28.6156 49.2659 28.6863 49.1982 28.7418 49.1187C28.7972 49.0392 28.8364 48.9494 28.8568 48.8547C28.8773 48.7599 28.8788 48.662 28.8611 48.5667C28.8434 48.4714 28.807 48.3806 28.7539 48.2994C28.7008 48.2183 28.6321 48.1486 28.5519 48.0942C28.4716 48.0399 28.3813 48.002 28.2863 47.9828C27.3474 47.7737 26.4541 47.3965 25.6495 46.8695C25.5188 46.7853 25.3646 46.7448 25.2094 46.754C25.0542 46.7633 24.9059 46.8217 24.7862 46.9209L23.4935 47.9917L22.2058 46.7042L23.2768 45.4109C23.3772 45.2896 23.4358 45.1393 23.4439 44.9821C23.4521 44.8249 23.4093 44.6693 23.322 44.5383C22.793 43.7388 22.4175 42.8477 22.2147 41.9108C22.1819 41.7591 22.1018 41.6218 21.9858 41.5186C21.8699 41.4155 21.7242 41.3519 21.5697 41.337L19.8887 41.175V39.3431L21.5697 39.1811C21.7241 39.1663 21.8697 39.1028 21.9857 38.9997C22.1016 38.8967 22.1818 38.7595 22.2147 38.608C22.4238 37.6691 22.801 36.7758 23.3281 35.9712C23.4124 35.8406 23.4529 35.6864 23.4437 35.5311C23.4344 35.3759 23.376 35.2276 23.2768 35.1078L22.2058 33.8144L23.4935 32.527L24.7862 33.5978C24.9074 33.6982 25.0578 33.7568 25.2149 33.765C25.3721 33.7731 25.5278 33.7304 25.6587 33.6431C26.4583 33.1142 27.3493 32.7387 28.2863 32.5359C28.438 32.5031 28.5753 32.423 28.6784 32.307C28.7816 32.1911 28.8452 32.0453 28.8601 31.8909L29.022 30.2098H30.8541L31.016 31.8909C31.0309 32.0453 31.0945 32.1911 31.1977 32.307C31.3008 32.423 31.4381 32.5031 31.5898 32.5359C32.5287 32.7449 33.422 33.1221 34.2267 33.6492C34.3573 33.7335 34.5115 33.7739 34.6667 33.7647C34.8219 33.7555 34.9702 33.697 35.0899 33.5978L36.3798 32.5295L37.6453 33.8112L36.5721 35.1078C36.4718 35.2291 36.4131 35.3794 36.405 35.5366C36.3968 35.6938 36.4396 35.8494 36.5269 35.9804C37.0559 36.7799 37.4314 37.671 37.6342 38.608C37.6671 38.7595 37.7473 38.8967 37.8632 38.9997C37.9792 39.1028 38.1248 39.1663 38.2792 39.1811L39.9602 39.3431V41.1758L38.3065 41.3371C38.1523 41.3521 38.0068 41.4157 37.8911 41.5187C37.7753 41.6217 37.6952 41.7588 37.6624 41.9103C37.4534 42.8492 37.0762 43.7425 36.549 44.547C36.4647 44.6777 36.4242 44.8318 36.4334 44.9871C36.4426 45.1423 36.5011 45.2906 36.6003 45.4104L37.6713 46.7037L36.3837 47.9914L35.0904 46.9204C34.9692 46.82 34.8188 46.7614 34.6616 46.7532C34.5045 46.7451 34.3488 46.7878 34.2179 46.8751C33.4183 47.4041 32.5273 47.7795 31.5903 47.9823C31.4953 48.0015 31.405 48.0394 31.3247 48.0937C31.2444 48.1481 31.1758 48.2178 31.1227 48.2989C31.0696 48.3801 31.0332 48.4709 31.0155 48.5662C30.9978 48.6616 30.9993 48.7594 31.0198 48.8542C31.0402 48.949 31.0793 49.0387 31.1348 49.1182C31.1903 49.1977 31.261 49.2654 31.3428 49.3174C31.4247 49.3693 31.516 49.4045 31.6116 49.4208C31.7071 49.4372 31.805 49.4344 31.8995 49.4126C32.835 49.2094 33.7334 48.8621 34.5624 48.3832L35.9634 49.5433C36.1037 49.6595 36.2823 49.7192 36.4643 49.7107C36.6463 49.7021 36.8185 49.626 36.9474 49.4972L39.1771 47.2683C39.306 47.1395 39.3822 46.9672 39.3907 46.7852C39.3993 46.6032 39.3396 46.4245 39.2234 46.2842L38.0599 44.8794C38.4475 44.2074 38.7507 43.4901 38.9624 42.7438L40.7626 42.5682C40.9435 42.5506 41.1114 42.4662 41.2335 42.3316C41.3557 42.197 41.4233 42.0218 41.4234 41.84V38.6786C41.4234 38.4966 41.3556 38.3212 41.2333 38.1866C41.111 38.0519 40.943 37.9676 40.7619 37.9501L38.9345 37.774C38.7255 37.0261 38.4232 36.3075 38.0347 35.6351L39.1949 34.2343C39.3107 34.0946 39.3703 33.9168 39.3624 33.7356C39.3545 33.5544 39.2795 33.3825 39.152 33.2534L36.9504 31.0237C36.8218 30.8933 36.649 30.816 36.4661 30.8068C36.2833 30.7977 36.1036 30.8574 35.9626 30.9743L34.5586 32.1376C33.8868 31.7501 33.1698 31.447 32.4237 31.2351L32.2476 29.4071C32.2302 29.226 32.1459 29.0579 32.0112 28.9356C31.8765 28.8134 31.7011 28.7456 31.5192 28.7456H28.358C28.1761 28.7456 28.0007 28.8134 27.8661 28.9357C27.7314 29.058 27.6472 29.226 27.6297 29.4071L27.4535 31.2347C26.7056 31.4436 25.9871 31.7458 25.3147 32.1342L23.9138 30.974C23.7735 30.8578 23.5949 30.7982 23.4129 30.8067C23.2309 30.8152 23.0587 30.8913 22.9298 31.0201L20.6999 33.25C20.571 33.3789 20.4949 33.5512 20.4863 33.7332C20.4778 33.9153 20.5375 34.0939 20.6537 34.2343L21.8173 35.639C21.4297 36.3108 21.1265 37.0279 20.9148 37.774L19.0869 37.9501C18.9058 37.9676 18.7377 38.0519 18.6154 38.1865C18.493 38.3212 18.4253 38.4966 18.4253 38.6786Z" stroke="#0CB4C4" stroke-width="0.4" mask="url(#path-1-outside-1_3882_330)"></path><path d="M32.8618 38.2412C32.7262 38.1024 32.541 38.0232 32.347 38.0209C32.153 38.0186 31.966 38.0935 31.8272 38.229L29.2519 40.7433L28.0501 39.5699C27.9107 39.4372 27.7247 39.3648 27.5322 39.3683C27.3398 39.3718 27.1565 39.4509 27.0221 39.5886C26.8876 39.7263 26.8128 39.9115 26.8139 40.1039C26.8149 40.2964 26.8918 40.4807 27.0278 40.6169L28.7408 42.2894C28.8775 42.4229 29.061 42.4976 29.252 42.4976C29.443 42.4976 29.6265 42.4229 29.7631 42.2894L32.8494 39.2761C32.9181 39.209 32.973 39.129 33.0109 39.0406C33.0487 38.9523 33.0688 38.8574 33.07 38.7613C33.0711 38.6652 33.0533 38.5698 33.0176 38.4805C32.9819 38.3913 32.929 38.31 32.8618 38.2412Z" stroke="#0CB4C4" stroke-width="0.4" mask="url(#path-1-outside-1_3882_330)"></path><path d="M31.1243 52.3374H30.6702V46.9495C32.3817 46.7623 33.9564 45.9264 35.0704 44.6137C36.1844 43.301 36.7531 41.6113 36.6593 39.8922C36.5656 38.173 35.8167 36.5551 34.5665 35.3713C33.3164 34.1875 31.6602 33.5277 29.9385 33.5277C28.2168 33.5277 26.5605 34.1875 25.3104 35.3713C24.0603 36.5551 23.3113 38.173 23.2176 39.8922C23.1239 41.6113 23.6925 43.301 24.8065 44.6137C25.9206 45.9264 27.4953 46.7623 29.2068 46.9495V52.3374H28.7246C28.5305 52.3374 28.3444 52.4145 28.2072 52.5518C28.0699 52.689 27.9929 52.8751 27.9929 53.0691V59.0684C27.9929 59.5807 28.1964 60.072 28.5586 60.4343C28.9209 60.7965 29.4122 61 29.9244 61C30.4367 61 30.928 60.7965 31.2903 60.4343C31.6525 60.072 31.856 59.5807 31.856 59.0684V53.0691C31.856 52.8751 31.7789 52.689 31.6417 52.5518C31.5045 52.4145 31.3184 52.3374 31.1243 52.3374ZM24.671 40.259C24.671 39.2172 24.98 38.1988 25.5588 37.3325C26.1376 36.4663 26.9603 35.7911 27.9228 35.3924C28.8853 34.9937 29.9445 34.8894 30.9663 35.0927C31.9881 35.2959 32.9267 35.7976 33.6634 36.5343C34.4 37.271 34.9017 38.2096 35.105 39.2314C35.3082 40.2533 35.2039 41.3124 34.8051 42.2749C34.4064 43.2374 33.7313 44.0601 32.865 44.6389C31.9987 45.2177 30.9803 45.5266 29.9385 45.5266C28.5419 45.525 27.2031 44.9695 26.2156 43.982C25.2281 42.9944 24.6726 41.6556 24.671 40.259ZM30.3926 53.8009V54.7372H29.4563V53.8009H30.3926ZM29.9244 59.5366C29.8003 59.5365 29.6813 59.4871 29.5935 59.3993C29.5058 59.3115 29.4564 59.1925 29.4563 59.0684V56.2006H30.3926V59.0684C30.3925 59.1925 30.3431 59.3115 30.2553 59.3993C30.1676 59.4871 30.0486 59.5365 29.9244 59.5366Z" stroke="#0CB4C4" stroke-width="0.4" mask="url(#path-1-outside-1_3882_330)"></path></svg>