<svg width="61" height="60" viewBox="0 0 61 60" fill="none" xmlns="http://www.w3.org/2000/svg"><path d="M45.7425 24.502C45.972 24.502 46.1887 24.4102 46.3493 24.2444L49.753 20.7209H53.1848C53.5672 22.3348 55.0154 23.5382 56.7415 23.5382C58.7582 23.5382 60.4002 21.8963 60.4002 19.8795C60.4002 17.8628 58.7582 16.2208 56.7415 16.2208C55.0129 16.2208 53.5646 17.4243 53.1848 19.0356H49.396C49.1666 19.0356 48.9499 19.1274 48.7892 19.2931L45.3855 22.8166H44.1515L44.149 18.9182C44.149 17.4548 42.9583 16.2641 41.4949 16.2641H37.5965V15.0301L41.1175 11.6264C41.2832 11.4683 41.375 11.2491 41.375 11.0196V7.23851C43.0016 6.86627 44.2204 5.41043 44.2204 3.67418C44.2204 1.64722 42.5784 0.000202612 40.5617 0.000202612C38.5347 0.000202612 36.8877 1.64722 36.8877 3.67418C36.8877 5.39261 38.0834 6.83312 39.6897 7.22578V10.6652L36.1687 14.0689C36.003 14.227 35.9112 14.4462 35.9112 14.6757V16.2666H31.0415V7.23067C32.6605 6.85078 33.8741 5.40005 33.8741 3.67398C33.8741 1.64702 32.227 0 30.2001 0C28.1834 0 26.5414 1.64702 26.5414 3.67398C26.5414 5.40005 27.7474 6.84826 29.3587 7.23067V16.264H24.489V14.6731C24.489 14.4462 24.3972 14.2269 24.234 14.0688L20.7257 10.6651V7.23082C22.3371 6.84837 23.5431 5.40019 23.5431 3.67413C23.5431 1.64717 21.9011 0.000143789 19.8843 0.000143789C17.8599 0.000143789 16.2104 1.64717 16.2104 3.67413C16.2104 5.40274 17.4215 6.85095 19.0404 7.23082V11.0195C19.0404 11.2465 19.1322 11.4657 19.2954 11.6238L22.8036 15.0275V16.264H18.918C17.4546 16.264 16.2639 17.4547 16.2639 18.9182V22.8191H15.0274L11.6237 19.2956C11.4656 19.1298 11.2463 19.0381 11.0169 19.0381H7.2154C6.83296 17.4267 5.38477 16.2233 3.65871 16.2233C1.642 16.2233 0 17.8652 0 19.882C0 21.9013 1.64193 23.5407 3.65871 23.5407C5.38477 23.5407 6.83298 22.3347 7.2154 20.7234H10.6599L14.0636 24.2469C14.2217 24.4127 14.4409 24.5044 14.6704 24.5044H16.2639V29.3742H10.7848C10.4049 27.7551 8.95419 26.5416 7.22812 26.5416C5.20371 26.5416 3.55414 28.1886 3.55414 30.2156C3.55414 31.9442 4.76522 33.3924 6.38418 33.7723V42.974H3.10795C2.64392 42.974 2.26656 43.3514 2.26656 43.8154V52.0531C2.26656 52.5172 2.6439 52.8945 3.10795 52.8945H11.3457C11.8097 52.8945 12.1871 52.5172 12.1871 52.0531V43.8154C12.1871 43.3514 11.8097 42.974 11.3457 42.974H8.06945V33.7723C9.41055 33.4536 10.4661 32.398 10.7848 31.0569H16.2664L16.2639 41.4949C16.2639 42.9584 17.4546 44.149 18.918 44.149H29.356V49.1207L25.6463 51.2675C25.3863 51.418 25.2231 51.6959 25.2231 51.9967V56.7671C25.2231 57.0679 25.3837 57.3433 25.6412 57.4937L29.7767 59.8878C29.9067 59.9618 30.052 60 30.1973 60C30.3427 60 30.488 59.9618 30.618 59.8878L34.756 57.4937C35.0161 57.3433 35.1741 57.0654 35.1741 56.7671V51.9967C35.1741 51.6959 35.0135 51.418 34.7509 51.2675L31.0387 49.1207V44.149H41.4923C42.9558 44.149 44.1465 42.9584 44.1465 41.4949L44.1516 31.0569H49.6179C49.9366 32.398 50.9973 33.4561 52.346 33.7723V43.5627L47.6752 51.6321C47.5247 51.8921 47.5247 52.2134 47.6752 52.4735C47.8256 52.7335 48.1035 52.8942 48.4044 52.8942H57.9605C58.2614 52.8942 58.5393 52.7335 58.6897 52.4735C58.8402 52.2134 58.8402 51.8922 58.6897 51.6321L54.0316 43.5627V33.7723C55.6455 33.3898 56.8489 31.9416 56.8489 30.2156C56.8489 28.1886 55.207 26.5416 53.1902 26.5416C51.4565 26.5416 50.0007 27.7527 49.6182 29.3742H44.1518V24.5044L45.7425 24.502ZM56.7418 17.9064C57.8305 17.9064 58.7152 18.7912 58.7152 19.8798C58.7152 20.9685 57.8304 21.8557 56.7418 21.8557C55.6531 21.8557 54.7659 20.971 54.7659 19.8798C54.7659 18.7936 55.6532 17.9064 56.7418 17.9064ZM38.5732 3.67431C38.5732 2.57797 39.4656 1.6856 40.562 1.6856C41.6507 1.6856 42.5353 2.57797 42.5353 3.67431C42.5353 4.76301 41.6506 5.64768 40.562 5.64768C39.4656 5.64768 38.5732 4.76295 38.5732 3.67431ZM28.2267 3.67431C28.2267 2.57797 29.1114 1.6856 30.2 1.6856C31.2964 1.6856 32.1887 2.57797 32.1887 3.67431C32.1887 4.76301 31.2964 5.64768 30.2 5.64768C29.1113 5.64768 28.2267 4.76295 28.2267 3.67431ZM17.8931 3.67431C17.8931 2.57797 18.7855 1.6856 19.8818 1.6856C20.9705 1.6856 21.8552 2.57797 21.8552 3.67431C21.8552 4.76301 20.9705 5.64768 19.8818 5.64768C18.7855 5.64768 17.8931 4.76295 17.8931 3.67431ZM3.66099 21.8553C2.57229 21.8553 1.68762 20.9705 1.68762 19.8793C1.68762 18.7906 2.57235 17.906 3.66099 17.906C4.74969 17.906 5.63436 18.7907 5.63436 19.8793C5.63436 20.9706 4.74963 21.8553 3.66099 21.8553ZM10.5039 51.2117H3.94883V44.6593H10.5013L10.5039 51.2117ZM7.22767 32.1888C6.13133 32.1888 5.23896 31.3041 5.23896 30.2154C5.23896 29.1191 6.13133 28.2267 7.22767 28.2267C8.31637 28.2267 9.20104 29.1191 9.20104 30.2154C9.20104 31.3016 8.31631 32.1888 7.22767 32.1888ZM33.491 56.2852L30.1994 58.1897L26.9079 56.2852V52.4863L30.1994 50.5791L33.491 52.4837V56.2852ZM49.862 51.2115L53.1841 45.4723L56.4961 51.2115H49.862ZM53.1867 28.224C54.2754 28.224 55.1627 29.1164 55.1627 30.2128C55.1627 31.3015 54.2779 32.1861 53.1867 32.1861C52.0904 32.1861 51.198 31.3014 51.198 30.2128C51.198 29.1164 52.0904 28.224 53.1867 28.224ZM42.4655 41.4947C42.4655 42.02 42.0219 42.4636 41.4966 42.4636H18.9197C18.3843 42.4636 17.9509 42.0302 17.9509 41.4947L17.9483 18.9179C17.9483 18.3824 18.3818 17.949 18.9172 17.949H41.4941C42.0193 17.949 42.4629 18.3926 42.4629 18.9179L42.4655 41.4947Z" fill="#0CB4C4"></path><path d="M40.2866 27.6917L38.4661 27.1614C38.382 26.937 38.2902 26.7178 38.1959 26.5036L39.0653 24.9203C39.3891 24.4129 39.3049 23.7551 38.9021 23.3956C38.2775 22.7557 37.6528 22.131 36.9924 21.4732C36.5998 21.1239 36.0236 21.0423 35.557 21.2948L33.91 22.21C33.6933 22.1081 33.4715 22.0163 33.2395 21.9347L32.7347 20.1831C32.625 19.7038 32.2222 19.3315 31.7174 19.2474C31.6715 19.2397 31.623 19.2346 31.5771 19.2346H28.8312C28.7853 19.2346 28.7369 19.2397 28.691 19.2474C28.1887 19.3315 27.7859 19.7038 27.6737 20.1831L27.1689 21.9372C26.9369 22.0214 26.7125 22.1131 26.5009 22.21L24.8462 21.2922C24.3847 21.0398 23.7626 21.1367 23.4006 21.5013C22.7606 22.1285 22.1334 22.7557 21.5113 23.3905C21.0983 23.8035 21.0295 24.4333 21.315 24.8769L22.2176 26.501C22.1181 26.7126 22.0263 26.9345 21.9397 27.1639L20.0989 27.7019C19.5864 27.8727 19.2422 28.3469 19.2422 28.8823V31.5288C19.2422 32.1178 19.6399 32.6125 20.2009 32.7323L21.9372 33.2371C22.0239 33.4717 22.1182 33.6935 22.2176 33.9051L21.2998 35.5572C21.0474 36.0161 21.1137 36.5923 21.5012 37.0283L23.4262 38.9405C23.4491 38.9635 23.4746 38.9839 23.5001 39.0068C23.8928 39.3153 24.5098 39.3332 24.882 39.1088L26.5061 38.2063C26.7254 38.3082 26.9447 38.3975 27.1716 38.4816L27.6917 40.2638C27.8294 40.8043 28.3163 41.1843 28.8772 41.1843H31.539C31.9979 41.1843 32.5818 40.8324 32.7144 40.2944L33.2422 38.4842C33.4742 38.4026 33.696 38.3109 33.9127 38.2089L35.5062 39.0936C35.9345 39.3537 36.5337 39.3154 36.9263 39.0095C36.9544 38.9891 36.9799 38.9661 37.0028 38.9406L38.9482 36.9927C39.2975 36.5975 39.3638 36.0238 39.1139 35.5624L38.2063 33.9077C38.3108 33.6807 38.4051 33.4589 38.4842 33.2422L40.2153 32.74C40.7813 32.6201 41.1867 32.1255 41.1867 31.5365V28.89C41.1791 28.3495 40.8322 27.8727 40.2866 27.6917ZM39.4937 31.1847L37.5815 31.7405C37.3061 31.8195 37.0894 32.0363 37.0078 32.3116C36.8956 32.6941 36.7299 33.0943 36.5004 33.538C36.373 33.7878 36.3755 34.0836 36.5106 34.3309L37.4719 36.0799L36.0696 37.4822L34.3333 36.5159C34.0809 36.3756 33.7724 36.3756 33.52 36.5133C33.1452 36.7198 32.75 36.8804 32.314 37.0105C32.0386 37.0921 31.8219 37.3062 31.7429 37.5841L31.187 39.4964H29.2188L28.663 37.5841C28.5839 37.3113 28.3723 37.0972 28.0995 37.013C27.6686 36.883 27.2709 36.7173 26.8782 36.5108C26.6258 36.3756 26.3224 36.3807 26.0751 36.5184L24.3465 37.4796L22.9391 36.0825L23.908 34.336C24.0482 34.0836 24.0508 33.7776 23.9105 33.5226C23.7117 33.1606 23.5434 32.7577 23.393 32.2937C23.3063 32.0286 23.0947 31.8221 22.8269 31.743L20.9301 31.1923V29.2189L22.8296 28.6631C23.0947 28.5866 23.3038 28.3827 23.3905 28.1201C23.5435 27.6586 23.7168 27.2532 23.9157 26.8759C24.0483 26.6235 24.0457 26.3201 23.908 26.0727L22.9443 24.3441C23.4057 23.875 23.8698 23.411 24.344 22.9444L26.0751 23.9056C26.3276 24.0459 26.6361 24.0484 26.8885 23.9082C27.2403 23.7144 27.6483 23.5461 28.0996 23.411C28.3724 23.3269 28.5865 23.1127 28.6656 22.8374L29.2163 20.9277H31.1947L31.7455 22.8374C31.8245 23.1153 32.0412 23.332 32.3166 23.4136C32.7526 23.541 33.1477 23.7042 33.5226 23.9107C33.7775 24.051 34.0835 24.051 34.3359 23.9082L36.0748 22.9419C36.5311 23.3982 36.99 23.8597 37.4694 24.3441L36.5158 26.0778C36.3833 26.32 36.3756 26.6132 36.5006 26.8605C36.6994 27.2583 36.8702 27.6713 37.0207 28.1226C37.1074 28.3852 37.319 28.5866 37.5841 28.6631L39.4964 29.2189L39.4937 31.1847Z" fill="#0CB4C4"></path><path d="M30.2004 24.8414C27.2377 24.8414 24.8284 27.2507 24.8284 30.2134C24.8284 33.1658 27.2377 35.5701 30.2004 35.5701C33.1631 35.5701 35.5725 33.1658 35.5725 30.2134C35.5725 27.2533 33.1631 24.8414 30.2004 24.8414ZM30.2004 33.8871C28.1684 33.8871 26.5137 32.2401 26.5137 30.2157C26.5137 28.1836 28.1684 26.529 30.2004 26.529C32.2324 26.529 33.8871 28.1837 33.8871 30.2157C33.8871 32.2401 32.2324 33.8871 30.2004 33.8871Z" fill="#0CB4C4"></path><path d="M45.7425 24.502C45.972 24.502 46.1887 24.4102 46.3493 24.2444L49.753 20.7209H53.1848C53.5672 22.3348 55.0154 23.5382 56.7415 23.5382C58.7582 23.5382 60.4002 21.8963 60.4002 19.8795C60.4002 17.8628 58.7582 16.2208 56.7415 16.2208C55.0129 16.2208 53.5646 17.4243 53.1848 19.0356H49.396C49.1666 19.0356 48.9499 19.1274 48.7892 19.2931L45.3855 22.8166H44.1515L44.149 18.9182C44.149 17.4548 42.9583 16.2641 41.4949 16.2641H37.5965V15.0301L41.1175 11.6264C41.2832 11.4683 41.375 11.2491 41.375 11.0196V7.23851C43.0016 6.86627 44.2204 5.41043 44.2204 3.67418C44.2204 1.64722 42.5784 0.000202612 40.5617 0.000202612C38.5347 0.000202612 36.8877 1.64722 36.8877 3.67418C36.8877 5.39261 38.0834 6.83312 39.6897 7.22578V10.6652L36.1687 14.0689C36.003 14.227 35.9112 14.4462 35.9112 14.6757V16.2666H31.0415V7.23067C32.6605 6.85078 33.8741 5.40005 33.8741 3.67398C33.8741 1.64702 32.227 0 30.2001 0C28.1834 0 26.5414 1.64702 26.5414 3.67398C26.5414 5.40005 27.7474 6.84826 29.3587 7.23067V16.264H24.489V14.6731C24.489 14.4462 24.3972 14.2269 24.234 14.0688L20.7257 10.6651V7.23082C22.3371 6.84837 23.5431 5.40019 23.5431 3.67413C23.5431 1.64717 21.9011 0.000143789 19.8843 0.000143789C17.8599 0.000143789 16.2104 1.64717 16.2104 3.67413C16.2104 5.40274 17.4215 6.85095 19.0404 7.23082V11.0195C19.0404 11.2465 19.1322 11.4657 19.2954 11.6238L22.8036 15.0275V16.264H18.918C17.4546 16.264 16.2639 17.4547 16.2639 18.9182V22.8191H15.0274L11.6237 19.2956C11.4656 19.1298 11.2463 19.0381 11.0169 19.0381H7.2154C6.83296 17.4267 5.38477 16.2233 3.65871 16.2233C1.642 16.2233 0 17.8652 0 19.882C0 21.9013 1.64193 23.5407 3.65871 23.5407C5.38477 23.5407 6.83298 22.3347 7.2154 20.7234H10.6599L14.0636 24.2469C14.2217 24.4127 14.4409 24.5044 14.6704 24.5044H16.2639V29.3742H10.7848C10.4049 27.7551 8.95419 26.5416 7.22812 26.5416C5.20371 26.5416 3.55414 28.1886 3.55414 30.2156C3.55414 31.9442 4.76522 33.3924 6.38418 33.7723V42.974H3.10795C2.64392 42.974 2.26656 43.3514 2.26656 43.8154V52.0531C2.26656 52.5172 2.6439 52.8945 3.10795 52.8945H11.3457C11.8097 52.8945 12.1871 52.5172 12.1871 52.0531V43.8154C12.1871 43.3514 11.8097 42.974 11.3457 42.974H8.06945V33.7723C9.41055 33.4536 10.4661 32.398 10.7848 31.0569H16.2664L16.2639 41.4949C16.2639 42.9584 17.4546 44.149 18.918 44.149H29.356V49.1207L25.6463 51.2675C25.3863 51.418 25.2231 51.6959 25.2231 51.9967V56.7671C25.2231 57.0679 25.3837 57.3433 25.6412 57.4937L29.7767 59.8878C29.9067 59.9618 30.052 60 30.1973 60C30.3427 60 30.488 59.9618 30.618 59.8878L34.756 57.4937C35.0161 57.3433 35.1741 57.0654 35.1741 56.7671V51.9967C35.1741 51.6959 35.0135 51.418 34.7509 51.2675L31.0387 49.1207V44.149H41.4923C42.9558 44.149 44.1465 42.9584 44.1465 41.4949L44.1516 31.0569H49.6179C49.9366 32.398 50.9973 33.4561 52.346 33.7723V43.5627L47.6752 51.6321C47.5247 51.8921 47.5247 52.2134 47.6752 52.4735C47.8256 52.7335 48.1035 52.8942 48.4044 52.8942H57.9605C58.2614 52.8942 58.5393 52.7335 58.6897 52.4735C58.8402 52.2134 58.8402 51.8922 58.6897 51.6321L54.0316 43.5627V33.7723C55.6455 33.3898 56.8489 31.9416 56.8489 30.2156C56.8489 28.1886 55.207 26.5416 53.1902 26.5416C51.4565 26.5416 50.0007 27.7527 49.6182 29.3742H44.1518V24.5044L45.7425 24.502ZM56.7418 17.9064C57.8305 17.9064 58.7152 18.7912 58.7152 19.8798C58.7152 20.9685 57.8304 21.8557 56.7418 21.8557C55.6531 21.8557 54.7659 20.971 54.7659 19.8798C54.7659 18.7936 55.6532 17.9064 56.7418 17.9064ZM38.5732 3.67431C38.5732 2.57797 39.4656 1.6856 40.562 1.6856C41.6507 1.6856 42.5353 2.57797 42.5353 3.67431C42.5353 4.76301 41.6506 5.64768 40.562 5.64768C39.4656 5.64768 38.5732 4.76295 38.5732 3.67431ZM28.2267 3.67431C28.2267 2.57797 29.1114 1.6856 30.2 1.6856C31.2964 1.6856 32.1887 2.57797 32.1887 3.67431C32.1887 4.76301 31.2964 5.64768 30.2 5.64768C29.1113 5.64768 28.2267 4.76295 28.2267 3.67431ZM17.8931 3.67431C17.8931 2.57797 18.7855 1.6856 19.8818 1.6856C20.9705 1.6856 21.8552 2.57797 21.8552 3.67431C21.8552 4.76301 20.9705 5.64768 19.8818 5.64768C18.7855 5.64768 17.8931 4.76295 17.8931 3.67431ZM3.66099 21.8553C2.57229 21.8553 1.68762 20.9705 1.68762 19.8793C1.68762 18.7906 2.57235 17.906 3.66099 17.906C4.74969 17.906 5.63436 18.7907 5.63436 19.8793C5.63436 20.9706 4.74963 21.8553 3.66099 21.8553ZM10.5039 51.2117H3.94883V44.6593H10.5013L10.5039 51.2117ZM7.22767 32.1888C6.13133 32.1888 5.23896 31.3041 5.23896 30.2154C5.23896 29.1191 6.13133 28.2267 7.22767 28.2267C8.31637 28.2267 9.20104 29.1191 9.20104 30.2154C9.20104 31.3016 8.31631 32.1888 7.22767 32.1888ZM33.491 56.2852L30.1994 58.1897L26.9079 56.2852V52.4863L30.1994 50.5791L33.491 52.4837V56.2852ZM49.862 51.2115L53.1841 45.4723L56.4961 51.2115H49.862ZM53.1867 28.224C54.2754 28.224 55.1627 29.1164 55.1627 30.2128C55.1627 31.3015 54.2779 32.1861 53.1867 32.1861C52.0904 32.1861 51.198 31.3014 51.198 30.2128C51.198 29.1164 52.0904 28.224 53.1867 28.224ZM42.4655 41.4947C42.4655 42.02 42.0219 42.4636 41.4966 42.4636H18.9197C18.3843 42.4636 17.9509 42.0302 17.9509 41.4947L17.9483 18.9179C17.9483 18.3824 18.3818 17.949 18.9172 17.949H41.4941C42.0193 17.949 42.4629 18.3926 42.4629 18.9179L42.4655 41.4947Z" stroke="#0CB4C4"></path><path d="M40.2866 27.6917L38.4661 27.1614C38.382 26.937 38.2902 26.7178 38.1959 26.5036L39.0653 24.9203C39.3891 24.4129 39.3049 23.7551 38.9021 23.3956C38.2775 22.7557 37.6528 22.131 36.9924 21.4732C36.5998 21.1239 36.0236 21.0423 35.557 21.2948L33.91 22.21C33.6933 22.1081 33.4715 22.0163 33.2395 21.9347L32.7347 20.1831C32.625 19.7038 32.2222 19.3315 31.7174 19.2474C31.6715 19.2397 31.623 19.2346 31.5771 19.2346H28.8312C28.7853 19.2346 28.7369 19.2397 28.691 19.2474C28.1887 19.3315 27.7859 19.7038 27.6737 20.1831L27.1689 21.9372C26.9369 22.0214 26.7125 22.1131 26.5009 22.21L24.8462 21.2922C24.3847 21.0398 23.7626 21.1367 23.4006 21.5013C22.7606 22.1285 22.1334 22.7557 21.5113 23.3905C21.0983 23.8035 21.0295 24.4333 21.315 24.8769L22.2176 26.501C22.1181 26.7126 22.0263 26.9345 21.9397 27.1639L20.0989 27.7019C19.5864 27.8727 19.2422 28.3469 19.2422 28.8823V31.5288C19.2422 32.1178 19.6399 32.6125 20.2009 32.7323L21.9372 33.2371C22.0239 33.4717 22.1182 33.6935 22.2176 33.9051L21.2998 35.5572C21.0474 36.0161 21.1137 36.5923 21.5012 37.0283L23.4262 38.9405C23.4491 38.9635 23.4746 38.9839 23.5001 39.0068C23.8928 39.3153 24.5098 39.3332 24.882 39.1088L26.5061 38.2063C26.7254 38.3082 26.9447 38.3975 27.1716 38.4816L27.6917 40.2638C27.8294 40.8043 28.3163 41.1843 28.8772 41.1843H31.539C31.9979 41.1843 32.5818 40.8324 32.7144 40.2944L33.2422 38.4842C33.4742 38.4026 33.696 38.3109 33.9127 38.2089L35.5062 39.0936C35.9345 39.3537 36.5337 39.3154 36.9263 39.0095C36.9544 38.9891 36.9799 38.9661 37.0028 38.9406L38.9482 36.9927C39.2975 36.5975 39.3638 36.0238 39.1139 35.5624L38.2063 33.9077C38.3108 33.6807 38.4051 33.4589 38.4842 33.2422L40.2153 32.74C40.7813 32.6201 41.1867 32.1255 41.1867 31.5365V28.89C41.1791 28.3495 40.8322 27.8727 40.2866 27.6917ZM39.4937 31.1847L37.5815 31.7405C37.3061 31.8195 37.0894 32.0363 37.0078 32.3116C36.8956 32.6941 36.7299 33.0943 36.5004 33.538C36.373 33.7878 36.3755 34.0836 36.5106 34.3309L37.4719 36.0799L36.0696 37.4822L34.3333 36.5159C34.0809 36.3756 33.7724 36.3756 33.52 36.5133C33.1452 36.7198 32.75 36.8804 32.314 37.0105C32.0386 37.0921 31.8219 37.3062 31.7429 37.5841L31.187 39.4964H29.2188L28.663 37.5841C28.5839 37.3113 28.3723 37.0972 28.0995 37.013C27.6686 36.883 27.2709 36.7173 26.8782 36.5108C26.6258 36.3756 26.3224 36.3807 26.0751 36.5184L24.3465 37.4796L22.9391 36.0825L23.908 34.336C24.0482 34.0836 24.0508 33.7776 23.9105 33.5226C23.7117 33.1606 23.5434 32.7577 23.393 32.2937C23.3063 32.0286 23.0947 31.8221 22.8269 31.743L20.9301 31.1923V29.2189L22.8296 28.6631C23.0947 28.5866 23.3038 28.3827 23.3905 28.1201C23.5435 27.6586 23.7168 27.2532 23.9157 26.8759C24.0483 26.6235 24.0457 26.3201 23.908 26.0727L22.9443 24.3441C23.4057 23.875 23.8698 23.411 24.344 22.9444L26.0751 23.9056C26.3276 24.0459 26.6361 24.0484 26.8885 23.9082C27.2403 23.7144 27.6483 23.5461 28.0996 23.411C28.3724 23.3269 28.5865 23.1127 28.6656 22.8374L29.2163 20.9277H31.1947L31.7455 22.8374C31.8245 23.1153 32.0412 23.332 32.3166 23.4136C32.7526 23.541 33.1477 23.7042 33.5226 23.9107C33.7775 24.051 34.0835 24.051 34.3359 23.9082L36.0748 22.9419C36.5311 23.3982 36.99 23.8597 37.4694 24.3441L36.5158 26.0778C36.3833 26.32 36.3756 26.6132 36.5006 26.8605C36.6994 27.2583 36.8702 27.6713 37.0207 28.1226C37.1074 28.3852 37.319 28.5866 37.5841 28.6631L39.4964 29.2189L39.4937 31.1847Z" stroke="#0CB4C4"></path><path d="M30.2004 24.8414C27.2377 24.8414 24.8284 27.2507 24.8284 30.2134C24.8284 33.1658 27.2377 35.5701 30.2004 35.5701C33.1631 35.5701 35.5725 33.1658 35.5725 30.2134C35.5725 27.2533 33.1631 24.8414 30.2004 24.8414ZM30.2004 33.8871C28.1684 33.8871 26.5137 32.2401 26.5137 30.2157C26.5137 28.1836 28.1684 26.529 30.2004 26.529C32.2324 26.529 33.8871 28.1837 33.8871 30.2157C33.8871 32.2401 32.2324 33.8871 30.2004 33.8871Z" stroke="#0CB4C4"></path></svg>