<svg xmlns="http://www.w3.org/2000/svg" xmlns:xlink="http://www.w3.org/1999/xlink" version="1.1" id="Layer_1" x="0px" y="0px" width="65.3px" height="60px" viewBox="0 0 65.3 60" enable-background="new 0 0 65.3 60" xml:space="preserve"><g><g><path fill="#0CB4C4" d="M63.955,57.392h-3.913V2.609h3.913c0.72,0,1.304-0.584,1.304-1.305c0-0.72-0.584-1.304-1.304-1.304H1.345 c-0.72,0-1.304,0.584-1.304,1.304c0,0.72,0.584,1.305,1.304,1.305h3.913v54.783H1.345c-0.72,0-1.304,0.584-1.304,1.304 C0.042,59.416,0.625,60,1.345,60h62.609c0.72,0,1.304-0.584,1.304-1.305C65.258,57.976,64.674,57.392,63.955,57.392z M57.432,57.392h-7.826V2.609h7.826V57.392z M28.737,44.348V20.87h18.261v23.478H28.737z M46.998,18.261h-7.826V2.609h7.826 V18.261z M36.563,18.261h-7.826V2.609h7.826V18.261z M26.128,57.392h-7.826V2.609h7.826V57.392z M28.737,46.956h7.826v10.436 h-7.826V46.956z M39.171,46.956h7.826v10.436h-7.826V46.956z M7.868,2.609h7.826v54.783H7.868V2.609z"></path><path fill="#0CB4C4" d="M37.868,26.087c-2.157,0-3.913,1.755-3.913,3.913c0,1.698,1.094,3.132,2.608,3.672v4.154 c0,0.72,0.584,1.305,1.305,1.305c0.72,0,1.304-0.585,1.304-1.305v-4.154c1.516-0.54,2.609-1.975,2.609-3.672 C41.781,27.842,40.024,26.087,37.868,26.087z M37.868,31.305c-0.721,0-1.305-0.586-1.305-1.305s0.584-1.304,1.305-1.304 c0.72,0,1.304,0.586,1.304,1.304S38.587,31.305,37.868,31.305z"></path></g></g></svg>