<svg xmlns="http://www.w3.org/2000/svg" width="75" height="61" viewBox="0 0 75 61" fill="none"><path fill-rule="evenodd" clip-rule="evenodd" d="M55.5213 54.6665H48.9159C48.3975 54.6665 47.9734 54.2502 47.9734 53.724C47.9734 53.1978 48.3975 52.7815 48.9159 52.7815H55.5213C56.0397 52.7815 56.4638 53.2056 56.4638 53.724C56.4638 54.2424 56.0397 54.6665 55.5213 54.6665ZM73.0597 54.6665H66.4543C65.9359 54.6665 65.5118 54.2502 65.5118 53.724C65.5118 53.1978 65.9359 52.7815 66.4543 52.7815H72.125V39.2723L65.5746 25.4803H48.9238C48.4054 25.4803 47.9813 25.0562 47.9813 24.5378C47.9813 24.0195 48.4054 23.5953 48.9238 23.5953H66.1716C66.5328 23.5953 66.8627 23.8074 67.0198 24.1294L73.9158 38.644C73.9786 38.7696 74.01 38.911 74.01 39.0445V53.7004C74.01 54.2188 73.5859 54.6429 73.0675 54.6429L73.0597 54.6665Z" fill="#0CB4C4"></path><path fill-rule="evenodd" clip-rule="evenodd" d="M54.1625 39.0995H67.2711L62.8492 29.8001H54.1625V39.0995ZM68.7556 40.9767H53.22C52.7016 40.9767 52.2775 40.5525 52.2775 40.0342V28.8498C52.2775 28.3314 52.7016 27.9073 53.22 27.9073H63.4383C63.7996 27.9073 64.1294 28.1193 64.2865 28.4414L69.5959 39.6179C69.7373 39.9085 69.7138 40.2541 69.541 40.5211C69.3682 40.796 69.0697 40.9609 68.7477 40.9609L68.7556 40.9767Z" fill="#0CB4C4"></path><path fill-rule="evenodd" clip-rule="evenodd" d="M22.9735 54.6665H18.2453C17.7269 54.6665 17.3028 54.2502 17.3028 53.724C17.3028 53.1977 17.7269 52.7815 18.2453 52.7815H22.9735C23.4919 52.7815 23.916 53.2056 23.916 53.724C23.916 54.2424 23.4919 54.6665 22.9735 54.6665ZM48.9159 54.6665H33.9065C33.3881 54.6665 32.964 54.2502 32.964 53.724C32.964 53.1977 33.3881 52.7815 33.9065 52.7815H47.9734V14.885H1.885V52.7815H7.30439C7.82276 52.7815 8.2469 53.2056 8.2469 53.724C8.2469 54.2424 7.82276 54.6665 7.30439 54.6665H0.9425C0.424124 54.6665 0 54.2502 0 53.724V13.9425C0 13.4241 0.424124 13 0.9425 13H48.908C49.4264 13 49.8505 13.4241 49.8505 13.9425V53.724C49.8505 54.2424 49.4264 54.6665 48.908 54.6665H48.9159Z" fill="#0CB4C4"></path><path fill-rule="evenodd" clip-rule="evenodd" d="M12.7788 49.2C10.2811 49.2 8.25475 51.2342 8.25475 53.724C8.25475 56.2138 10.289 58.248 12.7788 58.248C15.2685 58.248 17.3028 56.2138 17.3028 53.724C17.3028 51.2342 15.2685 49.2 12.7788 49.2ZM12.7788 60.133C9.24438 60.133 6.36975 57.2584 6.36975 53.724C6.36975 50.1896 9.24438 47.3228 12.7788 47.3228C16.3131 47.3228 19.1878 50.1974 19.1878 53.724C19.1878 57.2505 16.3131 60.133 12.7788 60.133Z" fill="#0CB4C4"></path><path fill-rule="evenodd" clip-rule="evenodd" d="M28.44 49.2C25.9424 49.2 23.916 51.2342 23.916 53.724C23.916 56.2138 25.9502 58.248 28.44 58.248C30.9298 58.248 32.964 56.2138 32.964 53.724C32.964 51.2342 30.9298 49.2 28.44 49.2ZM28.44 60.133C24.9056 60.133 22.031 57.2584 22.031 53.724C22.031 50.1896 24.9056 47.3228 28.44 47.3228C31.9744 47.3228 34.849 50.1974 34.849 53.724C34.849 57.2505 31.9744 60.133 28.44 60.133Z" fill="#0CB4C4"></path><path fill-rule="evenodd" clip-rule="evenodd" d="M60.9878 49.2C58.4902 49.2 56.4638 51.2342 56.4638 53.724C56.4638 56.2138 58.498 58.248 60.9878 58.248C63.4776 58.248 65.5118 56.2138 65.5118 53.724C65.5118 51.2342 63.4776 49.2 60.9878 49.2ZM60.9878 60.133C57.4534 60.133 54.5788 57.2584 54.5788 53.724C54.5788 50.1896 57.4534 47.3228 60.9878 47.3228C64.5222 47.3228 67.3968 50.1974 67.3968 53.724C67.3968 57.2505 64.5222 60.133 60.9878 60.133Z" fill="#0CB4C4"></path><path fill-rule="evenodd" clip-rule="evenodd" d="M12.7788 52.7658C12.2447 52.7658 11.8127 53.1977 11.8127 53.7318C11.8127 54.2659 12.2447 54.6979 12.7788 54.6979C13.3129 54.6979 13.7449 54.2659 13.7449 53.7318C13.7449 53.1977 13.3129 52.7658 12.7788 52.7658ZM12.7788 56.575C11.208 56.575 9.93558 55.3027 9.93558 53.7318C9.93558 52.161 11.208 50.8886 12.7788 50.8886C14.3496 50.8886 15.622 52.161 15.622 53.7318C15.622 55.3027 14.3496 56.575 12.7788 56.575Z" fill="#0CB4C4"></path><path fill-rule="evenodd" clip-rule="evenodd" d="M28.44 52.7658C27.9059 52.7658 27.4739 53.1977 27.4739 53.7318C27.4739 54.2659 27.9059 54.6979 28.44 54.6979C28.9741 54.6979 29.4061 54.2659 29.4061 53.7318C29.4061 53.1977 28.9741 52.7658 28.44 52.7658ZM28.44 56.575C26.8691 56.575 25.5968 55.3027 25.5968 53.7318C25.5968 52.161 26.8691 50.8886 28.44 50.8886C30.0108 50.8886 31.2832 52.161 31.2832 53.7318C31.2832 55.3027 30.0108 56.575 28.44 56.575Z" fill="#0CB4C4"></path><path fill-rule="evenodd" clip-rule="evenodd" d="M60.9878 52.7658C60.4537 52.7658 60.0217 53.1977 60.0217 53.7318C60.0217 54.2659 60.4537 54.6979 60.9878 54.6979C61.5219 54.6979 61.9538 54.2659 61.9538 53.7318C61.9538 53.1977 61.5219 52.7658 60.9878 52.7658ZM60.9878 56.575C59.4169 56.575 58.1446 55.3027 58.1446 53.7318C58.1446 52.161 59.4169 50.8886 60.9878 50.8886C62.5586 50.8886 63.831 52.161 63.831 53.7318C63.831 55.3027 62.5586 56.575 60.9878 56.575Z" fill="#0CB4C4"></path><path fill-rule="evenodd" clip-rule="evenodd" d="M56.0789 44.0869H53.22C52.7016 44.0869 52.2775 43.6628 52.2775 43.1444C52.2775 42.626 52.7016 42.2019 53.22 42.2019H56.0789C56.5973 42.2019 57.0214 42.626 57.0214 43.1444C57.0214 43.6628 56.5973 44.0869 56.0789 44.0869Z" fill="#0CB4C4"></path><path fill-rule="evenodd" clip-rule="evenodd" d="M9.06377 38.534H21.6226V24.42H9.06377V38.534V38.534ZM22.5651 40.4111H8.12912C7.61074 40.4111 7.18661 39.987 7.18661 39.4686V23.4775C7.18661 22.9591 7.61074 22.535 8.12912 22.535H22.5651C23.0835 22.535 23.5076 22.9591 23.5076 23.4775V39.4686C23.5076 39.987 23.0835 40.4111 22.5651 40.4111V40.4111Z" fill="#0CB4C4"></path><path fill-rule="evenodd" clip-rule="evenodd" d="M12.9437 40.419C12.4253 40.419 12.0012 39.9949 12.0012 39.4765V23.4853C12.0012 22.967 12.4253 22.5428 12.9437 22.5428C13.4621 22.5428 13.8862 22.967 13.8862 23.4853V39.4765C13.8862 39.9949 13.4621 40.419 12.9437 40.419Z" fill="#0CB4C4"></path><path fill-rule="evenodd" clip-rule="evenodd" d="M17.7505 40.419C17.2321 40.419 16.808 39.9949 16.808 39.4765V23.4853C16.808 22.967 17.2321 22.5428 17.7505 22.5428C18.2689 22.5428 18.693 22.967 18.693 23.4853V39.4765C18.693 39.9949 18.2689 40.419 17.7505 40.419Z" fill="#0CB4C4"></path><path fill-rule="evenodd" clip-rule="evenodd" d="M28.2358 38.534H40.7946V24.42H28.2358V38.534ZM41.7371 40.4111H27.3012C26.7828 40.4111 26.3586 39.987 26.3586 39.4686V23.4775C26.3586 22.9591 26.7828 22.535 27.3012 22.535H41.7371C42.2555 22.535 42.6796 22.9591 42.6796 23.4775V39.4686C42.6796 39.987 42.2555 40.4111 41.7371 40.4111V40.4111Z" fill="#0CB4C4"></path><path fill-rule="evenodd" clip-rule="evenodd" d="M32.1079 40.419C31.5895 40.419 31.1654 39.9949 31.1654 39.4765V23.4853C31.1654 22.967 31.5895 22.5428 32.1079 22.5428C32.6263 22.5428 33.0504 22.967 33.0504 23.4853V39.4765C33.0504 39.9949 32.6263 40.419 32.1079 40.419Z" fill="#0CB4C4"></path><path fill-rule="evenodd" clip-rule="evenodd" d="M36.9226 40.419C36.4042 40.419 35.98 39.9949 35.98 39.4765V23.4853C35.98 22.967 36.4042 22.5428 36.9226 22.5428C37.4409 22.5428 37.865 22.967 37.865 23.4853V39.4765C37.865 39.9949 37.4409 40.419 36.9226 40.419Z" fill="#0CB4C4"></path></svg>