<svg xmlns="http://www.w3.org/2000/svg" xmlns:xlink="http://www.w3.org/1999/xlink" version="1.1" id="Layer_1" x="0px" y="0px" width="50.4px" height="60px" viewBox="0 0 50.4 60" enable-background="new 0 0 50.4 60" xml:space="preserve"><g transform="translate(0,-952.36216)"><g><path fill="#0CB4C4" d="M10.81,985.249v0.146v1.207h21.464v-1.354H10.81z"></path><path fill="#0CB4C4" d="M32.766,987.094H10.317v-2.337h22.448V987.094z M11.301,986.11h20.481v-0.37H11.301V986.11z"></path></g><g><path fill="#0CB4C4" d="M10.811,990.54v0.149v1.206h18.45c0.457-0.487,0.945-0.941,1.471-1.355H10.811z"></path><path fill="#0CB4C4" d="M29.474,992.388H10.318v-2.339h21.831l-1.114,0.878c-0.489,0.386-0.966,0.825-1.415,1.306L29.474,992.388z M11.302,991.404h17.747c0.123-0.127,0.247-0.251,0.373-0.372h-18.12V991.404z"></path></g><g><path fill="#0CB4C4" d="M0.537,952.854v0.677v54.882h27.601c-0.309-0.435-0.598-0.884-0.854-1.355H1.892v-52.848h39.298v33.739 c0.46,0.083,0.913,0.188,1.354,0.32v-35.415H0.537z"></path><path fill="#0CB4C4" d="M29.089,1008.905H0.046v-56.543h42.99v36.567l-0.634-0.19c-0.408-0.122-0.833-0.223-1.3-0.308 l-0.404-0.073v-33.657H2.384v51.864h25.192l0.14,0.258c0.227,0.416,0.496,0.844,0.823,1.306L29.089,1008.905z M1.029,1007.922 h26.189c-0.078-0.126-0.152-0.25-0.224-0.373H1.399v-53.831h40.282v33.826c0.126,0.025,0.249,0.054,0.37,0.083v-34.281H1.029 V1007.922z"></path></g><path fill="#0CB4C4" d="M17.457,972.727v0.147v4.083h8.167v-4.23h-1.352v2.877h-5.461v-2.877H17.457z"></path><path fill="#0CB4C4" d="M21.541,968.434c-1.307,0-2.38,1.071-2.38,2.379c0,1.309,1.073,2.379,2.38,2.379s2.38-1.071,2.38-2.379 C23.921,969.505,22.848,968.434,21.541,968.434z M21.541,969.786c0.576,0,1.026,0.449,1.026,1.027c0,0.577-0.45,1.027-1.026,1.027 s-1.027-0.45-1.027-1.027C20.514,970.235,20.965,969.786,21.541,969.786z"></path><path fill="#0CB4C4" d="M21.541,964.079c-4.75,0-8.615,3.865-8.615,8.616c0,4.75,3.865,8.615,8.615,8.615s8.614-3.865,8.614-8.615 C30.155,967.944,26.291,964.079,21.541,964.079z M21.541,965.433c4.02,0,7.262,3.242,7.262,7.262c0,4.019-3.242,7.262-7.262,7.262 c-4.021,0-7.262-3.243-7.262-7.262C14.279,968.675,17.521,965.433,21.541,965.433z"></path><g><path fill="#0CB4C4" d="M10.811,995.834v0.147v1.206h15.43c0.133-0.462,0.288-0.915,0.47-1.354H10.811L10.811,995.834z"></path><path fill="#0CB4C4" d="M26.609,997.68H10.318v-2.338h17.13l-0.284,0.682c-0.168,0.401-0.315,0.827-0.452,1.301L26.609,997.68z M11.302,996.695h14.573c0.039-0.125,0.08-0.248,0.122-0.369H11.302V996.695z"></path></g><path fill="#0CB4C4" d="M21.541,964.227c-4.671,0-8.467,3.798-8.467,8.468s3.796,8.466,8.467,8.466c4.67,0,8.468-3.796,8.468-8.466 S26.211,964.227,21.541,964.227z M21.541,965.286c4.1,0,7.41,3.31,7.41,7.41c0,4.098-3.311,7.409-7.41,7.409 c-4.098,0-7.408-3.311-7.408-7.409C14.133,968.596,17.443,965.286,21.541,965.286z"></path><g><path fill="#0CB4C4" d="M38.826,989.805c-6.086,0-11.032,4.947-11.032,11.033s4.946,11.032,11.032,11.032 c6.087,0,11.036-4.946,11.036-11.032S44.913,989.805,38.826,989.805z M38.826,991.158c5.354,0,9.68,4.325,9.68,9.68 c0,5.354-4.325,9.679-9.68,9.679c-5.354,0-9.679-4.325-9.679-9.679C29.147,995.483,33.473,991.158,38.826,991.158z"></path><path fill="#0CB4C4" d="M38.826,1012.362c-6.354,0-11.524-5.17-11.524-11.524c0-6.355,5.17-11.525,11.524-11.525 c6.356,0,11.528,5.17,11.528,11.525C50.354,1007.192,45.183,1012.362,38.826,1012.362z M38.826,990.297 c-5.812,0-10.541,4.729-10.541,10.541c0,5.812,4.729,10.541,10.541,10.541c5.814,0,10.544-4.729,10.544-10.541 C49.37,995.025,44.641,990.297,38.826,990.297z M38.826,1011.009c-5.608,0-10.171-4.563-10.171-10.171 c0-5.609,4.563-10.172,10.171-10.172c5.609,0,10.172,4.563,10.172,10.172C48.998,1006.446,44.436,1011.009,38.826,1011.009z M38.826,991.649c-5.065,0-9.188,4.122-9.188,9.188c0,5.065,4.122,9.188,9.188,9.188c5.066,0,9.188-4.122,9.188-9.188 C48.015,995.771,43.893,991.649,38.826,991.649z"></path></g><g><path fill="#0CB4C4" d="M33.067,1000.159v1.356h11.519v-1.356H33.067z"></path><path fill="#0CB4C4" d="M45.078,1002.008H32.575v-2.34h12.503V1002.008z M33.559,1001.024h10.536v-0.373H33.559V1001.024z"></path></g></g></svg>