<svg xmlns="http://www.w3.org/2000/svg" width="62" height="62" viewBox="0 0 62 62" fill="none"><path d="M31.02 15.5851C29.42 15.5851 27.89 16.225 26.77 17.3546C25.64 18.4842 25.01 20.0137 25 21.6032V24.1923C25 26.3416 26.15 28.3309 28.01 29.4005C29.87 30.4802 32.17 30.4802 34.03 29.4005C35.89 28.3209 37.04 26.3416 37.04 24.1923V21.6032C37.04 20.0037 36.4 18.4742 35.27 17.3546C34.14 16.225 32.61 15.5951 31.02 15.5851V15.5851ZM35.37 24.1923C35.37 25.7518 34.54 27.1813 33.19 27.961C31.84 28.7408 30.18 28.7408 28.84 27.961C27.49 27.1813 26.66 25.7518 26.66 24.1923V21.6032C26.66 20.0437 27.49 18.6141 28.84 17.8344C30.19 17.0547 31.85 17.0547 33.19 17.8344C34.54 18.6141 35.37 20.0537 35.37 21.6032V24.1923Z" fill="#0CB4C4" stroke="#0CB4C4" stroke-width="0.5" stroke-miterlimit="10"></path><path d="M46.2 31.9097C47.62 31.9097 48.99 31.3399 50 30.3302C51.01 29.3205 51.57 27.961 51.58 26.5315V24.2622C51.58 22.8327 51.02 21.4632 50.02 20.4435C49.01 19.4338 47.64 18.864 46.21 18.864C44.78 18.864 43.41 19.4338 42.4 20.4435C41.39 21.4532 40.83 22.8327 40.84 24.2622V26.5315C40.84 27.951 41.41 29.3205 42.42 30.3302C43.43 31.3399 44.79 31.8997 46.22 31.9097H46.2ZM42.49 24.2722C42.49 23.2825 42.87 22.3329 43.57 21.6331C44.27 20.9333 45.21 20.5435 46.2 20.5435C47.19 20.5435 48.13 20.9333 48.83 21.6331C49.53 22.3329 49.91 23.2825 49.91 24.2722V26.5415C49.91 27.5311 49.53 28.4808 48.83 29.1806C48.13 29.8803 47.19 30.2702 46.2 30.2702C45.21 30.2702 44.27 29.8803 43.57 29.1806C42.87 28.4808 42.49 27.5311 42.49 26.5415V24.2722Z" fill="#0CB4C4" stroke="#0CB4C4" stroke-width="0.5" stroke-miterlimit="10"></path><path d="M55.46 42.996V37.8877C55.46 36.3782 54.88 34.9187 53.84 33.8191C52.8 32.7194 51.39 32.0496 49.88 31.9597C49.44 31.9297 49.22 32.2096 49.04 32.4295C48.34 33.2792 47.29 33.7591 46.19 33.7391C45.09 33.7091 44.07 33.1793 43.41 32.2996C43.25 32.0796 42.99 31.9497 42.72 31.9597C41.7 31.9797 40.71 32.2696 39.84 32.7894C38.67 31.4399 37 30.6201 35.22 30.5102C35.2 30.5102 35.19 30.5102 35.17 30.5102C34.77 30.5102 34.56 30.7701 34.37 31C33.55 31.9997 32.32 32.5695 31.02 32.5395C29.72 32.5095 28.52 31.8797 27.75 30.8401C27.59 30.6201 27.33 30.4902 27.06 30.5002C25.32 30.5402 23.67 31.2599 22.46 32.5095C22.37 32.5995 22.28 32.6994 22.2 32.7994C21.39 32.3096 20.47 32.0297 19.52 31.9697C19.08 31.9397 18.86 32.2196 18.68 32.4395C17.98 33.2892 16.93 33.7691 15.83 33.7491C14.73 33.7191 13.71 33.1893 13.05 32.3096C12.89 32.0896 12.63 31.9597 12.36 31.9697C10.81 32.0097 9.34001 32.6495 8.26001 33.7591C7.18001 34.8687 6.57001 36.3582 6.57001 37.9077V43.016C6.57001 43.4758 6.94001 43.8457 7.40001 43.8457H20.56V45.6051C20.56 46.065 20.93 46.4349 21.39 46.4349H40.65C41.11 46.4349 41.48 46.065 41.48 45.6051V43.8457H54.62C55.08 43.8457 55.45 43.4758 55.45 43.016L55.46 42.996ZM20.56 37.158V42.1563H8.24001V37.8877C8.24001 36.8381 8.63002 35.8384 9.33002 35.0586C10.02 34.2789 10.98 33.7791 12.02 33.6491C13.01 34.7587 14.43 35.3985 15.92 35.3985C17.41 35.3985 18.83 34.7688 19.83 33.6691C20.34 33.7491 20.84 33.919 21.29 34.1789C20.82 35.1086 20.58 36.1283 20.58 37.168L20.56 37.158ZM39.82 44.7554H22.23V37.158C22.23 35.9284 22.7 34.7388 23.52 33.8191C24.34 32.8994 25.48 32.3196 26.7 32.1796C27.81 33.4492 29.41 34.1889 31.1 34.1889C32.79 34.1889 34.4 33.4692 35.51 32.1996C36.7 32.3696 37.79 32.9694 38.58 33.879C39.37 34.7887 39.8 35.9484 39.81 37.158V44.7554H39.82ZM53.79 42.1663H41.49V37.168C41.49 36.1283 41.25 35.0986 40.78 34.1789C41.27 33.899 41.82 33.7191 42.38 33.6591C43.37 34.7688 44.79 35.4085 46.28 35.4085C47.77 35.4085 49.19 34.7787 50.19 33.6791C51.2 33.8391 52.12 34.3489 52.78 35.1186C53.44 35.8884 53.81 36.878 53.81 37.8977V42.1663H53.79Z" fill="#0CB4C4" stroke="#0CB4C4" stroke-width="0.5" stroke-miterlimit="10"></path><path d="M10.46 24.2722V26.5415C10.46 27.971 11.02 29.3405 12.02 30.3602C13.03 31.3698 14.4 31.9397 15.83 31.9397C17.26 31.9397 18.63 31.3698 19.64 30.3602C20.65 29.3505 21.21 27.971 21.2 26.5415V24.2722C21.2 22.8427 20.64 21.4732 19.64 20.4535C18.63 19.4439 17.26 18.874 15.83 18.874C14.4 18.874 13.03 19.4439 12.02 20.4535C11.01 21.4632 10.45 22.8427 10.46 24.2722ZM19.54 24.2722V26.5415C19.54 27.5311 19.16 28.4808 18.46 29.1806C17.76 29.8803 16.82 30.2702 15.83 30.2702C14.84 30.2702 13.9 29.8803 13.2 29.1806C12.5 28.4808 12.12 27.5311 12.12 26.5415V24.2722C12.12 23.2825 12.5 22.3329 13.2 21.6331C13.9 20.9333 14.84 20.5435 15.83 20.5435C16.82 20.5435 17.76 20.9333 18.46 21.6331C19.16 22.3329 19.54 23.2825 19.54 24.2722Z" fill="#0CB4C4" stroke="#0CB4C4" stroke-width="0.5" stroke-miterlimit="10"></path><path d="M1.00999 1.84976V16.6048C1.00999 17.0647 1.38 17.4346 1.84 17.4346C2.3 17.4346 2.67 17.0647 2.67 16.6048V2.68948H16.59C17.05 2.68948 17.42 2.31962 17.42 1.85977C17.42 1.39992 17.05 1.03003 16.59 1.03003H1.83C1.37 1.03003 1 1.39992 1 1.85977L1.00999 1.84976Z" fill="#0CB4C4" stroke="#0CB4C4" stroke-width="0.5" stroke-miterlimit="10"></path><path d="M16.6 59.3305H2.68001V45.4152C2.68001 44.9553 2.31001 44.5854 1.85001 44.5854C1.39001 44.5854 1.02002 44.9553 1.02002 45.4152V60.1702C1.02002 60.6301 1.39001 61 1.85001 61H16.61C17.07 61 17.44 60.6301 17.44 60.1702C17.44 59.7104 17.07 59.3405 16.61 59.3405L16.6 59.3305Z" fill="#0CB4C4" stroke="#0CB4C4" stroke-width="0.5" stroke-miterlimit="10"></path><path d="M60.18 44.5755C59.72 44.5755 59.35 44.9454 59.35 45.4052V59.3205H45.43C44.97 59.3205 44.6 59.6904 44.6 60.1503C44.6 60.6101 44.97 60.98 45.43 60.98H60.19C60.65 60.98 61.02 60.6101 61.02 60.1503V45.3952C61.02 44.9354 60.65 44.5655 60.19 44.5655L60.18 44.5755Z" fill="#0CB4C4" stroke="#0CB4C4" stroke-width="0.5" stroke-miterlimit="10"></path><path d="M60.18 1.01001H45.42C44.96 1.01001 44.59 1.37987 44.59 1.83972C44.59 2.29956 44.96 2.66946 45.42 2.66946H59.34V16.5848C59.34 17.0446 59.71 17.4145 60.17 17.4145C60.63 17.4145 61 17.0446 61 16.5848V1.82974C61 1.36989 60.63 1 60.17 1L60.18 1.01001Z" fill="#0CB4C4" stroke="#0CB4C4" stroke-width="0.5" stroke-miterlimit="10"></path></svg>