<svg xmlns="http://www.w3.org/2000/svg" xmlns:xlink="http://www.w3.org/1999/xlink" version="1.1" id="Layer_1" x="0px" y="0px" width="60.3px" height="60px" viewBox="0 0 60.3 60" enable-background="new 0 0 60.3 60" xml:space="preserve"><g><path fill="#0CB4C4" d="M30.53,21.493v-6.25C30.53,6.838,23.692,0,15.287,0S0.043,6.838,0.043,15.245v8.425h7.839v-8.425 c0-4.083,3.32-7.406,7.404-7.406s7.404,3.322,7.404,7.406v6.249h-8.492V60h46.058V21.493H30.53z M15.287,5.663 c-5.282,0-9.581,4.298-9.581,9.582v6.249H2.22v-6.249c0-7.207,5.861-13.068,13.066-13.068s13.066,5.862,13.066,13.068v6.249h-3.485 v-6.249C24.868,9.961,20.57,5.663,15.287,5.663z M58.08,57.823H16.375V23.669H58.08V57.823z"></path><path fill="#0CB4C4" d="M35.851,42.161l0.574,0.309v3.073h1.605v-3.071l0.572-0.309c0.955-0.517,1.55-1.497,1.55-2.563 c0-1.612-1.313-2.924-2.926-2.924s-2.926,1.312-2.926,2.924C34.301,40.665,34.897,41.646,35.851,42.161z"></path><circle fill="#0CB4C4" cx="22.794" cy="28.17" r="1.274"></circle><circle fill="#0CB4C4" cx="52.213" cy="28.17" r="1.274"></circle><circle fill="#0CB4C4" cx="22.241" cy="53.324" r="1.274"></circle><path fill="#0CB4C4" d="M51.66,54.601c0.703,0,1.274-0.573,1.274-1.277c0-0.702-0.571-1.273-1.274-1.273 c-0.702,0-1.273,0.571-1.273,1.273C50.386,54.027,50.958,54.601,51.66,54.601z"></path></g></svg>