<svg xmlns="http://www.w3.org/2000/svg" xmlns:xlink="http://www.w3.org/1999/xlink" version="1.1" id="Layer_1" x="0px" y="0px" width="44.5px" height="60px" viewBox="0 0 44.5 60" enable-background="new 0 0 44.5 60" xml:space="preserve"><g><path fill="#0CB4C4" d="M39.782,0H4.718c-2.58,0.004-4.671,2.093-4.675,4.674v50.652c0.004,2.581,2.095,4.67,4.675,4.674h35.064 c2.58-0.004,4.671-2.093,4.675-4.674V4.674C44.453,2.093,42.362,0.004,39.782,0z M42.902,55.326 c-0.002,1.721-1.396,3.115-3.116,3.118H4.718c-1.722-0.003-3.114-1.397-3.117-3.118V4.674c0.003-1.72,1.396-3.114,3.117-3.115 h35.064c1.722,0,3.117,1.393,3.12,3.115V55.326z"></path><path fill="#0CB4C4" d="M37.444,37.401H7.054c-0.429-0.012-0.789,0.328-0.8,0.758c-0.012,0.43,0.326,0.789,0.757,0.801 c0.015,0.001,0.029,0.001,0.043,0h30.391c0.431-0.012,0.77-0.371,0.757-0.801C38.19,37.746,37.857,37.414,37.444,37.401z"></path><path fill="#0CB4C4" d="M37.444,43.636H7.054c-0.429-0.012-0.789,0.327-0.8,0.759c-0.012,0.429,0.326,0.789,0.757,0.8 c0.015,0.002,0.029,0.002,0.043,0h30.391c0.431-0.011,0.77-0.371,0.757-0.8C38.19,43.98,37.857,43.648,37.444,43.636z"></path><path fill="#0CB4C4" d="M37.444,49.869H7.054c-0.429-0.012-0.789,0.328-0.8,0.757c-0.012,0.431,0.326,0.789,0.757,0.802 c0.015,0,0.029,0,0.043,0h30.391c0.431-0.013,0.77-0.371,0.757-0.802C38.19,50.214,37.857,49.881,37.444,49.869z"></path><path fill="#0CB4C4" d="M7.054,32.727h21.819c0.432-0.012,0.77-0.37,0.758-0.801c-0.013-0.412-0.345-0.745-0.758-0.757H7.054 c-0.429-0.013-0.789,0.327-0.8,0.757c-0.012,0.431,0.326,0.789,0.757,0.801C7.025,32.727,7.04,32.727,7.054,32.727z"></path><path fill="#0CB4C4" d="M37.444,31.169h-3.115c-0.433-0.013-0.789,0.327-0.803,0.757c-0.013,0.431,0.327,0.789,0.757,0.801 c0.015,0,0.03,0,0.046,0h3.115c0.431-0.012,0.77-0.37,0.757-0.801C38.19,31.514,37.857,31.181,37.444,31.169z"></path><path fill="#0CB4C4" d="M22.25,26.492c5.595,0.001,10.131-4.533,10.131-10.128S27.846,6.233,22.251,6.233 c-5.593,0-10.128,4.53-10.13,10.124C12.124,21.951,16.656,26.485,22.25,26.492z M22.25,7.791c4.733,0,8.572,3.837,8.573,8.57 c0,4.735-3.838,8.573-8.572,8.573s-8.571-3.837-8.571-8.57c0-0.003,0-0.006,0-0.007C13.687,11.628,17.521,7.796,22.25,7.791z"></path><path fill="#0CB4C4" d="M21.474,21.611v0.827c0.013,0.43,0.37,0.77,0.802,0.757c0.413-0.012,0.745-0.345,0.756-0.757v-0.845 c2.274-0.305,3.117-1.717,3.117-3.052c0-2.016-1.86-2.754-3.117-3.112v-3.064c0.673,0.118,1.301,0.419,1.812,0.872 c0.319,0.291,0.813,0.269,1.103-0.05c0.291-0.316,0.269-0.81-0.049-1.1l0,0c-0.802-0.715-1.8-1.17-2.865-1.305V9.97 c0.013-0.429-0.326-0.789-0.756-0.8c-0.432-0.012-0.789,0.326-0.802,0.757c0,0.015,0,0.029,0,0.043v0.87 c-2.436,0.423-2.649,2.258-2.649,2.871c0,1.787,1.592,2.556,2.649,2.901v3.411c-0.668-0.134-1.277-0.477-1.737-0.979 c-0.272-0.331-0.763-0.38-1.095-0.107c-0.333,0.273-0.38,0.765-0.107,1.098l0,0C19.295,20.893,20.338,21.452,21.474,21.611z M24.591,18.542c0,0.955-0.775,1.333-1.56,1.477v-2.942C24.293,17.518,24.591,17.978,24.591,18.542z M20.383,13.711 c-0.012-0.639,0.458-1.187,1.091-1.273v2.495C20.402,14.452,20.383,13.933,20.383,13.711z"></path></g></svg>