<svg version="1.1" id="Layer_1" xmlns="http://www.w3.org/2000/svg" xmlns:xlink="http://www.w3.org/1999/xlink" x="0px" y="0px" width="55.3px" height="60px" viewBox="0 0 55.3 60" style="enable-background:new 0 0 55.3 60;" xml:space="preserve"><g><path style="fill:#0CB4C4;" d="M54.415,49.592c0.483,0,0.876-0.393,0.876-0.876V0.875C55.291,0.392,54.898,0,54.415,0H0.885 C0.402,0,0.009,0.392,0.009,0.875v47.84c0,0.483,0.393,0.876,0.876,0.876h19.173v4.176H17.67c-3.014,0-5.547,2.26-5.892,5.257 c-0.028,0.247,0.05,0.496,0.216,0.683C12.162,59.894,12.399,60,12.649,60h30.002c0.25,0,0.487-0.106,0.653-0.293 s0.245-0.436,0.217-0.683c-0.345-2.997-2.878-5.257-5.892-5.257h-2.389v-4.176H54.415z M1.761,1.751h51.777v38.481H1.761V1.751z M37.629,55.52c1.781,0,3.324,1.121,3.919,2.729H13.751c0.595-1.607,2.138-2.729,3.919-2.729H37.629z M21.81,53.768v-4.176h11.68 v4.176H21.81z M1.761,47.84v-5.856h51.777v5.856H1.761z"></path><path style="fill:#0CB4C4;" d="M30.12,43.91H25.18c-0.483,0-0.876,0.393-0.876,0.876s0.393,0.876,0.876,0.876h4.939 c0.483,0,0.876-0.393,0.876-0.876S30.603,43.91,30.12,43.91z"></path><path style="fill:#0CB4C4;" d="M44.19,10.913c-1.709,0-3.098,1.39-3.098,3.098c0,0.711,0.251,1.359,0.655,1.883l-5.238,6.187 c-0.389-0.177-0.818-0.281-1.273-0.281c-0.841,0-1.603,0.339-2.161,0.885l-8.957-3.147c0.015-0.121,0.037-0.24,0.037-0.365 c0-1.708-1.39-3.098-3.098-3.098s-3.098,1.39-3.098,3.098c0,0.5,0.131,0.967,0.342,1.385l-5.949,5.081 c-0.381-0.168-0.8-0.264-1.242-0.264c-1.708,0-3.098,1.389-3.098,3.097s1.39,3.098,3.098,3.098s3.098-1.39,3.098-3.098 c0-0.622-0.188-1.198-0.504-1.684l5.798-4.952c0.459,0.269,0.986,0.435,1.556,0.435c0.953,0,1.796-0.442,2.365-1.121l8.79,3.088 c-0.047,0.213-0.074,0.433-0.074,0.659c0,1.708,1.39,3.098,3.098,3.098s3.098-1.39,3.098-3.098c0-0.616-0.186-1.188-0.498-1.671 l5.336-6.303c0.32,0.112,0.659,0.186,1.019,0.186c1.708,0,3.098-1.389,3.098-3.097S45.898,10.913,44.19,10.913z M11.11,29.818 c-0.742,0-1.346-0.604-1.346-1.346c0-0.742,0.604-1.346,1.346-1.346s1.346,0.604,1.346,1.346 C12.456,29.215,11.852,29.818,11.11,29.818z M21.057,20.52c-0.742,0-1.346-0.604-1.346-1.346s0.604-1.346,1.346-1.346 s1.346,0.604,1.346,1.346S21.799,20.52,21.057,20.52z M35.236,26.243c-0.742,0-1.347-0.604-1.347-1.346 c0-0.742,0.604-1.346,1.347-1.346c0.336,0,0.64,0.128,0.876,0.333c0.004,0.003,0.006,0.008,0.009,0.011 c0.006,0.004,0.012,0.005,0.017,0.009c0.271,0.247,0.444,0.598,0.444,0.992C36.582,25.64,35.978,26.243,35.236,26.243z M44.19,15.357c-0.742,0-1.347-0.604-1.347-1.346c0-0.743,0.604-1.346,1.347-1.346s1.346,0.604,1.346,1.346 C45.536,14.753,44.932,15.357,44.19,15.357z"></path></g></svg>