<svg version="1.1" id="Layer_1" xmlns="http://www.w3.org/2000/svg" xmlns:xlink="http://www.w3.org/1999/xlink" x="0px" y="0px" width="60px" height="60px" viewBox="0 0 60 60" style="enable-background:new 0 0 60 60;" xml:space="preserve"><g><rect x="2.728" y="35.454" style="fill:#0CB4C4;" width="2.727" height="2.728"></rect><rect x="5.454" y="32.728" style="fill:#0CB4C4;" width="2.728" height="2.727"></rect><rect y="32.728" style="fill:#0CB4C4;" width="2.728" height="2.727"></rect><rect x="2.728" y="30" style="fill:#0CB4C4;" width="2.727" height="2.728"></rect><rect x="54.546" y="47.728" style="fill:#0CB4C4;" width="2.727" height="2.727"></rect><rect x="57.272" y="45" style="fill:#0CB4C4;" width="2.728" height="2.728"></rect><rect x="51.818" y="45" style="fill:#0CB4C4;" width="2.728" height="2.728"></rect><rect x="54.546" y="42.272" style="fill:#0CB4C4;" width="2.727" height="2.728"></rect><g><g><path style="fill:#0CB4C4;" d="M28.64,45L28.64,45c-0.894,0-1.759-0.176-2.574-0.52c-0.787-0.334-1.494-0.81-2.103-1.418 c-0.606-0.608-1.084-1.313-1.417-2.103c-0.344-0.813-0.519-1.679-0.519-2.572c0.001-0.856,0.232-1.703,0.726-2.666 c0.459-0.884,1.063-1.697,1.537-2.309c0.378-0.484,0.773-0.966,1.156-1.43c0.789-0.961,1.537-1.867,2.057-2.706 c0.247-0.396,0.69-0.643,1.156-0.643c0.469,0.002,0.912,0.249,1.159,0.646c0.521,0.842,1.284,1.779,2.094,2.771 c0.071,0.09,0.145,0.18,0.216,0.268c0.821,1.014,1.75,2.165,2.395,3.415c0.492,0.966,0.721,1.807,0.724,2.654 c0,0.891-0.175,1.757-0.519,2.572c-0.334,0.789-0.81,1.494-1.416,2.103c-0.607,0.608-1.314,1.084-2.102,1.418 C30.395,44.824,29.531,45,28.64,45z M28.656,32.353c-0.35,0.445-0.712,0.886-1.063,1.313c-0.108,0.131-0.215,0.261-0.321,0.391 c-0.822,0.994-1.645,2.035-2.094,2.916c-0.281,0.543-0.428,1.031-0.425,1.416c0.002,2.138,1.746,3.881,3.886,3.885 c1.033-0.001,2.007-0.404,2.741-1.136c0.732-0.737,1.138-1.714,1.138-2.749c0.004-0.379-0.144-0.865-0.422-1.41 c-0.27-0.525-0.682-1.148-1.262-1.902c-0.344-0.45-0.713-0.902-1.104-1.382C29.378,33.259,29.009,32.807,28.656,32.353z"></path></g><g><path style="fill:#0CB4C4;" d="M34.09,23.85c-0.146,0-0.292-0.022-0.431-0.068c-0.955-0.318-1.946-0.48-2.949-0.48h-4.147 c-1.003,0-1.994,0.162-2.949,0.48c-0.139,0.046-0.284,0.068-0.432,0.068c-0.287,0-0.565-0.088-0.798-0.257 c-0.354-0.255-0.565-0.67-0.565-1.107v-7.366c0-0.359,0.145-0.71,0.4-0.964c0.253-0.255,0.605-0.399,0.963-0.399h10.909 c0.358,0,0.71,0.145,0.963,0.399c0.255,0.254,0.4,0.604,0.4,0.964v7.366c0,0.438-0.211,0.853-0.564,1.107 C34.653,23.762,34.378,23.85,34.09,23.85z M26.563,20.574h4.147c0.674,0,1.353,0.057,2.018,0.17v-4.261h-8.182v4.261 C25.21,20.631,25.887,20.574,26.563,20.574z"></path></g><g><path style="fill:#0CB4C4;" d="M31.363,16.483h-5.454c-0.358,0-0.71-0.146-0.963-0.399c-0.256-0.255-0.4-0.605-0.4-0.965V6.938 c0-0.359,0.145-0.71,0.4-0.965c0.253-0.254,0.604-0.398,0.963-0.398h5.454c0.358,0,0.711,0.145,0.964,0.398 c0.254,0.255,0.4,0.605,0.4,0.965v8.182c0,0.359-0.146,0.71-0.4,0.963C32.074,16.338,31.722,16.483,31.363,16.483z M27.272,13.756H30V8.301h-2.728V13.756z"></path></g><g><path style="fill:#0CB4C4;" d="M40.909,8.301H21.818c-0.491,0-0.946-0.264-1.187-0.691c-0.241-0.428-0.237-0.953,0.019-1.374 l2.046-3.41c0.522-0.873,1.269-1.594,2.153-2.087C25.716,0.256,26.694,0,27.682,0h0.007c0.831,0,1.641,0.176,2.402,0.522 l11.384,5.174l0,0c0.281,0.128,0.514,0.352,0.653,0.631c0.139,0.275,0.179,0.596,0.113,0.898C42.176,7.53,42.007,7.804,41.766,8 C41.524,8.193,41.22,8.301,40.909,8.301z M24.228,5.574h10.386l-5.65-2.568c-0.406-0.185-0.835-0.278-1.276-0.278 c-1.099,0.001-2.09,0.563-2.652,1.501L24.228,5.574z"></path></g><g><path style="fill:#0CB4C4;" d="M36.637,60h-16c-1.284,0-2.528-0.253-3.698-0.756c-1.123-0.479-2.126-1.165-2.984-2.037 c-0.852-0.863-1.522-1.869-1.991-2.985c-0.482-1.149-0.728-2.362-0.728-3.608c0-0.591,0.058-1.188,0.168-1.772c0,0,0,0,0-0.003 l3.315-18.482c0.27-1.393,0.772-2.714,1.5-3.924c0.704-1.178,1.603-2.219,2.663-3.097c1.062-0.876,2.255-1.561,3.544-2.031 c1.327-0.484,2.716-0.729,4.137-0.729h4.147c0.134,0,0.265,0.003,0.393,0.005c0.363,0.014,0.701,0.165,0.95,0.433 c0.248,0.264,0.379,0.61,0.368,0.976c-0.012,0.356-0.159,0.688-0.415,0.936c-0.268,0.258-0.619,0.396-0.991,0.383 c-0.097-0.002-0.196-0.005-0.305-0.005h-4.147c-4.463,0-8.315,3.178-9.162,7.558l-3.313,18.479 c-0.083,0.424-0.124,0.853-0.124,1.275c0,1.755,0.688,3.415,1.932,4.678c1.265,1.277,2.949,1.98,4.747,1.981h15.989 c1.798-0.001,3.482-0.704,4.747-1.981c1.244-1.263,1.932-2.923,1.932-4.678c0-0.423-0.041-0.854-0.122-1.278l-0.003-0.016 l-3.31-18.447l0,0c-0.043-0.223-0.095-0.449-0.155-0.673c-0.031-0.117-0.048-0.236-0.048-0.355 c0.001-0.616,0.416-1.156,1.01-1.315c0.116-0.031,0.236-0.048,0.355-0.048c0.615,0,1.156,0.414,1.315,1.01 c0.076,0.285,0.145,0.575,0.201,0.865l0.003,0.017l3.31,18.465c0.112,0.588,0.171,1.186,0.171,1.776 c0,1.245-0.244,2.459-0.728,3.608c-0.469,1.116-1.139,2.122-1.991,2.985c-0.858,0.871-1.861,1.556-2.983,2.037 C39.165,59.747,37.921,60,36.637,60z M37.35,25.61L37.35,25.61c-0.31,0-0.601-0.102-0.846-0.292c0,0,0,0-0.001,0 c-0.588-0.468-0.688-1.327-0.222-1.918c0.26-0.328,0.65-0.517,1.071-0.517c0.31,0,0.602,0.102,0.844,0.295 c0.003,0,0.003,0.002,0.003,0.002c0.284,0.226,0.464,0.55,0.505,0.91c0.043,0.361-0.06,0.719-0.285,1.004 C38.159,25.423,37.77,25.61,37.35,25.61z"></path></g><g><path style="fill:#0CB4C4;" d="M54.546,60H2.728c-0.752,0-1.364-0.612-1.364-1.363c0-0.752,0.612-1.364,1.364-1.364h51.818 c0.751,0,1.363,0.612,1.363,1.364C55.909,59.388,55.297,60,54.546,60z"></path></g><g><path style="fill:#0CB4C4;" d="M32.728,51.818H13.637c-0.752,0-1.364-0.612-1.364-1.364c0-0.751,0.612-1.363,1.364-1.363h19.091 c0.751,0,1.363,0.612,1.363,1.363C34.091,51.206,33.479,51.818,32.728,51.818z"></path></g><g><path style="fill:#0CB4C4;" d="M36.86,51.818h-0.085c-0.753,0-1.363-0.612-1.363-1.364c0-0.751,0.61-1.363,1.363-1.363h0.085 c0.753,0,1.364,0.612,1.364,1.363C38.225,51.206,37.613,51.818,36.86,51.818z"></path></g><g><path style="fill:#0CB4C4;" d="M8.182,19.091L8.182,19.091c-1.092,0-2.12-0.426-2.892-1.199C4.517,17.121,4.091,16.094,4.091,15 c0-1.093,0.426-2.121,1.199-2.892c0.771-0.773,1.8-1.199,2.892-1.199c1.094,0,2.121,0.426,2.893,1.199 c0.772,0.771,1.198,1.799,1.198,2.892c0,1.094-0.426,2.121-1.198,2.892C10.303,18.665,9.275,19.091,8.182,19.091z M8.182,13.637 C7.432,13.638,6.819,14.25,6.818,15c0.001,0.75,0.613,1.362,1.363,1.363C8.932,16.362,9.544,15.75,9.546,15 C9.544,14.25,8.932,13.638,8.182,13.637L8.182,13.637z"></path></g><g><path style="fill:#0CB4C4;" d="M47.046,23.182L47.046,23.182c-1.276,0-2.475-0.497-3.375-1.397c-0.901-0.9-1.398-2.1-1.398-3.375 s0.497-2.475,1.398-3.375c0.9-0.9,2.099-1.397,3.375-1.397c1.275,0,2.474,0.497,3.375,1.397c0.9,0.9,1.397,2.1,1.397,3.375 s-0.497,2.475-1.397,3.375C49.52,22.685,48.321,23.182,47.046,23.182z M47.046,16.363c-1.127,0.003-2.043,0.919-2.046,2.046 c0.003,1.126,0.919,2.044,2.046,2.045c1.125-0.001,2.042-0.919,2.045-2.045C49.088,17.282,48.171,16.366,47.046,16.363 L47.046,16.363z"></path></g></g></g></svg>