<svg version="1.1" id="Layer_1" xmlns="http://www.w3.org/2000/svg" xmlns:xlink="http://www.w3.org/1999/xlink" x="0px" y="0px" width="66.5px" height="60px" viewBox="0 0 66.5 60" style="enable-background:new 0 0 66.5 60;" xml:space="preserve"><g><path style="fill:#0CB4C4;" d="M63.946,44.623H63.48V3.866C63.48,1.734,61.741,0,59.601,0H6.899C4.759,0,3.02,1.734,3.02,3.866 v40.757H2.554c-1.392,0-2.524,1.132-2.524,2.524v2.616C0.029,52.652,2.377,55,5.265,55h55.958c2.895,0,5.248-2.354,5.248-5.249 v-2.604C66.471,45.755,65.338,44.623,63.946,44.623z M5.676,3.866c0-0.666,0.549-1.209,1.224-1.209h52.701 c0.675,0,1.224,0.543,1.224,1.209v40.757h-2.659V6.644c0-0.734-0.594-1.328-1.327-1.328H9.662c-0.733,0-1.327,0.594-1.327,1.328 v37.979H5.676V3.866z M55.508,7.973v36.65H10.992V7.973H55.508z M63.813,49.751c0,1.429-1.164,2.592-2.591,2.592H5.265 c-1.422,0-2.578-1.156-2.578-2.579v-2.484c23.514,0,35.292,0,40.784,0c3.177,0,4.263,0,4.271,0c3.075,0,8.108,0,16.071,0V49.751z"></path><path style="fill:#0CB4C4;" d="M40.787,27.217h-4.686c-1.122,0-2.035,0.911-2.035,2.031v9.386c0,1.12,0.913,2.031,2.035,2.031 h4.686c1.12,0,2.031-0.911,2.031-2.031v-9.386C42.818,28.128,41.907,27.217,40.787,27.217z M40.162,38.009h-3.436v-8.136h3.436 V38.009z"></path><path style="fill:#0CB4C4;" d="M15.328,40.671h4.685c1.121,0,2.032-0.911,2.032-2.033v-7.114c0-1.101-0.856-1.991-2.032-2.034 h-4.685c-1.122,0-2.034,0.912-2.034,2.034v7.193C13.336,39.812,14.229,40.671,15.328,40.671z M15.952,32.148l3.437-0.002v5.866 h-3.437V32.148z"></path><path style="fill:#0CB4C4;" d="M30.398,23.271h-4.686c-1.12,0-2.031,0.913-2.031,2.033v13.329c0,1.12,0.911,2.031,2.031,2.031 h4.686c1.122,0,2.035-0.911,2.035-2.031V25.305C32.434,24.185,31.521,23.271,30.398,23.271z M29.773,38.009h-3.436V25.93h3.436 V38.009z"></path><path style="fill:#0CB4C4;" d="M44.454,25.65v12.983c0,1.12,0.912,2.031,2.033,2.031h4.685c1.122,0,2.034-0.911,2.034-2.031V25.65 c0-1.122-0.912-2.033-2.034-2.033h-4.685C45.366,23.617,44.454,24.528,44.454,25.65z M47.111,26.275h3.437v11.733h-3.437V26.275z"></path><path style="fill:#0CB4C4;" d="M18.509,24.804l8.67-7.071c0.681-0.557,1.61-0.693,2.423-0.359l6.598,2.708 c1.479,0.607,3.175,0.473,4.542-0.358l8.777-5.333c0.628-0.382,0.828-1.199,0.447-1.827c-0.381-0.626-1.198-0.827-1.827-0.445 l-8.779,5.336c-0.645,0.393-1.449,0.455-2.151,0.169l-6.598-2.708c-1.719-0.705-3.675-0.413-5.11,0.759l-8.671,7.07 c-0.567,0.464-0.653,1.301-0.188,1.868C17.104,25.184,17.942,25.265,18.509,24.804z"></path></g></svg>