<svg version="1.1" id="Layer_1" xmlns="http://www.w3.org/2000/svg" xmlns:xlink="http://www.w3.org/1999/xlink" x="0px" y="0px" width="61px" height="60px" viewBox="0 0 61 60" style="enable-background:new 0 0 61 60;" xml:space="preserve"><g><path style="fill:#0CB4C4;" d="M46.824,12.95H2.128c-1.166,0-2.114-0.948-2.114-2.114V2.112C0.014,0.948,0.962,0,2.128,0h44.696 c1.166,0,2.113,0.948,2.113,2.112v8.724C48.938,12.001,47.99,12.95,46.824,12.95z M46.824,10.817v1.066V10.817L46.824,10.817 L46.824,10.817z M46.807,2.112L2.128,2.132l0.02,8.704l44.659-0.019V2.112z"></path><path style="fill:#0CB4C4;" d="M29.257,43.175H5.268c-1.165,0-2.113-0.947-2.113-2.112V11.655h2.133v29.407l23.97-0.02V43.175z"></path><rect x="43.105" y="11.655" style="fill:#0CB4C4;" width="2.133" height="17.457"></rect><path style="fill:#0CB4C4;" d="M41.926,55.079c-7.508,0-13.616-6.108-13.616-13.617s6.108-13.617,13.616-13.617 c7.51,0,13.617,6.108,13.617,13.617S49.436,55.079,41.926,55.079z M41.926,29.977c-6.332,0-11.484,5.152-11.484,11.485 s5.152,11.484,11.484,11.484c6.334,0,11.486-5.151,11.486-11.484S48.26,29.977,41.926,29.977z"></path><rect x="49.138" y="53.608" transform="matrix(0.7102 0.704 -0.704 0.7102 54.6092 -23.3166)" style="fill:#0CB4C4;" width="12.977" height="2.133"></rect></g></svg>