<svg xmlns="http://www.w3.org/2000/svg" xmlns:xlink="http://www.w3.org/1999/xlink" version="1.1" id="Layer_1" x="0px" y="0px" width="60px" height="60px" viewBox="0 0 60 60" enable-background="new 0 0 60 60" xml:space="preserve"><g><path fill="#0CB4C4" d="M56.998,38.003h-1v-6.139c-0.005-4.89-3.968-8.853-8.859-8.859h-8.72l-0.117-0.588 c-0.282-1.402-1.513-2.409-2.939-2.411h-2.72c-1.43,0.002-2.658,1.009-2.942,2.411l-0.117,0.588h-8.721 c-2.028-0.002-3.995,0.696-5.566,1.977c0.139-1.615,0.326-3.13,0.582-4.557c0.084-0.469,0.125-0.943,0.125-1.419 c0-0.74-0.1-1.475-0.301-2.187c-0.377-1.266-1.368-2.254-2.633-2.63c3.42-2.8,3.922-7.839,1.122-11.258S6.354-0.989,2.935,1.811 s-3.922,7.838-1.122,11.257c0.335,0.41,0.712,0.787,1.122,1.122c-1.265,0.376-2.254,1.368-2.629,2.632 c-0.2,0.712-0.301,1.446-0.301,2.185c0,0.478,0.042,0.954,0.125,1.423c0.666,4.227,0.959,8.506,0.875,12.785v10.146 c0,2.281-0.26,4.556-0.778,6.775c-0.15,0.611-0.226,1.236-0.222,1.866C0.005,56.418,3.587,60,8.004,60c0.002,0,0.007,0,0.011,0 h0.251c1.783-0.066,3.49-0.736,4.842-1.899c0.941,1.197,2.375,1.896,3.896,1.899h33.995c2.76-0.004,4.996-2.238,4.999-5v-2.999h1 c1.657,0,3-1.343,3-2.998v-8.002C59.998,39.347,58.655,38.003,56.998,38.003z M47.139,25.003c3.444,0.004,6.353,2.559,6.8,5.974 c-0.85-0.63-1.881-0.971-2.939-0.973h-11.18l-0.998-5.001H47.139z M32.643,22.005h2.72c0.473,0,0.883,0.332,0.979,0.801 l1.439,7.198h-7.56l1.439-7.198C31.755,22.337,32.165,22.005,32.643,22.005z M20.862,25.003h8.319l-1,5.001H17.004 c-1.06,0.002-2.087,0.343-2.938,0.973C14.514,27.564,17.422,25.011,20.862,25.003z M10.002,41.001c0-0.552,0.448-1,1.001-1h1 v10.002h-1c-0.553,0-1.001-0.448-1.001-1V41.001z M2.005,8.006c0-3.312,2.687-5.999,5.999-5.999s5.999,2.688,5.999,5.999 c0,3.313-2.687,5.999-5.999,5.999C4.691,14.001,2.01,11.319,2.005,8.006z M8.203,58c-3.311,0.111-6.085-2.483-6.193-5.796 c-0.005-0.067-0.005-0.134-0.005-0.203c-0.004-0.469,0.051-0.936,0.163-1.392c0.557-2.377,0.837-4.808,0.837-7.25V33.214 c0.086-4.394-0.215-8.788-0.899-13.127c-0.064-0.356-0.099-0.72-0.101-1.08c0-0.553,0.073-1.104,0.222-1.636 c0.26-0.825,1.034-1.382,1.898-1.364h7.759c0.864-0.018,1.638,0.535,1.899,1.359c0.148,0.536,0.222,1.086,0.22,1.641 c-0.002,0.36-0.035,0.72-0.101,1.071c-0.427,2.478-0.69,4.982-0.786,7.495c-0.732,1.31-1.113,2.789-1.113,4.292v6.139h-1 c-1.655,0-2.999,1.344-2.999,2.998v6.001h-2c-0.551,0-0.998,0.448-0.998,1.001c0,0.552,0.447,1,0.998,1h2 c0,1.655,1.344,2.998,2.999,2.998h1V55c0.006,0.422,0.064,0.841,0.176,1.244C11.124,57.313,9.705,57.941,8.203,58z M53.999,55 c0,1.657-1.343,3-3,3l0,0H17.004c-1.657,0-3.001-1.343-3.001-3l0,0V35.005c0-1.657,1.344-3.001,3.001-3.001h33.995 c1.657,0,3,1.344,3,3.001V55z M57.998,49.003c0,0.552-0.448,1-1,1h-1V40.001h1c0.552,0,1,0.448,1,1V49.003z"></path><path fill="#0CB4C4" d="M8.004,27.003c1.655,0,2.999-1.343,2.999-2.998v-3.001c0-1.655-1.344-2.998-2.999-2.998 c-1.657,0-2.998,1.343-2.998,2.998v3.001C5.006,25.661,6.347,27.003,8.004,27.003z M7.004,21.004c0-0.55,0.448-0.998,1-0.998 c0.553,0,1,0.448,1,0.998v3.001c0,0.55-0.447,0.998-1,0.998c-0.552,0-1-0.448-1-0.998V21.004z"></path><path fill="#0CB4C4" d="M46,35.005c0-0.553-0.447-1.001-1-1.001H19.623c-1.998,0-3.617,1.62-3.62,3.62v5.378 c0,0.552,0.448,1,1.001,1c0.552,0,1-0.448,1-1v-5.378c0-0.896,0.724-1.619,1.619-1.621H45C45.553,36.003,46,35.555,46,35.005z"></path><path fill="#0CB4C4" d="M50.999,46.002c-0.551,0-0.998,0.448-0.998,1v5.378c-0.004,0.896-0.729,1.619-1.624,1.622H23.003 c-0.553,0-1.001,0.447-1.001,0.998c0,0.552,0.448,1,1.001,1h25.374c2.001,0,3.62-1.62,3.622-3.62v-5.378 C51.999,46.45,51.552,46.002,50.999,46.002z"></path><path fill="#0CB4C4" d="M8.004,31.004c-0.552,0-1,0.447-1,1v1c0,0.553,0.448,1,1,1c0.553,0,1-0.447,1-1v-1 C9.004,31.451,8.557,31.004,8.004,31.004z"></path></g></svg>