<svg xmlns="http://www.w3.org/2000/svg" xmlns:xlink="http://www.w3.org/1999/xlink" version="1.1" id="Layer_1" x="0px" y="0px" width="66.4px" height="60px" viewBox="0 0 66.4 60" enable-background="new 0 0 66.4 60" xml:space="preserve"><g><path fill="#0CB4C4" d="M13.821,47.029c-0.419,0-0.835-0.089-1.231-0.265c-0.733-0.33-1.291-0.925-1.577-1.672L5.384,30.257 c-0.286-0.749-0.257-1.562,0.065-2.295c0.33-0.733,0.925-1.292,1.674-1.577l19.508-7.405l7.762,20.448l-19.5,7.402 C14.547,46.964,14.188,47.029,13.821,47.029z M25.361,21.828L7.916,28.452c-0.199,0.073-0.359,0.228-0.448,0.419 c-0.087,0.196-0.095,0.411-0.021,0.615l5.626,14.836c0.073,0.197,0.229,0.359,0.419,0.446c0.199,0.089,0.412,0.097,0.616,0.023 l17.448-6.627L25.361,21.828z"></path><path fill="#0CB4C4" d="M6.616,46.251c-1.583,0-3.082-0.97-3.674-2.539l-2.678-7.063c-0.771-2.026,0.257-4.301,2.279-5.07 l4.997-1.893l5.474,14.409l-5.01,1.899C7.548,46.17,7.08,46.251,6.616,46.251z M6.249,32.523L3.314,33.64 c-0.886,0.338-1.342,1.334-1.004,2.23l2.679,7.063c0.338,0.889,1.333,1.345,2.229,1.007l2.935-1.116L6.249,32.523z"></path><path fill="#0CB4C4" d="M57.056,44.103c-0.102,0-0.204-0.008-0.306-0.031l0,0l-24.571-4.306l-7.434-19.56L40.271,0.683 c0.403-0.506,1.048-0.763,1.695-0.661c0.637,0.103,1.182,0.537,1.407,1.146l15.365,40.491c0.226,0.61,0.115,1.291-0.293,1.789 C58.106,43.867,57.585,44.103,57.056,44.103z M33.785,37.814l22.656,3.969L41.57,2.598L27.255,20.602L33.785,37.814z"></path><path fill="#0CB4C4" d="M23.902,60c-0.543,0-1.064-0.302-1.321-0.815l-7.52-14.768l12.378-4.695l1.467,3.859 c0.543,1.438,0.33,3.037-0.573,4.284L27.585,48.9l3.514,6.697c0.199,0.375,0.229,0.823,0.073,1.219 c-0.154,0.396-0.461,0.713-0.864,0.864l-5.877,2.232C24.26,59.971,24.077,60,23.902,60z M18.134,45.599l6.113,12.017l4.525-1.716 l-3.779-7.19l1.557-2.144c0.469-0.637,0.579-1.467,0.294-2.206l-0.682-1.798L18.134,45.599z"></path><rect x="59.795" y="14.196" transform="matrix(-0.355 -0.9349 0.9349 -0.355 65.9843 80.8816)" fill="#0CB4C4" width="2.201" height="6.962"></rect><rect x="52.825" y="3.407" transform="matrix(-0.7218 -0.6921 0.6921 -0.7218 88.0806 49.1858)" fill="#0CB4C4" width="2.2" height="6.968"></rect><rect x="59.35" y="29.28" transform="matrix(-0.9967 -0.0809 0.0809 -0.9967 123.001 65.7449)" fill="#0CB4C4" width="6.964" height="2.201"></rect><rect x="16.846" y="23.77" transform="matrix(-0.355 -0.9349 0.9349 -0.355 -3.2933 56.7951)" fill="#0CB4C4" width="2.201" height="11.527"></rect></g></svg>