<svg width="61" height="60" viewBox="0 0 61 60" fill="none" xmlns="http://www.w3.org/2000/svg"><path d="M8.9272 27.2036C10.0986 18.2206 16.8336 10.9356 25.5708 8.98097L23.5314 7.71505C23.1882 7.49868 23.0862 7.05347 23.2952 6.7103C23.5115 6.36708 23.9567 6.26511 24.2999 6.47403L27.9609 8.75215C28.3041 8.96852 28.406 9.41373 28.1971 9.75691L25.919 13.4178C25.7026 13.7611 25.2574 13.863 24.9142 13.6541C24.571 13.4377 24.4691 12.9925 24.678 12.6494L26.0981 10.3712C17.8537 12.1147 11.4741 18.9468 10.3777 27.3879C10.328 27.756 10.0146 28.0246 9.6515 28.0246C9.61917 28.0246 9.58684 28.0246 9.55699 28.0172C9.16155 27.9674 8.87554 27.5993 8.92777 27.2039L8.9272 27.2036ZM50.9981 31.9787C50.5977 31.929 50.2272 32.2075 50.1774 32.6079C49.0881 41.0192 42.6963 47.8833 34.464 49.6265L35.8841 47.3484C36.1005 47.0052 35.9935 46.5525 35.6478 46.3436C35.3046 46.1273 34.852 46.2342 34.6431 46.5799L32.3649 50.2409C32.1486 50.5841 32.2555 51.0367 32.6012 51.2456L36.2621 53.5237C36.384 53.6008 36.5158 53.6332 36.6501 53.6332C36.8914 53.6332 37.1351 53.5113 37.2744 53.29C37.4908 52.9467 37.3838 52.4941 37.0381 52.2852L35.0012 51.0193C39.075 50.114 42.751 48.0647 45.7033 45.0404C48.9887 41.678 51.038 37.4448 51.6423 32.804C51.6871 32.3986 51.401 32.031 50.9981 31.9787ZM32.2732 46.5327L30.7909 46.8013C30.5994 46.8336 30.4726 46.953 30.4228 47.1395C30.1418 48.0821 29.7663 48.9999 29.2962 49.8653C29.2067 50.0369 29.2142 50.2085 29.3211 50.3677L30.1816 51.6038C30.7164 52.3747 30.6219 53.4193 29.9578 54.0808L27.9458 56.0929C27.2842 56.7545 26.2396 56.8515 25.4687 56.3167L24.2276 55.4562C24.0685 55.3468 23.8969 55.3343 23.7253 55.4313C22.8597 55.9014 21.942 56.2844 21.0069 56.5579C20.8229 56.6151 20.7085 56.742 20.6687 56.926L20.4001 58.4083C20.2334 59.331 19.4326 60 18.49 60H15.6498C14.7147 60 13.9114 59.331 13.7398 58.4083L13.4712 56.926C13.4388 56.7345 13.3195 56.6077 13.1329 56.5579C12.1903 56.2769 11.2726 55.9014 10.4072 55.4313C10.2355 55.3418 10.0639 55.3492 9.90477 55.4562L8.66871 56.3167C7.89774 56.8515 6.85313 56.757 6.19162 56.0929L4.17956 54.0808C3.51798 53.4193 3.42102 52.3747 3.95573 51.6038L4.81627 50.3627C4.92571 50.2036 4.93814 50.032 4.84115 49.8603C4.37109 48.9948 3.98811 48.0771 3.71453 47.142C3.65733 46.958 3.53049 46.8436 3.34644 46.8038L1.86418 46.5352C0.94149 46.3685 0.272461 45.5677 0.272461 44.6251V41.7849C0.272461 40.8498 0.94149 40.0465 1.86418 39.8749L3.34644 39.6063C3.53795 39.5739 3.66479 39.4546 3.71453 39.268C3.99557 38.3254 4.37108 37.4077 4.84115 36.5422C4.93068 36.3706 4.92322 36.199 4.81627 36.0399L3.95573 34.8038C3.42102 34.0328 3.51552 32.9882 4.17956 32.3267L6.19162 30.3147C6.8532 29.6531 7.89774 29.5561 8.66871 30.0908L9.90973 30.9514C10.0689 31.0608 10.2405 31.0732 10.4121 30.9762C11.2776 30.5062 12.1953 30.1232 13.1304 29.8496C13.3145 29.7924 13.4289 29.6656 13.4687 29.4815L13.7373 27.9993C13.9039 27.0766 14.7047 26.4076 15.6473 26.4076H18.4875C19.4227 26.4076 20.226 27.0766 20.3976 27.9993L20.6662 29.4815C20.6985 29.673 20.8179 29.7999 21.0044 29.8496C21.9471 30.1307 22.8648 30.5062 23.7228 30.9762C23.8944 31.0658 24.066 31.0583 24.2252 30.9514L25.4662 30.0908C26.2371 29.5561 27.2818 29.6506 27.9433 30.3147L29.9553 32.3267C30.6169 32.9883 30.7139 34.0328 30.1792 34.8038L29.3186 36.0448C29.2092 36.204 29.1967 36.3756 29.2937 36.5472C29.7638 37.4127 30.1468 38.323 30.4204 39.2655C30.4776 39.4496 30.6044 39.564 30.7884 39.6038L32.2707 39.8724C33.1934 40.039 33.8624 40.8398 33.8624 41.7824V44.6226C33.8649 45.5603 33.1959 46.3686 32.2732 46.5327ZM32.012 45.0952C32.2409 45.0504 32.4075 44.8589 32.4075 44.6251V41.7849C32.4075 41.5487 32.2483 41.3572 32.012 41.3149L30.5298 41.0463C29.7911 40.912 29.2241 40.4021 29.0152 39.6834C28.7665 38.8428 28.4282 38.022 28.003 37.2511C27.6473 36.5945 27.6846 35.8309 28.1124 35.2142L28.9729 33.9732C29.1072 33.7817 29.0824 33.528 28.9157 33.3613L26.9037 31.3493C26.7371 31.1826 26.4908 31.1578 26.2919 31.2921L25.0508 32.1526C24.4341 32.5804 23.6755 32.6177 23.014 32.2621C22.243 31.8417 21.4222 31.4985 20.5816 31.2499C19.8629 31.0409 19.353 30.4739 19.2187 29.7352L18.9501 28.253C18.9054 28.0242 18.7139 27.865 18.4801 27.865H15.6399C15.4036 27.865 15.2121 28.0242 15.1698 28.253L14.9012 29.7352C14.7669 30.4739 14.2571 31.041 13.5383 31.2499C12.6977 31.4986 11.877 31.8368 11.106 32.2621C10.4495 32.6177 9.68589 32.5804 9.07409 32.1526L7.83307 31.2921C7.64156 31.1578 7.38788 31.1826 7.22125 31.3493L5.2092 33.3613C5.04256 33.528 5.01769 33.7742 5.15199 33.9732L6.01254 35.2092C6.44031 35.826 6.47762 36.5846 6.12197 37.2461C5.70166 38.0171 5.35846 38.8378 5.10977 39.6784C4.90086 40.3972 4.33378 40.907 3.59516 41.0413L2.1402 41.3124C1.91139 41.3572 1.74476 41.5487 1.74476 41.7825V44.6226C1.74476 44.8589 1.90393 45.0504 2.1402 45.0927L3.62247 45.3613C4.36115 45.4956 4.92818 46.0054 5.13708 46.7242C5.38579 47.5648 5.72403 48.3856 6.14928 49.1565C6.50493 49.8131 6.46763 50.5767 6.03985 51.1934L5.17931 52.4344C5.045 52.6259 5.06987 52.8796 5.23651 53.0463L7.24856 55.0583C7.4152 55.2249 7.66141 55.2498 7.86038 55.1155L9.09644 54.255C9.43468 54.0187 9.8152 53.9043 10.1982 53.9043C10.5166 53.9043 10.8349 53.9864 11.1334 54.1455C11.9044 54.5659 12.7251 54.9091 13.5657 55.1577C14.2845 55.3667 14.7943 55.9337 14.9286 56.6723L15.1972 58.1546C15.242 58.3834 15.4335 58.5501 15.6673 58.5501H18.5075C18.7437 58.5501 18.9352 58.3909 18.9775 58.1546L19.2461 56.6723C19.3804 55.9337 19.8902 55.3666 20.609 55.1577C21.4496 54.909 22.2704 54.5708 23.0413 54.1455C23.6979 53.7899 24.4615 53.8272 25.0782 54.255L26.3192 55.1155C26.5107 55.2498 26.7644 55.2249 26.9311 55.0583L28.9431 53.0463C29.1098 52.8796 29.1346 52.6334 29.0003 52.4344L28.1398 51.1984C27.712 50.5816 27.6747 49.823 28.0303 49.1615C28.4507 48.3905 28.7939 47.5698 29.0425 46.7292C29.2515 46.0104 29.8185 45.5005 30.5572 45.3663L32.012 45.0952ZM24.857 43.2025C24.857 47.4927 21.3676 50.9822 17.0773 50.9822C12.787 50.9822 9.29765 47.4928 9.29765 43.2025C9.29765 38.9122 12.787 35.4228 17.0773 35.4228C21.3676 35.4228 24.857 38.9122 24.857 43.2025ZM23.3921 43.2025C23.3921 39.7206 20.5593 36.8854 17.075 36.8854C13.593 36.8854 10.7578 39.7181 10.7578 43.2025C10.7578 46.6844 13.5906 49.5196 17.075 49.5196C20.5593 49.5196 23.3921 46.6869 23.3921 43.2025ZM60.2753 15.3749V18.2151C60.2753 19.1502 59.6063 19.9536 58.6836 20.1251L57.2013 20.3937C57.0098 20.4261 56.883 20.5454 56.8332 20.732C56.5522 21.6746 56.1767 22.5923 55.7066 23.4578C55.6171 23.6294 55.6245 23.801 55.7315 23.9601L56.592 25.1962C57.1267 25.9672 57.0322 27.0118 56.3682 27.6733L54.3561 29.6853C53.6946 30.3469 52.65 30.4439 51.879 29.9092L50.638 29.0486C50.4788 28.9392 50.3072 28.9268 50.1356 29.0238C49.2701 29.4938 48.3524 29.8768 47.4173 30.1504C47.2333 30.2076 47.1189 30.3344 47.0791 30.5185L46.8105 32.0007C46.6438 32.9234 45.843 33.5924 44.9004 33.5924H42.0602C41.1251 33.5924 40.3217 32.9234 40.1502 32.0007L39.8816 30.5185C39.8492 30.327 39.7299 30.2001 39.5433 30.1504C38.6007 29.8693 37.683 29.4938 36.8175 29.0238C36.6459 28.9342 36.4743 28.9417 36.3152 29.0486L35.0791 29.9092C34.3081 30.4439 33.2635 30.3494 32.602 29.6853L30.59 27.6733C29.9284 27.0117 29.8314 25.9672 30.3661 25.1962L31.2267 23.9552C31.3361 23.796 31.3485 23.6244 31.2515 23.4528C30.7815 22.5873 30.3985 21.6696 30.1249 20.7345C30.0677 20.5504 29.9409 20.436 29.7568 20.3962L28.2746 20.1276C27.3519 19.961 26.6829 19.1602 26.6829 18.2176V15.3774C26.6829 14.4422 27.3519 13.6389 28.2746 13.4673L29.7568 13.1987C29.9483 13.1664 30.0752 13.047 30.1249 12.8605C30.406 11.9179 30.7815 11.0001 31.2515 10.1347C31.3411 9.96308 31.3336 9.79147 31.2267 9.6323L30.3661 8.39624C29.8314 7.62528 29.9259 6.58067 30.59 5.91915L32.602 3.9071C33.2636 3.24552 34.3081 3.14855 35.0791 3.68326L36.3201 4.54381C36.4793 4.65324 36.6509 4.66568 36.8225 4.56868C37.688 4.09863 38.6057 3.71565 39.5408 3.44206C39.7249 3.38486 39.8393 3.25802 39.8791 3.07398L40.1477 1.59171C40.3143 0.669029 41.1151 0 42.0577 0H44.8979C45.8331 0 46.6364 0.669029 46.808 1.59171L47.0766 3.07398C47.1089 3.26548 47.2283 3.39232 47.4148 3.44206C48.3574 3.7231 49.2752 4.09861 50.1332 4.56868C50.3048 4.65821 50.4764 4.65075 50.6355 4.54381L51.8766 3.68326C52.6475 3.14855 53.6921 3.24305 54.3537 3.9071L56.3657 5.91915C57.0273 6.58073 57.1243 7.62528 56.5895 8.39624L55.729 9.63727C55.6196 9.79644 55.6071 9.96804 55.7041 10.1397C56.1742 11.0052 56.5572 11.9229 56.8307 12.858C56.8879 13.042 57.0148 13.1564 57.1988 13.1962L58.6811 13.4648C59.6063 13.629 60.2753 14.4372 60.2753 15.3749ZM58.8104 15.3749C58.8104 15.1386 58.6512 14.9471 58.415 14.9048L56.9327 14.6362C56.194 14.5019 55.627 13.9921 55.4181 13.2733C55.1694 12.4327 54.8311 11.612 54.4059 10.841C54.0502 10.1845 54.0875 9.42088 54.5153 8.80412L55.3759 7.5631C55.5102 7.3716 55.4853 7.11791 55.3187 6.95128L53.3066 4.93923C53.14 4.77259 52.8937 4.74773 52.6948 4.88203L51.4538 5.74257C50.837 6.17035 50.0784 6.20765 49.4169 5.852C48.6459 5.43169 47.8252 5.08849 46.9845 4.8398C46.2658 4.63089 45.7559 4.06381 45.6217 3.32519L45.3779 1.85782C45.3332 1.62901 45.1417 1.46238 44.9079 1.46238H42.0677C41.8314 1.46238 41.6399 1.62155 41.5976 1.85782L41.329 3.34009C41.1947 4.07877 40.6849 4.6458 39.9661 4.8547C39.1255 5.10341 38.3048 5.44165 37.5338 5.8669C36.8773 6.22255 36.1137 6.18524 35.5019 5.75747L34.2609 4.89692C34.0694 4.76262 33.8157 4.78749 33.649 4.95412L31.637 6.96618C31.4704 7.13281 31.4455 7.37903 31.5798 7.578L32.4403 8.81406C32.8681 9.43085 32.9054 10.1894 32.5498 10.8509C32.1294 11.6219 31.7862 12.4427 31.5376 13.2833C31.3286 14.002 30.7616 14.5119 30.0229 14.6462L28.5407 14.9148C28.3119 14.9595 28.1452 15.151 28.1452 15.3848V18.225C28.1452 18.4613 28.3044 18.6528 28.5407 18.6951L30.0229 18.9637C30.7616 19.098 31.3287 19.6078 31.5376 20.3266C31.7863 21.1672 32.1245 21.9879 32.5498 22.7589C32.9054 23.4154 32.8681 24.179 32.4403 24.7958L31.5798 26.0368C31.4455 26.2283 31.4704 26.482 31.637 26.6486L33.649 28.6607C33.8157 28.8273 34.0619 28.8522 34.2609 28.7179L35.4969 27.8573C35.8352 27.6211 36.2157 27.5067 36.5987 27.5067C36.917 27.5067 37.2354 27.5887 37.5339 27.7479C38.3048 28.1682 39.1256 28.5114 39.9662 28.7601C40.685 28.969 41.1948 29.5361 41.3291 30.2747L41.5977 31.757C41.6425 31.9858 41.834 32.145 42.0677 32.145H44.9079C45.1442 32.145 45.3357 31.9858 45.378 31.757L45.6466 30.2747C45.7809 29.536 46.2907 28.969 47.0095 28.7601C47.8501 28.5114 48.6708 28.1732 49.4418 27.7479C50.0984 27.3923 50.8619 27.4296 51.4787 27.8573L52.7197 28.7179C52.9112 28.8522 53.1649 28.8273 53.3315 28.6607L55.3436 26.6486C55.5102 26.482 55.5351 26.2358 55.4008 26.0368L54.5402 24.8007C54.1125 24.184 54.0752 23.4254 54.4308 22.7639C54.8511 21.9929 55.1943 21.1721 55.443 20.3315C55.6519 19.6128 56.219 19.1029 56.9576 18.9686L58.4399 18.7C58.6687 18.6553 58.8279 18.4638 58.8279 18.23L58.8304 15.3748L58.8104 15.3749ZM51.2669 16.795C51.2669 21.0852 47.7776 24.5747 43.4873 24.5747C39.1946 24.5747 35.7051 21.0853 35.7051 16.795C35.7051 12.5024 39.1944 9.01281 43.4847 9.01281C47.7774 9.01281 51.2669 12.5022 51.2669 16.795ZM49.8021 16.795C49.8021 13.3131 46.9693 10.4779 43.4849 10.4779C40.003 10.4779 37.1678 13.3106 37.1678 16.795C37.1678 20.2769 40.0005 23.1121 43.4849 23.1121C46.9693 23.1097 49.8021 20.2769 49.8021 16.795Z" fill="#0CB4C4"></path></svg>