<svg xmlns="http://www.w3.org/2000/svg" aria-labelledby="svgTitle" width="49" height="60" viewBox="0 0 49 60" fill="none"><title id="svgTitle">Document Version Control</title><path d="M12.3883 16.535C12.3912 17.6952 13.1316 18.7235 14.2305 19.0868V22.4999C14.2305 22.7987 14.3879 23.0741 14.6444 23.2206L21.8412 27.3984V30.1728H21.8441C20.5936 30.5829 19.827 31.8457 20.031 33.1494C20.238 34.4531 21.3573 35.414 22.6719 35.414C23.9866 35.414 25.1058 34.4531 25.3128 33.1494C25.5169 31.8457 24.7503 30.583 23.4998 30.1728V23.0711L30.6995 18.8934C30.956 18.744 31.1134 18.4686 31.1134 18.1727V14.7595C32.3639 14.3494 33.1304 13.0867 32.9235 11.7829C32.7195 10.4792 31.6002 9.51828 30.2855 9.51828C28.9709 9.51828 27.8516 10.4792 27.6446 11.7829C27.4377 13.0867 28.2072 14.3494 29.4548 14.7595V17.6922L23.4997 21.1493V9.3457C24.7502 8.93554 25.5168 7.67282 25.3098 6.36908C25.1058 5.06535 23.9865 4.10444 22.6719 4.10444C21.3572 4.10444 20.238 5.06535 20.0339 6.36908C19.8269 7.67282 20.5935 8.93553 21.844 9.3457V25.4768L15.8889 22.0227V19.09C16.845 18.7765 17.5446 17.9504 17.6991 16.9513C17.8536 15.9552 17.4397 14.9532 16.6264 14.3614C15.8132 13.7696 14.7376 13.6847 13.8427 14.1446C12.9478 14.6046 12.3853 15.5304 12.3882 16.5382L12.3883 16.535ZM30.2852 11.1854C30.6962 11.1854 31.0664 11.4344 31.2238 11.8153C31.3812 12.1961 31.2938 12.6356 31.0023 12.9257C30.7137 13.2186 30.2765 13.3065 29.8975 13.1483C29.5186 12.9901 29.2708 12.618 29.2708 12.205C29.2708 11.6425 29.7256 11.1854 30.2852 11.1854ZM22.6717 33.7501C22.2607 33.7501 21.8905 33.501 21.7331 33.1202C21.5757 32.7393 21.6632 32.2998 21.9547 32.0098C22.2432 31.7168 22.6805 31.6289 23.0594 31.7871C23.4384 31.9453 23.6861 32.3174 23.6861 32.7305C23.6861 33.293 23.2314 33.7501 22.6717 33.7501ZM22.6717 5.7741C23.0827 5.7741 23.4529 6.02313 23.6103 6.40399C23.7677 6.78485 23.6803 7.22435 23.3917 7.51437C23.1002 7.80734 22.663 7.89523 22.284 7.73703C21.9051 7.57883 21.6573 7.20676 21.6573 6.79368C21.6573 6.23117 22.1121 5.7741 22.6717 5.7741ZM16.0724 16.5352C16.0724 16.9483 15.8276 17.3204 15.4487 17.4785C15.0668 17.6367 14.6325 17.5489 14.341 17.2559C14.0524 16.9658 13.965 16.5264 14.1224 16.1455C14.2798 15.7646 14.65 15.5156 15.058 15.5156C15.6206 15.5156 16.0724 15.9727 16.0724 16.5352ZM48.1712 18.4952H42.0529V4.28032C42.0529 4.05766 41.9625 3.84673 41.8051 3.69144C41.6506 3.53617 41.4379 3.44828 41.2163 3.45121H38.6192V0.832041C38.6192 0.612312 38.5317 0.401373 38.3772 0.243167C38.2198 0.0878929 38.01 0 37.7913 0H13.8426C13.8164 0 13.7931 1.87546e-07 13.7669 0.00292971C13.7523 0.00292971 13.7406 0.00292933 13.7261 0.00878913C13.7115 0.0146482 13.6998 0.011719 13.6852 0.0146485H13.6882C13.6736 0.0175788 13.659 0.0205083 13.6444 0.0263674L13.6095 0.0351565L13.5687 0.049805C13.557 0.0556648 13.5453 0.0585938 13.5337 0.0644536L13.4958 0.0820318L13.4608 0.0996094L13.3908 0.140626C13.3763 0.149415 13.3646 0.158204 13.353 0.169922C13.3413 0.178712 13.3355 0.181643 13.3267 0.190431L13.3238 0.187501C13.3034 0.20508 13.283 0.222658 13.2626 0.243166L6.96358 6.57426C6.94318 6.59477 6.92569 6.61528 6.9082 6.63579C6.90237 6.64458 6.89654 6.65336 6.89071 6.66215C6.88488 6.67094 6.87031 6.68852 6.86156 6.70317C6.85282 6.71782 6.84699 6.72661 6.84116 6.73833L6.82075 6.77348V6.77055C6.81201 6.78227 6.80618 6.79399 6.80326 6.80864C6.79743 6.82036 6.7916 6.83208 6.78577 6.84672C6.77995 6.85844 6.77703 6.87016 6.77412 6.88188C6.7712 6.8936 6.76246 6.90825 6.75954 6.9229C6.75663 6.93755 6.75371 6.94926 6.7508 6.96098C6.74788 6.9727 6.74205 6.98735 6.73914 7.002C6.73622 7.01665 6.73331 7.0313 6.73331 7.04595C6.73039 7.06059 6.73331 7.06938 6.72748 7.08403V7.16607V18.4979H0.833656L0.830741 18.495C0.609208 18.495 0.399345 18.5829 0.244851 18.7411C0.0874468 18.8963 0 19.1073 0 19.3299V48.8261C0 49.0459 0.0874468 49.2568 0.244851 49.415C0.399338 49.5703 0.609208 49.6582 0.830741 49.6582H16.7958L15.4229 53.7949H13.7585C12.0533 53.7949 10.6717 55.1836 10.6688 56.8975V59.168C10.6688 59.3877 10.7562 59.5986 10.9136 59.7568C11.0681 59.9121 11.2809 60 11.4995 60H37.5062C37.9639 60 38.3341 59.6279 38.3341 59.1679V56.8974C38.3341 55.1835 36.9524 53.7949 35.2472 53.7949H33.5799L32.2071 49.6582H48.1721C48.3936 49.6582 48.6035 49.5703 48.758 49.415C48.9154 49.2568 49.0028 49.0459 48.9999 48.8261V19.3299C49.0028 19.1102 48.9154 18.8963 48.758 18.741C48.6035 18.5858 48.3936 18.4979 48.1721 18.4979L48.1712 18.4952ZM7.55526 39.5186H10.1553V42.1348C10.1553 42.5948 10.5255 42.9669 10.9832 42.9669H41.2164C41.674 42.9669 42.0471 42.5948 42.0471 42.1348V23.0884H44.4315V45.0643H4.57372V23.0884H6.72779V38.6893H6.72487C6.72779 39.1493 7.09761 39.5215 7.55526 39.5186ZM40.3883 5.11207V41.2998H11.8079V39.5186H37.7907C38.0093 39.5186 38.2192 39.4336 38.3766 39.2754C38.5311 39.1201 38.6185 38.9063 38.6185 38.6865V5.11179L40.3883 5.11207ZM36.9633 37.8543H8.38295V7.99735H13.8541C14.3118 7.99735 14.682 7.62528 14.6849 7.16529V1.66625H36.9628L36.9633 37.8543ZM9.55523 6.33083L13.0239 2.84451V6.33083H9.55523ZM36.6753 56.8977V58.3333H12.3304V56.8977C12.3304 56.1037 12.9687 55.4621 13.7587 55.4592H35.2471C36.0371 55.4621 36.6753 56.1037 36.6753 56.8977ZM31.8308 53.7952H17.1716L18.5445 49.6584H30.4606L31.8308 53.7952ZM47.3406 47.9943L1.66173 47.9914V20.1647H6.72488V21.4245H3.74006C3.52145 21.4245 3.30866 21.5124 3.15417 21.6676C2.99968 21.8258 2.91224 22.0368 2.91224 22.2594V45.8996C2.91224 46.1223 2.99968 46.3332 3.15417 46.4885C3.30866 46.6467 3.52145 46.7346 3.74006 46.7346H45.2626C45.4812 46.7346 45.6911 46.6467 45.8485 46.4885C46.003 46.3332 46.0904 46.1223 46.0904 45.8996V22.2572C46.0904 22.0345 46.003 21.8236 45.8485 21.6654C45.6911 21.5101 45.4812 21.4222 45.2626 21.4222H42.0504V20.1654H47.3439L47.3406 47.9943ZM27.3536 22.8369V26.8652V26.8623C27.3536 27.3252 27.7237 27.6973 28.1843 27.6973H34.1977H34.1948C34.6524 27.6973 35.0255 27.3252 35.0255 26.8623V22.8339V22.8369C35.0255 22.3769 34.6524 22.0019 34.1948 22.0019H28.1843C27.7238 22.0019 27.3536 22.3769 27.3536 22.8369ZM29.0121 23.6689H33.3669V26.0302H29.0121V23.6689ZM34.1948 28.7988H28.1843C27.7267 28.7988 27.3536 29.1738 27.3536 29.6338V33.6622C27.3536 34.1221 27.7267 34.4942 28.1843 34.4942H34.1977H34.1948C34.6524 34.4942 35.0226 34.1221 35.0255 33.6622V29.6338C35.0255 29.4111 34.9381 29.2002 34.7807 29.0449C34.6262 28.8867 34.4163 28.7988 34.1948 28.7988ZM33.364 32.8272H29.0121V30.4659H33.3669L33.364 32.8272ZM17.1602 28.7988H11.1497C10.6921 28.8018 10.3248 29.1738 10.3248 29.6338V33.6622C10.3248 34.1221 10.695 34.4942 11.1526 34.4942H17.166C17.6236 34.4942 17.9938 34.1221 17.9938 33.6622V29.6338C17.9938 29.4111 17.9064 29.2002 17.7519 29.042C17.5945 28.8867 17.3817 28.7988 17.1602 28.7988ZM16.3323 32.8272H11.9805V30.4659H16.3352L16.3323 32.8272Z" fill="#0CB4C4"></path></svg>