<svg xmlns="http://www.w3.org/2000/svg" aria-labelledby="svgTitle" id="Layer_1" data-name="Layer 1" width="63.44" height="60" viewBox="0 0 63.44 60"><title id="svgTitle">Email Plugins &amp; Extensions</title><defs><style> .cls-1 { fill: #0cb4c4; } </style></defs><path class="cls-1" d="M56.14.2H7.3A7.1,7.1,0,0,0,.2,7.31V41.46a7.1,7.1,0,0,0,7.1,7.11H24.83v9.72H17.12a.76.76,0,0,0,0,1.51h29.2a.76.76,0,1,0,0-1.51H38.61V48.57H56.14a7.1,7.1,0,0,0,7.1-7.11V7.31A7.1,7.1,0,0,0,56.14.2Zm-19,58.08H26.34V48.57H37.09ZM61.73,41.46a5.6,5.6,0,0,1-5.59,5.6H7.3a5.6,5.6,0,0,1-5.59-5.6V7.31A5.6,5.6,0,0,1,7.3,1.71H56.14a5.6,5.6,0,0,1,5.59,5.6Z"></path><path class="cls-1" d="M46.32,60H17.12a1,1,0,0,1,0-1.91h7.51V48.77H7.3A7.31,7.31,0,0,1,0,41.46V7.31A7.31,7.31,0,0,1,7.3,0H56.13a7.31,7.31,0,0,1,7.31,7.31V41.46a7.31,7.31,0,0,1-7.3,7.31H38.81v9.32h7.51a1,1,0,0,1,0,1.91Zm-29.2-1.51a.56.56,0,0,0,0,1.11h29.2a.56.56,0,1,0,0-1.11H38.41V48.37H56.14A6.9,6.9,0,0,0,63,41.46V7.31A6.9,6.9,0,0,0,56.14.4v0H7.3A6.9,6.9,0,0,0,.4,7.31V41.46a6.9,6.9,0,0,0,6.9,6.91H25V58.49Zm20.17,0H26.15V48.37H37.29Zm-10.75-.4H36.9V48.76H26.54ZM7.3,47.26a5.8,5.8,0,0,1-5.79-5.8V7.31A5.8,5.8,0,0,1,7.3,1.51H56.14a5.77,5.77,0,0,1,4.09,1.7,5.83,5.83,0,0,1,1.7,4.1V41.46a5.8,5.8,0,0,1-5.79,5.8Zm0-45.35a5.39,5.39,0,0,0-5.39,5.4V41.46a5.39,5.39,0,0,0,5.39,5.4H56.14a5.39,5.39,0,0,0,5.39-5.4V7.31A5.47,5.47,0,0,0,60,3.49a5.35,5.35,0,0,0-3.81-1.58Z"></path><path class="cls-1" d="M54.74,6.77H8.7A.76.76,0,0,0,8,7.52V39.68a.75.75,0,0,0,.75.75h46a.75.75,0,0,0,.75-.75V7.52A.76.76,0,0,0,54.74,6.77ZM54,38.92H9.46V8.28H54Z"></path><path class="cls-1" d="M54.74,40.63H8.7a1,1,0,0,1-.95-1V7.52a1,1,0,0,1,.95-.95h46a1,1,0,0,1,.95.95V39.68A1,1,0,0,1,54.74,40.63ZM8.7,7a.55.55,0,0,0-.55.55V39.68a.56.56,0,0,0,.55.56h46a.56.56,0,0,0,.55-.56V7.52A.55.55,0,0,0,54.74,7ZM54.18,39.12H9.26v-31H54.18Zm-44.52-.4H53.78V8.48H9.66Z"></path><path class="cls-1" d="M19,15.92l0,0s0,0,0,.06h0a.77.77,0,0,0,0,.15V32.6a.76.76,0,0,0,.76.75H43.76a.76.76,0,0,0,.76-.75V16.17a.76.76,0,0,0,0-.15h0a.14.14,0,0,0,0-.06v0l0,0a.91.91,0,0,0-.07-.14l0-.06,0,0,0,0h0l0,0,0,0,0,0,0,0,0,0,0,0h0l-.06,0a.86.86,0,0,0-.27-.05H19.68a.87.87,0,0,0-.28.05l-.06,0h0l0,0,0,0,0,0,0,0,0,0,0,0,0,0,0,0-.05.06h0s-.05.09-.07.14,0,0,0,0Zm1.46,15.92V17.6L31.29,25a.75.75,0,0,0,.86,0L43,17.6V31.84Zm1.7-14.91H41.31l-9.59,6.54Z"></path><path class="cls-1" d="M43.76,33.55H19.68a1,1,0,0,1-1-.95V16.17a1.37,1.37,0,0,1,0-.19l0-.11.2.05-.19-.07v0a1.62,1.62,0,0,1,.1-.18l.06-.07.35-.26h0a.92.92,0,0,1,.36-.07H43.77a.87.87,0,0,1,.35.07h0l.26.18.06,0,.08.1.09.18,0,.09a.36.36,0,0,1,0,.11.63.63,0,0,1,0,.16V32.6A1,1,0,0,1,43.76,33.55ZM19.15,16l0,.05c0,.05,0,.09,0,.12V32.6a.56.56,0,0,0,.56.55H43.76a.56.56,0,0,0,.56-.55V16.17a.45.45,0,0,0,0-.11l0-.11-.05-.09-.11-.12.06-.2-.1.17-.07,0a.64.64,0,0,0-.24-.05H19.68a.52.52,0,0,0-.21,0l-.08,0h-.05v0l-.11-.1.1.17-.06.06-.05.06a.47.47,0,0,0,0,.1ZM43.21,32h-23V17.23l11.18,7.62a.54.54,0,0,0,.62,0l11.18-7.62Zm-22.58-.4H42.81V18L32.26,25.17a.93.93,0,0,1-1.08,0L20.63,18Zm11.09-7.93-10.23-7H42Zm-8.95-6.58,9,6.1,9-6.1Z"></path><path class="cls-1" d="M54.74,42.11H52.1a.76.76,0,0,0,0,1.52h2.64a.76.76,0,0,0,0-1.52Z"></path><path class="cls-1" d="M54.74,43.83H52.1a1,1,0,0,1,0-1.92h2.64a1,1,0,0,1,0,1.92ZM52.1,42.31a.56.56,0,1,0,0,1.12h2.64a.56.56,0,0,0,0-1.12Z"></path><path class="cls-1" d="M47.26,42.11H44.63a.76.76,0,0,0,0,1.52h2.64a.76.76,0,0,0,0-1.52Z"></path><path class="cls-1" d="M47.27,43.83H44.63a1,1,0,0,1,0-1.92h2.64a1,1,0,0,1,0,1.92Zm-2.64-1.52a.56.56,0,0,0,0,1.12h2.64a.56.56,0,0,0,0-1.12Z"></path></svg>