<svg xmlns="http://www.w3.org/2000/svg" aria-labelledby="svgTitle" id="Layer_1" data-name="Layer 1" width="60" height="60" viewBox="0 0 60 60"><title id="svgTitle">Search Engine Tags</title><defs><style> .cls-1 { fill: #0cb4c4; } </style></defs><path class="cls-1" d="M59,30H49.35a12.58,12.58,0,0,0-23.22,0H1a1,1,0,0,0-1,1v7.74a1,1,0,0,0,1,1H26.13a12.55,12.55,0,0,0,18.1,5.92L58.34,59.72l1.37-1.37L45.83,44.46h0a12.4,12.4,0,0,0,2-2.08L58.35,52.94l1.37-1.37L48.86,40.71c.18-.33.34-.68.49-1H59a1,1,0,0,0,1-1V31a1,1,0,0,0-.28-.69A1,1,0,0,0,59,30ZM1.94,31.94H19.35v5.8H1.94Zm19.35,5.8v-5.8h4.22a12.11,12.11,0,0,0,0,5.8Zm16.45,7.74a10.65,10.65,0,1,1,7.53-3.12A10.68,10.68,0,0,1,37.74,45.48Zm20.32-7.74H50a12.11,12.11,0,0,0,0-5.8h8.09Z"></path><path class="cls-1" d="M3.87,33.87H5.81v1.94H3.87Z"></path><path class="cls-1" d="M7.74,33.87H9.68v1.94H7.74Z"></path><path class="cls-1" d="M11.61,33.87h1.94v1.94H11.61Z"></path><path class="cls-1" d="M15.48,33.87h1.94v1.94H15.48Z"></path><path class="cls-1" d="M37.74,26.13a8.71,8.71,0,1,0,6.16,2.55A8.74,8.74,0,0,0,37.74,26.13Zm0,15.48a6.78,6.78,0,1,1,4.79-2A6.78,6.78,0,0,1,37.74,41.61Z"></path><path class="cls-1" d="M3.87,21.29h6.37l3.59,3.59h0a1,1,0,0,0,1.37,0l3.59-3.59H27.1a1,1,0,0,0,1-1V1a1,1,0,0,0-1-1H3.87a1,1,0,0,0-1,1V20.32a1,1,0,0,0,.29.69,1,1,0,0,0,.68.28Zm1-19.35H26.13V19.35H18.39a1,1,0,0,0-.69.29l-3.18,3.19-3.19-3.19h0a1,1,0,0,0-.68-.29H4.84Z"></path><path class="cls-1" d="M59,3.87H35.81a1,1,0,0,0-1,1V16.45a1,1,0,0,0,.28.69,1,1,0,0,0,.69.28h9.27L47.7,20h0a1,1,0,0,0,1.37,0l2.62-2.62H59a1,1,0,0,0,.69-.28,1,1,0,0,0,.28-.69V4.84a1,1,0,0,0-.28-.69A1,1,0,0,0,59,3.87Zm-1,11.61H51.29a1,1,0,0,0-.68.29L48.39,18l-2.22-2.22h0a1,1,0,0,0-.69-.29H36.77V5.81H58.06Z"></path><path class="cls-1" d="M7.74,9.68H23.23a.94.94,0,0,0,.68-.29,1,1,0,0,0,.28-.68V4.84a1,1,0,0,0-.28-.69,1,1,0,0,0-.68-.28H7.74a1,1,0,0,0-1,1V8.71a1,1,0,0,0,.29.68A.94.94,0,0,0,7.74,9.68Zm1-3.87H22.26V7.74H8.71Z"></path><path class="cls-1" d="M39.68,13.55H55.16a1,1,0,0,0,1-1V8.71a1,1,0,0,0-1-1H39.68a1,1,0,0,0-1,1v3.87a1,1,0,0,0,.28.69A1,1,0,0,0,39.68,13.55Zm1-3.87H54.19v1.93H40.65Z"></path><path class="cls-1" d="M24.19,16.45V12.58a1,1,0,0,0-.28-.68.94.94,0,0,0-.68-.29H7.74a1,1,0,0,0-1,1v3.87a1,1,0,0,0,.29.69,1,1,0,0,0,.68.28H23.23a1,1,0,0,0,.68-.28A1,1,0,0,0,24.19,16.45Zm-1.93-1H8.71V13.55H22.26Z"></path><path class="cls-1" d="M18.39,41.61a4.86,4.86,0,0,0-4.74,3.87H6.77a1,1,0,0,0-.68,1.66l3.19,3.18L5.12,54.48a1,1,0,0,0,0,1.37L9,59.72a1,1,0,0,0,1.37,0l4.16-4.16,3.18,3.19h0a1,1,0,0,0,1.65-.69V51.19a4.84,4.84,0,0,0-1-9.58Zm-1,14.12L15.2,53.51h0a1,1,0,0,0-1.37,0L9.68,57.66l-2.51-2.5L11.33,51h0a1,1,0,0,0,0-1.37L9.11,47.42h8.31Zm1.93-6.55V46.45a1,1,0,0,0-.28-.68,1,1,0,0,0-.68-.29H15.66a2.9,2.9,0,1,1,3.69,3.7Z"></path></svg>