<svg xmlns="http://www.w3.org/2000/svg" aria-labelledby="svgTitle" id="Layer_1" data-name="Layer 1" width="60" height="60" viewBox="0 0 60 60"><title id="svgTitle">E-Signature Capability</title><defs><style> .cls-1 { fill: #0cb4c4; } </style></defs><path class="cls-1" d="M58.06,18.39a4.83,4.83,0,0,0-3.63-4.67l3.88-3.89A5.76,5.76,0,0,0,54.24,0a5.71,5.71,0,0,0-4.07,1.69l-2.05,2a3,3,0,0,0-4.89-.91L37.66,8.39a3,3,0,0,0-.89,2.14,3,3,0,0,0,1.8,2.76l-.26.26H6.77a4.84,4.84,0,0,0-4.83,4.84V50.32H0v4.84A4.84,4.84,0,0,0,4.84,60H55.16A4.84,4.84,0,0,0,60,55.16V50.32H58.06ZM47.5,7.09l4-4a3.76,3.76,0,0,1,2.7-1.12,3.82,3.82,0,0,1,3.82,3.82,3.76,3.76,0,0,1-1.12,2.7L44.52,20.89l-5.41-5.41,2.82-2.82ZM26.81,27A2.92,2.92,0,0,0,26,29a3,3,0,0,0,.11.73l-1.49,2a6.9,6.9,0,0,0-1.28,3.1h-.07c-.35,0-.37-.05-.61-.48a2.43,2.43,0,0,0-2.3-1.46,3.42,3.42,0,0,0-2.72,1.86c-.51.71-.78,1.05-1.15,1.05-.16,0-.24,0-.54-.83s-.78-2.08-2.36-2.08A3.61,3.61,0,0,0,11,34.13c-.51.48-.77.71-1.27.71v1.93a3.63,3.63,0,0,0,2.6-1.23c.5-.47.77-.7,1.27-.7.16,0,.24,0,.54.82s.78,2.08,2.36,2.08a3.42,3.42,0,0,0,2.73-1.86c.5-.71.78-1,1.14-1s.37,0,.61.47a2.4,2.4,0,0,0,2.3,1.46h1a6.86,6.86,0,0,0,4.07-1.35l2-1.49A3,3,0,0,0,31,34V44.52H50.32V25.16H41l2.51-2.5,1,1,4.27-4.28h3.47v27.1H7.74V19.35h26.7Zm.39,4.49,1.33,1.33L27.1,33.87a4.91,4.91,0,0,1-1.81.84,4.91,4.91,0,0,1,.84-1.81Zm5.7,11.11v-9.3l.12-.09,6.09-6.09h9.28V42.58ZM39,9.76,44.6,4.19a1.09,1.09,0,0,1,1.54,1.53l-5.58,5.57a1.06,1.06,0,0,1-.77.32,1.09,1.09,0,0,1-1.08-1.08A1.06,1.06,0,0,1,39,9.76Zm-.32,8.06,3.47,3.47L31.65,31.82a1,1,0,0,1-1.37,0l-2.1-2.11a1,1,0,0,1,0-1.36Zm-34.84.57a2.91,2.91,0,0,1,2.9-2.91h29.6l1,1-1,1H7.74a1.93,1.93,0,0,0-1.93,1.93v27.1a1.93,1.93,0,0,0,1.93,1.94H52.26a1.93,1.93,0,0,0,1.93-1.94V19.35a1.93,1.93,0,0,0-1.93-1.93H50.72l1.94-1.94h.57a2.91,2.91,0,0,1,2.9,2.91V50.32H3.87ZM58.06,55.16a2.9,2.9,0,0,1-2.9,2.9H4.84a2.9,2.9,0,0,1-2.9-2.9v-2.9H58.06Z"></path><path class="cls-1" d="M5.81,54.19H7.74v1.94H5.81Z"></path><path class="cls-1" d="M9.68,54.19h1.93v1.94H9.68Z"></path><path class="cls-1" d="M13.55,54.19h1.93v1.94H13.55Z"></path><path class="cls-1" d="M47.37,9.33,48.67,8,50,9.39l-1.3,1.3Z"></path><path class="cls-1" d="M44.63,12.06,46,10.69l1.37,1.37L46,13.43Z"></path><path class="cls-1" d="M41.9,14.8l1.36-1.37,1.37,1.37-1.37,1.37Z"></path><path class="cls-1" d="M9.68,21.29h1.93v1.94H9.68Z"></path><path class="cls-1" d="M13.55,21.29h1.93v1.94H13.55Z"></path><path class="cls-1" d="M17.42,21.29h1.93v1.94H17.42Z"></path><path class="cls-1" d="M9.68,25.16H23.23V27.1H9.68Z"></path><path class="cls-1" d="M9.68,29H23.23V31H9.68Z"></path><path class="cls-1" d="M9.68,42.58h1.93v1.94H9.68Z"></path><path class="cls-1" d="M13.55,42.58h1.93v1.94H13.55Z"></path><path class="cls-1" d="M17.42,42.58h1.93v1.94H17.42Z"></path><path class="cls-1" d="M44.52,29h1.93V31H44.52Z"></path><path class="cls-1" d="M44.52,32.9h1.93v1.94H44.52Z"></path><path class="cls-1" d="M44.52,36.77h1.93v1.94H44.52Z"></path></svg>