<svg xmlns="http://www.w3.org/2000/svg" aria-labelledby="svgTitle" id="Layer_1" data-name="Layer 1" width="60" height="60" viewBox="0 0 60 60"><title id="svgTitle">Information Technology Software</title><defs><style> .cls-1 { fill: #0cb4c4; } </style></defs><path class="cls-1" d="M60,0H29V11.61H2.9A2.91,2.91,0,0,0,0,14.52v31a2.91,2.91,0,0,0,2.9,2.91H15.21l-1.45,5.8H10.64A4.84,4.84,0,0,0,5.81,59v1H42.58V59a4.84,4.84,0,0,0-4.84-4.84H34.63l-1.46-5.8H45.48a2.92,2.92,0,0,0,2.91-2.91V23.23H60ZM38.71,1.94H50.32V5.81H38.71Zm3.87,21.29V38.71H5.81V17.42H29v5.81Zm-2.1,34.83H7.91a2.9,2.9,0,0,1,2.73-1.93h27.1a2.92,2.92,0,0,1,2.74,1.93Zm-7.85-3.87H15.76l1.45-5.8h14Zm13.82-8.71a1,1,0,0,1-1,1H2.9a1,1,0,0,1-1-1v-31a1,1,0,0,1,1-1H29v1.93H3.87V40.65H44.52V23.23h1.93ZM58.06,21.29H31V1.94h5.8v5.8H52.26V1.94h5.8Z"></path><path class="cls-1" d="M7.74,19.35h8.71v1.94H7.74Z"></path><path class="cls-1" d="M18.39,19.35h1.93v1.94H18.39Z"></path><path class="cls-1" d="M7.74,23.23H20.32v1.93H7.74Z"></path><path class="cls-1" d="M7.74,27.1H20.32V29H7.74Z"></path><path class="cls-1" d="M32.9,19.35H44.52V11.61H32.9Zm1.94-5.8h7.74v3.87H34.84Z"></path><path class="cls-1" d="M46.45,15.48h3.87v1.94H46.45Z"></path><path class="cls-1" d="M52.26,15.48h3.87v1.94H52.26Z"></path><path class="cls-1" d="M46.45,11.61h9.68v1.94H46.45Z"></path><path class="cls-1" d="M42.58,42.58h1.94v1.94H42.58Z"></path><path class="cls-1" d="M38.71,42.58h1.94v1.94H38.71Z"></path><path class="cls-1" d="M34.84,42.58h1.93v1.94H34.84Z"></path><path class="cls-1" d="M24.19,31a5.75,5.75,0,0,0,.63,2.61l-1.89,1.26H19.35v1.93h4.17L26,35.14A5.81,5.81,0,0,0,35.81,31a5.71,5.71,0,0,0-.63-2.61l1.89-1.26h3.58V25.16H36.48L34,26.8A5.8,5.8,0,0,0,24.19,31Zm9.68,0a4,4,0,0,1-.29,1.47l-2.61-2V27.23A3.88,3.88,0,0,1,33.87,31ZM29,27.23v4.22L32.4,34a3.82,3.82,0,0,1-2.4.86,3.87,3.87,0,0,1-1-7.61Z"></path></svg>