<svg width="66" height="60" viewBox="0 0 66 60" fill="none" xmlns="http://www.w3.org/2000/svg"><path fill-rule="evenodd" clip-rule="evenodd" d="M54.8498 10.3919L54.3849 8.11117H51.7023L51.2286 10.4358C51.201 10.5706 51.1367 10.6954 51.0426 10.7968C50.9484 10.8982 50.8281 10.9722 50.6946 11.011C50.4209 11.0915 50.1516 11.1859 49.8877 11.2936C49.6252 11.3997 49.3688 11.5197 49.1193 11.6531C48.9974 11.7188 48.8597 11.7503 48.721 11.7444C48.5822 11.7384 48.4478 11.6952 48.3321 11.6193L46.3312 10.3049L44.4395 12.1744L45.7688 14.1517C45.8496 14.2719 45.8938 14.4124 45.8962 14.5567C45.8987 14.7009 45.8593 14.8428 45.7826 14.9656C45.656 15.1996 45.5406 15.4409 45.4363 15.6897C45.3269 15.9503 45.2314 16.2165 45.1504 16.4871C45.1091 16.6269 45.0278 16.7519 44.9162 16.8471C44.8047 16.9422 44.6677 17.0035 44.5217 17.0235L42.2138 17.4829V20.134L44.5661 20.6021C44.7026 20.6293 44.8289 20.6929 44.9314 20.7859C45.034 20.8789 45.109 20.9978 45.1482 21.1298C45.2294 21.4004 45.3248 21.6665 45.4341 21.9272C45.5417 22.1865 45.6631 22.44 45.7979 22.6865C45.8644 22.807 45.8963 22.9431 45.8903 23.0802C45.8842 23.2173 45.8405 23.3502 45.7637 23.4645L44.4344 25.4418L46.3261 27.3113L48.327 25.9969C48.4487 25.9174 48.5909 25.8739 48.7368 25.8715C48.8827 25.8691 49.0262 25.9079 49.1506 25.9832C49.3888 26.1098 49.6333 26.2243 49.8833 26.3262C50.1471 26.434 50.4164 26.5281 50.6902 26.6081C50.8317 26.6491 50.9582 26.7296 51.0544 26.8399C51.1507 26.9502 51.2127 27.0857 51.233 27.23L51.6979 29.5108H54.3805L54.8614 27.1984C54.8892 27.0636 54.9536 26.9389 55.0477 26.8375C55.1417 26.7362 55.262 26.6621 55.3955 26.6232C55.9421 26.4641 56.4704 26.2486 56.9714 25.9804C57.0933 25.9146 57.231 25.8829 57.3697 25.8887C57.5084 25.8946 57.6429 25.9377 57.7587 26.0134L59.7595 27.3278L61.6513 25.4584L60.3183 23.4738C60.2379 23.3535 60.1939 23.213 60.1914 23.0689C60.189 22.9247 60.2282 22.7828 60.3045 22.6599C60.4326 22.4246 60.5484 22.1829 60.6516 21.9359C60.7605 21.675 60.856 21.4089 60.9375 21.1385C60.9788 20.9987 61.0601 20.8736 61.1716 20.7785C61.2831 20.6833 61.4202 20.622 61.5661 20.6021L63.874 20.1426V17.4916L61.5217 17.0235C61.3853 16.9962 61.259 16.9326 61.1564 16.8396C61.0538 16.7466 60.9789 16.6277 60.9397 16.4957C60.8583 16.2252 60.7628 15.9591 60.6537 15.6983C60.546 15.4391 60.4246 15.1857 60.2899 14.939C60.2234 14.8186 60.1913 14.6825 60.1972 14.5454C60.2031 14.4083 60.2468 14.2754 60.3234 14.161L61.6534 12.1837L59.7617 10.3143L57.7609 11.6286C57.6391 11.7081 57.4969 11.7516 57.3511 11.754C57.2052 11.7564 57.0616 11.7177 56.9372 11.6423C56.6991 11.5157 56.4545 11.4013 56.2046 11.2993C55.9404 11.1916 55.6708 11.0973 55.3969 11.0167C55.2556 10.9758 55.1293 10.8954 55.0331 10.7852C54.9369 10.675 54.875 10.5397 54.8549 10.3955L54.8498 10.3919ZM53.0425 12.5346C54.5133 12.5341 55.9387 13.0376 57.076 13.9594C58.2132 14.8811 58.9918 16.1641 59.2791 17.5896C59.5664 19.0151 59.3446 20.4949 58.6516 21.7769C57.9585 23.0589 56.8371 24.0638 55.4783 24.6202C54.1196 25.1767 52.6076 25.2503 51.2001 24.8286C49.7926 24.4068 48.5766 23.5158 47.7594 22.3073C46.9421 21.0989 46.5742 19.6477 46.7183 18.2012C46.8624 16.7547 47.5096 15.4024 48.5496 14.3746C49.1388 13.7903 49.839 13.327 50.6101 13.0112C51.3812 12.6954 52.2078 12.5334 53.0425 12.5346ZM56.4512 15.4467C57.24 16.226 57.731 17.2514 57.8405 18.3484C57.95 19.4453 57.6712 20.5458 57.0516 21.4624C56.4321 22.3789 55.5101 23.0549 54.4428 23.375C53.3755 23.695 52.2289 23.6395 51.1983 23.2178C50.1678 22.7961 49.3172 22.0343 48.7913 21.0623C48.2654 20.0902 48.0969 18.968 48.3144 17.8869C48.5319 16.8059 49.122 15.8327 49.9841 15.1334C50.8463 14.4341 51.9271 14.0518 53.0425 14.0517C53.6757 14.0507 54.3028 14.1734 54.8878 14.4128C55.4728 14.6522 56.0041 15.0035 56.4512 15.4467ZM24.471 11.2404C25.1771 8.45264 26.6867 5.92737 28.8168 3.97104C30.9469 2.0147 33.6057 0.71139 36.4707 0.219285C39.3357 -0.27282 42.2837 0.067432 44.9568 1.19875C47.6299 2.33007 49.9133 4.20381 51.5298 6.59259H54.5508C54.8578 6.591 55.1557 6.69559 55.3929 6.88823C55.6301 7.08087 55.7916 7.34943 55.8495 7.6474L56.2686 9.70165C56.4413 9.76109 56.611 9.82556 56.7779 9.89507C56.9467 9.96697 57.114 10.0389 57.2792 10.1172L59.0487 8.95458C59.2907 8.79503 59.5793 8.71896 59.8695 8.73821C60.1598 8.75745 60.4355 8.87093 60.6537 9.061C60.677 9.07906 60.6991 9.09851 60.7199 9.11924L62.8518 11.226C63.0684 11.4403 63.2034 11.722 63.2338 12.0235C63.2641 12.3249 63.188 12.6274 63.0184 12.8797L61.8462 14.6284C61.9263 14.7916 62.0005 14.9563 62.0703 15.1231C62.1402 15.2899 62.2064 15.4596 62.2668 15.6264L64.3462 16.0406C64.6476 16.0987 64.919 16.2591 65.1135 16.4939C65.308 16.7288 65.4134 17.0234 65.4114 17.3269V20.3073C65.4125 20.6103 65.3065 20.9043 65.1118 21.1384C64.9171 21.3726 64.6458 21.5323 64.3448 21.59L62.2653 22.0042C62.2052 22.1743 62.1399 22.3421 62.0696 22.5075C61.9969 22.675 61.9241 22.8397 61.8448 23.0029L63.0213 24.758C63.1909 25.0103 63.267 25.3129 63.2367 25.6143C63.2063 25.9157 63.0713 26.1975 62.8547 26.4118L62.0325 27.2243C62.0834 27.4673 62.1244 27.7159 62.1555 27.9699C62.2058 28.3995 62.2301 28.8317 62.2282 29.2642C62.2215 31.4396 61.344 33.5241 59.7873 35.0623C58.2307 36.6005 56.1213 37.4675 53.9199 37.474H49.0531V38.2915L53.7912 42.5755C53.8694 42.6463 53.9318 42.7324 53.9745 42.8283C54.0172 42.9242 54.0393 43.0279 54.0393 43.1327V46.9759C55.044 47.1648 55.9413 47.7172 56.5557 48.5252C57.1701 49.3332 57.4575 50.3387 57.3615 51.345C57.2655 52.3512 56.7931 53.2859 56.0368 53.9663C55.2804 54.6466 54.2944 55.0236 53.2717 55.0236C52.2489 55.0236 51.2629 54.6466 50.5066 53.9663C49.7502 53.2859 49.2778 52.3512 49.1818 51.345C49.0859 50.3387 49.3732 49.3332 49.9876 48.5252C50.602 47.7172 51.4993 47.1648 52.5041 46.9759V43.4599L47.8213 39.2255C47.726 39.1549 47.6486 39.0632 47.5953 38.9579C47.542 38.8526 47.5143 38.7364 47.5143 38.6187V37.474H40.3665V42.8408L45.1045 47.1247C45.1828 47.1953 45.2453 47.2813 45.288 47.3771C45.3307 47.473 45.3527 47.5765 45.3526 47.6813H45.3563V51.5266C46.3613 51.7154 47.2588 52.2679 47.8735 53.076C48.4881 53.8841 48.7755 54.8898 48.6796 55.8963C48.5837 56.9028 48.1112 57.8377 47.3547 58.5182C46.5982 59.1987 45.612 59.5758 44.589 59.5758C43.5661 59.5758 42.5799 59.1987 41.8233 58.5182C41.0668 57.8377 40.5944 56.9028 40.4985 55.8963C40.4025 54.8898 40.69 53.8841 41.3046 53.076C41.9192 52.2679 42.8168 51.7154 43.8218 51.5266V48.0106L39.1383 43.7762C39.0431 43.7055 38.9658 43.6139 38.9127 43.5085C38.8595 43.4032 38.8319 43.2871 38.832 43.1694V37.474H31.8472V51.958C32.8512 52.1468 33.7479 52.6989 34.3618 53.5063C34.9757 54.3138 35.2628 55.3185 35.1669 56.324C35.0709 57.3296 34.5989 58.2636 33.8431 58.9434C33.0872 59.6232 32.102 60 31.08 60C30.058 60 29.0727 59.6232 28.3169 58.9434C27.561 58.2636 27.089 57.3296 26.9931 56.324C26.8971 55.3185 27.1842 54.3138 27.7981 53.5063C28.4121 52.6989 29.3087 52.1468 30.3127 51.958V37.474H23.3279V43.1694C23.3279 43.2871 23.3002 43.4033 23.2469 43.5086C23.1936 43.6139 23.1162 43.7056 23.0209 43.7762L18.3367 48.0106V51.5266C19.3413 51.7154 20.2385 52.2677 20.8528 53.0756C21.4672 53.8834 21.7545 54.8887 21.6586 55.8948C21.5626 56.9009 21.0903 57.8355 20.3341 58.5157C19.5779 59.196 18.592 59.5729 17.5695 59.5729C16.5469 59.5729 15.561 59.196 14.8048 58.5157C14.0486 57.8355 13.5763 56.9009 13.4804 55.8948C13.3844 54.8887 13.6717 53.8834 14.2861 53.0756C14.9004 52.2677 15.7976 51.7154 16.8022 51.5266V47.6813H16.8088C16.8087 47.5765 16.8307 47.473 16.8734 47.3771C16.9161 47.2813 16.9786 47.1953 17.0569 47.1247L21.7949 42.8408V37.474H14.6427V38.6208C14.6429 38.7385 14.6153 38.8547 14.5621 38.96C14.5089 39.0653 14.4317 39.157 14.3364 39.2277L9.65297 43.462V46.9759C10.6576 47.1647 11.5548 47.717 12.1691 48.5249C12.7835 49.3327 13.0708 50.338 12.9748 51.3441C12.8789 52.3502 12.4066 53.2848 11.6504 53.965C10.8941 54.6453 9.90833 55.0222 8.88573 55.0222C7.86314 55.0222 6.87732 54.6453 6.12108 53.965C5.36484 53.2848 4.89257 52.3502 4.79663 51.3441C4.7007 50.338 4.988 49.3327 5.60234 48.5249C6.21669 47.717 7.1139 47.1647 8.11849 46.9759V43.1327C8.11849 43.0279 8.14054 42.9242 8.18325 42.8283C8.22596 42.7324 8.2884 42.6463 8.3666 42.5755L13.1046 38.2915V37.474H8.23709C6.0462 37.4537 3.952 36.5794 2.41001 35.0412C0.868007 33.5031 0.00292969 31.4254 0.00292969 29.2602C0.00292969 27.095 0.868007 25.0173 2.41001 23.4792C3.952 21.941 6.0462 21.0667 8.23709 21.0464H8.39134C8.33604 20.8307 8.28754 20.6124 8.24582 20.3914C7.87974 18.3985 8.14829 16.3425 9.01443 14.5067C9.88056 12.671 11.3016 11.1461 13.0817 10.1421C14.8618 9.13812 16.9132 8.70461 18.9531 8.90131C20.993 9.09802 22.9209 9.91526 24.471 11.2404ZM50.2857 7.47195C50.2658 7.52934 50.2498 7.58795 50.2376 7.6474L49.8185 9.70165C49.6459 9.76109 49.4761 9.82556 49.3092 9.89507C49.1404 9.96697 48.9738 10.0389 48.8087 10.1172L47.0392 8.95458C46.784 8.78653 46.4778 8.71108 46.1726 8.74111C45.8675 8.77113 45.5824 8.90476 45.3657 9.11924L43.2339 11.226C43.0169 11.4401 42.8817 11.7219 42.8513 12.0234C42.8209 12.325 42.8972 12.6276 43.0673 12.8797L44.2438 14.6284C44.1638 14.7919 44.0888 14.9568 44.019 15.1231C43.9491 15.2894 43.8839 15.4572 43.8232 15.6264L41.7438 16.0406C41.4415 16.0977 41.1689 16.2576 40.9734 16.4926C40.7779 16.7275 40.6718 17.0227 40.6735 17.3269V20.3073C40.6725 20.6103 40.7785 20.9043 40.9732 21.1384C41.1679 21.3726 41.4391 21.5323 41.7402 21.59L43.8196 22.0042C43.8798 22.1743 43.945 22.3421 44.0153 22.5075C44.0881 22.675 44.1608 22.8397 44.2402 23.0029L43.0658 24.758C42.8958 25.0102 42.8194 25.3128 42.8498 25.6144C42.8802 25.9159 43.0154 26.1977 43.2324 26.4118L45.3643 28.5185C45.5809 28.733 45.8661 28.8666 46.1712 28.8967C46.4763 28.9267 46.7826 28.8512 47.0377 28.6832L48.8072 27.5205C48.9724 27.5996 49.139 27.673 49.3078 27.7427C49.4766 27.8124 49.6483 27.8764 49.8171 27.9361L50.2362 29.9911C50.2946 30.2887 50.4563 30.5569 50.6934 30.7493C50.9305 30.9417 51.2281 31.0464 51.5349 31.0452H54.5493C54.8561 31.0464 55.1537 30.9417 55.3908 30.7493C55.6279 30.5569 55.7896 30.2887 55.848 29.9911L56.2671 27.9361C56.4398 27.8767 56.6096 27.8122 56.7764 27.7427C56.9452 27.6708 57.1126 27.5989 57.2777 27.5205L59.0472 28.6832C59.2923 28.8447 59.5849 28.9206 59.8787 28.8989C60.1724 28.8771 60.4503 28.7589 60.6683 28.5631C60.6843 28.7874 60.6923 29.0218 60.6923 29.2663C60.6865 31.0406 59.9707 32.7407 58.701 33.9953C57.4314 35.2498 55.711 35.9571 53.9156 35.9626H8.24C6.45496 35.9443 4.74931 35.2307 3.49359 33.9768C2.23787 32.723 1.5335 31.0301 1.5335 29.266C1.5335 27.5018 2.23787 25.8089 3.49359 24.5551C4.74931 23.3012 6.45496 22.5876 8.24 22.5693H9.43178C9.56122 22.5693 9.68856 22.537 9.80196 22.4754C9.91537 22.4137 10.0112 22.3247 10.0804 22.2167C10.1497 22.1086 10.1902 21.985 10.1981 21.8574C10.2061 21.7297 10.1812 21.6021 10.1259 21.4865C9.96356 21.0458 9.8399 20.5921 9.75629 20.1304C9.54986 19.0002 9.58378 17.8398 9.85588 16.7233C10.128 15.6067 10.6323 14.5583 11.3368 13.6449C12.0413 12.7314 12.9304 11.9729 13.9477 11.4176C14.965 10.8623 16.0881 10.5224 17.2456 10.4194C18.4031 10.3165 19.5696 10.4528 20.6709 10.8196C21.7722 11.1865 22.7841 11.7759 23.6423 12.5504C24.5005 13.3248 25.1861 14.2674 25.6556 15.318C26.1251 16.3686 26.3681 17.5043 26.3692 18.6528C26.3661 18.7543 26.3836 18.8555 26.4207 18.9502C26.4578 19.0449 26.5138 19.1313 26.5854 19.2042C26.657 19.2771 26.7426 19.3351 26.8373 19.3747C26.9319 19.4143 27.0337 19.4347 27.1365 19.4347C27.2393 19.4347 27.341 19.4143 27.4357 19.3747C27.5303 19.3351 27.616 19.2771 27.6875 19.2042C27.7591 19.1313 27.8151 19.0449 27.8522 18.9502C27.8894 18.8555 27.9069 18.7543 27.9037 18.6528C27.907 16.4408 27.1491 14.2934 25.7544 12.5634C26.2169 9.93508 27.4667 7.50434 29.342 5.58548C31.2174 3.66662 33.6322 2.34788 36.2741 1.79979C38.916 1.2517 41.6635 1.49946 44.1614 2.51105C46.6593 3.52263 48.7927 5.2515 50.2857 7.47411V7.47195ZM12.4047 19.9959C12.3473 19.1419 12.4608 18.2851 12.7386 17.4745C13.0165 16.6638 13.4533 15.9153 14.0241 15.2715C14.5948 14.6278 15.2884 14.1016 16.0651 13.7229C16.8418 13.3442 17.6864 13.1205 18.5506 13.0645C18.7471 13.0441 18.9281 12.9494 19.0557 12.8002C19.1832 12.6511 19.2475 12.459 19.2351 12.264C19.2227 12.0691 19.1346 11.8865 18.9891 11.7543C18.8437 11.6221 18.6521 11.5505 18.4546 11.5546C16.3044 11.694 14.2982 12.6715 12.8771 14.2722C11.4559 15.873 10.7362 17.9659 10.876 20.0908C10.8782 20.1929 10.9012 20.2935 10.9437 20.3866C10.9862 20.4796 11.0473 20.5632 11.1234 20.6324C11.1994 20.7015 11.2888 20.7547 11.3862 20.7888C11.4836 20.8229 11.587 20.8371 11.6901 20.8307C11.7932 20.8243 11.8939 20.7974 11.9862 20.7515C12.0785 20.7056 12.1605 20.6418 12.2272 20.5638C12.2939 20.4858 12.3439 20.3953 12.3743 20.2977C12.4047 20.2001 12.4155 20.0975 12.4047 19.9959ZM42.7683 57.3133C43.1895 57.7294 43.7438 57.9882 44.3365 58.0457C44.9293 58.1032 45.5238 57.9558 46.0189 57.6286C46.514 57.3014 46.879 56.8146 47.0516 56.2513C47.2243 55.688 47.1939 55.0829 46.9657 54.5393C46.7375 53.9956 46.3256 53.5469 45.8002 53.2698C45.2747 52.9926 44.6683 52.904 44.0842 53.0192C43.5001 53.1344 42.9745 53.4462 42.597 53.9014C42.2195 54.3566 42.0133 54.9272 42.0137 55.5157C42.0135 55.8497 42.08 56.1805 42.2095 56.4889C42.339 56.7974 42.5289 57.0776 42.7683 57.3133ZM51.4549 52.7648C51.8762 53.1808 52.4304 53.4397 53.0231 53.4972C53.6159 53.5546 54.2105 53.4072 54.7056 53.08C55.2007 52.7528 55.5656 52.2661 55.7383 51.7028C55.9109 51.1394 55.8805 50.5344 55.6523 49.9907C55.4241 49.447 55.0122 48.9984 54.4868 48.7212C53.9614 48.444 53.3549 48.3555 52.7708 48.4707C52.1868 48.5859 51.6612 48.8976 51.2836 49.3529C50.9061 49.8081 50.7 50.3786 50.7004 50.9672C50.7003 51.3011 50.7668 51.6318 50.8963 51.9403C51.0258 52.2488 51.2156 52.5289 51.4549 52.7648ZM17.5713 58.0589C18.1671 58.0594 18.7446 57.8557 19.2054 57.4825C19.6663 57.1093 19.9819 56.5898 20.0985 56.0124C20.2151 55.435 20.1255 54.8355 19.845 54.3161C19.5644 53.7967 19.1103 53.3895 18.56 53.1639C18.0096 52.9383 17.3972 52.9083 16.827 53.0789C16.2567 53.2496 15.7641 53.6104 15.4329 54.0999C15.1017 54.5893 14.9526 55.1771 15.0108 55.7631C15.069 56.349 15.3311 56.8969 15.7523 57.3133C15.9908 57.5499 16.2743 57.7376 16.5865 57.8655C16.8987 57.9935 17.2333 58.0592 17.5713 58.0589ZM8.88537 53.5133C9.48116 53.5137 10.0587 53.31 10.5195 52.9369C10.9804 52.5637 11.296 52.0441 11.4126 51.4667C11.5292 50.8893 11.4396 50.2898 11.1591 49.7704C10.8785 49.251 10.4244 48.8438 9.87405 48.6182C9.32372 48.3926 8.71127 48.3626 8.14106 48.5333C7.57084 48.7039 7.07817 49.0648 6.747 49.5542C6.41582 50.0436 6.26665 50.6314 6.32489 51.2174C6.38313 51.8034 6.64519 52.3512 7.06641 52.7676C7.30503 53.0041 7.58854 53.1917 7.90068 53.3196C8.21282 53.4476 8.54744 53.5134 8.88537 53.5133ZM31.0767 58.4932C31.6721 58.4934 32.2492 58.2895 32.7095 57.9164C33.1699 57.5432 33.4851 57.0238 33.6014 56.4468C33.7177 55.8697 33.6279 55.2706 33.3473 54.7516C33.0667 54.2326 32.6127 53.8259 32.0627 53.6006C31.5126 53.3753 30.9005 53.3455 30.3307 53.5163C29.7609 53.687 29.2687 54.0477 28.9378 54.5369C28.607 55.0262 28.4581 55.6136 28.5164 56.1992C28.5747 56.7848 28.8367 57.3322 29.2577 57.7483C29.4968 57.9851 29.781 58.1728 30.0937 58.3007C30.4065 58.4285 30.7418 58.4939 31.0803 58.4932H31.0767Z" fill="#0CB4C4"></path></svg>