<svg width="56" height="60" viewBox="0 0 56 60" fill="none" xmlns="http://www.w3.org/2000/svg"><path d="M27.4448 47.3493C27.3894 48.5198 26.5458 49.5035 25.3986 49.7399V50.2069C25.3986 50.636 25.0513 50.9834 24.6193 50.9834C24.1902 50.9834 23.8428 50.636 23.8428 50.2069V49.7399C23.0255 49.5589 22.3366 49.0131 21.9747 48.26C21.8054 47.8659 21.9922 47.4077 22.3862 47.2412C22.7803 47.0719 23.2356 47.2529 23.405 47.6441C23.6531 48.079 24.123 48.3329 24.6192 48.3067C25.3052 48.3067 25.889 47.8776 25.889 47.3726C25.889 46.8676 25.3052 46.4385 24.6192 46.4385C23.154 46.5232 21.8959 45.4111 21.7937 43.9487C21.855 42.7811 22.6957 41.8004 23.8429 41.5668V41.0911C23.8429 40.662 24.1902 40.3117 24.6193 40.3117C25.0513 40.3117 25.3987 40.6619 25.3987 41.0911V41.5581C26.2364 41.7478 26.9312 42.3257 27.2756 43.1139C27.366 43.3094 27.3748 43.5313 27.2989 43.7327C27.2201 43.9312 27.0625 44.0917 26.864 44.1734C26.6655 44.2522 26.4437 44.2464 26.2481 44.1588C26.0525 44.0684 25.9037 43.902 25.8336 43.6976C25.5972 43.2569 25.1214 42.9913 24.6193 43.0204C23.9334 43.0204 23.3496 43.4495 23.3496 43.9545C23.3496 44.4595 23.9334 44.8886 24.6193 44.8886C26.0729 44.8039 27.331 45.8986 27.4448 47.3493ZM32.7077 35.285C35.1742 38.6009 37.9706 42.3605 37.9706 46.3159V46.3129C38.0552 49.912 36.6862 53.3943 34.1731 55.9719C31.6569 58.5493 28.2096 60 24.6075 60C21.0085 60 17.5612 58.5493 15.045 55.9719C12.5288 53.3945 11.1599 49.9121 11.2475 46.3129C11.2475 42.3577 14.0409 38.5983 16.5015 35.282C17.0707 34.5027 17.6136 33.7875 18.1127 33.0724L18.1682 32.9878C18.3608 32.7163 18.4484 32.3836 18.4075 32.0537L14.68 21.794C14.5662 21.0555 14.9136 20.3199 15.5587 19.9375C16.2037 19.5581 17.0152 19.6077 17.6078 20.066L19.9896 21.8874C20.0889 21.972 20.2377 21.972 20.3399 21.8874L23.3756 19.1699V19.1728C24.0732 18.5335 25.1445 18.5335 25.8421 19.1728L28.8224 21.9137V21.9108C28.9245 21.9896 29.0646 21.9896 29.1668 21.9108L32.3339 19.8558C32.9585 19.4413 33.7729 19.4501 34.3888 19.8763C35.0047 20.3053 35.2996 21.0642 35.1273 21.794L35.0894 21.9108L30.8773 32.0308C30.8073 32.3985 30.889 32.7809 31.105 33.0904C31.5954 33.7909 32.1473 34.529 32.7077 35.285ZM19.9432 31.7501V31.8756H29.3361C29.3361 31.7822 29.3361 31.6976 29.3741 31.61V31.4845L33.5861 21.3645V21.3674C33.5919 21.2682 33.5452 21.1777 33.4635 21.1251C33.373 21.058 33.2504 21.058 33.1599 21.1251L29.9987 23.2268C29.2981 23.685 28.3728 23.6091 27.7569 23.04L24.7825 20.299C24.6803 20.2056 24.5227 20.2056 24.4176 20.299L21.3819 23.0166C20.7252 23.6033 19.7473 23.6412 19.0468 23.11L16.6649 21.2885C16.5832 21.2243 16.4752 21.2097 16.3818 21.2535C16.2855 21.2944 16.2242 21.3878 16.2213 21.49L19.9432 31.7501ZM36.4118 46.3125C36.4118 42.871 33.7819 39.307 31.4613 36.1925C30.8863 35.4131 30.3259 34.6367 29.8179 33.9362H29.8209C29.7099 33.7902 29.6136 33.6355 29.5319 33.4691H19.7011C19.631 33.6238 19.5464 33.7727 19.453 33.9128L19.3917 33.9916C18.8925 34.7155 18.3321 35.4716 17.7571 36.248C15.4219 39.3625 12.8065 42.9031 12.8065 46.368H12.8036C12.7219 49.5525 13.9303 52.632 16.1517 54.912C18.3759 57.1946 21.4233 58.4789 24.6075 58.4789C27.7921 58.4789 30.8424 57.1945 33.0634 54.912C35.2877 52.6323 36.4931 49.5528 36.4115 46.368L36.4118 46.3125ZM12.0971 36.3412C11.4286 38.1977 9.73271 39.4878 7.76535 39.6367C5.80091 39.7856 3.92987 38.7668 2.98998 37.0359C0.371692 32.1584 -0.562369 26.5542 0.327904 21.0896C1.21818 15.6283 3.88608 10.6109 7.91697 6.81865C12.4179 2.5541 18.3493 0.122624 24.5492 0H24.6281H26.6976C32.6405 0.399898 38.2418 2.91016 42.5004 7.07555C42.5734 7.11058 42.6434 7.15729 42.7018 7.21566C42.7456 7.25653 42.7777 7.30615 42.804 7.36161C47.2671 11.7634 49.9174 17.6744 50.2356 23.9356V25.0798V25.1265V25.1732C50.2327 29.5954 49.0622 33.9384 46.8437 37.7658C45.9418 39.3392 44.2634 40.3024 42.4536 40.2878H41.9545C40.0368 40.101 38.408 38.8108 37.7834 36.9894V36.9427C37.3076 35.527 37.4681 33.977 38.227 32.6927C40.0339 29.5607 40.6614 25.8886 39.9959 22.3336C39.3275 18.7812 37.4098 15.585 34.59 13.3255C31.7704 11.0633 28.2326 9.88694 24.6187 10.0096H24.2451C19.0932 10.2985 14.4434 13.197 11.9095 17.692C9.37881 22.1901 9.31455 27.6693 11.7373 32.2253C12.4233 33.4863 12.5546 34.9808 12.0963 36.341L12.0971 36.3412ZM48.6802 25.9029H41.7827C41.6601 28.5649 40.9041 31.1599 39.5731 33.4688C39.0418 34.3503 38.9163 35.4186 39.2315 36.3965C39.6519 37.6691 40.7902 38.5682 42.1271 38.6849C43.4903 38.8105 44.8038 38.1333 45.4898 36.9482C47.4484 33.5885 48.5459 29.7937 48.6802 25.9029ZM42.1184 8.92014L37.2146 13.6605C39.9759 16.5532 41.5959 20.3507 41.7682 24.3469H48.6802V24.0054C48.3854 18.3485 46.056 12.9926 42.1184 8.92014ZM25.3838 1.55562V8.45311C29.3331 8.49981 33.1365 9.96509 36.0933 12.5863L41.0117 7.82258C37.0741 4.15344 31.9895 1.95548 26.6212 1.59358C26.2096 1.56731 25.7982 1.55562 25.3838 1.55562ZM1.55623 24.3467H8.44497C8.44497 24.1045 8.44497 23.8651 8.48292 23.6228C8.85071 19.6969 10.5875 16.0278 13.3955 13.2577C16.2035 10.4906 19.896 8.80346 23.8248 8.49111V1.59362C17.9403 1.91179 12.3852 4.42502 8.26413 8.63704C4.13968 12.8491 1.74596 18.4569 1.55623 24.3467ZM10.3596 32.955C9.20366 30.7775 8.5469 28.3665 8.43601 25.9029H1.56483C1.66699 29.5341 2.60686 33.0893 4.31156 36.2941C4.95081 37.5084 6.25269 38.2264 7.62165 38.1185C8.99061 38.0134 10.164 37.1026 10.6077 35.8037C10.9259 34.8609 10.8354 33.8307 10.3596 32.955ZM33.2672 45.6351C33.2672 49.1349 31.1598 52.2873 27.9285 53.624C24.6973 54.9638 20.9785 54.2253 18.5035 51.75C16.0311 49.2776 15.2926 45.5589 16.6295 42.3279C17.9693 39.0938 21.1218 36.9892 24.6184 36.9892C29.3908 36.998 33.2583 40.8629 33.2672 45.6351ZM31.7115 45.6351C31.7086 42.7687 29.9776 40.1854 27.3272 39.0908C24.6768 37.9963 21.6294 38.6034 19.6036 40.6321C17.575 42.6607 16.9708 45.711 18.0683 48.3586C19.1658 51.009 21.752 52.7341 24.6184 52.7341C28.5356 52.7312 31.7115 49.5523 31.7115 45.6351ZM55.3432 47.3953V56.9137C55.3432 58.7264 52.5556 59.6779 49.8001 59.6779C48.8077 59.6838 47.8211 59.5524 46.8666 59.281C45.9033 59.5524 44.908 59.6838 43.9068 59.6779C41.1513 59.6779 38.3637 58.7293 38.3637 56.9137L38.3666 47.3953C38.3666 45.5826 41.1542 44.631 43.9097 44.631H43.9068C44.908 44.6252 45.9034 44.7565 46.8666 45.0222C47.821 44.7565 48.8077 44.6252 49.8001 44.631C52.5702 44.631 55.3432 45.5826 55.3432 47.3953ZM53.7875 52.5326H53.7845C52.5294 53.0784 51.1692 53.344 49.8002 53.312H49.4587V54.932H49.8002C52.4156 54.932 53.7845 54.0359 53.7845 53.7265L53.7875 52.5326ZM47.9 49.3655C45.3459 50.4134 42.4795 50.4134 39.9223 49.3655V50.5944C39.9223 50.9067 41.2913 51.7999 43.9067 51.7999C46.522 51.7999 47.8998 50.8746 47.8998 50.5944L47.9 49.3655ZM39.9223 53.7089C39.9223 54.0212 41.2913 54.9145 43.9067 54.9145C46.522 54.9145 47.8998 54.0505 47.8998 53.7089V52.5326C45.3457 53.5922 42.4764 53.5922 39.9222 52.5326L39.9223 53.7089ZM53.7845 49.3334C52.5294 49.8792 51.1692 50.1448 49.8002 50.1128H49.4587V51.7328H49.8002C52.4156 51.7328 53.7845 50.8367 53.7845 50.5273V49.3334ZM49.8002 46.1576H49.0208C49.3215 46.4991 49.4762 46.9428 49.4587 47.3952V48.5773H49.8002C52.4156 48.5773 53.7845 47.6812 53.7845 47.3776C53.7845 47.077 52.4156 46.1896 49.8002 46.1896L49.8002 46.1576ZM39.9223 47.3952C39.9223 47.6988 41.2913 48.5949 43.9067 48.5949C46.522 48.5949 47.8998 47.6988 47.8998 47.3952C47.8998 47.0916 46.5308 46.1896 43.9067 46.1896C41.2855 46.1896 39.9223 47.0828 39.9223 47.3952ZM43.9067 58.1219C46.5308 58.1219 47.8998 57.2258 47.8998 56.9164V55.708C45.3457 56.7676 42.4764 56.7676 39.9222 55.708V56.9135C39.9222 57.2258 41.2913 58.1219 43.9067 58.1219ZM53.7845 56.9164V55.708C52.5294 56.2538 51.1692 56.5194 49.8002 56.4873H49.4587V56.9164V56.9135C49.4558 57.3484 49.2923 57.7687 48.9975 58.0898H49.7769C52.4156 58.1219 53.7846 57.2259 53.7846 56.9135L53.7845 56.9164Z" fill="#0CB4C4"></path></svg>