<svg width="62" height="60" viewBox="0 0 62 60" fill="none" xmlns="http://www.w3.org/2000/svg"><path d="M31.0438 11.3947C25.9621 11.3947 21.8341 15.5478 21.8341 20.6602C21.8341 25.7726 25.9683 29.9257 31.0438 29.9257C36.1193 29.9257 40.2535 25.7665 40.2535 20.6602C40.2535 15.5478 36.1193 11.3947 31.0438 11.3947ZM31.0438 28.0132C27.0141 28.0132 23.7351 24.7143 23.7351 20.6602C23.7351 16.6061 27.0141 13.3072 31.0438 13.3072C35.0734 13.3072 38.3525 16.6061 38.3525 20.6602C38.3525 24.7143 35.0734 28.0132 31.0438 28.0132ZM58.6852 35.032V20.6602C58.6852 20.1341 58.2607 19.7008 57.7316 19.7008H51.5795V18.4444C51.5795 16.3895 49.9184 14.7184 47.8759 14.7184H45.9749C45.9134 14.5575 45.8457 14.4027 45.7781 14.2418L47.1192 12.8863C48.565 11.4318 48.565 9.06746 47.1192 7.61296L44.0063 4.48112C43.3111 3.78172 42.3759 3.39179 41.3855 3.39179C40.395 3.39179 39.466 3.78172 38.7708 4.48112L37.4235 5.8366C37.2635 5.76852 37.1036 5.70043 36.9498 5.63854V3.72602C36.9498 1.67114 35.2887 0 33.2462 0H28.8413C26.7988 0 25.1377 1.67114 25.1377 3.72602V5.63854C24.9778 5.70043 24.824 5.76852 24.664 5.8366L23.3167 4.48112C21.871 3.02661 19.5209 3.02661 18.0751 4.48112L14.956 7.61296C14.2608 8.31236 13.8732 9.25315 13.8732 10.2496C13.8732 11.2461 14.2608 12.1807 14.956 12.8863L16.3033 14.2418C16.2356 14.3965 16.168 14.5575 16.1064 14.7184H14.2054C12.1629 14.7184 10.5019 16.3895 10.5019 18.4444V19.7008H4.34976C3.82683 19.7008 3.39618 20.1279 3.39618 20.6602V35.032C1.78433 35.4529 0.59082 36.9321 0.59082 38.6899C0.59082 40.7757 2.2765 42.4716 4.34976 42.4716C6.42302 42.4716 8.1087 40.7757 8.1087 38.6899C8.1087 36.9321 6.91519 35.4529 5.29718 35.032V21.6134H10.5019V22.8698C10.5019 24.9247 12.1629 26.5958 14.2054 26.5958H16.1064C16.168 26.7568 16.2356 26.9177 16.3033 27.0724L14.956 28.4217C14.2608 29.1211 13.8732 30.0619 13.8732 31.0584C13.8732 32.0549 14.2608 32.9895 14.956 33.6951L15.8419 34.5863L11.4308 39.0241C11.2524 39.2036 11.154 39.445 11.154 39.6988V45.653C9.54214 46.08 8.34248 47.5593 8.34248 49.3109C8.34248 51.3967 10.0282 53.0926 12.1014 53.0926C14.1747 53.0926 15.8604 51.3967 15.8604 49.3109C15.8604 47.5531 14.6668 46.0739 13.0488 45.653V40.1011L17.1769 35.948L18.0628 36.8393C18.758 37.5387 19.6931 37.9286 20.6836 37.9286C21.6741 37.9286 22.6031 37.5387 23.3044 36.8393L24.6456 35.4838C24.8055 35.5519 24.9593 35.62 25.1193 35.6819V37.5944C25.1193 39.6493 26.7804 41.3204 28.8229 41.3204H30.0717V52.5603C28.4599 52.9874 27.2602 54.4667 27.2602 56.2183C27.2602 58.3041 28.9459 60 31.0192 60C33.0924 60 34.7781 58.3041 34.7781 56.2183C34.7781 54.4605 33.5846 52.9812 31.9666 52.5603V41.3204H33.2155C35.258 41.3204 36.919 39.6493 36.919 37.5944V35.6819C37.079 35.62 37.2389 35.5519 37.3927 35.4838L38.7401 36.8393C40.1858 38.2938 42.5297 38.2938 43.9755 36.8393L44.8614 35.948L48.9895 40.1011V45.653C47.3776 46.08 46.178 47.5593 46.178 49.3109C46.178 51.3967 47.8636 53.0926 49.9369 53.0926C52.0102 53.0926 53.6958 51.3967 53.6958 49.3109C53.6958 47.5531 52.5023 46.0739 50.8843 45.653V39.6988C50.8843 39.445 50.7859 39.2036 50.6075 39.0241L46.1964 34.5863L47.0823 33.6951C48.5281 32.2406 48.5281 29.8762 47.0823 28.4217L45.735 27.0662C45.8027 26.9053 45.8703 26.7506 45.9319 26.5896H47.8329C49.8754 26.5896 51.5364 24.9185 51.5364 22.8636V21.6072H56.7411V35.0196C55.1293 35.4467 53.9296 36.9259 53.9296 38.6775C53.9296 40.7634 55.6153 42.4593 57.6885 42.4593C59.7618 42.4593 61.4475 40.7634 61.4475 38.6775C61.4967 36.9321 60.3032 35.4529 58.6852 35.032ZM6.2077 38.6899C6.2077 39.7235 5.37716 40.5591 4.34976 40.5591C3.32236 40.5591 2.49182 39.7235 2.49182 38.6899C2.49182 37.6563 3.32236 36.8207 4.34976 36.8207C5.37716 36.8207 6.2077 37.6563 6.2077 38.6899ZM13.9655 49.3171C13.9655 50.3507 13.135 51.1863 12.1076 51.1863C11.0802 51.1863 10.2496 50.3507 10.2496 49.3171C10.2496 48.2835 11.0802 47.4479 12.1076 47.4479C13.135 47.4479 13.9655 48.2897 13.9655 49.3171ZM32.9017 56.2245C32.9017 57.2581 32.0712 58.0937 31.0438 58.0937C30.0164 58.0937 29.1858 57.2581 29.1858 56.2245C29.1858 55.1908 30.0164 54.3553 31.0438 54.3553C32.0712 54.3553 32.9017 55.1908 32.9017 56.2245ZM51.8317 49.3171C51.8317 50.3507 51.0012 51.1863 49.9738 51.1863C48.9464 51.1863 48.1159 50.3507 48.1159 49.3171C48.1159 48.2835 48.9464 47.4479 49.9738 47.4479C51.0012 47.4479 51.8317 48.2897 51.8317 49.3171ZM49.6785 22.876C49.6785 23.8787 48.8664 24.6895 47.8759 24.6895H45.3167C44.9106 24.6895 44.5476 24.9495 44.4184 25.3332C44.2462 25.8345 44.0432 26.3359 43.7848 26.8682C43.6125 27.2333 43.6863 27.6728 43.9693 27.9575L45.7781 29.7834C46.1164 30.1238 46.301 30.5818 46.301 31.0646C46.301 31.5473 46.1164 32.0054 45.7781 32.3458L44.2216 33.9117L42.6651 35.4776C41.9638 36.1832 40.8195 36.1832 40.1181 35.4776L38.3033 33.6517C38.0141 33.3608 37.5773 33.2866 37.2143 33.4661C36.7222 33.7074 36.2115 33.9179 35.6886 34.0974C35.3072 34.2274 35.0488 34.5925 35.0488 35.001V37.582C35.0488 38.5785 34.2429 39.3955 33.2462 39.3955H28.8413C27.8447 39.3955 27.0387 38.5847 27.0387 37.582V35.0134C27.0387 34.6049 26.7804 34.2397 26.3989 34.1098C25.8883 33.9365 25.3777 33.7198 24.8732 33.4723C24.744 33.4104 24.6025 33.3794 24.461 33.3794C24.2149 33.3794 23.9688 33.4784 23.7904 33.6579L21.9817 35.4838C21.2804 36.1894 20.1361 36.1894 19.4347 35.4838L17.8782 33.9179L16.3218 32.352C15.6204 31.6464 15.6204 30.4952 16.3218 29.7896L18.1366 27.9699C18.4258 27.679 18.4996 27.2457 18.3212 26.8744C18.0813 26.373 17.8659 25.8531 17.6875 25.3332C17.5522 24.9495 17.1954 24.6895 16.7893 24.6895H14.2239C13.2334 24.6895 12.4213 23.8725 12.4213 22.876V18.4444C12.4213 17.4417 13.2273 16.6309 14.2239 16.6309H16.7893C17.1954 16.6309 17.5522 16.3771 17.6875 15.9934C17.8721 15.4611 18.0874 14.9412 18.3212 14.4584C18.4996 14.0933 18.4258 13.6538 18.1366 13.3629L16.3218 11.537C15.6204 10.8314 15.6204 9.68021 16.3218 8.97462L19.4409 5.84279C19.7792 5.50237 20.2345 5.31669 20.7144 5.31669C21.1942 5.31669 21.6495 5.50237 21.9879 5.84279L23.7966 7.66247C24.0796 7.94718 24.5164 8.02146 24.8793 7.84815C25.4146 7.5882 25.9191 7.38395 26.4112 7.21065C26.7927 7.08067 27.051 6.71549 27.051 6.30699V3.72602C27.051 2.72333 27.8631 1.91252 28.8536 1.91252H33.2585C34.249 1.91252 35.0611 2.72952 35.0611 3.72602V6.30699C35.0611 6.71549 35.3195 7.08067 35.7009 7.21065C36.1992 7.38395 36.7099 7.59439 37.2328 7.84815C37.5958 8.02146 38.0326 7.94718 38.3156 7.66247L40.1304 5.84279C40.4688 5.50237 40.924 5.31669 41.4039 5.31669C41.8838 5.31669 42.339 5.50237 42.6774 5.84898L45.7904 8.98081C46.1287 9.32123 46.3133 9.77924 46.3133 10.262C46.3133 10.751 46.1287 11.2028 45.7842 11.5432L43.9755 13.3691C43.6925 13.6538 43.6187 14.0933 43.7909 14.4584C44.037 14.9783 44.2523 15.4921 44.4246 15.9934C44.5599 16.3771 44.9168 16.6371 45.3228 16.6371H47.8882C48.8849 16.6371 49.6908 17.4541 49.6908 18.4506V22.876H49.6785ZM57.7378 40.5591C56.7104 40.5591 55.8798 39.7235 55.8798 38.6899C55.8798 37.6563 56.7104 36.8207 57.7378 36.8207C58.7652 36.8207 59.5957 37.6563 59.5957 38.6899C59.5957 39.7235 58.759 40.5591 57.7378 40.5591Z" fill="#0CB4C4"></path></svg>