<svg xmlns="http://www.w3.org/2000/svg" xmlns:xlink="http://www.w3.org/1999/xlink" version="1.1" id="Layer_1" x="0px" y="0px" width="65.391px" height="60px" viewBox="0 0 65.391 60" enable-background="new 0 0 65.391 60" xml:space="preserve"><g><path fill="#0CB4C4" d="M52.181,39.824c-2.427,0-4.403,1.975-4.403,4.401c0,1.203,0.486,2.334,1.334,3.154l-0.935,4.953 c-0.068,0.35,0.025,0.71,0.253,0.984c0.227,0.274,0.564,0.434,0.922,0.434h5.656c0.356,0,0.694-0.159,0.922-0.434 c0.227-0.274,0.321-0.635,0.254-0.984l-0.935-4.953c0.846-0.82,1.333-1.951,1.333-3.154C56.582,41.799,54.606,39.824,52.181,39.824 z M53.281,45.903c-0.401,0.267-0.605,0.747-0.516,1.221l0.798,4.233h-2.77l0.8-4.233c0.088-0.474-0.115-0.954-0.518-1.221 c-0.568-0.373-0.907-1.001-0.907-1.678c0-1.106,0.902-2.009,2.011-2.009s2.01,0.9,2.01,2.009 C54.189,44.902,53.849,45.53,53.281,45.903z"></path><path fill="#0CB4C4" d="M62.987,30.645c0-0.133-0.027-0.26-0.067-0.38c-0.588-5.345-5.18-9.521-10.739-9.521 c-5.563,0-10.152,4.177-10.741,9.521c-0.041,0.12-0.068,0.247-0.068,0.38v3.024c-1.374,0.324-2.403,1.555-2.403,3.028v20.186 c0,1.718,1.398,3.117,3.119,3.117h20.186c1.72,0,3.118-1.399,3.118-3.117V36.695c0-1.474-1.028-2.703-2.403-3.028V30.645z M52.181,23.137c4.64,0,8.415,3.721,8.415,8.292v2.146H43.765v-2.146C43.765,26.857,47.54,23.137,52.181,23.137z M62.997,56.879 c0,0.401-0.324,0.728-0.725,0.728H42.087c-0.401,0-0.726-0.326-0.726-0.728V36.695c0-0.4,0.324-0.726,0.726-0.726h20.186 c0.4,0,0.725,0.325,0.725,0.726V56.879z"></path><path fill="#0CB4C4" d="M8.064,37.414c0.779,0.448,1.606,0.836,2.47,1.152c3.025,8.655,11.128,14.428,20.352,14.428 c1.2,0,2.414-0.101,3.608-0.305c0.65-0.112,1.089-0.73,0.977-1.381c-0.11-0.65-0.729-1.089-1.379-0.979 c-1.062,0.182-2.14,0.272-3.206,0.272c-8.38,0-15.719-5.361-18.265-13.338c-0.116-0.366-0.402-0.655-0.769-0.775 c-0.912-0.295-1.783-0.682-2.589-1.146c-4.236-2.457-6.868-7.01-6.868-11.886c0-4.878,2.632-9.436,6.87-11.893 c1.837-1.067,3.93-1.698,6.049-1.828c0.328-0.02,0.633-0.176,0.846-0.429c1.449-1.741,3.176-3.196,5.131-4.327 c2.922-1.694,6.24-2.59,9.595-2.59c6.065,0,11.847,2.939,15.464,7.861c0.305,0.415,0.845,0.587,1.333,0.43 c2.771-0.898,5.933-0.564,8.458,0.893c3.226,1.873,5.228,5.339,5.228,9.048c0,0.662,0.535,1.197,1.197,1.197 c0.661,0,1.196-0.535,1.196-1.197c0-4.56-2.46-8.819-6.423-11.118c-2.854-1.65-6.372-2.129-9.569-1.334 C43.682,3.04,37.432,0,30.886,0c-3.774,0-7.51,1.007-10.794,2.91c-2.051,1.188-3.878,2.694-5.439,4.479 c-2.311,0.218-4.578,0.941-6.588,2.108C3.09,12.38,0,17.73,0,23.458C0,29.185,3.09,34.532,8.064,37.414z"></path></g></svg>