<svg width="71" height="60" viewBox="0 0 71 60" fill="none" xmlns="http://www.w3.org/2000/svg"><path fill-rule="evenodd" clip-rule="evenodd" d="M10.6935 38.1988C4.81209 38.1988 0 33.39 0 27.5053C0 22.7675 3.15853 18.6102 7.6299 17.2653C5.70995 7.93482 14.0151 0 23.0255 0C30.1099 0 36.0947 5.16442 37.2006 12.0771C42.4569 3.44593 58.6757 6.56601 59.4585 16.8148H60.2851C66.4391 16.8148 70.9786 21.5141 70.9786 27.5084C70.9786 33.3898 66.1698 38.2019 60.2851 38.2019H59.168L63.8643 42.8004C64.0213 42.9337 64.1221 43.1323 64.1221 43.3545V53.4579C66.6465 54.0209 67.5887 57.1764 65.7369 59.0283C63.6569 61.1083 60.0865 59.6268 60.0865 56.6876C60.0865 55.1232 61.1799 53.7898 62.6732 53.458V43.6534L57.1028 38.1986H49.0285L53.7247 42.7971C53.8818 42.9305 53.9825 43.129 53.9825 43.3512V53.4546C56.5069 54.0176 57.4491 57.1731 55.5973 59.025C53.5173 61.105 49.947 59.6235 49.947 56.6843C49.947 55.1199 51.0403 53.7865 52.5337 53.4547V43.6532L46.9633 38.1984H36.2136V45.4517C38.738 46.0146 39.6802 49.1702 37.8284 51.0221C35.7484 53.1021 32.1781 51.6206 32.1781 48.6814C32.1781 47.1169 33.2714 45.7836 34.7648 45.4518V38.1985H24.0181L18.4477 43.6532V53.4548C20.9722 54.0177 21.9144 57.1732 20.0625 59.0252C17.9826 61.1052 14.4122 59.6237 14.4122 56.6845C14.4122 55.12 15.5055 53.7867 16.9989 53.4549V43.3545C16.9989 43.1322 17.0996 42.9337 17.2567 42.8004L21.953 38.2019L13.8786 38.1989L8.30818 43.6537V53.4552C10.8326 54.0182 11.7748 57.1737 9.92298 59.0256C7.84298 61.1056 4.27265 59.6241 4.27265 56.6849C4.27265 55.1205 5.36598 53.7872 6.85934 53.4553V43.3549C6.85934 43.1327 6.96008 42.9342 7.11711 42.8009L11.8134 38.2024L10.6935 38.1988ZM15.8639 56.6876C15.8639 58.3409 17.8727 59.1735 19.0402 58.0032C20.2106 56.8328 19.3779 54.8269 17.7246 54.8269C16.6964 54.8269 15.8639 55.6595 15.8639 56.6876ZM5.72178 56.6876C5.72178 58.3409 7.73063 59.1735 8.89806 58.0032C10.0684 56.8328 9.23584 54.8269 7.58249 54.8269C6.55433 54.8269 5.72178 55.6595 5.72178 56.6876ZM54.5717 58.0032C55.742 56.8328 54.9094 54.8269 53.2561 54.8269C51.6027 54.8269 50.7702 56.8358 51.9405 58.0032C52.6664 58.7291 53.8457 58.7291 54.5717 58.0032ZM64.7138 58.0032C65.8841 56.8328 65.0515 54.8269 63.3982 54.8269C61.7449 54.8269 60.9123 56.8358 62.0826 58.0032C62.8085 58.7291 63.9878 58.7291 64.7138 58.0032ZM36.8057 50.0001C37.9761 48.8297 37.1435 46.8238 35.4902 46.8238C33.8368 46.8238 33.0043 48.8327 34.1746 50.0001C34.9005 50.726 36.0797 50.726 36.8057 50.0001ZM35.4902 24.96C33.8694 24.96 32.5539 26.2756 32.5539 27.8963C32.5539 30.5037 35.7213 31.8192 37.5701 29.9733C39.4131 28.1304 38.0976 24.96 35.4902 24.96ZM36.542 26.8444C35.6057 25.9081 33.9997 26.5748 33.9997 27.8963C33.9997 29.2207 35.6057 29.8844 36.542 28.9481C37.1257 28.3703 37.1257 27.4281 36.542 26.8444ZM39.8101 23.606C42.1716 25.9822 42.1716 29.8163 39.8101 32.1893C42.8798 31.6056 46.1034 30.2753 47.9406 27.896C46.1036 25.5227 42.8799 24.1896 39.8101 23.606ZM31.1699 32.1893C28.8084 29.813 28.8084 25.979 31.1699 23.606C28.1002 24.1897 24.8766 25.52 23.0394 27.8993C24.8764 30.2756 28.1001 31.6056 31.1699 32.1893ZM38.7702 24.616C36.9569 22.8027 34.0206 22.8027 32.2073 24.616C30.394 26.4293 30.394 29.3656 32.2073 31.1789C34.0206 32.9922 36.9569 32.9922 38.7702 31.1789C40.5835 29.3686 40.5835 26.4293 38.7702 24.616ZM30.4857 19.4842L28.8679 17.8664C28.1953 17.1938 27.1702 18.2161 27.8427 18.8916L29.4605 20.5094C30.136 21.185 31.1612 20.1598 30.4857 19.4842ZM41.5168 20.5094L43.1345 18.8916C43.8071 18.2191 42.7849 17.1939 42.1093 17.8664L40.4916 19.4842C39.819 20.1597 40.8442 21.1849 41.5168 20.5094ZM36.2131 19.9968V17.7094C36.2131 16.7554 34.7642 16.7554 34.7642 17.7094V19.9968C34.7642 20.9509 36.2131 20.9509 36.2131 19.9968ZM21.5616 27.4812C21.3927 27.7183 21.3809 28.0442 21.5527 28.299C24.3171 32.4234 30.3909 34.0382 35.4904 34.0382C40.6785 34.0382 46.5632 32.4471 49.419 28.3167C49.5879 28.0797 49.5998 27.7538 49.4279 27.499C44.305 19.8607 26.7256 19.8365 21.5616 27.4812ZM23.0283 4.71062C17.698 4.71062 13.3807 9.02763 13.3807 14.3582C13.3807 15.3122 14.8296 15.3122 14.8296 14.3582C14.8296 9.82779 18.4977 6.15938 23.0284 6.15938C23.9825 6.15938 23.9823 4.71062 23.0283 4.71062ZM4.16629 34.0348C5.84329 35.7118 8.15441 36.7518 10.6937 36.7518H60.2846C65.3661 36.7518 69.5294 32.5888 69.5294 27.507C69.5294 22.307 65.6302 18.2622 60.2846 18.2622C59.5646 18.2622 58.975 18.363 58.4625 17.8919C58.2106 17.6608 58.0447 17.3408 58.021 16.9734C57.4017 8.05174 42.8006 5.3264 38.3497 12.9675C37.7185 14.052 35.9852 13.7408 35.7926 12.4372C34.8593 6.16166 29.4578 1.44476 23.0253 1.44476C14.8713 1.44476 7.29522 8.6062 9.05498 17.0148C9.20312 17.7229 8.78238 18.4281 8.08613 18.6326C4.19578 19.7822 1.44616 23.3792 1.44616 27.5004C1.44912 30.0455 2.49208 32.3566 4.16612 34.0337L4.16629 34.0348Z" fill="#0CB4C4"></path></svg>