<svg xmlns="http://www.w3.org/2000/svg" xmlns:xlink="http://www.w3.org/1999/xlink" version="1.1" id="Layer_1" x="0px" y="0px" width="60px" height="60px" viewBox="0 0 60 60" enable-background="new 0 0 60 60" xml:space="preserve"><g><path fill="#0CB4C4" d="M30.165,25.657H7.187C3.022,25.657,0,22.747,0,18.734c0-3.277,2.134-6.055,5.14-6.927 c-0.273-0.987-0.38-2.01-0.318-3.053C5.103,3.966,9.192,0.039,13.938,0c3.759-0.001,7.085,2.278,8.523,5.616 c1.364-1.001,3.046-1.483,4.807-1.31c2.658,0.26,4.975,2.109,5.9,4.711c0.388,1.084,0.502,2.201,0.341,3.326 c2.331,1.229,3.842,3.693,3.842,6.391C37.352,22.747,34.329,25.657,30.165,25.657z M14.014,2.122 c-3.709,0.03-6.857,3.062-7.075,6.757c-0.067,1.148,0.128,2.264,0.581,3.315l0.577,1.335L6.649,13.67 c-2.581,0.251-4.527,2.429-4.527,5.064c0,2.871,2.036,4.801,5.065,4.801h22.978c3.029,0,5.065-1.93,5.065-4.801 c0-2.126-1.326-4.046-3.299-4.777l-0.91-0.336l0.254-0.937c0.276-1.017,0.241-1.984-0.106-2.955 c-0.651-1.832-2.264-3.13-4.109-3.312c-1.669-0.162-3.23,0.51-4.267,1.792L21.4,9.932l-0.468-2.166 C20.225,4.496,17.315,2.122,14.014,2.122z"></path><g><path fill="#0CB4C4" d="M60,54.969H32.715V36.489H60V54.969z M34.836,52.847h23.043V38.611H34.836V52.847z"></path><rect x="45.297" y="53.908" fill="#0CB4C4" width="2.121" height="5.031"></rect><rect x="40.066" y="57.879" fill="#0CB4C4" width="12.582" height="2.121"></rect></g><g><rect x="38.719" y="23.905" transform="matrix(0.7072 0.7071 -0.7071 0.7072 31.5967 -26.3559)" fill="#0CB4C4" width="17.795" height="2.123"></rect><polygon fill="#0CB4C4" points="54.969,32.318 46.357,32.318 46.357,30.197 52.847,30.197 52.847,23.709 54.969,23.709 "></polygon></g><g><rect x="6.004" y="44.038" transform="matrix(0.7071 0.7071 -0.7071 0.7071 36.2549 2.6726)" fill="#0CB4C4" width="17.795" height="2.12"></rect><polygon fill="#0CB4C4" points="9.671,46.357 7.549,46.357 7.549,37.746 16.159,37.746 16.159,39.868 9.671,39.868 "></polygon></g></g></svg>