<svg xmlns="http://www.w3.org/2000/svg" xmlns:xlink="http://www.w3.org/1999/xlink" version="1.1" id="Layer_1" x="0px" y="0px" width="59px" height="60px" viewBox="0 0 59 60" enable-background="new 0 0 59 60" xml:space="preserve"><g><path fill="#0CB4C4" d="M43.703,60H15.296C6.894,60,0.057,53.164,0.057,44.761V15.24h1.938v29.521 c0,7.335,5.968,13.303,13.302,13.303h28.407c7.335,0,13.303-5.968,13.303-13.303V15.24h1.938v29.521 C58.943,53.164,52.106,60,43.703,60z"></path><path fill="#0CB4C4" d="M43.703,60H15.296C6.894,60,0.057,53.164,0.057,44.761V15.24C0.057,6.837,6.894,0,15.296,0h28.407 c8.403,0,15.24,6.837,15.24,15.24v29.521C58.943,53.164,52.106,60,43.703,60z M15.296,1.938c-7.334,0-13.302,5.968-13.302,13.303 v29.521c0,7.335,5.968,13.303,13.302,13.303h28.407c7.335,0,13.303-5.968,13.303-13.303V15.24c0-7.335-5.968-13.303-13.303-13.303 H15.296z"></path><path fill="#0CB4C4" d="M43.703,60H15.296C6.894,60,0.057,53.164,0.057,44.761V15.24C0.057,6.837,6.894,0,15.296,0h28.407 c8.403,0,15.24,6.837,15.24,15.24v29.521C58.943,53.164,52.106,60,43.703,60z M15.296,1.938c-7.334,0-13.302,5.968-13.302,13.303 v29.521c0,7.335,5.968,13.303,13.302,13.303h28.407c7.335,0,13.303-5.968,13.303-13.303V15.24c0-7.335-5.968-13.303-13.303-13.303 H15.296z"></path><path fill="#0CB4C4" d="M44.412,29.224H14.801c-8.013,0-14.532-6.519-14.532-14.531S6.788,0.16,14.801,0.16h29.611 c8.013,0,14.531,6.52,14.531,14.532S52.425,29.224,44.412,29.224z M14.801,2.098c-6.944,0-12.595,5.65-12.595,12.595 s5.65,12.594,12.595,12.594h29.611c6.944,0,12.594-5.649,12.594-12.594S51.356,2.098,44.412,2.098H14.801z"></path><path fill="#0CB4C4" d="M49.637,27.868c-0.193,0-0.389-0.058-0.558-0.177L12.594,1.921c-0.438-0.309-0.542-0.913-0.233-1.351 c0.31-0.438,0.915-0.539,1.351-0.232l36.485,25.771c0.437,0.309,0.541,0.913,0.232,1.35C50.239,27.727,49.94,27.868,49.637,27.868z "></path><path fill="#0CB4C4" d="M29.494,49.263c-0.535,0-0.969-0.435-0.969-0.969V32.536c0-0.534,0.434-0.969,0.969-0.969 c0.534,0,0.968,0.435,0.968,0.969v15.758C30.462,48.828,30.028,49.263,29.494,49.263z"></path><circle fill="#0CB4C4" cx="29.596" cy="52.11" r="1.726"></circle></g></svg>