<svg xmlns="http://www.w3.org/2000/svg" width="80" height="62" viewBox="0 0 80 62" fill="none"><path fill-rule="evenodd" clip-rule="evenodd" d="M70.1754 11.5006C70.8287 11.5006 71.4222 11.7674 71.8519 12.1971C72.2817 12.6268 72.5485 13.2203 72.5485 13.8737V22.5859H75.2518V8.10254C74.5808 7.94932 73.982 7.60943 73.5118 7.13922C72.8611 6.48849 72.4586 5.58944 72.4586 4.59618C72.4586 3.60291 72.8611 2.70387 73.5118 2.05314C74.1625 1.40241 75.0616 1 76.0548 1C77.0481 1 77.9471 1.40241 78.5979 2.05314C79.2486 2.70387 79.651 3.60291 79.651 4.59618C79.651 5.58944 79.2486 6.48849 78.5979 7.13922C78.1276 7.60943 77.528 7.94932 76.8579 8.10254V23.3889C76.8579 23.8319 76.4986 24.1911 76.0548 24.1911H72.5493V37.808H76.0548C76.4977 37.808 76.8579 38.1673 76.8579 38.6111V53.8975C77.5289 54.0507 78.1285 54.3906 78.5979 54.8608C79.2486 55.5115 79.651 56.4106 79.651 57.4038C79.651 58.3971 79.2486 59.2961 78.5979 59.9469C77.9471 60.5976 77.0481 61 76.0548 61C75.0616 61 74.1625 60.5976 73.5118 59.9469C72.8611 59.2961 72.4586 58.3971 72.4586 57.4038C72.4586 56.4106 72.8611 55.5115 73.5118 54.8608C73.982 54.3906 74.5817 54.0507 75.2518 53.8975V39.4132H72.5485V47.4897C72.5485 48.143 72.2817 48.7374 71.8519 49.1671C71.4222 49.5968 70.8287 49.8636 70.1754 49.8636H47.0071V53.5725H55.2782C55.958 53.5725 56.5761 53.8499 57.0234 54.2972C57.4707 54.7446 57.7481 55.3627 57.7481 56.0434V59.1649C57.7481 59.6078 57.3889 59.9671 56.9459 59.9671H23.7042C23.2613 59.9671 22.902 59.6078 22.902 59.1649V56.0425C22.902 55.3618 23.1794 54.7446 23.6267 54.2964C24.074 53.849 24.6922 53.5717 25.3719 53.5717H33.643V49.8628H10.4756C9.82226 49.8628 9.22877 49.596 8.79906 49.1662C8.36935 48.7365 8.10254 48.143 8.10254 47.4888V39.4124H5.39924V53.8966C6.07022 54.0498 6.66988 54.3897 7.13922 54.8599C7.78994 55.5106 8.19236 56.4097 8.19236 57.4029C8.19236 58.3962 7.78994 59.2953 7.13922 59.946C6.48849 60.5967 5.58944 60.9991 4.59618 60.9991C3.60291 60.9991 2.70387 60.5967 2.05314 59.946C1.40241 59.2953 1 58.3962 1 57.4029C1 56.4097 1.40241 55.5106 2.05314 54.8599C2.52336 54.3897 3.12301 54.0498 3.79311 53.8966V38.6102C3.79311 38.1673 4.15238 37.8071 4.5953 37.8071H8.10078V24.1911H4.59618C4.15326 24.1911 3.79399 23.8319 3.79399 23.3889V8.10254C3.12301 7.94932 2.52336 7.60943 2.05402 7.13922C1.40329 6.48849 1.00088 5.58944 1.00088 4.59618C1.00088 3.60291 1.40329 2.70387 2.05402 2.05314C2.70475 1.40241 3.6038 1 4.59706 1C5.59032 1 6.48937 1.40241 7.1401 2.05314C7.79082 2.70387 8.19324 3.60291 8.19324 4.59618C8.19324 5.58944 7.79082 6.48849 7.1401 7.13922C6.66988 7.60943 6.07022 7.94932 5.40012 8.10254V22.5868H8.10342V13.8746C8.10342 13.2212 8.37023 12.6268 8.79994 12.198C9.22965 11.7683 9.82314 11.5015 10.4765 11.5015L70.1754 11.5006ZM3.18817 58.8109C3.54832 59.1711 4.04671 59.3939 4.59618 59.3939C5.14652 59.3939 5.64404 59.1711 6.00418 58.8109C6.36433 58.4508 6.58711 57.9524 6.58711 57.4029C6.58711 56.8535 6.36433 56.3551 6.00418 55.9949C5.64404 55.6348 5.14564 55.412 4.59618 55.412C4.04671 55.412 3.54832 55.6348 3.18817 55.9949C2.82803 56.3551 2.60525 56.8535 2.60525 57.4029C2.60525 57.9533 2.82803 58.4508 3.18817 58.8109ZM4.59618 2.60525C4.04671 2.60525 3.54832 2.82803 3.18817 3.18817C2.82803 3.54832 2.60525 4.04671 2.60525 4.59618C2.60525 5.14652 2.82803 5.64404 3.18817 6.00418C3.54832 6.36433 4.04671 6.58711 4.59618 6.58711C5.14652 6.58711 5.64404 6.36433 6.00418 6.00418C6.36433 5.64404 6.58711 5.14564 6.58711 4.59618C6.58711 4.04671 6.36433 3.54832 6.00418 3.18817C5.64404 2.82803 5.14652 2.60525 4.59618 2.60525ZM76.0548 59.3939C76.6043 59.3939 77.1027 59.1711 77.4628 58.8109C77.823 58.4508 78.0457 57.9524 78.0457 57.4029C78.0457 56.8535 77.823 56.3551 77.4628 55.9949C77.1027 55.6348 76.6043 55.412 76.0548 55.412C75.5045 55.412 75.007 55.6348 74.6468 55.9949C74.2867 56.3551 74.0639 56.8535 74.0639 57.4029C74.0639 57.9524 74.2867 58.4508 74.6468 58.8109C75.007 59.1711 75.5045 59.3939 76.0548 59.3939ZM77.4628 3.18817C77.1027 2.82803 76.6043 2.60525 76.0548 2.60525C75.5045 2.60525 75.007 2.82803 74.6468 3.18817C74.2867 3.54832 74.0639 4.04671 74.0639 4.59618C74.0639 5.14652 74.2867 5.64404 74.6468 6.00418C75.007 6.36433 75.5045 6.58711 76.0548 6.58711C76.6043 6.58711 77.1027 6.36433 77.4628 6.00418C77.823 5.64404 78.0457 5.14564 78.0457 4.59618C78.0457 4.04583 77.823 3.54832 77.4628 3.18817ZM33.1869 20.7799C32.7439 20.7799 32.3838 21.1391 32.3838 21.582V39.7804C32.3838 40.2234 32.7431 40.5826 33.1869 40.5826H36.3357C36.7786 40.5826 37.1379 40.2234 37.1379 39.7804V21.5829C37.1379 21.14 36.7786 20.7807 36.3357 20.7807L33.1869 20.7799ZM35.5335 22.3851H33.989V38.9783H35.5335V22.3851ZM25.6123 24.111C25.1694 24.111 24.8093 24.4703 24.8093 24.9132V39.7813C24.8093 40.2242 25.1685 40.5835 25.6123 40.5835H28.7612C29.2041 40.5835 29.5634 40.2242 29.5634 39.7813V24.9132C29.5634 24.4703 29.2041 24.111 28.7612 24.111H25.6123ZM27.959 25.7154H26.4145V38.9783H27.959V25.7154ZM18.0378 27.4412C17.5949 27.4412 17.2348 27.8005 17.2348 28.2434V39.7804C17.2348 40.2234 17.594 40.5826 18.0378 40.5826H21.1867C21.6296 40.5826 21.9889 40.2234 21.9889 39.7804V28.2443C21.9889 27.8005 21.6296 27.4421 21.1867 27.4421L18.0378 27.4412ZM20.3845 29.0465H18.8409V38.9783H20.3845V29.0465ZM52.3988 25.1994C50.8851 25.1994 49.5141 25.8131 48.5217 26.8055C47.5293 27.7979 46.9156 29.168 46.9156 30.6826C46.9156 32.1962 47.5293 33.5673 48.5217 34.5588C49.5132 35.5511 50.8842 36.1649 52.3988 36.1649C53.9124 36.1649 55.2835 35.5511 56.275 34.5588C57.2673 33.5673 57.8811 32.1962 57.8811 30.6826C57.8811 29.1689 57.2673 27.7979 56.275 26.8055C55.2835 25.8131 53.9124 25.1994 52.3988 25.1994ZM55.1408 27.9396C54.439 27.2378 53.4695 26.8046 52.3988 26.8046C51.328 26.8046 50.3585 27.2387 49.6567 27.9396C48.9549 28.6414 48.5217 29.6109 48.5217 30.6817C48.5217 31.7524 48.9558 32.7219 49.6567 33.4237C50.3585 34.1255 51.328 34.5588 52.3988 34.5588C53.4695 34.5588 54.439 34.1246 55.1408 33.4237C55.8426 32.7219 56.2758 31.7524 56.2758 30.6817C56.2758 29.6109 55.8417 28.6414 55.1408 27.9396ZM55.2905 22.9038V20.3493C55.2905 20.1124 55.2086 19.894 55.0712 19.7206C55.0475 19.688 55.021 19.6572 54.9911 19.6272C54.8062 19.4423 54.5508 19.3278 54.2691 19.3278H50.5276C50.2458 19.3278 49.9904 19.4423 49.8055 19.6272C49.6206 19.8121 49.5061 20.0675 49.5061 20.3493V22.9038C49.4146 22.9346 49.3221 22.968 49.2288 23.0033C49.1257 23.042 49.0254 23.0816 48.9285 23.123L47.1366 21.3311L47.1348 21.3328L47.1331 21.3311C46.934 21.1312 46.6734 21.0317 46.4145 21.0317C46.1926 21.0317 45.969 21.1048 45.7849 21.2518C45.7523 21.2756 45.7224 21.302 45.6933 21.3311L43.0482 23.9763L43.0499 23.978L43.0482 23.9798C42.8492 24.1797 42.7488 24.4394 42.7488 24.6983H42.7523C42.7523 24.9158 42.8219 25.1342 42.961 25.3165C42.9865 25.3526 43.0156 25.3869 43.0482 25.4195L44.6552 27.0265C44.5944 27.1445 44.5354 27.266 44.4791 27.3902C44.4183 27.5249 44.3611 27.657 44.3091 27.7882H42.0664C41.7846 27.7882 41.5292 27.9027 41.3443 28.0876C41.1594 28.2725 41.0449 28.5278 41.0449 28.8096V32.5511C41.0449 32.8329 41.1594 33.0882 41.3443 33.2723C41.5292 33.4572 41.7846 33.5717 42.0664 33.5717H44.3082C44.3602 33.7029 44.4165 33.8367 44.4782 33.9705C44.5345 34.0947 44.5935 34.2162 44.6543 34.3342L43.0473 35.9412C42.8474 36.1402 42.7479 36.4026 42.7479 36.6633C42.7479 36.9239 42.8474 37.1854 43.0473 37.3853L45.6925 40.0305C45.8915 40.2295 46.1539 40.3299 46.4145 40.3299C46.676 40.3299 46.9367 40.2304 47.1366 40.0305L48.9285 38.2386C49.0262 38.2791 49.1257 38.3187 49.2296 38.3583C49.3221 38.3936 49.4146 38.4261 49.5061 38.4578V41.0123C49.5061 41.2941 49.6206 41.5495 49.8055 41.7344C49.9904 41.9193 50.2458 42.0338 50.5276 42.0338H54.2691C54.5508 42.0338 54.8062 41.9193 54.9911 41.7344C55.176 41.5495 55.2905 41.2941 55.2905 41.0123V38.4587C55.3821 38.427 55.4745 38.3936 55.5679 38.3592C55.6709 38.3205 55.7713 38.2809 55.8681 38.2403L57.6601 40.0314C57.8599 40.2304 58.1206 40.3308 58.3821 40.3308C58.6428 40.3308 58.9043 40.2313 59.1042 40.0314L61.7502 37.3862L61.7485 37.3844L61.7502 37.3827C61.9492 37.1828 62.0496 36.923 62.0496 36.6642C62.0496 36.4423 61.9757 36.2186 61.8295 36.0346C61.8057 36.002 61.7793 35.9712 61.7502 35.943L60.1432 34.336C60.204 34.218 60.263 34.0965 60.3193 33.9723C60.3801 33.8376 60.4373 33.7046 60.4893 33.5734H62.7321C63.0138 33.5734 63.2692 33.4589 63.4541 33.274C63.6381 33.0891 63.7535 32.8338 63.7535 32.552V28.8105C63.7535 28.5287 63.639 28.2734 63.4541 28.0885C63.2692 27.9035 63.0138 27.7891 62.7321 27.7891H60.4902C60.4373 27.6535 60.381 27.5205 60.322 27.3902L60.3193 27.3919L60.3185 27.3902C60.2612 27.266 60.2031 27.1445 60.1423 27.0265L61.7494 25.4195L61.7476 25.4177L61.7494 25.416C61.9484 25.217 62.0487 24.9563 62.0487 24.6974C62.0487 24.4755 61.9748 24.2519 61.8286 24.0678C61.8048 24.0353 61.7784 24.0053 61.7494 23.9763L59.1033 21.3311L59.1015 21.3328L59.0998 21.3311C58.9008 21.1312 58.6401 21.0317 58.3812 21.0317C58.1593 21.0317 57.9357 21.1048 57.7516 21.2518C57.7191 21.2756 57.6891 21.302 57.6601 21.3311L55.8681 23.123C55.7704 23.0825 55.6709 23.0429 55.5679 23.0041C55.4745 22.9689 55.3821 22.9355 55.2905 22.9038ZM55.0034 24.5028C54.8238 24.435 54.6318 24.3716 54.4267 24.3135C54.2074 24.251 54.0225 24.1207 53.8913 23.9472C53.7601 23.7737 53.6844 23.5598 53.6844 23.3326V20.9348H51.1123V23.3326C51.1123 23.5598 51.0374 23.7729 50.9053 23.9472C50.7741 24.1207 50.5892 24.251 50.37 24.3135C50.1657 24.3716 49.9737 24.435 49.7941 24.5028C49.6153 24.5706 49.4304 24.6499 49.2385 24.7415C49.0439 24.8339 48.8316 24.8612 48.6274 24.826C48.4222 24.7908 48.2302 24.6939 48.077 24.5416L46.4145 22.8791L44.5944 24.6983L46.0975 26.2014L46.0958 26.2032C46.2604 26.3679 46.3582 26.5765 46.3855 26.7958V26.7993C46.4136 27.0186 46.3705 27.244 46.2534 27.443C46.131 27.6491 46.0236 27.8542 45.932 28.0568C45.8439 28.2505 45.7611 28.4627 45.6845 28.6934C45.6282 28.8633 45.5296 29.0113 45.401 29.1275C45.3746 29.1539 45.3455 29.1777 45.3138 29.2006C45.1421 29.3247 44.9343 29.3952 44.7151 29.3952H42.6484V31.9682H44.7142C44.9317 31.9682 45.1377 32.0386 45.3094 32.1628C45.4829 32.2878 45.615 32.4622 45.6828 32.67C45.7594 32.9016 45.8422 33.1138 45.9302 33.3075C46.0218 33.5091 46.1301 33.7143 46.2516 33.9204C46.3696 34.1194 46.4128 34.3465 46.3846 34.5667C46.3617 34.7437 46.2939 34.9127 46.1829 35.0572C46.1574 35.0933 46.1283 35.1276 46.0958 35.1602L44.5927 36.6633L46.4128 38.4834L48.0752 36.8209C48.2285 36.6677 48.4195 36.5717 48.6256 36.5365C48.8299 36.5013 49.0412 36.5286 49.2367 36.621C49.4287 36.7126 49.6136 36.7918 49.7923 36.8596C49.972 36.9274 50.1639 36.99 50.3682 37.049C50.5875 37.1115 50.7724 37.2418 50.9036 37.4153C51.0348 37.5896 51.1105 37.8027 51.1105 38.0308V40.4285H53.6835V38.0308C53.6835 37.8036 53.7583 37.5896 53.8904 37.4161C54.004 37.2647 54.1607 37.1467 54.3457 37.0771C54.3712 37.0666 54.3976 37.0578 54.4249 37.0498C54.6292 36.9917 54.822 36.9283 55.0017 36.8605C55.1804 36.7936 55.3653 36.7135 55.5573 36.6219C55.7519 36.5294 55.9641 36.5021 56.1684 36.5374C56.3745 36.5726 56.5655 36.6686 56.7187 36.8218L58.3804 38.4834L60.1996 36.6633L58.6956 35.1593L58.6974 35.1575L58.6956 35.1558C58.5327 34.992 58.435 34.7842 58.4068 34.5649V34.5614C58.3795 34.3421 58.4217 34.1167 58.5397 33.9186C58.6621 33.7125 58.7696 33.5074 58.8611 33.3057C58.9492 33.112 59.032 32.8998 59.1086 32.6682C59.1641 32.4991 59.2627 32.3512 59.3912 32.235C59.4185 32.2086 59.4476 32.1839 59.4793 32.161C59.651 32.0369 59.8579 31.9664 60.0781 31.9664H62.1447V29.3934H60.0789C59.8614 29.3934 59.6554 29.323 59.4837 29.1988C59.3516 29.1037 59.2442 28.9778 59.1693 28.8281C59.1456 28.785 59.1253 28.7392 59.1103 28.6916C59.039 28.4777 58.9554 28.2646 58.8594 28.0541L58.862 28.0532C58.7704 27.8516 58.663 27.6473 58.5406 27.4412C58.4226 27.2422 58.3804 27.0168 58.4077 26.7976C58.4358 26.573 58.5336 26.3626 58.6965 26.2005L60.1996 24.6974L58.3804 22.8782L56.7179 24.5407L56.7161 24.5389L56.7143 24.5407C56.5611 24.6939 56.3709 24.7899 56.1675 24.8251C55.9641 24.8603 55.7519 24.833 55.5564 24.7406C55.3671 24.6499 55.1813 24.5698 55.0034 24.5028ZM46.2049 55.1769H34.446H25.3719C25.1351 55.1769 24.9185 55.2746 24.7608 55.4314C24.6041 55.5881 24.5055 55.8047 24.5055 56.0425V58.361H56.1429V56.0425C56.1429 55.8047 56.0451 55.589 55.8884 55.4314C55.7317 55.2738 55.515 55.1769 55.2782 55.1769H46.2049ZM45.4028 49.8628H35.2482V53.5717H45.4019L45.4028 49.8628ZM14.115 17.2673V44.0951H66.536V17.2673H14.115ZM12.5097 44.8982C12.5097 45.3411 12.869 45.7004 13.3128 45.7004H67.3391C67.782 45.7004 68.1422 45.3411 68.1422 44.8982V16.4652C68.1422 16.0222 67.7829 15.663 67.3391 15.663H13.3128C12.8699 15.663 12.5097 16.0222 12.5097 16.4652V44.8982ZM70.7178 13.3313C70.5787 13.1921 70.3867 13.105 70.1762 13.105H10.4756C10.2652 13.105 10.0732 13.1921 9.93321 13.3313C9.79408 13.4713 9.70691 13.6632 9.70691 13.8737V23.3889V38.6102V47.4888C9.70691 47.6992 9.7932 47.8912 9.93321 48.0312C10.0732 48.1703 10.2652 48.2575 10.4756 48.2575H34.446H46.2049H70.1754C70.3858 48.2575 70.5778 48.1712 70.7169 48.0312C70.8569 47.8912 70.9432 47.7001 70.9432 47.4888V38.6102V23.3889V13.8737C70.9441 13.6632 70.8569 13.4713 70.7178 13.3313Z" fill="#0CB4C4" stroke="#0CB4C4" stroke-width="0.1"></path></svg>