<svg version="1.1" id="Layer_1" xmlns="http://www.w3.org/2000/svg" xmlns:xlink="http://www.w3.org/1999/xlink" x="0px" y="0px" width="60px" height="60px" viewBox="0 0 60 60" enable-background="new 0 0 60 60" xml:space="preserve"><g><path fill="#0EB3C3" d="M29.997,60c-4.064,0-8.008-0.796-11.711-2.374c-3.586-1.52-6.796-3.697-9.55-6.464 c-2.739-2.753-4.887-5.957-6.388-9.514C0.786,37.957-0.003,34.034-0.003,30c0-4.035,0.789-7.957,2.345-11.647 c1.5-3.563,3.648-6.761,6.388-9.515c2.754-2.768,5.971-4.943,9.55-6.465C21.989,0.796,25.932,0,29.997,0 c4.064,0,8.007,0.796,11.71,2.373c3.586,1.521,6.795,3.697,9.549,6.465c2.74,2.754,4.889,5.958,6.389,9.521 c1.557,3.69,2.344,7.605,2.344,11.641c0,3.479-0.59,6.896-1.752,10.141c-1.127,3.143-2.768,6.057-4.867,8.662l-0.986,1.218 l-0.443-0.443l-0.021,0.021l-1.641,1.655l0.465,0.466l-1.148,0.992C44.166,57.409,37.199,60,29.997,60z M29.997,2.817 c-7.289,0-14.135,2.845-19.269,8.007C5.623,15.958,2.813,22.768,2.813,30s2.81,14.043,7.915,19.175 c5.134,5.165,11.979,8.008,19.269,8.008c6.189,0,12.191-2.112,16.992-5.965c0.008-0.435,0.191-0.857,0.5-1.162l3.283-3.28 c0.266-0.268,0.613-0.438,0.986-0.479c3.555-4.719,5.43-10.338,5.43-16.304c0-7.232-2.811-14.042-7.916-19.176 C44.131,5.662,37.285,2.817,29.997,2.817z"></path><path fill="#0EB3C3" d="M29.997,19.669c-4.064,0-8.008-0.796-11.711-2.373c-3.586-1.521-6.796-3.696-9.55-6.465l2-1.985 c5.134,5.161,11.979,8.007,19.268,8.007c7.29,0,14.127-2.846,19.268-8.015l2,1.986c-2.754,2.775-5.973,4.95-9.549,6.472 C38.004,18.873,34.061,19.669,29.997,19.669z"></path><path fill="#0EB3C3" d="M10.728,51.162l-1.999-1.987c2.226-2.229,4.761-4.09,7.535-5.519c2.485-1.288,5.141-2.213,7.872-2.747 l0.543,2.762c-2.472,0.483-4.874,1.323-7.127,2.485C15.046,47.45,12.75,49.134,10.728,51.162z"></path><path fill="#0EB3C3" d="M29.997,60c-3.078,0-6.063-1.459-8.642-4.211c-2.372-2.535-4.372-6.156-5.78-10.452 C14.06,40.719,13.256,35.416,13.256,30c0-7.866,1.655-15.281,4.655-20.88c1.501-2.796,3.262-5.008,5.239-6.57 C25.298,0.859,27.602,0,29.997,0c2.132,0,4.205,0.684,6.148,2.043c1.803,1.253,3.457,3.049,4.916,5.33 c2.836,4.466,4.766,10.628,5.422,17.346l0.289,2.937l-2.465-1.62c-4.084-2.683-9.408-2.774-13.579-0.232 c-0.865,0.528-1.662,1.154-2.366,1.866c-0.894,0.895-1.647,1.909-2.238,3.015c-1.811,3.386-1.973,7.521-0.423,11.057 c0.626,1.443,1.521,2.746,2.655,3.879c0.725,0.728,1.521,1.353,2.372,1.875c2.887,1.752,6.43,2.279,9.719,1.458l3.105-0.783 l-1.521,2.816c-1.5,2.768-3.252,4.959-5.225,6.5C34.664,59.148,32.377,60,29.997,60z M29.997,2.817 c-3.549,0-6.957,2.711-9.599,7.633c-2.789,5.198-4.325,12.142-4.325,19.55c0,5.12,0.755,10.12,2.178,14.466 c1.28,3.908,3.063,7.162,5.161,9.401c2.035,2.168,4.311,3.315,6.585,3.315c2.873,0,5.654-1.775,8.007-5.056 c-0.98,0.041-1.967-0.006-2.945-0.155c-2.063-0.303-4.014-1.007-5.794-2.083c-1.043-0.634-2.015-1.403-2.902-2.289 c-1.38-1.382-2.472-2.979-3.246-4.739c-0.929-2.127-1.373-4.48-1.288-6.805c0.085-2.338,0.711-4.661,1.811-6.71 c0.725-1.353,1.64-2.585,2.724-3.669c0.86-0.866,1.839-1.642,2.896-2.282c4.274-2.605,9.549-2.95,14.084-1.049 c-0.803-5.232-2.43-9.938-4.662-13.458C36.193,4.973,33.109,2.817,29.997,2.817z"></path><rect x="28.587" y="48.677" fill="#0EB3C3" width="2.817" height="9.914"></rect><rect x="28.587" y="1.409" fill="#0EB3C3" width="2.817" height="23.176"></rect><rect x="49.777" y="28.592" fill="#0EB3C3" width="8.811" height="2.817"></rect><rect x="1.405" y="28.592" fill="#0EB3C3" width="23.479" height="2.817"></rect><path fill="#0EB3C3" d="M37.348,52.142c-2.838,0-5.654-0.774-8.083-2.262c-1.036-0.634-2.015-1.4-2.895-2.28 c-1.366-1.367-2.457-2.967-3.247-4.739c-0.929-2.127-1.38-4.48-1.288-6.805c0.084-2.338,0.712-4.661,1.81-6.717 c0.733-1.366,1.648-2.605,2.732-3.677c0.858-0.859,1.831-1.627,2.888-2.274c5.099-3.113,11.613-3,16.597,0.282 c0.889,0.591,1.721,1.268,2.465,2.021c1.086,1.091,1.994,2.317,2.699,3.641c2.908,5.466,2.301,12.112-1.551,16.945l-0.049,0.062 l-2.379,2.389l-0.064,0.05c-1.732,1.379-3.697,2.359-5.844,2.898C39.891,51.986,38.615,52.142,37.348,52.142z M37.328,23.944 c-2.289,0-4.586,0.612-6.6,1.845c-0.865,0.534-1.662,1.162-2.372,1.873c-0.888,0.88-1.634,1.888-2.232,3.007 c-1.811,3.395-1.973,7.529-0.423,11.057c0.641,1.452,1.534,2.761,2.655,3.882c0.725,0.725,1.521,1.35,2.372,1.872 c2.881,1.767,6.424,2.294,9.719,1.464c1.725-0.438,3.316-1.218,4.719-2.324l2.154-2.162c3.105-3.943,3.584-9.352,1.217-13.803 c-0.576-1.084-1.314-2.083-2.203-2.978c-0.613-0.613-1.295-1.177-2.027-1.655C42.199,24.634,39.764,23.944,37.328,23.944z"></path><path fill="#0EB3C3" d="M31.236,32.403l-2.311-1.607c1.916-2.753,5.057-4.395,8.403-4.395v2.816 C34.898,29.218,32.623,30.408,31.236,32.403z"></path><rect x="46.858" y="46.644" transform="matrix(-0.7068 -0.7074 0.7074 -0.7068 49.2107 116.4968)" fill="#0EB3C3" width="3.774" height="2.814"></rect><path fill="#0EB3C3" d="M29.918,36.628h-2.816c0-1.029,0.155-2.036,0.45-3.001l2.69,0.839 C30.024,35.155,29.918,35.88,29.918,36.628z"></path><path fill="#0EB3C3" d="M55.996,59.296c-1.063,0-2.07-0.414-2.824-1.177l-5.684-5.681c-0.309-0.306-0.492-0.729-0.5-1.162 c-0.006-0.452,0.17-0.896,0.494-1.212l3.289-3.289c0.654-0.654,1.711-0.654,2.365,0l5.689,5.689c0.762,0.76,1.178,1.77,1.178,2.837 c0,1.065-0.416,2.072-1.178,2.817C58.066,58.882,57.059,59.296,55.996,59.296z M50.277,51.253l4.881,4.883 c0.225,0.223,0.521,0.343,0.838,0.343c0.318,0,0.613-0.126,0.838-0.343l0,0c0.219-0.221,0.346-0.517,0.346-0.825 c0-0.316-0.121-0.613-0.346-0.839l-4.881-4.895l-0.02,0.021L50.277,51.253z"></path></g></svg>