<svg version="1.1" id="Layer_1" xmlns="http://www.w3.org/2000/svg" xmlns:xlink="http://www.w3.org/1999/xlink" x="0px" y="0px" width="54.002px" height="60.001px" viewBox="0 0 54.002 60.001" enable-background="new 0 0 54.002 60.001" xml:space="preserve"><path fill="#0EB3C3" d="M54.002,40.688c0-1.405-1.219-2.625-2.625-2.625h-7.313V35.72c0-1.406-1.126-2.531-2.532-2.531H27.938 v-3.095h11.063c5.625,0,10.124-4.5,10.124-10.124c0-5.625-4.499-10.125-10.124-10.125c-0.843,0-1.593,0.093-2.438,0.281 C36.096,4.407,31.313,0,25.502,0c-6.188,0-11.157,5.063-11.157,11.156c0,0.563,0,1.032,0.094,1.594c-0.28,0-0.563,0-0.844,0 c-4.781,0-8.625,3.844-8.625,8.625S8.813,30,13.595,30h12.469v3.094H12.563c-1.406,0-2.53,1.123-2.53,2.531v2.344H2.625 C1.219,37.97,0,39.188,0,40.595v3.375c0,0.656,0.282,1.22,0.656,1.687C0.282,46.126,0,46.688,0,47.345v3.375 c0,0.656,0.282,1.219,0.656,1.688C0.282,52.875,0,53.438,0,54.095v3.374c0,1.313,1.219,2.532,2.625,2.532h16.594 c1.407,0,2.625-1.22,2.625-2.625v-3.375c0-0.656-0.28-1.219-0.656-1.688c0.376-0.467,0.656-1.03,0.656-1.687v-3.375 c0-0.656-0.28-1.219-0.656-1.688c0.376-0.467,0.656-1.029,0.656-1.686v-3.376c0-1.406-1.218-2.625-2.625-2.625h-7.313V35.53 c0-0.373,0.283-0.656,0.656-0.656h14.438h14.438c0.373,0,0.656,0.283,0.656,0.656v2.346h-7.313c-1.407,0-2.625,1.219-2.625,2.625 v3.376c0,0.656,0.279,1.219,0.656,1.686c-0.377,0.47-0.656,1.032-0.656,1.688v3.375c0,0.656,0.279,1.22,0.656,1.687 c-0.377,0.47-0.656,1.032-0.656,1.688v3.375c0,1.405,1.218,2.625,2.625,2.625h16.594c1.406,0,2.625-1.22,2.625-2.625v-3.375 c0-0.656-0.283-1.219-0.656-1.688c0.373-0.467,0.656-1.03,0.656-1.687v-3.375c0-0.656-0.283-1.219-0.656-1.688 c0.373-0.467,0.656-1.029,0.656-1.686V40.688z M19.97,57.376c0,0.376-0.375,0.749-0.751,0.749H2.625c-0.373,0-0.75-0.373-0.75-0.749 v-3.375c0-0.376,0.377-0.75,0.75-0.75h16.594c0.376,0,0.751,0.374,0.751,0.75V57.376z M19.97,50.72c0,0.376-0.375,0.749-0.751,0.749 H2.625c-0.373,0-0.75-0.373-0.75-0.749v-3.375c0-0.376,0.377-0.75,0.75-0.75h16.594c0.376,0,0.751,0.374,0.751,0.75V50.72z M19.219,39.938c0.376,0,0.751,0.375,0.751,0.749v3.376c0,0.376-0.375,0.75-0.751,0.75H2.625c-0.373,0-0.75-0.374-0.75-0.75v-3.376 c0-0.374,0.377-0.749,0.75-0.749H19.219z M13.502,28.218c-3.751,0-6.751-3.092-6.751-6.749s3.093-6.75,6.751-6.75 c0.656,0,1.218,0.093,1.874,0.281l0,0c1.031,0.281,1.969,0.844,2.719,1.594c0.188,0.188,0.374,0.281,0.656,0.281 c0.281,0,0.468-0.094,0.656-0.281c0.375-0.375,0.375-0.937-0.094-1.313c-0.845-0.844-1.875-1.406-3-1.781 c-0.188-0.657-0.281-1.313-0.281-2.063c0-5.156,4.219-9.281,9.281-9.281c4.969,0,9,3.938,9.281,8.906 c-1.219,0.563-2.25,1.313-3.187,2.25c-0.376,0.375-0.376,0.937,0,1.312c0.187,0.187,0.373,0.281,0.655,0.281 c0.281,0,0.468-0.094,0.656-0.281c0.844-0.938,1.875-1.594,3-2.063l0,0c0.938-0.375,1.969-0.562,3.001-0.562 c4.593,0,8.249,3.75,8.249,8.25c0,4.594-3.656,8.251-8.249,8.251H13.502V28.218z M52.126,57.376c0,0.376-0.376,0.749-0.749,0.749 H34.783c-0.376,0-0.751-0.373-0.751-0.749v-3.375c0-0.376,0.375-0.75,0.751-0.75h16.594c0.373,0,0.749,0.374,0.749,0.75V57.376z M52.126,50.72c0,0.376-0.376,0.749-0.749,0.749H34.783c-0.376,0-0.751-0.373-0.751-0.749v-3.375c0-0.376,0.375-0.75,0.751-0.75 h16.594c0.373,0,0.749,0.374,0.749,0.75V50.72z M52.126,43.97c0,0.374-0.376,0.75-0.749,0.75H34.783 c-0.376,0-0.751-0.376-0.751-0.75v-3.375c0-0.375,0.375-0.75,0.751-0.75h16.594c0.373,0,0.749,0.375,0.749,0.75V43.97z"></path></svg>