<svg width="58" height="60" viewBox="0 0 58 60" fill="none" xmlns="http://www.w3.org/2000/svg"><path d="M29.0388 59.9998C27.8388 59.9998 26.6388 59.6998 25.5587 59.0998L4.55875 47.5798C2.27886 46.3197 0.838867 43.9197 0.838867 41.2799V18.7199C0.838867 16.0799 2.27891 13.68 4.55875 12.42L25.5587 0.899997C27.7186 -0.299999 30.2987 -0.299999 32.4587 0.899997L53.4586 12.42C55.7387 13.6799 57.1785 16.0799 57.1785 18.7199V41.2799C57.1785 43.9199 55.7384 46.3198 53.4586 47.5798L32.4587 59.0998C31.4388 59.7 30.2388 60 29.0388 60V59.9998ZM29.0388 2.39999C28.2587 2.39999 27.4788 2.58007 26.6987 2.99999L5.6988 14.52C4.13886 15.36 3.23886 16.9799 3.23886 18.7199V41.2799C3.23886 43.0199 4.19881 44.6398 5.6988 45.4798L26.6987 56.9998C28.1388 57.7799 29.8788 57.7799 31.3186 56.9998L52.3185 45.4798C53.8785 44.6398 54.8384 43.0199 54.8384 41.2799L54.8386 18.7199C54.8386 16.9799 53.8787 15.36 52.3187 14.52L31.3188 2.99999C30.5987 2.58007 29.8188 2.39999 29.0387 2.39999H29.0388Z" fill="#0CB4C4"></path><path d="M26.5791 49.7999H18.7791C18.1191 49.7999 17.5791 49.2598 17.5791 48.5999C17.5791 47.94 18.1191 47.3999 18.7791 47.3999H26.5791C27.239 47.3999 27.7791 47.94 27.7791 48.5999C27.7791 49.2598 27.239 49.7999 26.5791 49.7999Z" fill="#0CB4C4"></path><path d="M36.1787 49.7999H31.3787C30.7188 49.7999 30.1787 49.2598 30.1787 48.5999C30.1787 47.94 30.7188 47.3999 31.3787 47.3999H36.1787C36.8386 47.3999 37.3787 47.94 37.3787 48.5999C37.3787 49.2598 36.8386 49.7999 36.1787 49.7999Z" fill="#0CB4C4"></path><path d="M46.979 42.5997H27.7791C27.1191 42.5997 26.5791 42.0597 26.5791 41.3997C26.5791 40.7398 27.1191 40.1997 27.7791 40.1997H46.979C47.639 40.1997 48.179 40.7398 48.179 41.3997C48.179 42.0597 47.639 42.5997 46.979 42.5997Z" fill="#0CB4C4"></path><path d="M22.9793 42.5997H10.9793C10.3193 42.5997 9.7793 42.0597 9.7793 41.3997C9.7793 40.7398 10.3193 40.1997 10.9793 40.1997H22.9793C23.6392 40.1997 24.1792 40.7398 24.1792 41.3997C24.1792 42.0597 23.6392 42.5997 22.9793 42.5997Z" fill="#0CB4C4"></path><path d="M51.1794 35.4H32.6394C31.9795 35.4 31.4395 34.8599 31.4395 34.2C31.4395 33.54 31.9795 33 32.6394 33H51.1794C51.8393 33 52.3794 33.54 52.3794 34.2C52.3794 34.8599 51.8393 35.4 51.1794 35.4Z" fill="#0CB4C4"></path><path d="M25.319 35.4H6.7791C6.11915 35.4 5.5791 34.8599 5.5791 34.2C5.5791 33.54 6.11915 33 6.7791 33H25.319C25.979 33 26.519 33.54 26.519 34.2C26.519 34.8599 25.979 35.4 25.319 35.4Z" fill="#0CB4C4"></path><path d="M36.539 13.3201C36.3589 13.3201 36.239 13.2601 36.0589 13.2001C33.839 12.2402 31.439 11.7601 28.9789 11.7601C26.519 11.7601 24.119 12.2402 21.899 13.2001C21.299 13.4402 20.5791 13.2001 20.339 12.5402C20.099 11.9402 20.339 11.2203 20.999 10.9802C23.5189 9.90015 26.219 9.36035 29.0389 9.36035C31.7989 9.36035 34.4989 9.9004 37.0789 10.9802C37.6789 11.2203 37.9789 11.9402 37.7389 12.5402C37.4391 13.0201 37.0191 13.3201 36.5391 13.3201L36.539 13.3201Z" fill="#0CB4C4"></path><path d="M28.9793 38.8801C28.3194 38.8801 27.7793 38.34 27.7793 37.6801V30.7201C25.1992 29.1602 22.6193 27.0002 23.3393 25.1401C24.2393 22.9804 27.8393 22.8003 28.9193 22.8003C29.9994 22.8003 33.6593 22.9804 34.5592 25.0804C35.3393 26.9403 32.7593 29.1003 30.1792 30.6604V37.6803C30.1792 38.3403 29.6391 38.8803 28.9792 38.8803L28.9793 38.8801ZM25.6793 25.9201C26.0393 26.5201 27.4194 27.6602 28.9793 28.6201C30.4793 27.6602 31.8594 26.5201 32.2194 25.9201C31.8594 25.6801 30.7793 25.2002 28.9793 25.2002C27.1194 25.2002 26.0393 25.6202 25.6793 25.9201Z" fill="#0CB4C4"></path><path d="M33.1789 21.4798C32.9989 21.4798 32.8789 21.4199 32.6989 21.3599C30.3588 20.34 27.6589 20.34 25.3189 21.3C24.7189 21.54 23.999 21.3 23.7589 20.64C23.5189 20.04 23.7589 19.3201 24.4189 19.0801C27.3589 17.8201 30.7789 17.8801 33.7189 19.14C34.3189 19.3801 34.6189 20.1 34.3189 20.7C34.139 21.2398 33.6589 21.4799 33.179 21.4799L33.1789 21.4798Z" fill="#0CB4C4"></path><path d="M34.9185 17.5201C34.7384 17.5201 34.6185 17.4601 34.4385 17.4001C32.6984 16.6802 30.8984 16.2601 28.9785 16.2601C27.1185 16.2601 25.3785 16.6201 23.6985 17.3402C23.0985 17.5802 22.3786 17.2802 22.1385 16.6802C21.8985 16.0803 22.1985 15.3603 22.7985 15.1203C24.7786 14.2803 26.8786 13.8604 29.0385 13.8604C31.2584 13.8604 33.4186 14.2803 35.4584 15.1802C36.0584 15.4203 36.3584 16.1402 36.0584 16.7402C35.8186 17.2201 35.3385 17.5201 34.9186 17.5201L34.9185 17.5201Z" fill="#0CB4C4"></path></svg>