<svg width="61" height="61" viewBox="0 0 61 61" fill="none" xmlns="http://www.w3.org/2000/svg"><path d="M52.1649 55.0684C50.5643 55.0684 49.2617 56.3709 49.2617 57.9716C49.2617 59.5722 50.5643 60.8748 52.1649 60.8748C53.7656 60.8748 55.0682 59.5722 55.0682 57.9716C55.0682 56.3709 53.7656 55.0684 52.1649 55.0684ZM52.1649 58.9393C51.6308 58.9393 51.1972 58.5058 51.1972 57.9716C51.1972 57.4374 51.6308 57.0038 52.1649 57.0038C52.6991 57.0038 53.1327 57.4374 53.1327 57.9716C53.1327 58.5058 52.6991 58.9393 52.1649 58.9393Z" fill="#0CB4C4"></path><path d="M43.7744 50.4162L45.0731 51.8504C48.9838 48.3104 55.3476 48.3104 59.2583 51.8504L60.557 50.4162C55.9302 46.2259 48.4012 46.2259 43.7744 50.4162Z" fill="#0CB4C4"></path><path d="M46.6992 53.3449L48.0502 54.7307C50.3186 52.5194 54.0115 52.5194 56.2799 54.7307L57.6308 53.3449C54.6163 50.4059 49.7137 50.4059 46.6992 53.3449Z" fill="#0CB4C4"></path><path d="M55.069 7.64932V37.3561L52.971 34.209L51.3606 35.2822L56.0368 42.2974L60.7129 35.2832L59.1026 34.21L57.0045 37.3561V7.64932C57.0045 6.04867 55.7019 4.74609 54.1013 4.74609H45.3916V6.68158H54.1013C54.6355 6.68158 55.069 7.11513 55.069 7.64932Z" fill="#0CB4C4"></path><path d="M28.9394 8.617C30.54 8.617 31.8426 7.31442 31.8426 5.71377C31.8426 4.11313 30.54 2.81055 28.9394 2.81055C27.3387 2.81055 26.0361 4.11313 26.0361 5.71377C26.0361 7.31442 27.3387 8.617 28.9394 8.617ZM28.9394 4.74603C29.4736 4.74603 29.9071 5.17958 29.9071 5.71377C29.9071 6.24797 29.4736 6.68151 28.9394 6.68151C28.4052 6.68151 27.9716 6.24797 27.9716 5.71377C27.9716 5.17958 28.4052 4.74603 28.9394 4.74603Z" fill="#0CB4C4"></path><path d="M38.617 10.5524C41.2851 10.5524 43.4557 8.38177 43.4557 5.71371C43.4557 3.04565 41.2851 0.875 38.617 0.875C35.949 0.875 33.7783 3.04565 33.7783 5.71371C33.7783 8.38177 35.949 10.5524 38.617 10.5524ZM38.617 2.81048C40.2177 2.81048 41.5203 4.11306 41.5203 5.71371C41.5203 7.31436 40.2177 8.61694 38.617 8.61694C37.0164 8.61694 35.7138 7.31436 35.7138 5.71371C35.7138 4.11306 37.0164 2.81048 38.617 2.81048Z" fill="#0CB4C4"></path><path d="M6.68196 54.1017V39.8788L8.78002 43.0259L10.3903 41.9527L5.71421 34.9375L1.03809 41.9517L2.64841 43.0249L4.74647 39.8788V54.1017C4.74647 55.7023 6.04905 57.0049 7.6497 57.0049H16.3594V55.0694H7.6497C7.1155 55.0694 6.68196 54.6359 6.68196 54.1017Z" fill="#0CB4C4"></path><path d="M32.8105 53.1328C31.2098 53.1328 29.9072 54.4354 29.9072 56.036C29.9072 57.6367 31.2098 58.9393 32.8105 58.9393C34.4111 58.9393 35.7137 57.6367 35.7137 56.036C35.7137 54.4354 34.4111 53.1328 32.8105 53.1328ZM32.8105 57.0038C32.2763 57.0038 31.8427 56.5702 31.8427 56.036C31.8427 55.5018 32.2763 55.0683 32.8105 55.0683C33.3446 55.0683 33.7782 55.5018 33.7782 56.036C33.7782 56.5702 33.3446 57.0038 32.8105 57.0038Z" fill="#0CB4C4"></path><path d="M23.1327 51.1973C20.4646 51.1973 18.2939 53.3679 18.2939 56.036C18.2939 58.704 20.4646 60.8747 23.1327 60.8747C25.8007 60.8747 27.9714 58.704 27.9714 56.036C27.9714 53.3679 25.8007 51.1973 23.1327 51.1973ZM23.1327 58.9392C21.532 58.9392 20.2294 57.6366 20.2294 56.036C20.2294 54.4353 21.532 53.1327 23.1327 53.1327C24.7333 53.1327 26.0359 54.4353 26.0359 56.036C26.0359 57.6366 24.7333 58.9392 23.1327 58.9392Z" fill="#0CB4C4"></path><path d="M49.2621 30.875C49.2621 20.736 41.014 12.4879 30.875 12.4879C27.8073 12.4879 24.8324 13.2505 22.1653 14.6885V4.74597C22.1653 2.61113 20.4292 0.875 18.2944 0.875H4.74597C2.61113 0.875 0.875 2.61113 0.875 4.74597V27.9718C0.875 30.1066 2.61113 31.8427 4.74597 31.8427H12.5373C13.0453 41.5308 21.0631 49.2621 30.875 49.2621C41.014 49.2621 49.2621 41.014 49.2621 30.875ZM21.6456 29.9073C21.9766 29.3373 22.1653 28.6763 22.1653 27.9718V22.1653H25.2689C24.6515 24.3582 24.2131 26.9382 24.1308 29.9073H21.6456ZM8.61694 13.4556C8.61694 11.855 9.91952 10.5524 11.5202 10.5524C13.1208 10.5524 14.4234 11.855 14.4234 13.4556C14.4234 15.0563 13.1208 16.3589 11.5202 16.3589C9.91952 16.3589 8.61694 15.0563 8.61694 13.4556ZM16.3589 24.1008H6.68145V23.1331C6.68145 20.465 8.8521 18.2944 11.5202 18.2944C14.1882 18.2944 16.3589 20.465 16.3589 23.1331V24.1008ZM14.6373 17.1253C15.6815 16.2369 16.3589 14.9305 16.3589 13.4556C16.3589 10.7876 14.1882 8.61694 11.5202 8.61694C8.8521 8.61694 6.68145 10.7876 6.68145 13.4556C6.68145 14.9305 7.35887 16.2369 8.40306 17.1253C6.23339 18.2556 4.74597 20.5221 4.74597 23.1331V24.1008H2.81048V6.68145H20.2298V24.1008H18.2944V23.1331C18.2944 20.5221 16.8069 18.2556 14.6373 17.1253ZM27.2934 22.1653H34.4566C35.1147 24.3147 35.5937 26.9063 35.6837 29.9073H26.0653C26.1553 26.9063 26.6353 24.3147 27.2934 22.1653ZM27.9766 20.2298C28.9898 17.6634 30.1531 15.9031 30.875 14.9624C31.5969 15.9031 32.7611 17.6634 33.7734 20.2298H27.9766ZM47.2773 29.9073H37.6192C37.5369 26.9382 37.0985 24.3582 36.4811 22.1653H44.8056C46.2311 24.4366 47.1118 27.0747 47.2773 29.9073ZM47.2773 31.8427C47.1108 34.6753 46.2311 37.3134 44.8056 39.5847H36.4811C37.0985 37.3918 37.5369 34.8118 37.6192 31.8427H47.2773ZM35.6837 31.8427C35.5937 34.8437 35.1147 37.4353 34.4566 39.5847H27.2924C26.6344 37.4353 26.1553 34.8437 26.0653 31.8427H35.6837ZM33.7734 41.5202C32.7602 44.0876 31.596 45.8469 30.875 46.7876C30.1531 45.8469 28.9889 44.0866 27.9756 41.5202H33.7734ZM33.0031 47.1727C33.8634 45.9321 34.956 44.0498 35.8685 41.5202H43.3966C40.8108 44.556 37.1479 46.6337 33.0031 47.1727ZM43.3956 20.2298H35.8685C34.955 17.6992 33.8634 15.8179 33.0031 14.5773C37.1479 15.1163 40.8108 17.194 43.3956 20.2298ZM28.7547 14.5676C27.8924 15.8073 26.7979 17.6924 25.8815 20.2298H22.1653V16.9289C24.1744 15.6698 26.4137 14.8685 28.7547 14.5676ZM4.74597 2.81048H18.2944C19.3618 2.81048 20.2298 3.67855 20.2298 4.74597H2.81048C2.81048 3.67855 3.67855 2.81048 4.74597 2.81048ZM2.81048 27.9718V26.0363H20.2298V27.9718C20.2298 29.0392 19.3618 29.9073 18.2944 29.9073H4.74597C3.67855 29.9073 2.81048 29.0392 2.81048 27.9718ZM24.1298 31.8427C24.2121 34.8118 24.6505 37.3918 25.2679 39.5847H16.9434C15.5179 37.3134 14.6382 34.6753 14.4718 31.8427H24.1298ZM18.3544 41.5202H25.8824C26.796 44.0508 27.8876 45.9321 28.7479 47.1727C24.6021 46.6337 20.9392 44.556 18.3544 41.5202Z" fill="#0CB4C4"></path></svg>