<svg width="60" height="60" viewBox="0 0 60 60" fill="none" xmlns="http://www.w3.org/2000/svg"><path d="M59.7979 31.2193L40.6803 12.1082C40.426 11.8539 40.0152 11.8539 39.7609 12.1082L35.0467 16.8224C34.7924 17.0767 34.7924 17.4875 35.0467 17.7418L36.4616 19.1567L29.8435 25.6966L23.6753 19.5284L24.9468 18.2569C25.0706 18.133 25.1358 17.97 25.1358 17.794C25.1358 17.6179 25.0641 17.4549 24.9468 17.331L20.2326 12.6168C19.9783 12.3625 19.5675 12.3625 19.3132 12.6168L0.189089 31.7344C0.0717235 31.8518 0 32.0213 0 32.1908C0 32.3603 0.0717235 32.5299 0.189089 32.6538L4.90328 37.368C5.03369 37.4984 5.1967 37.557 5.36622 37.557C5.53575 37.557 5.69876 37.4918 5.82917 37.368L7.10063 36.0965L13.6601 42.6559L13.4123 42.9037C12.1148 44.2013 12.1148 46.3204 13.4123 47.6179C14.0643 48.2699 14.9185 48.5959 15.7727 48.5959C15.9422 48.5959 16.1117 48.5764 16.2812 48.5503C16.1248 49.5675 16.4247 50.6368 17.2071 51.4192C17.8592 52.0713 18.7133 52.3973 19.5675 52.3973C19.737 52.3973 19.9065 52.3777 20.0761 52.3517C19.9196 53.3688 20.2195 54.4382 21.002 55.2206C21.654 55.8726 22.5082 56.1986 23.3623 56.1986C23.5318 56.1986 23.7014 56.1791 23.8709 56.153C23.7144 57.1702 24.0143 58.2395 24.7968 59.0219C25.4488 59.674 26.303 60 27.1571 60C28.0113 60 28.8655 59.674 29.5175 59.0219L29.7653 58.7742L29.987 58.9959C30.6325 59.6283 31.4932 59.987 32.406 59.987C33.3188 59.987 34.1795 59.6283 34.825 58.9828C35.4706 58.3373 35.8292 57.4766 35.8292 56.5638C35.8292 56.3812 35.8161 56.2052 35.79 56.0291C36.8333 56.1921 37.9418 55.8726 38.7438 55.0706C39.3893 54.4251 39.7479 53.5644 39.7479 52.6516C39.7479 52.469 39.7348 52.293 39.7088 52.1169C40.752 52.2865 41.8605 51.9604 42.6625 51.1584C43.308 50.5129 43.6666 49.6522 43.6666 48.7394C43.6666 48.5568 43.6536 48.3808 43.6275 48.2047C44.6707 48.3677 45.7792 48.0482 46.5812 47.2462C47.2267 46.6007 47.5853 45.74 47.5853 44.8272C47.5853 43.9144 47.2267 43.0537 46.5812 42.4082L46.3334 42.1604L52.9124 35.5814L54.1839 36.8528C54.3143 36.9833 54.4773 37.0419 54.6468 37.0419C54.8163 37.0419 54.9794 36.9767 55.1098 36.8528L59.824 32.1387C60.0522 31.8909 60.0522 31.4736 59.7979 31.2193ZM36.429 17.2854L40.2239 13.4905L58.4156 31.6822L54.6207 35.4771L36.429 17.2854ZM42.6429 46.3269C42.3886 46.0726 41.9778 46.0726 41.7235 46.3269C41.5931 46.4573 41.5345 46.6203 41.5345 46.7898C41.5345 46.9593 41.5997 47.1224 41.7235 47.2528C42.1213 47.6505 42.343 48.1852 42.343 48.7459C42.343 49.3067 42.1213 49.8413 41.7235 50.2391C40.902 51.0606 39.5588 51.0606 38.7307 50.2391C38.4764 49.9848 38.0656 49.9848 37.8113 50.2391C37.6809 50.3695 37.6223 50.5325 37.6223 50.702C37.6223 50.8715 37.6875 51.0345 37.8113 51.165C38.2091 51.5627 38.4308 52.0974 38.4308 52.6581C38.4308 53.2189 38.2091 53.7535 37.8113 54.1513C36.9898 54.9728 35.6466 54.9728 34.8185 54.1513C34.5642 53.897 34.1534 53.897 33.8992 54.1513C33.7687 54.2817 33.7101 54.4447 33.7101 54.6142C33.7101 54.7837 33.7753 54.9467 33.8992 55.0772C34.2969 55.4749 34.5186 56.0096 34.5186 56.5703C34.5186 57.1376 34.2969 57.6657 33.8992 58.0635C33.5014 58.4612 32.9667 58.6829 32.406 58.6829C31.8453 58.6829 31.3106 58.4612 30.9128 58.0635L30.6912 57.8418L31.6301 56.9028C32.9276 55.6053 32.9276 53.4862 31.6301 52.1886C30.8476 51.4062 29.7783 51.1063 28.7611 51.2628C28.7872 51.0932 28.8133 50.9237 28.8133 50.7542C28.8133 49.8609 28.4677 49.0263 27.8353 48.3938C27.2028 47.7613 26.3682 47.4158 25.4749 47.4158C25.2988 47.4158 25.1358 47.4419 24.9663 47.4679C25.1228 46.4508 24.8229 45.3814 24.0404 44.599C23.258 43.8166 22.1887 43.5166 21.1715 43.6731C21.328 42.6559 21.028 41.5866 20.2456 40.8042C18.9481 39.5001 16.829 39.5001 15.5314 40.8042L14.5925 41.7431L8.02 35.1771L22.7494 20.4477L31.2128 28.9111L25.3054 34.8185L25.7488 35.2815C25.8792 35.4184 28.7481 38.3721 31.9822 38.3721C32.2234 38.3721 32.4647 38.3525 32.7125 38.3199C34.4077 38.0787 35.8292 36.9833 36.9507 35.0728C37.1789 35.1641 37.4006 35.2489 37.6288 35.3206L45.6423 43.334C46.04 43.7318 46.2617 44.2665 46.2617 44.8272C46.2617 45.3879 46.04 45.9226 45.6423 46.3204C44.8142 47.1484 43.471 47.1484 42.6429 46.3269ZM28.5916 58.0895C27.8027 58.8785 26.5116 58.8785 25.7161 58.0895C24.9272 57.3006 24.9272 56.0096 25.7161 55.2141L25.9639 54.9663L26.4269 54.5034L26.8898 54.0404L27.8287 53.1015C28.2265 52.7038 28.7481 52.5081 29.2632 52.5081C29.7783 52.5081 30.3065 52.7038 30.6977 53.1015C31.4866 53.8905 31.4866 55.1815 30.6977 55.977L29.7588 56.9159L29.3023 57.3788L28.8394 57.8418L28.5916 58.0895ZM21.9213 54.2947C21.1324 53.5057 21.1324 52.2147 21.9213 51.4192L22.1691 51.1715L22.632 50.7085L23.095 50.2456L24.0339 49.3067C24.4186 48.922 24.9272 48.7133 25.4684 48.7133C26.0096 48.7133 26.5181 48.922 26.9028 49.3067C27.2875 49.6914 27.4962 50.1999 27.4962 50.7411C27.4962 51.2823 27.2875 51.7909 26.9028 52.1756L25.9639 53.1145L25.501 53.5775L25.038 54.0404L24.7903 54.2882C24.0013 55.0837 22.7168 55.0837 21.9213 54.2947ZM18.1265 50.4999C17.3375 49.7109 17.3375 48.4199 18.1265 47.6244L18.3743 47.3767L18.8372 46.9137L19.3002 46.4508L20.2391 45.5118C20.6368 45.1141 21.1584 44.9185 21.6736 44.9185C22.1887 44.9185 22.7168 45.1141 23.108 45.5118C23.897 46.3008 23.897 47.5918 23.108 48.3873L22.1691 49.3262L21.7062 49.7892L21.2432 50.2521L20.9954 50.4999C20.2065 51.2888 18.922 51.2888 18.1265 50.4999ZM14.3317 46.7051C13.5427 45.9161 13.5427 44.6251 14.3317 43.8296L14.5794 43.5818L15.0424 43.1189L15.5053 42.6559L16.4443 41.717C16.842 41.3193 17.3636 41.1237 17.8787 41.1237C18.3938 41.1237 18.922 41.3193 19.3132 41.717C20.1022 42.506 20.1022 43.797 19.3132 44.5925L18.3743 45.5314L17.9113 45.9943L17.4484 46.4573L17.2006 46.7051C16.4117 47.494 15.1271 47.494 14.3317 46.7051ZM5.36622 35.9856L1.5714 32.1908L19.7631 13.9991L23.5579 17.794L5.36622 35.9856ZM45.388 41.241L40.0217 35.8748C42.6885 36.2334 45.1337 35.7314 46.2291 34.7207L45.7857 34.2447L45.3423 33.7687C44.3838 34.6555 41.378 35.125 38.3265 34.186C37.8635 34.0426 37.394 33.8665 36.9311 33.6579L36.8203 33.6057L36.3638 33.3971L36.1356 33.8405L36.0769 33.9513C35.125 35.7966 33.9252 36.8333 32.5234 37.0354C30.3391 37.3484 28.1026 35.6531 27.1571 34.8185L32.1387 29.837L32.6016 29.374L33.0646 28.9111L37.3028 24.6729L37.3288 24.6468L36.4095 23.7274L32.1387 27.9983L30.7694 26.629L37.381 20.0826L51.967 34.6685L45.388 41.241Z" fill="#0CB4C4"></path><path d="M29.9935 14.0904C33.8796 14.0904 37.0354 10.9281 37.0354 7.04847C37.0354 3.16888 33.8796 0 29.9935 0C26.1074 0 22.9515 3.16236 22.9515 7.04195C22.9515 10.9215 26.1074 14.0904 29.9935 14.0904ZM29.9935 1.30406C33.1558 1.30406 35.7314 3.87959 35.7314 7.04195C35.7314 10.2043 33.1558 12.7798 29.9935 12.7798C26.8311 12.7798 24.2556 10.2043 24.2556 7.04195C24.2556 3.87959 26.8311 1.30406 29.9935 1.30406Z" fill="#0CB4C4"></path><path d="M28.3699 10.5564C28.4938 10.739 28.6959 10.8433 28.9111 10.8433C29.1262 10.8433 29.3284 10.7324 29.4523 10.5564L32.9993 5.28797C33.2014 4.98804 33.1232 4.58378 32.8233 4.38165C32.5233 4.17952 32.1191 4.25776 31.9169 4.5577L31.0563 5.83568L28.9111 9.02412L28.0765 7.78526L28.0699 7.77874C27.8678 7.4788 27.4636 7.40056 27.1636 7.60269C26.8637 7.80482 26.7854 8.20908 26.9876 8.50901L28.3699 10.5564Z" fill="#0CB4C4"></path></svg>