<svg width="61" height="60" viewBox="0 0 61 60" fill="none" xmlns="http://www.w3.org/2000/svg"><path d="M47.5748 26.6981L45.8767 26.6038C45.5937 26.6038 45.2163 26.6038 45.0277 26.6038C44.6503 25.283 44.1786 24.1509 43.5182 23.0189L45.2163 21.1321C45.5937 20.7547 45.5937 20.1887 45.2163 19.8113L41.6314 16.2264C41.2541 15.8491 40.688 15.8491 40.3107 16.2264L38.4239 17.9245C37.2918 17.2642 36.0654 16.7925 34.839 16.4151L34.7446 13.8679C34.7446 13.3962 34.2729 12.9245 33.8013 12.9245H28.7069C28.2352 12.9245 27.7635 13.3019 27.7635 13.8679L27.6692 16.4151C26.4428 16.6981 25.2163 17.2642 24.0843 17.9245L22.1975 16.2264C21.8201 15.8491 21.2541 15.9434 20.8767 16.2264L17.2918 19.717C16.9145 20.0943 16.9145 20.6604 17.2918 21.0377L18.9899 22.9245C18.3296 24.0566 17.8579 25.283 17.4805 26.5094L14.9333 26.6038C14.4616 26.6038 13.9899 27.0755 13.9899 27.5472V32.6415C13.9899 33.1132 14.3673 33.5849 14.9333 33.5849L17.4805 33.6792C17.7635 34.9057 18.3296 36.1321 18.9899 37.2642L17.2918 39.1509C16.9145 39.5283 17.0088 40.0943 17.2918 40.4717L20.8767 44.0566C21.2541 44.434 21.8201 44.434 22.1975 44.0566L24.0843 42.3585C25.2163 43.0189 26.4428 43.4906 27.6692 43.8679L27.7635 46.4151C27.7635 46.8868 28.2352 47.3585 28.7069 47.3585H33.8013C34.2729 47.3585 34.7446 46.9811 34.7446 46.4151L34.839 43.8679C36.1597 43.5849 37.3862 43.0189 38.4239 42.3585L40.3107 44.0566C40.688 44.434 41.2541 44.3396 41.6314 44.0566L45.2163 40.4717C45.5937 40.0943 45.5937 39.5283 45.2163 39.1509L43.5182 37.2642C44.1786 36.1321 44.6503 34.9057 45.0277 33.6792L47.5748 33.5849C48.0465 33.5849 48.5182 33.1132 48.5182 32.6415V27.5472C48.4239 27.0755 48.0465 26.6981 47.5748 26.6981ZM46.5371 31.7925L44.1786 31.8868C43.7069 31.8868 43.4239 32.1698 43.3296 32.6415C43.0465 34.2453 42.3862 35.6604 41.5371 36.9811C41.2541 37.3585 41.3484 37.8302 41.6314 38.1132L43.2352 39.8113L40.9711 42.0755L39.1786 40.4717C38.8956 40.1887 38.3296 40.0943 38.0465 40.3774C36.7258 41.2264 35.3107 41.8868 33.7069 42.1698C33.2352 42.2642 32.9522 42.6415 32.9522 43.0189L32.8579 45.3774H29.6503L29.556 43.0189C29.556 42.5472 29.1786 42.2642 28.8013 42.1698C27.2918 41.8868 25.7824 41.2264 24.4616 40.3774C24.0843 40.0943 23.6126 40.1887 23.3296 40.4717L21.6314 42.0755L19.3673 39.8113L20.9711 38.1132C21.2541 37.8302 21.2541 37.3585 21.0654 36.9811C20.122 35.566 19.556 34.2453 19.2729 32.6415C19.1786 32.2642 18.8013 31.8868 18.4239 31.8868L16.0654 31.7925V28.5849L18.4239 28.4906C18.8956 28.4906 19.1786 28.2075 19.2729 27.7359C19.556 26.2264 20.2163 24.717 21.0654 23.3962C21.3484 23.0189 21.2541 22.5472 20.9711 22.2642L19.3673 20.566L21.6314 18.3019L23.3296 19.9057C23.6126 20.1887 24.0843 20.1887 24.4616 20C25.7824 19.1509 27.2918 18.4906 28.8013 18.2075C29.1786 18.1132 29.556 17.7359 29.556 17.3585L29.6503 15H32.8579L32.9522 17.3585C32.9522 17.8302 33.3296 18.1132 33.7069 18.2075C35.2163 18.4906 36.7258 19.1509 38.0465 20C38.4239 20.283 38.8956 20.1887 39.1786 19.9057L40.8767 18.3019L43.1409 20.566L41.5371 22.2642C41.2541 22.5472 41.1597 23.0189 41.4428 23.3962C42.2918 24.6226 42.8579 26.0377 43.2352 27.5472C43.2352 28.0189 43.6126 28.3962 44.1786 28.3962C44.3673 28.3962 45.5937 28.4906 46.5371 28.4906V31.7925Z" fill="#0CB4C4"></path><path d="M31.2541 22.4528C27.0088 22.4528 23.5182 25.9434 23.5182 30.1887C23.5182 34.434 27.0088 37.9245 31.2541 37.9245C35.4993 37.9245 38.9899 34.434 38.9899 30.1887C38.9899 25.8491 35.4993 22.4528 31.2541 22.4528ZM31.2541 35.9434C28.0465 35.9434 25.405 33.3019 25.405 30.0943C25.405 26.8868 28.0465 24.2453 31.2541 24.2453C34.4616 24.2453 37.1031 26.8868 37.1031 30.0943C37.1031 33.3019 34.4616 35.9434 31.2541 35.9434Z" fill="#0CB4C4"></path><path d="M57.6692 26.7925C57.4805 26.7925 57.2918 26.7925 57.1031 26.8868L51.9144 13.9623C52.6692 13.3019 53.2352 12.3585 53.2352 11.3208C53.2352 9.43396 51.7258 8.01887 49.9333 8.01887C48.8956 8.01887 47.8578 8.58491 47.2918 9.33962L34.0843 3.67925C34.0843 3.58491 34.0843 3.49057 34.0843 3.39623C34.0843 1.60377 32.6692 0.0943396 30.7824 0C28.9899 0 27.4805 1.50943 27.4805 3.30189C27.4805 3.49057 27.4805 3.58491 27.4805 3.77359L14.6503 8.96226C13.9899 8.20755 13.0465 7.73585 12.0088 7.73585C10.2163 7.73585 8.7069 9.24528 8.7069 11.0377C8.7069 12.0755 9.17859 13.0189 9.93331 13.5849L4.27293 26.7925C2.19746 26.6038 0.593689 28.2075 0.593689 30.0943C0.593689 31.9811 2.10312 33.3962 3.89558 33.3962C4.08426 33.3962 4.27293 33.3962 4.36727 33.3019L9.55595 46.1321C8.80124 46.7925 8.32954 47.6415 8.32954 48.6792C8.32954 51.6981 12.1031 53.2076 14.1786 50.8491L27.4805 56.5094C27.4805 56.6038 27.4805 56.6981 27.4805 56.6981C27.4805 58.4906 28.9899 60 30.7824 60C32.5748 60 34.0843 58.4906 34.0843 56.6981C34.0843 56.6038 34.0843 56.4151 34.0843 56.3208L47.0088 51.1321C47.5748 51.7925 48.5182 52.2642 49.4616 52.2642C51.3484 52.2642 52.7635 50.7547 52.7635 48.9623C52.7635 48.0189 52.2918 47.0755 51.6314 46.5094L57.1975 33.3962C57.3861 33.3962 57.4805 33.3962 57.6692 33.3962C59.4616 33.3962 60.9711 31.8868 60.9711 30.0943C60.9711 28.3019 59.4616 26.7925 57.6692 26.7925ZM49.839 9.81132C50.688 9.81132 51.2541 10.4717 51.2541 11.2264C51.2541 12.3585 49.9333 13.1132 48.9899 12.4528C47.8578 11.6038 48.4239 9.81132 49.839 9.81132ZM30.7824 1.88679C31.6314 1.88679 32.1975 2.54717 32.1975 3.39623C32.1975 4.15094 31.4427 4.90566 30.688 4.81132C28.8012 4.81132 28.8956 1.88679 30.7824 1.88679ZM12.0088 9.62264C13.1409 9.62264 13.8956 10.8491 13.2352 11.8868C12.9522 12.2642 12.5748 12.5472 12.0088 12.5472C11.2541 12.5472 10.5937 11.8868 10.5937 11.1321C10.5937 10.1887 11.2541 9.62264 12.0088 9.62264ZM2.48048 30.0943C2.48048 29.3396 3.14086 28.6792 3.89558 28.6792C4.55595 28.6792 5.31067 29.2453 5.31067 30.0943C5.31067 30.6604 5.02765 31.1321 4.46161 31.4151C3.61256 31.8868 2.48048 31.2264 2.48048 30.0943ZM10.2163 48.7736C10.2163 48.2076 10.5937 47.6415 11.1597 47.4528C12.0088 47.0755 13.1409 47.7359 13.1409 48.7736C13.1409 50.6604 10.2163 50.6604 10.2163 48.7736ZM30.7824 58.3019C30.0277 58.3019 29.3673 57.6415 29.3673 56.8868C29.3673 56.2264 29.9333 55.4717 30.7824 55.4717C31.5371 55.4717 32.1975 56.1321 32.1975 56.8868C32.1975 57.6415 31.5371 58.3019 30.7824 58.3019ZM49.4616 50.4717C48.7069 50.4717 48.0465 49.8113 48.0465 49.0566C48.0465 48.3019 48.7069 47.6415 49.4616 47.6415C50.3107 47.6415 50.8767 48.3019 50.8767 49.0566C50.8767 49.8113 50.2163 50.4717 49.4616 50.4717ZM49.9333 45.7547C49.7446 45.7547 49.6503 45.6604 49.4616 45.6604C47.6692 45.6604 46.1597 47.1698 46.1597 48.9623C46.1597 49.1509 46.1597 49.3396 46.2541 49.5283L33.4239 54.717C32.8578 53.9623 31.9144 53.4906 30.8767 53.4906C29.7446 53.4906 28.8012 54.0566 28.2352 54.8113L15.0277 49.1509C15.0277 48.9623 15.0277 48.8679 15.0277 48.6792C15.0277 47.5472 14.4616 46.5094 13.5182 45.8491C12.8578 45.3774 12.1031 45.283 11.3484 45.3774L6.15973 32.6415C6.8201 31.9811 7.2918 31.1321 7.2918 30.0943C7.2918 29.0566 6.8201 28.1132 6.06539 27.5472L11.7258 14.3396C13.0465 14.5283 14.1786 13.8679 14.839 12.9245C15.3107 12.2642 15.405 11.5094 15.405 10.7547L28.2352 5.56604C28.8956 6.22642 29.7446 6.69811 30.7824 6.69811C31.6314 6.69811 32.4805 6.32075 33.1409 5.75472C33.2352 5.66038 33.3295 5.56604 33.4239 5.4717L46.5371 11.0377C46.5371 11.1321 46.5371 11.2264 46.5371 11.2264C46.5371 12.3585 47.1031 13.3019 47.9522 13.9623C48.5182 14.3396 49.1786 14.5283 49.839 14.5283C49.9333 14.5283 50.0277 14.5283 50.122 14.5283L55.405 27.6415C54.7446 28.2075 54.3673 29.1509 54.3673 30.0943C54.3673 31.1321 54.839 31.9811 55.4994 32.6415L49.9333 45.7547ZM57.6692 31.6038C56.8201 31.6038 56.2541 30.8491 56.2541 30.1887C56.2541 29.434 56.9144 28.7736 57.6692 28.7736C58.4239 28.7736 59.0843 29.434 59.0843 30.1887C59.0843 30.9434 58.4239 31.6038 57.6692 31.6038Z" fill="#0CB4C4"></path></svg>