<svg width="61" height="60" viewBox="0 0 61 60" fill="none" xmlns="http://www.w3.org/2000/svg"><path d="M18.1774 14.6962C22.2296 14.6962 25.5225 11.4034 25.5225 7.35116C25.5225 3.29891 22.2296 0 18.1774 0C14.1252 0 10.8262 3.29891 10.8262 7.35116C10.8323 11.3973 14.1252 14.6962 18.1774 14.6962ZM18.1774 1.87728C21.1908 1.87728 23.6452 4.33171 23.6452 7.35116C23.6452 10.3645 21.1908 12.819 18.1774 12.819C15.158 12.819 12.7035 10.3645 12.7035 7.35116C12.7096 4.33171 15.164 1.87728 18.1774 1.87728ZM34.514 29.9332H29.8906V26.2211C29.8906 21.1786 26.1665 16.9927 21.3244 16.2637C21.3123 16.2637 21.3001 16.2576 21.294 16.2576C20.8141 16.1847 20.322 16.1482 19.8177 16.1482H16.5492C16.051 16.1482 15.5529 16.1847 15.0729 16.2576C15.0608 16.2576 15.0486 16.2576 15.0365 16.2637C10.1944 16.9927 6.47023 21.1847 6.47023 26.2211V29.9332H1.84083C0.826246 29.9332 0 30.7594 0 31.7801V34.2284C0 35.243 0.826246 36.0693 1.84083 36.0693H2.29648V50.8749C2.29648 52.1628 3.34751 53.2139 4.63548 53.2139H31.7193C33.0073 53.2139 34.0583 52.1628 34.0583 50.8749V36.0693H34.514C35.5286 36.0693 36.3609 35.243 36.3609 34.2284V31.7801C36.3609 30.7594 35.5286 29.9332 34.514 29.9332ZM19.6233 18.0255L18.1835 20.5225L16.7375 18.0255H19.6233ZM8.34751 26.2211C8.34751 22.339 11.0632 19.0826 14.6902 18.2382L17.3633 22.8676C17.5334 23.1592 17.8433 23.3354 18.1774 23.3354C18.5115 23.3354 18.8214 23.1592 18.9915 22.8676L21.4763 18.5723L21.6707 18.2382C25.2977 19.0826 28.0134 22.339 28.0134 26.2211V29.9332H8.34751V26.2211ZM32.181 50.8749C32.181 51.13 31.9745 51.3366 31.7193 51.3366H4.63548C4.38639 51.3366 4.17375 51.1239 4.17375 50.8749V36.0693H32.181V50.8749ZM34.4775 34.192H1.87728V31.8105H34.4775V34.192ZM41.0875 33.0316C41.0875 37.0838 44.3864 40.3827 48.4386 40.3827C52.4909 40.3827 55.7837 37.0838 55.7837 33.0316C55.7837 28.9793 52.4909 25.6804 48.4386 25.6804C44.3864 25.6804 41.0875 28.9733 41.0875 33.0316ZM53.9064 33.0316C53.9064 36.051 51.452 38.5055 48.4386 38.5055C45.4192 38.5055 42.9648 36.051 42.9648 33.0316C42.9648 30.0122 45.4192 27.5577 48.4386 27.5577C51.452 27.5577 53.9064 30.0122 53.9064 33.0316ZM50.0729 41.8287H46.8044C41.2515 41.8287 36.7315 46.3487 36.7315 51.9016V57.4909C36.7315 58.8761 37.8554 60 39.2406 60H57.6306C59.0158 60 60.1397 58.8761 60.1397 57.4909V51.9016C60.1458 46.3487 55.6258 41.8287 50.0729 41.8287ZM58.2685 57.4909C58.2685 57.8311 57.9769 58.1227 57.6367 58.1227H39.2406C38.9004 58.1227 38.6088 57.8311 38.6088 57.4909V51.9016C38.6088 47.3815 42.2843 43.706 46.8044 43.706H50.0729C54.593 43.706 58.2685 47.3815 58.2685 51.9016V57.4909ZM40.0729 20.6197H45.3341L46.8773 23.2989C47.2054 23.8578 47.7886 24.192 48.4326 24.192C49.0766 24.192 49.6598 23.8578 49.9879 23.2928L51.531 20.6197H56.8044C58.226 20.6197 59.3864 19.4593 59.3864 18.0377V8.41434C59.3864 6.98664 58.226 5.83232 56.8044 5.83232H40.0729C38.6452 5.83232 37.4909 6.99271 37.4909 8.41434V18.0377C37.4909 19.4593 38.6513 20.6197 40.0729 20.6197ZM39.3682 8.41434C39.3682 8.03159 39.6902 7.7096 40.0729 7.7096H56.8044C57.1871 7.7096 57.5091 8.03159 57.5091 8.41434V18.0377C57.5091 18.4265 57.1932 18.7424 56.8044 18.7424H51.4945C50.8445 18.7424 50.2612 19.0766 49.9392 19.6416L48.4386 22.2357L46.938 19.6355C46.61 19.0766 46.0267 18.7424 45.3827 18.7424H40.0729C39.6841 18.7424 39.3682 18.4265 39.3682 18.0377V8.41434ZM41.0996 10.9964C41.0996 10.48 41.5188 10.0547 42.0413 10.0547H54.842C55.3584 10.0547 55.7837 10.4739 55.7837 10.9964C55.7837 11.5128 55.3645 11.938 54.842 11.938H42.0352C41.5188 11.932 41.0996 11.5128 41.0996 10.9964ZM41.0996 15.4617C41.0996 14.9453 41.5188 14.52 42.0413 14.52H48.4447C48.9611 14.52 49.3864 14.9392 49.3864 15.4617C49.3864 15.9781 48.9672 16.4034 48.4447 16.4034H42.0352C41.5188 16.3973 41.0996 15.9781 41.0996 15.4617Z" fill="#0CB4C4"></path></svg>