<svg xmlns="http://www.w3.org/2000/svg" xmlns:xlink="http://www.w3.org/1999/xlink" version="1.1" id="Layer_1" x="0px" y="0px" width="70.835px" height="60px" viewBox="0 0 70.835 60" style="enable-background:new 0 0 70.835 60;" xml:space="preserve"><g><path style="fill:#0CB4C4;" d="M4.271,60c-1.117,0-2.167-0.434-2.959-1.222l-0.086-0.084c-1.636-1.639-1.634-4.297,0.001-5.929 l11.022-11.038c-3.752-6.973-1.395-15.517,5.407-19.579V3.547C17.656,1.591,19.249,0,21.205,0h46.082 c1.955,0,3.548,1.591,3.548,3.547v36.628c-0.014,1.944-1.604,3.528-3.547,3.533H36.839c-0.382,0.515-0.804,1.005-1.253,1.461 c-2.776,2.773-6.466,4.299-10.391,4.299c-2.414,0-4.811-0.603-6.94-1.745L7.232,58.778C6.439,59.566,5.389,60,4.271,60z M2.612,54.158c-0.419,0.421-0.646,0.972-0.646,1.559s0.229,1.138,0.646,1.552l0.085,0.086c0.432,0.427,0.98,0.652,1.563,0.652 c0.592,0,1.146-0.231,1.563-0.652L16.53,46.639c-1.234-0.886-2.308-1.959-3.196-3.195L2.612,54.158z M25.228,22.012 c-3.384,0-6.57,1.314-8.972,3.699C13.845,28.108,12.511,31.3,12.5,34.7c-0.012,3.4,1.303,6.601,3.699,9.013 c2.407,2.422,5.614,3.757,9.029,3.757c3.354,0,6.514-1.291,8.906-3.637l0.064-0.071c2.383-2.367,3.752-5.65,3.756-9.009 c0.004-3.389-1.31-6.579-3.698-8.984C31.85,23.346,28.643,22.012,25.228,22.012z M67.287,41.738c0.86,0,1.561-0.701,1.561-1.562 V13.986H19.644v7.16c1.766-0.726,3.628-1.093,5.543-1.093c1.481,0,2.944,0.224,4.355,0.665v-3.419c0-0.547,0.446-0.993,0.993-0.993 h7.045c0.548,0,0.993,0.446,0.993,0.993v11.412c1.928,4.102,1.769,8.975-0.428,13.027H67.287z M31.53,21.499 c1.51,0.719,2.873,1.684,4.055,2.867c0.354,0.354,0.688,0.728,1.002,1.117v-7.19H31.53V21.499z M68.848,12V3.547 c0-0.861-0.7-1.562-1.561-1.562H21.205c-0.862,0-1.562,0.701-1.562,1.562V12H68.848z"></path><path style="fill:#0CB4C4;" d="M24.761,10.277c-1.761,0-3.214-1.433-3.24-3.192c-0.014-0.866,0.312-1.686,0.914-2.307 c0.603-0.622,1.412-0.971,2.277-0.984c0.001,0,0.001,0,0.001,0c1.829,0,3.285,1.454,3.29,3.242c0,1.76-1.433,3.214-3.192,3.241 L24.761,10.277z M24.761,5.78c-0.683,0-1.233,0.534-1.254,1.217c-0.011,0.335,0.11,0.654,0.34,0.899 c0.229,0.244,0.541,0.384,0.876,0.395c0.731,0,1.294-0.563,1.294-1.255c0-0.683-0.534-1.234-1.217-1.255l-0.039-0.229V5.78z"></path><path style="fill:#0CB4C4;" d="M33.542,10.277c-1.788,0-3.243-1.455-3.243-3.241c0-1.788,1.455-3.242,3.243-3.242 c1.783,0.004,3.236,1.458,3.241,3.242C36.783,8.822,35.329,10.277,33.542,10.277z M33.542,5.779c-0.692,0-1.255,0.563-1.255,1.256 c0,0.692,0.563,1.255,1.255,1.255c0.691,0,1.255-0.563,1.255-1.255C34.797,6.343,34.233,5.779,33.542,5.779z"></path><path style="fill:#0CB4C4;" d="M42.353,10.277c-1.783,0-3.237-1.451-3.242-3.234c-0.002-0.866,0.333-1.68,0.944-2.294 c0.611-0.614,1.424-0.953,2.29-0.955c1.787,0,3.244,1.454,3.25,3.242c0,1.784-1.451,3.237-3.234,3.242H42.353z M42.354,5.779 c-0.689,0-1.253,0.561-1.257,1.25c-0.004,0.692,0.558,1.258,1.25,1.262c0.697,0,1.261-0.563,1.261-1.255 c0-0.689-0.561-1.252-1.248-1.256l-0.006-0.228V5.779z"></path><path style="fill:#0CB4C4;" d="M42.307,38.798c-0.548,0-0.993-0.445-0.993-0.993V23.097c0-0.547,0.445-0.993,0.993-0.993h7.045 c0.547,0,0.993,0.445,0.993,0.993v14.708c0,0.548-0.446,0.993-0.993,0.993H42.307z M48.356,36.813V24.09H43.3v12.722H48.356z"></path><path style="fill:#0CB4C4;" d="M54.039,38.798c-0.548,0-0.993-0.445-0.993-0.993v-8.888c0-0.547,0.445-0.993,0.993-0.993h7.045 c0.547,0,0.993,0.445,0.993,0.993v8.888c0,0.548-0.446,0.993-0.993,0.993H54.039z M60.09,36.813v-6.902h-5.057v6.902H60.09z"></path><path style="fill:#0CB4C4;" d="M25.2,44.665c-2.645,0-5.13-1.03-6.999-2.9c-1.868-1.869-2.896-4.355-2.896-6.999 c0.001-2.643,1.031-5.128,2.901-6.997c1.868-1.868,4.353-2.897,6.994-2.897c2.643,0,5.127,1.029,6.995,2.897 c1.874,1.874,2.903,4.359,2.902,7.003s-1.031,5.128-2.902,6.996C30.327,43.636,27.842,44.665,25.2,44.665L25.2,44.665z M25.203,26.855c-2.112,0-4.099,0.822-5.592,2.315c-1.494,1.494-2.318,3.479-2.318,5.592c0,2.113,0.822,4.1,2.316,5.594 c1.493,1.495,3.48,2.318,5.594,2.318c2.112,0,4.098-0.822,5.591-2.316l0.24,0.084l-0.162-0.16 c3.042-3.084,3.008-8.069-0.076-11.111C29.301,27.677,27.315,26.855,25.203,26.855z"></path></g></svg>