<svg xmlns="http://www.w3.org/2000/svg" xmlns:xlink="http://www.w3.org/1999/xlink" version="1.1" id="Layer_1" x="0px" y="0px" width="43.84px" height="60px" viewBox="0 0 43.84 60" style="enable-background:new 0 0 43.84 60;" xml:space="preserve"><g><path style="fill:#0CB4C4;" d="M21.896,19.813c-2.214,0-4.016-1.801-4.016-4.015c0-2.214,1.801-4.016,4.016-4.016 c2.213,0,4.014,1.801,4.014,4.016C25.911,18.011,24.11,19.813,21.896,19.813z M21.896,13.889c-1.034,0-1.908,0.874-1.908,1.909 c0,1.034,0.874,1.908,1.908,1.908c1.034,0,1.908-0.874,1.908-1.908C23.804,14.763,22.93,13.889,21.896,13.889z"></path><path style="fill:#0CB4C4;" d="M39.856,60c-0.36,0-0.77-0.274-0.914-0.611L31.34,43.088l-0.195,0.039 c-2.635,0.528-5.235,0.826-7.727,0.887l-0.246,0.006v2.476c0,0.691-0.584,1.276-1.276,1.276c-0.692,0-1.277-0.584-1.277-1.276 V44.02l-0.246-0.006c-2.492-0.061-5.091-0.359-7.727-0.887l-0.194-0.039L4.854,59.317c-0.151,0.4-0.482,0.619-0.918,0.619H3.681 c-0.533-0.111-0.788-0.583-0.832-0.985L1.958,44.697c0-0.197,0.053-0.355,0.114-0.539l1.82-3.839l-0.238-0.104 c-1.002-0.438-2.031-0.889-2.976-1.393c-0.31-0.155-0.53-0.412-0.625-0.727c-0.096-0.314-0.062-0.661,0.096-0.977 c0.211-0.421,0.617-0.673,1.085-0.673c0.207,0,0.419,0.051,0.614,0.149c0.948,0.506,1.921,0.96,2.885,1.346l0.222,0.089 L13.13,20.19l-0.051-0.106c-0.66-1.386-0.994-2.828-0.994-4.286c0-3.695,2.069-7.025,5.401-8.691l0.14-0.07V4.206 C17.626,1.887,19.513,0,21.833,0c2.358,0,4.206,1.848,4.206,4.206v2.896l0.142,0.069c3.28,1.608,5.399,5.019,5.399,8.69 c0,1.458-0.334,2.899-0.994,4.286l-0.051,0.107l8.368,17.837l0.221-0.088c0.957-0.383,1.93-0.837,2.891-1.349 c0.175-0.096,0.375-0.146,0.58-0.146c0.479,0,0.905,0.258,1.113,0.673c0.151,0.302,0.175,0.637,0.067,0.943 c-0.114,0.326-0.367,0.593-0.711,0.752c-0.874,0.465-1.771,0.896-2.925,1.399l-0.238,0.104l1.832,3.865 c0.103,0.16,0.103,0.365,0.103,0.529l-0.892,14.25c-0.048,0.482-0.377,0.857-0.86,0.974H39.856z M37.795,41.227 c-1.312,0.478-2.549,0.839-4.119,1.268l-0.288,0.079l5.284,11.352l0.48-0.09l0.577-8.916l-1.715-3.773L37.795,41.227z M4.063,44.92 l0.577,8.916l0.48,0.089l5.217-11.348l-0.726-0.208C8.417,42.029,7.18,41.678,6,41.229l-0.221-0.085L4.063,44.92z M21.896,37.831 c0.691,0,1.276,0.584,1.276,1.276v2.433l0.267-0.016c2.646-0.155,4.639-0.373,6.463-0.704l0.321-0.059l-7.098-15.246l-0.189,0.032 c-0.361,0.06-0.661,0.06-1.041,0.06c-0.38,0-0.68,0-1.042-0.06l-0.189-0.032l-7.098,15.246l0.321,0.059 c2.241,0.407,4.418,0.644,6.47,0.704l0.26,0.007v-2.425C20.62,38.416,21.204,37.831,21.896,37.831z M6.839,38.868l0.258,0.094 c1.21,0.44,2.652,0.938,4.17,1.283l0.199,0.045l7.073-15.26l-0.238-0.103c-1.303-0.558-2.476-1.355-3.487-2.367l-0.255-0.254 L6.839,38.868z M28.903,22.509c-0.883,1.001-2.114,1.836-3.466,2.352l-0.252,0.096l7.081,15.278l0.206-0.056 c1.384-0.377,2.814-0.768,4.163-1.281l0.253-0.096L29.159,22.22L28.903,22.509z M21.896,8.157c-4.213,0-7.641,3.456-7.641,7.704 c0,4.213,3.428,7.64,7.641,7.64c4.212,0,7.639-3.456,7.639-7.703C29.536,11.585,26.108,8.157,21.896,8.157z M21.896,6.114 c0.626,0,1.246,0.064,1.792,0.186l0.307,0.068V4.206c0-1.158-0.941-2.099-2.099-2.099c-1.158,0-2.099,0.941-2.099,2.099v2.161 l0.307-0.068C20.65,6.178,21.27,6.114,21.896,6.114z"></path></g></svg>