<svg xmlns="http://www.w3.org/2000/svg" xmlns:xlink="http://www.w3.org/1999/xlink" version="1.1" id="Layer_1" x="0px" y="0px" width="50px" height="50px" viewBox="0 0 50 50" enable-background="new 0 0 50 50" xml:space="preserve"><g><g><path fill="#0CB4C4" d="M18.751,45.211h-3.713c-0.464,0-0.774,0.309-0.774,0.774s0.309,0.774,0.774,0.774h3.713 c0.464,0,0.774-0.309,0.774-0.774S19.138,45.211,18.751,45.211z"></path><path fill="#0CB4C4" d="M18.751,47.006h-3.713c-0.601,0-1.021-0.42-1.021-1.021c0-0.601,0.42-1.021,1.021-1.021h3.713 c0.491,0,1.021,0.391,1.021,1.021C19.772,46.586,19.353,47.006,18.751,47.006z M15.038,45.459c-0.33,0-0.526,0.196-0.526,0.526 c0,0.33,0.196,0.526,0.526,0.526h3.713c0.33,0,0.526-0.196,0.526-0.526c0-0.325-0.273-0.526-0.526-0.526H15.038z"></path></g><g><path fill="#0CB4C4" d="M48.145,21.851L44.2,21.077c-1.006-0.232-2.011,0.387-2.321,1.392l-5.26-1.779 c-1.006-0.309-2.088-0.387-3.171-0.077V3.287c0.077-1.624-1.315-3.017-3.017-3.017H3.281c-1.624,0-3.017,1.392-3.017,3.017V45.83 c0,2.166,1.779,3.945,3.945,3.945h26.222c1.702,0,3.017-1.392,3.017-3.017v-8.973l2.785-0.541l2.553,0.541 c-0.155,1.083,0.541,2.088,1.547,2.243c3.945,0.774,3.945,0.851,4.332,0.851c0.928,0,1.779-0.619,1.934-1.624l3.094-15.084 C49.924,23.089,49.228,22.006,48.145,21.851z M3.281,1.817h27.15c0.851,0,1.547,0.696,1.547,1.47v2.939H1.811V3.287 C1.811,2.513,2.507,1.817,3.281,1.817z M30.431,48.228H4.209c-1.315,0-2.398-1.083-2.398-2.398v-2.011h30.167v2.939 C31.978,47.532,31.282,48.228,30.431,48.228z M31.978,42.272H1.811V7.85h30.167V21l-7.735,2.166 c-1.702,0.464-2.707,2.243-2.166,3.945c0.464,1.547,2.166,2.475,3.713,2.166l3.481-0.851c0.619-0.155,0.928,0.232,1.083,0.541 c0.155,0.309,0.155,0.774-0.309,1.16l-8.122,2.088l-10.21-4.022c-0.851-0.309-1.779-0.309-2.63,0.077 c-0.851,0.387-1.47,1.083-1.779,1.856c-0.619,1.547,0.155,3.403,1.779,4.1l11.371,5.105c1.006,0.464,2.166,0.619,3.326,0.387 l8.199-1.624V42.272z M36.078,35.697L23.47,38.249c-0.774,0.155-1.624,0.077-2.398-0.232L9.701,32.912 c-0.928-0.387-1.238-1.47-0.928-2.166c0.309-0.928,1.392-1.392,2.321-1.083l10.442,4.177c0.155,0.077,0.309,0.077,0.464,0 l8.586-2.243c0.928-0.232,1.856-1.702,1.238-3.171c-0.464-1.16-1.702-1.779-2.862-1.47l-3.481,0.851 c-0.851,0.232-1.624-0.309-1.934-1.083c-0.232-0.851,0.232-1.779,1.083-2.011l9.127-2.553c0.774-0.232,1.624-0.232,2.398,0.077 l5.415,1.779c-0.696,3.481-1.238,6.111-2.553,12.299C36.31,35.697,36.387,35.619,36.078,35.697z M48.222,23.862l-3.094,15.084 c-0.077,0.232-0.309,0.387-0.541,0.309l-3.945-0.774c-0.232-0.077-0.387-0.309-0.309-0.541c0.774-3.636,1.315-6.265,3.094-15.084 c0.077-0.232,0.309-0.387,0.541-0.309l3.945,0.774C48.145,23.398,48.299,23.63,48.222,23.862z"></path><path fill="#0CB4C4" d="M30.431,50.022H4.209c-2.312,0-4.192-1.881-4.192-4.192V3.287c0-1.769,1.495-3.264,3.264-3.264h27.15 c0.906,0,1.782,0.375,2.405,1.027c0.594,0.622,0.898,1.421,0.86,2.249v16.998c0.958-0.212,1.973-0.156,2.996,0.159l5.038,1.704 c0.423-0.974,1.504-1.553,2.526-1.322l3.936,0.772c0.559,0.079,1.058,0.39,1.394,0.872c0.35,0.503,0.477,1.139,0.347,1.743 L46.84,39.304c-0.164,1.068-1.06,1.823-2.176,1.823c-0.226,0-0.336-0.023-0.942-0.154c-0.552-0.118-1.535-0.329-3.437-0.702 c-1.059-0.162-1.817-1.165-1.767-2.29l-2.288-0.485l-2.535,0.493v8.769C33.696,48.559,32.232,50.022,30.431,50.022z M3.281,0.518 c-1.475,0-2.769,1.294-2.769,2.769V45.83c0,2.039,1.658,3.697,3.697,3.697h26.222c1.527,0,2.769-1.242,2.769-2.769v-9.177 l3.034-0.59l2.828,0.599L39.03,37.82c-0.135,0.949,0.466,1.829,1.34,1.964c1.916,0.375,2.903,0.587,3.457,0.706 c0.598,0.128,0.669,0.142,0.837,0.142c0.866,0,1.561-0.582,1.689-1.415l3.096-15.096c0.102-0.474,0.003-0.968-0.269-1.359 c-0.257-0.368-0.637-0.605-1.07-0.667l-3.957-0.776c-0.912-0.206-1.769,0.352-2.036,1.223l-0.075,0.243l-5.501-1.861 c-1.035-0.318-2.07-0.346-3.024-0.074l-0.315,0.09V3.287c0.033-0.703-0.223-1.372-0.722-1.895 c-0.53-0.555-1.276-0.874-2.047-0.874H3.281z M30.431,48.475H4.209c-1.459,0-2.645-1.186-2.645-2.645v-2.259h30.662v3.187 C32.226,47.689,31.404,48.475,30.431,48.475z M2.059,44.066v1.764c0,1.185,0.965,2.15,2.15,2.15h26.222 c0.692,0,1.3-0.571,1.3-1.222v-2.692H2.059z M32.226,42.519H1.564V7.603h30.662v13.585l-7.916,2.217 c-0.772,0.21-1.405,0.711-1.785,1.409c-0.374,0.687-0.449,1.476-0.212,2.222c0.358,1.191,1.565,2.053,2.873,2.053 c0.189,0,0.375-0.018,0.556-0.054l3.47-0.849c0.112-0.028,0.222-0.042,0.328-0.042c0.309,0,0.741,0.124,1.036,0.714 c0.196,0.393,0.202,0.982-0.372,1.461l-0.097,0.049l-8.2,2.109l-0.074-0.03l-10.21-4.022c-0.807-0.292-1.679-0.272-2.437,0.073 c-0.747,0.34-1.35,0.968-1.651,1.723C6.954,31.667,7.693,33.363,9.18,34l11.375,5.106c0.979,0.453,2.107,0.583,3.176,0.37 l8.495-1.683V42.519z M2.059,42.024h29.672v-3.628l-7.903,1.565c-1.167,0.232-2.409,0.09-3.478-0.405L8.981,34.454 c-1.728-0.741-2.585-2.724-1.908-4.418c0.349-0.872,1.044-1.598,1.907-1.99c0.874-0.398,1.875-0.426,2.817-0.085l10.143,3.995 l7.988-2.054c0.394-0.358,0.258-0.719,0.206-0.825c-0.186-0.371-0.442-0.502-0.802-0.412l-3.482,0.852 c-1.763,0.35-3.53-0.742-4.009-2.335c-0.277-0.872-0.19-1.798,0.249-2.605c0.439-0.806,1.2-1.408,2.088-1.65l7.552-2.115V8.098 H2.059V42.024z M44.709,39.523c-0.069,0-0.135-0.012-0.201-0.033l-3.914-0.766c-0.202-0.065-0.346-0.179-0.436-0.328 c-0.099-0.165-0.121-0.356-0.061-0.535c0.743-3.496,1.267-6.035,3.086-15.054c0.132-0.405,0.517-0.61,0.862-0.496l3.914,0.766 c0.41,0.134,0.615,0.51,0.497,0.862l-3.086,15.055C45.263,39.323,45,39.523,44.709,39.523z M43.845,22.774 c-0.075,0-0.153,0.068-0.184,0.161c-1.812,8.991-2.337,11.532-3.087,15.056c-0.02,0.068-0.015,0.109,0.01,0.15 c0.028,0.047,0.077,0.086,0.136,0.105l3.989,0.781c0.075,0,0.153-0.068,0.184-0.161l3.086-15.055 c0.041-0.127-0.045-0.224-0.145-0.257L43.845,22.774z M22.676,38.574c-0.574,0-1.161-0.113-1.696-0.327L9.6,33.139 c-0.476-0.198-0.85-0.582-1.047-1.077c-0.188-0.472-0.19-1.001-0.006-1.416c0.26-0.784,1.049-1.326,1.954-1.326 c0.23,0,0.455,0.037,0.671,0.108l10.456,4.182c0.124,0.06,0.175,0.051,0.262,0.009l8.633-2.262c0.385-0.096,0.772-0.453,1.01-0.93 c0.175-0.351,0.416-1.064,0.062-1.906c-0.34-0.85-1.136-1.397-2.03-1.397c-0.183,0-0.365,0.024-0.54,0.071l-3.486,0.853 c-0.147,0.04-0.303,0.061-0.457,0.061c-0.758,0-1.451-0.508-1.766-1.293c-0.285-1.039,0.279-2.077,1.248-2.342l9.126-2.552 c0.854-0.256,1.769-0.229,2.556,0.086l5.609,1.842l-0.044,0.215c-0.674,3.372-1.203,5.947-2.554,12.302l-0.052,0.246l-0.245-0.055 c-1.043-0.239-1.674-0.397-2.073-0.497c-0.385-0.097-0.56-0.141-0.647-0.141c-0.027,0-0.051,0.005-0.104,0.017l-12.619,2.556 C23.245,38.546,22.962,38.574,22.676,38.574z M10.501,29.815c-0.692,0-1.292,0.406-1.493,1.009 c-0.14,0.317-0.135,0.703,0.005,1.054c0.147,0.37,0.425,0.656,0.783,0.805l11.377,5.107c0.7,0.281,1.523,0.362,2.248,0.216 l12.607-2.553c0.054-0.014,0.126-0.03,0.214-0.03c0.148,0,0.304,0.04,0.768,0.156c0.365,0.092,0.924,0.232,1.818,0.438 c1.282-6.039,1.811-8.612,2.456-11.834l-5.206-1.711c-0.711-0.284-1.495-0.302-2.249-0.075l-9.132,2.554 c-0.695,0.19-1.112,0.971-0.911,1.708c0.275,0.683,0.96,1.09,1.63,0.909l3.487-0.852c0.213-0.057,0.438-0.087,0.663-0.087 c1.097,0,2.073,0.669,2.488,1.705c0.313,0.744,0.285,1.589-0.077,2.315c-0.307,0.613-0.803,1.057-1.33,1.188l-8.583,2.243 c-0.128,0.075-0.415,0.094-0.637-0.018l-10.424-4.168C10.851,29.843,10.678,29.815,10.501,29.815z M32.226,6.474H1.564V3.287 c0-0.915,0.803-1.717,1.717-1.717h27.15c0.973,0,1.795,0.787,1.795,1.717V6.474z M2.059,5.979h29.672V3.287 c0-0.651-0.607-1.222-1.3-1.222H3.281c-0.64,0-1.222,0.583-1.222,1.222V5.979z"></path></g><g><path fill="#0CB4C4" d="M14.265,27.111c4.564,0,8.277-3.713,8.277-8.199s-3.713-8.199-8.277-8.199s-8.277,3.713-8.277,8.199 S9.701,27.111,14.265,27.111z M14.265,12.259c3.713,0,6.73,3.017,6.73,6.652s-3.017,6.652-6.73,6.652s-6.73-3.017-6.73-6.652 S10.552,12.259,14.265,12.259z"></path><path fill="#0CB4C4" d="M14.265,27.358c-4.7,0-8.524-3.789-8.524-8.447s3.824-8.447,8.524-8.447s8.524,3.789,8.524,8.447 S18.965,27.358,14.265,27.358z M14.265,10.96c-4.427,0-8.029,3.567-8.029,7.952s3.602,7.952,8.029,7.952s8.029-3.567,8.029-7.952 S18.692,10.96,14.265,10.96z M14.265,25.811c-3.847,0-6.977-3.095-6.977-6.9s3.13-6.9,6.977-6.9s6.977,3.095,6.977,6.9 S18.112,25.811,14.265,25.811z M14.265,12.507c-3.575,0-6.482,2.873-6.482,6.405s2.907,6.405,6.482,6.405s6.482-2.873,6.482-6.405 S17.839,12.507,14.265,12.507z"></path></g><g><path fill="#0CB4C4" d="M14.265,21.619c-0.541,0-1.006-0.464-1.006-0.928s-0.309-0.774-0.774-0.774s-0.774,0.309-0.774,0.774 c0,1.083,0.774,2.011,1.779,2.398v0.387c0,0.464,0.309,0.774,0.774,0.774s0.774-0.309,0.774-0.774v-0.464 c1.006-0.309,1.779-1.238,1.779-2.398c0-1.392-1.16-2.475-2.553-2.475c-0.541,0-1.006-0.464-1.006-0.928s0.464-0.928,1.006-0.928 c0.541,0,1.006,0.464,1.006,0.928s0.309,0.774,0.774,0.774s0.774-0.309,0.774-0.774c0-1.083-0.696-2.011-1.779-2.398v-0.464 c0-0.464-0.309-0.774-0.774-0.774s-0.774,0.309-0.774,0.774v0.464c-1.006,0.309-1.779,1.238-1.779,2.398 c0,1.392,1.16,2.475,2.553,2.475c0.541,0,1.006,0.464,1.006,0.928S14.806,21.619,14.265,21.619z"></path><path fill="#0CB4C4" d="M14.265,24.496c-0.601,0-1.021-0.42-1.021-1.021v-0.221c-1.071-0.478-1.779-1.489-1.779-2.563 c0-0.601,0.42-1.021,1.021-1.021s1.021,0.42,1.021,1.021c0,0.308,0.338,0.681,0.758,0.681c0.401,0,0.758-0.424,0.758-0.758 c0-0.308-0.338-0.681-0.758-0.681c-1.544,0-2.8-1.221-2.8-2.723c0-1.154,0.708-2.167,1.779-2.574v-0.288 c0-0.601,0.42-1.021,1.021-1.021s1.021,0.42,1.021,1.021v0.295c1.087,0.455,1.779,1.446,1.779,2.567 c0,0.601-0.42,1.021-1.021,1.021c-0.601,0-1.021-0.42-1.021-1.021c0-0.308-0.338-0.681-0.758-0.681s-0.758,0.372-0.758,0.681 s0.338,0.681,0.758,0.681c1.544,0,2.8,1.221,2.8,2.723c0,1.154-0.708,2.167-1.779,2.574v0.288 C15.286,24.077,14.866,24.496,14.265,24.496z M12.486,20.165c-0.33,0-0.526,0.197-0.526,0.526c0,0.923,0.651,1.794,1.621,2.167 l0.159,0.061v0.557c0,0.329,0.196,0.526,0.526,0.526s0.526-0.197,0.526-0.526v-0.647l0.175-0.054 c0.959-0.295,1.604-1.164,1.604-2.161c0-1.228-1.034-2.228-2.305-2.228c-0.656,0-1.253-0.56-1.253-1.176s0.598-1.176,1.253-1.176 s1.253,0.56,1.253,1.176c0,0.329,0.196,0.526,0.526,0.526c0.33,0,0.526-0.197,0.526-0.526c0-0.979-0.619-1.809-1.615-2.165 l-0.164-0.058v-0.639c0-0.329-0.196-0.526-0.526-0.526s-0.526,0.197-0.526,0.526v0.647l-0.175,0.054 c-0.959,0.295-1.604,1.164-1.604,2.161c0,1.228,1.034,2.228,2.305,2.228c0.656,0,1.253,0.56,1.253,1.176 c0,0.58-0.547,1.253-1.253,1.253c-0.656,0-1.253-0.56-1.253-1.176C13.012,20.362,12.816,20.165,12.486,20.165z"></path></g><g><path fill="#0CB4C4" d="M20.53,4.834L20.53,4.834c0.464,0,0.774-0.309,0.774-0.774s-0.309-0.774-0.774-0.774l0,0 c-0.464,0-0.774,0.309-0.774,0.774S20.143,4.834,20.53,4.834z"></path><path fill="#0CB4C4" d="M20.53,5.081c-0.491,0-1.021-0.39-1.021-1.021c0-0.601,0.42-1.021,1.021-1.021s1.021,0.42,1.021,1.021 S21.132,5.081,20.53,5.081z M20.53,3.534c-0.33,0-0.526,0.197-0.526,0.526c0,0.325,0.273,0.526,0.526,0.526 c0.33,0,0.526-0.197,0.526-0.526S20.86,3.534,20.53,3.534z"></path></g><g><path fill="#0CB4C4" d="M16.895,4.834L16.895,4.834c0.464,0,0.774-0.309,0.774-0.774s-0.309-0.774-0.774-0.774l0,0 c-0.464,0-0.774,0.309-0.774,0.774S16.431,4.834,16.895,4.834z"></path><path fill="#0CB4C4" d="M16.895,5.081c-0.601,0-1.021-0.42-1.021-1.021s0.42-1.021,1.021-1.021c0.601,0,1.021,0.42,1.021,1.021 S17.496,5.081,16.895,5.081z M16.895,3.534c-0.33,0-0.526,0.197-0.526,0.526s0.196,0.526,0.526,0.526 c0.33,0,0.526-0.197,0.526-0.526S17.225,3.534,16.895,3.534z"></path></g><g><path fill="#0CB4C4" d="M13.182,4.834L13.182,4.834c0.464,0,0.774-0.309,0.774-0.774s-0.309-0.774-0.774-0.774l0,0 c-0.464,0-0.774,0.309-0.774,0.774S12.795,4.834,13.182,4.834z"></path><path fill="#0CB4C4" d="M13.182,5.081c-0.491,0-1.021-0.39-1.021-1.021c0-0.601,0.42-1.021,1.021-1.021 c0.601,0,1.021,0.42,1.021,1.021S13.783,5.081,13.182,5.081z M13.182,3.534c-0.33,0-0.526,0.197-0.526,0.526 c0,0.325,0.273,0.526,0.526,0.526c0.33,0,0.526-0.197,0.526-0.526S13.512,3.534,13.182,3.534z"></path></g></g></svg>