<svg xmlns="http://www.w3.org/2000/svg" xmlns:xlink="http://www.w3.org/1999/xlink" version="1.1" id="Layer_1" x="0px" y="0px" width="53.264px" height="50px" viewBox="0 0 53.264 50" enable-background="new 0 0 53.264 50" xml:space="preserve"><g><g><path fill="#0CB4C4" d="M50.961,39.37l-6.182-20.868v-5.297c0-1.952-1.589-3.541-3.542-3.541h-3.413V6.882h2.303 c1.386,0,2.514-1.128,2.514-2.514V2.514C42.641,1.128,41.513,0,40.128,0h-9.723c-1.386,0-2.513,1.128-2.513,2.514v1.854 c0,1.386,1.127,2.514,2.513,2.514h2.303v2.783h-6.857V4.345c0-0.46-0.372-0.832-0.832-0.832H13.474 c-0.46,0-0.832,0.372-0.832,0.832v5.319h-0.614c-1.952,0-3.541,1.589-3.541,3.541v5.297L2.303,39.37 C0.979,39.744,0,40.95,0,42.393v4.453C0,48.585,1.415,50,3.154,50H50.11c1.739,0,3.154-1.415,3.154-3.154v-4.453 C53.264,40.95,52.285,39.744,50.961,39.37z M29.556,4.368V2.514c0-0.468,0.38-0.849,0.849-0.849h9.723 c0.468,0,0.849,0.381,0.849,0.849v1.854c0,0.468-0.381,0.849-0.849,0.849c-0.348,0-9.88,0-9.723,0 C29.937,5.217,29.556,4.836,29.556,4.368z M34.373,6.882h1.787v2.783h-1.787V6.882z M24.186,5.177c0,3.062,0,8.916,0,11.893h-9.88 c0-1.221,0,4.405-0.001-11.893H24.186z M10.116,18.86c0.023-0.077,0.034-0.157,0.034-0.237v-5.418 c0-1.035,0.842-1.877,1.877-1.877h0.614v5.741h-0.228c-0.46,0-0.832,0.372-0.832,0.832c0,0.46,0.372,0.832,0.832,0.832 c5.635,0,7.901,0,13.667,0c0.46,0,0.832-0.372,0.832-0.832c0-0.46-0.372-0.832-0.832-0.832h-0.229v-5.741 c0.273,0,16.418,0,15.386,0c1.035,0,1.877,0.842,1.877,1.877v5.418c0,0.08,0.011,0.159,0.034,0.237l6.038,20.379H4.078 L10.116,18.86z M51.599,46.846c0,0.822-0.668,1.49-1.49,1.49H3.154c-0.822,0-1.49-0.668-1.49-1.49v-4.453 c0-0.822,0.668-1.49,1.49-1.49H50.11c0.822,0,1.49,0.668,1.49,1.49V46.846z"></path></g><g><path fill="#0CB4C4" d="M31.229,18.734h8.075c1.313,0,2.381-1.068,2.381-2.381v-0.778c0-1.313-1.068-2.38-2.381-2.38h-8.075 c-1.313,0-2.381,1.067-2.381,2.38v0.778C28.848,17.666,29.916,18.734,31.229,18.734z M30.513,15.575 c0-0.394,0.321-0.715,0.716-0.715h8.075c0.395,0,0.716,0.321,0.716,0.715v0.778c0,0.395-0.321,0.716-0.716,0.716h-8.075 c-0.395,0-0.716-0.321-0.716-0.716C30.513,16.353,30.513,15.575,30.513,15.575z"></path></g><g><path fill="#0CB4C4" d="M22.863,23.532h1.954c0.46,0,0.832-0.372,0.832-0.832c0-0.46-0.372-0.832-0.832-0.832h-1.954 c-0.46,0-0.832,0.372-0.832,0.832C22.031,23.16,22.403,23.532,22.863,23.532z"></path></g><g><path fill="#0CB4C4" d="M17.28,23.532h1.953c0.46,0,0.832-0.372,0.832-0.832c0-0.46-0.372-0.832-0.832-0.832H17.28 c-0.46,0-0.832,0.372-0.832,0.832C16.447,23.16,16.82,23.532,17.28,23.532z"></path></g><g><path fill="#0CB4C4" d="M28.448,23.532h1.953c0.46,0,0.832-0.372,0.832-0.832c0-0.46-0.372-0.832-0.832-0.832h-1.953 c-0.46,0-0.832,0.372-0.832,0.832C27.615,23.16,27.988,23.532,28.448,23.532z"></path></g><g><path fill="#0CB4C4" d="M35.985,23.532c0.46,0,0.832-0.372,0.832-0.832c0-0.46-0.372-0.832-0.832-0.832h-1.954 c-0.46,0-0.832,0.372-0.832,0.832c0,0.46,0.372,0.832,0.832,0.832H35.985z"></path></g><g><path fill="#0CB4C4" d="M19.239,26.904c0,0.46,0.372,0.832,0.832,0.832h1.953c0.46,0,0.832-0.372,0.832-0.832 c0-0.46-0.372-0.832-0.832-0.832h-1.953C19.612,26.072,19.239,26.444,19.239,26.904z"></path></g><g><path fill="#0CB4C4" d="M14.488,27.737h1.953c0.46,0,0.832-0.372,0.832-0.832c0-0.46-0.372-0.832-0.832-0.832h-1.953 c-0.46,0-0.832,0.372-0.832,0.832C13.656,27.364,14.028,27.737,14.488,27.737z"></path></g><g><path fill="#0CB4C4" d="M24.823,26.904c0,0.46,0.372,0.832,0.832,0.832h1.954c0.46,0,0.832-0.372,0.832-0.832 c0-0.46-0.372-0.832-0.832-0.832h-1.954C25.195,26.072,24.823,26.444,24.823,26.904z"></path></g><g><path fill="#0CB4C4" d="M31.239,26.072c-0.46,0-0.832,0.372-0.832,0.832c0,0.46,0.372,0.832,0.832,0.832h1.953 c0.46,0,0.832-0.372,0.832-0.832c0-0.46-0.372-0.832-0.832-0.832H31.239z"></path></g><g><path fill="#0CB4C4" d="M36.823,27.737h1.954c0.46,0,0.832-0.372,0.832-0.832c0-0.46-0.372-0.832-0.832-0.832h-1.954 c-0.46,0-0.832,0.372-0.832,0.832C35.991,27.364,36.363,27.737,36.823,27.737z"></path></g><g><path fill="#0CB4C4" d="M20.065,31.109c0-0.46-0.372-0.832-0.832-0.832H17.28c-0.46,0-0.832,0.372-0.832,0.832 c0,0.46,0.372,0.832,0.832,0.832h1.953C19.693,31.941,20.065,31.569,20.065,31.109z"></path></g><g><path fill="#0CB4C4" d="M14.481,31.109c0-0.46-0.372-0.832-0.832-0.832h-1.954c-0.46,0-0.832,0.372-0.832,0.832 c0,0.46,0.372,0.832,0.832,0.832h1.954C14.109,31.941,14.481,31.569,14.481,31.109z"></path></g><g><path fill="#0CB4C4" d="M25.649,31.109c0-0.46-0.372-0.832-0.832-0.832h-1.954c-0.46,0-0.832,0.372-0.832,0.832 c0,0.46,0.372,0.832,0.832,0.832h1.954C25.277,31.941,25.649,31.569,25.649,31.109z"></path></g><g><path fill="#0CB4C4" d="M31.233,31.109c0-0.46-0.372-0.832-0.832-0.832h-1.953c-0.46,0-0.832,0.372-0.832,0.832 c0,0.46,0.372,0.832,0.832,0.832h1.953C30.861,31.941,31.233,31.569,31.233,31.109z"></path></g><g><path fill="#0CB4C4" d="M36.817,31.109c0-0.46-0.372-0.832-0.832-0.832h-1.954c-0.46,0-0.832,0.372-0.832,0.832 c0,0.46,0.372,0.832,0.832,0.832h1.954C36.445,31.941,36.817,31.569,36.817,31.109z"></path></g><g><path fill="#0CB4C4" d="M42.401,31.109c0-0.46-0.372-0.832-0.832-0.832h-1.953c-0.46,0-0.832,0.372-0.832,0.832 c0,0.46,0.372,0.832,0.832,0.832h1.953C42.029,31.941,42.401,31.569,42.401,31.109z"></path></g><g><path fill="#0CB4C4" d="M16.441,34.481h-1.953c-0.46,0-0.832,0.372-0.832,0.832s0.372,0.832,0.832,0.832h1.953 c0.46,0,0.832-0.372,0.832-0.832S16.901,34.481,16.441,34.481z"></path></g><g><path fill="#0CB4C4" d="M10.857,34.481H8.904c-0.46,0-0.832,0.372-0.832,0.832s0.372,0.832,0.832,0.832h1.954 c0.46,0,0.832-0.372,0.832-0.832S11.317,34.481,10.857,34.481z"></path></g><g><path fill="#0CB4C4" d="M22.025,34.481h-1.953c-0.46,0-0.832,0.372-0.832,0.832s0.372,0.832,0.832,0.832h1.953 c0.46,0,0.832-0.372,0.832-0.832S22.485,34.481,22.025,34.481z"></path></g><g><path fill="#0CB4C4" d="M27.609,34.481h-1.954c-0.46,0-0.832,0.372-0.832,0.832s0.372,0.832,0.832,0.832h1.954 c0.46,0,0.832-0.372,0.832-0.832S28.069,34.481,27.609,34.481z"></path></g><g><path fill="#0CB4C4" d="M33.192,34.481h-1.953c-0.46,0-0.832,0.372-0.832,0.832s0.372,0.832,0.832,0.832h1.953 c0.46,0,0.832-0.372,0.832-0.832S33.652,34.481,33.192,34.481z"></path></g><g><path fill="#0CB4C4" d="M38.777,34.481h-1.954c-0.46,0-0.832,0.372-0.832,0.832s0.372,0.832,0.832,0.832h1.954 c0.46,0,0.832-0.372,0.832-0.832S39.237,34.481,38.777,34.481z"></path></g><g><path fill="#0CB4C4" d="M44.36,34.481h-1.953c-0.46,0-0.832,0.372-0.832,0.832s0.372,0.832,0.832,0.832h1.953 c0.46,0,0.832-0.372,0.832-0.832S44.82,34.481,44.36,34.481z"></path></g><g><path fill="#0CB4C4" d="M16.803,8.506h4.887c0.46,0,0.832-0.372,0.832-0.832c0-0.46-0.372-0.832-0.832-0.832h-4.887 c-0.46,0-0.832,0.372-0.832,0.832C15.97,8.134,16.343,8.506,16.803,8.506z"></path></g><g><path fill="#0CB4C4" d="M16.803,11.955h4.887c0.46,0,0.832-0.372,0.832-0.832c0-0.46-0.372-0.832-0.832-0.832h-4.887 c-0.46,0-0.832,0.372-0.832,0.832C15.97,11.583,16.343,11.955,16.803,11.955z"></path></g><g><path fill="#0CB4C4" d="M16.803,15.405h4.887c0.46,0,0.832-0.372,0.832-0.832c0-0.46-0.372-0.832-0.832-0.832h-4.887 c-0.46,0-0.832,0.372-0.832,0.832C15.97,15.033,16.343,15.405,16.803,15.405z"></path></g><g><path fill="#0CB4C4" d="M31.071,43.787h-8.878c-0.46,0-0.832,0.372-0.832,0.832s0.372,0.832,0.832,0.832h8.878 c0.46,0,0.832-0.372,0.832-0.832S31.531,43.787,31.071,43.787z"></path></g></g></svg>