<svg width="61" height="60" viewBox="0 0 61 60" fill="none" xmlns="http://www.w3.org/2000/svg"><path d="M8.05664 44.5078V45.476C8.05664 46.7367 8.86901 47.8018 9.99315 48.2026V50.3173H11.9297V48.3808H13.8662V45.476C13.8662 43.8745 12.5629 42.5713 10.9614 42.5713C10.4269 42.5713 9.99315 42.1375 9.99315 41.603V40.6347H10.9614C11.4959 40.6347 11.9297 41.0685 11.9297 41.603V42.5713H13.8662V41.603C13.8662 40.3423 13.0538 39.2772 11.9297 38.8764V36.7617H9.99315V38.6982H8.05664V41.603C8.05664 43.2045 9.35991 44.5078 10.9614 44.5078C11.4959 44.5078 11.9297 44.9415 11.9297 45.476V46.4443H10.9614C10.4269 46.4443 9.99315 46.0105 9.99315 45.476V44.5078H8.05664Z" fill="#0CB4C4"></path><path d="M59.2695 29.6849L60.1177 28.6673L58.6295 27.4279L57.3069 29.0158H46.7868V23.2063H47.6379C49.3043 23.2063 50.6598 21.8507 50.6598 20.1844C50.6598 19.3768 50.3461 18.6177 49.7748 18.0474L32.6638 0.936424C31.4138 -0.311657 29.2391 -0.312625 27.9891 0.936424L10.8781 18.0474C10.3068 18.6177 9.9931 19.3768 9.9931 20.1844C9.9931 21.8507 11.3487 23.2063 13.015 23.2063H13.8661V29.0158H3.21531C1.61382 29.0158 0.310547 30.3191 0.310547 31.9206V57.0952C0.310547 58.6967 1.61382 60 3.21531 60H18.7074C20.3089 60 21.6122 58.6967 21.6122 57.0952V42.5714H35.1677V52.254C35.1677 53.3219 36.0363 54.1905 37.1042 54.1905H39.0408V57.0952C39.0408 58.6967 40.344 60 41.9455 60H57.4376C59.0391 60 60.3424 58.6967 60.3424 57.0952V31.9206C60.3424 31.0172 59.9192 30.2184 59.2695 29.6849ZM49.7564 41.1006L54.5328 35.3695V42.5714H44.8503V34.8254H52.4656L49.6267 38.2327L47.4714 36.0773L46.1022 37.4464L49.7564 41.1006ZM44.8503 29.0158H42.9138V23.2063H44.8503V29.0158ZM11.9296 20.1844C11.9296 19.8939 12.0419 19.6218 12.2472 19.4165L29.3582 2.30651C29.6177 2.04701 29.9605 1.90468 30.3265 1.90468C30.6925 1.90468 31.0352 2.04701 31.2947 2.30554L48.4057 19.4165C48.611 19.6218 48.7233 19.8939 48.7233 20.1844C48.7233 20.7828 48.2363 21.2698 47.6379 21.2698H13.015C12.4166 21.2698 11.9296 20.7828 11.9296 20.1844ZM29.3582 36.7619V23.2063H31.2947V36.7619H29.3582ZM9.9931 31.9206V30.9523H11.9296V31.9206C11.9296 32.4551 11.4958 32.8889 10.9614 32.8889C10.4269 32.8889 9.9931 32.4551 9.9931 31.9206ZM18.7074 30.9523C19.2419 30.9523 19.6757 31.3861 19.6757 31.9206V32.8889H13.688C13.7964 32.5848 13.8661 32.2614 13.8661 31.9206V30.9523H18.7074ZM19.6757 34.8254V52.254H2.24706V34.8254H19.6757ZM19.6757 29.194V23.2063H27.4217V36.7619H21.6122V31.9206C21.6122 30.6599 20.7998 29.5948 19.6757 29.194ZM15.8026 23.2063H17.7391V29.0158H15.8026V23.2063ZM3.21531 30.9523H8.05659V31.9206C8.05659 32.2614 8.1263 32.5848 8.23475 32.8889H2.24706V31.9206C2.24706 31.3861 2.68084 30.9523 3.21531 30.9523ZM18.7074 58.0635H3.21531C2.68084 58.0635 2.24706 57.6297 2.24706 57.0952V54.1905H19.6757V57.0952C19.6757 57.6297 19.2419 58.0635 18.7074 58.0635ZM21.6122 40.6349V38.6984H35.1677V40.6349H21.6122ZM35.1677 34.8254V36.7619H33.2312V23.2063H40.9773V29.194C39.8531 29.5948 39.0408 30.6599 39.0408 31.9206V32.8889H37.1042C36.0363 32.8889 35.1677 33.7574 35.1677 34.8254ZM37.1042 52.254V34.8254H39.0408V52.254H37.1042ZM58.4059 57.0952C58.4059 57.6297 57.9721 58.0635 57.4376 58.0635H41.9455C41.411 58.0635 40.9773 57.6297 40.9773 57.0952V31.9206C40.9773 31.3861 41.411 30.9523 41.9455 30.9523H55.6928L54.0787 32.8889H42.9138V44.5079H56.4694V33.0457L58.0292 31.1731C58.2529 31.3513 58.4059 31.6137 58.4059 31.9206V57.0952Z" fill="#0CB4C4"></path><path d="M44.8506 46.4443H42.9141V48.3808H44.8506V46.4443Z" fill="#0CB4C4"></path><path d="M48.7236 46.4443H46.7871V48.3808H48.7236V46.4443Z" fill="#0CB4C4"></path><path d="M52.5967 46.4443H50.6602V48.3808H52.5967V46.4443Z" fill="#0CB4C4"></path><path d="M56.4697 46.4443H54.5332V48.3808H56.4697V46.4443Z" fill="#0CB4C4"></path><path d="M44.8506 50.3174H42.9141V52.2539H44.8506V50.3174Z" fill="#0CB4C4"></path><path d="M48.7236 50.3174H46.7871V52.2539H48.7236V50.3174Z" fill="#0CB4C4"></path><path d="M52.5967 50.3174H50.6602V52.2539H52.5967V50.3174Z" fill="#0CB4C4"></path><path d="M56.4697 50.3174H54.5332V52.2539H56.4697V50.3174Z" fill="#0CB4C4"></path><path d="M44.8506 54.1904H42.9141V56.1269H44.8506V54.1904Z" fill="#0CB4C4"></path><path d="M48.7236 54.1904H46.7871V56.1269H48.7236V54.1904Z" fill="#0CB4C4"></path><path d="M52.5967 54.1904H50.6602V56.1269H52.5967V54.1904Z" fill="#0CB4C4"></path><path d="M56.4697 54.1904H54.5332V56.1269H56.4697V54.1904Z" fill="#0CB4C4"></path><path d="M15.4014 19.3329H45.2507L30.3261 4.4082L15.4014 19.3329ZM20.0761 17.3964L30.3261 7.14643L40.576 17.3964H20.0761Z" fill="#0CB4C4"></path><path d="M27.4219 12.5552C27.4219 14.1567 28.7251 15.4599 30.3266 15.4599C31.9281 15.4599 33.2314 14.1567 33.2314 12.5552C33.2314 10.9537 31.9281 9.65039 30.3266 9.65039C28.7251 9.65039 27.4219 10.9537 27.4219 12.5552ZM31.2949 12.5552C31.2949 13.0887 30.8611 13.5234 30.3266 13.5234C29.7922 13.5234 29.3584 13.0887 29.3584 12.5552C29.3584 12.0216 29.7922 11.5869 30.3266 11.5869C30.8611 11.5869 31.2949 12.0216 31.2949 12.5552Z" fill="#0CB4C4"></path></svg>