<svg xmlns="http://www.w3.org/2000/svg" xmlns:xlink="http://www.w3.org/1999/xlink" version="1.1" id="Layer_1" x="0px" y="0px" width="51.724px" height="50px" viewBox="0 0 51.724 50" enable-background="new 0 0 51.724 50" xml:space="preserve"><g><path fill="#0CB4C4" d="M48.276,0H3.448C1.547,0,0,1.547,0,3.448v27.586c0,1.998,1.45,3.448,3.448,3.448v-1.724 c-1.191,0-1.724-0.866-1.724-1.724V14.655H50v2.586h1.724V3.448C51.724,1.547,50.178,0,48.276,0z M3.448,1.724h44.828 C49.227,1.724,50,2.497,50,3.448v2.586H1.724V3.448C1.724,2.497,2.497,1.724,3.448,1.724z M1.724,12.931V7.759H50v5.172H1.724z"></path><path fill="#0CB4C4" d="M48.276,18.966H8.621c-1.902,0-3.448,1.547-3.448,3.448v24.138C5.172,48.453,6.719,50,8.621,50h39.655 c1.902,0,3.448-1.547,3.448-3.448V22.414C51.724,20.512,50.178,18.966,48.276,18.966z M50,46.552c0,0.951-0.773,1.724-1.724,1.724 H8.621c-0.951,0-1.724-0.773-1.724-1.724V22.414c0-0.951,0.773-1.724,1.724-1.724h39.655c0.951,0,1.724,0.773,1.724,1.724V46.552z"></path><rect x="10.345" y="37.931" fill="#0CB4C4" width="25.862" height="1.724"></rect><rect x="37.931" y="37.931" fill="#0CB4C4" width="1.724" height="1.724"></rect><rect x="41.379" y="37.931" fill="#0CB4C4" width="1.724" height="1.724"></rect><rect x="44.828" y="37.931" fill="#0CB4C4" width="1.724" height="1.724"></rect><rect x="20.69" y="42.241" fill="#0CB4C4" width="1.724" height="1.724"></rect><rect x="24.138" y="42.241" fill="#0CB4C4" width="1.724" height="1.724"></rect><rect x="27.586" y="42.241" fill="#0CB4C4" width="1.724" height="1.724"></rect><rect x="10.345" y="42.241" fill="#0CB4C4" width="8.621" height="1.724"></rect><rect x="31.034" y="42.241" fill="#0CB4C4" width="12.069" height="1.724"></rect><rect x="44.828" y="42.241" fill="#0CB4C4" width="1.724" height="1.724"></rect><path fill="#0CB4C4" d="M15.517,34.483c2.853,0,5.172-2.32,5.172-5.172s-2.32-5.172-5.172-5.172s-5.172,2.32-5.172,5.172 S12.665,34.483,15.517,34.483z M15.517,25.862c1.902,0,3.448,1.547,3.448,3.448c0,1.902-1.547,3.448-3.448,3.448 s-3.448-1.547-3.448-3.448S13.616,25.862,15.517,25.862z"></path><rect x="37.931" y="24.138" fill="#0CB4C4" width="8.621" height="1.724"></rect><rect x="36.207" y="27.586" fill="#0CB4C4" width="10.345" height="1.724"></rect><rect x="44.828" y="31.034" fill="#0CB4C4" width="1.724" height="1.724"></rect><rect x="41.379" y="31.034" fill="#0CB4C4" width="1.724" height="1.724"></rect></g></svg>