<svg version="1.1" id="Layer_1" xmlns="http://www.w3.org/2000/svg" xmlns:xlink="http://www.w3.org/1999/xlink" x="0px" y="0px" width="60px" height="60px" viewBox="0 0 60 60" style="enable-background:new 0 0 60 60;" xml:space="preserve"><g><g><path style="fill:#0CB4C4;" d="M30.968,0v29.032H60V0H30.968z M58.064,27.097H32.903V1.936h25.161V27.097z"></path><path style="fill:#0CB4C4;" d="M30.968,60H60V30.968H30.968V60z M32.903,32.903h25.161v25.161H32.903V32.903z"></path><path style="fill:#0CB4C4;" d="M0,29.032h29.032V0H0V29.032z M1.936,1.936h25.161v25.161H1.936V1.936z"></path><path style="fill:#0CB4C4;" d="M0,60h29.032V30.968H0V60z M1.936,32.903h25.161v25.161H1.936V32.903z"></path><path style="fill:#0CB4C4;" d="M23.735,9.193c-0.638-1.104-2.166-1.381-4.542-0.818c-0.433,0.103-0.892,0.24-1.359,0.393 c-0.595-2.804-1.682-4.896-3.318-4.896s-2.723,2.093-3.318,4.896c-0.467-0.152-0.926-0.29-1.359-0.393 C7.465,7.814,5.935,8.088,5.297,9.193c-0.818,1.418,0.452,3.405,2.583,5.323c-2.13,1.917-3.401,3.904-2.583,5.322 c0.424,0.733,1.24,1.101,2.436,1.101c0.604,0,1.308-0.094,2.106-0.282c0.433-0.103,0.892-0.24,1.359-0.393 c0.594,2.804,1.681,4.896,3.317,4.896s2.723-2.093,3.318-4.896c0.467,0.152,0.926,0.29,1.359,0.393 c0.798,0.188,1.501,0.282,2.106,0.282c1.196,0,2.012-0.367,2.436-1.101c0.819-1.418-0.452-3.405-2.582-5.322 C23.284,12.599,24.554,10.611,23.735,9.193z M16.452,14.517c0,0.382-0.008,0.748-0.02,1.105c-0.303,0.188-0.617,0.38-0.948,0.57 s-0.652,0.368-0.968,0.536c-0.315-0.168-0.637-0.345-0.968-0.536c-0.331-0.19-0.645-0.382-0.948-0.57 c-0.012-0.357-0.02-0.724-0.02-1.105c0-0.383,0.008-0.749,0.02-1.106c0.303-0.188,0.617-0.38,0.948-0.57s0.652-0.367,0.968-0.536 c0.315,0.169,0.637,0.345,0.968,0.536c0.331,0.19,0.646,0.382,0.948,0.57C16.444,13.768,16.452,14.134,16.452,14.517z M14.516,5.81c0.347,0.124,1.032,1.339,1.486,3.641c-0.488,0.206-0.986,0.44-1.486,0.686c-0.5-0.245-0.999-0.479-1.486-0.686 C13.484,7.149,14.169,5.934,14.516,5.81z M6.976,10.162c0.281-0.239,1.677-0.224,3.899,0.534 c-0.067,0.532-0.116,1.078-0.153,1.629c-0.458,0.308-0.906,0.623-1.333,0.947C7.621,11.727,6.91,10.525,6.976,10.162z M6.976,18.87c-0.067-0.363,0.646-1.564,2.413-3.11c0.428,0.324,0.875,0.64,1.333,0.947c0.038,0.55,0.087,1.097,0.153,1.629 C8.653,19.093,7.257,19.108,6.976,18.87z M14.531,23.227c-0.343-0.094-1.04-1.313-1.501-3.646 c0.488-0.206,0.985-0.439,1.486-0.685c0.501,0.245,1,0.479,1.487,0.686C15.545,21.915,14.855,23.133,14.531,23.227z M22.067,18.859c-0.253,0.25-1.658,0.244-3.911-0.524c0.067-0.532,0.115-1.078,0.153-1.628c0.458-0.308,0.907-0.623,1.334-0.947 C21.438,17.323,22.148,18.531,22.067,18.859z M18.311,12.325c-0.038-0.551-0.087-1.097-0.153-1.63 c2.252-0.771,3.652-0.781,3.896-0.548c0.09,0.344-0.617,1.558-2.41,3.124C19.215,12.948,18.768,12.633,18.311,12.325z"></path><path style="fill:#0CB4C4;" d="M21.314,40.054l1.413-1.413l-1.369-1.368l-1.413,1.413c-1.253-1.003-2.785-1.667-4.462-1.854 v-1.992h-1.936v1.992c-1.677,0.188-3.209,0.852-4.462,1.854l-1.413-1.413l-1.369,1.368l1.413,1.413 c-1.002,1.253-1.667,2.785-1.854,4.463H3.871v1.935h1.992c0.187,1.678,0.852,3.21,1.854,4.463l-1.413,1.413l1.369,1.368 l1.413-1.413c1.253,1.003,2.785,1.667,4.462,1.854v1.992h1.936v-1.992c1.677-0.188,3.209-0.852,4.462-1.854l1.413,1.413 l1.369-1.368l-1.413-1.413c1.002-1.253,1.667-2.785,1.854-4.463h1.992v-1.935h-1.992C22.982,42.839,22.317,41.307,21.314,40.054z M14.516,52.258c-3.735,0-6.774-3.038-6.774-6.774c0-3.735,3.039-6.773,6.774-6.773s6.774,3.038,6.774,6.773 C21.291,49.22,18.251,52.258,14.516,52.258z"></path><path style="fill:#0CB4C4;" d="M14.516,40.646c-2.668,0-4.839,2.17-4.839,4.838c0,2.669,2.171,4.839,4.839,4.839 s4.839-2.17,4.839-4.839C19.355,42.815,17.184,40.646,14.516,40.646z M14.516,48.387c-1.601,0-2.903-1.302-2.903-2.903 c0-1.601,1.303-2.902,2.903-2.902s2.903,1.302,2.903,2.902C17.419,47.085,16.117,48.387,14.516,48.387z"></path><path style="fill:#0CB4C4;" d="M40.645,23.226h-1.936v1.936h13.549v-1.936h-1.936V21.29h5.806V3.871h-21.29V21.29h5.806V23.226z M48.387,23.226h-5.807V21.29h5.807V23.226z M36.774,5.807h17.419v13.548H36.774V5.807z"></path><path style="fill:#0CB4C4;" d="M49.355,40.646c0-1.798-1.239-3.302-2.903-3.733v-2.073h-1.936v2.073 c-1.665,0.432-2.903,1.936-2.903,3.733c0,0.865,0.295,1.656,0.777,2.302l-4.592,12.856l1.823,0.651l1.845-5.165h3.05v0.968h1.936 V51.29h3.05l1.845,5.164l1.823-0.651l-4.592-12.856C49.06,42.302,49.355,41.511,49.355,40.646z M44.516,38.979v2.635h1.936v-2.635 c0.576,0.336,0.968,0.953,0.968,1.667c0,1.067-0.868,1.936-1.936,1.936s-1.936-0.868-1.936-1.936 C43.548,39.932,43.94,39.314,44.516,38.979z M46.452,49.354v-0.968h-1.936v0.968h-2.359l1.836-5.139 c0.458,0.192,0.963,0.301,1.491,0.301s1.033-0.108,1.491-0.301l1.836,5.139H46.452z"></path></g></g></svg>