<svg width="64" height="60" viewBox="0 0 64 60" fill="none" xmlns="http://www.w3.org/2000/svg"><path d="M55.1961 36.1774C50.8314 31.8126 45.2206 29.1438 39.168 28.5011C39.7655 27.6624 40.7033 27.1801 41.7938 27.1801H42.6244C43.8274 27.1801 44.8054 26.2021 44.8054 24.9991V19.801C44.8054 18.598 43.8274 17.62 42.6244 17.62H41.7938C40.4326 17.62 39.31 16.8697 38.7875 15.6131C38.2677 14.3564 38.5303 13.0301 39.4921 12.0682L40.0789 11.4814C40.4889 11.0714 40.7166 10.5222 40.7166 9.94069C40.7166 9.35657 40.4916 8.81 40.0789 8.40002L36.4027 4.72383C35.5534 3.87444 34.1681 3.87444 33.3187 4.72383L32.7319 5.31062C31.77 6.27251 30.4437 6.53783 29.187 6.01528C27.9304 5.49548 27.1801 4.37014 27.1801 3.00898V2.18106C27.1801 0.978002 26.2021 0 24.9991 0H19.8037C18.6006 0 17.6226 0.978002 17.6226 2.18106V3.01165C17.6226 4.37282 16.8724 5.49548 15.6157 6.01796C14.3591 6.53776 13.0328 6.27518 12.0708 5.3133L11.484 4.7265C11.0741 4.31655 10.5248 4.0888 9.94336 4.0888C9.35925 4.0888 8.81267 4.31388 8.40269 4.7265L4.7265 8.40269C4.31655 8.81264 4.0888 9.3619 4.0888 9.94336C4.0888 10.5275 4.31387 11.0741 4.7265 11.484L5.3133 12.0708C6.27518 13.0327 6.5405 14.359 6.01796 15.6157C5.49815 16.8724 4.37282 17.6226 3.01165 17.6226H2.18106C0.978002 17.6226 0 18.6006 0 19.8037V25.0018C0 26.2048 0.978002 27.1828 2.18106 27.1828H3.01165C4.37282 27.1828 5.49548 27.9331 6.01796 29.1897C6.53776 30.4463 6.27518 31.7727 5.3133 32.7346L4.7265 33.3214C4.31655 33.7314 4.0888 34.2806 4.0888 34.8621C4.0888 35.4462 4.31387 35.9928 4.7265 36.4027L8.40269 40.0789C8.81264 40.4889 9.3619 40.7166 9.94336 40.7166C10.5275 40.7166 11.0741 40.4916 11.484 40.0789L12.0708 39.4921C12.9309 38.632 14.0777 38.332 15.2111 38.6481C11.5537 43.3237 9.57088 49.0468 9.57088 55.0755C9.57088 55.322 9.66734 55.5578 9.8415 55.7319C10.0157 55.9061 10.2515 56.0026 10.498 56.0026L21.2102 56.0079C21.7219 56.0079 22.1373 55.5926 22.1373 55.0808C22.1373 47.2729 28.4902 40.9198 36.2983 40.9198C44.1063 40.9198 50.4594 47.2726 50.4594 55.0808C50.4594 55.5926 50.8747 56.0079 51.3865 56.0079H62.1015C62.6132 56.0079 63.0286 55.5926 63.0286 55.0808C63.0259 47.9403 60.2469 41.2286 55.1961 36.1774ZM22.4024 32.0886C17.0623 32.0886 12.7164 27.7426 12.7164 22.4025C12.7164 17.0624 17.0624 12.7165 22.4024 12.7165C27.7425 12.7165 32.0885 17.0625 32.0885 22.4025C32.0885 25.0257 31.0622 27.464 29.2001 29.2996C26.9011 29.9293 24.704 30.8643 22.6569 32.0835C22.5711 32.0835 22.4855 32.0886 22.4024 32.0886ZM35.3706 30.2237V39.0928C33.1307 39.2214 31.0112 39.8136 29.1088 40.7728L24.6744 33.091C27.8871 31.3842 31.5175 30.3657 35.3706 30.2237ZM37.2248 30.2237C41.0778 30.3657 44.7083 31.3865 47.924 33.0907L43.4895 40.7724C41.5872 39.8132 39.4677 39.2211 37.2277 39.0924L37.2248 30.2237ZM16.3224 37.0777C14.3771 36.2711 12.247 36.6972 10.7572 38.1843L10.1704 38.7711C10.0873 38.8541 9.99088 38.8648 9.93997 38.8648C9.88906 38.8648 9.78993 38.8514 9.70954 38.7711L6.03336 35.0949C5.9503 35.0118 5.93958 34.9154 5.93958 34.8644C5.93958 34.8135 5.95297 34.7144 6.03336 34.634L6.62015 34.0472C8.10725 32.5601 8.53328 30.4273 7.72677 28.482C6.92025 26.5368 5.11432 25.3283 3.00831 25.3283H2.18039C2.00355 25.3283 1.8535 25.1783 1.8535 25.0014V19.8034C1.8535 19.6265 2.00355 19.4765 2.18039 19.4765H3.01098C5.117 19.4765 6.92292 18.2681 7.72944 16.3228C8.53596 14.3775 8.10992 12.2447 6.62283 10.7576L6.03603 10.1708C5.95297 10.0878 5.94225 9.9913 5.94225 9.94039C5.94225 9.88948 5.95565 9.79034 6.03603 9.70995L9.71222 6.03377C9.79528 5.95071 9.89174 5.93999 9.94265 5.93999C9.99356 5.93999 10.0927 5.95338 10.1731 6.03377L10.7599 6.62056C12.247 8.10766 14.3797 8.5337 16.3251 7.72718C18.2704 6.92066 19.4788 5.11474 19.4788 3.00872L19.4761 2.1808C19.4761 2.00396 19.6261 1.85391 19.803 1.85391H25.001C25.1779 1.85391 25.3279 2.00396 25.3279 2.1808V3.01139C25.3279 5.11741 26.5363 6.92333 28.4816 7.72985C30.4269 8.5337 32.5597 8.11033 34.0468 6.62324L34.6336 6.03644C34.7595 5.91051 34.9712 5.91051 35.0971 6.03644L38.7733 9.71263C38.8564 9.79569 38.8671 9.89215 38.8671 9.94306C38.8671 9.99397 38.8537 10.0931 38.7733 10.1735L38.1865 10.7603C36.6994 12.2474 36.2734 14.3802 37.0799 16.3255C37.8864 18.2707 39.6924 19.4792 41.7984 19.4792H42.629C42.8058 19.4792 42.9559 19.6292 42.9559 19.8061V25.0041C42.9559 25.181 42.8058 25.331 42.629 25.331H41.7984C39.7352 25.331 37.9587 26.4912 37.1308 28.3668C36.8548 28.3588 36.5788 28.3534 36.3002 28.3534C34.8748 28.3534 33.4654 28.4659 32.0828 28.683C33.2832 26.8262 33.945 24.6424 33.945 22.4051C33.945 16.0415 28.7683 10.865 22.4049 10.865C16.0414 10.865 10.8648 16.0417 10.8648 22.4051C10.8648 28.0185 14.8919 32.7078 20.2106 33.734C19.2272 34.4788 18.2867 35.2934 17.3998 36.1803C17.0837 36.4965 16.7782 36.818 16.4808 37.1448C16.4272 37.1207 16.3733 37.0964 16.3224 37.0777ZM20.3094 54.1512H11.4375C11.5795 50.2982 12.603 46.6704 14.3098 43.4548L21.9889 47.8892C21.0297 49.7915 20.438 51.9112 20.3094 54.1512ZM22.9191 46.2842L15.2401 41.8498C17.2309 38.6908 19.9103 36.0114 23.0693 34.0206L27.5038 41.6996C25.6818 42.9027 24.1195 44.4622 22.9191 46.2842ZM45.0885 41.7024L49.5229 34.0234C52.6819 36.0142 55.3613 38.6963 57.3521 41.8526L49.6731 46.287C48.4727 44.4623 46.9105 42.9028 45.0885 41.7024ZM52.2825 54.1507C52.1539 51.9107 51.5617 49.7913 50.6025 47.8889L58.2815 43.4545C59.9883 46.6698 61.0119 50.3004 61.1539 54.1509L52.2825 54.1507ZM42.2295 47.0074L37.2136 50.2469C36.9108 50.1906 36.6027 50.1611 36.2946 50.1611C33.583 50.1611 31.3752 52.369 31.3752 55.0806C31.3752 57.7921 33.583 60 36.2946 60C39.0062 60 41.214 57.7921 41.214 55.0806C41.214 54.7698 41.1846 54.4643 41.1283 54.1616L44.3677 49.1457C44.767 48.5294 44.6812 47.7336 44.1614 47.2138C43.6416 46.6913 42.8484 46.6082 42.2295 47.0074ZM39.3598 53.4836C39.2151 53.7086 39.1749 53.9819 39.2473 54.2392C39.325 54.5098 39.3625 54.7912 39.3625 55.0779C39.3625 56.7686 37.988 58.1432 36.2972 58.1432C34.6065 58.1432 33.2319 56.7686 33.2319 55.0779C33.2319 53.3871 34.6065 52.0126 36.2972 52.0126C36.5839 52.0126 36.8652 52.0528 37.1359 52.1278C37.3931 52.2002 37.6691 52.16 37.8915 52.0153L42.0339 49.3412L39.3598 53.4836ZM34.0305 55.0778C34.0305 56.3291 35.0487 57.3446 36.2973 57.3446C37.5485 57.3446 38.5641 56.3264 38.5641 55.0778C38.5641 53.8265 37.5459 52.811 36.2973 52.811C35.046 52.811 34.0305 53.8292 34.0305 55.0778ZM36.7099 55.0778C36.7099 55.3056 36.525 55.4905 36.2972 55.4905C36.0695 55.4905 35.8846 55.3056 35.8846 55.0778C35.8846 54.8501 36.0695 54.6652 36.2972 54.6652C36.525 54.6652 36.7099 54.8501 36.7099 55.0778Z" fill="#0CB4C4"></path></svg>