<svg width="63" height="62" viewBox="0 0 63 62" fill="none" xmlns="http://www.w3.org/2000/svg"><path d="M51.5681 45.607C51.5681 46.0158 51.2406 46.3459 50.8292 46.3459C50.4205 46.3459 50.0904 46.0184 50.0904 45.607C50.0904 45.1983 50.4179 44.8682 50.8292 44.8682C51.238 44.8682 51.5681 45.1957 51.5681 45.607ZM47.9734 44.8682C47.5646 44.8682 47.2345 45.1957 47.2345 45.607C47.2345 46.0158 47.562 46.3459 47.9734 46.3459C48.3821 46.3459 48.7123 46.0184 48.7123 45.607C48.7096 45.1957 48.3821 44.8682 47.9734 44.8682ZM45.1149 44.8682C44.7061 44.8682 44.376 45.1957 44.376 45.607C44.376 46.0158 44.7035 46.3459 45.1149 46.3459C45.5236 46.3459 45.8538 46.0184 45.8538 45.607C45.8538 45.1957 45.5184 44.8682 45.1149 44.8682ZM62.7084 11.7792V14.1347C62.7084 14.753 62.2734 15.2744 61.663 15.3818L60.3136 15.6229C60.0935 16.3879 59.7896 17.1242 59.4018 17.8106L60.18 18.9504C60.5285 19.4534 60.4682 20.1372 60.0333 20.5748L58.3695 22.2386C57.9346 22.6735 57.256 22.7338 56.7451 22.3853L55.6184 21.6071C55.4979 21.6753 55.3695 21.7224 55.249 21.7827V45.9555C55.249 47.8262 53.7267 49.3432 51.8612 49.3432L36.3685 49.3406L37.5423 55.579H39.0907C40.5868 55.579 41.7999 56.7921 41.7999 58.2882C41.7999 59.7843 40.5868 60.9974 39.0907 60.9974L17.171 61C15.6749 61 14.4618 59.7869 14.4618 58.2908C14.4618 56.7947 15.6749 55.5816 17.171 55.5816H18.7195L19.8932 49.3432L4.38777 49.3406C2.52231 49.3485 1 47.8262 1 45.9607V11.9415C1 10.0707 2.52224 8.55368 4.38777 8.55368H41.8888C41.9622 8.40696 42.0224 8.25237 42.1089 8.10303L41.3307 6.96331C40.9822 6.46025 41.0425 5.77644 41.4774 5.33884L43.1412 3.67508C43.5761 3.24014 44.2547 3.17988 44.7656 3.52835L45.8923 4.30654C46.5893 3.91878 47.3281 3.61488 48.0853 3.39997L48.3394 2.04541C48.4468 1.4428 48.9761 1 49.5866 1H51.942C52.5604 1 53.0818 1.43493 53.1892 2.04541L53.4303 3.39474L53.2704 4.01308L53.4381 3.41046C54.1953 3.62531 54.9263 3.92662 55.618 4.31703L56.7577 3.53884C57.2608 3.19037 57.9446 3.25063 58.3822 3.68557L60.046 5.34933C60.4809 5.78427 60.5412 6.4629 60.1927 6.9738L59.4145 8.10044C59.8023 8.7974 60.1062 9.53622 60.3211 10.2934L61.6756 10.5476C62.273 10.6393 62.7084 11.1714 62.7084 11.7792ZM39.0856 56.8469H17.1712C16.3721 56.8469 15.7144 57.4967 15.7144 58.3037C15.7144 59.1028 16.3642 59.7604 17.1712 59.7604H39.0856C39.8847 59.7604 40.5424 59.1107 40.5424 58.3037C40.5398 57.4967 39.89 56.8469 39.0856 56.8469ZM35.0874 49.348H21.1749L20.0011 55.5864H36.2531L35.0874 49.348ZM54.0016 45.9602V43.1175H2.26007V45.9602C2.26007 47.134 3.21903 48.093 4.39282 48.093H51.8738C53.0423 48.0878 54.0016 47.134 54.0016 45.9602ZM54.0016 22.3167C53.8129 22.3848 53.6321 22.4582 53.4383 22.5106L53.1841 23.8651C53.0767 24.4678 52.5474 24.9105 51.9369 24.9105H49.5815C48.9632 24.9105 48.4418 24.4756 48.3343 23.8651L48.0933 22.5158C47.3282 22.2957 46.592 21.9918 45.9055 21.604L44.7658 22.3822C44.2628 22.7307 43.5789 22.6704 43.1413 22.2355L41.4776 20.5717C41.0426 20.1368 40.9824 19.4581 41.3308 18.9472L42.109 17.8206C41.7213 17.1236 41.4174 16.3848 41.2025 15.6276L39.8479 15.3735C39.2453 15.266 38.8025 14.7368 38.8025 14.1263V11.7709C38.8025 11.1525 39.2374 10.6311 39.8479 10.5237L41.1972 10.2826C41.2444 10.1228 41.3125 9.96822 41.3649 9.80578L4.38774 9.8084C3.21395 9.8084 2.25499 10.7674 2.25499 11.9411V41.8575H53.9965V22.3168L54.0016 22.3167ZM61.4481 11.7787C61.4481 11.7708 61.4481 11.7708 61.4403 11.7656L60.0909 11.5246C59.6088 11.4381 59.2263 11.0896 59.0927 10.618C58.904 9.9551 58.642 9.31581 58.3014 8.72106C58.0603 8.29138 58.0866 7.77519 58.3617 7.37174L59.1399 6.2451C59.1477 6.23724 59.1477 6.23724 59.1399 6.232L57.4761 4.56823C57.4682 4.56037 57.4682 4.56037 57.463 4.56823L56.3363 5.34642C55.9328 5.62939 55.4167 5.64773 54.987 5.40668C54.3896 5.07131 53.7451 4.80406 53.0901 4.61541C52.6211 4.48179 52.2726 4.09926 52.1835 3.61715L51.9425 2.26782C51.9425 2.25996 51.9425 2.25996 51.9294 2.25996H49.5739C49.5661 2.25996 49.5661 2.25996 49.5608 2.26782L49.3198 3.61715C49.2333 4.09924 48.8849 4.4818 48.4132 4.61541C47.7503 4.80406 47.111 5.06606 46.5163 5.40668C46.0866 5.64773 45.5704 5.62153 45.167 5.34642L44.0403 4.56823C44.0325 4.56037 44.0325 4.56037 44.0272 4.56823L42.3635 6.232C42.3556 6.23986 42.3556 6.23986 42.3635 6.2451L43.1417 7.37174C43.4246 7.77523 43.443 8.29139 43.2019 8.72106C42.8665 9.31844 42.5993 9.96301 42.4106 10.618C42.277 11.087 41.8945 11.4355 41.4124 11.5246L40.0631 11.7656C40.0552 11.7656 40.0552 11.7656 40.0552 11.7787V14.1341C40.0552 14.142 40.0552 14.142 40.0631 14.1472L41.4124 14.3883C41.8945 14.4748 42.277 14.8232 42.4106 15.2949C42.5993 15.9577 42.8613 16.597 43.2019 17.1918C43.443 17.6215 43.4168 18.1377 43.1417 18.5411L42.3635 19.6677C42.3556 19.6756 42.3556 19.6756 42.3635 19.6808L44.0272 21.3446C44.0351 21.3525 44.0351 21.3525 44.0403 21.3446L45.167 20.5664C45.3871 20.4118 45.636 20.3385 45.8901 20.3385C46.1049 20.3385 46.3198 20.3909 46.5137 20.5062C47.1111 20.8415 47.7556 21.1088 48.4106 21.2974C48.8796 21.4311 49.2281 21.8136 49.3172 22.2957L49.5582 23.645C49.5582 23.6529 49.5582 23.6529 49.5713 23.6529H51.9268C51.9346 23.6529 51.9346 23.6529 51.9399 23.645L52.1809 22.2957C52.2674 21.8136 52.6158 21.431 53.0875 21.2974C53.7504 21.1088 54.3896 20.8468 54.9844 20.5062C55.4141 20.2651 55.9303 20.2913 56.3337 20.5664L57.4604 21.3446C57.4682 21.3525 57.4682 21.3525 57.4735 21.3446L59.1372 19.6808C59.1451 19.673 59.1451 19.673 59.1372 19.6677L58.359 18.5411C58.0761 18.1376 58.0577 17.6215 58.2988 17.1918C58.6341 16.5944 58.9014 15.9498 59.09 15.2949C59.2237 14.8259 59.6062 14.4774 60.0883 14.3883L61.4376 14.1472C61.4455 14.1472 61.4455 14.1472 61.4455 14.1341L61.4481 11.7787ZM56.6979 12.9603C56.6979 16.2328 54.0359 18.9027 50.7556 18.9027C47.4753 18.9027 44.8132 16.2407 44.8132 12.9603C44.8132 9.68787 47.4753 7.018 50.7556 7.018C54.0359 7.018 56.6979 9.68787 56.6979 12.9603ZM55.4377 12.9603C55.4377 10.3769 53.339 8.27825 50.7556 8.27825C48.1722 8.27825 46.0735 10.3769 46.0735 12.9603C46.0735 15.5438 48.1722 17.6424 50.7556 17.6424C53.339 17.6424 55.4377 15.5438 55.4377 12.9603ZM11.9389 24.0617C12.0594 24.1823 12.2219 24.2504 12.3817 24.2504C12.5415 24.2504 12.704 24.1901 12.8245 24.0617C13.0734 23.8128 13.0734 23.4172 12.8245 23.1709L8.92844 19.2749L12.8245 15.3788C13.0734 15.1299 13.0734 14.7343 12.8245 14.488C12.5756 14.2391 12.18 14.2391 11.9337 14.488L7.58696 18.8347C7.33806 19.0837 7.33806 19.4793 7.58696 19.7256L11.9389 24.0617ZM22.0134 24.0617C22.1339 24.1823 22.2964 24.2504 22.4562 24.2504C22.616 24.2504 22.7785 24.1901 22.899 24.0617L27.2457 19.715C27.4946 19.4661 27.4946 19.0705 27.2457 18.8242L22.899 14.4775C22.6501 14.2286 22.2545 14.2286 22.0082 14.4775C21.7593 14.7264 21.7593 15.122 22.0082 15.3683L25.9042 19.2644L22.0082 23.1604C21.7724 23.4172 21.7724 23.8128 22.0134 24.0617ZM15.6492 25.8984C15.7016 25.9115 15.7567 25.9194 15.8091 25.9194C16.0842 25.9194 16.3383 25.7307 16.4195 25.4504L19.6449 13.4113C19.7313 13.0759 19.5374 12.7275 19.2021 12.641C18.8667 12.5546 18.5182 12.7485 18.4318 13.0838L15.2065 25.1229C15.1121 25.4635 15.3139 25.8041 15.6492 25.8984ZM48.2197 33.5046H35.8579C35.5095 33.5046 35.2265 33.7876 35.2265 34.1361C35.2265 34.4845 35.5095 34.7675 35.8579 34.7675H48.2197C48.5681 34.7675 48.8511 34.4845 48.8511 34.1361C48.8432 33.7876 48.5629 33.5046 48.2197 33.5046ZM39.9977 37.7858H27.8091C27.4606 37.7858 27.1776 38.0688 27.1776 38.4173C27.1776 38.7657 27.4606 39.0487 27.8091 39.0487H40.0031C40.3516 39.0487 40.6345 38.7657 40.6345 38.4173C40.6267 38.0662 40.3462 37.7858 39.9977 37.7858ZM48.2197 29.2258H43.1027C42.7542 29.2258 42.4712 29.5088 42.4712 29.8573C42.4712 30.2057 42.7542 30.4887 43.1027 30.4887H48.2197C48.5681 30.4887 48.8511 30.2057 48.8511 29.8573C48.8432 29.5088 48.5629 29.2258 48.2197 29.2258ZM23.6592 37.7858H14.6907C14.3423 37.7858 14.0593 38.0688 14.0593 38.4173C14.0593 38.7657 14.3423 39.0487 14.6907 39.0487H23.6592C24.0077 39.0487 24.2906 38.7657 24.2906 38.4173C24.288 38.0662 24.0077 37.7858 23.6592 37.7858ZM10.5456 37.7858H8.04339C7.69492 37.7858 7.41195 38.0688 7.41195 38.4173C7.41195 38.7657 7.69492 39.0487 8.04339 39.0487H10.5456C10.894 39.0487 11.177 38.7657 11.177 38.4173C11.177 38.0662 10.894 37.7858 10.5456 37.7858ZM10.5456 33.5046H8.04339C7.69492 33.5046 7.41195 33.7876 7.41195 34.1361C7.41195 34.4845 7.69492 34.7675 8.04339 34.7675H10.5456C10.894 34.7675 11.177 34.4845 11.177 34.1361C11.177 33.7876 10.894 33.5046 10.5456 33.5046ZM8.04339 30.4863H16.7496C17.0981 30.4863 17.381 30.2033 17.381 29.8549C17.381 29.5064 17.0981 29.2234 16.7496 29.2234L8.04339 29.226C7.69492 29.226 7.41195 29.509 7.41195 29.8575C7.41195 30.2059 7.69492 30.4863 8.04339 30.4863ZM20.9028 30.4863H38.9604C39.3089 30.4863 39.5919 30.2033 39.5919 29.8549C39.5919 29.5064 39.3089 29.2234 38.9604 29.2234L20.9028 29.226C20.5543 29.226 20.2714 29.509 20.2714 29.8575C20.2714 30.2059 20.5517 30.4863 20.9028 30.4863ZM14.6906 33.5046C14.3421 33.5046 14.0592 33.7876 14.0592 34.1361C14.0592 34.4845 14.3421 34.7675 14.6906 34.7675H31.7133C32.0618 34.7675 32.3447 34.4845 32.3447 34.1361C32.3447 33.7876 32.0618 33.5046 31.7133 33.5046H14.6906Z" fill="#0CB4C4" stroke="#0CB4C4" stroke-width="0.2"></path></svg>