<svg version="1.1" id="Layer_1" xmlns="http://www.w3.org/2000/svg" xmlns:xlink="http://www.w3.org/1999/xlink" x="0px" y="0px" width="60px" height="60px" viewBox="0 0 60 60" enable-background="new 0 0 60 60" xml:space="preserve"><g><g><path fill="#0CB4C4" d="M18.956,18.74l-0.556-0.39l-0.555,0.389c-3.254,2.286-7.098,3.492-11.112,3.492H3.901v11.298 c0,9.608,5.401,18.081,14.092,22.111l0.407,0.188l0.408-0.188c8.69-4.03,14.091-12.503,14.091-22.111V22.231h-2.831 C26.053,22.231,22.209,21.025,18.956,18.74z M30.967,33.529c0,8.696-4.803,16.382-12.566,20.164 C10.638,49.911,5.835,42.226,5.835,33.529v-9.364h0.898c4.188,0,8.209-1.195,11.667-3.466c3.459,2.271,7.479,3.466,11.668,3.466 h0.898V33.529z"></path><path fill="#0CB4C4" d="M59.965,22.017v-7.304l-3.604-0.917c-0.282-0.915-0.647-1.8-1.09-2.639l1.897-3.196l-5.165-5.164 l-3.195,1.897c-0.84-0.443-1.724-0.808-2.64-1.09L45.249,0h-7.302l-0.918,3.604c-0.915,0.282-1.8,0.647-2.64,1.09l-3.195-1.897 L26.03,7.962l1.898,3.196c-0.443,0.839-0.809,1.723-1.092,2.639l-3.604,0.917v2.058c-1.515-0.745-2.921-1.727-4.149-2.957 L18.4,13.132l-0.683,0.683c-2.935,2.934-6.836,4.55-10.984,4.55H0.035v15.164c0,11.742,7.071,22.079,18.016,26.335L18.4,60 l0.351-0.137c10.944-4.256,18.016-14.592,18.016-26.334v-0.501c0.088,0.029,0.176,0.07,0.263,0.098l0.92,3.605h7.303l0.917-3.605 c0.915-0.281,1.8-0.646,2.64-1.09l3.195,1.898l5.164-5.165l-1.897-3.196c0.442-0.839,0.808-1.723,1.091-2.639L59.965,22.017z M34.833,33.529c0,10.813-6.437,20.348-16.433,24.394C8.405,53.876,1.969,44.342,1.969,33.529v-13.23h4.765 c4.35,0,8.458-1.58,11.667-4.468c3.21,2.888,7.317,4.468,11.668,4.468h4.765V33.529z M35.8,18.365c0-3.199,2.601-5.799,5.8-5.799 s5.799,2.6,5.799,5.799s-2.6,5.8-5.799,5.8c-1.97,0-3.754-0.981-4.833-2.625v-3.175H35.8z M36.767,24.387 c1.347,1.091,3.03,1.712,4.833,1.712c4.264,0,7.732-3.469,7.732-7.733c0-4.264-3.469-7.732-7.732-7.732 c-4.265,0-7.733,3.469-7.733,7.732h-1.933c0-5.33,4.336-9.666,9.666-9.666s9.666,4.336,9.666,9.666s-4.336,9.666-9.666,9.666 c-1.707,0-3.36-0.471-4.833-1.326V24.387z M54.8,21.338l-0.147,0.545c-0.306,1.137-0.754,2.224-1.333,3.227l-0.282,0.489 l1.702,2.867l-3.04,3.039l-2.867-1.701l-0.489,0.282c-1.003,0.578-2.089,1.026-3.226,1.332l-0.545,0.147l-0.823,3.232h-4.297 l-0.825-3.233l-0.547-0.146c-0.431-0.115-0.871-0.269-1.313-0.438v-2.073c1.509,0.694,3.152,1.059,4.832,1.059 c6.396,0,11.599-5.203,11.599-11.6c0-6.396-5.203-11.599-11.599-11.599S30.003,11.967,30,18.363 c-1.669-0.008-3.293-0.287-4.833-0.798v-1.347l3.232-0.826l0.146-0.545c0.307-1.136,0.754-2.223,1.333-3.226l0.282-0.49 l-1.702-2.867l3.04-3.039l2.867,1.701l0.489-0.282c1.003-0.579,2.09-1.026,3.226-1.333l0.546-0.147l0.822-3.232h4.297l0.826,3.232 l0.545,0.147c1.137,0.305,2.223,0.754,3.226,1.333l0.489,0.282l2.867-1.701l3.04,3.039l-1.702,2.867l0.282,0.49 c0.579,1.003,1.027,2.089,1.333,3.226l0.147,0.545l3.231,0.824v4.296L54.8,21.338z"></path></g><g><path fill="#0CB4C4" d="M13.9,30.25v1.5h-2.25c-0.414,0-0.75,0.336-0.75,0.75v9c0,0.414,0.336,0.75,0.75,0.75h13.5 c0.414,0,0.75-0.336,0.75-0.75v-9c0-0.414-0.336-0.75-0.75-0.75H22.9v-1.5c0-2.485-2.015-4.5-4.5-4.5S13.9,27.765,13.9,30.25z M24.4,40.75h-12v-7.5h12V40.75z M21.4,30.25v1.5h-6v-1.5c0-1.656,1.344-3,3-3S21.4,28.594,21.4,30.25z"></path><path fill="#0CB4C4" d="M18.4,35.5c-0.414,0-0.75,0.336-0.75,0.75v1.5c0,0.414,0.336,0.75,0.75,0.75s0.75-0.336,0.75-0.75v-1.5 C19.15,35.836,18.814,35.5,18.4,35.5z"></path></g></g></svg>