<svg version="1.1" id="Layer_1" xmlns="http://www.w3.org/2000/svg" xmlns:xlink="http://www.w3.org/1999/xlink" x="0px" y="0px" width="53.431px" height="60px" viewBox="0 0 53.431 60" enable-background="new 0 0 53.431 60" xml:space="preserve"><g><path fill="#0CB4C4" d="M12.186,6.101c0.004-3.365-2.721-6.096-6.086-6.1S0.004,2.722,0,6.087 c-0.004,3.006,2.185,5.565,5.156,6.028v8.522c0.006,3.621,2.941,6.553,6.562,6.556h1c0.496-0.793,1.291-1.352,2.205-1.55 c0.041-0.11,0.091-0.216,0.134-0.324h-3.339c-2.586-0.001-4.682-2.095-4.687-4.681v-8.522C9.994,11.651,12.181,9.101,12.186,6.101z M6.093,10.319c-2.33,0-4.218-1.889-4.218-4.218s1.889-4.218,4.218-4.218s4.218,1.889,4.218,4.218 C10.308,8.43,8.421,10.317,6.093,10.319z"></path><path fill="#0CB4C4" d="M27.653,15.475v-3.361c3.325-0.518,5.601-3.633,5.083-6.958s-3.633-5.601-6.958-5.083 s-5.601,3.633-5.083,6.958c0.408,2.62,2.463,4.675,5.083,5.083v3.361H27.653z M22.497,6.101c0-2.33,1.889-4.218,4.218-4.218 s4.218,1.889,4.218,4.218s-1.889,4.218-4.218,4.218C24.387,10.317,22.5,8.43,22.497,6.101z"></path><path fill="#0CB4C4" d="M25.778,44.533v3.281h-3.281c-0.518,0-0.937,0.42-0.937,0.937v10.311c0,0.518,0.42,0.937,0.937,0.937h8.436 c0.518,0,0.937-0.42,0.937-0.937V48.752c0-0.518-0.42-0.937-0.937-0.937h-3.281v-3.281H25.778z M29.996,49.689v8.436h-6.562v-8.436 H29.996z"></path><path fill="#0CB4C4" d="M43.119,47.814c-0.518,0-0.937,0.42-0.937,0.937v10.311c0,0.518,0.42,0.937,0.937,0.937h8.436 c0.518,0,0.937-0.42,0.937-0.937V48.752c0-0.518-0.42-0.937-0.937-0.937h-3.281v-8.442c-0.006-3.621-2.941-6.553-6.562-6.556h-1 c-0.496,0.793-1.291,1.352-2.205,1.55c-0.041,0.11-0.091,0.216-0.134,0.324h3.339c2.586,0.001,4.682,2.095,4.687,4.681v8.442 H43.119z M50.618,49.689v8.436h-6.562v-8.436H50.618z"></path><path fill="#0CB4C4" d="M11.717,34.691h3.339c-0.044-0.109-0.094-0.215-0.134-0.324c-0.914-0.199-1.709-0.758-2.205-1.55h-1 c-3.621,0.002-6.556,2.935-6.562,6.556v8.442H1.875c-0.518,0-0.937,0.42-0.937,0.937v10.311C0.937,59.58,1.357,60,1.875,60h8.436 c0.518,0,0.937-0.42,0.937-0.937V48.752c0-0.518-0.42-0.937-0.937-0.937H7.03v-8.442C7.035,36.786,9.132,34.692,11.717,34.691z M9.374,49.689v8.436H2.812v-8.436H9.374z"></path><path fill="#0CB4C4" d="M41.713,25.317h-3.339c0.044,0.109,0.094,0.215,0.134,0.324c0.914,0.199,1.709,0.758,2.205,1.55h1 c3.621-0.002,6.556-2.935,6.562-6.556v-8.522c3.325-0.518,5.601-3.633,5.083-6.958S49.725-0.444,46.4,0.073 s-5.601,3.633-5.083,6.958c0.408,2.62,2.463,4.675,5.083,5.083v8.522C46.395,23.222,44.299,25.316,41.713,25.317z M43.119,6.101 c0-2.33,1.889-4.218,4.218-4.218c2.33,0,4.218,1.889,4.218,4.218s-1.889,4.218-4.218,4.218C45.009,10.317,43.122,8.43,43.119,6.101 z"></path><path fill="#0CB4C4" d="M15.649,27.439c-0.877,0.001-1.587,0.712-1.588,1.589v1.953c0.001,0.877,0.711,1.588,1.588,1.589h0.677 c0.259,1.045,0.674,2.045,1.23,2.967l-0.48,0.48c-0.62,0.62-0.62,1.626,0,2.246l1.38,1.381c0.628,0.601,1.618,0.601,2.247,0 l0.48-0.479c0.922,0.556,1.922,0.971,2.967,1.23v0.677c0.001,0.877,0.712,1.587,1.588,1.588h1.953 c0.877-0.001,1.588-0.711,1.589-1.588v-0.677c1.045-0.259,2.045-0.674,2.967-1.23l0.48,0.479c0.628,0.6,1.618,0.6,2.246,0 l1.38-1.38c0.62-0.619,0.621-1.624,0.002-2.245c-0.001-0.001-0.001-0.001-0.002-0.002l-0.479-0.48 c0.556-0.922,0.971-1.922,1.23-2.967h0.677c0.877-0.001,1.587-0.712,1.588-1.589v-1.953c-0.001-0.877-0.711-1.588-1.588-1.589 h-0.677c-0.259-1.045-0.674-2.045-1.23-2.967l0.479-0.48c0.62-0.62,0.621-1.625,0.001-2.245c0,0-0.001-0.001-0.001-0.001 l-1.38-1.38c-0.628-0.601-1.618-0.601-2.246,0l-0.48,0.479c-0.922-0.556-1.922-0.971-2.967-1.23v-0.677 c-0.001-0.877-0.712-1.587-1.589-1.588h-1.953c-0.877,0.001-1.587,0.711-1.588,1.588v0.677c-1.045,0.259-2.045,0.674-2.967,1.23 l-0.479-0.479c-0.628-0.601-1.618-0.601-2.247,0l-1.381,1.38c-0.62,0.62-0.621,1.626-0.001,2.246c0,0,0,0,0,0l0.479,0.48 c-0.556,0.922-0.971,1.922-1.23,2.967L15.649,27.439z M17.881,29.314l0.131-0.782c0.218-1.313,0.735-2.558,1.509-3.64l0.46-0.646 l-1.377-1.377l0.976-0.975l1.377,1.376l0.646-0.46c1.082-0.774,2.327-1.29,3.64-1.509l0.782-0.131v-1.946h1.38v1.946l0.782,0.131 c1.313,0.218,2.558,0.734,3.64,1.509l0.646,0.46l1.376-1.376l0.976,0.976l-1.376,1.376l0.46,0.646 c0.774,1.082,1.29,2.327,1.509,3.64l0.131,0.782h1.946v1.38h-1.946l-0.131,0.782c-0.218,1.313-0.734,2.558-1.509,3.64l-0.46,0.646 l1.376,1.376l-0.976,0.976l-1.376-1.376l-0.646,0.46c-1.082,0.774-2.327,1.29-3.64,1.509l-0.782,0.131v1.946h-1.38v-1.946 l-0.782-0.131c-1.313-0.218-2.558-0.734-3.64-1.509l-0.646-0.46l-1.377,1.376l-0.976-0.975l1.377-1.377l-0.46-0.646 c-0.774-1.082-1.291-2.327-1.509-3.64l-0.131-0.782h-1.946v-1.38H17.881z"></path><path fill="#0CB4C4" d="M26.715,36.097c3.365,0,6.093-2.728,6.093-6.093s-2.728-6.093-6.093-6.093s-6.093,2.728-6.093,6.093 C20.626,33.367,23.352,36.093,26.715,36.097z M26.715,25.786c2.33,0,4.218,1.889,4.218,4.218c0,2.33-1.889,4.218-4.218,4.218 s-4.218-1.889-4.218-4.218C22.499,27.675,24.387,25.788,26.715,25.786z"></path></g></svg>