<svg width="60" height="60" viewBox="0 0 60 60" fill="none" xmlns="http://www.w3.org/2000/svg"><path d="M1.00001 52.0005H27.0003V50.0005H2.00002V6.00006H27.0003V12.0001C27.0003 12.2653 27.1056 12.5198 27.2931 12.7073C27.4806 12.8948 27.7351 13.0001 28.0003 13.0001H34.0003V20.0002H36.0003V1.00001C36.0003 0.73483 35.895 0.480359 35.7075 0.29286C35.52 0.105361 35.2655 0 35.0003 0H1.00001C0.447776 0 0 0.447776 0 1.00001V51.0005C0 51.2657 0.105359 51.5201 0.29286 51.7076C0.480361 51.8951 0.73483 52.0005 1.00001 52.0005ZM29.0003 11.0001V7.4139L32.5865 11.0001H29.0003ZM34.0003 2.00002V9.58626L28.7075 4.29296C28.6227 4.20903 28.5227 4.14117 28.4133 4.09295C28.3838 4.08045 28.3539 4.06929 28.3235 4.05992C28.2383 4.0309 28.1494 4.01349 28.0593 4.00813C28.0392 4.00992 28.0204 4.0001 28.0003 4.0001H2.00008V2.00008L34.0003 2.00002Z" fill="#0CB4C4"></path><path d="M9.0001 17.1178L12.5533 18.9C13.0042 19.1255 13.5524 18.9795 13.8323 18.5599L17.0002 13.8L20.1681 18.5519C20.3346 18.8014 20.6038 18.9626 20.9016 18.992C21.1998 19.0215 21.4953 18.9157 21.7074 18.7041L25.0002 15.4139L28.2931 18.7067L29.7069 17.2929L25.7069 13.2928H25.7073C25.3167 12.9027 24.6836 12.9027 24.293 13.2928L21.155 16.4308L17.8318 11.4446L17.8323 11.445C17.6358 11.1825 17.3278 11.0281 17.0001 11.0281C16.6724 11.0281 16.3644 11.1825 16.168 11.445L12.6567 16.7111L9.44687 15.1053V15.1049C9.16562 14.9642 8.83436 14.9642 8.55311 15.1049L5.99994 16.3821V11.9999H3.99992V22C3.99992 22.2652 4.10528 22.5197 4.29278 22.7072C4.48028 22.8947 4.73475 23 4.99993 23H29.0002V21H5.99994V18.6178L9.0001 17.1178Z" fill="#0CB4C4"></path><path d="M25.0002 33.0005C25.0007 31.8156 24.6493 30.6571 23.9904 29.6723C22.9159 28.0634 21.1314 27.0709 19.1975 27.0071C17.264 26.9437 15.418 27.8165 14.2403 29.3514C13.0621 30.8863 12.6969 32.8952 13.2586 34.7465C13.8206 36.5979 15.2408 38.0648 17.0733 38.6863C18.9055 39.3078 20.9252 39.0073 22.4971 37.8796C24.0694 36.7519 25.0015 34.9354 25.0002 33.0006L25.0002 33.0005ZM20.0002 31.1325V29.1325C20.619 29.2928 21.1904 29.5995 21.6663 30.0263L20.0002 31.1325ZM19.0002 37.0005C17.6908 37.0005 16.4644 36.3599 15.7167 35.2848C14.9691 34.2098 14.7944 32.837 15.2498 31.6094C15.7051 30.3817 16.7324 29.4548 18.0002 29.1272V33.0005C18.0002 33.3692 18.2029 33.7085 18.5283 33.8826C18.6047 33.9223 18.6859 33.9527 18.7703 33.9723C18.8011 33.9795 18.8332 33.9795 18.8645 33.9835H18.864C18.9091 33.9924 18.9547 33.9982 19.0002 34.0005H19.0221C19.085 33.9969 19.1471 33.9875 19.2082 33.9723C19.2386 33.9688 19.2685 33.9634 19.2984 33.9563C19.389 33.9281 19.4757 33.8875 19.5551 33.8353L22.7762 31.687V31.6875C22.9244 32.1094 23.0003 32.5531 23.0003 33.0004C23.0003 34.0611 22.5788 35.0786 21.8288 35.829C21.0784 36.579 20.0609 37.0005 19.0002 37.0005Z" fill="#0CB4C4"></path><path d="M4.00003 29.0002H11.0001V31.0003H4.00003V29.0002Z" fill="#0CB4C4"></path><path d="M4.00003 25.0002H13.0001V27.0003H4.00003V25.0002Z" fill="#0CB4C4"></path><path d="M4.00003 33.0002H11.0001V35.0003H4.00003V33.0002Z" fill="#0CB4C4"></path><path d="M4.00003 37.0005H11.0001V39.0005H4.00003V37.0005Z" fill="#0CB4C4"></path><path d="M4.00003 41.0005H22.0002V43.0005H4.00003V41.0005Z" fill="#0CB4C4"></path><path d="M4.00003 45.0005H13.0001V47.0005H4.00003V45.0005Z" fill="#0CB4C4"></path><path d="M15.0002 45.0005H22.0002V47.0005H15.0002V45.0005Z" fill="#0CB4C4"></path><path d="M4.00003 8H6.00005V10H4.00003V8Z" fill="#0CB4C4"></path><path d="M8.00008 8H10.0001V10H8.00008V8Z" fill="#0CB4C4"></path><path d="M12.0001 8H14.0001V10H12.0001V8Z" fill="#0CB4C4"></path><path d="M43.5718 20C40.0222 20.0192 36.5727 21.1795 33.7329 23.3094C30.8931 25.4394 28.8132 28.4261 27.8007 31.8283L24.0409 44.7198C23.9525 45.0221 24.0119 45.348 24.2007 45.5997C24.3896 45.8515 24.686 45.9997 25.0007 45.9997H29.0008V52.9998C29.003 54.8556 29.7414 56.6347 31.0535 57.9472C32.366 59.2592 34.1451 59.9976 36.0008 59.9999H59.0011C59.2662 59.9999 59.5207 59.8945 59.7082 59.707C59.8957 59.5195 60.0011 59.2651 60.0011 58.9999V36.4282C59.9962 32.0724 58.2636 27.8965 55.1837 24.8167C52.1037 21.7368 47.9278 20.0042 43.5721 19.9993L43.5718 20ZM31.0003 53.0004V45.0003C31.0003 44.7351 30.8949 44.4806 30.7074 44.2931C30.5199 44.1056 30.2655 44.0003 30.0003 44.0003H26.3333L29.7204 32.3887C30.4646 29.8119 31.916 27.4954 33.9092 25.7011C35.903 23.9069 38.3597 22.7069 41.0004 22.2377V58.0003H36.0003C34.6748 57.9985 33.4039 57.4713 32.4664 56.5342C31.5293 55.5967 31.0021 54.3257 31.0003 53.0002V53.0004ZM58.0006 58.0004H43.0004V53.0004H45.5866L48.2938 55.7076H48.2934C48.4809 55.8951 48.7354 56.0004 49.0005 56.0004H51.0006V54.0004H49.4144L46.7071 51.2932H46.7076C46.5201 51.1057 46.2656 51.0003 46.0004 51.0003H43.0004V46.0003H44.5866L47.2938 48.7075H47.2934C47.4809 48.895 47.7353 49.0004 48.0005 49.0004H49.1844C49.5014 49.8973 50.2251 50.5906 51.1348 50.8692C52.0442 51.1473 53.0322 50.9781 53.7969 50.4125C54.5617 49.8464 55.0131 48.9518 55.0131 48.0005C55.0131 47.0492 54.5617 46.1545 53.7969 45.5885C53.0322 45.0228 52.0442 44.8536 51.1348 45.1318C50.225 45.4103 49.5013 46.1036 49.1844 47.0006H48.4143L45.7071 44.2933H45.7075C45.52 44.1058 45.2656 44.0005 45.0004 44.0005H43.0004V41.0005H45.0004V39.0004H43.0004V36.0004H46.0004C46.2656 36.0004 46.5201 35.895 46.7076 35.7075L49.1076 33.3075C49.6384 33.7517 50.308 33.9968 51.0004 34.0004C51.8424 34.0115 52.6508 33.6727 53.2334 33.0656C53.8165 32.458 54.1214 31.6361 54.0759 30.7955C54.0299 29.9548 53.6379 29.1709 52.9924 28.6303C52.3473 28.0897 51.5066 27.841 50.671 27.9433C49.8353 28.0455 49.0794 28.4897 48.5834 29.17C48.0879 29.8499 47.8959 30.7058 48.0544 31.5325L45.5865 34.0005H43.0003V22.0152C43.2003 22.0054 43.3873 22 43.5713 22C47.3968 22.0045 51.0641 23.5263 53.7691 26.2313C56.474 28.9362 57.9959 32.6037 58.0003 36.4291L58.0006 58.0004ZM51.0005 48.0003C51.0005 47.5958 51.2442 47.2311 51.6179 47.0766C51.9916 46.9217 52.4215 47.007 52.7076 47.2932C52.9938 47.5793 53.0791 48.0092 52.9242 48.3829C52.7697 48.7566 52.405 49.0003 52.0005 49.0003C51.4483 49.0003 51.0005 48.5525 51.0005 48.0003ZM50.0005 31.0002C50.0005 30.5957 50.2442 30.2309 50.6179 30.0765C50.9915 29.9216 51.4215 30.0068 51.7076 30.293C51.9938 30.5792 52.0791 31.0091 51.9241 31.3827C51.7697 31.7564 51.4049 32.0002 51.0005 32.0002C50.4483 32.0002 50.0005 31.5524 50.0005 31.0002Z" fill="#0CB4C4"></path><path d="M35.1295 34.0002C34.1027 34.0002 33.1183 34.4083 32.3924 35.1342C31.6661 35.8601 31.2585 36.8445 31.2585 37.8712C31.2585 38.898 31.6661 39.8825 32.3924 40.6083C33.1183 41.3346 34.1027 41.7422 35.1295 41.7422C36.1562 41.7422 37.1407 41.3346 37.8665 40.6083C38.5924 39.8824 39.0005 38.898 39.0005 37.8712C38.9996 36.8449 38.5915 35.8605 37.8656 35.1351C37.1402 34.4092 36.1558 34.0011 35.1295 34.0002ZM35.1295 39.7413C34.633 39.7413 34.1572 39.544 33.8063 39.1931C33.4554 38.8422 33.2585 38.3663 33.2585 37.8699C33.2585 37.3735 33.4558 36.8976 33.8067 36.5467C34.1581 36.1962 34.634 35.9989 35.1299 35.9993C35.6264 35.9993 36.1023 36.1967 36.4531 36.548C36.804 36.8989 37.0009 37.3748 37.0005 37.8712C37 38.3672 36.8027 38.8427 36.4518 39.1931C36.1009 39.544 35.6254 39.7409 35.1295 39.7413Z" fill="#0CB4C4"></path><path d="M49.1845 39.0004H47.0006V41.0004H49.1845C49.5014 41.8973 50.2251 42.5906 51.1349 42.8692C52.0443 43.1473 53.0323 42.9781 53.797 42.4125C54.5617 41.8464 55.0131 40.9518 55.0131 40.0005C55.0131 39.0492 54.5618 38.1545 53.797 37.5885C53.0322 37.0228 52.0443 36.8536 51.1349 37.1318C50.2251 37.4103 49.5014 38.1036 49.1845 39.0006V39.0004ZM53.0006 40.0004C53.0006 40.4048 52.7569 40.7696 52.3832 40.924C52.0095 41.079 51.5796 40.9937 51.2935 40.7075C51.0073 40.4214 50.922 39.9915 51.0769 39.6178C51.2314 39.2441 51.5961 39.0004 52.0006 39.0004C52.2658 39.0004 52.5203 39.1057 52.7078 39.2932C52.8953 39.4807 53.0006 39.7352 53.0006 40.0004Z" fill="#0CB4C4"></path><path d="M45.0004 26.0002H47.0005V28.0003H45.0004V26.0002Z" fill="#0CB4C4"></path><path d="M53.0005 54.0005H55.0005V56.0005H53.0005V54.0005Z" fill="#0CB4C4"></path></svg>