<svg width="64" height="60" viewBox="0 0 64 60" fill="none" xmlns="http://www.w3.org/2000/svg"><path d="M13.0485 41.6113L15.299 40.3094L5.27495 22.9146L38.7382 3.55598L44.0279 12.7354L46.2779 11.4336L39.6898 0L1.72607 21.9616L13.0485 41.6113Z" fill="#0CB4C4"></path><path d="M50.2224 18.2795L47.9719 19.5809L58.0587 37.0853L24.5955 56.444L19.2425 47.1553L16.992 48.4566L23.6439 60L61.6076 38.0384L50.2224 18.2795Z" fill="#0CB4C4"></path><path d="M0.00549316 52.4112V55.4167L30.0482 38.0383L18.7768 18.4767L16.5263 19.778L26.4994 37.0846L0.00549316 52.4112Z" fill="#0CB4C4"></path><path d="M0.00549316 7.70664L7.17971 3.55634L12.5826 12.9333L14.8331 11.6319L8.13028 0.000488281L0.00549316 4.70024V7.70664Z" fill="#0CB4C4"></path><path d="M63.293 7.6459V4.64038L33.352 21.9608L44.722 41.6926L46.9715 40.3908L36.9009 22.914L63.293 7.6459Z" fill="#0CB4C4"></path><path d="M63.293 52.3533L56.2209 56.444L50.916 47.2369L48.6661 48.5388L55.2698 59.9999L63.2932 55.3588L63.293 52.3533Z" fill="#0CB4C4"></path></svg>