<svg width="60" height="60" viewBox="0 0 60 60" fill="none" xmlns="http://www.w3.org/2000/svg"><path d="M58.6933 27.1389C59.2064 27.1389 59.6218 26.7236 59.6218 26.211V17.2825C59.6218 16.7699 59.2064 16.354 58.6933 16.354H49.7822C49.2697 16.354 48.8538 16.7699 48.8538 17.2825V21.3331H43.6894V17.2825C43.6894 16.7699 43.2735 16.354 42.7609 16.354H39.2166V10.7171H42.7609C43.2735 10.7171 43.6894 10.3018 43.6894 9.78866V0.860662C43.6538 0.374674 43.2486 -0.00167255 42.7609 2.00348e-05H33.8329C33.3204 2.00348e-05 32.9045 0.415368 32.9045 0.927916V9.78865C32.9045 10.3018 33.3204 10.7171 33.8329 10.7171H37.3603V16.354H33.8329C33.3204 16.354 32.9045 16.7699 32.9045 17.2824V21.3331H27.7231V17.2824C27.7231 16.7699 27.3078 16.354 26.7947 16.354H17.8667C17.3541 16.354 16.9382 16.7699 16.9382 17.2824V21.3331H11.7738V17.2824C11.7738 16.7699 11.3585 16.354 10.8454 16.354H7.30106V10.7171H10.8454C11.3585 10.7171 11.7738 10.3018 11.7738 9.78865V0.860646C11.7382 0.374659 11.333 -0.00168689 10.8454 5.68663e-06H1.91735C1.4048 5.68663e-06 0.988892 0.415353 0.988892 0.927902V9.78863C0.988892 10.3017 1.4048 10.7171 1.91735 10.7171H5.44472V16.354H1.91735C1.4048 16.354 0.988892 16.7699 0.988892 17.2824V26.211C0.988892 26.7236 1.4048 27.1389 1.91735 27.1389H5.44472V32.7758L1.91735 32.7763C1.4048 32.7763 0.988892 33.1917 0.988892 33.7042V42.6159C0.988892 43.1284 1.4048 43.5444 1.91735 43.5444H10.8454C11.3585 43.5444 11.7738 43.1284 11.7738 42.6159V39.0885H16.9382V42.6159C16.9382 43.1284 17.3541 43.5444 17.8667 43.5444H21.411V49.1812H17.8667C17.3541 49.1812 16.9382 49.5971 16.9382 50.1097V59.0715C16.9382 59.5841 17.3541 60 17.8667 60H26.7947C27.3078 60 27.7231 59.5841 27.7231 59.0715V50.1097C27.7231 49.5971 27.3078 49.1812 26.7947 49.1812H23.2504V43.5444H26.7947C27.0422 43.5489 27.2812 43.4522 27.4564 43.2776C27.6316 43.1024 27.7276 42.8634 27.7231 42.6159V39.0885H32.9045V42.6159C32.8999 42.8634 32.996 43.1024 33.1712 43.2776C33.3464 43.4522 33.5854 43.5489 33.8329 43.5444H42.7609C43.2735 43.5444 43.6894 43.1284 43.6894 42.6159V39.0885H48.8538V42.6159C48.8538 43.1284 49.2697 43.5444 49.7822 43.5444H53.3265V49.1812H49.7822C49.2697 49.1812 48.8538 49.5971 48.8538 50.1097V59.0715C48.8538 59.5841 49.2697 60 49.7822 60H58.6933C59.2064 60 59.6218 59.5841 59.6218 59.0715V50.1097C59.6218 49.5971 59.2064 49.1812 58.6933 49.1812H55.1829V43.5444H58.6933C59.2064 43.5444 59.6218 43.1284 59.6218 42.6159V33.7552C59.6218 33.2426 59.2064 32.8267 58.6933 32.8267H55.1829V27.1391L58.6933 27.1389ZM34.7614 8.86051V1.78885H41.8167V8.86051H34.7614ZM34.7614 18.2106H41.8167V25.3162H34.7614V18.2106ZM18.7947 18.2106H25.8664L25.8669 25.3162H18.7953L18.7947 18.2106ZM2.84538 8.86051V1.78885H9.91704V8.86051H2.84538ZM2.84538 25.2829V18.2112H9.91704V25.3167L2.84538 25.2829ZM9.91704 41.6879H2.84538V34.6332H9.91704V41.6879ZM16.9378 33.7556V37.283H11.7734V33.7556C11.7734 33.2431 11.358 32.8272 10.8449 32.8272H7.30063V27.1395H10.8449C11.358 27.1395 11.7734 26.7242 11.7734 26.2116V23.19H16.9378V26.2116C16.9378 26.7242 17.3537 27.1395 17.8662 27.1395H21.4105V32.7764H17.8662V32.777C17.6108 32.7764 17.3667 32.8809 17.1909 33.0663C17.0158 33.2516 16.9242 33.5008 16.9378 33.7556ZM25.8658 51.0894V58.161H18.7947V51.0386L25.8658 51.0894ZM25.8658 41.7392H18.7947V34.6337H25.8664L25.8658 41.7392ZM32.904 33.7561V37.2834H27.7227V33.7561C27.7272 33.5085 27.6312 33.2695 27.456 33.0943C27.2808 32.9197 27.0417 32.8231 26.7942 32.8276H23.2499V27.1399H26.7942C27.3074 27.1399 27.7227 26.7246 27.7227 26.2121V23.1904H32.904V26.2121C32.904 26.7246 33.3199 27.1399 33.8325 27.1399H37.3598V32.7768L33.8325 32.7774C33.5754 32.7717 33.3284 32.8751 33.1515 33.0611C32.9747 33.2475 32.8848 33.5001 32.904 33.7561ZM41.8157 41.6883H34.7604V34.6336H41.8157V41.6883ZM48.8533 33.7561V37.2834H43.6889V33.7561C43.6889 33.2435 43.273 32.8276 42.7605 32.8276H39.2162V27.1399H42.7605C43.273 27.1399 43.6889 26.7246 43.6889 26.2121V23.1904H48.8533V26.2121C48.8533 26.7246 49.2693 27.1399 49.7818 27.1399H53.3261V32.7768H49.7818V32.7774C49.5264 32.7768 49.2823 32.8814 49.1065 33.0667C48.9313 33.2521 48.8392 33.5012 48.8533 33.7561ZM57.7813 51.0898V58.1615H50.7097V51.039L57.7813 51.0898ZM57.7813 34.6848L57.7819 41.6886H50.7097V34.6339L57.7813 34.6848ZM50.7097 25.3177V18.2122H57.7813L57.7819 25.3177H50.7097Z" fill="#0CB4C4"></path></svg>