<svg width="61" height="60" viewBox="0 0 61 60" fill="none" xmlns="http://www.w3.org/2000/svg"><path d="M40.7452 44.4281H20.4975C18.1242 44.4281 16.1933 42.4972 16.1933 40.1239V19.8773C16.1933 17.5041 18.1242 15.5731 20.4975 15.5731H40.7452C43.1185 15.5731 45.0494 17.5041 45.0494 19.8773V40.125C45.049 42.4979 43.118 44.4288 40.7448 44.4288L40.7452 44.4281ZM20.4975 17.7575C19.3283 17.7575 18.3775 18.7082 18.3775 19.8774V40.1252C18.3775 41.2944 19.3283 42.2451 20.4975 42.2451H40.7452C41.9144 42.2451 42.8652 41.2944 42.8652 40.1252L42.8647 19.8774C42.8647 18.7082 41.914 17.7575 40.7448 17.7575H20.4975Z" fill="#0CB4C4"></path><path d="M36.9174 37.3871H24.3264C23.7233 37.3871 23.2343 36.8981 23.2343 36.295V23.7052C23.2343 23.102 23.7233 22.613 24.3264 22.613H36.9174C37.5205 22.613 38.0095 23.102 38.0095 23.7052V36.295C38.0095 36.8981 37.5205 37.3871 36.9174 37.3871ZM25.4193 35.2029H35.8252V24.797H25.4193V35.2029Z" fill="#0CB4C4"></path><path d="M51.7437 22.3939H43.9578V20.2097H51.2912L53.239 18.262L54.7835 19.8065L52.516 22.074C52.3112 22.2784 52.0332 22.3938 51.7437 22.3938L51.7437 22.3939Z" fill="#0CB4C4"></path><path d="M56.299 21.0698C53.9155 21.0698 51.9763 19.1305 51.9763 16.7475C51.9763 14.3641 53.9155 12.4248 56.299 12.4248C58.6824 12.4248 60.6217 14.3636 60.6217 16.7475C60.6217 19.1305 58.6824 21.0698 56.299 21.0698ZM56.299 14.6091C55.12 14.6091 54.1605 15.5681 54.1605 16.7475C54.1605 17.9264 55.1196 18.8855 56.299 18.8855C57.4779 18.8855 58.4374 17.9264 58.4374 16.7475C58.4374 15.5681 57.4779 14.6091 56.299 14.6091Z" fill="#0CB4C4"></path><path d="M53.2392 41.7371L51.2915 39.7894L43.9581 39.7898V37.6056H51.744C52.0334 37.6056 52.3114 37.7206 52.5163 37.9254L54.7837 40.1929L53.2392 41.7371Z" fill="#0CB4C4"></path><path d="M56.299 47.5747C53.9155 47.5747 51.9763 45.6354 51.9763 43.252C51.9767 42.0974 52.4265 41.0118 53.2425 40.1954C54.0588 39.3791 55.1439 38.9292 56.2982 38.9292H56.2991C58.6825 38.9292 60.6213 40.8685 60.6213 43.2514C60.6217 45.6358 58.6828 47.5746 56.2991 47.5746L56.299 47.5747ZM56.299 41.1145C55.7276 41.1145 55.191 41.3365 54.7875 41.7405C54.3835 42.144 54.161 42.6811 54.161 43.2524C54.161 44.4313 55.1201 45.3904 56.2994 45.3904C57.4784 45.3904 58.4379 44.4314 58.4379 43.252C58.4379 42.0731 57.4788 41.114 56.2994 41.114L56.299 41.1145Z" fill="#0CB4C4"></path><path d="M56.299 34.323C53.9155 34.323 51.9763 32.3837 51.9763 30.0003C51.9763 27.6169 53.9155 25.6776 56.299 25.6776C58.6824 25.6776 60.6217 27.6169 60.6217 30.0003C60.6217 32.3837 58.6824 34.323 56.299 34.323ZM56.299 27.8619C55.12 27.8619 54.1605 28.8209 54.1605 30.0003C54.1605 31.1792 55.1196 32.1388 56.299 32.1388C57.4779 32.1388 58.4374 31.1792 58.4374 30.0003C58.4374 28.8214 57.4779 27.8619 56.299 27.8619Z" fill="#0CB4C4"></path><path d="M43.9573 28.9082H53.0684V31.0924H43.9573V28.9082Z" fill="#0CB4C4"></path><path d="M9.50016 22.3938C9.21072 22.3938 8.93273 22.2788 8.72787 22.074L6.46039 19.8065L8.00493 18.262L9.95268 20.2097L17.2861 20.2093V22.3935L9.50016 22.3938Z" fill="#0CB4C4"></path><path d="M4.94377 21.07C3.79002 21.07 2.70449 20.6206 1.88852 19.8038C1.07217 18.9874 0.622314 17.9019 0.622314 16.7471C0.622314 14.3637 2.5616 12.4244 4.94501 12.4244C7.32843 12.4244 9.26771 14.3637 9.26771 16.7471C9.26771 19.1306 7.32843 21.0694 4.94501 21.0694C4.94413 21.0698 4.94369 21.0698 4.94369 21.0698L4.94377 21.07ZM4.94466 14.6092C3.76575 14.6092 2.8062 15.5683 2.8062 16.7477C2.8062 17.3191 3.02868 17.8557 3.43223 18.2597C3.83577 18.6636 4.37281 18.8857 4.94373 18.8857H4.94417C6.12353 18.8857 7.08263 17.9266 7.08263 16.7477C7.08307 15.5683 6.12357 14.6092 4.94466 14.6092Z" fill="#0CB4C4"></path><path d="M8.00469 41.7384L6.46014 40.1938L8.72807 37.9264C8.93293 37.7215 9.21091 37.6065 9.50037 37.6065L17.2863 37.6061V39.7903L9.95285 39.7908L8.00469 41.7384Z" fill="#0CB4C4"></path><path d="M4.94489 47.576C2.56148 47.576 0.622192 45.6367 0.622192 43.2537C0.622192 40.8703 2.56148 38.931 4.94489 38.931H4.94577C6.09953 38.931 7.18472 39.3804 8.00103 40.1972C8.81738 41.0136 9.26723 42.0991 9.26723 43.2534C9.26767 45.6373 7.32874 47.5761 4.94498 47.5761L4.94489 47.576ZM4.94577 41.1153H4.94533C3.76597 41.1153 2.80688 42.0744 2.80688 43.2537C2.80688 44.4326 3.76596 45.3917 4.94533 45.3917C6.12424 45.3917 7.08379 44.4327 7.08379 43.2533C7.08379 42.6819 6.8613 42.1453 6.45732 41.7413C6.05334 41.3373 5.5167 41.1153 4.94577 41.1153Z" fill="#0CB4C4"></path><path d="M4.94492 34.323C2.56105 34.323 0.621765 32.3837 0.621765 30.0003C0.621765 27.6169 2.56105 25.6776 4.94401 25.6776C7.32743 25.6776 9.26671 27.6169 9.26671 30.0003C9.26715 32.3833 7.32788 34.3221 4.94492 34.323ZM4.94448 27.8619C3.76557 27.8619 2.80647 28.8209 2.80647 30.0003C2.80647 31.1792 3.76556 32.1388 4.94493 32.1388C6.12384 32.1388 7.08293 31.1792 7.08293 30.0003C7.08293 28.821 6.12341 27.8619 4.94448 27.8619Z" fill="#0CB4C4"></path><path d="M8.17499 28.9082H17.2865V31.0924H8.17499V28.9082Z" fill="#0CB4C4"></path><path d="M23.016 16.6635H20.8317L20.8313 9.33006L18.8835 7.38232L20.4285 5.83777L22.696 8.10525C22.9009 8.3101 23.0159 8.58809 23.0159 8.87754L23.016 16.6635Z" fill="#0CB4C4"></path><path d="M17.369 8.6454C14.9855 8.6454 13.0463 6.70612 13.0463 4.3227C13.0463 1.93928 14.9851 0 17.369 0C19.7524 0 21.6912 1.93928 21.6912 4.3227C21.6912 6.70612 19.7519 8.6454 17.369 8.6454ZM17.369 2.18424C16.1901 2.18424 15.2305 3.14333 15.2305 4.3227C15.2305 5.50161 16.1896 6.46116 17.369 6.46116C18.5479 6.46116 19.507 5.50207 19.507 4.3227C19.507 3.14379 18.5479 2.18424 17.369 2.18424Z" fill="#0CB4C4"></path><path d="M40.4125 16.6634H38.2283L38.2278 8.87754C38.2278 8.5881 38.3428 8.31011 38.5477 8.10525L40.8152 5.83777L42.3597 7.38232L40.412 9.33006L40.4125 16.6634Z" fill="#0CB4C4"></path><path d="M43.8749 8.64579C42.7203 8.64535 41.6348 8.19555 40.8183 7.37959C40.002 6.56324 39.5521 5.47775 39.5521 4.32298C39.5521 1.93956 41.4914 0.000732422 43.8744 0.000732422C46.2578 0.000732422 48.1971 1.94002 48.1971 4.32343C48.1971 6.7064 46.2582 8.64568 43.8748 8.64568L43.8749 8.64579ZM43.8749 2.18464C42.696 2.18464 41.7369 3.14372 41.7369 4.32309C41.7365 4.89449 41.959 5.43109 42.363 5.83505C42.7665 6.23903 43.3035 6.46152 43.8749 6.46152C45.0538 6.46152 46.0129 5.50243 46.0129 4.32306C46.0129 3.14369 45.0539 2.18464 43.8749 2.18464Z" fill="#0CB4C4"></path><path d="M30.622 8.6454C28.2385 8.6454 26.2993 6.70612 26.2993 4.3227C26.2993 1.93928 28.2385 0 30.622 0C33.0054 0 34.9447 1.93928 34.9447 4.3227C34.9447 6.70612 33.0054 8.6454 30.622 8.6454ZM30.622 2.18424C29.443 2.18424 28.4835 3.14333 28.4835 4.3227C28.4835 5.50161 29.443 6.46116 30.622 6.46116C31.8009 6.46116 32.7604 5.50207 32.7604 4.3227C32.7604 3.14379 31.8009 2.18424 30.622 2.18424Z" fill="#0CB4C4"></path><path d="M29.5302 7.55322H31.7145V16.6643H29.5302V7.55322Z" fill="#0CB4C4"></path><path d="M20.4287 54.1611L18.8842 52.6166L20.8319 50.6689L20.8315 43.3354H23.0157L23.0161 51.1213C23.0161 51.4108 22.9012 51.6888 22.6963 51.8936L20.4287 54.1611Z" fill="#0CB4C4"></path><path d="M17.369 59.9999C14.9855 59.9999 13.0463 58.0606 13.0463 55.6772C13.0463 53.2938 14.9855 51.3545 17.369 51.3545C19.7524 51.3545 21.6912 53.2938 21.6912 55.6772C21.6912 56.8314 21.2418 57.9169 20.425 58.7338C19.6095 59.5502 18.5236 60 17.3689 60L17.369 59.9999ZM17.369 53.5387C16.1901 53.5387 15.2305 54.4978 15.2305 55.6772C15.2305 56.8561 16.1896 57.8156 17.369 57.8156C17.9404 57.8156 18.477 57.5932 18.8809 57.1896C19.2849 56.7856 19.5074 56.2486 19.5069 55.6777C19.5069 54.4983 18.5483 53.5387 17.369 53.5387Z" fill="#0CB4C4"></path><path d="M40.8152 54.1612L38.5477 51.8933C38.3428 51.6884 38.2279 51.4104 38.2279 51.121L38.2274 43.3351H40.4117L40.4121 50.6685L42.3598 52.6162L40.8152 54.1612Z" fill="#0CB4C4"></path><path d="M43.8749 60C41.4915 60 39.5522 58.0607 39.5522 55.6773C39.5522 54.5231 40.0016 53.4376 40.8184 52.6207C41.6348 51.8043 42.7203 51.3545 43.8746 51.3545C46.2585 51.3545 48.1978 53.2938 48.1978 55.6772C48.1973 58.0606 46.2585 59.9999 43.8751 59.9999L43.8749 60ZM43.8745 53.5389C43.3031 53.5389 42.7665 53.7613 42.3626 54.1653C41.9586 54.5693 41.7361 55.1059 41.7365 55.6768C41.7365 56.8562 42.6956 57.8153 43.875 57.8153C45.0539 57.8153 46.013 56.8562 46.013 55.6768C46.013 54.4979 45.0539 53.5389 43.8745 53.5389Z" fill="#0CB4C4"></path><path d="M30.622 59.9999C28.2385 59.9999 26.2993 58.0606 26.2993 55.6777C26.2993 53.2943 28.2385 51.355 30.622 51.355C33.0049 51.355 34.9438 53.2943 34.9447 55.6768C34.9447 58.0611 33.0054 59.9999 30.622 59.9999ZM30.622 53.5392C29.443 53.5392 28.4835 54.4983 28.4835 55.6777C28.4835 56.8566 29.4426 57.8157 30.622 57.8157C31.8009 57.8157 32.7604 56.8566 32.7604 55.6772C32.76 54.4988 31.8004 53.5392 30.622 53.5392Z" fill="#0CB4C4"></path><path d="M29.5302 43.3353H31.7145V52.4469H29.5302V43.3353Z" fill="#0CB4C4"></path></svg>