<svg width="65" height="60" viewBox="0 0 65 60" fill="none" xmlns="http://www.w3.org/2000/svg"><path d="M26.1409 19.5886C26.1409 19.394 26.2182 19.2075 26.3558 19.0699C26.4933 18.9323 26.6799 18.855 26.8745 18.855L46.1447 18.87C46.3354 18.8759 46.5163 18.9559 46.6491 19.0929C46.7819 19.2298 46.8561 19.4131 46.8561 19.6039C46.8561 19.7947 46.7819 19.978 46.6491 20.115C46.5163 20.2519 46.3354 20.3319 46.1447 20.3378L26.8745 20.3236C26.778 20.3235 26.6826 20.3044 26.5935 20.2674C26.5045 20.2304 26.4236 20.1763 26.3555 20.108C26.2874 20.0398 26.2333 19.9588 26.1965 19.8696C26.1597 19.7805 26.1408 19.685 26.1409 19.5886ZM26.8745 15.302L46.1447 15.3162C46.3354 15.3103 46.5163 15.2303 46.6491 15.0934C46.7819 14.9564 46.8561 14.7731 46.8561 14.5823C46.8561 14.3915 46.7819 14.2082 46.6491 14.0713C46.5163 13.9343 46.3354 13.8543 46.1447 13.8484L26.8752 13.8334C26.6845 13.8394 26.5036 13.9193 26.3708 14.0563C26.238 14.1933 26.1638 14.3766 26.1638 14.5673C26.1638 14.7581 26.238 14.9414 26.3708 15.0784C26.5036 15.2154 26.6845 15.2953 26.8752 15.3013L26.8745 15.302ZM24.8633 13.8634C24.9254 13.9371 24.9723 14.0223 25.0015 14.1142C25.0306 14.2061 25.0413 14.3028 25.0331 14.3989C25.0248 14.4949 24.9977 14.5884 24.9533 14.6739C24.9089 14.7595 24.848 14.8354 24.7742 14.8974L23.7437 15.7656V20.7224C23.743 20.9165 23.6654 21.1024 23.5279 21.2395C23.3904 21.3766 23.2043 21.4536 23.0102 21.4538H15.7224C15.5278 21.4536 15.3412 21.3762 15.2036 21.2385C15.0661 21.1008 14.9888 20.9142 14.9888 20.7195V13.4346C14.9888 13.2401 15.0661 13.0535 15.2037 12.9159C15.3413 12.7784 15.5278 12.7011 15.7224 12.7011H23.0102C23.2047 12.7011 23.3913 12.7784 23.5289 12.9159C23.6664 13.0535 23.7437 13.2401 23.7437 13.4346V13.8463L23.8292 13.775C23.9028 13.7129 23.9881 13.6659 24.0799 13.6367C24.1718 13.6075 24.2685 13.5967 24.3645 13.6049C24.4606 13.6131 24.554 13.6401 24.6396 13.6845C24.7252 13.7288 24.8012 13.7896 24.8633 13.8634ZM22.2759 17.0019L20.249 18.7112C20.1191 18.8203 19.9554 18.8812 19.7858 18.8834C19.6161 18.8856 19.4509 18.829 19.3182 18.7233L17.2073 17.034C17.1287 16.9749 17.0627 16.9007 17.0134 16.8157C16.964 16.7306 16.9322 16.6366 16.9198 16.539C16.9075 16.4415 16.9149 16.3424 16.9416 16.2478C16.9682 16.1532 17.0136 16.0648 17.0751 15.9881C17.1365 15.9113 17.2128 15.8477 17.2993 15.8009C17.3858 15.7542 17.4808 15.7253 17.5787 15.716C17.6766 15.7067 17.7753 15.7171 17.8691 15.7467C17.9629 15.7762 18.0497 15.8243 18.1246 15.8881L19.7626 17.1985L22.2738 15.0826V14.1689H16.4566V19.9881H22.2759V17.0019ZM24.8633 26.2966C24.9885 26.4456 25.0495 26.6382 25.0328 26.8321C25.0161 27.026 24.9231 27.2054 24.7742 27.3307L23.7437 28.1989V33.1557C23.7437 33.3502 23.6664 33.5368 23.5289 33.6744C23.3913 33.812 23.2047 33.8892 23.0102 33.8892H15.7224C15.5278 33.8892 15.3413 33.812 15.2037 33.6744C15.0661 33.5368 14.9888 33.3502 14.9888 33.1557V25.8693C14.9888 25.6748 15.0661 25.4882 15.2037 25.3506C15.3413 25.2131 15.5278 25.1358 15.7224 25.1358H23.0102C23.2047 25.1358 23.3913 25.2131 23.5289 25.3506C23.6664 25.4882 23.7437 25.6748 23.7437 25.8693V26.281L23.8292 26.2098C23.9779 26.0843 24.1703 26.0229 24.3642 26.0392C24.5581 26.0555 24.7376 26.1481 24.8633 26.2966ZM22.2759 29.4352L20.249 31.1445C20.1192 31.2538 19.9554 31.3147 19.7857 31.3167C19.6159 31.3188 19.4507 31.262 19.3182 31.1559L17.2073 29.468C17.1305 29.4083 17.0664 29.3339 17.0186 29.2492C16.9708 29.1645 16.9403 29.0711 16.9289 28.9745C16.9175 28.8779 16.9254 28.78 16.9521 28.6865C16.9789 28.5929 17.0239 28.5057 17.0847 28.4297C17.1455 28.3538 17.2207 28.2906 17.3061 28.244C17.3915 28.1974 17.4852 28.1682 17.582 28.1581C17.6787 28.148 17.7765 28.1573 17.8697 28.1853C17.9628 28.2133 18.0495 28.2596 18.1246 28.3214L19.7626 29.6318L22.2738 27.5166V26.6029H16.4566V32.4214H22.2759V29.4352ZM17.1838 52.0777H7.99235C7.59978 52.0773 7.2234 51.9212 6.94581 51.6436C6.66822 51.366 6.5121 50.9896 6.51172 50.597V43.8114C6.5121 43.4188 6.66822 43.0424 6.94581 42.7648C7.2234 42.4872 7.59978 42.3311 7.99235 42.3307H9.24936V41.1991C9.24898 40.5643 9.42972 39.9426 9.77037 39.4069C10.111 38.8713 10.5974 38.444 11.1725 38.1751C11.7475 37.9063 12.3874 37.8071 13.0168 37.8893C13.6463 37.9714 14.2392 38.2314 14.726 38.6388C14.8706 38.7651 14.96 38.9431 14.9749 39.1345C14.9898 39.326 14.9292 39.5156 14.806 39.6629C14.6827 39.8101 14.5067 39.9033 14.3157 39.9223C14.1246 39.9413 13.9337 39.8848 13.7838 39.7647C13.5113 39.5364 13.1791 39.3905 12.8265 39.3444C12.4739 39.2984 12.1155 39.3539 11.7934 39.5046C11.4713 39.6552 11.1989 39.8947 11.0082 40.1949C10.8176 40.4951 10.7166 40.8435 10.7172 41.1991V42.3307H17.1838C17.5762 42.3313 17.9524 42.4875 18.2299 42.7651C18.5073 43.0426 18.6633 43.4189 18.6637 43.8114V50.5949C18.6639 50.9877 18.5081 51.3646 18.2306 51.6426C17.9531 51.9206 17.5766 52.0771 17.1838 52.0777ZM17.1959 43.8164C17.1953 43.8133 17.1939 43.8104 17.1917 43.8082C17.1896 43.8059 17.1868 43.8043 17.1838 43.8035H7.99235C7.98915 43.8041 7.9862 43.8056 7.9839 43.8079C7.9816 43.8102 7.98008 43.8132 7.97953 43.8164V50.5999C7.98008 50.6031 7.9816 50.6061 7.9839 50.6084C7.9862 50.6106 7.98915 50.6122 7.99235 50.6127H17.1838C17.1868 50.612 17.1896 50.6103 17.1917 50.6081C17.1939 50.6058 17.1953 50.603 17.1959 50.5999V43.8164ZM12.5881 45.985C12.3935 45.985 12.2068 46.0622 12.0691 46.1998C11.9314 46.3373 11.854 46.5239 11.8538 46.7185V47.6821C11.8507 47.7804 11.8675 47.8783 11.903 47.97C11.9385 48.0617 11.992 48.1454 12.0605 48.216C12.1289 48.2866 12.2109 48.3428 12.3015 48.3811C12.392 48.4195 12.4894 48.4392 12.5877 48.4392C12.6861 48.4392 12.7834 48.4195 12.874 48.3811C12.9645 48.3428 13.0465 48.2866 13.1149 48.216C13.1834 48.1454 13.237 48.0617 13.2725 47.97C13.308 47.8783 13.3247 47.7804 13.3216 47.6821V46.7135C13.3216 46.519 13.2443 46.3324 13.1068 46.1948C12.9692 46.0572 12.7826 45.98 12.5881 45.98V45.985ZM52.4796 34.9461C52.6648 36.4945 52.3865 38.0631 51.6801 39.4534C50.9737 40.8437 49.8709 41.9933 48.5111 42.7567C47.1513 43.5202 45.5956 43.8632 44.0408 43.7424C42.486 43.6216 41.002 43.0424 39.7764 42.0781C38.5508 41.1138 37.6388 39.8076 37.1556 38.3249C36.6724 36.8422 36.6398 35.2495 37.0619 33.7482C37.484 32.247 38.3419 30.9046 39.527 29.891C40.7121 28.8773 42.1712 28.2379 43.7197 28.0536C45.7937 27.809 47.8801 28.3963 49.522 29.6868C51.1638 30.9773 52.2273 32.8659 52.4796 34.939V34.9461ZM51.0217 35.1206C50.8752 33.893 50.377 32.7338 49.5872 31.7826C48.7974 30.8314 47.7496 30.1286 46.5699 29.7588C45.3901 29.3891 44.1286 29.368 42.9372 29.6983C41.7457 30.0285 40.6751 30.6959 39.854 31.6203C39.0329 32.5447 38.4964 33.6866 38.309 34.9086C38.1216 36.1307 38.2913 37.3809 38.7976 38.5088C39.3039 39.6367 40.1254 40.5944 41.1631 41.2665C42.2008 41.9385 43.4106 42.2965 44.647 42.2973C44.9029 42.2979 45.1586 42.2827 45.4126 42.2517C47.1027 42.0481 48.6428 41.182 49.6945 39.8435C50.7463 38.505 51.2237 36.8037 51.0217 35.1135V35.1206ZM64.8523 51.196C64.8628 51.4701 64.8185 51.7435 64.7222 52.0002C64.6258 52.257 64.4793 52.492 64.2911 52.6916L62.6268 54.4649C62.248 54.8673 61.7253 55.1032 61.173 55.1211C60.6207 55.139 60.0838 54.9374 59.6798 54.5603L54.5969 49.803C54.3648 49.586 54.2009 49.3062 54.125 48.9976C54.0491 48.6891 54.0646 48.3651 54.1696 48.0652L52.9624 46.9436V55.9042C52.9624 56.0988 52.8852 56.2854 52.7476 56.4229C52.61 56.5605 52.4234 56.6378 52.2289 56.6378H18.6445C16.9616 58.1498 14.9745 59.2839 12.8167 59.9637C12.6679 60.0121 12.5076 60.0121 12.3587 59.9637C10.1838 59.3045 8.18588 58.1627 6.51405 56.6233C4.84222 55.0839 3.53968 53.1868 2.70368 51.0735C0.977349 46.8951 0.755859 42.0922 0.755859 38.3746C0.755773 38.221 0.803822 38.0713 0.893248 37.9465C0.982673 37.8217 1.10897 37.7281 1.25439 37.6788L8.90324 35.1106V0.733549C8.90324 0.539 8.98052 0.352419 9.11809 0.214852C9.25565 0.0772846 9.44223 1.75861e-07 9.63678 1.75861e-07H43.9398C44.1343 -0.000134137 44.3209 0.0766724 44.459 0.213655L52.7495 8.5056C52.8867 8.64349 52.9636 8.83024 52.9632 9.02479V28.8035C54.373 30.4747 55.2514 32.5289 55.4858 34.7027C55.7202 36.8765 55.2998 39.0707 54.2786 41.0039C54.4485 41.1633 54.5817 41.3577 54.669 41.5736C54.7563 41.7895 54.7956 42.0219 54.7842 42.2545L57.3751 44.6631C57.6648 44.5465 57.9818 44.515 58.2888 44.5721C58.5959 44.6292 58.8802 44.7727 59.1086 44.9858L64.1893 49.7403C64.3911 49.9267 64.5536 50.1514 64.6675 50.4013C64.7813 50.6513 64.8442 50.9215 64.8523 51.196ZM51.0766 28.9388C49.7673 27.712 48.1375 26.8808 46.3757 26.5411C44.6138 26.2014 42.7919 26.3673 41.1203 27.0194C39.4487 27.6715 37.9958 28.7833 36.9294 30.2264C35.8631 31.6694 35.2268 33.3847 35.0942 35.1741C34.9616 36.9634 35.338 38.7538 36.1799 40.3383C37.0219 41.9227 38.295 43.2366 39.8522 44.128C41.4093 45.0195 43.187 45.4521 44.9796 45.3759C46.7723 45.2997 48.5068 44.7178 49.9827 43.6974C50.1207 43.6018 50.2873 43.5564 50.4547 43.5687C50.6221 43.581 50.7803 43.6503 50.9028 43.7651L51.3259 44.1618C51.3539 44.1872 51.3908 44.2008 51.4286 44.1996C51.4665 44.1984 51.5024 44.1826 51.5288 44.1554L51.5751 44.1055C51.6387 43.9787 51.7376 43.8731 51.86 43.8014L53.2844 42.2802C53.2973 42.2665 53.3074 42.2504 53.3141 42.2328C53.3208 42.2153 53.3239 42.1965 53.3233 42.1777C53.3227 42.1589 53.3184 42.1404 53.3106 42.1233C53.3028 42.1061 53.2917 42.0907 53.2779 42.0779L52.8549 41.6805C52.7324 41.5657 52.6529 41.4124 52.6297 41.2462C52.6065 41.0799 52.641 40.9107 52.7274 40.7668C53.8373 38.9011 54.2785 36.713 53.9784 34.563C53.6784 32.413 52.6549 30.4293 51.0766 28.9388ZM44.6741 8.29124H50.4591L44.6741 2.50546V8.29124ZM22.9503 38.9023L12.5881 35.4219L9.85614 36.3384L2.22581 38.9023C2.28064 46.95 3.65729 55.4249 12.5881 58.493C21.5181 55.4249 22.8955 46.95 22.9503 38.9023ZM51.4968 55.17V45.668H51.4761C51.2647 45.6757 51.0538 45.6413 50.8558 45.5668C50.6577 45.4924 50.4764 45.3793 50.3224 45.2343C48.5901 46.2944 46.5988 46.8556 44.5679 46.856C44.3215 46.856 44.0744 46.8474 43.828 46.8303C42.0353 46.7057 40.3005 46.1433 38.7758 45.1923C38.7328 45.2003 38.6892 45.2044 38.6454 45.2044L26.8745 45.1909C26.6838 45.1849 26.5029 45.105 26.3701 44.968C26.2373 44.831 26.1631 44.6477 26.1631 44.457C26.1631 44.2662 26.2373 44.0829 26.3701 43.9459C26.5029 43.8089 26.6838 43.729 26.8745 43.7231L36.9162 43.7316C35.8762 42.72 35.0484 41.5111 34.4813 40.1757L26.8759 40.1693C26.6852 40.1633 26.5043 40.0834 26.3715 39.9464C26.2387 39.8094 26.1645 39.6261 26.1645 39.4354C26.1645 39.2446 26.2387 39.0613 26.3715 38.9243C26.5043 38.7873 26.6852 38.7074 26.8759 38.7015L33.9771 38.7079C33.4591 36.7562 33.486 34.7 34.0547 32.7626L26.8752 32.7569C26.6845 32.7509 26.5036 32.671 26.3708 32.534C26.238 32.397 26.1638 32.2137 26.1638 32.023C26.1638 31.8322 26.238 31.6489 26.3708 31.5119C26.5036 31.3749 26.6845 31.295 26.8752 31.2891L34.6031 31.2955C35.095 30.2205 35.7582 29.2324 36.5666 28.3698C36.7731 28.1497 36.9882 27.9425 37.2075 27.7438L26.8738 27.736C26.6831 27.73 26.5022 27.6501 26.3694 27.5131C26.2366 27.3761 26.1624 27.1928 26.1624 27.0021C26.1624 26.8113 26.2366 26.628 26.3694 26.491C26.5022 26.354 26.6831 26.2741 26.8738 26.2682L39.2536 26.2774C41.1707 25.2191 43.3601 24.7572 45.5413 24.951C47.7225 25.1447 49.7963 25.9853 51.4968 27.3649V9.75905H43.9398C43.7452 9.75886 43.5586 9.68141 43.4211 9.54373C43.2835 9.40605 43.2063 9.2194 43.2063 9.02479V1.46781H10.3703V34.6171L12.3538 33.9512C12.5053 33.8999 12.6694 33.8999 12.821 33.9512L23.9189 37.6788C24.0643 37.7281 24.1906 37.8217 24.28 37.9465C24.3695 38.0713 24.4175 38.221 24.4174 38.3746C24.4174 42.0922 24.1959 46.8951 22.4703 51.0735C21.869 52.5529 21.0492 53.9338 20.0382 55.17H51.4968ZM52.9646 44.9395L55.0726 46.8987L56.2627 45.631L54.0685 43.592L52.9646 44.7693V44.9395ZM63.3845 51.2437C63.3821 51.1632 63.3637 51.084 63.3305 51.0107C63.2972 50.9373 63.2498 50.8713 63.1908 50.8164L58.1108 46.0619C58.0771 46.0309 58.0325 46.0143 57.9867 46.0158C57.9409 46.0173 57.8975 46.0366 57.8658 46.0697L55.594 48.4897C55.5637 48.5231 55.5476 48.567 55.5491 48.612C55.5505 48.657 55.5694 48.6998 55.6018 48.7311L60.6825 53.4857C60.8025 53.5975 60.9618 53.6572 61.1257 53.6519C61.2896 53.6466 61.4447 53.5765 61.5571 53.4572L63.2207 51.6846C63.2758 51.6255 63.3186 51.5562 63.3467 51.4805C63.3748 51.4048 63.3877 51.3244 63.3845 51.2437Z" fill="#0CB4C4"></path></svg>