<svg width="61" height="60" viewBox="0 0 61 60" fill="none" xmlns="http://www.w3.org/2000/svg"><path fill-rule="evenodd" clip-rule="evenodd" d="M15.2946 5.14338C15.8274 5.14338 16.256 5.57812 16.256 6.11083C16.256 6.64353 15.8212 7.07215 15.2946 7.07215C14.7681 7.07215 14.3333 6.64353 14.3333 6.11083C14.3333 5.57812 14.7681 5.14338 15.2946 5.14338ZM15.2946 8.53556C16.6356 8.53556 17.7194 7.44566 17.7194 6.11083C17.7194 4.776 16.6295 3.67997 15.2946 3.67997C13.9598 3.67997 12.8699 4.76987 12.8699 6.11083C12.8699 7.45178 13.9598 8.53556 15.2946 8.53556ZM7.58569 5.14338C8.1184 5.14338 8.54702 5.57812 8.54702 6.11083C8.54702 6.64353 8.11228 7.07215 7.58569 7.07215C7.05911 7.07215 6.62437 6.64353 6.62437 6.11083C6.62437 5.57812 7.05911 5.14338 7.58569 5.14338ZM7.58569 8.53556C8.92665 8.53556 10.0104 7.44566 10.0104 6.11083C10.0104 4.776 8.92052 3.67997 7.58569 3.67997C6.25086 3.67997 5.16096 4.76987 5.16096 6.11083C5.16096 7.45178 6.25086 8.53556 7.58569 8.53556ZM29.7084 18.3753C31.3555 18.3753 32.6964 19.7163 32.6964 21.3634C32.6964 23.0105 31.3555 24.3515 29.7084 24.3515C28.0613 24.3515 26.7203 23.0105 26.7203 21.3634C26.7203 19.7163 28.0613 18.3753 29.7084 18.3753ZM19.6604 19.9857C18.0133 19.9857 16.6723 18.6448 16.6723 16.9977C16.6723 15.3505 18.0133 14.0096 19.6604 14.0096C21.3075 14.0096 22.6485 15.3505 22.6485 16.9977C22.6485 18.6448 21.3075 19.9857 19.6604 19.9857ZM9.61243 28.3253C7.96533 28.3253 6.62437 26.9844 6.62437 25.3373C6.62437 23.6902 7.96533 22.3492 9.61243 22.3492C11.2595 22.3492 12.6005 23.6902 12.6005 25.3373C12.6005 26.9844 11.2595 28.3253 9.61243 28.3253ZM39.8727 12.3564C41.5198 12.3564 42.8607 13.6973 42.8607 15.3444C42.8607 16.9915 41.5198 18.3325 39.8727 18.3325C38.2256 18.3325 36.8846 16.9915 36.8846 15.3444C36.8846 13.6973 38.2256 12.3564 39.8727 12.3564ZM29.7145 25.8088C32.1698 25.8088 34.166 23.8126 34.166 21.3573C34.166 20.7633 34.0496 20.2 33.8414 19.6857L36.4009 18.1121C37.2152 19.1346 38.4705 19.7898 39.8788 19.7898C42.3341 19.7898 44.3303 17.7937 44.3303 15.3383C44.3303 12.8829 42.3341 10.8868 39.8788 10.8868C37.4234 10.8868 35.4273 12.8829 35.4273 15.3383C35.4273 15.8649 35.5192 16.367 35.6845 16.8323L33.0699 18.4366C32.2556 17.4997 31.0493 16.9058 29.7145 16.9058C28.1531 16.9058 26.7754 17.7141 25.9794 18.9387L23.9772 18.0692C24.0629 17.7263 24.1119 17.365 24.1119 16.9915C24.1119 14.5362 22.1157 12.5401 19.6604 12.5401C17.205 12.5401 15.2089 14.5362 15.2089 16.9915C15.2089 17.8059 15.4294 18.5713 15.8151 19.2326L12.5148 21.9696C11.7371 21.2961 10.7207 20.8858 9.60631 20.8858C7.15096 20.8858 5.15483 22.8819 5.15483 25.3373C5.15483 27.7926 7.15096 29.7888 9.60631 29.7888C12.0617 29.7888 14.0578 27.7926 14.0578 25.3373C14.0578 24.5229 13.8374 23.7575 13.4516 23.1024L16.7519 20.3653C17.5296 21.0389 18.546 21.4491 19.6604 21.4491C21.2218 21.4491 22.5995 20.6409 23.3955 19.4163L25.3977 20.2857C25.312 20.6286 25.263 20.9899 25.263 21.3634C25.263 23.8188 27.2591 25.8149 29.7145 25.8149V25.8088ZM22.5321 41.343H16.7948V26.072H22.5321V41.343ZM23.2669 24.6086C23.671 24.6086 24.0017 24.9393 24.0017 25.3373V42.0778C24.0017 42.4819 23.671 42.8064 23.2669 42.8064H16.0662C15.662 42.8064 15.3314 42.4819 15.3314 42.0778V25.3373C15.3314 24.9332 15.662 24.6086 16.0662 24.6086H23.2669ZM12.4842 41.343H6.74071V33.1809H12.478V41.343H12.4842ZM13.2189 31.7175H6.00594C5.60182 31.7175 5.27117 32.042 5.27117 32.4523V42.0778C5.27117 42.4819 5.5957 42.8064 6.00594 42.8064H13.2067C13.6108 42.8064 13.9353 42.4819 13.9353 42.0778V32.4523C13.9353 32.0482 13.6047 31.7175 13.2067 31.7175H13.2189ZM45.9529 39.1938C44.8752 39.8183 43.6935 40.1123 42.5301 40.1123C40.1543 40.1123 37.8459 38.8815 36.5723 36.6833C34.6803 33.4075 35.8069 29.2009 39.0828 27.3028C42.3586 25.4108 46.5652 26.5374 48.4633 29.8132C50.3554 33.0891 49.2287 37.2956 45.9529 39.1938ZM38.3541 26.0353C42.3341 23.7392 47.4347 25.1046 49.7308 29.0846C52.027 33.0646 50.6615 38.1651 46.6815 40.4613C45.3712 41.2144 43.9445 41.5757 42.5301 41.5757C39.6522 41.5757 36.8417 40.0816 35.3048 37.412C33.0087 33.432 34.3741 28.3315 38.3541 26.0353ZM53.025 58.457L47.9306 49.6336L53.9925 46.1129L59.093 54.9485L53.025 58.4509V58.457ZM5.95696 46.1312H44.5874C44.4956 45.9231 44.3976 45.7026 44.2996 45.4761C43.7118 45.5618 43.124 45.6047 42.5301 45.6047C39.4073 45.6047 36.3396 44.4168 34.0251 42.237C33.9517 42.5676 33.6639 42.8125 33.3087 42.8125H26.108C25.7039 42.8125 25.3732 42.488 25.3732 42.0839V29.0662C25.3732 28.6621 25.7039 28.3376 26.108 28.3376H31.1718C32.2188 25.9128 34.0068 23.9045 36.3274 22.5574C41.1463 19.7714 47.0795 20.6164 50.9493 24.2351V9.83978H19.9359L18.2031 11.9461C18.0623 12.1114 17.8541 12.2155 17.6398 12.2155H2.0933V42.2676C2.0933 44.3984 3.82613 46.1312 5.95083 46.1312H5.95696ZM5.95696 1.46341C3.82613 1.46341 2.09942 3.19624 2.09942 5.32095V10.746H17.2908L19.0236 8.63966C19.1644 8.46821 19.3726 8.37024 19.5869 8.37024H50.9493V5.32095C50.9493 3.19012 49.2165 1.46341 47.0918 1.46341H5.95696ZM31.8086 39.4326C32.0474 39.8428 32.3045 40.2347 32.5801 40.6082V41.3491H26.8428V29.7949H30.6513C30.6268 29.8806 30.6023 29.9663 30.5778 30.0582C29.7267 33.2483 30.1615 36.5792 31.8147 39.4387L31.8086 39.4326ZM47.9551 42.6901C53.1597 39.6898 54.9477 33.0095 51.9412 27.811C49.9268 24.3208 46.2529 22.3676 42.4872 22.3676C40.638 22.3676 38.7705 22.8391 37.056 23.8249C34.5333 25.2822 32.7332 27.6273 31.98 30.4378C31.2269 33.2483 31.6126 36.1874 33.0699 38.7039C35.0844 42.1941 38.7583 44.1474 42.524 44.1474C44.3731 44.1474 46.2407 43.682 47.9551 42.6901ZM53.221 44.8699C52.8597 44.3372 52.2474 43.4616 51.2065 42.0349C50.4717 42.7635 49.6267 43.4126 48.6899 43.9575C47.7469 44.5025 46.7672 44.9005 45.7631 45.176C46.0019 45.7087 46.21 46.1741 46.3876 46.5782C46.7611 47.4048 47.0244 47.9682 47.2142 48.3539L53.221 44.8699ZM60.4646 54.4219L54.8803 44.7535C54.568 44.2086 53.6618 42.9166 52.1984 40.9205C55.2355 37.063 55.8049 31.5828 53.2026 27.0762C52.9577 26.6537 52.6944 26.2557 52.4066 25.87V5.32095C52.4066 2.388 50.0186 0 47.0856 0H5.95696C3.01788 0 0.629883 2.388 0.629883 5.32095V42.2615C0.629883 45.1944 3.01788 47.5885 5.95083 47.5885H45.2426C45.7263 48.6539 46.0753 49.3642 46.2774 49.7132L46.2896 49.7316L51.8616 59.3816C52.0882 59.7796 52.5046 60 52.9332 60C53.1414 60 53.3557 59.9449 53.5516 59.8347L60.0176 56.0996C60.6054 55.7567 60.8136 55.0036 60.4707 54.4096L60.4646 54.4219Z" fill="#0CB4C4"></path></svg>