<svg width="61" height="60" viewBox="0 0 61 60" fill="none" xmlns="http://www.w3.org/2000/svg"><path d="M30.4607 23.2402C26.7334 23.2402 23.7012 26.2724 23.7012 29.9997C23.7012 33.727 26.7334 36.7592 30.4607 36.7592C34.1879 36.7592 37.2201 33.727 37.2201 29.9997C37.2201 26.2724 34.1879 23.2402 30.4607 23.2402ZM30.4607 35.2592C27.5606 35.2592 25.2012 32.9001 25.2012 29.9997C25.2012 27.0993 27.5606 24.7402 30.4607 24.7402C33.3607 24.7402 35.7201 27.0993 35.7201 29.9997C35.7201 32.9001 33.3607 35.2592 30.4607 35.2592Z" fill="#0CB4C4"></path><path d="M42.2567 38.2745C42.4669 38.2408 42.6525 38.1199 42.7683 37.9412C43.7332 36.4493 44.4103 34.816 44.7813 33.0875C44.826 32.8795 44.7802 32.662 44.6553 32.4899C44.5305 32.3177 44.3382 32.2064 44.1269 32.1844C43.007 32.0665 42.1629 31.1268 42.1629 29.9996C42.1629 28.8724 43.007 27.9328 44.1269 27.8148C44.3382 27.7929 44.5305 27.6815 44.6553 27.5094C44.7802 27.3373 44.826 27.1198 44.7813 26.9118C44.4103 25.1833 43.7332 23.55 42.7683 22.058C42.6525 21.8793 42.4669 21.7585 42.2567 21.7248C42.0498 21.6911 41.833 21.7475 41.6671 21.8823C40.7918 22.5883 39.5317 22.5209 38.7352 21.7248C37.9387 20.9279 37.8713 19.6674 38.5781 18.7922C38.7118 18.6274 38.7689 18.4128 38.7352 18.2026C38.7015 17.9924 38.5803 17.8071 38.402 17.6914C36.9086 16.7268 35.2756 16.0493 33.5482 15.6787C33.3384 15.6347 33.1223 15.6787 32.9506 15.8047C32.7781 15.9299 32.6671 16.1218 32.6448 16.3335C32.5272 17.4526 31.5879 18.2971 30.4604 18.2971C29.3328 18.2971 28.3938 17.4526 28.2759 16.3335C28.2536 16.1218 28.1423 15.9292 27.9701 15.8047C27.798 15.6794 27.5827 15.6362 27.3725 15.6787C25.6454 16.0493 24.0125 16.7268 22.5191 17.6914C22.3404 17.8064 22.2192 17.9924 22.1855 18.2026C22.1518 18.4128 22.2089 18.6274 22.3426 18.7929C23.0498 19.6674 22.982 20.9279 22.1859 21.7248C21.3894 22.5209 20.13 22.589 19.2536 21.8823C19.0881 21.7475 18.8743 21.6911 18.6637 21.7248C18.4538 21.7585 18.2678 21.8793 18.1525 22.058C17.1879 23.55 16.5107 25.1833 16.1398 26.9118C16.0951 27.1198 16.1409 27.3373 16.2657 27.5094C16.3906 27.6815 16.5829 27.7929 16.7942 27.8148C17.9141 27.9328 18.7582 28.8724 18.7582 29.9996C18.7582 31.1268 17.9141 32.0665 16.7942 32.1844C16.5829 32.2064 16.3906 32.3177 16.2657 32.4899C16.1409 32.662 16.0951 32.8795 16.1398 33.0875C16.5107 34.816 17.1879 36.4493 18.1525 37.9412C18.2678 38.1199 18.4538 38.2408 18.6637 38.2745C18.8743 38.3111 19.0881 38.2518 19.2536 38.117C20.1289 37.411 21.389 37.4783 22.1859 38.2745C22.982 39.0714 23.0498 40.3318 22.3426 41.2064C22.2089 41.3719 22.1518 41.5865 22.1855 41.7967C22.2192 42.0069 22.3404 42.1929 22.5191 42.3079C24.0125 43.2725 25.6454 43.95 27.3725 44.3206C27.4249 44.3316 27.4776 44.3374 27.53 44.3374C27.6867 44.3374 27.8409 44.2884 27.9701 44.1946C28.1423 44.0701 28.2536 43.8775 28.2759 43.6658C28.3938 42.5467 29.3328 41.7022 30.4604 41.7022C31.5879 41.7022 32.5272 42.5467 32.6448 43.6658C32.6671 43.8775 32.7781 44.0694 32.9506 44.1946C33.1227 44.3199 33.3399 44.3653 33.5482 44.3206C35.2756 43.95 36.9086 43.2725 38.402 42.3079C38.5803 42.1922 38.7015 42.0069 38.7352 41.7967C38.7689 41.5865 38.7118 41.3719 38.5781 41.2071C37.8713 40.3318 37.9387 39.0714 38.7352 38.2745C39.5317 37.4791 40.7926 37.4117 41.6671 38.117C41.833 38.2518 42.0498 38.3111 42.2567 38.2745ZM37.6747 37.2139C36.5398 38.3492 36.2845 40.0447 36.9558 41.4319C36.0066 41.9732 35.001 42.3907 33.9522 42.6785C33.4468 41.2217 32.0673 40.2022 30.4604 40.2022C28.8538 40.2022 27.4743 41.2217 26.9689 42.6785C25.9201 42.3907 24.9145 41.9732 23.9649 41.4319C24.6362 40.0447 24.3813 38.3492 23.2464 37.2139C22.1115 36.0794 20.4164 35.8231 19.0284 36.4954C18.4872 35.5462 18.0697 34.5406 17.7819 33.4911C19.2386 32.9857 20.2582 31.6066 20.2582 29.9996C20.2582 28.3927 19.2386 27.0136 17.7819 26.5082C18.0697 25.4586 18.4872 24.453 19.0284 23.5038C20.4153 24.1769 22.1115 23.9206 23.2464 22.7853C24.3813 21.6501 24.6362 19.9545 23.9649 18.5673C24.9145 18.0261 25.9201 17.6086 26.9689 17.3208C27.4743 18.7775 28.8538 19.7971 30.4604 19.7971C32.0673 19.7971 33.4468 18.7775 33.9522 17.3208C35.001 17.6086 36.0066 18.0261 36.9558 18.5673C36.2845 19.9545 36.5398 21.6501 37.6747 22.7853C38.8096 23.9206 40.5047 24.1784 41.8927 23.5038C42.4339 24.453 42.8514 25.4586 43.1392 26.5082C41.6825 27.0136 40.6629 28.3927 40.6629 29.9996C40.6629 31.6066 41.6825 32.9857 43.1392 33.4911C42.8514 34.5406 42.4339 35.5462 41.8927 36.4954C40.5047 35.8231 38.8103 36.0794 37.6747 37.2139Z" fill="#0CB4C4"></path><path d="M10.3978 14.5993C13.0261 14.5993 15.1644 12.4606 15.1644 9.832C15.1644 7.20336 13.0261 5.06543 10.3978 5.06543C7.76915 5.06543 5.63086 7.20336 5.63086 9.832C5.63086 12.4606 7.76915 14.5993 10.3978 14.5993ZM10.3978 6.56542C12.1992 6.56542 13.6644 8.03099 13.6644 9.832C13.6644 11.6337 12.1992 13.0993 10.3978 13.0993C8.59642 13.0993 7.13085 11.6337 7.13085 9.832C7.13085 8.03099 8.59642 6.56542 10.3978 6.56542Z" fill="#0CB4C4"></path><path d="M1.23621 11.0455C1.02491 11.0675 0.832648 11.1788 0.707771 11.3509C0.58326 11.5238 0.537484 11.7406 0.582161 11.9486C0.836676 13.1336 1.30066 14.2528 1.96167 15.2752C2.07702 15.4539 2.26306 15.5748 2.4729 15.6085C2.68237 15.6444 2.89733 15.585 3.06286 15.4517C3.54809 15.0584 4.24791 15.0965 4.69066 15.5389C5.13304 15.9813 5.17076 16.6807 4.77818 17.1663C4.64451 17.3319 4.58739 17.5465 4.62108 17.7567C4.6544 17.9669 4.77562 18.1522 4.95433 18.2679C5.97641 18.9285 7.09591 19.3929 8.28097 19.6478C8.48934 19.691 8.70613 19.647 8.87898 19.5218C9.05147 19.3973 9.16243 19.2046 9.18477 18.993C9.24995 18.3719 9.77143 17.9031 10.3977 17.9031C11.0239 17.9031 11.545 18.3719 11.6102 18.993C11.6325 19.2046 11.7435 19.3973 11.916 19.5218C12.0452 19.6155 12.1994 19.6646 12.3561 19.6646C12.4089 19.6646 12.4616 19.6587 12.514 19.6478C13.699 19.3929 14.8185 18.9285 15.8406 18.2679C16.0193 18.1522 16.1405 17.9669 16.1739 17.7567C16.2076 17.5465 16.1504 17.3319 16.0168 17.1663C15.6242 16.6807 15.6619 15.9813 16.1043 15.5389C16.5463 15.0965 17.2469 15.0584 17.7321 15.4517C17.8976 15.585 18.1129 15.6444 18.322 15.6085C18.5319 15.5748 18.7179 15.4539 18.8333 15.2752C19.495 14.2513 19.959 13.1322 20.2128 11.9486C20.2575 11.7406 20.2117 11.5231 20.0868 11.3509C19.9623 11.1788 19.77 11.0675 19.5584 11.0455C18.9369 10.9796 18.4682 10.4581 18.4682 9.8319C18.4682 9.20568 18.9365 8.68494 19.558 8.61902C19.7697 8.59705 19.9619 8.48572 20.0868 8.3136C20.2117 8.14148 20.2575 7.92395 20.2128 7.71595C19.959 6.53236 19.495 5.41323 18.8333 4.38858C18.7179 4.20987 18.5319 4.08902 18.322 4.05533C18.1129 4.02017 17.8972 4.07876 17.7321 4.2128C17.2461 4.60537 16.547 4.56729 16.1043 4.12564C15.6619 3.68326 15.6242 2.9838 16.0168 2.49821C16.1504 2.33268 16.2076 2.11808 16.1739 1.90861C16.1405 1.69841 16.0193 1.51237 15.841 1.39665C14.8185 0.735279 13.699 0.270926 12.5132 0.0167776C12.3056 -0.0278999 12.0873 0.01751 11.916 0.142753C11.7435 0.267997 11.6325 0.45989 11.6102 0.671559C11.545 1.29265 11.0239 1.7614 10.3977 1.7614C9.77143 1.7614 9.24995 1.29265 9.18477 0.671559C9.16243 0.45989 9.05147 0.267997 8.87898 0.142753C8.70723 0.0182424 8.49044 -0.026435 8.2817 0.0167776C7.09591 0.270926 5.97641 0.735279 4.95396 1.39665C4.77562 1.51237 4.6544 1.69841 4.62108 1.90861C4.58739 2.11808 4.64451 2.33268 4.77818 2.49821C5.17076 2.9838 5.13304 3.68326 4.69066 4.12564C4.24828 4.56729 3.54918 4.60537 3.06286 4.2128C2.8977 4.07876 2.68237 4.02017 2.4729 4.05533C2.26269 4.08902 2.07702 4.20987 1.96167 4.38858C1.30066 5.4125 0.83631 6.53163 0.582161 7.71595C0.537484 7.92395 0.58326 8.14148 0.708137 8.3136C0.833014 8.48572 1.02527 8.59705 1.23694 8.61902C1.8584 8.68494 2.32678 9.20568 2.32678 9.8319C2.32678 10.4581 1.85803 10.9796 1.23621 11.0455ZM3.82677 9.8319C3.82677 8.73254 3.17785 7.77747 2.22461 7.35047C2.3861 6.81654 2.60034 6.30092 2.86474 5.808C3.84142 6.17934 4.97447 5.96327 5.7512 5.18618C6.52829 4.40908 6.74472 3.2753 6.37338 2.29899C6.8663 2.03459 7.38192 1.82072 7.91586 1.65886C8.34285 2.61246 9.29793 3.26139 10.3977 3.26139C11.4974 3.26139 12.4521 2.61246 12.8791 1.65886C13.413 1.82072 13.9286 2.03459 14.4216 2.29899C14.0502 3.2753 14.2666 4.40908 15.0441 5.18618C15.8212 5.96327 16.9543 6.1786 17.9302 5.808C18.195 6.30165 18.4088 6.81727 18.5707 7.35047C17.6171 7.77747 16.9682 8.73254 16.9682 9.8319C16.9682 10.9313 17.6171 11.8863 18.5707 12.3141C18.4092 12.8473 18.195 13.3629 17.9302 13.8565C16.9553 13.4837 15.8212 13.7013 15.0437 14.4784C14.2666 15.2555 14.0502 16.3892 14.4216 17.3648C13.9286 17.6292 13.413 17.8431 12.8791 18.0049C12.4521 17.0521 11.497 16.4031 10.3977 16.4031C9.29793 16.4031 8.34322 17.0521 7.91586 18.0057C7.38192 17.8431 6.8663 17.6292 6.37338 17.3648C6.74472 16.3892 6.52829 15.2555 5.75156 14.4784C4.97557 13.702 3.84178 13.4845 2.86474 13.8565C2.60034 13.3629 2.3861 12.8473 2.22424 12.3141C3.17785 11.8863 3.82677 10.9313 3.82677 9.8319Z" fill="#0CB4C4"></path><path d="M50.7334 14.5993C53.362 14.5993 55.5003 12.4606 55.5003 9.832C55.5003 7.20336 53.362 5.06543 50.7334 5.06543C48.1051 5.06543 45.9668 7.20336 45.9668 9.832C45.9668 12.4606 48.1051 14.5993 50.7334 14.5993ZM50.7334 6.56542C52.5347 6.56542 54.0003 8.03099 54.0003 9.832C54.0003 11.6337 52.5347 13.0993 50.7334 13.0993C48.932 13.0993 47.4668 11.6337 47.4668 9.832C47.4668 8.03099 48.932 6.56542 50.7334 6.56542Z" fill="#0CB4C4"></path><path d="M41.5725 11.0455C41.3608 11.0675 41.1686 11.1788 41.0441 11.3509C40.9192 11.5231 40.8734 11.7406 40.9181 11.9486C41.1719 13.1322 41.6359 14.2513 42.2976 15.2752C42.413 15.4539 42.599 15.5748 42.8088 15.6085C43.0183 15.6444 43.2333 15.585 43.3988 15.4517C43.8837 15.0584 44.5835 15.0965 45.0266 15.5389C45.469 15.9813 45.5067 16.6807 45.1141 17.1663C44.9804 17.3319 44.9233 17.5465 44.957 17.7567C44.9903 17.9669 45.1115 18.1522 45.2903 18.2679C46.3123 18.9285 47.4318 19.3929 48.6169 19.6478C48.8249 19.691 49.0424 19.647 49.2149 19.5218C49.3874 19.3973 49.4984 19.2046 49.5207 18.993C49.5859 18.3719 50.107 17.9031 50.7332 17.9031C51.3594 17.9031 51.8809 18.3719 51.9461 18.993C51.9684 19.2046 52.0794 19.3973 52.2519 19.5218C52.3812 19.6155 52.5353 19.6646 52.6921 19.6646C52.7448 19.6646 52.7975 19.6587 52.8499 19.6478C54.035 19.3929 55.1545 18.9285 56.1765 18.2679C56.3553 18.1522 56.4765 17.9669 56.5098 17.7567C56.5435 17.5465 56.4864 17.3319 56.3527 17.1663C55.9601 16.6807 55.9978 15.9813 56.4406 15.5389C56.8826 15.0965 57.5817 15.0592 58.068 15.4517C58.2335 15.585 58.4492 15.6444 58.658 15.6085C58.8678 15.5748 59.0538 15.4539 59.1692 15.2752C59.8302 14.2528 60.2942 13.1336 60.5487 11.9486C60.5934 11.7406 60.5476 11.5238 60.4231 11.3509C60.2982 11.1788 60.106 11.0675 59.8947 11.0455C59.2728 10.9796 58.8041 10.4581 58.8041 9.8319C58.8041 9.20568 59.2725 8.68494 59.8939 8.61902C60.1056 8.59705 60.2979 8.48572 60.4227 8.3136C60.5476 8.14148 60.5934 7.92395 60.5487 7.71595C60.2946 6.53163 59.8302 5.4125 59.1692 4.38858C59.0538 4.20987 58.8682 4.08902 58.658 4.05533C58.4492 4.02017 58.2332 4.07876 58.068 4.2128C57.5817 4.60537 56.8826 4.56729 56.4402 4.12564C55.9978 3.68326 55.9601 2.9838 56.3527 2.49821C56.4864 2.33268 56.5435 2.11808 56.5098 1.90861C56.4765 1.69841 56.3553 1.51237 56.1769 1.39665C55.1545 0.735279 54.035 0.270926 52.8492 0.0167776C52.6415 -0.0278999 52.4233 0.01751 52.2519 0.142753C52.0794 0.267997 51.9684 0.45989 51.9461 0.671559C51.8809 1.29265 51.3594 1.7614 50.7332 1.7614C50.107 1.7614 49.5859 1.29265 49.5207 0.671559C49.4984 0.45989 49.3874 0.267997 49.2149 0.142753C49.0432 0.0182424 48.8264 -0.026435 48.6176 0.0167776C47.4318 0.270926 46.3123 0.735279 45.2899 1.39665C45.1115 1.51237 44.9903 1.69841 44.957 1.90861C44.9233 2.11808 44.9804 2.33268 45.1141 2.49821C45.5067 2.9838 45.469 3.68326 45.027 4.12564C44.5831 4.56729 43.8844 4.60464 43.3988 4.2128C43.2336 4.07876 43.0183 4.02017 42.8088 4.05533C42.599 4.08902 42.413 4.20987 42.2976 4.38858C41.6359 5.41323 41.1719 6.53236 40.9181 7.71595C40.8734 7.92395 40.9192 8.14148 41.0441 8.3136C41.1689 8.48572 41.3612 8.59705 41.5729 8.61902C42.1943 8.68494 42.6627 9.20568 42.6627 9.8319C42.6627 10.4581 42.194 10.9796 41.5725 11.0455ZM44.1627 9.8319C44.1627 8.73254 43.5138 7.77747 42.5602 7.35047C42.722 6.81727 42.9359 6.30165 43.2007 5.808C44.1763 6.1786 45.3097 5.96327 46.0871 5.18618C46.8642 4.40908 47.0807 3.2753 46.7093 2.29899C47.2022 2.03459 47.7179 1.82072 48.2518 1.65886C48.6788 2.61246 49.6335 3.26139 50.7332 3.26139C51.8329 3.26139 52.788 2.61246 53.215 1.65886C53.7489 1.82072 54.2646 2.03459 54.7575 2.29899C54.3861 3.2753 54.6026 4.40908 55.3797 5.18618C56.1571 5.96327 57.2913 6.17934 58.2661 5.808C58.5305 6.30092 58.7448 6.81654 58.9063 7.35047C57.953 7.77747 57.3041 8.73254 57.3041 9.8319C57.3041 10.9313 57.953 11.8863 58.9066 12.3141C58.7448 12.8473 58.5305 13.3629 58.2661 13.8565C57.2913 13.4837 56.156 13.702 55.3797 14.4784C54.6026 15.2555 54.3861 16.3892 54.7575 17.3648C54.2646 17.6292 53.7489 17.8431 53.215 18.0057C52.7876 17.0521 51.8329 16.4031 50.7332 16.4031C49.6339 16.4031 48.6788 17.0521 48.2518 18.0049C47.7179 17.8431 47.2022 17.6292 46.7093 17.3648C47.0807 16.3892 46.8642 15.2555 46.0871 14.4784C45.3108 13.702 44.177 13.4837 43.2007 13.8565C42.9359 13.3629 42.7217 12.8473 42.5602 12.3141C43.5138 11.8863 44.1627 10.9313 44.1627 9.8319Z" fill="#0CB4C4"></path><path d="M10.3978 45.4917C7.76915 45.4917 5.63086 47.6172 5.63086 50.2304C5.63086 52.8437 7.76915 54.9692 10.3978 54.9692C13.0261 54.9692 15.1644 52.8437 15.1644 50.2304C15.1644 47.6172 13.0261 45.4917 10.3978 45.4917ZM10.3978 53.4692C8.59642 53.4692 7.13085 52.0161 7.13085 50.2304C7.13085 48.4448 8.59642 46.9917 10.3978 46.9917C12.1992 46.9917 13.6644 48.4448 13.6644 50.2304C13.6644 52.0161 12.1992 53.4692 10.3978 53.4692Z" fill="#0CB4C4"></path><path d="M19.5578 49.0317C19.7695 49.0097 19.9621 48.8984 20.087 48.7263C20.2122 48.5534 20.258 48.3359 20.213 48.1279C19.9588 46.9516 19.4945 45.8383 18.8324 44.821C18.7167 44.643 18.5314 44.5229 18.3222 44.4892C18.1131 44.4541 17.8996 44.5127 17.7341 44.6445C17.2474 45.0356 16.5458 44.999 16.1027 44.5581C15.6632 44.1223 15.6255 43.4316 16.0155 42.9526C16.1503 42.7871 16.2078 42.5718 16.1741 42.3608C16.1404 42.1506 16.0184 41.9639 15.839 41.8481C14.8165 41.1919 13.6974 40.7305 12.5127 40.4778C12.3029 40.4338 12.0883 40.4792 11.9158 40.6045C11.7437 40.7297 11.6327 40.9216 11.6104 41.1326C11.5456 41.7478 11.0241 42.2114 10.3979 42.2114C9.77128 42.2114 9.24979 41.7478 9.18498 41.1326C9.16264 40.9216 9.05168 40.7297 8.87956 40.6045C8.70744 40.4792 8.49138 40.4338 8.28264 40.4778C7.09795 40.7305 5.97882 41.1919 4.95636 41.8481C4.77692 41.9639 4.65497 42.1506 4.62128 42.3608C4.58759 42.5718 4.64509 42.7871 4.77985 42.9526C5.16986 43.4316 5.13214 44.1223 4.69269 44.5588C4.24958 44.999 3.54866 45.0356 3.06123 44.6445C2.89571 44.5127 2.68257 44.4548 2.4731 44.4892C2.264 44.5229 2.0787 44.643 1.96297 44.821C1.3016 45.8376 0.836883 46.9502 0.582368 48.1279C0.537324 48.3359 0.5831 48.5534 0.707978 48.7263C0.833221 48.8984 1.02585 49.0097 1.23752 49.0317C1.85861 49.0969 2.32699 49.6118 2.32699 50.2306C2.32699 50.8495 1.85861 51.3652 1.23752 51.4303C1.02585 51.4523 0.833221 51.5636 0.707978 51.7358C0.5831 51.9086 0.537324 52.1261 0.582368 52.3349C0.837249 53.5126 1.30197 54.6252 1.96334 55.641C2.0787 55.8183 2.264 55.9384 2.4731 55.9721C2.68184 56.0072 2.89534 55.9501 3.06087 55.8168C3.54829 55.4257 4.24958 55.463 4.69269 55.904C5.13214 56.3397 5.16986 57.0297 4.78022 57.5079C4.64545 57.6735 4.58759 57.8888 4.62128 58.0997C4.65461 58.3107 4.77656 58.4974 4.95636 58.6132C5.97882 59.2694 7.09795 59.7308 8.28264 59.9835C8.49138 60.0275 8.70744 59.9813 8.87956 59.8568C9.05131 59.7316 9.16264 59.5397 9.18498 59.3287C9.24979 58.7142 9.77128 58.2506 10.3979 58.2506C11.0241 58.2506 11.5456 58.7142 11.6104 59.3287C11.6327 59.5397 11.744 59.7316 11.9158 59.8568C12.0451 59.9506 12.1996 59.9996 12.3563 59.9996C12.4083 59.9996 12.4607 59.9945 12.5127 59.9835C13.6974 59.7308 14.8165 59.2694 15.839 58.6132C16.0188 58.4974 16.1407 58.3107 16.1741 58.0997C16.2078 57.8888 16.1499 57.6735 16.0151 57.5079C15.6255 57.0297 15.6632 56.3397 16.1027 55.904C16.5461 55.4638 17.2474 55.4264 17.7345 55.8168C17.9 55.9501 18.1135 56.008 18.3222 55.9721C18.5314 55.9384 18.7167 55.8183 18.832 55.641C19.4941 54.6237 19.9585 53.5119 20.213 52.3341C20.258 52.1261 20.2122 51.9086 20.087 51.7358C19.9621 51.5636 19.7695 51.4523 19.5578 51.4303C18.9367 51.3652 18.4684 50.8495 18.4684 50.2306C18.4684 49.6118 18.9367 49.0969 19.5578 49.0317ZM16.9684 50.2306C16.9684 51.3241 17.6166 52.2741 18.5691 52.6996C18.4079 53.2262 18.1948 53.7353 17.9315 54.2223C16.9556 53.8539 15.8221 54.0685 15.0458 54.839C14.268 55.6117 14.0504 56.7374 14.4196 57.7079C13.9266 57.9701 13.4118 58.1818 12.8782 58.3422C12.4505 57.3952 11.4965 56.7506 10.3979 56.7506C9.29923 56.7506 8.34489 57.3952 7.91716 58.3422C7.3836 58.1818 6.86871 57.9701 6.37579 57.7079C6.74493 56.7374 6.5274 55.6117 5.74957 54.8397C4.97284 54.0685 3.83943 53.8546 2.86385 54.2223C2.60091 53.736 2.38778 53.2262 2.22628 52.6996C3.17879 52.2741 3.82698 51.3241 3.82698 50.2306C3.82698 49.1371 3.17879 48.1879 2.22628 47.7624C2.38778 47.2358 2.60091 46.7268 2.86385 46.239C3.83943 46.6081 4.97284 46.3935 5.74957 45.623C6.52703 44.851 6.74493 43.7246 6.37579 42.7541C6.86834 42.4919 7.3836 42.2795 7.91716 42.1191C8.34489 43.0669 9.29923 43.7114 10.3979 43.7114C11.4965 43.7114 12.4508 43.0669 12.8782 42.1191C13.4118 42.2795 13.927 42.4919 14.4196 42.7541C14.0504 43.7246 14.2683 44.851 15.0458 45.623C15.8221 46.3935 16.9548 46.6081 17.9315 46.239C18.1948 46.7268 18.4079 47.2358 18.5691 47.7624C17.6166 48.1879 16.9684 49.1371 16.9684 50.2306Z" fill="#0CB4C4"></path><path d="M50.7334 45.4917C48.1051 45.4917 45.9668 47.6172 45.9668 50.2304C45.9668 52.8437 48.1051 54.9692 50.7334 54.9692C53.362 54.9692 55.5003 52.8437 55.5003 50.2304C55.5003 47.6172 53.362 45.4917 50.7334 45.4917ZM50.7334 53.4692C48.932 53.4692 47.4668 52.0161 47.4668 50.2304C47.4668 48.4448 48.932 46.9917 50.7334 46.9917C52.5347 46.9917 54.0003 48.4448 54.0003 50.2304C54.0003 52.0161 52.5347 53.4692 50.7334 53.4692Z" fill="#0CB4C4"></path><path d="M59.8928 49.0317C60.1045 49.0097 60.2971 48.8984 60.4223 48.7263C60.5472 48.5534 60.593 48.3359 60.5479 48.1279C60.2934 46.9502 59.8287 45.8376 59.1673 44.821C59.0516 44.643 58.8663 44.5229 58.6572 44.4892C58.4488 44.4541 58.2342 44.5127 58.0691 44.6445C57.582 45.0356 56.8815 44.999 56.4376 44.5581C55.9982 44.1223 55.9604 43.4316 56.3505 42.9526C56.4852 42.7871 56.5427 42.5718 56.509 42.3608C56.4753 42.1506 56.3534 41.9639 56.1739 41.8481C55.1515 41.1919 54.0324 40.7305 52.8477 40.4778C52.6393 40.4338 52.4225 40.4792 52.2507 40.6045C52.0786 40.7297 51.9677 40.9216 51.9453 41.1326C51.8805 41.7478 51.359 42.2114 50.7324 42.2114C50.1062 42.2114 49.5847 41.7478 49.5199 41.1326C49.4976 40.9216 49.3866 40.7297 49.2145 40.6045C49.0424 40.4792 48.826 40.4338 48.6176 40.4778C47.4329 40.7305 46.3138 41.1919 45.2913 41.8481C45.1119 41.9639 44.9899 42.1506 44.9562 42.3608C44.9225 42.5718 44.98 42.7871 45.1148 42.9526C45.5048 43.4316 45.4671 44.1223 45.0276 44.5581C44.5842 44.9983 43.8825 45.0349 43.3962 44.6445C43.231 44.5127 43.0183 44.4548 42.8081 44.4892C42.599 44.5229 42.4137 44.643 42.2979 44.821C41.6358 45.8383 41.1715 46.9516 40.9173 48.1279C40.8723 48.3359 40.9181 48.5534 41.0433 48.7263C41.1682 48.8984 41.3608 49.0097 41.5725 49.0317C42.1936 49.0969 42.6619 49.6118 42.6619 50.2306C42.6619 50.8495 42.1936 51.3652 41.5725 51.4303C41.3608 51.4523 41.1682 51.5636 41.0433 51.7358C40.9181 51.9086 40.8723 52.1261 40.9173 52.3341C41.1718 53.5119 41.6362 54.6237 42.2983 55.641C42.4137 55.8183 42.599 55.9384 42.8081 55.9721C43.0175 56.0072 43.2307 55.9501 43.3958 55.8168C43.8825 55.4257 44.5845 55.463 45.0276 55.904C45.4671 56.3397 45.5048 57.0297 45.1152 57.5079C44.9804 57.6735 44.9225 57.8888 44.9562 58.0997C44.9896 58.3107 45.1115 58.4974 45.2913 58.6132C46.3138 59.2694 47.4329 59.7308 48.6176 59.9835C48.826 60.0275 49.0424 59.9813 49.2145 59.8568C49.3863 59.7316 49.4976 59.5397 49.5199 59.3287C49.5847 58.7142 50.1062 58.2506 50.7324 58.2506C51.359 58.2506 51.8805 58.7142 51.9453 59.3287C51.9677 59.5397 52.079 59.7316 52.2507 59.8568C52.38 59.9506 52.5346 59.9996 52.6913 59.9996C52.7433 59.9996 52.7957 59.9945 52.8477 59.9835C54.0324 59.7308 55.1515 59.2694 56.1739 58.6132C56.3538 58.4974 56.4757 58.3107 56.509 58.0997C56.5427 57.8888 56.4849 57.6735 56.3501 57.5079C55.9604 57.0297 55.9982 56.3397 56.4376 55.9032C56.8815 55.4645 57.5827 55.4271 58.0694 55.8168C58.2346 55.9501 58.4492 56.008 58.6572 55.9721C58.8663 55.9384 59.0516 55.8183 59.167 55.641C59.8283 54.6252 60.2931 53.5126 60.5479 52.3349C60.593 52.1261 60.5472 51.9086 60.4223 51.7358C60.2971 51.5636 60.1045 51.4523 59.8928 51.4303C59.2717 51.3652 58.8033 50.8495 58.8033 50.2306C58.8033 49.6118 59.2717 49.0969 59.8928 49.0317ZM57.3033 50.2306C57.3033 51.3241 57.9515 52.2741 58.904 52.6996C58.7425 53.2262 58.5294 53.736 58.2665 54.2223C57.2905 53.8546 56.1571 54.0685 55.3807 54.839C54.6029 55.6117 54.3854 56.7374 54.7545 57.7079C54.2616 57.9701 53.7467 58.1818 53.2131 58.3422C52.7854 57.3952 51.8311 56.7506 50.7324 56.7506C49.6338 56.7506 48.6798 57.3952 48.2521 58.3422C47.7185 58.1818 47.2037 57.9701 46.7107 57.7079C47.0799 56.7374 46.8624 55.6117 46.0845 54.839C45.3085 54.0685 44.1744 53.8532 43.1988 54.2231C42.9355 53.7353 42.7224 53.2262 42.5612 52.6996C43.5137 52.2741 44.1619 51.3241 44.1619 50.2306C44.1619 49.1371 43.5137 48.1879 42.5612 47.7624C42.7224 47.2358 42.9355 46.7268 43.1988 46.239C44.174 46.6081 45.3074 46.3935 46.0845 45.623C46.862 44.851 47.0799 43.7246 46.7107 42.7541C47.2033 42.4919 47.7185 42.2795 48.2521 42.1191C48.6795 43.0669 49.6338 43.7114 50.7324 43.7114C51.8311 43.7114 52.7854 43.0669 53.2131 42.1191C53.7467 42.2795 54.262 42.4919 54.7545 42.7541C54.3854 43.7246 54.6033 44.851 55.3807 45.6223C56.1564 46.3942 57.2898 46.6081 58.2665 46.239C58.5294 46.726 58.7425 47.2358 58.904 47.7624C57.9515 48.1879 57.3033 49.1371 57.3033 50.2306Z" fill="#0CB4C4"></path></svg>