<svg width="63" height="62" viewBox="0 0 63 62" fill="none" xmlns="http://www.w3.org/2000/svg"><path d="M43.7825 19.7818H53.1738C53.3122 19.7818 53.4449 19.7268 53.5427 19.6289C53.6406 19.5311 53.6955 19.3984 53.6955 19.26C53.6955 19.1216 53.6406 18.9889 53.5427 18.8911C53.4449 18.7932 53.3122 18.7383 53.1738 18.7383H43.7825C43.6441 18.7383 43.5114 18.7932 43.4136 18.8911C43.3157 18.9889 43.2607 19.1216 43.2607 19.26C43.2607 19.3984 43.3157 19.5311 43.4136 19.6289C43.5114 19.7268 43.6441 19.7818 43.7825 19.7818Z" fill="#0CB4C4" stroke="#0CB4C4" stroke-width="0.2"></path><path d="M61.8135 41.3654L57.4017 38.3915C57.3572 38.3615 57.3083 38.3385 57.2568 38.3234L54.0631 37.3873C55.1519 32.9411 54.922 28.2742 53.4017 23.9565H55.261C55.3994 23.9565 55.5321 23.9016 55.6299 23.8037C55.7278 23.7059 55.7828 23.5732 55.7828 23.4348V17.1739C55.7828 17.0355 55.7278 16.9028 55.6299 16.805C55.5321 16.7071 55.3994 16.6522 55.261 16.6522H52.6523V6.73913C52.6523 6.60076 52.5974 6.46805 52.4995 6.37021C52.4017 6.27236 52.269 6.21739 52.1306 6.21739H50.0436C49.9053 6.21739 49.7725 6.27236 49.6747 6.37021C49.5769 6.46805 49.5219 6.60076 49.5219 6.73913V16.6522H49.2111C48.6539 15.9914 48.061 15.3616 47.4349 14.7656V6.73913C47.4349 6.60076 47.38 6.46805 47.2821 6.37021C47.1843 6.27236 47.0516 6.21739 46.9132 6.21739H44.8262C44.6879 6.21739 44.5552 6.27236 44.4573 6.37021C44.3595 6.46805 44.3045 6.60076 44.3045 6.73913V12.26C41.7951 10.5731 38.9797 9.3938 36.0172 8.78865V1.52174C36.0172 1.38337 35.9622 1.25066 35.8644 1.15281C35.7665 1.05497 35.6338 1 35.4955 1H33.4085C33.2701 1 33.1374 1.05497 33.0396 1.15281C32.9417 1.25066 32.8868 1.38337 32.8868 1.52174V8.362C32.2668 8.31974 31.6412 8.30187 31.0178 8.308C30.8743 6.74278 30.7993 5.17039 30.7993 3.6087C30.7993 3.47032 30.7443 3.33762 30.6465 3.23977C30.5486 3.14193 30.4159 3.08696 30.2775 3.08696H21.9297C21.7913 3.08696 21.6586 3.14193 21.5608 3.23977C21.4629 3.33762 21.408 3.47032 21.408 3.6087C21.4078 5.98121 21.2443 8.3509 20.9186 10.701C18.7502 11.7648 16.7595 13.158 15.0173 14.8309C14.9723 14.7505 14.9068 14.6835 14.8273 14.6368C14.7479 14.5901 14.6575 14.5654 14.5654 14.5652H13.5219V10.913C13.5219 10.7747 13.4669 10.642 13.3691 10.5441C13.2712 10.4463 13.1385 10.3913 13.0001 10.3913C12.8618 10.3913 12.7291 10.4463 12.6312 10.5441C12.5334 10.642 12.4784 10.7747 12.4784 10.913V14.5652H11.4349C11.2966 14.5652 11.1639 14.6202 11.066 14.718C10.9682 14.8159 10.9132 14.9486 10.9132 15.087V17.6957H10.3915C10.2531 17.6957 10.1204 17.7506 10.0225 17.8485C9.92468 17.9463 9.86971 18.079 9.86971 18.2174V23.9565H4.13058C3.99221 23.9565 3.8595 24.0115 3.76166 24.1093C3.66381 24.2072 3.60885 24.3399 3.60885 24.4783V32.8261C3.60885 32.9645 3.66381 33.0972 3.76166 33.195C3.8595 33.2929 3.99221 33.3478 4.13058 33.3478H7.83493C7.89577 34.2668 8.01022 35.1814 8.17771 36.087H7.78276C7.64438 36.087 7.51168 36.1419 7.41383 36.2398C7.31599 36.3376 7.26102 36.4703 7.26102 36.6087V38.1739H6.73928C6.67076 38.1739 6.6029 38.1874 6.53959 38.2136C6.47627 38.2398 6.41874 38.2782 6.37028 38.3267L1.15289 43.544C1.07989 43.617 1.03018 43.71 1.01003 43.8112C0.98989 43.9124 1.00022 44.0174 1.03972 44.1127C1.07923 44.2081 1.14612 44.2896 1.23195 44.3469C1.31777 44.4042 1.41868 44.4348 1.52189 44.4348H2.04363V50.1739C2.04363 50.3123 2.0986 50.445 2.19644 50.5428C2.29429 50.6407 2.42699 50.6957 2.56537 50.6957H17.3516C18.7598 51.7331 20.2797 52.6099 21.8828 53.3097L22.3956 57.4125C22.4114 57.5387 22.4727 57.6547 22.568 57.7389C22.6633 57.8231 22.786 57.8695 22.9132 57.8696H24.1596L23.5631 59.9565H21.8697C21.7313 59.9565 21.5986 60.0115 21.5008 60.1093C21.4029 60.2072 21.348 60.3399 21.348 60.4783C21.348 60.6166 21.4029 60.7493 21.5008 60.8472C21.5986 60.945 21.7313 61 21.8697 61H26.0436C26.182 61 26.3147 60.945 26.4126 60.8472C26.5104 60.7493 26.5654 60.6166 26.5654 60.4783C26.5654 60.3399 26.5104 60.2072 26.4126 60.1093C26.3147 60.0115 26.182 59.9565 26.0436 59.9565H24.648L25.2445 57.8696H32.3045C32.3934 57.8696 32.4809 57.8468 32.5586 57.8035C32.6363 57.7602 32.7016 57.6978 32.7484 57.6221C32.7951 57.5465 32.8218 57.4601 32.8258 57.3713C32.8298 57.2824 32.811 57.194 32.7712 57.1145L31.8399 55.252C32.4251 55.2378 33.0103 55.2019 33.5903 55.1448L33.8738 57.4125C33.8895 57.5387 33.9508 57.6548 34.0462 57.739C34.1415 57.8231 34.2643 57.8696 34.3915 57.8696H35.6379L35.0414 59.9565H33.348C33.2096 59.9565 33.0769 60.0115 32.979 60.1093C32.8812 60.2072 32.8262 60.3399 32.8262 60.4783C32.8262 60.6166 32.8812 60.7493 32.979 60.8472C33.0769 60.945 33.2096 61 33.348 61H37.5219C37.6603 61 37.793 60.945 37.8908 60.8472C37.9887 60.7493 38.0436 60.6166 38.0436 60.4783C38.0436 60.3399 37.9887 60.2072 37.8908 60.1093C37.793 60.0115 37.6603 59.9565 37.5219 59.9565H36.1262L36.7227 57.8696H43.7828C43.8717 57.8696 43.9592 57.8468 44.0369 57.8035C44.1145 57.7602 44.1799 57.6978 44.2266 57.6221C44.2734 57.5465 44.3 57.4601 44.304 57.3713C44.308 57.2824 44.2892 57.194 44.2495 57.1145L42.0185 52.6522C45.2242 50.9978 48.0061 48.628 50.149 45.7261L49.836 56.351C49.8339 56.4208 49.8459 56.4903 49.8712 56.5554C49.8965 56.6205 49.9346 56.6799 49.9832 56.73C50.0319 56.78 50.0901 56.8199 50.1544 56.847C50.2188 56.8742 50.2879 56.8882 50.3577 56.8882H52.4447C52.5145 56.8882 52.5836 56.8742 52.648 56.847C52.7123 56.8199 52.7705 56.78 52.8191 56.73C52.8678 56.6799 52.9059 56.6205 52.9312 56.5554C52.9565 56.4903 52.9685 56.4208 52.9664 56.351L52.4624 39.2148L56.0524 41.2061C56.0993 41.2321 56.15 41.2507 56.2026 41.2613L61.419 42.31C61.5373 42.3339 61.6602 42.316 61.7667 42.2594C61.8733 42.2028 61.957 42.1111 62.0035 41.9997C62.0501 41.8884 62.0566 41.7644 62.0219 41.6488C61.9873 41.5332 61.9136 41.4332 61.8135 41.3658V41.3654ZM50.5654 7.26087H51.6088V8.30435H50.5654V7.26087ZM50.5654 9.34783H51.6088V16.6522H50.5654V9.34783ZM54.7393 17.6957V22.913H42.2175V17.6957H54.7393ZM47.8223 16.6522H47.4349V16.2391C47.5654 16.3753 47.6945 16.513 47.8223 16.6522ZM45.348 7.26087H46.3915V8.30435H45.348V7.26087ZM45.348 9.34783H46.3915V16.6522H45.348V9.34783ZM38.0455 10.3913H36.0172V9.85365C36.7048 10.0017 37.3809 10.181 38.0455 10.3913ZM33.9302 2.04348H34.9737V3.08696H33.9302V2.04348ZM33.9302 4.13043H34.9737V10.3913H33.9302V4.13043ZM32.8868 9.40822V10.3913H31.2494C31.2035 10.045 31.1623 9.69765 31.1234 9.35004C31.7121 9.34652 32.3023 9.36648 32.8868 9.40822ZM38.1041 11.4348V12.4783H33.7998C33.6614 12.4783 33.5287 12.5332 33.4309 12.6311C33.333 12.7289 33.2781 12.8616 33.2781 13C33.2781 13.1384 33.333 13.2711 33.4309 13.3689C33.5287 13.4668 33.6614 13.5217 33.7998 13.5217H38.1041V17.6957H29.7563V11.4348H38.1041ZM22.4488 4.13043H29.7584C29.7806 6.22423 29.9271 8.31486 30.1969 10.3913H29.2346C29.0962 10.3913 28.9635 10.4463 28.8657 10.5441C28.7678 10.642 28.7128 10.7747 28.7128 10.913V17.6957H20.5337C21.76 13.2766 22.4038 8.71628 22.4488 4.13043ZM11.9567 15.6087H14.0436V17.6957H11.9567V15.6087ZM10.9132 22.913H13.5219C13.6603 22.913 13.793 22.8581 13.8908 22.7602C13.9887 22.6624 14.0436 22.5297 14.0436 22.3913C14.0436 22.2529 13.9887 22.1202 13.8908 22.0224C13.793 21.9245 13.6603 21.8696 13.5219 21.8696H10.9132V20.8261H13.5219C13.6603 20.8261 13.793 20.7711 13.8908 20.6733C13.9887 20.5754 14.0436 20.4427 14.0436 20.3043C14.0436 20.166 13.9887 20.0333 13.8908 19.9354C13.793 19.8376 13.6603 19.7826 13.5219 19.7826H10.9132V18.7391H15.0871V32.3043H13.0001V24.4783C13.0001 24.3399 12.9452 24.2072 12.8473 24.1093C12.7495 24.0115 12.6168 23.9565 12.4784 23.9565H10.9132V22.913ZM4.65232 25H11.9567V26.0435H6.21754C6.07917 26.0435 5.94646 26.0984 5.84862 26.1963C5.75077 26.2941 5.6958 26.4268 5.6958 26.5652C5.6958 26.7036 5.75077 26.8363 5.84862 26.9341C5.94646 27.032 6.07917 27.087 6.21754 27.087H11.9567V28.1304H6.21754C6.07917 28.1304 5.94646 28.1854 5.84862 28.2832C5.75077 28.3811 5.6958 28.5138 5.6958 28.6522C5.6958 28.7905 5.75077 28.9233 5.84862 29.0211C5.94646 29.1189 6.07917 29.1739 6.21754 29.1739H11.9567V30.2174H6.21754C6.07917 30.2174 5.94646 30.2724 5.84862 30.3702C5.75077 30.468 5.6958 30.6008 5.6958 30.7391C5.6958 30.8775 5.75077 31.0102 5.84862 31.1081C5.94646 31.2059 6.07917 31.2609 6.21754 31.2609H11.9567V32.3043H4.65232V25ZM9.34798 37.1304V38.1739H8.3045V37.1304H9.34798ZM6.95541 39.2174H13.738L9.14672 43.3913H2.7815L6.95541 39.2174ZM15.0871 39.4008L19.4768 43.3913H10.6975L15.0871 39.4008ZM10.9132 49.6522H3.08711V44.4348H10.9132V49.6522ZM15.6088 49.6522H14.5654V47.5652H15.6088V49.6522ZM16.1306 46.5217H14.0436C13.9053 46.5217 13.7725 46.5767 13.6747 46.6746C13.5769 46.7724 13.5219 46.9051 13.5219 47.0435V49.6522H11.9567V44.4348H18.2175V49.6522H16.6523V47.0435C16.6523 46.9051 16.5974 46.7724 16.4995 46.6746C16.4017 46.5767 16.269 46.5217 16.1306 46.5217ZM22.4607 49.5217H23.5493L23.8102 50.5652H22.5911L22.4607 49.5217ZM22.852 52.6522L22.7216 51.6087H24.0711L24.3319 52.6522H22.852ZM22.9825 53.6957H24.5928L24.8537 54.7391H23.1129L22.9825 53.6957ZM24.6249 49.5217H25.6821L26.0734 50.5652H24.8858L24.6249 49.5217ZM23.3738 56.8261L23.2433 55.7826H25.1145L25.3754 56.8261H23.3738ZM25.1466 51.6087H26.4647L26.856 52.6522H25.4075L25.1466 51.6087ZM27.1878 50.5652L26.7965 49.5217H27.8081L28.3299 50.5652H27.1878ZM28.8516 51.6087L29.3734 52.6522H27.9704L27.5791 51.6087H28.8516ZM25.669 53.6957H27.2479L27.6392 54.7391H25.9292L25.669 53.6957ZM26.4516 56.8261L26.1908 55.7826H28.0305L28.4218 56.8261H26.4516ZM28.3624 53.6957H29.8958L30.4175 54.7391H28.753L28.3624 53.6957ZM29.5363 56.8261L29.145 55.7826H30.9392L31.461 56.8261H29.5363ZM33.9396 49.5217H35.0282L35.2891 50.5652H34.0701L33.9396 49.5217ZM34.3309 52.6522L34.2005 51.6087H35.55L35.8108 52.6522H34.3309ZM34.4614 53.6957H36.0717L36.3326 54.7391H34.5912L34.4614 53.6957ZM36.1038 49.5217H37.161L37.5523 50.5652H36.3647L36.1038 49.5217ZM34.8527 56.8261L34.7222 55.7826H36.5935L36.8543 56.8261H34.8527ZM36.6255 51.6087H37.9436L38.3349 52.6522H36.8858L36.6255 51.6087ZM38.6667 50.5652L38.2754 49.5217H39.2871L39.8088 50.5652H38.6667ZM40.3305 51.6087L40.8523 52.6522H39.4487L39.0574 51.6087H40.3305ZM37.1473 53.6957H38.7262L39.1175 54.7391H37.4075L37.1473 53.6957ZM37.9299 56.8261L37.669 55.7826H39.5088L39.9001 56.8261H37.9299ZM39.8406 53.6957H41.374L41.8958 54.7391H40.2313L39.8406 53.6957ZM42.9392 56.8261H41.0139L40.6226 55.7826H42.4168L42.9392 56.8261ZM50.8958 55.8443L51.2408 44.119C51.2465 44.1097 51.2526 44.1007 51.2584 44.0915L51.2418 44.0813L51.3868 39.1487H51.4171L51.9082 55.8443H50.8958ZM51.8942 37.7752C51.8477 37.8865 51.7639 37.9783 51.6573 38.0349C51.5507 38.0914 51.4277 38.1092 51.3094 38.0853C51.1911 38.0613 51.0848 37.9971 51.0085 37.9036C50.9322 37.81 50.8908 37.6929 50.8911 37.5722C50.8915 37.4515 50.9338 37.3347 51.0106 37.2416C51.0875 37.1486 51.1943 37.085 51.3127 37.0619C51.4312 37.0387 51.554 37.0573 51.6603 37.1146C51.7666 37.1718 51.8497 37.2641 51.8955 37.3758C51.9217 37.4392 51.935 37.5071 51.9346 37.5757C51.9343 37.6442 51.9204 37.712 51.8937 37.7752H51.8942ZM50.8187 31.8041L51.3415 29.2256L51.8502 31.8069L51.3781 35.9565H51.2687L50.8187 31.8041ZM52.3839 36.3477L52.8961 31.8443C52.9022 31.7909 52.9 31.737 52.8896 31.6843L51.8592 26.4643C51.8358 26.346 51.7723 26.2395 51.6793 26.1628C51.5863 26.0861 51.4697 26.0439 51.3492 26.0435H51.348C51.2276 26.0435 51.1109 26.0851 51.0177 26.1613C50.9245 26.2376 50.8606 26.3437 50.8367 26.4617L49.7802 31.6763C49.7695 31.7289 49.767 31.7828 49.7727 31.8361L50.2785 36.4982C50.1473 36.6354 50.0423 36.7955 49.9688 36.9705C49.9604 36.9906 49.9545 37.0108 49.947 37.031L45.543 38.2925C45.4914 38.3072 45.4424 38.3298 45.3977 38.3595L40.9677 41.3066C40.8673 41.3734 40.7931 41.4729 40.7578 41.5882C40.7225 41.7035 40.7282 41.8275 40.774 41.9391C40.8198 42.0507 40.9028 42.143 41.009 42.2002C41.1152 42.2575 41.2379 42.2762 41.3563 42.2531L46.579 41.2367C46.6317 41.2265 46.6825 41.2082 46.7295 41.1824L50.3414 39.208L50.2063 43.7993C48.0736 47.1588 45.0874 49.8918 41.5526 51.7193L40.0762 48.7665C40.0328 48.6798 39.9661 48.6069 39.8835 48.5559C39.801 48.505 39.7058 48.4781 39.6088 48.4783H33.348C33.2739 48.4783 33.2008 48.494 33.1333 48.5245C33.0658 48.5549 33.0056 48.5994 32.9566 48.6549C32.9077 48.7104 32.8711 48.7757 32.8493 48.8464C32.8275 48.9172 32.821 48.9918 32.8303 49.0652L33.4608 54.1099C32.7524 54.1788 32.0359 54.215 31.3217 54.217L28.5968 48.7672C28.5535 48.6805 28.487 48.6075 28.4047 48.5565C28.3224 48.5055 28.2274 48.4784 28.1306 48.4783H21.8697C21.7957 48.4783 21.7225 48.494 21.655 48.5245C21.5876 48.5549 21.5273 48.5994 21.4784 48.6549C21.4294 48.7104 21.3928 48.7757 21.371 48.8464C21.3492 48.9172 21.3428 48.9918 21.352 49.0652L21.7309 52.0965C20.8011 51.6594 19.9024 51.159 19.0412 50.5986C19.1092 50.5506 19.1646 50.4869 19.2029 50.413C19.2411 50.3391 19.261 50.2571 19.261 50.1739V44.4348H20.8262C20.9316 44.4348 21.0344 44.4029 21.1213 44.3434C21.2081 44.2839 21.275 44.1994 21.3129 44.1012C21.3509 44.003 21.3583 43.8955 21.3341 43.793C21.3098 43.6906 21.2552 43.5978 21.1772 43.527L15.4381 38.3096C15.3421 38.2222 15.2169 38.1738 15.0871 38.1739H10.3915V36.6087C10.3915 36.4703 10.3365 36.3376 10.2386 36.2398C10.1408 36.1419 10.0081 36.087 9.86971 36.087H9.23945C9.06409 35.1821 8.94435 34.2673 8.88089 33.3478H15.6088C15.7472 33.3478 15.8799 33.2929 15.9778 33.195C16.0756 33.0972 16.1306 32.9645 16.1306 32.8261V18.2174C16.1306 18.079 16.0756 17.9463 15.9778 17.8485C15.8799 17.7506 15.7472 17.6957 15.6088 17.6957H15.0871V16.2373C16.7286 14.5253 18.6318 13.0851 20.7253 11.9705C20.4037 13.9346 19.9686 15.8785 19.4224 17.7924L19.3415 18.0729C19.3191 18.1506 19.3151 18.2324 19.3297 18.3119C19.3444 18.3914 19.3773 18.4665 19.4259 18.5311C19.4745 18.5957 19.5375 18.6481 19.6098 18.6842C19.6822 18.7203 19.7619 18.7391 19.8428 18.7391H38.6254C38.7637 18.7391 38.8964 18.6842 38.9943 18.5863C39.0921 18.4885 39.1471 18.3558 39.1471 18.2174V10.913C39.1464 10.8616 39.1379 10.8105 39.1221 10.7615C40.9643 11.4508 42.707 12.3814 44.3045 13.5289V16.6522H41.6958C41.5574 16.6522 41.4247 16.7071 41.3269 16.805C41.229 16.9028 41.1741 17.0355 41.1741 17.1739V23.4348C41.1741 23.5732 41.229 23.7059 41.3269 23.8037C41.4247 23.9016 41.5574 23.9565 41.6958 23.9565H52.2918C53.8504 28.1612 54.1183 32.7354 53.0614 37.0933L52.8823 37.0411C52.8748 37.0206 52.8692 37 52.8605 36.9798C52.7588 36.7315 52.5946 36.5138 52.3839 36.3478V36.3477ZM49.9643 38.2245L46.2991 40.228L43.7175 40.7304L45.9088 39.2731L49.924 38.123L49.9643 38.2245ZM56.4878 40.2538L52.8356 38.228L52.8778 38.127L56.8857 39.3017L59.0674 40.7724L56.4878 40.2538Z" fill="#0CB4C4" stroke="#0CB4C4" stroke-width="0.2"></path><path d="M45.8695 31.2615H39.0676C38.9543 29.5498 38.2793 27.9234 37.1473 26.6345L39.456 24.3259C39.5539 24.228 39.6088 24.0953 39.6088 23.9569C39.6088 23.8185 39.5539 23.6857 39.456 23.5879C39.4075 23.5394 39.35 23.501 39.2867 23.4747C39.2234 23.4485 39.1555 23.435 39.087 23.435C38.9486 23.435 38.8159 23.49 38.718 23.5879L36.4093 25.8966C35.1205 24.7647 33.4941 24.0897 31.7825 23.9764V20.3049C31.7825 20.1666 31.7276 20.0339 31.6297 19.936C31.5319 19.8382 31.3992 19.7832 31.2608 19.7832C31.1224 19.7832 30.9897 19.8382 30.8919 19.936C30.794 20.0339 30.739 20.1666 30.739 20.3049V23.9764C29.0274 24.0897 27.401 24.7647 26.1121 25.8967L23.2817 23.0662C23.1838 22.9684 23.0511 22.9134 22.9127 22.9134C22.7743 22.9134 22.6416 22.9684 22.5437 23.0662C22.4458 23.1641 22.3909 23.2968 22.3909 23.4352C22.3909 23.5736 22.4458 23.7064 22.5437 23.8042L25.3741 26.6347C24.2422 27.9235 23.5673 29.5499 23.454 31.2615H17.6956C17.5572 31.2615 17.4245 31.3164 17.3266 31.4143C17.2288 31.5121 17.1738 31.6448 17.1738 31.7832C17.1738 31.9216 17.2288 32.0543 17.3266 32.1521C17.4245 32.25 17.5572 32.3049 17.6956 32.3049H23.454C23.5673 34.0166 24.2423 35.643 25.3743 36.9319L22.5438 39.7623C22.4954 39.8107 22.4569 39.8683 22.4307 39.9316C22.4045 39.9949 22.391 40.0628 22.391 40.1313C22.391 40.2697 22.446 40.4024 22.5438 40.5003C22.6417 40.5982 22.7744 40.6531 22.9128 40.6531C23.0512 40.6531 23.184 40.5982 23.2818 40.5003L26.1123 37.6699C27.4011 38.8017 29.0275 39.4767 30.739 39.59V43.2615C30.739 43.3998 30.794 43.5325 30.8919 43.6304C30.9897 43.7282 31.1224 43.7832 31.2608 43.7832C31.3992 43.7832 31.5319 43.7282 31.6297 43.6304C31.7276 43.5325 31.7825 43.3998 31.7825 43.2615V39.59C33.4942 39.4767 35.1206 38.8017 36.4094 37.6697L39.2399 40.5002C39.3377 40.598 39.4705 40.653 39.6089 40.653C39.7473 40.653 39.88 40.598 39.9779 40.5002C40.0757 40.4023 40.1307 40.2696 40.1307 40.1312C40.1307 39.9928 40.0757 39.86 39.9779 39.7622L37.1474 36.9317C38.2793 35.6429 38.9543 34.0165 39.0676 32.3049H45.8695C46.0079 32.3049 46.1406 32.25 46.2384 32.1521C46.3363 32.0543 46.3912 31.9216 46.3912 31.7832C46.3912 31.6448 46.3363 31.5121 46.2384 31.4143C46.1406 31.3164 46.0079 31.2615 45.8695 31.2615ZM31.2608 38.5658C29.9193 38.5658 28.608 38.168 27.4926 37.4227C26.3772 36.6775 25.5078 35.6182 24.9945 34.3788C24.4811 33.1394 24.3468 31.7757 24.6085 30.46C24.8702 29.1443 25.5162 27.9357 26.4648 26.9872C27.4133 26.0386 28.6219 25.3926 29.9376 25.1309C31.2533 24.8692 32.617 25.0035 33.8564 25.5169C35.0957 26.0302 36.155 26.8996 36.9003 28.015C37.6456 29.1304 38.0434 30.4417 38.0434 31.7832C38.0414 33.5814 37.3261 35.3054 36.0546 36.577C34.783 37.8485 33.059 38.5638 31.2608 38.5658Z" fill="#0CB4C4" stroke="#0CB4C4" stroke-width="0.2"></path></svg>