<svg width="67" height="60" viewBox="0 0 67 60" fill="none" xmlns="http://www.w3.org/2000/svg"><path d="M66.9753 23.9864C66.9753 15.6803 61.0248 8.73906 53.1625 7.19939L50.1448 1.55998C49.6219 0.583088 48.6487 0 47.5412 0H10.3643C9.25688 0 8.28362 0.583088 7.76072 1.55998L0.116763 15.8449C0.0406131 15.9885 0 16.148 0 16.3098V21.7258C0 24.3976 1.8653 26.64 4.36155 27.2231V56.8039C4.36155 58.5662 5.79534 60 7.55766 60H50.3472C52.1095 60 53.5433 58.5662 53.5433 56.8039V40.6943C61.2155 39.0081 66.9753 32.1576 66.9753 23.9864ZM48.4079 2.489L50.77 6.90277C50.4712 6.88754 50.1709 6.87884 49.8685 6.87884C48.3535 6.87884 46.8834 7.07755 45.4837 7.4496L43.5285 1.96901H47.5412C47.9212 1.96973 48.2287 2.15394 48.4079 2.489ZM32.7617 23.9864C32.7617 24.4324 32.7791 24.8748 32.8125 25.3128C31.1698 24.9459 29.9376 23.4773 29.9376 21.7258V17.2946H34.1251C33.2476 19.3514 32.7617 21.6134 32.7617 23.9864ZM20.8062 15.3249L23.1879 1.96973H27.9672V15.3249H20.8062ZM18.8053 15.3249H11.7045L16.4686 1.96973H21.187L18.8053 15.3249ZM11.2926 17.2946H18.645V21.7258C18.645 23.7528 16.9958 25.402 14.9688 25.402C12.9418 25.402 11.2926 23.7528 11.2926 21.7258V17.2946ZM20.6155 17.2946H27.9679V21.7258C27.9679 23.7528 26.3187 25.402 24.2917 25.402C22.2647 25.402 20.6155 23.7528 20.6155 21.7258V17.2946ZM35.1216 15.3249H29.9376V1.96973H34.7169L36.6983 13.0803C36.1159 13.7831 35.5879 14.5337 35.1216 15.3249ZM38.3851 11.3173L36.7186 1.96973H41.4369L43.6112 8.06459C41.6719 8.82972 39.9045 9.9386 38.3851 11.3173ZM9.49766 2.489C9.67679 2.15394 9.98501 1.96973 10.3643 1.96973H14.377L9.61297 15.3249H2.62897L9.49766 2.489ZM1.97046 21.7258V17.2946H9.32287V21.7258C9.32287 23.7528 7.67369 25.402 5.64667 25.402C3.61964 25.402 1.97046 23.7528 1.97046 21.7258ZM41.2578 58.0303H29.9376V42.5697H41.2571L41.2578 58.0303ZM27.9679 58.0303H16.6485V42.5697H27.9686L27.9679 58.0303ZM51.5735 56.8039C51.5735 57.4798 51.0231 58.0303 50.3472 58.0303H43.2275V42.4232C43.2275 41.4181 42.4095 40.6 41.4043 40.6H16.5012C15.4961 40.6 14.678 41.4181 14.678 42.4232V58.0303H7.55766C6.88174 58.0303 6.33129 57.4798 6.33129 56.8039V27.3297C7.97974 27.1295 9.41135 26.2165 10.307 24.9089C11.3252 26.3949 13.0346 27.3718 14.9681 27.3718C16.9016 27.3718 18.6109 26.3949 19.6292 24.9089C20.6474 26.3949 22.3568 27.3718 24.2902 27.3718C26.2237 27.3718 27.9331 26.3949 28.9513 24.9089C29.8767 26.26 31.3743 27.1875 33.0917 27.3456C33.4195 28.9861 33.983 30.5418 34.7445 31.9777H16.1727C15.3488 31.9777 14.6787 32.6478 14.6787 33.4717V36.67C14.6787 37.4938 15.3488 38.164 16.1727 38.164H40.3048C43.0368 40.0126 46.3286 41.0932 49.8685 41.0932C50.4443 41.0932 51.0129 41.0642 51.5742 41.0083L51.5735 56.8039ZM37.8971 36.1942H16.6477V33.9474H35.9679C36.546 34.751 37.1921 35.5023 37.8971 36.1942ZM49.8685 39.1234C41.5218 39.1234 34.7314 32.3331 34.7314 23.9864C34.7314 15.6397 41.5218 8.8493 49.8685 8.8493C58.2152 8.8493 65.0056 15.6397 65.0056 23.9864C65.0056 32.3331 58.2145 39.1234 49.8685 39.1234ZM61.2663 21.0564C61.1096 21.1485 60.937 21.1928 60.7673 21.1928C60.4301 21.1928 60.1008 21.0194 59.9173 20.7069C57.8294 17.1583 53.9784 14.9536 49.867 14.9536C45.7557 14.9536 41.9047 17.1583 39.8168 20.7069C39.5412 21.1761 38.9371 21.332 38.4686 21.0564C38 20.7808 37.8434 20.1767 38.119 19.7082C40.5594 15.5606 45.0609 12.9846 49.867 12.9846C54.6732 12.9846 59.1747 15.5613 61.6144 19.7082C61.8921 20.1767 61.7355 20.7808 61.2663 21.0564ZM53.639 26.2622C53.953 26.7067 53.8471 27.321 53.4026 27.635C52.958 27.949 52.3437 27.8432 52.0297 27.3986C51.5344 26.6966 50.7257 26.2774 49.8685 26.2774C48.9358 26.2774 48.0619 26.7778 47.5876 27.5835C47.4042 27.8954 47.0756 28.0694 46.7377 28.0694C46.568 28.0694 46.3961 28.0252 46.2394 27.9331C45.7709 27.6575 45.6143 27.0534 45.8899 26.5849C46.7159 25.1801 48.2403 24.3076 49.8685 24.3076C51.3647 24.3076 52.7745 25.0387 53.639 26.2622ZM57.7315 23.1465C58.0071 23.615 57.8511 24.2192 57.3819 24.4948C57.2253 24.5869 57.0534 24.6311 56.883 24.6311C56.5457 24.6311 56.2165 24.4578 56.033 24.1452C54.7522 21.968 52.3901 20.6155 49.8678 20.6155C47.3454 20.6155 44.9833 21.968 43.7026 24.1452C43.427 24.6144 42.8229 24.7703 42.3544 24.4948C41.8859 24.2192 41.7292 23.615 42.0048 23.1465C43.638 20.3704 46.6506 18.6465 49.8678 18.6465C53.0849 18.6458 56.0983 20.3704 57.7315 23.1465ZM49.8685 29.6874C48.4071 29.6874 47.2178 30.8768 47.2178 32.3382C47.2178 33.7995 48.4064 34.9889 49.8685 34.9889C51.3306 34.9889 52.5192 33.8002 52.5192 32.3382C52.5192 30.8761 51.3298 29.6874 49.8685 29.6874ZM49.8685 33.0191C49.4935 33.0191 49.1882 32.7138 49.1882 32.3389C49.1882 31.9639 49.4935 31.6579 49.8685 31.6579C50.2434 31.6579 50.5488 31.9632 50.5488 32.3389C50.5488 32.7145 50.2434 33.0191 49.8685 33.0191ZM31.4519 51.1036V49.4957C31.4519 48.9518 31.8929 48.5109 32.4368 48.5109C32.9807 48.5109 33.4217 48.9518 33.4217 49.4957V51.1036C33.4217 51.6475 32.9807 52.0884 32.4368 52.0884C31.8929 52.0884 31.4519 51.6475 31.4519 51.1036ZM24.4839 51.1036V49.4957C24.4839 48.9518 24.9248 48.5109 25.4687 48.5109C26.0127 48.5109 26.4536 48.9518 26.4536 49.4957V51.1036C26.4536 51.6475 26.0127 52.0884 25.4687 52.0884C24.9248 52.0884 24.4839 51.6475 24.4839 51.1036Z" fill="#0CB4C4"></path></svg>