<svg xmlns="http://www.w3.org/2000/svg" id="Layer_1" data-name="Layer 1" width="60.01" height="60" viewBox="0 0 60.01 60"><defs><style> .cls-1 { fill: #0cb4c4; } </style></defs><path class="cls-1" d="M26,52a25.89,25.89,0,0,0,14.52-4.45l11,11A4.93,4.93,0,1,0,58,51.09L46.16,42.37A26,26,0,1,0,26,52Zm30.81.72h0A2.91,2.91,0,0,1,58,54.83a2.88,2.88,0,0,1-.85,2.29,3,3,0,0,1-4.16,0L42.15,46.33a27.13,27.13,0,0,0,2.68-2.45ZM26,2A24,24,0,1,1,9,9,24,24,0,0,1,26,2Z"></path><path class="cls-1" d="M12,16V31.2a9,9,0,0,0,4.74,7.93l8.79,4.73a1,1,0,0,0,.94,0l8.8-4.73a9.12,9.12,0,0,0,3.46-3.32A9,9,0,0,0,40,31.2V16a3,3,0,0,0-.77-2,3,3,0,0,0-1.94-1c-2.29-.23-6.55-1-9.38-3.36a2.92,2.92,0,0,0-3.82,0C21.26,12.08,17,12.81,14.71,13A3,3,0,0,0,12,16ZM25.38,11.2a1,1,0,0,1,1.24,0c3.24,2.75,8,3.58,10.48,3.83a1,1,0,0,1,.9,1V31.2a7.11,7.11,0,0,1-1,3.59,7,7,0,0,1-2.7,2.58L26,41.84l-8.31-4.47A7,7,0,0,1,14,31.2V16a1,1,0,0,1,.9-1c2.53-.25,7.24-1.08,10.48-3.83Z"></path><path class="cls-1" d="M18.63,35.6l6.42,3.46h0a2,2,0,0,0,1.9,0l6.41-3.46h0A5,5,0,0,0,36,31.2V18.63a2,2,0,0,0-1.65-2A21.08,21.08,0,0,1,27.05,14a2,2,0,0,0-2.11,0,21,21,0,0,1-7.3,2.68,2,2,0,0,0-1.17.69A2,2,0,0,0,16,18.63V31.2a4.92,4.92,0,0,0,.71,2.56,5,5,0,0,0,1.92,1.84Zm-.62-17h0a22.93,22.93,0,0,0,8-2.94,23.13,23.13,0,0,0,8,2.95V31.2a3,3,0,0,1-.43,1.54,3,3,0,0,1-1.15,1.1L26,37.3l-6.42-3.46a3,3,0,0,1-1.16-1.1A3.1,3.1,0,0,1,18,31.2Z"></path><path class="cls-1" d="M26,27a1,1,0,0,1,.87.5,1,1,0,0,1,0,1,1,1,0,0,1-1.74,0,1,1,0,0,0-1.73,1,3,3,0,0,0,1.6,1.3V31a1,1,0,1,0,2,0v-.19h0a3,3,0,0,0,1.41-4.6A2.94,2.94,0,0,0,26,25a1,1,0,0,1,0-2,1,1,0,0,1,.87.5,1,1,0,0,0,1.73-1,3,3,0,0,0-1.6-1.3V21a1,1,0,0,0-2,0v.18a3,3,0,0,0-1.87,1.95,3,3,0,0,0,.46,2.65A3,3,0,0,0,26,27Z"></path><path class="cls-1" d="M26,48A22,22,0,0,0,26,4a1,1,0,0,0,0,2,20,20,0,1,1-6,.92A1,1,0,0,0,19.4,5,22,22,0,0,0,26,48Z"></path></svg>