<svg version="1.1" id="Layer_1" xmlns="http://www.w3.org/2000/svg" xmlns:xlink="http://www.w3.org/1999/xlink" x="0px" y="0px" width="82.963px" height="60px" viewBox="0 0 82.963 60" style="enable-background:new 0 0 82.963 60;" xml:space="preserve"><g><path style="fill:#0CB4C4;" d="M77.012,53.87H5.951c-0.547,0-0.992-0.443-0.992-0.992V3.868C4.965,1.734,6.694,0.005,8.828,0 h65.287c2.135,0.005,3.864,1.734,3.869,3.868v49.01C77.984,53.418,77.552,53.859,77.012,53.87z M6.944,51.886H76.02V3.868 c0-1.04-0.844-1.885-1.884-1.885l0,0H8.848C7.807,1.972,6.955,2.808,6.944,3.849c0,0.007,0,0.013,0,0.02V51.886z"></path><path style="fill:#0CB4C4;" d="M72.052,48.91h-61.14c-0.548,0-0.992-0.444-0.992-0.992V5.951c0-0.548,0.444-0.992,0.992-0.992 h61.14c0.547,0,0.992,0.444,0.992,0.992v41.967C73.043,48.466,72.599,48.91,72.052,48.91z M11.903,46.926H71.06V6.943H11.903 V46.926z"></path><path style="fill:#0CB4C4;" d="M76.922,60H6.041C2.703,59.995,0,57.287,0,53.948v-1.07c0-0.547,0.443-0.992,0.992-0.992h80.979 c0.548,0,0.992,0.444,0.992,0.992v1.07C82.963,57.287,80.261,59.995,76.922,60z M1.983,53.87v0.079 c0,2.244,1.815,4.063,4.057,4.068h70.882c2.242-0.005,4.057-1.824,4.057-4.068V53.87H1.983z"></path></g></svg>