<svg xmlns="http://www.w3.org/2000/svg" width="61" height="61" viewBox="0 0 61 61" fill="none"><path d="M1.13454 60.0753H26.1136C26.6889 60.0753 27.1544 59.6127 27.1544 59.0409C27.1544 53.1001 23.2542 48.0551 17.8684 46.2803C19.7023 44.9638 20.9096 42.835 20.9096 40.4201C20.9096 36.4276 17.6409 33.1787 13.6241 33.1787C9.60726 33.1787 6.33851 36.4276 6.33851 40.4201C6.33851 42.8424 7.55235 44.9782 9.39585 46.2935C8.45288 46.6022 7.53494 46.9877 6.67799 47.4989C6.18402 47.7928 6.02343 48.4283 6.32022 48.9183C6.61701 49.4102 7.25937 49.5648 7.74725 49.2728C9.01127 48.5197 10.4128 48.0321 11.866 47.8084L8.52987 54.4402C8.32863 54.8383 8.40791 55.3191 8.72502 55.6343L11.1115 58.0064H2.22209C2.3156 56.978 2.54937 55.9707 2.91934 55.0009C3.12262 54.4665 2.85226 53.8694 2.31357 53.6664C1.77894 53.4633 1.17723 53.7341 0.97192 54.2675C0.388506 55.797 0.09375 57.4023 0.09375 59.0409C0.09375 59.6127 0.559261 60.0753 1.13454 60.0753ZM8.4201 40.4201C8.4201 37.5682 10.7538 35.2477 13.6241 35.2477C16.4944 35.2477 18.828 37.5682 18.828 40.4201C18.828 43.272 16.4944 45.5925 13.6241 45.5925C10.7538 45.5925 8.4201 43.272 8.4201 40.4201ZM13.6241 48.9405L16.5208 54.6988L13.6241 57.578L10.7273 54.6988L13.6241 48.9405ZM18.5231 55.6343C18.8402 55.3191 18.9195 54.8383 18.7183 54.4402L15.3927 47.8295C20.5284 48.6286 24.5529 52.802 25.0261 58.0064H16.1366L18.5231 55.6343Z" fill="#0CB4C4"></path><path d="M59.4188 4.21314H56.1912C55.7077 1.85511 53.6063 0.0751953 51.0925 0.0751953C48.5787 0.0751953 46.4773 1.85511 45.9937 4.21314H39.5385C39.055 1.85511 36.9536 0.0751953 34.4398 0.0751953C31.926 0.0751953 29.8246 1.85511 29.341 4.21314H22.8858C22.4023 1.85511 20.3009 0.0751953 17.7871 0.0751953C15.2733 0.0751953 13.1718 1.85511 12.6883 4.21314H9.46072C8.88543 4.21314 8.41992 4.67583 8.41992 5.24763V30.0753C8.41992 30.6471 8.88543 31.1098 9.46072 31.1098C10.036 31.1098 10.5015 30.6471 10.5015 30.0753V14.558H58.378V51.7995H30.2766C29.7013 51.7995 29.2358 52.2622 29.2358 52.834C29.2358 53.4058 29.7013 53.8685 30.2766 53.8685H59.4188C59.9941 53.8685 60.4596 53.4058 60.4596 52.834V5.24763C60.4596 4.67583 59.9941 4.21314 59.4188 4.21314ZM51.0925 2.14417C52.4476 2.14417 53.5921 3.01158 54.0231 4.21314H48.1618C48.5929 3.01158 49.7374 2.14417 51.0925 2.14417ZM34.4398 2.14417C35.7949 2.14417 36.9394 3.01158 37.3704 4.21314H31.5091C31.9402 3.01158 33.0847 2.14417 34.4398 2.14417ZM17.7871 2.14417C19.1422 2.14417 20.2867 3.01158 20.7177 4.21314H14.8564C15.2875 3.01158 16.432 2.14417 17.7871 2.14417ZM10.5015 12.489V6.28211H12.6883C13.1718 8.64014 15.2733 10.4201 17.7871 10.4201C18.3624 10.4201 18.8279 9.95737 18.8279 9.38557C18.8279 8.81377 18.3624 8.35108 17.7871 8.35108C16.432 8.35108 15.2875 7.48367 14.8564 6.28211H29.341C29.8246 8.64014 31.926 10.4201 34.4398 10.4201C35.0151 10.4201 35.4806 9.95737 35.4806 9.38557C35.4806 8.81377 35.0151 8.35108 34.4398 8.35108C33.0847 8.35108 31.9402 7.48367 31.5091 6.28211H45.9937C46.4773 8.64014 48.5787 10.4201 51.0925 10.4201C51.6678 10.4201 52.1333 9.95737 52.1333 9.38557C52.1333 8.81377 51.6678 8.35108 51.0925 8.35108C49.7374 8.35108 48.5929 7.48367 48.1618 6.28211H58.378V12.489H10.5015Z" fill="#0CB4C4"></path><path d="M15.7058 26.9722H21.9506C22.5259 26.9722 22.9914 26.5095 22.9914 25.9377V19.7308C22.9914 19.159 22.5259 18.6963 21.9506 18.6963H15.7058C15.1306 18.6963 14.665 19.159 14.665 19.7308V25.9377C14.665 26.5095 15.1306 26.9722 15.7058 26.9722ZM16.7466 20.7653H20.9098V24.9032H16.7466V20.7653Z" fill="#0CB4C4"></path><path d="M26.114 26.9722H32.3588C32.9341 26.9722 33.3996 26.5095 33.3996 25.9377V19.7308C33.3996 19.159 32.9341 18.6963 32.3588 18.6963H26.114C25.5388 18.6963 25.0732 19.159 25.0732 19.7308V25.9377C25.0732 26.5095 25.5388 26.9722 26.114 26.9722ZM27.1548 20.7653H31.318V24.9032H27.1548V20.7653Z" fill="#0CB4C4"></path><path d="M36.5213 26.9722H42.766C43.3413 26.9722 43.8068 26.5095 43.8068 25.9377V19.7308C43.8068 19.159 43.3413 18.6963 42.766 18.6963H36.5213C35.946 18.6963 35.4805 19.159 35.4805 19.7308V25.9377C35.4805 26.5095 35.946 26.9722 36.5213 26.9722ZM37.5621 20.7653H41.7252V24.9032H37.5621V20.7653Z" fill="#0CB4C4"></path><path d="M46.9295 26.9722H53.1742C53.7495 26.9722 54.215 26.5095 54.215 25.9377V19.7308C54.215 19.159 53.7495 18.6963 53.1742 18.6963H46.9295C46.3542 18.6963 45.8887 19.159 45.8887 19.7308V25.9377C45.8887 26.5095 46.3542 26.9722 46.9295 26.9722ZM47.9703 20.7653H52.1334V24.9032H47.9703V20.7653Z" fill="#0CB4C4"></path><path d="M15.7058 31.11H20.9098V36.2824C20.9098 36.8542 21.3753 37.3169 21.9506 37.3169C22.5259 37.3169 22.9914 36.8542 22.9914 36.2824V30.0755C22.9914 29.5037 22.5259 29.041 21.9506 29.041H15.7058C15.1306 29.041 14.665 29.5037 14.665 30.0755C14.665 30.6473 15.1306 31.11 15.7058 31.11Z" fill="#0CB4C4"></path><path d="M25.0732 36.2824C25.0732 36.8542 25.5388 37.3169 26.114 37.3169H32.3588C32.9341 37.3169 33.3996 36.8542 33.3996 36.2824V30.0755C33.3996 29.5037 32.9341 29.041 32.3588 29.041H26.114C25.5388 29.041 25.0732 29.5037 25.0732 30.0755V36.2824ZM27.1548 31.11H31.318V35.2479H27.1548V31.11Z" fill="#0CB4C4"></path><path d="M35.4805 36.2824C35.4805 36.8542 35.946 37.3169 36.5213 37.3169H42.766C43.3413 37.3169 43.8068 36.8542 43.8068 36.2824V30.0755C43.8068 29.5037 43.3413 29.041 42.766 29.041H36.5213C35.946 29.041 35.4805 29.5037 35.4805 30.0755V36.2824ZM37.5621 31.11H41.7252V35.2479H37.5621V31.11Z" fill="#0CB4C4"></path><path d="M45.8887 36.2824C45.8887 36.8542 46.3542 37.3169 46.9295 37.3169H53.1742C53.7495 37.3169 54.215 36.8542 54.215 36.2824V30.0755C54.215 29.5037 53.7495 29.041 53.1742 29.041H46.9295C46.3542 29.041 45.8887 29.5037 45.8887 30.0755V36.2824ZM47.9703 31.11H52.1334V35.2479H47.9703V31.11Z" fill="#0CB4C4"></path><path d="M25.0732 46.6271C25.0732 47.1989 25.5388 47.6616 26.114 47.6616H32.3588C32.9341 47.6616 33.3996 47.1989 33.3996 46.6271V40.4202C33.3996 39.8484 32.9341 39.3857 32.3588 39.3857H26.114C25.5388 39.3857 25.0732 39.8484 25.0732 40.4202V46.6271ZM27.1548 41.4547H31.318V45.5927H27.1548V41.4547Z" fill="#0CB4C4"></path><path d="M35.4805 46.6271C35.4805 47.1989 35.946 47.6616 36.5213 47.6616H42.766C43.3413 47.6616 43.8068 47.1989 43.8068 46.6271V40.4202C43.8068 39.8484 43.3413 39.3857 42.766 39.3857H36.5213C35.946 39.3857 35.4805 39.8484 35.4805 40.4202V46.6271ZM37.5621 41.4547H41.7252V45.5927H37.5621V41.4547Z" fill="#0CB4C4"></path><path d="M45.8887 46.6271C45.8887 47.1989 46.3542 47.6616 46.9295 47.6616H53.1742C53.7495 47.6616 54.215 47.1989 54.215 46.6271V40.4202C54.215 39.8484 53.7495 39.3857 53.1742 39.3857H46.9295C46.3542 39.3857 45.8887 39.8484 45.8887 40.4202V46.6271ZM47.9703 41.4547H52.1334V45.5927H47.9703V41.4547Z" fill="#0CB4C4"></path><path d="M4.04275 52.1051C4.61756 52.1051 5.08354 51.6419 5.08354 51.0706C5.08354 50.4993 4.61756 50.0361 4.04275 50.0361C3.46793 50.0361 3.00195 50.4993 3.00195 51.0706C3.00195 51.6419 3.46793 52.1051 4.04275 52.1051Z" fill="#0CB4C4"></path></svg>