<svg xmlns="http://www.w3.org/2000/svg" xmlns:xlink="http://www.w3.org/1999/xlink" version="1.1" id="Layer_1" x="0px" y="0px" width="53.4px" height="60px" viewBox="0 0 53.4 60" style="enable-background:new 0 0 53.4 60;" xml:space="preserve"><g><path style="fill:#0CB4C4;" d="M40.904,15.478c0-0.333-0.13-0.653-0.363-0.891L26.629,0.382C26.39,0.137,26.062,0,25.718,0H6.242 C2.797,0.003,0.006,2.795,0.001,6.24v39.165c0.005,3.443,2.796,6.236,6.241,6.239h20.005c4.502,5.853,12.897,6.948,18.75,2.445 c0.13-0.099,0.257-0.202,0.383-0.306l5.846,5.845c0.497,0.497,1.303,0.497,1.801,0c0.497-0.497,0.497-1.304,0-1.801l0,0 l-5.845-5.845c4.728-5.697,3.944-14.146-1.752-18.875c-1.334-1.107-2.871-1.947-4.525-2.469V15.478z M26.896,4.298l10.277,10.486 h-9.067c-0.668,0-1.21-0.541-1.21-1.209l0,0V4.298z M47.71,43.448c-0.019,6.003-4.897,10.855-10.899,10.838 c-6.003-0.019-10.855-4.897-10.837-10.899c0.018-5.991,4.878-10.838,10.868-10.838c6.009,0.007,10.876,4.884,10.868,10.895 C47.71,43.446,47.71,43.446,47.71,43.448z M36.842,30.001c-7.384-0.038-13.402,5.918-13.438,13.304 c-0.011,2.006,0.43,3.985,1.29,5.799H6.229C4.19,49.099,2.54,47.448,2.536,45.41V6.24C2.54,4.201,4.19,2.55,6.229,2.546h18.119 v11.028c0.004,2.073,1.685,3.752,3.757,3.756h10.252v12.792C37.854,30.053,37.35,30.013,36.842,30.001z"></path><path style="fill:#0CB4C4;" d="M8.999,23.374h7.104c0.704,0,1.273-0.571,1.273-1.274c0-0.703-0.569-1.273-1.273-1.273H8.999 c-0.704,0-1.274,0.571-1.274,1.273C7.725,22.803,8.295,23.374,8.999,23.374z"></path><path style="fill:#0CB4C4;" d="M23.554,28.894H8.999c-0.704,0-1.274,0.57-1.274,1.273c0,0.703,0.57,1.273,1.274,1.273h14.555 c0.703,0,1.273-0.571,1.273-1.273C24.827,29.464,24.257,28.894,23.554,28.894z"></path></g><g><path style="fill:#0CB4C4;" d="M463.196,15.988c0-0.333-0.13-0.653-0.363-0.891L448.921,0.892 c-0.239-0.245-0.567-0.382-0.911-0.382h-19.476c-3.445,0.004-6.236,2.796-6.241,6.24v39.164c0.005,3.443,2.796,6.236,6.241,6.239 h20.005c4.502,5.853,12.897,6.948,18.75,2.445c0.13-0.099,0.257-0.202,0.383-0.306l5.846,5.845c0.497,0.497,1.303,0.497,1.801,0 c0.497-0.497,0.497-1.304,0-1.801l0,0l-5.845-5.845c4.728-5.697,3.944-14.146-1.752-18.875c-1.334-1.107-2.871-1.947-4.525-2.469 V15.988z M449.188,4.808l10.277,10.486h-9.067c-0.668,0-1.21-0.541-1.21-1.209l0,0V4.808z M470.002,43.958 c-0.019,6.003-4.897,10.855-10.899,10.838c-6.003-0.019-10.855-4.897-10.837-10.899c0.018-5.991,4.878-10.838,10.868-10.838 c6.009,0.007,10.876,4.884,10.868,10.895C470.002,43.956,470.002,43.956,470.002,43.958z M459.134,30.512 c-7.384-0.038-13.402,5.918-13.438,13.304c-0.011,2.006,0.43,3.985,1.29,5.799h-18.464c-2.039-0.006-3.689-1.656-3.693-3.694V6.75 c0.004-2.039,1.654-3.689,3.693-3.693h18.119v11.028c0.004,2.073,1.685,3.752,3.757,3.756h10.252v12.792 C460.146,30.563,459.642,30.523,459.134,30.512z"></path><path style="fill:#0CB4C4;" d="M431.291,23.884h7.104c0.704,0,1.273-0.571,1.273-1.274c0-0.703-0.569-1.273-1.273-1.273h-7.104 c-0.704,0-1.274,0.571-1.274,1.273C430.017,23.313,430.587,23.884,431.291,23.884z"></path><path style="fill:#0CB4C4;" d="M445.846,29.404h-14.555c-0.704,0-1.274,0.57-1.274,1.273c0,0.703,0.57,1.273,1.274,1.273h14.555 c0.703,0,1.273-0.57,1.273-1.273C447.119,29.974,446.549,29.404,445.846,29.404z"></path></g></svg>