<svg xmlns="http://www.w3.org/2000/svg" width="60" height="60" viewBox="0 0 60 60" fill="none"><mask id="path-1-inside-1_129_66" fill="white"><path d="M15.9997 45.0001C15.9997 44.4476 16.4472 44.0001 16.9997 44.0001H25.9994C26.5519 44.0001 26.9994 44.4476 26.9994 45.0001C26.9994 45.5526 26.5519 46.0001 25.9994 46.0001H16.9997C16.4472 46.0001 15.9997 45.5526 15.9997 45.0001ZM16.9997 52.0004H28C28.5525 52.0004 29 51.5529 29 51.0004C29 50.4479 28.5525 50.0004 28 50.0004H16.9997C16.4472 50.0004 15.9997 50.4479 15.9997 51.0004C15.9997 51.5529 16.4472 52.0004 16.9997 52.0004ZM16.9997 40.0004H25.9994C26.5519 40.0004 26.9994 39.5529 26.9994 39.0004C26.9994 38.4479 26.5519 38.0004 25.9994 38.0004H16.9997C16.4472 38.0004 15.9997 38.4479 15.9997 39.0004C15.9997 39.5529 16.4472 40.0004 16.9997 40.0004ZM29.9993 33.0001C29.9993 32.7351 29.8943 32.4801 29.7068 32.2926C29.5193 32.1051 29.2643 32.0001 28.9993 32.0001H21.999C21.4465 32.0001 20.999 32.4476 20.999 33.0001C20.999 33.5526 21.4465 34.0001 21.999 34.0001H28.9993C29.2643 34.0001 29.5193 33.8951 29.7068 33.7076C29.8944 33.5201 29.9993 33.2652 29.9993 33.0001ZM35.9993 27.0002C35.9993 26.7352 35.8943 26.4802 35.7068 26.2926C35.5193 26.1051 35.2643 26.0001 34.9993 26.0001H23.999C23.4465 26.0001 22.999 26.4476 22.999 27.0001C22.999 27.5526 23.4465 28.0001 23.999 28.0001H34.9993C35.2643 28.0001 35.5193 27.8951 35.7068 27.7076C35.8943 27.5201 35.9993 27.2652 35.9993 27.0002ZM38.9993 19.9999C38.4468 19.9999 37.9993 20.4474 37.9993 20.9998C37.9993 21.5523 38.4468 21.9998 38.9993 21.9998H44.9993C45.5518 21.9998 45.9993 21.5523 45.9993 20.9998C45.9993 20.4474 45.5518 19.9999 44.9993 19.9999H38.9993ZM26.9994 20.9998C26.9994 21.2648 27.1044 21.5198 27.2919 21.7074C27.4794 21.8949 27.7344 21.9999 27.9994 21.9999H34.9997C35.5522 21.9999 35.9997 21.5524 35.9997 20.9999C35.9997 20.4474 35.5522 19.9999 34.9997 19.9999H27.9994C27.4469 19.9999 26.9994 20.4474 26.9994 20.9998ZM28.9993 15.9999H36.9993C37.5518 15.9999 37.9993 15.5524 37.9993 14.9999C37.9993 14.4474 37.5518 13.9999 36.9993 13.9999H28.9993C28.4468 13.9999 27.9994 14.4474 27.9994 14.9999C27.9994 15.5524 28.4468 15.9999 28.9993 15.9999ZM59.9996 56.1726C59.9996 57.7201 59.0671 59.1151 57.6371 59.7075C56.2046 60.3 54.5596 59.9725 53.4646 58.8775L48.0721 53.485V53.4875C44.3671 55.4475 39.9448 55.505 36.1899 53.6425C32.4349 51.7775 29.8074 48.22 29.1301 44.0822C28.4528 39.9444 29.8076 35.7347 32.7726 32.7722C35.7351 29.8072 39.945 28.4522 44.0826 29.1297C48.2202 29.8072 51.7773 32.4347 53.6429 36.1895C55.5055 39.9445 55.4479 44.3668 53.4879 48.0717L58.8804 53.4642H58.8779C59.6004 54.1792 60.0029 55.1542 60.0004 56.1717L59.9996 56.1726ZM41.9996 53.0001C44.9171 53.0001 47.7146 51.8401 49.7769 49.7776C51.8392 47.715 52.9994 44.9175 52.9994 42.0003C52.9994 39.0831 51.8394 36.2853 49.7769 34.223C47.7144 32.1608 44.9169 31.0005 41.9996 31.0005C39.0824 31.0005 36.2846 32.1605 34.2224 34.223C32.1601 36.2856 30.9999 39.0831 30.9999 42.0003C31.0024 44.9178 32.1623 47.7128 34.2249 49.775C36.2874 51.8375 39.0824 52.9976 41.9996 53.0001ZM57.9996 56.1726C58.0021 55.6851 57.8071 55.22 57.4646 54.8776L52.3796 49.7951C51.6421 50.7726 50.7721 51.6426 49.7946 52.3801L54.8796 57.4651H54.8771C55.6021 58.1551 56.7396 58.1551 57.4646 57.4651C57.8071 57.1226 58.0021 56.6575 57.9996 56.1726ZM47.8473 57.3425C47.3248 57.765 46.6723 57.9975 45.9998 58H15.9999C14.3449 57.9975 13.0024 56.655 12.9999 55V35.9997C12.9999 35.4472 12.5524 34.9997 11.9999 34.9997C11.4474 34.9997 10.9999 35.4472 10.9999 35.9997V55C11.0024 57.76 13.2399 59.9975 15.9999 60H45.9998C47.1223 59.9975 48.2123 59.615 49.0898 58.91C49.5048 58.5625 49.5698 57.9475 49.2323 57.52C48.8973 57.095 48.2823 57.015 47.8498 57.3425L47.8473 57.3425ZM29 7.00027C29 6.44777 29.4475 6.00027 30 6.00027H40.3424C41.0074 6.00277 41.6649 6.13777 42.2773 6.40277C42.3798 6.43027 42.4773 6.47527 42.5648 6.53527C43.0498 6.77027 43.4948 7.08527 43.8773 7.46525L49.5348 13.1227C49.9348 13.5252 50.2623 13.9952 50.5023 14.5102C50.5148 14.5352 50.5273 14.5602 50.5373 14.5852C50.8398 15.2352 50.9973 15.9402 50.9998 16.6577V28.0004C50.9998 28.5529 50.5523 29.0004 49.9998 29.0004C49.4473 29.0004 48.9998 28.5529 48.9998 28.0004V16.6577C48.9973 16.4352 48.9698 16.2152 48.9173 16.0003H43.9998C42.3448 15.9978 41.0023 14.6552 40.9998 13.0003V8.08278C40.7848 8.03028 40.5648 8.00278 40.3423 8.00028H30C29.4475 8.00028 29 7.55277 29 7.00027ZM43 9.41524V13.0003C43 13.5528 43.4475 14.0003 44 14.0003H47.585L43 9.41524ZM50.9999 42.0001C50.9999 45.6401 48.8074 48.9223 45.4449 50.315C42.08 51.7075 38.2098 50.9375 35.635 48.365C33.0626 45.79 32.2925 41.9202 33.685 38.5551C35.0775 35.1926 38.36 33.0001 41.9999 33.0001C46.9674 33.0051 50.9955 37.033 50.9999 42.0001ZM48.9999 42.0001C48.9999 39.1701 47.2949 36.6176 44.68 35.5329C42.0625 34.4504 39.0524 35.0479 37.0499 37.0504C35.0473 39.0529 34.4499 42.0629 35.5324 44.6805C36.6174 47.2955 39.1699 49.0005 41.9996 49.0005C45.8646 48.9955 48.9948 45.8654 48.9999 42.0001ZM11 24.6504C8.44004 23.1729 6.66507 20.6379 6.15256 17.7282C5.63756 14.8157 6.44006 11.8282 8.34007 9.56308C10.2401 7.29806 13.0451 5.99061 16.0002 5.99061C18.9553 5.99061 21.7602 7.29812 23.6604 9.56308C25.5604 11.8281 26.3629 14.8155 25.8479 17.7282C25.3354 20.6382 23.5604 23.1732 21.0004 24.6504V27.0004C20.9979 27.7829 20.5404 28.4929 19.8279 28.8154L19.1604 31.4854C18.9379 32.3779 18.1379 33.0029 17.2204 33.0004H14.7804C13.8629 33.0004 13.0629 32.3754 12.8405 31.4854L12.173 28.8154C11.4604 28.4929 11.003 27.7829 11.0005 27.0004L11 24.6504ZM13 25.0004V27.0004H19V25.0004H13ZM17.22 31.0004L17.72 29.0004H14.2801L14.7801 31.0004H17.22ZM12.1776 23.0004H15.0001V19.4154L12.2926 16.7079C11.9151 16.3154 11.9201 15.6904 12.3051 15.3054C12.6901 14.9204 13.3151 14.9154 13.7076 15.2929L16 17.5854L18.2925 15.2929C18.685 14.9154 19.31 14.9204 19.695 15.3054C20.08 15.6904 20.085 16.3154 19.7075 16.7079L17 19.4154V23.0004H19.8225C23.0375 21.2529 24.655 17.5454 23.7525 14.0008C22.85 10.4557 19.6575 7.97325 16.0002 7.97325C12.3429 7.97325 9.15029 10.4557 8.24789 14.0008C7.34536 17.5458 8.9626 21.2532 12.1776 23.0004ZM2.99999 15.0004H0.999997C0.4475 15.0004 0 15.4479 0 16.0004C0 16.5529 0.4475 17.0004 0.999997 17.0004H2.99999C3.55249 17.0004 3.99999 16.5529 3.99999 16.0004C3.99999 15.4479 3.55249 15.0004 2.99999 15.0004ZM6.10002 24.4852L4.68754 25.9002C4.49754 26.0877 4.39004 26.3427 4.39004 26.6077C4.39004 26.8752 4.49504 27.1302 4.68254 27.3177C4.87254 27.5052 5.12754 27.6102 5.39256 27.6102C5.65755 27.6102 5.91255 27.5027 6.10007 27.3152L7.51505 25.9002C7.70255 25.7127 7.81005 25.4577 7.81005 25.1927C7.81255 24.9252 7.70505 24.6702 7.51755 24.4827C7.33005 24.2952 7.07505 24.1902 6.80753 24.1902C6.54254 24.1902 6.28754 24.2977 6.10002 24.4852ZM25.9003 7.51501L27.3153 6.10004C27.5028 5.91253 27.6103 5.65753 27.6103 5.39252C27.6103 5.12752 27.5053 4.87252 27.3178 4.6825C27.1303 4.495 26.8753 4.39 26.6077 4.39C26.3427 4.39 26.0877 4.49751 25.9002 4.6875L24.4853 6.09998C24.0953 6.48998 24.0953 7.125 24.4853 7.51495C24.8753 7.90495 25.5103 7.905 25.9003 7.51501ZM6.10002 7.51501C6.28752 7.70751 6.54252 7.81751 6.81253 7.82001C7.08003 7.8225 7.34003 7.7175 7.52753 7.52751C7.71754 7.3375 7.82503 7.08001 7.82253 6.8125C7.82003 6.5425 7.70753 6.2875 7.51503 6.09999L6.10006 4.68751C5.91256 4.49751 5.65756 4.39002 5.39254 4.39002C5.12754 4.39002 4.87254 4.49502 4.68253 4.68252C4.49503 4.87252 4.39003 5.12751 4.39003 5.39253C4.39003 5.65753 4.49753 5.91253 4.68753 6.10005L6.10002 7.51501ZM16.0001 4.00001C16.2651 4.00001 16.5201 3.89501 16.7077 3.70751C16.8952 3.52001 17.0002 3.26501 17.0002 2.99999V0.999998C17.0002 0.4475 16.5527 0 16.0002 0C15.4477 0 15.0002 0.4475 15.0002 0.999998V2.99999C15.0002 3.26499 15.1052 3.51999 15.2927 3.70751C15.4802 3.89503 15.7351 4.00001 16.0001 4.00001Z"></path></mask><path d="M15.9997 45.0001C15.9997 44.4476 16.4472 44.0001 16.9997 44.0001H25.9994C26.5519 44.0001 26.9994 44.4476 26.9994 45.0001C26.9994 45.5526 26.5519 46.0001 25.9994 46.0001H16.9997C16.4472 46.0001 15.9997 45.5526 15.9997 45.0001ZM16.9997 52.0004H28C28.5525 52.0004 29 51.5529 29 51.0004C29 50.4479 28.5525 50.0004 28 50.0004H16.9997C16.4472 50.0004 15.9997 50.4479 15.9997 51.0004C15.9997 51.5529 16.4472 52.0004 16.9997 52.0004ZM16.9997 40.0004H25.9994C26.5519 40.0004 26.9994 39.5529 26.9994 39.0004C26.9994 38.4479 26.5519 38.0004 25.9994 38.0004H16.9997C16.4472 38.0004 15.9997 38.4479 15.9997 39.0004C15.9997 39.5529 16.4472 40.0004 16.9997 40.0004ZM29.9993 33.0001C29.9993 32.7351 29.8943 32.4801 29.7068 32.2926C29.5193 32.1051 29.2643 32.0001 28.9993 32.0001H21.999C21.4465 32.0001 20.999 32.4476 20.999 33.0001C20.999 33.5526 21.4465 34.0001 21.999 34.0001H28.9993C29.2643 34.0001 29.5193 33.8951 29.7068 33.7076C29.8944 33.5201 29.9993 33.2652 29.9993 33.0001ZM35.9993 27.0002C35.9993 26.7352 35.8943 26.4802 35.7068 26.2926C35.5193 26.1051 35.2643 26.0001 34.9993 26.0001H23.999C23.4465 26.0001 22.999 26.4476 22.999 27.0001C22.999 27.5526 23.4465 28.0001 23.999 28.0001H34.9993C35.2643 28.0001 35.5193 27.8951 35.7068 27.7076C35.8943 27.5201 35.9993 27.2652 35.9993 27.0002ZM38.9993 19.9999C38.4468 19.9999 37.9993 20.4474 37.9993 20.9998C37.9993 21.5523 38.4468 21.9998 38.9993 21.9998H44.9993C45.5518 21.9998 45.9993 21.5523 45.9993 20.9998C45.9993 20.4474 45.5518 19.9999 44.9993 19.9999H38.9993ZM26.9994 20.9998C26.9994 21.2648 27.1044 21.5198 27.2919 21.7074C27.4794 21.8949 27.7344 21.9999 27.9994 21.9999H34.9997C35.5522 21.9999 35.9997 21.5524 35.9997 20.9999C35.9997 20.4474 35.5522 19.9999 34.9997 19.9999H27.9994C27.4469 19.9999 26.9994 20.4474 26.9994 20.9998ZM28.9993 15.9999H36.9993C37.5518 15.9999 37.9993 15.5524 37.9993 14.9999C37.9993 14.4474 37.5518 13.9999 36.9993 13.9999H28.9993C28.4468 13.9999 27.9994 14.4474 27.9994 14.9999C27.9994 15.5524 28.4468 15.9999 28.9993 15.9999ZM59.9996 56.1726C59.9996 57.7201 59.0671 59.1151 57.6371 59.7075C56.2046 60.3 54.5596 59.9725 53.4646 58.8775L48.0721 53.485V53.4875C44.3671 55.4475 39.9448 55.505 36.1899 53.6425C32.4349 51.7775 29.8074 48.22 29.1301 44.0822C28.4528 39.9444 29.8076 35.7347 32.7726 32.7722C35.7351 29.8072 39.945 28.4522 44.0826 29.1297C48.2202 29.8072 51.7773 32.4347 53.6429 36.1895C55.5055 39.9445 55.4479 44.3668 53.4879 48.0717L58.8804 53.4642H58.8779C59.6004 54.1792 60.0029 55.1542 60.0004 56.1717L59.9996 56.1726ZM41.9996 53.0001C44.9171 53.0001 47.7146 51.8401 49.7769 49.7776C51.8392 47.715 52.9994 44.9175 52.9994 42.0003C52.9994 39.0831 51.8394 36.2853 49.7769 34.223C47.7144 32.1608 44.9169 31.0005 41.9996 31.0005C39.0824 31.0005 36.2846 32.1605 34.2224 34.223C32.1601 36.2856 30.9999 39.0831 30.9999 42.0003C31.0024 44.9178 32.1623 47.7128 34.2249 49.775C36.2874 51.8375 39.0824 52.9976 41.9996 53.0001ZM57.9996 56.1726C58.0021 55.6851 57.8071 55.22 57.4646 54.8776L52.3796 49.7951C51.6421 50.7726 50.7721 51.6426 49.7946 52.3801L54.8796 57.4651H54.8771C55.6021 58.1551 56.7396 58.1551 57.4646 57.4651C57.8071 57.1226 58.0021 56.6575 57.9996 56.1726ZM47.8473 57.3425C47.3248 57.765 46.6723 57.9975 45.9998 58H15.9999C14.3449 57.9975 13.0024 56.655 12.9999 55V35.9997C12.9999 35.4472 12.5524 34.9997 11.9999 34.9997C11.4474 34.9997 10.9999 35.4472 10.9999 35.9997V55C11.0024 57.76 13.2399 59.9975 15.9999 60H45.9998C47.1223 59.9975 48.2123 59.615 49.0898 58.91C49.5048 58.5625 49.5698 57.9475 49.2323 57.52C48.8973 57.095 48.2823 57.015 47.8498 57.3425L47.8473 57.3425ZM29 7.00027C29 6.44777 29.4475 6.00027 30 6.00027H40.3424C41.0074 6.00277 41.6649 6.13777 42.2773 6.40277C42.3798 6.43027 42.4773 6.47527 42.5648 6.53527C43.0498 6.77027 43.4948 7.08527 43.8773 7.46525L49.5348 13.1227C49.9348 13.5252 50.2623 13.9952 50.5023 14.5102C50.5148 14.5352 50.5273 14.5602 50.5373 14.5852C50.8398 15.2352 50.9973 15.9402 50.9998 16.6577V28.0004C50.9998 28.5529 50.5523 29.0004 49.9998 29.0004C49.4473 29.0004 48.9998 28.5529 48.9998 28.0004V16.6577C48.9973 16.4352 48.9698 16.2152 48.9173 16.0003H43.9998C42.3448 15.9978 41.0023 14.6552 40.9998 13.0003V8.08278C40.7848 8.03028 40.5648 8.00278 40.3423 8.00028H30C29.4475 8.00028 29 7.55277 29 7.00027ZM43 9.41524V13.0003C43 13.5528 43.4475 14.0003 44 14.0003H47.585L43 9.41524ZM50.9999 42.0001C50.9999 45.6401 48.8074 48.9223 45.4449 50.315C42.08 51.7075 38.2098 50.9375 35.635 48.365C33.0626 45.79 32.2925 41.9202 33.685 38.5551C35.0775 35.1926 38.36 33.0001 41.9999 33.0001C46.9674 33.0051 50.9955 37.033 50.9999 42.0001ZM48.9999 42.0001C48.9999 39.1701 47.2949 36.6176 44.68 35.5329C42.0625 34.4504 39.0524 35.0479 37.0499 37.0504C35.0473 39.0529 34.4499 42.0629 35.5324 44.6805C36.6174 47.2955 39.1699 49.0005 41.9996 49.0005C45.8646 48.9955 48.9948 45.8654 48.9999 42.0001ZM11 24.6504C8.44004 23.1729 6.66507 20.6379 6.15256 17.7282C5.63756 14.8157 6.44006 11.8282 8.34007 9.56308C10.2401 7.29806 13.0451 5.99061 16.0002 5.99061C18.9553 5.99061 21.7602 7.29812 23.6604 9.56308C25.5604 11.8281 26.3629 14.8155 25.8479 17.7282C25.3354 20.6382 23.5604 23.1732 21.0004 24.6504V27.0004C20.9979 27.7829 20.5404 28.4929 19.8279 28.8154L19.1604 31.4854C18.9379 32.3779 18.1379 33.0029 17.2204 33.0004H14.7804C13.8629 33.0004 13.0629 32.3754 12.8405 31.4854L12.173 28.8154C11.4604 28.4929 11.003 27.7829 11.0005 27.0004L11 24.6504ZM13 25.0004V27.0004H19V25.0004H13ZM17.22 31.0004L17.72 29.0004H14.2801L14.7801 31.0004H17.22ZM12.1776 23.0004H15.0001V19.4154L12.2926 16.7079C11.9151 16.3154 11.9201 15.6904 12.3051 15.3054C12.6901 14.9204 13.3151 14.9154 13.7076 15.2929L16 17.5854L18.2925 15.2929C18.685 14.9154 19.31 14.9204 19.695 15.3054C20.08 15.6904 20.085 16.3154 19.7075 16.7079L17 19.4154V23.0004H19.8225C23.0375 21.2529 24.655 17.5454 23.7525 14.0008C22.85 10.4557 19.6575 7.97325 16.0002 7.97325C12.3429 7.97325 9.15029 10.4557 8.24789 14.0008C7.34536 17.5458 8.9626 21.2532 12.1776 23.0004ZM2.99999 15.0004H0.999997C0.4475 15.0004 0 15.4479 0 16.0004C0 16.5529 0.4475 17.0004 0.999997 17.0004H2.99999C3.55249 17.0004 3.99999 16.5529 3.99999 16.0004C3.99999 15.4479 3.55249 15.0004 2.99999 15.0004ZM6.10002 24.4852L4.68754 25.9002C4.49754 26.0877 4.39004 26.3427 4.39004 26.6077C4.39004 26.8752 4.49504 27.1302 4.68254 27.3177C4.87254 27.5052 5.12754 27.6102 5.39256 27.6102C5.65755 27.6102 5.91255 27.5027 6.10007 27.3152L7.51505 25.9002C7.70255 25.7127 7.81005 25.4577 7.81005 25.1927C7.81255 24.9252 7.70505 24.6702 7.51755 24.4827C7.33005 24.2952 7.07505 24.1902 6.80753 24.1902C6.54254 24.1902 6.28754 24.2977 6.10002 24.4852ZM25.9003 7.51501L27.3153 6.10004C27.5028 5.91253 27.6103 5.65753 27.6103 5.39252C27.6103 5.12752 27.5053 4.87252 27.3178 4.6825C27.1303 4.495 26.8753 4.39 26.6077 4.39C26.3427 4.39 26.0877 4.49751 25.9002 4.6875L24.4853 6.09998C24.0953 6.48998 24.0953 7.125 24.4853 7.51495C24.8753 7.90495 25.5103 7.905 25.9003 7.51501ZM6.10002 7.51501C6.28752 7.70751 6.54252 7.81751 6.81253 7.82001C7.08003 7.8225 7.34003 7.7175 7.52753 7.52751C7.71754 7.3375 7.82503 7.08001 7.82253 6.8125C7.82003 6.5425 7.70753 6.2875 7.51503 6.09999L6.10006 4.68751C5.91256 4.49751 5.65756 4.39002 5.39254 4.39002C5.12754 4.39002 4.87254 4.49502 4.68253 4.68252C4.49503 4.87252 4.39003 5.12751 4.39003 5.39253C4.39003 5.65753 4.49753 5.91253 4.68753 6.10005L6.10002 7.51501ZM16.0001 4.00001C16.2651 4.00001 16.5201 3.89501 16.7077 3.70751C16.8952 3.52001 17.0002 3.26501 17.0002 2.99999V0.999998C17.0002 0.4475 16.5527 0 16.0002 0C15.4477 0 15.0002 0.4475 15.0002 0.999998V2.99999C15.0002 3.26499 15.1052 3.51999 15.2927 3.70751C15.4802 3.89503 15.7351 4.00001 16.0001 4.00001Z" fill="#0CB4C4" stroke="white" stroke-width="0.2" mask="url(#path-1-inside-1_129_66)"></path></svg>