<svg width="62" height="62" viewBox="0 0 62 62" fill="none" xmlns="http://www.w3.org/2000/svg"><path d="M58.3952 10.4244L58.2761 10.2159C55.0316 4.53376 48.9514 1.0025 42.4085 1.00025L41.8641 1H41.8572C35.6455 1 29.9338 4.12114 26.5788 9.34941L26.283 9.81041C23.83 13.6331 22.7915 18.2199 23.3586 22.7262L23.5177 23.99L21.1817 30.9975C20.957 31.6718 21.0242 32.4158 21.3662 33.0389C21.7083 33.6619 22.2999 34.1181 22.9895 34.2906L24.5541 34.6818C24.599 39.3602 25.4323 43.9601 27.0325 48.3609L27.0915 48.5232C27.5039 49.657 28.4504 50.502 29.6235 50.7835C30.7967 51.0648 32.0234 50.7416 32.9053 49.9185L33.955 48.9387L31.7289 60.8112L32.7354 61L34.4947 51.6171L47.1134 59.772L47.6691 58.912L34.6986 50.5297L35.2179 47.7599L38.5163 44.6815L51.2689 52.9228C50.9138 55.5752 50.8807 58.2738 51.1793 60.9621L52.1971 60.8491C51.5377 54.9146 52.5461 48.9284 55.1132 43.5377L58.5332 36.3555C60.4194 32.3948 61.4163 27.9824 61.4163 23.5953V21.8072C61.4162 17.8217 60.3715 13.8856 58.3952 10.4244ZM26.2995 11.8265L33.5734 13.1444C34.895 13.3839 35.8118 14.6169 35.6608 15.9514L35.1208 20.7212C34.9808 21.9577 33.9777 22.9112 32.7357 22.9883L24.4881 23.5007L24.3746 22.5985C23.9079 18.8904 24.5896 15.1251 26.2995 11.8265ZM57.6087 35.9153L54.1887 43.0974C52.8652 45.8767 51.9432 48.8094 51.4367 51.8121L39.2881 43.9611L44.8696 38.7518C44.9734 38.655 45.0322 38.5194 45.0322 38.3775L45.0322 35.6265L59.7287 29.7054C59.2606 31.8494 58.5491 33.9404 57.6087 35.9153ZM60.3922 23.5953C60.3922 25.2377 60.2476 26.8836 59.9642 28.5065L44.3289 34.8059C44.1351 34.8839 44.0082 35.0719 44.0082 35.2808L44.0082 38.155L32.2065 49.1699C31.5673 49.7666 30.7129 49.9922 29.8624 49.7877C29.012 49.5836 28.3528 48.9952 28.0539 48.1732L27.9949 48.0109C27.2727 46.0248 26.7121 43.9967 26.3124 41.939L31.422 39.5903L30.9944 38.6598L26.1252 40.8979C25.7615 38.7188 25.5762 36.5091 25.5762 34.2815C25.5762 34.0466 25.4163 33.8418 25.1883 33.7848L23.2378 33.2971C22.818 33.1923 22.4721 32.9255 22.2639 32.5461C22.0556 32.1668 22.0163 31.7318 22.1532 31.3212L24.4167 24.5311L32.7992 24.0103C34.538 23.9023 35.9423 22.5676 36.1383 20.8365L36.6783 16.0667C36.8898 14.1983 35.6061 12.4722 33.756 12.1369L26.8259 10.8812C26.9295 10.7072 27.0352 10.5343 27.1449 10.3634L27.4407 9.90241C30.6066 4.96876 35.9955 2.024 41.857 2.024H41.8635L42.408 2.02425C48.5845 2.02638 54.3241 5.35989 57.3869 10.7237L57.5059 10.9322C59.3941 14.2389 60.3922 17.9994 60.3922 21.8072V23.5953Z" fill="#0CB4C4" stroke="#0CB4C4" stroke-width="0.8"></path><path d="M33.5018 17.5355L32.7778 18.2595L33.804 19.2857L34.528 18.5616L33.5018 17.5355Z" fill="#0CB4C4" stroke="#0CB4C4" stroke-width="0.8"></path><path d="M29.5388 13.5723L28.8148 14.2964L31.8595 17.3413L32.5836 16.6172L29.5388 13.5723Z" fill="#0CB4C4" stroke="#0CB4C4" stroke-width="0.8"></path><path d="M48.6163 12.2655C49.9753 12.2655 51.2767 12.5697 52.4845 13.1698L52.9401 12.2528C51.5895 11.5817 50.1348 11.2415 48.6163 11.2415C45.3629 11.2415 42.3387 12.8576 40.5267 15.5645L41.3776 16.1342C42.9992 13.7117 45.7053 12.2655 48.6163 12.2655Z" fill="#0CB4C4" stroke="#0CB4C4" stroke-width="0.8"></path><path d="M48.6163 29.6736C43.8169 29.6736 39.9122 25.769 39.9122 20.9696C39.9122 19.9737 40.0788 18.9976 40.4073 18.0682L39.4418 17.7269C39.0745 18.7662 38.8882 19.8572 38.8882 20.9696C38.8882 26.3336 43.2522 30.6976 48.6163 30.6976C50.1346 30.6976 51.5894 30.3572 52.9401 29.6861L52.4845 28.7691C51.2766 29.3692 49.9751 29.6736 48.6163 29.6736Z" fill="#0CB4C4" stroke="#0CB4C4" stroke-width="0.8"></path><path d="M54.7313 13.4032L54.0872 14.1992C56.1419 15.8618 57.3203 18.3295 57.3203 20.9694C57.3203 23.4421 56.2627 25.8067 54.4188 27.4571L55.1017 28.2201C57.1624 26.3758 58.3443 23.733 58.3443 20.9694C58.3443 18.019 57.0274 15.2612 54.7313 13.4032Z" fill="#0CB4C4" stroke="#0CB4C4" stroke-width="0.8"></path><path d="M48.6163 13.2894V14.3134C52.2864 14.3134 55.2723 17.2993 55.2723 20.9695C55.2723 24.6396 52.2864 27.6255 48.6163 27.6255C47.2469 27.6255 45.9318 27.213 44.8131 26.4327L44.2272 27.2725C45.5187 28.1734 47.0364 28.6495 48.6163 28.6495C52.851 28.6495 56.2963 25.2042 56.2963 20.9695C56.2963 16.7347 52.851 13.2894 48.6163 13.2894Z" fill="#0CB4C4" stroke="#0CB4C4" stroke-width="0.8"></path><path d="M46.7142 14.5889L46.4221 13.6074C43.1921 14.5688 40.9362 17.5962 40.9362 20.9695C40.9362 22.5493 41.4123 24.067 42.3131 25.3583L43.153 24.7726C42.3727 23.6538 41.9602 22.3387 41.9602 20.9695C41.9602 18.0458 43.9152 15.4221 46.7142 14.5889Z" fill="#0CB4C4" stroke="#0CB4C4" stroke-width="0.8"></path><path d="M48.6162 26.6015C50.8559 26.6015 52.8825 25.2751 53.7794 23.2225L52.841 22.8125C52.1071 24.4921 50.4488 25.5775 48.6162 25.5775C46.0754 25.5775 44.0082 23.5104 44.0082 20.9695H42.9842C42.9842 24.075 45.5107 26.6015 48.6162 26.6015Z" fill="#0CB4C4" stroke="#0CB4C4" stroke-width="0.8"></path><path d="M48.6163 15.3374C46.3766 15.3374 44.3499 16.6638 43.4531 18.7164L44.3914 19.1264C45.1253 17.4468 46.7836 16.3614 48.6163 16.3614C51.1572 16.3614 53.2243 18.4285 53.2243 20.9694H54.2483C54.2483 17.8639 51.7218 15.3374 48.6163 15.3374Z" fill="#0CB4C4" stroke="#0CB4C4" stroke-width="0.8"></path><path d="M51.1763 20.9694C51.1763 19.5578 50.0278 18.4094 48.6163 18.4094C47.2047 18.4094 46.0562 19.5578 46.0562 20.9694C46.0562 22.3811 47.2047 23.5294 48.6163 23.5294C50.0278 23.5294 51.1763 22.3811 51.1763 20.9694ZM47.0802 20.9694C47.0802 20.1224 47.7693 19.4334 48.6163 19.4334C49.4632 19.4334 50.1523 20.1224 50.1523 20.9694C50.1523 21.8164 49.4632 22.5054 48.6163 22.5054C47.7693 22.5054 47.0802 21.8164 47.0802 20.9694Z" fill="#0CB4C4" stroke="#0CB4C4" stroke-width="0.8"></path><path d="M18.1339 11.6899L19.582 13.1381C19.6781 13.2341 19.8083 13.2881 19.9441 13.2881H23.0161V12.2641H20.1561L18.858 10.9659C18.3744 10.4823 17.7316 10.2161 17.0477 10.2161H15.6724C14.9886 10.2161 14.3457 10.4823 13.8621 10.9659L12.564 12.2641H6.63202V13.2881H12.776C12.9119 13.2881 13.042 13.2341 13.1381 13.1381L14.5862 11.6899C14.8764 11.3998 15.2621 11.2401 15.6724 11.2401H16.66L14.462 13.4381C14.3062 13.5938 14.2676 13.832 14.3661 14.0291C14.6807 14.6583 15.2594 15.0838 15.9539 15.1965C16.5166 15.2881 17.0719 15.1601 17.527 14.844C17.7487 15.634 18.2204 16.3302 18.8776 16.8328L16.6821 17.9306C16.1904 18.1767 15.6007 18.1397 15.1432 17.8348L13.06 16.4461C12.9759 16.39 12.8771 16.3601 12.776 16.3601H6.63202V17.3841H12.621L14.5752 18.6868C15.0022 18.9715 15.4983 19.116 15.9962 19.116C16.3873 19.116 16.7794 19.0268 17.1401 18.8466L20.0649 17.3841H21.9921V16.3601H20.0649L19.9568 16.306C19.0015 15.8285 18.4081 14.8682 18.4081 13.8001C18.4081 13.593 18.2833 13.4063 18.092 13.3271C17.9004 13.2477 17.6805 13.2916 17.5341 13.438L17.1051 13.867C16.8432 14.1288 16.4833 14.2446 16.1179 14.1857C15.8724 14.1458 15.6544 14.0317 15.4874 13.8608L17.8691 11.4791C17.9636 11.5391 18.0528 11.6089 18.1339 11.6899Z" fill="#0CB4C4" stroke="#0CB4C4" stroke-width="0.8"></path><path d="M29.6721 55.2722H2.024V7.144H27.1121V6.12H1.512C1.22925 6.12 1 6.34925 1 6.632V55.7842C1 56.067 1.22925 56.2962 1.512 56.2962H30.1841C30.4669 56.2962 30.6961 56.067 30.6961 55.7842V52.7122H29.6721V55.2722Z" fill="#0CB4C4" stroke="#0CB4C4" stroke-width="0.8"></path><path d="M21.9921 22.5042H9.70404V23.5282H21.9921V22.5042Z" fill="#0CB4C4" stroke="#0CB4C4" stroke-width="0.8"></path><path d="M20.9681 26.6001H4.58401V27.6241H20.9681V26.6001Z" fill="#0CB4C4" stroke="#0CB4C4" stroke-width="0.8"></path><path d="M19.9441 30.6962H4.58401V31.7202H19.9441V30.6962Z" fill="#0CB4C4" stroke="#0CB4C4" stroke-width="0.8"></path><path d="M21.9921 34.7921H4.58401V35.8161H21.9921V34.7921Z" fill="#0CB4C4" stroke="#0CB4C4" stroke-width="0.8"></path><path d="M23.0161 38.8882H4.58401V39.9122H23.0161V38.8882Z" fill="#0CB4C4" stroke="#0CB4C4" stroke-width="0.8"></path><path d="M24.0401 42.9841H4.58401V44.0081H24.0401V42.9841Z" fill="#0CB4C4" stroke="#0CB4C4" stroke-width="0.8"></path><path d="M12.776 49.1282H6.63202V50.1522H12.776V49.1282Z" fill="#0CB4C4" stroke="#0CB4C4" stroke-width="0.8"></path><path d="M11.7521 51.1763H7.65604V52.2003H11.7521V51.1763Z" fill="#0CB4C4" stroke="#0CB4C4" stroke-width="0.8"></path><path d="M25.0641 49.1282H18.9201V50.1522H25.0641V49.1282Z" fill="#0CB4C4" stroke="#0CB4C4" stroke-width="0.8"></path><path d="M24.0401 51.1763H19.9441V52.2003H24.0401V51.1763Z" fill="#0CB4C4" stroke="#0CB4C4" stroke-width="0.8"></path></svg>