<svg width="61" height="62" viewBox="0 0 61 62" fill="none" xmlns="http://www.w3.org/2000/svg"><path fill-rule="evenodd" clip-rule="evenodd" d="M28.7684 11.9034L25.7606 10.3826L22.7528 11.9034L25.7606 13.4242L28.7684 11.9034ZM26.4481 14.6117L29.5992 13.018V16.7055L26.4481 18.4008V14.6117ZM21.922 13.018L25.0731 14.6117V18.4008L21.922 16.7055V13.018ZM30.5494 11.268C30.7968 11.3722 30.9738 11.617 30.9738 11.9034V17.1144C30.9738 17.393 30.8098 17.6326 30.5702 17.7394L26.1275 20.13C25.8853 20.2706 25.6405 20.2706 25.3983 20.13L20.9139 17.7159C20.6847 17.5935 20.5545 17.3565 20.5545 17.1117H20.5519V11.9008C20.5519 11.6143 20.7264 11.3695 20.9764 11.2654L25.4556 8.99978C25.6587 8.89822 25.8879 8.90603 26.0754 8.99978L30.5546 11.2654L30.5494 11.268ZM50.6301 43.2967C48.2993 40.966 44.5155 40.966 42.1847 43.2967C39.854 45.6275 39.854 49.4113 42.1847 51.7421C44.5155 54.0728 48.2993 54.0728 50.6301 51.7421C52.9608 49.4113 52.9608 45.6275 50.6301 43.2967ZM46.4061 40.1743C50.4634 40.1743 53.7528 43.4634 53.7528 47.521C53.7528 51.5786 50.4637 54.8677 46.4061 54.8677C42.3488 54.8677 39.0594 51.5786 39.0594 47.521C39.0594 43.4634 42.3485 40.1743 46.4061 40.1743ZM38.1121 56.3463L36.823 55.0573L38.6746 53.2057C38.9142 52.9661 38.9402 52.5964 38.7527 52.3281C38.2293 51.5365 37.7918 50.4297 37.5834 49.5026C37.5131 49.1823 37.2293 48.9661 36.9142 48.9661V48.9635H34.297V46.0729H36.9142C37.2631 46.0729 37.5496 45.8125 37.5938 45.4766C37.7058 44.9922 37.8595 44.5182 38.0496 44.0599C38.2475 43.5807 38.4871 43.1224 38.7657 42.6849C38.9402 42.4089 38.8933 42.0547 38.672 41.8308L36.8204 39.9792L38.8647 37.935L40.7162 39.7865C40.9558 40.0261 41.3256 40.0521 41.5938 39.8646C42.3855 39.3412 43.4923 38.9037 44.4194 38.6954C44.7397 38.625 44.9558 38.3412 44.9558 38.0261H44.9584V35.4089H47.849V38.0261C47.849 38.375 48.1094 38.6615 48.4454 38.7058C48.9298 38.8177 49.4037 38.9714 49.8621 39.1615C50.3412 39.3594 50.7995 39.599 51.2371 39.8776C51.5131 40.0521 51.8673 40.0052 52.0912 39.7839L53.9427 37.9323L55.987 39.9766L54.1355 41.8281C53.8959 42.0677 53.8698 42.4375 54.0573 42.7057C54.5808 43.4974 55.0183 44.6042 55.2266 45.5313C55.2969 45.8516 55.5808 46.0677 55.8959 46.0677V46.0703H58.5131V48.9609H55.8959C55.5469 48.9609 55.2604 49.2214 55.2162 49.5573C55.1042 50.0417 54.9506 50.5156 54.7605 50.974C54.5626 51.4531 54.323 51.9114 54.0443 52.349C53.8699 52.625 53.9167 52.9792 54.1381 53.2031L55.9896 55.0546L53.9453 57.0989L52.0938 55.2474C51.8542 55.0078 51.4844 54.9817 51.2162 55.1692C50.4245 55.6927 49.3177 56.1302 48.3907 56.3385C48.0704 56.4088 47.8542 56.6927 47.8542 57.0078H47.8516V59.625H44.961V57.0078C44.961 56.6588 44.7006 56.3724 44.3647 56.3281C43.8803 56.2161 43.4063 56.0625 42.948 55.8724C42.4688 55.6745 42.0105 55.4349 41.573 55.1563C41.2969 54.9818 40.9428 55.0286 40.7188 55.25L38.8673 57.1015L38.1121 56.3463ZM40.4662 30.987L26.7109 31.013L21.6874 25.5495C21.5624 25.3932 21.3697 25.2943 21.1536 25.2943H11.0496L11.0548 7.10958H40.4715V30.9843L40.4662 30.987ZM41.2162 32.3542L44.4949 32.349V34.0417H44.2736C43.8934 34.0417 43.5861 34.349 43.5861 34.7292V37.5026C42.7866 37.7266 42.0288 38.0417 41.3126 38.4428L39.3543 36.4844C39.0861 36.2162 38.6512 36.2162 38.383 36.4844L35.3674 39.5C35.0991 39.7683 35.0991 40.2032 35.3674 40.4714L37.3257 42.4297C36.9246 43.1458 36.6096 43.9062 36.3856 44.7032H33.6121C33.2319 44.7032 32.9246 45.0105 32.9246 45.3906V49.6537C32.9246 50.0339 33.2319 50.3411 33.6121 50.3411H36.3856C36.6095 51.138 36.9246 51.8984 37.3257 52.6146L35.3674 54.5729C35.0991 54.8412 35.0991 55.2761 35.3674 55.5443L35.9767 56.1536H3.79202C3.00815 56.1536 2.37275 55.5078 2.37275 54.7188V28.1014C2.37275 27.3123 3.00557 26.6665 3.79202 26.6665H20.86L25.9095 32.1587C26.0553 32.3176 26.2585 32.3905 26.4564 32.3775L41.2197 32.3514L41.2162 32.3542ZM30.0809 5.73681H10.3675C9.98733 5.73681 9.68007 6.0441 9.68007 6.42427V25.2943H6.4014V2.37494H30.0788V5.73694L30.0809 5.73681ZM5.02887 25.2942V1.68747C5.02887 1.30726 5.33616 1 5.71634 1H30.7684C31.1486 1 31.4558 1.30729 31.4558 1.68747V5.73694H41.1592C41.5394 5.73694 41.8467 6.04423 41.8467 6.42441V30.9844L45.1878 30.9792C45.5654 30.9792 45.8727 31.2865 45.8727 31.6641H45.8753V34.0417H48.5445C48.9247 34.0417 49.232 34.349 49.232 34.7292V37.5026C50.0289 37.7266 50.7893 38.0417 51.5055 38.4428L53.4638 36.4818C53.732 36.2136 54.1669 36.2136 54.4351 36.4818L57.4507 39.4974C57.719 39.7657 57.719 40.2006 57.4507 40.4688L55.4924 42.4271C55.8934 43.1432 56.2085 43.9036 56.4325 44.7006H59.206C59.5862 44.7006 59.8935 45.0079 59.8935 45.388V49.6511C59.8935 50.0313 59.5862 50.3385 59.206 50.3385H56.4325C56.2086 51.1354 55.8935 51.8958 55.4924 52.612L57.4507 54.5703C57.719 54.8386 57.719 55.2735 57.4507 55.5417L54.4351 58.5573C54.1669 58.8255 53.732 58.8255 53.4638 58.5573L51.5055 56.5989C50.7893 57.0026 50.0289 57.3151 49.232 57.5391V60.3125C49.232 60.6927 48.9247 61 48.5445 61H44.2815C43.9013 61 43.5941 60.6927 43.5941 60.3125V57.5391C42.7972 57.3151 42.0368 57 41.3206 56.5989L39.3622 58.5573C39.094 58.8255 38.6591 58.8255 38.3909 58.5573L37.357 57.5234L3.79167 57.5286C2.2526 57.5286 1 56.2578 1 54.7213V28.104C1 26.5675 2.2552 25.2967 3.79167 25.2967H5.02607L5.02887 25.2942ZM21.8856 48.0909H6.19554V52.0961H21.8829V48.0909H21.8856ZM5.51087 46.7159C5.13066 46.7159 4.8234 47.0232 4.8234 47.4033V52.7835C4.8234 53.1637 5.13069 53.471 5.51087 53.471H22.5736C22.9538 53.471 23.261 53.1637 23.261 52.7835V47.4033C23.261 47.0231 22.9537 46.7159 22.5736 46.7159H5.5082H5.51087ZM16.1909 23.4838H35.3396C35.7198 23.4838 36.027 23.1765 36.027 22.7964C36.027 22.4162 35.7197 22.1089 35.3396 22.1089H16.1909C15.8107 22.1089 15.5034 22.4162 15.5034 22.7964C15.5034 23.1766 15.8107 23.4838 16.1909 23.4838ZM26.1829 27.8901H35.3389C35.7191 27.8901 36.0264 27.5828 36.0264 27.2026C36.0264 26.8224 35.7191 26.5152 35.3389 26.5152H26.1829C25.8027 26.5152 25.4954 26.8225 25.4954 27.2026C25.4954 27.5828 25.8027 27.8901 26.1829 27.8901Z" fill="#0CB4C4" stroke="#0CB4C4" stroke-width="0.6"></path></svg>