<svg xmlns="http://www.w3.org/2000/svg" xmlns:xlink="http://www.w3.org/1999/xlink" version="1.1" id="Layer_1" x="0px" y="0px" width="49.592px" height="50px" viewBox="0 0 49.592 50" enable-background="new 0 0 49.592 50" xml:space="preserve"><g><path fill="#0CB4C4" d="M48.779,50H0.813C0.364,50,0,49.636,0,49.187v-4.065c0-0.449,0.364-0.813,0.813-0.813h47.966 c0.449,0,0.813,0.364,0.813,0.813v4.065C49.592,49.636,49.228,50,48.779,50z M1.626,48.374h46.34v-2.439H1.626V48.374z"></path><path fill="#0CB4C4" d="M48.779,18.7H0.813C0.364,18.7,0,18.336,0,17.887v-4.065c0-0.449,0.364-0.813,0.813-0.813h47.966 c0.449,0,0.813,0.364,0.813,0.813v4.065C49.592,18.336,49.228,18.7,48.779,18.7z M1.626,17.074h46.34v-2.439H1.626V17.074z"></path><path fill="#0CB4C4" d="M45.686,14.635H3.906c-0.746,0.012-1.401-0.495-1.577-1.219c-0.181-0.703,0.145-1.439,0.789-1.776 L24.39,0.099c0.242-0.132,0.534-0.132,0.776,0l21.292,11.549c0.648,0.33,0.983,1.063,0.809,1.768 C47.09,14.142,46.433,14.649,45.686,14.635z M24.796,1.741L3.984,13.009h41.589L24.796,1.741z"></path><path fill="#0CB4C4" d="M28.048,42.683h-6.097c-0.449,0-0.813-0.364-0.813-0.813V21.545c0-0.449,0.364-0.813,0.813-0.813h6.097 c0.449,0,0.813,0.364,0.813,0.813V41.87C28.861,42.319,28.497,42.683,28.048,42.683z M22.764,41.057h4.471V22.358h-4.471V41.057z"></path><path fill="#0CB4C4" d="M42.275,42.683h-6.097c-0.449,0-0.813-0.364-0.813-0.813V21.545c0-0.449,0.364-0.813,0.813-0.813h6.097 c0.449,0,0.813,0.364,0.813,0.813V41.87C43.088,42.319,42.724,42.683,42.275,42.683z M36.991,41.057h4.471V22.358h-4.471V41.057z"></path><path fill="#0CB4C4" d="M13.414,42.683H7.317c-0.449,0-0.813-0.364-0.813-0.813V21.545c0-0.449,0.364-0.813,0.813-0.813h6.097 c0.449,0,0.813,0.364,0.813,0.813V41.87C14.227,42.319,13.863,42.683,13.414,42.683z M8.13,41.057h4.471V22.358H8.13V41.057z"></path><path fill="#0CB4C4" d="M24.796,10.976c-1.796,0-3.252-1.456-3.252-3.252S23,4.473,24.796,4.473c1.796,0,3.252,1.456,3.252,3.252 S26.592,10.976,24.796,10.976z M24.796,6.099c-0.898,0-1.626,0.728-1.626,1.626s0.728,1.626,1.626,1.626 c0.898,0,1.626-0.728,1.626-1.626S25.694,6.099,24.796,6.099z"></path></g></svg>