<svg xmlns="http://www.w3.org/2000/svg" xmlns:xlink="http://www.w3.org/1999/xlink" version="1.1" id="Layer_1" x="0px" y="0px" width="46.296px" height="50px" viewBox="0 0 46.296 50" enable-background="new 0 0 46.296 50" xml:space="preserve"><g><path fill="#0CB4C4" d="M41.667,3.704h-1.852v1.852h1.852c1.534,0,2.778,1.244,2.778,2.778v25H1.852v-25 c0-1.534,1.244-2.778,2.778-2.778h1.852V3.704H4.63C2.073,3.704,0,5.776,0,8.333v29.63c0,2.557,2.073,4.63,4.63,4.63h12.037v5.556 h-4.63V50h22.222v-1.852h-4.63v-5.556h12.037c2.557,0,4.63-2.073,4.63-4.63V8.333C46.296,5.776,44.224,3.704,41.667,3.704z M27.778,48.148h-9.259v-5.556h9.259V48.148z M41.667,40.741H4.63c-1.534,0-2.778-1.244-2.778-2.778v-2.778h42.593v2.778 C44.444,39.497,43.201,40.741,41.667,40.741z M24.074,7.407h3.704v1.852H20.37v3.704h6.481c0.511,0,0.926,0.415,0.926,0.926v5.556 c0,0.511-0.415,0.926-0.926,0.926h-2.778v2.778h-1.852V20.37h-3.704v-1.852h7.407v-3.704h-6.481c-0.511,0-0.926-0.415-0.926-0.926 V8.333c0-0.511,0.415-0.926,0.926-0.926h2.778V4.63h1.852V7.407z M34.259,27.778h3.704v-1.852h-2.778V4.63 c0-2.557-2.073-4.63-4.63-4.63H15.741c-2.557,0-4.63,2.073-4.63,4.63v21.296H8.333v1.852H34.259z M12.963,4.63 c0-1.534,1.244-2.778,2.778-2.778h14.815c1.534,0,2.778,1.244,2.778,2.778v21.296h-20.37V4.63z"></path></g></svg>