<svg xmlns="http://www.w3.org/2000/svg" xmlns:xlink="http://www.w3.org/1999/xlink" version="1.1" id="Layer_1" x="0px" y="0px" width="45.405px" height="50px" viewBox="0 0 45.405 50" enable-background="new 0 0 45.405 50" xml:space="preserve"><g><g><rect x="7.219" y="3.081" fill="#0CB4C4" width="12.6" height="1.112"></rect><path fill="#0CB4C4" d="M20.067,4.441H6.972V2.833h13.095V4.441z M7.467,3.946h12.105V3.328H7.467V3.946z"></path></g><g><rect x="11.265" y="46.063" fill="#0CB4C4" width="4.508" height="1.112"></rect><path fill="#0CB4C4" d="M16.02,47.422h-5.003v-1.607h5.003V47.422z M11.513,46.927h4.013V46.31h-4.013V46.927z"></path></g><g><path fill="#0CB4C4" d="M43.428,19.783h-2.475v-3.655c-0.001-1.128-0.626-2.163-1.624-2.689v-1.382 c-0.002-1.369-1.111-2.479-2.481-2.481H26.791V5.154c-0.003-2.708-2.198-4.903-4.906-4.906H5.154 C2.446,0.251,0.251,2.445,0.248,5.154v39.693c0.003,2.708,2.198,4.903,4.906,4.906h16.732c2.708-0.003,4.903-2.198,4.906-4.906 v-5.863H37.91c1.681-0.003,3.042-1.367,3.043-3.048v-3.649h2.475c0.953,0,1.727-0.771,1.73-1.724v-9.056 C45.155,20.553,44.382,19.782,43.428,19.783z M38.216,12.057v1.029H9.976v-0.868c0.001-0.844,0.685-1.529,1.53-1.53h25.342 C37.604,10.689,38.216,11.301,38.216,12.057z M5.154,1.36h16.732c2.094,0.002,3.791,1.699,3.793,3.793v0.533H1.36V5.154 C1.363,3.059,3.06,1.362,5.154,1.36z M21.885,48.64H5.154c-2.094-0.002-3.791-1.699-3.794-3.794v-0.484h24.319v0.484 C25.677,46.941,23.98,48.638,21.885,48.64z M25.679,43.25H1.36V6.799h24.319v2.777H11.506c-1.459,0.002-2.64,1.184-2.642,2.642 v0.989c-1.302,0.375-2.2,1.566-2.203,2.921v19.808c0.002,1.683,1.366,3.046,3.048,3.048h15.97L25.679,43.25z M39.841,35.936 c0,1.067-0.863,1.933-1.93,1.935H9.709c-1.069-0.001-1.935-0.867-1.936-1.935V16.128c0.003-1.067,0.869-1.93,1.936-1.93H37.91 c1.065,0.001,1.929,0.865,1.93,1.93v3.655h-8.7c-2.281,0.003-4.13,1.851-4.133,4.133v4.239c0.003,2.281,1.851,4.13,4.133,4.133 h8.7L39.841,35.936z M44.046,30.563c-0.002,0.339-0.278,0.613-0.618,0.612H31.141c-1.667-0.002-3.018-1.353-3.02-3.02v-4.239 c0.002-1.667,1.353-3.018,3.02-3.02h12.287c0.339-0.001,0.616,0.272,0.618,0.612L44.046,30.563z"></path><path fill="#0CB4C4" d="M21.886,50H5.154C2.315,49.997,0.003,47.685,0,44.846V5.154C0.003,2.315,2.315,0.003,5.154,0h16.732 c2.839,0.003,5.151,2.315,5.154,5.154v4.175h9.809c1.503,0.001,2.727,1.224,2.729,2.728v1.238 c1.005,0.589,1.622,1.661,1.623,2.834v3.407h2.228c1.088,0,1.975,0.884,1.977,1.971v9.057c-0.002,1.087-0.889,1.971-1.975,1.971 l0,0H41.2v3.402c0,1.813-1.475,3.292-3.289,3.296H27.039v5.615C27.036,47.685,24.724,49.997,21.886,50z M5.154,0.495 C2.587,0.498,0.498,2.587,0.495,5.154v39.693c0.003,2.566,2.092,4.656,4.658,4.658h16.732c2.566-0.003,4.656-2.092,4.658-4.658 v-6.11H37.91c1.541-0.004,2.795-1.26,2.795-2.801v-3.897h2.723c0.816,0,1.48-0.662,1.482-1.477v-9.055 c-0.002-0.814-0.666-1.476-1.482-1.476h-2.723v-3.902c-0.001-1.039-0.572-1.986-1.491-2.47l-0.132-0.07v-1.532 c-0.002-1.23-1.004-2.232-2.234-2.233H26.544v-4.67c-0.003-2.566-2.092-4.656-4.658-4.658H5.154z M21.886,48.888H5.154 c-2.226-0.003-4.039-1.816-4.041-4.042v-0.732h24.813v0.732C25.924,47.072,24.111,48.885,21.886,48.888z M1.608,44.61v0.237 C1.61,46.8,3.2,48.39,5.154,48.393h16.732c1.953-0.003,3.544-1.593,3.546-3.547V44.61H1.608z M25.926,43.498H1.113V6.551h24.813 v3.273h-14.42c-1.319,0.001-2.393,1.075-2.395,2.394v1.175l-0.179,0.052c-1.189,0.343-2.021,1.447-2.024,2.684v19.807 c0.002,1.542,1.259,2.799,2.801,2.801h16.217V43.498z M1.608,43.003h23.823v-3.771H9.71c-1.816-0.002-3.294-1.48-3.296-3.296 V16.128c0.003-1.393,0.899-2.643,2.203-3.102v-0.808c0.002-1.592,1.299-2.888,2.89-2.889h13.925V7.046H1.608V43.003z M37.911,38.119H9.71c-1.203-0.001-2.182-0.98-2.183-2.183V16.128c0.003-1.201,0.982-2.177,2.183-2.177h28.2 c1.199,0.001,2.176,0.978,2.178,2.177v3.902h-8.948c-2.14,0.003-3.882,1.745-3.885,3.885v4.239 c0.003,2.14,1.745,3.882,3.885,3.885h8.948v3.897C40.088,37.136,39.112,38.116,37.911,38.119z M9.71,14.445 c-0.928,0-1.685,0.755-1.688,1.683v19.807c0.001,0.93,0.758,1.687,1.688,1.688h28.2c0.928-0.003,1.683-0.76,1.683-1.688v-3.402 h-8.453c-2.412-0.003-4.377-1.968-4.38-4.38v-4.239c0.003-2.412,1.968-4.377,4.38-4.38h8.453v-3.407 c-0.002-0.926-0.757-1.681-1.683-1.682H9.71z M43.43,31.422H31.141c-1.799-0.002-3.265-1.468-3.267-3.268v-4.239 c0.002-1.799,1.468-3.265,3.267-3.267h12.287c0.476,0,0.862,0.385,0.865,0.858v9.057C44.29,31.037,43.904,31.422,43.43,31.422z M31.141,21.143c-1.527,0.002-2.77,1.245-2.772,2.772v4.239c0.002,1.527,1.245,2.771,2.772,2.773h12.287 c0.204,0,0.369-0.164,0.37-0.365v-9.055c-0.001-0.2-0.165-0.364-0.366-0.364H31.141z M38.464,13.333H9.729v-1.116 c0.001-0.978,0.799-1.776,1.777-1.777h25.342c0.89,0.001,1.615,0.726,1.616,1.616V13.333z M10.224,12.838h27.745v-0.782 c-0.001-0.617-0.504-1.12-1.121-1.121H11.506c-0.706,0.001-1.281,0.576-1.282,1.282V12.838z M25.926,5.934H1.113v-0.78 c0.002-2.226,1.815-4.039,4.041-4.041h16.732c2.226,0.002,4.039,1.815,4.041,4.041V5.934z M1.608,5.439h23.823V5.154 C25.429,3.2,23.839,1.61,21.886,1.608H5.154C3.2,1.61,1.61,3.2,1.608,5.154V5.439z"></path></g><g><path fill="#0CB4C4" d="M34.718,22.38c-2.018,0-3.654,1.636-3.654,3.654c0,2.018,1.636,3.654,3.654,3.654 c2.018,0,3.654-1.636,3.654-3.654C38.37,24.018,36.735,22.383,34.718,22.38z M34.718,28.577c-1.404,0-2.542-1.138-2.542-2.542 c0-1.404,1.138-2.542,2.542-2.542c1.404,0,2.542,1.138,2.542,2.542c0,0,0,0,0,0C37.258,27.438,36.121,28.575,34.718,28.577 L34.718,28.577z"></path><path fill="#0CB4C4" d="M34.717,29.937c-2.151,0-3.901-1.751-3.901-3.902s1.75-3.901,3.901-3.901 c2.149,0.002,3.9,1.752,3.902,3.901C38.62,28.186,36.869,29.937,34.717,29.937z M34.717,22.628c-1.879,0-3.406,1.528-3.406,3.406 s1.528,3.407,3.406,3.407s3.407-1.529,3.407-3.407C38.123,24.158,36.594,22.63,34.717,22.628z M34.717,28.824 c-1.537,0-2.789-1.251-2.789-2.789s1.251-2.789,2.789-2.789c1.538,0,2.789,1.251,2.789,2.789 C37.506,27.572,36.255,28.823,34.717,28.824z M34.717,23.74c-1.265,0-2.293,1.03-2.293,2.294c0,1.265,1.029,2.294,2.293,2.294 c1.264-0.001,2.293-1.031,2.294-2.294C37.012,24.77,35.982,23.74,34.717,23.74z"></path></g></g></svg>