<svg xmlns="http://www.w3.org/2000/svg" xmlns:xlink="http://www.w3.org/1999/xlink" version="1.1" id="Layer_1" x="0px" y="0px" width="60px" height="60px" viewBox="0 0 60 60" enable-background="new 0 0 60 60" xml:space="preserve"><g><path fill="#0CB4C4" d="M33.07,11.312l-9.737,9.738c-0.366,0.365-0.366,0.959-0.001,1.325c0.001,0,0.001,0,0.001,0l14.283,14.284 c0.366,0.365,0.959,0.365,1.325,0l0,0l9.738-9.738c0.366-0.366,0.366-0.959,0.001-1.326c-0.001,0-0.001,0-0.001-0.001 L34.396,11.312c-0.366-0.367-0.959-0.367-1.325-0.001C33.071,11.311,33.071,11.311,33.07,11.312z M46.693,26.241l-8.436,8.436 L25.315,21.709l8.435-8.411L46.693,26.241z"></path><path fill="#0CB4C4" d="M22.358,29.193c0.366,0.367,0.96,0.367,1.326,0c0.366-0.366,0.366-0.96,0-1.326l-2.587-2.596 c-0.384-0.348-0.977-0.32-1.324,0.063c-0.323,0.357-0.326,0.901-0.001,1.259L22.358,29.193z"></path><path fill="#0CB4C4" d="M19.11,32.437c0.176,0.178,0.415,0.277,0.665,0.277c0.52-0.003,0.937-0.424,0.934-0.941 c-0.001-0.246-0.099-0.482-0.272-0.657l-2.596-2.601c-0.366-0.366-0.961-0.366-1.327,0s-0.366,0.96,0,1.326l0,0L19.11,32.437z"></path><path fill="#0CB4C4" d="M28.539,34.987c0.249,0,0.489-0.102,0.665-0.277c0.364-0.365,0.364-0.957,0-1.322l-2.601-2.601 c-0.384-0.347-0.976-0.317-1.322,0.067c-0.325,0.358-0.322,0.903,0.001,1.259l2.596,2.597 C28.054,34.886,28.29,34.983,28.539,34.987z"></path><path fill="#0CB4C4" d="M22.035,34.034c-0.366,0.367-0.366,0.959,0,1.326l0,0l2.597,2.598c0.366,0.365,0.959,0.365,1.325,0 c0.366-0.367,0.366-0.961,0-1.326l-2.597-2.598C22.995,33.669,22.4,33.669,22.035,34.034L22.035,34.034z"></path><path fill="#0CB4C4" d="M32.125,36.308c-0.366-0.367-0.961-0.367-1.327,0c-0.367,0.365-0.367,0.959,0,1.326l2.601,2.596 c0.369,0.365,0.964,0.363,1.328-0.008c0.366-0.369,0.362-0.963-0.006-1.328L32.125,36.308z"></path><path fill="#0CB4C4" d="M28.876,39.556c-0.348-0.383-0.939-0.412-1.323-0.063c-0.383,0.348-0.412,0.939-0.063,1.322 c0.021,0.023,0.043,0.047,0.066,0.066l2.596,2.596c0.176,0.174,0.414,0.271,0.66,0.271c0.518-0.012,0.928-0.441,0.915-0.959 c-0.005-0.229-0.093-0.447-0.249-0.615L28.876,39.556z"></path><path fill="#0CB4C4" d="M15.867,35.685c0.176,0.176,0.412,0.275,0.661,0.275c0.518,0.004,0.939-0.412,0.942-0.932 c0.002-0.252-0.098-0.492-0.276-0.67l-2.602-2.596c-0.349-0.384-0.94-0.412-1.324-0.063c-0.382,0.349-0.411,0.94-0.062,1.324 c0.02,0.022,0.041,0.044,0.064,0.064L15.867,35.685z"></path><path fill="#0CB4C4" d="M12.621,38.931c0.366,0.367,0.959,0.367,1.325,0c0.366-0.365,0.366-0.959,0-1.324l-2.596-2.598 c-0.367-0.365-0.96-0.365-1.326,0s-0.366,0.961,0,1.328L12.621,38.931z"></path><path fill="#0CB4C4" d="M22.035,41.476c0.247,0,0.485-0.096,0.661-0.271c0.366-0.365,0.366-0.959,0-1.324v-0.002l-2.582-2.596 c-0.366-0.365-0.961-0.365-1.327,0s-0.366,0.961,0,1.326l2.596,2.596C21.557,41.376,21.791,41.474,22.035,41.476z"></path><path fill="#0CB4C4" d="M15.54,40.53c-0.363,0.365-0.363,0.955,0,1.32l2.601,2.602c0.37,0.365,0.965,0.361,1.331-0.01 c0.364-0.369,0.36-0.965-0.01-1.33l0,0L16.88,40.53c-0.361-0.371-0.955-0.377-1.325-0.016C15.55,40.521,15.545,40.524,15.54,40.53z "></path><path fill="#0CB4C4" d="M25.634,42.798c-0.366-0.367-0.961-0.367-1.327,0s-0.366,0.961,0,1.326l2.598,2.596 c0.366,0.367,0.959,0.367,1.325,0.002c0-0.002,0-0.002,0-0.002c0.363-0.365,0.363-0.955,0-1.32L25.634,42.798z"></path><path fill="#0CB4C4" d="M22.386,46.046c-0.365-0.367-0.959-0.367-1.325,0c-0.367,0.365-0.367,0.959,0,1.324l2.595,2.598 c0.177,0.178,0.416,0.275,0.666,0.275c0.518,0.002,0.938-0.418,0.938-0.936c0-0.25-0.099-0.49-0.275-0.666L22.386,46.046z"></path><path fill="#0CB4C4" d="M8.104,38.257c-0.384-0.348-0.977-0.318-1.324,0.063c-0.325,0.357-0.326,0.902-0.003,1.258l13.638,13.639 c0.347,0.383,0.939,0.41,1.323,0.061c0.383-0.348,0.411-0.939,0.063-1.322c-0.021-0.023-0.043-0.045-0.066-0.066L8.104,38.257z"></path><path fill="#0CB4C4" d="M52.874,31.115l-19.804,19.8c-0.366,0.365-0.366,0.959,0,1.324c0.367,0.367,0.96,0.367,1.326,0l0,0 l19.805-19.803c0.346-0.385,0.315-0.977-0.068-1.323C53.776,30.79,53.23,30.791,52.874,31.115z"></path><path fill="#0CB4C4" d="M59.717,15.856c-0.126-0.116-0.272-0.207-0.433-0.267l-2.75-0.469l-0.506-2.647 c-0.075-0.364-0.358-0.648-0.722-0.726l-2.672-0.501l-0.501-2.647c-0.072-0.379-0.37-0.675-0.75-0.745l-2.638-0.501L48.24,4.685 c-0.073-0.378-0.368-0.673-0.747-0.745l-2.646-0.482l-0.44-2.644c-0.039-0.201-0.132-0.388-0.271-0.539 c-0.366-0.366-0.96-0.367-1.326-0.001c-0.001,0-0.001,0.001-0.002,0.001l-0.042,0.042l0,0l-6.434,6.434l-1.611-1.598 c-0.365-0.364-0.956-0.364-1.322,0L0.286,38.257c-0.363,0.367-0.363,0.955,0,1.32l20.128,20.15c0.365,0.363,0.954,0.363,1.32,0 l33.104-33.135c0.363-0.366,0.363-0.956,0-1.322l-1.607-1.612l6.477-6.476C60.075,16.819,60.08,16.227,59.717,15.856 C59.717,15.857,59.717,15.857,59.717,15.856z M21.098,57.72L2.272,38.917L34.06,7.131l18.801,18.8L21.098,57.72z M42.855,2.891 l0.267,1.541c0.073,0.379,0.371,0.675,0.75,0.745l2.643,0.506l0.502,2.643c0.072,0.38,0.37,0.675,0.75,0.745l2.643,0.501 l0.502,2.648c0.071,0.377,0.367,0.673,0.744,0.746l2.647,0.506l0.507,2.647c0.069,0.379,0.366,0.677,0.746,0.75l1.536,0.29 l-5.155,5.155L37.657,8.078L42.855,2.891z"></path></g></svg>