<svg xmlns="http://www.w3.org/2000/svg" xmlns:xlink="http://www.w3.org/1999/xlink" version="1.1" id="Layer_1" x="0px" y="0px" width="50.036px" height="50px" viewBox="0 0 50.036 50" enable-background="new 0 0 50.036 50" xml:space="preserve"><g><path fill="#0CB4C4" d="M11.67,2c1.288,0,2.54,0.253,3.728,0.756c3.63,1.522,5.957,5.04,5.928,8.975v9.595h-9.666 c-3.932,0-7.439-2.35-8.935-5.986C1.228,11.699,2.064,7.562,4.856,4.8C6.654,3.021,9.138,2,11.67,2 M11.67,0 C8.652,0,5.676,1.174,3.449,3.378c-3.348,3.313-4.37,8.353-2.573,12.723c1.797,4.37,6.062,7.225,10.784,7.225h11.666V11.731 c0.035-4.723-2.784-8.987-7.154-10.82C14.72,0.298,13.19,0,11.67,0L11.67,0z"></path><path fill="#0CB4C4" d="M38.366,2L38.366,2c2.532,0,5.016,1.021,6.814,2.8c2.791,2.762,3.627,6.899,2.13,10.54 c-1.495,3.636-5.003,5.986-8.935,5.986h-9.666l0-9.61c-0.029-3.921,2.298-7.438,5.933-8.963C35.825,2.253,37.077,2,38.366,2 M38.365,0c-1.519,0-3.05,0.298-4.501,0.911c-4.37,1.833-7.19,6.097-7.154,10.82v11.595h11.666c4.723,0,8.987-2.855,10.784-7.225 s0.775-9.41-2.573-12.723C44.36,1.174,41.384,0,38.365,0L38.365,0z"></path><path fill="#0CB4C4" d="M38.375,28.674c3.932,0,7.439,2.35,8.935,5.986c1.498,3.641,0.662,7.778-2.13,10.54 c-1.825,1.806-4.239,2.8-6.799,2.8c-1.288,0-2.548-0.254-3.743-0.756c-3.63-1.522-5.957-5.04-5.928-8.975v-9.595H38.375 M38.375,26.674H26.71v11.595c-0.035,4.723,2.784,8.987,7.154,10.82C35.327,49.702,36.862,50,38.381,50 c3.019,0,5.979-1.174,8.206-3.378c3.348-3.313,4.37-8.353,2.573-12.723S43.098,26.674,38.375,26.674L38.375,26.674z"></path><path fill="#0CB4C4" d="M21.326,28.674l0,9.61c0.029,3.921-2.298,7.438-5.928,8.96C14.203,47.746,12.943,48,11.655,48 c-2.56,0-4.975-0.994-6.799-2.8c-2.791-2.762-3.627-6.899-2.13-10.54c1.495-3.636,5.003-5.986,8.935-5.986H21.326 M23.326,26.674 H11.661c-4.723,0-8.987,2.855-10.784,7.225c-1.797,4.37-0.775,9.41,2.573,12.723C5.676,48.826,8.636,50,11.655,50 c1.519,0,3.054-0.298,4.517-0.911c4.37-1.833,7.19-6.097,7.154-10.82V26.674L23.326,26.674z"></path></g></svg>