<svg version="1.1" id="Layer_1" xmlns="http://www.w3.org/2000/svg" xmlns:xlink="http://www.w3.org/1999/xlink" x="0px" y="0px" width="52.258px" height="60px" viewBox="0 0 52.258 60" style="enable-background:new 0 0 52.258 60;" xml:space="preserve"><g><g><rect x="46.452" y="12.581" style="fill:#0CB4C4;" width="1.936" height="3.871"></rect><rect x="3.871" y="12.581" style="fill:#0CB4C4;" width="1.936" height="3.871"></rect><path style="fill:#0CB4C4;" d="M26.129,17.419c-0.533,0-0.968-0.435-0.968-0.968h-1.936c0,1.26,0.812,2.324,1.936,2.725v2.114 h1.936v-2.114c1.124-0.401,1.936-1.465,1.936-2.725c0-1.601-1.303-2.903-2.903-2.903c-0.533,0-0.968-0.435-0.968-0.968 s0.435-0.968,0.968-0.968s0.968,0.435,0.968,0.968h1.936c0-1.26-0.812-2.324-1.936-2.725V7.742h-1.936v2.114 c-1.124,0.401-1.936,1.465-1.936,2.725c0,1.601,1.303,2.903,2.903,2.903c0.533,0,0.968,0.435,0.968,0.968 S26.662,17.419,26.129,17.419z"></path><rect x="46.452" y="18.387" style="fill:#0CB4C4;" width="1.936" height="1.936"></rect><rect x="46.452" y="8.709" style="fill:#0CB4C4;" width="1.936" height="1.936"></rect><path style="fill:#0CB4C4;" d="M47.419,0H4.838C2.17,0,0,2.171,0,4.839v19.354c0,2.668,2.17,4.839,4.838,4.839h4.839v8.709 c0,1.601,1.303,2.903,2.903,2.903h0.968v16.452c0,1.601,1.303,2.903,2.903,2.903h19.354c1.601,0,2.903-1.303,2.903-2.903V40.645 h0.968c1.601,0,2.903-1.302,2.903-2.903v-8.709h4.839c2.668,0,4.838-2.17,4.838-4.839V4.839C52.258,2.171,50.087,0,47.419,0z M1.936,24.193V4.839c0-1.601,1.302-2.903,2.903-2.903h2.903v25.161H4.838C3.238,27.097,1.936,25.794,1.936,24.193z M15.484,57.097V40.645h11.613v17.419H16.452C15.918,58.064,15.484,57.63,15.484,57.097z M32.903,40.645v17.419h-3.871V40.645 H32.903z M36.774,57.097c0,0.533-0.435,0.968-0.968,0.968h-0.968V40.645h1.936V57.097z M40.645,27.097v10.645 c0,0.534-0.435,0.968-0.968,0.968H12.581c-0.533,0-0.968-0.434-0.968-0.968v-8.709h27.097v-1.936H9.677V1.936h32.903v25.161 H40.645z M50.322,24.193c0,1.601-1.302,2.903-2.903,2.903h-2.903V1.936h2.903c1.601,0,2.903,1.303,2.903,2.903V24.193z"></path><path style="fill:#0CB4C4;" d="M15.484,36.774h21.29v-5.807h-21.29V36.774z M17.419,32.903h17.419v1.936H17.419V32.903z"></path><path style="fill:#0CB4C4;" d="M11.613,3.871v21.29h29.032V3.871H11.613z M38.709,23.226H13.548V5.807h25.161V23.226z"></path><path style="fill:#0CB4C4;" d="M25.161,48.387c0-2.135-1.736-3.871-3.871-3.871c-2.135,0-3.871,1.736-3.871,3.871 c0,0.708,0.204,1.361,0.537,1.933c-0.346,0.589-0.537,1.254-0.537,1.938c0,2.135,1.736,3.871,3.871,3.871 c2.135,0,3.871-1.736,3.871-3.871c0-0.685-0.191-1.349-0.537-1.938C24.957,49.749,25.161,49.095,25.161,48.387z M21.29,46.452 c1.067,0,1.936,0.868,1.936,1.936s-0.868,1.936-1.936,1.936s-1.936-0.868-1.936-1.936S20.223,46.452,21.29,46.452z M21.29,54.193 c-1.067,0-1.936-0.868-1.936-1.935c0-0.184,0.031-0.347,0.074-0.499c0.555,0.308,1.184,0.499,1.862,0.499 c0.679,0,1.308-0.191,1.862-0.499c0.043,0.152,0.074,0.314,0.074,0.499C23.226,53.326,22.357,54.193,21.29,54.193z"></path></g></g></svg>