<svg version="1.1" id="Layer_1" xmlns="http://www.w3.org/2000/svg" xmlns:xlink="http://www.w3.org/1999/xlink" x="0px" y="0px" width="60px" height="60.001px" viewBox="0 0 60 60.001" style="enable-background:new 0 0 60 60.001;" xml:space="preserve"><path style="fill:#0CB4C4;" d="M25.568,60.001c-0.495,0-0.568-0.411-0.568-0.91v-5.528l-0.938-0.201 c-0.168-0.043-0.418-0.083-0.587-0.123c-0.263-0.062-0.567-0.122-0.825-0.205c-0.298-0.102-0.502-0.266-0.607-0.484 s-0.13-0.463-0.05-0.691c0.127-0.364,0.466-0.608,0.85-0.608c0.101,0,0.199,0.017,0.295,0.051c0.849,0.273,1.976,0.495,2.865,0.668 c0.43,0.082,0.998,0.456,0.998,0.89v5.142h6v-5.127c0-0.433,0.571-0.807,0.994-0.89c2.961-0.575,5.876-1.73,8.4-3.435 c0.15-0.101,0.391-0.154,0.572-0.154c0.243,0,0.505,0.095,0.676,0.268l3.789,3.753l4.973-4.98l-3.741-3.769 c-0.309-0.307-0.354-0.787-0.116-1.146c1.689-2.502,2.842-5.544,3.42-8.522c0.083-0.429,0.458-0.999,0.891-0.999H58v-6h-5.128 c-0.433,0-0.807-0.571-0.891-0.993c-0.577-2.978-1.729-5.893-3.423-8.399c-0.246-0.362-0.201-0.912,0.106-1.219l3.765-3.799 l-4.984-5l-3.781,3.753c-0.173,0.175-0.402,0.266-0.645,0.266c-0.179,0-0.351-0.054-0.5-0.153c-2.5-1.688-5.549-2.841-8.531-3.42 C33.571,7.953,33,7.578,33,7.146V2.001h-6V7.13c0,0.434-0.569,0.808-0.995,0.89c-2.98,0.578-5.893,1.729-8.401,3.424 c-0.154,0.104-0.395,0.159-0.577,0.159c-0.242,0-0.502-0.094-0.673-0.265l-3.77-3.768L7.59,12.576l3.765,3.764 c0.296,0.3,0.339,0.781,0.099,1.136c-1.692,2.506-2.845,5.554-3.424,8.537c-0.083,0.417-0.457,0.988-0.887,0.988H2v6h5.128 c0.396,0,0.743,0.512,0.863,0.887c0.301,0.936,0.546,2.013,0.727,2.946l0.021,0.169c0.036,0.239-0.022,0.51-0.166,0.705 c-0.143,0.195-0.353,0.338-0.592,0.375c-0.047,0.008-0.094,0.02-0.14,0.02c-0.442,0-0.826-0.326-0.893-0.765 c-0.058-0.304-0.132-0.562-0.209-0.821c-0.039-0.135-0.079-0.434-0.113-0.57L6.43,35.001H0.9c-0.491,0-0.9-0.076-0.9-0.571v-8.86 c0-0.503,0.405-0.569,0.905-0.569h5.787l0.205-0.941c0.557-2.091,1.379-4.168,2.444-6.003l0.4-0.731l-4.086-4.103 c-0.347-0.35-0.347-0.933,0.003-1.285l6.267-6.276c0.168-0.168,0.395-0.264,0.635-0.264c0.241,0,0.467,0.091,0.638,0.261 l4.084,4.067l0.687-0.399c1.862-1.081,4.022-1.906,6.096-2.456L25,6.669V0.903C25,0.435,25.186,0.046,25.65,0l8.699,0.005 C34.841,0.007,35,0.412,35,0.907v5.777l0.934,0.204c2.082,0.552,4.161,1.377,6.014,2.455l0.73,0.4l4.103-4.086 c0.167-0.167,0.405-0.261,0.645-0.261c0.241,0,0.473,0.093,0.644,0.264l6.273,6.27c0.348,0.35,0.349,0.922-0.001,1.274l-4.066,4.081 l0.399,0.687c1.063,1.833,1.885,3.996,2.441,6.089l0.204,0.941h5.324c0.495,0,1.357,0.066,1.357,0.565v8.868 c0,0.491-0.866,0.567-1.361,0.567h-5.32l-0.204,0.935c-0.552,2.081-1.377,4.159-2.455,6.014l-0.4,0.731l4.088,4.091 c0.355,0.357,0.354,0.942,0,1.294l-6.275,6.276c-0.169,0.168-0.396,0.264-0.636,0.264s-0.467-0.092-0.638-0.262l-4.079-4.084 l-0.688,0.401c-1.898,1.103-4.059,1.935-6.096,2.474L35,53.34v5.748c0,0.502-0.072,0.914-0.57,0.914H25.568z M9.374,51.538 c-0.258,0-0.497-0.104-0.671-0.295c-0.339-0.369-0.314-0.945,0.056-1.284l20.144-20.146l-6.046,0.194l-0.19,0.013 c-0.545-0.026-0.93-0.452-0.906-0.951c0.024-0.481,0.421-0.859,0.903-0.859l0.132,0.002l8.177-0.267c0,0,0.185-0.021,0.188-0.021 c0.073,0,0.121,0.004,0.168,0.013c0.495,0.084,0.827,0.553,0.743,1.045l-0.012,0.07l-0.268,8.158 c-0.028,0.543-0.425,0.919-0.906,0.919l0,0c-0.551-0.029-0.934-0.458-0.906-0.957l0.194-6.055L9.988,51.299 C9.82,51.453,9.603,51.538,9.374,51.538z"></path></svg>