<svg version="1.1" id="Layer_1" xmlns="http://www.w3.org/2000/svg" xmlns:xlink="http://www.w3.org/1999/xlink" x="0px" y="0px" width="58.064px" height="60px" viewBox="0 0 58.064 60" style="enable-background:new 0 0 58.064 60;" xml:space="preserve"><g><g><polygon style="fill:#0CB4C4;" points="9.677,7.742 7.742,7.742 7.742,8.709 5.807,8.709 5.807,13.548 9.677,13.548 9.677,14.516 5.807,14.516 5.807,16.452 7.742,16.452 7.742,17.419 9.677,17.419 9.677,16.452 11.613,16.452 11.613,11.613 7.742,11.613 7.742,10.645 11.613,10.645 11.613,8.709 9.677,8.709 "></polygon><path style="fill:#0CB4C4;" d="M32.903,0H17.419c-2.171,0-3.871,1.7-3.871,3.871v1.473c-1.385-0.929-3.049-1.473-4.839-1.473 C3.908,3.871,0,7.778,0,12.581c0,4.803,3.908,8.71,8.709,8.71c1.79,0,3.454-0.544,4.839-1.473v3.943 C11.911,25.246,5.81,31.1,6.803,35.073c0.873,3.491,2.491,8.44,2.854,9.536L7.604,60H24.26l-1.023-15.341l2.595-6.917h7.071 c2.135,0,3.871-1.736,3.871-3.871v-30C36.774,1.736,35.038,0,32.903,0z M34.839,3.871v1.936H30.63 c0.219-0.616,0.338-1.266,0.338-1.936c0-0.671-0.119-1.32-0.337-1.936h2.272C33.971,1.936,34.839,2.804,34.839,3.871z M15.484,28.064V18.042c1.208-1.495,1.936-3.395,1.936-5.462c0-1.789-0.544-3.454-1.473-4.839h18.893v20.323H15.484z M21.291,3.871c0-0.69,0.188-1.349,0.529-1.936h6.684c0.341,0.586,0.528,1.245,0.528,1.936c0,0.69-0.188,1.349-0.529,1.936h-6.684 C21.478,5.22,21.291,4.562,21.291,3.871z M17.419,1.936h2.273c-0.219,0.615-0.337,1.266-0.337,1.936 c0,0.67,0.119,1.32,0.336,1.936h-4.208V3.871C15.484,2.75,16.298,1.936,17.419,1.936z M8.709,19.355 c-3.735,0-6.774-3.04-6.774-6.774s3.039-6.774,6.774-6.774c3.736,0,6.774,3.04,6.774,6.774S12.445,19.355,8.709,19.355z M9.815,58.064l1.678-12.581h9.86l0.839,12.581H9.815z M21.587,43.548H11.346c-0.529-1.622-1.906-5.91-2.665-8.944 c-0.494-1.972,2.292-5.574,4.868-8.167v3.55c-1.565,0.879-2.963,1.793-3.44,2.111l1.073,1.61C13.492,32.169,17.256,30,18.387,30 c0.23,0,0.521,0.04,0.6,0.229c0.1,0.241-0.003,0.708-0.317,1.022l-6.774,6.774l1.368,1.369l1.652-1.652h8.848L21.587,43.548z M32.903,35.807H16.852l3.187-3.187c0.708-0.708,1.029-1.723,0.875-2.62h13.925v3.871C34.839,34.938,33.971,35.807,32.903,35.807z "></path><circle style="fill:#0CB4C4;" cx="25.161" cy="3.871" r="0.968"></circle><rect x="22.258" y="31.936" style="fill:#0CB4C4;" width="5.807" height="1.936"></rect><path style="fill:#0CB4C4;" d="M53.226,35.807h-4.838v-4.839c0-1.067-0.868-1.936-1.936-1.936h-1.936 c-1.067,0-1.936,0.868-1.936,1.936v7.585l-0.27-0.811h-0.698c-2.271,0-3.459,1.123-3.587,1.251l-0.387,0.387l0.133,0.531 c0.041,0.16,0.988,3.94,1.956,6.846c0.686,2.056,1.835,2.926,2.695,3.294L40.432,60h14.831l-0.979-9.797 c2.042-0.494,2.813-2.406,2.813-3.751v-6.774C57.097,37.724,55.18,35.807,53.226,35.807z M42.793,58.064l1.548-7.742h8.008 l0.774,7.742H42.793z M55.161,46.452c0,0.323-0.093,1.936-1.936,1.936h-1.069h-8.589c-0.081-0.006-1.299-0.126-2.004-2.241 c-0.712-2.138-1.434-4.844-1.75-6.06c0.256-0.136,0.629-0.283,1.12-0.357l0.729,2.191l0.052,0.127 c0.322,0.644,1.184,0.869,1.829,0.717c0.583-0.138,0.974-0.6,0.974-1.151V30.968h1.936v9.677h1.936v-2.903h4.838 c0.887,0,1.936,1.049,1.936,1.936V46.452z"></path><path style="fill:#0CB4C4;" d="M23.226,26.129h9.678v-8.709h-9.678V26.129z M25.161,19.355h5.807v4.838h-5.807V19.355z"></path><rect x="19.355" y="9.677" style="fill:#0CB4C4;" width="13.548" height="1.936"></rect><rect x="19.355" y="13.548" style="fill:#0CB4C4;" width="4.838" height="1.936"></rect><rect x="26.129" y="13.548" style="fill:#0CB4C4;" width="6.774" height="1.936"></rect><path style="fill:#0CB4C4;" d="M54.193,17.419c1.881,0,3.871-1.99,3.871-3.871V9.677c0-1.881-1.99-3.871-3.871-3.871H42.581V1.936 h-3.871v1.936h1.936v17.557c-1.665,0.433-2.903,1.935-2.903,3.733c0,2.135,1.736,3.871,3.871,3.871 c1.798,0,3.301-1.238,3.734-2.903h6.122c0.401,1.124,1.465,1.936,2.725,1.936c1.601,0,2.903-1.303,2.903-2.903 s-1.303-2.903-2.903-2.903c-1.26,0-2.324,0.812-2.725,1.935h-6.122c-0.353-1.354-1.412-2.413-2.766-2.766v-4.008H54.193z M54.193,24.193c0.533,0,0.968,0.434,0.968,0.968s-0.435,0.968-0.968,0.968s-0.968-0.434-0.968-0.968S53.66,24.193,54.193,24.193z M48.871,9.461l1.291,2.151l-1.291,2.151l-1.291-2.151L48.871,9.461z M46.452,9.731l-1.194-1.99h2.388L46.452,9.731z M50.096,7.742h2.388l-1.194,1.99L50.096,7.742z M51.291,13.494l1.194,1.99h-2.388L51.291,13.494z M47.646,15.484h-2.388 l1.194-1.99L47.646,15.484z M56.129,9.677v3.871c0,0.662-0.742,1.519-1.458,1.818l-2.251-3.754l2.251-3.754 C55.387,8.159,56.129,9.016,56.129,9.677z M43,7.742l2.323,3.871L43,15.484h-0.42V7.742H43z M43.548,25.161 c0,1.067-0.868,1.936-1.936,1.936s-1.936-0.868-1.936-1.936s0.868-1.936,1.936-1.936S43.548,24.094,43.548,25.161z"></path></g></g></svg>