<svg version="1.1" id="Layer_1" xmlns="http://www.w3.org/2000/svg" xmlns:xlink="http://www.w3.org/1999/xlink" x="0px" y="0px" width="60px" height="60px" viewBox="0 0 60 60" style="enable-background:new 0 0 60 60;" xml:space="preserve"><g><path style="fill:#0CB4C4;" d="M14.676,17.091L2.94,30l11.735,12.908c0.463,0.513,0.426,1.303-0.084,1.768 C14.352,44.893,14.05,45,13.75,45c-0.339,0-0.679-0.138-0.925-0.409l-12.5-13.75c-0.434-0.478-0.434-1.205,0-1.682l12.5-13.75 c0.465-0.51,1.257-0.547,1.767-0.083C15.102,15.79,15.14,16.581,14.676,17.091z M59.675,29.159l-12.5-13.75 c-0.464-0.51-1.256-0.547-1.767-0.084c-0.51,0.464-0.548,1.255-0.084,1.766L57.06,30L45.324,42.908 c-0.464,0.513-0.426,1.303,0.084,1.768C45.648,44.893,45.95,45,46.25,45c0.34,0,0.679-0.138,0.926-0.409l12.5-13.75 C60.108,30.364,60.108,29.636,59.675,29.159z M40.146,0.065c-0.659-0.22-1.364,0.135-1.581,0.79l-19.5,57.499 c-0.218,0.654,0.135,1.362,0.79,1.582C19.986,59.98,20.12,60,20.25,60c0.523,0,1.011-0.331,1.185-0.854l19.5-57.499 C41.153,0.991,40.8,0.284,40.146,0.065z"></path></g></svg>