<svg version="1.1" id="Layer_1" xmlns="http://www.w3.org/2000/svg" xmlns:xlink="http://www.w3.org/1999/xlink" x="0px" y="0px" width="60px" height="60px" viewBox="0 0 60 60" style="enable-background:new 0 0 60 60;" xml:space="preserve"><path style="fill:#0CB4C4;" d="M14.498,47.103c-0.833,0-1.616-0.323-2.205-0.912L7.74,41.634c-1.216-1.217-1.216-3.195,0-4.412 l3.035-3.171C11.352,33.473,12.119,33,12.936,33h0.001c0.877,0,1.66,0.461,2.249,1.051l4.556,4.621c1.219,1.221,1.217,3.233,0,4.449 l-3.039,3.053C16.114,46.763,15.331,47.103,14.498,47.103z M13.597,44.743l0.071,0.07c0.222,0.223,0.517,0.344,0.83,0.344 c0.313,0,0.608-0.121,0.83-0.344l0.83-0.829l-0.9-0.9L13.597,44.743z M10.563,41.704l1.659,1.664l1.659-1.664l-1.659-1.659 L10.563,41.704z M16.632,41.704l0.901,0.901l0.833-0.83c0.458-0.459,0.458-1.202,0-1.659l-0.071-0.071L16.632,41.704z M9.116,38.599 c-0.457,0.456-0.457,1.202,0,1.659l0.071,0.071l1.659-1.66l-0.9-0.9L9.116,38.599z M13.597,38.669l1.66,1.66l1.659-1.66 l-1.659-1.659L13.597,38.669z M12.967,35c-0.308,0-0.598,0.234-0.816,0.453l-0.83,0.885l0.901,0.928l1.659-1.646l-0.07-0.174 C13.589,35.225,13.293,35,12.979,35H12.967z"></path><path style="fill:#0CB4C4;" d="M22.235,34.199c-0.427,0-0.799-0.273-0.928-0.681c-0.133-0.429-0.469-0.764-0.897-0.896 c-0.512-0.161-0.798-0.707-0.639-1.22c0.127-0.408,0.5-0.684,0.928-0.684c0.099,0,0.196,0.016,0.29,0.045 c1.039,0.324,1.852,1.137,2.176,2.175c0.157,0.511-0.129,1.056-0.637,1.215C22.432,34.184,22.334,34.199,22.235,34.199z"></path><path style="fill:#0CB4C4;" d="M25.946,32.76c-0.408,0-0.776-0.259-0.915-0.643c-0.541-1.505-1.714-2.679-3.219-3.22 c-0.497-0.182-0.758-0.736-0.582-1.236c0.137-0.389,0.506-0.65,0.917-0.65c0.11,0,0.219,0.02,0.324,0.057 c2.052,0.737,3.653,2.338,4.391,4.392c0.088,0.243,0.076,0.507-0.035,0.742c-0.11,0.234-0.306,0.413-0.55,0.501 C26.17,32.74,26.059,32.76,25.946,32.76z"></path><rect x="43.599" y="25.272" transform="matrix(-0.7071 0.7071 -0.7071 -0.7071 99.4995 11.2752)" style="fill:#0CB4C4;" width="7.632" height="1.946"></rect><rect x="36.542" y="32.328" transform="matrix(-0.7071 0.7071 -0.7071 -0.7071 92.4429 28.3105)" style="fill:#0CB4C4;" width="7.632" height="1.946"></rect><rect x="29.485" y="39.384" transform="matrix(-0.7071 0.7071 -0.7071 -0.7071 85.3865 45.3443)" style="fill:#0CB4C4;" width="7.633" height="1.946"></rect><rect x="22.428" y="46.441" transform="matrix(-0.7071 0.7071 -0.7071 -0.7071 78.3303 62.3806)" style="fill:#0CB4C4;" width="7.633" height="1.946"></rect><path style="fill:#0CB4C4;" d="M21.578,59.95c-1.686,0-3.272-0.657-4.464-1.85L1.9,42.887c-1.195-1.196-1.851-2.781-1.851-4.468 c0.001-1.686,0.658-3.271,1.851-4.463L33.957,1.875C35.125,0.705,36.679,0,38.331,0c0.001,0,0.002,0,0.002,0 c1.754,0,3.379,0.699,4.554,1.875L58.1,17.1c2.463,2.466,2.462,6.477,0,8.937L26.043,58.098 C24.847,59.291,23.263,59.95,21.578,59.95z M38.357,2c-1.143,0-2.217,0.468-3.025,1.278L3.276,35.334 c-1.702,1.702-1.702,4.471,0,6.173l15.217,15.217c0.825,0.824,1.921,1.28,3.087,1.28s2.263-0.456,3.087-1.28l32.057-32.057 c1.702-1.702,1.702-4.472,0-6.173L41.507,3.278C40.682,2.452,39.586,2,38.421,2H38.357z"></path><g><path style="fill:#0CB4C4;" d="M14.523,47.074c-0.832,0-1.613-0.323-2.202-0.911l-4.545-4.549c-1.214-1.215-1.214-3.189,0-4.404 l3.03-3.164C11.383,33.47,12.149,33,12.964,33h0.001c0.876,0,1.657,0.458,2.245,1.046l4.549,4.612c1.217,1.219,1.215,3.229,0,4.442 l-3.034,3.046C16.137,46.734,15.355,47.074,14.523,47.074z M13.625,44.719l0.071,0.07c0.221,0.222,0.516,0.343,0.828,0.343 c0.313,0,0.607-0.121,0.829-0.343l0.828-0.828l-0.899-0.898L13.625,44.719z M10.595,41.685l1.656,1.661l1.656-1.661l-1.656-1.656 L10.595,41.685z M16.654,41.685l0.899,0.899l0.832-0.828c0.457-0.458,0.457-1.2,0-1.656l-0.071-0.071L16.654,41.685z M9.15,38.584 c-0.456,0.456-0.456,1.2,0,1.656l0.071,0.071l1.656-1.657l-0.899-0.898L9.15,38.584z M13.625,38.654l1.657,1.657l1.656-1.657 l-1.656-1.656L13.625,38.654z M12.995,35c-0.308,0-0.597,0.23-0.815,0.449l-0.828,0.88l0.899,0.926l1.656-1.644l-0.07-0.169 C13.616,35.221,13.321,35,13.007,35H12.995z"></path><path style="fill:#0CB4C4;" d="M22.248,34.192c-0.426,0-0.798-0.273-0.926-0.68c-0.133-0.428-0.468-0.763-0.896-0.896 c-0.511-0.16-0.797-0.705-0.638-1.217c0.127-0.408,0.5-0.683,0.927-0.683c0.098,0,0.195,0.016,0.29,0.045 c1.037,0.323,1.849,1.135,2.172,2.171c0.157,0.51-0.128,1.054-0.636,1.213C22.445,34.177,22.347,34.192,22.248,34.192z"></path><path style="fill:#0CB4C4;" d="M25.953,32.755c-0.408,0-0.775-0.258-0.914-0.642c-0.54-1.502-1.711-2.674-3.214-3.214 c-0.496-0.182-0.757-0.735-0.581-1.234c0.137-0.388,0.505-0.649,0.916-0.649c0.11,0,0.219,0.02,0.324,0.057 c2.049,0.736,3.647,2.334,4.383,4.384c0.088,0.243,0.076,0.507-0.035,0.741s-0.306,0.412-0.549,0.5 C26.176,32.735,26.065,32.755,25.953,32.755z"></path><rect x="43.576" y="25.28" transform="matrix(-0.7071 0.7071 -0.7071 -0.7071 99.4543 11.3066)" style="fill:#0CB4C4;" width="7.619" height="1.943"></rect><rect x="36.531" y="32.324" transform="matrix(-0.7071 0.7071 -0.7071 -0.7071 92.4095 28.3136)" style="fill:#0CB4C4;" width="7.619" height="1.942"></rect><rect x="29.486" y="39.369" transform="matrix(-0.7071 0.7071 -0.7071 -0.7071 85.3648 45.3191)" style="fill:#0CB4C4;" width="7.62" height="1.943"></rect><rect x="22.441" y="46.414" transform="matrix(-0.7071 0.7071 -0.7071 -0.7071 78.3203 62.3271)" style="fill:#0CB4C4;" width="7.62" height="1.943"></rect><path style="fill:#0CB4C4;" d="M21.592,59.9c-1.684,0-3.267-0.656-4.457-1.847L1.947,42.865c-1.193-1.194-1.848-2.776-1.848-4.46 c0.001-1.684,0.657-3.266,1.848-4.456L33.95,1.896C35.117,0.729,36.667,0,38.317,0c0.001,0,0.002,0,0.002,0 c1.75,0,3.373,0.723,4.545,1.896l15.188,15.212c2.459,2.462,2.458,6.473,0,8.929L26.05,58.048 C24.856,59.239,23.274,59.9,21.592,59.9z M38.344,2c-1.141,0-2.213,0.49-3.02,1.299L3.32,35.313c-1.699,1.699-1.699,4.469,0,6.168 l15.192,15.194c0.823,0.823,1.918,1.279,3.082,1.279s2.259-0.454,3.082-1.277L56.68,24.676c1.699-1.699,1.699-4.464,0-6.163 L41.488,3.299C40.665,2.475,39.57,2,38.407,2H38.344z"></path></g></svg>