<svg version="1.1" id="Layer_1" xmlns="http://www.w3.org/2000/svg" xmlns:xlink="http://www.w3.org/1999/xlink" x="0px" y="0px" width="91.541px" height="60px" viewBox="0 0 91.541 60" style="enable-background:new 0 0 91.541 60;" xml:space="preserve"><g><path style="fill:#0CB4C4;" d="M9.288,24.806h4.432v5.638H8.317v-5.638H9.288z M11.766,26.759h-1.496v1.72h1.496V26.759z"></path><polygon style="fill:#0CB4C4;" points="8.038,38.202 32.709,38.202 32.709,40.088 8.038,40.088 "></polygon><path style="fill:#0CB4C4;" d="M39.083,24.806h4.432v5.638h-5.415v-5.638H39.083z M41.551,26.759h-1.485v1.72h1.485V26.759z"></path><path style="fill:#0CB4C4;" d="M19.224,24.806h4.432v5.638h-5.414v-5.638H19.224z M21.691,26.759h-1.496v1.72h1.496V26.759z"></path><path style="fill:#0CB4C4;" d="M28.668,24.806H33.1v5.638h-5.415v-5.638H28.668z M31.135,26.759H29.65v1.72h1.485V26.759z"></path><path style="fill:#0CB4C4;" d="M70.096,41.763c0.1-3.204,2.735-5.76,5.939-5.76c3.204,0,5.85,2.556,5.939,5.76h2.456v11.275H67.64 V41.763H70.096z M72.061,41.763h7.96c-0.101-2.132-1.854-3.796-3.985-3.796C73.903,37.967,72.161,39.631,72.061,41.763z M82.476,43.728H69.605v7.357h12.871V43.728z"></path><path style="fill:#0CB4C4;" d="M78.759,29.26V14.39H1.887v27.116c0,1.15,0.938,2.099,2.099,2.099h56.577 c0.234-3.918,1.909-7.435,4.51-10.035C68.667,29.974,73.769,28.367,78.759,29.26z M80.634,29.718 c2.434,0.748,4.61,2.087,6.363,3.84c2.813,2.813,4.543,6.688,4.543,10.963c0,4.286-1.73,8.16-4.543,10.962 c-6.017,6.029-15.897,6.018-21.914,0c-2.601-2.59-4.276-6.095-4.521-10.002H3.985C1.797,45.48,0,43.694,0,41.506 C0,28.992,0,16.488,0,3.985C0,1.786,1.786,0,3.985,0H76.66c2.188,0,3.974,1.798,3.974,3.985 C80.634,12.559,80.634,21.133,80.634,29.718z M1.887,7.368h76.872V3.985c0-1.161-0.949-2.099-2.099-2.099H3.985 c-1.15,0-2.099,0.949-2.099,2.099V7.368z M78.759,9.243H1.887v3.271h76.872V9.243z M85.613,34.942 c-5.258-5.247-13.888-5.259-19.157,0c-2.445,2.456-3.963,5.838-3.963,9.578c0,3.739,1.518,7.133,3.974,9.578 c5.247,5.258,13.887,5.258,19.146,0c2.456-2.445,3.963-5.839,3.963-9.578C89.576,40.78,88.069,37.398,85.613,34.942z"></path></g></svg>