<svg version="1.1" id="Layer_1" xmlns="http://www.w3.org/2000/svg" xmlns:xlink="http://www.w3.org/1999/xlink" x="0px" y="0px" width="64.108px" height="54.62px" viewBox="0 0 64.108 54.62" style="enable-background:new 0 0 64.108 54.62;" xml:space="preserve"><g><g transform="translate(0,-952.3622)"><path style="fill:#0CB4C4;" d="M0.989,952.372c-0.229-0.002-0.449,0.084-0.626,0.229c-0.005,0.004-0.011,0.009-0.016,0.013 C0.073,952.843,0,953.194,0,953.551v36.908c0,0.553,0.448,1.002,1.001,1.002h30.097c0.522,8.646,7.696,15.521,16.471,15.521 c9.114,0,16.529-7.409,16.526-16.523c-0.003-10.206,0-26.642,0-36.916c0.097-0.612-0.381-1.166-1.002-1.158 C42.396,952.297,21.672,952.509,0.989,952.372L0.989,952.372z M2.004,954.389h60.088v28.186 c-2.804-5.144-8.262-8.639-14.522-8.639c-8.776,0-15.95,6.875-16.471,15.521H2.004V954.389z M6.178,959.585 c-1.355-0.019-1.355,2.023,0,2.003h51.739c1.355,0.02,1.355-2.022,0-2.003H6.178z M6.178,964.758 c-1.355-0.018-1.355,2.023,0,2.005h31.043c1.355,0.02,1.355-2.023,0-2.005H6.178z M6.178,969.935c-1.355-0.02-1.355,2.022,0,2.004 h20.696c1.354,0.02,1.354-2.023,0-2.004H6.178z M47.569,975.939c8.031,0,14.522,6.488,14.522,14.52s-6.491,14.52-14.522,14.52 c-7.991,0-14.451-6.426-14.515-14.402c0.01-0.08,0.01-0.162,0-0.242C33.123,982.361,39.58,975.939,47.569,975.939L47.569,975.939z M44.292,982.73c-0.274,0-0.539,0.104-0.731,0.301l-6.585,6.726c-0.967,0.955,0.499,2.389,1.433,1.401L44,985.446l5.961,12.18 c0.304,0.623,1.133,0.758,1.618,0.261l4.866-4.973v4.271c-0.019,1.354,2.022,1.354,2.003,0c0-2.257,0.012-4.513,0-6.769 c-0.002-0.55-0.468-0.985-1.017-0.976c-2.172,0.035-4.385,0.027-6.57,0.016c-1.355-0.009-1.355,2.023,0,2.004h4.203l-3.927,4.011 l-5.962-12.18C45.011,982.953,44.669,982.736,44.292,982.73L44.292,982.73z M6.178,980.283c-1.355-0.02-1.355,2.023,0,2.003 h10.348c1.355,0.02,1.355-2.022,0-2.003H6.178z"></path></g></g></svg>