<svg version="1.1" id="Layer_1" xmlns="http://www.w3.org/2000/svg" xmlns:xlink="http://www.w3.org/1999/xlink" x="0px" y="0px" width="60px" height="60px" viewBox="0 0 60 60" style="enable-background:new 0 0 60 60;" xml:space="preserve"><g><g><path style="fill:#0CB4C4;" d="M59.032,52.258h-2.903V24.193c0-1.601-1.303-2.903-2.903-2.903H46.97 c0.285-1.247,0.449-2.539,0.449-3.871C47.419,7.814,39.605,0,30,0S12.581,7.814,12.581,17.419c0,1.332,0.165,2.624,0.449,3.871 H6.774c-1.601,0-2.903,1.303-2.903,2.903v28.064H0.968C0.434,52.258,0,52.691,0,53.226v1.936C0,57.829,2.171,60,4.839,60h50.322 C57.829,60,60,57.829,60,55.161v-1.936C60,52.691,59.566,52.258,59.032,52.258z M30,34.839c6.026,0,11.345-3.077,14.474-7.742 h5.849v21.29H9.677v-21.29h5.849C18.655,31.762,23.974,34.839,30,34.839z M30,1.936c8.538,0,15.484,6.946,15.484,15.483 c0,8.538-6.946,15.484-15.484,15.484s-15.484-6.946-15.484-15.484C14.516,8.882,21.462,1.936,30,1.936z M5.807,24.193 c0-0.533,0.434-0.968,0.968-0.968h6.822c0.236,0.665,0.51,1.311,0.822,1.936H8.709c-0.534,0-0.968,0.434-0.968,0.968v23.226 c0,0.534,0.434,0.968,0.968,0.968h42.581c0.534,0,0.968-0.434,0.968-0.968V26.129c0-0.534-0.434-0.968-0.968-0.968h-5.709 c0.312-0.625,0.585-1.271,0.822-1.936h6.822c0.534,0,0.968,0.435,0.968,0.968v28.064H5.807V24.193z M58.064,55.161 c0,1.601-1.303,2.903-2.903,2.903H4.839c-1.601,0-2.903-1.303-2.903-2.903v-0.968h56.129V55.161z"></path><path style="fill:#0CB4C4;" d="M22.258,28.064h15.483c0.534,0,0.968-0.434,0.968-0.968v-9.678c0-0.534-0.434-0.968-0.968-0.968 h-0.967v-5.806c0-3.735-3.039-6.774-6.774-6.774s-6.774,3.039-6.774,6.774v5.806h-0.967c-0.534,0-0.968,0.434-0.968,0.968v9.678 C21.291,27.631,21.724,28.064,22.258,28.064z M25.161,10.646c0-2.669,2.171-4.839,4.839-4.839s4.839,2.17,4.839,4.839v5.806 h-9.678V10.646z M23.226,18.387h13.549v7.742H23.226V18.387z"></path><polygon style="fill:#0CB4C4;" points="27.097,22.258 29.032,22.258 29.032,24.193 30.968,24.193 30.968,22.258 32.903,22.258 32.903,20.322 27.097,20.322 "></polygon></g></g></svg>