<svg xmlns="http://www.w3.org/2000/svg" xmlns:xlink="http://www.w3.org/1999/xlink" version="1.1" id="Layer_1" x="0px" y="0px" width="35.358px" height="50px" viewBox="0 0 35.358 50" enable-background="new 0 0 35.358 50" xml:space="preserve"><g><path fill="#0CB4C4" d="M25.755,0H2.999C1.345,0,0,1.345,0,2.999v34.273c0,1.654,1.345,2.999,2.999,2.999h0.334v6.155 c0,1.97,1.603,3.574,3.574,3.574h14.942c1.97,0,3.574-1.603,3.574-3.574v-6.155h0.332c1.654,0,2.999-1.345,2.999-2.999v-3.188 l4.757-1.973c1.123-0.469,1.847-1.554,1.847-2.771V13.253c0-1.217-0.724-2.302-1.849-2.771L28.754,8.51v-5.51 C28.754,1.345,27.409,0,25.755,0z M28.76,10.678l3.982,1.652c0.375,0.156,0.617,0.517,0.617,0.924V29.34 c0,0.406-0.242,0.767-0.615,0.924l-3.984,1.652V10.678z M16.032,47.991v-7.717h2.08v7.717H16.032z M5.333,46.426v-6.153h8.699V48 H6.907C6.04,48,5.333,47.293,5.333,46.426z M23.423,46.426c0,0.867-0.707,1.574-1.574,1.574h-1.738v-7.727h3.312V46.426z M26.755,37.272c0,0.551-0.449,1-1,1c-8.736,0-9.56,0-22.755,0c-0.551,0-1-0.449-1-1V2.999c0-0.551,0.449-1,1-1h22.755 c0.551,0,1,0.449,1,1V37.272z"></path><path fill="#0CB4C4" d="M23.755,3.999H4.999c-0.553,0-1,0.447-1,1v9.514c0,0.553,0.447,1,1,1h18.756c0.553,0,1-0.447,1-1V4.999 C24.755,4.446,24.308,3.999,23.755,3.999z M22.755,13.513H5.999V5.999h16.756V13.513z"></path><path fill="#0CB4C4" d="M7.905,18.079H4.999c-0.553,0-1,0.447-1,1c0,0.553,0.447,1,1,1h2.906c0.553,0,1-0.447,1-1 C8.905,18.526,8.457,18.079,7.905,18.079z"></path><path fill="#0CB4C4" d="M15.831,18.079h-2.906c-0.553,0-1,0.447-1,1c0,0.553,0.447,1,1,1h2.906c0.553,0,1-0.447,1-1 C16.831,18.526,16.384,18.079,15.831,18.079z"></path><path fill="#0CB4C4" d="M23.755,18.079h-2.904c-0.553,0-1,0.447-1,1c0,0.553,0.447,1,1,1h2.904c0.553,0,1-0.447,1-1 C24.755,18.526,24.308,18.079,23.755,18.079z"></path><path fill="#0CB4C4" d="M7.905,22.644H4.999c-0.553,0-1,0.447-1,1c0,0.553,0.447,1,1,1h2.906c0.553,0,1-0.447,1-1 C8.905,23.091,8.457,22.644,7.905,22.644z"></path><path fill="#0CB4C4" d="M15.831,22.644h-2.906c-0.553,0-1,0.447-1,1c0,0.553,0.447,1,1,1h2.906c0.553,0,1-0.447,1-1 C16.831,23.091,16.384,22.644,15.831,22.644z"></path><path fill="#0CB4C4" d="M23.755,22.644h-2.904c-0.553,0-1,0.447-1,1c0,0.553,0.447,1,1,1h2.904c0.553,0,1-0.447,1-1 C24.755,23.091,24.308,22.644,23.755,22.644z"></path><path fill="#0CB4C4" d="M7.905,27.21H4.999c-0.553,0-1,0.447-1,1c0,0.553,0.447,1,1,1h2.906c0.553,0,1-0.447,1-1 C8.905,27.657,8.457,27.21,7.905,27.21z"></path><path fill="#0CB4C4" d="M15.831,27.21h-2.906c-0.553,0-1,0.447-1,1c0,0.553,0.447,1,1,1h2.906c0.553,0,1-0.447,1-1 C16.831,27.657,16.384,27.21,15.831,27.21z"></path><path fill="#0CB4C4" d="M23.755,27.21h-2.904c-0.553,0-1,0.447-1,1c0,0.553,0.447,1,1,1h2.904c0.553,0,1-0.447,1-1 C24.755,27.657,24.308,27.21,23.755,27.21z"></path><path fill="#0CB4C4" d="M7.905,31.773H4.999c-0.553,0-1,0.447-1,1s0.447,1,1,1h2.906c0.553,0,1-0.447,1-1 S8.457,31.773,7.905,31.773z"></path><path fill="#0CB4C4" d="M15.831,31.773h-2.906c-0.553,0-1,0.447-1,1s0.447,1,1,1h2.906c0.553,0,1-0.447,1-1 S16.384,31.773,15.831,31.773z"></path><path fill="#0CB4C4" d="M23.755,31.773h-2.904c-0.553,0-1,0.447-1,1s0.447,1,1,1h2.904c0.553,0,1-0.447,1-1 S24.308,31.773,23.755,31.773z"></path></g></svg>