<svg width="69" height="60" viewBox="0 0 69 60" fill="none" xmlns="http://www.w3.org/2000/svg"><path fill-rule="evenodd" clip-rule="evenodd" d="M48.9576 54.974H18.6496C18.1946 54.9835 17.7615 55.1699 17.443 55.4932C17.1246 55.8165 16.9463 56.251 16.9463 56.7035C16.9463 57.156 17.1246 57.5905 17.443 57.9138C17.7615 58.2371 18.1946 58.4235 18.6496 58.433H48.9576C49.4126 58.4235 49.8458 58.2371 50.1642 57.9138C50.4826 57.5905 50.6609 57.156 50.6609 56.7035C50.6609 56.251 50.4826 55.8165 50.1642 55.4932C49.8458 55.1699 49.4126 54.9835 48.9576 54.974ZM6.01966 46.0793C5.81543 46.0729 5.62169 45.9878 5.47948 45.8419C5.33727 45.6961 5.25774 45.5009 5.25774 45.2977C5.25774 45.0945 5.33727 44.8994 5.47948 44.7535C5.62169 44.6076 5.81543 44.5225 6.01966 44.5161H6.23714C6.34243 44.5129 6.44731 44.5307 6.54555 44.5685C6.6438 44.6063 6.7334 44.6633 6.80904 44.7362C6.88468 44.8091 6.94482 44.8964 6.9859 44.9928C7.02697 45.0893 7.04813 45.193 7.04813 45.2977C7.04813 45.4025 7.02697 45.5061 6.9859 45.6026C6.94482 45.699 6.88468 45.7863 6.80904 45.8592C6.7334 45.9321 6.6438 45.9891 6.54555 46.027C6.44731 46.0648 6.34243 46.0826 6.23714 46.0793H6.01966ZM38.6135 53.4139V49.466H28.993V53.4139H38.6135ZM35.3489 5.13642H32.2575C32.0747 5.13642 31.8994 5.20862 31.7702 5.33713C31.6409 5.46564 31.5683 5.63994 31.5683 5.82168V7.45946C31.5683 7.66637 31.4973 7.86709 31.3669 8.02839C31.2366 8.18969 31.0548 8.30192 30.8515 8.34649C29.328 8.68203 27.874 9.27597 26.5532 10.1023C26.3767 10.2373 26.1569 10.3041 25.9346 10.2901C25.7124 10.2761 25.5028 10.1823 25.3448 10.0261L24.1801 8.86805C24.0509 8.73996 23.8759 8.66802 23.6934 8.66802C23.511 8.66802 23.336 8.73996 23.2068 8.86805L21.0189 11.0411C20.8901 11.1695 20.8178 11.3436 20.8178 11.525C20.8178 11.7064 20.8901 11.8804 21.0189 12.0088L22.1837 13.1669C22.3299 13.3137 22.4217 13.5054 22.4442 13.7107C22.4668 13.9161 22.4187 14.1229 22.3078 14.2976C21.4687 15.6061 20.8622 17.0485 20.5151 18.5615C20.4858 18.7807 20.3775 18.9819 20.2104 19.1278C20.0432 19.2737 19.8285 19.3544 19.6061 19.3548H17.9597C17.7769 19.3548 17.6016 19.427 17.4723 19.5555C17.3431 19.6841 17.2705 19.8584 17.2705 20.0401V23.1139C17.2705 23.2956 17.3431 23.4699 17.4723 23.5984C17.6016 23.7269 17.7769 23.7991 17.9597 23.7991H19.6061C19.8142 23.7993 20.016 23.87 20.1782 23.9995C20.3404 24.1291 20.4533 24.3098 20.4982 24.5118C20.8355 26.0269 21.4329 27.4729 22.2641 28.7863C22.3997 28.9618 22.4667 29.1802 22.4526 29.401C22.4386 29.6218 22.3444 29.8301 22.1875 29.9871L21.0228 31.1452C20.8948 31.2747 20.8237 31.4494 20.8252 31.6309C20.8248 31.7206 20.8422 31.8096 20.8765 31.8925C20.9108 31.9755 20.9613 32.0509 21.0251 32.1144L23.2106 34.2882C23.3405 34.415 23.5152 34.4861 23.6973 34.4861C23.8793 34.4861 24.054 34.415 24.1839 34.2882L25.3487 33.1301C25.4958 32.984 25.6887 32.8922 25.8954 32.8698C26.1022 32.8474 26.3104 32.8957 26.4858 33.0068C27.1411 33.4218 27.8307 33.7805 28.5473 34.0788L28.5933 34.0963C29.2997 34.3881 30.0298 34.6196 30.7757 34.7885C30.9963 34.8176 31.1988 34.9253 31.3456 35.0917C31.4923 35.2581 31.5734 35.4717 31.5737 35.693V37.33C31.5737 37.5118 31.6463 37.6861 31.7755 37.8146C31.9048 37.9431 32.0801 38.0153 32.2629 38.0153H35.3489C35.5317 38.0153 35.707 37.9431 35.8363 37.8146C35.9655 37.6861 36.0381 37.5118 36.0381 37.33V35.6953C36.0383 35.4884 36.1094 35.2878 36.2397 35.1265C36.37 34.9652 36.5518 34.853 36.7549 34.8083C38.2789 34.4731 39.7333 33.8788 41.054 33.0517C41.2305 32.9166 41.4503 32.8499 41.6726 32.8639C41.8949 32.8779 42.1045 32.9717 42.2624 33.1278L43.4271 34.2859C43.557 34.4127 43.7318 34.4838 43.9138 34.4838C44.0958 34.4838 44.2706 34.4127 44.4004 34.2859L46.586 32.1121C46.7148 31.9837 46.7871 31.8097 46.7871 31.6283C46.7871 31.4469 46.7148 31.2728 46.586 31.1444L45.4212 29.9863C45.2767 29.8388 45.1865 29.6472 45.1652 29.4424C45.1439 29.2376 45.1929 29.0316 45.3041 28.8579C46.1437 27.5497 46.7499 26.1073 47.096 24.594C47.1255 24.3748 47.2339 24.1737 47.4012 24.0279C47.5685 23.8822 47.7833 23.8017 48.0057 23.8014H49.6522C49.8349 23.8014 50.0102 23.7292 50.1395 23.6007C50.2687 23.4722 50.3414 23.2979 50.3414 23.1162V20.0393C50.3414 19.8576 50.2687 19.6833 50.1395 19.5548C50.0102 19.4263 49.8349 19.3541 49.6522 19.3541H48.0057V19.3503C47.7976 19.3503 47.5958 19.2796 47.4335 19.15C47.2713 19.0204 47.1584 18.8397 47.1136 18.6376C46.7763 17.1225 46.1789 15.6765 45.3477 14.3631C45.2121 14.1877 45.1451 13.9693 45.1592 13.7484C45.1733 13.5276 45.2675 13.3193 45.4243 13.1624L46.589 12.0043C46.7166 11.8751 46.788 11.7014 46.788 11.5204C46.788 11.3394 46.7166 11.1657 46.589 11.0365L44.4027 8.86348C44.2736 8.73562 44.0987 8.66384 43.9165 8.66384C43.7342 8.66384 43.5594 8.73562 43.4302 8.86348L42.2655 10.0216C42.1185 10.1677 41.9258 10.2597 41.7192 10.2822C41.5126 10.3048 41.3044 10.2566 41.129 10.1457C39.813 9.31128 38.3624 8.70834 36.8407 8.36324C36.6191 8.33511 36.4154 8.22769 36.2677 8.06107C36.12 7.89445 36.0384 7.68004 36.0381 7.45793V5.82016C36.0381 5.63842 35.9655 5.46412 35.8363 5.33561C35.707 5.20709 35.5317 5.1349 35.3489 5.1349V5.13642ZM32.2575 3.30906H35.3489C36.0176 3.31026 36.6585 3.57489 37.1313 4.04498C37.6041 4.51507 37.8702 5.15231 37.8714 5.81711V6.74678C39.1315 7.08646 40.3426 7.58517 41.4752 8.23076L42.1345 7.57519C42.6081 7.10605 43.2495 6.84264 43.918 6.84264C44.5866 6.84264 45.2279 7.10605 45.7015 7.57519L47.8855 9.74671C48.3576 10.2177 48.6226 10.8555 48.6226 11.5204C48.6226 12.1853 48.3576 12.8231 47.8855 13.2941L47.2262 13.9496C47.8745 15.0747 48.376 16.2772 48.7187 17.5282H49.6499C50.3185 17.5294 50.9594 17.7941 51.4322 18.2642C51.905 18.7343 52.1711 19.3715 52.1723 20.0363V23.1101C52.1711 23.7749 51.905 24.4121 51.4322 24.8822C50.9594 25.3523 50.3185 25.6169 49.6499 25.6181H48.7187C48.376 26.8692 47.8745 28.0717 47.2262 29.1967L47.8855 29.8523C48.3576 30.3233 48.6226 30.9611 48.6226 31.626C48.6226 32.2909 48.3576 32.9287 47.8855 33.3997L45.7 35.5735C45.2263 36.0428 44.5848 36.3064 43.9161 36.3064C43.2473 36.3064 42.6059 36.0428 42.1322 35.5735L41.4752 34.9225C40.907 35.2451 40.3187 35.5315 39.7139 35.7798C39.1128 36.0275 38.4964 36.2365 37.8684 36.4057V37.3323C37.8671 37.9966 37.6014 38.6334 37.1293 39.1034C36.6572 39.5734 36.017 39.8383 35.3489 39.8404H32.2575C31.5889 39.8392 30.948 39.5745 30.4752 39.1044C30.0024 38.6343 29.7362 37.9971 29.735 37.3323V36.4064C29.1063 36.2369 28.4891 36.0276 27.8872 35.7798C27.8713 35.7737 27.8557 35.7669 27.8405 35.7592C27.255 35.5151 26.6852 35.2354 26.1343 34.9217L25.475 35.5773C25.0013 36.0466 24.3599 36.3102 23.6911 36.3102C23.0224 36.3102 22.3809 36.0466 21.9072 35.5773L19.7217 33.4035C19.2495 32.9334 18.9843 32.2961 18.9843 31.6317C18.9843 30.9673 19.2495 30.33 19.7217 29.8599L20.3811 29.2043C20.0567 28.6411 19.7687 28.058 19.5188 27.4584C19.2695 26.8608 19.059 26.2479 18.8886 25.6235H17.9574C17.2879 25.6235 16.6459 25.3594 16.1721 24.8891C15.6983 24.4189 15.4315 23.781 15.4303 23.1154V20.0393C15.4315 19.3737 15.6983 18.7358 16.1721 18.2656C16.6459 17.7954 17.2879 17.5313 17.9574 17.5313H18.8886C19.0592 16.9073 19.2694 16.2946 19.518 15.6971C19.7685 15.0977 20.0568 14.5145 20.3811 13.9512L19.7217 13.2956C19.2497 12.8246 18.9846 12.1868 18.9846 11.5219C18.9846 10.857 19.2497 10.2192 19.7217 9.74823L21.9072 7.57519C22.3809 7.10582 23.0224 6.84226 23.6911 6.84226C24.3599 6.84226 25.0013 7.10582 25.475 7.57519L26.1343 8.23076C27.2654 7.58531 28.475 7.08659 29.7335 6.74678V5.82016C29.7347 5.15535 30.0009 4.51812 30.4737 4.04803C30.9464 3.57794 31.5873 3.31331 32.256 3.3121L32.2575 3.30906ZM40.2216 15.1938C41.7059 16.6698 42.6295 18.6118 42.8352 20.689C43.0408 22.7662 42.5158 24.85 41.3494 26.5854C40.1831 28.3208 38.4476 29.6005 36.4387 30.2063C34.4299 30.8121 32.2719 30.7066 30.3325 29.9078C28.3931 29.109 26.7923 27.6663 25.8027 25.8255C24.8132 23.9847 24.4962 21.8597 24.9058 19.8126C25.3154 17.7655 26.4262 15.9229 28.0489 14.5988C29.6716 13.2747 31.7059 12.5509 33.8051 12.551C34.997 12.5494 36.1775 12.7821 37.2786 13.2357C38.3798 13.6892 39.3799 14.3547 40.2216 15.1938ZM33.8051 10.7266C36.3295 10.7263 38.7758 11.5963 40.7273 13.1884C42.6788 14.7805 44.0147 16.9961 44.5074 19.4577C45.0001 21.9194 44.6191 24.4747 43.4293 26.6883C42.2395 28.902 40.3145 30.6369 37.9824 31.5975C35.6502 32.5582 33.0553 32.685 30.6396 31.9565C28.2239 31.228 26.1371 29.6892 24.7346 27.6023C23.3321 25.5155 22.7008 23.0096 22.9482 20.5118C23.1956 18.014 24.3065 15.6787 26.0915 13.904C27.1033 12.8952 28.3056 12.0951 29.6294 11.5499C30.9532 11.0046 32.3723 10.7248 33.8051 10.7266ZM30.6172 23.2684C30.7894 23.4193 30.8986 23.6287 30.9233 23.8555C30.9481 24.0823 30.8866 24.3101 30.751 24.4941C30.6153 24.6782 30.4153 24.8051 30.1904 24.8499C29.9654 24.8947 29.7317 24.8543 29.5352 24.7364L26.2132 22.3098C26.0181 22.1666 25.8878 21.9525 25.8508 21.7142C25.8138 21.4758 25.873 21.2326 26.0156 21.0375C26.0752 20.9575 26.147 20.8874 26.2285 20.8297L29.5352 18.4153C29.7317 18.2974 29.9654 18.257 30.1904 18.3018C30.4153 18.3466 30.6153 18.4735 30.751 18.6576C30.8866 18.8416 30.9481 19.0694 30.9233 19.2962C30.8986 19.523 30.7894 19.7324 30.6172 19.8833L28.3038 21.5766L30.621 23.2684H30.6172ZM38.0721 24.7364C37.8756 24.8543 37.6418 24.8947 37.4169 24.8499C37.1919 24.8051 36.9919 24.6782 36.8563 24.4941C36.7206 24.3101 36.6591 24.0823 36.6839 23.8555C36.7086 23.6287 36.8178 23.4193 36.99 23.2684L39.3073 21.5766L36.99 19.884C36.8178 19.7332 36.7086 19.5238 36.6839 19.297C36.6591 19.0702 36.7206 18.8423 36.8563 18.6583C36.9919 18.4743 37.1919 18.3474 37.4169 18.3026C37.6418 18.2577 37.8756 18.2982 38.0721 18.416L41.3779 20.8304C41.4599 20.8879 41.532 20.9581 41.5916 21.0383C41.7342 21.2334 41.7934 21.4766 41.7564 21.7149C41.7194 21.9533 41.5891 22.1674 41.394 22.3106L38.0721 24.7364ZM32.9107 25.9646C32.8157 26.1867 32.6358 26.3622 32.4106 26.4524C32.1854 26.5427 31.9334 26.5403 31.71 26.4458C31.4866 26.3513 31.3101 26.1724 31.2193 25.9485C31.1285 25.7246 31.131 25.474 31.226 25.2519L34.6957 17.1864C34.7908 16.9642 34.9707 16.7887 35.1959 16.6985C35.4211 16.6083 35.6731 16.6107 35.8965 16.7052C36.1199 16.7997 36.2964 16.9785 36.3871 17.2024C36.4779 17.4263 36.4755 17.6769 36.3805 17.899L32.9107 25.9646ZM59.2642 31.6264C60.5082 32.2284 61.558 33.1646 62.2946 34.3291C63.0312 35.4936 63.4253 36.8399 63.4323 38.2155C63.4364 39.5825 63.0604 40.924 62.3457 42.0918C62.2662 42.221 62.2263 42.3704 62.2309 42.5217C62.2356 42.673 62.2845 42.8197 62.3717 42.9438L65.866 48.5516C65.8866 48.5925 65.911 48.6315 65.9387 48.6681L67.0522 50.4551L62.1014 53.5052L58.8782 48.333C58.8576 48.2919 58.8332 48.2526 58.8055 48.2158L57.4034 45.959C57.3271 45.8362 57.2181 45.7368 57.0885 45.672C56.9588 45.6072 56.8136 45.5795 56.669 45.592C55.2997 45.7098 53.9243 45.4484 52.6954 44.8367C51.4619 44.2193 50.4262 43.2717 49.7051 42.1007C48.984 40.9297 48.606 39.5817 48.6138 38.2087C48.6205 37.2569 48.8119 36.3153 49.1774 35.4357L52.2267 40.3292C52.2933 40.4364 52.3851 40.526 52.4942 40.5902C52.6033 40.6544 52.7265 40.6913 52.8531 40.6977L57.1369 40.9193C57.3047 40.9277 57.4708 40.8823 57.6108 40.7898C57.7507 40.6973 57.8571 40.5625 57.9141 40.4053L59.5988 36.5366C59.649 36.4218 59.6705 36.2966 59.6614 36.1717C59.6524 36.0468 59.613 35.9259 59.5468 35.8194L56.4837 30.9C57.45 30.9608 58.3952 31.2081 59.2665 31.6279L59.2642 31.6264ZM56.767 47.9021L56.3144 47.1749C54.7368 47.225 53.1737 46.861 51.7826 46.1194C50.3914 45.3778 49.2214 44.2849 48.3901 42.9507C48.2661 42.7522 48.151 42.5507 48.0448 42.3461H1.82473V47.9044L56.767 47.9021ZM67.3546 47.9836L68.7974 50.2975C68.8514 50.3845 68.8877 50.4813 68.9041 50.5822C68.9206 50.6832 68.9169 50.7864 68.8932 50.886C68.8695 50.9855 68.8263 51.0795 68.7661 51.1624C68.7059 51.2454 68.6299 51.3158 68.5424 51.3695L62.263 55.2397C62.1754 55.2935 62.0781 55.3295 61.9765 55.3459C61.875 55.3622 61.7712 55.3585 61.6711 55.335C61.5709 55.3114 61.4764 55.2685 61.393 55.2087C61.3096 55.1488 61.2388 55.0732 61.1848 54.9862L57.7449 49.466H40.1871V53.4139H48.9576C49.836 53.4139 50.6784 53.7608 51.2995 54.3784C51.9206 54.996 52.2696 55.8336 52.2696 56.7069C52.2696 57.5803 51.9206 58.4179 51.2995 59.0355C50.6784 59.6531 49.836 60 48.9576 60H18.6496C17.7712 60 16.9288 59.6531 16.3077 59.0355C15.6866 58.4179 15.3376 57.5803 15.3376 56.7069C15.3376 55.8336 15.6866 54.996 16.3077 54.3784C16.9288 53.7608 17.7712 53.4139 18.6496 53.4139H27.4201V49.466H1.17458C0.931104 49.4654 0.697823 49.3687 0.525968 49.1972C0.440336 49.1126 0.372318 49.012 0.325804 48.9012C0.27929 48.7904 0.25519 48.6716 0.254883 48.5516V0.914447C0.255706 0.67225 0.353211 0.440287 0.525968 0.269539C0.697698 0.0977692 0.930994 0.000821415 1.17458 2.87103e-06H66.4319C66.6766 -0.000604963 66.9116 0.0953243 67.0853 0.266751C67.259 0.438178 67.3573 0.671106 67.3585 0.914447V47.9836H67.3546ZM63.999 42.3492C63.976 42.3949 63.9515 42.4406 63.927 42.4855L65.7825 45.4626V42.3461L63.999 42.3492ZM55.0103 29.3795C54.8789 29.3941 54.7534 29.4414 54.6454 29.5172C54.5374 29.5929 54.4504 29.6946 54.3925 29.8127C54.3346 29.9308 54.3076 30.0616 54.3142 30.1928C54.3207 30.3241 54.3605 30.4516 54.4298 30.5634L57.9991 36.2907L56.6713 39.3317L53.3386 39.1597L49.7823 33.453C49.7206 33.3528 49.6365 33.2682 49.5365 33.2055C49.4498 33.1505 49.3531 33.1129 49.2518 33.0951C49.1506 33.0772 49.0468 33.0794 48.9464 33.1015C48.8459 33.1235 48.7509 33.1651 48.6666 33.2237C48.5823 33.2823 48.5105 33.3568 48.4552 33.4431C47.5444 34.8651 47.0552 36.5137 47.0439 38.1995C47.0376 39.0734 47.1612 39.9435 47.4107 40.7815H1.82473V1.56392H65.7825V40.7822H64.63C65.0504 39.3689 65.1123 37.8741 64.8103 36.4312C64.5083 34.9883 63.8516 33.6422 62.899 32.513C61.9464 31.3838 60.7275 30.5067 59.351 29.9599C57.9744 29.4132 56.4832 29.2137 55.0103 29.3795Z" fill="#0CB4C4"></path></svg>