<svg xmlns="http://www.w3.org/2000/svg" xmlns:xlink="http://www.w3.org/1999/xlink" version="1.1" id="Layer_1" x="0px" y="0px" width="41.667px" height="50px" viewBox="0 0 41.667 50" enable-background="new 0 0 41.667 50" xml:space="preserve"><g><g transform="translate(-124.000000, -585.000000)"><g transform="translate(124.000000, 585.000000)"><path fill="#0CB4C4" d="M34.167,33.333c-0.46,0-0.833-0.373-0.833-0.833v-5c0-0.46,0.373-0.833,0.833-0.833 c0.46,0,0.833,0.373,0.833,0.833v5C35,32.96,34.627,33.333,34.167,33.333"></path><path fill="#0CB4C4" d="M34.167,25c-0.46,0-0.833-0.373-0.833-0.833V22.5c0-0.46,0.373-0.833,0.833-0.833 c0.46,0,0.833,0.373,0.833,0.833v1.667C35,24.627,34.627,25,34.167,25"></path><path fill="#0CB4C4" d="M36.667,9.999L35,10v5h1.667V9.999z M36.667,16.666H35c-0.919,0-1.667-0.747-1.667-1.667v-5 c0-0.919,0.747-1.667,1.667-1.667h1.667c0.919,0,1.667,0.747,1.667,1.667v5C38.333,15.919,37.586,16.666,36.667,16.666 L36.667,16.666z"></path><path fill="#0CB4C4" d="M4.167,1.667c-1.378,0-2.5,1.122-2.5,2.5v41.667c0,1.378,1.122,2.5,2.5,2.5h21.667 c1.378,0,2.5-1.122,2.5-2.5V4.167c0-1.378-1.122-2.5-2.5-2.5H4.167z M25.833,50H4.167C1.869,50,0,48.131,0,45.833V4.167 C0,1.869,1.869,0,4.167,0h21.667C28.131,0,30,1.869,30,4.167v41.667C30,48.131,28.131,50,25.833,50L25.833,50z"></path><path fill="#0CB4C4" d="M5,15h20V5H5V15z M25.833,16.667H4.166c-0.46,0-0.833-0.373-0.833-0.833V4.167 c0-0.46,0.373-0.833,0.833-0.833h21.667c0.461,0,0.833,0.373,0.833,0.833v11.667C26.666,16.293,26.294,16.667,25.833,16.667 L25.833,16.667z"></path><path fill="#0CB4C4" d="M7.5,20v1.667h1.667L9.167,20H7.5z M9.167,23.333H7.5c-0.919,0-1.667-0.747-1.667-1.667V20 c0-0.919,0.747-1.667,1.667-1.667h1.667c0.919,0,1.667,0.747,1.667,1.667v1.667C10.833,22.586,10.086,23.333,9.167,23.333 L9.167,23.333z"></path><path fill="#0CB4C4" d="M14.167,20v1.667h1.668L15.833,20H14.167z M15.833,23.333h-1.667c-0.919,0-1.667-0.747-1.667-1.667V20 c0-0.919,0.747-1.667,1.667-1.667h1.667c0.919,0,1.667,0.747,1.667,1.667v1.667C17.5,22.586,16.753,23.333,15.833,23.333 L15.833,23.333z"></path><path fill="#0CB4C4" d="M20.833,20v1.667h1.668L22.5,20H20.833z M22.5,23.333h-1.667c-0.919,0-1.667-0.747-1.667-1.667V20 c0-0.919,0.748-1.667,1.667-1.667H22.5c0.919,0,1.667,0.747,1.667,1.667v1.667C24.167,22.586,23.419,23.333,22.5,23.333 L22.5,23.333z"></path><path fill="#0CB4C4" d="M7.5,26.667v1.667h1.667l-0.001-1.667H7.5z M9.167,30H7.5c-0.919,0-1.667-0.747-1.667-1.667v-1.667 C5.833,25.747,6.581,25,7.5,25h1.667c0.919,0,1.667,0.747,1.667,1.667v1.667C10.833,29.253,10.086,30,9.167,30L9.167,30z"></path><path fill="#0CB4C4" d="M14.167,26.667v1.667h1.668l-0.001-1.667H14.167z M15.833,30h-1.667c-0.919,0-1.667-0.747-1.667-1.667 v-1.667c0-0.919,0.747-1.667,1.667-1.667h1.667c0.919,0,1.667,0.747,1.667,1.667v1.667C17.5,29.253,16.753,30,15.833,30 L15.833,30z"></path><path fill="#0CB4C4" d="M20.833,26.667v1.667h1.668L22.5,26.667H20.833z M22.5,30h-1.667c-0.919,0-1.667-0.747-1.667-1.667 v-1.667c0-0.919,0.748-1.667,1.667-1.667H22.5c0.919,0,1.667,0.747,1.667,1.667v1.667C24.167,29.253,23.419,30,22.5,30L22.5,30z"></path><path fill="#0CB4C4" d="M7.5,33.333V35h1.667l-0.001-1.667H7.5z M9.167,36.667H7.5c-0.919,0-1.667-0.748-1.667-1.667v-1.667 c0-0.919,0.747-1.667,1.667-1.667h1.667c0.919,0,1.667,0.747,1.667,1.667V35C10.833,35.919,10.086,36.667,9.167,36.667 L9.167,36.667z"></path><path fill="#0CB4C4" d="M14.167,33.333V35h1.668l-0.001-1.667H14.167z M15.833,36.667h-1.667c-0.919,0-1.667-0.748-1.667-1.667 v-1.667c0-0.919,0.747-1.667,1.667-1.667h1.667c0.919,0,1.667,0.747,1.667,1.667V35C17.5,35.919,16.753,36.667,15.833,36.667 L15.833,36.667z"></path><path fill="#0CB4C4" d="M20.833,33.333V35h1.668L22.5,33.333H20.833z M22.5,36.667h-1.667c-0.919,0-1.667-0.748-1.667-1.667 v-1.667c0-0.919,0.748-1.667,1.667-1.667H22.5c0.919,0,1.667,0.747,1.667,1.667V35C24.167,35.919,23.419,36.667,22.5,36.667 L22.5,36.667z"></path><path fill="#0CB4C4" d="M9.167,40C8.263,40,7.5,41.145,7.5,42.5S8.263,45,9.167,45c0.903,0,1.667-1.145,1.667-2.5 S10.07,40,9.167,40 M9.167,46.667c-1.838,0-3.333-1.869-3.333-4.167s1.495-4.167,3.333-4.167S12.5,40.202,12.5,42.5 S11.005,46.667,9.167,46.667"></path><path fill="#0CB4C4" d="M20.833,40c-0.903,0-1.667,1.145-1.667,2.5S19.93,45,20.833,45c0.903,0,1.667-1.145,1.667-2.5 S21.737,40,20.833,40 M20.833,46.667c-1.838,0-3.333-1.869-3.333-4.167s1.495-4.167,3.333-4.167c1.838,0,3.333,1.869,3.333,4.167 S22.672,46.667,20.833,46.667"></path><path fill="#0CB4C4" d="M39.167,38.333h-10c-0.46,0-0.833-0.373-0.833-0.833s0.373-0.833,0.833-0.833h10 c0.459,0,0.833-0.374,0.833-0.833V7.5c0-0.459-0.374-0.833-0.833-0.833h-10c-0.46,0-0.833-0.373-0.833-0.833S28.707,5,29.167,5 h10c1.378,0,2.5,1.122,2.5,2.5v28.333C41.667,37.212,40.545,38.333,39.167,38.333"></path><path fill="#0CB4C4" d="M14.167,13.333c-0.221,0-0.432-0.087-0.589-0.244l-2.5-2.5c-0.326-0.326-0.326-0.852,0-1.178 c0.326-0.326,0.853-0.326,1.178,0l1.855,1.855l3.582-4.299c0.294-0.353,0.82-0.401,1.173-0.107s0.402,0.82,0.107,1.173l-4.167,5 c-0.15,0.18-0.368,0.288-0.602,0.299C14.192,13.333,14.179,13.333,14.167,13.333"></path></g></g></g></svg>