<svg xmlns="http://www.w3.org/2000/svg" xmlns:xlink="http://www.w3.org/1999/xlink" version="1.1" id="Layer_1" x="0px" y="0px" width="60px" height="60px" viewBox="0 0 60 60" enable-background="new 0 0 60 60" xml:space="preserve"><g><path fill="#0CB4C4" d="M30,0C13.458,0,0,13.458,0,30s13.458,30,30,30s30-13.458,30-30S46.542,0,30,0z M30,57 C15.112,57,3,44.888,3,30S15.112,3,30,3s27,12.112,27,27S44.888,57,30,57z"></path><path fill="#0CB4C4" d="M30,6.099C16.821,6.099,6.099,16.821,6.099,30S16.821,53.901,30,53.901S53.901,43.179,53.901,30 S43.179,6.099,30,6.099z M30,51.758c-11.997,0-21.758-9.76-21.758-21.758S18.003,8.242,30,8.242S51.758,18.003,51.758,30 S41.997,51.758,30,51.758z"></path><path fill="#0CB4C4" d="M30.026,19.941c0.792,0,1.569,0.093,2.322,0.27c0.006,0.001,0.012,0.003,0.018,0.004 c1.792,0.425,3.437,1.337,4.773,2.672c0.586,0.585,1.536,0.586,2.121,0c0.586-0.586,0.586-1.536,0-2.121 c-1.457-1.457-3.199-2.523-5.099-3.156v-4.007c0-0.828-0.672-1.5-1.5-1.5c-0.828,0-1.5,0.672-1.5,1.5v3.389 c-0.375-0.032-0.753-0.051-1.134-0.051c-0.381,0-0.759,0.019-1.135,0.051v-3.389c0-0.828-0.672-1.5-1.5-1.5 c-0.828,0-1.5,0.672-1.5,1.5v4.007c-1.899,0.632-3.642,1.699-5.098,3.156c-2.467,2.466-3.825,5.746-3.825,9.234 s1.359,6.767,3.825,9.234c1.457,1.457,3.199,2.523,5.098,3.156v4.007c0,0.828,0.672,1.5,1.5,1.5s1.5-0.672,1.5-1.5v-3.389 c0.375,0.032,0.754,0.051,1.135,0.051s0.759-0.019,1.134-0.051v3.389c0,0.828,0.672,1.5,1.5,1.5c0.828,0,1.5-0.672,1.5-1.5V42.39 c1.9-0.632,3.642-1.699,5.099-3.156c0.586-0.585,0.586-1.536,0-2.121c-0.586-0.586-1.535-0.586-2.121,0 c-1.336,1.335-2.982,2.247-4.774,2.672c-0.005,0.001-0.009,0.002-0.014,0.003c-0.753,0.177-1.531,0.271-2.324,0.271 c-0.789,0-1.562-0.093-2.311-0.268c-0.012-0.003-0.024-0.006-0.037-0.008c-1.789-0.426-3.431-1.337-4.764-2.67 c-1.899-1.9-2.945-4.426-2.945-7.113c0-2.687,1.046-5.213,2.946-7.112C24.813,20.988,27.339,19.941,30.026,19.941z"></path></g></svg>