<svg width="145" height="30" viewBox="0 0 145 30" fill="none" xmlns="http://www.w3.org/2000/svg">
<g clip-path="url(#clip0_4320_215)">
<mask id="mask0_4320_215" style="mask-type:luminance" maskUnits="userSpaceOnUse" x="0" y="0" width="145" height="30">
<path d="M145 0H0V30H145V0Z" fill="white"/>
</mask>
<g mask="url(#mask0_4320_215)">
<path fill-rule="evenodd" clip-rule="evenodd" d="M144.48 11.0711V13.5595H141.299V19.6526C141.299 20.4432 141.443 20.9781 141.73 21.3037C142.041 21.6525 142.472 21.792 143.093 21.792C143.261 21.792 143.476 21.7688 143.715 21.699C144.002 21.6293 144.17 21.5363 144.361 21.42L144.48 21.327V23.8153L144.457 23.8386C144.265 23.9316 143.93 24.0478 143.476 24.1409C143.045 24.2107 142.591 24.2804 142.161 24.2804C139.53 24.2804 138.214 22.9083 138.214 20.1874V13.5595H133.527V23.9548H130.394V13.5363H128.218V11.0711H130.394V9.28041C130.394 8.37345 130.609 7.58277 131.016 6.88509C131.423 6.16413 131.972 5.62927 132.714 5.23392C133.455 4.88508 134.268 4.67578 135.201 4.67578C135.942 4.67578 136.516 4.7688 136.947 4.90834L137.018 4.93159V7.55949L136.899 7.48971C136.397 7.28043 135.942 7.18743 135.512 7.18743C134.89 7.18743 134.388 7.37343 134.053 7.74555C133.719 8.11761 133.527 8.69901 133.527 9.44325V11.0711H138.214V8.16417L138.286 8.14089L141.252 7.28043L141.347 7.25715V11.0711H144.48ZM63.4065 6.14085C63.7656 5.81529 64.1957 5.62925 64.722 5.62925C65.2718 5.62925 65.7265 5.81529 66.0375 6.14085C66.396 6.48969 66.5872 6.90831 66.5872 7.39671C66.5872 7.88505 66.396 8.30367 66.0375 8.62923C65.7024 8.93157 65.2483 9.11763 64.722 9.11763C64.1957 9.11763 63.7656 8.95485 63.4065 8.62923C63.048 8.30367 62.8567 7.88505 62.8567 7.39671C62.8567 6.88503 63.048 6.46647 63.4065 6.14085ZM51.0422 17.2804L50.1812 19.6525H50.1095C49.966 19.1176 49.7029 18.3036 49.2725 17.3269L44.6568 6.04785H40.1367V24.0246H43.1261V12.9315C43.1261 12.2339 43.1261 11.4432 43.1022 10.4664C43.0852 10.1196 43.0562 9.83139 43.0322 9.59349C43.0225 9.49647 43.0135 9.40779 43.0065 9.32691H43.0783C43.2218 10.0246 43.3892 10.5362 43.5088 10.8618L49.0572 23.9781H51.1618L56.6623 10.7455C56.7538 10.5143 56.8452 10.1063 56.9367 9.69831C56.9648 9.57279 56.9929 9.44727 57.0211 9.32691H57.0928C57.0211 10.6525 56.9733 11.8385 56.9493 12.5595V23.9548H60.1301V6.00129H55.7775L51.0422 17.2804ZM63.143 11.0711H66.2522V23.9548H63.143V11.0711ZM77.2778 10.9548C76.7033 10.8385 76.1054 10.7688 75.5316 10.7688C74.1205 10.7688 72.829 11.0711 71.753 11.6758C70.6769 12.2804 69.8161 13.1177 69.2657 14.1642C68.6919 15.2339 68.405 16.4665 68.405 17.8851C68.405 19.1177 68.6919 20.2107 69.2417 21.2106C69.7921 22.1874 70.5572 22.9781 71.5857 23.513C72.5662 24.0479 73.7138 24.3269 75.0059 24.3269C76.4886 24.3269 77.756 24.0246 78.7605 23.4664L78.7845 23.4432V20.6525L78.6648 20.7455C78.2101 21.0711 77.6844 21.3502 77.1581 21.513C76.6077 21.699 76.1054 21.792 75.6754 21.792C74.4314 21.792 73.451 21.4432 72.7575 20.6758C72.0399 19.9316 71.6814 18.9083 71.6814 17.6293C71.6814 16.3036 72.0399 15.2572 72.7815 14.4897C73.5226 13.7223 74.5036 13.3269 75.6994 13.3269C76.7033 13.3269 77.7319 13.6525 78.6648 14.3037L78.7845 14.3967V11.4432L78.7605 11.4199L78.7247 11.4057C78.3273 11.2464 77.8812 11.0677 77.2778 10.9548ZM85.4329 11.5827C86.0549 11.0944 86.7719 10.8618 87.5376 10.8618C88.0633 10.8618 88.494 10.9316 88.7093 11.0711L88.7809 11.0944V14.1176L88.6612 14.0246C88.494 13.9083 88.2552 13.8153 87.9201 13.7223C87.8004 13.7068 87.6888 13.6887 87.5826 13.6714C87.3698 13.637 87.1785 13.606 86.9872 13.606C86.174 13.606 85.5045 13.9548 84.9782 14.6525C84.4525 15.3269 84.2131 16.2572 84.2131 17.3735V23.9548H81.1039V11.0711H84.2131V13.3269H84.2371C84.5481 12.606 84.9066 12.0014 85.4329 11.5827ZM96.0037 10.7921C93.8275 10.7921 92.0813 11.42 90.8615 12.6525C89.6182 13.8851 89.0203 15.5828 89.0203 17.7223C89.0203 19.7223 89.6423 21.3503 90.838 22.5363C92.0338 23.6991 93.6597 24.3037 95.6928 24.3037C97.8215 24.3037 99.5189 23.6758 100.739 22.42C101.983 21.1642 102.581 19.4898 102.581 17.42C102.581 15.3735 102.006 13.7455 100.834 12.5595C99.7108 11.3735 98.0603 10.7921 96.0037 10.7921ZM95.884 21.7688C97.0082 21.7688 97.9165 21.42 98.491 20.699C99.0888 19.9781 99.3517 18.8851 99.3998 17.4897C99.3998 16.1177 99.0648 15.0711 98.4428 14.3502C97.8209 13.6293 96.9601 13.2804 95.86 13.2804C94.7358 13.2804 93.8509 13.6525 93.2055 14.3967C92.5836 15.1409 92.2485 16.1874 92.2485 17.5595C92.2485 18.8851 92.5595 19.9316 93.2055 20.6525C93.8509 21.42 94.7598 21.7688 95.884 21.7688ZM109.516 16.4199C108.535 16.0246 107.913 15.7223 107.627 15.4665C107.387 15.2339 107.267 14.9083 107.267 14.4897C107.267 14.1409 107.411 13.7921 107.77 13.5595C108.129 13.3269 108.535 13.2107 109.133 13.2107C109.659 13.2107 110.209 13.3036 110.736 13.4432C111.261 13.5828 111.74 13.792 112.123 14.0711L112.242 14.1642V11.327L112.17 11.3037C111.812 11.1642 111.334 11.0246 110.759 10.9083C110.185 10.8153 109.659 10.7688 109.229 10.7688C107.746 10.7688 106.526 11.1176 105.569 11.8851C104.613 12.606 104.159 13.5828 104.159 14.7223C104.159 15.3269 104.255 15.8618 104.47 16.3036C104.685 16.7455 104.996 17.1642 105.426 17.513C105.857 17.8386 106.478 18.2106 107.34 18.5595C108.057 18.8618 108.607 19.0944 108.942 19.2804C109.276 19.4665 109.492 19.6758 109.659 19.8386C109.779 20.0246 109.85 20.2572 109.85 20.5595C109.85 21.42 109.181 21.8386 107.818 21.8386C107.292 21.8386 106.742 21.7455 106.096 21.5363C105.45 21.3269 104.852 21.0246 104.35 20.6758L104.23 20.5827V23.5362L104.302 23.5595C104.757 23.7688 105.307 23.9083 105.976 24.0711C106.646 24.1874 107.244 24.2804 107.77 24.2804C109.372 24.2804 110.688 23.9316 111.621 23.1642C112.577 22.4199 113.079 21.4665 113.079 20.2339C113.079 19.3734 112.84 18.606 112.314 18.0246C111.621 17.4665 110.759 16.885 109.516 16.4199ZM116.14 12.6525C117.36 11.42 119.106 10.7921 121.282 10.7921C123.339 10.7921 124.989 11.3735 126.113 12.5595C127.285 13.7455 127.859 15.3735 127.859 17.42C127.859 19.4898 127.261 21.1642 126.018 22.42C124.798 23.6758 123.1 24.3037 120.971 24.3037C118.938 24.3037 117.312 23.6991 116.116 22.5363C114.92 21.3503 114.299 19.7223 114.299 17.7223C114.299 15.5828 114.92 13.8851 116.14 12.6525ZM123.746 20.699C123.172 21.42 122.263 21.7688 121.139 21.7688C119.991 21.7688 119.106 21.42 118.46 20.6525C117.814 19.9316 117.504 18.8851 117.504 17.5595C117.504 16.1874 117.838 15.1409 118.46 14.3967C119.106 13.6525 119.991 13.2804 121.115 13.2804C122.191 13.2804 123.076 13.6293 123.698 14.3502C124.319 15.0711 124.655 16.1177 124.655 17.4897C124.655 18.8851 124.344 19.9781 123.746 20.699Z" fill="#737373"/>
<path d="M0.0507812 0H14.711V14.2558H0.0507812V0Z" fill="#F25022"/>
<path d="M16.2422 0H30.9024V14.2558H16.2422V0Z" fill="#7FBA00"/>
<path d="M0.0507812 15.7441H14.711V30H0.0507812V15.7441Z" fill="#00A4EF"/>
<path d="M16.2461 15.7441H30.9063V30H16.2461V15.7441Z" fill="#FFB900"/>
</g>
</g>
<defs>
<clipPath id="clip0_4320_215">
<rect width="145" height="30" fill="white"/>
</clipPath>
</defs>
</svg>
