<svg width="61" height="61" viewBox="0 0 61 61" fill="none" xmlns="http://www.w3.org/2000/svg"><path d="M34.3097 3.94447C35.0662 4.13634 35.8079 4.38206 36.5294 4.67974C37.2508 4.97961 37.9493 5.33194 38.6192 5.7339L41.2796 4.37667C41.4469 4.29192 41.6367 4.26222 41.8219 4.2918C42.0071 4.32138 42.1782 4.40874 42.3107 4.54138L45.3204 7.551C45.4575 7.68845 45.5458 7.86701 45.5719 8.05939C45.5979 8.25177 45.5603 8.44739 45.4647 8.61636L44.1279 11.2392C44.933 12.5814 45.5362 14.0348 45.9179 15.5527L48.751 16.4751C48.939 16.536 49.1012 16.658 49.212 16.8216C49.3228 16.9853 49.3757 17.1812 49.3624 17.3784V21.5772C49.3628 21.7639 49.3037 21.9459 49.1938 22.0968C49.0839 22.2477 48.9288 22.3597 48.751 22.4166V22.4205L45.9179 23.3429C45.7272 24.1002 45.4814 24.8424 45.1827 25.5639C44.882 26.2858 44.5297 26.9851 44.1285 27.6564L45.4824 30.3136C45.5685 30.4803 45.5993 30.6701 45.5702 30.8555C45.5412 31.0409 45.4539 31.2122 45.321 31.3446L42.3114 34.3543C42.174 34.4911 41.9958 34.5795 41.8037 34.6061C41.6117 34.6327 41.4162 34.5961 41.2467 34.5019L38.6232 33.1618C37.9532 33.5657 37.2534 33.9181 36.53 34.2159C35.8081 34.5159 35.0649 34.7617 34.3064 34.9512L33.384 37.7842C33.323 37.9715 33.2015 38.1332 33.0386 38.2439C32.8757 38.3546 32.6806 38.408 32.484 38.3956H28.2865C28.0996 38.3945 27.918 38.3342 27.7676 38.2232C27.6172 38.1123 27.506 37.9565 27.4498 37.7783L27.4465 37.7816L26.5241 34.9485C25.0062 34.5668 23.5528 33.9636 22.2106 33.1585L19.5535 34.515C19.3861 34.5999 19.1962 34.6297 19.0109 34.6001C18.8255 34.5705 18.6543 34.4831 18.5217 34.3503L15.5121 31.3394C15.3747 31.203 15.2858 31.0253 15.2592 30.8336C15.2325 30.6418 15.2695 30.4467 15.3645 30.278L16.7013 27.6511C16.2988 26.9806 15.9464 26.2812 15.6472 25.5586C15.3469 24.8377 15.1012 24.0953 14.9119 23.3377L12.0788 22.4153C11.891 22.3539 11.7289 22.2318 11.6182 22.0681C11.5075 21.9044 11.4544 21.7085 11.4674 21.5113V17.3191C11.4672 17.132 11.5262 16.9497 11.6361 16.7983C11.7459 16.6469 11.9009 16.5342 12.0788 16.4764L14.9119 15.554C15.2944 14.0369 15.8963 12.5838 16.6987 11.2406L15.3447 8.58407C15.2599 8.41669 15.2302 8.22678 15.2598 8.04149C15.2894 7.85619 15.3768 7.68498 15.5095 7.55232L18.5191 4.5427C18.6558 4.40588 18.8334 4.31743 19.025 4.29079C19.2166 4.26415 19.4116 4.30078 19.5805 4.39512L22.2073 5.73522C22.8787 5.3339 23.5783 4.98159 24.3005 4.68106C25.0225 4.38174 25.7655 4.13555 26.5234 3.94447L27.4458 1.11142C27.504 0.933736 27.6167 0.778959 27.7681 0.669165C27.9194 0.559371 28.1015 0.50017 28.2885 0.500007H32.5446C32.7425 0.499223 32.9349 0.564621 33.0913 0.685797C33.2477 0.806973 33.3591 0.976967 33.4077 1.16874L34.3097 3.94447ZM5.8514 52.9845H5.92914V51.6813C5.93371 51.3029 5.86294 50.9273 5.72095 50.5764C5.57404 50.2299 5.3592 49.9162 5.08911 49.654L1.49839 46.0666C1.06274 45.6384 0.717757 45.1269 0.484014 44.5625C0.250271 43.9981 0.13255 43.3924 0.137868 42.7816V16.4277C0.137868 15.519 0.498822 14.6476 1.14132 14.0051C1.78382 13.3626 2.65524 13.0017 3.56388 13.0017C4.47251 13.0017 5.34393 13.3626 5.98643 14.0051C6.62894 14.6476 6.98989 15.519 6.98989 16.4277V23.5696C7.63927 23.2103 8.38813 23.0726 9.12285 23.1775C9.85756 23.2823 10.538 23.624 11.0609 24.1507C11.7029 24.792 12.0643 25.6619 12.0657 26.5693V34.3958L19.5765 42.0312C20.0036 42.4581 20.3414 42.9657 20.5703 43.5245C20.7993 44.0833 20.9148 44.682 20.91 45.2859V52.9944C21.3521 53.0349 21.7633 53.2385 22.0633 53.5657C22.3633 53.8929 22.5307 54.3201 22.5328 54.7641V58.7211C22.5314 59.1925 22.3435 59.6441 22.0102 59.9774C21.6769 60.3107 21.2253 60.4986 20.7539 60.5H5.8514C5.37961 60.5 4.92714 60.3126 4.59353 59.979C4.25993 59.6454 4.07251 59.1929 4.07251 58.7211V54.7614C4.07251 54.2896 4.25993 53.8372 4.59353 53.5036C4.92714 53.17 5.37961 52.9825 5.8514 52.9825V52.9845ZM5.92914 54.7634H5.8514V58.7165H20.7493V54.7634H5.92914ZM10.2887 33.003V26.5693C10.2887 26.1319 10.115 25.7125 9.80573 25.4032C9.49647 25.094 9.07701 24.9202 8.63965 24.9202C8.20228 24.9202 7.78282 25.094 7.47356 25.4032C7.16429 25.7125 6.99055 26.1319 6.99055 26.5693V33.1466C7.5581 32.8452 8.1928 32.6927 8.83532 32.7032C9.33335 32.71 9.82543 32.8124 10.2848 33.0049L10.2887 33.003ZM14.8572 45.6601C14.9421 45.7423 15.0097 45.8407 15.056 45.9494C15.1023 46.0581 15.1264 46.175 15.1268 46.2932C15.1273 46.4113 15.1041 46.5284 15.0587 46.6375C15.0132 46.7466 14.9464 46.8455 14.8622 46.9283C14.7779 47.0112 14.678 47.0764 14.5682 47.1201C14.4584 47.1637 14.3409 47.185 14.2228 47.1826C14.1046 47.1802 13.9882 47.1542 13.8802 47.1062C13.7722 47.0581 13.675 46.9889 13.5942 46.9027C11.0747 44.3314 8.55575 41.7615 6.0372 39.1928C5.73694 38.8841 5.49181 38.5263 5.31246 38.1347C5.30521 38.1209 5.29863 38.1044 5.29204 38.0906C5.2423 37.9798 5.19831 37.8666 5.16027 37.7513C5.13655 37.6775 5.11349 37.6004 5.09438 37.5233C5.00726 37.2011 4.96295 36.8688 4.96261 36.5351C4.96442 36.303 4.98647 36.0715 5.0285 35.8433L5.03509 35.8163C5.07556 35.5939 5.13644 35.3758 5.21693 35.1646V16.425C5.21693 15.9876 5.04315 15.568 4.73382 15.2587C4.4245 14.9494 4.00496 14.7756 3.5675 14.7756C3.13005 14.7756 2.71051 14.9494 2.40118 15.2587C2.09185 15.568 1.91808 15.9876 1.91808 16.425V42.779C1.91358 43.1574 1.98435 43.533 2.12627 43.8838C2.27294 44.2305 2.48781 44.5442 2.75811 44.8062L6.34883 48.3937C6.78448 48.8219 7.12946 49.3334 7.36321 49.8978C7.59695 50.4622 7.71467 51.0678 7.70935 51.6787V52.9819H19.1265V45.2859C19.1332 44.9125 19.0661 44.5415 18.9289 44.1942C18.7838 43.8492 18.5728 43.5358 18.3076 43.2718L10.269 35.0948C9.88638 34.705 9.36564 34.4816 8.81951 34.4729C8.55001 34.4684 8.28227 34.5171 8.03163 34.6163C7.78099 34.7154 7.55236 34.863 7.35884 35.0507L7.3516 35.0579C7.16971 35.2361 7.02289 35.4469 6.91873 35.6792V35.6825C6.82943 35.8842 6.77165 36.0984 6.74743 36.3176C6.7402 36.3767 6.73667 36.4361 6.73689 36.4955C6.73352 36.6753 6.7539 36.8547 6.79751 37.0292C6.81425 37.0961 6.83448 37.1621 6.85812 37.2268C6.95439 37.4979 7.10786 37.7451 7.30811 37.9516L14.8572 45.6601ZM54.9778 54.7634H40.0799V58.7165H54.9778V54.7634ZM54.9033 52.9845H54.9811C55.4519 52.9859 55.903 53.1739 56.2355 53.5074C56.568 53.8409 56.7547 54.2925 56.7547 54.7634V58.7204C56.7547 59.1913 56.568 59.643 56.2355 59.9765C55.903 60.3099 55.4519 60.4979 54.9811 60.4993H40.0799C39.6081 60.4993 39.1556 60.3119 38.822 59.9783C38.4884 59.6447 38.301 59.1922 38.301 58.7204V54.7614C38.3016 54.3171 38.4685 53.889 38.7688 53.5615C39.0691 53.234 39.4811 53.0308 39.9237 52.9918V45.2832C39.919 44.6794 40.0345 44.0807 40.2634 43.5219C40.4924 42.9631 40.8302 42.4555 41.2572 42.0285L48.7635 34.3958V26.5693C48.7629 25.9742 48.9176 25.3892 49.2122 24.8721C49.5068 24.355 49.9312 23.9237 50.4435 23.6208C50.9558 23.3179 51.5382 23.1538 52.1333 23.1449C52.7283 23.1359 53.3155 23.2823 53.8366 23.5696V16.425C53.8366 15.5164 54.1976 14.645 54.8401 14.0025C55.4826 13.36 56.354 12.999 57.2626 12.999C58.1713 12.999 59.0427 13.36 59.6852 14.0025C60.3277 14.645 60.6887 15.5164 60.6887 16.425V42.779C60.694 43.3898 60.5763 43.9955 60.3425 44.5598C60.1088 45.1242 59.7638 45.6358 59.3281 46.064L55.7407 49.6514C55.4707 49.9144 55.2549 50.2278 55.1056 50.5738C54.9663 50.9253 54.8967 51.3006 54.9007 51.6787L54.9033 52.9845ZM53.8386 26.5693C53.8386 26.1325 53.6651 25.7135 53.3562 25.4046C53.0473 25.0957 52.6283 24.9222 52.1915 24.9222C51.7547 24.9222 51.3357 25.0957 51.0268 25.4046C50.7179 25.7135 50.5444 26.1325 50.5444 26.5693V33.0049C51.0035 32.8118 51.4957 32.7093 51.9938 32.7032C52.6364 32.6921 53.2713 32.8447 53.8386 33.1466V26.5693ZM47.2383 46.9047C47.0735 47.0726 46.8488 47.1682 46.6135 47.1704C46.3783 47.1726 46.1517 47.0813 45.9838 46.9165C45.8159 46.7517 45.7203 46.527 45.7181 46.2918C45.7159 46.0565 45.8072 45.83 45.972 45.6621L53.523 37.9536C53.7243 37.7472 53.8788 37.5001 53.9763 37.2288C54.0003 37.1641 54.0205 37.0981 54.0369 37.0312C54.0805 36.8567 54.1009 36.6773 54.0975 36.4975C54.0978 36.438 54.0942 36.3786 54.087 36.3196C54.0628 36.1004 54.005 35.8862 53.9157 35.6845V35.6812C53.8118 35.4487 53.6649 35.2379 53.4828 35.0599L53.4762 35.0526C53.0848 34.6743 52.5593 34.4665 52.0149 34.4748C51.4673 34.4836 50.9449 34.7069 50.5602 35.0968L42.5222 43.2757C42.2553 43.5373 42.0449 43.8508 41.9039 44.1969C41.763 44.5429 41.6945 44.9142 41.7026 45.2878V52.9845H53.1264V51.6813C53.1215 51.0705 53.2394 50.465 53.4731 49.9007C53.7068 49.3363 54.0516 48.8248 54.4869 48.3963L58.0744 44.8089C58.3486 44.5484 58.5651 44.2332 58.7098 43.8838C58.8545 43.5343 58.9242 43.1584 58.9144 42.7803V16.4263C58.9144 15.9889 58.7406 15.5694 58.4313 15.26C58.1219 14.9507 57.7024 14.7769 57.265 14.7769C56.8275 14.7769 56.408 14.9507 56.0986 15.26C55.7893 15.5694 55.6155 15.9889 55.6155 16.4263V35.162C55.6971 35.3731 55.7591 35.5912 55.8007 35.8136V35.8406C55.8443 36.0686 55.8664 36.3003 55.8665 36.5324C55.8675 36.866 55.8246 37.1983 55.7387 37.5207C55.7183 37.5978 55.6952 37.6749 55.6728 37.7487C55.6327 37.8633 55.5885 37.974 55.5411 38.088C55.5347 38.1035 55.5268 38.1183 55.5174 38.1321C55.337 38.5231 55.092 38.8808 54.7926 39.1902C52.2802 41.7663 49.761 44.338 47.235 46.9053L47.2383 46.9047ZM30.4146 9.80426C32.6448 9.80521 34.8058 10.5794 36.5292 11.995C38.2527 13.4105 39.432 15.3799 39.8662 17.5674C40.3005 19.755 39.9628 22.0255 38.9108 23.992C37.8588 25.9585 36.1574 27.4994 34.0966 28.3522C32.0359 29.205 29.7431 29.3169 27.6091 28.6688C25.4751 28.0207 23.6318 26.6528 22.3933 24.798C21.1548 22.9433 20.5977 20.7164 20.8169 18.497C21.0361 16.2775 22.0181 14.2027 23.5955 12.6261C24.4906 11.7303 25.5537 11.02 26.7239 10.5357C27.894 10.0515 29.1482 9.80293 30.4146 9.80426ZM35.9733 13.8825C34.6862 12.5966 32.993 11.7967 31.1823 11.619C29.3716 11.4414 27.5553 11.8971 26.0428 12.9085C24.5304 13.9199 23.4154 15.4243 22.8878 17.1656C22.3602 18.9068 22.4527 20.7772 23.1494 22.4579C23.8462 24.1386 25.1041 25.5258 26.7089 26.3831C28.3137 27.2404 30.1661 27.5147 31.9505 27.1594C33.7349 26.8041 35.3409 25.8411 36.4949 24.4345C37.6489 23.0278 38.2795 21.2646 38.2793 19.4452C38.2805 18.4118 38.0774 17.3883 37.6816 16.4337C37.2859 15.479 36.7053 14.612 35.9733 13.8825ZM35.8481 6.31632C35.0672 5.99273 34.2589 5.73982 33.4328 5.56062C33.2805 5.52839 33.1395 5.45661 33.0238 5.35251C32.9081 5.24841 32.822 5.11567 32.7739 4.96766L31.9009 2.27363H28.9315L28.0684 4.93274C28.0256 5.08916 27.9405 5.23078 27.8226 5.3421C27.7046 5.45342 27.5583 5.53016 27.3997 5.56391C26.5726 5.74204 25.7632 5.99385 24.9811 6.31632C24.2128 6.63635 23.4736 7.02234 22.7719 7.46996C22.6399 7.56616 22.4837 7.6237 22.3208 7.63615C22.1579 7.6486 21.9947 7.61547 21.8496 7.54046L19.3202 6.25373L17.2238 8.35018L18.5105 10.8795C18.5805 11.0173 18.6133 11.171 18.6056 11.3254C18.598 11.4798 18.5502 11.6295 18.467 11.7597C18.0082 12.4739 17.6125 13.2268 17.2844 14.0097C16.9623 14.792 16.7105 15.6014 16.532 16.4283C16.4988 16.5801 16.4266 16.7207 16.3227 16.8362C16.2187 16.9517 16.0865 17.0382 15.939 17.0872L13.2377 17.9641V20.9289L15.8982 21.7953C16.055 21.838 16.1971 21.923 16.309 22.0409C16.4208 22.1588 16.4982 22.3052 16.5326 22.464C16.7112 23.291 16.963 24.1004 17.2851 24.8827C17.6058 25.6512 17.9924 26.3906 18.4407 27.0924C18.537 27.2244 18.5946 27.3807 18.6071 27.5436C18.6195 27.7065 18.5863 27.8697 18.5112 28.0148L17.2244 30.5441L19.3209 32.6406L21.8496 31.3526C21.9874 31.2826 22.1411 31.2499 22.2954 31.2575C22.4498 31.2651 22.5995 31.3129 22.7298 31.396C23.4425 31.8564 24.1956 32.2512 24.9797 32.5754C25.7623 32.8984 26.5722 33.1506 27.3997 33.3291C27.5514 33.3615 27.6919 33.4334 27.8069 33.5375C27.9218 33.6417 28.0073 33.7743 28.0546 33.9221L28.9315 36.6194H31.8963L32.7594 33.9629C32.8032 33.806 32.8889 33.664 33.0073 33.5521C33.1257 33.4402 33.2723 33.3627 33.4314 33.3278C35.0743 32.9703 36.6404 32.3233 38.0566 31.4171C38.1889 31.3216 38.3451 31.2645 38.5078 31.2521C38.6706 31.2396 38.8336 31.2724 38.979 31.3466L41.5083 32.6334L43.6047 30.5369L42.3147 28.0076C42.2439 27.87 42.2107 27.7162 42.2183 27.5616C42.226 27.4071 42.2742 27.2573 42.3582 27.1274C42.8186 26.4146 43.2133 25.6615 43.5375 24.8774C43.8611 24.0954 44.114 23.2859 44.2932 22.4588C44.3258 22.3071 44.3978 22.1668 44.5019 22.0518C44.606 21.9368 44.7385 21.8513 44.8862 21.8039L47.5875 20.9236V17.9588L44.927 17.0924C44.7703 17.0501 44.6284 16.9652 44.517 16.8472C44.4056 16.7292 44.3291 16.5826 44.2959 16.4237C43.94 14.7804 43.2929 13.214 42.3852 11.7986C42.2899 11.6662 42.2327 11.5103 42.2197 11.3477C42.2067 11.1851 42.2384 11.0221 42.3114 10.8762L43.6014 8.34689L41.505 6.25043L38.9796 7.54046C38.8412 7.6104 38.687 7.64317 38.5321 7.63554C38.3772 7.62792 38.227 7.58017 38.0961 7.49698C37.3833 7.03658 36.6303 6.64185 35.8461 6.31764L35.8481 6.31632Z" fill="#0CB4C4"></path></svg>