<svg width="59" height="61" viewBox="0 0 59 61" fill="none" xmlns="http://www.w3.org/2000/svg"><path d="M58.4623 57.3945C57.496 44.5127 48.0036 34.0327 35.8088 31.3537C36.6619 31.0005 37.4869 30.5733 38.2726 30.0728C40.6324 28.5707 42.5543 26.4855 43.8565 24.0218C45.7598 23.5973 47.1879 21.8966 47.1879 19.8667V19.5881H48.0069C48.8972 19.5881 49.6216 18.8637 49.6216 17.9734V13.2499C49.6216 12.3595 48.8972 11.6351 48.0069 11.6351H47.3292C47.6104 11.3812 47.7883 11.0147 47.7883 10.6068V9.02211C47.7883 8.25774 47.1666 7.6353 46.4015 7.6353H43.0148C40.0286 3.15766 35.0798 0.5 29.6732 0.5C24.7803 0.5 20.2607 2.66585 17.1985 6.45908H13.2867C12.3337 6.45908 11.558 7.23479 11.558 8.18776V10.9887C11.558 11.218 11.604 11.4365 11.6853 11.6371H11.3401C10.4498 11.6371 9.72537 12.3615 9.72537 13.2518V17.9754C9.72537 18.8657 10.4498 19.5901 11.3401 19.5901H12.1591V19.8687C12.1591 21.8979 13.5866 23.5993 15.4905 24.0231C16.7927 26.4862 18.7146 28.5721 21.0744 30.0735C21.8608 30.574 22.6851 31.0011 23.5382 31.3543C11.3428 34.0327 1.85034 44.5134 0.884043 57.3945C0.824066 58.1969 1.10063 58.9926 1.64442 59.5784C2.18822 60.1641 2.96126 60.5 3.76562 60.5H55.5807C56.3851 60.5 57.1581 60.1641 57.7019 59.5784C58.245 58.9926 58.5223 58.1969 58.4623 57.3945ZM47.739 17.7068H47.1872V13.5191H47.739V17.7068ZM45.9064 10.113H21.3516V9.51993H45.9064V10.113ZM29.6732 2.38262C34.0075 2.38262 38.0087 4.31922 40.6817 7.6373H21.2603C21.0404 6.98488 20.4413 6.5064 19.7263 6.46441C22.3606 3.8494 25.8906 2.38262 29.6732 2.38262ZM13.44 8.34104H19.469V10.8341H13.44V8.34104ZM11.6073 17.7068V13.5191H12.1591V17.7068H11.6073ZM14.0411 19.8673V12.7167H19.623C20.2001 12.7167 20.7112 12.4315 21.0251 11.995H45.3053V19.8673C45.3053 21.1769 44.2397 22.2425 42.9302 22.2425H36.168C35.6689 22.2425 35.2497 21.9512 34.6733 21.2028L31.9117 17.6189C31.4438 17.0118 30.7668 16.3147 29.6725 16.3147C28.5789 16.3147 27.9012 17.0118 27.4333 17.6189L24.6724 21.2028C24.0959 21.9506 23.6768 22.2425 23.1776 22.2425H16.4168C15.1067 22.2425 14.0411 21.1769 14.0411 19.8673ZM17.7223 24.1251H23.1783C24.6137 24.1251 25.5281 23.1774 26.1638 22.3524L28.9248 18.7691C29.29 18.2953 29.4879 18.198 29.6725 18.198C29.8571 18.198 30.055 18.2953 30.4202 18.7684L33.1818 22.3524C33.8176 23.1781 34.7319 24.1251 36.1674 24.1251H41.6233C39.0403 28.2095 34.5906 30.6893 29.6725 30.6893C24.7544 30.6893 20.3054 28.2095 17.7223 24.1251ZM56.3218 58.2982C56.1305 58.5041 55.8673 58.6174 55.5807 58.6174H3.76562C3.47906 58.6174 3.21583 58.5041 3.02457 58.2975C2.83331 58.0916 2.74001 57.8203 2.76133 57.5345C3.8116 43.5371 15.6325 32.5712 29.6732 32.5712C43.7139 32.5712 55.5347 43.5364 56.585 57.5351C56.6063 57.821 56.513 58.0922 56.3218 58.2982ZM16.7927 20.817C16.5515 20.817 16.3109 20.725 16.127 20.5411C15.7591 20.1732 15.7591 19.5775 16.127 19.2103L21.9601 13.3778C22.3279 13.0106 22.9237 13.0106 23.2909 13.3778C23.6588 13.7457 23.6588 14.3414 23.2909 14.7086L17.4578 20.5411C17.2745 20.725 17.0333 20.817 16.7927 20.817ZM16.0496 17.2217C15.6818 16.8538 15.6818 16.258 16.0496 15.8909L18.64 13.3005C19.0079 12.9333 19.6036 12.9333 19.9708 13.3005C20.3387 13.6684 20.3387 14.2641 19.9708 14.6313L17.3805 17.2217C17.1965 17.4056 16.956 17.4976 16.7147 17.4976C16.4742 17.4969 16.2336 17.4049 16.0496 17.2217ZM23.3682 16.6972C23.7361 17.0651 23.7361 17.6609 23.3682 18.028L20.7779 20.6184C20.5939 20.8023 20.3534 20.8943 20.1121 20.8943C19.8715 20.8943 19.6303 20.8023 19.4464 20.6184C19.0785 20.2505 19.0785 19.6548 19.4464 19.2876L22.0367 16.6972C22.4046 16.33 23.001 16.33 23.3682 16.6972ZM36.0554 19.2103L41.8879 13.3778C42.2557 13.0106 42.8515 13.0106 43.2187 13.3778C43.5866 13.7457 43.5866 14.3414 43.2187 14.7086L37.3863 20.5411C37.2023 20.725 36.9618 20.817 36.7205 20.817C36.4793 20.817 36.2387 20.725 36.0548 20.5411C35.6876 20.1739 35.6876 19.5781 36.0554 19.2103ZM43.2967 16.6972C43.6646 17.0651 43.6646 17.6609 43.2967 18.028L40.7063 20.6184C40.5224 20.8023 40.2818 20.8943 40.0406 20.8943C39.7993 20.8943 39.5588 20.8023 39.3748 20.6184C39.007 20.2505 39.007 19.6548 39.3748 19.2876L41.9652 16.6972C42.3331 16.33 42.9288 16.33 43.2967 16.6972ZM35.9781 17.2217C35.6103 16.8538 35.6103 16.258 35.9781 15.8909L38.5685 13.3005C38.9363 12.9333 39.5321 12.9333 39.8993 13.3005C40.2672 13.6684 40.2672 14.2641 39.8993 14.6313L37.3089 17.2217C37.125 17.4056 36.8844 17.4976 36.6432 17.4976C36.4026 17.4969 36.162 17.4049 35.9781 17.2217ZM18.3001 9.5879C18.3001 10.1077 17.879 10.5289 17.3592 10.5289H15.5505C15.0307 10.5289 14.6095 10.1077 14.6095 9.5879C14.6095 9.0681 15.0307 8.64692 15.5505 8.64692H17.3592C17.879 8.64626 18.3001 9.0681 18.3001 9.5879Z" fill="#0CB4C4"></path></svg>