<svg width="49" height="61" viewBox="0 0 49 61" fill="none" xmlns="http://www.w3.org/2000/svg"><path d="M7.40701 21.8396C7.29932 22.0383 7.30317 22.2793 7.41918 22.4735C7.5352 22.6677 7.74415 22.7869 7.97041 22.7869H10.6772C10.8932 22.7869 11.0944 22.6779 11.213 22.4972C14.0396 18.1848 18.7814 15.6107 23.8976 15.6107C29.9649 15.6107 35.4566 19.2655 37.8397 24.795H36.6276C36.3738 24.795 36.1431 24.9456 36.0405 25.1783C35.9386 25.411 35.9835 25.6827 36.1559 25.8699L39.6235 29.6419C39.7446 29.7746 39.9164 29.849 40.0952 29.849C40.1023 29.849 40.1087 29.849 40.1151 29.849C40.3016 29.8432 40.476 29.7567 40.5933 29.6118L43.6481 25.8398C43.8032 25.6475 43.8346 25.3834 43.7282 25.1604C43.6218 24.9373 43.3968 24.7957 43.15 24.7957H41.6854C39.1037 17.1298 32.014 12.0137 23.8969 12.0137C17.0252 12.0137 10.7067 15.7787 7.40701 21.8396ZM23.8969 13.2956C31.607 13.2956 38.3217 18.2502 40.6067 25.6257C40.69 25.8936 40.9381 26.0769 41.2188 26.0769H41.8059L40.0651 28.2274L38.0877 26.0769H38.7825C38.9915 26.0769 39.187 25.975 39.3068 25.8045C39.4267 25.634 39.4556 25.4155 39.385 25.2187C37.0366 18.7053 30.8122 14.3288 23.8969 14.3288C18.4629 14.3288 13.4192 17.0048 10.3343 21.505H9.0876C12.2828 16.4145 17.861 13.2956 23.8969 13.2956Z" fill="#0CB4C4"></path><path d="M39.9112 41.7313C40.0439 41.5345 40.0573 41.2813 39.9458 41.0724C39.8349 40.8628 39.617 40.732 39.3799 40.732H36.4814C36.2911 40.732 36.111 40.8166 35.9892 40.9621C33.0908 44.438 28.8521 46.4314 24.3596 46.4314C18.4346 46.4314 13.1506 43.0427 10.6444 37.7202H11.6623C11.6642 37.7202 11.6667 37.7202 11.6687 37.7202C12.0116 37.742 12.316 37.4356 12.316 37.0792C12.316 36.8856 12.2302 36.7126 12.0943 36.5946L9.10548 32.904C8.98818 32.7585 8.8132 32.6726 8.62733 32.6662C8.44465 32.6617 8.26134 32.7361 8.13507 32.8732L4.66813 36.6453C4.49571 36.8324 4.45084 37.1042 4.5534 37.3369C4.65595 37.5695 4.88605 37.7202 5.14051 37.7202H6.7365C9.44968 45.1021 16.4739 50.0285 24.359 50.0285C30.5878 50.0291 36.402 46.9275 39.9112 41.7313ZM24.3603 48.7472C16.87 48.7472 10.2143 43.9759 7.79793 36.8735C7.70947 36.6139 7.46527 36.4389 7.19094 36.4389H6.60126L8.57797 34.2891L10.3195 36.4389H9.66888C9.45608 36.4389 9.25739 36.544 9.13817 36.7196C9.01895 36.8952 8.99459 37.1189 9.07279 37.317C11.5866 43.633 17.5873 47.714 24.3603 47.714C29.1335 47.714 33.642 45.6405 36.7782 42.0139H38.1223C34.8085 46.2513 29.7507 48.7472 24.3603 48.7472Z" fill="#0CB4C4"></path><path d="M18.4847 28.172V27.2234C18.4847 25.8902 17.4002 24.8057 16.0671 24.8057H3.27609C1.9429 24.8057 0.858398 25.8902 0.858398 27.2234V28.172C0.858398 29.5052 1.9429 30.5897 3.27609 30.5897H16.0677C17.4002 30.5897 18.4847 29.5052 18.4847 28.172ZM2.13967 28.172V27.2234C2.13967 26.5965 2.64924 26.0876 3.27545 26.0876H16.0671C16.6933 26.0876 17.2028 26.5971 17.2028 27.2234V28.172C17.2028 28.7982 16.6933 29.3078 16.0671 29.3078H3.27609C2.64923 29.3078 2.13967 28.7982 2.13967 28.172Z" fill="#0CB4C4"></path><path d="M4.93295 26.4561C4.57914 26.4561 4.29199 26.7432 4.29199 27.097V28.2982C4.29199 28.652 4.57914 28.9391 4.93295 28.9391C5.28676 28.9391 5.57391 28.652 5.57391 28.2982V27.097C5.57391 26.7426 5.28676 26.4561 4.93295 26.4561Z" fill="#0CB4C4"></path><path d="M3.46615 26.4561C3.11234 26.4561 2.8252 26.7432 2.8252 27.097V28.2982C2.8252 28.652 3.11234 28.9391 3.46615 28.9391C3.81996 28.9391 4.10711 28.652 4.10711 28.2982V27.097C4.10711 26.7426 3.81996 26.4561 3.46615 26.4561Z" fill="#0CB4C4"></path><path d="M6.35385 26.4561C6.00004 26.4561 5.71289 26.7432 5.71289 27.097V28.2982C5.71289 28.652 6.00004 28.9391 6.35385 28.9391C6.70766 28.9391 6.99481 28.652 6.99481 28.2982V27.097C6.99481 26.7426 6.7083 26.4561 6.35385 26.4561Z" fill="#0CB4C4"></path><path d="M11.5949 26.2578C10.8014 26.2578 10.1553 26.9039 10.1553 27.698C10.1553 28.4922 10.8014 29.1389 11.5949 29.1389C12.389 29.1389 13.0357 28.4928 13.0357 27.698C13.0357 26.9033 12.389 26.2578 11.5949 26.2578ZM11.4372 27.698C11.4372 27.6109 11.5077 27.5397 11.5949 27.5397C11.6827 27.5397 11.7538 27.6109 11.7538 27.698C11.7532 27.8724 11.4365 27.8737 11.4372 27.698Z" fill="#0CB4C4"></path><path d="M16.5894 27.698C16.5894 26.9039 15.9434 26.2578 15.1486 26.2578C14.3551 26.2578 13.709 26.9039 13.709 27.698C13.709 28.4922 14.3551 29.1389 15.1486 29.1389C15.9434 29.1383 16.5894 28.4922 16.5894 27.698ZM14.9909 27.698C14.9909 27.6109 15.0614 27.5397 15.1486 27.5397C15.2364 27.5397 15.3075 27.6109 15.3075 27.698C15.3075 27.8724 14.9909 27.8737 14.9909 27.698Z" fill="#0CB4C4"></path><path d="M29.7539 34.004V34.9539C29.7539 36.2871 30.8384 37.3709 32.1716 37.3709H44.9632C46.2964 37.3709 47.3803 36.2871 47.3803 34.9539V34.004C47.3803 32.6714 46.2964 31.5869 44.9632 31.5869H32.1716C30.8384 31.5869 29.7539 32.6714 29.7539 34.004ZM46.099 34.004V34.9539C46.099 35.5801 45.5894 36.089 44.9638 36.089H32.1716C31.5447 36.089 31.0358 35.5794 31.0358 34.9539V34.004C31.0358 33.3778 31.5454 32.8688 32.1716 32.8688H44.9632C45.5894 32.8688 46.099 33.3778 46.099 34.004Z" fill="#0CB4C4"></path><path d="M31.7676 33.8783V35.0788C31.7676 35.4332 32.0541 35.7197 32.4085 35.7197C32.763 35.7197 33.0495 35.4332 33.0495 35.0788V33.8783C33.0495 33.5238 32.763 33.2373 32.4085 33.2373C32.0541 33.2373 31.7676 33.5245 31.7676 33.8783Z" fill="#0CB4C4"></path><path d="M33.8304 35.7197C34.1849 35.7197 34.4714 35.4332 34.4714 35.0788V33.8783C34.4714 33.5238 34.1849 33.2373 33.8304 33.2373C33.476 33.2373 33.1895 33.5238 33.1895 33.8783V35.0788C33.1895 35.4332 33.476 35.7197 33.8304 35.7197Z" fill="#0CB4C4"></path><path d="M35.2513 35.7197C35.6058 35.7197 35.8923 35.4332 35.8923 35.0788V33.8783C35.8923 33.5238 35.6058 33.2373 35.2513 33.2373C34.8969 33.2373 34.6104 33.5238 34.6104 33.8783V35.0788C34.6104 35.4332 34.8969 35.7197 35.2513 35.7197Z" fill="#0CB4C4"></path><path d="M40.492 35.9202C41.2861 35.9202 41.9322 35.2734 41.9322 34.4793C41.9322 33.6851 41.2861 33.0391 40.492 33.0391C39.6978 33.0391 39.0518 33.6851 39.0518 34.4793C39.0518 35.2734 39.6972 35.9202 40.492 35.9202ZM40.492 34.321C40.5792 34.321 40.6503 34.3921 40.6503 34.4793C40.6503 34.6543 40.3337 34.6543 40.3337 34.4793C40.3337 34.3921 40.4048 34.321 40.492 34.321Z" fill="#0CB4C4"></path><path d="M44.0457 35.9202C44.8398 35.9202 45.4859 35.2734 45.4859 34.4793C45.4859 33.6851 44.8398 33.0391 44.0457 33.0391C43.2516 33.0391 42.6055 33.6851 42.6055 34.4793C42.6055 35.2734 43.2509 35.9202 44.0457 35.9202ZM44.0457 34.321C44.1329 34.321 44.204 34.3921 44.204 34.4793C44.204 34.6543 43.8874 34.6543 43.8874 34.4793C43.8867 34.3921 43.9585 34.321 44.0457 34.321Z" fill="#0CB4C4"></path><path d="M9.67073 50.2432C7.89656 50.2432 6.45312 51.6866 6.45312 53.4608C6.45312 55.2349 7.89656 56.6784 9.67073 56.6784C11.4443 56.6784 12.8877 55.2349 12.8877 53.4608C12.8877 51.6866 11.4443 50.2432 9.67073 50.2432ZM9.67073 55.3958C8.60354 55.3958 7.73504 54.528 7.73504 53.4601C7.73504 52.3923 8.60354 51.5244 9.67073 51.5244C10.7379 51.5244 11.6058 52.3923 11.6058 53.4601C11.6058 54.528 10.7373 55.3958 9.67073 55.3958Z" fill="#0CB4C4"></path><path d="M14.9619 52.0555H14.335L13.9639 51.1537L14.4049 50.7127C14.5869 50.5307 14.6869 50.2884 14.6869 50.0314C14.6869 49.7731 14.5863 49.5315 14.4055 49.3501L13.778 48.7206C13.414 48.3643 12.7884 48.3604 12.4179 48.7258L11.9776 49.1674L11.0758 48.7963V48.1694C11.0758 47.6381 10.6431 47.2061 10.1111 47.2061H9.22981C8.69782 47.2061 8.26517 47.6381 8.26517 48.1694V48.7963L7.36334 49.1674L6.92108 48.7251C6.55766 48.3643 5.92375 48.3636 5.55969 48.7264L4.93347 49.3513C4.55979 49.7269 4.55979 50.3371 4.93411 50.714L5.37637 51.1563L5.00846 52.0568H4.3784C3.84704 52.0568 3.41504 52.4895 3.41504 53.0208V53.9028C3.41504 54.4341 3.84704 54.8668 4.3784 54.8668H5.0059L5.37637 55.7667L4.93347 56.2102C4.55979 56.5858 4.55979 57.1967 4.93411 57.5716L5.56225 58.1998C5.92631 58.5581 6.55573 58.5574 6.92236 58.1946L7.36334 57.7537L8.26517 58.1254V58.7516C8.26517 59.2836 8.69782 59.7163 9.22981 59.7163H10.1111C10.6431 59.7163 11.0758 59.2836 11.0758 58.7516V58.1254L11.9776 57.7543L12.4167 58.1934C12.7801 58.5613 13.4198 58.5619 13.7832 58.1953L14.4043 57.5723C14.5863 57.3909 14.6869 57.1492 14.6876 56.8909C14.6876 56.6326 14.5876 56.3903 14.4055 56.2083L13.9646 55.7673L14.3325 54.8661H14.9619C15.4933 54.8661 15.9259 54.4335 15.9259 53.9021V53.0195C15.9253 52.4875 15.4933 52.0555 14.9619 52.0555ZM14.6433 53.5829H14.1927C13.7313 53.5829 13.2986 53.9041 13.1852 54.2899L12.7538 55.3385C12.557 55.7379 12.641 56.2602 12.9551 56.5711L13.2736 56.8897L13.0999 57.0634L12.7814 56.7448C12.4756 56.4391 11.9417 56.3519 11.5501 56.5435L10.5239 56.9659C10.1047 57.1089 9.79321 57.5377 9.79321 57.9831V58.4337H9.54644V57.9831C9.54644 57.5377 9.23558 57.1089 8.81703 56.9666L7.79022 56.5435C7.39923 56.3525 6.8666 56.4391 6.5583 56.7454L6.23974 57.0634L6.0654 56.8897L6.38139 56.5737C6.69739 56.2609 6.78199 55.7372 6.5865 55.3392L6.17565 54.3476C6.04169 53.9047 5.6084 53.5836 5.14627 53.5836H4.69631V53.3375H5.14627C5.60776 53.3375 6.0404 53.0157 6.15513 52.6298L6.5865 51.58C6.78456 51.1768 6.70123 50.6653 6.38268 50.348L6.06476 50.0301L6.2391 49.8564L6.55958 50.1769C6.86788 50.4814 7.40116 50.5692 7.79022 50.3769L8.81639 49.9538C9.23494 49.8103 9.54516 49.3808 9.54516 48.9366V48.4873H9.79193V48.9366C9.79193 49.3815 10.1028 49.8109 10.5213 49.9538L11.5469 50.3762C11.9379 50.5679 12.4692 50.4833 12.7814 50.1743L13.0986 49.8558L13.2723 50.0301L12.9583 50.3468C12.6365 50.6666 12.5545 51.1794 12.7551 51.5832L13.1653 52.5728C13.2999 53.0157 13.7325 53.3375 14.1934 53.3375H14.644L14.6433 53.5829Z" fill="#0CB4C4"></path><path d="M47.3868 57.2111H47.108V56.4246C47.108 56.0702 46.8214 55.7837 46.467 55.7837H40.0215V54.1755H43.2494C43.6038 54.1755 43.8903 53.889 43.8903 53.5346V48.3441C43.8903 47.9896 43.6038 47.7031 43.2494 47.7031H35.5733C35.2188 47.7031 34.9323 47.9896 34.9323 48.3441V53.5346C34.9323 53.889 35.2188 54.1755 35.5733 54.1755H38.7396V55.7837H32.2941C31.9397 55.7837 31.6532 56.0702 31.6532 56.4246V57.3797H31.3744C31.0199 57.3797 30.7334 57.6662 30.7334 58.0206V59.8589C30.7334 60.2133 31.0199 60.4999 31.3744 60.4999H33.2133C33.5677 60.4999 33.8542 60.2133 33.8542 59.8589V58.0206C33.8542 57.6662 33.5677 57.3797 33.2133 57.3797H32.9344V57.0656H35.0932V57.3797H34.8573C34.5029 57.3797 34.2164 57.6662 34.2164 58.0206V59.8589C34.2164 60.2133 34.5029 60.4999 34.8573 60.4999H36.6956C37.05 60.4999 37.3366 60.2133 37.3366 59.8589V58.0206C37.3366 57.6662 37.05 57.3797 36.6956 57.3797H36.3751V57.0656H38.739V57.3797H38.4601C38.1057 57.3797 37.8192 57.6662 37.8192 58.0206V59.8589C37.8192 60.2133 38.1057 60.4999 38.4601 60.4999H40.2991C40.6535 60.4999 40.94 60.2133 40.94 59.8589V58.0206C40.94 57.6662 40.6535 57.3797 40.2991 57.3797H40.0202V57.0656H42.2514V57.3316H41.9752C41.6207 57.3316 41.3342 57.6181 41.3342 57.9726V59.8108C41.3342 60.1653 41.6207 60.4518 41.9752 60.4518H43.8128C44.1672 60.4518 44.4537 60.1653 44.4537 59.8108V57.9726C44.4537 57.6181 44.1672 57.3316 43.8128 57.3316H43.5346V57.0656H45.826V57.2111H45.5472C45.1928 57.2111 44.9063 57.4976 44.9063 57.8521V59.6903C44.9063 60.0448 45.1928 60.3313 45.5472 60.3313H47.3861C47.7406 60.3313 48.0271 60.0448 48.0271 59.6903V57.8521C48.0277 57.4976 47.7412 57.2111 47.3868 57.2111ZM32.5723 59.2179H32.0153V58.6616H32.5723V59.2179ZM36.0553 59.2179H35.4989V58.6616H36.0553V59.2179ZM39.6594 59.2179H39.1024V58.6616H39.6594V59.2179ZM36.2142 52.8936V48.985H42.6091V52.8936H36.2142ZM43.1718 59.1699H42.6161V58.6135H43.1718V59.1699ZM46.7458 59.0494H46.1888V58.493H46.7458V59.0494Z" fill="#0CB4C4"></path><path d="M35.5065 12.8969C35.5641 13.0572 35.6821 13.1873 35.8365 13.2597L37.3409 13.9692C37.4293 14.0109 37.5223 14.0308 37.6139 14.0308C37.8543 14.0308 38.0844 13.8955 38.194 13.6635L42.3391 4.88173C42.4115 4.7279 42.4205 4.55164 42.3628 4.3914C42.3051 4.23116 42.1872 4.10105 42.0327 4.02862L40.5284 3.31908C40.2079 3.16845 39.8265 3.30498 39.6752 3.62546L35.5302 12.4072C35.4577 12.5604 35.4488 12.7367 35.5065 12.8969ZM40.561 4.75162L40.9059 4.91442L37.3082 12.5367L36.9634 12.3739L40.561 4.75162Z" fill="#0CB4C4"></path><path d="M31.4293 10.9723C31.487 11.1325 31.6049 11.2633 31.7594 11.3351L33.2644 12.0446C33.3528 12.0863 33.4458 12.1061 33.5374 12.1061C33.7778 12.1061 34.0079 11.9709 34.1175 11.7389L37.162 5.2889C37.2345 5.13507 37.2434 4.95881 37.1858 4.79857C37.1281 4.63833 37.0101 4.50822 36.8557 4.43579L35.3507 3.72561C35.0302 3.57434 34.6488 3.71151 34.4976 4.03198L31.453 10.4826C31.3806 10.6364 31.3716 10.812 31.4293 10.9723ZM35.3834 5.15879L35.7289 5.32159L33.2317 10.6127L32.8862 10.4499L35.3834 5.15879Z" fill="#0CB4C4"></path><path d="M27.6813 9.41111L29.1856 10.1206C29.2741 10.1623 29.367 10.1822 29.4587 10.1822C29.699 10.1822 29.9291 10.0469 30.0387 9.81491L31.9289 5.80956C32.0795 5.48909 31.943 5.10772 31.6225 4.95645L30.1188 4.24691C29.965 4.17384 29.7887 4.16615 29.6285 4.22319C29.4689 4.28088 29.3382 4.39946 29.2657 4.55329L27.3749 8.55863C27.3025 8.71246 27.2935 8.88873 27.3512 9.04833C27.4089 9.20857 27.5274 9.33868 27.6813 9.41111ZM30.1522 5.67945L30.4964 5.84225L29.1529 8.68811L28.8081 8.5253L30.1522 5.67945Z" fill="#0CB4C4"></path><path d="M7.06112 17.1834C7.16816 17.1834 7.27712 17.1565 7.37776 17.0994L16.0121 12.1859C16.1595 12.1019 16.2678 11.9622 16.3133 11.7987C16.3582 11.6353 16.3364 11.4597 16.2525 11.3122L10.2839 0.824236C10.1082 0.516576 9.71789 0.408895 9.40959 0.583877L0.775246 5.49746C0.627825 5.58143 0.519503 5.72116 0.473995 5.8846C0.429128 6.04805 0.450921 6.22367 0.534886 6.37109L6.50349 16.8591C6.62207 17.0674 6.83871 17.1834 7.06112 17.1834ZM9.48651 2.01514L14.8212 11.3891L7.30084 15.6688L1.96615 6.29481L9.48651 2.01514Z" fill="#0CB4C4"></path><path d="M5.22454 6.40487C5.0502 6.09785 4.65922 5.99017 4.35027 6.16451L3.56126 6.61318C3.2536 6.78816 3.14656 7.17915 3.3209 7.48745C3.43883 7.69512 3.65548 7.81113 3.87853 7.81113C3.98557 7.81113 4.09453 7.78421 4.19516 7.72717L4.98418 7.27849C5.29184 7.10415 5.39952 6.71317 5.22454 6.40487Z" fill="#0CB4C4"></path><path d="M6.06017 6.57064C6.16721 6.57064 6.27617 6.54372 6.3768 6.48667L9.3015 4.8221C9.60916 4.64712 9.7162 4.2555 9.54186 3.94784C9.36687 3.64082 8.97589 3.53314 8.66759 3.70748L5.7429 5.37205C5.43524 5.54703 5.3282 5.93865 5.50254 6.24631C5.62111 6.45463 5.83776 6.57064 6.06017 6.57064Z" fill="#0CB4C4"></path><path d="M10.545 5.71193C10.37 5.40427 9.979 5.29659 9.6707 5.47157L4.56419 8.37768C4.25653 8.55266 4.14949 8.94428 4.32383 9.25194C4.4424 9.45961 4.65841 9.57563 4.88146 9.57563C4.9885 9.57563 5.09746 9.54871 5.19809 9.49166L10.3046 6.58556C10.6129 6.41122 10.7199 6.01959 10.545 5.71193Z" fill="#0CB4C4"></path><path d="M9.32057 9.17482C9.14559 8.86716 8.7546 8.75948 8.4463 8.93446L5.75364 10.467C5.44598 10.642 5.33894 11.0336 5.51328 11.3413C5.63186 11.5489 5.84786 11.6649 6.07091 11.6649C6.17795 11.6649 6.28692 11.638 6.38755 11.581L9.08021 10.0484C9.38787 9.87411 9.49555 9.48248 9.32057 9.17482Z" fill="#0CB4C4"></path><path d="M9.87782 8.85774C9.9964 9.06541 10.2124 9.18142 10.4355 9.18142C10.5425 9.18142 10.6515 9.1545 10.7521 9.09746L11.4943 8.67507C11.802 8.50008 11.909 8.10846 11.7347 7.8008C11.5591 7.49314 11.1694 7.38546 10.8604 7.56044L10.1182 7.98283C9.81052 8.15845 9.70284 8.55008 9.87782 8.85774Z" fill="#0CB4C4"></path><path d="M7.62973 13.7636L12.7362 10.8575C13.0439 10.6826 13.1509 10.2909 12.9766 9.98328C12.801 9.67626 12.4113 9.56794 12.1023 9.74292L6.99583 12.649C6.68817 12.824 6.58113 13.2156 6.75547 13.5233C6.87404 13.731 7.09005 13.847 7.3131 13.847C7.42078 13.8476 7.52974 13.8207 7.62973 13.7636Z" fill="#0CB4C4"></path></svg>