<svg width="57" height="60" viewBox="0 0 57 60" fill="none" xmlns="http://www.w3.org/2000/svg"><path d="M28.0076 16.1039C14.4359 16.1039 0.0113678 13.2839 0.0113678 8.05195C0.0113678 2.81998 14.4349 0 28.0076 0C41.5804 0 56.0039 2.81998 56.0039 8.05195C56.0039 13.2839 41.5804 16.1039 28.0076 16.1039ZM28.0076 1.73399C11.7359 1.73399 1.746 5.39986 1.746 8.05206C1.746 10.7038 11.7362 14.3998 28.0076 14.3998C44.2791 14.3998 54.2693 10.7218 54.2693 8.08174C54.2693 5.44207 44.2791 1.73399 28.0076 1.73399Z" fill="#0CB4C4"></path><path d="M28.0076 30.4749C14.4359 30.4749 0.0113638 27.6549 0.0113638 22.423V8.05306C-0.00872539 7.81074 0.073724 7.57092 0.238206 7.39179C0.403108 7.21266 0.634964 7.11096 0.878552 7.11096C1.12171 7.11096 1.354 7.21266 1.51848 7.39179C1.68338 7.57092 1.76583 7.81074 1.74532 8.05306V22.423C1.74532 25.0626 11.7355 28.7406 28.0069 28.7406C44.2784 28.7406 54.2686 25.0626 54.2686 22.4225V8.49085C54.3058 8.0401 54.6829 7.69314 55.1353 7.69314C55.5877 7.69314 55.9648 8.0401 56.0025 8.49085V22.4236C56.0025 27.6556 41.579 30.4756 28.0063 30.4756L28.0076 30.4749Z" fill="#0CB4C4"></path><path d="M28.0076 45.2402C14.4359 45.2402 0.0113678 42.4143 0.0113678 37.2003V22.8004C0.0490347 22.3492 0.426126 22.0027 0.878556 22.0027C1.33099 22.0027 1.70807 22.3492 1.74531 22.8004V37.2003C1.74531 39.8345 11.735 43.5184 28.0069 43.5184C44.2786 43.5184 54.2686 39.8224 54.2686 37.2003V23.2568C54.2481 23.0145 54.3305 22.7747 54.4954 22.5955C54.6599 22.4168 54.8922 22.3147 55.1353 22.3147C55.3789 22.3147 55.6108 22.4168 55.7757 22.5955C55.9402 22.7747 56.0226 23.0145 56.0025 23.2568V37.2003C56.0025 42.4143 41.579 45.2402 28.0063 45.2402H28.0076Z" fill="#0CB4C4"></path><path d="M28.0076 60C14.4359 60 0.0113638 57.18 0.0113638 51.948V37.5781C-0.00872539 37.3358 0.073724 37.0959 0.238206 36.9168C0.403108 36.7381 0.634964 36.636 0.878552 36.636C1.12171 36.636 1.354 36.7381 1.51848 36.9168C1.68338 37.0959 1.76583 37.3358 1.74532 37.5781V51.948C1.74532 54.6002 11.7355 58.2661 28.0069 58.2661C44.2784 58.2661 54.2686 54.6002 54.2686 51.948V38.0163C54.3058 37.5651 54.6829 37.2186 55.1353 37.2186C55.5877 37.2186 55.9648 37.5651 56.0025 38.0163V51.948C56.0025 57.18 41.579 60 28.0063 60H28.0076Z" fill="#0CB4C4"></path></svg>