<svg width="67" height="60" viewBox="0 0 67 60" fill="none" xmlns="http://www.w3.org/2000/svg"><path d="M42.572 12.2341C42.2905 11.9526 42.2905 11.4982 42.572 11.2166C47.4475 6.34109 55.381 6.34109 60.2565 11.2166C60.538 11.4982 60.538 11.9525 60.2565 12.2341C60.1171 12.3735 59.9331 12.4432 59.7491 12.4432C59.5652 12.4432 59.3812 12.3735 59.2418 12.2341C54.9265 7.91886 47.9044 7.91886 43.589 12.2341C43.3075 12.5129 42.8536 12.5129 42.572 12.2341ZM51.4146 11.8104C49.2124 11.8104 47.1412 12.669 45.5829 14.2272C45.3013 14.5088 45.3013 14.9631 45.5829 15.2447C45.8644 15.5263 46.3188 15.5263 46.5976 15.2447C47.8855 13.9568 49.5943 13.2488 51.4146 13.2488C53.2349 13.2488 54.9437 13.9568 56.2316 15.2447C56.371 15.3841 56.555 15.4566 56.739 15.4566C56.923 15.4566 57.1069 15.3869 57.2463 15.2475C57.5279 14.966 57.5279 14.5116 57.2463 14.23C55.688 12.669 53.6169 11.8104 51.4146 11.8104ZM54.0935 18.5564C54.0935 20.0338 52.892 21.2353 51.4146 21.2353C49.9372 21.2353 48.7357 20.0338 48.7357 18.5564C48.7357 17.079 49.9372 15.8775 51.4146 15.8775C52.892 15.8803 54.0935 17.0818 54.0935 18.5564ZM52.6551 18.5564C52.6551 17.8734 52.0976 17.3159 51.4146 17.3159C50.7316 17.3159 50.1741 17.8734 50.1741 18.5564C50.1741 19.2394 50.7316 19.7969 51.4146 19.7969C52.0976 19.7969 52.6551 19.2422 52.6551 18.5564ZM64.4721 45.6772C64.6561 46.94 64.6589 48.2167 64.4749 49.474C64.3132 50.6001 63.3682 51.417 62.2309 51.417H62.2225C61.3668 51.417 60.5695 51.8769 60.1429 52.6156C59.7137 53.3572 59.7164 54.2798 60.1457 55.0214C60.7172 56.0082 60.483 57.2348 59.5882 57.94C58.5903 58.7261 57.4836 59.3644 56.2988 59.8355C55.2423 60.2564 54.0631 59.8467 53.4945 58.8598C53.0679 58.1183 52.2707 57.6556 51.4149 57.6556C50.559 57.6556 49.7618 58.1183 49.3353 58.8598C48.9171 59.5874 48.1673 60 47.3811 60C47.0968 60 46.8069 59.947 46.5281 59.8327C46.0041 59.6237 45.4912 59.3756 44.995 59.0996H0.719197C0.323353 59.0996 0 58.7791 0 58.3804V19.3427C0 19.064 0.16168 18.8103 0.412564 18.6932L22.6407 8.26777C22.8331 8.17577 23.0589 8.17577 23.2512 8.26777L36.7238 14.5873C36.7824 6.534 43.35 0 51.4146 0C59.5158 0 66.1054 6.58995 66.1054 14.6908C66.1054 22.7916 59.5155 29.3787 51.4146 29.3787C49.4633 29.3787 47.5984 28.994 45.8951 28.2999V35.5897C46.1042 35.4921 46.3161 35.4001 46.5307 35.3137C47.5872 34.8928 48.7664 35.3026 49.3351 36.2894C49.7616 37.0309 50.5588 37.4936 51.4147 37.4936C52.2705 37.4936 53.0677 37.0309 53.4942 36.2894C54.0629 35.2998 55.2449 34.89 56.3014 35.3137C56.8868 35.5479 57.461 35.8266 58.0102 36.1444C58.5593 36.4622 59.089 36.819 59.5824 37.2093C60.4772 37.9146 60.7141 39.1411 60.1427 40.1279C59.7134 40.8695 59.7134 41.7921 60.1399 42.5309C60.5664 43.2724 61.3636 43.7295 62.2195 43.7295H62.2251C63.3652 43.7379 64.3074 44.5519 64.4719 45.6781L64.4721 45.6772ZM38.1627 14.69C38.1627 21.9961 44.1087 27.9421 51.4148 27.9421C58.721 27.9421 64.6669 21.9961 64.6669 14.69C64.6669 7.38381 58.721 1.43784 51.4148 1.43784C44.1058 1.43784 38.1627 7.38103 38.1627 14.69ZM1.43858 57.6641H42.949C42.3023 56.9421 42.1797 55.8883 42.6814 55.0214C43.1107 54.2799 43.1135 53.3572 42.6842 52.6185C42.2577 51.877 41.4605 51.4198 40.6046 51.4198H40.599C39.4617 51.4198 38.5195 50.6031 38.355 49.4796C38.171 48.2168 38.1683 46.9401 38.3522 45.6829C38.5167 44.5567 39.4589 43.7399 40.5963 43.7399H40.6046C41.4604 43.7399 42.2577 43.2799 42.6842 42.5412C43.1135 41.7996 43.1107 40.877 42.6814 40.1355C42.11 39.1486 42.3441 37.9221 43.2389 37.2168C43.6292 36.9102 44.0334 36.6259 44.4543 36.3666L44.4571 27.6247C40.2785 25.3694 37.3122 21.1462 36.802 16.2066L22.9476 9.70861L1.43805 19.7972L1.43858 57.6641ZM63.0506 45.8835C62.9892 45.4709 62.6436 45.1726 62.2283 45.1726H62.2227C60.8539 45.1726 59.58 44.4367 58.897 43.2547C58.2141 42.07 58.2141 40.5981 58.8998 39.4106C59.1089 39.0482 59.0225 38.5994 58.6935 38.3402C58.2531 37.9917 57.7792 37.6739 57.2914 37.3896C56.8008 37.1081 56.2879 36.8572 55.7666 36.6481C55.3791 36.492 54.9443 36.6425 54.7379 37.0049C54.055 38.1925 52.781 38.9284 51.4123 38.9284C50.0435 38.9284 48.7696 38.1925 48.0866 37.0049C47.8776 36.6425 47.4455 36.492 47.058 36.6481C46.0015 37.069 45.0147 37.6349 44.1282 38.3374C43.7992 38.5966 43.7128 39.0455 43.9247 39.4078C44.6132 40.5926 44.6132 42.0673 43.9303 43.252C43.2473 44.4367 41.9733 45.1698 40.6046 45.1698H40.5962C40.1781 45.1698 39.8324 45.4681 39.7739 45.8835C39.6122 47.0041 39.6122 48.1415 39.7767 49.2649C39.838 49.6774 40.1837 49.9757 40.599 49.9757H40.6046C41.9733 49.9757 43.2472 50.7116 43.9303 51.8936C44.6132 53.0784 44.6132 54.5502 43.9275 55.7377C43.7184 56.1001 43.8048 56.5489 44.1338 56.8081C44.5742 57.1566 45.0481 57.4744 45.5359 57.7587C46.0265 58.0402 46.5394 58.2911 47.0607 58.5002C47.4482 58.6563 47.883 58.5058 48.0893 58.1434C48.7723 56.9559 50.0463 56.22 51.415 56.22C52.7837 56.22 54.0576 56.9559 54.7407 58.1434C54.9497 58.5058 55.3818 58.6563 55.7693 58.5002C56.8258 58.0793 57.8098 57.5134 58.6991 56.8137C59.028 56.5545 59.1145 56.1057 58.9054 55.7433C58.2168 54.5585 58.2168 53.0839 58.8998 51.8992C59.5828 50.7145 60.8567 49.9813 62.2255 49.9813H62.2338C62.652 49.9813 62.9976 49.683 63.0561 49.2676C63.2178 48.147 63.215 47.0096 63.0506 45.8835ZM56.2098 46.2905C56.5527 47.5728 56.377 48.9108 55.7136 50.0593C54.7936 51.651 53.1211 52.5403 51.4039 52.5403C50.562 52.5403 49.709 52.3256 48.9285 51.8768C46.5562 50.5081 45.7422 47.464 47.1109 45.0946C47.7744 43.946 48.8448 43.1237 50.1271 42.7808C51.4095 42.4379 52.7475 42.6136 53.896 43.277C55.0473 43.9377 55.8669 45.0081 56.2098 46.2905ZM54.8243 46.6612C54.5818 45.7497 53.9964 44.9886 53.1796 44.5175C52.6361 44.2025 52.0339 44.0436 51.4207 44.0436C51.114 44.0436 50.8046 44.0827 50.5007 44.1663C49.5892 44.4088 48.8281 44.9942 48.3571 45.811C47.3842 47.4947 47.964 49.6579 49.6477 50.6308C51.3315 51.6037 53.4946 51.0238 54.4675 49.3401C54.9414 48.5234 55.0669 47.5727 54.8243 46.6612ZM35.1353 39.0039V48.4203C35.1353 48.8161 34.8147 49.1395 34.4161 49.1395L25.0026 49.1367C24.6067 49.1367 24.2834 48.8161 24.2834 48.4175V39.004C24.2834 38.6082 24.604 38.2848 25.0026 38.2848H34.4189C34.8148 38.2848 35.1353 38.6081 35.1353 39.0039ZM33.6997 39.7231H25.7213V47.7015H33.6997V39.7231ZM21.6122 39.0039V48.4203C21.6122 48.8161 21.2916 49.1395 20.893 49.1395L11.4795 49.1367C11.0837 49.1367 10.7603 48.8161 10.7603 48.4175V39.004C10.7603 38.6082 11.0809 38.2848 11.4795 38.2848H20.8959C21.2917 38.2848 21.6122 38.6081 21.6122 39.0039ZM20.1738 39.7231H12.1954V47.7015H20.1738V39.7231ZM35.1351 25.4812V34.8947C35.1351 35.2906 34.8145 35.6139 34.4159 35.6139H25.0024C24.6065 35.6139 24.2832 35.2933 24.2832 34.8947V25.4812C24.2832 25.0854 24.6037 24.762 25.0024 24.762H34.4187C34.8146 24.762 35.1351 25.0826 35.1351 25.4812ZM33.6995 26.1976H25.7211V34.176H33.6995V26.1976ZM21.612 25.4812V34.8947C21.612 35.2906 21.2914 35.6139 20.8928 35.6139H11.4793C11.0834 35.6139 10.7601 35.2933 10.7601 34.8947V25.4812C10.7601 25.0854 11.0807 24.762 11.4793 24.762H20.8956C21.2915 24.762 21.612 25.0826 21.612 25.4812ZM20.1736 26.1976H12.1952V34.176H20.1736V26.1976Z" fill="#0CB4C4"></path></svg>