<svg width="62" height="60" viewBox="0 0 62 60" fill="none" xmlns="http://www.w3.org/2000/svg"><path d="M26.5468 4.30664H26.5442C25.6958 4.30683 24.8557 4.47412 24.0719 4.79897C23.2882 5.12382 22.576 5.59987 21.9762 6.19993C20.7649 7.41181 20.0846 9.05526 20.085 10.7687C20.0853 12.4822 20.7664 14.1254 21.9782 15.3367C23.1901 16.5481 24.8336 17.2284 26.5471 17.228H26.5552C28.2687 17.2269 29.9115 16.5453 31.1224 15.3329C32.3333 14.1206 33.013 12.4769 33.0119 10.7634C33.0109 9.0499 32.3292 7.40702 31.1168 6.19615C29.9045 4.98527 28.2608 4.3056 26.5473 4.30664H26.5468ZM26.5542 15.5051H26.5466C25.29 15.5048 24.0851 15.0052 23.1968 14.1165C22.3086 13.2277 21.8098 12.0225 21.8101 10.7659C21.8105 9.50935 22.31 8.30442 23.1988 7.41617C24.0876 6.52792 25.2928 6.02911 26.5494 6.02949H26.5516C27.17 6.02993 27.7822 6.15281 28.3529 6.39103C28.9236 6.62926 29.4415 6.97812 29.8767 7.41749C30.5348 8.0795 30.9829 8.92096 31.165 9.83649C31.347 10.752 31.255 11.7009 30.9002 12.5643C30.5455 13.4278 29.9439 14.1673 29.1708 14.6905C28.3977 15.2136 27.4875 15.497 26.5541 15.5051H26.5542Z" fill="#0CB4C4"></path><path d="M42.3699 0C38.8258 0 35.9438 2.91653 35.9453 6.46609C35.9472 10.0095 38.83 12.9214 42.373 12.9214H42.4619C43.3021 12.9194 44.1336 12.7495 44.9072 12.4215C45.6808 12.0935 46.3811 11.6142 46.9667 11.0116C47.8533 10.1009 48.4528 8.94986 48.6908 7.70141C48.9288 6.45295 48.7948 5.16209 48.3055 3.98912C47.8161 2.81616 46.993 1.81278 45.9383 1.10359C44.8837 0.394404 43.6439 0.0106536 42.373 0H42.3699ZM42.3778 1.72285C43.6292 1.73049 44.8266 2.23326 45.7083 3.12123C46.59 4.00921 47.0843 5.21016 47.0831 6.46154C47.0893 7.07736 46.9739 7.68835 46.7434 8.25946C46.5129 8.83057 46.172 9.35055 45.7401 9.78959C45.313 10.2316 44.802 10.5839 44.237 10.8259C43.6719 11.0678 43.0643 11.1945 42.4497 11.1985H42.3733C41.1167 11.1981 39.9118 10.6986 39.0235 9.80987C38.1352 8.9211 37.6364 7.71587 37.6368 6.45932C37.6371 5.20277 38.1366 3.99783 39.0254 3.10957C39.9142 2.22131 41.1194 1.72249 42.376 1.72285H42.3778Z" fill="#0CB4C4"></path><path d="M10.7166 0C7.17247 0 4.29052 2.91653 4.29199 6.46683C4.29396 10.0099 7.1769 12.9214 10.7196 12.9214H10.723C14.2606 12.9214 17.0846 10.0985 17.1519 6.50178C17.1519 6.49636 17.1519 6.45784 17.1519 6.45255C17.1501 4.74528 16.4725 3.10815 15.2672 1.89903C14.0618 0.689913 12.4268 0.00715471 10.7196 0H10.7166ZM10.7246 1.72285C11.974 1.73161 13.1693 2.2335 14.0504 3.11929C14.9315 4.00508 15.4271 5.20304 15.4292 6.45243C15.3756 9.09737 13.3096 11.1985 10.7225 11.1985H10.7196C9.46301 11.1981 8.25808 10.6986 7.36983 9.80983C6.48158 8.92104 5.98278 7.71581 5.98315 6.45926C5.98353 5.20271 6.48305 3.99777 7.37183 3.10952C8.26061 2.22127 9.46584 1.72247 10.7224 1.72285H10.7246Z" fill="#0CB4C4"></path><path d="M52.8672 28.5194V23.5989C52.874 22.4116 52.6464 21.2345 52.1976 20.1353C51.7487 19.036 51.0874 18.0361 50.2514 17.1929C49.4155 16.3496 48.4214 15.6796 47.3261 15.2212C46.2307 14.7628 45.0557 14.525 43.8684 14.5215H41.0275C39.2303 14.5291 37.4747 15.0629 35.9774 16.057C34.4801 17.0511 33.3067 18.4619 32.602 20.1152C31.2073 19.276 29.6108 18.8313 27.9831 18.8286H25.144C23.4994 18.8286 21.886 19.2773 20.4776 20.1264C19.0446 16.7735 15.7604 14.5215 12.1301 14.5215H9.31752C6.91003 14.5174 4.59891 15.467 2.88974 17.1625C1.18058 18.858 0.21249 21.1615 0.197266 23.5689V32.4713C0.20815 32.7067 0.308812 32.9289 0.478544 33.0923C0.648276 33.2557 0.87417 33.3478 1.10976 33.3498H16.0721V36.8087C16.0726 36.9213 16.0955 37.0327 16.1393 37.1363C16.1831 37.24 16.247 37.334 16.3274 37.4129C16.4077 37.4917 16.5029 37.5539 16.6074 37.5958C16.7119 37.6376 16.8236 37.6584 16.9362 37.6569H29.1172C28.4819 39.4494 28.1589 41.3377 28.1623 43.2395C28.1623 52.4794 35.6794 60.0003 44.9193 60.0003C54.1592 60.0003 61.6555 52.4848 61.6555 43.2449C61.6648 40.224 60.8518 37.2574 59.3036 34.6633C57.7554 32.0692 55.5304 29.9453 52.8672 28.5194ZM41.0275 16.2443H43.8669C44.828 16.2477 45.779 16.4407 46.6654 16.8123C47.5518 17.184 48.3561 17.7269 49.0322 18.4101C49.7083 19.0932 50.2429 19.903 50.6053 20.7932C50.9678 21.6834 51.1509 22.6363 51.1443 23.5975V27.7058C49.2984 26.9218 47.0973 26.489 44.8826 26.489C42.1289 26.4839 39.4173 27.1644 36.9924 28.4693V27.9366C36.9995 26.7482 36.7712 25.5701 36.3205 24.4705C35.8699 23.3708 35.2058 22.3714 34.3667 21.5298C34.2539 21.4166 34.1461 21.3031 34.0284 21.1967C34.549 19.7548 35.499 18.507 36.7504 17.6216C38.0018 16.7361 39.4945 16.2555 41.0275 16.2443ZM1.92011 31.6269V23.5717C1.93458 21.621 2.72061 19.7553 4.10645 18.3823C5.49229 17.0093 7.36524 16.2406 9.31605 16.2443H12.1285C15.2038 16.2443 17.9758 18.2698 19.0463 21.2112C18.9416 21.3064 18.8371 21.406 18.736 21.5065C17.8902 22.3437 17.2192 23.3406 16.7619 24.4393C16.3046 25.5379 16.0701 26.7165 16.0721 27.9065V31.6269H1.92011ZM17.7949 35.934V27.9095C17.7972 25.9627 18.57 24.096 19.9445 22.7173C21.3189 21.3385 23.1832 20.5599 25.1299 20.5515H27.9816C28.9438 20.5533 29.8959 20.7466 30.7826 21.1201C31.6693 21.4935 32.4729 22.0397 33.1465 22.7267C33.8259 23.4122 34.3633 24.2253 34.7276 25.1191C35.092 26.0129 35.2761 26.9699 35.2695 27.9351V29.5322C32.9383 31.1634 31.0673 33.3684 29.8372 35.934H17.7949ZM44.9193 58.2803C41.9458 58.2803 39.0391 57.3986 36.5667 55.7466C34.0943 54.0946 32.1673 51.7465 31.0294 48.9994C29.8915 46.2522 29.5938 43.2293 30.1739 40.3129C30.754 37.3966 32.1859 34.7177 34.2885 32.6151C36.3911 30.5126 39.0699 29.0807 41.9863 28.5006C44.9027 27.9205 47.9256 28.2183 50.6728 29.3562C53.4199 30.4941 55.7679 32.4211 57.4199 34.8935C59.0719 37.3659 59.9536 40.2726 59.9536 43.2462C59.9491 47.2321 58.3636 51.0535 55.5451 53.872C52.7266 56.6904 48.9052 58.2758 44.9193 58.2803Z" fill="#0CB4C4"></path><path d="M53.3772 41.5943H52.7441V40.7328C52.7441 36.6921 49.2937 33.3822 45.0528 33.3545C40.8144 33.3545 37.3615 36.6648 37.3615 40.7328V41.5943H36.3675C35.8917 41.5943 35.5156 42.0284 35.5156 42.5042V48.5292C35.5154 48.6396 35.5376 48.7488 35.5807 48.8504C35.6239 48.9519 35.6872 49.0437 35.7668 49.1201C35.8464 49.1966 35.9407 49.2561 36.0439 49.2951C36.1471 49.3341 36.2572 49.3518 36.3675 49.3471H39.9961C40.1043 49.351 40.2121 49.3325 40.3127 49.2927C40.4134 49.2529 40.5046 49.1927 40.5809 49.1158C40.6571 49.039 40.7165 48.9472 40.7555 48.8462C40.7944 48.7453 40.8121 48.6373 40.8072 48.5292V42.5042C40.8072 42.0284 40.4719 41.5943 39.9961 41.5943H39.0844V40.7328C39.0844 37.6145 41.7644 35.0773 45.0472 35.0773C48.3385 35.0995 51.0212 37.6365 51.0212 40.7334V41.5949H50.006C49.5304 41.5949 49.1753 42.029 49.1753 42.5048V48.5298C49.1729 48.639 49.1928 48.7474 49.2339 48.8486C49.2749 48.9497 49.3362 49.0414 49.414 49.118C49.4919 49.1945 49.5845 49.2543 49.6863 49.2937C49.7881 49.3331 49.8969 49.3513 50.006 49.3471H50.6521V50.4161C50.6542 50.5828 50.5918 50.744 50.4779 50.8658C50.364 50.9876 50.2075 51.0608 50.0409 51.0699H48.2812C48.1256 50.6516 47.8448 50.2915 47.477 50.0388C47.1092 49.786 46.6723 49.6529 46.2261 49.6577C45.6408 49.662 45.081 49.8976 44.6687 50.313C44.2564 50.7284 44.025 51.2899 44.025 51.8752C44.025 52.4604 44.2564 53.022 44.6687 53.4374C45.081 53.8527 45.6408 54.0883 46.2261 54.0926C46.6511 54.0878 47.0662 53.9632 47.4238 53.7333C47.7814 53.5034 48.067 53.1775 48.2478 52.7928H50.0409C50.6643 52.7831 51.2589 52.5283 51.6957 52.0834C52.1326 51.6386 52.3766 51.0396 52.3749 50.4161V49.3471H53.3772C53.4871 49.3516 53.5967 49.3338 53.6994 49.2946C53.8021 49.2554 53.8957 49.1958 53.9747 49.1193C54.0536 49.0428 54.1161 48.951 54.1584 48.8496C54.2007 48.7481 54.222 48.6391 54.2208 48.5292V42.5042C54.2208 42.0284 53.853 41.5943 53.3772 41.5943ZM39.0844 47.6242H37.2385V43.3171H39.0844V47.6242ZM46.2261 52.3457C46.1287 52.3457 46.0335 52.3168 45.9526 52.2627C45.8716 52.2086 45.8086 52.1318 45.7713 52.0418C45.734 51.9519 45.7243 51.8529 45.7433 51.7574C45.7623 51.6619 45.8092 51.5742 45.878 51.5054C45.9468 51.4365 46.0346 51.3896 46.13 51.3707C46.2255 51.3517 46.3245 51.3614 46.4144 51.3987C46.5044 51.4359 46.5813 51.499 46.6354 51.58C46.6894 51.6609 46.7183 51.7561 46.7183 51.8534C46.7183 51.984 46.6665 52.1092 46.5741 52.2015C46.4818 52.2938 46.3566 52.3457 46.2261 52.3457ZM52.498 47.6242H50.8982V43.3171H52.498V47.6242Z" fill="#0CB4C4"></path></svg>