<svg width="61" height="60" viewBox="0 0 61 60" fill="none" xmlns="http://www.w3.org/2000/svg"><path d="M27.8105 41.6133C26.2098 41.6133 24.9072 42.9159 24.9072 44.5165C24.9072 46.1172 26.2098 47.4197 27.8105 47.4197C29.4111 47.4197 30.7137 46.1172 30.7137 44.5165C30.7137 42.9159 29.4111 41.6133 27.8105 41.6133ZM27.8105 45.4842C27.2763 45.4842 26.8427 45.0507 26.8427 44.5165C26.8427 43.9823 27.2763 43.5488 27.8105 43.5488C28.3446 43.5488 28.7782 43.9823 28.7782 44.5165C28.7782 45.0507 28.3446 45.4842 27.8105 45.4842Z" fill="#0CB4C4"></path><path d="M12.3271 44.5166H10.3916V46.4521H12.3271V44.5166Z" fill="#0CB4C4"></path><path d="M8.45599 44.5166H6.52051V46.4521H8.45599V44.5166Z" fill="#0CB4C4"></path><path d="M16.1982 44.5166H14.2627V46.4521H16.1982V44.5166Z" fill="#0CB4C4"></path><path d="M51.0361 42.5811H49.1006V46.452H51.0361V42.5811Z" fill="#0CB4C4"></path><path d="M47.166 42.5811H45.2305V46.452H47.166V42.5811Z" fill="#0CB4C4"></path><path d="M43.2949 42.5811H41.3594V46.452H43.2949V42.5811Z" fill="#0CB4C4"></path><path d="M48.1335 4.83887C43.8648 4.83887 40.3916 8.31209 40.3916 12.5808C40.3916 16.8495 43.8648 20.3227 48.1335 20.3227C52.4022 20.3227 55.8755 16.8495 55.8755 12.5808C55.8755 8.31209 52.4022 4.83887 48.1335 4.83887ZM48.1335 18.3873C44.9313 18.3873 42.3271 15.7831 42.3271 12.5808C42.3271 9.37854 44.9313 6.77435 48.1335 6.77435C51.3358 6.77435 53.94 9.37854 53.94 12.5808C53.94 15.7831 51.3358 18.3873 48.1335 18.3873Z" fill="#0CB4C4"></path><path d="M48.1337 8.70996C45.9988 8.70996 44.2627 10.4461 44.2627 12.5809C44.2627 14.7158 45.9988 16.4519 48.1337 16.4519C50.2685 16.4519 52.0046 14.7158 52.0046 12.5809C52.0046 10.4461 50.2685 8.70996 48.1337 8.70996ZM48.1337 14.5164C47.0662 14.5164 46.1982 13.6483 46.1982 12.5809C46.1982 11.5135 47.0662 10.6454 48.1337 10.6454C49.2011 10.6454 50.0691 11.5135 50.0691 12.5809C50.0691 13.6483 49.2011 14.5164 48.1337 14.5164Z" fill="#0CB4C4"></path><path d="M60.7139 16.169V8.99226L58.9468 8.36903C58.8868 8.2171 58.8239 8.06516 58.7571 7.91323L59.5661 6.22064L54.4932 1.14774L52.8006 1.95677C52.6497 1.89 52.4977 1.82613 52.3448 1.7671L51.7216 0H44.5448L43.9216 1.7671C43.7697 1.8271 43.6177 1.89 43.4658 1.95677L41.7732 1.14774L36.7003 6.22064L37.4281 7.74194H5.55258C2.88451 7.74194 0.713867 9.91258 0.713867 12.5806V45.4839C0.713867 48.1519 2.88451 50.3226 5.55258 50.3226H20.0687V52.8619C14.2777 53.8665 14.2623 55.5571 14.2623 56.129C14.2623 59.8916 26.4239 60 27.8106 60C29.1974 60 41.359 59.8916 41.359 56.129C41.359 55.5561 41.3435 53.8655 35.5526 52.8619V50.3226H50.0687C52.7368 50.3226 54.9074 48.1519 54.9074 45.4839V23.5984L59.5652 18.9406L58.7561 17.2481C58.8229 17.0971 58.8868 16.9452 58.9458 16.7923L60.7139 16.169ZM41.7742 24.0126L43.4668 23.2035C43.6177 23.2703 43.7697 23.3342 43.9226 23.3932L44.5448 25.1613H49.101V38.7097H6.52032V13.5484H35.5526V16.169L37.3197 16.7923C37.3797 16.9442 37.4426 17.0961 37.5093 17.2481L36.7003 18.9406L41.7742 24.0126ZM27.8106 58.0645C21.1187 58.0645 16.9632 56.8761 16.2558 56.1339C16.5616 55.8445 17.7268 55.2271 20.5129 54.751C21.0248 55.5745 21.9316 56.129 22.9719 56.129H32.6493C33.6897 56.129 34.5964 55.5745 35.1093 54.751C37.8955 55.2271 39.0606 55.8445 39.3664 56.1339C38.6581 56.8761 34.5026 58.0645 27.8106 58.0645ZM33.6171 53.2258C33.6171 53.76 33.1835 54.1935 32.6493 54.1935H22.9719C22.4377 54.1935 22.0042 53.76 22.0042 53.2258V50.3226H33.6171V53.2258ZM50.0687 48.3871H5.55258C3.95193 48.3871 2.64935 47.0845 2.64935 45.4839V12.5806C2.64935 10.98 3.95193 9.67742 5.55258 9.67742H35.5526V11.6129H6.52032C5.4529 11.6129 4.58483 12.481 4.58483 13.5484V38.7097C4.58483 39.7771 5.4529 40.6452 6.52032 40.6452H49.101C50.1684 40.6452 51.0364 39.7771 51.0364 38.7097V25.1613H51.7216L52.3448 23.3942C52.4968 23.3342 52.6487 23.2713 52.8006 23.2045L52.9719 23.2868V45.4839C52.9719 47.0845 51.6693 48.3871 50.0687 48.3871ZM58.7784 14.7987L57.4303 15.2739L57.2794 15.7181C57.1535 16.0877 56.9977 16.4603 56.8177 16.8261L56.6106 17.2481L57.229 18.54L54.0916 21.6774L52.7997 21.059L52.3777 21.2661C52.0119 21.4461 51.6394 21.6019 51.2697 21.7277L50.8255 21.8787L50.3513 23.2258H45.9152L45.44 21.8777L44.9958 21.7268C44.6261 21.601 44.2535 21.4452 43.8877 21.2652L43.4658 21.0581L42.1739 21.6765L39.0364 18.539L39.6548 17.2471L39.4477 16.8252C39.2677 16.4594 39.1119 16.0868 38.9861 15.7171L38.8352 15.2729L37.4881 14.7987V10.3626L38.8361 9.88742L38.9871 9.44323C39.1129 9.07355 39.2687 8.70097 39.4487 8.33516L39.6558 7.91323L39.0374 6.62129L42.1748 3.48387L43.4668 4.10226L43.8887 3.89516C44.2545 3.71516 44.6271 3.55935 44.9968 3.43355L45.441 3.28258L45.9152 1.93548H50.3513L50.8264 3.28355L51.2706 3.43452C51.6403 3.56032 52.0129 3.71613 52.3787 3.89613L52.8006 4.10323L54.0926 3.48484L57.23 6.62226L56.6116 7.91419L56.8187 8.33613C56.9987 8.70194 57.1545 9.07452 57.2803 9.44419L57.4313 9.88839L58.7784 10.3626V14.7987Z" fill="#0CB4C4"></path><path d="M10.3915 22.2576C10.3915 23.8582 11.6941 25.1608 13.2948 25.1608H14.2625V23.2253H13.2948C12.7606 23.2253 12.327 22.7918 12.327 22.2576C12.327 21.5115 12.0357 20.8369 11.5722 20.3221C12.0367 19.8073 12.327 19.1328 12.327 18.3866C12.327 17.8524 12.7606 17.4189 13.2948 17.4189H14.2625V15.4834H13.2948C11.6941 15.4834 10.3915 16.786 10.3915 18.3866C10.3915 18.9208 9.95799 19.3544 9.4238 19.3544H8.45605V21.2899H9.4238C9.95799 21.2899 10.3915 21.7234 10.3915 22.2576Z" fill="#0CB4C4"></path><path d="M14.2627 21.2899H15.2304C15.7646 21.2899 16.1982 21.7234 16.1982 22.2576C16.1982 23.8582 17.5008 25.1608 19.1014 25.1608H20.0691V23.2253H19.1014C18.5672 23.2253 18.1337 22.7918 18.1337 22.2576C18.1337 21.5115 17.8424 20.8369 17.3788 20.3221C17.8433 19.8073 18.1337 19.1328 18.1337 18.3866C18.1337 17.8524 18.5672 17.4189 19.1014 17.4189H20.0691V15.4834H19.1014C17.5008 15.4834 16.1982 16.786 16.1982 18.3866C16.1982 18.9208 15.7646 19.3544 15.2304 19.3544H14.2627V21.2899Z" fill="#0CB4C4"></path><path d="M43.2949 29.9999C43.2949 30.746 43.5861 31.4206 44.0497 31.9354C43.5852 32.4502 43.2949 33.1247 43.2949 33.8709C43.2949 34.4051 42.8613 34.8386 42.3271 34.8386H41.3594V36.7741H42.3271C43.9278 36.7741 45.2303 35.4715 45.2303 33.8709C45.2303 33.3367 45.6639 32.9031 46.1981 32.9031H47.1658V30.9676H46.1981C45.6639 30.9676 45.2303 30.5341 45.2303 29.9999C45.2303 28.3993 43.9278 27.0967 42.3271 27.0967H41.3594V29.0322H42.3271C42.8613 29.0322 43.2949 29.4657 43.2949 29.9999Z" fill="#0CB4C4"></path><path d="M35.5527 27.0967V29.0322H36.5205C37.0547 29.0322 37.4882 29.4657 37.4882 29.9999C37.4882 30.746 37.7795 31.4206 38.2431 31.9354C37.7785 32.4502 37.4882 33.1247 37.4882 33.8709C37.4882 34.4051 37.0547 34.8386 36.5205 34.8386H35.5527V36.7741H36.5205C38.1211 36.7741 39.4237 35.4715 39.4237 33.8709C39.4237 33.3367 39.8573 32.9031 40.3914 32.9031H41.3592V30.9676H40.3914C39.8573 30.9676 39.4237 30.5341 39.4237 29.9999C39.4237 28.3993 38.1211 27.0967 36.5205 27.0967H35.5527Z" fill="#0CB4C4"></path><path d="M23.9394 15.4834H22.0039V17.4189H23.9394V15.4834Z" fill="#0CB4C4"></path><path d="M33.6169 15.4834H25.875V17.4189H33.6169V15.4834Z" fill="#0CB4C4"></path><path d="M33.6168 19.3545H22.0039V21.29H33.6168V19.3545Z" fill="#0CB4C4"></path><path d="M33.6168 23.2256H22.0039V25.1611H33.6168V23.2256Z" fill="#0CB4C4"></path><path d="M33.6173 27.0967H8.45605V29.0322H33.6173V27.0967Z" fill="#0CB4C4"></path><path d="M10.3915 30.9678H8.45605V32.9033H10.3915V30.9678Z" fill="#0CB4C4"></path><path d="M33.6175 30.9678H12.3271V32.9033H33.6175V30.9678Z" fill="#0CB4C4"></path><path d="M33.6171 34.8389H31.6816V36.7744H33.6171V34.8389Z" fill="#0CB4C4"></path><path d="M29.7464 34.8389H8.45605V36.7744H29.7464V34.8389Z" fill="#0CB4C4"></path></svg>