<svg width="63" height="60" viewBox="0 0 63 60" fill="none" xmlns="http://www.w3.org/2000/svg"><path d="M61.8035 0H27.2027C27.2027 0 27.17 0.0065445 27.1504 0.0065445C27.0784 0.0065445 27.013 0.026178 26.9475 0.0458116C26.9213 0.0523561 26.8952 0.0589005 26.869 0.0719895C26.7839 0.111257 26.6988 0.157068 26.6268 0.222513L16.365 9.54189C16.3061 9.59424 16.2603 9.65314 16.2211 9.71859C16.208 9.73822 16.2014 9.75131 16.1883 9.77094C16.1556 9.82984 16.136 9.88874 16.1164 9.95419C16.1164 9.96728 16.1098 9.97382 16.1033 9.98691C16.0902 10.0458 16.0836 10.1113 16.0836 10.1767V25.2356C11.3847 27.4542 8.07316 32.1859 7.9619 37.7225C7.903 40.7723 8.81923 43.6126 10.4161 45.9555L8.48546 47.8861L8.36112 47.7618C8.02735 47.428 7.4907 47.428 7.15693 47.7618L1.78389 53.1348C0.357192 54.5615 0.357192 56.8848 1.78389 58.3115C2.49724 59.0249 3.43311 59.3848 4.37552 59.3848C5.31793 59.3848 6.25379 59.0249 6.96714 58.3115L12.3402 52.9385C12.6739 52.6047 12.6739 52.0681 12.3402 51.7343L12.2158 51.6099L14.1465 49.6793C14.7616 50.0982 15.4095 50.4712 16.0902 50.7919V59.1492C16.0902 59.6204 16.4698 60 16.941 60H61.797C62.2682 60 62.6478 59.6204 62.6478 59.1492V0.850785C62.6478 0.379581 62.2682 0 61.797 0H61.8035ZM5.7695 57.1139C5.02997 57.8469 3.73416 57.8469 2.99463 57.1139C2.22892 56.3482 2.22892 55.1047 2.99463 54.339L7.77211 49.5681L10.547 52.3429L5.7695 57.1204V57.1139ZM21.9344 6.78665L26.352 2.77487V9.32592H19.1399L21.9344 6.78665ZM22.3467 25.5759C29.1988 25.7134 34.6635 31.4005 34.526 38.2592C34.3886 45.1113 28.6883 50.589 21.8493 50.4385C14.9972 50.301 9.53258 44.6139 9.67002 37.7552C9.80745 30.9031 15.4815 25.4516 22.3467 25.5759ZM23.8912 22.3102C23.8912 19.555 25.92 17.2644 28.5575 16.8586V22.3102C28.5575 22.7814 28.937 23.161 29.4082 23.161H34.8598C34.5653 25.0851 33.276 26.695 31.4501 27.4215C29.4475 25.6479 26.941 24.4372 24.1661 24.0249C23.9828 23.4751 23.8912 22.8992 23.8912 22.3102ZM11.0182 50.4058L9.6962 49.0838L11.4501 47.3298L12.7721 48.6518L11.0182 50.4058ZM60.9527 58.2984H17.7917V51.466C19.0614 51.8717 20.4095 52.1073 21.8166 52.1401C21.9148 52.1401 22.0064 52.1401 22.1046 52.1401C29.7682 52.1401 36.0771 45.9882 36.2276 38.2919C36.2996 34.6335 34.9711 31.2762 32.7394 28.7173C35.1085 27.4935 36.6268 25.0589 36.6268 22.3102C36.6268 21.839 36.2472 21.4594 35.776 21.4594H30.259V15.9424C30.259 15.4712 29.8794 15.0916 29.4082 15.0916C25.4292 15.0916 22.1897 18.3312 22.1897 22.3102C22.1897 22.8403 22.2486 23.3639 22.3664 23.8743C22.2747 23.8743 22.1897 23.8743 22.098 23.8743C20.5993 23.8743 19.153 24.1165 17.7983 24.555V11.0275H27.2093C27.6805 11.0275 28.0601 10.6479 28.0601 10.1767V1.70157H60.9593V58.2984H60.9527ZM31.4632 8.64529C31.4632 8.17408 31.8428 7.7945 32.314 7.7945H58.0797C58.5509 7.7945 58.9305 8.17408 58.9305 8.64529C58.9305 9.11649 58.5509 9.49607 58.0797 9.49607H32.314C31.8428 9.49607 31.4632 9.11649 31.4632 8.64529ZM59.1399 45.1374C59.1399 45.6086 58.7603 45.9882 58.2891 45.9882H38.4266C37.9554 45.9882 37.5758 45.6086 37.5758 45.1374C37.5758 44.6662 37.9554 44.2867 38.4266 44.2867H58.2891C58.7603 44.2867 59.1399 44.6662 59.1399 45.1374ZM58.2891 27.3429H55.102C54.6308 27.3429 54.2512 27.7225 54.2512 28.1937V42.3626C54.2512 42.8338 54.6308 43.2134 55.102 43.2134H58.2891C58.7603 43.2134 59.1399 42.8338 59.1399 42.3626V28.1937C59.1399 27.7225 58.7603 27.3429 58.2891 27.3429ZM57.4383 41.5118H55.9527V29.038H57.4383V41.5118ZM43.9828 43.2134H47.17C47.6412 43.2134 48.0208 42.8338 48.0208 42.3626V30C48.0208 29.5288 47.6412 29.1492 47.17 29.1492H43.9828C43.5116 29.1492 43.1321 29.5288 43.1321 30V42.3626C43.1321 42.8338 43.5116 43.2134 43.9828 43.2134ZM44.8336 30.8508H46.3192V41.5183H44.8336V30.8508ZM37.5758 35.1243V42.3691C37.5758 42.8403 37.9554 43.2199 38.4266 43.2199H41.6137C42.0849 43.2199 42.4645 42.8403 42.4645 42.3691V35.1243C42.4645 34.6531 42.0849 34.2736 41.6137 34.2736H38.4266C37.9554 34.2736 37.5758 34.6531 37.5758 35.1243ZM39.2774 35.9751H40.763V41.5183H39.2774V35.9751ZM49.5457 31.2238C49.0745 31.2238 48.6949 31.6034 48.6949 32.0746V42.3691C48.6949 42.8403 49.0745 43.2199 49.5457 43.2199H52.7328C53.2041 43.2199 53.5836 42.8403 53.5836 42.3691V32.0746C53.5836 31.6034 53.2041 31.2238 52.7328 31.2238H49.5457ZM51.8821 41.5183H50.3965V32.9254H51.8821V41.5183ZM31.9279 20.6872H38.2957C38.7669 20.6872 39.1465 20.3076 39.1465 19.8364C39.1465 15.8573 35.9069 12.6178 31.9279 12.6178C31.4567 12.6178 31.0771 12.9974 31.0771 13.4686V19.8364C31.0771 20.3076 31.4567 20.6872 31.9279 20.6872ZM32.7787 14.3848C35.1412 14.7513 37.013 16.623 37.3794 18.9856H32.7787V14.3848ZM41.8755 18.7304C41.8755 18.2592 42.2551 17.8796 42.7263 17.8796H44.0287C44.4999 17.8796 44.8794 18.2592 44.8794 18.7304C44.8794 19.2016 44.4999 19.5812 44.0287 19.5812H42.7263C42.2551 19.5812 41.8755 19.2016 41.8755 18.7304ZM41.8755 23.7762C41.8755 23.305 42.2551 22.9254 42.7263 22.9254H44.0287C44.4999 22.9254 44.8794 23.305 44.8794 23.7762C44.8794 24.2474 44.4999 24.627 44.0287 24.627H42.7263C42.2551 24.627 41.8755 24.2474 41.8755 23.7762ZM46.5352 17.8796H58.0797C58.5509 17.8796 58.9305 18.2592 58.9305 18.7304C58.9305 19.2016 58.5509 19.5812 58.0797 19.5812H46.5352C46.064 19.5812 45.6844 19.2016 45.6844 18.7304C45.6844 18.2592 46.064 17.8796 46.5352 17.8796ZM58.0797 24.627H46.5352C46.064 24.627 45.6844 24.2474 45.6844 23.7762C45.6844 23.305 46.064 22.9254 46.5352 22.9254H58.0797C58.5509 22.9254 58.9305 23.305 58.9305 23.7762C58.9305 24.2474 58.5509 24.627 58.0797 24.627ZM59.1399 55.0065C59.1399 55.4777 58.7603 55.8573 58.2891 55.8573H39.1726C38.7014 55.8573 38.3219 55.4777 38.3219 55.0065C38.3219 54.5353 38.7014 54.1558 39.1726 54.1558H58.2891C58.7603 54.1558 59.1399 54.5353 59.1399 55.0065ZM59.1399 50.2356C59.1399 50.7068 58.7603 51.0864 58.2891 51.0864H53.708C53.2368 51.0864 52.8572 50.7068 52.8572 50.2356C52.8572 49.7644 53.2368 49.3848 53.708 49.3848H58.2891C58.7603 49.3848 59.1399 49.7644 59.1399 50.2356ZM33.6425 50.2356C33.6425 49.7644 34.0221 49.3848 34.4933 49.3848H51.0182C51.4894 49.3848 51.869 49.7644 51.869 50.2356C51.869 50.7068 51.4894 51.0864 51.0182 51.0864H34.4933C34.0221 51.0864 33.6425 50.7068 33.6425 50.2356ZM52.5431 14.5746C52.0719 14.5746 51.6923 14.195 51.6923 13.7238C51.6923 13.2526 52.0719 12.873 52.5431 12.873H58.0797C58.5509 12.873 58.9305 13.2526 58.9305 13.7238C58.9305 14.195 58.5509 14.5746 58.0797 14.5746H52.5431ZM50.3048 13.7238C50.3048 14.195 49.9253 14.5746 49.4541 14.5746H38.6818C38.2106 14.5746 37.831 14.195 37.831 13.7238C37.831 13.2526 38.2106 12.873 38.6818 12.873H49.4541C49.9253 12.873 50.3048 13.2526 50.3048 13.7238ZM21.8886 43.8285C21.941 43.8285 21.9933 43.8285 22.0457 43.8285C22.0849 43.8285 22.1242 43.8285 22.1569 43.8285C22.1831 43.8285 22.2027 43.8285 22.2289 43.8285C22.7132 43.8285 23.1779 43.7631 23.6294 43.6518C26.0902 43.1217 28.5836 41.3678 31.064 38.4162C31.3323 38.1021 31.3323 37.6374 31.064 37.3233C28.5575 34.3456 26.0247 32.5785 23.5444 32.0681C23.2041 31.9895 22.8506 31.9437 22.4907 31.9306C22.458 31.9306 22.4187 31.9306 22.386 31.9306C22.3336 31.9306 22.2813 31.9241 22.2224 31.9241C22.1897 31.9241 22.1635 31.9241 22.1308 31.9241C22.0457 31.9241 21.9606 31.9241 21.8755 31.9241C18.9436 31.9895 16.0771 33.8154 13.3611 37.356C13.1255 37.6636 13.1255 38.089 13.3611 38.3901C16.0836 41.9306 18.9501 43.7631 21.8755 43.822L21.8886 43.8285ZM23.492 33.8154C25.2263 34.3521 26.4894 35.9686 26.4894 37.8796C26.4894 39.7906 25.2067 41.4267 23.4527 41.9503C22.9881 42.0615 22.5234 42.127 22.0653 42.1204C19.7944 42.0353 17.975 40.1636 17.975 37.873C17.975 35.5825 19.7944 33.7173 22.0588 33.6257C22.53 33.6257 23.0077 33.6846 23.4855 33.8089L23.492 33.8154ZM29.297 37.8796C28.8781 38.3508 28.4593 38.7696 28.0404 39.1688C28.1321 38.7565 28.1844 38.3246 28.1844 37.8796C28.1844 37.4346 28.1321 37.0092 28.0404 36.5903C28.4593 36.983 28.8716 37.4084 29.297 37.8796ZM16.4698 36.4071C16.352 36.8783 16.28 37.3691 16.28 37.8796C16.28 38.3901 16.352 38.8809 16.4698 39.3521C16.0247 38.9071 15.5732 38.4293 15.1281 37.8796C15.5732 37.3298 16.0247 36.8521 16.4698 36.4071ZM37.5365 55.0131C37.5365 55.4843 37.1569 55.8639 36.6857 55.8639H29.6897C29.2185 55.8639 28.8389 55.4843 28.8389 55.0131C28.8389 54.5419 29.2185 54.1623 29.6897 54.1623H36.6857C37.1569 54.1623 37.5365 54.5419 37.5365 55.0131ZM21.8755 49.1819C21.9541 49.1819 22.026 49.1819 22.1046 49.1819C25.0038 49.1819 27.7394 48.0825 29.8336 46.0668C31.9868 43.9987 33.2041 41.2173 33.263 38.233C33.3219 35.2487 32.2158 32.4215 30.1478 30.2683C28.0797 28.1152 25.2983 26.8979 22.314 26.839C19.3493 26.7866 16.5025 27.8861 14.3493 29.9542C12.1962 32.0223 10.9789 34.8037 10.92 37.788C10.7957 43.9463 15.7041 49.0576 21.8624 49.1819H21.8755ZM15.5404 31.1846C17.3664 29.4306 19.7551 28.4882 22.2878 28.5471C24.814 28.5995 27.1766 29.627 28.9239 31.4529C30.6779 33.2788 31.6137 35.6741 31.5614 38.2068C31.509 40.7395 30.475 43.0956 28.6556 44.8495C26.8363 46.6034 24.4475 47.5393 21.9082 47.4869C16.6857 47.3822 12.53 43.0497 12.6347 37.8272C12.687 35.2945 13.7211 32.9385 15.5404 31.1846ZM22.0457 40.8901C22.0457 40.8901 22.0849 40.8901 22.1046 40.8901C23.6622 40.8901 24.9449 39.6401 24.9776 38.0759C25.0103 36.4921 23.7472 35.1767 22.1635 35.144C21.4109 35.144 20.6713 35.4123 20.115 35.9424C19.5588 36.4725 19.2512 37.1924 19.2315 37.9581C19.1988 39.5419 20.4619 40.8573 22.0457 40.8901ZM20.9331 37.9908C20.9331 37.6767 21.064 37.3887 21.2931 37.1662C21.5156 36.9568 21.8035 36.839 22.1046 36.839C22.1111 36.839 22.1177 36.839 22.1308 36.839C22.7787 36.8521 23.2957 37.3887 23.2826 38.0367C23.2695 38.6846 22.7394 39.1819 22.0849 39.1885C21.437 39.1754 20.92 38.6387 20.9331 37.9908Z" fill="#0CB4C4"></path></svg>