<svg xmlns="http://www.w3.org/2000/svg" xmlns:xlink="http://www.w3.org/1999/xlink" version="1.1" id="Layer_1" x="0px" y="0px" width="60px" height="60px" viewBox="0 0 60 60" enable-background="new 0 0 60 60" xml:space="preserve"><g transform="translate(0,-952.36218)"><g><path fill="#0CB4C4" d="M22.986,952.76c-0.329,0.063-0.565,0.354-0.56,0.688v2.065h-4.819c-0.043-0.003-0.086-0.003-0.129,0 c-0.329,0.063-0.565,0.354-0.56,0.689v4.819H8.657c-0.043-0.004-0.086-0.004-0.129,0c-0.329,0.063-0.565,0.354-0.56,0.688v13.339 c-4.545,3.097-7.573,8.288-7.573,14.199c0,9.497,7.714,17.212,17.212,17.212c3.468,0,6.631-1.137,9.316-2.883 c0.209-0.088,0.362-0.272,0.409-0.495c2.935,5.304,8.576,8.886,15.062,8.886c9.497,0,17.212-7.715,17.212-17.212 c0-5.911-3.029-11.103-7.574-14.199v-13.339c0-0.38-0.309-0.688-0.688-0.688h-8.262v-6.885h3.442c0.381,0,0.688-0.309,0.688-0.689 v-5.507c0-0.38-0.308-0.688-0.688-0.688h-8.262c-0.043-0.004-0.086-0.004-0.129,0c-0.33,0.063-0.564,0.354-0.559,0.688v2.065 h-5.509v-2.065c0-0.38-0.309-0.688-0.688-0.688h-8.262C23.072,952.756,23.029,952.756,22.986,952.76z M23.803,954.137h6.885v1.376 c-0.043-0.003-0.086-0.003-0.129,0c-0.38,0.038-0.658,0.376-0.621,0.756c0.037,0.377,0.372,0.655,0.75,0.621v1.376h-6.885v-1.376 c0.381,0.005,0.693-0.298,0.699-0.679c0.006-0.38-0.298-0.693-0.678-0.699c-0.007,0-0.014,0-0.021,0V954.137z M38.95,954.137 h6.886v4.13h-2.755c0.015-0.379-0.281-0.7-0.661-0.714c-0.037-0.001-0.076,0-0.113,0.005c-0.354,0.044-0.616,0.353-0.603,0.709 H38.95v-1.376c0.381,0.005,0.693-0.298,0.698-0.679c0.006-0.38-0.298-0.693-0.678-0.699c-0.006,0-0.013,0-0.021,0V954.137 L38.95,954.137z M18.296,956.891h4.131v2.065c0,0.38,0.308,0.689,0.688,0.689h8.262c0.38,0,0.688-0.309,0.688-0.689v-2.065h5.509 v2.065c0,0.38,0.307,0.689,0.688,0.689h3.442v6.885h-8.262c-0.042-0.004-0.086-0.004-0.129,0c-0.329,0.063-0.565,0.353-0.56,0.688 v13.339c-0.071,0.049-0.145,0.101-0.216,0.15c-1.305-2.268-3.139-4.19-5.292-5.658V961.71c0-0.38-0.308-0.688-0.688-0.688h-8.262 V956.891L18.296,956.891z M9.345,962.398h16.524v12.973c0.008,0.229,0.129,0.438,0.323,0.56c2.131,1.378,3.899,3.257,5.163,5.464 c0.029,0.055,0.066,0.105,0.108,0.15c-1.279,1.056-2.401,2.281-3.335,3.657c-1.84-3.853-6.056-6.97-10.521-6.97 c-6.076,0-11.016,4.939-11.016,11.015c0,6.076,4.94,11.016,11.016,11.016c3.01,0,5.735-1.224,7.724-3.185 c0.25,1.852,0.801,3.612,1.592,5.229c-0.248-0.104-0.534-0.054-0.731,0.129c-2.495,1.624-5.413,2.646-8.584,2.646 c-8.754,0-15.835-7.082-15.835-15.835c0-5.583,2.89-10.496,7.25-13.317c0.194-0.122,0.314-0.331,0.323-0.56V962.398L9.345,962.398 z M17.607,965.152c-1.929,0-3.442,1.635-3.442,3.442c0,1.062,0.697,1.803,1.376,2.345v3.163c0,0.38,0.309,0.688,0.688,0.688h2.754 c0.38,0,0.688-0.309,0.688-0.688v-3.163c0.68-0.542,1.377-1.283,1.377-2.345C21.05,966.787,19.536,965.152,17.607,965.152z M17.607,966.53c1.113,0,2.065,1.064,2.065,2.065c0,0.427-0.519,1.093-1.075,1.485c-0.192,0.13-0.305,0.349-0.301,0.581v2.753 h-1.377v-2.753c0.004-0.232-0.109-0.451-0.301-0.581c-0.557-0.392-1.076-1.058-1.076-1.485 C15.542,967.594,16.494,966.53,17.607,966.53z M34.131,967.906h16.524v12.973c0.008,0.228,0.128,0.438,0.321,0.559 c4.361,2.821,7.251,7.734,7.251,13.317c0,8.753-7.081,15.834-15.834,15.834c-8.487,0-15.401-6.654-15.815-15.038 c0.023-0.099,0.023-0.201,0-0.301c-0.004-0.165-0.021-0.33-0.021-0.495c0-5.583,2.89-10.496,7.251-13.317 c0.193-0.121,0.314-0.331,0.322-0.559V967.906L34.131,967.906z M42.394,970.66c-1.929,0-3.443,1.635-3.443,3.442 c0,1.062,0.697,1.802,1.377,2.345v3.162c0,0.38,0.309,0.688,0.689,0.688h2.753c0.381,0,0.689-0.308,0.689-0.688v-3.162 c0.679-0.543,1.377-1.283,1.377-2.345C45.836,972.295,44.32,970.66,42.394,970.66z M42.394,972.037 c1.113,0,2.065,1.064,2.065,2.065c0,0.427-0.519,1.093-1.077,1.484c-0.191,0.131-0.305,0.349-0.301,0.581v2.754h-1.377v-2.754 c0.004-0.231-0.108-0.45-0.301-0.581c-0.558-0.392-1.076-1.057-1.076-1.484C40.327,973.101,41.279,972.037,42.394,972.037z M17.607,979.61c4.112,0,8.299,3.349,9.639,7.036c-1.311,2.414-2.065,5.172-2.065,8.11c0,0.142-0.003,0.29,0,0.431 c-1.764,2.258-4.479,3.7-7.573,3.7c-5.332,0-9.639-4.308-9.639-9.639S12.275,979.61,17.607,979.61L17.607,979.61z M42.394,983.74 c-6.076,0-11.017,4.94-11.017,11.016c0,6.076,4.94,11.015,11.017,11.015c6.075,0,11.015-4.938,11.015-11.015 C53.408,988.681,48.469,983.74,42.394,983.74z M42.394,985.117c5.331,0,9.638,4.308,9.638,9.639s-4.307,9.639-9.638,9.639 c-5.332,0-9.64-4.308-9.64-9.639S37.062,985.117,42.394,985.117z"></path><path fill="#0CB4C4" d="M42.394,1012.362c-6.192,0-11.919-3.259-15.094-8.547c-0.068,0.05-0.143,0.093-0.224,0.126 c-2.9,1.894-6.196,2.913-9.468,2.913C7.899,1006.854,0,998.956,0,989.248c0-5.722,2.827-11.091,7.573-14.407V961.71 c-0.009-0.521,0.361-0.977,0.88-1.076l0.139-0.01l0.1,0.004l7.832-0.001v-4.424c-0.009-0.522,0.361-0.978,0.88-1.077l0.138-0.01 l0.1,0.004l4.39-0.001v-1.67c-0.009-0.522,0.361-0.978,0.88-1.077l0.138-0.009l0.1,0.004l8.227-0.001 c0.598,0,1.083,0.486,1.083,1.083v1.67h4.719v-1.67c-0.009-0.522,0.361-0.978,0.881-1.077l0.138-0.009l0.1,0.004l8.227-0.001 c0.598,0,1.084,0.486,1.084,1.083v5.507c0,0.598-0.486,1.083-1.084,1.083h-3.047v6.095h7.866c0.598,0,1.084,0.486,1.084,1.083 v13.132c4.746,3.315,7.573,8.685,7.573,14.406C60,1004.464,52.102,1012.362,42.394,1012.362z M27.427,1002.438l0.25,0.453 c2.963,5.354,8.602,8.681,14.716,8.681c9.272,0,16.816-7.544,16.816-16.816c0-5.529-2.767-10.715-7.401-13.873l-0.173-0.117 v-13.548c0-0.162-0.131-0.293-0.293-0.293h-8.656v-7.674h3.837c0.162,0,0.293-0.132,0.293-0.294v-5.507 c0-0.162-0.131-0.294-0.293-0.294h-8.262c-0.195,0.02-0.296,0.144-0.293,0.287v2.467H31.67v-2.46c0-0.162-0.131-0.294-0.293-0.294 h-8.262c-0.196,0.02-0.296,0.144-0.294,0.287v2.467h-5.214c-0.196,0.02-0.296,0.144-0.294,0.287v5.22H8.657 c-0.196,0.021-0.296,0.144-0.294,0.287v13.554l-0.172,0.118c-4.634,3.158-7.401,8.344-7.401,13.873 c0,9.272,7.544,16.816,16.818,16.816c3.164,0,6.226-0.948,9.101-2.817c0.153-0.071,0.218-0.15,0.237-0.245l0.049-0.238 l-0.223-0.092c-0.105-0.042-0.23-0.021-0.313,0.055c-2.776,1.813-5.819,2.751-8.852,2.751c-8.949,0-16.23-7.28-16.23-16.229 c0-5.535,2.778-10.638,7.431-13.648c0.088-0.055,0.139-0.144,0.143-0.242v-13.354h17.313v13.368 c0.003,0.083,0.055,0.173,0.138,0.225c2.171,1.404,4,3.341,5.296,5.603l0.287,0.306l-0.27,0.345 c-1.259,1.039-2.355,2.241-3.26,3.574l-0.386,0.569l-0.296-0.62c-1.896-3.972-6.077-6.746-10.165-6.746 c-5.856,0-10.621,4.765-10.621,10.62c0,5.856,4.765,10.621,10.621,10.621c2.793,0,5.438-1.09,7.447-3.071l0.563-0.556l0.105,0.784 c0.238,1.767,0.761,3.484,1.555,5.107L27.427,1002.438z M9.74,962.793v12.578c-0.013,0.374-0.203,0.703-0.508,0.894 c-4.422,2.861-7.065,7.716-7.065,12.982c0,8.514,6.927,15.439,15.441,15.439c2.88,0,5.774-0.893,8.369-2.582 c0.082-0.079,0.196-0.146,0.328-0.188c-0.581-1.302-1-2.657-1.249-4.046c-2.079,1.804-4.696,2.788-7.449,2.788 c-6.292,0-11.411-5.119-11.411-11.411c0-6.291,5.119-11.409,11.411-11.409c4.174,0,8.432,2.686,10.575,6.604 c0.799-1.088,1.725-2.085,2.759-2.975c-1.223-2.094-2.939-3.896-4.964-5.206c-0.3-0.188-0.49-0.517-0.503-0.877v-12.592H9.74z M42.394,1010.985c-8.663,0-15.783-6.771-16.209-15.414l-0.003-0.056l0.013-0.053c0.009-0.04,0.009-0.083,0-0.124l-0.019-0.27 c-0.006-0.104-0.012-0.209-0.012-0.313c0-5.537,2.778-10.639,7.432-13.649c0.087-0.054,0.138-0.144,0.142-0.241l-0.001-13.354 H51.05v13.368c0.003,0.084,0.055,0.173,0.138,0.225c4.657,3.013,7.436,8.116,7.436,13.652 C58.623,1003.705,51.343,1010.985,42.394,1010.985z M26.976,995.58c0.43,8.199,7.192,14.615,15.418,14.615 c8.513,0,15.439-6.927,15.439-15.439c0-5.267-2.643-10.121-7.07-12.986c-0.3-0.188-0.49-0.518-0.502-0.877l-0.001-12.592H34.525 v12.579c-0.013,0.373-0.202,0.702-0.507,0.894c-4.423,2.861-7.066,7.716-7.066,12.983c0,0.09,0.005,0.179,0.011,0.268l0.011,0.216 C26.996,995.309,26.999,995.443,26.976,995.58z M42.394,1006.166c-6.292,0-11.411-5.119-11.411-11.41s5.119-11.41,11.411-11.41 c6.291,0,11.41,5.119,11.41,11.41S48.685,1006.166,42.394,1006.166z M42.394,984.136c-5.856,0-10.621,4.764-10.621,10.62 s4.765,10.62,10.621,10.62s10.62-4.764,10.62-10.62S48.25,984.136,42.394,984.136z M42.394,1004.79 c-5.533,0-10.034-4.502-10.034-10.034s4.501-10.033,10.034-10.033c5.531,0,10.033,4.501,10.033,10.033 S47.925,1004.79,42.394,1004.79z M42.394,985.513c-5.098,0-9.244,4.146-9.244,9.243c0,5.097,4.146,9.243,9.244,9.243 c5.097,0,9.242-4.146,9.242-9.243C51.636,989.658,47.49,985.513,42.394,985.513z M17.607,999.282 c-5.533,0-10.034-4.502-10.034-10.034c0-5.531,4.501-10.033,10.034-10.033c4.058,0,8.548,3.272,10.01,7.294l0.061,0.167 l-0.084,0.156c-1.32,2.432-2.018,5.17-2.018,7.923l0,0.146l0.004,0.417l-0.087,0.111 C23.579,997.878,20.706,999.282,17.607,999.282z M17.607,980.004c-5.098,0-9.245,4.147-9.245,9.244s4.147,9.244,9.245,9.244 c2.809,0,5.417-1.253,7.178-3.442l0-0.154l0.001-0.14c0-2.824,0.701-5.634,2.028-8.14 C25.396,982.955,21.305,980.004,17.607,980.004z M32.485,981.226l-0.289-0.322c-1.241-2.156-3.029-4.068-5.172-5.529l-0.172-0.118 V961.71c0-0.162-0.132-0.294-0.294-0.294h-8.656v-4.919h4.92v2.459c0,0.162,0.132,0.294,0.294,0.294h8.262 c0.162,0,0.293-0.132,0.293-0.294v-2.459h6.299v2.459c0,0.162,0.131,0.294,0.293,0.294H42.1v7.674h-8.657 c-0.195,0.02-0.296,0.143-0.293,0.287v13.555L32.485,981.226z M27.641,974.842c1.883,1.315,3.497,2.967,4.719,4.823v-12.447 c-0.009-0.522,0.361-0.977,0.88-1.076l0.139-0.01c0.035,0,0.07,0.002,0.104,0.005l7.827-0.002v-6.095h-3.048 c-0.598,0-1.083-0.486-1.083-1.083v-1.67H32.46v1.67c0,0.598-0.485,1.083-1.083,1.083h-8.262c-0.598,0-1.083-0.486-1.083-1.083 v-1.67H18.69v3.341h7.867c0.597,0,1.083,0.485,1.083,1.083V974.842z M43.77,980.693h-2.753c-0.598,0-1.085-0.486-1.085-1.083 v-2.976c-0.63-0.528-1.377-1.341-1.377-2.532c0-2.081,1.758-3.837,3.839-3.837c2.079,0,3.837,1.757,3.837,3.837 c0,1.191-0.746,2.003-1.377,2.532v2.976C44.854,980.207,44.367,980.693,43.77,980.693z M42.394,971.055 c-1.653,0-3.049,1.396-3.049,3.048c0,0.73,0.379,1.358,1.229,2.037l0.148,0.119v3.352c0,0.162,0.132,0.294,0.294,0.294h2.753 c0.162,0,0.294-0.132,0.294-0.294v-3.352l0.148-0.119c0.85-0.678,1.229-1.307,1.229-2.037 C45.44,972.451,44.045,971.055,42.394,971.055z M43.477,979.316H41.31v-3.148c0.002-0.106-0.047-0.198-0.129-0.254 c-0.622-0.438-1.249-1.197-1.249-1.811c0-1.265,1.196-2.46,2.462-2.46c1.264,0,2.46,1.195,2.46,2.46 c0,0.613-0.626,1.373-1.245,1.807c-0.086,0.06-0.134,0.152-0.132,0.251V979.316z M42.1,978.527h0.587v-2.359 c-0.006-0.359,0.171-0.701,0.473-0.907c0.551-0.386,0.904-0.945,0.904-1.158c0-0.757-0.745-1.671-1.67-1.671 c-0.927,0-1.671,0.914-1.671,1.671c0,0.213,0.354,0.772,0.907,1.162c0.298,0.202,0.476,0.544,0.47,0.91V978.527z M18.984,975.185 H16.23c-0.597,0-1.083-0.486-1.083-1.083v-2.977c-0.63-0.528-1.377-1.339-1.377-2.532c0-2.08,1.757-3.837,3.837-3.837 c2.08,0,3.837,1.757,3.837,3.837c0,1.193-0.747,2.003-1.377,2.532v2.976C20.067,974.7,19.582,975.185,18.984,975.185z M17.607,965.547c-1.652,0-3.048,1.396-3.048,3.048c0,0.73,0.378,1.358,1.228,2.036l0.148,0.119v3.353 c0,0.162,0.132,0.294,0.294,0.294h2.754c0.162,0,0.293-0.132,0.293-0.294v-3.354l0.148-0.119c0.85-0.677,1.229-1.305,1.229-2.036 C20.655,966.943,19.259,965.547,17.607,965.547z M18.69,973.808h-2.167v-3.148c0.001-0.106-0.046-0.199-0.128-0.254 c-0.624-0.438-1.249-1.199-1.249-1.812c0-1.264,1.195-2.46,2.46-2.46c1.264,0,2.459,1.196,2.459,2.46 c0,0.612-0.625,1.373-1.243,1.808c-0.087,0.059-0.135,0.152-0.133,0.251V973.808z M17.313,973.019h0.588v-2.359 c-0.006-0.36,0.171-0.702,0.474-0.908c0.549-0.386,0.902-0.944,0.902-1.158c0-0.756-0.746-1.67-1.67-1.67 c-0.926,0-1.671,0.914-1.671,1.67c0,0.213,0.354,0.772,0.908,1.162c0.298,0.202,0.475,0.544,0.469,0.91V973.019z M46.23,958.662 h-3.559l0.016-0.409c0.003-0.079-0.025-0.154-0.078-0.212c-0.054-0.057-0.126-0.09-0.204-0.093l-0.013-0.395v0.395v-0.395 l-0.036,0.397c-0.153,0.019-0.264,0.149-0.258,0.303l0.016,0.409h-3.56v-2.171l0.401,0.006l0,0c0.163,0,0.296-0.13,0.298-0.289 c0.002-0.079-0.028-0.153-0.083-0.21c-0.055-0.056-0.128-0.087-0.205-0.089l-0.39-0.006l-0.021-0.389v-1.771h7.676V958.662z M43.413,957.873h2.027v-3.341h-6.096v0.659c0.149,0.056,0.282,0.143,0.394,0.257c0.201,0.208,0.31,0.481,0.306,0.771 c-0.006,0.454-0.296,0.842-0.699,0.997v0.658h2.027c0.134-0.374,0.466-0.654,0.886-0.707l0.143-0.008h0.035 c0.289,0.011,0.557,0.135,0.753,0.347C43.289,957.614,43.363,957.739,43.413,957.873z M31.083,958.662h-7.674v-2.171l0.4,0.006 l-0.005,0.395l0.01-0.395c0.16,0,0.292-0.13,0.294-0.29c0.001-0.079-0.028-0.153-0.083-0.209 c-0.054-0.056-0.128-0.087-0.206-0.089l-0.389-0.006l-0.021-0.389v-1.771h7.674v2.203l-0.43-0.039 c-0.218,0.016-0.338,0.161-0.322,0.324c0.015,0.153,0.142,0.268,0.295,0.268h0.395l0.062,0.392V958.662z M24.198,957.873h6.096 v-0.653c-0.424-0.137-0.706-0.484-0.748-0.912c-0.05-0.518,0.272-0.987,0.748-1.14v-0.637h-6.096v0.659 c0.149,0.056,0.282,0.143,0.393,0.257c0.201,0.208,0.31,0.481,0.305,0.771c-0.006,0.454-0.296,0.842-0.698,0.997V957.873z"></path></g></g></svg>