<svg xmlns="http://www.w3.org/2000/svg" width="68" height="61" viewBox="0 0 68 61" fill="none"><path d="M18.0125 16.2325C18.4425 16.6625 19.1425 16.6625 19.5725 16.2325C20.0025 15.8025 20.0025 15.1025 19.5725 14.6725L8.58253 3.68249C8.15253 3.25249 7.45251 3.25249 7.02251 3.68249C6.59251 4.11249 6.59251 4.81249 7.02251 5.24249L18.0125 16.2325Z" fill="#0CB4C4"></path><path d="M14.6625 19.5825C15.0925 20.0125 15.7925 20.0125 16.2225 19.5825C16.6525 19.1525 16.6525 18.4525 16.2225 18.0225L5.2325 7.03252C4.8025 6.60252 4.10251 6.60252 3.67251 7.03252C3.24251 7.46252 3.24251 8.16252 3.67251 8.59252L14.6625 19.5825Z" fill="#0CB4C4"></path><path d="M15.3425 26.9725C16.7425 28.3725 17.9625 28.5225 19.6625 27.5025L21.4725 26.4225L29.1625 34.5025L9.9925 52.7425C9.5425 53.1725 9.29251 53.7425 9.28251 54.3525C9.28251 54.9625 9.51251 55.5425 9.94251 55.9825L13.2925 59.3425C13.7225 59.7725 14.2925 60.0025 14.8925 60.0025C15.4925 60.0025 16.1025 59.7425 16.5325 59.2925L34.6325 40.2625L52.7425 59.3025C53.1725 59.7525 53.7425 60.0025 54.3525 60.0025C54.9825 60.0025 55.5525 59.7625 55.9825 59.3425L59.3325 55.9925C59.7725 55.5525 60.0025 54.9825 60.0025 54.3625C60.0025 53.7525 59.7425 53.1825 59.3025 52.7525L40.1225 34.5025L47.7125 26.5325C48.8125 26.9525 50.0225 27.1625 51.3125 27.1625C55.2025 27.1625 59.3125 25.2925 62.5725 22.0325C65.2625 19.3425 67.0325 16.0425 67.5525 12.7325C68.0925 9.2925 67.2425 6.2425 65.1525 4.1525C63.4825 2.4825 61.1925 1.5925 58.5325 1.5925C54.6425 1.5925 50.5325 3.4625 47.2725 6.7325C42.8625 11.1425 41.0825 17.1325 42.7625 21.5925L34.6525 29.3125L26.4325 21.4925L27.5125 19.6825C28.5325 17.9825 28.3825 16.7725 26.9825 15.3625L11.9425 0.3225C11.5125 -0.1075 10.8125 -0.1075 10.3825 0.3225C9.9525 0.7525 9.9525 1.4525 10.3825 1.8825L25.4025 16.9025C26.0825 17.5825 26.0925 17.7025 25.6025 18.5225L24.0625 21.0925C23.7925 21.5325 23.8725 22.1025 24.2525 22.4625L33.0225 30.8325L30.7625 32.9825L22.4625 24.2525C22.1025 23.8725 21.5325 23.8025 21.0925 24.0625L18.5225 25.6025C17.7025 26.0925 17.5825 26.0825 16.9025 25.4025L1.8825 10.3825C1.4525 9.9525 0.7525 9.9525 0.3225 10.3825C-0.1075 10.8125 -0.1075 11.5125 0.3225 11.9425L15.3425 26.9625V26.9725ZM57.7725 54.4225L54.4225 57.7725L55.2025 58.5525L54.3425 57.7725L36.1625 38.6525L38.5825 36.1125L57.7825 54.4125L57.7725 54.4225ZM44.8325 22.6525C45.1825 22.3225 45.2725 21.8025 45.0625 21.3725C43.2625 17.6725 44.8125 12.2925 48.8225 8.2825C51.6325 5.4725 55.2625 3.7925 58.5225 3.7925C60.5825 3.7925 62.3325 4.4525 63.5825 5.7025C65.1625 7.2825 65.7925 9.6525 65.3625 12.3725C64.9125 15.2225 63.3625 18.1025 61.0025 20.4625C58.1925 23.2725 54.5725 24.9525 51.3125 24.9525C50.0525 24.9525 48.9125 24.7025 47.9225 24.2225C47.4925 24.0125 46.9725 24.1025 46.6425 24.4525L14.9525 57.7725C14.9525 57.7725 14.9325 57.7925 14.9125 57.7925L11.5225 54.3525L44.8425 22.6625L44.8325 22.6525Z" fill="#0CB4C4"></path></svg>