<svg xmlns="http://www.w3.org/2000/svg" xmlns:xlink="http://www.w3.org/1999/xlink" version="1.1" id="Layer_1" x="0px" y="0px" width="70.7px" height="60px" viewBox="0 0 70.7 60" enable-background="new 0 0 70.7 60" xml:space="preserve"><g><path fill="#0CB4C4" d="M66.151,15.615h-1.722V9.222c0-2.583-2.091-4.672-4.673-4.672H27.543c-0.614,0-1.229-0.246-1.723-0.738 l-2.335-2.336C22.502,0.491,21.273,0,20.043,0H4.797C2.215,0,0.001,2.091,0.001,4.795v47.46C0.001,56.558,3.445,60,7.749,60h58.155 c2.582,0,4.795-2.089,4.795-4.795V20.287C70.699,17.705,68.61,15.615,66.151,15.615z M2.46,52.255V4.918 c0-1.229,0.984-2.336,2.337-2.336h15.369c0.615,0,1.229,0.245,1.721,0.738l2.336,2.336c0.983,0.982,2.213,1.475,3.442,1.475h32.214 c1.229,0,2.213,0.984,2.213,2.214v6.393H14.387c-0.738,0-1.229,0.493-1.229,1.229v35.288c0,2.95-2.336,5.286-5.286,5.286 C4.919,57.541,2.46,55.205,2.46,52.255z M68.24,55.328c0,1.229-0.983,2.336-2.336,2.336h-52.5c1.352-1.353,2.09-3.318,2.09-5.286 V18.074h47.46c0,0,0,0,0.123,0s0,0,0.123,0h2.827c1.229,0,2.213,0.983,2.213,2.213V55.328L68.24,55.328z"></path><path fill="#0CB4C4" d="M49.182,34.059h-3.934v-3.936c0-0.738-0.491-1.229-1.229-1.229h-5.165c-0.737,0-1.229,0.491-1.229,1.229 v3.936h-3.934c-0.737,0-1.229,0.491-1.229,1.229v5.163c0,0.737,0.492,1.229,1.229,1.229h3.934v3.935 c0,0.738,0.492,1.229,1.229,1.229h5.165c0.738,0,1.229-0.491,1.229-1.229v-3.935h3.934c0.738,0,1.229-0.492,1.229-1.229v-5.163 C50.412,34.673,49.92,34.059,49.182,34.059z M47.953,39.222h-3.934c-0.738,0-1.229,0.491-1.229,1.229v3.935h-2.706v-3.935 c0-0.738-0.491-1.229-1.229-1.229H34.92v-2.704h3.934c0.738,0,1.229-0.493,1.229-1.229v-3.936h2.706v3.936 c0,0.736,0.491,1.229,1.229,1.229h3.934V39.222z"></path></g></svg>