<svg xmlns="http://www.w3.org/2000/svg" width="61" height="62" viewBox="0 0 61 62" fill="none"><path d="M32.2023 59.9714H1.96774V1.96771H59.9714V59.9714H41.1611" stroke="#0CB4C4" stroke-width="2" stroke-miterlimit="10"></path><path d="M25.3336 53.3462C19.2765 45.3614 12.1136 34.962 12.1136 27.2714C12.1136 16.8517 20.5549 8.41034 30.9746 8.41034C41.3944 8.41034 49.8357 16.8517 49.8357 27.2714C49.8357 37.6912 37.1636 52.6359 31.6747 60.0323L28.9252 59.9714" stroke="#0CB4C4" stroke-width="2" stroke-miterlimit="10"></path><path d="M30.9746 34.201C35.5918 34.201 39.3348 30.458 39.3348 25.8408C39.3348 21.2236 35.5918 17.4807 30.9746 17.4807C26.3574 17.4807 22.6145 21.2236 22.6145 25.8408C22.6145 30.458 26.3574 34.201 30.9746 34.201Z" stroke="#0CB4C4" stroke-width="2" stroke-miterlimit="10"></path></svg>