<svg xmlns="http://www.w3.org/2000/svg" xmlns:xlink="http://www.w3.org/1999/xlink" version="1.1" id="Layer_1" x="0px" y="0px" width="65.8px" height="60px" viewBox="0 0 65.8 60" enable-background="new 0 0 65.8 60" xml:space="preserve"><g><g><g><g><g><path fill="#0CB4C4" d="M18.392,33.842c-4.935,0-8.951-4.014-8.951-8.971c0-0.901,0.147-1.822,0.405-2.671 c0.092-0.257,0.313-0.46,0.589-0.497c0.276-0.056,0.553,0.073,0.72,0.296c0.441,0.606,1.086,1.122,1.878,1.474 c1.307,0.625,3.076,0.957,5.029,0.957l0,0c0.054,0,0.129,0,0.185,0c1.896-0.036,3.83-0.404,5.268-1.013 c0.957-0.405,1.694-0.921,2.154-1.51c0.167-0.204,0.443-0.315,0.72-0.26s0.478,0.24,0.57,0.517 c0.276,0.921,0.424,1.823,0.424,2.727C27.345,29.809,23.33,33.842,18.392,33.842z M10.97,23.914 c-0.038,0.313-0.056,0.645-0.056,0.957c0,4.128,3.353,7.497,7.478,7.497c4.128,0,7.479-3.353,7.479-7.497 c0-0.368-0.019-0.718-0.072-1.104c-0.499,0.368-1.069,0.7-1.733,0.977c-1.639,0.7-3.701,1.104-5.819,1.142 c-0.075,0-0.131,0-0.203,0l0,0c-2.155,0-4.164-0.386-5.638-1.105C11.873,24.539,11.392,24.246,10.97,23.914z"></path></g><g><path fill="#0CB4C4" d="M44.882,29.421c-5.435,0-9.855-4.421-9.855-9.855c0-1.013,0.147-2.007,0.46-2.964 c0.093-0.26,0.313-0.461,0.59-0.497c0.276-0.039,0.553,0.072,0.72,0.293c0.478,0.682,1.197,1.253,2.081,1.641 c1.455,0.699,3.408,1.067,5.526,1.067c0.093,0,0.185,0,0.276,0c2.118-0.018,4.254-0.441,5.876-1.142 c1.068-0.441,1.915-1.03,2.431-1.676c0.167-0.223,0.443-0.314,0.72-0.276c0.276,0.054,0.478,0.238,0.57,0.497 c0.313,0.994,0.46,2.008,0.46,3.021C54.737,25,50.316,29.421,44.882,29.421z M36.592,18.332 c-0.056,0.405-0.092,0.812-0.092,1.217c0,4.622,3.759,8.381,8.382,8.381c4.624,0,8.381-3.759,8.381-8.381 c0-0.461-0.036-0.921-0.109-1.364c-0.571,0.443-1.253,0.829-2.009,1.16c-1.806,0.793-4.108,1.234-6.428,1.254 c-0.093,0-0.204,0-0.296,0c-2.376,0-4.494-0.425-6.151-1.217C37.642,19.105,37.072,18.737,36.592,18.332z"></path></g><g><path fill="#0CB4C4" d="M26.72,21.315c-0.368,0-0.684-0.276-0.737-0.645H10.711c-0.036,0-0.092,0.02-0.129,0.02 c-0.773,0-0.94-0.829-1.05-1.326c-0.019-0.056-0.036-0.147-0.036-0.203l-2.229-3.794c-0.185-0.314-0.24-0.683-0.147-1.032 c0.092-0.349,0.313-0.645,0.627-0.829l10.076-6.06c0.441-0.295,1.013-0.295,1.474,0.018c0.017,0,0.017,0.02,0.036,0.02 l9.727,6.042c0.645,0.405,0.847,1.215,0.461,1.879c0,0.017-0.02,0.017-0.02,0.036v0.02l-2.155,3.684 c0.02,0.129,0.056,0.313,0.073,0.461c0.131,0.698,0.203,1.122-0.092,1.454C27.18,21.206,26.958,21.315,26.72,21.315z M11.024,19.197h14.848c-0.019-0.257,0-0.478,0.093-0.662c0,0,0-0.019,0.019-0.019l2.229-3.813l-9.652-5.986l-9.947,6.006 l2.211,3.757c0.018,0.02,0.018,0.056,0.036,0.073c0.073,0.147,0.092,0.314,0.147,0.517 C10.988,19.105,11.006,19.144,11.024,19.197z M20.567,18.296c-0.148,0-0.313-0.056-0.441-0.148l-1.733-1.27l-1.73,1.27 c-0.257,0.185-0.608,0.185-0.865,0c-0.259-0.184-0.368-0.516-0.276-0.828l0.662-2.044l-1.75-1.253 c-0.258-0.185-0.368-0.517-0.276-0.829s0.388-0.517,0.7-0.517h2.155l0.663-2.045c0.093-0.313,0.388-0.515,0.701-0.515l0,0 c0.313,0,0.607,0.202,0.7,0.515l0.662,2.045h2.174c0.313,0,0.608,0.204,0.7,0.517s-0.02,0.645-0.276,0.829l-1.732,1.253 l0.664,2.044c0.092,0.295-0.02,0.645-0.276,0.828C20.862,18.24,20.714,18.296,20.567,18.296z M18.392,15.237 c0.148,0,0.315,0.056,0.443,0.147l0.332,0.24l-0.13-0.388c-0.093-0.294,0.019-0.646,0.275-0.829l0.332-0.238h-0.404 c-0.313,0-0.608-0.203-0.7-0.516l-0.129-0.388l-0.129,0.388c-0.092,0.313-0.388,0.516-0.7,0.516h-0.404l0.331,0.238 c0.258,0.184,0.369,0.516,0.276,0.829l-0.13,0.388l0.314-0.24C18.08,15.275,18.247,15.237,18.392,15.237z"></path></g><g><path fill="#0CB4C4" d="M18.043,25.885c-2.155,0-4.164-0.386-5.638-1.105c-0.994-0.461-1.842-1.122-2.432-1.935 c-0.036-0.056-0.072-0.109-0.092-0.165c-0.018-0.036-0.846-2.892,0.313-3.391c0.02-0.017,0.056-0.017,0.075-0.017 c0.036-0.02,0.129-0.037,0.221-0.056c0.092-0.02,0.185-0.02,0.257-0.02h15.364c0.773,0,1.382,0.608,1.382,1.382 c0,0.314-0.553,2.064-0.572,2.082c-0.017,0.056-0.056,0.111-0.092,0.167c-0.626,0.773-1.547,1.418-2.727,1.934 c-1.639,0.699-3.701,1.105-5.82,1.142C18.171,25.885,18.099,25.885,18.043,25.885z M11.227,22.072 c0.441,0.571,1.069,1.032,1.806,1.381c1.307,0.626,3.076,0.958,5.029,0.958c0.054,0,0.129,0,0.185,0 c1.896-0.037,3.83-0.405,5.268-1.014c0.903-0.386,1.621-0.865,2.081-1.398c0.093-0.276,0.276-0.96,0.369-1.328H11.043 C11.062,21.114,11.155,21.796,11.227,22.072z"></path></g><g><path fill="#0CB4C4" d="M44.421,20.599c-2.376,0-4.494-0.425-6.151-1.217c-1.105-0.497-2.026-1.234-2.672-2.136 c-0.019-0.036-0.056-0.075-0.074-0.111c-0.185-0.405-0.533-2.358-0.238-3.132c0.129-0.313,0.33-0.46,0.478-0.533 c0.093-0.056,0.185-0.075,0.276-0.092c0.129-0.037,0.24-0.037,0.313-0.037h17.058c0.793,0,1.438,0.646,1.438,1.436 c0,0.296-0.553,2.174-0.645,2.322c-0.02,0.036-0.036,0.072-0.075,0.092c-0.662,0.848-1.711,1.585-3.001,2.138 c-1.806,0.79-4.108,1.233-6.43,1.251C44.606,20.599,44.513,20.599,44.421,20.599z M36.852,16.473 c0.478,0.645,1.178,1.178,2.025,1.565c1.455,0.699,3.408,1.067,5.526,1.067c0.093,0,0.185,0,0.276,0 c2.118-0.018,4.254-0.441,5.876-1.142c1.032-0.424,1.842-0.977,2.358-1.603c0.092-0.313,0.349-1.217,0.44-1.565H36.648 C36.648,15.312,36.759,16.158,36.852,16.473z"></path></g><g><path fill="#0CB4C4" d="M54.128,15.514c-0.404,0-0.718-0.313-0.736-0.699H36.353c-0.037,0-0.093,0.018-0.129,0.018 c-0.793,0-0.957-0.846-1.068-1.418c-0.018-0.073-0.037-0.185-0.054-0.24l-2.47-4.217c-0.185-0.313-0.258-0.701-0.148-1.089 c0.093-0.368,0.332-0.681,0.664-0.882L44.33,0.224c0.46-0.276,1.049-0.276,1.51,0c0.02,0.02,0.056,0.039,0.075,0.056 l10.793,6.688l0,0c0.664,0.424,0.867,1.271,0.479,1.935L57.168,8.92c0,0.018-0.018,0.018-0.018,0.037l-2.431,4.125 c0.017,0.129,0.054,0.352,0.092,0.517c0.146,0.756,0.221,1.233-0.075,1.585C54.572,15.421,54.351,15.514,54.128,15.514z M36.629,13.341h16.634c-0.036-0.332-0.036-0.571,0.111-0.792l2.504-4.293V8.237L45.049,1.514l0,0L33.904,8.237l2.487,4.236 c0.018,0.02,0.018,0.056,0.036,0.075c0.073,0.147,0.109,0.332,0.148,0.569C36.592,13.174,36.612,13.267,36.629,13.341z M47.295,12.161c-0.147,0-0.313-0.056-0.443-0.147l-1.97-1.436l-1.971,1.436c-0.258,0.184-0.608,0.184-0.866,0 c-0.259-0.185-0.368-0.515-0.275-0.829l0.754-2.32l-1.971-1.418c-0.258-0.184-0.368-0.516-0.276-0.829 c0.092-0.314,0.388-0.516,0.7-0.516h2.45l0.737-2.339c0.092-0.315,0.386-0.517,0.7-0.517c0.33,0,0.606,0.201,0.698,0.517 l0.756,2.339h2.45c0.313,0,0.608,0.201,0.701,0.516c0.092,0.313-0.02,0.646-0.276,0.829l-1.99,1.418l0.754,2.32 c0.093,0.295,0,0.645-0.257,0.829C47.589,12.105,47.444,12.161,47.295,12.161z M43.28,7.575l0.553,0.404 c0.257,0.185,0.368,0.517,0.276,0.829L43.888,9.49l0.569-0.405c0.26-0.184,0.608-0.184,0.867,0l0.553,0.405l-0.223-0.662 c-0.092-0.314,0-0.645,0.276-0.829l0.572-0.406h-0.682c-0.313,0-0.608-0.202-0.7-0.515l-0.221-0.664l-0.203,0.664 c-0.092,0.313-0.386,0.515-0.7,0.515H43.28V7.575z"></path></g><g><path fill="#0CB4C4" d="M62.51,60H27.327c-1.067,0-2.172-0.553-2.78-1.382c-0.461-0.626-0.59-1.344-0.369-2.026l2.34-7.33 c3.887-12.269,9.91-18.22,18.401-18.22c4.68,0,8.713,1.898,11.956,5.619c2.597,2.983,4.715,7.11,6.447,12.601l2.339,7.33 c0.221,0.683,0.093,1.4-0.368,2.026C64.704,59.447,63.579,60,62.51,60z M44.918,32.516c-7.773,0-13.336,5.619-17.001,17.188 l-2.341,7.332c-0.037,0.092-0.109,0.349,0.147,0.7c0.332,0.46,0.996,0.773,1.585,0.773H62.51c0.591,0,1.272-0.332,1.585-0.773 c0.257-0.368,0.185-0.628,0.147-0.7l-2.339-7.332C58.256,38.153,52.694,32.516,44.918,32.516z"></path></g><g><path fill="#0CB4C4" d="M22.537,60L22.537,60H2.974c-0.957,0-1.951-0.497-2.504-1.234c-0.424-0.57-0.535-1.233-0.351-1.859 l2.045-6.411C5.59,39.7,10.895,34.45,18.375,34.45c4.089,0,7.607,1.641,10.463,4.864c0.201,0.238,0.238,0.57,0.092,0.847 c-1.4,2.469-2.653,5.397-3.684,8.677l-2.341,7.349c-0.294,0.904-0.202,1.825,0.239,2.654c0.075,0.109,0.129,0.257,0.129,0.404 C23.274,59.687,22.944,60,22.537,60z M18.392,35.924c-6.76,0-11.604,4.918-14.81,15.013l-2.045,6.411 c-0.018,0.056-0.073,0.257,0.13,0.553c0.276,0.368,0.829,0.645,1.307,0.645h18.458c-0.238-0.901-0.221-1.842,0.074-2.782 l2.34-7.349c1.013-3.188,2.21-6.043,3.555-8.493C24.878,37.232,21.931,35.924,18.392,35.924z"></path></g></g><g><g><path fill="#0CB4C4" d="M44.882,29.421c-5.435,0-9.855-4.421-9.855-9.855c0-1.013,0.147-2.007,0.46-2.964 c0.093-0.26,0.313-0.461,0.59-0.497c0.276-0.039,0.553,0.072,0.72,0.293c0.478,0.682,1.197,1.253,2.081,1.641 c1.455,0.699,3.408,1.067,5.526,1.067l0,0c0.093,0,0.185,0,0.276,0c2.118-0.018,4.254-0.441,5.876-1.142 c1.068-0.441,1.915-1.03,2.431-1.676c0.167-0.223,0.443-0.314,0.72-0.276c0.276,0.054,0.478,0.238,0.57,0.497 c0.313,0.994,0.46,2.008,0.46,3.021C54.737,25,50.316,29.421,44.882,29.421z M36.592,18.332 c-0.056,0.405-0.092,0.812-0.092,1.217c0,4.622,3.759,8.381,8.382,8.381c4.624,0,8.381-3.759,8.381-8.381 c0-0.461-0.036-0.921-0.109-1.364c-0.571,0.443-1.253,0.829-2.009,1.16c-1.806,0.793-4.108,1.234-6.428,1.254 c-0.093,0-0.185,0-0.296,0c-2.376,0-4.494-0.425-6.151-1.217C37.642,19.105,37.072,18.737,36.592,18.332z"></path></g><g><path fill="#0CB4C4" d="M36.207,17.559c-0.276,0-0.553-0.165-0.683-0.424c-0.185-0.405-0.533-2.358-0.238-3.132 c0.129-0.313,0.33-0.46,0.478-0.533c0.093-0.056,0.185-0.075,0.276-0.092c0.129-0.037,0.24-0.037,0.313-0.037h17.058 c0.793,0,1.438,0.646,1.438,1.436c0,0.296-0.553,2.174-0.645,2.322c-0.203,0.349-0.645,0.479-0.996,0.276 c-0.33-0.185-0.46-0.59-0.313-0.94c0.075-0.202,0.368-1.251,0.46-1.639H36.648c0,0.533,0.129,1.454,0.221,1.713 c0.167,0.369,0.02,0.793-0.349,0.978C36.409,17.54,36.299,17.559,36.207,17.559z"></path></g><g><path fill="#0CB4C4" d="M42.487,12.161c-0.147,0-0.293-0.056-0.424-0.147c-0.257-0.185-0.368-0.515-0.276-0.829l0.756-2.32 l-1.971-1.418c-0.259-0.184-0.368-0.516-0.276-0.829c0.093-0.314,0.386-0.516,0.701-0.516h2.448l0.736-2.339 c0.093-0.315,0.388-0.517,0.701-0.517l0,0c0.313,0,0.607,0.201,0.7,0.517l0.756,2.339h2.448c0.314,0,0.608,0.201,0.7,0.516 c0.093,0.313-0.017,0.646-0.276,0.829l-1.989,1.418l0.756,2.32c0.092,0.295,0,0.645-0.257,0.829 c-0.26,0.184-0.608,0.184-0.868,0l-1.97-1.436l-1.971,1.436C42.783,12.105,42.635,12.161,42.487,12.161z M43.28,7.575 l0.553,0.404c0.257,0.185,0.368,0.517,0.276,0.829L43.888,9.49l0.569-0.405c0.26-0.184,0.608-0.184,0.867,0l0.553,0.405 l-0.223-0.662c-0.092-0.314,0-0.645,0.276-0.829l0.572-0.406h-0.682c-0.313,0-0.608-0.202-0.7-0.515l-0.221-0.664l-0.203,0.664 c-0.092,0.313-0.386,0.515-0.7,0.515L43.28,7.575L43.28,7.575z"></path></g><g><path fill="#0CB4C4" d="M54.128,15.514c-0.404,0-0.736-0.33-0.736-0.737c0-0.109,0.019-0.201,0.056-0.294 c-0.018-0.166-0.073-0.404-0.093-0.571c-0.128-0.682-0.184-1.05,0.02-1.382l2.504-4.292V8.22L45.049,1.496l0,0L33.904,8.22 l2.487,4.237c0.018,0.017,0.018,0.056,0.036,0.072c0.073,0.147,0.109,0.332,0.148,0.572c0.017,0.109,0.054,0.276,0.092,0.386 c0.165,0.13,0.276,0.351,0.276,0.571c0,0.405-0.332,0.737-0.737,0.737c-0.792,0-0.959-0.849-1.068-1.418 c-0.02-0.075-0.036-0.185-0.056-0.24L32.615,8.92c-0.185-0.314-0.259-0.72-0.147-1.088c0.092-0.368,0.332-0.681,0.662-0.885 l11.183-6.74c0.461-0.276,1.05-0.276,1.51,0c0.018,0.017,0.056,0.036,0.073,0.056L56.69,6.967 c0.662,0.424,0.885,1.271,0.497,1.953l-0.019,0.018c0,0.02-0.018,0.02-0.018,0.036l-2.431,4.128 c0.017,0.128,0.054,0.349,0.092,0.516c0.146,0.754,0.221,1.234-0.075,1.583C54.572,15.421,54.351,15.514,54.128,15.514z"></path></g><g><path fill="#0CB4C4" d="M18.392,33.842c-4.935,0-8.951-4.014-8.951-8.971c0-0.901,0.147-1.822,0.405-2.671 c0.092-0.257,0.313-0.46,0.589-0.497c0.276-0.056,0.553,0.073,0.72,0.296c0.441,0.606,1.086,1.122,1.878,1.474 c1.307,0.625,3.076,0.957,5.029,0.957c0.054,0,0.129,0,0.185,0c1.896-0.036,3.83-0.404,5.268-1.013 c0.957-0.405,1.694-0.921,2.154-1.51c0.167-0.204,0.443-0.315,0.72-0.26s0.478,0.24,0.57,0.517 c0.276,0.921,0.424,1.823,0.424,2.727C27.345,29.809,23.33,33.842,18.392,33.842z M10.97,23.914 c-0.038,0.313-0.056,0.645-0.056,0.957c0,4.128,3.353,7.497,7.478,7.497c4.128,0,7.479-3.353,7.479-7.497 c0-0.368-0.019-0.718-0.072-1.104c-0.499,0.368-1.069,0.7-1.733,0.977c-1.639,0.7-3.701,1.104-5.819,1.142 c-0.075,0-0.131,0-0.203,0c-2.155,0-4.164-0.386-5.638-1.105C11.873,24.539,11.392,24.246,10.97,23.914z"></path></g><g><path fill="#0CB4C4" d="M10.564,23.158c-0.294,0-0.57-0.185-0.682-0.461c-0.018-0.036-0.846-2.892,0.313-3.389 c0.02-0.02,0.056-0.02,0.075-0.02c0.036-0.017,0.129-0.036,0.221-0.054c0.092-0.019,0.185-0.019,0.257-0.019h15.364 c0.773,0,1.382,0.608,1.382,1.382c0,0.313-0.553,2.063-0.572,2.081c-0.165,0.369-0.608,0.534-0.977,0.369 c-0.368-0.167-0.533-0.572-0.386-0.94c0.056-0.147,0.294-1.014,0.405-1.418H11.043c0.019,0.479,0.128,1.271,0.203,1.474 c0.146,0.388-0.038,0.81-0.424,0.957C10.731,23.141,10.656,23.158,10.564,23.158z"></path></g><g><path fill="#0CB4C4" d="M16.238,18.296c-0.148,0-0.294-0.056-0.425-0.148c-0.257-0.184-0.368-0.516-0.275-0.828l0.663-2.044 l-1.75-1.253c-0.257-0.185-0.368-0.517-0.276-0.829c0.093-0.313,0.388-0.517,0.701-0.517h2.154l0.664-2.045 c0.092-0.313,0.386-0.515,0.698-0.515l0,0c0.315,0,0.608,0.202,0.7,0.515l0.664,2.045h2.155c0.313,0,0.608,0.204,0.7,0.517 s-0.02,0.645-0.276,0.829l-1.732,1.253l0.664,2.044c0.092,0.295-0.02,0.645-0.276,0.828c-0.258,0.185-0.608,0.185-0.865,0 l-1.733-1.27l-1.73,1.27C16.55,18.24,16.385,18.296,16.238,18.296z M18.392,15.237c0.148,0,0.315,0.056,0.443,0.147l0.332,0.24 l-0.13-0.388c-0.093-0.294,0.019-0.646,0.275-0.829l0.332-0.238h-0.404c-0.313,0-0.608-0.203-0.7-0.516l-0.129-0.388 l-0.129,0.388c-0.092,0.313-0.388,0.516-0.7,0.516h-0.404l0.331,0.238c0.258,0.184,0.369,0.516,0.276,0.829l-0.13,0.388 l0.314-0.24C18.08,15.275,18.247,15.237,18.392,15.237z"></path></g><g><path fill="#0CB4C4" d="M26.72,21.315c-0.407,0-0.737-0.33-0.737-0.736c0-0.092,0.018-0.185,0.054-0.257 c-0.017-0.129-0.054-0.35-0.072-0.48c-0.111-0.606-0.185-0.975,0-1.289c0,0,0-0.018,0.019-0.018l2.229-3.813l-9.652-5.986 L8.612,14.74l2.211,3.759c0.018,0.018,0.018,0.054,0.036,0.073c0.073,0.147,0.092,0.313,0.147,0.516 c0.018,0.092,0.037,0.221,0.073,0.313c0.167,0.129,0.259,0.332,0.259,0.572c0,0.405-0.332,0.737-0.736,0.737 c-0.775,0-0.94-0.829-1.052-1.328c-0.018-0.054-0.036-0.146-0.036-0.202l-2.228-3.795c-0.185-0.313-0.24-0.682-0.148-1.03 c0.093-0.352,0.313-0.645,0.626-0.829l10.075-6.062c0.443-0.294,1.014-0.294,1.474,0.02c0.02,0,0.02,0.017,0.039,0.017 l9.725,6.043c0.645,0.404,0.848,1.216,0.46,1.878c0,0.02-0.017,0.02-0.017,0.039l-0.02,0.017l-2.155,3.685 c0.02,0.128,0.056,0.313,0.073,0.46c0.131,0.701,0.203,1.125-0.092,1.457C27.18,21.206,26.958,21.315,26.72,21.315z"></path></g><g><path fill="#0CB4C4" d="M22.537,60L22.537,60H2.974c-0.957,0-1.951-0.497-2.504-1.234c-0.424-0.57-0.535-1.233-0.351-1.859 l2.045-6.411C5.59,39.7,10.895,34.45,18.375,34.45c4.089,0,7.607,1.641,10.463,4.864c0.201,0.238,0.238,0.57,0.092,0.847 c-1.4,2.469-2.653,5.397-3.684,8.677l-2.341,7.349c-0.294,0.904-0.202,1.825,0.239,2.654c0.075,0.109,0.129,0.257,0.129,0.404 C23.274,59.687,22.944,60,22.537,60z M18.392,35.924c-6.76,0-11.604,4.918-14.81,15.013l-2.045,6.411 c-0.018,0.056-0.073,0.257,0.13,0.553c0.276,0.368,0.829,0.645,1.307,0.645h18.458c-0.238-0.901-0.221-1.842,0.074-2.782 l2.34-7.349c1.013-3.188,2.21-6.043,3.555-8.493C24.878,37.232,21.931,35.924,18.392,35.924z"></path></g><g><path fill="#0CB4C4" d="M62.51,60H27.327c-1.067,0-2.172-0.553-2.78-1.382c-0.461-0.626-0.59-1.344-0.369-2.026l2.34-7.33 c3.887-12.269,9.91-18.22,18.401-18.22c4.68,0,8.713,1.898,11.956,5.619c2.597,2.983,4.715,7.11,6.447,12.601l2.339,7.33 c0.221,0.683,0.093,1.4-0.368,2.026C64.704,59.447,63.579,60,62.51,60z M44.918,32.516c-7.773,0-13.336,5.619-17.001,17.188 l-2.341,7.332c-0.037,0.092-0.109,0.349,0.147,0.7c0.332,0.46,0.996,0.773,1.585,0.773H62.51c0.591,0,1.272-0.332,1.585-0.773 c0.257-0.368,0.185-0.628,0.147-0.7l-2.339-7.332C58.256,38.153,52.694,32.516,44.918,32.516z"></path></g></g></g></g></g></svg>