<svg width="61" height="61" viewBox="0 0 61 61" fill="none" xmlns="http://www.w3.org/2000/svg"><path d="M59.0877 43.2263V38.6679C59.0877 38.4183 58.9596 38.1234 58.6874 38.0781L55.4114 37.5216C55.1472 37.4802 54.943 37.2827 54.8776 37.0372C54.568 35.9363 54.129 34.8768 53.5645 33.8826C53.4284 33.6371 53.4618 33.3448 53.6246 33.138L55.5315 30.4598C55.6903 30.237 55.5729 29.934 55.3994 29.7566C54.8883 29.2455 52.3916 26.6433 52.0366 26.4245C51.6776 26.7955 51.3027 27.1464 50.909 27.48C50.2805 28.0098 49.9629 28.6984 49.9629 29.523V31.8449C49.9629 33.3008 49.1796 34.6019 47.9733 35.3105C49.2183 36.8504 49.9629 38.8133 49.9629 40.9498C49.9629 45.9085 45.9423 49.9291 40.9835 49.9291C36.0248 49.9291 32.0041 45.9085 32.0041 40.9498C32.0041 38.812 32.7488 36.8491 33.9938 35.3105C32.7875 34.6032 32.0041 33.3021 32.0041 31.8449V29.523C32.0041 28.6984 31.6865 28.0098 31.058 27.48C30.6644 27.1477 30.2907 26.7955 29.9304 26.4245C29.5755 26.6433 27.0828 29.2468 26.5677 29.7566C26.3942 29.934 26.2768 30.237 26.4356 30.4598L28.3425 33.138C28.5053 33.3462 28.5386 33.6371 28.4025 33.8826C27.8421 34.8781 27.4004 35.9363 27.0894 37.0372C27.0254 37.2827 26.8252 37.4802 26.5557 37.5216L23.2796 38.0781C23.0074 38.1234 22.8793 38.4183 22.8793 38.6679V43.2263C22.8793 43.4758 23.0074 43.7707 23.2796 43.8161L26.5557 44.3726C26.8239 44.4139 27.024 44.6141 27.0894 44.857C27.399 45.9579 27.8421 47.0174 28.4025 48.0156C28.5386 48.2571 28.5053 48.5493 28.3425 48.7575L26.4356 51.4357C26.2768 51.6586 26.3942 51.9615 26.5677 52.139C27.6085 53.1798 28.8522 54.3141 29.821 55.3883C29.9945 55.5511 30.2827 55.6458 30.4976 55.4937L33.2065 53.5681C33.2892 53.5081 33.7282 53.372 33.9177 53.5308C34.9159 54.0912 35.9794 54.5329 37.0843 54.8439C37.3459 54.9159 37.5273 55.1348 37.5647 55.3883L38.1132 58.6523C38.1585 58.9245 38.4574 59.05 38.707 59.05H43.2654C43.5109 59.05 43.8098 58.9245 43.8552 58.6523L44.4077 55.3883C44.4424 55.1348 44.6239 54.9159 44.8841 54.8439C45.989 54.5343 47.0512 54.0912 48.0507 53.5308C48.2402 53.372 48.6792 53.5081 48.7619 53.5681L51.4708 55.4937C51.687 55.6445 51.9739 55.5511 52.1514 55.3883C53.1162 54.3141 54.3599 53.1798 55.4007 52.139C55.5742 51.9615 55.6916 51.6586 55.5328 51.4357L53.6259 48.7575C53.4631 48.5493 53.4298 48.2584 53.5659 48.0156C54.129 47.0174 54.568 45.9579 54.8789 44.857C54.943 44.6154 55.1472 44.4139 55.4127 44.3726L58.6887 43.8161C58.9583 43.7707 59.0877 43.4758 59.0877 43.2263ZM1.69655 55.8073L11.618 55.8113C11.985 55.8113 12.2799 56.1062 12.2799 56.4732V58.4548L18.6985 54.0365L12.2799 49.4181V51.4491C12.2799 51.816 11.985 52.1109 11.618 52.1109H1.69655V55.8073ZM10.9535 57.1391H1.028C0.661035 57.1391 0.362123 56.8402 0.362123 56.4732L0.366126 51.4504C0.366126 51.0834 0.661035 50.7845 1.028 50.7845H4.68968V41.5543L1.028 41.5583C0.661035 41.5583 0.362123 41.2593 0.362123 40.8884L0.366126 35.8656C0.366126 35.4986 0.661035 35.1997 1.028 35.1997H4.68968V24.6844C4.68968 23.8063 6.02545 23.8063 6.02545 24.6844V35.1997H10.9548V32.5482C10.9468 31.9917 11.5713 31.6821 12.0064 31.9957L20.2265 37.9113C20.6308 38.1955 20.6121 38.7586 20.2371 39.0162L11.9944 44.6822C11.5593 44.9851 10.9535 44.6742 10.9535 44.1337V41.5543H6.02411V50.7845H10.9535V48.133C10.9455 47.5765 11.57 47.267 12.005 47.5805L20.2999 53.5535H24.5887C25.4668 53.5535 25.4668 54.8892 24.5887 54.8892H19.8114L11.993 60.2683C11.558 60.5672 10.9522 60.2576 10.9522 59.7199V57.1391H10.9535ZM1.69655 40.2265H11.618C11.985 40.2265 12.2799 40.5254 12.2799 40.8924V42.8713L18.6985 38.457L12.2799 33.8346V35.8656C12.2799 36.2326 11.985 36.5315 11.618 36.5315H1.69655V40.2265ZM10.4998 1.96838C5.65447 2.91716 1.9968 7.04455 1.69789 12.038H5.45831C5.51836 10.4006 5.88533 8.82602 6.50584 7.36615C6.13887 7.23404 5.77591 7.09392 5.42362 6.93513C4.62563 6.58017 5.16607 5.36584 5.96406 5.7208C6.33103 5.8836 6.70601 6.03038 7.08765 6.15982C7.94169 4.58653 9.10798 3.17203 10.4998 1.96838ZM21.4194 6.20119C20.5494 6.65089 19.6153 7.03388 18.6465 7.34346C19.2977 8.81134 19.69 10.3926 19.7741 12.038H23.5412C23.4091 9.8602 22.6418 7.85055 21.4194 6.20119ZM17.3534 7.71043C16.0337 8.04004 14.6605 8.2362 13.2874 8.29625V12.0367H18.4397C18.3516 10.5061 17.9779 9.06088 17.3534 7.71043ZM11.9517 8.31226C10.5332 8.28157 9.12666 8.10008 7.7909 7.7558C7.20508 9.09424 6.8568 10.5328 6.79274 12.038H11.9517V8.31226ZM8.4034 6.5388C9.54567 6.81103 10.7413 6.95514 11.9517 6.9845V2.50215C10.4958 3.63775 9.28546 5.00688 8.4034 6.5388ZM13.2874 6.96582C14.4417 6.91244 15.5946 6.75364 16.7102 6.49743C16.0484 5.39253 15.2117 4.37969 14.2362 3.47895C13.593 2.88513 14.4937 1.90566 15.1369 2.49948C16.3019 3.5737 17.2854 4.7987 18.042 6.14248C18.916 5.87426 19.7514 5.54465 20.5427 5.155C18.6892 3.21073 16.1324 1.95503 13.2874 1.78422V6.96582ZM6.81143 13.3738C6.92085 14.879 7.3105 16.3202 7.94569 17.6519C9.24676 17.3343 10.5972 17.1409 11.9517 17.0808V13.3738H6.81143ZM8.6049 18.8623C9.2561 19.9178 10.0648 20.8933 11.0029 21.7593C11.6461 22.3531 10.7453 23.3326 10.1021 22.7388C8.97053 21.6979 8.01375 20.5103 7.26513 19.2172C6.36172 19.4894 5.49167 19.8297 4.67767 20.2314C6.5352 22.1903 9.09597 23.454 11.9517 23.6289V18.4126C10.8241 18.4646 9.6978 18.6167 8.6049 18.8623ZM6.64862 18.0149C5.98675 16.5617 5.57841 15.0004 5.47566 13.3738H1.69655C1.82866 15.5409 2.58929 17.5385 3.79962 19.1839C4.69635 18.7222 5.65047 18.3325 6.64862 18.0149ZM13.2874 22.7361C14.7059 21.6312 15.8856 20.3075 16.7636 18.8249C15.64 18.5634 14.4711 18.4246 13.2874 18.3979V22.7361ZM17.3908 17.6106C17.9886 16.2868 18.3516 14.8603 18.4383 13.3738H13.2861V17.0661C14.6872 17.0955 16.075 17.273 17.3908 17.6106ZM19.7741 13.3738C19.6914 14.9964 19.3124 16.551 18.6812 17.9962C19.0668 18.1323 19.4458 18.2805 19.8128 18.4419C20.6108 18.8009 20.0703 20.0152 19.2723 19.6563C18.8867 19.4854 18.489 19.3347 18.0847 19.1985C17.1813 20.8212 15.9549 22.2664 14.4804 23.4887C19.4471 22.6414 23.2369 18.4579 23.5439 13.3738H19.7741ZM3.93973 4.0234C8.73301 -0.769875 16.5061 -0.769875 21.298 4.0234C26.0939 8.81934 26.0939 16.5937 21.298 21.3857C16.5061 26.1816 8.73167 26.1816 3.93973 21.3857C-0.856213 16.5924 -0.856213 8.81934 3.93973 4.0234ZM41.6801 21.1014L41.612 25.2208C41.5974 26.0949 40.2696 26.0762 40.2803 25.1981L40.3523 21.1135C38.2146 20.7919 37.7502 19.5241 37.0349 17.5732C36.8041 16.9487 36.5425 16.2454 36.1836 15.4888C35.8206 14.7215 35.2455 14.033 34.4808 13.9155C32.7301 13.6513 31.2622 16.6765 35.8686 17.5999C36.7267 17.7734 36.4665 19.0758 35.6071 18.905C33.7456 18.53 32.1042 17.6826 31.5971 16.1961C30.7191 13.6313 33.9457 11.2373 36.3144 13.4125C37.3018 14.3199 37.8543 15.9505 38.2813 17.1155C38.8711 18.7155 39.2381 19.7136 40.9822 19.8431C42.7263 19.715 43.0933 18.7155 43.6831 17.1155C44.1101 15.9505 44.6625 14.3199 45.65 13.4125C48.0173 11.2373 51.244 13.6286 50.3672 16.1961C49.8602 17.6826 48.2188 18.53 46.3573 18.905C45.4992 19.0758 45.2377 17.7734 46.0957 17.5999C47.4382 17.3317 48.7699 16.7445 49.1035 15.7691C49.6333 14.2251 47.1473 12.6105 45.7821 15.4888C45.4232 16.2454 45.1616 16.9487 44.9308 17.5732C44.2249 19.5055 43.7645 20.7652 41.6801 21.1014ZM33.3386 30.0248H40.4084C41.2864 30.0248 41.2864 31.3605 40.4084 31.3605H33.3386V31.8449C33.3386 33.3208 34.5409 34.5231 36.0168 34.5231H45.9503C47.4262 34.5231 48.6285 33.3208 48.6285 31.8449V29.523C48.6285 28.3127 49.1236 27.2465 50.051 26.4632C56.3041 21.1668 56.7231 11.647 50.9063 5.83289C45.4258 0.352381 36.5439 0.352381 31.062 5.83289C25.2439 11.647 25.6643 21.1682 31.9174 26.4632C32.8435 27.2465 33.3399 28.3127 33.3399 29.523V30.0248H33.3386ZM43.4616 31.3605C42.5835 31.3605 42.5835 30.0248 43.4616 30.0248H44.9481C45.8262 30.0248 45.8262 31.3605 44.9481 31.3605H43.4616ZM47.6637 37.2267C47.2247 40.5361 44.373 43.0822 40.9835 43.0822C37.5941 43.0822 34.7424 40.5361 34.3034 37.2267C33.6869 38.3276 33.3386 39.594 33.3386 40.9484C33.3386 45.1692 36.7614 48.5934 40.9835 48.5934C45.2043 48.5934 48.6285 45.1706 48.6285 40.9484C48.6285 39.5953 48.2802 38.3276 47.6637 37.2267ZM46.3893 35.8309L35.5791 35.8349V36.342C35.5791 39.3151 38.0158 41.7478 40.9849 41.7478C43.954 41.7478 46.3906 39.3151 46.3906 36.342V35.8309H46.3893ZM52.9253 25.421C53.1869 25.6252 55.8758 28.3527 56.3415 28.8185C56.9807 29.4576 57.1582 30.4718 56.6137 31.2311L54.931 33.5984C55.3847 34.4564 55.7557 35.3532 56.0426 36.2806L58.9063 36.765C59.8297 36.9158 60.4235 37.7605 60.4235 38.6679V43.2263C60.4235 44.1337 59.8297 44.9771 58.9063 45.1292L56.0426 45.6176C55.7557 46.541 55.3847 47.4364 54.931 48.2958L56.6137 50.6631C57.1582 51.4237 56.9807 52.4365 56.3415 53.0757L53.1188 56.3024C52.4796 56.9416 51.4588 57.1191 50.6982 56.5786L48.3309 54.8959C47.4755 55.3456 46.5801 55.7166 45.6527 56.0048L45.1683 58.8725C45.0135 59.7919 44.1701 60.3857 43.2654 60.3857H38.707C37.7996 60.3857 36.9562 59.7919 36.8001 58.8725L36.3157 56.0048C35.3923 55.7179 34.4929 55.3469 33.6375 54.8959L31.2702 56.5786C30.5096 57.1191 29.4887 56.9416 28.8535 56.3024L25.6269 53.0757C24.9877 52.4365 24.8142 51.4224 25.3547 50.6631L27.0374 48.2958C26.5877 47.4378 26.2127 46.541 25.9258 45.6176L23.0621 45.1292C22.1427 44.9784 21.5449 44.1337 21.5449 43.2263V38.6679C21.5449 37.7605 22.1427 36.9171 23.0621 36.765L25.9258 36.2806C26.2127 35.3545 26.5877 34.4578 27.0374 33.5984L25.3547 31.2311C24.8142 30.4705 24.9877 29.4576 25.6269 28.8185C26.0926 28.3527 28.7815 25.6265 29.043 25.421C24.103 19.3267 24.546 10.4607 30.1213 4.88544C36.1209 -1.11416 45.8489 -1.11416 51.8485 4.88544C57.4224 10.4607 57.8654 19.328 52.9253 25.421Z" fill="#0CB4C4"></path></svg>