<svg width="51" height="60" viewBox="0 0 51 60" fill="none" xmlns="http://www.w3.org/2000/svg"><path fill-rule="evenodd" clip-rule="evenodd" d="M12.0254 16.1707C12.5816 16.1707 13.0894 16.3798 13.4701 16.7255L15.3063 15.6722C15.6195 15.4927 16.0219 15.5972 16.2029 15.9108C16.3838 16.2216 16.2785 16.621 15.9652 16.8005L14.1262 17.8537C14.1586 17.9984 14.1748 18.1512 14.1748 18.3066C14.1748 18.8962 13.9345 19.4295 13.5456 19.8154C13.1568 20.2013 12.6194 20.4398 12.0253 20.4398C11.4312 20.4398 10.8938 20.2013 10.505 19.8154C10.1161 19.4295 9.87577 18.8962 9.87577 18.3066C9.87577 17.717 10.1161 17.1838 10.505 16.7979C10.8938 16.412 11.4313 16.1707 12.0254 16.1707ZM7.2456 8.79016L8.86042 11.5692C9.63275 11.2101 10.4779 10.9797 11.3664 10.9046V7.69677C9.89468 7.7852 8.50129 8.16839 7.2456 8.79016ZM7.72897 12.2204C7.37252 12.4697 7.04037 12.7484 6.73252 13.0512C6.42468 13.3567 6.14384 13.6863 5.89542 14.0401L3.09508 12.4375C3.49204 11.8426 3.94843 11.2932 4.45336 10.7894C4.95833 10.2883 5.51465 9.83537 6.11408 9.44144L7.72897 12.2204ZM5.23647 15.1683L2.43612 13.5658C1.80963 14.8093 1.4235 16.1948 1.33432 17.6553H4.56673C4.64234 16.7709 4.87461 15.9348 5.23647 15.1683ZM5.19326 18.9577C5.55512 18.9577 5.84946 18.6656 5.84946 18.3065C5.84946 16.6155 6.54077 15.0826 7.65875 13.9731C8.77673 12.8636 10.3187 12.1775 12.0253 12.1775C13.7293 12.1775 15.2739 12.8636 16.3919 13.9731C17.5099 15.0826 18.2012 16.6128 18.2012 18.3065C18.2012 18.6656 18.4955 18.9577 18.8574 18.9577H23.3941C23.7559 18.9577 24.0503 18.6656 24.0503 18.3065C24.0503 15.0102 22.7055 12.0275 20.5289 9.86732C18.3524 7.70735 15.3468 6.3727 12.0251 6.3727C8.70362 6.3727 5.69809 7.70728 3.52138 9.86732C1.34466 12.0274 0 15.0101 0 18.3065C0 18.6656 0.294344 18.9577 0.656202 18.9577H5.19326ZM19.484 17.6553C19.4056 16.7736 19.1734 15.9348 18.8142 15.1683L21.6146 13.5658C22.2411 14.8093 22.6272 16.1948 22.7164 17.6553H19.484ZM17.9393 9.44116C18.5388 9.83511 19.0924 10.2854 19.6 10.7891C20.105 11.2903 20.5614 11.8424 20.9583 12.4372L18.158 14.0398C17.9068 13.686 17.626 13.3564 17.3209 13.0509C17.013 12.7454 16.6809 12.4667 16.3244 12.2202L17.9393 9.44116ZM15.1875 11.569C14.4152 11.2099 13.57 10.9794 12.6816 10.9044V7.69656C14.156 7.785 15.5494 8.1709 16.8024 8.78999L15.1875 11.569ZM43.1232 8.28344C42.8262 8.28344 42.5778 8.08781 42.494 7.8225C42.4643 7.7421 42.4319 7.6617 42.4022 7.58935C42.3698 7.51163 42.3347 7.43392 42.3023 7.36156C42.1673 7.115 42.2051 6.79878 42.4157 6.58975L43.4176 5.59552C43.477 5.53656 43.5067 5.45884 43.5067 5.38113C43.5067 5.30341 43.477 5.22569 43.4176 5.16673L40.9602 2.72266C40.9008 2.66371 40.8225 2.63422 40.7442 2.63422C40.6658 2.63422 40.5875 2.6637 40.5281 2.72266L39.5263 3.71689C39.3157 3.92593 38.9997 3.96345 38.7486 3.82945C38.6729 3.79461 38.5973 3.76245 38.519 3.73029C38.4434 3.70081 38.3651 3.66866 38.2841 3.63918C38.0141 3.55878 37.8196 3.30955 37.8196 3.01476V1.6078C37.8196 1.52472 37.7845 1.44968 37.7305 1.39609C37.6738 1.33981 37.5982 1.30765 37.5172 1.30765H34.0391C33.9554 1.30765 33.8797 1.34249 33.8257 1.39609C33.769 1.45237 33.7366 1.52741 33.7366 1.6078V3.01476C33.7366 3.30955 33.5395 3.5561 33.2722 3.63918C33.1911 3.66866 33.1128 3.70082 33.0372 3.73029C32.9589 3.76245 32.8806 3.79729 32.8077 3.82945C32.5592 3.96344 32.2406 3.92592 32.03 3.71689L31.0281 2.72266C30.9687 2.66371 30.8904 2.63422 30.8121 2.63422C30.7338 2.63422 30.6555 2.6637 30.5961 2.72266L28.136 5.16406C28.0766 5.22302 28.0469 5.30073 28.0469 5.37845C28.0469 5.45617 28.0766 5.53388 28.136 5.59284L29.1378 6.58707C29.3484 6.79611 29.3862 7.10965 29.2512 7.35888C29.2161 7.43392 29.1837 7.50896 29.1513 7.58667C29.1216 7.66171 29.0892 7.73943 29.0595 7.81982C28.9785 8.08781 28.7273 8.28077 28.4303 8.28077H27.0126C26.937 8.28077 26.8694 8.30757 26.8154 8.35044L26.7965 8.3692C26.7398 8.42548 26.7074 8.50052 26.7074 8.58091V12.0326C26.7074 12.1157 26.7425 12.1907 26.7965 12.2443L26.7938 12.247C26.8505 12.3006 26.9262 12.3354 27.0099 12.3354H28.4276C28.7246 12.3354 28.9731 12.5311 29.0568 12.7964C29.0865 12.8768 29.1189 12.9545 29.1486 13.0295C29.181 13.1072 29.2161 13.1849 29.2485 13.2573C29.3835 13.5039 29.3457 13.8201 29.1351 14.0291L28.1333 15.0233C28.0739 15.0823 28.0442 15.16 28.0442 15.2377C28.0442 15.3155 28.0739 15.3932 28.1333 15.4521L30.5933 17.8935C30.6528 17.9525 30.7311 17.982 30.8094 17.982C30.8877 17.982 30.966 17.9525 31.0254 17.8935L32.0273 16.8993C32.2379 16.6903 32.5538 16.6527 32.805 16.7867C32.8806 16.8216 32.9562 16.8537 33.0345 16.8859C33.1101 16.9154 33.1884 16.9475 33.2694 16.977C33.5395 17.0574 33.7339 17.3066 33.7339 17.6014V19.0084C33.7339 19.0915 33.769 19.1665 33.823 19.2201C33.8797 19.2764 33.9554 19.3085 34.0364 19.3085H37.5145C37.5982 19.3085 37.6738 19.2737 37.7278 19.2201C37.7845 19.1638 37.8169 19.0888 37.8169 19.0084V17.6014C37.8169 17.3066 38.0141 17.0601 38.2814 16.977C38.3624 16.9475 38.4434 16.9154 38.5163 16.8859C38.5946 16.8537 38.6729 16.8189 38.7459 16.7867C38.9943 16.6527 39.3129 16.6903 39.5236 16.8993L40.5254 17.8935C40.5848 17.9525 40.6631 17.982 40.7415 17.982C40.8198 17.982 40.8981 17.9525 40.9575 17.8935L43.4176 15.4521C43.477 15.3932 43.5067 15.3155 43.5067 15.2377C43.5067 15.16 43.477 15.0823 43.4176 15.0233L42.4157 14.0291C42.2051 13.8201 42.1673 13.5065 42.3023 13.2573C42.3374 13.1823 42.3698 13.1072 42.4022 13.0295C42.4319 12.9545 42.4643 12.8768 42.494 12.7964C42.5751 12.5284 42.8262 12.3354 43.1232 12.3354H44.541C44.6247 12.3354 44.7003 12.3006 44.7543 12.247C44.811 12.1907 44.8434 12.1157 44.8434 12.0353V8.58359C44.8434 8.50052 44.8083 8.42548 44.7543 8.37188L44.757 8.3692C44.7003 8.31561 44.6247 8.28076 44.541 8.28076H43.1232L43.1232 8.28344ZM43.8794 6.97836H44.541C44.9866 6.97836 45.389 7.15792 45.6832 7.45003L45.6859 7.45271L45.6886 7.45003C45.983 7.74213 46.1639 8.14143 46.1639 8.58359V12.0353C46.1639 12.4775 45.983 12.8795 45.6886 13.1688C45.3943 13.4609 44.9919 13.6405 44.5437 13.6405H43.8821L44.3493 14.1041C44.6652 14.4177 44.8218 14.8277 44.8218 15.2404C44.8218 15.6504 44.6652 16.0631 44.3493 16.3766L41.8892 18.818C41.5732 19.1315 41.1601 19.287 40.7443 19.287C40.3284 19.287 39.9152 19.1315 39.5993 18.818L39.1321 18.3544V19.011C39.1321 19.4531 38.9512 19.8551 38.6569 20.1472C38.3625 20.4393 37.9602 20.6189 37.5119 20.6189H34.0338C33.5883 20.6189 33.1832 20.4393 32.8889 20.1472C32.5946 19.8551 32.4136 19.4558 32.4136 19.011V18.3544L31.9464 18.818C31.6305 19.1315 31.2173 19.287 30.8015 19.287C30.3883 19.287 29.9725 19.1315 29.6565 18.818L27.1965 16.3766C26.8805 16.0631 26.7239 15.653 26.7239 15.2404C26.7239 14.8303 26.8805 14.4176 27.1965 14.1041L27.6636 13.6405H27.002C26.5565 13.6405 26.1541 13.4609 25.8598 13.1688L25.8571 13.1662L25.8544 13.1688C25.56 12.8767 25.3791 12.4774 25.3791 12.0353V8.58359C25.3791 8.14141 25.56 7.7394 25.8544 7.45003C25.8706 7.43395 25.8841 7.42055 25.9003 7.40983C26.1892 7.14452 26.5754 6.98104 26.9966 6.98104H27.6582L27.1911 6.51742C26.8751 6.20387 26.7185 5.79384 26.7185 5.38118C26.7185 4.96848 26.8751 4.55846 27.1911 4.24493L29.6512 1.80354C29.9671 1.48999 30.3803 1.33456 30.7961 1.33456C31.2093 1.33456 31.6251 1.48999 31.941 1.80354L32.4082 2.26716L32.4136 1.60791C32.4136 1.16572 32.5945 0.763716 32.8889 0.471662C33.1832 0.179554 33.5856 0 34.0338 0H37.5119C37.9575 0 38.3626 0.179554 38.6569 0.471662C38.9512 0.763771 39.1321 1.16574 39.1321 1.60791V2.26448L39.5993 1.80086C39.9153 1.48731 40.3284 1.33188 40.7443 1.33188C41.1601 1.33188 41.5733 1.48731 41.8892 1.80086L44.3493 4.24225C44.6652 4.5558 44.8218 4.96583 44.8218 5.3785C44.8218 5.7912 44.6652 6.20121 44.3493 6.51474L43.8794 6.97836ZM45.4727 24.9015C45.3484 24.4567 45.3511 23.9931 45.4673 23.5589C45.6374 22.9265 46.0532 22.3557 46.6743 22.0019C47.2927 21.6482 47.9976 21.5758 48.6348 21.7447C49.2721 21.9135 49.8446 22.3262 50.2037 22.9399C50.5629 23.5536 50.6331 24.2531 50.463 24.8882C50.2929 25.5232 49.877 26.0914 49.2586 26.4452C49.2451 26.4532 49.2289 26.4612 49.2154 26.4693C48.6051 26.8043 47.9192 26.8686 47.2954 26.7024C46.8606 26.5872 46.4528 26.3567 46.1261 26.0271L42.332 28.2005L42.3347 28.2139C42.5049 28.8491 42.432 29.5485 42.0755 30.1622C41.7163 30.7759 41.1438 31.1886 40.5066 31.3574C39.8693 31.5262 39.1645 31.4539 38.5461 31.1001C37.925 30.7437 37.5091 30.1756 37.339 29.5431C37.2229 29.109 37.2202 28.6454 37.3444 28.2005L33.5503 26.0271C33.391 26.1852 33.2074 26.3273 33.0021 26.4452C32.3837 26.7989 31.6789 26.8713 31.0417 26.7024C30.6042 26.5872 30.1991 26.3567 29.8724 26.0271L26.0783 28.2005C26.2025 28.6481 26.1998 29.1117 26.0837 29.5431C25.9136 30.1756 25.4977 30.7464 24.8766 31.1001C24.2582 31.4539 23.5534 31.5262 22.9161 31.3574C22.2788 31.1886 21.7063 30.7759 21.3472 30.1622H21.3445C20.9853 29.5485 20.9151 28.849 21.0853 28.2139C21.2554 27.5788 21.6712 27.0106 22.2896 26.6569C22.3032 26.6489 22.3194 26.6408 22.3329 26.6328C22.9431 26.2978 23.6291 26.2335 24.2528 26.397C24.6903 26.5122 25.0954 26.7427 25.4221 27.0723L29.2162 24.8989C29.092 24.4513 29.0947 23.9877 29.2108 23.5563C29.3809 22.9211 29.7968 22.353 30.4152 21.9993C30.4287 21.9912 30.4449 21.9832 30.4584 21.9752C31.0687 21.6402 31.7546 21.5759 32.3784 21.7393C33.0157 21.9082 33.5908 22.3209 33.9473 22.9372C34.3037 23.5509 34.3766 24.2504 34.2065 24.8828L34.2011 24.8989L37.9952 27.0723C38.322 26.7427 38.7297 26.5122 39.1645 26.397C39.8018 26.2282 40.5066 26.3005 41.125 26.6543C41.3302 26.7722 41.5138 26.9142 41.6732 27.0723L45.4727 24.9015ZM46.7337 23.8939C46.6527 24.1994 46.6824 24.5317 46.8445 24.8265C46.8499 24.8345 46.8553 24.8452 46.8607 24.8533C46.8661 24.864 46.8715 24.872 46.8769 24.8828C47.0524 25.1668 47.3278 25.3598 47.6357 25.4429C47.9382 25.5233 48.2676 25.4938 48.5619 25.341C48.5862 25.3249 48.6105 25.3115 48.6375 25.2955C48.9238 25.1186 49.1182 24.8479 49.1992 24.5478C49.2802 24.245 49.2505 23.9127 49.0912 23.6205C49.075 23.5964 49.0615 23.5696 49.048 23.5428C48.8725 23.2668 48.5997 23.0792 48.3 22.9988C47.9841 22.9157 47.6357 22.9506 47.3306 23.1247C47.0227 23.3016 46.8201 23.5803 46.7337 23.8939ZM40.9413 29.5109C41.1169 29.2081 41.152 28.8651 41.0683 28.5516C40.9845 28.238 40.7793 27.9566 40.4769 27.7824C40.1717 27.6082 39.8234 27.5734 39.5075 27.6565C39.1915 27.7395 38.908 27.9432 38.7324 28.2434C38.5569 28.5462 38.5218 28.8919 38.6055 29.2054C38.6892 29.5189 38.8945 29.8004 39.1969 29.9746C39.5021 30.1487 39.8504 30.1836 40.1663 30.1005C40.4823 30.0174 40.7658 29.8138 40.9413 29.5136L40.944 29.5109L40.9413 29.5109ZM39.3616 33.2306H46.5394C46.9013 33.2306 47.1956 33.5228 47.1956 33.8819V59.3407C47.1956 59.6998 46.9013 59.9919 46.5394 59.9919H25.0066C24.6447 59.9919 24.3504 59.6998 24.3504 59.3407L24.3531 44.2852C24.3531 43.9261 24.6474 43.634 25.0093 43.634H31.5281V39.4667C31.5281 39.1076 31.8224 38.8155 32.1843 38.8155H38.7031V33.8872C38.7058 33.5227 38.9997 33.2306 39.3616 33.2306ZM45.8831 34.5357H40.0205V58.6896H45.8831V34.5357ZM38.7052 40.1179H32.8426V58.6922H38.7052V40.1179ZM31.5274 44.9364H25.6648V58.6897H31.5274V44.9364ZM12.5006 35.8757C14.1073 35.8757 15.5629 36.5215 16.616 37.5666C17.6691 38.6118 18.3199 40.0563 18.3199 41.6508C18.3199 43.2453 17.6691 44.6898 16.616 45.735C16.4243 45.9252 16.219 46.1021 16.0003 46.2656C17.3586 46.5443 18.5792 47.2196 19.5271 48.1602C20.7935 49.4171 21.5794 51.151 21.5794 53.0618V58.1803C21.5794 58.6815 21.3742 59.137 21.042 59.4667C20.7099 59.7963 20.2508 60 19.7458 60H16.9698L8.03124 59.9946H5.25523C4.75025 59.9946 4.2912 59.791 3.95903 59.4613C3.62688 59.1317 3.42165 58.6761 3.42165 58.175V53.0564C3.42165 51.1483 4.20746 49.4144 5.474 48.1549C6.42185 47.2142 7.63973 46.5389 9.00077 46.2602C8.78203 46.0967 8.57681 45.9199 8.38508 45.7296C7.33194 44.6845 6.68115 43.24 6.68115 41.6454C6.68115 40.0509 7.33195 38.6064 8.38508 37.5613C9.43822 36.5215 10.8938 35.8757 12.5006 35.8757ZM15.6871 38.4886C14.8716 37.6792 13.7455 37.1781 12.5006 37.1781C11.2557 37.1781 10.1296 37.6792 9.31407 38.4886C8.49854 39.2979 7.99354 40.4154 7.99354 41.6509C7.99354 42.8863 8.49852 44.0038 9.31407 44.8132C10.1296 45.6225 11.2557 46.1237 12.5006 46.1237C13.7455 46.1237 14.8716 45.6225 15.6871 44.8132C16.5026 44.0038 17.0076 42.8863 17.0076 41.6509C17.0049 40.4154 16.4999 39.2979 15.6871 38.4886ZM16.3136 52.6707C16.3136 52.3116 16.6079 52.0195 16.9698 52.0195C17.3316 52.0195 17.626 52.3116 17.626 52.6707V58.6897H19.7458C19.8889 58.6897 20.0186 58.6308 20.1131 58.537C20.2076 58.4432 20.267 58.3145 20.267 58.1752V53.0566C20.267 51.5076 19.627 50.1007 18.5981 49.0796C17.5692 48.0585 16.1488 47.4234 14.5907 47.4234H10.4158C8.85497 47.4234 7.43724 48.0585 6.40568 49.0796C5.3768 50.1007 4.73679 51.5076 4.73679 53.0566V58.1752C4.73679 58.3172 4.7962 58.4458 4.89072 58.537C4.98523 58.6308 5.11485 58.6897 5.25797 58.6897H7.3778V52.6707C7.3778 52.3116 7.67214 52.0195 8.034 52.0195C8.39586 52.0195 8.6902 52.3116 8.6902 52.6707V58.6897H16.3132L16.3136 52.6707ZM22.4597 29.4786C22.4759 29.5027 22.4894 29.5295 22.5029 29.5563C22.6785 29.8324 22.9512 30.02 23.2509 30.1004C23.5669 30.1834 23.9152 30.1486 24.2203 29.9744C24.5228 29.8002 24.728 29.5188 24.8117 29.2053C24.8954 28.8917 24.8603 28.546 24.6848 28.2432C24.5093 27.9431 24.2257 27.7394 23.9098 27.6563C23.6073 27.5759 23.2779 27.6054 22.9836 27.7582C22.9593 27.7742 22.935 27.7876 22.908 27.8037C22.6217 27.9806 22.4273 28.2512 22.3463 28.5514C22.2707 28.8542 22.3004 29.1865 22.4597 29.4786ZM30.5881 24.8236C30.6043 24.8477 30.6178 24.8745 30.6313 24.9013C30.8068 25.1773 31.0796 25.3649 31.3793 25.4453C31.6952 25.5284 32.0436 25.4936 32.3487 25.3194C32.6512 25.1452 32.8564 24.8638 32.9401 24.5502C33.0238 24.2367 32.9887 23.891 32.8132 23.5882C32.6377 23.288 32.3541 23.0844 32.0382 23.0013C31.7357 22.9209 31.4063 22.9504 31.1147 23.1031C31.0903 23.1192 31.066 23.1326 31.039 23.1487C30.7528 23.3256 30.5584 23.5962 30.4774 23.8964C30.399 24.1965 30.4288 24.5288 30.5881 24.8236ZM35.7729 4.43475C37.4067 4.43475 38.8865 5.09132 39.9586 6.15523C41.0306 7.21917 41.6922 8.68774 41.6922 10.3091C41.6922 11.9304 41.0306 13.4017 39.9586 14.4629C38.8865 15.5269 37.4067 16.1834 35.7729 16.1834C34.1391 16.1834 32.6566 15.5269 31.5872 14.4629C30.5152 13.399 29.8536 11.9304 29.8536 10.3091C29.8536 8.68774 30.5152 7.21917 31.5872 6.15523C32.6593 5.0913 34.1391 4.43475 35.7729 4.43475ZM39.0323 7.07715C39.8667 7.90522 40.3798 9.04689 40.3798 10.3091C40.3798 11.5713 39.864 12.713 39.0323 13.541C38.1979 14.3691 37.0475 14.8783 35.7756 14.8783C34.5037 14.8783 33.3506 14.3664 32.5189 13.541C31.6845 12.713 31.1714 11.5713 31.1714 10.3091C31.1714 9.04689 31.6872 7.90255 32.5189 7.07715C33.3533 6.24909 34.5037 5.7399 35.7756 5.7399C37.0448 5.7399 38.1979 6.25176 39.0323 7.07715ZM12.6168 17.7192C12.4655 17.5692 12.2549 17.4754 12.0254 17.4754C11.7931 17.4754 11.5852 17.5692 11.434 17.7192C11.2827 17.8693 11.1882 18.0783 11.1882 18.3061C11.1882 18.5366 11.2827 18.743 11.434 18.893C11.5852 19.0431 11.7958 19.1369 12.0254 19.1369C12.2576 19.1369 12.4655 19.0431 12.6168 18.893C12.768 18.743 12.8625 18.5339 12.8625 18.3061C12.8625 18.0757 12.768 17.8693 12.6168 17.7192Z" fill="#0CB4C4"></path></svg>