<svg width="54" height="60" viewBox="0 0 54 60" fill="none" xmlns="http://www.w3.org/2000/svg"><path d="M53.9172 30C53.9172 16.5292 44.0443 5.18172 30.8195 3.26007C30.011 -1.08809 23.7613 -1.08529 22.9542 3.26007C-7.66145 8.28542 -7.64137 51.7252 22.9542 56.7399C23.7627 61.0881 30.0124 61.0853 30.8195 56.7399C44.0443 54.8183 53.9172 43.4708 53.9172 30ZM26.8869 1.96851C27.9911 1.96851 28.8891 2.8665 28.8891 3.97076L28.8925 3.98005C28.7961 6.6173 24.9602 6.6078 24.8846 3.97076C24.8846 2.8665 25.7826 1.96851 26.8869 1.96851ZM26.8869 58.0315C25.7826 58.0315 24.8846 57.1335 24.8812 56.02C24.954 53.4436 28.7342 53.3553 28.8891 55.9882L28.9013 55.9887C28.9032 56.0027 28.9094 56.0153 28.9119 56.0292H28.8891C28.8891 57.1335 27.9911 58.0315 26.8869 58.0315ZM30.6792 54.7431C29.4639 51.1571 24.3088 51.1588 23.0945 54.7431C-5.05348 49.9686 -5.03509 10.0216 23.0945 5.25688C24.3099 8.84292 29.4649 8.84119 30.6792 5.25688C58.8272 10.0314 58.8088 49.9784 30.6792 54.7431Z" fill="#0CB4C4"></path><path d="M43.8933 31.4121C44.1913 27.1909 40.2763 23.6702 35.8442 24.0127C34.4004 13.3654 19.3694 13.3734 17.9305 24.0132C13.4413 23.6824 9.61098 27.2062 9.88144 31.4136C4.94828 33.5745 6.47985 40.9844 11.8706 41.0122L23.025 41.0122C24.0447 44.9776 29.7313 44.9752 30.7497 41.0122H41.9042C43.2299 41.0122 44.4857 40.4941 45.4502 39.5428C47.9425 37.1756 47.0575 32.6531 43.8933 31.4121ZM26.8874 42.0134C24.2471 41.9444 24.2476 38.0774 26.8874 38.0089C29.5276 38.0778 29.5271 41.9448 26.8874 42.0134ZM44.0345 38.1271C43.4572 38.6961 42.7005 39.01 41.9042 39.01H35.8706C35.7357 37.8777 35.4643 34.556 33.7208 35.2112C33.2202 35.4454 33.0041 36.0418 33.2382 36.5424C33.6035 37.3228 33.8084 38.152 33.8684 39.01H30.7652C29.7025 35.0513 24.071 35.0535 23.0095 39.01H19.9048C19.9759 38.1934 20.3407 37.1665 19.2474 36.8968C18.018 36.678 17.9383 38.1352 17.9027 39.01H11.8705C10.2143 39.01 8.86711 37.6628 8.86711 36.0066C8.84102 34.6388 9.87729 33.358 11.2008 33.0785C11.7297 32.9587 12.0675 32.4386 11.9609 31.9063C11.3334 28.7949 14.0042 25.9841 17.3767 25.9954C17.8049 25.9954 18.2351 26.0442 18.655 26.1401C19.2583 26.2965 19.8959 25.7869 19.8795 25.1643C20.0447 15.7601 33.5091 15.5952 33.8986 25.0035C33.7679 25.6793 34.4454 26.3162 35.11 26.14C35.5294 26.0442 35.963 25.9954 36.398 25.9954C39.4342 25.9954 41.9042 28.241 41.9042 31.001C41.8814 31.7982 41.5027 32.7967 42.5711 33.078C44.8314 33.522 45.6898 36.5459 44.0345 38.1271Z" fill="#0CB4C4"></path><path d="M28.0887 30.5809C26.7831 30.4368 26.522 32.3672 27.8248 32.5656C28.9828 32.7196 30.0934 33.1683 31.0369 33.8624C32.1058 34.6232 33.2725 33.0498 32.2237 32.2493C31.0095 31.3562 29.5797 30.7794 28.0887 30.5809Z" fill="#0CB4C4"></path><path d="M23.6625 31.0954C22.26 31.6326 21.0018 32.5233 20.0246 33.6716C19.1821 34.6702 20.6939 35.9635 21.5498 34.9689C22.3099 34.0758 23.2885 33.3827 24.3791 32.9647C24.8953 32.7672 25.1534 32.1884 24.9555 31.6717C24.7575 31.1551 24.1772 30.8965 23.6625 31.0954Z" fill="#0CB4C4"></path></svg>