<svg width="61" height="60" viewBox="0 0 61 60" fill="none" xmlns="http://www.w3.org/2000/svg"><path d="M49.2216 24.8466H47.069C46.7599 23.8301 46.3588 22.8436 45.8707 21.8992L47.3488 20.422C48.1388 19.6352 48.5825 18.5687 48.5825 17.4567C48.5825 16.3448 48.1388 15.2783 47.3488 14.4915L45.9783 13.1284C45.1872 12.3427 44.115 11.9013 42.997 11.9013C41.879 11.9013 40.8067 12.3427 40.0156 13.1284L38.6236 14.5058C37.6479 13.9804 36.6244 13.5479 35.5669 13.214V11.2943C35.565 10.182 35.1199 9.11573 34.3291 8.32918C33.5383 7.54263 32.4662 7.09992 31.3478 7.09803H29.4105C28.2921 7.09992 27.2201 7.54263 26.4292 8.32918C25.6384 9.11573 25.1933 10.182 25.1914 11.2943V13.214C24.1339 13.5479 23.1104 13.9804 22.1347 14.5058L20.7427 13.1284C19.9516 12.3427 18.8793 11.9013 17.7613 11.9013C16.6434 11.9013 15.5711 12.3427 14.78 13.1284L13.4095 14.4915C12.6195 15.2783 12.1758 16.3448 12.1758 17.4567C12.1758 18.5687 12.6195 19.6352 13.4095 20.422L14.8876 21.8992C14.3995 22.8436 13.9984 23.8301 13.6893 24.8466H11.5368C10.4184 24.8485 9.34632 25.2912 8.5555 26.0778C7.76468 26.8643 7.31956 27.9305 7.31766 29.0429V30.9698C7.31956 32.0821 7.76468 33.1483 8.5555 33.9349C9.34632 34.7214 10.4184 35.1642 11.5368 35.166H13.6893C13.9984 36.1825 14.3995 37.169 14.8876 38.1134L13.4095 39.5907C12.6195 40.3775 12.1758 41.444 12.1758 42.5559C12.1758 43.6679 12.6195 44.7344 13.4095 45.5212L14.78 46.8842C15.5711 47.67 16.6434 48.1113 17.7613 48.1113C18.8793 48.1113 19.9516 47.67 20.7427 46.8842L22.1347 45.5069C23.1104 46.0322 24.1339 46.4647 25.1914 46.7986V48.7183C25.1933 49.8307 25.6384 50.8969 26.4292 51.6835C27.2201 52.47 28.2921 52.9127 29.4105 52.9146H31.3478C32.4662 52.9127 33.5383 52.47 34.3291 51.6835C35.1199 50.8969 35.565 49.8307 35.5669 48.7183V46.7986C36.6244 46.4647 37.6479 46.0322 38.6236 45.5069L40.0156 46.8842C40.8067 47.67 41.879 48.1113 42.997 48.1113C44.115 48.1113 45.1872 47.67 45.9783 46.8842L47.3488 45.5212C48.1388 44.7344 48.5825 43.6679 48.5825 42.5559C48.5825 41.444 48.1388 40.3775 47.3488 39.5907L45.8707 38.1134C46.3588 37.169 46.7599 36.1825 47.069 35.166H49.2216C50.3399 35.1642 51.412 34.7214 52.2028 33.9349C52.9936 33.1483 53.4387 32.0821 53.4406 30.9698V29.0429C53.4387 27.9305 52.9936 26.8643 52.2028 26.0778C51.412 25.2912 50.3399 24.8485 49.2216 24.8466ZM51.5822 30.9698C51.5822 31.2781 51.5212 31.5834 51.4025 31.8683C51.2839 32.1531 51.11 32.412 50.8908 32.63C50.6716 32.848 50.4114 33.021 50.1249 33.139C49.8385 33.2569 49.5316 33.3177 49.2216 33.3177H46.3945C46.1851 33.3185 45.9821 33.3893 45.8181 33.5187C45.6541 33.6482 45.5387 33.8287 45.4904 34.0313C45.1451 35.3686 44.624 36.6548 43.9405 37.8565C43.8404 38.0319 43.8008 38.2351 43.8281 38.4349C43.8553 38.6347 43.9477 38.8202 44.0912 38.9627L46.0644 40.9252C46.5048 41.3664 46.7519 41.9628 46.7519 42.5845C46.7519 43.2061 46.5048 43.8026 46.0644 44.2437L44.6939 45.6068C44.2504 46.0448 43.6507 46.2906 43.0257 46.2906C42.4006 46.2906 41.801 46.0448 41.3574 45.6068L39.4631 43.7299C39.3176 43.5742 39.1227 43.473 38.9111 43.4431C38.6995 43.4132 38.4841 43.4565 38.3007 43.5657C37.0821 44.293 35.7686 44.8501 34.3973 45.2214C34.1936 45.2669 34.0115 45.38 33.8811 45.5421C33.7506 45.7043 33.6796 45.9058 33.6798 46.1135V48.7255C33.6798 49.3482 33.4311 49.9454 32.9884 50.3857C32.5457 50.826 31.9452 51.0734 31.3191 51.0734H29.3818C28.7557 51.0734 28.1552 50.826 27.7125 50.3857C27.2698 49.9454 27.0211 49.3482 27.0211 48.7255V46.1064C27.0213 45.8987 26.9503 45.6972 26.8198 45.535C26.6894 45.3728 26.5073 45.2597 26.3036 45.2143C24.9728 44.8343 23.6988 44.2799 22.515 43.5657C22.3687 43.482 22.203 43.4377 22.0343 43.4373C21.7906 43.4385 21.5567 43.5331 21.3813 43.7013L19.487 45.5854C19.0435 46.0234 18.4438 46.2692 17.8187 46.2692C17.1937 46.2692 16.594 46.0234 16.1505 45.5854L14.78 44.2223C14.3396 43.7811 14.0925 43.1847 14.0925 42.5631C14.0925 41.9414 14.3396 41.345 14.78 40.9038L16.7532 38.9413C16.8862 38.7965 16.9696 38.6135 16.9916 38.4186C17.0135 38.2237 16.9727 38.0269 16.8752 37.8565C16.1949 36.6473 15.6786 35.3539 15.3397 34.0099C15.2902 33.8079 15.1745 33.6281 15.0107 33.4988C14.847 33.3696 14.6446 33.2983 14.4356 33.2963H11.5942C10.9681 33.2963 10.3676 33.0489 9.9249 32.6086C9.48219 32.1683 9.23347 31.5711 9.23347 30.9483V29.0215C9.23347 28.3988 9.48219 27.8016 9.9249 27.3612C10.3676 26.9209 10.9681 26.6736 11.5942 26.6736H14.4212C14.6303 26.6715 14.8326 26.6002 14.9964 26.471C15.1601 26.3418 15.2759 26.1619 15.3253 25.9599C15.6724 24.63 16.1935 23.3511 16.8752 22.1561C16.9754 21.9808 17.0149 21.7776 16.9876 21.5777C16.9604 21.3779 16.868 21.1925 16.7245 21.05L14.7513 19.0874C14.3109 18.6463 14.0638 18.0498 14.0638 17.4282C14.0638 16.8065 14.3109 16.2101 14.7513 15.7689L16.1218 14.4058C16.5653 13.9679 17.165 13.7221 17.79 13.7221C18.4151 13.7221 19.0148 13.9679 19.4583 14.4058L21.3526 16.2899C21.4983 16.4456 21.6937 16.5463 21.9056 16.5749C22.1175 16.6035 22.3328 16.5583 22.515 16.4469C23.7343 15.7209 25.0476 15.1639 26.4184 14.7912C26.6221 14.7458 26.8042 14.6327 26.9346 14.4705C27.0651 14.3083 27.1361 14.1068 27.1359 13.8992V11.2943C27.1359 10.6716 27.3846 10.0744 27.8273 9.63408C28.27 9.19376 28.8705 8.94639 29.4966 8.94639H31.4339C31.7439 8.94639 32.0509 9.00713 32.3373 9.12512C32.6237 9.24311 32.884 9.41606 33.1032 9.63408C33.3224 9.85211 33.4963 10.1109 33.6149 10.3958C33.7335 10.6807 33.7946 10.986 33.7946 11.2943V13.9063C33.7944 14.114 33.8654 14.3155 33.9959 14.4776C34.1263 14.6398 34.3084 14.7529 34.5121 14.7984C35.8429 15.1784 37.1169 15.7327 38.3007 16.4469C38.4777 16.5536 38.6856 16.5983 38.8911 16.5737C39.0966 16.5491 39.2879 16.4567 39.4344 16.3113L41.3287 14.4273C41.7723 13.9893 42.3719 13.7435 42.997 13.7435C43.622 13.7435 44.2217 13.9893 44.6652 14.4273L46.0357 15.7903C46.4761 16.2315 46.7232 16.8279 46.7232 17.4496C46.7232 18.0712 46.4761 18.6677 46.0357 19.1088L44.0625 21.0714C43.9295 21.2162 43.8461 21.3991 43.8241 21.594C43.8022 21.7889 43.843 21.9857 43.9405 22.1561C44.6208 23.3653 45.1371 24.6588 45.476 26.0027C45.5255 26.2047 45.6412 26.3846 45.805 26.5138C45.9687 26.6431 46.1711 26.7143 46.3801 26.7164H49.2072C49.8333 26.7164 50.4337 26.9637 50.8765 27.4041C51.3192 27.8444 51.5679 28.4416 51.5679 29.0643L51.5822 30.9698ZM30.4079 18.1525C28.0507 18.1525 25.7464 18.8477 23.7865 20.1503C21.8265 21.4528 20.2989 23.3041 19.3969 25.4701C18.4948 27.6361 18.2588 30.0195 18.7186 32.3189C19.1785 34.6183 20.3136 36.7304 21.9804 38.3882C23.6472 40.046 25.7708 41.175 28.0827 41.6323C30.3946 42.0897 32.791 41.855 34.9688 40.9578C37.1465 40.0606 39.0079 38.5413 40.3175 36.5919C41.6271 34.6426 42.3261 32.3508 42.3261 30.0063C42.3223 26.8637 41.0654 23.8508 38.8311 21.6286C36.5968 19.4064 33.5676 18.1563 30.4079 18.1525ZM30.4079 39.9975C28.4211 39.9975 26.4789 39.4115 24.8269 38.3137C23.1749 37.2158 21.8874 35.6554 21.1271 33.8298C20.3667 32.0041 20.1678 29.9952 20.5554 28.0571C20.943 26.119 21.8998 24.3388 23.3046 22.9415C24.7095 21.5442 26.4995 20.5927 28.4481 20.2071C30.3967 19.8216 32.4165 20.0195 34.2521 20.7757C36.0877 21.5319 37.6565 22.8125 38.7603 24.4555C39.8642 26.0986 40.4533 28.0303 40.4533 30.0063C40.4533 32.6561 39.395 35.1974 37.5111 37.0711C35.6272 38.9448 33.0721 39.9975 30.4079 39.9975ZM45.2177 51.2589C44.2021 51.2608 43.2286 51.6629 42.5105 52.3772C41.7923 53.0915 41.388 54.0597 41.3861 55.0699C41.3864 55.3511 41.4201 55.6314 41.4866 55.9048C36.1938 58.1485 30.3391 58.7339 24.7032 57.583C19.0673 56.4321 13.9182 53.5995 9.94249 49.4631C5.96681 45.3267 3.35357 40.0831 2.45129 34.4316C1.54901 28.78 2.40057 22.9892 4.8924 17.8314L4.94263 18.0312C4.98949 18.2332 5.10354 18.4136 5.26633 18.5431C5.42911 18.6727 5.63108 18.7437 5.83954 18.7449C5.91572 18.7553 5.99298 18.7553 6.06915 18.7449C6.19051 18.7136 6.3043 18.6584 6.4037 18.5824C6.50311 18.5064 6.5861 18.4113 6.64772 18.3027C6.70934 18.1942 6.74832 18.0743 6.76233 17.9504C6.77635 17.8265 6.76511 17.7011 6.72928 17.5816L6.10503 15.0196C6.07665 14.8991 6.02299 14.786 5.94755 14.6876C5.87212 14.5892 5.77663 14.5078 5.66734 14.4487C5.56013 14.3861 5.44134 14.3456 5.31806 14.3297C5.19478 14.3137 5.06954 14.3226 4.9498 14.3559L2.42409 15.0981C2.30678 15.1309 2.19711 15.1864 2.10134 15.2613C2.00558 15.3363 1.9256 15.4292 1.86597 15.5349C1.80633 15.6406 1.76822 15.757 1.75379 15.8773C1.73937 15.9977 1.74892 16.1197 1.7819 16.2364C1.81488 16.353 1.87064 16.4621 1.946 16.5574C2.02137 16.6526 2.11485 16.7322 2.22113 16.7915C2.3274 16.8508 2.44438 16.8887 2.56538 16.903C2.68639 16.9174 2.80905 16.9079 2.92636 16.8751L3.35688 16.7538C1.32493 20.8792 0.269507 25.4125 0.271491 30.0063C0.268125 34.9731 1.50576 39.8628 3.87313 44.236C6.2405 48.6091 9.66341 52.3287 13.8342 55.0602C18.0049 57.7917 22.7927 59.4495 27.7673 59.8847C32.7418 60.3199 37.7471 59.5188 42.3332 57.5534C42.7532 58.0355 43.2883 58.4048 43.8894 58.6274C44.4905 58.85 45.1381 58.9186 45.7729 58.827C46.4076 58.7354 47.009 58.4866 47.5216 58.1033C48.0343 57.72 48.4419 57.2147 48.7068 56.6337C48.9717 56.0528 49.0854 55.4149 49.0376 54.7788C48.9897 54.1427 48.7817 53.5287 48.4329 52.9935C48.084 52.4582 47.6053 52.0188 47.041 51.7157C46.4766 51.4126 45.8447 51.2555 45.2034 51.2589H45.2177ZM45.2177 57.0395C44.826 57.0395 44.4432 56.924 44.1175 56.7076C43.7918 56.4912 43.538 56.1835 43.3881 55.8236C43.2382 55.4637 43.199 55.0677 43.2754 54.6856C43.3518 54.3035 43.5404 53.9525 43.8174 53.6771C44.0943 53.4016 44.4472 53.214 44.8314 53.138C45.2155 53.062 45.6137 53.101 45.9756 53.2501C46.3375 53.3992 46.6467 53.6516 46.8644 53.9755C47.082 54.2995 47.1981 54.6803 47.1981 55.0699C47.1981 55.3285 47.1469 55.5846 47.0474 55.8236C46.9478 56.0626 46.802 56.2797 46.6181 56.4626C46.4342 56.6455 46.2159 56.7906 45.9756 56.8896C45.7353 56.9886 45.4778 57.0395 45.2177 57.0395ZM57.8822 43.1376L57.4517 43.2589C60.1866 37.7577 61.1578 31.5541 60.2341 25.4863C59.3103 19.4185 56.5362 13.7789 52.2864 9.32957C48.0367 4.88022 42.5162 1.83553 36.4708 0.606869C30.4254 -0.621792 24.1465 0.0247996 18.4825 2.45928C17.8933 1.79204 17.0873 1.35176 16.2051 1.21528C15.3229 1.07881 14.4205 1.2548 13.6555 1.71255C12.8904 2.1703 12.3113 2.88073 12.0192 3.71984C11.727 4.55896 11.7405 5.47346 12.0571 6.30372C12.3738 7.13399 12.9735 7.8273 13.7517 8.26263C14.5298 8.69797 15.437 8.84768 16.3148 8.68563C17.1927 8.52359 17.9854 8.06009 18.5547 7.37602C19.1239 6.69196 19.4336 5.83078 19.4296 4.9428C19.4293 4.66151 19.3956 4.38124 19.3292 4.10782C24.6227 1.8628 30.4787 1.27666 36.1159 2.42763C41.753 3.57859 46.9032 6.41192 50.8794 10.5496C54.8555 14.6872 57.4685 19.9325 58.3697 25.5855C59.271 31.2384 58.4175 37.0303 55.9233 42.1884L55.8731 41.9814C55.8434 41.8638 55.7907 41.7532 55.718 41.6558C55.6454 41.5584 55.5541 41.4763 55.4495 41.414C55.3449 41.3517 55.229 41.3105 55.1084 41.2927C54.9878 41.275 54.8648 41.2811 54.7466 41.3106C54.6283 41.3401 54.517 41.3925 54.4191 41.4648C54.3213 41.5371 54.2386 41.6278 54.176 41.7319C54.1134 41.8359 54.072 41.9512 54.0541 42.0712C54.0363 42.1911 54.0424 42.3134 54.0721 42.431L54.7179 44.9645C54.7462 45.085 54.7999 45.1981 54.8753 45.2965C54.9508 45.3949 55.0463 45.4763 55.1555 45.5354C55.2936 45.6201 55.4526 45.6646 55.6148 45.6639C55.7006 45.6743 55.7873 45.6743 55.8731 45.6639L58.3916 44.9502C58.5089 44.9174 58.6186 44.862 58.7144 44.787C58.8101 44.7121 58.8901 44.6191 58.9497 44.5134C59.0094 44.4077 59.0475 44.2913 59.0619 44.171C59.0763 44.0506 59.0668 43.9286 59.0338 43.812C59.0008 43.6953 58.9451 43.5862 58.8697 43.491C58.7943 43.3957 58.7009 43.3162 58.5946 43.2568C58.4883 43.1975 58.3713 43.1596 58.2503 43.1453C58.1293 43.1309 58.0067 43.1404 57.8893 43.1732L57.8822 43.1376ZM15.598 6.90534C15.2057 6.90676 14.8218 6.79226 14.495 6.57637C14.1683 6.36048 13.9133 6.05293 13.7626 5.69273C13.6118 5.33252 13.572 4.9359 13.6481 4.55315C13.7243 4.17041 13.9131 3.81879 14.1905 3.5429C14.4679 3.267 14.8214 3.07926 15.2062 3.00349C15.591 2.92771 15.9898 2.96732 16.352 3.11729C16.7142 3.26725 17.0234 3.52082 17.2404 3.84582C17.4575 4.17082 17.5726 4.55263 17.5712 4.9428C17.5693 5.46272 17.3608 5.96081 16.9912 6.32845C16.6215 6.69609 16.1207 6.90346 15.598 6.90534Z" fill="#0CB4C4"></path></svg>