<svg width="61" height="60" viewBox="0 0 61 60" fill="none" xmlns="http://www.w3.org/2000/svg"><path fill-rule="evenodd" clip-rule="evenodd" d="M23.6405 27.9781C23.5023 27.8399 23.3203 27.7539 23.1258 27.7347C22.9312 27.7156 22.736 27.7645 22.5735 27.8731C22.4109 27.9817 22.291 28.1434 22.2343 28.3304C22.1775 28.5175 22.1873 28.7185 22.2621 28.8992C22.3369 29.0798 22.472 29.2289 22.6444 29.3211C22.8168 29.4133 23.0159 29.4429 23.2076 29.4048C23.3994 29.3668 23.572 29.2634 23.6961 29.1123C23.8202 28.9612 23.8881 28.7718 23.8882 28.5763C23.8884 28.4652 23.8666 28.3551 23.8241 28.2524C23.7816 28.1498 23.7192 28.0565 23.6405 27.9781ZM37.5578 27.9781C37.4196 27.8399 37.2376 27.7539 37.0431 27.7347C36.8485 27.7156 36.6533 27.7645 36.4908 27.8731C36.3282 27.9817 36.2083 28.1434 36.1516 28.3304C36.0948 28.5175 36.1046 28.7185 36.1794 28.8992C36.2542 29.0798 36.3893 29.2289 36.5617 29.3211C36.7341 29.4133 36.9332 29.4429 37.1249 29.4048C37.3167 29.3668 37.4893 29.2634 37.6134 29.1123C37.7375 28.9612 37.8054 28.7718 37.8055 28.5763C37.8057 28.4652 37.7839 28.3551 37.7414 28.2524C37.6989 28.1498 37.6365 28.0565 37.5578 27.9781ZM23.7292 52.0253V53.0938C23.7306 53.4589 23.8763 53.8087 24.1345 54.0669C24.3927 54.3251 24.7424 54.4708 25.1076 54.4722H35.3816C35.7466 54.4704 36.0962 54.3246 36.3543 54.0665C36.6125 53.8084 36.7582 53.4588 36.76 53.0938V52.0253C36.5223 52.0653 36.2817 52.0854 36.0407 52.0855H24.4485C24.2075 52.0854 23.9669 52.0653 23.7292 52.0253ZM26.172 56.0928V57.001C26.1741 57.3659 26.32 57.7152 26.5781 57.9733C26.8361 58.2313 27.1855 58.3772 27.5504 58.3793H32.9388C33.3037 58.3774 33.6531 58.2315 33.9111 57.9734C34.169 57.7153 34.3147 57.3659 34.3165 57.001V56.0928H26.172ZM40.3674 47.8062V47.7582C40.3674 42.7189 41.7648 40.8256 43.1269 38.9796C44.5811 37.0084 46.0001 35.0853 46.0001 30.2504C46.0001 26.0717 44.3401 22.0641 41.3853 19.1093C38.4305 16.1545 34.423 14.4945 30.2443 14.4945C26.0656 14.4945 22.058 16.1545 19.1032 19.1093C16.1484 22.0641 14.4884 26.0717 14.4884 30.2504C14.4884 35.0819 15.9095 37.005 17.3616 38.9796C18.7244 40.8283 20.1211 42.7189 20.1211 47.7582V47.8062L17.9727 49.954C17.8335 50.0904 17.6464 50.1668 17.4516 50.1668C17.2568 50.1668 17.0697 50.0904 16.9306 49.954L10.8675 43.8909C10.7309 43.7518 10.6544 43.5645 10.6544 43.3695C10.6544 43.1745 10.7309 42.9873 10.8675 42.8482L13.1303 40.5853C13.2613 40.4537 13.3433 40.2812 13.3625 40.0965C13.3817 39.9118 13.337 39.7261 13.2359 39.5703C12.9607 39.0506 12.7054 38.507 12.4699 37.9395C12.2276 37.3531 12.0167 36.7666 11.8372 36.1801C11.7868 36.0144 11.6845 35.8692 11.5454 35.766C11.4063 35.6628 11.2376 35.6071 11.0644 35.607H7.86642C7.67158 35.6051 7.48527 35.5268 7.34749 35.389C7.20971 35.2512 7.13145 35.0649 7.12951 34.8701V26.2905C7.13127 26.0955 7.20946 25.909 7.34725 25.7711C7.48505 25.6332 7.67146 25.5548 7.86642 25.5529H11.0651C11.2513 25.5527 11.4317 25.4885 11.5762 25.3711C11.7207 25.2537 11.8205 25.0902 11.8588 24.908C12.0334 24.3432 12.2364 23.7793 12.4678 23.2163C12.7124 22.6262 12.979 22.0623 13.2677 21.5246C13.3491 21.3719 13.3794 21.1971 13.3539 21.0259C13.3284 20.8547 13.2486 20.6962 13.1263 20.5739L10.8634 18.311C10.7269 18.1719 10.6503 17.9846 10.6503 17.7896C10.6503 17.5946 10.7269 17.4074 10.8634 17.2683L16.9265 11.2052C17.0657 11.0686 17.2529 10.9921 17.4479 10.9921C17.6429 10.9921 17.8301 11.0686 17.9693 11.2052L20.2321 13.468C20.3637 13.599 20.5362 13.681 20.7209 13.7002C20.9056 13.7194 21.0914 13.6747 21.2471 13.5736C21.7668 13.298 22.3104 13.0426 22.8779 12.8076C23.4644 12.5653 24.0508 12.3544 24.6373 12.1749C24.8029 12.1246 24.948 12.0224 25.0512 11.8834C25.1544 11.7444 25.2102 11.5759 25.2104 11.4028V8.19938C25.2124 8.00454 25.2906 7.81823 25.4284 7.68046C25.5662 7.54268 25.7525 7.46442 25.9473 7.46248H34.5317C34.7269 7.46337 34.9138 7.54129 35.0518 7.67929C35.1898 7.8173 35.2677 8.00422 35.2686 8.19938V11.3987C35.269 11.5849 35.3334 11.7653 35.4509 11.9096C35.5684 12.054 35.732 12.1536 35.9142 12.1918C36.4794 12.3664 37.0433 12.5694 37.6059 12.8008C38.1959 13.0449 38.7598 13.3115 39.2976 13.6007C39.4499 13.6812 39.624 13.7109 39.7945 13.6855C39.9649 13.66 40.1227 13.5807 40.2449 13.4592L42.5078 11.1964C42.6469 11.06 42.834 10.9836 43.0288 10.9836C43.2236 10.9836 43.4107 11.06 43.5498 11.1964L49.6136 17.2595C49.7502 17.3986 49.8267 17.5859 49.8267 17.7809C49.8267 17.9758 49.7502 18.1631 49.6136 18.3022L47.3508 20.5651C47.2197 20.6966 47.1376 20.8691 47.1183 21.0538C47.0989 21.2385 47.1435 21.4242 47.2445 21.5801C47.5202 22.0998 47.7755 22.6434 48.0105 23.2109C48.2537 23.7973 48.4648 24.3838 48.6439 24.9702C48.6941 25.1359 48.7963 25.2811 48.9353 25.3843C49.0743 25.4875 49.2428 25.5433 49.416 25.5434H52.6153C52.8103 25.5453 52.9967 25.6237 53.1345 25.7616C53.2723 25.8995 53.3505 26.086 53.3522 26.281V34.8654C53.3503 35.0602 53.272 35.2465 53.1343 35.3843C52.9965 35.5221 52.8102 35.6003 52.6153 35.6023H49.4234C49.2374 35.6026 49.0571 35.6669 48.9127 35.7843C48.7683 35.9016 48.6687 36.0651 48.6304 36.2471C48.4558 36.8124 48.2528 37.3763 48.0214 37.9388C47.7764 38.5289 47.5096 39.0939 47.2208 39.6339C47.1394 39.7866 47.1092 39.9615 47.1346 40.1326C47.1601 40.3038 47.2399 40.4623 47.3623 40.5847L49.6251 42.8475C49.7617 42.9867 49.8382 43.1739 49.8382 43.3689C49.8382 43.5639 49.7617 43.7511 49.6251 43.8903L43.5613 49.9533C43.4222 50.0897 43.2351 50.1661 43.0403 50.1661C42.8455 50.1661 42.6584 50.0897 42.5193 49.9533L40.3674 47.8062ZM20.5616 49.6583L19.1196 51.1003C18.677 51.5414 18.0775 51.7891 17.4526 51.7891C16.8277 51.7891 16.2283 51.5414 15.7856 51.1003L9.72188 45.0366C9.28077 44.5939 9.03308 43.9945 9.03308 43.3695C9.03308 42.7446 9.28077 42.1452 9.72188 41.7025L11.5679 39.8559C11.3531 39.4269 11.1558 38.9947 10.9758 38.5594C10.7958 38.124 10.6293 37.6785 10.4764 37.2229H7.86642C7.24154 37.2217 6.64261 36.9729 6.20076 36.531C5.7589 36.0892 5.51011 35.4902 5.50886 34.8654V26.2905C5.50993 25.6655 5.75864 25.0664 6.20052 24.6244C6.64239 24.1823 7.24142 23.9335 7.86642 23.9322H10.4771C10.63 23.4743 10.7962 23.0291 10.9758 22.5964C11.1553 22.1638 11.3527 21.7314 11.5679 21.2993L9.7212 19.4526C9.28009 19.0099 9.03241 18.4105 9.03241 17.7856C9.03241 17.1607 9.28009 16.5612 9.7212 16.1186L15.7849 10.0548C16.2276 9.61373 16.827 9.36605 17.4519 9.36605C18.0769 9.36605 18.6763 9.61373 19.1189 10.0548L20.9656 11.9015C21.3946 11.6868 21.8268 11.4894 22.2621 11.3094C22.6975 11.1294 23.1429 10.9629 23.5986 10.81V8.19938C23.6 7.57463 23.849 6.97591 24.291 6.5344C24.7331 6.09289 25.3321 5.84457 25.9568 5.84386H34.5317C35.1567 5.84493 35.7558 6.09364 36.1978 6.53551C36.6398 6.97739 36.8887 7.57642 36.8899 8.20141V10.812C37.3483 10.9659 37.7935 11.1321 38.2257 11.3108C38.6579 11.4894 39.0903 11.687 39.5229 11.9035L41.3689 10.0569C41.8117 9.61572 42.4112 9.36802 43.0362 9.36802C43.6613 9.36802 44.2608 9.61572 44.7036 10.0569L50.7673 16.1206C51.2084 16.5633 51.4561 17.1627 51.4561 17.7876C51.4561 18.4125 51.2084 19.012 50.7673 19.4546L48.9207 21.2993C49.1345 21.7283 49.3319 22.1604 49.5128 22.5958C49.6937 23.0311 49.8601 23.4766 50.0122 23.9322H52.6228C53.2478 23.9335 53.8468 24.1823 54.2887 24.6244C54.7306 25.0664 54.9793 25.6655 54.9803 26.2905V34.8654C54.9791 35.4902 54.7303 36.0892 54.2884 36.531C53.8466 36.9729 53.2477 37.2217 52.6228 37.2229H50.0122C49.8592 37.6813 49.693 38.1263 49.5134 38.558C49.3339 38.9897 49.1363 39.4224 48.9207 39.8559L50.7673 41.7025C51.2084 42.1452 51.4561 42.7446 51.4561 43.3695C51.4561 43.9945 51.2084 44.5939 50.7673 45.0366L44.7036 51.1003C44.2608 51.5414 43.6613 51.7891 43.0362 51.7891C42.4112 51.7891 41.8117 51.5414 41.3689 51.1003L39.9269 49.6583C39.5784 50.3667 39.0439 50.9671 38.3807 51.3953V53.0938C38.3788 53.7922 38.1341 54.4682 37.6884 55.0059C37.2427 55.5435 36.6238 55.9094 35.9379 56.0407V57.001C35.9361 57.7958 35.6195 58.5576 35.0575 59.1196C34.4954 59.6817 33.7337 59.9982 32.9388 60H27.5504C26.7555 59.9982 25.9938 59.6817 25.4317 59.1196C24.8697 58.5576 24.5531 57.7958 24.5513 57.001V56.0407C23.8654 55.9094 23.2465 55.5435 22.8008 55.0059C22.3551 54.4682 22.1104 53.7922 22.1085 53.0938V51.3953C21.4448 50.9674 20.9101 50.3669 20.5616 49.6583ZM30.5995 32.6939C30.4611 32.555 30.2788 32.4683 30.0837 32.4488C29.8886 32.4293 29.6927 32.478 29.5296 32.5867C29.3664 32.6955 29.2459 32.8574 29.1888 33.045C29.1317 33.2326 29.1414 33.4342 29.2164 33.6154C29.2913 33.7967 29.4267 33.9463 29.5996 34.0388C29.7725 34.1313 29.9722 34.161 30.1645 34.1227C30.3568 34.0845 30.5299 33.9807 30.6543 33.8291C30.7787 33.6775 30.8466 33.4875 30.8465 33.2914C30.8466 33.1805 30.8249 33.0706 30.7825 32.968C30.7401 32.8655 30.6779 32.7724 30.5995 32.6939ZM30.812 35.6212C31.3615 35.4294 31.8254 35.0492 32.1214 34.548C32.4174 34.0469 32.5264 33.4571 32.4291 32.8833C32.3318 32.3094 32.0345 31.7885 31.5899 31.4129C31.1453 31.0373 30.582 30.8313 30 30.8313C29.4179 30.8313 28.8547 31.0373 28.4101 31.4129C27.9654 31.7885 27.6681 32.3094 27.5708 32.8833C27.4736 33.4571 27.5826 34.0469 27.8786 34.548C28.1746 35.0492 28.6384 35.4294 29.188 35.6212V50.4642H27.0172V41.015C27.0169 40.8766 26.9813 40.7405 26.9137 40.6197C26.8461 40.4989 26.7487 40.3974 26.6308 40.3248L23.8564 38.217V30.9088C24.4063 30.717 24.8705 30.3366 25.1668 29.8352C25.463 29.3338 25.5722 28.7437 25.4749 28.1694C25.3776 27.5952 25.0801 27.074 24.6353 26.6981C24.1904 26.3223 23.6268 26.1161 23.0444 26.1161C22.462 26.1161 21.8984 26.3223 21.4535 26.6981C21.0086 27.074 20.7112 27.5952 20.6139 28.1694C20.5166 28.7437 20.6257 29.3338 20.922 29.8352C21.2182 30.3366 21.6825 30.717 22.2324 30.9088V38.6148H22.2357C22.2358 38.7394 22.2647 38.8622 22.3201 38.9737C22.3755 39.0852 22.456 39.1824 22.5551 39.2577L25.3972 41.4129V50.4642H24.4498C23.7324 50.4628 23.0448 50.1771 22.5375 49.6698C22.0302 49.1626 21.7445 48.4749 21.7431 47.7575C21.7431 42.1938 20.1827 40.0785 18.6608 38.0133C17.3697 36.2641 16.1104 34.5568 16.1104 30.2497C16.0975 28.3853 16.4536 26.5367 17.1582 24.8104C17.8627 23.0842 18.9018 21.5144 20.2157 20.1915C21.5295 18.8685 23.0921 17.8186 24.8134 17.1021C26.5347 16.3856 28.3808 16.0167 30.2453 16.0167C32.1098 16.0167 33.9558 16.3856 35.6772 17.1021C37.3985 17.8186 38.9611 18.8685 40.2749 20.1915C41.5887 21.5144 42.6278 23.0842 43.3324 24.8104C44.0369 26.5367 44.393 28.3853 44.3801 30.2497C44.3801 34.5568 43.1201 36.2641 41.8297 38.0133C40.3079 40.0751 38.7474 42.1904 38.7474 47.7575C38.746 48.4749 38.4604 49.1626 37.9531 49.6698C37.4458 50.1771 36.7581 50.4628 36.0407 50.4642H34.6068V41.4129L37.3846 39.3051C37.5024 39.2324 37.5996 39.1309 37.6671 39.0101C37.7346 38.8893 37.7702 38.7532 37.7703 38.6148V30.9061C38.3196 30.7143 38.7833 30.3342 39.0792 29.8331C39.3751 29.3321 39.484 28.7425 39.3867 28.1689C39.2895 27.5952 38.9922 27.0745 38.5477 26.699C38.1032 26.3235 37.5402 26.1176 36.9583 26.1176C36.3764 26.1176 35.8134 26.3235 35.3689 26.699C34.9243 27.0745 34.6271 27.5952 34.5298 28.1689C34.4326 28.7425 34.5415 29.3321 34.8374 29.8331C35.1333 30.3342 35.5969 30.7143 36.1463 30.9061V38.2143L33.3719 40.3221C33.2541 40.3948 33.1569 40.4963 33.0893 40.6171C33.0218 40.7379 32.9863 40.8739 32.9862 41.0123V50.4642H30.812V35.6212ZM3.7231 40.9866C3.68754 40.8813 3.63072 40.7844 3.55617 40.7019C3.48163 40.6194 3.39093 40.5531 3.28972 40.5071C3.1885 40.4611 3.07892 40.4364 2.96776 40.4345C2.85659 40.4325 2.74622 40.4535 2.64348 40.496C2.54074 40.5384 2.44781 40.6016 2.37046 40.6814C2.29311 40.7613 2.23299 40.8562 2.19381 40.9602C2.15464 41.0643 2.13724 41.1753 2.14271 41.2863C2.14818 41.3973 2.17639 41.5061 2.2256 41.6058L2.27636 41.731L2.3738 41.9637L2.47395 42.1972L2.57545 42.4293L2.67966 42.6621L2.7859 42.8942L2.89416 43.1256C2.99379 43.3067 3.15873 43.443 3.35536 43.5067C3.55199 43.5704 3.76551 43.5567 3.9524 43.4684C4.1393 43.3802 4.2855 43.2239 4.3612 43.0316C4.43691 42.8393 4.43643 42.6253 4.35986 42.4334L4.257 42.2141L4.15618 41.9942L4.0567 41.7756L3.95994 41.555L3.8652 41.3344L3.77317 41.1131L3.72175 40.9886L3.7231 40.9866ZM2.00162 34.9351C1.98724 34.8267 1.95111 34.7223 1.89542 34.6282C1.83972 34.5342 1.7656 34.4523 1.6775 34.3875C1.5894 34.3228 1.48913 34.2765 1.38271 34.2515C1.27629 34.2264 1.1659 34.2231 1.05818 34.2418C0.950448 34.2604 0.847594 34.3006 0.755782 34.36C0.66397 34.4193 0.585091 34.4966 0.523874 34.5872C0.462657 34.6778 0.420363 34.7798 0.399528 34.8872C0.378694 34.9945 0.379747 35.1049 0.402625 35.2118L0.426986 35.3587L0.46894 35.5955L0.512924 35.833L0.558938 36.0705L0.606983 36.308L0.657057 36.5456L0.709162 36.7824L0.724049 36.8501C0.742042 36.9597 0.782338 37.0644 0.842444 37.1579C0.902549 37.2513 0.981185 37.3314 1.07349 37.3932C1.16579 37.455 1.26979 37.4973 1.37907 37.5173C1.48834 37.5373 1.60056 37.5347 1.70878 37.5096C1.81699 37.4845 1.91891 37.4374 2.00823 37.3714C2.09754 37.3053 2.17235 37.2216 2.22802 37.1255C2.2837 37.0294 2.31905 36.9228 2.33191 36.8125C2.34476 36.7021 2.33484 36.5903 2.30275 36.484L2.29327 36.4298L2.24387 36.2059L2.19651 35.9812L2.15117 35.7532L2.10786 35.5292L2.06658 35.3045L2.02666 35.0812L2.00162 34.9351ZM1.66734 28.6548C1.68008 28.5446 1.67013 28.433 1.6381 28.3269C1.60607 28.2207 1.55264 28.1223 1.4811 28.0375C1.40955 27.9528 1.32142 27.8837 1.22213 27.8343C1.12283 27.785 1.01448 27.7565 0.903757 27.7506C0.793031 27.7447 0.682273 27.7616 0.578312 27.8001C0.474351 27.8387 0.379389 27.8981 0.299279 27.9748C0.219169 28.0515 0.155609 28.1437 0.112517 28.2459C0.0694246 28.348 0.0477134 28.458 0.0487211 28.5688L0.0392476 28.7407L0.0277439 28.9742L0.0182704 29.209L0.0101501 29.4431L0.00406012 29.6779L0 29.9127V30.1482V30.2335C0.000448673 30.4488 0.0864305 30.6552 0.239031 30.8072C0.391631 30.9591 0.598349 31.0442 0.813709 31.0438C1.02907 31.0434 1.23543 30.9574 1.3874 30.8048C1.53936 30.6522 1.62448 30.4455 1.62403 30.2301V30.157V29.9351V29.7124L1.63012 29.4905L1.63757 29.2692L1.64637 29.0473L1.65719 28.826L1.66734 28.6548ZM2.73041 22.455C2.77046 22.3498 2.7882 22.2374 2.78249 22.125C2.77678 22.0125 2.74775 21.9025 2.69724 21.8019C2.64673 21.7012 2.57585 21.6122 2.48909 21.5404C2.40234 21.4687 2.3016 21.4157 2.1933 21.385C2.08499 21.3542 1.97146 21.3463 1.85994 21.3618C1.74842 21.3773 1.64133 21.4158 1.54548 21.4749C1.44964 21.5339 1.36712 21.6123 1.30317 21.705C1.23923 21.7976 1.19525 21.9026 1.17404 22.0132L1.1463 22.1086L1.08472 22.3312L1.02382 22.5538L0.964947 22.7771L0.908106 23.0011L0.852618 23.2258L0.79916 23.4511L0.759236 23.6243C0.728036 23.7307 0.718958 23.8424 0.732562 23.9524C0.746166 24.0625 0.782163 24.1686 0.838335 24.2642C0.894507 24.3598 0.969663 24.4429 1.05917 24.5083C1.14868 24.5738 1.25064 24.6202 1.35878 24.6447C1.46691 24.6692 1.57892 24.6714 1.68791 24.651C1.7969 24.6305 1.90055 24.588 1.99248 24.526C2.08441 24.464 2.16267 24.3839 2.22243 24.2905C2.28219 24.1971 2.32219 24.0924 2.33996 23.983L2.37718 23.8212L2.42793 23.6081L2.48004 23.3956L2.53417 23.1838L2.59034 22.972L2.64718 22.7609L2.70334 22.5504L2.73109 22.455H2.73041ZM5.11233 16.6274C5.17076 16.5333 5.2093 16.4281 5.22558 16.3185C5.24185 16.2089 5.23551 16.0971 5.20695 15.99C5.17838 15.8829 5.1282 15.7828 5.0595 15.6959C4.99079 15.6089 4.90501 15.5369 4.80744 15.4844C4.70987 15.4318 4.60257 15.3998 4.49215 15.3903C4.38174 15.3808 4.27054 15.3939 4.16541 15.429C4.06028 15.4641 3.96344 15.5203 3.88085 15.5942C3.79827 15.6681 3.73168 15.7581 3.68521 15.8587L3.64528 15.9318L3.53701 16.1348L3.43077 16.3378L3.32589 16.5408L3.22236 16.7438L3.12018 16.9468L3.01935 17.1498L2.93341 17.3312C2.87998 17.4283 2.847 17.5354 2.8365 17.6457C2.826 17.7561 2.83821 17.8674 2.87238 17.9729C2.90654 18.0783 2.96194 18.1757 3.03515 18.2589C3.10837 18.3421 3.19785 18.4095 3.29809 18.4569C3.39832 18.5042 3.50719 18.5305 3.61798 18.5342C3.72878 18.5379 3.83915 18.5188 3.9423 18.4782C4.04545 18.4376 4.13919 18.3763 4.21776 18.2981C4.29632 18.2199 4.35803 18.1264 4.3991 18.0234L4.48031 17.8529L4.57504 17.6574L4.67181 17.4618L4.76992 17.2676L4.8694 17.0741L4.97022 16.8812L5.07308 16.689L5.11233 16.6153V16.6274ZM8.68858 11.4454C8.81469 11.2807 8.87295 11.0739 8.85141 10.8676C8.82988 10.6612 8.73017 10.4709 8.57277 10.3358C8.41536 10.2006 8.2122 10.1309 8.00496 10.1408C7.79773 10.1507 7.60216 10.2396 7.45838 10.3891L7.40898 10.4473L7.25943 10.6226L7.11124 10.7985L6.96508 10.9758L6.81959 11.1545L6.67546 11.3338L6.53336 11.5144L6.40614 11.6775C6.33589 11.7614 6.28332 11.8587 6.25159 11.9634C6.21986 12.0681 6.20963 12.1782 6.22151 12.287C6.23339 12.3958 6.26713 12.501 6.32072 12.5964C6.3743 12.6918 6.44662 12.7754 6.53332 12.8422C6.62003 12.909 6.71933 12.9575 6.82527 12.9849C6.93121 13.0124 7.0416 13.0181 7.14981 13.0018C7.25802 12.9854 7.36181 12.9474 7.45496 12.89C7.5481 12.8325 7.62867 12.7569 7.69183 12.6675L7.81093 12.5139L7.94627 12.3427L8.0816 12.1729L8.21694 12.0037L8.35566 11.8359L8.49573 11.6687L8.63716 11.5029L8.68723 11.4454H8.68858ZM18.7346 4.00193C18.8384 3.9632 18.9332 3.90362 19.0132 3.82687C19.0931 3.75012 19.1565 3.65782 19.1994 3.55565C19.2423 3.45348 19.2639 3.34361 19.2627 3.23279C19.2616 3.12198 19.2378 3.01257 19.1928 2.91131C19.1478 2.81004 19.0825 2.71906 19.001 2.64397C18.9195 2.56887 18.8235 2.51125 18.7189 2.47466C18.6143 2.43807 18.5033 2.42327 18.3928 2.43118C18.2823 2.4391 18.1745 2.46955 18.0762 2.52068L17.9652 2.5694L17.7487 2.66684L17.5328 2.76563L17.3197 2.86646L17.1058 2.96864L16.8933 3.07285L16.6815 3.17841L16.5726 3.2339C16.3949 3.33947 16.2642 3.50882 16.207 3.70743C16.1499 3.90604 16.1706 4.11897 16.265 4.30283C16.3594 4.48669 16.5203 4.62764 16.715 4.69696C16.9097 4.76628 17.1235 4.75875 17.3129 4.67591L17.4103 4.62583L17.6133 4.52636L17.8163 4.42824L18.0193 4.33147L18.2223 4.23606L18.4253 4.14268L18.6284 4.05065L18.7393 4.00193H18.7346ZM24.7368 2.13835C24.8471 2.12478 24.9535 2.08869 25.0494 2.03231C25.1452 1.97594 25.2285 1.90048 25.2939 1.81061C25.3594 1.72074 25.4057 1.61838 25.4301 1.50987C25.4544 1.40137 25.4561 1.28902 25.4352 1.17981C25.4143 1.07059 25.3712 0.966835 25.3086 0.874963C25.2459 0.78309 25.1651 0.705061 25.0711 0.645713C24.977 0.586365 24.8718 0.546963 24.7619 0.529948C24.652 0.512933 24.5398 0.518667 24.4322 0.546797L24.1866 0.594841L23.9444 0.644239L23.7028 0.695667L23.4626 0.748448L23.2223 0.803936L22.9835 0.860777L22.8042 0.904085C22.6952 0.924538 22.5917 0.967064 22.4998 1.02904C22.408 1.09103 22.3298 1.17115 22.2701 1.26449C22.2103 1.35782 22.1703 1.4624 22.1526 1.57177C22.1348 1.68114 22.1395 1.79299 22.1666 1.90045C22.1937 2.0079 22.2424 2.10868 22.3099 2.19658C22.3774 2.28448 22.4621 2.35764 22.5589 2.41156C22.6557 2.46547 22.7625 2.49901 22.8728 2.51009C22.9831 2.52118 23.0944 2.50958 23.2 2.47601L23.3665 2.43474L23.5925 2.3806L23.8192 2.3285L24.0472 2.27842L24.2753 2.2297L24.5047 2.18301L24.7368 2.137V2.13835ZM12.0598 8.13239L12.229 7.993L12.3995 7.85766L12.5707 7.72232L12.7433 7.58699L12.9172 7.45165L13.0917 7.31631L13.2948 7.16338C13.3876 7.10278 13.467 7.0238 13.5282 6.93133C13.5893 6.83885 13.6309 6.73484 13.6503 6.62569C13.6697 6.51654 13.6666 6.40457 13.6411 6.29668C13.6156 6.18879 13.5683 6.08727 13.502 5.99836C13.4358 5.90946 13.3521 5.83505 13.256 5.77974C13.1599 5.72442 13.0535 5.68937 12.9434 5.67673C12.8333 5.66409 12.7217 5.67414 12.6156 5.70626C12.5095 5.73838 12.4111 5.79188 12.3264 5.86348L12.1126 6.02385L11.9279 6.1646L11.7438 6.30671L11.5618 6.45016L11.3804 6.59565L11.2004 6.74181L11.013 6.8961C10.863 7.03876 10.7732 7.23332 10.7619 7.44C10.7505 7.64668 10.8186 7.84989 10.9521 8.00809C11.0856 8.16629 11.2744 8.26753 11.4801 8.29114C11.6857 8.31475 11.8926 8.25893 12.0585 8.1351L12.0598 8.13239ZM31.0143 1.63016C31.125 1.64034 31.2366 1.62769 31.3422 1.59301C31.4477 1.55832 31.5451 1.50232 31.6281 1.42849C31.7112 1.35466 31.7782 1.26457 31.8251 1.16379C31.8719 1.063 31.8976 0.953679 31.9004 0.842581C31.9033 0.731484 31.8834 0.620978 31.8418 0.517906C31.8002 0.414834 31.738 0.321391 31.6588 0.24336C31.5797 0.165329 31.4854 0.104373 31.3817 0.0642654C31.2781 0.0241578 31.1673 0.00575228 31.0563 0.0101888C30.6983 0.000715235 30.3424 -0.00131477 29.9837 0.000715276H29.7239L29.464 0.00612866H29.3883C29.2774 0.00284772 29.167 0.0223136 29.064 0.0633252C28.9609 0.104337 28.8674 0.166025 28.7891 0.244585C28.7108 0.323145 28.6494 0.416912 28.6088 0.520103C28.5681 0.623293 28.549 0.73372 28.5527 0.844572C28.5563 0.955424 28.5826 1.06435 28.63 1.16464C28.6774 1.26492 28.7448 1.35444 28.8281 1.42767C28.9114 1.5009 29.0088 1.55628 29.1144 1.59041C29.2199 1.62454 29.3313 1.63669 29.4417 1.6261H29.504L29.7503 1.62069H29.9973C30.3356 1.62069 30.674 1.62069 31.0123 1.62949L31.0143 1.63016ZM59.8152 41.5252C60.0153 41.4581 60.2337 41.4718 60.4239 41.5635C60.614 41.6552 60.7607 41.8176 60.8327 42.016C60.9047 42.2144 60.8962 42.4331 60.8092 42.6254C60.7221 42.8177 60.5633 42.9683 60.3667 43.0451L56.7411 44.3565C56.5395 44.4285 56.3176 44.418 56.1237 44.3273C55.9298 44.2365 55.7796 44.0729 55.7057 43.872L54.3943 40.247C54.3582 40.1473 54.342 40.0414 54.3468 39.9354C54.3515 39.8294 54.3771 39.7253 54.4221 39.6292C54.467 39.5331 54.5305 39.4468 54.6088 39.3752C54.6871 39.3036 54.7788 39.2482 54.8785 39.212C54.9782 39.1758 55.0841 39.1597 55.1901 39.1644C55.2961 39.1692 55.4002 39.1948 55.4963 39.2397C55.5924 39.2847 55.6787 39.3482 55.7503 39.4265C55.8219 39.5048 55.8773 39.5964 55.9135 39.6962L56.5617 41.488C57.2513 39.8779 57.79 38.2072 58.1709 36.4975C59.022 32.695 59.0881 28.7587 58.3649 24.9298C57.6417 21.1008 56.1446 17.4598 53.9652 14.2296C51.7858 10.9995 48.97 8.24814 45.6902 6.14416C42.4104 4.04018 38.7357 2.62781 34.891 1.99354C34.6843 1.95389 34.5011 1.83516 34.3805 1.66259C34.2599 1.49001 34.2113 1.2772 34.2452 1.0694C34.279 0.861596 34.3926 0.675185 34.5617 0.549793C34.7308 0.424402 34.9422 0.369919 35.1509 0.397927C39.6785 1.14491 43.9769 2.91225 47.7204 5.56615C51.464 8.22005 54.5547 11.6909 56.7584 15.716C58.9622 19.741 60.2212 24.2147 60.4403 28.7983C60.6593 33.3819 59.8326 37.9553 58.0227 42.1722L59.8152 41.5252Z" fill="#0CB4C4"></path></svg>