<svg width="58" height="60" viewBox="0 0 58 60" fill="none" xmlns="http://www.w3.org/2000/svg"><path fill-rule="evenodd" clip-rule="evenodd" d="M18.1698 34.9424C16.3601 34.2966 13.8498 33.8956 11.0637 33.8956C8.27747 33.8956 5.76467 34.2966 3.95762 34.9424C2.36141 35.5126 1.37449 36.2157 1.37449 36.9187C1.37449 37.6217 2.36141 38.3249 3.95762 38.8951C5.76734 39.5409 8.27761 39.9419 11.0637 39.9419C13.85 39.9419 16.3628 39.5409 18.1698 38.8951C19.766 38.3248 20.7529 37.6217 20.7529 36.9187C20.7529 36.2157 19.766 35.5126 18.1698 34.9424ZM22.1278 36.8979V36.9188V55.6019C22.1278 56.9482 20.792 58.0991 18.6333 58.8725C16.6855 59.5678 14.0087 60 11.0639 60C8.11915 60 5.44197 59.5703 3.49452 58.8725C1.33583 58.1017 0 56.9482 0 55.6019V36.9188V36.8979C0.0130203 35.5595 1.34623 34.4163 3.49452 33.6482C5.4423 32.9529 8.11915 32.5207 11.0639 32.5207C14.0087 32.5207 16.6859 32.9503 18.6333 33.6482C20.7816 34.4163 22.1148 35.5595 22.1278 36.8979ZM4.24659 42.1033C3.99661 42.0199 3.75965 41.934 3.54092 41.8455C3.30656 41.7491 3.10085 41.658 2.92378 41.572C2.58527 41.4028 2.17644 41.5408 2.00459 41.8793C1.83533 42.2178 1.97334 42.6267 2.31186 42.7985C2.55142 42.9183 2.79098 43.0251 3.02533 43.1214C3.27792 43.223 3.54352 43.3219 3.81434 43.4104C4.17368 43.5302 4.56168 43.3323 4.68147 42.973C4.80125 42.6136 4.60335 42.2256 4.244 42.1058L4.24659 42.1033ZM1.37442 43.1422V39.1218C1.93688 39.528 2.65299 39.8873 3.49665 40.1868C5.44443 40.8821 8.12129 41.3143 11.0661 41.3143C14.0108 41.3143 16.688 40.8847 18.6354 40.1868C19.4791 39.8848 20.1952 39.5254 20.7577 39.1218V43.1422C20.7577 43.8453 19.7708 44.5484 18.1746 45.1186C16.3648 45.7644 13.8546 46.1654 11.0685 46.1654C8.28221 46.1654 5.76941 45.7644 3.96235 45.1186C2.36614 44.5483 1.37922 43.8453 1.37922 43.1422H1.37442ZM4.24659 48.332C3.99661 48.2486 3.76226 48.1627 3.54352 48.0742C3.32739 47.9856 3.12168 47.8945 2.92638 47.7982C2.58787 47.6289 2.17384 47.7669 2.00459 48.108C1.83533 48.4465 1.97334 48.8606 2.31446 49.0298C2.53579 49.1392 2.77275 49.2459 3.02793 49.3501C3.28052 49.4517 3.54352 49.548 3.81694 49.6391C4.17628 49.7589 4.56428 49.561 4.68407 49.2017C4.80385 48.8423 4.60595 48.4543 4.2466 48.3345L4.24659 48.332ZM1.37442 49.3709C1.37442 50.074 2.36135 50.7771 3.95755 51.3473C5.76727 51.9931 8.27754 52.3941 11.0637 52.3941C13.8499 52.3941 16.3627 51.9931 18.1698 51.3473C19.766 50.7771 20.7529 50.074 20.7529 49.3709V45.3452C20.1904 45.7514 19.4743 46.1107 18.6306 46.4102C16.6829 47.1055 14.006 47.5378 11.0613 47.5378C8.11615 47.5378 5.4393 47.1081 3.49186 46.4102C2.64819 46.1082 1.93211 45.7488 1.36962 45.3452V49.3709H1.37442ZM20.7555 51.5739C20.1931 51.9801 19.477 52.3394 18.6333 52.639C16.6855 53.3342 14.0087 53.7665 11.0639 53.7665C8.11915 53.7665 5.44197 53.3368 3.49452 52.639C2.65086 52.3369 1.93478 51.9775 1.37229 51.5739V55.5996C1.37229 56.3027 2.35921 57.0058 3.95542 57.576C5.76514 58.2218 8.27541 58.6228 11.0615 58.6228C13.8478 58.6228 16.3606 58.2218 18.1676 57.576C19.7638 57.0058 20.7507 56.3027 20.7507 55.5996V51.5739H20.7555ZM4.24619 54.5607C3.99621 54.4773 3.75925 54.3914 3.54052 54.3029C3.30616 54.2065 3.10045 54.1154 2.92338 54.0295C2.58487 53.8602 2.17604 53.9982 2.00419 54.3367C1.83493 54.6752 1.97294 55.0841 2.31146 55.2559C2.55102 55.3757 2.79058 55.4825 3.02493 55.5788C3.27752 55.6804 3.54052 55.7793 3.81394 55.8678C4.17328 55.9876 4.56128 55.7897 4.68107 55.4304C4.80085 55.071 4.60295 54.683 4.2436 54.5633L4.24619 54.5607ZM53.7816 34.9396C51.9719 34.2938 49.4616 33.8928 46.6755 33.8928C43.8892 33.8928 41.3764 34.2938 39.5694 34.9396C37.9732 35.5098 36.9863 36.2129 36.9863 36.9159C36.9863 37.619 37.9732 38.3221 39.5694 38.8923C41.3791 39.5381 43.8894 39.9391 46.6755 39.9391C49.4617 39.9391 51.9745 39.5381 53.7816 38.8923C55.3778 38.322 56.3647 37.6189 56.3647 36.9159C56.3647 36.2129 55.3778 35.5098 53.7816 34.9396ZM57.7396 36.8951V36.916V55.5991C57.7396 56.9454 56.4038 58.0963 54.2451 58.8697C52.2973 59.565 49.6205 59.9972 46.6757 59.9972C43.7306 59.9972 41.0537 59.5675 39.1063 58.8697C36.9476 58.0989 35.6118 56.9454 35.6118 55.5991V36.916V36.8951C35.6248 35.5567 36.958 34.4135 39.1063 33.6454C41.0541 32.9501 43.7309 32.5179 46.6757 32.5179C49.6208 32.5179 52.2976 32.9475 54.2451 33.6454C56.3934 34.4135 57.7266 35.5567 57.7396 36.8951ZM39.8584 42.1005C39.6084 42.0171 39.3714 41.9312 39.1527 41.8427C38.9183 41.7463 38.7126 41.6552 38.5355 41.5692C38.197 41.4 37.7882 41.538 37.6163 41.8765C37.4471 42.215 37.5851 42.6239 37.9236 42.7957C38.1632 42.9155 38.4027 43.0222 38.6371 43.1186C38.8897 43.2202 39.1553 43.3191 39.4261 43.4076C39.7854 43.5274 40.1734 43.3295 40.2932 42.9702C40.413 42.6108 40.2151 42.2228 39.8558 42.103L39.8584 42.1005ZM36.9862 43.1394V39.119C37.5486 39.5252 38.2648 39.8845 39.1084 40.184C41.0562 40.8793 43.7331 41.3115 46.6778 41.3115C49.6226 41.3115 52.2998 40.8819 54.2472 40.184C55.0909 39.8819 55.807 39.5226 56.3694 39.119V43.1394C56.3694 43.8425 55.3825 44.5456 53.7863 45.1158C51.9766 45.7616 49.4663 46.1626 46.6802 46.1626C43.894 46.1626 41.3812 45.7616 39.5741 45.1158C37.9779 44.5456 36.991 43.8424 36.991 43.1394H36.9862ZM39.8584 48.3292C39.6084 48.2458 39.374 48.1599 39.1553 48.0714C38.9392 47.9828 38.7334 47.8917 38.5381 47.7953C38.1996 47.6261 37.7856 47.7641 37.6163 48.1052C37.4471 48.4437 37.5851 48.8578 37.9262 49.027C38.1476 49.1364 38.3845 49.2431 38.6397 49.3473C38.8923 49.4488 39.1553 49.5452 39.4287 49.6363C39.788 49.7561 40.176 49.5582 40.2958 49.1989C40.4156 48.8395 40.2177 48.4515 39.8584 48.3317L39.8584 48.3292ZM36.9862 49.3681C36.9862 50.0712 37.9731 50.7743 39.5693 51.3445C41.379 51.9903 43.8893 52.3913 46.6754 52.3913C49.4617 52.3913 51.9745 51.9903 53.7815 51.3445C55.3777 50.7743 56.3646 50.0712 56.3646 49.3681V45.3424C55.8022 45.7486 55.0861 46.1079 54.2424 46.4074C52.2946 47.1027 49.6178 47.535 46.673 47.535C43.7279 47.535 41.0511 47.1053 39.1036 46.4074C38.26 46.1054 37.5439 45.746 36.9814 45.3424V49.3681H36.9862ZM56.3673 51.5711C55.8049 51.9773 55.0887 52.3366 54.2451 52.6361C52.2973 53.3314 49.6205 53.7637 46.6757 53.7637C43.7306 53.7637 41.0537 53.334 39.1063 52.6361C38.2626 52.3341 37.5465 51.9747 36.9841 51.5711V55.5969C36.9841 56.2999 37.971 57.003 39.5672 57.5732C41.3769 58.219 43.8872 58.62 46.6733 58.62C49.4595 58.62 51.9723 58.219 53.7794 57.5732C55.3756 57.003 56.3625 56.2999 56.3625 55.5969V51.5711H56.3673ZM39.858 54.5579C39.608 54.4745 39.371 54.3886 39.1523 54.3001C38.9179 54.2037 38.7122 54.1126 38.5351 54.0267C38.1966 53.8574 37.7878 53.9954 37.616 54.3339C37.4467 54.6724 37.5847 55.0813 37.9232 55.2531C38.1628 55.3729 38.4024 55.4797 38.6367 55.576C38.8893 55.6776 39.1523 55.7765 39.4257 55.865C39.785 55.9848 40.173 55.7869 40.2928 55.4276C40.4126 55.0682 40.2147 54.6802 39.8554 54.5604L39.858 54.5579ZM22.4687 29.4219V23.5395C22.4687 23.1594 22.7759 22.8521 23.1561 22.8521H24.4138L20.4402 18.0452L16.4666 22.8521H17.7243C18.1044 22.8521 18.4117 23.1594 18.4117 23.5395V29.4219H22.4712H22.4687ZM39.3347 23.5395V17.6572H35.2751V23.5395C35.2751 23.9197 34.9679 24.227 34.5877 24.227H33.33L34.8351 26.0471C34.8507 26.0628 34.8663 26.081 34.8794 26.0992L37.3062 29.0338L39.7331 26.0992C39.7461 26.081 39.7618 26.0628 39.7774 26.0471L41.2825 24.227H40.0248C39.6446 24.227 39.3373 23.9197 39.3373 23.5395H39.3347ZM40.6028 27.1955L37.8322 30.5468C37.59 30.8384 37.1578 30.8801 36.8661 30.6379C36.8297 30.6067 36.7958 30.5728 36.7672 30.5364L34.0044 27.1955H23.8412V30.1093C23.8412 30.4895 23.5339 30.7967 23.1538 30.7967H17.722C17.3418 30.7967 17.0346 30.4895 17.0346 30.1093V27.1955H14.217C11.9542 27.1955 9.89965 26.2711 8.40764 24.7816C6.91816 23.2921 5.99376 21.235 5.99376 18.9748C5.99376 16.6026 6.93116 14.5715 8.4467 13.1185C9.84766 11.7749 11.7433 10.9312 13.8421 10.7775C13.8604 7.80904 15.0712 5.12432 17.019 3.17681C18.9823 1.21344 21.693 0 24.6877 0C26.8516 0 28.867 0.635363 30.5596 1.72906C32.1402 2.74978 33.437 4.169 34.3093 5.84333C34.4629 5.80428 34.6166 5.77303 34.7702 5.74438C35.1243 5.68189 35.4889 5.65064 35.8535 5.65064C37.4887 5.65064 38.9834 6.27299 40.1083 7.29371C41.0926 8.18951 41.7957 9.38988 42.0639 10.7492H43.5273C45.7901 10.7492 47.8447 11.6736 49.3367 13.163C50.8262 14.6525 51.7506 16.7096 51.7506 18.9724C51.7506 21.2353 50.8262 23.2898 49.3367 24.7793C47.8472 26.2687 45.7901 27.1931 43.5273 27.1931H40.6057L40.6028 27.1955ZM40.7069 16.967C40.7069 16.5868 40.3997 16.2796 40.0195 16.2796H34.5877C34.2075 16.2796 33.9003 16.5868 33.9003 16.967V22.8493H31.8718C31.7181 22.8493 31.5619 22.9014 31.4343 23.0082C31.1427 23.2503 31.101 23.6826 31.3432 23.9742L32.8691 25.8204H23.8438V24.2242H25.8723C26.2525 24.2242 26.5597 23.9169 26.5597 23.5368C26.5597 23.3571 26.492 23.1957 26.3801 23.0733L20.969 16.5295C20.7269 16.2379 20.2946 16.1962 20.003 16.4384C19.9665 16.4696 19.9327 16.5035 19.904 16.54L14.48 23.102C14.2378 23.3936 14.2795 23.8258 14.5711 24.068C14.6987 24.1748 14.855 24.2243 15.0086 24.2243H17.0371V25.8205H14.2196C12.3369 25.8205 10.6235 25.0497 9.38404 23.8076C8.14194 22.5655 7.3712 20.8547 7.3712 18.9721C7.3712 16.993 8.1472 15.3057 9.3997 14.1027C10.7017 12.8554 12.5297 12.121 14.5478 12.121C14.9279 12.121 15.2352 11.8138 15.2352 11.4336C15.2352 11.405 15.2326 11.3737 15.23 11.3451C15.2248 11.2539 15.2222 11.1784 15.2195 11.1159C15.2169 11.0743 15.2169 10.9831 15.2169 10.8347C15.2169 8.22031 16.2767 5.8533 17.9902 4.13724C19.7036 2.42384 22.0706 1.36399 24.6877 1.36399C26.5807 1.36399 28.341 1.91863 29.82 2.87167C31.346 3.85599 32.5698 5.26995 33.325 6.93908C33.4786 7.2802 33.8796 7.43383 34.2234 7.28801C34.4681 7.20208 34.7285 7.13438 35.0046 7.08751C35.278 7.04064 35.5644 7.01459 35.8586 7.01459C37.1424 7.01459 38.3116 7.50153 39.1891 8.29836C40.0796 9.10556 40.6734 10.2305 40.7958 11.4908C40.8296 11.845 41.1265 12.1106 41.478 12.1106V12.1132H43.5325C45.4151 12.1132 47.1285 12.8839 48.368 14.126C49.6101 15.3681 50.3809 17.0789 50.3809 18.9616C50.3809 20.8442 49.6101 22.5576 48.368 23.7971C47.1259 25.0392 45.4151 25.81 43.5325 25.81H41.7462L43.2513 23.9898C43.3632 23.8674 43.4309 23.7059 43.4309 23.5263C43.4309 23.1461 43.1237 22.8389 42.7435 22.8389H40.715V16.9565L40.7069 16.967Z" fill="#0CB4C4"></path></svg>