<svg width="60" height="60" viewBox="0 0 60 60" fill="none" xmlns="http://www.w3.org/2000/svg"><mask id="path-1-inside-1_1154_182" fill="white"><path d="M58.6452 46.6452C59.519 45.481 60 44.0381 60 42.5806V30C60 28.3994 58.6974 27.0968 57.0968 27.0968C56.7145 27.0968 56.3516 27.1752 56.0168 27.3097C55.6829 26.0758 54.5642 25.1613 53.2258 25.1613C52.4797 25.1613 51.8052 25.4526 51.2903 25.9161C50.7755 25.4516 50.101 25.1613 49.3548 25.1613C49.0142 25.1613 48.691 25.231 48.3871 25.3394V20.9739C48.7374 20.8161 49.1294 20.6216 49.5281 20.4165L51.8061 21.7152L55.5871 17.9332L54.2797 15.6445C54.3803 15.4258 54.4732 15.2042 54.5564 14.9816L57.0968 14.2868V8.93903L54.5564 8.24419C54.4732 8.02161 54.3803 7.8 54.2797 7.58129L55.5871 5.29258L51.8061 1.51065L49.5155 2.8171C49.2958 2.71645 49.0752 2.62355 48.8535 2.54032L48.1587 0H42.81L42.1152 2.54032C41.8935 2.62355 41.6719 2.71548 41.4523 2.8171L39.1626 1.51065L35.3816 5.29258L36.689 7.58129C36.5884 7.8 36.4955 8.02161 36.4123 8.24419L33.871 8.93903V10.6452H28.0645C26.4639 10.6452 25.1613 11.9477 25.1613 13.5484V15.541C24.8429 15.5052 24.5206 15.4839 24.1935 15.4839C23.8665 15.4839 23.5442 15.5052 23.2258 15.541V10.6452C23.2258 9.04452 21.9232 7.74194 20.3226 7.74194H17.3623C16.8794 3.39387 13.1855 0 8.70968 0C3.90677 0 0 3.90774 0 8.70968C0 13.5116 3.90677 17.4194 8.70968 17.4194C13.1855 17.4194 16.8794 14.0255 17.3623 9.67742H20.3226C20.8568 9.67742 21.2903 10.1119 21.2903 10.6452V15.9919C19.5106 16.6239 17.9923 17.8113 16.9568 19.3548H4.83871C2.17065 19.3548 0 21.5255 0 24.1935V43.5484C0 46.2165 2.17065 48.3871 4.83871 48.3871H12.5806V50.3226H11.6129C9.47806 50.3226 7.74194 52.0587 7.74194 54.1935C7.74194 55.261 8.61 56.129 9.67742 56.129H30.9677C32.0352 56.129 32.9032 55.261 32.9032 54.1935C32.9032 52.0587 31.1671 50.3226 29.0323 50.3226H28.0645V48.3871H35.8065C36.9919 48.3871 38.1097 47.9381 38.9777 47.1716L39.6774 48.6097V50.3226H37.7419V60H59.0323V50.3226H57.0968V48.7094L58.6452 46.6452ZM4.5271 14.0284C5.38452 12.5429 6.96 11.6129 8.70968 11.6129C10.4594 11.6129 12.0348 12.5429 12.8923 14.0284C11.7387 14.9371 10.2881 15.4839 8.70968 15.4839C7.13129 15.4839 5.68064 14.9371 4.5271 14.0284ZM6.77419 7.74194C6.77419 6.67452 7.64226 5.80645 8.70968 5.80645C9.7771 5.80645 10.6452 6.67452 10.6452 7.74194C10.6452 8.80935 9.7771 9.67742 8.70968 9.67742C7.64226 9.67742 6.77419 8.80935 6.77419 7.74194ZM14.2539 12.5903C13.5687 11.6023 12.6523 10.8155 11.58 10.3152C12.1955 9.63 12.5806 8.73387 12.5806 7.74194C12.5806 5.6071 10.8445 3.87097 8.70968 3.87097C6.57484 3.87097 4.83871 5.6071 4.83871 7.74194C4.83871 8.73387 5.22387 9.63 5.83935 10.3152C4.7671 10.8155 3.85064 11.6023 3.16548 12.5903C2.39323 11.49 1.93548 10.1535 1.93548 8.70968C1.93548 4.97419 4.97516 1.93548 8.70968 1.93548C12.4442 1.93548 15.4839 4.97419 15.4839 8.70968C15.4839 10.1535 15.0261 11.49 14.2539 12.5903ZM33.3155 30.87L34.3113 32.3642C34.5426 32.7116 34.7168 33.0958 34.8387 33.4955V42.5806H5.80645V25.1613H15.541C16.0239 29.5094 19.7177 32.9032 24.1935 32.9032C28.6694 32.9032 32.3632 29.5094 32.8461 25.1613H34.8387V27.1132C33.7345 27.3523 32.9032 28.3345 32.9032 29.5094C32.9032 29.9952 33.0455 30.4655 33.3155 30.87ZM22.2581 23.2258C22.2581 22.1584 23.1261 21.2903 24.1935 21.2903C25.261 21.2903 26.129 22.1584 26.129 23.2258C26.129 24.2932 25.261 25.1613 24.1935 25.1613C23.1261 25.1613 22.2581 24.2932 22.2581 23.2258ZM24.1935 27.0968C25.9432 27.0968 27.5187 28.0268 28.3761 29.5123C27.2226 30.421 25.7719 30.9677 24.1935 30.9677C22.6152 30.9677 21.1645 30.421 20.011 29.5123C20.8684 28.0268 22.4439 27.0968 24.1935 27.0968ZM34.8387 23.2258H32.8461C32.7716 22.5542 32.6139 21.9077 32.3952 21.2903H35.8065C37.4071 21.2903 38.7097 22.5929 38.7097 24.1935V28.0616C38.1203 27.6832 37.47 27.4045 36.7742 27.241V25.1613C36.7742 24.0939 35.9061 23.2258 34.8387 23.2258ZM39.7345 21.389L41.4406 20.4165C41.8287 20.6177 42.2255 20.8132 42.5816 20.9739V34.8523C42.5816 35.2926 42.48 35.7339 42.2855 36.1287L41.4735 32.07C41.3226 31.3181 41.0332 30.6223 40.6442 30L40.6452 24.1935C40.6452 23.1465 40.3026 22.1816 39.7345 21.389ZM43.1758 14.7097C42.209 13.9897 41.6129 12.8545 41.6129 11.6129C41.6129 9.47806 43.349 7.74194 45.4839 7.74194C47.6187 7.74194 49.3548 9.47806 49.3548 11.6129C49.3548 12.8565 48.7587 13.9906 47.7919 14.7106C47.2616 14.009 46.4294 13.5484 45.4839 13.5484C44.5394 13.5484 43.7061 14.009 43.1758 14.7097ZM35.8065 10.4158L37.9287 9.83516L38.0845 9.3271C38.2239 8.87903 38.4097 8.4329 38.6381 8.00226L38.8877 7.53194L37.7942 5.61677L39.4868 3.92323L41.4019 5.01581L41.8723 4.7671C42.3048 4.53774 42.751 4.35194 43.1981 4.21452L43.7052 4.05774L44.2877 1.93548H46.681L47.2626 4.05774L47.7697 4.21452C48.2139 4.35194 48.661 4.53774 49.0965 4.76806L49.5658 5.01581L51.481 3.92323L53.1735 5.61677L52.08 7.53194L52.3297 8.00226C52.5581 8.4329 52.7448 8.87903 52.8832 9.3271L53.039 9.83516L55.1613 10.4158V12.81L53.039 13.3906L52.8832 13.8987C52.7439 14.3468 52.5581 14.7929 52.3297 15.2235L52.08 15.6939L53.1735 17.609L51.481 19.3026L49.5658 18.21L49.0965 18.4577C48.8361 18.5952 48.601 18.7171 48.3881 18.8255V16.6326C50.1687 15.6039 51.2913 13.7081 51.2913 11.6129C51.2913 8.41064 48.6871 5.80645 45.4848 5.80645C42.2826 5.80645 39.6784 8.41064 39.6784 11.6129C39.6784 13.7061 40.801 15.6029 42.5816 16.6326V18.8255C42.3755 18.721 42.1452 18.6019 41.8742 18.4587L41.4039 18.21L39.4887 19.3026L37.7961 17.609L38.8897 15.6939L38.64 15.2235C38.4116 14.7929 38.2248 14.3468 38.0864 13.8987L37.9306 13.3906L35.8065 12.81V10.4158ZM27.0968 13.5484C27.0968 13.0152 27.5303 12.5806 28.0645 12.5806H33.871V14.2868L36.4113 14.9816C36.4945 15.2042 36.5874 15.4258 36.6881 15.6445L35.3806 17.9332L36.9552 19.5077C36.5855 19.4168 36.2042 19.3548 35.8065 19.3548H31.4303C30.3948 17.8113 28.8765 16.6239 27.0968 15.9919V13.5484ZM24.1935 17.4194C27.9281 17.4194 30.9677 20.4581 30.9677 24.1935C30.9677 25.6374 30.51 26.9739 29.7377 28.0742C29.0526 27.0861 28.1361 26.2994 27.0639 25.799C27.6794 25.1139 28.0645 24.2177 28.0645 23.2258C28.0645 21.091 26.3284 19.3548 24.1935 19.3548C22.0587 19.3548 20.3226 21.091 20.3226 23.2258C20.3226 24.2177 20.7077 25.1139 21.3232 25.799C20.251 26.2994 19.3345 27.0861 18.6494 28.0742C17.8771 26.9739 17.4194 25.6374 17.4194 24.1935C17.4194 20.4581 20.459 17.4194 24.1935 17.4194ZM30.9677 54.1935L9.67742 54.1955V54.1935C9.67742 53.1261 10.5455 52.2581 11.6129 52.2581H29.0323C30.0997 52.2581 30.9677 53.1261 30.9677 54.1935ZM26.129 50.3226H14.5161V48.3871H26.129V50.3226ZM35.8065 46.4516H4.83871C3.23806 46.4516 1.93548 45.149 1.93548 43.5484V24.1935C1.93548 22.5929 3.23806 21.2903 4.83871 21.2903H15.9919C15.7723 21.9077 15.6155 22.5542 15.541 23.2258H5.80645C4.73903 23.2258 3.87097 24.0939 3.87097 25.1613V42.5806C3.87097 43.6481 4.73903 44.5161 5.80645 44.5161H34.8387C35.8887 44.5161 36.7423 43.6742 36.7694 42.63L38.0681 45.301C37.5223 46.0094 36.7016 46.4516 35.8065 46.4516ZM57.0968 58.0645H39.6774V52.2581H57.0968V58.0645ZM41.6129 50.3226V48.1645L38.191 41.1319C37.8716 40.5755 37.6703 39.9706 37.591 39.3329L36.9213 33.9774C36.8023 33.0223 36.4577 32.0932 35.9226 31.2919L34.9258 29.7968C34.8687 29.7116 34.8387 29.6119 34.8387 29.5094C34.8387 29.2239 35.071 28.9916 35.3565 28.9916C37.3994 28.9916 39.1732 30.4461 39.5748 32.4494L40.8194 38.669H43.1787L44.0052 37.0152C44.339 36.3474 44.5161 35.5984 44.5161 34.8523V16.4516C44.5161 15.9184 44.9497 15.4839 45.4839 15.4839C46.0181 15.4839 46.4516 15.9184 46.4516 16.4516V28.0645V31.9355H48.3871V28.0645C48.3871 27.5313 48.8206 27.0968 49.3548 27.0968C49.889 27.0968 50.3226 27.5313 50.3226 28.0645V31.9355H52.2581V28.0645C52.2581 27.5313 52.6916 27.0968 53.2258 27.0968C53.76 27.0968 54.1935 27.5313 54.1935 28.0645V30V31.9355H56.129V30C56.129 29.4668 56.5626 29.0323 57.0968 29.0323C57.631 29.0323 58.0645 29.4668 58.0645 30V42.5806C58.0645 43.621 57.721 44.6526 57.0968 45.4839L55.1613 48.0648V50.3226H41.6129Z"></path></mask><path d="M58.6452 46.6452C59.519 45.481 60 44.0381 60 42.5806V30C60 28.3994 58.6974 27.0968 57.0968 27.0968C56.7145 27.0968 56.3516 27.1752 56.0168 27.3097C55.6829 26.0758 54.5642 25.1613 53.2258 25.1613C52.4797 25.1613 51.8052 25.4526 51.2903 25.9161C50.7755 25.4516 50.101 25.1613 49.3548 25.1613C49.0142 25.1613 48.691 25.231 48.3871 25.3394V20.9739C48.7374 20.8161 49.1294 20.6216 49.5281 20.4165L51.8061 21.7152L55.5871 17.9332L54.2797 15.6445C54.3803 15.4258 54.4732 15.2042 54.5564 14.9816L57.0968 14.2868V8.93903L54.5564 8.24419C54.4732 8.02161 54.3803 7.8 54.2797 7.58129L55.5871 5.29258L51.8061 1.51065L49.5155 2.8171C49.2958 2.71645 49.0752 2.62355 48.8535 2.54032L48.1587 0H42.81L42.1152 2.54032C41.8935 2.62355 41.6719 2.71548 41.4523 2.8171L39.1626 1.51065L35.3816 5.29258L36.689 7.58129C36.5884 7.8 36.4955 8.02161 36.4123 8.24419L33.871 8.93903V10.6452H28.0645C26.4639 10.6452 25.1613 11.9477 25.1613 13.5484V15.541C24.8429 15.5052 24.5206 15.4839 24.1935 15.4839C23.8665 15.4839 23.5442 15.5052 23.2258 15.541V10.6452C23.2258 9.04452 21.9232 7.74194 20.3226 7.74194H17.3623C16.8794 3.39387 13.1855 0 8.70968 0C3.90677 0 0 3.90774 0 8.70968C0 13.5116 3.90677 17.4194 8.70968 17.4194C13.1855 17.4194 16.8794 14.0255 17.3623 9.67742H20.3226C20.8568 9.67742 21.2903 10.1119 21.2903 10.6452V15.9919C19.5106 16.6239 17.9923 17.8113 16.9568 19.3548H4.83871C2.17065 19.3548 0 21.5255 0 24.1935V43.5484C0 46.2165 2.17065 48.3871 4.83871 48.3871H12.5806V50.3226H11.6129C9.47806 50.3226 7.74194 52.0587 7.74194 54.1935C7.74194 55.261 8.61 56.129 9.67742 56.129H30.9677C32.0352 56.129 32.9032 55.261 32.9032 54.1935C32.9032 52.0587 31.1671 50.3226 29.0323 50.3226H28.0645V48.3871H35.8065C36.9919 48.3871 38.1097 47.9381 38.9777 47.1716L39.6774 48.6097V50.3226H37.7419V60H59.0323V50.3226H57.0968V48.7094L58.6452 46.6452ZM4.5271 14.0284C5.38452 12.5429 6.96 11.6129 8.70968 11.6129C10.4594 11.6129 12.0348 12.5429 12.8923 14.0284C11.7387 14.9371 10.2881 15.4839 8.70968 15.4839C7.13129 15.4839 5.68064 14.9371 4.5271 14.0284ZM6.77419 7.74194C6.77419 6.67452 7.64226 5.80645 8.70968 5.80645C9.7771 5.80645 10.6452 6.67452 10.6452 7.74194C10.6452 8.80935 9.7771 9.67742 8.70968 9.67742C7.64226 9.67742 6.77419 8.80935 6.77419 7.74194ZM14.2539 12.5903C13.5687 11.6023 12.6523 10.8155 11.58 10.3152C12.1955 9.63 12.5806 8.73387 12.5806 7.74194C12.5806 5.6071 10.8445 3.87097 8.70968 3.87097C6.57484 3.87097 4.83871 5.6071 4.83871 7.74194C4.83871 8.73387 5.22387 9.63 5.83935 10.3152C4.7671 10.8155 3.85064 11.6023 3.16548 12.5903C2.39323 11.49 1.93548 10.1535 1.93548 8.70968C1.93548 4.97419 4.97516 1.93548 8.70968 1.93548C12.4442 1.93548 15.4839 4.97419 15.4839 8.70968C15.4839 10.1535 15.0261 11.49 14.2539 12.5903ZM33.3155 30.87L34.3113 32.3642C34.5426 32.7116 34.7168 33.0958 34.8387 33.4955V42.5806H5.80645V25.1613H15.541C16.0239 29.5094 19.7177 32.9032 24.1935 32.9032C28.6694 32.9032 32.3632 29.5094 32.8461 25.1613H34.8387V27.1132C33.7345 27.3523 32.9032 28.3345 32.9032 29.5094C32.9032 29.9952 33.0455 30.4655 33.3155 30.87ZM22.2581 23.2258C22.2581 22.1584 23.1261 21.2903 24.1935 21.2903C25.261 21.2903 26.129 22.1584 26.129 23.2258C26.129 24.2932 25.261 25.1613 24.1935 25.1613C23.1261 25.1613 22.2581 24.2932 22.2581 23.2258ZM24.1935 27.0968C25.9432 27.0968 27.5187 28.0268 28.3761 29.5123C27.2226 30.421 25.7719 30.9677 24.1935 30.9677C22.6152 30.9677 21.1645 30.421 20.011 29.5123C20.8684 28.0268 22.4439 27.0968 24.1935 27.0968ZM34.8387 23.2258H32.8461C32.7716 22.5542 32.6139 21.9077 32.3952 21.2903H35.8065C37.4071 21.2903 38.7097 22.5929 38.7097 24.1935V28.0616C38.1203 27.6832 37.47 27.4045 36.7742 27.241V25.1613C36.7742 24.0939 35.9061 23.2258 34.8387 23.2258ZM39.7345 21.389L41.4406 20.4165C41.8287 20.6177 42.2255 20.8132 42.5816 20.9739V34.8523C42.5816 35.2926 42.48 35.7339 42.2855 36.1287L41.4735 32.07C41.3226 31.3181 41.0332 30.6223 40.6442 30L40.6452 24.1935C40.6452 23.1465 40.3026 22.1816 39.7345 21.389ZM43.1758 14.7097C42.209 13.9897 41.6129 12.8545 41.6129 11.6129C41.6129 9.47806 43.349 7.74194 45.4839 7.74194C47.6187 7.74194 49.3548 9.47806 49.3548 11.6129C49.3548 12.8565 48.7587 13.9906 47.7919 14.7106C47.2616 14.009 46.4294 13.5484 45.4839 13.5484C44.5394 13.5484 43.7061 14.009 43.1758 14.7097ZM35.8065 10.4158L37.9287 9.83516L38.0845 9.3271C38.2239 8.87903 38.4097 8.4329 38.6381 8.00226L38.8877 7.53194L37.7942 5.61677L39.4868 3.92323L41.4019 5.01581L41.8723 4.7671C42.3048 4.53774 42.751 4.35194 43.1981 4.21452L43.7052 4.05774L44.2877 1.93548H46.681L47.2626 4.05774L47.7697 4.21452C48.2139 4.35194 48.661 4.53774 49.0965 4.76806L49.5658 5.01581L51.481 3.92323L53.1735 5.61677L52.08 7.53194L52.3297 8.00226C52.5581 8.4329 52.7448 8.87903 52.8832 9.3271L53.039 9.83516L55.1613 10.4158V12.81L53.039 13.3906L52.8832 13.8987C52.7439 14.3468 52.5581 14.7929 52.3297 15.2235L52.08 15.6939L53.1735 17.609L51.481 19.3026L49.5658 18.21L49.0965 18.4577C48.8361 18.5952 48.601 18.7171 48.3881 18.8255V16.6326C50.1687 15.6039 51.2913 13.7081 51.2913 11.6129C51.2913 8.41064 48.6871 5.80645 45.4848 5.80645C42.2826 5.80645 39.6784 8.41064 39.6784 11.6129C39.6784 13.7061 40.801 15.6029 42.5816 16.6326V18.8255C42.3755 18.721 42.1452 18.6019 41.8742 18.4587L41.4039 18.21L39.4887 19.3026L37.7961 17.609L38.8897 15.6939L38.64 15.2235C38.4116 14.7929 38.2248 14.3468 38.0864 13.8987L37.9306 13.3906L35.8065 12.81V10.4158ZM27.0968 13.5484C27.0968 13.0152 27.5303 12.5806 28.0645 12.5806H33.871V14.2868L36.4113 14.9816C36.4945 15.2042 36.5874 15.4258 36.6881 15.6445L35.3806 17.9332L36.9552 19.5077C36.5855 19.4168 36.2042 19.3548 35.8065 19.3548H31.4303C30.3948 17.8113 28.8765 16.6239 27.0968 15.9919V13.5484ZM24.1935 17.4194C27.9281 17.4194 30.9677 20.4581 30.9677 24.1935C30.9677 25.6374 30.51 26.9739 29.7377 28.0742C29.0526 27.0861 28.1361 26.2994 27.0639 25.799C27.6794 25.1139 28.0645 24.2177 28.0645 23.2258C28.0645 21.091 26.3284 19.3548 24.1935 19.3548C22.0587 19.3548 20.3226 21.091 20.3226 23.2258C20.3226 24.2177 20.7077 25.1139 21.3232 25.799C20.251 26.2994 19.3345 27.0861 18.6494 28.0742C17.8771 26.9739 17.4194 25.6374 17.4194 24.1935C17.4194 20.4581 20.459 17.4194 24.1935 17.4194ZM30.9677 54.1935L9.67742 54.1955V54.1935C9.67742 53.1261 10.5455 52.2581 11.6129 52.2581H29.0323C30.0997 52.2581 30.9677 53.1261 30.9677 54.1935ZM26.129 50.3226H14.5161V48.3871H26.129V50.3226ZM35.8065 46.4516H4.83871C3.23806 46.4516 1.93548 45.149 1.93548 43.5484V24.1935C1.93548 22.5929 3.23806 21.2903 4.83871 21.2903H15.9919C15.7723 21.9077 15.6155 22.5542 15.541 23.2258H5.80645C4.73903 23.2258 3.87097 24.0939 3.87097 25.1613V42.5806C3.87097 43.6481 4.73903 44.5161 5.80645 44.5161H34.8387C35.8887 44.5161 36.7423 43.6742 36.7694 42.63L38.0681 45.301C37.5223 46.0094 36.7016 46.4516 35.8065 46.4516ZM57.0968 58.0645H39.6774V52.2581H57.0968V58.0645ZM41.6129 50.3226V48.1645L38.191 41.1319C37.8716 40.5755 37.6703 39.9706 37.591 39.3329L36.9213 33.9774C36.8023 33.0223 36.4577 32.0932 35.9226 31.2919L34.9258 29.7968C34.8687 29.7116 34.8387 29.6119 34.8387 29.5094C34.8387 29.2239 35.071 28.9916 35.3565 28.9916C37.3994 28.9916 39.1732 30.4461 39.5748 32.4494L40.8194 38.669H43.1787L44.0052 37.0152C44.339 36.3474 44.5161 35.5984 44.5161 34.8523V16.4516C44.5161 15.9184 44.9497 15.4839 45.4839 15.4839C46.0181 15.4839 46.4516 15.9184 46.4516 16.4516V28.0645V31.9355H48.3871V28.0645C48.3871 27.5313 48.8206 27.0968 49.3548 27.0968C49.889 27.0968 50.3226 27.5313 50.3226 28.0645V31.9355H52.2581V28.0645C52.2581 27.5313 52.6916 27.0968 53.2258 27.0968C53.76 27.0968 54.1935 27.5313 54.1935 28.0645V30V31.9355H56.129V30C56.129 29.4668 56.5626 29.0323 57.0968 29.0323C57.631 29.0323 58.0645 29.4668 58.0645 30V42.5806C58.0645 43.621 57.721 44.6526 57.0968 45.4839L55.1613 48.0648V50.3226H41.6129Z" fill="#0CB4C4" stroke="white" stroke-width="0.6" mask="url(#path-1-inside-1_1154_182)"></path><path d="M27.0968 38.8597H27.2468V38.7097V34.9887H28.8823V38.7097V38.8597H29.0323H30.8178V40.4952H7.89194V27.2468H9.52743V38.7097V38.8597H9.67743H11.6129H11.7629V38.7097V29.1823H13.3984V38.7097V38.8597H13.5484H15.4839H15.6339V38.7097V31.1178H17.2694V38.7097V38.8597H17.4194H19.3548H19.5048V38.7097V34.9887H21.1403V38.7097V38.8597H21.2903H23.2258H23.3758V38.7097V36.9242H25.0113V38.7097V38.8597H25.1613H27.0968Z" fill="#0CB4C4" stroke="white" stroke-width="0.3"></path></svg>