<svg width="82" height="60" viewBox="0 0 82 60" fill="none" xmlns="http://www.w3.org/2000/svg"><path d="M39.0028 5.78571C29.1714 5.78571 21.1657 13.7829 21.1657 23.6229C21.1657 33.4629 29.1628 41.46 39.0028 41.46C48.8428 41.46 56.84 33.4629 56.84 23.6229C56.84 13.7829 48.8428 5.78571 39.0028 5.78571ZM39.0028 39.4714C30.26 39.4714 23.1543 32.3571 23.1543 23.6229C23.1543 14.8886 30.2685 7.77429 39.0028 7.77429C47.7371 7.77429 54.8514 14.8886 54.8514 23.6229C54.8514 32.3571 47.7457 39.4714 39.0028 39.4714ZM38.78 10.38C38.4285 10.38 38.0943 10.5686 37.9228 10.8771L27.2 29.4429C27.02 29.7514 27.02 30.1286 27.2 30.4371C27.38 30.7457 27.7057 30.9343 28.0571 30.9343H49.5028C49.8543 30.9343 50.1885 30.7457 50.36 30.4371C50.54 30.1286 50.54 29.7514 50.36 29.4429L39.6371 10.8771C39.4657 10.5686 39.1314 10.38 38.78 10.38ZM29.78 28.9543L38.78 13.3629L47.78 28.9543H29.78ZM38.78 17.3914C39.3285 17.3914 39.7743 17.8371 39.7743 18.3857V23.6229C39.7743 24.1714 39.3285 24.6171 38.78 24.6171C38.2314 24.6171 37.7857 24.1714 37.7857 23.6229V18.3857C37.7857 17.8371 38.2314 17.3914 38.78 17.3914ZM39.7743 26.58C39.7743 27.1371 39.3285 27.5743 38.78 27.5743C38.2314 27.5743 37.7857 27.1286 37.7857 26.58C37.7857 26.0314 38.2314 25.5857 38.78 25.5857C39.3285 25.5857 39.7743 26.04 39.7743 26.58ZM77.4628 0C75.2685 0 73.4857 1.78286 73.4857 3.97714C73.4857 5.32286 74.1628 6.51429 75.1914 7.23429L68.4714 25.2343C68.3343 25.2171 68.1971 25.2086 68.0514 25.2086C66.5857 25.2086 65.3 26.0057 64.6143 27.1971L61.1085 26.22C61.2114 25.3714 61.2628 24.5057 61.2628 23.6229C61.2628 11.3571 51.2771 1.37143 39.0114 1.37143C26.7457 1.37143 16.7514 11.3486 16.7514 23.6143C16.7514 31.1571 20.5228 37.8343 26.2828 41.8629L24.2857 45.5314C23.9771 45.4543 23.6514 45.4114 23.3171 45.4114C22.3314 45.4114 21.4314 45.7714 20.7371 46.3629L16.4171 43.32C16.58 42.8829 16.6743 42.4114 16.6743 41.9143C16.6743 39.72 14.8914 37.9371 12.6971 37.9371C10.5028 37.9371 8.71997 39.72 8.71997 41.9143C8.71997 42.8571 9.04569 43.7229 9.60283 44.4086L5.59997 49.7657C5.13711 49.5771 4.62283 49.4657 4.0914 49.4657C1.89711 49.4657 0.114258 51.2486 0.114258 53.4429C0.114258 55.6371 1.89711 57.42 4.0914 57.42C6.28569 57.42 8.06854 55.6371 8.06854 53.4429C8.06854 52.5 7.74283 51.6343 7.18569 50.9486L11.1885 45.5914C11.6514 45.78 12.1657 45.8914 12.6971 45.8914C13.6828 45.8914 14.5828 45.5314 15.2771 44.94L19.5971 47.9914C19.4343 48.4286 19.34 48.9 19.34 49.3971C19.34 51.5914 21.1228 53.3743 23.3171 53.3743C25.5114 53.3743 27.2943 51.5914 27.2943 49.3971C27.2943 48.2486 26.8057 47.22 26.0257 46.4914L27.9628 42.9343C31.22 44.8029 34.9914 45.8743 39.0028 45.8743C43.22 45.8743 47.1714 44.6914 50.5314 42.6514L63.5 57.8914C64.5885 59.1686 66.1571 59.9143 67.9228 59.9914C68.0171 59.9914 68.1114 60 68.1971 60C70.04 60 71.8314 59.2629 73.1343 57.96C74.5057 56.5886 75.2514 54.6857 75.1743 52.74C75.1057 50.9829 74.36 49.4143 73.0743 48.3171L57.8943 35.3743C59.2571 33.1971 60.2514 30.7714 60.7914 28.1829L64.0828 29.1C64.0828 29.1257 64.0828 29.1514 64.0828 29.1857C64.0828 31.38 65.8657 33.1629 68.06 33.1629C70.2543 33.1629 72.0371 31.38 72.0371 29.1857C72.0371 27.84 71.36 26.6486 70.3314 25.9286L77.0514 7.92857C77.1885 7.94571 77.3257 7.95429 77.4714 7.95429C79.6657 7.95429 81.4485 6.17143 81.4485 3.97714C81.4485 1.78286 79.6571 0 77.4628 0ZM4.0914 55.44C2.99426 55.44 2.09426 54.5486 2.09426 53.4429C2.09426 52.3457 2.98569 51.4543 4.0914 51.4543C5.19711 51.4543 6.08854 52.3457 6.08854 53.4429C6.08854 54.5486 5.18854 55.44 4.0914 55.44ZM12.6971 43.92C11.6 43.92 10.7 43.0286 10.7 41.9229C10.7 40.8257 11.5914 39.9343 12.6971 39.9343C13.8028 39.9343 14.6943 40.8257 14.6943 41.9229C14.6943 43.02 13.7943 43.92 12.6971 43.92ZM23.3171 51.3857C22.22 51.3857 21.32 50.4943 21.32 49.3886C21.32 48.2914 22.2114 47.3914 23.3171 47.3914C24.4143 47.3914 25.3143 48.2829 25.3143 49.3886C25.3143 50.4857 24.4143 51.3857 23.3171 51.3857ZM73.2028 52.8086C73.2543 54.18 72.7143 55.5771 71.7457 56.5457C70.7771 57.5143 69.38 58.0543 68.0085 58.0029C66.8085 57.9514 65.7457 57.4543 65.0171 56.6057L55.5543 45.48L60.68 40.3543L71.7971 49.8171C72.6543 50.5457 73.1514 51.6086 73.2028 52.8086ZM59.1628 39.06L54.26 43.9629L52.1857 41.5286C53.9171 40.2514 55.46 38.7257 56.7543 37.0114L59.1628 39.06ZM39.0028 43.8857C27.8257 43.8857 18.7314 34.7914 18.7314 23.6143C18.7314 12.4371 27.8343 3.35143 39.0028 3.35143C50.18 3.35143 59.2743 12.4457 59.2743 23.6229C59.2743 34.8 50.18 43.8857 39.0028 43.8857ZM68.0514 31.1829C66.9543 31.1829 66.0543 30.2914 66.0543 29.1857C66.0543 28.0886 66.9457 27.1886 68.0514 27.1886C69.1485 27.1886 70.0485 28.08 70.0485 29.1857C70.04 30.2829 69.1485 31.1829 68.0514 31.1829ZM77.4628 5.96571C76.3657 5.96571 75.4657 5.07429 75.4657 3.96857C75.4657 2.86286 76.3571 1.97143 77.4628 1.97143C78.56 1.97143 79.46 2.86286 79.46 3.96857C79.46 5.07429 78.56 5.96571 77.4628 5.96571Z" fill="#0CB4C4"></path></svg>