<svg width="61" height="60" viewBox="0 0 61 60" fill="none" xmlns="http://www.w3.org/2000/svg"><path d="M1.97656 52H27.9766V50H2.97656V6H27.9766V12C27.9766 12.2652 28.0819 12.5196 28.2695 12.7071C28.457 12.8946 28.7113 13 28.9766 13H34.9766V20H36.9766V1C36.9766 0.734784 36.8712 0.48043 36.6837 0.292893C36.4961 0.105357 36.2418 0 35.9766 0H1.97656C1.71135 0 1.45699 0.105357 1.26946 0.292893C1.08192 0.48043 0.976563 0.734784 0.976562 1V51C0.976563 51.2652 1.08192 51.5196 1.26946 51.7071C1.45699 51.8946 1.71135 52 1.97656 52ZM29.9766 11V7.414L33.5626 11H29.9766ZM34.9766 2V9.586L29.6836 4.293C29.5987 4.20879 29.499 4.14098 29.3896 4.093C29.3602 4.08036 29.3301 4.06935 29.2996 4.06C29.2143 4.03072 29.1255 4.01323 29.0356 4.008C29.0156 4.01 28.9966 4 28.9766 4H2.97656V2H34.9766Z" fill="#0CB4C4"></path><path d="M9.97656 17.118L13.5296 18.9C13.7476 19.0089 13.9978 19.0344 14.2334 18.9718C14.4689 18.9092 14.6734 18.7628 14.8086 18.56L17.9766 13.8L21.1446 18.552C21.2267 18.675 21.335 18.7783 21.4619 18.8544C21.5887 18.9306 21.7309 18.9776 21.8781 18.9921C22.0253 19.0066 22.1739 18.9883 22.3132 18.9385C22.4525 18.8887 22.579 18.8086 22.6836 18.704L25.9766 15.414L29.2696 18.707L30.6836 17.293L26.6836 13.293C26.496 13.1055 26.2417 13.0002 25.9766 13.0002C25.7114 13.0002 25.4571 13.1055 25.2696 13.293L22.1316 16.431L18.8086 11.445C18.7118 11.3156 18.5862 11.2106 18.4418 11.1383C18.2974 11.066 18.1381 11.0283 17.9766 11.0283C17.815 11.0283 17.6557 11.066 17.5113 11.1383C17.3669 11.2106 17.2413 11.3156 17.1446 11.445L13.6336 16.711L10.4236 15.105C10.2848 15.0356 10.1317 14.9995 9.97656 14.9995C9.8214 14.9995 9.66836 15.0356 9.52956 15.105L6.97656 16.382V12H4.97656V22C4.97656 22.2652 5.08192 22.5196 5.26946 22.7071C5.45699 22.8946 5.71135 23 5.97656 23H29.9766V21H6.97656V18.618L9.97656 17.118Z" fill="#0CB4C4"></path><path d="M25.9766 33.0003C25.977 31.8154 25.6255 30.6571 24.9666 29.6723C24.1675 28.4755 22.965 27.6058 21.5782 27.2216C20.1914 26.8375 18.7128 26.9646 17.4119 27.5797C16.1109 28.1948 15.0744 29.2569 14.4913 30.5725C13.9082 31.8881 13.8172 33.3694 14.2351 34.7463C14.653 36.1233 15.5519 37.3043 16.7678 38.0738C17.9838 38.8434 19.4358 39.1503 20.8591 38.9386C22.2825 38.727 23.5823 38.0108 24.5217 36.9207C25.4611 35.8306 25.9774 34.4393 25.9766 33.0003ZM20.9766 31.1323V29.1323C21.5955 29.2926 22.1668 29.5992 22.6426 30.0263L20.9766 31.1323ZM19.9766 37.0003C19.003 37.0003 18.0628 36.6452 17.3323 36.0016C16.6018 35.358 16.1311 34.4701 16.0084 33.5043C15.8857 32.5385 16.1195 31.561 16.6659 30.7553C17.2123 29.9495 18.0339 29.3706 18.9766 29.1273V33.0003C18.9765 33.1813 19.0256 33.359 19.1186 33.5143C19.2115 33.6696 19.345 33.7968 19.5046 33.8823C19.5812 33.9222 19.6625 33.9524 19.7466 33.9723C19.7776 33.9793 19.8096 33.9793 19.8406 33.9833C19.8854 33.9924 19.9309 33.9981 19.9766 34.0003C19.9836 34.0003 19.9906 34.0003 19.9986 34.0003C20.0613 33.9969 20.1236 33.9875 20.1846 33.9723C20.2148 33.9685 20.2449 33.9631 20.2746 33.9563C20.3654 33.9281 20.4519 33.8874 20.5316 33.8353L23.7526 31.6873C23.9008 32.1091 23.9766 32.5531 23.9766 33.0003C23.9766 34.0611 23.5551 35.0785 22.805 35.8287C22.0548 36.5788 21.0374 37.0003 19.9766 37.0003Z" fill="#0CB4C4"></path><path d="M11.9766 29H4.97656V31H11.9766V29Z" fill="#0CB4C4"></path><path d="M13.9766 25H4.97656V27H13.9766V25Z" fill="#0CB4C4"></path><path d="M11.9766 33H4.97656V35H11.9766V33Z" fill="#0CB4C4"></path><path d="M11.9766 37H4.97656V39H11.9766V37Z" fill="#0CB4C4"></path><path d="M22.9766 41H4.97656V43H22.9766V41Z" fill="#0CB4C4"></path><path d="M13.9766 45H4.97656V47H13.9766V45Z" fill="#0CB4C4"></path><path d="M22.9766 45H15.9766V47H22.9766V45Z" fill="#0CB4C4"></path><path d="M6.97656 8H4.97656V10H6.97656V8Z" fill="#0CB4C4"></path><path d="M10.9766 8H8.97656V10H10.9766V8Z" fill="#0CB4C4"></path><path d="M14.9766 8H12.9766V10H14.9766V8Z" fill="#0CB4C4"></path><path d="M44.5476 20C40.9979 20.0194 37.5485 21.1796 34.7087 23.3095C31.8689 25.4393 29.7892 28.4258 28.7766 31.828L25.0166 44.72C24.9731 44.869 24.9649 45.0261 24.9927 45.1789C25.0205 45.3316 25.0834 45.4758 25.1766 45.6C25.2697 45.7242 25.3905 45.825 25.5293 45.8944C25.6682 45.9639 25.8213 46 25.9766 46H29.9766V53C29.9789 54.8558 30.7172 56.6349 32.0294 57.9471C33.3417 59.2594 35.1208 59.9976 36.9766 60H59.9766C60.2418 60 60.4961 59.8946 60.6837 59.7071C60.8712 59.5196 60.9766 59.2652 60.9766 59V36.429C60.9715 32.0733 59.239 27.8974 56.1591 24.8175C53.0791 21.7376 48.9033 20.005 44.5476 20ZM31.9766 53V45C31.9766 44.7348 31.8712 44.4804 31.6837 44.2929C31.4961 44.1054 31.2418 44 30.9766 44H27.3096L30.6966 32.389C31.4408 29.8122 32.892 27.4954 34.8857 25.7013C36.8794 23.9071 39.3358 22.7074 41.9766 22.238V58H36.9766C35.651 57.9984 34.3801 57.4711 33.4428 56.5338C32.5054 55.5964 31.9781 54.3256 31.9766 53ZM58.9766 58H43.9766V53H46.5626L49.2696 55.707C49.4571 55.8946 49.7114 55.9999 49.9766 56H51.9766V54H50.3906L47.6836 51.293C47.4961 51.1054 47.2418 51.0001 46.9766 51H43.9766V46H45.5626L48.2696 48.707C48.4571 48.8946 48.7114 48.9999 48.9766 49H50.1606C50.3965 49.6672 50.8606 50.2296 51.471 50.5876C52.0815 50.9457 52.7988 51.0765 53.4963 50.9568C54.1938 50.8371 54.8265 50.4747 55.2827 49.9337C55.7388 49.3926 55.989 48.7077 55.989 48C55.989 47.2923 55.7388 46.6074 55.2827 46.0663C54.8265 45.5253 54.1938 45.1629 53.4963 45.0432C52.7988 44.9235 52.0815 45.0543 51.471 45.4124C50.8606 45.7704 50.3965 46.3328 50.1606 47H49.3906L46.6836 44.293C46.4961 44.1054 46.2418 44.0001 45.9766 44H43.9766V41H45.9766V39H43.9766V36H46.9766C47.2418 35.9999 47.4961 35.8946 47.6836 35.707L50.0836 33.307C50.6146 33.7515 51.2841 33.9966 51.9766 34C52.604 34.0082 53.2186 33.8221 53.736 33.4671C54.2534 33.1122 54.6483 32.6058 54.8665 32.0175C55.0848 31.4292 55.1156 30.7878 54.9548 30.1813C54.794 29.5748 54.4495 29.0329 53.9685 28.6299C53.4875 28.227 52.8937 27.9827 52.2684 27.9307C51.6431 27.8787 51.017 28.0214 50.476 28.3394C49.935 28.6573 49.5057 29.1348 49.2469 29.7064C48.9881 30.278 48.9126 30.9157 49.0306 31.532L46.5626 34H43.9766V22.015C44.1766 22.005 44.3636 22 44.5476 22C48.373 22.0045 52.0404 23.5261 54.7454 26.2311C57.4504 28.9361 58.9721 32.6036 58.9766 36.429V58ZM51.9766 48C51.9766 47.8022 52.0352 47.6089 52.1451 47.4444C52.255 47.28 52.4112 47.1518 52.5939 47.0761C52.7766 47.0004 52.9777 46.9806 53.1717 47.0192C53.3656 47.0578 53.5438 47.153 53.6837 47.2929C53.8235 47.4327 53.9188 47.6109 53.9573 47.8049C53.9959 47.9989 53.9761 48.2 53.9004 48.3827C53.8248 48.5654 53.6966 48.7216 53.5321 48.8315C53.3677 48.9414 53.1743 49 52.9766 49C52.7113 49 52.457 48.8946 52.2695 48.7071C52.0819 48.5196 51.9766 48.2652 51.9766 48ZM50.9766 31C50.9766 30.8022 51.0352 30.6089 51.1451 30.4444C51.255 30.28 51.4112 30.1518 51.5939 30.0761C51.7766 30.0004 51.9777 29.9806 52.1717 30.0192C52.3656 30.0578 52.5438 30.153 52.6837 30.2929C52.8235 30.4327 52.9188 30.6109 52.9573 30.8049C52.9959 30.9989 52.9761 31.2 52.9004 31.3827C52.8248 31.5654 52.6966 31.7216 52.5321 31.8315C52.3677 31.9414 52.1743 32 51.9766 32C51.7113 32 51.457 31.8946 51.2695 31.7071C51.0819 31.5196 50.9766 31.2652 50.9766 31Z" fill="#0CB4C4"></path><path d="M36.1054 34C35.3398 34 34.5913 34.227 33.9548 34.6524C33.3182 35.0777 32.822 35.6823 32.529 36.3896C32.2361 37.097 32.1594 37.8753 32.3088 38.6262C32.4581 39.3771 32.8268 40.0668 33.3682 40.6082C33.9095 41.1496 34.5993 41.5183 35.3502 41.6676C36.1011 41.817 36.8794 41.7403 37.5867 41.4473C38.2941 41.1544 38.8986 40.6582 39.324 40.0216C39.7493 39.385 39.9764 38.6366 39.9764 37.871C39.9756 36.8446 39.5675 35.8604 38.8417 35.1347C38.1159 34.4089 37.1318 34.0008 36.1054 34ZM36.1054 39.741C35.7353 39.741 35.3735 39.6312 35.0658 39.4256C34.7581 39.22 34.5183 38.9277 34.3767 38.5858C34.2351 38.2438 34.1981 37.8676 34.2704 37.5046C34.3427 37.1417 34.521 36.8083 34.7827 36.5466C35.0445 36.285 35.378 36.1069 35.741 36.0348C36.104 35.9627 36.4802 35.9999 36.8221 36.1417C37.1639 36.2835 37.4561 36.5234 37.6615 36.8313C37.867 37.1391 37.9766 37.5009 37.9764 37.871C37.9758 38.367 37.7785 38.8425 37.4277 39.1931C37.0769 39.5437 36.6013 39.7407 36.1054 39.741Z" fill="#0CB4C4"></path><path d="M50.1606 39H47.9766V41H50.1606C50.3965 41.6672 50.8606 42.2296 51.471 42.5876C52.0815 42.9457 52.7988 43.0765 53.4963 42.9568C54.1938 42.8371 54.8265 42.4747 55.2827 41.9337C55.7388 41.3926 55.989 40.7077 55.989 40C55.989 39.2923 55.7388 38.6074 55.2827 38.0663C54.8265 37.5253 54.1938 37.1629 53.4963 37.0432C52.7988 36.9235 52.0815 37.0543 51.471 37.4124C50.8606 37.7705 50.3965 38.3328 50.1606 39ZM53.9766 40C53.9766 40.1978 53.9179 40.3911 53.808 40.5556C53.6982 40.72 53.542 40.8482 53.3592 40.9239C53.1765 40.9996 52.9755 41.0194 52.7815 40.9808C52.5875 40.9422 52.4093 40.847 52.2695 40.7071C52.1296 40.5673 52.0344 40.3891 51.9958 40.1951C51.9572 40.0011 51.977 39.8 52.0527 39.6173C52.1284 39.4346 52.2565 39.2784 52.421 39.1685C52.5854 39.0587 52.7788 39 52.9766 39C53.2418 39 53.4961 39.1054 53.6837 39.2929C53.8712 39.4804 53.9766 39.7348 53.9766 40Z" fill="#0CB4C4"></path><path d="M47.9766 26H45.9766V28H47.9766V26Z" fill="#0CB4C4"></path><path d="M55.9766 54H53.9766V56H55.9766V54Z" fill="#0CB4C4"></path></svg>