<svg width="59" height="60" viewBox="0 0 59 60" fill="none" xmlns="http://www.w3.org/2000/svg"><path d="M34.9205 60H17.7421C17.6121 60.0001 17.4834 59.9743 17.3632 59.9242C17.2431 59.8742 17.1339 59.8007 17.042 59.7081C16.9501 59.6155 16.8771 59.5055 16.8274 59.3845C16.7777 59.2635 16.7521 59.1337 16.7522 59.0028V41.0136C13.0963 37.9354 10.6803 33.6196 9.95705 28.8752C9.23381 24.1308 10.253 19.2836 12.8236 15.2421H8.08959C7.99456 16.3503 8.4422 18.0501 7.47868 18.3847C7.29784 18.4606 7.0987 18.4805 6.90659 18.442C6.71448 18.4035 6.53807 18.3083 6.3998 18.1686L3.49484 15.2421H2.1753C1.60402 15.2414 1.05633 15.0125 0.652372 14.6056C0.248416 14.1986 0.0211785 13.6469 0.0205078 13.0714V2.17088C0.0211785 1.59537 0.248416 1.04362 0.652372 0.636671C1.05633 0.229723 1.60402 0.00080252 2.1753 0.000126876H20.7612C21.045 -0.00298122 21.3266 0.0510442 21.5894 0.159034C21.8522 0.267024 22.091 0.426803 22.2917 0.628998C22.4924 0.831193 22.651 1.07173 22.7582 1.3365C22.8654 1.60127 22.919 1.88495 22.916 2.17088V7.32846C27.2003 5.87789 31.8503 5.96147 36.0806 7.5651V2.17088C36.0775 1.88495 36.1311 1.60127 36.2383 1.3365C36.3455 1.07173 36.5041 0.831193 36.7048 0.628998C36.9055 0.426803 37.1443 0.267024 37.4071 0.159034C37.6699 0.0510442 37.9515 -0.00298122 38.2353 0.000126876H56.8212C57.3925 0.00080252 57.9402 0.229723 58.3441 0.636671C58.7481 1.04362 58.9753 1.59537 58.976 2.17088V13.0714C58.9753 13.6469 58.7481 14.1986 58.3441 14.6056C57.9402 15.0125 57.3925 15.2414 56.8212 15.2421H55.5017L52.5967 18.1686C52.4582 18.308 52.2818 18.4029 52.0898 18.4414C51.8978 18.4799 51.6988 18.4602 51.5179 18.3848C50.5549 18.0518 51.0016 16.3484 50.9069 15.2421H45.5359C46.975 17.4918 47.944 20.0133 48.384 22.6528C48.8239 25.2922 48.7255 27.9943 48.0948 30.5941L53.2202 40.7856C53.2949 40.9378 53.33 41.1066 53.3223 41.2762C53.3145 41.4458 53.2642 41.6107 53.1761 41.7553C53.0879 41.9 52.9647 42.0198 52.8181 42.1035C52.6714 42.1871 52.5061 42.232 52.3376 42.2337H47.5564V48.2776C47.555 49.466 47.0857 50.6054 46.2516 51.4458C45.4174 52.2862 44.2864 52.7589 43.1066 52.7603H35.9104V59.0028C35.9105 59.1337 35.8849 59.2635 35.8352 59.3845C35.7855 59.5055 35.7126 59.6155 35.6206 59.7081C35.5287 59.8007 35.4195 59.8742 35.2994 59.9242C35.1793 59.9743 35.0505 60.0001 34.9205 60ZM18.7321 58.0055H33.9306V52.7603H30.6283C29.4485 52.7589 28.3175 52.2862 27.4833 51.4458C26.6491 50.6054 26.1799 49.466 26.1785 48.2776V40.3834C26.1834 40.1222 26.2899 39.8734 26.475 39.6904C26.6601 39.5074 26.9091 39.4049 27.1684 39.4049C27.4278 39.4049 27.6767 39.5074 27.8619 39.6904C28.047 39.8734 28.1534 40.1222 28.1583 40.3834V48.2776C28.159 48.9373 28.4195 49.5698 28.8825 50.0363C29.3456 50.5027 29.9734 50.7651 30.6283 50.7658H43.1065C43.7614 50.7651 44.3892 50.5027 44.8523 50.0363C45.3153 49.5698 45.5757 48.9373 45.5764 48.2776V41.2365C45.5764 41.1055 45.6019 40.9758 45.6516 40.8548C45.7014 40.7338 45.7743 40.6238 45.8662 40.5312C45.9581 40.4386 46.0673 40.3651 46.1874 40.3151C46.3076 40.265 46.4363 40.2392 46.5663 40.2393H50.7261L46.1748 31.1901C45.8923 30.0006 46.8801 27.6579 46.6704 25.8913C46.6837 22.044 45.4345 18.3002 43.1171 15.2421H38.2353C37.6641 15.2414 37.1164 15.0125 36.7124 14.6056C36.3085 14.1986 36.0812 13.6469 36.0806 13.0714V9.71541C31.8908 7.92011 27.1749 7.82312 22.916 9.44468V13.0714C22.9153 13.6469 22.688 14.1986 22.2841 14.6056C21.8801 15.0125 21.3324 15.2414 20.7612 15.2421H15.2432C13.7321 17.2703 12.671 19.6017 12.1316 22.0787C11.5922 24.5557 11.587 27.1205 12.1165 29.5997C12.646 32.0789 13.6978 34.4146 15.2008 36.4489C16.7037 38.4832 18.6227 40.1687 20.8281 41.3913C21.0588 41.5177 21.2302 41.7312 21.3046 41.9849C21.3791 42.2386 21.3505 42.5116 21.2252 42.7441C20.6027 43.8183 19.4638 42.9229 18.7321 42.4626V58.0055ZM43.6092 13.2476H51.8967C52.9178 13.275 52.9337 14.2752 52.8867 15.0561C53.3145 14.7225 54.4638 13.1565 55.0916 13.2476H56.8211C56.8666 13.2446 56.9094 13.2251 56.9416 13.1927C56.9738 13.1602 56.9932 13.1171 56.9961 13.0713V2.17088C56.996 2.12415 56.9776 2.07936 56.9448 2.04632C56.912 2.01328 56.8675 1.99468 56.8211 1.9946H38.2353C38.2119 1.99295 38.1885 1.99638 38.1665 2.00465C38.1445 2.01292 38.1246 2.02585 38.108 2.04256C38.0914 2.05927 38.0786 2.07938 38.0703 2.10151C38.0621 2.12365 38.0587 2.1473 38.0604 2.17088V9.05025C38.0441 9.09455 38.0721 13.0256 38.0604 13.0714C38.0602 13.0946 38.0646 13.1176 38.0733 13.1391C38.082 13.1606 38.0949 13.1801 38.1112 13.1965C38.1275 13.2129 38.1469 13.2259 38.1682 13.2346C38.1895 13.2434 38.2124 13.2478 38.2354 13.2476H43.6092ZM2.1753 1.9946C2.12891 1.99468 2.08445 2.01328 2.05166 2.04632C2.01886 2.07936 2.0004 2.12415 2.00032 2.17088V13.0714C2.00325 13.1171 2.02262 13.1603 2.05482 13.1927C2.08703 13.2252 2.12985 13.2447 2.1753 13.2476H3.90472C4.5442 13.1608 5.67269 14.7202 6.10978 15.0561C6.06602 14.2693 6.07414 13.279 7.09968 13.2476C10.4763 13.243 17.4211 13.251 20.7611 13.2476C20.7841 13.2479 20.807 13.2434 20.8283 13.2347C20.8496 13.2259 20.869 13.2129 20.8853 13.1965C20.9016 13.1801 20.9144 13.1606 20.9232 13.1391C20.9319 13.1176 20.9363 13.0946 20.9361 13.0714C20.9262 13.0178 20.9432 8.79681 20.9361 8.74655V2.17092C20.9377 2.14734 20.9343 2.12369 20.9261 2.10155C20.9179 2.07942 20.905 2.05931 20.8885 2.0426C20.8719 2.02589 20.8519 2.01296 20.8299 2.00469C20.808 1.99642 20.7845 1.99299 20.7611 1.99464L2.1753 1.9946ZM40.5941 32.5467H38.1696C38.0396 32.5468 37.9108 32.5211 37.7907 32.471C37.6706 32.4209 37.5614 32.3474 37.4695 32.2548C37.3775 32.1622 37.3046 32.0522 37.2549 31.9312C37.2052 31.8102 37.1796 31.6805 37.1797 31.5495V30.2933L36.1482 30.3098C36.1475 30.903 35.9132 31.4717 35.4967 31.8911C35.0802 32.3105 34.5156 32.5463 33.9267 32.5468H25.0756C24.7826 32.5465 24.4926 32.4879 24.2222 32.3744C23.9518 32.2608 23.7063 32.0946 23.4999 31.8852C23.2934 31.6758 23.1301 31.4273 23.0193 31.1541C22.9084 30.8809 22.8523 30.5884 22.854 30.2933H21.8225V31.5496C21.8226 31.6805 21.797 31.8102 21.7473 31.9313C21.6976 32.0523 21.6247 32.1623 21.5327 32.2549C21.4408 32.3475 21.3317 32.4209 21.2115 32.471C21.0914 32.5211 20.9626 32.5469 20.8326 32.5468H18.4082C18.1489 32.5418 17.9019 32.4346 17.7203 32.2481C17.5387 32.0616 17.4369 31.8108 17.4369 31.5496C17.4369 31.2883 17.5387 31.0375 17.7203 30.851C17.9019 30.6645 18.1489 30.5573 18.4082 30.5523H19.8427V29.296C19.8902 27.8223 21.8949 28.4105 22.854 28.2988V26.8477H20.0245C19.7619 26.8477 19.5101 26.7426 19.3245 26.5556C19.1388 26.3686 19.0345 26.115 19.0345 25.8505C19.0345 25.586 19.1388 25.3323 19.3245 25.1453C19.5101 24.9583 19.7619 24.8532 20.0245 24.8532H22.854V23.4032C21.8959 23.2911 19.8906 23.8802 19.8427 22.4059V21.1486H18.4081C18.1488 21.1436 17.9018 21.0364 17.7202 20.8499C17.5386 20.6634 17.4368 20.4126 17.4368 20.1513C17.4368 19.8901 17.5386 19.6393 17.7202 19.4528C17.9018 19.2663 18.1488 19.1591 18.4081 19.1541H20.8326C20.9626 19.154 21.0914 19.1798 21.2115 19.2299C21.3317 19.2799 21.4408 19.3534 21.5327 19.446C21.6247 19.5386 21.6976 19.6486 21.7473 19.7696C21.797 19.8906 21.8226 20.0204 21.8225 20.1513V21.4086L22.854 21.392C22.8547 20.7987 23.089 20.2299 23.5055 19.8103C23.9219 19.3908 24.4866 19.1548 25.0756 19.1541H33.9267C34.2197 19.1545 34.5098 19.2132 34.7802 19.3268C35.0506 19.4405 35.2961 19.6068 35.5025 19.8163C35.7089 20.0258 35.8722 20.2743 35.983 20.5476C36.0939 20.8208 36.15 21.1134 36.1482 21.4086H37.1797V20.1513C37.1796 20.0204 37.2052 19.8906 37.2549 19.7696C37.3046 19.6486 37.3775 19.5386 37.4695 19.446C37.5614 19.3534 37.6706 19.2799 37.7907 19.2299C37.9108 19.1798 38.0396 19.154 38.1696 19.1541H40.5941C40.8534 19.1591 41.1004 19.2663 41.282 19.4528C41.4637 19.6393 41.5654 19.8901 41.5654 20.1513C41.5654 20.4126 41.4637 20.6634 41.282 20.8499C41.1004 21.0364 40.8534 21.1436 40.5941 21.1486H39.1596V22.4058C39.1121 23.8796 37.1074 23.2914 36.1483 23.4031V24.8532H38.9778C39.2404 24.8532 39.4922 24.9582 39.6778 25.1452C39.8634 25.3323 39.9677 25.5859 39.9677 25.8504C39.9677 26.1149 39.8634 26.3685 39.6778 26.5555C39.4922 26.7426 39.2404 26.8476 38.9778 26.8476H36.1483V28.2988C37.1064 28.4108 39.1116 27.8217 39.1596 29.296V30.5523H40.5942C40.8531 30.5578 41.0996 30.6653 41.2808 30.8517C41.462 31.0381 41.5635 31.2887 41.5635 31.5496C41.5634 31.8105 41.4619 32.061 41.2807 32.2474C41.0995 32.4338 40.853 32.5413 40.5941 32.5467ZM25.0756 21.1486C25.0115 21.1486 24.95 21.1743 24.9047 21.2199C24.8594 21.2656 24.8339 21.3275 24.8339 21.392V30.3097C24.8341 30.3741 24.8597 30.4358 24.905 30.4813C24.9503 30.5268 25.0116 30.5523 25.0756 30.5522H33.9267C33.9907 30.5523 34.052 30.5268 34.0973 30.4813C34.1426 30.4358 34.1682 30.3741 34.1684 30.3097V21.3921C34.1684 21.3275 34.1429 21.2656 34.0976 21.2199C34.0523 21.1743 33.9908 21.1486 33.9267 21.1486L25.0756 21.1486ZM31.394 29.3816H27.6083C27.181 29.3813 26.7712 29.2102 26.4689 28.9058C26.1666 28.6014 25.9965 28.1887 25.9959 27.7581V23.9435C25.9963 23.5128 26.1663 23.0999 26.4686 22.7953C26.7709 22.4908 27.1808 22.3195 27.6083 22.3191H31.394C31.8215 22.3195 32.2314 22.4908 32.5337 22.7953C32.836 23.0999 33.006 23.5128 33.0064 23.9435V27.7583C33.0058 28.1888 32.8357 28.6015 32.5334 28.9059C32.2311 29.2102 31.8213 29.3813 31.394 29.3816ZM27.9757 27.3872H31.0266V24.3137H27.9758L27.9757 27.3872ZM53.4832 11.7362H41.5637C41.3044 11.7312 41.0574 11.624 40.8758 11.4375C40.6942 11.251 40.5924 11.0002 40.5924 10.7389C40.5924 10.4777 40.6942 10.2269 40.8758 10.0404C41.0574 9.85389 41.3044 9.74665 41.5637 9.74169H53.4831C53.7422 9.74691 53.989 9.85426 54.1704 10.0407C54.3518 10.2271 54.4535 10.4778 54.4535 10.7389C54.4535 11 54.3519 11.2507 54.1705 11.4371C53.989 11.6236 53.7423 11.7309 53.4832 11.7362ZM17.4415 11.7362H5.52106C5.26177 11.7312 5.01477 11.624 4.83314 11.4375C4.65151 11.251 4.54976 11.0002 4.54976 10.7389C4.54976 10.4777 4.65151 10.2269 4.83314 10.0404C5.01477 9.85389 5.26177 9.74665 5.52106 9.74169H17.4415C17.7006 9.74692 17.9474 9.85428 18.1288 10.0407C18.3102 10.2272 18.4118 10.4779 18.4118 10.7389C18.4118 11 18.3102 11.2507 18.1288 11.4371C17.9474 11.6236 17.7006 11.731 17.4415 11.7362ZM53.4832 8.61493H41.5637C41.3046 8.60971 41.0578 8.50235 40.8764 8.3159C40.695 8.12945 40.5934 7.87878 40.5934 7.6177C40.5934 7.35661 40.695 7.10594 40.8764 6.91949C41.0578 6.73304 41.3046 6.62568 41.5637 6.62046H53.4831C53.7422 6.62567 53.989 6.73302 54.1704 6.91947C54.3518 7.10591 54.4535 7.35658 54.4535 7.61767C54.4535 7.87875 54.3519 8.12943 54.1705 8.31588C53.989 8.50234 53.7423 8.60971 53.4832 8.61493ZM17.4415 8.61493H5.52106C5.26195 8.60971 5.0152 8.50235 4.83378 8.3159C4.65237 8.12945 4.55076 7.87878 4.55076 7.6177C4.55076 7.35661 4.65237 7.10594 4.83378 6.91949C5.0152 6.73304 5.26195 6.62568 5.52106 6.62046H17.4415C17.7006 6.62568 17.9474 6.73304 18.1288 6.91949C18.3102 7.10594 18.4118 7.35661 18.4118 7.6177C18.4118 7.87878 18.3102 8.12945 18.1288 8.3159C17.9474 8.50235 17.7006 8.60971 17.4415 8.61493ZM53.4832 5.4937H41.5637C41.3046 5.48848 41.0578 5.38112 40.8764 5.19467C40.695 5.00822 40.5934 4.75754 40.5934 4.49646C40.5934 4.23537 40.695 3.9847 40.8764 3.79825C41.0578 3.6118 41.3046 3.50444 41.5637 3.49922H53.4831C53.7422 3.50443 53.989 3.61178 54.1704 3.79823C54.3518 3.98467 54.4535 4.23535 54.4535 4.49643C54.4535 4.75751 54.3519 5.00819 54.1705 5.19464C53.989 5.3811 53.7423 5.48847 53.4832 5.4937ZM17.4415 5.4937H5.52106C5.26195 5.48848 5.0152 5.38112 4.83378 5.19467C4.65237 5.00822 4.55076 4.75754 4.55076 4.49646C4.55076 4.23537 4.65237 3.9847 4.83378 3.79825C5.0152 3.6118 5.26195 3.50444 5.52106 3.49922H17.4415C17.7006 3.50444 17.9474 3.6118 18.1288 3.79825C18.3102 3.9847 18.4118 4.23537 18.4118 4.49646C18.4118 4.75754 18.3102 5.00822 18.1288 5.19467C17.9474 5.38112 17.7006 5.48848 17.4415 5.4937Z" fill="#0CB4C4"></path></svg>