<svg width="69" height="60" viewBox="0 0 69 60" fill="none" xmlns="http://www.w3.org/2000/svg"><path d="M8.95357 26.8607C8.95357 29.3329 6.94899 31.3375 4.47678 31.3375C2.00458 31.3375 0 29.3329 0 26.8607C0 24.3885 2.00458 22.3839 4.47678 22.3839C6.94899 22.3839 8.95357 24.3885 8.95357 26.8607Z" fill="#0CB4C4"></path><path d="M62.4516 9.44646C58.557 7.44648 54.0502 7.92421 50.0805 10.7595C49.6028 11.1026 49.1705 11.5356 48.842 12.0133C44.589 18.2508 46.4844 24.593 50.0505 27.8613C50.4835 28.279 50.7367 28.8013 50.7367 29.3535L50.7373 31.3382H53.7218V29.3535C53.7218 27.9805 53.1103 26.6374 52.0657 25.6676C49.335 23.1607 48.0366 18.49 51.3049 13.6995C51.4395 13.5056 51.618 13.3264 51.8126 13.1918C54.8418 11.0279 58.2146 10.6249 61.0793 12.1026C63.8254 13.5202 65.5414 16.3556 65.5414 19.5039C65.5414 21.8615 64.5414 24.1152 62.8253 25.6815C61.78 26.6375 61.1831 27.9804 61.1831 29.3535V31.3381H64.1677V29.3535C64.1677 28.8165 64.4061 28.2789 64.8392 27.8912C67.1821 25.7574 68.5251 22.6983 68.5251 19.5045C68.5251 15.2363 66.1969 11.3864 62.4516 9.44646Z" fill="#0CB4C4"></path><path d="M50.7373 31.3382L64.1677 31.3381L64.1672 38.7988H50.7369L50.7373 31.3382Z" fill="#0CB4C4"></path><path d="M50.7369 40.2911H64.1672V43.2756H50.7369V40.2911Z" fill="#0CB4C4"></path><path d="M53.7214 44.7678H61.1827V47.7524H53.7214V44.7678Z" fill="#0CB4C4"></path><path d="M20.8917 8.95357H28.353V11.9381H20.8917V8.95357Z" fill="#0CB4C4"></path><path d="M34.322 53.7214H19.3994V2.98452H5.96905V16.4149H2.98452V0H22.3839V50.7369H31.3375V23.8762H43.2756V26.8607H34.322V53.7214Z" fill="#0CB4C4"></path><path d="M40.5998 30.1539L38.4893 28.0434L41.9107 24.622L38.4893 21.2005L40.5998 19.09L46.1319 24.6221L40.5998 30.1539Z" fill="#0CB4C4"></path><path d="M29.5365 11.6294L36.9978 4.16809L39.1083 6.27857L31.647 13.7399L29.5365 11.6294Z" fill="#0CB4C4"></path><path d="M29.5365 6.27774L31.647 4.16726L39.1083 11.6286L36.9978 13.739L29.5365 6.27774Z" fill="#0CB4C4"></path><path d="M2.67583 50.4282L10.1371 42.9669L12.2476 45.0774L4.78631 52.5387L2.67583 50.4282Z" fill="#0CB4C4"></path><path d="M2.67583 45.0765L4.78631 42.9661L12.2476 50.4274L10.1371 52.5378L2.67583 45.0765Z" fill="#0CB4C4"></path><path d="M39.9824 57.8895L47.4437 50.4282L49.5542 52.5387L42.0929 60L39.9824 57.8895Z" fill="#0CB4C4"></path><path d="M39.9824 52.5378L42.0929 50.4274L49.5542 57.8887L47.4437 59.9992L39.9824 52.5378Z" fill="#0CB4C4"></path><path d="M14.9226 46.2601H20.8917V49.2446H14.9226V46.2601Z" fill="#0CB4C4"></path><path d="M38.7988 58.1982H31.3375V52.2292H34.322V55.2137H38.7988V58.1982Z" fill="#0CB4C4"></path></svg>