<svg width="60" height="60" viewBox="0 0 60 60" fill="none" xmlns="http://www.w3.org/2000/svg"><path d="M22.9245 29.4003L26.3334 31.8003L25.0334 35.6785C24.8968 36.0878 25.0387 36.5387 25.3851 36.7968C25.7316 37.0543 26.2043 37.0606 26.5575 36.8124L30.0003 34.3914L33.4413 36.8173C33.7944 37.0655 34.2672 37.0593 34.6136 36.8017C34.9596 36.5441 35.1016 36.0927 34.9654 35.6834L33.6654 31.8052L37.0743 29.4053C37.4301 29.1544 37.5823 28.7012 37.4506 28.2861C37.319 27.8709 36.9337 27.5887 36.4984 27.5883H32.2542L30.9484 23.6883C30.8132 23.2781 30.4301 23.0008 29.9984 23.0008C29.5663 23.0008 29.1833 23.2781 29.0484 23.6883L27.7426 27.5883H23.5003C23.0646 27.5887 22.6793 27.8709 22.5476 28.2861C22.4159 28.7012 22.5686 29.1544 22.9244 29.4053L22.9245 29.4003ZM28.4655 29.5834C28.8958 29.5834 29.2779 29.3084 29.4141 28.9003L30.0003 27.1504L30.5864 28.9013C30.7226 29.3093 31.1047 29.5847 31.5351 29.5843H33.3463L31.9074 30.6004C31.5467 30.8548 31.3954 31.3155 31.5351 31.7343L32.1012 33.4263L30.5761 32.3504C30.2306 32.1071 29.7699 32.1071 29.4244 32.3504L27.9003 33.4254L28.4663 31.7334C28.6061 31.3146 28.4552 30.8539 28.0945 30.5995L26.6556 29.5843L28.4655 29.5834Z" fill="#0CB4C4"></path><path d="M31.3598 59.7692C31.5398 59.9183 31.7661 60 32 60C32.1464 60 32.2915 59.9679 32.4241 59.9049C32.7755 59.7406 32.9996 59.388 33 59V58H51.9998C53.5905 57.9982 55.1159 57.3656 56.2408 56.2411C57.3654 55.1161 57.998 53.5907 57.9998 52.0001V30.7626L59.7677 28.6415C60.0168 28.3433 60.0708 27.9282 59.906 27.5768C59.7413 27.225 59.3882 27.0005 58.9998 27.0005H57.9998V8.00066C57.998 6.41005 57.3654 4.88458 56.2409 3.75967C55.1159 2.63514 53.5905 2.00255 51.9999 2.00072H30.7623L28.6405 0.231592C28.3423 -0.0166226 27.9271 -0.0701878 27.5758 0.0945421C27.2245 0.259718 26.9999 0.612846 27.0004 1.00078V2.00078H8.00054C6.40993 2.00256 4.88446 2.63515 3.75956 3.75973C2.63502 4.88473 2.00243 6.41011 2.0006 8.00072V29.2382L0.232731 31.3592C-0.016375 31.6575 -0.0703859 32.0726 0.094344 32.424C0.259074 32.7757 0.61219 33.0003 1.00059 33.0003H2.00058V52.0001C2.00236 53.5907 2.63495 55.1162 3.75953 56.2411C4.88453 57.3657 6.40991 57.9982 8.00052 58.0001H29.238L31.3598 59.7692ZM55.9996 52.0001C55.9996 53.0608 55.5782 54.0783 54.8282 54.8287C54.0778 55.5787 53.0603 56.0001 51.9997 56.0001H31.9998C31.4972 56.0001 31.0722 56.3733 31.0079 56.872L27.562 54.0001L31.0062 51.1305C31.0718 51.6291 31.4968 52.0014 31.9999 52.0001H45.9998C47.5904 51.9983 49.1159 51.3657 50.2408 50.2411C51.3653 49.1161 51.9979 47.5908 51.9997 46.0001V33.1626L53.2318 34.6415C53.4216 34.8692 53.7028 35.0009 53.9997 35.0009C54.2966 35.0009 54.5778 34.8692 54.7675 34.6415L55.9996 33.1626L55.9996 52.0001ZM10 33.0003H11C11.3884 33.0003 11.7416 32.7758 11.9063 32.424C12.071 32.0726 12.017 31.6575 11.7679 31.3592L10 29.2382V14.0007C10 12.94 10.4214 11.9225 11.1714 11.1721C11.9219 10.4221 12.9393 10.0007 14 10.0007H26.9999V11.0007C26.9994 11.3886 27.224 11.7418 27.5753 11.9069C27.9266 12.0717 28.3418 12.0181 28.64 11.7699L30.7618 10.0008H45.9994C47.0601 10.0008 48.0776 10.4222 48.828 11.1722C49.578 11.9226 49.9994 12.94 49.9994 14.0007V27.0006H48.9994C48.611 27.0006 48.2579 27.2252 48.0931 27.5769C47.9284 27.9283 47.9824 28.3435 48.2315 28.6417L49.9994 30.7627V46.0002C49.9994 47.0609 49.578 48.0784 48.828 48.8288C48.0775 49.5788 47.0601 50.0002 45.9994 50.0002H32.9996V49.0002C33 48.6123 32.7755 48.2591 32.4241 48.094C32.0728 47.9292 31.6576 47.9828 31.3594 48.231L29.2376 50.0001H14C12.9393 50.0001 11.9219 49.5787 11.1715 48.8287C10.4215 48.0783 10 47.0609 10 46.0002V33.0003ZM51.9997 4.00058C53.0604 4.00058 54.0778 4.422 54.8282 5.172C55.5782 5.92243 55.9996 6.93986 55.9996 8.00054V28.0004C55.9996 28.503 56.3728 28.928 56.8715 28.9923L53.9996 32.4382L51.1278 28.9923C51.6264 28.928 51.9996 28.503 51.9996 28.0004V14.0005C51.9979 12.4099 51.3653 10.8844 50.2407 9.75949C49.1157 8.63496 47.5903 8.00237 45.9997 8.00054H33.1621L34.6403 6.76969C34.8688 6.57951 35.001 6.29782 35.001 6.0005C35.001 5.70318 34.8688 5.42149 34.6403 5.23131L33.1621 4.00046L51.9997 4.00058ZM4.0001 8.00054C4.0001 6.93984 4.42153 5.92239 5.17152 5.172C5.92196 4.422 6.93939 4.00058 8.00006 4.00058H27.9999C28.5025 4.00058 28.9275 3.62737 28.9918 3.12871L32.4378 6.00055L28.9936 8.87021C28.9279 8.37155 28.5029 7.99924 27.9998 8.00058H13.9999C12.4093 8.00236 10.8839 8.63495 9.75895 9.75953C8.63441 10.8845 8.00183 12.4099 8 14.0005V26.8381L6.76789 25.3592C6.57816 25.1315 6.29691 24.9998 6.00004 24.9998C5.70316 24.9998 5.42192 25.1315 5.23218 25.3592L4.00008 26.8381L4.0001 8.00054ZM8.00006 56.0001C6.93937 56.0001 5.92191 55.5787 5.17152 54.8287C4.42153 54.0782 4.0001 53.0608 4.0001 52.0001V32.0003C4.0001 31.4976 3.62689 31.0726 3.12824 31.0084L6.0001 27.5632L8.87195 31.0084C8.3733 31.0726 8.00009 31.4976 8.00009 32.0003V46.0002C8.00187 47.5908 8.63446 49.1163 9.75904 50.2412C10.884 51.3657 12.4094 51.9983 14 52.0001H26.8376L25.3595 53.231C25.1309 53.4212 24.9988 53.7028 24.9988 54.0002C24.9988 54.2975 25.1309 54.5792 25.3595 54.7694L26.8376 56.0002L8.00006 56.0001Z" fill="#0CB4C4"></path><path d="M42.1997 25.5078C41.677 24.0842 40.9073 22.7641 39.9265 21.6078L38.3998 22.9006C39.2283 23.8796 39.8792 24.9966 40.3216 26.2006L42.1997 25.5078Z" fill="#0CB4C4"></path><path d="M28.0593 19.1696L27.7062 17.2005C26.2137 17.4665 24.7795 17.9938 23.4696 18.7576L24.4768 20.4857C25.5848 19.8406 26.7973 19.3946 28.0593 19.1696Z" fill="#0CB4C4"></path><path d="M36.5084 41.2551C37.8191 40.4966 38.9873 39.5149 39.9615 38.3551L38.4303 37.0663C37.6058 38.0494 36.616 38.8815 35.5053 39.5244L36.5084 41.2551Z" fill="#0CB4C4"></path><path d="M30.0147 41.0002H29.9995C29.3625 41.0002 28.7268 40.9458 28.0996 40.8364L27.7554 42.8074C28.5 42.9524 29.2576 43.0172 30.0156 43.0002C30.7705 42.9993 31.524 42.9324 32.2673 42.8002L31.9191 40.8311C31.2901 40.9427 30.6531 40.9994 30.0147 41.0002Z" fill="#0CB4C4"></path><path d="M40.3404 33.7637L42.2202 34.4467C42.7407 33.0124 43.0046 31.4976 43.0001 29.9718L42.5582 29.9638L41.0001 30.0008C41.0019 31.2843 40.7783 32.5574 40.3404 33.7637Z" fill="#0CB4C4"></path><path d="M21.5565 22.949L20.0204 21.6659C19.0476 22.8289 18.286 24.153 17.7704 25.5788L19.6512 26.2587C20.0873 25.0524 20.7324 23.9321 21.5565 22.949Z" fill="#0CB4C4"></path><path d="M19.6674 33.782C19.2268 32.5771 19.0009 31.3048 19.0004 30.0218H17.0005C17.0018 31.5379 17.2688 33.0419 17.7893 34.466L19.6674 33.782Z" fill="#0CB4C4"></path><path d="M23.5119 41.2676L24.5119 39.5346C23.3999 38.894 22.4088 38.0641 21.5829 37.082L20.0539 38.3708C21.0293 39.5302 22.1994 40.5105 23.5119 41.2676Z" fill="#0CB4C4"></path><path d="M36.4638 18.7193C35.1495 17.9626 33.7116 17.4443 32.217 17.1881L31.8782 19.1591C33.1416 19.3765 34.3571 19.8144 35.4692 20.4532L36.4638 18.7193Z" fill="#0CB4C4"></path></svg>