<svg width="48" height="60" viewBox="0 0 48 60" fill="none" xmlns="http://www.w3.org/2000/svg"><path d="M33.3202 25.4798L31.6221 25.1128C31.5079 24.7792 31.3731 24.4527 31.2179 24.1359L32.1587 22.6803C32.3881 22.3241 32.3383 21.8558 32.0386 21.5561L29.9447 19.4622C29.6446 19.1629 29.1767 19.1123 28.8201 19.3421L27.3598 20.2804C27.043 20.1251 26.717 19.99 26.383 19.8757L26.0159 18.1777C25.9264 17.7638 25.5602 17.4683 25.1362 17.4687H22.1746C21.7507 17.4683 21.3844 17.7638 21.2949 18.1777L20.9278 19.8757C20.5938 19.99 20.2678 20.1251 19.951 20.2804L18.4953 19.3371C18.1392 19.1077 17.6708 19.1575 17.3708 19.4572L15.2768 21.5511C14.9776 21.8512 14.9274 22.3191 15.1567 22.6757L16.0955 24.1359C15.9402 24.4527 15.805 24.7792 15.6908 25.1128L13.9928 25.4798C13.5788 25.5694 13.2834 25.936 13.2838 26.3596V29.3211C13.2834 29.7451 13.5788 30.1113 13.9928 30.2009L15.6908 30.5679C15.805 30.9019 15.9402 31.2279 16.0955 31.5448L15.1521 33.0004C14.9228 33.357 14.9726 33.8249 15.2722 34.125L17.3661 36.2189C17.6662 36.5182 18.1342 36.5684 18.4907 36.339L19.951 35.4003C20.2678 35.5555 20.5938 35.6907 20.9278 35.805L21.2949 37.503C21.3845 37.9169 21.7507 38.2124 22.1746 38.212H25.1362C25.5602 38.2124 25.9264 37.9169 26.0159 37.503L26.383 35.805C26.717 35.6907 27.043 35.5555 27.3598 35.4003L28.8155 36.3436C29.1717 36.573 29.64 36.5232 29.9401 36.2235L32.034 34.1296C32.3332 33.8295 32.3835 33.3616 32.1541 33.005L31.2153 31.5448C31.3706 31.2279 31.5058 30.9019 31.6201 30.5679L33.3181 30.2009C33.732 30.1113 34.0275 29.7451 34.0271 29.3211V26.3596C34.0279 25.9364 33.7337 25.5702 33.3202 25.4798ZM27.8734 27.8403C27.8734 28.959 27.4289 30.0317 26.6379 30.8227C25.8469 31.6138 24.7742 32.0582 23.6555 32.0582C22.5368 32.0582 21.4641 31.6137 20.673 30.8227C19.882 30.0317 19.4376 28.959 19.4376 27.8403C19.4376 26.7216 19.882 25.6489 20.673 24.8578C21.4641 24.0668 22.5368 23.6224 23.6555 23.6224C24.7739 23.6236 25.846 24.0685 26.6367 24.8591C27.4273 25.6497 27.8721 26.722 27.8734 27.8403Z" fill="#0CB4C4"></path><path d="M41.7181 0H5.59783C4.1141 0.000418524 2.69113 0.589708 1.64144 1.63812C0.591764 2.68696 0.00160715 4.10949 0 5.59322V54.4068C0.00167412 55.8897 0.591378 57.3113 1.63983 58.3602C2.68867 59.4086 4.11046 59.9983 5.59322 60H41.7135C43.1963 59.9983 44.618 59.4086 45.6665 58.3602C46.7154 57.3113 47.3051 55.8895 47.3068 54.4068V5.59322C47.3051 4.11121 46.7158 2.69027 45.6683 1.64144C44.6207 0.593018 43.2001 0.00289288 41.7181 0ZM45.5112 54.4075C45.5099 55.4133 45.1098 56.3772 44.3987 57.0883C43.6876 57.7993 42.7237 58.1995 41.718 58.2007H5.59772C4.59241 58.1995 3.6281 57.7994 2.91698 57.0883C2.2059 56.3772 1.8058 55.4133 1.80451 54.4075V5.59397C1.80577 4.58908 2.20505 3.62563 2.91527 2.91495C3.62552 2.20387 4.5881 1.80333 5.593 1.80087H41.7133C42.7186 1.80213 43.6829 2.20224 44.394 2.91334C45.1051 3.62442 45.5052 4.58832 45.5065 5.59408L45.5112 54.4075Z" fill="#0CB4C4"></path><path d="M40.9542 3.69729H6.35748C5.65185 3.69771 4.97511 3.97854 4.47615 4.47786C3.97726 4.97717 3.69727 5.65429 3.69727 6.35994V53.6403C3.69768 54.3455 3.9781 55.0219 4.47698 55.5208C4.97586 56.0196 5.65224 56.3001 6.35746 56.3005H40.9541C41.6594 56.3001 42.3358 56.0196 42.8346 55.5208C43.3335 55.0219 43.6139 54.3455 43.6143 53.6403V6.35994C43.6143 5.6543 43.3343 4.97714 42.8355 4.47786C42.3366 3.97854 41.6598 3.69772 40.9542 3.69729ZM41.8142 53.6402C41.8138 54.1152 41.4288 54.4998 40.9542 54.5006H6.35748C5.88287 54.4998 5.49783 54.1152 5.49741 53.6402V6.35981C5.49783 5.88478 5.88288 5.50016 6.35748 5.49932H40.9542C41.4288 5.50016 41.8138 5.88479 41.8142 6.35981V53.6402Z" fill="#0CB4C4"></path><path d="M28.293 50.9404H19.0192C18.5224 50.9404 18.1193 51.343 18.1193 51.8402C18.1193 52.3374 18.5224 52.74 19.0192 52.74H28.293C28.7898 52.74 29.1928 52.3374 29.1928 51.8402C29.1928 51.343 28.7898 50.9404 28.293 50.9404Z" fill="#0CB4C4"></path></svg>