<svg width="60" height="60" viewBox="0 0 60 60" fill="none" xmlns="http://www.w3.org/2000/svg"><path d="M48.6207 30C48.6212 25.4478 46.9544 21.0531 43.9355 17.6465C40.9161 14.2397 36.7537 12.0571 32.2343 11.5108C27.7148 10.9644 23.1526 12.0927 19.409 14.6821C15.665 17.271 12.9989 21.1421 11.9155 25.5635C10.8316 29.9846 11.4047 34.6495 13.5263 38.6772C15.6484 42.7043 19.1721 45.8147 23.4315 47.4209C25.529 48.2203 27.7555 48.6272 30.0004 48.6207C32.2439 48.6253 34.4699 48.2221 36.5693 47.4311C40.1037 46.0831 43.147 43.6963 45.2982 40.5846C47.4498 37.4733 48.6078 33.7828 48.6207 30ZM46.5517 28.9655H40.3448C39.7736 28.9655 39.3103 29.4287 39.3103 30V32.0689C39.3103 32.6402 38.8471 33.1034 38.2759 33.1034C37.7046 33.1034 37.2414 32.6402 37.2414 32.0689V30C37.2414 29.7257 37.1324 29.4624 36.9384 29.2685C36.7445 29.0745 36.4812 28.9655 36.2069 28.9655H31.0345V24.8276H32.069C32.8919 24.8276 33.6817 24.5006 34.2635 23.9187C34.8453 23.3368 35.1724 22.547 35.1724 21.7242C35.1724 20.9013 34.8454 20.1115 34.2635 19.5297C33.6816 18.9479 32.8918 18.6208 32.069 18.6208H31.0345V13.5002C35.0615 13.744 38.8605 15.4504 41.7178 18.298C44.5756 21.1461 46.2945 24.9394 46.5517 28.9655ZM28.9655 13.5003V19.6554C28.9655 19.9297 29.0745 20.193 29.2685 20.3869C29.4624 20.5809 29.7257 20.6899 30 20.6899H32.069C32.3433 20.6899 32.6065 20.7989 32.8005 20.9928C32.9945 21.1868 33.1035 21.45 33.1035 21.7244C33.0998 22.0024 32.9838 22.267 32.783 22.4587C32.5973 22.6545 32.3382 22.763 32.069 22.7588H30C29.4287 22.7588 28.9655 23.2221 28.9655 23.7933V28.9657H24.8276V27.9313C24.8276 27.1083 24.5006 26.3185 23.9187 25.7367C23.3368 25.1549 22.5471 24.8279 21.7242 24.8279C20.9013 24.8279 20.1115 25.1548 19.5297 25.7367C18.9479 26.3186 18.6208 27.1084 18.6208 27.9313V28.9657H13.5002C13.756 24.9479 15.4681 21.1614 18.3147 18.3147C21.1614 15.468 24.9476 13.7561 28.9655 13.5003ZM13.4483 31.0345H19.6552C19.9295 31.0345 20.1927 30.9255 20.3867 30.7315C20.5807 30.5375 20.6897 30.2743 20.6897 30V27.931C20.6897 27.3597 21.1529 26.8965 21.7241 26.8965C22.0022 26.9002 22.2668 27.0161 22.4584 27.217C22.6542 27.4027 22.7628 27.6618 22.7586 27.931V30C22.7586 30.2743 22.8676 30.5375 23.0616 30.7315C23.2555 30.9255 23.5188 31.0345 23.7931 31.0345H28.9655V35.1724H27.931C26.8222 35.1724 25.7979 35.764 25.2433 36.7241C24.6891 37.6843 24.6891 38.8674 25.2433 39.8276C25.7979 40.7877 26.8222 41.3793 27.931 41.3793H28.9655V46.5517C27.3191 46.4524 25.6971 46.1033 24.1551 45.5172C21.1672 44.3881 18.568 42.4211 16.669 39.8525C14.7701 37.2838 13.6519 34.2224 13.4483 31.0345ZM35.8451 45.5172C34.3017 46.0987 32.6807 46.4473 31.0347 46.5517V40.3448C31.0347 40.0705 30.9257 39.8072 30.7318 39.6133C30.5378 39.4193 30.2746 39.3103 30.0002 39.3103H27.9313C27.36 39.3103 26.8968 38.8471 26.8968 38.2758C26.8968 37.7046 27.36 37.2414 27.9313 37.2414H30.0002C30.2746 37.2414 30.5378 37.1324 30.7318 36.9384C30.9257 36.7444 31.0347 36.4812 31.0347 36.2069V31.0345H35.1727V32.0689C35.1727 33.1778 35.7643 34.2021 36.7244 34.7567C37.6845 35.3109 38.8677 35.3109 39.8278 34.7567C40.788 34.2021 41.3796 33.1778 41.3796 32.0689V31.0345H46.552C46.346 34.2215 45.227 37.282 43.3279 39.8502C41.4293 42.4184 38.8318 44.3857 35.8451 45.5172Z" fill="#0CB4C4"></path><path d="M14.4828 7.24138C14.4828 5.32067 13.7198 3.47894 12.3617 2.1211C11.0039 0.762917 9.16221 0 7.24138 0C5.32055 0 3.47894 0.762928 2.1211 2.1211C0.762917 3.47882 0 5.32055 0 7.24138C0 9.16221 0.762928 11.0038 2.1211 12.3617C3.47882 13.7198 5.32055 14.4828 7.24138 14.4828C9.16221 14.4828 11.0038 13.7198 12.3617 12.3617C13.7198 11.0039 14.4828 9.16221 14.4828 7.24138ZM7.24138 12.4138C5.86971 12.4138 4.55409 11.8688 3.58368 10.8991C2.61386 9.92879 2.06897 8.61304 2.06897 7.24138C2.06897 5.86971 2.61392 4.55409 3.58368 3.58368C4.55397 2.61386 5.86971 2.06897 7.24138 2.06897C8.61304 2.06897 9.92867 2.61392 10.8991 3.58368C11.8689 4.55397 12.4138 5.86971 12.4138 7.24138C12.4138 8.61304 11.8688 9.92867 10.8991 10.8991C9.92879 11.8689 8.61304 12.4138 7.24138 12.4138Z" fill="#0CB4C4"></path><path d="M52.7586 0C50.8379 0 48.9962 0.762928 47.6383 2.1211C46.2802 3.47882 45.5172 5.32055 45.5172 7.24138C45.5172 9.16221 46.2802 11.0038 47.6383 12.3617C48.9961 13.7198 50.8378 14.4828 52.7586 14.4828C54.6794 14.4828 56.5211 13.7198 57.8789 12.3617C59.2371 11.0039 60 9.16221 60 7.24138C60 5.32055 59.2371 3.47894 57.8789 2.1211C56.5212 0.762917 54.6794 0 52.7586 0ZM52.7586 12.4138C51.387 12.4138 50.0713 11.8688 49.1009 10.8991C48.1311 9.92879 47.5862 8.61304 47.5862 7.24138C47.5862 5.86971 48.1312 4.55409 49.1009 3.58368C50.0712 2.61386 51.387 2.06897 52.7586 2.06897C54.1303 2.06897 55.4459 2.61392 56.4163 3.58368C57.3861 4.55397 57.931 5.86971 57.931 7.24138C57.931 8.61304 57.3861 9.92867 56.4163 10.8991C55.446 11.8689 54.1303 12.4138 52.7586 12.4138Z" fill="#0CB4C4"></path><path d="M52.7586 60C54.6793 60 56.5211 59.2371 57.8789 57.8789C59.2371 56.5212 60 54.6794 60 52.7586C60 50.8378 59.2371 48.9962 57.8789 47.6383C56.5212 46.2802 54.6794 45.5172 52.7586 45.5172C50.8378 45.5172 48.9962 46.2802 47.6383 47.6383C46.2802 48.9961 45.5172 50.8378 45.5172 52.7586C45.5172 54.6794 46.2802 56.5211 47.6383 57.8789C48.9961 59.2371 50.8378 60 52.7586 60ZM52.7586 47.5862C54.1303 47.5862 55.4459 48.1312 56.4163 49.1009C57.3861 50.0712 57.931 51.387 57.931 52.7586C57.931 54.1303 57.3861 55.4459 56.4163 56.4163C55.446 57.3861 54.1303 57.931 52.7586 57.931C51.387 57.931 50.0713 57.3861 49.1009 56.4163C48.1311 55.446 47.5862 54.1303 47.5862 52.7586C47.5862 51.387 48.1312 50.0713 49.1009 49.1009C50.0712 48.1311 51.387 47.5862 52.7586 47.5862Z" fill="#0CB4C4"></path><path d="M7.24138 60C9.16209 60 11.0038 59.2371 12.3617 57.8789C13.7198 56.5212 14.4828 54.6794 14.4828 52.7586C14.4828 50.8378 13.7198 48.9962 12.3617 47.6383C11.0039 46.2802 9.16221 45.5172 7.24138 45.5172C5.32055 45.5172 3.47894 46.2802 2.1211 47.6383C0.762917 48.9961 0 50.8378 0 52.7586C0 54.6794 0.762928 56.5211 2.1211 57.8789C3.47882 59.2371 5.32055 60 7.24138 60ZM7.24138 47.5862C8.61304 47.5862 9.92867 48.1312 10.8991 49.1009C11.8689 50.0712 12.4138 51.387 12.4138 52.7586C12.4138 54.1303 11.8688 55.4459 10.8991 56.4163C9.92879 57.3861 8.61304 57.931 7.24138 57.931C5.86971 57.931 4.55409 57.3861 3.58368 56.4163C2.61386 55.446 2.06897 54.1303 2.06897 52.7586C2.06897 51.387 2.61392 50.0713 3.58368 49.1009C4.55397 48.1311 5.86971 47.5862 7.24138 47.5862Z" fill="#0CB4C4"></path><path d="M16.5517 6.2069H18.6207V8.27586H16.5517V6.2069Z" fill="#0CB4C4"></path><path d="M20.6897 6.2069H22.7586V8.27586H20.6897V6.2069Z" fill="#0CB4C4"></path><path d="M24.8276 6.2069H26.8966V8.27586H24.8276V6.2069Z" fill="#0CB4C4"></path><path d="M28.9655 6.2069H31.0345V8.27586H28.9655V6.2069Z" fill="#0CB4C4"></path><path d="M33.1034 6.2069H35.1724V8.27586H33.1034V6.2069Z" fill="#0CB4C4"></path><path d="M37.2414 6.2069H39.3103V8.27586H37.2414V6.2069Z" fill="#0CB4C4"></path><path d="M41.3793 6.2069H43.4483V8.27586H41.3793V6.2069Z" fill="#0CB4C4"></path><path d="M16.5517 51.7241H18.6207V53.7931H16.5517V51.7241Z" fill="#0CB4C4"></path><path d="M20.6897 51.7241H22.7586V53.7931H20.6897V51.7241Z" fill="#0CB4C4"></path><path d="M24.8276 51.7241H26.8966V53.7931H24.8276V51.7241Z" fill="#0CB4C4"></path><path d="M28.9655 51.7241H31.0345V53.7931H28.9655V51.7241Z" fill="#0CB4C4"></path><path d="M33.1034 51.7241H35.1724V53.7931H33.1034V51.7241Z" fill="#0CB4C4"></path><path d="M37.2414 51.7241H39.3103V53.7931H37.2414V51.7241Z" fill="#0CB4C4"></path><path d="M41.3793 51.7241H43.4483V53.7931H41.3793V51.7241Z" fill="#0CB4C4"></path><path d="M51.7241 16.5517H53.7931V18.6207H51.7241V16.5517Z" fill="#0CB4C4"></path><path d="M51.7241 20.6897H53.7931V22.7586H51.7241V20.6897Z" fill="#0CB4C4"></path><path d="M51.7241 24.8276H53.7931V26.8966H51.7241V24.8276Z" fill="#0CB4C4"></path><path d="M51.7241 28.9655H53.7931V31.0345H51.7241V28.9655Z" fill="#0CB4C4"></path><path d="M51.7241 33.1034H53.7931V35.1724H51.7241V33.1034Z" fill="#0CB4C4"></path><path d="M51.7241 37.2414H53.7931V39.3103H51.7241V37.2414Z" fill="#0CB4C4"></path><path d="M51.7241 41.3793H53.7931V43.4483H51.7241V41.3793Z" fill="#0CB4C4"></path><path d="M6.2069 16.5517H8.27586V18.6207H6.2069V16.5517Z" fill="#0CB4C4"></path><path d="M6.2069 20.6897H8.27586V22.7586H6.2069V20.6897Z" fill="#0CB4C4"></path><path d="M6.2069 24.8276H8.27586V26.8966H6.2069V24.8276Z" fill="#0CB4C4"></path><path d="M6.2069 28.9655H8.27586V31.0345H6.2069V28.9655Z" fill="#0CB4C4"></path><path d="M6.2069 33.1034H8.27586V35.1724H6.2069V33.1034Z" fill="#0CB4C4"></path><path d="M6.2069 37.2414H8.27586V39.3103H6.2069V37.2414Z" fill="#0CB4C4"></path><path d="M6.2069 41.3793H8.27586V43.4483H6.2069V41.3793Z" fill="#0CB4C4"></path></svg>