<svg width="69" height="60" viewBox="0 0 69 60" fill="none" xmlns="http://www.w3.org/2000/svg"><path fill-rule="evenodd" clip-rule="evenodd" d="M48.7574 54.974H18.6226C18.1702 54.9835 17.7395 55.1699 17.4229 55.4932C17.1063 55.8165 16.929 56.251 16.929 56.7035C16.929 57.156 17.1063 57.5905 17.4229 57.9138C17.7395 58.2371 18.1702 58.4235 18.6226 58.433H48.7574C49.2098 58.4235 49.6405 58.2371 49.9571 57.9138C50.2737 57.5905 50.451 57.156 50.451 56.7035C50.451 56.251 50.2737 55.8165 49.9571 55.4932C49.6405 55.1699 49.2098 54.9835 48.7574 54.974ZM6.06484 46.0793C5.86178 46.0729 5.66915 45.9878 5.52775 45.8419C5.38635 45.6961 5.30728 45.5009 5.30728 45.2977C5.30728 45.0945 5.38635 44.8994 5.52775 44.7535C5.66915 44.6076 5.86178 44.5225 6.06484 44.5161H6.28108C6.38577 44.5129 6.49005 44.5307 6.58773 44.5685C6.68541 44.6063 6.7745 44.6633 6.84971 44.7362C6.92492 44.8091 6.98472 44.8964 7.02556 44.9928C7.06639 45.0893 7.08744 45.193 7.08744 45.2977C7.08744 45.4025 7.06639 45.5061 7.02556 45.6026C6.98472 45.699 6.92492 45.7863 6.84971 45.8592C6.7745 45.9321 6.68541 45.9891 6.58773 46.027C6.49005 46.0648 6.38577 46.0826 6.28108 46.0793H6.06484ZM38.4724 53.4139V49.466H28.9069V53.4139H38.4724ZM35.2265 5.13642H32.1528C31.971 5.13642 31.7967 5.20862 31.6682 5.33713C31.5397 5.46564 31.4675 5.63994 31.4675 5.82168V7.45946C31.4675 7.66637 31.3969 7.86709 31.2673 8.02839C31.1377 8.18969 30.9569 8.30192 30.7548 8.34649C29.24 8.68203 27.7943 9.27597 26.4811 10.1023C26.3056 10.2373 26.087 10.3041 25.866 10.2901C25.645 10.2761 25.4366 10.1823 25.2796 10.0261L24.1215 8.86805C23.993 8.73996 23.819 8.66802 23.6376 8.66802C23.4562 8.66802 23.2822 8.73996 23.1537 8.86805L20.9784 11.0411C20.8503 11.1695 20.7784 11.3436 20.7784 11.525C20.7784 11.7064 20.8503 11.8804 20.9784 12.0088L22.1365 13.1669C22.2819 13.3137 22.3732 13.5054 22.3956 13.7107C22.418 13.9161 22.3701 14.1229 22.2599 14.2976C21.4256 15.6061 20.8226 17.0485 20.4774 18.5615C20.4483 18.7807 20.3407 18.9819 20.1745 19.1278C20.0083 19.2737 19.7948 19.3544 19.5736 19.3548H17.9366C17.7549 19.3548 17.5806 19.427 17.4521 19.5555C17.3236 19.6841 17.2514 19.8584 17.2514 20.0401V23.1139C17.2514 23.2956 17.3236 23.4699 17.4521 23.5984C17.5806 23.7269 17.7549 23.7991 17.9366 23.7991H19.5736C19.7805 23.7993 19.9812 23.87 20.1424 23.9995C20.3037 24.1291 20.416 24.3098 20.4607 24.5118C20.796 26.0269 21.39 27.4729 22.2165 28.7863C22.3513 28.9618 22.4179 29.1802 22.4039 29.401C22.3899 29.6218 22.2963 29.8301 22.1403 29.9871L20.9822 31.1452C20.855 31.2747 20.7843 31.4494 20.7858 31.6309C20.7854 31.7206 20.8027 31.8096 20.8368 31.8925C20.8709 31.9755 20.9211 32.0509 20.9845 32.1144L23.1576 34.2882C23.2867 34.415 23.4604 34.4861 23.6414 34.4861C23.8224 34.4861 23.9962 34.415 24.1253 34.2882L25.2834 33.1301C25.4297 32.984 25.6215 32.8922 25.8271 32.8698C26.0326 32.8474 26.2397 32.8957 26.4141 33.0068C27.0655 33.4218 27.7513 33.7805 28.4638 34.0788L28.5095 34.0963C29.2119 34.3881 29.9378 34.6196 30.6794 34.7885C30.8988 34.8176 31.1001 34.9253 31.246 35.0917C31.392 35.2581 31.4725 35.4717 31.4728 35.693V37.33C31.4728 37.5118 31.545 37.6861 31.6735 37.8146C31.802 37.9431 31.9763 38.0153 32.1581 38.0153H35.2265C35.4083 38.0153 35.5826 37.9431 35.7111 37.8146C35.8396 37.6861 35.9118 37.5118 35.9118 37.33V35.6953C35.9119 35.4884 35.9826 35.2878 36.1122 35.1265C36.2418 34.9652 36.4225 34.853 36.6245 34.8083C38.1398 34.4731 39.5859 33.8788 40.899 33.0517C41.0745 32.9166 41.293 32.8499 41.514 32.8639C41.735 32.8779 41.9434 32.9717 42.1005 33.1278L43.2586 34.2859C43.3877 34.4127 43.5615 34.4838 43.7424 34.4838C43.9234 34.4838 44.0972 34.4127 44.2263 34.2859L46.3994 32.1121C46.5274 31.9837 46.5994 31.8097 46.5994 31.6283C46.5994 31.4469 46.5274 31.2728 46.3994 31.1444L45.2413 29.9863C45.0975 29.8388 45.0078 29.6472 44.9867 29.4424C44.9655 29.2376 45.0142 29.0316 45.1248 28.8579C45.9596 27.5497 46.5623 26.1073 46.9064 24.594C46.9357 24.3748 47.0436 24.1737 47.2099 24.0279C47.3763 23.8822 47.5898 23.8017 47.811 23.8014H49.448C49.6298 23.8014 49.8041 23.7292 49.9326 23.6007C50.0611 23.4722 50.1333 23.2979 50.1333 23.1162V20.0393C50.1333 19.8576 50.0611 19.6833 49.9326 19.5548C49.8041 19.4263 49.6298 19.3541 49.448 19.3541H47.811V19.3503C47.6041 19.3503 47.4034 19.2796 47.2421 19.15C47.0808 19.0204 46.9685 18.8397 46.924 18.6376C46.5886 17.1225 45.9947 15.6765 45.1682 14.3631C45.0333 14.1877 44.9667 13.9693 44.9807 13.7484C44.9947 13.5276 45.0884 13.3193 45.2443 13.1624L46.4024 12.0043C46.5292 11.8751 46.6003 11.7014 46.6003 11.5204C46.6003 11.3394 46.5292 11.1657 46.4024 11.0365L44.2286 8.86348C44.1002 8.73562 43.9263 8.66384 43.7451 8.66384C43.5639 8.66384 43.39 8.73562 43.2616 8.86348L42.1035 10.0216C41.9574 10.1677 41.7658 10.2597 41.5604 10.2822C41.3549 10.3048 41.148 10.2566 40.9736 10.1457C39.6651 9.31128 38.2228 8.70834 36.7098 8.36324C36.4894 8.33511 36.2869 8.22769 36.1401 8.06107C35.9932 7.89445 35.912 7.68004 35.9118 7.45793V5.82016C35.9118 5.63842 35.8396 5.46412 35.7111 5.33561C35.5826 5.20709 35.4083 5.1349 35.2265 5.1349V5.13642ZM32.1528 3.30906H35.2265C35.8913 3.31026 36.5286 3.57489 36.9987 4.04498C37.4688 4.51507 37.7334 5.15231 37.7346 5.81711V6.74678C38.9874 7.08646 40.1916 7.58517 41.3178 8.23076L41.9733 7.57519C42.4443 7.10605 43.0819 6.84264 43.7466 6.84264C44.4114 6.84264 45.049 7.10605 45.5199 7.57519L47.6915 9.74671C48.1608 10.2177 48.4244 10.8555 48.4244 11.5204C48.4244 12.1853 48.1608 12.8231 47.6915 13.2941L47.0359 13.9496C47.6805 15.0747 48.1792 16.2772 48.5199 17.5282H49.4457C50.1105 17.5294 50.7478 17.7941 51.2179 18.2642C51.6879 18.7343 51.9526 19.3715 51.9538 20.0363V23.1101C51.9526 23.7749 51.6879 24.4121 51.2179 24.8822C50.7478 25.3523 50.1105 25.6169 49.4457 25.6181H48.5199C48.1792 26.8692 47.6805 28.0717 47.0359 29.1967L47.6915 29.8523C48.1608 30.3233 48.4244 30.9611 48.4244 31.626C48.4244 32.2909 48.1608 32.9287 47.6915 33.3997L45.5184 35.5735C45.0474 36.0428 44.4096 36.3064 43.7447 36.3064C43.0798 36.3064 42.442 36.0428 41.971 35.5735L41.3178 34.9225C40.7528 35.2451 40.1679 35.5315 39.5665 35.7798C38.9689 36.0275 38.356 36.2365 37.7316 36.4057V37.3323C37.7303 37.9966 37.4661 38.6334 36.9967 39.1034C36.5273 39.5734 35.8908 39.8383 35.2265 39.8404H32.1528C31.488 39.8392 30.8507 39.5745 30.3806 39.1044C29.9105 38.6343 29.6459 37.9971 29.6447 37.3323V36.4064C29.0196 36.2369 28.4059 36.0276 27.8074 35.7798C27.7916 35.7737 27.7761 35.7669 27.761 35.7592C27.1789 35.5151 26.6123 35.2354 26.0646 34.9217L25.409 35.5773C24.9381 36.0466 24.3003 36.3102 23.6353 36.3102C22.9704 36.3102 22.3326 36.0466 21.8616 35.5773L19.6886 33.4035C19.2191 32.9334 18.9554 32.2961 18.9554 31.6317C18.9554 30.9673 19.2191 30.33 19.6886 29.8599L20.3442 29.2043C20.0217 28.6411 19.7354 28.058 19.4868 27.4584C19.2389 26.8608 19.0296 26.2479 18.8602 25.6235H17.9343C17.2687 25.6235 16.6303 25.3594 16.1593 24.8891C15.6882 24.4189 15.4229 23.781 15.4217 23.1154V20.0393C15.4229 19.3737 15.6882 18.7358 16.1593 18.2656C16.6303 17.7954 17.2687 17.5313 17.9343 17.5313H18.8602C19.0298 16.9073 19.2389 16.2946 19.4861 15.6971C19.7352 15.0977 20.0218 14.5145 20.3442 13.9512L19.6886 13.2956C19.2192 12.8246 18.9557 12.1868 18.9557 11.5219C18.9557 10.857 19.2192 10.2192 19.6886 9.74823L21.8616 7.57519C22.3326 7.10582 22.9704 6.84226 23.6353 6.84226C24.3003 6.84226 24.9381 7.10582 25.409 7.57519L26.0646 8.23076C27.1892 7.58531 28.3918 7.08659 29.6432 6.74678V5.82016C29.6444 5.15535 29.909 4.51812 30.3791 4.04803C30.8492 3.57794 31.4864 3.31331 32.1512 3.3121L32.1528 3.30906ZM40.0713 15.1938C41.5471 16.6698 42.4655 18.6118 42.67 20.689C42.8745 22.7662 42.3524 24.85 41.1927 26.5854C40.033 28.3208 38.3075 29.6005 36.3101 30.2063C34.3127 30.8121 32.1671 30.7066 30.2388 29.9078C28.3104 29.109 26.7187 27.6663 25.7349 25.8255C24.751 23.9847 24.4358 21.8597 24.8431 19.8126C25.2503 17.7655 26.3547 15.9229 27.9682 14.5988C29.5817 13.2747 31.6043 12.5509 33.6916 12.551C34.8766 12.5494 36.0503 12.7821 37.1452 13.2357C38.2401 13.6892 39.2345 14.3547 40.0713 15.1938ZM33.6916 10.7266C36.2015 10.7263 38.6338 11.5963 40.5742 13.1884C42.5145 14.7805 43.8428 16.9961 44.3327 19.4577C44.8226 21.9194 44.4437 24.4747 43.2607 26.6883C42.0777 28.902 40.1637 30.6369 37.8449 31.5975C35.5261 32.5582 32.946 32.685 30.5441 31.9565C28.1422 31.228 26.0673 29.6892 24.6728 27.6023C23.2783 25.5155 22.6506 23.0096 22.8966 20.5118C23.1426 18.014 24.2471 15.6787 26.0219 13.904C27.028 12.8952 28.2234 12.0951 29.5396 11.5499C30.8559 11.0046 32.2669 10.7248 33.6916 10.7266ZM30.5218 23.2684C30.693 23.4193 30.8016 23.6287 30.8262 23.8555C30.8508 24.0823 30.7897 24.3101 30.6548 24.4941C30.52 24.6782 30.3211 24.8051 30.0974 24.8499C29.8737 24.8947 29.6413 24.8543 29.446 24.7364L26.143 22.3098C25.949 22.1666 25.8195 21.9525 25.7827 21.7142C25.7459 21.4758 25.8048 21.2326 25.9466 21.0375C26.0057 20.9575 26.0772 20.8874 26.1582 20.8297L29.446 18.4153C29.6413 18.2974 29.8737 18.257 30.0974 18.3018C30.3211 18.3466 30.52 18.4735 30.6548 18.6576C30.7897 18.8416 30.8508 19.0694 30.8262 19.2962C30.8016 19.523 30.693 19.7324 30.5218 19.8833L28.2216 21.5766L30.5256 23.2684H30.5218ZM37.9341 24.7364C37.7387 24.8543 37.5063 24.8947 37.2826 24.8499C37.0589 24.8051 36.8601 24.6782 36.7252 24.4941C36.5904 24.3101 36.5292 24.0823 36.5538 23.8555C36.5784 23.6287 36.687 23.4193 36.8582 23.2684L39.1622 21.5766L36.8582 19.884C36.687 19.7332 36.5784 19.5238 36.5538 19.297C36.5292 19.0702 36.5904 18.8423 36.7252 18.6583C36.8601 18.4743 37.0589 18.3474 37.2826 18.3026C37.5063 18.2577 37.7387 18.2982 37.9341 18.416L41.2211 20.8304C41.3025 20.8879 41.3743 20.9581 41.4335 21.0383C41.5753 21.2334 41.6342 21.4766 41.5974 21.7149C41.5606 21.9533 41.4311 22.1674 41.237 22.3106L37.9341 24.7364ZM32.8022 25.9646C32.7077 26.1867 32.5289 26.3622 32.305 26.4524C32.0811 26.5427 31.8305 26.5403 31.6084 26.4458C31.3862 26.3513 31.2107 26.1724 31.1205 25.9485C31.0303 25.7246 31.0326 25.474 31.1272 25.2519L34.5771 17.1864C34.6716 16.9642 34.8504 16.7887 35.0743 16.6985C35.2982 16.6083 35.5488 16.6107 35.7709 16.7052C35.9931 16.7997 36.1686 16.9785 36.2588 17.2024C36.349 17.4263 36.3467 17.6769 36.2521 17.899L32.8022 25.9646ZM59.0051 31.6264C60.2421 32.2284 61.2858 33.1646 62.0182 34.3291C62.7506 35.4936 63.1425 36.8399 63.1494 38.2155C63.1535 39.5825 62.7796 40.924 62.069 42.0918C61.99 42.221 61.9503 42.3704 61.9549 42.5217C61.9595 42.673 62.0082 42.8197 62.0949 42.9438L65.5692 48.5516C65.5897 48.5925 65.6139 48.6315 65.6415 48.6681L66.7486 50.4551L61.8261 53.5052L58.6214 48.333C58.6008 48.2919 58.5766 48.2526 58.549 48.2158L57.1549 45.959C57.0792 45.8362 56.9708 45.7368 56.8418 45.672C56.7129 45.6072 56.5685 45.5795 56.4247 45.592C55.0633 45.7098 53.6958 45.4484 52.4738 44.8367C51.2474 44.2193 50.2177 43.2717 49.5007 42.1007C48.7837 40.9297 48.4078 39.5817 48.4155 38.2087C48.4222 37.2569 48.6125 36.3153 48.9759 35.4357L52.0078 40.3292C52.0741 40.4364 52.1654 40.526 52.2739 40.5902C52.3823 40.6544 52.5048 40.6913 52.6307 40.6977L56.89 40.9193C57.0568 40.9277 57.222 40.8823 57.3612 40.7898C57.5003 40.6973 57.606 40.5625 57.6628 40.4053L59.3379 36.5366C59.3878 36.4218 59.4091 36.2966 59.4001 36.1717C59.3911 36.0468 59.352 35.9259 59.2861 35.8194L56.2405 30.9C57.2013 30.9608 58.141 31.2081 59.0074 31.6279L59.0051 31.6264ZM56.5222 47.9021L56.0722 47.1749C54.5036 47.225 52.9494 46.861 51.5662 46.1194C50.1831 45.3778 49.0197 44.2849 48.1932 42.9507C48.0699 42.7522 47.9554 42.5507 47.8498 42.3461H1.89388V47.9044L56.5222 47.9021ZM67.0493 47.9836L68.4838 50.2975C68.5376 50.3845 68.5737 50.4813 68.59 50.5822C68.6063 50.6832 68.6026 50.7864 68.5791 50.886C68.5556 50.9855 68.5126 51.0795 68.4528 51.1624C68.3929 51.2454 68.3173 51.3158 68.2303 51.3695L61.9868 55.2397C61.8997 55.2935 61.803 55.3295 61.702 55.3459C61.601 55.3622 61.4978 55.3585 61.3982 55.335C61.2987 55.3114 61.2047 55.2685 61.1218 55.2087C61.0388 55.1488 60.9685 55.0732 60.9147 54.9862L57.4945 49.466H40.0371V53.4139H48.7574C49.6308 53.4139 50.4684 53.7608 51.086 54.3784C51.7035 54.996 52.0505 55.8336 52.0505 56.7069C52.0505 57.5803 51.7035 58.4179 51.086 59.0355C50.4684 59.6531 49.6308 60 48.7574 60H18.6226C17.7493 60 16.9117 59.6531 16.2941 59.0355C15.6765 58.4179 15.3296 57.5803 15.3296 56.7069C15.3296 55.8336 15.6765 54.996 16.2941 54.3784C16.9117 53.7608 17.7493 53.4139 18.6226 53.4139H27.343V49.466H1.24745C1.00536 49.4654 0.773417 49.3687 0.602544 49.1972C0.517401 49.1126 0.449772 49.012 0.403524 48.9012C0.357275 48.7904 0.333313 48.6716 0.333008 48.5516V0.914447C0.333826 0.67225 0.430774 0.440287 0.602544 0.269539C0.773292 0.0977692 1.00526 0.000821415 1.24745 2.87103e-06H66.1318C66.3752 -0.000604963 66.6088 0.0953243 66.7816 0.266751C66.9543 0.438178 67.0519 0.671106 67.0531 0.914447V47.9836H67.0493ZM63.7129 42.3492C63.69 42.3949 63.6657 42.4406 63.6413 42.4855L65.4862 45.4626V42.3461L63.7129 42.3492ZM54.7755 29.3795C54.6449 29.3941 54.5201 29.4414 54.4127 29.5172C54.3053 29.5929 54.2188 29.6946 54.1613 29.8127C54.1037 29.9308 54.0769 30.0616 54.0834 30.1928C54.0899 30.3241 54.1294 30.4516 54.1984 30.5634L57.7473 36.2907L56.427 39.3317L53.1134 39.1597L49.5774 33.453C49.516 33.3528 49.4324 33.2682 49.333 33.2055C49.2469 33.1505 49.1507 33.1129 49.05 33.0951C48.9493 33.0772 48.8461 33.0794 48.7463 33.1015C48.6464 33.1235 48.5519 33.1651 48.4681 33.2237C48.3843 33.2823 48.3129 33.3568 48.2579 33.4431C47.3523 34.8651 46.8659 36.5137 46.8547 38.1995C46.8484 39.0734 46.9713 39.9435 47.2194 40.7815H1.89388V1.56392H65.4862V40.7822H64.3403C64.7583 39.3689 64.8199 37.8741 64.5195 36.4312C64.2192 34.9883 63.5664 33.6422 62.6192 32.513C61.672 31.3838 60.46 30.5067 59.0914 29.9599C57.7227 29.4132 56.24 29.2137 54.7755 29.3795Z" fill="#0CB4C4"></path></svg>