<svg width="61" height="60" viewBox="0 0 61 60" fill="none" xmlns="http://www.w3.org/2000/svg"><path d="M2.81641 5.6249C3.39732 5.62406 3.96399 5.44368 4.4382 5.10803C4.91238 4.77197 5.27104 4.29778 5.46482 3.74992H18.2852V8.43731C18.2852 8.95502 18.705 9.37479 19.2227 9.37479C19.7404 9.37479 20.1602 8.95502 20.1602 8.43731V2.81244C20.1602 2.56385 20.0614 2.32529 19.8856 2.14951C19.7099 1.97374 19.4713 1.87497 19.2227 1.87497H5.46482C5.23464 1.22334 4.77217 0.679707 4.1666 0.346929C3.56059 0.0146222 2.8537 -0.0833041 2.18032 0.0719637C1.50735 0.227649 0.914777 0.625665 0.515893 1.18987C0.11746 1.75444 -0.0595688 2.44587 0.0191152 3.13264C0.0977969 3.81901 0.426335 4.45261 0.942366 4.91214C1.4584 5.37209 2.12546 5.62575 2.81641 5.6249ZM2.81641 1.87499C3.19559 1.87499 3.53752 2.1035 3.68232 2.45379C3.82755 2.80409 3.74761 3.20712 3.47934 3.4754C3.21108 3.74368 2.80804 3.8236 2.45774 3.67837C2.10744 3.53356 1.87893 3.19164 1.87893 2.81247C1.87893 2.29476 2.29871 1.87499 2.81641 1.87499Z" fill="#0CB4C4"></path><path d="M40.7837 9.37481C41.0323 9.37481 41.2709 9.27604 41.4467 9.10026C41.6225 8.92449 41.7212 8.68593 41.7212 8.43733V3.74994H54.5417C54.8388 4.59074 55.5172 5.24069 56.3701 5.5019C57.2226 5.76264 58.1489 5.60402 58.8657 5.07375C59.5826 4.54308 60.0058 3.70439 60.0058 2.81256C60.0058 1.92072 59.5827 1.08203 58.8657 0.551359C58.1488 0.0210999 57.2226 -0.137521 56.3701 0.123215C55.5172 0.38437 54.8388 1.03433 54.5417 1.87518H40.7837C40.266 1.87518 39.8463 2.29495 39.8463 2.81265V8.43752C39.8463 8.68612 39.945 8.92468 40.1208 9.10046C40.2966 9.27623 40.5352 9.37481 40.7837 9.37481ZM57.1891 1.87498C57.5683 1.87498 57.9102 2.10349 58.055 2.45379C58.2002 2.80408 58.1203 3.20711 57.852 3.47539C57.5837 3.74367 57.1807 3.8236 56.8304 3.67837C56.4801 3.53356 56.2516 3.19163 56.2516 2.81246C56.2516 2.29476 56.6714 1.87498 57.1891 1.87498Z" fill="#0CB4C4"></path><path d="M57.1902 54.3738C56.6093 54.3746 56.0426 54.555 55.5684 54.8907C55.0942 55.2267 54.7355 55.7009 54.5418 56.2488H41.7213V51.5614C41.7213 51.3128 41.6226 51.0742 41.4468 50.8984C41.271 50.7227 41.0325 50.6239 40.7839 50.6239H33.5887C33.2916 49.7831 32.6132 49.1331 31.7603 48.8719C30.9078 48.6112 29.9815 48.7698 29.2647 49.3001C28.5477 49.8308 28.1246 50.6694 28.1246 51.5613C28.1246 52.4531 28.5477 53.2918 29.2647 53.8225C29.9816 54.3527 30.9078 54.5114 31.7603 54.2506C32.6132 53.9895 33.2916 53.3395 33.5887 52.4987H39.8464V57.1861C39.8464 57.4347 39.9452 57.6732 40.1209 57.849C40.2967 58.0248 40.5353 58.1235 40.7839 58.1235H54.5418C54.7719 58.7752 55.2344 59.3188 55.84 59.6516C56.446 59.9839 57.1529 60.0818 57.8263 59.9265C58.4992 59.7708 59.0918 59.3728 59.4907 58.8086C59.8891 58.2441 60.0661 57.5526 59.9875 56.8659C59.9088 56.1795 59.5802 55.5459 59.0642 55.0864C58.5482 54.6264 57.8811 54.3729 57.1902 54.3738ZM30.9408 52.4988C30.5616 52.4988 30.2197 52.2703 30.0749 51.92C29.9296 51.5697 30.0096 51.1667 30.2778 50.8984C30.5461 50.6301 30.9491 50.5502 31.2994 50.6954C31.6497 50.8403 31.8782 51.1822 31.8782 51.5614C31.8782 51.81 31.7795 52.0485 31.6037 52.2243C31.4279 52.4001 31.1894 52.4988 30.9408 52.4988ZM57.1902 58.1237C56.811 58.1237 56.4691 57.8952 56.3243 57.5449C56.179 57.1946 56.259 56.7916 56.5272 56.5233C56.7955 56.255 57.1985 56.1751 57.5488 56.3203C57.8991 56.4651 58.1276 56.8071 58.1276 57.1862C58.1276 57.4348 58.0289 57.6734 57.8531 57.8492C57.6773 58.0249 57.4388 58.1237 57.1902 58.1237Z" fill="#0CB4C4"></path><path d="M33.2839 38.4367C33.2839 39.1825 33.5802 39.8982 34.1076 40.4254C34.6349 40.9526 35.3506 41.2491 36.0963 41.2491C36.842 41.2491 37.5578 40.9527 38.085 40.4254C38.6123 39.8981 38.9087 39.1824 38.9087 38.4367C38.9087 37.691 38.6124 36.9752 38.085 36.4479C37.5577 35.9207 36.842 35.6243 36.0963 35.6243C35.3506 35.6243 34.6348 35.9206 34.1076 36.4479C33.5803 36.9753 33.2839 37.691 33.2839 38.4367ZM37.0338 38.4367C37.0338 38.8158 36.8053 39.1578 36.455 39.3026C36.1047 39.4478 35.7017 39.3679 35.4334 39.0996C35.1652 38.8313 35.0852 38.4283 35.2304 38.078C35.3753 37.7277 35.7172 37.4992 36.0964 37.4992C36.345 37.4992 36.5835 37.598 36.7593 37.7737C36.9351 37.9495 37.0338 38.1881 37.0338 38.4367Z" fill="#0CB4C4"></path><path d="M46.4092 44.999C46.6578 44.999 46.8963 44.9002 47.0721 44.7244C47.2479 44.5486 47.3466 44.3101 47.3466 44.0615V24.6787C48.0803 24.4192 48.6734 23.8672 48.9851 23.1544C49.2969 22.4413 49.2999 21.631 48.9923 20.9162C48.6851 20.2013 48.0949 19.646 47.363 19.3819C46.631 19.1178 45.8224 19.1685 45.1293 19.5225L41.7217 16.6021V13.1242C41.7217 12.6065 41.3019 12.1867 40.7842 12.1867C40.2665 12.1867 39.8467 12.6065 39.8467 13.1242V14.9992L32.6796 8.82607C32.9529 7.97648 32.8068 7.04776 32.2858 6.32338C31.7651 5.59893 30.9314 5.16455 30.0391 5.15276C29.1469 5.14105 28.3019 5.55371 27.7624 6.26435C27.2229 6.97499 27.0522 7.89952 27.3033 8.75579L9.25227 23.6526C8.85217 23.9828 8.79567 24.5746 9.12546 24.9747C9.45567 25.3744 10.0475 25.4313 10.4476 25.1011L12.1911 23.6572V41.4135C11.3503 41.7107 10.7003 42.3891 10.4391 43.242C10.1784 44.0945 10.337 45.0207 10.8673 45.7376C11.3979 46.4545 12.2366 46.8777 13.1285 46.8777C14.0203 46.8777 14.859 46.4546 15.3896 45.7376C15.9199 45.0207 16.0785 44.0945 15.8178 43.242C15.5566 42.3891 14.9067 41.7106 14.0658 41.4135V22.1111L28.4044 10.2807C28.864 10.5983 29.4072 10.7716 29.9659 10.7791C30.5242 10.7867 31.0724 10.628 31.5403 10.3225L43.84 20.8976C43.5253 21.6129 43.5224 22.4265 43.8317 23.1442C44.1414 23.8616 44.7353 24.4182 45.4715 24.6802V43.1255H24.8469V28.1258H35.1592V33.0618C35.1592 33.5795 35.579 33.9993 36.0967 33.9993C36.6144 33.9993 37.0341 33.5795 37.0341 33.0618V27.1884C37.0341 26.9398 36.9354 26.7012 36.7596 26.5254C36.5838 26.3497 36.3453 26.2509 36.0967 26.2509H23.9095C23.3917 26.2509 22.972 26.6707 22.972 27.1884V43.1255H19.2221C18.7044 43.1255 18.2846 43.5453 18.2846 44.063V56.2502H5.46416C5.16702 55.4094 4.48859 54.7594 3.6357 54.4982C2.78319 54.2375 1.85696 54.3961 1.14008 54.9264C0.423162 55.4571 0 56.2957 0 57.1876C0 58.0794 0.423119 58.9181 1.14008 59.4488C1.857 59.979 2.78319 60.1377 3.6357 59.8769C4.48864 59.6158 5.16706 58.9658 5.46416 58.125H19.2221C19.4707 58.125 19.7092 58.0262 19.885 57.8504C20.0608 57.6746 20.1595 57.4361 20.1595 57.1875V45.0003L46.4092 44.999ZM2.81641 58.1237C2.43723 58.1237 2.0953 57.8952 1.9505 57.5449C1.80527 57.1946 1.88521 56.7915 2.15348 56.5233C2.42175 56.255 2.82478 56.1751 3.17509 56.3203C3.52538 56.4651 3.75389 56.807 3.75389 57.1862C3.75389 57.4348 3.65512 57.6734 3.47934 57.8491C3.30357 58.0249 3.06501 58.1237 2.81641 58.1237ZM47.3461 22.0302C47.3461 22.4094 47.1176 22.7513 46.7673 22.8961C46.417 23.0414 46.014 22.9614 45.7457 22.6931C45.4774 22.4249 45.3975 22.0218 45.5427 21.6715C45.6875 21.3212 46.0295 21.0927 46.4086 21.0927C46.6572 21.0927 46.8958 21.1915 47.0716 21.3673C47.2473 21.5431 47.3461 21.7816 47.3461 22.0302ZM13.1276 44.999C12.7484 44.999 12.4065 44.7705 12.2617 44.4202C12.1165 44.0699 12.1964 43.6668 12.4647 43.3986C12.7329 43.1303 13.136 43.0504 13.4863 43.1956C13.8366 43.3404 14.0651 43.6823 14.0651 44.0615C14.0651 44.3101 13.9663 44.5487 13.7905 44.7244C13.6148 44.9002 13.3762 44.999 13.1276 44.999ZM30.0022 8.90552C29.623 8.90552 29.2811 8.67701 29.1363 8.32671C28.9911 7.97642 29.071 7.57339 29.3393 7.30511C29.6075 7.03683 30.0106 6.9569 30.3609 7.10213C30.7112 7.24694 30.9397 7.58887 30.9397 7.96804C30.9397 8.21664 30.8409 8.4552 30.6651 8.63097C30.4894 8.80675 30.2508 8.90552 30.0022 8.90552Z" fill="#0CB4C4"></path><path d="M1.87893 19.5231V28.1245C1.87893 28.3731 1.9777 28.6116 2.15348 28.7874C2.32926 28.9632 2.56781 29.062 2.81641 29.062H8.44128C8.95898 29.062 9.37876 28.6422 9.37876 28.1245C9.37876 27.6068 8.95898 27.187 8.44128 27.187H3.75389V19.5231C4.5947 19.226 5.24464 18.5476 5.50585 17.6947C5.76659 16.8422 5.60797 15.9159 5.07771 15.1991C4.54703 14.4821 3.70834 14.059 2.81651 14.059C1.92467 14.059 1.08598 14.4821 0.55531 15.1991C0.0250508 15.916 -0.13357 16.8422 0.127167 17.6947C0.388322 18.5476 1.03808 19.226 1.87893 19.5231ZM2.81641 15.9373C3.19559 15.9373 3.53752 16.1658 3.68232 16.5161C3.82755 16.8664 3.74761 17.2694 3.47934 17.5377C3.21108 17.806 2.80804 17.8859 2.45774 17.7407C2.10744 17.5958 1.87893 17.2539 1.87893 16.8747C1.87893 16.357 2.29871 15.9373 2.81641 15.9373Z" fill="#0CB4C4"></path><path d="M2.81641 45.9365C3.70618 45.9336 4.54191 45.51 5.07011 44.7944C5.59828 44.0787 5.7569 43.155 5.49784 42.3042C5.23835 41.4534 4.59175 40.775 3.75391 40.4758V32.8119H8.4413C8.95901 32.8119 9.37878 32.3921 9.37878 31.8744C9.37878 31.3567 8.95901 30.9369 8.4413 30.9369H2.81643C2.29873 30.9369 1.87896 31.3567 1.87896 31.8744V40.4758C1.04109 40.775 0.394525 41.4534 0.135031 42.3042C-0.124035 43.1551 0.0345871 44.0787 0.562757 44.7944C1.09093 45.51 1.92661 45.9336 2.81641 45.9365ZM2.81641 42.1866C3.19559 42.1866 3.53752 42.4151 3.68232 42.7654C3.82755 43.1157 3.74761 43.5187 3.47934 43.787C3.21108 44.0553 2.80804 44.1352 2.45774 43.99C2.10744 43.8452 1.87893 43.5032 1.87893 43.1241C1.87893 42.6064 2.29871 42.1866 2.81641 42.1866Z" fill="#0CB4C4"></path><path d="M57.1902 14.0622C56.3004 14.0652 55.4647 14.4887 54.9365 15.2043C54.4083 15.92 54.2497 16.8437 54.5087 17.6945C54.7682 18.5453 55.4148 19.2237 56.2527 19.523V27.1868H51.5653C51.0476 27.1868 50.6278 27.6066 50.6278 28.1243C50.6278 28.642 51.0476 29.0618 51.5653 29.0618H57.1901C57.4387 29.0618 57.6773 28.963 57.8531 28.7872C58.0288 28.6115 58.1276 28.3729 58.1276 28.1243V19.523C58.9655 19.2237 59.612 18.5453 59.8715 17.6945C60.1306 16.8437 59.972 15.92 59.4438 15.2043C58.9156 14.4887 58.08 14.0651 57.1902 14.0622ZM57.1902 17.8121C56.811 17.8121 56.4691 17.5836 56.3243 17.2333C56.179 16.883 56.259 16.48 56.5272 16.2117C56.7955 15.9435 57.1985 15.8635 57.5488 16.0088C57.8991 16.1536 58.1276 16.4955 58.1276 16.8747C58.1276 17.1233 58.0289 17.3618 57.8531 17.5376C57.6773 17.7134 57.4388 17.8121 57.1902 17.8121Z" fill="#0CB4C4"></path><path d="M58.1276 40.4755V31.8742C58.1276 31.6256 58.0289 31.387 57.8531 31.2112C57.6773 31.0355 57.4388 30.9367 57.1902 30.9367H51.5653C51.0476 30.9367 50.6278 31.3565 50.6278 31.8742C50.6278 32.3919 51.0476 32.8116 51.5653 32.8116H56.2527V40.4755C55.4119 40.7726 54.7619 41.4511 54.5007 42.304C54.24 43.1565 54.3986 44.0827 54.9289 44.7996C55.4595 45.5165 56.2982 45.9397 57.1901 45.9397C58.0819 45.9397 58.9206 45.5165 59.4513 44.7996C59.9815 44.0827 60.1401 43.1565 59.8794 42.304C59.6183 41.451 58.9685 40.7726 58.1276 40.4755ZM57.1902 44.0614C56.811 44.0614 56.4691 43.8329 56.3243 43.4826C56.179 43.1323 56.259 42.7293 56.5272 42.461C56.7955 42.1927 57.1985 42.1128 57.5488 42.258C57.8991 42.4028 58.1276 42.7447 58.1276 43.1239C58.1276 43.3725 58.0289 43.6111 57.8531 43.7868C57.6773 43.9626 57.4388 44.0614 57.1902 44.0614Z" fill="#0CB4C4"></path><path d="M32.3475 22.4995C32.5961 22.4995 32.8347 22.4008 33.0105 22.225C33.1862 22.0492 33.285 21.8107 33.285 21.5621V17.8121C33.285 17.5635 33.1862 17.325 33.0105 17.1492C32.8347 16.9734 32.5961 16.8747 32.3475 16.8747H27.6601C27.1424 16.8747 26.7226 17.2944 26.7226 17.8121V21.5621C26.7226 21.8107 26.8214 22.0492 26.9972 22.225C27.173 22.4008 27.4115 22.4995 27.6601 22.4995H32.3475ZM28.5976 18.7496H31.41V20.6246H28.5976V18.7496Z" fill="#0CB4C4"></path></svg>