<svg width="50" height="60" viewBox="0 0 50 60" fill="none" xmlns="http://www.w3.org/2000/svg"><path d="M9.87329 0C7.43003 0 5.43055 1.98932 5.43055 4.42844V13.2386L3.30729 13.2391C1.49435 13.2391 0 14.7182 0 16.5302V43.4619C0 45.2739 1.49435 46.759 3.30729 46.759H5.43055V55.5716C5.43055 58.0107 7.42956 60 9.87329 60H39.531C41.9743 60 43.9816 58.0102 43.9816 55.5716V46.759H46.097C47.9099 46.759 49.4121 45.274 49.4121 43.4619V16.5302C49.4121 14.7182 47.9099 13.2391 46.097 13.2391H43.9816V4.4289C43.9816 1.98978 41.9743 0.000461776 39.531 0.000461776L9.87329 0ZM9.87329 2.06876H39.531C40.8706 2.06876 41.9128 3.10636 41.9128 4.42844V13.2386L7.49931 13.2391V4.4289C7.49931 3.10679 8.53369 2.06876 9.87329 2.06876ZM20.4799 5.87102C19.9082 5.86871 19.4437 6.33002 19.4413 6.90123C19.44 7.17737 19.5494 7.44197 19.7443 7.63685C19.9391 7.83171 20.2037 7.94116 20.4799 7.93977H28.9327C29.207 7.93885 29.4693 7.82895 29.6628 7.63408C29.8558 7.43922 29.9639 7.176 29.9629 6.90125C29.9606 6.33326 29.5007 5.87333 28.9327 5.87103L20.4799 5.87102ZM3.308 15.3014L46.097 15.3018C46.8058 15.3018 47.3414 15.8347 47.3414 16.5302V22.892H2.07112V16.5302C2.07112 15.8348 2.59918 15.3014 3.308 15.3014ZM6.22507 17.8975C5.90136 17.8961 5.59059 18.0231 5.36109 18.2498C5.13158 18.4761 5.00182 18.7841 5.00044 19.1059C4.99951 19.4287 5.12834 19.739 5.35831 19.9672C5.58781 20.1957 5.89997 20.3232 6.22506 20.3223C6.5483 20.3213 6.85816 20.1925 7.08628 19.9644C7.3144 19.7363 7.44184 19.4274 7.44092 19.106C7.43861 18.4392 6.89509 17.8994 6.22507 17.8975ZM10.8432 17.8975C10.5195 17.8961 10.2088 18.0231 9.97926 18.2498C9.74976 18.4761 9.62 18.7841 9.61907 19.1059C9.61769 19.4287 9.74652 19.739 9.97648 19.9672C10.2064 20.1957 10.5181 20.3232 10.8432 20.3223C11.516 20.319 12.0591 19.7751 12.0573 19.106C12.055 18.4401 11.5129 17.9003 10.8432 17.8975ZM15.4597 17.8975C15.1359 17.8961 14.8252 18.0231 14.5957 18.2498C14.3662 18.4761 14.2364 18.7841 14.235 19.1059C14.2341 19.4287 14.3629 19.739 14.5929 19.9672C14.8224 20.1957 15.1345 20.3232 15.4596 20.3223C15.7829 20.3213 16.0927 20.1925 16.3209 19.9644C16.549 19.7363 16.6764 19.4274 16.6755 19.106C16.6732 18.4392 16.1301 17.8994 15.4597 17.8975ZM2.07183 24.9608H47.3422V43.4626C47.3422 44.158 46.8065 44.691 46.0977 44.691H3.30871C2.59988 44.691 2.07254 44.1581 2.07254 43.4626L2.07183 24.9608ZM7.50013 46.7594H41.9136V55.5719C41.9136 56.8941 40.8714 57.9316 39.5318 57.9316H9.87412C8.53451 57.9316 7.50013 56.894 7.50013 55.5719V46.7594ZM23.2747 51.4708C23.0004 51.4722 22.7377 51.5817 22.5446 51.7765C22.3512 51.9709 22.2436 52.2346 22.2445 52.5089C22.2454 53.0778 22.7058 53.5391 23.2747 53.5414H26.1312C26.406 53.5424 26.6701 53.4343 26.8645 53.2404C27.0594 53.0469 27.1693 52.7837 27.1698 52.5089C27.1707 52.2332 27.0617 51.9686 26.8668 51.7733C26.672 51.5784 26.4074 51.4694 26.1312 51.4704L23.2747 51.4708Z" fill="#0CB4C4"></path><rect x="17.0303" y="28.6406" width="4.5" height="4.5" stroke="#0CB4C4" stroke-width="1.5"></rect><rect x="17.0303" y="36.6406" width="4.5" height="4.5" stroke="#0CB4C4" stroke-width="1.5"></rect><rect x="28.0303" y="28.6406" width="4.5" height="4.5" stroke="#0CB4C4" stroke-width="1.5"></rect><rect x="28.0303" y="36.6406" width="4.5" height="4.5" stroke="#0CB4C4" stroke-width="1.5"></rect></svg>