<svg width="55" height="48" viewBox="0 0 55 48" fill="none" xmlns="http://www.w3.org/2000/svg"><path d="M54.0719 32.3419L52.3319 32.0593C52.095 31.2002 51.7524 30.3739 51.3119 29.5993L52.3427 28.1683C52.4321 28.0438 52.4744 27.8916 52.462 27.7388C52.4495 27.5861 52.3832 27.4427 52.2749 27.3343L49.4939 24.5539C49.3855 24.4455 49.242 24.3792 49.0892 24.3669C48.9364 24.3546 48.7842 24.397 48.6599 24.4867L47.2319 25.5175C46.4574 25.0766 45.6311 24.7339 44.7719 24.4975L44.4893 22.7575C44.4643 22.6065 44.3866 22.4693 44.2699 22.3704C44.1531 22.2715 44.0051 22.2173 43.8521 22.2175H42.5213V7.59729C42.5213 7.42606 42.4532 7.26185 42.3322 7.14078C42.2111 7.0197 42.0469 6.95169 41.8757 6.95169H22.1447C21.4035 5.32268 20.2851 3.89357 18.882 2.78258C17.4789 1.67159 15.8314 0.91065 14.0759 0.562721C12.3204 0.214793 10.5072 0.289872 8.78645 0.78175C7.06569 1.27363 5.48678 2.16816 4.18034 3.39135C2.8739 4.61454 1.87749 6.13123 1.27354 7.81593C0.669591 9.50063 0.475463 11.3049 0.707216 13.0795C0.93897 14.8542 1.58994 16.5481 2.60628 18.0212C3.62262 19.4943 4.97511 20.7042 6.55186 21.5509H3.85186C3.6076 21.5509 3.36573 21.599 3.14006 21.6925C2.9144 21.7859 2.70935 21.923 2.53664 22.0957C2.36392 22.2684 2.22691 22.4734 2.13344 22.6991C2.03997 22.9248 1.99186 23.1666 1.99186 23.4109V24.1909C1.99195 24.6373 2.15349 25.0686 2.44666 25.4053C2.15343 25.7417 1.99188 26.1728 1.99186 26.6191V27.3991C1.99186 27.8924 2.18782 28.3655 2.53664 28.7143C2.70935 28.887 2.9144 29.024 3.14006 29.1175C3.36573 29.211 3.6076 29.2591 3.85186 29.2591H5.50666C5.92836 30.4504 6.67493 31.5 7.66197 32.2892C8.64901 33.0784 9.83715 33.5757 11.0921 33.7249V44.7655C11.0921 44.9367 11.1601 45.1009 11.2811 45.222C11.4022 45.3431 11.5664 45.4111 11.7377 45.4111H34.3577C34.4672 45.4864 34.5974 45.5261 34.7304 45.5246C34.8634 45.5231 34.9926 45.4805 35.1005 45.4027L36.5321 44.3719C37.3067 44.8124 38.133 45.155 38.9921 45.3919L39.2753 47.1319C39.3003 47.2828 39.3781 47.4199 39.4948 47.5188C39.6115 47.6177 39.7595 47.672 39.9125 47.6719H43.8479C44.0007 47.6719 44.1487 47.6177 44.2653 47.5188C44.3819 47.4199 44.4596 47.2827 44.4845 47.1319L44.7677 45.3919C45.6267 45.1549 46.453 44.8123 47.2277 44.3719L48.6587 45.4027C48.7831 45.4922 48.9352 45.5346 49.088 45.5223C49.2408 45.51 49.3842 45.4438 49.4927 45.3355L52.2719 42.5563C52.3802 42.4479 52.4465 42.3045 52.459 42.1517C52.4714 41.999 52.4291 41.8468 52.3397 41.7223L51.3119 40.2907C51.7527 39.5162 52.0953 38.6899 52.3319 37.8307L54.0719 37.5475C54.2228 37.5227 54.3599 37.4451 54.4589 37.3284C54.5578 37.2118 54.612 37.0638 54.6119 36.9109V32.9791C54.6119 32.8261 54.5577 32.6781 54.4588 32.5614C54.3599 32.4447 54.2228 32.3669 54.0719 32.3419ZM1.90246 11.6209C1.90248 9.69025 2.46233 7.80105 3.51419 6.18212C4.56605 4.56319 6.06479 3.284 7.82885 2.49951C9.59291 1.71501 11.5466 1.45888 13.4533 1.76213C15.3599 2.06538 17.1378 2.915 18.5714 4.20807C20.005 5.50115 21.033 7.18219 21.5307 9.04757C22.0283 10.913 21.9745 12.8826 21.3755 14.718C20.7766 16.5534 19.6583 18.1757 18.1561 19.3885C16.6539 20.6012 14.8323 21.3523 12.9119 21.5509H12.5303V17.4277L14.4365 15.5221C14.4804 15.4768 14.5174 15.4252 14.5463 15.3691C15.0414 15.5886 15.5992 15.6221 16.1171 15.4634C16.635 15.3047 17.0782 14.9645 17.3653 14.5052C17.6525 14.0459 17.7642 13.4984 17.6801 12.9633C17.596 12.4282 17.3216 11.9415 16.9073 11.5925C16.4931 11.2435 15.9668 11.0557 15.4252 11.0636C14.8836 11.0715 14.363 11.2746 13.9592 11.6355C13.5553 11.9964 13.2952 12.491 13.2267 13.0283C13.1582 13.5656 13.2858 14.1096 13.5863 14.5603C13.5652 14.5751 13.5451 14.5914 13.5263 14.6089L11.9621 16.1731L10.3985 14.6095C10.3679 14.5784 10.3341 14.5507 10.2977 14.5267C10.5555 14.0496 10.6327 13.4956 10.5151 12.9662C10.3975 12.4369 10.0929 11.9677 9.65731 11.6447C9.22169 11.3218 8.68423 11.1667 8.14353 11.208C7.60283 11.2493 7.09515 11.4842 6.71363 11.8695C6.33211 12.2549 6.10235 12.7649 6.06649 13.306C6.03063 13.8471 6.19107 14.383 6.51839 14.8153C6.84572 15.2477 7.31796 15.5475 7.84848 15.6598C8.379 15.7721 8.93223 15.6893 9.40666 15.4267C9.43015 15.4612 9.45665 15.4935 9.48586 15.5233L11.0963 17.1337V21.5509H10.8605C8.40458 21.2942 6.13058 20.1377 4.4766 18.3043C2.82261 16.4708 1.90568 14.0901 1.90246 11.6209ZM14.4959 13.3141C14.4959 13.1249 14.5519 12.94 14.657 12.7827C14.7621 12.6255 14.9115 12.5029 15.0863 12.4305C15.261 12.3581 15.4533 12.3392 15.6388 12.3761C15.8244 12.413 15.9948 12.5041 16.1285 12.6378C16.2623 12.7716 16.3534 12.942 16.3903 13.1275C16.4272 13.313 16.4082 13.5053 16.3359 13.6801C16.2635 13.8548 16.1409 14.0042 15.9836 14.1093C15.8263 14.2144 15.6414 14.2705 15.4523 14.2705C15.1989 14.2695 14.9562 14.1685 14.777 13.9893C14.5979 13.8102 14.4968 13.5674 14.4959 13.3141ZM9.27586 13.4599C9.27586 13.6489 9.2198 13.8337 9.11478 13.9909C9.00975 14.1481 8.86048 14.2706 8.68583 14.3429C8.51118 14.4153 8.319 14.4342 8.13359 14.3973C7.94818 14.3604 7.77787 14.2694 7.6442 14.1357C7.51053 14.0021 7.4195 13.8318 7.38262 13.6464C7.34574 13.4609 7.36467 13.2688 7.43701 13.0941C7.50935 12.9195 7.63186 12.7702 7.78904 12.6652C7.94622 12.5601 8.13102 12.5041 8.32006 12.5041C8.57314 12.5049 8.81561 12.6059 8.9944 12.785C9.17319 12.9641 9.27374 13.2068 9.27406 13.4599H9.27586ZM3.28606 23.4109C3.28621 23.2604 3.34607 23.1161 3.45248 23.0097C3.55889 22.9033 3.70317 22.8434 3.85366 22.8433H10.7993C11.0993 22.8727 11.4071 22.8895 11.7155 22.8937H11.7395H11.7539H11.8853C12.2513 22.8937 12.6137 22.8751 12.9713 22.8409H19.9163C20.0668 22.841 20.2111 22.9009 20.3176 23.0073C20.4242 23.1137 20.4841 23.2579 20.4845 23.4085V24.1885C20.4841 24.339 20.4242 24.4833 20.3176 24.5897C20.2111 24.6961 20.0668 24.7559 19.9163 24.7561H3.85186C3.70137 24.7559 3.55709 24.6961 3.45068 24.5897C3.34427 24.4833 3.28442 24.339 3.28426 24.1885L3.28606 23.4109ZM3.28606 27.3931V26.6131C3.28621 26.4626 3.34607 26.3183 3.45248 26.2119C3.55889 26.1055 3.70317 26.0456 3.85366 26.0455H19.9163C20.0668 26.0456 20.2111 26.1055 20.3176 26.2119C20.4242 26.3183 20.4841 26.4625 20.4845 26.6131V27.3931C20.4841 27.5436 20.4242 27.6879 20.3176 27.7943C20.2111 27.9007 20.0668 27.9605 19.9163 27.9607H3.85186C3.70137 27.9601 3.55728 27.8997 3.4512 27.793C3.34513 27.6862 3.28574 27.5418 3.28606 27.3913V27.3931ZM6.89746 29.2531H16.8719C16.439 30.2134 15.7381 31.0283 14.8534 31.5999C13.9686 32.1716 12.9377 32.4757 11.8844 32.4757C10.831 32.4757 9.80007 32.1716 8.91534 31.5999C8.03061 31.0283 7.33033 30.2134 6.89746 29.2531ZM12.3851 33.7471C13.6947 33.6482 14.9475 33.1708 15.9908 32.3729C17.0341 31.5751 17.823 30.4911 18.2615 29.2531H19.9163C20.1605 29.2531 20.4024 29.205 20.628 29.1115C20.8537 29.018 21.0588 28.881 21.2315 28.7083C21.4042 28.5356 21.5412 28.3305 21.6347 28.1049C21.7281 27.8792 21.7763 27.6373 21.7763 27.3931V26.6131C21.7762 26.1668 21.6147 25.7357 21.3215 25.3993C21.6146 25.0626 21.7762 24.6313 21.7763 24.1849V23.4109C21.7763 23.1666 21.7281 22.9248 21.6347 22.6991C21.5412 22.4734 21.4042 22.2684 21.2315 22.0957C21.0588 21.923 20.8537 21.7859 20.628 21.6925C20.4024 21.599 20.1605 21.5509 19.9163 21.5509H17.2163C19.5272 20.31 21.3332 18.3021 22.3231 15.873C23.313 13.4439 23.425 10.7456 22.6397 8.24289H41.2319V22.2151H39.9173C39.7643 22.2149 39.6162 22.2691 39.4994 22.368C39.3827 22.4669 39.305 22.6041 39.2801 22.7551L38.9969 24.4951C38.1377 24.7316 37.3113 25.0743 36.5369 25.5151L35.1053 24.4843C34.9811 24.3945 34.8289 24.3519 34.6762 24.3642C34.5234 24.3765 34.38 24.4429 34.2719 24.5515L31.4921 27.3307C31.3838 27.4392 31.3176 27.5826 31.3053 27.7353C31.2929 27.8881 31.3353 28.0403 31.4249 28.1647L32.4563 29.5963C32.0155 30.3708 31.6729 31.1971 31.4363 32.0563L29.6963 32.3389C29.5454 32.364 29.4083 32.4418 29.3095 32.5585C29.2106 32.6752 29.1563 32.8232 29.1563 32.9761V36.9109C29.1562 37.0639 29.2104 37.2119 29.3093 37.3286C29.4082 37.4453 29.5453 37.5231 29.6963 37.5481L31.4363 37.8313C31.6731 38.6903 32.0157 39.5167 32.4563 40.2913L31.4255 41.7223C31.3359 41.8467 31.2935 41.9989 31.3059 42.1516C31.3182 42.3044 31.3844 42.4478 31.4927 42.5563L33.0569 44.1199H12.3851V33.7471ZM53.3213 36.3649L51.7049 36.6277C51.5785 36.6482 51.4612 36.7058 51.3677 36.7932C51.2742 36.8806 51.2088 36.9938 51.1799 37.1185C50.9437 38.132 50.5423 39.0997 49.9919 39.9829C49.9239 40.0917 49.8898 40.2183 49.8941 40.3465C49.8984 40.4748 49.9408 40.5988 50.0159 40.7029L50.9759 42.0325L48.9719 44.0347L47.6429 43.0747C47.5389 42.9994 47.4148 42.957 47.2865 42.9527C47.1582 42.9484 47.0316 42.9825 46.9229 43.0507C46.038 43.6033 45.0679 44.0059 44.0519 44.2423C43.9272 44.2713 43.814 44.3367 43.7266 44.4302C43.6393 44.5237 43.5816 44.641 43.5611 44.7673L43.2983 46.3831H40.4657L40.2029 44.7673C40.1823 44.641 40.1246 44.5237 40.0373 44.4302C39.9499 44.3367 39.8367 44.2713 39.7121 44.2423C38.697 44.0063 37.7278 43.6045 36.8435 43.0531C36.7347 42.9849 36.6081 42.9508 36.4798 42.9551C36.3515 42.9593 36.2274 43.0018 36.1235 43.0771L34.7939 44.0371L32.7905 42.0337L33.7505 40.7047C33.8256 40.6006 33.8679 40.4766 33.8722 40.3483C33.8765 40.2201 33.8425 40.0935 33.7745 39.9847C33.2231 39.1004 32.8213 38.1312 32.5853 37.1161C32.5562 36.9915 32.4908 36.8783 32.3974 36.7909C32.3039 36.7035 32.1866 36.6459 32.0603 36.6253L30.4445 36.3625V33.5281L32.0609 33.2653C32.1872 33.2447 32.3045 33.1871 32.398 33.0997C32.4914 33.0123 32.5568 32.8991 32.5859 32.7745C32.8217 31.7594 33.2235 30.7902 33.7751 29.9059C33.8432 29.7971 33.8773 29.6705 33.8731 29.5422C33.8688 29.4139 33.8263 29.2899 33.7511 29.1859L32.7911 27.8563L34.7945 25.8529L36.1241 26.8129C36.2281 26.888 36.3522 26.9304 36.4804 26.9347C36.6086 26.9389 36.7352 26.9049 36.8441 26.8369C37.7284 26.2853 38.6976 25.8833 39.7127 25.6471C39.8374 25.6182 39.9506 25.5529 40.038 25.4594C40.1255 25.3659 40.183 25.2484 40.2035 25.1221L40.4663 23.5063H43.2995L43.5623 25.1221C43.5827 25.2484 43.6403 25.3659 43.7277 25.4594C43.8151 25.5529 43.9284 25.6182 44.0531 25.6471C45.0681 25.8834 46.0373 26.2854 46.9217 26.8369C47.0305 26.9049 47.1571 26.9389 47.2853 26.9347C47.4136 26.9304 47.5376 26.888 47.6417 26.8129L48.9707 25.8529L50.9741 27.8563L50.0141 29.1853C49.9393 29.2895 49.897 29.4135 49.8928 29.5416C49.8885 29.6698 49.9224 29.7964 49.9901 29.9053C50.5417 30.7895 50.9437 31.7588 51.1799 32.7739C51.2087 32.8986 51.2741 33.0119 51.3676 33.0993C51.4611 33.1867 51.5785 33.2443 51.7049 33.2647L53.3207 33.5275L53.3213 36.3649ZM41.8823 27.7849C40.466 27.7849 39.0816 28.2049 37.9041 28.9917C36.7266 29.7785 35.8088 30.8968 35.2669 32.2053C34.7249 33.5137 34.5831 34.9534 34.8595 36.3424C35.1358 37.7314 35.8178 39.0073 36.8193 40.0087C37.8208 41.01 39.0967 41.692 40.4857 41.9682C41.8747 42.2444 43.3145 42.1025 44.6228 41.5605C45.9312 41.0184 47.0495 40.1006 47.8362 38.923C48.6229 37.7454 49.0428 36.3609 49.0427 34.9447C49.0406 33.0463 48.2855 31.2262 46.9431 29.8838C45.6008 28.5414 43.7807 27.787 41.8823 27.7849ZM41.8823 40.8145C40.7215 40.8144 39.5868 40.47 38.6217 39.8251C37.6566 39.1801 36.9044 38.2634 36.4602 37.1909C36.0161 36.1184 35.9 34.9384 36.1265 33.7999C36.353 32.6614 36.9121 31.6157 37.7329 30.7949C38.5538 29.9742 39.5996 29.4152 40.738 29.1888C41.8765 28.9624 43.0566 29.0787 44.129 29.5229C45.2015 29.9672 46.1181 30.7194 46.763 31.6846C47.4078 32.6498 47.7521 33.7845 47.7521 34.9453C47.7501 36.5014 47.1311 37.9931 46.0307 39.0933C44.9302 40.1935 43.4383 40.8129 41.8823 40.8145Z" fill="#0CB4C4"></path></svg>