<svg width="47" height="60" viewBox="0 0 47 60" fill="none" xmlns="http://www.w3.org/2000/svg">
<path d="M17.9692 16.5604H20.6386V19.2122C20.6386 19.6886 21.0257 20.0732 21.5053 20.0732H25.648C26.1276 20.0732 26.5147 19.6886 26.5147 19.2122V16.5604H29.1841C29.6636 16.5604 30.0508 16.1758 30.0508 15.6994V11.5838C30.0508 11.1074 29.6636 10.7228 29.1841 10.7228H26.5147V8.07096C26.5147 7.59455 26.1276 7.20996 25.648 7.20996H21.5053C21.0257 7.20996 20.6386 7.59454 20.6386 8.07096V10.7228H17.9692C17.4897 10.7228 17.1025 11.1074 17.1025 11.5838V15.6994C17.1025 16.1758 17.4897 16.5604 17.9692 16.5604ZM18.8359 12.4448H21.5053C21.9848 12.4448 22.372 12.0603 22.372 11.5838V8.93197H24.7813V11.5838C24.7813 12.0602 25.1684 12.4448 25.648 12.4448H28.3174V14.8384H25.648C25.1684 14.8384 24.7813 15.2229 24.7813 15.6994V18.3512H22.372V15.6994C22.372 15.2229 21.9849 14.8384 21.5053 14.8384H18.8359V12.4448Z" fill="#0CB4C4"/>
<path d="M10.0994 17.7683C11.8559 19.5792 15.3341 22.8108 20.4503 27.3768C21.3517 28.1804 22.1895 28.9208 22.9059 29.558C23.0965 29.7273 23.3392 29.8105 23.579 29.8105C23.8188 29.8105 24.0585 29.7244 24.2521 29.5551C24.9685 28.918 25.8064 28.1775 26.7048 27.3739C31.8182 22.8078 35.2992 19.5764 37.0556 17.7654C39.0952 15.9917 40.3201 13.5379 40.5108 10.8516C40.7015 8.15099 39.8232 5.53646 38.035 3.48986C36.0936 1.26855 33.2856 0 30.3273 0H30.3042C27.8226 0 25.4248 0.912654 23.5788 2.53129C19.7018 -0.866735 13.7678 -0.866735 9.89395 2.69488C5.76285 6.49471 5.51147 12.9235 9.33351 17.0276C9.57617 17.2859 9.83329 17.5355 10.102 17.768L10.0994 17.7683ZM11.2665 4.16734C12.8381 2.72085 14.8314 2.00914 16.8248 2.00914C19.0261 2.00914 21.2274 2.88734 22.8366 4.61507C23.0272 4.82171 23.2988 4.93651 23.579 4.93651C23.8621 4.93651 24.1279 4.81884 24.3215 4.61507C25.8612 2.95912 28.0423 2.012 30.3131 2.012H30.3246H30.3477C32.7109 2.01774 34.9556 3.03942 36.5069 4.81308C37.9398 6.45471 38.6446 8.54973 38.4915 10.7166C38.3385 12.8835 37.3446 14.8608 35.6951 16.2843C35.672 16.3044 35.6489 16.3245 35.6287 16.3474C33.9416 18.0924 30.3882 21.3899 25.3555 25.8869C24.7257 26.4494 24.1276 26.9775 23.5817 27.4653C23.0328 26.9803 22.4377 26.4494 21.8079 25.8869C16.7726 21.3925 13.2224 18.0924 11.5347 16.3474C11.5116 16.3245 11.4914 16.3044 11.4683 16.2843C11.2429 16.0891 11.0263 15.8825 10.824 15.6673C7.75894 12.3754 7.96113 7.21811 11.2747 4.17569L11.2665 4.16734Z" fill="#0CB4C4"/>
<path d="M46.9969 28.7777C46.8641 27.2308 45.8529 25.727 44.4027 24.9664C43.4119 24.4441 42.3285 24.3006 41.352 24.5589C41.2885 24.5761 41.222 24.5933 41.1556 24.6163C40.442 24.8402 39.7632 25.2649 39.0987 25.8963C39.041 25.948 38.989 26.0054 38.9341 26.0599C38.9283 26.0656 38.9254 26.0685 38.9196 26.0742C38.9052 26.0886 38.8907 26.1029 38.8792 26.1202C38.7145 26.2924 38.5498 26.476 38.3823 26.6741L31.6569 34.5722C31.4315 33.9236 31.0618 33.3324 30.562 32.8358C29.6953 31.9806 28.5484 31.5099 27.3235 31.5099H27.3119C25.9946 31.5157 19.0962 31.5128 15.1003 31.5099H15.0974C13.081 31.5099 11.1628 32.4714 9.96098 34.0814C9.88009 34.1905 9.80209 34.3024 9.72697 34.42L9.71542 34.4373C9.67786 34.4947 9.64031 34.5549 9.61142 34.6009C9.57676 34.6525 9.54787 34.7099 9.5132 34.7673C9.50453 34.7817 9.49587 34.796 9.49009 34.8104C9.42653 34.9223 9.36297 35.04 9.30231 35.1605C9.29653 35.1691 9.29653 35.1777 9.29075 35.1835C9.26475 35.2351 9.23875 35.2868 9.21853 35.3327C9.21275 35.3442 9.20697 35.3556 9.2012 35.3671C9.17231 35.4274 9.14342 35.4877 9.1203 35.5508C9.08564 35.6254 9.05675 35.6972 9.02786 35.7661L9.0163 35.7919C8.99897 35.8378 8.97875 35.8895 8.96141 35.9354C8.95564 35.9469 8.95275 35.9583 8.94986 35.9698V35.9727V35.9784C8.92675 36.0416 8.90364 36.1047 8.88341 36.1678V36.1736C8.8603 36.2425 8.83719 36.3085 8.81697 36.3745C8.81408 36.3831 8.81119 36.3917 8.81119 36.4003L8.78808 36.4749C8.77653 36.5122 8.76497 36.5495 8.75341 36.5897C8.71297 36.7332 8.67541 36.8825 8.64363 37.0317C8.63208 37.0805 8.6263 37.1293 8.61474 37.1809C8.59452 37.2814 8.5743 37.3818 8.55697 37.4851C8.54541 37.5425 8.53963 37.5999 8.53097 37.6602C8.51941 37.752 8.50497 37.8439 8.49341 37.9357C8.48763 37.9989 8.48185 38.0563 8.47608 38.1194C8.4703 38.1768 8.46452 38.2342 8.45874 38.2916L5.84137 44.8121C5.46292 44.6227 4.98629 44.683 4.67138 44.9987L0.29467 49.3467C0.104004 49.5361 0 49.7887 0 50.0584C0 50.3253 0.106888 50.5808 0.29467 50.7702L9.29067 59.7072C9.48712 59.9023 9.74712 59.9999 10.0071 59.9999C10.2642 59.9999 10.5242 59.9023 10.7236 59.7072L15.1003 55.3592C15.291 55.1697 15.395 54.9172 15.395 54.6474C15.395 54.3805 15.2881 54.1251 15.1003 53.9357L14.3896 53.2297C15.0685 52.2941 15.4412 51.1633 15.4412 49.9981C15.4412 46.956 12.9481 44.4763 9.88296 44.4763C9.24162 44.4763 8.6118 44.5854 8.01964 44.7978L10.3943 38.8799C10.3943 38.8799 10.3943 38.8742 10.3972 38.8685C10.4145 38.8225 10.4318 38.7737 10.4405 38.725C10.4405 38.7192 10.4434 38.7106 10.4463 38.702C10.4578 38.6503 10.4636 38.6015 10.4665 38.547C10.4665 38.5298 10.4694 38.5183 10.4694 38.5011C10.6716 38.8685 10.9258 39.21 11.232 39.5142C12.064 40.3407 13.1676 40.7942 14.3462 40.7942C15.5249 40.7942 16.6285 40.3407 17.4605 39.5142C18.2925 38.6876 18.7489 37.5913 18.7489 36.4204C18.7489 35.3413 18.356 34.3196 17.6396 33.5189H27.3175C28.005 33.516 28.6493 33.7801 29.1346 34.2593C29.617 34.7358 29.8799 35.3729 29.8799 36.0502C29.8799 36.3573 29.825 36.6557 29.7181 36.9398C29.591 37.2756 29.3888 37.5885 29.1317 37.8439C28.6521 38.3232 28.0108 38.5872 27.3261 38.5901L20.9243 38.5958C20.3639 38.5958 19.9132 39.0464 19.9132 39.6003C19.9132 40.1542 20.3668 40.6048 20.9243 40.6048L27.3261 40.5991C28.551 40.5991 29.6979 40.1226 30.5617 39.2674C30.9777 38.8541 31.3128 38.3547 31.541 37.8209L34.6408 34.179C34.4877 35.2523 34.8257 36.3831 35.6548 37.2039C36.3337 37.8783 37.235 38.2486 38.1941 38.2486C38.5408 38.2486 38.8788 38.1998 39.2053 38.1051C39.0088 38.3921 38.8124 38.6791 38.6159 38.9661L38.0006 39.8644C37.5817 40.4728 37.1628 41.0842 36.7468 41.6926L36.3222 42.3125C36.2413 42.4273 36.1633 42.545 36.0853 42.6598C35.8599 42.0198 35.493 41.4343 34.9961 40.9407C34.1294 40.0797 32.9767 39.6033 31.749 39.6033C30.5212 39.6033 29.3685 40.0797 28.5019 40.9407C27.6352 41.8017 27.1557 42.9468 27.1557 44.1665C27.1557 45.2628 27.5428 46.3017 28.2535 47.1225L16.7038 47.1254C16.1433 47.1254 15.6926 47.576 15.6926 48.1299C15.6926 48.6867 16.1462 49.1344 16.7038 49.1344L30.9462 49.1315C32.1884 49.1258 33.3151 48.7929 34.28 48.1385C34.4822 48.0007 34.6816 47.8486 34.8751 47.6793C34.9156 47.6448 34.956 47.6104 34.9964 47.5702C35.0716 47.5013 35.1467 47.4267 35.2218 47.3521L35.2305 47.3435C35.3547 47.2172 35.476 47.0852 35.5945 46.9474C35.9498 46.5284 36.2762 46.0491 36.5651 45.5154L37.0562 44.7979C37.3654 44.3444 37.6745 43.8938 37.9836 43.4432L38.4111 42.8233C38.8271 42.2149 39.246 41.6065 39.6649 40.998L40.2802 40.0968C40.8869 39.2071 41.4936 38.3231 42.1031 37.4364L42.3458 37.0805C42.678 36.5983 43.0102 36.1133 43.3396 35.6283C43.6574 35.1633 43.9752 34.6984 44.293 34.2364C44.6541 33.7083 45.0181 33.1802 45.3792 32.6492L45.8761 31.926C45.9975 31.7509 46.113 31.5759 46.2372 31.3979C46.5983 30.8699 47.0086 30.1294 46.9999 29.0905C46.9999 28.9872 46.9941 28.8839 46.9854 28.7805L46.9969 28.7777ZM13.7079 49.9924C13.7079 50.8879 13.4017 51.7316 12.8354 52.4089C12.6736 52.4549 12.5234 52.541 12.3963 52.6644C12.0034 53.0547 12.0034 53.6918 12.3963 54.085L12.9539 54.6389L10.0072 57.5663L2.43852 50.0473L5.38522 47.1199L9.74744 51.4535C10.1403 51.8438 10.7816 51.8438 11.1775 51.4535C11.5732 51.0603 11.5703 50.4261 11.1775 50.0329L7.87835 46.7554C8.47635 46.3909 9.16681 46.1929 9.88322 46.1929C11.9922 46.1929 13.7079 47.8973 13.7079 49.9924ZM12.4599 38.2973C11.9572 37.798 11.6799 37.1293 11.6799 36.4204C11.6799 35.7115 11.9572 35.0457 12.4628 34.5434C12.9654 34.0441 13.6385 33.7685 14.3521 33.7685C15.0657 33.7685 15.7359 34.044 16.2415 34.5434C16.7441 35.0428 17.0215 35.7115 17.0215 36.4204C17.0215 36.7935 16.9406 37.1551 16.7961 37.488L14.3464 35.0543C14.0084 34.7185 13.4595 34.7185 13.1215 35.0543C12.7835 35.3901 12.7835 35.9353 13.1215 36.2711L15.6204 38.7536C15.2333 38.9602 14.7999 39.0722 14.3522 39.0722C13.6386 39.0722 12.9684 38.7966 12.4628 38.2973L12.4599 38.2973ZM29.7323 42.1574C30.2725 41.6207 30.989 41.3251 31.7545 41.3251C32.5201 41.3251 33.2337 41.6207 33.7768 42.1574C34.317 42.6941 34.6146 43.4058 34.6146 44.1664C34.6146 44.5165 34.5481 44.8552 34.4268 45.1738C34.369 45.2599 34.3083 45.3402 34.2477 45.4206L32.1619 43.3485C31.8239 43.0127 31.275 43.0127 30.937 43.3485C30.5991 43.6843 30.599 44.2295 30.937 44.5653L32.9766 46.5915C32.6733 46.7723 32.3497 46.9072 32.0059 46.9933C31.925 46.999 31.8441 47.0048 31.7633 47.0048C31.0006 47.0048 30.2841 46.7092 29.741 46.1725C29.2008 45.6358 28.9032 44.9241 28.9032 44.1635C28.9032 43.4029 29.2008 42.6941 29.741 42.1545L29.7323 42.1574ZM36.8852 35.9813C36.163 35.2638 36.163 34.0929 36.8852 33.3697C37.2464 33.0109 37.723 32.8301 38.1968 32.8301C38.6706 32.8301 39.1501 33.008 39.5083 33.3697C40.0196 33.8776 40.167 34.6095 39.959 35.2523L38.6648 33.9666C38.3268 33.6308 37.7779 33.6308 37.4399 33.9666C37.1019 34.3024 37.1019 34.8477 37.4399 35.1834L38.7111 36.4462C38.5464 36.4922 38.373 36.5209 38.1968 36.5209C37.6999 36.5209 37.2348 36.3286 36.8852 35.9813ZM44.5752 30.2644C44.4539 30.4424 44.3325 30.6203 44.2112 30.7954L43.7172 31.5186C43.3561 32.0467 42.995 32.5747 42.6309 33.1028C42.342 33.5218 42.0589 33.9408 41.77 34.3598C41.6978 33.5562 41.354 32.7727 40.7358 32.1585C39.7536 31.1828 38.3438 30.8957 37.1074 31.2832L39.9298 27.9684C39.9298 27.9684 39.9356 27.9627 39.9414 27.9569C40.6145 27.1418 41.2414 26.6683 41.8712 26.5047C42.0503 26.4588 42.241 26.4416 42.4432 26.453C42.7754 26.4731 43.1279 26.5736 43.4601 26.7458C43.9079 26.9811 44.2863 27.3399 44.5579 27.756C44.8294 28.1722 44.9854 28.6457 44.9912 29.1077C44.997 29.5095 44.8814 29.8223 44.581 30.2672L44.5752 30.2644Z" fill="#0CB4C4"/>
</svg>
