<?xml version="1.0" encoding="iso-8859-1"?>
<!-- Generator: Adobe Illustrator 15.0.0, SVG Export Plug-In . SVG Version: 6.00 Build 0)  -->
<!DOCTYPE svg PUBLIC "-//W3C//DTD SVG 1.1//EN" "http://www.w3.org/Graphics/SVG/1.1/DTD/svg11.dtd">
<svg version="1.1" id="Layer_1" xmlns="http://www.w3.org/2000/svg" xmlns:xlink="http://www.w3.org/1999/xlink" x="0px" y="0px"
	 width="57.7px" height="50px" viewBox="0 0 57.7 50" style="enable-background:new 0 0 57.7 50;" xml:space="preserve">
<g>
	<path style="fill:#0CB4C4;" d="M53.277,42.614H4.423c-2.412,0-4.375-1.962-4.375-4.374V5.724c0-2.412,1.963-4.374,4.375-4.374
		h48.854c2.412,0,4.375,1.962,4.375,4.374V38.24C57.652,40.652,55.689,42.614,53.277,42.614z M4.423,3.649
		c-1.144,0-2.074,0.931-2.074,2.074V38.24c0,1.144,0.931,2.073,2.074,2.073h48.854c1.144,0,2.074-0.93,2.074-2.073V5.724
		c0-1.144-0.931-2.074-2.074-2.074H4.423z"/>
	<path style="fill:#0CB4C4;" d="M41.913,48.65H15.941c-0.635,0-1.15-0.516-1.15-1.15s0.516-1.15,1.15-1.15h25.972
		c0.635,0,1.15,0.516,1.15,1.15S42.547,48.65,41.913,48.65z"/>
	<path style="fill:#0CB4C4;" d="M21.672,48.65c-0.118,0-0.238-0.019-0.356-0.058c-0.604-0.196-0.934-0.846-0.736-1.449l1.907-5.844
		c0.196-0.604,0.847-0.938,1.449-0.736c0.604,0.196,0.934,0.846,0.736,1.449l-1.907,5.844C22.607,48.342,22.157,48.65,21.672,48.65z
		"/>
	<path style="fill:#0CB4C4;" d="M35.709,48.65c-0.493,0-0.948-0.319-1.1-0.814L32.766,41.8c-0.186-0.607,0.156-1.25,0.764-1.436
		c0.612-0.185,1.25,0.157,1.436,0.764l1.844,6.036c0.186,0.607-0.156,1.25-0.764,1.436C35.933,48.634,35.821,48.65,35.709,48.65z"/>
	<path style="fill:#0CB4C4;" d="M40.949,23.296L28.633,35.648L18.216,25.191c-0.315-0.317-0.315-0.791,0-1.106s0.789-0.315,1.105,0
		l9.312,9.354l11.209-11.247c2.922-2.96,2.922-7.736,0-10.696c-1.42-1.42-3.314-2.209-5.326-2.209c-2.014,0-3.908,0.789-5.328,2.209
		l-0.555,0.553l-0.552-0.553c-1.421-1.42-3.314-2.209-5.288-2.209c-2.012,0-3.906,0.789-5.328,2.209
		c-1.934,1.935-2.683,4.815-1.895,7.46c0.119,0.434-0.117,0.868-0.552,0.986c-0.435,0.119-0.868-0.118-0.986-0.553
		c-0.947-3.196-0.04-6.67,2.288-9.037c1.737-1.697,4.026-2.645,6.473-2.645c2.17,0,4.223,0.75,5.882,2.171
		c1.656-1.382,3.709-2.171,5.879-2.171c2.447,0,4.736,0.947,6.434,2.685C44.5,13.942,44.5,19.744,40.949,23.296z M21.531,21.796
		v-1.618c0-1.025,0.593-2.328,1.224-3.354l2.368,8.917c0.078,0.356,0.394,0.593,0.75,0.593c0,0,0,0,0.039,0
		c0.354,0,0.632-0.196,0.749-0.552l1.657-4.815h4.185c0.435,0,0.789-0.354,0.789-0.789c0-0.434-0.354-0.789-0.789-0.789h-4.735
		c-0.356,0-0.632,0.197-0.751,0.553l-0.986,2.881l-2.171-8.09c-0.079-0.277-0.316-0.514-0.591-0.553
		c-0.276-0.079-0.593,0.039-0.791,0.275c-0.157,0.119-2.524,3.197-2.524,5.723v0.829H11.27c-0.435,0-0.789,0.355-0.789,0.789
		c0,0.435,0.354,0.79,0.789,0.79h9.471C21.176,22.586,21.531,22.23,21.531,21.796z"/>
</g>
</svg>
