<svg width="69" height="60" viewBox="0 0 69 60" fill="none" xmlns="http://www.w3.org/2000/svg"><path fill-rule="evenodd" clip-rule="evenodd" d="M68.8684 4.17391C68.8684 3.52337 68.345 3 67.6945 3H1.95535C1.3048 3 0.781433 3.52337 0.781433 4.17391V55.8261C0.781433 56.4766 1.3048 57 1.95535 57H67.6945C68.345 57 68.8684 56.4766 68.8684 55.8261V4.17391ZM66.5206 5.34783V54.6522H3.12926V5.34783H66.5206ZM7.82491 42.913V48.7826C7.82491 49.4332 8.34828 49.9565 8.99882 49.9565H14.8684C15.514 49.9565 16.0423 49.4283 16.0423 48.7826C16.0423 48.137 15.514 47.6087 14.8684 47.6087H10.1727V42.913C10.1727 42.2674 9.64448 41.7391 8.99882 41.7391C8.35317 41.7391 7.82491 42.2674 7.82491 42.913ZM59.4771 42.913V47.6087H54.7814C54.1358 47.6087 53.6075 48.137 53.6075 48.7826C53.6075 49.4283 54.1358 49.9565 54.7814 49.9565H60.651C61.3015 49.9565 61.8249 49.4332 61.8249 48.7826V42.913C61.8249 42.2674 61.2966 41.7391 60.651 41.7391C60.0053 41.7391 59.4771 42.2674 59.4771 42.913ZM36.0869 29.2761L36.0918 29.281L36.3412 29.6576L40.714 34.0255V36.5788L38.0043 33.8641C37.7841 33.644 37.4858 33.5217 37.1727 33.5217H32.4771C32.164 33.5217 31.8657 33.644 31.6456 33.8641L28.9553 36.5592V34.006L33.3086 29.6576L33.563 29.2761L33.651 28.8261V13.5652C33.651 12.9196 33.1227 12.3913 32.4771 12.3913C31.8314 12.3913 31.3032 12.9196 31.3032 13.5652V28.3418L28.9553 30.6897V26.4832C28.9553 26.1114 28.7841 25.769 28.4907 25.544C28.1972 25.3239 27.8206 25.2505 27.4635 25.3484C23.2619 26.5272 20.5325 29.9902 18.8303 33.7761C16.3994 39.1908 16.0619 45.1973 16.0619 45.1973C16.0423 45.5837 16.2135 45.9554 16.5216 46.1902C16.8298 46.4299 17.2358 46.4984 17.6026 46.3761L28.1483 42.8984C28.6325 42.7419 28.9553 42.2918 28.9553 41.7832V39.8755L32.9613 35.8696H36.6885L40.714 39.8951V41.7832C40.714 42.287 41.0418 42.737 41.5211 42.8984L52.0668 46.3712C52.4336 46.4935 52.8396 46.425 53.1477 46.1902C53.4559 45.9554 53.6271 45.5788 53.6075 45.1924C53.6075 45.1924 53.27 39.1859 50.839 33.7761C49.1369 29.9853 46.4075 26.5272 42.2059 25.3484C41.8537 25.2505 41.4722 25.319 41.1787 25.544C40.8852 25.7641 40.714 26.1114 40.714 26.4783V30.7092L38.3466 28.3418V13.5652C38.3466 12.9196 37.8184 12.3913 37.1727 12.3913C36.5271 12.3913 35.9988 12.9196 35.9988 13.5652V28.8261L36.0869 29.2761ZM26.6075 28.1804V40.937L18.5858 43.5783C18.8548 41.5386 19.5005 38.0217 20.9727 34.7397C22.1809 32.0495 23.9466 29.4913 26.6075 28.1804ZM43.0619 28.1804C45.7227 29.4913 47.4885 32.0446 48.6966 34.7397C50.1689 38.0169 50.8146 41.5337 51.0836 43.5783L43.0619 40.9321V28.1804ZM61.8249 17.087V11.2174C61.8249 10.5668 61.3015 10.0435 60.651 10.0435H54.7814C54.1358 10.0435 53.6075 10.5717 53.6075 11.2174C53.6075 11.863 54.1358 12.3913 54.7814 12.3913H59.4771V17.087C59.4771 17.7326 60.0053 18.2609 60.651 18.2609C61.2966 18.2609 61.8249 17.7326 61.8249 17.087ZM10.1727 17.087V12.3913H14.8684C15.514 12.3913 16.0423 11.863 16.0423 11.2174C16.0423 10.5717 15.514 10.0435 14.8684 10.0435H8.99882C8.34828 10.0435 7.82491 10.5668 7.82491 11.2174V17.087C7.82491 17.7326 8.35317 18.2609 8.99882 18.2609C9.64448 18.2609 10.1727 17.7326 10.1727 17.087Z" fill="#0CB4C4"></path></svg>