<svg width="61" height="62" viewBox="0 0 61 62" fill="none" xmlns="http://www.w3.org/2000/svg"><mask id="path-1-outside-1_3973_60" maskUnits="userSpaceOnUse" x="-0.70105" y="0" width="62" height="62" fill="black"><rect fill="white" x="-0.70105" width="62" height="62"></rect><path d="M50.6488 11.8487H45.9203V7.1202C45.9203 6.70712 45.5863 6.3702 45.1703 6.3702L37.3156 6.37313C36.8996 6.37313 36.5656 6.71005 36.5656 7.12313V11.8516H31.8371C31.4211 11.8516 31.0871 12.1886 31.0871 12.6016V20.4564C31.0871 20.8694 31.4211 21.2064 31.8371 21.2064H36.5656V25.9349C36.5656 26.3479 36.8996 26.6849 37.3156 26.6849H45.1703C45.5863 26.6849 45.9203 26.3479 45.9203 25.9349V21.2064H50.6488C51.0648 21.2064 51.3988 20.8694 51.3988 20.4564V12.5986C51.3988 12.1856 51.0648 11.8487 50.6488 11.8487ZM49.8988 19.7064H45.1703C44.7543 19.7064 44.4203 20.0433 44.4203 20.4564V25.1849H38.0658V20.4564C38.0658 20.0433 37.7318 19.7064 37.3158 19.7064H32.5873V13.3519H37.3158C37.7318 13.3519 38.0658 13.015 38.0658 12.6019V7.87343H44.4203V12.6019C44.4203 13.015 44.7543 13.3519 45.1703 13.3519H49.8988V19.7064Z"></path><path d="M54.1641 1H28.3214C24.9406 1 22.1866 3.75099 22.1866 7.13475V21.7567H6.4337C3.04994 21.7567 0.29895 24.5077 0.29895 27.8915V46.5304C0.29895 49.9112 3.04994 52.6651 6.4337 52.6651H8.297L8.3175 60.2559C8.3175 60.543 8.4845 60.8066 8.74524 60.9297C8.84484 60.9766 8.95617 61 9.06457 61C9.23449 61 9.39855 60.9443 9.53625 60.833L19.6672 52.6618H32.2762C35.657 52.6618 38.4109 49.9108 38.4109 46.527V31.9051H40.9305L51.0614 40.0763C51.1962 40.1876 51.3632 40.2433 51.5331 40.2433C51.6444 40.2433 51.7528 40.2199 51.8554 40.1701C52.1161 40.047 52.2831 39.7833 52.2831 39.4962L52.3036 31.9055H54.1669C57.5477 31.9055 60.2987 29.1545 60.2987 25.7737V7.13475C60.2987 3.75098 57.5478 1 54.1641 1ZM36.9111 46.5271C36.9111 49.0817 34.8311 51.1618 32.2764 51.1618H19.4004C19.2305 51.1618 19.0635 51.2204 18.9287 51.3288L9.80876 58.6853L9.79118 51.9119C9.79118 51.4988 9.45427 51.1648 9.04118 51.1648H6.43082C3.8791 51.1619 1.79898 49.0848 1.79898 46.5271V27.8912C1.79898 25.3366 3.87903 23.2564 6.43374 23.2564H22.1897V25.7731C22.1897 29.1539 24.9407 31.9078 28.3244 31.9078H36.9142L36.9111 46.5271ZM58.799 25.7732C58.799 28.3278 56.719 30.4079 54.1643 30.4079H51.5539C51.1408 30.4079 50.8039 30.7419 50.8039 31.155L50.7863 37.9284L41.6664 30.5719C41.5316 30.4635 41.3675 30.4049 41.1947 30.4049H28.3217C25.7671 30.4049 23.687 28.3249 23.687 25.7702V7.13425C23.687 4.57961 25.767 2.49949 28.3217 2.49949H54.1644C56.719 2.49949 58.7992 4.57953 58.7992 7.13425L58.799 25.7732Z"></path><path d="M27.4807 33.2086H11.2267C10.8107 33.2086 10.4767 33.5455 10.4767 33.9586C10.4767 34.3717 10.8107 34.7086 11.2267 34.7086H27.4807C27.8967 34.7086 28.2307 34.3717 28.2307 33.9586C28.2307 33.5455 27.8967 33.2086 27.4807 33.2086Z"></path><path d="M27.4807 40.6269H11.2267C10.8107 40.6269 10.4767 40.9638 10.4767 41.3769C10.4767 41.7899 10.8107 42.1268 11.2267 42.1268H27.4807C27.8967 42.1268 28.2307 41.7899 28.2307 41.3769C28.2307 40.9638 27.8967 40.6269 27.4807 40.6269Z"></path></mask><path d="M50.6488 11.8487H45.9203V7.1202C45.9203 6.70712 45.5863 6.3702 45.1703 6.3702L37.3156 6.37313C36.8996 6.37313 36.5656 6.71005 36.5656 7.12313V11.8516H31.8371C31.4211 11.8516 31.0871 12.1886 31.0871 12.6016V20.4564C31.0871 20.8694 31.4211 21.2064 31.8371 21.2064H36.5656V25.9349C36.5656 26.3479 36.8996 26.6849 37.3156 26.6849H45.1703C45.5863 26.6849 45.9203 26.3479 45.9203 25.9349V21.2064H50.6488C51.0648 21.2064 51.3988 20.8694 51.3988 20.4564V12.5986C51.3988 12.1856 51.0648 11.8487 50.6488 11.8487ZM49.8988 19.7064H45.1703C44.7543 19.7064 44.4203 20.0433 44.4203 20.4564V25.1849H38.0658V20.4564C38.0658 20.0433 37.7318 19.7064 37.3158 19.7064H32.5873V13.3519H37.3158C37.7318 13.3519 38.0658 13.015 38.0658 12.6019V7.87343H44.4203V12.6019C44.4203 13.015 44.7543 13.3519 45.1703 13.3519H49.8988V19.7064Z" fill="#0CB4C4"></path><path d="M54.1641 1H28.3214C24.9406 1 22.1866 3.75099 22.1866 7.13475V21.7567H6.4337C3.04994 21.7567 0.29895 24.5077 0.29895 27.8915V46.5304C0.29895 49.9112 3.04994 52.6651 6.4337 52.6651H8.297L8.3175 60.2559C8.3175 60.543 8.4845 60.8066 8.74524 60.9297C8.84484 60.9766 8.95617 61 9.06457 61C9.23449 61 9.39855 60.9443 9.53625 60.833L19.6672 52.6618H32.2762C35.657 52.6618 38.4109 49.9108 38.4109 46.527V31.9051H40.9305L51.0614 40.0763C51.1962 40.1876 51.3632 40.2433 51.5331 40.2433C51.6444 40.2433 51.7528 40.2199 51.8554 40.1701C52.1161 40.047 52.2831 39.7833 52.2831 39.4962L52.3036 31.9055H54.1669C57.5477 31.9055 60.2987 29.1545 60.2987 25.7737V7.13475C60.2987 3.75098 57.5478 1 54.1641 1ZM36.9111 46.5271C36.9111 49.0817 34.8311 51.1618 32.2764 51.1618H19.4004C19.2305 51.1618 19.0635 51.2204 18.9287 51.3288L9.80876 58.6853L9.79118 51.9119C9.79118 51.4988 9.45427 51.1648 9.04118 51.1648H6.43082C3.8791 51.1619 1.79898 49.0848 1.79898 46.5271V27.8912C1.79898 25.3366 3.87903 23.2564 6.43374 23.2564H22.1897V25.7731C22.1897 29.1539 24.9407 31.9078 28.3244 31.9078H36.9142L36.9111 46.5271ZM58.799 25.7732C58.799 28.3278 56.719 30.4079 54.1643 30.4079H51.5539C51.1408 30.4079 50.8039 30.7419 50.8039 31.155L50.7863 37.9284L41.6664 30.5719C41.5316 30.4635 41.3675 30.4049 41.1947 30.4049H28.3217C25.7671 30.4049 23.687 28.3249 23.687 25.7702V7.13425C23.687 4.57961 25.767 2.49949 28.3217 2.49949H54.1644C56.719 2.49949 58.7992 4.57953 58.7992 7.13425L58.799 25.7732Z" fill="#0CB4C4"></path><path d="M27.4807 33.2086H11.2267C10.8107 33.2086 10.4767 33.5455 10.4767 33.9586C10.4767 34.3717 10.8107 34.7086 11.2267 34.7086H27.4807C27.8967 34.7086 28.2307 34.3717 28.2307 33.9586C28.2307 33.5455 27.8967 33.2086 27.4807 33.2086Z" fill="#0CB4C4"></path><path d="M27.4807 40.6269H11.2267C10.8107 40.6269 10.4767 40.9638 10.4767 41.3769C10.4767 41.7899 10.8107 42.1268 11.2267 42.1268H27.4807C27.8967 42.1268 28.2307 41.7899 28.2307 41.3769C28.2307 40.9638 27.8967 40.6269 27.4807 40.6269Z" fill="#0CB4C4"></path><path d="M50.6488 11.8487H45.9203V7.1202C45.9203 6.70712 45.5863 6.3702 45.1703 6.3702L37.3156 6.37313C36.8996 6.37313 36.5656 6.71005 36.5656 7.12313V11.8516H31.8371C31.4211 11.8516 31.0871 12.1886 31.0871 12.6016V20.4564C31.0871 20.8694 31.4211 21.2064 31.8371 21.2064H36.5656V25.9349C36.5656 26.3479 36.8996 26.6849 37.3156 26.6849H45.1703C45.5863 26.6849 45.9203 26.3479 45.9203 25.9349V21.2064H50.6488C51.0648 21.2064 51.3988 20.8694 51.3988 20.4564V12.5986C51.3988 12.1856 51.0648 11.8487 50.6488 11.8487ZM49.8988 19.7064H45.1703C44.7543 19.7064 44.4203 20.0433 44.4203 20.4564V25.1849H38.0658V20.4564C38.0658 20.0433 37.7318 19.7064 37.3158 19.7064H32.5873V13.3519H37.3158C37.7318 13.3519 38.0658 13.015 38.0658 12.6019V7.87343H44.4203V12.6019C44.4203 13.015 44.7543 13.3519 45.1703 13.3519H49.8988V19.7064Z" stroke="#0CB4C4" stroke-width="0.4" mask="url(#path-1-outside-1_3973_60)"></path><path d="M54.1641 1H28.3214C24.9406 1 22.1866 3.75099 22.1866 7.13475V21.7567H6.4337C3.04994 21.7567 0.29895 24.5077 0.29895 27.8915V46.5304C0.29895 49.9112 3.04994 52.6651 6.4337 52.6651H8.297L8.3175 60.2559C8.3175 60.543 8.4845 60.8066 8.74524 60.9297C8.84484 60.9766 8.95617 61 9.06457 61C9.23449 61 9.39855 60.9443 9.53625 60.833L19.6672 52.6618H32.2762C35.657 52.6618 38.4109 49.9108 38.4109 46.527V31.9051H40.9305L51.0614 40.0763C51.1962 40.1876 51.3632 40.2433 51.5331 40.2433C51.6444 40.2433 51.7528 40.2199 51.8554 40.1701C52.1161 40.047 52.2831 39.7833 52.2831 39.4962L52.3036 31.9055H54.1669C57.5477 31.9055 60.2987 29.1545 60.2987 25.7737V7.13475C60.2987 3.75098 57.5478 1 54.1641 1ZM36.9111 46.5271C36.9111 49.0817 34.8311 51.1618 32.2764 51.1618H19.4004C19.2305 51.1618 19.0635 51.2204 18.9287 51.3288L9.80876 58.6853L9.79118 51.9119C9.79118 51.4988 9.45427 51.1648 9.04118 51.1648H6.43082C3.8791 51.1619 1.79898 49.0848 1.79898 46.5271V27.8912C1.79898 25.3366 3.87903 23.2564 6.43374 23.2564H22.1897V25.7731C22.1897 29.1539 24.9407 31.9078 28.3244 31.9078H36.9142L36.9111 46.5271ZM58.799 25.7732C58.799 28.3278 56.719 30.4079 54.1643 30.4079H51.5539C51.1408 30.4079 50.8039 30.7419 50.8039 31.155L50.7863 37.9284L41.6664 30.5719C41.5316 30.4635 41.3675 30.4049 41.1947 30.4049H28.3217C25.7671 30.4049 23.687 28.3249 23.687 25.7702V7.13425C23.687 4.57961 25.767 2.49949 28.3217 2.49949H54.1644C56.719 2.49949 58.7992 4.57953 58.7992 7.13425L58.799 25.7732Z" stroke="#0CB4C4" stroke-width="0.4" mask="url(#path-1-outside-1_3973_60)"></path><path d="M27.4807 33.2086H11.2267C10.8107 33.2086 10.4767 33.5455 10.4767 33.9586C10.4767 34.3717 10.8107 34.7086 11.2267 34.7086H27.4807C27.8967 34.7086 28.2307 34.3717 28.2307 33.9586C28.2307 33.5455 27.8967 33.2086 27.4807 33.2086Z" stroke="#0CB4C4" stroke-width="0.4" mask="url(#path-1-outside-1_3973_60)"></path><path d="M27.4807 40.6269H11.2267C10.8107 40.6269 10.4767 40.9638 10.4767 41.3769C10.4767 41.7899 10.8107 42.1268 11.2267 42.1268H27.4807C27.8967 42.1268 28.2307 41.7899 28.2307 41.3769C28.2307 40.9638 27.8967 40.6269 27.4807 40.6269Z" stroke="#0CB4C4" stroke-width="0.4" mask="url(#path-1-outside-1_3973_60)"></path></svg>