<?xml version="1.0" encoding="iso-8859-1"?>
<!-- Generator: Adobe Illustrator 15.0.0, SVG Export Plug-In . SVG Version: 6.00 Build 0)  -->
<!DOCTYPE svg PUBLIC "-//W3C//DTD SVG 1.1//EN" "http://www.w3.org/Graphics/SVG/1.1/DTD/svg11.dtd">
<svg version="1.1" id="Layer_1" xmlns="http://www.w3.org/2000/svg" xmlns:xlink="http://www.w3.org/1999/xlink" x="0px" y="0px"
	 width="50px" height="50px" viewBox="0 0 50 50" style="enable-background:new 0 0 50 50;" xml:space="preserve">
<g>
	<path style="fill:#0CB4C4;" d="M45.046,47.688H31.938c-0.606,0-1.1-0.493-1.1-1.1s0.493-1.1,1.1-1.1h13.107
		c2.678,0,2.755-2.474,2.755-2.755V7.268c-0.008-0.453-0.193-2.756-3.141-2.756H24.614c-0.606,0-1.1-0.492-1.1-1.099
		s0.493-1.099,1.1-1.099H44.66c4.38,0,5.34,3.576,5.34,4.954v35.466C50,44.725,48.68,47.688,45.046,47.688z"/>
	<rect x="31.167" y="15.805" style="fill:#0CB4C4;" width="5.783" height="2.199"/>
	<rect x="31.167" y="21.202" style="fill:#0CB4C4;" width="12.336" height="2.199"/>
	<rect x="31.167" y="24.286" style="fill:#0CB4C4;" width="12.336" height="2.199"/>
	<path style="fill:#0CB4C4;" d="M36.032,39.312l-2.021-0.866l1.157-2.699c0.162-0.379,0.523-0.636,0.936-0.664
		c0.424-0.029,0.805,0.179,1.018,0.531l0.591,0.985l0.984-0.592c0.382-0.229,0.866-0.204,1.226,0.063l1.249,0.937h2.331v2.2h-2.698
		c-0.237,0-0.469-0.078-0.659-0.221l-0.951-0.713l-1.293,0.776c-0.251,0.149-0.551,0.196-0.832,0.123
		c-0.283-0.069-0.526-0.25-0.677-0.5l-0.05-0.084L36.032,39.312z"/>
	<rect x="31.167" y="27.369" style="fill:#0CB4C4;" width="8.867" height="2.2"/>
	<g>
		<path style="fill:#0CB4C4;" d="M31.553,11.836h-5.396c-4.38,0-5.34-3.576-5.34-4.954V1.485c0-0.607,0.493-1.1,1.1-1.1
			c0.606,0,1.1,0.492,1.1,1.1v5.396c0.007,0.453,0.193,2.755,3.14,2.755h5.396c0.607,0,1.1,0.492,1.1,1.1
			S32.16,11.836,31.553,11.836z"/>
		<path style="fill:#0CB4C4;" d="M28.084,50H4.955C1.32,50,0,47.037,0,45.046V4.955C0,2.963,1.32,0,4.955,0h16.962
			c0.284,0,0.557,0.11,0.762,0.307L32.7,9.944c0.216,0.207,0.338,0.493,0.338,0.792v34.309C33.038,47.037,31.719,50,28.084,50z
			 M4.955,2.199c-2.588,0-2.75,2.302-2.755,2.763v40.084c0.006,0.454,0.167,2.755,2.755,2.755h23.129
			c2.588,0,2.749-2.301,2.755-2.762V11.205l-9.365-9.006H4.955z"/>
	</g>
	<path style="fill:#0CB4C4;" d="M19.547,36.508h-6.055v-5.396H8.095v-5.669h5.397v-5.396h6.055v5.396h5.396v5.669h-5.396V36.508z
		 M15.692,34.309h1.655v-5.396h5.396v-1.27h-5.396v-5.398h-1.655v5.398h-5.397v1.27h5.397V34.309z"/>
</g>
</svg>
