<svg width="66" height="60" viewBox="0 0 66 60" fill="none" xmlns="http://www.w3.org/2000/svg"><path d="M48.5004 37.1713C47.9811 30.138 42.0916 24.5771 34.9268 24.5771H28.1433V18.9571C29.4908 18.5232 30.4768 17.2546 30.4768 15.7625C30.4768 13.9154 28.9715 12.4167 27.131 12.4167C25.2839 12.4167 23.7853 13.922 23.7853 15.7625C23.7853 17.2546 24.7647 18.5232 26.1187 18.9571V24.5706H19.3286C12.1639 24.5706 6.28088 30.1315 5.75503 37.1648C2.97457 37.2108 0.719971 39.4851 0.719971 42.2853C0.719971 45.0789 2.968 47.3598 5.75503 47.4058C6.27431 54.4391 12.1639 60 19.3286 60H34.9268C42.0916 60 47.9746 54.4391 48.5004 47.4058C51.2809 47.3598 53.5355 45.0855 53.5355 42.2853C53.5289 39.4917 51.2809 37.2108 48.5004 37.1713ZM27.1244 14.4544C27.8475 14.4544 28.4391 15.046 28.4391 15.7691C28.4391 16.4921 27.8475 17.0837 27.1244 17.0837C26.4014 17.0837 25.8098 16.4921 25.8098 15.7691C25.8164 15.0394 26.4014 14.4544 27.1244 14.4544ZM2.75766 42.2853C2.75766 40.6223 4.07229 39.2682 5.72216 39.2025V45.3681C4.07887 45.3089 2.75766 43.9483 2.75766 42.2853ZM34.9268 57.9623H19.3286C12.9461 57.9623 7.75327 52.7695 7.75327 46.3869V38.1836C7.75327 31.8011 12.9461 26.6082 19.3286 26.6082H34.9268C41.3094 26.6082 46.5022 31.8011 46.5022 38.1836V46.3869C46.5022 52.7695 41.3094 57.9623 34.9268 57.9623ZM48.5333 45.3681V39.2025C50.1766 39.2682 51.4978 40.6223 51.4978 42.2853C51.4978 43.9483 50.1766 45.3089 48.5333 45.3681ZM35.9128 32.5372H18.3427C14.6617 32.5372 11.6709 35.528 11.6709 39.209V45.3681C11.6709 49.0491 14.6617 52.0399 18.3427 52.0399H35.9128C39.5938 52.0399 42.5846 49.0491 42.5846 45.3681V39.209C42.5846 35.528 39.5938 32.5372 35.9128 32.5372ZM40.5469 45.3681C40.5469 47.9251 38.4698 50.0022 35.9128 50.0022H18.3427C15.7857 50.0022 13.7086 47.9251 13.7086 45.3681V39.209C13.7086 36.6521 15.7857 34.5749 18.3427 34.5749H35.9128C38.4698 34.5749 40.5469 36.6521 40.5469 39.209V45.3681ZM20.5973 38.0193C18.2441 38.0193 16.3313 39.9321 16.3313 42.2853C16.3313 44.6385 18.2441 46.5513 20.5973 46.5513C22.9505 46.5513 24.8633 44.6385 24.8633 42.2853C24.8698 39.9321 22.9505 38.0193 20.5973 38.0193ZM20.5973 44.5202C19.3681 44.5202 18.3624 43.521 18.3624 42.2853C18.3624 41.0561 19.3615 40.0504 20.5973 40.0504C21.8265 40.0504 22.8322 41.0495 22.8322 42.2853C22.8322 43.521 21.833 44.5202 20.5973 44.5202ZM33.6582 38.0193C31.305 38.0193 29.3922 39.9321 29.3922 42.2853C29.3922 44.6385 31.305 46.5513 33.6582 46.5513C36.0114 46.5513 37.9242 44.6385 37.9242 42.2853C37.9242 39.9321 36.0114 38.0193 33.6582 38.0193ZM33.6582 44.5202C32.429 44.5202 31.4233 43.521 31.4233 42.2853C31.4233 41.0561 32.4224 40.0504 33.6582 40.0504C34.8874 40.0504 35.8931 41.0495 35.8931 42.2853C35.8865 43.521 34.8874 44.5202 33.6582 44.5202ZM61.3181 0H41.1779C38.713 0 36.7016 2.00482 36.7016 4.46976V16.3212C36.7016 18.7862 38.7064 20.791 41.1779 20.791H42.8541C43.163 20.791 43.4128 21.0408 43.4128 21.3563V24.4062C43.4128 25.1819 43.8795 25.8458 44.6025 26.1087C44.8063 26.181 45.0166 26.2204 45.227 26.2204C45.7528 26.2204 46.2524 25.9904 46.6073 25.5697L49.9991 21.4943C50.3869 21.0276 50.8865 20.7975 51.4912 20.7975H61.3116C63.7765 20.7975 65.7813 18.7927 65.7813 16.3278V4.46976C65.7945 2.00482 63.7831 0 61.3181 0ZM63.7568 16.3212C63.7568 17.6621 62.6656 18.7599 61.3181 18.7599H51.4978C50.2949 18.7599 49.2103 19.266 48.4413 20.1928L45.4505 23.7818V21.3563C45.4505 19.9233 44.287 18.7599 42.8541 18.7599H41.1779C39.8304 18.7599 38.7393 17.6687 38.7393 16.3212V4.46976C38.7393 3.12883 39.837 2.03111 41.1779 2.03111H61.3181C62.6591 2.03111 63.7568 3.12226 63.7568 4.46976V16.3212ZM46.0223 10.3988C46.0223 10.9641 45.5688 11.4176 45.0035 11.4176H44.6946C44.1293 11.4176 43.6757 10.9641 43.6757 10.3988C43.6757 9.83348 44.1293 9.37993 44.6946 9.37993H45.0035C45.5688 9.37993 46.0223 9.83348 46.0223 10.3988ZM52.418 10.3988C52.418 10.9641 51.9645 11.4176 51.3992 11.4176H51.0903C50.525 11.4176 50.0714 10.9641 50.0714 10.3988C50.0714 9.83348 50.525 9.37993 51.0903 9.37993H51.3992C51.9645 9.37993 52.418 9.83348 52.418 10.3988ZM58.8137 10.3988C58.8137 10.9641 58.3602 11.4176 57.7949 11.4176H57.486C56.9207 11.4176 56.4671 10.9641 56.4671 10.3988C56.4671 9.83348 56.9207 9.37993 57.486 9.37993H57.7949C58.3602 9.37993 58.8137 9.83348 58.8137 10.3988Z" fill="#0CB4C4"></path></svg>