<svg xmlns="http://www.w3.org/2000/svg" xmlns:xlink="http://www.w3.org/1999/xlink" version="1.1" id="Layer_1" x="0px" y="0px" width="38.7px" height="60px" viewBox="0 0 38.7 60" style="enable-background:new 0 0 38.7 60;" xml:space="preserve"><g><path style="fill:#0CB4C4;" d="M27.342,25.277h-4.52v-4.52c0-0.705-0.572-1.277-1.277-1.277h-4.392 c-0.705,0-1.276,0.572-1.276,1.277v4.52h-4.519c-0.706,0-1.277,0.571-1.277,1.276v4.392c0,0.705,0.571,1.277,1.277,1.277h4.519 v4.519c0,0.705,0.571,1.276,1.276,1.276h4.392c0.705,0,1.277-0.571,1.277-1.276v-4.519h4.52c0.704,0,1.276-0.572,1.276-1.277 v-4.392C28.619,25.848,28.046,25.277,27.342,25.277z M26.039,29.668h-4.493c-0.705,0-1.276,0.571-1.276,1.276v4.519H18.43v-4.519 c0-0.706-0.571-1.276-1.276-1.276h-4.545V27.83h4.52c0.705,0,1.276-0.572,1.276-1.277v-4.52h1.839v4.52 c0,0.705,0.572,1.277,1.277,1.277h4.518V29.668z"></path><path style="fill:#0CB4C4;" d="M38.678,2.553v54.894c0,1.409-1.144,2.553-2.553,2.553H2.576c-1.411,0-2.554-1.144-2.554-2.553 V22.212c0-0.705,0.572-1.276,1.276-1.276c0.705,0,1.277,0.572,1.277,1.276v35.235h33.55V2.553H2.576v15.587 c0,0.705-0.572,1.277-1.277,1.277c-0.704,0-1.276-0.572-1.276-1.277V2.553C0.022,1.143,1.165,0,2.576,0h33.55 C37.535,0,38.678,1.143,38.678,2.553z"></path><path style="fill:#0CB4C4;" d="M31.682,4.697H7.017C5.592,4.691,4.422,5.826,4.388,7.25v42.996c0,1.453,1.178,2.63,2.629,2.63 h24.665c1.451,0,2.63-1.177,2.63-2.63V7.25C34.277,5.826,33.107,4.691,31.682,4.697z M31.758,50.246 c0,0.043-0.035,0.076-0.076,0.076L6.941,50.246L7.017,7.188h24.741V50.246z"></path><path style="fill:#0CB4C4;" d="M29.27,15.651c0,0.706-0.571,1.276-1.276,1.276h-3.83c-0.706,0-1.276-0.571-1.276-1.276 c0-0.705,0.57-1.277,1.276-1.277h3.83C28.699,14.374,29.27,14.946,29.27,15.651z"></path><path style="fill:#0CB4C4;" d="M9.43,15.651c0-0.705,0.572-1.277,1.276-1.277h10.111c0.706,0,1.276,0.572,1.276,1.277 c0,0.706-0.57,1.276-1.276,1.276H10.707C10.002,16.927,9.43,16.356,9.43,15.651z"></path><path style="fill:#0CB4C4;" d="M15.813,41.847c0,0.705-0.57,1.276-1.276,1.276h-3.83c-0.704,0-1.276-0.571-1.276-1.276 s0.572-1.276,1.276-1.276h3.83c0.686,0.028,1.226,0.59,1.226,1.276H15.813z"></path><path style="fill:#0CB4C4;" d="M29.32,41.847c0,0.705-0.571,1.276-1.276,1.276H17.882c-0.706,0-1.277-0.571-1.277-1.276 s0.571-1.276,1.277-1.276h10.111c0.705,0,1.276,0.571,1.276,1.276H29.32z"></path><path style="fill:#0CB4C4;" d="M19.35,53.145c1.113,0,2.018,0.903,2.018,2.019c0,1.113-0.904,2.015-2.018,2.015 c-1.114,0-2.018-0.901-2.018-2.015C17.333,54.048,18.236,53.145,19.35,53.145L19.35,53.145z"></path></g></svg>