<svg xmlns="http://www.w3.org/2000/svg" xmlns:xlink="http://www.w3.org/1999/xlink" version="1.1" id="Layer_1" x="0px" y="0px" width="74px" height="60px" viewBox="0 0 74 60" style="enable-background:new 0 0 74 60;" xml:space="preserve"><g><path style="fill:#0CB4C4;" d="M69.681,10H48.444c-2.333,0-4.233,1.9-4.233,4.235v9.652h-4.242 c-1.846-3.051-5.186-5.102-9.006-5.102c-3.816,0-7.158,2.051-9.006,5.102H5.692c-3.09,0-5.604,2.516-5.604,5.605v24.901 C0.089,57.486,2.603,60,5.692,60h50.541c3.094,0,5.607-2.516,5.607-5.605V30.261c0-0.062-0.013-0.118-0.021-0.175h7.86 c2.335,0,4.23-1.9,4.23-4.234V14.236C73.911,11.901,72.016,10,69.681,10z M30.963,21.78c4.157,0,7.535,3.382,7.535,7.539 c0,4.154-3.378,7.537-7.535,7.537c-4.155,0-7.536-3.383-7.536-7.537C23.427,25.162,26.808,21.78,30.963,21.78z M17.729,57.006 c0.396-6.941,6.172-12.473,13.234-12.473c7.064,0,12.838,5.531,13.236,12.473H17.729z M56.233,57.006h-9.042 c-0.398-8.592-7.516-15.465-16.229-15.465s-15.829,6.873-16.229,15.465H5.692c-1.438,0-2.61-1.17-2.61-2.611V29.494 c0-1.441,1.173-2.61,2.61-2.61h15.037c-0.189,0.783-0.297,1.596-0.297,2.436c0,5.804,4.725,10.529,10.53,10.529 s10.53-4.725,10.53-10.529c0-0.84-0.11-1.652-0.297-2.436h3.157c0.463,1.835,2.115,3.203,4.091,3.203h3.27 c-0.644,1.666-1.807,3.398-3.918,4.419c-0.619,0.301-0.952,0.984-0.81,1.658c0.145,0.674,0.729,1.162,1.417,1.186l0.199,0.002 c0.819,0,6.344-0.135,10.243-3.375v20.418C58.846,55.836,57.675,57.006,56.233,57.006z M70.919,25.852 c0,0.686-0.557,1.242-1.238,1.242h-8.942c-0.652,0-1.232,0.424-1.428,1.048c-0.998,3.182-3.67,4.737-6.103,5.497 c1.157-1.705,1.706-3.507,1.962-4.746c0.093-0.44-0.021-0.897-0.307-1.247c-0.286-0.349-0.709-0.552-1.159-0.552h-5.26 c-0.683,0-1.239-0.559-1.239-1.242V14.236c0-0.687,0.559-1.243,1.239-1.243h21.236c0.682,0,1.238,0.559,1.238,1.243V25.852z"></path><path style="fill:#0CB4C4;" d="M51.889,18.081c-1.007,0-1.823,0.816-1.823,1.823s0.816,1.822,1.823,1.822 c1.009,0,1.823-0.815,1.823-1.822S52.897,18.081,51.889,18.081z"></path><circle style="fill:#0CB4C4;" cx="59.075" cy="19.903" r="1.823"></circle><circle style="fill:#0CB4C4;" cx="66.262" cy="19.903" r="1.823"></circle></g></svg>