<svg width="63" height="62" viewBox="0 0 63 62" fill="none" xmlns="http://www.w3.org/2000/svg"><mask id="path-1-outside-1_3973_59" maskUnits="userSpaceOnUse" x="-0.410767" y="0" width="63" height="62" fill="black"><rect fill="white" x="-0.410767" width="63" height="62"></rect><path fill-rule="evenodd" clip-rule="evenodd" d="M29.4447 26.1252H33.4427C33.7906 26.1252 34.072 26.4066 34.072 26.7545V28.3685H35.686C36.0339 28.3685 36.3152 28.6498 36.3152 28.9977V32.9983C36.3152 33.3462 36.0339 33.6275 35.686 33.6275H34.072V35.2416C34.072 35.5894 33.7906 35.8708 33.4427 35.8708H29.4447C29.0968 35.8708 28.8155 35.5894 28.8155 35.2416V33.6275H27.2014C26.8536 33.6275 26.5722 33.3462 26.5722 32.9983V28.9977C26.5722 28.6498 26.8536 28.3685 27.2014 28.3685H28.8155V26.7545C28.8155 26.4066 29.0968 26.1252 29.4447 26.1252ZM14.6706 41.4573L10.5319 39.0682C10.3426 38.9557 10.0996 38.9454 9.89494 39.0631L5.40069 41.6593V41.6619L0.957572 44.2275C0.740151 44.3273 0.589233 44.5472 0.589233 44.8005V55.1807H0.591791C0.591791 55.3982 0.704342 55.6079 0.906415 55.723L5.36741 58.2988C5.37764 58.3065 5.38787 58.3142 5.40066 58.3193L9.89492 60.9155C10.0816 61.023 10.3195 61.0332 10.5216 60.9155L19.459 55.7537C19.6764 55.6539 19.8273 55.434 19.8273 55.1807L19.8299 44.7982H19.8273C19.8273 44.5807 19.7148 44.371 19.5127 44.2533L15.8651 42.1482L23.7819 36.531C24.0787 36.9403 24.4035 37.324 24.7616 37.6795C26.4729 39.3908 28.8339 40.4472 31.4454 40.4472C34.0545 40.4472 36.418 39.3882 38.1266 37.6795C38.4821 37.324 38.8096 36.9403 39.1063 36.531L47.0231 42.1482L43.4267 44.2227C43.2093 44.3224 43.0583 44.5424 43.0583 44.7957V55.1759H43.0609C43.0609 55.3933 43.1734 55.6031 43.3755 55.7182L52.3282 60.8877C52.5201 61.0156 52.7784 61.0335 52.9907 60.9082L61.9281 55.7463C62.1455 55.6466 62.2964 55.4266 62.2964 55.1734L62.299 44.7984H62.2964C62.2964 44.581 62.1839 44.3713 61.9818 44.2536L57.5208 41.6778C57.5106 41.6701 57.5003 41.665 57.4875 41.6573L53.0009 39.0662C52.8117 38.9536 52.5687 38.9434 52.364 39.0611L48.2177 41.4552L39.7737 35.4672C40.49 34.1371 40.8941 32.6151 40.8941 30.9985C40.8941 28.9906 40.2674 27.1284 39.1982 25.5962L46.3246 20.5392L50.4633 22.9283C50.6526 23.0408 50.8956 23.0511 51.1003 22.9334L60.0376 17.7716C60.255 17.6718 60.406 17.4518 60.406 17.1986V6.81831H60.4034C60.4034 6.60089 60.2909 6.39114 60.0888 6.27348L51.1361 1.10652C50.9442 0.978628 50.6859 0.960718 50.4736 1.08606L45.9793 3.68231V3.68486L41.5362 6.25047C41.3188 6.35022 41.1679 6.5702 41.1679 6.82344V17.2037H41.1705C41.1705 17.4211 41.283 17.6309 41.4851 17.7485L45.1326 19.8537L38.4128 24.619C38.3182 24.5193 38.2236 24.4195 38.1264 24.3198C36.4151 22.6085 34.0541 21.5521 31.4452 21.5521C28.8362 21.5521 26.4726 22.6111 24.7614 24.3198C24.6642 24.417 24.5695 24.5167 24.4775 24.619L17.7577 19.8537L21.3541 17.7792C21.5715 17.6794 21.7224 17.4595 21.7224 17.2062V6.82595H21.7199C21.7199 6.60852 21.6073 6.39878 21.4052 6.28111L16.9442 3.70019C16.934 3.69251 16.9238 3.68484 16.911 3.67972L12.4167 1.08348C12.23 0.976045 11.9921 0.968371 11.79 1.08348L2.85268 6.24533C2.63526 6.34508 2.48434 6.56506 2.48434 6.8183V17.1986H2.4869C2.4869 17.416 2.59945 17.6257 2.80152 17.7434L7.26251 20.3192C7.27274 20.3269 7.28297 20.332 7.29576 20.3397L11.7824 22.9308C11.9716 23.0434 12.2146 23.0536 12.4193 22.9359L16.5656 20.5418L23.6921 25.5988C22.6229 27.1309 21.9962 28.9931 21.9962 31.0011C21.9962 32.6177 22.4029 34.1397 23.1166 35.4697L14.6706 41.4573ZM48.4988 42.7465L52.6784 40.3344L56.858 42.7465C56.8708 42.7542 56.881 42.7593 56.8938 42.7644L61.0402 45.1586V54.8172L56.8631 57.2293H56.8606L52.6784 59.644L44.3192 54.8172V45.1586L48.4681 42.7644C48.4783 42.7567 48.4885 42.7516 48.4988 42.7465ZM16.2847 19.2494L12.1051 21.6615L7.92547 19.2469C7.91268 19.2392 7.90245 19.2341 7.88966 19.229L3.74586 16.8373L3.7433 7.17868L12.1025 2.35191L16.2847 4.76657C16.2975 4.77169 16.3077 4.77936 16.3205 4.78448L20.4643 7.17865V16.8373L16.3154 19.2315C16.3052 19.2391 16.2949 19.2443 16.2847 19.2494ZM13.8931 49.8572C14.6272 49.7549 15.3076 50.2691 15.4099 51.0057C15.4841 51.5352 15.236 52.034 14.819 52.3103C14.8497 54.0778 14.223 55.3772 13.3278 56.0627C12.8751 56.408 12.3532 56.6025 11.8084 56.6255C11.2713 56.6485 10.7162 56.5078 10.1892 56.1855C9.30162 55.6432 8.48054 54.5638 7.97665 52.8679C7.6211 52.74 7.33461 52.4356 7.25019 52.0366C7.20159 51.8038 7.16066 51.5506 7.12229 51.2769C6.67466 51.1822 6.22702 50.9981 5.78704 50.7269C5.36755 50.4686 5.1757 49.98 5.2729 49.5247C4.99153 49.1436 4.76132 48.6832 4.6053 48.1383C4.37509 47.3326 4.30347 46.335 4.46718 45.1405C4.49531 44.9231 4.63344 44.7466 4.81761 44.6571L5.70012 44.1838C6.00451 44.0201 6.38565 44.1378 6.54936 44.4422C6.71051 44.7466 6.5954 45.1277 6.29101 45.2889L5.672 45.6188C5.58503 46.486 5.64642 47.2073 5.81268 47.7905C5.90732 48.1205 6.03522 48.4044 6.1887 48.6423C6.4496 48.5988 6.72842 48.6449 6.97141 48.7932C7.33719 49.0183 7.67227 49.113 7.97925 49.0797C8.3041 49.0439 8.6494 48.8623 9.01263 48.5374C9.22493 48.3456 9.49096 48.2509 9.75697 48.2484C9.87718 47.9721 9.9616 47.6549 9.99741 47.2994C10.0588 46.7085 9.99485 46.0102 9.75697 45.2096L9.08937 45.0101C8.75685 44.9103 8.56756 44.5599 8.66732 44.2274C8.76708 43.8949 9.11751 43.7056 9.45003 43.8053L10.4348 44.102C10.6446 44.1634 10.7955 44.3246 10.8569 44.519C11.2303 45.6214 11.3352 46.596 11.2482 47.4273C11.1868 48.008 11.0334 48.5196 10.8134 48.9569C10.9848 49.3841 10.8825 49.8931 10.5192 50.218C10.1458 50.5531 9.76213 50.814 9.36563 51.0007C9.39121 51.1823 9.4219 51.3665 9.46539 51.566C9.54468 51.9369 9.43213 52.3052 9.19425 52.5635C9.59329 53.8885 10.1995 54.7122 10.8466 55.1087C11.1536 55.2954 11.4631 55.3798 11.7572 55.367C12.0437 55.3542 12.32 55.2493 12.5681 55.0601C13.159 54.6073 13.5734 53.7044 13.5682 52.428C13.141 52.2515 12.8162 51.8601 12.7497 51.369C12.6448 50.6374 13.159 49.9596 13.8931 49.8572ZM14.3919 42.7465C14.4047 42.7542 14.4149 42.7593 14.4277 42.7644L18.574 45.1586V54.8172L10.2148 59.644L6.03264 57.2293C6.01985 57.2217 6.00962 57.2165 5.99683 57.2114L1.85048 54.8173V45.1586L6.02754 42.7465L6.0301 42.7439V42.7465L10.2097 40.3344L14.3919 42.7465ZM58.0628 51.195C58.1574 51.4125 58.2034 51.6452 58.2034 51.878C58.2034 52.318 58.0372 52.7553 57.7021 53.0905C57.367 53.4256 56.9271 53.5944 56.4896 53.5944V53.5969C56.2569 53.5969 56.0215 53.5509 55.8041 53.4537L58.0628 51.195ZM54.914 52.5609C54.8193 52.3435 54.7733 52.1107 54.7733 51.8779C54.7733 51.438 54.9396 51.0006 55.2746 50.6655C55.6097 50.3304 56.0497 50.1641 56.4871 50.1641C56.7199 50.1641 56.9527 50.2102 57.1701 50.3048L54.914 52.5609ZM58.5923 53.9831C58.0116 54.5638 57.2493 54.8554 56.4897 54.8554L56.4871 54.8503C55.7248 54.8503 54.9626 54.5612 54.3845 53.9831C53.8039 53.4025 53.5123 52.6402 53.5123 51.8806C53.5123 51.1183 53.8039 50.3586 54.3845 49.778C54.9652 49.1973 55.7275 48.9058 56.4871 48.9058C57.2468 48.9058 58.0065 49.1948 58.5871 49.7729L58.5923 49.778C59.1703 50.3586 59.4594 51.1184 59.4594 51.878C59.4619 52.6403 59.1703 53.4025 58.5923 53.9831ZM50.0231 53.2772C49.5524 53.7478 48.9308 53.9831 48.3118 53.9831C47.6928 53.9831 47.0713 53.7478 46.6006 53.2772C46.1299 52.8065 45.8946 52.1849 45.8946 51.5659C45.8946 50.9469 46.13 50.3254 46.6006 49.8547L50.6293 45.826C51.0999 45.3553 51.7215 45.12 52.3405 45.12C52.9595 45.12 53.5811 45.3554 54.0518 45.826L54.0543 45.8286C54.5224 46.2992 54.7577 46.9182 54.7577 47.5372C54.7577 48.1563 54.5224 48.7778 54.0518 49.2485L50.0231 53.2772ZM50.7725 49.1078L49.9515 48.2867L51.5194 46.7187C51.7445 46.4936 52.0412 46.3811 52.3405 46.3811C52.6372 46.3811 52.934 46.4911 53.1565 46.7162L53.1616 46.7213C53.3841 46.9464 53.4967 47.2431 53.4967 47.5398C53.4967 47.8391 53.3841 48.1358 53.1591 48.3609L51.5885 49.9314L50.7725 49.1078ZM49.1329 52.387C48.9078 52.6121 48.6111 52.7247 48.3118 52.7247C48.0151 52.7247 47.7158 52.6121 47.4908 52.387C47.2657 52.1619 47.1531 51.8652 47.1531 51.5659C47.1531 51.2666 47.2657 50.9699 47.4908 50.7448L49.0613 49.1769L50.7035 50.819L49.1329 52.387ZM14.1332 12.2482C14.7778 12.4298 15.3866 12.6959 15.9468 13.0361C17.108 13.7369 18.0622 14.7447 18.6965 15.9495L18.7016 15.9597C18.8628 16.2667 18.7451 16.6478 18.4381 16.809C18.3435 16.8576 18.2463 16.8806 18.1465 16.8806V16.8832L6.06045 16.8806C5.71257 16.8806 5.4312 16.5992 5.4312 16.2513C5.4312 16.1337 5.46446 16.0237 5.52073 15.929C6.15765 14.7345 7.11176 13.7292 8.27047 13.0309C8.82809 12.6958 9.43429 12.4298 10.0763 12.2482C10.0559 12.2278 10.0329 12.2073 10.0124 12.1868C9.47779 11.6522 9.14528 10.9104 9.14528 10.0945C9.14528 9.27849 9.47525 8.5367 10.0124 8.00211C10.547 7.4675 11.2862 7.13499 12.1048 7.13499C12.9207 7.13499 13.6625 7.46496 14.1971 8.00211C14.7317 8.53671 15.0642 9.27849 15.0642 10.0945C15.0642 10.9104 14.7343 11.6522 14.1971 12.1868C14.1741 12.2073 14.1537 12.2278 14.1332 12.2482ZM15.297 14.113C15.9519 14.5095 16.5274 15.021 16.9955 15.6221H7.21179C7.67988 15.0185 8.258 14.5018 8.91538 14.1079C9.84392 13.5477 10.9361 13.2254 12.1051 13.2254C13.2741 13.2279 14.3659 13.5502 15.297 14.113ZM13.3044 8.89226C13.6114 9.19921 13.8006 9.62383 13.8006 10.0944C13.8006 10.5625 13.6114 10.9897 13.3044 11.2966C12.9975 11.6036 12.5728 11.7954 12.1022 11.7954C11.6316 11.7954 11.2069 11.6062 10.9 11.2966C10.5931 10.9897 10.4038 10.5651 10.4038 10.0944C10.4038 9.62635 10.5931 9.19917 10.9 8.89226C11.207 8.58534 11.6316 8.39602 12.1022 8.39602C12.5728 8.39602 12.9975 8.58531 13.3044 8.89226ZM50.4094 16.7907C48.7314 15.5937 47.5215 14.3275 46.7158 13.1304H45.8538C45.5059 13.1304 45.2245 12.849 45.2245 12.5012C45.2245 12.1533 45.5059 11.8719 45.8538 11.8719H46.0021C45.7156 11.2478 45.5468 10.6594 45.4829 10.13C45.4036 9.45208 45.4905 8.85102 45.7284 8.36501C45.9868 7.83552 46.4114 7.4493 46.9844 7.24722C47.9078 6.92237 49.2175 7.127 50.7854 8.09135C52.3534 7.12699 53.6605 6.92498 54.5839 7.24722C55.1569 7.44674 55.5815 7.83298 55.8399 8.36501C56.0778 8.85101 56.1647 9.4547 56.0854 10.13C56.0241 10.6594 55.8527 11.2477 55.5688 11.8719H55.7171C56.065 11.8719 56.3464 12.1533 56.3464 12.5012C56.3464 12.849 56.065 13.1304 55.7171 13.1304H54.8551C54.0468 14.3326 52.8318 15.6013 51.1461 16.801C50.9236 16.9622 50.6217 16.9519 50.4094 16.7907ZM46.7336 9.98385C46.6825 9.54901 46.7285 9.18575 46.8615 8.9121C46.9741 8.68189 47.1557 8.51562 47.3987 8.42865C48.0407 8.20356 49.0792 8.444 50.4349 9.35464C50.6549 9.503 50.9363 9.49277 51.1434 9.34953C52.4966 8.44403 53.53 8.20614 54.172 8.43127C54.415 8.51568 54.5992 8.6845 54.7092 8.91471C54.8422 9.18841 54.8882 9.55163 54.8371 9.98646C54.7706 10.5441 54.5557 11.1835 54.1695 11.8716H53.2538L52.8189 11.1964C52.7985 11.1606 52.7729 11.1299 52.7447 11.0992L52.7243 11.0787L52.7115 11.0685C52.668 11.0276 52.6194 10.9943 52.5682 10.9687L52.5555 10.9636L52.5478 10.9611L52.5452 10.9585L52.535 10.9534L52.5324 10.9508C52.4608 10.9201 52.3866 10.9048 52.315 10.9022H52.2536C52.1794 10.9048 52.1053 10.9227 52.0362 10.9508L52.0336 10.9534L52.0209 10.9585L52.0183 10.9611L52.0106 10.9636L51.9978 10.9687C51.9467 10.9943 51.8981 11.0276 51.8546 11.0685L51.8469 11.0736L51.8265 11.0941C51.7983 11.1248 51.7727 11.158 51.7523 11.1913L51.0105 12.3423L51.0054 12.3474L49.9848 10.0914H49.9822C49.9131 9.94045 49.7853 9.81511 49.6164 9.75628C49.289 9.64117 48.9309 9.81511 48.8158 10.1425L48.4423 11.2143L48.2147 11.864H47.4012C47.015 11.181 46.8001 10.5415 46.7336 9.98385ZM48.2633 13.1275H48.6572C48.9513 13.1275 49.1969 12.928 49.266 12.6569L49.4808 12.043L50.3326 13.9205C50.4759 14.2377 50.8468 14.3784 51.1639 14.2351C51.2841 14.1814 51.3788 14.0944 51.4427 13.987L52.0617 13.0226L52.182 12.8359L52.1845 12.8333L52.2843 12.6799L52.3636 12.8026C52.471 12.9945 52.6782 13.1275 52.9135 13.1275H53.3074C52.6782 13.9077 51.8443 14.716 50.7853 15.5089C49.7263 14.716 48.8951 13.9077 48.2633 13.1275ZM59.147 7.17753V16.8362L54.97 19.2483H54.9674L50.7878 21.663L46.6082 19.2483C46.5954 19.2406 46.5852 19.2355 46.5724 19.2304L42.426 16.8388V7.17751L46.6031 4.76539L46.6056 4.76284V4.76539L50.7878 2.35073L59.147 7.17753ZM37.236 25.2058C35.755 23.7248 33.7061 22.8064 31.4449 22.8064C29.1836 22.8064 27.1348 23.7221 25.6537 25.2058C24.1702 26.6868 23.2544 28.7357 23.2544 30.9969C23.2544 33.2581 24.1701 35.307 25.6537 36.788C27.1348 38.2691 29.1836 39.1874 31.4449 39.1874C33.7061 39.1874 35.7549 38.2717 37.236 36.788C38.717 35.307 39.6354 33.2581 39.6354 30.9969C39.6354 28.7357 38.7171 26.6868 37.236 25.2058ZM32.8159 27.3825H30.0764V28.9965C30.0764 29.3444 29.7951 29.6258 29.4472 29.6258H27.8332V32.3653H29.4472C29.7951 32.3653 30.0764 32.6467 30.0764 32.9946V34.6086H32.8159V32.9946C32.8159 32.6467 33.0973 32.3653 33.4452 32.3653H35.0592V29.6258H33.4452C33.0973 29.6258 32.8159 29.3444 32.8159 28.9965V27.3825Z"></path></mask><path fill-rule="evenodd" clip-rule="evenodd" d="M29.4447 26.1252H33.4427C33.7906 26.1252 34.072 26.4066 34.072 26.7545V28.3685H35.686C36.0339 28.3685 36.3152 28.6498 36.3152 28.9977V32.9983C36.3152 33.3462 36.0339 33.6275 35.686 33.6275H34.072V35.2416C34.072 35.5894 33.7906 35.8708 33.4427 35.8708H29.4447C29.0968 35.8708 28.8155 35.5894 28.8155 35.2416V33.6275H27.2014C26.8536 33.6275 26.5722 33.3462 26.5722 32.9983V28.9977C26.5722 28.6498 26.8536 28.3685 27.2014 28.3685H28.8155V26.7545C28.8155 26.4066 29.0968 26.1252 29.4447 26.1252ZM14.6706 41.4573L10.5319 39.0682C10.3426 38.9557 10.0996 38.9454 9.89494 39.0631L5.40069 41.6593V41.6619L0.957572 44.2275C0.740151 44.3273 0.589233 44.5472 0.589233 44.8005V55.1807H0.591791C0.591791 55.3982 0.704342 55.6079 0.906415 55.723L5.36741 58.2988C5.37764 58.3065 5.38787 58.3142 5.40066 58.3193L9.89492 60.9155C10.0816 61.023 10.3195 61.0332 10.5216 60.9155L19.459 55.7537C19.6764 55.6539 19.8273 55.434 19.8273 55.1807L19.8299 44.7982H19.8273C19.8273 44.5807 19.7148 44.371 19.5127 44.2533L15.8651 42.1482L23.7819 36.531C24.0787 36.9403 24.4035 37.324 24.7616 37.6795C26.4729 39.3908 28.8339 40.4472 31.4454 40.4472C34.0545 40.4472 36.418 39.3882 38.1266 37.6795C38.4821 37.324 38.8096 36.9403 39.1063 36.531L47.0231 42.1482L43.4267 44.2227C43.2093 44.3224 43.0583 44.5424 43.0583 44.7957V55.1759H43.0609C43.0609 55.3933 43.1734 55.6031 43.3755 55.7182L52.3282 60.8877C52.5201 61.0156 52.7784 61.0335 52.9907 60.9082L61.9281 55.7463C62.1455 55.6466 62.2964 55.4266 62.2964 55.1734L62.299 44.7984H62.2964C62.2964 44.581 62.1839 44.3713 61.9818 44.2536L57.5208 41.6778C57.5106 41.6701 57.5003 41.665 57.4875 41.6573L53.0009 39.0662C52.8117 38.9536 52.5687 38.9434 52.364 39.0611L48.2177 41.4552L39.7737 35.4672C40.49 34.1371 40.8941 32.6151 40.8941 30.9985C40.8941 28.9906 40.2674 27.1284 39.1982 25.5962L46.3246 20.5392L50.4633 22.9283C50.6526 23.0408 50.8956 23.0511 51.1003 22.9334L60.0376 17.7716C60.255 17.6718 60.406 17.4518 60.406 17.1986V6.81831H60.4034C60.4034 6.60089 60.2909 6.39114 60.0888 6.27348L51.1361 1.10652C50.9442 0.978628 50.6859 0.960718 50.4736 1.08606L45.9793 3.68231V3.68486L41.5362 6.25047C41.3188 6.35022 41.1679 6.5702 41.1679 6.82344V17.2037H41.1705C41.1705 17.4211 41.283 17.6309 41.4851 17.7485L45.1326 19.8537L38.4128 24.619C38.3182 24.5193 38.2236 24.4195 38.1264 24.3198C36.4151 22.6085 34.0541 21.5521 31.4452 21.5521C28.8362 21.5521 26.4726 22.6111 24.7614 24.3198C24.6642 24.417 24.5695 24.5167 24.4775 24.619L17.7577 19.8537L21.3541 17.7792C21.5715 17.6794 21.7224 17.4595 21.7224 17.2062V6.82595H21.7199C21.7199 6.60852 21.6073 6.39878 21.4052 6.28111L16.9442 3.70019C16.934 3.69251 16.9238 3.68484 16.911 3.67972L12.4167 1.08348C12.23 0.976045 11.9921 0.968371 11.79 1.08348L2.85268 6.24533C2.63526 6.34508 2.48434 6.56506 2.48434 6.8183V17.1986H2.4869C2.4869 17.416 2.59945 17.6257 2.80152 17.7434L7.26251 20.3192C7.27274 20.3269 7.28297 20.332 7.29576 20.3397L11.7824 22.9308C11.9716 23.0434 12.2146 23.0536 12.4193 22.9359L16.5656 20.5418L23.6921 25.5988C22.6229 27.1309 21.9962 28.9931 21.9962 31.0011C21.9962 32.6177 22.4029 34.1397 23.1166 35.4697L14.6706 41.4573ZM48.4988 42.7465L52.6784 40.3344L56.858 42.7465C56.8708 42.7542 56.881 42.7593 56.8938 42.7644L61.0402 45.1586V54.8172L56.8631 57.2293H56.8606L52.6784 59.644L44.3192 54.8172V45.1586L48.4681 42.7644C48.4783 42.7567 48.4885 42.7516 48.4988 42.7465ZM16.2847 19.2494L12.1051 21.6615L7.92547 19.2469C7.91268 19.2392 7.90245 19.2341 7.88966 19.229L3.74586 16.8373L3.7433 7.17868L12.1025 2.35191L16.2847 4.76657C16.2975 4.77169 16.3077 4.77936 16.3205 4.78448L20.4643 7.17865V16.8373L16.3154 19.2315C16.3052 19.2391 16.2949 19.2443 16.2847 19.2494ZM13.8931 49.8572C14.6272 49.7549 15.3076 50.2691 15.4099 51.0057C15.4841 51.5352 15.236 52.034 14.819 52.3103C14.8497 54.0778 14.223 55.3772 13.3278 56.0627C12.8751 56.408 12.3532 56.6025 11.8084 56.6255C11.2713 56.6485 10.7162 56.5078 10.1892 56.1855C9.30162 55.6432 8.48054 54.5638 7.97665 52.8679C7.6211 52.74 7.33461 52.4356 7.25019 52.0366C7.20159 51.8038 7.16066 51.5506 7.12229 51.2769C6.67466 51.1822 6.22702 50.9981 5.78704 50.7269C5.36755 50.4686 5.1757 49.98 5.2729 49.5247C4.99153 49.1436 4.76132 48.6832 4.6053 48.1383C4.37509 47.3326 4.30347 46.335 4.46718 45.1405C4.49531 44.9231 4.63344 44.7466 4.81761 44.6571L5.70012 44.1838C6.00451 44.0201 6.38565 44.1378 6.54936 44.4422C6.71051 44.7466 6.5954 45.1277 6.29101 45.2889L5.672 45.6188C5.58503 46.486 5.64642 47.2073 5.81268 47.7905C5.90732 48.1205 6.03522 48.4044 6.1887 48.6423C6.4496 48.5988 6.72842 48.6449 6.97141 48.7932C7.33719 49.0183 7.67227 49.113 7.97925 49.0797C8.3041 49.0439 8.6494 48.8623 9.01263 48.5374C9.22493 48.3456 9.49096 48.2509 9.75697 48.2484C9.87718 47.9721 9.9616 47.6549 9.99741 47.2994C10.0588 46.7085 9.99485 46.0102 9.75697 45.2096L9.08937 45.0101C8.75685 44.9103 8.56756 44.5599 8.66732 44.2274C8.76708 43.8949 9.11751 43.7056 9.45003 43.8053L10.4348 44.102C10.6446 44.1634 10.7955 44.3246 10.8569 44.519C11.2303 45.6214 11.3352 46.596 11.2482 47.4273C11.1868 48.008 11.0334 48.5196 10.8134 48.9569C10.9848 49.3841 10.8825 49.8931 10.5192 50.218C10.1458 50.5531 9.76213 50.814 9.36563 51.0007C9.39121 51.1823 9.4219 51.3665 9.46539 51.566C9.54468 51.9369 9.43213 52.3052 9.19425 52.5635C9.59329 53.8885 10.1995 54.7122 10.8466 55.1087C11.1536 55.2954 11.4631 55.3798 11.7572 55.367C12.0437 55.3542 12.32 55.2493 12.5681 55.0601C13.159 54.6073 13.5734 53.7044 13.5682 52.428C13.141 52.2515 12.8162 51.8601 12.7497 51.369C12.6448 50.6374 13.159 49.9596 13.8931 49.8572ZM14.3919 42.7465C14.4047 42.7542 14.4149 42.7593 14.4277 42.7644L18.574 45.1586V54.8172L10.2148 59.644L6.03264 57.2293C6.01985 57.2217 6.00962 57.2165 5.99683 57.2114L1.85048 54.8173V45.1586L6.02754 42.7465L6.0301 42.7439V42.7465L10.2097 40.3344L14.3919 42.7465ZM58.0628 51.195C58.1574 51.4125 58.2034 51.6452 58.2034 51.878C58.2034 52.318 58.0372 52.7553 57.7021 53.0905C57.367 53.4256 56.9271 53.5944 56.4896 53.5944V53.5969C56.2569 53.5969 56.0215 53.5509 55.8041 53.4537L58.0628 51.195ZM54.914 52.5609C54.8193 52.3435 54.7733 52.1107 54.7733 51.8779C54.7733 51.438 54.9396 51.0006 55.2746 50.6655C55.6097 50.3304 56.0497 50.1641 56.4871 50.1641C56.7199 50.1641 56.9527 50.2102 57.1701 50.3048L54.914 52.5609ZM58.5923 53.9831C58.0116 54.5638 57.2493 54.8554 56.4897 54.8554L56.4871 54.8503C55.7248 54.8503 54.9626 54.5612 54.3845 53.9831C53.8039 53.4025 53.5123 52.6402 53.5123 51.8806C53.5123 51.1183 53.8039 50.3586 54.3845 49.778C54.9652 49.1973 55.7275 48.9058 56.4871 48.9058C57.2468 48.9058 58.0065 49.1948 58.5871 49.7729L58.5923 49.778C59.1703 50.3586 59.4594 51.1184 59.4594 51.878C59.4619 52.6403 59.1703 53.4025 58.5923 53.9831ZM50.0231 53.2772C49.5524 53.7478 48.9308 53.9831 48.3118 53.9831C47.6928 53.9831 47.0713 53.7478 46.6006 53.2772C46.1299 52.8065 45.8946 52.1849 45.8946 51.5659C45.8946 50.9469 46.13 50.3254 46.6006 49.8547L50.6293 45.826C51.0999 45.3553 51.7215 45.12 52.3405 45.12C52.9595 45.12 53.5811 45.3554 54.0518 45.826L54.0543 45.8286C54.5224 46.2992 54.7577 46.9182 54.7577 47.5372C54.7577 48.1563 54.5224 48.7778 54.0518 49.2485L50.0231 53.2772ZM50.7725 49.1078L49.9515 48.2867L51.5194 46.7187C51.7445 46.4936 52.0412 46.3811 52.3405 46.3811C52.6372 46.3811 52.934 46.4911 53.1565 46.7162L53.1616 46.7213C53.3841 46.9464 53.4967 47.2431 53.4967 47.5398C53.4967 47.8391 53.3841 48.1358 53.1591 48.3609L51.5885 49.9314L50.7725 49.1078ZM49.1329 52.387C48.9078 52.6121 48.6111 52.7247 48.3118 52.7247C48.0151 52.7247 47.7158 52.6121 47.4908 52.387C47.2657 52.1619 47.1531 51.8652 47.1531 51.5659C47.1531 51.2666 47.2657 50.9699 47.4908 50.7448L49.0613 49.1769L50.7035 50.819L49.1329 52.387ZM14.1332 12.2482C14.7778 12.4298 15.3866 12.6959 15.9468 13.0361C17.108 13.7369 18.0622 14.7447 18.6965 15.9495L18.7016 15.9597C18.8628 16.2667 18.7451 16.6478 18.4381 16.809C18.3435 16.8576 18.2463 16.8806 18.1465 16.8806V16.8832L6.06045 16.8806C5.71257 16.8806 5.4312 16.5992 5.4312 16.2513C5.4312 16.1337 5.46446 16.0237 5.52073 15.929C6.15765 14.7345 7.11176 13.7292 8.27047 13.0309C8.82809 12.6958 9.43429 12.4298 10.0763 12.2482C10.0559 12.2278 10.0329 12.2073 10.0124 12.1868C9.47779 11.6522 9.14528 10.9104 9.14528 10.0945C9.14528 9.27849 9.47525 8.5367 10.0124 8.00211C10.547 7.4675 11.2862 7.13499 12.1048 7.13499C12.9207 7.13499 13.6625 7.46496 14.1971 8.00211C14.7317 8.53671 15.0642 9.27849 15.0642 10.0945C15.0642 10.9104 14.7343 11.6522 14.1971 12.1868C14.1741 12.2073 14.1537 12.2278 14.1332 12.2482ZM15.297 14.113C15.9519 14.5095 16.5274 15.021 16.9955 15.6221H7.21179C7.67988 15.0185 8.258 14.5018 8.91538 14.1079C9.84392 13.5477 10.9361 13.2254 12.1051 13.2254C13.2741 13.2279 14.3659 13.5502 15.297 14.113ZM13.3044 8.89226C13.6114 9.19921 13.8006 9.62383 13.8006 10.0944C13.8006 10.5625 13.6114 10.9897 13.3044 11.2966C12.9975 11.6036 12.5728 11.7954 12.1022 11.7954C11.6316 11.7954 11.2069 11.6062 10.9 11.2966C10.5931 10.9897 10.4038 10.5651 10.4038 10.0944C10.4038 9.62635 10.5931 9.19917 10.9 8.89226C11.207 8.58534 11.6316 8.39602 12.1022 8.39602C12.5728 8.39602 12.9975 8.58531 13.3044 8.89226ZM50.4094 16.7907C48.7314 15.5937 47.5215 14.3275 46.7158 13.1304H45.8538C45.5059 13.1304 45.2245 12.849 45.2245 12.5012C45.2245 12.1533 45.5059 11.8719 45.8538 11.8719H46.0021C45.7156 11.2478 45.5468 10.6594 45.4829 10.13C45.4036 9.45208 45.4905 8.85102 45.7284 8.36501C45.9868 7.83552 46.4114 7.4493 46.9844 7.24722C47.9078 6.92237 49.2175 7.127 50.7854 8.09135C52.3534 7.12699 53.6605 6.92498 54.5839 7.24722C55.1569 7.44674 55.5815 7.83298 55.8399 8.36501C56.0778 8.85101 56.1647 9.4547 56.0854 10.13C56.0241 10.6594 55.8527 11.2477 55.5688 11.8719H55.7171C56.065 11.8719 56.3464 12.1533 56.3464 12.5012C56.3464 12.849 56.065 13.1304 55.7171 13.1304H54.8551C54.0468 14.3326 52.8318 15.6013 51.1461 16.801C50.9236 16.9622 50.6217 16.9519 50.4094 16.7907ZM46.7336 9.98385C46.6825 9.54901 46.7285 9.18575 46.8615 8.9121C46.9741 8.68189 47.1557 8.51562 47.3987 8.42865C48.0407 8.20356 49.0792 8.444 50.4349 9.35464C50.6549 9.503 50.9363 9.49277 51.1434 9.34953C52.4966 8.44403 53.53 8.20614 54.172 8.43127C54.415 8.51568 54.5992 8.6845 54.7092 8.91471C54.8422 9.18841 54.8882 9.55163 54.8371 9.98646C54.7706 10.5441 54.5557 11.1835 54.1695 11.8716H53.2538L52.8189 11.1964C52.7985 11.1606 52.7729 11.1299 52.7447 11.0992L52.7243 11.0787L52.7115 11.0685C52.668 11.0276 52.6194 10.9943 52.5682 10.9687L52.5555 10.9636L52.5478 10.9611L52.5452 10.9585L52.535 10.9534L52.5324 10.9508C52.4608 10.9201 52.3866 10.9048 52.315 10.9022H52.2536C52.1794 10.9048 52.1053 10.9227 52.0362 10.9508L52.0336 10.9534L52.0209 10.9585L52.0183 10.9611L52.0106 10.9636L51.9978 10.9687C51.9467 10.9943 51.8981 11.0276 51.8546 11.0685L51.8469 11.0736L51.8265 11.0941C51.7983 11.1248 51.7727 11.158 51.7523 11.1913L51.0105 12.3423L51.0054 12.3474L49.9848 10.0914H49.9822C49.9131 9.94045 49.7853 9.81511 49.6164 9.75628C49.289 9.64117 48.9309 9.81511 48.8158 10.1425L48.4423 11.2143L48.2147 11.864H47.4012C47.015 11.181 46.8001 10.5415 46.7336 9.98385ZM48.2633 13.1275H48.6572C48.9513 13.1275 49.1969 12.928 49.266 12.6569L49.4808 12.043L50.3326 13.9205C50.4759 14.2377 50.8468 14.3784 51.1639 14.2351C51.2841 14.1814 51.3788 14.0944 51.4427 13.987L52.0617 13.0226L52.182 12.8359L52.1845 12.8333L52.2843 12.6799L52.3636 12.8026C52.471 12.9945 52.6782 13.1275 52.9135 13.1275H53.3074C52.6782 13.9077 51.8443 14.716 50.7853 15.5089C49.7263 14.716 48.8951 13.9077 48.2633 13.1275ZM59.147 7.17753V16.8362L54.97 19.2483H54.9674L50.7878 21.663L46.6082 19.2483C46.5954 19.2406 46.5852 19.2355 46.5724 19.2304L42.426 16.8388V7.17751L46.6031 4.76539L46.6056 4.76284V4.76539L50.7878 2.35073L59.147 7.17753ZM37.236 25.2058C35.755 23.7248 33.7061 22.8064 31.4449 22.8064C29.1836 22.8064 27.1348 23.7221 25.6537 25.2058C24.1702 26.6868 23.2544 28.7357 23.2544 30.9969C23.2544 33.2581 24.1701 35.307 25.6537 36.788C27.1348 38.2691 29.1836 39.1874 31.4449 39.1874C33.7061 39.1874 35.7549 38.2717 37.236 36.788C38.717 35.307 39.6354 33.2581 39.6354 30.9969C39.6354 28.7357 38.7171 26.6868 37.236 25.2058ZM32.8159 27.3825H30.0764V28.9965C30.0764 29.3444 29.7951 29.6258 29.4472 29.6258H27.8332V32.3653H29.4472C29.7951 32.3653 30.0764 32.6467 30.0764 32.9946V34.6086H32.8159V32.9946C32.8159 32.6467 33.0973 32.3653 33.4452 32.3653H35.0592V29.6258H33.4452C33.0973 29.6258 32.8159 29.3444 32.8159 28.9965V27.3825Z" fill="#0CB4C4"></path><path fill-rule="evenodd" clip-rule="evenodd" d="M29.4447 26.1252H33.4427C33.7906 26.1252 34.072 26.4066 34.072 26.7545V28.3685H35.686C36.0339 28.3685 36.3152 28.6498 36.3152 28.9977V32.9983C36.3152 33.3462 36.0339 33.6275 35.686 33.6275H34.072V35.2416C34.072 35.5894 33.7906 35.8708 33.4427 35.8708H29.4447C29.0968 35.8708 28.8155 35.5894 28.8155 35.2416V33.6275H27.2014C26.8536 33.6275 26.5722 33.3462 26.5722 32.9983V28.9977C26.5722 28.6498 26.8536 28.3685 27.2014 28.3685H28.8155V26.7545C28.8155 26.4066 29.0968 26.1252 29.4447 26.1252ZM14.6706 41.4573L10.5319 39.0682C10.3426 38.9557 10.0996 38.9454 9.89494 39.0631L5.40069 41.6593V41.6619L0.957572 44.2275C0.740151 44.3273 0.589233 44.5472 0.589233 44.8005V55.1807H0.591791C0.591791 55.3982 0.704342 55.6079 0.906415 55.723L5.36741 58.2988C5.37764 58.3065 5.38787 58.3142 5.40066 58.3193L9.89492 60.9155C10.0816 61.023 10.3195 61.0332 10.5216 60.9155L19.459 55.7537C19.6764 55.6539 19.8273 55.434 19.8273 55.1807L19.8299 44.7982H19.8273C19.8273 44.5807 19.7148 44.371 19.5127 44.2533L15.8651 42.1482L23.7819 36.531C24.0787 36.9403 24.4035 37.324 24.7616 37.6795C26.4729 39.3908 28.8339 40.4472 31.4454 40.4472C34.0545 40.4472 36.418 39.3882 38.1266 37.6795C38.4821 37.324 38.8096 36.9403 39.1063 36.531L47.0231 42.1482L43.4267 44.2227C43.2093 44.3224 43.0583 44.5424 43.0583 44.7957V55.1759H43.0609C43.0609 55.3933 43.1734 55.6031 43.3755 55.7182L52.3282 60.8877C52.5201 61.0156 52.7784 61.0335 52.9907 60.9082L61.9281 55.7463C62.1455 55.6466 62.2964 55.4266 62.2964 55.1734L62.299 44.7984H62.2964C62.2964 44.581 62.1839 44.3713 61.9818 44.2536L57.5208 41.6778C57.5106 41.6701 57.5003 41.665 57.4875 41.6573L53.0009 39.0662C52.8117 38.9536 52.5687 38.9434 52.364 39.0611L48.2177 41.4552L39.7737 35.4672C40.49 34.1371 40.8941 32.6151 40.8941 30.9985C40.8941 28.9906 40.2674 27.1284 39.1982 25.5962L46.3246 20.5392L50.4633 22.9283C50.6526 23.0408 50.8956 23.0511 51.1003 22.9334L60.0376 17.7716C60.255 17.6718 60.406 17.4518 60.406 17.1986V6.81831H60.4034C60.4034 6.60089 60.2909 6.39114 60.0888 6.27348L51.1361 1.10652C50.9442 0.978628 50.6859 0.960718 50.4736 1.08606L45.9793 3.68231V3.68486L41.5362 6.25047C41.3188 6.35022 41.1679 6.5702 41.1679 6.82344V17.2037H41.1705C41.1705 17.4211 41.283 17.6309 41.4851 17.7485L45.1326 19.8537L38.4128 24.619C38.3182 24.5193 38.2236 24.4195 38.1264 24.3198C36.4151 22.6085 34.0541 21.5521 31.4452 21.5521C28.8362 21.5521 26.4726 22.6111 24.7614 24.3198C24.6642 24.417 24.5695 24.5167 24.4775 24.619L17.7577 19.8537L21.3541 17.7792C21.5715 17.6794 21.7224 17.4595 21.7224 17.2062V6.82595H21.7199C21.7199 6.60852 21.6073 6.39878 21.4052 6.28111L16.9442 3.70019C16.934 3.69251 16.9238 3.68484 16.911 3.67972L12.4167 1.08348C12.23 0.976045 11.9921 0.968371 11.79 1.08348L2.85268 6.24533C2.63526 6.34508 2.48434 6.56506 2.48434 6.8183V17.1986H2.4869C2.4869 17.416 2.59945 17.6257 2.80152 17.7434L7.26251 20.3192C7.27274 20.3269 7.28297 20.332 7.29576 20.3397L11.7824 22.9308C11.9716 23.0434 12.2146 23.0536 12.4193 22.9359L16.5656 20.5418L23.6921 25.5988C22.6229 27.1309 21.9962 28.9931 21.9962 31.0011C21.9962 32.6177 22.4029 34.1397 23.1166 35.4697L14.6706 41.4573ZM48.4988 42.7465L52.6784 40.3344L56.858 42.7465C56.8708 42.7542 56.881 42.7593 56.8938 42.7644L61.0402 45.1586V54.8172L56.8631 57.2293H56.8606L52.6784 59.644L44.3192 54.8172V45.1586L48.4681 42.7644C48.4783 42.7567 48.4885 42.7516 48.4988 42.7465ZM16.2847 19.2494L12.1051 21.6615L7.92547 19.2469C7.91268 19.2392 7.90245 19.2341 7.88966 19.229L3.74586 16.8373L3.7433 7.17868L12.1025 2.35191L16.2847 4.76657C16.2975 4.77169 16.3077 4.77936 16.3205 4.78448L20.4643 7.17865V16.8373L16.3154 19.2315C16.3052 19.2391 16.2949 19.2443 16.2847 19.2494ZM13.8931 49.8572C14.6272 49.7549 15.3076 50.2691 15.4099 51.0057C15.4841 51.5352 15.236 52.034 14.819 52.3103C14.8497 54.0778 14.223 55.3772 13.3278 56.0627C12.8751 56.408 12.3532 56.6025 11.8084 56.6255C11.2713 56.6485 10.7162 56.5078 10.1892 56.1855C9.30162 55.6432 8.48054 54.5638 7.97665 52.8679C7.6211 52.74 7.33461 52.4356 7.25019 52.0366C7.20159 51.8038 7.16066 51.5506 7.12229 51.2769C6.67466 51.1822 6.22702 50.9981 5.78704 50.7269C5.36755 50.4686 5.1757 49.98 5.2729 49.5247C4.99153 49.1436 4.76132 48.6832 4.6053 48.1383C4.37509 47.3326 4.30347 46.335 4.46718 45.1405C4.49531 44.9231 4.63344 44.7466 4.81761 44.6571L5.70012 44.1838C6.00451 44.0201 6.38565 44.1378 6.54936 44.4422C6.71051 44.7466 6.5954 45.1277 6.29101 45.2889L5.672 45.6188C5.58503 46.486 5.64642 47.2073 5.81268 47.7905C5.90732 48.1205 6.03522 48.4044 6.1887 48.6423C6.4496 48.5988 6.72842 48.6449 6.97141 48.7932C7.33719 49.0183 7.67227 49.113 7.97925 49.0797C8.3041 49.0439 8.6494 48.8623 9.01263 48.5374C9.22493 48.3456 9.49096 48.2509 9.75697 48.2484C9.87718 47.9721 9.9616 47.6549 9.99741 47.2994C10.0588 46.7085 9.99485 46.0102 9.75697 45.2096L9.08937 45.0101C8.75685 44.9103 8.56756 44.5599 8.66732 44.2274C8.76708 43.8949 9.11751 43.7056 9.45003 43.8053L10.4348 44.102C10.6446 44.1634 10.7955 44.3246 10.8569 44.519C11.2303 45.6214 11.3352 46.596 11.2482 47.4273C11.1868 48.008 11.0334 48.5196 10.8134 48.9569C10.9848 49.3841 10.8825 49.8931 10.5192 50.218C10.1458 50.5531 9.76213 50.814 9.36563 51.0007C9.39121 51.1823 9.4219 51.3665 9.46539 51.566C9.54468 51.9369 9.43213 52.3052 9.19425 52.5635C9.59329 53.8885 10.1995 54.7122 10.8466 55.1087C11.1536 55.2954 11.4631 55.3798 11.7572 55.367C12.0437 55.3542 12.32 55.2493 12.5681 55.0601C13.159 54.6073 13.5734 53.7044 13.5682 52.428C13.141 52.2515 12.8162 51.8601 12.7497 51.369C12.6448 50.6374 13.159 49.9596 13.8931 49.8572ZM14.3919 42.7465C14.4047 42.7542 14.4149 42.7593 14.4277 42.7644L18.574 45.1586V54.8172L10.2148 59.644L6.03264 57.2293C6.01985 57.2217 6.00962 57.2165 5.99683 57.2114L1.85048 54.8173V45.1586L6.02754 42.7465L6.0301 42.7439V42.7465L10.2097 40.3344L14.3919 42.7465ZM58.0628 51.195C58.1574 51.4125 58.2034 51.6452 58.2034 51.878C58.2034 52.318 58.0372 52.7553 57.7021 53.0905C57.367 53.4256 56.9271 53.5944 56.4896 53.5944V53.5969C56.2569 53.5969 56.0215 53.5509 55.8041 53.4537L58.0628 51.195ZM54.914 52.5609C54.8193 52.3435 54.7733 52.1107 54.7733 51.8779C54.7733 51.438 54.9396 51.0006 55.2746 50.6655C55.6097 50.3304 56.0497 50.1641 56.4871 50.1641C56.7199 50.1641 56.9527 50.2102 57.1701 50.3048L54.914 52.5609ZM58.5923 53.9831C58.0116 54.5638 57.2493 54.8554 56.4897 54.8554L56.4871 54.8503C55.7248 54.8503 54.9626 54.5612 54.3845 53.9831C53.8039 53.4025 53.5123 52.6402 53.5123 51.8806C53.5123 51.1183 53.8039 50.3586 54.3845 49.778C54.9652 49.1973 55.7275 48.9058 56.4871 48.9058C57.2468 48.9058 58.0065 49.1948 58.5871 49.7729L58.5923 49.778C59.1703 50.3586 59.4594 51.1184 59.4594 51.878C59.4619 52.6403 59.1703 53.4025 58.5923 53.9831ZM50.0231 53.2772C49.5524 53.7478 48.9308 53.9831 48.3118 53.9831C47.6928 53.9831 47.0713 53.7478 46.6006 53.2772C46.1299 52.8065 45.8946 52.1849 45.8946 51.5659C45.8946 50.9469 46.13 50.3254 46.6006 49.8547L50.6293 45.826C51.0999 45.3553 51.7215 45.12 52.3405 45.12C52.9595 45.12 53.5811 45.3554 54.0518 45.826L54.0543 45.8286C54.5224 46.2992 54.7577 46.9182 54.7577 47.5372C54.7577 48.1563 54.5224 48.7778 54.0518 49.2485L50.0231 53.2772ZM50.7725 49.1078L49.9515 48.2867L51.5194 46.7187C51.7445 46.4936 52.0412 46.3811 52.3405 46.3811C52.6372 46.3811 52.934 46.4911 53.1565 46.7162L53.1616 46.7213C53.3841 46.9464 53.4967 47.2431 53.4967 47.5398C53.4967 47.8391 53.3841 48.1358 53.1591 48.3609L51.5885 49.9314L50.7725 49.1078ZM49.1329 52.387C48.9078 52.6121 48.6111 52.7247 48.3118 52.7247C48.0151 52.7247 47.7158 52.6121 47.4908 52.387C47.2657 52.1619 47.1531 51.8652 47.1531 51.5659C47.1531 51.2666 47.2657 50.9699 47.4908 50.7448L49.0613 49.1769L50.7035 50.819L49.1329 52.387ZM14.1332 12.2482C14.7778 12.4298 15.3866 12.6959 15.9468 13.0361C17.108 13.7369 18.0622 14.7447 18.6965 15.9495L18.7016 15.9597C18.8628 16.2667 18.7451 16.6478 18.4381 16.809C18.3435 16.8576 18.2463 16.8806 18.1465 16.8806V16.8832L6.06045 16.8806C5.71257 16.8806 5.4312 16.5992 5.4312 16.2513C5.4312 16.1337 5.46446 16.0237 5.52073 15.929C6.15765 14.7345 7.11176 13.7292 8.27047 13.0309C8.82809 12.6958 9.43429 12.4298 10.0763 12.2482C10.0559 12.2278 10.0329 12.2073 10.0124 12.1868C9.47779 11.6522 9.14528 10.9104 9.14528 10.0945C9.14528 9.27849 9.47525 8.5367 10.0124 8.00211C10.547 7.4675 11.2862 7.13499 12.1048 7.13499C12.9207 7.13499 13.6625 7.46496 14.1971 8.00211C14.7317 8.53671 15.0642 9.27849 15.0642 10.0945C15.0642 10.9104 14.7343 11.6522 14.1971 12.1868C14.1741 12.2073 14.1537 12.2278 14.1332 12.2482ZM15.297 14.113C15.9519 14.5095 16.5274 15.021 16.9955 15.6221H7.21179C7.67988 15.0185 8.258 14.5018 8.91538 14.1079C9.84392 13.5477 10.9361 13.2254 12.1051 13.2254C13.2741 13.2279 14.3659 13.5502 15.297 14.113ZM13.3044 8.89226C13.6114 9.19921 13.8006 9.62383 13.8006 10.0944C13.8006 10.5625 13.6114 10.9897 13.3044 11.2966C12.9975 11.6036 12.5728 11.7954 12.1022 11.7954C11.6316 11.7954 11.2069 11.6062 10.9 11.2966C10.5931 10.9897 10.4038 10.5651 10.4038 10.0944C10.4038 9.62635 10.5931 9.19917 10.9 8.89226C11.207 8.58534 11.6316 8.39602 12.1022 8.39602C12.5728 8.39602 12.9975 8.58531 13.3044 8.89226ZM50.4094 16.7907C48.7314 15.5937 47.5215 14.3275 46.7158 13.1304H45.8538C45.5059 13.1304 45.2245 12.849 45.2245 12.5012C45.2245 12.1533 45.5059 11.8719 45.8538 11.8719H46.0021C45.7156 11.2478 45.5468 10.6594 45.4829 10.13C45.4036 9.45208 45.4905 8.85102 45.7284 8.36501C45.9868 7.83552 46.4114 7.4493 46.9844 7.24722C47.9078 6.92237 49.2175 7.127 50.7854 8.09135C52.3534 7.12699 53.6605 6.92498 54.5839 7.24722C55.1569 7.44674 55.5815 7.83298 55.8399 8.36501C56.0778 8.85101 56.1647 9.4547 56.0854 10.13C56.0241 10.6594 55.8527 11.2477 55.5688 11.8719H55.7171C56.065 11.8719 56.3464 12.1533 56.3464 12.5012C56.3464 12.849 56.065 13.1304 55.7171 13.1304H54.8551C54.0468 14.3326 52.8318 15.6013 51.1461 16.801C50.9236 16.9622 50.6217 16.9519 50.4094 16.7907ZM46.7336 9.98385C46.6825 9.54901 46.7285 9.18575 46.8615 8.9121C46.9741 8.68189 47.1557 8.51562 47.3987 8.42865C48.0407 8.20356 49.0792 8.444 50.4349 9.35464C50.6549 9.503 50.9363 9.49277 51.1434 9.34953C52.4966 8.44403 53.53 8.20614 54.172 8.43127C54.415 8.51568 54.5992 8.6845 54.7092 8.91471C54.8422 9.18841 54.8882 9.55163 54.8371 9.98646C54.7706 10.5441 54.5557 11.1835 54.1695 11.8716H53.2538L52.8189 11.1964C52.7985 11.1606 52.7729 11.1299 52.7447 11.0992L52.7243 11.0787L52.7115 11.0685C52.668 11.0276 52.6194 10.9943 52.5682 10.9687L52.5555 10.9636L52.5478 10.9611L52.5452 10.9585L52.535 10.9534L52.5324 10.9508C52.4608 10.9201 52.3866 10.9048 52.315 10.9022H52.2536C52.1794 10.9048 52.1053 10.9227 52.0362 10.9508L52.0336 10.9534L52.0209 10.9585L52.0183 10.9611L52.0106 10.9636L51.9978 10.9687C51.9467 10.9943 51.8981 11.0276 51.8546 11.0685L51.8469 11.0736L51.8265 11.0941C51.7983 11.1248 51.7727 11.158 51.7523 11.1913L51.0105 12.3423L51.0054 12.3474L49.9848 10.0914H49.9822C49.9131 9.94045 49.7853 9.81511 49.6164 9.75628C49.289 9.64117 48.9309 9.81511 48.8158 10.1425L48.4423 11.2143L48.2147 11.864H47.4012C47.015 11.181 46.8001 10.5415 46.7336 9.98385ZM48.2633 13.1275H48.6572C48.9513 13.1275 49.1969 12.928 49.266 12.6569L49.4808 12.043L50.3326 13.9205C50.4759 14.2377 50.8468 14.3784 51.1639 14.2351C51.2841 14.1814 51.3788 14.0944 51.4427 13.987L52.0617 13.0226L52.182 12.8359L52.1845 12.8333L52.2843 12.6799L52.3636 12.8026C52.471 12.9945 52.6782 13.1275 52.9135 13.1275H53.3074C52.6782 13.9077 51.8443 14.716 50.7853 15.5089C49.7263 14.716 48.8951 13.9077 48.2633 13.1275ZM59.147 7.17753V16.8362L54.97 19.2483H54.9674L50.7878 21.663L46.6082 19.2483C46.5954 19.2406 46.5852 19.2355 46.5724 19.2304L42.426 16.8388V7.17751L46.6031 4.76539L46.6056 4.76284V4.76539L50.7878 2.35073L59.147 7.17753ZM37.236 25.2058C35.755 23.7248 33.7061 22.8064 31.4449 22.8064C29.1836 22.8064 27.1348 23.7221 25.6537 25.2058C24.1702 26.6868 23.2544 28.7357 23.2544 30.9969C23.2544 33.2581 24.1701 35.307 25.6537 36.788C27.1348 38.2691 29.1836 39.1874 31.4449 39.1874C33.7061 39.1874 35.7549 38.2717 37.236 36.788C38.717 35.307 39.6354 33.2581 39.6354 30.9969C39.6354 28.7357 38.7171 26.6868 37.236 25.2058ZM32.8159 27.3825H30.0764V28.9965C30.0764 29.3444 29.7951 29.6258 29.4472 29.6258H27.8332V32.3653H29.4472C29.7951 32.3653 30.0764 32.6467 30.0764 32.9946V34.6086H32.8159V32.9946C32.8159 32.6467 33.0973 32.3653 33.4452 32.3653H35.0592V29.6258H33.4452C33.0973 29.6258 32.8159 29.3444 32.8159 28.9965V27.3825Z" stroke="#0CB4C4" stroke-width="0.4" mask="url(#path-1-outside-1_3973_59)"></path></svg>