<svg xmlns="http://www.w3.org/2000/svg" xmlns:xlink="http://www.w3.org/1999/xlink" version="1.1" id="Layer_1" x="0px" y="0px" width="60px" height="60px" viewBox="0 0 60 60" style="enable-background:new 0 0 60 60;" xml:space="preserve"><g><path style="fill:#0CB4C4;" d="M31.535,50.322h-0.567c-1.067,0-1.936,0.868-1.936,1.936v1.936c0,1.067,0.868,1.936,1.936,1.936 h0.567c0.509,0,1.008-0.206,1.368-0.566l2.336-2.337l-2.336-2.336C32.543,50.529,32.044,50.322,31.535,50.322z M31.535,54.193 h-0.567v-1.936h0.567l0.968,0.968L31.535,54.193z"></path><path style="fill:#0CB4C4;" d="M42.581,50.322h-1.936c-1.067,0-1.936,0.868-1.936,1.936v1.936c0,1.067,0.868,1.936,1.936,1.936 h1.936c1.066,0,1.936-0.868,1.936-1.936v-1.936C44.517,51.19,43.647,50.322,42.581,50.322z M40.646,54.193v-1.936h1.936 l0.001,1.936H40.646z"></path><path style="fill:#0CB4C4;" d="M52.258,50.322h-0.566c-0.51,0-1.009,0.207-1.369,0.567l-2.336,2.336l2.336,2.337 c0.36,0.36,0.859,0.566,1.369,0.566h0.566c1.067,0,1.936-0.868,1.936-1.936v-1.936C54.193,51.19,53.325,50.322,52.258,50.322z M51.691,54.193l-0.968-0.968l0.968-0.968h0.566l0.002,1.936H51.691z"></path><circle style="fill:#0CB4C4;" cx="41.613" cy="4.839" r="0.968"></circle><path style="fill:#0CB4C4;" d="M55.161,0H28.064c-2.669,0-4.839,2.17-4.839,4.839v12.66c-0.603,0.088-1.194,0.249-1.754,0.497 c-1.641-2.194-4.181-3.479-6.955-3.479c-4.496,0-8.209,3.425-8.663,7.804C2.552,22.771,0,25.61,0,29.032 c0,3.735,3.039,6.774,6.774,6.774h16.451v19.354c0,2.669,2.17,4.839,4.839,4.839h27.097C57.83,60,60,57.83,60,55.161V4.839 C60,2.17,57.83,0,55.161,0z M29.032,35.807H30c2.296,0,4.326-1.15,5.551-2.903h6.063v3.914l11.253-8.753l-11.253-8.752v3.913 h-8.138c-0.829-0.499-1.773-0.829-2.784-0.933c-0.315-1.095-0.896-2.062-1.659-2.84V9.678h25.161v36.773H29.032V35.807z M36.489,30.968c0.185-0.613,0.285-1.263,0.285-1.936c0-1.44-0.456-2.772-1.227-3.871h8.001v-1.893l6.165,4.796l-6.165,4.796 v-1.893H36.489z M41.613,7.742c-1.601,0-2.903-1.303-2.903-2.903V1.936h5.807v2.903C44.517,6.439,43.213,7.742,41.613,7.742z M28.064,1.936h8.71v2.903c0,1.094,0.378,2.092,0.993,2.903h-8.735c-1.067,0-1.936,0.868-1.936,1.936v8.409 c-0.604-0.287-1.251-0.491-1.936-0.588V4.839C25.161,3.238,26.464,1.936,28.064,1.936z M1.936,29.032 c0-2.669,2.17-4.839,4.839-4.839h0.968v-0.968c0-3.734,3.039-6.774,6.774-6.774c2.396,0,4.567,1.234,5.806,3.301l0.504,0.84 l0.835-0.514c0.766-0.474,1.643-0.724,2.532-0.724c2.37,0,4.375,1.696,4.766,4.035l0.222,0.804H30c2.669,0,4.839,2.17,4.839,4.839 s-2.17,4.839-4.839,4.839H6.774C4.105,33.871,1.936,31.701,1.936,29.032z M58.064,55.161c0,1.601-1.303,2.903-2.903,2.903H28.064 c-1.601,0-2.903-1.303-2.903-2.903V35.807h1.936v10.645c0,1.067,0.868,1.936,1.936,1.936h25.161c1.067,0,1.936-0.868,1.936-1.936 V9.678c0-1.067-0.868-1.936-1.936-1.936h-8.734c0.614-0.812,0.992-1.81,0.992-2.903V1.936h8.71c1.601,0,2.903,1.303,2.903,2.903 V55.161z"></path><path style="fill:#0CB4C4;" d="M10.646,26.129c-1.601,0-2.903,1.303-2.903,2.903s1.303,2.903,2.903,2.903 c1.6,0,2.903-1.303,2.903-2.903S12.245,26.129,10.646,26.129z M10.646,30c-0.534,0-0.968-0.435-0.968-0.968 s0.434-0.968,0.968-0.968s0.968,0.435,0.968,0.968S11.18,30,10.646,30z"></path><path style="fill:#0CB4C4;" d="M18.387,26.129c-1.6,0-2.903,1.303-2.903,2.903s1.304,2.903,2.903,2.903 c1.601,0,2.903-1.303,2.903-2.903S19.987,26.129,18.387,26.129z M18.387,30c-0.534,0-0.968-0.435-0.968-0.968 s0.434-0.968,0.968-0.968s0.968,0.435,0.968,0.968S18.921,30,18.387,30z"></path><path style="fill:#0CB4C4;" d="M26.129,26.129c-1.601,0-2.903,1.303-2.903,2.903s1.303,2.903,2.903,2.903s2.903-1.303,2.903-2.903 S27.729,26.129,26.129,26.129z M26.129,30c-0.534,0-0.968-0.435-0.968-0.968s0.434-0.968,0.968-0.968s0.968,0.435,0.968,0.968 S26.663,30,26.129,30z"></path><rect x="30.968" y="11.613" style="fill:#0CB4C4;" width="1.936" height="1.936"></rect><rect x="34.839" y="11.613" style="fill:#0CB4C4;" width="17.419" height="1.936"></rect><rect x="30.968" y="15.484" style="fill:#0CB4C4;" width="21.29" height="1.935"></rect><rect x="30.968" y="42.581" style="fill:#0CB4C4;" width="21.29" height="1.936"></rect><rect x="30.968" y="38.71" style="fill:#0CB4C4;" width="21.29" height="1.936"></rect></g></svg>