<svg xmlns="http://www.w3.org/2000/svg" xmlns:xlink="http://www.w3.org/1999/xlink" version="1.1" id="Layer_1" x="0px" y="0px" width="66.34px" height="60px" viewBox="0 0 66.34 60" style="enable-background:new 0 0 66.34 60;" xml:space="preserve"><g><g><path style="fill:#0CB4C4;" d="M66.337,55H0.003V0h66.334V55z M1.837,53.167h62.666V1.833H1.837V53.167z"></path><path style="fill:#0CB4C4;" d="M66.337,55H0.003V9.011h66.334V55z M1.837,53.167h62.666V10.844H1.837V53.167z"></path><path style="fill:#0CB4C4;" d="M7.034,8.012c-1.434,0-2.594-1.163-2.594-2.595c0-1.433,1.16-2.594,2.594-2.594 c1.432,0,2.594,1.161,2.594,2.594c0,0.003,0,0.006,0,0.01C9.623,6.855,8.463,8.012,7.034,8.012z M7.034,4.667 c-0.419,0-0.76,0.341-0.76,0.76c0,0.42,0.341,0.761,0.76,0.761c0.42,0,0.761-0.341,0.761-0.761l0,0 C7.795,5.008,7.454,4.667,7.034,4.667z"></path><path style="fill:#0CB4C4;" d="M13.589,8.012c-1.435,0-2.595-1.163-2.595-2.595c0-1.433,1.16-2.594,2.595-2.594 c1.432,0,2.594,1.161,2.594,2.594c0,0.003,0,0.006,0,0.01C16.177,6.855,15.017,8.012,13.589,8.012z M13.589,4.667 c-0.418-0.046-0.795,0.255-0.841,0.673c-0.046,0.416,0.256,0.793,0.673,0.839c0.056,0.006,0.112,0.006,0.168,0 c0.417,0.046,0.793-0.255,0.84-0.673c0.045-0.419-0.256-0.794-0.674-0.839C13.698,4.66,13.644,4.66,13.589,4.667z"></path><path style="fill:#0CB4C4;" d="M20.17,8.012c-1.433,0.015-2.606-1.134-2.621-2.566c-0.017-1.433,1.134-2.606,2.566-2.621 c1.433-0.016,2.606,1.134,2.621,2.566c0,0.012,0,0.023,0,0.036C22.731,6.845,21.588,7.997,20.17,8.012z M20.17,4.667 c-0.418-0.046-0.793,0.255-0.84,0.673c-0.046,0.416,0.255,0.793,0.673,0.839c0.055,0.006,0.112,0.006,0.167,0 c0.418,0.046,0.793-0.255,0.84-0.673c0.046-0.419-0.255-0.794-0.673-0.839C20.282,4.66,20.225,4.66,20.17,4.667z"></path><g><path style="fill:#0CB4C4;" d="M43.874,39.921c-0.506,0-0.916-0.409-0.916-0.917c0-0.507,0.41-0.917,0.916-0.917h0.367 c3.684-0.229,6.484-3.399,6.256-7.083c-0.229-3.685-3.4-6.484-7.084-6.257c-1.494,0.095-2.914,0.685-4.031,1.681l-2.115,1.879 l0.611-2.75c0.1-0.417,0.152-0.845,0.157-1.273c-0.136-3.714-3.259-6.613-6.971-6.478c-3.522,0.132-6.347,2.957-6.478,6.478 c-0.001,0.531,0.066,1.062,0.202,1.575l0.485,1.833l-1.713-0.704c-0.678-0.282-1.403-0.426-2.137-0.423 c-3.2-0.036-5.822,2.528-5.857,5.729c-0.036,3.099,2.377,5.679,5.474,5.849h3.116c0.506,0,0.916,0.411,0.916,0.917 c0,0.507-0.41,0.917-0.916,0.917h-2.75c-0.178,0.01-0.354,0.01-0.533,0c-4.201-0.292-7.369-3.935-7.078-8.136 c0.277-3.999,3.603-7.102,7.611-7.099c0.451-0.003,0.902,0.037,1.346,0.119c-0.008-0.178-0.008-0.355,0-0.531 c0.09-4.729,3.994-8.488,8.723-8.4c4.459,0.084,8.104,3.573,8.384,8.023c4.104-2.306,9.302-0.85,11.608,3.256 c2.307,4.104,0.848,9.301-3.256,11.608c-1.174,0.66-2.487,1.032-3.834,1.086C44.211,39.92,44.044,39.925,43.874,39.921z"></path><path style="fill:#0CB4C4;" d="M32.187,49.564l-4.583-4.502c-0.36-0.356-0.36-0.937-0.005-1.296 c0.357-0.359,0.938-0.362,1.297-0.005l0,0l1.458,1.393V32.496c0-0.508,0.41-0.917,0.917-0.917c0.506,0,0.916,0.409,0.916,0.917 V49.564z"></path><path style="fill:#0CB4C4;" d="M36.973,48.281c-0.506,0-0.917-0.411-0.917-0.917V30.25l4.52,4.583 c0.358,0.356,0.36,0.937,0.005,1.297c-0.003,0.001-0.005,0.004-0.005,0.005c-0.358,0.355-0.936,0.355-1.293,0l-1.393-1.393 v12.622C37.89,47.87,37.478,48.281,36.973,48.281z"></path></g></g></g></svg>