<svg xmlns="http://www.w3.org/2000/svg" xmlns:xlink="http://www.w3.org/1999/xlink" version="1.1" id="Layer_1" x="0px" y="0px" width="67.4px" height="60px" viewBox="0 0 67.4 60" style="enable-background:new 0 0 67.4 60;" xml:space="preserve"><g><path style="fill:#0CB4C4;" d="M3.458,47.456V11.47c0-0.911,0.741-1.649,1.653-1.649h30.454V1.651c0-0.912,0.74-1.651,1.651-1.651 h28.511c0.912,0,1.651,0.739,1.651,1.651v28.511c0,0.912-0.739,1.65-1.651,1.65h-5.553v15.644h1.787c0.912,0,1.65,0.738,1.65,1.65 v6.479c0,2.425-1.988,4.414-4.413,4.414H4.435c-2.427,0-4.413-1.984-4.413-4.414v-6.479c0-0.912,0.739-1.65,1.651-1.65H3.458z M40.186,52.077c2.172,0,2.172,3.302,0,3.302H23.449c-2.171,0-2.171-3.302,0-3.302H40.186z M13.302,28.448h7.269 c2.173,0,2.173,3.301,0,3.301h-7.269v8.545h37.029v-8.481h-6.246l-12.077,4.723c-1.508,0.591-2.857-1.132-1.966-2.458l5.523-8.188 v-6.14H13.302v2.014h13.501c2.171,0,2.171,3.302,0,3.302H13.302V28.448z M42.686,23.308c-2.173,0-2.173-3.303,0-3.303H60.1 c2.17,0,2.17,3.303,0,3.303H42.686z M42.686,17.063c-2.173,0-2.173-3.303,0-3.303H60.1c2.17,0,2.17,3.303,0,3.303H42.686z M42.686,10.818c-2.173,0-2.173-3.302,0-3.302H60.1c2.17,0,2.17,3.302,0,3.302H42.686L42.686,10.818z M35.565,13.123H6.761v34.333 h50.111V31.813h-3.238v10.133c0,0.912-0.739,1.651-1.651,1.651h-40.33c-0.912,0-1.651-0.739-1.651-1.651c0-7.949,0-15.898,0-23.848 c0-0.911,0.739-1.649,1.651-1.649h23.913V13.123L35.565,13.123z M64.076,3.302H38.868c0,7.695,0,15.394,0,23.089 c-0.003,0.317-0.092,0.64-0.284,0.922l-2.851,4.229l7.352-2.876c0.212-0.099,0.448-0.152,0.697-0.152c6.765,0,13.529,0,20.294,0 V3.302z M4.435,56.698h54.765c0.619,0,1.113-0.493,1.113-1.112v-4.828H3.324v4.828C3.324,56.201,3.82,56.698,4.435,56.698z"></path></g></svg>