<svg xmlns="http://www.w3.org/2000/svg" xmlns:xlink="http://www.w3.org/1999/xlink" version="1.1" id="Layer_1" x="0px" y="0px" width="69px" height="60px" viewBox="0 0 69 60" style="enable-background:new 0 0 69 60;" xml:space="preserve"><g><path style="fill:#0CB4C4;" d="M34.567,55.29c-13.913,0-25.29-11.377-25.29-25.29v-0.726h2.754c0.58,0,1.159-0.362,1.449-0.869 c0.291-0.508,0.291-1.159-0.072-1.666l-5.145-7.971c-0.581-0.943-2.175-0.943-2.826,0l-5.146,7.971 c-0.361,0.507-0.361,1.158-0.072,1.666c0.435,0.507,1.015,0.869,1.595,0.869h2.752V30c0,16.521,13.479,30,30,30 c1.304,0,2.319-1.087,2.319-2.319S35.871,55.29,34.567,55.29z"></path><path style="fill:#0CB4C4;" d="M68.771,31.595c-0.292-0.507-0.87-0.869-1.451-0.869h-2.754V30c0-16.521-13.478-30-29.999-30 c-1.303,0-2.319,1.087-2.319,2.319s1.086,2.318,2.319,2.318c13.912,0,25.291,11.377,25.291,25.29v0.724h-2.755 c-0.58,0-1.158,0.363-1.45,0.87c-0.289,0.507-0.289,1.159,0.073,1.666l5.146,7.973c0.289,0.507,0.796,0.796,1.377,0.796 s1.088-0.289,1.377-0.796l5.146-7.973C69.061,32.754,69.061,32.103,68.771,31.595z"></path><path style="fill:#0CB4C4;" d="M49.786,26.957l-4.058-0.437c-0.147,0-0.292-0.145-0.292-0.289 c-0.145-0.435-0.362-0.869-0.578-1.303c-0.074-0.146-0.074-0.291,0.071-0.437l2.609-3.188c0.434-0.507,0.362-1.232-0.074-1.739 l-2.462-2.464c-0.436-0.435-1.233-0.507-1.74-0.072l-3.188,2.608c-0.146,0.072-0.29,0.146-0.437,0.072 c-0.434-0.217-0.868-0.434-1.303-0.58c-0.145-0.072-0.219-0.145-0.289-0.29l-0.437-4.058c-0.072-0.651-0.579-1.158-1.303-1.158 h-3.48c-0.651,0-1.231,0.507-1.303,1.158l-0.436,4.058c0,0.146-0.145,0.29-0.289,0.29c-0.435,0.146-0.87,0.363-1.303,0.58 c-0.146,0.073-0.291,0.073-0.437-0.072l-3.188-2.608c-0.507-0.435-1.232-0.362-1.739,0.072l-2.464,2.464 c-0.435,0.435-0.507,1.232-0.072,1.739l2.61,3.188c0.07,0.146,0.144,0.29,0.07,0.437c-0.216,0.434-0.433,0.868-0.579,1.303 c-0.072,0.145-0.145,0.219-0.291,0.289l-4.057,0.437c-0.652,0.072-1.159,0.579-1.159,1.304v3.479c0,0.652,0.507,1.231,1.159,1.304 l4.057,0.437c0.146,0,0.291,0.145,0.291,0.289c0.146,0.435,0.363,0.869,0.579,1.303c0.074,0.146,0.074,0.291-0.07,0.437 l-2.61,3.188c-0.435,0.507-0.362,1.232,0.072,1.739l2.464,2.464c0.435,0.435,1.232,0.507,1.739,0.072l3.188-2.609 c0.146-0.071,0.291-0.145,0.437-0.071c0.434,0.217,0.868,0.434,1.303,0.58c0.145,0.072,0.218,0.145,0.289,0.29l0.436,4.058 c0.072,0.651,0.58,1.158,1.303,1.158h3.48c0.651,0,1.23-0.507,1.303-1.158l0.437-4.058c0-0.146,0.145-0.29,0.289-0.29 c0.435-0.146,0.869-0.363,1.303-0.58c0.146-0.073,0.291-0.073,0.437,0.071l3.188,2.609c0.507,0.435,1.232,0.362,1.74-0.072 l2.462-2.464c0.437-0.435,0.508-1.232,0.074-1.739l-2.609-3.188c-0.071-0.146-0.146-0.29-0.071-0.437 c0.216-0.434,0.434-0.868,0.578-1.303c0.074-0.145,0.145-0.219,0.292-0.289l4.058-0.437c0.651-0.072,1.158-0.579,1.158-1.304 v-3.479C50.944,27.608,50.438,27.029,49.786,26.957z M34.567,36.304c-3.479,0-6.304-2.824-6.304-6.304s2.825-6.304,6.304-6.304 c3.479,0,6.304,2.824,6.304,6.304S38.047,36.304,34.567,36.304z"></path></g></svg>