<svg xmlns="http://www.w3.org/2000/svg" xmlns:xlink="http://www.w3.org/1999/xlink" version="1.1" id="Layer_1" x="0px" y="0px" width="60px" height="60px" viewBox="0 0 60 60" style="enable-background:new 0 0 60 60;" xml:space="preserve"><g><g><g><path style="fill:#0CB4C4;" d="M19.741,60h-6.918c-0.988,0-1.813-0.748-1.914-1.729l-0.316-3.119 C10.076,54.901,9.578,54.617,9.1,54.3l-2.937,1.306c-0.894,0.396-1.944,0.06-2.439-0.784l-3.459-5.9 c-0.505-0.862-0.268-1.966,0.547-2.543l2.593-1.835c-0.018-0.274-0.026-0.55-0.026-0.825s0.009-0.55,0.026-0.825l-2.593-1.835 c-0.814-0.577-1.052-1.682-0.547-2.543l3.459-5.899c0.495-0.845,1.546-1.181,2.439-0.784L9.1,33.136 c0.479-0.316,0.977-0.601,1.493-0.853l0.316-3.119c0.101-0.981,0.926-1.729,1.914-1.729h6.918c0.988,0,1.813,0.747,1.913,1.729 l0.317,3.119c0.517,0.252,1.015,0.536,1.492,0.853l2.938-1.305c0.893-0.396,1.944-0.061,2.439,0.784l3.459,5.899 c0.505,0.861,0.267,1.966-0.548,2.543l-2.593,1.835c0.019,0.275,0.027,0.55,0.027,0.825s-0.009,0.551-0.027,0.825l2.593,1.835 c0.814,0.577,1.053,1.681,0.548,2.543l-3.459,5.9c-0.495,0.844-1.547,1.181-2.439,0.784L23.464,54.3 c-0.478,0.317-0.976,0.602-1.492,0.853l-0.317,3.119C21.555,59.252,20.729,60,19.741,60z M14.56,56.154h3.444l0.255-2.517 c0.074-0.729,0.556-1.352,1.242-1.607c0.914-0.342,1.763-0.825,2.523-1.438c0.562-0.451,1.328-0.552,1.987-0.259l2.38,1.058 l1.697-2.894l-2.078-1.471c-0.601-0.426-0.906-1.156-0.786-1.883c0.077-0.471,0.116-0.951,0.116-1.427s-0.039-0.956-0.116-1.426 c-0.12-0.727,0.186-1.457,0.786-1.884l2.078-1.47l-1.697-2.895l-2.38,1.058c-0.659,0.293-1.426,0.192-1.987-0.259 c-0.761-0.611-1.609-1.095-2.523-1.437c-0.687-0.257-1.168-0.879-1.242-1.608l-0.254-2.516H14.56l-0.254,2.516 c-0.075,0.729-0.556,1.352-1.242,1.608c-0.915,0.342-1.763,0.825-2.523,1.437c-0.562,0.451-1.328,0.552-1.987,0.259l-2.38-1.058 l-1.697,2.895l2.077,1.472c0.602,0.425,0.907,1.155,0.787,1.882c-0.077,0.47-0.116,0.95-0.116,1.426s0.039,0.956,0.116,1.427 c0.12,0.727-0.186,1.457-0.787,1.883l-2.077,1.471l1.697,2.894l2.38-1.058c0.659-0.293,1.426-0.192,1.987,0.259 c0.761,0.612,1.608,1.096,2.523,1.438c0.687,0.256,1.167,0.878,1.242,1.607L14.56,56.154z"></path><path style="fill:#0CB4C4;" d="M16.282,49.487c-3.182,0-5.77-2.588-5.77-5.77c0-3.181,2.588-5.769,5.77-5.769 c3.181,0,5.77,2.588,5.77,5.769C22.052,46.899,19.463,49.487,16.282,49.487z M16.282,41.795c-1.061,0-1.923,0.862-1.923,1.923 s0.862,1.923,1.923,1.923s1.923-0.862,1.923-1.923S17.343,41.795,16.282,41.795z"></path></g><g><path style="fill:#0CB4C4;" d="M47.177,32.564h-6.918c-0.988,0-1.813-0.748-1.913-1.729l-0.316-3.119 c-0.518-0.252-1.016-0.536-1.493-0.853l-2.938,1.305c-0.895,0.396-1.944,0.061-2.439-0.784L27.7,21.485 c-0.505-0.863-0.267-1.966,0.548-2.543l2.592-1.835c-0.018-0.275-0.026-0.551-0.026-0.825c0-0.275,0.009-0.551,0.026-0.825 l-2.592-1.835c-0.814-0.577-1.053-1.682-0.548-2.543l3.459-5.9c0.495-0.844,1.545-1.181,2.439-0.784L36.536,5.7 c0.478-0.317,0.976-0.602,1.493-0.853l0.316-3.119C38.445,0.748,39.271,0,40.259,0h6.918c0.988,0,1.813,0.748,1.914,1.729 l0.316,3.119C49.924,5.099,50.422,5.383,50.9,5.7l2.937-1.306c0.895-0.396,1.944-0.06,2.439,0.784l3.459,5.9 c0.505,0.862,0.268,1.966-0.547,2.543l-2.593,1.835c0.018,0.274,0.027,0.55,0.027,0.825c0,0.274-0.01,0.55-0.027,0.825 l2.593,1.835c0.814,0.577,1.052,1.682,0.547,2.543l-3.459,5.899c-0.495,0.845-1.546,1.181-2.439,0.784L50.9,26.864 c-0.479,0.316-0.977,0.601-1.493,0.853l-0.316,3.119C48.99,31.816,48.165,32.564,47.177,32.564z M41.995,28.718h3.444 l0.255-2.516c0.075-0.729,0.556-1.352,1.242-1.608c0.915-0.342,1.763-0.825,2.524-1.437c0.561-0.451,1.327-0.552,1.986-0.259 l2.38,1.058l1.697-2.895l-2.077-1.47c-0.602-0.427-0.907-1.157-0.787-1.884c0.077-0.47,0.116-0.95,0.116-1.426 s-0.039-0.956-0.116-1.427c-0.12-0.727,0.186-1.457,0.787-1.883l2.077-1.471l-1.697-2.894l-2.38,1.058 c-0.659,0.293-1.426,0.192-1.986-0.259c-0.762-0.612-1.609-1.096-2.524-1.438c-0.687-0.256-1.167-0.878-1.242-1.607L45.44,3.846 h-3.445l-0.254,2.517c-0.074,0.729-0.556,1.352-1.242,1.607c-0.914,0.342-1.764,0.825-2.523,1.438 c-0.561,0.451-1.327,0.552-1.987,0.259l-2.38-1.058l-1.698,2.894l2.079,1.471c0.601,0.426,0.906,1.156,0.786,1.883 c-0.077,0.471-0.116,0.951-0.116,1.427s0.039,0.956,0.116,1.426c0.12,0.727-0.186,1.457-0.786,1.884l-2.079,1.47l1.698,2.895 l2.38-1.058c0.66-0.293,1.427-0.192,1.987,0.259c0.76,0.611,1.609,1.095,2.523,1.437c0.687,0.257,1.168,0.879,1.242,1.608 L41.995,28.718z"></path><path style="fill:#0CB4C4;" d="M43.59,22.051c-3.181,0-5.77-2.588-5.77-5.769c0-3.182,2.589-5.77,5.77-5.77s5.77,2.588,5.77,5.77 C49.359,19.463,46.771,22.051,43.59,22.051z M43.59,14.359c-1.061,0-1.923,0.862-1.923,1.923s0.862,1.923,1.923,1.923 s1.923-0.862,1.923-1.923S44.65,14.359,43.59,14.359z"></path></g><g><path style="fill:#0CB4C4;" d="M9.178,26.253L5.39,25.577c0.882-4.931,3.205-9.44,6.722-13.042 c3.511-3.596,7.955-6.026,12.853-7.027l0.771,3.769C17.337,10.993,10.684,17.816,9.178,26.253z"></path><path style="fill:#0CB4C4;" d="M7.308,27.82c-0.621,0-1.221-0.302-1.588-0.839l-3.59-5.256l3.176-2.169l2.734,4.001l4.605-1.764 l1.376,3.592l-6.026,2.308C7.771,27.779,7.537,27.82,7.308,27.82z"></path></g><g><path style="fill:#0CB4C4;" d="M55.106,40.233l-3.006-3.801l-4.473,2.081l-1.622-3.487l5.851-2.722 c0.807-0.376,1.767-0.147,2.318,0.551l3.947,4.993L55.106,40.233z"></path><path style="fill:#0CB4C4;" d="M34.965,54.506l-0.761-3.769c8.44-1.701,15.12-8.539,16.624-17.016l3.787,0.672 c-0.879,4.949-3.21,9.474-6.741,13.085C44.347,51.084,39.883,53.515,34.965,54.506z"></path></g></g></g></svg>