<svg width="58" height="56" viewBox="0 0 58 56" fill="none" xmlns="http://www.w3.org/2000/svg"><mask id="path-1-outside-1_327_3307" maskUnits="userSpaceOnUse" x="0" y="0" width="58" height="56" fill="black"><rect fill="white" width="58" height="56"></rect><path d="M34.7188 23.475H12.7189C12.1225 23.475 11.6389 22.9919 11.6389 22.395C11.6389 21.7986 12.1225 21.315 12.7189 21.315H34.7188C35.3152 21.315 35.7988 21.7986 35.7988 22.395C35.7988 22.9919 35.3152 23.475 34.7188 23.475Z"></path><path d="M34.7188 32.9901H12.7189C12.1225 32.9901 11.6389 32.5065 11.6389 31.9101C11.6389 31.3137 12.1225 30.8301 12.7189 30.8301H34.7188C35.3152 30.8301 35.7988 31.3137 35.7988 31.9101C35.7988 32.5065 35.3152 32.9901 34.7188 32.9901Z"></path><path d="M16.3798 45.6897H9.04643C8.45002 45.6897 7.96643 45.2061 7.96643 44.6097C7.96643 44.0132 8.45002 43.5297 9.04643 43.5297H16.3798C16.9762 43.5297 17.4598 44.0132 17.4598 44.6097C17.4598 45.2061 16.9762 45.6897 16.3798 45.6897Z"></path><path d="M45.2806 19.2414C45.567 19.2414 45.8418 19.1276 46.0443 18.9251C46.2468 18.7221 46.3606 18.4478 46.3606 18.1614V14.9754C46.3582 14.8756 46.3399 14.7772 46.3066 14.6837V14.5863C46.2545 14.4754 46.1856 14.3732 46.1012 14.284L33.1412 1.324C33.0501 1.24252 32.9484 1.17309 32.8389 1.11861H32.7309C32.6359 1.06557 32.5342 1.02555 32.4286 1H2.08C1.48359 1 1 1.48359 1 2.08V53.92C1 54.2064 1.11379 54.4812 1.31629 54.6837C1.51879 54.8862 1.79361 55 2.08 55H45.28C45.5664 55 45.8412 54.8862 46.0437 54.6837C46.2462 54.4812 46.36 54.2064 46.36 53.92V50.68C46.36 50.0836 45.8764 49.6 45.28 49.6C44.6836 49.6 44.2 50.0836 44.2 50.68V52.84H3.16V3.16H31.24V15.04C31.24 15.3264 31.3538 15.6012 31.5563 15.8037C31.7588 16.0062 32.0336 16.12 32.32 16.12H44.2V18.1614C44.2 18.4478 44.3138 18.7221 44.5163 18.9251C44.7188 19.1276 44.9942 19.2414 45.2806 19.2414ZM33.4006 13.96V4.68262L42.7103 13.96H33.4006Z"></path><path d="M56.7928 41.1117C56.4635 40.5871 55.9249 40.2289 55.3136 40.1286C55.0658 38.9146 54.4077 37.8225 53.4501 37.0356C52.4921 36.2492 51.2929 35.8158 50.0538 35.8086C49.0722 35.3139 48.3292 34.4465 47.9907 33.4002C47.8967 32.3477 48.2955 31.3106 49.0707 30.5922C50.3609 29.3203 50.9275 27.4863 50.5789 25.7081C50.2308 23.9305 49.0138 22.4454 47.3389 21.7546C45.664 21.0642 43.7542 21.259 42.2538 22.2744C40.7534 23.2897 39.8619 24.9898 39.8802 26.8017C39.8764 28.2231 40.44 29.588 41.4463 30.5923C42.2245 31.3088 42.6237 32.3474 42.5263 33.4003C42.1551 34.4528 41.3769 35.313 40.3663 35.7869C39.1778 35.8588 38.0462 36.3212 37.148 37.1027C36.2493 37.8838 35.6341 38.9402 35.3983 40.1069C34.7122 40.1643 34.0942 40.5457 33.7349 41.1329C33.5357 41.456 33.4244 41.8253 33.4133 42.2043C33.4017 42.5837 33.4904 42.9593 33.6702 43.2929L35.2468 46.2846C35.4382 46.6501 35.7299 46.9529 36.0877 47.1578C36.4459 47.3627 36.8547 47.4605 37.2665 47.4403H53.4665C53.8734 47.4432 54.2726 47.3313 54.6183 47.1173C54.964 46.9032 55.2422 46.5961 55.4216 46.2306L56.8901 43.2283C57.23 42.5543 57.193 41.7514 56.7928 41.1117ZM44.6968 32.1477C44.895 32.1588 45.0931 32.1588 45.2908 32.1477C45.489 32.1583 45.6871 32.1583 45.8848 32.1477C45.7715 32.7108 45.7715 33.2908 45.8848 33.854C46.04 34.5511 46.3501 35.2044 46.7922 35.7656H43.7899C44.234 35.2015 44.5445 34.5444 44.6968 33.8429C44.8159 33.2841 44.8159 32.7064 44.6968 32.1477ZM45.2908 23.5077C46.1504 23.5077 46.9745 23.849 47.5819 24.4565C48.1894 25.064 48.5307 25.8881 48.5307 26.7476C48.5307 27.6068 48.1894 28.4308 47.5819 29.0383C46.9744 29.6463 46.1504 29.9877 45.2908 29.9877C44.4316 29.9877 43.6076 29.6463 43.0001 29.0383C42.3921 28.4308 42.0507 27.6068 42.0507 26.7476C42.0652 25.8995 42.4114 25.0905 43.015 24.4951C43.6187 23.8991 44.432 23.564 45.2802 23.5616L45.2908 23.5077ZM40.7871 37.8723H50.0216C50.6917 37.8718 51.3456 38.0791 51.8927 38.4663C52.4405 38.853 52.8541 39.4002 53.0779 40.0324H37.7196C37.9525 39.4085 38.372 38.8719 38.9207 38.4948C39.4698 38.1183 40.1212 37.9196 40.787 37.9264L40.7871 37.8723ZM53.4781 45.2809H37.2781L35.712 42.2675H55.0002L53.4781 45.2809Z"></path></mask><path d="M34.7188 23.475H12.7189C12.1225 23.475 11.6389 22.9919 11.6389 22.395C11.6389 21.7986 12.1225 21.315 12.7189 21.315H34.7188C35.3152 21.315 35.7988 21.7986 35.7988 22.395C35.7988 22.9919 35.3152 23.475 34.7188 23.475Z" fill="#0CB4C4"></path><path d="M34.7188 32.9901H12.7189C12.1225 32.9901 11.6389 32.5065 11.6389 31.9101C11.6389 31.3137 12.1225 30.8301 12.7189 30.8301H34.7188C35.3152 30.8301 35.7988 31.3137 35.7988 31.9101C35.7988 32.5065 35.3152 32.9901 34.7188 32.9901Z" fill="#0CB4C4"></path><path d="M16.3798 45.6897H9.04643C8.45002 45.6897 7.96643 45.2061 7.96643 44.6097C7.96643 44.0132 8.45002 43.5297 9.04643 43.5297H16.3798C16.9762 43.5297 17.4598 44.0132 17.4598 44.6097C17.4598 45.2061 16.9762 45.6897 16.3798 45.6897Z" fill="#0CB4C4"></path><path d="M45.2806 19.2414C45.567 19.2414 45.8418 19.1276 46.0443 18.9251C46.2468 18.7221 46.3606 18.4478 46.3606 18.1614V14.9754C46.3582 14.8756 46.3399 14.7772 46.3066 14.6837V14.5863C46.2545 14.4754 46.1856 14.3732 46.1012 14.284L33.1412 1.324C33.0501 1.24252 32.9484 1.17309 32.8389 1.11861H32.7309C32.6359 1.06557 32.5342 1.02555 32.4286 1H2.08C1.48359 1 1 1.48359 1 2.08V53.92C1 54.2064 1.11379 54.4812 1.31629 54.6837C1.51879 54.8862 1.79361 55 2.08 55H45.28C45.5664 55 45.8412 54.8862 46.0437 54.6837C46.2462 54.4812 46.36 54.2064 46.36 53.92V50.68C46.36 50.0836 45.8764 49.6 45.28 49.6C44.6836 49.6 44.2 50.0836 44.2 50.68V52.84H3.16V3.16H31.24V15.04C31.24 15.3264 31.3538 15.6012 31.5563 15.8037C31.7588 16.0062 32.0336 16.12 32.32 16.12H44.2V18.1614C44.2 18.4478 44.3138 18.7221 44.5163 18.9251C44.7188 19.1276 44.9942 19.2414 45.2806 19.2414ZM33.4006 13.96V4.68262L42.7103 13.96H33.4006Z" fill="#0CB4C4"></path><path d="M56.7928 41.1117C56.4635 40.5871 55.9249 40.2289 55.3136 40.1286C55.0658 38.9146 54.4077 37.8225 53.4501 37.0356C52.4921 36.2492 51.2929 35.8158 50.0538 35.8086C49.0722 35.3139 48.3292 34.4465 47.9907 33.4002C47.8967 32.3477 48.2955 31.3106 49.0707 30.5922C50.3609 29.3203 50.9275 27.4863 50.5789 25.7081C50.2308 23.9305 49.0138 22.4454 47.3389 21.7546C45.664 21.0642 43.7542 21.259 42.2538 22.2744C40.7534 23.2897 39.8619 24.9898 39.8802 26.8017C39.8764 28.2231 40.44 29.588 41.4463 30.5923C42.2245 31.3088 42.6237 32.3474 42.5263 33.4003C42.1551 34.4528 41.3769 35.313 40.3663 35.7869C39.1778 35.8588 38.0462 36.3212 37.148 37.1027C36.2493 37.8838 35.6341 38.9402 35.3983 40.1069C34.7122 40.1643 34.0942 40.5457 33.7349 41.1329C33.5357 41.456 33.4244 41.8253 33.4133 42.2043C33.4017 42.5837 33.4904 42.9593 33.6702 43.2929L35.2468 46.2846C35.4382 46.6501 35.7299 46.9529 36.0877 47.1578C36.4459 47.3627 36.8547 47.4605 37.2665 47.4403H53.4665C53.8734 47.4432 54.2726 47.3313 54.6183 47.1173C54.964 46.9032 55.2422 46.5961 55.4216 46.2306L56.8901 43.2283C57.23 42.5543 57.193 41.7514 56.7928 41.1117ZM44.6968 32.1477C44.895 32.1588 45.0931 32.1588 45.2908 32.1477C45.489 32.1583 45.6871 32.1583 45.8848 32.1477C45.7715 32.7108 45.7715 33.2908 45.8848 33.854C46.04 34.5511 46.3501 35.2044 46.7922 35.7656H43.7899C44.234 35.2015 44.5445 34.5444 44.6968 33.8429C44.8159 33.2841 44.8159 32.7064 44.6968 32.1477ZM45.2908 23.5077C46.1504 23.5077 46.9745 23.849 47.5819 24.4565C48.1894 25.064 48.5307 25.8881 48.5307 26.7476C48.5307 27.6068 48.1894 28.4308 47.5819 29.0383C46.9744 29.6463 46.1504 29.9877 45.2908 29.9877C44.4316 29.9877 43.6076 29.6463 43.0001 29.0383C42.3921 28.4308 42.0507 27.6068 42.0507 26.7476C42.0652 25.8995 42.4114 25.0905 43.015 24.4951C43.6187 23.8991 44.432 23.564 45.2802 23.5616L45.2908 23.5077ZM40.7871 37.8723H50.0216C50.6917 37.8718 51.3456 38.0791 51.8927 38.4663C52.4405 38.853 52.8541 39.4002 53.0779 40.0324H37.7196C37.9525 39.4085 38.372 38.8719 38.9207 38.4948C39.4698 38.1183 40.1212 37.9196 40.787 37.9264L40.7871 37.8723ZM53.4781 45.2809H37.2781L35.712 42.2675H55.0002L53.4781 45.2809Z" fill="#0CB4C4"></path><path d="M34.7188 23.475H12.7189C12.1225 23.475 11.6389 22.9919 11.6389 22.395C11.6389 21.7986 12.1225 21.315 12.7189 21.315H34.7188C35.3152 21.315 35.7988 21.7986 35.7988 22.395C35.7988 22.9919 35.3152 23.475 34.7188 23.475Z" stroke="#0CB4C4" stroke-width="0.4" mask="url(#path-1-outside-1_327_3307)"></path><path d="M34.7188 32.9901H12.7189C12.1225 32.9901 11.6389 32.5065 11.6389 31.9101C11.6389 31.3137 12.1225 30.8301 12.7189 30.8301H34.7188C35.3152 30.8301 35.7988 31.3137 35.7988 31.9101C35.7988 32.5065 35.3152 32.9901 34.7188 32.9901Z" stroke="#0CB4C4" stroke-width="0.4" mask="url(#path-1-outside-1_327_3307)"></path><path d="M16.3798 45.6897H9.04643C8.45002 45.6897 7.96643 45.2061 7.96643 44.6097C7.96643 44.0132 8.45002 43.5297 9.04643 43.5297H16.3798C16.9762 43.5297 17.4598 44.0132 17.4598 44.6097C17.4598 45.2061 16.9762 45.6897 16.3798 45.6897Z" stroke="#0CB4C4" stroke-width="0.4" mask="url(#path-1-outside-1_327_3307)"></path><path d="M45.2806 19.2414C45.567 19.2414 45.8418 19.1276 46.0443 18.9251C46.2468 18.7221 46.3606 18.4478 46.3606 18.1614V14.9754C46.3582 14.8756 46.3399 14.7772 46.3066 14.6837V14.5863C46.2545 14.4754 46.1856 14.3732 46.1012 14.284L33.1412 1.324C33.0501 1.24252 32.9484 1.17309 32.8389 1.11861H32.7309C32.6359 1.06557 32.5342 1.02555 32.4286 1H2.08C1.48359 1 1 1.48359 1 2.08V53.92C1 54.2064 1.11379 54.4812 1.31629 54.6837C1.51879 54.8862 1.79361 55 2.08 55H45.28C45.5664 55 45.8412 54.8862 46.0437 54.6837C46.2462 54.4812 46.36 54.2064 46.36 53.92V50.68C46.36 50.0836 45.8764 49.6 45.28 49.6C44.6836 49.6 44.2 50.0836 44.2 50.68V52.84H3.16V3.16H31.24V15.04C31.24 15.3264 31.3538 15.6012 31.5563 15.8037C31.7588 16.0062 32.0336 16.12 32.32 16.12H44.2V18.1614C44.2 18.4478 44.3138 18.7221 44.5163 18.9251C44.7188 19.1276 44.9942 19.2414 45.2806 19.2414ZM33.4006 13.96V4.68262L42.7103 13.96H33.4006Z" stroke="#0CB4C4" stroke-width="0.4" mask="url(#path-1-outside-1_327_3307)"></path><path d="M56.7928 41.1117C56.4635 40.5871 55.9249 40.2289 55.3136 40.1286C55.0658 38.9146 54.4077 37.8225 53.4501 37.0356C52.4921 36.2492 51.2929 35.8158 50.0538 35.8086C49.0722 35.3139 48.3292 34.4465 47.9907 33.4002C47.8967 32.3477 48.2955 31.3106 49.0707 30.5922C50.3609 29.3203 50.9275 27.4863 50.5789 25.7081C50.2308 23.9305 49.0138 22.4454 47.3389 21.7546C45.664 21.0642 43.7542 21.259 42.2538 22.2744C40.7534 23.2897 39.8619 24.9898 39.8802 26.8017C39.8764 28.2231 40.44 29.588 41.4463 30.5923C42.2245 31.3088 42.6237 32.3474 42.5263 33.4003C42.1551 34.4528 41.3769 35.313 40.3663 35.7869C39.1778 35.8588 38.0462 36.3212 37.148 37.1027C36.2493 37.8838 35.6341 38.9402 35.3983 40.1069C34.7122 40.1643 34.0942 40.5457 33.7349 41.1329C33.5357 41.456 33.4244 41.8253 33.4133 42.2043C33.4017 42.5837 33.4904 42.9593 33.6702 43.2929L35.2468 46.2846C35.4382 46.6501 35.7299 46.9529 36.0877 47.1578C36.4459 47.3627 36.8547 47.4605 37.2665 47.4403H53.4665C53.8734 47.4432 54.2726 47.3313 54.6183 47.1173C54.964 46.9032 55.2422 46.5961 55.4216 46.2306L56.8901 43.2283C57.23 42.5543 57.193 41.7514 56.7928 41.1117ZM44.6968 32.1477C44.895 32.1588 45.0931 32.1588 45.2908 32.1477C45.489 32.1583 45.6871 32.1583 45.8848 32.1477C45.7715 32.7108 45.7715 33.2908 45.8848 33.854C46.04 34.5511 46.3501 35.2044 46.7922 35.7656H43.7899C44.234 35.2015 44.5445 34.5444 44.6968 33.8429C44.8159 33.2841 44.8159 32.7064 44.6968 32.1477ZM45.2908 23.5077C46.1504 23.5077 46.9745 23.849 47.5819 24.4565C48.1894 25.064 48.5307 25.8881 48.5307 26.7476C48.5307 27.6068 48.1894 28.4308 47.5819 29.0383C46.9744 29.6463 46.1504 29.9877 45.2908 29.9877C44.4316 29.9877 43.6076 29.6463 43.0001 29.0383C42.3921 28.4308 42.0507 27.6068 42.0507 26.7476C42.0652 25.8995 42.4114 25.0905 43.015 24.4951C43.6187 23.8991 44.432 23.564 45.2802 23.5616L45.2908 23.5077ZM40.7871 37.8723H50.0216C50.6917 37.8718 51.3456 38.0791 51.8927 38.4663C52.4405 38.853 52.8541 39.4002 53.0779 40.0324H37.7196C37.9525 39.4085 38.372 38.8719 38.9207 38.4948C39.4698 38.1183 40.1212 37.9196 40.787 37.9264L40.7871 37.8723ZM53.4781 45.2809H37.2781L35.712 42.2675H55.0002L53.4781 45.2809Z" stroke="#0CB4C4" stroke-width="0.4" mask="url(#path-1-outside-1_327_3307)"></path></svg>