<svg width="66" height="60" viewBox="0 0 66 60" fill="none" xmlns="http://www.w3.org/2000/svg"><path fill-rule="evenodd" clip-rule="evenodd" d="M64.2187 29.9286C64.2187 28.6311 63.1489 27.5738 61.8354 27.5738C60.5255 27.5738 59.4557 28.6311 59.4557 29.9286C59.4557 31.2262 60.5255 32.282 61.8354 32.282C63.1482 32.282 64.2187 31.2262 64.2187 29.9286ZM26.5079 30.8833C24.3893 30.8833 22.4535 32.0339 21.4592 33.8844C21.2982 34.1828 20.9906 34.3521 20.6722 34.3521C20.5294 34.3521 20.3857 34.3191 20.2537 34.2488C19.8171 34.0207 19.6525 33.4864 19.8853 33.0574C20.3401 32.2117 20.9478 31.4815 21.6565 30.8833H7.93758C4.5454 30.8833 1.78276 33.614 1.78276 36.9709C1.78276 39.2469 3.1891 41.2925 5.23587 42.1791C5.55428 40.4999 6.44566 38.9599 7.79397 37.8424C8.1733 37.5311 8.73468 37.5792 9.05018 37.9529C9.36858 38.3266 9.31853 38.8825 8.93921 39.1959C7.68373 40.2367 6.93523 41.7516 6.88518 43.3569C6.97802 46.3802 9.53685 48.8362 12.5997 48.8362C13.0538 48.8362 13.5085 48.7824 13.9524 48.6755C14.1816 48.6182 14.4246 48.6547 14.6291 48.7788C14.8329 48.9022 14.9758 49.1002 15.0331 49.3297C15.5125 51.3567 17.098 52.9376 19.0693 53.4856C19.0338 53.1901 19.0084 52.8903 19.0084 52.5847C19.0084 50.7808 19.6742 49.0421 20.876 47.6878C21.2017 47.3235 21.7631 47.2862 22.1351 47.6089C22.5036 47.9296 22.5428 48.4869 22.2142 48.8527C21.2982 49.8842 20.7941 51.2083 20.7941 52.584C20.7941 53.1679 20.8833 53.7302 21.0516 54.2603C21.0516 54.2689 21.0552 54.2768 21.0588 54.2847C21.7885 56.5728 23.9571 58.2369 26.5086 58.2369C29.6608 58.2369 32.2232 55.7013 32.2232 52.584V36.5348C32.2225 33.4189 29.6608 30.8833 26.5079 30.8833ZM7.93758 29.1188H21.6565C20.9478 28.5206 20.3401 27.7904 19.8853 26.9455C19.6525 26.5158 19.8171 25.9814 20.2537 25.7533C20.6867 25.5238 21.2271 25.6873 21.4592 26.1177C22.4535 27.969 24.3901 29.1188 26.5079 29.1188C29.66 29.1188 32.2225 26.5832 32.2225 23.4673V7.41814C32.2225 4.30155 29.6608 1.76523 26.5079 1.76523C23.9564 1.76523 21.7885 3.42861 21.0581 5.71746C21.0545 5.72535 21.0508 5.73252 21.0508 5.74185C20.8826 6.27192 20.7934 6.83427 20.7934 7.41814C20.7934 8.79389 21.2982 10.1187 22.2135 11.1494C22.5428 11.5153 22.5036 12.0726 22.1344 12.3939C21.9625 12.5417 21.7551 12.6141 21.544 12.6141C21.2974 12.6141 21.0501 12.5123 20.8746 12.315C19.6721 10.9608 19.007 9.22211 19.007 7.41814C19.007 7.11186 19.0324 6.81275 19.0679 6.51652C17.0966 7.06452 15.5111 8.64541 15.0316 10.6725C14.9744 10.902 14.8315 11.0992 14.6277 11.2233C14.4275 11.346 14.1802 11.384 13.951 11.3266C13.5071 11.219 13.0531 11.1659 12.5983 11.1659C9.5354 11.1659 6.9773 13.6212 6.88373 16.6453C6.93378 18.2505 7.68155 19.7662 8.93776 20.8062C9.31708 21.1197 9.36713 21.6756 9.04873 22.0493C8.87321 22.258 8.61935 22.3656 8.3655 22.3656C8.1617 22.3656 7.96079 22.2982 7.79252 22.1605C6.44348 21.0422 5.55283 19.5022 5.23442 17.8238C3.18765 18.7096 1.78131 20.7517 1.78131 23.0083C1.78276 26.3881 4.5454 29.1188 7.93758 29.1188ZM50.6855 39.249C50.6855 40.548 51.7517 41.6038 53.0652 41.6038C54.3787 41.6038 55.4448 40.548 55.4448 39.249C55.4448 37.9522 54.3787 36.8956 53.0652 36.8956C51.7517 36.8956 50.6855 37.9522 50.6855 39.249ZM47.5015 52.6643C47.1004 52.6643 46.6891 52.7662 46.3171 52.9792C45.1791 53.6284 44.7889 55.0708 45.4438 56.1948C46.1024 57.3188 47.5624 57.704 48.6967 57.0563C49.248 56.7414 49.6411 56.2335 49.8057 55.6267C49.9703 55.0199 49.8848 54.3851 49.5656 53.8407C49.1254 53.0875 48.3239 52.6643 47.5015 52.6643ZM46.3171 6.87659C47.455 7.52645 48.9114 7.13912 49.5656 6.01585C49.884 5.47143 49.9696 4.83664 49.8057 4.22982C49.6411 3.62156 49.2472 3.11444 48.6967 2.80099C47.5588 2.15113 46.1024 2.53846 45.4438 3.66173C44.7889 4.78571 45.1791 6.22745 46.3171 6.87659ZM50.6855 20.0151C50.6855 21.3126 51.7517 22.3685 53.0652 22.3685C54.3787 22.3685 55.4448 21.3126 55.4448 20.0151C55.4448 18.7168 54.3787 17.6602 53.0652 17.6602C51.7517 17.6602 50.6855 18.7175 50.6855 20.0151ZM66 29.9286C66 32.1988 64.1324 34.0465 61.8347 34.0465C59.8452 34.0465 58.1814 32.6579 57.7738 30.8109H31.2709C32.5199 31.8266 33.4214 33.2375 33.8043 34.8449H42.8393C43.0757 34.8449 43.3049 34.9381 43.4688 35.1024L46.7718 38.3682H49.0014C49.4126 36.5197 51.0764 35.1318 53.0659 35.1318C55.3629 35.1318 57.2305 36.9788 57.2305 39.249C57.2305 41.5214 55.3629 43.3676 53.0659 43.3676C51.0764 43.3676 49.4126 41.9797 49.0014 40.1313H46.4034C46.1669 40.1313 45.9385 40.038 45.7702 39.8738L42.4708 36.6072H34.0082V40.6412H41.1218C41.3582 40.6412 41.5867 40.7345 41.755 40.9002L48.1383 47.213C48.3029 47.3787 48.3994 47.6032 48.3994 47.837V51.0024C49.5011 51.242 50.5034 51.9162 51.1112 52.9584C51.6697 53.9103 51.8162 55.0206 51.5261 56.0829C51.2396 57.1445 50.5491 58.0332 49.5867 58.5826C48.9317 58.9564 48.2202 59.1335 47.5116 59.1335C46.0734 59.1335 44.6707 58.3954 43.8975 57.0764C42.7523 55.1103 43.4362 52.5869 45.425 51.4514C45.8043 51.2348 46.2054 51.0842 46.613 50.9959V48.2014L40.7519 42.405H34.0067V52.5833C34.0067 56.6725 30.6428 60 26.5072 60C23.3761 60 20.6925 58.0899 19.5691 55.3886C16.8173 55.0091 14.4775 53.1184 13.5361 50.5405C13.2249 50.5799 12.9138 50.5993 12.599 50.5993C8.7956 50.5993 5.58184 47.7094 5.14884 44.0333C2.12873 43.0384 0 40.1757 0 36.9924C0 33.9454 1.7465 31.3087 4.29735 29.9996C1.74577 28.692 0 26.0618 0 23.0305C0 19.8257 2.12873 16.9623 5.14884 15.966C5.58184 12.2906 8.79487 9.40071 12.599 9.40071C12.9138 9.40071 13.2249 9.42008 13.5361 9.45953C14.4775 6.88161 16.8173 4.99085 19.5691 4.61069C20.6925 1.90941 23.3761 0 26.5072 0C30.6435 0 34.0067 3.32748 34.0067 7.41671V17.4501H40.7519L46.613 11.653V8.85199C46.2054 8.76304 45.8043 8.62031 45.425 8.40225C43.4355 7.26751 42.7523 4.74483 43.8975 2.77732C45.0456 0.810529 47.6008 0.134849 49.5867 1.27103C50.5491 1.82046 51.2396 2.70846 51.5261 3.77076C51.8162 4.83233 51.669 5.94269 51.1112 6.89596C50.5027 7.93745 49.5011 8.61026 48.3994 8.84984V12.0181C48.3994 12.2512 48.3029 12.4757 48.1383 12.6414L41.755 18.9556C41.5867 19.1213 41.3575 19.2146 41.1218 19.2146H34.0082V23.2471H42.2453L46.1452 19.3896C46.3134 19.2253 46.5426 19.1321 46.7747 19.1321H48.9999C49.4111 17.2836 51.075 15.895 53.0644 15.895C55.3614 15.895 57.2291 17.7434 57.2291 20.0136C57.2291 22.2838 55.3614 24.1301 53.0644 24.1301C51.075 24.1301 49.4111 22.7429 48.9999 20.8959H47.1468L43.2462 24.752C43.0779 24.9177 42.8487 25.0109 42.6166 25.0109H33.8399C33.4961 26.6055 32.6301 28.0085 31.4319 29.0449H57.7745C58.1821 27.1965 59.8459 25.8093 61.8354 25.8093C64.1331 25.8107 66 27.6577 66 29.9286ZM24.7694 40.5071C25.1233 40.1729 25.6891 40.1886 26.0285 40.5415C26.365 40.8959 26.3505 41.4532 25.993 41.7882C24.5757 43.118 22.7408 43.8281 20.855 43.8281C20.2001 43.8281 19.5422 43.7442 18.8938 43.5721C16.1029 42.8311 13.9669 40.5394 13.4512 37.7276C13.3657 37.2485 13.6841 36.7894 14.1707 36.7026C14.6538 36.6144 15.1187 36.9336 15.2086 37.4128C15.5988 39.556 17.2264 41.3033 19.3558 41.8671C21.288 42.3799 23.313 41.8714 24.7694 40.5071ZM19.3515 18.3452C17.2257 18.9076 15.5981 20.657 15.2079 22.7981C15.1296 23.2242 14.7539 23.5226 14.331 23.5226C14.2773 23.5226 14.2237 23.519 14.17 23.5082C13.6833 23.4214 13.3613 22.9631 13.4505 22.4832C13.9655 19.6736 16.1022 17.3798 18.8895 16.6402C21.4302 15.9703 24.0847 16.6338 25.9922 18.4227C26.3498 18.7577 26.3679 19.315 26.0278 19.6693C25.6876 20.0222 25.1226 20.0387 24.7687 19.7038C23.313 18.3402 21.288 17.8309 19.3515 18.3452Z" fill="#0CB4C4"></path></svg>