<svg width="62" height="62" viewBox="0 0 62 62" fill="none" xmlns="http://www.w3.org/2000/svg"><path d="M52.9085 20.1643L52.8752 20.1976L52.9085 20.1643C50.5808 17.8371 47.4242 16.5296 44.1328 16.5296C40.8414 16.5296 37.6848 17.8371 35.3576 20.1643C33.0299 22.492 31.7224 25.6486 31.7224 28.94C31.7224 32.2314 33.0299 35.388 35.3576 37.7152C37.6848 40.0429 40.8414 41.3504 44.1328 41.3504C47.4242 41.3504 50.5808 40.0429 52.9085 37.7152C55.2357 35.388 56.5432 32.2314 56.5432 28.94C56.5432 25.6486 55.2357 22.492 52.9085 20.1643ZM12.5882 43.4098L12.5886 43.4098C14.7138 43.3931 16.747 42.541 18.2494 41.0386C19.7523 39.5358 20.6039 37.5023 20.6211 35.3773V35.3769C20.6211 33.2468 19.7744 31.2036 18.2684 29.6971L18.233 29.7325L18.2684 29.6971C16.7619 28.1906 14.7187 27.3443 12.5882 27.3443C10.4578 27.3443 8.41447 28.1906 6.90841 29.6971C5.40189 31.2037 4.55564 33.2469 4.55564 35.3769C4.55564 37.5074 5.40191 39.5506 6.90841 41.0571C8.41458 42.5636 10.4578 43.4098 12.5882 43.4098ZM16.3766 39.1648L16.4115 39.1997L16.3766 39.1648C15.3721 40.1698 14.0091 40.734 12.5882 40.734C11.1673 40.734 9.80481 40.1698 8.79981 39.1648C7.79521 38.1602 7.23058 36.7974 7.23058 35.3764C7.23058 33.9554 7.79525 32.5928 8.79981 31.5883C9.80464 30.5834 11.1672 30.0192 12.588 30.0192C14.0037 30.0359 15.3571 30.6053 16.3582 31.6064C17.3593 32.6079 17.9292 33.9608 17.9459 35.3766C17.9458 36.7974 17.3816 38.1603 16.3766 39.1648ZM20.8997 53.9968L4.40403 53.9973C4.75693 51.3142 6.39437 48.969 8.79408 47.7127C11.2105 46.448 14.0937 46.448 16.5101 47.7127C18.9099 48.969 20.5465 51.3138 20.8997 53.9968ZM18.1813 45.7573L18.1563 45.8006L18.1813 45.7573C14.7596 43.7821 10.5444 43.7821 7.12281 45.7573C3.7012 47.7329 1.59384 51.3836 1.59384 55.3344C1.59384 56.0732 2.19229 56.6721 2.93109 56.6721H22.3727C22.7275 56.6721 23.068 56.5308 23.3185 56.2803C23.5695 56.0293 23.7103 55.6891 23.7103 55.3344C23.7103 51.3836 21.6025 47.7329 18.1813 45.7573ZM0.949993 28.2962L0.950007 28.297C0.958677 28.8194 1.27046 29.2886 1.74811 29.4989C1.90752 29.6058 2.09951 29.6532 2.29017 29.6338C2.6422 29.6282 2.97713 29.484 3.22344 29.2328C3.22351 29.2327 3.22359 29.2326 3.22366 29.2325L8.7453 23.7109H29.8403C30.1951 23.7109 30.5352 23.5701 30.7861 23.3196L30.7862 23.3195C31.0367 23.0685 31.1775 22.7284 31.1775 22.3737V2.28766C31.1775 1.93294 31.0367 1.59235 30.7862 1.34179C30.5352 1.09081 30.1951 0.95 29.8403 0.95H2.28724C1.54887 0.95 0.95 1.54893 0.95 2.2877L0.949993 28.2962ZM8.21028 21.0359L8.20957 21.0359C7.85678 21.0409 7.52033 21.1844 7.27342 21.4367C7.27337 21.4368 7.27332 21.4368 7.27327 21.4369L3.62492 25.0852V3.62533L28.5032 3.62524V21.0359L8.21028 21.0359ZM37.2489 22.0561C39.0746 20.2304 41.551 19.205 44.1328 19.205C46.7147 19.205 49.1911 20.2303 51.0168 22.0561C52.8425 23.8818 53.8683 26.3582 53.8683 28.94C53.8683 31.5219 52.8425 33.9982 51.0168 35.824C49.191 37.6498 46.7147 38.6752 44.1328 38.6752C41.551 38.6752 39.0746 37.6497 37.2489 35.824C35.4231 33.9982 34.3977 31.5219 34.3977 28.94C34.3977 26.3582 35.4231 23.8818 37.2489 22.0561ZM28.0383 61.05H60.2262L61.1374 60.6228L61.1727 60.6582C61.1728 60.6582 61.1728 60.6582 61.1728 60.6581C61.4238 60.4076 61.5646 60.067 61.5646 59.7123C61.5646 53.4849 58.2421 47.7303 52.8489 44.6166C47.4551 41.5026 40.8099 41.5026 35.4167 44.6166C30.023 47.7304 26.7006 53.4846 26.7006 59.7123C26.7006 60.4511 27.2995 61.05 28.0383 61.05ZM58.8193 58.3752H29.4452C29.922 53.4731 32.8125 49.1306 37.1541 46.8011C41.512 44.4626 46.7515 44.4626 51.1093 46.8011C55.451 49.131 58.3421 53.4735 58.8193 58.3752Z" fill="#0CB4C4" stroke="#0CB4C4" stroke-width="0.1"></path></svg>