<svg width="68" height="44" viewBox="0 0 68 44" fill="none" xmlns="http://www.w3.org/2000/svg"><path d="M41.0005 1.09039L40.3997 0.768665L19.0725 24.9827L18.5605 25.564H19.3352H31.5967L26.9888 42.7631L27.5895 43.0851L48.9275 18.8698L49.4399 18.2884L48.6649 18.2884L36.4031 18.2889L41.0005 1.09039ZM34.1959 20.3282L44.9206 20.3266L30.8365 36.3111L34.1435 23.9677L34.2615 23.5271L33.8054 23.5272L23.0777 23.5276L37.1583 7.54221L33.8578 19.8878L33.74 20.3282L34.1959 20.3282ZM51.8802 17.7462L51.6303 17.9944L51.8802 18.2427C53.9237 20.2737 53.9236 23.577 51.8802 25.6074L51.6303 25.8557L51.8802 26.104L52.8325 27.0499L53.0791 27.295L53.3258 27.0499C56.1704 24.2241 56.1704 19.6261 53.3258 16.8002L53.0791 16.5552L52.8325 16.8002L51.8802 17.7462ZM57.4775 13.2482L57.2308 13.0031L56.9841 13.2482L56.0319 14.1942L55.7819 14.4425L56.0319 14.6908C57.9785 16.6237 59.0492 19.1926 59.0492 21.9257C59.0492 24.6591 57.9781 27.2267 56.0318 29.1611L55.782 29.4094L56.0319 29.6576L56.9841 30.6036L57.2308 30.8486L57.4775 30.6036C59.8095 28.2869 61.096 25.204 61.096 21.9257C61.096 18.6479 59.8094 15.5654 57.4775 13.2482ZM61.6301 8.20779L61.3834 7.96272L61.1368 8.20778L60.1845 9.15373L59.9346 9.40204L60.1845 9.65034C63.486 12.93 65.3032 17.2878 65.3032 21.926C65.3032 26.5636 63.486 30.9217 60.1845 34.2017L59.9346 34.45L60.1845 34.6983L61.1368 35.6442L61.3834 35.8893L61.6301 35.6442C65.3179 31.9802 67.35 27.1075 67.35 21.9258C67.35 16.744 65.3179 11.8718 61.6301 8.20779ZM15.1671 16.8012L14.9204 16.5561L14.6737 16.8012C11.8291 19.6276 11.8291 24.225 14.6737 27.0509L14.9204 27.296L15.1671 27.0509L16.1193 26.105L16.3692 25.8567L16.1193 25.6084C14.0759 23.5784 14.0759 20.2742 16.1193 18.2437L16.3692 17.9954L16.1193 17.7472L15.1671 16.8012ZM11.0156 13.2482L10.769 13.0032L10.5223 13.2482C8.18971 15.5649 6.90408 18.6479 6.90408 21.9257C6.90408 25.2038 8.19023 28.2864 10.5223 30.6036L10.7689 30.8487L11.0156 30.6036L11.9679 29.6576L12.2178 29.4093L11.9679 29.161C10.0213 27.2273 8.95101 24.6592 8.95101 21.9257C8.95101 19.1926 10.0222 16.6246 11.9679 14.6907L12.2177 14.4424L11.9679 14.1942L11.0156 13.2482ZM7.81546 9.6506L8.06543 9.40229L7.81547 9.15398L6.86324 8.20802L6.61661 7.96301L6.36994 8.20799C2.68111 11.8715 0.65 16.7448 0.65 21.9265C0.65 27.1083 2.68211 31.981 6.36989 35.6449L6.61656 35.89L6.86324 35.6449L7.81547 34.699L8.0654 34.4507L7.81549 34.2024C4.51403 30.9222 2.69681 26.5641 2.69681 21.9267C2.69681 17.29 4.51358 12.9305 7.81546 9.6506Z" fill="#0CB4C4" stroke="#0CB4C4" stroke-width="0.7"></path></svg>