<svg width="56" height="60" viewBox="0 0 56 60" fill="none" xmlns="http://www.w3.org/2000/svg"><path fill-rule="evenodd" clip-rule="evenodd" d="M27.52 24.7492C27.7908 24.4541 28.1729 24.2857 28.5733 24.2857H51.4294C51.8298 24.2857 52.212 24.4541 52.4827 24.7492C52.7534 25.0443 52.8878 25.4394 52.8529 25.8383L49.9954 58.6948C49.9318 59.4328 49.3134 59.9996 48.5725 59.9996H31.4298C30.6888 59.9996 30.0703 59.4328 30.0068 58.6948L27.1493 25.8383C27.1144 25.4394 27.2493 25.0443 27.52 24.7492ZM30.1316 27.1432L32.7399 57.1429H47.2634L49.8717 27.1432H30.1316Z" fill="#0CB4C4"></path><path fill-rule="evenodd" clip-rule="evenodd" d="M55.7149 27.1431H24.2874V24.2856H55.7149V27.1431Z" fill="#0CB4C4"></path><path fill-rule="evenodd" clip-rule="evenodd" d="M47.2183 16.6909C47.4124 16.1073 47.9587 15.7137 48.5733 15.7137H54.7339V18.5711H49.6031L47.0718 26.1654L44.3612 25.2623L47.2183 16.6909Z" fill="#0CB4C4"></path><path fill-rule="evenodd" clip-rule="evenodd" d="M0.352489 16.2048C0.624177 15.8934 1.01687 15.7145 1.42965 15.7145H38.5718C38.9674 15.7145 39.3452 15.8786 39.615 16.1675C39.8853 16.4559 40.0235 16.8438 39.9972 17.2384L39.4261 25.8098L36.5754 25.6194L37.0451 18.5719H3.06818L8.38842 57.143H35.7139V60H7.14313C6.42949 60 5.82534 59.4734 5.72775 58.7665L0.0133449 17.3386C-0.0430963 16.9297 0.0812888 16.5157 0.352489 16.2048Z" fill="#0CB4C4"></path><path fill-rule="evenodd" clip-rule="evenodd" d="M14.7744 4.54588C15.8138 1.8846 18.401 0 21.4301 0C23.7691 0 25.843 1.12404 27.145 2.85696C31.0896 2.85744 34.2871 6.05493 34.2871 10.0001C34.2871 10.1967 34.2795 10.3913 34.2637 10.5846C36.7987 11.6813 38.5728 14.2035 38.5728 17.1428C38.5728 17.9315 37.9332 18.5715 37.1445 18.5715H2.85907C2.06986 18.5715 1.43035 17.9315 1.43035 17.1428C1.43035 14.193 3.21735 11.6632 5.76672 10.5727C6.18955 7.03126 9.20335 4.28573 12.8587 4.28573C13.5216 4.28573 14.164 4.37608 14.7744 4.54588ZM21.4301 2.85696C19.2275 2.85696 17.4108 4.52054 17.1717 6.6586C17.1177 7.13979 16.824 7.5607 16.3911 7.77737C15.9577 7.99357 15.445 7.97635 15.0274 7.73098C14.3927 7.35741 13.6527 7.14265 12.8587 7.14265C10.492 7.14265 8.57304 9.06166 8.57304 11.4283C8.57304 11.4738 8.57399 11.5187 8.57543 11.5637C8.596 12.2319 8.1502 12.825 7.50257 12.9914C6.11695 13.3473 5.00341 14.3795 4.53125 15.714H35.4714C34.9816 14.3288 33.7998 13.2693 32.3414 12.9536C31.9559 12.8704 31.622 12.6317 31.4187 12.2935C31.2159 11.9554 31.1614 11.5483 31.2685 11.169C31.3733 10.7988 31.4297 10.4071 31.4297 10C31.4297 7.63286 29.5107 5.71434 27.144 5.71434C26.9556 5.71434 26.7705 5.7263 26.5892 5.74974C26.0128 5.82388 25.4494 5.54167 25.1633 5.0361C24.4253 3.73227 23.0295 2.85696 21.4301 2.85696Z" fill="#0CB4C4"></path><path fill-rule="evenodd" clip-rule="evenodd" d="M14.3005 58.7665L8.58614 17.3386L11.4168 16.9483L17.1307 58.3762L14.3005 58.7665Z" fill="#0CB4C4"></path></svg>