<svg width="60" height="60" viewBox="0 0 60 60" fill="none" xmlns="http://www.w3.org/2000/svg"><g clip-path="url(#clip0_330_12)"><path d="M29.9999 58.0645C28.8386 58.0645 27.5806 57.9677 26.4193 57.871C19.6451 57 13.4516 53.7097 8.99994 48.5806C4.45155 43.3548 1.93542 36.7742 1.93542 30C1.93542 23.129 4.35478 16.5484 8.90317 11.4194C13.4516 6.29032 19.6451 3 26.4193 2.12903C27.5806 2.03226 28.8386 1.93549 29.9999 1.93549C37.4516 1.93549 44.6128 4.93549 49.8386 10.1613C55.0645 15.3871 58.0645 22.5484 58.0645 30C58.0645 37.4516 55.0645 44.6129 49.8386 49.8387C44.6128 55.0645 37.4516 58.0645 29.9999 58.0645Z" stroke="#0CB4C4" stroke-width="3.1315"></path><path d="M47.6128 22.3548H37.6451V12.3871C37.6451 12.0968 37.5483 11.8064 37.258 11.5161C37.0644 11.3226 36.7741 11.129 36.387 11.129H23.6128C22.9354 11.129 22.4515 11.7097 22.4515 12.2903V22.3548H12.387C11.7096 22.3548 11.2257 22.9355 11.2257 23.5161V36.2903C11.2257 36.5806 11.3225 36.871 11.6128 37.1613C11.8064 37.3548 12.0967 37.5484 12.4838 37.5484H22.4515V47.6129C22.4515 47.9032 22.5483 48.1935 22.8386 48.4839C23.0322 48.6774 23.3225 48.871 23.7096 48.871H36.5805C36.8709 48.871 37.1612 48.7742 37.4515 48.4839C37.6451 48.2903 37.8386 48 37.8386 47.6129V37.6452H47.9031C48.1935 37.6452 48.4838 37.5484 48.7741 37.2581C48.9676 37.0645 49.1612 36.7742 49.1612 36.3871V23.6129C49.1612 23.3226 49.0644 23.0323 48.7741 22.7419C48.2902 22.5484 47.9031 22.3548 47.6128 22.3548Z" stroke="#0CB4C4" stroke-width="3.1315"></path></g><defs><clipPath id="clip0_330_12"><rect width="60" height="60" fill="white"></rect></clipPath></defs></svg>