<svg width="62" height="62" viewBox="0 0 62 62" fill="none" xmlns="http://www.w3.org/2000/svg"><path d="M59.9608 34.846C60.5884 34.8486 61.0983 34.3411 61.0999 33.7137V33.7134L61.0999 2.03904L60.9999 33.7134C60.9985 34.2856 60.5334 34.7483 59.9612 34.746H34.8751C33.4943 34.746 33.4943 32.6752 34.8751 32.6752H58.828V32.5752M59.9608 34.846L59.9612 34.7465V34.846H59.9608ZM59.9608 34.846H34.8751C34.5028 34.846 34.2162 34.7054 34.0237 34.4889C33.8328 34.2742 33.7395 33.9908 33.7395 33.7106C33.7395 33.4305 33.8328 33.147 34.0237 32.9323C34.2162 32.7158 34.5028 32.5752 34.8751 32.5752H58.828M58.828 32.5752H58.928V3.16936H58.828M58.828 32.5752V3.16936M58.828 3.16936V3.06936H3.16912L3.16913 3.16936M58.828 3.16936H3.16913M3.16913 3.16936L3.16956 21.4641M3.16913 3.16936H3.06912L3.06958 21.4663C3.10103 22.8767 0.969248 22.8767 1.00065 21.4663V2.03963C0.998334 1.46835 1.45969 1.00331 2.03096 1.001L3.16956 21.4641M3.16956 21.4641C3.16957 21.4645 3.16958 21.4648 3.16958 21.4652C3.17776 21.8447 3.03969 22.1372 2.82224 22.3338C2.60654 22.5289 2.31907 22.6241 2.03513 22.6241C1.7512 22.6241 1.46372 22.5289 1.24802 22.3338C1.03057 22.1372 0.89249 21.8447 0.900651 21.4652M3.16956 21.4641L0.900651 21.4652M0.900651 21.4652V2.03982V21.4652ZM26.5357 59.9676L26.5357 59.9674V57.2962C26.5357 53.6102 28.7172 50.4344 31.855 48.9689C30.4858 47.8445 29.6049 46.1442 29.6049 44.2444C29.6049 40.8722 32.3714 38.1135 35.7459 38.1135C39.1207 38.1135 41.8762 40.8718 41.8762 44.2438C41.8762 46.1428 40.998 47.8417 39.6319 48.9664C41.408 49.7958 42.874 51.174 43.8129 52.884C44.7533 51.174 46.2223 49.7957 47.9997 48.9664C46.6337 47.8416 45.7555 46.1426 45.7555 44.2438C45.7555 40.8718 48.5139 38.113 51.8886 38.113C55.2634 38.113 58.0195 40.8718 58.0195 44.2438C58.0195 46.1427 57.1414 47.8417 55.7753 48.9664C58.9149 50.4314 61.0989 53.6087 61.0989 57.2962V59.9674V59.9676C61.0974 60.595 60.5874 61.1025 59.9599 61.1M26.5357 59.9676L27.6743 61M26.5357 59.9676C26.5372 60.5951 27.0472 61.102 27.6746 61.1M26.5357 59.9676L27.6743 61M59.9599 61.1L59.9603 61V61.1H59.9599ZM59.9599 61.1H27.6746M27.6746 61.1L27.6743 61M27.6746 61.1H27.6743V61M2.03095 0.900998L2.03055 0.900999L60.9999 2.03863C61.0022 1.46413 60.5357 0.998161 59.9612 1.00001V0.900005H59.9611C59.961 0.900006 59.961 0.900006 59.9609 0.900006L2.03095 0.900998ZM31.8598 22.314L31.8592 22.314C31.4453 22.3125 31.0632 22.5359 30.8625 22.8981C30.8623 22.8984 30.8622 22.8987 30.862 22.899L23.7862 35.1502C23.3851 29.2205 18.4274 24.5424 12.3633 24.5424C6.03733 24.5424 0.900344 29.6303 0.900344 35.9227V39.3201C0.892182 39.6995 1.03026 39.992 1.24771 40.1887C1.46342 40.3838 1.75089 40.479 2.03483 40.479C2.31876 40.479 2.60624 40.3838 2.82193 40.1887C3.03938 39.992 3.17745 39.6995 3.16928 39.3201V35.9227C3.16928 30.8618 7.24771 26.8135 12.3633 26.8135C17.4788 26.8135 21.5555 30.8622 21.5555 35.9227L21.5555 39.3327L21.5555 39.3342C21.5611 39.7111 21.7531 40.0605 22.068 40.2675C22.0733 40.272 22.0786 40.2761 22.0839 40.2799L22.0838 40.2801L22.0896 40.2838C22.634 40.6251 23.353 40.4473 23.676 39.8914L23.6762 39.8911L32.8236 24.0301C32.8237 24.0299 32.8238 24.0297 32.8239 24.0295C33.2709 23.2777 32.7349 22.3222 31.8598 22.314ZM12.3636 11.5579C9.03214 11.5579 6.29924 14.2558 6.29924 17.5756C6.29924 20.8951 9.03195 23.6017 12.3636 23.6017C15.6952 23.6017 18.4279 20.8951 18.4279 17.5756C18.4279 14.2559 15.695 11.5579 12.3636 11.5579ZM12.3636 13.8268C14.4775 13.8268 16.1572 15.4959 16.1572 17.5756C16.1572 19.656 14.4774 21.3304 12.3636 21.3304C10.2497 21.3304 8.56818 19.6554 8.56818 17.5756C8.56818 15.4956 10.2495 13.8268 12.3636 13.8268ZM35.7459 40.3825C37.8939 40.3825 39.6079 42.1032 39.6079 44.2444C39.6079 46.386 37.8942 48.1003 35.7459 48.1003C33.5974 48.1003 31.8738 46.3852 31.8738 44.2444C31.8738 42.103 33.5976 40.3825 35.7459 40.3825ZM51.8895 40.3825C54.0375 40.3825 55.7515 42.1032 55.7515 44.2444C55.7515 46.386 54.0377 48.1003 51.8895 48.1003C49.7412 48.1003 48.0253 46.3854 48.0253 44.2444C48.0253 42.1028 49.7416 40.3825 51.8895 40.3825ZM35.7459 50.3698C39.6083 50.3698 42.6789 53.4446 42.6789 57.2968V58.8294H28.8042V57.2968C28.8042 53.4448 31.8834 50.3698 35.7459 50.3698ZM51.8895 50.3698C55.752 50.3698 58.829 53.4447 58.829 57.2968V58.8294H44.9484V57.2968C44.9484 53.4447 48.027 50.3698 51.8895 50.3698Z" fill="#0CB4C4" stroke="#0CB4C4" stroke-width="0.2"></path></svg>