<svg xmlns="http://www.w3.org/2000/svg" xmlns:xlink="http://www.w3.org/1999/xlink" version="1.1" id="Layer_1" x="0px" y="0px" width="60px" height="60px" viewBox="0 0 60 60" enable-background="new 0 0 60 60" xml:space="preserve"><g transform="translate(0,-952.36218)"><path fill="#0CB4C4" d="M34.628,1005.562c-0.751-0.022-1.345-0.65-1.322-1.403c0.02-0.663,0.513-1.215,1.167-1.309 c12.03-1.905,21.143-11.809,21.143-23.715c0-2.974-0.562-5.81-1.597-8.43c-0.287-0.696,0.044-1.493,0.74-1.781 c0.696-0.287,1.492,0.044,1.78,0.74c0.006,0.013,0.01,0.026,0.016,0.039c1.157,2.933,1.787,6.114,1.787,9.431 c0,13.297-10.175,24.307-23.441,26.408C34.812,1005.557,34.72,1005.563,34.628,1005.562L34.628,1005.562z"></path><path fill="#0CB4C4" d="M51.126,964.642c-0.402-0.006-0.779-0.189-1.034-0.501c-4.632-5.504-11.776-9.053-19.814-9.053 c-8.022,0-15.164,3.542-19.795,9.04c-0.476,0.583-1.334,0.669-1.916,0.193c-0.584-0.477-0.67-1.335-0.192-1.918 c0.008-0.01,0.017-0.02,0.024-0.03c5.148-6.113,13.054-10.01,21.879-10.01c8.841,0,16.753,3.904,21.9,10.024 c0.493,0.569,0.432,1.429-0.138,1.922C51.786,964.529,51.461,964.646,51.126,964.642z"></path><path fill="#0CB4C4" d="M26.133,1005.596c-0.078,0-0.154-0.006-0.231-0.018c-13.384-2.008-23.68-13.066-23.68-26.444 c0-3.238,0.598-6.34,1.702-9.214c0.263-0.706,1.047-1.065,1.753-0.804c0.706,0.262,1.064,1.047,0.804,1.753 c-0.005,0.01-0.008,0.019-0.012,0.03c-0.989,2.568-1.522,5.333-1.522,8.235c0,11.979,9.219,21.927,21.359,23.748 c0.746,0.102,1.27,0.788,1.168,1.535C27.382,1005.088,26.811,1005.592,26.133,1005.596L26.133,1005.596z"></path><path fill="#0CB4C4" d="M15.467,980.394c-0.642-0.043-1.21-0.6-1.266-1.242c-0.056-0.641,0.408-1.288,1.032-1.442l6.368-1.576 L0.729,964.996c-0.651-0.321-0.943-1.219-0.602-1.861c0.341-0.643,1.248-0.906,1.88-0.545l21.234,11.33l-1.704-6.304 c-0.256-0.705,0.195-1.579,0.918-1.778c0.722-0.2,1.558,0.318,1.701,1.053l2.471,9.18c0.268,0.86-0.145,1.667-0.915,1.874 l-9.841,2.406C15.74,980.386,15.604,980.4,15.467,980.394L15.467,980.394z"></path><path fill="#0CB4C4" d="M44.367,980.394c-0.07-0.008-0.141-0.022-0.212-0.042l-9.818-2.407c-0.731-0.174-1.184-0.909-1.012-1.641 c0.004-0.015,0.008-0.029,0.011-0.042l2.535-9.372c0.199-0.729,0.953-1.158,1.683-0.958s1.158,0.953,0.958,1.683c0,0,0,0-0.001,0 l-1.703,6.304l21.171-11.309c0.654-0.373,1.486-0.145,1.857,0.509c0.375,0.654,0.146,1.487-0.507,1.859 c-0.025,0.014-0.049,0.026-0.072,0.038l-20.81,11.118l6.348,1.577c0.729,0.184,1.172,0.925,0.987,1.655 c-0.147,0.585-0.662,1.003-1.265,1.028C44.468,980.397,44.418,980.397,44.367,980.394L44.367,980.394z"></path><path fill="#0CB4C4" d="M30.291,1012.362c-0.714-0.011-1.354-0.671-1.342-1.384l-0.022-22.79l-4.897,4.601 c-0.524,0.491-1.447,0.461-1.938-0.063s-0.46-1.447,0.063-1.938l7.199-6.73c0.597-0.594,1.41-0.442,1.875,0.022l7.154,6.857 c0.405,0.373,0.547,1.004,0.34,1.515c-0.206,0.509-0.747,0.862-1.296,0.85c-0.35-0.008-0.693-0.156-0.938-0.404l-4.835-4.644 l0.021,22.726C31.686,1011.705,31.02,1012.373,30.291,1012.362L30.291,1012.362z"></path></g></svg>