<svg id="Layer_1" data-name="Layer 1" xmlns="http://www.w3.org/2000/svg" width="58.27" height="60" viewBox="0 0 58.27 60"><defs><style> .cls-1 { fill: #0cb4c4; } </style></defs><path class="cls-1" d="M58,14.92a2.65,2.65,0,0,0-.78-1.8,2.72,2.72,0,0,0-2-.78,4.76,4.76,0,0,0-4.6,4.9l.14,4.38-.74,3h0a3.44,3.44,0,0,0-2.45,1l-4.87,4.87L41,30.78a5.46,5.46,0,0,0-2.9,1.5l-3.35,3.35a5.36,5.36,0,0,0-1.58,3.69L33,44.88a4,4,0,0,0-2.72,3.71l-.08,7.28a4,4,0,0,0,3.92,4L46.23,60h0a4,4,0,0,0,4-3.92l.08-7.27a4,4,0,0,0-2.6-3.76l0-.17a5.72,5.72,0,0,1,1.63-3.24L55,36a8.94,8.94,0,0,0,2.57-5.37l.6-5.71a4.19,4.19,0,0,0,.07-.63v-.16ZM48.31,48.79l-.08,7.27a1.92,1.92,0,0,1-.59,1.38,2,2,0,0,1-1.39.56l-12.07-.13a2,2,0,0,1-1.94-2l.08-7.28a2,2,0,0,1,2-1.94h0l12.07.13a2,2,0,0,1,1.38.59,1.93,1.93,0,0,1,.56,1.4Zm5.3-14.22L48,40.23a7.78,7.78,0,0,0-2.19,4.36l0,.21-10.68-.12.12-5.31a3.37,3.37,0,0,1,1-2.32l3.35-3.36a3.43,3.43,0,0,1,1.83-.94l2-.34.2-.06h0a1,1,0,0,0,.32-.21h0L49,27A1.52,1.52,0,0,1,51,27a1.46,1.46,0,0,1,.43,1,1.43,1.43,0,0,1-.43,1L45.19,35a1,1,0,1,0,1.42,1.41l5.85-5.84a3.49,3.49,0,0,0,0-4.91,3.42,3.42,0,0,0-.52-.42l.8-3.24v0s0-.07,0-.1v-.14l-.15-4.51a2.77,2.77,0,0,1,2.66-2.85.75.75,0,0,1,.5.2A.68.68,0,0,1,56,15l.29,9.11-.06.65a.13.13,0,0,0,0,.06l-.59,5.59a6.92,6.92,0,0,1-2,4.17Z"></path><path class="cls-1" d="M47.63,49.7A1.71,1.71,0,1,1,45.92,48a1.71,1.71,0,0,1,1.71,1.71"></path><path class="cls-1" d="M25.23,44.88l-.12-5.56a5.4,5.4,0,0,0-1.58-3.69l-3.35-3.35a5.49,5.49,0,0,0-2.9-1.5l-1.69-.29-4.87-4.87a3.44,3.44,0,0,0-2.45-1h0l-.74-3,.14-4.38A4.76,4.76,0,0,0,3,12.34a2.66,2.66,0,0,0-2,.78,2.71,2.71,0,0,0-.79,1.81L0,24.12a.49.49,0,0,0,0,.12s0,0,0,0H0a3.39,3.39,0,0,0,.06.64l.61,5.7A8.89,8.89,0,0,0,3.25,36l5.66,5.66a5.7,5.7,0,0,1,1.62,3.24l0,.17A4,4,0,0,0,8,48.81L8,56.08A4,4,0,0,0,12,60h0l12.07-.13a4,4,0,0,0,3.92-4L28,48.59a4,4,0,0,0-2.72-3.71ZM10.32,40.23,4.66,34.57a6.94,6.94,0,0,1-2-4.17l-.59-5.58s0-.05,0-.07L2,24.1,2.29,15a.68.68,0,0,1,.7-.66,2.78,2.78,0,0,1,2.67,2.85l-.15,4.51v0a.41.41,0,0,0,0,.11s0,.07,0,.1a0,0,0,0,1,0,0l.8,3.24a3,3,0,0,0-.52.42,3.49,3.49,0,0,0,0,4.91l5.85,5.85A1,1,0,0,0,13.08,35L7.23,29.11a1.49,1.49,0,0,1,0-2.07,1.51,1.51,0,0,1,2.08,0l5.09,5.09h0a1,1,0,0,0,.32.21h0a.66.66,0,0,0,.2.06l2,.34a3.39,3.39,0,0,1,1.82,1l3.35,3.35a3.38,3.38,0,0,1,1,2.32l.12,5.31-10.69.12,0-.21a7.65,7.65,0,0,0-2.19-4.36ZM24.09,57.87,12,58a2,2,0,0,1-2-1.94L10,48.79a2,2,0,0,1,.57-1.39,1.93,1.93,0,0,1,1.37-.6L24,46.67h0a2,2,0,0,1,2,1.95L26,55.89a2,2,0,0,1-1.94,2Z"></path><path class="cls-1" d="M14.07,49.7A1.71,1.71,0,1,1,12.36,48a1.71,1.71,0,0,1,1.71,1.71"></path><path class="cls-1" d="M15.68,19h1.88a12,12,0,0,0,1,2.34L17.2,22.65a2.11,2.11,0,0,0,0,3l1.87,1.87a2.1,2.1,0,0,0,1.49.61A2.07,2.07,0,0,0,22,27.5l1.34-1.33a11.9,11.9,0,0,0,2.33,1V29a2.12,2.12,0,0,0,2.11,2.11h2.63A2.12,2.12,0,0,0,32.56,29V27.13a12,12,0,0,0,2.34-1l1.33,1.33a2.1,2.1,0,0,0,1.49.61,2.13,2.13,0,0,0,1.49-.61l1.86-1.87a2.11,2.11,0,0,0,0-3l-1.33-1.33a11.43,11.43,0,0,0,1-2.34h1.88a2.11,2.11,0,0,0,2.11-2.1V14.24a2.12,2.12,0,0,0-2.11-2.11H40.71a11.58,11.58,0,0,0-1-2.33l1.33-1.33a2.11,2.11,0,0,0,0-3L39.21,3.62a2.17,2.17,0,0,0-3,0L34.9,5a12,12,0,0,0-2.34-1V2.11A2.12,2.12,0,0,0,30.45,0H27.82a2.12,2.12,0,0,0-2.11,2.11V4a12.16,12.16,0,0,0-2.33,1L22.05,3.62a2.17,2.17,0,0,0-3,0L17.2,5.49a2.11,2.11,0,0,0,0,3L18.53,9.8a12,12,0,0,0-1,2.34H15.68a2.1,2.1,0,0,0-2.1,2.1v2.64a2.1,2.1,0,0,0,2.1,2.1Zm-.1-4.74a.1.1,0,0,1,.1-.11h2.66a.93.93,0,0,0,.29-.05h.05a1.23,1.23,0,0,0,.25-.14l0,0a1.37,1.37,0,0,0,.2-.22v0a.74.74,0,0,0,.12-.29h0a10,10,0,0,1,1.32-3.18L20.7,10v0a1,1,0,0,0,.06-.35v0a1.15,1.15,0,0,0-.07-.36v0a1.11,1.11,0,0,0-.21-.32h0L18.61,7.05a.11.11,0,0,1,0-.15L20.48,5a.11.11,0,0,1,.15,0L22.5,6.91h0a1,1,0,0,0,.29.19l.07,0a1,1,0,0,0,.33.06h0a1,1,0,0,0,.34-.06l.09,0,.11,0a9.57,9.57,0,0,1,3.18-1.32l.06,0,.12,0,.08,0,.09,0,.08-.07.07-.06.06-.08.06-.07s0,0,0-.08l.05-.09,0-.1a.24.24,0,0,0,0-.08s0-.09,0-.14V4.75h0V2.11A.11.11,0,0,1,27.82,2h2.63a.11.11,0,0,1,.11.11V4.74h0a.13.13,0,0,0,0,.06.66.66,0,0,0,0,.14s0,0,0,.08a.42.42,0,0,0,0,.1.36.36,0,0,0,0,.09l0,.08.06.07a.27.27,0,0,0,.07.08l.06.06.08.07.09,0,.08,0,.12,0,.06,0a9.57,9.57,0,0,1,3.18,1.32l.11,0,.1,0a1,1,0,0,0,.33.06h0a.88.88,0,0,0,.33-.06l.08,0a1.07,1.07,0,0,0,.28-.19h0L37.64,5a.11.11,0,0,1,.15,0L39.66,6.9a.11.11,0,0,1,0,.15L37.8,8.92h0a1.11,1.11,0,0,0-.21.32v0a1.44,1.44,0,0,0-.07.36v0a.84.84,0,0,0,.07.35v0a1,1,0,0,0,.07.15A9.79,9.79,0,0,1,39,13.35h0a1.48,1.48,0,0,0,.12.29v0a1.34,1.34,0,0,0,.2.21l0,0a1.23,1.23,0,0,0,.25.14h0a1,1,0,0,0,.3.05h2.65a.11.11,0,0,1,.11.11v2.63a.1.1,0,0,1-.11.11H39.7l-.14,0a.05.05,0,0,0,0,0l-.13.07,0,0-.11.09,0,.05-.08.09a.56.56,0,0,1,0,.08l0,.09a.56.56,0,0,0,0,.12.14.14,0,0,0,0,.07,10.05,10.05,0,0,1-1.32,3.17l-.08.15v0a1.13,1.13,0,0,0-.06.36v0a1,1,0,0,0,.07.35v0a1,1,0,0,0,.21.32h0l1.87,1.86a.11.11,0,0,1,0,.15l-1.87,1.87a.11.11,0,0,1-.15,0l-1.86-1.86h0a1,1,0,0,0-.32-.21h0a1.36,1.36,0,0,0-.35-.07h0a1.12,1.12,0,0,0-.35.06h0l-.15.08a9.77,9.77,0,0,1-3.18,1.31l-.05,0-.13,0-.08,0-.09.05-.07.06-.07.06-.07.08-.05.07a.41.41,0,0,0-.05.09s0,.05,0,.08a.22.22,0,0,0,0,.1l0,.09a.57.57,0,0,0,0,.13s0,0,0,.06h0V29a.1.1,0,0,1-.11.11H27.82a.11.11,0,0,1-.11-.11V26.38h0V26.3s0-.09,0-.13a.29.29,0,0,0,0-.09l0-.1a.35.35,0,0,0-.05-.08.36.36,0,0,0,0-.09l-.06-.07-.06-.08-.07-.06-.08-.06-.09-.05-.08,0-.12,0-.06,0a9.77,9.77,0,0,1-3.18-1.31L23.6,24h0a1.36,1.36,0,0,0-.35-.07h0a1.09,1.09,0,0,0-.35.07h0a1,1,0,0,0-.32.21h0l-1.86,1.87a.11.11,0,0,1-.15,0l-1.87-1.87a.11.11,0,0,1,0-.15l1.87-1.86h0a1,1,0,0,0,.21-.32v0a1,1,0,0,0,.07-.35v0a1.53,1.53,0,0,0-.07-.36v0a1.09,1.09,0,0,0-.08-.15,9.77,9.77,0,0,1-1.31-3.18l0-.07,0-.11-.06-.1s0-.05,0-.06a.62.62,0,0,0-.09-.12l0,0-.12-.11h0l-.15-.08h0l-.17,0h0l-.17,0H15.68a.1.1,0,0,1-.1-.11Z"></path><path class="cls-1" d="M29.14,19.89a4.33,4.33,0,1,0-4.34-4.33A4.33,4.33,0,0,0,29.14,19.89Zm0-6.66a2.33,2.33,0,1,1-2.34,2.33A2.33,2.33,0,0,1,29.14,13.23Z"></path><path class="cls-1" d="M29.14,23.89a8.33,8.33,0,1,0-8.34-8.33A8.34,8.34,0,0,0,29.14,23.89Zm0-14.66a6.33,6.33,0,1,1-6.34,6.33A6.34,6.34,0,0,1,29.14,9.23Z"></path></svg>