<svg width="58" height="52" viewBox="0 0 58 52" fill="none" xmlns="http://www.w3.org/2000/svg"><path fill-rule="evenodd" clip-rule="evenodd" d="M41.0139 47.0016H15.684C15.3037 47.0096 14.9417 47.1663 14.6756 47.438C14.4094 47.7098 14.2604 48.075 14.2604 48.4554C14.2604 48.8357 14.4094 49.2009 14.6756 49.4727C14.9417 49.7445 15.3037 49.9012 15.684 49.9091H41.0139C41.3942 49.9012 41.7562 49.7445 42.0223 49.4727C42.2884 49.2009 42.4375 48.8357 42.4375 48.4554C42.4375 48.075 42.2884 47.7098 42.0223 47.438C41.7562 47.1663 41.3942 47.0096 41.0139 47.0016ZM5.12847 39.5251C4.95778 39.5198 4.79587 39.4483 4.67701 39.3256C4.55816 39.203 4.49169 39.0389 4.49169 38.8682C4.49169 38.6974 4.55816 38.5333 4.67701 38.4107C4.79587 38.2881 4.95778 38.2165 5.12847 38.2112H5.31023C5.39823 38.2085 5.48588 38.2234 5.56798 38.2552C5.65009 38.287 5.72497 38.3349 5.78819 38.3962C5.85141 38.4575 5.90168 38.5308 5.936 38.6119C5.97033 38.693 5.98801 38.7801 5.98801 38.8682C5.98801 38.9562 5.97033 39.0434 5.936 39.1244C5.90168 39.2055 5.85141 39.2789 5.78819 39.3401C5.72497 39.4014 5.65009 39.4494 5.56798 39.4811C5.48588 39.5129 5.39823 39.5279 5.31023 39.5251H5.12847ZM32.3688 45.6902V42.3718H24.3285V45.6902H32.3688ZM29.6405 5.11041H27.0568C26.904 5.11041 26.7575 5.1711 26.6495 5.27912C26.5415 5.38714 26.4808 5.53365 26.4808 5.68641V7.06305C26.4808 7.23697 26.4214 7.40569 26.3125 7.54127C26.2035 7.67685 26.0516 7.77118 25.8817 7.80865C24.6084 8.09069 23.3932 8.58993 22.2894 9.28449C22.1419 9.39802 21.9582 9.45412 21.7724 9.44234C21.5867 9.43057 21.4115 9.35173 21.2795 9.22049L20.3061 8.24705C20.1981 8.13938 20.0518 8.07892 19.8993 8.07892C19.7469 8.07892 19.6006 8.13938 19.4926 8.24705L17.6641 10.0736C17.5565 10.1816 17.496 10.3278 17.496 10.4803C17.496 10.6328 17.5565 10.7791 17.6641 10.8871L18.6376 11.8605C18.7598 11.9839 18.8365 12.145 18.8553 12.3176C18.8742 12.4902 18.834 12.6641 18.7413 12.8109C18.04 13.9108 17.5332 15.1231 17.243 16.3949C17.2186 16.5792 17.1281 16.7483 16.9884 16.8709C16.8487 16.9936 16.6692 17.0614 16.4833 17.0618H15.1073C14.9546 17.0618 14.8081 17.1225 14.7001 17.2305C14.592 17.3385 14.5313 17.485 14.5313 17.6378V20.2215C14.5313 20.3742 14.592 20.5207 14.7001 20.6287C14.8081 20.7368 14.9546 20.7974 15.1073 20.7974H16.4833C16.6572 20.7976 16.8259 20.857 16.9615 20.9659C17.097 21.0748 17.1914 21.2267 17.2289 21.3965C17.5108 22.67 18.0101 23.8855 18.7048 24.9895C18.8181 25.1369 18.8741 25.3205 18.8624 25.5061C18.8506 25.6917 18.7719 25.8668 18.6408 25.9987L17.6673 26.9722C17.5604 27.081 17.501 27.2279 17.5022 27.3805C17.5019 27.4559 17.5165 27.5306 17.5451 27.6004C17.5738 27.6701 17.616 27.7335 17.6693 27.7869L19.4958 29.6141C19.6044 29.7207 19.7504 29.7804 19.9025 29.7804C20.0547 29.7804 20.2007 29.7207 20.3093 29.6141L21.2827 28.6407C21.4057 28.5179 21.5669 28.4407 21.7397 28.4218C21.9125 28.403 22.0865 28.4436 22.2331 28.537C22.7807 28.8858 23.3571 29.1873 23.956 29.4381L23.9944 29.4528C24.5848 29.6981 25.195 29.8927 25.8184 30.0346C26.0028 30.0591 26.172 30.1496 26.2946 30.2895C26.4173 30.4293 26.485 30.6089 26.4853 30.7949V32.1709C26.4853 32.3237 26.546 32.4702 26.654 32.5782C26.762 32.6862 26.9085 32.7469 27.0613 32.7469H29.6405C29.7932 32.7469 29.9397 32.6862 30.0478 32.5782C30.1558 32.4702 30.2165 32.3237 30.2165 32.1709V30.7968C30.2166 30.6229 30.276 30.4543 30.3849 30.3187C30.4938 30.1831 30.6457 30.0888 30.8155 30.0512C32.0892 29.7695 33.3047 29.27 34.4085 28.5747C34.556 28.4612 34.7397 28.4051 34.9255 28.4169C35.1112 28.4287 35.2864 28.5075 35.4184 28.6387L36.3918 29.6122C36.5004 29.7188 36.6464 29.7785 36.7985 29.7785C36.9507 29.7785 37.0967 29.7188 37.2053 29.6122L39.0318 27.785C39.1395 27.677 39.2 27.5307 39.2 27.3783C39.2 27.2258 39.1395 27.0795 39.0318 26.9715L38.0584 25.9981C37.9376 25.8742 37.8622 25.713 37.8444 25.5409C37.8266 25.3687 37.8675 25.1956 37.9605 25.0496C38.6622 23.95 39.1688 22.7376 39.4581 21.4656C39.4827 21.2813 39.5733 21.1123 39.7132 20.9898C39.853 20.8672 40.0325 20.7996 40.2184 20.7994H41.5944C41.7472 20.7994 41.8937 20.7387 42.0017 20.6307C42.1097 20.5226 42.1704 20.3761 42.1704 20.2234V17.6371C42.1704 17.4844 42.1097 17.3379 42.0017 17.2298C41.8937 17.1218 41.7472 17.0611 41.5944 17.0611H40.2184V17.0579C40.0445 17.0579 39.8758 16.9986 39.7402 16.8896C39.6046 16.7807 39.5103 16.6287 39.4728 16.4589C39.1909 15.1853 38.6917 13.9699 37.9969 12.8659C37.8836 12.7185 37.8276 12.5349 37.8394 12.3493C37.8511 12.1637 37.9299 11.9886 38.0609 11.8567L39.0344 10.8832C39.141 10.7747 39.2007 10.6286 39.2007 10.4765C39.2007 10.3244 39.141 10.1783 39.0344 10.0698L37.2072 8.24321C37.0992 8.13574 36.9531 8.0754 36.8008 8.0754C36.6485 8.0754 36.5023 8.13574 36.3944 8.24321L35.4209 9.21665C35.2981 9.33949 35.1371 9.41677 34.9644 9.43573C34.7917 9.4547 34.6177 9.41422 34.4712 9.32097C33.3713 8.61961 32.159 8.1128 30.8872 7.82273C30.702 7.79908 30.5318 7.70879 30.4083 7.56874C30.2849 7.42869 30.2167 7.24846 30.2165 7.06177V5.68513C30.2165 5.53237 30.1558 5.38586 30.0478 5.27784C29.9397 5.16982 29.7932 5.10913 29.6405 5.10913V5.11041ZM27.0568 3.57441H29.6405C30.1993 3.57543 30.7349 3.79786 31.13 4.193C31.5252 4.58813 31.7476 5.12376 31.7486 5.68257V6.46401C32.8017 6.74953 33.8139 7.16872 34.7605 7.71137L35.3115 7.16033C35.7073 6.76599 36.2433 6.54458 36.8021 6.54458C37.3608 6.54458 37.8968 6.76599 38.2926 7.16033L40.1179 8.98561C40.5124 9.38148 40.734 9.91759 40.734 10.4765C40.734 11.0354 40.5124 11.5715 40.1179 11.9674L39.5669 12.5184C40.1087 13.464 40.5279 14.4748 40.8142 15.5264H41.5925C42.1513 15.5274 42.6869 15.7499 43.082 16.145C43.4772 16.5401 43.6996 17.0758 43.7006 17.6346V20.2183C43.6996 20.7771 43.4772 21.3127 43.082 21.7078C42.6869 22.103 42.1513 22.3254 41.5925 22.3264H40.8142C40.5279 23.378 40.1087 24.3888 39.5669 25.3344L40.1179 25.8855C40.5124 26.2813 40.734 26.8174 40.734 27.3763C40.734 27.9352 40.5124 28.4713 40.1179 28.8672L38.2913 30.6944C37.8955 31.0889 37.3594 31.3105 36.8005 31.3105C36.2416 31.3105 35.7055 31.0889 35.3096 30.6944L34.7605 30.1472C34.2856 30.4184 33.7939 30.6591 33.2885 30.8679C32.7861 31.076 32.2709 31.2517 31.7461 31.3939V32.1728C31.7451 32.7312 31.523 33.2664 31.1284 33.6615C30.7338 34.0565 30.1988 34.2793 29.6405 34.281H27.0568C26.498 34.28 25.9624 34.0575 25.5672 33.6624C25.1721 33.2672 24.9496 32.7316 24.9486 32.1728V31.3946C24.4232 31.2521 23.9073 31.0761 23.4043 30.8679C23.391 30.8627 23.378 30.857 23.3653 30.8506C22.876 30.6454 22.3998 30.4103 21.9393 30.1466L21.3883 30.6976C20.9924 31.0921 20.4563 31.3137 19.8974 31.3137C19.3385 31.3137 18.8024 31.0921 18.4065 30.6976L16.58 28.8704C16.1853 28.4753 15.9637 27.9396 15.9637 27.3811C15.9637 26.8227 16.1853 26.287 16.58 25.8919L17.131 25.3408C16.86 24.8674 16.6193 24.3772 16.4104 23.8733C16.202 23.3709 16.0261 22.8558 15.8837 22.3309H15.1054C14.546 22.3309 14.0093 22.1089 13.6134 21.7137C13.2174 21.3184 12.9944 20.7822 12.9934 20.2227V17.6371C12.9944 17.0777 13.2174 16.5414 13.6134 16.1462C14.0093 15.751 14.546 15.529 15.1054 15.529H15.8837C16.0263 15.0044 16.202 14.4895 16.4097 13.9872C16.6191 13.4834 16.86 12.9932 17.131 12.5197L16.58 11.9687C16.1855 11.5728 15.9639 11.0367 15.9639 10.4778C15.9639 9.91887 16.1855 9.38276 16.58 8.98689L18.4065 7.16033C18.8024 6.7658 19.3385 6.54427 19.8974 6.54427C20.4563 6.54427 20.9924 6.7658 21.3883 7.16033L21.9393 7.71137C22.8846 7.16883 23.8955 6.74963 24.9473 6.46401V5.68513C24.9484 5.12632 25.1708 4.5907 25.5659 4.19556C25.9611 3.80042 26.4967 3.57799 27.0555 3.57697L27.0568 3.57441ZM33.7128 13.5642C34.9533 14.8048 35.7252 16.4372 35.8971 18.1832C36.069 19.9292 35.6301 21.6808 34.6554 23.1395C33.6806 24.5982 32.2302 25.6738 30.5513 26.183C28.8724 26.6922 27.0688 26.6036 25.448 25.9321C23.8271 25.2607 22.4892 24.048 21.6622 22.5007C20.8352 20.9534 20.5703 19.1672 20.9126 17.4465C21.2549 15.7258 22.1832 14.177 23.5394 13.064C24.8956 11.951 26.5958 11.3427 28.3502 11.3427C29.3464 11.3414 30.3329 11.537 31.2532 11.9183C32.1735 12.2995 33.0094 12.8588 33.7128 13.5642ZM28.3502 9.80929C30.4599 9.80904 32.5045 10.5403 34.1354 11.8785C35.7664 13.2168 36.8829 15.0791 37.2947 17.1483C37.7064 19.2174 37.388 21.3653 36.3936 23.226C35.3992 25.0867 33.7904 26.545 31.8414 27.3524C29.8923 28.1599 27.7235 28.2665 25.7046 27.6542C23.6857 27.0418 21.9416 25.7484 20.7695 23.9942C19.5974 22.2401 19.0697 20.1338 19.2765 18.0342C19.4833 15.9347 20.4117 13.9718 21.9035 12.48C22.7491 11.6321 23.754 10.9596 24.8603 10.5013C25.9667 10.0429 27.1527 9.80776 28.3502 9.80929ZM25.6859 20.3514C25.8298 20.4781 25.9211 20.6542 25.9418 20.8448C25.9624 21.0355 25.9111 21.227 25.7977 21.3816C25.6843 21.5363 25.5172 21.643 25.3292 21.6807C25.1411 21.7184 24.9458 21.6843 24.7816 21.5853L22.0053 19.5456C21.8422 19.4252 21.7333 19.2452 21.7024 19.0449C21.6714 18.8446 21.721 18.6401 21.8401 18.4762C21.8899 18.4089 21.9499 18.35 22.0181 18.3015L24.7816 16.272C24.9458 16.173 25.1411 16.1389 25.3292 16.1766C25.5172 16.2143 25.6843 16.321 25.7977 16.4757C25.9111 16.6303 25.9624 16.8218 25.9418 17.0125C25.9211 17.2031 25.8298 17.3792 25.6859 17.5059L23.7525 18.9293L25.6891 20.3514H25.6859ZM31.9163 21.5853C31.7521 21.6843 31.5568 21.7184 31.3687 21.6807C31.1807 21.643 31.0136 21.5363 30.9002 21.3816C30.7868 21.227 30.7354 21.0355 30.7561 20.8448C30.7768 20.6542 30.8681 20.4781 31.012 20.3514L32.9486 18.9293L31.012 17.5066C30.8681 17.3798 30.7768 17.2038 30.7561 17.0131C30.7354 16.8225 30.7868 16.631 30.9002 16.4763C31.0136 16.3216 31.1807 16.215 31.3687 16.1773C31.5568 16.1396 31.7521 16.1736 31.9163 16.2726L34.6792 18.3021C34.7477 18.3504 34.808 18.4094 34.8577 18.4768C34.9769 18.6408 35.0265 18.8452 34.9955 19.0456C34.9646 19.2459 34.8557 19.4259 34.6926 19.5463L31.9163 21.5853ZM27.6027 22.6176C27.5233 22.8043 27.3729 22.9518 27.1847 23.0277C26.9965 23.1035 26.7859 23.1015 26.5992 23.0221C26.4125 22.9427 26.265 22.7923 26.1891 22.6041C26.1133 22.4159 26.1153 22.2053 26.1947 22.0186L29.0945 15.2391C29.174 15.0523 29.3243 14.9048 29.5125 14.829C29.7007 14.7531 29.9114 14.7551 30.0981 14.8346C30.2848 14.914 30.4323 15.0644 30.5081 15.2526C30.584 15.4408 30.582 15.6514 30.5025 15.8381L27.6027 22.6176ZM49.6277 27.3767C50.6674 27.8827 51.5447 28.6697 52.1603 29.6485C52.776 30.6273 53.1053 31.7589 53.1112 32.9152C53.1146 34.0642 52.8003 35.1919 52.203 36.1734C52.1366 36.282 52.1033 36.4076 52.1071 36.5348C52.111 36.662 52.1519 36.7853 52.2248 36.8896L55.1451 41.6032C55.1624 41.6376 55.1827 41.6704 55.2059 41.7011L56.1365 43.2032L51.9989 45.767L49.3051 41.4195C49.2878 41.3849 49.2675 41.3519 49.2443 41.321L48.0725 39.424C48.0088 39.3208 47.9177 39.2373 47.8093 39.1828C47.7009 39.1283 47.5795 39.105 47.4587 39.1155C46.3143 39.2146 45.1649 38.9949 44.1377 38.4807C43.1069 37.9617 42.2413 37.1652 41.6386 36.1809C41.036 35.1966 40.7201 34.0636 40.7265 32.9094C40.7322 32.1094 40.8921 31.318 41.1976 30.5786L43.7461 34.6919C43.8018 34.782 43.8785 34.8573 43.9697 34.9112C44.0609 34.9652 44.1638 34.9962 44.2696 35.0016L47.8497 35.1879C47.99 35.195 48.1289 35.1568 48.2458 35.079C48.3628 35.0013 48.4517 34.888 48.4993 34.7559L49.9073 31.504C49.9493 31.4075 49.9672 31.3022 49.9597 31.1972C49.9521 31.0922 49.9192 30.9907 49.8638 30.9011L47.3038 26.7661C48.1114 26.8172 48.9014 27.025 49.6296 27.3779L49.6277 27.3767ZM47.5406 41.0573L47.1624 40.4461C45.8439 40.4882 44.5375 40.1822 43.3749 39.5588C42.2122 38.9355 41.2343 38.0168 40.5397 36.8954C40.436 36.7285 40.3398 36.5592 40.251 36.3872H1.62255V41.0592L47.5406 41.0573ZM56.3893 41.1258L57.595 43.0707C57.6402 43.1439 57.6705 43.2252 57.6843 43.3101C57.698 43.395 57.6949 43.4818 57.6751 43.5654C57.6553 43.6491 57.6192 43.7281 57.5689 43.7978C57.5186 43.8675 57.4551 43.9267 57.3819 43.9718L52.1339 47.225C52.0607 47.2702 51.9794 47.3005 51.8945 47.3142C51.8096 47.328 51.7229 47.3248 51.6392 47.3051C51.5555 47.2853 51.4766 47.2492 51.4068 47.1989C51.3371 47.1486 51.278 47.085 51.2328 47.0118L48.3579 42.3718H33.684V45.6902H41.0139C41.748 45.6902 42.4521 45.9819 42.9712 46.501C43.4903 47.0201 43.7819 47.7241 43.7819 48.4582C43.7819 49.1924 43.4903 49.8964 42.9712 50.4155C42.4521 50.9346 41.748 51.2262 41.0139 51.2262H15.684C14.9499 51.2262 14.2458 50.9346 13.7267 50.4155C13.2076 49.8964 12.916 49.1924 12.916 48.4582C12.916 47.7241 13.2076 47.0201 13.7267 46.501C14.2458 45.9819 14.9499 45.6902 15.684 45.6902H23.0139V42.3718H1.07919C0.875699 42.3713 0.680735 42.2901 0.537107 42.1459C0.465539 42.0748 0.408694 41.9902 0.369819 41.8971C0.330945 41.804 0.310804 41.7041 0.310547 41.6032V1.56161C0.311235 1.35803 0.392725 1.16305 0.537107 1.01953C0.68063 0.875149 0.875607 0.793659 1.07919 0.792971H55.6181C55.8226 0.79246 56.019 0.873094 56.1642 1.01719C56.3094 1.16128 56.3915 1.35707 56.3925 1.56161V41.1258H56.3893ZM53.5848 36.3898C53.5656 36.4282 53.5451 36.4666 53.5246 36.5043L55.0753 39.0067V36.3872L53.5848 36.3898ZM46.0725 25.488C45.9627 25.5003 45.8578 25.5401 45.7675 25.6038C45.6772 25.6674 45.6045 25.7529 45.5561 25.8522C45.5077 25.9515 45.4852 26.0614 45.4907 26.1717C45.4961 26.282 45.5294 26.3892 45.5873 26.4832L48.5704 31.2973L47.4606 33.8535L44.6753 33.7088L41.7032 28.912C41.6516 28.8278 41.5813 28.7567 41.4977 28.704C41.4253 28.6577 41.3445 28.6262 41.2598 28.6112C41.1752 28.5962 41.0884 28.598 41.0045 28.6166C40.9206 28.6351 40.8411 28.67 40.7707 28.7193C40.7003 28.7685 40.6403 28.8312 40.5941 28.9037C39.8328 30.099 39.424 31.4847 39.4145 32.9018C39.4092 33.6363 39.5125 34.3677 39.7211 35.072H1.62255V2.10753H55.0753V35.0727H54.1121C54.4635 33.8847 54.5153 32.6282 54.2628 31.4154C54.0104 30.2025 53.4616 29.0711 52.6655 28.1219C51.8693 27.1728 50.8506 26.4355 49.7002 25.9759C48.5498 25.5163 47.3034 25.3487 46.0725 25.488Z" fill="#0CB4C4"></path></svg>