<svg width="57" height="56" viewBox="0 0 57 56" fill="none" xmlns="http://www.w3.org/2000/svg"><path d="M25.3008 21.9264C29.2769 21.9264 32.5112 18.7023 32.5112 14.7389C32.1335 5.21094 18.4672 5.21312 18.0908 14.7389C18.0908 18.7022 21.3252 21.9264 25.3008 21.9264ZM25.3008 9.55138C28.1738 9.55138 30.5112 11.8785 30.5112 14.7389C30.2669 21.6042 20.3342 21.6029 20.0908 14.7388C20.0908 11.8785 22.4282 9.55138 25.3008 9.55138Z" fill="#0CB4C4"></path><path d="M42.3623 29.3359C38.3867 29.3359 35.1523 32.5601 35.1523 36.5234C35.5302 46.0516 49.1959 46.0489 49.5723 36.5234C49.5723 32.5601 46.3379 29.3359 42.3623 29.3359ZM42.3623 41.7109C39.4893 41.7109 37.1523 39.3838 37.1523 36.5234C37.3965 29.6578 47.3292 29.6596 47.5723 36.5235C47.5723 39.3838 45.2354 41.7109 42.3623 41.7109Z" fill="#0CB4C4"></path><path d="M11.7628 18.5503L15.2222 24.5205C15.4595 24.9297 15.9508 25.1167 16.3995 24.9692L19.3306 24.0064C19.6231 24.1934 19.9254 24.3672 20.2354 24.5264L20.8629 27.5337C20.9596 27.9971 21.3683 28.3291 21.8419 28.3291H28.7608C29.2345 28.3291 29.6427 27.9971 29.7393 27.5337L30.3683 24.5264C30.6778 24.3672 30.9796 24.1934 31.2726 24.0064L34.2032 24.9692C34.6563 25.1172 35.1437 24.9292 35.381 24.5205L38.8399 18.5503C39.0782 18.1392 38.9942 17.6177 38.6397 17.3018L36.3458 15.2607C36.3639 14.9147 36.3638 14.5618 36.3458 14.2158L38.6397 12.1753C38.9942 11.8599 39.0782 11.3379 38.8399 10.9268L35.381 4.95654C35.1437 4.54834 34.6563 4.36084 34.2032 4.50781L31.2726 5.4707C30.9806 5.28369 30.6778 5.10986 30.3683 4.95019L29.7393 1.94287C29.6427 1.47949 29.2345 1.14746 28.7608 1.14746H21.8419C21.3683 1.14746 20.9596 1.47949 20.8629 1.94287L20.2354 4.95019C19.9249 5.10986 19.6226 5.28369 19.3306 5.4707L16.3995 4.50781C15.9503 4.35986 15.4591 4.54736 15.2222 4.95654L11.7628 10.9268C11.5245 11.3379 11.6085 11.8599 11.9635 12.1753L14.2574 14.2153C14.2481 14.3887 14.2481 15.0879 14.2574 15.2612L11.9635 17.3018C11.6085 17.6172 11.5245 18.1392 11.7628 18.5503ZM15.9556 16.4272C16.4731 15.9984 16.4723 13.4778 15.9556 13.0493C15.9557 13.0493 13.9024 11.2232 13.9024 11.2232L16.546 6.66114L19.171 7.52344C19.4703 7.62012 19.8014 7.57178 20.0611 7.38916C20.6689 6.80381 21.8488 6.73441 22.0929 5.83945C22.0929 5.83936 22.6549 3.14746 22.6549 3.14746H27.9483L28.5103 5.83935C28.5753 6.15039 28.7843 6.4121 29.0733 6.54394C29.8963 6.78244 30.5332 7.75713 31.4327 7.52355C31.4327 7.52343 34.0567 6.66113 34.0567 6.66113L36.7003 11.2236L34.6475 13.0493C34.1318 13.4784 34.1326 15.9985 34.6476 16.4272C34.6475 16.4272 36.7003 18.2534 36.7003 18.2534L34.0567 22.8159L31.4327 21.9536C30.5336 21.7243 29.8946 22.6919 29.0733 22.9325C28.7843 23.0645 28.5753 23.3262 28.5103 23.6372L27.9483 26.3291H22.6549L22.0929 23.6372C22.0279 23.3262 21.8189 23.0645 21.5299 22.9326C20.7081 22.6951 20.0689 21.7193 19.171 21.9535C19.171 21.9536 16.546 22.8159 16.546 22.8159L13.9024 18.2534L15.9556 16.4272Z" fill="#0CB4C4"></path><path d="M16.0508 31.8281C12.687 31.8281 9.9502 34.5566 9.9502 37.9102C10.2364 45.9606 21.867 45.958 22.1519 37.9101C22.1519 34.5566 19.415 31.8281 16.0508 31.8281ZM16.0508 41.9927C10.6317 41.8209 10.6325 33.9989 16.0509 33.8281C21.4709 33.9999 21.4692 41.8215 16.0508 41.9927Z" fill="#0CB4C4"></path><path d="M27.568 34.6274L24.6602 29.6099C24.4234 29.2007 23.9327 29.0142 23.483 29.1611L21.0914 29.9468C20.8834 29.8159 20.669 29.6929 20.4503 29.5781L19.9381 27.125C19.8414 26.6611 19.4327 26.3291 18.9591 26.3291H13.1441C12.6705 26.3291 12.2623 26.6611 12.1651 27.1245L11.6529 29.5781C11.4337 29.6934 11.2193 29.8164 11.0118 29.9468L8.61972 29.1611C8.1705 29.0137 7.67929 29.2012 7.44247 29.6099L4.53524 34.6274C4.29696 35.0386 4.38094 35.5606 4.73592 35.876L6.60653 37.54C6.59553 37.7847 6.59554 38.0366 6.60653 38.2812L4.73592 39.9458C4.38094 40.2612 4.29696 40.7832 4.53524 41.1943L7.44247 46.2119C7.67977 46.6206 8.17099 46.8071 8.61972 46.6607L11.0118 45.875C11.2193 46.0054 11.4337 46.1284 11.6529 46.2437L12.1651 48.6968C12.2623 49.1602 12.6705 49.4922 13.1441 49.4922H18.9591C19.4327 49.4922 19.8414 49.1602 19.9381 48.6968L20.4503 46.2437C20.669 46.1289 20.8834 46.0059 21.0914 45.875L23.483 46.6607C23.9322 46.8067 24.4234 46.6216 24.6602 46.2119L27.568 41.1943C27.8062 40.7832 27.7223 40.2612 27.3673 39.9458L25.4962 38.2812C25.5016 38.1587 25.5016 37.6631 25.4962 37.54L27.3673 35.876C27.7223 35.5606 27.8062 35.0386 27.568 34.6274ZM23.7999 39.4492L25.4283 40.8975L23.3365 44.5073L21.2535 43.8228C20.4462 43.5803 19.8805 44.4257 19.1548 44.6523C18.8658 44.7842 18.6568 45.0459 18.5919 45.3569L18.1461 47.4922H13.9566L13.5108 45.3569C13.3226 44.5392 12.2851 44.4611 11.7404 43.9575C11.4801 43.7729 11.1495 43.7246 10.8497 43.8228L8.76619 44.5073L6.67488 40.8975L8.30281 39.4492C8.7814 39.0602 8.78003 36.7605 8.30278 36.3721C8.30281 36.3721 6.67489 34.9238 6.67489 34.9238L8.7662 31.3145L10.8497 31.999C11.6559 32.2398 12.2213 31.3975 12.9484 31.1695C13.2369 31.0371 13.4459 30.7754 13.5108 30.4648L13.9566 28.3291H18.1461L18.5919 30.4644C18.7807 31.2839 19.8158 31.3589 20.3633 31.8648C20.6217 32.0479 20.9522 32.0962 21.2535 31.999L23.3365 31.3145L25.4283 34.9238L23.7999 36.3721C23.3213 36.7609 23.3227 39.0607 23.7999 39.4492Z" fill="#0CB4C4"></path><path d="M53.4073 37.0464C53.4254 36.7011 53.4254 36.346 53.4073 36.001L55.7013 33.9604C56.0558 33.645 56.1397 33.123 55.9015 32.7119L52.4425 26.7417C52.2062 26.333 51.714 26.145 51.2657 26.293L48.3331 27.2559C48.0421 27.0693 47.7403 26.8955 47.4298 26.7358L46.8009 23.728C46.7042 23.2646 46.296 22.9326 45.8224 22.9326H38.9034C38.4298 22.9326 38.0216 23.2646 37.9249 23.728L37.296 26.7358C36.9864 26.895 36.6846 27.0688 36.3917 27.2559L33.461 26.293C33.0098 26.145 32.5206 26.333 32.2833 26.7417L28.8243 32.7119C28.586 33.123 28.67 33.6445 29.025 33.9604L31.3184 36.0015C31.3004 36.3466 31.3004 36.7007 31.3184 37.0459L29.025 39.0869C28.67 39.4028 28.586 39.9243 28.8243 40.3355L32.2833 46.3057C32.5206 46.7139 33.0098 46.9014 33.461 46.7544L36.3917 45.7915C36.6837 45.9785 36.9864 46.1523 37.296 46.312L37.9249 49.3193C38.0216 49.7827 38.4298 50.1147 38.9034 50.1147H45.8224C46.296 50.1147 46.7042 49.7827 46.8009 49.3193L47.4298 46.3115C47.7403 46.1519 48.0421 45.978 48.3331 45.7915L51.2657 46.7544C51.714 46.9014 52.2062 46.7139 52.4425 46.3057L55.9015 40.3355C56.1397 39.9243 56.0558 39.4023 55.7013 39.0869L53.4073 37.0464ZM51.1183 44.6011L48.4923 43.7388C47.5944 43.5073 46.9606 44.4762 46.1348 44.7177C45.8458 44.8496 45.6368 45.1113 45.5724 45.4224L45.0099 48.1147H39.7159L39.1534 45.4224C39.089 45.1113 38.88 44.8496 38.5899 44.7173C37.7671 44.4787 37.1332 43.5081 36.2316 43.7387C36.2315 43.7388 33.6075 44.6011 33.6075 44.6011L30.964 40.0386L33.0167 38.2124C33.5324 37.7832 33.5317 35.2639 33.0167 34.835C33.0167 34.835 30.964 33.0088 30.964 33.0088L33.6075 28.4463L36.2315 29.3086C37.1317 29.5397 37.7686 28.5696 38.5909 28.3297C38.88 28.1977 39.0889 27.936 39.1534 27.625L39.7159 24.9326H45.0098L45.5723 27.625C45.6368 27.9355 45.8458 28.1973 46.1339 28.3296C46.9614 28.57 47.5921 29.5405 48.4922 29.3087C48.4923 29.3086 51.1182 28.4463 51.1182 28.4463L53.7618 33.0088L51.7081 34.835C51.1914 35.2641 51.1925 37.7838 51.7081 38.2124C51.7081 38.2124 53.7618 40.0386 53.7618 40.0386L51.1183 44.6011Z" fill="#0CB4C4"></path><path d="M35.8184 2.83252C41.0633 5.85218 43.2008 12.8984 40.4599 18.2871C39.8919 19.4561 41.6707 20.3432 42.2569 19.165C45.4599 12.8719 42.9649 4.64006 36.8417 1.11382C35.7021 0.463966 34.699 2.13801 35.8184 2.83252Z" fill="#0CB4C4"></path><path d="M5.5414 29.3284C6.83876 28.035 8.36904 27.0794 10.0897 26.4881C10.6122 26.3084 10.8895 25.7396 10.7104 25.2171C10.011 23.0994 4.99333 26.962 4.12978 27.9114C0.668361 31.3592 -0.73691 36.4422 0.46182 41.1766C0.57657 41.6292 0.9833 41.931 1.43057 41.931C2.0713 41.9378 2.56693 41.3074 2.40029 40.6854C1.37442 36.6321 2.57754 32.2806 5.5414 29.3284Z" fill="#0CB4C4"></path><path d="M45.9395 51.8901C40.5172 54.5744 33.4365 52.4585 30.4405 47.1986C29.7583 46.0819 28.0654 47.0705 28.7183 48.2163C32.2116 54.3585 40.4893 56.8263 46.8009 53.6947C47.9752 53.1101 47.1367 51.3417 45.9395 51.8901Z" fill="#0CB4C4"></path></svg>