<svg width="56" height="60" viewBox="0 0 56 60" fill="none" xmlns="http://www.w3.org/2000/svg"><path d="M28.5028 17.4775C28.5028 13.4252 25.1876 10.1289 21.1125 10.1289C17.0369 10.1289 13.7217 13.4252 13.7217 17.4775C13.7217 21.5293 17.0369 24.8255 21.1125 24.8255C25.1876 24.8255 28.5028 21.5293 28.5028 17.4775ZM20.4968 11.3846V17.1237L15.4975 19.9822C15.1508 19.2169 14.9532 18.3702 14.9532 17.4775C14.9532 14.3068 17.3885 11.6925 20.4968 11.3846ZM16.1139 21.0413L21.7283 17.8314V11.3846C24.836 11.6925 27.2713 14.3068 27.2713 17.4775C27.2713 20.854 24.5084 23.6011 21.1125 23.6011C19.0541 23.6011 17.2327 22.5884 16.1139 21.0413Z" fill="#0CB4C4"></path><path d="M35.9332 15.2256H31.0596V24.8223H35.9332V15.2256ZM34.7017 23.5979H32.2911V16.4501H34.7017V23.5979Z" fill="#0CB4C4"></path><path d="M37.9072 24.8386H42.7809V11.0107H37.9072V24.8386ZM39.1387 12.2352H41.5494V23.6142H39.1387V12.2352Z" fill="#0CB4C4"></path><path d="M20.5332 34.6764H35.9701V29.541H20.5332V34.6764ZM21.7647 30.7649H34.7386V33.452H21.7647V30.7649Z" fill="#0CB4C4"></path><path d="M40.5986 39.3906H15.9033V40.6151H40.5986V39.3906Z" fill="#0CB4C4"></path><path d="M36.5921 44.0264H19.9102V45.2508H36.5921V44.0264Z" fill="#0CB4C4"></path><path d="M32.1118 48.6631H24.3896V49.8876H32.1118V48.6631Z" fill="#0CB4C4"></path><path d="M55.2312 41.8014L47.0066 26.1301V6.97514C47.0066 5.99863 46.2074 5.20395 45.2246 5.20395H36.0241L33.7963 0.96057C33.3412 0.0948737 32.2637 -0.24063 31.393 0.209973L21.7688 5.20395H11.2777C10.2955 5.20395 9.49629 5.99863 9.49629 6.97514V11.5718L1.29757 15.8262C0.875776 16.0447 0.564822 16.4139 0.422583 16.8658C0.280345 17.317 0.322216 17.7963 0.542655 18.2163L9.4969 35.2762V53.0426C9.4969 54.0191 10.2961 54.8138 11.2783 54.8138H19.751L21.9782 59.0571C22.198 59.4765 22.5693 59.7851 23.0237 59.9271C23.1998 59.9822 23.3802 60.0098 23.5594 60.0098C23.8427 60.0098 24.1234 59.9418 24.3814 59.8077L34.0063 54.8144H45.2258C46.2086 54.8144 47.0078 54.0197 47.0078 53.0432V48.0688L54.4781 44.1927C54.9005 43.9736 55.2102 43.6038 55.3531 43.1532C55.4941 42.6995 55.4516 42.2201 55.2312 41.8014ZM31.962 1.29607C32.2317 1.15648 32.5642 1.26056 32.7039 1.5275L34.6343 5.20395H24.4301L31.962 1.29607ZM1.63438 17.6494C1.56665 17.5202 1.5531 17.3715 1.59682 17.2325C1.64115 17.0929 1.73721 16.979 1.86714 16.9123L9.49629 12.9536V32.6289L1.63438 17.6494ZM23.8106 58.7204C23.6813 58.789 23.5317 58.8031 23.3919 58.7578C23.2515 58.7143 23.137 58.6188 23.0693 58.4896L21.1401 54.8131H31.3431L23.8106 58.7204ZM45.7751 53.042C45.7751 53.3432 45.5288 53.5887 45.2246 53.5887H11.2777C10.9741 53.5887 10.7278 53.3438 10.7278 53.042V6.97514C10.7278 6.67331 10.9741 6.42842 11.2777 6.42842H45.2246C45.5282 6.42842 45.7751 6.67331 45.7751 6.97514V53.042ZM54.1764 42.7846C54.1327 42.9242 54.036 43.0381 53.9067 43.1054L47.0066 46.6858V28.7767L54.1395 42.3683C54.2078 42.4975 54.2214 42.6456 54.1764 42.7846Z" fill="#0CB4C4"></path></svg>