<svg width="54" height="62" viewBox="0 0 54 62" fill="none" xmlns="http://www.w3.org/2000/svg"><path fill-rule="evenodd" clip-rule="evenodd" d="M9.50653 31.2483C4.29095 31.2483 0.0361328 26.9603 0.0361328 21.6934C0.0361328 17.8212 2.36942 14.3302 5.88651 12.8662C6.873 8.56087 10.6732 5.48563 15.1081 5.48563C15.8201 5.48563 16.5235 5.57226 17.2098 5.72819C18.7625 2.4104 22.108 0.21875 25.7881 0.21875C28.8505 0.21875 31.6728 1.6914 33.457 4.16891C33.8774 4.10827 34.3063 4.08229 34.7523 4.08229C39.4275 4.08229 43.3821 7.556 44.1026 12.1299C44.137 12.1299 44.1884 12.1299 44.2227 12.1299C49.4383 12.1299 53.6931 16.4179 53.6931 21.6934C53.6931 26.6918 49.8243 30.8758 44.8918 31.231C44.4372 31.2656 44.034 30.9105 43.9997 30.4427C43.9654 29.9749 44.3085 29.5764 44.7718 29.5418C48.8293 29.2559 52.0204 25.7995 52.0204 21.6761C52.0204 17.3361 48.5205 13.8018 44.2227 13.8018C43.9826 13.8018 43.7338 13.8104 43.4335 13.8364C43.2105 13.8624 42.9961 13.7844 42.8159 13.6458C42.6529 13.4986 42.5414 13.282 42.5328 13.0654C42.2497 8.96801 38.827 5.76284 34.7523 5.76284C34.2205 5.76284 33.723 5.81481 33.234 5.9101C32.8994 5.9794 32.5477 5.8408 32.359 5.53761C30.9093 3.268 28.4559 1.90796 25.7795 1.90796C22.5369 1.90796 19.6031 3.96101 18.4708 7.01892C18.3164 7.43472 17.8703 7.65129 17.45 7.52135C16.6865 7.2788 15.9059 7.15752 15.1081 7.15752C11.3251 7.15752 8.0997 9.87759 7.43059 13.6198C7.3877 13.923 7.17324 14.1569 6.89874 14.2609C3.80199 15.3784 1.71747 18.3583 1.71747 21.6761C1.71747 26.0161 5.2174 29.5591 9.51511 29.5591C9.98691 29.5591 10.3558 29.9316 10.3558 30.3994C10.3558 30.8672 9.96118 31.2483 9.50653 31.2483Z" fill="#0CB4C4"></path><path fill-rule="evenodd" clip-rule="evenodd" d="M45.4576 20.9052H8.89701C7.50733 20.9052 6.375 19.7617 6.375 18.3583C6.375 16.955 7.50733 15.8115 8.89701 15.8115H45.4576C46.8558 15.8115 47.9881 16.955 47.9881 18.3583C47.9881 19.7617 46.8558 20.9052 45.4576 20.9052ZM8.89701 17.4921C8.43378 17.4921 8.03918 17.8906 8.03918 18.3583C8.03918 18.8434 8.4252 19.2246 8.89701 19.2246H45.4576C45.9379 19.2246 46.3154 18.8434 46.3154 18.3583C46.3154 17.8732 45.9379 17.4921 45.4576 17.4921H8.89701Z" fill="#0CB4C4"></path><path fill-rule="evenodd" clip-rule="evenodd" d="M44.8141 42.3365C44.3509 42.3365 43.982 41.964 43.982 41.4962V20.0649C43.982 19.5971 44.3509 19.2246 44.8141 19.2246C45.2859 19.2246 45.6548 19.5971 45.6548 20.0649V41.5136C45.6548 41.964 45.2859 42.3365 44.8141 42.3365ZM9.55747 42.3365C9.08566 42.3365 8.7168 41.964 8.7168 41.4962V20.0649C8.7168 19.5971 9.08566 19.2246 9.55747 19.2246C10.0207 19.2246 10.3896 19.5971 10.3896 20.0649V41.5136C10.3896 41.964 10.0207 42.3365 9.55747 42.3365Z" fill="#0CB4C4"></path><path fill-rule="evenodd" clip-rule="evenodd" d="M45.4576 45.7576H8.89701C7.50733 45.7576 6.375 44.6141 6.375 43.2021C6.375 41.7987 7.50733 40.6553 8.89701 40.6553H45.4576C46.8558 40.6553 47.9881 41.7987 47.9881 43.2021C47.9881 44.6141 46.8558 45.7576 45.4576 45.7576ZM8.89701 42.3358C8.43378 42.3358 8.03918 42.7343 8.03918 43.2021C8.03918 43.6872 8.4252 44.0684 8.89701 44.0684H45.4576C45.9379 44.0684 46.3154 43.6872 46.3154 43.2021C46.3154 42.7256 45.9379 42.3358 45.4576 42.3358H8.89701Z" fill="#0CB4C4"></path><path fill-rule="evenodd" clip-rule="evenodd" d="M27.1778 60.8748C26.7146 60.8748 26.3457 60.5024 26.3457 60.0346V44.9096C26.3457 44.4418 26.7146 44.0693 27.1778 44.0693C27.641 44.0693 28.0185 44.4418 28.0185 44.9096V60.0346C28.0185 60.5024 27.641 60.8748 27.1778 60.8748Z" fill="#0CB4C4"></path><path fill-rule="evenodd" clip-rule="evenodd" d="M10.63 61.8011C10.4327 61.8011 10.244 61.7231 10.081 61.5932C9.72931 61.29 9.68642 60.7616 9.99524 60.4064L23.669 44.3632C23.9606 44.008 24.4925 43.9647 24.8442 44.2766C25.1873 44.5798 25.2388 45.1082 24.93 45.4634L11.2562 61.5066C11.0933 61.7058 10.8616 61.8011 10.63 61.8011Z" fill="#0CB4C4"></path><path fill-rule="evenodd" clip-rule="evenodd" d="M43.7507 61.8015C43.5105 61.8015 43.2789 61.7062 43.1159 61.5069L29.4594 45.4637C29.1591 45.1172 29.1934 44.5801 29.5366 44.277C29.8797 43.9738 30.4115 44.0084 30.7204 44.3636L44.3941 60.4068C44.6858 60.7533 44.6515 61.2904 44.3083 61.5936C44.1368 61.7408 43.948 61.8015 43.7507 61.8015Z" fill="#0CB4C4"></path><path fill-rule="evenodd" clip-rule="evenodd" d="M41.4263 38.9237H12.2344C11.7712 38.9237 11.4023 38.5512 11.4023 38.0834C11.4023 37.6157 11.7712 37.2432 12.2344 37.2432H41.4263C41.8895 37.2432 42.2583 37.6157 42.2583 38.0834C42.2583 38.5512 41.8895 38.9237 41.4263 38.9237Z" fill="#0CB4C4"></path><path fill-rule="evenodd" clip-rule="evenodd" d="M21.2752 24.3269H12.2422C11.779 24.3269 11.4102 23.9544 11.4102 23.478C11.4102 23.0102 11.779 22.6377 12.2422 22.6377H21.2752C21.7384 22.6377 22.1072 23.0102 22.1072 23.478C22.1072 23.9544 21.7212 24.3269 21.2752 24.3269Z" fill="#0CB4C4"></path><path fill-rule="evenodd" clip-rule="evenodd" d="M21.2752 29.1952H12.2422C11.779 29.1952 11.4102 28.8227 11.4102 28.3549C11.4102 27.8871 11.779 27.5146 12.2422 27.5146H21.2752C21.7384 27.5146 22.1072 27.8871 22.1072 28.3549C22.1072 28.8227 21.7212 29.1952 21.2752 29.1952Z" fill="#0CB4C4"></path><path fill-rule="evenodd" clip-rule="evenodd" d="M21.2752 34.0554H12.2422C11.779 34.0554 11.4102 33.6829 11.4102 33.2151C11.4102 32.7387 11.779 32.3662 12.2422 32.3662H21.2752C21.7384 32.3662 22.1072 32.7387 22.1072 33.2151C22.1072 33.6829 21.7212 34.0554 21.2752 34.0554Z" fill="#0CB4C4"></path><path fill-rule="evenodd" clip-rule="evenodd" d="M41.4259 34.055H26.0108C25.5476 34.055 25.1787 33.6826 25.1787 33.2148V23.478C25.1787 23.0102 25.5476 22.6377 26.0108 22.6377H41.4345C41.8977 22.6377 42.2666 23.0102 42.2666 23.478V33.2148C42.258 33.6826 41.8892 34.055 41.4259 34.055ZM26.8429 32.3658H40.6024V24.3269H26.8429V32.3658Z" fill="#0CB4C4"></path></svg>