<svg width="43" height="60" viewBox="0 0 43 60" fill="none" xmlns="http://www.w3.org/2000/svg"><path d="M36.6184 26.4631V26.4444C36.6184 26.4231 36.6184 26.4018 36.6184 26.3778V26.3724C36.6184 26.3478 36.6184 26.3231 36.6184 26.2984V26.2791C36.6184 26.2598 36.6131 26.2404 36.6091 26.2211C36.6051 26.2018 36.6038 26.1991 36.6012 26.1878C36.5985 26.1764 36.5945 26.1604 36.5905 26.1464C36.5866 26.1324 36.5813 26.1191 36.5766 26.1051C36.572 26.0911 36.5693 26.0844 36.5653 26.0744C36.5613 26.0644 36.552 26.0458 36.5454 26.0318C36.5388 26.0178 36.5374 26.0138 36.5328 26.0051C36.5282 25.9964 36.5175 25.9784 36.5096 25.9658C36.5016 25.9531 36.499 25.9471 36.493 25.9384C36.487 25.9298 36.4777 25.9158 36.4691 25.9044C36.4605 25.8931 36.4551 25.8851 36.4472 25.8758C36.4392 25.8664 36.4319 25.8578 36.4239 25.8484C36.416 25.8391 36.406 25.8278 36.3961 25.8178L36.3735 25.7964C36.3622 25.7858 36.3509 25.7751 36.339 25.7651L36.3144 25.7498C36.3018 25.7398 36.2892 25.7298 36.2759 25.7204L36.2481 25.7038L36.2089 25.6804L36.1737 25.6624L36.1405 25.6464L36.0894 25.6271L36.0675 25.6191C36.0463 25.6124 36.0237 25.6064 36.0012 25.6018H35.9912C35.971 25.5974 35.9507 25.5941 35.9301 25.5918L35.9102 25.5884H35.8824C35.8638 25.5884 35.8459 25.5884 35.8273 25.5884H29.504C29.2928 25.5884 29.0902 25.6727 28.9409 25.8227C28.7915 25.9728 28.7076 26.1763 28.7076 26.3884C28.7123 26.6427 28.6665 26.8955 28.5729 27.1318C28.4793 27.3681 28.3397 27.5833 28.1623 27.7649C27.9849 27.9464 27.7733 28.0906 27.5398 28.189C27.3063 28.2875 27.0556 28.3382 26.8024 28.3382C26.5491 28.3382 26.2985 28.2875 26.065 28.189C25.8315 28.0906 25.6198 27.9464 25.4424 27.7649C25.2651 27.5833 25.1255 27.3681 25.0319 27.1318C24.9382 26.8955 24.8925 26.6427 24.8972 26.3884C24.8972 26.2834 24.8766 26.1793 24.8366 26.0823C24.7965 25.9852 24.7379 25.897 24.6639 25.8227C24.5899 25.7485 24.5021 25.6895 24.4055 25.6493C24.3089 25.6091 24.2053 25.5884 24.1007 25.5884H19.4886V21.6518C20.2565 21.4716 20.9412 21.0358 21.4313 20.4153C21.9214 19.7947 22.1882 19.0259 22.1882 18.2338C22.1882 17.4416 21.9214 16.6728 21.4313 16.0523C20.9412 15.4317 20.2565 14.9959 19.4886 14.8158V6.98177C19.4886 6.76959 19.4046 6.56611 19.2553 6.41608C19.1059 6.26605 18.9033 6.18177 18.6921 6.18177C8.62484 6.18177 0.43457 13.8271 0.43457 23.2244C0.438734 26.7114 1.56794 30.1031 3.65293 32.8911C6.95227 37.3558 7.1109 40.5378 7.1109 45.7784V49.5664C7.1123 50.7824 7.59387 51.9481 8.44995 52.8079C9.30602 53.6677 10.4667 54.1512 11.6773 54.1524H11.8465V56.2858C11.849 57.2735 12.241 58.22 12.9368 58.918C13.6325 59.6159 14.5753 60.0085 15.5587 60.0098H21.8282C22.8118 60.0082 23.7548 59.615 24.4504 58.9163C25.1459 58.2176 25.5374 57.2705 25.539 56.2824V54.1491H25.7082C26.9183 54.1479 28.0784 53.6648 28.9344 52.8057C29.7904 51.9467 30.2723 50.7818 30.2746 49.5664V45.7784C30.2746 40.5384 30.4352 37.3558 33.7332 32.8938C35.1369 31.0106 36.117 28.8438 36.6058 26.5431C36.6058 26.5264 36.6118 26.5091 36.6138 26.4918C36.6159 26.4823 36.6175 26.4727 36.6184 26.4631ZM17.9016 7.79643V15.5218C17.9011 15.627 17.9213 15.7312 17.9612 15.8285C18.001 15.9258 18.0596 16.0142 18.1337 16.0886C18.2078 16.163 18.2958 16.2219 18.3926 16.2619C18.4895 16.302 18.5933 16.3223 18.6981 16.3218C19.2034 16.3218 19.6881 16.5234 20.0455 16.8824C20.4028 17.2413 20.6036 17.7281 20.6036 18.2358C20.6036 18.7434 20.4028 19.2302 20.0455 19.5892C19.6881 19.9481 19.2034 20.1498 18.6981 20.1498C18.5935 20.1498 18.4899 20.1705 18.3933 20.2107C18.2966 20.2509 18.2088 20.3098 18.1349 20.3841C18.0609 20.4584 18.0023 20.5466 17.9622 20.6436C17.9222 20.7407 17.9016 20.8447 17.9016 20.9498V25.5851H13.9863C13.807 24.8137 13.3731 24.126 12.7553 23.6337C12.1375 23.1414 11.3721 22.8735 10.5835 22.8735C9.79485 22.8735 9.02942 23.1414 8.41162 23.6337C7.79381 24.126 7.35996 24.8137 7.18059 25.5851H2.21864C2.09024 24.8066 2.02564 24.0189 2.0255 23.2298C2.0255 14.9564 9.0755 8.18443 17.899 7.79843L17.9016 7.79643ZM4.93125 31.9431C3.8669 30.511 3.06932 28.8972 2.57705 27.1798H7.88678C8.09802 27.1798 8.3006 27.0955 8.44997 26.9455C8.59933 26.7954 8.68324 26.5919 8.68324 26.3798C8.69256 25.8784 8.89738 25.4008 9.25366 25.0495C9.60994 24.6983 10.0892 24.5015 10.5884 24.5015C11.0877 24.5015 11.5669 24.6983 11.9232 25.0495C12.2795 25.4008 12.4843 25.8784 12.4936 26.3798C12.4936 26.5919 12.5776 26.7954 12.7269 26.9455C12.8763 27.0955 13.0789 27.1798 13.2901 27.1798H17.9049V31.1091C17.1367 31.289 16.4516 31.7247 15.9612 32.3454C15.4708 32.966 15.2039 33.7351 15.2039 34.5274C15.2039 35.3198 15.4708 36.0889 15.9612 36.7095C16.4516 37.3301 17.1367 37.7659 17.9049 37.9458V44.9798H8.70382C8.67528 40.0051 8.34076 36.5558 4.93125 31.9431ZM23.9494 56.2824C23.9485 56.8476 23.7244 57.3894 23.3261 57.7888C22.9279 58.1881 22.3882 58.4124 21.8255 58.4124H15.5587C14.9965 58.4115 14.4577 58.1869 14.0602 57.7876C13.6627 57.3883 13.439 56.8471 13.4381 56.2824V54.1491H23.9494V56.2824ZM28.685 49.5664C28.684 50.359 28.37 51.1189 27.8119 51.6793C27.2539 52.2397 26.4973 52.5549 25.7082 52.5558H11.6793C10.8904 52.5545 10.1342 52.2392 9.57643 51.6788C9.01867 51.1184 8.70487 50.3588 8.70382 49.5664V46.5764H28.685V49.5664ZM32.4563 31.9431C29.0467 36.5571 28.7116 40.0064 28.687 44.9811H19.4886V37.2384C19.4886 37.1334 19.4679 37.0293 19.4279 36.9323C19.3879 36.8352 19.3292 36.747 19.2553 36.6727C19.1813 36.5985 19.0935 36.5395 18.9969 36.4993C18.9003 36.4591 18.7967 36.4384 18.6921 36.4384C18.193 36.4291 17.7174 36.2233 17.3677 35.8655C17.018 35.5076 16.8221 35.0262 16.8221 34.5248C16.8221 34.0233 17.018 33.5419 17.3677 33.1841C17.7174 32.8262 18.193 32.6205 18.6921 32.6111C18.9033 32.6111 19.1059 32.5268 19.2553 32.3768C19.4046 32.2268 19.4886 32.0233 19.4886 31.8111V27.1784H23.4005C23.5796 27.9501 24.0134 28.6382 24.6313 29.1308C25.2492 29.6234 26.0148 29.8915 26.8037 29.8915C27.5926 29.8915 28.3582 29.6234 28.9761 29.1308C29.594 28.6382 30.0278 27.9501 30.2069 27.1784H34.8105C34.3197 28.8968 33.522 30.5113 32.4563 31.9431ZM42.3324 20.7304C42.3564 20.7012 42.3785 20.6705 42.3987 20.6384L42.41 20.6191C42.4314 20.5845 42.4498 20.5481 42.4651 20.5104V20.5011C42.483 20.4565 42.4968 20.4103 42.5063 20.3631C42.7347 19.2751 42.8503 18.1663 42.8514 17.0544C42.8567 7.6551 34.6664 0.00976562 24.5992 0.00976562C24.3879 0.00976562 24.1854 0.0940511 24.036 0.24408C23.8866 0.394109 23.8027 0.597592 23.8027 0.809766V9.34777C23.8027 9.55994 23.8866 9.76342 24.036 9.91345C24.1854 10.0635 24.3879 10.1478 24.5992 10.1478C25.1046 10.1478 25.5892 10.3494 25.9466 10.7084C26.3039 11.0673 26.5047 11.5541 26.5047 12.0618C26.5047 12.5694 26.3039 13.0562 25.9466 13.4152C25.5892 13.7741 25.1046 13.9758 24.5992 13.9758C24.3879 13.9758 24.1854 14.0601 24.036 14.2101C23.8866 14.3601 23.8027 14.5636 23.8027 14.7758V20.2098C23.8027 20.4219 23.8866 20.6254 24.036 20.7755C24.1854 20.9255 24.3879 21.0098 24.5992 21.0098H29.3063C29.4856 21.7811 29.9195 22.4689 30.5373 22.9612C31.1551 23.4535 31.9205 23.7214 32.7091 23.7214C33.4977 23.7214 34.2632 23.4535 34.881 22.9612C35.4988 22.4689 35.9326 21.7811 36.112 21.0098H41.7383C41.777 21.0095 41.8156 21.0061 41.8538 20.9998H41.8764C41.9147 20.9926 41.9524 20.9826 41.9892 20.9698L42.0078 20.9631C42.0455 20.9492 42.0821 20.9325 42.1173 20.9131L42.1239 20.9091C42.1583 20.8894 42.1912 20.8672 42.2222 20.8424L42.2315 20.8358C42.2617 20.811 42.2901 20.784 42.3164 20.7551L42.3324 20.7304ZM32.7085 22.1218C32.2041 22.1205 31.7207 21.9187 31.364 21.5604C31.0074 21.202 30.8066 20.7164 30.8056 20.2098C30.8056 19.9976 30.7217 19.7941 30.5723 19.6441C30.4229 19.4941 30.2204 19.4098 30.0091 19.4098H25.3936V15.4764C26.1616 15.2963 26.8463 14.8605 27.3364 14.2399C27.8265 13.6194 28.0933 12.8506 28.0933 12.0584C28.0933 11.2663 27.8265 10.4975 27.3364 9.87694C26.8463 9.25639 26.1616 8.8206 25.3936 8.64043V1.6251C34.2171 2.00977 41.2671 8.7831 41.2671 17.0531C41.2661 17.842 41.2008 18.6295 41.072 19.4078H35.4091C35.1979 19.4078 34.9953 19.4921 34.8459 19.6421C34.6966 19.7921 34.6127 19.9956 34.6127 20.2078C34.612 20.7147 34.4112 21.2007 34.0544 21.5592C33.6976 21.9177 33.2138 22.1196 32.7091 22.1204L32.7085 22.1218Z" fill="#0CB4C4"></path></svg>