<svg width="61" height="60" viewBox="0 0 61 60" fill="none" xmlns="http://www.w3.org/2000/svg"><path d="M60.2873 24.5552L55.0208 23.6148C54.4566 21.5458 53.6102 19.4768 52.4817 17.596L55.5851 13.1759C55.8672 12.7997 55.7732 12.3295 55.4911 11.9533L49.002 5.55835C48.7199 5.27622 48.1556 5.18218 47.7795 5.46431L43.3594 8.47371C41.4785 7.43923 39.5036 6.59284 37.3406 6.02857L36.4001 0.762117C36.3061 0.291897 35.9299 0.00976562 35.4597 0.00976562H26.4315C25.9613 0.00976562 25.5851 0.291897 25.4911 0.762117L24.5506 6.02857C22.3876 6.59284 20.4127 7.43923 18.4378 8.47371L14.0177 5.46431C13.6415 5.18218 13.1713 5.27622 12.7951 5.55835L6.40015 11.9533C6.11802 12.2355 6.02398 12.7997 6.30611 13.1759L9.40956 17.596C8.28103 19.4768 7.43463 21.5458 6.87037 23.6148L1.60391 24.5552C1.13369 24.6493 0.851562 25.0254 0.851562 25.4957V34.5239C0.851562 34.9941 1.13369 35.3703 1.60391 35.4643L6.87037 36.4047C7.43463 38.4737 8.28103 40.5427 9.40956 42.4236L6.30611 46.8436C6.02398 47.2198 6.11802 47.69 6.40015 48.0662L12.7951 54.5552C13.0773 54.8373 13.6415 54.9314 14.0177 54.6493L18.4378 51.5458C20.4127 52.6743 22.3876 53.5207 24.5506 53.991L25.4911 59.2574C25.5851 59.7276 25.9613 60.0098 26.4315 60.0098H35.4597C35.9299 60.0098 36.3061 59.7276 36.4001 59.2574L37.3406 53.991C39.5036 53.4267 41.5726 52.5803 43.3594 51.5458L47.7795 54.6493C48.1556 54.9314 48.6259 54.8373 49.002 54.5552L55.4911 48.0662C55.7732 47.7841 55.8672 47.2198 55.5851 46.8436L52.4817 42.4236C53.6102 40.4486 54.4566 38.4737 54.9268 36.4047L60.1932 35.4643C60.6635 35.3703 60.9456 34.9941 60.9456 34.5239V25.4957C61.0396 25.0254 60.7575 24.6493 60.2873 24.5552ZM59.1588 33.7715L53.9864 34.712C53.6102 34.806 53.328 35.0881 53.234 35.4643C52.7638 37.7214 51.8233 39.9784 50.5067 42.0474C50.3186 42.3295 50.3186 42.7997 50.5067 43.0819L53.5161 47.3138L48.1556 52.6743L43.9237 49.6649C43.6415 49.4768 43.1713 49.4768 42.8892 49.6649C40.9143 50.8875 38.6572 51.8279 36.2121 52.3922C35.8359 52.4863 35.5538 52.7684 35.4597 53.1446L34.7074 58.2229H27.1838L26.2434 53.1446C26.1494 52.7684 25.8672 52.4863 25.4911 52.3922C23.14 51.8279 20.8829 50.9816 18.8139 49.6649C18.5318 49.4768 18.0616 49.4768 17.7795 49.6649L13.5475 52.6743L8.37507 47.3138L11.3845 43.0819C11.5726 42.7997 11.5726 42.3295 11.3845 42.0474C10.0679 39.9784 9.22147 37.7214 8.6572 35.3703C8.46912 34.9941 8.18698 34.712 7.81081 34.712L2.73244 33.7715V26.248L7.81081 25.3076C8.18698 25.2135 8.46912 24.9314 8.56316 24.5552C9.12742 22.2041 10.0679 20.0411 11.2904 17.8781C11.4785 17.596 11.4785 17.1258 11.2904 16.8436L8.37507 12.7057L13.6415 7.43923L17.8735 10.3546C18.1556 10.5427 18.5318 10.5427 18.908 10.3546C20.977 9.03798 23.234 8.19158 25.5851 7.62732C25.9613 7.53328 26.2434 7.25114 26.3375 6.87497L27.1838 1.7966H34.7074L35.6478 6.96901C35.7418 7.34519 36.024 7.62732 36.4001 7.72136C38.8453 8.28563 41.1023 9.22607 43.0773 10.4486C43.3594 10.6367 43.8296 10.6367 44.1117 10.4486L48.2497 7.43923L53.6102 12.7997L50.6008 17.0317C50.4127 17.3138 50.4127 17.7841 50.6008 18.0662C51.9174 20.1352 52.7638 22.3922 53.328 24.7433C53.4221 25.1195 53.7042 25.4016 54.0804 25.4957L59.1588 26.4361V33.7715Z" fill="#0CB4C4"></path><path d="M47.215 22.1105C46.9328 21.8284 46.5567 21.7343 46.1805 21.9224C45.7103 22.1105 45.146 22.1105 44.9579 22.0165C44.9579 22.0165 44.8639 21.8284 44.9579 21.3582C44.9579 21.1701 44.9579 21.076 44.8639 20.8879C44.7698 20.6058 42.7009 15.0572 37.5284 12.8942C34.425 11.5776 31.0394 11.8597 27.2777 13.5525C26.9015 13.7406 26.7134 14.1168 26.7134 14.587C26.8074 14.9632 27.0896 15.3394 27.5598 15.3394C28.9704 15.4334 32.7322 16.1858 33.5786 18.0666C33.9548 18.819 33.7667 19.8535 33.0143 20.982L29.2526 24.7437L19.1899 14.7751C18.7197 14.3049 18.0614 14.0227 17.4031 14.0227C16.7447 14.0227 16.0864 14.3049 15.6162 14.7751L13.2651 17.1262C12.2306 18.1607 12.2306 19.7594 13.2651 20.7939L23.3278 30.8566L14.0175 40.1669C13.6413 40.5431 13.4532 41.0133 13.4532 41.5776C13.4532 42.1419 13.6413 42.6121 14.0175 42.9883L16.2745 45.2453C16.6507 45.6215 17.1209 45.8096 17.6852 45.8096C18.2494 45.8096 18.7197 45.6215 19.0958 45.2453L28.4062 35.935L30.7573 38.2861C30.9454 38.4742 31.2275 38.5682 31.4156 38.5682C31.6977 38.5682 31.8858 38.4742 32.0739 38.2861L32.1679 38.192L38.8451 44.8691C39.0331 45.0572 39.2212 45.1513 39.5034 45.1513H39.5974L41.4783 47.5964C41.6664 47.7845 41.9485 47.9726 42.2306 47.9726L45.5222 48.0666C45.8043 48.0666 45.9924 47.9726 46.1805 47.7845C46.3686 47.5964 46.4626 47.3143 46.4626 47.1262L46.3686 43.8347C46.3686 43.5525 46.1805 43.2704 45.9924 43.0823L43.5473 41.2014C43.5473 40.9193 43.5472 40.6372 43.2651 40.4491L36.588 33.772L36.682 33.6779C37.0582 33.3017 37.0582 32.7375 36.682 32.3613L34.3309 30.0102L37.8106 26.5306C38.5629 26.7187 39.5974 27.0948 39.8795 27.5651C39.9736 27.8472 39.7855 28.3174 39.5034 28.6936C39.2212 29.0698 39.3153 29.54 39.5974 29.9162L41.1962 31.5149C41.6664 31.9851 42.2306 32.1732 42.8889 32.1732C43.5473 32.1732 44.1115 31.8911 44.5817 31.5149L48.8137 27.2829C49.7541 26.3425 49.7541 24.8378 48.8137 23.8974L47.215 22.1105ZM44.3936 45.9977H42.6068L41.0081 43.8347L42.2306 42.6121L44.3936 44.2108V45.9977ZM41.1021 40.9193L39.3153 42.7061L33.2965 36.6873L35.0833 34.9005L41.1021 40.9193ZM31.4156 36.029L31.3215 36.1231L29.6288 34.4303L33.0143 31.0447L34.7071 32.7375L31.4156 36.029ZM14.4877 19.4773C14.2056 19.1952 14.2056 18.7249 14.4877 18.4428L16.8388 16.0917C16.9328 15.9977 17.1209 15.9036 17.309 15.9036C17.4971 15.9036 17.6852 15.9977 17.7792 16.0917L27.8419 26.1544L24.4563 29.54L14.4877 19.4773ZM17.5911 43.8347L15.24 41.5776V41.4836L33.7667 22.9569L36.1178 25.308L17.5911 43.8347ZM47.403 25.7782L43.2651 30.0102C43.077 30.1983 42.7009 30.1983 42.5128 30.0102L41.4783 28.9757C41.9485 28.0353 41.7604 27.2829 41.5723 26.7187C40.914 25.214 38.8451 24.6497 37.9987 24.5557L34.9893 21.5463C35.8357 20.0416 35.9297 18.6309 35.3654 17.4083C34.6131 15.8096 32.8262 14.8691 31.2275 14.3989C33.2965 13.9287 35.1773 14.1168 36.8701 14.7751C40.7259 16.3738 42.7009 20.5118 43.1711 21.4522C43.077 22.6748 43.5472 23.239 43.9234 23.6152C44.6758 24.1795 45.7103 24.0854 46.3686 23.9914L47.5911 25.214C47.6852 25.308 47.7792 25.4021 47.7792 25.5901C47.5911 25.5901 47.4971 25.6842 47.403 25.7782Z" fill="#0CB4C4"></path></svg>