<svg width="83" height="60" viewBox="0 0 83 60" fill="none" xmlns="http://www.w3.org/2000/svg"><path d="M39.8407 5.79548C30.0093 5.79548 22.0036 13.7926 22.0036 23.6326C22.0036 33.4726 30.0007 41.4698 39.8407 41.4698C49.6807 41.4698 57.6779 33.4726 57.6779 23.6326C57.6779 13.7926 49.6807 5.79548 39.8407 5.79548ZM39.8407 39.4812C31.0979 39.4812 23.9922 32.3669 23.9922 23.6326C23.9922 14.8983 31.1064 7.78405 39.8407 7.78405C48.575 7.78405 55.6893 14.8983 55.6893 23.6326C55.6893 32.3669 48.5836 39.4812 39.8407 39.4812ZM39.6179 10.3898C39.2664 10.3898 38.9321 10.5783 38.7607 10.8869L28.0379 29.4526C27.8579 29.7612 27.8579 30.1383 28.0379 30.4469C28.2179 30.7555 28.5436 30.944 28.895 30.944H50.3407C50.6922 30.944 51.0264 30.7555 51.1979 30.4469C51.3779 30.1383 51.3779 29.7612 51.1979 29.4526L40.475 10.8869C40.3036 10.5783 39.9693 10.3898 39.6179 10.3898ZM30.6179 28.9641L39.6179 13.3726L48.6179 28.9641H30.6179ZM39.6179 17.4012C40.1664 17.4012 40.6122 17.8469 40.6122 18.3955V23.6326C40.6122 24.1812 40.1664 24.6269 39.6179 24.6269C39.0693 24.6269 38.6236 24.1812 38.6236 23.6326V18.3955C38.6236 17.8469 39.0693 17.4012 39.6179 17.4012ZM40.6122 26.5898C40.6122 27.1469 40.1664 27.5841 39.6179 27.5841C39.0693 27.5841 38.6236 27.1383 38.6236 26.5898C38.6236 26.0412 39.0693 25.5955 39.6179 25.5955C40.1664 25.5955 40.6122 26.0498 40.6122 26.5898ZM78.3007 0.00976562C76.1064 0.00976562 74.3236 1.79262 74.3236 3.98691C74.3236 5.33262 75.0007 6.52405 76.0293 7.24405L69.3093 25.2441C69.1722 25.2269 69.035 25.2183 68.8893 25.2183C67.4236 25.2183 66.1379 26.0155 65.4522 27.2069L61.9464 26.2298C62.0493 25.3812 62.1007 24.5155 62.1007 23.6326C62.1007 11.3669 52.115 1.38119 39.8493 1.38119C27.5836 1.38119 17.5893 11.3583 17.5893 23.6241C17.5893 31.1669 21.3607 37.844 27.1207 41.8726L25.1236 45.5412C24.815 45.464 24.4893 45.4212 24.155 45.4212C23.1693 45.4212 22.2693 45.7812 21.575 46.3726L17.255 43.3298C17.4179 42.8926 17.5121 42.4212 17.5121 41.9241C17.5121 39.7298 15.7293 37.9469 13.535 37.9469C11.3407 37.9469 9.55786 39.7298 9.55786 41.9241C9.55786 42.8669 9.88358 43.7326 10.4407 44.4183L6.43786 49.7755C5.97501 49.5869 5.46072 49.4755 4.92929 49.4755C2.73501 49.4755 0.952148 51.2583 0.952148 53.4526C0.952148 55.6469 2.73501 57.4298 4.92929 57.4298C7.12358 57.4298 8.90644 55.6469 8.90644 53.4526C8.90644 52.5098 8.58072 51.644 8.02358 50.9583L12.0264 45.6012C12.4893 45.7898 13.0036 45.9012 13.535 45.9012C14.5207 45.9012 15.4207 45.5412 16.115 44.9498L20.435 48.0012C20.2722 48.4383 20.1779 48.9098 20.1779 49.4069C20.1779 51.6012 21.9607 53.384 24.155 53.384C26.3493 53.384 28.1322 51.6012 28.1322 49.4069C28.1322 48.2583 27.6436 47.2298 26.8636 46.5012L28.8007 42.944C32.0579 44.8126 35.8293 45.884 39.8407 45.884C44.0579 45.884 48.0093 44.7012 51.3693 42.6612L64.3379 57.9012C65.4264 59.1783 66.995 59.9241 68.7607 60.0012C68.855 60.0012 68.9493 60.0098 69.035 60.0098C70.8779 60.0098 72.6693 59.2726 73.9722 57.9698C75.3436 56.5983 76.0893 54.6955 76.0122 52.7498C75.9436 50.9926 75.1979 49.424 73.9122 48.3269L58.7322 35.384C60.095 33.2069 61.0893 30.7812 61.6293 28.1926L64.9207 29.1098C64.9207 29.1355 64.9207 29.1612 64.9207 29.1955C64.9207 31.3898 66.7036 33.1726 68.8979 33.1726C71.0922 33.1726 72.875 31.3898 72.875 29.1955C72.875 27.8498 72.1979 26.6583 71.1693 25.9383L77.8893 7.93834C78.0264 7.95548 78.1636 7.96405 78.3093 7.96405C80.5036 7.96405 82.2864 6.18119 82.2864 3.98691C82.2864 1.79262 80.495 0.00976562 78.3007 0.00976562ZM4.92929 55.4498C3.83215 55.4498 2.93215 54.5583 2.93215 53.4526C2.93215 52.3555 3.82358 51.4641 4.92929 51.4641C6.03501 51.4641 6.92643 52.3555 6.92643 53.4526C6.92643 54.5583 6.02643 55.4498 4.92929 55.4498ZM13.535 43.9298C12.4379 43.9298 11.5379 43.0383 11.5379 41.9326C11.5379 40.8355 12.4293 39.944 13.535 39.944C14.6407 39.944 15.5321 40.8355 15.5321 41.9326C15.5321 43.0298 14.6321 43.9298 13.535 43.9298ZM24.155 51.3955C23.0579 51.3955 22.1579 50.504 22.1579 49.3983C22.1579 48.3012 23.0493 47.4012 24.155 47.4012C25.2522 47.4012 26.1522 48.2926 26.1522 49.3983C26.1522 50.4955 25.2522 51.3955 24.155 51.3955ZM74.0407 52.8183C74.0922 54.1898 73.5522 55.5869 72.5836 56.5555C71.615 57.5241 70.2179 58.0641 68.8464 58.0126C67.6464 57.9612 66.5836 57.4641 65.855 56.6155L56.3922 45.4898L61.5179 40.3641L72.635 49.8269C73.4922 50.5555 73.9893 51.6183 74.0407 52.8183ZM60.0007 39.0698L55.0979 43.9726L53.0236 41.5383C54.755 40.2612 56.2979 38.7355 57.5922 37.0212L60.0007 39.0698ZM39.8407 43.8955C28.6636 43.8955 19.5693 34.8012 19.5693 23.6241C19.5693 12.4469 28.6721 3.36119 39.8407 3.36119C51.0179 3.36119 60.1122 12.4555 60.1122 23.6326C60.1122 34.8098 51.0179 43.8955 39.8407 43.8955ZM68.8893 31.1926C67.7922 31.1926 66.8922 30.3012 66.8922 29.1955C66.8922 28.0983 67.7836 27.1983 68.8893 27.1983C69.9864 27.1983 70.8864 28.0898 70.8864 29.1955C70.8779 30.2926 69.9864 31.1926 68.8893 31.1926ZM78.3007 5.97548C77.2036 5.97548 76.3036 5.08405 76.3036 3.97834C76.3036 2.87262 77.195 1.98119 78.3007 1.98119C79.3979 1.98119 80.2979 2.87262 80.2979 3.97834C80.2979 5.08405 79.3979 5.97548 78.3007 5.97548Z" fill="#0CB4C4"></path></svg>