<svg width="80" height="60" viewBox="0 0 80 60" fill="none" xmlns="http://www.w3.org/2000/svg"><path d="M27.3488 16.8618V39.4137C27.3488 42.6315 34.1026 44.0997 40.3806 44.0997C46.6586 44.0997 53.4125 42.6346 53.4125 39.4137V16.8618C53.4125 13.6471 46.6586 12.182 40.3806 12.182C34.1026 12.182 27.3488 13.6441 27.3488 16.8618ZM51.2515 31.807C51.2515 31.9214 50.7754 32.6385 48.519 33.3185V33.3216C45.8669 34.0357 43.1283 34.3756 40.3805 34.3293C37.6326 34.3756 34.894 34.0356 32.2421 33.3216C29.9825 32.6416 29.5096 31.9214 29.5096 31.8101V26.9449C32.004 28.2648 36.2944 28.8922 40.3805 28.8922C44.4666 28.8922 48.7571 28.2709 51.2513 26.948L51.2515 31.807ZM51.2515 24.2C51.2515 24.3144 50.7754 25.0346 48.519 25.7147V25.7177C45.8669 26.4318 43.1283 26.7718 40.3805 26.7285C37.6326 26.7717 34.894 26.4317 32.2421 25.7177C29.9825 25.0377 29.5096 24.3175 29.5096 24.2031V19.5975C32.004 20.9205 36.2944 21.5387 40.3805 21.5387C44.4666 21.5387 48.7571 20.9174 51.2513 19.5975L51.2515 24.2ZM48.519 40.9257C45.8669 41.6397 43.1283 41.9797 40.3805 41.9364C37.6326 41.9797 34.894 41.6397 32.2421 40.9257C29.9825 40.2456 29.5096 39.5255 29.5096 39.4111V34.5458C32.004 35.8688 36.2944 36.487 40.3805 36.487C44.4666 36.487 48.7571 35.8657 51.2513 34.5458V39.408C51.2513 39.5223 50.7785 40.2425 48.519 40.9257ZM51.2515 16.8623C51.2515 16.9767 50.7754 17.6938 48.519 18.3739V18.377C45.8669 19.0879 43.1283 19.4279 40.3805 19.3815C37.6326 19.4248 34.894 19.0879 32.2421 18.3739C29.9825 17.6939 29.5096 16.9737 29.5096 16.8623C29.5096 16.748 29.9856 16.0308 32.2421 15.3508V15.3477C34.8942 14.6337 37.6328 14.2937 40.3805 14.3401C43.1285 14.2937 45.8671 14.6337 48.519 15.3477C50.7786 16.0277 51.2515 16.7479 51.2515 16.8623ZM39.5086 22.9702C40.0712 22.9702 40.6399 22.9578 41.1932 22.9331L41.1963 22.93C41.4838 22.9146 41.765 23.0135 41.9783 23.2082C42.1947 23.4029 42.3214 23.6719 42.3338 23.9593C42.3492 24.2468 42.2441 24.5312 42.0494 24.7413C41.8547 24.9546 41.5827 25.0783 41.2952 25.0906C40.7079 25.1184 40.1083 25.1308 39.5117 25.1308H39.5086C38.912 25.1308 38.4298 24.6455 38.4298 24.049C38.4298 23.4524 38.912 22.9702 39.5086 22.9702ZM39.5086 30.5617C40.0712 30.5617 40.6399 30.5494 41.1932 30.5247H41.1963C41.4838 30.5092 41.765 30.6081 41.9783 30.7998C42.1947 30.9945 42.3214 31.2634 42.3338 31.554C42.3492 31.8414 42.2441 32.1227 42.0494 32.3329C41.8547 32.5462 41.5827 32.6729 41.2952 32.6822C40.7079 32.71 40.1083 32.7224 39.5117 32.7224H39.5086C38.912 32.7224 38.4298 32.2371 38.4298 31.6405C38.4298 31.0439 38.912 30.5617 39.5086 30.5617ZM42.3276 39.1457C42.3554 39.7423 41.8949 40.2461 41.2983 40.274C40.711 40.3018 40.1113 40.3141 39.5148 40.3141C39.2211 40.3234 38.9399 40.2121 38.7297 40.0081C38.5226 39.8072 38.4051 39.5259 38.4051 39.2354C38.4051 38.9448 38.5226 38.6635 38.7297 38.4595C38.9399 38.2586 39.2211 38.1474 39.5148 38.1566C40.0773 38.1566 40.6461 38.1443 41.1994 38.1164C41.7928 38.0917 42.2967 38.5522 42.3276 39.1457ZM25.7507 32.667C26.1773 32.5588 26.4957 32.2002 26.5544 31.7613C26.712 30.5929 26.712 29.406 26.5544 28.2376C26.4956 27.7987 26.1773 27.4402 25.7507 27.332L24.0414 26.8992C23.8343 26.21 23.5592 25.5454 23.2191 24.9117L24.1217 23.4034H24.1186C24.3442 23.0263 24.3195 22.5472 24.0537 22.1979C23.3366 21.2521 22.4927 20.4082 21.5469 19.6942C21.1976 19.4283 20.7184 19.4005 20.3414 19.6262L18.8299 20.5287C18.1962 20.1887 17.5317 19.9105 16.8424 19.7034L16.4158 17.9972L16.4127 18.0003C16.3076 17.5737 15.9522 17.2523 15.5163 17.1936C14.3386 17.0328 13.1455 17.0328 11.9709 17.1936C11.5351 17.2554 11.1796 17.5738 11.0715 18.0003L10.6449 19.7065V19.7034C9.95561 19.9105 9.29107 20.1887 8.6574 20.5287L7.14587 19.6262C6.76877 19.4005 6.28968 19.4283 5.9404 19.6942C4.99457 20.4082 4.15073 21.2521 3.43666 22.1979C3.17083 22.5472 3.14302 23.0263 3.36866 23.4034L4.2743 24.9117V24.9148C3.93429 25.5454 3.6561 26.2099 3.44898 26.8992L1.73962 27.332C1.30997 27.4402 0.991596 27.7987 0.93289 28.2376C0.855614 28.8218 0.81543 29.4091 0.81543 29.9995C0.81543 30.5899 0.855613 31.1772 0.93289 31.7614C0.991618 32.2004 1.30999 32.5589 1.73962 32.6671L3.44581 33.0998C3.656 33.7891 3.9311 34.4536 4.27422 35.0873L3.36858 36.6019C3.14293 36.979 3.17076 37.4581 3.43658 37.8074C4.1537 38.7532 4.99757 39.594 5.94033 40.3111C6.28961 40.577 6.76873 40.6017 7.14579 40.3761L8.65732 39.4704V39.4735C9.29098 39.8135 9.95861 40.0886 10.6479 40.2988L11.0745 42.005C11.1827 42.4347 11.5412 42.753 11.9801 42.8117C13.1516 42.9694 14.3386 42.9694 15.51 42.8117C15.9489 42.753 16.3075 42.4346 16.4156 42.005L16.8422 40.2988C17.5315 40.0886 18.196 39.8135 18.8297 39.4735L20.3412 40.3791L20.3443 40.3761C20.7214 40.6017 21.1974 40.577 21.5498 40.3111C22.4925 39.594 23.3333 38.7532 24.0504 37.8074C24.3194 37.4581 24.3472 36.979 24.1184 36.6019L23.2159 35.0873H23.219C23.559 34.4537 23.8341 33.7891 24.0412 33.0998L25.7507 32.667ZM22.9008 31.1648C22.5082 31.2606 22.2022 31.5728 22.1095 31.9653C21.8993 32.8741 21.5408 33.7396 21.0493 34.5278C20.836 34.8709 20.8329 35.3036 21.037 35.6499L21.8777 37.0625C21.547 37.4458 21.1853 37.8043 20.802 38.1382L19.3987 37.2943V37.2974C19.0525 37.0872 18.6167 37.0903 18.2736 37.3036C17.4792 37.7982 16.6106 38.1567 15.7019 38.37C15.3093 38.4628 15.0002 38.7688 14.9044 39.1582L14.5088 40.747C14.0018 40.7841 13.4949 40.7841 12.988 40.747L12.5923 39.1582C12.4934 38.7688 12.1843 38.4628 11.7918 38.37C10.8861 38.1568 10.0175 37.7982 9.22313 37.3036C8.88003 37.0903 8.44419 37.0872 8.0949 37.2974L6.68544 38.1351C6.30215 37.8013 5.9436 37.4427 5.60975 37.0594L6.4505 35.6561H6.4536C6.66069 35.3099 6.6576 34.8741 6.44432 34.5279C5.94976 33.7397 5.59123 32.8711 5.37789 31.9623C5.28825 31.5698 4.98224 31.2576 4.5866 31.1618L3.004 30.76C2.98546 30.5034 2.97618 30.253 2.97618 29.9996C2.97618 29.7461 2.98546 29.4957 3.004 29.2392L4.59277 28.8374C4.98224 28.7384 5.28515 28.4324 5.37788 28.0399C5.59116 27.1342 5.95281 26.2656 6.44431 25.4743C6.65759 25.1312 6.66069 24.6954 6.45359 24.3492L5.60975 22.9428C5.94358 22.5595 6.30213 22.201 6.68544 21.8671L8.0949 22.7079C8.44109 22.915 8.87383 22.9119 9.21695 22.6986C10.0083 22.2072 10.8769 21.8486 11.7856 21.6353C12.1812 21.5456 12.4903 21.2396 12.5892 20.844L12.9849 19.2552C13.4887 19.2212 13.9987 19.2212 14.5026 19.2552L14.8982 20.844C14.9971 21.2396 15.3062 21.5425 15.7019 21.6353C16.6106 21.8486 17.4792 22.2071 18.2705 22.6986C18.6136 22.9119 19.0463 22.915 19.3926 22.7079L20.7989 21.8671C21.1822 22.201 21.5408 22.5595 21.8746 22.9428L21.0339 24.3523C20.8299 24.6985 20.8329 25.1312 21.0431 25.4743C21.5346 26.2625 21.8931 27.1312 22.1065 28.0368C22.1992 28.4324 22.5052 28.7415 22.8978 28.8374L24.4865 29.2392C24.5051 29.4957 24.5144 29.7492 24.5144 29.9996C24.5144 30.2499 24.5051 30.5034 24.4865 30.76L22.9008 31.1648ZM79.0243 32.667C79.454 32.5588 79.7723 32.2002 79.828 31.7613C79.9083 31.1771 79.9454 30.5898 79.9454 29.9994C79.9454 29.4091 79.9052 28.8218 79.828 28.2375C79.7692 27.7986 79.4509 27.4401 79.0212 27.3319L77.3119 26.8992C77.1048 26.2099 76.8297 25.5453 76.4896 24.9117L77.3922 23.4033C77.6178 23.0262 77.59 22.5471 77.3242 22.1978C76.6102 21.252 75.7663 20.4082 74.8204 19.6941C74.4711 19.4283 73.992 19.4004 73.615 19.6261L72.1034 20.5286C71.4698 20.1886 70.8052 19.9104 70.1159 19.7033L69.6894 17.9971L69.6863 18.0002C69.5812 17.5737 69.2257 17.2553 68.7899 17.1935C67.6122 17.0328 66.4191 17.0328 65.2445 17.1935C64.8087 17.2522 64.4532 17.5737 64.345 18.0002L63.9185 19.7064V19.7033C63.2292 19.9104 62.5616 20.1886 61.9279 20.5286L60.4164 19.6261C60.0393 19.4004 59.5633 19.4283 59.2109 19.6941C58.2651 20.4081 57.4243 21.252 56.7072 22.1978C56.4413 22.5471 56.4166 23.0262 56.6422 23.4033L57.5479 24.9117L57.5448 24.9148C57.2048 25.5453 56.9297 26.2099 56.7226 26.8992L55.0132 27.3319H55.0101C54.5836 27.4401 54.2652 27.7987 54.2065 28.2376C54.0488 29.406 54.0488 30.5929 54.2065 31.7613C54.2652 32.2002 54.5836 32.5587 55.0101 32.6669L56.7163 33.0997H56.7194C56.9265 33.7889 57.2047 34.4535 57.5447 35.0872L56.6391 36.5987L56.6422 36.6018C56.4134 36.9789 56.4412 37.458 56.7102 37.8072C57.4273 38.7531 58.2681 39.5938 59.2139 40.311C59.5632 40.5768 60.0423 40.6015 60.4194 40.3759L61.9309 39.4703V39.4734C62.5646 39.8134 63.2322 40.0885 63.9184 40.2987L64.345 42.0049C64.4532 42.4345 64.8148 42.7529 65.2537 42.8116C66.4252 42.9692 67.6122 42.9692 68.7836 42.8116C69.2225 42.7529 69.5811 42.4345 69.6892 42.0049L70.1158 40.2987C70.8051 40.0885 71.4696 39.8134 72.1033 39.4734L73.6148 40.3759C73.9919 40.6016 74.471 40.5768 74.8203 40.311C75.763 39.5939 76.6069 38.7531 77.324 37.8073C77.5898 37.458 77.6177 36.9788 77.392 36.6018L76.4895 35.0872C76.8295 34.4535 77.1077 33.789 77.3148 33.0997L79.0243 32.667ZM76.1744 31.1648C75.7818 31.2606 75.4758 31.5728 75.3831 31.9653C75.1729 32.8741 74.8143 33.7396 74.3229 34.5278C74.1096 34.8709 74.1065 35.3036 74.3105 35.6499L75.1513 37.0625C74.8205 37.4458 74.4589 37.8043 74.0787 38.1382L72.6754 37.2943L72.6723 37.2974C72.3261 37.0872 71.8903 37.0903 71.5472 37.3036C70.7528 37.7982 69.8842 38.1567 68.9754 38.37C68.5829 38.4628 68.2769 38.7688 68.178 39.1582L67.7823 40.747C67.2754 40.7841 66.7685 40.7841 66.2615 40.747L65.8659 39.1582C65.767 38.7688 65.461 38.4628 65.0684 38.37C64.1597 38.1568 63.2911 37.7982 62.4967 37.3036C62.1536 37.0903 61.7178 37.0872 61.3716 37.2974L59.9683 38.1413V38.1382C59.585 37.8043 59.2233 37.4458 58.8926 37.0625L59.7333 35.6592C59.9435 35.313 59.9404 34.8772 59.7241 34.531C59.2326 33.7428 58.871 32.8741 58.6607 31.9654C58.568 31.5729 58.262 31.2607 57.8694 31.1649L56.2807 30.763C56.2621 30.5065 56.2528 30.2561 56.2528 30.0027C56.2528 29.7492 56.2621 29.4988 56.2807 29.2423L57.8694 28.8404C58.2589 28.7446 58.5618 28.4355 58.6545 28.043C58.8709 27.1373 59.2295 26.2687 59.721 25.4774C59.9373 25.1343 59.9404 24.6985 59.7302 24.3523L58.8864 22.9459H58.8895C59.2202 22.5626 59.5819 22.2041 59.9621 21.8702L61.3685 22.711H61.3716C61.7178 22.9181 62.1474 22.915 62.4905 22.7017C63.2849 22.2102 64.1535 21.8517 65.0592 21.6384C65.4548 21.5456 65.7639 21.2427 65.8628 20.8471L66.2585 19.2583C66.7654 19.2243 67.2723 19.2243 67.7792 19.2583L68.1749 20.8471C68.2707 21.2427 68.5829 21.5487 68.9785 21.6384C69.8842 21.8516 70.7528 22.2102 71.5472 22.7017C71.8872 22.915 72.3199 22.9181 72.6661 22.711L74.0725 21.8702C74.4558 22.2041 74.8174 22.5626 75.1482 22.9459L74.3074 24.3554C74.1034 24.7016 74.1065 25.1343 74.3198 25.4774C74.8113 26.2687 75.1698 27.1342 75.38 28.0399C75.4727 28.4355 75.7787 28.7446 76.1713 28.8404L77.7601 29.2423C77.7786 29.4988 77.7879 29.7554 77.7879 30.0027C77.7879 30.2499 77.7786 30.5065 77.7601 30.763L76.1744 31.1648ZM67.0191 23.4743C64.3794 23.4712 61.9962 25.0631 60.9854 27.5019C59.9747 29.9407 60.5341 32.7504 62.4011 34.6174C64.2681 36.4844 67.0779 37.0438 69.5166 36.0331C71.9554 35.0224 73.5473 32.6391 73.5442 29.9994C73.5411 26.3984 70.6201 23.4774 67.0191 23.4743ZM67.0191 34.3705C65.251 34.3705 63.6591 33.3071 62.9822 31.6752C62.3052 30.0432 62.6793 28.1638 63.9249 26.915C65.1737 25.6663 67.053 25.2892 68.6851 25.9661C70.3171 26.64 71.3835 28.2318 71.3835 29.9999C71.3805 32.4109 69.43 34.3643 67.0191 34.3705ZM54.1819 56.6439C47.6258 60.0348 40.0469 60.894 32.8976 59.0487C25.7512 57.2065 19.5318 52.7957 15.4305 46.657C15.0997 46.1625 15.2327 45.4917 15.7272 45.1579C16.2249 44.8272 16.8956 44.9601 17.2263 45.4578C22.1256 52.7989 30.2147 57.3794 39.0305 57.8091C47.8463 58.2357 56.3433 54.4584 61.9291 47.6243L57.4255 48.4682C57.1411 48.5269 56.8444 48.4713 56.6032 48.3074C56.359 48.1467 56.1952 47.8932 56.1396 47.6089C56.087 47.3214 56.1519 47.0278 56.3189 46.7897C56.4858 46.5517 56.7423 46.391 57.0298 46.3446L64.2411 44.997V44.9939C64.5533 44.9382 64.8748 45.0186 65.1221 45.2195C65.3693 45.4173 65.5146 45.7172 65.5208 46.0355L65.6754 53.3704V53.3673C65.6877 53.9639 65.2117 54.4585 64.6183 54.4708H64.5966C64.0093 54.4708 63.5271 54.001 63.5148 53.4137L63.4251 49.2038H63.4282C60.8658 52.27 57.7253 54.7985 54.1827 56.6438L54.1819 56.6439ZM40.3809 2.15917C32.02 2.12826 24.0975 5.88689 18.8307 12.378L23.3404 11.5311H23.3435C23.6279 11.4723 23.9246 11.528 24.1658 11.6918C24.4069 11.8525 24.5738 12.106 24.6263 12.3903C24.682 12.6778 24.617 12.9715 24.4501 13.2095C24.2801 13.4475 24.0267 13.6082 23.7392 13.6546L16.5279 15.0084C16.4599 15.0208 16.395 15.027 16.327 15.027C15.7397 15.027 15.2605 14.5571 15.2482 13.9699L15.0905 6.63187C15.0782 6.0353 15.5511 5.54075 16.1445 5.52841H16.1693C16.7566 5.52841 17.2357 5.99824 17.2481 6.5855L17.3377 10.7954H17.3408C19.9589 7.66119 23.1859 5.08639 26.8237 3.23175C33.3704 -0.078721 40.9032 -0.879276 47.9972 0.984624C55.0942 2.84852 61.2609 7.24703 65.3345 13.3455C65.6529 13.8431 65.5138 14.4984 65.0254 14.8261C64.537 15.1537 63.8787 15.0301 63.5417 14.5479C58.3798 6.80488 49.6881 2.15284 40.3809 2.15917ZM13.749 23.4751C11.1062 23.472 8.72606 25.0639 7.71533 27.5027C6.70461 29.9414 7.26095 32.7512 9.12796 34.6182C10.998 36.4852 13.8047 37.0446 16.2435 36.0339C18.6853 35.0232 20.2742 32.6399 20.2742 30.0002C20.268 26.3992 17.35 23.4782 13.749 23.4751ZM13.749 34.3713C11.9809 34.3713 10.389 33.3079 9.71209 31.676C9.03516 30.0439 9.40608 28.1646 10.6548 26.9158C11.9036 25.6671 13.7829 25.29 15.415 25.9669C17.047 26.6408 18.1134 28.2326 18.1134 30.0007C18.1104 32.4117 16.1568 34.3651 13.749 34.3713Z" fill="#0CB4C4"></path></svg>