<svg xmlns="http://www.w3.org/2000/svg" xmlns:xlink="http://www.w3.org/1999/xlink" version="1.1" id="Layer_1" x="0px" y="0px" width="56.25px" height="60px" viewBox="0 0 56.25 60" enable-background="new 0 0 56.25 60" xml:space="preserve"><g><path fill="#0CB4C4" d="M55.31,15.937h-3.749c-0.519,0-0.937,0.419-0.937,0.937s0.418,0.938,0.937,0.938h1.687l-4.858,5.551 l-2.495-0.416c-0.109-0.62-0.424-1.186-0.895-1.606V0.938C45,0.419,44.58,0,44.061,0h-7.498c-0.519,0-0.938,0.419-0.938,0.938 v22.035c-0.615-0.159-1.242-0.278-1.875-0.357V5.625c0-0.517-0.42-0.937-0.938-0.937h-7.499c-0.518,0-0.938,0.42-0.938,0.937 v18.887c-0.656,0.38-1.282,0.811-1.875,1.286V13.124c0-0.517-0.418-0.938-0.937-0.938h-7.5c-0.518,0-0.937,0.42-0.937,0.938v22.499 c-0.693-0.001-1.361,0.256-1.875,0.717V19.687c0-0.518-0.42-0.938-0.938-0.938h-7.5c-0.517,0-0.937,0.42-0.937,0.938v21.64 l-1.678,2.155c-0.32,0.406-0.251,0.996,0.155,1.316c0.406,0.32,0.996,0.25,1.316-0.154c0.003-0.004,0.005-0.009,0.008-0.012 l6.09-7.83l2.565,1.283c-0.192,1.541,0.901,2.947,2.442,3.141c1.541,0.192,2.947-0.899,3.139-2.44 c0.054-0.431,0.009-0.866-0.135-1.276l1.121-0.896c-0.017,0.292-0.027,0.586-0.027,0.883c-0.004,8.28,6.704,14.995,14.984,14.999 c3.011,0.002,5.95-0.903,8.438-2.596l9.272,9.271c1.097,1.103,2.876,1.106,3.978,0.011c1.102-1.095,1.105-2.875,0.012-3.976 c-0.004-0.005-0.008-0.009-0.012-0.013l-9.271-9.271c4.275-6.28,3.171-14.769-2.57-19.744l0.207-0.206 c1.342,0.642,2.952,0.126,3.672-1.177l3.01,0.501c0.051,0.008,0.103,0.013,0.154,0.013c0.27,0,0.526-0.116,0.705-0.319l4.92-5.622 v1.254c0,0.518,0.418,0.938,0.936,0.938c0.52,0,0.938-0.42,0.938-0.938v-3.75C56.25,16.356,55.83,15.937,55.31,15.937 M26.251,6.562h5.625v15.936c-1.928-0.002-3.838,0.37-5.625,1.095V6.562z M6.764,35.045l-3.01,3.87V20.623h5.625v14.888 l-1.456-0.728C7.523,34.584,7.037,34.693,6.764,35.045 M13.128,39.373c-0.518,0-0.938-0.421-0.938-0.938 c0-0.518,0.42-0.938,0.938-0.938c0.517,0,0.937,0.42,0.937,0.938C14.065,38.953,13.646,39.372,13.128,39.373 M15.003,35.734V14.062 h5.624v13.526c-1.591,1.802-2.726,3.959-3.307,6.292L15.003,35.734z M52.224,56.52c0.369,0.361,0.378,0.955,0.016,1.326 c-0.363,0.369-0.955,0.375-1.326,0.014c-0.004-0.004-0.01-0.008-0.016-0.014l-9.104-9.106c0.469-0.414,0.91-0.857,1.324-1.326 L52.224,56.52z M45,37.497c0,7.248-5.875,13.124-13.123,13.124c-7.249,0-13.125-5.876-13.125-13.124s5.876-13.124,13.125-13.124 C39.123,24.381,44.992,30.252,45,37.497 M37.5,23.593V1.875h5.625v18.748c-1.554,0-2.813,1.26-2.813,2.813 c0,0.418,0.096,0.832,0.273,1.21l-0.381,0.383C39.354,24.46,38.449,23.979,37.5,23.593 M43.125,24.373 c-0.519,0-0.938-0.42-0.938-0.937c0-0.518,0.419-0.938,0.938-0.938s0.937,0.42,0.937,0.938 C44.061,23.953,43.642,24.372,43.125,24.373"></path><path fill="#0CB4C4" d="M31.876,26.247c-6.213,0-11.25,5.037-11.25,11.25s5.036,11.249,11.25,11.249 c6.213,0,11.248-5.036,11.248-11.249C43.119,31.287,38.085,26.254,31.876,26.247 M31.876,46.871c-5.177,0-9.375-4.196-9.375-9.374 c0-5.179,4.197-9.375,9.375-9.375c5.177,0,9.373,4.196,9.373,9.375C41.244,42.671,37.05,46.865,31.876,46.871"></path></g></svg>