<svg xmlns="http://www.w3.org/2000/svg" xmlns:xlink="http://www.w3.org/1999/xlink" version="1.1" id="Layer_1" x="0px" y="0px" width="60px" height="60px" viewBox="0 0 60 60" enable-background="new 0 0 60 60" xml:space="preserve"><g><path fill="#0CB4C4" d="M0,49.355c0,2.668,2.171,4.839,4.839,4.839h14.516v3.871h-3.871V60h29.032v-1.935h-3.871v-3.871h14.516 c2.668,0,4.839-2.171,4.839-4.839v-2.903H0V49.355z M38.71,58.065H21.29v-3.871H38.71V58.065z M1.935,48.387h56.129v0.968 c0,1.601-1.303,2.903-2.903,2.903H4.839c-1.601,0-2.903-1.303-2.903-2.903V48.387z"></path><path fill="#0CB4C4" d="M55.161,9.677h-2.903v1.935h2.903c1.601,0,2.903,1.303,2.903,2.903v30H60v-30 C60,11.848,57.829,9.677,55.161,9.677z"></path><path fill="#0CB4C4" d="M1.935,14.516c0-1.601,1.303-2.903,2.903-2.903h2.903V9.677H4.839C2.171,9.677,0,11.848,0,14.516v30h1.935 V14.516z"></path><path fill="#0CB4C4" d="M50.323,0H9.677v9.677h40.645V0z M48.387,7.742H11.613V1.935h36.774V7.742z"></path><rect x="13.548" y="3.871" fill="#0CB4C4" width="1.935" height="1.935"></rect><rect x="17.419" y="3.871" fill="#0CB4C4" width="1.935" height="1.935"></rect><rect x="21.29" y="3.871" fill="#0CB4C4" width="1.935" height="1.935"></rect><polygon fill="#0CB4C4" points="50.323,11.613 48.387,11.613 48.387,38.71 11.613,38.71 11.613,11.613 9.677,11.613 9.677,40.645 50.323,40.645 "></polygon><polygon fill="#0CB4C4" points="13.548,34.839 13.548,36.774 27.097,36.774 27.097,27.097 25.161,27.097 25.161,34.839 "></polygon><polygon fill="#0CB4C4" points="27.097,23.226 13.548,23.226 13.548,32.903 15.484,32.903 15.484,25.161 27.097,25.161 "></polygon><rect x="29.032" y="23.226" fill="#0CB4C4" width="1.935" height="1.935"></rect><rect x="32.903" y="23.226" fill="#0CB4C4" width="13.548" height="1.935"></rect><rect x="29.032" y="27.097" fill="#0CB4C4" width="17.419" height="1.935"></rect><rect x="44.516" y="34.839" fill="#0CB4C4" width="1.935" height="1.935"></rect><rect x="29.032" y="34.839" fill="#0CB4C4" width="13.548" height="1.935"></rect><rect x="29.032" y="30.968" fill="#0CB4C4" width="17.419" height="1.935"></rect><path fill="#0CB4C4" d="M13.548,11.613v9.677h9.677v-9.677H13.548z M21.29,19.355h-5.806v-5.806h5.806V19.355z"></path><path fill="#0CB4C4" d="M34.839,11.613h-9.677v9.677h9.677V11.613z M32.903,19.355h-5.806v-5.806h5.806V19.355z"></path><path fill="#0CB4C4" d="M46.452,11.613h-9.677v9.677h9.677V11.613z M44.516,19.355H38.71v-5.806h5.806V19.355z"></path></g></svg>