<svg xmlns="http://www.w3.org/2000/svg" xmlns:xlink="http://www.w3.org/1999/xlink" version="1.1" id="Layer_1" x="0px" y="0px" width="60px" height="60px" viewBox="0 0 60 60" enable-background="new 0 0 60 60" xml:space="preserve"><g><path fill="#0CB4C4" d="M55.161,0H4.839C2.166,0,0,2.166,0,4.839v36.774c0,2.672,2.166,4.839,4.839,4.839h15.484v5.806h-1.935 c-2.138,0-3.871,1.733-3.871,3.871v2.903c0,0.534,0.433,0.968,0.968,0.968h29.032c0.534,0,0.968-0.433,0.968-0.968v-2.903 c0-2.138-1.733-3.871-3.871-3.871h-1.935v-5.806h15.484c2.672,0,4.839-2.166,4.839-4.839V4.839C60,2.166,57.834,0,55.161,0z M4.839,1.935h50.323c1.603,0,2.903,1.3,2.903,2.903v30H1.935v-30C1.935,3.235,3.235,1.935,4.839,1.935z M43.548,56.129v1.935 H16.452v-1.935c0-1.069,0.867-1.935,1.935-1.935h23.226C42.682,54.194,43.548,55.06,43.548,56.129z M37.742,52.258H22.258v-5.806 h15.484V52.258z M55.161,44.516H4.839c-1.603,0-2.903-1.3-2.903-2.903v-4.839h56.129v4.839 C58.065,43.216,56.765,44.516,55.161,44.516z"></path><rect x="54.194" y="40.645" fill="#0CB4C4" width="1.935" height="1.935"></rect><rect x="50.323" y="40.645" fill="#0CB4C4" width="1.935" height="1.935"></rect><path fill="#0CB4C4" d="M7.742,17.419v4.839c0,1.603,1.3,2.903,2.903,2.903s2.903-1.3,2.903-2.903v-3.997l7.384,2.903 c0.113,0.048,0.235,0.075,0.358,0.077c0.194-0.002,0.383-0.063,0.542-0.174c0.264-0.178,0.423-0.475,0.426-0.794v-3.871 c2.138,0,3.871-1.733,3.871-3.871s-1.733-3.871-3.871-3.871V4.79c-0.036-0.533-0.498-0.936-1.031-0.9 c-0.101,0.007-0.2,0.03-0.294,0.067l-9.503,3.784H7.742c-2.672,0-4.839,2.166-4.839,4.839S5.07,17.419,7.742,17.419z M24.194,12.581c0,1.069-0.867,1.935-1.935,1.935v-3.871C23.327,10.645,24.194,11.512,24.194,12.581z M11.613,22.258 c0,0.534-0.433,0.968-0.968,0.968s-0.968-0.433-0.968-0.968v-4.839h1.752l0.184,0.087V22.258z M20.323,18.89l-7.742-3.097V9.358 l7.742-3.097V18.89z M7.742,9.677h2.903v5.806H7.742c-1.603,0-2.903-1.3-2.903-2.903S6.139,9.677,7.742,9.677z"></path><path fill="#0CB4C4" d="M27.377,15.765l1.374,1.365l0.561-0.561c2.205-2.202,2.207-5.774,0.005-7.979 c-0.002-0.002-0.003-0.003-0.005-0.005l-0.561-0.561l-1.374,1.365l0.571,0.571c1.443,1.447,1.443,3.789,0,5.235L27.377,15.765z"></path><path fill="#0CB4C4" d="M32.903,12.581c-0.002,2.213-0.887,4.335-2.458,5.894l-0.165,0.165l1.374,1.365l0.165-0.165 c4.025-4.028,4.025-10.556,0-14.584L31.655,5.09l-1.374,1.394l0.165,0.165C32.025,8.217,32.91,10.354,32.903,12.581z"></path><path fill="#0CB4C4" d="M37.742,25.161h17.419c0.534,0,0.968-0.433,0.968-0.968V8.71c0-0.534-0.433-0.968-0.968-0.968H37.742 c-0.534,0-0.968,0.433-0.968,0.968v15.484C36.774,24.728,37.207,25.161,37.742,25.161z M38.71,15.484h6.774v7.742H38.71V15.484z M47.419,23.226v-7.742h6.774v7.742H47.419z M54.194,9.677v3.871H38.71V9.677H54.194z"></path><path fill="#0CB4C4" d="M55.161,27.097H4.839c-0.534,0-0.968,0.433-0.968,0.968v3.871c0,0.534,0.433,0.968,0.968,0.968h50.323 c0.534,0,0.968-0.433,0.968-0.968v-3.871C56.129,27.53,55.696,27.097,55.161,27.097z M54.194,30.968H5.806v-1.935h48.387V30.968z"></path></g></svg>