<svg xmlns="http://www.w3.org/2000/svg" xmlns:xlink="http://www.w3.org/1999/xlink" version="1.1" id="Layer_1" x="0px" y="0px" width="60px" height="60px" viewBox="0 0 60 60" enable-background="new 0 0 60 60" xml:space="preserve"><g><g><path fill="#0CB4C4" d="M59.091,20.455c0.545,0,0.909-0.364,0.909-0.909v-2.818c0-3.545-2.909-6.364-6.364-6.364h-0.091 c1.545-1,2.636-2.727,2.636-4.727C56.091,2.545,53.636,0,50.545,0C47.727,0,45.455,2,45,4.727H15.182 C14.727,2.091,12.455,0,9.636,0C6.545,0,4,2.545,4,5.636c0,2,1.091,3.727,2.636,4.727H6.364C2.818,10.364,0,13.273,0,16.727v2.818 c0,0.545,0.364,0.909,0.909,0.909h7.818v19.273c-2.636,0.455-4.636,2.727-4.636,5.545c0,2,1.091,3.727,2.636,4.727H6.364 C2.818,50,0,52.909,0,56.364v2.727C0,59.636,0.364,60,0.909,60h17.273c0.545,0,0.909-0.364,0.909-0.909c0-0.545,0-2.727,0-3.182 h21.818c0,0.545,0,2.727,0,3.182c0,0.545,0.364,0.909,0.909,0.909h17.273C59.636,60,60,59.636,60,59.091v-2.818 c0-3.545-2.909-6.364-6.364-6.364h-0.091c1.545-1,2.636-2.727,2.636-4.727c0-2.818-2-5.091-4.727-5.545V20.455H59.091z M58.182,16.727v1.909H42.727v-1.909c0-2.545,2.091-4.545,4.545-4.545h6.364C56.091,12.182,58.182,14.182,58.182,16.727z M50.545,1.818c2.091,0,3.818,1.727,3.818,3.818s-1.727,3.818-3.818,3.818s-3.818-1.727-3.818-3.818 C46.727,3.545,48.364,1.818,50.545,1.818z M9.636,1.818c2.091,0,3.818,1.727,3.818,3.818l0,0l0,0l0,0 c0,2.091-1.727,3.818-3.818,3.818S5.818,7.727,5.818,5.636C5.818,3.545,7.545,1.818,9.636,1.818z M1.818,16.727 c0-2.545,2.091-4.545,4.545-4.545h6.364c2.545,0,4.545,2.091,4.545,4.545v1.909H1.818V16.727z M9.636,41.364 c2.091,0,3.818,1.727,3.818,3.818S11.727,49,9.636,49s-3.818-1.727-3.818-3.818C5.818,43.091,7.545,41.364,9.636,41.364z M17.273,58.182H1.818v-1.909c0-2.545,2.091-4.545,4.545-4.545h6.364c2.545,0,4.545,2.091,4.545,4.545V58.182z M58.182,56.273 v1.909H42.727v-1.909c0-2.545,2.091-4.545,4.545-4.545h6.364C56.091,51.727,58.182,53.818,58.182,56.273z M54.273,45.182 c0,2.091-1.727,3.818-3.818,3.818s-3.818-1.727-3.818-3.818s1.727-3.818,3.818-3.818l0,0l0,0 C52.636,41.364,54.273,43.091,54.273,45.182z M49.636,39.636c-2.636,0.455-4.727,2.727-4.727,5.545c0,2,1.091,3.727,2.636,4.727 h-0.273c-2.727,0-5.091,1.727-6,4.182H18.727c-0.909-2.455-3.273-4.182-6-4.182h-0.091c1.545-1,2.636-2.727,2.636-4.727 c0-2.818-2.091-5.091-4.727-5.545V20.364h7.636c0.545,0,0.909-0.364,0.909-0.909v-2.818c0-3.545-2.909-6.364-6.364-6.364h-0.091 C14,9.455,14.909,8.091,15.182,6.455H45c0.273,1.636,1.182,3,2.545,3.818h-0.273c-3.545,0-6.364,2.909-6.364,6.364v2.818 c0,0.545,0.364,0.909,0.909,0.909h7.818V39.636z"></path></g><g><path fill="#0CB4C4" d="M39.091,20.909l-2.455,1.818C35.545,22,34.273,21.545,33,21.273l-0.364-3.091 c-0.091-0.455-0.455-0.818-0.909-0.818h-3.455c-0.455,0-0.818,0.364-0.909,0.818L27,21.273c-1.273,0.273-2.455,0.818-3.636,1.455 l-2.455-1.818C20.545,20.636,20,20.636,19.727,21l-2.455,2.455c-0.364,0.364-0.364,0.818-0.091,1.182l1.909,2.455 c-0.636,1.091-1.182,2.364-1.455,3.636l-3.091,0.364c-0.455,0.091-0.818,0.455-0.818,0.909v3.455c0,0.455,0.364,0.818,0.818,0.909 l3.091,0.364c0.273,1.273,0.818,2.455,1.455,3.636l-1.909,2.455c-0.273,0.364-0.273,0.909,0.091,1.182l2.455,2.455 c0.364,0.364,0.818,0.364,1.182,0.091l2.455-1.909c1.091,0.727,2.364,1.182,3.636,1.455l0.364,3.091 C27.455,49.636,27.818,50,28.273,50h3.455c0.455,0,0.818-0.364,0.909-0.818L33,46.091c1.273-0.273,2.455-0.818,3.636-1.455 L39,46.455c0.182,0.091,0.364,0.182,0.636,0.182c0.273,0,0.545-0.091,0.727-0.273l2.455-2.455 c0.364-0.364,0.364-0.818,0.091-1.182L41,40.273c0.636-1.091,1.182-2.364,1.455-3.636l3.091-0.364 c0.455-0.091,0.818-0.455,0.818-0.909v-3.455c0-0.455-0.364-0.818-0.818-0.909l-3.091-0.364C42.182,29.364,41.636,28.182,41,27 l1.818-2.455c0.273-0.364,0.273-0.909-0.091-1.273l-2.455-2.455C40,20.636,39.455,20.636,39.091,20.909z M39.091,27.545 c0.818,1.273,1.455,2.636,1.727,4.091c0.091,0.364,0.364,0.636,0.818,0.727l2.909,0.364v1.909L41.636,35 c-0.364,0.091-0.727,0.364-0.818,0.727c-0.273,1.455-0.818,2.909-1.727,4.091c-0.182,0.364-0.182,0.727,0,1.091l1.818,2.364 l-1.364,1.364l-2.364-1.818c-0.273-0.273-0.727-0.273-1.091,0c-1.273,0.818-2.636,1.455-4.091,1.727 c-0.364,0.091-0.636,0.364-0.727,0.818l-0.364,2.909h-1.818l-0.364-2.909C28.636,45,28.364,44.636,28,44.545 c-1.455-0.273-2.909-0.818-4.091-1.727c-0.364-0.182-0.727-0.182-1.091,0l-2.364,1.818l-1.364-1.273l1.727-2.273 c0.273-0.273,0.273-0.818,0-1.091c-0.818-1.273-1.364-2.636-1.636-4.091c-0.091-0.364-0.364-0.636-0.818-0.727l-2.909-0.364 v-1.909l2.909-0.364c0.364-0.091,0.727-0.364,0.818-0.727c0.273-1.455,0.818-2.909,1.727-4.091c0.182-0.364,0.182-0.727,0-1.091 l-1.818-2.364l1.364-1.364l2.273,1.636c0.273,0.273,0.818,0.273,1.091,0c1.273-0.818,2.636-1.364,4.091-1.727 c0.364-0.091,0.636-0.364,0.727-0.818L29,19.091h1.909L31.273,22c0.091,0.364,0.364,0.727,0.727,0.818 c1.455,0.273,2.909,0.818,4.091,1.727c0.364,0.182,0.727,0.182,1.091,0l2.364-1.818l1.364,1.364l-1.818,2.364 C38.909,26.818,38.909,27.182,39.091,27.545z"></path></g><g><path fill="#0CB4C4" d="M30,25.455c-4.545,0-8.273,3.727-8.273,8.273S25.455,42,30,42s8.273-3.727,8.273-8.273 S34.545,25.455,30,25.455z M30,40.182c-3.545,0-6.455-2.909-6.455-6.455s2.909-6.455,6.455-6.455s6.455,2.909,6.455,6.455 S33.545,40.182,30,40.182z"></path></g></g></svg>