<svg width="67" height="60" viewBox="0 0 67 60" fill="none" xmlns="http://www.w3.org/2000/svg"><path d="M48.6257 43.4467C48.0536 43.4467 47.5911 42.9842 47.5911 42.4121V38.4103C47.5911 37.8382 48.0536 37.3757 48.6257 37.3757C49.1978 37.3757 49.6603 37.8382 49.6603 38.4103V42.4121C49.6603 42.9842 49.1978 43.4467 48.6257 43.4467Z" fill="#0CB4C4"></path><path d="M63.11 43.4466C62.5378 43.4466 62.0754 42.9841 62.0754 42.412V37.7553C62.0754 37.1832 62.5378 36.7207 63.11 36.7207C63.6821 36.7207 64.1446 37.1832 64.1446 37.7553V42.412C64.1446 42.9841 63.6821 43.4466 63.11 43.4466Z" fill="#0CB4C4"></path><path d="M63.11 38.79C62.5378 38.79 62.0754 38.3275 62.0754 37.7554C62.0754 34.0474 59.0585 31.0316 55.3495 31.0316C51.6415 31.0316 48.6257 34.0474 48.6257 37.7554C48.6257 38.3275 48.1632 38.79 47.5911 38.79C47.019 38.79 46.5565 38.3275 46.5565 37.7554C46.5565 32.9063 50.5014 28.9624 55.3495 28.9624C60.1997 28.9624 64.1445 32.9073 64.1445 37.7554C64.1445 38.3275 63.6821 38.79 63.11 38.79Z" fill="#0CB4C4"></path><path d="M63.111 40.2084C62.7996 40.2084 62.4923 40.0688 62.2885 39.8029C60.2917 37.1947 59.7475 37.4078 57.7218 38.2117C55.7799 38.9824 52.8427 40.1464 47.4297 39.2897C46.8659 39.2007 46.48 38.671 46.57 38.1061C46.659 37.5423 47.1897 37.1512 47.7535 37.2464C52.6058 38.012 55.1229 37.0157 56.9604 36.2873C59.4558 35.2993 61.1256 34.8803 63.9314 38.5438C64.279 38.9969 64.1932 39.6467 63.739 39.9943C63.5517 40.1391 63.3303 40.2084 63.111 40.2084Z" fill="#0CB4C4"></path><path d="M58.9706 37.7315C58.8185 37.7315 58.6623 37.6974 58.5154 37.625C58.0032 37.3736 57.7922 36.7528 58.0436 36.2407L60.1128 32.0289C60.3631 31.5147 60.9808 31.3036 61.4981 31.5561C62.0102 31.8075 62.2213 32.4282 61.9699 32.9404L59.9007 37.1522C59.7207 37.5194 59.3523 37.7315 58.9706 37.7315Z" fill="#0CB4C4"></path><path d="M46.5565 56.8912C45.9844 56.8912 45.5219 56.4287 45.5219 55.8566C45.5219 53.5753 47.378 51.7192 49.6603 51.7192C50.2324 51.7192 50.6949 52.1817 50.6949 52.7538C50.6949 53.326 50.2324 53.7884 49.6603 53.7884C48.5191 53.7884 47.5911 54.7154 47.5911 55.8566C47.5911 56.4287 47.1287 56.8912 46.5565 56.8912Z" fill="#0CB4C4"></path><path d="M52.7641 53.7945H49.6603C49.0882 53.7945 48.6257 53.3321 48.6257 52.7599C48.6257 52.1878 49.0882 51.7253 49.6603 51.7253H52.7641C53.3362 51.7253 53.7987 52.1878 53.7987 52.7599C53.7987 53.3321 53.3362 53.7945 52.7641 53.7945Z" fill="#0CB4C4"></path><path d="M46.5565 60.0001C45.9844 60.0001 45.5219 59.5377 45.5219 58.9656V55.8566C45.5219 55.2845 45.9844 54.822 46.5565 54.822C47.1287 54.822 47.5911 55.2845 47.5911 55.8566V58.9656C47.5911 59.5377 47.1287 60.0001 46.5565 60.0001Z" fill="#0CB4C4"></path><path d="M65.1792 56.8912C64.607 56.8912 64.1446 56.4287 64.1446 55.8566C64.1446 54.7154 63.2165 53.7884 62.0754 53.7884C61.5033 53.7884 61.0408 53.326 61.0408 52.7538C61.0408 52.1817 61.5033 51.7192 62.0754 51.7192C64.3577 51.7192 66.2138 53.5753 66.2138 55.8566C66.2138 56.4287 65.7513 56.8912 65.1792 56.8912Z" fill="#0CB4C4"></path><path d="M62.0754 53.7945H58.9716C58.3995 53.7945 57.937 53.3321 57.937 52.7599C57.937 52.1878 58.3995 51.7253 58.9716 51.7253H62.0754C62.6475 51.7253 63.11 52.1878 63.11 52.7599C63.11 53.3321 62.6475 53.7945 62.0754 53.7945Z" fill="#0CB4C4"></path><path d="M65.1792 60.0001C64.607 60.0001 64.1446 59.5377 64.1446 58.9656V55.8566C64.1446 55.2845 64.607 54.822 65.1792 54.822C65.7513 54.822 66.2137 55.2845 66.2137 55.8566V58.9656C66.2137 59.5377 65.7513 60.0001 65.1792 60.0001Z" fill="#0CB4C4"></path><path d="M65.1791 60.0001H46.5565C45.9844 60.0001 45.5219 59.5376 45.5219 58.9655C45.5219 58.3934 45.9844 57.9309 46.5565 57.9309H65.1791C65.7513 57.9309 66.2137 58.3934 66.2137 58.9655C66.2137 59.5376 65.7513 60.0001 65.1791 60.0001Z" fill="#0CB4C4"></path><path d="M52.7641 53.7947C52.192 53.7947 51.7295 53.3322 51.7295 52.7601V48.9487C51.7295 48.3765 52.192 47.9141 52.7641 47.9141C53.3362 47.9141 53.7987 48.3765 53.7987 48.9487V52.7601C53.7987 53.3322 53.3362 53.7947 52.7641 53.7947Z" fill="#0CB4C4"></path><path d="M58.9716 53.7874C58.3995 53.7874 57.937 53.325 57.937 52.7528V48.9487C57.937 48.3765 58.3995 47.9141 58.9716 47.9141C59.5437 47.9141 60.0062 48.3765 60.0062 48.9487V52.7528C60.0062 53.325 59.5437 53.7874 58.9716 53.7874Z" fill="#0CB4C4"></path><path d="M55.8678 50.6805C51.3043 50.6805 47.5911 46.9684 47.5911 42.4069C47.5911 41.8348 48.0536 41.3723 48.6257 41.3723C49.1978 41.3723 49.6603 41.8348 49.6603 42.4069C49.6603 45.8283 52.4444 48.6113 55.8678 48.6113C59.2913 48.6113 62.0754 45.8283 62.0754 42.4069C62.0754 41.8348 62.5378 41.3723 63.11 41.3723C63.6821 41.3723 64.1446 41.8348 64.1446 42.4069C64.1446 46.9684 60.4314 50.6805 55.8678 50.6805Z" fill="#0CB4C4"></path><path d="M53.7997 54.8219C53.42 54.8219 53.0548 54.613 52.8727 54.2498C52.6171 53.7387 52.8241 53.1169 53.3351 52.8614L55.4043 51.8268C55.9144 51.5733 56.5362 51.7771 56.7928 52.2893C57.0483 52.8003 56.8414 53.4221 56.3303 53.6777L54.2611 54.7123C54.1132 54.7868 53.9549 54.8219 53.7997 54.8219Z" fill="#0CB4C4"></path><path d="M57.937 54.822C57.6722 54.822 57.4073 54.7207 57.2056 54.5189C56.801 54.1144 56.801 53.4605 57.2056 53.056L58.2401 52.0214C58.6447 51.6169 59.2985 51.6169 59.7031 52.0214C60.1076 52.4259 60.1076 53.0798 59.7031 53.4843L58.6685 54.5189C58.4667 54.7217 58.2019 54.822 57.937 54.822Z" fill="#0CB4C4"></path><path d="M53.7987 54.822C53.5338 54.822 53.2689 54.7207 53.0672 54.5189L52.0326 53.4843C51.6281 53.0798 51.6281 52.4259 52.0326 52.0214C52.4371 51.6169 53.091 51.6169 53.4955 52.0214L54.5301 53.056C54.9346 53.4605 54.9346 54.1144 54.5301 54.5189C54.3284 54.7217 54.0635 54.822 53.7987 54.822Z" fill="#0CB4C4"></path><path d="M57.936 54.8219C57.7808 54.8219 57.6225 54.7867 57.4746 54.7133L55.4054 53.6787C54.8943 53.4231 54.6874 52.8013 54.9429 52.2902C55.1995 51.7781 55.8213 51.5743 56.3313 51.8278L58.4005 52.8624C58.9116 53.1179 59.1185 53.7397 58.863 54.2508C58.6809 54.6129 58.3157 54.8219 57.936 54.8219Z" fill="#0CB4C4"></path><path d="M25.8647 43.4467C25.2926 43.4467 24.8302 42.9842 24.8302 42.4121V37.235C24.8302 36.6629 25.2926 36.2004 25.8647 36.2004C26.4369 36.2004 26.8993 36.6629 26.8993 37.235V42.4121C26.8993 42.9842 26.4369 43.4467 25.8647 43.4467Z" fill="#0CB4C4"></path><path d="M40.349 43.4467C39.7769 43.4467 39.3144 42.9842 39.3144 42.4121V37.235C39.3144 36.6629 39.7769 36.2004 40.349 36.2004C40.9211 36.2004 41.3836 36.6629 41.3836 37.235V42.4121C41.3836 42.9842 40.9211 43.4467 40.349 43.4467Z" fill="#0CB4C4"></path><path d="M23.7956 56.8912C23.2234 56.8912 22.761 56.4287 22.761 55.8566C22.761 53.5753 24.617 51.7192 26.8993 51.7192C27.4715 51.7192 27.9339 52.1817 27.9339 52.7538C27.9339 53.326 27.4715 53.7884 26.8993 53.7884C25.7582 53.7884 24.8302 54.7154 24.8302 55.8566C24.8302 56.4287 24.3677 56.8912 23.7956 56.8912Z" fill="#0CB4C4"></path><path d="M30.0031 53.7945H26.8993C26.3272 53.7945 25.8647 53.3321 25.8647 52.7599C25.8647 52.1878 26.3272 51.7253 26.8993 51.7253H30.0031C30.5752 51.7253 31.0377 52.1878 31.0377 52.7599C31.0377 53.3321 30.5752 53.7945 30.0031 53.7945Z" fill="#0CB4C4"></path><path d="M23.7956 60.0001C23.2234 60.0001 22.761 59.5377 22.761 58.9656V55.8566C22.761 55.2845 23.2234 54.822 23.7956 54.822C24.3677 54.822 24.8302 55.2845 24.8302 55.8566V58.9656C24.8302 59.5377 24.3677 60.0001 23.7956 60.0001Z" fill="#0CB4C4"></path><path d="M42.4182 56.8912C41.846 56.8912 41.3836 56.4287 41.3836 55.8566C41.3836 54.7154 40.4556 53.7884 39.3144 53.7884C38.7423 53.7884 38.2798 53.326 38.2798 52.7538C38.2798 52.1817 38.7423 51.7192 39.3144 51.7192C41.5967 51.7192 43.4528 53.5753 43.4528 55.8566C43.4528 56.4287 42.9903 56.8912 42.4182 56.8912Z" fill="#0CB4C4"></path><path d="M39.3144 53.7945H36.2106C35.6385 53.7945 35.1761 53.3321 35.1761 52.7599C35.1761 52.1878 35.6385 51.7253 36.2106 51.7253H39.3144C39.8865 51.7253 40.349 52.1878 40.349 52.7599C40.349 53.3321 39.8865 53.7945 39.3144 53.7945Z" fill="#0CB4C4"></path><path d="M42.4182 60.0001C41.8461 60.0001 41.3836 59.5377 41.3836 58.9656V55.8566C41.3836 55.2845 41.8461 54.822 42.4182 54.822C42.9903 54.822 43.4528 55.2845 43.4528 55.8566V58.9656C43.4528 59.5377 42.9903 60.0001 42.4182 60.0001Z" fill="#0CB4C4"></path><path d="M42.4182 60.0001H23.7956C23.2234 60.0001 22.761 59.5376 22.761 58.9655C22.761 58.3934 23.2234 57.9309 23.7956 57.9309H42.4182C42.9903 57.9309 43.4528 58.3934 43.4528 58.9655C43.4528 59.5376 42.9903 60.0001 42.4182 60.0001Z" fill="#0CB4C4"></path><path d="M30.0031 53.7947C29.431 53.7947 28.9685 53.3322 28.9685 52.7601V48.9487C28.9685 48.3765 29.431 47.9141 30.0031 47.9141C30.5752 47.9141 31.0377 48.3765 31.0377 48.9487V52.7601C31.0377 53.3322 30.5752 53.7947 30.0031 53.7947Z" fill="#0CB4C4"></path><path d="M36.2106 53.7874C35.6385 53.7874 35.1761 53.325 35.1761 52.7528V48.9487C35.1761 48.3765 35.6385 47.9141 36.2106 47.9141C36.7828 47.9141 37.2452 48.3765 37.2452 48.9487V52.7528C37.2452 53.325 36.7828 53.7874 36.2106 53.7874Z" fill="#0CB4C4"></path><path d="M33.1069 50.6805C28.5433 50.6805 24.8302 46.9684 24.8302 42.4069C24.8302 41.8348 25.2926 41.3723 25.8647 41.3723C26.4369 41.3723 26.8993 41.8348 26.8993 42.4069C26.8993 45.8283 29.6834 48.6113 33.1069 48.6113C36.5303 48.6113 39.3144 45.8283 39.3144 42.4069C39.3144 41.8348 39.7769 41.3723 40.349 41.3723C40.9211 41.3723 41.3836 41.8348 41.3836 42.4069C41.3836 46.9684 37.6704 50.6805 33.1069 50.6805Z" fill="#0CB4C4"></path><path d="M40.349 38.2696C39.7769 38.2696 39.3144 37.8071 39.3144 37.235C39.3144 33.8136 36.5303 31.0316 33.1069 31.0316C29.6834 31.0316 26.8993 33.8136 26.8993 37.235C26.8993 37.8071 26.4369 38.2696 25.8647 38.2696C25.2926 38.2696 24.8302 37.8071 24.8302 37.235C24.8302 32.6735 28.5433 28.9624 33.1069 28.9624C37.6704 28.9624 41.3836 32.6735 41.3836 37.235C41.3836 37.8071 40.9211 38.2696 40.349 38.2696Z" fill="#0CB4C4"></path><path d="M31.0387 54.8219C30.659 54.8219 30.2938 54.613 30.1117 54.2498C29.8562 53.7387 30.0631 53.1169 30.5742 52.8614L32.6434 51.8268C33.1555 51.5733 33.7752 51.7771 34.0318 52.2893C34.2873 52.8003 34.0804 53.4221 33.5693 53.6777L31.5002 54.7123C31.3522 54.7868 31.1939 54.8219 31.0387 54.8219Z" fill="#0CB4C4"></path><path d="M35.1761 54.822C34.9112 54.822 34.6463 54.7207 34.4446 54.5189C34.0401 54.1144 34.0401 53.4605 34.4446 53.056L35.4792 52.0214C35.8837 51.6169 36.5376 51.6169 36.9421 52.0214C37.3466 52.4259 37.3466 53.0798 36.9421 53.4843L35.9075 54.5189C35.7058 54.7217 35.4409 54.822 35.1761 54.822Z" fill="#0CB4C4"></path><path d="M31.0377 54.822C30.7728 54.822 30.508 54.7207 30.3062 54.5189L29.2717 53.4843C28.8671 53.0798 28.8671 52.4259 29.2717 52.0214C29.6762 51.6169 30.33 51.6169 30.7346 52.0214L31.7692 53.056C32.1737 53.4605 32.1737 54.1144 31.7692 54.5189C31.5674 54.7217 31.3026 54.822 31.0377 54.822Z" fill="#0CB4C4"></path><path d="M35.175 54.8219C35.0198 54.8219 34.8615 54.7867 34.7136 54.7133L32.6444 53.6787C32.1333 53.4231 31.9264 52.8013 32.182 52.2902C32.4375 51.7781 33.0593 51.5743 33.5704 51.8278L35.6396 52.8624C36.1506 53.1179 36.3576 53.7397 36.102 54.2508C35.9199 54.6129 35.5547 54.8219 35.175 54.8219Z" fill="#0CB4C4"></path><path d="M3.10377 43.4465C2.53165 43.4465 2.06918 42.9841 2.06918 42.4119V34.13C2.06918 33.5579 2.53165 33.0955 3.10377 33.0955C3.6759 33.0955 4.13836 33.5579 4.13836 34.13V42.4119C4.13836 42.9841 3.6759 43.4465 3.10377 43.4465Z" fill="#0CB4C4"></path><path d="M17.588 43.4466C17.0159 43.4466 16.5534 42.9841 16.5534 42.412V42.1078C16.5534 41.5357 17.0159 41.0732 17.588 41.0732C18.1602 41.0732 18.6226 41.5357 18.6226 42.1078V42.412C18.6226 42.9841 18.1602 43.4466 17.588 43.4466Z" fill="#0CB4C4"></path><path d="M1.03459 56.8912C0.462462 56.8912 0 56.4287 0 55.8566C0 53.5753 1.85605 51.7192 4.13836 51.7192C4.71049 51.7192 5.17295 52.1817 5.17295 52.7538C5.17295 53.326 4.71049 53.7884 4.13836 53.7884C2.99721 53.7884 2.06918 54.7154 2.06918 55.8566C2.06918 56.4287 1.60672 56.8912 1.03459 56.8912Z" fill="#0CB4C4"></path><path d="M7.24213 53.7945H4.13836C3.56624 53.7945 3.10378 53.3321 3.10378 52.7599C3.10378 52.1878 3.56624 51.7253 4.13836 51.7253H7.24213C7.81426 51.7253 8.27672 52.1878 8.27672 52.7599C8.27672 53.3321 7.81426 53.7945 7.24213 53.7945Z" fill="#0CB4C4"></path><path d="M1.03459 60.0001C0.462462 60.0001 0 59.5377 0 58.9656V55.8566C0 55.2845 0.462462 54.822 1.03459 54.822C1.60672 54.822 2.06918 55.2845 2.06918 55.8566V58.9656C2.06918 59.5377 1.60672 60.0001 1.03459 60.0001Z" fill="#0CB4C4"></path><path d="M19.6572 56.8912C19.0851 56.8912 18.6226 56.4287 18.6226 55.8566C18.6226 54.7154 17.6946 53.7884 16.5534 53.7884C15.9813 53.7884 15.5188 53.326 15.5188 52.7538C15.5188 52.1817 15.9813 51.7192 16.5534 51.7192C18.8357 51.7192 20.6918 53.5753 20.6918 55.8566C20.6918 56.4287 20.2293 56.8912 19.6572 56.8912Z" fill="#0CB4C4"></path><path d="M16.5534 53.7945H13.4497C12.8775 53.7945 12.4151 53.3321 12.4151 52.7599C12.4151 52.1878 12.8775 51.7253 13.4497 51.7253H16.5534C17.1256 51.7253 17.588 52.1878 17.588 52.7599C17.588 53.3321 17.1256 53.7945 16.5534 53.7945Z" fill="#0CB4C4"></path><path d="M19.6572 60.0001C19.0851 60.0001 18.6226 59.5377 18.6226 58.9656V55.8566C18.6226 55.2845 19.0851 54.822 19.6572 54.822C20.2293 54.822 20.6918 55.2845 20.6918 55.8566V58.9656C20.6918 59.5377 20.2293 60.0001 19.6572 60.0001Z" fill="#0CB4C4"></path><path d="M19.6572 60.0001H1.03459C0.462462 60.0001 0 59.5376 0 58.9655C0 58.3934 0.462462 57.9309 1.03459 57.9309H19.6572C20.2293 57.9309 20.6918 58.3934 20.6918 58.9655C20.6918 59.5376 20.2293 60.0001 19.6572 60.0001Z" fill="#0CB4C4"></path><path d="M7.24212 53.7947C6.67 53.7947 6.20753 53.3322 6.20753 52.7601V48.9487C6.20753 48.3765 6.67 47.9141 7.24212 47.9141C7.81425 47.9141 8.27671 48.3765 8.27671 48.9487V52.7601C8.27671 53.3322 7.81425 53.7947 7.24212 53.7947Z" fill="#0CB4C4"></path><path d="M13.4497 53.7874C12.8775 53.7874 12.4151 53.325 12.4151 52.7528V48.9487C12.4151 48.3765 12.8775 47.9141 13.4497 47.9141C14.0218 47.9141 14.4842 48.3765 14.4842 48.9487V52.7528C14.4842 53.325 14.0218 53.7874 13.4497 53.7874Z" fill="#0CB4C4"></path><path d="M10.3459 50.6805C5.78233 50.6805 2.06918 46.9684 2.06918 42.4069C2.06918 41.8348 2.53165 41.3723 3.10377 41.3723C3.6759 41.3723 4.13836 41.8348 4.13836 42.4069C4.13836 45.8283 6.92244 48.6113 10.3459 48.6113C13.7694 48.6113 16.5534 45.8283 16.5534 42.4069C16.5534 41.8348 17.0159 41.3723 17.588 41.3723C18.1602 41.3723 18.6226 41.8348 18.6226 42.4069C18.6226 46.9684 14.9095 50.6805 10.3459 50.6805Z" fill="#0CB4C4"></path><path d="M10.3449 55.8565C10.1483 55.8565 9.94861 55.7996 9.77169 55.6827L6.66792 53.6135C6.19201 53.2959 6.06372 52.6544 6.38134 52.1785C6.69793 51.7026 7.33937 51.5743 7.81632 51.8919L10.9201 53.9611C11.396 54.2787 11.5243 54.9202 11.2067 55.3961C11.008 55.6951 10.679 55.8565 10.3449 55.8565Z" fill="#0CB4C4"></path><path d="M10.3469 55.8565C10.0128 55.8565 9.68376 55.6951 9.48512 55.3961C9.1675 54.9202 9.29579 54.2787 9.7717 53.9611L12.8755 51.8919C13.3524 51.5743 13.9939 51.7026 14.3104 52.1785C14.6281 52.6544 14.4998 53.2959 14.0239 53.6135L10.9201 55.6827C10.7432 55.8006 10.5435 55.8565 10.3469 55.8565Z" fill="#0CB4C4"></path><path d="M19.6572 38.2685C19.0851 38.2685 18.6226 37.806 18.6226 37.2339C18.6226 33.2414 15.373 29.9918 11.3805 29.9918C9.53892 29.9918 7.90324 30.9933 6.8552 31.8334C6.40929 32.1913 5.75646 32.1179 5.40056 31.674C5.0426 31.2271 5.11502 30.5763 5.55989 30.2194C7.43457 28.7172 9.44685 27.9226 11.3805 27.9226C16.5152 27.9226 20.6918 32.0992 20.6918 37.2339C20.6918 37.806 20.2293 38.2685 19.6572 38.2685Z" fill="#0CB4C4"></path><path d="M19.6572 48.6145C19.0851 48.6145 18.6226 48.152 18.6226 47.5799C18.6226 43.5874 15.373 40.3377 11.3805 40.3377C10.8084 40.3377 10.3459 39.8753 10.3459 39.3031C10.3459 38.731 10.8084 38.2686 11.3805 38.2686C16.5152 38.2686 20.6918 42.4452 20.6918 47.5799C20.6918 48.152 20.2293 48.6145 19.6572 48.6145Z" fill="#0CB4C4"></path><path d="M3.10377 40.3377C2.53165 40.3377 2.06918 39.8753 2.06918 39.3032C2.06918 38.731 2.53165 38.2686 3.10377 38.2686C4.24493 38.2686 5.17295 37.3405 5.17295 36.1994C5.17295 35.6273 5.63541 35.1648 6.20754 35.1648C6.77967 35.1648 7.24213 35.6273 7.24213 36.1994C7.24213 38.4817 5.38608 40.3377 3.10377 40.3377Z" fill="#0CB4C4"></path><path d="M3.10377 35.1646C2.53165 35.1646 2.06918 34.7022 2.06918 34.1301C2.06918 31.8478 3.92524 29.9917 6.20754 29.9917C6.77967 29.9917 7.24213 30.4542 7.24213 31.0263C7.24213 31.5984 6.77967 32.0609 6.20754 32.0609C5.06639 32.0609 4.13836 32.9889 4.13836 34.1301C4.13836 34.7022 3.6759 35.1646 3.10377 35.1646Z" fill="#0CB4C4"></path><path d="M9.3113 40.3377C7.029 40.3377 5.17294 38.4817 5.17294 36.1994C5.17294 35.6273 5.6354 35.1648 6.20753 35.1648C6.77966 35.1648 7.24212 35.6273 7.24212 36.1994C7.24212 37.3405 8.17015 38.2686 9.3113 38.2686C9.88343 38.2686 10.3459 38.731 10.3459 39.3032C10.3459 39.8753 9.88343 40.3377 9.3113 40.3377Z" fill="#0CB4C4"></path><path d="M6.20753 37.2338C5.6354 37.2338 5.17294 36.7714 5.17294 36.1992V31.0263C5.17294 30.4542 5.6354 29.9917 6.20753 29.9917C6.77966 29.9917 7.24212 30.4542 7.24212 31.0263V36.1992C7.24212 36.7714 6.77966 37.2338 6.20753 37.2338Z" fill="#0CB4C4"></path><path d="M19.6572 48.6143C19.0851 48.6143 18.6226 48.1518 18.6226 47.5797V37.2338C18.6226 36.6617 19.0851 36.1992 19.6572 36.1992C20.2293 36.1992 20.6918 36.6617 20.6918 37.2338V47.5797C20.6918 48.1518 20.2293 48.6143 19.6572 48.6143Z" fill="#0CB4C4"></path><path d="M11.3805 40.3377H9.31131C8.73918 40.3377 8.27672 39.8753 8.27672 39.3031C8.27672 38.731 8.73918 38.2686 9.31131 38.2686H11.3805C11.9526 38.2686 12.4151 38.731 12.4151 39.3031C12.4151 39.8753 11.9526 40.3377 11.3805 40.3377Z" fill="#0CB4C4"></path><path d="M33.0417 39.3238C30.0404 39.3238 27.6029 38.2168 27.5015 38.1692C26.9831 37.9302 26.7576 37.3178 26.9956 36.7984C27.2335 36.2811 27.847 36.0525 28.3664 36.2894C28.3881 36.2997 30.5111 37.2557 33.0427 37.2557C35.592 37.2557 37.8494 36.2997 37.8722 36.2894C38.3998 36.0649 39.0051 36.308 39.2306 36.8305C39.4562 37.355 39.2151 37.9633 38.6916 38.1889C38.583 38.2354 36.0317 39.3238 33.0417 39.3238Z" fill="#0CB4C4"></path><path d="M40.349 40.3428C40.0862 40.3428 39.8224 40.2424 39.6207 40.0438L37.5515 37.9953C37.1459 37.5928 37.1418 36.9379 37.5442 36.5313C37.9477 36.1258 38.6006 36.1227 39.0082 36.5241L41.0774 38.5726C41.4829 38.975 41.4871 39.6299 41.0846 40.0365C40.8818 40.2404 40.6159 40.3428 40.349 40.3428Z" fill="#0CB4C4"></path><path d="M25.8647 40.3634C25.6009 40.3634 25.3361 40.2631 25.1354 40.0624C24.7298 39.6589 24.7277 39.005 25.1312 38.5995L27.2004 36.5199C27.6039 36.1154 28.2598 36.1123 28.6633 36.5158C29.0689 36.9193 29.0709 37.5731 28.6675 37.9787L26.5983 40.0582C26.3965 40.261 26.1306 40.3634 25.8647 40.3634Z" fill="#0CB4C4"></path><path d="M33.1069 26.8931C32.842 26.8931 32.5772 26.7917 32.3754 26.59L30.6094 24.8239H12.8424L11.0763 26.59C10.8818 26.7845 10.6201 26.8931 10.3449 26.8931C10.0697 26.8931 9.80687 26.7845 9.6134 26.59L7.84839 24.8239H6.20753C5.6354 24.8239 5.17294 24.3615 5.17294 23.7894V1.03459C5.17294 0.462461 5.6354 0 6.20753 0H60.0062C60.5783 0 61.0408 0.462461 61.0408 1.03459V23.7894C61.0408 24.3615 60.5783 24.8239 60.0062 24.8239H58.3653L56.5983 26.59C56.1937 26.9945 55.5399 26.9945 55.1354 26.59L53.3693 24.8239H35.6044L33.8383 26.59C33.6366 26.7917 33.3717 26.8931 33.1069 26.8931ZM35.176 22.7548H53.7976C54.0728 22.7548 54.3356 22.8634 54.5291 23.0579L55.8668 24.3956L57.2056 23.0579C57.4001 22.8634 57.6629 22.7548 57.937 22.7548H58.9716V2.06918H7.24212V22.7548H8.27671C8.55191 22.7548 8.8147 22.8634 9.00817 23.0579L10.3449 24.3956L11.6826 23.0579C11.8771 22.8634 12.1388 22.7548 12.414 22.7548H31.0377C31.3129 22.7548 31.5757 22.8634 31.7691 23.0579L33.1069 24.3956L34.4446 23.0579C34.6381 22.8644 34.9008 22.7548 35.176 22.7548Z" fill="#0CB4C4"></path><path d="M47.5911 39.303C47.019 39.303 46.5565 38.8406 46.5565 38.2685V37.7553C46.5565 37.1832 47.019 36.7207 47.5911 36.7207C48.1633 36.7207 48.6257 37.1832 48.6257 37.7553V38.2685C48.6257 38.8406 48.1633 39.303 47.5911 39.303Z" fill="#0CB4C4"></path><path d="M18.6402 20.6897C14.0766 20.6897 10.3635 16.9765 10.3635 12.4129C10.3635 7.84937 14.0766 4.13623 18.6402 4.13623C23.2038 4.13623 26.9169 7.84937 26.9169 12.4129C26.9169 16.9765 23.2038 20.6897 18.6402 20.6897ZM18.6402 6.20541C15.2167 6.20541 12.4327 8.98949 12.4327 12.4129C12.4327 15.8364 15.2167 18.6205 18.6402 18.6205C22.0637 18.6205 24.8477 15.8364 24.8477 12.4129C24.8477 8.98949 22.0626 6.20541 18.6402 6.20541Z" fill="#0CB4C4"></path><path d="M18.6402 15.5166C16.929 15.5166 15.5364 14.1241 15.5364 12.4129C15.5364 10.7016 16.929 9.30908 18.6402 9.30908C20.3514 9.30908 21.744 10.7016 21.744 12.4129C21.744 14.1241 20.3514 15.5166 18.6402 15.5166ZM18.6402 11.3783C18.0691 11.3783 17.6056 11.8418 17.6056 12.4129C17.6056 12.9839 18.0691 13.4474 18.6402 13.4474C19.2113 13.4474 19.6748 12.9839 19.6748 12.4129C19.6748 11.8418 19.2103 11.3783 18.6402 11.3783Z" fill="#0CB4C4"></path><path d="M22.7682 19.3963C22.2261 19.3963 21.7698 18.9742 21.7367 18.4259C21.6353 16.7954 20.2759 15.5166 18.6392 15.5166C17.0024 15.5166 15.643 16.7943 15.5416 18.4259C15.5075 18.997 15.0046 19.416 14.4449 19.3953C13.8749 19.3601 13.4403 18.8697 13.4755 18.2986C13.6431 15.5787 15.9109 13.4485 18.6381 13.4485C21.3653 13.4485 23.6331 15.5797 23.8007 18.2986C23.8359 18.8697 23.4014 19.3591 22.8313 19.3953C22.8117 19.3953 22.7889 19.3963 22.7682 19.3963Z" fill="#0CB4C4"></path><path d="M47.5901 20.6897C43.0265 20.6897 39.3134 16.9765 39.3134 12.4129C39.3134 7.84937 43.0265 4.13623 47.5901 4.13623C52.1537 4.13623 55.8668 7.84937 55.8668 12.4129C55.8668 16.9765 52.1537 20.6897 47.5901 20.6897ZM47.5901 6.20541C44.1666 6.20541 41.3826 8.98949 41.3826 12.4129C41.3826 15.8364 44.1666 18.6205 47.5901 18.6205C51.0136 18.6205 53.7976 15.8364 53.7976 12.4129C53.7976 8.98949 51.0136 6.20541 47.5901 6.20541Z" fill="#0CB4C4"></path><path d="M47.5901 15.5166C45.8789 15.5166 44.4863 14.1241 44.4863 12.4129C44.4863 10.7016 45.8789 9.30908 47.5901 9.30908C49.3013 9.30908 50.6939 10.7016 50.6939 12.4129C50.6939 14.1241 49.3013 15.5166 47.5901 15.5166ZM47.5901 11.3783C47.019 11.3783 46.5555 11.8418 46.5555 12.4129C46.5555 12.9839 47.019 13.4474 47.5901 13.4474C48.1612 13.4474 48.6247 12.9839 48.6247 12.4129C48.6247 11.8418 48.1612 11.3783 47.5901 11.3783Z" fill="#0CB4C4"></path><path d="M51.7181 19.3963C51.176 19.3963 50.7197 18.9742 50.6866 18.4259C50.5852 16.7954 49.2258 15.5166 47.5891 15.5166C45.9523 15.5166 44.5929 16.7943 44.4915 18.4259C44.4574 18.997 43.9711 19.416 43.3948 19.3953C42.8248 19.3601 42.3902 18.8697 42.4254 18.2986C42.593 15.5787 44.8609 13.4485 47.588 13.4485C50.3152 13.4485 52.583 15.5797 52.7506 18.2986C52.7858 18.8697 52.3513 19.3591 51.7812 19.3953C51.7616 19.3953 51.7398 19.3963 51.7181 19.3963Z" fill="#0CB4C4"></path><path d="M33.1069 14.4978C32.842 14.4978 32.5772 14.3964 32.3754 14.1947L31.3408 13.1601C30.9363 12.7556 30.9363 12.1017 31.3408 11.6972C31.7453 11.2927 32.3992 11.2927 32.8037 11.6972L33.8383 12.7318C34.2428 13.1363 34.2428 13.7902 33.8383 14.1947C33.6366 14.3964 33.3717 14.4978 33.1069 14.4978Z" fill="#0CB4C4"></path><path d="M33.1069 14.4979C32.842 14.4979 32.5772 14.3965 32.3754 14.1947C31.9709 13.7902 31.9709 13.1363 32.3754 12.7318L35.4782 9.62908C35.8827 9.22455 36.5365 9.22455 36.9411 9.62908C37.3456 10.0336 37.3456 10.6875 36.9411 11.092L33.8383 14.1947C33.6366 14.3965 33.3717 14.4979 33.1069 14.4979Z" fill="#0CB4C4"></path><path d="M34.1435 10.3595H30.0052C29.433 10.3595 28.9706 9.897 28.9706 9.32487C28.9706 8.75274 29.433 8.29028 30.0052 8.29028H34.1435C34.7157 8.29028 35.1781 8.75274 35.1781 9.32487C35.1781 9.897 34.7157 10.3595 34.1435 10.3595Z" fill="#0CB4C4"></path><path d="M30.0052 16.567C29.433 16.567 28.9706 16.1045 28.9706 15.5324V9.32487C28.9706 8.75274 29.433 8.29028 30.0052 8.29028C30.5773 8.29028 31.0398 8.75274 31.0398 9.32487V15.5324C31.0398 16.1035 30.5773 16.567 30.0052 16.567Z" fill="#0CB4C4"></path><path d="M36.2106 16.567H30.0052C29.433 16.567 28.9706 16.1045 28.9706 15.5324C28.9706 14.9603 29.433 14.4978 30.0052 14.4978H36.2106C36.7828 14.4978 37.2452 14.9603 37.2452 15.5324C37.2452 16.1045 36.7828 16.567 36.2106 16.567Z" fill="#0CB4C4"></path><path d="M36.2106 16.567C35.6385 16.567 35.1761 16.1046 35.1761 15.5324V13.4643C35.1761 12.8921 35.6385 12.4297 36.2106 12.4297C36.7828 12.4297 37.2452 12.8921 37.2452 13.4643V15.5324C37.2452 16.1035 36.7828 16.567 36.2106 16.567Z" fill="#0CB4C4"></path></svg>