<svg width="61" height="60" viewBox="0 0 61 60" fill="none" xmlns="http://www.w3.org/2000/svg"><path d="M40.3689 44.4282H20.1212C17.748 44.4282 15.817 42.4973 15.817 40.124V19.8774C15.817 17.5042 17.748 15.5732 20.1212 15.5732H40.3689C42.7422 15.5732 44.6731 17.5042 44.6731 19.8774V40.1252C44.6727 42.498 42.7418 44.4289 40.3685 44.4289L40.3689 44.4282ZM20.1212 17.7576C18.952 17.7576 18.0013 18.7083 18.0013 19.8776V40.1253C18.0013 41.2945 18.952 42.2452 20.1212 42.2452H40.3689C41.5381 42.2452 42.4889 41.2945 42.4889 40.1253L42.4885 19.8776C42.4885 18.7083 41.5377 17.7576 40.3685 17.7576H20.1212Z" fill="#0CB4C4"></path><path d="M51.3674 22.3939H43.5815V20.2097H50.915L52.8627 18.262L54.4072 19.8065L52.1398 22.074C51.9349 22.2784 51.6569 22.3938 51.3675 22.3938L51.3674 22.3939Z" fill="#0CB4C4"></path><path d="M55.9227 21.0698C53.5393 21.0698 51.6 19.1305 51.6 16.7475C51.6 14.3641 53.5393 12.4248 55.9227 12.4248C58.3061 12.4248 60.2454 14.3636 60.2454 16.7475C60.2454 19.1305 58.3061 21.0698 55.9227 21.0698ZM55.9227 14.6091C54.7438 14.6091 53.7842 15.5681 53.7842 16.7475C53.7842 17.9264 54.7433 18.8855 55.9227 18.8855C57.1016 18.8855 58.0611 17.9264 58.0611 16.7475C58.0611 15.5681 57.1016 14.6091 55.9227 14.6091Z" fill="#0CB4C4"></path><path d="M52.8629 41.7373L50.9152 39.7895L43.5818 39.79V37.6057H51.3677C51.6571 37.6057 51.9351 37.7207 52.14 37.9255L54.4074 40.193L52.8629 41.7373Z" fill="#0CB4C4"></path><path d="M55.9227 47.5747C53.5393 47.5747 51.6 45.6354 51.6 43.252C51.6004 42.0974 52.0502 41.0118 52.8662 40.1954C53.6825 39.3791 54.7676 38.9292 55.9219 38.9292H55.9228C58.3062 38.9292 60.245 40.8685 60.245 43.2514C60.2455 45.6358 58.3065 47.5746 55.9228 47.5746L55.9227 47.5747ZM55.9227 41.1145C55.3513 41.1145 54.8147 41.3365 54.4112 41.7405C54.0072 42.144 53.7847 42.6811 53.7847 43.2524C53.7847 44.4313 54.7438 45.3904 55.9232 45.3904C57.1021 45.3904 58.0616 44.4314 58.0616 43.252C58.0616 42.0731 57.1025 41.114 55.9232 41.114L55.9227 41.1145Z" fill="#0CB4C4"></path><path d="M55.9227 34.3229C53.5393 34.3229 51.6 32.3836 51.6 30.0002C51.6 27.6168 53.5393 25.6775 55.9227 25.6775C58.3061 25.6775 60.2454 27.6168 60.2454 30.0002C60.2454 32.3836 58.3061 34.3229 55.9227 34.3229ZM55.9227 27.8617C54.7438 27.8617 53.7842 28.8208 53.7842 30.0002C53.7842 31.1791 54.7433 32.1386 55.9227 32.1386C57.1016 32.1386 58.0611 31.1791 58.0611 30.0002C58.0611 28.8213 57.1016 27.8617 55.9227 27.8617Z" fill="#0CB4C4"></path><path d="M43.581 28.9082H52.6921V31.0924H43.581V28.9082Z" fill="#0CB4C4"></path><path d="M9.12388 22.3938C8.83444 22.3938 8.55645 22.2788 8.35158 22.074L6.08411 19.8065L7.62865 18.262L9.57639 20.2097L16.9098 20.2093V22.3935L9.12388 22.3938Z" fill="#0CB4C4"></path><path d="M4.56749 21.0698C3.41373 21.0698 2.32821 20.6205 1.51223 19.8036C0.695886 18.9873 0.246033 17.9018 0.246033 16.747C0.246033 14.3636 2.18532 12.4243 4.56873 12.4243C6.95215 12.4243 8.89143 14.3636 8.89143 16.747C8.89143 19.1304 6.95215 21.0693 4.56873 21.0693C4.56785 21.0697 4.56741 21.0697 4.56741 21.0697L4.56749 21.0698ZM4.56837 14.6091C3.38947 14.6091 2.42992 15.5682 2.42992 16.7476C2.42992 17.319 2.6524 17.8556 3.05595 18.2595C3.45949 18.6635 3.99652 18.8856 4.56745 18.8856H4.56789C5.74725 18.8856 6.70634 17.9265 6.70634 16.7476C6.70678 15.5682 5.74729 14.6091 4.56837 14.6091Z" fill="#0CB4C4"></path><path d="M7.62841 41.7383L6.08386 40.1937L8.35179 37.9262C8.55665 37.7214 8.83463 37.6064 9.12409 37.6064L16.91 37.606V39.7902L9.57657 39.7906L7.62841 41.7383Z" fill="#0CB4C4"></path><path d="M4.56861 47.5759C2.18519 47.5759 0.245911 45.6366 0.245911 43.2536C0.245911 40.8702 2.18519 38.9309 4.56861 38.9309H4.56949C5.72325 38.9309 6.80844 39.3803 7.62475 40.1971C8.4411 41.0135 8.89095 42.099 8.89095 43.2533C8.89139 45.6371 6.95246 47.576 4.5687 47.576L4.56861 47.5759ZM4.56949 41.1152H4.56905C3.38969 41.1152 2.4306 42.0742 2.4306 43.2536C2.4306 44.4325 3.38968 45.3916 4.56905 45.3916C5.74796 45.3916 6.70751 44.4325 6.70751 43.2532C6.70751 42.6818 6.48502 42.1452 6.08104 41.7412C5.67705 41.3372 5.14042 41.1152 4.56949 41.1152Z" fill="#0CB4C4"></path><path d="M4.56864 34.3229C2.18477 34.3229 0.245483 32.3836 0.245483 30.0002C0.245483 27.6168 2.18477 25.6775 4.56773 25.6775C6.95115 25.6775 8.89043 27.6168 8.89043 30.0002C8.89087 32.3832 6.9516 34.322 4.56864 34.3229ZM4.56819 27.8617C3.38929 27.8617 2.43019 28.8208 2.43019 30.0002C2.43019 31.1791 3.38928 32.1386 4.56865 32.1386C5.74755 32.1386 6.70665 31.1791 6.70665 30.0002C6.70665 28.8208 5.74713 27.8617 4.56819 27.8617Z" fill="#0CB4C4"></path><path d="M7.79871 28.9082H16.9102V31.0924H7.79871V28.9082Z" fill="#0CB4C4"></path><path d="M22.6397 16.6636H20.4554L20.455 9.33018L18.5073 7.38244L20.0523 5.83789L22.3197 8.10537C22.5246 8.31022 22.6396 8.58821 22.6396 8.87766L22.6397 16.6636Z" fill="#0CB4C4"></path><path d="M16.9927 8.6454C14.6093 8.6454 12.67 6.70612 12.67 4.3227C12.67 1.93928 14.6088 0 16.9927 0C19.3761 0 21.3149 1.93928 21.3149 4.3227C21.3149 6.70612 19.3757 8.6454 16.9927 8.6454ZM16.9927 2.18424C15.8138 2.18424 14.8542 3.14333 14.8542 4.3227C14.8542 5.50161 15.8133 6.46116 16.9927 6.46116C18.1716 6.46116 19.1307 5.50207 19.1307 4.3227C19.1307 3.14379 18.1716 2.18424 16.9927 2.18424Z" fill="#0CB4C4"></path><path d="M40.0362 16.6636H37.852L37.8516 8.87766C37.8516 8.58822 37.9665 8.31024 38.1714 8.10537L40.4389 5.83789L41.9834 7.38244L40.0357 9.33018L40.0362 16.6636Z" fill="#0CB4C4"></path><path d="M43.4987 8.64579C42.344 8.64535 41.2585 8.19555 40.442 7.37959C39.6257 6.56324 39.1758 5.47775 39.1758 4.32298C39.1758 1.93956 41.1151 0.000732422 43.4981 0.000732422C45.8815 0.000732422 47.8208 1.94002 47.8208 4.32343C47.8208 6.7064 45.882 8.64568 43.4985 8.64568L43.4987 8.64579ZM43.4987 2.18464C42.3197 2.18464 41.3607 3.14372 41.3607 4.32309C41.3602 4.89449 41.5827 5.43109 41.9867 5.83505C42.3902 6.23903 42.9273 6.46152 43.4986 6.46152C44.6775 6.46152 45.6366 5.50243 45.6366 4.32306C45.6366 3.14369 44.6776 2.18464 43.4987 2.18464Z" fill="#0CB4C4"></path><path d="M30.2457 8.6454C27.8623 8.6454 25.923 6.70612 25.923 4.3227C25.923 1.93928 27.8623 0 30.2457 0C32.6291 0 34.5684 1.93928 34.5684 4.3227C34.5684 6.70612 32.6291 8.6454 30.2457 8.6454ZM30.2457 2.18424C29.0668 2.18424 28.1072 3.14333 28.1072 4.3227C28.1072 5.50161 29.0667 6.46116 30.2457 6.46116C31.4246 6.46116 32.3841 5.50207 32.3841 4.3227C32.3841 3.14379 31.4246 2.18424 30.2457 2.18424Z" fill="#0CB4C4"></path><path d="M29.1539 7.55322H31.3382V16.6643H29.1539V7.55322Z" fill="#0CB4C4"></path><path d="M20.0524 54.1611L18.5079 52.6166L20.4556 50.6689L20.4552 43.3354H22.6394L22.6399 51.1213C22.6399 51.4108 22.5249 51.6888 22.32 51.8936L20.0524 54.1611Z" fill="#0CB4C4"></path><path d="M16.9927 59.9999C14.6093 59.9999 12.67 58.0606 12.67 55.6772C12.67 53.2938 14.6093 51.3545 16.9927 51.3545C19.3761 51.3545 21.3149 53.2938 21.3149 55.6772C21.3149 56.8314 20.8656 57.9169 20.0487 58.7338C19.2333 59.5502 18.1473 60 16.9926 60L16.9927 59.9999ZM16.9927 53.5387C15.8138 53.5387 14.8542 54.4978 14.8542 55.6772C14.8542 56.8561 15.8133 57.8156 16.9927 57.8156C17.5641 57.8156 18.1007 57.5932 18.5046 57.1896C18.9086 56.7856 19.1311 56.2486 19.1307 55.6777C19.1307 54.4983 18.172 53.5387 16.9927 53.5387Z" fill="#0CB4C4"></path><path d="M40.4389 54.1611L38.1714 51.8931C37.9666 51.6883 37.8516 51.4103 37.8516 51.1208L37.8511 43.335H40.0354L40.0358 50.6684L41.9836 52.6161L40.4389 54.1611Z" fill="#0CB4C4"></path><path d="M43.4987 60C41.1152 60 39.176 58.0607 39.176 55.6773C39.176 54.5231 39.6253 53.4376 40.4422 52.6207C41.2585 51.8043 42.344 51.3545 43.4983 51.3545C45.8822 51.3545 47.8215 53.2938 47.8215 55.6772C47.821 58.0606 45.8822 59.9999 43.4988 59.9999L43.4987 60ZM43.4982 53.5389C42.9268 53.5389 42.3902 53.7613 41.9863 54.1653C41.5823 54.5693 41.3598 55.1059 41.3602 55.6768C41.3602 56.8562 42.3193 57.8153 43.4987 57.8153C44.6776 57.8153 45.6367 56.8562 45.6367 55.6768C45.6367 54.4979 44.6776 53.5389 43.4982 53.5389Z" fill="#0CB4C4"></path><path d="M30.2457 59.9999C27.8623 59.9999 25.923 58.0606 25.923 55.6777C25.923 53.2943 27.8623 51.355 30.2457 51.355C32.6286 51.355 34.5675 53.2943 34.5684 55.6768C34.5684 58.0611 32.6291 59.9999 30.2457 59.9999ZM30.2457 53.5392C29.0668 53.5392 28.1072 54.4983 28.1072 55.6777C28.1072 56.8566 29.0663 57.8157 30.2457 57.8157C31.4246 57.8157 32.3841 56.8566 32.3841 55.6772C32.3837 54.4988 31.4242 53.5392 30.2457 53.5392Z" fill="#0CB4C4"></path><path d="M29.1539 43.3352H31.3382V52.4467H29.1539V43.3352Z" fill="#0CB4C4"></path><path d="M29.0939 27.0471H30.4456C31.0732 27.0471 31.5558 27.516 31.5558 28.1251H33.2455C33.2455 26.6721 32.0868 25.5002 30.5904 25.4064V24H28.9007V25.4064C27.4524 25.5002 26.2456 26.6721 26.2456 28.1251C26.2456 29.6253 27.5006 30.8439 29.0454 30.8439H30.397C31.0247 30.8439 31.5072 31.3128 31.5072 31.922C31.5072 32.5315 31.0244 33 30.397 33H29.0454C28.4177 33 27.9352 32.5312 27.9352 31.922H26.2455C26.2455 33.375 27.4041 34.5469 28.9006 34.6408V36H30.5903V34.6408C32.0386 34.5469 33.2454 33.375 33.2454 31.922C33.2454 30.4218 31.9904 29.2032 30.4456 29.2032H29.0939C28.4663 29.2032 27.9837 28.7343 27.9837 28.1251C27.9837 27.516 28.4663 27.0471 29.0939 27.0471Z" fill="#0CB4C4"></path><path d="M30.2455 20C24.7283 20 20.2455 24.4828 20.2455 30C20.2455 35.5172 24.7283 40 30.2455 40C35.7626 40 40.2455 35.5172 40.2455 30C40.2455 24.4828 35.7626 20 30.2455 20ZM30.2455 38.0788C25.8122 38.0788 22.1667 34.4828 22.1667 30C22.1667 25.5172 25.8121 21.9212 30.2455 21.9212C34.6789 21.9212 38.3243 25.5666 38.3243 30C38.3243 34.4334 34.6789 38.0788 30.2455 38.0788Z" fill="#0CB4C4"></path></svg>