<svg width="50" height="60" viewBox="0 0 50 60" fill="none" xmlns="http://www.w3.org/2000/svg"><path d="M1.08308 60H29.4356C29.5492 60 29.6617 59.9777 29.7667 59.9342C29.8717 59.8908 29.9671 59.827 30.0474 59.7467C30.1278 59.6664 30.1915 59.571 30.2349 59.466C30.2784 59.361 30.3008 59.2485 30.3007 59.1349C30.3007 52.6863 26.6925 47.276 21.1394 45.1056C22.2408 44.208 23.098 43.0469 23.6315 41.7299C24.1651 40.413 24.3577 38.9827 24.1917 37.5715C24.0256 36.1604 23.5062 34.8139 22.6815 33.6568C21.8569 32.4996 20.7536 31.5693 19.4739 30.9518C18.1942 30.3343 16.7793 30.0496 15.3603 30.1242C13.9414 30.1987 12.5642 30.6301 11.3562 31.3783C10.1482 32.1265 9.14851 33.1673 8.44964 34.4045C7.75078 35.6417 7.37533 37.0352 7.35807 38.456C7.31579 39.6534 7.52915 40.846 7.98396 41.9544C8.43877 43.0629 9.12457 44.0617 9.99567 44.8843C7.07523 45.931 4.55877 47.8712 2.80359 50.4293C1.04841 52.9874 0.143718 56.0334 0.217977 59.1349C0.217947 59.2485 0.240303 59.361 0.283768 59.466C0.327233 59.571 0.390956 59.6664 0.471294 59.7467C0.551633 59.827 0.647013 59.8908 0.751986 59.9342C0.856959 59.9777 0.969468 60 1.08308 60ZM12.2323 46.073C12.4112 46.0378 12.5744 45.947 12.6987 45.8136C12.823 45.6802 12.9019 45.5109 12.9243 45.33C12.9467 45.149 12.9113 44.9656 12.8233 44.806C12.7353 44.6463 12.5992 44.5185 12.4342 44.4408C10.3078 43.4405 9.08829 41.2591 9.08829 38.4559C9.08829 36.7022 9.78498 35.0202 11.0251 33.7801C12.2652 32.5399 13.9472 31.8432 15.701 31.8432C17.4548 31.8432 19.1368 32.5399 20.3769 33.7801C21.617 35.0202 22.3137 36.7022 22.3137 38.4559C22.3137 41.3292 20.967 43.6094 18.7113 44.5556C18.5433 44.6262 18.4018 44.748 18.307 44.9038C18.2123 45.0595 18.1692 45.2411 18.1838 45.4228C18.1984 45.6045 18.27 45.777 18.3884 45.9156C18.5068 46.0541 18.666 46.1518 18.8431 46.1946C24.3945 47.5311 28.2077 52.3272 28.546 58.2698H1.97311C2.067 55.3806 3.12976 52.6069 4.99052 50.3947C6.85129 48.1825 9.40192 46.6604 12.2323 46.073Z" fill="#0CB4C4"></path><path d="M38.8103 25.5384H48.3548C48.4684 25.5384 48.5809 25.5161 48.6859 25.4726C48.7909 25.4291 48.8862 25.3654 48.9666 25.2851C49.0469 25.2047 49.1106 25.1094 49.1541 25.0044C49.1976 24.8994 49.2199 24.7869 49.2199 24.6733V0.865106C49.2199 0.751491 49.1976 0.638983 49.1541 0.53401C49.1106 0.429037 49.0469 0.333657 48.9666 0.253318C48.8862 0.17298 48.7909 0.109257 48.6859 0.0657921C48.5809 0.0223269 48.4684 -2.95224e-05 48.3548 2.92587e-08H12.3101C12.1965 -2.95224e-05 12.084 0.0223269 11.979 0.0657921C11.874 0.109257 11.7786 0.17298 11.6983 0.253318C11.618 0.333657 11.5542 0.429037 11.5108 0.53401C11.4673 0.638983 11.4449 0.751491 11.445 0.865106V24.6733C11.4449 24.7869 11.4673 24.8994 11.5108 25.0044C11.5542 25.1094 11.618 25.2047 11.6983 25.2851C11.7786 25.3654 11.874 25.4291 11.979 25.4726C12.084 25.5161 12.1965 25.5384 12.3101 25.5384H28.8531L28.8265 33.4316C28.826 33.603 28.8763 33.7706 28.9712 33.9132C29.0661 34.0559 29.2011 34.1672 29.3593 34.2329C29.5175 34.2987 29.6917 34.3161 29.8597 34.2828C30.0277 34.2495 30.1821 34.167 30.3032 34.0459L38.8103 25.5384ZM13.1752 23.8082V1.73021H47.4896V23.8082H38.4521C38.2227 23.8082 38.0027 23.8994 37.8405 24.0617L30.5639 31.3382L30.5863 24.6759C30.5867 24.562 30.5646 24.4492 30.5213 24.3439C30.478 24.2387 30.4144 24.143 30.334 24.0623C30.2536 23.9817 30.1581 23.9178 30.0529 23.8742C29.9478 23.8306 29.835 23.8081 29.7212 23.8082L13.1752 23.8082Z" fill="#0CB4C4"></path><path d="M18.6412 8.72802H41.6911C41.9206 8.72802 42.1406 8.63687 42.3028 8.47463C42.4651 8.31239 42.5562 8.09235 42.5562 7.86291C42.5562 7.63347 42.4651 7.41343 42.3028 7.25119C42.1406 7.08895 41.9206 6.9978 41.6911 6.9978H18.6412C18.4118 6.9978 18.1917 7.08895 18.0295 7.25119C17.8672 7.41343 17.7761 7.63347 17.7761 7.86291C17.7761 8.09235 17.8672 8.31239 18.0295 8.47463C18.1917 8.63687 18.4118 8.72802 18.6412 8.72802Z" fill="#0CB4C4"></path><path d="M18.6412 13.709H41.6911C41.9206 13.709 42.1406 13.6178 42.3028 13.4556C42.4651 13.2934 42.5562 13.0733 42.5562 12.8439C42.5562 12.6144 42.4651 12.3944 42.3028 12.2321C42.1406 12.0699 41.9206 11.9788 41.6911 11.9788H18.6412C18.4118 11.9788 18.1917 12.0699 18.0295 12.2321C17.8672 12.3944 17.7761 12.6144 17.7761 12.8439C17.7761 13.0733 17.8672 13.2934 18.0295 13.4556C18.1917 13.6178 18.4118 13.709 18.6412 13.709Z" fill="#0CB4C4"></path><path d="M36.9795 17.5861C36.9796 17.4724 36.9572 17.3599 36.9137 17.255C36.8703 17.15 36.8065 17.0546 36.7262 16.9743C36.6459 16.8939 36.5505 16.8302 36.4455 16.7867C36.3405 16.7433 36.228 16.7209 36.1144 16.7209H18.6412C18.4118 16.7209 18.1917 16.8121 18.0295 16.9743C17.8672 17.1366 17.7761 17.3566 17.7761 17.5861C17.7761 17.8155 17.8672 18.0355 18.0295 18.1978C18.1917 18.36 18.4118 18.4512 18.6412 18.4512H36.1144C36.228 18.4512 36.3405 18.4288 36.4455 18.3854C36.5505 18.3419 36.6459 18.2782 36.7262 18.1978C36.8065 18.1175 36.8703 18.0221 36.9137 17.9172C36.9572 17.8122 36.9796 17.6997 36.9795 17.5861Z" fill="#0CB4C4"></path></svg>