<svg width="73" height="60" viewBox="0 0 73 60" fill="none" xmlns="http://www.w3.org/2000/svg"><path d="M36.3324 16.115C40.7762 16.115 44.3913 12.5026 44.3913 8.05897C44.3913 3.61515 40.776 0 36.3324 0C31.8914 0 28.2764 3.6153 28.2764 8.05897C28.2764 12.4999 31.8917 16.115 36.3324 16.115ZM36.3324 1.98675C39.6811 1.98675 42.4042 4.70983 42.4042 8.0586C42.4042 11.4045 39.6811 14.1276 36.3324 14.1276C32.9865 14.1276 30.2634 11.4045 30.2634 8.0586C30.2634 4.70983 32.9865 1.98675 36.3324 1.98675ZM37.326 43.7047V59.0062C37.326 59.5537 36.8798 59.9998 36.3324 59.9998C35.7849 59.9998 35.3388 59.5536 35.3388 59.0062V43.7047C35.3388 43.1572 35.7849 42.7111 36.3324 42.7111C36.8798 42.7111 37.326 43.1544 37.326 43.7047ZM49.5134 42.714V25.8018C49.5134 22.2734 47.4103 19.0782 44.1542 17.6561C42.109 16.7697 39.9392 16.8334 37.8419 16.8971C37.3176 16.9116 36.8222 16.9261 36.3297 16.9261H32.0278C27.1321 16.9261 23.1516 20.9064 23.1516 25.8023V42.7145C23.1516 44.5743 24.6638 46.0865 26.5236 46.0865C27.0161 46.0865 27.4854 45.9793 27.9083 45.7881V59.0064C27.9083 59.5539 28.3544 60 28.9019 60C29.4494 60 29.8955 59.5539 29.8955 59.0064L29.8984 42.7142V37.9807H42.7666V59.0036C42.7666 59.5511 43.2128 59.9972 43.7602 59.9972C44.3077 59.9972 44.7538 59.5511 44.7538 59.0036V45.7883C45.1768 45.9795 45.646 46.0866 46.1414 46.0866C48.0012 46.0866 49.5134 44.5738 49.5134 42.714ZM36.333 18.9131C36.8544 18.9131 37.3874 18.8986 37.9031 18.8812C38.1116 18.8754 38.3231 18.8696 38.5346 18.8639L36.3329 22.6761L34.1603 18.9131L36.333 18.9131ZM44.7538 42.714V31.1673C44.7538 30.6198 44.3077 30.1737 43.7602 30.1737C43.2127 30.1737 42.7666 30.6198 42.7666 31.1673V35.9964H29.8984V31.1673C29.8984 30.6198 29.4523 30.1737 28.9048 30.1737C28.3573 30.1737 27.9112 30.6198 27.9112 31.1673V42.717C27.9112 43.4788 27.2913 44.1017 26.5265 44.1017C25.7646 44.1017 25.1418 43.4818 25.1418 42.717V25.8018C25.1418 22.059 28.1429 19.0057 31.8654 18.9189L35.472 25.1617C35.6487 25.4687 35.979 25.6599 36.3324 25.6599C36.6887 25.6599 37.0161 25.4716 37.1928 25.1617L40.8081 18.9015C41.7033 18.974 42.5694 19.1362 43.3632 19.478C45.8922 20.5817 47.526 23.0643 47.526 25.8019V42.7141C47.526 43.4759 46.9061 44.0988 46.1413 44.0988C45.3765 44.0988 44.7538 43.4788 44.7538 42.714ZM26.0692 48.9886C21.8629 46.3728 18.8444 42.2998 17.5638 37.5198C15.2318 28.8149 19.3251 19.4603 27.2973 15.2836C27.784 15.0287 27.9723 14.4291 27.7173 13.9424C27.4624 13.4557 26.8628 13.2674 26.3761 13.5223C24.7538 14.3711 23.2533 15.4314 21.9091 16.6626L17.7492 12.4997C18.8761 10.7269 18.6704 8.3427 17.1235 6.79579C16.2573 5.92961 15.1043 5.45164 13.8819 5.45164H13.879C12.6565 5.45164 11.5064 5.92963 10.6431 6.79579C9.77696 7.65909 9.299 8.80909 9.299 10.0345C9.299 11.2599 9.77698 12.4128 10.6431 13.2819C11.5354 14.1741 12.7087 14.6203 13.8819 14.6203C14.7393 14.6203 15.5939 14.3827 16.3442 13.9047L20.507 18.0705C18.9746 19.7564 17.7058 21.6858 16.7671 23.786C15.6779 26.2281 15.0695 28.8497 14.945 31.4971H9.05857C8.60376 29.4462 6.77007 27.9079 4.58287 27.9079C2.05683 27.9079 0 29.9647 0 32.4908C0 35.0198 2.05675 37.0766 4.58287 37.0766C6.76999 37.0766 8.60375 35.5354 9.05857 33.4844H14.945C15.0145 35.0139 15.2492 36.5406 15.649 38.0354C16.5441 41.3813 18.2156 44.4143 20.5041 46.9197L16.3471 51.0797C15.6171 50.6133 14.7683 50.3613 13.8848 50.3613H13.8819C12.6594 50.3613 11.5093 50.8392 10.6461 51.7054C9.77986 52.5687 9.3019 53.7187 9.3019 54.9441C9.3019 56.1695 9.77988 57.3224 10.6461 58.1915C11.5383 59.0837 12.7116 59.5299 13.8848 59.5299C15.058 59.5299 16.2342 59.0838 17.1293 58.1915C18.6733 56.6446 18.879 54.2604 17.7521 52.4905L21.912 48.3276C22.868 49.1967 23.908 49.9876 25.0262 50.6828C25.1884 50.7842 25.3709 50.8334 25.5505 50.8334C25.8836 50.8334 26.2081 50.6683 26.3964 50.3642C26.6774 49.892 26.5356 49.2784 26.0692 48.9886ZM15.7157 11.8738C14.7018 12.8848 13.0535 12.8848 12.0425 11.8738C11.55 11.3813 11.2807 10.7295 11.2807 10.0342C11.2807 9.34187 11.5501 8.69007 12.0425 8.20047C12.5321 7.71089 13.181 7.44151 13.8734 7.43862H13.8763C14.5686 7.43862 15.2233 7.70803 15.7129 8.20047C16.7268 9.21149 16.7267 10.8598 15.7157 11.8738ZM4.57689 35.0896C3.14583 35.0896 1.98129 33.925 1.98129 32.4911C1.98129 31.06 3.14583 29.8955 4.57689 29.8955C6.01085 29.8955 7.17539 31.06 7.17539 32.4911C7.17539 33.9221 6.01085 35.0896 4.57689 35.0896ZM15.718 56.7814C14.704 57.7924 13.0558 57.7924 12.0447 56.7814C11.5523 56.2889 11.2829 55.6371 11.2829 54.9418C11.2829 54.2495 11.5523 53.5977 12.0447 53.1081C12.5343 52.6185 13.1832 52.3491 13.8756 52.3462H13.8785C14.5708 52.3462 15.2255 52.6156 15.7151 53.1081C16.7262 54.122 16.7261 55.7703 15.718 56.7814ZM68.0875 27.9079C65.9033 27.9079 64.0695 29.4461 63.6148 31.4971H57.7341C57.6617 29.9762 57.4242 28.4525 57.0186 26.9461C56.1264 23.6176 54.4404 20.5788 52.1576 18.0729L56.3262 13.9043C57.0736 14.3793 57.9282 14.6169 58.7857 14.6169C59.9589 14.6169 61.1351 14.1708 62.0302 13.2785C63.8146 11.4882 63.8146 8.57982 62.0302 6.79531C61.164 5.92912 60.011 5.45116 58.7886 5.45116H58.7857C57.5632 5.45116 56.4131 5.92915 55.5499 6.79531C54.6837 7.65861 54.2057 8.80861 54.2057 10.034C54.2057 10.9205 54.4577 11.7692 54.9241 12.4993L50.7584 16.665C49.4172 15.4425 47.9195 14.3823 46.2886 13.5276C45.8019 13.2727 45.2023 13.4581 44.9473 13.9448C44.6923 14.4315 44.8778 15.0311 45.3645 15.286C50.153 17.8005 53.7015 22.2385 55.1039 27.4587C57.3026 35.66 53.8061 44.5155 46.6014 48.991C46.135 49.2807 45.9931 49.8949 46.2828 50.3613C46.4711 50.6655 46.7955 50.8306 47.1287 50.8306C47.3083 50.8306 47.4879 50.7813 47.653 50.6799C48.7596 49.9934 49.7967 49.1967 50.7584 48.3161L54.9242 52.4818C54.4578 53.2089 54.2057 54.0548 54.2057 54.9384C54.2057 56.1637 54.6837 57.3167 55.5499 58.1858C56.4421 59.078 57.6154 59.5241 58.7886 59.5241C59.9618 59.5241 61.1351 59.078 62.0302 58.1858L62.0331 58.1829C63.8175 56.3926 63.8175 53.4842 62.0331 51.6996C61.1669 50.8335 60.014 50.3555 58.7915 50.3555H58.7886C57.9022 50.3555 57.0563 50.6075 56.3292 51.0739L52.1634 46.9082C53.8697 45.0311 55.2486 42.8525 56.2017 40.4917C57.1171 38.2263 57.6298 35.8624 57.7399 33.4783H63.6177C64.0725 35.5322 65.9062 37.0705 68.0904 37.0705C70.6165 37.0705 72.6733 35.0137 72.6733 32.4847C72.6704 29.9616 70.6136 27.9079 68.0875 27.9079ZM56.9546 8.20061C57.4442 7.71104 58.0931 7.43877 58.7855 7.43877H58.7884C59.4807 7.43877 60.1354 7.70818 60.625 8.20061C61.6361 9.21164 61.6361 10.8599 60.625 11.8709C59.6111 12.882 57.9628 12.882 56.9518 11.8709C56.4593 11.3785 56.19 10.7267 56.19 10.0314C56.19 9.34195 56.4622 8.69022 56.9546 8.20061ZM56.9546 53.1082C57.4442 52.6186 58.0931 52.3464 58.7855 52.3464H58.7884C59.4807 52.3464 60.1354 52.6158 60.625 53.1082C61.6361 54.1192 61.6361 55.7675 60.625 56.7814C59.6111 57.7925 57.9628 57.7925 56.9518 56.7814C56.4593 56.289 56.19 55.6371 56.19 54.9419C56.19 54.2524 56.4622 53.6007 56.9546 53.1082ZM68.0875 35.0896C66.6565 35.0896 65.4919 33.925 65.4919 32.4911C65.4919 31.06 66.6565 29.8955 68.0875 29.8955C69.5186 29.8955 70.6831 31.06 70.6831 32.4911C70.6831 33.9221 69.5186 35.0896 68.0875 35.0896Z" fill="#0CB4C4"></path></svg>