<svg version="1.1" id="Layer_1" xmlns="http://www.w3.org/2000/svg" xmlns:xlink="http://www.w3.org/1999/xlink" x="0px" y="0px" width="40px" height="40px" viewBox="0 0 60 60" enable-background="new 0 0 60 60" xml:space="preserve"><g><path fill="#0EB3C3" d="M10.216,6h4.749c1.654,0,3-1.347,3-3c0-1.653-1.346-3-3-3H2.988c-1.653,0-3,1.347-3,3v12 c0,1.653,1.347,3,3,3c1.654,0,2.988-1.347,2.988-3v-4.76l9.862,9.875c1.169,1.169,3.059,1.169,4.24,0 c1.169-1.169,1.169-3.071,0-4.24L10.216,6z"></path><path fill="#0EB3C3" d="M56.988,0H45.013c-1.654,0-3,1.347-3,3c0,1.654,1.346,3,3,3h4.746l-9.85,9.874 c-1.169,1.169-1.169,3.071,0,4.24c1.169,1.169,3.059,1.169,4.239,0l9.862-9.875V15c0,1.653,1.349,3,3.002,3s3-1.347,3-3V3 C59.987,1.347,58.642,0,56.988,0z"></path><path fill="#0EB3C3" d="M15.838,39.874l-9.862,9.874V45c0-1.653-1.346-2.999-3-2.999c-1.653,0-2.988,1.346-2.988,2.999v12.001 c0,1.653,1.347,2.999,3,2.999h11.977c1.654,0,3-1.346,3-2.999c0-1.654-1.346-3.001-3-3.001h-4.749l9.862-9.873 c1.169-1.171,1.169-3.071,0-4.241C18.897,38.704,17.008,38.704,15.838,39.874z"></path><path fill="#0EB3C3" d="M56.988,42.001c-1.653,0-3,1.346-3,2.999v4.76l-9.862-9.874c-1.168-1.169-3.059-1.169-4.239,0 c-1.171,1.17-1.171,3.07,0,4.241L49.749,54H45c-1.653,0-3,1.347-3,3.001C42,58.654,43.347,60,45,60h11.976c1.653,0,3-1.346,3-2.999 V45C59.987,43.347,58.642,42.001,56.988,42.001z"></path></g></svg>