<svg version="1.1" id="Layer_1" xmlns="http://www.w3.org/2000/svg" xmlns:xlink="http://www.w3.org/1999/xlink" x="0px" y="0px" width="60px" height="60px" viewBox="0 0 60 60" enable-background="new 0 0 60 60" xml:space="preserve"><g><path fill="#0072BC" d="M37.899,0.412c-0.082-0.01-0.164-0.002-0.246,0.021l-3.128,0.844c-0.339,0.082-0.546,0.443-0.453,0.782 l0.557,2.017c-1.227,0.514-2.383,1.189-3.457,1.996L29.69,4.589c-0.116-0.128-0.297-0.185-0.473-0.185 c-0.164,0-0.315,0.068-0.432,0.185l-2.284,2.284c-0.116,0.117-0.185,0.268-0.185,0.432c0,0.175,0.069,0.336,0.185,0.453 l1.481,1.501c-0.818,1.075-1.481,2.23-1.996,3.457l-2.036-0.535c-0.164-0.047-0.342-0.041-0.495,0.041 c-0.151,0.082-0.241,0.228-0.288,0.391l-0.843,3.127c-0.046,0.164-0.02,0.321,0.062,0.473c0.082,0.152,0.227,0.262,0.391,0.309 l2.036,0.555c-0.164,1.32-0.164,2.66,0,3.992l-2.036,0.535c-0.164,0.047-0.31,0.157-0.391,0.309 c-0.094,0.151-0.108,0.309-0.062,0.473l0.843,3.147c0.094,0.339,0.443,0.546,0.783,0.453l2.036-0.535 c0.105,0.233,0.315,0.569,0.432,0.802l0.618-0.473c-0.164-0.339-0.304-0.651-0.432-0.967l-0.145-0.329l-2.551,0.658l-0.741-2.777 l2.552-0.679l-0.042-0.371c-0.21-1.495-0.21-3.001,0-4.485l0.042-0.35l-2.552-0.699l0.741-2.778l2.551,0.679l0.145-0.349 c0.548-1.391,1.308-2.688,2.242-3.869l0.206-0.288l-1.852-1.873l2.016-2.016L31.09,7.14l0.288-0.206 c1.18-0.935,2.477-1.694,3.867-2.243l0.351-0.144l-0.7-2.572l2.799-0.74l0.679,2.551l0.37-0.042c1.484-0.222,2.99-0.222,4.485,0 l0.35,0.042l0.68-2.551l2.777,0.74l-0.68,2.572l0.329,0.124c1.392,0.561,2.71,1.308,3.889,2.243l0.289,0.226l1.851-1.872 l2.037,2.037l-1.872,1.873l0.227,0.268c0.935,1.168,1.682,2.486,2.242,3.889l0.144,0.329l2.553-0.679l0.739,2.777l-2.551,0.679 l0.042,0.371c0.222,1.495,0.222,3.001,0,4.485l-0.042,0.37l2.551,0.679l-0.739,2.777l-2.572-0.679l-0.124,0.33 c-0.561,1.39-1.308,2.708-2.242,3.888l-0.227,0.268l1.872,1.872l-2.037,2.037l-1.871-1.872l-0.288,0.227 c-1.169,0.935-2.467,1.682-3.869,2.241l-0.35,0.123l0.68,2.573l-2.777,0.74l-0.68-2.552l-0.37,0.043 c-1.495,0.222-3.002,0.222-4.485,0l-0.371-0.043l-0.678,2.552l-2.777-0.74l0.678-2.573l-0.328-0.123 c-0.34-0.127-0.663-0.279-0.968-0.432l-0.597,0.618c0.223,0.104,0.672,0.338,0.906,0.432l-0.535,2.017 c-0.036,0.163-0.021,0.342,0.061,0.494c0.082,0.15,0.228,0.262,0.392,0.308l3.127,0.845c0.048,0.012,0.086,0.02,0.145,0.02 c0.117,0,0.224-0.035,0.329-0.082c0.152-0.082,0.262-0.227,0.309-0.391l0.556-2.017c1.332,0.163,2.659,0.163,3.992,0l0.555,2.017 c0.047,0.164,0.157,0.309,0.309,0.391c0.141,0.082,0.31,0.108,0.473,0.063l3.107-0.845c0.351-0.093,0.566-0.443,0.473-0.782 l-0.555-2.036c1.227-0.514,2.413-1.189,3.478-1.996l1.48,1.482c0.257,0.244,0.659,0.244,0.905,0l2.284-2.284 c0.116-0.117,0.185-0.277,0.185-0.453c0-0.175-0.068-0.336-0.185-0.453l-1.481-1.481c0.806-1.063,1.47-2.218,1.995-3.457 l2.017,0.556c0.163,0.035,0.342,0,0.494-0.083c0.152-0.082,0.262-0.207,0.308-0.37l0.823-3.127 c0.048-0.164,0.021-0.322-0.062-0.473c-0.082-0.152-0.228-0.262-0.391-0.309l-2.037-0.556c0.164-1.332,0.164-2.659,0-3.991 l2.037-0.556c0.163-0.047,0.309-0.136,0.391-0.288c0.082-0.14,0.109-0.33,0.062-0.494l-0.823-3.127 c-0.046-0.164-0.155-0.297-0.308-0.391c-0.152-0.093-0.331-0.108-0.494-0.062l-2.037,0.556c-0.514-1.227-1.189-2.414-1.996-3.477 l1.481-1.481c0.118-0.117,0.187-0.277,0.187-0.453s-0.068-0.335-0.187-0.453l-2.304-2.284c-0.117-0.117-0.257-0.186-0.432-0.186 h-0.021c-0.164,0-0.315,0.068-0.433,0.186l-1.502,1.481c-1.063-0.806-2.219-1.47-3.457-1.996l0.597-1.995 c0.048-0.164,0.021-0.342-0.062-0.494s-0.228-0.241-0.391-0.288l-3.127-0.844c-0.339-0.082-0.689,0.114-0.782,0.453l-0.535,2.037 c-1.332-0.164-2.672-0.164-3.991,0l-0.556-2.037c-0.046-0.164-0.156-0.289-0.309-0.371C38.056,0.454,37.981,0.423,37.899,0.412z M40.945,6.441c-3.228,0-6.449,1.223-8.909,3.683c-1.706,1.717-2.901,3.874-3.415,6.234c-0.503,2.291-0.351,4.664,0.432,6.872 l0.535-0.494c-1.507-4.252-0.165-8.826,3.024-12.015c4.604-4.592,12.075-4.592,16.666,0c4.592,4.592,4.592,12.074,0,16.665 c-3.189,3.178-7.64,4.508-11.893,3.025l-0.616,0.535c1.343,0.467,2.741,0.7,4.155,0.7c0.9,0,1.825-0.091,2.737-0.289 c2.349-0.514,4.487-1.689,6.192-3.395c4.919-4.919,4.919-12.919,0-17.838C47.395,7.664,44.173,6.441,40.945,6.441z M46.253,13.066 L30.74,17.078c-0.175,0.047-0.344,0.183-0.392,0.37c-0.023,0.117-0.014,0.224,0.021,0.329v0.083l3.292,3.271L13.334,41.459 c-0.305,0.304-0.305,0.786,0,1.09l4.114,4.115c0.141,0.141,0.325,0.227,0.535,0.227c0.198,0,0.404-0.074,0.556-0.227l20.328-20.328 l3.168,3.168c0.104,0.093,0.23,0.144,0.37,0.144c0.234,0,0.444-0.157,0.515-0.391l4.012-15.534 c0.047-0.152,0.012-0.324-0.082-0.453c-0.116-0.152-0.315-0.229-0.515-0.206h-0.062H46.253z M46.007,13.992l-3.766,14.587 l-3.396-3.395L17.983,46.047l-4.053-4.054l20.862-20.862l-3.374-3.395L46.007,13.992z M15.988,22.242 c-0.082-0.012-0.163-0.003-0.248,0.02l-3.127,0.844c-0.163,0.047-0.308,0.136-0.39,0.288c-0.082,0.14-0.109,0.33-0.062,0.494 l0.535,2.016c-1.227,0.525-2.382,1.21-3.457,2.016l-1.481-1.481c-0.246-0.245-0.66-0.245-0.905,0l-2.284,2.284 c-0.246,0.245-0.246,0.66,0,0.905l1.481,1.481c-0.818,1.075-1.481,2.229-1.996,3.457l-2.037-0.535 c-0.164-0.035-0.342-0.021-0.494,0.062c-0.151,0.081-0.261,0.228-0.309,0.392L0.393,37.61c-0.082,0.34,0.113,0.688,0.453,0.783 l2.037,0.555c-0.163,1.32-0.163,2.66,0,3.992l-2.037,0.534c-0.164,0.048-0.309,0.157-0.391,0.309 c-0.082,0.14-0.108,0.31-0.062,0.474l0.843,3.127c0.093,0.339,0.443,0.546,0.782,0.453l2.037-0.535 c0.515,1.227,1.19,2.393,1.996,3.456L4.569,52.24c-0.246,0.244-0.246,0.659,0,0.904l2.284,2.283c0.245,0.246,0.659,0.246,0.905,0 l1.481-1.48c1.063,0.806,2.219,1.47,3.457,1.995l-0.535,2.017c-0.094,0.339,0.113,0.688,0.452,0.782l3.127,0.823 c0.164,0.046,0.322,0.04,0.473-0.042c0.152-0.081,0.262-0.228,0.31-0.39l0.535-2.038c1.332,0.164,2.659,0.164,3.991,0l0.556,2.038 c0.046,0.162,0.156,0.309,0.309,0.39c0.093,0.06,0.203,0.082,0.308,0.082c0.059,0,0.116-0.017,0.185-0.04l3.107-0.823 c0.339-0.094,0.567-0.465,0.473-0.803l-0.555-2.017c1.227-0.513,2.393-1.189,3.456-1.995l1.502,1.482 c0.245,0.244,0.639,0.244,0.885,0l2.304-2.306c0.128-0.116,0.186-0.277,0.186-0.453c0-0.163-0.068-0.314-0.186-0.432l-1.481-1.481 c0.806-1.063,1.47-2.238,1.995-3.477l1.996,0.556c0.164,0.046,0.322,0.02,0.474-0.062c0.151-0.083,0.262-0.228,0.309-0.392 l0.844-3.127c0.094-0.339-0.114-0.689-0.453-0.781l-2.036-0.557c0.175-1.425,0.157-2.854-0.042-4.28l-0.699,0.453 c0.21,1.473,0.087,2.614-0.123,4.075l-0.042,0.37l2.552,0.678l-0.741,2.778l-2.551-0.679l-0.145,0.349 c-0.561,1.392-1.308,2.688-2.242,3.868l-0.206,0.288l1.851,1.873l-2.016,2.037l-1.873-1.873l-0.288,0.227 c-1.168,0.936-2.465,1.682-3.868,2.242l-0.35,0.123l0.699,2.552l-2.798,0.762l-0.679-2.572l-0.37,0.042 c-1.496,0.222-3.002,0.222-4.485,0l-0.35-0.042l-0.7,2.572l-2.777-0.762l0.7-2.552l-0.35-0.144 c-1.391-0.561-2.689-1.308-3.869-2.242l-0.288-0.226l-1.873,1.871L5.269,52.65l1.872-1.871l-0.226-0.269 c-0.935-1.168-1.682-2.486-2.243-3.888l-0.124-0.329l-2.552,0.679l-0.761-2.778l2.572-0.678l-0.062-0.37 c-0.21-1.496-0.21-3.002,0-4.485l0.062-0.371l-2.572-0.68l0.761-2.777l2.552,0.68l0.124-0.329c0.549-1.392,1.308-2.709,2.243-3.89 l0.226-0.267l-1.872-1.873l2.036-2.037l1.873,1.873l0.288-0.227c1.18-0.935,2.478-1.694,3.869-2.243l0.35-0.124l-0.679-2.572 l2.777-0.74l0.679,2.551l0.37-0.042c1.46-0.21,2.942-0.231,4.403-0.02l-0.227-0.802c-1.414-0.199-2.504-0.196-3.93-0.021 l-0.555-2.037C16.453,22.461,16.234,22.278,15.988,22.242z M18.951,28.291c-0.869,0.008-1.733,0.1-2.592,0.288 c-2.349,0.514-4.487,1.709-6.193,3.415c-2.383,2.384-3.704,5.544-3.704,8.908c0,3.365,1.32,6.525,3.704,8.909 c2.454,2.465,5.684,3.703,8.909,3.703s6.443-1.234,8.909-3.724c1.706-1.706,2.88-3.844,3.395-6.192 c0.502-2.29,0.38-4.664-0.391-6.873l-0.555,0.618c1.483,4.253,0.153,8.693-3.025,11.871c-4.591,4.604-12.074,4.592-16.665,0 c-2.232-2.22-3.457-5.189-3.457-8.332c0-3.144,1.225-6.08,3.457-8.313c3.225-3.225,7.436-4.643,11.748-3.148l0.74-0.432 C21.85,28.508,20.398,28.277,18.951,28.291z"></path><path fill="#0072BC" d="M22.222,60c-0.191,0-0.37-0.05-0.519-0.143c-0.219-0.117-0.401-0.346-0.478-0.617l-0.468-1.715 c-1.135,0.117-2.271,0.116-3.404,0.001l-0.448,1.706c-0.081,0.28-0.263,0.508-0.504,0.639c-0.23,0.123-0.492,0.149-0.767,0.073 l-3.121-0.821c-0.557-0.153-0.883-0.723-0.732-1.27l0.447-1.685c-1.048-0.469-2.038-1.041-2.95-1.702l-1.24,1.24 c-0.387,0.386-1.079,0.387-1.464-0.001L4.29,53.425c-0.193-0.194-0.3-0.454-0.3-0.733s0.107-0.538,0.301-0.73l1.24-1.242 c-0.672-0.926-1.244-1.915-1.704-2.948l-1.709,0.448c-0.505,0.141-1.114-0.19-1.263-0.729l-0.843-3.13 c-0.073-0.256-0.036-0.54,0.102-0.775c0.124-0.229,0.352-0.411,0.623-0.489l1.715-0.449c-0.115-1.136-0.115-2.277,0-3.405 l-1.71-0.467c-0.545-0.151-0.866-0.703-0.732-1.256l0.825-3.134c0.081-0.28,0.263-0.511,0.504-0.639 c0.222-0.12,0.499-0.156,0.762-0.101l1.727,0.453c0.462-1.042,1.034-2.031,1.703-2.95l-1.24-1.24c-0.193-0.193-0.3-0.453-0.3-0.732 c0-0.278,0.107-0.539,0.301-0.732l2.283-2.283c0.385-0.387,1.078-0.386,1.463,0l1.242,1.242c0.948-0.684,1.937-1.262,2.949-1.722 l-0.448-1.69c-0.074-0.256-0.037-0.557,0.102-0.794c0.119-0.22,0.336-0.387,0.623-0.469l3.133-0.846 c0.096-0.026,0.188-0.039,0.277-0.039l0.131,0.01c0.409,0.06,0.747,0.357,0.857,0.759l0.466,1.711 c1.353-0.147,2.357-0.128,3.693,0.061l0.255,0.036l0.46,1.635l-0.6-0.087c-1.372-0.197-2.825-0.19-4.292,0.02l-0.72,0.081 l-0.665-2.499l-2.016,0.538l0.673,2.543l-0.694,0.245c-1.323,0.522-2.59,1.257-3.755,2.179l-0.564,0.444l-1.841-1.841l-1.479,1.479 l1.851,1.85L7.216,31.55c-0.904,1.141-1.639,2.416-2.177,3.778l-0.247,0.657l-2.519-0.67l-0.553,2.016L4.256,38l-0.121,0.726 c-0.203,1.436-0.203,2.907,0.002,4.365l0.119,0.716l-2.535,0.669l0.553,2.015l2.519-0.67l0.249,0.664 c0.559,1.397,1.293,2.672,2.181,3.78l0.454,0.536l-1.851,1.85l1.479,1.479l1.841-1.84l0.563,0.44 c1.136,0.9,2.405,1.636,3.773,2.188l0.675,0.277l-0.688,2.508l2.015,0.553l0.685-2.519l0.688,0.081 c1.461,0.218,2.93,0.216,4.381,0.002l0.723-0.081l0.664,2.517l2.033-0.554l-0.692-2.523l0.697-0.246 c1.363-0.547,2.631-1.281,3.751-2.178l0.566-0.446l1.841,1.841l1.462-1.478l-1.811-1.831l0.398-0.56 c0.912-1.15,1.647-2.419,2.198-3.786l0.278-0.672l2.504,0.666l0.538-2.014l-2.499-0.665l0.079-0.709 c0.204-1.419,0.331-2.527,0.125-3.974l-0.035-0.25l1.431-0.927l0.086,0.613c0.188,1.355,0.215,2.713,0.08,4.042l1.711,0.468 c0.269,0.073,0.493,0.247,0.631,0.489c0.136,0.239,0.171,0.516,0.099,0.777l-0.844,3.126c-0.079,0.274-0.261,0.504-0.501,0.635 c-0.253,0.134-0.517,0.166-0.77,0.095l-1.664-0.464c-0.478,1.07-1.049,2.065-1.7,2.967l1.241,1.24 c0.194,0.196,0.301,0.448,0.301,0.711c0,0.296-0.111,0.561-0.313,0.745l-2.291,2.293c-0.391,0.386-1.058,0.384-1.444,0l-1.26-1.243 c-0.927,0.673-1.916,1.245-2.948,1.703l0.464,1.685c0.072,0.264,0.031,0.556-0.116,0.802c-0.143,0.237-0.373,0.416-0.633,0.487 l-3.111,0.824C22.439,59.969,22.339,60,22.222,60z M22.157,59.201c0.019,0.006,0.039,0.009,0.058,0.009l3.198-0.851 c0.043-0.012,0.086-0.038,0.122-0.077L22.157,59.201z M12.595,58.282c0.032,0.037,0.074,0.064,0.123,0.078l3.123,0.822l0.033-0.001 L12.595,58.282z M16.753,56.601l-0.695,2.553c0.04-0.031,0.07-0.078,0.086-0.131l0.62-2.361l0.342,0.042 c1.292,0.16,2.6,0.16,3.894,0l0.339-0.042l0.646,2.367c0.009,0.035,0.028,0.068,0.052,0.097l-0.666-2.526l-0.031,0.004 C19.841,56.826,18.267,56.828,16.753,56.601z M24.922,55.678l0.682,2.485c0.012-0.041,0.014-0.083,0.003-0.119l-0.648-2.352 l0.321-0.135c1.188-0.497,2.322-1.152,3.37-1.945l0.271-0.207l1.747,1.722c0.017,0.019,0.037,0.033,0.058,0.044l-1.807-1.809 l-0.012,0.011c-1.18,0.943-2.515,1.718-3.966,2.298L24.922,55.678z M9.204,53.426l0.274,0.208c1.025,0.776,2.161,1.431,3.373,1.945 l0.315,0.134l-0.623,2.347c-0.007,0.022-0.009,0.046-0.009,0.067l0.677-2.467l-0.027-0.011c-1.436-0.579-2.77-1.353-3.963-2.298 l-0.012-0.009l-1.875,1.873c0.042-0.005,0.098-0.021,0.144-0.067L9.204,53.426z M4.781,52.721c0.005,0.042,0.02,0.098,0.067,0.145 l2.284,2.283c0.046,0.047,0.101,0.063,0.142,0.067L4.781,52.721z M33.366,52.698l-2.46,2.487c0.034-0.011,0.065-0.03,0.091-0.057 l2.303-2.305C33.323,52.803,33.355,52.772,33.366,52.698z M31.501,50.758l1.868,1.89c-0.001-0.066-0.038-0.118-0.07-0.151 l-1.723-1.723l0.208-0.274c0.763-1.008,1.418-2.149,1.945-3.393l0.135-0.319l2.331,0.648c0.054,0.005,0.09,0.002,0.122-0.005 l-2.506-0.667l-0.013,0.03c-0.577,1.434-1.351,2.768-2.297,3.962L31.501,50.758z M4.286,46.832l0.133,0.317 c0.499,1.191,1.154,2.325,1.946,3.37l0.206,0.271l0.035-0.034c-0.938-1.175-1.709-2.513-2.299-3.986l-0.001-0.003l-2.546,0.678 c0.029,0.013,0.061,0.021,0.094,0.021L4.286,46.832z M0.778,44.02c-0.017,0.045-0.018,0.089-0.006,0.13l0.844,3.131 c0.016,0.056,0.049,0.102,0.093,0.135L0.778,44.02z M37.331,44.002l-0.896,3.355c0.025-0.028,0.046-0.064,0.056-0.103l0.843-3.122 C37.348,44.082,37.342,44.037,37.331,44.002z M34.749,43.223l2.509,0.667c-0.029-0.025-0.063-0.044-0.101-0.055l-2.365-0.646 l0.041-0.339c0.043-0.351,0.075-0.704,0.095-1.06c-0.044,0.461-0.106,0.924-0.177,1.411L34.749,43.223z M0.807,37.905 c0.033,0.051,0.083,0.09,0.145,0.107l2.364,0.645l-0.042,0.339c-0.159,1.287-0.159,2.598,0,3.896l0.042,0.343l-2.37,0.622 c-0.014,0.005-0.03,0.011-0.044,0.019l2.458-0.648l-0.003-0.016C3.14,41.67,3.14,40.124,3.355,38.606L3.36,38.58L0.807,37.905z M1.692,34.452c-0.044,0.031-0.081,0.083-0.097,0.141l-0.821,3.118c-0.008,0.034-0.009,0.068-0.003,0.101L1.692,34.452z M4.286,35.034l0.02,0.005c0.568-1.439,1.341-2.779,2.3-3.989l-1.82-1.821c0.008,0.038,0.025,0.082,0.063,0.12l1.726,1.726 l-0.209,0.274c-0.787,1.033-1.442,2.167-1.946,3.37L4.286,35.034z M7.187,26.678c-0.018,0.009-0.037,0.022-0.054,0.04l-2.284,2.284 c-0.019,0.018-0.032,0.037-0.042,0.056L7.187,26.678z M7.423,26.677l1.787,1.787l0.013-0.01c1.223-0.969,2.559-1.743,3.967-2.299 l0.021-0.007l-0.664-2.51c-0.016,0.049-0.017,0.101-0.005,0.142l0.625,2.354l-0.314,0.135c-1.162,0.498-2.298,1.16-3.375,1.969 l-0.274,0.206l-1.724-1.723C7.461,26.7,7.442,26.687,7.423,26.677z M16.095,22.729l0.66,2.478l0.032-0.003 c1.064-0.153,2.141-0.205,3.182-0.148c-0.93-0.072-1.748-0.045-2.842,0.089l-0.339,0.042l-0.645-2.367 C16.133,22.787,16.118,22.756,16.095,22.729z M15.932,22.633l-3.215,0.854c-0.019,0.005-0.041,0.013-0.063,0.024l3.288-0.877 C15.938,22.634,15.936,22.633,15.932,22.633z M19.074,53.91c-3.473,0-6.736-1.357-9.188-3.82c-2.462-2.462-3.819-5.726-3.819-9.188 c0-3.46,1.357-6.724,3.819-9.188c1.779-1.779,3.988-2.997,6.387-3.521c0.86-0.189,1.76-0.289,2.673-0.297l0.127,0 c1.473,0,2.914,0.243,4.286,0.723l0.808,0.282l-1.635,0.954l-0.172-0.059c-3.934-1.363-8.047-0.239-11.339,3.054 c-2.155,2.154-3.341,5.008-3.341,8.033c0,3.05,1.186,5.91,3.34,8.053c2.15,2.149,5.011,3.333,8.06,3.333 c3.046-0.001,5.904-1.185,8.047-3.332c3.218-3.217,4.313-7.502,2.932-11.463l-0.076-0.221l1.157-1.287l0.221,0.63 c0.786,2.254,0.926,4.705,0.403,7.087c-0.53,2.417-1.741,4.626-3.501,6.388C25.811,52.546,22.547,53.91,19.074,53.91z M11.777,31.115c-0.467,0.352-0.913,0.738-1.332,1.158c-2.314,2.313-3.588,5.379-3.588,8.629c0,3.251,1.274,6.316,3.588,8.63 c2.303,2.313,5.367,3.588,8.629,3.588c3.26,0,6.325-1.281,8.628-3.606c0.515-0.515,0.979-1.07,1.39-1.658 c-0.416,0.569-0.885,1.117-1.406,1.639c-2.292,2.298-5.349,3.564-8.606,3.564h-0.001c-3.258,0-6.318-1.266-8.617-3.564 c-2.303-2.291-3.573-5.35-3.573-8.611c0-3.236,1.27-6.288,3.573-8.592C10.888,31.865,11.327,31.474,11.777,31.115z M17.983,47.285 c-0.305,0-0.594-0.121-0.814-0.342l-4.114-4.115c-0.222-0.222-0.344-0.515-0.344-0.824s0.122-0.603,0.345-0.824l20.047-20.048 l-3.128-3.108v-0.165c-0.037-0.131-0.047-0.309-0.013-0.488c0.083-0.33,0.347-0.587,0.678-0.675l15.614-4.025 c0.074-0.002,0.114-0.004,0.152-0.004c0.3,0,0.583,0.136,0.758,0.365c0.177,0.242,0.229,0.542,0.146,0.81l-4.006,15.516 c-0.196,0.653-1.033,0.883-1.53,0.442l-2.905-2.905L18.819,46.943C18.601,47.16,18.296,47.285,17.983,47.285z M38.846,25.742 L18.114,46.474c0.056-0.018,0.106-0.049,0.146-0.089l20.607-20.607l3.447,3.448c0.011,0.009,0.022,0.016,0.035,0.02L38.846,25.742z M13.533,42.153c0.02,0.043,0.046,0.082,0.08,0.116l4.115,4.115c0.036,0.036,0.075,0.063,0.117,0.081L13.533,42.153z M14.489,41.993l3.495,3.496l20.862-20.863l3.187,3.185l3.425-13.271l-13.272,3.407l3.165,3.185L14.489,41.993z M30.754,17.687 l3.465,3.443L13.614,41.738c-0.023,0.022-0.042,0.046-0.058,0.072l0.096-0.097L34.235,21.13l-3.503-3.524 c0.002,0.015,0.006,0.031,0.012,0.048L30.754,17.687z M46.537,13.514l-4.056,15.715c0.027-0.019,0.05-0.049,0.061-0.085 l4.007-15.519C46.561,13.587,46.557,13.547,46.537,13.514z M46.405,13.457l-0.132,0.004l-15.434,4 c-0.026,0.007-0.05,0.02-0.068,0.035l15.696-4.029C46.449,13.46,46.428,13.457,46.405,13.457z M44.115,38.132 c-0.177,0-0.354-0.048-0.51-0.139c-0.229-0.124-0.411-0.353-0.489-0.623l-0.467-1.694c-1.137,0.115-2.273,0.115-3.409,0 l-0.467,1.691c-0.077,0.272-0.26,0.503-0.502,0.633c-0.206,0.095-0.576,0.141-0.754,0.099l-3.137-0.848 c-0.274-0.077-0.504-0.259-0.635-0.501c-0.122-0.23-0.157-0.501-0.1-0.767l0.453-1.709c-0.111-0.055-0.231-0.113-0.34-0.167 l-0.766-0.365l1.181-1.223l0.26,0.13c0.293,0.146,0.604,0.293,0.93,0.414l0.662,0.25l-0.669,2.536l2.015,0.538l0.665-2.5 l0.711,0.081c1.463,0.218,2.931,0.216,4.382,0.002l0.722-0.083l0.665,2.5l2.017-0.538l-0.672-2.544l0.692-0.244 c1.36-0.543,2.627-1.277,3.753-2.178l0.566-0.445l1.84,1.84l1.479-1.479l-1.851-1.849l0.461-0.546 c0.88-1.11,1.615-2.385,2.178-3.781l0.245-0.655l2.536,0.669l0.538-2.015l-2.498-0.665l0.079-0.708 c0.218-1.459,0.218-2.929,0.002-4.384l-0.081-0.722l2.498-0.665l-0.537-2.015l-2.499,0.665l-0.278-0.64 c-0.567-1.417-1.302-2.691-2.189-3.8l-0.454-0.536l1.851-1.851l-1.478-1.477l-1.82,1.841L50.33,7.224 c-1.121-0.889-2.397-1.624-3.793-2.187l-0.655-0.245l0.671-2.537l-2.016-0.538l-0.666,2.5l-0.689-0.082 c-1.473-0.219-2.941-0.217-4.381-0.002l-0.722,0.082l-0.665-2.5l-2.033,0.539l0.687,2.524l-0.672,0.276 c-1.34,0.53-2.608,1.265-3.772,2.188l-0.574,0.411l-1.83-1.81l-1.461,1.461l1.809,1.83l-0.399,0.559 c-0.935,1.182-1.67,2.449-2.196,3.784l-0.28,0.675l-2.504-0.667l-0.538,2.018l2.501,0.686l-0.081,0.687 c-0.206,1.455-0.206,2.927-0.001,4.384l0.08,0.72l-2.499,0.665l0.539,2.018l2.497-0.645l0.28,0.637 c0.129,0.318,0.266,0.623,0.426,0.954l0.14,0.29l-1.253,0.96l-0.214-0.428c-0.047-0.096-0.112-0.209-0.177-0.326 c-0.036-0.063-0.072-0.127-0.107-0.191l-1.73,0.455c-0.505,0.14-1.114-0.19-1.263-0.729l-0.844-3.15 c-0.076-0.271-0.04-0.543,0.107-0.783c0.119-0.221,0.349-0.404,0.62-0.481l1.713-0.45c-0.116-1.135-0.116-2.277,0-3.405 l-1.709-0.466c-0.275-0.079-0.505-0.261-0.635-0.502c-0.133-0.247-0.166-0.513-0.093-0.768l0.842-3.123 c0.083-0.293,0.25-0.51,0.481-0.635c0.235-0.127,0.519-0.15,0.79-0.074l1.701,0.447c0.463-1.042,1.035-2.033,1.705-2.953 L26.22,8.035c-0.192-0.193-0.299-0.453-0.299-0.73c0-0.265,0.107-0.517,0.301-0.711l2.284-2.284 c0.42-0.419,1.139-0.359,1.476,0.014l1.229,1.228c0.942-0.679,1.93-1.25,2.944-1.703l-0.464-1.686 c-0.073-0.267-0.034-0.558,0.107-0.798c0.142-0.241,0.367-0.409,0.634-0.473l3.116-0.841c0.09-0.025,0.186-0.039,0.278-0.039 l0.12,0.007c0.129,0.017,0.251,0.06,0.376,0.133c0.242,0.13,0.416,0.341,0.49,0.604l0.468,1.714c1.125-0.115,2.268-0.116,3.404,0 l0.448-1.707c0.146-0.533,0.715-0.867,1.257-0.737l3.138,0.847c0.292,0.084,0.51,0.25,0.634,0.482 c0.134,0.247,0.168,0.535,0.095,0.791L47.76,3.812c1.046,0.469,2.032,1.04,2.942,1.699l1.26-1.244 c0.409-0.406,1.063-0.379,1.442,0.002l2.302,2.282c0.196,0.194,0.304,0.455,0.304,0.733s-0.107,0.539-0.303,0.732l-1.24,1.24 c0.664,0.916,1.235,1.912,1.703,2.967l1.707-0.465c0.259-0.077,0.566-0.04,0.804,0.106c0.243,0.149,0.409,0.363,0.481,0.62 l0.825,3.135c0.074,0.255,0.037,0.555-0.103,0.793c-0.118,0.22-0.336,0.386-0.622,0.468l-1.717,0.468 c0.116,1.132,0.116,2.275,0,3.407l1.712,0.467c0.274,0.079,0.504,0.262,0.634,0.503c0.135,0.249,0.167,0.515,0.094,0.77 l-0.821,3.118c-0.076,0.27-0.249,0.481-0.503,0.617c-0.241,0.13-0.52,0.174-0.763,0.121l-1.709-0.47 c-0.47,1.047-1.04,2.035-1.701,2.947l1.241,1.241c0.193,0.194,0.301,0.454,0.301,0.731c0,0.277-0.107,0.538-0.301,0.731 l-2.284,2.285c-0.387,0.385-1.06,0.386-1.457,0.006l-1.247-1.247c-0.916,0.664-1.913,1.234-2.967,1.702l0.464,1.705 c0.071,0.26,0.036,0.533-0.099,0.77c-0.14,0.244-0.378,0.426-0.653,0.499l-3.105,0.844C44.297,38.119,44.206,38.132,44.115,38.132z M44.045,37.33c0.045,0.016,0.084,0.016,0.126,0.005l3.11-0.846c0.037-0.01,0.071-0.026,0.101-0.049L44.045,37.33z M34.49,36.436 c0.027,0.025,0.063,0.045,0.101,0.055l3.124,0.844c0.044,0.001,0.08,0,0.113-0.008L34.49,36.436z M38.625,34.749l-0.668,2.511 c0.022-0.026,0.045-0.063,0.057-0.105l0.646-2.342l0.338,0.041c1.293,0.16,2.6,0.16,3.896,0l0.339-0.041l0.646,2.344 c0.011,0.037,0.029,0.07,0.054,0.099l-0.667-2.506l-0.03,0.004c-1.502,0.224-3.075,0.226-4.59-0.002L38.625,34.749z M46.81,33.808 l0.663,2.512c0.013-0.035,0.018-0.078,0.005-0.126l-0.647-2.372l0.32-0.134c1.22-0.511,2.361-1.165,3.392-1.946l0.273-0.208 l1.726,1.726c0.022,0.022,0.054,0.041,0.087,0.053l-1.818-1.818l-0.013,0.01c-1.183,0.946-2.519,1.72-3.966,2.297L46.81,33.808z M34.321,33.504c0.146,0.072,0.29,0.141,0.393,0.182l0.324,0.129l-0.624,2.355c-0.01,0.044-0.009,0.098,0.005,0.146l0.663-2.516 c-0.256-0.096-0.502-0.205-0.739-0.317L34.321,33.504z M55.228,30.882l-2.433,2.433c0.035-0.011,0.066-0.03,0.093-0.056 l2.283-2.284C55.196,30.948,55.216,30.917,55.228,30.882z M53.414,28.906l1.813,1.813c-0.012-0.035-0.031-0.066-0.057-0.092 l-1.725-1.725l0.208-0.274c0.777-1.025,1.433-2.16,1.946-3.372l0.135-0.318l2.351,0.647c0.041,0,0.078-0.004,0.111-0.014 l-2.482-0.655C55.12,26.389,54.347,27.729,53.414,28.906L53.414,28.906z M26.209,24.985l0.137,0.304 c0.048,0.107,0.12,0.236,0.193,0.366c-0.109-0.237-0.208-0.464-0.3-0.693l-0.006-0.011l-2.523,0.651 c0.024,0.008,0.049,0.013,0.074,0.013L26.209,24.985z M22.705,22.159c-0.013,0.036-0.014,0.071,0,0.12l0.845,3.153 c0.01,0.037,0.029,0.071,0.054,0.099L22.705,22.159z M59.23,22.194l-0.877,3.294c0.031-0.031,0.043-0.06,0.05-0.083l0.82-3.12 C59.231,22.258,59.236,22.23,59.23,22.194z M22.781,16.085c0.029,0.026,0.065,0.046,0.105,0.058l2.362,0.645l-0.042,0.339 c-0.159,1.286-0.159,2.597,0.001,3.895l0.042,0.342l-2.37,0.623c-0.045,0.013-0.089,0.042-0.121,0.08l2.533-0.673l-0.003-0.033 c-0.214-1.52-0.214-3.065,0.001-4.584l0.001-0.003L22.781,16.085z M56.661,21.372l2.476,0.659 c-0.026-0.021-0.059-0.037-0.092-0.047l-2.362-0.644L56.725,21c0.158-1.292,0.158-2.603,0-3.895l-0.042-0.339l2.367-0.645 c0.045-0.013,0.083-0.031,0.108-0.052l-2.497,0.665l0.004,0.033c0.226,1.519,0.226,3.066-0.002,4.587L56.661,21.372z M23.608,12.598c-0.03,0.034-0.049,0.084-0.062,0.125l-0.841,3.12c-0.01,0.034-0.015,0.073,0.004,0.128L23.608,12.598z M58.35,12.604l0.882,3.311c0.004-0.031,0.002-0.061-0.005-0.085l-0.825-3.137C58.393,12.663,58.375,12.633,58.35,12.604z M23.728,12.547l2.5,0.666l0.013-0.03c0.552-1.401,1.326-2.736,2.297-3.963l0.001-0.001l-1.816-1.836 c0.012,0.037,0.031,0.07,0.058,0.097l1.723,1.747l-0.208,0.272c-0.786,1.034-1.441,2.168-1.945,3.371l-0.133,0.316l-2.473-0.639 C23.74,12.546,23.734,12.547,23.728,12.547z M53.414,9.2c0.938,1.175,1.71,2.514,2.299,3.987l0.004,0.007l2.521-0.671 c-0.024-0.009-0.049-0.014-0.077-0.014l-2.448,0.658l-0.134-0.319c-0.512-1.222-1.166-2.363-1.945-3.391l-0.206-0.271L53.414,9.2z M29.125,4.823c-0.024,0.013-0.044,0.03-0.06,0.045l-2.284,2.284c-0.016,0.016-0.033,0.036-0.046,0.061L29.125,4.823z M52.78,4.777 l2.427,2.426c-0.012-0.035-0.03-0.066-0.057-0.092l-2.304-2.282C52.822,4.804,52.801,4.788,52.78,4.777z M29.291,4.805l1.841,1.821 l0.018-0.013c1.209-0.959,2.544-1.733,3.951-2.289l0.022-0.009L34.45,1.842c-0.008,0.037-0.007,0.075,0.003,0.111l0.648,2.352 l-0.32,0.134c-1.167,0.489-2.302,1.144-3.372,1.947l-0.273,0.206l-1.725-1.724C29.384,4.838,29.344,4.816,29.291,4.805z M46.829,4.304c1.472,0.595,2.812,1.368,3.989,2.301l0.011,0.008l1.832-1.854c-0.07,0.008-0.114,0.041-0.143,0.069L50.772,6.55 l-0.273-0.207c-1.023-0.777-2.158-1.432-3.372-1.947l-0.291-0.123L46.829,4.304z M38.014,0.897l0.653,2.459l0.031-0.003 c1.487-0.222,3.06-0.225,4.587,0.001l0.657-2.47c-0.021,0.024-0.037,0.054-0.046,0.086l-0.621,2.365l-0.342-0.042 c-1.295-0.159-2.614-0.158-3.895,0l-0.34,0.042l-0.646-2.366C38.048,0.95,38.038,0.925,38.014,0.897z M47.492,1.787l-0.364,1.382 L47.5,1.925C47.511,1.885,47.509,1.836,47.492,1.787z M44.138,0.795l3.248,0.866c-0.023-0.011-0.047-0.02-0.068-0.025l-3.122-0.842 C44.176,0.792,44.157,0.793,44.138,0.795z M40.924,32.039c-1.468,0-2.909-0.243-4.286-0.722l-0.644-0.224l1.305-1.132l0.217,0.076 c3.919,1.365,8.309,0.23,11.483-2.932c2.146-2.146,3.328-5.006,3.328-8.053c0-3.047-1.182-5.908-3.329-8.054 c-2.146-2.146-5.004-3.328-8.049-3.328S35.042,8.854,32.891,11c-3.208,3.208-4.331,7.654-2.931,11.604l0.087,0.245l-1.166,1.077 l-0.2-0.564c-0.809-2.282-0.963-4.733-0.445-7.089c0.525-2.415,1.744-4.637,3.521-6.427c2.451-2.451,5.714-3.8,9.189-3.8 c3.475,0,6.738,1.349,9.188,3.799c5.071,5.071,5.071,13.324,0,18.396c-1.762,1.761-3.97,2.972-6.387,3.5 C42.839,31.94,41.891,32.039,40.924,32.039z M40.949,6.882c3.255,0,6.313,1.264,8.607,3.559c2.296,2.295,3.56,5.354,3.56,8.612 c0,3.258-1.264,6.316-3.56,8.611c-0.595,0.592-1.228,1.119-1.891,1.577c0.683-0.451,1.322-0.973,1.908-1.559 c4.765-4.764,4.765-12.516,0-17.28c-2.301-2.3-5.365-3.567-8.629-3.567c-3.265,0-6.329,1.267-8.63,3.567 c-0.705,0.71-1.317,1.494-1.826,2.332c0.516-0.811,1.13-1.581,1.842-2.293C34.634,8.146,37.694,6.882,40.949,6.882z"></path></g></svg>