<svg version="1.1" id="Layer_1" xmlns="http://www.w3.org/2000/svg" xmlns:xlink="http://www.w3.org/1999/xlink" x="0px" y="0px" width="60px" height="60px" viewBox="0 0 60 60" enable-background="new 0 0 60 60" xml:space="preserve"><g><g><g><path fill="#0072BC" d="M21.295,42.986c-0.084-0.024-0.171-0.038-0.258-0.043c1.283-1.35,2.074-3.172,2.074-5.176v-6.166 c0-0.057-0.006-0.111-0.014-0.166c0.008-0.111,0.014-0.223,0.014-0.336v-3.9c0-0.647-0.525-1.172-1.172-1.172h-7.861 c-3.309,0-6.002,2.692-6.002,6.002v5.738c0,2.004,0.791,3.826,2.074,5.176c-0.088,0.005-0.174,0.019-0.259,0.043 C4.354,43.487,0,48.155,0,53.821v5.007C0,59.476,0.524,60,1.172,60h28.843c0.647,0,1.172-0.524,1.172-1.172v-5.007 C31.187,48.155,26.833,43.488,21.295,42.986z M10.42,33.516v-1.486c0-2.018,1.642-3.658,3.658-3.658h6.689V31.1 c0,1.373-1.118,2.491-2.492,2.491H10.42V33.516z M10.42,35.935h7.855c0.911,0,1.764-0.253,2.492-0.692v2.524 c0,2.853-2.321,5.174-5.174,5.174c-2.854,0-5.174-2.321-5.174-5.174V35.935z M18.145,45.284l-2.551,2.551l-2.551-2.551H18.145z M28.844,57.656L28.844,57.656h-26.5v-2.344h4.863c0.647,0,1.172-0.524,1.172-1.172s-0.524-1.172-1.172-1.172h-4.82 c0.394-3.951,3.492-7.115,7.412-7.613l4.966,4.965c0.22,0.221,0.519,0.344,0.829,0.344s0.608-0.123,0.828-0.344l4.966-4.965 c4.198,0.533,7.456,4.125,7.456,8.466V57.656z"></path></g></g><g><g><path fill="#0072BC" d="M50.109,16.959c-0.086-0.023-0.172-0.037-0.26-0.043c1.283-1.349,2.074-3.171,2.074-5.176V5.574 c0-0.057-0.006-0.111-0.013-0.165c0.007-0.111,0.013-0.224,0.013-0.337v-3.9C51.924,0.524,51.399,0,50.752,0h-7.859 c-3.311,0-6.004,2.693-6.004,6.003v5.737c0,2.004,0.791,3.827,2.074,5.176c-0.087,0.006-0.174,0.02-0.259,0.043 c-5.538,0.502-9.892,5.17-9.892,10.836v5.006c0,0.647,0.525,1.172,1.172,1.172h9.43c0.646,0,1.172-0.524,1.172-1.172 c0-0.646-0.525-1.172-1.172-1.172h-8.258v-3.834c0-4.342,3.258-7.934,7.456-8.467l4.966,4.966 c0.229,0.229,0.528,0.343,0.828,0.343c0.301,0,0.6-0.113,0.828-0.343l4.967-4.966c4.197,0.533,7.455,4.125,7.455,8.467v3.834 h-8.633c-0.647,0-1.172,0.525-1.172,1.172c0,0.647,0.524,1.172,1.172,1.172h9.805c0.647,0,1.172-0.524,1.172-1.172v-5.006 C60,22.129,55.646,17.461,50.109,16.959z M44.406,21.809l-2.551-2.551h5.102L44.406,21.809z M49.58,11.74 c0,2.853-2.32,5.174-5.174,5.174c-2.852,0-5.174-2.321-5.174-5.174V9.908h7.856c0.911,0,1.763-0.254,2.491-0.693V11.74z M49.58,5.072c0,1.374-1.117,2.492-2.491,2.492h-7.856V7.488V6.003c0-2.018,1.643-3.659,3.66-3.659h6.688V5.072L49.58,5.072z"></path></g></g><g><g><path fill="#0072BC" d="M45.235,31.973c-0.218-0.219-0.521-0.344-0.828-0.344c-0.31,0-0.61,0.125-0.829,0.344 c-0.219,0.218-0.343,0.52-0.343,0.828c0,0.31,0.124,0.61,0.343,0.828c0.219,0.22,0.52,0.344,0.829,0.344 c0.308,0,0.61-0.124,0.828-0.344c0.218-0.218,0.344-0.519,0.344-0.828C45.579,32.492,45.453,32.19,45.235,31.973z"></path></g></g><g><g><path fill="#0072BC" d="M31.336,16.398l-4.9-4.901V5.859c0-3.23-2.629-5.859-5.859-5.859H5.859C2.629,0,0,2.629,0,5.859v10.313 c0,3.23,2.629,5.859,5.859,5.859h14.717c2.423,0,4.535-1.454,5.422-3.633h4.51c0.474,0,0.901-0.285,1.082-0.724 C31.771,17.237,31.672,16.732,31.336,16.398z M25.143,16.055c-0.545,0-1.02,0.377-1.142,0.909 c-0.369,1.604-1.777,2.724-3.425,2.724H5.859c-1.938,0-3.516-1.577-3.516-3.516V5.859c0-1.938,1.577-3.516,3.516-3.516h14.717 c1.938,0,3.516,1.577,3.516,3.516v6.123c0,0.311,0.123,0.609,0.344,0.828l3.243,3.244H25.143z"></path></g></g><g><g><path fill="#0072BC" d="M54.141,37.969H39.424c-2.423,0-4.535,1.454-5.422,3.633h-4.51c-0.474,0-0.901,0.285-1.082,0.724 c-0.182,0.438-0.082,0.942,0.254,1.276l4.9,4.901v5.638c0,3.23,2.629,5.859,5.859,5.859h14.717C57.371,60,60,57.371,60,54.141 V43.828C60,40.598,57.371,37.969,54.141,37.969z M57.656,54.141c0,1.938-1.577,3.516-3.516,3.516H39.424 c-1.938,0-3.516-1.577-3.516-3.516v-6.123c0-0.311-0.123-0.609-0.344-0.828l-3.243-3.244h2.536c0.545,0,1.02-0.377,1.142-0.909 c0.369-1.604,1.777-2.724,3.425-2.724h14.717c1.938,0,3.516,1.577,3.516,3.516V54.141z"></path></g></g><g><g><path fill="#0072BC" d="M52.049,45.866c-0.457-0.458-1.199-0.458-1.656,0l-3.115,3.115l-1.449-1.448 c-0.457-0.458-1.199-0.458-1.656,0c-0.458,0.457-0.458,1.199,0,1.657l2.276,2.276c0.229,0.229,0.528,0.344,0.829,0.344 c0.3,0,0.6-0.114,0.828-0.344l3.943-3.943C52.508,47.066,52.508,46.324,52.049,45.866z"></path></g></g><g><g><path fill="#0072BC" d="M18.545,7.766c-0.139-2.01-1.758-3.629-3.768-3.768c-1.139-0.078-2.225,0.307-3.057,1.082 c-0.821,0.767-1.291,1.85-1.291,2.971c0,0.648,0.523,1.172,1.172,1.172c0.646,0,1.172-0.523,1.172-1.172 c0-0.48,0.193-0.928,0.546-1.257c0.353-0.328,0.813-0.491,1.298-0.458c0.848,0.059,1.531,0.742,1.59,1.592 c0.059,0.857-0.503,1.615-1.337,1.802c-0.913,0.204-1.55,0.997-1.55,1.929v0.626c0,0.647,0.524,1.172,1.172,1.172 c0.646,0,1.172-0.524,1.172-1.172v-0.341C17.479,11.401,18.678,9.689,18.545,7.766z"></path></g></g><g><g><path fill="#0072BC" d="M15.321,15.939c-0.218-0.218-0.521-0.343-0.829-0.343s-0.61,0.125-0.828,0.343 c-0.219,0.219-0.344,0.521-0.344,0.829c0,0.308,0.125,0.61,0.344,0.828c0.218,0.218,0.52,0.344,0.828,0.344 s0.611-0.126,0.829-0.344s0.343-0.521,0.343-0.828C15.664,16.46,15.539,16.158,15.321,15.939z"></path></g></g><g><g><path fill="#0072BC" d="M12.723,53.313c-0.218-0.219-0.52-0.344-0.828-0.344s-0.61,0.125-0.828,0.344 c-0.219,0.218-0.344,0.52-0.344,0.828s0.125,0.61,0.344,0.828c0.218,0.219,0.52,0.344,0.828,0.344s0.61-0.125,0.828-0.344 c0.219-0.218,0.344-0.52,0.344-0.828S12.941,53.53,12.723,53.313z"></path></g></g></g></svg>