<svg version="1.1" id="Layer_1" xmlns="http://www.w3.org/2000/svg" xmlns:xlink="http://www.w3.org/1999/xlink" x="0px" y="0px" width="60px" height="60px" viewBox="0 0 60 60" style="enable-background:new 0 0 60 60;" xml:space="preserve"><g><g><path style="fill:#0CB4C4;" d="M57.254,17.688L57.254,17.688C58.934,15.781,60,13.265,60,10.597C60,4.728,55.197,0,49.404,0 c-2.746,0-5.186,0.991-7.092,2.668c-3.887-1.677-8.004-2.592-12.351-2.592C13.418,0.076,0,13.495,0,30.038 C0,46.582,13.418,60,29.962,60c16.544,0,29.96-13.418,29.96-29.886c0-4.27-0.912-8.387-2.59-12.197 C57.332,17.84,57.254,17.763,57.254,17.688z M29.962,56.949c-5.489,0-10.597-1.602-14.865-4.42c0-0.152,0.074-0.307,0.074-0.383 c0-8.156,6.632-14.791,14.791-14.791c8.159,0,14.792,6.635,14.792,14.791c0,0.152,0,0.305,0.074,0.383 C40.559,55.348,35.451,56.949,29.962,56.949z M23.252,26.836c0-3.736,3.049-6.71,6.71-6.71c3.661,0,6.71,2.974,6.71,6.71 c0,3.431-2.516,6.251-5.872,6.632l0,0c-0.304,0-0.534,0.076-0.838,0.076c-0.304,0-0.534,0-0.837-0.076l0,0 C25.768,33.088,23.252,30.19,23.252,26.836z M48.412,49.631c-0.914-6.783-5.488-12.428-11.666-14.865 c2.289-1.908,3.736-4.803,3.736-7.929c0-5.795-4.725-10.522-10.521-10.522c-5.795,0-10.521,4.651-10.521,10.445 c0,3.203,1.449,6.098,3.737,8.006c-6.176,2.438-10.75,8.082-11.666,14.865C6.328,44.752,3.05,37.738,3.05,30.038 c0-14.865,12.046-26.911,26.912-26.911c3.583,0,7.091,0.762,10.294,2.058c-0.916,1.601-1.449,3.431-1.449,5.413 c0,5.87,4.803,10.597,10.598,10.597c1.98,0,3.813-0.533,5.412-1.523c1.371,3.277,2.057,6.707,2.057,10.367 C56.873,37.738,53.596,44.752,48.412,49.631z M49.404,18.222c-4.195,0-7.549-3.355-7.549-7.548c0-4.194,3.432-7.548,7.549-7.548 c4.115,0,7.547,3.354,7.547,7.548C56.951,14.867,53.596,18.222,49.404,18.222z"></path></g><g><path style="fill:#0CB4C4;" d="M54.053,10.597c0,0.839-0.686,1.526-1.523,1.526h-1.678v1.675c0,0.841-0.686,1.526-1.525,1.526 c-0.838,0-1.523-0.686-1.523-1.526v-1.675h-1.602c-0.84,0-1.525-0.688-1.525-1.526c0-0.838,0.686-1.525,1.525-1.525h1.602V7.471 c0-0.839,0.686-1.524,1.523-1.524c0.84,0,1.525,0.686,1.525,1.524v1.601h1.678C53.367,9.072,54.053,9.759,54.053,10.597z"></path></g></g></svg>