<svg version="1.1" id="Layer_1" xmlns="http://www.w3.org/2000/svg" xmlns:xlink="http://www.w3.org/1999/xlink" x="0px" y="0px" width="60px" height="60px" viewBox="0 0 60 60" style="enable-background:new 0 0 60 60;" xml:space="preserve"><g><path style="fill:#0CB4C4;" d="M59,0H1C0.448,0,0,0.448,0,1v58c0,0.552,0.448,1,1,1h58c0.552,0,1-0.448,1-1V1 C60,0.448,59.552,0,59,0z M58,58H2V10h56V58z M58,8H2V2h56V8z"></path><circle style="fill:#0CB4C4;" cx="13" cy="5" r="1"></circle><circle style="fill:#0CB4C4;" cx="9" cy="5" r="1"></circle><circle style="fill:#0CB4C4;" cx="5" cy="5" r="1"></circle><path style="fill:#0CB4C4;" d="M53,6h2c0.552,0,1-0.448,1-1s-0.448-1-1-1h-2c-0.552,0-1,0.448-1,1S52.448,6,53,6z"></path><path style="fill:#0CB4C4;" d="M20,36h20c0.552,0,1-0.448,1-1c-0.008-4.728-3.032-8.925-7.516-10.425 c1.98-1.924,2.026-5.09,0.102-7.07c-1.925-1.981-5.089-2.027-7.07-0.103c-1.98,1.925-2.026,5.09-0.102,7.07 c0.034,0.035,0.067,0.069,0.102,0.103C22.032,26.075,19.008,30.272,19,35C19,35.552,19.448,36,20,36z M30,18c1.656,0,3,1.344,3,3 s-1.344,3-3,3s-3-1.344-3-3S28.344,18,30,18z M30,26c4.581,0.005,8.43,3.448,8.945,8H21.055C21.57,29.448,25.419,26.005,30,26z"></path><path style="fill:#0CB4C4;" d="M21,54c3.866,0,7-3.134,7-7s-3.134-7-7-7s-7,3.134-7,7C14.005,50.864,17.136,53.995,21,54z M21,42 c1.229,0.004,2.411,0.464,3.32,1.289c-0.034,0.026-0.067,0.055-0.099,0.086l-3.3,4.128l-1.211-1.21 c-0.397-0.384-1.03-0.372-1.414,0.024c-0.375,0.389-0.375,1.003,0,1.39l2,2C20.484,49.894,20.737,49.999,21,50h0.055 c0.284-0.016,0.548-0.151,0.727-0.372l3.757-4.701C25.84,45.575,25.997,46.284,26,47c0,2.762-2.238,5-5,5s-5-2.238-5-5 S18.238,42,21,42z"></path><path style="fill:#0CB4C4;" d="M37.707,44.293c-0.397-0.384-1.03-0.372-1.414,0.024c-0.374,0.389-0.374,1.003,0,1.39L37.586,47 l-1.293,1.293c-0.397,0.384-0.407,1.017-0.024,1.414c0.384,0.397,1.017,0.407,1.414,0.024c0.008-0.008,0.017-0.016,0.024-0.024 L39,48.414l1.293,1.293c0.397,0.384,1.03,0.372,1.414-0.024c0.374-0.389,0.374-1.003,0-1.39L40.414,47l1.293-1.293 c0.384-0.397,0.372-1.03-0.024-1.414c-0.389-0.374-1.003-0.374-1.39,0L39,45.586L37.707,44.293z"></path><path style="fill:#0CB4C4;" d="M32,47c0,3.866,3.134,7,7,7s7-3.134,7-7s-3.134-7-7-7C35.136,40.005,32.005,43.136,32,47z M44,47 c0,2.762-2.238,5-5,5s-5-2.238-5-5s2.238-5,5-5C41.761,42.003,43.997,44.239,44,47z"></path><path style="fill:#0CB4C4;" d="M4.167,26.552L4.167,26.552l2,3c0.307,0.461,0.927,0.585,1.388,0.279 c0.458-0.308,0.583-0.929,0.276-1.389l0,0L6.2,26l1.631-2.445c0.306-0.458,0.182-1.081-0.279-1.387 c-0.458-0.306-1.079-0.183-1.385,0.277l-2,3l0,0c-0.073,0.109-0.123,0.231-0.148,0.36c-0.003,0.129-0.003,0.257,0,0.385 C4.044,26.32,4.094,26.442,4.167,26.552z"></path><path style="fill:#0CB4C4;" d="M52.445,29.832c0.458,0.306,1.081,0.183,1.387-0.277l0,0l2-3l0,0 c0.071-0.109,0.122-0.231,0.147-0.36c0.002-0.129,0.002-0.257,0-0.385c-0.025-0.129-0.076-0.251-0.147-0.36l0,0l-2-3 c-0.306-0.46-0.929-0.585-1.387-0.277c-0.46,0.308-0.583,0.927-0.277,1.388l0,0L53.8,26l-1.631,2.445 C51.863,28.903,51.987,29.524,52.445,29.832z"></path></g></svg>