<svg version="1.1" id="Layer_1" xmlns="http://www.w3.org/2000/svg" xmlns:xlink="http://www.w3.org/1999/xlink" x="0px" y="0px" width="65.3px" height="60px" viewBox="0 0 65.3 60" style="enable-background:new 0 0 65.3 60;" xml:space="preserve"><g><path style="fill:#0CB4C4;" d="M39.535,55.246H21.741c-0.849,0-1.535-0.687-1.535-1.535c0-0.848,0.687-1.536,1.535-1.536h17.793 c0.85,0,1.535,0.688,1.535,1.536C41.07,54.56,40.384,55.246,39.535,55.246z"></path></g><g><path style="fill:#0CB4C4;" d="M62.667,55.246h-3.547c-0.848,0-1.537-0.687-1.537-1.535c0-0.848,0.689-1.536,1.537-1.536h3.098 V3.072H3.082v49.103H8.66c0.849,0,1.535,0.688,1.535,1.536c0,0.849-0.687,1.535-1.535,1.535H2.634 c-1.447,0-2.624-1.176-2.624-2.622v-50C0.01,1.177,1.187,0,2.634,0h60.034c1.447,0,2.623,1.177,2.623,2.624v50 C65.291,54.07,64.113,55.246,62.667,55.246z"></path></g><g><path style="fill:#0CB4C4;" d="M20.573,21.076H7.124c-1.022,0-1.854-0.832-1.854-1.856V7.964c0-1.022,0.832-1.854,1.854-1.854 h13.449c1.022,0,1.854,0.832,1.854,1.854V19.22C22.428,20.244,21.596,21.076,20.573,21.076z M7.124,7.645 c-0.173,0-0.318,0.146-0.318,0.319V19.22c0,0.174,0.146,0.319,0.318,0.319h13.449c0.173,0,0.319-0.146,0.319-0.319V7.964 c0-0.173-0.146-0.319-0.319-0.319H7.124z"></path></g><g><path style="fill:#0CB4C4;" d="M39.373,21.076H25.927c-1.022,0-1.856-0.832-1.856-1.856V7.964c0-1.022,0.832-1.854,1.856-1.854 h13.446c1.023,0,1.857,0.832,1.857,1.854V19.22C41.23,20.244,40.398,21.076,39.373,21.076z M25.927,7.645 c-0.174,0-0.319,0.146-0.319,0.319V19.22c0,0.174,0.146,0.319,0.319,0.319h13.446c0.174,0,0.32-0.146,0.32-0.319V7.964 c0-0.173-0.146-0.319-0.32-0.319H25.927z"></path></g><g><path style="fill:#0CB4C4;" d="M58.175,21.076H44.726c-1.021,0-1.855-0.832-1.855-1.856V7.964c0-1.022,0.832-1.854,1.855-1.854 h13.449c1.023,0,1.855,0.832,1.855,1.854V19.22C60.031,20.244,59.199,21.076,58.175,21.076z M44.726,7.645 c-0.172,0-0.318,0.146-0.318,0.319V19.22c0,0.174,0.146,0.319,0.318,0.319h13.449c0.174,0,0.318-0.146,0.318-0.319V7.964 c0-0.173-0.145-0.319-0.318-0.319H44.726z"></path></g><g><path style="fill:#0CB4C4;" d="M20.573,39.786H7.124c-1.022,0-1.854-0.834-1.854-1.857V26.675c0-1.022,0.832-1.855,1.854-1.855 h13.449c1.022,0,1.854,0.833,1.854,1.855v11.254C22.428,38.951,21.596,39.786,20.573,39.786z M7.124,26.355 c-0.173,0-0.318,0.146-0.318,0.319v11.254c0,0.175,0.146,0.32,0.318,0.32h13.449c0.173,0,0.319-0.146,0.319-0.32V26.675 c0-0.174-0.146-0.319-0.319-0.319H7.124L7.124,26.355z"></path></g><g><path style="fill:#0CB4C4;" d="M39.373,39.786H25.927c-1.022,0-1.856-0.834-1.856-1.857V26.675c0-1.022,0.832-1.855,1.856-1.855 h13.446c1.023,0,1.857,0.833,1.857,1.855v11.254C41.23,38.951,40.398,39.786,39.373,39.786z M25.927,26.355 c-0.174,0-0.319,0.146-0.319,0.319v11.254c0,0.175,0.146,0.32,0.319,0.32h13.446c0.174,0,0.32-0.146,0.32-0.32V26.675 c0-0.174-0.146-0.319-0.32-0.319H25.927L25.927,26.355z"></path></g><g><path style="fill:#0CB4C4;" d="M58.175,39.786H44.726c-1.021,0-1.855-0.834-1.855-1.857V26.675c0-1.022,0.832-1.855,1.855-1.855 h13.449c1.023,0,1.855,0.833,1.855,1.855v11.254C60.031,38.951,59.199,39.786,58.175,39.786z M44.726,26.355 c-0.172,0-0.318,0.146-0.318,0.319v11.254c0,0.175,0.146,0.32,0.318,0.32h13.449c0.174,0,0.318-0.146,0.318-0.32V26.675 c0-0.174-0.145-0.319-0.318-0.319H44.726L44.726,26.355z"></path></g><g><path style="fill:#0CB4C4;" d="M17.155,53.711c0,1.062-0.857,1.921-1.919,1.921c-1.06,0-1.919-0.859-1.919-1.921 c0-1.061,0.859-1.92,1.919-1.92S17.155,52.65,17.155,53.711"></path></g><g><path style="fill:#0CB4C4;" d="M56.003,60H42.562c-0.637,0-1.152-0.517-1.152-1.153c0-4.341,3.531-7.871,7.873-7.871 c4.34,0,7.871,3.53,7.871,7.871C57.154,59.483,56.638,60,56.003,60z M43.833,57.695H54.73c-0.531-2.519-2.773-4.416-5.445-4.416 C46.607,53.279,44.365,55.177,43.833,57.695z"></path></g><g><path style="fill:#0CB4C4;" d="M49.283,50.449c-2.459,0-4.459-1.999-4.459-4.456c0-2.46,2-4.457,4.459-4.457 c2.457,0,4.457,1.997,4.457,4.457C53.738,48.45,51.74,50.449,49.283,50.449z M49.283,43.839c-1.188,0-2.154,0.967-2.154,2.154 c0,1.186,0.967,2.153,2.154,2.153s2.152-0.968,2.152-2.153C51.435,44.806,50.47,43.839,49.283,43.839z"></path></g></svg>