<svg version="1.1" id="Layer_1" xmlns="http://www.w3.org/2000/svg" xmlns:xlink="http://www.w3.org/1999/xlink" x="0px" y="0px" width="32.8px" height="60px" viewBox="0 0 32.8 60" style="enable-background:new 0 0 32.8 60;" xml:space="preserve"><g><path style="fill:#0CB4C4;" d="M0.048,24.065l12.132,17.078V60h0.724l7.716-10.879v-8.043l12.131-17.077H0.048V24.065z M19.234,40.682v8.045l-5.8,8.109V40.682L2.553,25.386h27.496L19.234,40.682z"></path><path style="fill:#0CB4C4;" d="M9.345,1.318h17.737V21.89c0,0.397,0.264,0.66,0.66,0.66c0.395,0,0.658-0.263,0.658-0.66V0H9.345 c-0.396,0-0.66,0.263-0.66,0.66C8.685,1.055,9.015,1.318,9.345,1.318z"></path><path style="fill:#0CB4C4;" d="M7.102,3.561h17.804V21.89c0,0.397,0.264,0.66,0.66,0.66c0.395,0,0.658-0.263,0.658-0.66V2.241 H7.102c-0.394,0-0.658,0.265-0.658,0.66S6.773,3.561,7.102,3.561z"></path><path style="fill:#0CB4C4;" d="M4.926,22.55c0.397,0,0.66-0.263,0.66-0.66V5.803h17.078V21.89c0,0.397,0.264,0.66,0.658,0.66 c0.396,0,0.66-0.263,0.66-0.66V4.483H4.267V21.89C4.267,22.287,4.532,22.55,4.926,22.55z"></path><path style="fill:#0CB4C4;" d="M21.279,10.946h-7.252c-0.396,0-0.66,0.263-0.66,0.658c0,0.396,0.264,0.659,0.66,0.659h7.252 c0.396,0,0.66-0.263,0.66-0.659C21.939,11.209,21.609,10.946,21.279,10.946z"></path><path style="fill:#0CB4C4;" d="M21.279,14.308h-7.252c-0.396,0-0.66,0.263-0.66,0.66c0,0.395,0.264,0.659,0.66,0.659h7.252 c0.396,0,0.66-0.265,0.66-0.659C21.939,14.57,21.609,14.308,21.279,14.308z"></path><path style="fill:#0CB4C4;" d="M6.97,19.188h14.309c0.396,0,0.66-0.266,0.66-0.659c0-0.396-0.264-0.66-0.66-0.66H6.97 c-0.394,0-0.659,0.264-0.659,0.66C6.312,18.922,6.576,19.188,6.97,19.188z"></path><path style="fill:#0CB4C4;" d="M6.97,15.823c0.397,0,0.66-0.263,0.66-0.658c0-1.056,0.593-1.979,1.384-1.979 s1.384,0.923,1.384,1.979c0,0.396,0.264,0.658,0.66,0.658c0.396,0,0.66-0.263,0.66-0.658c0-1.846-1.189-3.296-2.705-3.296 s-2.703,1.45-2.703,3.296C6.312,15.495,6.576,15.823,6.97,15.823z"></path><path style="fill:#0CB4C4;" d="M9.015,11.274c1.122,0,1.978-0.856,1.978-1.979c0-1.12-0.856-1.977-1.978-1.977 S7.038,8.176,7.038,9.296C7.038,10.352,7.893,11.274,9.015,11.274z M9.015,8.638c0.33,0,0.66,0.264,0.66,0.658 c0,0.397-0.264,0.66-0.66,0.66c-0.396,0-0.66-0.263-0.66-0.66C8.354,8.901,8.619,8.638,9.015,8.638z"></path></g></svg>