<svg width="61" height="61" viewBox="0 0 61 61" fill="none" xmlns="http://www.w3.org/2000/svg"><path fill-rule="evenodd" clip-rule="evenodd" d="M58.5034 13.017V4.40224H48.6305C48.5119 4.40237 48.3948 4.376 48.2877 4.32504C48.1806 4.27409 48.0862 4.19985 48.0115 4.10774L46.0455 1.67758H42.8159V13.017C42.8166 13.0557 42.8323 13.0927 42.8597 13.1201C42.8871 13.1475 42.9241 13.1632 42.9629 13.1639H58.3565C58.3952 13.163 58.4321 13.1473 58.4595 13.1199C58.4868 13.0926 58.5026 13.0557 58.5034 13.017ZM60.1028 3.6002V13.0163C60.102 13.4792 59.9177 13.9229 59.5904 14.2502C59.2631 14.5775 58.8194 14.7618 58.3565 14.7626H42.9629C42.4999 14.7619 42.056 14.5777 41.7286 14.2504C41.4011 13.9231 41.2167 13.4793 41.2159 13.0163V0.877543C41.2159 0.665006 41.3003 0.461174 41.4506 0.310888C41.6009 0.160602 41.8047 0.0761719 42.0172 0.0761719H46.4248C46.5545 0.0763598 46.6823 0.108061 46.7971 0.16855C46.912 0.229039 47.0104 0.316507 47.0839 0.423433L49.0099 2.79883H59.3015C59.514 2.79883 59.7178 2.88326 59.8681 3.03355C60.0184 3.18383 60.1028 3.38766 60.1028 3.6002ZM58.5034 35.6731V27.0583H48.6305C48.512 27.0586 48.3949 27.0324 48.2878 26.9815C48.1806 26.9307 48.0863 26.8565 48.0115 26.7645L46.0455 24.3337H42.8159V35.6731C42.8165 35.7119 42.8321 35.749 42.8595 35.7764C42.887 35.8038 42.924 35.8195 42.9629 35.82H58.3565C58.3953 35.8193 58.4323 35.8036 58.4597 35.7762C58.4871 35.7488 58.5028 35.7118 58.5034 35.6731ZM60.1028 26.2563V35.6724C60.103 36.136 59.9192 36.5807 59.5918 36.9089C59.2644 37.237 58.8201 37.4219 58.3565 37.4227H42.9629C42.4999 37.422 42.056 37.2378 41.7286 36.9105C41.4011 36.5832 41.2167 36.1394 41.2159 35.6764V23.5323C41.2159 23.4271 41.2366 23.3229 41.2769 23.2256C41.3171 23.1284 41.3762 23.0401 41.4506 22.9657C41.525 22.8912 41.6133 22.8322 41.7106 22.7919C41.8078 22.7517 41.912 22.7309 42.0172 22.7309H46.4248C46.5545 22.7311 46.6823 22.7628 46.7971 22.8233C46.912 22.8838 47.0104 22.9713 47.0839 23.0782L49.0099 25.4543H59.3015C59.514 25.4543 59.7178 25.5387 59.8681 25.689C60.0184 25.8393 60.1028 26.0438 60.1028 26.2563ZM58.5034 58.3292V49.7104H48.6305C48.512 49.7107 48.3949 49.6845 48.2878 49.6336C48.1806 49.5828 48.0863 49.5086 48.0115 49.4166L46.0448 46.9905H42.8159V58.3299C42.8165 58.3687 42.8321 58.4057 42.8595 58.4332C42.887 58.4606 42.924 58.4763 42.9629 58.4768H58.3565C58.3953 58.4761 58.4323 58.4604 58.4597 58.433C58.4871 58.4056 58.5028 58.3686 58.5034 58.3299V58.3292ZM60.1028 48.9131V58.3292C60.102 58.7921 59.9177 59.2359 59.5904 59.5633C59.2631 59.8907 58.8195 60.0751 58.3565 60.0762H42.9629C42.4998 60.0753 42.056 59.891 41.7285 59.5635C41.4011 59.2361 41.2167 58.7922 41.2159 58.3292V46.1897C41.2159 45.9772 41.3003 45.7734 41.4506 45.6231C41.6009 45.4728 41.8047 45.3884 42.0172 45.3884H46.4248C46.5545 45.3885 46.6822 45.4201 46.797 45.4805C46.9119 45.5408 47.0103 45.6282 47.0839 45.735L49.0099 48.111H59.3015C59.514 48.111 59.7178 48.1955 59.8681 48.3458C60.0184 48.496 60.1028 48.6999 60.1028 48.9124V48.9131ZM12.7164 46.1884C12.7094 46.0791 12.7248 45.9694 12.7618 45.8662C12.7988 45.7631 12.8565 45.6686 12.9315 45.5886C13.0064 45.5087 13.097 45.445 13.1975 45.4014C13.2981 45.3578 13.4065 45.3353 13.5161 45.3353C13.6257 45.3353 13.7341 45.3578 13.8347 45.4014C13.9353 45.445 14.0258 45.5087 14.1008 45.5886C14.1757 45.6686 14.2335 45.7631 14.2705 45.8662C14.3075 45.9694 14.3229 46.0791 14.3158 46.1884V52.3323H38.7096C38.9221 52.3323 39.1259 52.4167 39.2762 52.567C39.4265 52.7173 39.5109 52.9211 39.5109 53.1336C39.5109 53.3462 39.4265 53.55 39.2762 53.7003C39.1259 53.8506 38.9221 53.935 38.7096 53.935H13.5158C13.3033 53.935 13.0994 53.8506 12.9491 53.7003C12.7989 53.55 12.7144 53.3462 12.7144 53.1336V46.1884H12.7164ZM38.7096 6.22002C38.8189 6.21295 38.9286 6.22838 39.0318 6.26537C39.1349 6.30236 39.2294 6.36012 39.3093 6.43507C39.3893 6.51002 39.453 6.60058 39.4966 6.70114C39.5402 6.8017 39.5626 6.91013 39.5626 7.01972C39.5626 7.12931 39.5402 7.23774 39.4966 7.3383C39.453 7.43886 39.3893 7.52942 39.3093 7.60437C39.2294 7.67932 39.1349 7.73708 39.0318 7.77407C38.9286 7.81106 38.8189 7.82649 38.7096 7.81942H14.3158V13.9633C14.3229 14.0726 14.3075 14.1823 14.2705 14.2854C14.2335 14.3886 14.1757 14.4831 14.1008 14.563C14.0258 14.643 13.9353 14.7067 13.8347 14.7503C13.7341 14.7939 13.6257 14.8163 13.5161 14.8163C13.4065 14.8163 13.2981 14.7939 13.1975 14.7503C13.097 14.7067 13.0064 14.643 12.9315 14.563C12.8565 14.4831 12.7988 14.3886 12.7618 14.2854C12.7248 14.1823 12.7094 14.0726 12.7164 13.9633V7.01805C12.7164 6.80551 12.8009 6.60168 12.9511 6.4514C13.1014 6.30111 13.3053 6.21668 13.5178 6.21668L38.7096 6.22002ZM38.7096 29.2768C38.9221 29.2768 39.1259 29.3612 39.2762 29.5115C39.4265 29.6618 39.5109 29.8656 39.5109 30.0782C39.5109 30.2907 39.4265 30.4945 39.2762 30.6448C39.1259 30.7951 38.9221 30.8795 38.7096 30.8795H28.9596C28.747 30.8795 28.5432 30.7951 28.3929 30.6448C28.2426 30.4945 28.1582 30.2907 28.1582 30.0782C28.1582 29.8656 28.2426 29.6618 28.3929 29.5115C28.5432 29.3612 28.747 29.2768 28.9596 29.2768H38.7096ZM20.7882 39.6566L23.0962 37.3493L21.7706 36.0203C21.6445 35.8934 21.5644 35.728 21.5433 35.5503C21.5221 35.3726 21.561 35.193 21.6537 35.04C22.1582 34.2166 22.5334 33.3206 22.7663 32.3835C22.7966 32.1956 22.8927 32.0247 23.0374 31.9013C23.1821 31.7778 23.3661 31.7099 23.5563 31.7096H25.4342V28.4454H23.5543C23.3755 28.4447 23.202 28.3843 23.0616 28.2737C22.9211 28.1631 22.8216 28.0087 22.779 27.835C22.548 26.8948 22.1777 25.9944 21.6804 25.1638C21.5713 25.009 21.5205 24.8207 21.537 24.6321C21.5535 24.4434 21.6363 24.2668 21.7706 24.1333L23.0995 22.8044L20.7916 20.4971L19.46 21.8254C19.3331 21.9514 19.1678 22.0313 18.9902 22.0525C18.8127 22.0736 18.6332 22.0348 18.4803 21.9423C17.6567 21.4376 16.7605 21.0624 15.8231 20.8297C15.6353 20.7994 15.4644 20.7033 15.3409 20.5586C15.2175 20.4138 15.1495 20.2299 15.1493 20.0397V18.1604H11.887V20.0383C11.8864 20.217 11.826 20.3904 11.7156 20.5309C11.6051 20.6714 11.4508 20.7709 11.2773 20.8137C10.3364 21.0429 9.43575 21.4135 8.60606 21.9129C8.45192 22.0214 8.26444 22.0722 8.07658 22.0562C7.88873 22.0402 7.71253 21.9585 7.57897 21.8254L6.24402 20.4971L3.93607 22.8044L5.26434 24.1333C5.39047 24.2602 5.47049 24.4257 5.49167 24.6034C5.51285 24.781 5.47396 24.9607 5.38121 25.1137C5.12385 25.5339 4.90054 25.9741 4.7134 26.4299C4.53305 26.8651 4.38528 27.3131 4.27131 27.7702C4.24117 27.9582 4.14513 28.1292 4.00038 28.2528C3.85563 28.3764 3.67162 28.4444 3.48129 28.4447H1.60274V31.7083H3.48129C3.65998 31.7091 3.83328 31.7696 3.97364 31.8802C4.11399 31.9908 4.21336 32.1451 4.25595 32.3187C4.48684 33.259 4.85736 34.1594 5.35516 34.9899C5.46391 35.1441 5.51476 35.3317 5.49876 35.5197C5.48275 35.7077 5.40092 35.8841 5.26768 36.0177L3.93607 37.3493L6.24402 39.6566L7.57229 38.3283C7.69915 38.2023 7.86449 38.1224 8.04201 38.1012C8.21953 38.08 8.39903 38.1188 8.55197 38.2114C9.37539 38.7159 10.2713 39.0911 11.2085 39.324C11.3964 39.3541 11.5675 39.4502 11.6911 39.5949C11.8147 39.7397 11.8827 39.9237 11.883 40.114V41.9919H15.1466V40.1154C15.1465 39.9365 15.2066 39.7627 15.3172 39.6221C15.4278 39.4815 15.5824 39.3821 15.7563 39.34C16.6972 39.1109 17.5979 38.7403 18.4275 38.2408C18.5817 38.1321 18.7694 38.0812 18.9574 38.0972C19.1454 38.1132 19.3217 38.1951 19.4553 38.3283L20.7836 39.6566H20.7882ZM24.2355 38.4719L21.9108 40.7965C21.6127 41.0935 21.209 41.2602 20.7882 41.2602C20.3674 41.2602 19.9638 41.0935 19.6657 40.7965L18.7594 39.8903C18.118 40.234 17.444 40.5129 16.7473 40.7231V42.0053C16.7466 42.4262 16.5791 42.8296 16.2814 43.1272C15.9837 43.4247 15.5802 43.5921 15.1593 43.5926H11.8723C11.6639 43.5924 11.4577 43.551 11.2653 43.4708C11.073 43.3906 10.8985 43.2731 10.7517 43.1252C10.6037 42.9782 10.4862 42.8034 10.406 42.6109C10.3258 42.4183 10.2844 42.2118 10.2843 42.0033V40.7237C9.58818 40.5123 8.91448 40.2331 8.27282 39.8903L7.36661 40.7965C7.06847 41.0935 6.66482 41.2602 6.24402 41.2602C5.82322 41.2602 5.41957 41.0935 5.12143 40.7965L2.79612 38.4719C2.49916 38.1737 2.33242 37.7701 2.33242 37.3493C2.33242 36.9285 2.49916 36.5248 2.79612 36.2267L3.70234 35.3205C3.35932 34.679 3.08102 34.005 2.87158 33.3084H1.58738C1.3791 33.3082 1.17292 33.2668 0.980712 33.1865C0.788505 33.1063 0.614073 32.9888 0.467466 32.8409C0.319552 32.6939 0.202118 32.5191 0.1219 32.3265C0.0416813 32.134 0.000256286 31.9276 0 31.719V28.4327C0.00193212 28.0123 0.169794 27.6097 0.467068 27.3124C0.764343 27.0151 1.16698 26.8472 1.58738 26.8453H2.87158C3.08241 26.1488 3.36158 25.4748 3.70501 24.8332L2.79612 23.927C2.49916 23.6288 2.33242 23.2252 2.33242 22.8044C2.33242 22.3836 2.49916 21.9799 2.79612 21.6818L5.12143 19.3572C5.41957 19.0602 5.82322 18.8935 6.24402 18.8935C6.66482 18.8935 7.06847 19.0602 7.36661 19.3572L8.27282 20.2634C8.91442 19.9206 9.58814 19.6417 10.2843 19.4306V18.1484C10.2864 17.728 10.4544 17.3253 10.7518 17.0281C11.0491 16.7308 11.4518 16.563 11.8723 16.561H15.1593C15.5799 16.5623 15.9829 16.7299 16.2804 17.0273C16.5778 17.3248 16.7454 17.7278 16.7467 18.1484V19.4306C17.443 19.6416 18.117 19.9205 18.7588 20.2634L19.665 19.3572C19.9631 19.0602 20.3668 18.8935 20.7876 18.8935C21.2084 18.8935 21.612 19.0602 21.9102 19.3572L24.2348 21.6818C24.5321 21.9798 24.699 22.3835 24.699 22.8044C24.699 23.2253 24.5321 23.629 24.2348 23.927L23.3286 24.8332C23.6728 25.4744 23.952 26.1485 24.162 26.8453H25.4435C25.8639 26.8472 26.2666 27.0151 26.5639 27.3124C26.8611 27.6097 27.029 28.0123 27.0309 28.4327V31.721C27.029 32.1414 26.8611 32.544 26.5639 32.8413C26.2666 33.1386 25.8639 33.3064 25.4435 33.3084H24.1627C23.9511 34.0046 23.672 34.6785 23.3293 35.3205L24.2355 36.2267C24.5328 36.5247 24.6997 36.9284 24.6997 37.3493C24.6997 37.7702 24.5328 38.1739 24.2355 38.4719ZM16.8568 26.7378C17.5176 27.3986 17.9675 28.2405 18.1498 29.157C18.3321 30.0735 18.2385 31.0234 17.8809 31.8867C17.5232 32.75 16.9177 33.4879 16.1407 34.0071C15.3637 34.5262 14.4502 34.8033 13.5158 34.8033C12.5813 34.8033 11.6679 34.5262 10.8909 34.0071C10.1139 33.4879 9.50835 32.75 9.15073 31.8867C8.79312 31.0234 8.69953 30.0735 8.8818 29.157C9.06407 28.2405 9.51402 27.3986 10.1747 26.7378C10.6135 26.299 11.1344 25.951 11.7076 25.7135C12.2809 25.476 12.8953 25.3538 13.5158 25.3538C14.1363 25.3538 14.7507 25.476 15.324 25.7135C15.8972 25.951 16.4181 26.299 16.8568 26.7378ZM13.5178 23.754C14.7687 23.7544 15.9915 24.1258 17.0313 24.8211C18.0712 25.5164 18.8816 26.5044 19.3599 27.6603C19.8383 28.8162 19.9631 30.0879 19.7187 31.3147C19.4743 32.5415 18.8715 33.6683 17.9867 34.5526C17.1019 35.4368 15.9747 36.0389 14.7477 36.2825C13.5208 36.5262 12.2491 36.4005 11.0935 35.9215C9.93798 35.4424 8.95043 34.6314 8.25578 33.5911C7.56113 32.5507 7.19058 31.3278 7.19097 30.0768C7.19097 28.3994 7.85734 26.7907 9.04347 25.6045C10.2296 24.4184 11.8383 23.752 13.5158 23.752L13.5178 23.754Z" fill="#0CB4C4"></path></svg>