<svg width="62" height="62" viewBox="0 0 62 62" fill="none" xmlns="http://www.w3.org/2000/svg"><path d="M57.2312 27.2278C55.3585 27.2278 53.8069 28.5986 53.5139 30.3923L44.9354 30.3898C45.0781 28.512 44.3876 26.6393 42.971 25.3144C41.9213 24.3284 40.5913 23.7679 39.2206 23.6507L47.3535 15.5177C48.0058 15.9865 48.7752 16.2362 49.5447 16.2362C50.5104 16.2362 51.476 15.8719 52.2123 15.133C52.9231 14.4222 53.3206 13.4692 53.3206 12.4654C53.3206 11.4616 52.9282 10.5086 52.2123 9.7978C50.7371 8.3226 48.3446 8.3226 46.8694 9.7978C45.5446 11.1227 45.4222 13.1839 46.4771 14.6566L37.3885 23.7497C37.0955 23.8159 36.8025 23.8923 36.5069 23.9968C36.0305 22.1445 34.9349 20.5266 33.3629 19.3928C32.8151 18.9953 32.2291 18.682 31.615 18.4348L31.6176 8.50093C33.4113 8.20793 34.7821 6.65629 34.7821 4.7836C34.7795 2.69691 33.0851 1 31.0035 1C28.9219 1 27.2276 2.69691 27.2276 4.77597C27.2276 6.64866 28.5983 8.20031 30.392 8.4933V18.0351C29.3551 17.7931 28.2722 17.7549 27.1893 17.9307C25.1663 18.2644 23.3472 19.3397 22.0681 20.9626C22.035 21.0085 22.0019 21.0543 21.9713 21.0926L15.5201 14.6414C15.9762 14.0018 16.2386 13.2451 16.2386 12.4502C16.2386 11.4387 15.8462 10.4934 15.1303 9.78259C13.6551 8.30738 11.2626 8.30738 9.78742 9.78259C9.07659 10.4934 8.67911 11.4464 8.67911 12.4502C8.67911 13.4541 9.07148 14.4069 9.78742 15.1178C10.4982 15.8286 11.4512 16.2261 12.455 16.2261C13.2576 16.2261 14.0143 15.9713 14.6462 15.5076L21.2862 22.1475C20.6543 23.3221 20.3078 24.619 20.2874 25.9566H20.2619C18.2975 25.9566 16.3866 26.6878 14.9318 28.0254C14.1954 28.698 13.6069 29.5057 13.1763 30.3873L8.50093 30.3899C8.20793 28.5962 6.65629 27.2254 4.7836 27.2254C2.69691 27.2279 1 28.9223 1 31.0039C1 33.0855 2.69691 34.7799 4.77597 34.7799C6.64866 34.7799 8.20031 33.4091 8.4933 31.6154H12.6998C12.4858 32.3339 12.3661 33.083 12.3661 33.8473C12.3661 36.0971 13.2399 38.1329 14.8247 39.5801C16.0783 40.7215 17.7013 41.4323 19.4873 41.654L14.6463 46.495C14.0068 46.039 13.2501 45.7765 12.4552 45.7765C11.4436 45.7765 10.4984 46.1689 9.78756 46.8848C9.07673 47.5956 8.67925 48.5486 8.67925 49.5524C8.67925 50.5639 9.07162 51.5092 9.78756 52.22C10.5061 52.9308 11.4513 53.3283 12.4552 53.3283C13.459 53.3283 14.4119 52.9359 15.1227 52.22C15.8336 51.5092 16.2311 50.5562 16.2311 49.5524C16.2311 48.7498 15.9763 47.9931 15.5125 47.3612L21.1357 41.7381H30.3847L30.3898 53.5067C28.5961 53.7997 27.2253 55.3513 27.2253 57.224C27.2253 59.3056 28.9222 61 31.0013 61C33.0829 61 34.7772 59.3031 34.7772 57.224C34.7772 55.3513 33.4064 53.7997 31.6127 53.5067L31.6178 41.7328H40.8668L46.49 47.356C45.4326 48.8312 45.5574 50.8975 46.8823 52.2148C47.6187 52.9511 48.5843 53.318 49.5499 53.318C50.5156 53.318 51.4812 52.9537 52.2175 52.2148C53.6927 50.7396 53.6927 48.3471 52.2175 46.8719C50.8927 45.547 48.8314 45.4247 47.3588 46.4795L42.5968 41.7175H44.3905H44.4236C45.7995 41.7175 47.0989 41.1774 48.0823 40.199C49.0811 39.2079 49.634 37.883 49.634 36.4741C49.634 35.0141 49.0149 33.6052 47.9448 32.6191C47.4556 32.1681 46.8874 31.8369 46.281 31.6025L53.5067 31.605C53.7997 33.3988 55.3513 34.7695 57.224 34.7695C59.3056 34.7695 61 33.0726 61 30.9936C61 28.9094 59.3103 27.2278 57.2312 27.2278ZM28.4531 4.7759C28.4531 3.3669 29.5945 2.22545 31.0035 2.22545C32.4125 2.22545 33.554 3.3669 33.554 4.7759C33.554 6.1849 32.4125 7.32635 31.0035 7.32635C29.5945 7.32635 28.4531 6.1849 28.4531 4.7759ZM10.6537 14.259C10.1721 13.7775 9.90462 13.1379 9.90462 12.4526C9.90462 11.7672 10.1722 11.1278 10.6537 10.6462C11.1505 10.1494 11.8028 9.90223 12.4601 9.90223C13.1123 9.90223 13.7646 10.1494 14.2665 10.6462C14.7481 11.1277 15.0156 11.7673 15.0156 12.4526C15.0156 13.138 14.748 13.7775 14.2665 14.259C13.785 14.7406 13.1454 15.0081 12.4601 15.0081C11.7747 15.0106 11.1352 14.7431 10.6537 14.259ZM4.77575 33.554C3.36674 33.554 2.2253 32.4126 2.2253 31.0036C2.2253 29.5946 3.36674 28.4531 4.77575 28.4531C6.18475 28.4531 7.32619 29.5946 7.32619 31.0036C7.32619 32.4126 6.18475 33.554 4.77575 33.554ZM33.5539 57.2315C33.5539 58.6406 32.4124 59.782 31.0034 59.782C29.5944 59.782 28.453 58.6406 28.453 57.2315C28.453 55.8225 29.5944 54.6811 31.0034 54.6811C32.4124 54.6811 33.5539 55.8225 33.5539 57.2315ZM51.3533 47.7484C52.3444 48.7395 52.3444 50.3651 51.3533 51.3562C50.3622 52.3473 48.7366 52.3473 47.7455 51.3562C46.7544 50.3651 46.7544 48.7395 47.7455 47.7484C48.2424 47.2516 48.8946 47.0045 49.552 47.0045C50.1991 46.9968 50.859 47.244 51.3533 47.7484ZM47.7481 10.654C48.2449 10.1572 48.8972 9.91006 49.5545 9.91006C50.2067 9.91006 50.859 10.1572 51.3609 10.654C51.8425 11.1356 52.11 11.7751 52.11 12.4604C52.11 13.1458 51.8424 13.7853 51.3609 14.2669C50.3698 15.258 48.7443 15.258 47.7532 14.2669C46.7493 13.2681 46.7493 11.6503 47.7481 10.654ZM14.2587 51.3534C13.7771 51.835 13.1376 52.1025 12.4523 52.1025C11.7669 52.1025 11.1274 51.8349 10.6458 51.3534C10.1643 50.8719 9.8968 50.2323 9.8968 49.547C9.8968 48.8616 10.1643 48.2222 10.6458 47.7406C11.1274 47.259 11.7669 46.9915 12.4523 46.9915C13.1377 46.9915 13.7771 47.2591 14.2587 47.7406C14.7402 48.2221 15.0077 48.8617 15.0077 49.547C15.0103 50.2324 14.7428 50.8719 14.2587 51.3534ZM48.4127 36.4892C48.4127 37.5644 47.9898 38.5759 47.2203 39.3403C46.456 40.097 45.4521 40.5148 44.3897 40.5021L20.6717 40.4995C16.5696 40.4995 13.5935 37.7019 13.5935 33.8393C13.5935 31.9488 14.3629 30.201 15.7591 28.9271C16.9923 27.806 18.6026 27.1843 20.2587 27.1843C20.4599 27.1843 20.6561 27.192 20.86 27.2098C21.0358 27.2225 21.2116 27.1639 21.3415 27.0391C21.4714 26.9142 21.5377 26.7384 21.5249 26.5626C21.2829 22.9752 23.8537 19.714 27.3825 19.1406C29.2476 18.8349 31.1203 19.2782 32.6464 20.3789C34.1649 21.4821 35.1637 23.1051 35.4567 24.9574C35.4898 25.1536 35.607 25.3217 35.7829 25.4083C35.9587 25.5001 36.1676 25.4924 36.3434 25.4007C38.2416 24.4096 40.5703 24.7281 42.1347 26.1957C43.6226 27.5843 44.1246 29.7321 43.4189 31.6558C43.3475 31.8519 43.3806 32.0736 43.5106 32.2367C43.6354 32.3997 43.8367 32.4915 44.0456 32.4787C45.1871 32.3819 46.2776 32.759 47.1107 33.5285C47.949 34.303 48.4127 35.3554 48.4127 36.4892ZM57.2312 33.554C55.8222 33.554 54.6808 32.4126 54.6808 31.0036C54.6808 29.5946 55.8222 28.4531 57.2312 28.4531C58.6402 28.4531 59.7817 29.5946 59.7817 31.0036C59.7817 32.4126 58.6402 33.554 57.2312 33.554Z" fill="#0CB4C4" stroke="#0CB4C4" stroke-width="0.4"></path></svg>